<?xml version="1.0" encoding="UTF-8" standalone="no"?>
<!DOCTYPE svg PUBLIC "-//W3C//DTD SVG 1.1//EN"
 "http://www.w3.org/Graphics/SVG/1.1/DTD/svg11.dtd">
<!-- Generated by graphviz version 2.46.1 (20210216.1203)
 -->
<!-- Pages: 1 -->
<svg width="2360pt" height="880pt"
 viewBox="0.00 0.00 2359.75 880.00" xmlns="http://www.w3.org/2000/svg" xmlns:xlink="http://www.w3.org/1999/xlink">
<g id="graph0" class="graph" transform="scale(1 1) rotate(0) translate(4 876)">
<polygon fill="white" stroke="transparent" points="-4,4 -4,-876 2355.75,-876 2355.75,4 -4,4"/>
<!-- aiohttp -->
<g id="node1" class="node">
<title>aiohttp</title>
<g id="a_node1"><a xlink:href="https://github.com/conda-forge/aiohttp-feedstock" xlink:title="aiohttp">
<ellipse fill="#fde725" stroke="black" cx="804" cy="-638" rx="43.59" ry="18"/>
<text text-anchor="middle" x="804" y="-634.3" font-family="Times-Roman" font-size="14.00">aiohttp</text>
</a>
</g>
</g>
<!-- black -->
<g id="node2" class="node">
<title>black</title>
<g id="a_node2"><a xlink:href="https://github.com/conda-forge/black-feedstock" xlink:title="black">
<ellipse fill="#fde725" stroke="black" cx="804" cy="-566" rx="35.19" ry="18"/>
<text text-anchor="middle" x="804" y="-562.3" font-family="Times-Roman" font-size="14.00">black</text>
</a>
</g>
</g>
<!-- aiohttp&#45;&gt;black -->
<g id="edge1" class="edge">
<title>aiohttp&#45;&gt;black</title>
<path fill="none" stroke="black" d="M798.12,-620.05C797.29,-612.23 797.05,-602.75 797.41,-593.98"/>
<polygon fill="black" stroke="black" points="800.92,-594.01 798.14,-583.79 793.93,-593.51 800.92,-594.01"/>
</g>
<!-- black&#45;&gt;aiohttp -->
<g id="edge2" class="edge">
<title>black&#45;&gt;aiohttp</title>
<path fill="none" stroke="black" d="M809.86,-583.79C810.7,-591.59 810.94,-601.07 810.6,-609.85"/>
<polygon fill="black" stroke="black" points="807.09,-609.83 809.88,-620.05 814.07,-610.33 807.09,-609.83"/>
</g>
<!-- hyperspy -->
<g id="node3" class="node">
<title>hyperspy</title>
<g id="a_node3"><a xlink:href="https://github.com/conda-forge/hyperspy-feedstock" xlink:title="hyperspy">
<ellipse fill="#fde725" stroke="black" cx="569" cy="-494" rx="54" ry="18"/>
<text text-anchor="middle" x="569" y="-490.3" font-family="Times-Roman" font-size="14.00">hyperspy</text>
</a>
</g>
</g>
<!-- black&#45;&gt;hyperspy -->
<g id="edge3" class="edge">
<title>black&#45;&gt;hyperspy</title>
<path fill="none" stroke="black" d="M774.24,-556.13C734.8,-544.39 664.74,-523.52 617.58,-509.47"/>
<polygon fill="black" stroke="black" points="618.47,-506.08 607.88,-506.58 616.47,-512.79 618.47,-506.08"/>
</g>
<!-- jupyter -->
<g id="node4" class="node">
<title>jupyter</title>
<g id="a_node4"><a xlink:href="https://github.com/conda-forge/jupyter-feedstock" xlink:title="jupyter">
<ellipse fill="#fde725" stroke="black" cx="732" cy="-422" rx="43.59" ry="18"/>
<text text-anchor="middle" x="732" y="-418.3" font-family="Times-Roman" font-size="14.00">jupyter</text>
</a>
</g>
</g>
<!-- black&#45;&gt;jupyter -->
<g id="edge4" class="edge">
<title>black&#45;&gt;jupyter</title>
<path fill="none" stroke="black" d="M795.6,-548.43C783.2,-523.98 759.89,-478 745.19,-449.02"/>
<polygon fill="black" stroke="black" points="748.21,-447.24 740.57,-439.9 741.97,-450.4 748.21,-447.24"/>
</g>
<!-- nbgrader -->
<g id="node5" class="node">
<title>nbgrader</title>
<g id="a_node5"><a xlink:href="https://github.com/conda-forge/nbgrader-feedstock" xlink:title="nbgrader">
<ellipse fill="#fde725" stroke="black" cx="733" cy="-350" rx="54" ry="18"/>
<text text-anchor="middle" x="733" y="-346.3" font-family="Times-Roman" font-size="14.00">nbgrader</text>
</a>
</g>
</g>
<!-- black&#45;&gt;nbgrader -->
<g id="edge5" class="edge">
<title>black&#45;&gt;nbgrader</title>
<path fill="none" stroke="black" d="M805.5,-547.55C807.38,-516.87 807.98,-451.98 785,-404 779.52,-392.56 770.56,-382.08 761.62,-373.51"/>
<polygon fill="black" stroke="black" points="763.95,-370.9 754.18,-366.79 759.25,-376.09 763.95,-370.9"/>
</g>
<!-- jupyter_server -->
<g id="node6" class="node">
<title>jupyter_server</title>
<g id="a_node6"><a xlink:href="https://github.com/conda-forge/jupyter_server-feedstock" xlink:title="jupyter_server">
<ellipse fill="#fde725" stroke="black" cx="707" cy="-278" rx="78" ry="18"/>
<text text-anchor="middle" x="707" y="-274.3" font-family="Times-Roman" font-size="14.00">jupyter_server</text>
</a>
</g>
</g>
<!-- black&#45;&gt;jupyter_server -->
<g id="edge6" class="edge">
<title>black&#45;&gt;jupyter_server</title>
<path fill="none" stroke="black" d="M783.43,-551.27C754.63,-530.8 703.14,-489.35 679,-440 657.84,-396.73 655.55,-377.95 670,-332 673.18,-321.88 679.06,-312.01 685.2,-303.59"/>
<polygon fill="black" stroke="black" points="687.97,-305.73 691.35,-295.69 682.45,-301.43 687.97,-305.73"/>
</g>
<!-- pytorch&#45;cpu -->
<g id="node7" class="node">
<title>pytorch&#45;cpu</title>
<g id="a_node7"><a xlink:href="https://github.com/conda-forge/pytorch-cpu-feedstock" xlink:title="pytorch cpu">
<ellipse fill="#fde725" stroke="black" cx="1161" cy="-494" rx="65.79" ry="18"/>
<text text-anchor="middle" x="1161" y="-490.3" font-family="Times-Roman" font-size="14.00">pytorch cpu</text>
</a>
</g>
</g>
<!-- black&#45;&gt;pytorch&#45;cpu -->
<g id="edge7" class="edge">
<title>black&#45;&gt;pytorch&#45;cpu</title>
<path fill="none" stroke="black" d="M836.64,-559.27C889.25,-549.95 996,-530.65 1086,-512 1091.39,-510.88 1096.99,-509.68 1102.6,-508.46"/>
<polygon fill="black" stroke="black" points="1103.63,-511.81 1112.64,-506.24 1102.12,-504.98 1103.63,-511.81"/>
</g>
<!-- anyio -->
<g id="node8" class="node">
<title>anyio</title>
<g id="a_node8"><a xlink:href="https://github.com/conda-forge/anyio-feedstock" xlink:title="anyio">
<ellipse fill="#fde725" stroke="black" cx="842" cy="-350" rx="36.5" ry="18"/>
<text text-anchor="middle" x="842" y="-346.3" font-family="Times-Roman" font-size="14.00">anyio</text>
</a>
</g>
</g>
<!-- black&#45;&gt;anyio -->
<g id="edge8" class="edge">
<title>black&#45;&gt;anyio</title>
<path fill="none" stroke="black" d="M809.02,-547.93C811.93,-537.6 815.5,-524.12 818,-512 827.63,-465.25 835,-410.1 838.9,-377.99"/>
<polygon fill="black" stroke="black" points="842.38,-378.37 840.09,-368.03 835.43,-377.54 842.38,-378.37"/>
</g>
<!-- dm&#45;tree -->
<g id="node9" class="node">
<title>dm&#45;tree</title>
<g id="a_node9"><a xlink:href="https://github.com/conda-forge/dm-tree-feedstock" xlink:title="dm tree">
<ellipse fill="#fde725" stroke="black" cx="907" cy="-278" rx="48.19" ry="18"/>
<text text-anchor="middle" x="907" y="-274.3" font-family="Times-Roman" font-size="14.00">dm tree</text>
</a>
</g>
</g>
<!-- black&#45;&gt;dm&#45;tree -->
<g id="edge9" class="edge">
<title>black&#45;&gt;dm&#45;tree</title>
<path fill="none" stroke="black" d="M814.98,-548.77C821.62,-538.52 829.93,-524.83 836,-512 865.03,-450.62 868.19,-433.24 887,-368 892.89,-347.59 898.1,-324.13 901.72,-306.42"/>
<polygon fill="black" stroke="black" points="905.23,-306.71 903.77,-296.22 898.37,-305.33 905.23,-306.71"/>
</g>
<!-- jupyter&#45;&gt;nbgrader -->
<g id="edge21" class="edge">
<title>jupyter&#45;&gt;nbgrader</title>
<path fill="none" stroke="black" d="M732.25,-403.7C732.36,-395.98 732.49,-386.71 732.61,-378.11"/>
<polygon fill="black" stroke="black" points="736.11,-378.15 732.76,-368.1 729.11,-378.05 736.11,-378.15"/>
</g>
<!-- allennlp -->
<g id="node43" class="node">
<title>allennlp</title>
<g id="a_node43"><a xlink:href="https://github.com/conda-forge/allennlp-feedstock" xlink:title="allennlp">
<ellipse fill="#fde725" stroke="black" cx="1161" cy="-422" rx="47.5" ry="18"/>
<text text-anchor="middle" x="1161" y="-418.3" font-family="Times-Roman" font-size="14.00">allennlp</text>
</a>
</g>
</g>
<!-- pytorch&#45;cpu&#45;&gt;allennlp -->
<g id="edge43" class="edge">
<title>pytorch&#45;cpu&#45;&gt;allennlp</title>
<path fill="none" stroke="black" d="M1161,-475.7C1161,-467.98 1161,-458.71 1161,-450.11"/>
<polygon fill="black" stroke="black" points="1164.5,-450.1 1161,-440.1 1157.5,-450.1 1164.5,-450.1"/>
</g>
<!-- anyio&#45;&gt;jupyter_server -->
<g id="edge44" class="edge">
<title>anyio&#45;&gt;jupyter_server</title>
<path fill="none" stroke="black" d="M817.86,-336.49C798.05,-326.21 769.58,-311.45 746.45,-299.46"/>
<polygon fill="black" stroke="black" points="748.05,-296.34 737.56,-294.85 744.83,-302.56 748.05,-296.34"/>
</g>
<!-- elfutils -->
<g id="node10" class="node">
<title>elfutils</title>
<g id="a_node10"><a xlink:href="https://github.com/conda-forge/elfutils-feedstock/pull/20" xlink:title="elfutils ❎">
<ellipse fill="#31688e" stroke="black" cx="1554" cy="-638" rx="54" ry="18"/>
<text text-anchor="middle" x="1554" y="-634.3" font-family="Times-Roman" font-size="14.00" fill="white">elfutils ❎</text>
</a>
</g>
</g>
<!-- heaptrack -->
<g id="node11" class="node">
<title>heaptrack</title>
<g id="a_node11"><a xlink:href="https://github.com/conda-forge/heaptrack-feedstock" xlink:title="heaptrack">
<ellipse fill="#fde725" stroke="black" cx="1553" cy="-566" rx="58" ry="18"/>
<text text-anchor="middle" x="1553" y="-562.3" font-family="Times-Roman" font-size="14.00">heaptrack</text>
</a>
</g>
</g>
<!-- elfutils&#45;&gt;heaptrack -->
<g id="edge10" class="edge">
<title>elfutils&#45;&gt;heaptrack</title>
<path fill="none" stroke="black" d="M1553.75,-619.7C1553.64,-611.98 1553.51,-602.71 1553.39,-594.11"/>
<polygon fill="black" stroke="black" points="1556.89,-594.05 1553.24,-584.1 1549.89,-594.15 1556.89,-594.05"/>
</g>
<!-- fastparquet -->
<g id="node12" class="node">
<title>fastparquet</title>
<g id="a_node12"><a xlink:href="https://github.com/conda-forge/fastparquet-feedstock" xlink:title="fastparquet">
<ellipse fill="#fde725" stroke="black" cx="1769" cy="-18" rx="65" ry="18"/>
<text text-anchor="middle" x="1769" y="-14.3" font-family="Times-Roman" font-size="14.00">fastparquet</text>
</a>
</g>
</g>
<!-- gdal -->
<g id="node13" class="node">
<title>gdal</title>
<g id="a_node13"><a xlink:href="https://github.com/conda-forge/gdal-feedstock" xlink:title="gdal">
<ellipse fill="#fde725" stroke="black" cx="2127" cy="-458" rx="30.59" ry="18"/>
<text text-anchor="middle" x="2127" y="-454.3" font-family="Times-Roman" font-size="14.00">gdal</text>
</a>
</g>
</g>
<!-- kealib -->
<g id="node14" class="node">
<title>kealib</title>
<g id="a_node14"><a xlink:href="https://github.com/conda-forge/kealib-feedstock" xlink:title="kealib">
<ellipse fill="#fde725" stroke="black" cx="2127" cy="-386" rx="38.5" ry="18"/>
<text text-anchor="middle" x="2127" y="-382.3" font-family="Times-Roman" font-size="14.00">kealib</text>
</a>
</g>
</g>
<!-- gdal&#45;&gt;kealib -->
<g id="edge11" class="edge">
<title>gdal&#45;&gt;kealib</title>
<path fill="none" stroke="black" d="M2121.12,-440.05C2120.3,-432.35 2120.06,-423.03 2120.39,-414.36"/>
<polygon fill="black" stroke="black" points="2123.89,-414.49 2121.09,-404.28 2116.91,-414.01 2123.89,-414.49"/>
</g>
<!-- r&#45;sf -->
<g id="node15" class="node">
<title>r&#45;sf</title>
<g id="a_node15"><a xlink:href="https://github.com/conda-forge/r-sf-feedstock" xlink:title="r sf">
<ellipse fill="#fde725" stroke="black" cx="2041" cy="-386" rx="27" ry="18"/>
<text text-anchor="middle" x="2041" y="-382.3" font-family="Times-Roman" font-size="14.00">r sf</text>
</a>
</g>
</g>
<!-- gdal&#45;&gt;r&#45;sf -->
<g id="edge12" class="edge">
<title>gdal&#45;&gt;r&#45;sf</title>
<path fill="none" stroke="black" d="M2109.6,-442.83C2096.88,-432.48 2079.46,-418.31 2065.36,-406.83"/>
<polygon fill="black" stroke="black" points="2067.47,-404.03 2057.5,-400.43 2063.05,-409.46 2067.47,-404.03"/>
</g>
<!-- kealib&#45;&gt;gdal -->
<g id="edge13" class="edge">
<title>kealib&#45;&gt;gdal</title>
<path fill="none" stroke="black" d="M2132.91,-404.28C2133.71,-412.03 2133.94,-421.36 2133.59,-430.01"/>
<polygon fill="black" stroke="black" points="2130.09,-429.83 2132.88,-440.05 2137.08,-430.33 2130.09,-429.83"/>
</g>
<!-- r&#45;spdep -->
<g id="node16" class="node">
<title>r&#45;spdep</title>
<g id="a_node16"><a xlink:href="https://github.com/conda-forge/r-spdep-feedstock" xlink:title="r spdep">
<ellipse fill="#fde725" stroke="black" cx="2041" cy="-314" rx="46.29" ry="18"/>
<text text-anchor="middle" x="2041" y="-310.3" font-family="Times-Roman" font-size="14.00">r spdep</text>
</a>
</g>
</g>
<!-- r&#45;sf&#45;&gt;r&#45;spdep -->
<g id="edge14" class="edge">
<title>r&#45;sf&#45;&gt;r&#45;spdep</title>
<path fill="none" stroke="black" d="M2041,-367.7C2041,-359.98 2041,-350.71 2041,-342.11"/>
<polygon fill="black" stroke="black" points="2044.5,-342.1 2041,-332.1 2037.5,-342.1 2044.5,-342.1"/>
</g>
<!-- geos -->
<g id="node17" class="node">
<title>geos</title>
<g id="a_node17"><a xlink:href="https://github.com/conda-forge/geos-feedstock/pull/47" xlink:title="geos ❎">
<ellipse fill="#31688e" stroke="black" cx="2119" cy="-674" rx="45.5" ry="18"/>
<text text-anchor="middle" x="2119" y="-670.3" font-family="Times-Roman" font-size="14.00" fill="white">geos ❎</text>
</a>
</g>
</g>
<!-- geos&#45;&gt;gdal -->
<g id="edge15" class="edge">
<title>geos&#45;&gt;gdal</title>
<path fill="none" stroke="black" d="M2113.08,-655.85C2103.69,-626.16 2087.65,-563.45 2100,-512 2102.34,-502.27 2106.77,-492.3 2111.39,-483.68"/>
<polygon fill="black" stroke="black" points="2114.47,-485.35 2116.37,-474.93 2108.38,-481.89 2114.47,-485.35"/>
</g>
<!-- libspatialite -->
<g id="node18" class="node">
<title>libspatialite</title>
<g id="a_node18"><a xlink:href="https://github.com/conda-forge/libspatialite-feedstock" xlink:title="libspatialite">
<ellipse fill="#fde725" stroke="black" cx="2173" cy="-530" rx="63.89" ry="18"/>
<text text-anchor="middle" x="2173" y="-526.3" font-family="Times-Roman" font-size="14.00">libspatialite</text>
</a>
</g>
</g>
<!-- geos&#45;&gt;libspatialite -->
<g id="edge16" class="edge">
<title>geos&#45;&gt;libspatialite</title>
<path fill="none" stroke="black" d="M2120.76,-655.7C2123.06,-637.34 2128.04,-607.75 2138,-584 2142.05,-574.34 2147.91,-564.55 2153.69,-556.06"/>
<polygon fill="black" stroke="black" points="2156.66,-557.92 2159.59,-547.74 2150.95,-553.87 2156.66,-557.92"/>
</g>
<!-- librttopo -->
<g id="node19" class="node">
<title>librttopo</title>
<g id="a_node19"><a xlink:href="https://github.com/conda-forge/librttopo-feedstock" xlink:title="librttopo">
<ellipse fill="#fde725" stroke="black" cx="2197" cy="-602" rx="50.09" ry="18"/>
<text text-anchor="middle" x="2197" y="-598.3" font-family="Times-Roman" font-size="14.00">librttopo</text>
</a>
</g>
</g>
<!-- geos&#45;&gt;librttopo -->
<g id="edge17" class="edge">
<title>geos&#45;&gt;librttopo</title>
<path fill="none" stroke="black" d="M2136.7,-657.12C2147,-647.87 2160.16,-636.07 2171.55,-625.84"/>
<polygon fill="black" stroke="black" points="2174,-628.35 2179.1,-619.06 2169.32,-623.14 2174,-628.35"/>
</g>
<!-- libspatialite&#45;&gt;gdal -->
<g id="edge18" class="edge">
<title>libspatialite&#45;&gt;gdal</title>
<path fill="none" stroke="black" d="M2161.86,-512.05C2156.3,-503.59 2149.47,-493.19 2143.33,-483.84"/>
<polygon fill="black" stroke="black" points="2146.13,-481.74 2137.72,-475.31 2140.28,-485.59 2146.13,-481.74"/>
</g>
<!-- librttopo&#45;&gt;libspatialite -->
<g id="edge19" class="edge">
<title>librttopo&#45;&gt;libspatialite</title>
<path fill="none" stroke="black" d="M2191.19,-584.05C2188.49,-576.18 2185.21,-566.62 2182.19,-557.79"/>
<polygon fill="black" stroke="black" points="2185.48,-556.6 2178.92,-548.28 2178.86,-558.87 2185.48,-556.6"/>
</g>
<!-- googleapis&#45;common&#45;protos -->
<g id="node20" class="node">
<title>googleapis&#45;common&#45;protos</title>
<g id="a_node20"><a xlink:href="https://github.com/conda-forge/googleapis-common-protos-feedstock/pull/22" xlink:title="googleapis common protos ❎">
<ellipse fill="#31688e" stroke="black" cx="1769" cy="-854" rx="150.27" ry="18"/>
<text text-anchor="middle" x="1769" y="-850.3" font-family="Times-Roman" font-size="14.00" fill="white">googleapis common protos ❎</text>
</a>
</g>
</g>
<!-- pypy2.7 -->
<g id="node21" class="node">
<title>pypy2.7</title>
<g id="a_node21"><a xlink:href="https://github.com/conda-forge/pypy2.7-feedstock/pull/3" xlink:title="pypy2 7 ❎">
<ellipse fill="#31688e" stroke="black" cx="1769" cy="-782" rx="60" ry="18"/>
<text text-anchor="middle" x="1769" y="-778.3" font-family="Times-Roman" font-size="14.00" fill="white">pypy2 7 ❎</text>
</a>
</g>
</g>
<!-- googleapis&#45;common&#45;protos&#45;&gt;pypy2.7 -->
<!-- root_numpy -->
<g id="node40" class="node">
<title>root_numpy</title>
<g id="a_node40"><a xlink:href="https://github.com/conda-forge/root_numpy-feedstock/pull/19" xlink:title="root_numpy ❎">
<ellipse fill="#31688e" stroke="black" cx="1769" cy="-710" rx="79.5" ry="18"/>
<text text-anchor="middle" x="1769" y="-706.3" font-family="Times-Roman" font-size="14.00" fill="white">root_numpy ❎</text>
</a>
</g>
</g>
<!-- pypy2.7&#45;&gt;root_numpy -->
<!-- libunwind -->
<g id="node22" class="node">
<title>libunwind</title>
<g id="a_node22"><a xlink:href="https://github.com/conda-forge/libunwind-feedstock/pull/14" xlink:title="libunwind ❎">
<ellipse fill="#31688e" stroke="black" cx="1414" cy="-638" rx="67.69" ry="18"/>
<text text-anchor="middle" x="1414" y="-634.3" font-family="Times-Roman" font-size="14.00" fill="white">libunwind ❎</text>
</a>
</g>
</g>
<!-- libunwind&#45;&gt;heaptrack -->
<g id="edge22" class="edge">
<title>libunwind&#45;&gt;heaptrack</title>
<path fill="none" stroke="black" d="M1444.16,-621.81C1464.84,-611.4 1492.45,-597.49 1514.69,-586.29"/>
<polygon fill="black" stroke="black" points="1516.49,-589.3 1523.85,-581.68 1513.34,-583.05 1516.49,-589.3"/>
</g>
<!-- gperftools -->
<g id="node23" class="node">
<title>gperftools</title>
<g id="a_node23"><a xlink:href="https://github.com/conda-forge/gperftools-feedstock" xlink:title="gperftools">
<ellipse fill="#fde725" stroke="black" cx="1416" cy="-566" rx="58" ry="18"/>
<text text-anchor="middle" x="1416" y="-562.3" font-family="Times-Roman" font-size="14.00">gperftools</text>
</a>
</g>
</g>
<!-- libunwind&#45;&gt;gperftools -->
<g id="edge23" class="edge">
<title>libunwind&#45;&gt;gperftools</title>
<path fill="none" stroke="black" d="M1414.49,-619.7C1414.71,-611.98 1414.98,-602.71 1415.23,-594.11"/>
<polygon fill="black" stroke="black" points="1418.72,-594.2 1415.51,-584.1 1411.73,-594 1418.72,-594.2"/>
</g>
<!-- py&#45;spy -->
<g id="node24" class="node">
<title>py&#45;spy</title>
<g id="a_node24"><a xlink:href="https://github.com/conda-forge/py-spy-feedstock/pull/11" xlink:title="py spy ❎">
<ellipse fill="#31688e" stroke="black" cx="1298" cy="-494" rx="53.5" ry="18"/>
<text text-anchor="middle" x="1298" y="-490.3" font-family="Times-Roman" font-size="14.00" fill="white">py spy ❎</text>
</a>
</g>
</g>
<!-- libunwind&#45;&gt;py&#45;spy -->
<g id="edge24" class="edge">
<title>libunwind&#45;&gt;py&#45;spy</title>
<path fill="none" stroke="black" d="M1390.23,-620.93C1377.05,-611.25 1360.96,-598.1 1349,-584 1332.71,-564.8 1318.86,-539.67 1309.72,-521.01"/>
<polygon fill="black" stroke="black" points="1312.85,-519.43 1305.39,-511.91 1306.53,-522.44 1312.85,-519.43"/>
</g>
<!-- sentencepiece -->
<g id="node25" class="node">
<title>sentencepiece</title>
<g id="a_node25"><a xlink:href="https://github.com/conda-forge/sentencepiece-feedstock" xlink:title="sentencepiece">
<ellipse fill="#fde725" stroke="black" cx="1448" cy="-494" rx="78" ry="18"/>
<text text-anchor="middle" x="1448" y="-490.3" font-family="Times-Roman" font-size="14.00">sentencepiece</text>
</a>
</g>
</g>
<!-- gperftools&#45;&gt;sentencepiece -->
<g id="edge25" class="edge">
<title>gperftools&#45;&gt;sentencepiece</title>
<path fill="none" stroke="black" d="M1423.75,-548.05C1427.39,-540.09 1431.81,-530.41 1435.88,-521.51"/>
<polygon fill="black" stroke="black" points="1439.13,-522.83 1440.1,-512.28 1432.76,-519.91 1439.13,-522.83"/>
</g>
<!-- sentencepiece&#45;&gt;allennlp -->
<g id="edge45" class="edge">
<title>sentencepiece&#45;&gt;allennlp</title>
<path fill="none" stroke="black" d="M1396.36,-480.4C1343.4,-467.49 1261.66,-447.55 1209.77,-434.9"/>
<polygon fill="black" stroke="black" points="1210.36,-431.44 1199.81,-432.47 1208.7,-438.24 1210.36,-431.44"/>
</g>
<!-- pyqt -->
<g id="node26" class="node">
<title>pyqt</title>
<g id="a_node26"><a xlink:href="https://github.com/conda-forge/pyqt-feedstock" xlink:title="pyqt">
<ellipse fill="#fde725" stroke="black" cx="140" cy="-566" rx="31.4" ry="18"/>
<text text-anchor="middle" x="140" y="-562.3" font-family="Times-Roman" font-size="14.00">pyqt</text>
</a>
</g>
</g>
<!-- pyqt&#45;&gt;hyperspy -->
<g id="edge26" class="edge">
<title>pyqt&#45;&gt;hyperspy</title>
<path fill="none" stroke="black" d="M168.41,-558.16C183.14,-554.78 201.47,-550.83 218,-548 345.15,-526.24 379.42,-536.86 506,-512 510.62,-511.09 515.4,-510.03 520.17,-508.89"/>
<polygon fill="black" stroke="black" points="521.03,-512.28 529.88,-506.46 519.33,-505.49 521.03,-512.28"/>
</g>
<!-- pythonocc&#45;core -->
<g id="node27" class="node">
<title>pythonocc&#45;core</title>
<g id="a_node27"><a xlink:href="https://github.com/conda-forge/pythonocc-core-feedstock" xlink:title="pythonocc core">
<ellipse fill="#fde725" stroke="black" cx="82" cy="-494" rx="82" ry="18"/>
<text text-anchor="middle" x="82" y="-490.3" font-family="Times-Roman" font-size="14.00">pythonocc core</text>
</a>
</g>
</g>
<!-- pyqt&#45;&gt;pythonocc&#45;core -->
<g id="edge27" class="edge">
<title>pyqt&#45;&gt;pythonocc&#45;core</title>
<path fill="none" stroke="black" d="M127.13,-549.46C119.93,-540.78 110.79,-529.75 102.62,-519.89"/>
<polygon fill="black" stroke="black" points="105.13,-517.43 96.05,-511.96 99.74,-521.9 105.13,-517.43"/>
</g>
<!-- qt -->
<g id="node28" class="node">
<title>qt</title>
<g id="a_node28"><a xlink:href="https://github.com/conda-forge/qt-feedstock/pull/168" xlink:title="qt ❎">
<ellipse fill="#31688e" stroke="black" cx="258" cy="-638" rx="32.5" ry="18"/>
<text text-anchor="middle" x="258" y="-634.3" font-family="Times-Roman" font-size="14.00" fill="white">qt ❎</text>
</a>
</g>
</g>
<!-- qt&#45;&gt;pyqt -->
<g id="edge28" class="edge">
<title>qt&#45;&gt;pyqt</title>
<path fill="none" stroke="black" d="M236.63,-624.32C218,-613.27 190.78,-597.13 169.98,-584.78"/>
<polygon fill="black" stroke="black" points="171.6,-581.67 161.21,-579.58 168.02,-587.69 171.6,-581.67"/>
</g>
<!-- pivy -->
<g id="node29" class="node">
<title>pivy</title>
<g id="a_node29"><a xlink:href="https://github.com/conda-forge/pivy-feedstock" xlink:title="pivy">
<ellipse fill="#fde725" stroke="black" cx="222" cy="-494" rx="30" ry="18"/>
<text text-anchor="middle" x="222" y="-490.3" font-family="Times-Roman" font-size="14.00">pivy</text>
</a>
</g>
</g>
<!-- qt&#45;&gt;pivy -->
<g id="edge29" class="edge">
<title>qt&#45;&gt;pivy</title>
<path fill="none" stroke="black" d="M242.34,-621.9C233.32,-612.07 222.83,-598.43 218,-584 211.26,-563.89 212.89,-539.8 215.85,-521.75"/>
<polygon fill="black" stroke="black" points="219.3,-522.38 217.7,-511.9 212.42,-521.09 219.3,-522.38"/>
</g>
<!-- pyside2 -->
<g id="node30" class="node">
<title>pyside2</title>
<g id="a_node30"><a xlink:href="https://github.com/conda-forge/pyside2-feedstock" xlink:title="pyside2">
<ellipse fill="#fde725" stroke="black" cx="354" cy="-566" rx="47" ry="18"/>
<text text-anchor="middle" x="354" y="-562.3" font-family="Times-Roman" font-size="14.00">pyside2</text>
</a>
</g>
</g>
<!-- qt&#45;&gt;pyside2 -->
<g id="edge30" class="edge">
<title>qt&#45;&gt;pyside2</title>
<path fill="none" stroke="black" d="M276.97,-623.17C290.61,-613.22 309.28,-599.61 324.81,-588.28"/>
<polygon fill="black" stroke="black" points="327.06,-590.98 333.07,-582.26 322.93,-585.32 327.06,-590.98"/>
</g>
<!-- soqt -->
<g id="node31" class="node">
<title>soqt</title>
<g id="a_node31"><a xlink:href="https://github.com/conda-forge/soqt-feedstock" xlink:title="soqt">
<ellipse fill="#fde725" stroke="black" cx="258" cy="-566" rx="30.59" ry="18"/>
<text text-anchor="middle" x="258" y="-562.3" font-family="Times-Roman" font-size="14.00">soqt</text>
</a>
</g>
</g>
<!-- qt&#45;&gt;soqt -->
<g id="edge31" class="edge">
<title>qt&#45;&gt;soqt</title>
<path fill="none" stroke="black" d="M258,-619.7C258,-611.98 258,-602.71 258,-594.11"/>
<polygon fill="black" stroke="black" points="261.5,-594.1 258,-584.1 254.5,-594.1 261.5,-594.1"/>
</g>
<!-- geant4 -->
<g id="node32" class="node">
<title>geant4</title>
<g id="a_node32"><a xlink:href="https://github.com/conda-forge/geant4-feedstock" xlink:title="geant4">
<ellipse fill="#fde725" stroke="black" cx="453" cy="-494" rx="43.59" ry="18"/>
<text text-anchor="middle" x="453" y="-490.3" font-family="Times-Roman" font-size="14.00">geant4</text>
</a>
</g>
</g>
<!-- qt&#45;&gt;geant4 -->
<g id="edge32" class="edge">
<title>qt&#45;&gt;geant4</title>
<path fill="none" stroke="black" d="M289.53,-633.2C323.03,-627.67 375.79,-614.5 410,-584 428.43,-567.57 439.73,-541.48 446.09,-521.79"/>
<polygon fill="black" stroke="black" points="449.46,-522.75 448.98,-512.16 442.75,-520.74 449.46,-522.75"/>
</g>
<!-- pyside2&#45;&gt;pivy -->
<g id="edge33" class="edge">
<title>pyside2&#45;&gt;pivy</title>
<path fill="none" stroke="black" d="M327.61,-551C306.05,-539.57 275.55,-523.4 252.86,-511.37"/>
<polygon fill="black" stroke="black" points="254.45,-508.25 243.97,-506.65 251.17,-514.43 254.45,-508.25"/>
</g>
<!-- cctbx&#45;base -->
<g id="node33" class="node">
<title>cctbx&#45;base</title>
<g id="a_node33"><a xlink:href="https://github.com/conda-forge/cctbx-base-feedstock" xlink:title="cctbx base">
<ellipse fill="#fde725" stroke="black" cx="331" cy="-494" rx="60.5" ry="18"/>
<text text-anchor="middle" x="331" y="-490.3" font-family="Times-Roman" font-size="14.00">cctbx base</text>
</a>
</g>
</g>
<!-- pyside2&#45;&gt;cctbx&#45;base -->
<g id="edge34" class="edge">
<title>pyside2&#45;&gt;cctbx&#45;base</title>
<path fill="none" stroke="black" d="M348.43,-548.05C345.84,-540.18 342.7,-530.62 339.8,-521.79"/>
<polygon fill="black" stroke="black" points="343.12,-520.68 336.68,-512.28 336.47,-522.87 343.12,-520.68"/>
</g>
<!-- soqt&#45;&gt;pivy -->
<g id="edge35" class="edge">
<title>soqt&#45;&gt;pivy</title>
<path fill="none" stroke="black" d="M249.47,-548.41C245.16,-540.04 239.85,-529.71 235.05,-520.37"/>
<polygon fill="black" stroke="black" points="238.16,-518.76 230.47,-511.47 231.93,-521.96 238.16,-518.76"/>
</g>
<!-- r&#45;units -->
<g id="node34" class="node">
<title>r&#45;units</title>
<g id="a_node34"><a xlink:href="https://github.com/conda-forge/r-units-feedstock" xlink:title="r units">
<ellipse fill="#fde725" stroke="black" cx="2037" cy="-458" rx="40.5" ry="18"/>
<text text-anchor="middle" x="2037" y="-454.3" font-family="Times-Roman" font-size="14.00">r units</text>
</a>
</g>
</g>
<!-- r&#45;units&#45;&gt;r&#45;sf -->
<g id="edge36" class="edge">
<title>r&#45;units&#45;&gt;r&#45;sf</title>
<path fill="none" stroke="black" d="M2037.99,-439.7C2038.43,-431.98 2038.96,-422.71 2039.45,-414.11"/>
<polygon fill="black" stroke="black" points="2042.95,-414.29 2040.02,-404.1 2035.96,-413.89 2042.95,-414.29"/>
</g>
<!-- singularity -->
<g id="node35" class="node">
<title>singularity</title>
<g id="a_node35"><a xlink:href="https://github.com/conda-forge/singularity-feedstock" xlink:title="singularity">
<ellipse fill="#fde725" stroke="black" cx="753" cy="-18" rx="59.29" ry="18"/>
<text text-anchor="middle" x="753" y="-14.3" font-family="Times-Roman" font-size="14.00">singularity</text>
</a>
</g>
</g>
<!-- thrift -->
<g id="node36" class="node">
<title>thrift</title>
<g id="a_node36"><a xlink:href="https://github.com/conda-forge/thrift-feedstock/pull/17" xlink:title="thrift ✓">
<ellipse fill="#31688e" stroke="black" cx="1769" cy="-90" rx="44.39" ry="18"/>
<text text-anchor="middle" x="1769" y="-86.3" font-family="Times-Roman" font-size="14.00" fill="white">thrift ✓</text>
</a>
</g>
</g>
<!-- thrift&#45;&gt;fastparquet -->
<g id="edge37" class="edge">
<title>thrift&#45;&gt;fastparquet</title>
<path fill="none" stroke="black" d="M1769,-71.7C1769,-63.98 1769,-54.71 1769,-46.11"/>
<polygon fill="black" stroke="black" points="1772.5,-46.1 1769,-36.1 1765.5,-46.1 1772.5,-46.1"/>
</g>
<!-- udunits2 -->
<g id="node37" class="node">
<title>udunits2</title>
<g id="a_node37"><a xlink:href="https://github.com/conda-forge/udunits2-feedstock/pull/39" xlink:title="udunits2 ❎">
<ellipse fill="#31688e" stroke="black" cx="1990" cy="-530" rx="63.09" ry="18"/>
<text text-anchor="middle" x="1990" y="-526.3" font-family="Times-Roman" font-size="14.00" fill="white">udunits2 ❎</text>
</a>
</g>
</g>
<!-- udunits2&#45;&gt;r&#45;units -->
<g id="edge38" class="edge">
<title>udunits2&#45;&gt;r&#45;units</title>
<path fill="none" stroke="black" d="M2001.38,-512.05C2006.98,-503.71 2013.84,-493.49 2020.05,-484.25"/>
<polygon fill="black" stroke="black" points="2023.06,-486.04 2025.73,-475.79 2017.25,-482.14 2023.06,-486.04"/>
</g>
<!-- yarn -->
<g id="node38" class="node">
<title>yarn</title>
<g id="a_node38"><a xlink:href="https://github.com/conda-forge/yarn-feedstock/pull/33" xlink:title="yarn ❎">
<ellipse fill="#31688e" stroke="black" cx="871" cy="-90" rx="44.39" ry="18"/>
<text text-anchor="middle" x="871" y="-86.3" font-family="Times-Roman" font-size="14.00" fill="white">yarn ❎</text>
</a>
</g>
</g>
<!-- jaeger -->
<g id="node39" class="node">
<title>jaeger</title>
<g id="a_node39"><a xlink:href="https://github.com/conda-forge/jaeger-feedstock" xlink:title="jaeger">
<ellipse fill="#fde725" stroke="black" cx="871" cy="-18" rx="40.5" ry="18"/>
<text text-anchor="middle" x="871" y="-14.3" font-family="Times-Roman" font-size="14.00">jaeger</text>
</a>
</g>
</g>
<!-- yarn&#45;&gt;jaeger -->
<g id="edge39" class="edge">
<title>yarn&#45;&gt;jaeger</title>
<path fill="none" stroke="black" d="M871,-71.7C871,-63.98 871,-54.71 871,-46.11"/>
<polygon fill="black" stroke="black" points="874.5,-46.1 871,-36.1 867.5,-46.1 874.5,-46.1"/>
</g>
<!-- grpcio&#45;gcp -->
<g id="node44" class="node">
<title>grpcio&#45;gcp</title>
<g id="a_node44"><a xlink:href="https://github.com/conda-forge/grpcio-gcp-feedstock/pull/9" xlink:title="grpcio gcp ❎">
<ellipse fill="#31688e" stroke="black" cx="1769" cy="-638" rx="71.5" ry="18"/>
<text text-anchor="middle" x="1769" y="-634.3" font-family="Times-Roman" font-size="14.00" fill="white">grpcio gcp ❎</text>
</a>
</g>
</g>
<!-- root_numpy&#45;&gt;grpcio&#45;gcp -->
<!-- tiledb -->
<g id="node41" class="node">
<title>tiledb</title>
<g id="a_node41"><a xlink:href="https://github.com/conda-forge/tiledb-feedstock/pull/102" xlink:title="tiledb ❎">
<ellipse fill="#31688e" stroke="black" cx="2303" cy="-530" rx="48.99" ry="18"/>
<text text-anchor="middle" x="2303" y="-526.3" font-family="Times-Roman" font-size="14.00" fill="white">tiledb ❎</text>
</a>
</g>
</g>
<!-- tiledb&#45;&gt;gdal -->
<g id="edge41" class="edge">
<title>tiledb&#45;&gt;gdal</title>
<path fill="none" stroke="black" d="M2271.13,-516.32C2239.98,-503.93 2192.72,-485.14 2160.89,-472.48"/>
<polygon fill="black" stroke="black" points="2162.13,-469.21 2151.55,-468.76 2159.55,-475.71 2162.13,-469.21"/>
</g>
<!-- occt -->
<g id="node42" class="node">
<title>occt</title>
<g id="a_node42"><a xlink:href="https://github.com/conda-forge/occt-feedstock/pull/59" xlink:title="occt ❎">
<ellipse fill="#31688e" stroke="black" cx="49" cy="-566" rx="42.49" ry="18"/>
<text text-anchor="middle" x="49" y="-562.3" font-family="Times-Roman" font-size="14.00" fill="white">occt ❎</text>
</a>
</g>
</g>
<!-- occt&#45;&gt;pythonocc&#45;core -->
<g id="edge42" class="edge">
<title>occt&#45;&gt;pythonocc&#45;core</title>
<path fill="none" stroke="black" d="M56.99,-548.05C60.74,-540.09 65.31,-530.41 69.5,-521.51"/>
<polygon fill="black" stroke="black" points="72.76,-522.81 73.86,-512.28 66.43,-519.83 72.76,-522.81"/>
</g>
<!-- ibm_db -->
<g id="node46" class="node">
<title>ibm_db</title>
<g id="a_node46"><a xlink:href="https://github.com/conda-forge/ibm_db-feedstock/pull/27" xlink:title="ibm_db ❎">
<ellipse fill="#31688e" stroke="black" cx="1769" cy="-566" rx="57.39" ry="18"/>
<text text-anchor="middle" x="1769" y="-562.3" font-family="Times-Roman" font-size="14.00" fill="white">ibm_db ❎</text>
</a>
</g>
</g>
<!-- grpcio&#45;gcp&#45;&gt;ibm_db -->
<!-- go&#45;dep -->
<g id="node45" class="node">
<title>go&#45;dep</title>
<g id="a_node45"><a xlink:href="https://github.com/conda-forge/go-dep-feedstock/pull/12" xlink:title="go dep ❎">
<ellipse fill="#31688e" stroke="black" cx="754" cy="-90" rx="55.49" ry="18"/>
<text text-anchor="middle" x="754" y="-86.3" font-family="Times-Roman" font-size="14.00" fill="white">go dep ❎</text>
</a>
</g>
</g>
<!-- go&#45;dep&#45;&gt;singularity -->
<g id="edge47" class="edge">
<title>go&#45;dep&#45;&gt;singularity</title>
<path fill="none" stroke="black" d="M753.75,-71.7C753.64,-63.98 753.51,-54.71 753.39,-46.11"/>
<polygon fill="black" stroke="black" points="756.89,-46.05 753.24,-36.1 749.89,-46.15 756.89,-46.05"/>
</g>
<!-- go&#45;dep&#45;&gt;jaeger -->
<g id="edge48" class="edge">
<title>go&#45;dep&#45;&gt;jaeger</title>
<path fill="none" stroke="black" d="M779.39,-73.81C796.83,-63.38 820.13,-49.44 838.86,-38.23"/>
<polygon fill="black" stroke="black" points="840.87,-41.11 847.65,-32.97 837.27,-35.1 840.87,-41.11"/>
</g>
<!-- cudatoolkit -->
<g id="node47" class="node">
<title>cudatoolkit</title>
<g id="a_node47"><a xlink:href="https://github.com/conda-forge/cudatoolkit-feedstock/pull/4" xlink:title="cudatoolkit ❎">
<ellipse fill="#31688e" stroke="black" cx="1769" cy="-494" rx="74.19" ry="18"/>
<text text-anchor="middle" x="1769" y="-490.3" font-family="Times-Roman" font-size="14.00" fill="white">cudatoolkit ❎</text>
</a>
</g>
</g>
<!-- ibm_db&#45;&gt;cudatoolkit -->
<!-- nvcc -->
<g id="node48" class="node">
<title>nvcc</title>
<g id="a_node48"><a xlink:href="https://github.com/conda-forge/nvcc-feedstock/pull/62" xlink:title="nvcc ✓">
<ellipse fill="#31688e" stroke="black" cx="1769" cy="-422" rx="42.49" ry="18"/>
<text text-anchor="middle" x="1769" y="-418.3" font-family="Times-Roman" font-size="14.00" fill="white">nvcc ✓</text>
</a>
</g>
</g>
<!-- cudatoolkit&#45;&gt;nvcc -->
<!-- proj -->
<g id="node49" class="node">
<title>proj</title>
<g id="a_node49"><a xlink:href="https://github.com/conda-forge/proj-feedstock" xlink:title="proj">
<ellipse fill="#35b779" stroke="black" cx="1769" cy="-350" rx="28.7" ry="18"/>
<text text-anchor="middle" x="1769" y="-346.3" font-family="Times-Roman" font-size="14.00">proj</text>
</a>
</g>
</g>
<!-- nvcc&#45;&gt;proj -->
<!-- ompl -->
<g id="node50" class="node">
<title>ompl</title>
<g id="a_node50"><a xlink:href="https://github.com/conda-forge/ompl-feedstock/pull/8" xlink:title="ompl ❎">
<ellipse fill="#31688e" stroke="black" cx="1769" cy="-278" rx="46.29" ry="18"/>
<text text-anchor="middle" x="1769" y="-274.3" font-family="Times-Roman" font-size="14.00" fill="white">ompl ❎</text>
</a>
</g>
</g>
<!-- proj&#45;&gt;ompl -->
<!-- nordugrid&#45;arc -->
<g id="node53" class="node">
<title>nordugrid&#45;arc</title>
<g id="a_node53"><a xlink:href="https://github.com/conda-forge/nordugrid-arc-feedstock/pull/14" xlink:title="nordugrid arc ❎">
<ellipse fill="#31688e" stroke="black" cx="1769" cy="-206" rx="86" ry="18"/>
<text text-anchor="middle" x="1769" y="-202.3" font-family="Times-Roman" font-size="14.00" fill="white">nordugrid arc ❎</text>
</a>
</g>
</g>
<!-- ompl&#45;&gt;nordugrid&#45;arc -->
<!-- nccl -->
<g id="node51" class="node">
<title>nccl</title>
<g id="a_node51"><a xlink:href="https://github.com/conda-forge/nccl-feedstock/pull/29" xlink:title="nccl ❎">
<ellipse fill="#31688e" stroke="black" cx="1229" cy="-566" rx="41" ry="18"/>
<text text-anchor="middle" x="1229" y="-562.3" font-family="Times-Roman" font-size="14.00" fill="white">nccl ❎</text>
</a>
</g>
</g>
<!-- nccl&#45;&gt;pytorch&#45;cpu -->
<g id="edge54" class="edge">
<title>nccl&#45;&gt;pytorch&#45;cpu</title>
<path fill="none" stroke="black" d="M1213.57,-549.12C1204.95,-540.24 1194.04,-529.01 1184.39,-519.08"/>
<polygon fill="black" stroke="black" points="1186.8,-516.53 1177.32,-511.8 1181.77,-521.41 1186.8,-516.53"/>
</g>
<!-- cudnn -->
<g id="node52" class="node">
<title>cudnn</title>
<g id="a_node52"><a xlink:href="https://github.com/conda-forge/cudnn-feedstock/pull/9" xlink:title="cudnn ❎">
<ellipse fill="#31688e" stroke="black" cx="1160" cy="-638" rx="51.5" ry="18"/>
<text text-anchor="middle" x="1160" y="-634.3" font-family="Times-Roman" font-size="14.00" fill="white">cudnn ❎</text>
</a>
</g>
</g>
<!-- cudnn&#45;&gt;pytorch&#45;cpu -->
<g id="edge55" class="edge">
<title>cudnn&#45;&gt;pytorch&#45;cpu</title>
<path fill="none" stroke="black" d="M1160.12,-619.87C1160.29,-595.67 1160.6,-551.21 1160.81,-522.39"/>
<polygon fill="black" stroke="black" points="1164.31,-522.21 1160.88,-512.19 1157.31,-522.16 1164.31,-522.21"/>
</g>
<!-- google&#45;crc32c -->
<g id="node54" class="node">
<title>google&#45;crc32c</title>
<g id="a_node54"><a xlink:href="https://github.com/conda-forge/google-crc32c-feedstock/pull/11" xlink:title="google crc32c ✓">
<ellipse fill="#31688e" stroke="black" cx="1769" cy="-134" rx="86.5" ry="18"/>
<text text-anchor="middle" x="1769" y="-130.3" font-family="Times-Roman" font-size="14.00" fill="white">google crc32c ✓</text>
</a>
</g>
</g>
<!-- nordugrid&#45;arc&#45;&gt;google&#45;crc32c -->
<!-- tokenizers -->
<g id="node55" class="node">
<title>tokenizers</title>
<g id="a_node55"><a xlink:href="https://github.com/conda-forge/tokenizers-feedstock/pull/14" xlink:title="tokenizers ❎">
<ellipse fill="#31688e" stroke="black" cx="1006" cy="-494" rx="71" ry="18"/>
<text text-anchor="middle" x="1006" y="-490.3" font-family="Times-Roman" font-size="14.00" fill="white">tokenizers ❎</text>
</a>
</g>
</g>
<!-- tokenizers&#45;&gt;allennlp -->
<g id="edge58" class="edge">
<title>tokenizers&#45;&gt;allennlp</title>
<path fill="none" stroke="black" d="M1039.25,-477.98C1063.62,-466.98 1096.78,-452 1122.33,-440.46"/>
<polygon fill="black" stroke="black" points="1124.05,-443.53 1131.72,-436.22 1121.17,-437.15 1124.05,-443.53"/>
</g>
<!-- 7zip -->
<g id="node56" class="node">
<title>7zip</title>
<g id="a_node56"><a xlink:href="https://github.com/conda-forge/7zip-feedstock/pull/5" xlink:title="7zip ✓">
<ellipse fill="#31688e" stroke="black" cx="2139" cy="-90" rx="40.5" ry="18"/>
<text text-anchor="middle" x="2139" y="-86.3" font-family="Times-Roman" font-size="14.00" fill="white">7zip ✓</text>
</a>
</g>
</g>
<!-- cutensor -->
<g id="node57" class="node">
<title>cutensor</title>
<g id="a_node57"><a xlink:href="https://github.com/conda-forge/cutensor-feedstock" xlink:title="cutensor">
<ellipse fill="#fde725" stroke="black" cx="2139" cy="-18" rx="51.5" ry="18"/>
<text text-anchor="middle" x="2139" y="-14.3" font-family="Times-Roman" font-size="14.00">cutensor</text>
</a>
</g>
</g>
<!-- 7zip&#45;&gt;cutensor -->
<g id="edge59" class="edge">
<title>7zip&#45;&gt;cutensor</title>
<path fill="none" stroke="black" d="M2139,-71.7C2139,-63.98 2139,-54.71 2139,-46.11"/>
<polygon fill="black" stroke="black" points="2142.5,-46.1 2139,-36.1 2135.5,-46.1 2142.5,-46.1"/>
</g>
<!-- magma -->
<g id="node58" class="node">
<title>magma</title>
<g id="a_node58"><a xlink:href="https://github.com/conda-forge/magma-feedstock/pull/4" xlink:title="magma ✓">
<ellipse fill="#31688e" stroke="black" cx="1080" cy="-710" rx="58" ry="18"/>
<text text-anchor="middle" x="1080" y="-706.3" font-family="Times-Roman" font-size="14.00" fill="white">magma ✓</text>
</a>
</g>
</g>
<!-- magma&#45;&gt;pytorch&#45;cpu -->
<g id="edge60" class="edge">
<title>magma&#45;&gt;pytorch&#45;cpu</title>
<path fill="none" stroke="black" d="M1082.62,-691.94C1085.68,-673.78 1091.45,-644.36 1100,-620 1112.55,-584.24 1132.64,-545.34 1146.31,-520.6"/>
<polygon fill="black" stroke="black" points="1149.38,-522.28 1151.2,-511.84 1143.27,-518.86 1149.38,-522.28"/>
</g>
</g>
</svg>
