<?xml version="1.0" encoding="UTF-8" standalone="no"?>
<!DOCTYPE svg PUBLIC "-//W3C//DTD SVG 1.1//EN"
 "http://www.w3.org/Graphics/SVG/1.1/DTD/svg11.dtd">
<!-- Generated by graphviz version 6.0.1 (20220911.2005)
 -->
<!-- Pages: 1 -->
<svg width="1959pt" height="1444pt"
 viewBox="0.00 0.00 1958.64 1444.00" xmlns="http://www.w3.org/2000/svg" xmlns:xlink="http://www.w3.org/1999/xlink">
<g id="graph0" class="graph" transform="scale(1 1) rotate(0) translate(4 1440)">
<polygon fill="white" stroke="none" points="-4,4 -4,-1440 1954.64,-1440 1954.64,4 -4,4"/>
<!-- esmf -->
<g id="node1" class="node">
<title>esmf</title>
<g id="a_node1"><a xlink:href="https://github.com/conda-forge/esmf-feedstock/pull/80" xlink:title="esmf ❎">
<ellipse fill="#31688e" stroke="black" cx="724.14" cy="-322" rx="47.5" ry="18"/>
<text text-anchor="middle" x="724.14" y="-318.3" font-family="Times,serif" font-size="14.00" fill="white">esmf ❎</text>
</a>
</g>
</g>
<!-- esmpy -->
<g id="node2" class="node">
<title>esmpy</title>
<g id="a_node2"><a xlink:href="https://github.com/conda-forge/esmpy-feedstock" xlink:title="esmpy">
<ellipse fill="#fde725" stroke="black" cx="724.14" cy="-250" rx="41" ry="18"/>
<text text-anchor="middle" x="724.14" y="-246.3" font-family="Times,serif" font-size="14.00">esmpy</text>
</a>
</g>
</g>
<!-- esmf&#45;&gt;esmpy -->
<g id="edge1" class="edge">
<title>esmf&#45;&gt;esmpy</title>
<path fill="none" stroke="black" d="M724.14,-303.7C724.14,-295.98 724.14,-286.71 724.14,-278.11"/>
<polygon fill="black" stroke="black" points="727.64,-278.1 724.14,-268.1 720.64,-278.1 727.64,-278.1"/>
</g>
<!-- fermipy -->
<g id="node3" class="node">
<title>fermipy</title>
<g id="a_node3"><a xlink:href="https://github.com/conda-forge/fermipy-feedstock" xlink:title="fermipy">
<ellipse fill="#fde725" stroke="black" cx="1597.14" cy="-134" rx="47" ry="18"/>
<text text-anchor="middle" x="1597.14" y="-130.3" font-family="Times,serif" font-size="14.00">fermipy</text>
</a>
</g>
</g>
<!-- gammapy -->
<g id="node4" class="node">
<title>gammapy</title>
<g id="a_node4"><a xlink:href="https://github.com/conda-forge/gammapy-feedstock" xlink:title="gammapy">
<ellipse fill="#000000" stroke="black" cx="1597.14" cy="-206" rx="56" ry="18"/>
<text text-anchor="middle" x="1597.14" y="-202.3" font-family="Times,serif" font-size="14.00" fill="white">gammapy</text>
</a>
</g>
</g>
<!-- gammapy&#45;&gt;fermipy -->
<g id="edge2" class="edge">
<title>gammapy&#45;&gt;fermipy</title>
<path fill="none" stroke="black" d="M1597.14,-187.7C1597.14,-179.98 1597.14,-170.71 1597.14,-162.11"/>
<polygon fill="black" stroke="black" points="1600.64,-162.1 1597.14,-152.1 1593.64,-162.1 1600.64,-162.1"/>
</g>
<!-- gnuplot -->
<g id="node5" class="node">
<title>gnuplot</title>
<g id="a_node5"><a xlink:href="https://github.com/conda-forge/gnuplot-feedstock" xlink:title="gnuplot">
<ellipse fill="#35b779" stroke="black" cx="202.14" cy="-1058" rx="46.29" ry="18"/>
<text text-anchor="middle" x="202.14" y="-1054.3" font-family="Times,serif" font-size="14.00">gnuplot</text>
</a>
</g>
</g>
<!-- octave -->
<g id="node6" class="node">
<title>octave</title>
<g id="a_node6"><a xlink:href="https://github.com/conda-forge/octave-feedstock" xlink:title="octave">
<ellipse fill="#fde725" stroke="black" cx="146.14" cy="-914" rx="41" ry="18"/>
<text text-anchor="middle" x="146.14" y="-910.3" font-family="Times,serif" font-size="14.00">octave</text>
</a>
</g>
</g>
<!-- gnuplot&#45;&gt;octave -->
<g id="edge3" class="edge">
<title>gnuplot&#45;&gt;octave</title>
<path fill="none" stroke="black" d="M187.94,-1040.38C180.12,-1030.42 170.87,-1017.17 165.14,-1004 156.55,-984.23 151.72,-960.25 149.08,-942.16"/>
<polygon fill="black" stroke="black" points="152.52,-941.47 147.74,-932.01 145.58,-942.39 152.52,-941.47"/>
</g>
<!-- graphicsmagick -->
<g id="node7" class="node">
<title>graphicsmagick</title>
<g id="a_node7"><a xlink:href="https://github.com/conda-forge/graphicsmagick-feedstock" xlink:title="graphicsmagick">
<ellipse fill="#fde725" stroke="black" cx="258.14" cy="-986" rx="84" ry="18"/>
<text text-anchor="middle" x="258.14" y="-982.3" font-family="Times,serif" font-size="14.00">graphicsmagick</text>
</a>
</g>
</g>
<!-- gnuplot&#45;&gt;graphicsmagick -->
<g id="edge4" class="edge">
<title>gnuplot&#45;&gt;graphicsmagick</title>
<path fill="none" stroke="black" d="M215.42,-1040.41C222.22,-1031.91 230.65,-1021.37 238.21,-1011.91"/>
<polygon fill="black" stroke="black" points="241.07,-1013.95 244.58,-1003.96 235.6,-1009.58 241.07,-1013.95"/>
</g>
<!-- graphicsmagick&#45;&gt;octave -->
<g id="edge5" class="edge">
<title>graphicsmagick&#45;&gt;octave</title>
<path fill="none" stroke="black" d="M232.17,-968.76C215.88,-958.58 194.78,-945.4 177.55,-934.63"/>
<polygon fill="black" stroke="black" points="179.28,-931.58 168.94,-929.25 175.57,-937.52 179.28,-931.58"/>
</g>
<!-- hyperspy -->
<g id="node8" class="node">
<title>hyperspy</title>
<g id="a_node8"><a xlink:href="https://github.com/conda-forge/hyperspy-feedstock" xlink:title="hyperspy">
<ellipse fill="#fde725" stroke="black" cx="656.14" cy="-1130" rx="54" ry="18"/>
<text text-anchor="middle" x="656.14" y="-1126.3" font-family="Times,serif" font-size="14.00">hyperspy</text>
</a>
</g>
</g>
<!-- implicit -->
<g id="node9" class="node">
<title>implicit</title>
<g id="a_node9"><a xlink:href="https://github.com/conda-forge/implicit-feedstock/pull/48" xlink:title="implicit ❎">
<ellipse fill="#31688e" stroke="black" cx="1597.14" cy="-1418" rx="60" ry="18"/>
<text text-anchor="middle" x="1597.14" y="-1414.3" font-family="Times,serif" font-size="14.00" fill="white">implicit ❎</text>
</a>
</g>
</g>
<!-- noise -->
<g id="node10" class="node">
<title>noise</title>
<g id="a_node10"><a xlink:href="https://github.com/conda-forge/noise-feedstock/pull/14" xlink:title="noise ✓">
<ellipse fill="#31688e" stroke="black" cx="1597.14" cy="-1346" rx="42.49" ry="18"/>
<text text-anchor="middle" x="1597.14" y="-1342.3" font-family="Times,serif" font-size="14.00" fill="white">noise ✓</text>
</a>
</g>
</g>
<!-- implicit&#45;&gt;noise -->
<!-- srm -->
<g id="node45" class="node">
<title>srm</title>
<g id="a_node45"><a xlink:href="https://github.com/conda-forge/srm-feedstock/pull/5" xlink:title="srm ❎">
<ellipse fill="#31688e" stroke="black" cx="1597.14" cy="-1274" rx="43" ry="18"/>
<text text-anchor="middle" x="1597.14" y="-1270.3" font-family="Times,serif" font-size="14.00" fill="white">srm ❎</text>
</a>
</g>
</g>
<!-- noise&#45;&gt;srm -->
<!-- julia -->
<g id="node11" class="node">
<title>julia</title>
<g id="a_node11"><a xlink:href="https://github.com/conda-forge/julia-feedstock/pull/218" xlink:title="julia ❎">
<ellipse fill="#31688e" stroke="black" cx="724.14" cy="-90" rx="45" ry="18"/>
<text text-anchor="middle" x="724.14" y="-86.3" font-family="Times,serif" font-size="14.00" fill="white">julia ❎</text>
</a>
</g>
</g>
<!-- pybamm -->
<g id="node12" class="node">
<title>pybamm</title>
<g id="a_node12"><a xlink:href="https://github.com/conda-forge/pybamm-feedstock" xlink:title="pybamm">
<ellipse fill="#fde725" stroke="black" cx="724.14" cy="-18" rx="50.89" ry="18"/>
<text text-anchor="middle" x="724.14" y="-14.3" font-family="Times,serif" font-size="14.00">pybamm</text>
</a>
</g>
</g>
<!-- julia&#45;&gt;pybamm -->
<g id="edge7" class="edge">
<title>julia&#45;&gt;pybamm</title>
<path fill="none" stroke="black" d="M724.14,-71.7C724.14,-63.98 724.14,-54.71 724.14,-46.11"/>
<polygon fill="black" stroke="black" points="727.64,-46.1 724.14,-36.1 720.64,-46.1 727.64,-46.1"/>
</g>
<!-- parcels -->
<g id="node13" class="node">
<title>parcels</title>
<g id="a_node13"><a xlink:href="https://github.com/conda-forge/parcels-feedstock" xlink:title="parcels">
<ellipse fill="#fde725" stroke="black" cx="1561.14" cy="-546" rx="44.39" ry="18"/>
<text text-anchor="middle" x="1561.14" y="-542.3" font-family="Times,serif" font-size="14.00">parcels</text>
</a>
</g>
</g>
<!-- pyfai -->
<g id="node14" class="node">
<title>pyfai</title>
<g id="a_node14"><a xlink:href="https://github.com/conda-forge/pyfai-feedstock" xlink:title="pyfai">
<ellipse fill="#fde725" stroke="black" cx="562.14" cy="-986" rx="34" ry="18"/>
<text text-anchor="middle" x="562.14" y="-982.3" font-family="Times,serif" font-size="14.00">pyfai</text>
</a>
</g>
</g>
<!-- pyferret -->
<g id="node15" class="node">
<title>pyferret</title>
<g id="a_node15"><a xlink:href="https://github.com/conda-forge/pyferret-feedstock" xlink:title="pyferret">
<ellipse fill="#fde725" stroke="black" cx="815.14" cy="-1058" rx="48.99" ry="18"/>
<text text-anchor="middle" x="815.14" y="-1054.3" font-family="Times,serif" font-size="14.00">pyferret</text>
</a>
</g>
</g>
<!-- pyglet -->
<g id="node16" class="node">
<title>pyglet</title>
<g id="a_node16"><a xlink:href="https://github.com/conda-forge/pyglet-feedstock/pull/75" xlink:title="pyglet ✓">
<ellipse fill="#31688e" stroke="black" cx="1795.14" cy="-618" rx="47.5" ry="18"/>
<text text-anchor="middle" x="1795.14" y="-614.3" font-family="Times,serif" font-size="14.00" fill="white">pyglet ✓</text>
</a>
</g>
</g>
<!-- gym -->
<g id="node17" class="node">
<title>gym</title>
<g id="a_node17"><a xlink:href="https://github.com/conda-forge/gym-feedstock" xlink:title="gym">
<ellipse fill="#fde725" stroke="black" cx="1795.14" cy="-546" rx="30.59" ry="18"/>
<text text-anchor="middle" x="1795.14" y="-542.3" font-family="Times,serif" font-size="14.00">gym</text>
</a>
</g>
</g>
<!-- pyglet&#45;&gt;gym -->
<g id="edge8" class="edge">
<title>pyglet&#45;&gt;gym</title>
<path fill="none" stroke="black" d="M1795.14,-599.7C1795.14,-591.98 1795.14,-582.71 1795.14,-574.11"/>
<polygon fill="black" stroke="black" points="1798.64,-574.1 1795.14,-564.1 1791.64,-574.1 1798.64,-574.1"/>
</g>
<!-- ray&#45;packages -->
<g id="node18" class="node">
<title>ray&#45;packages</title>
<g id="a_node18"><a xlink:href="https://github.com/conda-forge/ray-packages-feedstock" xlink:title="ray packages">
<ellipse fill="#fde725" stroke="black" cx="1846.14" cy="-474" rx="71.5" ry="18"/>
<text text-anchor="middle" x="1846.14" y="-470.3" font-family="Times,serif" font-size="14.00">ray packages</text>
</a>
</g>
</g>
<!-- gym&#45;&gt;ray&#45;packages -->
<g id="edge9" class="edge">
<title>gym&#45;&gt;ray&#45;packages</title>
<path fill="none" stroke="black" d="M1806.72,-529.12C1812.99,-520.51 1820.89,-509.67 1827.96,-499.96"/>
<polygon fill="black" stroke="black" points="1830.85,-501.94 1833.91,-491.8 1825.19,-497.82 1830.85,-501.94"/>
</g>
<!-- pyqt -->
<g id="node19" class="node">
<title>pyqt</title>
<g id="a_node19"><a xlink:href="https://github.com/conda-forge/pyqt-feedstock" xlink:title="pyqt">
<ellipse fill="#fde725" stroke="black" cx="615.14" cy="-1202" rx="32" ry="18"/>
<text text-anchor="middle" x="615.14" y="-1198.3" font-family="Times,serif" font-size="14.00">pyqt</text>
</a>
</g>
</g>
<!-- pyqt&#45;&gt;hyperspy -->
<g id="edge10" class="edge">
<title>pyqt&#45;&gt;hyperspy</title>
<path fill="none" stroke="black" d="M624.65,-1184.76C629.48,-1176.53 635.46,-1166.32 640.91,-1157.02"/>
<polygon fill="black" stroke="black" points="644.08,-1158.52 646.12,-1148.12 638.04,-1154.98 644.08,-1158.52"/>
</g>
<!-- pyqt&#45;&gt;pyferret -->
<g id="edge11" class="edge">
<title>pyqt&#45;&gt;pyferret</title>
<path fill="none" stroke="black" d="M644.64,-1194.88C674.21,-1187.6 719.86,-1173.16 752.14,-1148 773.83,-1131.1 791.19,-1104.73 802.15,-1085.08"/>
<polygon fill="black" stroke="black" points="805.35,-1086.5 807.01,-1076.04 799.19,-1083.19 805.35,-1086.5"/>
</g>
<!-- qscintilla2 -->
<g id="node20" class="node">
<title>qscintilla2</title>
<g id="a_node20"><a xlink:href="https://github.com/conda-forge/qscintilla2-feedstock" xlink:title="qscintilla2">
<ellipse fill="#fde725" stroke="black" cx="59.14" cy="-986" rx="59.29" ry="18"/>
<text text-anchor="middle" x="59.14" y="-982.3" font-family="Times,serif" font-size="14.00">qscintilla2</text>
</a>
</g>
</g>
<!-- pyqt&#45;&gt;qscintilla2 -->
<g id="edge12" class="edge">
<title>pyqt&#45;&gt;qscintilla2</title>
<path fill="none" stroke="black" d="M583.33,-1198.95C503.84,-1192.54 292.55,-1167.45 147.14,-1076 119.78,-1058.79 94.51,-1031.53 78.13,-1011.71"/>
<polygon fill="black" stroke="black" points="80.69,-1009.3 71.68,-1003.73 75.24,-1013.7 80.69,-1009.3"/>
</g>
<!-- qtconsole -->
<g id="node21" class="node">
<title>qtconsole</title>
<g id="a_node21"><a xlink:href="https://github.com/conda-forge/qtconsole-feedstock" xlink:title="qtconsole">
<ellipse fill="#fde725" stroke="black" cx="491.14" cy="-1130" rx="55.49" ry="18"/>
<text text-anchor="middle" x="491.14" y="-1126.3" font-family="Times,serif" font-size="14.00">qtconsole</text>
</a>
</g>
</g>
<!-- pyqt&#45;&gt;qtconsole -->
<g id="edge13" class="edge">
<title>pyqt&#45;&gt;qtconsole</title>
<path fill="none" stroke="black" d="M593.26,-1188.65C574.77,-1178.21 547.93,-1163.05 526.4,-1150.9"/>
<polygon fill="black" stroke="black" points="527.98,-1147.77 517.55,-1145.9 524.53,-1153.87 527.98,-1147.77"/>
</g>
<!-- silx -->
<g id="node22" class="node">
<title>silx</title>
<g id="a_node22"><a xlink:href="https://github.com/conda-forge/silx-feedstock" xlink:title="silx">
<ellipse fill="#fde725" stroke="black" cx="562.14" cy="-1058" rx="27" ry="18"/>
<text text-anchor="middle" x="562.14" y="-1054.3" font-family="Times,serif" font-size="14.00">silx</text>
</a>
</g>
</g>
<!-- pyqt&#45;&gt;silx -->
<g id="edge14" class="edge">
<title>pyqt&#45;&gt;silx</title>
<path fill="none" stroke="black" d="M607.96,-1184.39C603.53,-1173.99 597.83,-1160.29 593.14,-1148 585.2,-1127.17 576.93,-1103.3 570.93,-1085.53"/>
<polygon fill="black" stroke="black" points="574.18,-1084.21 567.68,-1075.84 567.54,-1086.43 574.18,-1084.21"/>
</g>
<!-- spyder -->
<g id="node23" class="node">
<title>spyder</title>
<g id="a_node23"><a xlink:href="https://github.com/conda-forge/spyder-feedstock" xlink:title="spyder">
<ellipse fill="#fde725" stroke="black" cx="452.14" cy="-1058" rx="42.49" ry="18"/>
<text text-anchor="middle" x="452.14" y="-1054.3" font-family="Times,serif" font-size="14.00">spyder</text>
</a>
</g>
</g>
<!-- pyqt&#45;&gt;spyder -->
<g id="edge15" class="edge">
<title>pyqt&#45;&gt;spyder</title>
<path fill="none" stroke="black" d="M584.15,-1196.8C535.83,-1189.55 446.08,-1173.01 427.14,-1148 413.01,-1129.33 423.11,-1103.04 434.41,-1083.87"/>
<polygon fill="black" stroke="black" points="437.4,-1085.68 439.77,-1075.36 431.48,-1081.95 437.4,-1085.68"/>
</g>
<!-- gnuradio -->
<g id="node24" class="node">
<title>gnuradio</title>
<g id="a_node24"><a xlink:href="https://github.com/conda-forge/gnuradio-feedstock" xlink:title="gnuradio">
<ellipse fill="#fde725" stroke="black" cx="1147.14" cy="-1130" rx="52" ry="18"/>
<text text-anchor="middle" x="1147.14" y="-1126.3" font-family="Times,serif" font-size="14.00">gnuradio</text>
</a>
</g>
</g>
<!-- pyqt&#45;&gt;gnuradio -->
<g id="edge16" class="edge">
<title>pyqt&#45;&gt;gnuradio</title>
<path fill="none" stroke="black" d="M646.05,-1196.93C732.28,-1185.59 976.57,-1153.44 1089.1,-1138.64"/>
<polygon fill="black" stroke="black" points="1089.78,-1142.08 1099.24,-1137.3 1088.87,-1135.14 1089.78,-1142.08"/>
</g>
<!-- pythonocc&#45;core -->
<g id="node25" class="node">
<title>pythonocc&#45;core</title>
<g id="a_node25"><a xlink:href="https://github.com/conda-forge/pythonocc-core-feedstock" xlink:title="pythonocc core">
<ellipse fill="#fde725" stroke="black" cx="370.14" cy="-914" rx="81.49" ry="18"/>
<text text-anchor="middle" x="370.14" y="-910.3" font-family="Times,serif" font-size="14.00">pythonocc core</text>
</a>
</g>
</g>
<!-- pyqt&#45;&gt;pythonocc&#45;core -->
<g id="edge17" class="edge">
<title>pyqt&#45;&gt;pythonocc&#45;core</title>
<path fill="none" stroke="black" d="M584.36,-1196.7C534.69,-1189.14 440.1,-1171.96 417.14,-1148 362.87,-1091.35 363.29,-990.33 367.1,-942.09"/>
<polygon fill="black" stroke="black" points="370.59,-942.37 368,-932.1 363.61,-941.74 370.59,-942.37"/>
</g>
<!-- labelimg -->
<g id="node26" class="node">
<title>labelimg</title>
<g id="a_node26"><a xlink:href="https://github.com/conda-forge/labelimg-feedstock" xlink:title="labelimg">
<ellipse fill="#fde725" stroke="black" cx="738.14" cy="-842" rx="50.89" ry="18"/>
<text text-anchor="middle" x="738.14" y="-838.3" font-family="Times,serif" font-size="14.00">labelimg</text>
</a>
</g>
</g>
<!-- pyqt&#45;&gt;labelimg -->
<g id="edge18" class="edge">
<title>pyqt&#45;&gt;labelimg</title>
<path fill="none" stroke="black" d="M643.87,-1193.81C667.67,-1186.35 700.51,-1172.27 719.14,-1148 743.78,-1115.92 738.14,-1099.45 738.14,-1059 738.14,-1059 738.14,-1059 738.14,-985 738.14,-945 738.14,-898.65 738.14,-870.08"/>
<polygon fill="black" stroke="black" points="741.64,-870.05 738.14,-860.05 734.64,-870.05 741.64,-870.05"/>
</g>
<!-- qscintilla2&#45;&gt;octave -->
<g id="edge19" class="edge">
<title>qscintilla2&#45;&gt;octave</title>
<path fill="none" stroke="black" d="M79.32,-968.76C91.18,-959.22 106.32,-947.04 119.19,-936.68"/>
<polygon fill="black" stroke="black" points="121.67,-939.18 127.27,-930.19 117.28,-933.73 121.67,-939.18"/>
</g>
<!-- qtconsole&#45;&gt;silx -->
<g id="edge20" class="edge">
<title>qtconsole&#45;&gt;silx</title>
<path fill="none" stroke="black" d="M507.61,-1112.76C517.37,-1103.14 529.85,-1090.84 540.41,-1080.43"/>
<polygon fill="black" stroke="black" points="543.03,-1082.76 547.69,-1073.25 538.11,-1077.78 543.03,-1082.76"/>
</g>
<!-- qtconsole&#45;&gt;spyder -->
<g id="edge21" class="edge">
<title>qtconsole&#45;&gt;spyder</title>
<path fill="none" stroke="black" d="M481.7,-1112.05C477.11,-1103.8 471.48,-1093.7 466.37,-1084.54"/>
<polygon fill="black" stroke="black" points="469.42,-1082.82 461.5,-1075.79 463.31,-1086.23 469.42,-1082.82"/>
</g>
<!-- silx&#45;&gt;pyfai -->
<g id="edge22" class="edge">
<title>silx&#45;&gt;pyfai</title>
<path fill="none" stroke="black" d="M562.14,-1039.7C562.14,-1031.98 562.14,-1022.71 562.14,-1014.11"/>
<polygon fill="black" stroke="black" points="565.64,-1014.1 562.14,-1004.1 558.64,-1014.1 565.64,-1014.1"/>
</g>
<!-- digital_rf -->
<g id="node27" class="node">
<title>digital_rf</title>
<g id="a_node27"><a xlink:href="https://github.com/conda-forge/digital_rf-feedstock" xlink:title="digital_rf">
<ellipse fill="#fde725" stroke="black" cx="1237.14" cy="-1058" rx="52.79" ry="18"/>
<text text-anchor="middle" x="1237.14" y="-1054.3" font-family="Times,serif" font-size="14.00">digital_rf</text>
</a>
</g>
</g>
<!-- gnuradio&#45;&gt;digital_rf -->
<g id="edge23" class="edge">
<title>gnuradio&#45;&gt;digital_rf</title>
<path fill="none" stroke="black" d="M1167.57,-1113.12C1179.76,-1103.63 1195.44,-1091.44 1208.82,-1081.03"/>
<polygon fill="black" stroke="black" points="1211.06,-1083.72 1216.8,-1074.82 1206.76,-1078.2 1211.06,-1083.72"/>
</g>
<!-- gnuradio&#45;osmosdr -->
<g id="node28" class="node">
<title>gnuradio&#45;osmosdr</title>
<g id="a_node28"><a xlink:href="https://github.com/conda-forge/gnuradio-osmosdr-feedstock" xlink:title="gnuradio osmosdr">
<ellipse fill="#fde725" stroke="black" cx="1015.14" cy="-986" rx="95" ry="18"/>
<text text-anchor="middle" x="1015.14" y="-982.3" font-family="Times,serif" font-size="14.00">gnuradio osmosdr</text>
</a>
</g>
</g>
<!-- gnuradio&#45;&gt;gnuradio&#45;osmosdr -->
<g id="edge24" class="edge">
<title>gnuradio&#45;&gt;gnuradio&#45;osmosdr</title>
<path fill="none" stroke="black" d="M1132,-1112.71C1108.98,-1087.94 1064.99,-1040.62 1038.05,-1011.64"/>
<polygon fill="black" stroke="black" points="1040.3,-1008.92 1030.93,-1003.98 1035.17,-1013.69 1040.3,-1008.92"/>
</g>
<!-- gnuradio&#45;soapy -->
<g id="node29" class="node">
<title>gnuradio&#45;soapy</title>
<g id="a_node29"><a xlink:href="https://github.com/conda-forge/gnuradio-soapy-feedstock" xlink:title="gnuradio soapy">
<ellipse fill="#fde725" stroke="black" cx="1147.14" cy="-914" rx="82" ry="18"/>
<text text-anchor="middle" x="1147.14" y="-910.3" font-family="Times,serif" font-size="14.00">gnuradio soapy</text>
</a>
</g>
</g>
<!-- gnuradio&#45;&gt;gnuradio&#45;soapy -->
<g id="edge25" class="edge">
<title>gnuradio&#45;&gt;gnuradio&#45;soapy</title>
<path fill="none" stroke="black" d="M1143.27,-1111.85C1139.73,-1074.83 1139.46,-987.18 1142.45,-942.39"/>
<polygon fill="black" stroke="black" points="1145.96,-942.48 1143.26,-932.23 1138.98,-941.92 1145.96,-942.48"/>
</g>
<!-- gqrx -->
<g id="node30" class="node">
<title>gqrx</title>
<g id="a_node30"><a xlink:href="https://github.com/conda-forge/gqrx-feedstock" xlink:title="gqrx">
<ellipse fill="#fde725" stroke="black" cx="953.14" cy="-914" rx="32.5" ry="18"/>
<text text-anchor="middle" x="953.14" y="-910.3" font-family="Times,serif" font-size="14.00">gqrx</text>
</a>
</g>
</g>
<!-- gnuradio&#45;&gt;gqrx -->
<g id="edge26" class="edge">
<title>gnuradio&#45;&gt;gqrx</title>
<path fill="none" stroke="black" d="M1103.3,-1120.14C1047.37,-1106.21 952.87,-1073.32 911.14,-1004 898.15,-982.42 914.05,-956.18 929.88,-937.8"/>
<polygon fill="black" stroke="black" points="932.88,-939.7 937.04,-929.96 927.71,-934.98 932.88,-939.7"/>
</g>
<!-- gnuradio&#45;satellites -->
<g id="node31" class="node">
<title>gnuradio&#45;satellites</title>
<g id="a_node31"><a xlink:href="https://github.com/conda-forge/gnuradio-satellites-feedstock" xlink:title="gnuradio satellites">
<ellipse fill="#fde725" stroke="black" cx="1318.14" cy="-842" rx="97.5" ry="18"/>
<text text-anchor="middle" x="1318.14" y="-838.3" font-family="Times,serif" font-size="14.00">gnuradio satellites</text>
</a>
</g>
</g>
<!-- gnuradio&#45;&gt;gnuradio&#45;satellites -->
<g id="edge27" class="edge">
<title>gnuradio&#45;&gt;gnuradio&#45;satellites</title>
<path fill="none" stroke="black" d="M1197.38,-1125.34C1231.68,-1119.99 1275.12,-1107.06 1299.14,-1076 1346.02,-1015.39 1334.09,-917.45 1324.6,-870.21"/>
<polygon fill="black" stroke="black" points="1327.96,-869.19 1322.45,-860.14 1321.11,-870.65 1327.96,-869.19"/>
</g>
<!-- gnuradio&#45;osmosdr&#45;&gt;gqrx -->
<g id="edge55" class="edge">
<title>gnuradio&#45;osmosdr&#45;&gt;gqrx</title>
<path fill="none" stroke="black" d="M1000.14,-968.05C992.11,-958.99 982.1,-947.69 973.39,-937.86"/>
<polygon fill="black" stroke="black" points="976,-935.52 966.75,-930.36 970.76,-940.16 976,-935.52"/>
</g>
<!-- gnuradio&#45;soapy&#45;&gt;gnuradio -->
<g id="edge56" class="edge">
<title>gnuradio&#45;soapy&#45;&gt;gnuradio</title>
<path fill="none" stroke="black" d="M1151.03,-932.23C1154.56,-969.32 1154.83,-1056.98 1151.83,-1101.71"/>
<polygon fill="black" stroke="black" points="1148.33,-1101.6 1151.02,-1111.85 1155.31,-1102.16 1148.33,-1101.6"/>
</g>
<!-- qt -->
<g id="node32" class="node">
<title>qt</title>
<g id="a_node32"><a xlink:href="https://github.com/conda-forge/qt-feedstock" xlink:title="qt">
<ellipse fill="#fde725" stroke="black" cx="1421.14" cy="-1130" rx="27" ry="18"/>
<text text-anchor="middle" x="1421.14" y="-1126.3" font-family="Times,serif" font-size="14.00">qt</text>
</a>
</g>
</g>
<!-- freecad -->
<g id="node33" class="node">
<title>freecad</title>
<g id="a_node33"><a xlink:href="https://github.com/conda-forge/freecad-feedstock" xlink:title="freecad">
<ellipse fill="#fde725" stroke="black" cx="1392.14" cy="-1058" rx="45.5" ry="18"/>
<text text-anchor="middle" x="1392.14" y="-1054.3" font-family="Times,serif" font-size="14.00">freecad</text>
</a>
</g>
</g>
<!-- qt&#45;&gt;freecad -->
<g id="edge28" class="edge">
<title>qt&#45;&gt;freecad</title>
<path fill="none" stroke="black" d="M1414.27,-1112.41C1410.93,-1104.34 1406.82,-1094.43 1403.06,-1085.35"/>
<polygon fill="black" stroke="black" points="1406.23,-1083.86 1399.17,-1075.96 1399.76,-1086.53 1406.23,-1083.86"/>
</g>
<!-- stack -->
<g id="node34" class="node">
<title>stack</title>
<g id="a_node34"><a xlink:href="https://github.com/conda-forge/stack-feedstock/pull/35" xlink:title="stack ❎">
<ellipse fill="#31688e" stroke="black" cx="724.14" cy="-206" rx="49.5" ry="18"/>
<text text-anchor="middle" x="724.14" y="-202.3" font-family="Times,serif" font-size="14.00" fill="white">stack ❎</text>
</a>
</g>
</g>
<!-- shellcheck -->
<g id="node35" class="node">
<title>shellcheck</title>
<g id="a_node35"><a xlink:href="https://github.com/conda-forge/shellcheck-feedstock" xlink:title="shellcheck">
<ellipse fill="#fde725" stroke="black" cx="724.14" cy="-134" rx="59.29" ry="18"/>
<text text-anchor="middle" x="724.14" y="-130.3" font-family="Times,serif" font-size="14.00">shellcheck</text>
</a>
</g>
</g>
<!-- stack&#45;&gt;shellcheck -->
<g id="edge29" class="edge">
<title>stack&#45;&gt;shellcheck</title>
<path fill="none" stroke="black" d="M724.14,-187.7C724.14,-179.98 724.14,-170.71 724.14,-162.11"/>
<polygon fill="black" stroke="black" points="727.64,-162.1 724.14,-152.1 720.64,-162.1 727.64,-162.1"/>
</g>
<!-- torchvision -->
<g id="node36" class="node">
<title>torchvision</title>
<g id="a_node36"><a xlink:href="https://github.com/conda-forge/torchvision-feedstock" xlink:title="torchvision">
<ellipse fill="#fde725" stroke="black" cx="579.14" cy="-582" rx="62.5" ry="18"/>
<text text-anchor="middle" x="579.14" y="-578.3" font-family="Times,serif" font-size="14.00">torchvision</text>
</a>
</g>
</g>
<!-- allennlp -->
<g id="node37" class="node">
<title>allennlp</title>
<g id="a_node37"><a xlink:href="https://github.com/conda-forge/allennlp-feedstock" xlink:title="allennlp">
<ellipse fill="#fde725" stroke="black" cx="630.14" cy="-438" rx="48.19" ry="18"/>
<text text-anchor="middle" x="630.14" y="-434.3" font-family="Times,serif" font-size="14.00">allennlp</text>
</a>
</g>
</g>
<!-- torchvision&#45;&gt;allennlp -->
<g id="edge30" class="edge">
<title>torchvision&#45;&gt;allennlp</title>
<path fill="none" stroke="black" d="M572.77,-563.78C566.98,-545.23 560.78,-515.24 571.14,-492 576.82,-479.27 587.23,-468.33 597.74,-459.74"/>
<polygon fill="black" stroke="black" points="599.9,-462.5 605.72,-453.64 595.65,-456.93 599.9,-462.5"/>
</g>
<!-- fairscale -->
<g id="node38" class="node">
<title>fairscale</title>
<g id="a_node38"><a xlink:href="https://github.com/conda-forge/fairscale-feedstock" xlink:title="fairscale">
<ellipse fill="#fde725" stroke="black" cx="630.14" cy="-510" rx="50.09" ry="18"/>
<text text-anchor="middle" x="630.14" y="-506.3" font-family="Times,serif" font-size="14.00">fairscale</text>
</a>
</g>
</g>
<!-- torchvision&#45;&gt;fairscale -->
<g id="edge31" class="edge">
<title>torchvision&#45;&gt;fairscale</title>
<path fill="none" stroke="black" d="M591.49,-564.05C597.63,-555.63 605.17,-545.28 611.96,-535.97"/>
<polygon fill="black" stroke="black" points="614.85,-537.93 617.91,-527.79 609.2,-533.81 614.85,-537.93"/>
</g>
<!-- fairscale&#45;&gt;allennlp -->
<g id="edge32" class="edge">
<title>fairscale&#45;&gt;allennlp</title>
<path fill="none" stroke="black" d="M630.14,-491.7C630.14,-483.98 630.14,-474.71 630.14,-466.11"/>
<polygon fill="black" stroke="black" points="633.64,-466.1 630.14,-456.1 626.64,-466.1 633.64,-466.1"/>
</g>
<!-- qwt -->
<g id="node39" class="node">
<title>qwt</title>
<g id="a_node39"><a xlink:href="https://github.com/conda-forge/qwt-feedstock" xlink:title="qwt">
<ellipse fill="#35b779" stroke="black" cx="1147.14" cy="-1202" rx="28.7" ry="18"/>
<text text-anchor="middle" x="1147.14" y="-1198.3" font-family="Times,serif" font-size="14.00">qwt</text>
</a>
</g>
</g>
<!-- qwt&#45;&gt;gnuradio -->
<g id="edge33" class="edge">
<title>qwt&#45;&gt;gnuradio</title>
<path fill="none" stroke="black" d="M1147.14,-1183.7C1147.14,-1175.98 1147.14,-1166.71 1147.14,-1158.11"/>
<polygon fill="black" stroke="black" points="1150.64,-1158.1 1147.14,-1148.1 1143.64,-1158.1 1150.64,-1158.1"/>
</g>
<!-- pivy -->
<g id="node40" class="node">
<title>pivy</title>
<g id="a_node40"><a xlink:href="https://github.com/conda-forge/pivy-feedstock" xlink:title="pivy">
<ellipse fill="#fde725" stroke="black" cx="1307.14" cy="-1130" rx="30.59" ry="18"/>
<text text-anchor="middle" x="1307.14" y="-1126.3" font-family="Times,serif" font-size="14.00">pivy</text>
</a>
</g>
</g>
<!-- pivy&#45;&gt;freecad -->
<g id="edge34" class="edge">
<title>pivy&#45;&gt;freecad</title>
<path fill="none" stroke="black" d="M1324.35,-1114.83C1336.08,-1105.17 1351.85,-1092.18 1365.23,-1081.17"/>
<polygon fill="black" stroke="black" points="1367.7,-1083.66 1373.19,-1074.61 1363.25,-1078.26 1367.7,-1083.66"/>
</g>
<!-- geckodriver -->
<g id="node41" class="node">
<title>geckodriver</title>
<g id="a_node41"><a xlink:href="https://github.com/conda-forge/geckodriver-feedstock" xlink:title="geckodriver">
<ellipse fill="#fde725" stroke="black" cx="1849.14" cy="-358" rx="65.79" ry="18"/>
<text text-anchor="middle" x="1849.14" y="-354.3" font-family="Times,serif" font-size="14.00">geckodriver</text>
</a>
</g>
</g>
<!-- firefox -->
<g id="node42" class="node">
<title>firefox</title>
<g id="a_node42"><a xlink:href="https://github.com/conda-forge/firefox-feedstock" xlink:title="firefox">
<ellipse fill="#fde725" stroke="black" cx="1849.14" cy="-286" rx="40.5" ry="18"/>
<text text-anchor="middle" x="1849.14" y="-282.3" font-family="Times,serif" font-size="14.00">firefox</text>
</a>
</g>
</g>
<!-- geckodriver&#45;&gt;firefox -->
<g id="edge35" class="edge">
<title>geckodriver&#45;&gt;firefox</title>
<path fill="none" stroke="black" d="M1843.27,-340.05C1842.45,-332.35 1842.21,-323.03 1842.54,-314.36"/>
<polygon fill="black" stroke="black" points="1846.04,-314.49 1843.23,-304.28 1839.06,-314.01 1846.04,-314.49"/>
</g>
<!-- firefox&#45;&gt;geckodriver -->
<g id="edge36" class="edge">
<title>firefox&#45;&gt;geckodriver</title>
<path fill="none" stroke="black" d="M1855.06,-304.28C1855.86,-312.03 1856.09,-321.36 1855.74,-330.01"/>
<polygon fill="black" stroke="black" points="1852.24,-329.83 1855.02,-340.05 1859.22,-330.33 1852.24,-329.83"/>
</g>
<!-- pyside2 -->
<g id="node43" class="node">
<title>pyside2</title>
<g id="a_node43"><a xlink:href="https://github.com/conda-forge/pyside2-feedstock" xlink:title="pyside2">
<ellipse fill="#fde725" stroke="black" cx="1346.14" cy="-1202" rx="47" ry="18"/>
<text text-anchor="middle" x="1346.14" y="-1198.3" font-family="Times,serif" font-size="14.00">pyside2</text>
</a>
</g>
</g>
<!-- pyside2&#45;&gt;freecad -->
<g id="edge37" class="edge">
<title>pyside2&#45;&gt;freecad</title>
<path fill="none" stroke="black" d="M1351.69,-1183.87C1359.57,-1159.56 1374.06,-1114.82 1383.39,-1086.01"/>
<polygon fill="black" stroke="black" points="1386.82,-1086.78 1386.58,-1076.19 1380.16,-1084.62 1386.82,-1086.78"/>
</g>
<!-- pyside2&#45;&gt;pivy -->
<g id="edge38" class="edge">
<title>pyside2&#45;&gt;pivy</title>
<path fill="none" stroke="black" d="M1336.7,-1184.05C1332.04,-1175.68 1326.31,-1165.4 1321.15,-1156.13"/>
<polygon fill="black" stroke="black" points="1324.15,-1154.34 1316.23,-1147.31 1318.04,-1157.75 1324.15,-1154.34"/>
</g>
<!-- soqt -->
<g id="node44" class="node">
<title>soqt</title>
<g id="a_node44"><a xlink:href="https://github.com/conda-forge/soqt-feedstock" xlink:title="soqt">
<ellipse fill="#fde725" stroke="black" cx="1250.14" cy="-1202" rx="30.59" ry="18"/>
<text text-anchor="middle" x="1250.14" y="-1198.3" font-family="Times,serif" font-size="14.00">soqt</text>
</a>
</g>
</g>
<!-- soqt&#45;&gt;pivy -->
<g id="edge39" class="edge">
<title>soqt&#45;&gt;pivy</title>
<path fill="none" stroke="black" d="M1262.79,-1185.46C1270.25,-1176.31 1279.82,-1164.55 1288.17,-1154.31"/>
<polygon fill="black" stroke="black" points="1290.93,-1156.46 1294.53,-1146.49 1285.5,-1152.04 1290.93,-1156.46"/>
</g>
<!-- geant4 -->
<g id="node46" class="node">
<title>geant4</title>
<g id="a_node46"><a xlink:href="https://github.com/conda-forge/geant4-feedstock" xlink:title="geant4">
<ellipse fill="#35b779" stroke="black" cx="1597.14" cy="-1202" rx="43" ry="18"/>
<text text-anchor="middle" x="1597.14" y="-1198.3" font-family="Times,serif" font-size="14.00">geant4</text>
</a>
</g>
</g>
<!-- srm&#45;&gt;geant4 -->
<!-- ibm_db -->
<g id="node51" class="node">
<title>ibm_db</title>
<g id="a_node51"><a xlink:href="https://github.com/conda-forge/ibm_db-feedstock/pull/48" xlink:title="ibm_db ❎">
<ellipse fill="#31688e" stroke="black" cx="1597.14" cy="-1130" rx="58.5" ry="18"/>
<text text-anchor="middle" x="1597.14" y="-1126.3" font-family="Times,serif" font-size="14.00" fill="white">ibm_db ❎</text>
</a>
</g>
</g>
<!-- geant4&#45;&gt;ibm_db -->
<!-- pytorch&#45;cpu -->
<g id="node47" class="node">
<title>pytorch&#45;cpu</title>
<g id="a_node47"><a xlink:href="https://github.com/conda-forge/pytorch-cpu-feedstock/pull/119" xlink:title="pytorch cpu ❎">
<ellipse fill="#31688e" stroke="black" cx="708.14" cy="-654" rx="80" ry="18"/>
<text text-anchor="middle" x="708.14" y="-650.3" font-family="Times,serif" font-size="14.00" fill="white">pytorch cpu ❎</text>
</a>
</g>
</g>
<!-- pytorch&#45;cpu&#45;&gt;torchvision -->
<g id="edge42" class="edge">
<title>pytorch&#45;cpu&#45;&gt;torchvision</title>
<path fill="none" stroke="black" d="M678.87,-637.12C660.31,-627.04 636.12,-613.92 616.22,-603.12"/>
<polygon fill="black" stroke="black" points="617.87,-600.03 607.41,-598.34 614.53,-606.19 617.87,-600.03"/>
</g>
<!-- pytorch&#45;cpu&#45;&gt;allennlp -->
<g id="edge43" class="edge">
<title>pytorch&#45;cpu&#45;&gt;allennlp</title>
<path fill="none" stroke="black" d="M709.91,-635.88C712.3,-605.17 713.75,-539.48 689.14,-492 682.68,-479.53 672,-468.58 661.49,-459.93"/>
<polygon fill="black" stroke="black" points="663.61,-457.14 653.56,-453.76 659.31,-462.66 663.61,-457.14"/>
</g>
<!-- pytorch&#45;cpu&#45;&gt;fairscale -->
<g id="edge44" class="edge">
<title>pytorch&#45;cpu&#45;&gt;fairscale</title>
<path fill="none" stroke="black" d="M698.74,-635.87C685.19,-611.22 660.1,-565.54 644.31,-536.79"/>
<polygon fill="black" stroke="black" points="647.23,-534.83 639.34,-527.75 641.09,-538.2 647.23,-534.83"/>
</g>
<!-- nvidia&#45;apex -->
<g id="node48" class="node">
<title>nvidia&#45;apex</title>
<g id="a_node48"><a xlink:href="https://github.com/conda-forge/nvidia-apex-feedstock" xlink:title="nvidia apex">
<ellipse fill="#fde725" stroke="black" cx="800.14" cy="-582" rx="63.89" ry="18"/>
<text text-anchor="middle" x="800.14" y="-578.3" font-family="Times,serif" font-size="14.00">nvidia apex</text>
</a>
</g>
</g>
<!-- pytorch&#45;cpu&#45;&gt;nvidia&#45;apex -->
<g id="edge45" class="edge">
<title>pytorch&#45;cpu&#45;&gt;nvidia&#45;apex</title>
<path fill="none" stroke="black" d="M729.95,-636.41C742.06,-627.19 757.31,-615.59 770.5,-605.55"/>
<polygon fill="black" stroke="black" points="772.98,-608.07 778.82,-599.23 768.74,-602.5 772.98,-608.07"/>
</g>
<!-- kaolin -->
<g id="node49" class="node">
<title>kaolin</title>
<g id="a_node49"><a xlink:href="https://github.com/conda-forge/kaolin-feedstock" xlink:title="kaolin">
<ellipse fill="#fde725" stroke="black" cx="892.14" cy="-510" rx="38.5" ry="18"/>
<text text-anchor="middle" x="892.14" y="-506.3" font-family="Times,serif" font-size="14.00">kaolin</text>
</a>
</g>
</g>
<!-- pytorch&#45;cpu&#45;&gt;kaolin -->
<g id="edge46" class="edge">
<title>pytorch&#45;cpu&#45;&gt;kaolin</title>
<path fill="none" stroke="black" d="M780.37,-646.19C813.04,-639.42 849.53,-626.11 873.14,-600 888.17,-583.39 892.38,-557.89 893.15,-538.43"/>
<polygon fill="black" stroke="black" points="896.65,-538.38 893.26,-528.34 889.65,-538.3 896.65,-538.38"/>
</g>
<!-- gfortran_osx&#45;64 -->
<g id="node50" class="node">
<title>gfortran_osx&#45;64</title>
<g id="a_node50"><a xlink:href="https://github.com/conda-forge/gfortran_osx-64-feedstock" xlink:title="gfortran_osx 64">
<ellipse fill="#fde725" stroke="black" cx="1633.14" cy="-474" rx="84" ry="18"/>
<text text-anchor="middle" x="1633.14" y="-470.3" font-family="Times,serif" font-size="14.00">gfortran_osx 64</text>
</a>
</g>
</g>
<!-- jaxlib -->
<g id="node52" class="node">
<title>jaxlib</title>
<g id="a_node52"><a xlink:href="https://github.com/conda-forge/jaxlib-feedstock/pull/147" xlink:title="jaxlib ❎">
<ellipse fill="#31688e" stroke="black" cx="1597.14" cy="-1058" rx="50.09" ry="18"/>
<text text-anchor="middle" x="1597.14" y="-1054.3" font-family="Times,serif" font-size="14.00" fill="white">jaxlib ❎</text>
</a>
</g>
</g>
<!-- ibm_db&#45;&gt;jaxlib -->
<!-- proj -->
<g id="node53" class="node">
<title>proj</title>
<g id="a_node53"><a xlink:href="https://github.com/conda-forge/proj-feedstock" xlink:title="proj">
<ellipse fill="#35b779" stroke="black" cx="1597.14" cy="-986" rx="29.5" ry="18"/>
<text text-anchor="middle" x="1597.14" y="-982.3" font-family="Times,serif" font-size="14.00">proj</text>
</a>
</g>
</g>
<!-- jaxlib&#45;&gt;proj -->
<!-- jaeger -->
<g id="node57" class="node">
<title>jaeger</title>
<g id="a_node57"><a xlink:href="https://github.com/conda-forge/jaeger-feedstock/pull/24" xlink:title="jaeger ❎">
<ellipse fill="#31688e" stroke="black" cx="1597.14" cy="-914" rx="54" ry="18"/>
<text text-anchor="middle" x="1597.14" y="-910.3" font-family="Times,serif" font-size="14.00" fill="white">jaeger ❎</text>
</a>
</g>
</g>
<!-- proj&#45;&gt;jaeger -->
<!-- libv8 -->
<g id="node54" class="node">
<title>libv8</title>
<g id="a_node54"><a xlink:href="https://github.com/conda-forge/libv8-feedstock/pull/81" xlink:title="libv8 ❎">
<ellipse fill="#31688e" stroke="black" cx="1597.14" cy="-90" rx="48.19" ry="18"/>
<text text-anchor="middle" x="1597.14" y="-86.3" font-family="Times,serif" font-size="14.00" fill="white">libv8 ❎</text>
</a>
</g>
</g>
<!-- r&#45;v8 -->
<g id="node55" class="node">
<title>r&#45;v8</title>
<g id="a_node55"><a xlink:href="https://github.com/conda-forge/r-v8-feedstock" xlink:title="r v8">
<ellipse fill="#fde725" stroke="black" cx="1597.14" cy="-18" rx="29.5" ry="18"/>
<text text-anchor="middle" x="1597.14" y="-14.3" font-family="Times,serif" font-size="14.00">r v8</text>
</a>
</g>
</g>
<!-- libv8&#45;&gt;r&#45;v8 -->
<g id="edge50" class="edge">
<title>libv8&#45;&gt;r&#45;v8</title>
<path fill="none" stroke="black" d="M1597.14,-71.7C1597.14,-63.98 1597.14,-54.71 1597.14,-46.11"/>
<polygon fill="black" stroke="black" points="1600.64,-46.1 1597.14,-36.1 1593.64,-46.1 1600.64,-46.1"/>
</g>
<!-- clang&#45;compiler&#45;activation -->
<g id="node56" class="node">
<title>clang&#45;compiler&#45;activation</title>
<g id="a_node56"><a xlink:href="https://github.com/conda-forge/clang-compiler-activation-feedstock/pull/85" xlink:title="clang compiler activation ❎">
<ellipse fill="#31688e" stroke="black" cx="1597.14" cy="-618" rx="141.88" ry="18"/>
<text text-anchor="middle" x="1597.14" y="-614.3" font-family="Times,serif" font-size="14.00" fill="white">clang compiler activation ❎</text>
</a>
</g>
</g>
<!-- clang&#45;compiler&#45;activation&#45;&gt;parcels -->
<g id="edge51" class="edge">
<title>clang&#45;compiler&#45;activation&#45;&gt;parcels</title>
<path fill="none" stroke="black" d="M1588.25,-599.7C1584.15,-591.73 1579.2,-582.1 1574.65,-573.26"/>
<polygon fill="black" stroke="black" points="1577.63,-571.4 1569.94,-564.1 1571.4,-574.6 1577.63,-571.4"/>
</g>
<!-- clang&#45;compiler&#45;activation&#45;&gt;gfortran_osx&#45;64 -->
<g id="edge52" class="edge">
<title>clang&#45;compiler&#45;activation&#45;&gt;gfortran_osx&#45;64</title>
<path fill="none" stroke="black" d="M1603.1,-599.94C1606.58,-589.62 1610.91,-576.14 1614.14,-564 1619.6,-543.52 1624.56,-520.06 1628.04,-502.37"/>
<polygon fill="black" stroke="black" points="1631.55,-502.66 1630.01,-492.18 1624.67,-501.34 1631.55,-502.66"/>
</g>
<!-- xcape -->
<g id="node58" class="node">
<title>xcape</title>
<g id="a_node58"><a xlink:href="https://github.com/conda-forge/xcape-feedstock/pull/20" xlink:title="xcape ✓">
<ellipse fill="#31688e" stroke="black" cx="1597.14" cy="-842" rx="45" ry="18"/>
<text text-anchor="middle" x="1597.14" y="-838.3" font-family="Times,serif" font-size="14.00" fill="white">xcape ✓</text>
</a>
</g>
</g>
<!-- jaeger&#45;&gt;xcape -->
<!-- faiss&#45;split -->
<g id="node59" class="node">
<title>faiss&#45;split</title>
<g id="a_node59"><a xlink:href="https://github.com/conda-forge/faiss-split-feedstock/pull/54" xlink:title="faiss split ❎">
<ellipse fill="#31688e" stroke="black" cx="1597.14" cy="-770" rx="69.59" ry="18"/>
<text text-anchor="middle" x="1597.14" y="-766.3" font-family="Times,serif" font-size="14.00" fill="white">faiss split ❎</text>
</a>
</g>
</g>
<!-- xcape&#45;&gt;faiss&#45;split -->
<!-- filprofiler -->
<g id="node60" class="node">
<title>filprofiler</title>
<g id="a_node60"><a xlink:href="https://github.com/conda-forge/filprofiler-feedstock/pull/51" xlink:title="filprofiler ❎">
<ellipse fill="#31688e" stroke="black" cx="1597.14" cy="-698" rx="67.69" ry="18"/>
<text text-anchor="middle" x="1597.14" y="-694.3" font-family="Times,serif" font-size="14.00" fill="white">filprofiler ❎</text>
</a>
</g>
</g>
<!-- faiss&#45;split&#45;&gt;filprofiler -->
<!-- ansicon -->
<g id="node61" class="node">
<title>ansicon</title>
<g id="a_node61"><a xlink:href="https://github.com/conda-forge/ansicon-feedstock/pull/9" xlink:title="ansicon ✓">
<ellipse fill="#31688e" stroke="black" cx="1897.14" cy="-546" rx="53.5" ry="18"/>
<text text-anchor="middle" x="1897.14" y="-542.3" font-family="Times,serif" font-size="14.00" fill="white">ansicon ✓</text>
</a>
</g>
</g>
<!-- ansicon&#45;&gt;ray&#45;packages -->
<g id="edge59" class="edge">
<title>ansicon&#45;&gt;ray&#45;packages</title>
<path fill="none" stroke="black" d="M1885.06,-528.41C1878.92,-519.99 1871.34,-509.58 1864.51,-500.2"/>
<polygon fill="black" stroke="black" points="1867.22,-497.98 1858.5,-491.96 1861.56,-502.1 1867.22,-497.98"/>
</g>
<!-- dask&#45;sql -->
<g id="node62" class="node">
<title>dask&#45;sql</title>
<g id="a_node62"><a xlink:href="https://github.com/conda-forge/dask-sql-feedstock/pull/56" xlink:title="dask sql ❎">
<ellipse fill="#31688e" stroke="black" cx="1849.14" cy="-1346" rx="63.09" ry="18"/>
<text text-anchor="middle" x="1849.14" y="-1342.3" font-family="Times,serif" font-size="14.00" fill="white">dask sql ❎</text>
</a>
</g>
</g>
<!-- or&#45;tools -->
<g id="node63" class="node">
<title>or&#45;tools</title>
<g id="a_node63"><a xlink:href="https://github.com/conda-forge/or-tools-feedstock/pull/19" xlink:title="or tools ❎">
<ellipse fill="#31688e" stroke="black" cx="1849.14" cy="-1274" rx="60" ry="18"/>
<text text-anchor="middle" x="1849.14" y="-1270.3" font-family="Times,serif" font-size="14.00" fill="white">or tools ❎</text>
</a>
</g>
</g>
<!-- dask&#45;sql&#45;&gt;or&#45;tools -->
<!-- pyscf -->
<g id="node66" class="node">
<title>pyscf</title>
<g id="a_node66"><a xlink:href="https://github.com/conda-forge/pyscf-feedstock/pull/5" xlink:title="pyscf ❎">
<ellipse fill="#31688e" stroke="black" cx="1849.14" cy="-1202" rx="49.5" ry="18"/>
<text text-anchor="middle" x="1849.14" y="-1198.3" font-family="Times,serif" font-size="14.00" fill="white">pyscf ❎</text>
</a>
</g>
</g>
<!-- or&#45;tools&#45;&gt;pyscf -->
<!-- slirp4netns -->
<g id="node64" class="node">
<title>slirp4netns</title>
<g id="a_node64"><a xlink:href="https://github.com/conda-forge/slirp4netns-feedstock/pull/8" xlink:title="slirp4netns ✓">
<ellipse fill="#31688e" stroke="black" cx="1597.14" cy="-358" rx="71" ry="18"/>
<text text-anchor="middle" x="1597.14" y="-354.3" font-family="Times,serif" font-size="14.00" fill="white">slirp4netns ✓</text>
</a>
</g>
</g>
<!-- buildah -->
<g id="node65" class="node">
<title>buildah</title>
<g id="a_node65"><a xlink:href="https://github.com/conda-forge/buildah-feedstock" xlink:title="buildah">
<ellipse fill="#fde725" stroke="black" cx="1597.14" cy="-286" rx="45.5" ry="18"/>
<text text-anchor="middle" x="1597.14" y="-282.3" font-family="Times,serif" font-size="14.00">buildah</text>
</a>
</g>
</g>
<!-- slirp4netns&#45;&gt;buildah -->
<g id="edge61" class="edge">
<title>slirp4netns&#45;&gt;buildah</title>
<path fill="none" stroke="black" d="M1597.14,-339.7C1597.14,-331.98 1597.14,-322.71 1597.14,-314.11"/>
<polygon fill="black" stroke="black" points="1600.64,-314.1 1597.14,-304.1 1593.64,-314.1 1600.64,-314.1"/>
</g>
<!-- oras -->
<g id="node70" class="node">
<title>oras</title>
<g id="a_node70"><a xlink:href="https://github.com/conda-forge/oras-feedstock/pull/3" xlink:title="oras ❎">
<ellipse fill="#31688e" stroke="black" cx="1849.14" cy="-1130" rx="45" ry="18"/>
<text text-anchor="middle" x="1849.14" y="-1126.3" font-family="Times,serif" font-size="14.00" fill="white">oras ❎</text>
</a>
</g>
</g>
<!-- pyscf&#45;&gt;oras -->
<!-- deno -->
<g id="node67" class="node">
<title>deno</title>
<g id="a_node67"><a xlink:href="https://github.com/conda-forge/deno-feedstock/pull/11" xlink:title="deno ❎">
<ellipse fill="#31688e" stroke="black" cx="1849.14" cy="-206" rx="47.5" ry="18"/>
<text text-anchor="middle" x="1849.14" y="-202.3" font-family="Times,serif" font-size="14.00" fill="white">deno ❎</text>
</a>
</g>
</g>
<!-- deno&#45;dom -->
<g id="node68" class="node">
<title>deno&#45;dom</title>
<g id="a_node68"><a xlink:href="https://github.com/conda-forge/deno-dom-feedstock" xlink:title="deno dom">
<ellipse fill="#fde725" stroke="black" cx="1849.14" cy="-134" rx="56" ry="18"/>
<text text-anchor="middle" x="1849.14" y="-130.3" font-family="Times,serif" font-size="14.00">deno dom</text>
</a>
</g>
</g>
<!-- deno&#45;&gt;deno&#45;dom -->
<g id="edge63" class="edge">
<title>deno&#45;&gt;deno&#45;dom</title>
<path fill="none" stroke="black" d="M1849.14,-187.7C1849.14,-179.98 1849.14,-170.71 1849.14,-162.11"/>
<polygon fill="black" stroke="black" points="1852.64,-162.1 1849.14,-152.1 1845.64,-162.1 1852.64,-162.1"/>
</g>
<!-- qt&#45;webengine -->
<g id="node69" class="node">
<title>qt&#45;webengine</title>
<g id="a_node69"><a xlink:href="https://github.com/conda-forge/qt-webengine-feedstock" xlink:title="qt webengine">
<ellipse fill="#35b779" stroke="black" cx="1346.14" cy="-1274" rx="73.5" ry="18"/>
<text text-anchor="middle" x="1346.14" y="-1270.3" font-family="Times,serif" font-size="14.00">qt webengine</text>
</a>
</g>
</g>
<!-- qt&#45;webengine&#45;&gt;pyqt -->
<g id="edge64" class="edge">
<title>qt&#45;webengine&#45;&gt;pyqt</title>
<path fill="none" stroke="black" d="M1279.01,-1266.57C1130.49,-1252.35 777.67,-1218.56 656.69,-1206.98"/>
<polygon fill="black" stroke="black" points="656.67,-1203.46 646.39,-1205.99 656.01,-1210.43 656.67,-1203.46"/>
</g>
<!-- qt&#45;webengine&#45;&gt;qt -->
<g id="edge65" class="edge">
<title>qt&#45;webengine&#45;&gt;qt</title>
<path fill="none" stroke="black" d="M1368.98,-1256.8C1380.63,-1247.36 1394.02,-1234.47 1402.14,-1220 1412.81,-1201 1417.5,-1176.64 1419.56,-1158.21"/>
<polygon fill="black" stroke="black" points="1423.05,-1158.41 1420.49,-1148.13 1416.08,-1157.76 1423.05,-1158.41"/>
</g>
<!-- qt&#45;webengine&#45;&gt;pyside2 -->
<g id="edge66" class="edge">
<title>qt&#45;webengine&#45;&gt;pyside2</title>
<path fill="none" stroke="black" d="M1346.14,-1255.7C1346.14,-1247.98 1346.14,-1238.71 1346.14,-1230.11"/>
<polygon fill="black" stroke="black" points="1349.64,-1230.1 1346.14,-1220.1 1342.64,-1230.1 1349.64,-1230.1"/>
</g>
<!-- meilisearch -->
<g id="node71" class="node">
<title>meilisearch</title>
<g id="a_node71"><a xlink:href="https://github.com/conda-forge/meilisearch-feedstock/pull/7" xlink:title="meilisearch ❎">
<ellipse fill="#31688e" stroke="black" cx="1849.14" cy="-1058" rx="78.79" ry="18"/>
<text text-anchor="middle" x="1849.14" y="-1054.3" font-family="Times,serif" font-size="14.00" fill="white">meilisearch ❎</text>
</a>
</g>
</g>
<!-- oras&#45;&gt;meilisearch -->
<!-- lazrs&#45;python -->
<g id="node72" class="node">
<title>lazrs&#45;python</title>
<g id="a_node72"><a xlink:href="https://github.com/conda-forge/lazrs-python-feedstock/pull/8" xlink:title="lazrs python ❎">
<ellipse fill="#31688e" stroke="black" cx="1849.14" cy="-986" rx="82.59" ry="18"/>
<text text-anchor="middle" x="1849.14" y="-982.3" font-family="Times,serif" font-size="14.00" fill="white">lazrs python ❎</text>
</a>
</g>
</g>
<!-- meilisearch&#45;&gt;lazrs&#45;python -->
<!-- heavydb&#45;ext -->
<g id="node73" class="node">
<title>heavydb&#45;ext</title>
<g id="a_node73"><a xlink:href="https://github.com/conda-forge/heavydb-ext-feedstock/pull/21" xlink:title="heavydb ext ❎">
<ellipse fill="#31688e" stroke="black" cx="1849.14" cy="-914" rx="81.49" ry="18"/>
<text text-anchor="middle" x="1849.14" y="-910.3" font-family="Times,serif" font-size="14.00" fill="white">heavydb ext ❎</text>
</a>
</g>
</g>
<!-- lazrs&#45;python&#45;&gt;heavydb&#45;ext -->
<!-- quarto -->
<g id="node74" class="node">
<title>quarto</title>
<g id="a_node74"><a xlink:href="https://github.com/conda-forge/quarto-feedstock" xlink:title="quarto">
<ellipse fill="#fde725" stroke="black" cx="1849.14" cy="-842" rx="41.69" ry="18"/>
<text text-anchor="middle" x="1849.14" y="-838.3" font-family="Times,serif" font-size="14.00">quarto</text>
</a>
</g>
</g>
<!-- heavydb&#45;ext&#45;&gt;quarto -->
<!-- xeus&#45;zmq -->
<g id="node75" class="node">
<title>xeus&#45;zmq</title>
<g id="a_node75"><a xlink:href="https://github.com/conda-forge/xeus-zmq-feedstock/pull/1" xlink:title="xeus zmq ❎">
<ellipse fill="#31688e" stroke="black" cx="1849.14" cy="-770" rx="69" ry="18"/>
<text text-anchor="middle" x="1849.14" y="-766.3" font-family="Times,serif" font-size="14.00" fill="white">xeus zmq ❎</text>
</a>
</g>
</g>
<!-- quarto&#45;&gt;xeus&#45;zmq -->
<!-- parallelio -->
<g id="node76" class="node">
<title>parallelio</title>
<g id="a_node76"><a xlink:href="https://github.com/conda-forge/parallelio-feedstock/pull/2" xlink:title="parallelio ❎">
<ellipse fill="#31688e" stroke="black" cx="724.14" cy="-394" rx="68.49" ry="18"/>
<text text-anchor="middle" x="724.14" y="-390.3" font-family="Times,serif" font-size="14.00" fill="white">parallelio ❎</text>
</a>
</g>
</g>
<!-- parallelio&#45;&gt;esmf -->
<g id="edge73" class="edge">
<title>parallelio&#45;&gt;esmf</title>
<path fill="none" stroke="black" d="M724.14,-375.7C724.14,-367.98 724.14,-358.71 724.14,-350.11"/>
<polygon fill="black" stroke="black" points="727.64,-350.1 724.14,-340.1 720.64,-350.1 727.64,-350.1"/>
</g>
</g>
</svg>
