<?xml version="1.0" encoding="UTF-8" standalone="no"?>
<!DOCTYPE svg PUBLIC "-//W3C//DTD SVG 1.1//EN"
 "http://www.w3.org/Graphics/SVG/1.1/DTD/svg11.dtd">
<!-- Generated by graphviz version 2.47.0 (20210327.0129)
 -->
<!-- Pages: 1 -->
<svg width="1716pt" height="996pt"
 viewBox="0.00 0.00 1715.55 996.00" xmlns="http://www.w3.org/2000/svg" xmlns:xlink="http://www.w3.org/1999/xlink">
<g id="graph0" class="graph" transform="scale(1 1) rotate(0) translate(4 992)">
<polygon fill="white" stroke="transparent" points="-4,4 -4,-992 1711.55,-992 1711.55,4 -4,4"/>
<!-- elfutils -->
<g id="node1" class="node">
<title>elfutils</title>
<g id="a_node1"><a xlink:href="https://github.com/conda-forge/elfutils-feedstock/pull/20" xlink:title="elfutils ❎">
<ellipse fill="#31688e" stroke="black" cx="55" cy="-682" rx="54" ry="18"/>
<text text-anchor="middle" x="55" y="-678.3" font-family="Times-Roman" font-size="14.00" fill="white">elfutils ❎</text>
</a>
</g>
</g>
<!-- heaptrack -->
<g id="node2" class="node">
<title>heaptrack</title>
<g id="a_node2"><a xlink:href="https://github.com/conda-forge/heaptrack-feedstock" xlink:title="heaptrack">
<ellipse fill="#fde725" stroke="black" cx="58" cy="-610" rx="58" ry="18"/>
<text text-anchor="middle" x="58" y="-606.3" font-family="Times-Roman" font-size="14.00">heaptrack</text>
</a>
</g>
</g>
<!-- elfutils&#45;&gt;heaptrack -->
<g id="edge1" class="edge">
<title>elfutils&#45;&gt;heaptrack</title>
<path fill="none" stroke="black" d="M55.74,-663.7C56.07,-655.98 56.47,-646.71 56.84,-638.11"/>
<polygon fill="black" stroke="black" points="60.34,-638.25 57.27,-628.1 53.34,-637.95 60.34,-638.25"/>
</g>
<!-- googleapis&#45;common&#45;protos -->
<g id="node3" class="node">
<title>googleapis&#45;common&#45;protos</title>
<g id="a_node3"><a xlink:href="https://github.com/conda-forge/googleapis-common-protos-feedstock/pull/26" xlink:title="googleapis common protos ❎">
<ellipse fill="#31688e" stroke="black" cx="1058" cy="-970" rx="150.27" ry="18"/>
<text text-anchor="middle" x="1058" y="-966.3" font-family="Times-Roman" font-size="14.00" fill="white">googleapis common protos ❎</text>
</a>
</g>
</g>
<!-- root_numpy -->
<g id="node4" class="node">
<title>root_numpy</title>
<g id="a_node4"><a xlink:href="https://github.com/conda-forge/root_numpy-feedstock/pull/21" xlink:title="root_numpy ❎">
<ellipse fill="#31688e" stroke="black" cx="1058" cy="-898" rx="79.5" ry="18"/>
<text text-anchor="middle" x="1058" y="-894.3" font-family="Times-Roman" font-size="14.00" fill="white">root_numpy ❎</text>
</a>
</g>
</g>
<!-- googleapis&#45;common&#45;protos&#45;&gt;root_numpy -->
<!-- r&#45;grf -->
<g id="node28" class="node">
<title>r&#45;grf</title>
<g id="a_node28"><a xlink:href="https://github.com/conda-forge/r-grf-feedstock/pull/10" xlink:title="r grf ❎">
<ellipse fill="#31688e" stroke="black" cx="1058" cy="-826" rx="43" ry="18"/>
<text text-anchor="middle" x="1058" y="-822.3" font-family="Times-Roman" font-size="14.00" fill="white">r grf ❎</text>
</a>
</g>
</g>
<!-- root_numpy&#45;&gt;r&#45;grf -->
<!-- hyperspy -->
<g id="node5" class="node">
<title>hyperspy</title>
<g id="a_node5"><a xlink:href="https://github.com/conda-forge/hyperspy-feedstock" xlink:title="hyperspy">
<ellipse fill="#fde725" stroke="black" cx="1270" cy="-574" rx="54" ry="18"/>
<text text-anchor="middle" x="1270" y="-570.3" font-family="Times-Roman" font-size="14.00">hyperspy</text>
</a>
</g>
</g>
<!-- libunwind -->
<g id="node6" class="node">
<title>libunwind</title>
<g id="a_node6"><a xlink:href="https://github.com/conda-forge/libunwind-feedstock/pull/14" xlink:title="libunwind ❎">
<ellipse fill="#31688e" stroke="black" cx="195" cy="-682" rx="67.69" ry="18"/>
<text text-anchor="middle" x="195" y="-678.3" font-family="Times-Roman" font-size="14.00" fill="white">libunwind ❎</text>
</a>
</g>
</g>
<!-- libunwind&#45;&gt;heaptrack -->
<g id="edge3" class="edge">
<title>libunwind&#45;&gt;heaptrack</title>
<path fill="none" stroke="black" d="M165.27,-665.81C144.89,-655.4 117.68,-641.49 95.76,-630.29"/>
<polygon fill="black" stroke="black" points="97.23,-627.11 86.73,-625.68 94.04,-633.35 97.23,-627.11"/>
</g>
<!-- gperftools -->
<g id="node7" class="node">
<title>gperftools</title>
<g id="a_node7"><a xlink:href="https://github.com/conda-forge/gperftools-feedstock" xlink:title="gperftools">
<ellipse fill="#fde725" stroke="black" cx="193" cy="-610" rx="58" ry="18"/>
<text text-anchor="middle" x="193" y="-606.3" font-family="Times-Roman" font-size="14.00">gperftools</text>
</a>
</g>
</g>
<!-- libunwind&#45;&gt;gperftools -->
<g id="edge4" class="edge">
<title>libunwind&#45;&gt;gperftools</title>
<path fill="none" stroke="black" d="M194.51,-663.7C194.29,-655.98 194.02,-646.71 193.77,-638.11"/>
<polygon fill="black" stroke="black" points="197.27,-638 193.49,-628.1 190.28,-638.2 197.27,-638"/>
</g>
<!-- py&#45;spy -->
<g id="node8" class="node">
<title>py&#45;spy</title>
<g id="a_node8"><a xlink:href="https://github.com/conda-forge/py-spy-feedstock/pull/11" xlink:title="py spy ❎">
<ellipse fill="#31688e" stroke="black" cx="311" cy="-538" rx="53.5" ry="18"/>
<text text-anchor="middle" x="311" y="-534.3" font-family="Times-Roman" font-size="14.00" fill="white">py spy ❎</text>
</a>
</g>
</g>
<!-- libunwind&#45;&gt;py&#45;spy -->
<g id="edge5" class="edge">
<title>libunwind&#45;&gt;py&#45;spy</title>
<path fill="none" stroke="black" d="M218.77,-664.93C231.95,-655.25 248.04,-642.1 260,-628 276.29,-608.8 290.14,-583.67 299.28,-565.01"/>
<polygon fill="black" stroke="black" points="302.47,-566.44 303.61,-555.91 296.15,-563.43 302.47,-566.44"/>
</g>
<!-- sentencepiece -->
<g id="node9" class="node">
<title>sentencepiece</title>
<g id="a_node9"><a xlink:href="https://github.com/conda-forge/sentencepiece-feedstock" xlink:title="sentencepiece">
<ellipse fill="#fde725" stroke="black" cx="161" cy="-538" rx="78" ry="18"/>
<text text-anchor="middle" x="161" y="-534.3" font-family="Times-Roman" font-size="14.00">sentencepiece</text>
</a>
</g>
</g>
<!-- gperftools&#45;&gt;sentencepiece -->
<g id="edge6" class="edge">
<title>gperftools&#45;&gt;sentencepiece</title>
<path fill="none" stroke="black" d="M185.25,-592.05C181.61,-584.09 177.19,-574.41 173.12,-565.51"/>
<polygon fill="black" stroke="black" points="176.24,-563.91 168.9,-556.28 169.87,-566.83 176.24,-563.91"/>
</g>
<!-- allennlp -->
<g id="node11" class="node">
<title>allennlp</title>
<g id="a_node11"><a xlink:href="https://github.com/conda-forge/allennlp-feedstock" xlink:title="allennlp">
<ellipse fill="#fde725" stroke="black" cx="630" cy="-466" rx="47.5" ry="18"/>
<text text-anchor="middle" x="630" y="-462.3" font-family="Times-Roman" font-size="14.00">allennlp</text>
</a>
</g>
</g>
<!-- sentencepiece&#45;&gt;allennlp -->
<g id="edge21" class="edge">
<title>sentencepiece&#45;&gt;allennlp</title>
<path fill="none" stroke="black" d="M217.54,-525.48C227.67,-523.55 238.13,-521.65 248,-520 364.21,-500.6 501.16,-482.83 575.42,-473.61"/>
<polygon fill="black" stroke="black" points="575.98,-477.07 585.47,-472.37 575.12,-470.12 575.98,-477.07"/>
</g>
<!-- promise -->
<g id="node10" class="node">
<title>promise</title>
<g id="a_node10"><a xlink:href="https://github.com/conda-forge/promise-feedstock/pull/14" xlink:title="promise ❎">
<ellipse fill="#31688e" stroke="black" cx="444" cy="-538" rx="61.19" ry="18"/>
<text text-anchor="middle" x="444" y="-534.3" font-family="Times-Roman" font-size="14.00" fill="white">promise ❎</text>
</a>
</g>
</g>
<!-- promise&#45;&gt;allennlp -->
<g id="edge7" class="edge">
<title>promise&#45;&gt;allennlp</title>
<path fill="none" stroke="black" d="M480.3,-523.34C511.16,-511.73 555.47,-495.05 587.87,-482.85"/>
<polygon fill="black" stroke="black" points="589.39,-486.02 597.52,-479.22 586.93,-479.47 589.39,-486.02"/>
</g>
<!-- pycairo -->
<g id="node12" class="node">
<title>pycairo</title>
<g id="a_node12"><a xlink:href="https://github.com/conda-forge/pycairo-feedstock/pull/23" xlink:title="pycairo ❎">
<ellipse fill="#31688e" stroke="black" cx="450" cy="-206" rx="57.39" ry="18"/>
<text text-anchor="middle" x="450" y="-202.3" font-family="Times-Roman" font-size="14.00" fill="white">pycairo ❎</text>
</a>
</g>
</g>
<!-- pygobject -->
<g id="node13" class="node">
<title>pygobject</title>
<g id="a_node13"><a xlink:href="https://github.com/conda-forge/pygobject-feedstock" xlink:title="pygobject">
<ellipse fill="#fde725" stroke="black" cx="450" cy="-134" rx="56" ry="18"/>
<text text-anchor="middle" x="450" y="-130.3" font-family="Times-Roman" font-size="14.00">pygobject</text>
</a>
</g>
</g>
<!-- pycairo&#45;&gt;pygobject -->
<g id="edge8" class="edge">
<title>pycairo&#45;&gt;pygobject</title>
<path fill="none" stroke="black" d="M450,-187.7C450,-179.98 450,-170.71 450,-162.11"/>
<polygon fill="black" stroke="black" points="453.5,-162.1 450,-152.1 446.5,-162.1 453.5,-162.1"/>
</g>
<!-- pyqt -->
<g id="node14" class="node">
<title>pyqt</title>
<g id="a_node14"><a xlink:href="https://github.com/conda-forge/pyqt-feedstock" xlink:title="pyqt">
<ellipse fill="#fde725" stroke="black" cx="1328" cy="-646" rx="31.4" ry="18"/>
<text text-anchor="middle" x="1328" y="-642.3" font-family="Times-Roman" font-size="14.00">pyqt</text>
</a>
</g>
</g>
<!-- pyqt&#45;&gt;hyperspy -->
<g id="edge9" class="edge">
<title>pyqt&#45;&gt;hyperspy</title>
<path fill="none" stroke="black" d="M1315.13,-629.46C1307.83,-620.65 1298.53,-609.43 1290.27,-599.46"/>
<polygon fill="black" stroke="black" points="1292.72,-596.93 1283.64,-591.47 1287.33,-601.4 1292.72,-596.93"/>
</g>
<!-- pythonocc&#45;core -->
<g id="node15" class="node">
<title>pythonocc&#45;core</title>
<g id="a_node15"><a xlink:href="https://github.com/conda-forge/pythonocc-core-feedstock" xlink:title="pythonocc core">
<ellipse fill="#fde725" stroke="black" cx="1352" cy="-502" rx="82" ry="18"/>
<text text-anchor="middle" x="1352" y="-498.3" font-family="Times-Roman" font-size="14.00">pythonocc core</text>
</a>
</g>
</g>
<!-- pyqt&#45;&gt;pythonocc&#45;core -->
<g id="edge10" class="edge">
<title>pyqt&#45;&gt;pythonocc&#45;core</title>
<path fill="none" stroke="black" d="M1330.89,-627.87C1334.99,-603.67 1342.5,-559.21 1347.37,-530.39"/>
<polygon fill="black" stroke="black" points="1350.88,-530.63 1349.09,-520.19 1343.98,-529.47 1350.88,-530.63"/>
</g>
<!-- qt -->
<g id="node16" class="node">
<title>qt</title>
<g id="a_node16"><a xlink:href="https://github.com/conda-forge/qt-feedstock/pull/184" xlink:title="qt ❎">
<ellipse fill="#31688e" stroke="black" cx="1446" cy="-718" rx="32.5" ry="18"/>
<text text-anchor="middle" x="1446" y="-714.3" font-family="Times-Roman" font-size="14.00" fill="white">qt ❎</text>
</a>
</g>
</g>
<!-- qt&#45;&gt;pyqt -->
<g id="edge11" class="edge">
<title>qt&#45;&gt;pyqt</title>
<path fill="none" stroke="black" d="M1424.63,-704.32C1406,-693.27 1378.78,-677.13 1357.98,-664.78"/>
<polygon fill="black" stroke="black" points="1359.6,-661.67 1349.21,-659.58 1356.02,-667.69 1359.6,-661.67"/>
</g>
<!-- pivy -->
<g id="node17" class="node">
<title>pivy</title>
<g id="a_node17"><a xlink:href="https://github.com/conda-forge/pivy-feedstock" xlink:title="pivy">
<ellipse fill="#fde725" stroke="black" cx="1433" cy="-574" rx="30" ry="18"/>
<text text-anchor="middle" x="1433" y="-570.3" font-family="Times-Roman" font-size="14.00">pivy</text>
</a>
</g>
</g>
<!-- qt&#45;&gt;pivy -->
<g id="edge12" class="edge">
<title>qt&#45;&gt;pivy</title>
<path fill="none" stroke="black" d="M1430.34,-701.9C1421.32,-692.07 1410.83,-678.43 1406,-664 1398.82,-642.56 1407.58,-617.94 1416.98,-600.03"/>
<polygon fill="black" stroke="black" points="1420.3,-601.27 1422.18,-590.84 1414.21,-597.83 1420.3,-601.27"/>
</g>
<!-- pyside2 -->
<g id="node18" class="node">
<title>pyside2</title>
<g id="a_node18"><a xlink:href="https://github.com/conda-forge/pyside2-feedstock" xlink:title="pyside2">
<ellipse fill="#fde725" stroke="black" cx="1542" cy="-646" rx="47" ry="18"/>
<text text-anchor="middle" x="1542" y="-642.3" font-family="Times-Roman" font-size="14.00">pyside2</text>
</a>
</g>
</g>
<!-- qt&#45;&gt;pyside2 -->
<g id="edge13" class="edge">
<title>qt&#45;&gt;pyside2</title>
<path fill="none" stroke="black" d="M1464.97,-703.17C1478.61,-693.22 1497.28,-679.61 1512.81,-668.28"/>
<polygon fill="black" stroke="black" points="1515.06,-670.98 1521.07,-662.26 1510.93,-665.32 1515.06,-670.98"/>
</g>
<!-- soqt -->
<g id="node19" class="node">
<title>soqt</title>
<g id="a_node19"><a xlink:href="https://github.com/conda-forge/soqt-feedstock" xlink:title="soqt">
<ellipse fill="#fde725" stroke="black" cx="1446" cy="-646" rx="30.59" ry="18"/>
<text text-anchor="middle" x="1446" y="-642.3" font-family="Times-Roman" font-size="14.00">soqt</text>
</a>
</g>
</g>
<!-- qt&#45;&gt;soqt -->
<g id="edge14" class="edge">
<title>qt&#45;&gt;soqt</title>
<path fill="none" stroke="black" d="M1446,-699.7C1446,-691.98 1446,-682.71 1446,-674.11"/>
<polygon fill="black" stroke="black" points="1449.5,-674.1 1446,-664.1 1442.5,-674.1 1449.5,-674.1"/>
</g>
<!-- geant4 -->
<g id="node20" class="node">
<title>geant4</title>
<g id="a_node20"><a xlink:href="https://github.com/conda-forge/geant4-feedstock" xlink:title="geant4">
<ellipse fill="#fde725" stroke="black" cx="1664" cy="-574" rx="43.59" ry="18"/>
<text text-anchor="middle" x="1664" y="-570.3" font-family="Times-Roman" font-size="14.00">geant4</text>
</a>
</g>
</g>
<!-- qt&#45;&gt;geant4 -->
<g id="edge15" class="edge">
<title>qt&#45;&gt;geant4</title>
<path fill="none" stroke="black" d="M1476.78,-711.84C1509.4,-705.18 1561.19,-691.07 1598,-664 1620.74,-647.27 1639.1,-620.48 1650.63,-600.65"/>
<polygon fill="black" stroke="black" points="1653.74,-602.26 1655.58,-591.82 1647.63,-598.83 1653.74,-602.26"/>
</g>
<!-- pyside2&#45;&gt;pivy -->
<g id="edge16" class="edge">
<title>pyside2&#45;&gt;pivy</title>
<path fill="none" stroke="black" d="M1518.88,-630.15C1502.17,-619.42 1479.49,-604.86 1461.64,-593.39"/>
<polygon fill="black" stroke="black" points="1463.1,-590.17 1452.79,-587.71 1459.32,-596.06 1463.1,-590.17"/>
</g>
<!-- cctbx&#45;base -->
<g id="node21" class="node">
<title>cctbx&#45;base</title>
<g id="a_node21"><a xlink:href="https://github.com/conda-forge/cctbx-base-feedstock" xlink:title="cctbx base">
<ellipse fill="#fde725" stroke="black" cx="1542" cy="-574" rx="60.5" ry="18"/>
<text text-anchor="middle" x="1542" y="-570.3" font-family="Times-Roman" font-size="14.00">cctbx base</text>
</a>
</g>
</g>
<!-- pyside2&#45;&gt;cctbx&#45;base -->
<g id="edge17" class="edge">
<title>pyside2&#45;&gt;cctbx&#45;base</title>
<path fill="none" stroke="black" d="M1542,-627.7C1542,-619.98 1542,-610.71 1542,-602.11"/>
<polygon fill="black" stroke="black" points="1545.5,-602.1 1542,-592.1 1538.5,-602.1 1545.5,-602.1"/>
</g>
<!-- soqt&#45;&gt;pivy -->
<g id="edge18" class="edge">
<title>soqt&#45;&gt;pivy</title>
<path fill="none" stroke="black" d="M1442.85,-628.05C1441.42,-620.35 1439.69,-611.03 1438.08,-602.36"/>
<polygon fill="black" stroke="black" points="1441.48,-601.47 1436.21,-592.28 1434.59,-602.75 1441.48,-601.47"/>
</g>
<!-- r&#45;sf -->
<g id="node22" class="node">
<title>r&#45;sf</title>
<g id="a_node22"><a xlink:href="https://github.com/conda-forge/r-sf-feedstock/pull/49" xlink:title="r sf ❎">
<ellipse fill="#31688e" stroke="black" cx="1058" cy="-206" rx="38.5" ry="18"/>
<text text-anchor="middle" x="1058" y="-202.3" font-family="Times-Roman" font-size="14.00" fill="white">r sf ❎</text>
</a>
</g>
</g>
<!-- r&#45;spdep -->
<g id="node23" class="node">
<title>r&#45;spdep</title>
<g id="a_node23"><a xlink:href="https://github.com/conda-forge/r-spdep-feedstock" xlink:title="r spdep">
<ellipse fill="#fde725" stroke="black" cx="1058" cy="-134" rx="46.29" ry="18"/>
<text text-anchor="middle" x="1058" y="-130.3" font-family="Times-Roman" font-size="14.00">r spdep</text>
</a>
</g>
</g>
<!-- r&#45;sf&#45;&gt;r&#45;spdep -->
<g id="edge19" class="edge">
<title>r&#45;sf&#45;&gt;r&#45;spdep</title>
<path fill="none" stroke="black" d="M1058,-187.7C1058,-179.98 1058,-170.71 1058,-162.11"/>
<polygon fill="black" stroke="black" points="1061.5,-162.1 1058,-152.1 1054.5,-162.1 1061.5,-162.1"/>
</g>
<!-- torchvision -->
<g id="node24" class="node">
<title>torchvision</title>
<g id="a_node24"><a xlink:href="https://github.com/conda-forge/torchvision-feedstock" xlink:title="torchvision">
<ellipse fill="#fde725" stroke="black" cx="585" cy="-538" rx="61.99" ry="18"/>
<text text-anchor="middle" x="585" y="-534.3" font-family="Times-Roman" font-size="14.00">torchvision</text>
</a>
</g>
</g>
<!-- torchvision&#45;&gt;allennlp -->
<g id="edge20" class="edge">
<title>torchvision&#45;&gt;allennlp</title>
<path fill="none" stroke="black" d="M595.89,-520.05C601.25,-511.71 607.83,-501.49 613.77,-492.25"/>
<polygon fill="black" stroke="black" points="616.74,-494.09 619.21,-483.79 610.86,-490.31 616.74,-494.09"/>
</g>
<!-- fltk -->
<g id="node25" class="node">
<title>fltk</title>
<g id="a_node25"><a xlink:href="https://github.com/conda-forge/fltk-feedstock/pull/7" xlink:title="fltk ❎">
<ellipse fill="#31688e" stroke="black" cx="450" cy="-90" rx="37.89" ry="18"/>
<text text-anchor="middle" x="450" y="-86.3" font-family="Times-Roman" font-size="14.00" fill="white">fltk ❎</text>
</a>
</g>
</g>
<!-- gmsh -->
<g id="node26" class="node">
<title>gmsh</title>
<g id="a_node26"><a xlink:href="https://github.com/conda-forge/gmsh-feedstock" xlink:title="gmsh">
<ellipse fill="#fde725" stroke="black" cx="450" cy="-18" rx="36.5" ry="18"/>
<text text-anchor="middle" x="450" y="-14.3" font-family="Times-Roman" font-size="14.00">gmsh</text>
</a>
</g>
</g>
<!-- fltk&#45;&gt;gmsh -->
<g id="edge22" class="edge">
<title>fltk&#45;&gt;gmsh</title>
<path fill="none" stroke="black" d="M450,-71.7C450,-63.98 450,-54.71 450,-46.11"/>
<polygon fill="black" stroke="black" points="453.5,-46.1 450,-36.1 446.5,-46.1 453.5,-46.1"/>
</g>
<!-- shortuuid -->
<g id="node27" class="node">
<title>shortuuid</title>
<g id="a_node27"><a xlink:href="https://github.com/conda-forge/shortuuid-feedstock/pull/11" xlink:title="shortuuid ✓">
<ellipse fill="#31688e" stroke="black" cx="734" cy="-610" rx="65.79" ry="18"/>
<text text-anchor="middle" x="734" y="-606.3" font-family="Times-Roman" font-size="14.00" fill="white">shortuuid ✓</text>
</a>
</g>
</g>
<!-- shortuuid&#45;&gt;allennlp -->
<g id="edge23" class="edge">
<title>shortuuid&#45;&gt;allennlp</title>
<path fill="none" stroke="black" d="M722.93,-591.98C711,-573.86 691.26,-544.47 673,-520 665.84,-510.4 657.63,-500.12 650.32,-491.2"/>
<polygon fill="black" stroke="black" points="652.97,-488.92 643.91,-483.44 647.58,-493.38 652.97,-488.92"/>
</g>
<!-- grpcio&#45;gcp -->
<g id="node30" class="node">
<title>grpcio&#45;gcp</title>
<g id="a_node30"><a xlink:href="https://github.com/conda-forge/grpcio-gcp-feedstock/pull/9" xlink:title="grpcio gcp ❎">
<ellipse fill="#31688e" stroke="black" cx="1058" cy="-754" rx="71.5" ry="18"/>
<text text-anchor="middle" x="1058" y="-750.3" font-family="Times-Roman" font-size="14.00" fill="white">grpcio gcp ❎</text>
</a>
</g>
</g>
<!-- r&#45;grf&#45;&gt;grpcio&#45;gcp -->
<!-- pytorch&#45;cpu -->
<g id="node29" class="node">
<title>pytorch&#45;cpu</title>
<g id="a_node29"><a xlink:href="https://github.com/conda-forge/pytorch-cpu-feedstock" xlink:title="pytorch cpu">
<ellipse fill="#fde725" stroke="black" cx="585" cy="-610" rx="65.79" ry="18"/>
<text text-anchor="middle" x="585" y="-606.3" font-family="Times-Roman" font-size="14.00">pytorch cpu</text>
</a>
</g>
</g>
<!-- pytorch&#45;cpu&#45;&gt;allennlp -->
<g id="edge25" class="edge">
<title>pytorch&#45;cpu&#45;&gt;allennlp</title>
<path fill="none" stroke="black" d="M616.82,-593.99C631.61,-585.18 647.73,-572.5 656,-556 666.18,-535.69 657.23,-510.72 647.15,-492.4"/>
<polygon fill="black" stroke="black" points="650.14,-490.57 642.03,-483.74 644.11,-494.13 650.14,-490.57"/>
</g>
<!-- pytorch&#45;cpu&#45;&gt;torchvision -->
<g id="edge26" class="edge">
<title>pytorch&#45;cpu&#45;&gt;torchvision</title>
<path fill="none" stroke="black" d="M585,-591.7C585,-583.98 585,-574.71 585,-566.11"/>
<polygon fill="black" stroke="black" points="588.5,-566.1 585,-556.1 581.5,-566.1 588.5,-566.1"/>
</g>
<!-- ibm_db -->
<g id="node31" class="node">
<title>ibm_db</title>
<g id="a_node31"><a xlink:href="https://github.com/conda-forge/ibm_db-feedstock/pull/27" xlink:title="ibm_db ❎">
<ellipse fill="#31688e" stroke="black" cx="1058" cy="-682" rx="57.39" ry="18"/>
<text text-anchor="middle" x="1058" y="-678.3" font-family="Times-Roman" font-size="14.00" fill="white">ibm_db ❎</text>
</a>
</g>
</g>
<!-- grpcio&#45;gcp&#45;&gt;ibm_db -->
<!-- nvcc -->
<g id="node32" class="node">
<title>nvcc</title>
<g id="a_node32"><a xlink:href="https://github.com/conda-forge/nvcc-feedstock/pull/62" xlink:title="nvcc ✓">
<ellipse fill="#31688e" stroke="black" cx="1058" cy="-610" rx="42.49" ry="18"/>
<text text-anchor="middle" x="1058" y="-606.3" font-family="Times-Roman" font-size="14.00" fill="white">nvcc ✓</text>
</a>
</g>
</g>
<!-- ibm_db&#45;&gt;nvcc -->
<!-- proj -->
<g id="node38" class="node">
<title>proj</title>
<g id="a_node38"><a xlink:href="https://github.com/conda-forge/proj-feedstock" xlink:title="proj">
<ellipse fill="#35b779" stroke="black" cx="1058" cy="-538" rx="28.7" ry="18"/>
<text text-anchor="middle" x="1058" y="-534.3" font-family="Times-Roman" font-size="14.00">proj</text>
</a>
</g>
</g>
<!-- nvcc&#45;&gt;proj -->
<!-- cudatoolkit -->
<g id="node33" class="node">
<title>cudatoolkit</title>
<g id="a_node33"><a xlink:href="https://github.com/conda-forge/cudatoolkit-feedstock/pull/4" xlink:title="cudatoolkit ❎">
<ellipse fill="#31688e" stroke="black" cx="460" cy="-754" rx="74.19" ry="18"/>
<text text-anchor="middle" x="460" y="-750.3" font-family="Times-Roman" font-size="14.00" fill="white">cudatoolkit ❎</text>
</a>
</g>
</g>
<!-- cudnn -->
<g id="node34" class="node">
<title>cudnn</title>
<g id="a_node34"><a xlink:href="https://github.com/conda-forge/cudnn-feedstock" xlink:title="cudnn">
<ellipse fill="#fde725" stroke="black" cx="405" cy="-682" rx="39" ry="18"/>
<text text-anchor="middle" x="405" y="-678.3" font-family="Times-Roman" font-size="14.00">cudnn</text>
</a>
</g>
</g>
<!-- cudatoolkit&#45;&gt;cudnn -->
<g id="edge30" class="edge">
<title>cudatoolkit&#45;&gt;cudnn</title>
<path fill="none" stroke="black" d="M446.69,-736.05C439.9,-727.42 431.53,-716.76 424.07,-707.27"/>
<polygon fill="black" stroke="black" points="426.74,-705.01 417.81,-699.31 421.24,-709.33 426.74,-705.01"/>
</g>
<!-- cutensor -->
<g id="node35" class="node">
<title>cutensor</title>
<g id="a_node35"><a xlink:href="https://github.com/conda-forge/cutensor-feedstock" xlink:title="cutensor">
<ellipse fill="#fde725" stroke="black" cx="514" cy="-682" rx="51.5" ry="18"/>
<text text-anchor="middle" x="514" y="-678.3" font-family="Times-Roman" font-size="14.00">cutensor</text>
</a>
</g>
</g>
<!-- cudatoolkit&#45;&gt;cutensor -->
<g id="edge31" class="edge">
<title>cudatoolkit&#45;&gt;cutensor</title>
<path fill="none" stroke="black" d="M473.07,-736.05C479.57,-727.63 487.56,-717.28 494.74,-707.97"/>
<polygon fill="black" stroke="black" points="497.71,-709.84 501.05,-699.79 492.17,-705.57 497.71,-709.84"/>
</g>
<!-- cudnn&#45;&gt;torchvision -->
<g id="edge32" class="edge">
<title>cudnn&#45;&gt;torchvision</title>
<path fill="none" stroke="black" d="M422.08,-665.72C442.54,-647.6 478.07,-616.73 510,-592 523.85,-581.27 539.64,-569.98 553.14,-560.59"/>
<polygon fill="black" stroke="black" points="555.4,-563.28 561.64,-554.72 551.42,-557.52 555.4,-563.28"/>
</g>
<!-- cudnn&#45;&gt;pytorch&#45;cpu -->
<g id="edge33" class="edge">
<title>cudnn&#45;&gt;pytorch&#45;cpu</title>
<path fill="none" stroke="black" d="M433.92,-669.75C462.32,-658.71 506.09,-641.69 539.22,-628.8"/>
<polygon fill="black" stroke="black" points="540.64,-632.01 548.69,-625.12 538.1,-625.48 540.64,-632.01"/>
</g>
<!-- libv8 -->
<g id="node36" class="node">
<title>libv8</title>
<g id="a_node36"><a xlink:href="https://github.com/conda-forge/libv8-feedstock/pull/64" xlink:title="libv8 ❎">
<ellipse fill="#31688e" stroke="black" cx="1462" cy="-206" rx="45" ry="18"/>
<text text-anchor="middle" x="1462" y="-202.3" font-family="Times-Roman" font-size="14.00" fill="white">libv8 ❎</text>
</a>
</g>
</g>
<!-- r&#45;v8 -->
<g id="node37" class="node">
<title>r&#45;v8</title>
<g id="a_node37"><a xlink:href="https://github.com/conda-forge/r-v8-feedstock" xlink:title="r v8">
<ellipse fill="#fde725" stroke="black" cx="1462" cy="-134" rx="28.7" ry="18"/>
<text text-anchor="middle" x="1462" y="-130.3" font-family="Times-Roman" font-size="14.00">r v8</text>
</a>
</g>
</g>
<!-- libv8&#45;&gt;r&#45;v8 -->
<g id="edge34" class="edge">
<title>libv8&#45;&gt;r&#45;v8</title>
<path fill="none" stroke="black" d="M1462,-187.7C1462,-179.98 1462,-170.71 1462,-162.11"/>
<polygon fill="black" stroke="black" points="1465.5,-162.1 1462,-152.1 1458.5,-162.1 1465.5,-162.1"/>
</g>
<!-- jaeger -->
<g id="node39" class="node">
<title>jaeger</title>
<g id="a_node39"><a xlink:href="https://github.com/conda-forge/jaeger-feedstock/pull/12" xlink:title="jaeger ❎">
<ellipse fill="#31688e" stroke="black" cx="1058" cy="-466" rx="52.79" ry="18"/>
<text text-anchor="middle" x="1058" y="-462.3" font-family="Times-Roman" font-size="14.00" fill="white">jaeger ❎</text>
</a>
</g>
</g>
<!-- proj&#45;&gt;jaeger -->
<!-- ompl -->
<g id="node41" class="node">
<title>ompl</title>
<g id="a_node41"><a xlink:href="https://github.com/conda-forge/ompl-feedstock/pull/11" xlink:title="ompl ✓">
<ellipse fill="#31688e" stroke="black" cx="1058" cy="-394" rx="45" ry="18"/>
<text text-anchor="middle" x="1058" y="-390.3" font-family="Times-Roman" font-size="14.00" fill="white">ompl ✓</text>
</a>
</g>
</g>
<!-- jaeger&#45;&gt;ompl -->
<!-- nccl -->
<g id="node40" class="node">
<title>nccl</title>
<g id="a_node40"><a xlink:href="https://github.com/conda-forge/nccl-feedstock/pull/35" xlink:title="nccl ✓">
<ellipse fill="#31688e" stroke="black" cx="623" cy="-682" rx="39.79" ry="18"/>
<text text-anchor="middle" x="623" y="-678.3" font-family="Times-Roman" font-size="14.00" fill="white">nccl ✓</text>
</a>
</g>
</g>
<!-- nccl&#45;&gt;pytorch&#45;cpu -->
<g id="edge37" class="edge">
<title>nccl&#45;&gt;pytorch&#45;cpu</title>
<path fill="none" stroke="black" d="M613.99,-664.41C609.52,-656.16 604,-646.01 598.99,-636.78"/>
<polygon fill="black" stroke="black" points="602.05,-635.07 594.2,-627.96 595.9,-638.41 602.05,-635.07"/>
</g>
<!-- dm&#45;tree -->
<g id="node42" class="node">
<title>dm&#45;tree</title>
<g id="a_node42"><a xlink:href="https://github.com/conda-forge/dm-tree-feedstock/pull/4" xlink:title="dm tree ❎">
<ellipse fill="#31688e" stroke="black" cx="1058" cy="-322" rx="60" ry="18"/>
<text text-anchor="middle" x="1058" y="-318.3" font-family="Times-Roman" font-size="14.00" fill="white">dm tree ❎</text>
</a>
</g>
</g>
<!-- ompl&#45;&gt;dm&#45;tree -->
<!-- pyrfr -->
<g id="node44" class="node">
<title>pyrfr</title>
<g id="a_node44"><a xlink:href="https://github.com/conda-forge/pyrfr-feedstock/pull/11" xlink:title="pyrfr ❎">
<ellipse fill="#31688e" stroke="black" cx="1058" cy="-250" rx="45.5" ry="18"/>
<text text-anchor="middle" x="1058" y="-246.3" font-family="Times-Roman" font-size="14.00" fill="white">pyrfr ❎</text>
</a>
</g>
</g>
<!-- dm&#45;tree&#45;&gt;pyrfr -->
<!-- tokenizers -->
<g id="node43" class="node">
<title>tokenizers</title>
<g id="a_node43"><a xlink:href="https://github.com/conda-forge/tokenizers-feedstock/pull/18" xlink:title="tokenizers ❎">
<ellipse fill="#31688e" stroke="black" cx="828" cy="-682" rx="71" ry="18"/>
<text text-anchor="middle" x="828" y="-678.3" font-family="Times-Roman" font-size="14.00" fill="white">tokenizers ❎</text>
</a>
</g>
</g>
<!-- tokenizers&#45;&gt;allennlp -->
<g id="edge40" class="edge">
<title>tokenizers&#45;&gt;allennlp</title>
<path fill="none" stroke="black" d="M827.98,-663.84C827.18,-644.79 823.5,-613.85 809,-592 774.88,-540.57 711.76,-504 670.32,-484.19"/>
<polygon fill="black" stroke="black" points="671.6,-480.92 661.06,-479.86 668.64,-487.26 671.6,-480.92"/>
</g>
<!-- magma -->
<g id="node45" class="node">
<title>magma</title>
<g id="a_node45"><a xlink:href="https://github.com/conda-forge/magma-feedstock/pull/9" xlink:title="magma ✓">
<ellipse fill="#31688e" stroke="black" cx="691" cy="-754" rx="58" ry="18"/>
<text text-anchor="middle" x="691" y="-750.3" font-family="Times-Roman" font-size="14.00" fill="white">magma ✓</text>
</a>
</g>
</g>
<!-- magma&#45;&gt;pytorch&#45;cpu -->
<g id="edge42" class="edge">
<title>magma&#45;&gt;pytorch&#45;cpu</title>
<path fill="none" stroke="black" d="M691.23,-735.67C690.66,-716.46 687.17,-685.39 672,-664 661.65,-649.41 645.9,-638.07 630.63,-629.7"/>
<polygon fill="black" stroke="black" points="632.23,-626.59 621.74,-625.11 629.01,-632.81 632.23,-626.59"/>
</g>
<!-- onednn -->
<g id="node46" class="node">
<title>onednn</title>
<g id="a_node46"><a xlink:href="https://github.com/conda-forge/onednn-feedstock/pull/2" xlink:title="onednn ❎">
<ellipse fill="#31688e" stroke="black" cx="1058" cy="-54" rx="58" ry="18"/>
<text text-anchor="middle" x="1058" y="-50.3" font-family="Times-Roman" font-size="14.00" fill="white">onednn ❎</text>
</a>
</g>
</g>
</g>
</svg>
