<?xml version="1.0" encoding="UTF-8" standalone="no"?>
<!DOCTYPE svg PUBLIC "-//W3C//DTD SVG 1.1//EN"
 "http://www.w3.org/Graphics/SVG/1.1/DTD/svg11.dtd">
<!-- Generated by graphviz version 2.42.3 (20191010.1750)
 -->
<!-- Title: %3 Pages: 1 -->
<svg width="2002pt" height="852pt"
 viewBox="0.00 0.00 2002.25 852.00" xmlns="http://www.w3.org/2000/svg" xmlns:xlink="http://www.w3.org/1999/xlink">
<g id="graph0" class="graph" transform="scale(1 1) rotate(0) translate(4 848)">
<title>%3</title>
<polygon fill="white" stroke="transparent" points="-4,4 -4,-848 1998.25,-848 1998.25,4 -4,4"/>
<!-- aiohttp -->
<g id="node1" class="node">
<title>aiohttp</title>
<g id="a_node1"><a xlink:href="https://github.com/conda-forge/aiohttp-feedstock" xlink:title="aiohttp">
<ellipse fill="#fde725" stroke="black" cx="655" cy="-646" rx="35.19" ry="18"/>
<text text-anchor="middle" x="655" y="-642.3" font-family="Times,serif" font-size="14.00">aiohttp</text>
</a>
</g>
</g>
<!-- black -->
<g id="node2" class="node">
<title>black</title>
<g id="a_node2"><a xlink:href="https://github.com/conda-forge/black-feedstock" xlink:title="black">
<ellipse fill="#fde725" stroke="black" cx="655" cy="-574" rx="30" ry="18"/>
<text text-anchor="middle" x="655" y="-570.3" font-family="Times,serif" font-size="14.00">black</text>
</a>
</g>
</g>
<!-- aiohttp&#45;&gt;black -->
<g id="edge1" class="edge">
<title>aiohttp&#45;&gt;black</title>
<path fill="none" stroke="black" d="M649.12,-628.05C648.29,-620.23 648.05,-610.75 648.41,-601.98"/>
<polygon fill="black" stroke="black" points="651.92,-602.01 649.14,-591.79 644.93,-601.51 651.92,-602.01"/>
</g>
<!-- black&#45;&gt;aiohttp -->
<g id="edge2" class="edge">
<title>black&#45;&gt;aiohttp</title>
<path fill="none" stroke="black" d="M660.86,-591.79C661.7,-599.59 661.94,-609.07 661.6,-617.85"/>
<polygon fill="black" stroke="black" points="658.09,-617.83 660.88,-628.05 665.07,-618.33 658.09,-617.83"/>
</g>
<!-- hyperspy -->
<g id="node3" class="node">
<title>hyperspy</title>
<g id="a_node3"><a xlink:href="https://github.com/conda-forge/hyperspy-feedstock" xlink:title="hyperspy">
<ellipse fill="#fde725" stroke="black" cx="479" cy="-502" rx="43" ry="18"/>
<text text-anchor="middle" x="479" y="-498.3" font-family="Times,serif" font-size="14.00">hyperspy</text>
</a>
</g>
</g>
<!-- black&#45;&gt;hyperspy -->
<g id="edge3" class="edge">
<title>black&#45;&gt;hyperspy</title>
<path fill="none" stroke="black" d="M630.53,-563.27C601.64,-551.78 553.21,-532.51 518.88,-518.86"/>
<polygon fill="black" stroke="black" points="519.74,-515.44 509.16,-514.99 517.15,-521.94 519.74,-515.44"/>
</g>
<!-- jupyter -->
<g id="node4" class="node">
<title>jupyter</title>
<g id="a_node4"><a xlink:href="https://github.com/conda-forge/jupyter-feedstock" xlink:title="jupyter">
<ellipse fill="#fde725" stroke="black" cx="770" cy="-502" rx="36" ry="18"/>
<text text-anchor="middle" x="770" y="-498.3" font-family="Times,serif" font-size="14.00">jupyter</text>
</a>
</g>
</g>
<!-- black&#45;&gt;jupyter -->
<g id="edge4" class="edge">
<title>black&#45;&gt;jupyter</title>
<path fill="none" stroke="black" d="M675.29,-560.65C693.04,-549.84 719.08,-533.99 739.37,-521.65"/>
<polygon fill="black" stroke="black" points="741.23,-524.61 747.95,-516.42 737.59,-518.63 741.23,-524.61"/>
</g>
<!-- nbgrader -->
<g id="node5" class="node">
<title>nbgrader</title>
<g id="a_node5"><a xlink:href="https://github.com/conda-forge/nbgrader-feedstock" xlink:title="nbgrader">
<ellipse fill="#fde725" stroke="black" cx="754" cy="-430" rx="42.49" ry="18"/>
<text text-anchor="middle" x="754" y="-426.3" font-family="Times,serif" font-size="14.00">nbgrader</text>
</a>
</g>
</g>
<!-- black&#45;&gt;nbgrader -->
<g id="edge5" class="edge">
<title>black&#45;&gt;nbgrader</title>
<path fill="none" stroke="black" d="M666.16,-556.99C683.3,-532.4 716.24,-485.16 736.55,-456.03"/>
<polygon fill="black" stroke="black" points="739.57,-457.82 742.42,-447.61 733.83,-453.81 739.57,-457.82"/>
</g>
<!-- jupyter_server -->
<g id="node6" class="node">
<title>jupyter_server</title>
<g id="a_node6"><a xlink:href="https://github.com/conda-forge/jupyter_server-feedstock" xlink:title="jupyter_server">
<ellipse fill="#fde725" stroke="black" cx="550" cy="-358" rx="61.99" ry="18"/>
<text text-anchor="middle" x="550" y="-354.3" font-family="Times,serif" font-size="14.00">jupyter_server</text>
</a>
</g>
</g>
<!-- black&#45;&gt;jupyter_server -->
<g id="edge6" class="edge">
<title>black&#45;&gt;jupyter_server</title>
<path fill="none" stroke="black" d="M641.4,-557.63C622.26,-535.17 587.64,-491.31 569,-448 560.48,-428.2 555.64,-404.22 552.98,-386.14"/>
<polygon fill="black" stroke="black" points="556.42,-385.45 551.63,-376 549.48,-386.38 556.42,-385.45"/>
</g>
<!-- pytorch&#45;cpu -->
<g id="node7" class="node">
<title>pytorch&#45;cpu</title>
<g id="a_node7"><a xlink:href="https://github.com/conda-forge/pytorch-cpu-feedstock" xlink:title="pytorch cpu">
<ellipse fill="#fde725" stroke="black" cx="876" cy="-502" rx="52.79" ry="18"/>
<text text-anchor="middle" x="876" y="-498.3" font-family="Times,serif" font-size="14.00">pytorch cpu</text>
</a>
</g>
</g>
<!-- black&#45;&gt;pytorch&#45;cpu -->
<g id="edge7" class="edge">
<title>black&#45;&gt;pytorch&#45;cpu</title>
<path fill="none" stroke="black" d="M681.22,-564.7C717.65,-553.16 784.17,-532.09 829.22,-517.82"/>
<polygon fill="black" stroke="black" points="830.3,-521.15 838.77,-514.79 828.18,-514.47 830.3,-521.15"/>
</g>
<!-- anyio -->
<g id="node8" class="node">
<title>anyio</title>
<g id="a_node8"><a xlink:href="https://github.com/conda-forge/anyio-feedstock" xlink:title="anyio">
<ellipse fill="#fde725" stroke="black" cx="609" cy="-430" rx="30.59" ry="18"/>
<text text-anchor="middle" x="609" y="-426.3" font-family="Times,serif" font-size="14.00">anyio</text>
</a>
</g>
</g>
<!-- black&#45;&gt;anyio -->
<g id="edge8" class="edge">
<title>black&#45;&gt;anyio</title>
<path fill="none" stroke="black" d="M649.54,-556.15C641.66,-531.81 627,-486.57 617.64,-457.67"/>
<polygon fill="black" stroke="black" points="620.86,-456.26 614.45,-447.82 614.2,-458.42 620.86,-456.26"/>
</g>
<!-- dm&#45;tree -->
<g id="node9" class="node">
<title>dm&#45;tree</title>
<g id="a_node9"><a xlink:href="https://github.com/conda-forge/dm-tree-feedstock" xlink:title="dm tree">
<ellipse fill="#fde725" stroke="black" cx="668" cy="-358" rx="38.5" ry="18"/>
<text text-anchor="middle" x="668" y="-354.3" font-family="Times,serif" font-size="14.00">dm tree</text>
</a>
</g>
</g>
<!-- black&#45;&gt;dm&#45;tree -->
<g id="edge9" class="edge">
<title>black&#45;&gt;dm&#45;tree</title>
<path fill="none" stroke="black" d="M656.04,-555.85C658.29,-518.83 663.62,-431.18 666.34,-386.39"/>
<polygon fill="black" stroke="black" points="669.84,-386.43 666.95,-376.23 662.85,-386 669.84,-386.43"/>
</g>
<!-- jupyter&#45;&gt;nbgrader -->
<g id="edge18" class="edge">
<title>jupyter&#45;&gt;nbgrader</title>
<path fill="none" stroke="black" d="M766.13,-484.05C764.35,-476.26 762.19,-466.82 760.19,-458.08"/>
<polygon fill="black" stroke="black" points="763.59,-457.24 757.95,-448.28 756.76,-458.8 763.59,-457.24"/>
</g>
<!-- allennlp -->
<g id="node19" class="node">
<title>allennlp</title>
<g id="a_node19"><a xlink:href="https://github.com/conda-forge/allennlp-feedstock" xlink:title="allennlp">
<ellipse fill="#fde725" stroke="black" cx="973" cy="-430" rx="39" ry="18"/>
<text text-anchor="middle" x="973" y="-426.3" font-family="Times,serif" font-size="14.00">allennlp</text>
</a>
</g>
</g>
<!-- jupyter&#45;&gt;allennlp -->
<g id="edge19" class="edge">
<title>jupyter&#45;&gt;allennlp</title>
<path fill="none" stroke="black" d="M797.39,-490.19C802.87,-488.09 808.61,-485.94 814,-484 853.95,-469.63 900.01,-454.43 932.24,-444"/>
<polygon fill="black" stroke="black" points="933.33,-447.33 941.77,-440.93 931.18,-440.67 933.33,-447.33"/>
</g>
<!-- pytorch&#45;cpu&#45;&gt;allennlp -->
<g id="edge42" class="edge">
<title>pytorch&#45;cpu&#45;&gt;allennlp</title>
<path fill="none" stroke="black" d="M897.53,-485.46C911.34,-475.5 929.43,-462.44 944.43,-451.61"/>
<polygon fill="black" stroke="black" points="946.8,-454.23 952.86,-445.54 942.7,-448.55 946.8,-454.23"/>
</g>
<!-- anyio&#45;&gt;jupyter_server -->
<g id="edge43" class="edge">
<title>anyio&#45;&gt;jupyter_server</title>
<path fill="none" stroke="black" d="M595.91,-413.46C588.59,-404.78 579.29,-393.75 570.98,-383.89"/>
<polygon fill="black" stroke="black" points="573.42,-381.35 564.3,-375.96 568.06,-385.86 573.42,-381.35"/>
</g>
<!-- elfutils -->
<g id="node10" class="node">
<title>elfutils</title>
<g id="a_node10"><a xlink:href="https://github.com/conda-forge/elfutils-feedstock/pull/20" xlink:title="elfutils ❎">
<ellipse fill="#31688e" stroke="black" cx="1423" cy="-646" rx="47" ry="18"/>
<text text-anchor="middle" x="1423" y="-642.3" font-family="Times,serif" font-size="14.00" fill="white">elfutils ❎</text>
</a>
</g>
</g>
<!-- heaptrack -->
<g id="node11" class="node">
<title>heaptrack</title>
<g id="a_node11"><a xlink:href="https://github.com/conda-forge/heaptrack-feedstock" xlink:title="heaptrack">
<ellipse fill="#fde725" stroke="black" cx="1411" cy="-574" rx="45" ry="18"/>
<text text-anchor="middle" x="1411" y="-570.3" font-family="Times,serif" font-size="14.00">heaptrack</text>
</a>
</g>
</g>
<!-- elfutils&#45;&gt;heaptrack -->
<g id="edge10" class="edge">
<title>elfutils&#45;&gt;heaptrack</title>
<path fill="none" stroke="black" d="M1420.03,-627.7C1418.71,-619.98 1417.12,-610.71 1415.65,-602.11"/>
<polygon fill="black" stroke="black" points="1419.07,-601.37 1413.93,-592.1 1412.17,-602.55 1419.07,-601.37"/>
</g>
<!-- fastparquet -->
<g id="node12" class="node">
<title>fastparquet</title>
<g id="a_node12"><a xlink:href="https://github.com/conda-forge/fastparquet-feedstock" xlink:title="fastparquet">
<ellipse fill="#fde725" stroke="black" cx="1548" cy="-134" rx="50.09" ry="18"/>
<text text-anchor="middle" x="1548" y="-130.3" font-family="Times,serif" font-size="14.00">fastparquet</text>
</a>
</g>
</g>
<!-- gdal -->
<g id="node13" class="node">
<title>gdal</title>
<g id="a_node13"><a xlink:href="https://github.com/conda-forge/gdal-feedstock" xlink:title="gdal">
<ellipse fill="#fde725" stroke="black" cx="1800" cy="-538" rx="27" ry="18"/>
<text text-anchor="middle" x="1800" y="-534.3" font-family="Times,serif" font-size="14.00">gdal</text>
</a>
</g>
</g>
<!-- kealib -->
<g id="node14" class="node">
<title>kealib</title>
<g id="a_node14"><a xlink:href="https://github.com/conda-forge/kealib-feedstock" xlink:title="kealib">
<ellipse fill="#fde725" stroke="black" cx="1800" cy="-466" rx="32.5" ry="18"/>
<text text-anchor="middle" x="1800" y="-462.3" font-family="Times,serif" font-size="14.00">kealib</text>
</a>
</g>
</g>
<!-- gdal&#45;&gt;kealib -->
<g id="edge11" class="edge">
<title>gdal&#45;&gt;kealib</title>
<path fill="none" stroke="black" d="M1794.16,-520.41C1793.3,-512.51 1793.05,-502.85 1793.41,-493.94"/>
<polygon fill="black" stroke="black" points="1796.9,-494.18 1794.12,-483.96 1789.92,-493.68 1796.9,-494.18"/>
</g>
<!-- r&#45;sf -->
<g id="node15" class="node">
<title>r&#45;sf</title>
<g id="a_node15"><a xlink:href="https://github.com/conda-forge/r-sf-feedstock" xlink:title="r sf">
<ellipse fill="#fde725" stroke="black" cx="1721" cy="-466" rx="27" ry="18"/>
<text text-anchor="middle" x="1721" y="-462.3" font-family="Times,serif" font-size="14.00">r sf</text>
</a>
</g>
</g>
<!-- gdal&#45;&gt;r&#45;sf -->
<g id="edge12" class="edge">
<title>gdal&#45;&gt;r&#45;sf</title>
<path fill="none" stroke="black" d="M1784.39,-523.17C1772.92,-513.01 1757.15,-499.03 1744.21,-487.56"/>
<polygon fill="black" stroke="black" points="1746.38,-484.81 1736.58,-480.8 1741.74,-490.05 1746.38,-484.81"/>
</g>
<!-- kealib&#45;&gt;gdal -->
<g id="edge13" class="edge">
<title>kealib&#45;&gt;gdal</title>
<path fill="none" stroke="black" d="M1805.88,-483.96C1806.71,-491.83 1806.95,-501.37 1806.58,-510.19"/>
<polygon fill="black" stroke="black" points="1803.07,-510.18 1805.84,-520.41 1810.06,-510.69 1803.07,-510.18"/>
</g>
<!-- r&#45;spdep -->
<g id="node16" class="node">
<title>r&#45;spdep</title>
<g id="a_node16"><a xlink:href="https://github.com/conda-forge/r-spdep-feedstock" xlink:title="r spdep">
<ellipse fill="#fde725" stroke="black" cx="1721" cy="-394" rx="36.5" ry="18"/>
<text text-anchor="middle" x="1721" y="-390.3" font-family="Times,serif" font-size="14.00">r spdep</text>
</a>
</g>
</g>
<!-- r&#45;sf&#45;&gt;r&#45;spdep -->
<g id="edge14" class="edge">
<title>r&#45;sf&#45;&gt;r&#45;spdep</title>
<path fill="none" stroke="black" d="M1721,-447.7C1721,-439.98 1721,-430.71 1721,-422.11"/>
<polygon fill="black" stroke="black" points="1724.5,-422.1 1721,-412.1 1717.5,-422.1 1724.5,-422.1"/>
</g>
<!-- geos -->
<g id="node17" class="node">
<title>geos</title>
<g id="a_node17"><a xlink:href="https://github.com/conda-forge/geos-feedstock/pull/47" xlink:title="geos ❎">
<ellipse fill="#31688e" stroke="black" cx="1800" cy="-682" rx="38.5" ry="18"/>
<text text-anchor="middle" x="1800" y="-678.3" font-family="Times,serif" font-size="14.00" fill="white">geos ❎</text>
</a>
</g>
</g>
<!-- geos&#45;&gt;gdal -->
<g id="edge15" class="edge">
<title>geos&#45;&gt;gdal</title>
<path fill="none" stroke="black" d="M1791.5,-664.31C1786.79,-654.11 1781.41,-640.64 1779,-628 1776,-612.28 1776,-607.72 1779,-592 1780.76,-582.78 1784.1,-573.11 1787.61,-564.6"/>
<polygon fill="black" stroke="black" points="1790.91,-565.79 1791.72,-555.23 1784.49,-562.98 1790.91,-565.79"/>
</g>
<!-- libspatialite -->
<g id="node18" class="node">
<title>libspatialite</title>
<g id="a_node18"><a xlink:href="https://github.com/conda-forge/libspatialite-feedstock" xlink:title="libspatialite">
<ellipse fill="#fde725" stroke="black" cx="1840" cy="-610" rx="52" ry="18"/>
<text text-anchor="middle" x="1840" y="-606.3" font-family="Times,serif" font-size="14.00">libspatialite</text>
</a>
</g>
</g>
<!-- geos&#45;&gt;libspatialite -->
<g id="edge16" class="edge">
<title>geos&#45;&gt;libspatialite</title>
<path fill="none" stroke="black" d="M1809.48,-664.41C1814.19,-656.16 1819.99,-646.01 1825.27,-636.78"/>
<polygon fill="black" stroke="black" points="1828.39,-638.38 1830.31,-627.96 1822.31,-634.9 1828.39,-638.38"/>
</g>
<!-- libspatialite&#45;&gt;gdal -->
<g id="edge17" class="edge">
<title>libspatialite&#45;&gt;gdal</title>
<path fill="none" stroke="black" d="M1830.32,-592.05C1825.53,-583.68 1819.66,-573.4 1814.36,-564.13"/>
<polygon fill="black" stroke="black" points="1817.32,-562.25 1809.32,-555.31 1811.24,-565.73 1817.32,-562.25"/>
</g>
<!-- libunwind -->
<g id="node20" class="node">
<title>libunwind</title>
<g id="a_node20"><a xlink:href="https://github.com/conda-forge/libunwind-feedstock/pull/14" xlink:title="libunwind ❎">
<ellipse fill="#31688e" stroke="black" cx="1300" cy="-646" rx="58" ry="18"/>
<text text-anchor="middle" x="1300" y="-642.3" font-family="Times,serif" font-size="14.00" fill="white">libunwind ❎</text>
</a>
</g>
</g>
<!-- libunwind&#45;&gt;heaptrack -->
<g id="edge20" class="edge">
<title>libunwind&#45;&gt;heaptrack</title>
<path fill="none" stroke="black" d="M1324.36,-629.64C1340.45,-619.49 1361.69,-606.1 1379.12,-595.11"/>
<polygon fill="black" stroke="black" points="1381.24,-597.9 1387.84,-589.61 1377.51,-591.98 1381.24,-597.9"/>
</g>
<!-- gperftools -->
<g id="node21" class="node">
<title>gperftools</title>
<g id="a_node21"><a xlink:href="https://github.com/conda-forge/gperftools-feedstock" xlink:title="gperftools">
<ellipse fill="#fde725" stroke="black" cx="1214" cy="-574" rx="46.29" ry="18"/>
<text text-anchor="middle" x="1214" y="-570.3" font-family="Times,serif" font-size="14.00">gperftools</text>
</a>
</g>
</g>
<!-- libunwind&#45;&gt;gperftools -->
<g id="edge21" class="edge">
<title>libunwind&#45;&gt;gperftools</title>
<path fill="none" stroke="black" d="M1280.05,-628.76C1268.41,-619.29 1253.57,-607.21 1240.91,-596.9"/>
<polygon fill="black" stroke="black" points="1242.92,-594.03 1232.95,-590.43 1238.5,-599.45 1242.92,-594.03"/>
</g>
<!-- py&#45;spy -->
<g id="node22" class="node">
<title>py&#45;spy</title>
<g id="a_node22"><a xlink:href="https://github.com/conda-forge/py-spy-feedstock/pull/11" xlink:title="py spy ❎">
<ellipse fill="#31688e" stroke="black" cx="1313" cy="-502" rx="46.29" ry="18"/>
<text text-anchor="middle" x="1313" y="-498.3" font-family="Times,serif" font-size="14.00" fill="white">py spy ❎</text>
</a>
</g>
</g>
<!-- libunwind&#45;&gt;py&#45;spy -->
<g id="edge22" class="edge">
<title>libunwind&#45;&gt;py&#45;spy</title>
<path fill="none" stroke="black" d="M1301.57,-627.87C1303.78,-603.67 1307.85,-559.21 1310.49,-530.39"/>
<polygon fill="black" stroke="black" points="1314,-530.47 1311.43,-520.19 1307.03,-529.83 1314,-530.47"/>
</g>
<!-- sentencepiece -->
<g id="node23" class="node">
<title>sentencepiece</title>
<g id="a_node23"><a xlink:href="https://github.com/conda-forge/sentencepiece-feedstock" xlink:title="sentencepiece">
<ellipse fill="#fde725" stroke="black" cx="1189" cy="-502" rx="60" ry="18"/>
<text text-anchor="middle" x="1189" y="-498.3" font-family="Times,serif" font-size="14.00">sentencepiece</text>
</a>
</g>
</g>
<!-- gperftools&#45;&gt;sentencepiece -->
<g id="edge23" class="edge">
<title>gperftools&#45;&gt;sentencepiece</title>
<path fill="none" stroke="black" d="M1207.95,-556.05C1205.13,-548.18 1201.72,-538.62 1198.57,-529.79"/>
<polygon fill="black" stroke="black" points="1201.83,-528.52 1195.17,-520.28 1195.24,-530.87 1201.83,-528.52"/>
</g>
<!-- sentencepiece&#45;&gt;allennlp -->
<g id="edge44" class="edge">
<title>sentencepiece&#45;&gt;allennlp</title>
<path fill="none" stroke="black" d="M1149.88,-488.32C1111.49,-475.88 1053.17,-456.98 1014.11,-444.32"/>
<polygon fill="black" stroke="black" points="1014.72,-440.84 1004.13,-441.09 1012.56,-447.5 1014.72,-440.84"/>
</g>
<!-- mono -->
<g id="node24" class="node">
<title>mono</title>
<g id="a_node24"><a xlink:href="https://github.com/conda-forge/mono-feedstock/pull/18" xlink:title="mono ❎">
<ellipse fill="#31688e" stroke="black" cx="735" cy="-90" rx="43" ry="18"/>
<text text-anchor="middle" x="735" y="-86.3" font-family="Times,serif" font-size="14.00" fill="white">mono ❎</text>
</a>
</g>
</g>
<!-- ogre -->
<g id="node25" class="node">
<title>ogre</title>
<g id="a_node25"><a xlink:href="https://github.com/conda-forge/ogre-feedstock" xlink:title="ogre">
<ellipse fill="#fde725" stroke="black" cx="735" cy="-18" rx="27" ry="18"/>
<text text-anchor="middle" x="735" y="-14.3" font-family="Times,serif" font-size="14.00">ogre</text>
</a>
</g>
</g>
<!-- mono&#45;&gt;ogre -->
<g id="edge24" class="edge">
<title>mono&#45;&gt;ogre</title>
<path fill="none" stroke="black" d="M735,-71.7C735,-63.98 735,-54.71 735,-46.11"/>
<polygon fill="black" stroke="black" points="738.5,-46.1 735,-36.1 731.5,-46.1 738.5,-46.1"/>
</g>
<!-- nltk_data -->
<g id="node26" class="node">
<title>nltk_data</title>
<g id="a_node26"><a xlink:href="https://github.com/conda-forge/nltk_data-feedstock/pull/5" xlink:title="nltk_data ❎">
<ellipse fill="#31688e" stroke="black" cx="1056" cy="-502" rx="55.49" ry="18"/>
<text text-anchor="middle" x="1056" y="-498.3" font-family="Times,serif" font-size="14.00" fill="white">nltk_data ❎</text>
</a>
</g>
</g>
<!-- nltk_data&#45;&gt;allennlp -->
<g id="edge25" class="edge">
<title>nltk_data&#45;&gt;allennlp</title>
<path fill="none" stroke="black" d="M1036.75,-484.76C1025.44,-475.22 1010.99,-463.04 998.71,-452.68"/>
<polygon fill="black" stroke="black" points="1000.91,-449.96 991.01,-446.19 996.4,-455.31 1000.91,-449.96"/>
</g>
<!-- pyqt -->
<g id="node27" class="node">
<title>pyqt</title>
<g id="a_node27"><a xlink:href="https://github.com/conda-forge/pyqt-feedstock" xlink:title="pyqt">
<ellipse fill="#fde725" stroke="black" cx="409" cy="-574" rx="27" ry="18"/>
<text text-anchor="middle" x="409" y="-570.3" font-family="Times,serif" font-size="14.00">pyqt</text>
</a>
</g>
</g>
<!-- pyqt&#45;&gt;hyperspy -->
<g id="edge26" class="edge">
<title>pyqt&#45;&gt;hyperspy</title>
<path fill="none" stroke="black" d="M423.5,-558.5C432.87,-549.13 445.27,-536.73 455.97,-526.03"/>
<polygon fill="black" stroke="black" points="458.45,-528.5 463.05,-518.95 453.5,-523.55 458.45,-528.5"/>
</g>
<!-- pythonocc&#45;core -->
<g id="node28" class="node">
<title>pythonocc&#45;core</title>
<g id="a_node28"><a xlink:href="https://github.com/conda-forge/pythonocc-core-feedstock" xlink:title="pythonocc core">
<ellipse fill="#fde725" stroke="black" cx="353" cy="-502" rx="65" ry="18"/>
<text text-anchor="middle" x="353" y="-498.3" font-family="Times,serif" font-size="14.00">pythonocc core</text>
</a>
</g>
</g>
<!-- pyqt&#45;&gt;pythonocc&#45;core -->
<g id="edge27" class="edge">
<title>pyqt&#45;&gt;pythonocc&#45;core</title>
<path fill="none" stroke="black" d="M396.85,-557.81C389.81,-549.02 380.78,-537.73 372.75,-527.69"/>
<polygon fill="black" stroke="black" points="375.28,-525.25 366.3,-519.63 369.82,-529.62 375.28,-525.25"/>
</g>
<!-- qt -->
<g id="node29" class="node">
<title>qt</title>
<g id="a_node29"><a xlink:href="https://github.com/conda-forge/qt-feedstock/pull/168" xlink:title="qt ❎">
<ellipse fill="#31688e" stroke="black" cx="149" cy="-646" rx="29.5" ry="18"/>
<text text-anchor="middle" x="149" y="-642.3" font-family="Times,serif" font-size="14.00" fill="white">qt ❎</text>
</a>
</g>
</g>
<!-- qt&#45;&gt;pyqt -->
<g id="edge28" class="edge">
<title>qt&#45;&gt;pyqt</title>
<path fill="none" stroke="black" d="M177.12,-640.3C220.1,-632.68 304.35,-616.03 373,-592 374.91,-591.33 376.85,-590.59 378.79,-589.81"/>
<polygon fill="black" stroke="black" points="380.6,-592.84 388.37,-585.64 377.8,-586.43 380.6,-592.84"/>
</g>
<!-- pivy -->
<g id="node30" class="node">
<title>pivy</title>
<g id="a_node30"><a xlink:href="https://github.com/conda-forge/pivy-feedstock" xlink:title="pivy">
<ellipse fill="#fde725" stroke="black" cx="41" cy="-502" rx="27" ry="18"/>
<text text-anchor="middle" x="41" y="-498.3" font-family="Times,serif" font-size="14.00">pivy</text>
</a>
</g>
</g>
<!-- qt&#45;&gt;pivy -->
<g id="edge29" class="edge">
<title>qt&#45;&gt;pivy</title>
<path fill="none" stroke="black" d="M134.54,-630.19C124.69,-619.83 111.57,-605.49 101,-592 84.58,-571.04 67.8,-545.76 56.18,-527.5"/>
<polygon fill="black" stroke="black" points="59.05,-525.5 50.75,-518.91 53.13,-529.23 59.05,-525.5"/>
</g>
<!-- pyside2 -->
<g id="node31" class="node">
<title>pyside2</title>
<g id="a_node31"><a xlink:href="https://github.com/conda-forge/pyside2-feedstock" xlink:title="pyside2">
<ellipse fill="#fde725" stroke="black" cx="149" cy="-574" rx="38.5" ry="18"/>
<text text-anchor="middle" x="149" y="-570.3" font-family="Times,serif" font-size="14.00">pyside2</text>
</a>
</g>
</g>
<!-- qt&#45;&gt;pyside2 -->
<g id="edge30" class="edge">
<title>qt&#45;&gt;pyside2</title>
<path fill="none" stroke="black" d="M149,-627.7C149,-619.98 149,-610.71 149,-602.11"/>
<polygon fill="black" stroke="black" points="152.5,-602.1 149,-592.1 145.5,-602.1 152.5,-602.1"/>
</g>
<!-- soqt -->
<g id="node32" class="node">
<title>soqt</title>
<g id="a_node32"><a xlink:href="https://github.com/conda-forge/soqt-feedstock" xlink:title="soqt">
<ellipse fill="#fde725" stroke="black" cx="27" cy="-574" rx="27" ry="18"/>
<text text-anchor="middle" x="27" y="-570.3" font-family="Times,serif" font-size="14.00">soqt</text>
</a>
</g>
</g>
<!-- qt&#45;&gt;soqt -->
<g id="edge31" class="edge">
<title>qt&#45;&gt;soqt</title>
<path fill="none" stroke="black" d="M128.3,-633.13C108.35,-621.67 77.97,-604.25 55.69,-591.46"/>
<polygon fill="black" stroke="black" points="57.4,-588.41 46.99,-586.47 53.92,-594.48 57.4,-588.41"/>
</g>
<!-- geant4 -->
<g id="node33" class="node">
<title>geant4</title>
<g id="a_node33"><a xlink:href="https://github.com/conda-forge/geant4-feedstock" xlink:title="geant4">
<ellipse fill="#fde725" stroke="black" cx="235" cy="-502" rx="34.5" ry="18"/>
<text text-anchor="middle" x="235" y="-498.3" font-family="Times,serif" font-size="14.00">geant4</text>
</a>
</g>
</g>
<!-- qt&#45;&gt;geant4 -->
<g id="edge32" class="edge">
<title>qt&#45;&gt;geant4</title>
<path fill="none" stroke="black" d="M164.36,-630.27C174.28,-620.17 186.99,-606.09 196,-592 208.66,-572.22 219.08,-547.63 225.96,-529.31"/>
<polygon fill="black" stroke="black" points="229.27,-530.45 229.41,-519.85 222.69,-528.05 229.27,-530.45"/>
</g>
<!-- pyside2&#45;&gt;pivy -->
<g id="edge33" class="edge">
<title>pyside2&#45;&gt;pivy</title>
<path fill="none" stroke="black" d="M127.4,-559C110.37,-547.96 86.51,-532.5 68.18,-520.62"/>
<polygon fill="black" stroke="black" points="69.97,-517.61 59.68,-515.11 66.16,-523.48 69.97,-517.61"/>
</g>
<!-- cctbx&#45;base -->
<g id="node34" class="node">
<title>cctbx&#45;base</title>
<g id="a_node34"><a xlink:href="https://github.com/conda-forge/cctbx-base-feedstock" xlink:title="cctbx base">
<ellipse fill="#fde725" stroke="black" cx="134" cy="-502" rx="48.19" ry="18"/>
<text text-anchor="middle" x="134" y="-498.3" font-family="Times,serif" font-size="14.00">cctbx base</text>
</a>
</g>
</g>
<!-- pyside2&#45;&gt;cctbx&#45;base -->
<g id="edge34" class="edge">
<title>pyside2&#45;&gt;cctbx&#45;base</title>
<path fill="none" stroke="black" d="M145.37,-556.05C143.7,-548.26 141.68,-538.82 139.8,-530.08"/>
<polygon fill="black" stroke="black" points="143.22,-529.32 137.7,-520.28 136.37,-530.79 143.22,-529.32"/>
</g>
<!-- soqt&#45;&gt;pivy -->
<g id="edge35" class="edge">
<title>soqt&#45;&gt;pivy</title>
<path fill="none" stroke="black" d="M30.39,-556.05C31.93,-548.35 33.79,-539.03 35.53,-530.36"/>
<polygon fill="black" stroke="black" points="39.02,-530.77 37.54,-520.28 32.15,-529.39 39.02,-530.77"/>
</g>
<!-- r&#45;units -->
<g id="node35" class="node">
<title>r&#45;units</title>
<g id="a_node35"><a xlink:href="https://github.com/conda-forge/r-units-feedstock" xlink:title="r units">
<ellipse fill="#fde725" stroke="black" cx="1720" cy="-538" rx="33.29" ry="18"/>
<text text-anchor="middle" x="1720" y="-534.3" font-family="Times,serif" font-size="14.00">r units</text>
</a>
</g>
</g>
<!-- r&#45;units&#45;&gt;r&#45;sf -->
<g id="edge36" class="edge">
<title>r&#45;units&#45;&gt;r&#45;sf</title>
<path fill="none" stroke="black" d="M1720.25,-519.7C1720.36,-511.98 1720.49,-502.71 1720.61,-494.11"/>
<polygon fill="black" stroke="black" points="1724.11,-494.15 1720.76,-484.1 1717.11,-494.05 1724.11,-494.15"/>
</g>
<!-- singularity -->
<g id="node36" class="node">
<title>singularity</title>
<g id="a_node36"><a xlink:href="https://github.com/conda-forge/singularity-feedstock" xlink:title="singularity">
<ellipse fill="#fde725" stroke="black" cx="1810" cy="-134" rx="48.19" ry="18"/>
<text text-anchor="middle" x="1810" y="-130.3" font-family="Times,serif" font-size="14.00">singularity</text>
</a>
</g>
</g>
<!-- thrift -->
<g id="node37" class="node">
<title>thrift</title>
<g id="a_node37"><a xlink:href="https://github.com/conda-forge/thrift-feedstock/pull/17" xlink:title="thrift ✓">
<ellipse fill="#31688e" stroke="black" cx="1548" cy="-206" rx="38.5" ry="18"/>
<text text-anchor="middle" x="1548" y="-202.3" font-family="Times,serif" font-size="14.00" fill="white">thrift ✓</text>
</a>
</g>
</g>
<!-- thrift&#45;&gt;fastparquet -->
<g id="edge37" class="edge">
<title>thrift&#45;&gt;fastparquet</title>
<path fill="none" stroke="black" d="M1548,-187.7C1548,-179.98 1548,-170.71 1548,-162.11"/>
<polygon fill="black" stroke="black" points="1551.5,-162.1 1548,-152.1 1544.5,-162.1 1551.5,-162.1"/>
</g>
<!-- udunits2 -->
<g id="node38" class="node">
<title>udunits2</title>
<g id="a_node38"><a xlink:href="https://github.com/conda-forge/udunits2-feedstock/pull/39" xlink:title="udunits2 ❎">
<ellipse fill="#31688e" stroke="black" cx="1679" cy="-610" rx="52.79" ry="18"/>
<text text-anchor="middle" x="1679" y="-606.3" font-family="Times,serif" font-size="14.00" fill="white">udunits2 ❎</text>
</a>
</g>
</g>
<!-- udunits2&#45;&gt;r&#45;units -->
<g id="edge38" class="edge">
<title>udunits2&#45;&gt;r&#45;units</title>
<path fill="none" stroke="black" d="M1688.92,-592.05C1693.83,-583.68 1699.85,-573.4 1705.28,-564.13"/>
<polygon fill="black" stroke="black" points="1708.41,-565.7 1710.45,-555.31 1702.37,-562.17 1708.41,-565.7"/>
</g>
<!-- pypy2.7 -->
<g id="node39" class="node">
<title>pypy2.7</title>
<g id="a_node39"><a xlink:href="https://github.com/conda-forge/pypy2.7-feedstock/pull/3" xlink:title="pypy2 7 ❎">
<ellipse fill="#31688e" stroke="black" cx="1548" cy="-826" rx="51.5" ry="18"/>
<text text-anchor="middle" x="1548" y="-822.3" font-family="Times,serif" font-size="14.00" fill="white">pypy2 7 ❎</text>
</a>
</g>
</g>
<!-- root_numpy -->
<g id="node40" class="node">
<title>root_numpy</title>
<g id="a_node40"><a xlink:href="https://github.com/conda-forge/root_numpy-feedstock/pull/19" xlink:title="root_numpy ❎">
<ellipse fill="#31688e" stroke="black" cx="1548" cy="-754" rx="65.79" ry="18"/>
<text text-anchor="middle" x="1548" y="-750.3" font-family="Times,serif" font-size="14.00" fill="white">root_numpy ❎</text>
</a>
</g>
</g>
<!-- pypy2.7&#45;&gt;root_numpy -->
<!-- ibm_db -->
<g id="node43" class="node">
<title>ibm_db</title>
<g id="a_node43"><a xlink:href="https://github.com/conda-forge/ibm_db-feedstock/pull/10" xlink:title="ibm_db ❎">
<ellipse fill="#31688e" stroke="black" cx="1548" cy="-682" rx="50.09" ry="18"/>
<text text-anchor="middle" x="1548" y="-678.3" font-family="Times,serif" font-size="14.00" fill="white">ibm_db ❎</text>
</a>
</g>
</g>
<!-- root_numpy&#45;&gt;ibm_db -->
<!-- tiledb -->
<g id="node41" class="node">
<title>tiledb</title>
<g id="a_node41"><a xlink:href="https://github.com/conda-forge/tiledb-feedstock/pull/95" xlink:title="tiledb ❎">
<ellipse fill="#31688e" stroke="black" cx="1952" cy="-610" rx="42.49" ry="18"/>
<text text-anchor="middle" x="1952" y="-606.3" font-family="Times,serif" font-size="14.00" fill="white">tiledb ❎</text>
</a>
</g>
</g>
<!-- tiledb&#45;&gt;gdal -->
<g id="edge40" class="edge">
<title>tiledb&#45;&gt;gdal</title>
<path fill="none" stroke="black" d="M1924.47,-596.32C1898.15,-584.2 1858.5,-565.94 1831.06,-553.3"/>
<polygon fill="black" stroke="black" points="1832.45,-550.09 1821.9,-549.09 1829.52,-556.45 1832.45,-550.09"/>
</g>
<!-- occt -->
<g id="node42" class="node">
<title>occt</title>
<g id="a_node42"><a xlink:href="https://github.com/conda-forge/occt-feedstock/pull/59" xlink:title="occt ❎">
<ellipse fill="#31688e" stroke="black" cx="327" cy="-574" rx="37.09" ry="18"/>
<text text-anchor="middle" x="327" y="-570.3" font-family="Times,serif" font-size="14.00" fill="white">occt ❎</text>
</a>
</g>
</g>
<!-- occt&#45;&gt;pythonocc&#45;core -->
<g id="edge41" class="edge">
<title>occt&#45;&gt;pythonocc&#45;core</title>
<path fill="none" stroke="black" d="M333.29,-556.05C336.22,-548.18 339.77,-538.62 343.05,-529.79"/>
<polygon fill="black" stroke="black" points="346.38,-530.87 346.58,-520.28 339.82,-528.43 346.38,-530.87"/>
</g>
<!-- cudatoolkit -->
<g id="node47" class="node">
<title>cudatoolkit</title>
<g id="a_node47"><a xlink:href="https://github.com/conda-forge/cudatoolkit-feedstock/pull/4" xlink:title="cudatoolkit ❎">
<ellipse fill="#31688e" stroke="black" cx="1548" cy="-610" rx="61.99" ry="18"/>
<text text-anchor="middle" x="1548" y="-606.3" font-family="Times,serif" font-size="14.00" fill="white">cudatoolkit ❎</text>
</a>
</g>
</g>
<!-- ibm_db&#45;&gt;cudatoolkit -->
<!-- go&#45;dep -->
<g id="node44" class="node">
<title>go&#45;dep</title>
<g id="a_node44"><a xlink:href="https://github.com/conda-forge/go-dep-feedstock/pull/12" xlink:title="go dep ❎">
<ellipse fill="#31688e" stroke="black" cx="1810" cy="-206" rx="46.29" ry="18"/>
<text text-anchor="middle" x="1810" y="-202.3" font-family="Times,serif" font-size="14.00" fill="white">go dep ❎</text>
</a>
</g>
</g>
<!-- go&#45;dep&#45;&gt;singularity -->
<g id="edge46" class="edge">
<title>go&#45;dep&#45;&gt;singularity</title>
<path fill="none" stroke="black" d="M1810,-187.7C1810,-179.98 1810,-170.71 1810,-162.11"/>
<polygon fill="black" stroke="black" points="1813.5,-162.1 1810,-152.1 1806.5,-162.1 1813.5,-162.1"/>
</g>
<!-- procps&#45;ng -->
<g id="node45" class="node">
<title>procps&#45;ng</title>
<g id="a_node45"><a xlink:href="https://github.com/conda-forge/procps-ng-feedstock/pull/3" xlink:title="procps ng ✓">
<ellipse fill="#31688e" stroke="black" cx="735" cy="-206" rx="56" ry="18"/>
<text text-anchor="middle" x="735" y="-202.3" font-family="Times,serif" font-size="14.00" fill="white">procps ng ✓</text>
</a>
</g>
</g>
<!-- myproxy -->
<g id="node46" class="node">
<title>myproxy</title>
<g id="a_node46"><a xlink:href="https://github.com/conda-forge/myproxy-feedstock" xlink:title="myproxy">
<ellipse fill="#fde725" stroke="black" cx="735" cy="-134" rx="43" ry="18"/>
<text text-anchor="middle" x="735" y="-130.3" font-family="Times,serif" font-size="14.00">myproxy</text>
</a>
</g>
</g>
<!-- procps&#45;ng&#45;&gt;myproxy -->
<g id="edge47" class="edge">
<title>procps&#45;ng&#45;&gt;myproxy</title>
<path fill="none" stroke="black" d="M735,-187.7C735,-179.98 735,-170.71 735,-162.11"/>
<polygon fill="black" stroke="black" points="738.5,-162.1 735,-152.1 731.5,-162.1 738.5,-162.1"/>
</g>
<!-- libusb -->
<g id="node48" class="node">
<title>libusb</title>
<g id="a_node48"><a xlink:href="https://github.com/conda-forge/libusb-feedstock/pull/8" xlink:title="libusb ❎">
<ellipse fill="#31688e" stroke="black" cx="1548" cy="-538" rx="44.39" ry="18"/>
<text text-anchor="middle" x="1548" y="-534.3" font-family="Times,serif" font-size="14.00" fill="white">libusb ❎</text>
</a>
</g>
</g>
<!-- cudatoolkit&#45;&gt;libusb -->
<!-- nvcc -->
<g id="node49" class="node">
<title>nvcc</title>
<g id="a_node49"><a xlink:href="https://github.com/conda-forge/nvcc-feedstock/pull/62" xlink:title="nvcc ✓">
<ellipse fill="#31688e" stroke="black" cx="1548" cy="-466" rx="37.89" ry="18"/>
<text text-anchor="middle" x="1548" y="-462.3" font-family="Times,serif" font-size="14.00" fill="white">nvcc ✓</text>
</a>
</g>
</g>
<!-- libusb&#45;&gt;nvcc -->
<!-- proj -->
<g id="node50" class="node">
<title>proj</title>
<g id="a_node50"><a xlink:href="https://github.com/conda-forge/proj-feedstock" xlink:title="proj">
<ellipse fill="#35b779" stroke="black" cx="1548" cy="-394" rx="27" ry="18"/>
<text text-anchor="middle" x="1548" y="-390.3" font-family="Times,serif" font-size="14.00">proj</text>
</a>
</g>
</g>
<!-- nvcc&#45;&gt;proj -->
<!-- ompl -->
<g id="node51" class="node">
<title>ompl</title>
<g id="a_node51"><a xlink:href="https://github.com/conda-forge/ompl-feedstock/pull/8" xlink:title="ompl ❎">
<ellipse fill="#31688e" stroke="black" cx="1548" cy="-322" rx="41" ry="18"/>
<text text-anchor="middle" x="1548" y="-318.3" font-family="Times,serif" font-size="14.00" fill="white">ompl ❎</text>
</a>
</g>
</g>
<!-- proj&#45;&gt;ompl -->
<!-- nordugrid&#45;arc -->
<g id="node54" class="node">
<title>nordugrid&#45;arc</title>
<g id="a_node54"><a xlink:href="https://github.com/conda-forge/nordugrid-arc-feedstock/pull/14" xlink:title="nordugrid arc ❎">
<ellipse fill="#31688e" stroke="black" cx="1548" cy="-250" rx="70.39" ry="18"/>
<text text-anchor="middle" x="1548" y="-246.3" font-family="Times,serif" font-size="14.00" fill="white">nordugrid arc ❎</text>
</a>
</g>
</g>
<!-- ompl&#45;&gt;nordugrid&#45;arc -->
<!-- nccl -->
<g id="node52" class="node">
<title>nccl</title>
<g id="a_node52"><a xlink:href="https://github.com/conda-forge/nccl-feedstock/pull/29" xlink:title="nccl ❎">
<ellipse fill="#31688e" stroke="black" cx="889" cy="-574" rx="37.09" ry="18"/>
<text text-anchor="middle" x="889" y="-570.3" font-family="Times,serif" font-size="14.00" fill="white">nccl ❎</text>
</a>
</g>
</g>
<!-- nccl&#45;&gt;pytorch&#45;cpu -->
<g id="edge53" class="edge">
<title>nccl&#45;&gt;pytorch&#45;cpu</title>
<path fill="none" stroke="black" d="M885.85,-556.05C884.42,-548.35 882.69,-539.03 881.08,-530.36"/>
<polygon fill="black" stroke="black" points="884.48,-529.47 879.21,-520.28 877.59,-530.75 884.48,-529.47"/>
</g>
<!-- cudnn -->
<g id="node53" class="node">
<title>cudnn</title>
<g id="a_node53"><a xlink:href="https://github.com/conda-forge/cudnn-feedstock/pull/9" xlink:title="cudnn ❎">
<ellipse fill="#31688e" stroke="black" cx="752" cy="-646" rx="44.39" ry="18"/>
<text text-anchor="middle" x="752" y="-642.3" font-family="Times,serif" font-size="14.00" fill="white">cudnn ❎</text>
</a>
</g>
</g>
<!-- cudnn&#45;&gt;pytorch&#45;cpu -->
<g id="edge54" class="edge">
<title>cudnn&#45;&gt;pytorch&#45;cpu</title>
<path fill="none" stroke="black" d="M760.85,-628.15C771.16,-609.38 789.45,-578.69 810,-556 820.4,-544.52 833.42,-533.5 845.15,-524.52"/>
<polygon fill="black" stroke="black" points="847.48,-527.15 853.4,-518.36 843.3,-521.54 847.48,-527.15"/>
</g>
<!-- tokenizers -->
<g id="node55" class="node">
<title>tokenizers</title>
<g id="a_node55"><a xlink:href="https://github.com/conda-forge/tokenizers-feedstock/pull/14" xlink:title="tokenizers ❎">
<ellipse fill="#31688e" stroke="black" cx="1003" cy="-574" rx="58.5" ry="18"/>
<text text-anchor="middle" x="1003" y="-570.3" font-family="Times,serif" font-size="14.00" fill="white">tokenizers ❎</text>
</a>
</g>
</g>
<!-- tokenizers&#45;&gt;allennlp -->
<g id="edge56" class="edge">
<title>tokenizers&#45;&gt;allennlp</title>
<path fill="none" stroke="black" d="M999.38,-555.87C994.25,-531.56 984.79,-486.82 978.71,-458.01"/>
<polygon fill="black" stroke="black" points="982.12,-457.25 976.63,-448.19 975.27,-458.7 982.12,-457.25"/>
</g>
<!-- 7zip -->
<g id="node56" class="node">
<title>7zip</title>
<g id="a_node56"><a xlink:href="https://github.com/conda-forge/7zip-feedstock/pull/5" xlink:title="7zip ✓">
<ellipse fill="#31688e" stroke="black" cx="1548" cy="-90" rx="36.5" ry="18"/>
<text text-anchor="middle" x="1548" y="-86.3" font-family="Times,serif" font-size="14.00" fill="white">7zip ✓</text>
</a>
</g>
</g>
<!-- cutensor -->
<g id="node57" class="node">
<title>cutensor</title>
<g id="a_node57"><a xlink:href="https://github.com/conda-forge/cutensor-feedstock" xlink:title="cutensor">
<ellipse fill="#fde725" stroke="black" cx="1548" cy="-18" rx="40.5" ry="18"/>
<text text-anchor="middle" x="1548" y="-14.3" font-family="Times,serif" font-size="14.00">cutensor</text>
</a>
</g>
</g>
<!-- 7zip&#45;&gt;cutensor -->
<g id="edge57" class="edge">
<title>7zip&#45;&gt;cutensor</title>
<path fill="none" stroke="black" d="M1548,-71.7C1548,-63.98 1548,-54.71 1548,-46.11"/>
<polygon fill="black" stroke="black" points="1551.5,-46.1 1548,-36.1 1544.5,-46.1 1551.5,-46.1"/>
</g>
<!-- magma -->
<g id="node58" class="node">
<title>magma</title>
<g id="a_node58"><a xlink:href="https://github.com/conda-forge/magma-feedstock/pull/4" xlink:title="magma ✓">
<ellipse fill="#31688e" stroke="black" cx="824" cy="-718" rx="48.19" ry="18"/>
<text text-anchor="middle" x="824" y="-714.3" font-family="Times,serif" font-size="14.00" fill="white">magma ✓</text>
</a>
</g>
</g>
<!-- magma&#45;&gt;pytorch&#45;cpu -->
<g id="edge58" class="edge">
<title>magma&#45;&gt;pytorch&#45;cpu</title>
<path fill="none" stroke="black" d="M823.6,-699.53C823.45,-669.36 825.49,-605.93 843,-556 846.41,-546.28 851.83,-536.48 857.3,-527.99"/>
<polygon fill="black" stroke="black" points="860.22,-529.92 862.94,-519.68 854.43,-525.99 860.22,-529.92"/>
</g>
</g>
</svg>
