<?xml version="1.0" encoding="UTF-8" standalone="no"?>
<!DOCTYPE svg PUBLIC "-//W3C//DTD SVG 1.1//EN"
 "http://www.w3.org/Graphics/SVG/1.1/DTD/svg11.dtd">
<!-- Generated by graphviz version 2.48.0 (20210717.2242)
 -->
<!-- Pages: 1 -->
<svg width="2222pt" height="996pt"
 viewBox="0.00 0.00 2222.00 996.00" xmlns="http://www.w3.org/2000/svg" xmlns:xlink="http://www.w3.org/1999/xlink">
<g id="graph0" class="graph" transform="scale(1 1) rotate(0) translate(4 992)">
<polygon fill="white" stroke="transparent" points="-4,4 -4,-992 2218,-992 2218,4 -4,4"/>
<!-- aioeasywebdav -->
<g id="node1" class="node">
<title>aioeasywebdav</title>
<g id="a_node1"><a xlink:href="https://github.com/conda-forge/aioeasywebdav-feedstock/pull/10" xlink:title="aioeasywebdav ✓">
<ellipse fill="#31688e" stroke="black" cx="2125.5" cy="-970" rx="88.5" ry="18"/>
<text text-anchor="middle" x="2125.5" y="-966.3" font-family="Times,serif" font-size="14.00" fill="white">aioeasywebdav ✓</text>
</a>
</g>
</g>
<!-- root_numpy -->
<g id="node2" class="node">
<title>root_numpy</title>
<g id="a_node2"><a xlink:href="https://github.com/conda-forge/root_numpy-feedstock/pull/25" xlink:title="root_numpy ❎">
<ellipse fill="#31688e" stroke="black" cx="2125.5" cy="-898" rx="80" ry="18"/>
<text text-anchor="middle" x="2125.5" y="-894.3" font-family="Times,serif" font-size="14.00" fill="white">root_numpy ❎</text>
</a>
</g>
</g>
<!-- aioeasywebdav&#45;&gt;root_numpy -->
<!-- ibm_db -->
<g id="node39" class="node">
<title>ibm_db</title>
<g id="a_node39"><a xlink:href="https://github.com/conda-forge/ibm_db-feedstock/pull/33" xlink:title="ibm_db ❎">
<ellipse fill="#31688e" stroke="black" cx="2125.5" cy="-826" rx="58.5" ry="18"/>
<text text-anchor="middle" x="2125.5" y="-822.3" font-family="Times,serif" font-size="14.00" fill="white">ibm_db ❎</text>
</a>
</g>
</g>
<!-- root_numpy&#45;&gt;ibm_db -->
<!-- ampl&#45;mp -->
<g id="node3" class="node">
<title>ampl&#45;mp</title>
<g id="a_node3"><a xlink:href="https://github.com/conda-forge/ampl-mp-feedstock/pull/22" xlink:title="ampl mp ❎">
<ellipse fill="#31688e" stroke="black" cx="579.5" cy="-278" rx="65.79" ry="18"/>
<text text-anchor="middle" x="579.5" y="-274.3" font-family="Times,serif" font-size="14.00" fill="white">ampl mp ❎</text>
</a>
</g>
</g>
<!-- ipopt -->
<g id="node4" class="node">
<title>ipopt</title>
<g id="a_node4"><a xlink:href="https://github.com/conda-forge/ipopt-feedstock" xlink:title="ipopt">
<ellipse fill="#fde725" stroke="black" cx="643.5" cy="-206" rx="34.5" ry="18"/>
<text text-anchor="middle" x="643.5" y="-202.3" font-family="Times,serif" font-size="14.00">ipopt</text>
</a>
</g>
</g>
<!-- ampl&#45;mp&#45;&gt;ipopt -->
<g id="edge2" class="edge">
<title>ampl&#45;mp&#45;&gt;ipopt</title>
<path fill="none" stroke="black" d="M594.67,-260.41C602.95,-251.35 613.34,-239.99 622.4,-230.08"/>
<polygon fill="black" stroke="black" points="625.15,-232.25 629.32,-222.51 619.99,-227.53 625.15,-232.25"/>
</g>
<!-- idyntree -->
<g id="node5" class="node">
<title>idyntree</title>
<g id="a_node5"><a xlink:href="https://github.com/conda-forge/idyntree-feedstock" xlink:title="idyntree">
<ellipse fill="#fde725" stroke="black" cx="643.5" cy="-134" rx="50.09" ry="18"/>
<text text-anchor="middle" x="643.5" y="-130.3" font-family="Times,serif" font-size="14.00">idyntree</text>
</a>
</g>
</g>
<!-- ipopt&#45;&gt;idyntree -->
<g id="edge3" class="edge">
<title>ipopt&#45;&gt;idyntree</title>
<path fill="none" stroke="black" d="M643.5,-187.7C643.5,-179.98 643.5,-170.71 643.5,-162.11"/>
<polygon fill="black" stroke="black" points="647,-162.1 643.5,-152.1 640,-162.1 647,-162.1"/>
</g>
<!-- check -->
<g id="node6" class="node">
<title>check</title>
<g id="a_node6"><a xlink:href="https://github.com/conda-forge/check-feedstock/pull/19" xlink:title="check ❎">
<ellipse fill="#31688e" stroke="black" cx="51.5" cy="-682" rx="51.5" ry="18"/>
<text text-anchor="middle" x="51.5" y="-678.3" font-family="Times,serif" font-size="14.00" fill="white">check ❎</text>
</a>
</g>
</g>
<!-- pulseaudio -->
<g id="node7" class="node">
<title>pulseaudio</title>
<g id="a_node7"><a xlink:href="https://github.com/conda-forge/pulseaudio-feedstock" xlink:title="pulseaudio">
<ellipse fill="#fde725" stroke="black" cx="126.5" cy="-610" rx="61.19" ry="18"/>
<text text-anchor="middle" x="126.5" y="-606.3" font-family="Times,serif" font-size="14.00">pulseaudio</text>
</a>
</g>
</g>
<!-- check&#45;&gt;pulseaudio -->
<g id="edge4" class="edge">
<title>check&#45;&gt;pulseaudio</title>
<path fill="none" stroke="black" d="M68.9,-664.76C78.58,-655.73 90.79,-644.33 101.48,-634.35"/>
<polygon fill="black" stroke="black" points="104.02,-636.77 108.94,-627.39 99.24,-631.65 104.02,-636.77"/>
</g>
<!-- gqrx -->
<g id="node8" class="node">
<title>gqrx</title>
<g id="a_node8"><a xlink:href="https://github.com/conda-forge/gqrx-feedstock" xlink:title="gqrx">
<ellipse fill="#fde725" stroke="black" cx="255.5" cy="-538" rx="32.5" ry="18"/>
<text text-anchor="middle" x="255.5" y="-534.3" font-family="Times,serif" font-size="14.00">gqrx</text>
</a>
</g>
</g>
<!-- pulseaudio&#45;&gt;gqrx -->
<g id="edge5" class="edge">
<title>pulseaudio&#45;&gt;gqrx</title>
<path fill="none" stroke="black" d="M154.49,-593.81C175.02,-582.67 202.9,-567.54 224.17,-556"/>
<polygon fill="black" stroke="black" points="226.01,-558.98 233.13,-551.14 222.67,-552.83 226.01,-558.98"/>
</g>
<!-- cherrypy -->
<g id="node9" class="node">
<title>cherrypy</title>
<g id="a_node9"><a xlink:href="https://github.com/conda-forge/cherrypy-feedstock/pull/64" xlink:title="cherrypy ❎">
<ellipse fill="#31688e" stroke="black" cx="1366.5" cy="-610" rx="66.5" ry="18"/>
<text text-anchor="middle" x="1366.5" y="-606.3" font-family="Times,serif" font-size="14.00" fill="white">cherrypy ❎</text>
</a>
</g>
</g>
<!-- allennlp -->
<g id="node10" class="node">
<title>allennlp</title>
<g id="a_node10"><a xlink:href="https://github.com/conda-forge/allennlp-feedstock" xlink:title="allennlp">
<ellipse fill="#fde725" stroke="black" cx="1656.5" cy="-538" rx="48.19" ry="18"/>
<text text-anchor="middle" x="1656.5" y="-534.3" font-family="Times,serif" font-size="14.00">allennlp</text>
</a>
</g>
</g>
<!-- cherrypy&#45;&gt;allennlp -->
<g id="edge6" class="edge">
<title>cherrypy&#45;&gt;allennlp</title>
<path fill="none" stroke="black" d="M1414.39,-597.44C1467.59,-584.6 1553.06,-563.97 1606.93,-550.96"/>
<polygon fill="black" stroke="black" points="1608.04,-554.3 1616.94,-548.55 1606.39,-547.49 1608.04,-554.3"/>
</g>
<!-- hyperspy -->
<g id="node11" class="node">
<title>hyperspy</title>
<g id="a_node11"><a xlink:href="https://github.com/conda-forge/hyperspy-feedstock" xlink:title="hyperspy">
<ellipse fill="#fde725" stroke="black" cx="661.5" cy="-754" rx="54" ry="18"/>
<text text-anchor="middle" x="661.5" y="-750.3" font-family="Times,serif" font-size="14.00">hyperspy</text>
</a>
</g>
</g>
<!-- intltool -->
<g id="node12" class="node">
<title>intltool</title>
<g id="a_node12"><a xlink:href="https://github.com/conda-forge/intltool-feedstock/pull/5" xlink:title="intltool ❎">
<ellipse fill="#31688e" stroke="black" cx="1664.5" cy="-314" rx="58" ry="18"/>
<text text-anchor="middle" x="1664.5" y="-310.3" font-family="Times,serif" font-size="14.00" fill="white">intltool ❎</text>
</a>
</g>
</g>
<!-- libsecret -->
<g id="node13" class="node">
<title>libsecret</title>
<g id="a_node13"><a xlink:href="https://github.com/conda-forge/libsecret-feedstock" xlink:title="libsecret">
<ellipse fill="#fde725" stroke="black" cx="1664.5" cy="-242" rx="51.5" ry="18"/>
<text text-anchor="middle" x="1664.5" y="-238.3" font-family="Times,serif" font-size="14.00">libsecret</text>
</a>
</g>
</g>
<!-- intltool&#45;&gt;libsecret -->
<g id="edge7" class="edge">
<title>intltool&#45;&gt;libsecret</title>
<path fill="none" stroke="black" d="M1664.5,-295.7C1664.5,-287.98 1664.5,-278.71 1664.5,-270.11"/>
<polygon fill="black" stroke="black" points="1668,-270.1 1664.5,-260.1 1661,-270.1 1668,-270.1"/>
</g>
<!-- oidc&#45;agent -->
<g id="node14" class="node">
<title>oidc&#45;agent</title>
<g id="a_node14"><a xlink:href="https://github.com/conda-forge/oidc-agent-feedstock" xlink:title="oidc agent">
<ellipse fill="#fde725" stroke="black" cx="1664.5" cy="-170" rx="59.29" ry="18"/>
<text text-anchor="middle" x="1664.5" y="-166.3" font-family="Times,serif" font-size="14.00">oidc agent</text>
</a>
</g>
</g>
<!-- libsecret&#45;&gt;oidc&#45;agent -->
<g id="edge8" class="edge">
<title>libsecret&#45;&gt;oidc&#45;agent</title>
<path fill="none" stroke="black" d="M1664.5,-223.7C1664.5,-215.98 1664.5,-206.71 1664.5,-198.11"/>
<polygon fill="black" stroke="black" points="1668,-198.1 1664.5,-188.1 1661,-198.1 1668,-198.1"/>
</g>
<!-- mumps -->
<g id="node15" class="node">
<title>mumps</title>
<g id="a_node15"><a xlink:href="https://github.com/conda-forge/mumps-feedstock" xlink:title="mumps">
<ellipse fill="#fde725" stroke="black" cx="708.5" cy="-278" rx="45" ry="18"/>
<text text-anchor="middle" x="708.5" y="-274.3" font-family="Times,serif" font-size="14.00">mumps</text>
</a>
</g>
</g>
<!-- mumps&#45;&gt;ipopt -->
<g id="edge9" class="edge">
<title>mumps&#45;&gt;ipopt</title>
<path fill="none" stroke="black" d="M693.42,-260.76C684.94,-251.62 674.2,-240.06 664.86,-230"/>
<polygon fill="black" stroke="black" points="667.42,-227.61 658.05,-222.67 662.29,-232.38 667.42,-227.61"/>
</g>
<!-- pagmo -->
<g id="node16" class="node">
<title>pagmo</title>
<g id="a_node16"><a xlink:href="https://github.com/conda-forge/pagmo-feedstock" xlink:title="pagmo">
<ellipse fill="#000000" stroke="black" cx="645.5" cy="-90" rx="42.49" ry="18"/>
<text text-anchor="middle" x="645.5" y="-86.3" font-family="Times,serif" font-size="14.00" fill="white">pagmo</text>
</a>
</g>
</g>
<!-- pygmo -->
<g id="node17" class="node">
<title>pygmo</title>
<g id="a_node17"><a xlink:href="https://github.com/conda-forge/pygmo-feedstock" xlink:title="pygmo">
<ellipse fill="#fde725" stroke="black" cx="645.5" cy="-18" rx="42.49" ry="18"/>
<text text-anchor="middle" x="645.5" y="-14.3" font-family="Times,serif" font-size="14.00">pygmo</text>
</a>
</g>
</g>
<!-- pagmo&#45;&gt;pygmo -->
<g id="edge10" class="edge">
<title>pagmo&#45;&gt;pygmo</title>
<path fill="none" stroke="black" d="M645.5,-71.7C645.5,-63.98 645.5,-54.71 645.5,-46.11"/>
<polygon fill="black" stroke="black" points="649,-46.1 645.5,-36.1 642,-46.1 649,-46.1"/>
</g>
<!-- pyqt -->
<g id="node18" class="node">
<title>pyqt</title>
<g id="a_node18"><a xlink:href="https://github.com/conda-forge/pyqt-feedstock" xlink:title="pyqt">
<ellipse fill="#fde725" stroke="black" cx="655.5" cy="-826" rx="32" ry="18"/>
<text text-anchor="middle" x="655.5" y="-822.3" font-family="Times,serif" font-size="14.00">pyqt</text>
</a>
</g>
</g>
<!-- pyqt&#45;&gt;hyperspy -->
<g id="edge11" class="edge">
<title>pyqt&#45;&gt;hyperspy</title>
<path fill="none" stroke="black" d="M656.98,-807.7C657.64,-799.98 658.44,-790.71 659.18,-782.11"/>
<polygon fill="black" stroke="black" points="662.67,-782.37 660.03,-772.1 655.69,-781.77 662.67,-782.37"/>
</g>
<!-- gnuradio -->
<g id="node19" class="node">
<title>gnuradio</title>
<g id="a_node19"><a xlink:href="https://github.com/conda-forge/gnuradio-feedstock" xlink:title="gnuradio">
<ellipse fill="#fde725" stroke="black" cx="499.5" cy="-754" rx="52" ry="18"/>
<text text-anchor="middle" x="499.5" y="-750.3" font-family="Times,serif" font-size="14.00">gnuradio</text>
</a>
</g>
</g>
<!-- pyqt&#45;&gt;gnuradio -->
<g id="edge12" class="edge">
<title>pyqt&#45;&gt;gnuradio</title>
<path fill="none" stroke="black" d="M631.12,-814.06C606.57,-803.04 568.26,-785.85 539.29,-772.85"/>
<polygon fill="black" stroke="black" points="540.41,-769.52 529.86,-768.62 537.55,-775.91 540.41,-769.52"/>
</g>
<!-- pythonocc&#45;core -->
<g id="node20" class="node">
<title>pythonocc&#45;core</title>
<g id="a_node20"><a xlink:href="https://github.com/conda-forge/pythonocc-core-feedstock" xlink:title="pythonocc core">
<ellipse fill="#fde725" stroke="black" cx="646.5" cy="-682" rx="81.49" ry="18"/>
<text text-anchor="middle" x="646.5" y="-678.3" font-family="Times,serif" font-size="14.00">pythonocc core</text>
</a>
</g>
</g>
<!-- pyqt&#45;&gt;pythonocc&#45;core -->
<g id="edge13" class="edge">
<title>pyqt&#45;&gt;pythonocc&#45;core</title>
<path fill="none" stroke="black" d="M634.51,-812.09C621.47,-802.75 605.84,-788.85 598.5,-772 592.11,-757.33 592.74,-750.93 598.5,-736 602.71,-725.09 610.31,-715.04 618.25,-706.68"/>
<polygon fill="black" stroke="black" points="620.86,-709.02 625.54,-699.52 615.96,-704.03 620.86,-709.02"/>
</g>
<!-- gnuradio&#45;&gt;gqrx -->
<g id="edge14" class="edge">
<title>gnuradio&#45;&gt;gqrx</title>
<path fill="none" stroke="black" d="M495.55,-735.89C486.64,-698.71 464.07,-612.23 442.5,-592 431.63,-581.8 346.65,-560.43 295.07,-548.17"/>
<polygon fill="black" stroke="black" points="295.76,-544.74 285.23,-545.84 294.15,-551.55 295.76,-544.74"/>
</g>
<!-- digital_rf -->
<g id="node21" class="node">
<title>digital_rf</title>
<g id="a_node21"><a xlink:href="https://github.com/conda-forge/digital_rf-feedstock" xlink:title="digital_rf">
<ellipse fill="#fde725" stroke="black" cx="380.5" cy="-682" rx="52.79" ry="18"/>
<text text-anchor="middle" x="380.5" y="-678.3" font-family="Times,serif" font-size="14.00">digital_rf</text>
</a>
</g>
</g>
<!-- gnuradio&#45;&gt;digital_rf -->
<g id="edge15" class="edge">
<title>gnuradio&#45;&gt;digital_rf</title>
<path fill="none" stroke="black" d="M474.26,-738.15C456.83,-727.9 433.44,-714.14 414.39,-702.93"/>
<polygon fill="black" stroke="black" points="416.09,-699.88 405.7,-697.82 412.55,-705.91 416.09,-699.88"/>
</g>
<!-- gnuradio&#45;osmosdr -->
<g id="node22" class="node">
<title>gnuradio&#45;osmosdr</title>
<g id="a_node22"><a xlink:href="https://github.com/conda-forge/gnuradio-osmosdr-feedstock" xlink:title="gnuradio osmosdr">
<ellipse fill="#fde725" stroke="black" cx="338.5" cy="-610" rx="95" ry="18"/>
<text text-anchor="middle" x="338.5" y="-606.3" font-family="Times,serif" font-size="14.00">gnuradio osmosdr</text>
</a>
</g>
</g>
<!-- gnuradio&#45;&gt;gnuradio&#45;osmosdr -->
<g id="edge16" class="edge">
<title>gnuradio&#45;&gt;gnuradio&#45;osmosdr</title>
<path fill="none" stroke="black" d="M452.85,-745.79C404.78,-737.29 334.65,-721.55 318.5,-700 304.87,-681.81 312.81,-656.04 322.42,-636.91"/>
<polygon fill="black" stroke="black" points="325.5,-638.58 327.18,-628.12 319.34,-635.24 325.5,-638.58"/>
</g>
<!-- gnuradio&#45;soapy -->
<g id="node23" class="node">
<title>gnuradio&#45;soapy</title>
<g id="a_node23"><a xlink:href="https://github.com/conda-forge/gnuradio-soapy-feedstock" xlink:title="gnuradio soapy">
<ellipse fill="#fde725" stroke="black" cx="427.5" cy="-538" rx="82" ry="18"/>
<text text-anchor="middle" x="427.5" y="-534.3" font-family="Times,serif" font-size="14.00">gnuradio soapy</text>
</a>
</g>
</g>
<!-- gnuradio&#45;&gt;gnuradio&#45;soapy -->
<g id="edge17" class="edge">
<title>gnuradio&#45;&gt;gnuradio&#45;soapy</title>
<path fill="none" stroke="black" d="M500.12,-735.61C500.54,-705.03 498.34,-640.28 475.5,-592 470.46,-581.35 462.56,-571.31 454.61,-562.89"/>
<polygon fill="black" stroke="black" points="456.92,-560.25 447.37,-555.64 451.96,-565.19 456.92,-560.25"/>
</g>
<!-- gnuradio&#45;satellites -->
<g id="node24" class="node">
<title>gnuradio&#45;satellites</title>
<g id="a_node24"><a xlink:href="https://github.com/conda-forge/gnuradio-satellites-feedstock" xlink:title="gnuradio satellites">
<ellipse fill="#fde725" stroke="black" cx="537.5" cy="-466" rx="97.5" ry="18"/>
<text text-anchor="middle" x="537.5" y="-462.3" font-family="Times,serif" font-size="14.00">gnuradio satellites</text>
</a>
</g>
</g>
<!-- gnuradio&#45;&gt;gnuradio&#45;satellites -->
<g id="edge18" class="edge">
<title>gnuradio&#45;&gt;gnuradio&#45;satellites</title>
<path fill="none" stroke="black" d="M503.88,-735.91C506.4,-725.57 509.46,-712.09 511.5,-700 523.97,-626 531.96,-537.73 535.46,-494.13"/>
<polygon fill="black" stroke="black" points="538.96,-494.29 536.25,-484.05 531.98,-493.74 538.96,-494.29"/>
</g>
<!-- gnuradio&#45;osmosdr&#45;&gt;gqrx -->
<g id="edge56" class="edge">
<title>gnuradio&#45;osmosdr&#45;&gt;gqrx</title>
<path fill="none" stroke="black" d="M318.41,-592.05C307.03,-582.46 292.68,-570.36 280.57,-560.14"/>
<polygon fill="black" stroke="black" points="282.5,-557.2 272.6,-553.42 277.99,-562.55 282.5,-557.2"/>
</g>
<!-- qt -->
<g id="node25" class="node">
<title>qt</title>
<g id="a_node25"><a xlink:href="https://github.com/conda-forge/qt-feedstock/pull/184" xlink:title="qt ❎">
<ellipse fill="#31688e" stroke="black" cx="743.5" cy="-898" rx="34.5" ry="18"/>
<text text-anchor="middle" x="743.5" y="-894.3" font-family="Times,serif" font-size="14.00" fill="white">qt ❎</text>
</a>
</g>
</g>
<!-- qt&#45;&gt;gqrx -->
<g id="edge27" class="edge">
<title>qt&#45;&gt;gqrx</title>
<path fill="none" stroke="black" d="M709.26,-895.22C592.26,-888.2 215.5,-857.64 215.5,-755 215.5,-755 215.5,-755 215.5,-681 215.5,-639.26 231.71,-593.11 243.5,-565.08"/>
<polygon fill="black" stroke="black" points="246.83,-566.19 247.6,-555.62 240.41,-563.4 246.83,-566.19"/>
</g>
<!-- qt&#45;&gt;pyqt -->
<g id="edge19" class="edge">
<title>qt&#45;&gt;pyqt</title>
<path fill="none" stroke="black" d="M725.27,-882.5C712.56,-872.39 695.42,-858.75 681.31,-847.53"/>
<polygon fill="black" stroke="black" points="683.41,-844.73 673.41,-841.25 679.06,-850.21 683.41,-844.73"/>
</g>
<!-- qt&#45;&gt;gnuradio -->
<g id="edge20" class="edge">
<title>qt&#45;&gt;gnuradio</title>
<path fill="none" stroke="black" d="M715.05,-887.8C688.21,-878.55 647.3,-862.97 614.5,-844 581.41,-824.87 547.23,-797.23 524.83,-777.85"/>
<polygon fill="black" stroke="black" points="526.97,-775.06 517.14,-771.11 522.35,-780.33 526.97,-775.06"/>
</g>
<!-- qwt -->
<g id="node26" class="node">
<title>qwt</title>
<g id="a_node26"><a xlink:href="https://github.com/conda-forge/qwt-feedstock" xlink:title="qwt">
<ellipse fill="#fde725" stroke="black" cx="505.5" cy="-826" rx="28.7" ry="18"/>
<text text-anchor="middle" x="505.5" y="-822.3" font-family="Times,serif" font-size="14.00">qwt</text>
</a>
</g>
</g>
<!-- qt&#45;&gt;qwt -->
<g id="edge21" class="edge">
<title>qt&#45;&gt;qwt</title>
<path fill="none" stroke="black" d="M713.84,-888.28C669.84,-875.34 587.44,-851.1 540.53,-837.3"/>
<polygon fill="black" stroke="black" points="541.39,-833.91 530.81,-834.44 539.42,-840.62 541.39,-833.91"/>
</g>
<!-- pivy -->
<g id="node27" class="node">
<title>pivy</title>
<g id="a_node27"><a xlink:href="https://github.com/conda-forge/pivy-feedstock" xlink:title="pivy">
<ellipse fill="#fde725" stroke="black" cx="776.5" cy="-682" rx="30.59" ry="18"/>
<text text-anchor="middle" x="776.5" y="-678.3" font-family="Times,serif" font-size="14.00">pivy</text>
</a>
</g>
</g>
<!-- qt&#45;&gt;pivy -->
<g id="edge22" class="edge">
<title>qt&#45;&gt;pivy</title>
<path fill="none" stroke="black" d="M744.72,-879.96C747,-850.44 752.62,-787.98 762.5,-736 764.12,-727.45 766.37,-718.25 768.59,-709.96"/>
<polygon fill="black" stroke="black" points="772.04,-710.62 771.34,-700.05 765.3,-708.75 772.04,-710.62"/>
</g>
<!-- pyside2 -->
<g id="node28" class="node">
<title>pyside2</title>
<g id="a_node28"><a xlink:href="https://github.com/conda-forge/pyside2-feedstock" xlink:title="pyside2">
<ellipse fill="#fde725" stroke="black" cx="898.5" cy="-754" rx="47" ry="18"/>
<text text-anchor="middle" x="898.5" y="-750.3" font-family="Times,serif" font-size="14.00">pyside2</text>
</a>
</g>
</g>
<!-- qt&#45;&gt;pyside2 -->
<g id="edge23" class="edge">
<title>qt&#45;&gt;pyside2</title>
<path fill="none" stroke="black" d="M759.79,-882.07C786.88,-857.26 841.35,-807.36 873.38,-778.01"/>
<polygon fill="black" stroke="black" points="876,-780.36 881.01,-771.02 871.27,-775.2 876,-780.36"/>
</g>
<!-- soqt -->
<g id="node29" class="node">
<title>soqt</title>
<g id="a_node29"><a xlink:href="https://github.com/conda-forge/soqt-feedstock" xlink:title="soqt">
<ellipse fill="#fde725" stroke="black" cx="802.5" cy="-754" rx="30.59" ry="18"/>
<text text-anchor="middle" x="802.5" y="-750.3" font-family="Times,serif" font-size="14.00">soqt</text>
</a>
</g>
</g>
<!-- qt&#45;&gt;soqt -->
<g id="edge24" class="edge">
<title>qt&#45;&gt;soqt</title>
<path fill="none" stroke="black" d="M750.5,-880.15C760.66,-855.71 779.58,-810.17 791.58,-781.29"/>
<polygon fill="black" stroke="black" points="794.9,-782.4 795.51,-771.82 788.44,-779.72 794.9,-782.4"/>
</g>
<!-- freecad -->
<g id="node30" class="node">
<title>freecad</title>
<g id="a_node30"><a xlink:href="https://github.com/conda-forge/freecad-feedstock" xlink:title="freecad">
<ellipse fill="#fde725" stroke="black" cx="918.5" cy="-610" rx="45.5" ry="18"/>
<text text-anchor="middle" x="918.5" y="-606.3" font-family="Times,serif" font-size="14.00">freecad</text>
</a>
</g>
</g>
<!-- qt&#45;&gt;freecad -->
<g id="edge25" class="edge">
<title>qt&#45;&gt;freecad</title>
<path fill="none" stroke="black" d="M776.23,-892.19C865.85,-878.28 1111.71,-834.96 1158.5,-772 1177.09,-746.98 1143.75,-669.97 1137.5,-664 1113.94,-641.51 1028.39,-625.86 971.45,-617.66"/>
<polygon fill="black" stroke="black" points="971.91,-614.19 961.52,-616.26 970.93,-621.12 971.91,-614.19"/>
</g>
<!-- geant4 -->
<g id="node31" class="node">
<title>geant4</title>
<g id="a_node31"><a xlink:href="https://github.com/conda-forge/geant4-feedstock" xlink:title="geant4">
<ellipse fill="#fde725" stroke="black" cx="1248.5" cy="-682" rx="43" ry="18"/>
<text text-anchor="middle" x="1248.5" y="-678.3" font-family="Times,serif" font-size="14.00">geant4</text>
</a>
</g>
</g>
<!-- qt&#45;&gt;geant4 -->
<g id="edge26" class="edge">
<title>qt&#45;&gt;geant4</title>
<path fill="none" stroke="black" d="M778.13,-897.47C871.89,-898.06 1127.87,-894.85 1191.5,-844 1232.51,-811.23 1244.06,-746.8 1247.28,-710.16"/>
<polygon fill="black" stroke="black" points="1250.77,-710.41 1248.01,-700.18 1243.79,-709.9 1250.77,-710.41"/>
</g>
<!-- qwt&#45;&gt;gnuradio -->
<g id="edge28" class="edge">
<title>qwt&#45;&gt;gnuradio</title>
<path fill="none" stroke="black" d="M504.02,-807.7C503.36,-799.98 502.56,-790.71 501.82,-782.11"/>
<polygon fill="black" stroke="black" points="505.31,-781.77 500.97,-772.1 498.33,-782.37 505.31,-781.77"/>
</g>
<!-- pivy&#45;&gt;freecad -->
<g id="edge29" class="edge">
<title>pivy&#45;&gt;freecad</title>
<path fill="none" stroke="black" d="M799.31,-669.75C821.59,-658.77 855.84,-641.89 881.92,-629.03"/>
<polygon fill="black" stroke="black" points="883.7,-632.06 891.12,-624.5 880.61,-625.78 883.7,-632.06"/>
</g>
<!-- pyside2&#45;&gt;pivy -->
<g id="edge30" class="edge">
<title>pyside2&#45;&gt;pivy</title>
<path fill="none" stroke="black" d="M873.52,-738.67C854.08,-727.52 827.06,-712.01 806.46,-700.19"/>
<polygon fill="black" stroke="black" points="808.2,-697.15 797.79,-695.21 804.72,-703.23 808.2,-697.15"/>
</g>
<!-- pyside2&#45;&gt;freecad -->
<g id="edge31" class="edge">
<title>pyside2&#45;&gt;freecad</title>
<path fill="none" stroke="black" d="M880.4,-737.3C870.7,-727.65 859.7,-714.4 854.5,-700 849.07,-684.95 847.69,-678.48 854.5,-664 860.82,-650.55 872.42,-639.35 884.02,-630.76"/>
<polygon fill="black" stroke="black" points="886.16,-633.53 892.39,-624.97 882.18,-627.77 886.16,-633.53"/>
</g>
<!-- cctbx&#45;base -->
<g id="node32" class="node">
<title>cctbx&#45;base</title>
<g id="a_node32"><a xlink:href="https://github.com/conda-forge/cctbx-base-feedstock" xlink:title="cctbx base">
<ellipse fill="#fde725" stroke="black" cx="1051.5" cy="-682" rx="60" ry="18"/>
<text text-anchor="middle" x="1051.5" y="-678.3" font-family="Times,serif" font-size="14.00">cctbx base</text>
</a>
</g>
</g>
<!-- pyside2&#45;&gt;cctbx&#45;base -->
<g id="edge32" class="edge">
<title>pyside2&#45;&gt;cctbx&#45;base</title>
<path fill="none" stroke="black" d="M927.64,-739.67C951.19,-728.89 984.62,-713.6 1010.81,-701.62"/>
<polygon fill="black" stroke="black" points="1012.46,-704.71 1020.1,-697.37 1009.55,-698.34 1012.46,-704.71"/>
</g>
<!-- soqt&#45;&gt;pivy -->
<g id="edge33" class="edge">
<title>soqt&#45;&gt;pivy</title>
<path fill="none" stroke="black" d="M796.21,-736.05C793.24,-728.06 789.62,-718.33 786.31,-709.4"/>
<polygon fill="black" stroke="black" points="789.5,-707.94 782.74,-699.79 782.94,-710.38 789.5,-707.94"/>
</g>
<!-- scalapack -->
<g id="node33" class="node">
<title>scalapack</title>
<g id="a_node33"><a xlink:href="https://github.com/conda-forge/scalapack-feedstock/pull/20" xlink:title="scalapack ❎">
<ellipse fill="#31688e" stroke="black" cx="708.5" cy="-350" rx="69.59" ry="18"/>
<text text-anchor="middle" x="708.5" y="-346.3" font-family="Times,serif" font-size="14.00" fill="white">scalapack ❎</text>
</a>
</g>
</g>
<!-- scalapack&#45;&gt;mumps -->
<g id="edge34" class="edge">
<title>scalapack&#45;&gt;mumps</title>
<path fill="none" stroke="black" d="M708.5,-331.7C708.5,-323.98 708.5,-314.71 708.5,-306.11"/>
<polygon fill="black" stroke="black" points="712,-306.1 708.5,-296.1 705,-306.1 712,-306.1"/>
</g>
<!-- speex -->
<g id="node34" class="node">
<title>speex</title>
<g id="a_node34"><a xlink:href="https://github.com/conda-forge/speex-feedstock/pull/7" xlink:title="speex ❎">
<ellipse fill="#31688e" stroke="black" cx="131.5" cy="-754" rx="52" ry="18"/>
<text text-anchor="middle" x="131.5" y="-750.3" font-family="Times,serif" font-size="14.00" fill="white">speex ❎</text>
</a>
</g>
</g>
<!-- speex&#45;&gt;pulseaudio -->
<g id="edge35" class="edge">
<title>speex&#45;&gt;pulseaudio</title>
<path fill="none" stroke="black" d="M130.9,-735.87C130.04,-711.67 128.48,-667.21 127.46,-638.39"/>
<polygon fill="black" stroke="black" points="130.96,-638.06 127.11,-628.19 123.96,-638.31 130.96,-638.06"/>
</g>
<!-- torchvision -->
<g id="node35" class="node">
<title>torchvision</title>
<g id="a_node35"><a xlink:href="https://github.com/conda-forge/torchvision-feedstock" xlink:title="torchvision">
<ellipse fill="#fde725" stroke="black" cx="1513.5" cy="-610" rx="62.5" ry="18"/>
<text text-anchor="middle" x="1513.5" y="-606.3" font-family="Times,serif" font-size="14.00">torchvision</text>
</a>
</g>
</g>
<!-- torchvision&#45;&gt;allennlp -->
<g id="edge36" class="edge">
<title>torchvision&#45;&gt;allennlp</title>
<path fill="none" stroke="black" d="M1543.83,-594.15C1565.73,-583.43 1595.46,-568.88 1618.88,-557.42"/>
<polygon fill="black" stroke="black" points="1620.72,-560.41 1628.16,-552.87 1617.64,-554.12 1620.72,-560.41"/>
</g>
<!-- smesh -->
<g id="node36" class="node">
<title>smesh</title>
<g id="a_node36"><a xlink:href="https://github.com/conda-forge/smesh-feedstock/pull/48" xlink:title="smesh ❎">
<ellipse fill="#31688e" stroke="black" cx="918.5" cy="-682" rx="54.69" ry="18"/>
<text text-anchor="middle" x="918.5" y="-678.3" font-family="Times,serif" font-size="14.00" fill="white">smesh ❎</text>
</a>
</g>
</g>
<!-- smesh&#45;&gt;freecad -->
<g id="edge37" class="edge">
<title>smesh&#45;&gt;freecad</title>
<path fill="none" stroke="black" d="M918.5,-663.7C918.5,-655.98 918.5,-646.71 918.5,-638.11"/>
<polygon fill="black" stroke="black" points="922,-638.1 918.5,-628.1 915,-638.1 922,-638.1"/>
</g>
<!-- gperftools -->
<g id="node37" class="node">
<title>gperftools</title>
<g id="a_node37"><a xlink:href="https://github.com/conda-forge/gperftools-feedstock/pull/11" xlink:title="gperftools ❎">
<ellipse fill="#31688e" stroke="black" cx="1689.5" cy="-682" rx="72.29" ry="18"/>
<text text-anchor="middle" x="1689.5" y="-678.3" font-family="Times,serif" font-size="14.00" fill="white">gperftools ❎</text>
</a>
</g>
</g>
<!-- sentencepiece -->
<g id="node38" class="node">
<title>sentencepiece</title>
<g id="a_node38"><a xlink:href="https://github.com/conda-forge/sentencepiece-feedstock" xlink:title="sentencepiece">
<ellipse fill="#fde725" stroke="black" cx="1709.5" cy="-610" rx="76.89" ry="18"/>
<text text-anchor="middle" x="1709.5" y="-606.3" font-family="Times,serif" font-size="14.00">sentencepiece</text>
</a>
</g>
</g>
<!-- gperftools&#45;&gt;sentencepiece -->
<g id="edge38" class="edge">
<title>gperftools&#45;&gt;sentencepiece</title>
<path fill="none" stroke="black" d="M1694.44,-663.7C1696.67,-655.9 1699.35,-646.51 1701.83,-637.83"/>
<polygon fill="black" stroke="black" points="1705.23,-638.68 1704.61,-628.1 1698.5,-636.76 1705.23,-638.68"/>
</g>
<!-- sentencepiece&#45;&gt;allennlp -->
<g id="edge39" class="edge">
<title>sentencepiece&#45;&gt;allennlp</title>
<path fill="none" stroke="black" d="M1696.67,-592.05C1690.29,-583.63 1682.45,-573.28 1675.4,-563.97"/>
<polygon fill="black" stroke="black" points="1678.04,-561.65 1669.21,-555.79 1672.46,-565.87 1678.04,-561.65"/>
</g>
<!-- r&#45;vroom -->
<g id="node42" class="node">
<title>r&#45;vroom</title>
<g id="a_node42"><a xlink:href="https://github.com/conda-forge/r-vroom-feedstock/pull/17" xlink:title="r vroom ❎">
<ellipse fill="#31688e" stroke="black" cx="2125.5" cy="-754" rx="61.99" ry="18"/>
<text text-anchor="middle" x="2125.5" y="-750.3" font-family="Times,serif" font-size="14.00" fill="white">r vroom ❎</text>
</a>
</g>
</g>
<!-- ibm_db&#45;&gt;r&#45;vroom -->
<!-- pytorch&#45;cpu -->
<g id="node40" class="node">
<title>pytorch&#45;cpu</title>
<g id="a_node40"><a xlink:href="https://github.com/conda-forge/pytorch-cpu-feedstock" xlink:title="pytorch cpu">
<ellipse fill="#fde725" stroke="black" cx="1533.5" cy="-682" rx="65.79" ry="18"/>
<text text-anchor="middle" x="1533.5" y="-678.3" font-family="Times,serif" font-size="14.00">pytorch cpu</text>
</a>
</g>
</g>
<!-- pytorch&#45;cpu&#45;&gt;allennlp -->
<g id="edge41" class="edge">
<title>pytorch&#45;cpu&#45;&gt;allennlp</title>
<path fill="none" stroke="black" d="M1550.42,-664.17C1560.53,-653.92 1573.51,-640.45 1584.5,-628 1603.15,-606.87 1623.23,-581.84 1637.43,-563.72"/>
<polygon fill="black" stroke="black" points="1640.51,-565.46 1643.9,-555.42 1634.99,-561.16 1640.51,-565.46"/>
</g>
<!-- pytorch&#45;cpu&#45;&gt;torchvision -->
<g id="edge42" class="edge">
<title>pytorch&#45;cpu&#45;&gt;torchvision</title>
<path fill="none" stroke="black" d="M1528.56,-663.7C1526.33,-655.9 1523.65,-646.51 1521.17,-637.83"/>
<polygon fill="black" stroke="black" points="1524.5,-636.76 1518.39,-628.1 1517.77,-638.68 1524.5,-636.76"/>
</g>
<!-- grpcio&#45;gcp -->
<g id="node41" class="node">
<title>grpcio&#45;gcp</title>
<g id="a_node41"><a xlink:href="https://github.com/conda-forge/grpcio-gcp-feedstock/pull/9" xlink:title="grpcio gcp ❎">
<ellipse fill="#31688e" stroke="black" cx="1853.5" cy="-682" rx="73.5" ry="18"/>
<text text-anchor="middle" x="1853.5" y="-678.3" font-family="Times,serif" font-size="14.00" fill="white">grpcio gcp ❎</text>
</a>
</g>
</g>
<!-- grpcio&#45;gcp&#45;&gt;allennlp -->
<g id="edge43" class="edge">
<title>grpcio&#45;gcp&#45;&gt;allennlp</title>
<path fill="none" stroke="black" d="M1846.36,-663.93C1837.27,-644.09 1819.76,-611.57 1795.5,-592 1769.97,-571.4 1735.55,-558.2 1707.35,-550.12"/>
<polygon fill="black" stroke="black" points="1708.23,-546.73 1697.66,-547.47 1706.39,-553.48 1708.23,-546.73"/>
</g>
<!-- nvcc -->
<g id="node43" class="node">
<title>nvcc</title>
<g id="a_node43"><a xlink:href="https://github.com/conda-forge/nvcc-feedstock/pull/67" xlink:title="nvcc ✓">
<ellipse fill="#31688e" stroke="black" cx="2125.5" cy="-682" rx="39" ry="18"/>
<text text-anchor="middle" x="2125.5" y="-678.3" font-family="Times,serif" font-size="14.00" fill="white">nvcc ✓</text>
</a>
</g>
</g>
<!-- r&#45;vroom&#45;&gt;nvcc -->
<!-- proj -->
<g id="node50" class="node">
<title>proj</title>
<g id="a_node50"><a xlink:href="https://github.com/conda-forge/proj-feedstock" xlink:title="proj">
<ellipse fill="#35b779" stroke="black" cx="2125.5" cy="-610" rx="29.5" ry="18"/>
<text text-anchor="middle" x="2125.5" y="-606.3" font-family="Times,serif" font-size="14.00">proj</text>
</a>
</g>
</g>
<!-- nvcc&#45;&gt;proj -->
<!-- cudatoolkit -->
<g id="node44" class="node">
<title>cudatoolkit</title>
<g id="a_node44"><a xlink:href="https://github.com/conda-forge/cudatoolkit-feedstock/pull/4" xlink:title="cudatoolkit ❎">
<ellipse fill="#31688e" stroke="black" cx="1404.5" cy="-826" rx="76.89" ry="18"/>
<text text-anchor="middle" x="1404.5" y="-822.3" font-family="Times,serif" font-size="14.00" fill="white">cudatoolkit ❎</text>
</a>
</g>
</g>
<!-- cudnn -->
<g id="node45" class="node">
<title>cudnn</title>
<g id="a_node45"><a xlink:href="https://github.com/conda-forge/cudnn-feedstock" xlink:title="cudnn">
<ellipse fill="#fde725" stroke="black" cx="1349.5" cy="-754" rx="39" ry="18"/>
<text text-anchor="middle" x="1349.5" y="-750.3" font-family="Times,serif" font-size="14.00">cudnn</text>
</a>
</g>
</g>
<!-- cudatoolkit&#45;&gt;cudnn -->
<g id="edge46" class="edge">
<title>cudatoolkit&#45;&gt;cudnn</title>
<path fill="none" stroke="black" d="M1391.19,-808.05C1384.4,-799.42 1376.03,-788.76 1368.57,-779.27"/>
<polygon fill="black" stroke="black" points="1371.24,-777.01 1362.31,-771.31 1365.74,-781.33 1371.24,-777.01"/>
</g>
<!-- cutensor -->
<g id="node46" class="node">
<title>cutensor</title>
<g id="a_node46"><a xlink:href="https://github.com/conda-forge/cutensor-feedstock" xlink:title="cutensor">
<ellipse fill="#fde725" stroke="black" cx="1458.5" cy="-754" rx="51.5" ry="18"/>
<text text-anchor="middle" x="1458.5" y="-750.3" font-family="Times,serif" font-size="14.00">cutensor</text>
</a>
</g>
</g>
<!-- cudatoolkit&#45;&gt;cutensor -->
<g id="edge47" class="edge">
<title>cudatoolkit&#45;&gt;cutensor</title>
<path fill="none" stroke="black" d="M1417.57,-808.05C1424.07,-799.63 1432.06,-789.28 1439.24,-779.97"/>
<polygon fill="black" stroke="black" points="1442.21,-781.84 1445.55,-771.79 1436.67,-777.57 1442.21,-781.84"/>
</g>
<!-- cudnn&#45;&gt;torchvision -->
<g id="edge48" class="edge">
<title>cudnn&#45;&gt;torchvision</title>
<path fill="none" stroke="black" d="M1367.05,-737.8C1395.81,-712.9 1453.16,-663.25 1486.93,-634.01"/>
<polygon fill="black" stroke="black" points="1489.3,-636.59 1494.57,-627.39 1484.72,-631.29 1489.3,-636.59"/>
</g>
<!-- cudnn&#45;&gt;pytorch&#45;cpu -->
<g id="edge49" class="edge">
<title>cudnn&#45;&gt;pytorch&#45;cpu</title>
<path fill="none" stroke="black" d="M1378.66,-741.91C1407.71,-730.86 1452.78,-713.71 1486.81,-700.76"/>
<polygon fill="black" stroke="black" points="1488.44,-703.89 1496.55,-697.06 1485.95,-697.34 1488.44,-703.89"/>
</g>
<!-- libspnav -->
<g id="node47" class="node">
<title>libspnav</title>
<g id="a_node47"><a xlink:href="https://github.com/conda-forge/libspnav-feedstock/pull/2" xlink:title="libspnav ❎">
<ellipse fill="#31688e" stroke="black" cx="1085.5" cy="-754" rx="63.89" ry="18"/>
<text text-anchor="middle" x="1085.5" y="-750.3" font-family="Times,serif" font-size="14.00" fill="white">libspnav ❎</text>
</a>
</g>
</g>
<!-- libspnav&#45;&gt;freecad -->
<g id="edge50" class="edge">
<title>libspnav&#45;&gt;freecad</title>
<path fill="none" stroke="black" d="M1101.1,-736.51C1117.14,-717.51 1137.54,-686.09 1120.5,-664 1102.4,-640.54 1025.05,-625.43 971.5,-617.57"/>
<polygon fill="black" stroke="black" points="971.86,-614.09 961.47,-616.14 970.87,-621.02 971.86,-614.09"/>
</g>
<!-- libv8 -->
<g id="node48" class="node">
<title>libv8</title>
<g id="a_node48"><a xlink:href="https://github.com/conda-forge/libv8-feedstock/pull/66" xlink:title="libv8 ❎">
<ellipse fill="#31688e" stroke="black" cx="2125.5" cy="-278" rx="48.19" ry="18"/>
<text text-anchor="middle" x="2125.5" y="-274.3" font-family="Times,serif" font-size="14.00" fill="white">libv8 ❎</text>
</a>
</g>
</g>
<!-- r&#45;v8 -->
<g id="node49" class="node">
<title>r&#45;v8</title>
<g id="a_node49"><a xlink:href="https://github.com/conda-forge/r-v8-feedstock" xlink:title="r v8">
<ellipse fill="#fde725" stroke="black" cx="2125.5" cy="-206" rx="29.5" ry="18"/>
<text text-anchor="middle" x="2125.5" y="-202.3" font-family="Times,serif" font-size="14.00">r v8</text>
</a>
</g>
</g>
<!-- libv8&#45;&gt;r&#45;v8 -->
<g id="edge51" class="edge">
<title>libv8&#45;&gt;r&#45;v8</title>
<path fill="none" stroke="black" d="M2125.5,-259.7C2125.5,-251.98 2125.5,-242.71 2125.5,-234.11"/>
<polygon fill="black" stroke="black" points="2129,-234.1 2125.5,-224.1 2122,-234.1 2129,-234.1"/>
</g>
<!-- jaeger -->
<g id="node51" class="node">
<title>jaeger</title>
<g id="a_node51"><a xlink:href="https://github.com/conda-forge/jaeger-feedstock/pull/12" xlink:title="jaeger ❎">
<ellipse fill="#31688e" stroke="black" cx="2125.5" cy="-538" rx="54" ry="18"/>
<text text-anchor="middle" x="2125.5" y="-534.3" font-family="Times,serif" font-size="14.00" fill="white">jaeger ❎</text>
</a>
</g>
</g>
<!-- proj&#45;&gt;jaeger -->
<!-- dm&#45;tree -->
<g id="node53" class="node">
<title>dm&#45;tree</title>
<g id="a_node53"><a xlink:href="https://github.com/conda-forge/dm-tree-feedstock/pull/4" xlink:title="dm tree ❎">
<ellipse fill="#31688e" stroke="black" cx="2125.5" cy="-466" rx="61.99" ry="18"/>
<text text-anchor="middle" x="2125.5" y="-462.3" font-family="Times,serif" font-size="14.00" fill="white">dm tree ❎</text>
</a>
</g>
</g>
<!-- jaeger&#45;&gt;dm&#45;tree -->
<!-- nccl -->
<g id="node52" class="node">
<title>nccl</title>
<g id="a_node52"><a xlink:href="https://github.com/conda-forge/nccl-feedstock/pull/51" xlink:title="nccl ✓">
<ellipse fill="#31688e" stroke="black" cx="1564.5" cy="-754" rx="36.5" ry="18"/>
<text text-anchor="middle" x="1564.5" y="-750.3" font-family="Times,serif" font-size="14.00" fill="white">nccl ✓</text>
</a>
</g>
</g>
<!-- nccl&#45;&gt;pytorch&#45;cpu -->
<g id="edge54" class="edge">
<title>nccl&#45;&gt;pytorch&#45;cpu</title>
<path fill="none" stroke="black" d="M1557,-736.05C1553.47,-728.09 1549.18,-718.41 1545.24,-709.51"/>
<polygon fill="black" stroke="black" points="1548.4,-708 1541.15,-700.28 1542,-710.84 1548.4,-708"/>
</g>
<!-- heaptrack -->
<g id="node55" class="node">
<title>heaptrack</title>
<g id="a_node55"><a xlink:href="https://github.com/conda-forge/heaptrack-feedstock/pull/2" xlink:title="heaptrack ❎">
<ellipse fill="#31688e" stroke="black" cx="2125.5" cy="-394" rx="71.5" ry="18"/>
<text text-anchor="middle" x="2125.5" y="-390.3" font-family="Times,serif" font-size="14.00" fill="white">heaptrack ❎</text>
</a>
</g>
</g>
<!-- dm&#45;tree&#45;&gt;heaptrack -->
<!-- tokenizers -->
<g id="node54" class="node">
<title>tokenizers</title>
<g id="a_node54"><a xlink:href="https://github.com/conda-forge/tokenizers-feedstock/pull/18" xlink:title="tokenizers ❎">
<ellipse fill="#31688e" stroke="black" cx="1955.5" cy="-754" rx="73.5" ry="18"/>
<text text-anchor="middle" x="1955.5" y="-750.3" font-family="Times,serif" font-size="14.00" fill="white">tokenizers ❎</text>
</a>
</g>
</g>
<!-- tokenizers&#45;&gt;allennlp -->
<g id="edge57" class="edge">
<title>tokenizers&#45;&gt;allennlp</title>
<path fill="none" stroke="black" d="M1955.38,-735.75C1954.44,-716.61 1950.48,-685.61 1935.5,-664 1883.84,-589.47 1776.85,-558.74 1711.41,-546.55"/>
<polygon fill="black" stroke="black" points="1711.74,-543.05 1701.28,-544.75 1710.51,-549.95 1711.74,-543.05"/>
</g>
<!-- magma -->
<g id="node56" class="node">
<title>magma</title>
<g id="a_node56"><a xlink:href="https://github.com/conda-forge/magma-feedstock/pull/9" xlink:title="magma ✓">
<ellipse fill="#31688e" stroke="black" cx="1629.5" cy="-826" rx="52" ry="18"/>
<text text-anchor="middle" x="1629.5" y="-822.3" font-family="Times,serif" font-size="14.00" fill="white">magma ✓</text>
</a>
</g>
</g>
<!-- magma&#45;&gt;pytorch&#45;cpu -->
<g id="edge59" class="edge">
<title>magma&#45;&gt;pytorch&#45;cpu</title>
<path fill="none" stroke="black" d="M1629.26,-807.83C1628.22,-788.77 1624.16,-757.82 1609.5,-736 1600.52,-722.64 1586.95,-711.62 1573.75,-703.16"/>
<polygon fill="black" stroke="black" points="1575.54,-700.16 1565.18,-697.97 1571.92,-706.14 1575.54,-700.16"/>
</g>
</g>
</svg>
