<?xml version="1.0" encoding="UTF-8" standalone="no"?>
<!DOCTYPE svg PUBLIC "-//W3C//DTD SVG 1.1//EN"
 "http://www.w3.org/Graphics/SVG/1.1/DTD/svg11.dtd">
<!-- Generated by graphviz version 2.42.3 (20191010.1750)
 -->
<!-- Title: %3 Pages: 1 -->
<svg width="2159pt" height="1140pt"
 viewBox="0.00 0.00 2159.34 1140.00" xmlns="http://www.w3.org/2000/svg" xmlns:xlink="http://www.w3.org/1999/xlink">
<g id="graph0" class="graph" transform="scale(1 1) rotate(0) translate(4 1136)">
<title>%3</title>
<polygon fill="white" stroke="transparent" points="-4,4 -4,-1136 2155.34,-1136 2155.34,4 -4,4"/>
<!-- aiohttp -->
<g id="node1" class="node">
<title>aiohttp</title>
<g id="a_node1"><a xlink:href="https://github.com/conda-forge/aiohttp-feedstock" xlink:title="aiohttp">
<ellipse fill="#fde725" stroke="black" cx="511.15" cy="-898" rx="35.19" ry="18"/>
<text text-anchor="middle" x="511.15" y="-894.3" font-family="Times,serif" font-size="14.00">aiohttp</text>
</a>
</g>
</g>
<!-- black -->
<g id="node2" class="node">
<title>black</title>
<g id="a_node2"><a xlink:href="https://github.com/conda-forge/black-feedstock" xlink:title="black">
<ellipse fill="#fde725" stroke="black" cx="511.15" cy="-826" rx="30" ry="18"/>
<text text-anchor="middle" x="511.15" y="-822.3" font-family="Times,serif" font-size="14.00">black</text>
</a>
</g>
</g>
<!-- aiohttp&#45;&gt;black -->
<g id="edge1" class="edge">
<title>aiohttp&#45;&gt;black</title>
<path fill="none" stroke="black" d="M505.27,-880.05C504.44,-872.23 504.2,-862.75 504.56,-853.98"/>
<polygon fill="black" stroke="black" points="508.06,-854.01 505.28,-843.79 501.08,-853.51 508.06,-854.01"/>
</g>
<!-- black&#45;&gt;aiohttp -->
<g id="edge2" class="edge">
<title>black&#45;&gt;aiohttp</title>
<path fill="none" stroke="black" d="M517.01,-843.79C517.85,-851.59 518.09,-861.07 517.74,-869.85"/>
<polygon fill="black" stroke="black" points="514.24,-869.83 517.02,-880.05 521.22,-870.33 514.24,-869.83"/>
</g>
<!-- hyperspy -->
<g id="node3" class="node">
<title>hyperspy</title>
<g id="a_node3"><a xlink:href="https://github.com/conda-forge/hyperspy-feedstock" xlink:title="hyperspy">
<ellipse fill="#fde725" stroke="black" cx="835.15" cy="-754" rx="43" ry="18"/>
<text text-anchor="middle" x="835.15" y="-750.3" font-family="Times,serif" font-size="14.00">hyperspy</text>
</a>
</g>
</g>
<!-- black&#45;&gt;hyperspy -->
<g id="edge3" class="edge">
<title>black&#45;&gt;hyperspy</title>
<path fill="none" stroke="black" d="M539.99,-820.58C589.95,-812.67 695.61,-794.75 783.15,-772 786.51,-771.13 789.98,-770.15 793.45,-769.13"/>
<polygon fill="black" stroke="black" points="794.62,-772.43 803.15,-766.15 792.57,-765.74 794.62,-772.43"/>
</g>
<!-- nbgrader -->
<g id="node4" class="node">
<title>nbgrader</title>
<g id="a_node4"><a xlink:href="https://github.com/conda-forge/nbgrader-feedstock" xlink:title="nbgrader">
<ellipse fill="#fde725" stroke="black" cx="732.15" cy="-754" rx="42.49" ry="18"/>
<text text-anchor="middle" x="732.15" y="-750.3" font-family="Times,serif" font-size="14.00">nbgrader</text>
</a>
</g>
</g>
<!-- black&#45;&gt;nbgrader -->
<g id="edge4" class="edge">
<title>black&#45;&gt;nbgrader</title>
<path fill="none" stroke="black" d="M537.41,-816.99C570.85,-806.74 630.39,-788.37 681.15,-772 684.21,-771.01 687.38,-769.98 690.56,-768.94"/>
<polygon fill="black" stroke="black" points="691.68,-772.25 700.07,-765.8 689.48,-765.61 691.68,-772.25"/>
</g>
<!-- allennlp -->
<g id="node5" class="node">
<title>allennlp</title>
<g id="a_node5"><a xlink:href="https://github.com/conda-forge/allennlp-feedstock" xlink:title="allennlp">
<ellipse fill="#fde725" stroke="black" cx="447.15" cy="-682" rx="39" ry="18"/>
<text text-anchor="middle" x="447.15" y="-678.3" font-family="Times,serif" font-size="14.00">allennlp</text>
</a>
</g>
</g>
<!-- black&#45;&gt;allennlp -->
<g id="edge5" class="edge">
<title>black&#45;&gt;allennlp</title>
<path fill="none" stroke="black" d="M506.79,-808.12C501.78,-789.85 492.72,-760.11 481.15,-736 476.58,-726.49 470.63,-716.62 464.98,-708.01"/>
<polygon fill="black" stroke="black" points="467.77,-705.9 459.28,-699.57 461.97,-709.82 467.77,-705.9"/>
</g>
<!-- jupyter_server -->
<g id="node6" class="node">
<title>jupyter_server</title>
<g id="a_node6"><a xlink:href="https://github.com/conda-forge/jupyter_server-feedstock" xlink:title="jupyter_server">
<ellipse fill="#fde725" stroke="black" cx="174.15" cy="-610" rx="61.99" ry="18"/>
<text text-anchor="middle" x="174.15" y="-606.3" font-family="Times,serif" font-size="14.00">jupyter_server</text>
</a>
</g>
</g>
<!-- black&#45;&gt;jupyter_server -->
<g id="edge6" class="edge">
<title>black&#45;&gt;jupyter_server</title>
<path fill="none" stroke="black" d="M483.92,-817.93C470.51,-814.6 454.05,-810.78 439.15,-808 381.37,-797.24 216.18,-815.93 177.15,-772 144.53,-735.29 155.26,-673.15 165.21,-637.77"/>
<polygon fill="black" stroke="black" points="168.58,-638.71 168.09,-628.12 161.87,-636.7 168.58,-638.71"/>
</g>
<!-- pytorch&#45;cpu -->
<g id="node7" class="node">
<title>pytorch&#45;cpu</title>
<g id="a_node7"><a xlink:href="https://github.com/conda-forge/pytorch-cpu-feedstock" xlink:title="pytorch cpu">
<ellipse fill="#fde725" stroke="black" cx="619.15" cy="-754" rx="52.79" ry="18"/>
<text text-anchor="middle" x="619.15" y="-750.3" font-family="Times,serif" font-size="14.00">pytorch cpu</text>
</a>
</g>
</g>
<!-- black&#45;&gt;pytorch&#45;cpu -->
<g id="edge7" class="edge">
<title>black&#45;&gt;pytorch&#45;cpu</title>
<path fill="none" stroke="black" d="M530.7,-812.32C546.38,-802.17 568.69,-787.7 586.98,-775.85"/>
<polygon fill="black" stroke="black" points="589.1,-778.64 595.59,-770.27 585.3,-772.77 589.1,-778.64"/>
</g>
<!-- anyio -->
<g id="node8" class="node">
<title>anyio</title>
<g id="a_node8"><a xlink:href="https://github.com/conda-forge/anyio-feedstock" xlink:title="anyio">
<ellipse fill="#fde725" stroke="black" cx="281.15" cy="-682" rx="30.59" ry="18"/>
<text text-anchor="middle" x="281.15" y="-678.3" font-family="Times,serif" font-size="14.00">anyio</text>
</a>
</g>
</g>
<!-- black&#45;&gt;anyio -->
<g id="edge8" class="edge">
<title>black&#45;&gt;anyio</title>
<path fill="none" stroke="black" d="M484.27,-817.95C445.12,-807.36 374.71,-786.98 353.15,-772 328.94,-755.19 308.62,-727.99 295.8,-708.08"/>
<polygon fill="black" stroke="black" points="298.72,-706.14 290.46,-699.51 292.78,-709.84 298.72,-706.14"/>
</g>
<!-- dm&#45;tree -->
<g id="node9" class="node">
<title>dm&#45;tree</title>
<g id="a_node9"><a xlink:href="https://github.com/conda-forge/dm-tree-feedstock" xlink:title="dm tree">
<ellipse fill="#fde725" stroke="black" cx="538.15" cy="-610" rx="38.5" ry="18"/>
<text text-anchor="middle" x="538.15" y="-606.3" font-family="Times,serif" font-size="14.00">dm tree</text>
</a>
</g>
</g>
<!-- black&#45;&gt;dm&#45;tree -->
<g id="edge9" class="edge">
<title>black&#45;&gt;dm&#45;tree</title>
<path fill="none" stroke="black" d="M513.31,-807.85C517.98,-770.83 529.04,-683.18 534.69,-638.39"/>
<polygon fill="black" stroke="black" points="538.19,-638.59 535.97,-628.23 531.25,-637.72 538.19,-638.59"/>
</g>
<!-- pytorch&#45;cpu&#45;&gt;allennlp -->
<g id="edge43" class="edge">
<title>pytorch&#45;cpu&#45;&gt;allennlp</title>
<path fill="none" stroke="black" d="M586.39,-739.67C557.45,-727.89 515.26,-710.72 484.91,-698.37"/>
<polygon fill="black" stroke="black" points="486.09,-695.07 475.51,-694.54 483.45,-701.55 486.09,-695.07"/>
</g>
<!-- anyio&#45;&gt;jupyter_server -->
<g id="edge44" class="edge">
<title>anyio&#45;&gt;jupyter_server</title>
<path fill="none" stroke="black" d="M261.52,-668.16C246.17,-658.12 224.51,-643.95 206.59,-632.23"/>
<polygon fill="black" stroke="black" points="208.43,-629.24 198.14,-626.7 204.59,-635.1 208.43,-629.24"/>
</g>
<!-- astroscrappy -->
<g id="node10" class="node">
<title>astroscrappy</title>
<g id="a_node10"><a xlink:href="https://github.com/conda-forge/astroscrappy-feedstock/pull/11" xlink:title="astroscrappy ❎">
<ellipse fill="#31688e" stroke="black" cx="2081.15" cy="-1114" rx="67" ry="18"/>
<text text-anchor="middle" x="2081.15" y="-1110.3" font-family="Times,serif" font-size="14.00" fill="white">astroscrappy ❎</text>
</a>
</g>
</g>
<!-- pypy2.7 -->
<g id="node11" class="node">
<title>pypy2.7</title>
<g id="a_node11"><a xlink:href="https://github.com/conda-forge/pypy2.7-feedstock/pull/3" xlink:title="pypy2 7 ❎">
<ellipse fill="#31688e" stroke="black" cx="2081.15" cy="-1042" rx="51.5" ry="18"/>
<text text-anchor="middle" x="2081.15" y="-1038.3" font-family="Times,serif" font-size="14.00" fill="white">pypy2 7 ❎</text>
</a>
</g>
</g>
<!-- astroscrappy&#45;&gt;pypy2.7 -->
<!-- root_numpy -->
<g id="node40" class="node">
<title>root_numpy</title>
<g id="a_node40"><a xlink:href="https://github.com/conda-forge/root_numpy-feedstock/pull/19" xlink:title="root_numpy ❎">
<ellipse fill="#31688e" stroke="black" cx="2081.15" cy="-970" rx="65.79" ry="18"/>
<text text-anchor="middle" x="2081.15" y="-966.3" font-family="Times,serif" font-size="14.00" fill="white">root_numpy ❎</text>
</a>
</g>
</g>
<!-- pypy2.7&#45;&gt;root_numpy -->
<!-- elfutils -->
<g id="node12" class="node">
<title>elfutils</title>
<g id="a_node12"><a xlink:href="https://github.com/conda-forge/elfutils-feedstock/pull/20" xlink:title="elfutils ❎">
<ellipse fill="#31688e" stroke="black" cx="388.15" cy="-898" rx="47" ry="18"/>
<text text-anchor="middle" x="388.15" y="-894.3" font-family="Times,serif" font-size="14.00" fill="white">elfutils ❎</text>
</a>
</g>
</g>
<!-- heaptrack -->
<g id="node13" class="node">
<title>heaptrack</title>
<g id="a_node13"><a xlink:href="https://github.com/conda-forge/heaptrack-feedstock" xlink:title="heaptrack">
<ellipse fill="#fde725" stroke="black" cx="385.15" cy="-826" rx="45" ry="18"/>
<text text-anchor="middle" x="385.15" y="-822.3" font-family="Times,serif" font-size="14.00">heaptrack</text>
</a>
</g>
</g>
<!-- elfutils&#45;&gt;heaptrack -->
<g id="edge11" class="edge">
<title>elfutils&#45;&gt;heaptrack</title>
<path fill="none" stroke="black" d="M387.4,-879.7C387.07,-871.98 386.68,-862.71 386.31,-854.11"/>
<polygon fill="black" stroke="black" points="389.8,-853.95 385.88,-844.1 382.81,-854.25 389.8,-853.95"/>
</g>
<!-- fastparquet -->
<g id="node14" class="node">
<title>fastparquet</title>
<g id="a_node14"><a xlink:href="https://github.com/conda-forge/fastparquet-feedstock" xlink:title="fastparquet">
<ellipse fill="#fde725" stroke="black" cx="2081.15" cy="-242" rx="50.09" ry="18"/>
<text text-anchor="middle" x="2081.15" y="-238.3" font-family="Times,serif" font-size="14.00">fastparquet</text>
</a>
</g>
</g>
<!-- gdal -->
<g id="node15" class="node">
<title>gdal</title>
<g id="a_node15"><a xlink:href="https://github.com/conda-forge/gdal-feedstock" xlink:title="gdal">
<ellipse fill="#fde725" stroke="black" cx="665.15" cy="-278" rx="27" ry="18"/>
<text text-anchor="middle" x="665.15" y="-274.3" font-family="Times,serif" font-size="14.00">gdal</text>
</a>
</g>
</g>
<!-- kealib -->
<g id="node16" class="node">
<title>kealib</title>
<g id="a_node16"><a xlink:href="https://github.com/conda-forge/kealib-feedstock" xlink:title="kealib">
<ellipse fill="#fde725" stroke="black" cx="665.15" cy="-206" rx="32.5" ry="18"/>
<text text-anchor="middle" x="665.15" y="-202.3" font-family="Times,serif" font-size="14.00">kealib</text>
</a>
</g>
</g>
<!-- gdal&#45;&gt;kealib -->
<g id="edge12" class="edge">
<title>gdal&#45;&gt;kealib</title>
<path fill="none" stroke="black" d="M659.31,-260.41C658.44,-252.51 658.19,-242.85 658.56,-233.94"/>
<polygon fill="black" stroke="black" points="662.05,-234.18 659.27,-223.96 655.07,-233.68 662.05,-234.18"/>
</g>
<!-- r&#45;sf -->
<g id="node17" class="node">
<title>r&#45;sf</title>
<g id="a_node17"><a xlink:href="https://github.com/conda-forge/r-sf-feedstock" xlink:title="r sf">
<ellipse fill="#fde725" stroke="black" cx="586.15" cy="-206" rx="27" ry="18"/>
<text text-anchor="middle" x="586.15" y="-202.3" font-family="Times,serif" font-size="14.00">r sf</text>
</a>
</g>
</g>
<!-- gdal&#45;&gt;r&#45;sf -->
<g id="edge13" class="edge">
<title>gdal&#45;&gt;r&#45;sf</title>
<path fill="none" stroke="black" d="M649.54,-263.17C638.07,-253.01 622.29,-239.03 609.35,-227.56"/>
<polygon fill="black" stroke="black" points="611.53,-224.81 601.72,-220.8 606.88,-230.05 611.53,-224.81"/>
</g>
<!-- kealib&#45;&gt;gdal -->
<g id="edge14" class="edge">
<title>kealib&#45;&gt;gdal</title>
<path fill="none" stroke="black" d="M671.03,-223.96C671.86,-231.83 672.09,-241.37 671.73,-250.19"/>
<polygon fill="black" stroke="black" points="668.22,-250.18 670.99,-260.41 675.2,-250.69 668.22,-250.18"/>
</g>
<!-- r&#45;spdep -->
<g id="node18" class="node">
<title>r&#45;spdep</title>
<g id="a_node18"><a xlink:href="https://github.com/conda-forge/r-spdep-feedstock" xlink:title="r spdep">
<ellipse fill="#fde725" stroke="black" cx="586.15" cy="-134" rx="36.5" ry="18"/>
<text text-anchor="middle" x="586.15" y="-130.3" font-family="Times,serif" font-size="14.00">r spdep</text>
</a>
</g>
</g>
<!-- r&#45;sf&#45;&gt;r&#45;spdep -->
<g id="edge15" class="edge">
<title>r&#45;sf&#45;&gt;r&#45;spdep</title>
<path fill="none" stroke="black" d="M586.15,-187.7C586.15,-179.98 586.15,-170.71 586.15,-162.11"/>
<polygon fill="black" stroke="black" points="589.65,-162.1 586.15,-152.1 582.65,-162.1 589.65,-162.1"/>
</g>
<!-- geos -->
<g id="node19" class="node">
<title>geos</title>
<g id="a_node19"><a xlink:href="https://github.com/conda-forge/geos-feedstock/pull/47" xlink:title="geos ❎">
<ellipse fill="#31688e" stroke="black" cx="665.15" cy="-422" rx="38.5" ry="18"/>
<text text-anchor="middle" x="665.15" y="-418.3" font-family="Times,serif" font-size="14.00" fill="white">geos ❎</text>
</a>
</g>
</g>
<!-- geos&#45;&gt;gdal -->
<g id="edge16" class="edge">
<title>geos&#45;&gt;gdal</title>
<path fill="none" stroke="black" d="M656.65,-404.31C651.94,-394.11 646.56,-380.64 644.15,-368 641.15,-352.28 641.15,-347.72 644.15,-332 645.91,-322.78 649.25,-313.11 652.75,-304.6"/>
<polygon fill="black" stroke="black" points="656.05,-305.79 656.86,-295.23 649.64,-302.98 656.05,-305.79"/>
</g>
<!-- libspatialite -->
<g id="node20" class="node">
<title>libspatialite</title>
<g id="a_node20"><a xlink:href="https://github.com/conda-forge/libspatialite-feedstock" xlink:title="libspatialite">
<ellipse fill="#fde725" stroke="black" cx="705.15" cy="-350" rx="52" ry="18"/>
<text text-anchor="middle" x="705.15" y="-346.3" font-family="Times,serif" font-size="14.00">libspatialite</text>
</a>
</g>
</g>
<!-- geos&#45;&gt;libspatialite -->
<g id="edge17" class="edge">
<title>geos&#45;&gt;libspatialite</title>
<path fill="none" stroke="black" d="M674.63,-404.41C679.34,-396.16 685.14,-386.01 690.42,-376.78"/>
<polygon fill="black" stroke="black" points="693.53,-378.38 695.46,-367.96 687.46,-374.9 693.53,-378.38"/>
</g>
<!-- libspatialite&#45;&gt;gdal -->
<g id="edge18" class="edge">
<title>libspatialite&#45;&gt;gdal</title>
<path fill="none" stroke="black" d="M695.46,-332.05C690.68,-323.68 684.81,-313.4 679.51,-304.13"/>
<polygon fill="black" stroke="black" points="682.46,-302.25 674.46,-295.31 676.39,-305.73 682.46,-302.25"/>
</g>
<!-- libunwind -->
<g id="node21" class="node">
<title>libunwind</title>
<g id="a_node21"><a xlink:href="https://github.com/conda-forge/libunwind-feedstock/pull/14" xlink:title="libunwind ❎">
<ellipse fill="#31688e" stroke="black" cx="265.15" cy="-898" rx="58" ry="18"/>
<text text-anchor="middle" x="265.15" y="-894.3" font-family="Times,serif" font-size="14.00" fill="white">libunwind ❎</text>
</a>
</g>
</g>
<!-- libunwind&#45;&gt;heaptrack -->
<g id="edge19" class="edge">
<title>libunwind&#45;&gt;heaptrack</title>
<path fill="none" stroke="black" d="M291.18,-881.81C309.04,-871.4 332.87,-857.49 352.07,-846.3"/>
<polygon fill="black" stroke="black" points="353.92,-849.27 360.79,-841.21 350.39,-843.22 353.92,-849.27"/>
</g>
<!-- gperftools -->
<g id="node22" class="node">
<title>gperftools</title>
<g id="a_node22"><a xlink:href="https://github.com/conda-forge/gperftools-feedstock" xlink:title="gperftools">
<ellipse fill="#fde725" stroke="black" cx="269.15" cy="-826" rx="46.29" ry="18"/>
<text text-anchor="middle" x="269.15" y="-822.3" font-family="Times,serif" font-size="14.00">gperftools</text>
</a>
</g>
</g>
<!-- libunwind&#45;&gt;gperftools -->
<g id="edge20" class="edge">
<title>libunwind&#45;&gt;gperftools</title>
<path fill="none" stroke="black" d="M266.13,-879.7C266.58,-871.98 267.11,-862.71 267.6,-854.11"/>
<polygon fill="black" stroke="black" points="271.09,-854.29 268.17,-844.1 264.1,-853.89 271.09,-854.29"/>
</g>
<!-- py&#45;spy -->
<g id="node23" class="node">
<title>py&#45;spy</title>
<g id="a_node23"><a xlink:href="https://github.com/conda-forge/py-spy-feedstock/pull/11" xlink:title="py spy ❎">
<ellipse fill="#31688e" stroke="black" cx="46.15" cy="-754" rx="46.29" ry="18"/>
<text text-anchor="middle" x="46.15" y="-750.3" font-family="Times,serif" font-size="14.00" fill="white">py spy ❎</text>
</a>
</g>
</g>
<!-- libunwind&#45;&gt;py&#45;spy -->
<g id="edge21" class="edge">
<title>libunwind&#45;&gt;py&#45;spy</title>
<path fill="none" stroke="black" d="M208.2,-894.33C167.26,-889.51 113.3,-876.81 78.15,-844 60.95,-827.95 52.98,-801.99 49.29,-782.24"/>
<polygon fill="black" stroke="black" points="52.74,-781.61 47.69,-772.29 45.82,-782.72 52.74,-781.61"/>
</g>
<!-- sentencepiece -->
<g id="node24" class="node">
<title>sentencepiece</title>
<g id="a_node24"><a xlink:href="https://github.com/conda-forge/sentencepiece-feedstock" xlink:title="sentencepiece">
<ellipse fill="#fde725" stroke="black" cx="246.15" cy="-754" rx="60" ry="18"/>
<text text-anchor="middle" x="246.15" y="-750.3" font-family="Times,serif" font-size="14.00">sentencepiece</text>
</a>
</g>
</g>
<!-- gperftools&#45;&gt;sentencepiece -->
<g id="edge22" class="edge">
<title>gperftools&#45;&gt;sentencepiece</title>
<path fill="none" stroke="black" d="M263.58,-808.05C260.99,-800.18 257.85,-790.62 254.95,-781.79"/>
<polygon fill="black" stroke="black" points="258.27,-780.68 251.82,-772.28 251.62,-782.87 258.27,-780.68"/>
</g>
<!-- sentencepiece&#45;&gt;allennlp -->
<g id="edge45" class="edge">
<title>sentencepiece&#45;&gt;allennlp</title>
<path fill="none" stroke="black" d="M283.95,-739.83C319.19,-727.56 371.55,-709.33 407.4,-696.84"/>
<polygon fill="black" stroke="black" points="408.75,-700.08 417.05,-693.48 406.45,-693.47 408.75,-700.08"/>
</g>
<!-- mono -->
<g id="node25" class="node">
<title>mono</title>
<g id="a_node25"><a xlink:href="https://github.com/conda-forge/mono-feedstock/pull/18" xlink:title="mono ❎">
<ellipse fill="#31688e" stroke="black" cx="1681.15" cy="-90" rx="43" ry="18"/>
<text text-anchor="middle" x="1681.15" y="-86.3" font-family="Times,serif" font-size="14.00" fill="white">mono ❎</text>
</a>
</g>
</g>
<!-- ogre -->
<g id="node26" class="node">
<title>ogre</title>
<g id="a_node26"><a xlink:href="https://github.com/conda-forge/ogre-feedstock" xlink:title="ogre">
<ellipse fill="#fde725" stroke="black" cx="1681.15" cy="-18" rx="27" ry="18"/>
<text text-anchor="middle" x="1681.15" y="-14.3" font-family="Times,serif" font-size="14.00">ogre</text>
</a>
</g>
</g>
<!-- mono&#45;&gt;ogre -->
<g id="edge23" class="edge">
<title>mono&#45;&gt;ogre</title>
<path fill="none" stroke="black" d="M1681.15,-71.7C1681.15,-63.98 1681.15,-54.71 1681.15,-46.11"/>
<polygon fill="black" stroke="black" points="1684.65,-46.1 1681.15,-36.1 1677.65,-46.1 1684.65,-46.1"/>
</g>
<!-- nltk_data -->
<g id="node27" class="node">
<title>nltk_data</title>
<g id="a_node27"><a xlink:href="https://github.com/conda-forge/nltk_data-feedstock/pull/5" xlink:title="nltk_data ❎">
<ellipse fill="#31688e" stroke="black" cx="417.15" cy="-754" rx="55.49" ry="18"/>
<text text-anchor="middle" x="417.15" y="-750.3" font-family="Times,serif" font-size="14.00" fill="white">nltk_data ❎</text>
</a>
</g>
</g>
<!-- nltk_data&#45;&gt;allennlp -->
<g id="edge24" class="edge">
<title>nltk_data&#45;&gt;allennlp</title>
<path fill="none" stroke="black" d="M424.41,-736.05C427.87,-727.97 432.09,-718.12 435.96,-709.11"/>
<polygon fill="black" stroke="black" points="439.23,-710.36 439.95,-699.79 432.79,-707.6 439.23,-710.36"/>
</g>
<!-- pyqt -->
<g id="node28" class="node">
<title>pyqt</title>
<g id="a_node28"><a xlink:href="https://github.com/conda-forge/pyqt-feedstock" xlink:title="pyqt">
<ellipse fill="#fde725" stroke="black" cx="906.15" cy="-826" rx="27" ry="18"/>
<text text-anchor="middle" x="906.15" y="-822.3" font-family="Times,serif" font-size="14.00">pyqt</text>
</a>
</g>
</g>
<!-- pyqt&#45;&gt;hyperspy -->
<g id="edge25" class="edge">
<title>pyqt&#45;&gt;hyperspy</title>
<path fill="none" stroke="black" d="M891.43,-810.5C881.93,-801.13 869.36,-788.73 858.5,-778.03"/>
<polygon fill="black" stroke="black" points="860.9,-775.48 851.32,-770.95 855.99,-780.46 860.9,-775.48"/>
</g>
<!-- pyqt&#45;&gt;nbgrader -->
<g id="edge26" class="edge">
<title>pyqt&#45;&gt;nbgrader</title>
<path fill="none" stroke="black" d="M883.4,-815.85C854.94,-804.4 805.75,-784.61 771.21,-770.72"/>
<polygon fill="black" stroke="black" points="772.47,-767.45 761.89,-766.97 769.86,-773.95 772.47,-767.45"/>
</g>
<!-- pyqt&#45;&gt;allennlp -->
<g id="edge27" class="edge">
<title>pyqt&#45;&gt;allennlp</title>
<path fill="none" stroke="black" d="M907.87,-807.75C908.85,-787.42 906.98,-754.11 887.15,-736 858.63,-709.95 604.21,-692.16 495.76,-685.7"/>
<polygon fill="black" stroke="black" points="495.92,-682.2 485.73,-685.11 495.51,-689.19 495.92,-682.2"/>
</g>
<!-- pythonocc&#45;core -->
<g id="node29" class="node">
<title>pythonocc&#45;core</title>
<g id="a_node29"><a xlink:href="https://github.com/conda-forge/pythonocc-core-feedstock" xlink:title="pythonocc core">
<ellipse fill="#fde725" stroke="black" cx="999.15" cy="-754" rx="65" ry="18"/>
<text text-anchor="middle" x="999.15" y="-750.3" font-family="Times,serif" font-size="14.00">pythonocc core</text>
</a>
</g>
</g>
<!-- pyqt&#45;&gt;pythonocc&#45;core -->
<g id="edge28" class="edge">
<title>pyqt&#45;&gt;pythonocc&#45;core</title>
<path fill="none" stroke="black" d="M923.64,-811.83C936.6,-802.08 954.57,-788.55 969.73,-777.14"/>
<polygon fill="black" stroke="black" points="971.93,-779.87 977.81,-771.06 967.72,-774.27 971.93,-779.87"/>
</g>
<!-- qt -->
<g id="node30" class="node">
<title>qt</title>
<g id="a_node30"><a xlink:href="https://github.com/conda-forge/qt-feedstock/pull/168" xlink:title="qt ❎">
<ellipse fill="#31688e" stroke="black" cx="1203.15" cy="-898" rx="29.5" ry="18"/>
<text text-anchor="middle" x="1203.15" y="-894.3" font-family="Times,serif" font-size="14.00" fill="white">qt ❎</text>
</a>
</g>
</g>
<!-- qt&#45;&gt;pyqt -->
<g id="edge29" class="edge">
<title>qt&#45;&gt;pyqt</title>
<path fill="none" stroke="black" d="M1175.09,-892.36C1128.52,-884.36 1032.5,-866.65 953.15,-844 948.39,-842.64 943.42,-841.05 938.57,-839.39"/>
<polygon fill="black" stroke="black" points="939.48,-836 928.89,-835.94 937.14,-842.59 939.48,-836"/>
</g>
<!-- pivy -->
<g id="node31" class="node">
<title>pivy</title>
<g id="a_node31"><a xlink:href="https://github.com/conda-forge/pivy-feedstock" xlink:title="pivy">
<ellipse fill="#fde725" stroke="black" cx="1311.15" cy="-754" rx="27" ry="18"/>
<text text-anchor="middle" x="1311.15" y="-750.3" font-family="Times,serif" font-size="14.00">pivy</text>
</a>
</g>
</g>
<!-- qt&#45;&gt;pivy -->
<g id="edge30" class="edge">
<title>qt&#45;&gt;pivy</title>
<path fill="none" stroke="black" d="M1217.61,-882.19C1227.46,-871.83 1240.58,-857.49 1251.15,-844 1267.56,-823.04 1284.34,-797.76 1295.97,-779.5"/>
<polygon fill="black" stroke="black" points="1299.02,-781.23 1301.39,-770.91 1293.1,-777.5 1299.02,-781.23"/>
</g>
<!-- pyside2 -->
<g id="node32" class="node">
<title>pyside2</title>
<g id="a_node32"><a xlink:href="https://github.com/conda-forge/pyside2-feedstock" xlink:title="pyside2">
<ellipse fill="#fde725" stroke="black" cx="1203.15" cy="-826" rx="38.5" ry="18"/>
<text text-anchor="middle" x="1203.15" y="-822.3" font-family="Times,serif" font-size="14.00">pyside2</text>
</a>
</g>
</g>
<!-- qt&#45;&gt;pyside2 -->
<g id="edge31" class="edge">
<title>qt&#45;&gt;pyside2</title>
<path fill="none" stroke="black" d="M1203.15,-879.7C1203.15,-871.98 1203.15,-862.71 1203.15,-854.11"/>
<polygon fill="black" stroke="black" points="1206.65,-854.1 1203.15,-844.1 1199.65,-854.1 1206.65,-854.1"/>
</g>
<!-- soqt -->
<g id="node33" class="node">
<title>soqt</title>
<g id="a_node33"><a xlink:href="https://github.com/conda-forge/soqt-feedstock" xlink:title="soqt">
<ellipse fill="#fde725" stroke="black" cx="1325.15" cy="-826" rx="27" ry="18"/>
<text text-anchor="middle" x="1325.15" y="-822.3" font-family="Times,serif" font-size="14.00">soqt</text>
</a>
</g>
</g>
<!-- qt&#45;&gt;soqt -->
<g id="edge32" class="edge">
<title>qt&#45;&gt;soqt</title>
<path fill="none" stroke="black" d="M1223.84,-885.13C1243.8,-873.67 1274.17,-856.25 1296.46,-843.46"/>
<polygon fill="black" stroke="black" points="1298.23,-846.48 1305.16,-838.47 1294.74,-840.41 1298.23,-846.48"/>
</g>
<!-- geant4 -->
<g id="node34" class="node">
<title>geant4</title>
<g id="a_node34"><a xlink:href="https://github.com/conda-forge/geant4-feedstock" xlink:title="geant4">
<ellipse fill="#fde725" stroke="black" cx="1117.15" cy="-754" rx="34.5" ry="18"/>
<text text-anchor="middle" x="1117.15" y="-750.3" font-family="Times,serif" font-size="14.00">geant4</text>
</a>
</g>
</g>
<!-- qt&#45;&gt;geant4 -->
<g id="edge33" class="edge">
<title>qt&#45;&gt;geant4</title>
<path fill="none" stroke="black" d="M1187.79,-882.27C1177.86,-872.17 1165.16,-858.09 1156.15,-844 1143.49,-824.22 1133.06,-799.63 1126.19,-781.31"/>
<polygon fill="black" stroke="black" points="1129.45,-780.05 1122.74,-771.85 1122.87,-782.45 1129.45,-780.05"/>
</g>
<!-- pyside2&#45;&gt;pivy -->
<g id="edge34" class="edge">
<title>pyside2&#45;&gt;pivy</title>
<path fill="none" stroke="black" d="M1224.74,-811C1241.78,-799.96 1265.64,-784.5 1283.97,-772.62"/>
<polygon fill="black" stroke="black" points="1285.98,-775.48 1292.47,-767.11 1282.17,-769.61 1285.98,-775.48"/>
</g>
<!-- cctbx&#45;base -->
<g id="node35" class="node">
<title>cctbx&#45;base</title>
<g id="a_node35"><a xlink:href="https://github.com/conda-forge/cctbx-base-feedstock" xlink:title="cctbx base">
<ellipse fill="#fde725" stroke="black" cx="1218.15" cy="-754" rx="48.19" ry="18"/>
<text text-anchor="middle" x="1218.15" y="-750.3" font-family="Times,serif" font-size="14.00">cctbx base</text>
</a>
</g>
</g>
<!-- pyside2&#45;&gt;cctbx&#45;base -->
<g id="edge35" class="edge">
<title>pyside2&#45;&gt;cctbx&#45;base</title>
<path fill="none" stroke="black" d="M1206.78,-808.05C1208.45,-800.26 1210.47,-790.82 1212.34,-782.08"/>
<polygon fill="black" stroke="black" points="1215.77,-782.79 1214.44,-772.28 1208.93,-781.32 1215.77,-782.79"/>
</g>
<!-- soqt&#45;&gt;pivy -->
<g id="edge36" class="edge">
<title>soqt&#45;&gt;pivy</title>
<path fill="none" stroke="black" d="M1321.76,-808.05C1320.22,-800.35 1318.35,-791.03 1316.62,-782.36"/>
<polygon fill="black" stroke="black" points="1319.99,-781.39 1314.6,-772.28 1313.13,-782.77 1319.99,-781.39"/>
</g>
<!-- r&#45;units -->
<g id="node36" class="node">
<title>r&#45;units</title>
<g id="a_node36"><a xlink:href="https://github.com/conda-forge/r-units-feedstock" xlink:title="r units">
<ellipse fill="#fde725" stroke="black" cx="585.15" cy="-278" rx="33.29" ry="18"/>
<text text-anchor="middle" x="585.15" y="-274.3" font-family="Times,serif" font-size="14.00">r units</text>
</a>
</g>
</g>
<!-- r&#45;units&#45;&gt;r&#45;sf -->
<g id="edge37" class="edge">
<title>r&#45;units&#45;&gt;r&#45;sf</title>
<path fill="none" stroke="black" d="M585.39,-259.7C585.5,-251.98 585.64,-242.71 585.76,-234.11"/>
<polygon fill="black" stroke="black" points="589.26,-234.15 585.9,-224.1 582.26,-234.05 589.26,-234.15"/>
</g>
<!-- singularity -->
<g id="node37" class="node">
<title>singularity</title>
<g id="a_node37"><a xlink:href="https://github.com/conda-forge/singularity-feedstock" xlink:title="singularity">
<ellipse fill="#fde725" stroke="black" cx="676.15" cy="-18" rx="48.19" ry="18"/>
<text text-anchor="middle" x="676.15" y="-14.3" font-family="Times,serif" font-size="14.00">singularity</text>
</a>
</g>
</g>
<!-- thrift -->
<g id="node38" class="node">
<title>thrift</title>
<g id="a_node38"><a xlink:href="https://github.com/conda-forge/thrift-feedstock/pull/17" xlink:title="thrift ✓">
<ellipse fill="#31688e" stroke="black" cx="2081.15" cy="-314" rx="38.5" ry="18"/>
<text text-anchor="middle" x="2081.15" y="-310.3" font-family="Times,serif" font-size="14.00" fill="white">thrift ✓</text>
</a>
</g>
</g>
<!-- thrift&#45;&gt;fastparquet -->
<g id="edge38" class="edge">
<title>thrift&#45;&gt;fastparquet</title>
<path fill="none" stroke="black" d="M2081.15,-295.7C2081.15,-287.98 2081.15,-278.71 2081.15,-270.11"/>
<polygon fill="black" stroke="black" points="2084.65,-270.1 2081.15,-260.1 2077.65,-270.1 2084.65,-270.1"/>
</g>
<!-- udunits2 -->
<g id="node39" class="node">
<title>udunits2</title>
<g id="a_node39"><a xlink:href="https://github.com/conda-forge/udunits2-feedstock/pull/39" xlink:title="udunits2 ❎">
<ellipse fill="#31688e" stroke="black" cx="544.15" cy="-350" rx="52.79" ry="18"/>
<text text-anchor="middle" x="544.15" y="-346.3" font-family="Times,serif" font-size="14.00" fill="white">udunits2 ❎</text>
</a>
</g>
</g>
<!-- udunits2&#45;&gt;r&#45;units -->
<g id="edge39" class="edge">
<title>udunits2&#45;&gt;r&#45;units</title>
<path fill="none" stroke="black" d="M554.07,-332.05C558.98,-323.68 565,-313.4 570.42,-304.13"/>
<polygon fill="black" stroke="black" points="573.56,-305.7 575.59,-295.31 567.52,-302.17 573.56,-305.7"/>
</g>
<!-- ibm_db -->
<g id="node43" class="node">
<title>ibm_db</title>
<g id="a_node43"><a xlink:href="https://github.com/conda-forge/ibm_db-feedstock/pull/10" xlink:title="ibm_db ❎">
<ellipse fill="#31688e" stroke="black" cx="2081.15" cy="-898" rx="50.09" ry="18"/>
<text text-anchor="middle" x="2081.15" y="-894.3" font-family="Times,serif" font-size="14.00" fill="white">ibm_db ❎</text>
</a>
</g>
</g>
<!-- root_numpy&#45;&gt;ibm_db -->
<!-- tiledb -->
<g id="node41" class="node">
<title>tiledb</title>
<g id="a_node41"><a xlink:href="https://github.com/conda-forge/tiledb-feedstock/pull/95" xlink:title="tiledb ❎">
<ellipse fill="#31688e" stroke="black" cx="817.15" cy="-350" rx="42.49" ry="18"/>
<text text-anchor="middle" x="817.15" y="-346.3" font-family="Times,serif" font-size="14.00" fill="white">tiledb ❎</text>
</a>
</g>
</g>
<!-- tiledb&#45;&gt;gdal -->
<g id="edge41" class="edge">
<title>tiledb&#45;&gt;gdal</title>
<path fill="none" stroke="black" d="M789.62,-336.32C763.29,-324.2 723.65,-305.94 696.21,-293.3"/>
<polygon fill="black" stroke="black" points="697.6,-290.09 687.05,-289.09 694.67,-296.45 697.6,-290.09"/>
</g>
<!-- occt -->
<g id="node42" class="node">
<title>occt</title>
<g id="a_node42"><a xlink:href="https://github.com/conda-forge/occt-feedstock/pull/59" xlink:title="occt ❎">
<ellipse fill="#31688e" stroke="black" cx="999.15" cy="-826" rx="37.09" ry="18"/>
<text text-anchor="middle" x="999.15" y="-822.3" font-family="Times,serif" font-size="14.00" fill="white">occt ❎</text>
</a>
</g>
</g>
<!-- occt&#45;&gt;pythonocc&#45;core -->
<g id="edge42" class="edge">
<title>occt&#45;&gt;pythonocc&#45;core</title>
<path fill="none" stroke="black" d="M999.15,-807.7C999.15,-799.98 999.15,-790.71 999.15,-782.11"/>
<polygon fill="black" stroke="black" points="1002.65,-782.1 999.15,-772.1 995.65,-782.1 1002.65,-782.1"/>
</g>
<!-- cudatoolkit -->
<g id="node47" class="node">
<title>cudatoolkit</title>
<g id="a_node47"><a xlink:href="https://github.com/conda-forge/cudatoolkit-feedstock/pull/4" xlink:title="cudatoolkit ❎">
<ellipse fill="#31688e" stroke="black" cx="2081.15" cy="-826" rx="61.99" ry="18"/>
<text text-anchor="middle" x="2081.15" y="-822.3" font-family="Times,serif" font-size="14.00" fill="white">cudatoolkit ❎</text>
</a>
</g>
</g>
<!-- ibm_db&#45;&gt;cudatoolkit -->
<!-- go&#45;dep -->
<g id="node44" class="node">
<title>go&#45;dep</title>
<g id="a_node44"><a xlink:href="https://github.com/conda-forge/go-dep-feedstock/pull/12" xlink:title="go dep ❎">
<ellipse fill="#31688e" stroke="black" cx="676.15" cy="-90" rx="46.29" ry="18"/>
<text text-anchor="middle" x="676.15" y="-86.3" font-family="Times,serif" font-size="14.00" fill="white">go dep ❎</text>
</a>
</g>
</g>
<!-- go&#45;dep&#45;&gt;singularity -->
<g id="edge47" class="edge">
<title>go&#45;dep&#45;&gt;singularity</title>
<path fill="none" stroke="black" d="M676.15,-71.7C676.15,-63.98 676.15,-54.71 676.15,-46.11"/>
<polygon fill="black" stroke="black" points="679.65,-46.1 676.15,-36.1 672.65,-46.1 679.65,-46.1"/>
</g>
<!-- procps&#45;ng -->
<g id="node45" class="node">
<title>procps&#45;ng</title>
<g id="a_node45"><a xlink:href="https://github.com/conda-forge/procps-ng-feedstock/pull/3" xlink:title="procps ng ✓">
<ellipse fill="#31688e" stroke="black" cx="1681.15" cy="-314" rx="56" ry="18"/>
<text text-anchor="middle" x="1681.15" y="-310.3" font-family="Times,serif" font-size="14.00" fill="white">procps ng ✓</text>
</a>
</g>
</g>
<!-- myproxy -->
<g id="node46" class="node">
<title>myproxy</title>
<g id="a_node46"><a xlink:href="https://github.com/conda-forge/myproxy-feedstock" xlink:title="myproxy">
<ellipse fill="#fde725" stroke="black" cx="1681.15" cy="-242" rx="43" ry="18"/>
<text text-anchor="middle" x="1681.15" y="-238.3" font-family="Times,serif" font-size="14.00">myproxy</text>
</a>
</g>
</g>
<!-- procps&#45;ng&#45;&gt;myproxy -->
<g id="edge48" class="edge">
<title>procps&#45;ng&#45;&gt;myproxy</title>
<path fill="none" stroke="black" d="M1681.15,-295.7C1681.15,-287.98 1681.15,-278.71 1681.15,-270.11"/>
<polygon fill="black" stroke="black" points="1684.65,-270.1 1681.15,-260.1 1677.65,-270.1 1684.65,-270.1"/>
</g>
<!-- libusb -->
<g id="node48" class="node">
<title>libusb</title>
<g id="a_node48"><a xlink:href="https://github.com/conda-forge/libusb-feedstock/pull/8" xlink:title="libusb ❎">
<ellipse fill="#31688e" stroke="black" cx="2081.15" cy="-754" rx="44.39" ry="18"/>
<text text-anchor="middle" x="2081.15" y="-750.3" font-family="Times,serif" font-size="14.00" fill="white">libusb ❎</text>
</a>
</g>
</g>
<!-- cudatoolkit&#45;&gt;libusb -->
<!-- nvcc -->
<g id="node49" class="node">
<title>nvcc</title>
<g id="a_node49"><a xlink:href="https://github.com/conda-forge/nvcc-feedstock/pull/62" xlink:title="nvcc ✓">
<ellipse fill="#31688e" stroke="black" cx="2081.15" cy="-682" rx="37.89" ry="18"/>
<text text-anchor="middle" x="2081.15" y="-678.3" font-family="Times,serif" font-size="14.00" fill="white">nvcc ✓</text>
</a>
</g>
</g>
<!-- libusb&#45;&gt;nvcc -->
<!-- proj -->
<g id="node50" class="node">
<title>proj</title>
<g id="a_node50"><a xlink:href="https://github.com/conda-forge/proj-feedstock" xlink:title="proj">
<ellipse fill="#35b779" stroke="black" cx="2081.15" cy="-610" rx="27" ry="18"/>
<text text-anchor="middle" x="2081.15" y="-606.3" font-family="Times,serif" font-size="14.00">proj</text>
</a>
</g>
</g>
<!-- nvcc&#45;&gt;proj -->
<!-- ompl -->
<g id="node51" class="node">
<title>ompl</title>
<g id="a_node51"><a xlink:href="https://github.com/conda-forge/ompl-feedstock/pull/8" xlink:title="ompl ❎">
<ellipse fill="#31688e" stroke="black" cx="2081.15" cy="-538" rx="41" ry="18"/>
<text text-anchor="middle" x="2081.15" y="-534.3" font-family="Times,serif" font-size="14.00" fill="white">ompl ❎</text>
</a>
</g>
</g>
<!-- proj&#45;&gt;ompl -->
<!-- nordugrid&#45;arc -->
<g id="node60" class="node">
<title>nordugrid&#45;arc</title>
<g id="a_node60"><a xlink:href="https://github.com/conda-forge/nordugrid-arc-feedstock/pull/14" xlink:title="nordugrid arc ❎">
<ellipse fill="#31688e" stroke="black" cx="2081.15" cy="-466" rx="70.39" ry="18"/>
<text text-anchor="middle" x="2081.15" y="-462.3" font-family="Times,serif" font-size="14.00" fill="white">nordugrid arc ❎</text>
</a>
</g>
</g>
<!-- ompl&#45;&gt;nordugrid&#45;arc -->
<!-- libignition&#45;transport4 -->
<g id="node52" class="node">
<title>libignition&#45;transport4</title>
<g id="a_node52"><a xlink:href="https://github.com/conda-forge/libignition-transport4-feedstock" xlink:title="libignition transport4">
<ellipse fill="#fde725" stroke="black" cx="1445.15" cy="-682" rx="85.29" ry="18"/>
<text text-anchor="middle" x="1445.15" y="-678.3" font-family="Times,serif" font-size="14.00">libignition transport4</text>
</a>
</g>
</g>
<!-- libignition&#45;msgs1 -->
<g id="node53" class="node">
<title>libignition&#45;msgs1</title>
<g id="a_node53"><a xlink:href="https://github.com/conda-forge/libignition-msgs1-feedstock/pull/20" xlink:title="libignition msgs1 ✓">
<ellipse fill="#31688e" stroke="black" cx="1447.15" cy="-754" rx="83.39" ry="18"/>
<text text-anchor="middle" x="1447.15" y="-750.3" font-family="Times,serif" font-size="14.00" fill="white">libignition msgs1 ✓</text>
</a>
</g>
</g>
<!-- libignition&#45;msgs1&#45;&gt;libignition&#45;transport4 -->
<g id="edge54" class="edge">
<title>libignition&#45;msgs1&#45;&gt;libignition&#45;transport4</title>
<path fill="none" stroke="black" d="M1446.65,-735.7C1446.43,-727.98 1446.17,-718.71 1445.92,-710.11"/>
<polygon fill="black" stroke="black" points="1449.42,-710 1445.63,-700.1 1442.42,-710.2 1449.42,-710"/>
</g>
<!-- libignition&#45;fuel&#45;tools -->
<g id="node54" class="node">
<title>libignition&#45;fuel&#45;tools</title>
<g id="a_node54"><a xlink:href="https://github.com/conda-forge/libignition-fuel-tools-feedstock" xlink:title="libignition fuel tools">
<ellipse fill="#fde725" stroke="black" cx="1631.15" cy="-682" rx="83.39" ry="18"/>
<text text-anchor="middle" x="1631.15" y="-678.3" font-family="Times,serif" font-size="14.00">libignition fuel tools</text>
</a>
</g>
</g>
<!-- libignition&#45;msgs1&#45;&gt;libignition&#45;fuel&#45;tools -->
<g id="edge55" class="edge">
<title>libignition&#45;msgs1&#45;&gt;libignition&#45;fuel&#45;tools</title>
<path fill="none" stroke="black" d="M1486.62,-737.98C1514.63,-727.33 1552.42,-712.95 1582.33,-701.57"/>
<polygon fill="black" stroke="black" points="1583.64,-704.82 1591.74,-697.99 1581.15,-698.28 1583.64,-704.82"/>
</g>
<!-- nccl -->
<g id="node55" class="node">
<title>nccl</title>
<g id="a_node55"><a xlink:href="https://github.com/conda-forge/nccl-feedstock/pull/29" xlink:title="nccl ❎">
<ellipse fill="#31688e" stroke="black" cx="745.15" cy="-826" rx="37.09" ry="18"/>
<text text-anchor="middle" x="745.15" y="-822.3" font-family="Times,serif" font-size="14.00" fill="white">nccl ❎</text>
</a>
</g>
</g>
<!-- nccl&#45;&gt;pytorch&#45;cpu -->
<g id="edge56" class="edge">
<title>nccl&#45;&gt;pytorch&#45;cpu</title>
<path fill="none" stroke="black" d="M721.74,-812C702.81,-801.48 675.86,-786.51 654.33,-774.55"/>
<polygon fill="black" stroke="black" points="655.91,-771.42 645.47,-769.63 652.52,-777.54 655.91,-771.42"/>
</g>
<!-- libsdformat -->
<g id="node56" class="node">
<title>libsdformat</title>
<g id="a_node56"><a xlink:href="https://github.com/conda-forge/libsdformat-feedstock/pull/21" xlink:title="libsdformat ✓">
<ellipse fill="#31688e" stroke="black" cx="1830.15" cy="-754" rx="61.99" ry="18"/>
<text text-anchor="middle" x="1830.15" y="-750.3" font-family="Times,serif" font-size="14.00" fill="white">libsdformat ✓</text>
</a>
</g>
</g>
<!-- libignition&#45;physics -->
<g id="node57" class="node">
<title>libignition&#45;physics</title>
<g id="a_node57"><a xlink:href="https://github.com/conda-forge/libignition-physics-feedstock" xlink:title="libignition physics">
<ellipse fill="#fde725" stroke="black" cx="1819.15" cy="-682" rx="76.09" ry="18"/>
<text text-anchor="middle" x="1819.15" y="-678.3" font-family="Times,serif" font-size="14.00">libignition physics</text>
</a>
</g>
</g>
<!-- libsdformat&#45;&gt;libignition&#45;physics -->
<g id="edge57" class="edge">
<title>libsdformat&#45;&gt;libignition&#45;physics</title>
<path fill="none" stroke="black" d="M1827.43,-735.7C1826.21,-727.98 1824.76,-718.71 1823.41,-710.11"/>
<polygon fill="black" stroke="black" points="1826.84,-709.44 1821.83,-700.1 1819.93,-710.53 1826.84,-709.44"/>
</g>
<!-- cudnn -->
<g id="node58" class="node">
<title>cudnn</title>
<g id="a_node58"><a xlink:href="https://github.com/conda-forge/cudnn-feedstock/pull/9" xlink:title="cudnn ❎">
<ellipse fill="#31688e" stroke="black" cx="608.15" cy="-898" rx="44.39" ry="18"/>
<text text-anchor="middle" x="608.15" y="-894.3" font-family="Times,serif" font-size="14.00" fill="white">cudnn ❎</text>
</a>
</g>
</g>
<!-- cudnn&#45;&gt;pytorch&#45;cpu -->
<g id="edge58" class="edge">
<title>cudnn&#45;&gt;pytorch&#45;cpu</title>
<path fill="none" stroke="black" d="M609.47,-879.87C611.35,-855.67 614.79,-811.21 617.02,-782.39"/>
<polygon fill="black" stroke="black" points="620.53,-782.43 617.81,-772.19 613.55,-781.89 620.53,-782.43"/>
</g>
<!-- libignition&#45;common -->
<g id="node59" class="node">
<title>libignition&#45;common</title>
<g id="a_node59"><a xlink:href="https://github.com/conda-forge/libignition-common-feedstock" xlink:title="libignition common">
<ellipse fill="#fde725" stroke="black" cx="1631.15" cy="-754" rx="81.49" ry="18"/>
<text text-anchor="middle" x="1631.15" y="-750.3" font-family="Times,serif" font-size="14.00">libignition common</text>
</a>
</g>
</g>
<!-- libignition&#45;common&#45;&gt;libignition&#45;fuel&#45;tools -->
<g id="edge59" class="edge">
<title>libignition&#45;common&#45;&gt;libignition&#45;fuel&#45;tools</title>
<path fill="none" stroke="black" d="M1631.15,-735.7C1631.15,-727.98 1631.15,-718.71 1631.15,-710.11"/>
<polygon fill="black" stroke="black" points="1634.65,-710.1 1631.15,-700.1 1627.65,-710.1 1634.65,-710.1"/>
</g>
<!-- libignition&#45;common&#45;&gt;libignition&#45;physics -->
<g id="edge60" class="edge">
<title>libignition&#45;common&#45;&gt;libignition&#45;physics</title>
<path fill="none" stroke="black" d="M1671.02,-738.15C1700,-727.36 1739.4,-712.69 1770.28,-701.2"/>
<polygon fill="black" stroke="black" points="1771.83,-704.35 1779.98,-697.58 1769.39,-697.79 1771.83,-704.35"/>
</g>
<!-- gts -->
<g id="node61" class="node">
<title>gts</title>
<g id="a_node61"><a xlink:href="https://github.com/conda-forge/gts-feedstock/pull/3" xlink:title="gts ✓">
<ellipse fill="#31688e" stroke="black" cx="1631.15" cy="-826" rx="31.4" ry="18"/>
<text text-anchor="middle" x="1631.15" y="-822.3" font-family="Times,serif" font-size="14.00" fill="white">gts ✓</text>
</a>
</g>
</g>
<!-- gts&#45;&gt;libignition&#45;common -->
<g id="edge62" class="edge">
<title>gts&#45;&gt;libignition&#45;common</title>
<path fill="none" stroke="black" d="M1631.15,-807.7C1631.15,-799.98 1631.15,-790.71 1631.15,-782.11"/>
<polygon fill="black" stroke="black" points="1634.65,-782.1 1631.15,-772.1 1627.65,-782.1 1634.65,-782.1"/>
</g>
<!-- libignition&#45;plugin -->
<g id="node62" class="node">
<title>libignition&#45;plugin</title>
<g id="a_node62"><a xlink:href="https://github.com/conda-forge/libignition-plugin-feedstock/pull/4" xlink:title="libignition plugin ✓">
<ellipse fill="#31688e" stroke="black" cx="1920.15" cy="-826" rx="82.59" ry="18"/>
<text text-anchor="middle" x="1920.15" y="-822.3" font-family="Times,serif" font-size="14.00" fill="white">libignition plugin ✓</text>
</a>
</g>
</g>
<!-- libignition&#45;plugin&#45;&gt;libignition&#45;physics -->
<g id="edge63" class="edge">
<title>libignition&#45;plugin&#45;&gt;libignition&#45;physics</title>
<path fill="none" stroke="black" d="M1920.27,-807.74C1919.6,-788.6 1916.03,-757.59 1901.15,-736 1891.75,-722.38 1877.6,-711.44 1863.68,-703.12"/>
<polygon fill="black" stroke="black" points="1865.06,-699.87 1854.62,-698.02 1861.63,-705.97 1865.06,-699.87"/>
</g>
<!-- tokenizers -->
<g id="node63" class="node">
<title>tokenizers</title>
<g id="a_node63"><a xlink:href="https://github.com/conda-forge/tokenizers-feedstock/pull/14" xlink:title="tokenizers ❎">
<ellipse fill="#31688e" stroke="black" cx="146.15" cy="-826" rx="58.5" ry="18"/>
<text text-anchor="middle" x="146.15" y="-822.3" font-family="Times,serif" font-size="14.00" fill="white">tokenizers ❎</text>
</a>
</g>
</g>
<!-- tokenizers&#45;&gt;allennlp -->
<g id="edge64" class="edge">
<title>tokenizers&#45;&gt;allennlp</title>
<path fill="none" stroke="black" d="M147.18,-807.79C149.36,-787.5 156.14,-754.23 177.15,-736 193.82,-721.53 327.27,-700.31 400.1,-689.64"/>
<polygon fill="black" stroke="black" points="400.99,-693.05 410.39,-688.15 399.99,-686.12 400.99,-693.05"/>
</g>
<!-- dartsim -->
<g id="node64" class="node">
<title>dartsim</title>
<g id="a_node64"><a xlink:href="https://github.com/conda-forge/dartsim-feedstock/pull/5" xlink:title="dartsim ❎">
<ellipse fill="#31688e" stroke="black" cx="1740.15" cy="-898" rx="49.5" ry="18"/>
<text text-anchor="middle" x="1740.15" y="-894.3" font-family="Times,serif" font-size="14.00" fill="white">dartsim ❎</text>
</a>
</g>
</g>
<!-- dartsim&#45;&gt;libignition&#45;physics -->
<g id="edge65" class="edge">
<title>dartsim&#45;&gt;libignition&#45;physics</title>
<path fill="none" stroke="black" d="M1738.34,-879.86C1735.89,-849.11 1734.34,-783.37 1759.15,-736 1765.35,-724.15 1775.38,-713.71 1785.47,-705.31"/>
<polygon fill="black" stroke="black" points="1787.79,-707.94 1793.5,-699.01 1783.47,-702.43 1787.79,-707.94"/>
</g>
<!-- magma -->
<g id="node65" class="node">
<title>magma</title>
<g id="a_node65"><a xlink:href="https://github.com/conda-forge/magma-feedstock/pull/4" xlink:title="magma ✓">
<ellipse fill="#31688e" stroke="black" cx="680.15" cy="-970" rx="48.19" ry="18"/>
<text text-anchor="middle" x="680.15" y="-966.3" font-family="Times,serif" font-size="14.00" fill="white">magma ✓</text>
</a>
</g>
</g>
<!-- magma&#45;&gt;pytorch&#45;cpu -->
<g id="edge66" class="edge">
<title>magma&#45;&gt;pytorch&#45;cpu</title>
<path fill="none" stroke="black" d="M677.08,-951.8C673.72,-933.77 667.9,-904.69 661.15,-880 651.74,-845.65 638.26,-806.89 629.12,-781.76"/>
<polygon fill="black" stroke="black" points="632.35,-780.38 625.62,-772.2 625.77,-782.79 632.35,-780.38"/>
</g>
</g>
</svg>
