<?xml version="1.0" encoding="UTF-8" standalone="no"?>
<!DOCTYPE svg PUBLIC "-//W3C//DTD SVG 1.1//EN"
 "http://www.w3.org/Graphics/SVG/1.1/DTD/svg11.dtd">
<!-- Generated by graphviz version 7.0.6 (20230107.1202)
 -->
<!-- Pages: 1 -->
<svg width="2502pt" height="1544pt"
 viewBox="0.00 0.00 2501.69 1544.00" xmlns="http://www.w3.org/2000/svg" xmlns:xlink="http://www.w3.org/1999/xlink">
<g id="graph0" class="graph" transform="scale(1 1) rotate(0) translate(4 1540)">
<polygon fill="white" stroke="none" points="-4,4 -4,-1540 2497.69,-1540 2497.69,4 -4,4"/>
<!-- hyperspy -->
<g id="node1" class="node">
<title>hyperspy</title>
<g id="a_node1"><a xlink:href="https://github.com/conda-forge/hyperspy-feedstock" xlink:title="hyperspy">
<ellipse fill="#fde725" stroke="black" cx="2352" cy="-1518" rx="54" ry="18"/>
<text text-anchor="middle" x="2352" y="-1514.3" font-family="Times,serif" font-size="14.00">hyperspy</text>
</a>
</g>
</g>
<!-- implicit -->
<g id="node2" class="node">
<title>implicit</title>
<g id="a_node2"><a xlink:href="https://github.com/conda-forge/implicit-feedstock/pull/52" xlink:title="implicit ❎">
<ellipse fill="#31688e" stroke="black" cx="2352" cy="-1446" rx="60" ry="18"/>
<text text-anchor="middle" x="2352" y="-1442.3" font-family="Times,serif" font-size="14.00" fill="white">implicit ❎</text>
</a>
</g>
</g>
<!-- hyperspy&#45;&gt;implicit -->
<!-- orange3 -->
<g id="node3" class="node">
<title>orange3</title>
<g id="a_node3"><a xlink:href="https://github.com/conda-forge/orange3-feedstock" xlink:title="orange3">
<ellipse fill="#fde725" stroke="black" cx="2352" cy="-1374" rx="48.99" ry="18"/>
<text text-anchor="middle" x="2352" y="-1370.3" font-family="Times,serif" font-size="14.00">orange3</text>
</a>
</g>
</g>
<!-- implicit&#45;&gt;orange3 -->
<!-- parcels -->
<g id="node6" class="node">
<title>parcels</title>
<g id="a_node6"><a xlink:href="https://github.com/conda-forge/parcels-feedstock/pull/89" xlink:title="parcels ❎">
<ellipse fill="#31688e" stroke="black" cx="2352" cy="-1302" rx="58.5" ry="18"/>
<text text-anchor="middle" x="2352" y="-1298.3" font-family="Times,serif" font-size="14.00" fill="white">parcels ❎</text>
</a>
</g>
</g>
<!-- orange3&#45;&gt;parcels -->
<!-- julia -->
<g id="node4" class="node">
<title>julia</title>
<g id="a_node4"><a xlink:href="https://github.com/conda-forge/julia-feedstock/pull/218" xlink:title="julia ❎">
<ellipse fill="#31688e" stroke="black" cx="1312" cy="-1266" rx="45" ry="18"/>
<text text-anchor="middle" x="1312" y="-1262.3" font-family="Times,serif" font-size="14.00" fill="white">julia ❎</text>
</a>
</g>
</g>
<!-- octave -->
<g id="node5" class="node">
<title>octave</title>
<g id="a_node5"><a xlink:href="https://github.com/conda-forge/octave-feedstock" xlink:title="octave">
<ellipse fill="#fde725" stroke="black" cx="983" cy="-134" rx="41" ry="18"/>
<text text-anchor="middle" x="983" y="-130.3" font-family="Times,serif" font-size="14.00">octave</text>
</a>
</g>
</g>
<!-- pyfai -->
<g id="node7" class="node">
<title>pyfai</title>
<g id="a_node7"><a xlink:href="https://github.com/conda-forge/pyfai-feedstock" xlink:title="pyfai">
<ellipse fill="#fde725" stroke="black" cx="2352" cy="-1230" rx="34" ry="18"/>
<text text-anchor="middle" x="2352" y="-1226.3" font-family="Times,serif" font-size="14.00">pyfai</text>
</a>
</g>
</g>
<!-- parcels&#45;&gt;pyfai -->
<!-- spyder -->
<g id="node8" class="node">
<title>spyder</title>
<g id="a_node8"><a xlink:href="https://github.com/conda-forge/spyder-feedstock" xlink:title="spyder">
<ellipse fill="#fde725" stroke="black" cx="2352" cy="-1158" rx="42.49" ry="18"/>
<text text-anchor="middle" x="2352" y="-1154.3" font-family="Times,serif" font-size="14.00">spyder</text>
</a>
</g>
</g>
<!-- pyfai&#45;&gt;spyder -->
<!-- pivy -->
<g id="node12" class="node">
<title>pivy</title>
<g id="a_node12"><a xlink:href="https://github.com/conda-forge/pivy-feedstock" xlink:title="pivy">
<ellipse fill="#fde725" stroke="black" cx="2352" cy="-1086" rx="30.59" ry="18"/>
<text text-anchor="middle" x="2352" y="-1082.3" font-family="Times,serif" font-size="14.00">pivy</text>
</a>
</g>
</g>
<!-- spyder&#45;&gt;pivy -->
<!-- pyferret -->
<g id="node9" class="node">
<title>pyferret</title>
<g id="a_node9"><a xlink:href="https://github.com/conda-forge/pyferret-feedstock" xlink:title="pyferret">
<ellipse fill="#fde725" stroke="black" cx="62" cy="-1266" rx="48.99" ry="18"/>
<text text-anchor="middle" x="62" y="-1262.3" font-family="Times,serif" font-size="14.00">pyferret</text>
</a>
</g>
</g>
<!-- pyqt -->
<g id="node10" class="node">
<title>pyqt</title>
<g id="a_node10"><a xlink:href="https://github.com/conda-forge/pyqt-feedstock" xlink:title="pyqt">
<ellipse fill="#fde725" stroke="black" cx="32" cy="-1338" rx="32" ry="18"/>
<text text-anchor="middle" x="32" y="-1334.3" font-family="Times,serif" font-size="14.00">pyqt</text>
</a>
</g>
</g>
<!-- pyqt&#45;&gt;pyferret -->
<g id="edge6" class="edge">
<title>pyqt&#45;&gt;pyferret</title>
<path fill="none" stroke="black" d="M39.26,-1320.05C42.53,-1312.43 46.47,-1303.23 50.15,-1294.65"/>
<polygon fill="black" stroke="black" points="53.28,-1296.24 54,-1285.67 46.84,-1293.48 53.28,-1296.24"/>
</g>
<!-- qscintilla2 -->
<g id="node11" class="node">
<title>qscintilla2</title>
<g id="a_node11"><a xlink:href="https://github.com/conda-forge/qscintilla2-feedstock" xlink:title="qscintilla2">
<ellipse fill="#fde725" stroke="black" cx="983" cy="-206" rx="59.29" ry="18"/>
<text text-anchor="middle" x="983" y="-202.3" font-family="Times,serif" font-size="14.00">qscintilla2</text>
</a>
</g>
</g>
<!-- qscintilla2&#45;&gt;octave -->
<g id="edge7" class="edge">
<title>qscintilla2&#45;&gt;octave</title>
<path fill="none" stroke="black" d="M983,-187.7C983,-180.41 983,-171.73 983,-163.54"/>
<polygon fill="black" stroke="black" points="986.5,-163.62 983,-153.62 979.5,-163.62 986.5,-163.62"/>
</g>
<!-- freecad -->
<g id="node18" class="node">
<title>freecad</title>
<g id="a_node18"><a xlink:href="https://github.com/conda-forge/freecad-feedstock" xlink:title="freecad">
<ellipse fill="#fde725" stroke="black" cx="2352" cy="-1014" rx="45.5" ry="18"/>
<text text-anchor="middle" x="2352" y="-1010.3" font-family="Times,serif" font-size="14.00">freecad</text>
</a>
</g>
</g>
<!-- pivy&#45;&gt;freecad -->
<!-- stack -->
<g id="node13" class="node">
<title>stack</title>
<g id="a_node13"><a xlink:href="https://github.com/conda-forge/stack-feedstock/pull/35" xlink:title="stack ❎">
<ellipse fill="#31688e" stroke="black" cx="2089" cy="-206" rx="49.5" ry="18"/>
<text text-anchor="middle" x="2089" y="-202.3" font-family="Times,serif" font-size="14.00" fill="white">stack ❎</text>
</a>
</g>
</g>
<!-- shellcheck -->
<g id="node14" class="node">
<title>shellcheck</title>
<g id="a_node14"><a xlink:href="https://github.com/conda-forge/shellcheck-feedstock" xlink:title="shellcheck">
<ellipse fill="#fde725" stroke="black" cx="2089" cy="-134" rx="59.29" ry="18"/>
<text text-anchor="middle" x="2089" y="-130.3" font-family="Times,serif" font-size="14.00">shellcheck</text>
</a>
</g>
</g>
<!-- stack&#45;&gt;shellcheck -->
<g id="edge9" class="edge">
<title>stack&#45;&gt;shellcheck</title>
<path fill="none" stroke="black" d="M2089,-187.7C2089,-180.41 2089,-171.73 2089,-163.54"/>
<polygon fill="black" stroke="black" points="2092.5,-163.62 2089,-153.62 2085.5,-163.62 2092.5,-163.62"/>
</g>
<!-- torchvision -->
<g id="node15" class="node">
<title>torchvision</title>
<g id="a_node15"><a xlink:href="https://github.com/conda-forge/torchvision-feedstock" xlink:title="torchvision">
<ellipse fill="#fde725" stroke="black" cx="894" cy="-1194" rx="62.5" ry="18"/>
<text text-anchor="middle" x="894" y="-1190.3" font-family="Times,serif" font-size="14.00">torchvision</text>
</a>
</g>
</g>
<!-- allennlp -->
<g id="node16" class="node">
<title>allennlp</title>
<g id="a_node16"><a xlink:href="https://github.com/conda-forge/allennlp-feedstock" xlink:title="allennlp">
<ellipse fill="#fde725" stroke="black" cx="984" cy="-1050" rx="48.19" ry="18"/>
<text text-anchor="middle" x="984" y="-1046.3" font-family="Times,serif" font-size="14.00">allennlp</text>
</a>
</g>
</g>
<!-- torchvision&#45;&gt;allennlp -->
<g id="edge10" class="edge">
<title>torchvision&#45;&gt;allennlp</title>
<path fill="none" stroke="black" d="M886.84,-1175.94C880.09,-1156.98 872.81,-1126.12 886,-1104 896.81,-1085.86 916.23,-1073.55 934.94,-1065.4"/>
<polygon fill="black" stroke="black" points="936.11,-1068.7 944.1,-1061.74 933.51,-1062.2 936.11,-1068.7"/>
</g>
<!-- fairscale -->
<g id="node17" class="node">
<title>fairscale</title>
<g id="a_node17"><a xlink:href="https://github.com/conda-forge/fairscale-feedstock" xlink:title="fairscale">
<ellipse fill="#fde725" stroke="black" cx="945" cy="-1122" rx="50.09" ry="18"/>
<text text-anchor="middle" x="945" y="-1118.3" font-family="Times,serif" font-size="14.00">fairscale</text>
</a>
</g>
</g>
<!-- torchvision&#45;&gt;fairscale -->
<g id="edge11" class="edge">
<title>torchvision&#45;&gt;fairscale</title>
<path fill="none" stroke="black" d="M906.35,-1176.05C912.3,-1167.89 919.56,-1157.91 926.19,-1148.82"/>
<polygon fill="black" stroke="black" points="928.82,-1151.16 931.88,-1141.01 923.16,-1147.03 928.82,-1151.16"/>
</g>
<!-- fairscale&#45;&gt;allennlp -->
<g id="edge12" class="edge">
<title>fairscale&#45;&gt;allennlp</title>
<path fill="none" stroke="black" d="M954.44,-1104.05C958.85,-1096.14 964.2,-1086.54 969.13,-1077.69"/>
<polygon fill="black" stroke="black" points="972.1,-1079.55 973.91,-1069.11 965.98,-1076.14 972.1,-1079.55"/>
</g>
<!-- srm -->
<g id="node22" class="node">
<title>srm</title>
<g id="a_node22"><a xlink:href="https://github.com/conda-forge/srm-feedstock/pull/5" xlink:title="srm ❎">
<ellipse fill="#31688e" stroke="black" cx="2352" cy="-942" rx="43" ry="18"/>
<text text-anchor="middle" x="2352" y="-938.3" font-family="Times,serif" font-size="14.00" fill="white">srm ❎</text>
</a>
</g>
</g>
<!-- freecad&#45;&gt;srm -->
<!-- geckodriver -->
<g id="node19" class="node">
<title>geckodriver</title>
<g id="a_node19"><a xlink:href="https://github.com/conda-forge/geckodriver-feedstock" xlink:title="geckodriver">
<ellipse fill="#fde725" stroke="black" cx="1727" cy="-1266" rx="65.79" ry="18"/>
<text text-anchor="middle" x="1727" y="-1262.3" font-family="Times,serif" font-size="14.00">geckodriver</text>
</a>
</g>
</g>
<!-- firefox -->
<g id="node20" class="node">
<title>firefox</title>
<g id="a_node20"><a xlink:href="https://github.com/conda-forge/firefox-feedstock" xlink:title="firefox">
<ellipse fill="#fde725" stroke="black" cx="1727" cy="-1194" rx="40.5" ry="18"/>
<text text-anchor="middle" x="1727" y="-1190.3" font-family="Times,serif" font-size="14.00">firefox</text>
</a>
</g>
</g>
<!-- geckodriver&#45;&gt;firefox -->
<g id="edge14" class="edge">
<title>geckodriver&#45;&gt;firefox</title>
<path fill="none" stroke="black" d="M1721.08,-1247.7C1720.33,-1240.41 1720.09,-1231.73 1720.35,-1223.54"/>
<polygon fill="black" stroke="black" points="1723.84,-1223.82 1721.01,-1213.61 1716.86,-1223.36 1723.84,-1223.82"/>
</g>
<!-- firefox&#45;&gt;geckodriver -->
<g id="edge15" class="edge">
<title>firefox&#45;&gt;geckodriver</title>
<path fill="none" stroke="black" d="M1732.9,-1212.1C1733.66,-1219.37 1733.91,-1228.04 1733.65,-1236.24"/>
<polygon fill="black" stroke="black" points="1730.16,-1235.98 1733.01,-1246.19 1737.15,-1236.43 1730.16,-1235.98"/>
</g>
<!-- tensorflow -->
<g id="node21" class="node">
<title>tensorflow</title>
<g id="a_node21"><a xlink:href="https://github.com/conda-forge/tensorflow-feedstock" xlink:title="tensorflow">
<ellipse fill="#fde725" stroke="black" cx="204" cy="-1266" rx="60" ry="18"/>
<text text-anchor="middle" x="204" y="-1262.3" font-family="Times,serif" font-size="14.00">tensorflow</text>
</a>
</g>
</g>
<!-- ibm_db -->
<g id="node23" class="node">
<title>ibm_db</title>
<g id="a_node23"><a xlink:href="https://github.com/conda-forge/ibm_db-feedstock/pull/48" xlink:title="ibm_db ❎">
<ellipse fill="#31688e" stroke="black" cx="2352" cy="-870" rx="58.5" ry="18"/>
<text text-anchor="middle" x="2352" y="-866.3" font-family="Times,serif" font-size="14.00" fill="white">ibm_db ❎</text>
</a>
</g>
</g>
<!-- srm&#45;&gt;ibm_db -->
<!-- proj -->
<g id="node34" class="node">
<title>proj</title>
<g id="a_node34"><a xlink:href="https://github.com/conda-forge/proj-feedstock" xlink:title="proj">
<ellipse fill="#35b779" stroke="black" cx="2352" cy="-798" rx="29.5" ry="18"/>
<text text-anchor="middle" x="2352" y="-794.3" font-family="Times,serif" font-size="14.00">proj</text>
</a>
</g>
</g>
<!-- ibm_db&#45;&gt;proj -->
<!-- pytorch&#45;cpu -->
<g id="node24" class="node">
<title>pytorch&#45;cpu</title>
<g id="a_node24"><a xlink:href="https://github.com/conda-forge/pytorch-cpu-feedstock/pull/119" xlink:title="pytorch cpu ❎">
<ellipse fill="#31688e" stroke="black" cx="917" cy="-1266" rx="80" ry="18"/>
<text text-anchor="middle" x="917" y="-1262.3" font-family="Times,serif" font-size="14.00" fill="white">pytorch cpu ❎</text>
</a>
</g>
</g>
<!-- pytorch&#45;cpu&#45;&gt;torchvision -->
<g id="edge18" class="edge">
<title>pytorch&#45;cpu&#45;&gt;torchvision</title>
<path fill="none" stroke="black" d="M911.31,-1247.7C908.86,-1240.24 905.93,-1231.32 903.19,-1222.97"/>
<polygon fill="black" stroke="black" points="906.54,-1221.95 900.09,-1213.54 899.89,-1224.14 906.54,-1221.95"/>
</g>
<!-- pytorch&#45;cpu&#45;&gt;allennlp -->
<g id="edge19" class="edge">
<title>pytorch&#45;cpu&#45;&gt;allennlp</title>
<path fill="none" stroke="black" d="M943.15,-1248.63C956.15,-1239.3 971.15,-1226.58 981,-1212 1008.47,-1171.33 1012.81,-1152.28 1004,-1104 1002.46,-1095.58 999.66,-1086.77 996.63,-1078.79"/>
<polygon fill="black" stroke="black" points="999.9,-1077.54 992.88,-1069.61 993.42,-1080.19 999.9,-1077.54"/>
</g>
<!-- pytorch&#45;cpu&#45;&gt;fairscale -->
<g id="edge20" class="edge">
<title>pytorch&#45;cpu&#45;&gt;fairscale</title>
<path fill="none" stroke="black" d="M938.21,-1248.25C948.4,-1238.83 959.55,-1226.13 965,-1212 972.74,-1191.93 966.64,-1168.11 959.2,-1150.16"/>
<polygon fill="black" stroke="black" points="962.46,-1148.87 955.14,-1141.21 956.09,-1151.76 962.46,-1148.87"/>
</g>
<!-- nvidia&#45;apex -->
<g id="node25" class="node">
<title>nvidia&#45;apex</title>
<g id="a_node25"><a xlink:href="https://github.com/conda-forge/nvidia-apex-feedstock" xlink:title="nvidia apex">
<ellipse fill="#fde725" stroke="black" cx="750" cy="-1194" rx="63.89" ry="18"/>
<text text-anchor="middle" x="750" y="-1190.3" font-family="Times,serif" font-size="14.00">nvidia apex</text>
</a>
</g>
</g>
<!-- pytorch&#45;cpu&#45;&gt;nvidia&#45;apex -->
<g id="edge21" class="edge">
<title>pytorch&#45;cpu&#45;&gt;nvidia&#45;apex</title>
<path fill="none" stroke="black" d="M880.35,-1249.64C855.18,-1239.09 821.6,-1225.01 794.83,-1213.79"/>
<polygon fill="black" stroke="black" points="796.54,-1210.71 785.96,-1210.07 793.83,-1217.17 796.54,-1210.71"/>
</g>
<!-- kaolin -->
<g id="node26" class="node">
<title>kaolin</title>
<g id="a_node26"><a xlink:href="https://github.com/conda-forge/kaolin-feedstock" xlink:title="kaolin">
<ellipse fill="#fde725" stroke="black" cx="1090" cy="-1194" rx="38.5" ry="18"/>
<text text-anchor="middle" x="1090" y="-1190.3" font-family="Times,serif" font-size="14.00">kaolin</text>
</a>
</g>
</g>
<!-- pytorch&#45;cpu&#45;&gt;kaolin -->
<g id="edge22" class="edge">
<title>pytorch&#45;cpu&#45;&gt;kaolin</title>
<path fill="none" stroke="black" d="M954.54,-1249.81C983.09,-1238.26 1022.25,-1222.41 1051.13,-1210.73"/>
<polygon fill="black" stroke="black" points="1052.28,-1214.04 1060.24,-1207.04 1049.66,-1207.55 1052.28,-1214.04"/>
</g>
<!-- gfortran_osx&#45;64 -->
<g id="node27" class="node">
<title>gfortran_osx&#45;64</title>
<g id="a_node27"><a xlink:href="https://github.com/conda-forge/gfortran_osx-64-feedstock" xlink:title="gfortran_osx 64">
<ellipse fill="#fde725" stroke="black" cx="2352" cy="-466" rx="84" ry="18"/>
<text text-anchor="middle" x="2352" y="-462.3" font-family="Times,serif" font-size="14.00">gfortran_osx 64</text>
</a>
</g>
</g>
<!-- gstlal -->
<g id="node28" class="node">
<title>gstlal</title>
<g id="a_node28"><a xlink:href="https://github.com/conda-forge/gstlal-feedstock" xlink:title="gstlal">
<ellipse fill="#fde725" stroke="black" cx="494" cy="-1266" rx="36.5" ry="18"/>
<text text-anchor="middle" x="494" y="-1262.3" font-family="Times,serif" font-size="14.00">gstlal</text>
</a>
</g>
</g>
<!-- gstlal&#45;ugly -->
<g id="node29" class="node">
<title>gstlal&#45;ugly</title>
<g id="a_node29"><a xlink:href="https://github.com/conda-forge/gstlal-ugly-feedstock" xlink:title="gstlal ugly">
<ellipse fill="#fde725" stroke="black" cx="494" cy="-1194" rx="60" ry="18"/>
<text text-anchor="middle" x="494" y="-1190.3" font-family="Times,serif" font-size="14.00">gstlal ugly</text>
</a>
</g>
</g>
<!-- gstlal&#45;&gt;gstlal&#45;ugly -->
<g id="edge23" class="edge">
<title>gstlal&#45;&gt;gstlal&#45;ugly</title>
<path fill="none" stroke="black" d="M494,-1247.7C494,-1240.41 494,-1231.73 494,-1223.54"/>
<polygon fill="black" stroke="black" points="497.5,-1223.62 494,-1213.62 490.5,-1223.62 497.5,-1223.62"/>
</g>
<!-- gstlal&#45;burst -->
<g id="node30" class="node">
<title>gstlal&#45;burst</title>
<g id="a_node30"><a xlink:href="https://github.com/conda-forge/gstlal-burst-feedstock" xlink:title="gstlal burst">
<ellipse fill="#fde725" stroke="black" cx="281" cy="-1122" rx="64.5" ry="18"/>
<text text-anchor="middle" x="281" y="-1118.3" font-family="Times,serif" font-size="14.00">gstlal burst</text>
</a>
</g>
</g>
<!-- gstlal&#45;&gt;gstlal&#45;burst -->
<g id="edge24" class="edge">
<title>gstlal&#45;&gt;gstlal&#45;burst</title>
<path fill="none" stroke="black" d="M472.8,-1250.87C435.72,-1226.15 358.84,-1174.89 314.5,-1145.33"/>
<polygon fill="black" stroke="black" points="316.55,-1142.49 306.29,-1139.86 312.67,-1148.32 316.55,-1142.49"/>
</g>
<!-- gstlal&#45;inspiral -->
<g id="node31" class="node">
<title>gstlal&#45;inspiral</title>
<g id="a_node31"><a xlink:href="https://github.com/conda-forge/gstlal-inspiral-feedstock" xlink:title="gstlal inspiral">
<ellipse fill="#fde725" stroke="black" cx="438" cy="-1122" rx="74.99" ry="18"/>
<text text-anchor="middle" x="438" y="-1118.3" font-family="Times,serif" font-size="14.00">gstlal inspiral</text>
</a>
</g>
</g>
<!-- gstlal&#45;&gt;gstlal&#45;inspiral -->
<g id="edge25" class="edge">
<title>gstlal&#45;&gt;gstlal&#45;inspiral</title>
<path fill="none" stroke="black" d="M468.37,-1252.93C452.71,-1244.03 434.01,-1230.29 425,-1212 415.67,-1193.07 419.82,-1169.31 425.81,-1151.11"/>
<polygon fill="black" stroke="black" points="429.09,-1152.34 429.26,-1141.74 422.52,-1149.92 429.09,-1152.34"/>
</g>
<!-- gstlal&#45;calibration -->
<g id="node32" class="node">
<title>gstlal&#45;calibration</title>
<g id="a_node32"><a xlink:href="https://github.com/conda-forge/gstlal-calibration-feedstock" xlink:title="gstlal calibration">
<ellipse fill="#fde725" stroke="black" cx="620" cy="-1122" rx="89.08" ry="18"/>
<text text-anchor="middle" x="620" y="-1118.3" font-family="Times,serif" font-size="14.00">gstlal calibration</text>
</a>
</g>
</g>
<!-- gstlal&#45;&gt;gstlal&#45;calibration -->
<g id="edge26" class="edge">
<title>gstlal&#45;&gt;gstlal&#45;calibration</title>
<path fill="none" stroke="black" d="M515.8,-1251.17C530.23,-1241.35 549,-1227.24 563,-1212 580.2,-1193.27 595.48,-1168.74 605.88,-1150.18"/>
<polygon fill="black" stroke="black" points="608.83,-1152.07 610.55,-1141.62 602.69,-1148.72 608.83,-1152.07"/>
</g>
<!-- gstlal&#45;ugly&#45;&gt;gstlal&#45;burst -->
<g id="edge27" class="edge">
<title>gstlal&#45;ugly&#45;&gt;gstlal&#45;burst</title>
<path fill="none" stroke="black" d="M454.93,-1180.16C420.5,-1168.85 370.09,-1152.28 332.4,-1139.89"/>
<polygon fill="black" stroke="black" points="333.66,-1136.62 323.07,-1136.83 331.48,-1143.27 333.66,-1136.62"/>
</g>
<!-- gstlal&#45;ugly&#45;&gt;gstlal&#45;inspiral -->
<g id="edge28" class="edge">
<title>gstlal&#45;ugly&#45;&gt;gstlal&#45;inspiral</title>
<path fill="none" stroke="black" d="M480.44,-1176.05C473.84,-1167.8 465.76,-1157.7 458.43,-1148.54"/>
<polygon fill="black" stroke="black" points="461.36,-1146.59 452.38,-1140.97 455.89,-1150.97 461.36,-1146.59"/>
</g>
<!-- gstlal&#45;ugly&#45;&gt;gstlal&#45;calibration -->
<g id="edge29" class="edge">
<title>gstlal&#45;ugly&#45;&gt;gstlal&#45;calibration</title>
<path fill="none" stroke="black" d="M521.65,-1177.64C538.97,-1168.02 561.55,-1155.47 580.71,-1144.83"/>
<polygon fill="black" stroke="black" points="582.29,-1147.95 589.34,-1140.04 578.89,-1141.83 582.29,-1147.95"/>
</g>
<!-- geant4 -->
<g id="node33" class="node">
<title>geant4</title>
<g id="a_node33"><a xlink:href="https://github.com/conda-forge/geant4-feedstock/pull/45" xlink:title="geant4 ❎">
<ellipse fill="#31688e" stroke="black" cx="1204" cy="-1194" rx="57.39" ry="18"/>
<text text-anchor="middle" x="1204" y="-1190.3" font-family="Times,serif" font-size="14.00" fill="white">geant4 ❎</text>
</a>
</g>
</g>
<!-- jaxlib -->
<g id="node35" class="node">
<title>jaxlib</title>
<g id="a_node35"><a xlink:href="https://github.com/conda-forge/jaxlib-feedstock/pull/155" xlink:title="jaxlib ❎">
<ellipse fill="#31688e" stroke="black" cx="1249" cy="-1122" rx="50.09" ry="18"/>
<text text-anchor="middle" x="1249" y="-1118.3" font-family="Times,serif" font-size="14.00" fill="white">jaxlib ❎</text>
</a>
</g>
</g>
<!-- libv8 -->
<g id="node36" class="node">
<title>libv8</title>
<g id="a_node36"><a xlink:href="https://github.com/conda-forge/libv8-feedstock/pull/81" xlink:title="libv8 ❎">
<ellipse fill="#31688e" stroke="black" cx="1499" cy="-1050" rx="48.19" ry="18"/>
<text text-anchor="middle" x="1499" y="-1046.3" font-family="Times,serif" font-size="14.00" fill="white">libv8 ❎</text>
</a>
</g>
</g>
<!-- r&#45;v8 -->
<g id="node37" class="node">
<title>r&#45;v8</title>
<g id="a_node37"><a xlink:href="https://github.com/conda-forge/r-v8-feedstock" xlink:title="r v8">
<ellipse fill="#fde725" stroke="black" cx="1480" cy="-978" rx="29.5" ry="18"/>
<text text-anchor="middle" x="1480" y="-974.3" font-family="Times,serif" font-size="14.00">r v8</text>
</a>
</g>
</g>
<!-- libv8&#45;&gt;r&#45;v8 -->
<g id="edge31" class="edge">
<title>libv8&#45;&gt;r&#45;v8</title>
<path fill="none" stroke="black" d="M1494.3,-1031.7C1492.28,-1024.24 1489.86,-1015.32 1487.59,-1006.97"/>
<polygon fill="black" stroke="black" points="1491.04,-1006.3 1485.04,-997.57 1484.28,-1008.13 1491.04,-1006.3"/>
</g>
<!-- clang&#45;compiler&#45;activation -->
<g id="node38" class="node">
<title>clang&#45;compiler&#45;activation</title>
<g id="a_node38"><a xlink:href="https://github.com/conda-forge/clang-compiler-activation-feedstock/pull/85" xlink:title="clang compiler activation ❎">
<ellipse fill="#31688e" stroke="black" cx="2352" cy="-538" rx="141.88" ry="18"/>
<text text-anchor="middle" x="2352" y="-534.3" font-family="Times,serif" font-size="14.00" fill="white">clang compiler activation ❎</text>
</a>
</g>
</g>
<!-- clang&#45;compiler&#45;activation&#45;&gt;gfortran_osx&#45;64 -->
<g id="edge32" class="edge">
<title>clang&#45;compiler&#45;activation&#45;&gt;gfortran_osx&#45;64</title>
<path fill="none" stroke="black" d="M2352,-519.7C2352,-512.41 2352,-503.73 2352,-495.54"/>
<polygon fill="black" stroke="black" points="2355.5,-495.62 2352,-485.62 2348.5,-495.62 2355.5,-495.62"/>
</g>
<!-- jaeger -->
<g id="node39" class="node">
<title>jaeger</title>
<g id="a_node39"><a xlink:href="https://github.com/conda-forge/jaeger-feedstock/pull/28" xlink:title="jaeger ❎">
<ellipse fill="#31688e" stroke="black" cx="2089" cy="-1518" rx="54" ry="18"/>
<text text-anchor="middle" x="2089" y="-1514.3" font-family="Times,serif" font-size="14.00" fill="white">jaeger ❎</text>
</a>
</g>
</g>
<!-- digital_rf -->
<g id="node40" class="node">
<title>digital_rf</title>
<g id="a_node40"><a xlink:href="https://github.com/conda-forge/digital_rf-feedstock" xlink:title="digital_rf">
<ellipse fill="#fde725" stroke="black" cx="2089" cy="-1446" rx="52.79" ry="18"/>
<text text-anchor="middle" x="2089" y="-1442.3" font-family="Times,serif" font-size="14.00">digital_rf</text>
</a>
</g>
</g>
<!-- jaeger&#45;&gt;digital_rf -->
<!-- pythonocc&#45;core -->
<g id="node43" class="node">
<title>pythonocc&#45;core</title>
<g id="a_node43"><a xlink:href="https://github.com/conda-forge/pythonocc-core-feedstock" xlink:title="pythonocc core">
<ellipse fill="#fde725" stroke="black" cx="2089" cy="-1374" rx="81.49" ry="18"/>
<text text-anchor="middle" x="2089" y="-1370.3" font-family="Times,serif" font-size="14.00">pythonocc core</text>
</a>
</g>
</g>
<!-- digital_rf&#45;&gt;pythonocc&#45;core -->
<!-- gnuradio -->
<g id="node41" class="node">
<title>gnuradio</title>
<g id="a_node41"><a xlink:href="https://github.com/conda-forge/gnuradio-feedstock" xlink:title="gnuradio">
<ellipse fill="#fde725" stroke="black" cx="2027" cy="-502" rx="52" ry="18"/>
<text text-anchor="middle" x="2027" y="-498.3" font-family="Times,serif" font-size="14.00">gnuradio</text>
</a>
</g>
</g>
<!-- gqrx -->
<g id="node42" class="node">
<title>gqrx</title>
<g id="a_node42"><a xlink:href="https://github.com/conda-forge/gqrx-feedstock" xlink:title="gqrx">
<ellipse fill="#fde725" stroke="black" cx="2067" cy="-430" rx="32.5" ry="18"/>
<text text-anchor="middle" x="2067" y="-426.3" font-family="Times,serif" font-size="14.00">gqrx</text>
</a>
</g>
</g>
<!-- gnuradio&#45;&gt;gqrx -->
<g id="edge34" class="edge">
<title>gnuradio&#45;&gt;gqrx</title>
<path fill="none" stroke="black" d="M2036.68,-484.05C2041.27,-476.03 2046.85,-466.26 2051.97,-457.3"/>
<polygon fill="black" stroke="black" points="2055.01,-459.04 2056.93,-448.62 2048.93,-455.57 2055.01,-459.04"/>
</g>
<!-- pybamm -->
<g id="node44" class="node">
<title>pybamm</title>
<g id="a_node44"><a xlink:href="https://github.com/conda-forge/pybamm-feedstock/pull/33" xlink:title="pybamm ❎">
<ellipse fill="#31688e" stroke="black" cx="2089" cy="-1302" rx="65" ry="18"/>
<text text-anchor="middle" x="2089" y="-1298.3" font-family="Times,serif" font-size="14.00" fill="white">pybamm ❎</text>
</a>
</g>
</g>
<!-- pythonocc&#45;core&#45;&gt;pybamm -->
<!-- gnuradio&#45;soapy -->
<g id="node45" class="node">
<title>gnuradio&#45;soapy</title>
<g id="a_node45"><a xlink:href="https://github.com/conda-forge/gnuradio-soapy-feedstock" xlink:title="gnuradio soapy">
<ellipse fill="#fde725" stroke="black" cx="2089" cy="-1230" rx="82" ry="18"/>
<text text-anchor="middle" x="2089" y="-1226.3" font-family="Times,serif" font-size="14.00">gnuradio soapy</text>
</a>
</g>
</g>
<!-- pybamm&#45;&gt;gnuradio&#45;soapy -->
<!-- gnuradio&#45;satellites -->
<g id="node47" class="node">
<title>gnuradio&#45;satellites</title>
<g id="a_node47"><a xlink:href="https://github.com/conda-forge/gnuradio-satellites-feedstock" xlink:title="gnuradio satellites">
<ellipse fill="#fde725" stroke="black" cx="2089" cy="-1158" rx="97.5" ry="18"/>
<text text-anchor="middle" x="2089" y="-1154.3" font-family="Times,serif" font-size="14.00">gnuradio satellites</text>
</a>
</g>
</g>
<!-- gnuradio&#45;soapy&#45;&gt;gnuradio&#45;satellites -->
<!-- gnuradio&#45;osmosdr -->
<g id="node46" class="node">
<title>gnuradio&#45;osmosdr</title>
<g id="a_node46"><a xlink:href="https://github.com/conda-forge/gnuradio-osmosdr-feedstock" xlink:title="gnuradio osmosdr">
<ellipse fill="#fde725" stroke="black" cx="2107" cy="-574" rx="95" ry="18"/>
<text text-anchor="middle" x="2107" y="-570.3" font-family="Times,serif" font-size="14.00">gnuradio osmosdr</text>
</a>
</g>
</g>
<!-- gnuradio&#45;osmosdr&#45;&gt;gqrx -->
<g id="edge38" class="edge">
<title>gnuradio&#45;osmosdr&#45;&gt;gqrx</title>
<path fill="none" stroke="black" d="M2104.19,-555.72C2101.05,-537.63 2095.41,-508.5 2088,-484 2085.44,-475.53 2082.11,-466.52 2078.85,-458.37"/>
<polygon fill="black" stroke="black" points="2082.17,-457.24 2075.12,-449.33 2075.7,-459.91 2082.17,-457.24"/>
</g>
<!-- dask&#45;sql -->
<g id="node48" class="node">
<title>dask&#45;sql</title>
<g id="a_node48"><a xlink:href="https://github.com/conda-forge/dask-sql-feedstock/pull/56" xlink:title="dask sql ❎">
<ellipse fill="#31688e" stroke="black" cx="2089" cy="-1086" rx="63.09" ry="18"/>
<text text-anchor="middle" x="2089" y="-1082.3" font-family="Times,serif" font-size="14.00" fill="white">dask sql ❎</text>
</a>
</g>
</g>
<!-- gnuradio&#45;satellites&#45;&gt;dask&#45;sql -->
<!-- ray&#45;packages -->
<g id="node50" class="node">
<title>ray&#45;packages</title>
<g id="a_node50"><a xlink:href="https://github.com/conda-forge/ray-packages-feedstock" xlink:title="ray packages">
<ellipse fill="#fde725" stroke="black" cx="2089" cy="-1014" rx="71.5" ry="18"/>
<text text-anchor="middle" x="2089" y="-1010.3" font-family="Times,serif" font-size="14.00">ray packages</text>
</a>
</g>
</g>
<!-- dask&#45;sql&#45;&gt;ray&#45;packages -->
<!-- filprofiler -->
<g id="node49" class="node">
<title>filprofiler</title>
<g id="a_node49"><a xlink:href="https://github.com/conda-forge/filprofiler-feedstock/pull/51" xlink:title="filprofiler ❎">
<ellipse fill="#31688e" stroke="black" cx="1595" cy="-978" rx="67.69" ry="18"/>
<text text-anchor="middle" x="1595" y="-974.3" font-family="Times,serif" font-size="14.00" fill="white">filprofiler ❎</text>
</a>
</g>
</g>
<!-- glum -->
<g id="node51" class="node">
<title>glum</title>
<g id="a_node51"><a xlink:href="https://github.com/conda-forge/glum-feedstock" xlink:title="glum">
<ellipse fill="#fde725" stroke="black" cx="2089" cy="-942" rx="34.5" ry="18"/>
<text text-anchor="middle" x="2089" y="-938.3" font-family="Times,serif" font-size="14.00">glum</text>
</a>
</g>
</g>
<!-- ray&#45;packages&#45;&gt;glum -->
<!-- oras -->
<g id="node53" class="node">
<title>oras</title>
<g id="a_node53"><a xlink:href="https://github.com/conda-forge/oras-feedstock/pull/3" xlink:title="oras ❎">
<ellipse fill="#31688e" stroke="black" cx="2089" cy="-870" rx="45" ry="18"/>
<text text-anchor="middle" x="2089" y="-866.3" font-family="Times,serif" font-size="14.00" fill="white">oras ❎</text>
</a>
</g>
</g>
<!-- glum&#45;&gt;oras -->
<!-- tensorboard&#45;data&#45;server -->
<g id="node52" class="node">
<title>tensorboard&#45;data&#45;server</title>
<g id="a_node52"><a xlink:href="https://github.com/conda-forge/tensorboard-data-server-feedstock/pull/16" xlink:title="tensorboard data server ❎">
<ellipse fill="#31688e" stroke="black" cx="220" cy="-1338" rx="138" ry="18"/>
<text text-anchor="middle" x="220" y="-1334.3" font-family="Times,serif" font-size="14.00" fill="white">tensorboard data server ❎</text>
</a>
</g>
</g>
<!-- tensorboard&#45;data&#45;server&#45;&gt;tensorflow -->
<g id="edge43" class="edge">
<title>tensorboard&#45;data&#45;server&#45;&gt;tensorflow</title>
<path fill="none" stroke="black" d="M216.04,-1319.7C214.36,-1312.32 212.35,-1303.52 210.46,-1295.25"/>
<polygon fill="black" stroke="black" points="213.89,-1294.55 208.25,-1285.58 207.06,-1296.11 213.89,-1294.55"/>
</g>
<!-- meilisearch -->
<g id="node59" class="node">
<title>meilisearch</title>
<g id="a_node59"><a xlink:href="https://github.com/conda-forge/meilisearch-feedstock/pull/7" xlink:title="meilisearch ❎">
<ellipse fill="#31688e" stroke="black" cx="2089" cy="-798" rx="78.79" ry="18"/>
<text text-anchor="middle" x="2089" y="-794.3" font-family="Times,serif" font-size="14.00" fill="white">meilisearch ❎</text>
</a>
</g>
</g>
<!-- oras&#45;&gt;meilisearch -->
<!-- or&#45;tools -->
<g id="node54" class="node">
<title>or&#45;tools</title>
<g id="a_node54"><a xlink:href="https://github.com/conda-forge/or-tools-feedstock/pull/31" xlink:title="or tools ❎">
<ellipse fill="#31688e" stroke="black" cx="1075" cy="-1266" rx="60" ry="18"/>
<text text-anchor="middle" x="1075" y="-1262.3" font-family="Times,serif" font-size="14.00" fill="white">or tools ❎</text>
</a>
</g>
</g>
<!-- cds&#45;crtools -->
<g id="node55" class="node">
<title>cds&#45;crtools</title>
<g id="a_node55"><a xlink:href="https://github.com/conda-forge/cds-crtools-feedstock/pull/22" xlink:title="cds crtools ✓">
<ellipse fill="#31688e" stroke="black" cx="1423" cy="-1194" rx="68.49" ry="18"/>
<text text-anchor="middle" x="1423" y="-1190.3" font-family="Times,serif" font-size="14.00" fill="white">cds crtools ✓</text>
</a>
</g>
</g>
<!-- deno -->
<g id="node56" class="node">
<title>deno</title>
<g id="a_node56"><a xlink:href="https://github.com/conda-forge/deno-feedstock/pull/11" xlink:title="deno ❎">
<ellipse fill="#31688e" stroke="black" cx="2352" cy="-206" rx="47.5" ry="18"/>
<text text-anchor="middle" x="2352" y="-202.3" font-family="Times,serif" font-size="14.00" fill="white">deno ❎</text>
</a>
</g>
</g>
<!-- deno&#45;dom -->
<g id="node57" class="node">
<title>deno&#45;dom</title>
<g id="a_node57"><a xlink:href="https://github.com/conda-forge/deno-dom-feedstock" xlink:title="deno dom">
<ellipse fill="#fde725" stroke="black" cx="2352" cy="-134" rx="56" ry="18"/>
<text text-anchor="middle" x="2352" y="-130.3" font-family="Times,serif" font-size="14.00">deno dom</text>
</a>
</g>
</g>
<!-- deno&#45;&gt;deno&#45;dom -->
<g id="edge45" class="edge">
<title>deno&#45;&gt;deno&#45;dom</title>
<path fill="none" stroke="black" d="M2352,-187.7C2352,-180.41 2352,-171.73 2352,-163.54"/>
<polygon fill="black" stroke="black" points="2355.5,-163.62 2352,-153.62 2348.5,-163.62 2355.5,-163.62"/>
</g>
<!-- pyscf -->
<g id="node58" class="node">
<title>pyscf</title>
<g id="a_node58"><a xlink:href="https://github.com/conda-forge/pyscf-feedstock/pull/5" xlink:title="pyscf ❎">
<ellipse fill="#31688e" stroke="black" cx="1479" cy="-1122" rx="49.5" ry="18"/>
<text text-anchor="middle" x="1479" y="-1118.3" font-family="Times,serif" font-size="14.00" fill="white">pyscf ❎</text>
</a>
</g>
</g>
<!-- srt -->
<g id="node60" class="node">
<title>srt</title>
<g id="a_node60"><a xlink:href="https://github.com/conda-forge/srt-feedstock/pull/7" xlink:title="srt ✓">
<ellipse fill="#31688e" stroke="black" cx="983" cy="-754" rx="31.4" ry="18"/>
<text text-anchor="middle" x="983" y="-750.3" font-family="Times,serif" font-size="14.00" fill="white">srt ✓</text>
</a>
</g>
</g>
<!-- yarp -->
<g id="node61" class="node">
<title>yarp</title>
<g id="a_node61"><a xlink:href="https://github.com/conda-forge/yarp-feedstock" xlink:title="yarp">
<ellipse fill="#fde725" stroke="black" cx="983" cy="-682" rx="32" ry="18"/>
<text text-anchor="middle" x="983" y="-678.3" font-family="Times,serif" font-size="14.00">yarp</text>
</a>
</g>
</g>
<!-- srt&#45;&gt;yarp -->
<!-- quarto -->
<g id="node62" class="node">
<title>quarto</title>
<g id="a_node62"><a xlink:href="https://github.com/conda-forge/quarto-feedstock" xlink:title="quarto">
<ellipse fill="#fde725" stroke="black" cx="983" cy="-610" rx="41.69" ry="18"/>
<text text-anchor="middle" x="983" y="-606.3" font-family="Times,serif" font-size="14.00">quarto</text>
</a>
</g>
</g>
<!-- yarp&#45;&gt;quarto -->
<!-- pytinyrenderer -->
<g id="node64" class="node">
<title>pytinyrenderer</title>
<g id="a_node64"><a xlink:href="https://github.com/conda-forge/pytinyrenderer-feedstock" xlink:title="pytinyrenderer">
<ellipse fill="#fde725" stroke="black" cx="983" cy="-538" rx="81.49" ry="18"/>
<text text-anchor="middle" x="983" y="-534.3" font-family="Times,serif" font-size="14.00">pytinyrenderer</text>
</a>
</g>
</g>
<!-- quarto&#45;&gt;pytinyrenderer -->
<!-- heavydb&#45;ext -->
<g id="node63" class="node">
<title>heavydb&#45;ext</title>
<g id="a_node63"><a xlink:href="https://github.com/conda-forge/heavydb-ext-feedstock/pull/36" xlink:title="heavydb ext ❎">
<ellipse fill="#31688e" stroke="black" cx="1821" cy="-1050" rx="81.49" ry="18"/>
<text text-anchor="middle" x="1821" y="-1046.3" font-family="Times,serif" font-size="14.00" fill="white">heavydb ext ❎</text>
</a>
</g>
</g>
<!-- go&#45;yq -->
<g id="node65" class="node">
<title>go&#45;yq</title>
<g id="a_node65"><a xlink:href="https://github.com/conda-forge/go-yq-feedstock/pull/5" xlink:title="go yq ❎">
<ellipse fill="#31688e" stroke="black" cx="983" cy="-466" rx="50.09" ry="18"/>
<text text-anchor="middle" x="983" y="-462.3" font-family="Times,serif" font-size="14.00" fill="white">go yq ❎</text>
</a>
</g>
</g>
<!-- pytinyrenderer&#45;&gt;go&#45;yq -->
<!-- gymnasium -->
<g id="node70" class="node">
<title>gymnasium</title>
<g id="a_node70"><a xlink:href="https://github.com/conda-forge/gymnasium-feedstock/pull/17" xlink:title="gymnasium ❎">
<ellipse fill="#31688e" stroke="black" cx="983" cy="-394" rx="78.79" ry="18"/>
<text text-anchor="middle" x="983" y="-390.3" font-family="Times,serif" font-size="14.00" fill="white">gymnasium ❎</text>
</a>
</g>
</g>
<!-- go&#45;yq&#45;&gt;gymnasium -->
<!-- gz&#45;sim -->
<g id="node66" class="node">
<title>gz&#45;sim</title>
<g id="a_node66"><a xlink:href="https://github.com/conda-forge/gz-sim-feedstock" xlink:title="gz sim">
<ellipse fill="#fde725" stroke="black" cx="983" cy="-90" rx="41" ry="18"/>
<text text-anchor="middle" x="983" y="-86.3" font-family="Times,serif" font-size="14.00">gz sim</text>
</a>
</g>
</g>
<!-- gz&#45;launch -->
<g id="node67" class="node">
<title>gz&#45;launch</title>
<g id="a_node67"><a xlink:href="https://github.com/conda-forge/gz-launch-feedstock" xlink:title="gz launch">
<ellipse fill="#fde725" stroke="black" cx="983" cy="-18" rx="55.49" ry="18"/>
<text text-anchor="middle" x="983" y="-14.3" font-family="Times,serif" font-size="14.00">gz launch</text>
</a>
</g>
</g>
<!-- gz&#45;sim&#45;&gt;gz&#45;launch -->
<g id="edge51" class="edge">
<title>gz&#45;sim&#45;&gt;gz&#45;launch</title>
<path fill="none" stroke="black" d="M983,-71.7C983,-64.41 983,-55.73 983,-47.54"/>
<polygon fill="black" stroke="black" points="986.5,-47.62 983,-37.62 979.5,-47.62 986.5,-47.62"/>
</g>
<!-- linux&#45;perf -->
<g id="node68" class="node">
<title>linux&#45;perf</title>
<g id="a_node68"><a xlink:href="https://github.com/conda-forge/linux-perf-feedstock" xlink:title="linux perf">
<ellipse fill="#fde725" stroke="black" cx="1905" cy="-1266" rx="56" ry="18"/>
<text text-anchor="middle" x="1905" y="-1262.3" font-family="Times,serif" font-size="14.00">linux perf</text>
</a>
</g>
</g>
<!-- numactl -->
<g id="node69" class="node">
<title>numactl</title>
<g id="a_node69"><a xlink:href="https://github.com/conda-forge/numactl-feedstock/pull/1" xlink:title="numactl ❎">
<ellipse fill="#31688e" stroke="black" cx="1905" cy="-1338" rx="62.5" ry="18"/>
<text text-anchor="middle" x="1905" y="-1334.3" font-family="Times,serif" font-size="14.00" fill="white">numactl ❎</text>
</a>
</g>
</g>
<!-- numactl&#45;&gt;linux&#45;perf -->
<g id="edge52" class="edge">
<title>numactl&#45;&gt;linux&#45;perf</title>
<path fill="none" stroke="black" d="M1905,-1319.7C1905,-1312.41 1905,-1303.73 1905,-1295.54"/>
<polygon fill="black" stroke="black" points="1908.5,-1295.62 1905,-1285.62 1901.5,-1295.62 1908.5,-1295.62"/>
</g>
<!-- veloxchem -->
<g id="node71" class="node">
<title>veloxchem</title>
<g id="a_node71"><a xlink:href="https://github.com/conda-forge/veloxchem-feedstock" xlink:title="veloxchem">
<ellipse fill="#fde725" stroke="black" cx="983" cy="-322" rx="60" ry="18"/>
<text text-anchor="middle" x="983" y="-318.3" font-family="Times,serif" font-size="14.00">veloxchem</text>
</a>
</g>
</g>
<!-- gymnasium&#45;&gt;veloxchem -->
<!-- pypdf -->
<g id="node72" class="node">
<title>pypdf</title>
<g id="a_node72"><a xlink:href="https://github.com/conda-forge/pypdf-feedstock" xlink:title="pypdf">
<ellipse fill="#fde725" stroke="black" cx="983" cy="-250" rx="37.09" ry="18"/>
<text text-anchor="middle" x="983" y="-246.3" font-family="Times,serif" font-size="14.00">pypdf</text>
</a>
</g>
</g>
<!-- veloxchem&#45;&gt;pypdf -->
<!-- graalpy -->
<g id="node73" class="node">
<title>graalpy</title>
<g id="a_node73"><a xlink:href="https://github.com/conda-forge/graalpy-feedstock" xlink:title="graalpy">
<ellipse fill="#000000" stroke="black" cx="1163" cy="-1338" rx="46.29" ry="18"/>
<text text-anchor="middle" x="1163" y="-1334.3" font-family="Times,serif" font-size="14.00" fill="white">graalpy</text>
</a>
</g>
</g>
<!-- graalpy&#45;&gt;julia -->
<g id="edge56" class="edge">
<title>graalpy&#45;&gt;julia</title>
<path fill="none" stroke="black" d="M1191.73,-1323.5C1214.99,-1312.57 1247.98,-1297.08 1273.52,-1285.08"/>
<polygon fill="black" stroke="black" points="1274.68,-1288.4 1282.24,-1280.98 1271.7,-1282.06 1274.68,-1288.4"/>
</g>
<!-- graalpy&#45;&gt;pyferret -->
<g id="edge57" class="edge">
<title>graalpy&#45;&gt;pyferret</title>
<path fill="none" stroke="black" d="M1116.36,-1337.53C970.57,-1338.55 510.81,-1337.02 135,-1284 127.47,-1282.94 119.57,-1281.47 111.87,-1279.85"/>
<polygon fill="black" stroke="black" points="112.78,-1276.47 102.26,-1277.71 111.26,-1283.3 112.78,-1276.47"/>
</g>
<!-- graalpy&#45;&gt;torchvision -->
<g id="edge58" class="edge">
<title>graalpy&#45;&gt;torchvision</title>
<path fill="none" stroke="black" d="M1116.57,-1336.76C1033.47,-1335.24 864.57,-1326.81 828,-1284 817.61,-1271.83 821.08,-1262.43 828,-1248 834.01,-1235.47 844.58,-1224.97 855.52,-1216.71"/>
<polygon fill="black" stroke="black" points="857.27,-1219.75 863.47,-1211.16 853.26,-1214.01 857.27,-1219.75"/>
</g>
<!-- graalpy&#45;&gt;allennlp -->
<g id="edge59" class="edge">
<title>graalpy&#45;&gt;allennlp</title>
<path fill="none" stroke="black" d="M1206.64,-1331.83C1260.31,-1324.46 1346.68,-1309.01 1366,-1284 1375.78,-1271.34 1370.01,-1263.49 1366,-1248 1361.41,-1230.28 1353.51,-1228.69 1346,-1212 1325.13,-1165.59 1347.01,-1136.68 1308,-1104 1268.87,-1071.22 1125.86,-1058.36 1043.51,-1053.6"/>
<polygon fill="black" stroke="black" points="1043.75,-1050.11 1033.57,-1053.05 1043.36,-1057.1 1043.75,-1050.11"/>
</g>
<!-- graalpy&#45;&gt;fairscale -->
<g id="edge60" class="edge">
<title>graalpy&#45;&gt;fairscale</title>
<path fill="none" stroke="black" d="M1116.3,-1337.74C1041.82,-1337.38 892.73,-1330.26 777,-1284 726.15,-1263.67 701.97,-1260.74 677,-1212 669.71,-1197.76 666.84,-1188.36 677,-1176 702.7,-1144.71 813.34,-1131.58 884.18,-1126.31"/>
<polygon fill="black" stroke="black" points="884.38,-1129.8 894.11,-1125.61 883.89,-1122.82 884.38,-1129.8"/>
</g>
<!-- graalpy&#45;&gt;geckodriver -->
<g id="edge61" class="edge">
<title>graalpy&#45;&gt;geckodriver</title>
<path fill="none" stroke="black" d="M1208.24,-1333.57C1294.13,-1326.72 1486.55,-1309.77 1647,-1284 1653.38,-1282.98 1660.01,-1281.78 1666.61,-1280.5"/>
<polygon fill="black" stroke="black" points="1667.04,-1283.99 1676.16,-1278.59 1665.67,-1277.12 1667.04,-1283.99"/>
</g>
<!-- graalpy&#45;&gt;firefox -->
<g id="edge62" class="edge">
<title>graalpy&#45;&gt;firefox</title>
<path fill="none" stroke="black" d="M1208.89,-1334.86C1307.78,-1329.72 1537.77,-1314.76 1609,-1284 1631.88,-1274.12 1632.25,-1263.2 1652,-1248 1666.13,-1237.12 1682.23,-1225.63 1695.88,-1216.14"/>
<polygon fill="black" stroke="black" points="1697.84,-1219.04 1704.08,-1210.48 1693.86,-1213.28 1697.84,-1219.04"/>
</g>
<!-- graalpy&#45;&gt;tensorflow -->
<g id="edge63" class="edge">
<title>graalpy&#45;&gt;tensorflow</title>
<path fill="none" stroke="black" d="M1116.66,-1336.93C984.79,-1336.14 596.42,-1329.79 278,-1284 271.97,-1283.13 265.7,-1282.02 259.47,-1280.79"/>
<polygon fill="black" stroke="black" points="260.37,-1277.4 249.87,-1278.77 258.93,-1284.25 260.37,-1277.4"/>
</g>
<!-- graalpy&#45;&gt;pytorch&#45;cpu -->
<g id="edge64" class="edge">
<title>graalpy&#45;&gt;pytorch&#45;cpu</title>
<path fill="none" stroke="black" d="M1126.44,-1326.6C1086.79,-1315.31 1022.9,-1297.13 976.1,-1283.82"/>
<polygon fill="black" stroke="black" points="977.23,-1280.5 966.65,-1281.13 975.31,-1287.23 977.23,-1280.5"/>
</g>
<!-- graalpy&#45;&gt;nvidia&#45;apex -->
<g id="edge65" class="edge">
<title>graalpy&#45;&gt;nvidia&#45;apex</title>
<path fill="none" stroke="black" d="M1117.52,-1334.22C1035.76,-1328.54 867.84,-1313.56 818,-1284 793.65,-1269.55 775,-1242.75 763.44,-1222.31"/>
<polygon fill="black" stroke="black" points="766.59,-1220.79 758.77,-1213.64 760.43,-1224.11 766.59,-1220.79"/>
</g>
<!-- graalpy&#45;&gt;kaolin -->
<g id="edge66" class="edge">
<title>graalpy&#45;&gt;kaolin</title>
<path fill="none" stroke="black" d="M1162.24,-1319.58C1160.77,-1300.85 1156.48,-1270.71 1144,-1248 1137.65,-1236.45 1127.99,-1225.82 1118.59,-1217.16"/>
<polygon fill="black" stroke="black" points="1121.1,-1214.71 1111.26,-1210.78 1116.5,-1219.98 1121.1,-1214.71"/>
</g>
<!-- graalpy&#45;&gt;gstlal -->
<g id="edge67" class="edge">
<title>graalpy&#45;&gt;gstlal</title>
<path fill="none" stroke="black" d="M1116.64,-1335.73C1014.7,-1332.33 763.68,-1320.63 557,-1284 549.97,-1282.75 542.59,-1281.09 535.45,-1279.29"/>
<polygon fill="black" stroke="black" points="536.54,-1275.96 525.98,-1276.78 534.75,-1282.73 536.54,-1275.96"/>
</g>
<!-- graalpy&#45;&gt;gstlal&#45;ugly -->
<g id="edge68" class="edge">
<title>graalpy&#45;&gt;gstlal&#45;ugly</title>
<path fill="none" stroke="black" d="M1116.91,-1335.97C1000.71,-1332.85 698.46,-1321.27 606,-1284 570.77,-1269.8 537.66,-1240.8 516.72,-1219.76"/>
<polygon fill="black" stroke="black" points="519.3,-1217.4 509.83,-1212.66 514.28,-1222.27 519.3,-1217.4"/>
</g>
<!-- graalpy&#45;&gt;gstlal&#45;burst -->
<g id="edge69" class="edge">
<title>graalpy&#45;&gt;gstlal&#45;burst</title>
<path fill="none" stroke="black" d="M1116.78,-1335.85C963.1,-1331.74 475.39,-1316.27 413,-1284 355.63,-1254.33 314.03,-1187.63 294.14,-1150.06"/>
<polygon fill="black" stroke="black" points="297.5,-1148.92 289.81,-1141.63 291.27,-1152.13 297.5,-1148.92"/>
</g>
<!-- graalpy&#45;&gt;gstlal&#45;inspiral -->
<g id="edge70" class="edge">
<title>graalpy&#45;&gt;gstlal&#45;inspiral</title>
<path fill="none" stroke="black" d="M1116.5,-1336.29C966.59,-1333.64 502.52,-1322.37 448,-1284 407.06,-1255.19 406.21,-1225.1 416,-1176 417.71,-1167.4 420.85,-1158.45 424.23,-1150.41"/>
<polygon fill="black" stroke="black" points="427.32,-1152.05 428.25,-1141.5 420.94,-1149.17 427.32,-1152.05"/>
</g>
<!-- graalpy&#45;&gt;gstlal&#45;calibration -->
<g id="edge71" class="edge">
<title>graalpy&#45;&gt;gstlal&#45;calibration</title>
<path fill="none" stroke="black" d="M1116.51,-1337.18C1012.8,-1336.71 766.4,-1330.58 700,-1284 655.16,-1252.54 634.2,-1188.54 625.45,-1151.41"/>
<polygon fill="black" stroke="black" points="628.92,-1150.87 623.35,-1141.85 622.08,-1152.37 628.92,-1150.87"/>
</g>
<!-- graalpy&#45;&gt;geant4 -->
<g id="edge72" class="edge">
<title>graalpy&#45;&gt;geant4</title>
<path fill="none" stroke="black" d="M1167.95,-1319.87C1174.87,-1295.88 1187.54,-1251.99 1195.87,-1223.16"/>
<polygon fill="black" stroke="black" points="1199.21,-1224.22 1198.62,-1213.64 1192.48,-1222.28 1199.21,-1224.22"/>
</g>
<!-- graalpy&#45;&gt;jaxlib -->
<g id="edge73" class="edge">
<title>graalpy&#45;&gt;jaxlib</title>
<path fill="none" stroke="black" d="M1183.15,-1321.46C1209.03,-1300.09 1252.67,-1258.89 1270,-1212 1277.43,-1191.9 1271.18,-1168.25 1263.62,-1150.39"/>
<polygon fill="black" stroke="black" points="1266.87,-1149.07 1259.49,-1141.47 1260.52,-1152.01 1266.87,-1149.07"/>
</g>
<!-- graalpy&#45;&gt;libv8 -->
<g id="edge74" class="edge">
<title>graalpy&#45;&gt;libv8</title>
<path fill="none" stroke="black" d="M1208.09,-1333.26C1281.5,-1326.48 1422.87,-1310.38 1465,-1284 1525.64,-1246.02 1527.34,-1210.9 1537,-1140 1539.16,-1124.15 1541.9,-1119.23 1537,-1104 1533.78,-1093.98 1527.88,-1084.24 1521.68,-1075.91"/>
<polygon fill="black" stroke="black" points="1524.6,-1073.95 1515.62,-1068.33 1519.14,-1078.33 1524.6,-1073.95"/>
</g>
<!-- graalpy&#45;&gt;filprofiler -->
<g id="edge75" class="edge">
<title>graalpy&#45;&gt;filprofiler</title>
<path fill="none" stroke="black" d="M1207.94,-1333.23C1287.45,-1326.02 1449.31,-1308.76 1500,-1284 1551.99,-1258.61 1595,-1252.86 1595,-1195 1595,-1195 1595,-1195 1595,-1121 1595,-1081.74 1595,-1036.38 1595,-1007.69"/>
<polygon fill="black" stroke="black" points="1598.5,-1008 1595,-998 1591.5,-1008 1598.5,-1008"/>
</g>
<!-- graalpy&#45;&gt;or&#45;tools -->
<g id="edge76" class="edge">
<title>graalpy&#45;&gt;or&#45;tools</title>
<path fill="none" stroke="black" d="M1143.47,-1321.46C1131.98,-1312.32 1117.22,-1300.59 1104.36,-1290.35"/>
<polygon fill="black" stroke="black" points="1106.58,-1287.65 1096.58,-1284.16 1102.22,-1293.13 1106.58,-1287.65"/>
</g>
<!-- graalpy&#45;&gt;cds&#45;crtools -->
<g id="edge77" class="edge">
<title>graalpy&#45;&gt;cds&#45;crtools</title>
<path fill="none" stroke="black" d="M1207.61,-1332.47C1268.17,-1325.43 1371.98,-1309.9 1399,-1284 1415.17,-1268.5 1420.83,-1243.35 1422.64,-1223.73"/>
<polygon fill="black" stroke="black" points="1426.13,-1224.07 1423.24,-1213.88 1419.14,-1223.65 1426.13,-1224.07"/>
</g>
<!-- graalpy&#45;&gt;pyscf -->
<g id="edge78" class="edge">
<title>graalpy&#45;&gt;pyscf</title>
<path fill="none" stroke="black" d="M1209.18,-1335.13C1263.21,-1331.3 1354.02,-1319.6 1423,-1284 1464.63,-1262.51 1481.35,-1254.98 1500,-1212 1508.62,-1192.13 1502.09,-1168.15 1494.1,-1150.1"/>
<polygon fill="black" stroke="black" points="1497.37,-1148.81 1489.86,-1141.33 1491.07,-1151.86 1497.37,-1148.81"/>
</g>
<!-- graalpy&#45;&gt;heavydb&#45;ext -->
<g id="edge79" class="edge">
<title>graalpy&#45;&gt;heavydb&#45;ext</title>
<path fill="none" stroke="black" d="M1209.45,-1336.54C1349.45,-1334.7 1760.31,-1325.75 1802,-1284 1856.18,-1229.74 1840.74,-1128.67 1828.93,-1079.43"/>
<polygon fill="black" stroke="black" points="1832.35,-1078.66 1826.5,-1069.83 1825.56,-1080.39 1832.35,-1078.66"/>
</g>
<!-- graalpy&#45;&gt;linux&#45;perf -->
<g id="edge80" class="edge">
<title>graalpy&#45;&gt;linux&#45;perf</title>
<path fill="none" stroke="black" d="M1209.33,-1335.89C1318.82,-1332.71 1601.85,-1321.26 1835,-1284 1840.57,-1283.11 1846.35,-1282.01 1852.09,-1280.79"/>
<polygon fill="black" stroke="black" points="1852.55,-1284.27 1861.55,-1278.68 1851.02,-1277.44 1852.55,-1284.27"/>
</g>
</g>
</svg>
