<?xml version="1.0" encoding="UTF-8" standalone="no"?>
<!DOCTYPE svg PUBLIC "-//W3C//DTD SVG 1.1//EN"
 "http://www.w3.org/Graphics/SVG/1.1/DTD/svg11.dtd">
<!-- Generated by graphviz version 2.47.0 (20210316.1410)
 -->
<!-- Pages: 1 -->
<svg width="1642pt" height="1024pt"
 viewBox="0.00 0.00 1641.68 1024.00" xmlns="http://www.w3.org/2000/svg" xmlns:xlink="http://www.w3.org/1999/xlink">
<g id="graph0" class="graph" transform="scale(1 1) rotate(0) translate(4 1020)">
<polygon fill="white" stroke="transparent" points="-4,4 -4,-1020 1637.68,-1020 1637.68,4 -4,4"/>
<!-- elfutils -->
<g id="node1" class="node">
<title>elfutils</title>
<g id="a_node1"><a xlink:href="https://github.com/conda-forge/elfutils-feedstock/pull/20" xlink:title="elfutils ❎">
<ellipse fill="#31688e" stroke="black" cx="363.14" cy="-710" rx="54" ry="18"/>
<text text-anchor="middle" x="363.14" y="-706.3" font-family="Times-Roman" font-size="14.00" fill="white">elfutils ❎</text>
</a>
</g>
</g>
<!-- heaptrack -->
<g id="node2" class="node">
<title>heaptrack</title>
<g id="a_node2"><a xlink:href="https://github.com/conda-forge/heaptrack-feedstock" xlink:title="heaptrack">
<ellipse fill="#fde725" stroke="black" cx="366.14" cy="-638" rx="58" ry="18"/>
<text text-anchor="middle" x="366.14" y="-634.3" font-family="Times-Roman" font-size="14.00">heaptrack</text>
</a>
</g>
</g>
<!-- elfutils&#45;&gt;heaptrack -->
<g id="edge1" class="edge">
<title>elfutils&#45;&gt;heaptrack</title>
<path fill="none" stroke="black" d="M363.88,-691.7C364.21,-683.98 364.61,-674.71 364.97,-666.11"/>
<polygon fill="black" stroke="black" points="368.47,-666.25 365.4,-656.1 361.48,-665.95 368.47,-666.25"/>
</g>
<!-- gdal -->
<g id="node3" class="node">
<title>gdal</title>
<g id="a_node3"><a xlink:href="https://github.com/conda-forge/gdal-feedstock/pull/466" xlink:title="gdal ❎">
<ellipse fill="#31688e" stroke="black" cx="110.14" cy="-162" rx="43" ry="18"/>
<text text-anchor="middle" x="110.14" y="-158.3" font-family="Times-Roman" font-size="14.00" fill="white">gdal ❎</text>
</a>
</g>
</g>
<!-- r&#45;sf -->
<g id="node4" class="node">
<title>r&#45;sf</title>
<g id="a_node4"><a xlink:href="https://github.com/conda-forge/r-sf-feedstock" xlink:title="r sf">
<ellipse fill="#fde725" stroke="black" cx="145.14" cy="-90" rx="27" ry="18"/>
<text text-anchor="middle" x="145.14" y="-86.3" font-family="Times-Roman" font-size="14.00">r sf</text>
</a>
</g>
</g>
<!-- gdal&#45;&gt;r&#45;sf -->
<g id="edge2" class="edge">
<title>gdal&#45;&gt;r&#45;sf</title>
<path fill="none" stroke="black" d="M118.61,-144.05C122.75,-135.77 127.83,-125.62 132.42,-116.42"/>
<polygon fill="black" stroke="black" points="135.64,-117.82 136.98,-107.31 129.38,-114.69 135.64,-117.82"/>
</g>
<!-- r&#45;spdep -->
<g id="node5" class="node">
<title>r&#45;spdep</title>
<g id="a_node5"><a xlink:href="https://github.com/conda-forge/r-spdep-feedstock" xlink:title="r spdep">
<ellipse fill="#fde725" stroke="black" cx="145.14" cy="-18" rx="46.29" ry="18"/>
<text text-anchor="middle" x="145.14" y="-14.3" font-family="Times-Roman" font-size="14.00">r spdep</text>
</a>
</g>
</g>
<!-- r&#45;sf&#45;&gt;r&#45;spdep -->
<g id="edge3" class="edge">
<title>r&#45;sf&#45;&gt;r&#45;spdep</title>
<path fill="none" stroke="black" d="M145.14,-71.7C145.14,-63.98 145.14,-54.71 145.14,-46.11"/>
<polygon fill="black" stroke="black" points="148.64,-46.1 145.14,-36.1 141.64,-46.1 148.64,-46.1"/>
</g>
<!-- googleapis&#45;common&#45;protos -->
<g id="node6" class="node">
<title>googleapis&#45;common&#45;protos</title>
<g id="a_node6"><a xlink:href="https://github.com/conda-forge/googleapis-common-protos-feedstock/pull/26" xlink:title="googleapis common protos ❎">
<ellipse fill="#31688e" stroke="black" cx="150.14" cy="-998" rx="150.27" ry="18"/>
<text text-anchor="middle" x="150.14" y="-994.3" font-family="Times-Roman" font-size="14.00" fill="white">googleapis common protos ❎</text>
</a>
</g>
</g>
<!-- pypy2.7 -->
<g id="node7" class="node">
<title>pypy2.7</title>
<g id="a_node7"><a xlink:href="https://github.com/conda-forge/pypy2.7-feedstock/pull/3" xlink:title="pypy2 7 ❎">
<ellipse fill="#31688e" stroke="black" cx="150.14" cy="-926" rx="60" ry="18"/>
<text text-anchor="middle" x="150.14" y="-922.3" font-family="Times-Roman" font-size="14.00" fill="white">pypy2 7 ❎</text>
</a>
</g>
</g>
<!-- googleapis&#45;common&#45;protos&#45;&gt;pypy2.7 -->
<!-- root_numpy -->
<g id="node24" class="node">
<title>root_numpy</title>
<g id="a_node24"><a xlink:href="https://github.com/conda-forge/root_numpy-feedstock/pull/19" xlink:title="root_numpy ❎">
<ellipse fill="#31688e" stroke="black" cx="150.14" cy="-854" rx="79.5" ry="18"/>
<text text-anchor="middle" x="150.14" y="-850.3" font-family="Times-Roman" font-size="14.00" fill="white">root_numpy ❎</text>
</a>
</g>
</g>
<!-- pypy2.7&#45;&gt;root_numpy -->
<!-- hyperspy -->
<g id="node8" class="node">
<title>hyperspy</title>
<g id="a_node8"><a xlink:href="https://github.com/conda-forge/hyperspy-feedstock" xlink:title="hyperspy">
<ellipse fill="#fde725" stroke="black" cx="1256.14" cy="-566" rx="54" ry="18"/>
<text text-anchor="middle" x="1256.14" y="-562.3" font-family="Times-Roman" font-size="14.00">hyperspy</text>
</a>
</g>
</g>
<!-- libunwind -->
<g id="node9" class="node">
<title>libunwind</title>
<g id="a_node9"><a xlink:href="https://github.com/conda-forge/libunwind-feedstock/pull/14" xlink:title="libunwind ❎">
<ellipse fill="#31688e" stroke="black" cx="503.14" cy="-710" rx="67.69" ry="18"/>
<text text-anchor="middle" x="503.14" y="-706.3" font-family="Times-Roman" font-size="14.00" fill="white">libunwind ❎</text>
</a>
</g>
</g>
<!-- libunwind&#45;&gt;heaptrack -->
<g id="edge5" class="edge">
<title>libunwind&#45;&gt;heaptrack</title>
<path fill="none" stroke="black" d="M473.41,-693.81C453.03,-683.4 425.82,-669.49 403.9,-658.29"/>
<polygon fill="black" stroke="black" points="405.36,-655.11 394.87,-653.68 402.18,-661.35 405.36,-655.11"/>
</g>
<!-- gperftools -->
<g id="node10" class="node">
<title>gperftools</title>
<g id="a_node10"><a xlink:href="https://github.com/conda-forge/gperftools-feedstock" xlink:title="gperftools">
<ellipse fill="#fde725" stroke="black" cx="501.14" cy="-638" rx="58" ry="18"/>
<text text-anchor="middle" x="501.14" y="-634.3" font-family="Times-Roman" font-size="14.00">gperftools</text>
</a>
</g>
</g>
<!-- libunwind&#45;&gt;gperftools -->
<g id="edge6" class="edge">
<title>libunwind&#45;&gt;gperftools</title>
<path fill="none" stroke="black" d="M502.64,-691.7C502.42,-683.98 502.16,-674.71 501.91,-666.11"/>
<polygon fill="black" stroke="black" points="505.41,-666 501.63,-656.1 498.41,-666.2 505.41,-666"/>
</g>
<!-- py&#45;spy -->
<g id="node11" class="node">
<title>py&#45;spy</title>
<g id="a_node11"><a xlink:href="https://github.com/conda-forge/py-spy-feedstock/pull/11" xlink:title="py spy ❎">
<ellipse fill="#31688e" stroke="black" cx="619.14" cy="-566" rx="53.5" ry="18"/>
<text text-anchor="middle" x="619.14" y="-562.3" font-family="Times-Roman" font-size="14.00" fill="white">py spy ❎</text>
</a>
</g>
</g>
<!-- libunwind&#45;&gt;py&#45;spy -->
<g id="edge7" class="edge">
<title>libunwind&#45;&gt;py&#45;spy</title>
<path fill="none" stroke="black" d="M526.9,-692.93C540.08,-683.25 556.17,-670.1 568.14,-656 584.42,-636.8 598.27,-611.67 607.41,-593.01"/>
<polygon fill="black" stroke="black" points="610.61,-594.44 611.75,-583.91 604.29,-591.43 610.61,-594.44"/>
</g>
<!-- sentencepiece -->
<g id="node12" class="node">
<title>sentencepiece</title>
<g id="a_node12"><a xlink:href="https://github.com/conda-forge/sentencepiece-feedstock" xlink:title="sentencepiece">
<ellipse fill="#fde725" stroke="black" cx="469.14" cy="-566" rx="78" ry="18"/>
<text text-anchor="middle" x="469.14" y="-562.3" font-family="Times-Roman" font-size="14.00">sentencepiece</text>
</a>
</g>
</g>
<!-- gperftools&#45;&gt;sentencepiece -->
<g id="edge8" class="edge">
<title>gperftools&#45;&gt;sentencepiece</title>
<path fill="none" stroke="black" d="M493.39,-620.05C489.75,-612.09 485.32,-602.41 481.26,-593.51"/>
<polygon fill="black" stroke="black" points="484.37,-591.91 477.03,-584.28 478.01,-594.83 484.37,-591.91"/>
</g>
<!-- allennlp -->
<g id="node23" class="node">
<title>allennlp</title>
<g id="a_node23"><a xlink:href="https://github.com/conda-forge/allennlp-feedstock" xlink:title="allennlp">
<ellipse fill="#fde725" stroke="black" cx="797.14" cy="-494" rx="47.5" ry="18"/>
<text text-anchor="middle" x="797.14" y="-490.3" font-family="Times-Roman" font-size="14.00">allennlp</text>
</a>
</g>
</g>
<!-- sentencepiece&#45;&gt;allennlp -->
<g id="edge23" class="edge">
<title>sentencepiece&#45;&gt;allennlp</title>
<path fill="none" stroke="black" d="M524.41,-553.2C586.54,-539.94 686.57,-518.6 746.66,-505.77"/>
<polygon fill="black" stroke="black" points="747.63,-509.15 756.68,-503.63 746.17,-502.3 747.63,-509.15"/>
</g>
<!-- pyqt -->
<g id="node13" class="node">
<title>pyqt</title>
<g id="a_node13"><a xlink:href="https://github.com/conda-forge/pyqt-feedstock" xlink:title="pyqt">
<ellipse fill="#fde725" stroke="black" cx="1254.14" cy="-638" rx="31.4" ry="18"/>
<text text-anchor="middle" x="1254.14" y="-634.3" font-family="Times-Roman" font-size="14.00">pyqt</text>
</a>
</g>
</g>
<!-- pyqt&#45;&gt;hyperspy -->
<g id="edge9" class="edge">
<title>pyqt&#45;&gt;hyperspy</title>
<path fill="none" stroke="black" d="M1254.63,-619.7C1254.85,-611.98 1255.12,-602.71 1255.36,-594.11"/>
<polygon fill="black" stroke="black" points="1258.86,-594.2 1255.65,-584.1 1251.86,-594 1258.86,-594.2"/>
</g>
<!-- pythonocc&#45;core -->
<g id="node14" class="node">
<title>pythonocc&#45;core</title>
<g id="a_node14"><a xlink:href="https://github.com/conda-forge/pythonocc-core-feedstock" xlink:title="pythonocc core">
<ellipse fill="#fde725" stroke="black" cx="1102.14" cy="-566" rx="82" ry="18"/>
<text text-anchor="middle" x="1102.14" y="-562.3" font-family="Times-Roman" font-size="14.00">pythonocc core</text>
</a>
</g>
</g>
<!-- pyqt&#45;&gt;pythonocc&#45;core -->
<g id="edge10" class="edge">
<title>pyqt&#45;&gt;pythonocc&#45;core</title>
<path fill="none" stroke="black" d="M1230.39,-626.06C1207.68,-615.61 1172.92,-599.6 1145.31,-586.88"/>
<polygon fill="black" stroke="black" points="1146.42,-583.54 1135.87,-582.54 1143.49,-589.9 1146.42,-583.54"/>
</g>
<!-- qt -->
<g id="node15" class="node">
<title>qt</title>
<g id="a_node15"><a xlink:href="https://github.com/conda-forge/qt-feedstock/pull/184" xlink:title="qt ❎">
<ellipse fill="#31688e" stroke="black" cx="1372.14" cy="-710" rx="32.5" ry="18"/>
<text text-anchor="middle" x="1372.14" y="-706.3" font-family="Times-Roman" font-size="14.00" fill="white">qt ❎</text>
</a>
</g>
</g>
<!-- qt&#45;&gt;pyqt -->
<g id="edge11" class="edge">
<title>qt&#45;&gt;pyqt</title>
<path fill="none" stroke="black" d="M1350.77,-696.32C1332.14,-685.27 1304.92,-669.13 1284.11,-656.78"/>
<polygon fill="black" stroke="black" points="1285.73,-653.67 1275.35,-651.58 1282.16,-659.69 1285.73,-653.67"/>
</g>
<!-- pivy -->
<g id="node16" class="node">
<title>pivy</title>
<g id="a_node16"><a xlink:href="https://github.com/conda-forge/pivy-feedstock" xlink:title="pivy">
<ellipse fill="#fde725" stroke="black" cx="1359.14" cy="-566" rx="30" ry="18"/>
<text text-anchor="middle" x="1359.14" y="-562.3" font-family="Times-Roman" font-size="14.00">pivy</text>
</a>
</g>
</g>
<!-- qt&#45;&gt;pivy -->
<g id="edge12" class="edge">
<title>qt&#45;&gt;pivy</title>
<path fill="none" stroke="black" d="M1356.48,-693.9C1347.45,-684.07 1336.97,-670.43 1332.14,-656 1324.95,-634.56 1333.71,-609.94 1343.12,-592.03"/>
<polygon fill="black" stroke="black" points="1346.44,-593.27 1348.31,-582.84 1340.35,-589.83 1346.44,-593.27"/>
</g>
<!-- pyside2 -->
<g id="node17" class="node">
<title>pyside2</title>
<g id="a_node17"><a xlink:href="https://github.com/conda-forge/pyside2-feedstock" xlink:title="pyside2">
<ellipse fill="#fde725" stroke="black" cx="1468.14" cy="-638" rx="47" ry="18"/>
<text text-anchor="middle" x="1468.14" y="-634.3" font-family="Times-Roman" font-size="14.00">pyside2</text>
</a>
</g>
</g>
<!-- qt&#45;&gt;pyside2 -->
<g id="edge13" class="edge">
<title>qt&#45;&gt;pyside2</title>
<path fill="none" stroke="black" d="M1391.1,-695.17C1404.75,-685.22 1423.41,-671.61 1438.95,-660.28"/>
<polygon fill="black" stroke="black" points="1441.19,-662.98 1447.21,-654.26 1437.07,-657.32 1441.19,-662.98"/>
</g>
<!-- soqt -->
<g id="node18" class="node">
<title>soqt</title>
<g id="a_node18"><a xlink:href="https://github.com/conda-forge/soqt-feedstock" xlink:title="soqt">
<ellipse fill="#fde725" stroke="black" cx="1372.14" cy="-638" rx="30.59" ry="18"/>
<text text-anchor="middle" x="1372.14" y="-634.3" font-family="Times-Roman" font-size="14.00">soqt</text>
</a>
</g>
</g>
<!-- qt&#45;&gt;soqt -->
<g id="edge14" class="edge">
<title>qt&#45;&gt;soqt</title>
<path fill="none" stroke="black" d="M1372.14,-691.7C1372.14,-683.98 1372.14,-674.71 1372.14,-666.11"/>
<polygon fill="black" stroke="black" points="1375.64,-666.1 1372.14,-656.1 1368.64,-666.1 1375.64,-666.1"/>
</g>
<!-- geant4 -->
<g id="node19" class="node">
<title>geant4</title>
<g id="a_node19"><a xlink:href="https://github.com/conda-forge/geant4-feedstock" xlink:title="geant4">
<ellipse fill="#fde725" stroke="black" cx="1590.14" cy="-566" rx="43.59" ry="18"/>
<text text-anchor="middle" x="1590.14" y="-562.3" font-family="Times-Roman" font-size="14.00">geant4</text>
</a>
</g>
</g>
<!-- qt&#45;&gt;geant4 -->
<g id="edge15" class="edge">
<title>qt&#45;&gt;geant4</title>
<path fill="none" stroke="black" d="M1402.91,-703.84C1435.53,-697.18 1487.33,-683.07 1524.14,-656 1546.88,-639.27 1565.24,-612.48 1576.76,-592.65"/>
<polygon fill="black" stroke="black" points="1579.87,-594.26 1581.72,-583.82 1573.77,-590.83 1579.87,-594.26"/>
</g>
<!-- pyside2&#45;&gt;pivy -->
<g id="edge16" class="edge">
<title>pyside2&#45;&gt;pivy</title>
<path fill="none" stroke="black" d="M1445.02,-622.15C1428.31,-611.42 1405.63,-596.86 1387.77,-585.39"/>
<polygon fill="black" stroke="black" points="1389.24,-582.17 1378.93,-579.71 1385.45,-588.06 1389.24,-582.17"/>
</g>
<!-- cctbx&#45;base -->
<g id="node20" class="node">
<title>cctbx&#45;base</title>
<g id="a_node20"><a xlink:href="https://github.com/conda-forge/cctbx-base-feedstock" xlink:title="cctbx base">
<ellipse fill="#fde725" stroke="black" cx="1468.14" cy="-566" rx="60.5" ry="18"/>
<text text-anchor="middle" x="1468.14" y="-562.3" font-family="Times-Roman" font-size="14.00">cctbx base</text>
</a>
</g>
</g>
<!-- pyside2&#45;&gt;cctbx&#45;base -->
<g id="edge17" class="edge">
<title>pyside2&#45;&gt;cctbx&#45;base</title>
<path fill="none" stroke="black" d="M1468.14,-619.7C1468.14,-611.98 1468.14,-602.71 1468.14,-594.11"/>
<polygon fill="black" stroke="black" points="1471.64,-594.1 1468.14,-584.1 1464.64,-594.1 1471.64,-594.1"/>
</g>
<!-- soqt&#45;&gt;pivy -->
<g id="edge18" class="edge">
<title>soqt&#45;&gt;pivy</title>
<path fill="none" stroke="black" d="M1368.99,-620.05C1367.56,-612.35 1365.83,-603.03 1364.22,-594.36"/>
<polygon fill="black" stroke="black" points="1367.61,-593.47 1362.34,-584.28 1360.73,-594.75 1367.61,-593.47"/>
</g>
<!-- r&#45;units -->
<g id="node21" class="node">
<title>r&#45;units</title>
<g id="a_node21"><a xlink:href="https://github.com/conda-forge/r-units-feedstock/pull/15" xlink:title="r units ✓">
<ellipse fill="#31688e" stroke="black" cx="181.14" cy="-234" rx="50.89" ry="18"/>
<text text-anchor="middle" x="181.14" y="-230.3" font-family="Times-Roman" font-size="14.00" fill="white">r units ✓</text>
</a>
</g>
</g>
<!-- r&#45;units&#45;&gt;r&#45;sf -->
<g id="edge19" class="edge">
<title>r&#45;units&#45;&gt;r&#45;sf</title>
<path fill="none" stroke="black" d="M178,-215.82C174.58,-197.8 168.73,-168.73 162.14,-144 159.8,-135.24 156.89,-125.78 154.15,-117.31"/>
<polygon fill="black" stroke="black" points="157.39,-115.98 150.93,-107.58 150.75,-118.18 157.39,-115.98"/>
</g>
<!-- torchvision -->
<g id="node22" class="node">
<title>torchvision</title>
<g id="a_node22"><a xlink:href="https://github.com/conda-forge/torchvision-feedstock" xlink:title="torchvision">
<ellipse fill="#fde725" stroke="black" cx="752.14" cy="-566" rx="61.99" ry="18"/>
<text text-anchor="middle" x="752.14" y="-562.3" font-family="Times-Roman" font-size="14.00">torchvision</text>
</a>
</g>
</g>
<!-- torchvision&#45;&gt;allennlp -->
<g id="edge20" class="edge">
<title>torchvision&#45;&gt;allennlp</title>
<path fill="none" stroke="black" d="M763.03,-548.05C768.39,-539.71 774.96,-529.49 780.9,-520.25"/>
<polygon fill="black" stroke="black" points="783.88,-522.09 786.34,-511.79 777.99,-518.31 783.88,-522.09"/>
</g>
<!-- r&#45;grf -->
<g id="node26" class="node">
<title>r&#45;grf</title>
<g id="a_node26"><a xlink:href="https://github.com/conda-forge/r-grf-feedstock/pull/10" xlink:title="r grf ❎">
<ellipse fill="#31688e" stroke="black" cx="150.14" cy="-782" rx="43" ry="18"/>
<text text-anchor="middle" x="150.14" y="-778.3" font-family="Times-Roman" font-size="14.00" fill="white">r grf ❎</text>
</a>
</g>
</g>
<!-- root_numpy&#45;&gt;r&#45;grf -->
<!-- occt -->
<g id="node25" class="node">
<title>occt</title>
<g id="a_node25"><a xlink:href="https://github.com/conda-forge/occt-feedstock/pull/59" xlink:title="occt ❎">
<ellipse fill="#31688e" stroke="black" cx="1102.14" cy="-638" rx="42.49" ry="18"/>
<text text-anchor="middle" x="1102.14" y="-634.3" font-family="Times-Roman" font-size="14.00" fill="white">occt ❎</text>
</a>
</g>
</g>
<!-- occt&#45;&gt;pythonocc&#45;core -->
<g id="edge22" class="edge">
<title>occt&#45;&gt;pythonocc&#45;core</title>
<path fill="none" stroke="black" d="M1102.14,-619.7C1102.14,-611.98 1102.14,-602.71 1102.14,-594.11"/>
<polygon fill="black" stroke="black" points="1105.64,-594.1 1102.14,-584.1 1098.64,-594.1 1105.64,-594.1"/>
</g>
<!-- grpcio&#45;gcp -->
<g id="node28" class="node">
<title>grpcio&#45;gcp</title>
<g id="a_node28"><a xlink:href="https://github.com/conda-forge/grpcio-gcp-feedstock/pull/9" xlink:title="grpcio gcp ❎">
<ellipse fill="#31688e" stroke="black" cx="150.14" cy="-710" rx="71.5" ry="18"/>
<text text-anchor="middle" x="150.14" y="-706.3" font-family="Times-Roman" font-size="14.00" fill="white">grpcio gcp ❎</text>
</a>
</g>
</g>
<!-- r&#45;grf&#45;&gt;grpcio&#45;gcp -->
<!-- pytorch&#45;cpu -->
<g id="node27" class="node">
<title>pytorch&#45;cpu</title>
<g id="a_node27"><a xlink:href="https://github.com/conda-forge/pytorch-cpu-feedstock" xlink:title="pytorch cpu">
<ellipse fill="#fde725" stroke="black" cx="842.14" cy="-638" rx="65.79" ry="18"/>
<text text-anchor="middle" x="842.14" y="-634.3" font-family="Times-Roman" font-size="14.00">pytorch cpu</text>
</a>
</g>
</g>
<!-- pytorch&#45;cpu&#45;&gt;torchvision -->
<g id="edge25" class="edge">
<title>pytorch&#45;cpu&#45;&gt;torchvision</title>
<path fill="none" stroke="black" d="M821.26,-620.76C809.34,-611.49 794.2,-599.71 781.13,-589.55"/>
<polygon fill="black" stroke="black" points="782.94,-586.52 772.9,-583.15 778.64,-592.05 782.94,-586.52"/>
</g>
<!-- pytorch&#45;cpu&#45;&gt;allennlp -->
<g id="edge26" class="edge">
<title>pytorch&#45;cpu&#45;&gt;allennlp</title>
<path fill="none" stroke="black" d="M839.77,-619.93C836.96,-601.76 831.56,-572.34 823.14,-548 819.97,-538.85 815.6,-529.24 811.35,-520.75"/>
<polygon fill="black" stroke="black" points="814.38,-518.99 806.67,-511.73 808.17,-522.22 814.38,-518.99"/>
</g>
<!-- ibm_db -->
<g id="node29" class="node">
<title>ibm_db</title>
<g id="a_node29"><a xlink:href="https://github.com/conda-forge/ibm_db-feedstock/pull/27" xlink:title="ibm_db ❎">
<ellipse fill="#31688e" stroke="black" cx="150.14" cy="-638" rx="57.39" ry="18"/>
<text text-anchor="middle" x="150.14" y="-634.3" font-family="Times-Roman" font-size="14.00" fill="white">ibm_db ❎</text>
</a>
</g>
</g>
<!-- grpcio&#45;gcp&#45;&gt;ibm_db -->
<!-- nvcc -->
<g id="node30" class="node">
<title>nvcc</title>
<g id="a_node30"><a xlink:href="https://github.com/conda-forge/nvcc-feedstock/pull/62" xlink:title="nvcc ✓">
<ellipse fill="#31688e" stroke="black" cx="150.14" cy="-566" rx="42.49" ry="18"/>
<text text-anchor="middle" x="150.14" y="-562.3" font-family="Times-Roman" font-size="14.00" fill="white">nvcc ✓</text>
</a>
</g>
</g>
<!-- ibm_db&#45;&gt;nvcc -->
<!-- proj -->
<g id="node36" class="node">
<title>proj</title>
<g id="a_node36"><a xlink:href="https://github.com/conda-forge/proj-feedstock" xlink:title="proj">
<ellipse fill="#35b779" stroke="black" cx="150.14" cy="-494" rx="28.7" ry="18"/>
<text text-anchor="middle" x="150.14" y="-490.3" font-family="Times-Roman" font-size="14.00">proj</text>
</a>
</g>
</g>
<!-- nvcc&#45;&gt;proj -->
<!-- cudatoolkit -->
<g id="node31" class="node">
<title>cudatoolkit</title>
<g id="a_node31"><a xlink:href="https://github.com/conda-forge/cudatoolkit-feedstock/pull/4" xlink:title="cudatoolkit ❎">
<ellipse fill="#31688e" stroke="black" cx="721.14" cy="-782" rx="74.19" ry="18"/>
<text text-anchor="middle" x="721.14" y="-778.3" font-family="Times-Roman" font-size="14.00" fill="white">cudatoolkit ❎</text>
</a>
</g>
</g>
<!-- cudnn -->
<g id="node32" class="node">
<title>cudnn</title>
<g id="a_node32"><a xlink:href="https://github.com/conda-forge/cudnn-feedstock" xlink:title="cudnn">
<ellipse fill="#fde725" stroke="black" cx="666.14" cy="-710" rx="39" ry="18"/>
<text text-anchor="middle" x="666.14" y="-706.3" font-family="Times-Roman" font-size="14.00">cudnn</text>
</a>
</g>
</g>
<!-- cudatoolkit&#45;&gt;cudnn -->
<g id="edge30" class="edge">
<title>cudatoolkit&#45;&gt;cudnn</title>
<path fill="none" stroke="black" d="M707.82,-764.05C701.04,-755.42 692.66,-744.76 685.2,-735.27"/>
<polygon fill="black" stroke="black" points="687.88,-733.01 678.95,-727.31 682.38,-737.33 687.88,-733.01"/>
</g>
<!-- cutensor -->
<g id="node33" class="node">
<title>cutensor</title>
<g id="a_node33"><a xlink:href="https://github.com/conda-forge/cutensor-feedstock" xlink:title="cutensor">
<ellipse fill="#fde725" stroke="black" cx="775.14" cy="-710" rx="51.5" ry="18"/>
<text text-anchor="middle" x="775.14" y="-706.3" font-family="Times-Roman" font-size="14.00">cutensor</text>
</a>
</g>
</g>
<!-- cudatoolkit&#45;&gt;cutensor -->
<g id="edge31" class="edge">
<title>cudatoolkit&#45;&gt;cutensor</title>
<path fill="none" stroke="black" d="M734.21,-764.05C740.71,-755.63 748.69,-745.28 755.88,-735.97"/>
<polygon fill="black" stroke="black" points="758.85,-737.84 762.19,-727.79 753.31,-733.57 758.85,-737.84"/>
</g>
<!-- cudnn&#45;&gt;torchvision -->
<g id="edge32" class="edge">
<title>cudnn&#45;&gt;torchvision</title>
<path fill="none" stroke="black" d="M676.17,-692.43C691.04,-667.88 719.07,-621.6 736.6,-592.65"/>
<polygon fill="black" stroke="black" points="739.71,-594.27 741.9,-583.9 733.73,-590.64 739.71,-594.27"/>
</g>
<!-- cudnn&#45;&gt;pytorch&#45;cpu -->
<g id="edge33" class="edge">
<title>cudnn&#45;&gt;pytorch&#45;cpu</title>
<path fill="none" stroke="black" d="M694.81,-697.6C722.44,-686.61 764.67,-669.81 796.85,-657.01"/>
<polygon fill="black" stroke="black" points="798.49,-660.13 806.48,-653.18 795.9,-653.62 798.49,-660.13"/>
</g>
<!-- libv8 -->
<g id="node34" class="node">
<title>libv8</title>
<g id="a_node34"><a xlink:href="https://github.com/conda-forge/libv8-feedstock/pull/64" xlink:title="libv8 ❎">
<ellipse fill="#31688e" stroke="black" cx="660.14" cy="-162" rx="45" ry="18"/>
<text text-anchor="middle" x="660.14" y="-158.3" font-family="Times-Roman" font-size="14.00" fill="white">libv8 ❎</text>
</a>
</g>
</g>
<!-- r&#45;v8 -->
<g id="node35" class="node">
<title>r&#45;v8</title>
<g id="a_node35"><a xlink:href="https://github.com/conda-forge/r-v8-feedstock" xlink:title="r v8">
<ellipse fill="#fde725" stroke="black" cx="660.14" cy="-90" rx="28.7" ry="18"/>
<text text-anchor="middle" x="660.14" y="-86.3" font-family="Times-Roman" font-size="14.00">r v8</text>
</a>
</g>
</g>
<!-- libv8&#45;&gt;r&#45;v8 -->
<g id="edge34" class="edge">
<title>libv8&#45;&gt;r&#45;v8</title>
<path fill="none" stroke="black" d="M660.14,-143.7C660.14,-135.98 660.14,-126.71 660.14,-118.11"/>
<polygon fill="black" stroke="black" points="663.64,-118.1 660.14,-108.1 656.64,-118.1 663.64,-118.1"/>
</g>
<!-- jaeger -->
<g id="node37" class="node">
<title>jaeger</title>
<g id="a_node37"><a xlink:href="https://github.com/conda-forge/jaeger-feedstock/pull/12" xlink:title="jaeger ❎">
<ellipse fill="#31688e" stroke="black" cx="150.14" cy="-422" rx="52.79" ry="18"/>
<text text-anchor="middle" x="150.14" y="-418.3" font-family="Times-Roman" font-size="14.00" fill="white">jaeger ❎</text>
</a>
</g>
</g>
<!-- proj&#45;&gt;jaeger -->
<!-- ompl -->
<g id="node39" class="node">
<title>ompl</title>
<g id="a_node39"><a xlink:href="https://github.com/conda-forge/ompl-feedstock/pull/8" xlink:title="ompl ❎">
<ellipse fill="#31688e" stroke="black" cx="150.14" cy="-350" rx="46.29" ry="18"/>
<text text-anchor="middle" x="150.14" y="-346.3" font-family="Times-Roman" font-size="14.00" fill="white">ompl ❎</text>
</a>
</g>
</g>
<!-- jaeger&#45;&gt;ompl -->
<!-- nccl -->
<g id="node38" class="node">
<title>nccl</title>
<g id="a_node38"><a xlink:href="https://github.com/conda-forge/nccl-feedstock/pull/35" xlink:title="nccl ✓">
<ellipse fill="#31688e" stroke="black" cx="884.14" cy="-710" rx="39.79" ry="18"/>
<text text-anchor="middle" x="884.14" y="-706.3" font-family="Times-Roman" font-size="14.00" fill="white">nccl ✓</text>
</a>
</g>
</g>
<!-- nccl&#45;&gt;pytorch&#45;cpu -->
<g id="edge37" class="edge">
<title>nccl&#45;&gt;pytorch&#45;cpu</title>
<path fill="none" stroke="black" d="M874.18,-692.41C869.23,-684.16 863.14,-674.01 857.6,-664.78"/>
<polygon fill="black" stroke="black" points="860.46,-662.73 852.31,-655.96 854.45,-666.33 860.46,-662.73"/>
</g>
<!-- dm&#45;tree -->
<g id="node40" class="node">
<title>dm&#45;tree</title>
<g id="a_node40"><a xlink:href="https://github.com/conda-forge/dm-tree-feedstock/pull/4" xlink:title="dm tree ❎">
<ellipse fill="#31688e" stroke="black" cx="150.14" cy="-278" rx="60" ry="18"/>
<text text-anchor="middle" x="150.14" y="-274.3" font-family="Times-Roman" font-size="14.00" fill="white">dm tree ❎</text>
</a>
</g>
</g>
<!-- ompl&#45;&gt;dm&#45;tree -->
<!-- tokenizers -->
<g id="node41" class="node">
<title>tokenizers</title>
<g id="a_node41"><a xlink:href="https://github.com/conda-forge/tokenizers-feedstock/pull/18" xlink:title="tokenizers ❎">
<ellipse fill="#31688e" stroke="black" cx="941.14" cy="-566" rx="71" ry="18"/>
<text text-anchor="middle" x="941.14" y="-562.3" font-family="Times-Roman" font-size="14.00" fill="white">tokenizers ❎</text>
</a>
</g>
</g>
<!-- tokenizers&#45;&gt;allennlp -->
<g id="edge40" class="edge">
<title>tokenizers&#45;&gt;allennlp</title>
<path fill="none" stroke="black" d="M909.89,-549.81C887.79,-539.07 858.05,-524.61 834.66,-513.24"/>
<polygon fill="black" stroke="black" points="835.92,-509.96 825.39,-508.74 832.86,-516.26 835.92,-509.96"/>
</g>
<!-- magma -->
<g id="node42" class="node">
<title>magma</title>
<g id="a_node42"><a xlink:href="https://github.com/conda-forge/magma-feedstock/pull/4" xlink:title="magma ❎">
<ellipse fill="#31688e" stroke="black" cx="952.14" cy="-782" rx="59.29" ry="18"/>
<text text-anchor="middle" x="952.14" y="-778.3" font-family="Times-Roman" font-size="14.00" fill="white">magma ❎</text>
</a>
</g>
</g>
<!-- magma&#45;&gt;pytorch&#45;cpu -->
<g id="edge41" class="edge">
<title>magma&#45;&gt;pytorch&#45;cpu</title>
<path fill="none" stroke="black" d="M952.46,-763.96C951.98,-744.73 948.61,-713.37 933.14,-692 922.29,-677.02 905.81,-665.61 889.84,-657.28"/>
<polygon fill="black" stroke="black" points="891.06,-653.98 880.54,-652.72 887.98,-660.27 891.06,-653.98"/>
</g>
<!-- pyrfr -->
<g id="node43" class="node">
<title>pyrfr</title>
<g id="a_node43"><a xlink:href="https://github.com/conda-forge/pyrfr-feedstock/pull/11" xlink:title="pyrfr ❎">
<ellipse fill="#31688e" stroke="black" cx="1327.14" cy="-126" rx="45.5" ry="18"/>
<text text-anchor="middle" x="1327.14" y="-122.3" font-family="Times-Roman" font-size="14.00" fill="white">pyrfr ❎</text>
</a>
</g>
</g>
</g>
</svg>
