<?xml version="1.0" encoding="UTF-8" standalone="no"?>
<!DOCTYPE svg PUBLIC "-//W3C//DTD SVG 1.1//EN"
 "http://www.w3.org/Graphics/SVG/1.1/DTD/svg11.dtd">
<!-- Generated by graphviz version 2.47.1 (20210511.0111)
 -->
<!-- Pages: 1 -->
<svg width="2753pt" height="880pt"
 viewBox="0.00 0.00 2752.74 880.00" xmlns="http://www.w3.org/2000/svg" xmlns:xlink="http://www.w3.org/1999/xlink">
<g id="graph0" class="graph" transform="scale(1 1) rotate(0) translate(4 876)">
<polygon fill="white" stroke="transparent" points="-4,4 -4,-876 2748.74,-876 2748.74,4 -4,4"/>
<!-- check -->
<g id="node1" class="node">
<title>check</title>
<g id="a_node1"><a xlink:href="https://github.com/conda-forge/check-feedstock/pull/19" xlink:title="check ❎">
<ellipse fill="#31688e" stroke="black" cx="2124.24" cy="-494" rx="51.5" ry="18"/>
<text text-anchor="middle" x="2124.24" y="-490.3" font-family="Times-Roman" font-size="14.00" fill="white">check ❎</text>
</a>
</g>
</g>
<!-- pulseaudio -->
<g id="node2" class="node">
<title>pulseaudio</title>
<g id="a_node2"><a xlink:href="https://github.com/conda-forge/pulseaudio-feedstock" xlink:title="pulseaudio">
<ellipse fill="#fde725" stroke="black" cx="1934.24" cy="-422" rx="60" ry="18"/>
<text text-anchor="middle" x="1934.24" y="-418.3" font-family="Times-Roman" font-size="14.00">pulseaudio</text>
</a>
</g>
</g>
<!-- check&#45;&gt;pulseaudio -->
<g id="edge1" class="edge">
<title>check&#45;&gt;pulseaudio</title>
<path fill="none" stroke="black" d="M2089.84,-480.32C2059.18,-469.03 2014.07,-452.41 1980.3,-439.97"/>
<polygon fill="black" stroke="black" points="1981.25,-436.59 1970.66,-436.42 1978.83,-443.16 1981.25,-436.59"/>
</g>
<!-- gqrx -->
<g id="node3" class="node">
<title>gqrx</title>
<g id="a_node3"><a xlink:href="https://github.com/conda-forge/gqrx-feedstock" xlink:title="gqrx">
<ellipse fill="#fde725" stroke="black" cx="456.24" cy="-350" rx="31.4" ry="18"/>
<text text-anchor="middle" x="456.24" y="-346.3" font-family="Times-Roman" font-size="14.00">gqrx</text>
</a>
</g>
</g>
<!-- pulseaudio&#45;&gt;gqrx -->
<g id="edge2" class="edge">
<title>pulseaudio&#45;&gt;gqrx</title>
<path fill="none" stroke="black" d="M1891.32,-409.29C1882.12,-407.18 1872.41,-405.26 1863.24,-404 1589.34,-366.43 700.96,-353.87 497.86,-351.46"/>
<polygon fill="black" stroke="black" points="497.66,-347.96 487.62,-351.34 497.58,-354.96 497.66,-347.96"/>
</g>
<!-- click -->
<g id="node4" class="node">
<title>click</title>
<g id="a_node4"><a xlink:href="https://github.com/conda-forge/click-feedstock/pull/20" xlink:title="click ✓">
<ellipse fill="#31688e" stroke="black" cx="681.24" cy="-638" rx="41.69" ry="18"/>
<text text-anchor="middle" x="681.24" y="-634.3" font-family="Times-Roman" font-size="14.00" fill="white">click ✓</text>
</a>
</g>
</g>
<!-- hyperspy -->
<g id="node5" class="node">
<title>hyperspy</title>
<g id="a_node5"><a xlink:href="https://github.com/conda-forge/hyperspy-feedstock" xlink:title="hyperspy">
<ellipse fill="#fde725" stroke="black" cx="599.24" cy="-566" rx="53.5" ry="18"/>
<text text-anchor="middle" x="599.24" y="-562.3" font-family="Times-Roman" font-size="14.00">hyperspy</text>
</a>
</g>
</g>
<!-- click&#45;&gt;hyperspy -->
<g id="edge3" class="edge">
<title>click&#45;&gt;hyperspy</title>
<path fill="none" stroke="black" d="M663.04,-621.46C652.05,-612.08 637.85,-599.96 625.64,-589.54"/>
<polygon fill="black" stroke="black" points="627.84,-586.81 617.96,-582.98 623.29,-592.13 627.84,-586.81"/>
</g>
<!-- allennlp -->
<g id="node6" class="node">
<title>allennlp</title>
<g id="a_node6"><a xlink:href="https://github.com/conda-forge/allennlp-feedstock" xlink:title="allennlp">
<ellipse fill="#fde725" stroke="black" cx="1329.24" cy="-422" rx="46.29" ry="18"/>
<text text-anchor="middle" x="1329.24" y="-418.3" font-family="Times-Roman" font-size="14.00">allennlp</text>
</a>
</g>
</g>
<!-- click&#45;&gt;allennlp -->
<g id="edge4" class="edge">
<title>click&#45;&gt;allennlp</title>
<path fill="none" stroke="black" d="M679.9,-619.79C679.33,-599.82 681.66,-567.17 700.24,-548 779.63,-466.08 1134.93,-435.22 1273.57,-426.16"/>
<polygon fill="black" stroke="black" points="1274.2,-429.63 1283.96,-425.5 1273.76,-422.64 1274.2,-429.63"/>
</g>
<!-- pytorch&#45;cpu -->
<g id="node7" class="node">
<title>pytorch&#45;cpu</title>
<g id="a_node7"><a xlink:href="https://github.com/conda-forge/pytorch-cpu-feedstock" xlink:title="pytorch cpu">
<ellipse fill="#fde725" stroke="black" cx="1328.24" cy="-566" rx="64.5" ry="18"/>
<text text-anchor="middle" x="1328.24" y="-562.3" font-family="Times-Roman" font-size="14.00">pytorch cpu</text>
</a>
</g>
</g>
<!-- click&#45;&gt;pytorch&#45;cpu -->
<g id="edge5" class="edge">
<title>click&#45;&gt;pytorch&#45;cpu</title>
<path fill="none" stroke="black" d="M721.23,-632.67C828.5,-621.07 1123.66,-589.13 1258.91,-574.5"/>
<polygon fill="black" stroke="black" points="1259.58,-577.95 1269.14,-573.39 1258.83,-570.99 1259.58,-577.95"/>
</g>
<!-- gnuradio -->
<g id="node8" class="node">
<title>gnuradio</title>
<g id="a_node8"><a xlink:href="https://github.com/conda-forge/gnuradio-feedstock" xlink:title="gnuradio">
<ellipse fill="#fde725" stroke="black" cx="261.24" cy="-566" rx="51.5" ry="18"/>
<text text-anchor="middle" x="261.24" y="-562.3" font-family="Times-Roman" font-size="14.00">gnuradio</text>
</a>
</g>
</g>
<!-- click&#45;&gt;gnuradio -->
<g id="edge6" class="edge">
<title>click&#45;&gt;gnuradio</title>
<path fill="none" stroke="black" d="M641.25,-632.83C574.49,-625.49 436.29,-608.66 321.24,-584 317.13,-583.12 312.89,-582.11 308.65,-581.04"/>
<polygon fill="black" stroke="black" points="309.39,-577.62 298.82,-578.45 307.6,-584.39 309.39,-577.62"/>
</g>
<!-- dm&#45;tree -->
<g id="node9" class="node">
<title>dm&#45;tree</title>
<g id="a_node9"><a xlink:href="https://github.com/conda-forge/dm-tree-feedstock/pull/4" xlink:title="dm tree ❎">
<ellipse fill="#31688e" stroke="black" cx="769.24" cy="-566" rx="60" ry="18"/>
<text text-anchor="middle" x="769.24" y="-562.3" font-family="Times-Roman" font-size="14.00" fill="white">dm tree ❎</text>
</a>
</g>
</g>
<!-- click&#45;&gt;dm&#45;tree -->
<g id="edge7" class="edge">
<title>click&#45;&gt;dm&#45;tree</title>
<path fill="none" stroke="black" d="M700.34,-621.81C712.23,-612.35 727.73,-600.02 741.02,-589.45"/>
<polygon fill="black" stroke="black" points="743.31,-592.1 748.96,-583.13 738.96,-586.62 743.31,-592.1"/>
</g>
<!-- pytorch&#45;cpu&#45;&gt;allennlp -->
<g id="edge8" class="edge">
<title>pytorch&#45;cpu&#45;&gt;allennlp</title>
<path fill="none" stroke="black" d="M1328.36,-547.87C1328.53,-523.67 1328.85,-479.21 1329.05,-450.39"/>
<polygon fill="black" stroke="black" points="1332.55,-450.21 1329.12,-440.19 1325.55,-450.16 1332.55,-450.21"/>
</g>
<!-- torchvision -->
<g id="node10" class="node">
<title>torchvision</title>
<g id="a_node10"><a xlink:href="https://github.com/conda-forge/torchvision-feedstock" xlink:title="torchvision">
<ellipse fill="#fde725" stroke="black" cx="1241.24" cy="-494" rx="60" ry="18"/>
<text text-anchor="middle" x="1241.24" y="-490.3" font-family="Times-Roman" font-size="14.00">torchvision</text>
</a>
</g>
</g>
<!-- pytorch&#45;cpu&#45;&gt;torchvision -->
<g id="edge9" class="edge">
<title>pytorch&#45;cpu&#45;&gt;torchvision</title>
<path fill="none" stroke="black" d="M1308.06,-548.76C1296.54,-539.49 1281.9,-527.71 1269.27,-517.55"/>
<polygon fill="black" stroke="black" points="1271.3,-514.69 1261.31,-511.15 1266.91,-520.14 1271.3,-514.69"/>
</g>
<!-- gnuradio&#45;&gt;gqrx -->
<g id="edge10" class="edge">
<title>gnuradio&#45;&gt;gqrx</title>
<path fill="none" stroke="black" d="M259.56,-547.51C257.45,-515 257.78,-444.88 294.24,-404 324.85,-369.69 377.99,-357.5 415.03,-353.22"/>
<polygon fill="black" stroke="black" points="415.42,-356.7 425.02,-352.22 414.72,-349.74 415.42,-356.7"/>
</g>
<!-- digital_rf -->
<g id="node11" class="node">
<title>digital_rf</title>
<g id="a_node11"><a xlink:href="https://github.com/conda-forge/digital_rf-feedstock" xlink:title="digital_rf">
<ellipse fill="#fde725" stroke="black" cx="159.24" cy="-494" rx="50.09" ry="18"/>
<text text-anchor="middle" x="159.24" y="-490.3" font-family="Times-Roman" font-size="14.00">digital_rf</text>
</a>
</g>
</g>
<!-- gnuradio&#45;&gt;digital_rf -->
<g id="edge11" class="edge">
<title>gnuradio&#45;&gt;digital_rf</title>
<path fill="none" stroke="black" d="M238.86,-549.64C224.51,-539.79 205.69,-526.88 189.95,-516.08"/>
<polygon fill="black" stroke="black" points="191.8,-513.1 181.57,-510.33 187.84,-518.87 191.8,-513.1"/>
</g>
<!-- gnuradio&#45;osmosdr -->
<g id="node12" class="node">
<title>gnuradio&#45;osmosdr</title>
<g id="a_node12"><a xlink:href="https://github.com/conda-forge/gnuradio-osmosdr-feedstock" xlink:title="gnuradio osmosdr">
<ellipse fill="#fde725" stroke="black" cx="396.24" cy="-422" rx="93" ry="18"/>
<text text-anchor="middle" x="396.24" y="-418.3" font-family="Times-Roman" font-size="14.00">gnuradio osmosdr</text>
</a>
</g>
</g>
<!-- gnuradio&#45;&gt;gnuradio&#45;osmosdr -->
<g id="edge12" class="edge">
<title>gnuradio&#45;&gt;gnuradio&#45;osmosdr</title>
<path fill="none" stroke="black" d="M276.73,-548.71C300.38,-523.83 345.65,-476.22 373.17,-447.26"/>
<polygon fill="black" stroke="black" points="375.75,-449.64 380.1,-439.98 370.67,-444.81 375.75,-449.64"/>
</g>
<!-- gnuradio&#45;soapy -->
<g id="node13" class="node">
<title>gnuradio&#45;soapy</title>
<g id="a_node13"><a xlink:href="https://github.com/conda-forge/gnuradio-soapy-feedstock" xlink:title="gnuradio soapy">
<ellipse fill="#fde725" stroke="black" cx="81.24" cy="-350" rx="81.49" ry="18"/>
<text text-anchor="middle" x="81.24" y="-346.3" font-family="Times-Roman" font-size="14.00">gnuradio soapy</text>
</a>
</g>
</g>
<!-- gnuradio&#45;&gt;gnuradio&#45;soapy -->
<g id="edge13" class="edge">
<title>gnuradio&#45;&gt;gnuradio&#45;soapy</title>
<path fill="none" stroke="black" d="M210.77,-562.23C174.32,-557.39 126.96,-544.7 100.24,-512 69.25,-474.08 71.61,-413.33 76.3,-378.3"/>
<polygon fill="black" stroke="black" points="79.78,-378.72 77.8,-368.31 72.86,-377.68 79.78,-378.72"/>
</g>
<!-- gnuradio&#45;satellites -->
<g id="node14" class="node">
<title>gnuradio&#45;satellites</title>
<g id="a_node14"><a xlink:href="https://github.com/conda-forge/gnuradio-satellites-feedstock" xlink:title="gnuradio satellites">
<ellipse fill="#fde725" stroke="black" cx="237.24" cy="-278" rx="94.48" ry="18"/>
<text text-anchor="middle" x="237.24" y="-274.3" font-family="Times-Roman" font-size="14.00">gnuradio satellites</text>
</a>
</g>
</g>
<!-- gnuradio&#45;&gt;gnuradio&#45;satellites -->
<g id="edge14" class="edge">
<title>gnuradio&#45;&gt;gnuradio&#45;satellites</title>
<path fill="none" stroke="black" d="M259.14,-547.83C257.91,-537.46 256.38,-523.98 255.24,-512 248.17,-437.72 241.97,-349.91 239.04,-306.35"/>
<polygon fill="black" stroke="black" points="242.52,-306.01 238.37,-296.26 235.54,-306.47 242.52,-306.01"/>
</g>
<!-- torchvision&#45;&gt;allennlp -->
<g id="edge39" class="edge">
<title>torchvision&#45;&gt;allennlp</title>
<path fill="none" stroke="black" d="M1261.65,-476.76C1273.56,-467.29 1288.75,-455.21 1301.71,-444.9"/>
<polygon fill="black" stroke="black" points="1304.2,-447.39 1309.85,-438.43 1299.84,-441.91 1304.2,-447.39"/>
</g>
<!-- gnuradio&#45;osmosdr&#45;&gt;gqrx -->
<g id="edge55" class="edge">
<title>gnuradio&#45;osmosdr&#45;&gt;gqrx</title>
<path fill="none" stroke="black" d="M410.77,-404.05C418.46,-395.08 428.03,-383.92 436.4,-374.15"/>
<polygon fill="black" stroke="black" points="439.23,-376.23 443.08,-366.36 433.91,-371.67 439.23,-376.23"/>
</g>
<!-- googleapis&#45;common&#45;protos -->
<g id="node15" class="node">
<title>googleapis&#45;common&#45;protos</title>
<g id="a_node15"><a xlink:href="https://github.com/conda-forge/googleapis-common-protos-feedstock/pull/27" xlink:title="googleapis common protos ❎">
<ellipse fill="#31688e" stroke="black" cx="2330.24" cy="-854" rx="147" ry="18"/>
<text text-anchor="middle" x="2330.24" y="-850.3" font-family="Times-Roman" font-size="14.00" fill="white">googleapis common protos ❎</text>
</a>
</g>
</g>
<!-- root_numpy -->
<g id="node16" class="node">
<title>root_numpy</title>
<g id="a_node16"><a xlink:href="https://github.com/conda-forge/root_numpy-feedstock/pull/21" xlink:title="root_numpy ❎">
<ellipse fill="#31688e" stroke="black" cx="2330.24" cy="-782" rx="78.79" ry="18"/>
<text text-anchor="middle" x="2330.24" y="-778.3" font-family="Times-Roman" font-size="14.00" fill="white">root_numpy ❎</text>
</a>
</g>
</g>
<!-- googleapis&#45;common&#45;protos&#45;&gt;root_numpy -->
<!-- r&#45;grf -->
<g id="node36" class="node">
<title>r&#45;grf</title>
<g id="a_node36"><a xlink:href="https://github.com/conda-forge/r-grf-feedstock/pull/10" xlink:title="r grf ❎">
<ellipse fill="#31688e" stroke="black" cx="2330.24" cy="-710" rx="45" ry="18"/>
<text text-anchor="middle" x="2330.24" y="-706.3" font-family="Times-Roman" font-size="14.00" fill="white">r grf ❎</text>
</a>
</g>
</g>
<!-- root_numpy&#45;&gt;r&#45;grf -->
<!-- jack -->
<g id="node17" class="node">
<title>jack</title>
<g id="a_node17"><a xlink:href="https://github.com/conda-forge/jack-feedstock/pull/6" xlink:title="jack ✓">
<ellipse fill="#31688e" stroke="black" cx="1866.24" cy="-566" rx="39.79" ry="18"/>
<text text-anchor="middle" x="1866.24" y="-562.3" font-family="Times-Roman" font-size="14.00" fill="white">jack ✓</text>
</a>
</g>
</g>
<!-- jack&#45;&gt;pulseaudio -->
<g id="edge16" class="edge">
<title>jack&#45;&gt;pulseaudio</title>
<path fill="none" stroke="black" d="M1874.31,-548.15C1886.01,-523.73 1907.78,-478.26 1921.61,-449.38"/>
<polygon fill="black" stroke="black" points="1924.81,-450.8 1925.97,-440.27 1918.5,-447.78 1924.81,-450.8"/>
</g>
<!-- libunwind -->
<g id="node18" class="node">
<title>libunwind</title>
<g id="a_node18"><a xlink:href="https://github.com/conda-forge/libunwind-feedstock/pull/14" xlink:title="libunwind ❎">
<ellipse fill="#31688e" stroke="black" cx="1729.24" cy="-638" rx="69" ry="18"/>
<text text-anchor="middle" x="1729.24" y="-634.3" font-family="Times-Roman" font-size="14.00" fill="white">libunwind ❎</text>
</a>
</g>
</g>
<!-- gperftools -->
<g id="node19" class="node">
<title>gperftools</title>
<g id="a_node19"><a xlink:href="https://github.com/conda-forge/gperftools-feedstock" xlink:title="gperftools">
<ellipse fill="#fde725" stroke="black" cx="1620.24" cy="-566" rx="56" ry="18"/>
<text text-anchor="middle" x="1620.24" y="-562.3" font-family="Times-Roman" font-size="14.00">gperftools</text>
</a>
</g>
</g>
<!-- libunwind&#45;&gt;gperftools -->
<g id="edge17" class="edge">
<title>libunwind&#45;&gt;gperftools</title>
<path fill="none" stroke="black" d="M1704.51,-621.12C1689.25,-611.31 1669.49,-598.63 1652.94,-588"/>
<polygon fill="black" stroke="black" points="1654.44,-584.8 1644.13,-582.34 1650.65,-590.69 1654.44,-584.8"/>
</g>
<!-- py&#45;spy -->
<g id="node20" class="node">
<title>py&#45;spy</title>
<g id="a_node20"><a xlink:href="https://github.com/conda-forge/py-spy-feedstock" xlink:title="py spy">
<ellipse fill="#fde725" stroke="black" cx="1729.24" cy="-494" rx="41" ry="18"/>
<text text-anchor="middle" x="1729.24" y="-490.3" font-family="Times-Roman" font-size="14.00">py spy</text>
</a>
</g>
</g>
<!-- libunwind&#45;&gt;py&#45;spy -->
<g id="edge18" class="edge">
<title>libunwind&#45;&gt;py&#45;spy</title>
<path fill="none" stroke="black" d="M1729.24,-619.87C1729.24,-595.67 1729.24,-551.21 1729.24,-522.39"/>
<polygon fill="black" stroke="black" points="1732.74,-522.19 1729.24,-512.19 1725.74,-522.19 1732.74,-522.19"/>
</g>
<!-- heaptrack -->
<g id="node21" class="node">
<title>heaptrack</title>
<g id="a_node21"><a xlink:href="https://github.com/conda-forge/heaptrack-feedstock" xlink:title="heaptrack">
<ellipse fill="#fde725" stroke="black" cx="1798.24" cy="-422" rx="56" ry="18"/>
<text text-anchor="middle" x="1798.24" y="-418.3" font-family="Times-Roman" font-size="14.00">heaptrack</text>
</a>
</g>
</g>
<!-- libunwind&#45;&gt;heaptrack -->
<g id="edge19" class="edge">
<title>libunwind&#45;&gt;heaptrack</title>
<path fill="none" stroke="black" d="M1737.15,-619.94C1747.91,-596.18 1767.2,-551.58 1779.24,-512 1785.44,-491.63 1790.38,-468.03 1793.67,-450.26"/>
<polygon fill="black" stroke="black" points="1797.14,-450.74 1795.45,-440.28 1790.25,-449.51 1797.14,-450.74"/>
</g>
<!-- sentencepiece -->
<g id="node22" class="node">
<title>sentencepiece</title>
<g id="a_node22"><a xlink:href="https://github.com/conda-forge/sentencepiece-feedstock" xlink:title="sentencepiece">
<ellipse fill="#fde725" stroke="black" cx="1594.24" cy="-494" rx="75.5" ry="18"/>
<text text-anchor="middle" x="1594.24" y="-490.3" font-family="Times-Roman" font-size="14.00">sentencepiece</text>
</a>
</g>
</g>
<!-- gperftools&#45;&gt;sentencepiece -->
<g id="edge20" class="edge">
<title>gperftools&#45;&gt;sentencepiece</title>
<path fill="none" stroke="black" d="M1613.95,-548.05C1611.02,-540.18 1607.47,-530.62 1604.19,-521.79"/>
<polygon fill="black" stroke="black" points="1607.42,-520.43 1600.66,-512.28 1600.86,-522.87 1607.42,-520.43"/>
</g>
<!-- sentencepiece&#45;&gt;allennlp -->
<g id="edge40" class="edge">
<title>sentencepiece&#45;&gt;allennlp</title>
<path fill="none" stroke="black" d="M1545.64,-480.16C1497.37,-467.41 1423.87,-448 1376.19,-435.4"/>
<polygon fill="black" stroke="black" points="1376.99,-431.99 1366.43,-432.82 1375.2,-438.76 1376.99,-431.99"/>
</g>
<!-- perl&#45;xml&#45;parser -->
<g id="node23" class="node">
<title>perl&#45;xml&#45;parser</title>
<g id="a_node23"><a xlink:href="https://github.com/conda-forge/perl-xml-parser-feedstock/pull/8" xlink:title="perl xml parser ❎">
<ellipse fill="#31688e" stroke="black" cx="1922.24" cy="-638" rx="94.48" ry="18"/>
<text text-anchor="middle" x="1922.24" y="-634.3" font-family="Times-Roman" font-size="14.00" fill="white">perl xml parser ❎</text>
</a>
</g>
</g>
<!-- perl&#45;xml&#45;parser&#45;&gt;pulseaudio -->
<g id="edge21" class="edge">
<title>perl&#45;xml&#45;parser&#45;&gt;pulseaudio</title>
<path fill="none" stroke="black" d="M1923.2,-619.85C1925.28,-582.83 1930.2,-495.18 1932.71,-450.39"/>
<polygon fill="black" stroke="black" points="1936.21,-450.41 1933.28,-440.23 1929.22,-450.02 1936.21,-450.41"/>
</g>
<!-- pyqt -->
<g id="node24" class="node">
<title>pyqt</title>
<g id="a_node24"><a xlink:href="https://github.com/conda-forge/pyqt-feedstock" xlink:title="pyqt">
<ellipse fill="#fde725" stroke="black" cx="450.24" cy="-638" rx="31.4" ry="18"/>
<text text-anchor="middle" x="450.24" y="-634.3" font-family="Times-Roman" font-size="14.00">pyqt</text>
</a>
</g>
</g>
<!-- pyqt&#45;&gt;hyperspy -->
<g id="edge22" class="edge">
<title>pyqt&#45;&gt;hyperspy</title>
<path fill="none" stroke="black" d="M473.85,-625.91C496.97,-615.05 532.62,-598.3 560.01,-585.43"/>
<polygon fill="black" stroke="black" points="561.76,-588.48 569.32,-581.06 558.78,-582.14 561.76,-588.48"/>
</g>
<!-- pyqt&#45;&gt;gnuradio -->
<g id="edge23" class="edge">
<title>pyqt&#45;&gt;gnuradio</title>
<path fill="none" stroke="black" d="M424.75,-627.56C394.05,-616.19 341.96,-596.9 304.83,-583.14"/>
<polygon fill="black" stroke="black" points="305.85,-579.79 295.26,-579.6 303.42,-586.35 305.85,-579.79"/>
</g>
<!-- pythonocc&#45;core -->
<g id="node25" class="node">
<title>pythonocc&#45;core</title>
<g id="a_node25"><a xlink:href="https://github.com/conda-forge/pythonocc-core-feedstock" xlink:title="pythonocc core">
<ellipse fill="#fde725" stroke="black" cx="410.24" cy="-566" rx="79.5" ry="18"/>
<text text-anchor="middle" x="410.24" y="-562.3" font-family="Times-Roman" font-size="14.00">pythonocc core</text>
</a>
</g>
</g>
<!-- pyqt&#45;&gt;pythonocc&#45;core -->
<g id="edge24" class="edge">
<title>pyqt&#45;&gt;pythonocc&#45;core</title>
<path fill="none" stroke="black" d="M440.97,-620.76C436.26,-612.53 430.42,-602.32 425.11,-593.02"/>
<polygon fill="black" stroke="black" points="428.03,-591.07 420.03,-584.12 421.95,-594.54 428.03,-591.07"/>
</g>
<!-- qt -->
<g id="node26" class="node">
<title>qt</title>
<g id="a_node26"><a xlink:href="https://github.com/conda-forge/qt-feedstock/pull/184" xlink:title="qt ❎">
<ellipse fill="#31688e" stroke="black" cx="687.24" cy="-710" rx="34.5" ry="18"/>
<text text-anchor="middle" x="687.24" y="-706.3" font-family="Times-Roman" font-size="14.00" fill="white">qt ❎</text>
</a>
</g>
</g>
<!-- qt&#45;&gt;gqrx -->
<g id="edge32" class="edge">
<title>qt&#45;&gt;gqrx</title>
<path fill="none" stroke="black" d="M658.4,-699.85C609.9,-682.44 517.24,-639.68 517.24,-567 517.24,-567 517.24,-567 517.24,-493 517.24,-452.55 515.48,-440.59 498.24,-404 493.11,-393.1 485.35,-382.43 477.88,-373.55"/>
<polygon fill="black" stroke="black" points="480.43,-371.14 471.2,-365.94 475.17,-375.76 480.43,-371.14"/>
</g>
<!-- qt&#45;&gt;gnuradio -->
<g id="edge25" class="edge">
<title>qt&#45;&gt;gnuradio</title>
<path fill="none" stroke="black" d="M652.77,-707.58C572.41,-703.7 375.25,-690.82 320.24,-656 297.09,-641.34 281,-613.94 271.54,-593.4"/>
<polygon fill="black" stroke="black" points="274.63,-591.72 267.43,-583.95 268.21,-594.52 274.63,-591.72"/>
</g>
<!-- qt&#45;&gt;pyqt -->
<g id="edge26" class="edge">
<title>qt&#45;&gt;pyqt</title>
<path fill="none" stroke="black" d="M657.52,-700.74C621.08,-690.53 557.47,-672.5 503.24,-656 497.81,-654.35 492.08,-652.56 486.48,-650.78"/>
<polygon fill="black" stroke="black" points="487.2,-647.34 476.61,-647.63 485.07,-654.01 487.2,-647.34"/>
</g>
<!-- qwt -->
<g id="node27" class="node">
<title>qwt</title>
<g id="a_node27"><a xlink:href="https://github.com/conda-forge/qwt-feedstock" xlink:title="qwt">
<ellipse fill="#fde725" stroke="black" cx="357.24" cy="-638" rx="27.5" ry="18"/>
<text text-anchor="middle" x="357.24" y="-634.3" font-family="Times-Roman" font-size="14.00">qwt</text>
</a>
</g>
</g>
<!-- qt&#45;&gt;qwt -->
<g id="edge27" class="edge">
<title>qt&#45;&gt;qwt</title>
<path fill="none" stroke="black" d="M654.55,-704.06C602.45,-695.9 497.54,-678.26 410.24,-656 403.91,-654.39 397.23,-652.44 390.82,-650.45"/>
<polygon fill="black" stroke="black" points="391.66,-647.04 381.07,-647.32 389.53,-653.71 391.66,-647.04"/>
</g>
<!-- pivy -->
<g id="node28" class="node">
<title>pivy</title>
<g id="a_node28"><a xlink:href="https://github.com/conda-forge/pivy-feedstock" xlink:title="pivy">
<ellipse fill="#fde725" stroke="black" cx="1031.24" cy="-494" rx="30" ry="18"/>
<text text-anchor="middle" x="1031.24" y="-490.3" font-family="Times-Roman" font-size="14.00">pivy</text>
</a>
</g>
</g>
<!-- qt&#45;&gt;pivy -->
<g id="edge28" class="edge">
<title>qt&#45;&gt;pivy</title>
<path fill="none" stroke="black" d="M705.7,-694.38C734.49,-671.43 791.62,-625.3 838.24,-584 855.66,-568.57 856.34,-560.04 876.24,-548 913.13,-525.69 960.69,-511.22 993.34,-503.12"/>
<polygon fill="black" stroke="black" points="994.47,-506.45 1003.38,-500.72 992.84,-499.64 994.47,-506.45"/>
</g>
<!-- pyside2 -->
<g id="node29" class="node">
<title>pyside2</title>
<g id="a_node29"><a xlink:href="https://github.com/conda-forge/pyside2-feedstock" xlink:title="pyside2">
<ellipse fill="#fde725" stroke="black" cx="945.24" cy="-638" rx="46.29" ry="18"/>
<text text-anchor="middle" x="945.24" y="-634.3" font-family="Times-Roman" font-size="14.00">pyside2</text>
</a>
</g>
</g>
<!-- qt&#45;&gt;pyside2 -->
<g id="edge29" class="edge">
<title>qt&#45;&gt;pyside2</title>
<path fill="none" stroke="black" d="M717.09,-700.9C761.58,-688.83 845.68,-666.01 898.41,-651.71"/>
<polygon fill="black" stroke="black" points="899.46,-655.05 908.19,-649.05 897.63,-648.29 899.46,-655.05"/>
</g>
<!-- soqt -->
<g id="node30" class="node">
<title>soqt</title>
<g id="a_node30"><a xlink:href="https://github.com/conda-forge/soqt-feedstock" xlink:title="soqt">
<ellipse fill="#fde725" stroke="black" cx="1092.24" cy="-566" rx="30.59" ry="18"/>
<text text-anchor="middle" x="1092.24" y="-562.3" font-family="Times-Roman" font-size="14.00">soqt</text>
</a>
</g>
</g>
<!-- qt&#45;&gt;soqt -->
<g id="edge30" class="edge">
<title>qt&#45;&gt;soqt</title>
<path fill="none" stroke="black" d="M722.19,-709.67C782.32,-709.43 907.78,-702.77 1000.24,-656 1030.74,-640.57 1057.8,-611.56 1074.55,-590.85"/>
<polygon fill="black" stroke="black" points="1077.43,-592.84 1080.86,-582.82 1071.93,-588.52 1077.43,-592.84"/>
</g>
<!-- geant4 -->
<g id="node31" class="node">
<title>geant4</title>
<g id="a_node31"><a xlink:href="https://github.com/conda-forge/geant4-feedstock" xlink:title="geant4">
<ellipse fill="#fde725" stroke="black" cx="1121.24" cy="-494" rx="42.49" ry="18"/>
<text text-anchor="middle" x="1121.24" y="-490.3" font-family="Times-Roman" font-size="14.00">geant4</text>
</a>
</g>
</g>
<!-- qt&#45;&gt;geant4 -->
<g id="edge31" class="edge">
<title>qt&#45;&gt;geant4</title>
<path fill="none" stroke="black" d="M721.92,-709.39C786.73,-708.93 929.48,-702.21 1038.24,-656 1086.68,-635.42 1108.95,-631.19 1132.24,-584 1141.84,-564.56 1137.74,-539.95 1132.01,-521.53"/>
<polygon fill="black" stroke="black" points="1135.3,-520.33 1128.74,-512.01 1128.68,-522.61 1135.3,-520.33"/>
</g>
<!-- qwt&#45;&gt;gnuradio -->
<g id="edge33" class="edge">
<title>qwt&#45;&gt;gnuradio</title>
<path fill="none" stroke="black" d="M339.63,-624.16C326.02,-614.24 306.88,-600.27 290.91,-588.63"/>
<polygon fill="black" stroke="black" points="292.57,-585.51 282.43,-582.45 288.44,-591.17 292.57,-585.51"/>
</g>
<!-- pyside2&#45;&gt;pivy -->
<g id="edge34" class="edge">
<title>pyside2&#45;&gt;pivy</title>
<path fill="none" stroke="black" d="M971.79,-623.06C986.58,-613.92 1004.02,-600.59 1014.24,-584 1025.69,-565.42 1029.73,-540.83 1031.02,-522.21"/>
<polygon fill="black" stroke="black" points="1034.52,-522.18 1031.5,-512.02 1027.53,-521.85 1034.52,-522.18"/>
</g>
<!-- cctbx&#45;base -->
<g id="node32" class="node">
<title>cctbx&#45;base</title>
<g id="a_node32"><a xlink:href="https://github.com/conda-forge/cctbx-base-feedstock" xlink:title="cctbx base">
<ellipse fill="#fde725" stroke="black" cx="945.24" cy="-566" rx="60" ry="18"/>
<text text-anchor="middle" x="945.24" y="-562.3" font-family="Times-Roman" font-size="14.00">cctbx base</text>
</a>
</g>
</g>
<!-- pyside2&#45;&gt;cctbx&#45;base -->
<g id="edge35" class="edge">
<title>pyside2&#45;&gt;cctbx&#45;base</title>
<path fill="none" stroke="black" d="M945.24,-619.7C945.24,-611.98 945.24,-602.71 945.24,-594.11"/>
<polygon fill="black" stroke="black" points="948.74,-594.1 945.24,-584.1 941.74,-594.1 948.74,-594.1"/>
</g>
<!-- soqt&#45;&gt;pivy -->
<g id="edge36" class="edge">
<title>soqt&#45;&gt;pivy</title>
<path fill="none" stroke="black" d="M1078.7,-549.46C1070.73,-540.31 1060.48,-528.55 1051.55,-518.31"/>
<polygon fill="black" stroke="black" points="1053.95,-515.73 1044.74,-510.49 1048.67,-520.33 1053.95,-515.73"/>
</g>
<!-- r&#45;sf -->
<g id="node33" class="node">
<title>r&#45;sf</title>
<g id="a_node33"><a xlink:href="https://github.com/conda-forge/r-sf-feedstock/pull/49" xlink:title="r sf ❎">
<ellipse fill="#31688e" stroke="black" cx="2330.24" cy="-90" rx="40.5" ry="18"/>
<text text-anchor="middle" x="2330.24" y="-86.3" font-family="Times-Roman" font-size="14.00" fill="white">r sf ❎</text>
</a>
</g>
</g>
<!-- r&#45;spdep -->
<g id="node34" class="node">
<title>r&#45;spdep</title>
<g id="a_node34"><a xlink:href="https://github.com/conda-forge/r-spdep-feedstock" xlink:title="r spdep">
<ellipse fill="#fde725" stroke="black" cx="2330.24" cy="-18" rx="45.5" ry="18"/>
<text text-anchor="middle" x="2330.24" y="-14.3" font-family="Times-Roman" font-size="14.00">r spdep</text>
</a>
</g>
</g>
<!-- r&#45;sf&#45;&gt;r&#45;spdep -->
<g id="edge37" class="edge">
<title>r&#45;sf&#45;&gt;r&#45;spdep</title>
<path fill="none" stroke="black" d="M2330.24,-71.7C2330.24,-63.98 2330.24,-54.71 2330.24,-46.11"/>
<polygon fill="black" stroke="black" points="2333.74,-46.1 2330.24,-36.1 2326.74,-46.1 2333.74,-46.1"/>
</g>
<!-- speex -->
<g id="node35" class="node">
<title>speex</title>
<g id="a_node35"><a xlink:href="https://github.com/conda-forge/speex-feedstock/pull/7" xlink:title="speex ❎">
<ellipse fill="#31688e" stroke="black" cx="2044.24" cy="-710" rx="52" ry="18"/>
<text text-anchor="middle" x="2044.24" y="-706.3" font-family="Times-Roman" font-size="14.00" fill="white">speex ❎</text>
</a>
</g>
</g>
<!-- speex&#45;&gt;pulseaudio -->
<g id="edge38" class="edge">
<title>speex&#45;&gt;pulseaudio</title>
<path fill="none" stroke="black" d="M2041.76,-691.97C2038.86,-673.83 2033.38,-644.43 2025.24,-620 2004.04,-556.35 1968.3,-485.92 1948.51,-448.95"/>
<polygon fill="black" stroke="black" points="1951.44,-447 1943.61,-439.87 1945.28,-450.33 1951.44,-447"/>
</g>
<!-- grpcio&#45;gcp -->
<g id="node37" class="node">
<title>grpcio&#45;gcp</title>
<g id="a_node37"><a xlink:href="https://github.com/conda-forge/grpcio-gcp-feedstock/pull/9" xlink:title="grpcio gcp ❎">
<ellipse fill="#31688e" stroke="black" cx="2330.24" cy="-638" rx="73" ry="18"/>
<text text-anchor="middle" x="2330.24" y="-634.3" font-family="Times-Roman" font-size="14.00" fill="white">grpcio gcp ❎</text>
</a>
</g>
</g>
<!-- r&#45;grf&#45;&gt;grpcio&#45;gcp -->
<!-- ibm_db -->
<g id="node40" class="node">
<title>ibm_db</title>
<g id="a_node40"><a xlink:href="https://github.com/conda-forge/ibm_db-feedstock/pull/27" xlink:title="ibm_db ❎">
<ellipse fill="#31688e" stroke="black" cx="2330.24" cy="-566" rx="58" ry="18"/>
<text text-anchor="middle" x="2330.24" y="-562.3" font-family="Times-Roman" font-size="14.00" fill="white">ibm_db ❎</text>
</a>
</g>
</g>
<!-- grpcio&#45;gcp&#45;&gt;ibm_db -->
<!-- vim -->
<g id="node38" class="node">
<title>vim</title>
<g id="a_node38"><a xlink:href="https://github.com/conda-forge/vim-feedstock/pull/1224" xlink:title="vim ❎">
<ellipse fill="#31688e" stroke="black" cx="2615.24" cy="-90" rx="41.69" ry="18"/>
<text text-anchor="middle" x="2615.24" y="-86.3" font-family="Times-Roman" font-size="14.00" fill="white">vim ❎</text>
</a>
</g>
</g>
<!-- plumed -->
<g id="node39" class="node">
<title>plumed</title>
<g id="a_node39"><a xlink:href="https://github.com/conda-forge/plumed-feedstock" xlink:title="plumed">
<ellipse fill="#fde725" stroke="black" cx="2615.24" cy="-18" rx="45" ry="18"/>
<text text-anchor="middle" x="2615.24" y="-14.3" font-family="Times-Roman" font-size="14.00">plumed</text>
</a>
</g>
</g>
<!-- vim&#45;&gt;plumed -->
<g id="edge43" class="edge">
<title>vim&#45;&gt;plumed</title>
<path fill="none" stroke="black" d="M2615.24,-71.7C2615.24,-63.98 2615.24,-54.71 2615.24,-46.11"/>
<polygon fill="black" stroke="black" points="2618.74,-46.1 2615.24,-36.1 2611.74,-46.1 2618.74,-46.1"/>
</g>
<!-- nvcc -->
<g id="node41" class="node">
<title>nvcc</title>
<g id="a_node41"><a xlink:href="https://github.com/conda-forge/nvcc-feedstock/pull/62" xlink:title="nvcc ✓">
<ellipse fill="#31688e" stroke="black" cx="2330.24" cy="-494" rx="42.49" ry="18"/>
<text text-anchor="middle" x="2330.24" y="-490.3" font-family="Times-Roman" font-size="14.00" fill="white">nvcc ✓</text>
</a>
</g>
</g>
<!-- ibm_db&#45;&gt;nvcc -->
<!-- proj -->
<g id="node47" class="node">
<title>proj</title>
<g id="a_node47"><a xlink:href="https://github.com/conda-forge/proj-feedstock" xlink:title="proj">
<ellipse fill="#35b779" stroke="black" cx="2330.24" cy="-422" rx="28" ry="18"/>
<text text-anchor="middle" x="2330.24" y="-418.3" font-family="Times-Roman" font-size="14.00">proj</text>
</a>
</g>
</g>
<!-- nvcc&#45;&gt;proj -->
<!-- cudatoolkit -->
<g id="node42" class="node">
<title>cudatoolkit</title>
<g id="a_node42"><a xlink:href="https://github.com/conda-forge/cudatoolkit-feedstock/pull/4" xlink:title="cudatoolkit ❎">
<ellipse fill="#31688e" stroke="black" cx="1276.24" cy="-710" rx="74.99" ry="18"/>
<text text-anchor="middle" x="1276.24" y="-706.3" font-family="Times-Roman" font-size="14.00" fill="white">cudatoolkit ❎</text>
</a>
</g>
</g>
<!-- cudnn -->
<g id="node43" class="node">
<title>cudnn</title>
<g id="a_node43"><a xlink:href="https://github.com/conda-forge/cudnn-feedstock" xlink:title="cudnn">
<ellipse fill="#fde725" stroke="black" cx="1223.24" cy="-638" rx="39" ry="18"/>
<text text-anchor="middle" x="1223.24" y="-634.3" font-family="Times-Roman" font-size="14.00">cudnn</text>
</a>
</g>
</g>
<!-- cudatoolkit&#45;&gt;cudnn -->
<g id="edge46" class="edge">
<title>cudatoolkit&#45;&gt;cudnn</title>
<path fill="none" stroke="black" d="M1263.41,-692.05C1256.94,-683.5 1248.97,-672.97 1241.84,-663.56"/>
<polygon fill="black" stroke="black" points="1244.42,-661.17 1235.59,-655.31 1238.84,-665.39 1244.42,-661.17"/>
</g>
<!-- cutensor -->
<g id="node44" class="node">
<title>cutensor</title>
<g id="a_node44"><a xlink:href="https://github.com/conda-forge/cutensor-feedstock" xlink:title="cutensor">
<ellipse fill="#fde725" stroke="black" cx="1330.24" cy="-638" rx="50.09" ry="18"/>
<text text-anchor="middle" x="1330.24" y="-634.3" font-family="Times-Roman" font-size="14.00">cutensor</text>
</a>
</g>
</g>
<!-- cudatoolkit&#45;&gt;cutensor -->
<g id="edge47" class="edge">
<title>cudatoolkit&#45;&gt;cutensor</title>
<path fill="none" stroke="black" d="M1289.31,-692.05C1295.81,-683.63 1303.8,-673.28 1310.98,-663.97"/>
<polygon fill="black" stroke="black" points="1313.95,-665.84 1317.29,-655.79 1308.41,-661.57 1313.95,-665.84"/>
</g>
<!-- cudnn&#45;&gt;pytorch&#45;cpu -->
<g id="edge48" class="edge">
<title>cudnn&#45;&gt;pytorch&#45;cpu</title>
<path fill="none" stroke="black" d="M1244.49,-622.83C1259.29,-612.97 1279.3,-599.63 1296.05,-588.47"/>
<polygon fill="black" stroke="black" points="1298.08,-591.31 1304.46,-582.85 1294.2,-585.49 1298.08,-591.31"/>
</g>
<!-- cudnn&#45;&gt;torchvision -->
<g id="edge49" class="edge">
<title>cudnn&#45;&gt;torchvision</title>
<path fill="none" stroke="black" d="M1225.41,-619.87C1228.48,-595.67 1234.12,-551.21 1237.77,-522.39"/>
<polygon fill="black" stroke="black" points="1241.28,-522.55 1239.06,-512.19 1234.33,-521.67 1241.28,-522.55"/>
</g>
<!-- libv8 -->
<g id="node45" class="node">
<title>libv8</title>
<g id="a_node45"><a xlink:href="https://github.com/conda-forge/libv8-feedstock/pull/66" xlink:title="libv8 ❎">
<ellipse fill="#31688e" stroke="black" cx="1087.24" cy="-90" rx="47" ry="18"/>
<text text-anchor="middle" x="1087.24" y="-86.3" font-family="Times-Roman" font-size="14.00" fill="white">libv8 ❎</text>
</a>
</g>
</g>
<!-- r&#45;v8 -->
<g id="node46" class="node">
<title>r&#45;v8</title>
<g id="a_node46"><a xlink:href="https://github.com/conda-forge/r-v8-feedstock" xlink:title="r v8">
<ellipse fill="#fde725" stroke="black" cx="1087.24" cy="-18" rx="28.7" ry="18"/>
<text text-anchor="middle" x="1087.24" y="-14.3" font-family="Times-Roman" font-size="14.00">r v8</text>
</a>
</g>
</g>
<!-- libv8&#45;&gt;r&#45;v8 -->
<g id="edge50" class="edge">
<title>libv8&#45;&gt;r&#45;v8</title>
<path fill="none" stroke="black" d="M1087.24,-71.7C1087.24,-63.98 1087.24,-54.71 1087.24,-46.11"/>
<polygon fill="black" stroke="black" points="1090.74,-46.1 1087.24,-36.1 1083.74,-46.1 1090.74,-46.1"/>
</g>
<!-- jaeger -->
<g id="node48" class="node">
<title>jaeger</title>
<g id="a_node48"><a xlink:href="https://github.com/conda-forge/jaeger-feedstock/pull/12" xlink:title="jaeger ❎">
<ellipse fill="#31688e" stroke="black" cx="2330.24" cy="-350" rx="53.5" ry="18"/>
<text text-anchor="middle" x="2330.24" y="-346.3" font-family="Times-Roman" font-size="14.00" fill="white">jaeger ❎</text>
</a>
</g>
</g>
<!-- proj&#45;&gt;jaeger -->
<!-- libm2k -->
<g id="node50" class="node">
<title>libm2k</title>
<g id="a_node50"><a xlink:href="https://github.com/conda-forge/libm2k-feedstock/pull/12" xlink:title="libm2k ❎">
<ellipse fill="#31688e" stroke="black" cx="2330.24" cy="-278" rx="56" ry="18"/>
<text text-anchor="middle" x="2330.24" y="-274.3" font-family="Times-Roman" font-size="14.00" fill="white">libm2k ❎</text>
</a>
</g>
</g>
<!-- jaeger&#45;&gt;libm2k -->
<!-- nccl -->
<g id="node49" class="node">
<title>nccl</title>
<g id="a_node49"><a xlink:href="https://github.com/conda-forge/nccl-feedstock/pull/35" xlink:title="nccl ✓">
<ellipse fill="#31688e" stroke="black" cx="1438.24" cy="-638" rx="39.79" ry="18"/>
<text text-anchor="middle" x="1438.24" y="-634.3" font-family="Times-Roman" font-size="14.00" fill="white">nccl ✓</text>
</a>
</g>
</g>
<!-- nccl&#45;&gt;pytorch&#45;cpu -->
<g id="edge53" class="edge">
<title>nccl&#45;&gt;pytorch&#45;cpu</title>
<path fill="none" stroke="black" d="M1416.25,-623C1400.66,-613.08 1379.45,-599.59 1361.76,-588.33"/>
<polygon fill="black" stroke="black" points="1363.2,-585.1 1352.88,-582.68 1359.44,-591 1363.2,-585.1"/>
</g>
<!-- cramjam -->
<g id="node54" class="node">
<title>cramjam</title>
<g id="a_node54"><a xlink:href="https://github.com/conda-forge/cramjam-feedstock/pull/14" xlink:title="cramjam ❎">
<ellipse fill="#31688e" stroke="black" cx="2330.24" cy="-206" rx="64.5" ry="18"/>
<text text-anchor="middle" x="2330.24" y="-202.3" font-family="Times-Roman" font-size="14.00" fill="white">cramjam ❎</text>
</a>
</g>
</g>
<!-- libm2k&#45;&gt;cramjam -->
<!-- soapysdr&#45;module&#45;plutosdr -->
<g id="node51" class="node">
<title>soapysdr&#45;module&#45;plutosdr</title>
<g id="a_node51"><a xlink:href="https://github.com/conda-forge/soapysdr-module-plutosdr-feedstock" xlink:title="soapysdr module plutosdr">
<ellipse fill="#fde725" stroke="black" cx="2615.24" cy="-458" rx="129.5" ry="18"/>
<text text-anchor="middle" x="2615.24" y="-454.3" font-family="Times-Roman" font-size="14.00">soapysdr module plutosdr</text>
</a>
</g>
</g>
<!-- libad9361&#45;iio -->
<g id="node52" class="node">
<title>libad9361&#45;iio</title>
<g id="a_node52"><a xlink:href="https://github.com/conda-forge/libad9361-iio-feedstock/pull/7" xlink:title="libad9361 iio ❎">
<ellipse fill="#31688e" stroke="black" cx="2615.24" cy="-530" rx="83.39" ry="18"/>
<text text-anchor="middle" x="2615.24" y="-526.3" font-family="Times-Roman" font-size="14.00" fill="white">libad9361 iio ❎</text>
</a>
</g>
</g>
<!-- libad9361&#45;iio&#45;&gt;soapysdr&#45;module&#45;plutosdr -->
<g id="edge56" class="edge">
<title>libad9361&#45;iio&#45;&gt;soapysdr&#45;module&#45;plutosdr</title>
<path fill="none" stroke="black" d="M2615.24,-511.7C2615.24,-503.98 2615.24,-494.71 2615.24,-486.11"/>
<polygon fill="black" stroke="black" points="2618.74,-486.1 2615.24,-476.1 2611.74,-486.1 2618.74,-486.1"/>
</g>
<!-- tokenizers -->
<g id="node53" class="node">
<title>tokenizers</title>
<g id="a_node53"><a xlink:href="https://github.com/conda-forge/tokenizers-feedstock/pull/18" xlink:title="tokenizers ❎">
<ellipse fill="#31688e" stroke="black" cx="1429.24" cy="-494" rx="71.5" ry="18"/>
<text text-anchor="middle" x="1429.24" y="-490.3" font-family="Times-Roman" font-size="14.00" fill="white">tokenizers ❎</text>
</a>
</g>
</g>
<!-- tokenizers&#45;&gt;allennlp -->
<g id="edge57" class="edge">
<title>tokenizers&#45;&gt;allennlp</title>
<path fill="none" stroke="black" d="M1406.05,-476.76C1392.16,-467.04 1374.35,-454.57 1359.38,-444.09"/>
<polygon fill="black" stroke="black" points="1361.14,-441.06 1350.94,-438.19 1357.13,-446.79 1361.14,-441.06"/>
</g>
<!-- yoda -->
<g id="node56" class="node">
<title>yoda</title>
<g id="a_node56"><a xlink:href="https://github.com/conda-forge/yoda-feedstock" xlink:title="yoda">
<ellipse fill="#35b779" stroke="black" cx="2330.24" cy="-134" rx="32.5" ry="18"/>
<text text-anchor="middle" x="2330.24" y="-130.3" font-family="Times-Roman" font-size="14.00">yoda</text>
</a>
</g>
</g>
<!-- cramjam&#45;&gt;yoda -->
<!-- magma -->
<g id="node55" class="node">
<title>magma</title>
<g id="a_node55"><a xlink:href="https://github.com/conda-forge/magma-feedstock/pull/9" xlink:title="magma ✓">
<ellipse fill="#31688e" stroke="black" cx="1506.24" cy="-710" rx="56" ry="18"/>
<text text-anchor="middle" x="1506.24" y="-706.3" font-family="Times-Roman" font-size="14.00" fill="white">magma ✓</text>
</a>
</g>
</g>
<!-- magma&#45;&gt;pytorch&#45;cpu -->
<g id="edge59" class="edge">
<title>magma&#45;&gt;pytorch&#45;cpu</title>
<path fill="none" stroke="black" d="M1507.32,-691.69C1507.59,-671.93 1504.94,-639.78 1487.24,-620 1464.75,-594.85 1430.02,-581.61 1398.74,-574.65"/>
<polygon fill="black" stroke="black" points="1399.23,-571.18 1388.73,-572.61 1397.83,-578.04 1399.23,-571.18"/>
</g>
</g>
</svg>
