<?xml version="1.0" encoding="UTF-8" standalone="no"?>
<!DOCTYPE svg PUBLIC "-//W3C//DTD SVG 1.1//EN"
 "http://www.w3.org/Graphics/SVG/1.1/DTD/svg11.dtd">
<!-- Generated by graphviz version 2.46.1 (20210222.2046)
 -->
<!-- Pages: 1 -->
<svg width="1792pt" height="1096pt"
 viewBox="0.00 0.00 1791.55 1096.00" xmlns="http://www.w3.org/2000/svg" xmlns:xlink="http://www.w3.org/1999/xlink">
<g id="graph0" class="graph" transform="scale(1 1) rotate(0) translate(4 1092)">
<polygon fill="white" stroke="transparent" points="-4,4 -4,-1092 1787.55,-1092 1787.55,4 -4,4"/>
<!-- elfutils -->
<g id="node1" class="node">
<title>elfutils</title>
<g id="a_node1"><a xlink:href="https://github.com/conda-forge/elfutils-feedstock/pull/20" xlink:title="elfutils ❎">
<ellipse fill="#31688e" stroke="black" cx="54" cy="-818" rx="54" ry="18"/>
<text text-anchor="middle" x="54" y="-814.3" font-family="Times-Roman" font-size="14.00" fill="white">elfutils ❎</text>
</a>
</g>
</g>
<!-- heaptrack -->
<g id="node2" class="node">
<title>heaptrack</title>
<g id="a_node2"><a xlink:href="https://github.com/conda-forge/heaptrack-feedstock" xlink:title="heaptrack">
<ellipse fill="#fde725" stroke="black" cx="81" cy="-746" rx="58" ry="18"/>
<text text-anchor="middle" x="81" y="-742.3" font-family="Times-Roman" font-size="14.00">heaptrack</text>
</a>
</g>
</g>
<!-- elfutils&#45;&gt;heaptrack -->
<g id="edge1" class="edge">
<title>elfutils&#45;&gt;heaptrack</title>
<path fill="none" stroke="black" d="M60.54,-800.05C63.57,-792.18 67.26,-782.62 70.67,-773.79"/>
<polygon fill="black" stroke="black" points="74,-774.86 74.34,-764.28 67.47,-772.35 74,-774.86"/>
</g>
<!-- fastparquet -->
<g id="node3" class="node">
<title>fastparquet</title>
<g id="a_node3"><a xlink:href="https://github.com/conda-forge/fastparquet-feedstock/pull/38" xlink:title="fastparquet ❎">
<ellipse fill="#31688e" stroke="black" cx="1012" cy="-1070" rx="77.5" ry="18"/>
<text text-anchor="middle" x="1012" y="-1066.3" font-family="Times-Roman" font-size="14.00" fill="white">fastparquet ❎</text>
</a>
</g>
</g>
<!-- googleapis&#45;common&#45;protos -->
<g id="node4" class="node">
<title>googleapis&#45;common&#45;protos</title>
<g id="a_node4"><a xlink:href="https://github.com/conda-forge/googleapis-common-protos-feedstock/pull/26" xlink:title="googleapis common protos ❎">
<ellipse fill="#31688e" stroke="black" cx="1012" cy="-998" rx="150.27" ry="18"/>
<text text-anchor="middle" x="1012" y="-994.3" font-family="Times-Roman" font-size="14.00" fill="white">googleapis common protos ❎</text>
</a>
</g>
</g>
<!-- fastparquet&#45;&gt;googleapis&#45;common&#45;protos -->
<!-- nbgrader -->
<g id="node9" class="node">
<title>nbgrader</title>
<g id="a_node9"><a xlink:href="https://github.com/conda-forge/nbgrader-feedstock/pull/41" xlink:title="nbgrader ❎">
<ellipse fill="#31688e" stroke="black" cx="1012" cy="-926" rx="65.79" ry="18"/>
<text text-anchor="middle" x="1012" y="-922.3" font-family="Times-Roman" font-size="14.00" fill="white">nbgrader ❎</text>
</a>
</g>
</g>
<!-- googleapis&#45;common&#45;protos&#45;&gt;nbgrader -->
<!-- gdal -->
<g id="node5" class="node">
<title>gdal</title>
<g id="a_node5"><a xlink:href="https://github.com/conda-forge/gdal-feedstock" xlink:title="gdal">
<ellipse fill="#fde725" stroke="black" cx="442" cy="-162" rx="30.59" ry="18"/>
<text text-anchor="middle" x="442" y="-158.3" font-family="Times-Roman" font-size="14.00">gdal</text>
</a>
</g>
</g>
<!-- kealib -->
<g id="node6" class="node">
<title>kealib</title>
<g id="a_node6"><a xlink:href="https://github.com/conda-forge/kealib-feedstock" xlink:title="kealib">
<ellipse fill="#fde725" stroke="black" cx="442" cy="-90" rx="38.5" ry="18"/>
<text text-anchor="middle" x="442" y="-86.3" font-family="Times-Roman" font-size="14.00">kealib</text>
</a>
</g>
</g>
<!-- gdal&#45;&gt;kealib -->
<g id="edge3" class="edge">
<title>gdal&#45;&gt;kealib</title>
<path fill="none" stroke="black" d="M436.12,-144.05C435.3,-136.35 435.06,-127.03 435.39,-118.36"/>
<polygon fill="black" stroke="black" points="438.89,-118.49 436.09,-108.28 431.91,-118.01 438.89,-118.49"/>
</g>
<!-- r&#45;sf -->
<g id="node7" class="node">
<title>r&#45;sf</title>
<g id="a_node7"><a xlink:href="https://github.com/conda-forge/r-sf-feedstock" xlink:title="r sf">
<ellipse fill="#fde725" stroke="black" cx="356" cy="-90" rx="27" ry="18"/>
<text text-anchor="middle" x="356" y="-86.3" font-family="Times-Roman" font-size="14.00">r sf</text>
</a>
</g>
</g>
<!-- gdal&#45;&gt;r&#45;sf -->
<g id="edge4" class="edge">
<title>gdal&#45;&gt;r&#45;sf</title>
<path fill="none" stroke="black" d="M424.6,-146.83C411.88,-136.48 394.46,-122.31 380.36,-110.83"/>
<polygon fill="black" stroke="black" points="382.47,-108.03 372.5,-104.43 378.05,-113.46 382.47,-108.03"/>
</g>
<!-- kealib&#45;&gt;gdal -->
<g id="edge5" class="edge">
<title>kealib&#45;&gt;gdal</title>
<path fill="none" stroke="black" d="M447.91,-108.28C448.71,-116.03 448.94,-125.36 448.59,-134.01"/>
<polygon fill="black" stroke="black" points="445.09,-133.83 447.88,-144.05 452.08,-134.33 445.09,-133.83"/>
</g>
<!-- r&#45;spdep -->
<g id="node8" class="node">
<title>r&#45;spdep</title>
<g id="a_node8"><a xlink:href="https://github.com/conda-forge/r-spdep-feedstock" xlink:title="r spdep">
<ellipse fill="#fde725" stroke="black" cx="356" cy="-18" rx="46.29" ry="18"/>
<text text-anchor="middle" x="356" y="-14.3" font-family="Times-Roman" font-size="14.00">r spdep</text>
</a>
</g>
</g>
<!-- r&#45;sf&#45;&gt;r&#45;spdep -->
<g id="edge6" class="edge">
<title>r&#45;sf&#45;&gt;r&#45;spdep</title>
<path fill="none" stroke="black" d="M356,-71.7C356,-63.98 356,-54.71 356,-46.11"/>
<polygon fill="black" stroke="black" points="359.5,-46.1 356,-36.1 352.5,-46.1 359.5,-46.1"/>
</g>
<!-- pypy2.7 -->
<g id="node16" class="node">
<title>pypy2.7</title>
<g id="a_node16"><a xlink:href="https://github.com/conda-forge/pypy2.7-feedstock/pull/3" xlink:title="pypy2 7 ❎">
<ellipse fill="#31688e" stroke="black" cx="1012" cy="-854" rx="60" ry="18"/>
<text text-anchor="middle" x="1012" y="-850.3" font-family="Times-Roman" font-size="14.00" fill="white">pypy2 7 ❎</text>
</a>
</g>
</g>
<!-- nbgrader&#45;&gt;pypy2.7 -->
<!-- hyperspy -->
<g id="node10" class="node">
<title>hyperspy</title>
<g id="a_node10"><a xlink:href="https://github.com/conda-forge/hyperspy-feedstock" xlink:title="hyperspy">
<ellipse fill="#fde725" stroke="black" cx="1406" cy="-638" rx="54" ry="18"/>
<text text-anchor="middle" x="1406" y="-634.3" font-family="Times-Roman" font-size="14.00">hyperspy</text>
</a>
</g>
</g>
<!-- libspatialite -->
<g id="node11" class="node">
<title>libspatialite</title>
<g id="a_node11"><a xlink:href="https://github.com/conda-forge/libspatialite-feedstock" xlink:title="libspatialite">
<ellipse fill="#fde725" stroke="black" cx="442" cy="-234" rx="63.89" ry="18"/>
<text text-anchor="middle" x="442" y="-230.3" font-family="Times-Roman" font-size="14.00">libspatialite</text>
</a>
</g>
</g>
<!-- libspatialite&#45;&gt;gdal -->
<g id="edge8" class="edge">
<title>libspatialite&#45;&gt;gdal</title>
<path fill="none" stroke="black" d="M442,-215.7C442,-207.98 442,-198.71 442,-190.11"/>
<polygon fill="black" stroke="black" points="445.5,-190.1 442,-180.1 438.5,-190.1 445.5,-190.1"/>
</g>
<!-- libunwind -->
<g id="node12" class="node">
<title>libunwind</title>
<g id="a_node12"><a xlink:href="https://github.com/conda-forge/libunwind-feedstock/pull/14" xlink:title="libunwind ❎">
<ellipse fill="#31688e" stroke="black" cx="194" cy="-818" rx="67.69" ry="18"/>
<text text-anchor="middle" x="194" y="-814.3" font-family="Times-Roman" font-size="14.00" fill="white">libunwind ❎</text>
</a>
</g>
</g>
<!-- libunwind&#45;&gt;heaptrack -->
<g id="edge9" class="edge">
<title>libunwind&#45;&gt;heaptrack</title>
<path fill="none" stroke="black" d="M168.64,-801.29C152.68,-791.4 131.9,-778.53 114.58,-767.8"/>
<polygon fill="black" stroke="black" points="116.23,-764.71 105.89,-762.42 112.54,-770.66 116.23,-764.71"/>
</g>
<!-- gperftools -->
<g id="node13" class="node">
<title>gperftools</title>
<g id="a_node13"><a xlink:href="https://github.com/conda-forge/gperftools-feedstock" xlink:title="gperftools">
<ellipse fill="#fde725" stroke="black" cx="298" cy="-746" rx="58" ry="18"/>
<text text-anchor="middle" x="298" y="-742.3" font-family="Times-Roman" font-size="14.00">gperftools</text>
</a>
</g>
</g>
<!-- libunwind&#45;&gt;gperftools -->
<g id="edge10" class="edge">
<title>libunwind&#45;&gt;gperftools</title>
<path fill="none" stroke="black" d="M217.6,-801.12C232.06,-791.38 250.75,-778.8 266.47,-768.22"/>
<polygon fill="black" stroke="black" points="268.51,-771.07 274.85,-762.58 264.6,-765.26 268.51,-771.07"/>
</g>
<!-- py&#45;spy -->
<g id="node14" class="node">
<title>py&#45;spy</title>
<g id="a_node14"><a xlink:href="https://github.com/conda-forge/py-spy-feedstock/pull/11" xlink:title="py spy ❎">
<ellipse fill="#31688e" stroke="black" cx="180" cy="-674" rx="53.5" ry="18"/>
<text text-anchor="middle" x="180" y="-670.3" font-family="Times-Roman" font-size="14.00" fill="white">py spy ❎</text>
</a>
</g>
</g>
<!-- libunwind&#45;&gt;py&#45;spy -->
<g id="edge11" class="edge">
<title>libunwind&#45;&gt;py&#45;spy</title>
<path fill="none" stroke="black" d="M192.31,-799.87C189.93,-775.67 185.54,-731.21 182.7,-702.39"/>
<polygon fill="black" stroke="black" points="186.16,-701.8 181.69,-692.19 179.19,-702.48 186.16,-701.8"/>
</g>
<!-- sentencepiece -->
<g id="node15" class="node">
<title>sentencepiece</title>
<g id="a_node15"><a xlink:href="https://github.com/conda-forge/sentencepiece-feedstock" xlink:title="sentencepiece">
<ellipse fill="#fde725" stroke="black" cx="330" cy="-674" rx="78" ry="18"/>
<text text-anchor="middle" x="330" y="-670.3" font-family="Times-Roman" font-size="14.00">sentencepiece</text>
</a>
</g>
</g>
<!-- gperftools&#45;&gt;sentencepiece -->
<g id="edge12" class="edge">
<title>gperftools&#45;&gt;sentencepiece</title>
<path fill="none" stroke="black" d="M305.75,-728.05C309.39,-720.09 313.81,-710.41 317.88,-701.51"/>
<polygon fill="black" stroke="black" points="321.13,-702.83 322.1,-692.28 314.76,-699.91 321.13,-702.83"/>
</g>
<!-- allennlp -->
<g id="node30" class="node">
<title>allennlp</title>
<g id="a_node30"><a xlink:href="https://github.com/conda-forge/allennlp-feedstock" xlink:title="allennlp">
<ellipse fill="#fde725" stroke="black" cx="628" cy="-602" rx="47.5" ry="18"/>
<text text-anchor="middle" x="628" y="-598.3" font-family="Times-Roman" font-size="14.00">allennlp</text>
</a>
</g>
</g>
<!-- sentencepiece&#45;&gt;allennlp -->
<g id="edge29" class="edge">
<title>sentencepiece&#45;&gt;allennlp</title>
<path fill="none" stroke="black" d="M382.59,-660.65C438,-647.63 524.59,-627.29 578.72,-614.58"/>
<polygon fill="black" stroke="black" points="579.83,-617.91 588.76,-612.22 578.23,-611.1 579.83,-617.91"/>
</g>
<!-- root_numpy -->
<g id="node27" class="node">
<title>root_numpy</title>
<g id="a_node27"><a xlink:href="https://github.com/conda-forge/root_numpy-feedstock/pull/19" xlink:title="root_numpy ❎">
<ellipse fill="#31688e" stroke="black" cx="1012" cy="-782" rx="79.5" ry="18"/>
<text text-anchor="middle" x="1012" y="-778.3" font-family="Times-Roman" font-size="14.00" fill="white">root_numpy ❎</text>
</a>
</g>
</g>
<!-- pypy2.7&#45;&gt;root_numpy -->
<!-- pyqt -->
<g id="node17" class="node">
<title>pyqt</title>
<g id="a_node17"><a xlink:href="https://github.com/conda-forge/pyqt-feedstock" xlink:title="pyqt">
<ellipse fill="#fde725" stroke="black" cx="1404" cy="-710" rx="31.4" ry="18"/>
<text text-anchor="middle" x="1404" y="-706.3" font-family="Times-Roman" font-size="14.00">pyqt</text>
</a>
</g>
</g>
<!-- pyqt&#45;&gt;hyperspy -->
<g id="edge14" class="edge">
<title>pyqt&#45;&gt;hyperspy</title>
<path fill="none" stroke="black" d="M1404.49,-691.7C1404.71,-683.98 1404.98,-674.71 1405.23,-666.11"/>
<polygon fill="black" stroke="black" points="1408.72,-666.2 1405.51,-656.1 1401.73,-666 1408.72,-666.2"/>
</g>
<!-- pythonocc&#45;core -->
<g id="node18" class="node">
<title>pythonocc&#45;core</title>
<g id="a_node18"><a xlink:href="https://github.com/conda-forge/pythonocc-core-feedstock" xlink:title="pythonocc core">
<ellipse fill="#fde725" stroke="black" cx="1252" cy="-638" rx="82" ry="18"/>
<text text-anchor="middle" x="1252" y="-634.3" font-family="Times-Roman" font-size="14.00">pythonocc core</text>
</a>
</g>
</g>
<!-- pyqt&#45;&gt;pythonocc&#45;core -->
<g id="edge15" class="edge">
<title>pyqt&#45;&gt;pythonocc&#45;core</title>
<path fill="none" stroke="black" d="M1380.25,-698.06C1357.54,-687.61 1322.78,-671.6 1295.17,-658.88"/>
<polygon fill="black" stroke="black" points="1296.28,-655.54 1285.73,-654.54 1293.35,-661.9 1296.28,-655.54"/>
</g>
<!-- qt -->
<g id="node19" class="node">
<title>qt</title>
<g id="a_node19"><a xlink:href="https://github.com/conda-forge/qt-feedstock/pull/184" xlink:title="qt ❎">
<ellipse fill="#31688e" stroke="black" cx="1522" cy="-782" rx="32.5" ry="18"/>
<text text-anchor="middle" x="1522" y="-778.3" font-family="Times-Roman" font-size="14.00" fill="white">qt ❎</text>
</a>
</g>
</g>
<!-- qt&#45;&gt;pyqt -->
<g id="edge16" class="edge">
<title>qt&#45;&gt;pyqt</title>
<path fill="none" stroke="black" d="M1500.63,-768.32C1482,-757.27 1454.78,-741.13 1433.98,-728.78"/>
<polygon fill="black" stroke="black" points="1435.6,-725.67 1425.21,-723.58 1432.02,-731.69 1435.6,-725.67"/>
</g>
<!-- pivy -->
<g id="node20" class="node">
<title>pivy</title>
<g id="a_node20"><a xlink:href="https://github.com/conda-forge/pivy-feedstock" xlink:title="pivy">
<ellipse fill="#fde725" stroke="black" cx="1509" cy="-638" rx="30" ry="18"/>
<text text-anchor="middle" x="1509" y="-634.3" font-family="Times-Roman" font-size="14.00">pivy</text>
</a>
</g>
</g>
<!-- qt&#45;&gt;pivy -->
<g id="edge17" class="edge">
<title>qt&#45;&gt;pivy</title>
<path fill="none" stroke="black" d="M1506.34,-765.9C1497.32,-756.07 1486.83,-742.43 1482,-728 1474.82,-706.56 1483.58,-681.94 1492.98,-664.03"/>
<polygon fill="black" stroke="black" points="1496.3,-665.27 1498.18,-654.84 1490.21,-661.83 1496.3,-665.27"/>
</g>
<!-- pyside2 -->
<g id="node21" class="node">
<title>pyside2</title>
<g id="a_node21"><a xlink:href="https://github.com/conda-forge/pyside2-feedstock" xlink:title="pyside2">
<ellipse fill="#fde725" stroke="black" cx="1618" cy="-710" rx="47" ry="18"/>
<text text-anchor="middle" x="1618" y="-706.3" font-family="Times-Roman" font-size="14.00">pyside2</text>
</a>
</g>
</g>
<!-- qt&#45;&gt;pyside2 -->
<g id="edge18" class="edge">
<title>qt&#45;&gt;pyside2</title>
<path fill="none" stroke="black" d="M1540.97,-767.17C1554.61,-757.22 1573.28,-743.61 1588.81,-732.28"/>
<polygon fill="black" stroke="black" points="1591.06,-734.98 1597.07,-726.26 1586.93,-729.32 1591.06,-734.98"/>
</g>
<!-- soqt -->
<g id="node22" class="node">
<title>soqt</title>
<g id="a_node22"><a xlink:href="https://github.com/conda-forge/soqt-feedstock" xlink:title="soqt">
<ellipse fill="#fde725" stroke="black" cx="1522" cy="-710" rx="30.59" ry="18"/>
<text text-anchor="middle" x="1522" y="-706.3" font-family="Times-Roman" font-size="14.00">soqt</text>
</a>
</g>
</g>
<!-- qt&#45;&gt;soqt -->
<g id="edge19" class="edge">
<title>qt&#45;&gt;soqt</title>
<path fill="none" stroke="black" d="M1522,-763.7C1522,-755.98 1522,-746.71 1522,-738.11"/>
<polygon fill="black" stroke="black" points="1525.5,-738.1 1522,-728.1 1518.5,-738.1 1525.5,-738.1"/>
</g>
<!-- geant4 -->
<g id="node23" class="node">
<title>geant4</title>
<g id="a_node23"><a xlink:href="https://github.com/conda-forge/geant4-feedstock" xlink:title="geant4">
<ellipse fill="#fde725" stroke="black" cx="1740" cy="-638" rx="43.59" ry="18"/>
<text text-anchor="middle" x="1740" y="-634.3" font-family="Times-Roman" font-size="14.00">geant4</text>
</a>
</g>
</g>
<!-- qt&#45;&gt;geant4 -->
<g id="edge20" class="edge">
<title>qt&#45;&gt;geant4</title>
<path fill="none" stroke="black" d="M1552.78,-775.84C1585.4,-769.18 1637.19,-755.07 1674,-728 1696.74,-711.27 1715.1,-684.48 1726.63,-664.65"/>
<polygon fill="black" stroke="black" points="1729.74,-666.26 1731.58,-655.82 1723.63,-662.83 1729.74,-666.26"/>
</g>
<!-- pyside2&#45;&gt;pivy -->
<g id="edge21" class="edge">
<title>pyside2&#45;&gt;pivy</title>
<path fill="none" stroke="black" d="M1594.88,-694.15C1578.17,-683.42 1555.49,-668.86 1537.64,-657.39"/>
<polygon fill="black" stroke="black" points="1539.1,-654.17 1528.79,-651.71 1535.32,-660.06 1539.1,-654.17"/>
</g>
<!-- cctbx&#45;base -->
<g id="node24" class="node">
<title>cctbx&#45;base</title>
<g id="a_node24"><a xlink:href="https://github.com/conda-forge/cctbx-base-feedstock" xlink:title="cctbx base">
<ellipse fill="#fde725" stroke="black" cx="1618" cy="-638" rx="60.5" ry="18"/>
<text text-anchor="middle" x="1618" y="-634.3" font-family="Times-Roman" font-size="14.00">cctbx base</text>
</a>
</g>
</g>
<!-- pyside2&#45;&gt;cctbx&#45;base -->
<g id="edge22" class="edge">
<title>pyside2&#45;&gt;cctbx&#45;base</title>
<path fill="none" stroke="black" d="M1618,-691.7C1618,-683.98 1618,-674.71 1618,-666.11"/>
<polygon fill="black" stroke="black" points="1621.5,-666.1 1618,-656.1 1614.5,-666.1 1621.5,-666.1"/>
</g>
<!-- soqt&#45;&gt;pivy -->
<g id="edge23" class="edge">
<title>soqt&#45;&gt;pivy</title>
<path fill="none" stroke="black" d="M1518.85,-692.05C1517.42,-684.35 1515.69,-675.03 1514.08,-666.36"/>
<polygon fill="black" stroke="black" points="1517.48,-665.47 1512.21,-656.28 1510.59,-666.75 1517.48,-665.47"/>
</g>
<!-- r&#45;units -->
<g id="node25" class="node">
<title>r&#45;units</title>
<g id="a_node25"><a xlink:href="https://github.com/conda-forge/r-units-feedstock" xlink:title="r units">
<ellipse fill="#fde725" stroke="black" cx="325" cy="-162" rx="40.5" ry="18"/>
<text text-anchor="middle" x="325" y="-158.3" font-family="Times-Roman" font-size="14.00">r units</text>
</a>
</g>
</g>
<!-- r&#45;units&#45;&gt;r&#45;sf -->
<g id="edge24" class="edge">
<title>r&#45;units&#45;&gt;r&#45;sf</title>
<path fill="none" stroke="black" d="M332.5,-144.05C336.08,-135.97 340.45,-126.12 344.44,-117.11"/>
<polygon fill="black" stroke="black" points="347.72,-118.35 348.56,-107.79 341.32,-115.52 347.72,-118.35"/>
</g>
<!-- udunits2 -->
<g id="node26" class="node">
<title>udunits2</title>
<g id="a_node26"><a xlink:href="https://github.com/conda-forge/udunits2-feedstock/pull/39" xlink:title="udunits2 ❎">
<ellipse fill="#31688e" stroke="black" cx="297" cy="-234" rx="63.09" ry="18"/>
<text text-anchor="middle" x="297" y="-230.3" font-family="Times-Roman" font-size="14.00" fill="white">udunits2 ❎</text>
</a>
</g>
</g>
<!-- udunits2&#45;&gt;r&#45;units -->
<g id="edge25" class="edge">
<title>udunits2&#45;&gt;r&#45;units</title>
<path fill="none" stroke="black" d="M303.78,-216.05C307.01,-207.97 310.95,-198.12 314.56,-189.11"/>
<polygon fill="black" stroke="black" points="317.82,-190.37 318.28,-179.79 311.32,-187.77 317.82,-190.37"/>
</g>
<!-- grpcio&#45;gcp -->
<g id="node31" class="node">
<title>grpcio&#45;gcp</title>
<g id="a_node31"><a xlink:href="https://github.com/conda-forge/grpcio-gcp-feedstock/pull/9" xlink:title="grpcio gcp ❎">
<ellipse fill="#31688e" stroke="black" cx="1012" cy="-710" rx="71.5" ry="18"/>
<text text-anchor="middle" x="1012" y="-706.3" font-family="Times-Roman" font-size="14.00" fill="white">grpcio gcp ❎</text>
</a>
</g>
</g>
<!-- root_numpy&#45;&gt;grpcio&#45;gcp -->
<!-- tiledb -->
<g id="node28" class="node">
<title>tiledb</title>
<g id="a_node28"><a xlink:href="https://github.com/conda-forge/tiledb-feedstock/pull/102" xlink:title="tiledb ✓">
<ellipse fill="#31688e" stroke="black" cx="571" cy="-234" rx="47.5" ry="18"/>
<text text-anchor="middle" x="571" y="-230.3" font-family="Times-Roman" font-size="14.00" fill="white">tiledb ✓</text>
</a>
</g>
</g>
<!-- tiledb&#45;&gt;gdal -->
<g id="edge27" class="edge">
<title>tiledb&#45;&gt;gdal</title>
<path fill="none" stroke="black" d="M544.89,-218.83C524.02,-207.51 494.72,-191.61 472.72,-179.67"/>
<polygon fill="black" stroke="black" points="474.24,-176.51 463.78,-174.82 470.9,-182.67 474.24,-176.51"/>
</g>
<!-- occt -->
<g id="node29" class="node">
<title>occt</title>
<g id="a_node29"><a xlink:href="https://github.com/conda-forge/occt-feedstock/pull/59" xlink:title="occt ❎">
<ellipse fill="#31688e" stroke="black" cx="1252" cy="-710" rx="42.49" ry="18"/>
<text text-anchor="middle" x="1252" y="-706.3" font-family="Times-Roman" font-size="14.00" fill="white">occt ❎</text>
</a>
</g>
</g>
<!-- occt&#45;&gt;pythonocc&#45;core -->
<g id="edge28" class="edge">
<title>occt&#45;&gt;pythonocc&#45;core</title>
<path fill="none" stroke="black" d="M1252,-691.7C1252,-683.98 1252,-674.71 1252,-666.11"/>
<polygon fill="black" stroke="black" points="1255.5,-666.1 1252,-656.1 1248.5,-666.1 1255.5,-666.1"/>
</g>
<!-- ibm_db -->
<g id="node33" class="node">
<title>ibm_db</title>
<g id="a_node33"><a xlink:href="https://github.com/conda-forge/ibm_db-feedstock/pull/27" xlink:title="ibm_db ❎">
<ellipse fill="#31688e" stroke="black" cx="1012" cy="-638" rx="57.39" ry="18"/>
<text text-anchor="middle" x="1012" y="-634.3" font-family="Times-Roman" font-size="14.00" fill="white">ibm_db ❎</text>
</a>
</g>
</g>
<!-- grpcio&#45;gcp&#45;&gt;ibm_db -->
<!-- pytorch&#45;cpu -->
<g id="node32" class="node">
<title>pytorch&#45;cpu</title>
<g id="a_node32"><a xlink:href="https://github.com/conda-forge/pytorch-cpu-feedstock" xlink:title="pytorch cpu">
<ellipse fill="#fde725" stroke="black" cx="628" cy="-674" rx="65.79" ry="18"/>
<text text-anchor="middle" x="628" y="-670.3" font-family="Times-Roman" font-size="14.00">pytorch cpu</text>
</a>
</g>
</g>
<!-- pytorch&#45;cpu&#45;&gt;allennlp -->
<g id="edge31" class="edge">
<title>pytorch&#45;cpu&#45;&gt;allennlp</title>
<path fill="none" stroke="black" d="M628,-655.7C628,-647.98 628,-638.71 628,-630.11"/>
<polygon fill="black" stroke="black" points="631.5,-630.1 628,-620.1 624.5,-630.1 631.5,-630.1"/>
</g>
<!-- nvcc -->
<g id="node34" class="node">
<title>nvcc</title>
<g id="a_node34"><a xlink:href="https://github.com/conda-forge/nvcc-feedstock/pull/62" xlink:title="nvcc ✓">
<ellipse fill="#31688e" stroke="black" cx="1012" cy="-566" rx="42.49" ry="18"/>
<text text-anchor="middle" x="1012" y="-562.3" font-family="Times-Roman" font-size="14.00" fill="white">nvcc ✓</text>
</a>
</g>
</g>
<!-- ibm_db&#45;&gt;nvcc -->
<!-- proj -->
<g id="node38" class="node">
<title>proj</title>
<g id="a_node38"><a xlink:href="https://github.com/conda-forge/proj-feedstock" xlink:title="proj">
<ellipse fill="#35b779" stroke="black" cx="1012" cy="-494" rx="28.7" ry="18"/>
<text text-anchor="middle" x="1012" y="-490.3" font-family="Times-Roman" font-size="14.00">proj</text>
</a>
</g>
</g>
<!-- nvcc&#45;&gt;proj -->
<!-- cudatoolkit -->
<g id="node35" class="node">
<title>cudatoolkit</title>
<g id="a_node35"><a xlink:href="https://github.com/conda-forge/cudatoolkit-feedstock/pull/4" xlink:title="cudatoolkit ❎">
<ellipse fill="#31688e" stroke="black" cx="519" cy="-818" rx="74.19" ry="18"/>
<text text-anchor="middle" x="519" y="-814.3" font-family="Times-Roman" font-size="14.00" fill="white">cudatoolkit ❎</text>
</a>
</g>
</g>
<!-- cudnn -->
<g id="node36" class="node">
<title>cudnn</title>
<g id="a_node36"><a xlink:href="https://github.com/conda-forge/cudnn-feedstock" xlink:title="cudnn">
<ellipse fill="#fde725" stroke="black" cx="643" cy="-746" rx="39" ry="18"/>
<text text-anchor="middle" x="643" y="-742.3" font-family="Times-Roman" font-size="14.00">cudnn</text>
</a>
</g>
</g>
<!-- cudatoolkit&#45;&gt;cudnn -->
<g id="edge34" class="edge">
<title>cudatoolkit&#45;&gt;cudnn</title>
<path fill="none" stroke="black" d="M546.83,-801.29C565.57,-790.71 590.36,-776.71 610.08,-765.58"/>
<polygon fill="black" stroke="black" points="612.04,-768.5 619.03,-760.53 608.6,-762.4 612.04,-768.5"/>
</g>
<!-- cutensor -->
<g id="node37" class="node">
<title>cutensor</title>
<g id="a_node37"><a xlink:href="https://github.com/conda-forge/cutensor-feedstock" xlink:title="cutensor">
<ellipse fill="#fde725" stroke="black" cx="478" cy="-674" rx="51.5" ry="18"/>
<text text-anchor="middle" x="478" y="-670.3" font-family="Times-Roman" font-size="14.00">cutensor</text>
</a>
</g>
</g>
<!-- cudatoolkit&#45;&gt;cutensor -->
<g id="edge35" class="edge">
<title>cudatoolkit&#45;&gt;cutensor</title>
<path fill="none" stroke="black" d="M510.84,-799.63C506.29,-789.43 500.79,-776.18 497,-764 490.67,-743.67 485.74,-720.07 482.49,-702.29"/>
<polygon fill="black" stroke="black" points="485.91,-701.54 480.73,-692.3 479.02,-702.76 485.91,-701.54"/>
</g>
<!-- cudnn&#45;&gt;pytorch&#45;cpu -->
<g id="edge36" class="edge">
<title>cudnn&#45;&gt;pytorch&#45;cpu</title>
<path fill="none" stroke="black" d="M639.37,-728.05C637.7,-720.26 635.68,-710.82 633.8,-702.08"/>
<polygon fill="black" stroke="black" points="637.22,-701.32 631.7,-692.28 630.37,-702.79 637.22,-701.32"/>
</g>
<!-- jaeger -->
<g id="node39" class="node">
<title>jaeger</title>
<g id="a_node39"><a xlink:href="https://github.com/conda-forge/jaeger-feedstock/pull/12" xlink:title="jaeger ❎">
<ellipse fill="#31688e" stroke="black" cx="1012" cy="-422" rx="52.79" ry="18"/>
<text text-anchor="middle" x="1012" y="-418.3" font-family="Times-Roman" font-size="14.00" fill="white">jaeger ❎</text>
</a>
</g>
</g>
<!-- proj&#45;&gt;jaeger -->
<!-- ompl -->
<g id="node41" class="node">
<title>ompl</title>
<g id="a_node41"><a xlink:href="https://github.com/conda-forge/ompl-feedstock/pull/8" xlink:title="ompl ❎">
<ellipse fill="#31688e" stroke="black" cx="1012" cy="-350" rx="46.29" ry="18"/>
<text text-anchor="middle" x="1012" y="-346.3" font-family="Times-Roman" font-size="14.00" fill="white">ompl ❎</text>
</a>
</g>
</g>
<!-- jaeger&#45;&gt;ompl -->
<!-- nccl -->
<g id="node40" class="node">
<title>nccl</title>
<g id="a_node40"><a xlink:href="https://github.com/conda-forge/nccl-feedstock/pull/35" xlink:title="nccl ✓">
<ellipse fill="#31688e" stroke="black" cx="546" cy="-746" rx="39.79" ry="18"/>
<text text-anchor="middle" x="546" y="-742.3" font-family="Times-Roman" font-size="14.00" fill="white">nccl ✓</text>
</a>
</g>
</g>
<!-- nccl&#45;&gt;pytorch&#45;cpu -->
<g id="edge39" class="edge">
<title>nccl&#45;&gt;pytorch&#45;cpu</title>
<path fill="none" stroke="black" d="M563.79,-729.81C574.69,-720.51 588.85,-708.42 601.09,-697.97"/>
<polygon fill="black" stroke="black" points="603.48,-700.53 608.81,-691.38 598.93,-695.21 603.48,-700.53"/>
</g>
<!-- tokenizers -->
<g id="node42" class="node">
<title>tokenizers</title>
<g id="a_node42"><a xlink:href="https://github.com/conda-forge/tokenizers-feedstock/pull/14" xlink:title="tokenizers ❎">
<ellipse fill="#31688e" stroke="black" cx="783" cy="-674" rx="71" ry="18"/>
<text text-anchor="middle" x="783" y="-670.3" font-family="Times-Roman" font-size="14.00" fill="white">tokenizers ❎</text>
</a>
</g>
</g>
<!-- tokenizers&#45;&gt;allennlp -->
<g id="edge41" class="edge">
<title>tokenizers&#45;&gt;allennlp</title>
<path fill="none" stroke="black" d="M749.75,-657.98C725.38,-646.98 692.22,-632 666.67,-620.46"/>
<polygon fill="black" stroke="black" points="667.83,-617.15 657.28,-616.22 664.95,-623.53 667.83,-617.15"/>
</g>
<!-- librttopo -->
<g id="node43" class="node">
<title>librttopo</title>
<g id="a_node43"><a xlink:href="https://github.com/conda-forge/librttopo-feedstock" xlink:title="librttopo">
<ellipse fill="#35b779" stroke="black" cx="442" cy="-306" rx="50.09" ry="18"/>
<text text-anchor="middle" x="442" y="-302.3" font-family="Times-Roman" font-size="14.00">librttopo</text>
</a>
</g>
</g>
<!-- librttopo&#45;&gt;libspatialite -->
<g id="edge42" class="edge">
<title>librttopo&#45;&gt;libspatialite</title>
<path fill="none" stroke="black" d="M442,-287.7C442,-279.98 442,-270.71 442,-262.11"/>
<polygon fill="black" stroke="black" points="445.5,-262.1 442,-252.1 438.5,-262.1 445.5,-262.1"/>
</g>
<!-- dm&#45;tree -->
<g id="node44" class="node">
<title>dm&#45;tree</title>
<g id="a_node44"><a xlink:href="https://github.com/conda-forge/dm-tree-feedstock/pull/4" xlink:title="dm tree ❎">
<ellipse fill="#31688e" stroke="black" cx="1012" cy="-198" rx="60" ry="18"/>
<text text-anchor="middle" x="1012" y="-194.3" font-family="Times-Roman" font-size="14.00" fill="white">dm tree ❎</text>
</a>
</g>
</g>
<!-- msgspec -->
<g id="node45" class="node">
<title>msgspec</title>
<g id="a_node45"><a xlink:href="https://github.com/conda-forge/msgspec-feedstock/pull/2" xlink:title="msgspec ✓">
<ellipse fill="#31688e" stroke="black" cx="1012" cy="-126" rx="63.09" ry="18"/>
<text text-anchor="middle" x="1012" y="-122.3" font-family="Times-Roman" font-size="14.00" fill="white">msgspec ✓</text>
</a>
</g>
</g>
<!-- dm&#45;tree&#45;&gt;msgspec -->
<!-- magma -->
<g id="node46" class="node">
<title>magma</title>
<g id="a_node46"><a xlink:href="https://github.com/conda-forge/magma-feedstock/pull/4" xlink:title="magma ✓">
<ellipse fill="#31688e" stroke="black" cx="710" cy="-818" rx="58" ry="18"/>
<text text-anchor="middle" x="710" y="-814.3" font-family="Times-Roman" font-size="14.00" fill="white">magma ✓</text>
</a>
</g>
</g>
<!-- magma&#45;&gt;pytorch&#45;cpu -->
<g id="edge44" class="edge">
<title>magma&#45;&gt;pytorch&#45;cpu</title>
<path fill="none" stroke="black" d="M709.59,-799.73C708.44,-780.86 704.42,-750.35 691,-728 683.73,-715.89 672.68,-705.24 661.86,-696.71"/>
<polygon fill="black" stroke="black" points="663.81,-693.8 653.7,-690.62 659.62,-699.41 663.81,-693.8"/>
</g>
</g>
</svg>
