<?xml version="1.0" encoding="UTF-8" standalone="no"?>
<!DOCTYPE svg PUBLIC "-//W3C//DTD SVG 1.1//EN"
 "http://www.w3.org/Graphics/SVG/1.1/DTD/svg11.dtd">
<!-- Generated by graphviz version 2.42.3 (20191010.1750)
 -->
<!-- Title: %3 Pages: 1 -->
<svg width="1686pt" height="1040pt"
 viewBox="0.00 0.00 1685.60 1040.00" xmlns="http://www.w3.org/2000/svg" xmlns:xlink="http://www.w3.org/1999/xlink">
<g id="graph0" class="graph" transform="scale(1 1) rotate(0) translate(4 1036)">
<title>%3</title>
<polygon fill="white" stroke="transparent" points="-4,4 -4,-1036 1681.6,-1036 1681.6,4 -4,4"/>
<!-- aiohttp -->
<g id="node1" class="node">
<title>aiohttp</title>
<g id="a_node1"><a xlink:href="https://github.com/conda-forge/aiohttp-feedstock" xlink:title="aiohttp">
<ellipse fill="#fde725" stroke="black" cx="388.96" cy="-798" rx="35.19" ry="18"/>
<text text-anchor="middle" x="388.96" y="-794.3" font-family="Times,serif" font-size="14.00">aiohttp</text>
</a>
</g>
</g>
<!-- black -->
<g id="node2" class="node">
<title>black</title>
<g id="a_node2"><a xlink:href="https://github.com/conda-forge/black-feedstock" xlink:title="black">
<ellipse fill="#fde725" stroke="black" cx="388.96" cy="-726" rx="30" ry="18"/>
<text text-anchor="middle" x="388.96" y="-722.3" font-family="Times,serif" font-size="14.00">black</text>
</a>
</g>
</g>
<!-- aiohttp&#45;&gt;black -->
<g id="edge1" class="edge">
<title>aiohttp&#45;&gt;black</title>
<path fill="none" stroke="black" d="M383.08,-780.05C382.25,-772.23 382.01,-762.75 382.37,-753.98"/>
<polygon fill="black" stroke="black" points="385.87,-754.01 383.1,-743.79 378.89,-753.51 385.87,-754.01"/>
</g>
<!-- black&#45;&gt;aiohttp -->
<g id="edge2" class="edge">
<title>black&#45;&gt;aiohttp</title>
<path fill="none" stroke="black" d="M394.82,-743.79C395.66,-751.59 395.9,-761.07 395.55,-769.85"/>
<polygon fill="black" stroke="black" points="392.05,-769.83 394.84,-780.05 399.03,-770.33 392.05,-769.83"/>
</g>
<!-- dm&#45;tree -->
<g id="node3" class="node">
<title>dm&#45;tree</title>
<g id="a_node3"><a xlink:href="https://github.com/conda-forge/dm-tree-feedstock" xlink:title="dm tree">
<ellipse fill="#fde725" stroke="black" cx="113.96" cy="-654" rx="38.5" ry="18"/>
<text text-anchor="middle" x="113.96" y="-650.3" font-family="Times,serif" font-size="14.00">dm tree</text>
</a>
</g>
</g>
<!-- black&#45;&gt;dm&#45;tree -->
<g id="edge3" class="edge">
<title>black&#45;&gt;dm&#45;tree</title>
<path fill="none" stroke="black" d="M366.16,-714.13C360.92,-711.89 355.31,-709.7 349.96,-708 275.12,-684.18 253.35,-690.24 176.96,-672 170.22,-670.39 163.11,-668.58 156.18,-666.76"/>
<polygon fill="black" stroke="black" points="156.8,-663.3 146.24,-664.1 154.99,-670.06 156.8,-663.3"/>
</g>
<!-- hyperspy -->
<g id="node4" class="node">
<title>hyperspy</title>
<g id="a_node4"><a xlink:href="https://github.com/conda-forge/hyperspy-feedstock" xlink:title="hyperspy">
<ellipse fill="#fde725" stroke="black" cx="531.96" cy="-654" rx="43" ry="18"/>
<text text-anchor="middle" x="531.96" y="-650.3" font-family="Times,serif" font-size="14.00">hyperspy</text>
</a>
</g>
</g>
<!-- black&#45;&gt;hyperspy -->
<g id="edge4" class="edge">
<title>black&#45;&gt;hyperspy</title>
<path fill="none" stroke="black" d="M411.62,-713.91C434.2,-702.85 469.24,-685.7 495.7,-672.75"/>
<polygon fill="black" stroke="black" points="497.57,-675.73 505.02,-668.19 494.5,-669.44 497.57,-675.73"/>
</g>
<!-- nbgrader -->
<g id="node5" class="node">
<title>nbgrader</title>
<g id="a_node5"><a xlink:href="https://github.com/conda-forge/nbgrader-feedstock" xlink:title="nbgrader">
<ellipse fill="#fde725" stroke="black" cx="428.96" cy="-654" rx="42.49" ry="18"/>
<text text-anchor="middle" x="428.96" y="-650.3" font-family="Times,serif" font-size="14.00">nbgrader</text>
</a>
</g>
</g>
<!-- black&#45;&gt;nbgrader -->
<g id="edge5" class="edge">
<title>black&#45;&gt;nbgrader</title>
<path fill="none" stroke="black" d="M398.23,-708.76C403.01,-700.4 408.95,-690.02 414.32,-680.61"/>
<polygon fill="black" stroke="black" points="417.53,-682.05 419.45,-671.63 411.45,-678.58 417.53,-682.05"/>
</g>
<!-- allennlp -->
<g id="node6" class="node">
<title>allennlp</title>
<g id="a_node6"><a xlink:href="https://github.com/conda-forge/allennlp-feedstock" xlink:title="allennlp">
<ellipse fill="#fde725" stroke="black" cx="238.96" cy="-510" rx="39" ry="18"/>
<text text-anchor="middle" x="238.96" y="-506.3" font-family="Times,serif" font-size="14.00">allennlp</text>
</a>
</g>
</g>
<!-- black&#45;&gt;allennlp -->
<g id="edge6" class="edge">
<title>black&#45;&gt;allennlp</title>
<path fill="none" stroke="black" d="M385.51,-707.94C377.82,-671.26 358.5,-586.39 339.96,-564 324.59,-545.43 301,-532.54 280.48,-524.12"/>
<polygon fill="black" stroke="black" points="281.6,-520.8 271.01,-520.46 279.07,-527.33 281.6,-520.8"/>
</g>
<!-- pytorch&#45;cpu -->
<g id="node7" class="node">
<title>pytorch&#45;cpu</title>
<g id="a_node7"><a xlink:href="https://github.com/conda-forge/pytorch-cpu-feedstock" xlink:title="pytorch cpu">
<ellipse fill="#fde725" stroke="black" cx="238.96" cy="-654" rx="52.79" ry="18"/>
<text text-anchor="middle" x="238.96" y="-650.3" font-family="Times,serif" font-size="14.00">pytorch cpu</text>
</a>
</g>
</g>
<!-- black&#45;&gt;pytorch&#45;cpu -->
<g id="edge7" class="edge">
<title>black&#45;&gt;pytorch&#45;cpu</title>
<path fill="none" stroke="black" d="M365.85,-714.22C342.44,-703.29 305.81,-686.2 277.91,-673.18"/>
<polygon fill="black" stroke="black" points="279.36,-669.99 268.82,-668.94 276.4,-676.34 279.36,-669.99"/>
</g>
<!-- pytorch&#45;cpu&#45;&gt;allennlp -->
<g id="edge42" class="edge">
<title>pytorch&#45;cpu&#45;&gt;allennlp</title>
<path fill="none" stroke="black" d="M196.22,-643.46C130.36,-628.7 11.42,-601.85 9.96,-600 0,-587.48 0,-576.52 9.96,-564 32.1,-536.14 130.36,-521.64 190.75,-515.23"/>
<polygon fill="black" stroke="black" points="191.24,-518.7 200.83,-514.2 190.52,-511.74 191.24,-518.7"/>
</g>
<!-- pytorch&#45;pretrained&#45;bert -->
<g id="node42" class="node">
<title>pytorch&#45;pretrained&#45;bert</title>
<g id="a_node42"><a xlink:href="https://github.com/conda-forge/pytorch-pretrained-bert-feedstock" xlink:title="pytorch pretrained bert">
<ellipse fill="#fde725" stroke="black" cx="238.96" cy="-582" rx="91.78" ry="18"/>
<text text-anchor="middle" x="238.96" y="-578.3" font-family="Times,serif" font-size="14.00">pytorch pretrained bert</text>
</a>
</g>
</g>
<!-- pytorch&#45;cpu&#45;&gt;pytorch&#45;pretrained&#45;bert -->
<g id="edge43" class="edge">
<title>pytorch&#45;cpu&#45;&gt;pytorch&#45;pretrained&#45;bert</title>
<path fill="none" stroke="black" d="M238.96,-635.7C238.96,-627.98 238.96,-618.71 238.96,-610.11"/>
<polygon fill="black" stroke="black" points="242.46,-610.1 238.96,-600.1 235.46,-610.1 242.46,-610.1"/>
</g>
<!-- astroscrappy -->
<g id="node8" class="node">
<title>astroscrappy</title>
<g id="a_node8"><a xlink:href="https://github.com/conda-forge/astroscrappy-feedstock/pull/11" xlink:title="astroscrappy ❎">
<ellipse fill="#31688e" stroke="black" cx="1149.96" cy="-1014" rx="67" ry="18"/>
<text text-anchor="middle" x="1149.96" y="-1010.3" font-family="Times,serif" font-size="14.00" fill="white">astroscrappy ❎</text>
</a>
</g>
</g>
<!-- pypy2.7 -->
<g id="node9" class="node">
<title>pypy2.7</title>
<g id="a_node9"><a xlink:href="https://github.com/conda-forge/pypy2.7-feedstock/pull/3" xlink:title="pypy2 7 ❎">
<ellipse fill="#31688e" stroke="black" cx="1149.96" cy="-942" rx="51.5" ry="18"/>
<text text-anchor="middle" x="1149.96" y="-938.3" font-family="Times,serif" font-size="14.00" fill="white">pypy2 7 ❎</text>
</a>
</g>
</g>
<!-- astroscrappy&#45;&gt;pypy2.7 -->
<!-- root_numpy -->
<g id="node37" class="node">
<title>root_numpy</title>
<g id="a_node37"><a xlink:href="https://github.com/conda-forge/root_numpy-feedstock/pull/19" xlink:title="root_numpy ❎">
<ellipse fill="#31688e" stroke="black" cx="1149.96" cy="-870" rx="65.79" ry="18"/>
<text text-anchor="middle" x="1149.96" y="-866.3" font-family="Times,serif" font-size="14.00" fill="white">root_numpy ❎</text>
</a>
</g>
</g>
<!-- pypy2.7&#45;&gt;root_numpy -->
<!-- bazel -->
<g id="node10" class="node">
<title>bazel</title>
<g id="a_node10"><a xlink:href="https://github.com/conda-forge/bazel-feedstock/pull/53" xlink:title="bazel ❎">
<ellipse fill="#31688e" stroke="black" cx="105.96" cy="-726" rx="41" ry="18"/>
<text text-anchor="middle" x="105.96" y="-722.3" font-family="Times,serif" font-size="14.00" fill="white">bazel ❎</text>
</a>
</g>
</g>
<!-- bazel&#45;&gt;dm&#45;tree -->
<g id="edge9" class="edge">
<title>bazel&#45;&gt;dm&#45;tree</title>
<path fill="none" stroke="black" d="M107.93,-707.7C108.82,-699.98 109.88,-690.71 110.86,-682.11"/>
<polygon fill="black" stroke="black" points="114.34,-682.44 112,-672.1 107.39,-681.64 114.34,-682.44"/>
</g>
<!-- elfutils -->
<g id="node11" class="node">
<title>elfutils</title>
<g id="a_node11"><a xlink:href="https://github.com/conda-forge/elfutils-feedstock/pull/20" xlink:title="elfutils ❎">
<ellipse fill="#31688e" stroke="black" cx="447.96" cy="-322" rx="47" ry="18"/>
<text text-anchor="middle" x="447.96" y="-318.3" font-family="Times,serif" font-size="14.00" fill="white">elfutils ❎</text>
</a>
</g>
</g>
<!-- heaptrack -->
<g id="node12" class="node">
<title>heaptrack</title>
<g id="a_node12"><a xlink:href="https://github.com/conda-forge/heaptrack-feedstock" xlink:title="heaptrack">
<ellipse fill="#fde725" stroke="black" cx="454.96" cy="-250" rx="45" ry="18"/>
<text text-anchor="middle" x="454.96" y="-246.3" font-family="Times,serif" font-size="14.00">heaptrack</text>
</a>
</g>
</g>
<!-- elfutils&#45;&gt;heaptrack -->
<g id="edge10" class="edge">
<title>elfutils&#45;&gt;heaptrack</title>
<path fill="none" stroke="black" d="M449.69,-303.7C450.46,-295.98 451.39,-286.71 452.25,-278.11"/>
<polygon fill="black" stroke="black" points="455.73,-278.4 453.25,-268.1 448.77,-277.71 455.73,-278.4"/>
</g>
<!-- fastparquet -->
<g id="node13" class="node">
<title>fastparquet</title>
<g id="a_node13"><a xlink:href="https://github.com/conda-forge/fastparquet-feedstock" xlink:title="fastparquet">
<ellipse fill="#fde725" stroke="black" cx="514.96" cy="-134" rx="50.09" ry="18"/>
<text text-anchor="middle" x="514.96" y="-130.3" font-family="Times,serif" font-size="14.00">fastparquet</text>
</a>
</g>
</g>
<!-- freexl -->
<g id="node14" class="node">
<title>freexl</title>
<g id="a_node14"><a xlink:href="https://github.com/conda-forge/freexl-feedstock/pull/22" xlink:title="freexl ✓">
<ellipse fill="#31688e" stroke="black" cx="1312.96" cy="-834" rx="41.69" ry="18"/>
<text text-anchor="middle" x="1312.96" y="-830.3" font-family="Times,serif" font-size="14.00" fill="white">freexl ✓</text>
</a>
</g>
</g>
<!-- gdal -->
<g id="node15" class="node">
<title>gdal</title>
<g id="a_node15"><a xlink:href="https://github.com/conda-forge/gdal-feedstock" xlink:title="gdal">
<ellipse fill="#fde725" stroke="black" cx="1441.96" cy="-690" rx="27" ry="18"/>
<text text-anchor="middle" x="1441.96" y="-686.3" font-family="Times,serif" font-size="14.00">gdal</text>
</a>
</g>
</g>
<!-- freexl&#45;&gt;gdal -->
<g id="edge11" class="edge">
<title>freexl&#45;&gt;gdal</title>
<path fill="none" stroke="black" d="M1304.39,-816.31C1295.87,-797.13 1286.05,-765.53 1300.96,-744 1324.13,-710.53 1371.25,-698.17 1404.63,-693.62"/>
<polygon fill="black" stroke="black" points="1405.42,-697.05 1414.94,-692.4 1404.59,-690.1 1405.42,-697.05"/>
</g>
<!-- libspatialite -->
<g id="node16" class="node">
<title>libspatialite</title>
<g id="a_node16"><a xlink:href="https://github.com/conda-forge/libspatialite-feedstock" xlink:title="libspatialite">
<ellipse fill="#fde725" stroke="black" cx="1361.96" cy="-762" rx="52" ry="18"/>
<text text-anchor="middle" x="1361.96" y="-758.3" font-family="Times,serif" font-size="14.00">libspatialite</text>
</a>
</g>
</g>
<!-- freexl&#45;&gt;libspatialite -->
<g id="edge12" class="edge">
<title>freexl&#45;&gt;libspatialite</title>
<path fill="none" stroke="black" d="M1324.57,-816.41C1330.46,-807.99 1337.75,-797.58 1344.32,-788.2"/>
<polygon fill="black" stroke="black" points="1347.22,-790.16 1350.09,-779.96 1341.49,-786.14 1347.22,-790.16"/>
</g>
<!-- kealib -->
<g id="node17" class="node">
<title>kealib</title>
<g id="a_node17"><a xlink:href="https://github.com/conda-forge/kealib-feedstock" xlink:title="kealib">
<ellipse fill="#fde725" stroke="black" cx="1441.96" cy="-618" rx="32.5" ry="18"/>
<text text-anchor="middle" x="1441.96" y="-614.3" font-family="Times,serif" font-size="14.00">kealib</text>
</a>
</g>
</g>
<!-- gdal&#45;&gt;kealib -->
<g id="edge13" class="edge">
<title>gdal&#45;&gt;kealib</title>
<path fill="none" stroke="black" d="M1436.12,-672.41C1435.25,-664.51 1435,-654.85 1435.37,-645.94"/>
<polygon fill="black" stroke="black" points="1438.86,-646.18 1436.08,-635.96 1431.88,-645.68 1438.86,-646.18"/>
</g>
<!-- r&#45;sf -->
<g id="node18" class="node">
<title>r&#45;sf</title>
<g id="a_node18"><a xlink:href="https://github.com/conda-forge/r-sf-feedstock" xlink:title="r sf">
<ellipse fill="#fde725" stroke="black" cx="1571.96" cy="-618" rx="27" ry="18"/>
<text text-anchor="middle" x="1571.96" y="-614.3" font-family="Times,serif" font-size="14.00">r sf</text>
</a>
</g>
</g>
<!-- gdal&#45;&gt;r&#45;sf -->
<g id="edge14" class="edge">
<title>gdal&#45;&gt;r&#45;sf</title>
<path fill="none" stroke="black" d="M1462.27,-678.06C1483.8,-666.47 1518.01,-648.05 1542.49,-634.86"/>
<polygon fill="black" stroke="black" points="1544.21,-637.91 1551.36,-630.09 1540.89,-631.75 1544.21,-637.91"/>
</g>
<!-- libspatialite&#45;&gt;gdal -->
<g id="edge15" class="edge">
<title>libspatialite&#45;&gt;gdal</title>
<path fill="none" stroke="black" d="M1380.11,-745.12C1391.53,-735.12 1406.38,-722.13 1418.66,-711.38"/>
<polygon fill="black" stroke="black" points="1421.08,-713.91 1426.3,-704.7 1416.47,-708.65 1421.08,-713.91"/>
</g>
<!-- kealib&#45;&gt;gdal -->
<g id="edge16" class="edge">
<title>kealib&#45;&gt;gdal</title>
<path fill="none" stroke="black" d="M1447.84,-635.96C1448.67,-643.83 1448.91,-653.37 1448.54,-662.19"/>
<polygon fill="black" stroke="black" points="1445.03,-662.18 1447.8,-672.41 1452.01,-662.69 1445.03,-662.18"/>
</g>
<!-- r&#45;spdep -->
<g id="node19" class="node">
<title>r&#45;spdep</title>
<g id="a_node19"><a xlink:href="https://github.com/conda-forge/r-spdep-feedstock" xlink:title="r spdep">
<ellipse fill="#fde725" stroke="black" cx="1571.96" cy="-546" rx="36.5" ry="18"/>
<text text-anchor="middle" x="1571.96" y="-542.3" font-family="Times,serif" font-size="14.00">r spdep</text>
</a>
</g>
</g>
<!-- r&#45;sf&#45;&gt;r&#45;spdep -->
<g id="edge17" class="edge">
<title>r&#45;sf&#45;&gt;r&#45;spdep</title>
<path fill="none" stroke="black" d="M1571.96,-599.7C1571.96,-591.98 1571.96,-582.71 1571.96,-574.11"/>
<polygon fill="black" stroke="black" points="1575.46,-574.1 1571.96,-564.1 1568.46,-574.1 1575.46,-574.1"/>
</g>
<!-- geos -->
<g id="node20" class="node">
<title>geos</title>
<g id="a_node20"><a xlink:href="https://github.com/conda-forge/geos-feedstock/pull/47" xlink:title="geos ❎">
<ellipse fill="#31688e" stroke="black" cx="1425.96" cy="-834" rx="38.5" ry="18"/>
<text text-anchor="middle" x="1425.96" y="-830.3" font-family="Times,serif" font-size="14.00" fill="white">geos ❎</text>
</a>
</g>
</g>
<!-- geos&#45;&gt;gdal -->
<g id="edge18" class="edge">
<title>geos&#45;&gt;gdal</title>
<path fill="none" stroke="black" d="M1427.89,-815.87C1430.61,-791.67 1435.62,-747.21 1438.87,-718.39"/>
<polygon fill="black" stroke="black" points="1442.38,-718.52 1440.02,-708.19 1435.42,-717.73 1442.38,-718.52"/>
</g>
<!-- geos&#45;&gt;libspatialite -->
<g id="edge19" class="edge">
<title>geos&#45;&gt;libspatialite</title>
<path fill="none" stroke="black" d="M1411.43,-817.12C1403.29,-808.2 1392.96,-796.91 1383.85,-786.94"/>
<polygon fill="black" stroke="black" points="1386.2,-784.33 1376.87,-779.31 1381.03,-789.05 1386.2,-784.33"/>
</g>
<!-- libunwind -->
<g id="node21" class="node">
<title>libunwind</title>
<g id="a_node21"><a xlink:href="https://github.com/conda-forge/libunwind-feedstock/pull/14" xlink:title="libunwind ❎">
<ellipse fill="#31688e" stroke="black" cx="570.96" cy="-322" rx="58" ry="18"/>
<text text-anchor="middle" x="570.96" y="-318.3" font-family="Times,serif" font-size="14.00" fill="white">libunwind ❎</text>
</a>
</g>
</g>
<!-- libunwind&#45;&gt;heaptrack -->
<g id="edge20" class="edge">
<title>libunwind&#45;&gt;heaptrack</title>
<path fill="none" stroke="black" d="M545.5,-305.64C528.42,-295.33 505.77,-281.67 487.4,-270.58"/>
<polygon fill="black" stroke="black" points="489.14,-267.54 478.77,-265.37 485.52,-273.53 489.14,-267.54"/>
</g>
<!-- py&#45;spy -->
<g id="node22" class="node">
<title>py&#45;spy</title>
<g id="a_node22"><a xlink:href="https://github.com/conda-forge/py-spy-feedstock/pull/11" xlink:title="py spy ❎">
<ellipse fill="#31688e" stroke="black" cx="570.96" cy="-250" rx="46.29" ry="18"/>
<text text-anchor="middle" x="570.96" y="-246.3" font-family="Times,serif" font-size="14.00" fill="white">py spy ❎</text>
</a>
</g>
</g>
<!-- libunwind&#45;&gt;py&#45;spy -->
<g id="edge21" class="edge">
<title>libunwind&#45;&gt;py&#45;spy</title>
<path fill="none" stroke="black" d="M570.96,-303.7C570.96,-295.98 570.96,-286.71 570.96,-278.11"/>
<polygon fill="black" stroke="black" points="574.46,-278.1 570.96,-268.1 567.46,-278.1 574.46,-278.1"/>
</g>
<!-- mono -->
<g id="node23" class="node">
<title>mono</title>
<g id="a_node23"><a xlink:href="https://github.com/conda-forge/mono-feedstock/pull/18" xlink:title="mono ❎">
<ellipse fill="#31688e" stroke="black" cx="514.96" cy="-90" rx="43" ry="18"/>
<text text-anchor="middle" x="514.96" y="-86.3" font-family="Times,serif" font-size="14.00" fill="white">mono ❎</text>
</a>
</g>
</g>
<!-- ogre -->
<g id="node24" class="node">
<title>ogre</title>
<g id="a_node24"><a xlink:href="https://github.com/conda-forge/ogre-feedstock" xlink:title="ogre">
<ellipse fill="#fde725" stroke="black" cx="514.96" cy="-18" rx="27" ry="18"/>
<text text-anchor="middle" x="514.96" y="-14.3" font-family="Times,serif" font-size="14.00">ogre</text>
</a>
</g>
</g>
<!-- mono&#45;&gt;ogre -->
<g id="edge22" class="edge">
<title>mono&#45;&gt;ogre</title>
<path fill="none" stroke="black" d="M514.96,-71.7C514.96,-63.98 514.96,-54.71 514.96,-46.11"/>
<polygon fill="black" stroke="black" points="518.46,-46.1 514.96,-36.1 511.46,-46.1 518.46,-46.1"/>
</g>
<!-- nltk_data -->
<g id="node25" class="node">
<title>nltk_data</title>
<g id="a_node25"><a xlink:href="https://github.com/conda-forge/nltk_data-feedstock/pull/5" xlink:title="nltk_data ❎">
<ellipse fill="#31688e" stroke="black" cx="73.96" cy="-582" rx="55.49" ry="18"/>
<text text-anchor="middle" x="73.96" y="-578.3" font-family="Times,serif" font-size="14.00" fill="white">nltk_data ❎</text>
</a>
</g>
</g>
<!-- nltk_data&#45;&gt;allennlp -->
<g id="edge23" class="edge">
<title>nltk_data&#45;&gt;allennlp</title>
<path fill="none" stroke="black" d="M106.16,-567.34C133.63,-555.68 173.13,-538.93 201.9,-526.72"/>
<polygon fill="black" stroke="black" points="203.38,-529.9 211.22,-522.77 200.65,-523.45 203.38,-529.9"/>
</g>
<!-- pyqt -->
<g id="node26" class="node">
<title>pyqt</title>
<g id="a_node26"><a xlink:href="https://github.com/conda-forge/pyqt-feedstock" xlink:title="pyqt">
<ellipse fill="#fde725" stroke="black" cx="602.96" cy="-726" rx="27" ry="18"/>
<text text-anchor="middle" x="602.96" y="-722.3" font-family="Times,serif" font-size="14.00">pyqt</text>
</a>
</g>
</g>
<!-- pyqt&#45;&gt;hyperspy -->
<g id="edge24" class="edge">
<title>pyqt&#45;&gt;hyperspy</title>
<path fill="none" stroke="black" d="M588.25,-710.5C578.74,-701.13 566.17,-688.73 555.31,-678.03"/>
<polygon fill="black" stroke="black" points="557.71,-675.48 548.13,-670.95 552.8,-680.46 557.71,-675.48"/>
</g>
<!-- pyqt&#45;&gt;nbgrader -->
<g id="edge25" class="edge">
<title>pyqt&#45;&gt;nbgrader</title>
<path fill="none" stroke="black" d="M580.21,-715.85C551.75,-704.4 502.56,-684.61 468.02,-670.72"/>
<polygon fill="black" stroke="black" points="469.29,-667.45 458.7,-666.97 466.67,-673.95 469.29,-667.45"/>
</g>
<!-- pyqt&#45;&gt;allennlp -->
<g id="edge26" class="edge">
<title>pyqt&#45;&gt;allennlp</title>
<path fill="none" stroke="black" d="M603.95,-707.77C604.13,-688.09 601.39,-656.01 583.96,-636 507.11,-547.81 363.02,-521.82 287.68,-514.18"/>
<polygon fill="black" stroke="black" points="287.8,-510.67 277.52,-513.22 287.14,-517.64 287.8,-510.67"/>
</g>
<!-- pythonocc&#45;core -->
<g id="node27" class="node">
<title>pythonocc&#45;core</title>
<g id="a_node27"><a xlink:href="https://github.com/conda-forge/pythonocc-core-feedstock" xlink:title="pythonocc core">
<ellipse fill="#fde725" stroke="black" cx="695.96" cy="-654" rx="65" ry="18"/>
<text text-anchor="middle" x="695.96" y="-650.3" font-family="Times,serif" font-size="14.00">pythonocc core</text>
</a>
</g>
</g>
<!-- pyqt&#45;&gt;pythonocc&#45;core -->
<g id="edge27" class="edge">
<title>pyqt&#45;&gt;pythonocc&#45;core</title>
<path fill="none" stroke="black" d="M620.45,-711.83C633.41,-702.08 651.38,-688.55 666.54,-677.14"/>
<polygon fill="black" stroke="black" points="668.74,-679.87 674.62,-671.06 664.53,-674.27 668.74,-679.87"/>
</g>
<!-- qt -->
<g id="node28" class="node">
<title>qt</title>
<g id="a_node28"><a xlink:href="https://github.com/conda-forge/qt-feedstock/pull/168" xlink:title="qt ❎">
<ellipse fill="#31688e" stroke="black" cx="860.96" cy="-798" rx="29.5" ry="18"/>
<text text-anchor="middle" x="860.96" y="-794.3" font-family="Times,serif" font-size="14.00" fill="white">qt ❎</text>
</a>
</g>
</g>
<!-- qt&#45;&gt;pyqt -->
<g id="edge28" class="edge">
<title>qt&#45;&gt;pyqt</title>
<path fill="none" stroke="black" d="M833.74,-791.09C793.31,-782.1 715.16,-763.92 649.96,-744 645.23,-742.55 640.27,-740.91 635.43,-739.23"/>
<polygon fill="black" stroke="black" points="636.34,-735.84 625.75,-735.77 633.99,-742.43 636.34,-735.84"/>
</g>
<!-- pivy -->
<g id="node29" class="node">
<title>pivy</title>
<g id="a_node29"><a xlink:href="https://github.com/conda-forge/pivy-feedstock" xlink:title="pivy">
<ellipse fill="#fde725" stroke="black" cx="860.96" cy="-582" rx="27" ry="18"/>
<text text-anchor="middle" x="860.96" y="-578.3" font-family="Times,serif" font-size="14.00">pivy</text>
</a>
</g>
</g>
<!-- qt&#45;&gt;pivy -->
<g id="edge29" class="edge">
<title>qt&#45;&gt;pivy</title>
<path fill="none" stroke="black" d="M860.96,-779.85C860.96,-742.83 860.96,-655.18 860.96,-610.39"/>
<polygon fill="black" stroke="black" points="864.46,-610.23 860.96,-600.23 857.46,-610.23 864.46,-610.23"/>
</g>
<!-- pyside2 -->
<g id="node30" class="node">
<title>pyside2</title>
<g id="a_node30"><a xlink:href="https://github.com/conda-forge/pyside2-feedstock" xlink:title="pyside2">
<ellipse fill="#fde725" stroke="black" cx="927.96" cy="-726" rx="38.5" ry="18"/>
<text text-anchor="middle" x="927.96" y="-722.3" font-family="Times,serif" font-size="14.00">pyside2</text>
</a>
</g>
</g>
<!-- qt&#45;&gt;pyside2 -->
<g id="edge30" class="edge">
<title>qt&#45;&gt;pyside2</title>
<path fill="none" stroke="black" d="M875.17,-782.15C884.07,-772.85 895.73,-760.67 905.82,-750.12"/>
<polygon fill="black" stroke="black" points="908.45,-752.44 912.84,-742.8 903.39,-747.6 908.45,-752.44"/>
</g>
<!-- soqt -->
<g id="node31" class="node">
<title>soqt</title>
<g id="a_node31"><a xlink:href="https://github.com/conda-forge/soqt-feedstock" xlink:title="soqt">
<ellipse fill="#fde725" stroke="black" cx="805.96" cy="-654" rx="27" ry="18"/>
<text text-anchor="middle" x="805.96" y="-650.3" font-family="Times,serif" font-size="14.00">soqt</text>
</a>
</g>
</g>
<!-- qt&#45;&gt;soqt -->
<g id="edge31" class="edge">
<title>qt&#45;&gt;soqt</title>
<path fill="none" stroke="black" d="M854.54,-780.43C845.11,-756.09 827.42,-710.4 816.18,-681.4"/>
<polygon fill="black" stroke="black" points="819.38,-679.96 812.5,-671.9 812.85,-682.49 819.38,-679.96"/>
</g>
<!-- geant4 -->
<g id="node32" class="node">
<title>geant4</title>
<g id="a_node32"><a xlink:href="https://github.com/conda-forge/geant4-feedstock" xlink:title="geant4">
<ellipse fill="#fde725" stroke="black" cx="994.96" cy="-582" rx="34.5" ry="18"/>
<text text-anchor="middle" x="994.96" y="-578.3" font-family="Times,serif" font-size="14.00">geant4</text>
</a>
</g>
</g>
<!-- qt&#45;&gt;geant4 -->
<g id="edge32" class="edge">
<title>qt&#45;&gt;geant4</title>
<path fill="none" stroke="black" d="M888.6,-792.08C915.25,-785.79 954.46,-772.14 974.96,-744 1003.69,-704.56 1002.69,-644.76 999.05,-610.23"/>
<polygon fill="black" stroke="black" points="1002.48,-609.47 997.8,-599.96 995.53,-610.31 1002.48,-609.47"/>
</g>
<!-- pyside2&#45;&gt;pivy -->
<g id="edge33" class="edge">
<title>pyside2&#45;&gt;pivy</title>
<path fill="none" stroke="black" d="M920.01,-708.15C908.36,-683.47 886.57,-637.28 872.96,-608.44"/>
<polygon fill="black" stroke="black" points="876.12,-606.94 868.69,-599.39 869.79,-609.92 876.12,-606.94"/>
</g>
<!-- soqt&#45;&gt;pivy -->
<g id="edge34" class="edge">
<title>soqt&#45;&gt;pivy</title>
<path fill="none" stroke="black" d="M817.89,-637.81C825.17,-628.55 834.62,-616.52 842.81,-606.09"/>
<polygon fill="black" stroke="black" points="845.62,-608.18 849.05,-598.16 840.12,-603.86 845.62,-608.18"/>
</g>
<!-- r&#45;units -->
<g id="node33" class="node">
<title>r&#45;units</title>
<g id="a_node33"><a xlink:href="https://github.com/conda-forge/r-units-feedstock" xlink:title="r units">
<ellipse fill="#fde725" stroke="black" cx="1597.96" cy="-690" rx="33.29" ry="18"/>
<text text-anchor="middle" x="1597.96" y="-686.3" font-family="Times,serif" font-size="14.00">r units</text>
</a>
</g>
</g>
<!-- r&#45;units&#45;&gt;r&#45;sf -->
<g id="edge35" class="edge">
<title>r&#45;units&#45;&gt;r&#45;sf</title>
<path fill="none" stroke="black" d="M1591.66,-672.05C1588.69,-664.06 1585.08,-654.33 1581.76,-645.4"/>
<polygon fill="black" stroke="black" points="1584.96,-643.94 1578.19,-635.79 1578.39,-646.38 1584.96,-643.94"/>
</g>
<!-- singularity -->
<g id="node34" class="node">
<title>singularity</title>
<g id="a_node34"><a xlink:href="https://github.com/conda-forge/singularity-feedstock" xlink:title="singularity">
<ellipse fill="#fde725" stroke="black" cx="1149.96" cy="-134" rx="48.19" ry="18"/>
<text text-anchor="middle" x="1149.96" y="-130.3" font-family="Times,serif" font-size="14.00">singularity</text>
</a>
</g>
</g>
<!-- thrift -->
<g id="node35" class="node">
<title>thrift</title>
<g id="a_node35"><a xlink:href="https://github.com/conda-forge/thrift-feedstock/pull/17" xlink:title="thrift ✓">
<ellipse fill="#31688e" stroke="black" cx="514.96" cy="-206" rx="38.5" ry="18"/>
<text text-anchor="middle" x="514.96" y="-202.3" font-family="Times,serif" font-size="14.00" fill="white">thrift ✓</text>
</a>
</g>
</g>
<!-- thrift&#45;&gt;fastparquet -->
<g id="edge36" class="edge">
<title>thrift&#45;&gt;fastparquet</title>
<path fill="none" stroke="black" d="M514.96,-187.7C514.96,-179.98 514.96,-170.71 514.96,-162.11"/>
<polygon fill="black" stroke="black" points="518.46,-162.1 514.96,-152.1 511.46,-162.1 518.46,-162.1"/>
</g>
<!-- udunits2 -->
<g id="node36" class="node">
<title>udunits2</title>
<g id="a_node36"><a xlink:href="https://github.com/conda-forge/udunits2-feedstock/pull/32" xlink:title="udunits2 ❎">
<ellipse fill="#31688e" stroke="black" cx="1624.96" cy="-762" rx="52.79" ry="18"/>
<text text-anchor="middle" x="1624.96" y="-758.3" font-family="Times,serif" font-size="14.00" fill="white">udunits2 ❎</text>
</a>
</g>
</g>
<!-- udunits2&#45;&gt;r&#45;units -->
<g id="edge37" class="edge">
<title>udunits2&#45;&gt;r&#45;units</title>
<path fill="none" stroke="black" d="M1618.42,-744.05C1615.34,-736.06 1611.58,-726.33 1608.14,-717.4"/>
<polygon fill="black" stroke="black" points="1611.3,-715.86 1604.43,-707.79 1604.77,-718.38 1611.3,-715.86"/>
</g>
<!-- ibm_db -->
<g id="node43" class="node">
<title>ibm_db</title>
<g id="a_node43"><a xlink:href="https://github.com/conda-forge/ibm_db-feedstock/pull/10" xlink:title="ibm_db ❎">
<ellipse fill="#31688e" stroke="black" cx="1149.96" cy="-798" rx="50.09" ry="18"/>
<text text-anchor="middle" x="1149.96" y="-794.3" font-family="Times,serif" font-size="14.00" fill="white">ibm_db ❎</text>
</a>
</g>
</g>
<!-- root_numpy&#45;&gt;ibm_db -->
<!-- tiledb -->
<g id="node38" class="node">
<title>tiledb</title>
<g id="a_node38"><a xlink:href="https://github.com/conda-forge/tiledb-feedstock/pull/80" xlink:title="tiledb ❎">
<ellipse fill="#31688e" stroke="black" cx="1511.96" cy="-762" rx="42.49" ry="18"/>
<text text-anchor="middle" x="1511.96" y="-758.3" font-family="Times,serif" font-size="14.00" fill="white">tiledb ❎</text>
</a>
</g>
</g>
<!-- tiledb&#45;&gt;gdal -->
<g id="edge39" class="edge">
<title>tiledb&#45;&gt;gdal</title>
<path fill="none" stroke="black" d="M1496.07,-745.12C1486.46,-735.51 1474.08,-723.13 1463.59,-712.63"/>
<polygon fill="black" stroke="black" points="1465.9,-709.99 1456.35,-705.39 1460.95,-714.94 1465.9,-709.99"/>
</g>
<!-- libsvm -->
<g id="node39" class="node">
<title>libsvm</title>
<g id="a_node39"><a xlink:href="https://github.com/conda-forge/libsvm-feedstock/pull/16" xlink:title="libsvm ❎">
<ellipse fill="#31688e" stroke="black" cx="1473.96" cy="-206" rx="47" ry="18"/>
<text text-anchor="middle" x="1473.96" y="-202.3" font-family="Times,serif" font-size="14.00" fill="white">libsvm ❎</text>
</a>
</g>
</g>
<!-- cctbx&#45;base -->
<g id="node40" class="node">
<title>cctbx&#45;base</title>
<g id="a_node40"><a xlink:href="https://github.com/conda-forge/cctbx-base-feedstock" xlink:title="cctbx base">
<ellipse fill="#fde725" stroke="black" cx="1473.96" cy="-134" rx="48.19" ry="18"/>
<text text-anchor="middle" x="1473.96" y="-130.3" font-family="Times,serif" font-size="14.00">cctbx base</text>
</a>
</g>
</g>
<!-- libsvm&#45;&gt;cctbx&#45;base -->
<g id="edge40" class="edge">
<title>libsvm&#45;&gt;cctbx&#45;base</title>
<path fill="none" stroke="black" d="M1473.96,-187.7C1473.96,-179.98 1473.96,-170.71 1473.96,-162.11"/>
<polygon fill="black" stroke="black" points="1477.46,-162.1 1473.96,-152.1 1470.46,-162.1 1477.46,-162.1"/>
</g>
<!-- occt -->
<g id="node41" class="node">
<title>occt</title>
<g id="a_node41"><a xlink:href="https://github.com/conda-forge/occt-feedstock/pull/59" xlink:title="occt ❎">
<ellipse fill="#31688e" stroke="black" cx="695.96" cy="-726" rx="37.09" ry="18"/>
<text text-anchor="middle" x="695.96" y="-722.3" font-family="Times,serif" font-size="14.00" fill="white">occt ❎</text>
</a>
</g>
</g>
<!-- occt&#45;&gt;pythonocc&#45;core -->
<g id="edge41" class="edge">
<title>occt&#45;&gt;pythonocc&#45;core</title>
<path fill="none" stroke="black" d="M695.96,-707.7C695.96,-699.98 695.96,-690.71 695.96,-682.11"/>
<polygon fill="black" stroke="black" points="699.46,-682.1 695.96,-672.1 692.46,-682.1 699.46,-682.1"/>
</g>
<!-- pytorch&#45;pretrained&#45;bert&#45;&gt;allennlp -->
<g id="edge45" class="edge">
<title>pytorch&#45;pretrained&#45;bert&#45;&gt;allennlp</title>
<path fill="none" stroke="black" d="M238.96,-563.7C238.96,-555.98 238.96,-546.71 238.96,-538.11"/>
<polygon fill="black" stroke="black" points="242.46,-538.1 238.96,-528.1 235.46,-538.1 242.46,-538.1"/>
</g>
<!-- cudatoolkit -->
<g id="node47" class="node">
<title>cudatoolkit</title>
<g id="a_node47"><a xlink:href="https://github.com/conda-forge/cudatoolkit-feedstock/pull/4" xlink:title="cudatoolkit ❎">
<ellipse fill="#31688e" stroke="black" cx="1149.96" cy="-726" rx="61.99" ry="18"/>
<text text-anchor="middle" x="1149.96" y="-722.3" font-family="Times,serif" font-size="14.00" fill="white">cudatoolkit ❎</text>
</a>
</g>
</g>
<!-- ibm_db&#45;&gt;cudatoolkit -->
<!-- go&#45;dep -->
<g id="node44" class="node">
<title>go&#45;dep</title>
<g id="a_node44"><a xlink:href="https://github.com/conda-forge/go-dep-feedstock/pull/12" xlink:title="go dep ❎">
<ellipse fill="#31688e" stroke="black" cx="1149.96" cy="-206" rx="46.29" ry="18"/>
<text text-anchor="middle" x="1149.96" y="-202.3" font-family="Times,serif" font-size="14.00" fill="white">go dep ❎</text>
</a>
</g>
</g>
<!-- go&#45;dep&#45;&gt;singularity -->
<g id="edge46" class="edge">
<title>go&#45;dep&#45;&gt;singularity</title>
<path fill="none" stroke="black" d="M1149.96,-187.7C1149.96,-179.98 1149.96,-170.71 1149.96,-162.11"/>
<polygon fill="black" stroke="black" points="1153.46,-162.1 1149.96,-152.1 1146.46,-162.1 1153.46,-162.1"/>
</g>
<!-- procps&#45;ng -->
<g id="node45" class="node">
<title>procps&#45;ng</title>
<g id="a_node45"><a xlink:href="https://github.com/conda-forge/procps-ng-feedstock/pull/3" xlink:title="procps ng ✓">
<ellipse fill="#31688e" stroke="black" cx="1473.96" cy="-322" rx="56" ry="18"/>
<text text-anchor="middle" x="1473.96" y="-318.3" font-family="Times,serif" font-size="14.00" fill="white">procps ng ✓</text>
</a>
</g>
</g>
<!-- myproxy -->
<g id="node46" class="node">
<title>myproxy</title>
<g id="a_node46"><a xlink:href="https://github.com/conda-forge/myproxy-feedstock" xlink:title="myproxy">
<ellipse fill="#fde725" stroke="black" cx="1473.96" cy="-250" rx="43" ry="18"/>
<text text-anchor="middle" x="1473.96" y="-246.3" font-family="Times,serif" font-size="14.00">myproxy</text>
</a>
</g>
</g>
<!-- procps&#45;ng&#45;&gt;myproxy -->
<g id="edge47" class="edge">
<title>procps&#45;ng&#45;&gt;myproxy</title>
<path fill="none" stroke="black" d="M1473.96,-303.7C1473.96,-295.98 1473.96,-286.71 1473.96,-278.11"/>
<polygon fill="black" stroke="black" points="1477.46,-278.1 1473.96,-268.1 1470.46,-278.1 1477.46,-278.1"/>
</g>
<!-- libusb -->
<g id="node48" class="node">
<title>libusb</title>
<g id="a_node48"><a xlink:href="https://github.com/conda-forge/libusb-feedstock/pull/8" xlink:title="libusb ❎">
<ellipse fill="#31688e" stroke="black" cx="1149.96" cy="-654" rx="44.39" ry="18"/>
<text text-anchor="middle" x="1149.96" y="-650.3" font-family="Times,serif" font-size="14.00" fill="white">libusb ❎</text>
</a>
</g>
</g>
<!-- cudatoolkit&#45;&gt;libusb -->
<!-- clang&#45;compiler&#45;activation -->
<g id="node49" class="node">
<title>clang&#45;compiler&#45;activation</title>
<g id="a_node49"><a xlink:href="https://github.com/conda-forge/clang-compiler-activation-feedstock/pull/48" xlink:title="clang compiler activation ❎">
<ellipse fill="#31688e" stroke="black" cx="1149.96" cy="-582" rx="112.5" ry="18"/>
<text text-anchor="middle" x="1149.96" y="-578.3" font-family="Times,serif" font-size="14.00" fill="white">clang compiler activation ❎</text>
</a>
</g>
</g>
<!-- libusb&#45;&gt;clang&#45;compiler&#45;activation -->
<!-- proj -->
<g id="node50" class="node">
<title>proj</title>
<g id="a_node50"><a xlink:href="https://github.com/conda-forge/proj-feedstock" xlink:title="proj">
<ellipse fill="#35b779" stroke="black" cx="1149.96" cy="-510" rx="27" ry="18"/>
<text text-anchor="middle" x="1149.96" y="-506.3" font-family="Times,serif" font-size="14.00">proj</text>
</a>
</g>
</g>
<!-- clang&#45;compiler&#45;activation&#45;&gt;proj -->
<!-- ompl -->
<g id="node51" class="node">
<title>ompl</title>
<g id="a_node51"><a xlink:href="https://github.com/conda-forge/ompl-feedstock/pull/8" xlink:title="ompl ❎">
<ellipse fill="#31688e" stroke="black" cx="1149.96" cy="-438" rx="41" ry="18"/>
<text text-anchor="middle" x="1149.96" y="-434.3" font-family="Times,serif" font-size="14.00" fill="white">ompl ❎</text>
</a>
</g>
</g>
<!-- proj&#45;&gt;ompl -->
<!-- nordugrid&#45;arc -->
<g id="node56" class="node">
<title>nordugrid&#45;arc</title>
<g id="a_node56"><a xlink:href="https://github.com/conda-forge/nordugrid-arc-feedstock/pull/14" xlink:title="nordugrid arc ❎">
<ellipse fill="#31688e" stroke="black" cx="1149.96" cy="-366" rx="70.39" ry="18"/>
<text text-anchor="middle" x="1149.96" y="-362.3" font-family="Times,serif" font-size="14.00" fill="white">nordugrid arc ❎</text>
</a>
</g>
</g>
<!-- ompl&#45;&gt;nordugrid&#45;arc -->
<!-- nccl -->
<g id="node52" class="node">
<title>nccl</title>
<g id="a_node52"><a xlink:href="https://github.com/conda-forge/nccl-feedstock/pull/29" xlink:title="nccl ❎">
<ellipse fill="#31688e" stroke="black" cx="303.96" cy="-726" rx="37.09" ry="18"/>
<text text-anchor="middle" x="303.96" y="-722.3" font-family="Times,serif" font-size="14.00" fill="white">nccl ❎</text>
</a>
</g>
</g>
<!-- nccl&#45;&gt;pytorch&#45;cpu -->
<g id="edge53" class="edge">
<title>nccl&#45;&gt;pytorch&#45;cpu</title>
<path fill="none" stroke="black" d="M289.21,-709.12C280.85,-700.12 270.23,-688.68 260.91,-678.65"/>
<polygon fill="black" stroke="black" points="263.47,-676.25 254.1,-671.31 258.34,-681.02 263.47,-676.25"/>
</g>
<!-- cudnn -->
<g id="node53" class="node">
<title>cudnn</title>
<g id="a_node53"><a xlink:href="https://github.com/conda-forge/cudnn-feedstock/pull/5" xlink:title="cudnn ❎">
<ellipse fill="#31688e" stroke="black" cx="166.96" cy="-798" rx="44.39" ry="18"/>
<text text-anchor="middle" x="166.96" y="-794.3" font-family="Times,serif" font-size="14.00" fill="white">cudnn ❎</text>
</a>
</g>
</g>
<!-- cudnn&#45;&gt;pytorch&#45;cpu -->
<g id="edge54" class="edge">
<title>cudnn&#45;&gt;pytorch&#45;cpu</title>
<path fill="none" stroke="black" d="M175.5,-780.15C187.95,-755.6 211.18,-709.77 225.82,-680.91"/>
<polygon fill="black" stroke="black" points="229.03,-682.33 230.43,-671.82 222.78,-679.16 229.03,-682.33"/>
</g>
<!-- _openmp_mutex -->
<g id="node54" class="node">
<title>_openmp_mutex</title>
<g id="a_node54"><a xlink:href="https://github.com/conda-forge/_openmp_mutex-feedstock/pull/5" xlink:title="_openmp_mutex ✓">
<ellipse fill="#31688e" stroke="black" cx="1149.96" cy="-322" rx="81.49" ry="18"/>
<text text-anchor="middle" x="1149.96" y="-318.3" font-family="Times,serif" font-size="14.00" fill="white">_openmp_mutex ✓</text>
</a>
</g>
</g>
<!-- r&#45;conquer -->
<g id="node55" class="node">
<title>r&#45;conquer</title>
<g id="a_node55"><a xlink:href="https://github.com/conda-forge/r-conquer-feedstock" xlink:title="r conquer">
<ellipse fill="#fde725" stroke="black" cx="1149.96" cy="-250" rx="44.39" ry="18"/>
<text text-anchor="middle" x="1149.96" y="-246.3" font-family="Times,serif" font-size="14.00">r conquer</text>
</a>
</g>
</g>
<!-- _openmp_mutex&#45;&gt;r&#45;conquer -->
<g id="edge55" class="edge">
<title>_openmp_mutex&#45;&gt;r&#45;conquer</title>
<path fill="none" stroke="black" d="M1149.96,-303.7C1149.96,-295.98 1149.96,-286.71 1149.96,-278.11"/>
<polygon fill="black" stroke="black" points="1153.46,-278.1 1149.96,-268.1 1146.46,-278.1 1153.46,-278.1"/>
</g>
<!-- s2n -->
<g id="node57" class="node">
<title>s2n</title>
<g id="a_node57"><a xlink:href="https://github.com/conda-forge/s2n-feedstock/pull/11" xlink:title="s2n ❎">
<ellipse fill="#31688e" stroke="black" cx="1149.96" cy="-90" rx="34.5" ry="18"/>
<text text-anchor="middle" x="1149.96" y="-86.3" font-family="Times,serif" font-size="14.00" fill="white">s2n ❎</text>
</a>
</g>
</g>
<!-- aws&#45;c&#45;io -->
<g id="node58" class="node">
<title>aws&#45;c&#45;io</title>
<g id="a_node58"><a xlink:href="https://github.com/conda-forge/aws-c-io-feedstock" xlink:title="aws c io">
<ellipse fill="#fde725" stroke="black" cx="1149.96" cy="-18" rx="40.5" ry="18"/>
<text text-anchor="middle" x="1149.96" y="-14.3" font-family="Times,serif" font-size="14.00">aws c io</text>
</a>
</g>
</g>
<!-- s2n&#45;&gt;aws&#45;c&#45;io -->
<g id="edge57" class="edge">
<title>s2n&#45;&gt;aws&#45;c&#45;io</title>
<path fill="none" stroke="black" d="M1149.96,-71.7C1149.96,-63.98 1149.96,-54.71 1149.96,-46.11"/>
<polygon fill="black" stroke="black" points="1153.46,-46.1 1149.96,-36.1 1146.46,-46.1 1153.46,-46.1"/>
</g>
<!-- magma -->
<g id="node59" class="node">
<title>magma</title>
<g id="a_node59"><a xlink:href="https://github.com/conda-forge/magma-feedstock/pull/4" xlink:title="magma ✓">
<ellipse fill="#31688e" stroke="black" cx="238.96" cy="-870" rx="48.19" ry="18"/>
<text text-anchor="middle" x="238.96" y="-866.3" font-family="Times,serif" font-size="14.00" fill="white">magma ✓</text>
</a>
</g>
</g>
<!-- magma&#45;&gt;pytorch&#45;cpu -->
<g id="edge58" class="edge">
<title>magma&#45;&gt;pytorch&#45;cpu</title>
<path fill="none" stroke="black" d="M238.96,-851.85C238.96,-814.83 238.96,-727.18 238.96,-682.39"/>
<polygon fill="black" stroke="black" points="242.46,-682.23 238.96,-672.23 235.46,-682.23 242.46,-682.23"/>
</g>
</g>
</svg>
