<?xml version="1.0" encoding="UTF-8" standalone="no"?>
<!DOCTYPE svg PUBLIC "-//W3C//DTD SVG 1.1//EN"
 "http://www.w3.org/Graphics/SVG/1.1/DTD/svg11.dtd">
<!-- Generated by graphviz version 2.47.1 (20210418.0311)
 -->
<!-- Pages: 1 -->
<svg width="2029pt" height="880pt"
 viewBox="0.00 0.00 2028.74 880.00" xmlns="http://www.w3.org/2000/svg" xmlns:xlink="http://www.w3.org/1999/xlink">
<g id="graph0" class="graph" transform="scale(1 1) rotate(0) translate(4 876)">
<polygon fill="white" stroke="transparent" points="-4,4 -4,-876 2024.74,-876 2024.74,4 -4,4"/>
<!-- elfutils -->
<g id="node1" class="node">
<title>elfutils</title>
<g id="a_node1"><a xlink:href="https://github.com/conda-forge/elfutils-feedstock/pull/20" xlink:title="elfutils ❎">
<ellipse fill="#31688e" stroke="black" cx="1375.74" cy="-566" rx="56" ry="18"/>
<text text-anchor="middle" x="1375.74" y="-562.3" font-family="Times-Roman" font-size="14.00" fill="white">elfutils ❎</text>
</a>
</g>
</g>
<!-- heaptrack -->
<g id="node2" class="node">
<title>heaptrack</title>
<g id="a_node2"><a xlink:href="https://github.com/conda-forge/heaptrack-feedstock" xlink:title="heaptrack">
<ellipse fill="#fde725" stroke="black" cx="1380.74" cy="-494" rx="58" ry="18"/>
<text text-anchor="middle" x="1380.74" y="-490.3" font-family="Times-Roman" font-size="14.00">heaptrack</text>
</a>
</g>
</g>
<!-- elfutils&#45;&gt;heaptrack -->
<g id="edge1" class="edge">
<title>elfutils&#45;&gt;heaptrack</title>
<path fill="none" stroke="black" d="M1376.98,-547.7C1377.53,-539.98 1378.19,-530.71 1378.81,-522.11"/>
<polygon fill="black" stroke="black" points="1382.3,-522.33 1379.52,-512.1 1375.32,-521.83 1382.3,-522.33"/>
</g>
<!-- googleapis&#45;common&#45;protos -->
<g id="node3" class="node">
<title>googleapis&#45;common&#45;protos</title>
<g id="a_node3"><a xlink:href="https://github.com/conda-forge/googleapis-common-protos-feedstock/pull/26" xlink:title="googleapis common protos ❎">
<ellipse fill="#31688e" stroke="black" cx="1159.74" cy="-854" rx="152.17" ry="18"/>
<text text-anchor="middle" x="1159.74" y="-850.3" font-family="Times-Roman" font-size="14.00" fill="white">googleapis common protos ❎</text>
</a>
</g>
</g>
<!-- root_numpy -->
<g id="node4" class="node">
<title>root_numpy</title>
<g id="a_node4"><a xlink:href="https://github.com/conda-forge/root_numpy-feedstock/pull/21" xlink:title="root_numpy ❎">
<ellipse fill="#31688e" stroke="black" cx="1159.74" cy="-782" rx="81.49" ry="18"/>
<text text-anchor="middle" x="1159.74" y="-778.3" font-family="Times-Roman" font-size="14.00" fill="white">root_numpy ❎</text>
</a>
</g>
</g>
<!-- googleapis&#45;common&#45;protos&#45;&gt;root_numpy -->
<!-- r&#45;grf -->
<g id="node26" class="node">
<title>r&#45;grf</title>
<g id="a_node26"><a xlink:href="https://github.com/conda-forge/r-grf-feedstock/pull/10" xlink:title="r grf ❎">
<ellipse fill="#31688e" stroke="black" cx="1159.74" cy="-710" rx="45" ry="18"/>
<text text-anchor="middle" x="1159.74" y="-706.3" font-family="Times-Roman" font-size="14.00" fill="white">r grf ❎</text>
</a>
</g>
</g>
<!-- root_numpy&#45;&gt;r&#45;grf -->
<!-- hyperspy -->
<g id="node5" class="node">
<title>hyperspy</title>
<g id="a_node5"><a xlink:href="https://github.com/conda-forge/hyperspy-feedstock" xlink:title="hyperspy">
<ellipse fill="#fde725" stroke="black" cx="666.74" cy="-350" rx="54" ry="18"/>
<text text-anchor="middle" x="666.74" y="-346.3" font-family="Times-Roman" font-size="14.00">hyperspy</text>
</a>
</g>
</g>
<!-- libunwind -->
<g id="node6" class="node">
<title>libunwind</title>
<g id="a_node6"><a xlink:href="https://github.com/conda-forge/libunwind-feedstock/pull/14" xlink:title="libunwind ❎">
<ellipse fill="#31688e" stroke="black" cx="1519.74" cy="-566" rx="69.59" ry="18"/>
<text text-anchor="middle" x="1519.74" y="-562.3" font-family="Times-Roman" font-size="14.00" fill="white">libunwind ❎</text>
</a>
</g>
</g>
<!-- libunwind&#45;&gt;heaptrack -->
<g id="edge3" class="edge">
<title>libunwind&#45;&gt;heaptrack</title>
<path fill="none" stroke="black" d="M1489.24,-549.64C1468.54,-539.21 1441.02,-525.36 1418.88,-514.2"/>
<polygon fill="black" stroke="black" points="1420.26,-510.98 1409.75,-509.61 1417.11,-517.23 1420.26,-510.98"/>
</g>
<!-- gperftools -->
<g id="node7" class="node">
<title>gperftools</title>
<g id="a_node7"><a xlink:href="https://github.com/conda-forge/gperftools-feedstock" xlink:title="gperftools">
<ellipse fill="#fde725" stroke="black" cx="1516.74" cy="-494" rx="58" ry="18"/>
<text text-anchor="middle" x="1516.74" y="-490.3" font-family="Times-Roman" font-size="14.00">gperftools</text>
</a>
</g>
</g>
<!-- libunwind&#45;&gt;gperftools -->
<g id="edge4" class="edge">
<title>libunwind&#45;&gt;gperftools</title>
<path fill="none" stroke="black" d="M1519,-547.7C1518.67,-539.98 1518.28,-530.71 1517.91,-522.11"/>
<polygon fill="black" stroke="black" points="1521.4,-521.95 1517.48,-512.1 1514.41,-522.25 1521.4,-521.95"/>
</g>
<!-- py&#45;spy -->
<g id="node8" class="node">
<title>py&#45;spy</title>
<g id="a_node8"><a xlink:href="https://github.com/conda-forge/py-spy-feedstock" xlink:title="py spy">
<ellipse fill="#fde725" stroke="black" cx="1627.74" cy="-422" rx="41" ry="18"/>
<text text-anchor="middle" x="1627.74" y="-418.3" font-family="Times-Roman" font-size="14.00">py spy</text>
</a>
</g>
</g>
<!-- libunwind&#45;&gt;py&#45;spy -->
<g id="edge5" class="edge">
<title>libunwind&#45;&gt;py&#45;spy</title>
<path fill="none" stroke="black" d="M1543.77,-548.91C1556.79,-539.32 1572.47,-526.26 1583.74,-512 1598.79,-492.98 1610.59,-467.98 1618.16,-449.32"/>
<polygon fill="black" stroke="black" points="1621.45,-450.53 1621.83,-439.94 1614.93,-447.98 1621.45,-450.53"/>
</g>
<!-- sentencepiece -->
<g id="node9" class="node">
<title>sentencepiece</title>
<g id="a_node9"><a xlink:href="https://github.com/conda-forge/sentencepiece-feedstock" xlink:title="sentencepiece">
<ellipse fill="#fde725" stroke="black" cx="1490.74" cy="-422" rx="78" ry="18"/>
<text text-anchor="middle" x="1490.74" y="-418.3" font-family="Times-Roman" font-size="14.00">sentencepiece</text>
</a>
</g>
</g>
<!-- gperftools&#45;&gt;sentencepiece -->
<g id="edge6" class="edge">
<title>gperftools&#45;&gt;sentencepiece</title>
<path fill="none" stroke="black" d="M1510.45,-476.05C1507.52,-468.18 1503.97,-458.62 1500.7,-449.79"/>
<polygon fill="black" stroke="black" points="1503.92,-448.43 1497.16,-440.28 1497.36,-450.87 1503.92,-448.43"/>
</g>
<!-- allennlp -->
<g id="node24" class="node">
<title>allennlp</title>
<g id="a_node24"><a xlink:href="https://github.com/conda-forge/allennlp-feedstock" xlink:title="allennlp">
<ellipse fill="#fde725" stroke="black" cx="1793.74" cy="-350" rx="47.5" ry="18"/>
<text text-anchor="middle" x="1793.74" y="-346.3" font-family="Times-Roman" font-size="14.00">allennlp</text>
</a>
</g>
</g>
<!-- sentencepiece&#45;&gt;allennlp -->
<g id="edge24" class="edge">
<title>sentencepiece&#45;&gt;allennlp</title>
<path fill="none" stroke="black" d="M1543.87,-408.73C1600.43,-395.66 1689.22,-375.15 1744.33,-362.42"/>
<polygon fill="black" stroke="black" points="1745.25,-365.79 1754.21,-360.13 1743.68,-358.97 1745.25,-365.79"/>
</g>
<!-- portaudio -->
<g id="node10" class="node">
<title>portaudio</title>
<g id="a_node10"><a xlink:href="https://github.com/conda-forge/portaudio-feedstock/pull/15" xlink:title="portaudio ✓">
<ellipse fill="#31688e" stroke="black" cx="301.74" cy="-422" rx="66.5" ry="18"/>
<text text-anchor="middle" x="301.74" y="-418.3" font-family="Times-Roman" font-size="14.00" fill="white">portaudio ✓</text>
</a>
</g>
</g>
<!-- gnuradio -->
<g id="node11" class="node">
<title>gnuradio</title>
<g id="a_node11"><a xlink:href="https://github.com/conda-forge/gnuradio-feedstock" xlink:title="gnuradio">
<ellipse fill="#fde725" stroke="black" cx="349.74" cy="-350" rx="52" ry="18"/>
<text text-anchor="middle" x="349.74" y="-346.3" font-family="Times-Roman" font-size="14.00">gnuradio</text>
</a>
</g>
</g>
<!-- portaudio&#45;&gt;gnuradio -->
<g id="edge7" class="edge">
<title>portaudio&#45;&gt;gnuradio</title>
<path fill="none" stroke="black" d="M313.36,-404.05C319.08,-395.71 326.09,-385.49 332.43,-376.25"/>
<polygon fill="black" stroke="black" points="335.46,-378.02 338.23,-367.79 329.69,-374.06 335.46,-378.02"/>
</g>
<!-- pyqt -->
<g id="node12" class="node">
<title>pyqt</title>
<g id="a_node12"><a xlink:href="https://github.com/conda-forge/pyqt-feedstock" xlink:title="pyqt">
<ellipse fill="#fde725" stroke="black" cx="605.74" cy="-422" rx="31.4" ry="18"/>
<text text-anchor="middle" x="605.74" y="-418.3" font-family="Times-Roman" font-size="14.00">pyqt</text>
</a>
</g>
</g>
<!-- pyqt&#45;&gt;hyperspy -->
<g id="edge8" class="edge">
<title>pyqt&#45;&gt;hyperspy</title>
<path fill="none" stroke="black" d="M619.28,-405.46C627.04,-396.57 636.94,-385.21 645.69,-375.16"/>
<polygon fill="black" stroke="black" points="648.46,-377.31 652.39,-367.47 643.19,-372.71 648.46,-377.31"/>
</g>
<!-- pyqt&#45;&gt;gnuradio -->
<g id="edge9" class="edge">
<title>pyqt&#45;&gt;gnuradio</title>
<path fill="none" stroke="black" d="M577.86,-413.38C535.01,-401.66 452.35,-379.06 399.18,-364.52"/>
<polygon fill="black" stroke="black" points="399.86,-361.07 389.29,-361.81 398.01,-367.83 399.86,-361.07"/>
</g>
<!-- pythonocc&#45;core -->
<g id="node13" class="node">
<title>pythonocc&#45;core</title>
<g id="a_node13"><a xlink:href="https://github.com/conda-forge/pythonocc-core-feedstock" xlink:title="pythonocc core">
<ellipse fill="#fde725" stroke="black" cx="637.74" cy="-278" rx="82" ry="18"/>
<text text-anchor="middle" x="637.74" y="-274.3" font-family="Times-Roman" font-size="14.00">pythonocc core</text>
</a>
</g>
</g>
<!-- pyqt&#45;&gt;pythonocc&#45;core -->
<g id="edge10" class="edge">
<title>pyqt&#45;&gt;pythonocc&#45;core</title>
<path fill="none" stroke="black" d="M602.34,-403.87C599.41,-385.65 596.66,-356.17 603.74,-332 606.62,-322.19 611.93,-312.47 617.52,-304.09"/>
<polygon fill="black" stroke="black" points="620.4,-306.07 623.34,-295.9 614.7,-302.02 620.4,-306.07"/>
</g>
<!-- qt -->
<g id="node14" class="node">
<title>qt</title>
<g id="a_node14"><a xlink:href="https://github.com/conda-forge/qt-feedstock/pull/184" xlink:title="qt ❎">
<ellipse fill="#31688e" stroke="black" cx="605.74" cy="-494" rx="34.5" ry="18"/>
<text text-anchor="middle" x="605.74" y="-490.3" font-family="Times-Roman" font-size="14.00" fill="white">qt ❎</text>
</a>
</g>
</g>
<!-- qt&#45;&gt;gnuradio -->
<g id="edge11" class="edge">
<title>qt&#45;&gt;gnuradio</title>
<path fill="none" stroke="black" d="M574.9,-485.86C543.13,-477.7 492.88,-462.49 453.74,-440 449.39,-437.5 405.41,-399.47 376.05,-373.94"/>
<polygon fill="black" stroke="black" points="378.05,-371.03 368.21,-367.11 373.45,-376.31 378.05,-371.03"/>
</g>
<!-- qt&#45;&gt;pyqt -->
<g id="edge12" class="edge">
<title>qt&#45;&gt;pyqt</title>
<path fill="none" stroke="black" d="M605.74,-475.7C605.74,-467.98 605.74,-458.71 605.74,-450.11"/>
<polygon fill="black" stroke="black" points="609.24,-450.1 605.74,-440.1 602.24,-450.1 609.24,-450.1"/>
</g>
<!-- qwt -->
<g id="node15" class="node">
<title>qwt</title>
<g id="a_node15"><a xlink:href="https://github.com/conda-forge/qwt-feedstock" xlink:title="qwt">
<ellipse fill="#fde725" stroke="black" cx="490.74" cy="-422" rx="28" ry="18"/>
<text text-anchor="middle" x="490.74" y="-418.3" font-family="Times-Roman" font-size="14.00">qwt</text>
</a>
</g>
</g>
<!-- qt&#45;&gt;qwt -->
<g id="edge13" class="edge">
<title>qt&#45;&gt;qwt</title>
<path fill="none" stroke="black" d="M584.11,-479.83C565.72,-468.64 539.17,-452.48 519.08,-440.25"/>
<polygon fill="black" stroke="black" points="520.72,-437.15 510.36,-434.94 517.08,-443.13 520.72,-437.15"/>
</g>
<!-- pivy -->
<g id="node16" class="node">
<title>pivy</title>
<g id="a_node16"><a xlink:href="https://github.com/conda-forge/pivy-feedstock" xlink:title="pivy">
<ellipse fill="#fde725" stroke="black" cx="946.74" cy="-278" rx="30" ry="18"/>
<text text-anchor="middle" x="946.74" y="-274.3" font-family="Times-Roman" font-size="14.00">pivy</text>
</a>
</g>
</g>
<!-- qt&#45;&gt;pivy -->
<g id="edge14" class="edge">
<title>qt&#45;&gt;pivy</title>
<path fill="none" stroke="black" d="M639.05,-488.75C686.94,-481.98 777.57,-466.71 850.74,-440 914.99,-416.55 951.47,-426.59 986.74,-368 999.76,-346.38 984.09,-319.79 968.7,-301.33"/>
<polygon fill="black" stroke="black" points="971.23,-298.9 961.99,-293.71 965.98,-303.53 971.23,-298.9"/>
</g>
<!-- pyside2 -->
<g id="node17" class="node">
<title>pyside2</title>
<g id="a_node17"><a xlink:href="https://github.com/conda-forge/pyside2-feedstock" xlink:title="pyside2">
<ellipse fill="#fde725" stroke="black" cx="748.74" cy="-422" rx="47" ry="18"/>
<text text-anchor="middle" x="748.74" y="-418.3" font-family="Times-Roman" font-size="14.00">pyside2</text>
</a>
</g>
</g>
<!-- qt&#45;&gt;pyside2 -->
<g id="edge15" class="edge">
<title>qt&#45;&gt;pyside2</title>
<path fill="none" stroke="black" d="M630,-481.13C652.43,-470.15 686.08,-453.68 711.84,-441.07"/>
<polygon fill="black" stroke="black" points="713.49,-444.15 720.93,-436.61 710.41,-437.87 713.49,-444.15"/>
</g>
<!-- soqt -->
<g id="node18" class="node">
<title>soqt</title>
<g id="a_node18"><a xlink:href="https://github.com/conda-forge/soqt-feedstock" xlink:title="soqt">
<ellipse fill="#fde725" stroke="black" cx="946.74" cy="-350" rx="30.59" ry="18"/>
<text text-anchor="middle" x="946.74" y="-346.3" font-family="Times-Roman" font-size="14.00">soqt</text>
</a>
</g>
</g>
<!-- qt&#45;&gt;soqt -->
<g id="edge16" class="edge">
<title>qt&#45;&gt;soqt</title>
<path fill="none" stroke="black" d="M638.1,-487.48C678.31,-479.92 748.51,-464.45 804.74,-440 847.84,-421.26 893.08,-390.74 920.61,-370.76"/>
<polygon fill="black" stroke="black" points="922.91,-373.42 928.9,-364.68 918.76,-367.77 922.91,-373.42"/>
</g>
<!-- geant4 -->
<g id="node19" class="node">
<title>geant4</title>
<g id="a_node19"><a xlink:href="https://github.com/conda-forge/geant4-feedstock" xlink:title="geant4">
<ellipse fill="#fde725" stroke="black" cx="493.74" cy="-278" rx="43.59" ry="18"/>
<text text-anchor="middle" x="493.74" y="-274.3" font-family="Times-Roman" font-size="14.00">geant4</text>
</a>
</g>
</g>
<!-- qt&#45;&gt;geant4 -->
<g id="edge17" class="edge">
<title>qt&#45;&gt;geant4</title>
<path fill="none" stroke="black" d="M592.13,-476.96C583.88,-466.78 573.48,-453.1 565.74,-440 539.19,-395.04 516.06,-338.53 503.58,-305.81"/>
<polygon fill="black" stroke="black" points="506.71,-304.2 499.91,-296.07 500.16,-306.66 506.71,-304.2"/>
</g>
<!-- qwt&#45;&gt;gnuradio -->
<g id="edge18" class="edge">
<title>qwt&#45;&gt;gnuradio</title>
<path fill="none" stroke="black" d="M469.33,-410.37C447.65,-399.6 413.67,-382.74 387.46,-369.73"/>
<polygon fill="black" stroke="black" points="388.71,-366.44 378.2,-365.13 385.6,-372.71 388.71,-366.44"/>
</g>
<!-- pyside2&#45;&gt;pivy -->
<g id="edge19" class="edge">
<title>pyside2&#45;&gt;pivy</title>
<path fill="none" stroke="black" d="M747.77,-403.93C747.61,-384.08 750.48,-351.56 768.74,-332 804.27,-293.95 865.78,-282.82 906.38,-279.78"/>
<polygon fill="black" stroke="black" points="906.7,-283.27 916.47,-279.16 906.27,-276.28 906.7,-283.27"/>
</g>
<!-- cctbx&#45;base -->
<g id="node20" class="node">
<title>cctbx&#45;base</title>
<g id="a_node20"><a xlink:href="https://github.com/conda-forge/cctbx-base-feedstock" xlink:title="cctbx base">
<ellipse fill="#fde725" stroke="black" cx="837.74" cy="-350" rx="60.5" ry="18"/>
<text text-anchor="middle" x="837.74" y="-346.3" font-family="Times-Roman" font-size="14.00">cctbx base</text>
</a>
</g>
</g>
<!-- pyside2&#45;&gt;cctbx&#45;base -->
<g id="edge20" class="edge">
<title>pyside2&#45;&gt;cctbx&#45;base</title>
<path fill="none" stroke="black" d="M768.5,-405.46C780.54,-395.99 796.13,-383.73 809.47,-373.24"/>
<polygon fill="black" stroke="black" points="811.73,-375.91 817.43,-366.98 807.41,-370.41 811.73,-375.91"/>
</g>
<!-- soqt&#45;&gt;pivy -->
<g id="edge21" class="edge">
<title>soqt&#45;&gt;pivy</title>
<path fill="none" stroke="black" d="M946.74,-331.7C946.74,-323.98 946.74,-314.71 946.74,-306.11"/>
<polygon fill="black" stroke="black" points="950.24,-306.1 946.74,-296.1 943.24,-306.1 950.24,-306.1"/>
</g>
<!-- r&#45;sf -->
<g id="node21" class="node">
<title>r&#45;sf</title>
<g id="a_node21"><a xlink:href="https://github.com/conda-forge/r-sf-feedstock/pull/49" xlink:title="r sf ❎">
<ellipse fill="#31688e" stroke="black" cx="1159.74" cy="-90" rx="40.5" ry="18"/>
<text text-anchor="middle" x="1159.74" y="-86.3" font-family="Times-Roman" font-size="14.00" fill="white">r sf ❎</text>
</a>
</g>
</g>
<!-- r&#45;spdep -->
<g id="node22" class="node">
<title>r&#45;spdep</title>
<g id="a_node22"><a xlink:href="https://github.com/conda-forge/r-spdep-feedstock" xlink:title="r spdep">
<ellipse fill="#fde725" stroke="black" cx="1159.74" cy="-18" rx="46.29" ry="18"/>
<text text-anchor="middle" x="1159.74" y="-14.3" font-family="Times-Roman" font-size="14.00">r spdep</text>
</a>
</g>
</g>
<!-- r&#45;sf&#45;&gt;r&#45;spdep -->
<g id="edge22" class="edge">
<title>r&#45;sf&#45;&gt;r&#45;spdep</title>
<path fill="none" stroke="black" d="M1159.74,-71.7C1159.74,-63.98 1159.74,-54.71 1159.74,-46.11"/>
<polygon fill="black" stroke="black" points="1163.24,-46.1 1159.74,-36.1 1156.24,-46.1 1163.24,-46.1"/>
</g>
<!-- torchvision -->
<g id="node23" class="node">
<title>torchvision</title>
<g id="a_node23"><a xlink:href="https://github.com/conda-forge/torchvision-feedstock" xlink:title="torchvision">
<ellipse fill="#fde725" stroke="black" cx="1748.74" cy="-422" rx="61.99" ry="18"/>
<text text-anchor="middle" x="1748.74" y="-418.3" font-family="Times-Roman" font-size="14.00">torchvision</text>
</a>
</g>
</g>
<!-- torchvision&#45;&gt;allennlp -->
<g id="edge23" class="edge">
<title>torchvision&#45;&gt;allennlp</title>
<path fill="none" stroke="black" d="M1759.64,-404.05C1765,-395.71 1771.57,-385.49 1777.51,-376.25"/>
<polygon fill="black" stroke="black" points="1780.49,-378.09 1782.95,-367.79 1774.6,-374.31 1780.49,-378.09"/>
</g>
<!-- log4cpp -->
<g id="node25" class="node">
<title>log4cpp</title>
<g id="a_node25"><a xlink:href="https://github.com/conda-forge/log4cpp-feedstock/pull/6" xlink:title="log4cpp ❎">
<ellipse fill="#31688e" stroke="black" cx="61.74" cy="-494" rx="61.99" ry="18"/>
<text text-anchor="middle" x="61.74" y="-490.3" font-family="Times-Roman" font-size="14.00" fill="white">log4cpp ❎</text>
</a>
</g>
</g>
<!-- log4cpp&#45;&gt;gnuradio -->
<g id="edge25" class="edge">
<title>log4cpp&#45;&gt;gnuradio</title>
<path fill="none" stroke="black" d="M71.55,-476.13C84.22,-455.86 108.21,-422.29 137.74,-404 183.83,-375.46 244.5,-362.27 289.13,-356.18"/>
<polygon fill="black" stroke="black" points="289.78,-359.63 299.25,-354.89 288.89,-352.69 289.78,-359.63"/>
</g>
<!-- grpcio&#45;gcp -->
<g id="node28" class="node">
<title>grpcio&#45;gcp</title>
<g id="a_node28"><a xlink:href="https://github.com/conda-forge/grpcio-gcp-feedstock/pull/9" xlink:title="grpcio gcp ❎">
<ellipse fill="#31688e" stroke="black" cx="1159.74" cy="-638" rx="73.5" ry="18"/>
<text text-anchor="middle" x="1159.74" y="-634.3" font-family="Times-Roman" font-size="14.00" fill="white">grpcio gcp ❎</text>
</a>
</g>
</g>
<!-- r&#45;grf&#45;&gt;grpcio&#45;gcp -->
<!-- pytorch&#45;cpu -->
<g id="node27" class="node">
<title>pytorch&#45;cpu</title>
<g id="a_node27"><a xlink:href="https://github.com/conda-forge/pytorch-cpu-feedstock" xlink:title="pytorch cpu">
<ellipse fill="#fde725" stroke="black" cx="1838.74" cy="-494" rx="65.79" ry="18"/>
<text text-anchor="middle" x="1838.74" y="-490.3" font-family="Times-Roman" font-size="14.00">pytorch cpu</text>
</a>
</g>
</g>
<!-- pytorch&#45;cpu&#45;&gt;torchvision -->
<g id="edge27" class="edge">
<title>pytorch&#45;cpu&#45;&gt;torchvision</title>
<path fill="none" stroke="black" d="M1817.87,-476.76C1805.94,-467.49 1790.81,-455.71 1777.74,-445.55"/>
<polygon fill="black" stroke="black" points="1779.55,-442.52 1769.51,-439.15 1775.25,-448.05 1779.55,-442.52"/>
</g>
<!-- pytorch&#45;cpu&#45;&gt;allennlp -->
<g id="edge28" class="edge">
<title>pytorch&#45;cpu&#45;&gt;allennlp</title>
<path fill="none" stroke="black" d="M1836.38,-475.93C1833.57,-457.76 1828.17,-428.34 1819.74,-404 1816.58,-394.85 1812.21,-385.24 1807.96,-376.75"/>
<polygon fill="black" stroke="black" points="1810.99,-374.99 1803.27,-367.73 1804.77,-378.22 1810.99,-374.99"/>
</g>
<!-- ibm_db -->
<g id="node29" class="node">
<title>ibm_db</title>
<g id="a_node29"><a xlink:href="https://github.com/conda-forge/ibm_db-feedstock/pull/27" xlink:title="ibm_db ❎">
<ellipse fill="#31688e" stroke="black" cx="1159.74" cy="-566" rx="59.29" ry="18"/>
<text text-anchor="middle" x="1159.74" y="-562.3" font-family="Times-Roman" font-size="14.00" fill="white">ibm_db ❎</text>
</a>
</g>
</g>
<!-- grpcio&#45;gcp&#45;&gt;ibm_db -->
<!-- nvcc -->
<g id="node30" class="node">
<title>nvcc</title>
<g id="a_node30"><a xlink:href="https://github.com/conda-forge/nvcc-feedstock/pull/62" xlink:title="nvcc ✓">
<ellipse fill="#31688e" stroke="black" cx="1159.74" cy="-494" rx="42.49" ry="18"/>
<text text-anchor="middle" x="1159.74" y="-490.3" font-family="Times-Roman" font-size="14.00" fill="white">nvcc ✓</text>
</a>
</g>
</g>
<!-- ibm_db&#45;&gt;nvcc -->
<!-- proj -->
<g id="node36" class="node">
<title>proj</title>
<g id="a_node36"><a xlink:href="https://github.com/conda-forge/proj-feedstock" xlink:title="proj">
<ellipse fill="#35b779" stroke="black" cx="1159.74" cy="-422" rx="28.7" ry="18"/>
<text text-anchor="middle" x="1159.74" y="-418.3" font-family="Times-Roman" font-size="14.00">proj</text>
</a>
</g>
</g>
<!-- nvcc&#45;&gt;proj -->
<!-- cudatoolkit -->
<g id="node31" class="node">
<title>cudatoolkit</title>
<g id="a_node31"><a xlink:href="https://github.com/conda-forge/cudatoolkit-feedstock/pull/4" xlink:title="cudatoolkit ❎">
<ellipse fill="#31688e" stroke="black" cx="1731.74" cy="-638" rx="76.09" ry="18"/>
<text text-anchor="middle" x="1731.74" y="-634.3" font-family="Times-Roman" font-size="14.00" fill="white">cudatoolkit ❎</text>
</a>
</g>
</g>
<!-- cudnn -->
<g id="node32" class="node">
<title>cudnn</title>
<g id="a_node32"><a xlink:href="https://github.com/conda-forge/cudnn-feedstock" xlink:title="cudnn">
<ellipse fill="#fde725" stroke="black" cx="1676.74" cy="-566" rx="39" ry="18"/>
<text text-anchor="middle" x="1676.74" y="-562.3" font-family="Times-Roman" font-size="14.00">cudnn</text>
</a>
</g>
</g>
<!-- cudatoolkit&#45;&gt;cudnn -->
<g id="edge32" class="edge">
<title>cudatoolkit&#45;&gt;cudnn</title>
<path fill="none" stroke="black" d="M1718.43,-620.05C1711.64,-611.42 1703.27,-600.76 1695.81,-591.27"/>
<polygon fill="black" stroke="black" points="1698.49,-589.01 1689.56,-583.31 1692.98,-593.33 1698.49,-589.01"/>
</g>
<!-- cutensor -->
<g id="node33" class="node">
<title>cutensor</title>
<g id="a_node33"><a xlink:href="https://github.com/conda-forge/cutensor-feedstock" xlink:title="cutensor">
<ellipse fill="#fde725" stroke="black" cx="1785.74" cy="-566" rx="51.5" ry="18"/>
<text text-anchor="middle" x="1785.74" y="-562.3" font-family="Times-Roman" font-size="14.00">cutensor</text>
</a>
</g>
</g>
<!-- cudatoolkit&#45;&gt;cutensor -->
<g id="edge33" class="edge">
<title>cudatoolkit&#45;&gt;cutensor</title>
<path fill="none" stroke="black" d="M1744.82,-620.05C1751.32,-611.63 1759.3,-601.28 1766.48,-591.97"/>
<polygon fill="black" stroke="black" points="1769.46,-593.84 1772.79,-583.79 1763.91,-589.57 1769.46,-593.84"/>
</g>
<!-- cudnn&#45;&gt;torchvision -->
<g id="edge34" class="edge">
<title>cudnn&#45;&gt;torchvision</title>
<path fill="none" stroke="black" d="M1685.29,-548.15C1697.67,-523.73 1720.72,-478.26 1735.37,-449.38"/>
<polygon fill="black" stroke="black" points="1738.59,-450.77 1739.99,-440.27 1732.34,-447.6 1738.59,-450.77"/>
</g>
<!-- cudnn&#45;&gt;pytorch&#45;cpu -->
<g id="edge35" class="edge">
<title>cudnn&#45;&gt;pytorch&#45;cpu</title>
<path fill="none" stroke="black" d="M1704.23,-553.13C1729.29,-542.3 1766.72,-526.12 1795.74,-513.58"/>
<polygon fill="black" stroke="black" points="1797.44,-516.66 1805.23,-509.48 1794.66,-510.24 1797.44,-516.66"/>
</g>
<!-- libv8 -->
<g id="node34" class="node">
<title>libv8</title>
<g id="a_node34"><a xlink:href="https://github.com/conda-forge/libv8-feedstock/pull/66" xlink:title="libv8 ❎">
<ellipse fill="#31688e" stroke="black" cx="499.74" cy="-90" rx="47" ry="18"/>
<text text-anchor="middle" x="499.74" y="-86.3" font-family="Times-Roman" font-size="14.00" fill="white">libv8 ❎</text>
</a>
</g>
</g>
<!-- r&#45;v8 -->
<g id="node35" class="node">
<title>r&#45;v8</title>
<g id="a_node35"><a xlink:href="https://github.com/conda-forge/r-v8-feedstock" xlink:title="r v8">
<ellipse fill="#fde725" stroke="black" cx="499.74" cy="-18" rx="28.7" ry="18"/>
<text text-anchor="middle" x="499.74" y="-14.3" font-family="Times-Roman" font-size="14.00">r v8</text>
</a>
</g>
</g>
<!-- libv8&#45;&gt;r&#45;v8 -->
<g id="edge36" class="edge">
<title>libv8&#45;&gt;r&#45;v8</title>
<path fill="none" stroke="black" d="M499.74,-71.7C499.74,-63.98 499.74,-54.71 499.74,-46.11"/>
<polygon fill="black" stroke="black" points="503.24,-46.1 499.74,-36.1 496.24,-46.1 503.24,-46.1"/>
</g>
<!-- jaeger -->
<g id="node37" class="node">
<title>jaeger</title>
<g id="a_node37"><a xlink:href="https://github.com/conda-forge/jaeger-feedstock/pull/12" xlink:title="jaeger ❎">
<ellipse fill="#31688e" stroke="black" cx="1159.74" cy="-350" rx="54.69" ry="18"/>
<text text-anchor="middle" x="1159.74" y="-346.3" font-family="Times-Roman" font-size="14.00" fill="white">jaeger ❎</text>
</a>
</g>
</g>
<!-- proj&#45;&gt;jaeger -->
<!-- ompl -->
<g id="node40" class="node">
<title>ompl</title>
<g id="a_node40"><a xlink:href="https://github.com/conda-forge/ompl-feedstock/pull/11" xlink:title="ompl ✓">
<ellipse fill="#31688e" stroke="black" cx="1159.74" cy="-278" rx="45" ry="18"/>
<text text-anchor="middle" x="1159.74" y="-274.3" font-family="Times-Roman" font-size="14.00" fill="white">ompl ✓</text>
</a>
</g>
</g>
<!-- jaeger&#45;&gt;ompl -->
<!-- nccl -->
<g id="node38" class="node">
<title>nccl</title>
<g id="a_node38"><a xlink:href="https://github.com/conda-forge/nccl-feedstock/pull/35" xlink:title="nccl ✓">
<ellipse fill="#31688e" stroke="black" cx="1894.74" cy="-566" rx="39.79" ry="18"/>
<text text-anchor="middle" x="1894.74" y="-562.3" font-family="Times-Roman" font-size="14.00" fill="white">nccl ✓</text>
</a>
</g>
</g>
<!-- nccl&#45;&gt;pytorch&#45;cpu -->
<g id="edge39" class="edge">
<title>nccl&#45;&gt;pytorch&#45;cpu</title>
<path fill="none" stroke="black" d="M1881.76,-548.76C1874.86,-540.14 1866.24,-529.36 1858.53,-519.73"/>
<polygon fill="black" stroke="black" points="1861.03,-517.26 1852.05,-511.63 1855.57,-521.63 1861.03,-517.26"/>
</g>
<!-- volk -->
<g id="node39" class="node">
<title>volk</title>
<g id="a_node39"><a xlink:href="https://github.com/conda-forge/volk-feedstock/pull/19" xlink:title="volk ❎">
<ellipse fill="#31688e" stroke="black" cx="134.74" cy="-566" rx="44.39" ry="18"/>
<text text-anchor="middle" x="134.74" y="-562.3" font-family="Times-Roman" font-size="14.00" fill="white">volk ❎</text>
</a>
</g>
</g>
<!-- volk&#45;&gt;gnuradio -->
<g id="edge40" class="edge">
<title>volk&#45;&gt;gnuradio</title>
<path fill="none" stroke="black" d="M136.11,-547.84C139.62,-515.26 151.79,-444.13 192.74,-404 219,-378.27 258.16,-365.02 290.8,-358.2"/>
<polygon fill="black" stroke="black" points="291.55,-361.63 300.7,-356.29 290.22,-354.75 291.55,-361.63"/>
</g>
<!-- dm&#45;tree -->
<g id="node42" class="node">
<title>dm&#45;tree</title>
<g id="a_node42"><a xlink:href="https://github.com/conda-forge/dm-tree-feedstock/pull/4" xlink:title="dm tree ❎">
<ellipse fill="#31688e" stroke="black" cx="1159.74" cy="-206" rx="61.99" ry="18"/>
<text text-anchor="middle" x="1159.74" y="-202.3" font-family="Times-Roman" font-size="14.00" fill="white">dm tree ❎</text>
</a>
</g>
</g>
<!-- ompl&#45;&gt;dm&#45;tree -->
<!-- uhd -->
<g id="node41" class="node">
<title>uhd</title>
<g id="a_node41"><a xlink:href="https://github.com/conda-forge/uhd-feedstock/pull/23" xlink:title="uhd ❎">
<ellipse fill="#31688e" stroke="black" cx="206.74" cy="-638" rx="42.49" ry="18"/>
<text text-anchor="middle" x="206.74" y="-634.3" font-family="Times-Roman" font-size="14.00" fill="white">uhd ❎</text>
</a>
</g>
</g>
<!-- uhd&#45;&gt;gnuradio -->
<g id="edge42" class="edge">
<title>uhd&#45;&gt;gnuradio</title>
<path fill="none" stroke="black" d="M202.72,-620.08C193.94,-578.72 177.48,-471.02 225.74,-404 241.75,-381.78 269.02,-368.8 293.91,-361.25"/>
<polygon fill="black" stroke="black" points="294.98,-364.59 303.67,-358.53 293.1,-357.85 294.98,-364.59"/>
</g>
<!-- onednn -->
<g id="node45" class="node">
<title>onednn</title>
<g id="a_node45"><a xlink:href="https://github.com/conda-forge/onednn-feedstock/pull/11" xlink:title="onednn ❎">
<ellipse fill="#31688e" stroke="black" cx="1159.74" cy="-134" rx="60" ry="18"/>
<text text-anchor="middle" x="1159.74" y="-130.3" font-family="Times-Roman" font-size="14.00" fill="white">onednn ❎</text>
</a>
</g>
</g>
<!-- dm&#45;tree&#45;&gt;onednn -->
<!-- codec2 -->
<g id="node43" class="node">
<title>codec2</title>
<g id="a_node43"><a xlink:href="https://github.com/conda-forge/codec2-feedstock/pull/3" xlink:title="codec2 ✓">
<ellipse fill="#31688e" stroke="black" cx="396.74" cy="-710" rx="54.69" ry="18"/>
<text text-anchor="middle" x="396.74" y="-706.3" font-family="Times-Roman" font-size="14.00" fill="white">codec2 ✓</text>
</a>
</g>
</g>
<!-- codec2&#45;&gt;gnuradio -->
<g id="edge44" class="edge">
<title>codec2&#45;&gt;gnuradio</title>
<path fill="none" stroke="black" d="M396.74,-691.95C396.74,-665.29 396.74,-612.11 396.74,-567 396.74,-567 396.74,-567 396.74,-493 396.74,-452.46 390.5,-442.14 376.74,-404 373.44,-394.82 368.89,-385.21 364.48,-376.72"/>
<polygon fill="black" stroke="black" points="367.44,-374.84 359.62,-367.7 361.28,-378.16 367.44,-374.84"/>
</g>
<!-- tokenizers -->
<g id="node44" class="node">
<title>tokenizers</title>
<g id="a_node44"><a xlink:href="https://github.com/conda-forge/tokenizers-feedstock/pull/18" xlink:title="tokenizers ❎">
<ellipse fill="#31688e" stroke="black" cx="1939.74" cy="-422" rx="73" ry="18"/>
<text text-anchor="middle" x="1939.74" y="-418.3" font-family="Times-Roman" font-size="14.00" fill="white">tokenizers ❎</text>
</a>
</g>
</g>
<!-- tokenizers&#45;&gt;allennlp -->
<g id="edge45" class="edge">
<title>tokenizers&#45;&gt;allennlp</title>
<path fill="none" stroke="black" d="M1907.7,-405.64C1885.18,-394.84 1854.95,-380.35 1831.29,-369"/>
<polygon fill="black" stroke="black" points="1832.78,-365.84 1822.25,-364.67 1829.76,-372.15 1832.78,-365.84"/>
</g>
<!-- magma -->
<g id="node46" class="node">
<title>magma</title>
<g id="a_node46"><a xlink:href="https://github.com/conda-forge/magma-feedstock/pull/9" xlink:title="magma ✓">
<ellipse fill="#31688e" stroke="black" cx="1962.74" cy="-638" rx="58" ry="18"/>
<text text-anchor="middle" x="1962.74" y="-634.3" font-family="Times-Roman" font-size="14.00" fill="white">magma ✓</text>
</a>
</g>
</g>
<!-- magma&#45;&gt;pytorch&#45;cpu -->
<g id="edge47" class="edge">
<title>magma&#45;&gt;pytorch&#45;cpu</title>
<path fill="none" stroke="black" d="M1963.29,-619.79C1963.03,-600.4 1959.86,-568.9 1943.74,-548 1930.84,-531.26 1911.2,-519.39 1892.39,-511.19"/>
<polygon fill="black" stroke="black" points="1893.54,-507.88 1882.96,-507.35 1890.9,-514.37 1893.54,-507.88"/>
</g>
</g>
</svg>
