<?xml version="1.0" encoding="UTF-8" standalone="no"?>
<!DOCTYPE svg PUBLIC "-//W3C//DTD SVG 1.1//EN"
 "http://www.w3.org/Graphics/SVG/1.1/DTD/svg11.dtd">
<!-- Generated by graphviz version 2.42.3 (20191010.1750)
 -->
<!-- Title: %3 Pages: 1 -->
<svg width="1641pt" height="1184pt"
 viewBox="0.00 0.00 1640.65 1184.00" xmlns="http://www.w3.org/2000/svg" xmlns:xlink="http://www.w3.org/1999/xlink">
<g id="graph0" class="graph" transform="scale(1 1) rotate(0) translate(4 1180)">
<title>%3</title>
<polygon fill="white" stroke="transparent" points="-4,4 -4,-1180 1636.65,-1180 1636.65,4 -4,4"/>
<!-- aiohttp -->
<g id="node1" class="node">
<title>aiohttp</title>
<g id="a_node1"><a xlink:href="https://github.com/conda-forge/aiohttp-feedstock" xlink:title="aiohttp">
<ellipse fill="#fde725" stroke="black" cx="523" cy="-250" rx="35.19" ry="18"/>
<text text-anchor="middle" x="523" y="-246.3" font-family="Times,serif" font-size="14.00">aiohttp</text>
</a>
</g>
</g>
<!-- astropy&#45;healpix -->
<g id="node2" class="node">
<title>astropy&#45;healpix</title>
<g id="a_node2"><a xlink:href="https://github.com/conda-forge/astropy-healpix-feedstock/pull/17" xlink:title="astropy healpix ✓">
<ellipse fill="#31688e" stroke="black" cx="1137" cy="-358" rx="75.5" ry="18"/>
<text text-anchor="middle" x="1137" y="-354.3" font-family="Times,serif" font-size="14.00" fill="white">astropy healpix ✓</text>
</a>
</g>
</g>
<!-- reproject -->
<g id="node3" class="node">
<title>reproject</title>
<g id="a_node3"><a xlink:href="https://github.com/conda-forge/reproject-feedstock" xlink:title="reproject">
<ellipse fill="#fde725" stroke="black" cx="1137" cy="-286" rx="42.49" ry="18"/>
<text text-anchor="middle" x="1137" y="-282.3" font-family="Times,serif" font-size="14.00">reproject</text>
</a>
</g>
</g>
<!-- astropy&#45;healpix&#45;&gt;reproject -->
<g id="edge1" class="edge">
<title>astropy&#45;healpix&#45;&gt;reproject</title>
<path fill="none" stroke="black" d="M1137,-339.7C1137,-331.98 1137,-322.71 1137,-314.11"/>
<polygon fill="black" stroke="black" points="1140.5,-314.1 1137,-304.1 1133.5,-314.1 1140.5,-314.1"/>
</g>
<!-- astroscrappy -->
<g id="node4" class="node">
<title>astroscrappy</title>
<g id="a_node4"><a xlink:href="https://github.com/conda-forge/astroscrappy-feedstock/pull/11" xlink:title="astroscrappy ❎">
<ellipse fill="#31688e" stroke="black" cx="1137" cy="-1158" rx="67" ry="18"/>
<text text-anchor="middle" x="1137" y="-1154.3" font-family="Times,serif" font-size="14.00" fill="white">astroscrappy ❎</text>
</a>
</g>
</g>
<!-- pypy2.7 -->
<g id="node5" class="node">
<title>pypy2.7</title>
<g id="a_node5"><a xlink:href="https://github.com/conda-forge/pypy2.7-feedstock/pull/3" xlink:title="pypy2 7 ❎">
<ellipse fill="#31688e" stroke="black" cx="1137" cy="-1086" rx="51.5" ry="18"/>
<text text-anchor="middle" x="1137" y="-1082.3" font-family="Times,serif" font-size="14.00" fill="white">pypy2 7 ❎</text>
</a>
</g>
</g>
<!-- astroscrappy&#45;&gt;pypy2.7 -->
<!-- freeglut -->
<g id="node37" class="node">
<title>freeglut</title>
<g id="a_node37"><a xlink:href="https://github.com/conda-forge/freeglut-feedstock/pull/22" xlink:title="freeglut ❎">
<ellipse fill="#31688e" stroke="black" cx="1137" cy="-1014" rx="50.09" ry="18"/>
<text text-anchor="middle" x="1137" y="-1010.3" font-family="Times,serif" font-size="14.00" fill="white">freeglut ❎</text>
</a>
</g>
</g>
<!-- pypy2.7&#45;&gt;freeglut -->
<!-- fastparquet -->
<g id="node6" class="node">
<title>fastparquet</title>
<g id="a_node6"><a xlink:href="https://github.com/conda-forge/fastparquet-feedstock" xlink:title="fastparquet">
<ellipse fill="#fde725" stroke="black" cx="1137" cy="-134" rx="50.09" ry="18"/>
<text text-anchor="middle" x="1137" y="-130.3" font-family="Times,serif" font-size="14.00">fastparquet</text>
</a>
</g>
</g>
<!-- freexl -->
<g id="node7" class="node">
<title>freexl</title>
<g id="a_node7"><a xlink:href="https://github.com/conda-forge/freexl-feedstock/pull/22" xlink:title="freexl ✓">
<ellipse fill="#31688e" stroke="black" cx="1268" cy="-942" rx="41.69" ry="18"/>
<text text-anchor="middle" x="1268" y="-938.3" font-family="Times,serif" font-size="14.00" fill="white">freexl ✓</text>
</a>
</g>
</g>
<!-- gdal -->
<g id="node8" class="node">
<title>gdal</title>
<g id="a_node8"><a xlink:href="https://github.com/conda-forge/gdal-feedstock" xlink:title="gdal">
<ellipse fill="#fde725" stroke="black" cx="1397" cy="-798" rx="27" ry="18"/>
<text text-anchor="middle" x="1397" y="-794.3" font-family="Times,serif" font-size="14.00">gdal</text>
</a>
</g>
</g>
<!-- freexl&#45;&gt;gdal -->
<g id="edge3" class="edge">
<title>freexl&#45;&gt;gdal</title>
<path fill="none" stroke="black" d="M1259.44,-924.31C1250.92,-905.13 1241.09,-873.53 1256,-852 1279.17,-818.53 1326.29,-806.17 1359.67,-801.62"/>
<polygon fill="black" stroke="black" points="1360.46,-805.05 1369.98,-800.4 1359.64,-798.1 1360.46,-805.05"/>
</g>
<!-- libspatialite -->
<g id="node9" class="node">
<title>libspatialite</title>
<g id="a_node9"><a xlink:href="https://github.com/conda-forge/libspatialite-feedstock" xlink:title="libspatialite">
<ellipse fill="#fde725" stroke="black" cx="1317" cy="-870" rx="52" ry="18"/>
<text text-anchor="middle" x="1317" y="-866.3" font-family="Times,serif" font-size="14.00">libspatialite</text>
</a>
</g>
</g>
<!-- freexl&#45;&gt;libspatialite -->
<g id="edge4" class="edge">
<title>freexl&#45;&gt;libspatialite</title>
<path fill="none" stroke="black" d="M1279.61,-924.41C1285.51,-915.99 1292.79,-905.58 1299.36,-896.2"/>
<polygon fill="black" stroke="black" points="1302.26,-898.16 1305.13,-887.96 1296.53,-894.14 1302.26,-898.16"/>
</g>
<!-- kealib -->
<g id="node10" class="node">
<title>kealib</title>
<g id="a_node10"><a xlink:href="https://github.com/conda-forge/kealib-feedstock" xlink:title="kealib">
<ellipse fill="#fde725" stroke="black" cx="1397" cy="-726" rx="32.5" ry="18"/>
<text text-anchor="middle" x="1397" y="-722.3" font-family="Times,serif" font-size="14.00">kealib</text>
</a>
</g>
</g>
<!-- gdal&#45;&gt;kealib -->
<g id="edge5" class="edge">
<title>gdal&#45;&gt;kealib</title>
<path fill="none" stroke="black" d="M1391.16,-780.41C1390.3,-772.51 1390.05,-762.85 1390.41,-753.94"/>
<polygon fill="black" stroke="black" points="1393.9,-754.18 1391.12,-743.96 1386.92,-753.68 1393.9,-754.18"/>
</g>
<!-- r&#45;sf -->
<g id="node11" class="node">
<title>r&#45;sf</title>
<g id="a_node11"><a xlink:href="https://github.com/conda-forge/r-sf-feedstock" xlink:title="r sf">
<ellipse fill="#fde725" stroke="black" cx="1527" cy="-726" rx="27" ry="18"/>
<text text-anchor="middle" x="1527" y="-722.3" font-family="Times,serif" font-size="14.00">r sf</text>
</a>
</g>
</g>
<!-- gdal&#45;&gt;r&#45;sf -->
<g id="edge6" class="edge">
<title>gdal&#45;&gt;r&#45;sf</title>
<path fill="none" stroke="black" d="M1417.31,-786.06C1438.84,-774.47 1473.05,-756.05 1497.54,-742.86"/>
<polygon fill="black" stroke="black" points="1499.26,-745.91 1506.4,-738.09 1495.94,-739.75 1499.26,-745.91"/>
</g>
<!-- libspatialite&#45;&gt;gdal -->
<g id="edge7" class="edge">
<title>libspatialite&#45;&gt;gdal</title>
<path fill="none" stroke="black" d="M1335.15,-853.12C1346.57,-843.12 1361.42,-830.13 1373.71,-819.38"/>
<polygon fill="black" stroke="black" points="1376.13,-821.91 1381.35,-812.7 1371.52,-816.65 1376.13,-821.91"/>
</g>
<!-- kealib&#45;&gt;gdal -->
<g id="edge8" class="edge">
<title>kealib&#45;&gt;gdal</title>
<path fill="none" stroke="black" d="M1402.88,-743.96C1403.71,-751.83 1403.95,-761.37 1403.58,-770.19"/>
<polygon fill="black" stroke="black" points="1400.07,-770.18 1402.84,-780.41 1407.06,-770.69 1400.07,-770.18"/>
</g>
<!-- r&#45;spdep -->
<g id="node12" class="node">
<title>r&#45;spdep</title>
<g id="a_node12"><a xlink:href="https://github.com/conda-forge/r-spdep-feedstock" xlink:title="r spdep">
<ellipse fill="#fde725" stroke="black" cx="1527" cy="-654" rx="36.5" ry="18"/>
<text text-anchor="middle" x="1527" y="-650.3" font-family="Times,serif" font-size="14.00">r spdep</text>
</a>
</g>
</g>
<!-- r&#45;sf&#45;&gt;r&#45;spdep -->
<g id="edge9" class="edge">
<title>r&#45;sf&#45;&gt;r&#45;spdep</title>
<path fill="none" stroke="black" d="M1527,-707.7C1527,-699.98 1527,-690.71 1527,-682.11"/>
<polygon fill="black" stroke="black" points="1530.5,-682.1 1527,-672.1 1523.5,-682.1 1530.5,-682.1"/>
</g>
<!-- geos -->
<g id="node13" class="node">
<title>geos</title>
<g id="a_node13"><a xlink:href="https://github.com/conda-forge/geos-feedstock/pull/47" xlink:title="geos ❎">
<ellipse fill="#31688e" stroke="black" cx="1381" cy="-942" rx="38.5" ry="18"/>
<text text-anchor="middle" x="1381" y="-938.3" font-family="Times,serif" font-size="14.00" fill="white">geos ❎</text>
</a>
</g>
</g>
<!-- geos&#45;&gt;gdal -->
<g id="edge10" class="edge">
<title>geos&#45;&gt;gdal</title>
<path fill="none" stroke="black" d="M1382.93,-923.87C1385.66,-899.67 1390.67,-855.21 1393.91,-826.39"/>
<polygon fill="black" stroke="black" points="1397.42,-826.52 1395.06,-816.19 1390.47,-825.73 1397.42,-826.52"/>
</g>
<!-- geos&#45;&gt;libspatialite -->
<g id="edge11" class="edge">
<title>geos&#45;&gt;libspatialite</title>
<path fill="none" stroke="black" d="M1366.48,-925.12C1358.33,-916.2 1348,-904.91 1338.89,-894.94"/>
<polygon fill="black" stroke="black" points="1341.24,-892.33 1331.91,-887.31 1336.07,-897.05 1341.24,-892.33"/>
</g>
<!-- hyperspy -->
<g id="node14" class="node">
<title>hyperspy</title>
<g id="a_node14"><a xlink:href="https://github.com/conda-forge/hyperspy-feedstock" xlink:title="hyperspy">
<ellipse fill="#fde725" stroke="black" cx="177" cy="-762" rx="43" ry="18"/>
<text text-anchor="middle" x="177" y="-758.3" font-family="Times,serif" font-size="14.00">hyperspy</text>
</a>
</g>
</g>
<!-- libunwind -->
<g id="node15" class="node">
<title>libunwind</title>
<g id="a_node15"><a xlink:href="https://github.com/conda-forge/libunwind-feedstock/pull/14" xlink:title="libunwind ❎">
<ellipse fill="#31688e" stroke="black" cx="1430" cy="-358" rx="58" ry="18"/>
<text text-anchor="middle" x="1430" y="-354.3" font-family="Times,serif" font-size="14.00" fill="white">libunwind ❎</text>
</a>
</g>
</g>
<!-- py&#45;spy -->
<g id="node16" class="node">
<title>py&#45;spy</title>
<g id="a_node16"><a xlink:href="https://github.com/conda-forge/py-spy-feedstock/pull/11" xlink:title="py spy ❎">
<ellipse fill="#31688e" stroke="black" cx="1430" cy="-286" rx="46.29" ry="18"/>
<text text-anchor="middle" x="1430" y="-282.3" font-family="Times,serif" font-size="14.00" fill="white">py spy ❎</text>
</a>
</g>
</g>
<!-- libunwind&#45;&gt;py&#45;spy -->
<g id="edge12" class="edge">
<title>libunwind&#45;&gt;py&#45;spy</title>
<path fill="none" stroke="black" d="M1430,-339.7C1430,-331.98 1430,-322.71 1430,-314.11"/>
<polygon fill="black" stroke="black" points="1433.5,-314.1 1430,-304.1 1426.5,-314.1 1433.5,-314.1"/>
</g>
<!-- link&#45;traits -->
<g id="node17" class="node">
<title>link&#45;traits</title>
<g id="a_node17"><a xlink:href="https://github.com/conda-forge/link-traits-feedstock/pull/10" xlink:title="link traits ❎">
<ellipse fill="#31688e" stroke="black" cx="177" cy="-834" rx="56" ry="18"/>
<text text-anchor="middle" x="177" y="-830.3" font-family="Times,serif" font-size="14.00" fill="white">link traits ❎</text>
</a>
</g>
</g>
<!-- link&#45;traits&#45;&gt;hyperspy -->
<g id="edge13" class="edge">
<title>link&#45;traits&#45;&gt;hyperspy</title>
<path fill="none" stroke="black" d="M177,-815.7C177,-807.98 177,-798.71 177,-790.11"/>
<polygon fill="black" stroke="black" points="180.5,-790.1 177,-780.1 173.5,-790.1 180.5,-790.1"/>
</g>
<!-- mono -->
<g id="node18" class="node">
<title>mono</title>
<g id="a_node18"><a xlink:href="https://github.com/conda-forge/mono-feedstock/pull/18" xlink:title="mono ❎">
<ellipse fill="#31688e" stroke="black" cx="1137" cy="-90" rx="43" ry="18"/>
<text text-anchor="middle" x="1137" y="-86.3" font-family="Times,serif" font-size="14.00" fill="white">mono ❎</text>
</a>
</g>
</g>
<!-- ogre -->
<g id="node19" class="node">
<title>ogre</title>
<g id="a_node19"><a xlink:href="https://github.com/conda-forge/ogre-feedstock" xlink:title="ogre">
<ellipse fill="#fde725" stroke="black" cx="1137" cy="-18" rx="27" ry="18"/>
<text text-anchor="middle" x="1137" y="-14.3" font-family="Times,serif" font-size="14.00">ogre</text>
</a>
</g>
</g>
<!-- mono&#45;&gt;ogre -->
<g id="edge14" class="edge">
<title>mono&#45;&gt;ogre</title>
<path fill="none" stroke="black" d="M1137,-71.7C1137,-63.98 1137,-54.71 1137,-46.11"/>
<polygon fill="black" stroke="black" points="1140.5,-46.1 1137,-36.1 1133.5,-46.1 1140.5,-46.1"/>
</g>
<!-- multidict -->
<g id="node20" class="node">
<title>multidict</title>
<g id="a_node20"><a xlink:href="https://github.com/conda-forge/multidict-feedstock/pull/29" xlink:title="multidict ✓">
<ellipse fill="#31688e" stroke="black" cx="523" cy="-394" rx="53.5" ry="18"/>
<text text-anchor="middle" x="523" y="-390.3" font-family="Times,serif" font-size="14.00" fill="white">multidict ✓</text>
</a>
</g>
</g>
<!-- multidict&#45;&gt;aiohttp -->
<g id="edge15" class="edge">
<title>multidict&#45;&gt;aiohttp</title>
<path fill="none" stroke="black" d="M519.75,-375.89C517.95,-365.54 515.91,-352.06 515,-340 513.8,-324.04 513.8,-319.96 515,-304 515.64,-295.52 516.84,-286.34 518.12,-278.04"/>
<polygon fill="black" stroke="black" points="521.58,-278.55 519.75,-268.11 514.68,-277.41 521.58,-278.55"/>
</g>
<!-- yarl -->
<g id="node21" class="node">
<title>yarl</title>
<g id="a_node21"><a xlink:href="https://github.com/conda-forge/yarl-feedstock" xlink:title="yarl">
<ellipse fill="#fde725" stroke="black" cx="551" cy="-322" rx="27" ry="18"/>
<text text-anchor="middle" x="551" y="-318.3" font-family="Times,serif" font-size="14.00">yarl</text>
</a>
</g>
</g>
<!-- multidict&#45;&gt;yarl -->
<g id="edge16" class="edge">
<title>multidict&#45;&gt;yarl</title>
<path fill="none" stroke="black" d="M529.78,-376.05C533.01,-367.97 536.95,-358.12 540.56,-349.11"/>
<polygon fill="black" stroke="black" points="543.82,-350.37 544.28,-339.79 537.32,-347.77 543.82,-350.37"/>
</g>
<!-- yarl&#45;&gt;aiohttp -->
<g id="edge17" class="edge">
<title>yarl&#45;&gt;aiohttp</title>
<path fill="none" stroke="black" d="M544.36,-304.41C541.13,-296.34 537.17,-286.43 533.54,-277.35"/>
<polygon fill="black" stroke="black" points="536.75,-275.94 529.78,-267.96 530.25,-278.54 536.75,-275.94"/>
</g>
<!-- nbgrader -->
<g id="node22" class="node">
<title>nbgrader</title>
<g id="a_node22"><a xlink:href="https://github.com/conda-forge/nbgrader-feedstock" xlink:title="nbgrader">
<ellipse fill="#fde725" stroke="black" cx="589" cy="-762" rx="42.49" ry="18"/>
<text text-anchor="middle" x="589" y="-758.3" font-family="Times,serif" font-size="14.00">nbgrader</text>
</a>
</g>
</g>
<!-- nltk_data -->
<g id="node23" class="node">
<title>nltk_data</title>
<g id="a_node23"><a xlink:href="https://github.com/conda-forge/nltk_data-feedstock/pull/5" xlink:title="nltk_data ❎">
<ellipse fill="#31688e" stroke="black" cx="344" cy="-834" rx="55.49" ry="18"/>
<text text-anchor="middle" x="344" y="-830.3" font-family="Times,serif" font-size="14.00" fill="white">nltk_data ❎</text>
</a>
</g>
</g>
<!-- allennlp -->
<g id="node24" class="node">
<title>allennlp</title>
<g id="a_node24"><a xlink:href="https://github.com/conda-forge/allennlp-feedstock" xlink:title="allennlp">
<ellipse fill="#fde725" stroke="black" cx="417" cy="-762" rx="39" ry="18"/>
<text text-anchor="middle" x="417" y="-758.3" font-family="Times,serif" font-size="14.00">allennlp</text>
</a>
</g>
</g>
<!-- nltk_data&#45;&gt;allennlp -->
<g id="edge18" class="edge">
<title>nltk_data&#45;&gt;allennlp</title>
<path fill="none" stroke="black" d="M360.93,-816.76C370.62,-807.47 382.93,-795.67 393.55,-785.49"/>
<polygon fill="black" stroke="black" points="396.12,-787.87 400.91,-778.43 391.27,-782.82 396.12,-787.87"/>
</g>
<!-- pyqt -->
<g id="node25" class="node">
<title>pyqt</title>
<g id="a_node25"><a xlink:href="https://github.com/conda-forge/pyqt-feedstock" xlink:title="pyqt">
<ellipse fill="#fde725" stroke="black" cx="646" cy="-834" rx="27" ry="18"/>
<text text-anchor="middle" x="646" y="-830.3" font-family="Times,serif" font-size="14.00">pyqt</text>
</a>
</g>
</g>
<!-- pyqt&#45;&gt;hyperspy -->
<g id="edge19" class="edge">
<title>pyqt&#45;&gt;hyperspy</title>
<path fill="none" stroke="black" d="M625.5,-821.94C620.54,-819.66 615.18,-817.5 610,-816 539.56,-795.63 327.93,-775.75 229.01,-767.28"/>
<polygon fill="black" stroke="black" points="229.21,-763.78 218.95,-766.42 228.61,-770.75 229.21,-763.78"/>
</g>
<!-- pyqt&#45;&gt;nbgrader -->
<g id="edge20" class="edge">
<title>pyqt&#45;&gt;nbgrader</title>
<path fill="none" stroke="black" d="M633.63,-817.81C626.29,-808.8 616.83,-797.18 608.51,-786.95"/>
<polygon fill="black" stroke="black" points="611.17,-784.68 602.14,-779.13 605.74,-789.1 611.17,-784.68"/>
</g>
<!-- pyqt&#45;&gt;allennlp -->
<g id="edge21" class="edge">
<title>pyqt&#45;&gt;allennlp</title>
<path fill="none" stroke="black" d="M624.94,-822.31C620.1,-820.06 614.93,-817.82 610,-816 560.09,-797.52 500.81,-782.18 461.25,-772.84"/>
<polygon fill="black" stroke="black" points="461.91,-769.4 451.38,-770.54 460.32,-776.22 461.91,-769.4"/>
</g>
<!-- pythonocc&#45;core -->
<g id="node26" class="node">
<title>pythonocc&#45;core</title>
<g id="a_node26"><a xlink:href="https://github.com/conda-forge/pythonocc-core-feedstock" xlink:title="pythonocc core">
<ellipse fill="#fde725" stroke="black" cx="714" cy="-762" rx="65" ry="18"/>
<text text-anchor="middle" x="714" y="-758.3" font-family="Times,serif" font-size="14.00">pythonocc core</text>
</a>
</g>
</g>
<!-- pyqt&#45;&gt;pythonocc&#45;core -->
<g id="edge22" class="edge">
<title>pyqt&#45;&gt;pythonocc&#45;core</title>
<path fill="none" stroke="black" d="M660.09,-818.5C668.98,-809.34 680.67,-797.31 690.9,-786.78"/>
<polygon fill="black" stroke="black" points="693.56,-789.06 698.02,-779.45 688.54,-784.18 693.56,-789.06"/>
</g>
<!-- qt -->
<g id="node27" class="node">
<title>qt</title>
<g id="a_node27"><a xlink:href="https://github.com/conda-forge/qt-feedstock/pull/168" xlink:title="qt ❎">
<ellipse fill="#31688e" stroke="black" cx="874" cy="-906" rx="29.5" ry="18"/>
<text text-anchor="middle" x="874" y="-902.3" font-family="Times,serif" font-size="14.00" fill="white">qt ❎</text>
</a>
</g>
</g>
<!-- qt&#45;&gt;pyqt -->
<g id="edge23" class="edge">
<title>qt&#45;&gt;pyqt</title>
<path fill="none" stroke="black" d="M846.83,-899.06C809.2,-890.48 739.38,-873.29 682,-852 680.15,-851.31 678.27,-850.57 676.39,-849.79"/>
<polygon fill="black" stroke="black" points="677.62,-846.51 667.06,-845.68 674.8,-852.92 677.62,-846.51"/>
</g>
<!-- pivy -->
<g id="node28" class="node">
<title>pivy</title>
<g id="a_node28"><a xlink:href="https://github.com/conda-forge/pivy-feedstock" xlink:title="pivy">
<ellipse fill="#fde725" stroke="black" cx="874" cy="-690" rx="27" ry="18"/>
<text text-anchor="middle" x="874" y="-686.3" font-family="Times,serif" font-size="14.00">pivy</text>
</a>
</g>
</g>
<!-- qt&#45;&gt;pivy -->
<g id="edge24" class="edge">
<title>qt&#45;&gt;pivy</title>
<path fill="none" stroke="black" d="M862.63,-889.19C843.14,-860.03 807.27,-796 827,-744 831.7,-731.6 840.78,-720.25 849.72,-711.26"/>
<polygon fill="black" stroke="black" points="852.22,-713.7 857.09,-704.29 847.42,-708.61 852.22,-713.7"/>
</g>
<!-- pyside2 -->
<g id="node29" class="node">
<title>pyside2</title>
<g id="a_node29"><a xlink:href="https://github.com/conda-forge/pyside2-feedstock" xlink:title="pyside2">
<ellipse fill="#fde725" stroke="black" cx="874" cy="-762" rx="38.5" ry="18"/>
<text text-anchor="middle" x="874" y="-758.3" font-family="Times,serif" font-size="14.00">pyside2</text>
</a>
</g>
</g>
<!-- qt&#45;&gt;pyside2 -->
<g id="edge25" class="edge">
<title>qt&#45;&gt;pyside2</title>
<path fill="none" stroke="black" d="M874,-887.87C874,-863.67 874,-819.21 874,-790.39"/>
<polygon fill="black" stroke="black" points="877.5,-790.19 874,-780.19 870.5,-790.19 877.5,-790.19"/>
</g>
<!-- soqt -->
<g id="node30" class="node">
<title>soqt</title>
<g id="a_node30"><a xlink:href="https://github.com/conda-forge/soqt-feedstock" xlink:title="soqt">
<ellipse fill="#fde725" stroke="black" cx="958" cy="-762" rx="27" ry="18"/>
<text text-anchor="middle" x="958" y="-758.3" font-family="Times,serif" font-size="14.00">soqt</text>
</a>
</g>
</g>
<!-- qt&#45;&gt;soqt -->
<g id="edge26" class="edge">
<title>qt&#45;&gt;soqt</title>
<path fill="none" stroke="black" d="M883.64,-888.71C898.26,-863.99 926.15,-816.83 943.31,-787.83"/>
<polygon fill="black" stroke="black" points="946.4,-789.49 948.48,-779.1 940.37,-785.92 946.4,-789.49"/>
</g>
<!-- geant4 -->
<g id="node31" class="node">
<title>geant4</title>
<g id="a_node31"><a xlink:href="https://github.com/conda-forge/geant4-feedstock" xlink:title="geant4">
<ellipse fill="#fde725" stroke="black" cx="1013" cy="-690" rx="34.5" ry="18"/>
<text text-anchor="middle" x="1013" y="-686.3" font-family="Times,serif" font-size="14.00">geant4</text>
</a>
</g>
</g>
<!-- qt&#45;&gt;geant4 -->
<g id="edge27" class="edge">
<title>qt&#45;&gt;geant4</title>
<path fill="none" stroke="black" d="M892.53,-891.61C919.61,-870.95 969.41,-828.58 994,-780 1003.78,-760.67 1008.53,-736.52 1010.84,-718.26"/>
<polygon fill="black" stroke="black" points="1014.33,-718.59 1011.94,-708.26 1007.37,-717.82 1014.33,-718.59"/>
</g>
<!-- pyside2&#45;&gt;pivy -->
<g id="edge28" class="edge">
<title>pyside2&#45;&gt;pivy</title>
<path fill="none" stroke="black" d="M874,-743.7C874,-735.98 874,-726.71 874,-718.11"/>
<polygon fill="black" stroke="black" points="877.5,-718.1 874,-708.1 870.5,-718.1 877.5,-718.1"/>
</g>
<!-- soqt&#45;&gt;pivy -->
<g id="edge29" class="edge">
<title>soqt&#45;&gt;pivy</title>
<path fill="none" stroke="black" d="M941.8,-747.5C929.37,-737.14 912.01,-722.67 897.97,-710.97"/>
<polygon fill="black" stroke="black" points="900.07,-708.17 890.15,-704.46 895.59,-713.55 900.07,-708.17"/>
</g>
<!-- r&#45;units -->
<g id="node32" class="node">
<title>r&#45;units</title>
<g id="a_node32"><a xlink:href="https://github.com/conda-forge/r-units-feedstock" xlink:title="r units">
<ellipse fill="#fde725" stroke="black" cx="1553" cy="-798" rx="33.29" ry="18"/>
<text text-anchor="middle" x="1553" y="-794.3" font-family="Times,serif" font-size="14.00">r units</text>
</a>
</g>
</g>
<!-- r&#45;units&#45;&gt;r&#45;sf -->
<g id="edge30" class="edge">
<title>r&#45;units&#45;&gt;r&#45;sf</title>
<path fill="none" stroke="black" d="M1546.71,-780.05C1543.74,-772.06 1540.12,-762.33 1536.81,-753.4"/>
<polygon fill="black" stroke="black" points="1540,-751.94 1533.24,-743.79 1533.44,-754.38 1540,-751.94"/>
</g>
<!-- singularity -->
<g id="node33" class="node">
<title>singularity</title>
<g id="a_node33"><a xlink:href="https://github.com/conda-forge/singularity-feedstock" xlink:title="singularity">
<ellipse fill="#fde725" stroke="black" cx="1430" cy="-134" rx="48.19" ry="18"/>
<text text-anchor="middle" x="1430" y="-130.3" font-family="Times,serif" font-size="14.00">singularity</text>
</a>
</g>
</g>
<!-- spacy -->
<g id="node34" class="node">
<title>spacy</title>
<g id="a_node34"><a xlink:href="https://github.com/conda-forge/spacy-feedstock/pull/89" xlink:title="spacy ❎">
<ellipse fill="#31688e" stroke="black" cx="261" cy="-906" rx="42.49" ry="18"/>
<text text-anchor="middle" x="261" y="-902.3" font-family="Times,serif" font-size="14.00" fill="white">spacy ❎</text>
</a>
</g>
</g>
<!-- spacy&#45;&gt;allennlp -->
<g id="edge31" class="edge">
<title>spacy&#45;&gt;allennlp</title>
<path fill="none" stroke="black" d="M260.09,-887.84C259.98,-868.22 262.78,-836.2 280,-816 302.52,-789.59 339.82,-776.28 369.82,-769.6"/>
<polygon fill="black" stroke="black" points="370.59,-773.02 379.68,-767.59 369.18,-766.16 370.59,-773.02"/>
</g>
<!-- thrift -->
<g id="node35" class="node">
<title>thrift</title>
<g id="a_node35"><a xlink:href="https://github.com/conda-forge/thrift-feedstock/pull/17" xlink:title="thrift ✓">
<ellipse fill="#31688e" stroke="black" cx="1137" cy="-206" rx="38.5" ry="18"/>
<text text-anchor="middle" x="1137" y="-202.3" font-family="Times,serif" font-size="14.00" fill="white">thrift ✓</text>
</a>
</g>
</g>
<!-- thrift&#45;&gt;fastparquet -->
<g id="edge32" class="edge">
<title>thrift&#45;&gt;fastparquet</title>
<path fill="none" stroke="black" d="M1137,-187.7C1137,-179.98 1137,-170.71 1137,-162.11"/>
<polygon fill="black" stroke="black" points="1140.5,-162.1 1137,-152.1 1133.5,-162.1 1140.5,-162.1"/>
</g>
<!-- udunits2 -->
<g id="node36" class="node">
<title>udunits2</title>
<g id="a_node36"><a xlink:href="https://github.com/conda-forge/udunits2-feedstock/pull/32" xlink:title="udunits2 ❎">
<ellipse fill="#31688e" stroke="black" cx="1580" cy="-870" rx="52.79" ry="18"/>
<text text-anchor="middle" x="1580" y="-866.3" font-family="Times,serif" font-size="14.00" fill="white">udunits2 ❎</text>
</a>
</g>
</g>
<!-- udunits2&#45;&gt;r&#45;units -->
<g id="edge33" class="edge">
<title>udunits2&#45;&gt;r&#45;units</title>
<path fill="none" stroke="black" d="M1573.46,-852.05C1570.38,-844.06 1566.63,-834.33 1563.18,-825.4"/>
<polygon fill="black" stroke="black" points="1566.34,-823.86 1559.48,-815.79 1559.81,-826.38 1566.34,-823.86"/>
</g>
<!-- root_numpy -->
<g id="node41" class="node">
<title>root_numpy</title>
<g id="a_node41"><a xlink:href="https://github.com/conda-forge/root_numpy-feedstock/pull/17" xlink:title="root_numpy ❎">
<ellipse fill="#31688e" stroke="black" cx="1137" cy="-942" rx="65.79" ry="18"/>
<text text-anchor="middle" x="1137" y="-938.3" font-family="Times,serif" font-size="14.00" fill="white">root_numpy ❎</text>
</a>
</g>
</g>
<!-- freeglut&#45;&gt;root_numpy -->
<!-- tiledb -->
<g id="node38" class="node">
<title>tiledb</title>
<g id="a_node38"><a xlink:href="https://github.com/conda-forge/tiledb-feedstock/pull/80" xlink:title="tiledb ❎">
<ellipse fill="#31688e" stroke="black" cx="1467" cy="-870" rx="42.49" ry="18"/>
<text text-anchor="middle" x="1467" y="-866.3" font-family="Times,serif" font-size="14.00" fill="white">tiledb ❎</text>
</a>
</g>
</g>
<!-- tiledb&#45;&gt;gdal -->
<g id="edge35" class="edge">
<title>tiledb&#45;&gt;gdal</title>
<path fill="none" stroke="black" d="M1451.12,-853.12C1441.51,-843.51 1429.13,-831.13 1418.63,-820.63"/>
<polygon fill="black" stroke="black" points="1420.94,-817.99 1411.39,-813.39 1415.99,-822.94 1420.94,-817.99"/>
</g>
<!-- libsvm -->
<g id="node39" class="node">
<title>libsvm</title>
<g id="a_node39"><a xlink:href="https://github.com/conda-forge/libsvm-feedstock/pull/16" xlink:title="libsvm ❎">
<ellipse fill="#31688e" stroke="black" cx="524" cy="-90" rx="47" ry="18"/>
<text text-anchor="middle" x="524" y="-86.3" font-family="Times,serif" font-size="14.00" fill="white">libsvm ❎</text>
</a>
</g>
</g>
<!-- cctbx&#45;base -->
<g id="node40" class="node">
<title>cctbx&#45;base</title>
<g id="a_node40"><a xlink:href="https://github.com/conda-forge/cctbx-base-feedstock" xlink:title="cctbx base">
<ellipse fill="#fde725" stroke="black" cx="524" cy="-18" rx="48.19" ry="18"/>
<text text-anchor="middle" x="524" y="-14.3" font-family="Times,serif" font-size="14.00">cctbx base</text>
</a>
</g>
</g>
<!-- libsvm&#45;&gt;cctbx&#45;base -->
<g id="edge36" class="edge">
<title>libsvm&#45;&gt;cctbx&#45;base</title>
<path fill="none" stroke="black" d="M524,-71.7C524,-63.98 524,-54.71 524,-46.11"/>
<polygon fill="black" stroke="black" points="527.5,-46.1 524,-36.1 520.5,-46.1 527.5,-46.1"/>
</g>
<!-- ibm_db -->
<g id="node44" class="node">
<title>ibm_db</title>
<g id="a_node44"><a xlink:href="https://github.com/conda-forge/ibm_db-feedstock/pull/10" xlink:title="ibm_db ❎">
<ellipse fill="#31688e" stroke="black" cx="1137" cy="-870" rx="50.09" ry="18"/>
<text text-anchor="middle" x="1137" y="-866.3" font-family="Times,serif" font-size="14.00" fill="white">ibm_db ❎</text>
</a>
</g>
</g>
<!-- root_numpy&#45;&gt;ibm_db -->
<!-- occt -->
<g id="node42" class="node">
<title>occt</title>
<g id="a_node42"><a xlink:href="https://github.com/conda-forge/occt-feedstock/pull/59" xlink:title="occt ❎">
<ellipse fill="#31688e" stroke="black" cx="728" cy="-834" rx="37.09" ry="18"/>
<text text-anchor="middle" x="728" y="-830.3" font-family="Times,serif" font-size="14.00" fill="white">occt ❎</text>
</a>
</g>
</g>
<!-- occt&#45;&gt;pythonocc&#45;core -->
<g id="edge38" class="edge">
<title>occt&#45;&gt;pythonocc&#45;core</title>
<path fill="none" stroke="black" d="M724.61,-816.05C723.07,-808.35 721.21,-799.03 719.47,-790.36"/>
<polygon fill="black" stroke="black" points="722.85,-789.39 717.46,-780.28 715.98,-790.77 722.85,-789.39"/>
</g>
<!-- importlib_resources -->
<g id="node43" class="node">
<title>importlib_resources</title>
<g id="a_node43"><a xlink:href="https://github.com/conda-forge/importlib_resources-feedstock/pull/26" xlink:title="importlib_resources ❎">
<ellipse fill="#31688e" stroke="black" cx="93" cy="-906" rx="93" ry="18"/>
<text text-anchor="middle" x="93" y="-902.3" font-family="Times,serif" font-size="14.00" fill="white">importlib_resources ❎</text>
</a>
</g>
</g>
<!-- importlib_resources&#45;&gt;hyperspy -->
<g id="edge39" class="edge">
<title>importlib_resources&#45;&gt;hyperspy</title>
<path fill="none" stroke="black" d="M93.34,-887.69C94.44,-868.79 98.41,-838.24 112,-816 120,-802.9 132.44,-791.61 144.3,-782.85"/>
<polygon fill="black" stroke="black" points="146.57,-785.53 152.76,-776.93 142.56,-779.79 146.57,-785.53"/>
</g>
<!-- cudatoolkit -->
<g id="node50" class="node">
<title>cudatoolkit</title>
<g id="a_node50"><a xlink:href="https://github.com/conda-forge/cudatoolkit-feedstock/pull/4" xlink:title="cudatoolkit ❎">
<ellipse fill="#31688e" stroke="black" cx="1137" cy="-798" rx="61.99" ry="18"/>
<text text-anchor="middle" x="1137" y="-794.3" font-family="Times,serif" font-size="14.00" fill="white">cudatoolkit ❎</text>
</a>
</g>
</g>
<!-- ibm_db&#45;&gt;cudatoolkit -->
<!-- pytorch&#45;pretrained&#45;bert -->
<g id="node45" class="node">
<title>pytorch&#45;pretrained&#45;bert</title>
<g id="a_node45"><a xlink:href="https://github.com/conda-forge/pytorch-pretrained-bert-feedstock" xlink:title="pytorch pretrained bert">
<ellipse fill="#fde725" stroke="black" cx="509" cy="-834" rx="91.78" ry="18"/>
<text text-anchor="middle" x="509" y="-830.3" font-family="Times,serif" font-size="14.00">pytorch pretrained bert</text>
</a>
</g>
</g>
<!-- pytorch&#45;pretrained&#45;bert&#45;&gt;allennlp -->
<g id="edge41" class="edge">
<title>pytorch&#45;pretrained&#45;bert&#45;&gt;allennlp</title>
<path fill="none" stroke="black" d="M487.2,-816.41C474.44,-806.7 458.2,-794.35 444.56,-783.97"/>
<polygon fill="black" stroke="black" points="446.53,-781.07 436.46,-777.8 442.3,-786.64 446.53,-781.07"/>
</g>
<!-- pytorch&#45;cpu -->
<g id="node46" class="node">
<title>pytorch&#45;cpu</title>
<g id="a_node46"><a xlink:href="https://github.com/conda-forge/pytorch-cpu-feedstock/pull/18" xlink:title="pytorch cpu ❎">
<ellipse fill="#31688e" stroke="black" cx="509" cy="-906" rx="64.5" ry="18"/>
<text text-anchor="middle" x="509" y="-902.3" font-family="Times,serif" font-size="14.00" fill="white">pytorch cpu ❎</text>
</a>
</g>
</g>
<!-- pytorch&#45;cpu&#45;&gt;pytorch&#45;pretrained&#45;bert -->
<g id="edge42" class="edge">
<title>pytorch&#45;cpu&#45;&gt;pytorch&#45;pretrained&#45;bert</title>
<path fill="none" stroke="black" d="M509,-887.7C509,-879.98 509,-870.71 509,-862.11"/>
<polygon fill="black" stroke="black" points="512.5,-862.1 509,-852.1 505.5,-862.1 512.5,-862.1"/>
</g>
<!-- go&#45;dep -->
<g id="node47" class="node">
<title>go&#45;dep</title>
<g id="a_node47"><a xlink:href="https://github.com/conda-forge/go-dep-feedstock/pull/12" xlink:title="go dep ❎">
<ellipse fill="#31688e" stroke="black" cx="1430" cy="-206" rx="46.29" ry="18"/>
<text text-anchor="middle" x="1430" y="-202.3" font-family="Times,serif" font-size="14.00" fill="white">go dep ❎</text>
</a>
</g>
</g>
<!-- go&#45;dep&#45;&gt;singularity -->
<g id="edge43" class="edge">
<title>go&#45;dep&#45;&gt;singularity</title>
<path fill="none" stroke="black" d="M1430,-187.7C1430,-179.98 1430,-170.71 1430,-162.11"/>
<polygon fill="black" stroke="black" points="1433.5,-162.1 1430,-152.1 1426.5,-162.1 1433.5,-162.1"/>
</g>
<!-- procps&#45;ng -->
<g id="node48" class="node">
<title>procps&#45;ng</title>
<g id="a_node48"><a xlink:href="https://github.com/conda-forge/procps-ng-feedstock/pull/3" xlink:title="procps ng ✓">
<ellipse fill="#31688e" stroke="black" cx="524" cy="-206" rx="56" ry="18"/>
<text text-anchor="middle" x="524" y="-202.3" font-family="Times,serif" font-size="14.00" fill="white">procps ng ✓</text>
</a>
</g>
</g>
<!-- myproxy -->
<g id="node49" class="node">
<title>myproxy</title>
<g id="a_node49"><a xlink:href="https://github.com/conda-forge/myproxy-feedstock" xlink:title="myproxy">
<ellipse fill="#fde725" stroke="black" cx="524" cy="-134" rx="43" ry="18"/>
<text text-anchor="middle" x="524" y="-130.3" font-family="Times,serif" font-size="14.00">myproxy</text>
</a>
</g>
</g>
<!-- procps&#45;ng&#45;&gt;myproxy -->
<g id="edge44" class="edge">
<title>procps&#45;ng&#45;&gt;myproxy</title>
<path fill="none" stroke="black" d="M524,-187.7C524,-179.98 524,-170.71 524,-162.11"/>
<polygon fill="black" stroke="black" points="527.5,-162.1 524,-152.1 520.5,-162.1 527.5,-162.1"/>
</g>
<!-- libusb -->
<g id="node51" class="node">
<title>libusb</title>
<g id="a_node51"><a xlink:href="https://github.com/conda-forge/libusb-feedstock/pull/6" xlink:title="libusb ❎">
<ellipse fill="#31688e" stroke="black" cx="1137" cy="-726" rx="44.39" ry="18"/>
<text text-anchor="middle" x="1137" y="-722.3" font-family="Times,serif" font-size="14.00" fill="white">libusb ❎</text>
</a>
</g>
</g>
<!-- cudatoolkit&#45;&gt;libusb -->
<!-- proj -->
<g id="node52" class="node">
<title>proj</title>
<g id="a_node52"><a xlink:href="https://github.com/conda-forge/proj-feedstock" xlink:title="proj">
<ellipse fill="#35b779" stroke="black" cx="1137" cy="-654" rx="27" ry="18"/>
<text text-anchor="middle" x="1137" y="-650.3" font-family="Times,serif" font-size="14.00">proj</text>
</a>
</g>
</g>
<!-- libusb&#45;&gt;proj -->
<!-- _openmp_mutex -->
<g id="node53" class="node">
<title>_openmp_mutex</title>
<g id="a_node53"><a xlink:href="https://github.com/conda-forge/_openmp_mutex-feedstock/pull/5" xlink:title="_openmp_mutex ✓">
<ellipse fill="#31688e" stroke="black" cx="1137" cy="-582" rx="81.49" ry="18"/>
<text text-anchor="middle" x="1137" y="-578.3" font-family="Times,serif" font-size="14.00" fill="white">_openmp_mutex ✓</text>
</a>
</g>
</g>
<!-- proj&#45;&gt;_openmp_mutex -->
<!-- ompl -->
<g id="node54" class="node">
<title>ompl</title>
<g id="a_node54"><a xlink:href="https://github.com/conda-forge/ompl-feedstock/pull/8" xlink:title="ompl ❎">
<ellipse fill="#31688e" stroke="black" cx="1137" cy="-510" rx="41" ry="18"/>
<text text-anchor="middle" x="1137" y="-506.3" font-family="Times,serif" font-size="14.00" fill="white">ompl ❎</text>
</a>
</g>
</g>
<!-- _openmp_mutex&#45;&gt;ompl -->
<!-- nordugrid&#45;arc -->
<g id="node55" class="node">
<title>nordugrid&#45;arc</title>
<g id="a_node55"><a xlink:href="https://github.com/conda-forge/nordugrid-arc-feedstock/pull/12" xlink:title="nordugrid arc ❎">
<ellipse fill="#31688e" stroke="black" cx="1137" cy="-438" rx="70.39" ry="18"/>
<text text-anchor="middle" x="1137" y="-434.3" font-family="Times,serif" font-size="14.00" fill="white">nordugrid arc ❎</text>
</a>
</g>
</g>
<!-- ompl&#45;&gt;nordugrid&#45;arc -->
<!-- s2n -->
<g id="node56" class="node">
<title>s2n</title>
<g id="a_node56"><a xlink:href="https://github.com/conda-forge/s2n-feedstock/pull/5" xlink:title="s2n ❎">
<ellipse fill="#31688e" stroke="black" cx="1430" cy="-90" rx="34.5" ry="18"/>
<text text-anchor="middle" x="1430" y="-86.3" font-family="Times,serif" font-size="14.00" fill="white">s2n ❎</text>
</a>
</g>
</g>
<!-- aws&#45;c&#45;io -->
<g id="node57" class="node">
<title>aws&#45;c&#45;io</title>
<g id="a_node57"><a xlink:href="https://github.com/conda-forge/aws-c-io-feedstock" xlink:title="aws c io">
<ellipse fill="#fde725" stroke="black" cx="1430" cy="-18" rx="40.5" ry="18"/>
<text text-anchor="middle" x="1430" y="-14.3" font-family="Times,serif" font-size="14.00">aws c io</text>
</a>
</g>
</g>
<!-- s2n&#45;&gt;aws&#45;c&#45;io -->
<g id="edge51" class="edge">
<title>s2n&#45;&gt;aws&#45;c&#45;io</title>
<path fill="none" stroke="black" d="M1430,-71.7C1430,-63.98 1430,-54.71 1430,-46.11"/>
<polygon fill="black" stroke="black" points="1433.5,-46.1 1430,-36.1 1426.5,-46.1 1433.5,-46.1"/>
</g>
</g>
</svg>
