<?xml version="1.0" encoding="UTF-8" standalone="no"?>
<!DOCTYPE svg PUBLIC "-//W3C//DTD SVG 1.1//EN"
 "http://www.w3.org/Graphics/SVG/1.1/DTD/svg11.dtd">
<!-- Generated by graphviz version 2.42.3 (20191010.1750)
 -->
<!-- Title: %3 Pages: 1 -->
<svg width="1457pt" height="1112pt"
 viewBox="0.00 0.00 1457.06 1112.00" xmlns="http://www.w3.org/2000/svg" xmlns:xlink="http://www.w3.org/1999/xlink">
<g id="graph0" class="graph" transform="scale(1 1) rotate(0) translate(4 1108)">
<title>%3</title>
<polygon fill="white" stroke="transparent" points="-4,4 -4,-1108 1453.06,-1108 1453.06,4 -4,4"/>
<!-- aiohttp -->
<g id="node1" class="node">
<title>aiohttp</title>
<g id="a_node1"><a xlink:href="https://github.com/conda-forge/aiohttp-feedstock" xlink:title="aiohttp">
<ellipse fill="#fde725" stroke="black" cx="193.42" cy="-906" rx="35.19" ry="18"/>
<text text-anchor="middle" x="193.42" y="-902.3" font-family="Times,serif" font-size="14.00">aiohttp</text>
</a>
</g>
</g>
<!-- black -->
<g id="node2" class="node">
<title>black</title>
<g id="a_node2"><a xlink:href="https://github.com/conda-forge/black-feedstock" xlink:title="black">
<ellipse fill="#fde725" stroke="black" cx="193.42" cy="-834" rx="30" ry="18"/>
<text text-anchor="middle" x="193.42" y="-830.3" font-family="Times,serif" font-size="14.00">black</text>
</a>
</g>
</g>
<!-- aiohttp&#45;&gt;black -->
<g id="edge1" class="edge">
<title>aiohttp&#45;&gt;black</title>
<path fill="none" stroke="black" d="M187.54,-888.05C186.71,-880.23 186.47,-870.75 186.83,-861.98"/>
<polygon fill="black" stroke="black" points="190.33,-862.01 187.56,-851.79 183.35,-861.51 190.33,-862.01"/>
</g>
<!-- black&#45;&gt;aiohttp -->
<g id="edge2" class="edge">
<title>black&#45;&gt;aiohttp</title>
<path fill="none" stroke="black" d="M199.28,-851.79C200.12,-859.59 200.36,-869.07 200.02,-877.85"/>
<polygon fill="black" stroke="black" points="196.51,-877.83 199.3,-888.05 203.49,-878.33 196.51,-877.83"/>
</g>
<!-- hyperspy -->
<g id="node3" class="node">
<title>hyperspy</title>
<g id="a_node3"><a xlink:href="https://github.com/conda-forge/hyperspy-feedstock" xlink:title="hyperspy">
<ellipse fill="#fde725" stroke="black" cx="335.42" cy="-762" rx="43" ry="18"/>
<text text-anchor="middle" x="335.42" y="-758.3" font-family="Times,serif" font-size="14.00">hyperspy</text>
</a>
</g>
</g>
<!-- black&#45;&gt;hyperspy -->
<g id="edge3" class="edge">
<title>black&#45;&gt;hyperspy</title>
<path fill="none" stroke="black" d="M215.92,-821.91C238.35,-810.85 273.14,-793.7 299.41,-780.75"/>
<polygon fill="black" stroke="black" points="301.24,-783.75 308.67,-776.19 298.15,-777.47 301.24,-783.75"/>
</g>
<!-- nbgrader -->
<g id="node4" class="node">
<title>nbgrader</title>
<g id="a_node4"><a xlink:href="https://github.com/conda-forge/nbgrader-feedstock" xlink:title="nbgrader">
<ellipse fill="#fde725" stroke="black" cx="230.42" cy="-762" rx="42.49" ry="18"/>
<text text-anchor="middle" x="230.42" y="-758.3" font-family="Times,serif" font-size="14.00">nbgrader</text>
</a>
</g>
</g>
<!-- black&#45;&gt;nbgrader -->
<g id="edge4" class="edge">
<title>black&#45;&gt;nbgrader</title>
<path fill="none" stroke="black" d="M202.19,-816.41C206.5,-808.25 211.8,-798.22 216.64,-789.07"/>
<polygon fill="black" stroke="black" points="219.88,-790.43 221.46,-779.96 213.69,-787.16 219.88,-790.43"/>
</g>
<!-- allennlp -->
<g id="node5" class="node">
<title>allennlp</title>
<g id="a_node5"><a xlink:href="https://github.com/conda-forge/allennlp-feedstock" xlink:title="allennlp">
<ellipse fill="#fde725" stroke="black" cx="241.42" cy="-546" rx="39" ry="18"/>
<text text-anchor="middle" x="241.42" y="-542.3" font-family="Times,serif" font-size="14.00">allennlp</text>
</a>
</g>
</g>
<!-- black&#45;&gt;allennlp -->
<g id="edge5" class="edge">
<title>black&#45;&gt;allennlp</title>
<path fill="none" stroke="black" d="M174.8,-819.7C125.63,-782.97 0,-677.74 58.42,-600 74.84,-578.15 146.31,-562.43 194.92,-554.02"/>
<polygon fill="black" stroke="black" points="195.64,-557.45 204.92,-552.34 194.47,-550.55 195.64,-557.45"/>
</g>
<!-- pytorch&#45;cpu -->
<g id="node6" class="node">
<title>pytorch&#45;cpu</title>
<g id="a_node6"><a xlink:href="https://github.com/conda-forge/pytorch-cpu-feedstock" xlink:title="pytorch cpu">
<ellipse fill="#fde725" stroke="black" cx="159.42" cy="-690" rx="52.79" ry="18"/>
<text text-anchor="middle" x="159.42" y="-686.3" font-family="Times,serif" font-size="14.00">pytorch cpu</text>
</a>
</g>
</g>
<!-- black&#45;&gt;pytorch&#45;cpu -->
<g id="edge6" class="edge">
<title>black&#45;&gt;pytorch&#45;cpu</title>
<path fill="none" stroke="black" d="M188.72,-815.86C185.92,-805.5 182.36,-792.02 179.42,-780 174.38,-759.36 169.13,-735.91 165.27,-718.27"/>
<polygon fill="black" stroke="black" points="168.61,-717.14 163.06,-708.11 161.77,-718.62 168.61,-717.14"/>
</g>
<!-- pytorch&#45;pretrained&#45;bert -->
<g id="node41" class="node">
<title>pytorch&#45;pretrained&#45;bert</title>
<g id="a_node41"><a xlink:href="https://github.com/conda-forge/pytorch-pretrained-bert-feedstock" xlink:title="pytorch pretrained bert">
<ellipse fill="#fde725" stroke="black" cx="159.42" cy="-618" rx="91.78" ry="18"/>
<text text-anchor="middle" x="159.42" y="-614.3" font-family="Times,serif" font-size="14.00">pytorch pretrained bert</text>
</a>
</g>
</g>
<!-- pytorch&#45;cpu&#45;&gt;pytorch&#45;pretrained&#45;bert -->
<g id="edge41" class="edge">
<title>pytorch&#45;cpu&#45;&gt;pytorch&#45;pretrained&#45;bert</title>
<path fill="none" stroke="black" d="M159.42,-671.7C159.42,-663.98 159.42,-654.71 159.42,-646.11"/>
<polygon fill="black" stroke="black" points="162.92,-646.1 159.42,-636.1 155.92,-646.1 162.92,-646.1"/>
</g>
<!-- astroscrappy -->
<g id="node7" class="node">
<title>astroscrappy</title>
<g id="a_node7"><a xlink:href="https://github.com/conda-forge/astroscrappy-feedstock/pull/11" xlink:title="astroscrappy ❎">
<ellipse fill="#31688e" stroke="black" cx="922.42" cy="-1086" rx="67" ry="18"/>
<text text-anchor="middle" x="922.42" y="-1082.3" font-family="Times,serif" font-size="14.00" fill="white">astroscrappy ❎</text>
</a>
</g>
</g>
<!-- sundials -->
<g id="node8" class="node">
<title>sundials</title>
<g id="a_node8"><a xlink:href="https://github.com/conda-forge/sundials-feedstock/pull/67" xlink:title="sundials ✓">
<ellipse fill="#31688e" stroke="black" cx="922.42" cy="-1014" rx="50.09" ry="18"/>
<text text-anchor="middle" x="922.42" y="-1010.3" font-family="Times,serif" font-size="14.00" fill="white">sundials ✓</text>
</a>
</g>
</g>
<!-- astroscrappy&#45;&gt;sundials -->
<!-- pypy2.7 -->
<g id="node33" class="node">
<title>pypy2.7</title>
<g id="a_node33"><a xlink:href="https://github.com/conda-forge/pypy2.7-feedstock/pull/3" xlink:title="pypy2 7 ❎">
<ellipse fill="#31688e" stroke="black" cx="922.42" cy="-942" rx="51.5" ry="18"/>
<text text-anchor="middle" x="922.42" y="-938.3" font-family="Times,serif" font-size="14.00" fill="white">pypy2 7 ❎</text>
</a>
</g>
</g>
<!-- sundials&#45;&gt;pypy2.7 -->
<!-- elfutils -->
<g id="node9" class="node">
<title>elfutils</title>
<g id="a_node9"><a xlink:href="https://github.com/conda-forge/elfutils-feedstock/pull/20" xlink:title="elfutils ❎">
<ellipse fill="#31688e" stroke="black" cx="333.42" cy="-322" rx="47" ry="18"/>
<text text-anchor="middle" x="333.42" y="-318.3" font-family="Times,serif" font-size="14.00" fill="white">elfutils ❎</text>
</a>
</g>
</g>
<!-- heaptrack -->
<g id="node10" class="node">
<title>heaptrack</title>
<g id="a_node10"><a xlink:href="https://github.com/conda-forge/heaptrack-feedstock" xlink:title="heaptrack">
<ellipse fill="#fde725" stroke="black" cx="340.42" cy="-250" rx="45" ry="18"/>
<text text-anchor="middle" x="340.42" y="-246.3" font-family="Times,serif" font-size="14.00">heaptrack</text>
</a>
</g>
</g>
<!-- elfutils&#45;&gt;heaptrack -->
<g id="edge8" class="edge">
<title>elfutils&#45;&gt;heaptrack</title>
<path fill="none" stroke="black" d="M335.15,-303.7C335.92,-295.98 336.85,-286.71 337.71,-278.11"/>
<polygon fill="black" stroke="black" points="341.2,-278.4 338.71,-268.1 334.23,-277.71 341.2,-278.4"/>
</g>
<!-- fastparquet -->
<g id="node11" class="node">
<title>fastparquet</title>
<g id="a_node11"><a xlink:href="https://github.com/conda-forge/fastparquet-feedstock" xlink:title="fastparquet">
<ellipse fill="#fde725" stroke="black" cx="400.42" cy="-134" rx="50.09" ry="18"/>
<text text-anchor="middle" x="400.42" y="-130.3" font-family="Times,serif" font-size="14.00">fastparquet</text>
</a>
</g>
</g>
<!-- freexl -->
<g id="node12" class="node">
<title>freexl</title>
<g id="a_node12"><a xlink:href="https://github.com/conda-forge/freexl-feedstock/pull/22" xlink:title="freexl ✓">
<ellipse fill="#31688e" stroke="black" cx="1084.42" cy="-870" rx="41.69" ry="18"/>
<text text-anchor="middle" x="1084.42" y="-866.3" font-family="Times,serif" font-size="14.00" fill="white">freexl ✓</text>
</a>
</g>
</g>
<!-- gdal -->
<g id="node13" class="node">
<title>gdal</title>
<g id="a_node13"><a xlink:href="https://github.com/conda-forge/gdal-feedstock" xlink:title="gdal">
<ellipse fill="#fde725" stroke="black" cx="1213.42" cy="-726" rx="27" ry="18"/>
<text text-anchor="middle" x="1213.42" y="-722.3" font-family="Times,serif" font-size="14.00">gdal</text>
</a>
</g>
</g>
<!-- freexl&#45;&gt;gdal -->
<g id="edge9" class="edge">
<title>freexl&#45;&gt;gdal</title>
<path fill="none" stroke="black" d="M1075.85,-852.31C1067.33,-833.13 1057.51,-801.53 1072.42,-780 1095.59,-746.53 1142.71,-734.17 1176.09,-729.62"/>
<polygon fill="black" stroke="black" points="1176.88,-733.05 1186.4,-728.4 1176.06,-726.1 1176.88,-733.05"/>
</g>
<!-- libspatialite -->
<g id="node14" class="node">
<title>libspatialite</title>
<g id="a_node14"><a xlink:href="https://github.com/conda-forge/libspatialite-feedstock" xlink:title="libspatialite">
<ellipse fill="#fde725" stroke="black" cx="1133.42" cy="-798" rx="52" ry="18"/>
<text text-anchor="middle" x="1133.42" y="-794.3" font-family="Times,serif" font-size="14.00">libspatialite</text>
</a>
</g>
</g>
<!-- freexl&#45;&gt;libspatialite -->
<g id="edge10" class="edge">
<title>freexl&#45;&gt;libspatialite</title>
<path fill="none" stroke="black" d="M1096.03,-852.41C1101.92,-843.99 1109.21,-833.58 1115.78,-824.2"/>
<polygon fill="black" stroke="black" points="1118.68,-826.16 1121.55,-815.96 1112.95,-822.14 1118.68,-826.16"/>
</g>
<!-- kealib -->
<g id="node15" class="node">
<title>kealib</title>
<g id="a_node15"><a xlink:href="https://github.com/conda-forge/kealib-feedstock" xlink:title="kealib">
<ellipse fill="#fde725" stroke="black" cx="1213.42" cy="-654" rx="32.5" ry="18"/>
<text text-anchor="middle" x="1213.42" y="-650.3" font-family="Times,serif" font-size="14.00">kealib</text>
</a>
</g>
</g>
<!-- gdal&#45;&gt;kealib -->
<g id="edge11" class="edge">
<title>gdal&#45;&gt;kealib</title>
<path fill="none" stroke="black" d="M1207.58,-708.41C1206.72,-700.51 1206.47,-690.85 1206.83,-681.94"/>
<polygon fill="black" stroke="black" points="1210.32,-682.18 1207.54,-671.96 1203.34,-681.68 1210.32,-682.18"/>
</g>
<!-- r&#45;sf -->
<g id="node16" class="node">
<title>r&#45;sf</title>
<g id="a_node16"><a xlink:href="https://github.com/conda-forge/r-sf-feedstock" xlink:title="r sf">
<ellipse fill="#fde725" stroke="black" cx="1343.42" cy="-654" rx="27" ry="18"/>
<text text-anchor="middle" x="1343.42" y="-650.3" font-family="Times,serif" font-size="14.00">r sf</text>
</a>
</g>
</g>
<!-- gdal&#45;&gt;r&#45;sf -->
<g id="edge12" class="edge">
<title>gdal&#45;&gt;r&#45;sf</title>
<path fill="none" stroke="black" d="M1233.73,-714.06C1255.26,-702.47 1289.47,-684.05 1313.96,-670.86"/>
<polygon fill="black" stroke="black" points="1315.67,-673.91 1322.82,-666.09 1312.36,-667.75 1315.67,-673.91"/>
</g>
<!-- libspatialite&#45;&gt;gdal -->
<g id="edge13" class="edge">
<title>libspatialite&#45;&gt;gdal</title>
<path fill="none" stroke="black" d="M1151.57,-781.12C1162.99,-771.12 1177.84,-758.13 1190.13,-747.38"/>
<polygon fill="black" stroke="black" points="1192.55,-749.91 1197.77,-740.7 1187.94,-744.65 1192.55,-749.91"/>
</g>
<!-- kealib&#45;&gt;gdal -->
<g id="edge14" class="edge">
<title>kealib&#45;&gt;gdal</title>
<path fill="none" stroke="black" d="M1219.3,-671.96C1220.13,-679.83 1220.37,-689.37 1220,-698.19"/>
<polygon fill="black" stroke="black" points="1216.49,-698.18 1219.26,-708.41 1223.47,-698.69 1216.49,-698.18"/>
</g>
<!-- r&#45;spdep -->
<g id="node17" class="node">
<title>r&#45;spdep</title>
<g id="a_node17"><a xlink:href="https://github.com/conda-forge/r-spdep-feedstock" xlink:title="r spdep">
<ellipse fill="#fde725" stroke="black" cx="1343.42" cy="-582" rx="36.5" ry="18"/>
<text text-anchor="middle" x="1343.42" y="-578.3" font-family="Times,serif" font-size="14.00">r spdep</text>
</a>
</g>
</g>
<!-- r&#45;sf&#45;&gt;r&#45;spdep -->
<g id="edge15" class="edge">
<title>r&#45;sf&#45;&gt;r&#45;spdep</title>
<path fill="none" stroke="black" d="M1343.42,-635.7C1343.42,-627.98 1343.42,-618.71 1343.42,-610.11"/>
<polygon fill="black" stroke="black" points="1346.92,-610.1 1343.42,-600.1 1339.92,-610.1 1346.92,-610.1"/>
</g>
<!-- geos -->
<g id="node18" class="node">
<title>geos</title>
<g id="a_node18"><a xlink:href="https://github.com/conda-forge/geos-feedstock/pull/47" xlink:title="geos ❎">
<ellipse fill="#31688e" stroke="black" cx="1197.42" cy="-870" rx="38.5" ry="18"/>
<text text-anchor="middle" x="1197.42" y="-866.3" font-family="Times,serif" font-size="14.00" fill="white">geos ❎</text>
</a>
</g>
</g>
<!-- geos&#45;&gt;gdal -->
<g id="edge16" class="edge">
<title>geos&#45;&gt;gdal</title>
<path fill="none" stroke="black" d="M1199.35,-851.87C1202.08,-827.67 1207.08,-783.21 1210.33,-754.39"/>
<polygon fill="black" stroke="black" points="1213.84,-754.52 1211.48,-744.19 1206.88,-753.73 1213.84,-754.52"/>
</g>
<!-- geos&#45;&gt;libspatialite -->
<g id="edge17" class="edge">
<title>geos&#45;&gt;libspatialite</title>
<path fill="none" stroke="black" d="M1182.9,-853.12C1174.75,-844.2 1164.42,-832.91 1155.31,-822.94"/>
<polygon fill="black" stroke="black" points="1157.66,-820.33 1148.33,-815.31 1152.49,-825.05 1157.66,-820.33"/>
</g>
<!-- libunwind -->
<g id="node19" class="node">
<title>libunwind</title>
<g id="a_node19"><a xlink:href="https://github.com/conda-forge/libunwind-feedstock/pull/14" xlink:title="libunwind ❎">
<ellipse fill="#31688e" stroke="black" cx="456.42" cy="-322" rx="58" ry="18"/>
<text text-anchor="middle" x="456.42" y="-318.3" font-family="Times,serif" font-size="14.00" fill="white">libunwind ❎</text>
</a>
</g>
</g>
<!-- libunwind&#45;&gt;heaptrack -->
<g id="edge18" class="edge">
<title>libunwind&#45;&gt;heaptrack</title>
<path fill="none" stroke="black" d="M430.96,-305.64C413.88,-295.33 391.24,-281.67 372.86,-270.58"/>
<polygon fill="black" stroke="black" points="374.6,-267.54 364.23,-265.37 370.99,-273.53 374.6,-267.54"/>
</g>
<!-- py&#45;spy -->
<g id="node20" class="node">
<title>py&#45;spy</title>
<g id="a_node20"><a xlink:href="https://github.com/conda-forge/py-spy-feedstock/pull/11" xlink:title="py spy ❎">
<ellipse fill="#31688e" stroke="black" cx="456.42" cy="-250" rx="46.29" ry="18"/>
<text text-anchor="middle" x="456.42" y="-246.3" font-family="Times,serif" font-size="14.00" fill="white">py spy ❎</text>
</a>
</g>
</g>
<!-- libunwind&#45;&gt;py&#45;spy -->
<g id="edge19" class="edge">
<title>libunwind&#45;&gt;py&#45;spy</title>
<path fill="none" stroke="black" d="M456.42,-303.7C456.42,-295.98 456.42,-286.71 456.42,-278.11"/>
<polygon fill="black" stroke="black" points="459.92,-278.1 456.42,-268.1 452.92,-278.1 459.92,-278.1"/>
</g>
<!-- mono -->
<g id="node21" class="node">
<title>mono</title>
<g id="a_node21"><a xlink:href="https://github.com/conda-forge/mono-feedstock/pull/18" xlink:title="mono ❎">
<ellipse fill="#31688e" stroke="black" cx="400.42" cy="-90" rx="43" ry="18"/>
<text text-anchor="middle" x="400.42" y="-86.3" font-family="Times,serif" font-size="14.00" fill="white">mono ❎</text>
</a>
</g>
</g>
<!-- ogre -->
<g id="node22" class="node">
<title>ogre</title>
<g id="a_node22"><a xlink:href="https://github.com/conda-forge/ogre-feedstock" xlink:title="ogre">
<ellipse fill="#fde725" stroke="black" cx="400.42" cy="-18" rx="27" ry="18"/>
<text text-anchor="middle" x="400.42" y="-14.3" font-family="Times,serif" font-size="14.00">ogre</text>
</a>
</g>
</g>
<!-- mono&#45;&gt;ogre -->
<g id="edge20" class="edge">
<title>mono&#45;&gt;ogre</title>
<path fill="none" stroke="black" d="M400.42,-71.7C400.42,-63.98 400.42,-54.71 400.42,-46.11"/>
<polygon fill="black" stroke="black" points="403.92,-46.1 400.42,-36.1 396.92,-46.1 403.92,-46.1"/>
</g>
<!-- nltk_data -->
<g id="node23" class="node">
<title>nltk_data</title>
<g id="a_node23"><a xlink:href="https://github.com/conda-forge/nltk_data-feedstock/pull/5" xlink:title="nltk_data ❎">
<ellipse fill="#31688e" stroke="black" cx="324.42" cy="-618" rx="55.49" ry="18"/>
<text text-anchor="middle" x="324.42" y="-614.3" font-family="Times,serif" font-size="14.00" fill="white">nltk_data ❎</text>
</a>
</g>
</g>
<!-- nltk_data&#45;&gt;allennlp -->
<g id="edge21" class="edge">
<title>nltk_data&#45;&gt;allennlp</title>
<path fill="none" stroke="black" d="M305.17,-600.76C293.85,-591.22 279.41,-579.04 267.13,-568.68"/>
<polygon fill="black" stroke="black" points="269.33,-565.96 259.43,-562.19 264.82,-571.31 269.33,-565.96"/>
</g>
<!-- pyqt -->
<g id="node24" class="node">
<title>pyqt</title>
<g id="a_node24"><a xlink:href="https://github.com/conda-forge/pyqt-feedstock" xlink:title="pyqt">
<ellipse fill="#fde725" stroke="black" cx="407.42" cy="-834" rx="27" ry="18"/>
<text text-anchor="middle" x="407.42" y="-830.3" font-family="Times,serif" font-size="14.00">pyqt</text>
</a>
</g>
</g>
<!-- pyqt&#45;&gt;hyperspy -->
<g id="edge22" class="edge">
<title>pyqt&#45;&gt;hyperspy</title>
<path fill="none" stroke="black" d="M392.85,-818.83C383.17,-809.42 370.23,-796.85 359.09,-786.01"/>
<polygon fill="black" stroke="black" points="361.34,-783.32 351.73,-778.85 356.46,-788.33 361.34,-783.32"/>
</g>
<!-- pyqt&#45;&gt;nbgrader -->
<g id="edge23" class="edge">
<title>pyqt&#45;&gt;nbgrader</title>
<path fill="none" stroke="black" d="M384.64,-823.99C355.62,-812.52 305.01,-792.5 269.71,-778.54"/>
<polygon fill="black" stroke="black" points="270.78,-775.2 260.19,-774.77 268.2,-781.71 270.78,-775.2"/>
</g>
<!-- pyqt&#45;&gt;allennlp -->
<g id="edge24" class="edge">
<title>pyqt&#45;&gt;allennlp</title>
<path fill="none" stroke="black" d="M411.61,-816.2C420.92,-774.67 438.73,-665.76 388.42,-600 365.19,-569.64 322.99,-556.64 289.74,-551.09"/>
<polygon fill="black" stroke="black" points="290.15,-547.62 279.74,-549.6 289.12,-554.54 290.15,-547.62"/>
</g>
<!-- pythonocc&#45;core -->
<g id="node25" class="node">
<title>pythonocc&#45;core</title>
<g id="a_node25"><a xlink:href="https://github.com/conda-forge/pythonocc-core-feedstock" xlink:title="pythonocc core">
<ellipse fill="#fde725" stroke="black" cx="500.42" cy="-762" rx="65" ry="18"/>
<text text-anchor="middle" x="500.42" y="-758.3" font-family="Times,serif" font-size="14.00">pythonocc core</text>
</a>
</g>
</g>
<!-- pyqt&#45;&gt;pythonocc&#45;core -->
<g id="edge25" class="edge">
<title>pyqt&#45;&gt;pythonocc&#45;core</title>
<path fill="none" stroke="black" d="M424.91,-819.83C437.87,-810.08 455.85,-796.55 471,-785.14"/>
<polygon fill="black" stroke="black" points="473.2,-787.87 479.09,-779.06 468.99,-782.27 473.2,-787.87"/>
</g>
<!-- qt -->
<g id="node26" class="node">
<title>qt</title>
<g id="a_node26"><a xlink:href="https://github.com/conda-forge/qt-feedstock/pull/168" xlink:title="qt ❎">
<ellipse fill="#31688e" stroke="black" cx="660.42" cy="-906" rx="29.5" ry="18"/>
<text text-anchor="middle" x="660.42" y="-902.3" font-family="Times,serif" font-size="14.00" fill="white">qt ❎</text>
</a>
</g>
</g>
<!-- qt&#45;&gt;pyqt -->
<g id="edge26" class="edge">
<title>qt&#45;&gt;pyqt</title>
<path fill="none" stroke="black" d="M633.19,-898.87C593.55,-889.74 517.76,-871.55 454.42,-852 449.69,-850.54 444.74,-848.89 439.9,-847.2"/>
<polygon fill="black" stroke="black" points="440.81,-843.81 430.22,-843.74 438.46,-850.4 440.81,-843.81"/>
</g>
<!-- pivy -->
<g id="node27" class="node">
<title>pivy</title>
<g id="a_node27"><a xlink:href="https://github.com/conda-forge/pivy-feedstock" xlink:title="pivy">
<ellipse fill="#fde725" stroke="black" cx="657.42" cy="-690" rx="27" ry="18"/>
<text text-anchor="middle" x="657.42" y="-686.3" font-family="Times,serif" font-size="14.00">pivy</text>
</a>
</g>
</g>
<!-- qt&#45;&gt;pivy -->
<g id="edge27" class="edge">
<title>qt&#45;&gt;pivy</title>
<path fill="none" stroke="black" d="M642.67,-891.37C631.66,-881.73 618.49,-867.75 612.42,-852 594.27,-804.92 621.52,-747.54 640.88,-715.56"/>
<polygon fill="black" stroke="black" points="643.98,-717.2 646.33,-706.86 638.05,-713.48 643.98,-717.2"/>
</g>
<!-- pyside2 -->
<g id="node28" class="node">
<title>pyside2</title>
<g id="a_node28"><a xlink:href="https://github.com/conda-forge/pyside2-feedstock" xlink:title="pyside2">
<ellipse fill="#fde725" stroke="black" cx="660.42" cy="-834" rx="38.5" ry="18"/>
<text text-anchor="middle" x="660.42" y="-830.3" font-family="Times,serif" font-size="14.00">pyside2</text>
</a>
</g>
</g>
<!-- qt&#45;&gt;pyside2 -->
<g id="edge28" class="edge">
<title>qt&#45;&gt;pyside2</title>
<path fill="none" stroke="black" d="M660.42,-887.7C660.42,-879.98 660.42,-870.71 660.42,-862.11"/>
<polygon fill="black" stroke="black" points="663.92,-862.1 660.42,-852.1 656.92,-862.1 663.92,-862.1"/>
</g>
<!-- soqt -->
<g id="node29" class="node">
<title>soqt</title>
<g id="a_node29"><a xlink:href="https://github.com/conda-forge/soqt-feedstock" xlink:title="soqt">
<ellipse fill="#fde725" stroke="black" cx="712.42" cy="-762" rx="27" ry="18"/>
<text text-anchor="middle" x="712.42" y="-758.3" font-family="Times,serif" font-size="14.00">soqt</text>
</a>
</g>
</g>
<!-- qt&#45;&gt;soqt -->
<g id="edge29" class="edge">
<title>qt&#45;&gt;soqt</title>
<path fill="none" stroke="black" d="M677.52,-891.18C688.18,-881.46 701.05,-867.46 707.42,-852 715.46,-832.47 716.35,-808.48 715.43,-790.32"/>
<polygon fill="black" stroke="black" points="718.9,-789.85 714.69,-780.13 711.92,-790.36 718.9,-789.85"/>
</g>
<!-- geant4 -->
<g id="node30" class="node">
<title>geant4</title>
<g id="a_node30"><a xlink:href="https://github.com/conda-forge/geant4-feedstock" xlink:title="geant4">
<ellipse fill="#fde725" stroke="black" cx="767.42" cy="-690" rx="34.5" ry="18"/>
<text text-anchor="middle" x="767.42" y="-686.3" font-family="Times,serif" font-size="14.00">geant4</text>
</a>
</g>
</g>
<!-- qt&#45;&gt;geant4 -->
<g id="edge30" class="edge">
<title>qt&#45;&gt;geant4</title>
<path fill="none" stroke="black" d="M680.68,-893C695.05,-883.53 713.78,-869.09 725.42,-852 753.45,-810.85 762.77,-752.14 765.87,-718.16"/>
<polygon fill="black" stroke="black" points="769.37,-718.29 766.68,-708.05 762.4,-717.74 769.37,-718.29"/>
</g>
<!-- pyside2&#45;&gt;pivy -->
<g id="edge31" class="edge">
<title>pyside2&#45;&gt;pivy</title>
<path fill="none" stroke="black" d="M660.06,-815.87C659.55,-791.67 658.61,-747.21 658,-718.39"/>
<polygon fill="black" stroke="black" points="661.49,-718.11 657.78,-708.19 654.49,-718.26 661.49,-718.11"/>
</g>
<!-- soqt&#45;&gt;pivy -->
<g id="edge32" class="edge">
<title>soqt&#45;&gt;pivy</title>
<path fill="none" stroke="black" d="M700.48,-745.81C693.2,-736.55 683.76,-724.52 675.56,-714.09"/>
<polygon fill="black" stroke="black" points="678.26,-711.86 669.33,-706.16 672.76,-716.18 678.26,-711.86"/>
</g>
<!-- r&#45;units -->
<g id="node31" class="node">
<title>r&#45;units</title>
<g id="a_node31"><a xlink:href="https://github.com/conda-forge/r-units-feedstock" xlink:title="r units">
<ellipse fill="#fde725" stroke="black" cx="1369.42" cy="-726" rx="33.29" ry="18"/>
<text text-anchor="middle" x="1369.42" y="-722.3" font-family="Times,serif" font-size="14.00">r units</text>
</a>
</g>
</g>
<!-- r&#45;units&#45;&gt;r&#45;sf -->
<g id="edge33" class="edge">
<title>r&#45;units&#45;&gt;r&#45;sf</title>
<path fill="none" stroke="black" d="M1363.12,-708.05C1360.15,-700.06 1356.54,-690.33 1353.22,-681.4"/>
<polygon fill="black" stroke="black" points="1356.42,-679.94 1349.65,-671.79 1349.86,-682.38 1356.42,-679.94"/>
</g>
<!-- singularity -->
<g id="node32" class="node">
<title>singularity</title>
<g id="a_node32"><a xlink:href="https://github.com/conda-forge/singularity-feedstock" xlink:title="singularity">
<ellipse fill="#fde725" stroke="black" cx="922.42" cy="-134" rx="48.19" ry="18"/>
<text text-anchor="middle" x="922.42" y="-130.3" font-family="Times,serif" font-size="14.00">singularity</text>
</a>
</g>
</g>
<!-- root_numpy -->
<g id="node36" class="node">
<title>root_numpy</title>
<g id="a_node36"><a xlink:href="https://github.com/conda-forge/root_numpy-feedstock/pull/19" xlink:title="root_numpy ❎">
<ellipse fill="#31688e" stroke="black" cx="922.42" cy="-870" rx="65.79" ry="18"/>
<text text-anchor="middle" x="922.42" y="-866.3" font-family="Times,serif" font-size="14.00" fill="white">root_numpy ❎</text>
</a>
</g>
</g>
<!-- pypy2.7&#45;&gt;root_numpy -->
<!-- thrift -->
<g id="node34" class="node">
<title>thrift</title>
<g id="a_node34"><a xlink:href="https://github.com/conda-forge/thrift-feedstock/pull/17" xlink:title="thrift ✓">
<ellipse fill="#31688e" stroke="black" cx="400.42" cy="-206" rx="38.5" ry="18"/>
<text text-anchor="middle" x="400.42" y="-202.3" font-family="Times,serif" font-size="14.00" fill="white">thrift ✓</text>
</a>
</g>
</g>
<!-- thrift&#45;&gt;fastparquet -->
<g id="edge35" class="edge">
<title>thrift&#45;&gt;fastparquet</title>
<path fill="none" stroke="black" d="M400.42,-187.7C400.42,-179.98 400.42,-170.71 400.42,-162.11"/>
<polygon fill="black" stroke="black" points="403.92,-162.1 400.42,-152.1 396.92,-162.1 403.92,-162.1"/>
</g>
<!-- udunits2 -->
<g id="node35" class="node">
<title>udunits2</title>
<g id="a_node35"><a xlink:href="https://github.com/conda-forge/udunits2-feedstock/pull/32" xlink:title="udunits2 ❎">
<ellipse fill="#31688e" stroke="black" cx="1396.42" cy="-798" rx="52.79" ry="18"/>
<text text-anchor="middle" x="1396.42" y="-794.3" font-family="Times,serif" font-size="14.00" fill="white">udunits2 ❎</text>
</a>
</g>
</g>
<!-- udunits2&#45;&gt;r&#45;units -->
<g id="edge36" class="edge">
<title>udunits2&#45;&gt;r&#45;units</title>
<path fill="none" stroke="black" d="M1389.88,-780.05C1386.8,-772.06 1383.05,-762.33 1379.6,-753.4"/>
<polygon fill="black" stroke="black" points="1382.76,-751.86 1375.89,-743.79 1376.23,-754.38 1382.76,-751.86"/>
</g>
<!-- ibm_db -->
<g id="node42" class="node">
<title>ibm_db</title>
<g id="a_node42"><a xlink:href="https://github.com/conda-forge/ibm_db-feedstock/pull/10" xlink:title="ibm_db ❎">
<ellipse fill="#31688e" stroke="black" cx="922.42" cy="-798" rx="50.09" ry="18"/>
<text text-anchor="middle" x="922.42" y="-794.3" font-family="Times,serif" font-size="14.00" fill="white">ibm_db ❎</text>
</a>
</g>
</g>
<!-- root_numpy&#45;&gt;ibm_db -->
<!-- tiledb -->
<g id="node37" class="node">
<title>tiledb</title>
<g id="a_node37"><a xlink:href="https://github.com/conda-forge/tiledb-feedstock/pull/80" xlink:title="tiledb ❎">
<ellipse fill="#31688e" stroke="black" cx="1283.42" cy="-798" rx="42.49" ry="18"/>
<text text-anchor="middle" x="1283.42" y="-794.3" font-family="Times,serif" font-size="14.00" fill="white">tiledb ❎</text>
</a>
</g>
</g>
<!-- tiledb&#45;&gt;gdal -->
<g id="edge38" class="edge">
<title>tiledb&#45;&gt;gdal</title>
<path fill="none" stroke="black" d="M1267.53,-781.12C1257.93,-771.51 1245.55,-759.13 1235.05,-748.63"/>
<polygon fill="black" stroke="black" points="1237.36,-745.99 1227.81,-741.39 1232.41,-750.94 1237.36,-745.99"/>
</g>
<!-- libsvm -->
<g id="node38" class="node">
<title>libsvm</title>
<g id="a_node38"><a xlink:href="https://github.com/conda-forge/libsvm-feedstock/pull/16" xlink:title="libsvm ❎">
<ellipse fill="#31688e" stroke="black" cx="1246.42" cy="-206" rx="47" ry="18"/>
<text text-anchor="middle" x="1246.42" y="-202.3" font-family="Times,serif" font-size="14.00" fill="white">libsvm ❎</text>
</a>
</g>
</g>
<!-- cctbx&#45;base -->
<g id="node39" class="node">
<title>cctbx&#45;base</title>
<g id="a_node39"><a xlink:href="https://github.com/conda-forge/cctbx-base-feedstock" xlink:title="cctbx base">
<ellipse fill="#fde725" stroke="black" cx="1246.42" cy="-134" rx="48.19" ry="18"/>
<text text-anchor="middle" x="1246.42" y="-130.3" font-family="Times,serif" font-size="14.00">cctbx base</text>
</a>
</g>
</g>
<!-- libsvm&#45;&gt;cctbx&#45;base -->
<g id="edge39" class="edge">
<title>libsvm&#45;&gt;cctbx&#45;base</title>
<path fill="none" stroke="black" d="M1246.42,-187.7C1246.42,-179.98 1246.42,-170.71 1246.42,-162.11"/>
<polygon fill="black" stroke="black" points="1249.92,-162.1 1246.42,-152.1 1242.92,-162.1 1249.92,-162.1"/>
</g>
<!-- occt -->
<g id="node40" class="node">
<title>occt</title>
<g id="a_node40"><a xlink:href="https://github.com/conda-forge/occt-feedstock/pull/59" xlink:title="occt ❎">
<ellipse fill="#31688e" stroke="black" cx="500.42" cy="-834" rx="37.09" ry="18"/>
<text text-anchor="middle" x="500.42" y="-830.3" font-family="Times,serif" font-size="14.00" fill="white">occt ❎</text>
</a>
</g>
</g>
<!-- occt&#45;&gt;pythonocc&#45;core -->
<g id="edge40" class="edge">
<title>occt&#45;&gt;pythonocc&#45;core</title>
<path fill="none" stroke="black" d="M500.42,-815.7C500.42,-807.98 500.42,-798.71 500.42,-790.11"/>
<polygon fill="black" stroke="black" points="503.92,-790.1 500.42,-780.1 496.92,-790.1 503.92,-790.1"/>
</g>
<!-- pytorch&#45;pretrained&#45;bert&#45;&gt;allennlp -->
<g id="edge43" class="edge">
<title>pytorch&#45;pretrained&#45;bert&#45;&gt;allennlp</title>
<path fill="none" stroke="black" d="M179.27,-600.05C190.28,-590.65 204.1,-578.86 215.91,-568.78"/>
<polygon fill="black" stroke="black" points="218.37,-571.28 223.7,-562.12 213.83,-565.95 218.37,-571.28"/>
</g>
<!-- cudatoolkit -->
<g id="node46" class="node">
<title>cudatoolkit</title>
<g id="a_node46"><a xlink:href="https://github.com/conda-forge/cudatoolkit-feedstock/pull/4" xlink:title="cudatoolkit ❎">
<ellipse fill="#31688e" stroke="black" cx="922.42" cy="-726" rx="61.99" ry="18"/>
<text text-anchor="middle" x="922.42" y="-722.3" font-family="Times,serif" font-size="14.00" fill="white">cudatoolkit ❎</text>
</a>
</g>
</g>
<!-- ibm_db&#45;&gt;cudatoolkit -->
<!-- go&#45;dep -->
<g id="node43" class="node">
<title>go&#45;dep</title>
<g id="a_node43"><a xlink:href="https://github.com/conda-forge/go-dep-feedstock/pull/12" xlink:title="go dep ❎">
<ellipse fill="#31688e" stroke="black" cx="922.42" cy="-206" rx="46.29" ry="18"/>
<text text-anchor="middle" x="922.42" y="-202.3" font-family="Times,serif" font-size="14.00" fill="white">go dep ❎</text>
</a>
</g>
</g>
<!-- go&#45;dep&#45;&gt;singularity -->
<g id="edge44" class="edge">
<title>go&#45;dep&#45;&gt;singularity</title>
<path fill="none" stroke="black" d="M922.42,-187.7C922.42,-179.98 922.42,-170.71 922.42,-162.11"/>
<polygon fill="black" stroke="black" points="925.92,-162.1 922.42,-152.1 918.92,-162.1 925.92,-162.1"/>
</g>
<!-- procps&#45;ng -->
<g id="node44" class="node">
<title>procps&#45;ng</title>
<g id="a_node44"><a xlink:href="https://github.com/conda-forge/procps-ng-feedstock/pull/3" xlink:title="procps ng ✓">
<ellipse fill="#31688e" stroke="black" cx="1246.42" cy="-322" rx="56" ry="18"/>
<text text-anchor="middle" x="1246.42" y="-318.3" font-family="Times,serif" font-size="14.00" fill="white">procps ng ✓</text>
</a>
</g>
</g>
<!-- myproxy -->
<g id="node45" class="node">
<title>myproxy</title>
<g id="a_node45"><a xlink:href="https://github.com/conda-forge/myproxy-feedstock" xlink:title="myproxy">
<ellipse fill="#fde725" stroke="black" cx="1246.42" cy="-250" rx="43" ry="18"/>
<text text-anchor="middle" x="1246.42" y="-246.3" font-family="Times,serif" font-size="14.00">myproxy</text>
</a>
</g>
</g>
<!-- procps&#45;ng&#45;&gt;myproxy -->
<g id="edge45" class="edge">
<title>procps&#45;ng&#45;&gt;myproxy</title>
<path fill="none" stroke="black" d="M1246.42,-303.7C1246.42,-295.98 1246.42,-286.71 1246.42,-278.11"/>
<polygon fill="black" stroke="black" points="1249.92,-278.1 1246.42,-268.1 1242.92,-278.1 1249.92,-278.1"/>
</g>
<!-- libusb -->
<g id="node47" class="node">
<title>libusb</title>
<g id="a_node47"><a xlink:href="https://github.com/conda-forge/libusb-feedstock/pull/8" xlink:title="libusb ❎">
<ellipse fill="#31688e" stroke="black" cx="922.42" cy="-654" rx="44.39" ry="18"/>
<text text-anchor="middle" x="922.42" y="-650.3" font-family="Times,serif" font-size="14.00" fill="white">libusb ❎</text>
</a>
</g>
</g>
<!-- cudatoolkit&#45;&gt;libusb -->
<!-- clang&#45;compiler&#45;activation -->
<g id="node48" class="node">
<title>clang&#45;compiler&#45;activation</title>
<g id="a_node48"><a xlink:href="https://github.com/conda-forge/clang-compiler-activation-feedstock/pull/48" xlink:title="clang compiler activation ❎">
<ellipse fill="#31688e" stroke="black" cx="922.42" cy="-582" rx="112.5" ry="18"/>
<text text-anchor="middle" x="922.42" y="-578.3" font-family="Times,serif" font-size="14.00" fill="white">clang compiler activation ❎</text>
</a>
</g>
</g>
<!-- libusb&#45;&gt;clang&#45;compiler&#45;activation -->
<!-- proj -->
<g id="node49" class="node">
<title>proj</title>
<g id="a_node49"><a xlink:href="https://github.com/conda-forge/proj-feedstock" xlink:title="proj">
<ellipse fill="#35b779" stroke="black" cx="922.42" cy="-510" rx="27" ry="18"/>
<text text-anchor="middle" x="922.42" y="-506.3" font-family="Times,serif" font-size="14.00">proj</text>
</a>
</g>
</g>
<!-- clang&#45;compiler&#45;activation&#45;&gt;proj -->
<!-- ompl -->
<g id="node50" class="node">
<title>ompl</title>
<g id="a_node50"><a xlink:href="https://github.com/conda-forge/ompl-feedstock/pull/8" xlink:title="ompl ❎">
<ellipse fill="#31688e" stroke="black" cx="922.42" cy="-438" rx="41" ry="18"/>
<text text-anchor="middle" x="922.42" y="-434.3" font-family="Times,serif" font-size="14.00" fill="white">ompl ❎</text>
</a>
</g>
</g>
<!-- proj&#45;&gt;ompl -->
<!-- nordugrid&#45;arc -->
<g id="node53" class="node">
<title>nordugrid&#45;arc</title>
<g id="a_node53"><a xlink:href="https://github.com/conda-forge/nordugrid-arc-feedstock/pull/14" xlink:title="nordugrid arc ❎">
<ellipse fill="#31688e" stroke="black" cx="922.42" cy="-366" rx="70.39" ry="18"/>
<text text-anchor="middle" x="922.42" y="-362.3" font-family="Times,serif" font-size="14.00" fill="white">nordugrid arc ❎</text>
</a>
</g>
</g>
<!-- ompl&#45;&gt;nordugrid&#45;arc -->
<!-- _openmp_mutex -->
<g id="node51" class="node">
<title>_openmp_mutex</title>
<g id="a_node51"><a xlink:href="https://github.com/conda-forge/_openmp_mutex-feedstock/pull/5" xlink:title="_openmp_mutex ✓">
<ellipse fill="#31688e" stroke="black" cx="922.42" cy="-322" rx="81.49" ry="18"/>
<text text-anchor="middle" x="922.42" y="-318.3" font-family="Times,serif" font-size="14.00" fill="white">_openmp_mutex ✓</text>
</a>
</g>
</g>
<!-- r&#45;conquer -->
<g id="node52" class="node">
<title>r&#45;conquer</title>
<g id="a_node52"><a xlink:href="https://github.com/conda-forge/r-conquer-feedstock" xlink:title="r conquer">
<ellipse fill="#fde725" stroke="black" cx="922.42" cy="-250" rx="44.39" ry="18"/>
<text text-anchor="middle" x="922.42" y="-246.3" font-family="Times,serif" font-size="14.00">r conquer</text>
</a>
</g>
</g>
<!-- _openmp_mutex&#45;&gt;r&#45;conquer -->
<g id="edge51" class="edge">
<title>_openmp_mutex&#45;&gt;r&#45;conquer</title>
<path fill="none" stroke="black" d="M922.42,-303.7C922.42,-295.98 922.42,-286.71 922.42,-278.11"/>
<polygon fill="black" stroke="black" points="925.92,-278.1 922.42,-268.1 918.92,-278.1 925.92,-278.1"/>
</g>
<!-- s2n -->
<g id="node54" class="node">
<title>s2n</title>
<g id="a_node54"><a xlink:href="https://github.com/conda-forge/s2n-feedstock/pull/11" xlink:title="s2n ❎">
<ellipse fill="#31688e" stroke="black" cx="922.42" cy="-90" rx="34.5" ry="18"/>
<text text-anchor="middle" x="922.42" y="-86.3" font-family="Times,serif" font-size="14.00" fill="white">s2n ❎</text>
</a>
</g>
</g>
<!-- aws&#45;c&#45;io -->
<g id="node55" class="node">
<title>aws&#45;c&#45;io</title>
<g id="a_node55"><a xlink:href="https://github.com/conda-forge/aws-c-io-feedstock" xlink:title="aws c io">
<ellipse fill="#fde725" stroke="black" cx="922.42" cy="-18" rx="40.5" ry="18"/>
<text text-anchor="middle" x="922.42" y="-14.3" font-family="Times,serif" font-size="14.00">aws c io</text>
</a>
</g>
</g>
<!-- s2n&#45;&gt;aws&#45;c&#45;io -->
<g id="edge53" class="edge">
<title>s2n&#45;&gt;aws&#45;c&#45;io</title>
<path fill="none" stroke="black" d="M922.42,-71.7C922.42,-63.98 922.42,-54.71 922.42,-46.11"/>
<polygon fill="black" stroke="black" points="925.92,-46.1 922.42,-36.1 918.92,-46.1 925.92,-46.1"/>
</g>
</g>
</svg>
