<?xml version="1.0" encoding="UTF-8" standalone="no"?>
<!DOCTYPE svg PUBLIC "-//W3C//DTD SVG 1.1//EN"
 "http://www.w3.org/Graphics/SVG/1.1/DTD/svg11.dtd">
<!-- Generated by graphviz version 2.47.1 (20210418.0311)
 -->
<!-- Pages: 1 -->
<svg width="1837pt" height="880pt"
 viewBox="0.00 0.00 1836.55 880.00" xmlns="http://www.w3.org/2000/svg" xmlns:xlink="http://www.w3.org/1999/xlink">
<g id="graph0" class="graph" transform="scale(1 1) rotate(0) translate(4 876)">
<polygon fill="white" stroke="transparent" points="-4,4 -4,-876 1832.55,-876 1832.55,4 -4,4"/>
<!-- elfutils -->
<g id="node1" class="node">
<title>elfutils</title>
<g id="a_node1"><a xlink:href="https://github.com/conda-forge/elfutils-feedstock/pull/20" xlink:title="elfutils ❎">
<ellipse fill="#31688e" stroke="black" cx="1183.55" cy="-566" rx="56" ry="18"/>
<text text-anchor="middle" x="1183.55" y="-562.3" font-family="Times-Roman" font-size="14.00" fill="white">elfutils ❎</text>
</a>
</g>
</g>
<!-- heaptrack -->
<g id="node2" class="node">
<title>heaptrack</title>
<g id="a_node2"><a xlink:href="https://github.com/conda-forge/heaptrack-feedstock" xlink:title="heaptrack">
<ellipse fill="#fde725" stroke="black" cx="1188.55" cy="-494" rx="58" ry="18"/>
<text text-anchor="middle" x="1188.55" y="-490.3" font-family="Times-Roman" font-size="14.00">heaptrack</text>
</a>
</g>
</g>
<!-- elfutils&#45;&gt;heaptrack -->
<g id="edge1" class="edge">
<title>elfutils&#45;&gt;heaptrack</title>
<path fill="none" stroke="black" d="M1184.78,-547.7C1185.33,-539.98 1186,-530.71 1186.61,-522.11"/>
<polygon fill="black" stroke="black" points="1190.1,-522.33 1187.32,-512.1 1183.12,-521.83 1190.1,-522.33"/>
</g>
<!-- googleapis&#45;common&#45;protos -->
<g id="node3" class="node">
<title>googleapis&#45;common&#45;protos</title>
<g id="a_node3"><a xlink:href="https://github.com/conda-forge/googleapis-common-protos-feedstock/pull/26" xlink:title="googleapis common protos ❎">
<ellipse fill="#31688e" stroke="black" cx="967.55" cy="-854" rx="152.17" ry="18"/>
<text text-anchor="middle" x="967.55" y="-850.3" font-family="Times-Roman" font-size="14.00" fill="white">googleapis common protos ❎</text>
</a>
</g>
</g>
<!-- root_numpy -->
<g id="node4" class="node">
<title>root_numpy</title>
<g id="a_node4"><a xlink:href="https://github.com/conda-forge/root_numpy-feedstock/pull/21" xlink:title="root_numpy ❎">
<ellipse fill="#31688e" stroke="black" cx="967.55" cy="-782" rx="81.49" ry="18"/>
<text text-anchor="middle" x="967.55" y="-778.3" font-family="Times-Roman" font-size="14.00" fill="white">root_numpy ❎</text>
</a>
</g>
</g>
<!-- googleapis&#45;common&#45;protos&#45;&gt;root_numpy -->
<!-- r&#45;grf -->
<g id="node26" class="node">
<title>r&#45;grf</title>
<g id="a_node26"><a xlink:href="https://github.com/conda-forge/r-grf-feedstock/pull/10" xlink:title="r grf ❎">
<ellipse fill="#31688e" stroke="black" cx="967.55" cy="-710" rx="45" ry="18"/>
<text text-anchor="middle" x="967.55" y="-706.3" font-family="Times-Roman" font-size="14.00" fill="white">r grf ❎</text>
</a>
</g>
</g>
<!-- root_numpy&#45;&gt;r&#45;grf -->
<!-- hyperspy -->
<g id="node5" class="node">
<title>hyperspy</title>
<g id="a_node5"><a xlink:href="https://github.com/conda-forge/hyperspy-feedstock" xlink:title="hyperspy">
<ellipse fill="#fde725" stroke="black" cx="421.55" cy="-422" rx="54" ry="18"/>
<text text-anchor="middle" x="421.55" y="-418.3" font-family="Times-Roman" font-size="14.00">hyperspy</text>
</a>
</g>
</g>
<!-- libunwind -->
<g id="node6" class="node">
<title>libunwind</title>
<g id="a_node6"><a xlink:href="https://github.com/conda-forge/libunwind-feedstock/pull/14" xlink:title="libunwind ❎">
<ellipse fill="#31688e" stroke="black" cx="1327.55" cy="-566" rx="69.59" ry="18"/>
<text text-anchor="middle" x="1327.55" y="-562.3" font-family="Times-Roman" font-size="14.00" fill="white">libunwind ❎</text>
</a>
</g>
</g>
<!-- libunwind&#45;&gt;heaptrack -->
<g id="edge3" class="edge">
<title>libunwind&#45;&gt;heaptrack</title>
<path fill="none" stroke="black" d="M1297.04,-549.64C1276.34,-539.21 1248.82,-525.36 1226.68,-514.2"/>
<polygon fill="black" stroke="black" points="1228.06,-510.98 1217.55,-509.61 1224.91,-517.23 1228.06,-510.98"/>
</g>
<!-- gperftools -->
<g id="node7" class="node">
<title>gperftools</title>
<g id="a_node7"><a xlink:href="https://github.com/conda-forge/gperftools-feedstock" xlink:title="gperftools">
<ellipse fill="#fde725" stroke="black" cx="1324.55" cy="-494" rx="58" ry="18"/>
<text text-anchor="middle" x="1324.55" y="-490.3" font-family="Times-Roman" font-size="14.00">gperftools</text>
</a>
</g>
</g>
<!-- libunwind&#45;&gt;gperftools -->
<g id="edge4" class="edge">
<title>libunwind&#45;&gt;gperftools</title>
<path fill="none" stroke="black" d="M1326.8,-547.7C1326.47,-539.98 1326.08,-530.71 1325.71,-522.11"/>
<polygon fill="black" stroke="black" points="1329.2,-521.95 1325.28,-512.1 1322.21,-522.25 1329.2,-521.95"/>
</g>
<!-- py&#45;spy -->
<g id="node8" class="node">
<title>py&#45;spy</title>
<g id="a_node8"><a xlink:href="https://github.com/conda-forge/py-spy-feedstock" xlink:title="py spy">
<ellipse fill="#fde725" stroke="black" cx="1435.55" cy="-422" rx="41" ry="18"/>
<text text-anchor="middle" x="1435.55" y="-418.3" font-family="Times-Roman" font-size="14.00">py spy</text>
</a>
</g>
</g>
<!-- libunwind&#45;&gt;py&#45;spy -->
<g id="edge5" class="edge">
<title>libunwind&#45;&gt;py&#45;spy</title>
<path fill="none" stroke="black" d="M1351.57,-548.91C1364.59,-539.32 1380.27,-526.26 1391.55,-512 1406.59,-492.98 1418.39,-467.98 1425.97,-449.32"/>
<polygon fill="black" stroke="black" points="1429.25,-450.53 1429.64,-439.94 1422.73,-447.98 1429.25,-450.53"/>
</g>
<!-- sentencepiece -->
<g id="node9" class="node">
<title>sentencepiece</title>
<g id="a_node9"><a xlink:href="https://github.com/conda-forge/sentencepiece-feedstock" xlink:title="sentencepiece">
<ellipse fill="#fde725" stroke="black" cx="1298.55" cy="-422" rx="78" ry="18"/>
<text text-anchor="middle" x="1298.55" y="-418.3" font-family="Times-Roman" font-size="14.00">sentencepiece</text>
</a>
</g>
</g>
<!-- gperftools&#45;&gt;sentencepiece -->
<g id="edge6" class="edge">
<title>gperftools&#45;&gt;sentencepiece</title>
<path fill="none" stroke="black" d="M1318.25,-476.05C1315.33,-468.18 1311.78,-458.62 1308.5,-449.79"/>
<polygon fill="black" stroke="black" points="1311.73,-448.43 1304.96,-440.28 1305.16,-450.87 1311.73,-448.43"/>
</g>
<!-- allennlp -->
<g id="node24" class="node">
<title>allennlp</title>
<g id="a_node24"><a xlink:href="https://github.com/conda-forge/allennlp-feedstock" xlink:title="allennlp">
<ellipse fill="#fde725" stroke="black" cx="1601.55" cy="-350" rx="47.5" ry="18"/>
<text text-anchor="middle" x="1601.55" y="-346.3" font-family="Times-Roman" font-size="14.00">allennlp</text>
</a>
</g>
</g>
<!-- sentencepiece&#45;&gt;allennlp -->
<g id="edge24" class="edge">
<title>sentencepiece&#45;&gt;allennlp</title>
<path fill="none" stroke="black" d="M1351.67,-408.73C1408.23,-395.66 1497.03,-375.15 1552.13,-362.42"/>
<polygon fill="black" stroke="black" points="1553.06,-365.79 1562.01,-360.13 1551.48,-358.97 1553.06,-365.79"/>
</g>
<!-- portaudio -->
<g id="node10" class="node">
<title>portaudio</title>
<g id="a_node10"><a xlink:href="https://github.com/conda-forge/portaudio-feedstock/pull/15" xlink:title="portaudio ✓">
<ellipse fill="#31688e" stroke="black" cx="740.55" cy="-494" rx="66.5" ry="18"/>
<text text-anchor="middle" x="740.55" y="-490.3" font-family="Times-Roman" font-size="14.00" fill="white">portaudio ✓</text>
</a>
</g>
</g>
<!-- gnuradio -->
<g id="node11" class="node">
<title>gnuradio</title>
<g id="a_node11"><a xlink:href="https://github.com/conda-forge/gnuradio-feedstock" xlink:title="gnuradio">
<ellipse fill="#fde725" stroke="black" cx="583.55" cy="-422" rx="52" ry="18"/>
<text text-anchor="middle" x="583.55" y="-418.3" font-family="Times-Roman" font-size="14.00">gnuradio</text>
</a>
</g>
</g>
<!-- portaudio&#45;&gt;gnuradio -->
<g id="edge7" class="edge">
<title>portaudio&#45;&gt;gnuradio</title>
<path fill="none" stroke="black" d="M707.63,-478.33C683.05,-467.36 649.33,-452.33 623.25,-440.7"/>
<polygon fill="black" stroke="black" points="624.58,-437.46 614.02,-436.59 621.73,-443.86 624.58,-437.46"/>
</g>
<!-- pyqt -->
<g id="node12" class="node">
<title>pyqt</title>
<g id="a_node12"><a xlink:href="https://github.com/conda-forge/pyqt-feedstock" xlink:title="pyqt">
<ellipse fill="#fde725" stroke="black" cx="412.55" cy="-494" rx="31.4" ry="18"/>
<text text-anchor="middle" x="412.55" y="-490.3" font-family="Times-Roman" font-size="14.00">pyqt</text>
</a>
</g>
</g>
<!-- pyqt&#45;&gt;hyperspy -->
<g id="edge8" class="edge">
<title>pyqt&#45;&gt;hyperspy</title>
<path fill="none" stroke="black" d="M414.77,-475.7C415.76,-467.98 416.95,-458.71 418.06,-450.11"/>
<polygon fill="black" stroke="black" points="421.54,-450.47 419.35,-440.1 414.6,-449.58 421.54,-450.47"/>
</g>
<!-- pyqt&#45;&gt;gnuradio -->
<g id="edge9" class="edge">
<title>pyqt&#45;&gt;gnuradio</title>
<path fill="none" stroke="black" d="M437.41,-482.82C464.81,-471.61 509.33,-453.38 542.04,-439.99"/>
<polygon fill="black" stroke="black" points="543.42,-443.21 551.35,-436.18 540.77,-436.73 543.42,-443.21"/>
</g>
<!-- pythonocc&#45;core -->
<g id="node13" class="node">
<title>pythonocc&#45;core</title>
<g id="a_node13"><a xlink:href="https://github.com/conda-forge/pythonocc-core-feedstock" xlink:title="pythonocc core">
<ellipse fill="#fde725" stroke="black" cx="503.55" cy="-350" rx="82" ry="18"/>
<text text-anchor="middle" x="503.55" y="-346.3" font-family="Times-Roman" font-size="14.00">pythonocc core</text>
</a>
</g>
</g>
<!-- pyqt&#45;&gt;pythonocc&#45;core -->
<g id="edge10" class="edge">
<title>pyqt&#45;&gt;pythonocc&#45;core</title>
<path fill="none" stroke="black" d="M435.89,-481.65C452.04,-472.6 472.68,-458.39 484.55,-440 496.44,-421.58 501.02,-396.98 502.72,-378.31"/>
<polygon fill="black" stroke="black" points="506.23,-378.31 503.43,-368.1 499.25,-377.83 506.23,-378.31"/>
</g>
<!-- qt -->
<g id="node14" class="node">
<title>qt</title>
<g id="a_node14"><a xlink:href="https://github.com/conda-forge/qt-feedstock/pull/184" xlink:title="qt ❎">
<ellipse fill="#31688e" stroke="black" cx="262.55" cy="-566" rx="34.5" ry="18"/>
<text text-anchor="middle" x="262.55" y="-562.3" font-family="Times-Roman" font-size="14.00" fill="white">qt ❎</text>
</a>
</g>
</g>
<!-- qt&#45;&gt;gnuradio -->
<g id="edge11" class="edge">
<title>qt&#45;&gt;gnuradio</title>
<path fill="none" stroke="black" d="M295.66,-560.73C335.12,-554.56 402.03,-540.6 452.55,-512 472.79,-500.54 471.86,-489.86 490.55,-476 507.67,-463.3 528.13,-451.33 545.49,-442"/>
<polygon fill="black" stroke="black" points="547.57,-444.86 554.78,-437.09 544.3,-438.67 547.57,-444.86"/>
</g>
<!-- qt&#45;&gt;pyqt -->
<g id="edge12" class="edge">
<title>qt&#45;&gt;pyqt</title>
<path fill="none" stroke="black" d="M287.32,-553.44C312.47,-541.7 351.59,-523.45 379.41,-510.47"/>
<polygon fill="black" stroke="black" points="381.15,-513.51 388.73,-506.11 378.19,-507.17 381.15,-513.51"/>
</g>
<!-- qwt -->
<g id="node15" class="node">
<title>qwt</title>
<g id="a_node15"><a xlink:href="https://github.com/conda-forge/qwt-feedstock" xlink:title="qwt">
<ellipse fill="#fde725" stroke="black" cx="527.55" cy="-494" rx="28" ry="18"/>
<text text-anchor="middle" x="527.55" y="-490.3" font-family="Times-Roman" font-size="14.00">qwt</text>
</a>
</g>
</g>
<!-- qt&#45;&gt;qwt -->
<g id="edge13" class="edge">
<title>qt&#45;&gt;qwt</title>
<path fill="none" stroke="black" d="M294.35,-559.02C337.99,-550.46 418.64,-533.36 485.55,-512 488.87,-510.94 492.3,-509.74 495.7,-508.47"/>
<polygon fill="black" stroke="black" points="497.06,-511.7 505.11,-504.81 494.52,-505.18 497.06,-511.7"/>
</g>
<!-- pivy -->
<g id="node16" class="node">
<title>pivy</title>
<g id="a_node16"><a xlink:href="https://github.com/conda-forge/pivy-feedstock" xlink:title="pivy">
<ellipse fill="#fde725" stroke="black" cx="161.55" cy="-350" rx="30" ry="18"/>
<text text-anchor="middle" x="161.55" y="-346.3" font-family="Times-Roman" font-size="14.00">pivy</text>
</a>
</g>
</g>
<!-- qt&#45;&gt;pivy -->
<g id="edge14" class="edge">
<title>qt&#45;&gt;pivy</title>
<path fill="none" stroke="black" d="M243.1,-551.04C230.94,-541.37 215.88,-527.47 206.55,-512 180.85,-469.39 169.39,-411.64 164.62,-378.14"/>
<polygon fill="black" stroke="black" points="168.08,-377.62 163.3,-368.17 161.14,-378.54 168.08,-377.62"/>
</g>
<!-- pyside2 -->
<g id="node17" class="node">
<title>pyside2</title>
<g id="a_node17"><a xlink:href="https://github.com/conda-forge/pyside2-feedstock" xlink:title="pyside2">
<ellipse fill="#fde725" stroke="black" cx="262.55" cy="-494" rx="47" ry="18"/>
<text text-anchor="middle" x="262.55" y="-490.3" font-family="Times-Roman" font-size="14.00">pyside2</text>
</a>
</g>
</g>
<!-- qt&#45;&gt;pyside2 -->
<g id="edge15" class="edge">
<title>qt&#45;&gt;pyside2</title>
<path fill="none" stroke="black" d="M262.55,-547.7C262.55,-539.98 262.55,-530.71 262.55,-522.11"/>
<polygon fill="black" stroke="black" points="266.05,-522.1 262.55,-512.1 259.05,-522.1 266.05,-522.1"/>
</g>
<!-- soqt -->
<g id="node18" class="node">
<title>soqt</title>
<g id="a_node18"><a xlink:href="https://github.com/conda-forge/soqt-feedstock" xlink:title="soqt">
<ellipse fill="#fde725" stroke="black" cx="102.55" cy="-422" rx="30.59" ry="18"/>
<text text-anchor="middle" x="102.55" y="-418.3" font-family="Times-Roman" font-size="14.00">soqt</text>
</a>
</g>
</g>
<!-- qt&#45;&gt;soqt -->
<g id="edge16" class="edge">
<title>qt&#45;&gt;soqt</title>
<path fill="none" stroke="black" d="M232.44,-557.2C207.16,-549.34 171.44,-535.04 147.55,-512 129.61,-494.7 117.62,-468.73 110.56,-449.3"/>
<polygon fill="black" stroke="black" points="113.86,-448.14 107.31,-439.81 107.24,-450.41 113.86,-448.14"/>
</g>
<!-- geant4 -->
<g id="node19" class="node">
<title>geant4</title>
<g id="a_node19"><a xlink:href="https://github.com/conda-forge/geant4-feedstock" xlink:title="geant4">
<ellipse fill="#fde725" stroke="black" cx="43.55" cy="-350" rx="43.59" ry="18"/>
<text text-anchor="middle" x="43.55" y="-346.3" font-family="Times-Roman" font-size="14.00">geant4</text>
</a>
</g>
</g>
<!-- qt&#45;&gt;geant4 -->
<g id="edge17" class="edge">
<title>qt&#45;&gt;geant4</title>
<path fill="none" stroke="black" d="M230.92,-558.7C200.01,-551.39 152.74,-537 118.55,-512 85.82,-488.08 79.66,-476.75 62.55,-440 53.4,-420.36 48.61,-396.23 46.12,-378.06"/>
<polygon fill="black" stroke="black" points="49.59,-377.62 44.91,-368.12 42.64,-378.47 49.59,-377.62"/>
</g>
<!-- qwt&#45;&gt;gnuradio -->
<g id="edge18" class="edge">
<title>qwt&#45;&gt;gnuradio</title>
<path fill="none" stroke="black" d="M539.97,-477.46C547.02,-468.65 556,-457.43 563.98,-447.46"/>
<polygon fill="black" stroke="black" points="566.86,-449.46 570.37,-439.47 561.39,-445.09 566.86,-449.46"/>
</g>
<!-- pyside2&#45;&gt;pivy -->
<g id="edge19" class="edge">
<title>pyside2&#45;&gt;pivy</title>
<path fill="none" stroke="black" d="M248.13,-476.71C239.27,-466.44 227.86,-452.74 218.55,-440 203.24,-419.06 187.46,-394.11 176.39,-375.96"/>
<polygon fill="black" stroke="black" points="179.23,-373.89 171.06,-367.15 173.24,-377.52 179.23,-373.89"/>
</g>
<!-- cctbx&#45;base -->
<g id="node20" class="node">
<title>cctbx&#45;base</title>
<g id="a_node20"><a xlink:href="https://github.com/conda-forge/cctbx-base-feedstock" xlink:title="cctbx base">
<ellipse fill="#fde725" stroke="black" cx="288.55" cy="-422" rx="60.5" ry="18"/>
<text text-anchor="middle" x="288.55" y="-418.3" font-family="Times-Roman" font-size="14.00">cctbx base</text>
</a>
</g>
</g>
<!-- pyside2&#45;&gt;cctbx&#45;base -->
<g id="edge20" class="edge">
<title>pyside2&#45;&gt;cctbx&#45;base</title>
<path fill="none" stroke="black" d="M268.84,-476.05C271.77,-468.18 275.32,-458.62 278.59,-449.79"/>
<polygon fill="black" stroke="black" points="281.93,-450.87 282.13,-440.28 275.37,-448.43 281.93,-450.87"/>
</g>
<!-- soqt&#45;&gt;pivy -->
<g id="edge21" class="edge">
<title>soqt&#45;&gt;pivy</title>
<path fill="none" stroke="black" d="M115.64,-405.46C123.36,-396.31 133.26,-384.55 141.9,-374.31"/>
<polygon fill="black" stroke="black" points="144.72,-376.39 148.49,-366.49 139.37,-371.88 144.72,-376.39"/>
</g>
<!-- r&#45;sf -->
<g id="node21" class="node">
<title>r&#45;sf</title>
<g id="a_node21"><a xlink:href="https://github.com/conda-forge/r-sf-feedstock/pull/49" xlink:title="r sf ❎">
<ellipse fill="#31688e" stroke="black" cx="967.55" cy="-90" rx="40.5" ry="18"/>
<text text-anchor="middle" x="967.55" y="-86.3" font-family="Times-Roman" font-size="14.00" fill="white">r sf ❎</text>
</a>
</g>
</g>
<!-- r&#45;spdep -->
<g id="node22" class="node">
<title>r&#45;spdep</title>
<g id="a_node22"><a xlink:href="https://github.com/conda-forge/r-spdep-feedstock" xlink:title="r spdep">
<ellipse fill="#fde725" stroke="black" cx="967.55" cy="-18" rx="46.29" ry="18"/>
<text text-anchor="middle" x="967.55" y="-14.3" font-family="Times-Roman" font-size="14.00">r spdep</text>
</a>
</g>
</g>
<!-- r&#45;sf&#45;&gt;r&#45;spdep -->
<g id="edge22" class="edge">
<title>r&#45;sf&#45;&gt;r&#45;spdep</title>
<path fill="none" stroke="black" d="M967.55,-71.7C967.55,-63.98 967.55,-54.71 967.55,-46.11"/>
<polygon fill="black" stroke="black" points="971.05,-46.1 967.55,-36.1 964.05,-46.1 971.05,-46.1"/>
</g>
<!-- torchvision -->
<g id="node23" class="node">
<title>torchvision</title>
<g id="a_node23"><a xlink:href="https://github.com/conda-forge/torchvision-feedstock" xlink:title="torchvision">
<ellipse fill="#fde725" stroke="black" cx="1556.55" cy="-422" rx="61.99" ry="18"/>
<text text-anchor="middle" x="1556.55" y="-418.3" font-family="Times-Roman" font-size="14.00">torchvision</text>
</a>
</g>
</g>
<!-- torchvision&#45;&gt;allennlp -->
<g id="edge23" class="edge">
<title>torchvision&#45;&gt;allennlp</title>
<path fill="none" stroke="black" d="M1567.44,-404.05C1572.8,-395.71 1579.37,-385.49 1585.31,-376.25"/>
<polygon fill="black" stroke="black" points="1588.29,-378.09 1590.75,-367.79 1582.4,-374.31 1588.29,-378.09"/>
</g>
<!-- log4cpp -->
<g id="node25" class="node">
<title>log4cpp</title>
<g id="a_node25"><a xlink:href="https://github.com/conda-forge/log4cpp-feedstock/pull/8" xlink:title="log4cpp ✓">
<ellipse fill="#31688e" stroke="black" cx="559.55" cy="-566" rx="58" ry="18"/>
<text text-anchor="middle" x="559.55" y="-562.3" font-family="Times-Roman" font-size="14.00" fill="white">log4cpp ✓</text>
</a>
</g>
</g>
<!-- log4cpp&#45;&gt;gnuradio -->
<g id="edge25" class="edge">
<title>log4cpp&#45;&gt;gnuradio</title>
<path fill="none" stroke="black" d="M562.44,-547.87C566.53,-523.67 574.05,-479.21 578.92,-450.39"/>
<polygon fill="black" stroke="black" points="582.43,-450.63 580.64,-440.19 575.52,-449.47 582.43,-450.63"/>
</g>
<!-- grpcio&#45;gcp -->
<g id="node28" class="node">
<title>grpcio&#45;gcp</title>
<g id="a_node28"><a xlink:href="https://github.com/conda-forge/grpcio-gcp-feedstock/pull/9" xlink:title="grpcio gcp ❎">
<ellipse fill="#31688e" stroke="black" cx="967.55" cy="-638" rx="73.5" ry="18"/>
<text text-anchor="middle" x="967.55" y="-634.3" font-family="Times-Roman" font-size="14.00" fill="white">grpcio gcp ❎</text>
</a>
</g>
</g>
<!-- r&#45;grf&#45;&gt;grpcio&#45;gcp -->
<!-- pytorch&#45;cpu -->
<g id="node27" class="node">
<title>pytorch&#45;cpu</title>
<g id="a_node27"><a xlink:href="https://github.com/conda-forge/pytorch-cpu-feedstock" xlink:title="pytorch cpu">
<ellipse fill="#fde725" stroke="black" cx="1646.55" cy="-494" rx="65.79" ry="18"/>
<text text-anchor="middle" x="1646.55" y="-490.3" font-family="Times-Roman" font-size="14.00">pytorch cpu</text>
</a>
</g>
</g>
<!-- pytorch&#45;cpu&#45;&gt;torchvision -->
<g id="edge27" class="edge">
<title>pytorch&#45;cpu&#45;&gt;torchvision</title>
<path fill="none" stroke="black" d="M1625.67,-476.76C1613.74,-467.49 1598.61,-455.71 1585.54,-445.55"/>
<polygon fill="black" stroke="black" points="1587.35,-442.52 1577.31,-439.15 1583.05,-448.05 1587.35,-442.52"/>
</g>
<!-- pytorch&#45;cpu&#45;&gt;allennlp -->
<g id="edge28" class="edge">
<title>pytorch&#45;cpu&#45;&gt;allennlp</title>
<path fill="none" stroke="black" d="M1644.18,-475.93C1641.37,-457.76 1635.97,-428.34 1627.55,-404 1624.38,-394.85 1620.01,-385.24 1615.76,-376.75"/>
<polygon fill="black" stroke="black" points="1618.79,-374.99 1611.07,-367.73 1612.57,-378.22 1618.79,-374.99"/>
</g>
<!-- ibm_db -->
<g id="node29" class="node">
<title>ibm_db</title>
<g id="a_node29"><a xlink:href="https://github.com/conda-forge/ibm_db-feedstock/pull/27" xlink:title="ibm_db ❎">
<ellipse fill="#31688e" stroke="black" cx="967.55" cy="-566" rx="59.29" ry="18"/>
<text text-anchor="middle" x="967.55" y="-562.3" font-family="Times-Roman" font-size="14.00" fill="white">ibm_db ❎</text>
</a>
</g>
</g>
<!-- grpcio&#45;gcp&#45;&gt;ibm_db -->
<!-- nvcc -->
<g id="node30" class="node">
<title>nvcc</title>
<g id="a_node30"><a xlink:href="https://github.com/conda-forge/nvcc-feedstock/pull/62" xlink:title="nvcc ✓">
<ellipse fill="#31688e" stroke="black" cx="967.55" cy="-494" rx="42.49" ry="18"/>
<text text-anchor="middle" x="967.55" y="-490.3" font-family="Times-Roman" font-size="14.00" fill="white">nvcc ✓</text>
</a>
</g>
</g>
<!-- ibm_db&#45;&gt;nvcc -->
<!-- proj -->
<g id="node36" class="node">
<title>proj</title>
<g id="a_node36"><a xlink:href="https://github.com/conda-forge/proj-feedstock" xlink:title="proj">
<ellipse fill="#35b779" stroke="black" cx="967.55" cy="-422" rx="28.7" ry="18"/>
<text text-anchor="middle" x="967.55" y="-418.3" font-family="Times-Roman" font-size="14.00">proj</text>
</a>
</g>
</g>
<!-- nvcc&#45;&gt;proj -->
<!-- cudatoolkit -->
<g id="node31" class="node">
<title>cudatoolkit</title>
<g id="a_node31"><a xlink:href="https://github.com/conda-forge/cudatoolkit-feedstock/pull/4" xlink:title="cudatoolkit ❎">
<ellipse fill="#31688e" stroke="black" cx="1539.55" cy="-638" rx="76.09" ry="18"/>
<text text-anchor="middle" x="1539.55" y="-634.3" font-family="Times-Roman" font-size="14.00" fill="white">cudatoolkit ❎</text>
</a>
</g>
</g>
<!-- cudnn -->
<g id="node32" class="node">
<title>cudnn</title>
<g id="a_node32"><a xlink:href="https://github.com/conda-forge/cudnn-feedstock" xlink:title="cudnn">
<ellipse fill="#fde725" stroke="black" cx="1484.55" cy="-566" rx="39" ry="18"/>
<text text-anchor="middle" x="1484.55" y="-562.3" font-family="Times-Roman" font-size="14.00">cudnn</text>
</a>
</g>
</g>
<!-- cudatoolkit&#45;&gt;cudnn -->
<g id="edge32" class="edge">
<title>cudatoolkit&#45;&gt;cudnn</title>
<path fill="none" stroke="black" d="M1526.23,-620.05C1519.45,-611.42 1511.07,-600.76 1503.61,-591.27"/>
<polygon fill="black" stroke="black" points="1506.29,-589.01 1497.36,-583.31 1500.78,-593.33 1506.29,-589.01"/>
</g>
<!-- cutensor -->
<g id="node33" class="node">
<title>cutensor</title>
<g id="a_node33"><a xlink:href="https://github.com/conda-forge/cutensor-feedstock" xlink:title="cutensor">
<ellipse fill="#fde725" stroke="black" cx="1593.55" cy="-566" rx="51.5" ry="18"/>
<text text-anchor="middle" x="1593.55" y="-562.3" font-family="Times-Roman" font-size="14.00">cutensor</text>
</a>
</g>
</g>
<!-- cudatoolkit&#45;&gt;cutensor -->
<g id="edge33" class="edge">
<title>cudatoolkit&#45;&gt;cutensor</title>
<path fill="none" stroke="black" d="M1552.62,-620.05C1559.12,-611.63 1567.1,-601.28 1574.29,-591.97"/>
<polygon fill="black" stroke="black" points="1577.26,-593.84 1580.59,-583.79 1571.72,-589.57 1577.26,-593.84"/>
</g>
<!-- cudnn&#45;&gt;torchvision -->
<g id="edge34" class="edge">
<title>cudnn&#45;&gt;torchvision</title>
<path fill="none" stroke="black" d="M1493.09,-548.15C1505.47,-523.73 1528.52,-478.26 1543.17,-449.38"/>
<polygon fill="black" stroke="black" points="1546.39,-450.77 1547.79,-440.27 1540.15,-447.6 1546.39,-450.77"/>
</g>
<!-- cudnn&#45;&gt;pytorch&#45;cpu -->
<g id="edge35" class="edge">
<title>cudnn&#45;&gt;pytorch&#45;cpu</title>
<path fill="none" stroke="black" d="M1512.03,-553.13C1537.09,-542.3 1574.52,-526.12 1603.54,-513.58"/>
<polygon fill="black" stroke="black" points="1605.24,-516.66 1613.03,-509.48 1602.46,-510.24 1605.24,-516.66"/>
</g>
<!-- libv8 -->
<g id="node34" class="node">
<title>libv8</title>
<g id="a_node34"><a xlink:href="https://github.com/conda-forge/libv8-feedstock/pull/66" xlink:title="libv8 ❎">
<ellipse fill="#31688e" stroke="black" cx="403.55" cy="-90" rx="47" ry="18"/>
<text text-anchor="middle" x="403.55" y="-86.3" font-family="Times-Roman" font-size="14.00" fill="white">libv8 ❎</text>
</a>
</g>
</g>
<!-- r&#45;v8 -->
<g id="node35" class="node">
<title>r&#45;v8</title>
<g id="a_node35"><a xlink:href="https://github.com/conda-forge/r-v8-feedstock" xlink:title="r v8">
<ellipse fill="#fde725" stroke="black" cx="403.55" cy="-18" rx="28.7" ry="18"/>
<text text-anchor="middle" x="403.55" y="-14.3" font-family="Times-Roman" font-size="14.00">r v8</text>
</a>
</g>
</g>
<!-- libv8&#45;&gt;r&#45;v8 -->
<g id="edge36" class="edge">
<title>libv8&#45;&gt;r&#45;v8</title>
<path fill="none" stroke="black" d="M403.55,-71.7C403.55,-63.98 403.55,-54.71 403.55,-46.11"/>
<polygon fill="black" stroke="black" points="407.05,-46.1 403.55,-36.1 400.05,-46.1 407.05,-46.1"/>
</g>
<!-- jaeger -->
<g id="node37" class="node">
<title>jaeger</title>
<g id="a_node37"><a xlink:href="https://github.com/conda-forge/jaeger-feedstock/pull/12" xlink:title="jaeger ❎">
<ellipse fill="#31688e" stroke="black" cx="967.55" cy="-350" rx="54.69" ry="18"/>
<text text-anchor="middle" x="967.55" y="-346.3" font-family="Times-Roman" font-size="14.00" fill="white">jaeger ❎</text>
</a>
</g>
</g>
<!-- proj&#45;&gt;jaeger -->
<!-- ompl -->
<g id="node40" class="node">
<title>ompl</title>
<g id="a_node40"><a xlink:href="https://github.com/conda-forge/ompl-feedstock/pull/11" xlink:title="ompl ✓">
<ellipse fill="#31688e" stroke="black" cx="967.55" cy="-278" rx="45" ry="18"/>
<text text-anchor="middle" x="967.55" y="-274.3" font-family="Times-Roman" font-size="14.00" fill="white">ompl ✓</text>
</a>
</g>
</g>
<!-- jaeger&#45;&gt;ompl -->
<!-- nccl -->
<g id="node38" class="node">
<title>nccl</title>
<g id="a_node38"><a xlink:href="https://github.com/conda-forge/nccl-feedstock/pull/35" xlink:title="nccl ✓">
<ellipse fill="#31688e" stroke="black" cx="1702.55" cy="-566" rx="39.79" ry="18"/>
<text text-anchor="middle" x="1702.55" y="-562.3" font-family="Times-Roman" font-size="14.00" fill="white">nccl ✓</text>
</a>
</g>
</g>
<!-- nccl&#45;&gt;pytorch&#45;cpu -->
<g id="edge39" class="edge">
<title>nccl&#45;&gt;pytorch&#45;cpu</title>
<path fill="none" stroke="black" d="M1689.56,-548.76C1682.66,-540.14 1674.04,-529.36 1666.33,-519.73"/>
<polygon fill="black" stroke="black" points="1668.83,-517.26 1659.85,-511.63 1663.37,-521.63 1668.83,-517.26"/>
</g>
<!-- volk -->
<g id="node39" class="node">
<title>volk</title>
<g id="a_node39"><a xlink:href="https://github.com/conda-forge/volk-feedstock/pull/19" xlink:title="volk ❎">
<ellipse fill="#31688e" stroke="black" cx="645.55" cy="-638" rx="44.39" ry="18"/>
<text text-anchor="middle" x="645.55" y="-634.3" font-family="Times-Roman" font-size="14.00" fill="white">volk ❎</text>
</a>
</g>
</g>
<!-- volk&#45;&gt;gnuradio -->
<g id="edge40" class="edge">
<title>volk&#45;&gt;gnuradio</title>
<path fill="none" stroke="black" d="M642.51,-619.79C639.18,-601.75 633.39,-572.66 626.55,-548 617,-513.6 603.17,-474.85 593.8,-449.74"/>
<polygon fill="black" stroke="black" points="597,-448.31 590.2,-440.18 590.45,-450.77 597,-448.31"/>
</g>
<!-- dm&#45;tree -->
<g id="node41" class="node">
<title>dm&#45;tree</title>
<g id="a_node41"><a xlink:href="https://github.com/conda-forge/dm-tree-feedstock/pull/4" xlink:title="dm tree ❎">
<ellipse fill="#31688e" stroke="black" cx="967.55" cy="-206" rx="61.99" ry="18"/>
<text text-anchor="middle" x="967.55" y="-202.3" font-family="Times-Roman" font-size="14.00" fill="white">dm tree ❎</text>
</a>
</g>
</g>
<!-- ompl&#45;&gt;dm&#45;tree -->
<!-- onednn -->
<g id="node43" class="node">
<title>onednn</title>
<g id="a_node43"><a xlink:href="https://github.com/conda-forge/onednn-feedstock/pull/11" xlink:title="onednn ❎">
<ellipse fill="#31688e" stroke="black" cx="967.55" cy="-134" rx="60" ry="18"/>
<text text-anchor="middle" x="967.55" y="-130.3" font-family="Times-Roman" font-size="14.00" fill="white">onednn ❎</text>
</a>
</g>
</g>
<!-- dm&#45;tree&#45;&gt;onednn -->
<!-- tokenizers -->
<g id="node42" class="node">
<title>tokenizers</title>
<g id="a_node42"><a xlink:href="https://github.com/conda-forge/tokenizers-feedstock/pull/18" xlink:title="tokenizers ❎">
<ellipse fill="#31688e" stroke="black" cx="1747.55" cy="-422" rx="73" ry="18"/>
<text text-anchor="middle" x="1747.55" y="-418.3" font-family="Times-Roman" font-size="14.00" fill="white">tokenizers ❎</text>
</a>
</g>
</g>
<!-- tokenizers&#45;&gt;allennlp -->
<g id="edge43" class="edge">
<title>tokenizers&#45;&gt;allennlp</title>
<path fill="none" stroke="black" d="M1715.51,-405.64C1692.98,-394.84 1662.76,-380.35 1639.1,-369"/>
<polygon fill="black" stroke="black" points="1640.58,-365.84 1630.05,-364.67 1637.56,-372.15 1640.58,-365.84"/>
</g>
<!-- magma -->
<g id="node44" class="node">
<title>magma</title>
<g id="a_node44"><a xlink:href="https://github.com/conda-forge/magma-feedstock/pull/9" xlink:title="magma ✓">
<ellipse fill="#31688e" stroke="black" cx="1770.55" cy="-638" rx="58" ry="18"/>
<text text-anchor="middle" x="1770.55" y="-634.3" font-family="Times-Roman" font-size="14.00" fill="white">magma ✓</text>
</a>
</g>
</g>
<!-- magma&#45;&gt;pytorch&#45;cpu -->
<g id="edge45" class="edge">
<title>magma&#45;&gt;pytorch&#45;cpu</title>
<path fill="none" stroke="black" d="M1771.1,-619.79C1770.83,-600.4 1767.66,-568.9 1751.55,-548 1738.64,-531.26 1719,-519.39 1700.19,-511.19"/>
<polygon fill="black" stroke="black" points="1701.34,-507.88 1690.76,-507.35 1698.7,-514.37 1701.34,-507.88"/>
</g>
</g>
</svg>
