<?xml version="1.0" encoding="UTF-8" standalone="no"?>
<!DOCTYPE svg PUBLIC "-//W3C//DTD SVG 1.1//EN"
 "http://www.w3.org/Graphics/SVG/1.1/DTD/svg11.dtd">
<!-- Generated by graphviz version 2.42.3 (20191010.1750)
 -->
<!-- Title: %3 Pages: 1 -->
<svg width="2208pt" height="1140pt"
 viewBox="0.00 0.00 2207.84 1140.00" xmlns="http://www.w3.org/2000/svg" xmlns:xlink="http://www.w3.org/1999/xlink">
<g id="graph0" class="graph" transform="scale(1 1) rotate(0) translate(4 1136)">
<title>%3</title>
<polygon fill="white" stroke="transparent" points="-4,4 -4,-1136 2203.84,-1136 2203.84,4 -4,4"/>
<!-- aiohttp -->
<g id="node1" class="node">
<title>aiohttp</title>
<g id="a_node1"><a xlink:href="https://github.com/conda-forge/aiohttp-feedstock" xlink:title="aiohttp">
<ellipse fill="#fde725" stroke="black" cx="329.64" cy="-898" rx="35.19" ry="18"/>
<text text-anchor="middle" x="329.64" y="-894.3" font-family="Times,serif" font-size="14.00">aiohttp</text>
</a>
</g>
</g>
<!-- black -->
<g id="node2" class="node">
<title>black</title>
<g id="a_node2"><a xlink:href="https://github.com/conda-forge/black-feedstock" xlink:title="black">
<ellipse fill="#fde725" stroke="black" cx="329.64" cy="-826" rx="30" ry="18"/>
<text text-anchor="middle" x="329.64" y="-822.3" font-family="Times,serif" font-size="14.00">black</text>
</a>
</g>
</g>
<!-- aiohttp&#45;&gt;black -->
<g id="edge1" class="edge">
<title>aiohttp&#45;&gt;black</title>
<path fill="none" stroke="black" d="M323.76,-880.05C322.93,-872.23 322.7,-862.75 323.05,-853.98"/>
<polygon fill="black" stroke="black" points="326.56,-854.01 323.78,-843.79 319.58,-853.51 326.56,-854.01"/>
</g>
<!-- black&#45;&gt;aiohttp -->
<g id="edge2" class="edge">
<title>black&#45;&gt;aiohttp</title>
<path fill="none" stroke="black" d="M335.5,-843.79C336.34,-851.59 336.59,-861.07 336.24,-869.85"/>
<polygon fill="black" stroke="black" points="332.73,-869.83 335.52,-880.05 339.71,-870.33 332.73,-869.83"/>
</g>
<!-- hyperspy -->
<g id="node3" class="node">
<title>hyperspy</title>
<g id="a_node3"><a xlink:href="https://github.com/conda-forge/hyperspy-feedstock" xlink:title="hyperspy">
<ellipse fill="#fde725" stroke="black" cx="623.64" cy="-754" rx="43" ry="18"/>
<text text-anchor="middle" x="623.64" y="-750.3" font-family="Times,serif" font-size="14.00">hyperspy</text>
</a>
</g>
</g>
<!-- black&#45;&gt;hyperspy -->
<g id="edge3" class="edge">
<title>black&#45;&gt;hyperspy</title>
<path fill="none" stroke="black" d="M357.81,-819.78C403.17,-811.17 495.08,-792.84 571.64,-772 575,-771.09 578.46,-770.09 581.92,-769.04"/>
<polygon fill="black" stroke="black" points="583.11,-772.34 591.62,-766.03 581.03,-765.66 583.11,-772.34"/>
</g>
<!-- nbgrader -->
<g id="node4" class="node">
<title>nbgrader</title>
<g id="a_node4"><a xlink:href="https://github.com/conda-forge/nbgrader-feedstock" xlink:title="nbgrader">
<ellipse fill="#fde725" stroke="black" cx="520.64" cy="-754" rx="42.49" ry="18"/>
<text text-anchor="middle" x="520.64" y="-750.3" font-family="Times,serif" font-size="14.00">nbgrader</text>
</a>
</g>
</g>
<!-- black&#45;&gt;nbgrader -->
<g id="edge4" class="edge">
<title>black&#45;&gt;nbgrader</title>
<path fill="none" stroke="black" d="M354.61,-815.85C386.45,-804.18 441.92,-783.85 479.91,-769.93"/>
<polygon fill="black" stroke="black" points="481.47,-773.08 489.65,-766.36 479.06,-766.51 481.47,-773.08"/>
</g>
<!-- allennlp -->
<g id="node5" class="node">
<title>allennlp</title>
<g id="a_node5"><a xlink:href="https://github.com/conda-forge/allennlp-feedstock" xlink:title="allennlp">
<ellipse fill="#fde725" stroke="black" cx="450.64" cy="-610" rx="39" ry="18"/>
<text text-anchor="middle" x="450.64" y="-606.3" font-family="Times,serif" font-size="14.00">allennlp</text>
</a>
</g>
</g>
<!-- black&#45;&gt;allennlp -->
<g id="edge5" class="edge">
<title>black&#45;&gt;allennlp</title>
<path fill="none" stroke="black" d="M349.55,-812.26C396.4,-782.2 510.03,-708.69 514.64,-700 522.15,-685.87 521.45,-678.48 514.64,-664 508.12,-650.13 495.99,-638.65 484.03,-629.96"/>
<polygon fill="black" stroke="black" points="485.68,-626.84 475.44,-624.13 481.75,-632.64 485.68,-626.84"/>
</g>
<!-- jupyter_server -->
<g id="node6" class="node">
<title>jupyter_server</title>
<g id="a_node6"><a xlink:href="https://github.com/conda-forge/jupyter_server-feedstock" xlink:title="jupyter_server">
<ellipse fill="#fde725" stroke="black" cx="329.64" cy="-610" rx="61.99" ry="18"/>
<text text-anchor="middle" x="329.64" y="-606.3" font-family="Times,serif" font-size="14.00">jupyter_server</text>
</a>
</g>
</g>
<!-- black&#45;&gt;jupyter_server -->
<g id="edge6" class="edge">
<title>black&#45;&gt;jupyter_server</title>
<path fill="none" stroke="black" d="M329.64,-807.85C329.64,-770.83 329.64,-683.18 329.64,-638.39"/>
<polygon fill="black" stroke="black" points="333.14,-638.23 329.64,-628.23 326.14,-638.23 333.14,-638.23"/>
</g>
<!-- pytorch&#45;cpu -->
<g id="node7" class="node">
<title>pytorch&#45;cpu</title>
<g id="a_node7"><a xlink:href="https://github.com/conda-forge/pytorch-cpu-feedstock" xlink:title="pytorch cpu">
<ellipse fill="#fde725" stroke="black" cx="130.64" cy="-754" rx="52.79" ry="18"/>
<text text-anchor="middle" x="130.64" y="-750.3" font-family="Times,serif" font-size="14.00">pytorch cpu</text>
</a>
</g>
</g>
<!-- black&#45;&gt;pytorch&#45;cpu -->
<g id="edge7" class="edge">
<title>black&#45;&gt;pytorch&#45;cpu</title>
<path fill="none" stroke="black" d="M304.44,-816.13C272.07,-804.75 215.33,-784.79 175.51,-770.78"/>
<polygon fill="black" stroke="black" points="176.63,-767.47 166.03,-767.45 174.3,-774.07 176.63,-767.47"/>
</g>
<!-- anyio -->
<g id="node8" class="node">
<title>anyio</title>
<g id="a_node8"><a xlink:href="https://github.com/conda-forge/anyio-feedstock" xlink:title="anyio">
<ellipse fill="#fde725" stroke="black" cx="270.64" cy="-682" rx="30.59" ry="18"/>
<text text-anchor="middle" x="270.64" y="-678.3" font-family="Times,serif" font-size="14.00">anyio</text>
</a>
</g>
</g>
<!-- black&#45;&gt;anyio -->
<g id="edge8" class="edge">
<title>black&#45;&gt;anyio</title>
<path fill="none" stroke="black" d="M322.76,-808.43C312.64,-784.09 293.66,-738.4 281.61,-709.4"/>
<polygon fill="black" stroke="black" points="284.73,-707.79 277.66,-699.9 278.27,-710.48 284.73,-707.79"/>
</g>
<!-- dm&#45;tree -->
<g id="node9" class="node">
<title>dm&#45;tree</title>
<g id="a_node9"><a xlink:href="https://github.com/conda-forge/dm-tree-feedstock" xlink:title="dm tree">
<ellipse fill="#fde725" stroke="black" cx="211.64" cy="-610" rx="38.5" ry="18"/>
<text text-anchor="middle" x="211.64" y="-606.3" font-family="Times,serif" font-size="14.00">dm tree</text>
</a>
</g>
</g>
<!-- black&#45;&gt;dm&#45;tree -->
<g id="edge9" class="edge">
<title>black&#45;&gt;dm&#45;tree</title>
<path fill="none" stroke="black" d="M314.26,-810.41C292.19,-788.57 251.87,-745.08 230.64,-700 221.41,-680.4 216.62,-656.27 214.16,-638.08"/>
<polygon fill="black" stroke="black" points="217.63,-637.65 212.96,-628.14 210.68,-638.49 217.63,-637.65"/>
</g>
<!-- pytorch&#45;cpu&#45;&gt;allennlp -->
<g id="edge42" class="edge">
<title>pytorch&#45;cpu&#45;&gt;allennlp</title>
<path fill="none" stroke="black" d="M174.41,-743.74C211.64,-735.03 266,-720.27 310.64,-700 352.05,-681.19 395.64,-651.72 422.97,-631.9"/>
<polygon fill="black" stroke="black" points="425.25,-634.57 431.25,-625.83 421.11,-628.92 425.25,-634.57"/>
</g>
<!-- pytorch&#45;pretrained&#45;bert -->
<g id="node43" class="node">
<title>pytorch&#45;pretrained&#45;bert</title>
<g id="a_node43"><a xlink:href="https://github.com/conda-forge/pytorch-pretrained-bert-feedstock" xlink:title="pytorch pretrained bert">
<ellipse fill="#fde725" stroke="black" cx="91.64" cy="-682" rx="91.78" ry="18"/>
<text text-anchor="middle" x="91.64" y="-678.3" font-family="Times,serif" font-size="14.00">pytorch pretrained bert</text>
</a>
</g>
</g>
<!-- pytorch&#45;cpu&#45;&gt;pytorch&#45;pretrained&#45;bert -->
<g id="edge43" class="edge">
<title>pytorch&#45;cpu&#45;&gt;pytorch&#45;pretrained&#45;bert</title>
<path fill="none" stroke="black" d="M121.2,-736.05C116.72,-728.01 111.26,-718.2 106.25,-709.23"/>
<polygon fill="black" stroke="black" points="109.19,-707.31 101.27,-700.28 103.08,-710.71 109.19,-707.31"/>
</g>
<!-- anyio&#45;&gt;jupyter_server -->
<g id="edge44" class="edge">
<title>anyio&#45;&gt;jupyter_server</title>
<path fill="none" stroke="black" d="M283.74,-665.46C291.06,-656.78 300.35,-645.75 308.66,-635.89"/>
<polygon fill="black" stroke="black" points="311.58,-637.86 315.35,-627.96 306.22,-633.35 311.58,-637.86"/>
</g>
<!-- astroscrappy -->
<g id="node10" class="node">
<title>astroscrappy</title>
<g id="a_node10"><a xlink:href="https://github.com/conda-forge/astroscrappy-feedstock/pull/11" xlink:title="astroscrappy ❎">
<ellipse fill="#31688e" stroke="black" cx="2129.64" cy="-1114" rx="67" ry="18"/>
<text text-anchor="middle" x="2129.64" y="-1110.3" font-family="Times,serif" font-size="14.00" fill="white">astroscrappy ❎</text>
</a>
</g>
</g>
<!-- pypy2.7 -->
<g id="node11" class="node">
<title>pypy2.7</title>
<g id="a_node11"><a xlink:href="https://github.com/conda-forge/pypy2.7-feedstock/pull/3" xlink:title="pypy2 7 ❎">
<ellipse fill="#31688e" stroke="black" cx="2129.64" cy="-1042" rx="51.5" ry="18"/>
<text text-anchor="middle" x="2129.64" y="-1038.3" font-family="Times,serif" font-size="14.00" fill="white">pypy2 7 ❎</text>
</a>
</g>
</g>
<!-- astroscrappy&#45;&gt;pypy2.7 -->
<!-- root_numpy -->
<g id="node38" class="node">
<title>root_numpy</title>
<g id="a_node38"><a xlink:href="https://github.com/conda-forge/root_numpy-feedstock/pull/19" xlink:title="root_numpy ❎">
<ellipse fill="#31688e" stroke="black" cx="2129.64" cy="-970" rx="65.79" ry="18"/>
<text text-anchor="middle" x="2129.64" y="-966.3" font-family="Times,serif" font-size="14.00" fill="white">root_numpy ❎</text>
</a>
</g>
</g>
<!-- pypy2.7&#45;&gt;root_numpy -->
<!-- elfutils -->
<g id="node12" class="node">
<title>elfutils</title>
<g id="a_node12"><a xlink:href="https://github.com/conda-forge/elfutils-feedstock/pull/20" xlink:title="elfutils ❎">
<ellipse fill="#31688e" stroke="black" cx="1525.64" cy="-314" rx="47" ry="18"/>
<text text-anchor="middle" x="1525.64" y="-310.3" font-family="Times,serif" font-size="14.00" fill="white">elfutils ❎</text>
</a>
</g>
</g>
<!-- heaptrack -->
<g id="node13" class="node">
<title>heaptrack</title>
<g id="a_node13"><a xlink:href="https://github.com/conda-forge/heaptrack-feedstock" xlink:title="heaptrack">
<ellipse fill="#fde725" stroke="black" cx="1532.64" cy="-242" rx="45" ry="18"/>
<text text-anchor="middle" x="1532.64" y="-238.3" font-family="Times,serif" font-size="14.00">heaptrack</text>
</a>
</g>
</g>
<!-- elfutils&#45;&gt;heaptrack -->
<g id="edge11" class="edge">
<title>elfutils&#45;&gt;heaptrack</title>
<path fill="none" stroke="black" d="M1527.37,-295.7C1528.14,-287.98 1529.07,-278.71 1529.93,-270.11"/>
<polygon fill="black" stroke="black" points="1533.42,-270.4 1530.93,-260.1 1526.45,-269.71 1533.42,-270.4"/>
</g>
<!-- fastparquet -->
<g id="node14" class="node">
<title>fastparquet</title>
<g id="a_node14"><a xlink:href="https://github.com/conda-forge/fastparquet-feedstock" xlink:title="fastparquet">
<ellipse fill="#fde725" stroke="black" cx="563.64" cy="-18" rx="50.09" ry="18"/>
<text text-anchor="middle" x="563.64" y="-14.3" font-family="Times,serif" font-size="14.00">fastparquet</text>
</a>
</g>
</g>
<!-- gdal -->
<g id="node15" class="node">
<title>gdal</title>
<g id="a_node15"><a xlink:href="https://github.com/conda-forge/gdal-feedstock" xlink:title="gdal">
<ellipse fill="#fde725" stroke="black" cx="552.64" cy="-278" rx="27" ry="18"/>
<text text-anchor="middle" x="552.64" y="-274.3" font-family="Times,serif" font-size="14.00">gdal</text>
</a>
</g>
</g>
<!-- kealib -->
<g id="node16" class="node">
<title>kealib</title>
<g id="a_node16"><a xlink:href="https://github.com/conda-forge/kealib-feedstock" xlink:title="kealib">
<ellipse fill="#fde725" stroke="black" cx="552.64" cy="-206" rx="32.5" ry="18"/>
<text text-anchor="middle" x="552.64" y="-202.3" font-family="Times,serif" font-size="14.00">kealib</text>
</a>
</g>
</g>
<!-- gdal&#45;&gt;kealib -->
<g id="edge12" class="edge">
<title>gdal&#45;&gt;kealib</title>
<path fill="none" stroke="black" d="M546.8,-260.41C545.94,-252.51 545.69,-242.85 546.05,-233.94"/>
<polygon fill="black" stroke="black" points="549.55,-234.18 546.76,-223.96 542.56,-233.68 549.55,-234.18"/>
</g>
<!-- r&#45;sf -->
<g id="node17" class="node">
<title>r&#45;sf</title>
<g id="a_node17"><a xlink:href="https://github.com/conda-forge/r-sf-feedstock" xlink:title="r sf">
<ellipse fill="#fde725" stroke="black" cx="473.64" cy="-206" rx="27" ry="18"/>
<text text-anchor="middle" x="473.64" y="-202.3" font-family="Times,serif" font-size="14.00">r sf</text>
</a>
</g>
</g>
<!-- gdal&#45;&gt;r&#45;sf -->
<g id="edge13" class="edge">
<title>gdal&#45;&gt;r&#45;sf</title>
<path fill="none" stroke="black" d="M537.03,-263.17C525.56,-253.01 509.79,-239.03 496.85,-227.56"/>
<polygon fill="black" stroke="black" points="499.02,-224.81 489.22,-220.8 494.38,-230.05 499.02,-224.81"/>
</g>
<!-- kealib&#45;&gt;gdal -->
<g id="edge14" class="edge">
<title>kealib&#45;&gt;gdal</title>
<path fill="none" stroke="black" d="M558.52,-223.96C559.36,-231.83 559.59,-241.37 559.22,-250.19"/>
<polygon fill="black" stroke="black" points="555.72,-250.18 558.48,-260.41 562.7,-250.69 555.72,-250.18"/>
</g>
<!-- r&#45;spdep -->
<g id="node18" class="node">
<title>r&#45;spdep</title>
<g id="a_node18"><a xlink:href="https://github.com/conda-forge/r-spdep-feedstock" xlink:title="r spdep">
<ellipse fill="#fde725" stroke="black" cx="473.64" cy="-134" rx="36.5" ry="18"/>
<text text-anchor="middle" x="473.64" y="-130.3" font-family="Times,serif" font-size="14.00">r spdep</text>
</a>
</g>
</g>
<!-- r&#45;sf&#45;&gt;r&#45;spdep -->
<g id="edge15" class="edge">
<title>r&#45;sf&#45;&gt;r&#45;spdep</title>
<path fill="none" stroke="black" d="M473.64,-187.7C473.64,-179.98 473.64,-170.71 473.64,-162.11"/>
<polygon fill="black" stroke="black" points="477.14,-162.1 473.64,-152.1 470.14,-162.1 477.14,-162.1"/>
</g>
<!-- geos -->
<g id="node19" class="node">
<title>geos</title>
<g id="a_node19"><a xlink:href="https://github.com/conda-forge/geos-feedstock/pull/47" xlink:title="geos ❎">
<ellipse fill="#31688e" stroke="black" cx="552.64" cy="-422" rx="38.5" ry="18"/>
<text text-anchor="middle" x="552.64" y="-418.3" font-family="Times,serif" font-size="14.00" fill="white">geos ❎</text>
</a>
</g>
</g>
<!-- geos&#45;&gt;gdal -->
<g id="edge16" class="edge">
<title>geos&#45;&gt;gdal</title>
<path fill="none" stroke="black" d="M544.14,-404.31C539.43,-394.11 534.05,-380.64 531.64,-368 528.64,-352.28 528.64,-347.72 531.64,-332 533.4,-322.78 536.74,-313.11 540.25,-304.6"/>
<polygon fill="black" stroke="black" points="543.55,-305.79 544.36,-295.23 537.14,-302.98 543.55,-305.79"/>
</g>
<!-- libspatialite -->
<g id="node20" class="node">
<title>libspatialite</title>
<g id="a_node20"><a xlink:href="https://github.com/conda-forge/libspatialite-feedstock" xlink:title="libspatialite">
<ellipse fill="#fde725" stroke="black" cx="592.64" cy="-350" rx="52" ry="18"/>
<text text-anchor="middle" x="592.64" y="-346.3" font-family="Times,serif" font-size="14.00">libspatialite</text>
</a>
</g>
</g>
<!-- geos&#45;&gt;libspatialite -->
<g id="edge17" class="edge">
<title>geos&#45;&gt;libspatialite</title>
<path fill="none" stroke="black" d="M562.12,-404.41C566.83,-396.16 572.64,-386.01 577.91,-376.78"/>
<polygon fill="black" stroke="black" points="581.03,-378.38 582.95,-367.96 574.95,-374.9 581.03,-378.38"/>
</g>
<!-- libspatialite&#45;&gt;gdal -->
<g id="edge18" class="edge">
<title>libspatialite&#45;&gt;gdal</title>
<path fill="none" stroke="black" d="M582.96,-332.05C578.17,-323.68 572.3,-313.4 567,-304.13"/>
<polygon fill="black" stroke="black" points="569.96,-302.25 561.96,-295.31 563.88,-305.73 569.96,-302.25"/>
</g>
<!-- libunwind -->
<g id="node21" class="node">
<title>libunwind</title>
<g id="a_node21"><a xlink:href="https://github.com/conda-forge/libunwind-feedstock/pull/14" xlink:title="libunwind ❎">
<ellipse fill="#31688e" stroke="black" cx="1648.64" cy="-314" rx="58" ry="18"/>
<text text-anchor="middle" x="1648.64" y="-310.3" font-family="Times,serif" font-size="14.00" fill="white">libunwind ❎</text>
</a>
</g>
</g>
<!-- libunwind&#45;&gt;heaptrack -->
<g id="edge19" class="edge">
<title>libunwind&#45;&gt;heaptrack</title>
<path fill="none" stroke="black" d="M1623.19,-297.64C1606.11,-287.33 1583.46,-273.67 1565.09,-262.58"/>
<polygon fill="black" stroke="black" points="1566.83,-259.54 1556.46,-257.37 1563.21,-265.53 1566.83,-259.54"/>
</g>
<!-- py&#45;spy -->
<g id="node22" class="node">
<title>py&#45;spy</title>
<g id="a_node22"><a xlink:href="https://github.com/conda-forge/py-spy-feedstock/pull/11" xlink:title="py spy ❎">
<ellipse fill="#31688e" stroke="black" cx="1648.64" cy="-242" rx="46.29" ry="18"/>
<text text-anchor="middle" x="1648.64" y="-238.3" font-family="Times,serif" font-size="14.00" fill="white">py spy ❎</text>
</a>
</g>
</g>
<!-- libunwind&#45;&gt;py&#45;spy -->
<g id="edge20" class="edge">
<title>libunwind&#45;&gt;py&#45;spy</title>
<path fill="none" stroke="black" d="M1648.64,-295.7C1648.64,-287.98 1648.64,-278.71 1648.64,-270.11"/>
<polygon fill="black" stroke="black" points="1652.14,-270.1 1648.64,-260.1 1645.14,-270.1 1652.14,-270.1"/>
</g>
<!-- mono -->
<g id="node23" class="node">
<title>mono</title>
<g id="a_node23"><a xlink:href="https://github.com/conda-forge/mono-feedstock/pull/18" xlink:title="mono ❎">
<ellipse fill="#31688e" stroke="black" cx="2129.64" cy="-90" rx="43" ry="18"/>
<text text-anchor="middle" x="2129.64" y="-86.3" font-family="Times,serif" font-size="14.00" fill="white">mono ❎</text>
</a>
</g>
</g>
<!-- ogre -->
<g id="node24" class="node">
<title>ogre</title>
<g id="a_node24"><a xlink:href="https://github.com/conda-forge/ogre-feedstock" xlink:title="ogre">
<ellipse fill="#fde725" stroke="black" cx="2129.64" cy="-18" rx="27" ry="18"/>
<text text-anchor="middle" x="2129.64" y="-14.3" font-family="Times,serif" font-size="14.00">ogre</text>
</a>
</g>
</g>
<!-- mono&#45;&gt;ogre -->
<g id="edge21" class="edge">
<title>mono&#45;&gt;ogre</title>
<path fill="none" stroke="black" d="M2129.64,-71.7C2129.64,-63.98 2129.64,-54.71 2129.64,-46.11"/>
<polygon fill="black" stroke="black" points="2133.14,-46.1 2129.64,-36.1 2126.14,-46.1 2133.14,-46.1"/>
</g>
<!-- nltk_data -->
<g id="node25" class="node">
<title>nltk_data</title>
<g id="a_node25"><a xlink:href="https://github.com/conda-forge/nltk_data-feedstock/pull/5" xlink:title="nltk_data ❎">
<ellipse fill="#31688e" stroke="black" cx="450.64" cy="-682" rx="55.49" ry="18"/>
<text text-anchor="middle" x="450.64" y="-678.3" font-family="Times,serif" font-size="14.00" fill="white">nltk_data ❎</text>
</a>
</g>
</g>
<!-- nltk_data&#45;&gt;allennlp -->
<g id="edge22" class="edge">
<title>nltk_data&#45;&gt;allennlp</title>
<path fill="none" stroke="black" d="M450.64,-663.7C450.64,-655.98 450.64,-646.71 450.64,-638.11"/>
<polygon fill="black" stroke="black" points="454.14,-638.1 450.64,-628.1 447.14,-638.1 454.14,-638.1"/>
</g>
<!-- pyqt -->
<g id="node26" class="node">
<title>pyqt</title>
<g id="a_node26"><a xlink:href="https://github.com/conda-forge/pyqt-feedstock" xlink:title="pyqt">
<ellipse fill="#fde725" stroke="black" cx="694.64" cy="-826" rx="27" ry="18"/>
<text text-anchor="middle" x="694.64" y="-822.3" font-family="Times,serif" font-size="14.00">pyqt</text>
</a>
</g>
</g>
<!-- pyqt&#45;&gt;hyperspy -->
<g id="edge23" class="edge">
<title>pyqt&#45;&gt;hyperspy</title>
<path fill="none" stroke="black" d="M679.93,-810.5C670.43,-801.13 657.85,-788.73 647,-778.03"/>
<polygon fill="black" stroke="black" points="649.4,-775.48 639.82,-770.95 644.48,-780.46 649.4,-775.48"/>
</g>
<!-- pyqt&#45;&gt;nbgrader -->
<g id="edge24" class="edge">
<title>pyqt&#45;&gt;nbgrader</title>
<path fill="none" stroke="black" d="M671.89,-815.85C643.43,-804.4 594.25,-784.61 559.71,-770.72"/>
<polygon fill="black" stroke="black" points="560.97,-767.45 550.39,-766.97 558.36,-773.95 560.97,-767.45"/>
</g>
<!-- pyqt&#45;&gt;allennlp -->
<g id="edge25" class="edge">
<title>pyqt&#45;&gt;allennlp</title>
<path fill="none" stroke="black" d="M695.04,-807.9C694.64,-788.62 691.34,-757.21 675.64,-736 630.17,-674.54 544.98,-639.4 493.47,-622.85"/>
<polygon fill="black" stroke="black" points="494.23,-619.42 483.64,-619.78 492.14,-626.1 494.23,-619.42"/>
</g>
<!-- pythonocc&#45;core -->
<g id="node27" class="node">
<title>pythonocc&#45;core</title>
<g id="a_node27"><a xlink:href="https://github.com/conda-forge/pythonocc-core-feedstock" xlink:title="pythonocc core">
<ellipse fill="#fde725" stroke="black" cx="787.64" cy="-754" rx="65" ry="18"/>
<text text-anchor="middle" x="787.64" y="-750.3" font-family="Times,serif" font-size="14.00">pythonocc core</text>
</a>
</g>
</g>
<!-- pyqt&#45;&gt;pythonocc&#45;core -->
<g id="edge26" class="edge">
<title>pyqt&#45;&gt;pythonocc&#45;core</title>
<path fill="none" stroke="black" d="M712.13,-811.83C725.1,-802.08 743.07,-788.55 758.23,-777.14"/>
<polygon fill="black" stroke="black" points="760.42,-779.87 766.31,-771.06 756.21,-774.27 760.42,-779.87"/>
</g>
<!-- qt -->
<g id="node28" class="node">
<title>qt</title>
<g id="a_node28"><a xlink:href="https://github.com/conda-forge/qt-feedstock/pull/168" xlink:title="qt ❎">
<ellipse fill="#31688e" stroke="black" cx="906.64" cy="-898" rx="29.5" ry="18"/>
<text text-anchor="middle" x="906.64" y="-894.3" font-family="Times,serif" font-size="14.00" fill="white">qt ❎</text>
</a>
</g>
</g>
<!-- qt&#45;&gt;pyqt -->
<g id="edge27" class="edge">
<title>qt&#45;&gt;pyqt</title>
<path fill="none" stroke="black" d="M880.93,-889.18C848.2,-879.14 789.99,-860.99 740.64,-844 736.27,-842.49 731.68,-840.86 727.16,-839.22"/>
<polygon fill="black" stroke="black" points="728.09,-835.84 717.5,-835.68 725.68,-842.41 728.09,-835.84"/>
</g>
<!-- pivy -->
<g id="node29" class="node">
<title>pivy</title>
<g id="a_node29"><a xlink:href="https://github.com/conda-forge/pivy-feedstock" xlink:title="pivy">
<ellipse fill="#fde725" stroke="black" cx="897.64" cy="-754" rx="27" ry="18"/>
<text text-anchor="middle" x="897.64" y="-750.3" font-family="Times,serif" font-size="14.00">pivy</text>
</a>
</g>
</g>
<!-- qt&#45;&gt;pivy -->
<g id="edge28" class="edge">
<title>qt&#45;&gt;pivy</title>
<path fill="none" stroke="black" d="M892.89,-882.07C884.68,-872.1 875.02,-858.25 870.64,-844 865.94,-828.71 866.91,-823.56 870.64,-808 872.98,-798.27 877.42,-788.3 882.03,-779.68"/>
<polygon fill="black" stroke="black" points="885.11,-781.35 887.01,-770.93 879.02,-777.89 885.11,-781.35"/>
</g>
<!-- pyside2 -->
<g id="node30" class="node">
<title>pyside2</title>
<g id="a_node30"><a xlink:href="https://github.com/conda-forge/pyside2-feedstock" xlink:title="pyside2">
<ellipse fill="#fde725" stroke="black" cx="990.64" cy="-826" rx="38.5" ry="18"/>
<text text-anchor="middle" x="990.64" y="-822.3" font-family="Times,serif" font-size="14.00">pyside2</text>
</a>
</g>
</g>
<!-- qt&#45;&gt;pyside2 -->
<g id="edge29" class="edge">
<title>qt&#45;&gt;pyside2</title>
<path fill="none" stroke="black" d="M923.24,-883.17C935.04,-873.34 951.12,-859.93 964.62,-848.69"/>
<polygon fill="black" stroke="black" points="967.19,-851.1 972.63,-842.01 962.7,-845.73 967.19,-851.1"/>
</g>
<!-- soqt -->
<g id="node31" class="node">
<title>soqt</title>
<g id="a_node31"><a xlink:href="https://github.com/conda-forge/soqt-feedstock" xlink:title="soqt">
<ellipse fill="#fde725" stroke="black" cx="906.64" cy="-826" rx="27" ry="18"/>
<text text-anchor="middle" x="906.64" y="-822.3" font-family="Times,serif" font-size="14.00">soqt</text>
</a>
</g>
</g>
<!-- qt&#45;&gt;soqt -->
<g id="edge30" class="edge">
<title>qt&#45;&gt;soqt</title>
<path fill="none" stroke="black" d="M906.64,-879.7C906.64,-871.98 906.64,-862.71 906.64,-854.11"/>
<polygon fill="black" stroke="black" points="910.14,-854.1 906.64,-844.1 903.14,-854.1 910.14,-854.1"/>
</g>
<!-- geant4 -->
<g id="node32" class="node">
<title>geant4</title>
<g id="a_node32"><a xlink:href="https://github.com/conda-forge/geant4-feedstock" xlink:title="geant4">
<ellipse fill="#fde725" stroke="black" cx="1091.64" cy="-754" rx="34.5" ry="18"/>
<text text-anchor="middle" x="1091.64" y="-750.3" font-family="Times,serif" font-size="14.00">geant4</text>
</a>
</g>
</g>
<!-- qt&#45;&gt;geant4 -->
<g id="edge31" class="edge">
<title>qt&#45;&gt;geant4</title>
<path fill="none" stroke="black" d="M934.14,-891.46C962.91,-884.5 1008.06,-870.17 1038.64,-844 1058.4,-827.1 1072.74,-800.9 1081.49,-781.3"/>
<polygon fill="black" stroke="black" points="1084.75,-782.58 1085.44,-772 1078.31,-779.84 1084.75,-782.58"/>
</g>
<!-- pyside2&#45;&gt;pivy -->
<g id="edge32" class="edge">
<title>pyside2&#45;&gt;pivy</title>
<path fill="none" stroke="black" d="M970.92,-810.15C957.01,-799.69 938.26,-785.57 923.21,-774.24"/>
<polygon fill="black" stroke="black" points="924.93,-771.16 914.84,-767.94 920.72,-776.75 924.93,-771.16"/>
</g>
<!-- cctbx&#45;base -->
<g id="node33" class="node">
<title>cctbx&#45;base</title>
<g id="a_node33"><a xlink:href="https://github.com/conda-forge/cctbx-base-feedstock" xlink:title="cctbx base">
<ellipse fill="#fde725" stroke="black" cx="990.64" cy="-754" rx="48.19" ry="18"/>
<text text-anchor="middle" x="990.64" y="-750.3" font-family="Times,serif" font-size="14.00">cctbx base</text>
</a>
</g>
</g>
<!-- pyside2&#45;&gt;cctbx&#45;base -->
<g id="edge33" class="edge">
<title>pyside2&#45;&gt;cctbx&#45;base</title>
<path fill="none" stroke="black" d="M990.64,-807.7C990.64,-799.98 990.64,-790.71 990.64,-782.11"/>
<polygon fill="black" stroke="black" points="994.14,-782.1 990.64,-772.1 987.14,-782.1 994.14,-782.1"/>
</g>
<!-- soqt&#45;&gt;pivy -->
<g id="edge34" class="edge">
<title>soqt&#45;&gt;pivy</title>
<path fill="none" stroke="black" d="M904.46,-808.05C903.47,-800.35 902.27,-791.03 901.16,-782.36"/>
<polygon fill="black" stroke="black" points="904.61,-781.75 899.86,-772.28 897.67,-782.64 904.61,-781.75"/>
</g>
<!-- r&#45;units -->
<g id="node34" class="node">
<title>r&#45;units</title>
<g id="a_node34"><a xlink:href="https://github.com/conda-forge/r-units-feedstock" xlink:title="r units">
<ellipse fill="#fde725" stroke="black" cx="472.64" cy="-278" rx="33.29" ry="18"/>
<text text-anchor="middle" x="472.64" y="-274.3" font-family="Times,serif" font-size="14.00">r units</text>
</a>
</g>
</g>
<!-- r&#45;units&#45;&gt;r&#45;sf -->
<g id="edge35" class="edge">
<title>r&#45;units&#45;&gt;r&#45;sf</title>
<path fill="none" stroke="black" d="M472.89,-259.7C473,-251.98 473.13,-242.71 473.25,-234.11"/>
<polygon fill="black" stroke="black" points="476.75,-234.15 473.4,-224.1 469.75,-234.05 476.75,-234.15"/>
</g>
<!-- singularity -->
<g id="node35" class="node">
<title>singularity</title>
<g id="a_node35"><a xlink:href="https://github.com/conda-forge/singularity-feedstock" xlink:title="singularity">
<ellipse fill="#fde725" stroke="black" cx="1592.64" cy="-18" rx="48.19" ry="18"/>
<text text-anchor="middle" x="1592.64" y="-14.3" font-family="Times,serif" font-size="14.00">singularity</text>
</a>
</g>
</g>
<!-- thrift -->
<g id="node36" class="node">
<title>thrift</title>
<g id="a_node36"><a xlink:href="https://github.com/conda-forge/thrift-feedstock/pull/17" xlink:title="thrift ✓">
<ellipse fill="#31688e" stroke="black" cx="563.64" cy="-90" rx="38.5" ry="18"/>
<text text-anchor="middle" x="563.64" y="-86.3" font-family="Times,serif" font-size="14.00" fill="white">thrift ✓</text>
</a>
</g>
</g>
<!-- thrift&#45;&gt;fastparquet -->
<g id="edge36" class="edge">
<title>thrift&#45;&gt;fastparquet</title>
<path fill="none" stroke="black" d="M563.64,-71.7C563.64,-63.98 563.64,-54.71 563.64,-46.11"/>
<polygon fill="black" stroke="black" points="567.14,-46.1 563.64,-36.1 560.14,-46.1 567.14,-46.1"/>
</g>
<!-- udunits2 -->
<g id="node37" class="node">
<title>udunits2</title>
<g id="a_node37"><a xlink:href="https://github.com/conda-forge/udunits2-feedstock/pull/39" xlink:title="udunits2 ❎">
<ellipse fill="#31688e" stroke="black" cx="431.64" cy="-350" rx="52.79" ry="18"/>
<text text-anchor="middle" x="431.64" y="-346.3" font-family="Times,serif" font-size="14.00" fill="white">udunits2 ❎</text>
</a>
</g>
</g>
<!-- udunits2&#45;&gt;r&#45;units -->
<g id="edge37" class="edge">
<title>udunits2&#45;&gt;r&#45;units</title>
<path fill="none" stroke="black" d="M441.57,-332.05C446.47,-323.68 452.49,-313.4 457.92,-304.13"/>
<polygon fill="black" stroke="black" points="461.06,-305.7 463.09,-295.31 455.02,-302.17 461.06,-305.7"/>
</g>
<!-- ibm_db -->
<g id="node44" class="node">
<title>ibm_db</title>
<g id="a_node44"><a xlink:href="https://github.com/conda-forge/ibm_db-feedstock/pull/10" xlink:title="ibm_db ❎">
<ellipse fill="#31688e" stroke="black" cx="2129.64" cy="-898" rx="50.09" ry="18"/>
<text text-anchor="middle" x="2129.64" y="-894.3" font-family="Times,serif" font-size="14.00" fill="white">ibm_db ❎</text>
</a>
</g>
</g>
<!-- root_numpy&#45;&gt;ibm_db -->
<!-- tiledb -->
<g id="node39" class="node">
<title>tiledb</title>
<g id="a_node39"><a xlink:href="https://github.com/conda-forge/tiledb-feedstock/pull/95" xlink:title="tiledb ❎">
<ellipse fill="#31688e" stroke="black" cx="704.64" cy="-350" rx="42.49" ry="18"/>
<text text-anchor="middle" x="704.64" y="-346.3" font-family="Times,serif" font-size="14.00" fill="white">tiledb ❎</text>
</a>
</g>
</g>
<!-- tiledb&#45;&gt;gdal -->
<g id="edge39" class="edge">
<title>tiledb&#45;&gt;gdal</title>
<path fill="none" stroke="black" d="M677.12,-336.32C650.79,-324.2 611.15,-305.94 583.7,-293.3"/>
<polygon fill="black" stroke="black" points="585.09,-290.09 574.55,-289.09 582.17,-296.45 585.09,-290.09"/>
</g>
<!-- libzip -->
<g id="node40" class="node">
<title>libzip</title>
<g id="a_node40"><a xlink:href="https://github.com/conda-forge/libzip-feedstock/pull/23" xlink:title="libzip ❎">
<ellipse fill="#31688e" stroke="black" cx="1469.64" cy="-790" rx="42.49" ry="18"/>
<text text-anchor="middle" x="1469.64" y="-786.3" font-family="Times,serif" font-size="14.00" fill="white">libzip ❎</text>
</a>
</g>
</g>
<!-- libignition&#45;fuel&#45;tools -->
<g id="node41" class="node">
<title>libignition&#45;fuel&#45;tools</title>
<g id="a_node41"><a xlink:href="https://github.com/conda-forge/libignition-fuel-tools-feedstock" xlink:title="libignition fuel tools">
<ellipse fill="#fde725" stroke="black" cx="1448.64" cy="-718" rx="83.39" ry="18"/>
<text text-anchor="middle" x="1448.64" y="-714.3" font-family="Times,serif" font-size="14.00">libignition fuel tools</text>
</a>
</g>
</g>
<!-- libzip&#45;&gt;libignition&#45;fuel&#45;tools -->
<g id="edge40" class="edge">
<title>libzip&#45;&gt;libignition&#45;fuel&#45;tools</title>
<path fill="none" stroke="black" d="M1464.56,-772.05C1462.22,-764.26 1459.39,-754.82 1456.77,-746.08"/>
<polygon fill="black" stroke="black" points="1460.05,-744.85 1453.82,-736.28 1453.35,-746.86 1460.05,-744.85"/>
</g>
<!-- occt -->
<g id="node42" class="node">
<title>occt</title>
<g id="a_node42"><a xlink:href="https://github.com/conda-forge/occt-feedstock/pull/59" xlink:title="occt ❎">
<ellipse fill="#31688e" stroke="black" cx="786.64" cy="-826" rx="37.09" ry="18"/>
<text text-anchor="middle" x="786.64" y="-822.3" font-family="Times,serif" font-size="14.00" fill="white">occt ❎</text>
</a>
</g>
</g>
<!-- occt&#45;&gt;pythonocc&#45;core -->
<g id="edge41" class="edge">
<title>occt&#45;&gt;pythonocc&#45;core</title>
<path fill="none" stroke="black" d="M786.89,-807.7C787,-799.98 787.13,-790.71 787.25,-782.11"/>
<polygon fill="black" stroke="black" points="790.75,-782.15 787.4,-772.1 783.75,-782.05 790.75,-782.15"/>
</g>
<!-- pytorch&#45;pretrained&#45;bert&#45;&gt;allennlp -->
<g id="edge46" class="edge">
<title>pytorch&#45;pretrained&#45;bert&#45;&gt;allennlp</title>
<path fill="none" stroke="black" d="M166.32,-671.56C229.33,-662.8 321.64,-648.07 400.64,-628 404.23,-627.09 407.93,-626.04 411.62,-624.92"/>
<polygon fill="black" stroke="black" points="412.8,-628.22 421.26,-621.85 410.67,-621.55 412.8,-628.22"/>
</g>
<!-- cudatoolkit -->
<g id="node48" class="node">
<title>cudatoolkit</title>
<g id="a_node48"><a xlink:href="https://github.com/conda-forge/cudatoolkit-feedstock/pull/4" xlink:title="cudatoolkit ❎">
<ellipse fill="#31688e" stroke="black" cx="2129.64" cy="-826" rx="61.99" ry="18"/>
<text text-anchor="middle" x="2129.64" y="-822.3" font-family="Times,serif" font-size="14.00" fill="white">cudatoolkit ❎</text>
</a>
</g>
</g>
<!-- ibm_db&#45;&gt;cudatoolkit -->
<!-- go&#45;dep -->
<g id="node45" class="node">
<title>go&#45;dep</title>
<g id="a_node45"><a xlink:href="https://github.com/conda-forge/go-dep-feedstock/pull/12" xlink:title="go dep ❎">
<ellipse fill="#31688e" stroke="black" cx="1592.64" cy="-90" rx="46.29" ry="18"/>
<text text-anchor="middle" x="1592.64" y="-86.3" font-family="Times,serif" font-size="14.00" fill="white">go dep ❎</text>
</a>
</g>
</g>
<!-- go&#45;dep&#45;&gt;singularity -->
<g id="edge47" class="edge">
<title>go&#45;dep&#45;&gt;singularity</title>
<path fill="none" stroke="black" d="M1592.64,-71.7C1592.64,-63.98 1592.64,-54.71 1592.64,-46.11"/>
<polygon fill="black" stroke="black" points="1596.14,-46.1 1592.64,-36.1 1589.14,-46.1 1596.14,-46.1"/>
</g>
<!-- procps&#45;ng -->
<g id="node46" class="node">
<title>procps&#45;ng</title>
<g id="a_node46"><a xlink:href="https://github.com/conda-forge/procps-ng-feedstock/pull/3" xlink:title="procps ng ✓">
<ellipse fill="#31688e" stroke="black" cx="2129.64" cy="-314" rx="56" ry="18"/>
<text text-anchor="middle" x="2129.64" y="-310.3" font-family="Times,serif" font-size="14.00" fill="white">procps ng ✓</text>
</a>
</g>
</g>
<!-- myproxy -->
<g id="node47" class="node">
<title>myproxy</title>
<g id="a_node47"><a xlink:href="https://github.com/conda-forge/myproxy-feedstock" xlink:title="myproxy">
<ellipse fill="#fde725" stroke="black" cx="2129.64" cy="-242" rx="43" ry="18"/>
<text text-anchor="middle" x="2129.64" y="-238.3" font-family="Times,serif" font-size="14.00">myproxy</text>
</a>
</g>
</g>
<!-- procps&#45;ng&#45;&gt;myproxy -->
<g id="edge48" class="edge">
<title>procps&#45;ng&#45;&gt;myproxy</title>
<path fill="none" stroke="black" d="M2129.64,-295.7C2129.64,-287.98 2129.64,-278.71 2129.64,-270.11"/>
<polygon fill="black" stroke="black" points="2133.14,-270.1 2129.64,-260.1 2126.14,-270.1 2133.14,-270.1"/>
</g>
<!-- libusb -->
<g id="node49" class="node">
<title>libusb</title>
<g id="a_node49"><a xlink:href="https://github.com/conda-forge/libusb-feedstock/pull/8" xlink:title="libusb ❎">
<ellipse fill="#31688e" stroke="black" cx="2129.64" cy="-754" rx="44.39" ry="18"/>
<text text-anchor="middle" x="2129.64" y="-750.3" font-family="Times,serif" font-size="14.00" fill="white">libusb ❎</text>
</a>
</g>
</g>
<!-- cudatoolkit&#45;&gt;libusb -->
<!-- nvcc -->
<g id="node50" class="node">
<title>nvcc</title>
<g id="a_node50"><a xlink:href="https://github.com/conda-forge/nvcc-feedstock/pull/62" xlink:title="nvcc ✓">
<ellipse fill="#31688e" stroke="black" cx="2129.64" cy="-682" rx="37.89" ry="18"/>
<text text-anchor="middle" x="2129.64" y="-678.3" font-family="Times,serif" font-size="14.00" fill="white">nvcc ✓</text>
</a>
</g>
</g>
<!-- libusb&#45;&gt;nvcc -->
<!-- proj -->
<g id="node51" class="node">
<title>proj</title>
<g id="a_node51"><a xlink:href="https://github.com/conda-forge/proj-feedstock" xlink:title="proj">
<ellipse fill="#35b779" stroke="black" cx="2129.64" cy="-610" rx="27" ry="18"/>
<text text-anchor="middle" x="2129.64" y="-606.3" font-family="Times,serif" font-size="14.00">proj</text>
</a>
</g>
</g>
<!-- nvcc&#45;&gt;proj -->
<!-- ompl -->
<g id="node52" class="node">
<title>ompl</title>
<g id="a_node52"><a xlink:href="https://github.com/conda-forge/ompl-feedstock/pull/8" xlink:title="ompl ❎">
<ellipse fill="#31688e" stroke="black" cx="2129.64" cy="-538" rx="41" ry="18"/>
<text text-anchor="middle" x="2129.64" y="-534.3" font-family="Times,serif" font-size="14.00" fill="white">ompl ❎</text>
</a>
</g>
</g>
<!-- proj&#45;&gt;ompl -->
<!-- nordugrid&#45;arc -->
<g id="node62" class="node">
<title>nordugrid&#45;arc</title>
<g id="a_node62"><a xlink:href="https://github.com/conda-forge/nordugrid-arc-feedstock/pull/14" xlink:title="nordugrid arc ❎">
<ellipse fill="#31688e" stroke="black" cx="2129.64" cy="-466" rx="70.39" ry="18"/>
<text text-anchor="middle" x="2129.64" y="-462.3" font-family="Times,serif" font-size="14.00" fill="white">nordugrid arc ❎</text>
</a>
</g>
</g>
<!-- ompl&#45;&gt;nordugrid&#45;arc -->
<!-- libignition&#45;transport4 -->
<g id="node53" class="node">
<title>libignition&#45;transport4</title>
<g id="a_node53"><a xlink:href="https://github.com/conda-forge/libignition-transport4-feedstock" xlink:title="libignition transport4">
<ellipse fill="#fde725" stroke="black" cx="1219.64" cy="-718" rx="85.29" ry="18"/>
<text text-anchor="middle" x="1219.64" y="-714.3" font-family="Times,serif" font-size="14.00">libignition transport4</text>
</a>
</g>
</g>
<!-- libignition&#45;msgs1 -->
<g id="node54" class="node">
<title>libignition&#45;msgs1</title>
<g id="a_node54"><a xlink:href="https://github.com/conda-forge/libignition-msgs1-feedstock" xlink:title="libignition msgs1">
<ellipse fill="#fde725" stroke="black" cx="1336.64" cy="-790" rx="73" ry="18"/>
<text text-anchor="middle" x="1336.64" y="-786.3" font-family="Times,serif" font-size="14.00">libignition msgs1</text>
</a>
</g>
</g>
<!-- libignition&#45;msgs1&#45;&gt;libignition&#45;fuel&#45;tools -->
<g id="edge54" class="edge">
<title>libignition&#45;msgs1&#45;&gt;libignition&#45;fuel&#45;tools</title>
<path fill="none" stroke="black" d="M1362.06,-773.12C1377.3,-763.59 1396.92,-751.33 1413.62,-740.89"/>
<polygon fill="black" stroke="black" points="1415.93,-743.58 1422.55,-735.31 1412.22,-737.64 1415.93,-743.58"/>
</g>
<!-- libignition&#45;msgs1&#45;&gt;libignition&#45;transport4 -->
<g id="edge55" class="edge">
<title>libignition&#45;msgs1&#45;&gt;libignition&#45;transport4</title>
<path fill="none" stroke="black" d="M1310.09,-773.12C1294.02,-763.5 1273.3,-751.1 1255.75,-740.6"/>
<polygon fill="black" stroke="black" points="1257.28,-737.44 1246.9,-735.31 1253.68,-743.44 1257.28,-737.44"/>
</g>
<!-- libignition&#45;tools -->
<g id="node55" class="node">
<title>libignition&#45;tools</title>
<g id="a_node55"><a xlink:href="https://github.com/conda-forge/libignition-tools-feedstock/pull/5" xlink:title="libignition tools ✓">
<ellipse fill="#31688e" stroke="black" cx="1235.64" cy="-862" rx="77.5" ry="18"/>
<text text-anchor="middle" x="1235.64" y="-858.3" font-family="Times,serif" font-size="14.00" fill="white">libignition tools ✓</text>
</a>
</g>
</g>
<!-- libignition&#45;tools&#45;&gt;libignition&#45;fuel&#45;tools -->
<g id="edge56" class="edge">
<title>libignition&#45;tools&#45;&gt;libignition&#45;fuel&#45;tools</title>
<path fill="none" stroke="black" d="M1234.38,-843.87C1233.9,-823.98 1236.3,-791.41 1254.64,-772 1271.21,-754.47 1326.41,-740.42 1373.71,-731.21"/>
<polygon fill="black" stroke="black" points="1374.5,-734.62 1383.67,-729.31 1373.19,-727.74 1374.5,-734.62"/>
</g>
<!-- libignition&#45;tools&#45;&gt;libignition&#45;transport4 -->
<g id="edge57" class="edge">
<title>libignition&#45;tools&#45;&gt;libignition&#45;transport4</title>
<path fill="none" stroke="black" d="M1230.06,-844.02C1226.96,-833.73 1223.37,-820.25 1221.64,-808 1218.74,-787.47 1218.33,-764.02 1218.6,-746.34"/>
<polygon fill="black" stroke="black" points="1222.1,-746.24 1218.84,-736.16 1215.1,-746.07 1222.1,-746.24"/>
</g>
<!-- libignition&#45;tools&#45;&gt;libignition&#45;msgs1 -->
<g id="edge58" class="edge">
<title>libignition&#45;tools&#45;&gt;libignition&#45;msgs1</title>
<path fill="none" stroke="black" d="M1259.07,-844.76C1272.71,-835.31 1290.09,-823.26 1304.94,-812.97"/>
<polygon fill="black" stroke="black" points="1307.12,-815.72 1313.34,-807.15 1303.13,-809.97 1307.12,-815.72"/>
</g>
<!-- libignition&#45;math4 -->
<g id="node56" class="node">
<title>libignition&#45;math4</title>
<g id="a_node56"><a xlink:href="https://github.com/conda-forge/libignition-math4-feedstock" xlink:title="libignition math4">
<ellipse fill="#35b779" stroke="black" cx="1735.64" cy="-862" rx="72.29" ry="18"/>
<text text-anchor="middle" x="1735.64" y="-858.3" font-family="Times,serif" font-size="14.00">libignition math4</text>
</a>
</g>
</g>
<!-- libignition&#45;math4&#45;&gt;libignition&#45;msgs1 -->
<g id="edge59" class="edge">
<title>libignition&#45;math4&#45;&gt;libignition&#45;msgs1</title>
<path fill="none" stroke="black" d="M1681.75,-849.85C1671.44,-847.83 1660.72,-845.79 1650.64,-844 1547.9,-825.76 1521.32,-826.6 1418.64,-808 1412.54,-806.89 1406.19,-805.69 1399.86,-804.44"/>
<polygon fill="black" stroke="black" points="1400.43,-800.98 1389.94,-802.46 1399.06,-807.85 1400.43,-800.98"/>
</g>
<!-- libsdformat -->
<g id="node57" class="node">
<title>libsdformat</title>
<g id="a_node57"><a xlink:href="https://github.com/conda-forge/libsdformat-feedstock" xlink:title="libsdformat">
<ellipse fill="#fde725" stroke="black" cx="1761.64" cy="-790" rx="52" ry="18"/>
<text text-anchor="middle" x="1761.64" y="-786.3" font-family="Times,serif" font-size="14.00">libsdformat</text>
</a>
</g>
</g>
<!-- libignition&#45;math4&#45;&gt;libsdformat -->
<g id="edge60" class="edge">
<title>libignition&#45;math4&#45;&gt;libsdformat</title>
<path fill="none" stroke="black" d="M1741.94,-844.05C1744.86,-836.18 1748.41,-826.62 1751.69,-817.79"/>
<polygon fill="black" stroke="black" points="1755.02,-818.87 1755.23,-808.28 1748.46,-816.43 1755.02,-818.87"/>
</g>
<!-- libignition&#45;common -->
<g id="node58" class="node">
<title>libignition&#45;common</title>
<g id="a_node58"><a xlink:href="https://github.com/conda-forge/libignition-common-feedstock" xlink:title="libignition common">
<ellipse fill="#fde725" stroke="black" cx="1610.64" cy="-790" rx="81.49" ry="18"/>
<text text-anchor="middle" x="1610.64" y="-786.3" font-family="Times,serif" font-size="14.00">libignition common</text>
</a>
</g>
</g>
<!-- libignition&#45;math4&#45;&gt;libignition&#45;common -->
<g id="edge61" class="edge">
<title>libignition&#45;math4&#45;&gt;libignition&#45;common</title>
<path fill="none" stroke="black" d="M1707.59,-845.29C1689.94,-835.41 1666.97,-822.54 1647.81,-811.81"/>
<polygon fill="black" stroke="black" points="1649.47,-808.73 1639.03,-806.9 1646.05,-814.84 1649.47,-808.73"/>
</g>
<!-- libignition&#45;physics -->
<g id="node59" class="node">
<title>libignition&#45;physics</title>
<g id="a_node59"><a xlink:href="https://github.com/conda-forge/libignition-physics-feedstock" xlink:title="libignition physics">
<ellipse fill="#fde725" stroke="black" cx="1841.64" cy="-718" rx="76.09" ry="18"/>
<text text-anchor="middle" x="1841.64" y="-714.3" font-family="Times,serif" font-size="14.00">libignition physics</text>
</a>
</g>
</g>
<!-- libignition&#45;math4&#45;&gt;libignition&#45;physics -->
<g id="edge62" class="edge">
<title>libignition&#45;math4&#45;&gt;libignition&#45;physics</title>
<path fill="none" stroke="black" d="M1773.26,-846.46C1790.81,-837.83 1810.46,-825.17 1822.64,-808 1835.39,-790.03 1839.88,-765.24 1841.34,-746.39"/>
<polygon fill="black" stroke="black" points="1844.84,-746.51 1841.87,-736.33 1837.85,-746.13 1844.84,-746.51"/>
</g>
<!-- libsdformat&#45;&gt;libignition&#45;physics -->
<g id="edge63" class="edge">
<title>libsdformat&#45;&gt;libignition&#45;physics</title>
<path fill="none" stroke="black" d="M1779.8,-773.12C1790.21,-764 1803.47,-752.4 1815.04,-742.28"/>
<polygon fill="black" stroke="black" points="1817.5,-744.77 1822.73,-735.55 1812.9,-739.5 1817.5,-744.77"/>
</g>
<!-- libignition&#45;common&#45;&gt;libignition&#45;fuel&#45;tools -->
<g id="edge64" class="edge">
<title>libignition&#45;common&#45;&gt;libignition&#45;fuel&#45;tools</title>
<path fill="none" stroke="black" d="M1575.09,-773.64C1551.03,-763.24 1519.07,-749.43 1493.3,-738.3"/>
<polygon fill="black" stroke="black" points="1494.68,-735.08 1484.11,-734.33 1491.9,-741.51 1494.68,-735.08"/>
</g>
<!-- libignition&#45;common&#45;&gt;libignition&#45;physics -->
<g id="edge65" class="edge">
<title>libignition&#45;common&#45;&gt;libignition&#45;physics</title>
<path fill="none" stroke="black" d="M1656.56,-775.09C1694.04,-763.73 1747.1,-747.65 1786.81,-735.62"/>
<polygon fill="black" stroke="black" points="1788.05,-738.9 1796.6,-732.65 1786.02,-732.2 1788.05,-738.9"/>
</g>
<!-- nccl -->
<g id="node60" class="node">
<title>nccl</title>
<g id="a_node60"><a xlink:href="https://github.com/conda-forge/nccl-feedstock/pull/29" xlink:title="nccl ❎">
<ellipse fill="#31688e" stroke="black" cx="65.64" cy="-826" rx="37.09" ry="18"/>
<text text-anchor="middle" x="65.64" y="-822.3" font-family="Times,serif" font-size="14.00" fill="white">nccl ❎</text>
</a>
</g>
</g>
<!-- nccl&#45;&gt;pytorch&#45;cpu -->
<g id="edge66" class="edge">
<title>nccl&#45;&gt;pytorch&#45;cpu</title>
<path fill="none" stroke="black" d="M80.39,-809.12C88.75,-800.12 99.37,-788.68 108.68,-778.65"/>
<polygon fill="black" stroke="black" points="111.26,-781.02 115.5,-771.31 106.13,-776.25 111.26,-781.02"/>
</g>
<!-- cudnn -->
<g id="node61" class="node">
<title>cudnn</title>
<g id="a_node61"><a xlink:href="https://github.com/conda-forge/cudnn-feedstock/pull/9" xlink:title="cudnn ❎">
<ellipse fill="#31688e" stroke="black" cx="202.64" cy="-898" rx="44.39" ry="18"/>
<text text-anchor="middle" x="202.64" y="-894.3" font-family="Times,serif" font-size="14.00" fill="white">cudnn ❎</text>
</a>
</g>
</g>
<!-- cudnn&#45;&gt;pytorch&#45;cpu -->
<g id="edge67" class="edge">
<title>cudnn&#45;&gt;pytorch&#45;cpu</title>
<path fill="none" stroke="black" d="M194.1,-880.15C181.65,-855.6 158.41,-809.77 143.78,-780.91"/>
<polygon fill="black" stroke="black" points="146.82,-779.16 139.17,-771.82 140.57,-782.33 146.82,-779.16"/>
</g>
<!-- gts -->
<g id="node63" class="node">
<title>gts</title>
<g id="a_node63"><a xlink:href="https://github.com/conda-forge/gts-feedstock/pull/3" xlink:title="gts ✓">
<ellipse fill="#31688e" stroke="black" cx="1610.64" cy="-862" rx="31.4" ry="18"/>
<text text-anchor="middle" x="1610.64" y="-858.3" font-family="Times,serif" font-size="14.00" fill="white">gts ✓</text>
</a>
</g>
</g>
<!-- gts&#45;&gt;libignition&#45;common -->
<g id="edge69" class="edge">
<title>gts&#45;&gt;libignition&#45;common</title>
<path fill="none" stroke="black" d="M1610.64,-843.7C1610.64,-835.98 1610.64,-826.71 1610.64,-818.11"/>
<polygon fill="black" stroke="black" points="1614.14,-818.1 1610.64,-808.1 1607.14,-818.1 1614.14,-818.1"/>
</g>
<!-- libignition&#45;plugin -->
<g id="node64" class="node">
<title>libignition&#45;plugin</title>
<g id="a_node64"><a xlink:href="https://github.com/conda-forge/libignition-plugin-feedstock" xlink:title="libignition plugin">
<ellipse fill="#35b779" stroke="black" cx="1979.64" cy="-790" rx="72.29" ry="18"/>
<text text-anchor="middle" x="1979.64" y="-786.3" font-family="Times,serif" font-size="14.00">libignition plugin</text>
</a>
</g>
</g>
<!-- libignition&#45;plugin&#45;&gt;libignition&#45;physics -->
<g id="edge70" class="edge">
<title>libignition&#45;plugin&#45;&gt;libignition&#45;physics</title>
<path fill="none" stroke="black" d="M1949.36,-773.64C1929.36,-763.5 1902.96,-750.1 1881.29,-739.11"/>
<polygon fill="black" stroke="black" points="1882.83,-735.97 1872.33,-734.57 1879.67,-742.21 1882.83,-735.97"/>
</g>
<!-- dartsim -->
<g id="node65" class="node">
<title>dartsim</title>
<g id="a_node65"><a xlink:href="https://github.com/conda-forge/dartsim-feedstock/pull/5" xlink:title="dartsim ❎">
<ellipse fill="#31688e" stroke="black" cx="1879.64" cy="-862" rx="49.5" ry="18"/>
<text text-anchor="middle" x="1879.64" y="-858.3" font-family="Times,serif" font-size="14.00" fill="white">dartsim ❎</text>
</a>
</g>
</g>
<!-- dartsim&#45;&gt;libignition&#45;physics -->
<g id="edge71" class="edge">
<title>dartsim&#45;&gt;libignition&#45;physics</title>
<path fill="none" stroke="black" d="M1875.06,-843.87C1868.55,-819.56 1856.58,-774.82 1848.87,-746.01"/>
<polygon fill="black" stroke="black" points="1852.21,-744.94 1846.24,-736.19 1845.45,-746.75 1852.21,-744.94"/>
</g>
<!-- magma -->
<g id="node66" class="node">
<title>magma</title>
<g id="a_node66"><a xlink:href="https://github.com/conda-forge/magma-feedstock/pull/4" xlink:title="magma ✓">
<ellipse fill="#31688e" stroke="black" cx="130.64" cy="-970" rx="48.19" ry="18"/>
<text text-anchor="middle" x="130.64" y="-966.3" font-family="Times,serif" font-size="14.00" fill="white">magma ✓</text>
</a>
</g>
</g>
<!-- magma&#45;&gt;pytorch&#45;cpu -->
<g id="edge72" class="edge">
<title>magma&#45;&gt;pytorch&#45;cpu</title>
<path fill="none" stroke="black" d="M130.64,-951.85C130.64,-914.83 130.64,-827.18 130.64,-782.39"/>
<polygon fill="black" stroke="black" points="134.14,-782.23 130.64,-772.23 127.14,-782.23 134.14,-782.23"/>
</g>
</g>
</svg>
