<?xml version="1.0" encoding="UTF-8" standalone="no"?>
<!DOCTYPE svg PUBLIC "-//W3C//DTD SVG 1.1//EN"
 "http://www.w3.org/Graphics/SVG/1.1/DTD/svg11.dtd">
<!-- Generated by graphviz version 2.47.1 (20210511.0111)
 -->
<!-- Pages: 1 -->
<svg width="2114pt" height="996pt"
 viewBox="0.00 0.00 2113.74 996.00" xmlns="http://www.w3.org/2000/svg" xmlns:xlink="http://www.w3.org/1999/xlink">
<g id="graph0" class="graph" transform="scale(1 1) rotate(0) translate(4 992)">
<polygon fill="white" stroke="transparent" points="-4,4 -4,-992 2109.74,-992 2109.74,4 -4,4"/>
<!-- check -->
<g id="node1" class="node">
<title>check</title>
<g id="a_node1"><a xlink:href="https://github.com/conda-forge/check-feedstock/pull/19" xlink:title="check ❎">
<ellipse fill="#31688e" stroke="black" cx="515.24" cy="-610" rx="51.5" ry="18"/>
<text text-anchor="middle" x="515.24" y="-606.3" font-family="Times-Roman" font-size="14.00" fill="white">check ❎</text>
</a>
</g>
</g>
<!-- pulseaudio -->
<g id="node2" class="node">
<title>pulseaudio</title>
<g id="a_node2"><a xlink:href="https://github.com/conda-forge/pulseaudio-feedstock" xlink:title="pulseaudio">
<ellipse fill="#fde725" stroke="black" cx="435.24" cy="-538" rx="60" ry="18"/>
<text text-anchor="middle" x="435.24" y="-534.3" font-family="Times-Roman" font-size="14.00">pulseaudio</text>
</a>
</g>
</g>
<!-- check&#45;&gt;pulseaudio -->
<g id="edge1" class="edge">
<title>check&#45;&gt;pulseaudio</title>
<path fill="none" stroke="black" d="M497.09,-593.12C486.6,-583.94 473.22,-572.23 461.59,-562.06"/>
<polygon fill="black" stroke="black" points="463.71,-559.26 453.88,-555.31 459.1,-564.53 463.71,-559.26"/>
</g>
<!-- gqrx -->
<g id="node3" class="node">
<title>gqrx</title>
<g id="a_node3"><a xlink:href="https://github.com/conda-forge/gqrx-feedstock" xlink:title="gqrx">
<ellipse fill="#fde725" stroke="black" cx="748.24" cy="-466" rx="31.4" ry="18"/>
<text text-anchor="middle" x="748.24" y="-462.3" font-family="Times-Roman" font-size="14.00">gqrx</text>
</a>
</g>
</g>
<!-- pulseaudio&#45;&gt;gqrx -->
<g id="edge2" class="edge">
<title>pulseaudio&#45;&gt;gqrx</title>
<path fill="none" stroke="black" d="M484.28,-527.43C534.82,-517.37 615.79,-500.72 685.24,-484 693.54,-482 702.41,-479.71 710.8,-477.46"/>
<polygon fill="black" stroke="black" points="711.99,-480.77 720.73,-474.78 710.16,-474.01 711.99,-480.77"/>
</g>
<!-- googleapis&#45;common&#45;protos -->
<g id="node4" class="node">
<title>googleapis&#45;common&#45;protos</title>
<g id="a_node4"><a xlink:href="https://github.com/conda-forge/googleapis-common-protos-feedstock/pull/27" xlink:title="googleapis common protos ❎">
<ellipse fill="#31688e" stroke="black" cx="1277.24" cy="-970" rx="147" ry="18"/>
<text text-anchor="middle" x="1277.24" y="-966.3" font-family="Times-Roman" font-size="14.00" fill="white">googleapis common protos ❎</text>
</a>
</g>
</g>
<!-- root_numpy -->
<g id="node5" class="node">
<title>root_numpy</title>
<g id="a_node5"><a xlink:href="https://github.com/conda-forge/root_numpy-feedstock/pull/21" xlink:title="root_numpy ❎">
<ellipse fill="#31688e" stroke="black" cx="1277.24" cy="-898" rx="78.79" ry="18"/>
<text text-anchor="middle" x="1277.24" y="-894.3" font-family="Times-Roman" font-size="14.00" fill="white">root_numpy ❎</text>
</a>
</g>
</g>
<!-- googleapis&#45;common&#45;protos&#45;&gt;root_numpy -->
<!-- r&#45;grf -->
<g id="node33" class="node">
<title>r&#45;grf</title>
<g id="a_node33"><a xlink:href="https://github.com/conda-forge/r-grf-feedstock/pull/10" xlink:title="r grf ❎">
<ellipse fill="#31688e" stroke="black" cx="1277.24" cy="-826" rx="45" ry="18"/>
<text text-anchor="middle" x="1277.24" y="-822.3" font-family="Times-Roman" font-size="14.00" fill="white">r grf ❎</text>
</a>
</g>
</g>
<!-- root_numpy&#45;&gt;r&#45;grf -->
<!-- hyperspy -->
<g id="node6" class="node">
<title>hyperspy</title>
<g id="a_node6"><a xlink:href="https://github.com/conda-forge/hyperspy-feedstock" xlink:title="hyperspy">
<ellipse fill="#fde725" stroke="black" cx="1069.24" cy="-682" rx="53.5" ry="18"/>
<text text-anchor="middle" x="1069.24" y="-678.3" font-family="Times-Roman" font-size="14.00">hyperspy</text>
</a>
</g>
</g>
<!-- jack -->
<g id="node7" class="node">
<title>jack</title>
<g id="a_node7"><a xlink:href="https://github.com/conda-forge/jack-feedstock/pull/6" xlink:title="jack ✓">
<ellipse fill="#31688e" stroke="black" cx="616.24" cy="-682" rx="39.79" ry="18"/>
<text text-anchor="middle" x="616.24" y="-678.3" font-family="Times-Roman" font-size="14.00" fill="white">jack ✓</text>
</a>
</g>
</g>
<!-- jack&#45;&gt;pulseaudio -->
<g id="edge4" class="edge">
<title>jack&#45;&gt;pulseaudio</title>
<path fill="none" stroke="black" d="M584.61,-671.02C538.36,-656.36 457.5,-630.49 455.24,-628 440.16,-611.38 435.64,-585.87 434.62,-566.42"/>
<polygon fill="black" stroke="black" points="438.12,-566.24 434.37,-556.34 431.12,-566.42 438.12,-566.24"/>
</g>
<!-- libunwind -->
<g id="node8" class="node">
<title>libunwind</title>
<g id="a_node8"><a xlink:href="https://github.com/conda-forge/libunwind-feedstock/pull/14" xlink:title="libunwind ❎">
<ellipse fill="#31688e" stroke="black" cx="1592.24" cy="-682" rx="69" ry="18"/>
<text text-anchor="middle" x="1592.24" y="-678.3" font-family="Times-Roman" font-size="14.00" fill="white">libunwind ❎</text>
</a>
</g>
</g>
<!-- gperftools -->
<g id="node9" class="node">
<title>gperftools</title>
<g id="a_node9"><a xlink:href="https://github.com/conda-forge/gperftools-feedstock" xlink:title="gperftools">
<ellipse fill="#fde725" stroke="black" cx="1592.24" cy="-610" rx="56" ry="18"/>
<text text-anchor="middle" x="1592.24" y="-606.3" font-family="Times-Roman" font-size="14.00">gperftools</text>
</a>
</g>
</g>
<!-- libunwind&#45;&gt;gperftools -->
<g id="edge5" class="edge">
<title>libunwind&#45;&gt;gperftools</title>
<path fill="none" stroke="black" d="M1592.24,-663.7C1592.24,-655.98 1592.24,-646.71 1592.24,-638.11"/>
<polygon fill="black" stroke="black" points="1595.74,-638.1 1592.24,-628.1 1588.74,-638.1 1595.74,-638.1"/>
</g>
<!-- py&#45;spy -->
<g id="node10" class="node">
<title>py&#45;spy</title>
<g id="a_node10"><a xlink:href="https://github.com/conda-forge/py-spy-feedstock" xlink:title="py spy">
<ellipse fill="#fde725" stroke="black" cx="1727.24" cy="-538" rx="41" ry="18"/>
<text text-anchor="middle" x="1727.24" y="-534.3" font-family="Times-Roman" font-size="14.00">py spy</text>
</a>
</g>
</g>
<!-- libunwind&#45;&gt;py&#45;spy -->
<g id="edge6" class="edge">
<title>libunwind&#45;&gt;py&#45;spy</title>
<path fill="none" stroke="black" d="M1614.34,-664.93C1627.42,-654.96 1643.98,-641.5 1657.24,-628 1676.99,-607.91 1696.56,-582.42 1709.97,-563.87"/>
<polygon fill="black" stroke="black" points="1712.89,-565.81 1715.85,-555.64 1707.19,-561.74 1712.89,-565.81"/>
</g>
<!-- heaptrack -->
<g id="node11" class="node">
<title>heaptrack</title>
<g id="a_node11"><a xlink:href="https://github.com/conda-forge/heaptrack-feedstock" xlink:title="heaptrack">
<ellipse fill="#fde725" stroke="black" cx="1488.24" cy="-466" rx="56" ry="18"/>
<text text-anchor="middle" x="1488.24" y="-462.3" font-family="Times-Roman" font-size="14.00">heaptrack</text>
</a>
</g>
</g>
<!-- libunwind&#45;&gt;heaptrack -->
<g id="edge7" class="edge">
<title>libunwind&#45;&gt;heaptrack</title>
<path fill="none" stroke="black" d="M1566.1,-665.31C1552.68,-656.02 1537.12,-643.11 1527.24,-628 1500.27,-586.73 1491.93,-528.52 1489.37,-494.58"/>
<polygon fill="black" stroke="black" points="1492.85,-494.22 1488.72,-484.46 1485.87,-494.67 1492.85,-494.22"/>
</g>
<!-- sentencepiece -->
<g id="node12" class="node">
<title>sentencepiece</title>
<g id="a_node12"><a xlink:href="https://github.com/conda-forge/sentencepiece-feedstock" xlink:title="sentencepiece">
<ellipse fill="#fde725" stroke="black" cx="1592.24" cy="-538" rx="75.5" ry="18"/>
<text text-anchor="middle" x="1592.24" y="-534.3" font-family="Times-Roman" font-size="14.00">sentencepiece</text>
</a>
</g>
</g>
<!-- gperftools&#45;&gt;sentencepiece -->
<g id="edge8" class="edge">
<title>gperftools&#45;&gt;sentencepiece</title>
<path fill="none" stroke="black" d="M1592.24,-591.7C1592.24,-583.98 1592.24,-574.71 1592.24,-566.11"/>
<polygon fill="black" stroke="black" points="1595.74,-566.1 1592.24,-556.1 1588.74,-566.1 1595.74,-566.1"/>
</g>
<!-- allennlp -->
<g id="node32" class="node">
<title>allennlp</title>
<g id="a_node32"><a xlink:href="https://github.com/conda-forge/allennlp-feedstock" xlink:title="allennlp">
<ellipse fill="#fde725" stroke="black" cx="1890.24" cy="-466" rx="46.29" ry="18"/>
<text text-anchor="middle" x="1890.24" y="-462.3" font-family="Times-Roman" font-size="14.00">allennlp</text>
</a>
</g>
</g>
<!-- sentencepiece&#45;&gt;allennlp -->
<g id="edge33" class="edge">
<title>sentencepiece&#45;&gt;allennlp</title>
<path fill="none" stroke="black" d="M1644.15,-524.81C1699.76,-511.74 1787.34,-491.17 1841.65,-478.42"/>
<polygon fill="black" stroke="black" points="1842.78,-481.74 1851.71,-476.05 1841.18,-474.93 1842.78,-481.74"/>
</g>
<!-- perl&#45;xml&#45;parser -->
<g id="node13" class="node">
<title>perl&#45;xml&#45;parser</title>
<g id="a_node13"><a xlink:href="https://github.com/conda-forge/perl-xml-parser-feedstock/pull/8" xlink:title="perl xml parser ❎">
<ellipse fill="#31688e" stroke="black" cx="94.24" cy="-754" rx="94.48" ry="18"/>
<text text-anchor="middle" x="94.24" y="-750.3" font-family="Times-Roman" font-size="14.00" fill="white">perl xml parser ❎</text>
</a>
</g>
</g>
<!-- perl&#45;xml&#45;parser&#45;&gt;pulseaudio -->
<g id="edge9" class="edge">
<title>perl&#45;xml&#45;parser&#45;&gt;pulseaudio</title>
<path fill="none" stroke="black" d="M100.6,-736.01C113.97,-702.74 148.28,-629.06 202.24,-592 250.29,-559 315.78,-546.26 365.1,-541.48"/>
<polygon fill="black" stroke="black" points="365.71,-544.94 375.37,-540.58 365.1,-537.97 365.71,-544.94"/>
</g>
<!-- pyqt -->
<g id="node14" class="node">
<title>pyqt</title>
<g id="a_node14"><a xlink:href="https://github.com/conda-forge/pyqt-feedstock" xlink:title="pyqt">
<ellipse fill="#fde725" stroke="black" cx="963.24" cy="-754" rx="31.4" ry="18"/>
<text text-anchor="middle" x="963.24" y="-750.3" font-family="Times-Roman" font-size="14.00">pyqt</text>
</a>
</g>
</g>
<!-- pyqt&#45;&gt;hyperspy -->
<g id="edge10" class="edge">
<title>pyqt&#45;&gt;hyperspy</title>
<path fill="none" stroke="black" d="M983.18,-739.83C998.4,-729.78 1019.67,-715.73 1037.26,-704.12"/>
<polygon fill="black" stroke="black" points="1039.66,-706.73 1046.07,-698.3 1035.8,-700.89 1039.66,-706.73"/>
</g>
<!-- gnuradio -->
<g id="node15" class="node">
<title>gnuradio</title>
<g id="a_node15"><a xlink:href="https://github.com/conda-forge/gnuradio-feedstock" xlink:title="gnuradio">
<ellipse fill="#fde725" stroke="black" cx="740.24" cy="-682" rx="51.5" ry="18"/>
<text text-anchor="middle" x="740.24" y="-678.3" font-family="Times-Roman" font-size="14.00">gnuradio</text>
</a>
</g>
</g>
<!-- pyqt&#45;&gt;gnuradio -->
<g id="edge11" class="edge">
<title>pyqt&#45;&gt;gnuradio</title>
<path fill="none" stroke="black" d="M936.34,-744.56C899.32,-732.94 832.13,-711.84 786.84,-697.63"/>
<polygon fill="black" stroke="black" points="787.84,-694.27 777.25,-694.62 785.74,-700.95 787.84,-694.27"/>
</g>
<!-- pythonocc&#45;core -->
<g id="node16" class="node">
<title>pythonocc&#45;core</title>
<g id="a_node16"><a xlink:href="https://github.com/conda-forge/pythonocc-core-feedstock" xlink:title="pythonocc core">
<ellipse fill="#fde725" stroke="black" cx="999.24" cy="-610" rx="79.5" ry="18"/>
<text text-anchor="middle" x="999.24" y="-606.3" font-family="Times-Roman" font-size="14.00">pythonocc core</text>
</a>
</g>
</g>
<!-- pyqt&#45;&gt;pythonocc&#45;core -->
<g id="edge12" class="edge">
<title>pyqt&#45;&gt;pythonocc&#45;core</title>
<path fill="none" stroke="black" d="M967.51,-736.15C973.65,-711.94 985.03,-667.05 992.36,-638.13"/>
<polygon fill="black" stroke="black" points="995.8,-638.82 994.86,-628.27 989.01,-637.1 995.8,-638.82"/>
</g>
<!-- gnuradio&#45;&gt;gqrx -->
<g id="edge13" class="edge">
<title>gnuradio&#45;&gt;gqrx</title>
<path fill="none" stroke="black" d="M743.13,-663.77C745.39,-644.66 746.15,-613.67 732.24,-592 714.82,-564.86 685.43,-583.89 669.24,-556 661.21,-542.16 661.71,-534.12 669.24,-520 678.6,-502.46 696.62,-489.69 713.09,-481.09"/>
<polygon fill="black" stroke="black" points="715.07,-484.03 722.54,-476.51 712.01,-477.73 715.07,-484.03"/>
</g>
<!-- digital_rf -->
<g id="node17" class="node">
<title>digital_rf</title>
<g id="a_node17"><a xlink:href="https://github.com/conda-forge/digital_rf-feedstock" xlink:title="digital_rf">
<ellipse fill="#fde725" stroke="black" cx="673.24" cy="-610" rx="50.09" ry="18"/>
<text text-anchor="middle" x="673.24" y="-606.3" font-family="Times-Roman" font-size="14.00">digital_rf</text>
</a>
</g>
</g>
<!-- gnuradio&#45;&gt;digital_rf -->
<g id="edge14" class="edge">
<title>gnuradio&#45;&gt;digital_rf</title>
<path fill="none" stroke="black" d="M724.7,-664.76C716.08,-655.75 705.2,-644.39 695.66,-634.43"/>
<polygon fill="black" stroke="black" points="698.14,-631.95 688.7,-627.15 693.08,-636.79 698.14,-631.95"/>
</g>
<!-- gnuradio&#45;osmosdr -->
<g id="node18" class="node">
<title>gnuradio&#45;osmosdr</title>
<g id="a_node18"><a xlink:href="https://github.com/conda-forge/gnuradio-osmosdr-feedstock" xlink:title="gnuradio osmosdr">
<ellipse fill="#fde725" stroke="black" cx="771.24" cy="-538" rx="93" ry="18"/>
<text text-anchor="middle" x="771.24" y="-534.3" font-family="Times-Roman" font-size="14.00">gnuradio osmosdr</text>
</a>
</g>
</g>
<!-- gnuradio&#45;&gt;gnuradio&#45;osmosdr -->
<g id="edge15" class="edge">
<title>gnuradio&#45;&gt;gnuradio&#45;osmosdr</title>
<path fill="none" stroke="black" d="M750.29,-663.95C755.72,-653.85 761.97,-640.6 765.24,-628 770.52,-607.67 771.89,-583.9 772.01,-566.05"/>
<polygon fill="black" stroke="black" points="775.51,-566.01 771.95,-556.03 768.51,-566.05 775.51,-566.01"/>
</g>
<!-- gnuradio&#45;soapy -->
<g id="node19" class="node">
<title>gnuradio&#45;soapy</title>
<g id="a_node19"><a xlink:href="https://github.com/conda-forge/gnuradio-soapy-feedstock" xlink:title="gnuradio soapy">
<ellipse fill="#fde725" stroke="black" cx="595.24" cy="-466" rx="81.49" ry="18"/>
<text text-anchor="middle" x="595.24" y="-462.3" font-family="Times-Roman" font-size="14.00">gnuradio soapy</text>
</a>
</g>
</g>
<!-- gnuradio&#45;&gt;gnuradio&#45;soapy -->
<g id="edge16" class="edge">
<title>gnuradio&#45;&gt;gnuradio&#45;soapy</title>
<path fill="none" stroke="black" d="M702.36,-669.73C669.44,-659.13 625.34,-642.74 614.24,-628 584.92,-589.04 586.59,-529.07 590.72,-494.38"/>
<polygon fill="black" stroke="black" points="594.25,-494.44 592.12,-484.06 587.31,-493.5 594.25,-494.44"/>
</g>
<!-- gnuradio&#45;satellites -->
<g id="node20" class="node">
<title>gnuradio&#45;satellites</title>
<g id="a_node20"><a xlink:href="https://github.com/conda-forge/gnuradio-satellites-feedstock" xlink:title="gnuradio satellites">
<ellipse fill="#fde725" stroke="black" cx="930.24" cy="-394" rx="94.48" ry="18"/>
<text text-anchor="middle" x="930.24" y="-390.3" font-family="Times-Roman" font-size="14.00">gnuradio satellites</text>
</a>
</g>
</g>
<!-- gnuradio&#45;&gt;gnuradio&#45;satellites -->
<g id="edge17" class="edge">
<title>gnuradio&#45;&gt;gnuradio&#45;satellites</title>
<path fill="none" stroke="black" d="M762.16,-665.69C791.32,-644.27 842.76,-602.7 873.24,-556 901.03,-513.43 917.16,-455.67 924.79,-422.16"/>
<polygon fill="black" stroke="black" points="928.25,-422.7 926.97,-412.18 921.42,-421.2 928.25,-422.7"/>
</g>
<!-- gnuradio&#45;osmosdr&#45;&gt;gqrx -->
<g id="edge50" class="edge">
<title>gnuradio&#45;osmosdr&#45;&gt;gqrx</title>
<path fill="none" stroke="black" d="M765.56,-519.7C762.99,-511.9 759.91,-502.51 757.06,-493.83"/>
<polygon fill="black" stroke="black" points="760.31,-492.51 753.86,-484.1 753.66,-494.7 760.31,-492.51"/>
</g>
<!-- qt -->
<g id="node21" class="node">
<title>qt</title>
<g id="a_node21"><a xlink:href="https://github.com/conda-forge/qt-feedstock/pull/184" xlink:title="qt ❎">
<ellipse fill="#31688e" stroke="black" cx="582.24" cy="-826" rx="34.5" ry="18"/>
<text text-anchor="middle" x="582.24" y="-822.3" font-family="Times-Roman" font-size="14.00" fill="white">qt ❎</text>
</a>
</g>
</g>
<!-- qt&#45;&gt;gqrx -->
<g id="edge25" class="edge">
<title>qt&#45;&gt;gqrx</title>
<path fill="none" stroke="black" d="M616.9,-824.7C697.79,-822 892.24,-803.02 892.24,-683 892.24,-683 892.24,-683 892.24,-609 892.24,-568.55 898.99,-551.19 873.24,-520 851.93,-494.18 815.78,-480.69 787.82,-473.8"/>
<polygon fill="black" stroke="black" points="788.46,-470.36 777.93,-471.56 786.91,-477.19 788.46,-470.36"/>
</g>
<!-- qt&#45;&gt;pyqt -->
<g id="edge18" class="edge">
<title>qt&#45;&gt;pyqt</title>
<path fill="none" stroke="black" d="M615.63,-820.97C674.69,-813.52 801.26,-796.14 906.24,-772 913,-770.45 920.14,-768.54 926.99,-766.56"/>
<polygon fill="black" stroke="black" points="928.16,-769.87 936.75,-763.67 926.17,-763.16 928.16,-769.87"/>
</g>
<!-- qt&#45;&gt;gnuradio -->
<g id="edge19" class="edge">
<title>qt&#45;&gt;gnuradio</title>
<path fill="none" stroke="black" d="M602.47,-811.17C617.04,-800.91 636.92,-786.28 653.24,-772 676.86,-751.33 701.68,-725.46 718.74,-706.95"/>
<polygon fill="black" stroke="black" points="721.39,-709.25 725.55,-699.51 716.22,-704.52 721.39,-709.25"/>
</g>
<!-- qwt -->
<g id="node22" class="node">
<title>qwt</title>
<g id="a_node22"><a xlink:href="https://github.com/conda-forge/qwt-feedstock" xlink:title="qwt">
<ellipse fill="#fde725" stroke="black" cx="616.24" cy="-754" rx="27.5" ry="18"/>
<text text-anchor="middle" x="616.24" y="-750.3" font-family="Times-Roman" font-size="14.00">qwt</text>
</a>
</g>
</g>
<!-- qt&#45;&gt;qwt -->
<g id="edge20" class="edge">
<title>qt&#45;&gt;qwt</title>
<path fill="none" stroke="black" d="M590.3,-808.41C594.32,-800.13 599.28,-789.92 603.78,-780.66"/>
<polygon fill="black" stroke="black" points="607.02,-781.99 608.24,-771.47 600.72,-778.94 607.02,-781.99"/>
</g>
<!-- pivy -->
<g id="node23" class="node">
<title>pivy</title>
<g id="a_node23"><a xlink:href="https://github.com/conda-forge/pivy-feedstock" xlink:title="pivy">
<ellipse fill="#fde725" stroke="black" cx="275.24" cy="-610" rx="30" ry="18"/>
<text text-anchor="middle" x="275.24" y="-606.3" font-family="Times-Roman" font-size="14.00">pivy</text>
</a>
</g>
</g>
<!-- qt&#45;&gt;pivy -->
<g id="edge21" class="edge">
<title>qt&#45;&gt;pivy</title>
<path fill="none" stroke="black" d="M549.06,-821.06C511.49,-815.32 449.72,-801.86 405.24,-772 390.98,-762.42 325.43,-677.24 293.21,-634.81"/>
<polygon fill="black" stroke="black" points="295.89,-632.54 287.06,-626.68 290.31,-636.77 295.89,-632.54"/>
</g>
<!-- pyside2 -->
<g id="node24" class="node">
<title>pyside2</title>
<g id="a_node24"><a xlink:href="https://github.com/conda-forge/pyside2-feedstock" xlink:title="pyside2">
<ellipse fill="#fde725" stroke="black" cx="460.24" cy="-754" rx="46.29" ry="18"/>
<text text-anchor="middle" x="460.24" y="-750.3" font-family="Times-Roman" font-size="14.00">pyside2</text>
</a>
</g>
</g>
<!-- qt&#45;&gt;pyside2 -->
<g id="edge22" class="edge">
<title>qt&#45;&gt;pyside2</title>
<path fill="none" stroke="black" d="M559.86,-812.16C541.41,-801.57 514.94,-786.38 493.92,-774.33"/>
<polygon fill="black" stroke="black" points="495.41,-771.14 484.99,-769.2 491.93,-777.21 495.41,-771.14"/>
</g>
<!-- soqt -->
<g id="node25" class="node">
<title>soqt</title>
<g id="a_node25"><a xlink:href="https://github.com/conda-forge/soqt-feedstock" xlink:title="soqt">
<ellipse fill="#fde725" stroke="black" cx="275.24" cy="-682" rx="30.59" ry="18"/>
<text text-anchor="middle" x="275.24" y="-678.3" font-family="Times-Roman" font-size="14.00">soqt</text>
</a>
</g>
</g>
<!-- qt&#45;&gt;soqt -->
<g id="edge23" class="edge">
<title>qt&#45;&gt;soqt</title>
<path fill="none" stroke="black" d="M548.44,-821.83C486.01,-815.4 355.77,-799.07 320.24,-772 300.19,-756.72 288.39,-730.03 281.94,-709.85"/>
<polygon fill="black" stroke="black" points="285.22,-708.59 279.04,-699.98 278.5,-710.57 285.22,-708.59"/>
</g>
<!-- geant4 -->
<g id="node26" class="node">
<title>geant4</title>
<g id="a_node26"><a xlink:href="https://github.com/conda-forge/geant4-feedstock" xlink:title="geant4">
<ellipse fill="#fde725" stroke="black" cx="365.24" cy="-610" rx="42.49" ry="18"/>
<text text-anchor="middle" x="365.24" y="-606.3" font-family="Times-Roman" font-size="14.00">geant4</text>
</a>
</g>
</g>
<!-- qt&#45;&gt;geant4 -->
<g id="edge24" class="edge">
<title>qt&#45;&gt;geant4</title>
<path fill="none" stroke="black" d="M581.51,-807.82C579.19,-775.22 569.51,-704.05 529.24,-664 520.52,-655.33 455.34,-635.93 409.83,-623.16"/>
<polygon fill="black" stroke="black" points="410.73,-619.78 400.16,-620.47 408.85,-626.52 410.73,-619.78"/>
</g>
<!-- qwt&#45;&gt;gnuradio -->
<g id="edge26" class="edge">
<title>qwt&#45;&gt;gnuradio</title>
<path fill="none" stroke="black" d="M636.44,-741.6C655.02,-731.11 682.97,-715.33 705.19,-702.79"/>
<polygon fill="black" stroke="black" points="707.02,-705.78 714,-697.81 703.57,-699.68 707.02,-705.78"/>
</g>
<!-- pyside2&#45;&gt;pivy -->
<g id="edge27" class="edge">
<title>pyside2&#45;&gt;pivy</title>
<path fill="none" stroke="black" d="M439.84,-737.68C426.01,-727.22 407.38,-712.95 391.24,-700 371.8,-684.41 367.89,-679.33 348.24,-664 333.31,-652.35 316.2,-639.89 302.3,-629.97"/>
<polygon fill="black" stroke="black" points="304.29,-627.09 294.11,-624.16 300.24,-632.8 304.29,-627.09"/>
</g>
<!-- cctbx&#45;base -->
<g id="node27" class="node">
<title>cctbx&#45;base</title>
<g id="a_node27"><a xlink:href="https://github.com/conda-forge/cctbx-base-feedstock" xlink:title="cctbx base">
<ellipse fill="#fde725" stroke="black" cx="460.24" cy="-682" rx="60" ry="18"/>
<text text-anchor="middle" x="460.24" y="-678.3" font-family="Times-Roman" font-size="14.00">cctbx base</text>
</a>
</g>
</g>
<!-- pyside2&#45;&gt;cctbx&#45;base -->
<g id="edge28" class="edge">
<title>pyside2&#45;&gt;cctbx&#45;base</title>
<path fill="none" stroke="black" d="M460.24,-735.7C460.24,-727.98 460.24,-718.71 460.24,-710.11"/>
<polygon fill="black" stroke="black" points="463.74,-710.1 460.24,-700.1 456.74,-710.1 463.74,-710.1"/>
</g>
<!-- soqt&#45;&gt;pivy -->
<g id="edge29" class="edge">
<title>soqt&#45;&gt;pivy</title>
<path fill="none" stroke="black" d="M275.24,-663.7C275.24,-655.98 275.24,-646.71 275.24,-638.11"/>
<polygon fill="black" stroke="black" points="278.74,-638.1 275.24,-628.1 271.74,-638.1 278.74,-638.1"/>
</g>
<!-- r&#45;sf -->
<g id="node28" class="node">
<title>r&#45;sf</title>
<g id="a_node28"><a xlink:href="https://github.com/conda-forge/r-sf-feedstock/pull/49" xlink:title="r sf ❎">
<ellipse fill="#31688e" stroke="black" cx="1769.24" cy="-206" rx="40.5" ry="18"/>
<text text-anchor="middle" x="1769.24" y="-202.3" font-family="Times-Roman" font-size="14.00" fill="white">r sf ❎</text>
</a>
</g>
</g>
<!-- r&#45;spdep -->
<g id="node29" class="node">
<title>r&#45;spdep</title>
<g id="a_node29"><a xlink:href="https://github.com/conda-forge/r-spdep-feedstock" xlink:title="r spdep">
<ellipse fill="#fde725" stroke="black" cx="1769.24" cy="-134" rx="45.5" ry="18"/>
<text text-anchor="middle" x="1769.24" y="-130.3" font-family="Times-Roman" font-size="14.00">r spdep</text>
</a>
</g>
</g>
<!-- r&#45;sf&#45;&gt;r&#45;spdep -->
<g id="edge30" class="edge">
<title>r&#45;sf&#45;&gt;r&#45;spdep</title>
<path fill="none" stroke="black" d="M1769.24,-187.7C1769.24,-179.98 1769.24,-170.71 1769.24,-162.11"/>
<polygon fill="black" stroke="black" points="1772.74,-162.1 1769.24,-152.1 1765.74,-162.1 1772.74,-162.1"/>
</g>
<!-- speex -->
<g id="node30" class="node">
<title>speex</title>
<g id="a_node30"><a xlink:href="https://github.com/conda-forge/speex-feedstock/pull/7" xlink:title="speex ❎">
<ellipse fill="#31688e" stroke="black" cx="216.24" cy="-826" rx="52" ry="18"/>
<text text-anchor="middle" x="216.24" y="-822.3" font-family="Times-Roman" font-size="14.00" fill="white">speex ❎</text>
</a>
</g>
</g>
<!-- speex&#45;&gt;pulseaudio -->
<g id="edge31" class="edge">
<title>speex&#45;&gt;pulseaudio</title>
<path fill="none" stroke="black" d="M211.79,-807.92C201.92,-765.73 183.01,-655.45 236.24,-592 253.64,-571.27 320.07,-556.52 371.44,-547.93"/>
<polygon fill="black" stroke="black" points="372.19,-551.35 381.5,-546.29 371.06,-544.44 372.19,-551.35"/>
</g>
<!-- torchvision -->
<g id="node31" class="node">
<title>torchvision</title>
<g id="a_node31"><a xlink:href="https://github.com/conda-forge/torchvision-feedstock" xlink:title="torchvision">
<ellipse fill="#fde725" stroke="black" cx="1846.24" cy="-538" rx="60" ry="18"/>
<text text-anchor="middle" x="1846.24" y="-534.3" font-family="Times-Roman" font-size="14.00">torchvision</text>
</a>
</g>
</g>
<!-- torchvision&#45;&gt;allennlp -->
<g id="edge32" class="edge">
<title>torchvision&#45;&gt;allennlp</title>
<path fill="none" stroke="black" d="M1856.89,-520.05C1862.08,-511.8 1868.43,-501.7 1874.19,-492.54"/>
<polygon fill="black" stroke="black" points="1877.33,-494.12 1879.69,-483.79 1871.4,-490.39 1877.33,-494.12"/>
</g>
<!-- grpcio&#45;gcp -->
<g id="node35" class="node">
<title>grpcio&#45;gcp</title>
<g id="a_node35"><a xlink:href="https://github.com/conda-forge/grpcio-gcp-feedstock/pull/9" xlink:title="grpcio gcp ❎">
<ellipse fill="#31688e" stroke="black" cx="1277.24" cy="-754" rx="73" ry="18"/>
<text text-anchor="middle" x="1277.24" y="-750.3" font-family="Times-Roman" font-size="14.00" fill="white">grpcio gcp ❎</text>
</a>
</g>
</g>
<!-- r&#45;grf&#45;&gt;grpcio&#45;gcp -->
<!-- pytorch&#45;cpu -->
<g id="node34" class="node">
<title>pytorch&#45;cpu</title>
<g id="a_node34"><a xlink:href="https://github.com/conda-forge/pytorch-cpu-feedstock" xlink:title="pytorch cpu">
<ellipse fill="#fde725" stroke="black" cx="1934.24" cy="-610" rx="64.5" ry="18"/>
<text text-anchor="middle" x="1934.24" y="-606.3" font-family="Times-Roman" font-size="14.00">pytorch cpu</text>
</a>
</g>
</g>
<!-- pytorch&#45;cpu&#45;&gt;torchvision -->
<g id="edge35" class="edge">
<title>pytorch&#45;cpu&#45;&gt;torchvision</title>
<path fill="none" stroke="black" d="M1913.83,-592.76C1902.17,-583.49 1887.37,-571.71 1874.59,-561.55"/>
<polygon fill="black" stroke="black" points="1876.55,-558.63 1866.54,-555.15 1872.19,-564.11 1876.55,-558.63"/>
</g>
<!-- pytorch&#45;cpu&#45;&gt;allennlp -->
<g id="edge36" class="edge">
<title>pytorch&#45;cpu&#45;&gt;allennlp</title>
<path fill="none" stroke="black" d="M1931.8,-591.96C1928.93,-573.81 1923.48,-544.4 1915.24,-520 1912.17,-510.9 1907.96,-501.29 1903.87,-492.8"/>
<polygon fill="black" stroke="black" points="1906.97,-491.16 1899.37,-483.77 1900.7,-494.28 1906.97,-491.16"/>
</g>
<!-- ibm_db -->
<g id="node38" class="node">
<title>ibm_db</title>
<g id="a_node38"><a xlink:href="https://github.com/conda-forge/ibm_db-feedstock/pull/27" xlink:title="ibm_db ❎">
<ellipse fill="#31688e" stroke="black" cx="1277.24" cy="-682" rx="58" ry="18"/>
<text text-anchor="middle" x="1277.24" y="-678.3" font-family="Times-Roman" font-size="14.00" fill="white">ibm_db ❎</text>
</a>
</g>
</g>
<!-- grpcio&#45;gcp&#45;&gt;ibm_db -->
<!-- vim -->
<g id="node36" class="node">
<title>vim</title>
<g id="a_node36"><a xlink:href="https://github.com/conda-forge/vim-feedstock/pull/1224" xlink:title="vim ❎">
<ellipse fill="#31688e" stroke="black" cx="561.24" cy="-90" rx="41.69" ry="18"/>
<text text-anchor="middle" x="561.24" y="-86.3" font-family="Times-Roman" font-size="14.00" fill="white">vim ❎</text>
</a>
</g>
</g>
<!-- plumed -->
<g id="node37" class="node">
<title>plumed</title>
<g id="a_node37"><a xlink:href="https://github.com/conda-forge/plumed-feedstock" xlink:title="plumed">
<ellipse fill="#fde725" stroke="black" cx="561.24" cy="-18" rx="45" ry="18"/>
<text text-anchor="middle" x="561.24" y="-14.3" font-family="Times-Roman" font-size="14.00">plumed</text>
</a>
</g>
</g>
<!-- vim&#45;&gt;plumed -->
<g id="edge38" class="edge">
<title>vim&#45;&gt;plumed</title>
<path fill="none" stroke="black" d="M561.24,-71.7C561.24,-63.98 561.24,-54.71 561.24,-46.11"/>
<polygon fill="black" stroke="black" points="564.74,-46.1 561.24,-36.1 557.74,-46.1 564.74,-46.1"/>
</g>
<!-- nvcc -->
<g id="node39" class="node">
<title>nvcc</title>
<g id="a_node39"><a xlink:href="https://github.com/conda-forge/nvcc-feedstock/pull/62" xlink:title="nvcc ✓">
<ellipse fill="#31688e" stroke="black" cx="1277.24" cy="-610" rx="42.49" ry="18"/>
<text text-anchor="middle" x="1277.24" y="-606.3" font-family="Times-Roman" font-size="14.00" fill="white">nvcc ✓</text>
</a>
</g>
</g>
<!-- ibm_db&#45;&gt;nvcc -->
<!-- proj -->
<g id="node45" class="node">
<title>proj</title>
<g id="a_node45"><a xlink:href="https://github.com/conda-forge/proj-feedstock" xlink:title="proj">
<ellipse fill="#35b779" stroke="black" cx="1277.24" cy="-538" rx="28" ry="18"/>
<text text-anchor="middle" x="1277.24" y="-534.3" font-family="Times-Roman" font-size="14.00">proj</text>
</a>
</g>
</g>
<!-- nvcc&#45;&gt;proj -->
<!-- cudatoolkit -->
<g id="node40" class="node">
<title>cudatoolkit</title>
<g id="a_node40"><a xlink:href="https://github.com/conda-forge/cudatoolkit-feedstock/pull/4" xlink:title="cudatoolkit ❎">
<ellipse fill="#31688e" stroke="black" cx="1785.24" cy="-754" rx="74.99" ry="18"/>
<text text-anchor="middle" x="1785.24" y="-750.3" font-family="Times-Roman" font-size="14.00" fill="white">cudatoolkit ❎</text>
</a>
</g>
</g>
<!-- cudnn -->
<g id="node41" class="node">
<title>cudnn</title>
<g id="a_node41"><a xlink:href="https://github.com/conda-forge/cudnn-feedstock" xlink:title="cudnn">
<ellipse fill="#fde725" stroke="black" cx="1838.24" cy="-682" rx="39" ry="18"/>
<text text-anchor="middle" x="1838.24" y="-678.3" font-family="Times-Roman" font-size="14.00">cudnn</text>
</a>
</g>
</g>
<!-- cudatoolkit&#45;&gt;cudnn -->
<g id="edge41" class="edge">
<title>cudatoolkit&#45;&gt;cudnn</title>
<path fill="none" stroke="black" d="M1798.07,-736.05C1804.55,-727.5 1812.52,-716.97 1819.65,-707.56"/>
<polygon fill="black" stroke="black" points="1822.65,-709.39 1825.89,-699.31 1817.07,-705.17 1822.65,-709.39"/>
</g>
<!-- cutensor -->
<g id="node42" class="node">
<title>cutensor</title>
<g id="a_node42"><a xlink:href="https://github.com/conda-forge/cutensor-feedstock" xlink:title="cutensor">
<ellipse fill="#fde725" stroke="black" cx="1731.24" cy="-682" rx="50.09" ry="18"/>
<text text-anchor="middle" x="1731.24" y="-678.3" font-family="Times-Roman" font-size="14.00">cutensor</text>
</a>
</g>
</g>
<!-- cudatoolkit&#45;&gt;cutensor -->
<g id="edge42" class="edge">
<title>cudatoolkit&#45;&gt;cutensor</title>
<path fill="none" stroke="black" d="M1772.17,-736.05C1765.67,-727.63 1757.69,-717.28 1750.5,-707.97"/>
<polygon fill="black" stroke="black" points="1753.07,-705.57 1744.19,-699.79 1747.53,-709.84 1753.07,-705.57"/>
</g>
<!-- cudnn&#45;&gt;torchvision -->
<g id="edge43" class="edge">
<title>cudnn&#45;&gt;torchvision</title>
<path fill="none" stroke="black" d="M1839.21,-663.87C1840.57,-639.67 1843.07,-595.21 1844.7,-566.39"/>
<polygon fill="black" stroke="black" points="1848.21,-566.37 1845.27,-556.19 1841.22,-565.98 1848.21,-566.37"/>
</g>
<!-- cudnn&#45;&gt;pytorch&#45;cpu -->
<g id="edge44" class="edge">
<title>cudnn&#45;&gt;pytorch&#45;cpu</title>
<path fill="none" stroke="black" d="M1858.13,-666.5C1871.35,-656.85 1888.97,-644.01 1903.92,-633.11"/>
<polygon fill="black" stroke="black" points="1906.35,-635.67 1912.37,-626.95 1902.23,-630.01 1906.35,-635.67"/>
</g>
<!-- libv8 -->
<g id="node43" class="node">
<title>libv8</title>
<g id="a_node43"><a xlink:href="https://github.com/conda-forge/libv8-feedstock/pull/66" xlink:title="libv8 ❎">
<ellipse fill="#31688e" stroke="black" cx="1277.24" cy="-206" rx="47" ry="18"/>
<text text-anchor="middle" x="1277.24" y="-202.3" font-family="Times-Roman" font-size="14.00" fill="white">libv8 ❎</text>
</a>
</g>
</g>
<!-- r&#45;v8 -->
<g id="node44" class="node">
<title>r&#45;v8</title>
<g id="a_node44"><a xlink:href="https://github.com/conda-forge/r-v8-feedstock" xlink:title="r v8">
<ellipse fill="#fde725" stroke="black" cx="1277.24" cy="-134" rx="28.7" ry="18"/>
<text text-anchor="middle" x="1277.24" y="-130.3" font-family="Times-Roman" font-size="14.00">r v8</text>
</a>
</g>
</g>
<!-- libv8&#45;&gt;r&#45;v8 -->
<g id="edge45" class="edge">
<title>libv8&#45;&gt;r&#45;v8</title>
<path fill="none" stroke="black" d="M1277.24,-187.7C1277.24,-179.98 1277.24,-170.71 1277.24,-162.11"/>
<polygon fill="black" stroke="black" points="1280.74,-162.1 1277.24,-152.1 1273.74,-162.1 1280.74,-162.1"/>
</g>
<!-- jaeger -->
<g id="node46" class="node">
<title>jaeger</title>
<g id="a_node46"><a xlink:href="https://github.com/conda-forge/jaeger-feedstock/pull/12" xlink:title="jaeger ❎">
<ellipse fill="#31688e" stroke="black" cx="1277.24" cy="-466" rx="53.5" ry="18"/>
<text text-anchor="middle" x="1277.24" y="-462.3" font-family="Times-Roman" font-size="14.00" fill="white">jaeger ❎</text>
</a>
</g>
</g>
<!-- proj&#45;&gt;jaeger -->
<!-- libm2k -->
<g id="node48" class="node">
<title>libm2k</title>
<g id="a_node48"><a xlink:href="https://github.com/conda-forge/libm2k-feedstock/pull/12" xlink:title="libm2k ❎">
<ellipse fill="#31688e" stroke="black" cx="1277.24" cy="-394" rx="56" ry="18"/>
<text text-anchor="middle" x="1277.24" y="-390.3" font-family="Times-Roman" font-size="14.00" fill="white">libm2k ❎</text>
</a>
</g>
</g>
<!-- jaeger&#45;&gt;libm2k -->
<!-- nccl -->
<g id="node47" class="node">
<title>nccl</title>
<g id="a_node47"><a xlink:href="https://github.com/conda-forge/nccl-feedstock/pull/35" xlink:title="nccl ✓">
<ellipse fill="#31688e" stroke="black" cx="1935.24" cy="-682" rx="39.79" ry="18"/>
<text text-anchor="middle" x="1935.24" y="-678.3" font-family="Times-Roman" font-size="14.00" fill="white">nccl ✓</text>
</a>
</g>
</g>
<!-- nccl&#45;&gt;pytorch&#45;cpu -->
<g id="edge48" class="edge">
<title>nccl&#45;&gt;pytorch&#45;cpu</title>
<path fill="none" stroke="black" d="M1934.99,-663.7C1934.88,-655.98 1934.75,-646.71 1934.63,-638.11"/>
<polygon fill="black" stroke="black" points="1938.13,-638.05 1934.49,-628.1 1931.13,-638.15 1938.13,-638.05"/>
</g>
<!-- dm&#45;tree -->
<g id="node52" class="node">
<title>dm&#45;tree</title>
<g id="a_node52"><a xlink:href="https://github.com/conda-forge/dm-tree-feedstock/pull/4" xlink:title="dm tree ❎">
<ellipse fill="#31688e" stroke="black" cx="1277.24" cy="-322" rx="60" ry="18"/>
<text text-anchor="middle" x="1277.24" y="-318.3" font-family="Times-Roman" font-size="14.00" fill="white">dm tree ❎</text>
</a>
</g>
</g>
<!-- libm2k&#45;&gt;dm&#45;tree -->
<!-- soapysdr&#45;module&#45;plutosdr -->
<g id="node49" class="node">
<title>soapysdr&#45;module&#45;plutosdr</title>
<g id="a_node49"><a xlink:href="https://github.com/conda-forge/soapysdr-module-plutosdr-feedstock" xlink:title="soapysdr module plutosdr">
<ellipse fill="#fde725" stroke="black" cx="561.24" cy="-134" rx="129.5" ry="18"/>
<text text-anchor="middle" x="561.24" y="-130.3" font-family="Times-Roman" font-size="14.00">soapysdr module plutosdr</text>
</a>
</g>
</g>
<!-- libad9361&#45;iio -->
<g id="node50" class="node">
<title>libad9361&#45;iio</title>
<g id="a_node50"><a xlink:href="https://github.com/conda-forge/libad9361-iio-feedstock/pull/7" xlink:title="libad9361 iio ❎">
<ellipse fill="#31688e" stroke="black" cx="561.24" cy="-206" rx="83.39" ry="18"/>
<text text-anchor="middle" x="561.24" y="-202.3" font-family="Times-Roman" font-size="14.00" fill="white">libad9361 iio ❎</text>
</a>
</g>
</g>
<!-- libad9361&#45;iio&#45;&gt;soapysdr&#45;module&#45;plutosdr -->
<g id="edge51" class="edge">
<title>libad9361&#45;iio&#45;&gt;soapysdr&#45;module&#45;plutosdr</title>
<path fill="none" stroke="black" d="M561.24,-187.7C561.24,-179.98 561.24,-170.71 561.24,-162.11"/>
<polygon fill="black" stroke="black" points="564.74,-162.1 561.24,-152.1 557.74,-162.1 564.74,-162.1"/>
</g>
<!-- tokenizers -->
<g id="node51" class="node">
<title>tokenizers</title>
<g id="a_node51"><a xlink:href="https://github.com/conda-forge/tokenizers-feedstock/pull/18" xlink:title="tokenizers ❎">
<ellipse fill="#31688e" stroke="black" cx="2034.24" cy="-538" rx="71.5" ry="18"/>
<text text-anchor="middle" x="2034.24" y="-534.3" font-family="Times-Roman" font-size="14.00" fill="white">tokenizers ❎</text>
</a>
</g>
</g>
<!-- tokenizers&#45;&gt;allennlp -->
<g id="edge52" class="edge">
<title>tokenizers&#45;&gt;allennlp</title>
<path fill="none" stroke="black" d="M2002.64,-521.64C1980.37,-510.81 1950.49,-496.29 1927.13,-484.93"/>
<polygon fill="black" stroke="black" points="1928.41,-481.66 1917.88,-480.44 1925.35,-487.96 1928.41,-481.66"/>
</g>
<!-- cramjam -->
<g id="node53" class="node">
<title>cramjam</title>
<g id="a_node53"><a xlink:href="https://github.com/conda-forge/cramjam-feedstock/pull/14" xlink:title="cramjam ❎">
<ellipse fill="#31688e" stroke="black" cx="1277.24" cy="-250" rx="64.5" ry="18"/>
<text text-anchor="middle" x="1277.24" y="-246.3" font-family="Times-Roman" font-size="14.00" fill="white">cramjam ❎</text>
</a>
</g>
</g>
<!-- dm&#45;tree&#45;&gt;cramjam -->
<!-- magma -->
<g id="node54" class="node">
<title>magma</title>
<g id="a_node54"><a xlink:href="https://github.com/conda-forge/magma-feedstock/pull/9" xlink:title="magma ✓">
<ellipse fill="#31688e" stroke="black" cx="2003.24" cy="-754" rx="56" ry="18"/>
<text text-anchor="middle" x="2003.24" y="-750.3" font-family="Times-Roman" font-size="14.00" fill="white">magma ✓</text>
</a>
</g>
</g>
<!-- magma&#45;&gt;pytorch&#45;cpu -->
<g id="edge55" class="edge">
<title>magma&#45;&gt;pytorch&#45;cpu</title>
<path fill="none" stroke="black" d="M2002.31,-735.67C2000.69,-717.02 1996.28,-686.94 1984.24,-664 1978.51,-653.08 1969.9,-642.8 1961.43,-634.25"/>
<polygon fill="black" stroke="black" points="1963.73,-631.61 1954.1,-627.2 1958.88,-636.65 1963.73,-631.61"/>
</g>
</g>
</svg>
