<?xml version="1.0" encoding="UTF-8" standalone="no"?>
<!DOCTYPE svg PUBLIC "-//W3C//DTD SVG 1.1//EN"
 "http://www.w3.org/Graphics/SVG/1.1/DTD/svg11.dtd">
<!-- Generated by graphviz version 2.47.0 (20210316.1410)
 -->
<!-- Pages: 1 -->
<svg width="1501pt" height="1212pt"
 viewBox="0.00 0.00 1501.50 1212.00" xmlns="http://www.w3.org/2000/svg" xmlns:xlink="http://www.w3.org/1999/xlink">
<g id="graph0" class="graph" transform="scale(1 1) rotate(0) translate(4 1208)">
<polygon fill="white" stroke="transparent" points="-4,4 -4,-1208 1497.5,-1208 1497.5,4 -4,4"/>
<!-- anyjson -->
<g id="node1" class="node">
<title>anyjson</title>
<g id="a_node1"><a xlink:href="https://github.com/conda-forge/anyjson-feedstock" xlink:title="anyjson">
<ellipse fill="#35b779" stroke="black" cx="307" cy="-1186" rx="47" ry="18"/>
<text text-anchor="middle" x="307" y="-1182.3" font-family="Times-Roman" font-size="14.00">anyjson</text>
</a>
</g>
</g>
<!-- colorlog -->
<g id="node2" class="node">
<title>colorlog</title>
<g id="a_node2"><a xlink:href="https://github.com/conda-forge/colorlog-feedstock/pull/26" xlink:title="colorlog ✓">
<ellipse fill="#31688e" stroke="black" cx="307" cy="-1114" rx="58.5" ry="18"/>
<text text-anchor="middle" x="307" y="-1110.3" font-family="Times-Roman" font-size="14.00" fill="white">colorlog ✓</text>
</a>
</g>
</g>
<!-- anyjson&#45;&gt;colorlog -->
<!-- googleapis&#45;common&#45;protos -->
<g id="node4" class="node">
<title>googleapis&#45;common&#45;protos</title>
<g id="a_node4"><a xlink:href="https://github.com/conda-forge/googleapis-common-protos-feedstock/pull/26" xlink:title="googleapis common protos ❎">
<ellipse fill="#31688e" stroke="black" cx="307" cy="-1042" rx="150.27" ry="18"/>
<text text-anchor="middle" x="307" y="-1038.3" font-family="Times-Roman" font-size="14.00" fill="white">googleapis common protos ❎</text>
</a>
</g>
</g>
<!-- colorlog&#45;&gt;googleapis&#45;common&#45;protos -->
<!-- cmd2 -->
<g id="node3" class="node">
<title>cmd2</title>
<g id="a_node3"><a xlink:href="https://github.com/conda-forge/cmd2-feedstock" xlink:title="cmd2">
<ellipse fill="#fde725" stroke="black" cx="974" cy="-18" rx="36.5" ry="18"/>
<text text-anchor="middle" x="974" y="-14.3" font-family="Times-Roman" font-size="14.00">cmd2</text>
</a>
</g>
</g>
<!-- jpype1 -->
<g id="node10" class="node">
<title>jpype1</title>
<g id="a_node10"><a xlink:href="https://github.com/conda-forge/jpype1-feedstock" xlink:title="jpype1">
<ellipse fill="#35b779" stroke="black" cx="307" cy="-970" rx="42.49" ry="18"/>
<text text-anchor="middle" x="307" y="-966.3" font-family="Times-Roman" font-size="14.00">jpype1</text>
</a>
</g>
</g>
<!-- googleapis&#45;common&#45;protos&#45;&gt;jpype1 -->
<!-- elfutils -->
<g id="node5" class="node">
<title>elfutils</title>
<g id="a_node5"><a xlink:href="https://github.com/conda-forge/elfutils-feedstock/pull/20" xlink:title="elfutils ❎">
<ellipse fill="#31688e" stroke="black" cx="677" cy="-898" rx="54" ry="18"/>
<text text-anchor="middle" x="677" y="-894.3" font-family="Times-Roman" font-size="14.00" fill="white">elfutils ❎</text>
</a>
</g>
</g>
<!-- heaptrack -->
<g id="node6" class="node">
<title>heaptrack</title>
<g id="a_node6"><a xlink:href="https://github.com/conda-forge/heaptrack-feedstock" xlink:title="heaptrack">
<ellipse fill="#fde725" stroke="black" cx="680" cy="-826" rx="58" ry="18"/>
<text text-anchor="middle" x="680" y="-822.3" font-family="Times-Roman" font-size="14.00">heaptrack</text>
</a>
</g>
</g>
<!-- elfutils&#45;&gt;heaptrack -->
<g id="edge3" class="edge">
<title>elfutils&#45;&gt;heaptrack</title>
<path fill="none" stroke="black" d="M677.74,-879.7C678.07,-871.98 678.47,-862.71 678.84,-854.11"/>
<polygon fill="black" stroke="black" points="682.34,-854.25 679.27,-844.1 675.34,-853.95 682.34,-854.25"/>
</g>
<!-- gdal -->
<g id="node7" class="node">
<title>gdal</title>
<g id="a_node7"><a xlink:href="https://github.com/conda-forge/gdal-feedstock/pull/466" xlink:title="gdal ❎">
<ellipse fill="#31688e" stroke="black" cx="913" cy="-314" rx="43" ry="18"/>
<text text-anchor="middle" x="913" y="-310.3" font-family="Times-Roman" font-size="14.00" fill="white">gdal ❎</text>
</a>
</g>
</g>
<!-- r&#45;sf -->
<g id="node8" class="node">
<title>r&#45;sf</title>
<g id="a_node8"><a xlink:href="https://github.com/conda-forge/r-sf-feedstock" xlink:title="r sf">
<ellipse fill="#fde725" stroke="black" cx="964" cy="-242" rx="27" ry="18"/>
<text text-anchor="middle" x="964" y="-238.3" font-family="Times-Roman" font-size="14.00">r sf</text>
</a>
</g>
</g>
<!-- gdal&#45;&gt;r&#45;sf -->
<g id="edge4" class="edge">
<title>gdal&#45;&gt;r&#45;sf</title>
<path fill="none" stroke="black" d="M925.09,-296.41C931.56,-287.53 939.64,-276.44 946.76,-266.67"/>
<polygon fill="black" stroke="black" points="949.64,-268.65 952.7,-258.51 943.98,-264.53 949.64,-268.65"/>
</g>
<!-- r&#45;spdep -->
<g id="node9" class="node">
<title>r&#45;spdep</title>
<g id="a_node9"><a xlink:href="https://github.com/conda-forge/r-spdep-feedstock" xlink:title="r spdep">
<ellipse fill="#fde725" stroke="black" cx="964" cy="-170" rx="46.29" ry="18"/>
<text text-anchor="middle" x="964" y="-166.3" font-family="Times-Roman" font-size="14.00">r spdep</text>
</a>
</g>
</g>
<!-- r&#45;sf&#45;&gt;r&#45;spdep -->
<g id="edge5" class="edge">
<title>r&#45;sf&#45;&gt;r&#45;spdep</title>
<path fill="none" stroke="black" d="M964,-223.7C964,-215.98 964,-206.71 964,-198.11"/>
<polygon fill="black" stroke="black" points="967.5,-198.1 964,-188.1 960.5,-198.1 967.5,-198.1"/>
</g>
<!-- line_profiler -->
<g id="node12" class="node">
<title>line_profiler</title>
<g id="a_node12"><a xlink:href="https://github.com/conda-forge/line_profiler-feedstock" xlink:title="line_profiler">
<ellipse fill="#35b779" stroke="black" cx="307" cy="-898" rx="65.79" ry="18"/>
<text text-anchor="middle" x="307" y="-894.3" font-family="Times-Roman" font-size="14.00">line_profiler</text>
</a>
</g>
</g>
<!-- jpype1&#45;&gt;line_profiler -->
<!-- hyperspy -->
<g id="node11" class="node">
<title>hyperspy</title>
<g id="a_node11"><a xlink:href="https://github.com/conda-forge/hyperspy-feedstock" xlink:title="hyperspy">
<ellipse fill="#fde725" stroke="black" cx="236" cy="-206" rx="54" ry="18"/>
<text text-anchor="middle" x="236" y="-202.3" font-family="Times-Roman" font-size="14.00">hyperspy</text>
</a>
</g>
</g>
<!-- r&#45;gbm -->
<g id="node17" class="node">
<title>r&#45;gbm</title>
<g id="a_node17"><a xlink:href="https://github.com/conda-forge/r-gbm-feedstock/pull/9" xlink:title="r gbm ✓">
<ellipse fill="#31688e" stroke="black" cx="307" cy="-826" rx="49.5" ry="18"/>
<text text-anchor="middle" x="307" y="-822.3" font-family="Times-Roman" font-size="14.00" fill="white">r gbm ✓</text>
</a>
</g>
</g>
<!-- line_profiler&#45;&gt;r&#45;gbm -->
<!-- libunwind -->
<g id="node13" class="node">
<title>libunwind</title>
<g id="a_node13"><a xlink:href="https://github.com/conda-forge/libunwind-feedstock/pull/14" xlink:title="libunwind ❎">
<ellipse fill="#31688e" stroke="black" cx="817" cy="-898" rx="67.69" ry="18"/>
<text text-anchor="middle" x="817" y="-894.3" font-family="Times-Roman" font-size="14.00" fill="white">libunwind ❎</text>
</a>
</g>
</g>
<!-- libunwind&#45;&gt;heaptrack -->
<g id="edge8" class="edge">
<title>libunwind&#45;&gt;heaptrack</title>
<path fill="none" stroke="black" d="M787.27,-881.81C766.89,-871.4 739.68,-857.49 717.76,-846.29"/>
<polygon fill="black" stroke="black" points="719.23,-843.11 708.73,-841.68 716.04,-849.35 719.23,-843.11"/>
</g>
<!-- gperftools -->
<g id="node14" class="node">
<title>gperftools</title>
<g id="a_node14"><a xlink:href="https://github.com/conda-forge/gperftools-feedstock" xlink:title="gperftools">
<ellipse fill="#fde725" stroke="black" cx="815" cy="-826" rx="58" ry="18"/>
<text text-anchor="middle" x="815" y="-822.3" font-family="Times-Roman" font-size="14.00">gperftools</text>
</a>
</g>
</g>
<!-- libunwind&#45;&gt;gperftools -->
<g id="edge9" class="edge">
<title>libunwind&#45;&gt;gperftools</title>
<path fill="none" stroke="black" d="M816.51,-879.7C816.29,-871.98 816.02,-862.71 815.77,-854.11"/>
<polygon fill="black" stroke="black" points="819.27,-854 815.49,-844.1 812.28,-854.2 819.27,-854"/>
</g>
<!-- py&#45;spy -->
<g id="node15" class="node">
<title>py&#45;spy</title>
<g id="a_node15"><a xlink:href="https://github.com/conda-forge/py-spy-feedstock/pull/11" xlink:title="py spy ❎">
<ellipse fill="#31688e" stroke="black" cx="933" cy="-754" rx="53.5" ry="18"/>
<text text-anchor="middle" x="933" y="-750.3" font-family="Times-Roman" font-size="14.00" fill="white">py spy ❎</text>
</a>
</g>
</g>
<!-- libunwind&#45;&gt;py&#45;spy -->
<g id="edge10" class="edge">
<title>libunwind&#45;&gt;py&#45;spy</title>
<path fill="none" stroke="black" d="M840.77,-880.93C853.95,-871.25 870.04,-858.1 882,-844 898.29,-824.8 912.14,-799.67 921.28,-781.01"/>
<polygon fill="black" stroke="black" points="924.47,-782.44 925.61,-771.91 918.15,-779.43 924.47,-782.44"/>
</g>
<!-- sentencepiece -->
<g id="node16" class="node">
<title>sentencepiece</title>
<g id="a_node16"><a xlink:href="https://github.com/conda-forge/sentencepiece-feedstock" xlink:title="sentencepiece">
<ellipse fill="#fde725" stroke="black" cx="783" cy="-754" rx="78" ry="18"/>
<text text-anchor="middle" x="783" y="-750.3" font-family="Times-Roman" font-size="14.00">sentencepiece</text>
</a>
</g>
</g>
<!-- gperftools&#45;&gt;sentencepiece -->
<g id="edge11" class="edge">
<title>gperftools&#45;&gt;sentencepiece</title>
<path fill="none" stroke="black" d="M807.25,-808.05C803.61,-800.09 799.19,-790.41 795.12,-781.51"/>
<polygon fill="black" stroke="black" points="798.24,-779.91 790.9,-772.28 791.87,-782.83 798.24,-779.91"/>
</g>
<!-- allennlp -->
<g id="node32" class="node">
<title>allennlp</title>
<g id="a_node32"><a xlink:href="https://github.com/conda-forge/allennlp-feedstock" xlink:title="allennlp">
<ellipse fill="#fde725" stroke="black" cx="1111" cy="-682" rx="47.5" ry="18"/>
<text text-anchor="middle" x="1111" y="-678.3" font-family="Times-Roman" font-size="14.00">allennlp</text>
</a>
</g>
</g>
<!-- sentencepiece&#45;&gt;allennlp -->
<g id="edge34" class="edge">
<title>sentencepiece&#45;&gt;allennlp</title>
<path fill="none" stroke="black" d="M838.27,-741.2C900.4,-727.94 1000.43,-706.6 1060.53,-693.77"/>
<polygon fill="black" stroke="black" points="1061.49,-697.15 1070.54,-691.63 1060.03,-690.3 1061.49,-697.15"/>
</g>
<!-- r&#45;microbenchmark -->
<g id="node26" class="node">
<title>r&#45;microbenchmark</title>
<g id="a_node26"><a xlink:href="https://github.com/conda-forge/r-microbenchmark-feedstock" xlink:title="r microbenchmark">
<ellipse fill="#35b779" stroke="black" cx="307" cy="-754" rx="97" ry="18"/>
<text text-anchor="middle" x="307" y="-750.3" font-family="Times-Roman" font-size="14.00">r microbenchmark</text>
</a>
</g>
</g>
<!-- r&#45;gbm&#45;&gt;r&#45;microbenchmark -->
<!-- pyqt -->
<g id="node18" class="node">
<title>pyqt</title>
<g id="a_node18"><a xlink:href="https://github.com/conda-forge/pyqt-feedstock" xlink:title="pyqt">
<ellipse fill="#fde725" stroke="black" cx="234" cy="-278" rx="31.4" ry="18"/>
<text text-anchor="middle" x="234" y="-274.3" font-family="Times-Roman" font-size="14.00">pyqt</text>
</a>
</g>
</g>
<!-- pyqt&#45;&gt;hyperspy -->
<g id="edge13" class="edge">
<title>pyqt&#45;&gt;hyperspy</title>
<path fill="none" stroke="black" d="M234.49,-259.7C234.71,-251.98 234.98,-242.71 235.23,-234.11"/>
<polygon fill="black" stroke="black" points="238.72,-234.2 235.51,-224.1 231.73,-234 238.72,-234.2"/>
</g>
<!-- pythonocc&#45;core -->
<g id="node19" class="node">
<title>pythonocc&#45;core</title>
<g id="a_node19"><a xlink:href="https://github.com/conda-forge/pythonocc-core-feedstock" xlink:title="pythonocc core">
<ellipse fill="#fde725" stroke="black" cx="82" cy="-206" rx="82" ry="18"/>
<text text-anchor="middle" x="82" y="-202.3" font-family="Times-Roman" font-size="14.00">pythonocc core</text>
</a>
</g>
</g>
<!-- pyqt&#45;&gt;pythonocc&#45;core -->
<g id="edge14" class="edge">
<title>pyqt&#45;&gt;pythonocc&#45;core</title>
<path fill="none" stroke="black" d="M210.25,-266.06C187.54,-255.61 152.78,-239.6 125.17,-226.88"/>
<polygon fill="black" stroke="black" points="126.28,-223.54 115.73,-222.54 123.35,-229.9 126.28,-223.54"/>
</g>
<!-- qt -->
<g id="node20" class="node">
<title>qt</title>
<g id="a_node20"><a xlink:href="https://github.com/conda-forge/qt-feedstock/pull/184" xlink:title="qt ❎">
<ellipse fill="#31688e" stroke="black" cx="352" cy="-350" rx="32.5" ry="18"/>
<text text-anchor="middle" x="352" y="-346.3" font-family="Times-Roman" font-size="14.00" fill="white">qt ❎</text>
</a>
</g>
</g>
<!-- qt&#45;&gt;pyqt -->
<g id="edge15" class="edge">
<title>qt&#45;&gt;pyqt</title>
<path fill="none" stroke="black" d="M330.63,-336.32C312,-325.27 284.78,-309.13 263.98,-296.78"/>
<polygon fill="black" stroke="black" points="265.6,-293.67 255.21,-291.58 262.02,-299.69 265.6,-293.67"/>
</g>
<!-- pivy -->
<g id="node21" class="node">
<title>pivy</title>
<g id="a_node21"><a xlink:href="https://github.com/conda-forge/pivy-feedstock" xlink:title="pivy">
<ellipse fill="#fde725" stroke="black" cx="339" cy="-206" rx="30" ry="18"/>
<text text-anchor="middle" x="339" y="-202.3" font-family="Times-Roman" font-size="14.00">pivy</text>
</a>
</g>
</g>
<!-- qt&#45;&gt;pivy -->
<g id="edge16" class="edge">
<title>qt&#45;&gt;pivy</title>
<path fill="none" stroke="black" d="M336.34,-333.9C327.32,-324.07 316.83,-310.43 312,-296 304.82,-274.56 313.58,-249.94 322.98,-232.03"/>
<polygon fill="black" stroke="black" points="326.3,-233.27 328.18,-222.84 320.21,-229.83 326.3,-233.27"/>
</g>
<!-- pyside2 -->
<g id="node22" class="node">
<title>pyside2</title>
<g id="a_node22"><a xlink:href="https://github.com/conda-forge/pyside2-feedstock" xlink:title="pyside2">
<ellipse fill="#fde725" stroke="black" cx="448" cy="-278" rx="47" ry="18"/>
<text text-anchor="middle" x="448" y="-274.3" font-family="Times-Roman" font-size="14.00">pyside2</text>
</a>
</g>
</g>
<!-- qt&#45;&gt;pyside2 -->
<g id="edge17" class="edge">
<title>qt&#45;&gt;pyside2</title>
<path fill="none" stroke="black" d="M370.97,-335.17C384.61,-325.22 403.28,-311.61 418.81,-300.28"/>
<polygon fill="black" stroke="black" points="421.06,-302.98 427.07,-294.26 416.93,-297.32 421.06,-302.98"/>
</g>
<!-- soqt -->
<g id="node23" class="node">
<title>soqt</title>
<g id="a_node23"><a xlink:href="https://github.com/conda-forge/soqt-feedstock" xlink:title="soqt">
<ellipse fill="#fde725" stroke="black" cx="352" cy="-278" rx="30.59" ry="18"/>
<text text-anchor="middle" x="352" y="-274.3" font-family="Times-Roman" font-size="14.00">soqt</text>
</a>
</g>
</g>
<!-- qt&#45;&gt;soqt -->
<g id="edge18" class="edge">
<title>qt&#45;&gt;soqt</title>
<path fill="none" stroke="black" d="M352,-331.7C352,-323.98 352,-314.71 352,-306.11"/>
<polygon fill="black" stroke="black" points="355.5,-306.1 352,-296.1 348.5,-306.1 355.5,-306.1"/>
</g>
<!-- geant4 -->
<g id="node24" class="node">
<title>geant4</title>
<g id="a_node24"><a xlink:href="https://github.com/conda-forge/geant4-feedstock" xlink:title="geant4">
<ellipse fill="#fde725" stroke="black" cx="570" cy="-206" rx="43.59" ry="18"/>
<text text-anchor="middle" x="570" y="-202.3" font-family="Times-Roman" font-size="14.00">geant4</text>
</a>
</g>
</g>
<!-- qt&#45;&gt;geant4 -->
<g id="edge19" class="edge">
<title>qt&#45;&gt;geant4</title>
<path fill="none" stroke="black" d="M382.78,-343.84C415.4,-337.18 467.19,-323.07 504,-296 526.74,-279.27 545.1,-252.48 556.63,-232.65"/>
<polygon fill="black" stroke="black" points="559.74,-234.26 561.58,-223.82 553.63,-230.83 559.74,-234.26"/>
</g>
<!-- pyside2&#45;&gt;pivy -->
<g id="edge20" class="edge">
<title>pyside2&#45;&gt;pivy</title>
<path fill="none" stroke="black" d="M424.88,-262.15C408.17,-251.42 385.49,-236.86 367.64,-225.39"/>
<polygon fill="black" stroke="black" points="369.1,-222.17 358.79,-219.71 365.32,-228.06 369.1,-222.17"/>
</g>
<!-- cctbx&#45;base -->
<g id="node25" class="node">
<title>cctbx&#45;base</title>
<g id="a_node25"><a xlink:href="https://github.com/conda-forge/cctbx-base-feedstock" xlink:title="cctbx base">
<ellipse fill="#fde725" stroke="black" cx="448" cy="-206" rx="60.5" ry="18"/>
<text text-anchor="middle" x="448" y="-202.3" font-family="Times-Roman" font-size="14.00">cctbx base</text>
</a>
</g>
</g>
<!-- pyside2&#45;&gt;cctbx&#45;base -->
<g id="edge21" class="edge">
<title>pyside2&#45;&gt;cctbx&#45;base</title>
<path fill="none" stroke="black" d="M448,-259.7C448,-251.98 448,-242.71 448,-234.11"/>
<polygon fill="black" stroke="black" points="451.5,-234.1 448,-224.1 444.5,-234.1 451.5,-234.1"/>
</g>
<!-- soqt&#45;&gt;pivy -->
<g id="edge22" class="edge">
<title>soqt&#45;&gt;pivy</title>
<path fill="none" stroke="black" d="M348.85,-260.05C347.42,-252.35 345.69,-243.03 344.08,-234.36"/>
<polygon fill="black" stroke="black" points="347.48,-233.47 342.21,-224.28 340.59,-234.75 347.48,-233.47"/>
</g>
<!-- r&#45;stringdist -->
<g id="node27" class="node">
<title>r&#45;stringdist</title>
<g id="a_node27"><a xlink:href="https://github.com/conda-forge/r-stringdist-feedstock" xlink:title="r stringdist">
<ellipse fill="#35b779" stroke="black" cx="307" cy="-682" rx="60.5" ry="18"/>
<text text-anchor="middle" x="307" y="-678.3" font-family="Times-Roman" font-size="14.00">r stringdist</text>
</a>
</g>
</g>
<!-- r&#45;microbenchmark&#45;&gt;r&#45;stringdist -->
<!-- tempita -->
<g id="node28" class="node">
<title>tempita</title>
<g id="a_node28"><a xlink:href="https://github.com/conda-forge/tempita-feedstock/pull/17" xlink:title="tempita ❎">
<ellipse fill="#31688e" stroke="black" cx="307" cy="-610" rx="59.29" ry="18"/>
<text text-anchor="middle" x="307" y="-606.3" font-family="Times-Roman" font-size="14.00" fill="white">tempita ❎</text>
</a>
</g>
</g>
<!-- r&#45;stringdist&#45;&gt;tempita -->
<!-- pypy2.7 -->
<g id="node30" class="node">
<title>pypy2.7</title>
<g id="a_node30"><a xlink:href="https://github.com/conda-forge/pypy2.7-feedstock/pull/3" xlink:title="pypy2 7 ❎">
<ellipse fill="#31688e" stroke="black" cx="307" cy="-538" rx="60" ry="18"/>
<text text-anchor="middle" x="307" y="-534.3" font-family="Times-Roman" font-size="14.00" fill="white">pypy2 7 ❎</text>
</a>
</g>
</g>
<!-- tempita&#45;&gt;pypy2.7 -->
<!-- r&#45;units -->
<g id="node29" class="node">
<title>r&#45;units</title>
<g id="a_node29"><a xlink:href="https://github.com/conda-forge/r-units-feedstock" xlink:title="r units">
<ellipse fill="#fde725" stroke="black" cx="1015" cy="-314" rx="40.5" ry="18"/>
<text text-anchor="middle" x="1015" y="-310.3" font-family="Times-Roman" font-size="14.00">r units</text>
</a>
</g>
</g>
<!-- r&#45;units&#45;&gt;r&#45;sf -->
<g id="edge26" class="edge">
<title>r&#45;units&#45;&gt;r&#45;sf</title>
<path fill="none" stroke="black" d="M1003.17,-296.76C996.71,-287.89 988.58,-276.74 981.41,-266.89"/>
<polygon fill="black" stroke="black" points="984.13,-264.69 975.41,-258.67 978.47,-268.81 984.13,-264.69"/>
</g>
<!-- r&#45;svglite -->
<g id="node34" class="node">
<title>r&#45;svglite</title>
<g id="a_node34"><a xlink:href="https://github.com/conda-forge/r-svglite-feedstock/pull/12" xlink:title="r svglite ✓">
<ellipse fill="#31688e" stroke="black" cx="307" cy="-466" rx="58.5" ry="18"/>
<text text-anchor="middle" x="307" y="-462.3" font-family="Times-Roman" font-size="14.00" fill="white">r svglite ✓</text>
</a>
</g>
</g>
<!-- pypy2.7&#45;&gt;r&#45;svglite -->
<!-- torchvision -->
<g id="node31" class="node">
<title>torchvision</title>
<g id="a_node31"><a xlink:href="https://github.com/conda-forge/torchvision-feedstock" xlink:title="torchvision">
<ellipse fill="#fde725" stroke="black" cx="1066" cy="-754" rx="61.99" ry="18"/>
<text text-anchor="middle" x="1066" y="-750.3" font-family="Times-Roman" font-size="14.00">torchvision</text>
</a>
</g>
</g>
<!-- torchvision&#45;&gt;allennlp -->
<g id="edge28" class="edge">
<title>torchvision&#45;&gt;allennlp</title>
<path fill="none" stroke="black" d="M1076.89,-736.05C1082.25,-727.71 1088.83,-717.49 1094.77,-708.25"/>
<polygon fill="black" stroke="black" points="1097.74,-710.09 1100.21,-699.79 1091.86,-706.31 1097.74,-710.09"/>
</g>
<!-- udunits2 -->
<g id="node33" class="node">
<title>udunits2</title>
<g id="a_node33"><a xlink:href="https://github.com/conda-forge/udunits2-feedstock/pull/39" xlink:title="udunits2 ❎">
<ellipse fill="#31688e" stroke="black" cx="1015" cy="-386" rx="63.09" ry="18"/>
<text text-anchor="middle" x="1015" y="-382.3" font-family="Times-Roman" font-size="14.00" fill="white">udunits2 ❎</text>
</a>
</g>
</g>
<!-- udunits2&#45;&gt;r&#45;units -->
<g id="edge29" class="edge">
<title>udunits2&#45;&gt;r&#45;units</title>
<path fill="none" stroke="black" d="M1015,-367.7C1015,-359.98 1015,-350.71 1015,-342.11"/>
<polygon fill="black" stroke="black" points="1018.5,-342.1 1015,-332.1 1011.5,-342.1 1018.5,-342.1"/>
</g>
<!-- occt -->
<g id="node35" class="node">
<title>occt</title>
<g id="a_node35"><a xlink:href="https://github.com/conda-forge/occt-feedstock/pull/59" xlink:title="occt ❎">
<ellipse fill="#31688e" stroke="black" cx="82" cy="-278" rx="42.49" ry="18"/>
<text text-anchor="middle" x="82" y="-274.3" font-family="Times-Roman" font-size="14.00" fill="white">occt ❎</text>
</a>
</g>
</g>
<!-- occt&#45;&gt;pythonocc&#45;core -->
<g id="edge31" class="edge">
<title>occt&#45;&gt;pythonocc&#45;core</title>
<path fill="none" stroke="black" d="M82,-259.7C82,-251.98 82,-242.71 82,-234.11"/>
<polygon fill="black" stroke="black" points="85.5,-234.1 82,-224.1 78.5,-234.1 85.5,-234.1"/>
</g>
<!-- r&#45;dicekriging -->
<g id="node36" class="node">
<title>r&#45;dicekriging</title>
<g id="a_node36"><a xlink:href="https://github.com/conda-forge/r-dicekriging-feedstock" xlink:title="r dicekriging">
<ellipse fill="#35b779" stroke="black" cx="307" cy="-90" rx="68.49" ry="18"/>
<text text-anchor="middle" x="307" y="-86.3" font-family="Times-Roman" font-size="14.00">r dicekriging</text>
</a>
</g>
</g>
<!-- r&#45;grf -->
<g id="node37" class="node">
<title>r&#45;grf</title>
<g id="a_node37"><a xlink:href="https://github.com/conda-forge/r-grf-feedstock" xlink:title="r grf">
<ellipse fill="#fde725" stroke="black" cx="307" cy="-18" rx="30.59" ry="18"/>
<text text-anchor="middle" x="307" y="-14.3" font-family="Times-Roman" font-size="14.00">r grf</text>
</a>
</g>
</g>
<!-- r&#45;dicekriging&#45;&gt;r&#45;grf -->
<g id="edge32" class="edge">
<title>r&#45;dicekriging&#45;&gt;r&#45;grf</title>
<path fill="none" stroke="black" d="M307,-71.7C307,-63.98 307,-54.71 307,-46.11"/>
<polygon fill="black" stroke="black" points="310.5,-46.1 307,-36.1 303.5,-46.1 310.5,-46.1"/>
</g>
<!-- r&#45;gnm -->
<g id="node38" class="node">
<title>r&#45;gnm</title>
<g id="a_node38"><a xlink:href="https://github.com/conda-forge/r-gnm-feedstock/pull/8" xlink:title="r gnm ✓">
<ellipse fill="#31688e" stroke="black" cx="1414" cy="-1186" rx="49.5" ry="18"/>
<text text-anchor="middle" x="1414" y="-1182.3" font-family="Times-Roman" font-size="14.00" fill="white">r gnm ✓</text>
</a>
</g>
</g>
<!-- r&#45;rcppcnpy -->
<g id="node39" class="node">
<title>r&#45;rcppcnpy</title>
<g id="a_node39"><a xlink:href="https://github.com/conda-forge/r-rcppcnpy-feedstock/pull/6" xlink:title="r rcppcnpy ✓">
<ellipse fill="#31688e" stroke="black" cx="1414" cy="-1114" rx="71" ry="18"/>
<text text-anchor="middle" x="1414" y="-1110.3" font-family="Times-Roman" font-size="14.00" fill="white">r rcppcnpy ✓</text>
</a>
</g>
</g>
<!-- r&#45;gnm&#45;&gt;r&#45;rcppcnpy -->
<!-- r&#45;officer -->
<g id="node40" class="node">
<title>r&#45;officer</title>
<g id="a_node40"><a xlink:href="https://github.com/conda-forge/r-officer-feedstock" xlink:title="r officer">
<ellipse fill="#35b779" stroke="black" cx="1414" cy="-1042" rx="47" ry="18"/>
<text text-anchor="middle" x="1414" y="-1038.3" font-family="Times-Roman" font-size="14.00">r officer</text>
</a>
</g>
</g>
<!-- r&#45;rcppcnpy&#45;&gt;r&#45;officer -->
<!-- root_numpy -->
<g id="node41" class="node">
<title>root_numpy</title>
<g id="a_node41"><a xlink:href="https://github.com/conda-forge/root_numpy-feedstock/pull/19" xlink:title="root_numpy ❎">
<ellipse fill="#31688e" stroke="black" cx="1414" cy="-970" rx="79.5" ry="18"/>
<text text-anchor="middle" x="1414" y="-966.3" font-family="Times-Roman" font-size="14.00" fill="white">root_numpy ❎</text>
</a>
</g>
</g>
<!-- r&#45;officer&#45;&gt;root_numpy -->
<!-- r&#45;profvis -->
<g id="node42" class="node">
<title>r&#45;profvis</title>
<g id="a_node42"><a xlink:href="https://github.com/conda-forge/r-profvis-feedstock" xlink:title="r profvis">
<ellipse fill="#35b779" stroke="black" cx="1414" cy="-898" rx="49.5" ry="18"/>
<text text-anchor="middle" x="1414" y="-894.3" font-family="Times-Roman" font-size="14.00">r profvis</text>
</a>
</g>
</g>
<!-- root_numpy&#45;&gt;r&#45;profvis -->
<!-- r&#45;arrow -->
<g id="node44" class="node">
<title>r&#45;arrow</title>
<g id="a_node44"><a xlink:href="https://github.com/conda-forge/r-arrow-feedstock" xlink:title="r arrow">
<ellipse fill="#35b779" stroke="black" cx="1414" cy="-826" rx="45" ry="18"/>
<text text-anchor="middle" x="1414" y="-822.3" font-family="Times-Roman" font-size="14.00">r arrow</text>
</a>
</g>
</g>
<!-- r&#45;profvis&#45;&gt;r&#45;arrow -->
<!-- pytorch&#45;cpu -->
<g id="node43" class="node">
<title>pytorch&#45;cpu</title>
<g id="a_node43"><a xlink:href="https://github.com/conda-forge/pytorch-cpu-feedstock" xlink:title="pytorch cpu">
<ellipse fill="#fde725" stroke="black" cx="1156" cy="-826" rx="65.79" ry="18"/>
<text text-anchor="middle" x="1156" y="-822.3" font-family="Times-Roman" font-size="14.00">pytorch cpu</text>
</a>
</g>
</g>
<!-- pytorch&#45;cpu&#45;&gt;torchvision -->
<g id="edge38" class="edge">
<title>pytorch&#45;cpu&#45;&gt;torchvision</title>
<path fill="none" stroke="black" d="M1135.13,-808.76C1123.2,-799.49 1108.06,-787.71 1094.99,-777.55"/>
<polygon fill="black" stroke="black" points="1096.8,-774.52 1086.76,-771.15 1092.51,-780.05 1096.8,-774.52"/>
</g>
<!-- pytorch&#45;cpu&#45;&gt;allennlp -->
<g id="edge39" class="edge">
<title>pytorch&#45;cpu&#45;&gt;allennlp</title>
<path fill="none" stroke="black" d="M1153.63,-807.93C1150.82,-789.76 1145.42,-760.34 1137,-736 1133.83,-726.85 1129.46,-717.24 1125.21,-708.75"/>
<polygon fill="black" stroke="black" points="1128.24,-706.99 1120.53,-699.73 1122.03,-710.22 1128.24,-706.99"/>
</g>
<!-- grpcio&#45;gcp -->
<g id="node45" class="node">
<title>grpcio&#45;gcp</title>
<g id="a_node45"><a xlink:href="https://github.com/conda-forge/grpcio-gcp-feedstock/pull/9" xlink:title="grpcio gcp ❎">
<ellipse fill="#31688e" stroke="black" cx="1414" cy="-754" rx="71.5" ry="18"/>
<text text-anchor="middle" x="1414" y="-750.3" font-family="Times-Roman" font-size="14.00" fill="white">grpcio gcp ❎</text>
</a>
</g>
</g>
<!-- r&#45;arrow&#45;&gt;grpcio&#45;gcp -->
<!-- r&#45;tweedie -->
<g id="node46" class="node">
<title>r&#45;tweedie</title>
<g id="a_node46"><a xlink:href="https://github.com/conda-forge/r-tweedie-feedstock" xlink:title="r tweedie">
<ellipse fill="#35b779" stroke="black" cx="1414" cy="-682" rx="54.69" ry="18"/>
<text text-anchor="middle" x="1414" y="-678.3" font-family="Times-Roman" font-size="14.00">r tweedie</text>
</a>
</g>
</g>
<!-- grpcio&#45;gcp&#45;&gt;r&#45;tweedie -->
<!-- ibm_db -->
<g id="node47" class="node">
<title>ibm_db</title>
<g id="a_node47"><a xlink:href="https://github.com/conda-forge/ibm_db-feedstock/pull/27" xlink:title="ibm_db ❎">
<ellipse fill="#31688e" stroke="black" cx="1414" cy="-610" rx="57.39" ry="18"/>
<text text-anchor="middle" x="1414" y="-606.3" font-family="Times-Roman" font-size="14.00" fill="white">ibm_db ❎</text>
</a>
</g>
</g>
<!-- r&#45;tweedie&#45;&gt;ibm_db -->
<!-- nvcc -->
<g id="node48" class="node">
<title>nvcc</title>
<g id="a_node48"><a xlink:href="https://github.com/conda-forge/nvcc-feedstock/pull/62" xlink:title="nvcc ✓">
<ellipse fill="#31688e" stroke="black" cx="1414" cy="-538" rx="42.49" ry="18"/>
<text text-anchor="middle" x="1414" y="-534.3" font-family="Times-Roman" font-size="14.00" fill="white">nvcc ✓</text>
</a>
</g>
</g>
<!-- ibm_db&#45;&gt;nvcc -->
<!-- urlquote -->
<g id="node54" class="node">
<title>urlquote</title>
<g id="a_node54"><a xlink:href="https://github.com/conda-forge/urlquote-feedstock" xlink:title="urlquote">
<ellipse fill="#35b779" stroke="black" cx="1414" cy="-466" rx="50.09" ry="18"/>
<text text-anchor="middle" x="1414" y="-462.3" font-family="Times-Roman" font-size="14.00">urlquote</text>
</a>
</g>
</g>
<!-- nvcc&#45;&gt;urlquote -->
<!-- cudatoolkit -->
<g id="node49" class="node">
<title>cudatoolkit</title>
<g id="a_node49"><a xlink:href="https://github.com/conda-forge/cudatoolkit-feedstock/pull/4" xlink:title="cudatoolkit ❎">
<ellipse fill="#31688e" stroke="black" cx="1035" cy="-970" rx="74.19" ry="18"/>
<text text-anchor="middle" x="1035" y="-966.3" font-family="Times-Roman" font-size="14.00" fill="white">cudatoolkit ❎</text>
</a>
</g>
</g>
<!-- cudnn -->
<g id="node50" class="node">
<title>cudnn</title>
<g id="a_node50"><a xlink:href="https://github.com/conda-forge/cudnn-feedstock" xlink:title="cudnn">
<ellipse fill="#fde725" stroke="black" cx="980" cy="-898" rx="39" ry="18"/>
<text text-anchor="middle" x="980" y="-894.3" font-family="Times-Roman" font-size="14.00">cudnn</text>
</a>
</g>
</g>
<!-- cudatoolkit&#45;&gt;cudnn -->
<g id="edge45" class="edge">
<title>cudatoolkit&#45;&gt;cudnn</title>
<path fill="none" stroke="black" d="M1021.69,-952.05C1014.9,-943.42 1006.53,-932.76 999.07,-923.27"/>
<polygon fill="black" stroke="black" points="1001.74,-921.01 992.81,-915.31 996.24,-925.33 1001.74,-921.01"/>
</g>
<!-- cutensor -->
<g id="node51" class="node">
<title>cutensor</title>
<g id="a_node51"><a xlink:href="https://github.com/conda-forge/cutensor-feedstock" xlink:title="cutensor">
<ellipse fill="#fde725" stroke="black" cx="1089" cy="-898" rx="51.5" ry="18"/>
<text text-anchor="middle" x="1089" y="-894.3" font-family="Times-Roman" font-size="14.00">cutensor</text>
</a>
</g>
</g>
<!-- cudatoolkit&#45;&gt;cutensor -->
<g id="edge46" class="edge">
<title>cudatoolkit&#45;&gt;cutensor</title>
<path fill="none" stroke="black" d="M1048.07,-952.05C1054.57,-943.63 1062.56,-933.28 1069.74,-923.97"/>
<polygon fill="black" stroke="black" points="1072.71,-925.84 1076.05,-915.79 1067.17,-921.57 1072.71,-925.84"/>
</g>
<!-- cudnn&#45;&gt;torchvision -->
<g id="edge47" class="edge">
<title>cudnn&#45;&gt;torchvision</title>
<path fill="none" stroke="black" d="M990.03,-880.43C1004.91,-855.88 1032.93,-809.6 1050.47,-780.65"/>
<polygon fill="black" stroke="black" points="1053.58,-782.27 1055.76,-771.9 1047.59,-778.64 1053.58,-782.27"/>
</g>
<!-- cudnn&#45;&gt;pytorch&#45;cpu -->
<g id="edge48" class="edge">
<title>cudnn&#45;&gt;pytorch&#45;cpu</title>
<path fill="none" stroke="black" d="M1008.67,-885.6C1036.3,-874.61 1078.53,-857.81 1110.71,-845.01"/>
<polygon fill="black" stroke="black" points="1112.35,-848.13 1120.35,-841.18 1109.76,-841.62 1112.35,-848.13"/>
</g>
<!-- libv8 -->
<g id="node52" class="node">
<title>libv8</title>
<g id="a_node52"><a xlink:href="https://github.com/conda-forge/libv8-feedstock" xlink:title="libv8">
<ellipse fill="#35b779" stroke="black" cx="1414" cy="-90" rx="32.5" ry="18"/>
<text text-anchor="middle" x="1414" y="-86.3" font-family="Times-Roman" font-size="14.00">libv8</text>
</a>
</g>
</g>
<!-- r&#45;v8 -->
<g id="node53" class="node">
<title>r&#45;v8</title>
<g id="a_node53"><a xlink:href="https://github.com/conda-forge/r-v8-feedstock" xlink:title="r v8">
<ellipse fill="#fde725" stroke="black" cx="1414" cy="-18" rx="28.7" ry="18"/>
<text text-anchor="middle" x="1414" y="-14.3" font-family="Times-Roman" font-size="14.00">r v8</text>
</a>
</g>
</g>
<!-- libv8&#45;&gt;r&#45;v8 -->
<g id="edge49" class="edge">
<title>libv8&#45;&gt;r&#45;v8</title>
<path fill="none" stroke="black" d="M1414,-71.7C1414,-63.98 1414,-54.71 1414,-46.11"/>
<polygon fill="black" stroke="black" points="1417.5,-46.1 1414,-36.1 1410.5,-46.1 1417.5,-46.1"/>
</g>
<!-- proj -->
<g id="node55" class="node">
<title>proj</title>
<g id="a_node55"><a xlink:href="https://github.com/conda-forge/proj-feedstock" xlink:title="proj">
<ellipse fill="#35b779" stroke="black" cx="1414" cy="-422" rx="28.7" ry="18"/>
<text text-anchor="middle" x="1414" y="-418.3" font-family="Times-Roman" font-size="14.00">proj</text>
</a>
</g>
</g>
<!-- jaeger -->
<g id="node56" class="node">
<title>jaeger</title>
<g id="a_node56"><a xlink:href="https://github.com/conda-forge/jaeger-feedstock/pull/12" xlink:title="jaeger ❎">
<ellipse fill="#31688e" stroke="black" cx="1414" cy="-350" rx="52.79" ry="18"/>
<text text-anchor="middle" x="1414" y="-346.3" font-family="Times-Roman" font-size="14.00" fill="white">jaeger ❎</text>
</a>
</g>
</g>
<!-- proj&#45;&gt;jaeger -->
<!-- ompl -->
<g id="node58" class="node">
<title>ompl</title>
<g id="a_node58"><a xlink:href="https://github.com/conda-forge/ompl-feedstock/pull/8" xlink:title="ompl ❎">
<ellipse fill="#31688e" stroke="black" cx="1414" cy="-278" rx="46.29" ry="18"/>
<text text-anchor="middle" x="1414" y="-274.3" font-family="Times-Roman" font-size="14.00" fill="white">ompl ❎</text>
</a>
</g>
</g>
<!-- jaeger&#45;&gt;ompl -->
<!-- nccl -->
<g id="node57" class="node">
<title>nccl</title>
<g id="a_node57"><a xlink:href="https://github.com/conda-forge/nccl-feedstock/pull/35" xlink:title="nccl ✓">
<ellipse fill="#31688e" stroke="black" cx="1198" cy="-898" rx="39.79" ry="18"/>
<text text-anchor="middle" x="1198" y="-894.3" font-family="Times-Roman" font-size="14.00" fill="white">nccl ✓</text>
</a>
</g>
</g>
<!-- nccl&#45;&gt;pytorch&#45;cpu -->
<g id="edge52" class="edge">
<title>nccl&#45;&gt;pytorch&#45;cpu</title>
<path fill="none" stroke="black" d="M1188.05,-880.41C1183.1,-872.16 1177.01,-862.01 1171.47,-852.78"/>
<polygon fill="black" stroke="black" points="1174.32,-850.73 1166.17,-843.96 1168.32,-854.33 1174.32,-850.73"/>
</g>
<!-- dm&#45;tree -->
<g id="node59" class="node">
<title>dm&#45;tree</title>
<g id="a_node59"><a xlink:href="https://github.com/conda-forge/dm-tree-feedstock/pull/4" xlink:title="dm tree ❎">
<ellipse fill="#31688e" stroke="black" cx="1414" cy="-206" rx="60" ry="18"/>
<text text-anchor="middle" x="1414" y="-202.3" font-family="Times-Roman" font-size="14.00" fill="white">dm tree ❎</text>
</a>
</g>
</g>
<!-- ompl&#45;&gt;dm&#45;tree -->
<!-- pyrfr -->
<g id="node61" class="node">
<title>pyrfr</title>
<g id="a_node61"><a xlink:href="https://github.com/conda-forge/pyrfr-feedstock/pull/11" xlink:title="pyrfr ❎">
<ellipse fill="#31688e" stroke="black" cx="1414" cy="-134" rx="45.5" ry="18"/>
<text text-anchor="middle" x="1414" y="-130.3" font-family="Times-Roman" font-size="14.00" fill="white">pyrfr ❎</text>
</a>
</g>
</g>
<!-- dm&#45;tree&#45;&gt;pyrfr -->
<!-- tokenizers -->
<g id="node60" class="node">
<title>tokenizers</title>
<g id="a_node60"><a xlink:href="https://github.com/conda-forge/tokenizers-feedstock/pull/18" xlink:title="tokenizers ❎">
<ellipse fill="#31688e" stroke="black" cx="1255" cy="-754" rx="71" ry="18"/>
<text text-anchor="middle" x="1255" y="-750.3" font-family="Times-Roman" font-size="14.00" fill="white">tokenizers ❎</text>
</a>
</g>
</g>
<!-- tokenizers&#45;&gt;allennlp -->
<g id="edge55" class="edge">
<title>tokenizers&#45;&gt;allennlp</title>
<path fill="none" stroke="black" d="M1223.75,-737.81C1201.65,-727.07 1171.91,-712.61 1148.53,-701.24"/>
<polygon fill="black" stroke="black" points="1149.78,-697.96 1139.26,-696.74 1146.72,-704.26 1149.78,-697.96"/>
</g>
<!-- magma -->
<g id="node62" class="node">
<title>magma</title>
<g id="a_node62"><a xlink:href="https://github.com/conda-forge/magma-feedstock/pull/4" xlink:title="magma ✓">
<ellipse fill="#31688e" stroke="black" cx="1266" cy="-970" rx="58" ry="18"/>
<text text-anchor="middle" x="1266" y="-966.3" font-family="Times-Roman" font-size="14.00" fill="white">magma ✓</text>
</a>
</g>
</g>
<!-- magma&#45;&gt;pytorch&#45;cpu -->
<g id="edge57" class="edge">
<title>magma&#45;&gt;pytorch&#45;cpu</title>
<path fill="none" stroke="black" d="M1266.32,-951.96C1265.85,-932.73 1262.48,-901.37 1247,-880 1236.15,-865.02 1219.67,-853.61 1203.7,-845.28"/>
<polygon fill="black" stroke="black" points="1204.92,-841.98 1194.4,-840.72 1201.84,-848.27 1204.92,-841.98"/>
</g>
<!-- pyreadline3 -->
<g id="node63" class="node">
<title>pyreadline3</title>
<g id="a_node63"><a xlink:href="https://github.com/conda-forge/pyreadline3-feedstock" xlink:title="pyreadline3">
<ellipse fill="#35b779" stroke="black" cx="974" cy="-90" rx="65.79" ry="18"/>
<text text-anchor="middle" x="974" y="-86.3" font-family="Times-Roman" font-size="14.00">pyreadline3</text>
</a>
</g>
</g>
<!-- pyreadline3&#45;&gt;cmd2 -->
<g id="edge58" class="edge">
<title>pyreadline3&#45;&gt;cmd2</title>
<path fill="none" stroke="black" d="M974,-71.7C974,-63.98 974,-54.71 974,-46.11"/>
<polygon fill="black" stroke="black" points="977.5,-46.1 974,-36.1 970.5,-46.1 977.5,-46.1"/>
</g>
</g>
</svg>
