<?xml version="1.0" encoding="UTF-8" standalone="no"?>
<!DOCTYPE svg PUBLIC "-//W3C//DTD SVG 1.1//EN"
 "http://www.w3.org/Graphics/SVG/1.1/DTD/svg11.dtd">
<!-- Generated by graphviz version 2.47.0 (20210327.0129)
 -->
<!-- Pages: 1 -->
<svg width="1609pt" height="996pt"
 viewBox="0.00 0.00 1608.55 996.00" xmlns="http://www.w3.org/2000/svg" xmlns:xlink="http://www.w3.org/1999/xlink">
<g id="graph0" class="graph" transform="scale(1 1) rotate(0) translate(4 992)">
<polygon fill="white" stroke="transparent" points="-4,4 -4,-992 1604.55,-992 1604.55,4 -4,4"/>
<!-- elfutils -->
<g id="node1" class="node">
<title>elfutils</title>
<g id="a_node1"><a xlink:href="https://github.com/conda-forge/elfutils-feedstock/pull/20" xlink:title="elfutils ❎">
<ellipse fill="#31688e" stroke="black" cx="55" cy="-682" rx="54" ry="18"/>
<text text-anchor="middle" x="55" y="-678.3" font-family="Times-Roman" font-size="14.00" fill="white">elfutils ❎</text>
</a>
</g>
</g>
<!-- heaptrack -->
<g id="node2" class="node">
<title>heaptrack</title>
<g id="a_node2"><a xlink:href="https://github.com/conda-forge/heaptrack-feedstock" xlink:title="heaptrack">
<ellipse fill="#fde725" stroke="black" cx="58" cy="-610" rx="58" ry="18"/>
<text text-anchor="middle" x="58" y="-606.3" font-family="Times-Roman" font-size="14.00">heaptrack</text>
</a>
</g>
</g>
<!-- elfutils&#45;&gt;heaptrack -->
<g id="edge1" class="edge">
<title>elfutils&#45;&gt;heaptrack</title>
<path fill="none" stroke="black" d="M55.74,-663.7C56.07,-655.98 56.47,-646.71 56.84,-638.11"/>
<polygon fill="black" stroke="black" points="60.34,-638.25 57.27,-628.1 53.34,-637.95 60.34,-638.25"/>
</g>
<!-- googleapis&#45;common&#45;protos -->
<g id="node3" class="node">
<title>googleapis&#45;common&#45;protos</title>
<g id="a_node3"><a xlink:href="https://github.com/conda-forge/googleapis-common-protos-feedstock/pull/26" xlink:title="googleapis common protos ❎">
<ellipse fill="#31688e" stroke="black" cx="951" cy="-970" rx="150.27" ry="18"/>
<text text-anchor="middle" x="951" y="-966.3" font-family="Times-Roman" font-size="14.00" fill="white">googleapis common protos ❎</text>
</a>
</g>
</g>
<!-- root_numpy -->
<g id="node4" class="node">
<title>root_numpy</title>
<g id="a_node4"><a xlink:href="https://github.com/conda-forge/root_numpy-feedstock/pull/21" xlink:title="root_numpy ❎">
<ellipse fill="#31688e" stroke="black" cx="951" cy="-898" rx="79.5" ry="18"/>
<text text-anchor="middle" x="951" y="-894.3" font-family="Times-Roman" font-size="14.00" fill="white">root_numpy ❎</text>
</a>
</g>
</g>
<!-- googleapis&#45;common&#45;protos&#45;&gt;root_numpy -->
<!-- r&#45;grf -->
<g id="node27" class="node">
<title>r&#45;grf</title>
<g id="a_node27"><a xlink:href="https://github.com/conda-forge/r-grf-feedstock/pull/10" xlink:title="r grf ❎">
<ellipse fill="#31688e" stroke="black" cx="951" cy="-826" rx="43" ry="18"/>
<text text-anchor="middle" x="951" y="-822.3" font-family="Times-Roman" font-size="14.00" fill="white">r grf ❎</text>
</a>
</g>
</g>
<!-- root_numpy&#45;&gt;r&#45;grf -->
<!-- hyperspy -->
<g id="node5" class="node">
<title>hyperspy</title>
<g id="a_node5"><a xlink:href="https://github.com/conda-forge/hyperspy-feedstock" xlink:title="hyperspy">
<ellipse fill="#fde725" stroke="black" cx="1163" cy="-574" rx="54" ry="18"/>
<text text-anchor="middle" x="1163" y="-570.3" font-family="Times-Roman" font-size="14.00">hyperspy</text>
</a>
</g>
</g>
<!-- libunwind -->
<g id="node6" class="node">
<title>libunwind</title>
<g id="a_node6"><a xlink:href="https://github.com/conda-forge/libunwind-feedstock/pull/14" xlink:title="libunwind ❎">
<ellipse fill="#31688e" stroke="black" cx="195" cy="-682" rx="67.69" ry="18"/>
<text text-anchor="middle" x="195" y="-678.3" font-family="Times-Roman" font-size="14.00" fill="white">libunwind ❎</text>
</a>
</g>
</g>
<!-- libunwind&#45;&gt;heaptrack -->
<g id="edge3" class="edge">
<title>libunwind&#45;&gt;heaptrack</title>
<path fill="none" stroke="black" d="M165.27,-665.81C144.89,-655.4 117.68,-641.49 95.76,-630.29"/>
<polygon fill="black" stroke="black" points="97.23,-627.11 86.73,-625.68 94.04,-633.35 97.23,-627.11"/>
</g>
<!-- gperftools -->
<g id="node7" class="node">
<title>gperftools</title>
<g id="a_node7"><a xlink:href="https://github.com/conda-forge/gperftools-feedstock" xlink:title="gperftools">
<ellipse fill="#fde725" stroke="black" cx="193" cy="-610" rx="58" ry="18"/>
<text text-anchor="middle" x="193" y="-606.3" font-family="Times-Roman" font-size="14.00">gperftools</text>
</a>
</g>
</g>
<!-- libunwind&#45;&gt;gperftools -->
<g id="edge4" class="edge">
<title>libunwind&#45;&gt;gperftools</title>
<path fill="none" stroke="black" d="M194.51,-663.7C194.29,-655.98 194.02,-646.71 193.77,-638.11"/>
<polygon fill="black" stroke="black" points="197.27,-638 193.49,-628.1 190.28,-638.2 197.27,-638"/>
</g>
<!-- py&#45;spy -->
<g id="node8" class="node">
<title>py&#45;spy</title>
<g id="a_node8"><a xlink:href="https://github.com/conda-forge/py-spy-feedstock/pull/11" xlink:title="py spy ❎">
<ellipse fill="#31688e" stroke="black" cx="311" cy="-538" rx="53.5" ry="18"/>
<text text-anchor="middle" x="311" y="-534.3" font-family="Times-Roman" font-size="14.00" fill="white">py spy ❎</text>
</a>
</g>
</g>
<!-- libunwind&#45;&gt;py&#45;spy -->
<g id="edge5" class="edge">
<title>libunwind&#45;&gt;py&#45;spy</title>
<path fill="none" stroke="black" d="M218.77,-664.93C231.95,-655.25 248.04,-642.1 260,-628 276.29,-608.8 290.14,-583.67 299.28,-565.01"/>
<polygon fill="black" stroke="black" points="302.47,-566.44 303.61,-555.91 296.15,-563.43 302.47,-566.44"/>
</g>
<!-- sentencepiece -->
<g id="node9" class="node">
<title>sentencepiece</title>
<g id="a_node9"><a xlink:href="https://github.com/conda-forge/sentencepiece-feedstock" xlink:title="sentencepiece">
<ellipse fill="#fde725" stroke="black" cx="161" cy="-538" rx="78" ry="18"/>
<text text-anchor="middle" x="161" y="-534.3" font-family="Times-Roman" font-size="14.00">sentencepiece</text>
</a>
</g>
</g>
<!-- gperftools&#45;&gt;sentencepiece -->
<g id="edge6" class="edge">
<title>gperftools&#45;&gt;sentencepiece</title>
<path fill="none" stroke="black" d="M185.25,-592.05C181.61,-584.09 177.19,-574.41 173.12,-565.51"/>
<polygon fill="black" stroke="black" points="176.24,-563.91 168.9,-556.28 169.87,-566.83 176.24,-563.91"/>
</g>
<!-- allennlp -->
<g id="node23" class="node">
<title>allennlp</title>
<g id="a_node23"><a xlink:href="https://github.com/conda-forge/allennlp-feedstock" xlink:title="allennlp">
<ellipse fill="#fde725" stroke="black" cx="534" cy="-466" rx="47.5" ry="18"/>
<text text-anchor="middle" x="534" y="-462.3" font-family="Times-Roman" font-size="14.00">allennlp</text>
</a>
</g>
</g>
<!-- sentencepiece&#45;&gt;allennlp -->
<g id="edge20" class="edge">
<title>sentencepiece&#45;&gt;allennlp</title>
<path fill="none" stroke="black" d="M218.55,-525.67C228.37,-523.76 238.48,-521.81 248,-520 329.66,-504.46 424.56,-486.99 481.9,-476.5"/>
<polygon fill="black" stroke="black" points="482.61,-479.93 491.82,-474.68 481.35,-473.04 482.61,-479.93"/>
</g>
<!-- pycairo -->
<g id="node10" class="node">
<title>pycairo</title>
<g id="a_node10"><a xlink:href="https://github.com/conda-forge/pycairo-feedstock/pull/23" xlink:title="pycairo ❎">
<ellipse fill="#31688e" stroke="black" cx="396" cy="-206" rx="57.39" ry="18"/>
<text text-anchor="middle" x="396" y="-202.3" font-family="Times-Roman" font-size="14.00" fill="white">pycairo ❎</text>
</a>
</g>
</g>
<!-- pygobject -->
<g id="node11" class="node">
<title>pygobject</title>
<g id="a_node11"><a xlink:href="https://github.com/conda-forge/pygobject-feedstock" xlink:title="pygobject">
<ellipse fill="#fde725" stroke="black" cx="396" cy="-134" rx="56" ry="18"/>
<text text-anchor="middle" x="396" y="-130.3" font-family="Times-Roman" font-size="14.00">pygobject</text>
</a>
</g>
</g>
<!-- pycairo&#45;&gt;pygobject -->
<g id="edge7" class="edge">
<title>pycairo&#45;&gt;pygobject</title>
<path fill="none" stroke="black" d="M396,-187.7C396,-179.98 396,-170.71 396,-162.11"/>
<polygon fill="black" stroke="black" points="399.5,-162.1 396,-152.1 392.5,-162.1 399.5,-162.1"/>
</g>
<!-- pyqt -->
<g id="node12" class="node">
<title>pyqt</title>
<g id="a_node12"><a xlink:href="https://github.com/conda-forge/pyqt-feedstock" xlink:title="pyqt">
<ellipse fill="#fde725" stroke="black" cx="1221" cy="-646" rx="31.4" ry="18"/>
<text text-anchor="middle" x="1221" y="-642.3" font-family="Times-Roman" font-size="14.00">pyqt</text>
</a>
</g>
</g>
<!-- pyqt&#45;&gt;hyperspy -->
<g id="edge8" class="edge">
<title>pyqt&#45;&gt;hyperspy</title>
<path fill="none" stroke="black" d="M1208.13,-629.46C1200.83,-620.65 1191.53,-609.43 1183.27,-599.46"/>
<polygon fill="black" stroke="black" points="1185.72,-596.93 1176.64,-591.47 1180.33,-601.4 1185.72,-596.93"/>
</g>
<!-- pythonocc&#45;core -->
<g id="node13" class="node">
<title>pythonocc&#45;core</title>
<g id="a_node13"><a xlink:href="https://github.com/conda-forge/pythonocc-core-feedstock" xlink:title="pythonocc core">
<ellipse fill="#fde725" stroke="black" cx="1245" cy="-502" rx="82" ry="18"/>
<text text-anchor="middle" x="1245" y="-498.3" font-family="Times-Roman" font-size="14.00">pythonocc core</text>
</a>
</g>
</g>
<!-- pyqt&#45;&gt;pythonocc&#45;core -->
<g id="edge9" class="edge">
<title>pyqt&#45;&gt;pythonocc&#45;core</title>
<path fill="none" stroke="black" d="M1223.89,-627.87C1227.99,-603.67 1235.5,-559.21 1240.37,-530.39"/>
<polygon fill="black" stroke="black" points="1243.88,-530.63 1242.09,-520.19 1236.98,-529.47 1243.88,-530.63"/>
</g>
<!-- qt -->
<g id="node14" class="node">
<title>qt</title>
<g id="a_node14"><a xlink:href="https://github.com/conda-forge/qt-feedstock/pull/184" xlink:title="qt ❎">
<ellipse fill="#31688e" stroke="black" cx="1339" cy="-718" rx="32.5" ry="18"/>
<text text-anchor="middle" x="1339" y="-714.3" font-family="Times-Roman" font-size="14.00" fill="white">qt ❎</text>
</a>
</g>
</g>
<!-- qt&#45;&gt;pyqt -->
<g id="edge10" class="edge">
<title>qt&#45;&gt;pyqt</title>
<path fill="none" stroke="black" d="M1317.63,-704.32C1299,-693.27 1271.78,-677.13 1250.98,-664.78"/>
<polygon fill="black" stroke="black" points="1252.6,-661.67 1242.21,-659.58 1249.02,-667.69 1252.6,-661.67"/>
</g>
<!-- pivy -->
<g id="node15" class="node">
<title>pivy</title>
<g id="a_node15"><a xlink:href="https://github.com/conda-forge/pivy-feedstock" xlink:title="pivy">
<ellipse fill="#fde725" stroke="black" cx="1326" cy="-574" rx="30" ry="18"/>
<text text-anchor="middle" x="1326" y="-570.3" font-family="Times-Roman" font-size="14.00">pivy</text>
</a>
</g>
</g>
<!-- qt&#45;&gt;pivy -->
<g id="edge11" class="edge">
<title>qt&#45;&gt;pivy</title>
<path fill="none" stroke="black" d="M1323.34,-701.9C1314.32,-692.07 1303.83,-678.43 1299,-664 1291.82,-642.56 1300.58,-617.94 1309.98,-600.03"/>
<polygon fill="black" stroke="black" points="1313.3,-601.27 1315.18,-590.84 1307.21,-597.83 1313.3,-601.27"/>
</g>
<!-- pyside2 -->
<g id="node16" class="node">
<title>pyside2</title>
<g id="a_node16"><a xlink:href="https://github.com/conda-forge/pyside2-feedstock" xlink:title="pyside2">
<ellipse fill="#fde725" stroke="black" cx="1435" cy="-646" rx="47" ry="18"/>
<text text-anchor="middle" x="1435" y="-642.3" font-family="Times-Roman" font-size="14.00">pyside2</text>
</a>
</g>
</g>
<!-- qt&#45;&gt;pyside2 -->
<g id="edge12" class="edge">
<title>qt&#45;&gt;pyside2</title>
<path fill="none" stroke="black" d="M1357.97,-703.17C1371.61,-693.22 1390.28,-679.61 1405.81,-668.28"/>
<polygon fill="black" stroke="black" points="1408.06,-670.98 1414.07,-662.26 1403.93,-665.32 1408.06,-670.98"/>
</g>
<!-- soqt -->
<g id="node17" class="node">
<title>soqt</title>
<g id="a_node17"><a xlink:href="https://github.com/conda-forge/soqt-feedstock" xlink:title="soqt">
<ellipse fill="#fde725" stroke="black" cx="1339" cy="-646" rx="30.59" ry="18"/>
<text text-anchor="middle" x="1339" y="-642.3" font-family="Times-Roman" font-size="14.00">soqt</text>
</a>
</g>
</g>
<!-- qt&#45;&gt;soqt -->
<g id="edge13" class="edge">
<title>qt&#45;&gt;soqt</title>
<path fill="none" stroke="black" d="M1339,-699.7C1339,-691.98 1339,-682.71 1339,-674.11"/>
<polygon fill="black" stroke="black" points="1342.5,-674.1 1339,-664.1 1335.5,-674.1 1342.5,-674.1"/>
</g>
<!-- geant4 -->
<g id="node18" class="node">
<title>geant4</title>
<g id="a_node18"><a xlink:href="https://github.com/conda-forge/geant4-feedstock" xlink:title="geant4">
<ellipse fill="#fde725" stroke="black" cx="1557" cy="-574" rx="43.59" ry="18"/>
<text text-anchor="middle" x="1557" y="-570.3" font-family="Times-Roman" font-size="14.00">geant4</text>
</a>
</g>
</g>
<!-- qt&#45;&gt;geant4 -->
<g id="edge14" class="edge">
<title>qt&#45;&gt;geant4</title>
<path fill="none" stroke="black" d="M1369.78,-711.84C1402.4,-705.18 1454.19,-691.07 1491,-664 1513.74,-647.27 1532.1,-620.48 1543.63,-600.65"/>
<polygon fill="black" stroke="black" points="1546.74,-602.26 1548.58,-591.82 1540.63,-598.83 1546.74,-602.26"/>
</g>
<!-- pyside2&#45;&gt;pivy -->
<g id="edge15" class="edge">
<title>pyside2&#45;&gt;pivy</title>
<path fill="none" stroke="black" d="M1411.88,-630.15C1395.17,-619.42 1372.49,-604.86 1354.64,-593.39"/>
<polygon fill="black" stroke="black" points="1356.1,-590.17 1345.79,-587.71 1352.32,-596.06 1356.1,-590.17"/>
</g>
<!-- cctbx&#45;base -->
<g id="node19" class="node">
<title>cctbx&#45;base</title>
<g id="a_node19"><a xlink:href="https://github.com/conda-forge/cctbx-base-feedstock" xlink:title="cctbx base">
<ellipse fill="#fde725" stroke="black" cx="1435" cy="-574" rx="60.5" ry="18"/>
<text text-anchor="middle" x="1435" y="-570.3" font-family="Times-Roman" font-size="14.00">cctbx base</text>
</a>
</g>
</g>
<!-- pyside2&#45;&gt;cctbx&#45;base -->
<g id="edge16" class="edge">
<title>pyside2&#45;&gt;cctbx&#45;base</title>
<path fill="none" stroke="black" d="M1435,-627.7C1435,-619.98 1435,-610.71 1435,-602.11"/>
<polygon fill="black" stroke="black" points="1438.5,-602.1 1435,-592.1 1431.5,-602.1 1438.5,-602.1"/>
</g>
<!-- soqt&#45;&gt;pivy -->
<g id="edge17" class="edge">
<title>soqt&#45;&gt;pivy</title>
<path fill="none" stroke="black" d="M1335.85,-628.05C1334.42,-620.35 1332.69,-611.03 1331.08,-602.36"/>
<polygon fill="black" stroke="black" points="1334.48,-601.47 1329.21,-592.28 1327.59,-602.75 1334.48,-601.47"/>
</g>
<!-- r&#45;sf -->
<g id="node20" class="node">
<title>r&#45;sf</title>
<g id="a_node20"><a xlink:href="https://github.com/conda-forge/r-sf-feedstock/pull/49" xlink:title="r sf ❎">
<ellipse fill="#31688e" stroke="black" cx="951" cy="-206" rx="38.5" ry="18"/>
<text text-anchor="middle" x="951" y="-202.3" font-family="Times-Roman" font-size="14.00" fill="white">r sf ❎</text>
</a>
</g>
</g>
<!-- r&#45;spdep -->
<g id="node21" class="node">
<title>r&#45;spdep</title>
<g id="a_node21"><a xlink:href="https://github.com/conda-forge/r-spdep-feedstock" xlink:title="r spdep">
<ellipse fill="#fde725" stroke="black" cx="951" cy="-134" rx="46.29" ry="18"/>
<text text-anchor="middle" x="951" y="-130.3" font-family="Times-Roman" font-size="14.00">r spdep</text>
</a>
</g>
</g>
<!-- r&#45;sf&#45;&gt;r&#45;spdep -->
<g id="edge18" class="edge">
<title>r&#45;sf&#45;&gt;r&#45;spdep</title>
<path fill="none" stroke="black" d="M951,-187.7C951,-179.98 951,-170.71 951,-162.11"/>
<polygon fill="black" stroke="black" points="954.5,-162.1 951,-152.1 947.5,-162.1 954.5,-162.1"/>
</g>
<!-- torchvision -->
<g id="node22" class="node">
<title>torchvision</title>
<g id="a_node22"><a xlink:href="https://github.com/conda-forge/torchvision-feedstock" xlink:title="torchvision">
<ellipse fill="#fde725" stroke="black" cx="444" cy="-538" rx="61.99" ry="18"/>
<text text-anchor="middle" x="444" y="-534.3" font-family="Times-Roman" font-size="14.00">torchvision</text>
</a>
</g>
</g>
<!-- torchvision&#45;&gt;allennlp -->
<g id="edge19" class="edge">
<title>torchvision&#45;&gt;allennlp</title>
<path fill="none" stroke="black" d="M464.87,-520.76C477.17,-511.2 492.88,-498.98 506.22,-488.61"/>
<polygon fill="black" stroke="black" points="508.42,-491.33 514.17,-482.43 504.12,-485.8 508.42,-491.33"/>
</g>
<!-- fltk -->
<g id="node24" class="node">
<title>fltk</title>
<g id="a_node24"><a xlink:href="https://github.com/conda-forge/fltk-feedstock/pull/7" xlink:title="fltk ❎">
<ellipse fill="#31688e" stroke="black" cx="396" cy="-90" rx="37.89" ry="18"/>
<text text-anchor="middle" x="396" y="-86.3" font-family="Times-Roman" font-size="14.00" fill="white">fltk ❎</text>
</a>
</g>
</g>
<!-- gmsh -->
<g id="node25" class="node">
<title>gmsh</title>
<g id="a_node25"><a xlink:href="https://github.com/conda-forge/gmsh-feedstock" xlink:title="gmsh">
<ellipse fill="#fde725" stroke="black" cx="396" cy="-18" rx="36.5" ry="18"/>
<text text-anchor="middle" x="396" y="-14.3" font-family="Times-Roman" font-size="14.00">gmsh</text>
</a>
</g>
</g>
<!-- fltk&#45;&gt;gmsh -->
<g id="edge21" class="edge">
<title>fltk&#45;&gt;gmsh</title>
<path fill="none" stroke="black" d="M396,-71.7C396,-63.98 396,-54.71 396,-46.11"/>
<polygon fill="black" stroke="black" points="399.5,-46.1 396,-36.1 392.5,-46.1 399.5,-46.1"/>
</g>
<!-- shortuuid -->
<g id="node26" class="node">
<title>shortuuid</title>
<g id="a_node26"><a xlink:href="https://github.com/conda-forge/shortuuid-feedstock/pull/11" xlink:title="shortuuid ✓">
<ellipse fill="#31688e" stroke="black" cx="628" cy="-538" rx="65.79" ry="18"/>
<text text-anchor="middle" x="628" y="-534.3" font-family="Times-Roman" font-size="14.00" fill="white">shortuuid ✓</text>
</a>
</g>
</g>
<!-- shortuuid&#45;&gt;allennlp -->
<g id="edge22" class="edge">
<title>shortuuid&#45;&gt;allennlp</title>
<path fill="none" stroke="black" d="M606.2,-520.76C593.35,-511.2 576.94,-498.98 563.01,-488.61"/>
<polygon fill="black" stroke="black" points="564.83,-485.59 554.72,-482.43 560.65,-491.21 564.83,-485.59"/>
</g>
<!-- grpcio&#45;gcp -->
<g id="node29" class="node">
<title>grpcio&#45;gcp</title>
<g id="a_node29"><a xlink:href="https://github.com/conda-forge/grpcio-gcp-feedstock/pull/9" xlink:title="grpcio gcp ❎">
<ellipse fill="#31688e" stroke="black" cx="951" cy="-754" rx="71.5" ry="18"/>
<text text-anchor="middle" x="951" y="-750.3" font-family="Times-Roman" font-size="14.00" fill="white">grpcio gcp ❎</text>
</a>
</g>
</g>
<!-- r&#45;grf&#45;&gt;grpcio&#45;gcp -->
<!-- pytorch&#45;cpu -->
<g id="node28" class="node">
<title>pytorch&#45;cpu</title>
<g id="a_node28"><a xlink:href="https://github.com/conda-forge/pytorch-cpu-feedstock" xlink:title="pytorch cpu">
<ellipse fill="#fde725" stroke="black" cx="534" cy="-610" rx="65.79" ry="18"/>
<text text-anchor="middle" x="534" y="-606.3" font-family="Times-Roman" font-size="14.00">pytorch cpu</text>
</a>
</g>
</g>
<!-- pytorch&#45;cpu&#45;&gt;torchvision -->
<g id="edge24" class="edge">
<title>pytorch&#45;cpu&#45;&gt;torchvision</title>
<path fill="none" stroke="black" d="M513.13,-592.76C501.2,-583.49 486.06,-571.71 472.99,-561.55"/>
<polygon fill="black" stroke="black" points="474.8,-558.52 464.76,-555.15 470.51,-564.05 474.8,-558.52"/>
</g>
<!-- pytorch&#45;cpu&#45;&gt;allennlp -->
<g id="edge25" class="edge">
<title>pytorch&#45;cpu&#45;&gt;allennlp</title>
<path fill="none" stroke="black" d="M534,-591.87C534,-567.67 534,-523.21 534,-494.39"/>
<polygon fill="black" stroke="black" points="537.5,-494.19 534,-484.19 530.5,-494.19 537.5,-494.19"/>
</g>
<!-- ibm_db -->
<g id="node30" class="node">
<title>ibm_db</title>
<g id="a_node30"><a xlink:href="https://github.com/conda-forge/ibm_db-feedstock/pull/27" xlink:title="ibm_db ❎">
<ellipse fill="#31688e" stroke="black" cx="951" cy="-682" rx="57.39" ry="18"/>
<text text-anchor="middle" x="951" y="-678.3" font-family="Times-Roman" font-size="14.00" fill="white">ibm_db ❎</text>
</a>
</g>
</g>
<!-- grpcio&#45;gcp&#45;&gt;ibm_db -->
<!-- nvcc -->
<g id="node31" class="node">
<title>nvcc</title>
<g id="a_node31"><a xlink:href="https://github.com/conda-forge/nvcc-feedstock/pull/62" xlink:title="nvcc ✓">
<ellipse fill="#31688e" stroke="black" cx="951" cy="-610" rx="42.49" ry="18"/>
<text text-anchor="middle" x="951" y="-606.3" font-family="Times-Roman" font-size="14.00" fill="white">nvcc ✓</text>
</a>
</g>
</g>
<!-- ibm_db&#45;&gt;nvcc -->
<!-- proj -->
<g id="node37" class="node">
<title>proj</title>
<g id="a_node37"><a xlink:href="https://github.com/conda-forge/proj-feedstock" xlink:title="proj">
<ellipse fill="#35b779" stroke="black" cx="951" cy="-538" rx="28.7" ry="18"/>
<text text-anchor="middle" x="951" y="-534.3" font-family="Times-Roman" font-size="14.00">proj</text>
</a>
</g>
</g>
<!-- nvcc&#45;&gt;proj -->
<!-- cudatoolkit -->
<g id="node32" class="node">
<title>cudatoolkit</title>
<g id="a_node32"><a xlink:href="https://github.com/conda-forge/cudatoolkit-feedstock/pull/4" xlink:title="cudatoolkit ❎">
<ellipse fill="#31688e" stroke="black" cx="413" cy="-754" rx="74.19" ry="18"/>
<text text-anchor="middle" x="413" y="-750.3" font-family="Times-Roman" font-size="14.00" fill="white">cudatoolkit ❎</text>
</a>
</g>
</g>
<!-- cudnn -->
<g id="node33" class="node">
<title>cudnn</title>
<g id="a_node33"><a xlink:href="https://github.com/conda-forge/cudnn-feedstock" xlink:title="cudnn">
<ellipse fill="#fde725" stroke="black" cx="358" cy="-682" rx="39" ry="18"/>
<text text-anchor="middle" x="358" y="-678.3" font-family="Times-Roman" font-size="14.00">cudnn</text>
</a>
</g>
</g>
<!-- cudatoolkit&#45;&gt;cudnn -->
<g id="edge29" class="edge">
<title>cudatoolkit&#45;&gt;cudnn</title>
<path fill="none" stroke="black" d="M399.69,-736.05C392.9,-727.42 384.53,-716.76 377.07,-707.27"/>
<polygon fill="black" stroke="black" points="379.74,-705.01 370.81,-699.31 374.24,-709.33 379.74,-705.01"/>
</g>
<!-- cutensor -->
<g id="node34" class="node">
<title>cutensor</title>
<g id="a_node34"><a xlink:href="https://github.com/conda-forge/cutensor-feedstock" xlink:title="cutensor">
<ellipse fill="#fde725" stroke="black" cx="467" cy="-682" rx="51.5" ry="18"/>
<text text-anchor="middle" x="467" y="-678.3" font-family="Times-Roman" font-size="14.00">cutensor</text>
</a>
</g>
</g>
<!-- cudatoolkit&#45;&gt;cutensor -->
<g id="edge30" class="edge">
<title>cudatoolkit&#45;&gt;cutensor</title>
<path fill="none" stroke="black" d="M426.07,-736.05C432.57,-727.63 440.56,-717.28 447.74,-707.97"/>
<polygon fill="black" stroke="black" points="450.71,-709.84 454.05,-699.79 445.17,-705.57 450.71,-709.84"/>
</g>
<!-- cudnn&#45;&gt;torchvision -->
<g id="edge31" class="edge">
<title>cudnn&#45;&gt;torchvision</title>
<path fill="none" stroke="black" d="M368.03,-664.43C382.91,-639.88 410.93,-593.6 428.47,-564.65"/>
<polygon fill="black" stroke="black" points="431.58,-566.27 433.76,-555.9 425.59,-562.64 431.58,-566.27"/>
</g>
<!-- cudnn&#45;&gt;pytorch&#45;cpu -->
<g id="edge32" class="edge">
<title>cudnn&#45;&gt;pytorch&#45;cpu</title>
<path fill="none" stroke="black" d="M386.67,-669.6C414.3,-658.61 456.53,-641.81 488.71,-629.01"/>
<polygon fill="black" stroke="black" points="490.35,-632.13 498.35,-625.18 487.76,-625.62 490.35,-632.13"/>
</g>
<!-- libv8 -->
<g id="node35" class="node">
<title>libv8</title>
<g id="a_node35"><a xlink:href="https://github.com/conda-forge/libv8-feedstock/pull/64" xlink:title="libv8 ❎">
<ellipse fill="#31688e" stroke="black" cx="1355" cy="-206" rx="45" ry="18"/>
<text text-anchor="middle" x="1355" y="-202.3" font-family="Times-Roman" font-size="14.00" fill="white">libv8 ❎</text>
</a>
</g>
</g>
<!-- r&#45;v8 -->
<g id="node36" class="node">
<title>r&#45;v8</title>
<g id="a_node36"><a xlink:href="https://github.com/conda-forge/r-v8-feedstock" xlink:title="r v8">
<ellipse fill="#fde725" stroke="black" cx="1355" cy="-134" rx="28.7" ry="18"/>
<text text-anchor="middle" x="1355" y="-130.3" font-family="Times-Roman" font-size="14.00">r v8</text>
</a>
</g>
</g>
<!-- libv8&#45;&gt;r&#45;v8 -->
<g id="edge33" class="edge">
<title>libv8&#45;&gt;r&#45;v8</title>
<path fill="none" stroke="black" d="M1355,-187.7C1355,-179.98 1355,-170.71 1355,-162.11"/>
<polygon fill="black" stroke="black" points="1358.5,-162.1 1355,-152.1 1351.5,-162.1 1358.5,-162.1"/>
</g>
<!-- jaeger -->
<g id="node38" class="node">
<title>jaeger</title>
<g id="a_node38"><a xlink:href="https://github.com/conda-forge/jaeger-feedstock/pull/12" xlink:title="jaeger ❎">
<ellipse fill="#31688e" stroke="black" cx="951" cy="-466" rx="52.79" ry="18"/>
<text text-anchor="middle" x="951" y="-462.3" font-family="Times-Roman" font-size="14.00" fill="white">jaeger ❎</text>
</a>
</g>
</g>
<!-- proj&#45;&gt;jaeger -->
<!-- ompl -->
<g id="node40" class="node">
<title>ompl</title>
<g id="a_node40"><a xlink:href="https://github.com/conda-forge/ompl-feedstock/pull/11" xlink:title="ompl ✓">
<ellipse fill="#31688e" stroke="black" cx="951" cy="-394" rx="45" ry="18"/>
<text text-anchor="middle" x="951" y="-390.3" font-family="Times-Roman" font-size="14.00" fill="white">ompl ✓</text>
</a>
</g>
</g>
<!-- jaeger&#45;&gt;ompl -->
<!-- nccl -->
<g id="node39" class="node">
<title>nccl</title>
<g id="a_node39"><a xlink:href="https://github.com/conda-forge/nccl-feedstock/pull/35" xlink:title="nccl ✓">
<ellipse fill="#31688e" stroke="black" cx="576" cy="-682" rx="39.79" ry="18"/>
<text text-anchor="middle" x="576" y="-678.3" font-family="Times-Roman" font-size="14.00" fill="white">nccl ✓</text>
</a>
</g>
</g>
<!-- nccl&#45;&gt;pytorch&#45;cpu -->
<g id="edge36" class="edge">
<title>nccl&#45;&gt;pytorch&#45;cpu</title>
<path fill="none" stroke="black" d="M566.05,-664.41C561.1,-656.16 555.01,-646.01 549.47,-636.78"/>
<polygon fill="black" stroke="black" points="552.32,-634.73 544.17,-627.96 546.32,-638.33 552.32,-634.73"/>
</g>
<!-- dm&#45;tree -->
<g id="node41" class="node">
<title>dm&#45;tree</title>
<g id="a_node41"><a xlink:href="https://github.com/conda-forge/dm-tree-feedstock/pull/4" xlink:title="dm tree ❎">
<ellipse fill="#31688e" stroke="black" cx="951" cy="-322" rx="60" ry="18"/>
<text text-anchor="middle" x="951" y="-318.3" font-family="Times-Roman" font-size="14.00" fill="white">dm tree ❎</text>
</a>
</g>
</g>
<!-- ompl&#45;&gt;dm&#45;tree -->
<!-- pyrfr -->
<g id="node43" class="node">
<title>pyrfr</title>
<g id="a_node43"><a xlink:href="https://github.com/conda-forge/pyrfr-feedstock/pull/11" xlink:title="pyrfr ❎">
<ellipse fill="#31688e" stroke="black" cx="951" cy="-250" rx="45.5" ry="18"/>
<text text-anchor="middle" x="951" y="-246.3" font-family="Times-Roman" font-size="14.00" fill="white">pyrfr ❎</text>
</a>
</g>
</g>
<!-- dm&#45;tree&#45;&gt;pyrfr -->
<!-- tokenizers -->
<g id="node42" class="node">
<title>tokenizers</title>
<g id="a_node42"><a xlink:href="https://github.com/conda-forge/tokenizers-feedstock/pull/18" xlink:title="tokenizers ❎">
<ellipse fill="#31688e" stroke="black" cx="722" cy="-610" rx="71" ry="18"/>
<text text-anchor="middle" x="722" y="-606.3" font-family="Times-Roman" font-size="14.00" fill="white">tokenizers ❎</text>
</a>
</g>
</g>
<!-- tokenizers&#45;&gt;allennlp -->
<g id="edge39" class="edge">
<title>tokenizers&#45;&gt;allennlp</title>
<path fill="none" stroke="black" d="M723.14,-591.99C723.5,-572.21 720.98,-539.74 703,-520 674.62,-488.83 628.16,-475.84 591.13,-470.51"/>
<polygon fill="black" stroke="black" points="591.32,-467 580.96,-469.19 590.43,-473.94 591.32,-467"/>
</g>
<!-- magma -->
<g id="node44" class="node">
<title>magma</title>
<g id="a_node44"><a xlink:href="https://github.com/conda-forge/magma-feedstock/pull/9" xlink:title="magma ✓">
<ellipse fill="#31688e" stroke="black" cx="644" cy="-754" rx="58" ry="18"/>
<text text-anchor="middle" x="644" y="-750.3" font-family="Times-Roman" font-size="14.00" fill="white">magma ✓</text>
</a>
</g>
</g>
<!-- magma&#45;&gt;pytorch&#45;cpu -->
<g id="edge41" class="edge">
<title>magma&#45;&gt;pytorch&#45;cpu</title>
<path fill="none" stroke="black" d="M644.32,-735.96C643.85,-716.73 640.48,-685.37 625,-664 614.15,-649.02 597.67,-637.61 581.7,-629.28"/>
<polygon fill="black" stroke="black" points="582.92,-625.98 572.4,-624.72 579.84,-632.27 582.92,-625.98"/>
</g>
<!-- onednn -->
<g id="node45" class="node">
<title>onednn</title>
<g id="a_node45"><a xlink:href="https://github.com/conda-forge/onednn-feedstock/pull/2" xlink:title="onednn ❎">
<ellipse fill="#31688e" stroke="black" cx="951" cy="-54" rx="58" ry="18"/>
<text text-anchor="middle" x="951" y="-50.3" font-family="Times-Roman" font-size="14.00" fill="white">onednn ❎</text>
</a>
</g>
</g>
</g>
</svg>
