<?xml version="1.0" encoding="UTF-8" standalone="no"?>
<!DOCTYPE svg PUBLIC "-//W3C//DTD SVG 1.1//EN"
 "http://www.w3.org/Graphics/SVG/1.1/DTD/svg11.dtd">
<!-- Generated by graphviz version 2.48.0 (20210717.2242)
 -->
<!-- Pages: 1 -->
<svg width="2235pt" height="952pt"
 viewBox="0.00 0.00 2234.50 952.00" xmlns="http://www.w3.org/2000/svg" xmlns:xlink="http://www.w3.org/1999/xlink">
<g id="graph0" class="graph" transform="scale(1 1) rotate(0) translate(4 948)">
<polygon fill="white" stroke="transparent" points="-4,4 -4,-948 2230.5,-948 2230.5,4 -4,4"/>
<!-- aioeasywebdav -->
<g id="node1" class="node">
<title>aioeasywebdav</title>
<g id="a_node1"><a xlink:href="https://github.com/conda-forge/aioeasywebdav-feedstock/pull/10" xlink:title="aioeasywebdav ✓">
<ellipse fill="#31688e" stroke="black" cx="2131.5" cy="-926" rx="88.5" ry="18"/>
<text text-anchor="middle" x="2131.5" y="-922.3" font-family="Times,serif" font-size="14.00" fill="white">aioeasywebdav ✓</text>
</a>
</g>
</g>
<!-- root_numpy -->
<g id="node2" class="node">
<title>root_numpy</title>
<g id="a_node2"><a xlink:href="https://github.com/conda-forge/root_numpy-feedstock/pull/25" xlink:title="root_numpy ❎">
<ellipse fill="#31688e" stroke="black" cx="2131.5" cy="-854" rx="80" ry="18"/>
<text text-anchor="middle" x="2131.5" y="-850.3" font-family="Times,serif" font-size="14.00" fill="white">root_numpy ❎</text>
</a>
</g>
</g>
<!-- aioeasywebdav&#45;&gt;root_numpy -->
<!-- ibm_db -->
<g id="node37" class="node">
<title>ibm_db</title>
<g id="a_node37"><a xlink:href="https://github.com/conda-forge/ibm_db-feedstock/pull/33" xlink:title="ibm_db ❎">
<ellipse fill="#31688e" stroke="black" cx="2131.5" cy="-782" rx="58.5" ry="18"/>
<text text-anchor="middle" x="2131.5" y="-778.3" font-family="Times,serif" font-size="14.00" fill="white">ibm_db ❎</text>
</a>
</g>
</g>
<!-- root_numpy&#45;&gt;ibm_db -->
<!-- ampl&#45;mp -->
<g id="node3" class="node">
<title>ampl&#45;mp</title>
<g id="a_node3"><a xlink:href="https://github.com/conda-forge/ampl-mp-feedstock/pull/17" xlink:title="ampl mp ❎">
<ellipse fill="#31688e" stroke="black" cx="579.5" cy="-162" rx="65.79" ry="18"/>
<text text-anchor="middle" x="579.5" y="-158.3" font-family="Times,serif" font-size="14.00" fill="white">ampl mp ❎</text>
</a>
</g>
</g>
<!-- ipopt -->
<g id="node4" class="node">
<title>ipopt</title>
<g id="a_node4"><a xlink:href="https://github.com/conda-forge/ipopt-feedstock" xlink:title="ipopt">
<ellipse fill="#fde725" stroke="black" cx="643.5" cy="-90" rx="34.5" ry="18"/>
<text text-anchor="middle" x="643.5" y="-86.3" font-family="Times,serif" font-size="14.00">ipopt</text>
</a>
</g>
</g>
<!-- ampl&#45;mp&#45;&gt;ipopt -->
<g id="edge2" class="edge">
<title>ampl&#45;mp&#45;&gt;ipopt</title>
<path fill="none" stroke="black" d="M594.67,-144.41C602.95,-135.35 613.34,-123.99 622.4,-114.08"/>
<polygon fill="black" stroke="black" points="625.15,-116.25 629.32,-106.51 619.99,-111.53 625.15,-116.25"/>
</g>
<!-- idyntree -->
<g id="node5" class="node">
<title>idyntree</title>
<g id="a_node5"><a xlink:href="https://github.com/conda-forge/idyntree-feedstock" xlink:title="idyntree">
<ellipse fill="#fde725" stroke="black" cx="643.5" cy="-18" rx="50.09" ry="18"/>
<text text-anchor="middle" x="643.5" y="-14.3" font-family="Times,serif" font-size="14.00">idyntree</text>
</a>
</g>
</g>
<!-- ipopt&#45;&gt;idyntree -->
<g id="edge3" class="edge">
<title>ipopt&#45;&gt;idyntree</title>
<path fill="none" stroke="black" d="M643.5,-71.7C643.5,-63.98 643.5,-54.71 643.5,-46.11"/>
<polygon fill="black" stroke="black" points="647,-46.1 643.5,-36.1 640,-46.1 647,-46.1"/>
</g>
<!-- check -->
<g id="node6" class="node">
<title>check</title>
<g id="a_node6"><a xlink:href="https://github.com/conda-forge/check-feedstock/pull/19" xlink:title="check ❎">
<ellipse fill="#31688e" stroke="black" cx="51.5" cy="-602" rx="51.5" ry="18"/>
<text text-anchor="middle" x="51.5" y="-598.3" font-family="Times,serif" font-size="14.00" fill="white">check ❎</text>
</a>
</g>
</g>
<!-- pulseaudio -->
<g id="node7" class="node">
<title>pulseaudio</title>
<g id="a_node7"><a xlink:href="https://github.com/conda-forge/pulseaudio-feedstock" xlink:title="pulseaudio">
<ellipse fill="#fde725" stroke="black" cx="126.5" cy="-530" rx="61.19" ry="18"/>
<text text-anchor="middle" x="126.5" y="-526.3" font-family="Times,serif" font-size="14.00">pulseaudio</text>
</a>
</g>
</g>
<!-- check&#45;&gt;pulseaudio -->
<g id="edge4" class="edge">
<title>check&#45;&gt;pulseaudio</title>
<path fill="none" stroke="black" d="M68.9,-584.76C78.58,-575.73 90.79,-564.33 101.48,-554.35"/>
<polygon fill="black" stroke="black" points="104.02,-556.77 108.94,-547.39 99.24,-551.65 104.02,-556.77"/>
</g>
<!-- gqrx -->
<g id="node8" class="node">
<title>gqrx</title>
<g id="a_node8"><a xlink:href="https://github.com/conda-forge/gqrx-feedstock" xlink:title="gqrx">
<ellipse fill="#fde725" stroke="black" cx="255.5" cy="-458" rx="32.5" ry="18"/>
<text text-anchor="middle" x="255.5" y="-454.3" font-family="Times,serif" font-size="14.00">gqrx</text>
</a>
</g>
</g>
<!-- pulseaudio&#45;&gt;gqrx -->
<g id="edge5" class="edge">
<title>pulseaudio&#45;&gt;gqrx</title>
<path fill="none" stroke="black" d="M154.49,-513.81C175.02,-502.67 202.9,-487.54 224.17,-476"/>
<polygon fill="black" stroke="black" points="226.01,-478.98 233.13,-471.14 222.67,-472.83 226.01,-478.98"/>
</g>
<!-- cherrypy -->
<g id="node9" class="node">
<title>cherrypy</title>
<g id="a_node9"><a xlink:href="https://github.com/conda-forge/cherrypy-feedstock/pull/64" xlink:title="cherrypy ❎">
<ellipse fill="#31688e" stroke="black" cx="1366.5" cy="-530" rx="66.5" ry="18"/>
<text text-anchor="middle" x="1366.5" y="-526.3" font-family="Times,serif" font-size="14.00" fill="white">cherrypy ❎</text>
</a>
</g>
</g>
<!-- allennlp -->
<g id="node10" class="node">
<title>allennlp</title>
<g id="a_node10"><a xlink:href="https://github.com/conda-forge/allennlp-feedstock" xlink:title="allennlp">
<ellipse fill="#fde725" stroke="black" cx="1656.5" cy="-458" rx="48.19" ry="18"/>
<text text-anchor="middle" x="1656.5" y="-454.3" font-family="Times,serif" font-size="14.00">allennlp</text>
</a>
</g>
</g>
<!-- cherrypy&#45;&gt;allennlp -->
<g id="edge6" class="edge">
<title>cherrypy&#45;&gt;allennlp</title>
<path fill="none" stroke="black" d="M1414.39,-517.44C1467.59,-504.6 1553.06,-483.97 1606.93,-470.96"/>
<polygon fill="black" stroke="black" points="1608.04,-474.3 1616.94,-468.55 1606.39,-467.49 1608.04,-474.3"/>
</g>
<!-- hyperspy -->
<g id="node11" class="node">
<title>hyperspy</title>
<g id="a_node11"><a xlink:href="https://github.com/conda-forge/hyperspy-feedstock" xlink:title="hyperspy">
<ellipse fill="#fde725" stroke="black" cx="661.5" cy="-674" rx="54" ry="18"/>
<text text-anchor="middle" x="661.5" y="-670.3" font-family="Times,serif" font-size="14.00">hyperspy</text>
</a>
</g>
</g>
<!-- intltool -->
<g id="node12" class="node">
<title>intltool</title>
<g id="a_node12"><a xlink:href="https://github.com/conda-forge/intltool-feedstock/pull/5" xlink:title="intltool ❎">
<ellipse fill="#31688e" stroke="black" cx="1664.5" cy="-198" rx="58" ry="18"/>
<text text-anchor="middle" x="1664.5" y="-194.3" font-family="Times,serif" font-size="14.00" fill="white">intltool ❎</text>
</a>
</g>
</g>
<!-- libsecret -->
<g id="node13" class="node">
<title>libsecret</title>
<g id="a_node13"><a xlink:href="https://github.com/conda-forge/libsecret-feedstock" xlink:title="libsecret">
<ellipse fill="#fde725" stroke="black" cx="1664.5" cy="-126" rx="51.5" ry="18"/>
<text text-anchor="middle" x="1664.5" y="-122.3" font-family="Times,serif" font-size="14.00">libsecret</text>
</a>
</g>
</g>
<!-- intltool&#45;&gt;libsecret -->
<g id="edge7" class="edge">
<title>intltool&#45;&gt;libsecret</title>
<path fill="none" stroke="black" d="M1664.5,-179.7C1664.5,-171.98 1664.5,-162.71 1664.5,-154.11"/>
<polygon fill="black" stroke="black" points="1668,-154.1 1664.5,-144.1 1661,-154.1 1668,-154.1"/>
</g>
<!-- oidc&#45;agent -->
<g id="node14" class="node">
<title>oidc&#45;agent</title>
<g id="a_node14"><a xlink:href="https://github.com/conda-forge/oidc-agent-feedstock" xlink:title="oidc agent">
<ellipse fill="#fde725" stroke="black" cx="1664.5" cy="-54" rx="59.29" ry="18"/>
<text text-anchor="middle" x="1664.5" y="-50.3" font-family="Times,serif" font-size="14.00">oidc agent</text>
</a>
</g>
</g>
<!-- libsecret&#45;&gt;oidc&#45;agent -->
<g id="edge8" class="edge">
<title>libsecret&#45;&gt;oidc&#45;agent</title>
<path fill="none" stroke="black" d="M1664.5,-107.7C1664.5,-99.98 1664.5,-90.71 1664.5,-82.11"/>
<polygon fill="black" stroke="black" points="1668,-82.1 1664.5,-72.1 1661,-82.1 1668,-82.1"/>
</g>
<!-- mumps -->
<g id="node15" class="node">
<title>mumps</title>
<g id="a_node15"><a xlink:href="https://github.com/conda-forge/mumps-feedstock" xlink:title="mumps">
<ellipse fill="#fde725" stroke="black" cx="708.5" cy="-162" rx="45" ry="18"/>
<text text-anchor="middle" x="708.5" y="-158.3" font-family="Times,serif" font-size="14.00">mumps</text>
</a>
</g>
</g>
<!-- mumps&#45;&gt;ipopt -->
<g id="edge9" class="edge">
<title>mumps&#45;&gt;ipopt</title>
<path fill="none" stroke="black" d="M693.42,-144.76C684.94,-135.62 674.2,-124.06 664.86,-114"/>
<polygon fill="black" stroke="black" points="667.42,-111.61 658.05,-106.67 662.29,-116.38 667.42,-111.61"/>
</g>
<!-- pyqt -->
<g id="node16" class="node">
<title>pyqt</title>
<g id="a_node16"><a xlink:href="https://github.com/conda-forge/pyqt-feedstock" xlink:title="pyqt">
<ellipse fill="#fde725" stroke="black" cx="655.5" cy="-746" rx="32" ry="18"/>
<text text-anchor="middle" x="655.5" y="-742.3" font-family="Times,serif" font-size="14.00">pyqt</text>
</a>
</g>
</g>
<!-- pyqt&#45;&gt;hyperspy -->
<g id="edge10" class="edge">
<title>pyqt&#45;&gt;hyperspy</title>
<path fill="none" stroke="black" d="M656.98,-727.7C657.64,-719.98 658.44,-710.71 659.18,-702.11"/>
<polygon fill="black" stroke="black" points="662.67,-702.37 660.03,-692.1 655.69,-701.77 662.67,-702.37"/>
</g>
<!-- gnuradio -->
<g id="node17" class="node">
<title>gnuradio</title>
<g id="a_node17"><a xlink:href="https://github.com/conda-forge/gnuradio-feedstock" xlink:title="gnuradio">
<ellipse fill="#fde725" stroke="black" cx="499.5" cy="-674" rx="52" ry="18"/>
<text text-anchor="middle" x="499.5" y="-670.3" font-family="Times,serif" font-size="14.00">gnuradio</text>
</a>
</g>
</g>
<!-- pyqt&#45;&gt;gnuradio -->
<g id="edge11" class="edge">
<title>pyqt&#45;&gt;gnuradio</title>
<path fill="none" stroke="black" d="M631.12,-734.06C606.57,-723.04 568.26,-705.85 539.29,-692.85"/>
<polygon fill="black" stroke="black" points="540.41,-689.52 529.86,-688.62 537.55,-695.91 540.41,-689.52"/>
</g>
<!-- pythonocc&#45;core -->
<g id="node18" class="node">
<title>pythonocc&#45;core</title>
<g id="a_node18"><a xlink:href="https://github.com/conda-forge/pythonocc-core-feedstock" xlink:title="pythonocc core">
<ellipse fill="#fde725" stroke="black" cx="646.5" cy="-602" rx="81.49" ry="18"/>
<text text-anchor="middle" x="646.5" y="-598.3" font-family="Times,serif" font-size="14.00">pythonocc core</text>
</a>
</g>
</g>
<!-- pyqt&#45;&gt;pythonocc&#45;core -->
<g id="edge12" class="edge">
<title>pyqt&#45;&gt;pythonocc&#45;core</title>
<path fill="none" stroke="black" d="M634.51,-732.09C621.47,-722.75 605.84,-708.85 598.5,-692 592.11,-677.33 592.74,-670.93 598.5,-656 602.71,-645.09 610.31,-635.04 618.25,-626.68"/>
<polygon fill="black" stroke="black" points="620.86,-629.02 625.54,-619.52 615.96,-624.03 620.86,-629.02"/>
</g>
<!-- gnuradio&#45;&gt;gqrx -->
<g id="edge13" class="edge">
<title>gnuradio&#45;&gt;gqrx</title>
<path fill="none" stroke="black" d="M495.55,-655.89C486.64,-618.71 464.07,-532.23 442.5,-512 431.63,-501.8 346.65,-480.43 295.07,-468.17"/>
<polygon fill="black" stroke="black" points="295.76,-464.74 285.23,-465.84 294.15,-471.55 295.76,-464.74"/>
</g>
<!-- digital_rf -->
<g id="node19" class="node">
<title>digital_rf</title>
<g id="a_node19"><a xlink:href="https://github.com/conda-forge/digital_rf-feedstock" xlink:title="digital_rf">
<ellipse fill="#fde725" stroke="black" cx="380.5" cy="-602" rx="52.79" ry="18"/>
<text text-anchor="middle" x="380.5" y="-598.3" font-family="Times,serif" font-size="14.00">digital_rf</text>
</a>
</g>
</g>
<!-- gnuradio&#45;&gt;digital_rf -->
<g id="edge14" class="edge">
<title>gnuradio&#45;&gt;digital_rf</title>
<path fill="none" stroke="black" d="M474.26,-658.15C456.83,-647.9 433.44,-634.14 414.39,-622.93"/>
<polygon fill="black" stroke="black" points="416.09,-619.88 405.7,-617.82 412.55,-625.91 416.09,-619.88"/>
</g>
<!-- gnuradio&#45;osmosdr -->
<g id="node20" class="node">
<title>gnuradio&#45;osmosdr</title>
<g id="a_node20"><a xlink:href="https://github.com/conda-forge/gnuradio-osmosdr-feedstock" xlink:title="gnuradio osmosdr">
<ellipse fill="#fde725" stroke="black" cx="338.5" cy="-530" rx="95" ry="18"/>
<text text-anchor="middle" x="338.5" y="-526.3" font-family="Times,serif" font-size="14.00">gnuradio osmosdr</text>
</a>
</g>
</g>
<!-- gnuradio&#45;&gt;gnuradio&#45;osmosdr -->
<g id="edge15" class="edge">
<title>gnuradio&#45;&gt;gnuradio&#45;osmosdr</title>
<path fill="none" stroke="black" d="M452.85,-665.79C404.78,-657.29 334.65,-641.55 318.5,-620 304.87,-601.81 312.81,-576.04 322.42,-556.91"/>
<polygon fill="black" stroke="black" points="325.5,-558.58 327.18,-548.12 319.34,-555.24 325.5,-558.58"/>
</g>
<!-- gnuradio&#45;soapy -->
<g id="node21" class="node">
<title>gnuradio&#45;soapy</title>
<g id="a_node21"><a xlink:href="https://github.com/conda-forge/gnuradio-soapy-feedstock" xlink:title="gnuradio soapy">
<ellipse fill="#fde725" stroke="black" cx="427.5" cy="-458" rx="82" ry="18"/>
<text text-anchor="middle" x="427.5" y="-454.3" font-family="Times,serif" font-size="14.00">gnuradio soapy</text>
</a>
</g>
</g>
<!-- gnuradio&#45;&gt;gnuradio&#45;soapy -->
<g id="edge16" class="edge">
<title>gnuradio&#45;&gt;gnuradio&#45;soapy</title>
<path fill="none" stroke="black" d="M500.12,-655.61C500.54,-625.03 498.34,-560.28 475.5,-512 470.46,-501.35 462.56,-491.31 454.61,-482.89"/>
<polygon fill="black" stroke="black" points="456.92,-480.25 447.37,-475.64 451.96,-485.19 456.92,-480.25"/>
</g>
<!-- gnuradio&#45;satellites -->
<g id="node22" class="node">
<title>gnuradio&#45;satellites</title>
<g id="a_node22"><a xlink:href="https://github.com/conda-forge/gnuradio-satellites-feedstock" xlink:title="gnuradio satellites">
<ellipse fill="#fde725" stroke="black" cx="537.5" cy="-386" rx="97.5" ry="18"/>
<text text-anchor="middle" x="537.5" y="-382.3" font-family="Times,serif" font-size="14.00">gnuradio satellites</text>
</a>
</g>
</g>
<!-- gnuradio&#45;&gt;gnuradio&#45;satellites -->
<g id="edge17" class="edge">
<title>gnuradio&#45;&gt;gnuradio&#45;satellites</title>
<path fill="none" stroke="black" d="M503.88,-655.91C506.4,-645.57 509.46,-632.09 511.5,-620 523.97,-546 531.96,-457.73 535.46,-414.13"/>
<polygon fill="black" stroke="black" points="538.96,-414.29 536.25,-404.05 531.98,-413.74 538.96,-414.29"/>
</g>
<!-- gnuradio&#45;osmosdr&#45;&gt;gqrx -->
<g id="edge55" class="edge">
<title>gnuradio&#45;osmosdr&#45;&gt;gqrx</title>
<path fill="none" stroke="black" d="M318.41,-512.05C307.03,-502.46 292.68,-490.36 280.57,-480.14"/>
<polygon fill="black" stroke="black" points="282.5,-477.2 272.6,-473.42 277.99,-482.55 282.5,-477.2"/>
</g>
<!-- qt -->
<g id="node23" class="node">
<title>qt</title>
<g id="a_node23"><a xlink:href="https://github.com/conda-forge/qt-feedstock/pull/184" xlink:title="qt ❎">
<ellipse fill="#31688e" stroke="black" cx="743.5" cy="-818" rx="34.5" ry="18"/>
<text text-anchor="middle" x="743.5" y="-814.3" font-family="Times,serif" font-size="14.00" fill="white">qt ❎</text>
</a>
</g>
</g>
<!-- qt&#45;&gt;gqrx -->
<g id="edge26" class="edge">
<title>qt&#45;&gt;gqrx</title>
<path fill="none" stroke="black" d="M709.26,-815.22C592.26,-808.2 215.5,-777.64 215.5,-675 215.5,-675 215.5,-675 215.5,-601 215.5,-559.26 231.71,-513.11 243.5,-485.08"/>
<polygon fill="black" stroke="black" points="246.83,-486.19 247.6,-475.62 240.41,-483.4 246.83,-486.19"/>
</g>
<!-- qt&#45;&gt;pyqt -->
<g id="edge18" class="edge">
<title>qt&#45;&gt;pyqt</title>
<path fill="none" stroke="black" d="M725.27,-802.5C712.56,-792.39 695.42,-778.75 681.31,-767.53"/>
<polygon fill="black" stroke="black" points="683.41,-764.73 673.41,-761.25 679.06,-770.21 683.41,-764.73"/>
</g>
<!-- qt&#45;&gt;gnuradio -->
<g id="edge19" class="edge">
<title>qt&#45;&gt;gnuradio</title>
<path fill="none" stroke="black" d="M715.05,-807.8C688.21,-798.55 647.3,-782.97 614.5,-764 581.41,-744.87 547.23,-717.23 524.83,-697.85"/>
<polygon fill="black" stroke="black" points="526.97,-695.06 517.14,-691.11 522.35,-700.33 526.97,-695.06"/>
</g>
<!-- qwt -->
<g id="node24" class="node">
<title>qwt</title>
<g id="a_node24"><a xlink:href="https://github.com/conda-forge/qwt-feedstock" xlink:title="qwt">
<ellipse fill="#fde725" stroke="black" cx="505.5" cy="-746" rx="28.7" ry="18"/>
<text text-anchor="middle" x="505.5" y="-742.3" font-family="Times,serif" font-size="14.00">qwt</text>
</a>
</g>
</g>
<!-- qt&#45;&gt;qwt -->
<g id="edge20" class="edge">
<title>qt&#45;&gt;qwt</title>
<path fill="none" stroke="black" d="M713.84,-808.28C669.84,-795.34 587.44,-771.1 540.53,-757.3"/>
<polygon fill="black" stroke="black" points="541.39,-753.91 530.81,-754.44 539.42,-760.62 541.39,-753.91"/>
</g>
<!-- pivy -->
<g id="node25" class="node">
<title>pivy</title>
<g id="a_node25"><a xlink:href="https://github.com/conda-forge/pivy-feedstock" xlink:title="pivy">
<ellipse fill="#fde725" stroke="black" cx="776.5" cy="-602" rx="30.59" ry="18"/>
<text text-anchor="middle" x="776.5" y="-598.3" font-family="Times,serif" font-size="14.00">pivy</text>
</a>
</g>
</g>
<!-- qt&#45;&gt;pivy -->
<g id="edge21" class="edge">
<title>qt&#45;&gt;pivy</title>
<path fill="none" stroke="black" d="M744.72,-799.96C747,-770.44 752.62,-707.98 762.5,-656 764.12,-647.45 766.37,-638.25 768.59,-629.96"/>
<polygon fill="black" stroke="black" points="772.04,-630.62 771.34,-620.05 765.3,-628.75 772.04,-630.62"/>
</g>
<!-- pyside2 -->
<g id="node26" class="node">
<title>pyside2</title>
<g id="a_node26"><a xlink:href="https://github.com/conda-forge/pyside2-feedstock" xlink:title="pyside2">
<ellipse fill="#fde725" stroke="black" cx="898.5" cy="-674" rx="47" ry="18"/>
<text text-anchor="middle" x="898.5" y="-670.3" font-family="Times,serif" font-size="14.00">pyside2</text>
</a>
</g>
</g>
<!-- qt&#45;&gt;pyside2 -->
<g id="edge22" class="edge">
<title>qt&#45;&gt;pyside2</title>
<path fill="none" stroke="black" d="M759.79,-802.07C786.88,-777.26 841.35,-727.36 873.38,-698.01"/>
<polygon fill="black" stroke="black" points="876,-700.36 881.01,-691.02 871.27,-695.2 876,-700.36"/>
</g>
<!-- soqt -->
<g id="node27" class="node">
<title>soqt</title>
<g id="a_node27"><a xlink:href="https://github.com/conda-forge/soqt-feedstock" xlink:title="soqt">
<ellipse fill="#fde725" stroke="black" cx="802.5" cy="-674" rx="30.59" ry="18"/>
<text text-anchor="middle" x="802.5" y="-670.3" font-family="Times,serif" font-size="14.00">soqt</text>
</a>
</g>
</g>
<!-- qt&#45;&gt;soqt -->
<g id="edge23" class="edge">
<title>qt&#45;&gt;soqt</title>
<path fill="none" stroke="black" d="M750.5,-800.15C760.66,-775.71 779.58,-730.17 791.58,-701.29"/>
<polygon fill="black" stroke="black" points="794.9,-702.4 795.51,-691.82 788.44,-699.72 794.9,-702.4"/>
</g>
<!-- freecad -->
<g id="node28" class="node">
<title>freecad</title>
<g id="a_node28"><a xlink:href="https://github.com/conda-forge/freecad-feedstock" xlink:title="freecad">
<ellipse fill="#fde725" stroke="black" cx="918.5" cy="-530" rx="45.5" ry="18"/>
<text text-anchor="middle" x="918.5" y="-526.3" font-family="Times,serif" font-size="14.00">freecad</text>
</a>
</g>
</g>
<!-- qt&#45;&gt;freecad -->
<g id="edge24" class="edge">
<title>qt&#45;&gt;freecad</title>
<path fill="none" stroke="black" d="M776.23,-812.19C865.85,-798.28 1111.71,-754.96 1158.5,-692 1177.09,-666.98 1143.75,-589.97 1137.5,-584 1113.94,-561.51 1028.39,-545.86 971.45,-537.66"/>
<polygon fill="black" stroke="black" points="971.91,-534.19 961.52,-536.26 970.93,-541.12 971.91,-534.19"/>
</g>
<!-- geant4 -->
<g id="node29" class="node">
<title>geant4</title>
<g id="a_node29"><a xlink:href="https://github.com/conda-forge/geant4-feedstock" xlink:title="geant4">
<ellipse fill="#fde725" stroke="black" cx="1248.5" cy="-602" rx="43" ry="18"/>
<text text-anchor="middle" x="1248.5" y="-598.3" font-family="Times,serif" font-size="14.00">geant4</text>
</a>
</g>
</g>
<!-- qt&#45;&gt;geant4 -->
<g id="edge25" class="edge">
<title>qt&#45;&gt;geant4</title>
<path fill="none" stroke="black" d="M778.13,-817.47C871.89,-818.06 1127.87,-814.85 1191.5,-764 1232.51,-731.23 1244.06,-666.8 1247.28,-630.16"/>
<polygon fill="black" stroke="black" points="1250.77,-630.41 1248.01,-620.18 1243.79,-629.9 1250.77,-630.41"/>
</g>
<!-- qwt&#45;&gt;gnuradio -->
<g id="edge27" class="edge">
<title>qwt&#45;&gt;gnuradio</title>
<path fill="none" stroke="black" d="M504.02,-727.7C503.36,-719.98 502.56,-710.71 501.82,-702.11"/>
<polygon fill="black" stroke="black" points="505.31,-701.77 500.97,-692.1 498.33,-702.37 505.31,-701.77"/>
</g>
<!-- pivy&#45;&gt;freecad -->
<g id="edge28" class="edge">
<title>pivy&#45;&gt;freecad</title>
<path fill="none" stroke="black" d="M799.31,-589.75C821.59,-578.77 855.84,-561.89 881.92,-549.03"/>
<polygon fill="black" stroke="black" points="883.7,-552.06 891.12,-544.5 880.61,-545.78 883.7,-552.06"/>
</g>
<!-- pyside2&#45;&gt;pivy -->
<g id="edge29" class="edge">
<title>pyside2&#45;&gt;pivy</title>
<path fill="none" stroke="black" d="M873.52,-658.67C854.08,-647.52 827.06,-632.01 806.46,-620.19"/>
<polygon fill="black" stroke="black" points="808.2,-617.15 797.79,-615.21 804.72,-623.23 808.2,-617.15"/>
</g>
<!-- pyside2&#45;&gt;freecad -->
<g id="edge30" class="edge">
<title>pyside2&#45;&gt;freecad</title>
<path fill="none" stroke="black" d="M880.4,-657.3C870.7,-647.65 859.7,-634.4 854.5,-620 849.07,-604.95 847.69,-598.48 854.5,-584 860.82,-570.55 872.42,-559.35 884.02,-550.76"/>
<polygon fill="black" stroke="black" points="886.16,-553.53 892.39,-544.97 882.18,-547.77 886.16,-553.53"/>
</g>
<!-- cctbx&#45;base -->
<g id="node30" class="node">
<title>cctbx&#45;base</title>
<g id="a_node30"><a xlink:href="https://github.com/conda-forge/cctbx-base-feedstock" xlink:title="cctbx base">
<ellipse fill="#fde725" stroke="black" cx="1051.5" cy="-602" rx="60" ry="18"/>
<text text-anchor="middle" x="1051.5" y="-598.3" font-family="Times,serif" font-size="14.00">cctbx base</text>
</a>
</g>
</g>
<!-- pyside2&#45;&gt;cctbx&#45;base -->
<g id="edge31" class="edge">
<title>pyside2&#45;&gt;cctbx&#45;base</title>
<path fill="none" stroke="black" d="M927.64,-659.67C951.19,-648.89 984.62,-633.6 1010.81,-621.62"/>
<polygon fill="black" stroke="black" points="1012.46,-624.71 1020.1,-617.37 1009.55,-618.34 1012.46,-624.71"/>
</g>
<!-- soqt&#45;&gt;pivy -->
<g id="edge32" class="edge">
<title>soqt&#45;&gt;pivy</title>
<path fill="none" stroke="black" d="M796.21,-656.05C793.24,-648.06 789.62,-638.33 786.31,-629.4"/>
<polygon fill="black" stroke="black" points="789.5,-627.94 782.74,-619.79 782.94,-630.38 789.5,-627.94"/>
</g>
<!-- scalapack -->
<g id="node31" class="node">
<title>scalapack</title>
<g id="a_node31"><a xlink:href="https://github.com/conda-forge/scalapack-feedstock/pull/20" xlink:title="scalapack ❎">
<ellipse fill="#31688e" stroke="black" cx="708.5" cy="-234" rx="69.59" ry="18"/>
<text text-anchor="middle" x="708.5" y="-230.3" font-family="Times,serif" font-size="14.00" fill="white">scalapack ❎</text>
</a>
</g>
</g>
<!-- scalapack&#45;&gt;mumps -->
<g id="edge33" class="edge">
<title>scalapack&#45;&gt;mumps</title>
<path fill="none" stroke="black" d="M708.5,-215.7C708.5,-207.98 708.5,-198.71 708.5,-190.11"/>
<polygon fill="black" stroke="black" points="712,-190.1 708.5,-180.1 705,-190.1 712,-190.1"/>
</g>
<!-- speex -->
<g id="node32" class="node">
<title>speex</title>
<g id="a_node32"><a xlink:href="https://github.com/conda-forge/speex-feedstock/pull/7" xlink:title="speex ❎">
<ellipse fill="#31688e" stroke="black" cx="131.5" cy="-674" rx="52" ry="18"/>
<text text-anchor="middle" x="131.5" y="-670.3" font-family="Times,serif" font-size="14.00" fill="white">speex ❎</text>
</a>
</g>
</g>
<!-- speex&#45;&gt;pulseaudio -->
<g id="edge34" class="edge">
<title>speex&#45;&gt;pulseaudio</title>
<path fill="none" stroke="black" d="M130.9,-655.87C130.04,-631.67 128.48,-587.21 127.46,-558.39"/>
<polygon fill="black" stroke="black" points="130.96,-558.06 127.11,-548.19 123.96,-558.31 130.96,-558.06"/>
</g>
<!-- torchvision -->
<g id="node33" class="node">
<title>torchvision</title>
<g id="a_node33"><a xlink:href="https://github.com/conda-forge/torchvision-feedstock" xlink:title="torchvision">
<ellipse fill="#fde725" stroke="black" cx="1513.5" cy="-530" rx="62.5" ry="18"/>
<text text-anchor="middle" x="1513.5" y="-526.3" font-family="Times,serif" font-size="14.00">torchvision</text>
</a>
</g>
</g>
<!-- torchvision&#45;&gt;allennlp -->
<g id="edge35" class="edge">
<title>torchvision&#45;&gt;allennlp</title>
<path fill="none" stroke="black" d="M1543.83,-514.15C1565.73,-503.43 1595.46,-488.88 1618.88,-477.42"/>
<polygon fill="black" stroke="black" points="1620.72,-480.41 1628.16,-472.87 1617.64,-474.12 1620.72,-480.41"/>
</g>
<!-- smesh -->
<g id="node34" class="node">
<title>smesh</title>
<g id="a_node34"><a xlink:href="https://github.com/conda-forge/smesh-feedstock/pull/48" xlink:title="smesh ❎">
<ellipse fill="#31688e" stroke="black" cx="918.5" cy="-602" rx="54.69" ry="18"/>
<text text-anchor="middle" x="918.5" y="-598.3" font-family="Times,serif" font-size="14.00" fill="white">smesh ❎</text>
</a>
</g>
</g>
<!-- smesh&#45;&gt;freecad -->
<g id="edge36" class="edge">
<title>smesh&#45;&gt;freecad</title>
<path fill="none" stroke="black" d="M918.5,-583.7C918.5,-575.98 918.5,-566.71 918.5,-558.11"/>
<polygon fill="black" stroke="black" points="922,-558.1 918.5,-548.1 915,-558.1 922,-558.1"/>
</g>
<!-- gperftools -->
<g id="node35" class="node">
<title>gperftools</title>
<g id="a_node35"><a xlink:href="https://github.com/conda-forge/gperftools-feedstock/pull/11" xlink:title="gperftools ❎">
<ellipse fill="#31688e" stroke="black" cx="1689.5" cy="-602" rx="72.29" ry="18"/>
<text text-anchor="middle" x="1689.5" y="-598.3" font-family="Times,serif" font-size="14.00" fill="white">gperftools ❎</text>
</a>
</g>
</g>
<!-- sentencepiece -->
<g id="node36" class="node">
<title>sentencepiece</title>
<g id="a_node36"><a xlink:href="https://github.com/conda-forge/sentencepiece-feedstock" xlink:title="sentencepiece">
<ellipse fill="#fde725" stroke="black" cx="1709.5" cy="-530" rx="76.89" ry="18"/>
<text text-anchor="middle" x="1709.5" y="-526.3" font-family="Times,serif" font-size="14.00">sentencepiece</text>
</a>
</g>
</g>
<!-- gperftools&#45;&gt;sentencepiece -->
<g id="edge37" class="edge">
<title>gperftools&#45;&gt;sentencepiece</title>
<path fill="none" stroke="black" d="M1694.44,-583.7C1696.67,-575.9 1699.35,-566.51 1701.83,-557.83"/>
<polygon fill="black" stroke="black" points="1705.23,-558.68 1704.61,-548.1 1698.5,-556.76 1705.23,-558.68"/>
</g>
<!-- sentencepiece&#45;&gt;allennlp -->
<g id="edge38" class="edge">
<title>sentencepiece&#45;&gt;allennlp</title>
<path fill="none" stroke="black" d="M1696.67,-512.05C1690.29,-503.63 1682.45,-493.28 1675.4,-483.97"/>
<polygon fill="black" stroke="black" points="1678.04,-481.65 1669.21,-475.79 1672.46,-485.87 1678.04,-481.65"/>
</g>
<!-- r&#45;vroom -->
<g id="node40" class="node">
<title>r&#45;vroom</title>
<g id="a_node40"><a xlink:href="https://github.com/conda-forge/r-vroom-feedstock/pull/17" xlink:title="r vroom ❎">
<ellipse fill="#31688e" stroke="black" cx="2131.5" cy="-710" rx="61.99" ry="18"/>
<text text-anchor="middle" x="2131.5" y="-706.3" font-family="Times,serif" font-size="14.00" fill="white">r vroom ❎</text>
</a>
</g>
</g>
<!-- ibm_db&#45;&gt;r&#45;vroom -->
<!-- pytorch&#45;cpu -->
<g id="node38" class="node">
<title>pytorch&#45;cpu</title>
<g id="a_node38"><a xlink:href="https://github.com/conda-forge/pytorch-cpu-feedstock" xlink:title="pytorch cpu">
<ellipse fill="#fde725" stroke="black" cx="1533.5" cy="-602" rx="65.79" ry="18"/>
<text text-anchor="middle" x="1533.5" y="-598.3" font-family="Times,serif" font-size="14.00">pytorch cpu</text>
</a>
</g>
</g>
<!-- pytorch&#45;cpu&#45;&gt;allennlp -->
<g id="edge40" class="edge">
<title>pytorch&#45;cpu&#45;&gt;allennlp</title>
<path fill="none" stroke="black" d="M1550.42,-584.17C1560.53,-573.92 1573.51,-560.45 1584.5,-548 1603.15,-526.87 1623.23,-501.84 1637.43,-483.72"/>
<polygon fill="black" stroke="black" points="1640.51,-485.46 1643.9,-475.42 1634.99,-481.16 1640.51,-485.46"/>
</g>
<!-- pytorch&#45;cpu&#45;&gt;torchvision -->
<g id="edge41" class="edge">
<title>pytorch&#45;cpu&#45;&gt;torchvision</title>
<path fill="none" stroke="black" d="M1528.56,-583.7C1526.33,-575.9 1523.65,-566.51 1521.17,-557.83"/>
<polygon fill="black" stroke="black" points="1524.5,-556.76 1518.39,-548.1 1517.77,-558.68 1524.5,-556.76"/>
</g>
<!-- grpcio&#45;gcp -->
<g id="node39" class="node">
<title>grpcio&#45;gcp</title>
<g id="a_node39"><a xlink:href="https://github.com/conda-forge/grpcio-gcp-feedstock/pull/9" xlink:title="grpcio gcp ❎">
<ellipse fill="#31688e" stroke="black" cx="1853.5" cy="-602" rx="73.5" ry="18"/>
<text text-anchor="middle" x="1853.5" y="-598.3" font-family="Times,serif" font-size="14.00" fill="white">grpcio gcp ❎</text>
</a>
</g>
</g>
<!-- grpcio&#45;gcp&#45;&gt;allennlp -->
<g id="edge42" class="edge">
<title>grpcio&#45;gcp&#45;&gt;allennlp</title>
<path fill="none" stroke="black" d="M1846.36,-583.93C1837.27,-564.09 1819.76,-531.57 1795.5,-512 1769.97,-491.4 1735.55,-478.2 1707.35,-470.12"/>
<polygon fill="black" stroke="black" points="1708.23,-466.73 1697.66,-467.47 1706.39,-473.48 1708.23,-466.73"/>
</g>
<!-- nvcc -->
<g id="node41" class="node">
<title>nvcc</title>
<g id="a_node41"><a xlink:href="https://github.com/conda-forge/nvcc-feedstock/pull/67" xlink:title="nvcc ✓">
<ellipse fill="#31688e" stroke="black" cx="2131.5" cy="-638" rx="39" ry="18"/>
<text text-anchor="middle" x="2131.5" y="-634.3" font-family="Times,serif" font-size="14.00" fill="white">nvcc ✓</text>
</a>
</g>
</g>
<!-- r&#45;vroom&#45;&gt;nvcc -->
<!-- proj -->
<g id="node48" class="node">
<title>proj</title>
<g id="a_node48"><a xlink:href="https://github.com/conda-forge/proj-feedstock" xlink:title="proj">
<ellipse fill="#35b779" stroke="black" cx="2131.5" cy="-566" rx="29.5" ry="18"/>
<text text-anchor="middle" x="2131.5" y="-562.3" font-family="Times,serif" font-size="14.00">proj</text>
</a>
</g>
</g>
<!-- nvcc&#45;&gt;proj -->
<!-- cudatoolkit -->
<g id="node42" class="node">
<title>cudatoolkit</title>
<g id="a_node42"><a xlink:href="https://github.com/conda-forge/cudatoolkit-feedstock/pull/4" xlink:title="cudatoolkit ❎">
<ellipse fill="#31688e" stroke="black" cx="1404.5" cy="-746" rx="76.89" ry="18"/>
<text text-anchor="middle" x="1404.5" y="-742.3" font-family="Times,serif" font-size="14.00" fill="white">cudatoolkit ❎</text>
</a>
</g>
</g>
<!-- cudnn -->
<g id="node43" class="node">
<title>cudnn</title>
<g id="a_node43"><a xlink:href="https://github.com/conda-forge/cudnn-feedstock" xlink:title="cudnn">
<ellipse fill="#fde725" stroke="black" cx="1349.5" cy="-674" rx="39" ry="18"/>
<text text-anchor="middle" x="1349.5" y="-670.3" font-family="Times,serif" font-size="14.00">cudnn</text>
</a>
</g>
</g>
<!-- cudatoolkit&#45;&gt;cudnn -->
<g id="edge45" class="edge">
<title>cudatoolkit&#45;&gt;cudnn</title>
<path fill="none" stroke="black" d="M1391.19,-728.05C1384.4,-719.42 1376.03,-708.76 1368.57,-699.27"/>
<polygon fill="black" stroke="black" points="1371.24,-697.01 1362.31,-691.31 1365.74,-701.33 1371.24,-697.01"/>
</g>
<!-- cutensor -->
<g id="node44" class="node">
<title>cutensor</title>
<g id="a_node44"><a xlink:href="https://github.com/conda-forge/cutensor-feedstock" xlink:title="cutensor">
<ellipse fill="#fde725" stroke="black" cx="1458.5" cy="-674" rx="51.5" ry="18"/>
<text text-anchor="middle" x="1458.5" y="-670.3" font-family="Times,serif" font-size="14.00">cutensor</text>
</a>
</g>
</g>
<!-- cudatoolkit&#45;&gt;cutensor -->
<g id="edge46" class="edge">
<title>cudatoolkit&#45;&gt;cutensor</title>
<path fill="none" stroke="black" d="M1417.57,-728.05C1424.07,-719.63 1432.06,-709.28 1439.24,-699.97"/>
<polygon fill="black" stroke="black" points="1442.21,-701.84 1445.55,-691.79 1436.67,-697.57 1442.21,-701.84"/>
</g>
<!-- cudnn&#45;&gt;torchvision -->
<g id="edge47" class="edge">
<title>cudnn&#45;&gt;torchvision</title>
<path fill="none" stroke="black" d="M1367.05,-657.8C1395.81,-632.9 1453.16,-583.25 1486.93,-554.01"/>
<polygon fill="black" stroke="black" points="1489.3,-556.59 1494.57,-547.39 1484.72,-551.29 1489.3,-556.59"/>
</g>
<!-- cudnn&#45;&gt;pytorch&#45;cpu -->
<g id="edge48" class="edge">
<title>cudnn&#45;&gt;pytorch&#45;cpu</title>
<path fill="none" stroke="black" d="M1378.66,-661.91C1407.71,-650.86 1452.78,-633.71 1486.81,-620.76"/>
<polygon fill="black" stroke="black" points="1488.44,-623.89 1496.55,-617.06 1485.95,-617.34 1488.44,-623.89"/>
</g>
<!-- libspnav -->
<g id="node45" class="node">
<title>libspnav</title>
<g id="a_node45"><a xlink:href="https://github.com/conda-forge/libspnav-feedstock/pull/2" xlink:title="libspnav ❎">
<ellipse fill="#31688e" stroke="black" cx="1085.5" cy="-674" rx="63.89" ry="18"/>
<text text-anchor="middle" x="1085.5" y="-670.3" font-family="Times,serif" font-size="14.00" fill="white">libspnav ❎</text>
</a>
</g>
</g>
<!-- libspnav&#45;&gt;freecad -->
<g id="edge49" class="edge">
<title>libspnav&#45;&gt;freecad</title>
<path fill="none" stroke="black" d="M1101.1,-656.51C1117.14,-637.51 1137.54,-606.09 1120.5,-584 1102.4,-560.54 1025.05,-545.43 971.5,-537.57"/>
<polygon fill="black" stroke="black" points="971.86,-534.09 961.47,-536.14 970.87,-541.02 971.86,-534.09"/>
</g>
<!-- libv8 -->
<g id="node46" class="node">
<title>libv8</title>
<g id="a_node46"><a xlink:href="https://github.com/conda-forge/libv8-feedstock/pull/66" xlink:title="libv8 ❎">
<ellipse fill="#31688e" stroke="black" cx="2131.5" cy="-162" rx="48.19" ry="18"/>
<text text-anchor="middle" x="2131.5" y="-158.3" font-family="Times,serif" font-size="14.00" fill="white">libv8 ❎</text>
</a>
</g>
</g>
<!-- r&#45;v8 -->
<g id="node47" class="node">
<title>r&#45;v8</title>
<g id="a_node47"><a xlink:href="https://github.com/conda-forge/r-v8-feedstock" xlink:title="r v8">
<ellipse fill="#fde725" stroke="black" cx="2131.5" cy="-90" rx="29.5" ry="18"/>
<text text-anchor="middle" x="2131.5" y="-86.3" font-family="Times,serif" font-size="14.00">r v8</text>
</a>
</g>
</g>
<!-- libv8&#45;&gt;r&#45;v8 -->
<g id="edge50" class="edge">
<title>libv8&#45;&gt;r&#45;v8</title>
<path fill="none" stroke="black" d="M2131.5,-143.7C2131.5,-135.98 2131.5,-126.71 2131.5,-118.11"/>
<polygon fill="black" stroke="black" points="2135,-118.1 2131.5,-108.1 2128,-118.1 2135,-118.1"/>
</g>
<!-- jaeger -->
<g id="node49" class="node">
<title>jaeger</title>
<g id="a_node49"><a xlink:href="https://github.com/conda-forge/jaeger-feedstock/pull/12" xlink:title="jaeger ❎">
<ellipse fill="#31688e" stroke="black" cx="2131.5" cy="-494" rx="54" ry="18"/>
<text text-anchor="middle" x="2131.5" y="-490.3" font-family="Times,serif" font-size="14.00" fill="white">jaeger ❎</text>
</a>
</g>
</g>
<!-- proj&#45;&gt;jaeger -->
<!-- dm&#45;tree -->
<g id="node51" class="node">
<title>dm&#45;tree</title>
<g id="a_node51"><a xlink:href="https://github.com/conda-forge/dm-tree-feedstock/pull/4" xlink:title="dm tree ❎">
<ellipse fill="#31688e" stroke="black" cx="2131.5" cy="-422" rx="61.99" ry="18"/>
<text text-anchor="middle" x="2131.5" y="-418.3" font-family="Times,serif" font-size="14.00" fill="white">dm tree ❎</text>
</a>
</g>
</g>
<!-- jaeger&#45;&gt;dm&#45;tree -->
<!-- nccl -->
<g id="node50" class="node">
<title>nccl</title>
<g id="a_node50"><a xlink:href="https://github.com/conda-forge/nccl-feedstock/pull/51" xlink:title="nccl ✓">
<ellipse fill="#31688e" stroke="black" cx="1564.5" cy="-674" rx="36.5" ry="18"/>
<text text-anchor="middle" x="1564.5" y="-670.3" font-family="Times,serif" font-size="14.00" fill="white">nccl ✓</text>
</a>
</g>
</g>
<!-- nccl&#45;&gt;pytorch&#45;cpu -->
<g id="edge53" class="edge">
<title>nccl&#45;&gt;pytorch&#45;cpu</title>
<path fill="none" stroke="black" d="M1557,-656.05C1553.47,-648.09 1549.18,-638.41 1545.24,-629.51"/>
<polygon fill="black" stroke="black" points="1548.4,-628 1541.15,-620.28 1542,-630.84 1548.4,-628"/>
</g>
<!-- heaptrack -->
<g id="node53" class="node">
<title>heaptrack</title>
<g id="a_node53"><a xlink:href="https://github.com/conda-forge/heaptrack-feedstock/pull/2" xlink:title="heaptrack ❎">
<ellipse fill="#31688e" stroke="black" cx="2131.5" cy="-350" rx="71.5" ry="18"/>
<text text-anchor="middle" x="2131.5" y="-346.3" font-family="Times,serif" font-size="14.00" fill="white">heaptrack ❎</text>
</a>
</g>
</g>
<!-- dm&#45;tree&#45;&gt;heaptrack -->
<!-- tokenizers -->
<g id="node52" class="node">
<title>tokenizers</title>
<g id="a_node52"><a xlink:href="https://github.com/conda-forge/tokenizers-feedstock/pull/18" xlink:title="tokenizers ❎">
<ellipse fill="#31688e" stroke="black" cx="1955.5" cy="-674" rx="73.5" ry="18"/>
<text text-anchor="middle" x="1955.5" y="-670.3" font-family="Times,serif" font-size="14.00" fill="white">tokenizers ❎</text>
</a>
</g>
</g>
<!-- tokenizers&#45;&gt;allennlp -->
<g id="edge56" class="edge">
<title>tokenizers&#45;&gt;allennlp</title>
<path fill="none" stroke="black" d="M1955.38,-655.75C1954.44,-636.61 1950.48,-605.61 1935.5,-584 1883.84,-509.47 1776.85,-478.74 1711.41,-466.55"/>
<polygon fill="black" stroke="black" points="1711.74,-463.05 1701.28,-464.75 1710.51,-469.95 1711.74,-463.05"/>
</g>
<!-- bazel&#45;toolchain -->
<g id="node54" class="node">
<title>bazel&#45;toolchain</title>
<g id="a_node54"><a xlink:href="https://github.com/conda-forge/bazel-toolchain-feedstock/pull/3" xlink:title="bazel toolchain ❎">
<ellipse fill="#31688e" stroke="black" cx="2131.5" cy="-278" rx="95" ry="18"/>
<text text-anchor="middle" x="2131.5" y="-274.3" font-family="Times,serif" font-size="14.00" fill="white">bazel toolchain ❎</text>
</a>
</g>
</g>
<!-- heaptrack&#45;&gt;bazel&#45;toolchain -->
<!-- magma -->
<g id="node55" class="node">
<title>magma</title>
<g id="a_node55"><a xlink:href="https://github.com/conda-forge/magma-feedstock/pull/9" xlink:title="magma ✓">
<ellipse fill="#31688e" stroke="black" cx="1629.5" cy="-746" rx="52" ry="18"/>
<text text-anchor="middle" x="1629.5" y="-742.3" font-family="Times,serif" font-size="14.00" fill="white">magma ✓</text>
</a>
</g>
</g>
<!-- magma&#45;&gt;pytorch&#45;cpu -->
<g id="edge59" class="edge">
<title>magma&#45;&gt;pytorch&#45;cpu</title>
<path fill="none" stroke="black" d="M1629.26,-727.83C1628.22,-708.77 1624.16,-677.82 1609.5,-656 1600.52,-642.64 1586.95,-631.62 1573.75,-623.16"/>
<polygon fill="black" stroke="black" points="1575.54,-620.16 1565.18,-617.97 1571.92,-626.14 1575.54,-620.16"/>
</g>
</g>
</svg>
