<?xml version="1.0" encoding="UTF-8" standalone="no"?>
<!DOCTYPE svg PUBLIC "-//W3C//DTD SVG 1.1//EN"
 "http://www.w3.org/Graphics/SVG/1.1/DTD/svg11.dtd">
<!-- Generated by graphviz version 2.42.3 (20191010.1750)
 -->
<!-- Title: %3 Pages: 1 -->
<svg width="1669pt" height="1184pt"
 viewBox="0.00 0.00 1669.15 1184.00" xmlns="http://www.w3.org/2000/svg" xmlns:xlink="http://www.w3.org/1999/xlink">
<g id="graph0" class="graph" transform="scale(1 1) rotate(0) translate(4 1180)">
<title>%3</title>
<polygon fill="white" stroke="transparent" points="-4,4 -4,-1180 1665.15,-1180 1665.15,4 -4,4"/>
<!-- aiohttp -->
<g id="node1" class="node">
<title>aiohttp</title>
<g id="a_node1"><a xlink:href="https://github.com/conda-forge/aiohttp-feedstock" xlink:title="aiohttp">
<ellipse fill="#fde725" stroke="black" cx="1178.5" cy="-250" rx="35.19" ry="18"/>
<text text-anchor="middle" x="1178.5" y="-246.3" font-family="Times,serif" font-size="14.00">aiohttp</text>
</a>
</g>
</g>
<!-- astropy&#45;healpix -->
<g id="node2" class="node">
<title>astropy&#45;healpix</title>
<g id="a_node2"><a xlink:href="https://github.com/conda-forge/astropy-healpix-feedstock/pull/15" xlink:title="astropy healpix ❎">
<ellipse fill="#31688e" stroke="black" cx="1457.5" cy="-358" rx="76.89" ry="18"/>
<text text-anchor="middle" x="1457.5" y="-354.3" font-family="Times,serif" font-size="14.00" fill="white">astropy healpix ❎</text>
</a>
</g>
</g>
<!-- reproject -->
<g id="node3" class="node">
<title>reproject</title>
<g id="a_node3"><a xlink:href="https://github.com/conda-forge/reproject-feedstock" xlink:title="reproject">
<ellipse fill="#fde725" stroke="black" cx="1457.5" cy="-286" rx="42.49" ry="18"/>
<text text-anchor="middle" x="1457.5" y="-282.3" font-family="Times,serif" font-size="14.00">reproject</text>
</a>
</g>
</g>
<!-- astropy&#45;healpix&#45;&gt;reproject -->
<g id="edge1" class="edge">
<title>astropy&#45;healpix&#45;&gt;reproject</title>
<path fill="none" stroke="black" d="M1457.5,-339.7C1457.5,-331.98 1457.5,-322.71 1457.5,-314.11"/>
<polygon fill="black" stroke="black" points="1461,-314.1 1457.5,-304.1 1454,-314.1 1461,-314.1"/>
</g>
<!-- astroscrappy -->
<g id="node4" class="node">
<title>astroscrappy</title>
<g id="a_node4"><a xlink:href="https://github.com/conda-forge/astroscrappy-feedstock/pull/11" xlink:title="astroscrappy ❎">
<ellipse fill="#31688e" stroke="black" cx="1179.5" cy="-1158" rx="67" ry="18"/>
<text text-anchor="middle" x="1179.5" y="-1154.3" font-family="Times,serif" font-size="14.00" fill="white">astroscrappy ❎</text>
</a>
</g>
</g>
<!-- yt -->
<g id="node5" class="node">
<title>yt</title>
<g id="a_node5"><a xlink:href="https://github.com/conda-forge/yt-feedstock/pull/43" xlink:title="yt ❎">
<ellipse fill="#31688e" stroke="black" cx="1179.5" cy="-1086" rx="29.5" ry="18"/>
<text text-anchor="middle" x="1179.5" y="-1082.3" font-family="Times,serif" font-size="14.00" fill="white">yt ❎</text>
</a>
</g>
</g>
<!-- astroscrappy&#45;&gt;yt -->
<!-- pypy2.7 -->
<g id="node39" class="node">
<title>pypy2.7</title>
<g id="a_node39"><a xlink:href="https://github.com/conda-forge/pypy2.7-feedstock/pull/3" xlink:title="pypy2 7 ❎">
<ellipse fill="#31688e" stroke="black" cx="1179.5" cy="-1014" rx="51.5" ry="18"/>
<text text-anchor="middle" x="1179.5" y="-1010.3" font-family="Times,serif" font-size="14.00" fill="white">pypy2 7 ❎</text>
</a>
</g>
</g>
<!-- yt&#45;&gt;pypy2.7 -->
<!-- freexl -->
<g id="node6" class="node">
<title>freexl</title>
<g id="a_node6"><a xlink:href="https://github.com/conda-forge/freexl-feedstock/pull/22" xlink:title="freexl ✓">
<ellipse fill="#31688e" stroke="black" cx="1296.5" cy="-942" rx="41.69" ry="18"/>
<text text-anchor="middle" x="1296.5" y="-938.3" font-family="Times,serif" font-size="14.00" fill="white">freexl ✓</text>
</a>
</g>
</g>
<!-- gdal -->
<g id="node7" class="node">
<title>gdal</title>
<g id="a_node7"><a xlink:href="https://github.com/conda-forge/gdal-feedstock" xlink:title="gdal">
<ellipse fill="#fde725" stroke="black" cx="1425.5" cy="-798" rx="27" ry="18"/>
<text text-anchor="middle" x="1425.5" y="-794.3" font-family="Times,serif" font-size="14.00">gdal</text>
</a>
</g>
</g>
<!-- freexl&#45;&gt;gdal -->
<g id="edge3" class="edge">
<title>freexl&#45;&gt;gdal</title>
<path fill="none" stroke="black" d="M1287.94,-924.31C1279.42,-905.13 1269.59,-873.53 1284.5,-852 1307.67,-818.53 1354.79,-806.17 1388.17,-801.62"/>
<polygon fill="black" stroke="black" points="1388.96,-805.05 1398.48,-800.4 1388.14,-798.1 1388.96,-805.05"/>
</g>
<!-- libspatialite -->
<g id="node8" class="node">
<title>libspatialite</title>
<g id="a_node8"><a xlink:href="https://github.com/conda-forge/libspatialite-feedstock" xlink:title="libspatialite">
<ellipse fill="#fde725" stroke="black" cx="1345.5" cy="-870" rx="52" ry="18"/>
<text text-anchor="middle" x="1345.5" y="-866.3" font-family="Times,serif" font-size="14.00">libspatialite</text>
</a>
</g>
</g>
<!-- freexl&#45;&gt;libspatialite -->
<g id="edge4" class="edge">
<title>freexl&#45;&gt;libspatialite</title>
<path fill="none" stroke="black" d="M1308.11,-924.41C1314.01,-915.99 1321.29,-905.58 1327.86,-896.2"/>
<polygon fill="black" stroke="black" points="1330.76,-898.16 1333.63,-887.96 1325.03,-894.14 1330.76,-898.16"/>
</g>
<!-- kealib -->
<g id="node9" class="node">
<title>kealib</title>
<g id="a_node9"><a xlink:href="https://github.com/conda-forge/kealib-feedstock" xlink:title="kealib">
<ellipse fill="#fde725" stroke="black" cx="1425.5" cy="-726" rx="32.5" ry="18"/>
<text text-anchor="middle" x="1425.5" y="-722.3" font-family="Times,serif" font-size="14.00">kealib</text>
</a>
</g>
</g>
<!-- gdal&#45;&gt;kealib -->
<g id="edge5" class="edge">
<title>gdal&#45;&gt;kealib</title>
<path fill="none" stroke="black" d="M1419.66,-780.41C1418.8,-772.51 1418.55,-762.85 1418.91,-753.94"/>
<polygon fill="black" stroke="black" points="1422.4,-754.18 1419.62,-743.96 1415.42,-753.68 1422.4,-754.18"/>
</g>
<!-- r&#45;sf -->
<g id="node10" class="node">
<title>r&#45;sf</title>
<g id="a_node10"><a xlink:href="https://github.com/conda-forge/r-sf-feedstock" xlink:title="r sf">
<ellipse fill="#fde725" stroke="black" cx="1555.5" cy="-726" rx="27" ry="18"/>
<text text-anchor="middle" x="1555.5" y="-722.3" font-family="Times,serif" font-size="14.00">r sf</text>
</a>
</g>
</g>
<!-- gdal&#45;&gt;r&#45;sf -->
<g id="edge6" class="edge">
<title>gdal&#45;&gt;r&#45;sf</title>
<path fill="none" stroke="black" d="M1445.81,-786.06C1467.34,-774.47 1501.55,-756.05 1526.04,-742.86"/>
<polygon fill="black" stroke="black" points="1527.76,-745.91 1534.9,-738.09 1524.44,-739.75 1527.76,-745.91"/>
</g>
<!-- libspatialite&#45;&gt;gdal -->
<g id="edge7" class="edge">
<title>libspatialite&#45;&gt;gdal</title>
<path fill="none" stroke="black" d="M1363.65,-853.12C1375.07,-843.12 1389.92,-830.13 1402.21,-819.38"/>
<polygon fill="black" stroke="black" points="1404.63,-821.91 1409.85,-812.7 1400.02,-816.65 1404.63,-821.91"/>
</g>
<!-- kealib&#45;&gt;gdal -->
<g id="edge8" class="edge">
<title>kealib&#45;&gt;gdal</title>
<path fill="none" stroke="black" d="M1431.38,-743.96C1432.21,-751.83 1432.45,-761.37 1432.08,-770.19"/>
<polygon fill="black" stroke="black" points="1428.57,-770.18 1431.34,-780.41 1435.56,-770.69 1428.57,-770.18"/>
</g>
<!-- r&#45;spdep -->
<g id="node11" class="node">
<title>r&#45;spdep</title>
<g id="a_node11"><a xlink:href="https://github.com/conda-forge/r-spdep-feedstock" xlink:title="r spdep">
<ellipse fill="#fde725" stroke="black" cx="1555.5" cy="-654" rx="36.5" ry="18"/>
<text text-anchor="middle" x="1555.5" y="-650.3" font-family="Times,serif" font-size="14.00">r spdep</text>
</a>
</g>
</g>
<!-- r&#45;sf&#45;&gt;r&#45;spdep -->
<g id="edge9" class="edge">
<title>r&#45;sf&#45;&gt;r&#45;spdep</title>
<path fill="none" stroke="black" d="M1555.5,-707.7C1555.5,-699.98 1555.5,-690.71 1555.5,-682.11"/>
<polygon fill="black" stroke="black" points="1559,-682.1 1555.5,-672.1 1552,-682.1 1559,-682.1"/>
</g>
<!-- geos -->
<g id="node12" class="node">
<title>geos</title>
<g id="a_node12"><a xlink:href="https://github.com/conda-forge/geos-feedstock/pull/47" xlink:title="geos ❎">
<ellipse fill="#31688e" stroke="black" cx="1409.5" cy="-942" rx="38.5" ry="18"/>
<text text-anchor="middle" x="1409.5" y="-938.3" font-family="Times,serif" font-size="14.00" fill="white">geos ❎</text>
</a>
</g>
</g>
<!-- geos&#45;&gt;gdal -->
<g id="edge10" class="edge">
<title>geos&#45;&gt;gdal</title>
<path fill="none" stroke="black" d="M1411.43,-923.87C1414.16,-899.67 1419.17,-855.21 1422.41,-826.39"/>
<polygon fill="black" stroke="black" points="1425.92,-826.52 1423.56,-816.19 1418.97,-825.73 1425.92,-826.52"/>
</g>
<!-- geos&#45;&gt;libspatialite -->
<g id="edge11" class="edge">
<title>geos&#45;&gt;libspatialite</title>
<path fill="none" stroke="black" d="M1394.98,-925.12C1386.83,-916.2 1376.5,-904.91 1367.39,-894.94"/>
<polygon fill="black" stroke="black" points="1369.74,-892.33 1360.41,-887.31 1364.57,-897.05 1369.74,-892.33"/>
</g>
<!-- glibmm -->
<g id="node13" class="node">
<title>glibmm</title>
<g id="a_node13"><a xlink:href="https://github.com/conda-forge/glibmm-feedstock/pull/14" xlink:title="glibmm ❎">
<ellipse fill="#31688e" stroke="black" cx="552.5" cy="-206" rx="50.89" ry="18"/>
<text text-anchor="middle" x="552.5" y="-202.3" font-family="Times,serif" font-size="14.00" fill="white">glibmm ❎</text>
</a>
</g>
</g>
<!-- nordugrid&#45;arc -->
<g id="node14" class="node">
<title>nordugrid&#45;arc</title>
<g id="a_node14"><a xlink:href="https://github.com/conda-forge/nordugrid-arc-feedstock" xlink:title="nordugrid arc">
<ellipse fill="#fde725" stroke="black" cx="552.5" cy="-134" rx="58.5" ry="18"/>
<text text-anchor="middle" x="552.5" y="-130.3" font-family="Times,serif" font-size="14.00">nordugrid arc</text>
</a>
</g>
</g>
<!-- glibmm&#45;&gt;nordugrid&#45;arc -->
<g id="edge12" class="edge">
<title>glibmm&#45;&gt;nordugrid&#45;arc</title>
<path fill="none" stroke="black" d="M552.5,-187.7C552.5,-179.98 552.5,-170.71 552.5,-162.11"/>
<polygon fill="black" stroke="black" points="556,-162.1 552.5,-152.1 549,-162.1 556,-162.1"/>
</g>
<!-- mono -->
<g id="node15" class="node">
<title>mono</title>
<g id="a_node15"><a xlink:href="https://github.com/conda-forge/mono-feedstock/pull/18" xlink:title="mono ❎">
<ellipse fill="#31688e" stroke="black" cx="552.5" cy="-90" rx="43" ry="18"/>
<text text-anchor="middle" x="552.5" y="-86.3" font-family="Times,serif" font-size="14.00" fill="white">mono ❎</text>
</a>
</g>
</g>
<!-- ogre -->
<g id="node16" class="node">
<title>ogre</title>
<g id="a_node16"><a xlink:href="https://github.com/conda-forge/ogre-feedstock" xlink:title="ogre">
<ellipse fill="#fde725" stroke="black" cx="552.5" cy="-18" rx="27" ry="18"/>
<text text-anchor="middle" x="552.5" y="-14.3" font-family="Times,serif" font-size="14.00">ogre</text>
</a>
</g>
</g>
<!-- mono&#45;&gt;ogre -->
<g id="edge13" class="edge">
<title>mono&#45;&gt;ogre</title>
<path fill="none" stroke="black" d="M552.5,-71.7C552.5,-63.98 552.5,-54.71 552.5,-46.11"/>
<polygon fill="black" stroke="black" points="556,-46.1 552.5,-36.1 549,-46.1 556,-46.1"/>
</g>
<!-- multidict -->
<g id="node17" class="node">
<title>multidict</title>
<g id="a_node17"><a xlink:href="https://github.com/conda-forge/multidict-feedstock/pull/29" xlink:title="multidict ✓">
<ellipse fill="#31688e" stroke="black" cx="1178.5" cy="-394" rx="53.5" ry="18"/>
<text text-anchor="middle" x="1178.5" y="-390.3" font-family="Times,serif" font-size="14.00" fill="white">multidict ✓</text>
</a>
</g>
</g>
<!-- multidict&#45;&gt;aiohttp -->
<g id="edge14" class="edge">
<title>multidict&#45;&gt;aiohttp</title>
<path fill="none" stroke="black" d="M1175.25,-375.89C1173.45,-365.54 1171.41,-352.06 1170.5,-340 1169.3,-324.04 1169.3,-319.96 1170.5,-304 1171.14,-295.52 1172.34,-286.34 1173.62,-278.04"/>
<polygon fill="black" stroke="black" points="1177.08,-278.55 1175.25,-268.11 1170.18,-277.41 1177.08,-278.55"/>
</g>
<!-- yarl -->
<g id="node18" class="node">
<title>yarl</title>
<g id="a_node18"><a xlink:href="https://github.com/conda-forge/yarl-feedstock" xlink:title="yarl">
<ellipse fill="#fde725" stroke="black" cx="1206.5" cy="-322" rx="27" ry="18"/>
<text text-anchor="middle" x="1206.5" y="-318.3" font-family="Times,serif" font-size="14.00">yarl</text>
</a>
</g>
</g>
<!-- multidict&#45;&gt;yarl -->
<g id="edge15" class="edge">
<title>multidict&#45;&gt;yarl</title>
<path fill="none" stroke="black" d="M1185.28,-376.05C1188.51,-367.97 1192.45,-358.12 1196.06,-349.11"/>
<polygon fill="black" stroke="black" points="1199.32,-350.37 1199.78,-339.79 1192.82,-347.77 1199.32,-350.37"/>
</g>
<!-- yarl&#45;&gt;aiohttp -->
<g id="edge16" class="edge">
<title>yarl&#45;&gt;aiohttp</title>
<path fill="none" stroke="black" d="M1199.86,-304.41C1196.63,-296.34 1192.67,-286.43 1189.04,-277.35"/>
<polygon fill="black" stroke="black" points="1192.25,-275.94 1185.28,-267.96 1185.75,-278.54 1192.25,-275.94"/>
</g>
<!-- nbgrader -->
<g id="node19" class="node">
<title>nbgrader</title>
<g id="a_node19"><a xlink:href="https://github.com/conda-forge/nbgrader-feedstock" xlink:title="nbgrader">
<ellipse fill="#fde725" stroke="black" cx="499.5" cy="-762" rx="42.49" ry="18"/>
<text text-anchor="middle" x="499.5" y="-758.3" font-family="Times,serif" font-size="14.00">nbgrader</text>
</a>
</g>
</g>
<!-- nltk_data -->
<g id="node20" class="node">
<title>nltk_data</title>
<g id="a_node20"><a xlink:href="https://github.com/conda-forge/nltk_data-feedstock/pull/5" xlink:title="nltk_data ❎">
<ellipse fill="#31688e" stroke="black" cx="144.5" cy="-834" rx="55.49" ry="18"/>
<text text-anchor="middle" x="144.5" y="-830.3" font-family="Times,serif" font-size="14.00" fill="white">nltk_data ❎</text>
</a>
</g>
</g>
<!-- allennlp -->
<g id="node21" class="node">
<title>allennlp</title>
<g id="a_node21"><a xlink:href="https://github.com/conda-forge/allennlp-feedstock" xlink:title="allennlp">
<ellipse fill="#fde725" stroke="black" cx="227.5" cy="-762" rx="39" ry="18"/>
<text text-anchor="middle" x="227.5" y="-758.3" font-family="Times,serif" font-size="14.00">allennlp</text>
</a>
</g>
</g>
<!-- nltk_data&#45;&gt;allennlp -->
<g id="edge17" class="edge">
<title>nltk_data&#45;&gt;allennlp</title>
<path fill="none" stroke="black" d="M163.75,-816.76C175.06,-807.22 189.51,-795.04 201.79,-784.68"/>
<polygon fill="black" stroke="black" points="204.1,-787.31 209.49,-778.19 199.59,-781.96 204.1,-787.31"/>
</g>
<!-- opencv -->
<g id="node22" class="node">
<title>opencv</title>
<g id="a_node22"><a xlink:href="https://github.com/conda-forge/opencv-feedstock" xlink:title="opencv">
<ellipse fill="#fde725" stroke="black" cx="591.5" cy="-834" rx="36.5" ry="18"/>
<text text-anchor="middle" x="591.5" y="-830.3" font-family="Times,serif" font-size="14.00">opencv</text>
</a>
</g>
</g>
<!-- pyqt -->
<g id="node23" class="node">
<title>pyqt</title>
<g id="a_node23"><a xlink:href="https://github.com/conda-forge/pyqt-feedstock" xlink:title="pyqt">
<ellipse fill="#fde725" stroke="black" cx="501.5" cy="-834" rx="27" ry="18"/>
<text text-anchor="middle" x="501.5" y="-830.3" font-family="Times,serif" font-size="14.00">pyqt</text>
</a>
</g>
</g>
<!-- pyqt&#45;&gt;nbgrader -->
<g id="edge18" class="edge">
<title>pyqt&#45;&gt;nbgrader</title>
<path fill="none" stroke="black" d="M501.01,-815.7C500.79,-807.98 500.52,-798.71 500.27,-790.11"/>
<polygon fill="black" stroke="black" points="503.77,-790 499.99,-780.1 496.78,-790.2 503.77,-790"/>
</g>
<!-- pyqt&#45;&gt;allennlp -->
<g id="edge19" class="edge">
<title>pyqt&#45;&gt;allennlp</title>
<path fill="none" stroke="black" d="M476.7,-826.66C430.1,-814.76 328.93,-788.91 270.84,-774.07"/>
<polygon fill="black" stroke="black" points="271.42,-770.61 260.87,-771.52 269.69,-777.39 271.42,-770.61"/>
</g>
<!-- pythonocc&#45;core -->
<g id="node24" class="node">
<title>pythonocc&#45;core</title>
<g id="a_node24"><a xlink:href="https://github.com/conda-forge/pythonocc-core-feedstock" xlink:title="pythonocc core">
<ellipse fill="#fde725" stroke="black" cx="624.5" cy="-762" rx="65" ry="18"/>
<text text-anchor="middle" x="624.5" y="-758.3" font-family="Times,serif" font-size="14.00">pythonocc core</text>
</a>
</g>
</g>
<!-- pyqt&#45;&gt;pythonocc&#45;core -->
<g id="edge20" class="edge">
<title>pyqt&#45;&gt;pythonocc&#45;core</title>
<path fill="none" stroke="black" d="M521.54,-821.6C539.52,-811.36 566.37,-796.08 588.14,-783.69"/>
<polygon fill="black" stroke="black" points="590.16,-786.57 597.12,-778.58 586.7,-780.49 590.16,-786.57"/>
</g>
<!-- qt -->
<g id="node25" class="node">
<title>qt</title>
<g id="a_node25"><a xlink:href="https://github.com/conda-forge/qt-feedstock/pull/168" xlink:title="qt ❎">
<ellipse fill="#31688e" stroke="black" cx="661.5" cy="-906" rx="29.5" ry="18"/>
<text text-anchor="middle" x="661.5" y="-902.3" font-family="Times,serif" font-size="14.00" fill="white">qt ❎</text>
</a>
</g>
</g>
<!-- qt&#45;&gt;opencv -->
<g id="edge21" class="edge">
<title>qt&#45;&gt;opencv</title>
<path fill="none" stroke="black" d="M646.65,-890.15C637.35,-880.85 625.17,-868.67 614.62,-858.12"/>
<polygon fill="black" stroke="black" points="616.84,-855.39 607.3,-850.8 611.89,-860.34 616.84,-855.39"/>
</g>
<!-- qt&#45;&gt;pyqt -->
<g id="edge22" class="edge">
<title>qt&#45;&gt;pyqt</title>
<path fill="none" stroke="black" d="M638.23,-894.82C610.47,-882.67 563.93,-862.31 532.97,-848.77"/>
<polygon fill="black" stroke="black" points="534.07,-845.43 523.51,-844.63 531.27,-851.84 534.07,-845.43"/>
</g>
<!-- pivy -->
<g id="node26" class="node">
<title>pivy</title>
<g id="a_node26"><a xlink:href="https://github.com/conda-forge/pivy-feedstock" xlink:title="pivy">
<ellipse fill="#fde725" stroke="black" cx="789.5" cy="-690" rx="27" ry="18"/>
<text text-anchor="middle" x="789.5" y="-686.3" font-family="Times,serif" font-size="14.00">pivy</text>
</a>
</g>
</g>
<!-- qt&#45;&gt;pivy -->
<g id="edge23" class="edge">
<title>qt&#45;&gt;pivy</title>
<path fill="none" stroke="black" d="M681.72,-892.7C696.52,-882.98 716.4,-868.36 730.5,-852 754.4,-824.27 757.65,-814.28 770.5,-780 778.02,-759.94 782.91,-736.15 785.84,-718.22"/>
<polygon fill="black" stroke="black" points="789.32,-718.57 787.38,-708.16 782.41,-717.51 789.32,-718.57"/>
</g>
<!-- pyside2 -->
<g id="node27" class="node">
<title>pyside2</title>
<g id="a_node27"><a xlink:href="https://github.com/conda-forge/pyside2-feedstock" xlink:title="pyside2">
<ellipse fill="#fde725" stroke="black" cx="856.5" cy="-834" rx="38.5" ry="18"/>
<text text-anchor="middle" x="856.5" y="-830.3" font-family="Times,serif" font-size="14.00">pyside2</text>
</a>
</g>
</g>
<!-- qt&#45;&gt;pyside2 -->
<g id="edge24" class="edge">
<title>qt&#45;&gt;pyside2</title>
<path fill="none" stroke="black" d="M686.2,-896.13C719.26,-884.26 778.29,-863.08 817.42,-849.03"/>
<polygon fill="black" stroke="black" points="818.68,-852.29 826.91,-845.62 816.32,-845.71 818.68,-852.29"/>
</g>
<!-- soqt -->
<g id="node28" class="node">
<title>soqt</title>
<g id="a_node28"><a xlink:href="https://github.com/conda-forge/soqt-feedstock" xlink:title="soqt">
<ellipse fill="#fde725" stroke="black" cx="734.5" cy="-762" rx="27" ry="18"/>
<text text-anchor="middle" x="734.5" y="-758.3" font-family="Times,serif" font-size="14.00">soqt</text>
</a>
</g>
</g>
<!-- qt&#45;&gt;soqt -->
<g id="edge25" class="edge">
<title>qt&#45;&gt;soqt</title>
<path fill="none" stroke="black" d="M677.87,-890.72C688.3,-880.81 701.33,-866.78 709.5,-852 720.21,-832.63 726.63,-808.29 730.28,-789.97"/>
<polygon fill="black" stroke="black" points="733.76,-790.42 732.12,-779.96 726.87,-789.16 733.76,-790.42"/>
</g>
<!-- geant4 -->
<g id="node29" class="node">
<title>geant4</title>
<g id="a_node29"><a xlink:href="https://github.com/conda-forge/geant4-feedstock" xlink:title="geant4">
<ellipse fill="#fde725" stroke="black" cx="429.5" cy="-690" rx="34.5" ry="18"/>
<text text-anchor="middle" x="429.5" y="-686.3" font-family="Times,serif" font-size="14.00">geant4</text>
</a>
</g>
</g>
<!-- qt&#45;&gt;geant4 -->
<g id="edge26" class="edge">
<title>qt&#45;&gt;geant4</title>
<path fill="none" stroke="black" d="M631.96,-905.82C589.04,-905.31 509.76,-897.71 465.5,-852 430.56,-815.92 426.6,-753.72 427.57,-718.12"/>
<polygon fill="black" stroke="black" points="431.07,-718.12 428,-707.98 424.07,-717.83 431.07,-718.12"/>
</g>
<!-- pyside2&#45;&gt;pivy -->
<g id="edge27" class="edge">
<title>pyside2&#45;&gt;pivy</title>
<path fill="none" stroke="black" d="M848.55,-816.15C836.9,-791.47 815.11,-745.28 801.51,-716.44"/>
<polygon fill="black" stroke="black" points="804.66,-714.94 797.23,-707.39 798.33,-717.92 804.66,-714.94"/>
</g>
<!-- cctbx&#45;base -->
<g id="node30" class="node">
<title>cctbx&#45;base</title>
<g id="a_node30"><a xlink:href="https://github.com/conda-forge/cctbx-base-feedstock" xlink:title="cctbx base">
<ellipse fill="#fde725" stroke="black" cx="971.5" cy="-762" rx="48.19" ry="18"/>
<text text-anchor="middle" x="971.5" y="-758.3" font-family="Times,serif" font-size="14.00">cctbx base</text>
</a>
</g>
</g>
<!-- pyside2&#45;&gt;cctbx&#45;base -->
<g id="edge28" class="edge">
<title>pyside2&#45;&gt;cctbx&#45;base</title>
<path fill="none" stroke="black" d="M878.95,-819.34C895.87,-809.03 919.36,-794.74 938.43,-783.13"/>
<polygon fill="black" stroke="black" points="940.4,-786.03 947.12,-777.84 936.76,-780.05 940.4,-786.03"/>
</g>
<!-- soqt&#45;&gt;pivy -->
<g id="edge29" class="edge">
<title>soqt&#45;&gt;pivy</title>
<path fill="none" stroke="black" d="M746.43,-745.81C753.71,-736.55 763.16,-724.52 771.35,-714.09"/>
<polygon fill="black" stroke="black" points="774.16,-716.18 777.59,-706.16 768.66,-711.86 774.16,-716.18"/>
</g>
<!-- r&#45;units -->
<g id="node31" class="node">
<title>r&#45;units</title>
<g id="a_node31"><a xlink:href="https://github.com/conda-forge/r-units-feedstock" xlink:title="r units">
<ellipse fill="#fde725" stroke="black" cx="1581.5" cy="-798" rx="33.29" ry="18"/>
<text text-anchor="middle" x="1581.5" y="-794.3" font-family="Times,serif" font-size="14.00">r units</text>
</a>
</g>
</g>
<!-- r&#45;units&#45;&gt;r&#45;sf -->
<g id="edge30" class="edge">
<title>r&#45;units&#45;&gt;r&#45;sf</title>
<path fill="none" stroke="black" d="M1575.21,-780.05C1572.24,-772.06 1568.62,-762.33 1565.31,-753.4"/>
<polygon fill="black" stroke="black" points="1568.5,-751.94 1561.74,-743.79 1561.94,-754.38 1568.5,-751.94"/>
</g>
<!-- sagelib -->
<g id="node32" class="node">
<title>sagelib</title>
<g id="a_node32"><a xlink:href="https://github.com/conda-forge/sagelib-feedstock/pull/100" xlink:title="sagelib ❎">
<ellipse fill="#31688e" stroke="black" cx="1457.5" cy="-206" rx="47.5" ry="18"/>
<text text-anchor="middle" x="1457.5" y="-202.3" font-family="Times,serif" font-size="14.00" fill="white">sagelib ❎</text>
</a>
</g>
</g>
<!-- sage -->
<g id="node33" class="node">
<title>sage</title>
<g id="a_node33"><a xlink:href="https://github.com/conda-forge/sage-feedstock" xlink:title="sage">
<ellipse fill="#fde725" stroke="black" cx="1457.5" cy="-134" rx="27" ry="18"/>
<text text-anchor="middle" x="1457.5" y="-130.3" font-family="Times,serif" font-size="14.00">sage</text>
</a>
</g>
</g>
<!-- sagelib&#45;&gt;sage -->
<g id="edge31" class="edge">
<title>sagelib&#45;&gt;sage</title>
<path fill="none" stroke="black" d="M1457.5,-187.7C1457.5,-179.98 1457.5,-170.71 1457.5,-162.11"/>
<polygon fill="black" stroke="black" points="1461,-162.1 1457.5,-152.1 1454,-162.1 1461,-162.1"/>
</g>
<!-- singularity -->
<g id="node34" class="node">
<title>singularity</title>
<g id="a_node34"><a xlink:href="https://github.com/conda-forge/singularity-feedstock" xlink:title="singularity">
<ellipse fill="#fde725" stroke="black" cx="564.5" cy="-250" rx="48.19" ry="18"/>
<text text-anchor="middle" x="564.5" y="-246.3" font-family="Times,serif" font-size="14.00">singularity</text>
</a>
</g>
</g>
<!-- spacy -->
<g id="node35" class="node">
<title>spacy</title>
<g id="a_node35"><a xlink:href="https://github.com/conda-forge/spacy-feedstock" xlink:title="spacy">
<ellipse fill="#fde725" stroke="black" cx="40.5" cy="-834" rx="30.59" ry="18"/>
<text text-anchor="middle" x="40.5" y="-830.3" font-family="Times,serif" font-size="14.00">spacy</text>
</a>
</g>
</g>
<!-- spacy&#45;&gt;allennlp -->
<g id="edge32" class="edge">
<title>spacy&#45;&gt;allennlp</title>
<path fill="none" stroke="black" d="M64.52,-822.53C69.77,-820.32 75.3,-818.04 80.5,-816 116.46,-801.89 157.9,-787.08 187.6,-776.71"/>
<polygon fill="black" stroke="black" points="188.9,-779.96 197.19,-773.37 186.6,-773.35 188.9,-779.96"/>
</g>
<!-- thinc -->
<g id="node36" class="node">
<title>thinc</title>
<g id="a_node36"><a xlink:href="https://github.com/conda-forge/thinc-feedstock/pull/52" xlink:title="thinc ❎">
<ellipse fill="#31688e" stroke="black" cx="40.5" cy="-906" rx="40.5" ry="18"/>
<text text-anchor="middle" x="40.5" y="-902.3" font-family="Times,serif" font-size="14.00" fill="white">thinc ❎</text>
</a>
</g>
</g>
<!-- thinc&#45;&gt;spacy -->
<g id="edge33" class="edge">
<title>thinc&#45;&gt;spacy</title>
<path fill="none" stroke="black" d="M40.5,-887.7C40.5,-879.98 40.5,-870.71 40.5,-862.11"/>
<polygon fill="black" stroke="black" points="44,-862.1 40.5,-852.1 37,-862.1 44,-862.1"/>
</g>
<!-- udunits2 -->
<g id="node37" class="node">
<title>udunits2</title>
<g id="a_node37"><a xlink:href="https://github.com/conda-forge/udunits2-feedstock/pull/32" xlink:title="udunits2 ❎">
<ellipse fill="#31688e" stroke="black" cx="1608.5" cy="-870" rx="52.79" ry="18"/>
<text text-anchor="middle" x="1608.5" y="-866.3" font-family="Times,serif" font-size="14.00" fill="white">udunits2 ❎</text>
</a>
</g>
</g>
<!-- udunits2&#45;&gt;r&#45;units -->
<g id="edge34" class="edge">
<title>udunits2&#45;&gt;r&#45;units</title>
<path fill="none" stroke="black" d="M1601.96,-852.05C1598.88,-844.06 1595.13,-834.33 1591.68,-825.4"/>
<polygon fill="black" stroke="black" points="1594.84,-823.86 1587.98,-815.79 1588.31,-826.38 1594.84,-823.86"/>
</g>
<!-- wxpython -->
<g id="node38" class="node">
<title>wxpython</title>
<g id="a_node38"><a xlink:href="https://github.com/conda-forge/wxpython-feedstock/pull/50" xlink:title="wxpython ❎">
<ellipse fill="#31688e" stroke="black" cx="971.5" cy="-834" rx="58" ry="18"/>
<text text-anchor="middle" x="971.5" y="-830.3" font-family="Times,serif" font-size="14.00" fill="white">wxpython ❎</text>
</a>
</g>
</g>
<!-- wxpython&#45;&gt;cctbx&#45;base -->
<g id="edge35" class="edge">
<title>wxpython&#45;&gt;cctbx&#45;base</title>
<path fill="none" stroke="black" d="M971.5,-815.7C971.5,-807.98 971.5,-798.71 971.5,-790.11"/>
<polygon fill="black" stroke="black" points="975,-790.1 971.5,-780.1 968,-790.1 975,-790.1"/>
</g>
<!-- freeglut -->
<g id="node40" class="node">
<title>freeglut</title>
<g id="a_node40"><a xlink:href="https://github.com/conda-forge/freeglut-feedstock/pull/22" xlink:title="freeglut ❎">
<ellipse fill="#31688e" stroke="black" cx="1179.5" cy="-942" rx="50.09" ry="18"/>
<text text-anchor="middle" x="1179.5" y="-938.3" font-family="Times,serif" font-size="14.00" fill="white">freeglut ❎</text>
</a>
</g>
</g>
<!-- pypy2.7&#45;&gt;freeglut -->
<!-- radical.utils -->
<g id="node43" class="node">
<title>radical.utils</title>
<g id="a_node43"><a xlink:href="https://github.com/conda-forge/radical.utils-feedstock/pull/41" xlink:title="radical utils ❎">
<ellipse fill="#31688e" stroke="black" cx="1179.5" cy="-870" rx="63.89" ry="18"/>
<text text-anchor="middle" x="1179.5" y="-866.3" font-family="Times,serif" font-size="14.00" fill="white">radical utils ❎</text>
</a>
</g>
</g>
<!-- freeglut&#45;&gt;radical.utils -->
<!-- tiledb -->
<g id="node41" class="node">
<title>tiledb</title>
<g id="a_node41"><a xlink:href="https://github.com/conda-forge/tiledb-feedstock/pull/80" xlink:title="tiledb ❎">
<ellipse fill="#31688e" stroke="black" cx="1495.5" cy="-870" rx="42.49" ry="18"/>
<text text-anchor="middle" x="1495.5" y="-866.3" font-family="Times,serif" font-size="14.00" fill="white">tiledb ❎</text>
</a>
</g>
</g>
<!-- tiledb&#45;&gt;gdal -->
<g id="edge38" class="edge">
<title>tiledb&#45;&gt;gdal</title>
<path fill="none" stroke="black" d="M1479.62,-853.12C1470.01,-843.51 1457.63,-831.13 1447.13,-820.63"/>
<polygon fill="black" stroke="black" points="1449.44,-817.99 1439.89,-813.39 1444.49,-822.94 1449.44,-817.99"/>
</g>
<!-- libsvm -->
<g id="node42" class="node">
<title>libsvm</title>
<g id="a_node42"><a xlink:href="https://github.com/conda-forge/libsvm-feedstock/pull/16" xlink:title="libsvm ❎">
<ellipse fill="#31688e" stroke="black" cx="1057.5" cy="-906" rx="47" ry="18"/>
<text text-anchor="middle" x="1057.5" y="-902.3" font-family="Times,serif" font-size="14.00" fill="white">libsvm ❎</text>
</a>
</g>
</g>
<!-- libsvm&#45;&gt;cctbx&#45;base -->
<g id="edge39" class="edge">
<title>libsvm&#45;&gt;cctbx&#45;base</title>
<path fill="none" stroke="black" d="M1057.24,-887.99C1056.22,-869.09 1052.34,-838.28 1038.5,-816 1030.44,-803.02 1018.02,-791.91 1006.05,-783.26"/>
<polygon fill="black" stroke="black" points="1007.72,-780.16 997.49,-777.41 1003.77,-785.94 1007.72,-780.16"/>
</g>
<!-- root_numpy -->
<g id="node45" class="node">
<title>root_numpy</title>
<g id="a_node45"><a xlink:href="https://github.com/conda-forge/root_numpy-feedstock/pull/17" xlink:title="root_numpy ❎">
<ellipse fill="#31688e" stroke="black" cx="1179.5" cy="-798" rx="65.79" ry="18"/>
<text text-anchor="middle" x="1179.5" y="-794.3" font-family="Times,serif" font-size="14.00" fill="white">root_numpy ❎</text>
</a>
</g>
</g>
<!-- radical.utils&#45;&gt;root_numpy -->
<!-- occt -->
<g id="node44" class="node">
<title>occt</title>
<g id="a_node44"><a xlink:href="https://github.com/conda-forge/occt-feedstock" xlink:title="occt">
<ellipse fill="#35b779" stroke="black" cx="673.5" cy="-834" rx="27" ry="18"/>
<text text-anchor="middle" x="673.5" y="-830.3" font-family="Times,serif" font-size="14.00">occt</text>
</a>
</g>
</g>
<!-- occt&#45;&gt;pythonocc&#45;core -->
<g id="edge41" class="edge">
<title>occt&#45;&gt;pythonocc&#45;core</title>
<path fill="none" stroke="black" d="M662.63,-817.46C656.61,-808.87 648.98,-797.97 642.13,-788.19"/>
<polygon fill="black" stroke="black" points="644.98,-786.15 636.37,-779.96 639.24,-790.16 644.98,-786.15"/>
</g>
<!-- ibm_db -->
<g id="node46" class="node">
<title>ibm_db</title>
<g id="a_node46"><a xlink:href="https://github.com/conda-forge/ibm_db-feedstock/pull/10" xlink:title="ibm_db ❎">
<ellipse fill="#31688e" stroke="black" cx="1179.5" cy="-726" rx="50.09" ry="18"/>
<text text-anchor="middle" x="1179.5" y="-722.3" font-family="Times,serif" font-size="14.00" fill="white">ibm_db ❎</text>
</a>
</g>
</g>
<!-- root_numpy&#45;&gt;ibm_db -->
<!-- cudatoolkit -->
<g id="node53" class="node">
<title>cudatoolkit</title>
<g id="a_node53"><a xlink:href="https://github.com/conda-forge/cudatoolkit-feedstock/pull/4" xlink:title="cudatoolkit ❎">
<ellipse fill="#31688e" stroke="black" cx="1179.5" cy="-654" rx="61.99" ry="18"/>
<text text-anchor="middle" x="1179.5" y="-650.3" font-family="Times,serif" font-size="14.00" fill="white">cudatoolkit ❎</text>
</a>
</g>
</g>
<!-- ibm_db&#45;&gt;cudatoolkit -->
<!-- seccomp&#45;split -->
<g id="node47" class="node">
<title>seccomp&#45;split</title>
<g id="a_node47"><a xlink:href="https://github.com/conda-forge/seccomp-split-feedstock/pull/14" xlink:title="seccomp split ❎">
<ellipse fill="#31688e" stroke="black" cx="514.5" cy="-322" rx="71.5" ry="18"/>
<text text-anchor="middle" x="514.5" y="-318.3" font-family="Times,serif" font-size="14.00" fill="white">seccomp split ❎</text>
</a>
</g>
</g>
<!-- seccomp&#45;split&#45;&gt;singularity -->
<g id="edge44" class="edge">
<title>seccomp&#45;split&#45;&gt;singularity</title>
<path fill="none" stroke="black" d="M526.6,-304.05C532.62,-295.63 540.01,-285.28 546.67,-275.97"/>
<polygon fill="black" stroke="black" points="549.54,-277.96 552.51,-267.79 543.85,-273.89 549.54,-277.96"/>
</g>
<!-- pytorch&#45;pretrained&#45;bert -->
<g id="node48" class="node">
<title>pytorch&#45;pretrained&#45;bert</title>
<g id="a_node48"><a xlink:href="https://github.com/conda-forge/pytorch-pretrained-bert-feedstock" xlink:title="pytorch pretrained bert">
<ellipse fill="#fde725" stroke="black" cx="309.5" cy="-834" rx="91.78" ry="18"/>
<text text-anchor="middle" x="309.5" y="-830.3" font-family="Times,serif" font-size="14.00">pytorch pretrained bert</text>
</a>
</g>
</g>
<!-- pytorch&#45;pretrained&#45;bert&#45;&gt;allennlp -->
<g id="edge45" class="edge">
<title>pytorch&#45;pretrained&#45;bert&#45;&gt;allennlp</title>
<path fill="none" stroke="black" d="M289.65,-816.05C278.64,-806.65 264.82,-794.86 253.01,-784.78"/>
<polygon fill="black" stroke="black" points="255.09,-781.95 245.21,-778.12 250.55,-787.28 255.09,-781.95"/>
</g>
<!-- pytorch&#45;cpu -->
<g id="node49" class="node">
<title>pytorch&#45;cpu</title>
<g id="a_node49"><a xlink:href="https://github.com/conda-forge/pytorch-cpu-feedstock/pull/18" xlink:title="pytorch cpu ❎">
<ellipse fill="#31688e" stroke="black" cx="309.5" cy="-906" rx="64.5" ry="18"/>
<text text-anchor="middle" x="309.5" y="-902.3" font-family="Times,serif" font-size="14.00" fill="white">pytorch cpu ❎</text>
</a>
</g>
</g>
<!-- pytorch&#45;cpu&#45;&gt;pytorch&#45;pretrained&#45;bert -->
<g id="edge46" class="edge">
<title>pytorch&#45;cpu&#45;&gt;pytorch&#45;pretrained&#45;bert</title>
<path fill="none" stroke="black" d="M309.5,-887.7C309.5,-879.98 309.5,-870.71 309.5,-862.11"/>
<polygon fill="black" stroke="black" points="313,-862.1 309.5,-852.1 306,-862.1 313,-862.1"/>
</g>
<!-- go&#45;dep -->
<g id="node50" class="node">
<title>go&#45;dep</title>
<g id="a_node50"><a xlink:href="https://github.com/conda-forge/go-dep-feedstock/pull/12" xlink:title="go dep ❎">
<ellipse fill="#31688e" stroke="black" cx="614.5" cy="-394" rx="46.29" ry="18"/>
<text text-anchor="middle" x="614.5" y="-390.3" font-family="Times,serif" font-size="14.00" fill="white">go dep ❎</text>
</a>
</g>
</g>
<!-- go&#45;dep&#45;&gt;singularity -->
<g id="edge47" class="edge">
<title>go&#45;dep&#45;&gt;singularity</title>
<path fill="none" stroke="black" d="M612.48,-375.8C609.97,-357.53 604.81,-328.01 595.5,-304 591.82,-294.51 586.58,-284.73 581.44,-276.19"/>
<polygon fill="black" stroke="black" points="584.27,-274.11 576,-267.49 578.33,-277.82 584.27,-274.11"/>
</g>
<!-- procps&#45;ng -->
<g id="node51" class="node">
<title>procps&#45;ng</title>
<g id="a_node51"><a xlink:href="https://github.com/conda-forge/procps-ng-feedstock/pull/3" xlink:title="procps ng ✓">
<ellipse fill="#31688e" stroke="black" cx="1179.5" cy="-206" rx="56" ry="18"/>
<text text-anchor="middle" x="1179.5" y="-202.3" font-family="Times,serif" font-size="14.00" fill="white">procps ng ✓</text>
</a>
</g>
</g>
<!-- myproxy -->
<g id="node52" class="node">
<title>myproxy</title>
<g id="a_node52"><a xlink:href="https://github.com/conda-forge/myproxy-feedstock" xlink:title="myproxy">
<ellipse fill="#fde725" stroke="black" cx="1179.5" cy="-134" rx="43" ry="18"/>
<text text-anchor="middle" x="1179.5" y="-130.3" font-family="Times,serif" font-size="14.00">myproxy</text>
</a>
</g>
</g>
<!-- procps&#45;ng&#45;&gt;myproxy -->
<g id="edge48" class="edge">
<title>procps&#45;ng&#45;&gt;myproxy</title>
<path fill="none" stroke="black" d="M1179.5,-187.7C1179.5,-179.98 1179.5,-170.71 1179.5,-162.11"/>
<polygon fill="black" stroke="black" points="1183,-162.1 1179.5,-152.1 1176,-162.1 1183,-162.1"/>
</g>
<!-- libusb -->
<g id="node54" class="node">
<title>libusb</title>
<g id="a_node54"><a xlink:href="https://github.com/conda-forge/libusb-feedstock/pull/6" xlink:title="libusb ❎">
<ellipse fill="#31688e" stroke="black" cx="1179.5" cy="-582" rx="44.39" ry="18"/>
<text text-anchor="middle" x="1179.5" y="-578.3" font-family="Times,serif" font-size="14.00" fill="white">libusb ❎</text>
</a>
</g>
</g>
<!-- cudatoolkit&#45;&gt;libusb -->
<!-- proj -->
<g id="node55" class="node">
<title>proj</title>
<g id="a_node55"><a xlink:href="https://github.com/conda-forge/proj-feedstock" xlink:title="proj">
<ellipse fill="#35b779" stroke="black" cx="1179.5" cy="-510" rx="27" ry="18"/>
<text text-anchor="middle" x="1179.5" y="-506.3" font-family="Times,serif" font-size="14.00">proj</text>
</a>
</g>
</g>
<!-- libusb&#45;&gt;proj -->
<!-- py&#45;spy -->
<g id="node56" class="node">
<title>py&#45;spy</title>
<g id="a_node56"><a xlink:href="https://github.com/conda-forge/py-spy-feedstock/pull/11" xlink:title="py spy ❎">
<ellipse fill="#31688e" stroke="black" cx="1179.5" cy="-438" rx="46.29" ry="18"/>
<text text-anchor="middle" x="1179.5" y="-434.3" font-family="Times,serif" font-size="14.00" fill="white">py spy ❎</text>
</a>
</g>
</g>
<!-- proj&#45;&gt;py&#45;spy -->
<!-- ompl -->
<g id="node57" class="node">
<title>ompl</title>
<g id="a_node57"><a xlink:href="https://github.com/conda-forge/ompl-feedstock/pull/8" xlink:title="ompl ❎">
<ellipse fill="#31688e" stroke="black" cx="1179.5" cy="-90" rx="41" ry="18"/>
<text text-anchor="middle" x="1179.5" y="-86.3" font-family="Times,serif" font-size="14.00" fill="white">ompl ❎</text>
</a>
</g>
</g>
<!-- web3 -->
<g id="node58" class="node">
<title>web3</title>
<g id="a_node58"><a xlink:href="https://github.com/conda-forge/web3-feedstock/pull/8" xlink:title="web3 ❎">
<ellipse fill="#31688e" stroke="black" cx="1179.5" cy="-18" rx="41.69" ry="18"/>
<text text-anchor="middle" x="1179.5" y="-14.3" font-family="Times,serif" font-size="14.00" fill="white">web3 ❎</text>
</a>
</g>
</g>
<!-- ompl&#45;&gt;web3 -->
</g>
</svg>
