<?xml version="1.0" encoding="UTF-8" standalone="no"?>
<!DOCTYPE svg PUBLIC "-//W3C//DTD SVG 1.1//EN"
 "http://www.w3.org/Graphics/SVG/1.1/DTD/svg11.dtd">
<!-- Generated by graphviz version 2.42.3 (20191010.1750)
 -->
<!-- Title: %3 Pages: 1 -->
<svg width="1725pt" height="1040pt"
 viewBox="0.00 0.00 1724.98 1040.00" xmlns="http://www.w3.org/2000/svg" xmlns:xlink="http://www.w3.org/1999/xlink">
<g id="graph0" class="graph" transform="scale(1 1) rotate(0) translate(4 1036)">
<title>%3</title>
<polygon fill="white" stroke="transparent" points="-4,4 -4,-1036 1720.98,-1036 1720.98,4 -4,4"/>
<!-- aiohttp -->
<g id="node1" class="node">
<title>aiohttp</title>
<g id="a_node1"><a xlink:href="https://github.com/conda-forge/aiohttp-feedstock" xlink:title="aiohttp">
<ellipse fill="#fde725" stroke="black" cx="429.34" cy="-798" rx="35.19" ry="18"/>
<text text-anchor="middle" x="429.34" y="-794.3" font-family="Times,serif" font-size="14.00">aiohttp</text>
</a>
</g>
</g>
<!-- black -->
<g id="node2" class="node">
<title>black</title>
<g id="a_node2"><a xlink:href="https://github.com/conda-forge/black-feedstock" xlink:title="black">
<ellipse fill="#fde725" stroke="black" cx="429.34" cy="-726" rx="30" ry="18"/>
<text text-anchor="middle" x="429.34" y="-722.3" font-family="Times,serif" font-size="14.00">black</text>
</a>
</g>
</g>
<!-- aiohttp&#45;&gt;black -->
<g id="edge1" class="edge">
<title>aiohttp&#45;&gt;black</title>
<path fill="none" stroke="black" d="M423.46,-780.05C422.63,-772.23 422.39,-762.75 422.75,-753.98"/>
<polygon fill="black" stroke="black" points="426.25,-754.01 423.48,-743.79 419.27,-753.51 426.25,-754.01"/>
</g>
<!-- black&#45;&gt;aiohttp -->
<g id="edge2" class="edge">
<title>black&#45;&gt;aiohttp</title>
<path fill="none" stroke="black" d="M435.2,-743.79C436.04,-751.59 436.28,-761.07 435.93,-769.85"/>
<polygon fill="black" stroke="black" points="432.43,-769.83 435.22,-780.05 439.41,-770.33 432.43,-769.83"/>
</g>
<!-- dm&#45;tree -->
<g id="node3" class="node">
<title>dm&#45;tree</title>
<g id="a_node3"><a xlink:href="https://github.com/conda-forge/dm-tree-feedstock" xlink:title="dm tree">
<ellipse fill="#fde725" stroke="black" cx="160.34" cy="-654" rx="38.5" ry="18"/>
<text text-anchor="middle" x="160.34" y="-650.3" font-family="Times,serif" font-size="14.00">dm tree</text>
</a>
</g>
</g>
<!-- black&#45;&gt;dm&#45;tree -->
<g id="edge3" class="edge">
<title>black&#45;&gt;dm&#45;tree</title>
<path fill="none" stroke="black" d="M406.54,-714.13C401.3,-711.89 395.69,-709.7 390.34,-708 315.5,-684.18 293.48,-691.24 217.34,-672 212.02,-670.66 206.45,-669.14 200.97,-667.58"/>
<polygon fill="black" stroke="black" points="201.85,-664.19 191.27,-664.74 199.89,-670.9 201.85,-664.19"/>
</g>
<!-- hyperspy -->
<g id="node4" class="node">
<title>hyperspy</title>
<g id="a_node4"><a xlink:href="https://github.com/conda-forge/hyperspy-feedstock" xlink:title="hyperspy">
<ellipse fill="#fde725" stroke="black" cx="572.34" cy="-654" rx="43" ry="18"/>
<text text-anchor="middle" x="572.34" y="-650.3" font-family="Times,serif" font-size="14.00">hyperspy</text>
</a>
</g>
</g>
<!-- black&#45;&gt;hyperspy -->
<g id="edge4" class="edge">
<title>black&#45;&gt;hyperspy</title>
<path fill="none" stroke="black" d="M452,-713.91C474.58,-702.85 509.62,-685.7 536.08,-672.75"/>
<polygon fill="black" stroke="black" points="537.95,-675.73 545.4,-668.19 534.88,-669.44 537.95,-675.73"/>
</g>
<!-- nbgrader -->
<g id="node5" class="node">
<title>nbgrader</title>
<g id="a_node5"><a xlink:href="https://github.com/conda-forge/nbgrader-feedstock" xlink:title="nbgrader">
<ellipse fill="#fde725" stroke="black" cx="469.34" cy="-654" rx="42.49" ry="18"/>
<text text-anchor="middle" x="469.34" y="-650.3" font-family="Times,serif" font-size="14.00">nbgrader</text>
</a>
</g>
</g>
<!-- black&#45;&gt;nbgrader -->
<g id="edge5" class="edge">
<title>black&#45;&gt;nbgrader</title>
<path fill="none" stroke="black" d="M438.62,-708.76C443.39,-700.4 449.33,-690.02 454.71,-680.61"/>
<polygon fill="black" stroke="black" points="457.91,-682.05 459.83,-671.63 451.83,-678.58 457.91,-682.05"/>
</g>
<!-- allennlp -->
<g id="node6" class="node">
<title>allennlp</title>
<g id="a_node6"><a xlink:href="https://github.com/conda-forge/allennlp-feedstock" xlink:title="allennlp">
<ellipse fill="#fde725" stroke="black" cx="279.34" cy="-510" rx="39" ry="18"/>
<text text-anchor="middle" x="279.34" y="-506.3" font-family="Times,serif" font-size="14.00">allennlp</text>
</a>
</g>
</g>
<!-- black&#45;&gt;allennlp -->
<g id="edge6" class="edge">
<title>black&#45;&gt;allennlp</title>
<path fill="none" stroke="black" d="M425.89,-707.94C418.2,-671.26 398.88,-586.39 380.34,-564 364.97,-545.43 341.38,-532.54 320.86,-524.12"/>
<polygon fill="black" stroke="black" points="321.98,-520.8 311.39,-520.46 319.45,-527.33 321.98,-520.8"/>
</g>
<!-- pytorch&#45;cpu -->
<g id="node7" class="node">
<title>pytorch&#45;cpu</title>
<g id="a_node7"><a xlink:href="https://github.com/conda-forge/pytorch-cpu-feedstock" xlink:title="pytorch cpu">
<ellipse fill="#fde725" stroke="black" cx="279.34" cy="-654" rx="52.79" ry="18"/>
<text text-anchor="middle" x="279.34" y="-650.3" font-family="Times,serif" font-size="14.00">pytorch cpu</text>
</a>
</g>
</g>
<!-- black&#45;&gt;pytorch&#45;cpu -->
<g id="edge7" class="edge">
<title>black&#45;&gt;pytorch&#45;cpu</title>
<path fill="none" stroke="black" d="M406.23,-714.22C382.82,-703.29 346.19,-686.2 318.29,-673.18"/>
<polygon fill="black" stroke="black" points="319.74,-669.99 309.2,-668.94 316.78,-676.34 319.74,-669.99"/>
</g>
<!-- pytorch&#45;cpu&#45;&gt;allennlp -->
<g id="edge42" class="edge">
<title>pytorch&#45;cpu&#45;&gt;allennlp</title>
<path fill="none" stroke="black" d="M237.47,-643.07C227.59,-640.74 217.1,-638.27 207.34,-636 137.61,-619.77 94.94,-655.99 50.34,-600 0,-536.81 149.49,-518.41 230.68,-513.11"/>
<polygon fill="black" stroke="black" points="230.94,-516.6 240.71,-512.5 230.51,-509.61 230.94,-516.6"/>
</g>
<!-- pytorch&#45;pretrained&#45;bert -->
<g id="node42" class="node">
<title>pytorch&#45;pretrained&#45;bert</title>
<g id="a_node42"><a xlink:href="https://github.com/conda-forge/pytorch-pretrained-bert-feedstock" xlink:title="pytorch pretrained bert">
<ellipse fill="#fde725" stroke="black" cx="279.34" cy="-582" rx="91.78" ry="18"/>
<text text-anchor="middle" x="279.34" y="-578.3" font-family="Times,serif" font-size="14.00">pytorch pretrained bert</text>
</a>
</g>
</g>
<!-- pytorch&#45;cpu&#45;&gt;pytorch&#45;pretrained&#45;bert -->
<g id="edge43" class="edge">
<title>pytorch&#45;cpu&#45;&gt;pytorch&#45;pretrained&#45;bert</title>
<path fill="none" stroke="black" d="M279.34,-635.7C279.34,-627.98 279.34,-618.71 279.34,-610.11"/>
<polygon fill="black" stroke="black" points="282.84,-610.1 279.34,-600.1 275.84,-610.1 282.84,-610.1"/>
</g>
<!-- astroscrappy -->
<g id="node8" class="node">
<title>astroscrappy</title>
<g id="a_node8"><a xlink:href="https://github.com/conda-forge/astroscrappy-feedstock/pull/11" xlink:title="astroscrappy ❎">
<ellipse fill="#31688e" stroke="black" cx="1190.34" cy="-1014" rx="67" ry="18"/>
<text text-anchor="middle" x="1190.34" y="-1010.3" font-family="Times,serif" font-size="14.00" fill="white">astroscrappy ❎</text>
</a>
</g>
</g>
<!-- pypy2.7 -->
<g id="node9" class="node">
<title>pypy2.7</title>
<g id="a_node9"><a xlink:href="https://github.com/conda-forge/pypy2.7-feedstock/pull/3" xlink:title="pypy2 7 ❎">
<ellipse fill="#31688e" stroke="black" cx="1190.34" cy="-942" rx="51.5" ry="18"/>
<text text-anchor="middle" x="1190.34" y="-938.3" font-family="Times,serif" font-size="14.00" fill="white">pypy2 7 ❎</text>
</a>
</g>
</g>
<!-- astroscrappy&#45;&gt;pypy2.7 -->
<!-- root_numpy -->
<g id="node37" class="node">
<title>root_numpy</title>
<g id="a_node37"><a xlink:href="https://github.com/conda-forge/root_numpy-feedstock/pull/19" xlink:title="root_numpy ❎">
<ellipse fill="#31688e" stroke="black" cx="1190.34" cy="-870" rx="65.79" ry="18"/>
<text text-anchor="middle" x="1190.34" y="-866.3" font-family="Times,serif" font-size="14.00" fill="white">root_numpy ❎</text>
</a>
</g>
</g>
<!-- pypy2.7&#45;&gt;root_numpy -->
<!-- bazel -->
<g id="node10" class="node">
<title>bazel</title>
<g id="a_node10"><a xlink:href="https://github.com/conda-forge/bazel-feedstock" xlink:title="bazel">
<ellipse fill="#35b779" stroke="black" cx="155.34" cy="-726" rx="29.5" ry="18"/>
<text text-anchor="middle" x="155.34" y="-722.3" font-family="Times,serif" font-size="14.00">bazel</text>
</a>
</g>
</g>
<!-- bazel&#45;&gt;dm&#45;tree -->
<g id="edge9" class="edge">
<title>bazel&#45;&gt;dm&#45;tree</title>
<path fill="none" stroke="black" d="M156.57,-707.7C157.12,-699.98 157.79,-690.71 158.4,-682.11"/>
<polygon fill="black" stroke="black" points="161.89,-682.33 159.12,-672.1 154.91,-681.83 161.89,-682.33"/>
</g>
<!-- elfutils -->
<g id="node11" class="node">
<title>elfutils</title>
<g id="a_node11"><a xlink:href="https://github.com/conda-forge/elfutils-feedstock/pull/20" xlink:title="elfutils ❎">
<ellipse fill="#31688e" stroke="black" cx="467.34" cy="-322" rx="47" ry="18"/>
<text text-anchor="middle" x="467.34" y="-318.3" font-family="Times,serif" font-size="14.00" fill="white">elfutils ❎</text>
</a>
</g>
</g>
<!-- heaptrack -->
<g id="node12" class="node">
<title>heaptrack</title>
<g id="a_node12"><a xlink:href="https://github.com/conda-forge/heaptrack-feedstock" xlink:title="heaptrack">
<ellipse fill="#fde725" stroke="black" cx="474.34" cy="-250" rx="45" ry="18"/>
<text text-anchor="middle" x="474.34" y="-246.3" font-family="Times,serif" font-size="14.00">heaptrack</text>
</a>
</g>
</g>
<!-- elfutils&#45;&gt;heaptrack -->
<g id="edge10" class="edge">
<title>elfutils&#45;&gt;heaptrack</title>
<path fill="none" stroke="black" d="M469.07,-303.7C469.84,-295.98 470.77,-286.71 471.63,-278.11"/>
<polygon fill="black" stroke="black" points="475.11,-278.4 472.63,-268.1 468.15,-277.71 475.11,-278.4"/>
</g>
<!-- fastparquet -->
<g id="node13" class="node">
<title>fastparquet</title>
<g id="a_node13"><a xlink:href="https://github.com/conda-forge/fastparquet-feedstock" xlink:title="fastparquet">
<ellipse fill="#fde725" stroke="black" cx="534.34" cy="-134" rx="50.09" ry="18"/>
<text text-anchor="middle" x="534.34" y="-130.3" font-family="Times,serif" font-size="14.00">fastparquet</text>
</a>
</g>
</g>
<!-- freexl -->
<g id="node14" class="node">
<title>freexl</title>
<g id="a_node14"><a xlink:href="https://github.com/conda-forge/freexl-feedstock/pull/22" xlink:title="freexl ✓">
<ellipse fill="#31688e" stroke="black" cx="1352.34" cy="-834" rx="41.69" ry="18"/>
<text text-anchor="middle" x="1352.34" y="-830.3" font-family="Times,serif" font-size="14.00" fill="white">freexl ✓</text>
</a>
</g>
</g>
<!-- gdal -->
<g id="node15" class="node">
<title>gdal</title>
<g id="a_node15"><a xlink:href="https://github.com/conda-forge/gdal-feedstock" xlink:title="gdal">
<ellipse fill="#fde725" stroke="black" cx="1481.34" cy="-690" rx="27" ry="18"/>
<text text-anchor="middle" x="1481.34" y="-686.3" font-family="Times,serif" font-size="14.00">gdal</text>
</a>
</g>
</g>
<!-- freexl&#45;&gt;gdal -->
<g id="edge11" class="edge">
<title>freexl&#45;&gt;gdal</title>
<path fill="none" stroke="black" d="M1343.77,-816.31C1335.25,-797.13 1325.43,-765.53 1340.34,-744 1363.51,-710.53 1410.63,-698.17 1444.01,-693.62"/>
<polygon fill="black" stroke="black" points="1444.8,-697.05 1454.32,-692.4 1443.98,-690.1 1444.8,-697.05"/>
</g>
<!-- libspatialite -->
<g id="node16" class="node">
<title>libspatialite</title>
<g id="a_node16"><a xlink:href="https://github.com/conda-forge/libspatialite-feedstock" xlink:title="libspatialite">
<ellipse fill="#fde725" stroke="black" cx="1401.34" cy="-762" rx="52" ry="18"/>
<text text-anchor="middle" x="1401.34" y="-758.3" font-family="Times,serif" font-size="14.00">libspatialite</text>
</a>
</g>
</g>
<!-- freexl&#45;&gt;libspatialite -->
<g id="edge12" class="edge">
<title>freexl&#45;&gt;libspatialite</title>
<path fill="none" stroke="black" d="M1363.95,-816.41C1369.84,-807.99 1377.13,-797.58 1383.7,-788.2"/>
<polygon fill="black" stroke="black" points="1386.6,-790.16 1389.47,-779.96 1380.87,-786.14 1386.6,-790.16"/>
</g>
<!-- kealib -->
<g id="node17" class="node">
<title>kealib</title>
<g id="a_node17"><a xlink:href="https://github.com/conda-forge/kealib-feedstock" xlink:title="kealib">
<ellipse fill="#fde725" stroke="black" cx="1481.34" cy="-618" rx="32.5" ry="18"/>
<text text-anchor="middle" x="1481.34" y="-614.3" font-family="Times,serif" font-size="14.00">kealib</text>
</a>
</g>
</g>
<!-- gdal&#45;&gt;kealib -->
<g id="edge13" class="edge">
<title>gdal&#45;&gt;kealib</title>
<path fill="none" stroke="black" d="M1475.5,-672.41C1474.64,-664.51 1474.39,-654.85 1474.75,-645.94"/>
<polygon fill="black" stroke="black" points="1478.24,-646.18 1475.46,-635.96 1471.26,-645.68 1478.24,-646.18"/>
</g>
<!-- r&#45;sf -->
<g id="node18" class="node">
<title>r&#45;sf</title>
<g id="a_node18"><a xlink:href="https://github.com/conda-forge/r-sf-feedstock" xlink:title="r sf">
<ellipse fill="#fde725" stroke="black" cx="1611.34" cy="-618" rx="27" ry="18"/>
<text text-anchor="middle" x="1611.34" y="-614.3" font-family="Times,serif" font-size="14.00">r sf</text>
</a>
</g>
</g>
<!-- gdal&#45;&gt;r&#45;sf -->
<g id="edge14" class="edge">
<title>gdal&#45;&gt;r&#45;sf</title>
<path fill="none" stroke="black" d="M1501.65,-678.06C1523.18,-666.47 1557.39,-648.05 1581.88,-634.86"/>
<polygon fill="black" stroke="black" points="1583.59,-637.91 1590.74,-630.09 1580.27,-631.75 1583.59,-637.91"/>
</g>
<!-- libspatialite&#45;&gt;gdal -->
<g id="edge15" class="edge">
<title>libspatialite&#45;&gt;gdal</title>
<path fill="none" stroke="black" d="M1419.49,-745.12C1430.91,-735.12 1445.76,-722.13 1458.04,-711.38"/>
<polygon fill="black" stroke="black" points="1460.46,-713.91 1465.69,-704.7 1455.86,-708.65 1460.46,-713.91"/>
</g>
<!-- kealib&#45;&gt;gdal -->
<g id="edge16" class="edge">
<title>kealib&#45;&gt;gdal</title>
<path fill="none" stroke="black" d="M1487.22,-635.96C1488.05,-643.83 1488.29,-653.37 1487.92,-662.19"/>
<polygon fill="black" stroke="black" points="1484.41,-662.18 1487.18,-672.41 1491.39,-662.69 1484.41,-662.18"/>
</g>
<!-- r&#45;spdep -->
<g id="node19" class="node">
<title>r&#45;spdep</title>
<g id="a_node19"><a xlink:href="https://github.com/conda-forge/r-spdep-feedstock" xlink:title="r spdep">
<ellipse fill="#fde725" stroke="black" cx="1611.34" cy="-546" rx="36.5" ry="18"/>
<text text-anchor="middle" x="1611.34" y="-542.3" font-family="Times,serif" font-size="14.00">r spdep</text>
</a>
</g>
</g>
<!-- r&#45;sf&#45;&gt;r&#45;spdep -->
<g id="edge17" class="edge">
<title>r&#45;sf&#45;&gt;r&#45;spdep</title>
<path fill="none" stroke="black" d="M1611.34,-599.7C1611.34,-591.98 1611.34,-582.71 1611.34,-574.11"/>
<polygon fill="black" stroke="black" points="1614.84,-574.1 1611.34,-564.1 1607.84,-574.1 1614.84,-574.1"/>
</g>
<!-- geos -->
<g id="node20" class="node">
<title>geos</title>
<g id="a_node20"><a xlink:href="https://github.com/conda-forge/geos-feedstock/pull/47" xlink:title="geos ❎">
<ellipse fill="#31688e" stroke="black" cx="1465.34" cy="-834" rx="38.5" ry="18"/>
<text text-anchor="middle" x="1465.34" y="-830.3" font-family="Times,serif" font-size="14.00" fill="white">geos ❎</text>
</a>
</g>
</g>
<!-- geos&#45;&gt;gdal -->
<g id="edge18" class="edge">
<title>geos&#45;&gt;gdal</title>
<path fill="none" stroke="black" d="M1467.27,-815.87C1469.99,-791.67 1475,-747.21 1478.25,-718.39"/>
<polygon fill="black" stroke="black" points="1481.76,-718.52 1479.4,-708.19 1474.8,-717.73 1481.76,-718.52"/>
</g>
<!-- geos&#45;&gt;libspatialite -->
<g id="edge19" class="edge">
<title>geos&#45;&gt;libspatialite</title>
<path fill="none" stroke="black" d="M1450.82,-817.12C1442.67,-808.2 1432.34,-796.91 1423.23,-786.94"/>
<polygon fill="black" stroke="black" points="1425.58,-784.33 1416.25,-779.31 1420.41,-789.05 1425.58,-784.33"/>
</g>
<!-- libunwind -->
<g id="node21" class="node">
<title>libunwind</title>
<g id="a_node21"><a xlink:href="https://github.com/conda-forge/libunwind-feedstock/pull/14" xlink:title="libunwind ❎">
<ellipse fill="#31688e" stroke="black" cx="590.34" cy="-322" rx="58" ry="18"/>
<text text-anchor="middle" x="590.34" y="-318.3" font-family="Times,serif" font-size="14.00" fill="white">libunwind ❎</text>
</a>
</g>
</g>
<!-- libunwind&#45;&gt;heaptrack -->
<g id="edge20" class="edge">
<title>libunwind&#45;&gt;heaptrack</title>
<path fill="none" stroke="black" d="M564.88,-305.64C547.8,-295.33 525.16,-281.67 506.78,-270.58"/>
<polygon fill="black" stroke="black" points="508.52,-267.54 498.15,-265.37 504.91,-273.53 508.52,-267.54"/>
</g>
<!-- py&#45;spy -->
<g id="node22" class="node">
<title>py&#45;spy</title>
<g id="a_node22"><a xlink:href="https://github.com/conda-forge/py-spy-feedstock/pull/11" xlink:title="py spy ❎">
<ellipse fill="#31688e" stroke="black" cx="590.34" cy="-250" rx="46.29" ry="18"/>
<text text-anchor="middle" x="590.34" y="-246.3" font-family="Times,serif" font-size="14.00" fill="white">py spy ❎</text>
</a>
</g>
</g>
<!-- libunwind&#45;&gt;py&#45;spy -->
<g id="edge21" class="edge">
<title>libunwind&#45;&gt;py&#45;spy</title>
<path fill="none" stroke="black" d="M590.34,-303.7C590.34,-295.98 590.34,-286.71 590.34,-278.11"/>
<polygon fill="black" stroke="black" points="593.84,-278.1 590.34,-268.1 586.84,-278.1 593.84,-278.1"/>
</g>
<!-- mono -->
<g id="node23" class="node">
<title>mono</title>
<g id="a_node23"><a xlink:href="https://github.com/conda-forge/mono-feedstock/pull/18" xlink:title="mono ❎">
<ellipse fill="#31688e" stroke="black" cx="534.34" cy="-90" rx="43" ry="18"/>
<text text-anchor="middle" x="534.34" y="-86.3" font-family="Times,serif" font-size="14.00" fill="white">mono ❎</text>
</a>
</g>
</g>
<!-- ogre -->
<g id="node24" class="node">
<title>ogre</title>
<g id="a_node24"><a xlink:href="https://github.com/conda-forge/ogre-feedstock" xlink:title="ogre">
<ellipse fill="#fde725" stroke="black" cx="534.34" cy="-18" rx="27" ry="18"/>
<text text-anchor="middle" x="534.34" y="-14.3" font-family="Times,serif" font-size="14.00">ogre</text>
</a>
</g>
</g>
<!-- mono&#45;&gt;ogre -->
<g id="edge22" class="edge">
<title>mono&#45;&gt;ogre</title>
<path fill="none" stroke="black" d="M534.34,-71.7C534.34,-63.98 534.34,-54.71 534.34,-46.11"/>
<polygon fill="black" stroke="black" points="537.84,-46.1 534.34,-36.1 530.84,-46.1 537.84,-46.1"/>
</g>
<!-- nltk_data -->
<g id="node25" class="node">
<title>nltk_data</title>
<g id="a_node25"><a xlink:href="https://github.com/conda-forge/nltk_data-feedstock/pull/5" xlink:title="nltk_data ❎">
<ellipse fill="#31688e" stroke="black" cx="114.34" cy="-582" rx="55.49" ry="18"/>
<text text-anchor="middle" x="114.34" y="-578.3" font-family="Times,serif" font-size="14.00" fill="white">nltk_data ❎</text>
</a>
</g>
</g>
<!-- nltk_data&#45;&gt;allennlp -->
<g id="edge23" class="edge">
<title>nltk_data&#45;&gt;allennlp</title>
<path fill="none" stroke="black" d="M146.54,-567.34C174.01,-555.68 213.51,-538.93 242.29,-526.72"/>
<polygon fill="black" stroke="black" points="243.76,-529.9 251.6,-522.77 241.03,-523.45 243.76,-529.9"/>
</g>
<!-- pyqt -->
<g id="node26" class="node">
<title>pyqt</title>
<g id="a_node26"><a xlink:href="https://github.com/conda-forge/pyqt-feedstock" xlink:title="pyqt">
<ellipse fill="#fde725" stroke="black" cx="643.34" cy="-726" rx="27" ry="18"/>
<text text-anchor="middle" x="643.34" y="-722.3" font-family="Times,serif" font-size="14.00">pyqt</text>
</a>
</g>
</g>
<!-- pyqt&#45;&gt;hyperspy -->
<g id="edge24" class="edge">
<title>pyqt&#45;&gt;hyperspy</title>
<path fill="none" stroke="black" d="M628.63,-710.5C619.12,-701.13 606.55,-688.73 595.69,-678.03"/>
<polygon fill="black" stroke="black" points="598.09,-675.48 588.52,-670.95 593.18,-680.46 598.09,-675.48"/>
</g>
<!-- pyqt&#45;&gt;nbgrader -->
<g id="edge25" class="edge">
<title>pyqt&#45;&gt;nbgrader</title>
<path fill="none" stroke="black" d="M620.59,-715.85C592.13,-704.4 542.94,-684.61 508.41,-670.72"/>
<polygon fill="black" stroke="black" points="509.67,-667.45 499.08,-666.97 507.05,-673.95 509.67,-667.45"/>
</g>
<!-- pyqt&#45;&gt;allennlp -->
<g id="edge26" class="edge">
<title>pyqt&#45;&gt;allennlp</title>
<path fill="none" stroke="black" d="M644.33,-707.77C644.51,-688.09 641.78,-656.01 624.34,-636 547.49,-547.81 403.4,-521.82 328.06,-514.18"/>
<polygon fill="black" stroke="black" points="328.18,-510.67 317.9,-513.22 327.52,-517.64 328.18,-510.67"/>
</g>
<!-- pythonocc&#45;core -->
<g id="node27" class="node">
<title>pythonocc&#45;core</title>
<g id="a_node27"><a xlink:href="https://github.com/conda-forge/pythonocc-core-feedstock" xlink:title="pythonocc core">
<ellipse fill="#fde725" stroke="black" cx="736.34" cy="-654" rx="65" ry="18"/>
<text text-anchor="middle" x="736.34" y="-650.3" font-family="Times,serif" font-size="14.00">pythonocc core</text>
</a>
</g>
</g>
<!-- pyqt&#45;&gt;pythonocc&#45;core -->
<g id="edge27" class="edge">
<title>pyqt&#45;&gt;pythonocc&#45;core</title>
<path fill="none" stroke="black" d="M660.83,-711.83C673.79,-702.08 691.77,-688.55 706.92,-677.14"/>
<polygon fill="black" stroke="black" points="709.12,-679.87 715.01,-671.06 704.91,-674.27 709.12,-679.87"/>
</g>
<!-- qt -->
<g id="node28" class="node">
<title>qt</title>
<g id="a_node28"><a xlink:href="https://github.com/conda-forge/qt-feedstock/pull/168" xlink:title="qt ❎">
<ellipse fill="#31688e" stroke="black" cx="901.34" cy="-798" rx="29.5" ry="18"/>
<text text-anchor="middle" x="901.34" y="-794.3" font-family="Times,serif" font-size="14.00" fill="white">qt ❎</text>
</a>
</g>
</g>
<!-- qt&#45;&gt;pyqt -->
<g id="edge28" class="edge">
<title>qt&#45;&gt;pyqt</title>
<path fill="none" stroke="black" d="M874.12,-791.09C833.69,-782.1 755.54,-763.92 690.34,-744 685.61,-742.55 680.65,-740.91 675.81,-739.23"/>
<polygon fill="black" stroke="black" points="676.73,-735.84 666.13,-735.77 674.37,-742.43 676.73,-735.84"/>
</g>
<!-- pivy -->
<g id="node29" class="node">
<title>pivy</title>
<g id="a_node29"><a xlink:href="https://github.com/conda-forge/pivy-feedstock" xlink:title="pivy">
<ellipse fill="#fde725" stroke="black" cx="901.34" cy="-582" rx="27" ry="18"/>
<text text-anchor="middle" x="901.34" y="-578.3" font-family="Times,serif" font-size="14.00">pivy</text>
</a>
</g>
</g>
<!-- qt&#45;&gt;pivy -->
<g id="edge29" class="edge">
<title>qt&#45;&gt;pivy</title>
<path fill="none" stroke="black" d="M901.34,-779.85C901.34,-742.83 901.34,-655.18 901.34,-610.39"/>
<polygon fill="black" stroke="black" points="904.84,-610.23 901.34,-600.23 897.84,-610.23 904.84,-610.23"/>
</g>
<!-- pyside2 -->
<g id="node30" class="node">
<title>pyside2</title>
<g id="a_node30"><a xlink:href="https://github.com/conda-forge/pyside2-feedstock" xlink:title="pyside2">
<ellipse fill="#fde725" stroke="black" cx="968.34" cy="-726" rx="38.5" ry="18"/>
<text text-anchor="middle" x="968.34" y="-722.3" font-family="Times,serif" font-size="14.00">pyside2</text>
</a>
</g>
</g>
<!-- qt&#45;&gt;pyside2 -->
<g id="edge30" class="edge">
<title>qt&#45;&gt;pyside2</title>
<path fill="none" stroke="black" d="M915.55,-782.15C924.45,-772.85 936.11,-760.67 946.2,-750.12"/>
<polygon fill="black" stroke="black" points="948.83,-752.44 953.22,-742.8 943.78,-747.6 948.83,-752.44"/>
</g>
<!-- soqt -->
<g id="node31" class="node">
<title>soqt</title>
<g id="a_node31"><a xlink:href="https://github.com/conda-forge/soqt-feedstock" xlink:title="soqt">
<ellipse fill="#fde725" stroke="black" cx="846.34" cy="-654" rx="27" ry="18"/>
<text text-anchor="middle" x="846.34" y="-650.3" font-family="Times,serif" font-size="14.00">soqt</text>
</a>
</g>
</g>
<!-- qt&#45;&gt;soqt -->
<g id="edge31" class="edge">
<title>qt&#45;&gt;soqt</title>
<path fill="none" stroke="black" d="M894.92,-780.43C885.49,-756.09 867.8,-710.4 856.56,-681.4"/>
<polygon fill="black" stroke="black" points="859.76,-679.96 852.88,-671.9 853.23,-682.49 859.76,-679.96"/>
</g>
<!-- geant4 -->
<g id="node32" class="node">
<title>geant4</title>
<g id="a_node32"><a xlink:href="https://github.com/conda-forge/geant4-feedstock" xlink:title="geant4">
<ellipse fill="#fde725" stroke="black" cx="1035.34" cy="-582" rx="34.5" ry="18"/>
<text text-anchor="middle" x="1035.34" y="-578.3" font-family="Times,serif" font-size="14.00">geant4</text>
</a>
</g>
</g>
<!-- qt&#45;&gt;geant4 -->
<g id="edge32" class="edge">
<title>qt&#45;&gt;geant4</title>
<path fill="none" stroke="black" d="M928.98,-792.08C955.63,-785.79 994.84,-772.14 1015.34,-744 1044.07,-704.56 1043.07,-644.76 1039.43,-610.23"/>
<polygon fill="black" stroke="black" points="1042.86,-609.47 1038.18,-599.96 1035.91,-610.31 1042.86,-609.47"/>
</g>
<!-- pyside2&#45;&gt;pivy -->
<g id="edge33" class="edge">
<title>pyside2&#45;&gt;pivy</title>
<path fill="none" stroke="black" d="M960.39,-708.15C948.74,-683.47 926.95,-637.28 913.34,-608.44"/>
<polygon fill="black" stroke="black" points="916.5,-606.94 909.07,-599.39 910.17,-609.92 916.5,-606.94"/>
</g>
<!-- soqt&#45;&gt;pivy -->
<g id="edge34" class="edge">
<title>soqt&#45;&gt;pivy</title>
<path fill="none" stroke="black" d="M858.27,-637.81C865.55,-628.55 875,-616.52 883.19,-606.09"/>
<polygon fill="black" stroke="black" points="886,-608.18 889.43,-598.16 880.5,-603.86 886,-608.18"/>
</g>
<!-- r&#45;units -->
<g id="node33" class="node">
<title>r&#45;units</title>
<g id="a_node33"><a xlink:href="https://github.com/conda-forge/r-units-feedstock" xlink:title="r units">
<ellipse fill="#fde725" stroke="black" cx="1637.34" cy="-690" rx="33.29" ry="18"/>
<text text-anchor="middle" x="1637.34" y="-686.3" font-family="Times,serif" font-size="14.00">r units</text>
</a>
</g>
</g>
<!-- r&#45;units&#45;&gt;r&#45;sf -->
<g id="edge35" class="edge">
<title>r&#45;units&#45;&gt;r&#45;sf</title>
<path fill="none" stroke="black" d="M1631.04,-672.05C1628.07,-664.06 1624.46,-654.33 1621.14,-645.4"/>
<polygon fill="black" stroke="black" points="1624.34,-643.94 1617.57,-635.79 1617.77,-646.38 1624.34,-643.94"/>
</g>
<!-- singularity -->
<g id="node34" class="node">
<title>singularity</title>
<g id="a_node34"><a xlink:href="https://github.com/conda-forge/singularity-feedstock" xlink:title="singularity">
<ellipse fill="#fde725" stroke="black" cx="1190.34" cy="-134" rx="48.19" ry="18"/>
<text text-anchor="middle" x="1190.34" y="-130.3" font-family="Times,serif" font-size="14.00">singularity</text>
</a>
</g>
</g>
<!-- thrift -->
<g id="node35" class="node">
<title>thrift</title>
<g id="a_node35"><a xlink:href="https://github.com/conda-forge/thrift-feedstock/pull/17" xlink:title="thrift ✓">
<ellipse fill="#31688e" stroke="black" cx="534.34" cy="-206" rx="38.5" ry="18"/>
<text text-anchor="middle" x="534.34" y="-202.3" font-family="Times,serif" font-size="14.00" fill="white">thrift ✓</text>
</a>
</g>
</g>
<!-- thrift&#45;&gt;fastparquet -->
<g id="edge36" class="edge">
<title>thrift&#45;&gt;fastparquet</title>
<path fill="none" stroke="black" d="M534.34,-187.7C534.34,-179.98 534.34,-170.71 534.34,-162.11"/>
<polygon fill="black" stroke="black" points="537.84,-162.1 534.34,-152.1 530.84,-162.1 537.84,-162.1"/>
</g>
<!-- udunits2 -->
<g id="node36" class="node">
<title>udunits2</title>
<g id="a_node36"><a xlink:href="https://github.com/conda-forge/udunits2-feedstock/pull/32" xlink:title="udunits2 ❎">
<ellipse fill="#31688e" stroke="black" cx="1664.34" cy="-762" rx="52.79" ry="18"/>
<text text-anchor="middle" x="1664.34" y="-758.3" font-family="Times,serif" font-size="14.00" fill="white">udunits2 ❎</text>
</a>
</g>
</g>
<!-- udunits2&#45;&gt;r&#45;units -->
<g id="edge37" class="edge">
<title>udunits2&#45;&gt;r&#45;units</title>
<path fill="none" stroke="black" d="M1657.8,-744.05C1654.72,-736.06 1650.97,-726.33 1647.52,-717.4"/>
<polygon fill="black" stroke="black" points="1650.68,-715.86 1643.81,-707.79 1644.15,-718.38 1650.68,-715.86"/>
</g>
<!-- ibm_db -->
<g id="node43" class="node">
<title>ibm_db</title>
<g id="a_node43"><a xlink:href="https://github.com/conda-forge/ibm_db-feedstock/pull/10" xlink:title="ibm_db ❎">
<ellipse fill="#31688e" stroke="black" cx="1190.34" cy="-798" rx="50.09" ry="18"/>
<text text-anchor="middle" x="1190.34" y="-794.3" font-family="Times,serif" font-size="14.00" fill="white">ibm_db ❎</text>
</a>
</g>
</g>
<!-- root_numpy&#45;&gt;ibm_db -->
<!-- tiledb -->
<g id="node38" class="node">
<title>tiledb</title>
<g id="a_node38"><a xlink:href="https://github.com/conda-forge/tiledb-feedstock/pull/80" xlink:title="tiledb ❎">
<ellipse fill="#31688e" stroke="black" cx="1551.34" cy="-762" rx="42.49" ry="18"/>
<text text-anchor="middle" x="1551.34" y="-758.3" font-family="Times,serif" font-size="14.00" fill="white">tiledb ❎</text>
</a>
</g>
</g>
<!-- tiledb&#45;&gt;gdal -->
<g id="edge39" class="edge">
<title>tiledb&#45;&gt;gdal</title>
<path fill="none" stroke="black" d="M1535.45,-745.12C1525.85,-735.51 1513.47,-723.13 1502.97,-712.63"/>
<polygon fill="black" stroke="black" points="1505.28,-709.99 1495.73,-705.39 1500.33,-714.94 1505.28,-709.99"/>
</g>
<!-- libsvm -->
<g id="node39" class="node">
<title>libsvm</title>
<g id="a_node39"><a xlink:href="https://github.com/conda-forge/libsvm-feedstock/pull/16" xlink:title="libsvm ❎">
<ellipse fill="#31688e" stroke="black" cx="1513.34" cy="-206" rx="47" ry="18"/>
<text text-anchor="middle" x="1513.34" y="-202.3" font-family="Times,serif" font-size="14.00" fill="white">libsvm ❎</text>
</a>
</g>
</g>
<!-- cctbx&#45;base -->
<g id="node40" class="node">
<title>cctbx&#45;base</title>
<g id="a_node40"><a xlink:href="https://github.com/conda-forge/cctbx-base-feedstock" xlink:title="cctbx base">
<ellipse fill="#fde725" stroke="black" cx="1513.34" cy="-134" rx="48.19" ry="18"/>
<text text-anchor="middle" x="1513.34" y="-130.3" font-family="Times,serif" font-size="14.00">cctbx base</text>
</a>
</g>
</g>
<!-- libsvm&#45;&gt;cctbx&#45;base -->
<g id="edge40" class="edge">
<title>libsvm&#45;&gt;cctbx&#45;base</title>
<path fill="none" stroke="black" d="M1513.34,-187.7C1513.34,-179.98 1513.34,-170.71 1513.34,-162.11"/>
<polygon fill="black" stroke="black" points="1516.84,-162.1 1513.34,-152.1 1509.84,-162.1 1516.84,-162.1"/>
</g>
<!-- occt -->
<g id="node41" class="node">
<title>occt</title>
<g id="a_node41"><a xlink:href="https://github.com/conda-forge/occt-feedstock/pull/59" xlink:title="occt ❎">
<ellipse fill="#31688e" stroke="black" cx="736.34" cy="-726" rx="37.09" ry="18"/>
<text text-anchor="middle" x="736.34" y="-722.3" font-family="Times,serif" font-size="14.00" fill="white">occt ❎</text>
</a>
</g>
</g>
<!-- occt&#45;&gt;pythonocc&#45;core -->
<g id="edge41" class="edge">
<title>occt&#45;&gt;pythonocc&#45;core</title>
<path fill="none" stroke="black" d="M736.34,-707.7C736.34,-699.98 736.34,-690.71 736.34,-682.11"/>
<polygon fill="black" stroke="black" points="739.84,-682.1 736.34,-672.1 732.84,-682.1 739.84,-682.1"/>
</g>
<!-- pytorch&#45;pretrained&#45;bert&#45;&gt;allennlp -->
<g id="edge45" class="edge">
<title>pytorch&#45;pretrained&#45;bert&#45;&gt;allennlp</title>
<path fill="none" stroke="black" d="M279.34,-563.7C279.34,-555.98 279.34,-546.71 279.34,-538.11"/>
<polygon fill="black" stroke="black" points="282.84,-538.1 279.34,-528.1 275.84,-538.1 282.84,-538.1"/>
</g>
<!-- cudatoolkit -->
<g id="node47" class="node">
<title>cudatoolkit</title>
<g id="a_node47"><a xlink:href="https://github.com/conda-forge/cudatoolkit-feedstock/pull/4" xlink:title="cudatoolkit ❎">
<ellipse fill="#31688e" stroke="black" cx="1190.34" cy="-726" rx="61.99" ry="18"/>
<text text-anchor="middle" x="1190.34" y="-722.3" font-family="Times,serif" font-size="14.00" fill="white">cudatoolkit ❎</text>
</a>
</g>
</g>
<!-- ibm_db&#45;&gt;cudatoolkit -->
<!-- go&#45;dep -->
<g id="node44" class="node">
<title>go&#45;dep</title>
<g id="a_node44"><a xlink:href="https://github.com/conda-forge/go-dep-feedstock/pull/12" xlink:title="go dep ❎">
<ellipse fill="#31688e" stroke="black" cx="1190.34" cy="-206" rx="46.29" ry="18"/>
<text text-anchor="middle" x="1190.34" y="-202.3" font-family="Times,serif" font-size="14.00" fill="white">go dep ❎</text>
</a>
</g>
</g>
<!-- go&#45;dep&#45;&gt;singularity -->
<g id="edge46" class="edge">
<title>go&#45;dep&#45;&gt;singularity</title>
<path fill="none" stroke="black" d="M1190.34,-187.7C1190.34,-179.98 1190.34,-170.71 1190.34,-162.11"/>
<polygon fill="black" stroke="black" points="1193.84,-162.1 1190.34,-152.1 1186.84,-162.1 1193.84,-162.1"/>
</g>
<!-- procps&#45;ng -->
<g id="node45" class="node">
<title>procps&#45;ng</title>
<g id="a_node45"><a xlink:href="https://github.com/conda-forge/procps-ng-feedstock/pull/3" xlink:title="procps ng ✓">
<ellipse fill="#31688e" stroke="black" cx="1513.34" cy="-322" rx="56" ry="18"/>
<text text-anchor="middle" x="1513.34" y="-318.3" font-family="Times,serif" font-size="14.00" fill="white">procps ng ✓</text>
</a>
</g>
</g>
<!-- myproxy -->
<g id="node46" class="node">
<title>myproxy</title>
<g id="a_node46"><a xlink:href="https://github.com/conda-forge/myproxy-feedstock" xlink:title="myproxy">
<ellipse fill="#fde725" stroke="black" cx="1513.34" cy="-250" rx="43" ry="18"/>
<text text-anchor="middle" x="1513.34" y="-246.3" font-family="Times,serif" font-size="14.00">myproxy</text>
</a>
</g>
</g>
<!-- procps&#45;ng&#45;&gt;myproxy -->
<g id="edge47" class="edge">
<title>procps&#45;ng&#45;&gt;myproxy</title>
<path fill="none" stroke="black" d="M1513.34,-303.7C1513.34,-295.98 1513.34,-286.71 1513.34,-278.11"/>
<polygon fill="black" stroke="black" points="1516.84,-278.1 1513.34,-268.1 1509.84,-278.1 1516.84,-278.1"/>
</g>
<!-- libusb -->
<g id="node48" class="node">
<title>libusb</title>
<g id="a_node48"><a xlink:href="https://github.com/conda-forge/libusb-feedstock/pull/8" xlink:title="libusb ❎">
<ellipse fill="#31688e" stroke="black" cx="1190.34" cy="-654" rx="44.39" ry="18"/>
<text text-anchor="middle" x="1190.34" y="-650.3" font-family="Times,serif" font-size="14.00" fill="white">libusb ❎</text>
</a>
</g>
</g>
<!-- cudatoolkit&#45;&gt;libusb -->
<!-- clang&#45;compiler&#45;activation -->
<g id="node49" class="node">
<title>clang&#45;compiler&#45;activation</title>
<g id="a_node49"><a xlink:href="https://github.com/conda-forge/clang-compiler-activation-feedstock/pull/48" xlink:title="clang compiler activation ❎">
<ellipse fill="#31688e" stroke="black" cx="1190.34" cy="-582" rx="112.5" ry="18"/>
<text text-anchor="middle" x="1190.34" y="-578.3" font-family="Times,serif" font-size="14.00" fill="white">clang compiler activation ❎</text>
</a>
</g>
</g>
<!-- libusb&#45;&gt;clang&#45;compiler&#45;activation -->
<!-- proj -->
<g id="node50" class="node">
<title>proj</title>
<g id="a_node50"><a xlink:href="https://github.com/conda-forge/proj-feedstock" xlink:title="proj">
<ellipse fill="#35b779" stroke="black" cx="1190.34" cy="-510" rx="27" ry="18"/>
<text text-anchor="middle" x="1190.34" y="-506.3" font-family="Times,serif" font-size="14.00">proj</text>
</a>
</g>
</g>
<!-- clang&#45;compiler&#45;activation&#45;&gt;proj -->
<!-- ompl -->
<g id="node51" class="node">
<title>ompl</title>
<g id="a_node51"><a xlink:href="https://github.com/conda-forge/ompl-feedstock/pull/8" xlink:title="ompl ❎">
<ellipse fill="#31688e" stroke="black" cx="1190.34" cy="-438" rx="41" ry="18"/>
<text text-anchor="middle" x="1190.34" y="-434.3" font-family="Times,serif" font-size="14.00" fill="white">ompl ❎</text>
</a>
</g>
</g>
<!-- proj&#45;&gt;ompl -->
<!-- nordugrid&#45;arc -->
<g id="node56" class="node">
<title>nordugrid&#45;arc</title>
<g id="a_node56"><a xlink:href="https://github.com/conda-forge/nordugrid-arc-feedstock/pull/14" xlink:title="nordugrid arc ❎">
<ellipse fill="#31688e" stroke="black" cx="1190.34" cy="-366" rx="70.39" ry="18"/>
<text text-anchor="middle" x="1190.34" y="-362.3" font-family="Times,serif" font-size="14.00" fill="white">nordugrid arc ❎</text>
</a>
</g>
</g>
<!-- ompl&#45;&gt;nordugrid&#45;arc -->
<!-- nccl -->
<g id="node52" class="node">
<title>nccl</title>
<g id="a_node52"><a xlink:href="https://github.com/conda-forge/nccl-feedstock/pull/29" xlink:title="nccl ❎">
<ellipse fill="#31688e" stroke="black" cx="344.34" cy="-726" rx="37.09" ry="18"/>
<text text-anchor="middle" x="344.34" y="-722.3" font-family="Times,serif" font-size="14.00" fill="white">nccl ❎</text>
</a>
</g>
</g>
<!-- nccl&#45;&gt;pytorch&#45;cpu -->
<g id="edge53" class="edge">
<title>nccl&#45;&gt;pytorch&#45;cpu</title>
<path fill="none" stroke="black" d="M329.59,-709.12C321.23,-700.12 310.61,-688.68 301.29,-678.65"/>
<polygon fill="black" stroke="black" points="303.85,-676.25 294.48,-671.31 298.72,-681.02 303.85,-676.25"/>
</g>
<!-- cudnn -->
<g id="node53" class="node">
<title>cudnn</title>
<g id="a_node53"><a xlink:href="https://github.com/conda-forge/cudnn-feedstock/pull/5" xlink:title="cudnn ❎">
<ellipse fill="#31688e" stroke="black" cx="207.34" cy="-798" rx="44.39" ry="18"/>
<text text-anchor="middle" x="207.34" y="-794.3" font-family="Times,serif" font-size="14.00" fill="white">cudnn ❎</text>
</a>
</g>
</g>
<!-- cudnn&#45;&gt;pytorch&#45;cpu -->
<g id="edge54" class="edge">
<title>cudnn&#45;&gt;pytorch&#45;cpu</title>
<path fill="none" stroke="black" d="M215.88,-780.15C228.33,-755.6 251.57,-709.77 266.2,-680.91"/>
<polygon fill="black" stroke="black" points="269.41,-682.33 270.81,-671.82 263.16,-679.16 269.41,-682.33"/>
</g>
<!-- _openmp_mutex -->
<g id="node54" class="node">
<title>_openmp_mutex</title>
<g id="a_node54"><a xlink:href="https://github.com/conda-forge/_openmp_mutex-feedstock/pull/5" xlink:title="_openmp_mutex ✓">
<ellipse fill="#31688e" stroke="black" cx="1190.34" cy="-322" rx="81.49" ry="18"/>
<text text-anchor="middle" x="1190.34" y="-318.3" font-family="Times,serif" font-size="14.00" fill="white">_openmp_mutex ✓</text>
</a>
</g>
</g>
<!-- r&#45;conquer -->
<g id="node55" class="node">
<title>r&#45;conquer</title>
<g id="a_node55"><a xlink:href="https://github.com/conda-forge/r-conquer-feedstock" xlink:title="r conquer">
<ellipse fill="#fde725" stroke="black" cx="1190.34" cy="-250" rx="44.39" ry="18"/>
<text text-anchor="middle" x="1190.34" y="-246.3" font-family="Times,serif" font-size="14.00">r conquer</text>
</a>
</g>
</g>
<!-- _openmp_mutex&#45;&gt;r&#45;conquer -->
<g id="edge55" class="edge">
<title>_openmp_mutex&#45;&gt;r&#45;conquer</title>
<path fill="none" stroke="black" d="M1190.34,-303.7C1190.34,-295.98 1190.34,-286.71 1190.34,-278.11"/>
<polygon fill="black" stroke="black" points="1193.84,-278.1 1190.34,-268.1 1186.84,-278.1 1193.84,-278.1"/>
</g>
<!-- s2n -->
<g id="node57" class="node">
<title>s2n</title>
<g id="a_node57"><a xlink:href="https://github.com/conda-forge/s2n-feedstock/pull/11" xlink:title="s2n ❎">
<ellipse fill="#31688e" stroke="black" cx="1190.34" cy="-90" rx="34.5" ry="18"/>
<text text-anchor="middle" x="1190.34" y="-86.3" font-family="Times,serif" font-size="14.00" fill="white">s2n ❎</text>
</a>
</g>
</g>
<!-- aws&#45;c&#45;io -->
<g id="node58" class="node">
<title>aws&#45;c&#45;io</title>
<g id="a_node58"><a xlink:href="https://github.com/conda-forge/aws-c-io-feedstock" xlink:title="aws c io">
<ellipse fill="#fde725" stroke="black" cx="1190.34" cy="-18" rx="40.5" ry="18"/>
<text text-anchor="middle" x="1190.34" y="-14.3" font-family="Times,serif" font-size="14.00">aws c io</text>
</a>
</g>
</g>
<!-- s2n&#45;&gt;aws&#45;c&#45;io -->
<g id="edge57" class="edge">
<title>s2n&#45;&gt;aws&#45;c&#45;io</title>
<path fill="none" stroke="black" d="M1190.34,-71.7C1190.34,-63.98 1190.34,-54.71 1190.34,-46.11"/>
<polygon fill="black" stroke="black" points="1193.84,-46.1 1190.34,-36.1 1186.84,-46.1 1193.84,-46.1"/>
</g>
<!-- magma -->
<g id="node59" class="node">
<title>magma</title>
<g id="a_node59"><a xlink:href="https://github.com/conda-forge/magma-feedstock/pull/4" xlink:title="magma ✓">
<ellipse fill="#31688e" stroke="black" cx="279.34" cy="-870" rx="48.19" ry="18"/>
<text text-anchor="middle" x="279.34" y="-866.3" font-family="Times,serif" font-size="14.00" fill="white">magma ✓</text>
</a>
</g>
</g>
<!-- magma&#45;&gt;pytorch&#45;cpu -->
<g id="edge58" class="edge">
<title>magma&#45;&gt;pytorch&#45;cpu</title>
<path fill="none" stroke="black" d="M279.34,-851.85C279.34,-814.83 279.34,-727.18 279.34,-682.39"/>
<polygon fill="black" stroke="black" points="282.84,-682.23 279.34,-672.23 275.84,-682.23 282.84,-682.23"/>
</g>
</g>
</svg>
