<?xml version="1.0" encoding="UTF-8" standalone="no"?>
<!DOCTYPE svg PUBLIC "-//W3C//DTD SVG 1.1//EN"
 "http://www.w3.org/Graphics/SVG/1.1/DTD/svg11.dtd">
<!-- Generated by graphviz version 2.49.0 (20210829.0051)
 -->
<!-- Pages: 1 -->
<svg width="2138pt" height="952pt"
 viewBox="0.00 0.00 2138.00 952.00" xmlns="http://www.w3.org/2000/svg" xmlns:xlink="http://www.w3.org/1999/xlink">
<g id="graph0" class="graph" transform="scale(1 1) rotate(0) translate(4 948)">
<polygon fill="white" stroke="transparent" points="-4,4 -4,-948 2134,-948 2134,4 -4,4"/>
<!-- aioeasywebdav -->
<g id="node1" class="node">
<title>aioeasywebdav</title>
<g id="a_node1"><a xlink:href="https://github.com/conda-forge/aioeasywebdav-feedstock/pull/10" xlink:title="aioeasywebdav ✓">
<ellipse fill="#31688e" stroke="black" cx="1441.5" cy="-926" rx="88.5" ry="18"/>
<text text-anchor="middle" x="1441.5" y="-922.3" font-family="Times,serif" font-size="14.00" fill="white">aioeasywebdav ✓</text>
</a>
</g>
</g>
<!-- backward&#45;cpp -->
<g id="node2" class="node">
<title>backward&#45;cpp</title>
<g id="a_node2"><a xlink:href="https://github.com/conda-forge/backward-cpp-feedstock/pull/17" xlink:title="backward cpp ❎">
<ellipse fill="#31688e" stroke="black" cx="1441.5" cy="-854" rx="89.08" ry="18"/>
<text text-anchor="middle" x="1441.5" y="-850.3" font-family="Times,serif" font-size="14.00" fill="white">backward cpp ❎</text>
</a>
</g>
</g>
<!-- aioeasywebdav&#45;&gt;backward&#45;cpp -->
<!-- tzlocal -->
<g id="node6" class="node">
<title>tzlocal</title>
<g id="a_node6"><a xlink:href="https://github.com/conda-forge/tzlocal-feedstock/pull/16" xlink:title="tzlocal ❎">
<ellipse fill="#31688e" stroke="black" cx="1441.5" cy="-782" rx="55.49" ry="18"/>
<text text-anchor="middle" x="1441.5" y="-778.3" font-family="Times,serif" font-size="14.00" fill="white">tzlocal ❎</text>
</a>
</g>
</g>
<!-- backward&#45;cpp&#45;&gt;tzlocal -->
<!-- av -->
<g id="node3" class="node">
<title>av</title>
<g id="a_node3"><a xlink:href="https://github.com/conda-forge/av-feedstock/pull/41" xlink:title="av ✓">
<ellipse fill="#31688e" stroke="black" cx="1632.5" cy="-566" rx="28.7" ry="18"/>
<text text-anchor="middle" x="1632.5" y="-562.3" font-family="Times,serif" font-size="14.00" fill="white">av ✓</text>
</a>
</g>
</g>
<!-- torchvision -->
<g id="node4" class="node">
<title>torchvision</title>
<g id="a_node4"><a xlink:href="https://github.com/conda-forge/torchvision-feedstock" xlink:title="torchvision">
<ellipse fill="#fde725" stroke="black" cx="1691.5" cy="-494" rx="62.5" ry="18"/>
<text text-anchor="middle" x="1691.5" y="-490.3" font-family="Times,serif" font-size="14.00">torchvision</text>
</a>
</g>
</g>
<!-- av&#45;&gt;torchvision -->
<g id="edge2" class="edge">
<title>av&#45;&gt;torchvision</title>
<path fill="none" stroke="black" d="M1645.3,-549.81C1652.79,-540.93 1662.42,-529.5 1670.94,-519.39"/>
<polygon fill="black" stroke="black" points="1673.72,-521.53 1677.49,-511.63 1668.36,-517.02 1673.72,-521.53"/>
</g>
<!-- allennlp -->
<g id="node5" class="node">
<title>allennlp</title>
<g id="a_node5"><a xlink:href="https://github.com/conda-forge/allennlp-feedstock" xlink:title="allennlp">
<ellipse fill="#fde725" stroke="black" cx="1835.5" cy="-422" rx="48.19" ry="18"/>
<text text-anchor="middle" x="1835.5" y="-418.3" font-family="Times,serif" font-size="14.00">allennlp</text>
</a>
</g>
</g>
<!-- torchvision&#45;&gt;allennlp -->
<g id="edge3" class="edge">
<title>torchvision&#45;&gt;allennlp</title>
<path fill="none" stroke="black" d="M1722.04,-478.15C1744.34,-467.31 1774.69,-452.56 1798.39,-441.04"/>
<polygon fill="black" stroke="black" points="1799.98,-444.16 1807.45,-436.64 1796.92,-437.86 1799.98,-444.16"/>
</g>
<!-- root_numpy -->
<g id="node27" class="node">
<title>root_numpy</title>
<g id="a_node27"><a xlink:href="https://github.com/conda-forge/root_numpy-feedstock/pull/27" xlink:title="root_numpy ❎">
<ellipse fill="#31688e" stroke="black" cx="1441.5" cy="-710" rx="80" ry="18"/>
<text text-anchor="middle" x="1441.5" y="-706.3" font-family="Times,serif" font-size="14.00" fill="white">root_numpy ❎</text>
</a>
</g>
</g>
<!-- tzlocal&#45;&gt;root_numpy -->
<!-- check -->
<g id="node7" class="node">
<title>check</title>
<g id="a_node7"><a xlink:href="https://github.com/conda-forge/check-feedstock/pull/19" xlink:title="check ❎">
<ellipse fill="#31688e" stroke="black" cx="51.5" cy="-566" rx="51.5" ry="18"/>
<text text-anchor="middle" x="51.5" y="-562.3" font-family="Times,serif" font-size="14.00" fill="white">check ❎</text>
</a>
</g>
</g>
<!-- pulseaudio -->
<g id="node8" class="node">
<title>pulseaudio</title>
<g id="a_node8"><a xlink:href="https://github.com/conda-forge/pulseaudio-feedstock" xlink:title="pulseaudio">
<ellipse fill="#fde725" stroke="black" cx="126.5" cy="-494" rx="61.19" ry="18"/>
<text text-anchor="middle" x="126.5" y="-490.3" font-family="Times,serif" font-size="14.00">pulseaudio</text>
</a>
</g>
</g>
<!-- check&#45;&gt;pulseaudio -->
<g id="edge5" class="edge">
<title>check&#45;&gt;pulseaudio</title>
<path fill="none" stroke="black" d="M68.9,-548.76C78.58,-539.73 90.79,-528.33 101.48,-518.35"/>
<polygon fill="black" stroke="black" points="104.02,-520.77 108.94,-511.39 99.24,-515.65 104.02,-520.77"/>
</g>
<!-- gqrx -->
<g id="node9" class="node">
<title>gqrx</title>
<g id="a_node9"><a xlink:href="https://github.com/conda-forge/gqrx-feedstock" xlink:title="gqrx">
<ellipse fill="#fde725" stroke="black" cx="255.5" cy="-422" rx="32.5" ry="18"/>
<text text-anchor="middle" x="255.5" y="-418.3" font-family="Times,serif" font-size="14.00">gqrx</text>
</a>
</g>
</g>
<!-- pulseaudio&#45;&gt;gqrx -->
<g id="edge6" class="edge">
<title>pulseaudio&#45;&gt;gqrx</title>
<path fill="none" stroke="black" d="M154.49,-477.81C175.02,-466.67 202.9,-451.54 224.17,-440"/>
<polygon fill="black" stroke="black" points="226.01,-442.98 233.13,-435.14 222.67,-436.83 226.01,-442.98"/>
</g>
<!-- hyperspy -->
<g id="node10" class="node">
<title>hyperspy</title>
<g id="a_node10"><a xlink:href="https://github.com/conda-forge/hyperspy-feedstock" xlink:title="hyperspy">
<ellipse fill="#fde725" stroke="black" cx="661.5" cy="-638" rx="54" ry="18"/>
<text text-anchor="middle" x="661.5" y="-634.3" font-family="Times,serif" font-size="14.00">hyperspy</text>
</a>
</g>
</g>
<!-- pyqt -->
<g id="node11" class="node">
<title>pyqt</title>
<g id="a_node11"><a xlink:href="https://github.com/conda-forge/pyqt-feedstock" xlink:title="pyqt">
<ellipse fill="#fde725" stroke="black" cx="655.5" cy="-710" rx="32" ry="18"/>
<text text-anchor="middle" x="655.5" y="-706.3" font-family="Times,serif" font-size="14.00">pyqt</text>
</a>
</g>
</g>
<!-- pyqt&#45;&gt;hyperspy -->
<g id="edge7" class="edge">
<title>pyqt&#45;&gt;hyperspy</title>
<path fill="none" stroke="black" d="M656.98,-691.7C657.64,-683.98 658.44,-674.71 659.18,-666.11"/>
<polygon fill="black" stroke="black" points="662.67,-666.37 660.03,-656.1 655.69,-665.77 662.67,-666.37"/>
</g>
<!-- gnuradio -->
<g id="node12" class="node">
<title>gnuradio</title>
<g id="a_node12"><a xlink:href="https://github.com/conda-forge/gnuradio-feedstock" xlink:title="gnuradio">
<ellipse fill="#fde725" stroke="black" cx="499.5" cy="-638" rx="52" ry="18"/>
<text text-anchor="middle" x="499.5" y="-634.3" font-family="Times,serif" font-size="14.00">gnuradio</text>
</a>
</g>
</g>
<!-- pyqt&#45;&gt;gnuradio -->
<g id="edge8" class="edge">
<title>pyqt&#45;&gt;gnuradio</title>
<path fill="none" stroke="black" d="M631.12,-698.06C606.57,-687.04 568.26,-669.85 539.29,-656.85"/>
<polygon fill="black" stroke="black" points="540.41,-653.52 529.86,-652.62 537.55,-659.91 540.41,-653.52"/>
</g>
<!-- pythonocc&#45;core -->
<g id="node13" class="node">
<title>pythonocc&#45;core</title>
<g id="a_node13"><a xlink:href="https://github.com/conda-forge/pythonocc-core-feedstock" xlink:title="pythonocc core">
<ellipse fill="#fde725" stroke="black" cx="646.5" cy="-566" rx="81.49" ry="18"/>
<text text-anchor="middle" x="646.5" y="-562.3" font-family="Times,serif" font-size="14.00">pythonocc core</text>
</a>
</g>
</g>
<!-- pyqt&#45;&gt;pythonocc&#45;core -->
<g id="edge9" class="edge">
<title>pyqt&#45;&gt;pythonocc&#45;core</title>
<path fill="none" stroke="black" d="M634.51,-696.09C621.47,-686.75 605.84,-672.85 598.5,-656 592.11,-641.33 592.74,-634.93 598.5,-620 602.71,-609.09 610.31,-599.04 618.25,-590.68"/>
<polygon fill="black" stroke="black" points="620.86,-593.02 625.54,-583.52 615.96,-588.03 620.86,-593.02"/>
</g>
<!-- gnuradio&#45;&gt;gqrx -->
<g id="edge10" class="edge">
<title>gnuradio&#45;&gt;gqrx</title>
<path fill="none" stroke="black" d="M495.55,-619.89C486.64,-582.71 464.07,-496.23 442.5,-476 431.63,-465.8 346.65,-444.43 295.07,-432.17"/>
<polygon fill="black" stroke="black" points="295.76,-428.74 285.23,-429.84 294.15,-435.55 295.76,-428.74"/>
</g>
<!-- digital_rf -->
<g id="node14" class="node">
<title>digital_rf</title>
<g id="a_node14"><a xlink:href="https://github.com/conda-forge/digital_rf-feedstock" xlink:title="digital_rf">
<ellipse fill="#fde725" stroke="black" cx="380.5" cy="-566" rx="52.79" ry="18"/>
<text text-anchor="middle" x="380.5" y="-562.3" font-family="Times,serif" font-size="14.00">digital_rf</text>
</a>
</g>
</g>
<!-- gnuradio&#45;&gt;digital_rf -->
<g id="edge11" class="edge">
<title>gnuradio&#45;&gt;digital_rf</title>
<path fill="none" stroke="black" d="M474.26,-622.15C456.83,-611.9 433.44,-598.14 414.39,-586.93"/>
<polygon fill="black" stroke="black" points="416.09,-583.88 405.7,-581.82 412.55,-589.91 416.09,-583.88"/>
</g>
<!-- gnuradio&#45;osmosdr -->
<g id="node15" class="node">
<title>gnuradio&#45;osmosdr</title>
<g id="a_node15"><a xlink:href="https://github.com/conda-forge/gnuradio-osmosdr-feedstock" xlink:title="gnuradio osmosdr">
<ellipse fill="#fde725" stroke="black" cx="338.5" cy="-494" rx="95" ry="18"/>
<text text-anchor="middle" x="338.5" y="-490.3" font-family="Times,serif" font-size="14.00">gnuradio osmosdr</text>
</a>
</g>
</g>
<!-- gnuradio&#45;&gt;gnuradio&#45;osmosdr -->
<g id="edge12" class="edge">
<title>gnuradio&#45;&gt;gnuradio&#45;osmosdr</title>
<path fill="none" stroke="black" d="M452.85,-629.79C404.78,-621.29 334.65,-605.55 318.5,-584 304.87,-565.81 312.81,-540.04 322.42,-520.91"/>
<polygon fill="black" stroke="black" points="325.5,-522.58 327.18,-512.12 319.34,-519.24 325.5,-522.58"/>
</g>
<!-- gnuradio&#45;soapy -->
<g id="node16" class="node">
<title>gnuradio&#45;soapy</title>
<g id="a_node16"><a xlink:href="https://github.com/conda-forge/gnuradio-soapy-feedstock" xlink:title="gnuradio soapy">
<ellipse fill="#fde725" stroke="black" cx="427.5" cy="-422" rx="82" ry="18"/>
<text text-anchor="middle" x="427.5" y="-418.3" font-family="Times,serif" font-size="14.00">gnuradio soapy</text>
</a>
</g>
</g>
<!-- gnuradio&#45;&gt;gnuradio&#45;soapy -->
<g id="edge13" class="edge">
<title>gnuradio&#45;&gt;gnuradio&#45;soapy</title>
<path fill="none" stroke="black" d="M500.12,-619.61C500.54,-589.03 498.34,-524.28 475.5,-476 470.46,-465.35 462.56,-455.31 454.61,-446.89"/>
<polygon fill="black" stroke="black" points="456.92,-444.25 447.37,-439.64 451.96,-449.19 456.92,-444.25"/>
</g>
<!-- gnuradio&#45;satellites -->
<g id="node17" class="node">
<title>gnuradio&#45;satellites</title>
<g id="a_node17"><a xlink:href="https://github.com/conda-forge/gnuradio-satellites-feedstock" xlink:title="gnuradio satellites">
<ellipse fill="#fde725" stroke="black" cx="537.5" cy="-350" rx="97.5" ry="18"/>
<text text-anchor="middle" x="537.5" y="-346.3" font-family="Times,serif" font-size="14.00">gnuradio satellites</text>
</a>
</g>
</g>
<!-- gnuradio&#45;&gt;gnuradio&#45;satellites -->
<g id="edge14" class="edge">
<title>gnuradio&#45;&gt;gnuradio&#45;satellites</title>
<path fill="none" stroke="black" d="M503.88,-619.91C506.4,-609.57 509.46,-596.09 511.5,-584 523.97,-510 531.96,-421.73 535.46,-378.13"/>
<polygon fill="black" stroke="black" points="538.96,-378.29 536.25,-368.05 531.98,-377.74 538.96,-378.29"/>
</g>
<!-- gnuradio&#45;osmosdr&#45;&gt;gqrx -->
<g id="edge51" class="edge">
<title>gnuradio&#45;osmosdr&#45;&gt;gqrx</title>
<path fill="none" stroke="black" d="M318.41,-476.05C307.03,-466.46 292.68,-454.36 280.57,-444.14"/>
<polygon fill="black" stroke="black" points="282.5,-441.2 272.6,-437.42 277.99,-446.55 282.5,-441.2"/>
</g>
<!-- qt -->
<g id="node18" class="node">
<title>qt</title>
<g id="a_node18"><a xlink:href="https://github.com/conda-forge/qt-feedstock/pull/184" xlink:title="qt ❎">
<ellipse fill="#31688e" stroke="black" cx="743.5" cy="-782" rx="34.5" ry="18"/>
<text text-anchor="middle" x="743.5" y="-778.3" font-family="Times,serif" font-size="14.00" fill="white">qt ❎</text>
</a>
</g>
</g>
<!-- qt&#45;&gt;gqrx -->
<g id="edge23" class="edge">
<title>qt&#45;&gt;gqrx</title>
<path fill="none" stroke="black" d="M709.26,-779.22C592.26,-772.2 215.5,-741.64 215.5,-639 215.5,-639 215.5,-639 215.5,-565 215.5,-523.26 231.71,-477.11 243.5,-449.08"/>
<polygon fill="black" stroke="black" points="246.83,-450.19 247.6,-439.62 240.41,-447.4 246.83,-450.19"/>
</g>
<!-- qt&#45;&gt;pyqt -->
<g id="edge15" class="edge">
<title>qt&#45;&gt;pyqt</title>
<path fill="none" stroke="black" d="M725.27,-766.5C712.56,-756.39 695.42,-742.75 681.31,-731.53"/>
<polygon fill="black" stroke="black" points="683.41,-728.73 673.41,-725.25 679.06,-734.21 683.41,-728.73"/>
</g>
<!-- qt&#45;&gt;gnuradio -->
<g id="edge16" class="edge">
<title>qt&#45;&gt;gnuradio</title>
<path fill="none" stroke="black" d="M715.05,-771.8C688.21,-762.55 647.3,-746.97 614.5,-728 581.41,-708.87 547.23,-681.23 524.83,-661.85"/>
<polygon fill="black" stroke="black" points="526.97,-659.06 517.14,-655.11 522.35,-664.33 526.97,-659.06"/>
</g>
<!-- qwt -->
<g id="node19" class="node">
<title>qwt</title>
<g id="a_node19"><a xlink:href="https://github.com/conda-forge/qwt-feedstock" xlink:title="qwt">
<ellipse fill="#fde725" stroke="black" cx="505.5" cy="-710" rx="28.7" ry="18"/>
<text text-anchor="middle" x="505.5" y="-706.3" font-family="Times,serif" font-size="14.00">qwt</text>
</a>
</g>
</g>
<!-- qt&#45;&gt;qwt -->
<g id="edge17" class="edge">
<title>qt&#45;&gt;qwt</title>
<path fill="none" stroke="black" d="M713.84,-772.28C669.84,-759.34 587.44,-735.1 540.53,-721.3"/>
<polygon fill="black" stroke="black" points="541.39,-717.91 530.81,-718.44 539.42,-724.62 541.39,-717.91"/>
</g>
<!-- pivy -->
<g id="node20" class="node">
<title>pivy</title>
<g id="a_node20"><a xlink:href="https://github.com/conda-forge/pivy-feedstock" xlink:title="pivy">
<ellipse fill="#fde725" stroke="black" cx="776.5" cy="-566" rx="30.59" ry="18"/>
<text text-anchor="middle" x="776.5" y="-562.3" font-family="Times,serif" font-size="14.00">pivy</text>
</a>
</g>
</g>
<!-- qt&#45;&gt;pivy -->
<g id="edge18" class="edge">
<title>qt&#45;&gt;pivy</title>
<path fill="none" stroke="black" d="M744.72,-763.96C747,-734.44 752.62,-671.98 762.5,-620 764.12,-611.45 766.37,-602.25 768.59,-593.96"/>
<polygon fill="black" stroke="black" points="772.04,-594.62 771.34,-584.05 765.3,-592.75 772.04,-594.62"/>
</g>
<!-- pyside2 -->
<g id="node21" class="node">
<title>pyside2</title>
<g id="a_node21"><a xlink:href="https://github.com/conda-forge/pyside2-feedstock" xlink:title="pyside2">
<ellipse fill="#fde725" stroke="black" cx="898.5" cy="-638" rx="47" ry="18"/>
<text text-anchor="middle" x="898.5" y="-634.3" font-family="Times,serif" font-size="14.00">pyside2</text>
</a>
</g>
</g>
<!-- qt&#45;&gt;pyside2 -->
<g id="edge19" class="edge">
<title>qt&#45;&gt;pyside2</title>
<path fill="none" stroke="black" d="M759.79,-766.07C786.88,-741.26 841.35,-691.36 873.38,-662.01"/>
<polygon fill="black" stroke="black" points="876,-664.36 881.01,-655.02 871.27,-659.2 876,-664.36"/>
</g>
<!-- soqt -->
<g id="node22" class="node">
<title>soqt</title>
<g id="a_node22"><a xlink:href="https://github.com/conda-forge/soqt-feedstock" xlink:title="soqt">
<ellipse fill="#fde725" stroke="black" cx="802.5" cy="-638" rx="30.59" ry="18"/>
<text text-anchor="middle" x="802.5" y="-634.3" font-family="Times,serif" font-size="14.00">soqt</text>
</a>
</g>
</g>
<!-- qt&#45;&gt;soqt -->
<g id="edge20" class="edge">
<title>qt&#45;&gt;soqt</title>
<path fill="none" stroke="black" d="M750.5,-764.15C760.66,-739.71 779.58,-694.17 791.58,-665.29"/>
<polygon fill="black" stroke="black" points="794.9,-666.4 795.51,-655.82 788.44,-663.72 794.9,-666.4"/>
</g>
<!-- freecad -->
<g id="node23" class="node">
<title>freecad</title>
<g id="a_node23"><a xlink:href="https://github.com/conda-forge/freecad-feedstock" xlink:title="freecad">
<ellipse fill="#fde725" stroke="black" cx="918.5" cy="-494" rx="45.5" ry="18"/>
<text text-anchor="middle" x="918.5" y="-490.3" font-family="Times,serif" font-size="14.00">freecad</text>
</a>
</g>
</g>
<!-- qt&#45;&gt;freecad -->
<g id="edge21" class="edge">
<title>qt&#45;&gt;freecad</title>
<path fill="none" stroke="black" d="M776.23,-776.19C865.85,-762.28 1111.71,-718.96 1158.5,-656 1177.09,-630.98 1143.75,-553.97 1137.5,-548 1113.94,-525.51 1028.39,-509.86 971.45,-501.66"/>
<polygon fill="black" stroke="black" points="971.91,-498.19 961.52,-500.26 970.93,-505.12 971.91,-498.19"/>
</g>
<!-- geant4 -->
<g id="node24" class="node">
<title>geant4</title>
<g id="a_node24"><a xlink:href="https://github.com/conda-forge/geant4-feedstock" xlink:title="geant4">
<ellipse fill="#fde725" stroke="black" cx="1248.5" cy="-566" rx="43" ry="18"/>
<text text-anchor="middle" x="1248.5" y="-562.3" font-family="Times,serif" font-size="14.00">geant4</text>
</a>
</g>
</g>
<!-- qt&#45;&gt;geant4 -->
<g id="edge22" class="edge">
<title>qt&#45;&gt;geant4</title>
<path fill="none" stroke="black" d="M778.13,-781.47C871.89,-782.06 1127.87,-778.85 1191.5,-728 1232.51,-695.23 1244.06,-630.8 1247.28,-594.16"/>
<polygon fill="black" stroke="black" points="1250.77,-594.41 1248.01,-584.18 1243.79,-593.9 1250.77,-594.41"/>
</g>
<!-- qwt&#45;&gt;gnuradio -->
<g id="edge24" class="edge">
<title>qwt&#45;&gt;gnuradio</title>
<path fill="none" stroke="black" d="M504.02,-691.7C503.36,-683.98 502.56,-674.71 501.82,-666.11"/>
<polygon fill="black" stroke="black" points="505.31,-665.77 500.97,-656.1 498.33,-666.37 505.31,-665.77"/>
</g>
<!-- pivy&#45;&gt;freecad -->
<g id="edge25" class="edge">
<title>pivy&#45;&gt;freecad</title>
<path fill="none" stroke="black" d="M799.31,-553.75C821.59,-542.77 855.84,-525.89 881.92,-513.03"/>
<polygon fill="black" stroke="black" points="883.7,-516.06 891.12,-508.5 880.61,-509.78 883.7,-516.06"/>
</g>
<!-- pyside2&#45;&gt;pivy -->
<g id="edge26" class="edge">
<title>pyside2&#45;&gt;pivy</title>
<path fill="none" stroke="black" d="M873.52,-622.67C854.08,-611.52 827.06,-596.01 806.46,-584.19"/>
<polygon fill="black" stroke="black" points="808.2,-581.15 797.79,-579.21 804.72,-587.23 808.2,-581.15"/>
</g>
<!-- pyside2&#45;&gt;freecad -->
<g id="edge27" class="edge">
<title>pyside2&#45;&gt;freecad</title>
<path fill="none" stroke="black" d="M880.4,-621.3C870.7,-611.65 859.7,-598.4 854.5,-584 849.07,-568.95 847.69,-562.48 854.5,-548 860.82,-534.55 872.42,-523.35 884.02,-514.76"/>
<polygon fill="black" stroke="black" points="886.16,-517.53 892.39,-508.97 882.18,-511.77 886.16,-517.53"/>
</g>
<!-- cctbx&#45;base -->
<g id="node25" class="node">
<title>cctbx&#45;base</title>
<g id="a_node25"><a xlink:href="https://github.com/conda-forge/cctbx-base-feedstock" xlink:title="cctbx base">
<ellipse fill="#fde725" stroke="black" cx="1051.5" cy="-566" rx="60" ry="18"/>
<text text-anchor="middle" x="1051.5" y="-562.3" font-family="Times,serif" font-size="14.00">cctbx base</text>
</a>
</g>
</g>
<!-- pyside2&#45;&gt;cctbx&#45;base -->
<g id="edge28" class="edge">
<title>pyside2&#45;&gt;cctbx&#45;base</title>
<path fill="none" stroke="black" d="M927.64,-623.67C951.19,-612.89 984.62,-597.6 1010.81,-585.62"/>
<polygon fill="black" stroke="black" points="1012.46,-588.71 1020.1,-581.37 1009.55,-582.34 1012.46,-588.71"/>
</g>
<!-- soqt&#45;&gt;pivy -->
<g id="edge29" class="edge">
<title>soqt&#45;&gt;pivy</title>
<path fill="none" stroke="black" d="M796.21,-620.05C793.24,-612.06 789.62,-602.33 786.31,-593.4"/>
<polygon fill="black" stroke="black" points="789.5,-591.94 782.74,-583.79 782.94,-594.38 789.5,-591.94"/>
</g>
<!-- speex -->
<g id="node26" class="node">
<title>speex</title>
<g id="a_node26"><a xlink:href="https://github.com/conda-forge/speex-feedstock/pull/7" xlink:title="speex ❎">
<ellipse fill="#31688e" stroke="black" cx="131.5" cy="-638" rx="52" ry="18"/>
<text text-anchor="middle" x="131.5" y="-634.3" font-family="Times,serif" font-size="14.00" fill="white">speex ❎</text>
</a>
</g>
</g>
<!-- speex&#45;&gt;pulseaudio -->
<g id="edge30" class="edge">
<title>speex&#45;&gt;pulseaudio</title>
<path fill="none" stroke="black" d="M130.9,-619.87C130.04,-595.67 128.48,-551.21 127.46,-522.39"/>
<polygon fill="black" stroke="black" points="130.96,-522.06 127.11,-512.19 123.96,-522.31 130.96,-522.06"/>
</g>
<!-- ibm_db -->
<g id="node31" class="node">
<title>ibm_db</title>
<g id="a_node31"><a xlink:href="https://github.com/conda-forge/ibm_db-feedstock/pull/33" xlink:title="ibm_db ❎">
<ellipse fill="#31688e" stroke="black" cx="1441.5" cy="-638" rx="58.5" ry="18"/>
<text text-anchor="middle" x="1441.5" y="-634.3" font-family="Times,serif" font-size="14.00" fill="white">ibm_db ❎</text>
</a>
</g>
</g>
<!-- root_numpy&#45;&gt;ibm_db -->
<!-- smesh -->
<g id="node28" class="node">
<title>smesh</title>
<g id="a_node28"><a xlink:href="https://github.com/conda-forge/smesh-feedstock/pull/48" xlink:title="smesh ❎">
<ellipse fill="#31688e" stroke="black" cx="918.5" cy="-566" rx="54.69" ry="18"/>
<text text-anchor="middle" x="918.5" y="-562.3" font-family="Times,serif" font-size="14.00" fill="white">smesh ❎</text>
</a>
</g>
</g>
<!-- smesh&#45;&gt;freecad -->
<g id="edge32" class="edge">
<title>smesh&#45;&gt;freecad</title>
<path fill="none" stroke="black" d="M918.5,-547.7C918.5,-539.98 918.5,-530.71 918.5,-522.11"/>
<polygon fill="black" stroke="black" points="922,-522.1 918.5,-512.1 915,-522.1 922,-522.1"/>
</g>
<!-- gperftools -->
<g id="node29" class="node">
<title>gperftools</title>
<g id="a_node29"><a xlink:href="https://github.com/conda-forge/gperftools-feedstock/pull/11" xlink:title="gperftools ❎">
<ellipse fill="#31688e" stroke="black" cx="1939.5" cy="-566" rx="72.29" ry="18"/>
<text text-anchor="middle" x="1939.5" y="-562.3" font-family="Times,serif" font-size="14.00" fill="white">gperftools ❎</text>
</a>
</g>
</g>
<!-- sentencepiece -->
<g id="node30" class="node">
<title>sentencepiece</title>
<g id="a_node30"><a xlink:href="https://github.com/conda-forge/sentencepiece-feedstock" xlink:title="sentencepiece">
<ellipse fill="#fde725" stroke="black" cx="1888.5" cy="-494" rx="76.89" ry="18"/>
<text text-anchor="middle" x="1888.5" y="-490.3" font-family="Times,serif" font-size="14.00">sentencepiece</text>
</a>
</g>
</g>
<!-- gperftools&#45;&gt;sentencepiece -->
<g id="edge33" class="edge">
<title>gperftools&#45;&gt;sentencepiece</title>
<path fill="none" stroke="black" d="M1927.15,-548.05C1921.02,-539.63 1913.48,-529.28 1906.69,-519.97"/>
<polygon fill="black" stroke="black" points="1909.45,-517.81 1900.73,-511.79 1903.79,-521.93 1909.45,-517.81"/>
</g>
<!-- sentencepiece&#45;&gt;allennlp -->
<g id="edge34" class="edge">
<title>sentencepiece&#45;&gt;allennlp</title>
<path fill="none" stroke="black" d="M1875.67,-476.05C1869.29,-467.63 1861.45,-457.28 1854.4,-447.97"/>
<polygon fill="black" stroke="black" points="1857.04,-445.65 1848.21,-439.79 1851.46,-449.87 1857.04,-445.65"/>
</g>
<!-- nvcc -->
<g id="node35" class="node">
<title>nvcc</title>
<g id="a_node35"><a xlink:href="https://github.com/conda-forge/nvcc-feedstock/pull/67" xlink:title="nvcc ✓">
<ellipse fill="#31688e" stroke="black" cx="1441.5" cy="-566" rx="39" ry="18"/>
<text text-anchor="middle" x="1441.5" y="-562.3" font-family="Times,serif" font-size="14.00" fill="white">nvcc ✓</text>
</a>
</g>
</g>
<!-- ibm_db&#45;&gt;nvcc -->
<!-- pytorch&#45;cpu -->
<g id="node32" class="node">
<title>pytorch&#45;cpu</title>
<g id="a_node32"><a xlink:href="https://github.com/conda-forge/pytorch-cpu-feedstock" xlink:title="pytorch cpu">
<ellipse fill="#fde725" stroke="black" cx="1783.5" cy="-566" rx="65.79" ry="18"/>
<text text-anchor="middle" x="1783.5" y="-562.3" font-family="Times,serif" font-size="14.00">pytorch cpu</text>
</a>
</g>
</g>
<!-- pytorch&#45;cpu&#45;&gt;torchvision -->
<g id="edge36" class="edge">
<title>pytorch&#45;cpu&#45;&gt;torchvision</title>
<path fill="none" stroke="black" d="M1762.16,-548.76C1749.85,-539.4 1734.2,-527.49 1720.76,-517.26"/>
<polygon fill="black" stroke="black" points="1722.8,-514.42 1712.72,-511.15 1718.56,-519.99 1722.8,-514.42"/>
</g>
<!-- pytorch&#45;cpu&#45;&gt;allennlp -->
<g id="edge37" class="edge">
<title>pytorch&#45;cpu&#45;&gt;allennlp</title>
<path fill="none" stroke="black" d="M1785.38,-547.75C1787.79,-529.43 1792.86,-499.88 1802.5,-476 1806.35,-466.45 1811.89,-456.69 1817.33,-448.19"/>
<polygon fill="black" stroke="black" points="1820.26,-450.11 1822.89,-439.85 1814.43,-446.23 1820.26,-450.11"/>
</g>
<!-- gfortran_osx&#45;64 -->
<g id="node33" class="node">
<title>gfortran_osx&#45;64</title>
<g id="a_node33"><a xlink:href="https://github.com/conda-forge/gfortran_osx-64-feedstock" xlink:title="gfortran_osx 64">
<ellipse fill="#fde725" stroke="black" cx="1441.5" cy="-54" rx="84" ry="18"/>
<text text-anchor="middle" x="1441.5" y="-50.3" font-family="Times,serif" font-size="14.00">gfortran_osx 64</text>
</a>
</g>
</g>
<!-- grpcio&#45;gcp -->
<g id="node34" class="node">
<title>grpcio&#45;gcp</title>
<g id="a_node34"><a xlink:href="https://github.com/conda-forge/grpcio-gcp-feedstock/pull/9" xlink:title="grpcio gcp ❎">
<ellipse fill="#31688e" stroke="black" cx="2056.5" cy="-494" rx="73.5" ry="18"/>
<text text-anchor="middle" x="2056.5" y="-490.3" font-family="Times,serif" font-size="14.00" fill="white">grpcio gcp ❎</text>
</a>
</g>
</g>
<!-- grpcio&#45;gcp&#45;&gt;allennlp -->
<g id="edge38" class="edge">
<title>grpcio&#45;gcp&#45;&gt;allennlp</title>
<path fill="none" stroke="black" d="M2013.36,-479.34C1975.2,-467.25 1919.69,-449.67 1880.86,-437.37"/>
<polygon fill="black" stroke="black" points="1881.47,-433.89 1870.88,-434.21 1879.36,-440.56 1881.47,-433.89"/>
</g>
<!-- proj -->
<g id="node43" class="node">
<title>proj</title>
<g id="a_node43"><a xlink:href="https://github.com/conda-forge/proj-feedstock" xlink:title="proj">
<ellipse fill="#35b779" stroke="black" cx="1441.5" cy="-494" rx="29.5" ry="18"/>
<text text-anchor="middle" x="1441.5" y="-490.3" font-family="Times,serif" font-size="14.00">proj</text>
</a>
</g>
</g>
<!-- nvcc&#45;&gt;proj -->
<!-- cudatoolkit -->
<g id="node36" class="node">
<title>cudatoolkit</title>
<g id="a_node36"><a xlink:href="https://github.com/conda-forge/cudatoolkit-feedstock/pull/4" xlink:title="cudatoolkit ❎">
<ellipse fill="#31688e" stroke="black" cx="1684.5" cy="-710" rx="76.89" ry="18"/>
<text text-anchor="middle" x="1684.5" y="-706.3" font-family="Times,serif" font-size="14.00" fill="white">cudatoolkit ❎</text>
</a>
</g>
</g>
<!-- cudnn -->
<g id="node37" class="node">
<title>cudnn</title>
<g id="a_node37"><a xlink:href="https://github.com/conda-forge/cudnn-feedstock" xlink:title="cudnn">
<ellipse fill="#fde725" stroke="black" cx="1629.5" cy="-638" rx="39" ry="18"/>
<text text-anchor="middle" x="1629.5" y="-634.3" font-family="Times,serif" font-size="14.00">cudnn</text>
</a>
</g>
</g>
<!-- cudatoolkit&#45;&gt;cudnn -->
<g id="edge40" class="edge">
<title>cudatoolkit&#45;&gt;cudnn</title>
<path fill="none" stroke="black" d="M1671.19,-692.05C1664.4,-683.42 1656.03,-672.76 1648.57,-663.27"/>
<polygon fill="black" stroke="black" points="1651.24,-661.01 1642.31,-655.31 1645.74,-665.33 1651.24,-661.01"/>
</g>
<!-- cutensor -->
<g id="node38" class="node">
<title>cutensor</title>
<g id="a_node38"><a xlink:href="https://github.com/conda-forge/cutensor-feedstock" xlink:title="cutensor">
<ellipse fill="#fde725" stroke="black" cx="1738.5" cy="-638" rx="51.5" ry="18"/>
<text text-anchor="middle" x="1738.5" y="-634.3" font-family="Times,serif" font-size="14.00">cutensor</text>
</a>
</g>
</g>
<!-- cudatoolkit&#45;&gt;cutensor -->
<g id="edge41" class="edge">
<title>cudatoolkit&#45;&gt;cutensor</title>
<path fill="none" stroke="black" d="M1697.57,-692.05C1704.07,-683.63 1712.06,-673.28 1719.24,-663.97"/>
<polygon fill="black" stroke="black" points="1722.21,-665.84 1725.55,-655.79 1716.67,-661.57 1722.21,-665.84"/>
</g>
<!-- cudnn&#45;&gt;torchvision -->
<g id="edge42" class="edge">
<title>cudnn&#45;&gt;torchvision</title>
<path fill="none" stroke="black" d="M1644.79,-621.04C1653.52,-611.1 1663.99,-597.65 1670.5,-584 1679.87,-564.36 1685.23,-540.23 1688.18,-522.05"/>
<polygon fill="black" stroke="black" points="1691.65,-522.52 1689.66,-512.12 1684.73,-521.49 1691.65,-522.52"/>
</g>
<!-- cudnn&#45;&gt;pytorch&#45;cpu -->
<g id="edge43" class="edge">
<title>cudnn&#45;&gt;pytorch&#45;cpu</title>
<path fill="none" stroke="black" d="M1656.32,-624.81C1679.91,-614.08 1714.63,-598.3 1741.83,-585.94"/>
<polygon fill="black" stroke="black" points="1743.46,-589.05 1751.11,-581.72 1740.56,-582.67 1743.46,-589.05"/>
</g>
<!-- libspnav -->
<g id="node39" class="node">
<title>libspnav</title>
<g id="a_node39"><a xlink:href="https://github.com/conda-forge/libspnav-feedstock/pull/2" xlink:title="libspnav ❎">
<ellipse fill="#31688e" stroke="black" cx="1085.5" cy="-638" rx="63.89" ry="18"/>
<text text-anchor="middle" x="1085.5" y="-634.3" font-family="Times,serif" font-size="14.00" fill="white">libspnav ❎</text>
</a>
</g>
</g>
<!-- libspnav&#45;&gt;freecad -->
<g id="edge44" class="edge">
<title>libspnav&#45;&gt;freecad</title>
<path fill="none" stroke="black" d="M1101.1,-620.51C1117.14,-601.51 1137.54,-570.09 1120.5,-548 1102.4,-524.54 1025.05,-509.43 971.5,-501.57"/>
<polygon fill="black" stroke="black" points="971.86,-498.09 961.47,-500.14 970.87,-505.02 971.86,-498.09"/>
</g>
<!-- libv8 -->
<g id="node40" class="node">
<title>libv8</title>
<g id="a_node40"><a xlink:href="https://github.com/conda-forge/libv8-feedstock/pull/66" xlink:title="libv8 ❎">
<ellipse fill="#31688e" stroke="black" cx="1860.5" cy="-126" rx="48.19" ry="18"/>
<text text-anchor="middle" x="1860.5" y="-122.3" font-family="Times,serif" font-size="14.00" fill="white">libv8 ❎</text>
</a>
</g>
</g>
<!-- r&#45;v8 -->
<g id="node41" class="node">
<title>r&#45;v8</title>
<g id="a_node41"><a xlink:href="https://github.com/conda-forge/r-v8-feedstock" xlink:title="r v8">
<ellipse fill="#fde725" stroke="black" cx="1860.5" cy="-54" rx="29.5" ry="18"/>
<text text-anchor="middle" x="1860.5" y="-50.3" font-family="Times,serif" font-size="14.00">r v8</text>
</a>
</g>
</g>
<!-- libv8&#45;&gt;r&#45;v8 -->
<g id="edge45" class="edge">
<title>libv8&#45;&gt;r&#45;v8</title>
<path fill="none" stroke="black" d="M1860.5,-107.7C1860.5,-99.98 1860.5,-90.71 1860.5,-82.11"/>
<polygon fill="black" stroke="black" points="1864,-82.1 1860.5,-72.1 1857,-82.1 1864,-82.1"/>
</g>
<!-- clang&#45;compiler&#45;activation -->
<g id="node42" class="node">
<title>clang&#45;compiler&#45;activation</title>
<g id="a_node42"><a xlink:href="https://github.com/conda-forge/clang-compiler-activation-feedstock/pull/67" xlink:title="clang compiler activation ❎">
<ellipse fill="#31688e" stroke="black" cx="1441.5" cy="-126" rx="141.88" ry="18"/>
<text text-anchor="middle" x="1441.5" y="-122.3" font-family="Times,serif" font-size="14.00" fill="white">clang compiler activation ❎</text>
</a>
</g>
</g>
<!-- clang&#45;compiler&#45;activation&#45;&gt;gfortran_osx&#45;64 -->
<g id="edge46" class="edge">
<title>clang&#45;compiler&#45;activation&#45;&gt;gfortran_osx&#45;64</title>
<path fill="none" stroke="black" d="M1441.5,-107.7C1441.5,-99.98 1441.5,-90.71 1441.5,-82.11"/>
<polygon fill="black" stroke="black" points="1445,-82.1 1441.5,-72.1 1438,-82.1 1445,-82.1"/>
</g>
<!-- jaeger -->
<g id="node44" class="node">
<title>jaeger</title>
<g id="a_node44"><a xlink:href="https://github.com/conda-forge/jaeger-feedstock/pull/12" xlink:title="jaeger ❎">
<ellipse fill="#31688e" stroke="black" cx="1441.5" cy="-422" rx="54" ry="18"/>
<text text-anchor="middle" x="1441.5" y="-418.3" font-family="Times,serif" font-size="14.00" fill="white">jaeger ❎</text>
</a>
</g>
</g>
<!-- proj&#45;&gt;jaeger -->
<!-- fa2 -->
<g id="node46" class="node">
<title>fa2</title>
<g id="a_node46"><a xlink:href="https://github.com/conda-forge/fa2-feedstock/pull/4" xlink:title="fa2 ❎">
<ellipse fill="#31688e" stroke="black" cx="1441.5" cy="-350" rx="39.79" ry="18"/>
<text text-anchor="middle" x="1441.5" y="-346.3" font-family="Times,serif" font-size="14.00" fill="white">fa2 ❎</text>
</a>
</g>
</g>
<!-- jaeger&#45;&gt;fa2 -->
<!-- nccl -->
<g id="node45" class="node">
<title>nccl</title>
<g id="a_node45"><a xlink:href="https://github.com/conda-forge/nccl-feedstock/pull/51" xlink:title="nccl ✓">
<ellipse fill="#31688e" stroke="black" cx="1844.5" cy="-638" rx="36.5" ry="18"/>
<text text-anchor="middle" x="1844.5" y="-634.3" font-family="Times,serif" font-size="14.00" fill="white">nccl ✓</text>
</a>
</g>
</g>
<!-- nccl&#45;&gt;pytorch&#45;cpu -->
<g id="edge49" class="edge">
<title>nccl&#45;&gt;pytorch&#45;cpu</title>
<path fill="none" stroke="black" d="M1830.66,-621.12C1823,-612.33 1813.33,-601.23 1804.74,-591.37"/>
<polygon fill="black" stroke="black" points="1807.35,-589.04 1798.14,-583.8 1802.07,-593.64 1807.35,-589.04"/>
</g>
<!-- dm&#45;tree -->
<g id="node47" class="node">
<title>dm&#45;tree</title>
<g id="a_node47"><a xlink:href="https://github.com/conda-forge/dm-tree-feedstock/pull/4" xlink:title="dm tree ❎">
<ellipse fill="#31688e" stroke="black" cx="1441.5" cy="-278" rx="61.99" ry="18"/>
<text text-anchor="middle" x="1441.5" y="-274.3" font-family="Times,serif" font-size="14.00" fill="white">dm tree ❎</text>
</a>
</g>
</g>
<!-- fa2&#45;&gt;dm&#45;tree -->
<!-- heaptrack -->
<g id="node48" class="node">
<title>heaptrack</title>
<g id="a_node48"><a xlink:href="https://github.com/conda-forge/heaptrack-feedstock/pull/2" xlink:title="heaptrack ❎">
<ellipse fill="#31688e" stroke="black" cx="1441.5" cy="-206" rx="71.5" ry="18"/>
<text text-anchor="middle" x="1441.5" y="-202.3" font-family="Times,serif" font-size="14.00" fill="white">heaptrack ❎</text>
</a>
</g>
</g>
<!-- dm&#45;tree&#45;&gt;heaptrack -->
<!-- magma -->
<g id="node49" class="node">
<title>magma</title>
<g id="a_node49"><a xlink:href="https://github.com/conda-forge/magma-feedstock/pull/9" xlink:title="magma ✓">
<ellipse fill="#31688e" stroke="black" cx="1909.5" cy="-710" rx="52" ry="18"/>
<text text-anchor="middle" x="1909.5" y="-706.3" font-family="Times,serif" font-size="14.00" fill="white">magma ✓</text>
</a>
</g>
</g>
<!-- magma&#45;&gt;pytorch&#45;cpu -->
<g id="edge54" class="edge">
<title>magma&#45;&gt;pytorch&#45;cpu</title>
<path fill="none" stroke="black" d="M1909.84,-691.76C1909.35,-672.36 1905.8,-640.83 1889.5,-620 1876.37,-603.23 1856.53,-591.36 1837.55,-583.16"/>
<polygon fill="black" stroke="black" points="1838.62,-579.82 1828.04,-579.32 1836,-586.31 1838.62,-579.82"/>
</g>
<!-- libhiredis -->
<g id="node50" class="node">
<title>libhiredis</title>
<g id="a_node50"><a xlink:href="https://github.com/conda-forge/libhiredis-feedstock/pull/2" xlink:title="libhiredis ✓">
<ellipse fill="#31688e" stroke="black" cx="645.5" cy="-162" rx="61.99" ry="18"/>
<text text-anchor="middle" x="645.5" y="-158.3" font-family="Times,serif" font-size="14.00" fill="white">libhiredis ✓</text>
</a>
</g>
</g>
<!-- memory&#45;allocator -->
<g id="node51" class="node">
<title>memory&#45;allocator</title>
<g id="a_node51"><a xlink:href="https://github.com/conda-forge/memory-allocator-feedstock/pull/3" xlink:title="memory allocator ❎">
<ellipse fill="#31688e" stroke="black" cx="645.5" cy="-90" rx="106.68" ry="18"/>
<text text-anchor="middle" x="645.5" y="-86.3" font-family="Times,serif" font-size="14.00" fill="white">memory allocator ❎</text>
</a>
</g>
</g>
<!-- libhiredis&#45;&gt;memory&#45;allocator -->
<!-- libfido2 -->
<g id="node52" class="node">
<title>libfido2</title>
<g id="a_node52"><a xlink:href="https://github.com/conda-forge/libfido2-feedstock" xlink:title="libfido2">
<ellipse fill="#35b779" stroke="black" cx="645.5" cy="-18" rx="45.5" ry="18"/>
<text text-anchor="middle" x="645.5" y="-14.3" font-family="Times,serif" font-size="14.00">libfido2</text>
</a>
</g>
</g>
<!-- memory&#45;allocator&#45;&gt;libfido2 -->
</g>
</svg>
