<?xml version="1.0" encoding="UTF-8" standalone="no"?>
<!DOCTYPE svg PUBLIC "-//W3C//DTD SVG 1.1//EN"
 "http://www.w3.org/Graphics/SVG/1.1/DTD/svg11.dtd">
<!-- Generated by graphviz version 2.47.2 (20210527.1257)
 -->
<!-- Pages: 1 -->
<svg width="2630pt" height="880pt"
 viewBox="0.00 0.00 2629.50 880.00" xmlns="http://www.w3.org/2000/svg" xmlns:xlink="http://www.w3.org/1999/xlink">
<g id="graph0" class="graph" transform="scale(1 1) rotate(0) translate(4 876)">
<polygon fill="white" stroke="transparent" points="-4,4 -4,-876 2625.5,-876 2625.5,4 -4,4"/>
<!-- aioeasywebdav -->
<g id="node1" class="node">
<title>aioeasywebdav</title>
<g id="a_node1"><a xlink:href="https://github.com/conda-forge/aioeasywebdav-feedstock/pull/10" xlink:title="aioeasywebdav ✓">
<ellipse fill="#31688e" stroke="black" cx="2530.5" cy="-854" rx="91" ry="18"/>
<text text-anchor="middle" x="2530.5" y="-850.3" font-family="Times-Roman" font-size="14.00" fill="white">aioeasywebdav ✓</text>
</a>
</g>
</g>
<!-- pythran -->
<g id="node2" class="node">
<title>pythran</title>
<g id="a_node2"><a xlink:href="https://github.com/conda-forge/pythran-feedstock/pull/50" xlink:title="pythran ❎">
<ellipse fill="#31688e" stroke="black" cx="2530.5" cy="-782" rx="60.5" ry="18"/>
<text text-anchor="middle" x="2530.5" y="-778.3" font-family="Times-Roman" font-size="14.00" fill="white">pythran ❎</text>
</a>
</g>
</g>
<!-- aioeasywebdav&#45;&gt;pythran -->
<!-- root_numpy -->
<g id="node36" class="node">
<title>root_numpy</title>
<g id="a_node36"><a xlink:href="https://github.com/conda-forge/root_numpy-feedstock/pull/25" xlink:title="root_numpy ❎">
<ellipse fill="#31688e" stroke="black" cx="2530.5" cy="-710" rx="78.79" ry="18"/>
<text text-anchor="middle" x="2530.5" y="-706.3" font-family="Times-Roman" font-size="14.00" fill="white">root_numpy ❎</text>
</a>
</g>
</g>
<!-- pythran&#45;&gt;root_numpy -->
<!-- check -->
<g id="node3" class="node">
<title>check</title>
<g id="a_node3"><a xlink:href="https://github.com/conda-forge/check-feedstock/pull/19" xlink:title="check ❎">
<ellipse fill="#31688e" stroke="black" cx="51.5" cy="-530" rx="51.5" ry="18"/>
<text text-anchor="middle" x="51.5" y="-526.3" font-family="Times-Roman" font-size="14.00" fill="white">check ❎</text>
</a>
</g>
</g>
<!-- pulseaudio -->
<g id="node4" class="node">
<title>pulseaudio</title>
<g id="a_node4"><a xlink:href="https://github.com/conda-forge/pulseaudio-feedstock" xlink:title="pulseaudio">
<ellipse fill="#fde725" stroke="black" cx="127.5" cy="-458" rx="60" ry="18"/>
<text text-anchor="middle" x="127.5" y="-454.3" font-family="Times-Roman" font-size="14.00">pulseaudio</text>
</a>
</g>
</g>
<!-- check&#45;&gt;pulseaudio -->
<g id="edge2" class="edge">
<title>check&#45;&gt;pulseaudio</title>
<path fill="none" stroke="black" d="M69.13,-512.76C78.94,-503.73 91.32,-492.33 102.15,-482.35"/>
<polygon fill="black" stroke="black" points="104.72,-484.74 109.71,-475.39 99.98,-479.59 104.72,-484.74"/>
</g>
<!-- gqrx -->
<g id="node5" class="node">
<title>gqrx</title>
<g id="a_node5"><a xlink:href="https://github.com/conda-forge/gqrx-feedstock" xlink:title="gqrx">
<ellipse fill="#fde725" stroke="black" cx="255.5" cy="-386" rx="31.4" ry="18"/>
<text text-anchor="middle" x="255.5" y="-382.3" font-family="Times-Roman" font-size="14.00">gqrx</text>
</a>
</g>
</g>
<!-- pulseaudio&#45;&gt;gqrx -->
<g id="edge3" class="edge">
<title>pulseaudio&#45;&gt;gqrx</title>
<path fill="none" stroke="black" d="M154.96,-441.98C175.44,-430.79 203.42,-415.48 224.66,-403.86"/>
<polygon fill="black" stroke="black" points="226.51,-406.84 233.61,-398.97 223.15,-400.7 226.51,-406.84"/>
</g>
<!-- cherrypy -->
<g id="node6" class="node">
<title>cherrypy</title>
<g id="a_node6"><a xlink:href="https://github.com/conda-forge/cherrypy-feedstock" xlink:title="cherrypy">
<ellipse fill="#fde725" stroke="black" cx="2352.5" cy="-458" rx="50.89" ry="18"/>
<text text-anchor="middle" x="2352.5" y="-454.3" font-family="Times-Roman" font-size="14.00">cherrypy</text>
</a>
</g>
</g>
<!-- allennlp -->
<g id="node7" class="node">
<title>allennlp</title>
<g id="a_node7"><a xlink:href="https://github.com/conda-forge/allennlp-feedstock" xlink:title="allennlp">
<ellipse fill="#fde725" stroke="black" cx="2094.5" cy="-386" rx="46.29" ry="18"/>
<text text-anchor="middle" x="2094.5" y="-382.3" font-family="Times-Roman" font-size="14.00">allennlp</text>
</a>
</g>
</g>
<!-- cherrypy&#45;&gt;allennlp -->
<g id="edge4" class="edge">
<title>cherrypy&#45;&gt;allennlp</title>
<path fill="none" stroke="black" d="M2313.6,-446.44C2267.37,-433.9 2190.32,-413 2140.99,-399.61"/>
<polygon fill="black" stroke="black" points="2141.78,-396.2 2131.21,-396.96 2139.95,-402.96 2141.78,-396.2"/>
</g>
<!-- googleapis&#45;common&#45;protos -->
<g id="node8" class="node">
<title>googleapis&#45;common&#45;protos</title>
<g id="a_node8"><a xlink:href="https://github.com/conda-forge/googleapis-common-protos-feedstock/pull/28" xlink:title="googleapis common protos ✓">
<ellipse fill="#31688e" stroke="black" cx="1515.5" cy="-458" rx="143.77" ry="18"/>
<text text-anchor="middle" x="1515.5" y="-454.3" font-family="Times-Roman" font-size="14.00" fill="white">googleapis common protos ✓</text>
</a>
</g>
</g>
<!-- googleapis&#45;common&#45;protos&#45;&gt;allennlp -->
<g id="edge5" class="edge">
<title>googleapis&#45;common&#45;protos&#45;&gt;allennlp</title>
<path fill="none" stroke="black" d="M1615.03,-444.97C1738.41,-430.05 1944.22,-405.17 2041.05,-393.46"/>
<polygon fill="black" stroke="black" points="2041.68,-396.91 2051.19,-392.24 2040.84,-389.96 2041.68,-396.91"/>
</g>
<!-- hyperspy -->
<g id="node9" class="node">
<title>hyperspy</title>
<g id="a_node9"><a xlink:href="https://github.com/conda-forge/hyperspy-feedstock" xlink:title="hyperspy">
<ellipse fill="#fde725" stroke="black" cx="657.5" cy="-602" rx="53.5" ry="18"/>
<text text-anchor="middle" x="657.5" y="-598.3" font-family="Times-Roman" font-size="14.00">hyperspy</text>
</a>
</g>
</g>
<!-- intltool -->
<g id="node10" class="node">
<title>intltool</title>
<g id="a_node10"><a xlink:href="https://github.com/conda-forge/intltool-feedstock/pull/5" xlink:title="intltool ❎">
<ellipse fill="#31688e" stroke="black" cx="639.5" cy="-162" rx="56" ry="18"/>
<text text-anchor="middle" x="639.5" y="-158.3" font-family="Times-Roman" font-size="14.00" fill="white">intltool ❎</text>
</a>
</g>
</g>
<!-- libsecret -->
<g id="node11" class="node">
<title>libsecret</title>
<g id="a_node11"><a xlink:href="https://github.com/conda-forge/libsecret-feedstock" xlink:title="libsecret">
<ellipse fill="#fde725" stroke="black" cx="639.5" cy="-90" rx="48.99" ry="18"/>
<text text-anchor="middle" x="639.5" y="-86.3" font-family="Times-Roman" font-size="14.00">libsecret</text>
</a>
</g>
</g>
<!-- intltool&#45;&gt;libsecret -->
<g id="edge6" class="edge">
<title>intltool&#45;&gt;libsecret</title>
<path fill="none" stroke="black" d="M639.5,-143.7C639.5,-135.98 639.5,-126.71 639.5,-118.11"/>
<polygon fill="black" stroke="black" points="643,-118.1 639.5,-108.1 636,-118.1 643,-118.1"/>
</g>
<!-- oidc&#45;agent -->
<g id="node12" class="node">
<title>oidc&#45;agent</title>
<g id="a_node12"><a xlink:href="https://github.com/conda-forge/oidc-agent-feedstock" xlink:title="oidc agent">
<ellipse fill="#fde725" stroke="black" cx="639.5" cy="-18" rx="58" ry="18"/>
<text text-anchor="middle" x="639.5" y="-14.3" font-family="Times-Roman" font-size="14.00">oidc agent</text>
</a>
</g>
</g>
<!-- libsecret&#45;&gt;oidc&#45;agent -->
<g id="edge7" class="edge">
<title>libsecret&#45;&gt;oidc&#45;agent</title>
<path fill="none" stroke="black" d="M639.5,-71.7C639.5,-63.98 639.5,-54.71 639.5,-46.11"/>
<polygon fill="black" stroke="black" points="643,-46.1 639.5,-36.1 636,-46.1 643,-46.1"/>
</g>
<!-- libunwind -->
<g id="node13" class="node">
<title>libunwind</title>
<g id="a_node13"><a xlink:href="https://github.com/conda-forge/libunwind-feedstock/pull/14" xlink:title="libunwind ❎">
<ellipse fill="#31688e" stroke="black" cx="1752.5" cy="-602" rx="69" ry="18"/>
<text text-anchor="middle" x="1752.5" y="-598.3" font-family="Times-Roman" font-size="14.00" fill="white">libunwind ❎</text>
</a>
</g>
</g>
<!-- gperftools -->
<g id="node14" class="node">
<title>gperftools</title>
<g id="a_node14"><a xlink:href="https://github.com/conda-forge/gperftools-feedstock" xlink:title="gperftools">
<ellipse fill="#fde725" stroke="black" cx="1752.5" cy="-530" rx="56" ry="18"/>
<text text-anchor="middle" x="1752.5" y="-526.3" font-family="Times-Roman" font-size="14.00">gperftools</text>
</a>
</g>
</g>
<!-- libunwind&#45;&gt;gperftools -->
<g id="edge8" class="edge">
<title>libunwind&#45;&gt;gperftools</title>
<path fill="none" stroke="black" d="M1752.5,-583.7C1752.5,-575.98 1752.5,-566.71 1752.5,-558.11"/>
<polygon fill="black" stroke="black" points="1756,-558.1 1752.5,-548.1 1749,-558.1 1756,-558.1"/>
</g>
<!-- py&#45;spy -->
<g id="node15" class="node">
<title>py&#45;spy</title>
<g id="a_node15"><a xlink:href="https://github.com/conda-forge/py-spy-feedstock" xlink:title="py spy">
<ellipse fill="#fde725" stroke="black" cx="1887.5" cy="-458" rx="41" ry="18"/>
<text text-anchor="middle" x="1887.5" y="-454.3" font-family="Times-Roman" font-size="14.00">py spy</text>
</a>
</g>
</g>
<!-- libunwind&#45;&gt;py&#45;spy -->
<g id="edge9" class="edge">
<title>libunwind&#45;&gt;py&#45;spy</title>
<path fill="none" stroke="black" d="M1774.6,-584.93C1787.68,-574.96 1804.23,-561.5 1817.5,-548 1837.24,-527.91 1856.82,-502.42 1870.23,-483.87"/>
<polygon fill="black" stroke="black" points="1873.15,-485.81 1876.11,-475.64 1867.45,-481.74 1873.15,-485.81"/>
</g>
<!-- heaptrack -->
<g id="node16" class="node">
<title>heaptrack</title>
<g id="a_node16"><a xlink:href="https://github.com/conda-forge/heaptrack-feedstock" xlink:title="heaptrack">
<ellipse fill="#fde725" stroke="black" cx="1343.5" cy="-386" rx="56" ry="18"/>
<text text-anchor="middle" x="1343.5" y="-382.3" font-family="Times-Roman" font-size="14.00">heaptrack</text>
</a>
</g>
</g>
<!-- libunwind&#45;&gt;heaptrack -->
<g id="edge10" class="edge">
<title>libunwind&#45;&gt;heaptrack</title>
<path fill="none" stroke="black" d="M1684.4,-599.03C1596.71,-592.66 1445.74,-568 1362.5,-476 1347.47,-459.39 1343.26,-433.89 1342.5,-414.43"/>
<polygon fill="black" stroke="black" points="1346,-414.3 1342.38,-404.34 1339,-414.38 1346,-414.3"/>
</g>
<!-- sentencepiece -->
<g id="node17" class="node">
<title>sentencepiece</title>
<g id="a_node17"><a xlink:href="https://github.com/conda-forge/sentencepiece-feedstock" xlink:title="sentencepiece">
<ellipse fill="#fde725" stroke="black" cx="1752.5" cy="-458" rx="75.5" ry="18"/>
<text text-anchor="middle" x="1752.5" y="-454.3" font-family="Times-Roman" font-size="14.00">sentencepiece</text>
</a>
</g>
</g>
<!-- gperftools&#45;&gt;sentencepiece -->
<g id="edge11" class="edge">
<title>gperftools&#45;&gt;sentencepiece</title>
<path fill="none" stroke="black" d="M1752.5,-511.7C1752.5,-503.98 1752.5,-494.71 1752.5,-486.11"/>
<polygon fill="black" stroke="black" points="1756,-486.1 1752.5,-476.1 1749,-486.1 1756,-486.1"/>
</g>
<!-- sentencepiece&#45;&gt;allennlp -->
<g id="edge38" class="edge">
<title>sentencepiece&#45;&gt;allennlp</title>
<path fill="none" stroke="black" d="M1807.83,-445.68C1873.37,-432.26 1981.6,-410.11 2044.65,-397.2"/>
<polygon fill="black" stroke="black" points="2045.65,-400.57 2054.74,-395.14 2044.24,-393.71 2045.65,-400.57"/>
</g>
<!-- pyqt -->
<g id="node18" class="node">
<title>pyqt</title>
<g id="a_node18"><a xlink:href="https://github.com/conda-forge/pyqt-feedstock" xlink:title="pyqt">
<ellipse fill="#fde725" stroke="black" cx="651.5" cy="-674" rx="31.4" ry="18"/>
<text text-anchor="middle" x="651.5" y="-670.3" font-family="Times-Roman" font-size="14.00">pyqt</text>
</a>
</g>
</g>
<!-- pyqt&#45;&gt;hyperspy -->
<g id="edge12" class="edge">
<title>pyqt&#45;&gt;hyperspy</title>
<path fill="none" stroke="black" d="M652.98,-655.7C653.64,-647.98 654.44,-638.71 655.18,-630.11"/>
<polygon fill="black" stroke="black" points="658.67,-630.37 656.03,-620.1 651.69,-629.77 658.67,-630.37"/>
</g>
<!-- gnuradio -->
<g id="node19" class="node">
<title>gnuradio</title>
<g id="a_node19"><a xlink:href="https://github.com/conda-forge/gnuradio-feedstock" xlink:title="gnuradio">
<ellipse fill="#fde725" stroke="black" cx="495.5" cy="-602" rx="51.5" ry="18"/>
<text text-anchor="middle" x="495.5" y="-598.3" font-family="Times-Roman" font-size="14.00">gnuradio</text>
</a>
</g>
</g>
<!-- pyqt&#45;&gt;gnuradio -->
<g id="edge13" class="edge">
<title>pyqt&#45;&gt;gnuradio</title>
<path fill="none" stroke="black" d="M627.47,-662.22C602.97,-651.22 564.55,-633.98 535.47,-620.93"/>
<polygon fill="black" stroke="black" points="536.55,-617.58 526,-616.68 533.69,-623.97 536.55,-617.58"/>
</g>
<!-- pythonocc&#45;core -->
<g id="node20" class="node">
<title>pythonocc&#45;core</title>
<g id="a_node20"><a xlink:href="https://github.com/conda-forge/pythonocc-core-feedstock" xlink:title="pythonocc core">
<ellipse fill="#fde725" stroke="black" cx="640.5" cy="-530" rx="79.5" ry="18"/>
<text text-anchor="middle" x="640.5" y="-526.3" font-family="Times-Roman" font-size="14.00">pythonocc core</text>
</a>
</g>
</g>
<!-- pyqt&#45;&gt;pythonocc&#45;core -->
<g id="edge14" class="edge">
<title>pyqt&#45;&gt;pythonocc&#45;core</title>
<path fill="none" stroke="black" d="M631.15,-660.21C618.28,-650.84 602.75,-636.84 595.5,-620 589.17,-605.3 589.98,-599.02 595.5,-584 599.41,-573.35 606.51,-563.38 613.94,-555.02"/>
<polygon fill="black" stroke="black" points="616.7,-557.19 621.06,-547.54 611.63,-552.37 616.7,-557.19"/>
</g>
<!-- gnuradio&#45;&gt;gqrx -->
<g id="edge15" class="edge">
<title>gnuradio&#45;&gt;gqrx</title>
<path fill="none" stroke="black" d="M491.54,-583.9C482.61,-546.73 460.02,-460.3 438.5,-440 427.84,-429.94 344.18,-408.4 293.74,-396.1"/>
<polygon fill="black" stroke="black" points="294.37,-392.65 283.82,-393.69 292.72,-399.45 294.37,-392.65"/>
</g>
<!-- digital_rf -->
<g id="node21" class="node">
<title>digital_rf</title>
<g id="a_node21"><a xlink:href="https://github.com/conda-forge/digital_rf-feedstock" xlink:title="digital_rf">
<ellipse fill="#fde725" stroke="black" cx="379.5" cy="-530" rx="50.09" ry="18"/>
<text text-anchor="middle" x="379.5" y="-526.3" font-family="Times-Roman" font-size="14.00">digital_rf</text>
</a>
</g>
</g>
<!-- gnuradio&#45;&gt;digital_rf -->
<g id="edge16" class="edge">
<title>gnuradio&#45;&gt;digital_rf</title>
<path fill="none" stroke="black" d="M470.9,-586.15C453.98,-575.95 431.31,-562.27 412.79,-551.09"/>
<polygon fill="black" stroke="black" points="414.44,-547.99 404.07,-545.82 410.82,-553.99 414.44,-547.99"/>
</g>
<!-- gnuradio&#45;osmosdr -->
<g id="node22" class="node">
<title>gnuradio&#45;osmosdr</title>
<g id="a_node22"><a xlink:href="https://github.com/conda-forge/gnuradio-osmosdr-feedstock" xlink:title="gnuradio osmosdr">
<ellipse fill="#fde725" stroke="black" cx="336.5" cy="-458" rx="93" ry="18"/>
<text text-anchor="middle" x="336.5" y="-454.3" font-family="Times-Roman" font-size="14.00">gnuradio osmosdr</text>
</a>
</g>
</g>
<!-- gnuradio&#45;&gt;gnuradio&#45;osmosdr -->
<g id="edge17" class="edge">
<title>gnuradio&#45;&gt;gnuradio&#45;osmosdr</title>
<path fill="none" stroke="black" d="M443.7,-600.84C402.98,-597.63 348.59,-585.86 320.5,-548 307.14,-529.99 313.67,-504.36 322.06,-485.23"/>
<polygon fill="black" stroke="black" points="325.24,-486.69 326.38,-476.16 318.92,-483.68 325.24,-486.69"/>
</g>
<!-- gnuradio&#45;soapy -->
<g id="node23" class="node">
<title>gnuradio&#45;soapy</title>
<g id="a_node23"><a xlink:href="https://github.com/conda-forge/gnuradio-soapy-feedstock" xlink:title="gnuradio soapy">
<ellipse fill="#fde725" stroke="black" cx="424.5" cy="-386" rx="81.49" ry="18"/>
<text text-anchor="middle" x="424.5" y="-382.3" font-family="Times-Roman" font-size="14.00">gnuradio soapy</text>
</a>
</g>
</g>
<!-- gnuradio&#45;&gt;gnuradio&#45;soapy -->
<g id="edge18" class="edge">
<title>gnuradio&#45;&gt;gnuradio&#45;soapy</title>
<path fill="none" stroke="black" d="M496.07,-583.63C496.41,-553.09 494.09,-488.4 471.5,-440 466.56,-429.42 458.82,-419.4 451.04,-410.98"/>
<polygon fill="black" stroke="black" points="453.45,-408.43 443.96,-403.72 448.44,-413.32 453.45,-408.43"/>
</g>
<!-- gnuradio&#45;satellites -->
<g id="node24" class="node">
<title>gnuradio&#45;satellites</title>
<g id="a_node24"><a xlink:href="https://github.com/conda-forge/gnuradio-satellites-feedstock" xlink:title="gnuradio satellites">
<ellipse fill="#fde725" stroke="black" cx="533.5" cy="-314" rx="94.48" ry="18"/>
<text text-anchor="middle" x="533.5" y="-310.3" font-family="Times-Roman" font-size="14.00">gnuradio satellites</text>
</a>
</g>
</g>
<!-- gnuradio&#45;&gt;gnuradio&#45;satellites -->
<g id="edge19" class="edge">
<title>gnuradio&#45;&gt;gnuradio&#45;satellites</title>
<path fill="none" stroke="black" d="M499.46,-583.89C501.75,-573.54 504.55,-560.06 506.5,-548 518.46,-473.88 527.2,-385.66 531.15,-342.1"/>
<polygon fill="black" stroke="black" points="534.65,-342.3 532.05,-332.03 527.68,-341.68 534.65,-342.3"/>
</g>
<!-- gnuradio&#45;osmosdr&#45;&gt;gqrx -->
<g id="edge55" class="edge">
<title>gnuradio&#45;osmosdr&#45;&gt;gqrx</title>
<path fill="none" stroke="black" d="M316.89,-440.05C305.78,-430.46 291.79,-418.36 279.97,-408.14"/>
<polygon fill="black" stroke="black" points="282.05,-405.31 272.19,-401.42 277.47,-410.61 282.05,-405.31"/>
</g>
<!-- qt -->
<g id="node25" class="node">
<title>qt</title>
<g id="a_node25"><a xlink:href="https://github.com/conda-forge/qt-feedstock/pull/184" xlink:title="qt ❎">
<ellipse fill="#31688e" stroke="black" cx="739.5" cy="-746" rx="34.5" ry="18"/>
<text text-anchor="middle" x="739.5" y="-742.3" font-family="Times-Roman" font-size="14.00" fill="white">qt ❎</text>
</a>
</g>
</g>
<!-- qt&#45;&gt;gqrx -->
<g id="edge28" class="edge">
<title>qt&#45;&gt;gqrx</title>
<path fill="none" stroke="black" d="M705.12,-743.14C588.54,-735.9 215.5,-704.79 215.5,-603 215.5,-603 215.5,-603 215.5,-529 215.5,-487.26 231.71,-441.11 243.5,-413.08"/>
<polygon fill="black" stroke="black" points="246.83,-414.19 247.6,-403.62 240.41,-411.4 246.83,-414.19"/>
</g>
<!-- qt&#45;&gt;pyqt -->
<g id="edge20" class="edge">
<title>qt&#45;&gt;pyqt</title>
<path fill="none" stroke="black" d="M721.27,-730.5C708.47,-720.32 691.19,-706.57 677.03,-695.31"/>
<polygon fill="black" stroke="black" points="679.11,-692.49 669.11,-689.01 674.76,-697.97 679.11,-692.49"/>
</g>
<!-- qt&#45;&gt;gnuradio -->
<g id="edge21" class="edge">
<title>qt&#45;&gt;gnuradio</title>
<path fill="none" stroke="black" d="M711.04,-735.64C684.42,-726.34 644,-710.76 611.5,-692 578.22,-672.79 543.73,-645.17 521.1,-625.81"/>
<polygon fill="black" stroke="black" points="523.18,-622.98 513.32,-619.08 518.6,-628.27 523.18,-622.98"/>
</g>
<!-- qwt -->
<g id="node26" class="node">
<title>qwt</title>
<g id="a_node26"><a xlink:href="https://github.com/conda-forge/qwt-feedstock" xlink:title="qwt">
<ellipse fill="#fde725" stroke="black" cx="501.5" cy="-674" rx="27.5" ry="18"/>
<text text-anchor="middle" x="501.5" y="-670.3" font-family="Times-Roman" font-size="14.00">qwt</text>
</a>
</g>
</g>
<!-- qt&#45;&gt;qwt -->
<g id="edge22" class="edge">
<title>qt&#45;&gt;qwt</title>
<path fill="none" stroke="black" d="M709.84,-736.28C665.61,-723.27 582.57,-698.84 535.79,-685.09"/>
<polygon fill="black" stroke="black" points="536.69,-681.7 526.11,-682.24 534.72,-688.42 536.69,-681.7"/>
</g>
<!-- pivy -->
<g id="node27" class="node">
<title>pivy</title>
<g id="a_node27"><a xlink:href="https://github.com/conda-forge/pivy-feedstock" xlink:title="pivy">
<ellipse fill="#fde725" stroke="black" cx="767.5" cy="-530" rx="30" ry="18"/>
<text text-anchor="middle" x="767.5" y="-526.3" font-family="Times-Roman" font-size="14.00">pivy</text>
</a>
</g>
</g>
<!-- qt&#45;&gt;pivy -->
<g id="edge23" class="edge">
<title>qt&#45;&gt;pivy</title>
<path fill="none" stroke="black" d="M741.26,-727.57C744.32,-697.99 751.01,-636.1 758.5,-584 759.71,-575.56 761.21,-566.38 762.63,-558.08"/>
<polygon fill="black" stroke="black" points="766.09,-558.6 764.36,-548.15 759.19,-557.4 766.09,-558.6"/>
</g>
<!-- pyside2 -->
<g id="node28" class="node">
<title>pyside2</title>
<g id="a_node28"><a xlink:href="https://github.com/conda-forge/pyside2-feedstock" xlink:title="pyside2">
<ellipse fill="#fde725" stroke="black" cx="893.5" cy="-602" rx="46.29" ry="18"/>
<text text-anchor="middle" x="893.5" y="-598.3" font-family="Times-Roman" font-size="14.00">pyside2</text>
</a>
</g>
</g>
<!-- qt&#45;&gt;pyside2 -->
<g id="edge24" class="edge">
<title>qt&#45;&gt;pyside2</title>
<path fill="none" stroke="black" d="M755.69,-730.07C782.6,-705.26 836.72,-655.36 868.54,-626.01"/>
<polygon fill="black" stroke="black" points="871.14,-628.38 876.12,-619.02 866.4,-623.23 871.14,-628.38"/>
</g>
<!-- soqt -->
<g id="node29" class="node">
<title>soqt</title>
<g id="a_node29"><a xlink:href="https://github.com/conda-forge/soqt-feedstock" xlink:title="soqt">
<ellipse fill="#fde725" stroke="black" cx="798.5" cy="-602" rx="30.59" ry="18"/>
<text text-anchor="middle" x="798.5" y="-598.3" font-family="Times-Roman" font-size="14.00">soqt</text>
</a>
</g>
</g>
<!-- qt&#45;&gt;soqt -->
<g id="edge25" class="edge">
<title>qt&#45;&gt;soqt</title>
<path fill="none" stroke="black" d="M746.5,-728.15C756.66,-703.71 775.58,-658.17 787.58,-629.29"/>
<polygon fill="black" stroke="black" points="790.9,-630.4 791.51,-619.82 784.44,-627.72 790.9,-630.4"/>
</g>
<!-- freecad -->
<g id="node30" class="node">
<title>freecad</title>
<g id="a_node30"><a xlink:href="https://github.com/conda-forge/freecad-feedstock" xlink:title="freecad">
<ellipse fill="#fde725" stroke="black" cx="908.5" cy="-458" rx="44.39" ry="18"/>
<text text-anchor="middle" x="908.5" y="-454.3" font-family="Times-Roman" font-size="14.00">freecad</text>
</a>
</g>
</g>
<!-- qt&#45;&gt;freecad -->
<g id="edge26" class="edge">
<title>qt&#45;&gt;freecad</title>
<path fill="none" stroke="black" d="M772.08,-740.06C860.69,-725.9 1102.51,-682.15 1148.5,-620 1167.05,-594.94 1133.66,-517.88 1127.5,-512 1103.81,-489.38 1017.42,-473.68 960.48,-465.52"/>
<polygon fill="black" stroke="black" points="960.95,-462.05 950.56,-464.13 959.98,-468.98 960.95,-462.05"/>
</g>
<!-- geant4 -->
<g id="node31" class="node">
<title>geant4</title>
<g id="a_node31"><a xlink:href="https://github.com/conda-forge/geant4-feedstock" xlink:title="geant4">
<ellipse fill="#fde725" stroke="black" cx="1237.5" cy="-530" rx="42.49" ry="18"/>
<text text-anchor="middle" x="1237.5" y="-526.3" font-family="Times-Roman" font-size="14.00">geant4</text>
</a>
</g>
</g>
<!-- qt&#45;&gt;geant4 -->
<g id="edge27" class="edge">
<title>qt&#45;&gt;geant4</title>
<path fill="none" stroke="black" d="M774.02,-745.43C866.84,-745.88 1118.96,-742.34 1181.5,-692 1222.14,-659.29 1233.36,-595.3 1236.41,-558.61"/>
<polygon fill="black" stroke="black" points="1239.94,-558.38 1237.12,-548.16 1232.95,-557.9 1239.94,-558.38"/>
</g>
<!-- qwt&#45;&gt;gnuradio -->
<g id="edge29" class="edge">
<title>qwt&#45;&gt;gnuradio</title>
<path fill="none" stroke="black" d="M500.02,-655.7C499.36,-647.98 498.56,-638.71 497.82,-630.11"/>
<polygon fill="black" stroke="black" points="501.31,-629.77 496.97,-620.1 494.33,-630.37 501.31,-629.77"/>
</g>
<!-- pivy&#45;&gt;freecad -->
<g id="edge30" class="edge">
<title>pivy&#45;&gt;freecad</title>
<path fill="none" stroke="black" d="M789.84,-517.91C811.97,-506.92 846.23,-489.91 872.26,-476.99"/>
<polygon fill="black" stroke="black" points="874.04,-480.02 881.44,-472.43 870.93,-473.75 874.04,-480.02"/>
</g>
<!-- pyside2&#45;&gt;pivy -->
<g id="edge31" class="edge">
<title>pyside2&#45;&gt;pivy</title>
<path fill="none" stroke="black" d="M868,-586.83C847.71,-575.56 819.25,-559.75 797.79,-547.83"/>
<polygon fill="black" stroke="black" points="799.22,-544.62 788.78,-542.82 795.82,-550.74 799.22,-544.62"/>
</g>
<!-- pyside2&#45;&gt;freecad -->
<g id="edge32" class="edge">
<title>pyside2&#45;&gt;freecad</title>
<path fill="none" stroke="black" d="M873.39,-585.7C862.6,-576.19 850.35,-562.94 844.5,-548 838.67,-533.1 837.69,-526.48 844.5,-512 850.87,-498.45 862.6,-487.17 874.29,-478.55"/>
<polygon fill="black" stroke="black" points="876.47,-481.31 882.72,-472.76 872.5,-475.54 876.47,-481.31"/>
</g>
<!-- cctbx&#45;base -->
<g id="node32" class="node">
<title>cctbx&#45;base</title>
<g id="a_node32"><a xlink:href="https://github.com/conda-forge/cctbx-base-feedstock" xlink:title="cctbx base">
<ellipse fill="#fde725" stroke="black" cx="1041.5" cy="-530" rx="60" ry="18"/>
<text text-anchor="middle" x="1041.5" y="-526.3" font-family="Times-Roman" font-size="14.00">cctbx base</text>
</a>
</g>
</g>
<!-- pyside2&#45;&gt;cctbx&#45;base -->
<g id="edge33" class="edge">
<title>pyside2&#45;&gt;cctbx&#45;base</title>
<path fill="none" stroke="black" d="M921.69,-587.67C944.29,-576.98 976.31,-561.83 1001.56,-549.89"/>
<polygon fill="black" stroke="black" points="1003.32,-552.93 1010.87,-545.49 1000.33,-546.6 1003.32,-552.93"/>
</g>
<!-- soqt&#45;&gt;pivy -->
<g id="edge34" class="edge">
<title>soqt&#45;&gt;pivy</title>
<path fill="none" stroke="black" d="M791.15,-584.41C787.49,-576.13 782.97,-565.92 778.86,-556.66"/>
<polygon fill="black" stroke="black" points="782.04,-555.2 774.79,-547.47 775.64,-558.03 782.04,-555.2"/>
</g>
<!-- speex -->
<g id="node33" class="node">
<title>speex</title>
<g id="a_node33"><a xlink:href="https://github.com/conda-forge/speex-feedstock/pull/7" xlink:title="speex ❎">
<ellipse fill="#31688e" stroke="black" cx="131.5" cy="-602" rx="52" ry="18"/>
<text text-anchor="middle" x="131.5" y="-598.3" font-family="Times-Roman" font-size="14.00" fill="white">speex ❎</text>
</a>
</g>
</g>
<!-- speex&#45;&gt;pulseaudio -->
<g id="edge35" class="edge">
<title>speex&#45;&gt;pulseaudio</title>
<path fill="none" stroke="black" d="M131.02,-583.87C130.34,-559.67 129.08,-515.21 128.27,-486.39"/>
<polygon fill="black" stroke="black" points="131.76,-486.09 127.98,-476.19 124.77,-486.28 131.76,-486.09"/>
</g>
<!-- torchvision -->
<g id="node34" class="node">
<title>torchvision</title>
<g id="a_node34"><a xlink:href="https://github.com/conda-forge/torchvision-feedstock" xlink:title="torchvision">
<ellipse fill="#fde725" stroke="black" cx="2006.5" cy="-458" rx="60" ry="18"/>
<text text-anchor="middle" x="2006.5" y="-454.3" font-family="Times-Roman" font-size="14.00">torchvision</text>
</a>
</g>
</g>
<!-- torchvision&#45;&gt;allennlp -->
<g id="edge36" class="edge">
<title>torchvision&#45;&gt;allennlp</title>
<path fill="none" stroke="black" d="M2026.91,-440.76C2038.82,-431.29 2054.01,-419.21 2066.97,-408.9"/>
<polygon fill="black" stroke="black" points="2069.46,-411.39 2075.11,-402.43 2065.1,-405.91 2069.46,-411.39"/>
</g>
<!-- smesh -->
<g id="node35" class="node">
<title>smesh</title>
<g id="a_node35"><a xlink:href="https://github.com/conda-forge/smesh-feedstock/pull/48" xlink:title="smesh ❎">
<ellipse fill="#31688e" stroke="black" cx="908.5" cy="-530" rx="54.69" ry="18"/>
<text text-anchor="middle" x="908.5" y="-526.3" font-family="Times-Roman" font-size="14.00" fill="white">smesh ❎</text>
</a>
</g>
</g>
<!-- smesh&#45;&gt;freecad -->
<g id="edge37" class="edge">
<title>smesh&#45;&gt;freecad</title>
<path fill="none" stroke="black" d="M908.5,-511.7C908.5,-503.98 908.5,-494.71 908.5,-486.11"/>
<polygon fill="black" stroke="black" points="912,-486.1 908.5,-476.1 905,-486.1 912,-486.1"/>
</g>
<!-- ibm_db -->
<g id="node37" class="node">
<title>ibm_db</title>
<g id="a_node37"><a xlink:href="https://github.com/conda-forge/ibm_db-feedstock/pull/33" xlink:title="ibm_db ❎">
<ellipse fill="#31688e" stroke="black" cx="2530.5" cy="-638" rx="58" ry="18"/>
<text text-anchor="middle" x="2530.5" y="-634.3" font-family="Times-Roman" font-size="14.00" fill="white">ibm_db ❎</text>
</a>
</g>
</g>
<!-- root_numpy&#45;&gt;ibm_db -->
<!-- nvcc -->
<g id="node40" class="node">
<title>nvcc</title>
<g id="a_node40"><a xlink:href="https://github.com/conda-forge/nvcc-feedstock/pull/67" xlink:title="nvcc ✓">
<ellipse fill="#31688e" stroke="black" cx="2530.5" cy="-566" rx="42.49" ry="18"/>
<text text-anchor="middle" x="2530.5" y="-562.3" font-family="Times-Roman" font-size="14.00" fill="white">nvcc ✓</text>
</a>
</g>
</g>
<!-- ibm_db&#45;&gt;nvcc -->
<!-- pytorch&#45;cpu -->
<g id="node38" class="node">
<title>pytorch&#45;cpu</title>
<g id="a_node38"><a xlink:href="https://github.com/conda-forge/pytorch-cpu-feedstock" xlink:title="pytorch cpu">
<ellipse fill="#fde725" stroke="black" cx="2006.5" cy="-530" rx="64.5" ry="18"/>
<text text-anchor="middle" x="2006.5" y="-526.3" font-family="Times-Roman" font-size="14.00">pytorch cpu</text>
</a>
</g>
</g>
<!-- pytorch&#45;cpu&#45;&gt;allennlp -->
<g id="edge41" class="edge">
<title>pytorch&#45;cpu&#45;&gt;allennlp</title>
<path fill="none" stroke="black" d="M2034.99,-513.67C2049.27,-504.56 2065.58,-491.71 2075.5,-476 2087.2,-457.46 2091.8,-432.87 2093.56,-414.23"/>
<polygon fill="black" stroke="black" points="2097.07,-414.27 2094.3,-404.04 2090.08,-413.76 2097.07,-414.27"/>
</g>
<!-- pytorch&#45;cpu&#45;&gt;torchvision -->
<g id="edge42" class="edge">
<title>pytorch&#45;cpu&#45;&gt;torchvision</title>
<path fill="none" stroke="black" d="M2006.5,-511.7C2006.5,-503.98 2006.5,-494.71 2006.5,-486.11"/>
<polygon fill="black" stroke="black" points="2010,-486.1 2006.5,-476.1 2003,-486.1 2010,-486.1"/>
</g>
<!-- grpcio&#45;gcp -->
<g id="node39" class="node">
<title>grpcio&#45;gcp</title>
<g id="a_node39"><a xlink:href="https://github.com/conda-forge/grpcio-gcp-feedstock/pull/9" xlink:title="grpcio gcp ❎">
<ellipse fill="#31688e" stroke="black" cx="2162.5" cy="-530" rx="73" ry="18"/>
<text text-anchor="middle" x="2162.5" y="-526.3" font-family="Times-Roman" font-size="14.00" fill="white">grpcio gcp ❎</text>
</a>
</g>
</g>
<!-- grpcio&#45;gcp&#45;&gt;allennlp -->
<g id="edge43" class="edge">
<title>grpcio&#45;gcp&#45;&gt;allennlp</title>
<path fill="none" stroke="black" d="M2154.3,-511.87C2142.49,-487.22 2120.62,-441.54 2106.85,-412.79"/>
<polygon fill="black" stroke="black" points="2110,-411.26 2102.52,-403.75 2103.68,-414.28 2110,-411.26"/>
</g>
<!-- proj -->
<g id="node47" class="node">
<title>proj</title>
<g id="a_node47"><a xlink:href="https://github.com/conda-forge/proj-feedstock" xlink:title="proj">
<ellipse fill="#35b779" stroke="black" cx="2530.5" cy="-494" rx="28" ry="18"/>
<text text-anchor="middle" x="2530.5" y="-490.3" font-family="Times-Roman" font-size="14.00">proj</text>
</a>
</g>
</g>
<!-- nvcc&#45;&gt;proj -->
<!-- cudatoolkit -->
<g id="node41" class="node">
<title>cudatoolkit</title>
<g id="a_node41"><a xlink:href="https://github.com/conda-forge/cudatoolkit-feedstock/pull/4" xlink:title="cudatoolkit ❎">
<ellipse fill="#31688e" stroke="black" cx="1933.5" cy="-674" rx="74.99" ry="18"/>
<text text-anchor="middle" x="1933.5" y="-670.3" font-family="Times-Roman" font-size="14.00" fill="white">cudatoolkit ❎</text>
</a>
</g>
</g>
<!-- cudnn -->
<g id="node42" class="node">
<title>cudnn</title>
<g id="a_node42"><a xlink:href="https://github.com/conda-forge/cudnn-feedstock" xlink:title="cudnn">
<ellipse fill="#fde725" stroke="black" cx="1879.5" cy="-602" rx="39" ry="18"/>
<text text-anchor="middle" x="1879.5" y="-598.3" font-family="Times-Roman" font-size="14.00">cudnn</text>
</a>
</g>
</g>
<!-- cudatoolkit&#45;&gt;cudnn -->
<g id="edge45" class="edge">
<title>cudatoolkit&#45;&gt;cudnn</title>
<path fill="none" stroke="black" d="M1920.43,-656.05C1913.76,-647.42 1905.54,-636.76 1898.22,-627.27"/>
<polygon fill="black" stroke="black" points="1900.96,-625.09 1892.08,-619.31 1895.42,-629.36 1900.96,-625.09"/>
</g>
<!-- cutensor -->
<g id="node43" class="node">
<title>cutensor</title>
<g id="a_node43"><a xlink:href="https://github.com/conda-forge/cutensor-feedstock" xlink:title="cutensor">
<ellipse fill="#fde725" stroke="black" cx="1986.5" cy="-602" rx="50.09" ry="18"/>
<text text-anchor="middle" x="1986.5" y="-598.3" font-family="Times-Roman" font-size="14.00">cutensor</text>
</a>
</g>
</g>
<!-- cudatoolkit&#45;&gt;cutensor -->
<g id="edge46" class="edge">
<title>cudatoolkit&#45;&gt;cutensor</title>
<path fill="none" stroke="black" d="M1946.33,-656.05C1952.71,-647.63 1960.55,-637.28 1967.6,-627.97"/>
<polygon fill="black" stroke="black" points="1970.54,-629.87 1973.79,-619.79 1964.96,-625.65 1970.54,-629.87"/>
</g>
<!-- cudnn&#45;&gt;torchvision -->
<g id="edge47" class="edge">
<title>cudnn&#45;&gt;torchvision</title>
<path fill="none" stroke="black" d="M1886.9,-584.23C1895.82,-565.25 1912.18,-534.11 1932.5,-512 1943.73,-499.78 1958.19,-488.67 1971.35,-479.81"/>
<polygon fill="black" stroke="black" points="1973.3,-482.72 1979.76,-474.33 1969.48,-476.86 1973.3,-482.72"/>
</g>
<!-- cudnn&#45;&gt;pytorch&#45;cpu -->
<g id="edge48" class="edge">
<title>cudnn&#45;&gt;pytorch&#45;cpu</title>
<path fill="none" stroke="black" d="M1903.69,-587.67C1922.33,-577.39 1948.42,-563.01 1969.65,-551.31"/>
<polygon fill="black" stroke="black" points="1971.35,-554.37 1978.42,-546.48 1967.97,-548.24 1971.35,-554.37"/>
</g>
<!-- libspnav -->
<g id="node44" class="node">
<title>libspnav</title>
<g id="a_node44"><a xlink:href="https://github.com/conda-forge/libspnav-feedstock/pull/2" xlink:title="libspnav ❎">
<ellipse fill="#31688e" stroke="black" cx="1076.5" cy="-602" rx="63.09" ry="18"/>
<text text-anchor="middle" x="1076.5" y="-598.3" font-family="Times-Roman" font-size="14.00" fill="white">libspnav ❎</text>
</a>
</g>
</g>
<!-- libspnav&#45;&gt;freecad -->
<g id="edge49" class="edge">
<title>libspnav&#45;&gt;freecad</title>
<path fill="none" stroke="black" d="M1091.81,-584.48C1107.53,-565.46 1127.47,-534 1110.5,-512 1092.3,-488.4 1014.16,-473.26 960.58,-465.44"/>
<polygon fill="black" stroke="black" points="960.94,-461.95 950.55,-464.02 959.96,-468.88 960.94,-461.95"/>
</g>
<!-- libv8 -->
<g id="node45" class="node">
<title>libv8</title>
<g id="a_node45"><a xlink:href="https://github.com/conda-forge/libv8-feedstock/pull/66" xlink:title="libv8 ❎">
<ellipse fill="#31688e" stroke="black" cx="1859.5" cy="-126" rx="47" ry="18"/>
<text text-anchor="middle" x="1859.5" y="-122.3" font-family="Times-Roman" font-size="14.00" fill="white">libv8 ❎</text>
</a>
</g>
</g>
<!-- r&#45;v8 -->
<g id="node46" class="node">
<title>r&#45;v8</title>
<g id="a_node46"><a xlink:href="https://github.com/conda-forge/r-v8-feedstock" xlink:title="r v8">
<ellipse fill="#fde725" stroke="black" cx="1859.5" cy="-54" rx="28.7" ry="18"/>
<text text-anchor="middle" x="1859.5" y="-50.3" font-family="Times-Roman" font-size="14.00">r v8</text>
</a>
</g>
</g>
<!-- libv8&#45;&gt;r&#45;v8 -->
<g id="edge50" class="edge">
<title>libv8&#45;&gt;r&#45;v8</title>
<path fill="none" stroke="black" d="M1859.5,-107.7C1859.5,-99.98 1859.5,-90.71 1859.5,-82.11"/>
<polygon fill="black" stroke="black" points="1863,-82.1 1859.5,-72.1 1856,-82.1 1863,-82.1"/>
</g>
<!-- jaeger -->
<g id="node48" class="node">
<title>jaeger</title>
<g id="a_node48"><a xlink:href="https://github.com/conda-forge/jaeger-feedstock/pull/12" xlink:title="jaeger ❎">
<ellipse fill="#31688e" stroke="black" cx="2530.5" cy="-422" rx="53.5" ry="18"/>
<text text-anchor="middle" x="2530.5" y="-418.3" font-family="Times-Roman" font-size="14.00" fill="white">jaeger ❎</text>
</a>
</g>
</g>
<!-- proj&#45;&gt;jaeger -->
<!-- dm&#45;tree -->
<g id="node50" class="node">
<title>dm&#45;tree</title>
<g id="a_node50"><a xlink:href="https://github.com/conda-forge/dm-tree-feedstock/pull/4" xlink:title="dm tree ❎">
<ellipse fill="#31688e" stroke="black" cx="2530.5" cy="-350" rx="60" ry="18"/>
<text text-anchor="middle" x="2530.5" y="-346.3" font-family="Times-Roman" font-size="14.00" fill="white">dm tree ❎</text>
</a>
</g>
</g>
<!-- jaeger&#45;&gt;dm&#45;tree -->
<!-- nccl -->
<g id="node49" class="node">
<title>nccl</title>
<g id="a_node49"><a xlink:href="https://github.com/conda-forge/nccl-feedstock/pull/51" xlink:title="nccl ✓">
<ellipse fill="#31688e" stroke="black" cx="2094.5" cy="-602" rx="39.79" ry="18"/>
<text text-anchor="middle" x="2094.5" y="-598.3" font-family="Times-Roman" font-size="14.00" fill="white">nccl ✓</text>
</a>
</g>
</g>
<!-- nccl&#45;&gt;pytorch&#45;cpu -->
<g id="edge53" class="edge">
<title>nccl&#45;&gt;pytorch&#45;cpu</title>
<path fill="none" stroke="black" d="M2075.41,-585.81C2063.52,-576.35 2048.01,-564.02 2034.72,-553.45"/>
<polygon fill="black" stroke="black" points="2036.79,-550.62 2026.78,-547.13 2032.43,-556.1 2036.79,-550.62"/>
</g>
<!-- scitokens&#45;cpp -->
<g id="node53" class="node">
<title>scitokens&#45;cpp</title>
<g id="a_node53"><a xlink:href="https://github.com/conda-forge/scitokens-cpp-feedstock/pull/4" xlink:title="scitokens cpp ✓">
<ellipse fill="#31688e" stroke="black" cx="2530.5" cy="-278" rx="83.39" ry="18"/>
<text text-anchor="middle" x="2530.5" y="-274.3" font-family="Times-Roman" font-size="14.00" fill="white">scitokens cpp ✓</text>
</a>
</g>
</g>
<!-- dm&#45;tree&#45;&gt;scitokens&#45;cpp -->
<!-- jaraco.text -->
<g id="node51" class="node">
<title>jaraco.text</title>
<g id="a_node51"><a xlink:href="https://github.com/conda-forge/jaraco.text-feedstock/pull/9" xlink:title="jaraco text ✓">
<ellipse fill="#31688e" stroke="black" cx="2361.5" cy="-530" rx="69.59" ry="18"/>
<text text-anchor="middle" x="2361.5" y="-526.3" font-family="Times-Roman" font-size="14.00" fill="white">jaraco text ✓</text>
</a>
</g>
</g>
<!-- jaraco.text&#45;&gt;cherrypy -->
<g id="edge56" class="edge">
<title>jaraco.text&#45;&gt;cherrypy</title>
<path fill="none" stroke="black" d="M2359.28,-511.7C2358.28,-503.98 2357.09,-494.71 2355.99,-486.11"/>
<polygon fill="black" stroke="black" points="2359.45,-485.58 2354.7,-476.1 2352.5,-486.47 2359.45,-485.58"/>
</g>
<!-- tokenizers -->
<g id="node52" class="node">
<title>tokenizers</title>
<g id="a_node52"><a xlink:href="https://github.com/conda-forge/tokenizers-feedstock/pull/18" xlink:title="tokenizers ❎">
<ellipse fill="#31688e" stroke="black" cx="2263.5" cy="-602" rx="71.5" ry="18"/>
<text text-anchor="middle" x="2263.5" y="-598.3" font-family="Times-Roman" font-size="14.00" fill="white">tokenizers ❎</text>
</a>
</g>
</g>
<!-- tokenizers&#45;&gt;allennlp -->
<g id="edge57" class="edge">
<title>tokenizers&#45;&gt;allennlp</title>
<path fill="none" stroke="black" d="M2263.11,-583.72C2261.97,-564.84 2257.97,-534.32 2244.5,-512 2216.19,-465.12 2163.87,-427.62 2129.12,-406.34"/>
<polygon fill="black" stroke="black" points="2130.63,-403.17 2120.26,-401.03 2127.03,-409.17 2130.63,-403.17"/>
</g>
<!-- awscrt -->
<g id="node55" class="node">
<title>awscrt</title>
<g id="a_node55"><a xlink:href="https://github.com/conda-forge/awscrt-feedstock/pull/13" xlink:title="awscrt ❎">
<ellipse fill="#31688e" stroke="black" cx="2530.5" cy="-206" rx="54.69" ry="18"/>
<text text-anchor="middle" x="2530.5" y="-202.3" font-family="Times-Roman" font-size="14.00" fill="white">awscrt ❎</text>
</a>
</g>
</g>
<!-- scitokens&#45;cpp&#45;&gt;awscrt -->
<!-- magma -->
<g id="node54" class="node">
<title>magma</title>
<g id="a_node54"><a xlink:href="https://github.com/conda-forge/magma-feedstock/pull/9" xlink:title="magma ✓">
<ellipse fill="#31688e" stroke="black" cx="2162.5" cy="-674" rx="56" ry="18"/>
<text text-anchor="middle" x="2162.5" y="-670.3" font-family="Times-Roman" font-size="14.00" fill="white">magma ✓</text>
</a>
</g>
</g>
<!-- magma&#45;&gt;pytorch&#45;cpu -->
<g id="edge59" class="edge">
<title>magma&#45;&gt;pytorch&#45;cpu</title>
<path fill="none" stroke="black" d="M2163.41,-655.84C2163.52,-636.22 2160.72,-604.2 2143.5,-584 2132.17,-570.71 2093.74,-556.47 2060.46,-546.1"/>
<polygon fill="black" stroke="black" points="2061.37,-542.72 2050.78,-543.14 2059.32,-549.41 2061.37,-542.72"/>
</g>
</g>
</svg>
