<?xml version="1.0" encoding="UTF-8" standalone="no"?>
<!DOCTYPE svg PUBLIC "-//W3C//DTD SVG 1.1//EN"
 "http://www.w3.org/Graphics/SVG/1.1/DTD/svg11.dtd">
<!-- Generated by graphviz version 2.42.3 (20191010.1750)
 -->
<!-- Title: %3 Pages: 1 -->
<svg width="1511pt" height="1228pt"
 viewBox="0.00 0.00 1510.89 1228.00" xmlns="http://www.w3.org/2000/svg" xmlns:xlink="http://www.w3.org/1999/xlink">
<g id="graph0" class="graph" transform="scale(1 1) rotate(0) translate(4 1224)">
<title>%3</title>
<polygon fill="white" stroke="transparent" points="-4,4 -4,-1224 1506.89,-1224 1506.89,4 -4,4"/>
<!-- aiohttp -->
<g id="node1" class="node">
<title>aiohttp</title>
<g id="a_node1"><a xlink:href="https://github.com/conda-forge/aiohttp-feedstock" xlink:title="aiohttp">
<ellipse fill="#fde725" stroke="black" cx="458.25" cy="-294" rx="35.19" ry="18"/>
<text text-anchor="middle" x="458.25" y="-290.3" font-family="Times,serif" font-size="14.00">aiohttp</text>
</a>
</g>
</g>
<!-- astroscrappy -->
<g id="node2" class="node">
<title>astroscrappy</title>
<g id="a_node2"><a xlink:href="https://github.com/conda-forge/astroscrappy-feedstock/pull/11" xlink:title="astroscrappy ❎">
<ellipse fill="#31688e" stroke="black" cx="1007.25" cy="-1202" rx="67" ry="18"/>
<text text-anchor="middle" x="1007.25" y="-1198.3" font-family="Times,serif" font-size="14.00" fill="white">astroscrappy ❎</text>
</a>
</g>
</g>
<!-- pypy2.7 -->
<g id="node3" class="node">
<title>pypy2.7</title>
<g id="a_node3"><a xlink:href="https://github.com/conda-forge/pypy2.7-feedstock/pull/3" xlink:title="pypy2 7 ❎">
<ellipse fill="#31688e" stroke="black" cx="1007.25" cy="-1130" rx="51.5" ry="18"/>
<text text-anchor="middle" x="1007.25" y="-1126.3" font-family="Times,serif" font-size="14.00" fill="white">pypy2 7 ❎</text>
</a>
</g>
</g>
<!-- astroscrappy&#45;&gt;pypy2.7 -->
<!-- freeglut -->
<g id="node36" class="node">
<title>freeglut</title>
<g id="a_node36"><a xlink:href="https://github.com/conda-forge/freeglut-feedstock/pull/22" xlink:title="freeglut ❎">
<ellipse fill="#31688e" stroke="black" cx="1007.25" cy="-1058" rx="50.09" ry="18"/>
<text text-anchor="middle" x="1007.25" y="-1054.3" font-family="Times,serif" font-size="14.00" fill="white">freeglut ❎</text>
</a>
</g>
</g>
<!-- pypy2.7&#45;&gt;freeglut -->
<!-- cling -->
<g id="node4" class="node">
<title>cling</title>
<g id="a_node4"><a xlink:href="https://github.com/conda-forge/cling-feedstock/pull/43" xlink:title="cling ✓">
<ellipse fill="#31688e" stroke="black" cx="459.25" cy="-134" rx="38.5" ry="18"/>
<text text-anchor="middle" x="459.25" y="-130.3" font-family="Times,serif" font-size="14.00" fill="white">cling ✓</text>
</a>
</g>
</g>
<!-- xeus&#45;cling -->
<g id="node5" class="node">
<title>xeus&#45;cling</title>
<g id="a_node5"><a xlink:href="https://github.com/conda-forge/xeus-cling-feedstock" xlink:title="xeus cling">
<ellipse fill="#fde725" stroke="black" cx="459.25" cy="-62" rx="47" ry="18"/>
<text text-anchor="middle" x="459.25" y="-58.3" font-family="Times,serif" font-size="14.00">xeus cling</text>
</a>
</g>
</g>
<!-- cling&#45;&gt;xeus&#45;cling -->
<g id="edge2" class="edge">
<title>cling&#45;&gt;xeus&#45;cling</title>
<path fill="none" stroke="black" d="M459.25,-115.7C459.25,-107.98 459.25,-98.71 459.25,-90.11"/>
<polygon fill="black" stroke="black" points="462.75,-90.1 459.25,-80.1 455.75,-90.1 462.75,-90.1"/>
</g>
<!-- fastparquet -->
<g id="node6" class="node">
<title>fastparquet</title>
<g id="a_node6"><a xlink:href="https://github.com/conda-forge/fastparquet-feedstock" xlink:title="fastparquet">
<ellipse fill="#fde725" stroke="black" cx="459.25" cy="-178" rx="50.09" ry="18"/>
<text text-anchor="middle" x="459.25" y="-174.3" font-family="Times,serif" font-size="14.00">fastparquet</text>
</a>
</g>
</g>
<!-- freexl -->
<g id="node7" class="node">
<title>freexl</title>
<g id="a_node7"><a xlink:href="https://github.com/conda-forge/freexl-feedstock/pull/22" xlink:title="freexl ✓">
<ellipse fill="#31688e" stroke="black" cx="1138.25" cy="-986" rx="41.69" ry="18"/>
<text text-anchor="middle" x="1138.25" y="-982.3" font-family="Times,serif" font-size="14.00" fill="white">freexl ✓</text>
</a>
</g>
</g>
<!-- gdal -->
<g id="node8" class="node">
<title>gdal</title>
<g id="a_node8"><a xlink:href="https://github.com/conda-forge/gdal-feedstock" xlink:title="gdal">
<ellipse fill="#fde725" stroke="black" cx="1267.25" cy="-842" rx="27" ry="18"/>
<text text-anchor="middle" x="1267.25" y="-838.3" font-family="Times,serif" font-size="14.00">gdal</text>
</a>
</g>
</g>
<!-- freexl&#45;&gt;gdal -->
<g id="edge3" class="edge">
<title>freexl&#45;&gt;gdal</title>
<path fill="none" stroke="black" d="M1129.68,-968.31C1121.16,-949.13 1111.33,-917.53 1126.25,-896 1149.42,-862.53 1196.54,-850.17 1229.92,-845.62"/>
<polygon fill="black" stroke="black" points="1230.71,-849.05 1240.22,-844.4 1229.88,-842.1 1230.71,-849.05"/>
</g>
<!-- libspatialite -->
<g id="node9" class="node">
<title>libspatialite</title>
<g id="a_node9"><a xlink:href="https://github.com/conda-forge/libspatialite-feedstock" xlink:title="libspatialite">
<ellipse fill="#fde725" stroke="black" cx="1187.25" cy="-914" rx="52" ry="18"/>
<text text-anchor="middle" x="1187.25" y="-910.3" font-family="Times,serif" font-size="14.00">libspatialite</text>
</a>
</g>
</g>
<!-- freexl&#45;&gt;libspatialite -->
<g id="edge4" class="edge">
<title>freexl&#45;&gt;libspatialite</title>
<path fill="none" stroke="black" d="M1149.86,-968.41C1155.75,-959.99 1163.04,-949.58 1169.6,-940.2"/>
<polygon fill="black" stroke="black" points="1172.51,-942.16 1175.38,-931.96 1166.77,-938.14 1172.51,-942.16"/>
</g>
<!-- kealib -->
<g id="node10" class="node">
<title>kealib</title>
<g id="a_node10"><a xlink:href="https://github.com/conda-forge/kealib-feedstock" xlink:title="kealib">
<ellipse fill="#fde725" stroke="black" cx="1267.25" cy="-770" rx="32.5" ry="18"/>
<text text-anchor="middle" x="1267.25" y="-766.3" font-family="Times,serif" font-size="14.00">kealib</text>
</a>
</g>
</g>
<!-- gdal&#45;&gt;kealib -->
<g id="edge5" class="edge">
<title>gdal&#45;&gt;kealib</title>
<path fill="none" stroke="black" d="M1261.41,-824.41C1260.54,-816.51 1260.29,-806.85 1260.66,-797.94"/>
<polygon fill="black" stroke="black" points="1264.15,-798.18 1261.37,-787.96 1257.17,-797.68 1264.15,-798.18"/>
</g>
<!-- r&#45;sf -->
<g id="node11" class="node">
<title>r&#45;sf</title>
<g id="a_node11"><a xlink:href="https://github.com/conda-forge/r-sf-feedstock" xlink:title="r sf">
<ellipse fill="#fde725" stroke="black" cx="1397.25" cy="-770" rx="27" ry="18"/>
<text text-anchor="middle" x="1397.25" y="-766.3" font-family="Times,serif" font-size="14.00">r sf</text>
</a>
</g>
</g>
<!-- gdal&#45;&gt;r&#45;sf -->
<g id="edge6" class="edge">
<title>gdal&#45;&gt;r&#45;sf</title>
<path fill="none" stroke="black" d="M1287.56,-830.06C1309.09,-818.47 1343.29,-800.05 1367.78,-786.86"/>
<polygon fill="black" stroke="black" points="1369.5,-789.91 1376.65,-782.09 1366.18,-783.75 1369.5,-789.91"/>
</g>
<!-- libspatialite&#45;&gt;gdal -->
<g id="edge7" class="edge">
<title>libspatialite&#45;&gt;gdal</title>
<path fill="none" stroke="black" d="M1205.4,-897.12C1216.82,-887.12 1231.67,-874.13 1243.95,-863.38"/>
<polygon fill="black" stroke="black" points="1246.37,-865.91 1251.59,-856.7 1241.76,-860.65 1246.37,-865.91"/>
</g>
<!-- kealib&#45;&gt;gdal -->
<g id="edge8" class="edge">
<title>kealib&#45;&gt;gdal</title>
<path fill="none" stroke="black" d="M1273.12,-787.96C1273.96,-795.83 1274.19,-805.37 1273.83,-814.19"/>
<polygon fill="black" stroke="black" points="1270.32,-814.18 1273.09,-824.41 1277.3,-814.69 1270.32,-814.18"/>
</g>
<!-- r&#45;spdep -->
<g id="node12" class="node">
<title>r&#45;spdep</title>
<g id="a_node12"><a xlink:href="https://github.com/conda-forge/r-spdep-feedstock" xlink:title="r spdep">
<ellipse fill="#fde725" stroke="black" cx="1397.25" cy="-698" rx="36.5" ry="18"/>
<text text-anchor="middle" x="1397.25" y="-694.3" font-family="Times,serif" font-size="14.00">r spdep</text>
</a>
</g>
</g>
<!-- r&#45;sf&#45;&gt;r&#45;spdep -->
<g id="edge9" class="edge">
<title>r&#45;sf&#45;&gt;r&#45;spdep</title>
<path fill="none" stroke="black" d="M1397.25,-751.7C1397.25,-743.98 1397.25,-734.71 1397.25,-726.11"/>
<polygon fill="black" stroke="black" points="1400.75,-726.1 1397.25,-716.1 1393.75,-726.1 1400.75,-726.1"/>
</g>
<!-- geos -->
<g id="node13" class="node">
<title>geos</title>
<g id="a_node13"><a xlink:href="https://github.com/conda-forge/geos-feedstock/pull/47" xlink:title="geos ❎">
<ellipse fill="#31688e" stroke="black" cx="1251.25" cy="-986" rx="38.5" ry="18"/>
<text text-anchor="middle" x="1251.25" y="-982.3" font-family="Times,serif" font-size="14.00" fill="white">geos ❎</text>
</a>
</g>
</g>
<!-- geos&#45;&gt;gdal -->
<g id="edge10" class="edge">
<title>geos&#45;&gt;gdal</title>
<path fill="none" stroke="black" d="M1253.18,-967.87C1255.9,-943.67 1260.91,-899.21 1264.16,-870.39"/>
<polygon fill="black" stroke="black" points="1267.67,-870.52 1265.31,-860.19 1260.71,-869.73 1267.67,-870.52"/>
</g>
<!-- geos&#45;&gt;libspatialite -->
<g id="edge11" class="edge">
<title>geos&#45;&gt;libspatialite</title>
<path fill="none" stroke="black" d="M1236.72,-969.12C1228.57,-960.2 1218.25,-948.91 1209.13,-938.94"/>
<polygon fill="black" stroke="black" points="1211.49,-936.33 1202.15,-931.31 1206.32,-941.05 1211.49,-936.33"/>
</g>
<!-- hyperspy -->
<g id="node14" class="node">
<title>hyperspy</title>
<g id="a_node14"><a xlink:href="https://github.com/conda-forge/hyperspy-feedstock" xlink:title="hyperspy">
<ellipse fill="#fde725" stroke="black" cx="382.25" cy="-806" rx="43" ry="18"/>
<text text-anchor="middle" x="382.25" y="-802.3" font-family="Times,serif" font-size="14.00">hyperspy</text>
</a>
</g>
</g>
<!-- libunwind -->
<g id="node15" class="node">
<title>libunwind</title>
<g id="a_node15"><a xlink:href="https://github.com/conda-forge/libunwind-feedstock/pull/14" xlink:title="libunwind ❎">
<ellipse fill="#31688e" stroke="black" cx="1007.25" cy="-402" rx="58" ry="18"/>
<text text-anchor="middle" x="1007.25" y="-398.3" font-family="Times,serif" font-size="14.00" fill="white">libunwind ❎</text>
</a>
</g>
</g>
<!-- py&#45;spy -->
<g id="node16" class="node">
<title>py&#45;spy</title>
<g id="a_node16"><a xlink:href="https://github.com/conda-forge/py-spy-feedstock/pull/11" xlink:title="py spy ❎">
<ellipse fill="#31688e" stroke="black" cx="1007.25" cy="-330" rx="46.29" ry="18"/>
<text text-anchor="middle" x="1007.25" y="-326.3" font-family="Times,serif" font-size="14.00" fill="white">py spy ❎</text>
</a>
</g>
</g>
<!-- libunwind&#45;&gt;py&#45;spy -->
<g id="edge12" class="edge">
<title>libunwind&#45;&gt;py&#45;spy</title>
<path fill="none" stroke="black" d="M1007.25,-383.7C1007.25,-375.98 1007.25,-366.71 1007.25,-358.11"/>
<polygon fill="black" stroke="black" points="1010.75,-358.1 1007.25,-348.1 1003.75,-358.1 1010.75,-358.1"/>
</g>
<!-- link&#45;traits -->
<g id="node17" class="node">
<title>link&#45;traits</title>
<g id="a_node17"><a xlink:href="https://github.com/conda-forge/link-traits-feedstock/pull/10" xlink:title="link traits ✓">
<ellipse fill="#31688e" stroke="black" cx="384.25" cy="-878" rx="54.69" ry="18"/>
<text text-anchor="middle" x="384.25" y="-874.3" font-family="Times,serif" font-size="14.00" fill="white">link traits ✓</text>
</a>
</g>
</g>
<!-- link&#45;traits&#45;&gt;hyperspy -->
<g id="edge13" class="edge">
<title>link&#45;traits&#45;&gt;hyperspy</title>
<path fill="none" stroke="black" d="M383.75,-859.7C383.53,-851.98 383.27,-842.71 383.02,-834.11"/>
<polygon fill="black" stroke="black" points="386.52,-834 382.73,-824.1 379.52,-834.2 386.52,-834"/>
</g>
<!-- mono -->
<g id="node18" class="node">
<title>mono</title>
<g id="a_node18"><a xlink:href="https://github.com/conda-forge/mono-feedstock/pull/18" xlink:title="mono ❎">
<ellipse fill="#31688e" stroke="black" cx="1007.25" cy="-134" rx="43" ry="18"/>
<text text-anchor="middle" x="1007.25" y="-130.3" font-family="Times,serif" font-size="14.00" fill="white">mono ❎</text>
</a>
</g>
</g>
<!-- ogre -->
<g id="node19" class="node">
<title>ogre</title>
<g id="a_node19"><a xlink:href="https://github.com/conda-forge/ogre-feedstock" xlink:title="ogre">
<ellipse fill="#fde725" stroke="black" cx="1007.25" cy="-62" rx="27" ry="18"/>
<text text-anchor="middle" x="1007.25" y="-58.3" font-family="Times,serif" font-size="14.00">ogre</text>
</a>
</g>
</g>
<!-- mono&#45;&gt;ogre -->
<g id="edge14" class="edge">
<title>mono&#45;&gt;ogre</title>
<path fill="none" stroke="black" d="M1007.25,-115.7C1007.25,-107.98 1007.25,-98.71 1007.25,-90.11"/>
<polygon fill="black" stroke="black" points="1010.75,-90.1 1007.25,-80.1 1003.75,-90.1 1010.75,-90.1"/>
</g>
<!-- multidict -->
<g id="node20" class="node">
<title>multidict</title>
<g id="a_node20"><a xlink:href="https://github.com/conda-forge/multidict-feedstock/pull/29" xlink:title="multidict ✓">
<ellipse fill="#31688e" stroke="black" cx="458.25" cy="-438" rx="53.5" ry="18"/>
<text text-anchor="middle" x="458.25" y="-434.3" font-family="Times,serif" font-size="14.00" fill="white">multidict ✓</text>
</a>
</g>
</g>
<!-- multidict&#45;&gt;aiohttp -->
<g id="edge15" class="edge">
<title>multidict&#45;&gt;aiohttp</title>
<path fill="none" stroke="black" d="M455,-419.89C453.2,-409.54 451.15,-396.06 450.25,-384 449.05,-368.04 449.05,-363.96 450.25,-348 450.88,-339.52 452.08,-330.34 453.37,-322.04"/>
<polygon fill="black" stroke="black" points="456.83,-322.55 455,-312.11 449.92,-321.41 456.83,-322.55"/>
</g>
<!-- yarl -->
<g id="node21" class="node">
<title>yarl</title>
<g id="a_node21"><a xlink:href="https://github.com/conda-forge/yarl-feedstock" xlink:title="yarl">
<ellipse fill="#fde725" stroke="black" cx="486.25" cy="-366" rx="27" ry="18"/>
<text text-anchor="middle" x="486.25" y="-362.3" font-family="Times,serif" font-size="14.00">yarl</text>
</a>
</g>
</g>
<!-- multidict&#45;&gt;yarl -->
<g id="edge16" class="edge">
<title>multidict&#45;&gt;yarl</title>
<path fill="none" stroke="black" d="M465.02,-420.05C468.26,-411.97 472.2,-402.12 475.8,-393.11"/>
<polygon fill="black" stroke="black" points="479.07,-394.37 479.53,-383.79 472.57,-391.77 479.07,-394.37"/>
</g>
<!-- yarl&#45;&gt;aiohttp -->
<g id="edge17" class="edge">
<title>yarl&#45;&gt;aiohttp</title>
<path fill="none" stroke="black" d="M479.61,-348.41C476.38,-340.34 472.42,-330.43 468.79,-321.35"/>
<polygon fill="black" stroke="black" points="471.99,-319.94 465.03,-311.96 465.49,-322.54 471.99,-319.94"/>
</g>
<!-- nbgrader -->
<g id="node22" class="node">
<title>nbgrader</title>
<g id="a_node22"><a xlink:href="https://github.com/conda-forge/nbgrader-feedstock" xlink:title="nbgrader">
<ellipse fill="#fde725" stroke="black" cx="485.25" cy="-806" rx="42.49" ry="18"/>
<text text-anchor="middle" x="485.25" y="-802.3" font-family="Times,serif" font-size="14.00">nbgrader</text>
</a>
</g>
</g>
<!-- nltk_data -->
<g id="node23" class="node">
<title>nltk_data</title>
<g id="a_node23"><a xlink:href="https://github.com/conda-forge/nltk_data-feedstock/pull/5" xlink:title="nltk_data ❎">
<ellipse fill="#31688e" stroke="black" cx="55.25" cy="-878" rx="55.49" ry="18"/>
<text text-anchor="middle" x="55.25" y="-874.3" font-family="Times,serif" font-size="14.00" fill="white">nltk_data ❎</text>
</a>
</g>
</g>
<!-- allennlp -->
<g id="node24" class="node">
<title>allennlp</title>
<g id="a_node24"><a xlink:href="https://github.com/conda-forge/allennlp-feedstock" xlink:title="allennlp">
<ellipse fill="#fde725" stroke="black" cx="220.25" cy="-806" rx="39" ry="18"/>
<text text-anchor="middle" x="220.25" y="-802.3" font-family="Times,serif" font-size="14.00">allennlp</text>
</a>
</g>
</g>
<!-- nltk_data&#45;&gt;allennlp -->
<g id="edge18" class="edge">
<title>nltk_data&#45;&gt;allennlp</title>
<path fill="none" stroke="black" d="M87.45,-863.34C114.92,-851.68 154.42,-834.93 183.19,-822.72"/>
<polygon fill="black" stroke="black" points="184.67,-825.9 192.51,-818.77 181.93,-819.45 184.67,-825.9"/>
</g>
<!-- pyqt -->
<g id="node25" class="node">
<title>pyqt</title>
<g id="a_node25"><a xlink:href="https://github.com/conda-forge/pyqt-feedstock" xlink:title="pyqt">
<ellipse fill="#fde725" stroke="black" cx="485.25" cy="-878" rx="27" ry="18"/>
<text text-anchor="middle" x="485.25" y="-874.3" font-family="Times,serif" font-size="14.00">pyqt</text>
</a>
</g>
</g>
<!-- pyqt&#45;&gt;hyperspy -->
<g id="edge19" class="edge">
<title>pyqt&#45;&gt;hyperspy</title>
<path fill="none" stroke="black" d="M466.83,-864.49C451.71,-854.21 430,-839.46 412.36,-827.47"/>
<polygon fill="black" stroke="black" points="414.31,-824.56 404.07,-821.83 410.38,-830.35 414.31,-824.56"/>
</g>
<!-- pyqt&#45;&gt;nbgrader -->
<g id="edge20" class="edge">
<title>pyqt&#45;&gt;nbgrader</title>
<path fill="none" stroke="black" d="M485.25,-859.7C485.25,-851.98 485.25,-842.71 485.25,-834.11"/>
<polygon fill="black" stroke="black" points="488.75,-834.1 485.25,-824.1 481.75,-834.1 488.75,-834.1"/>
</g>
<!-- pyqt&#45;&gt;allennlp -->
<g id="edge21" class="edge">
<title>pyqt&#45;&gt;allennlp</title>
<path fill="none" stroke="black" d="M464.41,-866.54C459.22,-864.18 453.6,-861.83 448.25,-860 386.76,-838.97 313.13,-823.53 266.51,-814.91"/>
<polygon fill="black" stroke="black" points="266.88,-811.42 256.42,-813.07 265.63,-818.3 266.88,-811.42"/>
</g>
<!-- pythonocc&#45;core -->
<g id="node26" class="node">
<title>pythonocc&#45;core</title>
<g id="a_node26"><a xlink:href="https://github.com/conda-forge/pythonocc-core-feedstock" xlink:title="pythonocc core">
<ellipse fill="#fde725" stroke="black" cx="610.25" cy="-806" rx="65" ry="18"/>
<text text-anchor="middle" x="610.25" y="-802.3" font-family="Times,serif" font-size="14.00">pythonocc core</text>
</a>
</g>
</g>
<!-- pyqt&#45;&gt;pythonocc&#45;core -->
<g id="edge22" class="edge">
<title>pyqt&#45;&gt;pythonocc&#45;core</title>
<path fill="none" stroke="black" d="M505.33,-865.75C523.77,-855.43 551.53,-839.88 573.87,-827.37"/>
<polygon fill="black" stroke="black" points="575.74,-830.33 582.76,-822.39 572.32,-824.23 575.74,-830.33"/>
</g>
<!-- qt -->
<g id="node27" class="node">
<title>qt</title>
<g id="a_node27"><a xlink:href="https://github.com/conda-forge/qt-feedstock/pull/168" xlink:title="qt ❎">
<ellipse fill="#31688e" stroke="black" cx="758.25" cy="-950" rx="29.5" ry="18"/>
<text text-anchor="middle" x="758.25" y="-946.3" font-family="Times,serif" font-size="14.00" fill="white">qt ❎</text>
</a>
</g>
</g>
<!-- qt&#45;&gt;pyqt -->
<g id="edge23" class="edge">
<title>qt&#45;&gt;pyqt</title>
<path fill="none" stroke="black" d="M731.57,-942.16C681.91,-929.43 575.31,-902.09 520.06,-887.93"/>
<polygon fill="black" stroke="black" points="520.6,-884.45 510.04,-885.36 518.86,-891.23 520.6,-884.45"/>
</g>
<!-- pivy -->
<g id="node28" class="node">
<title>pivy</title>
<g id="a_node28"><a xlink:href="https://github.com/conda-forge/pivy-feedstock" xlink:title="pivy">
<ellipse fill="#fde725" stroke="black" cx="813.25" cy="-734" rx="27" ry="18"/>
<text text-anchor="middle" x="813.25" y="-730.3" font-family="Times,serif" font-size="14.00">pivy</text>
</a>
</g>
</g>
<!-- qt&#45;&gt;pivy -->
<g id="edge24" class="edge">
<title>qt&#45;&gt;pivy</title>
<path fill="none" stroke="black" d="M763.52,-932.12C770.89,-908.19 784.48,-862.99 794.25,-824 799.39,-803.44 804.36,-779.99 807.93,-762.32"/>
<polygon fill="black" stroke="black" points="811.43,-762.63 809.96,-752.14 804.57,-761.27 811.43,-762.63"/>
</g>
<!-- pyside2 -->
<g id="node29" class="node">
<title>pyside2</title>
<g id="a_node29"><a xlink:href="https://github.com/conda-forge/pyside2-feedstock" xlink:title="pyside2">
<ellipse fill="#fde725" stroke="black" cx="880.25" cy="-806" rx="38.5" ry="18"/>
<text text-anchor="middle" x="880.25" y="-802.3" font-family="Times,serif" font-size="14.00">pyside2</text>
</a>
</g>
</g>
<!-- qt&#45;&gt;pyside2 -->
<g id="edge25" class="edge">
<title>qt&#45;&gt;pyside2</title>
<path fill="none" stroke="black" d="M778.32,-936.58C793.05,-926.79 812.9,-912.15 827.25,-896 844.13,-877 858.53,-851.84 868.04,-833.13"/>
<polygon fill="black" stroke="black" points="871.26,-834.51 872.55,-823.99 864.98,-831.41 871.26,-834.51"/>
</g>
<!-- soqt -->
<g id="node30" class="node">
<title>soqt</title>
<g id="a_node30"><a xlink:href="https://github.com/conda-forge/soqt-feedstock" xlink:title="soqt">
<ellipse fill="#fde725" stroke="black" cx="758.25" cy="-806" rx="27" ry="18"/>
<text text-anchor="middle" x="758.25" y="-802.3" font-family="Times,serif" font-size="14.00">soqt</text>
</a>
</g>
</g>
<!-- qt&#45;&gt;soqt -->
<g id="edge26" class="edge">
<title>qt&#45;&gt;soqt</title>
<path fill="none" stroke="black" d="M758.25,-931.87C758.25,-907.67 758.25,-863.21 758.25,-834.39"/>
<polygon fill="black" stroke="black" points="761.75,-834.19 758.25,-824.19 754.75,-834.19 761.75,-834.19"/>
</g>
<!-- geant4 -->
<g id="node31" class="node">
<title>geant4</title>
<g id="a_node31"><a xlink:href="https://github.com/conda-forge/geant4-feedstock" xlink:title="geant4">
<ellipse fill="#fde725" stroke="black" cx="703.25" cy="-734" rx="34.5" ry="18"/>
<text text-anchor="middle" x="703.25" y="-730.3" font-family="Times,serif" font-size="14.00">geant4</text>
</a>
</g>
</g>
<!-- qt&#45;&gt;geant4 -->
<g id="edge27" class="edge">
<title>qt&#45;&gt;geant4</title>
<path fill="none" stroke="black" d="M752.98,-932.12C745.6,-908.19 732.01,-862.99 722.25,-824 717.1,-803.44 712.13,-779.99 708.56,-762.32"/>
<polygon fill="black" stroke="black" points="711.92,-761.27 706.53,-752.14 705.06,-762.63 711.92,-761.27"/>
</g>
<!-- pyside2&#45;&gt;pivy -->
<g id="edge28" class="edge">
<title>pyside2&#45;&gt;pivy</title>
<path fill="none" stroke="black" d="M865.04,-789.12C856.06,-779.73 844.54,-767.7 834.65,-757.36"/>
<polygon fill="black" stroke="black" points="836.92,-754.67 827.47,-749.86 831.86,-759.51 836.92,-754.67"/>
</g>
<!-- soqt&#45;&gt;pivy -->
<g id="edge29" class="edge">
<title>soqt&#45;&gt;pivy</title>
<path fill="none" stroke="black" d="M770.18,-789.81C777.46,-780.55 786.91,-768.52 795.1,-758.09"/>
<polygon fill="black" stroke="black" points="797.91,-760.18 801.33,-750.16 792.4,-755.86 797.91,-760.18"/>
</g>
<!-- r&#45;units -->
<g id="node32" class="node">
<title>r&#45;units</title>
<g id="a_node32"><a xlink:href="https://github.com/conda-forge/r-units-feedstock" xlink:title="r units">
<ellipse fill="#fde725" stroke="black" cx="1423.25" cy="-842" rx="33.29" ry="18"/>
<text text-anchor="middle" x="1423.25" y="-838.3" font-family="Times,serif" font-size="14.00">r units</text>
</a>
</g>
</g>
<!-- r&#45;units&#45;&gt;r&#45;sf -->
<g id="edge30" class="edge">
<title>r&#45;units&#45;&gt;r&#45;sf</title>
<path fill="none" stroke="black" d="M1416.95,-824.05C1413.98,-816.06 1410.37,-806.33 1407.05,-797.4"/>
<polygon fill="black" stroke="black" points="1410.24,-795.94 1403.48,-787.79 1403.68,-798.38 1410.24,-795.94"/>
</g>
<!-- singularity -->
<g id="node33" class="node">
<title>singularity</title>
<g id="a_node33"><a xlink:href="https://github.com/conda-forge/singularity-feedstock" xlink:title="singularity">
<ellipse fill="#fde725" stroke="black" cx="1007.25" cy="-178" rx="48.19" ry="18"/>
<text text-anchor="middle" x="1007.25" y="-174.3" font-family="Times,serif" font-size="14.00">singularity</text>
</a>
</g>
</g>
<!-- thrift -->
<g id="node34" class="node">
<title>thrift</title>
<g id="a_node34"><a xlink:href="https://github.com/conda-forge/thrift-feedstock/pull/17" xlink:title="thrift ✓">
<ellipse fill="#31688e" stroke="black" cx="459.25" cy="-250" rx="38.5" ry="18"/>
<text text-anchor="middle" x="459.25" y="-246.3" font-family="Times,serif" font-size="14.00" fill="white">thrift ✓</text>
</a>
</g>
</g>
<!-- thrift&#45;&gt;fastparquet -->
<g id="edge31" class="edge">
<title>thrift&#45;&gt;fastparquet</title>
<path fill="none" stroke="black" d="M459.25,-231.7C459.25,-223.98 459.25,-214.71 459.25,-206.11"/>
<polygon fill="black" stroke="black" points="462.75,-206.1 459.25,-196.1 455.75,-206.1 462.75,-206.1"/>
</g>
<!-- udunits2 -->
<g id="node35" class="node">
<title>udunits2</title>
<g id="a_node35"><a xlink:href="https://github.com/conda-forge/udunits2-feedstock/pull/32" xlink:title="udunits2 ❎">
<ellipse fill="#31688e" stroke="black" cx="1450.25" cy="-914" rx="52.79" ry="18"/>
<text text-anchor="middle" x="1450.25" y="-910.3" font-family="Times,serif" font-size="14.00" fill="white">udunits2 ❎</text>
</a>
</g>
</g>
<!-- udunits2&#45;&gt;r&#45;units -->
<g id="edge32" class="edge">
<title>udunits2&#45;&gt;r&#45;units</title>
<path fill="none" stroke="black" d="M1443.71,-896.05C1440.62,-888.06 1436.87,-878.33 1433.43,-869.4"/>
<polygon fill="black" stroke="black" points="1436.59,-867.86 1429.72,-859.79 1430.05,-870.38 1436.59,-867.86"/>
</g>
<!-- root_numpy -->
<g id="node40" class="node">
<title>root_numpy</title>
<g id="a_node40"><a xlink:href="https://github.com/conda-forge/root_numpy-feedstock/pull/17" xlink:title="root_numpy ❎">
<ellipse fill="#31688e" stroke="black" cx="1007.25" cy="-986" rx="65.79" ry="18"/>
<text text-anchor="middle" x="1007.25" y="-982.3" font-family="Times,serif" font-size="14.00" fill="white">root_numpy ❎</text>
</a>
</g>
</g>
<!-- freeglut&#45;&gt;root_numpy -->
<!-- tiledb -->
<g id="node37" class="node">
<title>tiledb</title>
<g id="a_node37"><a xlink:href="https://github.com/conda-forge/tiledb-feedstock/pull/80" xlink:title="tiledb ❎">
<ellipse fill="#31688e" stroke="black" cx="1337.25" cy="-914" rx="42.49" ry="18"/>
<text text-anchor="middle" x="1337.25" y="-910.3" font-family="Times,serif" font-size="14.00" fill="white">tiledb ❎</text>
</a>
</g>
</g>
<!-- tiledb&#45;&gt;gdal -->
<g id="edge34" class="edge">
<title>tiledb&#45;&gt;gdal</title>
<path fill="none" stroke="black" d="M1321.36,-897.12C1311.75,-887.51 1299.37,-875.13 1288.88,-864.63"/>
<polygon fill="black" stroke="black" points="1291.18,-861.99 1281.64,-857.39 1286.23,-866.94 1291.18,-861.99"/>
</g>
<!-- libsvm -->
<g id="node38" class="node">
<title>libsvm</title>
<g id="a_node38"><a xlink:href="https://github.com/conda-forge/libsvm-feedstock/pull/16" xlink:title="libsvm ❎">
<ellipse fill="#31688e" stroke="black" cx="1300.25" cy="-250" rx="47" ry="18"/>
<text text-anchor="middle" x="1300.25" y="-246.3" font-family="Times,serif" font-size="14.00" fill="white">libsvm ❎</text>
</a>
</g>
</g>
<!-- cctbx&#45;base -->
<g id="node39" class="node">
<title>cctbx&#45;base</title>
<g id="a_node39"><a xlink:href="https://github.com/conda-forge/cctbx-base-feedstock" xlink:title="cctbx base">
<ellipse fill="#fde725" stroke="black" cx="1300.25" cy="-178" rx="48.19" ry="18"/>
<text text-anchor="middle" x="1300.25" y="-174.3" font-family="Times,serif" font-size="14.00">cctbx base</text>
</a>
</g>
</g>
<!-- libsvm&#45;&gt;cctbx&#45;base -->
<g id="edge35" class="edge">
<title>libsvm&#45;&gt;cctbx&#45;base</title>
<path fill="none" stroke="black" d="M1300.25,-231.7C1300.25,-223.98 1300.25,-214.71 1300.25,-206.11"/>
<polygon fill="black" stroke="black" points="1303.75,-206.1 1300.25,-196.1 1296.75,-206.1 1303.75,-206.1"/>
</g>
<!-- xtensor&#45;io -->
<g id="node42" class="node">
<title>xtensor&#45;io</title>
<g id="a_node42"><a xlink:href="https://github.com/conda-forge/xtensor-io-feedstock/pull/15" xlink:title="xtensor io ❎">
<ellipse fill="#31688e" stroke="black" cx="1007.25" cy="-914" rx="58" ry="18"/>
<text text-anchor="middle" x="1007.25" y="-910.3" font-family="Times,serif" font-size="14.00" fill="white">xtensor io ❎</text>
</a>
</g>
</g>
<!-- root_numpy&#45;&gt;xtensor&#45;io -->
<!-- occt -->
<g id="node41" class="node">
<title>occt</title>
<g id="a_node41"><a xlink:href="https://github.com/conda-forge/occt-feedstock/pull/59" xlink:title="occt ❎">
<ellipse fill="#31688e" stroke="black" cx="610.25" cy="-878" rx="37.09" ry="18"/>
<text text-anchor="middle" x="610.25" y="-874.3" font-family="Times,serif" font-size="14.00" fill="white">occt ❎</text>
</a>
</g>
</g>
<!-- occt&#45;&gt;pythonocc&#45;core -->
<g id="edge37" class="edge">
<title>occt&#45;&gt;pythonocc&#45;core</title>
<path fill="none" stroke="black" d="M610.25,-859.7C610.25,-851.98 610.25,-842.71 610.25,-834.11"/>
<polygon fill="black" stroke="black" points="613.75,-834.1 610.25,-824.1 606.75,-834.1 613.75,-834.1"/>
</g>
<!-- ibm_db -->
<g id="node46" class="node">
<title>ibm_db</title>
<g id="a_node46"><a xlink:href="https://github.com/conda-forge/ibm_db-feedstock/pull/10" xlink:title="ibm_db ❎">
<ellipse fill="#31688e" stroke="black" cx="1007.25" cy="-842" rx="50.09" ry="18"/>
<text text-anchor="middle" x="1007.25" y="-838.3" font-family="Times,serif" font-size="14.00" fill="white">ibm_db ❎</text>
</a>
</g>
</g>
<!-- xtensor&#45;io&#45;&gt;ibm_db -->
<!-- pytorch&#45;pretrained&#45;bert -->
<g id="node43" class="node">
<title>pytorch&#45;pretrained&#45;bert</title>
<g id="a_node43"><a xlink:href="https://github.com/conda-forge/pytorch-pretrained-bert-feedstock" xlink:title="pytorch pretrained bert">
<ellipse fill="#fde725" stroke="black" cx="220.25" cy="-878" rx="91.78" ry="18"/>
<text text-anchor="middle" x="220.25" y="-874.3" font-family="Times,serif" font-size="14.00">pytorch pretrained bert</text>
</a>
</g>
</g>
<!-- pytorch&#45;pretrained&#45;bert&#45;&gt;allennlp -->
<g id="edge39" class="edge">
<title>pytorch&#45;pretrained&#45;bert&#45;&gt;allennlp</title>
<path fill="none" stroke="black" d="M220.25,-859.7C220.25,-851.98 220.25,-842.71 220.25,-834.11"/>
<polygon fill="black" stroke="black" points="223.75,-834.1 220.25,-824.1 216.75,-834.1 223.75,-834.1"/>
</g>
<!-- pytorch&#45;cpu -->
<g id="node44" class="node">
<title>pytorch&#45;cpu</title>
<g id="a_node44"><a xlink:href="https://github.com/conda-forge/pytorch-cpu-feedstock/pull/18" xlink:title="pytorch cpu ❎">
<ellipse fill="#31688e" stroke="black" cx="220.25" cy="-950" rx="64.5" ry="18"/>
<text text-anchor="middle" x="220.25" y="-946.3" font-family="Times,serif" font-size="14.00" fill="white">pytorch cpu ❎</text>
</a>
</g>
</g>
<!-- pytorch&#45;cpu&#45;&gt;pytorch&#45;pretrained&#45;bert -->
<g id="edge40" class="edge">
<title>pytorch&#45;cpu&#45;&gt;pytorch&#45;pretrained&#45;bert</title>
<path fill="none" stroke="black" d="M220.25,-931.7C220.25,-923.98 220.25,-914.71 220.25,-906.11"/>
<polygon fill="black" stroke="black" points="223.75,-906.1 220.25,-896.1 216.75,-906.1 223.75,-906.1"/>
</g>
<!-- go&#45;dep -->
<g id="node45" class="node">
<title>go&#45;dep</title>
<g id="a_node45"><a xlink:href="https://github.com/conda-forge/go-dep-feedstock/pull/12" xlink:title="go dep ❎">
<ellipse fill="#31688e" stroke="black" cx="1007.25" cy="-250" rx="46.29" ry="18"/>
<text text-anchor="middle" x="1007.25" y="-246.3" font-family="Times,serif" font-size="14.00" fill="white">go dep ❎</text>
</a>
</g>
</g>
<!-- go&#45;dep&#45;&gt;singularity -->
<g id="edge41" class="edge">
<title>go&#45;dep&#45;&gt;singularity</title>
<path fill="none" stroke="black" d="M1007.25,-231.7C1007.25,-223.98 1007.25,-214.71 1007.25,-206.11"/>
<polygon fill="black" stroke="black" points="1010.75,-206.1 1007.25,-196.1 1003.75,-206.1 1010.75,-206.1"/>
</g>
<!-- cudatoolkit -->
<g id="node49" class="node">
<title>cudatoolkit</title>
<g id="a_node49"><a xlink:href="https://github.com/conda-forge/cudatoolkit-feedstock/pull/4" xlink:title="cudatoolkit ❎">
<ellipse fill="#31688e" stroke="black" cx="1007.25" cy="-770" rx="61.99" ry="18"/>
<text text-anchor="middle" x="1007.25" y="-766.3" font-family="Times,serif" font-size="14.00" fill="white">cudatoolkit ❎</text>
</a>
</g>
</g>
<!-- ibm_db&#45;&gt;cudatoolkit -->
<!-- procps&#45;ng -->
<g id="node47" class="node">
<title>procps&#45;ng</title>
<g id="a_node47"><a xlink:href="https://github.com/conda-forge/procps-ng-feedstock/pull/3" xlink:title="procps ng ✓">
<ellipse fill="#31688e" stroke="black" cx="1300.25" cy="-402" rx="56" ry="18"/>
<text text-anchor="middle" x="1300.25" y="-398.3" font-family="Times,serif" font-size="14.00" fill="white">procps ng ✓</text>
</a>
</g>
</g>
<!-- myproxy -->
<g id="node48" class="node">
<title>myproxy</title>
<g id="a_node48"><a xlink:href="https://github.com/conda-forge/myproxy-feedstock" xlink:title="myproxy">
<ellipse fill="#fde725" stroke="black" cx="1300.25" cy="-330" rx="43" ry="18"/>
<text text-anchor="middle" x="1300.25" y="-326.3" font-family="Times,serif" font-size="14.00">myproxy</text>
</a>
</g>
</g>
<!-- procps&#45;ng&#45;&gt;myproxy -->
<g id="edge43" class="edge">
<title>procps&#45;ng&#45;&gt;myproxy</title>
<path fill="none" stroke="black" d="M1300.25,-383.7C1300.25,-375.98 1300.25,-366.71 1300.25,-358.11"/>
<polygon fill="black" stroke="black" points="1303.75,-358.1 1300.25,-348.1 1296.75,-358.1 1303.75,-358.1"/>
</g>
<!-- libusb -->
<g id="node50" class="node">
<title>libusb</title>
<g id="a_node50"><a xlink:href="https://github.com/conda-forge/libusb-feedstock/pull/6" xlink:title="libusb ❎">
<ellipse fill="#31688e" stroke="black" cx="1007.25" cy="-698" rx="44.39" ry="18"/>
<text text-anchor="middle" x="1007.25" y="-694.3" font-family="Times,serif" font-size="14.00" fill="white">libusb ❎</text>
</a>
</g>
</g>
<!-- cudatoolkit&#45;&gt;libusb -->
<!-- proj -->
<g id="node51" class="node">
<title>proj</title>
<g id="a_node51"><a xlink:href="https://github.com/conda-forge/proj-feedstock" xlink:title="proj">
<ellipse fill="#35b779" stroke="black" cx="1007.25" cy="-626" rx="27" ry="18"/>
<text text-anchor="middle" x="1007.25" y="-622.3" font-family="Times,serif" font-size="14.00">proj</text>
</a>
</g>
</g>
<!-- libusb&#45;&gt;proj -->
<!-- _openmp_mutex -->
<g id="node52" class="node">
<title>_openmp_mutex</title>
<g id="a_node52"><a xlink:href="https://github.com/conda-forge/_openmp_mutex-feedstock/pull/5" xlink:title="_openmp_mutex ✓">
<ellipse fill="#31688e" stroke="black" cx="1007.25" cy="-554" rx="81.49" ry="18"/>
<text text-anchor="middle" x="1007.25" y="-550.3" font-family="Times,serif" font-size="14.00" fill="white">_openmp_mutex ✓</text>
</a>
</g>
</g>
<!-- proj&#45;&gt;_openmp_mutex -->
<!-- ompl -->
<g id="node53" class="node">
<title>ompl</title>
<g id="a_node53"><a xlink:href="https://github.com/conda-forge/ompl-feedstock/pull/8" xlink:title="ompl ❎">
<ellipse fill="#31688e" stroke="black" cx="1007.25" cy="-482" rx="41" ry="18"/>
<text text-anchor="middle" x="1007.25" y="-478.3" font-family="Times,serif" font-size="14.00" fill="white">ompl ❎</text>
</a>
</g>
</g>
<!-- _openmp_mutex&#45;&gt;ompl -->
<!-- nordugrid&#45;arc -->
<g id="node54" class="node">
<title>nordugrid&#45;arc</title>
<g id="a_node54"><a xlink:href="https://github.com/conda-forge/nordugrid-arc-feedstock/pull/14" xlink:title="nordugrid arc ❎">
<ellipse fill="#31688e" stroke="black" cx="459.25" cy="-18" rx="70.39" ry="18"/>
<text text-anchor="middle" x="459.25" y="-14.3" font-family="Times,serif" font-size="14.00" fill="white">nordugrid arc ❎</text>
</a>
</g>
</g>
<!-- s2n -->
<g id="node55" class="node">
<title>s2n</title>
<g id="a_node55"><a xlink:href="https://github.com/conda-forge/s2n-feedstock/pull/5" xlink:title="s2n ❎">
<ellipse fill="#31688e" stroke="black" cx="1300.25" cy="-134" rx="34.5" ry="18"/>
<text text-anchor="middle" x="1300.25" y="-130.3" font-family="Times,serif" font-size="14.00" fill="white">s2n ❎</text>
</a>
</g>
</g>
<!-- aws&#45;c&#45;io -->
<g id="node56" class="node">
<title>aws&#45;c&#45;io</title>
<g id="a_node56"><a xlink:href="https://github.com/conda-forge/aws-c-io-feedstock" xlink:title="aws c io">
<ellipse fill="#fde725" stroke="black" cx="1300.25" cy="-62" rx="40.5" ry="18"/>
<text text-anchor="middle" x="1300.25" y="-58.3" font-family="Times,serif" font-size="14.00">aws c io</text>
</a>
</g>
</g>
<!-- s2n&#45;&gt;aws&#45;c&#45;io -->
<g id="edge49" class="edge">
<title>s2n&#45;&gt;aws&#45;c&#45;io</title>
<path fill="none" stroke="black" d="M1300.25,-115.7C1300.25,-107.98 1300.25,-98.71 1300.25,-90.11"/>
<polygon fill="black" stroke="black" points="1303.75,-90.1 1300.25,-80.1 1296.75,-90.1 1303.75,-90.1"/>
</g>
</g>
</svg>
