<?xml version="1.0" encoding="UTF-8" standalone="no"?>
<!DOCTYPE svg PUBLIC "-//W3C//DTD SVG 1.1//EN"
 "http://www.w3.org/Graphics/SVG/1.1/DTD/svg11.dtd">
<!-- Generated by graphviz version 2.42.3 (20191010.1750)
 -->
<!-- Title: %3 Pages: 1 -->
<svg width="1599pt" height="852pt"
 viewBox="0.00 0.00 1599.15 852.00" xmlns="http://www.w3.org/2000/svg" xmlns:xlink="http://www.w3.org/1999/xlink">
<g id="graph0" class="graph" transform="scale(1 1) rotate(0) translate(4 848)">
<title>%3</title>
<polygon fill="white" stroke="transparent" points="-4,4 -4,-848 1595.15,-848 1595.15,4 -4,4"/>
<!-- aiohttp -->
<g id="node1" class="node">
<title>aiohttp</title>
<g id="a_node1"><a xlink:href="https://github.com/conda-forge/aiohttp-feedstock" xlink:title="aiohttp">
<ellipse fill="#fde725" stroke="black" cx="279.5" cy="-646" rx="35.19" ry="18"/>
<text text-anchor="middle" x="279.5" y="-642.3" font-family="Times,serif" font-size="14.00">aiohttp</text>
</a>
</g>
</g>
<!-- black -->
<g id="node2" class="node">
<title>black</title>
<g id="a_node2"><a xlink:href="https://github.com/conda-forge/black-feedstock" xlink:title="black">
<ellipse fill="#fde725" stroke="black" cx="279.5" cy="-574" rx="30" ry="18"/>
<text text-anchor="middle" x="279.5" y="-570.3" font-family="Times,serif" font-size="14.00">black</text>
</a>
</g>
</g>
<!-- aiohttp&#45;&gt;black -->
<g id="edge1" class="edge">
<title>aiohttp&#45;&gt;black</title>
<path fill="none" stroke="black" d="M273.62,-628.05C272.79,-620.23 272.55,-610.75 272.91,-601.98"/>
<polygon fill="black" stroke="black" points="276.42,-602.01 273.64,-591.79 269.43,-601.51 276.42,-602.01"/>
</g>
<!-- black&#45;&gt;aiohttp -->
<g id="edge2" class="edge">
<title>black&#45;&gt;aiohttp</title>
<path fill="none" stroke="black" d="M285.36,-591.79C286.2,-599.59 286.44,-609.07 286.1,-617.85"/>
<polygon fill="black" stroke="black" points="282.59,-617.83 285.38,-628.05 289.57,-618.33 282.59,-617.83"/>
</g>
<!-- hyperspy -->
<g id="node3" class="node">
<title>hyperspy</title>
<g id="a_node3"><a xlink:href="https://github.com/conda-forge/hyperspy-feedstock" xlink:title="hyperspy">
<ellipse fill="#fde725" stroke="black" cx="350.5" cy="-502" rx="43" ry="18"/>
<text text-anchor="middle" x="350.5" y="-498.3" font-family="Times,serif" font-size="14.00">hyperspy</text>
</a>
</g>
</g>
<!-- black&#45;&gt;hyperspy -->
<g id="edge3" class="edge">
<title>black&#45;&gt;hyperspy</title>
<path fill="none" stroke="black" d="M294.56,-558.15C304.08,-548.76 316.59,-536.44 327.36,-525.82"/>
<polygon fill="black" stroke="black" points="329.81,-528.31 334.48,-518.8 324.9,-523.33 329.81,-528.31"/>
</g>
<!-- nbgrader -->
<g id="node4" class="node">
<title>nbgrader</title>
<g id="a_node4"><a xlink:href="https://github.com/conda-forge/nbgrader-feedstock" xlink:title="nbgrader">
<ellipse fill="#fde725" stroke="black" cx="453.5" cy="-502" rx="42.49" ry="18"/>
<text text-anchor="middle" x="453.5" y="-498.3" font-family="Times,serif" font-size="14.00">nbgrader</text>
</a>
</g>
</g>
<!-- black&#45;&gt;nbgrader -->
<g id="edge4" class="edge">
<title>black&#45;&gt;nbgrader</title>
<path fill="none" stroke="black" d="M303.69,-563.27C332.25,-551.78 380.14,-532.51 414.08,-518.86"/>
<polygon fill="black" stroke="black" points="415.72,-521.97 423.69,-514.99 413.1,-515.48 415.72,-521.97"/>
</g>
<!-- allennlp -->
<g id="node5" class="node">
<title>allennlp</title>
<g id="a_node5"><a xlink:href="https://github.com/conda-forge/allennlp-feedstock" xlink:title="allennlp">
<ellipse fill="#fde725" stroke="black" cx="241.5" cy="-358" rx="39" ry="18"/>
<text text-anchor="middle" x="241.5" y="-354.3" font-family="Times,serif" font-size="14.00">allennlp</text>
</a>
</g>
</g>
<!-- black&#45;&gt;allennlp -->
<g id="edge5" class="edge">
<title>black&#45;&gt;allennlp</title>
<path fill="none" stroke="black" d="M276.45,-555.85C269.87,-518.75 254.25,-430.81 246.31,-386.1"/>
<polygon fill="black" stroke="black" points="249.75,-385.47 244.56,-376.23 242.86,-386.69 249.75,-385.47"/>
</g>
<!-- pytorch&#45;cpu -->
<g id="node6" class="node">
<title>pytorch&#45;cpu</title>
<g id="a_node6"><a xlink:href="https://github.com/conda-forge/pytorch-cpu-feedstock" xlink:title="pytorch cpu">
<ellipse fill="#fde725" stroke="black" cx="121.5" cy="-502" rx="52.79" ry="18"/>
<text text-anchor="middle" x="121.5" y="-498.3" font-family="Times,serif" font-size="14.00">pytorch cpu</text>
</a>
</g>
</g>
<!-- black&#45;&gt;pytorch&#45;cpu -->
<g id="edge6" class="edge">
<title>black&#45;&gt;pytorch&#45;cpu</title>
<path fill="none" stroke="black" d="M256.19,-562.67C231.32,-551.66 191.49,-534.01 161.57,-520.75"/>
<polygon fill="black" stroke="black" points="162.8,-517.47 152.24,-516.62 159.97,-523.87 162.8,-517.47"/>
</g>
<!-- dm&#45;tree -->
<g id="node7" class="node">
<title>dm&#45;tree</title>
<g id="a_node7"><a xlink:href="https://github.com/conda-forge/dm-tree-feedstock" xlink:title="dm tree">
<ellipse fill="#fde725" stroke="black" cx="308.5" cy="-430" rx="38.5" ry="18"/>
<text text-anchor="middle" x="308.5" y="-426.3" font-family="Times,serif" font-size="14.00">dm tree</text>
</a>
</g>
</g>
<!-- black&#45;&gt;dm&#45;tree -->
<g id="edge7" class="edge">
<title>black&#45;&gt;dm&#45;tree</title>
<path fill="none" stroke="black" d="M283,-555.87C287.96,-531.56 297.1,-486.82 302.98,-458.01"/>
<polygon fill="black" stroke="black" points="306.42,-458.69 304.99,-448.19 299.56,-457.29 306.42,-458.69"/>
</g>
<!-- pytorch&#45;cpu&#45;&gt;allennlp -->
<g id="edge42" class="edge">
<title>pytorch&#45;cpu&#45;&gt;allennlp</title>
<path fill="none" stroke="black" d="M80.32,-490.58C58.47,-482.73 33.51,-469.52 20.5,-448 12.22,-434.31 10.59,-424.56 20.5,-412 41.59,-385.26 134.74,-370.48 193.16,-363.69"/>
<polygon fill="black" stroke="black" points="193.74,-367.15 203.29,-362.56 192.96,-360.19 193.74,-367.15"/>
</g>
<!-- pytorch&#45;pretrained&#45;bert -->
<g id="node41" class="node">
<title>pytorch&#45;pretrained&#45;bert</title>
<g id="a_node41"><a xlink:href="https://github.com/conda-forge/pytorch-pretrained-bert-feedstock" xlink:title="pytorch pretrained bert">
<ellipse fill="#fde725" stroke="black" cx="121.5" cy="-430" rx="91.78" ry="18"/>
<text text-anchor="middle" x="121.5" y="-426.3" font-family="Times,serif" font-size="14.00">pytorch pretrained bert</text>
</a>
</g>
</g>
<!-- pytorch&#45;cpu&#45;&gt;pytorch&#45;pretrained&#45;bert -->
<g id="edge43" class="edge">
<title>pytorch&#45;cpu&#45;&gt;pytorch&#45;pretrained&#45;bert</title>
<path fill="none" stroke="black" d="M121.5,-483.7C121.5,-475.98 121.5,-466.71 121.5,-458.11"/>
<polygon fill="black" stroke="black" points="125,-458.1 121.5,-448.1 118,-458.1 125,-458.1"/>
</g>
<!-- astroscrappy -->
<g id="node8" class="node">
<title>astroscrappy</title>
<g id="a_node8"><a xlink:href="https://github.com/conda-forge/astroscrappy-feedstock/pull/11" xlink:title="astroscrappy ❎">
<ellipse fill="#31688e" stroke="black" cx="1107.5" cy="-826" rx="67" ry="18"/>
<text text-anchor="middle" x="1107.5" y="-822.3" font-family="Times,serif" font-size="14.00" fill="white">astroscrappy ❎</text>
</a>
</g>
</g>
<!-- pypy2.7 -->
<g id="node9" class="node">
<title>pypy2.7</title>
<g id="a_node9"><a xlink:href="https://github.com/conda-forge/pypy2.7-feedstock/pull/3" xlink:title="pypy2 7 ❎">
<ellipse fill="#31688e" stroke="black" cx="1107.5" cy="-754" rx="51.5" ry="18"/>
<text text-anchor="middle" x="1107.5" y="-750.3" font-family="Times,serif" font-size="14.00" fill="white">pypy2 7 ❎</text>
</a>
</g>
</g>
<!-- astroscrappy&#45;&gt;pypy2.7 -->
<!-- root_numpy -->
<g id="node37" class="node">
<title>root_numpy</title>
<g id="a_node37"><a xlink:href="https://github.com/conda-forge/root_numpy-feedstock/pull/19" xlink:title="root_numpy ❎">
<ellipse fill="#31688e" stroke="black" cx="1107.5" cy="-682" rx="65.79" ry="18"/>
<text text-anchor="middle" x="1107.5" y="-678.3" font-family="Times,serif" font-size="14.00" fill="white">root_numpy ❎</text>
</a>
</g>
</g>
<!-- pypy2.7&#45;&gt;root_numpy -->
<!-- elfutils -->
<g id="node10" class="node">
<title>elfutils</title>
<g id="a_node10"><a xlink:href="https://github.com/conda-forge/elfutils-feedstock/pull/20" xlink:title="elfutils ❎">
<ellipse fill="#31688e" stroke="black" cx="447.5" cy="-206" rx="47" ry="18"/>
<text text-anchor="middle" x="447.5" y="-202.3" font-family="Times,serif" font-size="14.00" fill="white">elfutils ❎</text>
</a>
</g>
</g>
<!-- heaptrack -->
<g id="node11" class="node">
<title>heaptrack</title>
<g id="a_node11"><a xlink:href="https://github.com/conda-forge/heaptrack-feedstock" xlink:title="heaptrack">
<ellipse fill="#fde725" stroke="black" cx="454.5" cy="-134" rx="45" ry="18"/>
<text text-anchor="middle" x="454.5" y="-130.3" font-family="Times,serif" font-size="14.00">heaptrack</text>
</a>
</g>
</g>
<!-- elfutils&#45;&gt;heaptrack -->
<g id="edge9" class="edge">
<title>elfutils&#45;&gt;heaptrack</title>
<path fill="none" stroke="black" d="M449.23,-187.7C450,-179.98 450.93,-170.71 451.79,-162.11"/>
<polygon fill="black" stroke="black" points="455.28,-162.4 452.79,-152.1 448.31,-161.71 455.28,-162.4"/>
</g>
<!-- fastparquet -->
<g id="node12" class="node">
<title>fastparquet</title>
<g id="a_node12"><a xlink:href="https://github.com/conda-forge/fastparquet-feedstock" xlink:title="fastparquet">
<ellipse fill="#fde725" stroke="black" cx="1388.5" cy="-134" rx="50.09" ry="18"/>
<text text-anchor="middle" x="1388.5" y="-130.3" font-family="Times,serif" font-size="14.00">fastparquet</text>
</a>
</g>
</g>
<!-- freexl -->
<g id="node13" class="node">
<title>freexl</title>
<g id="a_node13"><a xlink:href="https://github.com/conda-forge/freexl-feedstock/pull/22" xlink:title="freexl ✓">
<ellipse fill="#31688e" stroke="black" cx="1226.5" cy="-682" rx="41.69" ry="18"/>
<text text-anchor="middle" x="1226.5" y="-678.3" font-family="Times,serif" font-size="14.00" fill="white">freexl ✓</text>
</a>
</g>
</g>
<!-- gdal -->
<g id="node14" class="node">
<title>gdal</title>
<g id="a_node14"><a xlink:href="https://github.com/conda-forge/gdal-feedstock" xlink:title="gdal">
<ellipse fill="#fde725" stroke="black" cx="1355.5" cy="-538" rx="27" ry="18"/>
<text text-anchor="middle" x="1355.5" y="-534.3" font-family="Times,serif" font-size="14.00">gdal</text>
</a>
</g>
</g>
<!-- freexl&#45;&gt;gdal -->
<g id="edge10" class="edge">
<title>freexl&#45;&gt;gdal</title>
<path fill="none" stroke="black" d="M1217.94,-664.31C1209.42,-645.13 1199.59,-613.53 1214.5,-592 1237.67,-558.53 1284.79,-546.17 1318.17,-541.62"/>
<polygon fill="black" stroke="black" points="1318.96,-545.05 1328.48,-540.4 1318.14,-538.1 1318.96,-545.05"/>
</g>
<!-- libspatialite -->
<g id="node15" class="node">
<title>libspatialite</title>
<g id="a_node15"><a xlink:href="https://github.com/conda-forge/libspatialite-feedstock" xlink:title="libspatialite">
<ellipse fill="#fde725" stroke="black" cx="1275.5" cy="-610" rx="52" ry="18"/>
<text text-anchor="middle" x="1275.5" y="-606.3" font-family="Times,serif" font-size="14.00">libspatialite</text>
</a>
</g>
</g>
<!-- freexl&#45;&gt;libspatialite -->
<g id="edge11" class="edge">
<title>freexl&#45;&gt;libspatialite</title>
<path fill="none" stroke="black" d="M1238.11,-664.41C1244.01,-655.99 1251.29,-645.58 1257.86,-636.2"/>
<polygon fill="black" stroke="black" points="1260.76,-638.16 1263.63,-627.96 1255.03,-634.14 1260.76,-638.16"/>
</g>
<!-- kealib -->
<g id="node16" class="node">
<title>kealib</title>
<g id="a_node16"><a xlink:href="https://github.com/conda-forge/kealib-feedstock" xlink:title="kealib">
<ellipse fill="#fde725" stroke="black" cx="1355.5" cy="-466" rx="32.5" ry="18"/>
<text text-anchor="middle" x="1355.5" y="-462.3" font-family="Times,serif" font-size="14.00">kealib</text>
</a>
</g>
</g>
<!-- gdal&#45;&gt;kealib -->
<g id="edge12" class="edge">
<title>gdal&#45;&gt;kealib</title>
<path fill="none" stroke="black" d="M1349.66,-520.41C1348.8,-512.51 1348.55,-502.85 1348.91,-493.94"/>
<polygon fill="black" stroke="black" points="1352.4,-494.18 1349.62,-483.96 1345.42,-493.68 1352.4,-494.18"/>
</g>
<!-- r&#45;sf -->
<g id="node17" class="node">
<title>r&#45;sf</title>
<g id="a_node17"><a xlink:href="https://github.com/conda-forge/r-sf-feedstock" xlink:title="r sf">
<ellipse fill="#fde725" stroke="black" cx="1485.5" cy="-466" rx="27" ry="18"/>
<text text-anchor="middle" x="1485.5" y="-462.3" font-family="Times,serif" font-size="14.00">r sf</text>
</a>
</g>
</g>
<!-- gdal&#45;&gt;r&#45;sf -->
<g id="edge13" class="edge">
<title>gdal&#45;&gt;r&#45;sf</title>
<path fill="none" stroke="black" d="M1375.81,-526.06C1397.34,-514.47 1431.55,-496.05 1456.04,-482.86"/>
<polygon fill="black" stroke="black" points="1457.76,-485.91 1464.9,-478.09 1454.44,-479.75 1457.76,-485.91"/>
</g>
<!-- libspatialite&#45;&gt;gdal -->
<g id="edge14" class="edge">
<title>libspatialite&#45;&gt;gdal</title>
<path fill="none" stroke="black" d="M1293.65,-593.12C1305.07,-583.12 1319.92,-570.13 1332.21,-559.38"/>
<polygon fill="black" stroke="black" points="1334.63,-561.91 1339.85,-552.7 1330.02,-556.65 1334.63,-561.91"/>
</g>
<!-- kealib&#45;&gt;gdal -->
<g id="edge15" class="edge">
<title>kealib&#45;&gt;gdal</title>
<path fill="none" stroke="black" d="M1361.38,-483.96C1362.21,-491.83 1362.45,-501.37 1362.08,-510.19"/>
<polygon fill="black" stroke="black" points="1358.57,-510.18 1361.34,-520.41 1365.56,-510.69 1358.57,-510.18"/>
</g>
<!-- r&#45;spdep -->
<g id="node18" class="node">
<title>r&#45;spdep</title>
<g id="a_node18"><a xlink:href="https://github.com/conda-forge/r-spdep-feedstock" xlink:title="r spdep">
<ellipse fill="#fde725" stroke="black" cx="1485.5" cy="-394" rx="36.5" ry="18"/>
<text text-anchor="middle" x="1485.5" y="-390.3" font-family="Times,serif" font-size="14.00">r spdep</text>
</a>
</g>
</g>
<!-- r&#45;sf&#45;&gt;r&#45;spdep -->
<g id="edge16" class="edge">
<title>r&#45;sf&#45;&gt;r&#45;spdep</title>
<path fill="none" stroke="black" d="M1485.5,-447.7C1485.5,-439.98 1485.5,-430.71 1485.5,-422.11"/>
<polygon fill="black" stroke="black" points="1489,-422.1 1485.5,-412.1 1482,-422.1 1489,-422.1"/>
</g>
<!-- geos -->
<g id="node19" class="node">
<title>geos</title>
<g id="a_node19"><a xlink:href="https://github.com/conda-forge/geos-feedstock/pull/47" xlink:title="geos ❎">
<ellipse fill="#31688e" stroke="black" cx="1339.5" cy="-682" rx="38.5" ry="18"/>
<text text-anchor="middle" x="1339.5" y="-678.3" font-family="Times,serif" font-size="14.00" fill="white">geos ❎</text>
</a>
</g>
</g>
<!-- geos&#45;&gt;gdal -->
<g id="edge17" class="edge">
<title>geos&#45;&gt;gdal</title>
<path fill="none" stroke="black" d="M1341.43,-663.87C1344.16,-639.67 1349.17,-595.21 1352.41,-566.39"/>
<polygon fill="black" stroke="black" points="1355.92,-566.52 1353.56,-556.19 1348.97,-565.73 1355.92,-566.52"/>
</g>
<!-- geos&#45;&gt;libspatialite -->
<g id="edge18" class="edge">
<title>geos&#45;&gt;libspatialite</title>
<path fill="none" stroke="black" d="M1324.98,-665.12C1316.83,-656.2 1306.5,-644.91 1297.39,-634.94"/>
<polygon fill="black" stroke="black" points="1299.74,-632.33 1290.41,-627.31 1294.57,-637.05 1299.74,-632.33"/>
</g>
<!-- libunwind -->
<g id="node20" class="node">
<title>libunwind</title>
<g id="a_node20"><a xlink:href="https://github.com/conda-forge/libunwind-feedstock/pull/14" xlink:title="libunwind ❎">
<ellipse fill="#31688e" stroke="black" cx="570.5" cy="-206" rx="58" ry="18"/>
<text text-anchor="middle" x="570.5" y="-202.3" font-family="Times,serif" font-size="14.00" fill="white">libunwind ❎</text>
</a>
</g>
</g>
<!-- libunwind&#45;&gt;heaptrack -->
<g id="edge19" class="edge">
<title>libunwind&#45;&gt;heaptrack</title>
<path fill="none" stroke="black" d="M545.04,-189.64C527.96,-179.33 505.32,-165.67 486.95,-154.58"/>
<polygon fill="black" stroke="black" points="488.68,-151.54 478.31,-149.37 485.07,-157.53 488.68,-151.54"/>
</g>
<!-- py&#45;spy -->
<g id="node21" class="node">
<title>py&#45;spy</title>
<g id="a_node21"><a xlink:href="https://github.com/conda-forge/py-spy-feedstock/pull/11" xlink:title="py spy ❎">
<ellipse fill="#31688e" stroke="black" cx="570.5" cy="-134" rx="46.29" ry="18"/>
<text text-anchor="middle" x="570.5" y="-130.3" font-family="Times,serif" font-size="14.00" fill="white">py spy ❎</text>
</a>
</g>
</g>
<!-- libunwind&#45;&gt;py&#45;spy -->
<g id="edge20" class="edge">
<title>libunwind&#45;&gt;py&#45;spy</title>
<path fill="none" stroke="black" d="M570.5,-187.7C570.5,-179.98 570.5,-170.71 570.5,-162.11"/>
<polygon fill="black" stroke="black" points="574,-162.1 570.5,-152.1 567,-162.1 574,-162.1"/>
</g>
<!-- mono -->
<g id="node22" class="node">
<title>mono</title>
<g id="a_node22"><a xlink:href="https://github.com/conda-forge/mono-feedstock/pull/18" xlink:title="mono ❎">
<ellipse fill="#31688e" stroke="black" cx="1107.5" cy="-90" rx="43" ry="18"/>
<text text-anchor="middle" x="1107.5" y="-86.3" font-family="Times,serif" font-size="14.00" fill="white">mono ❎</text>
</a>
</g>
</g>
<!-- ogre -->
<g id="node23" class="node">
<title>ogre</title>
<g id="a_node23"><a xlink:href="https://github.com/conda-forge/ogre-feedstock" xlink:title="ogre">
<ellipse fill="#fde725" stroke="black" cx="1107.5" cy="-18" rx="27" ry="18"/>
<text text-anchor="middle" x="1107.5" y="-14.3" font-family="Times,serif" font-size="14.00">ogre</text>
</a>
</g>
</g>
<!-- mono&#45;&gt;ogre -->
<g id="edge21" class="edge">
<title>mono&#45;&gt;ogre</title>
<path fill="none" stroke="black" d="M1107.5,-71.7C1107.5,-63.98 1107.5,-54.71 1107.5,-46.11"/>
<polygon fill="black" stroke="black" points="1111,-46.1 1107.5,-36.1 1104,-46.1 1111,-46.1"/>
</g>
<!-- nltk_data -->
<g id="node24" class="node">
<title>nltk_data</title>
<g id="a_node24"><a xlink:href="https://github.com/conda-forge/nltk_data-feedstock/pull/5" xlink:title="nltk_data ❎">
<ellipse fill="#31688e" stroke="black" cx="606.5" cy="-430" rx="55.49" ry="18"/>
<text text-anchor="middle" x="606.5" y="-426.3" font-family="Times,serif" font-size="14.00" fill="white">nltk_data ❎</text>
</a>
</g>
</g>
<!-- nltk_data&#45;&gt;allennlp -->
<g id="edge22" class="edge">
<title>nltk_data&#45;&gt;allennlp</title>
<path fill="none" stroke="black" d="M564.64,-418.23C555.71,-416.06 546.31,-413.87 537.5,-412 449.82,-393.37 346.61,-375.89 288.14,-366.4"/>
<polygon fill="black" stroke="black" points="288.53,-362.92 278.1,-364.77 287.42,-369.83 288.53,-362.92"/>
</g>
<!-- pyqt -->
<g id="node25" class="node">
<title>pyqt</title>
<g id="a_node25"><a xlink:href="https://github.com/conda-forge/pyqt-feedstock" xlink:title="pyqt">
<ellipse fill="#fde725" stroke="black" cx="523.5" cy="-574" rx="27" ry="18"/>
<text text-anchor="middle" x="523.5" y="-570.3" font-family="Times,serif" font-size="14.00">pyqt</text>
</a>
</g>
</g>
<!-- pyqt&#45;&gt;hyperspy -->
<g id="edge23" class="edge">
<title>pyqt&#45;&gt;hyperspy</title>
<path fill="none" stroke="black" d="M500.88,-563.85C472.67,-552.43 423.97,-532.73 389.65,-518.84"/>
<polygon fill="black" stroke="black" points="390.96,-515.6 380.38,-515.09 388.34,-522.08 390.96,-515.6"/>
</g>
<!-- pyqt&#45;&gt;nbgrader -->
<g id="edge24" class="edge">
<title>pyqt&#45;&gt;nbgrader</title>
<path fill="none" stroke="black" d="M509,-558.5C499.63,-549.13 487.23,-536.73 476.53,-526.03"/>
<polygon fill="black" stroke="black" points="479,-523.55 469.45,-518.95 474.05,-528.5 479,-523.55"/>
</g>
<!-- pyqt&#45;&gt;allennlp -->
<g id="edge25" class="edge">
<title>pyqt&#45;&gt;allennlp</title>
<path fill="none" stroke="black" d="M524.11,-555.73C523.91,-536.31 520.79,-504.75 504.5,-484 449.76,-414.27 346.61,-381.42 287.06,-367.64"/>
<polygon fill="black" stroke="black" points="287.7,-364.2 277.18,-365.44 286.18,-371.03 287.7,-364.2"/>
</g>
<!-- pythonocc&#45;core -->
<g id="node26" class="node">
<title>pythonocc&#45;core</title>
<g id="a_node26"><a xlink:href="https://github.com/conda-forge/pythonocc-core-feedstock" xlink:title="pythonocc core">
<ellipse fill="#fde725" stroke="black" cx="616.5" cy="-502" rx="65" ry="18"/>
<text text-anchor="middle" x="616.5" y="-498.3" font-family="Times,serif" font-size="14.00">pythonocc core</text>
</a>
</g>
</g>
<!-- pyqt&#45;&gt;pythonocc&#45;core -->
<g id="edge26" class="edge">
<title>pyqt&#45;&gt;pythonocc&#45;core</title>
<path fill="none" stroke="black" d="M540.99,-559.83C553.96,-550.08 571.93,-536.55 587.09,-525.14"/>
<polygon fill="black" stroke="black" points="589.28,-527.87 595.17,-519.06 585.07,-522.27 589.28,-527.87"/>
</g>
<!-- qt -->
<g id="node27" class="node">
<title>qt</title>
<g id="a_node27"><a xlink:href="https://github.com/conda-forge/qt-feedstock/pull/168" xlink:title="qt ❎">
<ellipse fill="#31688e" stroke="black" cx="731.5" cy="-646" rx="29.5" ry="18"/>
<text text-anchor="middle" x="731.5" y="-642.3" font-family="Times,serif" font-size="14.00" fill="white">qt ❎</text>
</a>
</g>
</g>
<!-- qt&#45;&gt;pyqt -->
<g id="edge27" class="edge">
<title>qt&#45;&gt;pyqt</title>
<path fill="none" stroke="black" d="M705.7,-637.42C672.89,-627.64 614.58,-609.74 565.5,-592 562.22,-590.81 558.82,-589.53 555.43,-588.21"/>
<polygon fill="black" stroke="black" points="556.63,-584.93 546.05,-584.49 554.05,-591.43 556.63,-584.93"/>
</g>
<!-- pivy -->
<g id="node28" class="node">
<title>pivy</title>
<g id="a_node28"><a xlink:href="https://github.com/conda-forge/pivy-feedstock" xlink:title="pivy">
<ellipse fill="#fde725" stroke="black" cx="731.5" cy="-502" rx="27" ry="18"/>
<text text-anchor="middle" x="731.5" y="-498.3" font-family="Times,serif" font-size="14.00">pivy</text>
</a>
</g>
</g>
<!-- qt&#45;&gt;pivy -->
<g id="edge28" class="edge">
<title>qt&#45;&gt;pivy</title>
<path fill="none" stroke="black" d="M717.75,-630.07C709.54,-620.1 699.88,-606.25 695.5,-592 690.8,-576.71 690.8,-571.29 695.5,-556 698.79,-545.31 705.04,-534.85 711.43,-526.08"/>
<polygon fill="black" stroke="black" points="714.38,-527.98 717.75,-517.93 708.85,-523.69 714.38,-527.98"/>
</g>
<!-- pyside2 -->
<g id="node29" class="node">
<title>pyside2</title>
<g id="a_node29"><a xlink:href="https://github.com/conda-forge/pyside2-feedstock" xlink:title="pyside2">
<ellipse fill="#fde725" stroke="black" cx="815.5" cy="-574" rx="38.5" ry="18"/>
<text text-anchor="middle" x="815.5" y="-570.3" font-family="Times,serif" font-size="14.00">pyside2</text>
</a>
</g>
</g>
<!-- qt&#45;&gt;pyside2 -->
<g id="edge29" class="edge">
<title>qt&#45;&gt;pyside2</title>
<path fill="none" stroke="black" d="M748.1,-631.17C759.9,-621.34 775.98,-607.93 789.48,-596.69"/>
<polygon fill="black" stroke="black" points="792.04,-599.1 797.48,-590.01 787.56,-593.73 792.04,-599.1"/>
</g>
<!-- soqt -->
<g id="node30" class="node">
<title>soqt</title>
<g id="a_node30"><a xlink:href="https://github.com/conda-forge/soqt-feedstock" xlink:title="soqt">
<ellipse fill="#fde725" stroke="black" cx="731.5" cy="-574" rx="27" ry="18"/>
<text text-anchor="middle" x="731.5" y="-570.3" font-family="Times,serif" font-size="14.00">soqt</text>
</a>
</g>
</g>
<!-- qt&#45;&gt;soqt -->
<g id="edge30" class="edge">
<title>qt&#45;&gt;soqt</title>
<path fill="none" stroke="black" d="M731.5,-627.7C731.5,-619.98 731.5,-610.71 731.5,-602.11"/>
<polygon fill="black" stroke="black" points="735,-602.1 731.5,-592.1 728,-602.1 735,-602.1"/>
</g>
<!-- geant4 -->
<g id="node31" class="node">
<title>geant4</title>
<g id="a_node31"><a xlink:href="https://github.com/conda-forge/geant4-feedstock" xlink:title="geant4">
<ellipse fill="#fde725" stroke="black" cx="994.5" cy="-502" rx="34.5" ry="18"/>
<text text-anchor="middle" x="994.5" y="-498.3" font-family="Times,serif" font-size="14.00">geant4</text>
</a>
</g>
</g>
<!-- qt&#45;&gt;geant4 -->
<g id="edge31" class="edge">
<title>qt&#45;&gt;geant4</title>
<path fill="none" stroke="black" d="M760.49,-642.59C818.42,-637.17 945.51,-622.09 975.5,-592 991.4,-576.04 995.48,-550.25 995.98,-530.53"/>
<polygon fill="black" stroke="black" points="999.48,-530.28 995.94,-520.3 992.48,-530.31 999.48,-530.28"/>
</g>
<!-- pyside2&#45;&gt;pivy -->
<g id="edge32" class="edge">
<title>pyside2&#45;&gt;pivy</title>
<path fill="none" stroke="black" d="M797.27,-557.81C785.05,-547.62 768.81,-534.09 755.53,-523.02"/>
<polygon fill="black" stroke="black" points="757.63,-520.22 747.7,-516.5 753.15,-525.59 757.63,-520.22"/>
</g>
<!-- cctbx&#45;base -->
<g id="node32" class="node">
<title>cctbx&#45;base</title>
<g id="a_node32"><a xlink:href="https://github.com/conda-forge/cctbx-base-feedstock" xlink:title="cctbx base">
<ellipse fill="#fde725" stroke="black" cx="859.5" cy="-502" rx="48.19" ry="18"/>
<text text-anchor="middle" x="859.5" y="-498.3" font-family="Times,serif" font-size="14.00">cctbx base</text>
</a>
</g>
</g>
<!-- pyside2&#45;&gt;cctbx&#45;base -->
<g id="edge33" class="edge">
<title>pyside2&#45;&gt;cctbx&#45;base</title>
<path fill="none" stroke="black" d="M825.93,-556.41C831.17,-548.08 837.63,-537.8 843.48,-528.49"/>
<polygon fill="black" stroke="black" points="846.48,-530.29 848.84,-519.96 840.56,-526.56 846.48,-530.29"/>
</g>
<!-- soqt&#45;&gt;pivy -->
<g id="edge34" class="edge">
<title>soqt&#45;&gt;pivy</title>
<path fill="none" stroke="black" d="M731.5,-555.7C731.5,-547.98 731.5,-538.71 731.5,-530.11"/>
<polygon fill="black" stroke="black" points="735,-530.1 731.5,-520.1 728,-530.1 735,-530.1"/>
</g>
<!-- r&#45;units -->
<g id="node33" class="node">
<title>r&#45;units</title>
<g id="a_node33"><a xlink:href="https://github.com/conda-forge/r-units-feedstock" xlink:title="r units">
<ellipse fill="#fde725" stroke="black" cx="1511.5" cy="-538" rx="33.29" ry="18"/>
<text text-anchor="middle" x="1511.5" y="-534.3" font-family="Times,serif" font-size="14.00">r units</text>
</a>
</g>
</g>
<!-- r&#45;units&#45;&gt;r&#45;sf -->
<g id="edge35" class="edge">
<title>r&#45;units&#45;&gt;r&#45;sf</title>
<path fill="none" stroke="black" d="M1505.21,-520.05C1502.24,-512.06 1498.62,-502.33 1495.31,-493.4"/>
<polygon fill="black" stroke="black" points="1498.5,-491.94 1491.74,-483.79 1491.94,-494.38 1498.5,-491.94"/>
</g>
<!-- singularity -->
<g id="node34" class="node">
<title>singularity</title>
<g id="a_node34"><a xlink:href="https://github.com/conda-forge/singularity-feedstock" xlink:title="singularity">
<ellipse fill="#fde725" stroke="black" cx="514.5" cy="-18" rx="48.19" ry="18"/>
<text text-anchor="middle" x="514.5" y="-14.3" font-family="Times,serif" font-size="14.00">singularity</text>
</a>
</g>
</g>
<!-- thrift -->
<g id="node35" class="node">
<title>thrift</title>
<g id="a_node35"><a xlink:href="https://github.com/conda-forge/thrift-feedstock/pull/17" xlink:title="thrift ✓">
<ellipse fill="#31688e" stroke="black" cx="1388.5" cy="-206" rx="38.5" ry="18"/>
<text text-anchor="middle" x="1388.5" y="-202.3" font-family="Times,serif" font-size="14.00" fill="white">thrift ✓</text>
</a>
</g>
</g>
<!-- thrift&#45;&gt;fastparquet -->
<g id="edge36" class="edge">
<title>thrift&#45;&gt;fastparquet</title>
<path fill="none" stroke="black" d="M1388.5,-187.7C1388.5,-179.98 1388.5,-170.71 1388.5,-162.11"/>
<polygon fill="black" stroke="black" points="1392,-162.1 1388.5,-152.1 1385,-162.1 1392,-162.1"/>
</g>
<!-- udunits2 -->
<g id="node36" class="node">
<title>udunits2</title>
<g id="a_node36"><a xlink:href="https://github.com/conda-forge/udunits2-feedstock/pull/39" xlink:title="udunits2 ❎">
<ellipse fill="#31688e" stroke="black" cx="1538.5" cy="-610" rx="52.79" ry="18"/>
<text text-anchor="middle" x="1538.5" y="-606.3" font-family="Times,serif" font-size="14.00" fill="white">udunits2 ❎</text>
</a>
</g>
</g>
<!-- udunits2&#45;&gt;r&#45;units -->
<g id="edge37" class="edge">
<title>udunits2&#45;&gt;r&#45;units</title>
<path fill="none" stroke="black" d="M1531.96,-592.05C1528.88,-584.06 1525.13,-574.33 1521.68,-565.4"/>
<polygon fill="black" stroke="black" points="1524.84,-563.86 1517.98,-555.79 1518.31,-566.38 1524.84,-563.86"/>
</g>
<!-- ibm_db -->
<g id="node42" class="node">
<title>ibm_db</title>
<g id="a_node42"><a xlink:href="https://github.com/conda-forge/ibm_db-feedstock/pull/10" xlink:title="ibm_db ❎">
<ellipse fill="#31688e" stroke="black" cx="1107.5" cy="-610" rx="50.09" ry="18"/>
<text text-anchor="middle" x="1107.5" y="-606.3" font-family="Times,serif" font-size="14.00" fill="white">ibm_db ❎</text>
</a>
</g>
</g>
<!-- root_numpy&#45;&gt;ibm_db -->
<!-- tiledb -->
<g id="node38" class="node">
<title>tiledb</title>
<g id="a_node38"><a xlink:href="https://github.com/conda-forge/tiledb-feedstock/pull/80" xlink:title="tiledb ❎">
<ellipse fill="#31688e" stroke="black" cx="1425.5" cy="-610" rx="42.49" ry="18"/>
<text text-anchor="middle" x="1425.5" y="-606.3" font-family="Times,serif" font-size="14.00" fill="white">tiledb ❎</text>
</a>
</g>
</g>
<!-- tiledb&#45;&gt;gdal -->
<g id="edge39" class="edge">
<title>tiledb&#45;&gt;gdal</title>
<path fill="none" stroke="black" d="M1409.62,-593.12C1400.01,-583.51 1387.63,-571.13 1377.13,-560.63"/>
<polygon fill="black" stroke="black" points="1379.44,-557.99 1369.89,-553.39 1374.49,-562.94 1379.44,-557.99"/>
</g>
<!-- libsvm -->
<g id="node39" class="node">
<title>libsvm</title>
<g id="a_node39"><a xlink:href="https://github.com/conda-forge/libsvm-feedstock/pull/16" xlink:title="libsvm ❎">
<ellipse fill="#31688e" stroke="black" cx="919.5" cy="-574" rx="47" ry="18"/>
<text text-anchor="middle" x="919.5" y="-570.3" font-family="Times,serif" font-size="14.00" fill="white">libsvm ❎</text>
</a>
</g>
</g>
<!-- libsvm&#45;&gt;cctbx&#45;base -->
<g id="edge40" class="edge">
<title>libsvm&#45;&gt;cctbx&#45;base</title>
<path fill="none" stroke="black" d="M905.58,-556.76C898.12,-548.06 888.77,-537.15 880.44,-527.43"/>
<polygon fill="black" stroke="black" points="882.92,-524.95 873.76,-519.63 877.61,-529.5 882.92,-524.95"/>
</g>
<!-- occt -->
<g id="node40" class="node">
<title>occt</title>
<g id="a_node40"><a xlink:href="https://github.com/conda-forge/occt-feedstock/pull/59" xlink:title="occt ❎">
<ellipse fill="#31688e" stroke="black" cx="611.5" cy="-574" rx="37.09" ry="18"/>
<text text-anchor="middle" x="611.5" y="-570.3" font-family="Times,serif" font-size="14.00" fill="white">occt ❎</text>
</a>
</g>
</g>
<!-- occt&#45;&gt;pythonocc&#45;core -->
<g id="edge41" class="edge">
<title>occt&#45;&gt;pythonocc&#45;core</title>
<path fill="none" stroke="black" d="M612.74,-555.7C613.29,-547.98 613.95,-538.71 614.56,-530.11"/>
<polygon fill="black" stroke="black" points="618.06,-530.33 615.28,-520.1 611.07,-529.83 618.06,-530.33"/>
</g>
<!-- pytorch&#45;pretrained&#45;bert&#45;&gt;allennlp -->
<g id="edge45" class="edge">
<title>pytorch&#45;pretrained&#45;bert&#45;&gt;allennlp</title>
<path fill="none" stroke="black" d="M149.33,-412.76C167.3,-402.28 190.74,-388.61 209.48,-377.68"/>
<polygon fill="black" stroke="black" points="211.38,-380.62 218.26,-372.56 207.85,-374.57 211.38,-380.62"/>
</g>
<!-- cudatoolkit -->
<g id="node46" class="node">
<title>cudatoolkit</title>
<g id="a_node46"><a xlink:href="https://github.com/conda-forge/cudatoolkit-feedstock/pull/4" xlink:title="cudatoolkit ❎">
<ellipse fill="#31688e" stroke="black" cx="1107.5" cy="-538" rx="61.99" ry="18"/>
<text text-anchor="middle" x="1107.5" y="-534.3" font-family="Times,serif" font-size="14.00" fill="white">cudatoolkit ❎</text>
</a>
</g>
</g>
<!-- ibm_db&#45;&gt;cudatoolkit -->
<!-- go&#45;dep -->
<g id="node43" class="node">
<title>go&#45;dep</title>
<g id="a_node43"><a xlink:href="https://github.com/conda-forge/go-dep-feedstock/pull/12" xlink:title="go dep ❎">
<ellipse fill="#31688e" stroke="black" cx="514.5" cy="-90" rx="46.29" ry="18"/>
<text text-anchor="middle" x="514.5" y="-86.3" font-family="Times,serif" font-size="14.00" fill="white">go dep ❎</text>
</a>
</g>
</g>
<!-- go&#45;dep&#45;&gt;singularity -->
<g id="edge46" class="edge">
<title>go&#45;dep&#45;&gt;singularity</title>
<path fill="none" stroke="black" d="M514.5,-71.7C514.5,-63.98 514.5,-54.71 514.5,-46.11"/>
<polygon fill="black" stroke="black" points="518,-46.1 514.5,-36.1 511,-46.1 518,-46.1"/>
</g>
<!-- procps&#45;ng -->
<g id="node44" class="node">
<title>procps&#45;ng</title>
<g id="a_node44"><a xlink:href="https://github.com/conda-forge/procps-ng-feedstock/pull/3" xlink:title="procps ng ✓">
<ellipse fill="#31688e" stroke="black" cx="1107.5" cy="-206" rx="56" ry="18"/>
<text text-anchor="middle" x="1107.5" y="-202.3" font-family="Times,serif" font-size="14.00" fill="white">procps ng ✓</text>
</a>
</g>
</g>
<!-- myproxy -->
<g id="node45" class="node">
<title>myproxy</title>
<g id="a_node45"><a xlink:href="https://github.com/conda-forge/myproxy-feedstock" xlink:title="myproxy">
<ellipse fill="#fde725" stroke="black" cx="1107.5" cy="-134" rx="43" ry="18"/>
<text text-anchor="middle" x="1107.5" y="-130.3" font-family="Times,serif" font-size="14.00">myproxy</text>
</a>
</g>
</g>
<!-- procps&#45;ng&#45;&gt;myproxy -->
<g id="edge47" class="edge">
<title>procps&#45;ng&#45;&gt;myproxy</title>
<path fill="none" stroke="black" d="M1107.5,-187.7C1107.5,-179.98 1107.5,-170.71 1107.5,-162.11"/>
<polygon fill="black" stroke="black" points="1111,-162.1 1107.5,-152.1 1104,-162.1 1111,-162.1"/>
</g>
<!-- libusb -->
<g id="node47" class="node">
<title>libusb</title>
<g id="a_node47"><a xlink:href="https://github.com/conda-forge/libusb-feedstock/pull/8" xlink:title="libusb ❎">
<ellipse fill="#31688e" stroke="black" cx="1107.5" cy="-466" rx="44.39" ry="18"/>
<text text-anchor="middle" x="1107.5" y="-462.3" font-family="Times,serif" font-size="14.00" fill="white">libusb ❎</text>
</a>
</g>
</g>
<!-- cudatoolkit&#45;&gt;libusb -->
<!-- proj -->
<g id="node48" class="node">
<title>proj</title>
<g id="a_node48"><a xlink:href="https://github.com/conda-forge/proj-feedstock" xlink:title="proj">
<ellipse fill="#35b779" stroke="black" cx="1107.5" cy="-394" rx="27" ry="18"/>
<text text-anchor="middle" x="1107.5" y="-390.3" font-family="Times,serif" font-size="14.00">proj</text>
</a>
</g>
</g>
<!-- libusb&#45;&gt;proj -->
<!-- ompl -->
<g id="node49" class="node">
<title>ompl</title>
<g id="a_node49"><a xlink:href="https://github.com/conda-forge/ompl-feedstock/pull/8" xlink:title="ompl ❎">
<ellipse fill="#31688e" stroke="black" cx="1107.5" cy="-322" rx="41" ry="18"/>
<text text-anchor="middle" x="1107.5" y="-318.3" font-family="Times,serif" font-size="14.00" fill="white">ompl ❎</text>
</a>
</g>
</g>
<!-- proj&#45;&gt;ompl -->
<!-- nordugrid&#45;arc -->
<g id="node52" class="node">
<title>nordugrid&#45;arc</title>
<g id="a_node52"><a xlink:href="https://github.com/conda-forge/nordugrid-arc-feedstock/pull/14" xlink:title="nordugrid arc ❎">
<ellipse fill="#31688e" stroke="black" cx="1107.5" cy="-250" rx="70.39" ry="18"/>
<text text-anchor="middle" x="1107.5" y="-246.3" font-family="Times,serif" font-size="14.00" fill="white">nordugrid arc ❎</text>
</a>
</g>
</g>
<!-- ompl&#45;&gt;nordugrid&#45;arc -->
<!-- nccl -->
<g id="node50" class="node">
<title>nccl</title>
<g id="a_node50"><a xlink:href="https://github.com/conda-forge/nccl-feedstock/pull/29" xlink:title="nccl ❎">
<ellipse fill="#31688e" stroke="black" cx="186.5" cy="-574" rx="37.09" ry="18"/>
<text text-anchor="middle" x="186.5" y="-570.3" font-family="Times,serif" font-size="14.00" fill="white">nccl ❎</text>
</a>
</g>
</g>
<!-- nccl&#45;&gt;pytorch&#45;cpu -->
<g id="edge52" class="edge">
<title>nccl&#45;&gt;pytorch&#45;cpu</title>
<path fill="none" stroke="black" d="M171.75,-557.12C163.39,-548.12 152.78,-536.68 143.46,-526.65"/>
<polygon fill="black" stroke="black" points="146.01,-524.25 136.64,-519.31 140.88,-529.02 146.01,-524.25"/>
</g>
<!-- cudnn -->
<g id="node51" class="node">
<title>cudnn</title>
<g id="a_node51"><a xlink:href="https://github.com/conda-forge/cudnn-feedstock/pull/5" xlink:title="cudnn ❎">
<ellipse fill="#31688e" stroke="black" cx="121.5" cy="-646" rx="44.39" ry="18"/>
<text text-anchor="middle" x="121.5" y="-642.3" font-family="Times,serif" font-size="14.00" fill="white">cudnn ❎</text>
</a>
</g>
</g>
<!-- cudnn&#45;&gt;pytorch&#45;cpu -->
<g id="edge53" class="edge">
<title>cudnn&#45;&gt;pytorch&#45;cpu</title>
<path fill="none" stroke="black" d="M121.5,-627.87C121.5,-603.67 121.5,-559.21 121.5,-530.39"/>
<polygon fill="black" stroke="black" points="125,-530.19 121.5,-520.19 118,-530.19 125,-530.19"/>
</g>
<!-- s2n -->
<g id="node53" class="node">
<title>s2n</title>
<g id="a_node53"><a xlink:href="https://github.com/conda-forge/s2n-feedstock/pull/11" xlink:title="s2n ❎">
<ellipse fill="#31688e" stroke="black" cx="1388.5" cy="-90" rx="34.5" ry="18"/>
<text text-anchor="middle" x="1388.5" y="-86.3" font-family="Times,serif" font-size="14.00" fill="white">s2n ❎</text>
</a>
</g>
</g>
<!-- aws&#45;c&#45;io -->
<g id="node54" class="node">
<title>aws&#45;c&#45;io</title>
<g id="a_node54"><a xlink:href="https://github.com/conda-forge/aws-c-io-feedstock" xlink:title="aws c io">
<ellipse fill="#fde725" stroke="black" cx="1388.5" cy="-18" rx="40.5" ry="18"/>
<text text-anchor="middle" x="1388.5" y="-14.3" font-family="Times,serif" font-size="14.00">aws c io</text>
</a>
</g>
</g>
<!-- s2n&#45;&gt;aws&#45;c&#45;io -->
<g id="edge55" class="edge">
<title>s2n&#45;&gt;aws&#45;c&#45;io</title>
<path fill="none" stroke="black" d="M1388.5,-71.7C1388.5,-63.98 1388.5,-54.71 1388.5,-46.11"/>
<polygon fill="black" stroke="black" points="1392,-46.1 1388.5,-36.1 1385,-46.1 1392,-46.1"/>
</g>
<!-- magma -->
<g id="node55" class="node">
<title>magma</title>
<g id="a_node55"><a xlink:href="https://github.com/conda-forge/magma-feedstock/pull/4" xlink:title="magma ❎">
<ellipse fill="#31688e" stroke="black" cx="49.5" cy="-718" rx="49.5" ry="18"/>
<text text-anchor="middle" x="49.5" y="-714.3" font-family="Times,serif" font-size="14.00" fill="white">magma ❎</text>
</a>
</g>
</g>
<!-- magma&#45;&gt;pytorch&#45;cpu -->
<g id="edge56" class="edge">
<title>magma&#45;&gt;pytorch&#45;cpu</title>
<path fill="none" stroke="black" d="M52.13,-700.02C55.17,-681.93 60.75,-652.56 68.5,-628 79.58,-592.88 96.88,-554.06 108.68,-529.14"/>
<polygon fill="black" stroke="black" points="111.9,-530.53 113.06,-520 105.58,-527.5 111.9,-530.53"/>
</g>
</g>
</svg>
