<?xml version="1.0" encoding="UTF-8" standalone="no"?>
<!DOCTYPE svg PUBLIC "-//W3C//DTD SVG 1.1//EN"
 "http://www.w3.org/Graphics/SVG/1.1/DTD/svg11.dtd">
<!-- Generated by graphviz version 2.42.3 (20191010.1750)
 -->
<!-- Title: %3 Pages: 1 -->
<svg width="1413pt" height="1112pt"
 viewBox="0.00 0.00 1413.29 1112.00" xmlns="http://www.w3.org/2000/svg" xmlns:xlink="http://www.w3.org/1999/xlink">
<g id="graph0" class="graph" transform="scale(1 1) rotate(0) translate(4 1108)">
<title>%3</title>
<polygon fill="white" stroke="transparent" points="-4,4 -4,-1108 1409.29,-1108 1409.29,4 -4,4"/>
<!-- aiohttp -->
<g id="node1" class="node">
<title>aiohttp</title>
<g id="a_node1"><a xlink:href="https://github.com/conda-forge/aiohttp-feedstock" xlink:title="aiohttp">
<ellipse fill="#fde725" stroke="black" cx="277.64" cy="-762" rx="35.19" ry="18"/>
<text text-anchor="middle" x="277.64" y="-758.3" font-family="Times,serif" font-size="14.00">aiohttp</text>
</a>
</g>
</g>
<!-- black -->
<g id="node2" class="node">
<title>black</title>
<g id="a_node2"><a xlink:href="https://github.com/conda-forge/black-feedstock" xlink:title="black">
<ellipse fill="#fde725" stroke="black" cx="277.64" cy="-690" rx="30" ry="18"/>
<text text-anchor="middle" x="277.64" y="-686.3" font-family="Times,serif" font-size="14.00">black</text>
</a>
</g>
</g>
<!-- aiohttp&#45;&gt;black -->
<g id="edge1" class="edge">
<title>aiohttp&#45;&gt;black</title>
<path fill="none" stroke="black" d="M271.76,-744.05C270.93,-736.23 270.7,-726.75 271.05,-717.98"/>
<polygon fill="black" stroke="black" points="274.56,-718.01 271.78,-707.79 267.58,-717.51 274.56,-718.01"/>
</g>
<!-- black&#45;&gt;aiohttp -->
<g id="edge2" class="edge">
<title>black&#45;&gt;aiohttp</title>
<path fill="none" stroke="black" d="M283.5,-707.79C284.34,-715.59 284.59,-725.07 284.24,-733.85"/>
<polygon fill="black" stroke="black" points="280.73,-733.83 283.52,-744.05 287.71,-734.33 280.73,-733.83"/>
</g>
<!-- hyperspy -->
<g id="node3" class="node">
<title>hyperspy</title>
<g id="a_node3"><a xlink:href="https://github.com/conda-forge/hyperspy-feedstock" xlink:title="hyperspy">
<ellipse fill="#fde725" stroke="black" cx="376.64" cy="-618" rx="43" ry="18"/>
<text text-anchor="middle" x="376.64" y="-614.3" font-family="Times,serif" font-size="14.00">hyperspy</text>
</a>
</g>
</g>
<!-- black&#45;&gt;hyperspy -->
<g id="edge3" class="edge">
<title>black&#45;&gt;hyperspy</title>
<path fill="none" stroke="black" d="M296.26,-675.83C310.67,-665.65 330.88,-651.36 347.43,-639.65"/>
<polygon fill="black" stroke="black" points="349.56,-642.43 355.71,-633.8 345.52,-636.72 349.56,-642.43"/>
</g>
<!-- nbgrader -->
<g id="node4" class="node">
<title>nbgrader</title>
<g id="a_node4"><a xlink:href="https://github.com/conda-forge/nbgrader-feedstock" xlink:title="nbgrader">
<ellipse fill="#fde725" stroke="black" cx="273.64" cy="-618" rx="42.49" ry="18"/>
<text text-anchor="middle" x="273.64" y="-614.3" font-family="Times,serif" font-size="14.00">nbgrader</text>
</a>
</g>
</g>
<!-- black&#45;&gt;nbgrader -->
<g id="edge4" class="edge">
<title>black&#45;&gt;nbgrader</title>
<path fill="none" stroke="black" d="M276.65,-671.7C276.21,-663.98 275.68,-654.71 275.19,-646.11"/>
<polygon fill="black" stroke="black" points="278.68,-645.89 274.62,-636.1 271.7,-646.29 278.68,-645.89"/>
</g>
<!-- allennlp -->
<g id="node5" class="node">
<title>allennlp</title>
<g id="a_node5"><a xlink:href="https://github.com/conda-forge/allennlp-feedstock" xlink:title="allennlp">
<ellipse fill="#fde725" stroke="black" cx="174.64" cy="-618" rx="39" ry="18"/>
<text text-anchor="middle" x="174.64" y="-614.3" font-family="Times,serif" font-size="14.00">allennlp</text>
</a>
</g>
</g>
<!-- black&#45;&gt;allennlp -->
<g id="edge5" class="edge">
<title>black&#45;&gt;allennlp</title>
<path fill="none" stroke="black" d="M258.27,-675.83C243.08,-665.51 221.69,-650.98 204.35,-639.19"/>
<polygon fill="black" stroke="black" points="205.94,-636.04 195.7,-633.31 202,-641.83 205.94,-636.04"/>
</g>
<!-- astroscrappy -->
<g id="node6" class="node">
<title>astroscrappy</title>
<g id="a_node6"><a xlink:href="https://github.com/conda-forge/astroscrappy-feedstock/pull/11" xlink:title="astroscrappy ❎">
<ellipse fill="#31688e" stroke="black" cx="878.64" cy="-1086" rx="67" ry="18"/>
<text text-anchor="middle" x="878.64" y="-1082.3" font-family="Times,serif" font-size="14.00" fill="white">astroscrappy ❎</text>
</a>
</g>
</g>
<!-- sundials -->
<g id="node7" class="node">
<title>sundials</title>
<g id="a_node7"><a xlink:href="https://github.com/conda-forge/sundials-feedstock/pull/67" xlink:title="sundials ✓">
<ellipse fill="#31688e" stroke="black" cx="878.64" cy="-1014" rx="50.09" ry="18"/>
<text text-anchor="middle" x="878.64" y="-1010.3" font-family="Times,serif" font-size="14.00" fill="white">sundials ✓</text>
</a>
</g>
</g>
<!-- astroscrappy&#45;&gt;sundials -->
<!-- pypy2.7 -->
<g id="node34" class="node">
<title>pypy2.7</title>
<g id="a_node34"><a xlink:href="https://github.com/conda-forge/pypy2.7-feedstock/pull/3" xlink:title="pypy2 7 ❎">
<ellipse fill="#31688e" stroke="black" cx="878.64" cy="-942" rx="51.5" ry="18"/>
<text text-anchor="middle" x="878.64" y="-938.3" font-family="Times,serif" font-size="14.00" fill="white">pypy2 7 ❎</text>
</a>
</g>
</g>
<!-- sundials&#45;&gt;pypy2.7 -->
<!-- elfutils -->
<g id="node8" class="node">
<title>elfutils</title>
<g id="a_node8"><a xlink:href="https://github.com/conda-forge/elfutils-feedstock/pull/20" xlink:title="elfutils ❎">
<ellipse fill="#31688e" stroke="black" cx="312.64" cy="-322" rx="47" ry="18"/>
<text text-anchor="middle" x="312.64" y="-318.3" font-family="Times,serif" font-size="14.00" fill="white">elfutils ❎</text>
</a>
</g>
</g>
<!-- heaptrack -->
<g id="node9" class="node">
<title>heaptrack</title>
<g id="a_node9"><a xlink:href="https://github.com/conda-forge/heaptrack-feedstock" xlink:title="heaptrack">
<ellipse fill="#fde725" stroke="black" cx="319.64" cy="-250" rx="45" ry="18"/>
<text text-anchor="middle" x="319.64" y="-246.3" font-family="Times,serif" font-size="14.00">heaptrack</text>
</a>
</g>
</g>
<!-- elfutils&#45;&gt;heaptrack -->
<g id="edge7" class="edge">
<title>elfutils&#45;&gt;heaptrack</title>
<path fill="none" stroke="black" d="M314.37,-303.7C315.14,-295.98 316.07,-286.71 316.93,-278.11"/>
<polygon fill="black" stroke="black" points="320.42,-278.4 317.93,-268.1 313.45,-277.71 320.42,-278.4"/>
</g>
<!-- fastparquet -->
<g id="node10" class="node">
<title>fastparquet</title>
<g id="a_node10"><a xlink:href="https://github.com/conda-forge/fastparquet-feedstock" xlink:title="fastparquet">
<ellipse fill="#fde725" stroke="black" cx="379.64" cy="-134" rx="50.09" ry="18"/>
<text text-anchor="middle" x="379.64" y="-130.3" font-family="Times,serif" font-size="14.00">fastparquet</text>
</a>
</g>
</g>
<!-- freexl -->
<g id="node11" class="node">
<title>freexl</title>
<g id="a_node11"><a xlink:href="https://github.com/conda-forge/freexl-feedstock/pull/22" xlink:title="freexl ✓">
<ellipse fill="#31688e" stroke="black" cx="1040.64" cy="-870" rx="41.69" ry="18"/>
<text text-anchor="middle" x="1040.64" y="-866.3" font-family="Times,serif" font-size="14.00" fill="white">freexl ✓</text>
</a>
</g>
</g>
<!-- gdal -->
<g id="node12" class="node">
<title>gdal</title>
<g id="a_node12"><a xlink:href="https://github.com/conda-forge/gdal-feedstock" xlink:title="gdal">
<ellipse fill="#fde725" stroke="black" cx="1169.64" cy="-726" rx="27" ry="18"/>
<text text-anchor="middle" x="1169.64" y="-722.3" font-family="Times,serif" font-size="14.00">gdal</text>
</a>
</g>
</g>
<!-- freexl&#45;&gt;gdal -->
<g id="edge8" class="edge">
<title>freexl&#45;&gt;gdal</title>
<path fill="none" stroke="black" d="M1032.08,-852.31C1023.56,-833.13 1013.73,-801.53 1028.64,-780 1051.81,-746.53 1098.94,-734.17 1132.31,-729.62"/>
<polygon fill="black" stroke="black" points="1133.1,-733.05 1142.62,-728.4 1132.28,-726.1 1133.1,-733.05"/>
</g>
<!-- libspatialite -->
<g id="node13" class="node">
<title>libspatialite</title>
<g id="a_node13"><a xlink:href="https://github.com/conda-forge/libspatialite-feedstock" xlink:title="libspatialite">
<ellipse fill="#fde725" stroke="black" cx="1089.64" cy="-798" rx="52" ry="18"/>
<text text-anchor="middle" x="1089.64" y="-794.3" font-family="Times,serif" font-size="14.00">libspatialite</text>
</a>
</g>
</g>
<!-- freexl&#45;&gt;libspatialite -->
<g id="edge9" class="edge">
<title>freexl&#45;&gt;libspatialite</title>
<path fill="none" stroke="black" d="M1052.25,-852.41C1058.15,-843.99 1065.43,-833.58 1072,-824.2"/>
<polygon fill="black" stroke="black" points="1074.91,-826.16 1077.77,-815.96 1069.17,-822.14 1074.91,-826.16"/>
</g>
<!-- kealib -->
<g id="node14" class="node">
<title>kealib</title>
<g id="a_node14"><a xlink:href="https://github.com/conda-forge/kealib-feedstock" xlink:title="kealib">
<ellipse fill="#fde725" stroke="black" cx="1169.64" cy="-654" rx="32.5" ry="18"/>
<text text-anchor="middle" x="1169.64" y="-650.3" font-family="Times,serif" font-size="14.00">kealib</text>
</a>
</g>
</g>
<!-- gdal&#45;&gt;kealib -->
<g id="edge10" class="edge">
<title>gdal&#45;&gt;kealib</title>
<path fill="none" stroke="black" d="M1163.8,-708.41C1162.94,-700.51 1162.69,-690.85 1163.05,-681.94"/>
<polygon fill="black" stroke="black" points="1166.55,-682.18 1163.76,-671.96 1159.56,-681.68 1166.55,-682.18"/>
</g>
<!-- r&#45;sf -->
<g id="node15" class="node">
<title>r&#45;sf</title>
<g id="a_node15"><a xlink:href="https://github.com/conda-forge/r-sf-feedstock" xlink:title="r sf">
<ellipse fill="#fde725" stroke="black" cx="1299.64" cy="-654" rx="27" ry="18"/>
<text text-anchor="middle" x="1299.64" y="-650.3" font-family="Times,serif" font-size="14.00">r sf</text>
</a>
</g>
</g>
<!-- gdal&#45;&gt;r&#45;sf -->
<g id="edge11" class="edge">
<title>gdal&#45;&gt;r&#45;sf</title>
<path fill="none" stroke="black" d="M1189.95,-714.06C1211.48,-702.47 1245.69,-684.05 1270.18,-670.86"/>
<polygon fill="black" stroke="black" points="1271.9,-673.91 1279.04,-666.09 1268.58,-667.75 1271.9,-673.91"/>
</g>
<!-- libspatialite&#45;&gt;gdal -->
<g id="edge12" class="edge">
<title>libspatialite&#45;&gt;gdal</title>
<path fill="none" stroke="black" d="M1107.8,-781.12C1119.22,-771.12 1134.06,-758.13 1146.35,-747.38"/>
<polygon fill="black" stroke="black" points="1148.77,-749.91 1153.99,-740.7 1144.16,-744.65 1148.77,-749.91"/>
</g>
<!-- kealib&#45;&gt;gdal -->
<g id="edge13" class="edge">
<title>kealib&#45;&gt;gdal</title>
<path fill="none" stroke="black" d="M1175.52,-671.96C1176.36,-679.83 1176.59,-689.37 1176.22,-698.19"/>
<polygon fill="black" stroke="black" points="1172.72,-698.18 1175.48,-708.41 1179.7,-698.69 1172.72,-698.18"/>
</g>
<!-- r&#45;spdep -->
<g id="node16" class="node">
<title>r&#45;spdep</title>
<g id="a_node16"><a xlink:href="https://github.com/conda-forge/r-spdep-feedstock" xlink:title="r spdep">
<ellipse fill="#fde725" stroke="black" cx="1299.64" cy="-582" rx="36.5" ry="18"/>
<text text-anchor="middle" x="1299.64" y="-578.3" font-family="Times,serif" font-size="14.00">r spdep</text>
</a>
</g>
</g>
<!-- r&#45;sf&#45;&gt;r&#45;spdep -->
<g id="edge14" class="edge">
<title>r&#45;sf&#45;&gt;r&#45;spdep</title>
<path fill="none" stroke="black" d="M1299.64,-635.7C1299.64,-627.98 1299.64,-618.71 1299.64,-610.11"/>
<polygon fill="black" stroke="black" points="1303.14,-610.1 1299.64,-600.1 1296.14,-610.1 1303.14,-610.1"/>
</g>
<!-- geos -->
<g id="node17" class="node">
<title>geos</title>
<g id="a_node17"><a xlink:href="https://github.com/conda-forge/geos-feedstock/pull/47" xlink:title="geos ❎">
<ellipse fill="#31688e" stroke="black" cx="1153.64" cy="-870" rx="38.5" ry="18"/>
<text text-anchor="middle" x="1153.64" y="-866.3" font-family="Times,serif" font-size="14.00" fill="white">geos ❎</text>
</a>
</g>
</g>
<!-- geos&#45;&gt;gdal -->
<g id="edge15" class="edge">
<title>geos&#45;&gt;gdal</title>
<path fill="none" stroke="black" d="M1155.57,-851.87C1158.3,-827.67 1163.31,-783.21 1166.56,-754.39"/>
<polygon fill="black" stroke="black" points="1170.06,-754.52 1167.71,-744.19 1163.11,-753.73 1170.06,-754.52"/>
</g>
<!-- geos&#45;&gt;libspatialite -->
<g id="edge16" class="edge">
<title>geos&#45;&gt;libspatialite</title>
<path fill="none" stroke="black" d="M1139.12,-853.12C1130.97,-844.2 1120.64,-832.91 1111.53,-822.94"/>
<polygon fill="black" stroke="black" points="1113.88,-820.33 1104.55,-815.31 1108.72,-825.05 1113.88,-820.33"/>
</g>
<!-- libunwind -->
<g id="node18" class="node">
<title>libunwind</title>
<g id="a_node18"><a xlink:href="https://github.com/conda-forge/libunwind-feedstock/pull/14" xlink:title="libunwind ❎">
<ellipse fill="#31688e" stroke="black" cx="435.64" cy="-322" rx="58" ry="18"/>
<text text-anchor="middle" x="435.64" y="-318.3" font-family="Times,serif" font-size="14.00" fill="white">libunwind ❎</text>
</a>
</g>
</g>
<!-- libunwind&#45;&gt;heaptrack -->
<g id="edge17" class="edge">
<title>libunwind&#45;&gt;heaptrack</title>
<path fill="none" stroke="black" d="M410.19,-305.64C393.11,-295.33 370.46,-281.67 352.09,-270.58"/>
<polygon fill="black" stroke="black" points="353.83,-267.54 343.46,-265.37 350.21,-273.53 353.83,-267.54"/>
</g>
<!-- py&#45;spy -->
<g id="node19" class="node">
<title>py&#45;spy</title>
<g id="a_node19"><a xlink:href="https://github.com/conda-forge/py-spy-feedstock/pull/11" xlink:title="py spy ❎">
<ellipse fill="#31688e" stroke="black" cx="435.64" cy="-250" rx="46.29" ry="18"/>
<text text-anchor="middle" x="435.64" y="-246.3" font-family="Times,serif" font-size="14.00" fill="white">py spy ❎</text>
</a>
</g>
</g>
<!-- libunwind&#45;&gt;py&#45;spy -->
<g id="edge18" class="edge">
<title>libunwind&#45;&gt;py&#45;spy</title>
<path fill="none" stroke="black" d="M435.64,-303.7C435.64,-295.98 435.64,-286.71 435.64,-278.11"/>
<polygon fill="black" stroke="black" points="439.14,-278.1 435.64,-268.1 432.14,-278.1 439.14,-278.1"/>
</g>
<!-- mono -->
<g id="node20" class="node">
<title>mono</title>
<g id="a_node20"><a xlink:href="https://github.com/conda-forge/mono-feedstock/pull/18" xlink:title="mono ❎">
<ellipse fill="#31688e" stroke="black" cx="379.64" cy="-90" rx="43" ry="18"/>
<text text-anchor="middle" x="379.64" y="-86.3" font-family="Times,serif" font-size="14.00" fill="white">mono ❎</text>
</a>
</g>
</g>
<!-- ogre -->
<g id="node21" class="node">
<title>ogre</title>
<g id="a_node21"><a xlink:href="https://github.com/conda-forge/ogre-feedstock" xlink:title="ogre">
<ellipse fill="#fde725" stroke="black" cx="379.64" cy="-18" rx="27" ry="18"/>
<text text-anchor="middle" x="379.64" y="-14.3" font-family="Times,serif" font-size="14.00">ogre</text>
</a>
</g>
</g>
<!-- mono&#45;&gt;ogre -->
<g id="edge19" class="edge">
<title>mono&#45;&gt;ogre</title>
<path fill="none" stroke="black" d="M379.64,-71.7C379.64,-63.98 379.64,-54.71 379.64,-46.11"/>
<polygon fill="black" stroke="black" points="383.14,-46.1 379.64,-36.1 376.14,-46.1 383.14,-46.1"/>
</g>
<!-- multidict -->
<g id="node22" class="node">
<title>multidict</title>
<g id="a_node22"><a xlink:href="https://github.com/conda-forge/multidict-feedstock/pull/29" xlink:title="multidict ✓">
<ellipse fill="#31688e" stroke="black" cx="276.64" cy="-906" rx="53.5" ry="18"/>
<text text-anchor="middle" x="276.64" y="-902.3" font-family="Times,serif" font-size="14.00" fill="white">multidict ✓</text>
</a>
</g>
</g>
<!-- multidict&#45;&gt;aiohttp -->
<g id="edge20" class="edge">
<title>multidict&#45;&gt;aiohttp</title>
<path fill="none" stroke="black" d="M273.39,-887.89C271.6,-877.54 269.55,-864.06 268.64,-852 267.44,-836.04 267.3,-831.94 268.64,-816 269.36,-807.5 270.71,-798.31 272.15,-790.01"/>
<polygon fill="black" stroke="black" points="275.61,-790.56 273.99,-780.09 268.73,-789.29 275.61,-790.56"/>
</g>
<!-- yarl -->
<g id="node23" class="node">
<title>yarl</title>
<g id="a_node23"><a xlink:href="https://github.com/conda-forge/yarl-feedstock" xlink:title="yarl">
<ellipse fill="#fde725" stroke="black" cx="304.64" cy="-834" rx="27" ry="18"/>
<text text-anchor="middle" x="304.64" y="-830.3" font-family="Times,serif" font-size="14.00">yarl</text>
</a>
</g>
</g>
<!-- multidict&#45;&gt;yarl -->
<g id="edge21" class="edge">
<title>multidict&#45;&gt;yarl</title>
<path fill="none" stroke="black" d="M283.42,-888.05C286.65,-879.97 290.59,-870.12 294.2,-861.11"/>
<polygon fill="black" stroke="black" points="297.46,-862.37 297.93,-851.79 290.96,-859.77 297.46,-862.37"/>
</g>
<!-- yarl&#45;&gt;aiohttp -->
<g id="edge22" class="edge">
<title>yarl&#45;&gt;aiohttp</title>
<path fill="none" stroke="black" d="M298.24,-816.41C295.13,-808.34 291.31,-798.43 287.81,-789.35"/>
<polygon fill="black" stroke="black" points="291.05,-788.03 284.18,-779.96 284.52,-790.55 291.05,-788.03"/>
</g>
<!-- nltk_data -->
<g id="node24" class="node">
<title>nltk_data</title>
<g id="a_node24"><a xlink:href="https://github.com/conda-forge/nltk_data-feedstock/pull/5" xlink:title="nltk_data ❎">
<ellipse fill="#31688e" stroke="black" cx="174.64" cy="-690" rx="55.49" ry="18"/>
<text text-anchor="middle" x="174.64" y="-686.3" font-family="Times,serif" font-size="14.00" fill="white">nltk_data ❎</text>
</a>
</g>
</g>
<!-- nltk_data&#45;&gt;allennlp -->
<g id="edge23" class="edge">
<title>nltk_data&#45;&gt;allennlp</title>
<path fill="none" stroke="black" d="M174.64,-671.7C174.64,-663.98 174.64,-654.71 174.64,-646.11"/>
<polygon fill="black" stroke="black" points="178.14,-646.1 174.64,-636.1 171.14,-646.1 178.14,-646.1"/>
</g>
<!-- pyqt -->
<g id="node25" class="node">
<title>pyqt</title>
<g id="a_node25"><a xlink:href="https://github.com/conda-forge/pyqt-feedstock" xlink:title="pyqt">
<ellipse fill="#fde725" stroke="black" cx="376.64" cy="-690" rx="27" ry="18"/>
<text text-anchor="middle" x="376.64" y="-686.3" font-family="Times,serif" font-size="14.00">pyqt</text>
</a>
</g>
</g>
<!-- pyqt&#45;&gt;hyperspy -->
<g id="edge24" class="edge">
<title>pyqt&#45;&gt;hyperspy</title>
<path fill="none" stroke="black" d="M376.64,-671.7C376.64,-663.98 376.64,-654.71 376.64,-646.11"/>
<polygon fill="black" stroke="black" points="380.14,-646.1 376.64,-636.1 373.14,-646.1 380.14,-646.1"/>
</g>
<!-- pyqt&#45;&gt;nbgrader -->
<g id="edge25" class="edge">
<title>pyqt&#45;&gt;nbgrader</title>
<path fill="none" stroke="black" d="M358.23,-676.49C343.01,-666.14 321.11,-651.26 303.41,-639.23"/>
<polygon fill="black" stroke="black" points="305.34,-636.31 295.1,-633.59 301.41,-642.1 305.34,-636.31"/>
</g>
<!-- pyqt&#45;&gt;allennlp -->
<g id="edge26" class="edge">
<title>pyqt&#45;&gt;allennlp</title>
<path fill="none" stroke="black" d="M353.14,-680.98C322.92,-670.66 268.82,-652.12 222.64,-636 219.9,-635.04 217.08,-634.05 214.23,-633.05"/>
<polygon fill="black" stroke="black" points="215.18,-629.68 204.59,-629.65 212.85,-636.28 215.18,-629.68"/>
</g>
<!-- pythonocc&#45;core -->
<g id="node26" class="node">
<title>pythonocc&#45;core</title>
<g id="a_node26"><a xlink:href="https://github.com/conda-forge/pythonocc-core-feedstock" xlink:title="pythonocc core">
<ellipse fill="#fde725" stroke="black" cx="502.64" cy="-618" rx="65" ry="18"/>
<text text-anchor="middle" x="502.64" y="-614.3" font-family="Times,serif" font-size="14.00">pythonocc core</text>
</a>
</g>
</g>
<!-- pyqt&#45;&gt;pythonocc&#45;core -->
<g id="edge27" class="edge">
<title>pyqt&#45;&gt;pythonocc&#45;core</title>
<path fill="none" stroke="black" d="M396.89,-677.75C415.47,-667.43 443.46,-651.88 465.98,-639.37"/>
<polygon fill="black" stroke="black" points="467.89,-642.31 474.93,-634.39 464.49,-636.19 467.89,-642.31"/>
</g>
<!-- qt -->
<g id="node27" class="node">
<title>qt</title>
<g id="a_node27"><a xlink:href="https://github.com/conda-forge/qt-feedstock/pull/168" xlink:title="qt ❎">
<ellipse fill="#31688e" stroke="black" cx="662.64" cy="-762" rx="29.5" ry="18"/>
<text text-anchor="middle" x="662.64" y="-758.3" font-family="Times,serif" font-size="14.00" fill="white">qt ❎</text>
</a>
</g>
</g>
<!-- qt&#45;&gt;pyqt -->
<g id="edge28" class="edge">
<title>qt&#45;&gt;pyqt</title>
<path fill="none" stroke="black" d="M635.99,-754.48C584.06,-741.77 469.34,-713.69 411.47,-699.52"/>
<polygon fill="black" stroke="black" points="412.23,-696.11 401.68,-697.13 410.57,-702.91 412.23,-696.11"/>
</g>
<!-- pivy -->
<g id="node28" class="node">
<title>pivy</title>
<g id="a_node28"><a xlink:href="https://github.com/conda-forge/pivy-feedstock" xlink:title="pivy">
<ellipse fill="#fde725" stroke="black" cx="717.64" cy="-546" rx="27" ry="18"/>
<text text-anchor="middle" x="717.64" y="-542.3" font-family="Times,serif" font-size="14.00">pivy</text>
</a>
</g>
</g>
<!-- qt&#45;&gt;pivy -->
<g id="edge29" class="edge">
<title>qt&#45;&gt;pivy</title>
<path fill="none" stroke="black" d="M683.09,-748.98C697.62,-739.5 716.62,-725.05 728.64,-708 748.16,-680.32 748.01,-669.4 753.64,-636 756.3,-620.22 758.34,-615.29 753.64,-600 750.36,-589.31 744.1,-578.85 737.72,-570.08"/>
<polygon fill="black" stroke="black" points="740.29,-567.69 731.39,-561.93 734.76,-571.98 740.29,-567.69"/>
</g>
<!-- pyside2 -->
<g id="node29" class="node">
<title>pyside2</title>
<g id="a_node29"><a xlink:href="https://github.com/conda-forge/pyside2-feedstock" xlink:title="pyside2">
<ellipse fill="#fde725" stroke="black" cx="662.64" cy="-690" rx="38.5" ry="18"/>
<text text-anchor="middle" x="662.64" y="-686.3" font-family="Times,serif" font-size="14.00">pyside2</text>
</a>
</g>
</g>
<!-- qt&#45;&gt;pyside2 -->
<g id="edge30" class="edge">
<title>qt&#45;&gt;pyside2</title>
<path fill="none" stroke="black" d="M662.64,-743.7C662.64,-735.98 662.64,-726.71 662.64,-718.11"/>
<polygon fill="black" stroke="black" points="666.14,-718.1 662.64,-708.1 659.14,-718.1 666.14,-718.1"/>
</g>
<!-- soqt -->
<g id="node30" class="node">
<title>soqt</title>
<g id="a_node30"><a xlink:href="https://github.com/conda-forge/soqt-feedstock" xlink:title="soqt">
<ellipse fill="#fde725" stroke="black" cx="717.64" cy="-618" rx="27" ry="18"/>
<text text-anchor="middle" x="717.64" y="-614.3" font-family="Times,serif" font-size="14.00">soqt</text>
</a>
</g>
</g>
<!-- qt&#45;&gt;soqt -->
<g id="edge31" class="edge">
<title>qt&#45;&gt;soqt</title>
<path fill="none" stroke="black" d="M679.99,-747.2C690.83,-737.49 703.96,-723.5 710.64,-708 719.02,-688.58 720.45,-664.58 719.97,-646.39"/>
<polygon fill="black" stroke="black" points="723.45,-646 719.48,-636.18 716.46,-646.33 723.45,-646"/>
</g>
<!-- geant4 -->
<g id="node31" class="node">
<title>geant4</title>
<g id="a_node31"><a xlink:href="https://github.com/conda-forge/geant4-feedstock" xlink:title="geant4">
<ellipse fill="#fde725" stroke="black" cx="595.64" cy="-546" rx="34.5" ry="18"/>
<text text-anchor="middle" x="595.64" y="-542.3" font-family="Times,serif" font-size="14.00">geant4</text>
</a>
</g>
</g>
<!-- qt&#45;&gt;geant4 -->
<g id="edge32" class="edge">
<title>qt&#45;&gt;geant4</title>
<path fill="none" stroke="black" d="M645.88,-747.03C635.37,-737.25 622.53,-723.24 615.64,-708 595.94,-664.42 593.58,-607.82 594.22,-574.64"/>
<polygon fill="black" stroke="black" points="597.72,-574.44 594.53,-564.34 590.73,-574.23 597.72,-574.44"/>
</g>
<!-- pyside2&#45;&gt;pivy -->
<g id="edge33" class="edge">
<title>pyside2&#45;&gt;pivy</title>
<path fill="none" stroke="black" d="M664.3,-672.01C666.53,-653.65 671.47,-623.83 681.64,-600 686.03,-589.72 692.52,-579.34 698.79,-570.53"/>
<polygon fill="black" stroke="black" points="701.75,-572.41 704.89,-562.3 696.13,-568.24 701.75,-572.41"/>
</g>
<!-- soqt&#45;&gt;pivy -->
<g id="edge34" class="edge">
<title>soqt&#45;&gt;pivy</title>
<path fill="none" stroke="black" d="M717.64,-599.7C717.64,-591.98 717.64,-582.71 717.64,-574.11"/>
<polygon fill="black" stroke="black" points="721.14,-574.1 717.64,-564.1 714.14,-574.1 721.14,-574.1"/>
</g>
<!-- r&#45;units -->
<g id="node32" class="node">
<title>r&#45;units</title>
<g id="a_node32"><a xlink:href="https://github.com/conda-forge/r-units-feedstock" xlink:title="r units">
<ellipse fill="#fde725" stroke="black" cx="1325.64" cy="-726" rx="33.29" ry="18"/>
<text text-anchor="middle" x="1325.64" y="-722.3" font-family="Times,serif" font-size="14.00">r units</text>
</a>
</g>
</g>
<!-- r&#45;units&#45;&gt;r&#45;sf -->
<g id="edge35" class="edge">
<title>r&#45;units&#45;&gt;r&#45;sf</title>
<path fill="none" stroke="black" d="M1319.35,-708.05C1316.38,-700.06 1312.76,-690.33 1309.45,-681.4"/>
<polygon fill="black" stroke="black" points="1312.64,-679.94 1305.88,-671.79 1306.08,-682.38 1312.64,-679.94"/>
</g>
<!-- singularity -->
<g id="node33" class="node">
<title>singularity</title>
<g id="a_node33"><a xlink:href="https://github.com/conda-forge/singularity-feedstock" xlink:title="singularity">
<ellipse fill="#fde725" stroke="black" cx="878.64" cy="-134" rx="48.19" ry="18"/>
<text text-anchor="middle" x="878.64" y="-130.3" font-family="Times,serif" font-size="14.00">singularity</text>
</a>
</g>
</g>
<!-- root_numpy -->
<g id="node37" class="node">
<title>root_numpy</title>
<g id="a_node37"><a xlink:href="https://github.com/conda-forge/root_numpy-feedstock/pull/19" xlink:title="root_numpy ❎">
<ellipse fill="#31688e" stroke="black" cx="878.64" cy="-870" rx="65.79" ry="18"/>
<text text-anchor="middle" x="878.64" y="-866.3" font-family="Times,serif" font-size="14.00" fill="white">root_numpy ❎</text>
</a>
</g>
</g>
<!-- pypy2.7&#45;&gt;root_numpy -->
<!-- thrift -->
<g id="node35" class="node">
<title>thrift</title>
<g id="a_node35"><a xlink:href="https://github.com/conda-forge/thrift-feedstock/pull/17" xlink:title="thrift ✓">
<ellipse fill="#31688e" stroke="black" cx="379.64" cy="-206" rx="38.5" ry="18"/>
<text text-anchor="middle" x="379.64" y="-202.3" font-family="Times,serif" font-size="14.00" fill="white">thrift ✓</text>
</a>
</g>
</g>
<!-- thrift&#45;&gt;fastparquet -->
<g id="edge37" class="edge">
<title>thrift&#45;&gt;fastparquet</title>
<path fill="none" stroke="black" d="M379.64,-187.7C379.64,-179.98 379.64,-170.71 379.64,-162.11"/>
<polygon fill="black" stroke="black" points="383.14,-162.1 379.64,-152.1 376.14,-162.1 383.14,-162.1"/>
</g>
<!-- udunits2 -->
<g id="node36" class="node">
<title>udunits2</title>
<g id="a_node36"><a xlink:href="https://github.com/conda-forge/udunits2-feedstock/pull/32" xlink:title="udunits2 ❎">
<ellipse fill="#31688e" stroke="black" cx="1352.64" cy="-798" rx="52.79" ry="18"/>
<text text-anchor="middle" x="1352.64" y="-794.3" font-family="Times,serif" font-size="14.00" fill="white">udunits2 ❎</text>
</a>
</g>
</g>
<!-- udunits2&#45;&gt;r&#45;units -->
<g id="edge38" class="edge">
<title>udunits2&#45;&gt;r&#45;units</title>
<path fill="none" stroke="black" d="M1346.11,-780.05C1343.02,-772.06 1339.27,-762.33 1335.82,-753.4"/>
<polygon fill="black" stroke="black" points="1338.98,-751.86 1332.12,-743.79 1332.45,-754.38 1338.98,-751.86"/>
</g>
<!-- ibm_db -->
<g id="node42" class="node">
<title>ibm_db</title>
<g id="a_node42"><a xlink:href="https://github.com/conda-forge/ibm_db-feedstock/pull/10" xlink:title="ibm_db ❎">
<ellipse fill="#31688e" stroke="black" cx="878.64" cy="-798" rx="50.09" ry="18"/>
<text text-anchor="middle" x="878.64" y="-794.3" font-family="Times,serif" font-size="14.00" fill="white">ibm_db ❎</text>
</a>
</g>
</g>
<!-- root_numpy&#45;&gt;ibm_db -->
<!-- tiledb -->
<g id="node38" class="node">
<title>tiledb</title>
<g id="a_node38"><a xlink:href="https://github.com/conda-forge/tiledb-feedstock/pull/80" xlink:title="tiledb ❎">
<ellipse fill="#31688e" stroke="black" cx="1239.64" cy="-798" rx="42.49" ry="18"/>
<text text-anchor="middle" x="1239.64" y="-794.3" font-family="Times,serif" font-size="14.00" fill="white">tiledb ❎</text>
</a>
</g>
</g>
<!-- tiledb&#45;&gt;gdal -->
<g id="edge40" class="edge">
<title>tiledb&#45;&gt;gdal</title>
<path fill="none" stroke="black" d="M1223.76,-781.12C1214.15,-771.51 1201.77,-759.13 1191.28,-748.63"/>
<polygon fill="black" stroke="black" points="1193.58,-745.99 1184.03,-741.39 1188.63,-750.94 1193.58,-745.99"/>
</g>
<!-- libsvm -->
<g id="node39" class="node">
<title>libsvm</title>
<g id="a_node39"><a xlink:href="https://github.com/conda-forge/libsvm-feedstock/pull/16" xlink:title="libsvm ❎">
<ellipse fill="#31688e" stroke="black" cx="1202.64" cy="-206" rx="47" ry="18"/>
<text text-anchor="middle" x="1202.64" y="-202.3" font-family="Times,serif" font-size="14.00" fill="white">libsvm ❎</text>
</a>
</g>
</g>
<!-- cctbx&#45;base -->
<g id="node40" class="node">
<title>cctbx&#45;base</title>
<g id="a_node40"><a xlink:href="https://github.com/conda-forge/cctbx-base-feedstock" xlink:title="cctbx base">
<ellipse fill="#fde725" stroke="black" cx="1202.64" cy="-134" rx="48.19" ry="18"/>
<text text-anchor="middle" x="1202.64" y="-130.3" font-family="Times,serif" font-size="14.00">cctbx base</text>
</a>
</g>
</g>
<!-- libsvm&#45;&gt;cctbx&#45;base -->
<g id="edge41" class="edge">
<title>libsvm&#45;&gt;cctbx&#45;base</title>
<path fill="none" stroke="black" d="M1202.64,-187.7C1202.64,-179.98 1202.64,-170.71 1202.64,-162.11"/>
<polygon fill="black" stroke="black" points="1206.14,-162.1 1202.64,-152.1 1199.14,-162.1 1206.14,-162.1"/>
</g>
<!-- occt -->
<g id="node41" class="node">
<title>occt</title>
<g id="a_node41"><a xlink:href="https://github.com/conda-forge/occt-feedstock/pull/59" xlink:title="occt ❎">
<ellipse fill="#31688e" stroke="black" cx="502.64" cy="-690" rx="37.09" ry="18"/>
<text text-anchor="middle" x="502.64" y="-686.3" font-family="Times,serif" font-size="14.00" fill="white">occt ❎</text>
</a>
</g>
</g>
<!-- occt&#45;&gt;pythonocc&#45;core -->
<g id="edge42" class="edge">
<title>occt&#45;&gt;pythonocc&#45;core</title>
<path fill="none" stroke="black" d="M502.64,-671.7C502.64,-663.98 502.64,-654.71 502.64,-646.11"/>
<polygon fill="black" stroke="black" points="506.14,-646.1 502.64,-636.1 499.14,-646.1 506.14,-646.1"/>
</g>
<!-- cudatoolkit -->
<g id="node47" class="node">
<title>cudatoolkit</title>
<g id="a_node47"><a xlink:href="https://github.com/conda-forge/cudatoolkit-feedstock/pull/4" xlink:title="cudatoolkit ❎">
<ellipse fill="#31688e" stroke="black" cx="878.64" cy="-726" rx="61.99" ry="18"/>
<text text-anchor="middle" x="878.64" y="-722.3" font-family="Times,serif" font-size="14.00" fill="white">cudatoolkit ❎</text>
</a>
</g>
</g>
<!-- ibm_db&#45;&gt;cudatoolkit -->
<!-- pytorch&#45;pretrained&#45;bert -->
<g id="node43" class="node">
<title>pytorch&#45;pretrained&#45;bert</title>
<g id="a_node43"><a xlink:href="https://github.com/conda-forge/pytorch-pretrained-bert-feedstock" xlink:title="pytorch pretrained bert">
<ellipse fill="#35b779" stroke="black" cx="91.64" cy="-762" rx="91.78" ry="18"/>
<text text-anchor="middle" x="91.64" y="-758.3" font-family="Times,serif" font-size="14.00">pytorch pretrained bert</text>
</a>
</g>
</g>
<!-- pytorch&#45;pretrained&#45;bert&#45;&gt;allennlp -->
<g id="edge44" class="edge">
<title>pytorch&#45;pretrained&#45;bert&#45;&gt;allennlp</title>
<path fill="none" stroke="black" d="M92.02,-743.71C93.14,-724.82 97.13,-694.3 110.64,-672 118.64,-658.79 131.14,-647.37 142.97,-638.54"/>
<polygon fill="black" stroke="black" points="145.26,-641.21 151.4,-632.58 141.22,-635.5 145.26,-641.21"/>
</g>
<!-- go&#45;dep -->
<g id="node44" class="node">
<title>go&#45;dep</title>
<g id="a_node44"><a xlink:href="https://github.com/conda-forge/go-dep-feedstock/pull/12" xlink:title="go dep ❎">
<ellipse fill="#31688e" stroke="black" cx="878.64" cy="-206" rx="46.29" ry="18"/>
<text text-anchor="middle" x="878.64" y="-202.3" font-family="Times,serif" font-size="14.00" fill="white">go dep ❎</text>
</a>
</g>
</g>
<!-- go&#45;dep&#45;&gt;singularity -->
<g id="edge45" class="edge">
<title>go&#45;dep&#45;&gt;singularity</title>
<path fill="none" stroke="black" d="M878.64,-187.7C878.64,-179.98 878.64,-170.71 878.64,-162.11"/>
<polygon fill="black" stroke="black" points="882.14,-162.1 878.64,-152.1 875.14,-162.1 882.14,-162.1"/>
</g>
<!-- procps&#45;ng -->
<g id="node45" class="node">
<title>procps&#45;ng</title>
<g id="a_node45"><a xlink:href="https://github.com/conda-forge/procps-ng-feedstock/pull/3" xlink:title="procps ng ✓">
<ellipse fill="#31688e" stroke="black" cx="1202.64" cy="-322" rx="56" ry="18"/>
<text text-anchor="middle" x="1202.64" y="-318.3" font-family="Times,serif" font-size="14.00" fill="white">procps ng ✓</text>
</a>
</g>
</g>
<!-- myproxy -->
<g id="node46" class="node">
<title>myproxy</title>
<g id="a_node46"><a xlink:href="https://github.com/conda-forge/myproxy-feedstock" xlink:title="myproxy">
<ellipse fill="#fde725" stroke="black" cx="1202.64" cy="-250" rx="43" ry="18"/>
<text text-anchor="middle" x="1202.64" y="-246.3" font-family="Times,serif" font-size="14.00">myproxy</text>
</a>
</g>
</g>
<!-- procps&#45;ng&#45;&gt;myproxy -->
<g id="edge46" class="edge">
<title>procps&#45;ng&#45;&gt;myproxy</title>
<path fill="none" stroke="black" d="M1202.64,-303.7C1202.64,-295.98 1202.64,-286.71 1202.64,-278.11"/>
<polygon fill="black" stroke="black" points="1206.14,-278.1 1202.64,-268.1 1199.14,-278.1 1206.14,-278.1"/>
</g>
<!-- libusb -->
<g id="node48" class="node">
<title>libusb</title>
<g id="a_node48"><a xlink:href="https://github.com/conda-forge/libusb-feedstock/pull/8" xlink:title="libusb ❎">
<ellipse fill="#31688e" stroke="black" cx="878.64" cy="-654" rx="44.39" ry="18"/>
<text text-anchor="middle" x="878.64" y="-650.3" font-family="Times,serif" font-size="14.00" fill="white">libusb ❎</text>
</a>
</g>
</g>
<!-- cudatoolkit&#45;&gt;libusb -->
<!-- clang&#45;compiler&#45;activation -->
<g id="node49" class="node">
<title>clang&#45;compiler&#45;activation</title>
<g id="a_node49"><a xlink:href="https://github.com/conda-forge/clang-compiler-activation-feedstock/pull/48" xlink:title="clang compiler activation ❎">
<ellipse fill="#31688e" stroke="black" cx="878.64" cy="-582" rx="112.5" ry="18"/>
<text text-anchor="middle" x="878.64" y="-578.3" font-family="Times,serif" font-size="14.00" fill="white">clang compiler activation ❎</text>
</a>
</g>
</g>
<!-- libusb&#45;&gt;clang&#45;compiler&#45;activation -->
<!-- proj -->
<g id="node50" class="node">
<title>proj</title>
<g id="a_node50"><a xlink:href="https://github.com/conda-forge/proj-feedstock" xlink:title="proj">
<ellipse fill="#35b779" stroke="black" cx="878.64" cy="-510" rx="27" ry="18"/>
<text text-anchor="middle" x="878.64" y="-506.3" font-family="Times,serif" font-size="14.00">proj</text>
</a>
</g>
</g>
<!-- clang&#45;compiler&#45;activation&#45;&gt;proj -->
<!-- ompl -->
<g id="node51" class="node">
<title>ompl</title>
<g id="a_node51"><a xlink:href="https://github.com/conda-forge/ompl-feedstock/pull/8" xlink:title="ompl ❎">
<ellipse fill="#31688e" stroke="black" cx="878.64" cy="-438" rx="41" ry="18"/>
<text text-anchor="middle" x="878.64" y="-434.3" font-family="Times,serif" font-size="14.00" fill="white">ompl ❎</text>
</a>
</g>
</g>
<!-- proj&#45;&gt;ompl -->
<!-- nordugrid&#45;arc -->
<g id="node54" class="node">
<title>nordugrid&#45;arc</title>
<g id="a_node54"><a xlink:href="https://github.com/conda-forge/nordugrid-arc-feedstock/pull/14" xlink:title="nordugrid arc ❎">
<ellipse fill="#31688e" stroke="black" cx="878.64" cy="-366" rx="70.39" ry="18"/>
<text text-anchor="middle" x="878.64" y="-362.3" font-family="Times,serif" font-size="14.00" fill="white">nordugrid arc ❎</text>
</a>
</g>
</g>
<!-- ompl&#45;&gt;nordugrid&#45;arc -->
<!-- _openmp_mutex -->
<g id="node52" class="node">
<title>_openmp_mutex</title>
<g id="a_node52"><a xlink:href="https://github.com/conda-forge/_openmp_mutex-feedstock/pull/5" xlink:title="_openmp_mutex ✓">
<ellipse fill="#31688e" stroke="black" cx="878.64" cy="-322" rx="81.49" ry="18"/>
<text text-anchor="middle" x="878.64" y="-318.3" font-family="Times,serif" font-size="14.00" fill="white">_openmp_mutex ✓</text>
</a>
</g>
</g>
<!-- r&#45;conquer -->
<g id="node53" class="node">
<title>r&#45;conquer</title>
<g id="a_node53"><a xlink:href="https://github.com/conda-forge/r-conquer-feedstock" xlink:title="r conquer">
<ellipse fill="#fde725" stroke="black" cx="878.64" cy="-250" rx="44.39" ry="18"/>
<text text-anchor="middle" x="878.64" y="-246.3" font-family="Times,serif" font-size="14.00">r conquer</text>
</a>
</g>
</g>
<!-- _openmp_mutex&#45;&gt;r&#45;conquer -->
<g id="edge52" class="edge">
<title>_openmp_mutex&#45;&gt;r&#45;conquer</title>
<path fill="none" stroke="black" d="M878.64,-303.7C878.64,-295.98 878.64,-286.71 878.64,-278.11"/>
<polygon fill="black" stroke="black" points="882.14,-278.1 878.64,-268.1 875.14,-278.1 882.14,-278.1"/>
</g>
<!-- s2n -->
<g id="node55" class="node">
<title>s2n</title>
<g id="a_node55"><a xlink:href="https://github.com/conda-forge/s2n-feedstock/pull/11" xlink:title="s2n ❎">
<ellipse fill="#31688e" stroke="black" cx="878.64" cy="-90" rx="34.5" ry="18"/>
<text text-anchor="middle" x="878.64" y="-86.3" font-family="Times,serif" font-size="14.00" fill="white">s2n ❎</text>
</a>
</g>
</g>
<!-- aws&#45;c&#45;io -->
<g id="node56" class="node">
<title>aws&#45;c&#45;io</title>
<g id="a_node56"><a xlink:href="https://github.com/conda-forge/aws-c-io-feedstock" xlink:title="aws c io">
<ellipse fill="#fde725" stroke="black" cx="878.64" cy="-18" rx="40.5" ry="18"/>
<text text-anchor="middle" x="878.64" y="-14.3" font-family="Times,serif" font-size="14.00">aws c io</text>
</a>
</g>
</g>
<!-- s2n&#45;&gt;aws&#45;c&#45;io -->
<g id="edge54" class="edge">
<title>s2n&#45;&gt;aws&#45;c&#45;io</title>
<path fill="none" stroke="black" d="M878.64,-71.7C878.64,-63.98 878.64,-54.71 878.64,-46.11"/>
<polygon fill="black" stroke="black" points="882.14,-46.1 878.64,-36.1 875.14,-46.1 882.14,-46.1"/>
</g>
</g>
</svg>
