<?xml version="1.0" encoding="UTF-8" standalone="no"?>
<!DOCTYPE svg PUBLIC "-//W3C//DTD SVG 1.1//EN"
 "http://www.w3.org/Graphics/SVG/1.1/DTD/svg11.dtd">
<!-- Generated by graphviz version 2.47.0 (20210316.1410)
 -->
<!-- Pages: 1 -->
<svg width="1642pt" height="1284pt"
 viewBox="0.00 0.00 1641.68 1284.00" xmlns="http://www.w3.org/2000/svg" xmlns:xlink="http://www.w3.org/1999/xlink">
<g id="graph0" class="graph" transform="scale(1 1) rotate(0) translate(4 1280)">
<polygon fill="white" stroke="transparent" points="-4,4 -4,-1280 1637.68,-1280 1637.68,4 -4,4"/>
<!-- anyjson -->
<g id="node1" class="node">
<title>anyjson</title>
<g id="a_node1"><a xlink:href="https://github.com/conda-forge/anyjson-feedstock/pull/11" xlink:title="anyjson ✓">
<ellipse fill="#31688e" stroke="black" cx="150.14" cy="-1258" rx="58" ry="18"/>
<text text-anchor="middle" x="150.14" y="-1254.3" font-family="Times-Roman" font-size="14.00" fill="white">anyjson ✓</text>
</a>
</g>
</g>
<!-- googleapis&#45;common&#45;protos -->
<g id="node2" class="node">
<title>googleapis&#45;common&#45;protos</title>
<g id="a_node2"><a xlink:href="https://github.com/conda-forge/googleapis-common-protos-feedstock/pull/26" xlink:title="googleapis common protos ❎">
<ellipse fill="#31688e" stroke="black" cx="150.14" cy="-1186" rx="150.27" ry="18"/>
<text text-anchor="middle" x="150.14" y="-1182.3" font-family="Times-Roman" font-size="14.00" fill="white">googleapis common protos ❎</text>
</a>
</g>
</g>
<!-- anyjson&#45;&gt;googleapis&#45;common&#45;protos -->
<!-- jpype1 -->
<g id="node8" class="node">
<title>jpype1</title>
<g id="a_node8"><a xlink:href="https://github.com/conda-forge/jpype1-feedstock/pull/35" xlink:title="jpype1 ✓">
<ellipse fill="#31688e" stroke="black" cx="150.14" cy="-1114" rx="52.79" ry="18"/>
<text text-anchor="middle" x="150.14" y="-1110.3" font-family="Times-Roman" font-size="14.00" fill="white">jpype1 ✓</text>
</a>
</g>
</g>
<!-- googleapis&#45;common&#45;protos&#45;&gt;jpype1 -->
<!-- elfutils -->
<g id="node3" class="node">
<title>elfutils</title>
<g id="a_node3"><a xlink:href="https://github.com/conda-forge/elfutils-feedstock/pull/20" xlink:title="elfutils ❎">
<ellipse fill="#31688e" stroke="black" cx="363.14" cy="-970" rx="54" ry="18"/>
<text text-anchor="middle" x="363.14" y="-966.3" font-family="Times-Roman" font-size="14.00" fill="white">elfutils ❎</text>
</a>
</g>
</g>
<!-- heaptrack -->
<g id="node4" class="node">
<title>heaptrack</title>
<g id="a_node4"><a xlink:href="https://github.com/conda-forge/heaptrack-feedstock" xlink:title="heaptrack">
<ellipse fill="#fde725" stroke="black" cx="366.14" cy="-898" rx="58" ry="18"/>
<text text-anchor="middle" x="366.14" y="-894.3" font-family="Times-Roman" font-size="14.00">heaptrack</text>
</a>
</g>
</g>
<!-- elfutils&#45;&gt;heaptrack -->
<g id="edge2" class="edge">
<title>elfutils&#45;&gt;heaptrack</title>
<path fill="none" stroke="black" d="M363.88,-951.7C364.21,-943.98 364.61,-934.71 364.97,-926.11"/>
<polygon fill="black" stroke="black" points="368.47,-926.25 365.4,-916.1 361.48,-925.95 368.47,-926.25"/>
</g>
<!-- gdal -->
<g id="node5" class="node">
<title>gdal</title>
<g id="a_node5"><a xlink:href="https://github.com/conda-forge/gdal-feedstock/pull/466" xlink:title="gdal ❎">
<ellipse fill="#31688e" stroke="black" cx="599.14" cy="-350" rx="43" ry="18"/>
<text text-anchor="middle" x="599.14" y="-346.3" font-family="Times-Roman" font-size="14.00" fill="white">gdal ❎</text>
</a>
</g>
</g>
<!-- r&#45;sf -->
<g id="node6" class="node">
<title>r&#45;sf</title>
<g id="a_node6"><a xlink:href="https://github.com/conda-forge/r-sf-feedstock" xlink:title="r sf">
<ellipse fill="#fde725" stroke="black" cx="650.14" cy="-278" rx="27" ry="18"/>
<text text-anchor="middle" x="650.14" y="-274.3" font-family="Times-Roman" font-size="14.00">r sf</text>
</a>
</g>
</g>
<!-- gdal&#45;&gt;r&#45;sf -->
<g id="edge3" class="edge">
<title>gdal&#45;&gt;r&#45;sf</title>
<path fill="none" stroke="black" d="M611.22,-332.41C617.69,-323.53 625.77,-312.44 632.89,-302.67"/>
<polygon fill="black" stroke="black" points="635.78,-304.65 638.84,-294.51 630.12,-300.53 635.78,-304.65"/>
</g>
<!-- r&#45;spdep -->
<g id="node7" class="node">
<title>r&#45;spdep</title>
<g id="a_node7"><a xlink:href="https://github.com/conda-forge/r-spdep-feedstock" xlink:title="r spdep">
<ellipse fill="#fde725" stroke="black" cx="650.14" cy="-206" rx="46.29" ry="18"/>
<text text-anchor="middle" x="650.14" y="-202.3" font-family="Times-Roman" font-size="14.00">r spdep</text>
</a>
</g>
</g>
<!-- r&#45;sf&#45;&gt;r&#45;spdep -->
<g id="edge4" class="edge">
<title>r&#45;sf&#45;&gt;r&#45;spdep</title>
<path fill="none" stroke="black" d="M650.14,-259.7C650.14,-251.98 650.14,-242.71 650.14,-234.11"/>
<polygon fill="black" stroke="black" points="653.64,-234.1 650.14,-224.1 646.64,-234.1 653.64,-234.1"/>
</g>
<!-- line_profiler -->
<g id="node10" class="node">
<title>line_profiler</title>
<g id="a_node10"><a xlink:href="https://github.com/conda-forge/line_profiler-feedstock/pull/38" xlink:title="line_profiler ❎">
<ellipse fill="#31688e" stroke="black" cx="150.14" cy="-1042" rx="78" ry="18"/>
<text text-anchor="middle" x="150.14" y="-1038.3" font-family="Times-Roman" font-size="14.00" fill="white">line_profiler ❎</text>
</a>
</g>
</g>
<!-- jpype1&#45;&gt;line_profiler -->
<!-- hyperspy -->
<g id="node9" class="node">
<title>hyperspy</title>
<g id="a_node9"><a xlink:href="https://github.com/conda-forge/hyperspy-feedstock" xlink:title="hyperspy">
<ellipse fill="#fde725" stroke="black" cx="1256.14" cy="-826" rx="54" ry="18"/>
<text text-anchor="middle" x="1256.14" y="-822.3" font-family="Times-Roman" font-size="14.00">hyperspy</text>
</a>
</g>
</g>
<!-- tempita -->
<g id="node15" class="node">
<title>tempita</title>
<g id="a_node15"><a xlink:href="https://github.com/conda-forge/tempita-feedstock/pull/17" xlink:title="tempita ❎">
<ellipse fill="#31688e" stroke="black" cx="150.14" cy="-970" rx="59.29" ry="18"/>
<text text-anchor="middle" x="150.14" y="-966.3" font-family="Times-Roman" font-size="14.00" fill="white">tempita ❎</text>
</a>
</g>
</g>
<!-- line_profiler&#45;&gt;tempita -->
<!-- libunwind -->
<g id="node11" class="node">
<title>libunwind</title>
<g id="a_node11"><a xlink:href="https://github.com/conda-forge/libunwind-feedstock/pull/14" xlink:title="libunwind ❎">
<ellipse fill="#31688e" stroke="black" cx="503.14" cy="-970" rx="67.69" ry="18"/>
<text text-anchor="middle" x="503.14" y="-966.3" font-family="Times-Roman" font-size="14.00" fill="white">libunwind ❎</text>
</a>
</g>
</g>
<!-- libunwind&#45;&gt;heaptrack -->
<g id="edge7" class="edge">
<title>libunwind&#45;&gt;heaptrack</title>
<path fill="none" stroke="black" d="M473.41,-953.81C453.03,-943.4 425.82,-929.49 403.9,-918.29"/>
<polygon fill="black" stroke="black" points="405.36,-915.11 394.87,-913.68 402.18,-921.35 405.36,-915.11"/>
</g>
<!-- gperftools -->
<g id="node12" class="node">
<title>gperftools</title>
<g id="a_node12"><a xlink:href="https://github.com/conda-forge/gperftools-feedstock" xlink:title="gperftools">
<ellipse fill="#fde725" stroke="black" cx="501.14" cy="-898" rx="58" ry="18"/>
<text text-anchor="middle" x="501.14" y="-894.3" font-family="Times-Roman" font-size="14.00">gperftools</text>
</a>
</g>
</g>
<!-- libunwind&#45;&gt;gperftools -->
<g id="edge8" class="edge">
<title>libunwind&#45;&gt;gperftools</title>
<path fill="none" stroke="black" d="M502.64,-951.7C502.42,-943.98 502.16,-934.71 501.91,-926.11"/>
<polygon fill="black" stroke="black" points="505.41,-926 501.63,-916.1 498.41,-926.2 505.41,-926"/>
</g>
<!-- py&#45;spy -->
<g id="node13" class="node">
<title>py&#45;spy</title>
<g id="a_node13"><a xlink:href="https://github.com/conda-forge/py-spy-feedstock/pull/11" xlink:title="py spy ❎">
<ellipse fill="#31688e" stroke="black" cx="619.14" cy="-826" rx="53.5" ry="18"/>
<text text-anchor="middle" x="619.14" y="-822.3" font-family="Times-Roman" font-size="14.00" fill="white">py spy ❎</text>
</a>
</g>
</g>
<!-- libunwind&#45;&gt;py&#45;spy -->
<g id="edge9" class="edge">
<title>libunwind&#45;&gt;py&#45;spy</title>
<path fill="none" stroke="black" d="M526.9,-952.93C540.08,-943.25 556.17,-930.1 568.14,-916 584.42,-896.8 598.27,-871.67 607.41,-853.01"/>
<polygon fill="black" stroke="black" points="610.61,-854.44 611.75,-843.91 604.29,-851.43 610.61,-854.44"/>
</g>
<!-- sentencepiece -->
<g id="node14" class="node">
<title>sentencepiece</title>
<g id="a_node14"><a xlink:href="https://github.com/conda-forge/sentencepiece-feedstock" xlink:title="sentencepiece">
<ellipse fill="#fde725" stroke="black" cx="469.14" cy="-826" rx="78" ry="18"/>
<text text-anchor="middle" x="469.14" y="-822.3" font-family="Times-Roman" font-size="14.00">sentencepiece</text>
</a>
</g>
</g>
<!-- gperftools&#45;&gt;sentencepiece -->
<g id="edge10" class="edge">
<title>gperftools&#45;&gt;sentencepiece</title>
<path fill="none" stroke="black" d="M493.39,-880.05C489.75,-872.09 485.32,-862.41 481.26,-853.51"/>
<polygon fill="black" stroke="black" points="484.37,-851.91 477.03,-844.28 478.01,-854.83 484.37,-851.91"/>
</g>
<!-- allennlp -->
<g id="node27" class="node">
<title>allennlp</title>
<g id="a_node27"><a xlink:href="https://github.com/conda-forge/allennlp-feedstock" xlink:title="allennlp">
<ellipse fill="#fde725" stroke="black" cx="797.14" cy="-754" rx="47.5" ry="18"/>
<text text-anchor="middle" x="797.14" y="-750.3" font-family="Times-Roman" font-size="14.00">allennlp</text>
</a>
</g>
</g>
<!-- sentencepiece&#45;&gt;allennlp -->
<g id="edge29" class="edge">
<title>sentencepiece&#45;&gt;allennlp</title>
<path fill="none" stroke="black" d="M524.41,-813.2C586.54,-799.94 686.57,-778.6 746.66,-765.77"/>
<polygon fill="black" stroke="black" points="747.63,-769.15 756.68,-763.63 746.17,-762.3 747.63,-769.15"/>
</g>
<!-- pypy2.7 -->
<g id="node25" class="node">
<title>pypy2.7</title>
<g id="a_node25"><a xlink:href="https://github.com/conda-forge/pypy2.7-feedstock/pull/3" xlink:title="pypy2 7 ❎">
<ellipse fill="#31688e" stroke="black" cx="150.14" cy="-898" rx="60" ry="18"/>
<text text-anchor="middle" x="150.14" y="-894.3" font-family="Times-Roman" font-size="14.00" fill="white">pypy2 7 ❎</text>
</a>
</g>
</g>
<!-- tempita&#45;&gt;pypy2.7 -->
<!-- pyqt -->
<g id="node16" class="node">
<title>pyqt</title>
<g id="a_node16"><a xlink:href="https://github.com/conda-forge/pyqt-feedstock" xlink:title="pyqt">
<ellipse fill="#fde725" stroke="black" cx="1254.14" cy="-898" rx="31.4" ry="18"/>
<text text-anchor="middle" x="1254.14" y="-894.3" font-family="Times-Roman" font-size="14.00">pyqt</text>
</a>
</g>
</g>
<!-- pyqt&#45;&gt;hyperspy -->
<g id="edge12" class="edge">
<title>pyqt&#45;&gt;hyperspy</title>
<path fill="none" stroke="black" d="M1254.63,-879.7C1254.85,-871.98 1255.12,-862.71 1255.36,-854.11"/>
<polygon fill="black" stroke="black" points="1258.86,-854.2 1255.65,-844.1 1251.86,-854 1258.86,-854.2"/>
</g>
<!-- pythonocc&#45;core -->
<g id="node17" class="node">
<title>pythonocc&#45;core</title>
<g id="a_node17"><a xlink:href="https://github.com/conda-forge/pythonocc-core-feedstock" xlink:title="pythonocc core">
<ellipse fill="#fde725" stroke="black" cx="1102.14" cy="-826" rx="82" ry="18"/>
<text text-anchor="middle" x="1102.14" y="-822.3" font-family="Times-Roman" font-size="14.00">pythonocc core</text>
</a>
</g>
</g>
<!-- pyqt&#45;&gt;pythonocc&#45;core -->
<g id="edge13" class="edge">
<title>pyqt&#45;&gt;pythonocc&#45;core</title>
<path fill="none" stroke="black" d="M1230.39,-886.06C1207.68,-875.61 1172.92,-859.6 1145.31,-846.88"/>
<polygon fill="black" stroke="black" points="1146.42,-843.54 1135.87,-842.54 1143.49,-849.9 1146.42,-843.54"/>
</g>
<!-- qt -->
<g id="node18" class="node">
<title>qt</title>
<g id="a_node18"><a xlink:href="https://github.com/conda-forge/qt-feedstock/pull/184" xlink:title="qt ❎">
<ellipse fill="#31688e" stroke="black" cx="1372.14" cy="-970" rx="32.5" ry="18"/>
<text text-anchor="middle" x="1372.14" y="-966.3" font-family="Times-Roman" font-size="14.00" fill="white">qt ❎</text>
</a>
</g>
</g>
<!-- qt&#45;&gt;pyqt -->
<g id="edge14" class="edge">
<title>qt&#45;&gt;pyqt</title>
<path fill="none" stroke="black" d="M1350.77,-956.32C1332.14,-945.27 1304.92,-929.13 1284.11,-916.78"/>
<polygon fill="black" stroke="black" points="1285.73,-913.67 1275.35,-911.58 1282.16,-919.69 1285.73,-913.67"/>
</g>
<!-- pivy -->
<g id="node19" class="node">
<title>pivy</title>
<g id="a_node19"><a xlink:href="https://github.com/conda-forge/pivy-feedstock" xlink:title="pivy">
<ellipse fill="#fde725" stroke="black" cx="1359.14" cy="-826" rx="30" ry="18"/>
<text text-anchor="middle" x="1359.14" y="-822.3" font-family="Times-Roman" font-size="14.00">pivy</text>
</a>
</g>
</g>
<!-- qt&#45;&gt;pivy -->
<g id="edge15" class="edge">
<title>qt&#45;&gt;pivy</title>
<path fill="none" stroke="black" d="M1356.48,-953.9C1347.45,-944.07 1336.97,-930.43 1332.14,-916 1324.95,-894.56 1333.71,-869.94 1343.12,-852.03"/>
<polygon fill="black" stroke="black" points="1346.44,-853.27 1348.31,-842.84 1340.35,-849.83 1346.44,-853.27"/>
</g>
<!-- pyside2 -->
<g id="node20" class="node">
<title>pyside2</title>
<g id="a_node20"><a xlink:href="https://github.com/conda-forge/pyside2-feedstock" xlink:title="pyside2">
<ellipse fill="#fde725" stroke="black" cx="1468.14" cy="-898" rx="47" ry="18"/>
<text text-anchor="middle" x="1468.14" y="-894.3" font-family="Times-Roman" font-size="14.00">pyside2</text>
</a>
</g>
</g>
<!-- qt&#45;&gt;pyside2 -->
<g id="edge16" class="edge">
<title>qt&#45;&gt;pyside2</title>
<path fill="none" stroke="black" d="M1391.1,-955.17C1404.75,-945.22 1423.41,-931.61 1438.95,-920.28"/>
<polygon fill="black" stroke="black" points="1441.19,-922.98 1447.21,-914.26 1437.07,-917.32 1441.19,-922.98"/>
</g>
<!-- soqt -->
<g id="node21" class="node">
<title>soqt</title>
<g id="a_node21"><a xlink:href="https://github.com/conda-forge/soqt-feedstock" xlink:title="soqt">
<ellipse fill="#fde725" stroke="black" cx="1372.14" cy="-898" rx="30.59" ry="18"/>
<text text-anchor="middle" x="1372.14" y="-894.3" font-family="Times-Roman" font-size="14.00">soqt</text>
</a>
</g>
</g>
<!-- qt&#45;&gt;soqt -->
<g id="edge17" class="edge">
<title>qt&#45;&gt;soqt</title>
<path fill="none" stroke="black" d="M1372.14,-951.7C1372.14,-943.98 1372.14,-934.71 1372.14,-926.11"/>
<polygon fill="black" stroke="black" points="1375.64,-926.1 1372.14,-916.1 1368.64,-926.1 1375.64,-926.1"/>
</g>
<!-- geant4 -->
<g id="node22" class="node">
<title>geant4</title>
<g id="a_node22"><a xlink:href="https://github.com/conda-forge/geant4-feedstock" xlink:title="geant4">
<ellipse fill="#fde725" stroke="black" cx="1590.14" cy="-826" rx="43.59" ry="18"/>
<text text-anchor="middle" x="1590.14" y="-822.3" font-family="Times-Roman" font-size="14.00">geant4</text>
</a>
</g>
</g>
<!-- qt&#45;&gt;geant4 -->
<g id="edge18" class="edge">
<title>qt&#45;&gt;geant4</title>
<path fill="none" stroke="black" d="M1402.91,-963.84C1435.53,-957.18 1487.33,-943.07 1524.14,-916 1546.88,-899.27 1565.24,-872.48 1576.76,-852.65"/>
<polygon fill="black" stroke="black" points="1579.87,-854.26 1581.72,-843.82 1573.77,-850.83 1579.87,-854.26"/>
</g>
<!-- pyside2&#45;&gt;pivy -->
<g id="edge19" class="edge">
<title>pyside2&#45;&gt;pivy</title>
<path fill="none" stroke="black" d="M1445.02,-882.15C1428.31,-871.42 1405.63,-856.86 1387.77,-845.39"/>
<polygon fill="black" stroke="black" points="1389.24,-842.17 1378.93,-839.71 1385.45,-848.06 1389.24,-842.17"/>
</g>
<!-- cctbx&#45;base -->
<g id="node23" class="node">
<title>cctbx&#45;base</title>
<g id="a_node23"><a xlink:href="https://github.com/conda-forge/cctbx-base-feedstock" xlink:title="cctbx base">
<ellipse fill="#fde725" stroke="black" cx="1468.14" cy="-826" rx="60.5" ry="18"/>
<text text-anchor="middle" x="1468.14" y="-822.3" font-family="Times-Roman" font-size="14.00">cctbx base</text>
</a>
</g>
</g>
<!-- pyside2&#45;&gt;cctbx&#45;base -->
<g id="edge20" class="edge">
<title>pyside2&#45;&gt;cctbx&#45;base</title>
<path fill="none" stroke="black" d="M1468.14,-879.7C1468.14,-871.98 1468.14,-862.71 1468.14,-854.11"/>
<polygon fill="black" stroke="black" points="1471.64,-854.1 1468.14,-844.1 1464.64,-854.1 1471.64,-854.1"/>
</g>
<!-- soqt&#45;&gt;pivy -->
<g id="edge21" class="edge">
<title>soqt&#45;&gt;pivy</title>
<path fill="none" stroke="black" d="M1368.99,-880.05C1367.56,-872.35 1365.83,-863.03 1364.22,-854.36"/>
<polygon fill="black" stroke="black" points="1367.61,-853.47 1362.34,-844.28 1360.73,-854.75 1367.61,-853.47"/>
</g>
<!-- r&#45;units -->
<g id="node24" class="node">
<title>r&#45;units</title>
<g id="a_node24"><a xlink:href="https://github.com/conda-forge/r-units-feedstock" xlink:title="r units">
<ellipse fill="#fde725" stroke="black" cx="701.14" cy="-350" rx="40.5" ry="18"/>
<text text-anchor="middle" x="701.14" y="-346.3" font-family="Times-Roman" font-size="14.00">r units</text>
</a>
</g>
</g>
<!-- r&#45;units&#45;&gt;r&#45;sf -->
<g id="edge22" class="edge">
<title>r&#45;units&#45;&gt;r&#45;sf</title>
<path fill="none" stroke="black" d="M689.31,-332.76C682.84,-323.89 674.72,-312.74 667.54,-302.89"/>
<polygon fill="black" stroke="black" points="670.27,-300.69 661.55,-294.67 664.61,-304.81 670.27,-300.69"/>
</g>
<!-- root_numpy -->
<g id="node29" class="node">
<title>root_numpy</title>
<g id="a_node29"><a xlink:href="https://github.com/conda-forge/root_numpy-feedstock/pull/19" xlink:title="root_numpy ❎">
<ellipse fill="#31688e" stroke="black" cx="150.14" cy="-826" rx="79.5" ry="18"/>
<text text-anchor="middle" x="150.14" y="-822.3" font-family="Times-Roman" font-size="14.00" fill="white">root_numpy ❎</text>
</a>
</g>
</g>
<!-- pypy2.7&#45;&gt;root_numpy -->
<!-- torchvision -->
<g id="node26" class="node">
<title>torchvision</title>
<g id="a_node26"><a xlink:href="https://github.com/conda-forge/torchvision-feedstock" xlink:title="torchvision">
<ellipse fill="#fde725" stroke="black" cx="752.14" cy="-826" rx="61.99" ry="18"/>
<text text-anchor="middle" x="752.14" y="-822.3" font-family="Times-Roman" font-size="14.00">torchvision</text>
</a>
</g>
</g>
<!-- torchvision&#45;&gt;allennlp -->
<g id="edge24" class="edge">
<title>torchvision&#45;&gt;allennlp</title>
<path fill="none" stroke="black" d="M763.03,-808.05C768.39,-799.71 774.96,-789.49 780.9,-780.25"/>
<polygon fill="black" stroke="black" points="783.88,-782.09 786.34,-771.79 777.99,-778.31 783.88,-782.09"/>
</g>
<!-- udunits2 -->
<g id="node28" class="node">
<title>udunits2</title>
<g id="a_node28"><a xlink:href="https://github.com/conda-forge/udunits2-feedstock/pull/39" xlink:title="udunits2 ❎">
<ellipse fill="#31688e" stroke="black" cx="701.14" cy="-422" rx="63.09" ry="18"/>
<text text-anchor="middle" x="701.14" y="-418.3" font-family="Times-Roman" font-size="14.00" fill="white">udunits2 ❎</text>
</a>
</g>
</g>
<!-- udunits2&#45;&gt;r&#45;units -->
<g id="edge25" class="edge">
<title>udunits2&#45;&gt;r&#45;units</title>
<path fill="none" stroke="black" d="M701.14,-403.7C701.14,-395.98 701.14,-386.71 701.14,-378.11"/>
<polygon fill="black" stroke="black" points="704.64,-378.1 701.14,-368.1 697.64,-378.1 704.64,-378.1"/>
</g>
<!-- r&#45;arrow -->
<g id="node33" class="node">
<title>r&#45;arrow</title>
<g id="a_node33"><a xlink:href="https://github.com/conda-forge/r-arrow-feedstock/pull/31" xlink:title="r arrow ✓">
<ellipse fill="#31688e" stroke="black" cx="150.14" cy="-754" rx="56" ry="18"/>
<text text-anchor="middle" x="150.14" y="-750.3" font-family="Times-Roman" font-size="14.00" fill="white">r arrow ✓</text>
</a>
</g>
</g>
<!-- root_numpy&#45;&gt;r&#45;arrow -->
<!-- occt -->
<g id="node30" class="node">
<title>occt</title>
<g id="a_node30"><a xlink:href="https://github.com/conda-forge/occt-feedstock/pull/59" xlink:title="occt ❎">
<ellipse fill="#31688e" stroke="black" cx="1102.14" cy="-898" rx="42.49" ry="18"/>
<text text-anchor="middle" x="1102.14" y="-894.3" font-family="Times-Roman" font-size="14.00" fill="white">occt ❎</text>
</a>
</g>
</g>
<!-- occt&#45;&gt;pythonocc&#45;core -->
<g id="edge27" class="edge">
<title>occt&#45;&gt;pythonocc&#45;core</title>
<path fill="none" stroke="black" d="M1102.14,-879.7C1102.14,-871.98 1102.14,-862.71 1102.14,-854.11"/>
<polygon fill="black" stroke="black" points="1105.64,-854.1 1102.14,-844.1 1098.64,-854.1 1105.64,-854.1"/>
</g>
<!-- r&#45;dicekriging -->
<g id="node31" class="node">
<title>r&#45;dicekriging</title>
<g id="a_node31"><a xlink:href="https://github.com/conda-forge/r-dicekriging-feedstock/pull/8" xlink:title="r dicekriging ✓">
<ellipse fill="#31688e" stroke="black" cx="1327.14" cy="-350" rx="79.5" ry="18"/>
<text text-anchor="middle" x="1327.14" y="-346.3" font-family="Times-Roman" font-size="14.00" fill="white">r dicekriging ✓</text>
</a>
</g>
</g>
<!-- r&#45;grf -->
<g id="node32" class="node">
<title>r&#45;grf</title>
<g id="a_node32"><a xlink:href="https://github.com/conda-forge/r-grf-feedstock" xlink:title="r grf">
<ellipse fill="#fde725" stroke="black" cx="1327.14" cy="-278" rx="30.59" ry="18"/>
<text text-anchor="middle" x="1327.14" y="-274.3" font-family="Times-Roman" font-size="14.00">r grf</text>
</a>
</g>
</g>
<!-- r&#45;dicekriging&#45;&gt;r&#45;grf -->
<g id="edge28" class="edge">
<title>r&#45;dicekriging&#45;&gt;r&#45;grf</title>
<path fill="none" stroke="black" d="M1327.14,-331.7C1327.14,-323.98 1327.14,-314.71 1327.14,-306.11"/>
<polygon fill="black" stroke="black" points="1330.64,-306.1 1327.14,-296.1 1323.64,-306.1 1330.64,-306.1"/>
</g>
<!-- grpcio&#45;gcp -->
<g id="node35" class="node">
<title>grpcio&#45;gcp</title>
<g id="a_node35"><a xlink:href="https://github.com/conda-forge/grpcio-gcp-feedstock/pull/9" xlink:title="grpcio gcp ❎">
<ellipse fill="#31688e" stroke="black" cx="150.14" cy="-682" rx="71.5" ry="18"/>
<text text-anchor="middle" x="150.14" y="-678.3" font-family="Times-Roman" font-size="14.00" fill="white">grpcio gcp ❎</text>
</a>
</g>
</g>
<!-- r&#45;arrow&#45;&gt;grpcio&#45;gcp -->
<!-- pytorch&#45;cpu -->
<g id="node34" class="node">
<title>pytorch&#45;cpu</title>
<g id="a_node34"><a xlink:href="https://github.com/conda-forge/pytorch-cpu-feedstock" xlink:title="pytorch cpu">
<ellipse fill="#fde725" stroke="black" cx="842.14" cy="-898" rx="65.79" ry="18"/>
<text text-anchor="middle" x="842.14" y="-894.3" font-family="Times-Roman" font-size="14.00">pytorch cpu</text>
</a>
</g>
</g>
<!-- pytorch&#45;cpu&#45;&gt;torchvision -->
<g id="edge31" class="edge">
<title>pytorch&#45;cpu&#45;&gt;torchvision</title>
<path fill="none" stroke="black" d="M821.26,-880.76C809.34,-871.49 794.2,-859.71 781.13,-849.55"/>
<polygon fill="black" stroke="black" points="782.94,-846.52 772.9,-843.15 778.64,-852.05 782.94,-846.52"/>
</g>
<!-- pytorch&#45;cpu&#45;&gt;allennlp -->
<g id="edge32" class="edge">
<title>pytorch&#45;cpu&#45;&gt;allennlp</title>
<path fill="none" stroke="black" d="M839.77,-879.93C836.96,-861.76 831.56,-832.34 823.14,-808 819.97,-798.85 815.6,-789.24 811.35,-780.75"/>
<polygon fill="black" stroke="black" points="814.38,-778.99 806.67,-771.73 808.17,-782.22 814.38,-778.99"/>
</g>
<!-- ibm_db -->
<g id="node36" class="node">
<title>ibm_db</title>
<g id="a_node36"><a xlink:href="https://github.com/conda-forge/ibm_db-feedstock/pull/27" xlink:title="ibm_db ❎">
<ellipse fill="#31688e" stroke="black" cx="150.14" cy="-610" rx="57.39" ry="18"/>
<text text-anchor="middle" x="150.14" y="-606.3" font-family="Times-Roman" font-size="14.00" fill="white">ibm_db ❎</text>
</a>
</g>
</g>
<!-- grpcio&#45;gcp&#45;&gt;ibm_db -->
<!-- nvcc -->
<g id="node37" class="node">
<title>nvcc</title>
<g id="a_node37"><a xlink:href="https://github.com/conda-forge/nvcc-feedstock/pull/62" xlink:title="nvcc ✓">
<ellipse fill="#31688e" stroke="black" cx="150.14" cy="-538" rx="42.49" ry="18"/>
<text text-anchor="middle" x="150.14" y="-534.3" font-family="Times-Roman" font-size="14.00" fill="white">nvcc ✓</text>
</a>
</g>
</g>
<!-- ibm_db&#45;&gt;nvcc -->
<!-- cudatoolkit -->
<g id="node38" class="node">
<title>cudatoolkit</title>
<g id="a_node38"><a xlink:href="https://github.com/conda-forge/cudatoolkit-feedstock/pull/4" xlink:title="cudatoolkit ❎">
<ellipse fill="#31688e" stroke="black" cx="721.14" cy="-1042" rx="74.19" ry="18"/>
<text text-anchor="middle" x="721.14" y="-1038.3" font-family="Times-Roman" font-size="14.00" fill="white">cudatoolkit ❎</text>
</a>
</g>
</g>
<!-- cudnn -->
<g id="node39" class="node">
<title>cudnn</title>
<g id="a_node39"><a xlink:href="https://github.com/conda-forge/cudnn-feedstock" xlink:title="cudnn">
<ellipse fill="#fde725" stroke="black" cx="666.14" cy="-970" rx="39" ry="18"/>
<text text-anchor="middle" x="666.14" y="-966.3" font-family="Times-Roman" font-size="14.00">cudnn</text>
</a>
</g>
</g>
<!-- cudatoolkit&#45;&gt;cudnn -->
<g id="edge36" class="edge">
<title>cudatoolkit&#45;&gt;cudnn</title>
<path fill="none" stroke="black" d="M707.82,-1024.05C701.04,-1015.42 692.66,-1004.76 685.2,-995.27"/>
<polygon fill="black" stroke="black" points="687.88,-993.01 678.95,-987.31 682.38,-997.33 687.88,-993.01"/>
</g>
<!-- cutensor -->
<g id="node40" class="node">
<title>cutensor</title>
<g id="a_node40"><a xlink:href="https://github.com/conda-forge/cutensor-feedstock" xlink:title="cutensor">
<ellipse fill="#fde725" stroke="black" cx="775.14" cy="-970" rx="51.5" ry="18"/>
<text text-anchor="middle" x="775.14" y="-966.3" font-family="Times-Roman" font-size="14.00">cutensor</text>
</a>
</g>
</g>
<!-- cudatoolkit&#45;&gt;cutensor -->
<g id="edge37" class="edge">
<title>cudatoolkit&#45;&gt;cutensor</title>
<path fill="none" stroke="black" d="M734.21,-1024.05C740.71,-1015.63 748.69,-1005.28 755.88,-995.97"/>
<polygon fill="black" stroke="black" points="758.85,-997.84 762.19,-987.79 753.31,-993.57 758.85,-997.84"/>
</g>
<!-- cudnn&#45;&gt;torchvision -->
<g id="edge38" class="edge">
<title>cudnn&#45;&gt;torchvision</title>
<path fill="none" stroke="black" d="M676.17,-952.43C691.04,-927.88 719.07,-881.6 736.6,-852.65"/>
<polygon fill="black" stroke="black" points="739.71,-854.27 741.9,-843.9 733.73,-850.64 739.71,-854.27"/>
</g>
<!-- cudnn&#45;&gt;pytorch&#45;cpu -->
<g id="edge39" class="edge">
<title>cudnn&#45;&gt;pytorch&#45;cpu</title>
<path fill="none" stroke="black" d="M694.81,-957.6C722.44,-946.61 764.67,-929.81 796.85,-917.01"/>
<polygon fill="black" stroke="black" points="798.49,-920.13 806.48,-913.18 795.9,-913.62 798.49,-920.13"/>
</g>
<!-- libv8 -->
<g id="node41" class="node">
<title>libv8</title>
<g id="a_node41"><a xlink:href="https://github.com/conda-forge/libv8-feedstock/pull/64" xlink:title="libv8 ❎">
<ellipse fill="#31688e" stroke="black" cx="150.14" cy="-90" rx="45" ry="18"/>
<text text-anchor="middle" x="150.14" y="-86.3" font-family="Times-Roman" font-size="14.00" fill="white">libv8 ❎</text>
</a>
</g>
</g>
<!-- r&#45;v8 -->
<g id="node42" class="node">
<title>r&#45;v8</title>
<g id="a_node42"><a xlink:href="https://github.com/conda-forge/r-v8-feedstock" xlink:title="r v8">
<ellipse fill="#fde725" stroke="black" cx="150.14" cy="-18" rx="28.7" ry="18"/>
<text text-anchor="middle" x="150.14" y="-14.3" font-family="Times-Roman" font-size="14.00">r v8</text>
</a>
</g>
</g>
<!-- libv8&#45;&gt;r&#45;v8 -->
<g id="edge40" class="edge">
<title>libv8&#45;&gt;r&#45;v8</title>
<path fill="none" stroke="black" d="M150.14,-71.7C150.14,-63.98 150.14,-54.71 150.14,-46.11"/>
<polygon fill="black" stroke="black" points="153.64,-46.1 150.14,-36.1 146.64,-46.1 153.64,-46.1"/>
</g>
<!-- urlquote -->
<g id="node43" class="node">
<title>urlquote</title>
<g id="a_node43"><a xlink:href="https://github.com/conda-forge/urlquote-feedstock/pull/9" xlink:title="urlquote ✓">
<ellipse fill="#31688e" stroke="black" cx="150.14" cy="-494" rx="60.5" ry="18"/>
<text text-anchor="middle" x="150.14" y="-490.3" font-family="Times-Roman" font-size="14.00" fill="white">urlquote ✓</text>
</a>
</g>
</g>
<!-- proj -->
<g id="node44" class="node">
<title>proj</title>
<g id="a_node44"><a xlink:href="https://github.com/conda-forge/proj-feedstock" xlink:title="proj">
<ellipse fill="#35b779" stroke="black" cx="150.14" cy="-422" rx="28.7" ry="18"/>
<text text-anchor="middle" x="150.14" y="-418.3" font-family="Times-Roman" font-size="14.00">proj</text>
</a>
</g>
</g>
<!-- urlquote&#45;&gt;proj -->
<!-- jaeger -->
<g id="node45" class="node">
<title>jaeger</title>
<g id="a_node45"><a xlink:href="https://github.com/conda-forge/jaeger-feedstock/pull/12" xlink:title="jaeger ❎">
<ellipse fill="#31688e" stroke="black" cx="150.14" cy="-350" rx="52.79" ry="18"/>
<text text-anchor="middle" x="150.14" y="-346.3" font-family="Times-Roman" font-size="14.00" fill="white">jaeger ❎</text>
</a>
</g>
</g>
<!-- proj&#45;&gt;jaeger -->
<!-- ompl -->
<g id="node47" class="node">
<title>ompl</title>
<g id="a_node47"><a xlink:href="https://github.com/conda-forge/ompl-feedstock/pull/8" xlink:title="ompl ❎">
<ellipse fill="#31688e" stroke="black" cx="150.14" cy="-278" rx="46.29" ry="18"/>
<text text-anchor="middle" x="150.14" y="-274.3" font-family="Times-Roman" font-size="14.00" fill="white">ompl ❎</text>
</a>
</g>
</g>
<!-- jaeger&#45;&gt;ompl -->
<!-- nccl -->
<g id="node46" class="node">
<title>nccl</title>
<g id="a_node46"><a xlink:href="https://github.com/conda-forge/nccl-feedstock/pull/35" xlink:title="nccl ✓">
<ellipse fill="#31688e" stroke="black" cx="884.14" cy="-970" rx="39.79" ry="18"/>
<text text-anchor="middle" x="884.14" y="-966.3" font-family="Times-Roman" font-size="14.00" fill="white">nccl ✓</text>
</a>
</g>
</g>
<!-- nccl&#45;&gt;pytorch&#45;cpu -->
<g id="edge43" class="edge">
<title>nccl&#45;&gt;pytorch&#45;cpu</title>
<path fill="none" stroke="black" d="M874.18,-952.41C869.23,-944.16 863.14,-934.01 857.6,-924.78"/>
<polygon fill="black" stroke="black" points="860.46,-922.73 852.31,-915.96 854.45,-926.33 860.46,-922.73"/>
</g>
<!-- dm&#45;tree -->
<g id="node48" class="node">
<title>dm&#45;tree</title>
<g id="a_node48"><a xlink:href="https://github.com/conda-forge/dm-tree-feedstock/pull/4" xlink:title="dm tree ❎">
<ellipse fill="#31688e" stroke="black" cx="150.14" cy="-206" rx="60" ry="18"/>
<text text-anchor="middle" x="150.14" y="-202.3" font-family="Times-Roman" font-size="14.00" fill="white">dm tree ❎</text>
</a>
</g>
</g>
<!-- ompl&#45;&gt;dm&#45;tree -->
<!-- pyrfr -->
<g id="node50" class="node">
<title>pyrfr</title>
<g id="a_node50"><a xlink:href="https://github.com/conda-forge/pyrfr-feedstock/pull/11" xlink:title="pyrfr ❎">
<ellipse fill="#31688e" stroke="black" cx="150.14" cy="-134" rx="45.5" ry="18"/>
<text text-anchor="middle" x="150.14" y="-130.3" font-family="Times-Roman" font-size="14.00" fill="white">pyrfr ❎</text>
</a>
</g>
</g>
<!-- dm&#45;tree&#45;&gt;pyrfr -->
<!-- tokenizers -->
<g id="node49" class="node">
<title>tokenizers</title>
<g id="a_node49"><a xlink:href="https://github.com/conda-forge/tokenizers-feedstock/pull/18" xlink:title="tokenizers ❎">
<ellipse fill="#31688e" stroke="black" cx="941.14" cy="-826" rx="71" ry="18"/>
<text text-anchor="middle" x="941.14" y="-822.3" font-family="Times-Roman" font-size="14.00" fill="white">tokenizers ❎</text>
</a>
</g>
</g>
<!-- tokenizers&#45;&gt;allennlp -->
<g id="edge46" class="edge">
<title>tokenizers&#45;&gt;allennlp</title>
<path fill="none" stroke="black" d="M909.89,-809.81C887.79,-799.07 858.05,-784.61 834.66,-773.24"/>
<polygon fill="black" stroke="black" points="835.92,-769.96 825.39,-768.74 832.86,-776.26 835.92,-769.96"/>
</g>
<!-- magma -->
<g id="node51" class="node">
<title>magma</title>
<g id="a_node51"><a xlink:href="https://github.com/conda-forge/magma-feedstock/pull/4" xlink:title="magma ✓">
<ellipse fill="#31688e" stroke="black" cx="952.14" cy="-1042" rx="58" ry="18"/>
<text text-anchor="middle" x="952.14" y="-1038.3" font-family="Times-Roman" font-size="14.00" fill="white">magma ✓</text>
</a>
</g>
</g>
<!-- magma&#45;&gt;pytorch&#45;cpu -->
<g id="edge48" class="edge">
<title>magma&#45;&gt;pytorch&#45;cpu</title>
<path fill="none" stroke="black" d="M952.46,-1023.96C951.98,-1004.73 948.61,-973.37 933.14,-952 922.29,-937.02 905.81,-925.61 889.84,-917.28"/>
<polygon fill="black" stroke="black" points="891.06,-913.98 880.54,-912.72 887.98,-920.27 891.06,-913.98"/>
</g>
</g>
</svg>
