<?xml version="1.0" encoding="UTF-8" standalone="no"?>
<!DOCTYPE svg PUBLIC "-//W3C//DTD SVG 1.1//EN"
 "http://www.w3.org/Graphics/SVG/1.1/DTD/svg11.dtd">
<!-- Generated by graphviz version 2.47.1 (20210511.0111)
 -->
<!-- Pages: 1 -->
<svg width="2330pt" height="996pt"
 viewBox="0.00 0.00 2329.50 996.00" xmlns="http://www.w3.org/2000/svg" xmlns:xlink="http://www.w3.org/1999/xlink">
<g id="graph0" class="graph" transform="scale(1 1) rotate(0) translate(4 992)">
<polygon fill="white" stroke="transparent" points="-4,4 -4,-992 2325.5,-992 2325.5,4 -4,4"/>
<!-- check -->
<g id="node1" class="node">
<title>check</title>
<g id="a_node1"><a xlink:href="https://github.com/conda-forge/check-feedstock/pull/19" xlink:title="check ❎">
<ellipse fill="#31688e" stroke="black" cx="341" cy="-610" rx="51.5" ry="18"/>
<text text-anchor="middle" x="341" y="-606.3" font-family="Times-Roman" font-size="14.00" fill="white">check ❎</text>
</a>
</g>
</g>
<!-- pulseaudio -->
<g id="node2" class="node">
<title>pulseaudio</title>
<g id="a_node2"><a xlink:href="https://github.com/conda-forge/pulseaudio-feedstock" xlink:title="pulseaudio">
<ellipse fill="#fde725" stroke="black" cx="261" cy="-538" rx="60" ry="18"/>
<text text-anchor="middle" x="261" y="-534.3" font-family="Times-Roman" font-size="14.00">pulseaudio</text>
</a>
</g>
</g>
<!-- check&#45;&gt;pulseaudio -->
<g id="edge1" class="edge">
<title>check&#45;&gt;pulseaudio</title>
<path fill="none" stroke="black" d="M322.85,-593.12C312.36,-583.94 298.98,-572.23 287.35,-562.06"/>
<polygon fill="black" stroke="black" points="289.47,-559.26 279.64,-555.31 284.86,-564.53 289.47,-559.26"/>
</g>
<!-- gqrx -->
<g id="node3" class="node">
<title>gqrx</title>
<g id="a_node3"><a xlink:href="https://github.com/conda-forge/gqrx-feedstock" xlink:title="gqrx">
<ellipse fill="#fde725" stroke="black" cx="482" cy="-466" rx="31.4" ry="18"/>
<text text-anchor="middle" x="482" y="-462.3" font-family="Times-Roman" font-size="14.00">gqrx</text>
</a>
</g>
</g>
<!-- pulseaudio&#45;&gt;gqrx -->
<g id="edge2" class="edge">
<title>pulseaudio&#45;&gt;gqrx</title>
<path fill="none" stroke="black" d="M300.77,-524.4C342.01,-511.34 405.93,-491.09 445.8,-478.47"/>
<polygon fill="black" stroke="black" points="446.92,-481.78 455.39,-475.43 444.8,-475.11 446.92,-481.78"/>
</g>
<!-- googleapis&#45;common&#45;protos -->
<g id="node4" class="node">
<title>googleapis&#45;common&#45;protos</title>
<g id="a_node4"><a xlink:href="https://github.com/conda-forge/googleapis-common-protos-feedstock/pull/27" xlink:title="googleapis common protos ❎">
<ellipse fill="#31688e" stroke="black" cx="1493" cy="-970" rx="147" ry="18"/>
<text text-anchor="middle" x="1493" y="-966.3" font-family="Times-Roman" font-size="14.00" fill="white">googleapis common protos ❎</text>
</a>
</g>
</g>
<!-- root_numpy -->
<g id="node5" class="node">
<title>root_numpy</title>
<g id="a_node5"><a xlink:href="https://github.com/conda-forge/root_numpy-feedstock/pull/21" xlink:title="root_numpy ❎">
<ellipse fill="#31688e" stroke="black" cx="1493" cy="-898" rx="78.79" ry="18"/>
<text text-anchor="middle" x="1493" y="-894.3" font-family="Times-Roman" font-size="14.00" fill="white">root_numpy ❎</text>
</a>
</g>
</g>
<!-- googleapis&#45;common&#45;protos&#45;&gt;root_numpy -->
<!-- r&#45;grf -->
<g id="node34" class="node">
<title>r&#45;grf</title>
<g id="a_node34"><a xlink:href="https://github.com/conda-forge/r-grf-feedstock/pull/10" xlink:title="r grf ❎">
<ellipse fill="#31688e" stroke="black" cx="1493" cy="-826" rx="45" ry="18"/>
<text text-anchor="middle" x="1493" y="-822.3" font-family="Times-Roman" font-size="14.00" fill="white">r grf ❎</text>
</a>
</g>
</g>
<!-- root_numpy&#45;&gt;r&#45;grf -->
<!-- hyperspy -->
<g id="node6" class="node">
<title>hyperspy</title>
<g id="a_node6"><a xlink:href="https://github.com/conda-forge/hyperspy-feedstock" xlink:title="hyperspy">
<ellipse fill="#fde725" stroke="black" cx="882" cy="-682" rx="53.5" ry="18"/>
<text text-anchor="middle" x="882" y="-678.3" font-family="Times-Roman" font-size="14.00">hyperspy</text>
</a>
</g>
</g>
<!-- jack -->
<g id="node7" class="node">
<title>jack</title>
<g id="a_node7"><a xlink:href="https://github.com/conda-forge/jack-feedstock" xlink:title="jack">
<ellipse fill="#fde725" stroke="black" cx="164" cy="-610" rx="28.7" ry="18"/>
<text text-anchor="middle" x="164" y="-606.3" font-family="Times-Roman" font-size="14.00">jack</text>
</a>
</g>
</g>
<!-- jack&#45;&gt;pulseaudio -->
<g id="edge4" class="edge">
<title>jack&#45;&gt;pulseaudio</title>
<path fill="none" stroke="black" d="M182.24,-595.83C195.86,-586.01 214.77,-572.36 230.64,-560.91"/>
<polygon fill="black" stroke="black" points="233.04,-563.49 239.1,-554.8 228.94,-557.82 233.04,-563.49"/>
</g>
<!-- libdb -->
<g id="node8" class="node">
<title>libdb</title>
<g id="a_node8"><a xlink:href="https://github.com/conda-forge/libdb-feedstock/pull/15" xlink:title="libdb ✓">
<ellipse fill="#31688e" stroke="black" cx="124" cy="-682" rx="44.39" ry="18"/>
<text text-anchor="middle" x="124" y="-678.3" font-family="Times-Roman" font-size="14.00" fill="white">libdb ✓</text>
</a>
</g>
</g>
<!-- libdb&#45;&gt;jack -->
<g id="edge5" class="edge">
<title>libdb&#45;&gt;jack</title>
<path fill="none" stroke="black" d="M133.48,-664.41C138.26,-656.04 144.17,-645.71 149.5,-636.37"/>
<polygon fill="black" stroke="black" points="152.67,-637.89 154.59,-627.47 146.59,-634.42 152.67,-637.89"/>
</g>
<!-- libunwind -->
<g id="node9" class="node">
<title>libunwind</title>
<g id="a_node9"><a xlink:href="https://github.com/conda-forge/libunwind-feedstock/pull/14" xlink:title="libunwind ❎">
<ellipse fill="#31688e" stroke="black" cx="1808" cy="-682" rx="69" ry="18"/>
<text text-anchor="middle" x="1808" y="-678.3" font-family="Times-Roman" font-size="14.00" fill="white">libunwind ❎</text>
</a>
</g>
</g>
<!-- gperftools -->
<g id="node10" class="node">
<title>gperftools</title>
<g id="a_node10"><a xlink:href="https://github.com/conda-forge/gperftools-feedstock" xlink:title="gperftools">
<ellipse fill="#fde725" stroke="black" cx="1808" cy="-610" rx="56" ry="18"/>
<text text-anchor="middle" x="1808" y="-606.3" font-family="Times-Roman" font-size="14.00">gperftools</text>
</a>
</g>
</g>
<!-- libunwind&#45;&gt;gperftools -->
<g id="edge6" class="edge">
<title>libunwind&#45;&gt;gperftools</title>
<path fill="none" stroke="black" d="M1808,-663.7C1808,-655.98 1808,-646.71 1808,-638.11"/>
<polygon fill="black" stroke="black" points="1811.5,-638.1 1808,-628.1 1804.5,-638.1 1811.5,-638.1"/>
</g>
<!-- py&#45;spy -->
<g id="node11" class="node">
<title>py&#45;spy</title>
<g id="a_node11"><a xlink:href="https://github.com/conda-forge/py-spy-feedstock" xlink:title="py spy">
<ellipse fill="#fde725" stroke="black" cx="1943" cy="-538" rx="41" ry="18"/>
<text text-anchor="middle" x="1943" y="-534.3" font-family="Times-Roman" font-size="14.00">py spy</text>
</a>
</g>
</g>
<!-- libunwind&#45;&gt;py&#45;spy -->
<g id="edge7" class="edge">
<title>libunwind&#45;&gt;py&#45;spy</title>
<path fill="none" stroke="black" d="M1830.1,-664.93C1843.18,-654.96 1859.73,-641.5 1873,-628 1892.74,-607.91 1912.32,-582.42 1925.73,-563.87"/>
<polygon fill="black" stroke="black" points="1928.65,-565.81 1931.61,-555.64 1922.95,-561.74 1928.65,-565.81"/>
</g>
<!-- heaptrack -->
<g id="node12" class="node">
<title>heaptrack</title>
<g id="a_node12"><a xlink:href="https://github.com/conda-forge/heaptrack-feedstock" xlink:title="heaptrack">
<ellipse fill="#fde725" stroke="black" cx="1704" cy="-466" rx="56" ry="18"/>
<text text-anchor="middle" x="1704" y="-462.3" font-family="Times-Roman" font-size="14.00">heaptrack</text>
</a>
</g>
</g>
<!-- libunwind&#45;&gt;heaptrack -->
<g id="edge8" class="edge">
<title>libunwind&#45;&gt;heaptrack</title>
<path fill="none" stroke="black" d="M1781.86,-665.31C1768.44,-656.02 1752.88,-643.11 1743,-628 1716.03,-586.73 1707.69,-528.52 1705.13,-494.58"/>
<polygon fill="black" stroke="black" points="1708.61,-494.22 1704.48,-484.46 1701.62,-494.67 1708.61,-494.22"/>
</g>
<!-- sentencepiece -->
<g id="node13" class="node">
<title>sentencepiece</title>
<g id="a_node13"><a xlink:href="https://github.com/conda-forge/sentencepiece-feedstock" xlink:title="sentencepiece">
<ellipse fill="#fde725" stroke="black" cx="1808" cy="-538" rx="75.5" ry="18"/>
<text text-anchor="middle" x="1808" y="-534.3" font-family="Times-Roman" font-size="14.00">sentencepiece</text>
</a>
</g>
</g>
<!-- gperftools&#45;&gt;sentencepiece -->
<g id="edge9" class="edge">
<title>gperftools&#45;&gt;sentencepiece</title>
<path fill="none" stroke="black" d="M1808,-591.7C1808,-583.98 1808,-574.71 1808,-566.11"/>
<polygon fill="black" stroke="black" points="1811.5,-566.1 1808,-556.1 1804.5,-566.1 1811.5,-566.1"/>
</g>
<!-- allennlp -->
<g id="node33" class="node">
<title>allennlp</title>
<g id="a_node33"><a xlink:href="https://github.com/conda-forge/allennlp-feedstock" xlink:title="allennlp">
<ellipse fill="#fde725" stroke="black" cx="2106" cy="-466" rx="46.29" ry="18"/>
<text text-anchor="middle" x="2106" y="-462.3" font-family="Times-Roman" font-size="14.00">allennlp</text>
</a>
</g>
</g>
<!-- sentencepiece&#45;&gt;allennlp -->
<g id="edge34" class="edge">
<title>sentencepiece&#45;&gt;allennlp</title>
<path fill="none" stroke="black" d="M1859.91,-524.81C1915.52,-511.74 2003.1,-491.17 2057.4,-478.42"/>
<polygon fill="black" stroke="black" points="2058.54,-481.74 2067.47,-476.05 2056.94,-474.93 2058.54,-481.74"/>
</g>
<!-- perl&#45;xml&#45;parser -->
<g id="node14" class="node">
<title>perl&#45;xml&#45;parser</title>
<g id="a_node14"><a xlink:href="https://github.com/conda-forge/perl-xml-parser-feedstock/pull/8" xlink:title="perl xml parser ❎">
<ellipse fill="#31688e" stroke="black" cx="280" cy="-682" rx="94.48" ry="18"/>
<text text-anchor="middle" x="280" y="-678.3" font-family="Times-Roman" font-size="14.00" fill="white">perl xml parser ❎</text>
</a>
</g>
</g>
<!-- perl&#45;xml&#45;parser&#45;&gt;pulseaudio -->
<g id="edge10" class="edge">
<title>perl&#45;xml&#45;parser&#45;&gt;pulseaudio</title>
<path fill="none" stroke="black" d="M277.71,-663.87C274.47,-639.67 268.52,-595.21 264.67,-566.39"/>
<polygon fill="black" stroke="black" points="268.1,-565.64 263.3,-556.19 261.16,-566.57 268.1,-565.64"/>
</g>
<!-- pyqt -->
<g id="node15" class="node">
<title>pyqt</title>
<g id="a_node15"><a xlink:href="https://github.com/conda-forge/pyqt-feedstock" xlink:title="pyqt">
<ellipse fill="#fde725" stroke="black" cx="936" cy="-754" rx="31.4" ry="18"/>
<text text-anchor="middle" x="936" y="-750.3" font-family="Times-Roman" font-size="14.00">pyqt</text>
</a>
</g>
</g>
<!-- pyqt&#45;&gt;hyperspy -->
<g id="edge11" class="edge">
<title>pyqt&#45;&gt;hyperspy</title>
<path fill="none" stroke="black" d="M923.75,-737.12C917.1,-728.51 908.74,-717.67 901.25,-707.96"/>
<polygon fill="black" stroke="black" points="903.84,-705.58 894.96,-699.8 898.29,-709.85 903.84,-705.58"/>
</g>
<!-- gnuradio -->
<g id="node16" class="node">
<title>gnuradio</title>
<g id="a_node16"><a xlink:href="https://github.com/conda-forge/gnuradio-feedstock" xlink:title="gnuradio">
<ellipse fill="#fde725" stroke="black" cx="759" cy="-682" rx="51.5" ry="18"/>
<text text-anchor="middle" x="759" y="-678.3" font-family="Times-Roman" font-size="14.00">gnuradio</text>
</a>
</g>
</g>
<!-- pyqt&#45;&gt;gnuradio -->
<g id="edge12" class="edge">
<title>pyqt&#45;&gt;gnuradio</title>
<path fill="none" stroke="black" d="M911.02,-743.12C882.57,-731.87 835.61,-713.3 801.4,-699.77"/>
<polygon fill="black" stroke="black" points="802.26,-696.35 791.68,-695.92 799.69,-702.86 802.26,-696.35"/>
</g>
<!-- pythonocc&#45;core -->
<g id="node17" class="node">
<title>pythonocc&#45;core</title>
<g id="a_node17"><a xlink:href="https://github.com/conda-forge/pythonocc-core-feedstock" xlink:title="pythonocc core">
<ellipse fill="#fde725" stroke="black" cx="964" cy="-610" rx="79.5" ry="18"/>
<text text-anchor="middle" x="964" y="-606.3" font-family="Times-Roman" font-size="14.00">pythonocc core</text>
</a>
</g>
</g>
<!-- pyqt&#45;&gt;pythonocc&#45;core -->
<g id="edge13" class="edge">
<title>pyqt&#45;&gt;pythonocc&#45;core</title>
<path fill="none" stroke="black" d="M939.38,-735.87C944.17,-711.56 952.99,-666.82 958.67,-638.01"/>
<polygon fill="black" stroke="black" points="962.11,-638.68 960.61,-628.19 955.24,-637.32 962.11,-638.68"/>
</g>
<!-- gnuradio&#45;&gt;gqrx -->
<g id="edge14" class="edge">
<title>gnuradio&#45;&gt;gqrx</title>
<path fill="none" stroke="black" d="M740.44,-665.2C729.37,-655.21 715.47,-641.65 705,-628 671.44,-584.26 686.64,-554.94 644,-520 608.9,-491.24 557.71,-477.92 522.31,-471.86"/>
<polygon fill="black" stroke="black" points="522.75,-468.38 512.32,-470.27 521.65,-475.3 522.75,-468.38"/>
</g>
<!-- digital_rf -->
<g id="node18" class="node">
<title>digital_rf</title>
<g id="a_node18"><a xlink:href="https://github.com/conda-forge/digital_rf-feedstock" xlink:title="digital_rf">
<ellipse fill="#fde725" stroke="black" cx="779" cy="-610" rx="50.09" ry="18"/>
<text text-anchor="middle" x="779" y="-606.3" font-family="Times-Roman" font-size="14.00">digital_rf</text>
</a>
</g>
</g>
<!-- gnuradio&#45;&gt;digital_rf -->
<g id="edge15" class="edge">
<title>gnuradio&#45;&gt;digital_rf</title>
<path fill="none" stroke="black" d="M763.84,-664.05C766.07,-656.26 768.77,-646.82 771.26,-638.08"/>
<polygon fill="black" stroke="black" points="774.68,-638.85 774.06,-628.28 767.95,-636.93 774.68,-638.85"/>
</g>
<!-- gnuradio&#45;osmosdr -->
<g id="node19" class="node">
<title>gnuradio&#45;osmosdr</title>
<g id="a_node19"><a xlink:href="https://github.com/conda-forge/gnuradio-osmosdr-feedstock" xlink:title="gnuradio osmosdr">
<ellipse fill="#fde725" stroke="black" cx="542" cy="-538" rx="93" ry="18"/>
<text text-anchor="middle" x="542" y="-534.3" font-family="Times-Roman" font-size="14.00">gnuradio osmosdr</text>
</a>
</g>
</g>
<!-- gnuradio&#45;&gt;gnuradio&#45;osmosdr -->
<g id="edge16" class="edge">
<title>gnuradio&#45;&gt;gnuradio&#45;osmosdr</title>
<path fill="none" stroke="black" d="M726.6,-667.89C704.08,-658.19 673.78,-643.94 649,-628 618.9,-608.65 587.82,-581.91 566.97,-562.8"/>
<polygon fill="black" stroke="black" points="569.21,-560.11 559.5,-555.88 564.46,-565.24 569.21,-560.11"/>
</g>
<!-- gnuradio&#45;soapy -->
<g id="node20" class="node">
<title>gnuradio&#45;soapy</title>
<g id="a_node20"><a xlink:href="https://github.com/conda-forge/gnuradio-soapy-feedstock" xlink:title="gnuradio soapy">
<ellipse fill="#fde725" stroke="black" cx="701" cy="-466" rx="81.49" ry="18"/>
<text text-anchor="middle" x="701" y="-462.3" font-family="Times-Roman" font-size="14.00">gnuradio soapy</text>
</a>
</g>
</g>
<!-- gnuradio&#45;&gt;gnuradio&#45;soapy -->
<g id="edge17" class="edge">
<title>gnuradio&#45;&gt;gnuradio&#45;soapy</title>
<path fill="none" stroke="black" d="M743.53,-664.7C735.12,-654.85 725.37,-641.6 720,-628 702.45,-583.55 699.83,-527.23 700.04,-494.35"/>
<polygon fill="black" stroke="black" points="703.55,-494.2 700.21,-484.14 696.55,-494.09 703.55,-494.2"/>
</g>
<!-- gnuradio&#45;satellites -->
<g id="node21" class="node">
<title>gnuradio&#45;satellites</title>
<g id="a_node21"><a xlink:href="https://github.com/conda-forge/gnuradio-satellites-feedstock" xlink:title="gnuradio satellites">
<ellipse fill="#fde725" stroke="black" cx="857" cy="-394" rx="94.48" ry="18"/>
<text text-anchor="middle" x="857" y="-390.3" font-family="Times-Roman" font-size="14.00">gnuradio satellites</text>
</a>
</g>
</g>
<!-- gnuradio&#45;&gt;gnuradio&#45;satellites -->
<g id="edge18" class="edge">
<title>gnuradio&#45;&gt;gnuradio&#45;satellites</title>
<path fill="none" stroke="black" d="M791.28,-667.76C808.17,-659.07 827.47,-645.95 838,-628 876.41,-562.54 868.84,-468.38 861.97,-422.38"/>
<polygon fill="black" stroke="black" points="865.39,-421.61 860.36,-412.29 858.48,-422.72 865.39,-421.61"/>
</g>
<!-- gnuradio&#45;osmosdr&#45;&gt;gqrx -->
<g id="edge51" class="edge">
<title>gnuradio&#45;osmosdr&#45;&gt;gqrx</title>
<path fill="none" stroke="black" d="M527.48,-520.05C519.78,-511.08 510.21,-499.92 501.84,-490.15"/>
<polygon fill="black" stroke="black" points="504.33,-487.67 495.16,-482.36 499.01,-492.23 504.33,-487.67"/>
</g>
<!-- qt -->
<g id="node22" class="node">
<title>qt</title>
<g id="a_node22"><a xlink:href="https://github.com/conda-forge/qt-feedstock/pull/184" xlink:title="qt ❎">
<ellipse fill="#31688e" stroke="black" cx="972" cy="-826" rx="34.5" ry="18"/>
<text text-anchor="middle" x="972" y="-822.3" font-family="Times-Roman" font-size="14.00" fill="white">qt ❎</text>
</a>
</g>
</g>
<!-- qt&#45;&gt;gqrx -->
<g id="edge26" class="edge">
<title>qt&#45;&gt;gqrx</title>
<path fill="none" stroke="black" d="M937.53,-823.58C816.91,-817.69 421,-790.18 421,-683 421,-683 421,-683 421,-609 421,-568.55 422.76,-556.59 440,-520 445.13,-509.1 452.9,-498.43 460.36,-489.55"/>
<polygon fill="black" stroke="black" points="463.07,-491.76 467.04,-481.94 457.81,-487.14 463.07,-491.76"/>
</g>
<!-- qt&#45;&gt;pyqt -->
<g id="edge19" class="edge">
<title>qt&#45;&gt;pyqt</title>
<path fill="none" stroke="black" d="M963.47,-808.41C959.16,-800.04 953.85,-789.71 949.05,-780.37"/>
<polygon fill="black" stroke="black" points="952.16,-778.76 944.47,-771.47 945.93,-781.96 952.16,-778.76"/>
</g>
<!-- qt&#45;&gt;gnuradio -->
<g id="edge20" class="edge">
<title>qt&#45;&gt;gnuradio</title>
<path fill="none" stroke="black" d="M938.53,-821.21C903.19,-815.69 847.52,-802.55 810,-772 789.92,-755.65 776.19,-729.15 768.08,-709.32"/>
<polygon fill="black" stroke="black" points="771.32,-707.98 764.45,-699.91 764.79,-710.5 771.32,-707.98"/>
</g>
<!-- qwt -->
<g id="node23" class="node">
<title>qwt</title>
<g id="a_node23"><a xlink:href="https://github.com/conda-forge/qwt-feedstock" xlink:title="qwt">
<ellipse fill="#fde725" stroke="black" cx="846" cy="-754" rx="27.5" ry="18"/>
<text text-anchor="middle" x="846" y="-750.3" font-family="Times-Roman" font-size="14.00">qwt</text>
</a>
</g>
</g>
<!-- qt&#45;&gt;qwt -->
<g id="edge21" class="edge">
<title>qt&#45;&gt;qwt</title>
<path fill="none" stroke="black" d="M949.18,-812.32C928.49,-800.83 897.87,-783.82 875.36,-771.31"/>
<polygon fill="black" stroke="black" points="877,-768.22 866.56,-766.42 873.6,-774.34 877,-768.22"/>
</g>
<!-- pivy -->
<g id="node24" class="node">
<title>pivy</title>
<g id="a_node24"><a xlink:href="https://github.com/conda-forge/pivy-feedstock" xlink:title="pivy">
<ellipse fill="#fde725" stroke="black" cx="1091" cy="-610" rx="30" ry="18"/>
<text text-anchor="middle" x="1091" y="-606.3" font-family="Times-Roman" font-size="14.00">pivy</text>
</a>
</g>
</g>
<!-- qt&#45;&gt;pivy -->
<g id="edge22" class="edge">
<title>qt&#45;&gt;pivy</title>
<path fill="none" stroke="black" d="M979.26,-808.04C992.31,-778.11 1021.28,-714.36 1052,-664 1058.04,-654.1 1065.43,-643.71 1072.14,-634.78"/>
<polygon fill="black" stroke="black" points="1075,-636.8 1078.3,-626.73 1069.44,-632.55 1075,-636.8"/>
</g>
<!-- pyside2 -->
<g id="node25" class="node">
<title>pyside2</title>
<g id="a_node25"><a xlink:href="https://github.com/conda-forge/pyside2-feedstock" xlink:title="pyside2">
<ellipse fill="#fde725" stroke="black" cx="1076" cy="-754" rx="46.29" ry="18"/>
<text text-anchor="middle" x="1076" y="-750.3" font-family="Times-Roman" font-size="14.00">pyside2</text>
</a>
</g>
</g>
<!-- qt&#45;&gt;pyside2 -->
<g id="edge23" class="edge">
<title>qt&#45;&gt;pyside2</title>
<path fill="none" stroke="black" d="M992.55,-811.17C1007.57,-801.06 1028.2,-787.17 1045.19,-775.74"/>
<polygon fill="black" stroke="black" points="1047.35,-778.5 1053.7,-770.01 1043.45,-772.69 1047.35,-778.5"/>
</g>
<!-- soqt -->
<g id="node26" class="node">
<title>soqt</title>
<g id="a_node26"><a xlink:href="https://github.com/conda-forge/soqt-feedstock" xlink:title="soqt">
<ellipse fill="#fde725" stroke="black" cx="1237" cy="-682" rx="30.59" ry="18"/>
<text text-anchor="middle" x="1237" y="-678.3" font-family="Times-Roman" font-size="14.00">soqt</text>
</a>
</g>
</g>
<!-- qt&#45;&gt;soqt -->
<g id="edge24" class="edge">
<title>qt&#45;&gt;soqt</title>
<path fill="none" stroke="black" d="M1003.32,-818.27C1036.47,-810.31 1089.61,-795.16 1131,-772 1163.35,-753.9 1195.21,-725.29 1215.42,-705.41"/>
<polygon fill="black" stroke="black" points="1217.97,-707.81 1222.57,-698.26 1213.03,-702.86 1217.97,-707.81"/>
</g>
<!-- geant4 -->
<g id="node27" class="node">
<title>geant4</title>
<g id="a_node27"><a xlink:href="https://github.com/conda-forge/geant4-feedstock" xlink:title="geant4">
<ellipse fill="#fde725" stroke="black" cx="1296" cy="-610" rx="42.49" ry="18"/>
<text text-anchor="middle" x="1296" y="-606.3" font-family="Times-Roman" font-size="14.00">geant4</text>
</a>
</g>
</g>
<!-- qt&#45;&gt;geant4 -->
<g id="edge25" class="edge">
<title>qt&#45;&gt;geant4</title>
<path fill="none" stroke="black" d="M1006.03,-822.72C1071.63,-816.27 1214.63,-791.84 1277,-700 1289.37,-681.78 1293.91,-657.01 1295.47,-638.23"/>
<polygon fill="black" stroke="black" points="1298.96,-638.41 1296.07,-628.22 1291.97,-637.99 1298.96,-638.41"/>
</g>
<!-- qwt&#45;&gt;gnuradio -->
<g id="edge27" class="edge">
<title>qwt&#45;&gt;gnuradio</title>
<path fill="none" stroke="black" d="M829.23,-739.5C817.17,-729.81 800.65,-716.51 786.66,-705.26"/>
<polygon fill="black" stroke="black" points="788.75,-702.45 778.77,-698.91 784.37,-707.9 788.75,-702.45"/>
</g>
<!-- pyside2&#45;&gt;pivy -->
<g id="edge28" class="edge">
<title>pyside2&#45;&gt;pivy</title>
<path fill="none" stroke="black" d="M1068.18,-736.08C1060.89,-718.03 1052.12,-688.7 1059,-664 1061.82,-653.86 1067.17,-643.71 1072.7,-635.06"/>
<polygon fill="black" stroke="black" points="1075.7,-636.88 1078.43,-626.64 1069.91,-632.94 1075.7,-636.88"/>
</g>
<!-- cctbx&#45;base -->
<g id="node28" class="node">
<title>cctbx&#45;base</title>
<g id="a_node28"><a xlink:href="https://github.com/conda-forge/cctbx-base-feedstock" xlink:title="cctbx base">
<ellipse fill="#fde725" stroke="black" cx="1128" cy="-682" rx="60" ry="18"/>
<text text-anchor="middle" x="1128" y="-678.3" font-family="Times-Roman" font-size="14.00">cctbx base</text>
</a>
</g>
</g>
<!-- pyside2&#45;&gt;cctbx&#45;base -->
<g id="edge29" class="edge">
<title>pyside2&#45;&gt;cctbx&#45;base</title>
<path fill="none" stroke="black" d="M1088.32,-736.41C1094.58,-727.99 1102.31,-717.58 1109.28,-708.2"/>
<polygon fill="black" stroke="black" points="1112.25,-710.07 1115.4,-699.96 1106.63,-705.9 1112.25,-710.07"/>
</g>
<!-- soqt&#45;&gt;pivy -->
<g id="edge30" class="edge">
<title>soqt&#45;&gt;pivy</title>
<path fill="none" stroke="black" d="M1213.87,-669.91C1189.41,-658.18 1150.65,-639.6 1123.22,-626.45"/>
<polygon fill="black" stroke="black" points="1124.56,-623.21 1114.03,-622.04 1121.53,-629.52 1124.56,-623.21"/>
</g>
<!-- r&#45;sf -->
<g id="node29" class="node">
<title>r&#45;sf</title>
<g id="a_node29"><a xlink:href="https://github.com/conda-forge/r-sf-feedstock/pull/49" xlink:title="r sf ❎">
<ellipse fill="#31688e" stroke="black" cx="1984" cy="-206" rx="40.5" ry="18"/>
<text text-anchor="middle" x="1984" y="-202.3" font-family="Times-Roman" font-size="14.00" fill="white">r sf ❎</text>
</a>
</g>
</g>
<!-- r&#45;spdep -->
<g id="node30" class="node">
<title>r&#45;spdep</title>
<g id="a_node30"><a xlink:href="https://github.com/conda-forge/r-spdep-feedstock" xlink:title="r spdep">
<ellipse fill="#fde725" stroke="black" cx="1984" cy="-134" rx="45.5" ry="18"/>
<text text-anchor="middle" x="1984" y="-130.3" font-family="Times-Roman" font-size="14.00">r spdep</text>
</a>
</g>
</g>
<!-- r&#45;sf&#45;&gt;r&#45;spdep -->
<g id="edge31" class="edge">
<title>r&#45;sf&#45;&gt;r&#45;spdep</title>
<path fill="none" stroke="black" d="M1984,-187.7C1984,-179.98 1984,-170.71 1984,-162.11"/>
<polygon fill="black" stroke="black" points="1987.5,-162.1 1984,-152.1 1980.5,-162.1 1987.5,-162.1"/>
</g>
<!-- speex -->
<g id="node31" class="node">
<title>speex</title>
<g id="a_node31"><a xlink:href="https://github.com/conda-forge/speex-feedstock/pull/7" xlink:title="speex ❎">
<ellipse fill="#31688e" stroke="black" cx="52" cy="-754" rx="52" ry="18"/>
<text text-anchor="middle" x="52" y="-750.3" font-family="Times-Roman" font-size="14.00" fill="white">speex ❎</text>
</a>
</g>
</g>
<!-- speex&#45;&gt;pulseaudio -->
<g id="edge32" class="edge">
<title>speex&#45;&gt;pulseaudio</title>
<path fill="none" stroke="black" d="M53.4,-735.9C55.42,-717.44 60.17,-687.54 71,-664 87.84,-627.42 93.85,-616.25 126,-592 149.71,-574.12 180.22,-561.46 206.24,-553.02"/>
<polygon fill="black" stroke="black" points="207.46,-556.3 215.97,-549.98 205.38,-549.62 207.46,-556.3"/>
</g>
<!-- torchvision -->
<g id="node32" class="node">
<title>torchvision</title>
<g id="a_node32"><a xlink:href="https://github.com/conda-forge/torchvision-feedstock" xlink:title="torchvision">
<ellipse fill="#fde725" stroke="black" cx="2062" cy="-538" rx="60" ry="18"/>
<text text-anchor="middle" x="2062" y="-534.3" font-family="Times-Roman" font-size="14.00">torchvision</text>
</a>
</g>
</g>
<!-- torchvision&#45;&gt;allennlp -->
<g id="edge33" class="edge">
<title>torchvision&#45;&gt;allennlp</title>
<path fill="none" stroke="black" d="M2072.65,-520.05C2077.84,-511.8 2084.19,-501.7 2089.95,-492.54"/>
<polygon fill="black" stroke="black" points="2093.09,-494.12 2095.45,-483.79 2087.16,-490.39 2093.09,-494.12"/>
</g>
<!-- grpcio&#45;gcp -->
<g id="node36" class="node">
<title>grpcio&#45;gcp</title>
<g id="a_node36"><a xlink:href="https://github.com/conda-forge/grpcio-gcp-feedstock/pull/9" xlink:title="grpcio gcp ❎">
<ellipse fill="#31688e" stroke="black" cx="1493" cy="-754" rx="73" ry="18"/>
<text text-anchor="middle" x="1493" y="-750.3" font-family="Times-Roman" font-size="14.00" fill="white">grpcio gcp ❎</text>
</a>
</g>
</g>
<!-- r&#45;grf&#45;&gt;grpcio&#45;gcp -->
<!-- pytorch&#45;cpu -->
<g id="node35" class="node">
<title>pytorch&#45;cpu</title>
<g id="a_node35"><a xlink:href="https://github.com/conda-forge/pytorch-cpu-feedstock" xlink:title="pytorch cpu">
<ellipse fill="#fde725" stroke="black" cx="2150" cy="-610" rx="64.5" ry="18"/>
<text text-anchor="middle" x="2150" y="-606.3" font-family="Times-Roman" font-size="14.00">pytorch cpu</text>
</a>
</g>
</g>
<!-- pytorch&#45;cpu&#45;&gt;torchvision -->
<g id="edge36" class="edge">
<title>pytorch&#45;cpu&#45;&gt;torchvision</title>
<path fill="none" stroke="black" d="M2129.59,-592.76C2117.93,-583.49 2103.13,-571.71 2090.35,-561.55"/>
<polygon fill="black" stroke="black" points="2092.3,-558.63 2082.3,-555.15 2087.95,-564.11 2092.3,-558.63"/>
</g>
<!-- pytorch&#45;cpu&#45;&gt;allennlp -->
<g id="edge37" class="edge">
<title>pytorch&#45;cpu&#45;&gt;allennlp</title>
<path fill="none" stroke="black" d="M2147.56,-591.96C2144.69,-573.81 2139.24,-544.4 2131,-520 2127.93,-510.9 2123.72,-501.29 2119.63,-492.8"/>
<polygon fill="black" stroke="black" points="2122.72,-491.16 2115.13,-483.77 2116.46,-494.28 2122.72,-491.16"/>
</g>
<!-- ibm_db -->
<g id="node39" class="node">
<title>ibm_db</title>
<g id="a_node39"><a xlink:href="https://github.com/conda-forge/ibm_db-feedstock/pull/27" xlink:title="ibm_db ❎">
<ellipse fill="#31688e" stroke="black" cx="1493" cy="-682" rx="58" ry="18"/>
<text text-anchor="middle" x="1493" y="-678.3" font-family="Times-Roman" font-size="14.00" fill="white">ibm_db ❎</text>
</a>
</g>
</g>
<!-- grpcio&#45;gcp&#45;&gt;ibm_db -->
<!-- vim -->
<g id="node37" class="node">
<title>vim</title>
<g id="a_node37"><a xlink:href="https://github.com/conda-forge/vim-feedstock/pull/1224" xlink:title="vim ❎">
<ellipse fill="#31688e" stroke="black" cx="669" cy="-90" rx="41.69" ry="18"/>
<text text-anchor="middle" x="669" y="-86.3" font-family="Times-Roman" font-size="14.00" fill="white">vim ❎</text>
</a>
</g>
</g>
<!-- plumed -->
<g id="node38" class="node">
<title>plumed</title>
<g id="a_node38"><a xlink:href="https://github.com/conda-forge/plumed-feedstock" xlink:title="plumed">
<ellipse fill="#fde725" stroke="black" cx="669" cy="-18" rx="45" ry="18"/>
<text text-anchor="middle" x="669" y="-14.3" font-family="Times-Roman" font-size="14.00">plumed</text>
</a>
</g>
</g>
<!-- vim&#45;&gt;plumed -->
<g id="edge39" class="edge">
<title>vim&#45;&gt;plumed</title>
<path fill="none" stroke="black" d="M669,-71.7C669,-63.98 669,-54.71 669,-46.11"/>
<polygon fill="black" stroke="black" points="672.5,-46.1 669,-36.1 665.5,-46.1 672.5,-46.1"/>
</g>
<!-- nvcc -->
<g id="node40" class="node">
<title>nvcc</title>
<g id="a_node40"><a xlink:href="https://github.com/conda-forge/nvcc-feedstock/pull/62" xlink:title="nvcc ✓">
<ellipse fill="#31688e" stroke="black" cx="1493" cy="-610" rx="42.49" ry="18"/>
<text text-anchor="middle" x="1493" y="-606.3" font-family="Times-Roman" font-size="14.00" fill="white">nvcc ✓</text>
</a>
</g>
</g>
<!-- ibm_db&#45;&gt;nvcc -->
<!-- proj -->
<g id="node46" class="node">
<title>proj</title>
<g id="a_node46"><a xlink:href="https://github.com/conda-forge/proj-feedstock" xlink:title="proj">
<ellipse fill="#35b779" stroke="black" cx="1493" cy="-538" rx="28" ry="18"/>
<text text-anchor="middle" x="1493" y="-534.3" font-family="Times-Roman" font-size="14.00">proj</text>
</a>
</g>
</g>
<!-- nvcc&#45;&gt;proj -->
<!-- cudatoolkit -->
<g id="node41" class="node">
<title>cudatoolkit</title>
<g id="a_node41"><a xlink:href="https://github.com/conda-forge/cudatoolkit-feedstock/pull/4" xlink:title="cudatoolkit ❎">
<ellipse fill="#31688e" stroke="black" cx="2001" cy="-754" rx="74.99" ry="18"/>
<text text-anchor="middle" x="2001" y="-750.3" font-family="Times-Roman" font-size="14.00" fill="white">cudatoolkit ❎</text>
</a>
</g>
</g>
<!-- cudnn -->
<g id="node42" class="node">
<title>cudnn</title>
<g id="a_node42"><a xlink:href="https://github.com/conda-forge/cudnn-feedstock" xlink:title="cudnn">
<ellipse fill="#fde725" stroke="black" cx="2054" cy="-682" rx="39" ry="18"/>
<text text-anchor="middle" x="2054" y="-678.3" font-family="Times-Roman" font-size="14.00">cudnn</text>
</a>
</g>
</g>
<!-- cudatoolkit&#45;&gt;cudnn -->
<g id="edge42" class="edge">
<title>cudatoolkit&#45;&gt;cudnn</title>
<path fill="none" stroke="black" d="M2013.83,-736.05C2020.3,-727.5 2028.28,-716.97 2035.41,-707.56"/>
<polygon fill="black" stroke="black" points="2038.41,-709.39 2041.65,-699.31 2032.83,-705.17 2038.41,-709.39"/>
</g>
<!-- cutensor -->
<g id="node43" class="node">
<title>cutensor</title>
<g id="a_node43"><a xlink:href="https://github.com/conda-forge/cutensor-feedstock" xlink:title="cutensor">
<ellipse fill="#fde725" stroke="black" cx="1947" cy="-682" rx="50.09" ry="18"/>
<text text-anchor="middle" x="1947" y="-678.3" font-family="Times-Roman" font-size="14.00">cutensor</text>
</a>
</g>
</g>
<!-- cudatoolkit&#45;&gt;cutensor -->
<g id="edge43" class="edge">
<title>cudatoolkit&#45;&gt;cutensor</title>
<path fill="none" stroke="black" d="M1987.93,-736.05C1981.43,-727.63 1973.44,-717.28 1966.26,-707.97"/>
<polygon fill="black" stroke="black" points="1968.83,-705.57 1959.95,-699.79 1963.29,-709.84 1968.83,-705.57"/>
</g>
<!-- cudnn&#45;&gt;torchvision -->
<g id="edge44" class="edge">
<title>cudnn&#45;&gt;torchvision</title>
<path fill="none" stroke="black" d="M2054.96,-663.87C2056.33,-639.67 2058.83,-595.21 2060.46,-566.39"/>
<polygon fill="black" stroke="black" points="2063.96,-566.37 2061.03,-556.19 2056.97,-565.98 2063.96,-566.37"/>
</g>
<!-- cudnn&#45;&gt;pytorch&#45;cpu -->
<g id="edge45" class="edge">
<title>cudnn&#45;&gt;pytorch&#45;cpu</title>
<path fill="none" stroke="black" d="M2073.89,-666.5C2087.11,-656.85 2104.73,-644.01 2119.68,-633.11"/>
<polygon fill="black" stroke="black" points="2122.11,-635.67 2128.13,-626.95 2117.98,-630.01 2122.11,-635.67"/>
</g>
<!-- libv8 -->
<g id="node44" class="node">
<title>libv8</title>
<g id="a_node44"><a xlink:href="https://github.com/conda-forge/libv8-feedstock/pull/66" xlink:title="libv8 ❎">
<ellipse fill="#31688e" stroke="black" cx="1493" cy="-206" rx="47" ry="18"/>
<text text-anchor="middle" x="1493" y="-202.3" font-family="Times-Roman" font-size="14.00" fill="white">libv8 ❎</text>
</a>
</g>
</g>
<!-- r&#45;v8 -->
<g id="node45" class="node">
<title>r&#45;v8</title>
<g id="a_node45"><a xlink:href="https://github.com/conda-forge/r-v8-feedstock" xlink:title="r v8">
<ellipse fill="#fde725" stroke="black" cx="1493" cy="-134" rx="28.7" ry="18"/>
<text text-anchor="middle" x="1493" y="-130.3" font-family="Times-Roman" font-size="14.00">r v8</text>
</a>
</g>
</g>
<!-- libv8&#45;&gt;r&#45;v8 -->
<g id="edge46" class="edge">
<title>libv8&#45;&gt;r&#45;v8</title>
<path fill="none" stroke="black" d="M1493,-187.7C1493,-179.98 1493,-170.71 1493,-162.11"/>
<polygon fill="black" stroke="black" points="1496.5,-162.1 1493,-152.1 1489.5,-162.1 1496.5,-162.1"/>
</g>
<!-- jaeger -->
<g id="node47" class="node">
<title>jaeger</title>
<g id="a_node47"><a xlink:href="https://github.com/conda-forge/jaeger-feedstock/pull/12" xlink:title="jaeger ❎">
<ellipse fill="#31688e" stroke="black" cx="1493" cy="-466" rx="53.5" ry="18"/>
<text text-anchor="middle" x="1493" y="-462.3" font-family="Times-Roman" font-size="14.00" fill="white">jaeger ❎</text>
</a>
</g>
</g>
<!-- proj&#45;&gt;jaeger -->
<!-- libm2k -->
<g id="node49" class="node">
<title>libm2k</title>
<g id="a_node49"><a xlink:href="https://github.com/conda-forge/libm2k-feedstock" xlink:title="libm2k">
<ellipse fill="#35b779" stroke="black" cx="1493" cy="-394" rx="41.69" ry="18"/>
<text text-anchor="middle" x="1493" y="-390.3" font-family="Times-Roman" font-size="14.00">libm2k</text>
</a>
</g>
</g>
<!-- jaeger&#45;&gt;libm2k -->
<!-- nccl -->
<g id="node48" class="node">
<title>nccl</title>
<g id="a_node48"><a xlink:href="https://github.com/conda-forge/nccl-feedstock/pull/35" xlink:title="nccl ❎">
<ellipse fill="#31688e" stroke="black" cx="2154" cy="-682" rx="43" ry="18"/>
<text text-anchor="middle" x="2154" y="-678.3" font-family="Times-Roman" font-size="14.00" fill="white">nccl ❎</text>
</a>
</g>
</g>
<!-- nccl&#45;&gt;pytorch&#45;cpu -->
<g id="edge49" class="edge">
<title>nccl&#45;&gt;pytorch&#45;cpu</title>
<path fill="none" stroke="black" d="M2153.01,-663.7C2152.57,-655.98 2152.04,-646.71 2151.55,-638.11"/>
<polygon fill="black" stroke="black" points="2155.04,-637.89 2150.98,-628.1 2148.05,-638.29 2155.04,-637.89"/>
</g>
<!-- dm&#45;tree -->
<g id="node53" class="node">
<title>dm&#45;tree</title>
<g id="a_node53"><a xlink:href="https://github.com/conda-forge/dm-tree-feedstock/pull/4" xlink:title="dm tree ❎">
<ellipse fill="#31688e" stroke="black" cx="1493" cy="-322" rx="60" ry="18"/>
<text text-anchor="middle" x="1493" y="-318.3" font-family="Times-Roman" font-size="14.00" fill="white">dm tree ❎</text>
</a>
</g>
</g>
<!-- libm2k&#45;&gt;dm&#45;tree -->
<!-- soapysdr&#45;module&#45;plutosdr -->
<g id="node50" class="node">
<title>soapysdr&#45;module&#45;plutosdr</title>
<g id="a_node50"><a xlink:href="https://github.com/conda-forge/soapysdr-module-plutosdr-feedstock" xlink:title="soapysdr module plutosdr">
<ellipse fill="#fde725" stroke="black" cx="669" cy="-134" rx="129.5" ry="18"/>
<text text-anchor="middle" x="669" y="-130.3" font-family="Times-Roman" font-size="14.00">soapysdr module plutosdr</text>
</a>
</g>
</g>
<!-- libad9361&#45;iio -->
<g id="node51" class="node">
<title>libad9361&#45;iio</title>
<g id="a_node51"><a xlink:href="https://github.com/conda-forge/libad9361-iio-feedstock" xlink:title="libad9361 iio">
<ellipse fill="#35b779" stroke="black" cx="669" cy="-206" rx="69.59" ry="18"/>
<text text-anchor="middle" x="669" y="-202.3" font-family="Times-Roman" font-size="14.00">libad9361 iio</text>
</a>
</g>
</g>
<!-- libad9361&#45;iio&#45;&gt;soapysdr&#45;module&#45;plutosdr -->
<g id="edge52" class="edge">
<title>libad9361&#45;iio&#45;&gt;soapysdr&#45;module&#45;plutosdr</title>
<path fill="none" stroke="black" d="M669,-187.7C669,-179.98 669,-170.71 669,-162.11"/>
<polygon fill="black" stroke="black" points="672.5,-162.1 669,-152.1 665.5,-162.1 672.5,-162.1"/>
</g>
<!-- tokenizers -->
<g id="node52" class="node">
<title>tokenizers</title>
<g id="a_node52"><a xlink:href="https://github.com/conda-forge/tokenizers-feedstock/pull/18" xlink:title="tokenizers ❎">
<ellipse fill="#31688e" stroke="black" cx="2250" cy="-538" rx="71.5" ry="18"/>
<text text-anchor="middle" x="2250" y="-534.3" font-family="Times-Roman" font-size="14.00" fill="white">tokenizers ❎</text>
</a>
</g>
</g>
<!-- tokenizers&#45;&gt;allennlp -->
<g id="edge53" class="edge">
<title>tokenizers&#45;&gt;allennlp</title>
<path fill="none" stroke="black" d="M2218.4,-521.64C2196.13,-510.81 2166.25,-496.29 2142.89,-484.93"/>
<polygon fill="black" stroke="black" points="2144.16,-481.66 2133.64,-480.44 2141.1,-487.96 2144.16,-481.66"/>
</g>
<!-- cramjam -->
<g id="node54" class="node">
<title>cramjam</title>
<g id="a_node54"><a xlink:href="https://github.com/conda-forge/cramjam-feedstock/pull/14" xlink:title="cramjam ❎">
<ellipse fill="#31688e" stroke="black" cx="1493" cy="-250" rx="64.5" ry="18"/>
<text text-anchor="middle" x="1493" y="-246.3" font-family="Times-Roman" font-size="14.00" fill="white">cramjam ❎</text>
</a>
</g>
</g>
<!-- dm&#45;tree&#45;&gt;cramjam -->
<!-- magma -->
<g id="node55" class="node">
<title>magma</title>
<g id="a_node55"><a xlink:href="https://github.com/conda-forge/magma-feedstock/pull/9" xlink:title="magma ✓">
<ellipse fill="#31688e" stroke="black" cx="2225" cy="-754" rx="56" ry="18"/>
<text text-anchor="middle" x="2225" y="-750.3" font-family="Times-Roman" font-size="14.00" fill="white">magma ✓</text>
</a>
</g>
</g>
<!-- magma&#45;&gt;pytorch&#45;cpu -->
<g id="edge56" class="edge">
<title>magma&#45;&gt;pytorch&#45;cpu</title>
<path fill="none" stroke="black" d="M2224.34,-735.87C2222.97,-717.13 2218.76,-686.73 2206,-664 2199.6,-652.6 2189.93,-642.19 2180.42,-633.66"/>
<polygon fill="black" stroke="black" points="2182.43,-630.78 2172.55,-626.97 2177.9,-636.11 2182.43,-630.78"/>
</g>
</g>
</svg>
