<?xml version="1.0" encoding="UTF-8" standalone="no"?>
<!DOCTYPE svg PUBLIC "-//W3C//DTD SVG 1.1//EN"
 "http://www.w3.org/Graphics/SVG/1.1/DTD/svg11.dtd">
<!-- Generated by graphviz version 2.47.3 (20210619.2315)
 -->
<!-- Pages: 1 -->
<svg width="2386pt" height="952pt"
 viewBox="0.00 0.00 2386.00 952.00" xmlns="http://www.w3.org/2000/svg" xmlns:xlink="http://www.w3.org/1999/xlink">
<g id="graph0" class="graph" transform="scale(1 1) rotate(0) translate(4 948)">
<polygon fill="white" stroke="transparent" points="-4,4 -4,-948 2382,-948 2382,4 -4,4"/>
<!-- aioeasywebdav -->
<g id="node1" class="node">
<title>aioeasywebdav</title>
<g id="a_node1"><a xlink:href="https://github.com/conda-forge/aioeasywebdav-feedstock/pull/10" xlink:title="aioeasywebdav ✓">
<ellipse fill="#31688e" stroke="black" cx="2289.5" cy="-926" rx="88.5" ry="18"/>
<text text-anchor="middle" x="2289.5" y="-922.3" font-family="Times,serif" font-size="14.00" fill="white">aioeasywebdav ✓</text>
</a>
</g>
</g>
<!-- pythran -->
<g id="node2" class="node">
<title>pythran</title>
<g id="a_node2"><a xlink:href="https://github.com/conda-forge/pythran-feedstock/pull/50" xlink:title="pythran ❎">
<ellipse fill="#31688e" stroke="black" cx="2289.5" cy="-854" rx="61.99" ry="18"/>
<text text-anchor="middle" x="2289.5" y="-850.3" font-family="Times,serif" font-size="14.00" fill="white">pythran ❎</text>
</a>
</g>
</g>
<!-- aioeasywebdav&#45;&gt;pythran -->
<!-- root_numpy -->
<g id="node35" class="node">
<title>root_numpy</title>
<g id="a_node35"><a xlink:href="https://github.com/conda-forge/root_numpy-feedstock/pull/25" xlink:title="root_numpy ❎">
<ellipse fill="#31688e" stroke="black" cx="2289.5" cy="-782" rx="80" ry="18"/>
<text text-anchor="middle" x="2289.5" y="-778.3" font-family="Times,serif" font-size="14.00" fill="white">root_numpy ❎</text>
</a>
</g>
</g>
<!-- pythran&#45;&gt;root_numpy -->
<!-- check -->
<g id="node3" class="node">
<title>check</title>
<g id="a_node3"><a xlink:href="https://github.com/conda-forge/check-feedstock/pull/19" xlink:title="check ❎">
<ellipse fill="#31688e" stroke="black" cx="51.5" cy="-566" rx="51.5" ry="18"/>
<text text-anchor="middle" x="51.5" y="-562.3" font-family="Times,serif" font-size="14.00" fill="white">check ❎</text>
</a>
</g>
</g>
<!-- pulseaudio -->
<g id="node4" class="node">
<title>pulseaudio</title>
<g id="a_node4"><a xlink:href="https://github.com/conda-forge/pulseaudio-feedstock" xlink:title="pulseaudio">
<ellipse fill="#fde725" stroke="black" cx="126.5" cy="-494" rx="61.19" ry="18"/>
<text text-anchor="middle" x="126.5" y="-490.3" font-family="Times,serif" font-size="14.00">pulseaudio</text>
</a>
</g>
</g>
<!-- check&#45;&gt;pulseaudio -->
<g id="edge2" class="edge">
<title>check&#45;&gt;pulseaudio</title>
<path fill="none" stroke="black" d="M68.9,-548.76C78.58,-539.73 90.79,-528.33 101.48,-518.35"/>
<polygon fill="black" stroke="black" points="104.02,-520.77 108.94,-511.39 99.24,-515.65 104.02,-520.77"/>
</g>
<!-- gqrx -->
<g id="node5" class="node">
<title>gqrx</title>
<g id="a_node5"><a xlink:href="https://github.com/conda-forge/gqrx-feedstock" xlink:title="gqrx">
<ellipse fill="#fde725" stroke="black" cx="255.5" cy="-422" rx="32.5" ry="18"/>
<text text-anchor="middle" x="255.5" y="-418.3" font-family="Times,serif" font-size="14.00">gqrx</text>
</a>
</g>
</g>
<!-- pulseaudio&#45;&gt;gqrx -->
<g id="edge3" class="edge">
<title>pulseaudio&#45;&gt;gqrx</title>
<path fill="none" stroke="black" d="M154.49,-477.81C175.02,-466.67 202.9,-451.54 224.17,-440"/>
<polygon fill="black" stroke="black" points="226.01,-442.98 233.13,-435.14 222.67,-436.83 226.01,-442.98"/>
</g>
<!-- cherrypy -->
<g id="node6" class="node">
<title>cherrypy</title>
<g id="a_node6"><a xlink:href="https://github.com/conda-forge/cherrypy-feedstock" xlink:title="cherrypy">
<ellipse fill="#fde725" stroke="black" cx="2086.5" cy="-494" rx="52" ry="18"/>
<text text-anchor="middle" x="2086.5" y="-490.3" font-family="Times,serif" font-size="14.00">cherrypy</text>
</a>
</g>
</g>
<!-- allennlp -->
<g id="node7" class="node">
<title>allennlp</title>
<g id="a_node7"><a xlink:href="https://github.com/conda-forge/allennlp-feedstock" xlink:title="allennlp">
<ellipse fill="#fde725" stroke="black" cx="1813.5" cy="-422" rx="48.19" ry="18"/>
<text text-anchor="middle" x="1813.5" y="-418.3" font-family="Times,serif" font-size="14.00">allennlp</text>
</a>
</g>
</g>
<!-- cherrypy&#45;&gt;allennlp -->
<g id="edge4" class="edge">
<title>cherrypy&#45;&gt;allennlp</title>
<path fill="none" stroke="black" d="M2045.92,-482.6C1996.81,-470 1914.18,-448.82 1861.82,-435.39"/>
<polygon fill="black" stroke="black" points="1862.65,-431.99 1852.09,-432.89 1860.91,-438.77 1862.65,-431.99"/>
</g>
<!-- hyperspy -->
<g id="node8" class="node">
<title>hyperspy</title>
<g id="a_node8"><a xlink:href="https://github.com/conda-forge/hyperspy-feedstock" xlink:title="hyperspy">
<ellipse fill="#fde725" stroke="black" cx="661.5" cy="-638" rx="54" ry="18"/>
<text text-anchor="middle" x="661.5" y="-634.3" font-family="Times,serif" font-size="14.00">hyperspy</text>
</a>
</g>
</g>
<!-- intltool -->
<g id="node9" class="node">
<title>intltool</title>
<g id="a_node9"><a xlink:href="https://github.com/conda-forge/intltool-feedstock/pull/5" xlink:title="intltool ❎">
<ellipse fill="#31688e" stroke="black" cx="645.5" cy="-162" rx="58" ry="18"/>
<text text-anchor="middle" x="645.5" y="-158.3" font-family="Times,serif" font-size="14.00" fill="white">intltool ❎</text>
</a>
</g>
</g>
<!-- libsecret -->
<g id="node10" class="node">
<title>libsecret</title>
<g id="a_node10"><a xlink:href="https://github.com/conda-forge/libsecret-feedstock" xlink:title="libsecret">
<ellipse fill="#fde725" stroke="black" cx="645.5" cy="-90" rx="51.5" ry="18"/>
<text text-anchor="middle" x="645.5" y="-86.3" font-family="Times,serif" font-size="14.00">libsecret</text>
</a>
</g>
</g>
<!-- intltool&#45;&gt;libsecret -->
<g id="edge5" class="edge">
<title>intltool&#45;&gt;libsecret</title>
<path fill="none" stroke="black" d="M645.5,-143.7C645.5,-135.98 645.5,-126.71 645.5,-118.11"/>
<polygon fill="black" stroke="black" points="649,-118.1 645.5,-108.1 642,-118.1 649,-118.1"/>
</g>
<!-- oidc&#45;agent -->
<g id="node11" class="node">
<title>oidc&#45;agent</title>
<g id="a_node11"><a xlink:href="https://github.com/conda-forge/oidc-agent-feedstock" xlink:title="oidc agent">
<ellipse fill="#fde725" stroke="black" cx="645.5" cy="-18" rx="59.29" ry="18"/>
<text text-anchor="middle" x="645.5" y="-14.3" font-family="Times,serif" font-size="14.00">oidc agent</text>
</a>
</g>
</g>
<!-- libsecret&#45;&gt;oidc&#45;agent -->
<g id="edge6" class="edge">
<title>libsecret&#45;&gt;oidc&#45;agent</title>
<path fill="none" stroke="black" d="M645.5,-71.7C645.5,-63.98 645.5,-54.71 645.5,-46.11"/>
<polygon fill="black" stroke="black" points="649,-46.1 645.5,-36.1 642,-46.1 649,-46.1"/>
</g>
<!-- libunwind -->
<g id="node12" class="node">
<title>libunwind</title>
<g id="a_node12"><a xlink:href="https://github.com/conda-forge/libunwind-feedstock/pull/14" xlink:title="libunwind ❎">
<ellipse fill="#31688e" stroke="black" cx="1409.5" cy="-638" rx="71" ry="18"/>
<text text-anchor="middle" x="1409.5" y="-634.3" font-family="Times,serif" font-size="14.00" fill="white">libunwind ❎</text>
</a>
</g>
</g>
<!-- gperftools -->
<g id="node13" class="node">
<title>gperftools</title>
<g id="a_node13"><a xlink:href="https://github.com/conda-forge/gperftools-feedstock" xlink:title="gperftools">
<ellipse fill="#fde725" stroke="black" cx="1505.5" cy="-566" rx="58" ry="18"/>
<text text-anchor="middle" x="1505.5" y="-562.3" font-family="Times,serif" font-size="14.00">gperftools</text>
</a>
</g>
</g>
<!-- libunwind&#45;&gt;gperftools -->
<g id="edge7" class="edge">
<title>libunwind&#45;&gt;gperftools</title>
<path fill="none" stroke="black" d="M1431.77,-620.76C1444.7,-611.33 1461.18,-599.32 1475.27,-589.04"/>
<polygon fill="black" stroke="black" points="1477.67,-591.63 1483.69,-582.91 1473.54,-585.97 1477.67,-591.63"/>
</g>
<!-- py&#45;spy -->
<g id="node14" class="node">
<title>py&#45;spy</title>
<g id="a_node14"><a xlink:href="https://github.com/conda-forge/py-spy-feedstock" xlink:title="py spy">
<ellipse fill="#fde725" stroke="black" cx="1340.5" cy="-494" rx="41" ry="18"/>
<text text-anchor="middle" x="1340.5" y="-490.3" font-family="Times,serif" font-size="14.00">py spy</text>
</a>
</g>
</g>
<!-- libunwind&#45;&gt;py&#45;spy -->
<g id="edge8" class="edge">
<title>libunwind&#45;&gt;py&#45;spy</title>
<path fill="none" stroke="black" d="M1401.18,-619.87C1389.2,-595.22 1367,-549.54 1353.03,-520.79"/>
<polygon fill="black" stroke="black" points="1356.16,-519.21 1348.64,-511.75 1349.86,-522.27 1356.16,-519.21"/>
</g>
<!-- heaptrack -->
<g id="node15" class="node">
<title>heaptrack</title>
<g id="a_node15"><a xlink:href="https://github.com/conda-forge/heaptrack-feedstock" xlink:title="heaptrack">
<ellipse fill="#fde725" stroke="black" cx="1409.5" cy="-422" rx="57.39" ry="18"/>
<text text-anchor="middle" x="1409.5" y="-418.3" font-family="Times,serif" font-size="14.00">heaptrack</text>
</a>
</g>
</g>
<!-- libunwind&#45;&gt;heaptrack -->
<g id="edge9" class="edge">
<title>libunwind&#45;&gt;heaptrack</title>
<path fill="none" stroke="black" d="M1409.5,-619.85C1409.5,-582.83 1409.5,-495.18 1409.5,-450.39"/>
<polygon fill="black" stroke="black" points="1413,-450.23 1409.5,-440.23 1406,-450.23 1413,-450.23"/>
</g>
<!-- sentencepiece -->
<g id="node16" class="node">
<title>sentencepiece</title>
<g id="a_node16"><a xlink:href="https://github.com/conda-forge/sentencepiece-feedstock" xlink:title="sentencepiece">
<ellipse fill="#fde725" stroke="black" cx="1514.5" cy="-494" rx="76.89" ry="18"/>
<text text-anchor="middle" x="1514.5" y="-490.3" font-family="Times,serif" font-size="14.00">sentencepiece</text>
</a>
</g>
</g>
<!-- gperftools&#45;&gt;sentencepiece -->
<g id="edge10" class="edge">
<title>gperftools&#45;&gt;sentencepiece</title>
<path fill="none" stroke="black" d="M1507.72,-547.7C1508.72,-539.98 1509.91,-530.71 1511.01,-522.11"/>
<polygon fill="black" stroke="black" points="1514.5,-522.47 1512.3,-512.1 1507.55,-521.58 1514.5,-522.47"/>
</g>
<!-- sentencepiece&#45;&gt;allennlp -->
<g id="edge37" class="edge">
<title>sentencepiece&#45;&gt;allennlp</title>
<path fill="none" stroke="black" d="M1566.92,-480.73C1622.42,-467.73 1709.37,-447.38 1763.81,-434.63"/>
<polygon fill="black" stroke="black" points="1764.64,-438.03 1773.58,-432.35 1763.05,-431.22 1764.64,-438.03"/>
</g>
<!-- pyqt -->
<g id="node17" class="node">
<title>pyqt</title>
<g id="a_node17"><a xlink:href="https://github.com/conda-forge/pyqt-feedstock" xlink:title="pyqt">
<ellipse fill="#fde725" stroke="black" cx="655.5" cy="-710" rx="32" ry="18"/>
<text text-anchor="middle" x="655.5" y="-706.3" font-family="Times,serif" font-size="14.00">pyqt</text>
</a>
</g>
</g>
<!-- pyqt&#45;&gt;hyperspy -->
<g id="edge11" class="edge">
<title>pyqt&#45;&gt;hyperspy</title>
<path fill="none" stroke="black" d="M656.98,-691.7C657.64,-683.98 658.44,-674.71 659.18,-666.11"/>
<polygon fill="black" stroke="black" points="662.67,-666.37 660.03,-656.1 655.69,-665.77 662.67,-666.37"/>
</g>
<!-- gnuradio -->
<g id="node18" class="node">
<title>gnuradio</title>
<g id="a_node18"><a xlink:href="https://github.com/conda-forge/gnuradio-feedstock" xlink:title="gnuradio">
<ellipse fill="#fde725" stroke="black" cx="499.5" cy="-638" rx="52" ry="18"/>
<text text-anchor="middle" x="499.5" y="-634.3" font-family="Times,serif" font-size="14.00">gnuradio</text>
</a>
</g>
</g>
<!-- pyqt&#45;&gt;gnuradio -->
<g id="edge12" class="edge">
<title>pyqt&#45;&gt;gnuradio</title>
<path fill="none" stroke="black" d="M631.12,-698.06C606.57,-687.04 568.26,-669.85 539.29,-656.85"/>
<polygon fill="black" stroke="black" points="540.41,-653.52 529.86,-652.62 537.55,-659.91 540.41,-653.52"/>
</g>
<!-- pythonocc&#45;core -->
<g id="node19" class="node">
<title>pythonocc&#45;core</title>
<g id="a_node19"><a xlink:href="https://github.com/conda-forge/pythonocc-core-feedstock" xlink:title="pythonocc core">
<ellipse fill="#fde725" stroke="black" cx="646.5" cy="-566" rx="81.49" ry="18"/>
<text text-anchor="middle" x="646.5" y="-562.3" font-family="Times,serif" font-size="14.00">pythonocc core</text>
</a>
</g>
</g>
<!-- pyqt&#45;&gt;pythonocc&#45;core -->
<g id="edge13" class="edge">
<title>pyqt&#45;&gt;pythonocc&#45;core</title>
<path fill="none" stroke="black" d="M634.51,-696.09C621.47,-686.75 605.84,-672.85 598.5,-656 592.11,-641.33 592.74,-634.93 598.5,-620 602.71,-609.09 610.31,-599.04 618.25,-590.68"/>
<polygon fill="black" stroke="black" points="620.86,-593.02 625.54,-583.52 615.96,-588.03 620.86,-593.02"/>
</g>
<!-- gnuradio&#45;&gt;gqrx -->
<g id="edge14" class="edge">
<title>gnuradio&#45;&gt;gqrx</title>
<path fill="none" stroke="black" d="M495.55,-619.89C486.64,-582.71 464.07,-496.23 442.5,-476 431.63,-465.8 346.65,-444.43 295.07,-432.17"/>
<polygon fill="black" stroke="black" points="295.76,-428.74 285.23,-429.84 294.15,-435.55 295.76,-428.74"/>
</g>
<!-- digital_rf -->
<g id="node20" class="node">
<title>digital_rf</title>
<g id="a_node20"><a xlink:href="https://github.com/conda-forge/digital_rf-feedstock" xlink:title="digital_rf">
<ellipse fill="#fde725" stroke="black" cx="380.5" cy="-566" rx="52.79" ry="18"/>
<text text-anchor="middle" x="380.5" y="-562.3" font-family="Times,serif" font-size="14.00">digital_rf</text>
</a>
</g>
</g>
<!-- gnuradio&#45;&gt;digital_rf -->
<g id="edge15" class="edge">
<title>gnuradio&#45;&gt;digital_rf</title>
<path fill="none" stroke="black" d="M474.26,-622.15C456.83,-611.9 433.44,-598.14 414.39,-586.93"/>
<polygon fill="black" stroke="black" points="416.09,-583.88 405.7,-581.82 412.55,-589.91 416.09,-583.88"/>
</g>
<!-- gnuradio&#45;osmosdr -->
<g id="node21" class="node">
<title>gnuradio&#45;osmosdr</title>
<g id="a_node21"><a xlink:href="https://github.com/conda-forge/gnuradio-osmosdr-feedstock" xlink:title="gnuradio osmosdr">
<ellipse fill="#fde725" stroke="black" cx="338.5" cy="-494" rx="95" ry="18"/>
<text text-anchor="middle" x="338.5" y="-490.3" font-family="Times,serif" font-size="14.00">gnuradio osmosdr</text>
</a>
</g>
</g>
<!-- gnuradio&#45;&gt;gnuradio&#45;osmosdr -->
<g id="edge16" class="edge">
<title>gnuradio&#45;&gt;gnuradio&#45;osmosdr</title>
<path fill="none" stroke="black" d="M452.85,-629.79C404.78,-621.29 334.65,-605.55 318.5,-584 304.87,-565.81 312.81,-540.04 322.42,-520.91"/>
<polygon fill="black" stroke="black" points="325.5,-522.58 327.18,-512.12 319.34,-519.24 325.5,-522.58"/>
</g>
<!-- gnuradio&#45;soapy -->
<g id="node22" class="node">
<title>gnuradio&#45;soapy</title>
<g id="a_node22"><a xlink:href="https://github.com/conda-forge/gnuradio-soapy-feedstock" xlink:title="gnuradio soapy">
<ellipse fill="#fde725" stroke="black" cx="427.5" cy="-422" rx="82" ry="18"/>
<text text-anchor="middle" x="427.5" y="-418.3" font-family="Times,serif" font-size="14.00">gnuradio soapy</text>
</a>
</g>
</g>
<!-- gnuradio&#45;&gt;gnuradio&#45;soapy -->
<g id="edge17" class="edge">
<title>gnuradio&#45;&gt;gnuradio&#45;soapy</title>
<path fill="none" stroke="black" d="M500.12,-619.61C500.54,-589.03 498.34,-524.28 475.5,-476 470.46,-465.35 462.56,-455.31 454.61,-446.89"/>
<polygon fill="black" stroke="black" points="456.92,-444.25 447.37,-439.64 451.96,-449.19 456.92,-444.25"/>
</g>
<!-- gnuradio&#45;satellites -->
<g id="node23" class="node">
<title>gnuradio&#45;satellites</title>
<g id="a_node23"><a xlink:href="https://github.com/conda-forge/gnuradio-satellites-feedstock" xlink:title="gnuradio satellites">
<ellipse fill="#fde725" stroke="black" cx="537.5" cy="-350" rx="97.5" ry="18"/>
<text text-anchor="middle" x="537.5" y="-346.3" font-family="Times,serif" font-size="14.00">gnuradio satellites</text>
</a>
</g>
</g>
<!-- gnuradio&#45;&gt;gnuradio&#45;satellites -->
<g id="edge18" class="edge">
<title>gnuradio&#45;&gt;gnuradio&#45;satellites</title>
<path fill="none" stroke="black" d="M503.88,-619.91C506.4,-609.57 509.46,-596.09 511.5,-584 523.97,-510 531.96,-421.73 535.46,-378.13"/>
<polygon fill="black" stroke="black" points="538.96,-378.29 536.25,-368.05 531.98,-377.74 538.96,-378.29"/>
</g>
<!-- gnuradio&#45;osmosdr&#45;&gt;gqrx -->
<g id="edge54" class="edge">
<title>gnuradio&#45;osmosdr&#45;&gt;gqrx</title>
<path fill="none" stroke="black" d="M318.41,-476.05C307.03,-466.46 292.68,-454.36 280.57,-444.14"/>
<polygon fill="black" stroke="black" points="282.5,-441.2 272.6,-437.42 277.99,-446.55 282.5,-441.2"/>
</g>
<!-- qt -->
<g id="node24" class="node">
<title>qt</title>
<g id="a_node24"><a xlink:href="https://github.com/conda-forge/qt-feedstock/pull/184" xlink:title="qt ❎">
<ellipse fill="#31688e" stroke="black" cx="743.5" cy="-782" rx="34.5" ry="18"/>
<text text-anchor="middle" x="743.5" y="-778.3" font-family="Times,serif" font-size="14.00" fill="white">qt ❎</text>
</a>
</g>
</g>
<!-- qt&#45;&gt;gqrx -->
<g id="edge27" class="edge">
<title>qt&#45;&gt;gqrx</title>
<path fill="none" stroke="black" d="M709.26,-779.22C592.26,-772.2 215.5,-741.64 215.5,-639 215.5,-639 215.5,-639 215.5,-565 215.5,-523.26 231.71,-477.11 243.5,-449.08"/>
<polygon fill="black" stroke="black" points="246.83,-450.19 247.6,-439.62 240.41,-447.4 246.83,-450.19"/>
</g>
<!-- qt&#45;&gt;pyqt -->
<g id="edge19" class="edge">
<title>qt&#45;&gt;pyqt</title>
<path fill="none" stroke="black" d="M725.27,-766.5C712.56,-756.39 695.42,-742.75 681.31,-731.53"/>
<polygon fill="black" stroke="black" points="683.41,-728.73 673.41,-725.25 679.06,-734.21 683.41,-728.73"/>
</g>
<!-- qt&#45;&gt;gnuradio -->
<g id="edge20" class="edge">
<title>qt&#45;&gt;gnuradio</title>
<path fill="none" stroke="black" d="M715.05,-771.8C688.21,-762.55 647.3,-746.97 614.5,-728 581.41,-708.87 547.23,-681.23 524.83,-661.85"/>
<polygon fill="black" stroke="black" points="526.97,-659.06 517.14,-655.11 522.35,-664.33 526.97,-659.06"/>
</g>
<!-- qwt -->
<g id="node25" class="node">
<title>qwt</title>
<g id="a_node25"><a xlink:href="https://github.com/conda-forge/qwt-feedstock" xlink:title="qwt">
<ellipse fill="#fde725" stroke="black" cx="505.5" cy="-710" rx="28.7" ry="18"/>
<text text-anchor="middle" x="505.5" y="-706.3" font-family="Times,serif" font-size="14.00">qwt</text>
</a>
</g>
</g>
<!-- qt&#45;&gt;qwt -->
<g id="edge21" class="edge">
<title>qt&#45;&gt;qwt</title>
<path fill="none" stroke="black" d="M713.84,-772.28C669.84,-759.34 587.44,-735.1 540.53,-721.3"/>
<polygon fill="black" stroke="black" points="541.39,-717.91 530.81,-718.44 539.42,-724.62 541.39,-717.91"/>
</g>
<!-- pivy -->
<g id="node26" class="node">
<title>pivy</title>
<g id="a_node26"><a xlink:href="https://github.com/conda-forge/pivy-feedstock" xlink:title="pivy">
<ellipse fill="#fde725" stroke="black" cx="776.5" cy="-566" rx="30.59" ry="18"/>
<text text-anchor="middle" x="776.5" y="-562.3" font-family="Times,serif" font-size="14.00">pivy</text>
</a>
</g>
</g>
<!-- qt&#45;&gt;pivy -->
<g id="edge22" class="edge">
<title>qt&#45;&gt;pivy</title>
<path fill="none" stroke="black" d="M744.72,-763.96C747,-734.44 752.62,-671.98 762.5,-620 764.12,-611.45 766.37,-602.25 768.59,-593.96"/>
<polygon fill="black" stroke="black" points="772.04,-594.62 771.34,-584.05 765.3,-592.75 772.04,-594.62"/>
</g>
<!-- pyside2 -->
<g id="node27" class="node">
<title>pyside2</title>
<g id="a_node27"><a xlink:href="https://github.com/conda-forge/pyside2-feedstock" xlink:title="pyside2">
<ellipse fill="#fde725" stroke="black" cx="898.5" cy="-638" rx="47" ry="18"/>
<text text-anchor="middle" x="898.5" y="-634.3" font-family="Times,serif" font-size="14.00">pyside2</text>
</a>
</g>
</g>
<!-- qt&#45;&gt;pyside2 -->
<g id="edge23" class="edge">
<title>qt&#45;&gt;pyside2</title>
<path fill="none" stroke="black" d="M759.79,-766.07C786.88,-741.26 841.35,-691.36 873.38,-662.01"/>
<polygon fill="black" stroke="black" points="876,-664.36 881.01,-655.02 871.27,-659.2 876,-664.36"/>
</g>
<!-- soqt -->
<g id="node28" class="node">
<title>soqt</title>
<g id="a_node28"><a xlink:href="https://github.com/conda-forge/soqt-feedstock" xlink:title="soqt">
<ellipse fill="#fde725" stroke="black" cx="802.5" cy="-638" rx="30.59" ry="18"/>
<text text-anchor="middle" x="802.5" y="-634.3" font-family="Times,serif" font-size="14.00">soqt</text>
</a>
</g>
</g>
<!-- qt&#45;&gt;soqt -->
<g id="edge24" class="edge">
<title>qt&#45;&gt;soqt</title>
<path fill="none" stroke="black" d="M750.5,-764.15C760.66,-739.71 779.58,-694.17 791.58,-665.29"/>
<polygon fill="black" stroke="black" points="794.9,-666.4 795.51,-655.82 788.44,-663.72 794.9,-666.4"/>
</g>
<!-- freecad -->
<g id="node29" class="node">
<title>freecad</title>
<g id="a_node29"><a xlink:href="https://github.com/conda-forge/freecad-feedstock" xlink:title="freecad">
<ellipse fill="#fde725" stroke="black" cx="918.5" cy="-494" rx="45.5" ry="18"/>
<text text-anchor="middle" x="918.5" y="-490.3" font-family="Times,serif" font-size="14.00">freecad</text>
</a>
</g>
</g>
<!-- qt&#45;&gt;freecad -->
<g id="edge25" class="edge">
<title>qt&#45;&gt;freecad</title>
<path fill="none" stroke="black" d="M776.23,-776.19C865.85,-762.28 1111.71,-718.96 1158.5,-656 1177.09,-630.98 1143.75,-553.97 1137.5,-548 1113.94,-525.51 1028.39,-509.86 971.45,-501.66"/>
<polygon fill="black" stroke="black" points="971.91,-498.19 961.52,-500.26 970.93,-505.12 971.91,-498.19"/>
</g>
<!-- geant4 -->
<g id="node30" class="node">
<title>geant4</title>
<g id="a_node30"><a xlink:href="https://github.com/conda-forge/geant4-feedstock" xlink:title="geant4">
<ellipse fill="#fde725" stroke="black" cx="1248.5" cy="-566" rx="43" ry="18"/>
<text text-anchor="middle" x="1248.5" y="-562.3" font-family="Times,serif" font-size="14.00">geant4</text>
</a>
</g>
</g>
<!-- qt&#45;&gt;geant4 -->
<g id="edge26" class="edge">
<title>qt&#45;&gt;geant4</title>
<path fill="none" stroke="black" d="M778.13,-781.47C871.89,-782.06 1127.87,-778.85 1191.5,-728 1232.51,-695.23 1244.06,-630.8 1247.28,-594.16"/>
<polygon fill="black" stroke="black" points="1250.77,-594.41 1248.01,-584.18 1243.79,-593.9 1250.77,-594.41"/>
</g>
<!-- qwt&#45;&gt;gnuradio -->
<g id="edge28" class="edge">
<title>qwt&#45;&gt;gnuradio</title>
<path fill="none" stroke="black" d="M504.02,-691.7C503.36,-683.98 502.56,-674.71 501.82,-666.11"/>
<polygon fill="black" stroke="black" points="505.31,-665.77 500.97,-656.1 498.33,-666.37 505.31,-665.77"/>
</g>
<!-- pivy&#45;&gt;freecad -->
<g id="edge29" class="edge">
<title>pivy&#45;&gt;freecad</title>
<path fill="none" stroke="black" d="M799.31,-553.75C821.59,-542.77 855.84,-525.89 881.92,-513.03"/>
<polygon fill="black" stroke="black" points="883.7,-516.06 891.12,-508.5 880.61,-509.78 883.7,-516.06"/>
</g>
<!-- pyside2&#45;&gt;pivy -->
<g id="edge30" class="edge">
<title>pyside2&#45;&gt;pivy</title>
<path fill="none" stroke="black" d="M873.52,-622.67C854.08,-611.52 827.06,-596.01 806.46,-584.19"/>
<polygon fill="black" stroke="black" points="808.2,-581.15 797.79,-579.21 804.72,-587.23 808.2,-581.15"/>
</g>
<!-- pyside2&#45;&gt;freecad -->
<g id="edge31" class="edge">
<title>pyside2&#45;&gt;freecad</title>
<path fill="none" stroke="black" d="M880.4,-621.3C870.7,-611.65 859.7,-598.4 854.5,-584 849.07,-568.95 847.69,-562.48 854.5,-548 860.82,-534.55 872.42,-523.35 884.02,-514.76"/>
<polygon fill="black" stroke="black" points="886.16,-517.53 892.39,-508.97 882.18,-511.77 886.16,-517.53"/>
</g>
<!-- cctbx&#45;base -->
<g id="node31" class="node">
<title>cctbx&#45;base</title>
<g id="a_node31"><a xlink:href="https://github.com/conda-forge/cctbx-base-feedstock" xlink:title="cctbx base">
<ellipse fill="#fde725" stroke="black" cx="1051.5" cy="-566" rx="60" ry="18"/>
<text text-anchor="middle" x="1051.5" y="-562.3" font-family="Times,serif" font-size="14.00">cctbx base</text>
</a>
</g>
</g>
<!-- pyside2&#45;&gt;cctbx&#45;base -->
<g id="edge32" class="edge">
<title>pyside2&#45;&gt;cctbx&#45;base</title>
<path fill="none" stroke="black" d="M927.64,-623.67C951.19,-612.89 984.62,-597.6 1010.81,-585.62"/>
<polygon fill="black" stroke="black" points="1012.46,-588.71 1020.1,-581.37 1009.55,-582.34 1012.46,-588.71"/>
</g>
<!-- soqt&#45;&gt;pivy -->
<g id="edge33" class="edge">
<title>soqt&#45;&gt;pivy</title>
<path fill="none" stroke="black" d="M796.21,-620.05C793.24,-612.06 789.62,-602.33 786.31,-593.4"/>
<polygon fill="black" stroke="black" points="789.5,-591.94 782.74,-583.79 782.94,-594.38 789.5,-591.94"/>
</g>
<!-- speex -->
<g id="node32" class="node">
<title>speex</title>
<g id="a_node32"><a xlink:href="https://github.com/conda-forge/speex-feedstock/pull/7" xlink:title="speex ❎">
<ellipse fill="#31688e" stroke="black" cx="131.5" cy="-638" rx="52" ry="18"/>
<text text-anchor="middle" x="131.5" y="-634.3" font-family="Times,serif" font-size="14.00" fill="white">speex ❎</text>
</a>
</g>
</g>
<!-- speex&#45;&gt;pulseaudio -->
<g id="edge34" class="edge">
<title>speex&#45;&gt;pulseaudio</title>
<path fill="none" stroke="black" d="M130.9,-619.87C130.04,-595.67 128.48,-551.21 127.46,-522.39"/>
<polygon fill="black" stroke="black" points="130.96,-522.06 127.11,-512.19 123.96,-522.31 130.96,-522.06"/>
</g>
<!-- torchvision -->
<g id="node33" class="node">
<title>torchvision</title>
<g id="a_node33"><a xlink:href="https://github.com/conda-forge/torchvision-feedstock" xlink:title="torchvision">
<ellipse fill="#fde725" stroke="black" cx="1671.5" cy="-494" rx="62.5" ry="18"/>
<text text-anchor="middle" x="1671.5" y="-490.3" font-family="Times,serif" font-size="14.00">torchvision</text>
</a>
</g>
</g>
<!-- torchvision&#45;&gt;allennlp -->
<g id="edge35" class="edge">
<title>torchvision&#45;&gt;allennlp</title>
<path fill="none" stroke="black" d="M1701.61,-478.15C1723.37,-467.43 1752.89,-452.88 1776.14,-441.42"/>
<polygon fill="black" stroke="black" points="1777.94,-444.43 1785.36,-436.87 1774.84,-438.15 1777.94,-444.43"/>
</g>
<!-- smesh -->
<g id="node34" class="node">
<title>smesh</title>
<g id="a_node34"><a xlink:href="https://github.com/conda-forge/smesh-feedstock/pull/48" xlink:title="smesh ❎">
<ellipse fill="#31688e" stroke="black" cx="918.5" cy="-566" rx="54.69" ry="18"/>
<text text-anchor="middle" x="918.5" y="-562.3" font-family="Times,serif" font-size="14.00" fill="white">smesh ❎</text>
</a>
</g>
</g>
<!-- smesh&#45;&gt;freecad -->
<g id="edge36" class="edge">
<title>smesh&#45;&gt;freecad</title>
<path fill="none" stroke="black" d="M918.5,-547.7C918.5,-539.98 918.5,-530.71 918.5,-522.11"/>
<polygon fill="black" stroke="black" points="922,-522.1 918.5,-512.1 915,-522.1 922,-522.1"/>
</g>
<!-- ibm_db -->
<g id="node36" class="node">
<title>ibm_db</title>
<g id="a_node36"><a xlink:href="https://github.com/conda-forge/ibm_db-feedstock/pull/33" xlink:title="ibm_db ❎">
<ellipse fill="#31688e" stroke="black" cx="2289.5" cy="-710" rx="58.5" ry="18"/>
<text text-anchor="middle" x="2289.5" y="-706.3" font-family="Times,serif" font-size="14.00" fill="white">ibm_db ❎</text>
</a>
</g>
</g>
<!-- root_numpy&#45;&gt;ibm_db -->
<!-- nvcc -->
<g id="node39" class="node">
<title>nvcc</title>
<g id="a_node39"><a xlink:href="https://github.com/conda-forge/nvcc-feedstock/pull/67" xlink:title="nvcc ✓">
<ellipse fill="#31688e" stroke="black" cx="2289.5" cy="-638" rx="39" ry="18"/>
<text text-anchor="middle" x="2289.5" y="-634.3" font-family="Times,serif" font-size="14.00" fill="white">nvcc ✓</text>
</a>
</g>
</g>
<!-- ibm_db&#45;&gt;nvcc -->
<!-- pytorch&#45;cpu -->
<g id="node37" class="node">
<title>pytorch&#45;cpu</title>
<g id="a_node37"><a xlink:href="https://github.com/conda-forge/pytorch-cpu-feedstock" xlink:title="pytorch cpu">
<ellipse fill="#fde725" stroke="black" cx="1762.5" cy="-566" rx="65.79" ry="18"/>
<text text-anchor="middle" x="1762.5" y="-562.3" font-family="Times,serif" font-size="14.00">pytorch cpu</text>
</a>
</g>
</g>
<!-- pytorch&#45;cpu&#45;&gt;allennlp -->
<g id="edge40" class="edge">
<title>pytorch&#45;cpu&#45;&gt;allennlp</title>
<path fill="none" stroke="black" d="M1764.45,-547.78C1766.91,-529.48 1772.03,-499.95 1781.5,-476 1785.22,-466.61 1790.52,-456.96 1795.74,-448.52"/>
<polygon fill="black" stroke="black" points="1798.82,-450.21 1801.3,-439.91 1792.94,-446.41 1798.82,-450.21"/>
</g>
<!-- pytorch&#45;cpu&#45;&gt;torchvision -->
<g id="edge41" class="edge">
<title>pytorch&#45;cpu&#45;&gt;torchvision</title>
<path fill="none" stroke="black" d="M1741.39,-548.76C1729.22,-539.4 1713.74,-527.49 1700.44,-517.26"/>
<polygon fill="black" stroke="black" points="1702.55,-514.47 1692.49,-511.15 1698.28,-520.02 1702.55,-514.47"/>
</g>
<!-- grpcio&#45;gcp -->
<g id="node38" class="node">
<title>grpcio&#45;gcp</title>
<g id="a_node38"><a xlink:href="https://github.com/conda-forge/grpcio-gcp-feedstock/pull/9" xlink:title="grpcio gcp ❎">
<ellipse fill="#31688e" stroke="black" cx="1864.5" cy="-494" rx="73.5" ry="18"/>
<text text-anchor="middle" x="1864.5" y="-490.3" font-family="Times,serif" font-size="14.00" fill="white">grpcio gcp ❎</text>
</a>
</g>
</g>
<!-- grpcio&#45;gcp&#45;&gt;allennlp -->
<g id="edge42" class="edge">
<title>grpcio&#45;gcp&#45;&gt;allennlp</title>
<path fill="none" stroke="black" d="M1852.15,-476.05C1846.02,-467.63 1838.48,-457.28 1831.69,-447.97"/>
<polygon fill="black" stroke="black" points="1834.45,-445.81 1825.73,-439.79 1828.79,-449.93 1834.45,-445.81"/>
</g>
<!-- proj -->
<g id="node46" class="node">
<title>proj</title>
<g id="a_node46"><a xlink:href="https://github.com/conda-forge/proj-feedstock" xlink:title="proj">
<ellipse fill="#35b779" stroke="black" cx="2289.5" cy="-566" rx="29.5" ry="18"/>
<text text-anchor="middle" x="2289.5" y="-562.3" font-family="Times,serif" font-size="14.00">proj</text>
</a>
</g>
</g>
<!-- nvcc&#45;&gt;proj -->
<!-- cudatoolkit -->
<g id="node40" class="node">
<title>cudatoolkit</title>
<g id="a_node40"><a xlink:href="https://github.com/conda-forge/cudatoolkit-feedstock/pull/4" xlink:title="cudatoolkit ❎">
<ellipse fill="#31688e" stroke="black" cx="1614.5" cy="-710" rx="76.89" ry="18"/>
<text text-anchor="middle" x="1614.5" y="-706.3" font-family="Times,serif" font-size="14.00" fill="white">cudatoolkit ❎</text>
</a>
</g>
</g>
<!-- cudnn -->
<g id="node41" class="node">
<title>cudnn</title>
<g id="a_node41"><a xlink:href="https://github.com/conda-forge/cudnn-feedstock" xlink:title="cudnn">
<ellipse fill="#fde725" stroke="black" cx="1668.5" cy="-638" rx="39" ry="18"/>
<text text-anchor="middle" x="1668.5" y="-634.3" font-family="Times,serif" font-size="14.00">cudnn</text>
</a>
</g>
</g>
<!-- cudatoolkit&#45;&gt;cudnn -->
<g id="edge44" class="edge">
<title>cudatoolkit&#45;&gt;cudnn</title>
<path fill="none" stroke="black" d="M1627.57,-692.05C1634.24,-683.42 1642.46,-672.76 1649.78,-663.27"/>
<polygon fill="black" stroke="black" points="1652.58,-665.36 1655.92,-655.31 1647.04,-661.09 1652.58,-665.36"/>
</g>
<!-- cutensor -->
<g id="node42" class="node">
<title>cutensor</title>
<g id="a_node42"><a xlink:href="https://github.com/conda-forge/cutensor-feedstock" xlink:title="cutensor">
<ellipse fill="#fde725" stroke="black" cx="1559.5" cy="-638" rx="51.5" ry="18"/>
<text text-anchor="middle" x="1559.5" y="-634.3" font-family="Times,serif" font-size="14.00">cutensor</text>
</a>
</g>
</g>
<!-- cudatoolkit&#45;&gt;cutensor -->
<g id="edge45" class="edge">
<title>cudatoolkit&#45;&gt;cutensor</title>
<path fill="none" stroke="black" d="M1601.19,-692.05C1594.5,-683.54 1586.27,-673.07 1578.89,-663.68"/>
<polygon fill="black" stroke="black" points="1581.62,-661.49 1572.69,-655.79 1576.12,-665.81 1581.62,-661.49"/>
</g>
<!-- cudnn&#45;&gt;torchvision -->
<g id="edge46" class="edge">
<title>cudnn&#45;&gt;torchvision</title>
<path fill="none" stroke="black" d="M1668.86,-619.87C1669.37,-595.67 1670.31,-551.21 1670.92,-522.39"/>
<polygon fill="black" stroke="black" points="1674.42,-522.26 1671.14,-512.19 1667.43,-522.11 1674.42,-522.26"/>
</g>
<!-- cudnn&#45;&gt;pytorch&#45;cpu -->
<g id="edge47" class="edge">
<title>cudnn&#45;&gt;pytorch&#45;cpu</title>
<path fill="none" stroke="black" d="M1688.43,-622.15C1701.32,-612.56 1718.32,-599.9 1732.78,-589.13"/>
<polygon fill="black" stroke="black" points="1735.03,-591.82 1740.96,-583.04 1730.85,-586.21 1735.03,-591.82"/>
</g>
<!-- libspnav -->
<g id="node43" class="node">
<title>libspnav</title>
<g id="a_node43"><a xlink:href="https://github.com/conda-forge/libspnav-feedstock/pull/2" xlink:title="libspnav ❎">
<ellipse fill="#31688e" stroke="black" cx="1085.5" cy="-638" rx="63.89" ry="18"/>
<text text-anchor="middle" x="1085.5" y="-634.3" font-family="Times,serif" font-size="14.00" fill="white">libspnav ❎</text>
</a>
</g>
</g>
<!-- libspnav&#45;&gt;freecad -->
<g id="edge48" class="edge">
<title>libspnav&#45;&gt;freecad</title>
<path fill="none" stroke="black" d="M1101.1,-620.51C1117.14,-601.51 1137.54,-570.09 1120.5,-548 1102.4,-524.54 1025.05,-509.43 971.5,-501.57"/>
<polygon fill="black" stroke="black" points="971.86,-498.09 961.47,-500.14 970.87,-505.02 971.86,-498.09"/>
</g>
<!-- libv8 -->
<g id="node44" class="node">
<title>libv8</title>
<g id="a_node44"><a xlink:href="https://github.com/conda-forge/libv8-feedstock/pull/66" xlink:title="libv8 ❎">
<ellipse fill="#31688e" stroke="black" cx="2289.5" cy="-126" rx="48.19" ry="18"/>
<text text-anchor="middle" x="2289.5" y="-122.3" font-family="Times,serif" font-size="14.00" fill="white">libv8 ❎</text>
</a>
</g>
</g>
<!-- r&#45;v8 -->
<g id="node45" class="node">
<title>r&#45;v8</title>
<g id="a_node45"><a xlink:href="https://github.com/conda-forge/r-v8-feedstock" xlink:title="r v8">
<ellipse fill="#fde725" stroke="black" cx="2289.5" cy="-54" rx="29.5" ry="18"/>
<text text-anchor="middle" x="2289.5" y="-50.3" font-family="Times,serif" font-size="14.00">r v8</text>
</a>
</g>
</g>
<!-- libv8&#45;&gt;r&#45;v8 -->
<g id="edge49" class="edge">
<title>libv8&#45;&gt;r&#45;v8</title>
<path fill="none" stroke="black" d="M2289.5,-107.7C2289.5,-99.98 2289.5,-90.71 2289.5,-82.11"/>
<polygon fill="black" stroke="black" points="2293,-82.1 2289.5,-72.1 2286,-82.1 2293,-82.1"/>
</g>
<!-- jaeger -->
<g id="node47" class="node">
<title>jaeger</title>
<g id="a_node47"><a xlink:href="https://github.com/conda-forge/jaeger-feedstock/pull/12" xlink:title="jaeger ❎">
<ellipse fill="#31688e" stroke="black" cx="2289.5" cy="-494" rx="54" ry="18"/>
<text text-anchor="middle" x="2289.5" y="-490.3" font-family="Times,serif" font-size="14.00" fill="white">jaeger ❎</text>
</a>
</g>
</g>
<!-- proj&#45;&gt;jaeger -->
<!-- dm&#45;tree -->
<g id="node49" class="node">
<title>dm&#45;tree</title>
<g id="a_node49"><a xlink:href="https://github.com/conda-forge/dm-tree-feedstock/pull/4" xlink:title="dm tree ❎">
<ellipse fill="#31688e" stroke="black" cx="2289.5" cy="-422" rx="61.99" ry="18"/>
<text text-anchor="middle" x="2289.5" y="-418.3" font-family="Times,serif" font-size="14.00" fill="white">dm tree ❎</text>
</a>
</g>
</g>
<!-- jaeger&#45;&gt;dm&#45;tree -->
<!-- nccl -->
<g id="node48" class="node">
<title>nccl</title>
<g id="a_node48"><a xlink:href="https://github.com/conda-forge/nccl-feedstock/pull/51" xlink:title="nccl ✓">
<ellipse fill="#31688e" stroke="black" cx="1762.5" cy="-638" rx="36.5" ry="18"/>
<text text-anchor="middle" x="1762.5" y="-634.3" font-family="Times,serif" font-size="14.00" fill="white">nccl ✓</text>
</a>
</g>
</g>
<!-- nccl&#45;&gt;pytorch&#45;cpu -->
<g id="edge52" class="edge">
<title>nccl&#45;&gt;pytorch&#45;cpu</title>
<path fill="none" stroke="black" d="M1762.5,-619.7C1762.5,-611.98 1762.5,-602.71 1762.5,-594.11"/>
<polygon fill="black" stroke="black" points="1766,-594.1 1762.5,-584.1 1759,-594.1 1766,-594.1"/>
</g>
<!-- gst&#45;plugins&#45;ugly -->
<g id="node52" class="node">
<title>gst&#45;plugins&#45;ugly</title>
<g id="a_node52"><a xlink:href="https://github.com/conda-forge/gst-plugins-ugly-feedstock" xlink:title="gst plugins ugly">
<ellipse fill="#35b779" stroke="black" cx="2289.5" cy="-350" rx="85.29" ry="18"/>
<text text-anchor="middle" x="2289.5" y="-346.3" font-family="Times,serif" font-size="14.00">gst plugins ugly</text>
</a>
</g>
</g>
<!-- dm&#45;tree&#45;&gt;gst&#45;plugins&#45;ugly -->
<!-- jaraco.text -->
<g id="node50" class="node">
<title>jaraco.text</title>
<g id="a_node50"><a xlink:href="https://github.com/conda-forge/jaraco.text-feedstock/pull/9" xlink:title="jaraco text ✓">
<ellipse fill="#31688e" stroke="black" cx="2125.5" cy="-566" rx="67.69" ry="18"/>
<text text-anchor="middle" x="2125.5" y="-562.3" font-family="Times,serif" font-size="14.00" fill="white">jaraco text ✓</text>
</a>
</g>
</g>
<!-- jaraco.text&#45;&gt;cherrypy -->
<g id="edge55" class="edge">
<title>jaraco.text&#45;&gt;cherrypy</title>
<path fill="none" stroke="black" d="M2116.06,-548.05C2111.46,-539.8 2105.83,-529.7 2100.73,-520.54"/>
<polygon fill="black" stroke="black" points="2103.78,-518.82 2095.85,-511.79 2097.66,-522.23 2103.78,-518.82"/>
</g>
<!-- tokenizers -->
<g id="node51" class="node">
<title>tokenizers</title>
<g id="a_node51"><a xlink:href="https://github.com/conda-forge/tokenizers-feedstock/pull/18" xlink:title="tokenizers ❎">
<ellipse fill="#31688e" stroke="black" cx="1966.5" cy="-566" rx="73.5" ry="18"/>
<text text-anchor="middle" x="1966.5" y="-562.3" font-family="Times,serif" font-size="14.00" fill="white">tokenizers ❎</text>
</a>
</g>
</g>
<!-- tokenizers&#45;&gt;allennlp -->
<g id="edge56" class="edge">
<title>tokenizers&#45;&gt;allennlp</title>
<path fill="none" stroke="black" d="M1967.39,-547.86C1967.47,-528.26 1964.65,-496.26 1947.5,-476 1927.42,-452.27 1895.27,-439.09 1867.49,-431.81"/>
<polygon fill="black" stroke="black" points="1868.03,-428.34 1857.49,-429.39 1866.38,-435.14 1868.03,-428.34"/>
</g>
<!-- gst&#45;plugins&#45;bad -->
<g id="node54" class="node">
<title>gst&#45;plugins&#45;bad</title>
<g id="a_node54"><a xlink:href="https://github.com/conda-forge/gst-plugins-bad-feedstock" xlink:title="gst plugins bad">
<ellipse fill="#35b779" stroke="black" cx="2289.5" cy="-278" rx="82.59" ry="18"/>
<text text-anchor="middle" x="2289.5" y="-274.3" font-family="Times,serif" font-size="14.00">gst plugins bad</text>
</a>
</g>
</g>
<!-- gst&#45;plugins&#45;ugly&#45;&gt;gst&#45;plugins&#45;bad -->
<!-- magma -->
<g id="node53" class="node">
<title>magma</title>
<g id="a_node53"><a xlink:href="https://github.com/conda-forge/magma-feedstock/pull/9" xlink:title="magma ✓">
<ellipse fill="#31688e" stroke="black" cx="1827.5" cy="-710" rx="52" ry="18"/>
<text text-anchor="middle" x="1827.5" y="-706.3" font-family="Times,serif" font-size="14.00" fill="white">magma ✓</text>
</a>
</g>
</g>
<!-- magma&#45;&gt;pytorch&#45;cpu -->
<g id="edge58" class="edge">
<title>magma&#45;&gt;pytorch&#45;cpu</title>
<path fill="none" stroke="black" d="M1826.1,-691.78C1824.04,-673.23 1819.09,-643.24 1807.5,-620 1802.3,-609.58 1794.63,-599.49 1787.09,-590.95"/>
<polygon fill="black" stroke="black" points="1789.64,-588.55 1780.28,-583.59 1784.5,-593.31 1789.64,-588.55"/>
</g>
<!-- gst&#45;libav -->
<g id="node55" class="node">
<title>gst&#45;libav</title>
<g id="a_node55"><a xlink:href="https://github.com/conda-forge/gst-libav-feedstock" xlink:title="gst libav">
<ellipse fill="#35b779" stroke="black" cx="2289.5" cy="-206" rx="50.89" ry="18"/>
<text text-anchor="middle" x="2289.5" y="-202.3" font-family="Times,serif" font-size="14.00">gst libav</text>
</a>
</g>
</g>
<!-- gst&#45;plugins&#45;bad&#45;&gt;gst&#45;libav -->
<!-- aws&#45;crt&#45;cpp -->
<g id="node56" class="node">
<title>aws&#45;crt&#45;cpp</title>
<g id="a_node56"><a xlink:href="https://github.com/conda-forge/aws-crt-cpp-feedstock/pull/18" xlink:title="aws crt cpp ✓">
<ellipse fill="#31688e" stroke="black" cx="1746.5" cy="-126" rx="71.5" ry="18"/>
<text text-anchor="middle" x="1746.5" y="-122.3" font-family="Times,serif" font-size="14.00" fill="white">aws crt cpp ✓</text>
</a>
</g>
</g>
<!-- scitokens&#45;cpp -->
<g id="node57" class="node">
<title>scitokens&#45;cpp</title>
<g id="a_node57"><a xlink:href="https://github.com/conda-forge/scitokens-cpp-feedstock/pull/4" xlink:title="scitokens cpp ✓">
<ellipse fill="#31688e" stroke="black" cx="1746.5" cy="-54" rx="81.49" ry="18"/>
<text text-anchor="middle" x="1746.5" y="-50.3" font-family="Times,serif" font-size="14.00" fill="white">scitokens cpp ✓</text>
</a>
</g>
</g>
<!-- aws&#45;crt&#45;cpp&#45;&gt;scitokens&#45;cpp -->
</g>
</svg>
