<?xml version="1.0" encoding="UTF-8" standalone="no"?>
<!DOCTYPE svg PUBLIC "-//W3C//DTD SVG 1.1//EN"
 "http://www.w3.org/Graphics/SVG/1.1/DTD/svg11.dtd">
<!-- Generated by graphviz version 2.42.3 (20191010.1750)
 -->
<!-- Title: %3 Pages: 1 -->
<svg width="1590pt" height="852pt"
 viewBox="0.00 0.00 1589.55 852.00" xmlns="http://www.w3.org/2000/svg" xmlns:xlink="http://www.w3.org/1999/xlink">
<g id="graph0" class="graph" transform="scale(1 1) rotate(0) translate(4 848)">
<title>%3</title>
<polygon fill="white" stroke="transparent" points="-4,4 -4,-848 1585.55,-848 1585.55,4 -4,4"/>
<!-- aiohttp -->
<g id="node1" class="node">
<title>aiohttp</title>
<g id="a_node1"><a xlink:href="https://github.com/conda-forge/aiohttp-feedstock" xlink:title="aiohttp">
<ellipse fill="#fde725" stroke="black" cx="268.91" cy="-682" rx="35.19" ry="18"/>
<text text-anchor="middle" x="268.91" y="-678.3" font-family="Times,serif" font-size="14.00">aiohttp</text>
</a>
</g>
</g>
<!-- black -->
<g id="node2" class="node">
<title>black</title>
<g id="a_node2"><a xlink:href="https://github.com/conda-forge/black-feedstock" xlink:title="black">
<ellipse fill="#fde725" stroke="black" cx="268.91" cy="-610" rx="30" ry="18"/>
<text text-anchor="middle" x="268.91" y="-606.3" font-family="Times,serif" font-size="14.00">black</text>
</a>
</g>
</g>
<!-- aiohttp&#45;&gt;black -->
<g id="edge1" class="edge">
<title>aiohttp&#45;&gt;black</title>
<path fill="none" stroke="black" d="M263.03,-664.05C262.2,-656.23 261.96,-646.75 262.32,-637.98"/>
<polygon fill="black" stroke="black" points="265.82,-638.01 263.05,-627.79 258.84,-637.51 265.82,-638.01"/>
</g>
<!-- black&#45;&gt;aiohttp -->
<g id="edge2" class="edge">
<title>black&#45;&gt;aiohttp</title>
<path fill="none" stroke="black" d="M274.77,-627.79C275.61,-635.59 275.85,-645.07 275.5,-653.85"/>
<polygon fill="black" stroke="black" points="272,-653.83 274.79,-664.05 278.98,-654.33 272,-653.83"/>
</g>
<!-- hyperspy -->
<g id="node3" class="node">
<title>hyperspy</title>
<g id="a_node3"><a xlink:href="https://github.com/conda-forge/hyperspy-feedstock" xlink:title="hyperspy">
<ellipse fill="#fde725" stroke="black" cx="339.91" cy="-538" rx="43" ry="18"/>
<text text-anchor="middle" x="339.91" y="-534.3" font-family="Times,serif" font-size="14.00">hyperspy</text>
</a>
</g>
</g>
<!-- black&#45;&gt;hyperspy -->
<g id="edge3" class="edge">
<title>black&#45;&gt;hyperspy</title>
<path fill="none" stroke="black" d="M283.96,-594.15C293.49,-584.76 305.99,-572.44 316.76,-561.82"/>
<polygon fill="black" stroke="black" points="319.22,-564.31 323.88,-554.8 314.31,-559.33 319.22,-564.31"/>
</g>
<!-- nbgrader -->
<g id="node4" class="node">
<title>nbgrader</title>
<g id="a_node4"><a xlink:href="https://github.com/conda-forge/nbgrader-feedstock" xlink:title="nbgrader">
<ellipse fill="#fde725" stroke="black" cx="442.91" cy="-538" rx="42.49" ry="18"/>
<text text-anchor="middle" x="442.91" y="-534.3" font-family="Times,serif" font-size="14.00">nbgrader</text>
</a>
</g>
</g>
<!-- black&#45;&gt;nbgrader -->
<g id="edge4" class="edge">
<title>black&#45;&gt;nbgrader</title>
<path fill="none" stroke="black" d="M293.1,-599.27C321.66,-587.78 369.55,-568.51 403.48,-554.86"/>
<polygon fill="black" stroke="black" points="405.12,-557.97 413.09,-550.99 402.51,-551.48 405.12,-557.97"/>
</g>
<!-- allennlp -->
<g id="node5" class="node">
<title>allennlp</title>
<g id="a_node5"><a xlink:href="https://github.com/conda-forge/allennlp-feedstock" xlink:title="allennlp">
<ellipse fill="#fde725" stroke="black" cx="230.91" cy="-394" rx="39" ry="18"/>
<text text-anchor="middle" x="230.91" y="-390.3" font-family="Times,serif" font-size="14.00">allennlp</text>
</a>
</g>
</g>
<!-- black&#45;&gt;allennlp -->
<g id="edge5" class="edge">
<title>black&#45;&gt;allennlp</title>
<path fill="none" stroke="black" d="M265.86,-591.85C259.27,-554.75 243.66,-466.81 235.72,-422.1"/>
<polygon fill="black" stroke="black" points="239.16,-421.47 233.97,-412.23 232.27,-422.69 239.16,-421.47"/>
</g>
<!-- pytorch&#45;cpu -->
<g id="node6" class="node">
<title>pytorch&#45;cpu</title>
<g id="a_node6"><a xlink:href="https://github.com/conda-forge/pytorch-cpu-feedstock" xlink:title="pytorch cpu">
<ellipse fill="#fde725" stroke="black" cx="110.91" cy="-538" rx="52.79" ry="18"/>
<text text-anchor="middle" x="110.91" y="-534.3" font-family="Times,serif" font-size="14.00">pytorch cpu</text>
</a>
</g>
</g>
<!-- black&#45;&gt;pytorch&#45;cpu -->
<g id="edge6" class="edge">
<title>black&#45;&gt;pytorch&#45;cpu</title>
<path fill="none" stroke="black" d="M245.59,-598.67C220.73,-587.66 180.89,-570.01 150.98,-556.75"/>
<polygon fill="black" stroke="black" points="152.21,-553.47 141.65,-552.62 149.37,-559.87 152.21,-553.47"/>
</g>
<!-- dm&#45;tree -->
<g id="node7" class="node">
<title>dm&#45;tree</title>
<g id="a_node7"><a xlink:href="https://github.com/conda-forge/dm-tree-feedstock" xlink:title="dm tree">
<ellipse fill="#fde725" stroke="black" cx="297.91" cy="-466" rx="38.5" ry="18"/>
<text text-anchor="middle" x="297.91" y="-462.3" font-family="Times,serif" font-size="14.00">dm tree</text>
</a>
</g>
</g>
<!-- black&#45;&gt;dm&#45;tree -->
<g id="edge7" class="edge">
<title>black&#45;&gt;dm&#45;tree</title>
<path fill="none" stroke="black" d="M272.41,-591.87C277.37,-567.56 286.51,-522.82 292.39,-494.01"/>
<polygon fill="black" stroke="black" points="295.82,-494.69 294.4,-484.19 288.97,-493.29 295.82,-494.69"/>
</g>
<!-- pytorch&#45;cpu&#45;&gt;allennlp -->
<g id="edge42" class="edge">
<title>pytorch&#45;cpu&#45;&gt;allennlp</title>
<path fill="none" stroke="black" d="M69.73,-526.58C47.88,-518.73 22.92,-505.52 9.91,-484 1.63,-470.31 0,-460.56 9.91,-448 31,-421.26 124.14,-406.48 182.57,-399.69"/>
<polygon fill="black" stroke="black" points="183.15,-403.15 192.7,-398.56 182.37,-396.19 183.15,-403.15"/>
</g>
<!-- pytorch&#45;pretrained&#45;bert -->
<g id="node41" class="node">
<title>pytorch&#45;pretrained&#45;bert</title>
<g id="a_node41"><a xlink:href="https://github.com/conda-forge/pytorch-pretrained-bert-feedstock" xlink:title="pytorch pretrained bert">
<ellipse fill="#fde725" stroke="black" cx="110.91" cy="-466" rx="91.78" ry="18"/>
<text text-anchor="middle" x="110.91" y="-462.3" font-family="Times,serif" font-size="14.00">pytorch pretrained bert</text>
</a>
</g>
</g>
<!-- pytorch&#45;cpu&#45;&gt;pytorch&#45;pretrained&#45;bert -->
<g id="edge43" class="edge">
<title>pytorch&#45;cpu&#45;&gt;pytorch&#45;pretrained&#45;bert</title>
<path fill="none" stroke="black" d="M110.91,-519.7C110.91,-511.98 110.91,-502.71 110.91,-494.11"/>
<polygon fill="black" stroke="black" points="114.41,-494.1 110.91,-484.1 107.41,-494.1 114.41,-494.1"/>
</g>
<!-- astroscrappy -->
<g id="node8" class="node">
<title>astroscrappy</title>
<g id="a_node8"><a xlink:href="https://github.com/conda-forge/astroscrappy-feedstock/pull/11" xlink:title="astroscrappy ❎">
<ellipse fill="#31688e" stroke="black" cx="1096.91" cy="-826" rx="67" ry="18"/>
<text text-anchor="middle" x="1096.91" y="-822.3" font-family="Times,serif" font-size="14.00" fill="white">astroscrappy ❎</text>
</a>
</g>
</g>
<!-- pypy2.7 -->
<g id="node9" class="node">
<title>pypy2.7</title>
<g id="a_node9"><a xlink:href="https://github.com/conda-forge/pypy2.7-feedstock/pull/3" xlink:title="pypy2 7 ❎">
<ellipse fill="#31688e" stroke="black" cx="1096.91" cy="-754" rx="51.5" ry="18"/>
<text text-anchor="middle" x="1096.91" y="-750.3" font-family="Times,serif" font-size="14.00" fill="white">pypy2 7 ❎</text>
</a>
</g>
</g>
<!-- astroscrappy&#45;&gt;pypy2.7 -->
<!-- root_numpy -->
<g id="node37" class="node">
<title>root_numpy</title>
<g id="a_node37"><a xlink:href="https://github.com/conda-forge/root_numpy-feedstock/pull/19" xlink:title="root_numpy ❎">
<ellipse fill="#31688e" stroke="black" cx="1096.91" cy="-682" rx="65.79" ry="18"/>
<text text-anchor="middle" x="1096.91" y="-678.3" font-family="Times,serif" font-size="14.00" fill="white">root_numpy ❎</text>
</a>
</g>
</g>
<!-- pypy2.7&#45;&gt;root_numpy -->
<!-- elfutils -->
<g id="node10" class="node">
<title>elfutils</title>
<g id="a_node10"><a xlink:href="https://github.com/conda-forge/elfutils-feedstock/pull/20" xlink:title="elfutils ❎">
<ellipse fill="#31688e" stroke="black" cx="442.91" cy="-206" rx="47" ry="18"/>
<text text-anchor="middle" x="442.91" y="-202.3" font-family="Times,serif" font-size="14.00" fill="white">elfutils ❎</text>
</a>
</g>
</g>
<!-- heaptrack -->
<g id="node11" class="node">
<title>heaptrack</title>
<g id="a_node11"><a xlink:href="https://github.com/conda-forge/heaptrack-feedstock" xlink:title="heaptrack">
<ellipse fill="#fde725" stroke="black" cx="449.91" cy="-134" rx="45" ry="18"/>
<text text-anchor="middle" x="449.91" y="-130.3" font-family="Times,serif" font-size="14.00">heaptrack</text>
</a>
</g>
</g>
<!-- elfutils&#45;&gt;heaptrack -->
<g id="edge9" class="edge">
<title>elfutils&#45;&gt;heaptrack</title>
<path fill="none" stroke="black" d="M444.64,-187.7C445.41,-179.98 446.34,-170.71 447.2,-162.11"/>
<polygon fill="black" stroke="black" points="450.68,-162.4 448.2,-152.1 443.72,-161.71 450.68,-162.4"/>
</g>
<!-- fastparquet -->
<g id="node12" class="node">
<title>fastparquet</title>
<g id="a_node12"><a xlink:href="https://github.com/conda-forge/fastparquet-feedstock" xlink:title="fastparquet">
<ellipse fill="#fde725" stroke="black" cx="1377.91" cy="-134" rx="50.09" ry="18"/>
<text text-anchor="middle" x="1377.91" y="-130.3" font-family="Times,serif" font-size="14.00">fastparquet</text>
</a>
</g>
</g>
<!-- freexl -->
<g id="node13" class="node">
<title>freexl</title>
<g id="a_node13"><a xlink:href="https://github.com/conda-forge/freexl-feedstock/pull/22" xlink:title="freexl ✓">
<ellipse fill="#31688e" stroke="black" cx="1216.91" cy="-682" rx="41.69" ry="18"/>
<text text-anchor="middle" x="1216.91" y="-678.3" font-family="Times,serif" font-size="14.00" fill="white">freexl ✓</text>
</a>
</g>
</g>
<!-- gdal -->
<g id="node14" class="node">
<title>gdal</title>
<g id="a_node14"><a xlink:href="https://github.com/conda-forge/gdal-feedstock" xlink:title="gdal">
<ellipse fill="#fde725" stroke="black" cx="1345.91" cy="-538" rx="27" ry="18"/>
<text text-anchor="middle" x="1345.91" y="-534.3" font-family="Times,serif" font-size="14.00">gdal</text>
</a>
</g>
</g>
<!-- freexl&#45;&gt;gdal -->
<g id="edge10" class="edge">
<title>freexl&#45;&gt;gdal</title>
<path fill="none" stroke="black" d="M1208.34,-664.31C1199.82,-645.13 1190,-613.53 1204.91,-592 1228.08,-558.53 1275.2,-546.17 1308.58,-541.62"/>
<polygon fill="black" stroke="black" points="1309.37,-545.05 1318.89,-540.4 1308.54,-538.1 1309.37,-545.05"/>
</g>
<!-- libspatialite -->
<g id="node15" class="node">
<title>libspatialite</title>
<g id="a_node15"><a xlink:href="https://github.com/conda-forge/libspatialite-feedstock" xlink:title="libspatialite">
<ellipse fill="#fde725" stroke="black" cx="1265.91" cy="-610" rx="52" ry="18"/>
<text text-anchor="middle" x="1265.91" y="-606.3" font-family="Times,serif" font-size="14.00">libspatialite</text>
</a>
</g>
</g>
<!-- freexl&#45;&gt;libspatialite -->
<g id="edge11" class="edge">
<title>freexl&#45;&gt;libspatialite</title>
<path fill="none" stroke="black" d="M1228.52,-664.41C1234.41,-655.99 1241.7,-645.58 1248.27,-636.2"/>
<polygon fill="black" stroke="black" points="1251.17,-638.16 1254.04,-627.96 1245.44,-634.14 1251.17,-638.16"/>
</g>
<!-- kealib -->
<g id="node16" class="node">
<title>kealib</title>
<g id="a_node16"><a xlink:href="https://github.com/conda-forge/kealib-feedstock" xlink:title="kealib">
<ellipse fill="#fde725" stroke="black" cx="1345.91" cy="-466" rx="32.5" ry="18"/>
<text text-anchor="middle" x="1345.91" y="-462.3" font-family="Times,serif" font-size="14.00">kealib</text>
</a>
</g>
</g>
<!-- gdal&#45;&gt;kealib -->
<g id="edge12" class="edge">
<title>gdal&#45;&gt;kealib</title>
<path fill="none" stroke="black" d="M1340.07,-520.41C1339.2,-512.51 1338.96,-502.85 1339.32,-493.94"/>
<polygon fill="black" stroke="black" points="1342.81,-494.18 1340.03,-483.96 1335.83,-493.68 1342.81,-494.18"/>
</g>
<!-- r&#45;sf -->
<g id="node17" class="node">
<title>r&#45;sf</title>
<g id="a_node17"><a xlink:href="https://github.com/conda-forge/r-sf-feedstock" xlink:title="r sf">
<ellipse fill="#fde725" stroke="black" cx="1475.91" cy="-466" rx="27" ry="18"/>
<text text-anchor="middle" x="1475.91" y="-462.3" font-family="Times,serif" font-size="14.00">r sf</text>
</a>
</g>
</g>
<!-- gdal&#45;&gt;r&#45;sf -->
<g id="edge13" class="edge">
<title>gdal&#45;&gt;r&#45;sf</title>
<path fill="none" stroke="black" d="M1366.22,-526.06C1387.75,-514.47 1421.96,-496.05 1446.44,-482.86"/>
<polygon fill="black" stroke="black" points="1448.16,-485.91 1455.31,-478.09 1444.84,-479.75 1448.16,-485.91"/>
</g>
<!-- libspatialite&#45;&gt;gdal -->
<g id="edge14" class="edge">
<title>libspatialite&#45;&gt;gdal</title>
<path fill="none" stroke="black" d="M1284.06,-593.12C1295.48,-583.12 1310.33,-570.13 1322.61,-559.38"/>
<polygon fill="black" stroke="black" points="1325.03,-561.91 1330.26,-552.7 1320.42,-556.65 1325.03,-561.91"/>
</g>
<!-- kealib&#45;&gt;gdal -->
<g id="edge15" class="edge">
<title>kealib&#45;&gt;gdal</title>
<path fill="none" stroke="black" d="M1351.79,-483.96C1352.62,-491.83 1352.86,-501.37 1352.49,-510.19"/>
<polygon fill="black" stroke="black" points="1348.98,-510.18 1351.75,-520.41 1355.96,-510.69 1348.98,-510.18"/>
</g>
<!-- r&#45;spdep -->
<g id="node18" class="node">
<title>r&#45;spdep</title>
<g id="a_node18"><a xlink:href="https://github.com/conda-forge/r-spdep-feedstock" xlink:title="r spdep">
<ellipse fill="#fde725" stroke="black" cx="1475.91" cy="-394" rx="36.5" ry="18"/>
<text text-anchor="middle" x="1475.91" y="-390.3" font-family="Times,serif" font-size="14.00">r spdep</text>
</a>
</g>
</g>
<!-- r&#45;sf&#45;&gt;r&#45;spdep -->
<g id="edge16" class="edge">
<title>r&#45;sf&#45;&gt;r&#45;spdep</title>
<path fill="none" stroke="black" d="M1475.91,-447.7C1475.91,-439.98 1475.91,-430.71 1475.91,-422.11"/>
<polygon fill="black" stroke="black" points="1479.41,-422.1 1475.91,-412.1 1472.41,-422.1 1479.41,-422.1"/>
</g>
<!-- geos -->
<g id="node19" class="node">
<title>geos</title>
<g id="a_node19"><a xlink:href="https://github.com/conda-forge/geos-feedstock/pull/47" xlink:title="geos ❎">
<ellipse fill="#31688e" stroke="black" cx="1329.91" cy="-682" rx="38.5" ry="18"/>
<text text-anchor="middle" x="1329.91" y="-678.3" font-family="Times,serif" font-size="14.00" fill="white">geos ❎</text>
</a>
</g>
</g>
<!-- geos&#45;&gt;gdal -->
<g id="edge17" class="edge">
<title>geos&#45;&gt;gdal</title>
<path fill="none" stroke="black" d="M1331.84,-663.87C1334.56,-639.67 1339.57,-595.21 1342.82,-566.39"/>
<polygon fill="black" stroke="black" points="1346.33,-566.52 1343.97,-556.19 1339.37,-565.73 1346.33,-566.52"/>
</g>
<!-- geos&#45;&gt;libspatialite -->
<g id="edge18" class="edge">
<title>geos&#45;&gt;libspatialite</title>
<path fill="none" stroke="black" d="M1315.38,-665.12C1307.24,-656.2 1296.91,-644.91 1287.8,-634.94"/>
<polygon fill="black" stroke="black" points="1290.15,-632.33 1280.82,-627.31 1284.98,-637.05 1290.15,-632.33"/>
</g>
<!-- libunwind -->
<g id="node20" class="node">
<title>libunwind</title>
<g id="a_node20"><a xlink:href="https://github.com/conda-forge/libunwind-feedstock/pull/14" xlink:title="libunwind ❎">
<ellipse fill="#31688e" stroke="black" cx="565.91" cy="-206" rx="58" ry="18"/>
<text text-anchor="middle" x="565.91" y="-202.3" font-family="Times,serif" font-size="14.00" fill="white">libunwind ❎</text>
</a>
</g>
</g>
<!-- libunwind&#45;&gt;heaptrack -->
<g id="edge19" class="edge">
<title>libunwind&#45;&gt;heaptrack</title>
<path fill="none" stroke="black" d="M540.45,-189.64C523.37,-179.33 500.72,-165.67 482.35,-154.58"/>
<polygon fill="black" stroke="black" points="484.09,-151.54 473.72,-149.37 480.48,-157.53 484.09,-151.54"/>
</g>
<!-- py&#45;spy -->
<g id="node21" class="node">
<title>py&#45;spy</title>
<g id="a_node21"><a xlink:href="https://github.com/conda-forge/py-spy-feedstock/pull/11" xlink:title="py spy ❎">
<ellipse fill="#31688e" stroke="black" cx="565.91" cy="-134" rx="46.29" ry="18"/>
<text text-anchor="middle" x="565.91" y="-130.3" font-family="Times,serif" font-size="14.00" fill="white">py spy ❎</text>
</a>
</g>
</g>
<!-- libunwind&#45;&gt;py&#45;spy -->
<g id="edge20" class="edge">
<title>libunwind&#45;&gt;py&#45;spy</title>
<path fill="none" stroke="black" d="M565.91,-187.7C565.91,-179.98 565.91,-170.71 565.91,-162.11"/>
<polygon fill="black" stroke="black" points="569.41,-162.1 565.91,-152.1 562.41,-162.1 569.41,-162.1"/>
</g>
<!-- mono -->
<g id="node22" class="node">
<title>mono</title>
<g id="a_node22"><a xlink:href="https://github.com/conda-forge/mono-feedstock/pull/18" xlink:title="mono ❎">
<ellipse fill="#31688e" stroke="black" cx="1096.91" cy="-90" rx="43" ry="18"/>
<text text-anchor="middle" x="1096.91" y="-86.3" font-family="Times,serif" font-size="14.00" fill="white">mono ❎</text>
</a>
</g>
</g>
<!-- ogre -->
<g id="node23" class="node">
<title>ogre</title>
<g id="a_node23"><a xlink:href="https://github.com/conda-forge/ogre-feedstock" xlink:title="ogre">
<ellipse fill="#fde725" stroke="black" cx="1096.91" cy="-18" rx="27" ry="18"/>
<text text-anchor="middle" x="1096.91" y="-14.3" font-family="Times,serif" font-size="14.00">ogre</text>
</a>
</g>
</g>
<!-- mono&#45;&gt;ogre -->
<g id="edge21" class="edge">
<title>mono&#45;&gt;ogre</title>
<path fill="none" stroke="black" d="M1096.91,-71.7C1096.91,-63.98 1096.91,-54.71 1096.91,-46.11"/>
<polygon fill="black" stroke="black" points="1100.41,-46.1 1096.91,-36.1 1093.41,-46.1 1100.41,-46.1"/>
</g>
<!-- nltk_data -->
<g id="node24" class="node">
<title>nltk_data</title>
<g id="a_node24"><a xlink:href="https://github.com/conda-forge/nltk_data-feedstock/pull/5" xlink:title="nltk_data ❎">
<ellipse fill="#31688e" stroke="black" cx="409.91" cy="-466" rx="55.49" ry="18"/>
<text text-anchor="middle" x="409.91" y="-462.3" font-family="Times,serif" font-size="14.00" fill="white">nltk_data ❎</text>
</a>
</g>
</g>
<!-- nltk_data&#45;&gt;allennlp -->
<g id="edge22" class="edge">
<title>nltk_data&#45;&gt;allennlp</title>
<path fill="none" stroke="black" d="M375.82,-451.67C345.39,-439.77 300.88,-422.36 269.22,-409.98"/>
<polygon fill="black" stroke="black" points="270.43,-406.7 259.84,-406.32 267.88,-413.22 270.43,-406.7"/>
</g>
<!-- pyqt -->
<g id="node25" class="node">
<title>pyqt</title>
<g id="a_node25"><a xlink:href="https://github.com/conda-forge/pyqt-feedstock" xlink:title="pyqt">
<ellipse fill="#fde725" stroke="black" cx="512.91" cy="-610" rx="27" ry="18"/>
<text text-anchor="middle" x="512.91" y="-606.3" font-family="Times,serif" font-size="14.00">pyqt</text>
</a>
</g>
</g>
<!-- pyqt&#45;&gt;hyperspy -->
<g id="edge23" class="edge">
<title>pyqt&#45;&gt;hyperspy</title>
<path fill="none" stroke="black" d="M490.29,-599.85C462.08,-588.43 413.38,-568.73 379.06,-554.84"/>
<polygon fill="black" stroke="black" points="380.37,-551.6 369.79,-551.09 377.74,-558.08 380.37,-551.6"/>
</g>
<!-- pyqt&#45;&gt;nbgrader -->
<g id="edge24" class="edge">
<title>pyqt&#45;&gt;nbgrader</title>
<path fill="none" stroke="black" d="M498.4,-594.5C489.03,-585.13 476.64,-572.73 465.94,-562.03"/>
<polygon fill="black" stroke="black" points="468.4,-559.55 458.86,-554.95 463.45,-564.5 468.4,-559.55"/>
</g>
<!-- pyqt&#45;&gt;allennlp -->
<g id="edge25" class="edge">
<title>pyqt&#45;&gt;allennlp</title>
<path fill="none" stroke="black" d="M514.29,-591.99C515.94,-559.02 514.45,-486.33 473.91,-448 446.26,-421.87 341.57,-406.6 278.97,-399.62"/>
<polygon fill="black" stroke="black" points="279.25,-396.13 268.93,-398.53 278.5,-403.09 279.25,-396.13"/>
</g>
<!-- pythonocc&#45;core -->
<g id="node26" class="node">
<title>pythonocc&#45;core</title>
<g id="a_node26"><a xlink:href="https://github.com/conda-forge/pythonocc-core-feedstock" xlink:title="pythonocc core">
<ellipse fill="#fde725" stroke="black" cx="605.91" cy="-538" rx="65" ry="18"/>
<text text-anchor="middle" x="605.91" y="-534.3" font-family="Times,serif" font-size="14.00">pythonocc core</text>
</a>
</g>
</g>
<!-- pyqt&#45;&gt;pythonocc&#45;core -->
<g id="edge26" class="edge">
<title>pyqt&#45;&gt;pythonocc&#45;core</title>
<path fill="none" stroke="black" d="M530.4,-595.83C543.36,-586.08 561.33,-572.55 576.49,-561.14"/>
<polygon fill="black" stroke="black" points="578.69,-563.87 584.57,-555.06 574.48,-558.27 578.69,-563.87"/>
</g>
<!-- qt -->
<g id="node27" class="node">
<title>qt</title>
<g id="a_node27"><a xlink:href="https://github.com/conda-forge/qt-feedstock/pull/168" xlink:title="qt ❎">
<ellipse fill="#31688e" stroke="black" cx="720.91" cy="-682" rx="29.5" ry="18"/>
<text text-anchor="middle" x="720.91" y="-678.3" font-family="Times,serif" font-size="14.00" fill="white">qt ❎</text>
</a>
</g>
</g>
<!-- qt&#45;&gt;pyqt -->
<g id="edge27" class="edge">
<title>qt&#45;&gt;pyqt</title>
<path fill="none" stroke="black" d="M695.11,-673.42C662.29,-663.64 603.99,-645.74 554.91,-628 551.63,-626.81 548.22,-625.53 544.84,-624.21"/>
<polygon fill="black" stroke="black" points="546.04,-620.93 535.46,-620.49 543.46,-627.43 546.04,-620.93"/>
</g>
<!-- pivy -->
<g id="node28" class="node">
<title>pivy</title>
<g id="a_node28"><a xlink:href="https://github.com/conda-forge/pivy-feedstock" xlink:title="pivy">
<ellipse fill="#fde725" stroke="black" cx="720.91" cy="-538" rx="27" ry="18"/>
<text text-anchor="middle" x="720.91" y="-534.3" font-family="Times,serif" font-size="14.00">pivy</text>
</a>
</g>
</g>
<!-- qt&#45;&gt;pivy -->
<g id="edge28" class="edge">
<title>qt&#45;&gt;pivy</title>
<path fill="none" stroke="black" d="M707.16,-666.07C698.95,-656.1 689.29,-642.25 684.91,-628 680.2,-612.71 680.2,-607.29 684.91,-592 688.19,-581.31 694.45,-570.85 700.83,-562.08"/>
<polygon fill="black" stroke="black" points="703.79,-563.98 707.16,-553.93 698.26,-559.69 703.79,-563.98"/>
</g>
<!-- pyside2 -->
<g id="node29" class="node">
<title>pyside2</title>
<g id="a_node29"><a xlink:href="https://github.com/conda-forge/pyside2-feedstock" xlink:title="pyside2">
<ellipse fill="#fde725" stroke="black" cx="804.91" cy="-610" rx="38.5" ry="18"/>
<text text-anchor="middle" x="804.91" y="-606.3" font-family="Times,serif" font-size="14.00">pyside2</text>
</a>
</g>
</g>
<!-- qt&#45;&gt;pyside2 -->
<g id="edge29" class="edge">
<title>qt&#45;&gt;pyside2</title>
<path fill="none" stroke="black" d="M737.5,-667.17C749.3,-657.34 765.39,-643.93 778.88,-632.69"/>
<polygon fill="black" stroke="black" points="781.45,-635.1 786.89,-626.01 776.97,-629.73 781.45,-635.1"/>
</g>
<!-- soqt -->
<g id="node30" class="node">
<title>soqt</title>
<g id="a_node30"><a xlink:href="https://github.com/conda-forge/soqt-feedstock" xlink:title="soqt">
<ellipse fill="#fde725" stroke="black" cx="720.91" cy="-610" rx="27" ry="18"/>
<text text-anchor="middle" x="720.91" y="-606.3" font-family="Times,serif" font-size="14.00">soqt</text>
</a>
</g>
</g>
<!-- qt&#45;&gt;soqt -->
<g id="edge30" class="edge">
<title>qt&#45;&gt;soqt</title>
<path fill="none" stroke="black" d="M720.91,-663.7C720.91,-655.98 720.91,-646.71 720.91,-638.11"/>
<polygon fill="black" stroke="black" points="724.41,-638.1 720.91,-628.1 717.41,-638.1 724.41,-638.1"/>
</g>
<!-- geant4 -->
<g id="node31" class="node">
<title>geant4</title>
<g id="a_node31"><a xlink:href="https://github.com/conda-forge/geant4-feedstock" xlink:title="geant4">
<ellipse fill="#fde725" stroke="black" cx="983.91" cy="-538" rx="34.5" ry="18"/>
<text text-anchor="middle" x="983.91" y="-534.3" font-family="Times,serif" font-size="14.00">geant4</text>
</a>
</g>
</g>
<!-- qt&#45;&gt;geant4 -->
<g id="edge31" class="edge">
<title>qt&#45;&gt;geant4</title>
<path fill="none" stroke="black" d="M749.89,-678.59C807.82,-673.17 934.92,-658.09 964.91,-628 980.81,-612.04 984.89,-586.25 985.39,-566.53"/>
<polygon fill="black" stroke="black" points="988.89,-566.28 985.35,-556.3 981.89,-566.31 988.89,-566.28"/>
</g>
<!-- pyside2&#45;&gt;pivy -->
<g id="edge32" class="edge">
<title>pyside2&#45;&gt;pivy</title>
<path fill="none" stroke="black" d="M786.68,-593.81C774.45,-583.62 758.22,-570.09 744.94,-559.02"/>
<polygon fill="black" stroke="black" points="747.03,-556.22 737.11,-552.5 742.55,-561.59 747.03,-556.22"/>
</g>
<!-- cctbx&#45;base -->
<g id="node32" class="node">
<title>cctbx&#45;base</title>
<g id="a_node32"><a xlink:href="https://github.com/conda-forge/cctbx-base-feedstock" xlink:title="cctbx base">
<ellipse fill="#fde725" stroke="black" cx="848.91" cy="-538" rx="48.19" ry="18"/>
<text text-anchor="middle" x="848.91" y="-534.3" font-family="Times,serif" font-size="14.00">cctbx base</text>
</a>
</g>
</g>
<!-- pyside2&#45;&gt;cctbx&#45;base -->
<g id="edge33" class="edge">
<title>pyside2&#45;&gt;cctbx&#45;base</title>
<path fill="none" stroke="black" d="M815.33,-592.41C820.57,-584.08 827.03,-573.8 832.89,-564.49"/>
<polygon fill="black" stroke="black" points="835.89,-566.29 838.25,-555.96 829.96,-562.56 835.89,-566.29"/>
</g>
<!-- soqt&#45;&gt;pivy -->
<g id="edge34" class="edge">
<title>soqt&#45;&gt;pivy</title>
<path fill="none" stroke="black" d="M720.91,-591.7C720.91,-583.98 720.91,-574.71 720.91,-566.11"/>
<polygon fill="black" stroke="black" points="724.41,-566.1 720.91,-556.1 717.41,-566.1 724.41,-566.1"/>
</g>
<!-- r&#45;units -->
<g id="node33" class="node">
<title>r&#45;units</title>
<g id="a_node33"><a xlink:href="https://github.com/conda-forge/r-units-feedstock" xlink:title="r units">
<ellipse fill="#fde725" stroke="black" cx="1501.91" cy="-538" rx="33.29" ry="18"/>
<text text-anchor="middle" x="1501.91" y="-534.3" font-family="Times,serif" font-size="14.00">r units</text>
</a>
</g>
</g>
<!-- r&#45;units&#45;&gt;r&#45;sf -->
<g id="edge35" class="edge">
<title>r&#45;units&#45;&gt;r&#45;sf</title>
<path fill="none" stroke="black" d="M1495.61,-520.05C1492.64,-512.06 1489.03,-502.33 1485.71,-493.4"/>
<polygon fill="black" stroke="black" points="1488.91,-491.94 1482.14,-483.79 1482.34,-494.38 1488.91,-491.94"/>
</g>
<!-- singularity -->
<g id="node34" class="node">
<title>singularity</title>
<g id="a_node34"><a xlink:href="https://github.com/conda-forge/singularity-feedstock" xlink:title="singularity">
<ellipse fill="#fde725" stroke="black" cx="509.91" cy="-18" rx="48.19" ry="18"/>
<text text-anchor="middle" x="509.91" y="-14.3" font-family="Times,serif" font-size="14.00">singularity</text>
</a>
</g>
</g>
<!-- thrift -->
<g id="node35" class="node">
<title>thrift</title>
<g id="a_node35"><a xlink:href="https://github.com/conda-forge/thrift-feedstock/pull/17" xlink:title="thrift ✓">
<ellipse fill="#31688e" stroke="black" cx="1377.91" cy="-206" rx="38.5" ry="18"/>
<text text-anchor="middle" x="1377.91" y="-202.3" font-family="Times,serif" font-size="14.00" fill="white">thrift ✓</text>
</a>
</g>
</g>
<!-- thrift&#45;&gt;fastparquet -->
<g id="edge36" class="edge">
<title>thrift&#45;&gt;fastparquet</title>
<path fill="none" stroke="black" d="M1377.91,-187.7C1377.91,-179.98 1377.91,-170.71 1377.91,-162.11"/>
<polygon fill="black" stroke="black" points="1381.41,-162.1 1377.91,-152.1 1374.41,-162.1 1381.41,-162.1"/>
</g>
<!-- udunits2 -->
<g id="node36" class="node">
<title>udunits2</title>
<g id="a_node36"><a xlink:href="https://github.com/conda-forge/udunits2-feedstock/pull/39" xlink:title="udunits2 ❎">
<ellipse fill="#31688e" stroke="black" cx="1528.91" cy="-610" rx="52.79" ry="18"/>
<text text-anchor="middle" x="1528.91" y="-606.3" font-family="Times,serif" font-size="14.00" fill="white">udunits2 ❎</text>
</a>
</g>
</g>
<!-- udunits2&#45;&gt;r&#45;units -->
<g id="edge37" class="edge">
<title>udunits2&#45;&gt;r&#45;units</title>
<path fill="none" stroke="black" d="M1522.37,-592.05C1519.29,-584.06 1515.53,-574.33 1512.09,-565.4"/>
<polygon fill="black" stroke="black" points="1515.25,-563.86 1508.38,-555.79 1508.72,-566.38 1515.25,-563.86"/>
</g>
<!-- ibm_db -->
<g id="node42" class="node">
<title>ibm_db</title>
<g id="a_node42"><a xlink:href="https://github.com/conda-forge/ibm_db-feedstock/pull/10" xlink:title="ibm_db ❎">
<ellipse fill="#31688e" stroke="black" cx="1096.91" cy="-610" rx="50.09" ry="18"/>
<text text-anchor="middle" x="1096.91" y="-606.3" font-family="Times,serif" font-size="14.00" fill="white">ibm_db ❎</text>
</a>
</g>
</g>
<!-- root_numpy&#45;&gt;ibm_db -->
<!-- tiledb -->
<g id="node38" class="node">
<title>tiledb</title>
<g id="a_node38"><a xlink:href="https://github.com/conda-forge/tiledb-feedstock/pull/80" xlink:title="tiledb ❎">
<ellipse fill="#31688e" stroke="black" cx="1415.91" cy="-610" rx="42.49" ry="18"/>
<text text-anchor="middle" x="1415.91" y="-606.3" font-family="Times,serif" font-size="14.00" fill="white">tiledb ❎</text>
</a>
</g>
</g>
<!-- tiledb&#45;&gt;gdal -->
<g id="edge39" class="edge">
<title>tiledb&#45;&gt;gdal</title>
<path fill="none" stroke="black" d="M1400.02,-593.12C1390.42,-583.51 1378.03,-571.13 1367.54,-560.63"/>
<polygon fill="black" stroke="black" points="1369.85,-557.99 1360.3,-553.39 1364.9,-562.94 1369.85,-557.99"/>
</g>
<!-- libsvm -->
<g id="node39" class="node">
<title>libsvm</title>
<g id="a_node39"><a xlink:href="https://github.com/conda-forge/libsvm-feedstock/pull/16" xlink:title="libsvm ❎">
<ellipse fill="#31688e" stroke="black" cx="908.91" cy="-610" rx="47" ry="18"/>
<text text-anchor="middle" x="908.91" y="-606.3" font-family="Times,serif" font-size="14.00" fill="white">libsvm ❎</text>
</a>
</g>
</g>
<!-- libsvm&#45;&gt;cctbx&#45;base -->
<g id="edge40" class="edge">
<title>libsvm&#45;&gt;cctbx&#45;base</title>
<path fill="none" stroke="black" d="M894.99,-592.76C887.53,-584.06 878.18,-573.15 869.85,-563.43"/>
<polygon fill="black" stroke="black" points="872.33,-560.95 863.16,-555.63 867.01,-565.5 872.33,-560.95"/>
</g>
<!-- occt -->
<g id="node40" class="node">
<title>occt</title>
<g id="a_node40"><a xlink:href="https://github.com/conda-forge/occt-feedstock/pull/59" xlink:title="occt ❎">
<ellipse fill="#31688e" stroke="black" cx="600.91" cy="-610" rx="37.09" ry="18"/>
<text text-anchor="middle" x="600.91" y="-606.3" font-family="Times,serif" font-size="14.00" fill="white">occt ❎</text>
</a>
</g>
</g>
<!-- occt&#45;&gt;pythonocc&#45;core -->
<g id="edge41" class="edge">
<title>occt&#45;&gt;pythonocc&#45;core</title>
<path fill="none" stroke="black" d="M602.14,-591.7C602.69,-583.98 603.36,-574.71 603.97,-566.11"/>
<polygon fill="black" stroke="black" points="607.46,-566.33 604.69,-556.1 600.48,-565.83 607.46,-566.33"/>
</g>
<!-- pytorch&#45;pretrained&#45;bert&#45;&gt;allennlp -->
<g id="edge45" class="edge">
<title>pytorch&#45;pretrained&#45;bert&#45;&gt;allennlp</title>
<path fill="none" stroke="black" d="M138.74,-448.76C156.71,-438.28 180.14,-424.61 198.88,-413.68"/>
<polygon fill="black" stroke="black" points="200.79,-416.62 207.66,-408.56 197.26,-410.57 200.79,-416.62"/>
</g>
<!-- cudatoolkit -->
<g id="node46" class="node">
<title>cudatoolkit</title>
<g id="a_node46"><a xlink:href="https://github.com/conda-forge/cudatoolkit-feedstock/pull/4" xlink:title="cudatoolkit ❎">
<ellipse fill="#31688e" stroke="black" cx="1096.91" cy="-538" rx="61.99" ry="18"/>
<text text-anchor="middle" x="1096.91" y="-534.3" font-family="Times,serif" font-size="14.00" fill="white">cudatoolkit ❎</text>
</a>
</g>
</g>
<!-- ibm_db&#45;&gt;cudatoolkit -->
<!-- go&#45;dep -->
<g id="node43" class="node">
<title>go&#45;dep</title>
<g id="a_node43"><a xlink:href="https://github.com/conda-forge/go-dep-feedstock/pull/12" xlink:title="go dep ❎">
<ellipse fill="#31688e" stroke="black" cx="509.91" cy="-90" rx="46.29" ry="18"/>
<text text-anchor="middle" x="509.91" y="-86.3" font-family="Times,serif" font-size="14.00" fill="white">go dep ❎</text>
</a>
</g>
</g>
<!-- go&#45;dep&#45;&gt;singularity -->
<g id="edge46" class="edge">
<title>go&#45;dep&#45;&gt;singularity</title>
<path fill="none" stroke="black" d="M509.91,-71.7C509.91,-63.98 509.91,-54.71 509.91,-46.11"/>
<polygon fill="black" stroke="black" points="513.41,-46.1 509.91,-36.1 506.41,-46.1 513.41,-46.1"/>
</g>
<!-- procps&#45;ng -->
<g id="node44" class="node">
<title>procps&#45;ng</title>
<g id="a_node44"><a xlink:href="https://github.com/conda-forge/procps-ng-feedstock/pull/3" xlink:title="procps ng ✓">
<ellipse fill="#31688e" stroke="black" cx="1096.91" cy="-206" rx="56" ry="18"/>
<text text-anchor="middle" x="1096.91" y="-202.3" font-family="Times,serif" font-size="14.00" fill="white">procps ng ✓</text>
</a>
</g>
</g>
<!-- myproxy -->
<g id="node45" class="node">
<title>myproxy</title>
<g id="a_node45"><a xlink:href="https://github.com/conda-forge/myproxy-feedstock" xlink:title="myproxy">
<ellipse fill="#fde725" stroke="black" cx="1096.91" cy="-134" rx="43" ry="18"/>
<text text-anchor="middle" x="1096.91" y="-130.3" font-family="Times,serif" font-size="14.00">myproxy</text>
</a>
</g>
</g>
<!-- procps&#45;ng&#45;&gt;myproxy -->
<g id="edge47" class="edge">
<title>procps&#45;ng&#45;&gt;myproxy</title>
<path fill="none" stroke="black" d="M1096.91,-187.7C1096.91,-179.98 1096.91,-170.71 1096.91,-162.11"/>
<polygon fill="black" stroke="black" points="1100.41,-162.1 1096.91,-152.1 1093.41,-162.1 1100.41,-162.1"/>
</g>
<!-- libusb -->
<g id="node47" class="node">
<title>libusb</title>
<g id="a_node47"><a xlink:href="https://github.com/conda-forge/libusb-feedstock/pull/8" xlink:title="libusb ❎">
<ellipse fill="#31688e" stroke="black" cx="1096.91" cy="-466" rx="44.39" ry="18"/>
<text text-anchor="middle" x="1096.91" y="-462.3" font-family="Times,serif" font-size="14.00" fill="white">libusb ❎</text>
</a>
</g>
</g>
<!-- cudatoolkit&#45;&gt;libusb -->
<!-- proj -->
<g id="node48" class="node">
<title>proj</title>
<g id="a_node48"><a xlink:href="https://github.com/conda-forge/proj-feedstock" xlink:title="proj">
<ellipse fill="#35b779" stroke="black" cx="1096.91" cy="-394" rx="27" ry="18"/>
<text text-anchor="middle" x="1096.91" y="-390.3" font-family="Times,serif" font-size="14.00">proj</text>
</a>
</g>
</g>
<!-- libusb&#45;&gt;proj -->
<!-- ompl -->
<g id="node49" class="node">
<title>ompl</title>
<g id="a_node49"><a xlink:href="https://github.com/conda-forge/ompl-feedstock/pull/8" xlink:title="ompl ❎">
<ellipse fill="#31688e" stroke="black" cx="1096.91" cy="-322" rx="41" ry="18"/>
<text text-anchor="middle" x="1096.91" y="-318.3" font-family="Times,serif" font-size="14.00" fill="white">ompl ❎</text>
</a>
</g>
</g>
<!-- proj&#45;&gt;ompl -->
<!-- nordugrid&#45;arc -->
<g id="node51" class="node">
<title>nordugrid&#45;arc</title>
<g id="a_node51"><a xlink:href="https://github.com/conda-forge/nordugrid-arc-feedstock/pull/14" xlink:title="nordugrid arc ❎">
<ellipse fill="#31688e" stroke="black" cx="1096.91" cy="-250" rx="70.39" ry="18"/>
<text text-anchor="middle" x="1096.91" y="-246.3" font-family="Times,serif" font-size="14.00" fill="white">nordugrid arc ❎</text>
</a>
</g>
</g>
<!-- ompl&#45;&gt;nordugrid&#45;arc -->
<!-- nccl -->
<g id="node50" class="node">
<title>nccl</title>
<g id="a_node50"><a xlink:href="https://github.com/conda-forge/nccl-feedstock/pull/29" xlink:title="nccl ❎">
<ellipse fill="#31688e" stroke="black" cx="74.91" cy="-610" rx="37.09" ry="18"/>
<text text-anchor="middle" x="74.91" y="-606.3" font-family="Times,serif" font-size="14.00" fill="white">nccl ❎</text>
</a>
</g>
</g>
<!-- nccl&#45;&gt;pytorch&#45;cpu -->
<g id="edge52" class="edge">
<title>nccl&#45;&gt;pytorch&#45;cpu</title>
<path fill="none" stroke="black" d="M83.44,-592.41C87.64,-584.25 92.79,-574.22 97.5,-565.07"/>
<polygon fill="black" stroke="black" points="100.73,-566.45 102.19,-555.96 94.5,-563.25 100.73,-566.45"/>
</g>
<!-- s2n -->
<g id="node52" class="node">
<title>s2n</title>
<g id="a_node52"><a xlink:href="https://github.com/conda-forge/s2n-feedstock/pull/11" xlink:title="s2n ❎">
<ellipse fill="#31688e" stroke="black" cx="1377.91" cy="-90" rx="34.5" ry="18"/>
<text text-anchor="middle" x="1377.91" y="-86.3" font-family="Times,serif" font-size="14.00" fill="white">s2n ❎</text>
</a>
</g>
</g>
<!-- aws&#45;c&#45;io -->
<g id="node53" class="node">
<title>aws&#45;c&#45;io</title>
<g id="a_node53"><a xlink:href="https://github.com/conda-forge/aws-c-io-feedstock" xlink:title="aws c io">
<ellipse fill="#fde725" stroke="black" cx="1377.91" cy="-18" rx="40.5" ry="18"/>
<text text-anchor="middle" x="1377.91" y="-14.3" font-family="Times,serif" font-size="14.00">aws c io</text>
</a>
</g>
</g>
<!-- s2n&#45;&gt;aws&#45;c&#45;io -->
<g id="edge54" class="edge">
<title>s2n&#45;&gt;aws&#45;c&#45;io</title>
<path fill="none" stroke="black" d="M1377.91,-71.7C1377.91,-63.98 1377.91,-54.71 1377.91,-46.11"/>
<polygon fill="black" stroke="black" points="1381.41,-46.1 1377.91,-36.1 1374.41,-46.1 1381.41,-46.1"/>
</g>
<!-- magma -->
<g id="node54" class="node">
<title>magma</title>
<g id="a_node54"><a xlink:href="https://github.com/conda-forge/magma-feedstock/pull/4" xlink:title="magma ✓">
<ellipse fill="#31688e" stroke="black" cx="139.91" cy="-682" rx="48.19" ry="18"/>
<text text-anchor="middle" x="139.91" y="-678.3" font-family="Times,serif" font-size="14.00" fill="white">magma ✓</text>
</a>
</g>
</g>
<!-- magma&#45;&gt;pytorch&#45;cpu -->
<g id="edge55" class="edge">
<title>magma&#45;&gt;pytorch&#45;cpu</title>
<path fill="none" stroke="black" d="M136.41,-663.87C131.44,-639.56 122.31,-594.82 116.42,-566.01"/>
<polygon fill="black" stroke="black" points="119.85,-565.29 114.42,-556.19 112.99,-566.69 119.85,-565.29"/>
</g>
</g>
</svg>
