<?xml version="1.0" encoding="UTF-8" standalone="no"?>
<!DOCTYPE svg PUBLIC "-//W3C//DTD SVG 1.1//EN"
 "http://www.w3.org/Graphics/SVG/1.1/DTD/svg11.dtd">
<!-- Generated by graphviz version 2.47.0 (20210327.0129)
 -->
<!-- Pages: 1 -->
<svg width="1534pt" height="880pt"
 viewBox="0.00 0.00 1533.63 880.00" xmlns="http://www.w3.org/2000/svg" xmlns:xlink="http://www.w3.org/1999/xlink">
<g id="graph0" class="graph" transform="scale(1 1) rotate(0) translate(4 876)">
<polygon fill="white" stroke="transparent" points="-4,4 -4,-876 1529.63,-876 1529.63,4 -4,4"/>
<!-- elfutils -->
<g id="node1" class="node">
<title>elfutils</title>
<g id="a_node1"><a xlink:href="https://github.com/conda-forge/elfutils-feedstock/pull/20" xlink:title="elfutils ❎">
<ellipse fill="#31688e" stroke="black" cx="368.09" cy="-566" rx="56" ry="18"/>
<text text-anchor="middle" x="368.09" y="-562.3" font-family="Times-Roman" font-size="14.00" fill="white">elfutils ❎</text>
</a>
</g>
</g>
<!-- heaptrack -->
<g id="node2" class="node">
<title>heaptrack</title>
<g id="a_node2"><a xlink:href="https://github.com/conda-forge/heaptrack-feedstock" xlink:title="heaptrack">
<ellipse fill="#fde725" stroke="black" cx="373.09" cy="-494" rx="58" ry="18"/>
<text text-anchor="middle" x="373.09" y="-490.3" font-family="Times-Roman" font-size="14.00">heaptrack</text>
</a>
</g>
</g>
<!-- elfutils&#45;&gt;heaptrack -->
<g id="edge1" class="edge">
<title>elfutils&#45;&gt;heaptrack</title>
<path fill="none" stroke="black" d="M369.32,-547.7C369.87,-539.98 370.54,-530.71 371.15,-522.11"/>
<polygon fill="black" stroke="black" points="374.64,-522.33 371.86,-512.1 367.66,-521.83 374.64,-522.33"/>
</g>
<!-- googleapis&#45;common&#45;protos -->
<g id="node3" class="node">
<title>googleapis&#45;common&#45;protos</title>
<g id="a_node3"><a xlink:href="https://github.com/conda-forge/googleapis-common-protos-feedstock/pull/26" xlink:title="googleapis common protos ❎">
<ellipse fill="#31688e" stroke="black" cx="152.09" cy="-854" rx="152.17" ry="18"/>
<text text-anchor="middle" x="152.09" y="-850.3" font-family="Times-Roman" font-size="14.00" fill="white">googleapis common protos ❎</text>
</a>
</g>
</g>
<!-- root_numpy -->
<g id="node4" class="node">
<title>root_numpy</title>
<g id="a_node4"><a xlink:href="https://github.com/conda-forge/root_numpy-feedstock/pull/21" xlink:title="root_numpy ❎">
<ellipse fill="#31688e" stroke="black" cx="152.09" cy="-782" rx="81.49" ry="18"/>
<text text-anchor="middle" x="152.09" y="-778.3" font-family="Times-Roman" font-size="14.00" fill="white">root_numpy ❎</text>
</a>
</g>
</g>
<!-- googleapis&#45;common&#45;protos&#45;&gt;root_numpy -->
<!-- r&#45;grf -->
<g id="node24" class="node">
<title>r&#45;grf</title>
<g id="a_node24"><a xlink:href="https://github.com/conda-forge/r-grf-feedstock/pull/10" xlink:title="r grf ❎">
<ellipse fill="#31688e" stroke="black" cx="152.09" cy="-710" rx="45" ry="18"/>
<text text-anchor="middle" x="152.09" y="-706.3" font-family="Times-Roman" font-size="14.00" fill="white">r grf ❎</text>
</a>
</g>
</g>
<!-- root_numpy&#45;&gt;r&#45;grf -->
<!-- hyperspy -->
<g id="node5" class="node">
<title>hyperspy</title>
<g id="a_node5"><a xlink:href="https://github.com/conda-forge/hyperspy-feedstock" xlink:title="hyperspy">
<ellipse fill="#fde725" stroke="black" cx="1088.09" cy="-458" rx="54" ry="18"/>
<text text-anchor="middle" x="1088.09" y="-454.3" font-family="Times-Roman" font-size="14.00">hyperspy</text>
</a>
</g>
</g>
<!-- libunwind -->
<g id="node6" class="node">
<title>libunwind</title>
<g id="a_node6"><a xlink:href="https://github.com/conda-forge/libunwind-feedstock/pull/14" xlink:title="libunwind ❎">
<ellipse fill="#31688e" stroke="black" cx="512.09" cy="-566" rx="69.59" ry="18"/>
<text text-anchor="middle" x="512.09" y="-562.3" font-family="Times-Roman" font-size="14.00" fill="white">libunwind ❎</text>
</a>
</g>
</g>
<!-- libunwind&#45;&gt;heaptrack -->
<g id="edge3" class="edge">
<title>libunwind&#45;&gt;heaptrack</title>
<path fill="none" stroke="black" d="M481.58,-549.64C460.88,-539.21 433.36,-525.36 411.22,-514.2"/>
<polygon fill="black" stroke="black" points="412.6,-510.98 402.09,-509.61 409.45,-517.23 412.6,-510.98"/>
</g>
<!-- gperftools -->
<g id="node7" class="node">
<title>gperftools</title>
<g id="a_node7"><a xlink:href="https://github.com/conda-forge/gperftools-feedstock" xlink:title="gperftools">
<ellipse fill="#fde725" stroke="black" cx="509.09" cy="-494" rx="58" ry="18"/>
<text text-anchor="middle" x="509.09" y="-490.3" font-family="Times-Roman" font-size="14.00">gperftools</text>
</a>
</g>
</g>
<!-- libunwind&#45;&gt;gperftools -->
<g id="edge4" class="edge">
<title>libunwind&#45;&gt;gperftools</title>
<path fill="none" stroke="black" d="M511.34,-547.7C511.01,-539.98 510.62,-530.71 510.25,-522.11"/>
<polygon fill="black" stroke="black" points="513.74,-521.95 509.82,-512.1 506.75,-522.25 513.74,-521.95"/>
</g>
<!-- py&#45;spy -->
<g id="node8" class="node">
<title>py&#45;spy</title>
<g id="a_node8"><a xlink:href="https://github.com/conda-forge/py-spy-feedstock/pull/11" xlink:title="py spy ❎">
<ellipse fill="#31688e" stroke="black" cx="627.09" cy="-422" rx="55.49" ry="18"/>
<text text-anchor="middle" x="627.09" y="-418.3" font-family="Times-Roman" font-size="14.00" fill="white">py spy ❎</text>
</a>
</g>
</g>
<!-- libunwind&#45;&gt;py&#45;spy -->
<g id="edge5" class="edge">
<title>libunwind&#45;&gt;py&#45;spy</title>
<path fill="none" stroke="black" d="M535.47,-548.87C548.44,-539.17 564.29,-526.02 576.09,-512 592.3,-492.74 606.16,-467.61 615.32,-448.97"/>
<polygon fill="black" stroke="black" points="618.51,-450.41 619.67,-439.88 612.19,-447.39 618.51,-450.41"/>
</g>
<!-- sentencepiece -->
<g id="node9" class="node">
<title>sentencepiece</title>
<g id="a_node9"><a xlink:href="https://github.com/conda-forge/sentencepiece-feedstock" xlink:title="sentencepiece">
<ellipse fill="#fde725" stroke="black" cx="476.09" cy="-422" rx="78" ry="18"/>
<text text-anchor="middle" x="476.09" y="-418.3" font-family="Times-Roman" font-size="14.00">sentencepiece</text>
</a>
</g>
</g>
<!-- gperftools&#45;&gt;sentencepiece -->
<g id="edge6" class="edge">
<title>gperftools&#45;&gt;sentencepiece</title>
<path fill="none" stroke="black" d="M501.1,-476.05C497.34,-468.09 492.78,-458.41 488.58,-449.51"/>
<polygon fill="black" stroke="black" points="491.66,-447.83 484.23,-440.28 485.33,-450.81 491.66,-447.83"/>
</g>
<!-- allennlp -->
<g id="node23" class="node">
<title>allennlp</title>
<g id="a_node23"><a xlink:href="https://github.com/conda-forge/allennlp-feedstock" xlink:title="allennlp">
<ellipse fill="#fde725" stroke="black" cx="807.09" cy="-350" rx="47.5" ry="18"/>
<text text-anchor="middle" x="807.09" y="-346.3" font-family="Times-Roman" font-size="14.00">allennlp</text>
</a>
</g>
</g>
<!-- sentencepiece&#45;&gt;allennlp -->
<g id="edge20" class="edge">
<title>sentencepiece&#45;&gt;allennlp</title>
<path fill="none" stroke="black" d="M531.49,-409.28C594.29,-396 695.81,-374.53 756.53,-361.69"/>
<polygon fill="black" stroke="black" points="757.59,-365.05 766.65,-359.55 756.14,-358.2 757.59,-365.05"/>
</g>
<!-- pycairo -->
<g id="node10" class="node">
<title>pycairo</title>
<g id="a_node10"><a xlink:href="https://github.com/conda-forge/pycairo-feedstock/pull/23" xlink:title="pycairo ❎">
<ellipse fill="#31688e" stroke="black" cx="152.09" cy="-90" rx="59.29" ry="18"/>
<text text-anchor="middle" x="152.09" y="-86.3" font-family="Times-Roman" font-size="14.00" fill="white">pycairo ❎</text>
</a>
</g>
</g>
<!-- pygobject -->
<g id="node11" class="node">
<title>pygobject</title>
<g id="a_node11"><a xlink:href="https://github.com/conda-forge/pygobject-feedstock" xlink:title="pygobject">
<ellipse fill="#fde725" stroke="black" cx="152.09" cy="-18" rx="56" ry="18"/>
<text text-anchor="middle" x="152.09" y="-14.3" font-family="Times-Roman" font-size="14.00">pygobject</text>
</a>
</g>
</g>
<!-- pycairo&#45;&gt;pygobject -->
<g id="edge7" class="edge">
<title>pycairo&#45;&gt;pygobject</title>
<path fill="none" stroke="black" d="M152.09,-71.7C152.09,-63.98 152.09,-54.71 152.09,-46.11"/>
<polygon fill="black" stroke="black" points="155.59,-46.1 152.09,-36.1 148.59,-46.1 155.59,-46.1"/>
</g>
<!-- pyqt -->
<g id="node12" class="node">
<title>pyqt</title>
<g id="a_node12"><a xlink:href="https://github.com/conda-forge/pyqt-feedstock" xlink:title="pyqt">
<ellipse fill="#fde725" stroke="black" cx="1146.09" cy="-530" rx="31.4" ry="18"/>
<text text-anchor="middle" x="1146.09" y="-526.3" font-family="Times-Roman" font-size="14.00">pyqt</text>
</a>
</g>
</g>
<!-- pyqt&#45;&gt;hyperspy -->
<g id="edge8" class="edge">
<title>pyqt&#45;&gt;hyperspy</title>
<path fill="none" stroke="black" d="M1133.21,-513.46C1125.91,-504.65 1116.61,-493.43 1108.36,-483.46"/>
<polygon fill="black" stroke="black" points="1110.81,-480.93 1101.73,-475.47 1105.42,-485.4 1110.81,-480.93"/>
</g>
<!-- pythonocc&#45;core -->
<g id="node13" class="node">
<title>pythonocc&#45;core</title>
<g id="a_node13"><a xlink:href="https://github.com/conda-forge/pythonocc-core-feedstock" xlink:title="pythonocc core">
<ellipse fill="#fde725" stroke="black" cx="1170.09" cy="-386" rx="82" ry="18"/>
<text text-anchor="middle" x="1170.09" y="-382.3" font-family="Times-Roman" font-size="14.00">pythonocc core</text>
</a>
</g>
</g>
<!-- pyqt&#45;&gt;pythonocc&#45;core -->
<g id="edge9" class="edge">
<title>pyqt&#45;&gt;pythonocc&#45;core</title>
<path fill="none" stroke="black" d="M1148.98,-511.87C1153.07,-487.67 1160.59,-443.21 1165.46,-414.39"/>
<polygon fill="black" stroke="black" points="1168.97,-414.63 1167.18,-404.19 1162.06,-413.47 1168.97,-414.63"/>
</g>
<!-- qt -->
<g id="node14" class="node">
<title>qt</title>
<g id="a_node14"><a xlink:href="https://github.com/conda-forge/qt-feedstock/pull/184" xlink:title="qt ❎">
<ellipse fill="#31688e" stroke="black" cx="1264.09" cy="-602" rx="34.5" ry="18"/>
<text text-anchor="middle" x="1264.09" y="-598.3" font-family="Times-Roman" font-size="14.00" fill="white">qt ❎</text>
</a>
</g>
</g>
<!-- qt&#45;&gt;pyqt -->
<g id="edge10" class="edge">
<title>qt&#45;&gt;pyqt</title>
<path fill="none" stroke="black" d="M1242.17,-588C1223.47,-576.91 1196.43,-560.86 1175.79,-548.62"/>
<polygon fill="black" stroke="black" points="1177.48,-545.55 1167.09,-543.46 1173.91,-551.57 1177.48,-545.55"/>
</g>
<!-- pivy -->
<g id="node15" class="node">
<title>pivy</title>
<g id="a_node15"><a xlink:href="https://github.com/conda-forge/pivy-feedstock" xlink:title="pivy">
<ellipse fill="#fde725" stroke="black" cx="1251.09" cy="-458" rx="30" ry="18"/>
<text text-anchor="middle" x="1251.09" y="-454.3" font-family="Times-Roman" font-size="14.00">pivy</text>
</a>
</g>
</g>
<!-- qt&#45;&gt;pivy -->
<g id="edge11" class="edge">
<title>qt&#45;&gt;pivy</title>
<path fill="none" stroke="black" d="M1248.43,-585.9C1239.4,-576.07 1228.92,-562.43 1224.09,-548 1216.9,-526.56 1225.66,-501.94 1235.07,-484.03"/>
<polygon fill="black" stroke="black" points="1238.39,-485.27 1240.26,-474.84 1232.3,-481.83 1238.39,-485.27"/>
</g>
<!-- pyside2 -->
<g id="node16" class="node">
<title>pyside2</title>
<g id="a_node16"><a xlink:href="https://github.com/conda-forge/pyside2-feedstock" xlink:title="pyside2">
<ellipse fill="#fde725" stroke="black" cx="1360.09" cy="-530" rx="47" ry="18"/>
<text text-anchor="middle" x="1360.09" y="-526.3" font-family="Times-Roman" font-size="14.00">pyside2</text>
</a>
</g>
</g>
<!-- qt&#45;&gt;pyside2 -->
<g id="edge12" class="edge">
<title>qt&#45;&gt;pyside2</title>
<path fill="none" stroke="black" d="M1283.51,-586.83C1297.1,-576.92 1315.5,-563.51 1330.85,-552.31"/>
<polygon fill="black" stroke="black" points="1333,-555.08 1339.02,-546.36 1328.88,-549.42 1333,-555.08"/>
</g>
<!-- soqt -->
<g id="node17" class="node">
<title>soqt</title>
<g id="a_node17"><a xlink:href="https://github.com/conda-forge/soqt-feedstock" xlink:title="soqt">
<ellipse fill="#fde725" stroke="black" cx="1264.09" cy="-530" rx="30.59" ry="18"/>
<text text-anchor="middle" x="1264.09" y="-526.3" font-family="Times-Roman" font-size="14.00">soqt</text>
</a>
</g>
</g>
<!-- qt&#45;&gt;soqt -->
<g id="edge13" class="edge">
<title>qt&#45;&gt;soqt</title>
<path fill="none" stroke="black" d="M1264.09,-583.7C1264.09,-575.98 1264.09,-566.71 1264.09,-558.11"/>
<polygon fill="black" stroke="black" points="1267.59,-558.1 1264.09,-548.1 1260.59,-558.1 1267.59,-558.1"/>
</g>
<!-- geant4 -->
<g id="node18" class="node">
<title>geant4</title>
<g id="a_node18"><a xlink:href="https://github.com/conda-forge/geant4-feedstock" xlink:title="geant4">
<ellipse fill="#fde725" stroke="black" cx="1482.09" cy="-458" rx="43.59" ry="18"/>
<text text-anchor="middle" x="1482.09" y="-454.3" font-family="Times-Roman" font-size="14.00">geant4</text>
</a>
</g>
</g>
<!-- qt&#45;&gt;geant4 -->
<g id="edge14" class="edge">
<title>qt&#45;&gt;geant4</title>
<path fill="none" stroke="black" d="M1296.37,-595.53C1329.06,-588.75 1379.84,-574.66 1416.09,-548 1438.83,-531.27 1457.19,-504.48 1468.71,-484.65"/>
<polygon fill="black" stroke="black" points="1471.82,-486.26 1473.67,-475.82 1465.72,-482.83 1471.82,-486.26"/>
</g>
<!-- pyside2&#45;&gt;pivy -->
<g id="edge15" class="edge">
<title>pyside2&#45;&gt;pivy</title>
<path fill="none" stroke="black" d="M1336.97,-514.15C1320.26,-503.42 1297.58,-488.86 1279.72,-477.39"/>
<polygon fill="black" stroke="black" points="1281.19,-474.17 1270.88,-471.71 1277.4,-480.06 1281.19,-474.17"/>
</g>
<!-- cctbx&#45;base -->
<g id="node19" class="node">
<title>cctbx&#45;base</title>
<g id="a_node19"><a xlink:href="https://github.com/conda-forge/cctbx-base-feedstock" xlink:title="cctbx base">
<ellipse fill="#fde725" stroke="black" cx="1360.09" cy="-458" rx="60.5" ry="18"/>
<text text-anchor="middle" x="1360.09" y="-454.3" font-family="Times-Roman" font-size="14.00">cctbx base</text>
</a>
</g>
</g>
<!-- pyside2&#45;&gt;cctbx&#45;base -->
<g id="edge16" class="edge">
<title>pyside2&#45;&gt;cctbx&#45;base</title>
<path fill="none" stroke="black" d="M1360.09,-511.7C1360.09,-503.98 1360.09,-494.71 1360.09,-486.11"/>
<polygon fill="black" stroke="black" points="1363.59,-486.1 1360.09,-476.1 1356.59,-486.1 1363.59,-486.1"/>
</g>
<!-- soqt&#45;&gt;pivy -->
<g id="edge17" class="edge">
<title>soqt&#45;&gt;pivy</title>
<path fill="none" stroke="black" d="M1260.94,-512.05C1259.51,-504.35 1257.78,-495.03 1256.17,-486.36"/>
<polygon fill="black" stroke="black" points="1259.56,-485.47 1254.29,-476.28 1252.68,-486.75 1259.56,-485.47"/>
</g>
<!-- r&#45;sf -->
<g id="node20" class="node">
<title>r&#45;sf</title>
<g id="a_node20"><a xlink:href="https://github.com/conda-forge/r-sf-feedstock/pull/49" xlink:title="r sf ❎">
<ellipse fill="#31688e" stroke="black" cx="1279.09" cy="-90" rx="40.5" ry="18"/>
<text text-anchor="middle" x="1279.09" y="-86.3" font-family="Times-Roman" font-size="14.00" fill="white">r sf ❎</text>
</a>
</g>
</g>
<!-- r&#45;spdep -->
<g id="node21" class="node">
<title>r&#45;spdep</title>
<g id="a_node21"><a xlink:href="https://github.com/conda-forge/r-spdep-feedstock" xlink:title="r spdep">
<ellipse fill="#fde725" stroke="black" cx="1279.09" cy="-18" rx="46.29" ry="18"/>
<text text-anchor="middle" x="1279.09" y="-14.3" font-family="Times-Roman" font-size="14.00">r spdep</text>
</a>
</g>
</g>
<!-- r&#45;sf&#45;&gt;r&#45;spdep -->
<g id="edge18" class="edge">
<title>r&#45;sf&#45;&gt;r&#45;spdep</title>
<path fill="none" stroke="black" d="M1279.09,-71.7C1279.09,-63.98 1279.09,-54.71 1279.09,-46.11"/>
<polygon fill="black" stroke="black" points="1282.59,-46.1 1279.09,-36.1 1275.59,-46.1 1282.59,-46.1"/>
</g>
<!-- torchvision -->
<g id="node22" class="node">
<title>torchvision</title>
<g id="a_node22"><a xlink:href="https://github.com/conda-forge/torchvision-feedstock" xlink:title="torchvision">
<ellipse fill="#fde725" stroke="black" cx="762.09" cy="-422" rx="61.99" ry="18"/>
<text text-anchor="middle" x="762.09" y="-418.3" font-family="Times-Roman" font-size="14.00">torchvision</text>
</a>
</g>
</g>
<!-- torchvision&#45;&gt;allennlp -->
<g id="edge19" class="edge">
<title>torchvision&#45;&gt;allennlp</title>
<path fill="none" stroke="black" d="M772.98,-404.05C778.34,-395.71 784.91,-385.49 790.85,-376.25"/>
<polygon fill="black" stroke="black" points="793.83,-378.09 796.29,-367.79 787.94,-374.31 793.83,-378.09"/>
</g>
<!-- grpcio&#45;gcp -->
<g id="node26" class="node">
<title>grpcio&#45;gcp</title>
<g id="a_node26"><a xlink:href="https://github.com/conda-forge/grpcio-gcp-feedstock/pull/9" xlink:title="grpcio gcp ❎">
<ellipse fill="#31688e" stroke="black" cx="152.09" cy="-638" rx="73.5" ry="18"/>
<text text-anchor="middle" x="152.09" y="-634.3" font-family="Times-Roman" font-size="14.00" fill="white">grpcio gcp ❎</text>
</a>
</g>
</g>
<!-- r&#45;grf&#45;&gt;grpcio&#45;gcp -->
<!-- pytorch&#45;cpu -->
<g id="node25" class="node">
<title>pytorch&#45;cpu</title>
<g id="a_node25"><a xlink:href="https://github.com/conda-forge/pytorch-cpu-feedstock" xlink:title="pytorch cpu">
<ellipse fill="#fde725" stroke="black" cx="852.09" cy="-494" rx="65.79" ry="18"/>
<text text-anchor="middle" x="852.09" y="-490.3" font-family="Times-Roman" font-size="14.00">pytorch cpu</text>
</a>
</g>
</g>
<!-- pytorch&#45;cpu&#45;&gt;torchvision -->
<g id="edge22" class="edge">
<title>pytorch&#45;cpu&#45;&gt;torchvision</title>
<path fill="none" stroke="black" d="M831.21,-476.76C819.29,-467.49 804.15,-455.71 791.08,-445.55"/>
<polygon fill="black" stroke="black" points="792.89,-442.52 782.85,-439.15 788.59,-448.05 792.89,-442.52"/>
</g>
<!-- pytorch&#45;cpu&#45;&gt;allennlp -->
<g id="edge23" class="edge">
<title>pytorch&#45;cpu&#45;&gt;allennlp</title>
<path fill="none" stroke="black" d="M849.72,-475.93C846.91,-457.76 841.51,-428.34 833.09,-404 829.92,-394.85 825.55,-385.24 821.3,-376.75"/>
<polygon fill="black" stroke="black" points="824.33,-374.99 816.61,-367.73 818.12,-378.22 824.33,-374.99"/>
</g>
<!-- ibm_db -->
<g id="node27" class="node">
<title>ibm_db</title>
<g id="a_node27"><a xlink:href="https://github.com/conda-forge/ibm_db-feedstock/pull/27" xlink:title="ibm_db ❎">
<ellipse fill="#31688e" stroke="black" cx="152.09" cy="-566" rx="59.29" ry="18"/>
<text text-anchor="middle" x="152.09" y="-562.3" font-family="Times-Roman" font-size="14.00" fill="white">ibm_db ❎</text>
</a>
</g>
</g>
<!-- grpcio&#45;gcp&#45;&gt;ibm_db -->
<!-- nvcc -->
<g id="node28" class="node">
<title>nvcc</title>
<g id="a_node28"><a xlink:href="https://github.com/conda-forge/nvcc-feedstock/pull/62" xlink:title="nvcc ✓">
<ellipse fill="#31688e" stroke="black" cx="152.09" cy="-494" rx="42.49" ry="18"/>
<text text-anchor="middle" x="152.09" y="-490.3" font-family="Times-Roman" font-size="14.00" fill="white">nvcc ✓</text>
</a>
</g>
</g>
<!-- ibm_db&#45;&gt;nvcc -->
<!-- proj -->
<g id="node34" class="node">
<title>proj</title>
<g id="a_node34"><a xlink:href="https://github.com/conda-forge/proj-feedstock" xlink:title="proj">
<ellipse fill="#35b779" stroke="black" cx="152.09" cy="-422" rx="28.7" ry="18"/>
<text text-anchor="middle" x="152.09" y="-418.3" font-family="Times-Roman" font-size="14.00">proj</text>
</a>
</g>
</g>
<!-- nvcc&#45;&gt;proj -->
<!-- cudatoolkit -->
<g id="node29" class="node">
<title>cudatoolkit</title>
<g id="a_node29"><a xlink:href="https://github.com/conda-forge/cudatoolkit-feedstock/pull/4" xlink:title="cudatoolkit ❎">
<ellipse fill="#31688e" stroke="black" cx="731.09" cy="-638" rx="76.09" ry="18"/>
<text text-anchor="middle" x="731.09" y="-634.3" font-family="Times-Roman" font-size="14.00" fill="white">cudatoolkit ❎</text>
</a>
</g>
</g>
<!-- cudnn -->
<g id="node30" class="node">
<title>cudnn</title>
<g id="a_node30"><a xlink:href="https://github.com/conda-forge/cudnn-feedstock" xlink:title="cudnn">
<ellipse fill="#fde725" stroke="black" cx="676.09" cy="-566" rx="39" ry="18"/>
<text text-anchor="middle" x="676.09" y="-562.3" font-family="Times-Roman" font-size="14.00">cudnn</text>
</a>
</g>
</g>
<!-- cudatoolkit&#45;&gt;cudnn -->
<g id="edge27" class="edge">
<title>cudatoolkit&#45;&gt;cudnn</title>
<path fill="none" stroke="black" d="M717.77,-620.05C710.99,-611.42 702.61,-600.76 695.15,-591.27"/>
<polygon fill="black" stroke="black" points="697.83,-589.01 688.9,-583.31 692.33,-593.33 697.83,-589.01"/>
</g>
<!-- cutensor -->
<g id="node31" class="node">
<title>cutensor</title>
<g id="a_node31"><a xlink:href="https://github.com/conda-forge/cutensor-feedstock" xlink:title="cutensor">
<ellipse fill="#fde725" stroke="black" cx="785.09" cy="-566" rx="51.5" ry="18"/>
<text text-anchor="middle" x="785.09" y="-562.3" font-family="Times-Roman" font-size="14.00">cutensor</text>
</a>
</g>
</g>
<!-- cudatoolkit&#45;&gt;cutensor -->
<g id="edge28" class="edge">
<title>cudatoolkit&#45;&gt;cutensor</title>
<path fill="none" stroke="black" d="M744.16,-620.05C750.66,-611.63 758.64,-601.28 765.83,-591.97"/>
<polygon fill="black" stroke="black" points="768.8,-593.84 772.13,-583.79 763.26,-589.57 768.8,-593.84"/>
</g>
<!-- cudnn&#45;&gt;torchvision -->
<g id="edge29" class="edge">
<title>cudnn&#45;&gt;torchvision</title>
<path fill="none" stroke="black" d="M686.12,-548.43C700.99,-523.88 729.02,-477.6 746.55,-448.65"/>
<polygon fill="black" stroke="black" points="749.66,-450.27 751.85,-439.9 743.68,-446.64 749.66,-450.27"/>
</g>
<!-- cudnn&#45;&gt;pytorch&#45;cpu -->
<g id="edge30" class="edge">
<title>cudnn&#45;&gt;pytorch&#45;cpu</title>
<path fill="none" stroke="black" d="M704.76,-553.6C732.39,-542.61 774.62,-525.81 806.8,-513.01"/>
<polygon fill="black" stroke="black" points="808.44,-516.13 816.43,-509.18 805.85,-509.62 808.44,-516.13"/>
</g>
<!-- libv8 -->
<g id="node32" class="node">
<title>libv8</title>
<g id="a_node32"><a xlink:href="https://github.com/conda-forge/libv8-feedstock/pull/64" xlink:title="libv8 ❎">
<ellipse fill="#31688e" stroke="black" cx="669.09" cy="-90" rx="47" ry="18"/>
<text text-anchor="middle" x="669.09" y="-86.3" font-family="Times-Roman" font-size="14.00" fill="white">libv8 ❎</text>
</a>
</g>
</g>
<!-- r&#45;v8 -->
<g id="node33" class="node">
<title>r&#45;v8</title>
<g id="a_node33"><a xlink:href="https://github.com/conda-forge/r-v8-feedstock" xlink:title="r v8">
<ellipse fill="#fde725" stroke="black" cx="669.09" cy="-18" rx="28.7" ry="18"/>
<text text-anchor="middle" x="669.09" y="-14.3" font-family="Times-Roman" font-size="14.00">r v8</text>
</a>
</g>
</g>
<!-- libv8&#45;&gt;r&#45;v8 -->
<g id="edge31" class="edge">
<title>libv8&#45;&gt;r&#45;v8</title>
<path fill="none" stroke="black" d="M669.09,-71.7C669.09,-63.98 669.09,-54.71 669.09,-46.11"/>
<polygon fill="black" stroke="black" points="672.59,-46.1 669.09,-36.1 665.59,-46.1 672.59,-46.1"/>
</g>
<!-- jaeger -->
<g id="node35" class="node">
<title>jaeger</title>
<g id="a_node35"><a xlink:href="https://github.com/conda-forge/jaeger-feedstock/pull/12" xlink:title="jaeger ❎">
<ellipse fill="#31688e" stroke="black" cx="152.09" cy="-350" rx="54.69" ry="18"/>
<text text-anchor="middle" x="152.09" y="-346.3" font-family="Times-Roman" font-size="14.00" fill="white">jaeger ❎</text>
</a>
</g>
</g>
<!-- proj&#45;&gt;jaeger -->
<!-- ompl -->
<g id="node37" class="node">
<title>ompl</title>
<g id="a_node37"><a xlink:href="https://github.com/conda-forge/ompl-feedstock/pull/11" xlink:title="ompl ✓">
<ellipse fill="#31688e" stroke="black" cx="152.09" cy="-278" rx="45" ry="18"/>
<text text-anchor="middle" x="152.09" y="-274.3" font-family="Times-Roman" font-size="14.00" fill="white">ompl ✓</text>
</a>
</g>
</g>
<!-- jaeger&#45;&gt;ompl -->
<!-- nccl -->
<g id="node36" class="node">
<title>nccl</title>
<g id="a_node36"><a xlink:href="https://github.com/conda-forge/nccl-feedstock/pull/35" xlink:title="nccl ✓">
<ellipse fill="#31688e" stroke="black" cx="894.09" cy="-566" rx="39.79" ry="18"/>
<text text-anchor="middle" x="894.09" y="-562.3" font-family="Times-Roman" font-size="14.00" fill="white">nccl ✓</text>
</a>
</g>
</g>
<!-- nccl&#45;&gt;pytorch&#45;cpu -->
<g id="edge34" class="edge">
<title>nccl&#45;&gt;pytorch&#45;cpu</title>
<path fill="none" stroke="black" d="M884.13,-548.41C879.18,-540.16 873.09,-530.01 867.55,-520.78"/>
<polygon fill="black" stroke="black" points="870.41,-518.73 862.26,-511.96 864.4,-522.33 870.41,-518.73"/>
</g>
<!-- dm&#45;tree -->
<g id="node38" class="node">
<title>dm&#45;tree</title>
<g id="a_node38"><a xlink:href="https://github.com/conda-forge/dm-tree-feedstock/pull/4" xlink:title="dm tree ❎">
<ellipse fill="#31688e" stroke="black" cx="152.09" cy="-206" rx="61.99" ry="18"/>
<text text-anchor="middle" x="152.09" y="-202.3" font-family="Times-Roman" font-size="14.00" fill="white">dm tree ❎</text>
</a>
</g>
</g>
<!-- ompl&#45;&gt;dm&#45;tree -->
<!-- pyrfr -->
<g id="node40" class="node">
<title>pyrfr</title>
<g id="a_node40"><a xlink:href="https://github.com/conda-forge/pyrfr-feedstock/pull/11" xlink:title="pyrfr ❎">
<ellipse fill="#31688e" stroke="black" cx="152.09" cy="-134" rx="47.5" ry="18"/>
<text text-anchor="middle" x="152.09" y="-130.3" font-family="Times-Roman" font-size="14.00" fill="white">pyrfr ❎</text>
</a>
</g>
</g>
<!-- dm&#45;tree&#45;&gt;pyrfr -->
<!-- tokenizers -->
<g id="node39" class="node">
<title>tokenizers</title>
<g id="a_node39"><a xlink:href="https://github.com/conda-forge/tokenizers-feedstock/pull/18" xlink:title="tokenizers ❎">
<ellipse fill="#31688e" stroke="black" cx="953.09" cy="-422" rx="73" ry="18"/>
<text text-anchor="middle" x="953.09" y="-418.3" font-family="Times-Roman" font-size="14.00" fill="white">tokenizers ❎</text>
</a>
</g>
</g>
<!-- tokenizers&#45;&gt;allennlp -->
<g id="edge37" class="edge">
<title>tokenizers&#45;&gt;allennlp</title>
<path fill="none" stroke="black" d="M921.05,-405.64C898.52,-394.84 868.3,-380.35 844.64,-369"/>
<polygon fill="black" stroke="black" points="846.12,-365.84 835.59,-364.67 843.1,-372.15 846.12,-365.84"/>
</g>
<!-- magma -->
<g id="node41" class="node">
<title>magma</title>
<g id="a_node41"><a xlink:href="https://github.com/conda-forge/magma-feedstock/pull/9" xlink:title="magma ✓">
<ellipse fill="#31688e" stroke="black" cx="962.09" cy="-638" rx="58" ry="18"/>
<text text-anchor="middle" x="962.09" y="-634.3" font-family="Times-Roman" font-size="14.00" fill="white">magma ✓</text>
</a>
</g>
</g>
<!-- magma&#45;&gt;pytorch&#45;cpu -->
<g id="edge39" class="edge">
<title>magma&#45;&gt;pytorch&#45;cpu</title>
<path fill="none" stroke="black" d="M962.41,-619.96C961.93,-600.73 958.56,-569.37 943.09,-548 932.24,-533.02 915.76,-521.61 899.79,-513.28"/>
<polygon fill="black" stroke="black" points="901.01,-509.98 890.49,-508.72 897.93,-516.27 901.01,-509.98"/>
</g>
</g>
</svg>
