<?xml version="1.0" encoding="UTF-8" standalone="no"?>
<!DOCTYPE svg PUBLIC "-//W3C//DTD SVG 1.1//EN"
 "http://www.w3.org/Graphics/SVG/1.1/DTD/svg11.dtd">
<!-- Generated by graphviz version 2.47.1 (20210511.0111)
 -->
<!-- Pages: 1 -->
<svg width="2272pt" height="664pt"
 viewBox="0.00 0.00 2271.50 664.00" xmlns="http://www.w3.org/2000/svg" xmlns:xlink="http://www.w3.org/1999/xlink">
<g id="graph0" class="graph" transform="scale(1 1) rotate(0) translate(4 660)">
<polygon fill="white" stroke="transparent" points="-4,4 -4,-660 2267.5,-660 2267.5,4 -4,4"/>
<!-- check -->
<g id="node1" class="node">
<title>check</title>
<g id="a_node1"><a xlink:href="https://github.com/conda-forge/check-feedstock/pull/19" xlink:title="check ❎">
<ellipse fill="#31688e" stroke="black" cx="51.5" cy="-386" rx="51.5" ry="18"/>
<text text-anchor="middle" x="51.5" y="-382.3" font-family="Times-Roman" font-size="14.00" fill="white">check ❎</text>
</a>
</g>
</g>
<!-- pulseaudio -->
<g id="node2" class="node">
<title>pulseaudio</title>
<g id="a_node2"><a xlink:href="https://github.com/conda-forge/pulseaudio-feedstock" xlink:title="pulseaudio">
<ellipse fill="#fde725" stroke="black" cx="127.5" cy="-314" rx="60" ry="18"/>
<text text-anchor="middle" x="127.5" y="-310.3" font-family="Times-Roman" font-size="14.00">pulseaudio</text>
</a>
</g>
</g>
<!-- check&#45;&gt;pulseaudio -->
<g id="edge1" class="edge">
<title>check&#45;&gt;pulseaudio</title>
<path fill="none" stroke="black" d="M69.13,-368.76C78.94,-359.73 91.32,-348.33 102.15,-338.35"/>
<polygon fill="black" stroke="black" points="104.72,-340.74 109.71,-331.39 99.98,-335.59 104.72,-340.74"/>
</g>
<!-- gqrx -->
<g id="node3" class="node">
<title>gqrx</title>
<g id="a_node3"><a xlink:href="https://github.com/conda-forge/gqrx-feedstock" xlink:title="gqrx">
<ellipse fill="#fde725" stroke="black" cx="255.5" cy="-242" rx="31.4" ry="18"/>
<text text-anchor="middle" x="255.5" y="-238.3" font-family="Times-Roman" font-size="14.00">gqrx</text>
</a>
</g>
</g>
<!-- pulseaudio&#45;&gt;gqrx -->
<g id="edge2" class="edge">
<title>pulseaudio&#45;&gt;gqrx</title>
<path fill="none" stroke="black" d="M154.96,-297.98C175.44,-286.79 203.42,-271.48 224.66,-259.86"/>
<polygon fill="black" stroke="black" points="226.51,-262.84 233.61,-254.97 223.15,-256.7 226.51,-262.84"/>
</g>
<!-- googleapis&#45;common&#45;protos -->
<g id="node4" class="node">
<title>googleapis&#45;common&#45;protos</title>
<g id="a_node4"><a xlink:href="https://github.com/conda-forge/googleapis-common-protos-feedstock/pull/27" xlink:title="googleapis common protos ❎">
<ellipse fill="#31688e" stroke="black" cx="2116.5" cy="-638" rx="147" ry="18"/>
<text text-anchor="middle" x="2116.5" y="-634.3" font-family="Times-Roman" font-size="14.00" fill="white">googleapis common protos ❎</text>
</a>
</g>
</g>
<!-- r&#45;grf -->
<g id="node5" class="node">
<title>r&#45;grf</title>
<g id="a_node5"><a xlink:href="https://github.com/conda-forge/r-grf-feedstock/pull/10" xlink:title="r grf ❎">
<ellipse fill="#31688e" stroke="black" cx="2116.5" cy="-566" rx="45" ry="18"/>
<text text-anchor="middle" x="2116.5" y="-562.3" font-family="Times-Roman" font-size="14.00" fill="white">r grf ❎</text>
</a>
</g>
</g>
<!-- googleapis&#45;common&#45;protos&#45;&gt;r&#45;grf -->
<!-- grpcio&#45;gcp -->
<g id="node34" class="node">
<title>grpcio&#45;gcp</title>
<g id="a_node34"><a xlink:href="https://github.com/conda-forge/grpcio-gcp-feedstock/pull/9" xlink:title="grpcio gcp ❎">
<ellipse fill="#31688e" stroke="black" cx="2116.5" cy="-494" rx="73" ry="18"/>
<text text-anchor="middle" x="2116.5" y="-490.3" font-family="Times-Roman" font-size="14.00" fill="white">grpcio gcp ❎</text>
</a>
</g>
</g>
<!-- r&#45;grf&#45;&gt;grpcio&#45;gcp -->
<!-- hyperspy -->
<g id="node6" class="node">
<title>hyperspy</title>
<g id="a_node6"><a xlink:href="https://github.com/conda-forge/hyperspy-feedstock" xlink:title="hyperspy">
<ellipse fill="#fde725" stroke="black" cx="657.5" cy="-458" rx="53.5" ry="18"/>
<text text-anchor="middle" x="657.5" y="-454.3" font-family="Times-Roman" font-size="14.00">hyperspy</text>
</a>
</g>
</g>
<!-- libunwind -->
<g id="node7" class="node">
<title>libunwind</title>
<g id="a_node7"><a xlink:href="https://github.com/conda-forge/libunwind-feedstock/pull/14" xlink:title="libunwind ❎">
<ellipse fill="#31688e" stroke="black" cx="1447.5" cy="-458" rx="69" ry="18"/>
<text text-anchor="middle" x="1447.5" y="-454.3" font-family="Times-Roman" font-size="14.00" fill="white">libunwind ❎</text>
</a>
</g>
</g>
<!-- gperftools -->
<g id="node8" class="node">
<title>gperftools</title>
<g id="a_node8"><a xlink:href="https://github.com/conda-forge/gperftools-feedstock" xlink:title="gperftools">
<ellipse fill="#fde725" stroke="black" cx="1447.5" cy="-386" rx="56" ry="18"/>
<text text-anchor="middle" x="1447.5" y="-382.3" font-family="Times-Roman" font-size="14.00">gperftools</text>
</a>
</g>
</g>
<!-- libunwind&#45;&gt;gperftools -->
<g id="edge4" class="edge">
<title>libunwind&#45;&gt;gperftools</title>
<path fill="none" stroke="black" d="M1447.5,-439.7C1447.5,-431.98 1447.5,-422.71 1447.5,-414.11"/>
<polygon fill="black" stroke="black" points="1451,-414.1 1447.5,-404.1 1444,-414.1 1451,-414.1"/>
</g>
<!-- py&#45;spy -->
<g id="node9" class="node">
<title>py&#45;spy</title>
<g id="a_node9"><a xlink:href="https://github.com/conda-forge/py-spy-feedstock" xlink:title="py spy">
<ellipse fill="#fde725" stroke="black" cx="1582.5" cy="-314" rx="41" ry="18"/>
<text text-anchor="middle" x="1582.5" y="-310.3" font-family="Times-Roman" font-size="14.00">py spy</text>
</a>
</g>
</g>
<!-- libunwind&#45;&gt;py&#45;spy -->
<g id="edge5" class="edge">
<title>libunwind&#45;&gt;py&#45;spy</title>
<path fill="none" stroke="black" d="M1469.6,-440.93C1482.68,-430.96 1499.23,-417.5 1512.5,-404 1532.24,-383.91 1551.82,-358.42 1565.23,-339.87"/>
<polygon fill="black" stroke="black" points="1568.15,-341.81 1571.11,-331.64 1562.45,-337.74 1568.15,-341.81"/>
</g>
<!-- heaptrack -->
<g id="node10" class="node">
<title>heaptrack</title>
<g id="a_node10"><a xlink:href="https://github.com/conda-forge/heaptrack-feedstock" xlink:title="heaptrack">
<ellipse fill="#fde725" stroke="black" cx="1343.5" cy="-242" rx="56" ry="18"/>
<text text-anchor="middle" x="1343.5" y="-238.3" font-family="Times-Roman" font-size="14.00">heaptrack</text>
</a>
</g>
</g>
<!-- libunwind&#45;&gt;heaptrack -->
<g id="edge6" class="edge">
<title>libunwind&#45;&gt;heaptrack</title>
<path fill="none" stroke="black" d="M1421.36,-441.31C1407.94,-432.02 1392.38,-419.11 1382.5,-404 1355.53,-362.73 1347.19,-304.52 1344.63,-270.58"/>
<polygon fill="black" stroke="black" points="1348.11,-270.22 1343.98,-260.46 1341.12,-270.67 1348.11,-270.22"/>
</g>
<!-- sentencepiece -->
<g id="node11" class="node">
<title>sentencepiece</title>
<g id="a_node11"><a xlink:href="https://github.com/conda-forge/sentencepiece-feedstock" xlink:title="sentencepiece">
<ellipse fill="#fde725" stroke="black" cx="1447.5" cy="-314" rx="75.5" ry="18"/>
<text text-anchor="middle" x="1447.5" y="-310.3" font-family="Times-Roman" font-size="14.00">sentencepiece</text>
</a>
</g>
</g>
<!-- gperftools&#45;&gt;sentencepiece -->
<g id="edge7" class="edge">
<title>gperftools&#45;&gt;sentencepiece</title>
<path fill="none" stroke="black" d="M1447.5,-367.7C1447.5,-359.98 1447.5,-350.71 1447.5,-342.11"/>
<polygon fill="black" stroke="black" points="1451,-342.1 1447.5,-332.1 1444,-342.1 1451,-342.1"/>
</g>
<!-- allennlp -->
<g id="node31" class="node">
<title>allennlp</title>
<g id="a_node31"><a xlink:href="https://github.com/conda-forge/allennlp-feedstock" xlink:title="allennlp">
<ellipse fill="#fde725" stroke="black" cx="1745.5" cy="-242" rx="46.29" ry="18"/>
<text text-anchor="middle" x="1745.5" y="-238.3" font-family="Times-Roman" font-size="14.00">allennlp</text>
</a>
</g>
</g>
<!-- sentencepiece&#45;&gt;allennlp -->
<g id="edge35" class="edge">
<title>sentencepiece&#45;&gt;allennlp</title>
<path fill="none" stroke="black" d="M1499.41,-300.81C1555.02,-287.74 1642.6,-267.17 1696.9,-254.42"/>
<polygon fill="black" stroke="black" points="1698.04,-257.74 1706.97,-252.05 1696.44,-250.93 1698.04,-257.74"/>
</g>
<!-- pyqt -->
<g id="node12" class="node">
<title>pyqt</title>
<g id="a_node12"><a xlink:href="https://github.com/conda-forge/pyqt-feedstock" xlink:title="pyqt">
<ellipse fill="#fde725" stroke="black" cx="651.5" cy="-530" rx="31.4" ry="18"/>
<text text-anchor="middle" x="651.5" y="-526.3" font-family="Times-Roman" font-size="14.00">pyqt</text>
</a>
</g>
</g>
<!-- pyqt&#45;&gt;hyperspy -->
<g id="edge8" class="edge">
<title>pyqt&#45;&gt;hyperspy</title>
<path fill="none" stroke="black" d="M652.98,-511.7C653.64,-503.98 654.44,-494.71 655.18,-486.11"/>
<polygon fill="black" stroke="black" points="658.67,-486.37 656.03,-476.1 651.69,-485.77 658.67,-486.37"/>
</g>
<!-- gnuradio -->
<g id="node13" class="node">
<title>gnuradio</title>
<g id="a_node13"><a xlink:href="https://github.com/conda-forge/gnuradio-feedstock" xlink:title="gnuradio">
<ellipse fill="#fde725" stroke="black" cx="495.5" cy="-458" rx="51.5" ry="18"/>
<text text-anchor="middle" x="495.5" y="-454.3" font-family="Times-Roman" font-size="14.00">gnuradio</text>
</a>
</g>
</g>
<!-- pyqt&#45;&gt;gnuradio -->
<g id="edge9" class="edge">
<title>pyqt&#45;&gt;gnuradio</title>
<path fill="none" stroke="black" d="M627.47,-518.22C602.97,-507.22 564.55,-489.98 535.47,-476.93"/>
<polygon fill="black" stroke="black" points="536.55,-473.58 526,-472.68 533.69,-479.97 536.55,-473.58"/>
</g>
<!-- pythonocc&#45;core -->
<g id="node14" class="node">
<title>pythonocc&#45;core</title>
<g id="a_node14"><a xlink:href="https://github.com/conda-forge/pythonocc-core-feedstock" xlink:title="pythonocc core">
<ellipse fill="#fde725" stroke="black" cx="640.5" cy="-386" rx="79.5" ry="18"/>
<text text-anchor="middle" x="640.5" y="-382.3" font-family="Times-Roman" font-size="14.00">pythonocc core</text>
</a>
</g>
</g>
<!-- pyqt&#45;&gt;pythonocc&#45;core -->
<g id="edge10" class="edge">
<title>pyqt&#45;&gt;pythonocc&#45;core</title>
<path fill="none" stroke="black" d="M631.15,-516.21C618.28,-506.84 602.75,-492.84 595.5,-476 589.17,-461.3 589.98,-455.02 595.5,-440 599.41,-429.35 606.51,-419.38 613.94,-411.02"/>
<polygon fill="black" stroke="black" points="616.7,-413.19 621.06,-403.54 611.63,-408.37 616.7,-413.19"/>
</g>
<!-- gnuradio&#45;&gt;gqrx -->
<g id="edge11" class="edge">
<title>gnuradio&#45;&gt;gqrx</title>
<path fill="none" stroke="black" d="M491.54,-439.9C482.61,-402.73 460.02,-316.3 438.5,-296 427.84,-285.94 344.18,-264.4 293.74,-252.1"/>
<polygon fill="black" stroke="black" points="294.37,-248.65 283.82,-249.69 292.72,-255.45 294.37,-248.65"/>
</g>
<!-- digital_rf -->
<g id="node15" class="node">
<title>digital_rf</title>
<g id="a_node15"><a xlink:href="https://github.com/conda-forge/digital_rf-feedstock" xlink:title="digital_rf">
<ellipse fill="#fde725" stroke="black" cx="379.5" cy="-386" rx="50.09" ry="18"/>
<text text-anchor="middle" x="379.5" y="-382.3" font-family="Times-Roman" font-size="14.00">digital_rf</text>
</a>
</g>
</g>
<!-- gnuradio&#45;&gt;digital_rf -->
<g id="edge12" class="edge">
<title>gnuradio&#45;&gt;digital_rf</title>
<path fill="none" stroke="black" d="M470.9,-442.15C453.98,-431.95 431.31,-418.27 412.79,-407.09"/>
<polygon fill="black" stroke="black" points="414.44,-403.99 404.07,-401.82 410.82,-409.99 414.44,-403.99"/>
</g>
<!-- gnuradio&#45;osmosdr -->
<g id="node16" class="node">
<title>gnuradio&#45;osmosdr</title>
<g id="a_node16"><a xlink:href="https://github.com/conda-forge/gnuradio-osmosdr-feedstock" xlink:title="gnuradio osmosdr">
<ellipse fill="#fde725" stroke="black" cx="336.5" cy="-314" rx="93" ry="18"/>
<text text-anchor="middle" x="336.5" y="-310.3" font-family="Times-Roman" font-size="14.00">gnuradio osmosdr</text>
</a>
</g>
</g>
<!-- gnuradio&#45;&gt;gnuradio&#45;osmosdr -->
<g id="edge13" class="edge">
<title>gnuradio&#45;&gt;gnuradio&#45;osmosdr</title>
<path fill="none" stroke="black" d="M443.7,-456.84C402.98,-453.63 348.59,-441.86 320.5,-404 307.14,-385.99 313.67,-360.36 322.06,-341.23"/>
<polygon fill="black" stroke="black" points="325.24,-342.69 326.38,-332.16 318.92,-339.68 325.24,-342.69"/>
</g>
<!-- gnuradio&#45;soapy -->
<g id="node17" class="node">
<title>gnuradio&#45;soapy</title>
<g id="a_node17"><a xlink:href="https://github.com/conda-forge/gnuradio-soapy-feedstock" xlink:title="gnuradio soapy">
<ellipse fill="#fde725" stroke="black" cx="424.5" cy="-242" rx="81.49" ry="18"/>
<text text-anchor="middle" x="424.5" y="-238.3" font-family="Times-Roman" font-size="14.00">gnuradio soapy</text>
</a>
</g>
</g>
<!-- gnuradio&#45;&gt;gnuradio&#45;soapy -->
<g id="edge14" class="edge">
<title>gnuradio&#45;&gt;gnuradio&#45;soapy</title>
<path fill="none" stroke="black" d="M496.07,-439.63C496.41,-409.09 494.09,-344.4 471.5,-296 466.56,-285.42 458.82,-275.4 451.04,-266.98"/>
<polygon fill="black" stroke="black" points="453.45,-264.43 443.96,-259.72 448.44,-269.32 453.45,-264.43"/>
</g>
<!-- gnuradio&#45;satellites -->
<g id="node18" class="node">
<title>gnuradio&#45;satellites</title>
<g id="a_node18"><a xlink:href="https://github.com/conda-forge/gnuradio-satellites-feedstock" xlink:title="gnuradio satellites">
<ellipse fill="#fde725" stroke="black" cx="533.5" cy="-170" rx="94.48" ry="18"/>
<text text-anchor="middle" x="533.5" y="-166.3" font-family="Times-Roman" font-size="14.00">gnuradio satellites</text>
</a>
</g>
</g>
<!-- gnuradio&#45;&gt;gnuradio&#45;satellites -->
<g id="edge15" class="edge">
<title>gnuradio&#45;&gt;gnuradio&#45;satellites</title>
<path fill="none" stroke="black" d="M499.46,-439.89C501.75,-429.54 504.55,-416.06 506.5,-404 518.46,-329.88 527.2,-241.66 531.15,-198.1"/>
<polygon fill="black" stroke="black" points="534.65,-198.3 532.05,-188.03 527.68,-197.68 534.65,-198.3"/>
</g>
<!-- gnuradio&#45;osmosdr&#45;&gt;gqrx -->
<g id="edge52" class="edge">
<title>gnuradio&#45;osmosdr&#45;&gt;gqrx</title>
<path fill="none" stroke="black" d="M316.89,-296.05C305.78,-286.46 291.79,-274.36 279.97,-264.14"/>
<polygon fill="black" stroke="black" points="282.05,-261.31 272.19,-257.42 277.47,-266.61 282.05,-261.31"/>
</g>
<!-- qt -->
<g id="node19" class="node">
<title>qt</title>
<g id="a_node19"><a xlink:href="https://github.com/conda-forge/qt-feedstock/pull/184" xlink:title="qt ❎">
<ellipse fill="#31688e" stroke="black" cx="739.5" cy="-602" rx="34.5" ry="18"/>
<text text-anchor="middle" x="739.5" y="-598.3" font-family="Times-Roman" font-size="14.00" fill="white">qt ❎</text>
</a>
</g>
</g>
<!-- qt&#45;&gt;gqrx -->
<g id="edge24" class="edge">
<title>qt&#45;&gt;gqrx</title>
<path fill="none" stroke="black" d="M705.12,-599.14C588.54,-591.9 215.5,-560.79 215.5,-459 215.5,-459 215.5,-459 215.5,-385 215.5,-343.26 231.71,-297.11 243.5,-269.08"/>
<polygon fill="black" stroke="black" points="246.83,-270.19 247.6,-259.62 240.41,-267.4 246.83,-270.19"/>
</g>
<!-- qt&#45;&gt;pyqt -->
<g id="edge16" class="edge">
<title>qt&#45;&gt;pyqt</title>
<path fill="none" stroke="black" d="M721.27,-586.5C708.47,-576.32 691.19,-562.57 677.03,-551.31"/>
<polygon fill="black" stroke="black" points="679.11,-548.49 669.11,-545.01 674.76,-553.97 679.11,-548.49"/>
</g>
<!-- qt&#45;&gt;gnuradio -->
<g id="edge17" class="edge">
<title>qt&#45;&gt;gnuradio</title>
<path fill="none" stroke="black" d="M711.04,-591.64C684.42,-582.34 644,-566.76 611.5,-548 578.22,-528.79 543.73,-501.17 521.1,-481.81"/>
<polygon fill="black" stroke="black" points="523.18,-478.98 513.32,-475.08 518.6,-484.27 523.18,-478.98"/>
</g>
<!-- qwt -->
<g id="node20" class="node">
<title>qwt</title>
<g id="a_node20"><a xlink:href="https://github.com/conda-forge/qwt-feedstock" xlink:title="qwt">
<ellipse fill="#fde725" stroke="black" cx="501.5" cy="-530" rx="27.5" ry="18"/>
<text text-anchor="middle" x="501.5" y="-526.3" font-family="Times-Roman" font-size="14.00">qwt</text>
</a>
</g>
</g>
<!-- qt&#45;&gt;qwt -->
<g id="edge18" class="edge">
<title>qt&#45;&gt;qwt</title>
<path fill="none" stroke="black" d="M709.84,-592.28C665.61,-579.27 582.57,-554.84 535.79,-541.09"/>
<polygon fill="black" stroke="black" points="536.69,-537.7 526.11,-538.24 534.72,-544.42 536.69,-537.7"/>
</g>
<!-- pivy -->
<g id="node21" class="node">
<title>pivy</title>
<g id="a_node21"><a xlink:href="https://github.com/conda-forge/pivy-feedstock" xlink:title="pivy">
<ellipse fill="#fde725" stroke="black" cx="767.5" cy="-386" rx="30" ry="18"/>
<text text-anchor="middle" x="767.5" y="-382.3" font-family="Times-Roman" font-size="14.00">pivy</text>
</a>
</g>
</g>
<!-- qt&#45;&gt;pivy -->
<g id="edge19" class="edge">
<title>qt&#45;&gt;pivy</title>
<path fill="none" stroke="black" d="M741.26,-583.57C744.32,-553.99 751.01,-492.1 758.5,-440 759.71,-431.56 761.21,-422.38 762.63,-414.08"/>
<polygon fill="black" stroke="black" points="766.09,-414.6 764.36,-404.15 759.19,-413.4 766.09,-414.6"/>
</g>
<!-- pyside2 -->
<g id="node22" class="node">
<title>pyside2</title>
<g id="a_node22"><a xlink:href="https://github.com/conda-forge/pyside2-feedstock" xlink:title="pyside2">
<ellipse fill="#fde725" stroke="black" cx="893.5" cy="-458" rx="46.29" ry="18"/>
<text text-anchor="middle" x="893.5" y="-454.3" font-family="Times-Roman" font-size="14.00">pyside2</text>
</a>
</g>
</g>
<!-- qt&#45;&gt;pyside2 -->
<g id="edge20" class="edge">
<title>qt&#45;&gt;pyside2</title>
<path fill="none" stroke="black" d="M755.69,-586.07C782.6,-561.26 836.72,-511.36 868.54,-482.01"/>
<polygon fill="black" stroke="black" points="871.14,-484.38 876.12,-475.02 866.4,-479.23 871.14,-484.38"/>
</g>
<!-- soqt -->
<g id="node23" class="node">
<title>soqt</title>
<g id="a_node23"><a xlink:href="https://github.com/conda-forge/soqt-feedstock" xlink:title="soqt">
<ellipse fill="#fde725" stroke="black" cx="798.5" cy="-458" rx="30.59" ry="18"/>
<text text-anchor="middle" x="798.5" y="-454.3" font-family="Times-Roman" font-size="14.00">soqt</text>
</a>
</g>
</g>
<!-- qt&#45;&gt;soqt -->
<g id="edge21" class="edge">
<title>qt&#45;&gt;soqt</title>
<path fill="none" stroke="black" d="M746.5,-584.15C756.66,-559.71 775.58,-514.17 787.58,-485.29"/>
<polygon fill="black" stroke="black" points="790.9,-486.4 791.51,-475.82 784.44,-483.72 790.9,-486.4"/>
</g>
<!-- freecad -->
<g id="node24" class="node">
<title>freecad</title>
<g id="a_node24"><a xlink:href="https://github.com/conda-forge/freecad-feedstock" xlink:title="freecad">
<ellipse fill="#fde725" stroke="black" cx="908.5" cy="-314" rx="44.39" ry="18"/>
<text text-anchor="middle" x="908.5" y="-310.3" font-family="Times-Roman" font-size="14.00">freecad</text>
</a>
</g>
</g>
<!-- qt&#45;&gt;freecad -->
<g id="edge22" class="edge">
<title>qt&#45;&gt;freecad</title>
<path fill="none" stroke="black" d="M772.08,-596.06C860.69,-581.9 1102.51,-538.15 1148.5,-476 1167.05,-450.94 1133.66,-373.88 1127.5,-368 1103.81,-345.38 1017.42,-329.68 960.48,-321.52"/>
<polygon fill="black" stroke="black" points="960.95,-318.05 950.56,-320.13 959.98,-324.98 960.95,-318.05"/>
</g>
<!-- geant4 -->
<g id="node25" class="node">
<title>geant4</title>
<g id="a_node25"><a xlink:href="https://github.com/conda-forge/geant4-feedstock" xlink:title="geant4">
<ellipse fill="#fde725" stroke="black" cx="1237.5" cy="-386" rx="42.49" ry="18"/>
<text text-anchor="middle" x="1237.5" y="-382.3" font-family="Times-Roman" font-size="14.00">geant4</text>
</a>
</g>
</g>
<!-- qt&#45;&gt;geant4 -->
<g id="edge23" class="edge">
<title>qt&#45;&gt;geant4</title>
<path fill="none" stroke="black" d="M774.02,-601.43C866.84,-601.88 1118.96,-598.34 1181.5,-548 1222.14,-515.29 1233.36,-451.3 1236.41,-414.61"/>
<polygon fill="black" stroke="black" points="1239.94,-414.38 1237.12,-404.16 1232.95,-413.9 1239.94,-414.38"/>
</g>
<!-- qwt&#45;&gt;gnuradio -->
<g id="edge25" class="edge">
<title>qwt&#45;&gt;gnuradio</title>
<path fill="none" stroke="black" d="M500.02,-511.7C499.36,-503.98 498.56,-494.71 497.82,-486.11"/>
<polygon fill="black" stroke="black" points="501.31,-485.77 496.97,-476.1 494.33,-486.37 501.31,-485.77"/>
</g>
<!-- pivy&#45;&gt;freecad -->
<g id="edge26" class="edge">
<title>pivy&#45;&gt;freecad</title>
<path fill="none" stroke="black" d="M789.84,-373.91C811.97,-362.92 846.23,-345.91 872.26,-332.99"/>
<polygon fill="black" stroke="black" points="874.04,-336.02 881.44,-328.43 870.93,-329.75 874.04,-336.02"/>
</g>
<!-- pyside2&#45;&gt;pivy -->
<g id="edge27" class="edge">
<title>pyside2&#45;&gt;pivy</title>
<path fill="none" stroke="black" d="M868,-442.83C847.71,-431.56 819.25,-415.75 797.79,-403.83"/>
<polygon fill="black" stroke="black" points="799.22,-400.62 788.78,-398.82 795.82,-406.74 799.22,-400.62"/>
</g>
<!-- pyside2&#45;&gt;freecad -->
<g id="edge28" class="edge">
<title>pyside2&#45;&gt;freecad</title>
<path fill="none" stroke="black" d="M873.39,-441.7C862.6,-432.19 850.35,-418.94 844.5,-404 838.67,-389.1 837.69,-382.48 844.5,-368 850.87,-354.45 862.6,-343.17 874.29,-334.55"/>
<polygon fill="black" stroke="black" points="876.47,-337.31 882.72,-328.76 872.5,-331.54 876.47,-337.31"/>
</g>
<!-- cctbx&#45;base -->
<g id="node26" class="node">
<title>cctbx&#45;base</title>
<g id="a_node26"><a xlink:href="https://github.com/conda-forge/cctbx-base-feedstock" xlink:title="cctbx base">
<ellipse fill="#fde725" stroke="black" cx="1041.5" cy="-386" rx="60" ry="18"/>
<text text-anchor="middle" x="1041.5" y="-382.3" font-family="Times-Roman" font-size="14.00">cctbx base</text>
</a>
</g>
</g>
<!-- pyside2&#45;&gt;cctbx&#45;base -->
<g id="edge29" class="edge">
<title>pyside2&#45;&gt;cctbx&#45;base</title>
<path fill="none" stroke="black" d="M921.69,-443.67C944.29,-432.98 976.31,-417.83 1001.56,-405.89"/>
<polygon fill="black" stroke="black" points="1003.32,-408.93 1010.87,-401.49 1000.33,-402.6 1003.32,-408.93"/>
</g>
<!-- soqt&#45;&gt;pivy -->
<g id="edge30" class="edge">
<title>soqt&#45;&gt;pivy</title>
<path fill="none" stroke="black" d="M791.15,-440.41C787.49,-432.13 782.97,-421.92 778.86,-412.66"/>
<polygon fill="black" stroke="black" points="782.04,-411.2 774.79,-403.47 775.64,-414.03 782.04,-411.2"/>
</g>
<!-- r&#45;sf -->
<g id="node27" class="node">
<title>r&#45;sf</title>
<g id="a_node27"><a xlink:href="https://github.com/conda-forge/r-sf-feedstock/pull/49" xlink:title="r sf ❎">
<ellipse fill="#31688e" stroke="black" cx="1624.5" cy="-90" rx="40.5" ry="18"/>
<text text-anchor="middle" x="1624.5" y="-86.3" font-family="Times-Roman" font-size="14.00" fill="white">r sf ❎</text>
</a>
</g>
</g>
<!-- r&#45;spdep -->
<g id="node28" class="node">
<title>r&#45;spdep</title>
<g id="a_node28"><a xlink:href="https://github.com/conda-forge/r-spdep-feedstock" xlink:title="r spdep">
<ellipse fill="#fde725" stroke="black" cx="1624.5" cy="-18" rx="45.5" ry="18"/>
<text text-anchor="middle" x="1624.5" y="-14.3" font-family="Times-Roman" font-size="14.00">r spdep</text>
</a>
</g>
</g>
<!-- r&#45;sf&#45;&gt;r&#45;spdep -->
<g id="edge31" class="edge">
<title>r&#45;sf&#45;&gt;r&#45;spdep</title>
<path fill="none" stroke="black" d="M1624.5,-71.7C1624.5,-63.98 1624.5,-54.71 1624.5,-46.11"/>
<polygon fill="black" stroke="black" points="1628,-46.1 1624.5,-36.1 1621,-46.1 1628,-46.1"/>
</g>
<!-- speex -->
<g id="node29" class="node">
<title>speex</title>
<g id="a_node29"><a xlink:href="https://github.com/conda-forge/speex-feedstock/pull/7" xlink:title="speex ❎">
<ellipse fill="#31688e" stroke="black" cx="131.5" cy="-458" rx="52" ry="18"/>
<text text-anchor="middle" x="131.5" y="-454.3" font-family="Times-Roman" font-size="14.00" fill="white">speex ❎</text>
</a>
</g>
</g>
<!-- speex&#45;&gt;pulseaudio -->
<g id="edge32" class="edge">
<title>speex&#45;&gt;pulseaudio</title>
<path fill="none" stroke="black" d="M131.02,-439.87C130.34,-415.67 129.08,-371.21 128.27,-342.39"/>
<polygon fill="black" stroke="black" points="131.76,-342.09 127.98,-332.19 124.77,-342.28 131.76,-342.09"/>
</g>
<!-- torchvision -->
<g id="node30" class="node">
<title>torchvision</title>
<g id="a_node30"><a xlink:href="https://github.com/conda-forge/torchvision-feedstock" xlink:title="torchvision">
<ellipse fill="#fde725" stroke="black" cx="1701.5" cy="-314" rx="60" ry="18"/>
<text text-anchor="middle" x="1701.5" y="-310.3" font-family="Times-Roman" font-size="14.00">torchvision</text>
</a>
</g>
</g>
<!-- torchvision&#45;&gt;allennlp -->
<g id="edge33" class="edge">
<title>torchvision&#45;&gt;allennlp</title>
<path fill="none" stroke="black" d="M1712.15,-296.05C1717.34,-287.8 1723.69,-277.7 1729.45,-268.54"/>
<polygon fill="black" stroke="black" points="1732.59,-270.12 1734.95,-259.79 1726.66,-266.39 1732.59,-270.12"/>
</g>
<!-- smesh -->
<g id="node32" class="node">
<title>smesh</title>
<g id="a_node32"><a xlink:href="https://github.com/conda-forge/smesh-feedstock/pull/44" xlink:title="smesh ❎">
<ellipse fill="#31688e" stroke="black" cx="908.5" cy="-386" rx="54.69" ry="18"/>
<text text-anchor="middle" x="908.5" y="-382.3" font-family="Times-Roman" font-size="14.00" fill="white">smesh ❎</text>
</a>
</g>
</g>
<!-- smesh&#45;&gt;freecad -->
<g id="edge34" class="edge">
<title>smesh&#45;&gt;freecad</title>
<path fill="none" stroke="black" d="M908.5,-367.7C908.5,-359.98 908.5,-350.71 908.5,-342.11"/>
<polygon fill="black" stroke="black" points="912,-342.1 908.5,-332.1 905,-342.1 912,-342.1"/>
</g>
<!-- pytorch&#45;cpu -->
<g id="node33" class="node">
<title>pytorch&#45;cpu</title>
<g id="a_node33"><a xlink:href="https://github.com/conda-forge/pytorch-cpu-feedstock" xlink:title="pytorch cpu">
<ellipse fill="#fde725" stroke="black" cx="1789.5" cy="-386" rx="64.5" ry="18"/>
<text text-anchor="middle" x="1789.5" y="-382.3" font-family="Times-Roman" font-size="14.00">pytorch cpu</text>
</a>
</g>
</g>
<!-- pytorch&#45;cpu&#45;&gt;torchvision -->
<g id="edge36" class="edge">
<title>pytorch&#45;cpu&#45;&gt;torchvision</title>
<path fill="none" stroke="black" d="M1769.09,-368.76C1757.43,-359.49 1742.63,-347.71 1729.85,-337.55"/>
<polygon fill="black" stroke="black" points="1731.8,-334.63 1721.8,-331.15 1727.45,-340.11 1731.8,-334.63"/>
</g>
<!-- pytorch&#45;cpu&#45;&gt;allennlp -->
<g id="edge37" class="edge">
<title>pytorch&#45;cpu&#45;&gt;allennlp</title>
<path fill="none" stroke="black" d="M1787.06,-367.96C1784.19,-349.81 1778.74,-320.4 1770.5,-296 1767.43,-286.9 1763.22,-277.29 1759.13,-268.8"/>
<polygon fill="black" stroke="black" points="1762.22,-267.16 1754.63,-259.77 1755.96,-270.28 1762.22,-267.16"/>
</g>
<!-- ibm_db -->
<g id="node37" class="node">
<title>ibm_db</title>
<g id="a_node37"><a xlink:href="https://github.com/conda-forge/ibm_db-feedstock/pull/27" xlink:title="ibm_db ❎">
<ellipse fill="#31688e" stroke="black" cx="2116.5" cy="-422" rx="58" ry="18"/>
<text text-anchor="middle" x="2116.5" y="-418.3" font-family="Times-Roman" font-size="14.00" fill="white">ibm_db ❎</text>
</a>
</g>
</g>
<!-- grpcio&#45;gcp&#45;&gt;ibm_db -->
<!-- vim -->
<g id="node35" class="node">
<title>vim</title>
<g id="a_node35"><a xlink:href="https://github.com/conda-forge/vim-feedstock/pull/1224" xlink:title="vim ❎">
<ellipse fill="#31688e" stroke="black" cx="2116.5" cy="-90" rx="41.69" ry="18"/>
<text text-anchor="middle" x="2116.5" y="-86.3" font-family="Times-Roman" font-size="14.00" fill="white">vim ❎</text>
</a>
</g>
</g>
<!-- plumed -->
<g id="node36" class="node">
<title>plumed</title>
<g id="a_node36"><a xlink:href="https://github.com/conda-forge/plumed-feedstock" xlink:title="plumed">
<ellipse fill="#fde725" stroke="black" cx="2116.5" cy="-18" rx="45" ry="18"/>
<text text-anchor="middle" x="2116.5" y="-14.3" font-family="Times-Roman" font-size="14.00">plumed</text>
</a>
</g>
</g>
<!-- vim&#45;&gt;plumed -->
<g id="edge39" class="edge">
<title>vim&#45;&gt;plumed</title>
<path fill="none" stroke="black" d="M2116.5,-71.7C2116.5,-63.98 2116.5,-54.71 2116.5,-46.11"/>
<polygon fill="black" stroke="black" points="2120,-46.1 2116.5,-36.1 2113,-46.1 2120,-46.1"/>
</g>
<!-- nvcc -->
<g id="node38" class="node">
<title>nvcc</title>
<g id="a_node38"><a xlink:href="https://github.com/conda-forge/nvcc-feedstock/pull/67" xlink:title="nvcc ✓">
<ellipse fill="#31688e" stroke="black" cx="2116.5" cy="-350" rx="42.49" ry="18"/>
<text text-anchor="middle" x="2116.5" y="-346.3" font-family="Times-Roman" font-size="14.00" fill="white">nvcc ✓</text>
</a>
</g>
</g>
<!-- ibm_db&#45;&gt;nvcc -->
<!-- proj -->
<g id="node45" class="node">
<title>proj</title>
<g id="a_node45"><a xlink:href="https://github.com/conda-forge/proj-feedstock" xlink:title="proj">
<ellipse fill="#35b779" stroke="black" cx="2116.5" cy="-278" rx="28" ry="18"/>
<text text-anchor="middle" x="2116.5" y="-274.3" font-family="Times-Roman" font-size="14.00">proj</text>
</a>
</g>
</g>
<!-- nvcc&#45;&gt;proj -->
<!-- cudatoolkit -->
<g id="node39" class="node">
<title>cudatoolkit</title>
<g id="a_node39"><a xlink:href="https://github.com/conda-forge/cudatoolkit-feedstock/pull/4" xlink:title="cudatoolkit ❎">
<ellipse fill="#31688e" stroke="black" cx="1640.5" cy="-530" rx="74.99" ry="18"/>
<text text-anchor="middle" x="1640.5" y="-526.3" font-family="Times-Roman" font-size="14.00" fill="white">cudatoolkit ❎</text>
</a>
</g>
</g>
<!-- cudnn -->
<g id="node40" class="node">
<title>cudnn</title>
<g id="a_node40"><a xlink:href="https://github.com/conda-forge/cudnn-feedstock" xlink:title="cudnn">
<ellipse fill="#fde725" stroke="black" cx="1693.5" cy="-458" rx="39" ry="18"/>
<text text-anchor="middle" x="1693.5" y="-454.3" font-family="Times-Roman" font-size="14.00">cudnn</text>
</a>
</g>
</g>
<!-- cudatoolkit&#45;&gt;cudnn -->
<g id="edge42" class="edge">
<title>cudatoolkit&#45;&gt;cudnn</title>
<path fill="none" stroke="black" d="M1653.33,-512.05C1659.8,-503.5 1667.78,-492.97 1674.91,-483.56"/>
<polygon fill="black" stroke="black" points="1677.91,-485.39 1681.15,-475.31 1672.33,-481.17 1677.91,-485.39"/>
</g>
<!-- cutensor -->
<g id="node41" class="node">
<title>cutensor</title>
<g id="a_node41"><a xlink:href="https://github.com/conda-forge/cutensor-feedstock" xlink:title="cutensor">
<ellipse fill="#fde725" stroke="black" cx="1586.5" cy="-458" rx="50.09" ry="18"/>
<text text-anchor="middle" x="1586.5" y="-454.3" font-family="Times-Roman" font-size="14.00">cutensor</text>
</a>
</g>
</g>
<!-- cudatoolkit&#45;&gt;cutensor -->
<g id="edge43" class="edge">
<title>cudatoolkit&#45;&gt;cutensor</title>
<path fill="none" stroke="black" d="M1627.43,-512.05C1620.93,-503.63 1612.94,-493.28 1605.76,-483.97"/>
<polygon fill="black" stroke="black" points="1608.33,-481.57 1599.45,-475.79 1602.79,-485.84 1608.33,-481.57"/>
</g>
<!-- cudnn&#45;&gt;torchvision -->
<g id="edge44" class="edge">
<title>cudnn&#45;&gt;torchvision</title>
<path fill="none" stroke="black" d="M1694.46,-439.87C1695.83,-415.67 1698.33,-371.21 1699.96,-342.39"/>
<polygon fill="black" stroke="black" points="1703.46,-342.37 1700.53,-332.19 1696.47,-341.98 1703.46,-342.37"/>
</g>
<!-- cudnn&#45;&gt;pytorch&#45;cpu -->
<g id="edge45" class="edge">
<title>cudnn&#45;&gt;pytorch&#45;cpu</title>
<path fill="none" stroke="black" d="M1713.39,-442.5C1726.61,-432.85 1744.23,-420.01 1759.18,-409.11"/>
<polygon fill="black" stroke="black" points="1761.61,-411.67 1767.63,-402.95 1757.48,-406.01 1761.61,-411.67"/>
</g>
<!-- libspnav -->
<g id="node42" class="node">
<title>libspnav</title>
<g id="a_node42"><a xlink:href="https://github.com/conda-forge/libspnav-feedstock/pull/2" xlink:title="libspnav ❎">
<ellipse fill="#31688e" stroke="black" cx="1076.5" cy="-458" rx="63.09" ry="18"/>
<text text-anchor="middle" x="1076.5" y="-454.3" font-family="Times-Roman" font-size="14.00" fill="white">libspnav ❎</text>
</a>
</g>
</g>
<!-- libspnav&#45;&gt;freecad -->
<g id="edge46" class="edge">
<title>libspnav&#45;&gt;freecad</title>
<path fill="none" stroke="black" d="M1091.81,-440.48C1107.53,-421.46 1127.47,-390 1110.5,-368 1092.3,-344.4 1014.16,-329.26 960.58,-321.44"/>
<polygon fill="black" stroke="black" points="960.94,-317.95 950.55,-320.02 959.96,-324.88 960.94,-317.95"/>
</g>
<!-- libv8 -->
<g id="node43" class="node">
<title>libv8</title>
<g id="a_node43"><a xlink:href="https://github.com/conda-forge/libv8-feedstock/pull/66" xlink:title="libv8 ❎">
<ellipse fill="#31688e" stroke="black" cx="639.5" cy="-90" rx="47" ry="18"/>
<text text-anchor="middle" x="639.5" y="-86.3" font-family="Times-Roman" font-size="14.00" fill="white">libv8 ❎</text>
</a>
</g>
</g>
<!-- r&#45;v8 -->
<g id="node44" class="node">
<title>r&#45;v8</title>
<g id="a_node44"><a xlink:href="https://github.com/conda-forge/r-v8-feedstock" xlink:title="r v8">
<ellipse fill="#fde725" stroke="black" cx="639.5" cy="-18" rx="28.7" ry="18"/>
<text text-anchor="middle" x="639.5" y="-14.3" font-family="Times-Roman" font-size="14.00">r v8</text>
</a>
</g>
</g>
<!-- libv8&#45;&gt;r&#45;v8 -->
<g id="edge47" class="edge">
<title>libv8&#45;&gt;r&#45;v8</title>
<path fill="none" stroke="black" d="M639.5,-71.7C639.5,-63.98 639.5,-54.71 639.5,-46.11"/>
<polygon fill="black" stroke="black" points="643,-46.1 639.5,-36.1 636,-46.1 643,-46.1"/>
</g>
<!-- jaeger -->
<g id="node46" class="node">
<title>jaeger</title>
<g id="a_node46"><a xlink:href="https://github.com/conda-forge/jaeger-feedstock/pull/12" xlink:title="jaeger ❎">
<ellipse fill="#31688e" stroke="black" cx="2116.5" cy="-206" rx="53.5" ry="18"/>
<text text-anchor="middle" x="2116.5" y="-202.3" font-family="Times-Roman" font-size="14.00" fill="white">jaeger ❎</text>
</a>
</g>
</g>
<!-- proj&#45;&gt;jaeger -->
<!-- dm&#45;tree -->
<g id="node48" class="node">
<title>dm&#45;tree</title>
<g id="a_node48"><a xlink:href="https://github.com/conda-forge/dm-tree-feedstock/pull/4" xlink:title="dm tree ❎">
<ellipse fill="#31688e" stroke="black" cx="2116.5" cy="-134" rx="60" ry="18"/>
<text text-anchor="middle" x="2116.5" y="-130.3" font-family="Times-Roman" font-size="14.00" fill="white">dm tree ❎</text>
</a>
</g>
</g>
<!-- jaeger&#45;&gt;dm&#45;tree -->
<!-- nccl -->
<g id="node47" class="node">
<title>nccl</title>
<g id="a_node47"><a xlink:href="https://github.com/conda-forge/nccl-feedstock/pull/35" xlink:title="nccl ✓">
<ellipse fill="#31688e" stroke="black" cx="1790.5" cy="-458" rx="39.79" ry="18"/>
<text text-anchor="middle" x="1790.5" y="-454.3" font-family="Times-Roman" font-size="14.00" fill="white">nccl ✓</text>
</a>
</g>
</g>
<!-- nccl&#45;&gt;pytorch&#45;cpu -->
<g id="edge50" class="edge">
<title>nccl&#45;&gt;pytorch&#45;cpu</title>
<path fill="none" stroke="black" d="M1790.25,-439.7C1790.14,-431.98 1790.01,-422.71 1789.89,-414.11"/>
<polygon fill="black" stroke="black" points="1793.39,-414.05 1789.74,-404.1 1786.39,-414.15 1793.39,-414.05"/>
</g>
<!-- tokenizers -->
<g id="node49" class="node">
<title>tokenizers</title>
<g id="a_node49"><a xlink:href="https://github.com/conda-forge/tokenizers-feedstock/pull/18" xlink:title="tokenizers ❎">
<ellipse fill="#31688e" stroke="black" cx="1889.5" cy="-314" rx="71.5" ry="18"/>
<text text-anchor="middle" x="1889.5" y="-310.3" font-family="Times-Roman" font-size="14.00" fill="white">tokenizers ❎</text>
</a>
</g>
</g>
<!-- tokenizers&#45;&gt;allennlp -->
<g id="edge53" class="edge">
<title>tokenizers&#45;&gt;allennlp</title>
<path fill="none" stroke="black" d="M1857.9,-297.64C1835.63,-286.81 1805.75,-272.29 1782.39,-260.93"/>
<polygon fill="black" stroke="black" points="1783.66,-257.66 1773.14,-256.44 1780.6,-263.96 1783.66,-257.66"/>
</g>
<!-- magma -->
<g id="node50" class="node">
<title>magma</title>
<g id="a_node50"><a xlink:href="https://github.com/conda-forge/magma-feedstock/pull/9" xlink:title="magma ❎">
<ellipse fill="#31688e" stroke="black" cx="1858.5" cy="-530" rx="59.29" ry="18"/>
<text text-anchor="middle" x="1858.5" y="-526.3" font-family="Times-Roman" font-size="14.00" fill="white">magma ❎</text>
</a>
</g>
</g>
<!-- magma&#45;&gt;pytorch&#45;cpu -->
<g id="edge54" class="edge">
<title>magma&#45;&gt;pytorch&#45;cpu</title>
<path fill="none" stroke="black" d="M1857.57,-511.67C1855.95,-493.02 1851.54,-462.94 1839.5,-440 1833.77,-429.08 1825.16,-418.8 1816.69,-410.25"/>
<polygon fill="black" stroke="black" points="1818.99,-407.61 1809.36,-403.2 1814.14,-412.65 1818.99,-407.61"/>
</g>
</g>
</svg>
