<?xml version="1.0" encoding="UTF-8" standalone="no"?>
<!DOCTYPE svg PUBLIC "-//W3C//DTD SVG 1.1//EN"
 "http://www.w3.org/Graphics/SVG/1.1/DTD/svg11.dtd">
<!-- Generated by graphviz version 2.47.2 (20210527.1257)
 -->
<!-- Pages: 1 -->
<svg width="2646pt" height="736pt"
 viewBox="0.00 0.00 2645.50 736.00" xmlns="http://www.w3.org/2000/svg" xmlns:xlink="http://www.w3.org/1999/xlink">
<g id="graph0" class="graph" transform="scale(1 1) rotate(0) translate(4 732)">
<polygon fill="white" stroke="transparent" points="-4,4 -4,-732 2641.5,-732 2641.5,4 -4,4"/>
<!-- aioeasywebdav -->
<g id="node1" class="node">
<title>aioeasywebdav</title>
<g id="a_node1"><a xlink:href="https://github.com/conda-forge/aioeasywebdav-feedstock/pull/10" xlink:title="aioeasywebdav ✓">
<ellipse fill="#31688e" stroke="black" cx="2546.5" cy="-710" rx="91" ry="18"/>
<text text-anchor="middle" x="2546.5" y="-706.3" font-family="Times-Roman" font-size="14.00" fill="white">aioeasywebdav ✓</text>
</a>
</g>
</g>
<!-- root_numpy -->
<g id="node2" class="node">
<title>root_numpy</title>
<g id="a_node2"><a xlink:href="https://github.com/conda-forge/root_numpy-feedstock/pull/25" xlink:title="root_numpy ❎">
<ellipse fill="#31688e" stroke="black" cx="2546.5" cy="-638" rx="78.79" ry="18"/>
<text text-anchor="middle" x="2546.5" y="-634.3" font-family="Times-Roman" font-size="14.00" fill="white">root_numpy ❎</text>
</a>
</g>
</g>
<!-- aioeasywebdav&#45;&gt;root_numpy -->
<!-- py&#45;plumed -->
<g id="node39" class="node">
<title>py&#45;plumed</title>
<g id="a_node39"><a xlink:href="https://github.com/conda-forge/py-plumed-feedstock/pull/16" xlink:title="py plumed ❎">
<ellipse fill="#31688e" stroke="black" cx="2546.5" cy="-566" rx="73.5" ry="18"/>
<text text-anchor="middle" x="2546.5" y="-562.3" font-family="Times-Roman" font-size="14.00" fill="white">py plumed ❎</text>
</a>
</g>
</g>
<!-- root_numpy&#45;&gt;py&#45;plumed -->
<!-- check -->
<g id="node3" class="node">
<title>check</title>
<g id="a_node3"><a xlink:href="https://github.com/conda-forge/check-feedstock/pull/19" xlink:title="check ❎">
<ellipse fill="#31688e" stroke="black" cx="51.5" cy="-458" rx="51.5" ry="18"/>
<text text-anchor="middle" x="51.5" y="-454.3" font-family="Times-Roman" font-size="14.00" fill="white">check ❎</text>
</a>
</g>
</g>
<!-- pulseaudio -->
<g id="node4" class="node">
<title>pulseaudio</title>
<g id="a_node4"><a xlink:href="https://github.com/conda-forge/pulseaudio-feedstock" xlink:title="pulseaudio">
<ellipse fill="#fde725" stroke="black" cx="127.5" cy="-386" rx="60" ry="18"/>
<text text-anchor="middle" x="127.5" y="-382.3" font-family="Times-Roman" font-size="14.00">pulseaudio</text>
</a>
</g>
</g>
<!-- check&#45;&gt;pulseaudio -->
<g id="edge2" class="edge">
<title>check&#45;&gt;pulseaudio</title>
<path fill="none" stroke="black" d="M69.13,-440.76C78.94,-431.73 91.32,-420.33 102.15,-410.35"/>
<polygon fill="black" stroke="black" points="104.72,-412.74 109.71,-403.39 99.98,-407.59 104.72,-412.74"/>
</g>
<!-- gqrx -->
<g id="node5" class="node">
<title>gqrx</title>
<g id="a_node5"><a xlink:href="https://github.com/conda-forge/gqrx-feedstock" xlink:title="gqrx">
<ellipse fill="#fde725" stroke="black" cx="255.5" cy="-314" rx="31.4" ry="18"/>
<text text-anchor="middle" x="255.5" y="-310.3" font-family="Times-Roman" font-size="14.00">gqrx</text>
</a>
</g>
</g>
<!-- pulseaudio&#45;&gt;gqrx -->
<g id="edge3" class="edge">
<title>pulseaudio&#45;&gt;gqrx</title>
<path fill="none" stroke="black" d="M154.96,-369.98C175.44,-358.79 203.42,-343.48 224.66,-331.86"/>
<polygon fill="black" stroke="black" points="226.51,-334.84 233.61,-326.97 223.15,-328.7 226.51,-334.84"/>
</g>
<!-- cherrypy -->
<g id="node6" class="node">
<title>cherrypy</title>
<g id="a_node6"><a xlink:href="https://github.com/conda-forge/cherrypy-feedstock" xlink:title="cherrypy">
<ellipse fill="#fde725" stroke="black" cx="2368.5" cy="-386" rx="50.89" ry="18"/>
<text text-anchor="middle" x="2368.5" y="-382.3" font-family="Times-Roman" font-size="14.00">cherrypy</text>
</a>
</g>
</g>
<!-- allennlp -->
<g id="node7" class="node">
<title>allennlp</title>
<g id="a_node7"><a xlink:href="https://github.com/conda-forge/allennlp-feedstock" xlink:title="allennlp">
<ellipse fill="#fde725" stroke="black" cx="2107.5" cy="-314" rx="46.29" ry="18"/>
<text text-anchor="middle" x="2107.5" y="-310.3" font-family="Times-Roman" font-size="14.00">allennlp</text>
</a>
</g>
</g>
<!-- cherrypy&#45;&gt;allennlp -->
<g id="edge4" class="edge">
<title>cherrypy&#45;&gt;allennlp</title>
<path fill="none" stroke="black" d="M2329.43,-374.52C2282.59,-361.96 2204.2,-340.93 2154.21,-327.53"/>
<polygon fill="black" stroke="black" points="2154.87,-324.08 2144.31,-324.87 2153.06,-330.84 2154.87,-324.08"/>
</g>
<!-- googleapis&#45;common&#45;protos -->
<g id="node8" class="node">
<title>googleapis&#45;common&#45;protos</title>
<g id="a_node8"><a xlink:href="https://github.com/conda-forge/googleapis-common-protos-feedstock/pull/27" xlink:title="googleapis common protos ❎">
<ellipse fill="#31688e" stroke="black" cx="1518.5" cy="-386" rx="147" ry="18"/>
<text text-anchor="middle" x="1518.5" y="-382.3" font-family="Times-Roman" font-size="14.00" fill="white">googleapis common protos ❎</text>
</a>
</g>
</g>
<!-- googleapis&#45;common&#45;protos&#45;&gt;allennlp -->
<g id="edge5" class="edge">
<title>googleapis&#45;common&#45;protos&#45;&gt;allennlp</title>
<path fill="none" stroke="black" d="M1620.09,-372.93C1745.95,-357.97 1955.76,-333.03 2053.86,-321.37"/>
<polygon fill="black" stroke="black" points="2054.33,-324.84 2063.85,-320.19 2053.5,-317.89 2054.33,-324.84"/>
</g>
<!-- hyperspy -->
<g id="node9" class="node">
<title>hyperspy</title>
<g id="a_node9"><a xlink:href="https://github.com/conda-forge/hyperspy-feedstock" xlink:title="hyperspy">
<ellipse fill="#fde725" stroke="black" cx="657.5" cy="-530" rx="53.5" ry="18"/>
<text text-anchor="middle" x="657.5" y="-526.3" font-family="Times-Roman" font-size="14.00">hyperspy</text>
</a>
</g>
</g>
<!-- intltool -->
<g id="node10" class="node">
<title>intltool</title>
<g id="a_node10"><a xlink:href="https://github.com/conda-forge/intltool-feedstock/pull/5" xlink:title="intltool ❎">
<ellipse fill="#31688e" stroke="black" cx="1867.5" cy="-162" rx="56" ry="18"/>
<text text-anchor="middle" x="1867.5" y="-158.3" font-family="Times-Roman" font-size="14.00" fill="white">intltool ❎</text>
</a>
</g>
</g>
<!-- libsecret -->
<g id="node11" class="node">
<title>libsecret</title>
<g id="a_node11"><a xlink:href="https://github.com/conda-forge/libsecret-feedstock" xlink:title="libsecret">
<ellipse fill="#fde725" stroke="black" cx="1867.5" cy="-90" rx="48.99" ry="18"/>
<text text-anchor="middle" x="1867.5" y="-86.3" font-family="Times-Roman" font-size="14.00">libsecret</text>
</a>
</g>
</g>
<!-- intltool&#45;&gt;libsecret -->
<g id="edge6" class="edge">
<title>intltool&#45;&gt;libsecret</title>
<path fill="none" stroke="black" d="M1867.5,-143.7C1867.5,-135.98 1867.5,-126.71 1867.5,-118.11"/>
<polygon fill="black" stroke="black" points="1871,-118.1 1867.5,-108.1 1864,-118.1 1871,-118.1"/>
</g>
<!-- oidc&#45;agent -->
<g id="node12" class="node">
<title>oidc&#45;agent</title>
<g id="a_node12"><a xlink:href="https://github.com/conda-forge/oidc-agent-feedstock" xlink:title="oidc agent">
<ellipse fill="#fde725" stroke="black" cx="1867.5" cy="-18" rx="58" ry="18"/>
<text text-anchor="middle" x="1867.5" y="-14.3" font-family="Times-Roman" font-size="14.00">oidc agent</text>
</a>
</g>
</g>
<!-- libsecret&#45;&gt;oidc&#45;agent -->
<g id="edge7" class="edge">
<title>libsecret&#45;&gt;oidc&#45;agent</title>
<path fill="none" stroke="black" d="M1867.5,-71.7C1867.5,-63.98 1867.5,-54.71 1867.5,-46.11"/>
<polygon fill="black" stroke="black" points="1871,-46.1 1867.5,-36.1 1864,-46.1 1871,-46.1"/>
</g>
<!-- libgsasl -->
<g id="node13" class="node">
<title>libgsasl</title>
<g id="a_node13"><a xlink:href="https://github.com/conda-forge/libgsasl-feedstock/pull/23" xlink:title="libgsasl ❎">
<ellipse fill="#31688e" stroke="black" cx="639.5" cy="-162" rx="59.29" ry="18"/>
<text text-anchor="middle" x="639.5" y="-158.3" font-family="Times-Roman" font-size="14.00" fill="white">libgsasl ❎</text>
</a>
</g>
</g>
<!-- librdkafka -->
<g id="node14" class="node">
<title>librdkafka</title>
<g id="a_node14"><a xlink:href="https://github.com/conda-forge/librdkafka-feedstock" xlink:title="librdkafka">
<ellipse fill="#fde725" stroke="black" cx="639.5" cy="-90" rx="54.69" ry="18"/>
<text text-anchor="middle" x="639.5" y="-86.3" font-family="Times-Roman" font-size="14.00">librdkafka</text>
</a>
</g>
</g>
<!-- libgsasl&#45;&gt;librdkafka -->
<g id="edge8" class="edge">
<title>libgsasl&#45;&gt;librdkafka</title>
<path fill="none" stroke="black" d="M639.5,-143.7C639.5,-135.98 639.5,-126.71 639.5,-118.11"/>
<polygon fill="black" stroke="black" points="643,-118.1 639.5,-108.1 636,-118.1 643,-118.1"/>
</g>
<!-- python&#45;confluent&#45;kafka -->
<g id="node15" class="node">
<title>python&#45;confluent&#45;kafka</title>
<g id="a_node15"><a xlink:href="https://github.com/conda-forge/python-confluent-kafka-feedstock" xlink:title="python confluent kafka">
<ellipse fill="#fde725" stroke="black" cx="639.5" cy="-18" rx="114.5" ry="18"/>
<text text-anchor="middle" x="639.5" y="-14.3" font-family="Times-Roman" font-size="14.00">python confluent kafka</text>
</a>
</g>
</g>
<!-- librdkafka&#45;&gt;python&#45;confluent&#45;kafka -->
<g id="edge9" class="edge">
<title>librdkafka&#45;&gt;python&#45;confluent&#45;kafka</title>
<path fill="none" stroke="black" d="M639.5,-71.7C639.5,-63.98 639.5,-54.71 639.5,-46.11"/>
<polygon fill="black" stroke="black" points="643,-46.1 639.5,-36.1 636,-46.1 643,-46.1"/>
</g>
<!-- libunwind -->
<g id="node16" class="node">
<title>libunwind</title>
<g id="a_node16"><a xlink:href="https://github.com/conda-forge/libunwind-feedstock/pull/14" xlink:title="libunwind ❎">
<ellipse fill="#31688e" stroke="black" cx="1726.5" cy="-530" rx="69" ry="18"/>
<text text-anchor="middle" x="1726.5" y="-526.3" font-family="Times-Roman" font-size="14.00" fill="white">libunwind ❎</text>
</a>
</g>
</g>
<!-- gperftools -->
<g id="node17" class="node">
<title>gperftools</title>
<g id="a_node17"><a xlink:href="https://github.com/conda-forge/gperftools-feedstock" xlink:title="gperftools">
<ellipse fill="#fde725" stroke="black" cx="1741.5" cy="-458" rx="56" ry="18"/>
<text text-anchor="middle" x="1741.5" y="-454.3" font-family="Times-Roman" font-size="14.00">gperftools</text>
</a>
</g>
</g>
<!-- libunwind&#45;&gt;gperftools -->
<g id="edge10" class="edge">
<title>libunwind&#45;&gt;gperftools</title>
<path fill="none" stroke="black" d="M1730.21,-511.7C1731.86,-503.98 1733.85,-494.71 1735.69,-486.11"/>
<polygon fill="black" stroke="black" points="1739.16,-486.62 1737.83,-476.1 1732.32,-485.15 1739.16,-486.62"/>
</g>
<!-- py&#45;spy -->
<g id="node18" class="node">
<title>py&#45;spy</title>
<g id="a_node18"><a xlink:href="https://github.com/conda-forge/py-spy-feedstock" xlink:title="py spy">
<ellipse fill="#fde725" stroke="black" cx="1894.5" cy="-386" rx="41" ry="18"/>
<text text-anchor="middle" x="1894.5" y="-382.3" font-family="Times-Roman" font-size="14.00">py spy</text>
</a>
</g>
</g>
<!-- libunwind&#45;&gt;py&#45;spy -->
<g id="edge11" class="edge">
<title>libunwind&#45;&gt;py&#45;spy</title>
<path fill="none" stroke="black" d="M1753.04,-513.34C1769.09,-503.41 1789.64,-489.86 1806.5,-476 1831.17,-455.72 1856.53,-429.38 1873.64,-410.63"/>
<polygon fill="black" stroke="black" points="1876.34,-412.87 1880.45,-403.1 1871.15,-408.17 1876.34,-412.87"/>
</g>
<!-- heaptrack -->
<g id="node19" class="node">
<title>heaptrack</title>
<g id="a_node19"><a xlink:href="https://github.com/conda-forge/heaptrack-feedstock" xlink:title="heaptrack">
<ellipse fill="#fde725" stroke="black" cx="1343.5" cy="-314" rx="56" ry="18"/>
<text text-anchor="middle" x="1343.5" y="-310.3" font-family="Times-Roman" font-size="14.00">heaptrack</text>
</a>
</g>
</g>
<!-- libunwind&#45;&gt;heaptrack -->
<g id="edge12" class="edge">
<title>libunwind&#45;&gt;heaptrack</title>
<path fill="none" stroke="black" d="M1659.63,-525.27C1577.24,-516.95 1438.84,-490.13 1362.5,-404 1347.65,-387.24 1343.42,-361.75 1342.6,-342.34"/>
<polygon fill="black" stroke="black" points="1346.1,-342.23 1342.45,-332.28 1339.1,-342.33 1346.1,-342.23"/>
</g>
<!-- sentencepiece -->
<g id="node20" class="node">
<title>sentencepiece</title>
<g id="a_node20"><a xlink:href="https://github.com/conda-forge/sentencepiece-feedstock" xlink:title="sentencepiece">
<ellipse fill="#fde725" stroke="black" cx="1759.5" cy="-386" rx="75.5" ry="18"/>
<text text-anchor="middle" x="1759.5" y="-382.3" font-family="Times-Roman" font-size="14.00">sentencepiece</text>
</a>
</g>
</g>
<!-- gperftools&#45;&gt;sentencepiece -->
<g id="edge13" class="edge">
<title>gperftools&#45;&gt;sentencepiece</title>
<path fill="none" stroke="black" d="M1745.95,-439.7C1747.95,-431.9 1750.37,-422.51 1752.6,-413.83"/>
<polygon fill="black" stroke="black" points="1756,-414.66 1755.1,-404.1 1749.22,-412.92 1756,-414.66"/>
</g>
<!-- sentencepiece&#45;&gt;allennlp -->
<g id="edge40" class="edge">
<title>sentencepiece&#45;&gt;allennlp</title>
<path fill="none" stroke="black" d="M1815.41,-373.75C1882.34,-360.29 1993.41,-337.95 2057.57,-325.04"/>
<polygon fill="black" stroke="black" points="2058.34,-328.46 2067.46,-323.05 2056.96,-321.6 2058.34,-328.46"/>
</g>
<!-- pyqt -->
<g id="node21" class="node">
<title>pyqt</title>
<g id="a_node21"><a xlink:href="https://github.com/conda-forge/pyqt-feedstock" xlink:title="pyqt">
<ellipse fill="#fde725" stroke="black" cx="651.5" cy="-602" rx="31.4" ry="18"/>
<text text-anchor="middle" x="651.5" y="-598.3" font-family="Times-Roman" font-size="14.00">pyqt</text>
</a>
</g>
</g>
<!-- pyqt&#45;&gt;hyperspy -->
<g id="edge14" class="edge">
<title>pyqt&#45;&gt;hyperspy</title>
<path fill="none" stroke="black" d="M652.98,-583.7C653.64,-575.98 654.44,-566.71 655.18,-558.11"/>
<polygon fill="black" stroke="black" points="658.67,-558.37 656.03,-548.1 651.69,-557.77 658.67,-558.37"/>
</g>
<!-- gnuradio -->
<g id="node22" class="node">
<title>gnuradio</title>
<g id="a_node22"><a xlink:href="https://github.com/conda-forge/gnuradio-feedstock" xlink:title="gnuradio">
<ellipse fill="#fde725" stroke="black" cx="495.5" cy="-530" rx="51.5" ry="18"/>
<text text-anchor="middle" x="495.5" y="-526.3" font-family="Times-Roman" font-size="14.00">gnuradio</text>
</a>
</g>
</g>
<!-- pyqt&#45;&gt;gnuradio -->
<g id="edge15" class="edge">
<title>pyqt&#45;&gt;gnuradio</title>
<path fill="none" stroke="black" d="M627.47,-590.22C602.97,-579.22 564.55,-561.98 535.47,-548.93"/>
<polygon fill="black" stroke="black" points="536.55,-545.58 526,-544.68 533.69,-551.97 536.55,-545.58"/>
</g>
<!-- pythonocc&#45;core -->
<g id="node23" class="node">
<title>pythonocc&#45;core</title>
<g id="a_node23"><a xlink:href="https://github.com/conda-forge/pythonocc-core-feedstock" xlink:title="pythonocc core">
<ellipse fill="#fde725" stroke="black" cx="640.5" cy="-458" rx="79.5" ry="18"/>
<text text-anchor="middle" x="640.5" y="-454.3" font-family="Times-Roman" font-size="14.00">pythonocc core</text>
</a>
</g>
</g>
<!-- pyqt&#45;&gt;pythonocc&#45;core -->
<g id="edge16" class="edge">
<title>pyqt&#45;&gt;pythonocc&#45;core</title>
<path fill="none" stroke="black" d="M631.15,-588.21C618.28,-578.84 602.75,-564.84 595.5,-548 589.17,-533.3 589.98,-527.02 595.5,-512 599.41,-501.35 606.51,-491.38 613.94,-483.02"/>
<polygon fill="black" stroke="black" points="616.7,-485.19 621.06,-475.54 611.63,-480.37 616.7,-485.19"/>
</g>
<!-- gnuradio&#45;&gt;gqrx -->
<g id="edge17" class="edge">
<title>gnuradio&#45;&gt;gqrx</title>
<path fill="none" stroke="black" d="M491.54,-511.9C482.61,-474.73 460.02,-388.3 438.5,-368 427.84,-357.94 344.18,-336.4 293.74,-324.1"/>
<polygon fill="black" stroke="black" points="294.37,-320.65 283.82,-321.69 292.72,-327.45 294.37,-320.65"/>
</g>
<!-- digital_rf -->
<g id="node24" class="node">
<title>digital_rf</title>
<g id="a_node24"><a xlink:href="https://github.com/conda-forge/digital_rf-feedstock" xlink:title="digital_rf">
<ellipse fill="#fde725" stroke="black" cx="379.5" cy="-458" rx="50.09" ry="18"/>
<text text-anchor="middle" x="379.5" y="-454.3" font-family="Times-Roman" font-size="14.00">digital_rf</text>
</a>
</g>
</g>
<!-- gnuradio&#45;&gt;digital_rf -->
<g id="edge18" class="edge">
<title>gnuradio&#45;&gt;digital_rf</title>
<path fill="none" stroke="black" d="M470.9,-514.15C453.98,-503.95 431.31,-490.27 412.79,-479.09"/>
<polygon fill="black" stroke="black" points="414.44,-475.99 404.07,-473.82 410.82,-481.99 414.44,-475.99"/>
</g>
<!-- gnuradio&#45;osmosdr -->
<g id="node25" class="node">
<title>gnuradio&#45;osmosdr</title>
<g id="a_node25"><a xlink:href="https://github.com/conda-forge/gnuradio-osmosdr-feedstock" xlink:title="gnuradio osmosdr">
<ellipse fill="#fde725" stroke="black" cx="336.5" cy="-386" rx="93" ry="18"/>
<text text-anchor="middle" x="336.5" y="-382.3" font-family="Times-Roman" font-size="14.00">gnuradio osmosdr</text>
</a>
</g>
</g>
<!-- gnuradio&#45;&gt;gnuradio&#45;osmosdr -->
<g id="edge19" class="edge">
<title>gnuradio&#45;&gt;gnuradio&#45;osmosdr</title>
<path fill="none" stroke="black" d="M443.7,-528.84C402.98,-525.63 348.59,-513.86 320.5,-476 307.14,-457.99 313.67,-432.36 322.06,-413.23"/>
<polygon fill="black" stroke="black" points="325.24,-414.69 326.38,-404.16 318.92,-411.68 325.24,-414.69"/>
</g>
<!-- gnuradio&#45;soapy -->
<g id="node26" class="node">
<title>gnuradio&#45;soapy</title>
<g id="a_node26"><a xlink:href="https://github.com/conda-forge/gnuradio-soapy-feedstock" xlink:title="gnuradio soapy">
<ellipse fill="#fde725" stroke="black" cx="424.5" cy="-314" rx="81.49" ry="18"/>
<text text-anchor="middle" x="424.5" y="-310.3" font-family="Times-Roman" font-size="14.00">gnuradio soapy</text>
</a>
</g>
</g>
<!-- gnuradio&#45;&gt;gnuradio&#45;soapy -->
<g id="edge20" class="edge">
<title>gnuradio&#45;&gt;gnuradio&#45;soapy</title>
<path fill="none" stroke="black" d="M496.07,-511.63C496.41,-481.09 494.09,-416.4 471.5,-368 466.56,-357.42 458.82,-347.4 451.04,-338.98"/>
<polygon fill="black" stroke="black" points="453.45,-336.43 443.96,-331.72 448.44,-341.32 453.45,-336.43"/>
</g>
<!-- gnuradio&#45;satellites -->
<g id="node27" class="node">
<title>gnuradio&#45;satellites</title>
<g id="a_node27"><a xlink:href="https://github.com/conda-forge/gnuradio-satellites-feedstock" xlink:title="gnuradio satellites">
<ellipse fill="#fde725" stroke="black" cx="533.5" cy="-242" rx="94.48" ry="18"/>
<text text-anchor="middle" x="533.5" y="-238.3" font-family="Times-Roman" font-size="14.00">gnuradio satellites</text>
</a>
</g>
</g>
<!-- gnuradio&#45;&gt;gnuradio&#45;satellites -->
<g id="edge21" class="edge">
<title>gnuradio&#45;&gt;gnuradio&#45;satellites</title>
<path fill="none" stroke="black" d="M499.46,-511.89C501.75,-501.54 504.55,-488.06 506.5,-476 518.46,-401.88 527.2,-313.66 531.15,-270.1"/>
<polygon fill="black" stroke="black" points="534.65,-270.3 532.05,-260.03 527.68,-269.68 534.65,-270.3"/>
</g>
<!-- gnuradio&#45;osmosdr&#45;&gt;gqrx -->
<g id="edge56" class="edge">
<title>gnuradio&#45;osmosdr&#45;&gt;gqrx</title>
<path fill="none" stroke="black" d="M316.89,-368.05C305.78,-358.46 291.79,-346.36 279.97,-336.14"/>
<polygon fill="black" stroke="black" points="282.05,-333.31 272.19,-329.42 277.47,-338.61 282.05,-333.31"/>
</g>
<!-- qt -->
<g id="node28" class="node">
<title>qt</title>
<g id="a_node28"><a xlink:href="https://github.com/conda-forge/qt-feedstock/pull/184" xlink:title="qt ❎">
<ellipse fill="#31688e" stroke="black" cx="739.5" cy="-674" rx="34.5" ry="18"/>
<text text-anchor="middle" x="739.5" y="-670.3" font-family="Times-Roman" font-size="14.00" fill="white">qt ❎</text>
</a>
</g>
</g>
<!-- qt&#45;&gt;gqrx -->
<g id="edge30" class="edge">
<title>qt&#45;&gt;gqrx</title>
<path fill="none" stroke="black" d="M705.12,-671.14C588.54,-663.9 215.5,-632.79 215.5,-531 215.5,-531 215.5,-531 215.5,-457 215.5,-415.26 231.71,-369.11 243.5,-341.08"/>
<polygon fill="black" stroke="black" points="246.83,-342.19 247.6,-331.62 240.41,-339.4 246.83,-342.19"/>
</g>
<!-- qt&#45;&gt;pyqt -->
<g id="edge22" class="edge">
<title>qt&#45;&gt;pyqt</title>
<path fill="none" stroke="black" d="M721.27,-658.5C708.47,-648.32 691.19,-634.57 677.03,-623.31"/>
<polygon fill="black" stroke="black" points="679.11,-620.49 669.11,-617.01 674.76,-625.97 679.11,-620.49"/>
</g>
<!-- qt&#45;&gt;gnuradio -->
<g id="edge23" class="edge">
<title>qt&#45;&gt;gnuradio</title>
<path fill="none" stroke="black" d="M711.04,-663.64C684.42,-654.34 644,-638.76 611.5,-620 578.22,-600.79 543.73,-573.17 521.1,-553.81"/>
<polygon fill="black" stroke="black" points="523.18,-550.98 513.32,-547.08 518.6,-556.27 523.18,-550.98"/>
</g>
<!-- qwt -->
<g id="node29" class="node">
<title>qwt</title>
<g id="a_node29"><a xlink:href="https://github.com/conda-forge/qwt-feedstock" xlink:title="qwt">
<ellipse fill="#fde725" stroke="black" cx="501.5" cy="-602" rx="27.5" ry="18"/>
<text text-anchor="middle" x="501.5" y="-598.3" font-family="Times-Roman" font-size="14.00">qwt</text>
</a>
</g>
</g>
<!-- qt&#45;&gt;qwt -->
<g id="edge24" class="edge">
<title>qt&#45;&gt;qwt</title>
<path fill="none" stroke="black" d="M709.84,-664.28C665.61,-651.27 582.57,-626.84 535.79,-613.09"/>
<polygon fill="black" stroke="black" points="536.69,-609.7 526.11,-610.24 534.72,-616.42 536.69,-609.7"/>
</g>
<!-- pivy -->
<g id="node30" class="node">
<title>pivy</title>
<g id="a_node30"><a xlink:href="https://github.com/conda-forge/pivy-feedstock" xlink:title="pivy">
<ellipse fill="#fde725" stroke="black" cx="767.5" cy="-458" rx="30" ry="18"/>
<text text-anchor="middle" x="767.5" y="-454.3" font-family="Times-Roman" font-size="14.00">pivy</text>
</a>
</g>
</g>
<!-- qt&#45;&gt;pivy -->
<g id="edge25" class="edge">
<title>qt&#45;&gt;pivy</title>
<path fill="none" stroke="black" d="M741.26,-655.57C744.32,-625.99 751.01,-564.1 758.5,-512 759.71,-503.56 761.21,-494.38 762.63,-486.08"/>
<polygon fill="black" stroke="black" points="766.09,-486.6 764.36,-476.15 759.19,-485.4 766.09,-486.6"/>
</g>
<!-- pyside2 -->
<g id="node31" class="node">
<title>pyside2</title>
<g id="a_node31"><a xlink:href="https://github.com/conda-forge/pyside2-feedstock" xlink:title="pyside2">
<ellipse fill="#fde725" stroke="black" cx="893.5" cy="-530" rx="46.29" ry="18"/>
<text text-anchor="middle" x="893.5" y="-526.3" font-family="Times-Roman" font-size="14.00">pyside2</text>
</a>
</g>
</g>
<!-- qt&#45;&gt;pyside2 -->
<g id="edge26" class="edge">
<title>qt&#45;&gt;pyside2</title>
<path fill="none" stroke="black" d="M755.69,-658.07C782.6,-633.26 836.72,-583.36 868.54,-554.01"/>
<polygon fill="black" stroke="black" points="871.14,-556.38 876.12,-547.02 866.4,-551.23 871.14,-556.38"/>
</g>
<!-- soqt -->
<g id="node32" class="node">
<title>soqt</title>
<g id="a_node32"><a xlink:href="https://github.com/conda-forge/soqt-feedstock" xlink:title="soqt">
<ellipse fill="#fde725" stroke="black" cx="798.5" cy="-530" rx="30.59" ry="18"/>
<text text-anchor="middle" x="798.5" y="-526.3" font-family="Times-Roman" font-size="14.00">soqt</text>
</a>
</g>
</g>
<!-- qt&#45;&gt;soqt -->
<g id="edge27" class="edge">
<title>qt&#45;&gt;soqt</title>
<path fill="none" stroke="black" d="M746.5,-656.15C756.66,-631.71 775.58,-586.17 787.58,-557.29"/>
<polygon fill="black" stroke="black" points="790.9,-558.4 791.51,-547.82 784.44,-555.72 790.9,-558.4"/>
</g>
<!-- freecad -->
<g id="node33" class="node">
<title>freecad</title>
<g id="a_node33"><a xlink:href="https://github.com/conda-forge/freecad-feedstock" xlink:title="freecad">
<ellipse fill="#fde725" stroke="black" cx="908.5" cy="-386" rx="44.39" ry="18"/>
<text text-anchor="middle" x="908.5" y="-382.3" font-family="Times-Roman" font-size="14.00">freecad</text>
</a>
</g>
</g>
<!-- qt&#45;&gt;freecad -->
<g id="edge28" class="edge">
<title>qt&#45;&gt;freecad</title>
<path fill="none" stroke="black" d="M772.08,-668.06C860.69,-653.9 1102.51,-610.15 1148.5,-548 1167.05,-522.94 1133.66,-445.88 1127.5,-440 1103.81,-417.38 1017.42,-401.68 960.48,-393.52"/>
<polygon fill="black" stroke="black" points="960.95,-390.05 950.56,-392.13 959.98,-396.98 960.95,-390.05"/>
</g>
<!-- geant4 -->
<g id="node34" class="node">
<title>geant4</title>
<g id="a_node34"><a xlink:href="https://github.com/conda-forge/geant4-feedstock" xlink:title="geant4">
<ellipse fill="#fde725" stroke="black" cx="1237.5" cy="-458" rx="42.49" ry="18"/>
<text text-anchor="middle" x="1237.5" y="-454.3" font-family="Times-Roman" font-size="14.00">geant4</text>
</a>
</g>
</g>
<!-- qt&#45;&gt;geant4 -->
<g id="edge29" class="edge">
<title>qt&#45;&gt;geant4</title>
<path fill="none" stroke="black" d="M774.02,-673.43C866.84,-673.88 1118.96,-670.34 1181.5,-620 1222.14,-587.29 1233.36,-523.3 1236.41,-486.61"/>
<polygon fill="black" stroke="black" points="1239.94,-486.38 1237.12,-476.16 1232.95,-485.9 1239.94,-486.38"/>
</g>
<!-- qwt&#45;&gt;gnuradio -->
<g id="edge31" class="edge">
<title>qwt&#45;&gt;gnuradio</title>
<path fill="none" stroke="black" d="M500.02,-583.7C499.36,-575.98 498.56,-566.71 497.82,-558.11"/>
<polygon fill="black" stroke="black" points="501.31,-557.77 496.97,-548.1 494.33,-558.37 501.31,-557.77"/>
</g>
<!-- pivy&#45;&gt;freecad -->
<g id="edge32" class="edge">
<title>pivy&#45;&gt;freecad</title>
<path fill="none" stroke="black" d="M789.84,-445.91C811.97,-434.92 846.23,-417.91 872.26,-404.99"/>
<polygon fill="black" stroke="black" points="874.04,-408.02 881.44,-400.43 870.93,-401.75 874.04,-408.02"/>
</g>
<!-- pyside2&#45;&gt;pivy -->
<g id="edge33" class="edge">
<title>pyside2&#45;&gt;pivy</title>
<path fill="none" stroke="black" d="M868,-514.83C847.71,-503.56 819.25,-487.75 797.79,-475.83"/>
<polygon fill="black" stroke="black" points="799.22,-472.62 788.78,-470.82 795.82,-478.74 799.22,-472.62"/>
</g>
<!-- pyside2&#45;&gt;freecad -->
<g id="edge34" class="edge">
<title>pyside2&#45;&gt;freecad</title>
<path fill="none" stroke="black" d="M873.39,-513.7C862.6,-504.19 850.35,-490.94 844.5,-476 838.67,-461.1 837.69,-454.48 844.5,-440 850.87,-426.45 862.6,-415.17 874.29,-406.55"/>
<polygon fill="black" stroke="black" points="876.47,-409.31 882.72,-400.76 872.5,-403.54 876.47,-409.31"/>
</g>
<!-- cctbx&#45;base -->
<g id="node35" class="node">
<title>cctbx&#45;base</title>
<g id="a_node35"><a xlink:href="https://github.com/conda-forge/cctbx-base-feedstock" xlink:title="cctbx base">
<ellipse fill="#fde725" stroke="black" cx="1041.5" cy="-458" rx="60" ry="18"/>
<text text-anchor="middle" x="1041.5" y="-454.3" font-family="Times-Roman" font-size="14.00">cctbx base</text>
</a>
</g>
</g>
<!-- pyside2&#45;&gt;cctbx&#45;base -->
<g id="edge35" class="edge">
<title>pyside2&#45;&gt;cctbx&#45;base</title>
<path fill="none" stroke="black" d="M921.69,-515.67C944.29,-504.98 976.31,-489.83 1001.56,-477.89"/>
<polygon fill="black" stroke="black" points="1003.32,-480.93 1010.87,-473.49 1000.33,-474.6 1003.32,-480.93"/>
</g>
<!-- soqt&#45;&gt;pivy -->
<g id="edge36" class="edge">
<title>soqt&#45;&gt;pivy</title>
<path fill="none" stroke="black" d="M791.15,-512.41C787.49,-504.13 782.97,-493.92 778.86,-484.66"/>
<polygon fill="black" stroke="black" points="782.04,-483.2 774.79,-475.47 775.64,-486.03 782.04,-483.2"/>
</g>
<!-- speex -->
<g id="node36" class="node">
<title>speex</title>
<g id="a_node36"><a xlink:href="https://github.com/conda-forge/speex-feedstock/pull/7" xlink:title="speex ❎">
<ellipse fill="#31688e" stroke="black" cx="131.5" cy="-530" rx="52" ry="18"/>
<text text-anchor="middle" x="131.5" y="-526.3" font-family="Times-Roman" font-size="14.00" fill="white">speex ❎</text>
</a>
</g>
</g>
<!-- speex&#45;&gt;pulseaudio -->
<g id="edge37" class="edge">
<title>speex&#45;&gt;pulseaudio</title>
<path fill="none" stroke="black" d="M131.02,-511.87C130.34,-487.67 129.08,-443.21 128.27,-414.39"/>
<polygon fill="black" stroke="black" points="131.76,-414.09 127.98,-404.19 124.77,-414.28 131.76,-414.09"/>
</g>
<!-- torchvision -->
<g id="node37" class="node">
<title>torchvision</title>
<g id="a_node37"><a xlink:href="https://github.com/conda-forge/torchvision-feedstock" xlink:title="torchvision">
<ellipse fill="#fde725" stroke="black" cx="2019.5" cy="-386" rx="60" ry="18"/>
<text text-anchor="middle" x="2019.5" y="-382.3" font-family="Times-Roman" font-size="14.00">torchvision</text>
</a>
</g>
</g>
<!-- torchvision&#45;&gt;allennlp -->
<g id="edge38" class="edge">
<title>torchvision&#45;&gt;allennlp</title>
<path fill="none" stroke="black" d="M2039.91,-368.76C2051.82,-359.29 2067.01,-347.21 2079.97,-336.9"/>
<polygon fill="black" stroke="black" points="2082.46,-339.39 2088.11,-330.43 2078.1,-333.91 2082.46,-339.39"/>
</g>
<!-- smesh -->
<g id="node38" class="node">
<title>smesh</title>
<g id="a_node38"><a xlink:href="https://github.com/conda-forge/smesh-feedstock/pull/48" xlink:title="smesh ❎">
<ellipse fill="#31688e" stroke="black" cx="908.5" cy="-458" rx="54.69" ry="18"/>
<text text-anchor="middle" x="908.5" y="-454.3" font-family="Times-Roman" font-size="14.00" fill="white">smesh ❎</text>
</a>
</g>
</g>
<!-- smesh&#45;&gt;freecad -->
<g id="edge39" class="edge">
<title>smesh&#45;&gt;freecad</title>
<path fill="none" stroke="black" d="M908.5,-439.7C908.5,-431.98 908.5,-422.71 908.5,-414.11"/>
<polygon fill="black" stroke="black" points="912,-414.1 908.5,-404.1 905,-414.1 912,-414.1"/>
</g>
<!-- ibm_db -->
<g id="node42" class="node">
<title>ibm_db</title>
<g id="a_node42"><a xlink:href="https://github.com/conda-forge/ibm_db-feedstock/pull/33" xlink:title="ibm_db ❎">
<ellipse fill="#31688e" stroke="black" cx="2546.5" cy="-494" rx="58" ry="18"/>
<text text-anchor="middle" x="2546.5" y="-490.3" font-family="Times-Roman" font-size="14.00" fill="white">ibm_db ❎</text>
</a>
</g>
</g>
<!-- py&#45;plumed&#45;&gt;ibm_db -->
<!-- pytorch&#45;cpu -->
<g id="node40" class="node">
<title>pytorch&#45;cpu</title>
<g id="a_node40"><a xlink:href="https://github.com/conda-forge/pytorch-cpu-feedstock" xlink:title="pytorch cpu">
<ellipse fill="#fde725" stroke="black" cx="2022.5" cy="-458" rx="64.5" ry="18"/>
<text text-anchor="middle" x="2022.5" y="-454.3" font-family="Times-Roman" font-size="14.00">pytorch cpu</text>
</a>
</g>
</g>
<!-- pytorch&#45;cpu&#45;&gt;allennlp -->
<g id="edge42" class="edge">
<title>pytorch&#45;cpu&#45;&gt;allennlp</title>
<path fill="none" stroke="black" d="M2049.42,-441.63C2063.16,-432.43 2078.94,-419.51 2088.5,-404 2099.93,-385.45 2104.56,-361.05 2106.4,-342.49"/>
<polygon fill="black" stroke="black" points="2109.9,-342.57 2107.19,-332.33 2102.92,-342.03 2109.9,-342.57"/>
</g>
<!-- pytorch&#45;cpu&#45;&gt;torchvision -->
<g id="edge43" class="edge">
<title>pytorch&#45;cpu&#45;&gt;torchvision</title>
<path fill="none" stroke="black" d="M2021.76,-439.7C2021.43,-431.98 2021.03,-422.71 2020.66,-414.11"/>
<polygon fill="black" stroke="black" points="2024.16,-413.95 2020.23,-404.1 2017.16,-414.25 2024.16,-413.95"/>
</g>
<!-- grpcio&#45;gcp -->
<g id="node41" class="node">
<title>grpcio&#45;gcp</title>
<g id="a_node41"><a xlink:href="https://github.com/conda-forge/grpcio-gcp-feedstock/pull/9" xlink:title="grpcio gcp ❎">
<ellipse fill="#31688e" stroke="black" cx="2178.5" cy="-458" rx="73" ry="18"/>
<text text-anchor="middle" x="2178.5" y="-454.3" font-family="Times-Roman" font-size="14.00" fill="white">grpcio gcp ❎</text>
</a>
</g>
</g>
<!-- grpcio&#45;gcp&#45;&gt;allennlp -->
<g id="edge44" class="edge">
<title>grpcio&#45;gcp&#45;&gt;allennlp</title>
<path fill="none" stroke="black" d="M2169.94,-439.87C2157.61,-415.22 2134.77,-369.54 2120.4,-340.79"/>
<polygon fill="black" stroke="black" points="2123.48,-339.13 2115.87,-331.75 2117.22,-342.26 2123.48,-339.13"/>
</g>
<!-- nvcc -->
<g id="node43" class="node">
<title>nvcc</title>
<g id="a_node43"><a xlink:href="https://github.com/conda-forge/nvcc-feedstock/pull/67" xlink:title="nvcc ✓">
<ellipse fill="#31688e" stroke="black" cx="2546.5" cy="-422" rx="42.49" ry="18"/>
<text text-anchor="middle" x="2546.5" y="-418.3" font-family="Times-Roman" font-size="14.00" fill="white">nvcc ✓</text>
</a>
</g>
</g>
<!-- ibm_db&#45;&gt;nvcc -->
<!-- proj -->
<g id="node50" class="node">
<title>proj</title>
<g id="a_node50"><a xlink:href="https://github.com/conda-forge/proj-feedstock" xlink:title="proj">
<ellipse fill="#35b779" stroke="black" cx="2546.5" cy="-350" rx="28" ry="18"/>
<text text-anchor="middle" x="2546.5" y="-346.3" font-family="Times-Roman" font-size="14.00">proj</text>
</a>
</g>
</g>
<!-- nvcc&#45;&gt;proj -->
<!-- cudatoolkit -->
<g id="node44" class="node">
<title>cudatoolkit</title>
<g id="a_node44"><a xlink:href="https://github.com/conda-forge/cudatoolkit-feedstock/pull/4" xlink:title="cudatoolkit ❎">
<ellipse fill="#31688e" stroke="black" cx="1916.5" cy="-602" rx="74.99" ry="18"/>
<text text-anchor="middle" x="1916.5" y="-598.3" font-family="Times-Roman" font-size="14.00" fill="white">cudatoolkit ❎</text>
</a>
</g>
</g>
<!-- cudnn -->
<g id="node45" class="node">
<title>cudnn</title>
<g id="a_node45"><a xlink:href="https://github.com/conda-forge/cudnn-feedstock" xlink:title="cudnn">
<ellipse fill="#fde725" stroke="black" cx="1970.5" cy="-530" rx="39" ry="18"/>
<text text-anchor="middle" x="1970.5" y="-526.3" font-family="Times-Roman" font-size="14.00">cudnn</text>
</a>
</g>
</g>
<!-- cudatoolkit&#45;&gt;cudnn -->
<g id="edge47" class="edge">
<title>cudatoolkit&#45;&gt;cudnn</title>
<path fill="none" stroke="black" d="M1929.57,-584.05C1936.24,-575.42 1944.46,-564.76 1951.78,-555.27"/>
<polygon fill="black" stroke="black" points="1954.58,-557.36 1957.92,-547.31 1949.04,-553.09 1954.58,-557.36"/>
</g>
<!-- cutensor -->
<g id="node46" class="node">
<title>cutensor</title>
<g id="a_node46"><a xlink:href="https://github.com/conda-forge/cutensor-feedstock" xlink:title="cutensor">
<ellipse fill="#fde725" stroke="black" cx="1863.5" cy="-530" rx="50.09" ry="18"/>
<text text-anchor="middle" x="1863.5" y="-526.3" font-family="Times-Roman" font-size="14.00">cutensor</text>
</a>
</g>
</g>
<!-- cudatoolkit&#45;&gt;cutensor -->
<g id="edge48" class="edge">
<title>cudatoolkit&#45;&gt;cutensor</title>
<path fill="none" stroke="black" d="M1903.67,-584.05C1897.29,-575.63 1889.45,-565.28 1882.4,-555.97"/>
<polygon fill="black" stroke="black" points="1885.04,-553.65 1876.21,-547.79 1879.46,-557.87 1885.04,-553.65"/>
</g>
<!-- cudnn&#45;&gt;torchvision -->
<g id="edge49" class="edge">
<title>cudnn&#45;&gt;torchvision</title>
<path fill="none" stroke="black" d="M1959.86,-512.49C1949.42,-494.03 1936.66,-463.62 1948.5,-440 1955.33,-426.37 1967.52,-415.35 1979.89,-406.96"/>
<polygon fill="black" stroke="black" points="1981.83,-409.87 1988.42,-401.57 1978.1,-403.95 1981.83,-409.87"/>
</g>
<!-- cudnn&#45;&gt;pytorch&#45;cpu -->
<g id="edge50" class="edge">
<title>cudnn&#45;&gt;pytorch&#45;cpu</title>
<path fill="none" stroke="black" d="M1982.56,-512.76C1988.81,-504.35 1996.58,-493.89 2003.61,-484.44"/>
<polygon fill="black" stroke="black" points="2006.63,-486.24 2009.78,-476.12 2001.01,-482.06 2006.63,-486.24"/>
</g>
<!-- libspnav -->
<g id="node47" class="node">
<title>libspnav</title>
<g id="a_node47"><a xlink:href="https://github.com/conda-forge/libspnav-feedstock/pull/2" xlink:title="libspnav ❎">
<ellipse fill="#31688e" stroke="black" cx="1076.5" cy="-530" rx="63.09" ry="18"/>
<text text-anchor="middle" x="1076.5" y="-526.3" font-family="Times-Roman" font-size="14.00" fill="white">libspnav ❎</text>
</a>
</g>
</g>
<!-- libspnav&#45;&gt;freecad -->
<g id="edge51" class="edge">
<title>libspnav&#45;&gt;freecad</title>
<path fill="none" stroke="black" d="M1091.81,-512.48C1107.53,-493.46 1127.47,-462 1110.5,-440 1092.3,-416.4 1014.16,-401.26 960.58,-393.44"/>
<polygon fill="black" stroke="black" points="960.94,-389.95 950.55,-392.02 959.96,-396.88 960.94,-389.95"/>
</g>
<!-- libv8 -->
<g id="node48" class="node">
<title>libv8</title>
<g id="a_node48"><a xlink:href="https://github.com/conda-forge/libv8-feedstock/pull/66" xlink:title="libv8 ❎">
<ellipse fill="#31688e" stroke="black" cx="2546.5" cy="-126" rx="47" ry="18"/>
<text text-anchor="middle" x="2546.5" y="-122.3" font-family="Times-Roman" font-size="14.00" fill="white">libv8 ❎</text>
</a>
</g>
</g>
<!-- r&#45;v8 -->
<g id="node49" class="node">
<title>r&#45;v8</title>
<g id="a_node49"><a xlink:href="https://github.com/conda-forge/r-v8-feedstock" xlink:title="r v8">
<ellipse fill="#fde725" stroke="black" cx="2546.5" cy="-54" rx="28.7" ry="18"/>
<text text-anchor="middle" x="2546.5" y="-50.3" font-family="Times-Roman" font-size="14.00">r v8</text>
</a>
</g>
</g>
<!-- libv8&#45;&gt;r&#45;v8 -->
<g id="edge52" class="edge">
<title>libv8&#45;&gt;r&#45;v8</title>
<path fill="none" stroke="black" d="M2546.5,-107.7C2546.5,-99.98 2546.5,-90.71 2546.5,-82.11"/>
<polygon fill="black" stroke="black" points="2550,-82.1 2546.5,-72.1 2543,-82.1 2550,-82.1"/>
</g>
<!-- jaeger -->
<g id="node51" class="node">
<title>jaeger</title>
<g id="a_node51"><a xlink:href="https://github.com/conda-forge/jaeger-feedstock/pull/12" xlink:title="jaeger ❎">
<ellipse fill="#31688e" stroke="black" cx="2546.5" cy="-278" rx="53.5" ry="18"/>
<text text-anchor="middle" x="2546.5" y="-274.3" font-family="Times-Roman" font-size="14.00" fill="white">jaeger ❎</text>
</a>
</g>
</g>
<!-- proj&#45;&gt;jaeger -->
<!-- dm&#45;tree -->
<g id="node52" class="node">
<title>dm&#45;tree</title>
<g id="a_node52"><a xlink:href="https://github.com/conda-forge/dm-tree-feedstock/pull/4" xlink:title="dm tree ❎">
<ellipse fill="#31688e" stroke="black" cx="2546.5" cy="-206" rx="60" ry="18"/>
<text text-anchor="middle" x="2546.5" y="-202.3" font-family="Times-Roman" font-size="14.00" fill="white">dm tree ❎</text>
</a>
</g>
</g>
<!-- jaeger&#45;&gt;dm&#45;tree -->
<!-- jaraco.text -->
<g id="node53" class="node">
<title>jaraco.text</title>
<g id="a_node53"><a xlink:href="https://github.com/conda-forge/jaraco.text-feedstock/pull/9" xlink:title="jaraco text ✓">
<ellipse fill="#31688e" stroke="black" cx="2377.5" cy="-458" rx="69.59" ry="18"/>
<text text-anchor="middle" x="2377.5" y="-454.3" font-family="Times-Roman" font-size="14.00" fill="white">jaraco text ✓</text>
</a>
</g>
</g>
<!-- jaraco.text&#45;&gt;cherrypy -->
<g id="edge57" class="edge">
<title>jaraco.text&#45;&gt;cherrypy</title>
<path fill="none" stroke="black" d="M2375.28,-439.7C2374.28,-431.98 2373.09,-422.71 2371.99,-414.11"/>
<polygon fill="black" stroke="black" points="2375.45,-413.58 2370.7,-404.1 2368.5,-414.47 2375.45,-413.58"/>
</g>
<!-- tokenizers -->
<g id="node54" class="node">
<title>tokenizers</title>
<g id="a_node54"><a xlink:href="https://github.com/conda-forge/tokenizers-feedstock/pull/18" xlink:title="tokenizers ❎">
<ellipse fill="#31688e" stroke="black" cx="2279.5" cy="-530" rx="71.5" ry="18"/>
<text text-anchor="middle" x="2279.5" y="-526.3" font-family="Times-Roman" font-size="14.00" fill="white">tokenizers ❎</text>
</a>
</g>
</g>
<!-- tokenizers&#45;&gt;allennlp -->
<g id="edge58" class="edge">
<title>tokenizers&#45;&gt;allennlp</title>
<path fill="none" stroke="black" d="M2279.15,-511.69C2278.05,-492.79 2274.08,-462.25 2260.5,-440 2231.63,-392.7 2178.26,-355.32 2142.81,-334.17"/>
<polygon fill="black" stroke="black" points="2144.17,-330.91 2133.77,-328.9 2140.65,-336.96 2144.17,-330.91"/>
</g>
<!-- magma -->
<g id="node55" class="node">
<title>magma</title>
<g id="a_node55"><a xlink:href="https://github.com/conda-forge/magma-feedstock/pull/9" xlink:title="magma ✓">
<ellipse fill="#31688e" stroke="black" cx="2083.5" cy="-530" rx="56" ry="18"/>
<text text-anchor="middle" x="2083.5" y="-526.3" font-family="Times-Roman" font-size="14.00" fill="white">magma ✓</text>
</a>
</g>
</g>
<!-- magma&#45;&gt;pytorch&#45;cpu -->
<g id="edge59" class="edge">
<title>magma&#45;&gt;pytorch&#45;cpu</title>
<path fill="none" stroke="black" d="M2069.04,-512.41C2061.56,-503.82 2052.27,-493.16 2043.96,-483.63"/>
<polygon fill="black" stroke="black" points="2046.48,-481.2 2037.28,-475.96 2041.21,-485.79 2046.48,-481.2"/>
</g>
</g>
</svg>
