<?xml version="1.0" encoding="UTF-8" standalone="no"?>
<!DOCTYPE svg PUBLIC "-//W3C//DTD SVG 1.1//EN"
 "http://www.w3.org/Graphics/SVG/1.1/DTD/svg11.dtd">
<!-- Generated by graphviz version 7.0.6 (20230107.1202)
 -->
<!-- Pages: 1 -->
<svg width="2583pt" height="1472pt"
 viewBox="0.00 0.00 2582.69 1472.00" xmlns="http://www.w3.org/2000/svg" xmlns:xlink="http://www.w3.org/1999/xlink">
<g id="graph0" class="graph" transform="scale(1 1) rotate(0) translate(4 1468)">
<polygon fill="white" stroke="none" points="-4,4 -4,-1468 2578.69,-1468 2578.69,4 -4,4"/>
<!-- hyperspy -->
<g id="node1" class="node">
<title>hyperspy</title>
<g id="a_node1"><a xlink:href="https://github.com/conda-forge/hyperspy-feedstock" xlink:title="hyperspy">
<ellipse fill="#fde725" stroke="black" cx="2433" cy="-1446" rx="54" ry="18"/>
<text text-anchor="middle" x="2433" y="-1442.3" font-family="Times,serif" font-size="14.00">hyperspy</text>
</a>
</g>
</g>
<!-- implicit -->
<g id="node2" class="node">
<title>implicit</title>
<g id="a_node2"><a xlink:href="https://github.com/conda-forge/implicit-feedstock/pull/52" xlink:title="implicit ❎">
<ellipse fill="#31688e" stroke="black" cx="2433" cy="-1374" rx="60" ry="18"/>
<text text-anchor="middle" x="2433" y="-1370.3" font-family="Times,serif" font-size="14.00" fill="white">implicit ❎</text>
</a>
</g>
</g>
<!-- hyperspy&#45;&gt;implicit -->
<!-- orange3 -->
<g id="node3" class="node">
<title>orange3</title>
<g id="a_node3"><a xlink:href="https://github.com/conda-forge/orange3-feedstock" xlink:title="orange3">
<ellipse fill="#fde725" stroke="black" cx="2433" cy="-1302" rx="48.99" ry="18"/>
<text text-anchor="middle" x="2433" y="-1298.3" font-family="Times,serif" font-size="14.00">orange3</text>
</a>
</g>
</g>
<!-- implicit&#45;&gt;orange3 -->
<!-- parcels -->
<g id="node6" class="node">
<title>parcels</title>
<g id="a_node6"><a xlink:href="https://github.com/conda-forge/parcels-feedstock/pull/89" xlink:title="parcels ❎">
<ellipse fill="#31688e" stroke="black" cx="2433" cy="-1230" rx="58.5" ry="18"/>
<text text-anchor="middle" x="2433" y="-1226.3" font-family="Times,serif" font-size="14.00" fill="white">parcels ❎</text>
</a>
</g>
</g>
<!-- orange3&#45;&gt;parcels -->
<!-- julia -->
<g id="node4" class="node">
<title>julia</title>
<g id="a_node4"><a xlink:href="https://github.com/conda-forge/julia-feedstock/pull/218" xlink:title="julia ❎">
<ellipse fill="#31688e" stroke="black" cx="1404" cy="-1194" rx="45" ry="18"/>
<text text-anchor="middle" x="1404" y="-1190.3" font-family="Times,serif" font-size="14.00" fill="white">julia ❎</text>
</a>
</g>
</g>
<!-- octave -->
<g id="node5" class="node">
<title>octave</title>
<g id="a_node5"><a xlink:href="https://github.com/conda-forge/octave-feedstock" xlink:title="octave">
<ellipse fill="#fde725" stroke="black" cx="1024" cy="-134" rx="41" ry="18"/>
<text text-anchor="middle" x="1024" y="-130.3" font-family="Times,serif" font-size="14.00">octave</text>
</a>
</g>
</g>
<!-- pyfai -->
<g id="node7" class="node">
<title>pyfai</title>
<g id="a_node7"><a xlink:href="https://github.com/conda-forge/pyfai-feedstock" xlink:title="pyfai">
<ellipse fill="#fde725" stroke="black" cx="2433" cy="-1158" rx="34" ry="18"/>
<text text-anchor="middle" x="2433" y="-1154.3" font-family="Times,serif" font-size="14.00">pyfai</text>
</a>
</g>
</g>
<!-- parcels&#45;&gt;pyfai -->
<!-- spyder -->
<g id="node8" class="node">
<title>spyder</title>
<g id="a_node8"><a xlink:href="https://github.com/conda-forge/spyder-feedstock" xlink:title="spyder">
<ellipse fill="#fde725" stroke="black" cx="2433" cy="-1086" rx="42.49" ry="18"/>
<text text-anchor="middle" x="2433" y="-1082.3" font-family="Times,serif" font-size="14.00">spyder</text>
</a>
</g>
</g>
<!-- pyfai&#45;&gt;spyder -->
<!-- pivy -->
<g id="node12" class="node">
<title>pivy</title>
<g id="a_node12"><a xlink:href="https://github.com/conda-forge/pivy-feedstock" xlink:title="pivy">
<ellipse fill="#fde725" stroke="black" cx="2433" cy="-1014" rx="30.59" ry="18"/>
<text text-anchor="middle" x="2433" y="-1010.3" font-family="Times,serif" font-size="14.00">pivy</text>
</a>
</g>
</g>
<!-- spyder&#45;&gt;pivy -->
<!-- pyferret -->
<g id="node9" class="node">
<title>pyferret</title>
<g id="a_node9"><a xlink:href="https://github.com/conda-forge/pyferret-feedstock" xlink:title="pyferret">
<ellipse fill="#fde725" stroke="black" cx="62" cy="-1194" rx="48.99" ry="18"/>
<text text-anchor="middle" x="62" y="-1190.3" font-family="Times,serif" font-size="14.00">pyferret</text>
</a>
</g>
</g>
<!-- pyqt -->
<g id="node10" class="node">
<title>pyqt</title>
<g id="a_node10"><a xlink:href="https://github.com/conda-forge/pyqt-feedstock" xlink:title="pyqt">
<ellipse fill="#fde725" stroke="black" cx="32" cy="-1266" rx="32" ry="18"/>
<text text-anchor="middle" x="32" y="-1262.3" font-family="Times,serif" font-size="14.00">pyqt</text>
</a>
</g>
</g>
<!-- pyqt&#45;&gt;pyferret -->
<g id="edge6" class="edge">
<title>pyqt&#45;&gt;pyferret</title>
<path fill="none" stroke="black" d="M39.26,-1248.05C42.53,-1240.43 46.47,-1231.23 50.15,-1222.65"/>
<polygon fill="black" stroke="black" points="53.28,-1224.24 54,-1213.67 46.84,-1221.48 53.28,-1224.24"/>
</g>
<!-- qscintilla2 -->
<g id="node11" class="node">
<title>qscintilla2</title>
<g id="a_node11"><a xlink:href="https://github.com/conda-forge/qscintilla2-feedstock" xlink:title="qscintilla2">
<ellipse fill="#fde725" stroke="black" cx="1024" cy="-206" rx="59.29" ry="18"/>
<text text-anchor="middle" x="1024" y="-202.3" font-family="Times,serif" font-size="14.00">qscintilla2</text>
</a>
</g>
</g>
<!-- qscintilla2&#45;&gt;octave -->
<g id="edge7" class="edge">
<title>qscintilla2&#45;&gt;octave</title>
<path fill="none" stroke="black" d="M1024,-187.7C1024,-180.41 1024,-171.73 1024,-163.54"/>
<polygon fill="black" stroke="black" points="1027.5,-163.62 1024,-153.62 1020.5,-163.62 1027.5,-163.62"/>
</g>
<!-- freecad -->
<g id="node18" class="node">
<title>freecad</title>
<g id="a_node18"><a xlink:href="https://github.com/conda-forge/freecad-feedstock" xlink:title="freecad">
<ellipse fill="#fde725" stroke="black" cx="2433" cy="-942" rx="45.5" ry="18"/>
<text text-anchor="middle" x="2433" y="-938.3" font-family="Times,serif" font-size="14.00">freecad</text>
</a>
</g>
</g>
<!-- pivy&#45;&gt;freecad -->
<!-- stack -->
<g id="node13" class="node">
<title>stack</title>
<g id="a_node13"><a xlink:href="https://github.com/conda-forge/stack-feedstock/pull/35" xlink:title="stack ❎">
<ellipse fill="#31688e" stroke="black" cx="2170" cy="-206" rx="49.5" ry="18"/>
<text text-anchor="middle" x="2170" y="-202.3" font-family="Times,serif" font-size="14.00" fill="white">stack ❎</text>
</a>
</g>
</g>
<!-- shellcheck -->
<g id="node14" class="node">
<title>shellcheck</title>
<g id="a_node14"><a xlink:href="https://github.com/conda-forge/shellcheck-feedstock" xlink:title="shellcheck">
<ellipse fill="#fde725" stroke="black" cx="2170" cy="-134" rx="59.29" ry="18"/>
<text text-anchor="middle" x="2170" y="-130.3" font-family="Times,serif" font-size="14.00">shellcheck</text>
</a>
</g>
</g>
<!-- stack&#45;&gt;shellcheck -->
<g id="edge9" class="edge">
<title>stack&#45;&gt;shellcheck</title>
<path fill="none" stroke="black" d="M2170,-187.7C2170,-180.41 2170,-171.73 2170,-163.54"/>
<polygon fill="black" stroke="black" points="2173.5,-163.62 2170,-153.62 2166.5,-163.62 2173.5,-163.62"/>
</g>
<!-- torchvision -->
<g id="node15" class="node">
<title>torchvision</title>
<g id="a_node15"><a xlink:href="https://github.com/conda-forge/torchvision-feedstock" xlink:title="torchvision">
<ellipse fill="#fde725" stroke="black" cx="700" cy="-1122" rx="62.5" ry="18"/>
<text text-anchor="middle" x="700" y="-1118.3" font-family="Times,serif" font-size="14.00">torchvision</text>
</a>
</g>
</g>
<!-- allennlp -->
<g id="node16" class="node">
<title>allennlp</title>
<g id="a_node16"><a xlink:href="https://github.com/conda-forge/allennlp-feedstock" xlink:title="allennlp">
<ellipse fill="#fde725" stroke="black" cx="594" cy="-978" rx="48.19" ry="18"/>
<text text-anchor="middle" x="594" y="-974.3" font-family="Times,serif" font-size="14.00">allennlp</text>
</a>
</g>
</g>
<!-- torchvision&#45;&gt;allennlp -->
<g id="edge10" class="edge">
<title>torchvision&#45;&gt;allennlp</title>
<path fill="none" stroke="black" d="M674.99,-1105.21C661.49,-1095.72 645.33,-1082.65 634,-1068 619.84,-1049.69 609.4,-1025.57 602.74,-1007.06"/>
<polygon fill="black" stroke="black" points="606.12,-1006.12 599.58,-997.79 599.5,-1008.39 606.12,-1006.12"/>
</g>
<!-- fairscale -->
<g id="node17" class="node">
<title>fairscale</title>
<g id="a_node17"><a xlink:href="https://github.com/conda-forge/fairscale-feedstock" xlink:title="fairscale">
<ellipse fill="#fde725" stroke="black" cx="693" cy="-1050" rx="50.09" ry="18"/>
<text text-anchor="middle" x="693" y="-1046.3" font-family="Times,serif" font-size="14.00">fairscale</text>
</a>
</g>
</g>
<!-- torchvision&#45;&gt;fairscale -->
<g id="edge11" class="edge">
<title>torchvision&#45;&gt;fairscale</title>
<path fill="none" stroke="black" d="M698.27,-1103.7C697.54,-1096.41 696.67,-1087.73 695.85,-1079.54"/>
<polygon fill="black" stroke="black" points="699.34,-1079.21 694.86,-1069.61 692.37,-1079.91 699.34,-1079.21"/>
</g>
<!-- fairscale&#45;&gt;allennlp -->
<g id="edge12" class="edge">
<title>fairscale&#45;&gt;allennlp</title>
<path fill="none" stroke="black" d="M671.03,-1033.46C657.57,-1023.95 640.13,-1011.62 625.25,-1001.1"/>
<polygon fill="black" stroke="black" points="627.33,-998.28 617.15,-995.37 623.29,-1004 627.33,-998.28"/>
</g>
<!-- srm -->
<g id="node22" class="node">
<title>srm</title>
<g id="a_node22"><a xlink:href="https://github.com/conda-forge/srm-feedstock/pull/5" xlink:title="srm ❎">
<ellipse fill="#31688e" stroke="black" cx="2433" cy="-870" rx="43" ry="18"/>
<text text-anchor="middle" x="2433" y="-866.3" font-family="Times,serif" font-size="14.00" fill="white">srm ❎</text>
</a>
</g>
</g>
<!-- freecad&#45;&gt;srm -->
<!-- geckodriver -->
<g id="node19" class="node">
<title>geckodriver</title>
<g id="a_node19"><a xlink:href="https://github.com/conda-forge/geckodriver-feedstock" xlink:title="geckodriver">
<ellipse fill="#fde725" stroke="black" cx="1808" cy="-1194" rx="65.79" ry="18"/>
<text text-anchor="middle" x="1808" y="-1190.3" font-family="Times,serif" font-size="14.00">geckodriver</text>
</a>
</g>
</g>
<!-- firefox -->
<g id="node20" class="node">
<title>firefox</title>
<g id="a_node20"><a xlink:href="https://github.com/conda-forge/firefox-feedstock" xlink:title="firefox">
<ellipse fill="#fde725" stroke="black" cx="1808" cy="-1122" rx="40.5" ry="18"/>
<text text-anchor="middle" x="1808" y="-1118.3" font-family="Times,serif" font-size="14.00">firefox</text>
</a>
</g>
</g>
<!-- geckodriver&#45;&gt;firefox -->
<g id="edge14" class="edge">
<title>geckodriver&#45;&gt;firefox</title>
<path fill="none" stroke="black" d="M1802.08,-1175.7C1801.33,-1168.41 1801.09,-1159.73 1801.35,-1151.54"/>
<polygon fill="black" stroke="black" points="1804.84,-1151.82 1802.01,-1141.61 1797.86,-1151.36 1804.84,-1151.82"/>
</g>
<!-- firefox&#45;&gt;geckodriver -->
<g id="edge15" class="edge">
<title>firefox&#45;&gt;geckodriver</title>
<path fill="none" stroke="black" d="M1813.9,-1140.1C1814.66,-1147.37 1814.91,-1156.04 1814.65,-1164.24"/>
<polygon fill="black" stroke="black" points="1811.16,-1163.98 1814.01,-1174.19 1818.15,-1164.43 1811.16,-1163.98"/>
</g>
<!-- tensorflow -->
<g id="node21" class="node">
<title>tensorflow</title>
<g id="a_node21"><a xlink:href="https://github.com/conda-forge/tensorflow-feedstock" xlink:title="tensorflow">
<ellipse fill="#fde725" stroke="black" cx="204" cy="-1194" rx="60" ry="18"/>
<text text-anchor="middle" x="204" y="-1190.3" font-family="Times,serif" font-size="14.00">tensorflow</text>
</a>
</g>
</g>
<!-- ibm_db -->
<g id="node23" class="node">
<title>ibm_db</title>
<g id="a_node23"><a xlink:href="https://github.com/conda-forge/ibm_db-feedstock/pull/48" xlink:title="ibm_db ❎">
<ellipse fill="#31688e" stroke="black" cx="2433" cy="-798" rx="58.5" ry="18"/>
<text text-anchor="middle" x="2433" y="-794.3" font-family="Times,serif" font-size="14.00" fill="white">ibm_db ❎</text>
</a>
</g>
</g>
<!-- srm&#45;&gt;ibm_db -->
<!-- proj -->
<g id="node34" class="node">
<title>proj</title>
<g id="a_node34"><a xlink:href="https://github.com/conda-forge/proj-feedstock" xlink:title="proj">
<ellipse fill="#35b779" stroke="black" cx="2433" cy="-726" rx="29.5" ry="18"/>
<text text-anchor="middle" x="2433" y="-722.3" font-family="Times,serif" font-size="14.00">proj</text>
</a>
</g>
</g>
<!-- ibm_db&#45;&gt;proj -->
<!-- pytorch&#45;cpu -->
<g id="node24" class="node">
<title>pytorch&#45;cpu</title>
<g id="a_node24"><a xlink:href="https://github.com/conda-forge/pytorch-cpu-feedstock/pull/119" xlink:title="pytorch cpu ❎">
<ellipse fill="#31688e" stroke="black" cx="603" cy="-1194" rx="80" ry="18"/>
<text text-anchor="middle" x="603" y="-1190.3" font-family="Times,serif" font-size="14.00" fill="white">pytorch cpu ❎</text>
</a>
</g>
</g>
<!-- pytorch&#45;cpu&#45;&gt;torchvision -->
<g id="edge18" class="edge">
<title>pytorch&#45;cpu&#45;&gt;torchvision</title>
<path fill="none" stroke="black" d="M625.99,-1176.41C638.64,-1167.28 654.54,-1155.81 668.35,-1145.84"/>
<polygon fill="black" stroke="black" points="670.22,-1148.8 676.28,-1140.11 666.13,-1143.13 670.22,-1148.8"/>
</g>
<!-- pytorch&#45;cpu&#45;&gt;allennlp -->
<g id="edge19" class="edge">
<title>pytorch&#45;cpu&#45;&gt;allennlp</title>
<path fill="none" stroke="black" d="M602.28,-1175.85C600.74,-1139.14 597.1,-1052.66 595.2,-1007.53"/>
<polygon fill="black" stroke="black" points="598.71,-1007.59 594.79,-997.74 591.71,-1007.88 598.71,-1007.59"/>
</g>
<!-- pytorch&#45;cpu&#45;&gt;fairscale -->
<g id="edge20" class="edge">
<title>pytorch&#45;cpu&#45;&gt;fairscale</title>
<path fill="none" stroke="black" d="M604.73,-1175.65C607.29,-1156.72 613.48,-1126.15 628,-1104 635.92,-1091.92 647.47,-1081.24 658.64,-1072.69"/>
<polygon fill="black" stroke="black" points="660.57,-1075.62 666.62,-1066.92 656.46,-1069.94 660.57,-1075.62"/>
</g>
<!-- nvidia&#45;apex -->
<g id="node25" class="node">
<title>nvidia&#45;apex</title>
<g id="a_node25"><a xlink:href="https://github.com/conda-forge/nvidia-apex-feedstock" xlink:title="nvidia apex">
<ellipse fill="#fde725" stroke="black" cx="479" cy="-1122" rx="63.89" ry="18"/>
<text text-anchor="middle" x="479" y="-1118.3" font-family="Times,serif" font-size="14.00">nvidia apex</text>
</a>
</g>
</g>
<!-- pytorch&#45;cpu&#45;&gt;nvidia&#45;apex -->
<g id="edge21" class="edge">
<title>pytorch&#45;cpu&#45;&gt;nvidia&#45;apex</title>
<path fill="none" stroke="black" d="M574.24,-1176.76C557.1,-1167.09 535.14,-1154.69 516.63,-1144.24"/>
<polygon fill="black" stroke="black" points="518.5,-1141.28 508.07,-1139.41 515.06,-1147.37 518.5,-1141.28"/>
</g>
<!-- kaolin -->
<g id="node26" class="node">
<title>kaolin</title>
<g id="a_node26"><a xlink:href="https://github.com/conda-forge/kaolin-feedstock" xlink:title="kaolin">
<ellipse fill="#fde725" stroke="black" cx="359" cy="-1122" rx="38.5" ry="18"/>
<text text-anchor="middle" x="359" y="-1118.3" font-family="Times,serif" font-size="14.00">kaolin</text>
</a>
</g>
</g>
<!-- pytorch&#45;cpu&#45;&gt;kaolin -->
<g id="edge22" class="edge">
<title>pytorch&#45;cpu&#45;&gt;kaolin</title>
<path fill="none" stroke="black" d="M550.39,-1180.13C510.51,-1170.06 454.48,-1155.26 406,-1140 403.77,-1139.3 401.49,-1138.56 399.19,-1137.79"/>
<polygon fill="black" stroke="black" points="400.48,-1134.53 389.89,-1134.58 398.2,-1141.15 400.48,-1134.53"/>
</g>
<!-- gfortran_osx&#45;64 -->
<g id="node27" class="node">
<title>gfortran_osx&#45;64</title>
<g id="a_node27"><a xlink:href="https://github.com/conda-forge/gfortran_osx-64-feedstock" xlink:title="gfortran_osx 64">
<ellipse fill="#fde725" stroke="black" cx="2433" cy="-430" rx="84" ry="18"/>
<text text-anchor="middle" x="2433" y="-426.3" font-family="Times,serif" font-size="14.00">gfortran_osx 64</text>
</a>
</g>
</g>
<!-- gstlal -->
<g id="node28" class="node">
<title>gstlal</title>
<g id="a_node28"><a xlink:href="https://github.com/conda-forge/gstlal-feedstock" xlink:title="gstlal">
<ellipse fill="#fde725" stroke="black" cx="1146" cy="-1194" rx="36.5" ry="18"/>
<text text-anchor="middle" x="1146" y="-1190.3" font-family="Times,serif" font-size="14.00">gstlal</text>
</a>
</g>
</g>
<!-- gstlal&#45;ugly -->
<g id="node29" class="node">
<title>gstlal&#45;ugly</title>
<g id="a_node29"><a xlink:href="https://github.com/conda-forge/gstlal-ugly-feedstock" xlink:title="gstlal ugly">
<ellipse fill="#fde725" stroke="black" cx="993" cy="-1122" rx="60" ry="18"/>
<text text-anchor="middle" x="993" y="-1118.3" font-family="Times,serif" font-size="14.00">gstlal ugly</text>
</a>
</g>
</g>
<!-- gstlal&#45;&gt;gstlal&#45;ugly -->
<g id="edge23" class="edge">
<title>gstlal&#45;&gt;gstlal&#45;ugly</title>
<path fill="none" stroke="black" d="M1120.05,-1181.13C1096.86,-1170.52 1062.47,-1154.79 1035.32,-1142.36"/>
<polygon fill="black" stroke="black" points="1036.85,-1139.22 1026.3,-1138.24 1033.94,-1145.58 1036.85,-1139.22"/>
</g>
<!-- gstlal&#45;burst -->
<g id="node30" class="node">
<title>gstlal&#45;burst</title>
<g id="a_node30"><a xlink:href="https://github.com/conda-forge/gstlal-burst-feedstock" xlink:title="gstlal burst">
<ellipse fill="#fde725" stroke="black" cx="827" cy="-1050" rx="64.5" ry="18"/>
<text text-anchor="middle" x="827" y="-1046.3" font-family="Times,serif" font-size="14.00">gstlal burst</text>
</a>
</g>
</g>
<!-- gstlal&#45;&gt;gstlal&#45;burst -->
<g id="edge24" class="edge">
<title>gstlal&#45;&gt;gstlal&#45;burst</title>
<path fill="none" stroke="black" d="M1118.5,-1182.06C1112.46,-1179.88 1106.06,-1177.73 1100,-1176 1023.22,-1154.1 995.11,-1176.31 924,-1140 893.68,-1124.52 865.8,-1096.92 847.79,-1076.55"/>
<polygon fill="black" stroke="black" points="850.63,-1074.48 841.46,-1069.19 845.33,-1079.05 850.63,-1074.48"/>
</g>
<!-- gstlal&#45;inspiral -->
<g id="node31" class="node">
<title>gstlal&#45;inspiral</title>
<g id="a_node31"><a xlink:href="https://github.com/conda-forge/gstlal-inspiral-feedstock" xlink:title="gstlal inspiral">
<ellipse fill="#fde725" stroke="black" cx="984" cy="-1050" rx="74.99" ry="18"/>
<text text-anchor="middle" x="984" y="-1046.3" font-family="Times,serif" font-size="14.00">gstlal inspiral</text>
</a>
</g>
</g>
<!-- gstlal&#45;&gt;gstlal&#45;inspiral -->
<g id="edge25" class="edge">
<title>gstlal&#45;&gt;gstlal&#45;inspiral</title>
<path fill="none" stroke="black" d="M1132.68,-1176.89C1116.86,-1158.24 1089.17,-1127.15 1062,-1104 1049.06,-1092.98 1033.79,-1082.18 1020.21,-1073.24"/>
<polygon fill="black" stroke="black" points="1022.24,-1070.39 1011.94,-1067.9 1018.44,-1076.27 1022.24,-1070.39"/>
</g>
<!-- gstlal&#45;calibration -->
<g id="node32" class="node">
<title>gstlal&#45;calibration</title>
<g id="a_node32"><a xlink:href="https://github.com/conda-forge/gstlal-calibration-feedstock" xlink:title="gstlal calibration">
<ellipse fill="#fde725" stroke="black" cx="1166" cy="-1050" rx="89.08" ry="18"/>
<text text-anchor="middle" x="1166" y="-1046.3" font-family="Times,serif" font-size="14.00">gstlal calibration</text>
</a>
</g>
</g>
<!-- gstlal&#45;&gt;gstlal&#45;calibration -->
<g id="edge26" class="edge">
<title>gstlal&#45;&gt;gstlal&#45;calibration</title>
<path fill="none" stroke="black" d="M1141.11,-1175.68C1136.76,-1157.55 1131.95,-1128.39 1138,-1104 1140.19,-1095.15 1144.17,-1086.15 1148.44,-1078.14"/>
<polygon fill="black" stroke="black" points="1151.41,-1080 1153.36,-1069.59 1145.34,-1076.51 1151.41,-1080"/>
</g>
<!-- gstlal&#45;ugly&#45;&gt;gstlal&#45;burst -->
<g id="edge27" class="edge">
<title>gstlal&#45;ugly&#45;&gt;gstlal&#45;burst</title>
<path fill="none" stroke="black" d="M959.41,-1106.83C934.32,-1096.25 899.76,-1081.68 872.23,-1070.07"/>
<polygon fill="black" stroke="black" points="873.65,-1066.88 863.08,-1066.21 870.93,-1073.33 873.65,-1066.88"/>
</g>
<!-- gstlal&#45;ugly&#45;&gt;gstlal&#45;inspiral -->
<g id="edge28" class="edge">
<title>gstlal&#45;ugly&#45;&gt;gstlal&#45;inspiral</title>
<path fill="none" stroke="black" d="M990.78,-1103.7C989.83,-1096.32 988.7,-1087.52 987.63,-1079.25"/>
<polygon fill="black" stroke="black" points="991.14,-1079.08 986.39,-1069.61 984.2,-1079.97 991.14,-1079.08"/>
</g>
<!-- gstlal&#45;ugly&#45;&gt;gstlal&#45;calibration -->
<g id="edge29" class="edge">
<title>gstlal&#45;ugly&#45;&gt;gstlal&#45;calibration</title>
<path fill="none" stroke="black" d="M1027.59,-1107C1053.21,-1096.64 1088.47,-1082.37 1116.99,-1070.83"/>
<polygon fill="black" stroke="black" points="1118.19,-1074.12 1126.15,-1067.12 1115.57,-1067.63 1118.19,-1074.12"/>
</g>
<!-- geant4 -->
<g id="node33" class="node">
<title>geant4</title>
<g id="a_node33"><a xlink:href="https://github.com/conda-forge/geant4-feedstock/pull/45" xlink:title="geant4 ❎">
<ellipse fill="#31688e" stroke="black" cx="1204" cy="-1122" rx="57.39" ry="18"/>
<text text-anchor="middle" x="1204" y="-1118.3" font-family="Times,serif" font-size="14.00" fill="white">geant4 ❎</text>
</a>
</g>
</g>
<!-- jaxlib -->
<g id="node35" class="node">
<title>jaxlib</title>
<g id="a_node35"><a xlink:href="https://github.com/conda-forge/jaxlib-feedstock/pull/155" xlink:title="jaxlib ❎">
<ellipse fill="#31688e" stroke="black" cx="1323" cy="-1050" rx="50.09" ry="18"/>
<text text-anchor="middle" x="1323" y="-1046.3" font-family="Times,serif" font-size="14.00" fill="white">jaxlib ❎</text>
</a>
</g>
</g>
<!-- libv8 -->
<g id="node36" class="node">
<title>libv8</title>
<g id="a_node36"><a xlink:href="https://github.com/conda-forge/libv8-feedstock/pull/81" xlink:title="libv8 ❎">
<ellipse fill="#31688e" stroke="black" cx="1489" cy="-978" rx="48.19" ry="18"/>
<text text-anchor="middle" x="1489" y="-974.3" font-family="Times,serif" font-size="14.00" fill="white">libv8 ❎</text>
</a>
</g>
</g>
<!-- r&#45;v8 -->
<g id="node37" class="node">
<title>r&#45;v8</title>
<g id="a_node37"><a xlink:href="https://github.com/conda-forge/r-v8-feedstock" xlink:title="r v8">
<ellipse fill="#fde725" stroke="black" cx="1470" cy="-906" rx="29.5" ry="18"/>
<text text-anchor="middle" x="1470" y="-902.3" font-family="Times,serif" font-size="14.00">r v8</text>
</a>
</g>
</g>
<!-- libv8&#45;&gt;r&#45;v8 -->
<g id="edge31" class="edge">
<title>libv8&#45;&gt;r&#45;v8</title>
<path fill="none" stroke="black" d="M1484.3,-959.7C1482.28,-952.24 1479.86,-943.32 1477.59,-934.97"/>
<polygon fill="black" stroke="black" points="1481.04,-934.3 1475.04,-925.57 1474.28,-936.13 1481.04,-934.3"/>
</g>
<!-- clang&#45;compiler&#45;activation -->
<g id="node38" class="node">
<title>clang&#45;compiler&#45;activation</title>
<g id="a_node38"><a xlink:href="https://github.com/conda-forge/clang-compiler-activation-feedstock/pull/85" xlink:title="clang compiler activation ❎">
<ellipse fill="#31688e" stroke="black" cx="2433" cy="-502" rx="141.88" ry="18"/>
<text text-anchor="middle" x="2433" y="-498.3" font-family="Times,serif" font-size="14.00" fill="white">clang compiler activation ❎</text>
</a>
</g>
</g>
<!-- clang&#45;compiler&#45;activation&#45;&gt;gfortran_osx&#45;64 -->
<g id="edge32" class="edge">
<title>clang&#45;compiler&#45;activation&#45;&gt;gfortran_osx&#45;64</title>
<path fill="none" stroke="black" d="M2433,-483.7C2433,-476.41 2433,-467.73 2433,-459.54"/>
<polygon fill="black" stroke="black" points="2436.5,-459.62 2433,-449.62 2429.5,-459.62 2436.5,-459.62"/>
</g>
<!-- jaeger -->
<g id="node39" class="node">
<title>jaeger</title>
<g id="a_node39"><a xlink:href="https://github.com/conda-forge/jaeger-feedstock/pull/28" xlink:title="jaeger ❎">
<ellipse fill="#31688e" stroke="black" cx="2170" cy="-1446" rx="54" ry="18"/>
<text text-anchor="middle" x="2170" y="-1442.3" font-family="Times,serif" font-size="14.00" fill="white">jaeger ❎</text>
</a>
</g>
</g>
<!-- digital_rf -->
<g id="node40" class="node">
<title>digital_rf</title>
<g id="a_node40"><a xlink:href="https://github.com/conda-forge/digital_rf-feedstock" xlink:title="digital_rf">
<ellipse fill="#fde725" stroke="black" cx="2170" cy="-1374" rx="52.79" ry="18"/>
<text text-anchor="middle" x="2170" y="-1370.3" font-family="Times,serif" font-size="14.00">digital_rf</text>
</a>
</g>
</g>
<!-- jaeger&#45;&gt;digital_rf -->
<!-- pythonocc&#45;core -->
<g id="node43" class="node">
<title>pythonocc&#45;core</title>
<g id="a_node43"><a xlink:href="https://github.com/conda-forge/pythonocc-core-feedstock" xlink:title="pythonocc core">
<ellipse fill="#fde725" stroke="black" cx="2170" cy="-1302" rx="81.49" ry="18"/>
<text text-anchor="middle" x="2170" y="-1298.3" font-family="Times,serif" font-size="14.00">pythonocc core</text>
</a>
</g>
</g>
<!-- digital_rf&#45;&gt;pythonocc&#45;core -->
<!-- gnuradio -->
<g id="node41" class="node">
<title>gnuradio</title>
<g id="a_node41"><a xlink:href="https://github.com/conda-forge/gnuradio-feedstock" xlink:title="gnuradio">
<ellipse fill="#fde725" stroke="black" cx="2108" cy="-466" rx="52" ry="18"/>
<text text-anchor="middle" x="2108" y="-462.3" font-family="Times,serif" font-size="14.00">gnuradio</text>
</a>
</g>
</g>
<!-- gqrx -->
<g id="node42" class="node">
<title>gqrx</title>
<g id="a_node42"><a xlink:href="https://github.com/conda-forge/gqrx-feedstock" xlink:title="gqrx">
<ellipse fill="#fde725" stroke="black" cx="2148" cy="-394" rx="32.5" ry="18"/>
<text text-anchor="middle" x="2148" y="-390.3" font-family="Times,serif" font-size="14.00">gqrx</text>
</a>
</g>
</g>
<!-- gnuradio&#45;&gt;gqrx -->
<g id="edge34" class="edge">
<title>gnuradio&#45;&gt;gqrx</title>
<path fill="none" stroke="black" d="M2117.68,-448.05C2122.27,-440.03 2127.85,-430.26 2132.97,-421.3"/>
<polygon fill="black" stroke="black" points="2136.01,-423.04 2137.93,-412.62 2129.93,-419.57 2136.01,-423.04"/>
</g>
<!-- pybamm -->
<g id="node44" class="node">
<title>pybamm</title>
<g id="a_node44"><a xlink:href="https://github.com/conda-forge/pybamm-feedstock/pull/33" xlink:title="pybamm ❎">
<ellipse fill="#31688e" stroke="black" cx="2170" cy="-1230" rx="65" ry="18"/>
<text text-anchor="middle" x="2170" y="-1226.3" font-family="Times,serif" font-size="14.00" fill="white">pybamm ❎</text>
</a>
</g>
</g>
<!-- pythonocc&#45;core&#45;&gt;pybamm -->
<!-- gnuradio&#45;soapy -->
<g id="node45" class="node">
<title>gnuradio&#45;soapy</title>
<g id="a_node45"><a xlink:href="https://github.com/conda-forge/gnuradio-soapy-feedstock" xlink:title="gnuradio soapy">
<ellipse fill="#fde725" stroke="black" cx="2170" cy="-1158" rx="82" ry="18"/>
<text text-anchor="middle" x="2170" y="-1154.3" font-family="Times,serif" font-size="14.00">gnuradio soapy</text>
</a>
</g>
</g>
<!-- pybamm&#45;&gt;gnuradio&#45;soapy -->
<!-- gnuradio&#45;satellites -->
<g id="node47" class="node">
<title>gnuradio&#45;satellites</title>
<g id="a_node47"><a xlink:href="https://github.com/conda-forge/gnuradio-satellites-feedstock" xlink:title="gnuradio satellites">
<ellipse fill="#fde725" stroke="black" cx="2170" cy="-1086" rx="97.5" ry="18"/>
<text text-anchor="middle" x="2170" y="-1082.3" font-family="Times,serif" font-size="14.00">gnuradio satellites</text>
</a>
</g>
</g>
<!-- gnuradio&#45;soapy&#45;&gt;gnuradio&#45;satellites -->
<!-- gnuradio&#45;osmosdr -->
<g id="node46" class="node">
<title>gnuradio&#45;osmosdr</title>
<g id="a_node46"><a xlink:href="https://github.com/conda-forge/gnuradio-osmosdr-feedstock" xlink:title="gnuradio osmosdr">
<ellipse fill="#fde725" stroke="black" cx="2188" cy="-538" rx="95" ry="18"/>
<text text-anchor="middle" x="2188" y="-534.3" font-family="Times,serif" font-size="14.00">gnuradio osmosdr</text>
</a>
</g>
</g>
<!-- gnuradio&#45;osmosdr&#45;&gt;gqrx -->
<g id="edge38" class="edge">
<title>gnuradio&#45;osmosdr&#45;&gt;gqrx</title>
<path fill="none" stroke="black" d="M2185.19,-519.72C2182.05,-501.63 2176.41,-472.5 2169,-448 2166.44,-439.53 2163.11,-430.52 2159.85,-422.37"/>
<polygon fill="black" stroke="black" points="2163.17,-421.24 2156.12,-413.33 2156.7,-423.91 2163.17,-421.24"/>
</g>
<!-- dask&#45;sql -->
<g id="node48" class="node">
<title>dask&#45;sql</title>
<g id="a_node48"><a xlink:href="https://github.com/conda-forge/dask-sql-feedstock/pull/56" xlink:title="dask sql ❎">
<ellipse fill="#31688e" stroke="black" cx="2170" cy="-1014" rx="63.09" ry="18"/>
<text text-anchor="middle" x="2170" y="-1010.3" font-family="Times,serif" font-size="14.00" fill="white">dask sql ❎</text>
</a>
</g>
</g>
<!-- gnuradio&#45;satellites&#45;&gt;dask&#45;sql -->
<!-- ray&#45;packages -->
<g id="node50" class="node">
<title>ray&#45;packages</title>
<g id="a_node50"><a xlink:href="https://github.com/conda-forge/ray-packages-feedstock" xlink:title="ray packages">
<ellipse fill="#fde725" stroke="black" cx="2170" cy="-942" rx="71.5" ry="18"/>
<text text-anchor="middle" x="2170" y="-938.3" font-family="Times,serif" font-size="14.00">ray packages</text>
</a>
</g>
</g>
<!-- dask&#45;sql&#45;&gt;ray&#45;packages -->
<!-- filprofiler -->
<g id="node49" class="node">
<title>filprofiler</title>
<g id="a_node49"><a xlink:href="https://github.com/conda-forge/filprofiler-feedstock/pull/51" xlink:title="filprofiler ❎">
<ellipse fill="#31688e" stroke="black" cx="1585" cy="-906" rx="67.69" ry="18"/>
<text text-anchor="middle" x="1585" y="-902.3" font-family="Times,serif" font-size="14.00" fill="white">filprofiler ❎</text>
</a>
</g>
</g>
<!-- glum -->
<g id="node51" class="node">
<title>glum</title>
<g id="a_node51"><a xlink:href="https://github.com/conda-forge/glum-feedstock" xlink:title="glum">
<ellipse fill="#fde725" stroke="black" cx="2170" cy="-870" rx="34.5" ry="18"/>
<text text-anchor="middle" x="2170" y="-866.3" font-family="Times,serif" font-size="14.00">glum</text>
</a>
</g>
</g>
<!-- ray&#45;packages&#45;&gt;glum -->
<!-- oras -->
<g id="node53" class="node">
<title>oras</title>
<g id="a_node53"><a xlink:href="https://github.com/conda-forge/oras-feedstock/pull/3" xlink:title="oras ❎">
<ellipse fill="#31688e" stroke="black" cx="2170" cy="-798" rx="45" ry="18"/>
<text text-anchor="middle" x="2170" y="-794.3" font-family="Times,serif" font-size="14.00" fill="white">oras ❎</text>
</a>
</g>
</g>
<!-- glum&#45;&gt;oras -->
<!-- tensorboard&#45;data&#45;server -->
<g id="node52" class="node">
<title>tensorboard&#45;data&#45;server</title>
<g id="a_node52"><a xlink:href="https://github.com/conda-forge/tensorboard-data-server-feedstock/pull/16" xlink:title="tensorboard data server ❎">
<ellipse fill="#31688e" stroke="black" cx="220" cy="-1266" rx="138" ry="18"/>
<text text-anchor="middle" x="220" y="-1262.3" font-family="Times,serif" font-size="14.00" fill="white">tensorboard data server ❎</text>
</a>
</g>
</g>
<!-- tensorboard&#45;data&#45;server&#45;&gt;tensorflow -->
<g id="edge43" class="edge">
<title>tensorboard&#45;data&#45;server&#45;&gt;tensorflow</title>
<path fill="none" stroke="black" d="M216.04,-1247.7C214.36,-1240.32 212.35,-1231.52 210.46,-1223.25"/>
<polygon fill="black" stroke="black" points="213.89,-1222.55 208.25,-1213.58 207.06,-1224.11 213.89,-1222.55"/>
</g>
<!-- meilisearch -->
<g id="node60" class="node">
<title>meilisearch</title>
<g id="a_node60"><a xlink:href="https://github.com/conda-forge/meilisearch-feedstock/pull/7" xlink:title="meilisearch ❎">
<ellipse fill="#31688e" stroke="black" cx="2170" cy="-726" rx="78.79" ry="18"/>
<text text-anchor="middle" x="2170" y="-722.3" font-family="Times,serif" font-size="14.00" fill="white">meilisearch ❎</text>
</a>
</g>
</g>
<!-- oras&#45;&gt;meilisearch -->
<!-- or&#45;tools -->
<g id="node54" class="node">
<title>or&#45;tools</title>
<g id="a_node54"><a xlink:href="https://github.com/conda-forge/or-tools-feedstock/pull/31" xlink:title="or tools ❎">
<ellipse fill="#31688e" stroke="black" cx="1031" cy="-1194" rx="60" ry="18"/>
<text text-anchor="middle" x="1031" y="-1190.3" font-family="Times,serif" font-size="14.00" fill="white">or tools ❎</text>
</a>
</g>
</g>
<!-- cds&#45;crtools -->
<g id="node55" class="node">
<title>cds&#45;crtools</title>
<g id="a_node55"><a xlink:href="https://github.com/conda-forge/cds-crtools-feedstock/pull/22" xlink:title="cds crtools ✓">
<ellipse fill="#31688e" stroke="black" cx="1385" cy="-1122" rx="68.49" ry="18"/>
<text text-anchor="middle" x="1385" y="-1118.3" font-family="Times,serif" font-size="14.00" fill="white">cds crtools ✓</text>
</a>
</g>
</g>
<!-- deno -->
<g id="node56" class="node">
<title>deno</title>
<g id="a_node56"><a xlink:href="https://github.com/conda-forge/deno-feedstock/pull/11" xlink:title="deno ❎">
<ellipse fill="#31688e" stroke="black" cx="2433" cy="-206" rx="47.5" ry="18"/>
<text text-anchor="middle" x="2433" y="-202.3" font-family="Times,serif" font-size="14.00" fill="white">deno ❎</text>
</a>
</g>
</g>
<!-- deno&#45;dom -->
<g id="node57" class="node">
<title>deno&#45;dom</title>
<g id="a_node57"><a xlink:href="https://github.com/conda-forge/deno-dom-feedstock" xlink:title="deno dom">
<ellipse fill="#fde725" stroke="black" cx="2433" cy="-134" rx="56" ry="18"/>
<text text-anchor="middle" x="2433" y="-130.3" font-family="Times,serif" font-size="14.00">deno dom</text>
</a>
</g>
</g>
<!-- deno&#45;&gt;deno&#45;dom -->
<g id="edge45" class="edge">
<title>deno&#45;&gt;deno&#45;dom</title>
<path fill="none" stroke="black" d="M2433,-187.7C2433,-180.41 2433,-171.73 2433,-163.54"/>
<polygon fill="black" stroke="black" points="2436.5,-163.62 2433,-153.62 2429.5,-163.62 2436.5,-163.62"/>
</g>
<!-- datafusion -->
<g id="node58" class="node">
<title>datafusion</title>
<g id="a_node58"><a xlink:href="https://github.com/conda-forge/datafusion-feedstock/pull/14" xlink:title="datafusion ❎">
<ellipse fill="#31688e" stroke="black" cx="1465" cy="-1050" rx="73.5" ry="18"/>
<text text-anchor="middle" x="1465" y="-1046.3" font-family="Times,serif" font-size="14.00" fill="white">datafusion ❎</text>
</a>
</g>
</g>
<!-- pyscf -->
<g id="node59" class="node">
<title>pyscf</title>
<g id="a_node59"><a xlink:href="https://github.com/conda-forge/pyscf-feedstock/pull/5" xlink:title="pyscf ❎">
<ellipse fill="#31688e" stroke="black" cx="1663" cy="-978" rx="49.5" ry="18"/>
<text text-anchor="middle" x="1663" y="-974.3" font-family="Times,serif" font-size="14.00" fill="white">pyscf ❎</text>
</a>
</g>
</g>
<!-- srt -->
<g id="node61" class="node">
<title>srt</title>
<g id="a_node61"><a xlink:href="https://github.com/conda-forge/srt-feedstock/pull/7" xlink:title="srt ✓">
<ellipse fill="#31688e" stroke="black" cx="1024" cy="-682" rx="31.4" ry="18"/>
<text text-anchor="middle" x="1024" y="-678.3" font-family="Times,serif" font-size="14.00" fill="white">srt ✓</text>
</a>
</g>
</g>
<!-- yarp -->
<g id="node62" class="node">
<title>yarp</title>
<g id="a_node62"><a xlink:href="https://github.com/conda-forge/yarp-feedstock" xlink:title="yarp">
<ellipse fill="#fde725" stroke="black" cx="1024" cy="-610" rx="32" ry="18"/>
<text text-anchor="middle" x="1024" y="-606.3" font-family="Times,serif" font-size="14.00">yarp</text>
</a>
</g>
</g>
<!-- srt&#45;&gt;yarp -->
<!-- quarto -->
<g id="node63" class="node">
<title>quarto</title>
<g id="a_node63"><a xlink:href="https://github.com/conda-forge/quarto-feedstock" xlink:title="quarto">
<ellipse fill="#fde725" stroke="black" cx="1024" cy="-538" rx="41.69" ry="18"/>
<text text-anchor="middle" x="1024" y="-534.3" font-family="Times,serif" font-size="14.00">quarto</text>
</a>
</g>
</g>
<!-- yarp&#45;&gt;quarto -->
<!-- go&#45;yq -->
<g id="node65" class="node">
<title>go&#45;yq</title>
<g id="a_node65"><a xlink:href="https://github.com/conda-forge/go-yq-feedstock/pull/5" xlink:title="go yq ❎">
<ellipse fill="#31688e" stroke="black" cx="1024" cy="-466" rx="50.09" ry="18"/>
<text text-anchor="middle" x="1024" y="-462.3" font-family="Times,serif" font-size="14.00" fill="white">go yq ❎</text>
</a>
</g>
</g>
<!-- quarto&#45;&gt;go&#45;yq -->
<!-- heavydb&#45;ext -->
<g id="node64" class="node">
<title>heavydb&#45;ext</title>
<g id="a_node64"><a xlink:href="https://github.com/conda-forge/heavydb-ext-feedstock/pull/36" xlink:title="heavydb ext ❎">
<ellipse fill="#31688e" stroke="black" cx="1752" cy="-906" rx="81.49" ry="18"/>
<text text-anchor="middle" x="1752" y="-902.3" font-family="Times,serif" font-size="14.00" fill="white">heavydb ext ❎</text>
</a>
</g>
</g>
<!-- gymnasium -->
<g id="node70" class="node">
<title>gymnasium</title>
<g id="a_node70"><a xlink:href="https://github.com/conda-forge/gymnasium-feedstock/pull/17" xlink:title="gymnasium ❎">
<ellipse fill="#31688e" stroke="black" cx="1024" cy="-394" rx="78.79" ry="18"/>
<text text-anchor="middle" x="1024" y="-390.3" font-family="Times,serif" font-size="14.00" fill="white">gymnasium ❎</text>
</a>
</g>
</g>
<!-- go&#45;yq&#45;&gt;gymnasium -->
<!-- gz&#45;sim -->
<g id="node66" class="node">
<title>gz&#45;sim</title>
<g id="a_node66"><a xlink:href="https://github.com/conda-forge/gz-sim-feedstock" xlink:title="gz sim">
<ellipse fill="#fde725" stroke="black" cx="1024" cy="-90" rx="41" ry="18"/>
<text text-anchor="middle" x="1024" y="-86.3" font-family="Times,serif" font-size="14.00">gz sim</text>
</a>
</g>
</g>
<!-- gz&#45;launch -->
<g id="node67" class="node">
<title>gz&#45;launch</title>
<g id="a_node67"><a xlink:href="https://github.com/conda-forge/gz-launch-feedstock" xlink:title="gz launch">
<ellipse fill="#fde725" stroke="black" cx="1024" cy="-18" rx="55.49" ry="18"/>
<text text-anchor="middle" x="1024" y="-14.3" font-family="Times,serif" font-size="14.00">gz launch</text>
</a>
</g>
</g>
<!-- gz&#45;sim&#45;&gt;gz&#45;launch -->
<g id="edge50" class="edge">
<title>gz&#45;sim&#45;&gt;gz&#45;launch</title>
<path fill="none" stroke="black" d="M1024,-71.7C1024,-64.41 1024,-55.73 1024,-47.54"/>
<polygon fill="black" stroke="black" points="1027.5,-47.62 1024,-37.62 1020.5,-47.62 1027.5,-47.62"/>
</g>
<!-- linux&#45;perf -->
<g id="node68" class="node">
<title>linux&#45;perf</title>
<g id="a_node68"><a xlink:href="https://github.com/conda-forge/linux-perf-feedstock" xlink:title="linux perf">
<ellipse fill="#fde725" stroke="black" cx="1986" cy="-1194" rx="56" ry="18"/>
<text text-anchor="middle" x="1986" y="-1190.3" font-family="Times,serif" font-size="14.00">linux perf</text>
</a>
</g>
</g>
<!-- numactl -->
<g id="node69" class="node">
<title>numactl</title>
<g id="a_node69"><a xlink:href="https://github.com/conda-forge/numactl-feedstock/pull/1" xlink:title="numactl ❎">
<ellipse fill="#31688e" stroke="black" cx="1986" cy="-1266" rx="62.5" ry="18"/>
<text text-anchor="middle" x="1986" y="-1262.3" font-family="Times,serif" font-size="14.00" fill="white">numactl ❎</text>
</a>
</g>
</g>
<!-- numactl&#45;&gt;linux&#45;perf -->
<g id="edge51" class="edge">
<title>numactl&#45;&gt;linux&#45;perf</title>
<path fill="none" stroke="black" d="M1986,-1247.7C1986,-1240.41 1986,-1231.73 1986,-1223.54"/>
<polygon fill="black" stroke="black" points="1989.5,-1223.62 1986,-1213.62 1982.5,-1223.62 1989.5,-1223.62"/>
</g>
<!-- veloxchem -->
<g id="node71" class="node">
<title>veloxchem</title>
<g id="a_node71"><a xlink:href="https://github.com/conda-forge/veloxchem-feedstock" xlink:title="veloxchem">
<ellipse fill="#fde725" stroke="black" cx="1024" cy="-322" rx="60" ry="18"/>
<text text-anchor="middle" x="1024" y="-318.3" font-family="Times,serif" font-size="14.00">veloxchem</text>
</a>
</g>
</g>
<!-- gymnasium&#45;&gt;veloxchem -->
<!-- pypdf -->
<g id="node72" class="node">
<title>pypdf</title>
<g id="a_node72"><a xlink:href="https://github.com/conda-forge/pypdf-feedstock" xlink:title="pypdf">
<ellipse fill="#fde725" stroke="black" cx="1024" cy="-250" rx="37.09" ry="18"/>
<text text-anchor="middle" x="1024" y="-246.3" font-family="Times,serif" font-size="14.00">pypdf</text>
</a>
</g>
</g>
<!-- veloxchem&#45;&gt;pypdf -->
<!-- graalpy -->
<g id="node73" class="node">
<title>graalpy</title>
<g id="a_node73"><a xlink:href="https://github.com/conda-forge/graalpy-feedstock" xlink:title="graalpy">
<ellipse fill="#000000" stroke="black" cx="1179" cy="-1266" rx="46.29" ry="18"/>
<text text-anchor="middle" x="1179" y="-1262.3" font-family="Times,serif" font-size="14.00" fill="white">graalpy</text>
</a>
</g>
</g>
<!-- graalpy&#45;&gt;julia -->
<g id="edge55" class="edge">
<title>graalpy&#45;&gt;julia</title>
<path fill="none" stroke="black" d="M1214.16,-1254.06C1252.96,-1241.99 1315.55,-1222.52 1358.17,-1209.26"/>
<polygon fill="black" stroke="black" points="1359.14,-1212.62 1367.65,-1206.31 1357.06,-1205.94 1359.14,-1212.62"/>
</g>
<!-- graalpy&#45;&gt;pyferret -->
<g id="edge56" class="edge">
<title>graalpy&#45;&gt;pyferret</title>
<path fill="none" stroke="black" d="M1132.41,-1265.58C985.23,-1266.78 517.34,-1265.79 135,-1212 127.47,-1210.94 119.57,-1209.48 111.86,-1207.85"/>
<polygon fill="black" stroke="black" points="112.78,-1204.47 102.26,-1205.71 111.26,-1211.3 112.78,-1204.47"/>
</g>
<!-- graalpy&#45;&gt;torchvision -->
<g id="edge57" class="edge">
<title>graalpy&#45;&gt;torchvision</title>
<path fill="none" stroke="black" d="M1133.11,-1263.02C1041.11,-1258.41 837.73,-1244.73 777,-1212 750.41,-1197.67 728.86,-1170.22 715.39,-1149.57"/>
<polygon fill="black" stroke="black" points="718.52,-1147.97 710.24,-1141.36 712.58,-1151.69 718.52,-1147.97"/>
</g>
<!-- graalpy&#45;&gt;allennlp -->
<g id="edge58" class="edge">
<title>graalpy&#45;&gt;allennlp</title>
<path fill="none" stroke="black" d="M1132.47,-1264.83C988.66,-1263.83 553,-1257.07 420,-1212 365.01,-1193.37 338.5,-1191.13 311,-1140 260.05,-1045.28 441.16,-1002.42 537.53,-986.66"/>
<polygon fill="black" stroke="black" points="538.01,-990.13 547.34,-985.11 536.92,-983.21 538.01,-990.13"/>
</g>
<!-- graalpy&#45;&gt;fairscale -->
<g id="edge59" class="edge">
<title>graalpy&#45;&gt;fairscale</title>
<path fill="none" stroke="black" d="M1132.48,-1265.18C1071.25,-1263.6 961.8,-1254.39 880,-1212 819.45,-1180.62 823.65,-1147.35 771,-1104 757.24,-1092.67 741.07,-1081.39 727.04,-1072.17"/>
<polygon fill="black" stroke="black" points="729.29,-1069.45 718.99,-1066.96 725.48,-1075.33 729.29,-1069.45"/>
</g>
<!-- graalpy&#45;&gt;geckodriver -->
<g id="edge60" class="edge">
<title>graalpy&#45;&gt;geckodriver</title>
<path fill="none" stroke="black" d="M1224.77,-1262.34C1319.24,-1256.46 1542.51,-1240.57 1728,-1212 1734.47,-1211 1741.21,-1209.81 1747.91,-1208.53"/>
<polygon fill="black" stroke="black" points="1748.47,-1211.99 1757.6,-1206.61 1747.11,-1205.12 1748.47,-1211.99"/>
</g>
<!-- graalpy&#45;&gt;firefox -->
<g id="edge61" class="edge">
<title>graalpy&#45;&gt;firefox</title>
<path fill="none" stroke="black" d="M1225.5,-1265.07C1375.34,-1264.82 1838.35,-1260.13 1883,-1212 1893.88,-1200.27 1890.36,-1190.21 1883,-1176 1875.14,-1160.82 1860.7,-1149.05 1846.57,-1140.51"/>
<polygon fill="black" stroke="black" points="1848.69,-1137.68 1838.25,-1135.84 1845.26,-1143.79 1848.69,-1137.68"/>
</g>
<!-- graalpy&#45;&gt;tensorflow -->
<g id="edge62" class="edge">
<title>graalpy&#45;&gt;tensorflow</title>
<path fill="none" stroke="black" d="M1132.3,-1264.99C998.52,-1264.39 602.57,-1258.5 278,-1212 271.96,-1211.14 265.7,-1210.03 259.47,-1208.79"/>
<polygon fill="black" stroke="black" points="260.37,-1205.41 249.86,-1206.77 258.93,-1212.26 260.37,-1205.41"/>
</g>
<!-- graalpy&#45;&gt;pytorch&#45;cpu -->
<g id="edge63" class="edge">
<title>graalpy&#45;&gt;pytorch&#45;cpu</title>
<path fill="none" stroke="black" d="M1134.56,-1260.44C1052,-1251.85 869.4,-1232.31 716,-1212 703.88,-1210.39 691.04,-1208.58 678.54,-1206.74"/>
<polygon fill="black" stroke="black" points="679.09,-1203.29 668.68,-1205.28 678.06,-1210.21 679.09,-1203.29"/>
</g>
<!-- graalpy&#45;&gt;nvidia&#45;apex -->
<g id="edge64" class="edge">
<title>graalpy&#45;&gt;nvidia&#45;apex</title>
<path fill="none" stroke="black" d="M1132.46,-1264.11C989.5,-1260.98 563.46,-1248.66 514,-1212 494.93,-1197.87 486.25,-1171.77 482.29,-1151.47"/>
<polygon fill="black" stroke="black" points="485.78,-1151.13 480.71,-1141.82 478.87,-1152.26 485.78,-1151.13"/>
</g>
<!-- graalpy&#45;&gt;kaolin -->
<g id="edge65" class="edge">
<title>graalpy&#45;&gt;kaolin</title>
<path fill="none" stroke="black" d="M1132.44,-1264.63C997.05,-1263.05 605.57,-1254.81 486,-1212 446.22,-1197.76 407.48,-1167.53 383.46,-1146.26"/>
<polygon fill="black" stroke="black" points="385.88,-1143.74 376.12,-1139.62 381.19,-1148.93 385.88,-1143.74"/>
</g>
<!-- graalpy&#45;&gt;gstlal -->
<g id="edge66" class="edge">
<title>graalpy&#45;&gt;gstlal</title>
<path fill="none" stroke="black" d="M1171.01,-1248.05C1167.32,-1240.23 1162.85,-1230.75 1158.72,-1221.98"/>
<polygon fill="black" stroke="black" points="1161.99,-1220.71 1154.56,-1213.16 1155.66,-1223.7 1161.99,-1220.71"/>
</g>
<!-- graalpy&#45;&gt;gstlal&#45;ugly -->
<g id="edge67" class="edge">
<title>graalpy&#45;&gt;gstlal&#45;ugly</title>
<path fill="none" stroke="black" d="M1134.36,-1260.51C1077.2,-1253.74 983.02,-1238.77 962,-1212 947.54,-1193.59 958.93,-1167.96 971.78,-1148.93"/>
<polygon fill="black" stroke="black" points="974.58,-1151.03 977.62,-1140.88 968.92,-1146.92 974.58,-1151.03"/>
</g>
<!-- graalpy&#45;&gt;gstlal&#45;burst -->
<g id="edge68" class="edge">
<title>graalpy&#45;&gt;gstlal&#45;burst</title>
<path fill="none" stroke="black" d="M1134.84,-1260.11C1070.2,-1252.26 953.74,-1235.36 919,-1212 872.11,-1180.47 846.27,-1116.5 834.66,-1079.39"/>
<polygon fill="black" stroke="black" points="838.02,-1078.4 831.81,-1069.81 831.31,-1080.4 838.02,-1078.4"/>
</g>
<!-- graalpy&#45;&gt;gstlal&#45;inspiral -->
<g id="edge69" class="edge">
<title>graalpy&#45;&gt;gstlal&#45;inspiral</title>
<path fill="none" stroke="black" d="M1135.22,-1259.68C1077.21,-1251.82 979.05,-1235.47 952,-1212 914.55,-1179.5 903.62,-1149.2 924,-1104 929.25,-1092.36 938.46,-1082.25 948.11,-1074.07"/>
<polygon fill="black" stroke="black" points="950.09,-1076.96 955.8,-1068.04 945.77,-1071.45 950.09,-1076.96"/>
</g>
<!-- graalpy&#45;&gt;gstlal&#45;calibration -->
<g id="edge70" class="edge">
<title>graalpy&#45;&gt;gstlal&#45;calibration</title>
<path fill="none" stroke="black" d="M1199.54,-1249.47C1235.27,-1220.51 1302.12,-1156.43 1270,-1104 1260.53,-1088.55 1244.98,-1077.42 1228.76,-1069.49"/>
<polygon fill="black" stroke="black" points="1230.56,-1066.46 1220,-1065.57 1227.7,-1072.85 1230.56,-1066.46"/>
</g>
<!-- graalpy&#45;&gt;geant4 -->
<g id="edge71" class="edge">
<title>graalpy&#45;&gt;geant4</title>
<path fill="none" stroke="black" d="M1183.23,-1247.88C1185.7,-1237.54 1188.76,-1224.06 1191,-1212 1194.73,-1191.92 1198.05,-1169.12 1200.39,-1151.63"/>
<polygon fill="black" stroke="black" points="1203.83,-1152.33 1201.66,-1141.96 1196.89,-1151.42 1203.83,-1152.33"/>
</g>
<!-- graalpy&#45;&gt;jaxlib -->
<g id="edge72" class="edge">
<title>graalpy&#45;&gt;jaxlib</title>
<path fill="none" stroke="black" d="M1225.12,-1262.91C1296.34,-1258.64 1428.03,-1246.22 1458,-1212 1489.65,-1175.87 1489.25,-1143.55 1462,-1104 1456.45,-1095.94 1408.76,-1078.85 1370.77,-1066.25"/>
<polygon fill="black" stroke="black" points="1371.88,-1062.93 1361.29,-1063.13 1369.7,-1069.58 1371.88,-1062.93"/>
</g>
<!-- graalpy&#45;&gt;libv8 -->
<g id="edge73" class="edge">
<title>graalpy&#45;&gt;libv8</title>
<path fill="none" stroke="black" d="M1225.33,-1263.41C1305.22,-1259.74 1464.3,-1247.99 1505,-1212 1566.54,-1157.58 1580.14,-1107.17 1547,-1032 1541.69,-1019.96 1532.15,-1009.47 1522.32,-1001.07"/>
<polygon fill="black" stroke="black" points="1524.52,-998.35 1514.5,-994.89 1520.18,-1003.84 1524.52,-998.35"/>
</g>
<!-- graalpy&#45;&gt;filprofiler -->
<g id="edge74" class="edge">
<title>graalpy&#45;&gt;filprofiler</title>
<path fill="none" stroke="black" d="M1225.18,-1263.15C1310,-1258.97 1486.48,-1246.28 1536,-1212 1624.23,-1150.91 1604.47,-998.97 1591.63,-935.54"/>
<polygon fill="black" stroke="black" points="1595.09,-934.95 1589.58,-925.9 1588.24,-936.41 1595.09,-934.95"/>
</g>
<!-- graalpy&#45;&gt;or&#45;tools -->
<g id="edge75" class="edge">
<title>graalpy&#45;&gt;or&#45;tools</title>
<path fill="none" stroke="black" d="M1150.46,-1251.5C1128.34,-1241.04 1097.37,-1226.39 1072.5,-1214.63"/>
<polygon fill="black" stroke="black" points="1074.17,-1211.55 1063.63,-1210.43 1071.17,-1217.87 1074.17,-1211.55"/>
</g>
<!-- graalpy&#45;&gt;cds&#45;crtools -->
<g id="edge76" class="edge">
<title>graalpy&#45;&gt;cds&#45;crtools</title>
<path fill="none" stroke="black" d="M1214.72,-1254.24C1240.67,-1245.39 1275.85,-1231.18 1303,-1212 1327.77,-1194.5 1350.68,-1168.43 1365.95,-1149.02"/>
<polygon fill="black" stroke="black" points="1368.57,-1151.36 1371.89,-1141.3 1363.02,-1147.1 1368.57,-1151.36"/>
</g>
<!-- graalpy&#45;&gt;datafusion -->
<g id="edge77" class="edge">
<title>graalpy&#45;&gt;datafusion</title>
<path fill="none" stroke="black" d="M1225.29,-1263.82C1301.95,-1260.79 1450.1,-1250.04 1483,-1212 1515.18,-1174.79 1494.98,-1113.27 1478.96,-1078.03"/>
<polygon fill="black" stroke="black" points="1482.29,-1076.89 1474.84,-1069.36 1475.97,-1079.89 1482.29,-1076.89"/>
</g>
<!-- graalpy&#45;&gt;pyscf -->
<g id="edge78" class="edge">
<title>graalpy&#45;&gt;pyscf</title>
<path fill="none" stroke="black" d="M1224.89,-1262.51C1331.8,-1256.28 1590.55,-1238.61 1619,-1212 1675.82,-1158.86 1672.73,-1057.2 1667.21,-1007.62"/>
<polygon fill="black" stroke="black" points="1670.69,-1007.19 1665.98,-997.7 1663.74,-1008.05 1670.69,-1007.19"/>
</g>
<!-- graalpy&#45;&gt;heavydb&#45;ext -->
<g id="edge79" class="edge">
<title>graalpy&#45;&gt;heavydb&#45;ext</title>
<path fill="none" stroke="black" d="M1225.64,-1265.43C1330.32,-1265.5 1579.96,-1260.44 1646,-1212 1736.06,-1145.95 1750.14,-998 1751.96,-935.61"/>
<polygon fill="black" stroke="black" points="1755.45,-935.9 1752.15,-925.84 1748.46,-935.77 1755.45,-935.9"/>
</g>
<!-- graalpy&#45;&gt;linux&#45;perf -->
<g id="edge80" class="edge">
<title>graalpy&#45;&gt;linux&#45;perf</title>
<path fill="none" stroke="black" d="M1225.44,-1264.34C1342.19,-1262.09 1657.13,-1252.45 1916,-1212 1921.65,-1211.12 1927.51,-1210.01 1933.33,-1208.78"/>
<polygon fill="black" stroke="black" points="1933.93,-1212.23 1942.92,-1206.64 1932.4,-1205.4 1933.93,-1212.23"/>
</g>
</g>
</svg>
