<?xml version="1.0" encoding="UTF-8" standalone="no"?>
<!DOCTYPE svg PUBLIC "-//W3C//DTD SVG 1.1//EN"
 "http://www.w3.org/Graphics/SVG/1.1/DTD/svg11.dtd">
<!-- Generated by graphviz version 6.0.1 (20220911.2005)
 -->
<!-- Pages: 1 -->
<svg width="476pt" height="188pt"
 viewBox="0.00 0.00 475.74 188.00" xmlns="http://www.w3.org/2000/svg" xmlns:xlink="http://www.w3.org/1999/xlink">
<g id="graph0" class="graph" transform="scale(1 1) rotate(0) translate(4 184)">
<polygon fill="white" stroke="none" points="-4,4 -4,-184 471.74,-184 471.74,4 -4,4"/>
<!-- gstreamer -->
<g id="node1" class="node">
<title>gstreamer</title>
<g id="a_node1"><a xlink:href="https://github.com/conda-forge/gstreamer-feedstock" xlink:title="gstreamer">
<ellipse fill="#35b779" stroke="black" cx="59.14" cy="-162" rx="59.29" ry="18"/>
<text text-anchor="middle" x="59.14" y="-158.3" font-family="Times,serif" font-size="14.00">gstreamer</text>
</a>
</g>
</g>
<!-- qt&#45;main -->
<g id="node8" class="node">
<title>qt&#45;main</title>
<g id="a_node8"><a xlink:href="https://github.com/conda-forge/qt-main-feedstock" xlink:title="qt main">
<ellipse fill="#fde725" stroke="black" cx="82.14" cy="-90" rx="46.29" ry="18"/>
<text text-anchor="middle" x="82.14" y="-86.3" font-family="Times,serif" font-size="14.00">qt main</text>
</a>
</g>
</g>
<!-- gstreamer&#45;&gt;qt&#45;main -->
<g id="edge1" class="edge">
<title>gstreamer&#45;&gt;qt&#45;main</title>
<path fill="none" stroke="black" d="M64.71,-144.05C67.3,-136.18 70.44,-126.62 73.34,-117.79"/>
<polygon fill="black" stroke="black" points="76.67,-118.87 76.47,-108.28 70.02,-116.68 76.67,-118.87"/>
</g>
<!-- octave -->
<g id="node2" class="node">
<title>octave</title>
<g id="a_node2"><a xlink:href="https://github.com/conda-forge/octave-feedstock" xlink:title="octave">
<ellipse fill="#fde725" stroke="black" cx="82.14" cy="-18" rx="40.89" ry="18"/>
<text text-anchor="middle" x="82.14" y="-14.3" font-family="Times,serif" font-size="14.00">octave</text>
</a>
</g>
</g>
<!-- openjdk -->
<g id="node3" class="node">
<title>openjdk</title>
<g id="a_node3"><a xlink:href="https://github.com/conda-forge/openjdk-feedstock/pull/111" xlink:title="openjdk ✓">
<ellipse fill="#31688e" stroke="black" cx="413.14" cy="-90" rx="54.69" ry="18"/>
<text text-anchor="middle" x="413.14" y="-86.3" font-family="Times,serif" font-size="14.00" fill="white">openjdk ✓</text>
</a>
</g>
</g>
<!-- pulseaudio -->
<g id="node4" class="node">
<title>pulseaudio</title>
<g id="a_node4"><a xlink:href="https://github.com/conda-forge/pulseaudio-feedstock" xlink:title="pulseaudio">
<ellipse fill="#35b779" stroke="black" cx="197.14" cy="-162" rx="61.19" ry="18"/>
<text text-anchor="middle" x="197.14" y="-158.3" font-family="Times,serif" font-size="14.00">pulseaudio</text>
</a>
</g>
</g>
<!-- mlt -->
<g id="node5" class="node">
<title>mlt</title>
<g id="a_node5"><a xlink:href="https://github.com/conda-forge/mlt-feedstock" xlink:title="mlt">
<ellipse fill="#fde725" stroke="black" cx="173.14" cy="-90" rx="27" ry="18"/>
<text text-anchor="middle" x="173.14" y="-86.3" font-family="Times,serif" font-size="14.00">mlt</text>
</a>
</g>
</g>
<!-- pulseaudio&#45;&gt;mlt -->
<g id="edge3" class="edge">
<title>pulseaudio&#45;&gt;mlt</title>
<path fill="none" stroke="black" d="M191.34,-144.05C188.59,-136.06 185.26,-126.33 182.2,-117.4"/>
<polygon fill="black" stroke="black" points="185.46,-116.11 178.9,-107.79 178.83,-118.38 185.46,-116.11"/>
</g>
<!-- alsa&#45;plugins -->
<g id="node7" class="node">
<title>alsa&#45;plugins</title>
<g id="a_node7"><a xlink:href="https://github.com/conda-forge/alsa-plugins-feedstock" xlink:title="alsa plugins">
<ellipse fill="#fde725" stroke="black" cx="284.14" cy="-90" rx="66.09" ry="18"/>
<text text-anchor="middle" x="284.14" y="-86.3" font-family="Times,serif" font-size="14.00">alsa plugins</text>
</a>
</g>
</g>
<!-- pulseaudio&#45;&gt;alsa&#45;plugins -->
<g id="edge2" class="edge">
<title>pulseaudio&#45;&gt;alsa&#45;plugins</title>
<path fill="none" stroke="black" d="M217.32,-144.76C228.77,-135.55 243.28,-123.88 255.85,-113.77"/>
<polygon fill="black" stroke="black" points="258.18,-116.39 263.77,-107.39 253.79,-110.93 258.18,-116.39"/>
</g>
<!-- pulseaudio&#45;&gt;qt&#45;main -->
<g id="edge4" class="edge">
<title>pulseaudio&#45;&gt;qt&#45;main</title>
<path fill="none" stroke="black" d="M171.62,-145.46C154.94,-135.31 133,-121.96 115.02,-111.01"/>
<polygon fill="black" stroke="black" points="116.39,-107.75 106.03,-105.54 112.75,-113.73 116.39,-107.75"/>
</g>
<!-- gnuradio -->
<g id="node6" class="node">
<title>gnuradio</title>
<g id="a_node6"><a xlink:href="https://github.com/conda-forge/gnuradio-feedstock" xlink:title="gnuradio">
<ellipse fill="#fde725" stroke="black" cx="238.14" cy="-18" rx="51.99" ry="18"/>
<text text-anchor="middle" x="238.14" y="-14.3" font-family="Times,serif" font-size="14.00">gnuradio</text>
</a>
</g>
</g>
<!-- alsa&#45;plugins&#45;&gt;gnuradio -->
<g id="edge5" class="edge">
<title>alsa&#45;plugins&#45;&gt;gnuradio</title>
<path fill="none" stroke="black" d="M273.01,-72.05C267.53,-63.71 260.81,-53.49 254.74,-44.25"/>
<polygon fill="black" stroke="black" points="257.59,-42.22 249.18,-35.79 251.74,-46.07 257.59,-42.22"/>
</g>
<!-- qt&#45;main&#45;&gt;octave -->
<g id="edge7" class="edge">
<title>qt&#45;main&#45;&gt;octave</title>
<path fill="none" stroke="black" d="M82.14,-71.7C82.14,-63.98 82.14,-54.71 82.14,-46.11"/>
<polygon fill="black" stroke="black" points="85.64,-46.1 82.14,-36.1 78.64,-46.1 85.64,-46.1"/>
</g>
<!-- qt&#45;main&#45;&gt;gnuradio -->
<g id="edge6" class="edge">
<title>qt&#45;main&#45;&gt;gnuradio</title>
<path fill="none" stroke="black" d="M111.49,-75.83C136.04,-64.82 171.31,-48.99 198.39,-36.84"/>
<polygon fill="black" stroke="black" points="199.91,-39.99 207.6,-32.71 197.05,-33.61 199.91,-39.99"/>
</g>
</g>
</svg>
