<?xml version="1.0" encoding="UTF-8" standalone="no"?>
<!DOCTYPE svg PUBLIC "-//W3C//DTD SVG 1.1//EN"
 "http://www.w3.org/Graphics/SVG/1.1/DTD/svg11.dtd">
<!-- Generated by graphviz version 3.0.0 (20220315.2325)
 -->
<!-- Pages: 1 -->
<svg width="656pt" height="332pt"
 viewBox="0.00 0.00 655.59 332.00" xmlns="http://www.w3.org/2000/svg" xmlns:xlink="http://www.w3.org/1999/xlink">
<g id="graph0" class="graph" transform="scale(1 1) rotate(0) translate(4 328)">
<polygon fill="white" stroke="transparent" points="-4,4 -4,-328 651.59,-328 651.59,4 -4,4"/>
<!-- gstreamer -->
<g id="node1" class="node">
<title>gstreamer</title>
<g id="a_node1"><a xlink:href="https://github.com/conda-forge/gstreamer-feedstock" xlink:title="gstreamer">
<ellipse fill="#fde725" stroke="black" cx="486.15" cy="-162" rx="59.29" ry="18"/>
<text text-anchor="middle" x="486.15" y="-158.3" font-family="Times,serif" font-size="14.00">gstreamer</text>
</a>
</g>
</g>
<!-- qt&#45;main -->
<g id="node11" class="node">
<title>qt&#45;main</title>
<g id="a_node11"><a xlink:href="https://github.com/conda-forge/qt-main-feedstock" xlink:title="qt main">
<ellipse fill="#fde725" stroke="black" cx="478.15" cy="-90" rx="46.29" ry="18"/>
<text text-anchor="middle" x="478.15" y="-86.3" font-family="Times,serif" font-size="14.00">qt main</text>
</a>
</g>
</g>
<!-- gstreamer&#45;&gt;qt&#45;main -->
<g id="edge1" class="edge">
<title>gstreamer&#45;&gt;qt&#45;main</title>
<path fill="none" stroke="black" d="M484.17,-143.7C483.29,-135.98 482.23,-126.71 481.24,-118.11"/>
<polygon fill="black" stroke="black" points="484.71,-117.64 480.1,-108.1 477.76,-118.44 484.71,-117.64"/>
</g>
<!-- jack -->
<g id="node2" class="node">
<title>jack</title>
<g id="a_node2"><a xlink:href="https://github.com/conda-forge/jack-feedstock" xlink:title="jack">
<ellipse fill="#fde725" stroke="black" cx="259.15" cy="-234" rx="29.5" ry="18"/>
<text text-anchor="middle" x="259.15" y="-230.3" font-family="Times,serif" font-size="14.00">jack</text>
</a>
</g>
</g>
<!-- jack&#45;&gt;gstreamer -->
<g id="edge3" class="edge">
<title>jack&#45;&gt;gstreamer</title>
<path fill="none" stroke="black" d="M284.74,-225.11C321.44,-213.79 389.73,-192.73 436.52,-178.3"/>
<polygon fill="black" stroke="black" points="437.64,-181.62 446.17,-175.33 435.58,-174.93 437.64,-181.62"/>
</g>
<!-- pulseaudio -->
<g id="node7" class="node">
<title>pulseaudio</title>
<g id="a_node7"><a xlink:href="https://github.com/conda-forge/pulseaudio-feedstock" xlink:title="pulseaudio">
<ellipse fill="#fde725" stroke="black" cx="348.15" cy="-162" rx="61.19" ry="18"/>
<text text-anchor="middle" x="348.15" y="-158.3" font-family="Times,serif" font-size="14.00">pulseaudio</text>
</a>
</g>
</g>
<!-- jack&#45;&gt;pulseaudio -->
<g id="edge5" class="edge">
<title>jack&#45;&gt;pulseaudio</title>
<path fill="none" stroke="black" d="M276.73,-219.17C289.01,-209.51 305.67,-196.41 319.81,-185.28"/>
<polygon fill="black" stroke="black" points="322.1,-187.94 327.8,-179.01 317.77,-182.44 322.1,-187.94"/>
</g>
<!-- mlt -->
<g id="node8" class="node">
<title>mlt</title>
<g id="a_node8"><a xlink:href="https://github.com/conda-forge/mlt-feedstock" xlink:title="mlt">
<ellipse fill="#fde725" stroke="black" cx="237.15" cy="-90" rx="27" ry="18"/>
<text text-anchor="middle" x="237.15" y="-86.3" font-family="Times,serif" font-size="14.00">mlt</text>
</a>
</g>
</g>
<!-- jack&#45;&gt;mlt -->
<g id="edge4" class="edge">
<title>jack&#45;&gt;mlt</title>
<path fill="none" stroke="black" d="M253.87,-215.98C250.86,-205.66 247.29,-192.19 245.15,-180 241.54,-159.5 239.52,-136.05 238.41,-118.36"/>
<polygon fill="black" stroke="black" points="241.89,-117.96 237.83,-108.17 234.9,-118.36 241.89,-117.96"/>
</g>
<!-- alsa&#45;plugins -->
<g id="node10" class="node">
<title>alsa&#45;plugins</title>
<g id="a_node10"><a xlink:href="https://github.com/conda-forge/alsa-plugins-feedstock" xlink:title="alsa plugins">
<ellipse fill="#fde725" stroke="black" cx="348.15" cy="-90" rx="66.09" ry="18"/>
<text text-anchor="middle" x="348.15" y="-86.3" font-family="Times,serif" font-size="14.00">alsa plugins</text>
</a>
</g>
</g>
<!-- jack&#45;&gt;alsa&#45;plugins -->
<g id="edge2" class="edge">
<title>jack&#45;&gt;alsa&#45;plugins</title>
<path fill="none" stroke="black" d="M259.32,-215.94C260.26,-196.98 264.07,-166.13 278.15,-144 286.24,-131.27 298.54,-120.46 310.59,-111.99"/>
<polygon fill="black" stroke="black" points="312.85,-114.69 319.24,-106.24 308.98,-108.86 312.85,-114.69"/>
</g>
<!-- octave -->
<g id="node3" class="node">
<title>octave</title>
<g id="a_node3"><a xlink:href="https://github.com/conda-forge/octave-feedstock" xlink:title="octave">
<ellipse fill="#fde725" stroke="black" cx="113.15" cy="-234" rx="40.89" ry="18"/>
<text text-anchor="middle" x="113.15" y="-230.3" font-family="Times,serif" font-size="14.00">octave</text>
</a>
</g>
</g>
<!-- openjdk -->
<g id="node4" class="node">
<title>openjdk</title>
<g id="a_node4"><a xlink:href="https://github.com/conda-forge/openjdk-feedstock" xlink:title="openjdk">
<ellipse fill="#35b779" stroke="black" cx="600.15" cy="-162" rx="47.39" ry="18"/>
<text text-anchor="middle" x="600.15" y="-158.3" font-family="Times,serif" font-size="14.00">openjdk</text>
</a>
</g>
</g>
<!-- portaudio -->
<g id="node5" class="node">
<title>portaudio</title>
<g id="a_node5"><a xlink:href="https://github.com/conda-forge/portaudio-feedstock/pull/16" xlink:title="portaudio ❎">
<ellipse fill="#31688e" stroke="black" cx="182.15" cy="-306" rx="69.59" ry="18"/>
<text text-anchor="middle" x="182.15" y="-302.3" font-family="Times,serif" font-size="14.00" fill="white">portaudio ❎</text>
</a>
</g>
</g>
<!-- portaudio&#45;&gt;jack -->
<g id="edge7" class="edge">
<title>portaudio&#45;&gt;jack</title>
<path fill="none" stroke="black" d="M200.39,-288.41C211.02,-278.75 224.52,-266.48 235.9,-256.14"/>
<polygon fill="black" stroke="black" points="238.33,-258.65 243.37,-249.34 233.62,-253.48 238.33,-258.65"/>
</g>
<!-- portaudio&#45;&gt;octave -->
<g id="edge8" class="edge">
<title>portaudio&#45;&gt;octave</title>
<path fill="none" stroke="black" d="M165.79,-288.41C156.9,-279.39 145.76,-268.09 136.02,-258.21"/>
<polygon fill="black" stroke="black" points="138.42,-255.65 128.91,-250.99 133.43,-260.57 138.42,-255.65"/>
</g>
<!-- gnuradio -->
<g id="node9" class="node">
<title>gnuradio</title>
<g id="a_node9"><a xlink:href="https://github.com/conda-forge/gnuradio-feedstock" xlink:title="gnuradio">
<ellipse fill="#fde725" stroke="black" cx="182.15" cy="-18" rx="51.99" ry="18"/>
<text text-anchor="middle" x="182.15" y="-14.3" font-family="Times,serif" font-size="14.00">gnuradio</text>
</a>
</g>
</g>
<!-- portaudio&#45;&gt;gnuradio -->
<g id="edge6" class="edge">
<title>portaudio&#45;&gt;gnuradio</title>
<path fill="none" stroke="black" d="M182.15,-287.97C182.15,-240.29 182.15,-105.18 182.15,-46.63"/>
<polygon fill="black" stroke="black" points="185.65,-46.31 182.15,-36.31 178.65,-46.31 185.65,-46.31"/>
</g>
<!-- pyqt -->
<g id="node6" class="node">
<title>pyqt</title>
<g id="a_node6"><a xlink:href="https://github.com/conda-forge/pyqt-feedstock/pull/110" xlink:title="pyqt ❎">
<ellipse fill="#31688e" stroke="black" cx="46.15" cy="-306" rx="46.29" ry="18"/>
<text text-anchor="middle" x="46.15" y="-302.3" font-family="Times,serif" font-size="14.00" fill="white">pyqt ❎</text>
</a>
</g>
</g>
<!-- pyqt&#45;&gt;octave -->
<g id="edge10" class="edge">
<title>pyqt&#45;&gt;octave</title>
<path fill="none" stroke="black" d="M61.69,-288.76C70.31,-279.75 81.19,-268.39 90.72,-258.43"/>
<polygon fill="black" stroke="black" points="93.3,-260.79 97.69,-251.15 88.25,-255.95 93.3,-260.79"/>
</g>
<!-- pyqt&#45;&gt;gnuradio -->
<g id="edge9" class="edge">
<title>pyqt&#45;&gt;gnuradio</title>
<path fill="none" stroke="black" d="M47.61,-287.78C49.59,-269.48 53.97,-239.94 63.15,-216 88.66,-149.45 136.4,-79.99 163,-43.99"/>
<polygon fill="black" stroke="black" points="166.1,-45.69 169.28,-35.58 160.49,-41.5 166.1,-45.69"/>
</g>
<!-- pulseaudio&#45;&gt;mlt -->
<g id="edge12" class="edge">
<title>pulseaudio&#45;&gt;mlt</title>
<path fill="none" stroke="black" d="M323.51,-145.46C306.22,-134.56 283.06,-119.95 265.07,-108.61"/>
<polygon fill="black" stroke="black" points="266.53,-105.39 256.2,-103.02 262.79,-111.31 266.53,-105.39"/>
</g>
<!-- pulseaudio&#45;&gt;alsa&#45;plugins -->
<g id="edge11" class="edge">
<title>pulseaudio&#45;&gt;alsa&#45;plugins</title>
<path fill="none" stroke="black" d="M348.15,-143.7C348.15,-135.98 348.15,-126.71 348.15,-118.11"/>
<polygon fill="black" stroke="black" points="351.65,-118.1 348.15,-108.1 344.65,-118.1 351.65,-118.1"/>
</g>
<!-- pulseaudio&#45;&gt;qt&#45;main -->
<g id="edge13" class="edge">
<title>pulseaudio&#45;&gt;qt&#45;main</title>
<path fill="none" stroke="black" d="M376.03,-145.98C395.66,-135.42 422.08,-121.19 443.12,-109.86"/>
<polygon fill="black" stroke="black" points="444.93,-112.86 452.07,-105.04 441.61,-106.7 444.93,-112.86"/>
</g>
<!-- qt&#45;main&#45;&gt;gnuradio -->
<g id="edge14" class="edge">
<title>qt&#45;main&#45;&gt;gnuradio</title>
<path fill="none" stroke="black" d="M443.65,-77.86C436.88,-75.81 429.81,-73.76 423.15,-72 359.53,-55.21 285.51,-39.49 236.46,-29.6"/>
<polygon fill="black" stroke="black" points="236.88,-26.11 226.39,-27.58 235.5,-32.98 236.88,-26.11"/>
</g>
</g>
</svg>
