<?xml version="1.0" encoding="UTF-8" standalone="no"?>
<!DOCTYPE svg PUBLIC "-//W3C//DTD SVG 1.1//EN"
 "http://www.w3.org/Graphics/SVG/1.1/DTD/svg11.dtd">
<!-- Generated by graphviz version 6.0.1 (20220911.2005)
 -->
<!-- Pages: 1 -->
<svg width="608pt" height="260pt"
 viewBox="0.00 0.00 608.49 260.00" xmlns="http://www.w3.org/2000/svg" xmlns:xlink="http://www.w3.org/1999/xlink">
<g id="graph0" class="graph" transform="scale(1 1) rotate(0) translate(4 256)">
<polygon fill="white" stroke="none" points="-4,4 -4,-256 604.49,-256 604.49,4 -4,4"/>
<!-- gstreamer -->
<g id="node1" class="node">
<title>gstreamer</title>
<g id="a_node1"><a xlink:href="https://github.com/conda-forge/gstreamer-feedstock" xlink:title="gstreamer">
<ellipse fill="#fde725" stroke="black" cx="168.9" cy="-162" rx="59.29" ry="18"/>
<text text-anchor="middle" x="168.9" y="-158.3" font-family="Times,serif" font-size="14.00">gstreamer</text>
</a>
</g>
</g>
<!-- qt&#45;main -->
<g id="node10" class="node">
<title>qt&#45;main</title>
<g id="a_node10"><a xlink:href="https://github.com/conda-forge/qt-main-feedstock" xlink:title="qt main">
<ellipse fill="#fde725" stroke="black" cx="175.9" cy="-90" rx="46.29" ry="18"/>
<text text-anchor="middle" x="175.9" y="-86.3" font-family="Times,serif" font-size="14.00">qt main</text>
</a>
</g>
</g>
<!-- gstreamer&#45;&gt;qt&#45;main -->
<g id="edge1" class="edge">
<title>gstreamer&#45;&gt;qt&#45;main</title>
<path fill="none" stroke="black" d="M170.63,-143.7C171.4,-135.98 172.32,-126.71 173.18,-118.11"/>
<polygon fill="black" stroke="black" points="176.67,-118.4 174.18,-108.1 169.71,-117.71 176.67,-118.4"/>
</g>
<!-- jack -->
<g id="node2" class="node">
<title>jack</title>
<g id="a_node2"><a xlink:href="https://github.com/conda-forge/jack-feedstock/pull/15" xlink:title="jack ❎">
<ellipse fill="#31688e" stroke="black" cx="344.9" cy="-234" rx="43.59" ry="18"/>
<text text-anchor="middle" x="344.9" y="-230.3" font-family="Times,serif" font-size="14.00" fill="white">jack ❎</text>
</a>
</g>
</g>
<!-- jack&#45;&gt;gstreamer -->
<g id="edge4" class="edge">
<title>jack&#45;&gt;gstreamer</title>
<path fill="none" stroke="black" d="M314.64,-220.97C286.58,-209.81 244.51,-193.07 212.76,-180.45"/>
<polygon fill="black" stroke="black" points="213.86,-177.12 203.27,-176.67 211.27,-183.62 213.86,-177.12"/>
</g>
<!-- pulseaudio -->
<g id="node6" class="node">
<title>pulseaudio</title>
<g id="a_node6"><a xlink:href="https://github.com/conda-forge/pulseaudio-feedstock" xlink:title="pulseaudio">
<ellipse fill="#fde725" stroke="black" cx="344.9" cy="-162" rx="61.19" ry="18"/>
<text text-anchor="middle" x="344.9" y="-158.3" font-family="Times,serif" font-size="14.00">pulseaudio</text>
</a>
</g>
</g>
<!-- jack&#45;&gt;pulseaudio -->
<g id="edge6" class="edge">
<title>jack&#45;&gt;pulseaudio</title>
<path fill="none" stroke="black" d="M344.9,-215.7C344.9,-207.98 344.9,-198.71 344.9,-190.11"/>
<polygon fill="black" stroke="black" points="348.4,-190.1 344.9,-180.1 341.4,-190.1 348.4,-190.1"/>
</g>
<!-- mlt -->
<g id="node7" class="node">
<title>mlt</title>
<g id="a_node7"><a xlink:href="https://github.com/conda-forge/mlt-feedstock" xlink:title="mlt">
<ellipse fill="#fde725" stroke="black" cx="416.9" cy="-90" rx="27" ry="18"/>
<text text-anchor="middle" x="416.9" y="-86.3" font-family="Times,serif" font-size="14.00">mlt</text>
</a>
</g>
</g>
<!-- jack&#45;&gt;mlt -->
<g id="edge5" class="edge">
<title>jack&#45;&gt;mlt</title>
<path fill="none" stroke="black" d="M372.52,-219.94C387.96,-211.04 405.87,-197.64 414.9,-180 424.6,-161.02 424.43,-136.66 422.2,-118.22"/>
<polygon fill="black" stroke="black" points="425.64,-117.52 420.72,-108.14 418.71,-118.54 425.64,-117.52"/>
</g>
<!-- gnuradio -->
<g id="node8" class="node">
<title>gnuradio</title>
<g id="a_node8"><a xlink:href="https://github.com/conda-forge/gnuradio-feedstock" xlink:title="gnuradio">
<ellipse fill="#fde725" stroke="black" cx="232.9" cy="-18" rx="51.99" ry="18"/>
<text text-anchor="middle" x="232.9" y="-14.3" font-family="Times,serif" font-size="14.00">gnuradio</text>
</a>
</g>
</g>
<!-- jack&#45;&gt;gnuradio -->
<g id="edge3" class="edge">
<title>jack&#45;&gt;gnuradio</title>
<path fill="none" stroke="black" d="M375.95,-221.33C395,-212.66 418.44,-199.03 432.9,-180 462.43,-141.13 483.1,-110.35 452.9,-72 433.23,-47.03 350.55,-32.46 292.36,-25.11"/>
<polygon fill="black" stroke="black" points="292.52,-21.6 282.17,-23.86 291.67,-28.55 292.52,-21.6"/>
</g>
<!-- alsa&#45;plugins -->
<g id="node9" class="node">
<title>alsa&#45;plugins</title>
<g id="a_node9"><a xlink:href="https://github.com/conda-forge/alsa-plugins-feedstock" xlink:title="alsa plugins">
<ellipse fill="#fde725" stroke="black" cx="305.9" cy="-90" rx="66.09" ry="18"/>
<text text-anchor="middle" x="305.9" y="-86.3" font-family="Times,serif" font-size="14.00">alsa plugins</text>
</a>
</g>
</g>
<!-- jack&#45;&gt;alsa&#45;plugins -->
<g id="edge2" class="edge">
<title>jack&#45;&gt;alsa&#45;plugins</title>
<path fill="none" stroke="black" d="M317.13,-220.02C301.63,-211.13 283.72,-197.74 274.9,-180 264.63,-159.35 275.06,-134.46 286.52,-116.26"/>
<polygon fill="black" stroke="black" points="289.46,-118.16 292.13,-107.91 283.65,-114.26 289.46,-118.16"/>
</g>
<!-- octave -->
<g id="node3" class="node">
<title>octave</title>
<g id="a_node3"><a xlink:href="https://github.com/conda-forge/octave-feedstock" xlink:title="octave">
<ellipse fill="#fde725" stroke="black" cx="117.9" cy="-18" rx="40.89" ry="18"/>
<text text-anchor="middle" x="117.9" y="-14.3" font-family="Times,serif" font-size="14.00">octave</text>
</a>
</g>
</g>
<!-- openjdk -->
<g id="node4" class="node">
<title>openjdk</title>
<g id="a_node4"><a xlink:href="https://github.com/conda-forge/openjdk-feedstock/pull/111" xlink:title="openjdk ✓">
<ellipse fill="#31688e" stroke="black" cx="545.9" cy="-126" rx="54.69" ry="18"/>
<text text-anchor="middle" x="545.9" y="-122.3" font-family="Times,serif" font-size="14.00" fill="white">openjdk ✓</text>
</a>
</g>
</g>
<!-- portaudio -->
<g id="node5" class="node">
<title>portaudio</title>
<g id="a_node5"><a xlink:href="https://github.com/conda-forge/portaudio-feedstock" xlink:title="portaudio">
<ellipse fill="#35b779" stroke="black" cx="55.9" cy="-90" rx="55.79" ry="18"/>
<text text-anchor="middle" x="55.9" y="-86.3" font-family="Times,serif" font-size="14.00">portaudio</text>
</a>
</g>
</g>
<!-- portaudio&#45;&gt;octave -->
<g id="edge8" class="edge">
<title>portaudio&#45;&gt;octave</title>
<path fill="none" stroke="black" d="M70.59,-72.41C78.5,-63.48 88.39,-52.31 97.08,-42.5"/>
<polygon fill="black" stroke="black" points="99.72,-44.79 103.73,-34.99 94.48,-40.15 99.72,-44.79"/>
</g>
<!-- portaudio&#45;&gt;gnuradio -->
<g id="edge7" class="edge">
<title>portaudio&#45;&gt;gnuradio</title>
<path fill="none" stroke="black" d="M90.02,-75.5C118.67,-64.17 159.72,-47.94 190.47,-35.78"/>
<polygon fill="black" stroke="black" points="192.06,-38.91 200.07,-31.98 189.48,-32.4 192.06,-38.91"/>
</g>
<!-- pulseaudio&#45;&gt;mlt -->
<g id="edge10" class="edge">
<title>pulseaudio&#45;&gt;mlt</title>
<path fill="none" stroke="black" d="M361.96,-144.41C371.73,-134.91 384.1,-122.88 394.63,-112.65"/>
<polygon fill="black" stroke="black" points="397.18,-115.05 401.91,-105.57 392.3,-110.03 397.18,-115.05"/>
</g>
<!-- pulseaudio&#45;&gt;alsa&#45;plugins -->
<g id="edge9" class="edge">
<title>pulseaudio&#45;&gt;alsa&#45;plugins</title>
<path fill="none" stroke="black" d="M335.45,-144.05C330.97,-136.01 325.51,-126.2 320.51,-117.23"/>
<polygon fill="black" stroke="black" points="323.44,-115.31 315.52,-108.28 317.33,-118.71 323.44,-115.31"/>
</g>
<!-- pulseaudio&#45;&gt;qt&#45;main -->
<g id="edge11" class="edge">
<title>pulseaudio&#45;&gt;qt&#45;main</title>
<path fill="none" stroke="black" d="M311.1,-147C283.67,-135.64 244.92,-119.59 215.93,-107.58"/>
<polygon fill="black" stroke="black" points="217.08,-104.27 206.51,-103.68 214.4,-110.74 217.08,-104.27"/>
</g>
<!-- alsa&#45;plugins&#45;&gt;gnuradio -->
<g id="edge12" class="edge">
<title>alsa&#45;plugins&#45;&gt;gnuradio</title>
<path fill="none" stroke="black" d="M288.6,-72.41C279.25,-63.45 267.57,-52.25 257.32,-42.42"/>
<polygon fill="black" stroke="black" points="259.46,-39.62 249.82,-35.23 254.61,-44.68 259.46,-39.62"/>
</g>
<!-- qt&#45;main&#45;&gt;octave -->
<g id="edge14" class="edge">
<title>qt&#45;main&#45;&gt;octave</title>
<path fill="none" stroke="black" d="M162.44,-72.76C155.12,-63.93 145.93,-52.83 137.79,-43.01"/>
<polygon fill="black" stroke="black" points="140.35,-40.61 131.27,-35.15 134.96,-45.08 140.35,-40.61"/>
</g>
<!-- qt&#45;main&#45;&gt;gnuradio -->
<g id="edge13" class="edge">
<title>qt&#45;main&#45;&gt;gnuradio</title>
<path fill="none" stroke="black" d="M189.4,-72.41C196.43,-63.78 205.16,-53.06 212.95,-43.5"/>
<polygon fill="black" stroke="black" points="215.88,-45.43 219.48,-35.47 210.46,-41.01 215.88,-45.43"/>
</g>
</g>
</svg>
