<?xml version="1.0" encoding="UTF-8" standalone="no"?>
<!DOCTYPE svg PUBLIC "-//W3C//DTD SVG 1.1//EN"
 "http://www.w3.org/Graphics/SVG/1.1/DTD/svg11.dtd">
<!-- Generated by graphviz version 2.42.3 (20191010.1750)
 -->
<!-- Title: %3 Pages: 1 -->
<svg width="1178pt" height="520pt"
 viewBox="0.00 0.00 1178.39 520.00" xmlns="http://www.w3.org/2000/svg" xmlns:xlink="http://www.w3.org/1999/xlink">
<g id="graph0" class="graph" transform="scale(1 1) rotate(0) translate(4 516)">
<title>%3</title>
<polygon fill="white" stroke="transparent" points="-4,4 -4,-516 1174.39,-516 1174.39,4 -4,4"/>
<!-- autoconf -->
<g id="node1" class="node">
<title>autoconf</title>
<g id="a_node1"><a xlink:href="https://github.com/conda-forge/autoconf-feedstock" xlink:title="autoconf">
<ellipse fill="#fde725" stroke="black" cx="861.2" cy="-278" rx="41.69" ry="18"/>
<text text-anchor="middle" x="861.2" y="-274.3" font-family="Times,serif" font-size="14.00">autoconf</text>
</a>
</g>
</g>
<!-- automake -->
<g id="node2" class="node">
<title>automake</title>
<g id="a_node2"><a xlink:href="https://github.com/conda-forge/automake-feedstock" xlink:title="automake">
<ellipse fill="#fde725" stroke="black" cx="870.2" cy="-206" rx="45.5" ry="18"/>
<text text-anchor="middle" x="870.2" y="-202.3" font-family="Times,serif" font-size="14.00">automake</text>
</a>
</g>
</g>
<!-- autoconf&#45;&gt;automake -->
<g id="edge1" class="edge">
<title>autoconf&#45;&gt;automake</title>
<path fill="none" stroke="black" d="M863.42,-259.7C864.41,-251.98 865.6,-242.71 866.71,-234.11"/>
<polygon fill="black" stroke="black" points="870.19,-234.47 868,-224.1 863.25,-233.58 870.19,-234.47"/>
</g>
<!-- cairo -->
<g id="node3" class="node">
<title>cairo</title>
<g id="a_node3"><a xlink:href="https://github.com/conda-forge/cairo-feedstock" xlink:title="cairo">
<ellipse fill="#fde725" stroke="black" cx="279.2" cy="-422" rx="28.7" ry="18"/>
<text text-anchor="middle" x="279.2" y="-418.3" font-family="Times,serif" font-size="14.00">cairo</text>
</a>
</g>
</g>
<!-- gobject&#45;introspection -->
<g id="node4" class="node">
<title>gobject&#45;introspection</title>
<g id="a_node4"><a xlink:href="https://github.com/conda-forge/gobject-introspection-feedstock" xlink:title="gobject introspection">
<ellipse fill="#fde725" stroke="black" cx="407.2" cy="-350" rx="85.29" ry="18"/>
<text text-anchor="middle" x="407.2" y="-346.3" font-family="Times,serif" font-size="14.00">gobject introspection</text>
</a>
</g>
</g>
<!-- cairo&#45;&gt;gobject&#45;introspection -->
<g id="edge2" class="edge">
<title>cairo&#45;&gt;gobject&#45;introspection</title>
<path fill="none" stroke="black" d="M300.05,-409.6C318.6,-399.45 346.21,-384.35 368.76,-372.02"/>
<polygon fill="black" stroke="black" points="370.66,-374.97 377.75,-367.1 367.3,-368.83 370.66,-374.97"/>
</g>
<!-- harfbuzz -->
<g id="node5" class="node">
<title>harfbuzz</title>
<g id="a_node5"><a xlink:href="https://github.com/conda-forge/harfbuzz-feedstock" xlink:title="harfbuzz">
<ellipse fill="#fde725" stroke="black" cx="186.2" cy="-350" rx="41.69" ry="18"/>
<text text-anchor="middle" x="186.2" y="-346.3" font-family="Times,serif" font-size="14.00">harfbuzz</text>
</a>
</g>
</g>
<!-- cairo&#45;&gt;harfbuzz -->
<g id="edge3" class="edge">
<title>cairo&#45;&gt;harfbuzz</title>
<path fill="none" stroke="black" d="M261.26,-407.5C247.9,-397.45 229.41,-383.52 214.12,-372.01"/>
<polygon fill="black" stroke="black" points="216.1,-369.13 206,-365.91 211.89,-374.72 216.1,-369.13"/>
</g>
<!-- librsvg -->
<g id="node6" class="node">
<title>librsvg</title>
<g id="a_node6"><a xlink:href="https://github.com/conda-forge/librsvg-feedstock" xlink:title="librsvg">
<ellipse fill="#fde725" stroke="black" cx="333.2" cy="-206" rx="35.19" ry="18"/>
<text text-anchor="middle" x="333.2" y="-202.3" font-family="Times,serif" font-size="14.00">librsvg</text>
</a>
</g>
</g>
<!-- cairo&#45;&gt;librsvg -->
<g id="edge4" class="edge">
<title>cairo&#45;&gt;librsvg</title>
<path fill="none" stroke="black" d="M282.16,-403.9C287.45,-374.29 299.38,-311.69 314.2,-260 316.69,-251.32 319.85,-241.99 322.89,-233.63"/>
<polygon fill="black" stroke="black" points="326.26,-234.59 326.46,-224 319.7,-232.16 326.26,-234.59"/>
</g>
<!-- pango -->
<g id="node7" class="node">
<title>pango</title>
<g id="a_node7"><a xlink:href="https://github.com/conda-forge/pango-feedstock" xlink:title="pango">
<ellipse fill="#fde725" stroke="black" cx="210.2" cy="-278" rx="32.5" ry="18"/>
<text text-anchor="middle" x="210.2" y="-274.3" font-family="Times,serif" font-size="14.00">pango</text>
</a>
</g>
</g>
<!-- cairo&#45;&gt;pango -->
<g id="edge5" class="edge">
<title>cairo&#45;&gt;pango</title>
<path fill="none" stroke="black" d="M271.6,-404.53C263.3,-386.61 249.54,-357.16 237.2,-332 232.79,-323.01 227.85,-313.23 223.41,-304.55"/>
<polygon fill="black" stroke="black" points="226.52,-302.94 218.84,-295.64 220.29,-306.14 226.52,-302.94"/>
</g>
<!-- gobject&#45;introspection&#45;&gt;pango -->
<g id="edge6" class="edge">
<title>gobject&#45;introspection&#45;&gt;pango</title>
<path fill="none" stroke="black" d="M365.42,-334.15C330.06,-321.59 279.9,-303.77 246.26,-291.82"/>
<polygon fill="black" stroke="black" points="247.41,-288.51 236.82,-288.46 245.07,-295.1 247.41,-288.51"/>
</g>
<!-- gdk&#45;pixbuf -->
<g id="node8" class="node">
<title>gdk&#45;pixbuf</title>
<g id="a_node8"><a xlink:href="https://github.com/conda-forge/gdk-pixbuf-feedstock" xlink:title="gdk pixbuf">
<ellipse fill="#fde725" stroke="black" cx="372.2" cy="-278" rx="49.5" ry="18"/>
<text text-anchor="middle" x="372.2" y="-274.3" font-family="Times,serif" font-size="14.00">gdk pixbuf</text>
</a>
</g>
</g>
<!-- gobject&#45;introspection&#45;&gt;gdk&#45;pixbuf -->
<g id="edge7" class="edge">
<title>gobject&#45;introspection&#45;&gt;gdk&#45;pixbuf</title>
<path fill="none" stroke="black" d="M398.72,-332.05C394.64,-323.89 389.65,-313.91 385.11,-304.82"/>
<polygon fill="black" stroke="black" points="388.19,-303.17 380.59,-295.79 381.93,-306.3 388.19,-303.17"/>
</g>
<!-- harfbuzz&#45;&gt;pango -->
<g id="edge8" class="edge">
<title>harfbuzz&#45;&gt;pango</title>
<path fill="none" stroke="black" d="M192.01,-332.05C194.75,-324.06 198.08,-314.33 201.14,-305.4"/>
<polygon fill="black" stroke="black" points="204.51,-306.38 204.44,-295.79 197.89,-304.11 204.51,-306.38"/>
</g>
<!-- emacs -->
<g id="node9" class="node">
<title>emacs</title>
<g id="a_node9"><a xlink:href="https://github.com/conda-forge/emacs-feedstock" xlink:title="emacs">
<ellipse fill="#fde725" stroke="black" cx="481.2" cy="-134" rx="33.29" ry="18"/>
<text text-anchor="middle" x="481.2" y="-130.3" font-family="Times,serif" font-size="14.00">emacs</text>
</a>
</g>
</g>
<!-- librsvg&#45;&gt;emacs -->
<g id="edge9" class="edge">
<title>librsvg&#45;&gt;emacs</title>
<path fill="none" stroke="black" d="M358.3,-193.13C382.94,-181.47 420.67,-163.63 447.83,-150.78"/>
<polygon fill="black" stroke="black" points="449.41,-153.91 456.95,-146.47 446.41,-147.58 449.41,-153.91"/>
</g>
<!-- pango&#45;&gt;librsvg -->
<g id="edge10" class="edge">
<title>pango&#45;&gt;librsvg</title>
<path fill="none" stroke="black" d="M232.19,-264.49C251.53,-253.47 279.93,-237.31 301.69,-224.93"/>
<polygon fill="black" stroke="black" points="303.6,-227.87 310.56,-219.88 300.14,-221.78 303.6,-227.87"/>
</g>
<!-- gdk&#45;pixbuf&#45;&gt;librsvg -->
<g id="edge14" class="edge">
<title>gdk&#45;pixbuf&#45;&gt;librsvg</title>
<path fill="none" stroke="black" d="M362.76,-260.05C358.16,-251.8 352.53,-241.7 347.42,-232.54"/>
<polygon fill="black" stroke="black" points="350.47,-230.82 342.55,-223.79 344.36,-234.23 350.47,-230.82"/>
</g>
<!-- constructor -->
<g id="node10" class="node">
<title>constructor</title>
<g id="a_node10"><a xlink:href="https://github.com/conda-forge/constructor-feedstock" xlink:title="constructor">
<ellipse fill="#fde725" stroke="black" cx="1087.2" cy="-242" rx="50.09" ry="18"/>
<text text-anchor="middle" x="1087.2" y="-238.3" font-family="Times,serif" font-size="14.00">constructor</text>
</a>
</g>
</g>
<!-- dbus -->
<g id="node11" class="node">
<title>dbus</title>
<g id="a_node11"><a xlink:href="https://github.com/conda-forge/dbus-feedstock/pull/19" xlink:title="dbus ❎">
<ellipse fill="#31688e" stroke="black" cx="601.2" cy="-206" rx="39" ry="18"/>
<text text-anchor="middle" x="601.2" y="-202.3" font-family="Times,serif" font-size="14.00" fill="white">dbus ❎</text>
</a>
</g>
</g>
<!-- dbus&#45;&gt;emacs -->
<g id="edge11" class="edge">
<title>dbus&#45;&gt;emacs</title>
<path fill="none" stroke="black" d="M578.06,-191.5C559.19,-180.5 532.39,-164.86 511.76,-152.83"/>
<polygon fill="black" stroke="black" points="513.45,-149.76 503.05,-147.75 509.92,-155.81 513.45,-149.76"/>
</g>
<!-- fontconfig -->
<g id="node12" class="node">
<title>fontconfig</title>
<g id="a_node12"><a xlink:href="https://github.com/conda-forge/fontconfig-feedstock/pull/44" xlink:title="fontconfig ❎">
<ellipse fill="#31688e" stroke="black" cx="134.2" cy="-494" rx="59.29" ry="18"/>
<text text-anchor="middle" x="134.2" y="-490.3" font-family="Times,serif" font-size="14.00" fill="white">fontconfig ❎</text>
</a>
</g>
</g>
<!-- fontconfig&#45;&gt;cairo -->
<g id="edge12" class="edge">
<title>fontconfig&#45;&gt;cairo</title>
<path fill="none" stroke="black" d="M164.59,-478.33C188.93,-466.58 222.96,-450.15 247.61,-438.25"/>
<polygon fill="black" stroke="black" points="249.4,-441.27 256.88,-433.77 246.36,-434.97 249.4,-441.27"/>
</g>
<!-- fontconfig&#45;&gt;pango -->
<g id="edge13" class="edge">
<title>fontconfig&#45;&gt;pango</title>
<path fill="none" stroke="black" d="M129.46,-475.8C121.98,-444.96 110.63,-379.08 135.2,-332 143.89,-315.34 160.48,-302.78 175.85,-294.09"/>
<polygon fill="black" stroke="black" points="177.48,-297.18 184.69,-289.41 174.21,-290.99 177.48,-297.18"/>
</g>
<!-- git -->
<g id="node13" class="node">
<title>git</title>
<g id="a_node13"><a xlink:href="https://github.com/conda-forge/git-feedstock" xlink:title="git">
<ellipse fill="#fde725" stroke="black" cx="969.2" cy="-206" rx="27" ry="18"/>
<text text-anchor="middle" x="969.2" y="-202.3" font-family="Times,serif" font-size="14.00">git</text>
</a>
</g>
</g>
<!-- gnutls -->
<g id="node14" class="node">
<title>gnutls</title>
<g id="a_node14"><a xlink:href="https://github.com/conda-forge/gnutls-feedstock" xlink:title="gnutls">
<ellipse fill="#fde725" stroke="black" cx="511.2" cy="-206" rx="32.5" ry="18"/>
<text text-anchor="middle" x="511.2" y="-202.3" font-family="Times,serif" font-size="14.00">gnutls</text>
</a>
</g>
</g>
<!-- gnutls&#45;&gt;emacs -->
<g id="edge15" class="edge">
<title>gnutls&#45;&gt;emacs</title>
<path fill="none" stroke="black" d="M504.09,-188.41C500.63,-180.34 496.38,-170.43 492.49,-161.35"/>
<polygon fill="black" stroke="black" points="495.62,-159.77 488.46,-151.96 489.19,-162.53 495.62,-159.77"/>
</g>
<!-- graphite2 -->
<g id="node15" class="node">
<title>graphite2</title>
<g id="a_node15"><a xlink:href="https://github.com/conda-forge/graphite2-feedstock" xlink:title="graphite2">
<ellipse fill="#35b779" stroke="black" cx="188.2" cy="-422" rx="44.39" ry="18"/>
<text text-anchor="middle" x="188.2" y="-418.3" font-family="Times,serif" font-size="14.00">graphite2</text>
</a>
</g>
</g>
<!-- graphite2&#45;&gt;harfbuzz -->
<g id="edge16" class="edge">
<title>graphite2&#45;&gt;harfbuzz</title>
<path fill="none" stroke="black" d="M187.7,-403.7C187.48,-395.98 187.22,-386.71 186.97,-378.11"/>
<polygon fill="black" stroke="black" points="190.47,-378 186.68,-368.1 183.47,-378.2 190.47,-378"/>
</g>
<!-- libtiff -->
<g id="node16" class="node">
<title>libtiff</title>
<g id="a_node16"><a xlink:href="https://github.com/conda-forge/libtiff-feedstock" xlink:title="libtiff">
<ellipse fill="#fde725" stroke="black" cx="687.2" cy="-350" rx="30.59" ry="18"/>
<text text-anchor="middle" x="687.2" y="-346.3" font-family="Times,serif" font-size="14.00">libtiff</text>
</a>
</g>
</g>
<!-- libtiff&#45;&gt;gdk&#45;pixbuf -->
<g id="edge18" class="edge">
<title>libtiff&#45;&gt;gdk&#45;pixbuf</title>
<path fill="none" stroke="black" d="M658.48,-343.44C611.74,-334.27 516.35,-315.09 436.2,-296 430.95,-294.75 425.49,-293.39 420.05,-292"/>
<polygon fill="black" stroke="black" points="420.92,-288.61 410.36,-289.48 419.16,-295.38 420.92,-288.61"/>
</g>
<!-- libtiff&#45;&gt;emacs -->
<g id="edge17" class="edge">
<title>libtiff&#45;&gt;emacs</title>
<path fill="none" stroke="black" d="M657.04,-346.19C602.8,-340.43 492.24,-325.32 469.2,-296 438.77,-257.29 455.75,-195.9 469.4,-161.18"/>
<polygon fill="black" stroke="black" points="472.72,-162.3 473.3,-151.73 466.25,-159.64 472.72,-162.3"/>
</g>
<!-- pillow -->
<g id="node17" class="node">
<title>pillow</title>
<g id="a_node17"><a xlink:href="https://github.com/conda-forge/pillow-feedstock" xlink:title="pillow">
<ellipse fill="#fde725" stroke="black" cx="698.2" cy="-134" rx="33.29" ry="18"/>
<text text-anchor="middle" x="698.2" y="-130.3" font-family="Times,serif" font-size="14.00">pillow</text>
</a>
</g>
</g>
<!-- libtiff&#45;&gt;pillow -->
<g id="edge19" class="edge">
<title>libtiff&#45;&gt;pillow</title>
<path fill="none" stroke="black" d="M686.28,-331.56C684.95,-301.95 683.17,-240.03 688.2,-188 689.02,-179.48 690.53,-170.29 692.13,-161.99"/>
<polygon fill="black" stroke="black" points="695.58,-162.57 694.16,-152.07 688.73,-161.17 695.58,-162.57"/>
</g>
<!-- libwebp -->
<g id="node18" class="node">
<title>libwebp</title>
<g id="a_node18"><a xlink:href="https://github.com/conda-forge/libwebp-feedstock" xlink:title="libwebp">
<ellipse fill="#fde725" stroke="black" cx="773.2" cy="-278" rx="39" ry="18"/>
<text text-anchor="middle" x="773.2" y="-274.3" font-family="Times,serif" font-size="14.00">libwebp</text>
</a>
</g>
</g>
<!-- libtiff&#45;&gt;libwebp -->
<g id="edge20" class="edge">
<title>libtiff&#45;&gt;libwebp</title>
<path fill="none" stroke="black" d="M700.56,-333.46C711.85,-323.3 728.14,-309.91 742.51,-298.96"/>
<polygon fill="black" stroke="black" points="744.79,-301.63 750.7,-292.83 740.59,-296.02 744.79,-301.63"/>
</g>
<!-- lcms2 -->
<g id="node19" class="node">
<title>lcms2</title>
<g id="a_node19"><a xlink:href="https://github.com/conda-forge/lcms2-feedstock" xlink:title="lcms2">
<ellipse fill="#fde725" stroke="black" cx="729.2" cy="-206" rx="32.5" ry="18"/>
<text text-anchor="middle" x="729.2" y="-202.3" font-family="Times,serif" font-size="14.00">lcms2</text>
</a>
</g>
</g>
<!-- libtiff&#45;&gt;lcms2 -->
<g id="edge21" class="edge">
<title>libtiff&#45;&gt;lcms2</title>
<path fill="none" stroke="black" d="M692.18,-332.15C699.38,-307.81 712.76,-262.57 721.31,-233.67"/>
<polygon fill="black" stroke="black" points="724.74,-234.41 724.22,-223.82 718.03,-232.42 724.74,-234.41"/>
</g>
<!-- matplotlib -->
<g id="node20" class="node">
<title>matplotlib</title>
<g id="a_node20"><a xlink:href="https://github.com/conda-forge/matplotlib-feedstock" xlink:title="matplotlib">
<ellipse fill="#fde725" stroke="black" cx="698.2" cy="-62" rx="47.5" ry="18"/>
<text text-anchor="middle" x="698.2" y="-58.3" font-family="Times,serif" font-size="14.00">matplotlib</text>
</a>
</g>
</g>
<!-- pillow&#45;&gt;matplotlib -->
<g id="edge22" class="edge">
<title>pillow&#45;&gt;matplotlib</title>
<path fill="none" stroke="black" d="M698.2,-115.7C698.2,-107.98 698.2,-98.71 698.2,-90.11"/>
<polygon fill="black" stroke="black" points="701.7,-90.1 698.2,-80.1 694.7,-90.1 701.7,-90.1"/>
</g>
<!-- libwebp&#45;&gt;libtiff -->
<g id="edge23" class="edge">
<title>libwebp&#45;&gt;libtiff</title>
<path fill="none" stroke="black" d="M759.2,-295.1C747.47,-305.62 730.64,-319.39 716.11,-330.38"/>
<polygon fill="black" stroke="black" points="713.83,-327.72 707.89,-336.49 718,-333.34 713.83,-327.72"/>
</g>
<!-- lcms2&#45;&gt;pillow -->
<g id="edge24" class="edge">
<title>lcms2&#45;&gt;pillow</title>
<path fill="none" stroke="black" d="M721.85,-188.41C718.27,-180.34 713.89,-170.43 709.87,-161.35"/>
<polygon fill="black" stroke="black" points="712.95,-159.68 705.71,-151.96 706.55,-162.52 712.95,-159.68"/>
</g>
<!-- libtool -->
<g id="node21" class="node">
<title>libtool</title>
<g id="a_node21"><a xlink:href="https://github.com/conda-forge/libtool-feedstock/pull/26" xlink:title="libtool ❎">
<ellipse fill="#31688e" stroke="black" cx="406.2" cy="-18" rx="45.5" ry="18"/>
<text text-anchor="middle" x="406.2" y="-14.3" font-family="Times,serif" font-size="14.00" fill="white">libtool ❎</text>
</a>
</g>
</g>
<!-- nettle -->
<g id="node22" class="node">
<title>nettle</title>
<g id="a_node22"><a xlink:href="https://github.com/conda-forge/nettle-feedstock/pull/7" xlink:title="nettle ❎">
<ellipse fill="#31688e" stroke="black" cx="520.2" cy="-278" rx="42.49" ry="18"/>
<text text-anchor="middle" x="520.2" y="-274.3" font-family="Times,serif" font-size="14.00" fill="white">nettle ❎</text>
</a>
</g>
</g>
<!-- nettle&#45;&gt;gnutls -->
<g id="edge25" class="edge">
<title>nettle&#45;&gt;gnutls</title>
<path fill="none" stroke="black" d="M517.97,-259.7C516.98,-251.98 515.79,-242.71 514.68,-234.11"/>
<polygon fill="black" stroke="black" points="518.14,-233.58 513.4,-224.1 511.2,-234.47 518.14,-233.58"/>
</g>
<!-- perl -->
<g id="node23" class="node">
<title>perl</title>
<g id="a_node23"><a xlink:href="https://github.com/conda-forge/perl-feedstock/pull/45" xlink:title="perl ❎">
<ellipse fill="#31688e" stroke="black" cx="931.2" cy="-350" rx="36.5" ry="18"/>
<text text-anchor="middle" x="931.2" y="-346.3" font-family="Times,serif" font-size="14.00" fill="white">perl ❎</text>
</a>
</g>
</g>
<!-- perl&#45;&gt;autoconf -->
<g id="edge26" class="edge">
<title>perl&#45;&gt;autoconf</title>
<path fill="none" stroke="black" d="M915.66,-333.46C906.46,-324.26 894.62,-312.42 884.33,-302.13"/>
<polygon fill="black" stroke="black" points="886.72,-299.57 877.17,-294.98 881.77,-304.52 886.72,-299.57"/>
</g>
<!-- perl&#45;&gt;automake -->
<g id="edge27" class="edge">
<title>perl&#45;&gt;automake</title>
<path fill="none" stroke="black" d="M929.88,-331.86C927.93,-313.37 923.24,-283.44 912.2,-260 907.34,-249.7 900.14,-239.59 893.06,-231.02"/>
<polygon fill="black" stroke="black" points="895.58,-228.58 886.39,-223.3 890.28,-233.16 895.58,-228.58"/>
</g>
<!-- perl&#45;&gt;git -->
<g id="edge28" class="edge">
<title>perl&#45;&gt;git</title>
<path fill="none" stroke="black" d="M935.78,-331.87C942.28,-307.56 954.26,-262.82 961.97,-234.01"/>
<polygon fill="black" stroke="black" points="965.39,-234.75 964.6,-224.19 958.63,-232.94 965.39,-234.75"/>
</g>
<!-- pixman -->
<g id="node24" class="node">
<title>pixman</title>
<g id="a_node24"><a xlink:href="https://github.com/conda-forge/pixman-feedstock/pull/18" xlink:title="pixman ❎">
<ellipse fill="#31688e" stroke="black" cx="279.2" cy="-494" rx="49.5" ry="18"/>
<text text-anchor="middle" x="279.2" y="-490.3" font-family="Times,serif" font-size="14.00" fill="white">pixman ❎</text>
</a>
</g>
</g>
<!-- pixman&#45;&gt;cairo -->
<g id="edge29" class="edge">
<title>pixman&#45;&gt;cairo</title>
<path fill="none" stroke="black" d="M279.2,-475.7C279.2,-467.98 279.2,-458.71 279.2,-450.11"/>
<polygon fill="black" stroke="black" points="282.7,-450.1 279.2,-440.1 275.7,-450.1 282.7,-450.1"/>
</g>
<!-- fribidi -->
<g id="node25" class="node">
<title>fribidi</title>
<g id="a_node25"><a xlink:href="https://github.com/conda-forge/fribidi-feedstock/pull/10" xlink:title="fribidi ❎">
<ellipse fill="#31688e" stroke="black" cx="44.2" cy="-350" rx="44.39" ry="18"/>
<text text-anchor="middle" x="44.2" y="-346.3" font-family="Times,serif" font-size="14.00" fill="white">fribidi ❎</text>
</a>
</g>
</g>
<!-- fribidi&#45;&gt;pango -->
<g id="edge30" class="edge">
<title>fribidi&#45;&gt;pango</title>
<path fill="none" stroke="black" d="M73.87,-336.49C102.48,-324.42 145.75,-306.17 175.84,-293.49"/>
<polygon fill="black" stroke="black" points="177.26,-296.69 185.11,-289.58 174.54,-290.24 177.26,-296.69"/>
</g>
<!-- conda&#45;standalone -->
<g id="node26" class="node">
<title>conda&#45;standalone</title>
<g id="a_node26"><a xlink:href="https://github.com/conda-forge/conda-standalone-feedstock/pull/10" xlink:title="conda standalone ❎">
<ellipse fill="#31688e" stroke="black" cx="1087.2" cy="-314" rx="83.39" ry="18"/>
<text text-anchor="middle" x="1087.2" y="-310.3" font-family="Times,serif" font-size="14.00" fill="white">conda standalone ❎</text>
</a>
</g>
</g>
<!-- conda&#45;standalone&#45;&gt;constructor -->
<g id="edge31" class="edge">
<title>conda&#45;standalone&#45;&gt;constructor</title>
<path fill="none" stroke="black" d="M1087.2,-295.7C1087.2,-287.98 1087.2,-278.71 1087.2,-270.11"/>
<polygon fill="black" stroke="black" points="1090.7,-270.1 1087.2,-260.1 1083.7,-270.1 1090.7,-270.1"/>
</g>
</g>
</svg>
