<?xml version="1.0" encoding="UTF-8" standalone="no"?>
<!DOCTYPE svg PUBLIC "-//W3C//DTD SVG 1.1//EN"
 "http://www.w3.org/Graphics/SVG/1.1/DTD/svg11.dtd">
<!-- Generated by graphviz version 2.42.3 (20191010.1750)
 -->
<!-- Title: %3 Pages: 1 -->
<svg width="1573pt" height="404pt"
 viewBox="0.00 0.00 1572.50 404.00" xmlns="http://www.w3.org/2000/svg" xmlns:xlink="http://www.w3.org/1999/xlink">
<g id="graph0" class="graph" transform="scale(1 1) rotate(0) translate(4 400)">
<title>%3</title>
<polygon fill="white" stroke="transparent" points="-4,4 -4,-400 1568.5,-400 1568.5,4 -4,4"/>
<!-- arrow&#45;cpp -->
<g id="node1" class="node">
<title>arrow&#45;cpp</title>
<g id="a_node1"><a xlink:href="https://github.com/conda-forge/arrow-cpp-feedstock" xlink:title="arrow cpp">
<ellipse fill="#fde725" stroke="black" cx="1390.5" cy="-90" rx="46.29" ry="18"/>
<text text-anchor="middle" x="1390.5" y="-86.3" font-family="Times,serif" font-size="14.00">arrow cpp</text>
</a>
</g>
</g>
<!-- brotlipy -->
<g id="node2" class="node">
<title>brotlipy</title>
<g id="a_node2"><a xlink:href="https://github.com/conda-forge/brotlipy-feedstock/pull/10" xlink:title="brotlipy ❎">
<ellipse fill="#31688e" stroke="black" cx="414.5" cy="-234" rx="50.09" ry="18"/>
<text text-anchor="middle" x="414.5" y="-230.3" font-family="Times,serif" font-size="14.00" fill="white">brotlipy ❎</text>
</a>
</g>
</g>
<!-- conda -->
<g id="node3" class="node">
<title>conda</title>
<g id="a_node3"><a xlink:href="https://github.com/conda-forge/conda-feedstock" xlink:title="conda">
<ellipse fill="#fde725" stroke="black" cx="667.5" cy="-162" rx="32" ry="18"/>
<text text-anchor="middle" x="667.5" y="-158.3" font-family="Times,serif" font-size="14.00">conda</text>
</a>
</g>
</g>
<!-- brotlipy&#45;&gt;conda -->
<g id="edge1" class="edge">
<title>brotlipy&#45;&gt;conda</title>
<path fill="none" stroke="black" d="M452.25,-222.04C459.31,-220.01 466.62,-217.93 473.5,-216 527.62,-200.81 590.39,-183.77 629.53,-173.21"/>
<polygon fill="black" stroke="black" points="630.45,-176.58 639.19,-170.6 628.63,-169.83 630.45,-176.58"/>
</g>
<!-- conda&#45;build -->
<g id="node4" class="node">
<title>conda&#45;build</title>
<g id="a_node4"><a xlink:href="https://github.com/conda-forge/conda-build-feedstock" xlink:title="conda build">
<ellipse fill="#fde725" stroke="black" cx="385.5" cy="-90" rx="52" ry="18"/>
<text text-anchor="middle" x="385.5" y="-86.3" font-family="Times,serif" font-size="14.00">conda build</text>
</a>
</g>
</g>
<!-- brotlipy&#45;&gt;conda&#45;build -->
<g id="edge2" class="edge">
<title>brotlipy&#45;&gt;conda&#45;build</title>
<path fill="none" stroke="black" d="M411,-215.87C406.04,-191.56 396.9,-146.82 391.02,-118.01"/>
<polygon fill="black" stroke="black" points="394.44,-117.29 389.01,-108.19 387.58,-118.69 394.44,-117.29"/>
</g>
<!-- conda&#45;&gt;conda&#45;build -->
<g id="edge3" class="edge">
<title>conda&#45;&gt;conda&#45;build</title>
<path fill="none" stroke="black" d="M638.82,-153.68C626.96,-150.66 613.07,-147.14 600.5,-144 544.45,-129.98 480.11,-114.15 436.53,-103.48"/>
<polygon fill="black" stroke="black" points="437.28,-100.06 426.74,-101.08 435.62,-106.86 437.28,-100.06"/>
</g>
<!-- constructor -->
<g id="node5" class="node">
<title>constructor</title>
<g id="a_node5"><a xlink:href="https://github.com/conda-forge/constructor-feedstock" xlink:title="constructor">
<ellipse fill="#fde725" stroke="black" cx="767.5" cy="-18" rx="50.09" ry="18"/>
<text text-anchor="middle" x="767.5" y="-14.3" font-family="Times,serif" font-size="14.00">constructor</text>
</a>
</g>
</g>
<!-- conda&#45;&gt;constructor -->
<g id="edge4" class="edge">
<title>conda&#45;&gt;constructor</title>
<path fill="none" stroke="black" d="M667.65,-143.76C668.6,-124.64 672.58,-93.65 687.5,-72 697.52,-57.46 712.96,-45.87 727.61,-37.29"/>
<polygon fill="black" stroke="black" points="729.52,-40.23 736.58,-32.33 726.13,-34.11 729.52,-40.23"/>
</g>
<!-- conda&#45;standalone -->
<g id="node6" class="node">
<title>conda&#45;standalone</title>
<g id="a_node6"><a xlink:href="https://github.com/conda-forge/conda-standalone-feedstock" xlink:title="conda standalone">
<ellipse fill="#fde725" stroke="black" cx="767.5" cy="-90" rx="71.5" ry="18"/>
<text text-anchor="middle" x="767.5" y="-86.3" font-family="Times,serif" font-size="14.00">conda standalone</text>
</a>
</g>
</g>
<!-- conda&#45;&gt;conda&#45;standalone -->
<g id="edge5" class="edge">
<title>conda&#45;&gt;conda&#45;standalone</title>
<path fill="none" stroke="black" d="M686.78,-147.5C700.67,-137.78 719.72,-124.45 735.82,-113.17"/>
<polygon fill="black" stroke="black" points="738.23,-115.76 744.42,-107.16 734.22,-110.03 738.23,-115.76"/>
</g>
<!-- conda&#45;standalone&#45;&gt;constructor -->
<g id="edge6" class="edge">
<title>conda&#45;standalone&#45;&gt;constructor</title>
<path fill="none" stroke="black" d="M767.5,-71.7C767.5,-63.98 767.5,-54.71 767.5,-46.11"/>
<polygon fill="black" stroke="black" points="771,-46.1 767.5,-36.1 764,-46.1 771,-46.1"/>
</g>
<!-- numpy -->
<g id="node7" class="node">
<title>numpy</title>
<g id="a_node7"><a xlink:href="https://github.com/conda-forge/numpy-feedstock" xlink:title="numpy">
<ellipse fill="#fde725" stroke="black" cx="1198.5" cy="-162" rx="36" ry="18"/>
<text text-anchor="middle" x="1198.5" y="-158.3" font-family="Times,serif" font-size="14.00">numpy</text>
</a>
</g>
</g>
<!-- numpy&#45;&gt;arrow&#45;cpp -->
<g id="edge7" class="edge">
<title>numpy&#45;&gt;arrow&#45;cpp</title>
<path fill="none" stroke="black" d="M1226.08,-150.5C1231.83,-148.34 1237.86,-146.08 1243.5,-144 1278.6,-131.04 1318.54,-116.67 1347.92,-106.16"/>
<polygon fill="black" stroke="black" points="1349.22,-109.41 1357.46,-102.75 1346.87,-102.82 1349.22,-109.41"/>
</g>
<!-- pandas -->
<g id="node8" class="node">
<title>pandas</title>
<g id="a_node8"><a xlink:href="https://github.com/conda-forge/pandas-feedstock" xlink:title="pandas">
<ellipse fill="#fde725" stroke="black" cx="1198.5" cy="-90" rx="35.19" ry="18"/>
<text text-anchor="middle" x="1198.5" y="-86.3" font-family="Times,serif" font-size="14.00">pandas</text>
</a>
</g>
</g>
<!-- numpy&#45;&gt;pandas -->
<g id="edge8" class="edge">
<title>numpy&#45;&gt;pandas</title>
<path fill="none" stroke="black" d="M1198.5,-143.7C1198.5,-135.98 1198.5,-126.71 1198.5,-118.11"/>
<polygon fill="black" stroke="black" points="1202,-118.1 1198.5,-108.1 1195,-118.1 1202,-118.1"/>
</g>
<!-- pycrypto -->
<g id="node9" class="node">
<title>pycrypto</title>
<g id="a_node9"><a xlink:href="https://github.com/conda-forge/pycrypto-feedstock/pull/18" xlink:title="pycrypto ❎">
<ellipse fill="#31688e" stroke="black" cx="1100.5" cy="-234" rx="54" ry="18"/>
<text text-anchor="middle" x="1100.5" y="-230.3" font-family="Times,serif" font-size="14.00" fill="white">pycrypto ❎</text>
</a>
</g>
</g>
<!-- pyinstaller -->
<g id="node10" class="node">
<title>pyinstaller</title>
<g id="a_node10"><a xlink:href="https://github.com/conda-forge/pyinstaller-feedstock" xlink:title="pyinstaller">
<ellipse fill="#fde725" stroke="black" cx="1018.5" cy="-162" rx="48.19" ry="18"/>
<text text-anchor="middle" x="1018.5" y="-158.3" font-family="Times,serif" font-size="14.00">pyinstaller</text>
</a>
</g>
</g>
<!-- pycrypto&#45;&gt;pyinstaller -->
<g id="edge9" class="edge">
<title>pycrypto&#45;&gt;pyinstaller</title>
<path fill="none" stroke="black" d="M1081.48,-216.76C1070.56,-207.45 1056.69,-195.61 1044.75,-185.41"/>
<polygon fill="black" stroke="black" points="1046.73,-182.5 1036.85,-178.67 1042.18,-187.82 1046.73,-182.5"/>
</g>
<!-- pyinstaller&#45;&gt;conda&#45;standalone -->
<g id="edge10" class="edge">
<title>pyinstaller&#45;&gt;conda&#45;standalone</title>
<path fill="none" stroke="black" d="M981.19,-150.6C939.42,-138.94 871.27,-119.94 823.18,-106.53"/>
<polygon fill="black" stroke="black" points="824.12,-103.16 813.55,-103.84 822.24,-109.9 824.12,-103.16"/>
</g>
<!-- python&#45;libarchive&#45;c -->
<g id="node11" class="node">
<title>python&#45;libarchive&#45;c</title>
<g id="a_node11"><a xlink:href="https://github.com/conda-forge/python-libarchive-c-feedstock/pull/18" xlink:title="python libarchive c ✓">
<ellipse fill="#31688e" stroke="black" cx="229.5" cy="-162" rx="89.08" ry="18"/>
<text text-anchor="middle" x="229.5" y="-158.3" font-family="Times,serif" font-size="14.00" fill="white">python libarchive c ✓</text>
</a>
</g>
</g>
<!-- python&#45;libarchive&#45;c&#45;&gt;conda&#45;build -->
<g id="edge11" class="edge">
<title>python&#45;libarchive&#45;c&#45;&gt;conda&#45;build</title>
<path fill="none" stroke="black" d="M264.51,-145.29C288.65,-134.46 320.77,-120.05 345.85,-108.79"/>
<polygon fill="black" stroke="black" points="347.39,-111.94 355.08,-104.65 344.53,-105.55 347.39,-111.94"/>
</g>
<!-- pyyaml -->
<g id="node12" class="node">
<title>pyyaml</title>
<g id="a_node12"><a xlink:href="https://github.com/conda-forge/pyyaml-feedstock/pull/27" xlink:title="pyyaml ❎">
<ellipse fill="#31688e" stroke="black" cx="112.5" cy="-234" rx="49.5" ry="18"/>
<text text-anchor="middle" x="112.5" y="-230.3" font-family="Times,serif" font-size="14.00" fill="white">pyyaml ❎</text>
</a>
</g>
</g>
<!-- pyyaml&#45;&gt;conda&#45;build -->
<g id="edge12" class="edge">
<title>pyyaml&#45;&gt;conda&#45;build</title>
<path fill="none" stroke="black" d="M111.03,-215.68C110.36,-195.59 112.58,-162.84 131.5,-144 158.24,-117.38 258.77,-102.9 325.05,-96.08"/>
<polygon fill="black" stroke="black" points="325.78,-99.52 335.38,-95.05 325.08,-92.56 325.78,-99.52"/>
</g>
<!-- ruamel_yaml -->
<g id="node13" class="node">
<title>ruamel_yaml</title>
<g id="a_node13"><a xlink:href="https://github.com/conda-forge/ruamel_yaml-feedstock/pull/71" xlink:title="ruamel_yaml ❎">
<ellipse fill="#31688e" stroke="black" cx="920.5" cy="-234" rx="69.59" ry="18"/>
<text text-anchor="middle" x="920.5" y="-230.3" font-family="Times,serif" font-size="14.00" fill="white">ruamel_yaml ❎</text>
</a>
</g>
</g>
<!-- ruamel_yaml&#45;&gt;conda -->
<g id="edge13" class="edge">
<title>ruamel_yaml&#45;&gt;conda</title>
<path fill="none" stroke="black" d="M874.68,-220.32C826.23,-206.92 750.67,-186.01 705.44,-173.5"/>
<polygon fill="black" stroke="black" points="706.29,-170.1 695.72,-170.81 704.42,-176.85 706.29,-170.1"/>
</g>
<!-- ruamel_yaml&#45;&gt;constructor -->
<g id="edge14" class="edge">
<title>ruamel_yaml&#45;&gt;constructor</title>
<path fill="none" stroke="black" d="M916.27,-215.74C907.85,-184.22 886.44,-116.5 848.5,-72 836.76,-58.23 820.57,-46.67 805.75,-37.9"/>
<polygon fill="black" stroke="black" points="807.18,-34.68 796.75,-32.8 803.73,-40.77 807.18,-34.68"/>
</g>
<!-- waf -->
<g id="node14" class="node">
<title>waf</title>
<g id="a_node14"><a xlink:href="https://github.com/conda-forge/waf-feedstock/pull/21" xlink:title="waf ✓">
<ellipse fill="#31688e" stroke="black" cx="1018.5" cy="-306" rx="34.5" ry="18"/>
<text text-anchor="middle" x="1018.5" y="-302.3" font-family="Times,serif" font-size="14.00" fill="white">waf ✓</text>
</a>
</g>
</g>
<!-- waf&#45;&gt;pyinstaller -->
<g id="edge15" class="edge">
<title>waf&#45;&gt;pyinstaller</title>
<path fill="none" stroke="black" d="M1018.5,-287.87C1018.5,-263.67 1018.5,-219.21 1018.5,-190.39"/>
<polygon fill="black" stroke="black" points="1022,-190.19 1018.5,-180.19 1015,-190.19 1022,-190.19"/>
</g>
<!-- thrift&#45;cpp -->
<g id="node15" class="node">
<title>thrift&#45;cpp</title>
<g id="a_node15"><a xlink:href="https://github.com/conda-forge/thrift-cpp-feedstock/pull/49" xlink:title="thrift cpp ❎">
<ellipse fill="#31688e" stroke="black" cx="1307.5" cy="-162" rx="55.49" ry="18"/>
<text text-anchor="middle" x="1307.5" y="-158.3" font-family="Times,serif" font-size="14.00" fill="white">thrift cpp ❎</text>
</a>
</g>
</g>
<!-- thrift&#45;cpp&#45;&gt;arrow&#45;cpp -->
<g id="edge16" class="edge">
<title>thrift&#45;cpp&#45;&gt;arrow&#45;cpp</title>
<path fill="none" stroke="black" d="M1326.75,-144.76C1337.91,-135.36 1352.11,-123.38 1364.28,-113.12"/>
<polygon fill="black" stroke="black" points="1366.54,-115.79 1371.92,-106.67 1362.02,-110.44 1366.54,-115.79"/>
</g>
<!-- llvmdev -->
<g id="node16" class="node">
<title>llvmdev</title>
<g id="a_node16"><a xlink:href="https://github.com/conda-forge/llvmdev-feedstock/pull/101" xlink:title="llvmdev ❎">
<ellipse fill="#31688e" stroke="black" cx="1408.5" cy="-234" rx="52" ry="18"/>
<text text-anchor="middle" x="1408.5" y="-230.3" font-family="Times,serif" font-size="14.00" fill="white">llvmdev ❎</text>
</a>
</g>
</g>
<!-- llvmdev&#45;&gt;arrow&#45;cpp -->
<g id="edge17" class="edge">
<title>llvmdev&#45;&gt;arrow&#45;cpp</title>
<path fill="none" stroke="black" d="M1406.33,-215.87C1403.26,-191.67 1397.63,-147.21 1393.97,-118.39"/>
<polygon fill="black" stroke="black" points="1397.41,-117.67 1392.68,-108.19 1390.46,-118.55 1397.41,-117.67"/>
</g>
<!-- clangdev -->
<g id="node17" class="node">
<title>clangdev</title>
<g id="a_node17"><a xlink:href="https://github.com/conda-forge/clangdev-feedstock" xlink:title="clangdev">
<ellipse fill="#fde725" stroke="black" cx="1460.5" cy="-162" rx="42.49" ry="18"/>
<text text-anchor="middle" x="1460.5" y="-158.3" font-family="Times,serif" font-size="14.00">clangdev</text>
</a>
</g>
</g>
<!-- llvmdev&#45;&gt;clangdev -->
<g id="edge18" class="edge">
<title>llvmdev&#45;&gt;clangdev</title>
<path fill="none" stroke="black" d="M1420.82,-216.41C1427.17,-207.87 1435.04,-197.28 1442.09,-187.79"/>
<polygon fill="black" stroke="black" points="1445.11,-189.58 1448.27,-179.47 1439.49,-185.41 1445.11,-189.58"/>
</g>
<!-- clangdev&#45;&gt;arrow&#45;cpp -->
<g id="edge19" class="edge">
<title>clangdev&#45;&gt;arrow&#45;cpp</title>
<path fill="none" stroke="black" d="M1444.62,-145.12C1435.62,-136.12 1424.18,-124.68 1414.15,-114.65"/>
<polygon fill="black" stroke="black" points="1416.35,-111.9 1406.81,-107.31 1411.4,-116.85 1416.35,-111.9"/>
</g>
<!-- cryptography -->
<g id="node18" class="node">
<title>cryptography</title>
<g id="a_node18"><a xlink:href="https://github.com/conda-forge/cryptography-feedstock/pull/42" xlink:title="cryptography ❎">
<ellipse fill="#31688e" stroke="black" cx="552.5" cy="-234" rx="69.59" ry="18"/>
<text text-anchor="middle" x="552.5" y="-230.3" font-family="Times,serif" font-size="14.00" fill="white">cryptography ❎</text>
</a>
</g>
</g>
<!-- cryptography&#45;&gt;conda -->
<g id="edge20" class="edge">
<title>cryptography&#45;&gt;conda</title>
<path fill="none" stroke="black" d="M578.6,-217.12C596.25,-206.37 619.6,-192.16 637.94,-180.99"/>
<polygon fill="black" stroke="black" points="639.77,-183.97 646.5,-175.78 636.14,-177.99 639.77,-183.97"/>
</g>
<!-- cryptography&#45;&gt;conda&#45;build -->
<g id="edge21" class="edge">
<title>cryptography&#45;&gt;conda&#45;build</title>
<path fill="none" stroke="black" d="M533.02,-216.43C503.11,-191.01 445.84,-142.3 412.13,-113.64"/>
<polygon fill="black" stroke="black" points="413.98,-110.62 404.09,-106.81 409.44,-115.95 413.98,-110.62"/>
</g>
<!-- blas -->
<g id="node19" class="node">
<title>blas</title>
<g id="a_node19"><a xlink:href="https://github.com/conda-forge/blas-feedstock" xlink:title="blas">
<ellipse fill="#fde725" stroke="black" cx="1198.5" cy="-234" rx="27" ry="18"/>
<text text-anchor="middle" x="1198.5" y="-230.3" font-family="Times,serif" font-size="14.00">blas</text>
</a>
</g>
</g>
<!-- blas&#45;&gt;numpy -->
<g id="edge22" class="edge">
<title>blas&#45;&gt;numpy</title>
<path fill="none" stroke="black" d="M1198.5,-215.7C1198.5,-207.98 1198.5,-198.71 1198.5,-190.11"/>
<polygon fill="black" stroke="black" points="1202,-190.1 1198.5,-180.1 1195,-190.1 1202,-190.1"/>
</g>
<!-- blis -->
<g id="node20" class="node">
<title>blis</title>
<g id="a_node20"><a xlink:href="https://github.com/conda-forge/blis-feedstock/pull/18" xlink:title="blis ❎">
<ellipse fill="#31688e" stroke="black" cx="1198.5" cy="-306" rx="35.19" ry="18"/>
<text text-anchor="middle" x="1198.5" y="-302.3" font-family="Times,serif" font-size="14.00" fill="white">blis ❎</text>
</a>
</g>
</g>
<!-- blis&#45;&gt;blas -->
<g id="edge23" class="edge">
<title>blis&#45;&gt;blas</title>
<path fill="none" stroke="black" d="M1198.5,-287.7C1198.5,-279.98 1198.5,-270.71 1198.5,-262.11"/>
<polygon fill="black" stroke="black" points="1202,-262.1 1198.5,-252.1 1195,-262.1 1202,-262.1"/>
</g>
<!-- lief -->
<g id="node21" class="node">
<title>lief</title>
<g id="a_node21"><a xlink:href="https://github.com/conda-forge/lief-feedstock/pull/13" xlink:title="lief ❎">
<ellipse fill="#31688e" stroke="black" cx="34.5" cy="-306" rx="34.5" ry="18"/>
<text text-anchor="middle" x="34.5" y="-302.3" font-family="Times,serif" font-size="14.00" fill="white">lief ❎</text>
</a>
</g>
</g>
<!-- lief&#45;&gt;conda&#45;build -->
<g id="edge24" class="edge">
<title>lief&#45;&gt;conda&#45;build</title>
<path fill="none" stroke="black" d="M35.82,-287.86C37.77,-269.38 42.46,-239.44 53.5,-216 70.88,-179.07 75.62,-165.19 110.5,-144 175.68,-104.42 264.21,-93.44 323.01,-90.88"/>
<polygon fill="black" stroke="black" points="323.41,-94.37 333.27,-90.5 323.15,-87.37 323.41,-94.37"/>
</g>
<!-- orc -->
<g id="node22" class="node">
<title>orc</title>
<g id="a_node22"><a xlink:href="https://github.com/conda-forge/orc-feedstock/pull/20" xlink:title="orc ❎">
<ellipse fill="#31688e" stroke="black" cx="1530.5" cy="-234" rx="34" ry="18"/>
<text text-anchor="middle" x="1530.5" y="-230.3" font-family="Times,serif" font-size="14.00" fill="white">orc ❎</text>
</a>
</g>
</g>
<!-- orc&#45;&gt;arrow&#45;cpp -->
<g id="edge25" class="edge">
<title>orc&#45;&gt;arrow&#45;cpp</title>
<path fill="none" stroke="black" d="M1531.25,-215.97C1531.22,-196.47 1528.28,-164.57 1511.5,-144 1493.84,-122.35 1465.59,-109.3 1440.82,-101.57"/>
<polygon fill="black" stroke="black" points="1441.75,-98.2 1431.18,-98.77 1439.8,-104.92 1441.75,-98.2"/>
</g>
<!-- conda&#45;package&#45;handling -->
<g id="node23" class="node">
<title>conda&#45;package&#45;handling</title>
<g id="a_node23"><a xlink:href="https://github.com/conda-forge/conda-package-handling-feedstock" xlink:title="conda package handling">
<ellipse fill="#fde725" stroke="black" cx="736.5" cy="-234" rx="96.38" ry="18"/>
<text text-anchor="middle" x="736.5" y="-230.3" font-family="Times,serif" font-size="14.00">conda package handling</text>
</a>
</g>
</g>
<!-- conda&#45;package&#45;handling&#45;&gt;conda -->
<g id="edge26" class="edge">
<title>conda&#45;package&#45;handling&#45;&gt;conda</title>
<path fill="none" stroke="black" d="M719.8,-216.05C710.77,-206.9 699.51,-195.47 689.75,-185.57"/>
<polygon fill="black" stroke="black" points="692.15,-183.02 682.64,-178.36 687.16,-187.94 692.15,-183.02"/>
</g>
<!-- conda&#45;package&#45;handling&#45;&gt;conda&#45;build -->
<g id="edge27" class="edge">
<title>conda&#45;package&#45;handling&#45;&gt;conda&#45;build</title>
<path fill="none" stroke="black" d="M697.93,-217.4C631.57,-190.55 496.28,-135.82 427.57,-108.02"/>
<polygon fill="black" stroke="black" points="428.52,-104.63 417.93,-104.12 425.89,-111.12 428.52,-104.63"/>
</g>
<!-- conda&#45;package&#45;handling&#45;&gt;conda&#45;standalone -->
<g id="edge28" class="edge">
<title>conda&#45;package&#45;handling&#45;&gt;conda&#45;standalone</title>
<path fill="none" stroke="black" d="M740.24,-215.87C745.55,-191.56 755.31,-146.82 761.6,-118.01"/>
<polygon fill="black" stroke="black" points="765.03,-118.71 763.75,-108.19 758.2,-117.21 765.03,-118.71"/>
</g>
<!-- ripgrep -->
<g id="node24" class="node">
<title>ripgrep</title>
<g id="a_node24"><a xlink:href="https://github.com/conda-forge/ripgrep-feedstock/pull/15" xlink:title="ripgrep ❎">
<ellipse fill="#31688e" stroke="black" cx="336.5" cy="-378" rx="48.19" ry="18"/>
<text text-anchor="middle" x="336.5" y="-374.3" font-family="Times,serif" font-size="14.00" fill="white">ripgrep ❎</text>
</a>
</g>
</g>
<!-- ripgrep&#45;&gt;conda&#45;build -->
<g id="edge29" class="edge">
<title>ripgrep&#45;&gt;conda&#45;build</title>
<path fill="none" stroke="black" d="M337.84,-359.98C340.32,-330.5 346.21,-268.09 355.5,-216 361.57,-181.97 371.27,-143.37 378,-118.18"/>
<polygon fill="black" stroke="black" points="381.45,-118.82 380.67,-108.25 374.69,-117 381.45,-118.82"/>
</g>
<!-- _libarchive_static_for_cph -->
<g id="node25" class="node">
<title>_libarchive_static_for_cph</title>
<g id="a_node25"><a xlink:href="https://github.com/conda-forge/_libarchive_static_for_cph-feedstock/pull/15" xlink:title="_libarchive_static_for_cph ✓">
<ellipse fill="#31688e" stroke="black" cx="736.5" cy="-306" rx="115.08" ry="18"/>
<text text-anchor="middle" x="736.5" y="-302.3" font-family="Times,serif" font-size="14.00" fill="white">_libarchive_static_for_cph ✓</text>
</a>
</g>
</g>
<!-- _libarchive_static_for_cph&#45;&gt;conda&#45;package&#45;handling -->
<g id="edge30" class="edge">
<title>_libarchive_static_for_cph&#45;&gt;conda&#45;package&#45;handling</title>
<path fill="none" stroke="black" d="M736.5,-287.7C736.5,-279.98 736.5,-270.71 736.5,-262.11"/>
<polygon fill="black" stroke="black" points="740,-262.1 736.5,-252.1 733,-262.1 740,-262.1"/>
</g>
</g>
</svg>
