<?xml version="1.0" encoding="UTF-8" standalone="no"?>
<!DOCTYPE svg PUBLIC "-//W3C//DTD SVG 1.1//EN"
 "http://www.w3.org/Graphics/SVG/1.1/DTD/svg11.dtd">
<!-- Generated by graphviz version 2.42.3 (20191010.1750)
 -->
<!-- Title: %3 Pages: 1 -->
<svg width="598pt" height="448pt"
 viewBox="0.00 0.00 597.50 448.00" xmlns="http://www.w3.org/2000/svg" xmlns:xlink="http://www.w3.org/1999/xlink">
<g id="graph0" class="graph" transform="scale(1 1) rotate(0) translate(4 444)">
<title>%3</title>
<polygon fill="white" stroke="transparent" points="-4,4 -4,-444 593.5,-444 593.5,4 -4,4"/>
<!-- arrow&#45;cpp -->
<g id="node1" class="node">
<title>arrow&#45;cpp</title>
<g id="a_node1"><a xlink:href="https://github.com/conda-forge/arrow-cpp-feedstock" xlink:title="arrow cpp">
<ellipse fill="#fde725" stroke="black" cx="212" cy="-206" rx="46.29" ry="18"/>
<text text-anchor="middle" x="212" y="-202.3" font-family="Times,serif" font-size="14.00">arrow cpp</text>
</a>
</g>
</g>
<!-- cmake -->
<g id="node2" class="node">
<title>cmake</title>
<g id="a_node2"><a xlink:href="https://github.com/conda-forge/cmake-feedstock" xlink:title="cmake">
<ellipse fill="#fde725" stroke="black" cx="514" cy="-206" rx="34.5" ry="18"/>
<text text-anchor="middle" x="514" y="-202.3" font-family="Times,serif" font-size="14.00">cmake</text>
</a>
</g>
</g>
<!-- constructor -->
<g id="node3" class="node">
<title>constructor</title>
<g id="a_node3"><a xlink:href="https://github.com/conda-forge/constructor-feedstock" xlink:title="constructor">
<ellipse fill="#fde725" stroke="black" cx="158" cy="-18" rx="50.09" ry="18"/>
<text text-anchor="middle" x="158" y="-14.3" font-family="Times,serif" font-size="14.00">constructor</text>
</a>
</g>
</g>
<!-- flit -->
<g id="node4" class="node">
<title>flit</title>
<g id="a_node4"><a xlink:href="https://github.com/conda-forge/flit-feedstock/pull/24" xlink:title="flit ❎">
<ellipse fill="#31688e" stroke="black" cx="378" cy="-422" rx="32.5" ry="18"/>
<text text-anchor="middle" x="378" y="-418.3" font-family="Times,serif" font-size="14.00" fill="white">flit ❎</text>
</a>
</g>
</g>
<!-- make -->
<g id="node5" class="node">
<title>make</title>
<g id="a_node5"><a xlink:href="https://github.com/conda-forge/make-feedstock/pull/25" xlink:title="make ❎">
<ellipse fill="#31688e" stroke="black" cx="378" cy="-350" rx="42.49" ry="18"/>
<text text-anchor="middle" x="378" y="-346.3" font-family="Times,serif" font-size="14.00" fill="white">make ❎</text>
</a>
</g>
</g>
<!-- flit&#45;&gt;make -->
<!-- ninja -->
<g id="node8" class="node">
<title>ninja</title>
<g id="a_node8"><a xlink:href="https://github.com/conda-forge/ninja-feedstock/pull/23" xlink:title="ninja ❎">
<ellipse fill="#31688e" stroke="black" cx="378" cy="-278" rx="40.5" ry="18"/>
<text text-anchor="middle" x="378" y="-274.3" font-family="Times,serif" font-size="14.00" fill="white">ninja ❎</text>
</a>
</g>
</g>
<!-- make&#45;&gt;ninja -->
<!-- lapack -->
<g id="node6" class="node">
<title>lapack</title>
<g id="a_node6"><a xlink:href="https://github.com/conda-forge/lapack-feedstock" xlink:title="lapack">
<ellipse fill="#fde725" stroke="black" cx="34" cy="-278" rx="34" ry="18"/>
<text text-anchor="middle" x="34" y="-274.3" font-family="Times,serif" font-size="14.00">lapack</text>
</a>
</g>
</g>
<!-- libuv -->
<g id="node7" class="node">
<title>libuv</title>
<g id="a_node7"><a xlink:href="https://github.com/conda-forge/libuv-feedstock/pull/46" xlink:title="libuv ❎">
<ellipse fill="#31688e" stroke="black" cx="480" cy="-278" rx="40.5" ry="18"/>
<text text-anchor="middle" x="480" y="-274.3" font-family="Times,serif" font-size="14.00" fill="white">libuv ❎</text>
</a>
</g>
</g>
<!-- libuv&#45;&gt;cmake -->
<g id="edge2" class="edge">
<title>libuv&#45;&gt;cmake</title>
<path fill="none" stroke="black" d="M488.23,-260.05C492.2,-251.89 497.04,-241.91 501.46,-232.82"/>
<polygon fill="black" stroke="black" points="504.62,-234.31 505.85,-223.79 498.33,-231.25 504.62,-234.31"/>
</g>
<!-- openblas -->
<g id="node9" class="node">
<title>openblas</title>
<g id="a_node9"><a xlink:href="https://github.com/conda-forge/openblas-feedstock/pull/105" xlink:title="openblas ❎">
<ellipse fill="#31688e" stroke="black" cx="378" cy="-206" rx="54" ry="18"/>
<text text-anchor="middle" x="378" y="-202.3" font-family="Times,serif" font-size="14.00" fill="white">openblas ❎</text>
</a>
</g>
</g>
<!-- ninja&#45;&gt;openblas -->
<!-- ripgrep -->
<g id="node12" class="node">
<title>ripgrep</title>
<g id="a_node12"><a xlink:href="https://github.com/conda-forge/ripgrep-feedstock/pull/15" xlink:title="ripgrep ❎">
<ellipse fill="#31688e" stroke="black" cx="378" cy="-134" rx="48.19" ry="18"/>
<text text-anchor="middle" x="378" y="-130.3" font-family="Times,serif" font-size="14.00" fill="white">ripgrep ❎</text>
</a>
</g>
</g>
<!-- openblas&#45;&gt;ripgrep -->
<!-- numpy -->
<g id="node10" class="node">
<title>numpy</title>
<g id="a_node10"><a xlink:href="https://github.com/conda-forge/numpy-feedstock" xlink:title="numpy">
<ellipse fill="#fde725" stroke="black" cx="122" cy="-278" rx="36" ry="18"/>
<text text-anchor="middle" x="122" y="-274.3" font-family="Times,serif" font-size="14.00">numpy</text>
</a>
</g>
</g>
<!-- numpy&#45;&gt;arrow&#45;cpp -->
<g id="edge5" class="edge">
<title>numpy&#45;&gt;arrow&#45;cpp</title>
<path fill="none" stroke="black" d="M140.65,-262.5C153.22,-252.72 170.02,-239.65 184.16,-228.65"/>
<polygon fill="black" stroke="black" points="186.38,-231.36 192.13,-222.46 182.08,-225.83 186.38,-231.36"/>
</g>
<!-- pandas -->
<g id="node11" class="node">
<title>pandas</title>
<g id="a_node11"><a xlink:href="https://github.com/conda-forge/pandas-feedstock" xlink:title="pandas">
<ellipse fill="#fde725" stroke="black" cx="113" cy="-206" rx="35.19" ry="18"/>
<text text-anchor="middle" x="113" y="-202.3" font-family="Times,serif" font-size="14.00">pandas</text>
</a>
</g>
</g>
<!-- numpy&#45;&gt;pandas -->
<g id="edge6" class="edge">
<title>numpy&#45;&gt;pandas</title>
<path fill="none" stroke="black" d="M119.78,-259.7C118.78,-251.98 117.59,-242.71 116.49,-234.11"/>
<polygon fill="black" stroke="black" points="119.95,-233.58 115.2,-224.1 113,-234.47 119.95,-233.58"/>
</g>
<!-- rhash -->
<g id="node13" class="node">
<title>rhash</title>
<g id="a_node13"><a xlink:href="https://github.com/conda-forge/rhash-feedstock/pull/14" xlink:title="rhash ✓">
<ellipse fill="#31688e" stroke="black" cx="549" cy="-350" rx="40.5" ry="18"/>
<text text-anchor="middle" x="549" y="-346.3" font-family="Times,serif" font-size="14.00" fill="white">rhash ✓</text>
</a>
</g>
</g>
<!-- rhash&#45;&gt;cmake -->
<g id="edge8" class="edge">
<title>rhash&#45;&gt;cmake</title>
<path fill="none" stroke="black" d="M545.78,-331.84C542.29,-313.84 536.38,-284.79 530,-260 527.79,-251.4 525.09,-242.1 522.54,-233.73"/>
<polygon fill="black" stroke="black" points="525.85,-232.6 519.55,-224.08 519.17,-234.67 525.85,-232.6"/>
</g>
<!-- llvmdev -->
<g id="node14" class="node">
<title>llvmdev</title>
<g id="a_node14"><a xlink:href="https://github.com/conda-forge/llvmdev-feedstock/pull/101" xlink:title="llvmdev ❎">
<ellipse fill="#31688e" stroke="black" cx="231" cy="-350" rx="52" ry="18"/>
<text text-anchor="middle" x="231" y="-346.3" font-family="Times,serif" font-size="14.00" fill="white">llvmdev ❎</text>
</a>
</g>
</g>
<!-- llvmdev&#45;&gt;arrow&#45;cpp -->
<g id="edge9" class="edge">
<title>llvmdev&#45;&gt;arrow&#45;cpp</title>
<path fill="none" stroke="black" d="M227.84,-331.85C225.99,-321.49 223.69,-308.01 222,-296 219.09,-275.34 216.48,-251.9 214.66,-234.25"/>
<polygon fill="black" stroke="black" points="218.12,-233.69 213.63,-224.1 211.16,-234.4 218.12,-233.69"/>
</g>
<!-- clangdev -->
<g id="node15" class="node">
<title>clangdev</title>
<g id="a_node15"><a xlink:href="https://github.com/conda-forge/clangdev-feedstock" xlink:title="clangdev">
<ellipse fill="#fde725" stroke="black" cx="273" cy="-278" rx="42.49" ry="18"/>
<text text-anchor="middle" x="273" y="-274.3" font-family="Times,serif" font-size="14.00">clangdev</text>
</a>
</g>
</g>
<!-- llvmdev&#45;&gt;clangdev -->
<g id="edge10" class="edge">
<title>llvmdev&#45;&gt;clangdev</title>
<path fill="none" stroke="black" d="M241.17,-332.05C246.12,-323.8 252.18,-313.7 257.68,-304.54"/>
<polygon fill="black" stroke="black" points="260.78,-306.16 262.93,-295.79 254.78,-302.56 260.78,-306.16"/>
</g>
<!-- clangdev&#45;&gt;arrow&#45;cpp -->
<g id="edge11" class="edge">
<title>clangdev&#45;&gt;arrow&#45;cpp</title>
<path fill="none" stroke="black" d="M258.85,-260.76C251.08,-251.84 241.29,-240.61 232.67,-230.72"/>
<polygon fill="black" stroke="black" points="235.28,-228.39 226.07,-223.15 230,-232.99 235.28,-228.39"/>
</g>
<!-- blas -->
<g id="node16" class="node">
<title>blas</title>
<g id="a_node16"><a xlink:href="https://github.com/conda-forge/blas-feedstock/pull/47" xlink:title="blas ❎">
<ellipse fill="#31688e" stroke="black" cx="93" cy="-350" rx="36.5" ry="18"/>
<text text-anchor="middle" x="93" y="-346.3" font-family="Times,serif" font-size="14.00" fill="white">blas ❎</text>
</a>
</g>
</g>
<!-- blas&#45;&gt;lapack -->
<g id="edge12" class="edge">
<title>blas&#45;&gt;lapack</title>
<path fill="none" stroke="black" d="M79.61,-333.12C71.99,-324.08 62.31,-312.58 53.82,-302.52"/>
<polygon fill="black" stroke="black" points="56.46,-300.21 47.34,-294.82 51.1,-304.72 56.46,-300.21"/>
</g>
<!-- blas&#45;&gt;numpy -->
<g id="edge13" class="edge">
<title>blas&#45;&gt;numpy</title>
<path fill="none" stroke="black" d="M100.02,-332.05C103.37,-323.97 107.45,-314.12 111.18,-305.11"/>
<polygon fill="black" stroke="black" points="114.45,-306.37 115.04,-295.79 107.98,-303.69 114.45,-306.37"/>
</g>
<!-- conda&#45;standalone -->
<g id="node17" class="node">
<title>conda&#45;standalone</title>
<g id="a_node17"><a xlink:href="https://github.com/conda-forge/conda-standalone-feedstock/pull/10" xlink:title="conda standalone ❎">
<ellipse fill="#31688e" stroke="black" cx="158" cy="-90" rx="83.39" ry="18"/>
<text text-anchor="middle" x="158" y="-86.3" font-family="Times,serif" font-size="14.00" fill="white">conda standalone ❎</text>
</a>
</g>
</g>
<!-- conda&#45;standalone&#45;&gt;constructor -->
<g id="edge14" class="edge">
<title>conda&#45;standalone&#45;&gt;constructor</title>
<path fill="none" stroke="black" d="M158,-71.7C158,-63.98 158,-54.71 158,-46.11"/>
<polygon fill="black" stroke="black" points="161.5,-46.1 158,-36.1 154.5,-46.1 161.5,-46.1"/>
</g>
</g>
</svg>
