<?xml version="1.0" encoding="UTF-8" standalone="no"?>
<!DOCTYPE svg PUBLIC "-//W3C//DTD SVG 1.1//EN"
 "http://www.w3.org/Graphics/SVG/1.1/DTD/svg11.dtd">
<!-- Generated by graphviz version 2.42.3 (20191010.1750)
 -->
<!-- Title: %3 Pages: 1 -->
<svg width="1762pt" height="404pt"
 viewBox="0.00 0.00 1762.04 404.00" xmlns="http://www.w3.org/2000/svg" xmlns:xlink="http://www.w3.org/1999/xlink">
<g id="graph0" class="graph" transform="scale(1 1) rotate(0) translate(4 400)">
<title>%3</title>
<polygon fill="white" stroke="transparent" points="-4,4 -4,-400 1758.04,-400 1758.04,4 -4,4"/>
<!-- arrow&#45;cpp -->
<g id="node1" class="node">
<title>arrow&#45;cpp</title>
<g id="a_node1"><a xlink:href="https://github.com/conda-forge/arrow-cpp-feedstock" xlink:title="arrow cpp">
<ellipse fill="#fde725" stroke="black" cx="200" cy="-162" rx="46.29" ry="18"/>
<text text-anchor="middle" x="200" y="-158.3" font-family="Times,serif" font-size="14.00">arrow cpp</text>
</a>
</g>
</g>
<!-- brotlipy -->
<g id="node2" class="node">
<title>brotlipy</title>
<g id="a_node2"><a xlink:href="https://github.com/conda-forge/brotlipy-feedstock/pull/10" xlink:title="brotlipy ❎">
<ellipse fill="#31688e" stroke="black" cx="584" cy="-162" rx="50.09" ry="18"/>
<text text-anchor="middle" x="584" y="-158.3" font-family="Times,serif" font-size="14.00" fill="white">brotlipy ❎</text>
</a>
</g>
</g>
<!-- conda -->
<g id="node3" class="node">
<title>conda</title>
<g id="a_node3"><a xlink:href="https://github.com/conda-forge/conda-feedstock" xlink:title="conda">
<ellipse fill="#fde725" stroke="black" cx="930" cy="-90" rx="32" ry="18"/>
<text text-anchor="middle" x="930" y="-86.3" font-family="Times,serif" font-size="14.00">conda</text>
</a>
</g>
</g>
<!-- brotlipy&#45;&gt;conda -->
<g id="edge1" class="edge">
<title>brotlipy&#45;&gt;conda</title>
<path fill="none" stroke="black" d="M620.99,-149.74C628.26,-147.7 635.84,-145.69 643,-144 729.87,-123.52 833.07,-106.13 889,-97.27"/>
<polygon fill="black" stroke="black" points="889.88,-100.68 899.21,-95.67 888.79,-93.76 889.88,-100.68"/>
</g>
<!-- conda&#45;build -->
<g id="node4" class="node">
<title>conda&#45;build</title>
<g id="a_node4"><a xlink:href="https://github.com/conda-forge/conda-build-feedstock" xlink:title="conda build">
<ellipse fill="#fde725" stroke="black" cx="1072" cy="-18" rx="52" ry="18"/>
<text text-anchor="middle" x="1072" y="-14.3" font-family="Times,serif" font-size="14.00">conda build</text>
</a>
</g>
</g>
<!-- brotlipy&#45;&gt;conda&#45;build -->
<g id="edge2" class="edge">
<title>brotlipy&#45;&gt;conda&#45;build</title>
<path fill="none" stroke="black" d="M614.79,-147.65C659.35,-128.72 744.76,-93.96 820,-72 886.39,-52.63 964.55,-37.31 1016.03,-28.23"/>
<polygon fill="black" stroke="black" points="1016.71,-31.66 1025.95,-26.5 1015.5,-24.77 1016.71,-31.66"/>
</g>
<!-- conda&#45;&gt;conda&#45;build -->
<g id="edge3" class="edge">
<title>conda&#45;&gt;conda&#45;build</title>
<path fill="none" stroke="black" d="M953.45,-77.44C975.41,-66.62 1008.6,-50.25 1034.28,-37.59"/>
<polygon fill="black" stroke="black" points="1035.95,-40.68 1043.37,-33.11 1032.85,-34.4 1035.95,-40.68"/>
</g>
<!-- cython -->
<g id="node5" class="node">
<title>cython</title>
<g id="a_node5"><a xlink:href="https://github.com/conda-forge/cython-feedstock" xlink:title="cython">
<ellipse fill="#35b779" stroke="black" cx="487" cy="-306" rx="34.5" ry="18"/>
<text text-anchor="middle" x="487" y="-302.3" font-family="Times,serif" font-size="14.00">cython</text>
</a>
</g>
</g>
<!-- cython&#45;&gt;arrow&#45;cpp -->
<g id="edge4" class="edge">
<title>cython&#45;&gt;arrow&#45;cpp</title>
<path fill="none" stroke="black" d="M474.23,-289.01C454.73,-264.75 418.94,-220.93 411,-216 363.35,-186.45 300.02,-173.35 255.21,-167.56"/>
<polygon fill="black" stroke="black" points="255.44,-164.06 245.09,-166.33 254.6,-171.01 255.44,-164.06"/>
</g>
<!-- numpy -->
<g id="node6" class="node">
<title>numpy</title>
<g id="a_node6"><a xlink:href="https://github.com/conda-forge/numpy-feedstock" xlink:title="numpy">
<ellipse fill="#fde725" stroke="black" cx="366" cy="-234" rx="36" ry="18"/>
<text text-anchor="middle" x="366" y="-230.3" font-family="Times,serif" font-size="14.00">numpy</text>
</a>
</g>
</g>
<!-- cython&#45;&gt;numpy -->
<g id="edge5" class="edge">
<title>cython&#45;&gt;numpy</title>
<path fill="none" stroke="black" d="M464.81,-292.16C446.03,-281.3 418.88,-265.59 397.79,-253.39"/>
<polygon fill="black" stroke="black" points="399.28,-250.21 388.87,-248.23 395.78,-256.27 399.28,-250.21"/>
</g>
<!-- pandas -->
<g id="node7" class="node">
<title>pandas</title>
<g id="a_node7"><a xlink:href="https://github.com/conda-forge/pandas-feedstock" xlink:title="pandas">
<ellipse fill="#fde725" stroke="black" cx="404" cy="-162" rx="35.19" ry="18"/>
<text text-anchor="middle" x="404" y="-158.3" font-family="Times,serif" font-size="14.00">pandas</text>
</a>
</g>
</g>
<!-- cython&#45;&gt;pandas -->
<g id="edge6" class="edge">
<title>cython&#45;&gt;pandas</title>
<path fill="none" stroke="black" d="M480.01,-288.08C472.19,-269.79 458.67,-240.02 444,-216 437.99,-206.16 430.57,-195.92 423.76,-187.09"/>
<polygon fill="black" stroke="black" points="426.42,-184.81 417.48,-179.12 420.92,-189.14 426.42,-184.81"/>
</g>
<!-- pyyaml -->
<g id="node8" class="node">
<title>pyyaml</title>
<g id="a_node8"><a xlink:href="https://github.com/conda-forge/pyyaml-feedstock" xlink:title="pyyaml">
<ellipse fill="#fde725" stroke="black" cx="548" cy="-90" rx="37.89" ry="18"/>
<text text-anchor="middle" x="548" y="-86.3" font-family="Times,serif" font-size="14.00">pyyaml</text>
</a>
</g>
</g>
<!-- cython&#45;&gt;pyyaml -->
<g id="edge7" class="edge">
<title>cython&#45;&gt;pyyaml</title>
<path fill="none" stroke="black" d="M490.02,-287.8C495.47,-258.05 507.98,-195.24 525,-144 527.95,-135.11 531.82,-125.64 535.53,-117.21"/>
<polygon fill="black" stroke="black" points="538.82,-118.44 539.76,-107.89 532.44,-115.55 538.82,-118.44"/>
</g>
<!-- ruamel_yaml -->
<g id="node9" class="node">
<title>ruamel_yaml</title>
<g id="a_node9"><a xlink:href="https://github.com/conda-forge/ruamel_yaml-feedstock" xlink:title="ruamel_yaml">
<ellipse fill="#fde725" stroke="black" cx="920" cy="-162" rx="58" ry="18"/>
<text text-anchor="middle" x="920" y="-158.3" font-family="Times,serif" font-size="14.00">ruamel_yaml</text>
</a>
</g>
</g>
<!-- cython&#45;&gt;ruamel_yaml -->
<g id="edge8" class="edge">
<title>cython&#45;&gt;ruamel_yaml</title>
<path fill="none" stroke="black" d="M520.96,-302.61C575.47,-297.93 685.18,-284.94 772,-252 816.2,-235.23 862.1,-205.35 890.84,-184.88"/>
<polygon fill="black" stroke="black" points="893.13,-187.54 899.19,-178.85 889.03,-181.87 893.13,-187.54"/>
</g>
<!-- conda&#45;package&#45;handling -->
<g id="node10" class="node">
<title>conda&#45;package&#45;handling</title>
<g id="a_node10"><a xlink:href="https://github.com/conda-forge/conda-package-handling-feedstock" xlink:title="conda package handling">
<ellipse fill="#fde725" stroke="black" cx="748" cy="-162" rx="96.38" ry="18"/>
<text text-anchor="middle" x="748" y="-158.3" font-family="Times,serif" font-size="14.00">conda package handling</text>
</a>
</g>
</g>
<!-- cython&#45;&gt;conda&#45;package&#45;handling -->
<g id="edge9" class="edge">
<title>cython&#45;&gt;conda&#45;package&#45;handling</title>
<path fill="none" stroke="black" d="M521.15,-303.39C586.21,-299.54 724.03,-287.31 753,-252 766.98,-234.96 763.86,-209.34 758.34,-189.96"/>
<polygon fill="black" stroke="black" points="761.59,-188.65 755.21,-180.19 754.93,-190.79 761.59,-188.65"/>
</g>
<!-- numpy&#45;&gt;arrow&#45;cpp -->
<g id="edge10" class="edge">
<title>numpy&#45;&gt;arrow&#45;cpp</title>
<path fill="none" stroke="black" d="M339.33,-221.75C312.45,-210.42 270.65,-192.79 239.85,-179.8"/>
<polygon fill="black" stroke="black" points="240.84,-176.42 230.26,-175.76 238.12,-182.87 240.84,-176.42"/>
</g>
<!-- numpy&#45;&gt;pandas -->
<g id="edge11" class="edge">
<title>numpy&#45;&gt;pandas</title>
<path fill="none" stroke="black" d="M375.01,-216.41C379.55,-208.04 385.16,-197.71 390.23,-188.37"/>
<polygon fill="black" stroke="black" points="393.36,-189.93 395.06,-179.47 387.21,-186.59 393.36,-189.93"/>
</g>
<!-- pyyaml&#45;&gt;conda&#45;build -->
<g id="edge12" class="edge">
<title>pyyaml&#45;&gt;conda&#45;build</title>
<path fill="none" stroke="black" d="M584.02,-84.19C673.28,-72.26 905.36,-41.26 1014.14,-26.73"/>
<polygon fill="black" stroke="black" points="1014.83,-30.17 1024.27,-25.38 1013.9,-23.23 1014.83,-30.17"/>
</g>
<!-- ruamel_yaml&#45;&gt;conda -->
<g id="edge13" class="edge">
<title>ruamel_yaml&#45;&gt;conda</title>
<path fill="none" stroke="black" d="M922.47,-143.7C923.57,-135.98 924.9,-126.71 926.13,-118.11"/>
<polygon fill="black" stroke="black" points="929.61,-118.5 927.56,-108.1 922.68,-117.51 929.61,-118.5"/>
</g>
<!-- conda&#45;package&#45;handling&#45;&gt;conda -->
<g id="edge14" class="edge">
<title>conda&#45;package&#45;handling&#45;&gt;conda</title>
<path fill="none" stroke="black" d="M788.39,-145.46C820.33,-133.18 864.47,-116.2 894.94,-104.49"/>
<polygon fill="black" stroke="black" points="896.24,-107.74 904.32,-100.88 893.73,-101.2 896.24,-107.74"/>
</g>
<!-- conda&#45;package&#45;handling&#45;&gt;conda&#45;build -->
<g id="edge15" class="edge">
<title>conda&#45;package&#45;handling&#45;&gt;conda&#45;build</title>
<path fill="none" stroke="black" d="M769.85,-144.45C796.67,-124.8 844.12,-92.18 889,-72 930.78,-53.22 980.91,-39.25 1018.12,-30.38"/>
<polygon fill="black" stroke="black" points="1019.32,-33.69 1028.26,-28.01 1017.73,-26.88 1019.32,-33.69"/>
</g>
<!-- markupsafe -->
<g id="node11" class="node">
<title>markupsafe</title>
<g id="a_node11"><a xlink:href="https://github.com/conda-forge/markupsafe-feedstock" xlink:title="markupsafe">
<ellipse fill="#35b779" stroke="black" cx="1072" cy="-90" rx="52" ry="18"/>
<text text-anchor="middle" x="1072" y="-86.3" font-family="Times,serif" font-size="14.00">markupsafe</text>
</a>
</g>
</g>
<!-- markupsafe&#45;&gt;conda&#45;build -->
<g id="edge16" class="edge">
<title>markupsafe&#45;&gt;conda&#45;build</title>
<path fill="none" stroke="black" d="M1072,-71.7C1072,-63.98 1072,-54.71 1072,-46.11"/>
<polygon fill="black" stroke="black" points="1075.5,-46.1 1072,-36.1 1068.5,-46.1 1075.5,-46.1"/>
</g>
<!-- pycosat -->
<g id="node12" class="node">
<title>pycosat</title>
<g id="a_node12"><a xlink:href="https://github.com/conda-forge/pycosat-feedstock/pull/16" xlink:title="pycosat ❎">
<ellipse fill="#31688e" stroke="black" cx="1046" cy="-162" rx="49.5" ry="18"/>
<text text-anchor="middle" x="1046" y="-158.3" font-family="Times,serif" font-size="14.00" fill="white">pycosat ❎</text>
</a>
</g>
</g>
<!-- pycosat&#45;&gt;conda -->
<g id="edge17" class="edge">
<title>pycosat&#45;&gt;conda</title>
<path fill="none" stroke="black" d="M1021.4,-146.15C1003.37,-135.28 978.81,-120.46 959.69,-108.92"/>
<polygon fill="black" stroke="black" points="961.44,-105.88 951.07,-103.71 957.82,-111.88 961.44,-105.88"/>
</g>
<!-- python&#45;libarchive&#45;c -->
<g id="node13" class="node">
<title>python&#45;libarchive&#45;c</title>
<g id="a_node13"><a xlink:href="https://github.com/conda-forge/python-libarchive-c-feedstock" xlink:title="python libarchive c">
<ellipse fill="#35b779" stroke="black" cx="1350" cy="-162" rx="79.5" ry="18"/>
<text text-anchor="middle" x="1350" y="-158.3" font-family="Times,serif" font-size="14.00">python libarchive c</text>
</a>
</g>
</g>
<!-- python&#45;libarchive&#45;c&#45;&gt;conda&#45;build -->
<g id="edge18" class="edge">
<title>python&#45;libarchive&#45;c&#45;&gt;conda&#45;build</title>
<path fill="none" stroke="black" d="M1319.19,-145.26C1267.74,-118.98 1164.53,-66.26 1109.15,-37.97"/>
<polygon fill="black" stroke="black" points="1110.53,-34.75 1100.04,-33.32 1107.35,-40.99 1110.53,-34.75"/>
</g>
<!-- thrift&#45;cpp -->
<g id="node14" class="node">
<title>thrift&#45;cpp</title>
<g id="a_node14"><a xlink:href="https://github.com/conda-forge/thrift-cpp-feedstock/pull/49" xlink:title="thrift cpp ❎">
<ellipse fill="#31688e" stroke="black" cx="257" cy="-234" rx="55.49" ry="18"/>
<text text-anchor="middle" x="257" y="-230.3" font-family="Times,serif" font-size="14.00" fill="white">thrift cpp ❎</text>
</a>
</g>
</g>
<!-- thrift&#45;cpp&#45;&gt;arrow&#45;cpp -->
<g id="edge19" class="edge">
<title>thrift&#45;cpp&#45;&gt;arrow&#45;cpp</title>
<path fill="none" stroke="black" d="M243.49,-216.41C236.46,-207.78 227.74,-197.06 219.95,-187.5"/>
<polygon fill="black" stroke="black" points="222.44,-185.01 213.41,-179.47 217.01,-189.43 222.44,-185.01"/>
</g>
<!-- llvmdev -->
<g id="node15" class="node">
<title>llvmdev</title>
<g id="a_node15"><a xlink:href="https://github.com/conda-forge/llvmdev-feedstock/pull/101" xlink:title="llvmdev ❎">
<ellipse fill="#31688e" stroke="black" cx="140" cy="-306" rx="52" ry="18"/>
<text text-anchor="middle" x="140" y="-302.3" font-family="Times,serif" font-size="14.00" fill="white">llvmdev ❎</text>
</a>
</g>
</g>
<!-- llvmdev&#45;&gt;arrow&#45;cpp -->
<g id="edge20" class="edge">
<title>llvmdev&#45;&gt;arrow&#45;cpp</title>
<path fill="none" stroke="black" d="M120.69,-289.26C100.99,-271.24 75.38,-240.97 91,-216 104.13,-195.02 128.19,-182.13 150.38,-174.33"/>
<polygon fill="black" stroke="black" points="151.63,-177.6 160.06,-171.19 149.47,-170.94 151.63,-177.6"/>
</g>
<!-- clangdev -->
<g id="node16" class="node">
<title>clangdev</title>
<g id="a_node16"><a xlink:href="https://github.com/conda-forge/clangdev-feedstock" xlink:title="clangdev">
<ellipse fill="#fde725" stroke="black" cx="142" cy="-234" rx="42.49" ry="18"/>
<text text-anchor="middle" x="142" y="-230.3" font-family="Times,serif" font-size="14.00">clangdev</text>
</a>
</g>
</g>
<!-- llvmdev&#45;&gt;clangdev -->
<g id="edge21" class="edge">
<title>llvmdev&#45;&gt;clangdev</title>
<path fill="none" stroke="black" d="M140.49,-287.7C140.71,-279.98 140.98,-270.71 141.23,-262.11"/>
<polygon fill="black" stroke="black" points="144.72,-262.2 141.51,-252.1 137.73,-262 144.72,-262.2"/>
</g>
<!-- clangdev&#45;&gt;arrow&#45;cpp -->
<g id="edge22" class="edge">
<title>clangdev&#45;&gt;arrow&#45;cpp</title>
<path fill="none" stroke="black" d="M155.45,-216.76C162.67,-208.06 171.71,-197.15 179.75,-187.43"/>
<polygon fill="black" stroke="black" points="182.53,-189.57 186.22,-179.63 177.14,-185.1 182.53,-189.57"/>
</g>
<!-- cryptography -->
<g id="node17" class="node">
<title>cryptography</title>
<g id="a_node17"><a xlink:href="https://github.com/conda-forge/cryptography-feedstock/pull/42" xlink:title="cryptography ❎">
<ellipse fill="#31688e" stroke="black" cx="1183" cy="-162" rx="69.59" ry="18"/>
<text text-anchor="middle" x="1183" y="-158.3" font-family="Times,serif" font-size="14.00" fill="white">cryptography ❎</text>
</a>
</g>
</g>
<!-- cryptography&#45;&gt;conda -->
<g id="edge23" class="edge">
<title>cryptography&#45;&gt;conda</title>
<path fill="none" stroke="black" d="M1137.18,-148.32C1088.73,-134.92 1013.17,-114.01 967.94,-101.5"/>
<polygon fill="black" stroke="black" points="968.79,-98.1 958.22,-98.81 966.92,-104.85 968.79,-98.1"/>
</g>
<!-- cryptography&#45;&gt;conda&#45;build -->
<g id="edge24" class="edge">
<title>cryptography&#45;&gt;conda&#45;build</title>
<path fill="none" stroke="black" d="M1175.54,-143.85C1166.9,-125.09 1151.47,-94.67 1133,-72 1123.82,-60.73 1112.08,-49.91 1101.36,-41.01"/>
<polygon fill="black" stroke="black" points="1103.4,-38.15 1093.41,-34.6 1099,-43.6 1103.4,-38.15"/>
</g>
<!-- blas -->
<g id="node18" class="node">
<title>blas</title>
<g id="a_node18"><a xlink:href="https://github.com/conda-forge/blas-feedstock" xlink:title="blas">
<ellipse fill="#fde725" stroke="black" cx="366" cy="-306" rx="27" ry="18"/>
<text text-anchor="middle" x="366" y="-302.3" font-family="Times,serif" font-size="14.00">blas</text>
</a>
</g>
</g>
<!-- blas&#45;&gt;numpy -->
<g id="edge25" class="edge">
<title>blas&#45;&gt;numpy</title>
<path fill="none" stroke="black" d="M366,-287.7C366,-279.98 366,-270.71 366,-262.11"/>
<polygon fill="black" stroke="black" points="369.5,-262.1 366,-252.1 362.5,-262.1 369.5,-262.1"/>
</g>
<!-- blis -->
<g id="node19" class="node">
<title>blis</title>
<g id="a_node19"><a xlink:href="https://github.com/conda-forge/blis-feedstock/pull/18" xlink:title="blis ❎">
<ellipse fill="#31688e" stroke="black" cx="366" cy="-378" rx="35.19" ry="18"/>
<text text-anchor="middle" x="366" y="-374.3" font-family="Times,serif" font-size="14.00" fill="white">blis ❎</text>
</a>
</g>
</g>
<!-- blis&#45;&gt;blas -->
<g id="edge26" class="edge">
<title>blis&#45;&gt;blas</title>
<path fill="none" stroke="black" d="M366,-359.7C366,-351.98 366,-342.71 366,-334.11"/>
<polygon fill="black" stroke="black" points="369.5,-334.1 366,-324.1 362.5,-334.1 369.5,-334.1"/>
</g>
<!-- lief -->
<g id="node20" class="node">
<title>lief</title>
<g id="a_node20"><a xlink:href="https://github.com/conda-forge/lief-feedstock/pull/13" xlink:title="lief ❎">
<ellipse fill="#31688e" stroke="black" cx="1457" cy="-234" rx="34.5" ry="18"/>
<text text-anchor="middle" x="1457" y="-230.3" font-family="Times,serif" font-size="14.00" fill="white">lief ❎</text>
</a>
</g>
</g>
<!-- lief&#45;&gt;conda&#45;build -->
<g id="edge27" class="edge">
<title>lief&#45;&gt;conda&#45;build</title>
<path fill="none" stroke="black" d="M1458.28,-215.73C1458.77,-196.01 1456.48,-163.89 1439,-144 1360.59,-54.79 1215.91,-29.17 1133.57,-21.87"/>
<polygon fill="black" stroke="black" points="1133.61,-18.36 1123.36,-21.03 1133.04,-25.33 1133.61,-18.36"/>
</g>
<!-- orc -->
<g id="node21" class="node">
<title>orc</title>
<g id="a_node21"><a xlink:href="https://github.com/conda-forge/orc-feedstock/pull/20" xlink:title="orc ❎">
<ellipse fill="#31688e" stroke="black" cx="34" cy="-306" rx="34" ry="18"/>
<text text-anchor="middle" x="34" y="-302.3" font-family="Times,serif" font-size="14.00" fill="white">orc ❎</text>
</a>
</g>
</g>
<!-- orc&#45;&gt;arrow&#45;cpp -->
<g id="edge28" class="edge">
<title>orc&#45;&gt;arrow&#45;cpp</title>
<path fill="none" stroke="black" d="M39.55,-288.16C46.77,-268.54 61.12,-236.24 83,-216 102.91,-197.58 130.31,-184.7 153.59,-176.26"/>
<polygon fill="black" stroke="black" points="154.98,-179.48 163.28,-172.9 152.69,-172.87 154.98,-179.48"/>
</g>
<!-- ripgrep -->
<g id="node22" class="node">
<title>ripgrep</title>
<g id="a_node22"><a xlink:href="https://github.com/conda-forge/ripgrep-feedstock/pull/15" xlink:title="ripgrep ❎">
<ellipse fill="#31688e" stroke="black" cx="1520" cy="-306" rx="48.19" ry="18"/>
<text text-anchor="middle" x="1520" y="-302.3" font-family="Times,serif" font-size="14.00" fill="white">ripgrep ❎</text>
</a>
</g>
</g>
<!-- ripgrep&#45;&gt;conda&#45;build -->
<g id="edge29" class="edge">
<title>ripgrep&#45;&gt;conda&#45;build</title>
<path fill="none" stroke="black" d="M1517.88,-287.84C1515.27,-269.6 1510.04,-240.11 1501,-216 1471.95,-138.52 1457.25,-108.52 1383,-72 1303.11,-32.7 1199.28,-21.94 1134.13,-19.32"/>
<polygon fill="black" stroke="black" points="1134.13,-15.82 1124.01,-18.97 1133.88,-22.82 1134.13,-15.82"/>
</g>
<!-- _libarchive_static_for_cph -->
<g id="node23" class="node">
<title>_libarchive_static_for_cph</title>
<g id="a_node23"><a xlink:href="https://github.com/conda-forge/_libarchive_static_for_cph-feedstock" xlink:title="_libarchive_static_for_cph">
<ellipse fill="#35b779" stroke="black" cx="639" cy="-234" rx="104.78" ry="18"/>
<text text-anchor="middle" x="639" y="-230.3" font-family="Times,serif" font-size="14.00">_libarchive_static_for_cph</text>
</a>
</g>
</g>
<!-- _libarchive_static_for_cph&#45;&gt;conda&#45;package&#45;handling -->
<g id="edge30" class="edge">
<title>_libarchive_static_for_cph&#45;&gt;conda&#45;package&#45;handling</title>
<path fill="none" stroke="black" d="M664.83,-216.41C679.49,-207 698.02,-195.1 713.87,-184.92"/>
<polygon fill="black" stroke="black" points="715.83,-187.82 722.35,-179.47 712.05,-181.93 715.83,-187.82"/>
</g>
<!-- aws&#45;c&#45;event&#45;stream -->
<g id="node24" class="node">
<title>aws&#45;c&#45;event&#45;stream</title>
<g id="a_node24"><a xlink:href="https://github.com/conda-forge/aws-c-event-stream-feedstock/pull/3" xlink:title="aws c event stream ✓">
<ellipse fill="#31688e" stroke="black" cx="1665" cy="-198" rx="89.08" ry="18"/>
<text text-anchor="middle" x="1665" y="-194.3" font-family="Times,serif" font-size="14.00" fill="white">aws c event stream ✓</text>
</a>
</g>
</g>
</g>
</svg>
