<?xml version="1.0" encoding="UTF-8" standalone="no"?>
<!DOCTYPE svg PUBLIC "-//W3C//DTD SVG 1.1//EN"
 "http://www.w3.org/Graphics/SVG/1.1/DTD/svg11.dtd">
<!-- Generated by graphviz version 2.42.3 (20191010.1750)
 -->
<!-- Title: %3 Pages: 1 -->
<svg width="656pt" height="448pt"
 viewBox="0.00 0.00 656.24 448.00" xmlns="http://www.w3.org/2000/svg" xmlns:xlink="http://www.w3.org/1999/xlink">
<g id="graph0" class="graph" transform="scale(1 1) rotate(0) translate(4 444)">
<title>%3</title>
<polygon fill="white" stroke="transparent" points="-4,4 -4,-444 652.24,-444 652.24,4 -4,4"/>
<!-- autoconf -->
<g id="node1" class="node">
<title>autoconf</title>
<g id="a_node1"><a xlink:href="https://github.com/conda-forge/autoconf-feedstock" xlink:title="autoconf">
<ellipse fill="#fde725" stroke="black" cx="339.05" cy="-278" rx="41.69" ry="18"/>
<text text-anchor="middle" x="339.05" y="-274.3" font-family="Times,serif" font-size="14.00">autoconf</text>
</a>
</g>
</g>
<!-- automake -->
<g id="node2" class="node">
<title>automake</title>
<g id="a_node2"><a xlink:href="https://github.com/conda-forge/automake-feedstock" xlink:title="automake">
<ellipse fill="#fde725" stroke="black" cx="348.05" cy="-206" rx="45.5" ry="18"/>
<text text-anchor="middle" x="348.05" y="-202.3" font-family="Times,serif" font-size="14.00">automake</text>
</a>
</g>
</g>
<!-- autoconf&#45;&gt;automake -->
<g id="edge1" class="edge">
<title>autoconf&#45;&gt;automake</title>
<path fill="none" stroke="black" d="M341.27,-259.7C342.26,-251.98 343.45,-242.71 344.56,-234.11"/>
<polygon fill="black" stroke="black" points="348.04,-234.47 345.85,-224.1 341.1,-233.58 348.04,-234.47"/>
</g>
<!-- constructor -->
<g id="node3" class="node">
<title>constructor</title>
<g id="a_node3"><a xlink:href="https://github.com/conda-forge/constructor-feedstock" xlink:title="constructor">
<ellipse fill="#fde725" stroke="black" cx="565.05" cy="-242" rx="50.09" ry="18"/>
<text text-anchor="middle" x="565.05" y="-238.3" font-family="Times,serif" font-size="14.00">constructor</text>
</a>
</g>
</g>
<!-- freetype -->
<g id="node4" class="node">
<title>freetype</title>
<g id="a_node4"><a xlink:href="https://github.com/conda-forge/freetype-feedstock/pull/38" xlink:title="freetype ✓">
<ellipse fill="#31688e" stroke="black" cx="50.05" cy="-278" rx="50.09" ry="18"/>
<text text-anchor="middle" x="50.05" y="-274.3" font-family="Times,serif" font-size="14.00" fill="white">freetype ✓</text>
</a>
</g>
</g>
<!-- matplotlib -->
<g id="node5" class="node">
<title>matplotlib</title>
<g id="a_node5"><a xlink:href="https://github.com/conda-forge/matplotlib-feedstock" xlink:title="matplotlib">
<ellipse fill="#fde725" stroke="black" cx="123.05" cy="-134" rx="47.5" ry="18"/>
<text text-anchor="middle" x="123.05" y="-130.3" font-family="Times,serif" font-size="14.00">matplotlib</text>
</a>
</g>
</g>
<!-- freetype&#45;&gt;matplotlib -->
<g id="edge2" class="edge">
<title>freetype&#45;&gt;matplotlib</title>
<path fill="none" stroke="black" d="M54.17,-259.89C59.03,-241.43 68.12,-211.51 81.05,-188 86.62,-177.86 94.12,-167.68 101.24,-158.99"/>
<polygon fill="black" stroke="black" points="104.08,-161.05 107.88,-151.16 98.74,-156.52 104.08,-161.05"/>
</g>
<!-- pillow -->
<g id="node6" class="node">
<title>pillow</title>
<g id="a_node6"><a xlink:href="https://github.com/conda-forge/pillow-feedstock" xlink:title="pillow">
<ellipse fill="#fde725" stroke="black" cx="123.05" cy="-206" rx="33.29" ry="18"/>
<text text-anchor="middle" x="123.05" y="-202.3" font-family="Times,serif" font-size="14.00">pillow</text>
</a>
</g>
</g>
<!-- freetype&#45;&gt;pillow -->
<g id="edge3" class="edge">
<title>freetype&#45;&gt;pillow</title>
<path fill="none" stroke="black" d="M66.98,-260.76C76.74,-251.4 89.15,-239.5 99.81,-229.28"/>
<polygon fill="black" stroke="black" points="102.41,-231.64 107.21,-222.19 97.57,-226.58 102.41,-231.64"/>
</g>
<!-- pillow&#45;&gt;matplotlib -->
<g id="edge4" class="edge">
<title>pillow&#45;&gt;matplotlib</title>
<path fill="none" stroke="black" d="M123.05,-187.7C123.05,-179.98 123.05,-170.71 123.05,-162.11"/>
<polygon fill="black" stroke="black" points="126.55,-162.1 123.05,-152.1 119.55,-162.1 126.55,-162.1"/>
</g>
<!-- git -->
<g id="node7" class="node">
<title>git</title>
<g id="a_node7"><a xlink:href="https://github.com/conda-forge/git-feedstock" xlink:title="git">
<ellipse fill="#fde725" stroke="black" cx="447.05" cy="-206" rx="27" ry="18"/>
<text text-anchor="middle" x="447.05" y="-202.3" font-family="Times,serif" font-size="14.00">git</text>
</a>
</g>
</g>
<!-- kiwisolver -->
<g id="node8" class="node">
<title>kiwisolver</title>
<g id="a_node8"><a xlink:href="https://github.com/conda-forge/kiwisolver-feedstock/pull/16" xlink:title="kiwisolver ✓">
<ellipse fill="#31688e" stroke="black" cx="232.05" cy="-206" rx="58" ry="18"/>
<text text-anchor="middle" x="232.05" y="-202.3" font-family="Times,serif" font-size="14.00" fill="white">kiwisolver ✓</text>
</a>
</g>
</g>
<!-- kiwisolver&#45;&gt;matplotlib -->
<g id="edge5" class="edge">
<title>kiwisolver&#45;&gt;matplotlib</title>
<path fill="none" stroke="black" d="M207.85,-189.46C192.15,-179.38 171.53,-166.14 154.55,-155.23"/>
<polygon fill="black" stroke="black" points="156.35,-152.23 146.05,-149.77 152.57,-158.12 156.35,-152.23"/>
</g>
<!-- libtiff -->
<g id="node9" class="node">
<title>libtiff</title>
<g id="a_node9"><a xlink:href="https://github.com/conda-forge/libtiff-feedstock" xlink:title="libtiff">
<ellipse fill="#fde725" stroke="black" cx="195.05" cy="-422" rx="30.59" ry="18"/>
<text text-anchor="middle" x="195.05" y="-418.3" font-family="Times,serif" font-size="14.00">libtiff</text>
</a>
</g>
</g>
<!-- libtiff&#45;&gt;pillow -->
<g id="edge6" class="edge">
<title>libtiff&#45;&gt;pillow</title>
<path fill="none" stroke="black" d="M178.05,-407.04C167.36,-397.27 154.27,-383.26 147.05,-368 126.52,-324.62 122.67,-267.96 122.4,-234.71"/>
<polygon fill="black" stroke="black" points="125.9,-234.4 122.42,-224.39 118.9,-234.38 125.9,-234.4"/>
</g>
<!-- libwebp -->
<g id="node10" class="node">
<title>libwebp</title>
<g id="a_node10"><a xlink:href="https://github.com/conda-forge/libwebp-feedstock" xlink:title="libwebp">
<ellipse fill="#fde725" stroke="black" cx="195.05" cy="-350" rx="39" ry="18"/>
<text text-anchor="middle" x="195.05" y="-346.3" font-family="Times,serif" font-size="14.00">libwebp</text>
</a>
</g>
</g>
<!-- libtiff&#45;&gt;libwebp -->
<g id="edge7" class="edge">
<title>libtiff&#45;&gt;libwebp</title>
<path fill="none" stroke="black" d="M189.17,-404.05C188.35,-396.35 188.11,-387.03 188.44,-378.36"/>
<polygon fill="black" stroke="black" points="191.94,-378.49 189.13,-368.28 184.96,-378.01 191.94,-378.49"/>
</g>
<!-- lcms2 -->
<g id="node11" class="node">
<title>lcms2</title>
<g id="a_node11"><a xlink:href="https://github.com/conda-forge/lcms2-feedstock" xlink:title="lcms2">
<ellipse fill="#fde725" stroke="black" cx="225.05" cy="-278" rx="32.5" ry="18"/>
<text text-anchor="middle" x="225.05" y="-274.3" font-family="Times,serif" font-size="14.00">lcms2</text>
</a>
</g>
</g>
<!-- libtiff&#45;&gt;lcms2 -->
<g id="edge8" class="edge">
<title>libtiff&#45;&gt;lcms2</title>
<path fill="none" stroke="black" d="M213.28,-406.94C224.19,-397.32 237.06,-383.52 243.05,-368 250.94,-347.52 244.92,-323 237.79,-304.88"/>
<polygon fill="black" stroke="black" points="240.95,-303.36 233.8,-295.54 234.51,-306.11 240.95,-303.36"/>
</g>
<!-- libwebp&#45;&gt;libtiff -->
<g id="edge9" class="edge">
<title>libwebp&#45;&gt;libtiff</title>
<path fill="none" stroke="black" d="M200.96,-368.28C201.76,-376.03 201.99,-385.36 201.64,-394.01"/>
<polygon fill="black" stroke="black" points="198.14,-393.83 200.92,-404.05 205.12,-394.33 198.14,-393.83"/>
</g>
<!-- lcms2&#45;&gt;pillow -->
<g id="edge10" class="edge">
<title>lcms2&#45;&gt;pillow</title>
<path fill="none" stroke="black" d="M205.38,-263.5C190.1,-253.02 168.69,-238.32 151.53,-226.55"/>
<polygon fill="black" stroke="black" points="153.23,-223.47 143,-220.69 149.26,-229.24 153.23,-223.47"/>
</g>
<!-- libtool -->
<g id="node12" class="node">
<title>libtool</title>
<g id="a_node12"><a xlink:href="https://github.com/conda-forge/libtool-feedstock" xlink:title="libtool">
<ellipse fill="#000000" stroke="black" cx="145.05" cy="-90" rx="34" ry="18"/>
<text text-anchor="middle" x="145.05" y="-86.3" font-family="Times,serif" font-size="14.00" fill="white">libtool</text>
</a>
</g>
</g>
<!-- pkg&#45;config -->
<g id="node13" class="node">
<title>pkg&#45;config</title>
<g id="a_node13"><a xlink:href="https://github.com/conda-forge/pkg-config-feedstock/pull/35" xlink:title="pkg config ❎">
<ellipse fill="#31688e" stroke="black" cx="145.05" cy="-18" rx="60.5" ry="18"/>
<text text-anchor="middle" x="145.05" y="-14.3" font-family="Times,serif" font-size="14.00" fill="white">pkg config ❎</text>
</a>
</g>
</g>
<!-- libtool&#45;&gt;pkg&#45;config -->
<!-- perl -->
<g id="node14" class="node">
<title>perl</title>
<g id="a_node14"><a xlink:href="https://github.com/conda-forge/perl-feedstock/pull/45" xlink:title="perl ❎">
<ellipse fill="#31688e" stroke="black" cx="409.05" cy="-350" rx="36.5" ry="18"/>
<text text-anchor="middle" x="409.05" y="-346.3" font-family="Times,serif" font-size="14.00" fill="white">perl ❎</text>
</a>
</g>
</g>
<!-- perl&#45;&gt;autoconf -->
<g id="edge12" class="edge">
<title>perl&#45;&gt;autoconf</title>
<path fill="none" stroke="black" d="M393.51,-333.46C384.31,-324.26 372.47,-312.42 362.18,-302.13"/>
<polygon fill="black" stroke="black" points="364.57,-299.57 355.02,-294.98 359.62,-304.52 364.57,-299.57"/>
</g>
<!-- perl&#45;&gt;automake -->
<g id="edge13" class="edge">
<title>perl&#45;&gt;automake</title>
<path fill="none" stroke="black" d="M407.73,-331.86C405.78,-313.37 401.09,-283.44 390.05,-260 385.19,-249.7 377.99,-239.59 370.91,-231.02"/>
<polygon fill="black" stroke="black" points="373.43,-228.58 364.24,-223.3 368.13,-233.16 373.43,-228.58"/>
</g>
<!-- perl&#45;&gt;git -->
<g id="edge14" class="edge">
<title>perl&#45;&gt;git</title>
<path fill="none" stroke="black" d="M413.63,-331.87C420.13,-307.56 432.11,-262.82 439.82,-234.01"/>
<polygon fill="black" stroke="black" points="443.24,-234.75 442.45,-224.19 436.48,-232.94 443.24,-234.75"/>
</g>
<!-- conda&#45;standalone -->
<g id="node15" class="node">
<title>conda&#45;standalone</title>
<g id="a_node15"><a xlink:href="https://github.com/conda-forge/conda-standalone-feedstock/pull/10" xlink:title="conda standalone ❎">
<ellipse fill="#31688e" stroke="black" cx="565.05" cy="-314" rx="83.39" ry="18"/>
<text text-anchor="middle" x="565.05" y="-310.3" font-family="Times,serif" font-size="14.00" fill="white">conda standalone ❎</text>
</a>
</g>
</g>
<!-- conda&#45;standalone&#45;&gt;constructor -->
<g id="edge15" class="edge">
<title>conda&#45;standalone&#45;&gt;constructor</title>
<path fill="none" stroke="black" d="M565.05,-295.7C565.05,-287.98 565.05,-278.71 565.05,-270.11"/>
<polygon fill="black" stroke="black" points="568.55,-270.1 565.05,-260.1 561.55,-270.1 568.55,-270.1"/>
</g>
</g>
</svg>
