<?xml version="1.0" encoding="UTF-8" standalone="no"?>
<!DOCTYPE svg PUBLIC "-//W3C//DTD SVG 1.1//EN"
 "http://www.w3.org/Graphics/SVG/1.1/DTD/svg11.dtd">
<!-- Generated by graphviz version 2.42.3 (20191010.1750)
 -->
<!-- Title: %3 Pages: 1 -->
<svg width="614pt" height="188pt"
 viewBox="0.00 0.00 613.74 188.00" xmlns="http://www.w3.org/2000/svg" xmlns:xlink="http://www.w3.org/1999/xlink">
<g id="graph0" class="graph" transform="scale(1 1) rotate(0) translate(4 184)">
<title>%3</title>
<polygon fill="white" stroke="transparent" points="-4,4 -4,-184 609.74,-184 609.74,4 -4,4"/>
<!-- arrow&#45;cpp -->
<g id="node1" class="node">
<title>arrow&#45;cpp</title>
<g id="a_node1"><a xlink:href="https://github.com/conda-forge/arrow-cpp-feedstock" xlink:title="arrow cpp">
<ellipse fill="#fde725" stroke="black" cx="211.8" cy="-18" rx="46.29" ry="18"/>
<text text-anchor="middle" x="211.8" y="-14.3" font-family="Times,serif" font-size="14.00">arrow cpp</text>
</a>
</g>
</g>
<!-- constructor -->
<g id="node2" class="node">
<title>constructor</title>
<g id="a_node2"><a xlink:href="https://github.com/conda-forge/constructor-feedstock" xlink:title="constructor">
<ellipse fill="#fde725" stroke="black" cx="406.8" cy="-54" rx="50.09" ry="18"/>
<text text-anchor="middle" x="406.8" y="-50.3" font-family="Times,serif" font-size="14.00">constructor</text>
</a>
</g>
</g>
<!-- lapack -->
<g id="node3" class="node">
<title>lapack</title>
<g id="a_node3"><a xlink:href="https://github.com/conda-forge/lapack-feedstock" xlink:title="lapack">
<ellipse fill="#fde725" stroke="black" cx="33.8" cy="-90" rx="33.6" ry="18"/>
<text text-anchor="middle" x="33.8" y="-86.3" font-family="Times,serif" font-size="14.00">lapack</text>
</a>
</g>
</g>
<!-- numpy -->
<g id="node4" class="node">
<title>numpy</title>
<g id="a_node4"><a xlink:href="https://github.com/conda-forge/numpy-feedstock" xlink:title="numpy">
<ellipse fill="#fde725" stroke="black" cx="121.8" cy="-90" rx="36" ry="18"/>
<text text-anchor="middle" x="121.8" y="-86.3" font-family="Times,serif" font-size="14.00">numpy</text>
</a>
</g>
</g>
<!-- numpy&#45;&gt;arrow&#45;cpp -->
<g id="edge1" class="edge">
<title>numpy&#45;&gt;arrow&#45;cpp</title>
<path fill="none" stroke="black" d="M140.45,-74.5C153.01,-64.72 169.81,-51.65 183.96,-40.65"/>
<polygon fill="black" stroke="black" points="186.18,-43.36 191.92,-34.46 181.88,-37.83 186.18,-43.36"/>
</g>
<!-- pandas -->
<g id="node6" class="node">
<title>pandas</title>
<g id="a_node6"><a xlink:href="https://github.com/conda-forge/pandas-feedstock" xlink:title="pandas">
<ellipse fill="#fde725" stroke="black" cx="112.8" cy="-18" rx="35.19" ry="18"/>
<text text-anchor="middle" x="112.8" y="-14.3" font-family="Times,serif" font-size="14.00">pandas</text>
</a>
</g>
</g>
<!-- numpy&#45;&gt;pandas -->
<g id="edge2" class="edge">
<title>numpy&#45;&gt;pandas</title>
<path fill="none" stroke="black" d="M119.57,-71.7C118.58,-63.98 117.39,-54.71 116.28,-46.11"/>
<polygon fill="black" stroke="black" points="119.74,-45.58 115,-36.1 112.8,-46.47 119.74,-45.58"/>
</g>
<!-- openblas -->
<g id="node5" class="node">
<title>openblas</title>
<g id="a_node5"><a xlink:href="https://github.com/conda-forge/openblas-feedstock/pull/105" xlink:title="openblas ❎">
<ellipse fill="#31688e" stroke="black" cx="551.8" cy="-90" rx="53.89" ry="18"/>
<text text-anchor="middle" x="551.8" y="-86.3" font-family="Times,serif" font-size="14.00" fill="white">openblas ❎</text>
</a>
</g>
</g>
<!-- llvmdev -->
<g id="node7" class="node">
<title>llvmdev</title>
<g id="a_node7"><a xlink:href="https://github.com/conda-forge/llvmdev-feedstock/pull/101" xlink:title="llvmdev ❎">
<ellipse fill="#31688e" stroke="black" cx="230.8" cy="-162" rx="51.99" ry="18"/>
<text text-anchor="middle" x="230.8" y="-158.3" font-family="Times,serif" font-size="14.00" fill="white">llvmdev ❎</text>
</a>
</g>
</g>
<!-- llvmdev&#45;&gt;arrow&#45;cpp -->
<g id="edge3" class="edge">
<title>llvmdev&#45;&gt;arrow&#45;cpp</title>
<path fill="none" stroke="black" d="M227.63,-143.85C225.79,-133.49 223.49,-120.01 221.8,-108 218.89,-87.34 216.28,-63.9 214.46,-46.25"/>
<polygon fill="black" stroke="black" points="217.92,-45.69 213.43,-36.1 210.95,-46.4 217.92,-45.69"/>
</g>
<!-- clangdev -->
<g id="node8" class="node">
<title>clangdev</title>
<g id="a_node8"><a xlink:href="https://github.com/conda-forge/clangdev-feedstock" xlink:title="clangdev">
<ellipse fill="#fde725" stroke="black" cx="272.8" cy="-90" rx="42.49" ry="18"/>
<text text-anchor="middle" x="272.8" y="-86.3" font-family="Times,serif" font-size="14.00">clangdev</text>
</a>
</g>
</g>
<!-- llvmdev&#45;&gt;clangdev -->
<g id="edge4" class="edge">
<title>llvmdev&#45;&gt;clangdev</title>
<path fill="none" stroke="black" d="M240.96,-144.05C245.92,-135.8 251.98,-125.7 257.47,-116.54"/>
<polygon fill="black" stroke="black" points="260.58,-118.16 262.72,-107.79 254.58,-114.56 260.58,-118.16"/>
</g>
<!-- clangdev&#45;&gt;arrow&#45;cpp -->
<g id="edge5" class="edge">
<title>clangdev&#45;&gt;arrow&#45;cpp</title>
<path fill="none" stroke="black" d="M258.65,-72.76C250.87,-63.84 241.08,-52.61 232.47,-42.72"/>
<polygon fill="black" stroke="black" points="235.08,-40.39 225.87,-35.15 229.8,-44.99 235.08,-40.39"/>
</g>
<!-- blas -->
<g id="node9" class="node">
<title>blas</title>
<g id="a_node9"><a xlink:href="https://github.com/conda-forge/blas-feedstock/pull/47" xlink:title="blas ❎">
<ellipse fill="#31688e" stroke="black" cx="93.8" cy="-162" rx="36.29" ry="18"/>
<text text-anchor="middle" x="93.8" y="-158.3" font-family="Times,serif" font-size="14.00" fill="white">blas ❎</text>
</a>
</g>
</g>
<!-- blas&#45;&gt;lapack -->
<g id="edge6" class="edge">
<title>blas&#45;&gt;lapack</title>
<path fill="none" stroke="black" d="M80.18,-145.12C72.43,-136.08 62.58,-124.58 53.95,-114.52"/>
<polygon fill="black" stroke="black" points="56.52,-112.14 47.36,-106.82 51.21,-116.69 56.52,-112.14"/>
</g>
<!-- blas&#45;&gt;numpy -->
<g id="edge7" class="edge">
<title>blas&#45;&gt;numpy</title>
<path fill="none" stroke="black" d="M100.58,-144.05C103.81,-135.97 107.75,-126.12 111.35,-117.11"/>
<polygon fill="black" stroke="black" points="114.62,-118.37 115.08,-107.79 108.12,-115.77 114.62,-118.37"/>
</g>
<!-- conda&#45;standalone -->
<g id="node10" class="node">
<title>conda&#45;standalone</title>
<g id="a_node10"><a xlink:href="https://github.com/conda-forge/conda-standalone-feedstock/pull/10" xlink:title="conda standalone ❎">
<ellipse fill="#31688e" stroke="black" cx="406.8" cy="-126" rx="83.39" ry="18"/>
<text text-anchor="middle" x="406.8" y="-122.3" font-family="Times,serif" font-size="14.00" fill="white">conda standalone ❎</text>
</a>
</g>
</g>
<!-- conda&#45;standalone&#45;&gt;constructor -->
<g id="edge8" class="edge">
<title>conda&#45;standalone&#45;&gt;constructor</title>
<path fill="none" stroke="black" d="M406.8,-107.7C406.8,-99.98 406.8,-90.71 406.8,-82.11"/>
<polygon fill="black" stroke="black" points="410.3,-82.1 406.8,-72.1 403.3,-82.1 410.3,-82.1"/>
</g>
</g>
</svg>
