<?xml version="1.0" encoding="UTF-8" standalone="no"?>
<!DOCTYPE svg PUBLIC "-//W3C//DTD SVG 1.1//EN"
 "http://www.w3.org/Graphics/SVG/1.1/DTD/svg11.dtd">
<!-- Generated by graphviz version 2.42.3 (20191010.1750)
 -->
<!-- Title: %3 Pages: 1 -->
<svg width="1723pt" height="404pt"
 viewBox="0.00 0.00 1722.54 404.00" xmlns="http://www.w3.org/2000/svg" xmlns:xlink="http://www.w3.org/1999/xlink">
<g id="graph0" class="graph" transform="scale(1 1) rotate(0) translate(4 400)">
<title>%3</title>
<polygon fill="white" stroke="transparent" points="-4,4 -4,-400 1718.54,-400 1718.54,4 -4,4"/>
<!-- arrow&#45;cpp -->
<g id="node1" class="node">
<title>arrow&#45;cpp</title>
<g id="a_node1"><a xlink:href="https://github.com/conda-forge/arrow-cpp-feedstock" xlink:title="arrow cpp">
<ellipse fill="#fde725" stroke="black" cx="1354.5" cy="-90" rx="46.29" ry="18"/>
<text text-anchor="middle" x="1354.5" y="-86.3" font-family="Times,serif" font-size="14.00">arrow cpp</text>
</a>
</g>
</g>
<!-- brotlipy -->
<g id="node2" class="node">
<title>brotlipy</title>
<g id="a_node2"><a xlink:href="https://github.com/conda-forge/brotlipy-feedstock/pull/10" xlink:title="brotlipy ❎">
<ellipse fill="#31688e" stroke="black" cx="402.5" cy="-234" rx="50.09" ry="18"/>
<text text-anchor="middle" x="402.5" y="-230.3" font-family="Times,serif" font-size="14.00" fill="white">brotlipy ❎</text>
</a>
</g>
</g>
<!-- conda -->
<g id="node3" class="node">
<title>conda</title>
<g id="a_node3"><a xlink:href="https://github.com/conda-forge/conda-feedstock" xlink:title="conda">
<ellipse fill="#fde725" stroke="black" cx="651.5" cy="-162" rx="32" ry="18"/>
<text text-anchor="middle" x="651.5" y="-158.3" font-family="Times,serif" font-size="14.00">conda</text>
</a>
</g>
</g>
<!-- brotlipy&#45;&gt;conda -->
<g id="edge1" class="edge">
<title>brotlipy&#45;&gt;conda</title>
<path fill="none" stroke="black" d="M440.26,-222.07C447.31,-220.04 454.63,-217.95 461.5,-216 514.28,-201.04 575.4,-184.05 613.76,-173.43"/>
<polygon fill="black" stroke="black" points="614.77,-176.78 623.47,-170.74 612.9,-170.03 614.77,-176.78"/>
</g>
<!-- conda&#45;build -->
<g id="node4" class="node">
<title>conda&#45;build</title>
<g id="a_node4"><a xlink:href="https://github.com/conda-forge/conda-build-feedstock" xlink:title="conda build">
<ellipse fill="#fde725" stroke="black" cx="363.5" cy="-90" rx="52" ry="18"/>
<text text-anchor="middle" x="363.5" y="-86.3" font-family="Times,serif" font-size="14.00">conda build</text>
</a>
</g>
</g>
<!-- brotlipy&#45;&gt;conda&#45;build -->
<g id="edge2" class="edge">
<title>brotlipy&#45;&gt;conda&#45;build</title>
<path fill="none" stroke="black" d="M397.8,-215.87C391.12,-191.56 378.83,-146.82 370.92,-118.01"/>
<polygon fill="black" stroke="black" points="374.24,-116.91 368.22,-108.19 367.49,-118.76 374.24,-116.91"/>
</g>
<!-- conda&#45;&gt;conda&#45;build -->
<g id="edge3" class="edge">
<title>conda&#45;&gt;conda&#45;build</title>
<path fill="none" stroke="black" d="M622.83,-153.64C610.97,-150.62 597.08,-147.11 584.5,-144 526.63,-129.72 460.1,-113.84 415.28,-103.21"/>
<polygon fill="black" stroke="black" points="416.03,-99.8 405.5,-100.9 414.42,-106.61 416.03,-99.8"/>
</g>
<!-- constructor -->
<g id="node5" class="node">
<title>constructor</title>
<g id="a_node5"><a xlink:href="https://github.com/conda-forge/constructor-feedstock" xlink:title="constructor">
<ellipse fill="#fde725" stroke="black" cx="751.5" cy="-18" rx="50.09" ry="18"/>
<text text-anchor="middle" x="751.5" y="-14.3" font-family="Times,serif" font-size="14.00">constructor</text>
</a>
</g>
</g>
<!-- conda&#45;&gt;constructor -->
<g id="edge4" class="edge">
<title>conda&#45;&gt;constructor</title>
<path fill="none" stroke="black" d="M651.65,-143.76C652.6,-124.64 656.58,-93.65 671.5,-72 681.52,-57.46 696.96,-45.87 711.61,-37.29"/>
<polygon fill="black" stroke="black" points="713.52,-40.23 720.58,-32.33 710.13,-34.11 713.52,-40.23"/>
</g>
<!-- conda&#45;standalone -->
<g id="node6" class="node">
<title>conda&#45;standalone</title>
<g id="a_node6"><a xlink:href="https://github.com/conda-forge/conda-standalone-feedstock" xlink:title="conda standalone">
<ellipse fill="#fde725" stroke="black" cx="751.5" cy="-90" rx="71.5" ry="18"/>
<text text-anchor="middle" x="751.5" y="-86.3" font-family="Times,serif" font-size="14.00">conda standalone</text>
</a>
</g>
</g>
<!-- conda&#45;&gt;conda&#45;standalone -->
<g id="edge5" class="edge">
<title>conda&#45;&gt;conda&#45;standalone</title>
<path fill="none" stroke="black" d="M670.78,-147.5C684.67,-137.78 703.72,-124.45 719.82,-113.17"/>
<polygon fill="black" stroke="black" points="722.23,-115.76 728.42,-107.16 718.22,-110.03 722.23,-115.76"/>
</g>
<!-- conda&#45;standalone&#45;&gt;constructor -->
<g id="edge7" class="edge">
<title>conda&#45;standalone&#45;&gt;constructor</title>
<path fill="none" stroke="black" d="M751.5,-71.7C751.5,-63.98 751.5,-54.71 751.5,-46.11"/>
<polygon fill="black" stroke="black" points="755,-46.1 751.5,-36.1 748,-46.1 755,-46.1"/>
</g>
<!-- cffi -->
<g id="node7" class="node">
<title>cffi</title>
<g id="a_node7"><a xlink:href="https://github.com/conda-forge/cffi-feedstock/pull/27" xlink:title="cffi ❎">
<ellipse fill="#31688e" stroke="black" cx="1625.5" cy="-234" rx="34.5" ry="18"/>
<text text-anchor="middle" x="1625.5" y="-230.3" font-family="Times,serif" font-size="14.00" fill="white">cffi ❎</text>
</a>
</g>
</g>
<!-- aws&#45;c&#45;event&#45;stream -->
<g id="node8" class="node">
<title>aws&#45;c&#45;event&#45;stream</title>
<g id="a_node8"><a xlink:href="https://github.com/conda-forge/aws-c-event-stream-feedstock/pull/3" xlink:title="aws c event stream ✓">
<ellipse fill="#31688e" stroke="black" cx="1625.5" cy="-162" rx="89.08" ry="18"/>
<text text-anchor="middle" x="1625.5" y="-158.3" font-family="Times,serif" font-size="14.00" fill="white">aws c event stream ✓</text>
</a>
</g>
</g>
<!-- cffi&#45;&gt;aws&#45;c&#45;event&#45;stream -->
<!-- numpy -->
<g id="node9" class="node">
<title>numpy</title>
<g id="a_node9"><a xlink:href="https://github.com/conda-forge/numpy-feedstock" xlink:title="numpy">
<ellipse fill="#fde725" stroke="black" cx="1162.5" cy="-162" rx="36" ry="18"/>
<text text-anchor="middle" x="1162.5" y="-158.3" font-family="Times,serif" font-size="14.00">numpy</text>
</a>
</g>
</g>
<!-- numpy&#45;&gt;arrow&#45;cpp -->
<g id="edge8" class="edge">
<title>numpy&#45;&gt;arrow&#45;cpp</title>
<path fill="none" stroke="black" d="M1190.08,-150.5C1195.83,-148.34 1201.86,-146.08 1207.5,-144 1242.6,-131.04 1282.54,-116.67 1311.92,-106.16"/>
<polygon fill="black" stroke="black" points="1313.22,-109.41 1321.46,-102.75 1310.87,-102.82 1313.22,-109.41"/>
</g>
<!-- pandas -->
<g id="node10" class="node">
<title>pandas</title>
<g id="a_node10"><a xlink:href="https://github.com/conda-forge/pandas-feedstock" xlink:title="pandas">
<ellipse fill="#fde725" stroke="black" cx="1162.5" cy="-90" rx="35.19" ry="18"/>
<text text-anchor="middle" x="1162.5" y="-86.3" font-family="Times,serif" font-size="14.00">pandas</text>
</a>
</g>
</g>
<!-- numpy&#45;&gt;pandas -->
<g id="edge9" class="edge">
<title>numpy&#45;&gt;pandas</title>
<path fill="none" stroke="black" d="M1162.5,-143.7C1162.5,-135.98 1162.5,-126.71 1162.5,-118.11"/>
<polygon fill="black" stroke="black" points="1166,-118.1 1162.5,-108.1 1159,-118.1 1166,-118.1"/>
</g>
<!-- pycrypto -->
<g id="node11" class="node">
<title>pycrypto</title>
<g id="a_node11"><a xlink:href="https://github.com/conda-forge/pycrypto-feedstock/pull/18" xlink:title="pycrypto ❎">
<ellipse fill="#31688e" stroke="black" cx="1064.5" cy="-234" rx="54" ry="18"/>
<text text-anchor="middle" x="1064.5" y="-230.3" font-family="Times,serif" font-size="14.00" fill="white">pycrypto ❎</text>
</a>
</g>
</g>
<!-- pyinstaller -->
<g id="node12" class="node">
<title>pyinstaller</title>
<g id="a_node12"><a xlink:href="https://github.com/conda-forge/pyinstaller-feedstock" xlink:title="pyinstaller">
<ellipse fill="#fde725" stroke="black" cx="982.5" cy="-162" rx="48.19" ry="18"/>
<text text-anchor="middle" x="982.5" y="-158.3" font-family="Times,serif" font-size="14.00">pyinstaller</text>
</a>
</g>
</g>
<!-- pycrypto&#45;&gt;pyinstaller -->
<g id="edge10" class="edge">
<title>pycrypto&#45;&gt;pyinstaller</title>
<path fill="none" stroke="black" d="M1045.48,-216.76C1034.56,-207.45 1020.69,-195.61 1008.75,-185.41"/>
<polygon fill="black" stroke="black" points="1010.73,-182.5 1000.85,-178.67 1006.18,-187.82 1010.73,-182.5"/>
</g>
<!-- pyinstaller&#45;&gt;conda&#45;standalone -->
<g id="edge11" class="edge">
<title>pyinstaller&#45;&gt;conda&#45;standalone</title>
<path fill="none" stroke="black" d="M946.41,-150.06C908.5,-138.58 848.48,-120.39 805.05,-107.23"/>
<polygon fill="black" stroke="black" points="805.81,-103.8 795.22,-104.25 803.78,-110.5 805.81,-103.8"/>
</g>
<!-- python&#45;libarchive&#45;c -->
<g id="node13" class="node">
<title>python&#45;libarchive&#45;c</title>
<g id="a_node13"><a xlink:href="https://github.com/conda-forge/python-libarchive-c-feedstock/pull/18" xlink:title="python libarchive c ✓">
<ellipse fill="#31688e" stroke="black" cx="217.5" cy="-162" rx="89.08" ry="18"/>
<text text-anchor="middle" x="217.5" y="-158.3" font-family="Times,serif" font-size="14.00" fill="white">python libarchive c ✓</text>
</a>
</g>
</g>
<!-- python&#45;libarchive&#45;c&#45;&gt;conda&#45;build -->
<g id="edge12" class="edge">
<title>python&#45;libarchive&#45;c&#45;&gt;conda&#45;build</title>
<path fill="none" stroke="black" d="M250.63,-145.12C272.67,-134.55 301.69,-120.63 324.79,-109.56"/>
<polygon fill="black" stroke="black" points="326.46,-112.64 333.97,-105.16 323.44,-106.33 326.46,-112.64"/>
</g>
<!-- pyyaml -->
<g id="node14" class="node">
<title>pyyaml</title>
<g id="a_node14"><a xlink:href="https://github.com/conda-forge/pyyaml-feedstock" xlink:title="pyyaml">
<ellipse fill="#35b779" stroke="black" cx="100.5" cy="-234" rx="37.89" ry="18"/>
<text text-anchor="middle" x="100.5" y="-230.3" font-family="Times,serif" font-size="14.00">pyyaml</text>
</a>
</g>
</g>
<!-- pyyaml&#45;&gt;conda&#45;build -->
<g id="edge13" class="edge">
<title>pyyaml&#45;&gt;conda&#45;build</title>
<path fill="none" stroke="black" d="M99.06,-215.7C98.41,-195.64 100.65,-162.91 119.5,-144 144.86,-118.55 239.69,-103.84 303.39,-96.63"/>
<polygon fill="black" stroke="black" points="304.16,-100.06 313.72,-95.49 303.39,-93.1 304.16,-100.06"/>
</g>
<!-- ruamel_yaml -->
<g id="node15" class="node">
<title>ruamel_yaml</title>
<g id="a_node15"><a xlink:href="https://github.com/conda-forge/ruamel_yaml-feedstock" xlink:title="ruamel_yaml">
<ellipse fill="#35b779" stroke="black" cx="896.5" cy="-234" rx="58" ry="18"/>
<text text-anchor="middle" x="896.5" y="-230.3" font-family="Times,serif" font-size="14.00">ruamel_yaml</text>
</a>
</g>
</g>
<!-- ruamel_yaml&#45;&gt;conda -->
<g id="edge14" class="edge">
<title>ruamel_yaml&#45;&gt;conda</title>
<path fill="none" stroke="black" d="M855.22,-221.2C808.81,-207.95 734.11,-186.6 689.22,-173.78"/>
<polygon fill="black" stroke="black" points="690.15,-170.4 679.57,-171.02 688.23,-177.13 690.15,-170.4"/>
</g>
<!-- ruamel_yaml&#45;&gt;constructor -->
<g id="edge15" class="edge">
<title>ruamel_yaml&#45;&gt;constructor</title>
<path fill="none" stroke="black" d="M893.25,-215.74C886.58,-184.22 868.84,-116.5 832.5,-72 821.06,-57.99 804.91,-46.39 790.05,-37.65"/>
<polygon fill="black" stroke="black" points="791.44,-34.42 781.01,-32.58 788.02,-40.53 791.44,-34.42"/>
</g>
<!-- waf -->
<g id="node16" class="node">
<title>waf</title>
<g id="a_node16"><a xlink:href="https://github.com/conda-forge/waf-feedstock/pull/21" xlink:title="waf ❎">
<ellipse fill="#31688e" stroke="black" cx="982.5" cy="-306" rx="36" ry="18"/>
<text text-anchor="middle" x="982.5" y="-302.3" font-family="Times,serif" font-size="14.00" fill="white">waf ❎</text>
</a>
</g>
</g>
<!-- waf&#45;&gt;pyinstaller -->
<g id="edge16" class="edge">
<title>waf&#45;&gt;pyinstaller</title>
<path fill="none" stroke="black" d="M982.5,-287.87C982.5,-263.67 982.5,-219.21 982.5,-190.39"/>
<polygon fill="black" stroke="black" points="986,-190.19 982.5,-180.19 979,-190.19 986,-190.19"/>
</g>
<!-- thrift&#45;cpp -->
<g id="node17" class="node">
<title>thrift&#45;cpp</title>
<g id="a_node17"><a xlink:href="https://github.com/conda-forge/thrift-cpp-feedstock/pull/49" xlink:title="thrift cpp ❎">
<ellipse fill="#31688e" stroke="black" cx="1271.5" cy="-162" rx="55.49" ry="18"/>
<text text-anchor="middle" x="1271.5" y="-158.3" font-family="Times,serif" font-size="14.00" fill="white">thrift cpp ❎</text>
</a>
</g>
</g>
<!-- thrift&#45;cpp&#45;&gt;arrow&#45;cpp -->
<g id="edge17" class="edge">
<title>thrift&#45;cpp&#45;&gt;arrow&#45;cpp</title>
<path fill="none" stroke="black" d="M1290.75,-144.76C1301.91,-135.36 1316.11,-123.38 1328.28,-113.12"/>
<polygon fill="black" stroke="black" points="1330.54,-115.79 1335.92,-106.67 1326.02,-110.44 1330.54,-115.79"/>
</g>
<!-- llvmdev -->
<g id="node18" class="node">
<title>llvmdev</title>
<g id="a_node18"><a xlink:href="https://github.com/conda-forge/llvmdev-feedstock/pull/101" xlink:title="llvmdev ❎">
<ellipse fill="#31688e" stroke="black" cx="1372.5" cy="-234" rx="52" ry="18"/>
<text text-anchor="middle" x="1372.5" y="-230.3" font-family="Times,serif" font-size="14.00" fill="white">llvmdev ❎</text>
</a>
</g>
</g>
<!-- llvmdev&#45;&gt;arrow&#45;cpp -->
<g id="edge18" class="edge">
<title>llvmdev&#45;&gt;arrow&#45;cpp</title>
<path fill="none" stroke="black" d="M1370.33,-215.87C1367.26,-191.67 1361.63,-147.21 1357.97,-118.39"/>
<polygon fill="black" stroke="black" points="1361.41,-117.67 1356.68,-108.19 1354.46,-118.55 1361.41,-117.67"/>
</g>
<!-- clangdev -->
<g id="node19" class="node">
<title>clangdev</title>
<g id="a_node19"><a xlink:href="https://github.com/conda-forge/clangdev-feedstock" xlink:title="clangdev">
<ellipse fill="#fde725" stroke="black" cx="1424.5" cy="-162" rx="42.49" ry="18"/>
<text text-anchor="middle" x="1424.5" y="-158.3" font-family="Times,serif" font-size="14.00">clangdev</text>
</a>
</g>
</g>
<!-- llvmdev&#45;&gt;clangdev -->
<g id="edge19" class="edge">
<title>llvmdev&#45;&gt;clangdev</title>
<path fill="none" stroke="black" d="M1384.82,-216.41C1391.17,-207.87 1399.04,-197.28 1406.09,-187.79"/>
<polygon fill="black" stroke="black" points="1409.11,-189.58 1412.27,-179.47 1403.49,-185.41 1409.11,-189.58"/>
</g>
<!-- clangdev&#45;&gt;arrow&#45;cpp -->
<g id="edge20" class="edge">
<title>clangdev&#45;&gt;arrow&#45;cpp</title>
<path fill="none" stroke="black" d="M1408.62,-145.12C1399.62,-136.12 1388.18,-124.68 1378.15,-114.65"/>
<polygon fill="black" stroke="black" points="1380.35,-111.9 1370.81,-107.31 1375.4,-116.85 1380.35,-111.9"/>
</g>
<!-- cryptography -->
<g id="node20" class="node">
<title>cryptography</title>
<g id="a_node20"><a xlink:href="https://github.com/conda-forge/cryptography-feedstock/pull/42" xlink:title="cryptography ❎">
<ellipse fill="#31688e" stroke="black" cx="540.5" cy="-234" rx="69.59" ry="18"/>
<text text-anchor="middle" x="540.5" y="-230.3" font-family="Times,serif" font-size="14.00" fill="white">cryptography ❎</text>
</a>
</g>
</g>
<!-- cryptography&#45;&gt;conda -->
<g id="edge21" class="edge">
<title>cryptography&#45;&gt;conda</title>
<path fill="none" stroke="black" d="M565.69,-217.12C582.46,-206.54 604.57,-192.59 622.15,-181.51"/>
<polygon fill="black" stroke="black" points="624.28,-184.3 630.87,-176.01 620.54,-178.38 624.28,-184.3"/>
</g>
<!-- cryptography&#45;&gt;conda&#45;build -->
<g id="edge22" class="edge">
<title>cryptography&#45;&gt;conda&#45;build</title>
<path fill="none" stroke="black" d="M520.2,-216.71C488.5,-191.28 427.2,-142.11 391.39,-113.38"/>
<polygon fill="black" stroke="black" points="393.29,-110.41 383.3,-106.88 388.91,-115.87 393.29,-110.41"/>
</g>
<!-- blas -->
<g id="node21" class="node">
<title>blas</title>
<g id="a_node21"><a xlink:href="https://github.com/conda-forge/blas-feedstock" xlink:title="blas">
<ellipse fill="#fde725" stroke="black" cx="1162.5" cy="-234" rx="27" ry="18"/>
<text text-anchor="middle" x="1162.5" y="-230.3" font-family="Times,serif" font-size="14.00">blas</text>
</a>
</g>
</g>
<!-- blas&#45;&gt;numpy -->
<g id="edge23" class="edge">
<title>blas&#45;&gt;numpy</title>
<path fill="none" stroke="black" d="M1162.5,-215.7C1162.5,-207.98 1162.5,-198.71 1162.5,-190.11"/>
<polygon fill="black" stroke="black" points="1166,-190.1 1162.5,-180.1 1159,-190.1 1166,-190.1"/>
</g>
<!-- blis -->
<g id="node22" class="node">
<title>blis</title>
<g id="a_node22"><a xlink:href="https://github.com/conda-forge/blis-feedstock/pull/18" xlink:title="blis ❎">
<ellipse fill="#31688e" stroke="black" cx="1162.5" cy="-306" rx="35.19" ry="18"/>
<text text-anchor="middle" x="1162.5" y="-302.3" font-family="Times,serif" font-size="14.00" fill="white">blis ❎</text>
</a>
</g>
</g>
<!-- blis&#45;&gt;blas -->
<g id="edge24" class="edge">
<title>blis&#45;&gt;blas</title>
<path fill="none" stroke="black" d="M1162.5,-287.7C1162.5,-279.98 1162.5,-270.71 1162.5,-262.11"/>
<polygon fill="black" stroke="black" points="1166,-262.1 1162.5,-252.1 1159,-262.1 1166,-262.1"/>
</g>
<!-- lief -->
<g id="node23" class="node">
<title>lief</title>
<g id="a_node23"><a xlink:href="https://github.com/conda-forge/lief-feedstock/pull/13" xlink:title="lief ❎">
<ellipse fill="#31688e" stroke="black" cx="34.5" cy="-306" rx="34.5" ry="18"/>
<text text-anchor="middle" x="34.5" y="-302.3" font-family="Times,serif" font-size="14.00" fill="white">lief ❎</text>
</a>
</g>
</g>
<!-- lief&#45;&gt;conda&#45;build -->
<g id="edge25" class="edge">
<title>lief&#45;&gt;conda&#45;build</title>
<path fill="none" stroke="black" d="M35.43,-287.88C38.31,-253.7 50.13,-177.44 98.5,-144 131.22,-121.38 236.84,-105.48 304.44,-97.31"/>
<polygon fill="black" stroke="black" points="305.02,-100.77 314.54,-96.12 304.19,-93.82 305.02,-100.77"/>
</g>
<!-- orc -->
<g id="node24" class="node">
<title>orc</title>
<g id="a_node24"><a xlink:href="https://github.com/conda-forge/orc-feedstock/pull/20" xlink:title="orc ❎">
<ellipse fill="#31688e" stroke="black" cx="1494.5" cy="-234" rx="34" ry="18"/>
<text text-anchor="middle" x="1494.5" y="-230.3" font-family="Times,serif" font-size="14.00" fill="white">orc ❎</text>
</a>
</g>
</g>
<!-- orc&#45;&gt;arrow&#45;cpp -->
<g id="edge26" class="edge">
<title>orc&#45;&gt;arrow&#45;cpp</title>
<path fill="none" stroke="black" d="M1495.25,-215.97C1495.22,-196.47 1492.28,-164.57 1475.5,-144 1457.84,-122.35 1429.59,-109.3 1404.82,-101.57"/>
<polygon fill="black" stroke="black" points="1405.75,-98.2 1395.18,-98.77 1403.8,-104.92 1405.75,-98.2"/>
</g>
<!-- conda&#45;package&#45;handling -->
<g id="node25" class="node">
<title>conda&#45;package&#45;handling</title>
<g id="a_node25"><a xlink:href="https://github.com/conda-forge/conda-package-handling-feedstock" xlink:title="conda package handling">
<ellipse fill="#fde725" stroke="black" cx="724.5" cy="-234" rx="96.38" ry="18"/>
<text text-anchor="middle" x="724.5" y="-230.3" font-family="Times,serif" font-size="14.00">conda package handling</text>
</a>
</g>
</g>
<!-- conda&#45;package&#45;handling&#45;&gt;conda -->
<g id="edge27" class="edge">
<title>conda&#45;package&#45;handling&#45;&gt;conda</title>
<path fill="none" stroke="black" d="M706.83,-216.05C697.05,-206.68 684.79,-194.92 674.29,-184.86"/>
<polygon fill="black" stroke="black" points="676.67,-182.28 667.03,-177.89 671.82,-187.34 676.67,-182.28"/>
</g>
<!-- conda&#45;package&#45;handling&#45;&gt;conda&#45;build -->
<g id="edge28" class="edge">
<title>conda&#45;package&#45;handling&#45;&gt;conda&#45;build</title>
<path fill="none" stroke="black" d="M685.18,-217.53C616.76,-190.62 476.4,-135.41 405.89,-107.68"/>
<polygon fill="black" stroke="black" points="407.01,-104.35 396.42,-103.95 404.45,-110.87 407.01,-104.35"/>
</g>
<!-- conda&#45;package&#45;handling&#45;&gt;conda&#45;standalone -->
<g id="edge29" class="edge">
<title>conda&#45;package&#45;handling&#45;&gt;conda&#45;standalone</title>
<path fill="none" stroke="black" d="M727.76,-215.87C732.36,-191.67 740.81,-147.21 746.29,-118.39"/>
<polygon fill="black" stroke="black" points="749.8,-118.67 748.23,-108.19 742.93,-117.36 749.8,-118.67"/>
</g>
<!-- ripgrep -->
<g id="node26" class="node">
<title>ripgrep</title>
<g id="a_node26"><a xlink:href="https://github.com/conda-forge/ripgrep-feedstock/pull/15" xlink:title="ripgrep ❎">
<ellipse fill="#31688e" stroke="black" cx="324.5" cy="-378" rx="48.19" ry="18"/>
<text text-anchor="middle" x="324.5" y="-374.3" font-family="Times,serif" font-size="14.00" fill="white">ripgrep ❎</text>
</a>
</g>
</g>
<!-- ripgrep&#45;&gt;conda&#45;build -->
<g id="edge30" class="edge">
<title>ripgrep&#45;&gt;conda&#45;build</title>
<path fill="none" stroke="black" d="M326.32,-359.58C329.46,-330.01 336.26,-268.13 343.5,-216 348.18,-182.29 354.52,-143.61 358.8,-118.32"/>
<polygon fill="black" stroke="black" points="362.26,-118.8 360.49,-108.36 355.36,-117.63 362.26,-118.8"/>
</g>
<!-- _libarchive_static_for_cph -->
<g id="node27" class="node">
<title>_libarchive_static_for_cph</title>
<g id="a_node27"><a xlink:href="https://github.com/conda-forge/_libarchive_static_for_cph-feedstock/pull/15" xlink:title="_libarchive_static_for_cph ✓">
<ellipse fill="#31688e" stroke="black" cx="724.5" cy="-306" rx="115.08" ry="18"/>
<text text-anchor="middle" x="724.5" y="-302.3" font-family="Times,serif" font-size="14.00" fill="white">_libarchive_static_for_cph ✓</text>
</a>
</g>
</g>
<!-- _libarchive_static_for_cph&#45;&gt;conda&#45;package&#45;handling -->
<g id="edge31" class="edge">
<title>_libarchive_static_for_cph&#45;&gt;conda&#45;package&#45;handling</title>
<path fill="none" stroke="black" d="M724.5,-287.7C724.5,-279.98 724.5,-270.71 724.5,-262.11"/>
<polygon fill="black" stroke="black" points="728,-262.1 724.5,-252.1 721,-262.1 728,-262.1"/>
</g>
</g>
</svg>
