<?xml version="1.0" encoding="UTF-8" standalone="no"?>
<!DOCTYPE svg PUBLIC "-//W3C//DTD SVG 1.1//EN"
 "http://www.w3.org/Graphics/SVG/1.1/DTD/svg11.dtd">
<!-- Generated by graphviz version 2.42.3 (20191010.1750)
 -->
<!-- Title: %3 Pages: 1 -->
<svg width="1000pt" height="492pt"
 viewBox="0.00 0.00 999.89 492.00" xmlns="http://www.w3.org/2000/svg" xmlns:xlink="http://www.w3.org/1999/xlink">
<g id="graph0" class="graph" transform="scale(1 1) rotate(0) translate(4 488)">
<title>%3</title>
<polygon fill="white" stroke="transparent" points="-4,4 -4,-488 995.89,-488 995.89,4 -4,4"/>
<!-- argon2_cffi -->
<g id="node1" class="node">
<title>argon2_cffi</title>
<g id="a_node1"><a xlink:href="https://github.com/conda-forge/argon2_cffi-feedstock/pull/26" xlink:title="argon2_cffi ❎">
<ellipse fill="#31688e" stroke="black" cx="63.69" cy="-250" rx="63.89" ry="18"/>
<text text-anchor="middle" x="63.69" y="-246.3" font-family="Times,serif" font-size="14.00" fill="white">argon2_cffi ❎</text>
</a>
</g>
</g>
<!-- notebook -->
<g id="node2" class="node">
<title>notebook</title>
<g id="a_node2"><a xlink:href="https://github.com/conda-forge/notebook-feedstock" xlink:title="notebook">
<ellipse fill="#fde725" stroke="black" cx="227.69" cy="-178" rx="43.59" ry="18"/>
<text text-anchor="middle" x="227.69" y="-174.3" font-family="Times,serif" font-size="14.00">notebook</text>
</a>
</g>
</g>
<!-- argon2_cffi&#45;&gt;notebook -->
<g id="edge1" class="edge">
<title>argon2_cffi&#45;&gt;notebook</title>
<path fill="none" stroke="black" d="M97.28,-234.67C123.94,-223.29 161.23,-207.37 189.11,-195.47"/>
<polygon fill="black" stroke="black" points="190.72,-198.59 198.55,-191.44 187.98,-192.15 190.72,-198.59"/>
</g>
<!-- astropy -->
<g id="node3" class="node">
<title>astropy</title>
<g id="a_node3"><a xlink:href="https://github.com/conda-forge/astropy-feedstock/pull/82" xlink:title="astropy ❎">
<ellipse fill="#31688e" stroke="black" cx="677.69" cy="-134" rx="48.19" ry="18"/>
<text text-anchor="middle" x="677.69" y="-130.3" font-family="Times,serif" font-size="14.00" fill="white">astropy ❎</text>
</a>
</g>
</g>
<!-- healpy -->
<g id="node4" class="node">
<title>healpy</title>
<g id="a_node4"><a xlink:href="https://github.com/conda-forge/healpy-feedstock" xlink:title="healpy">
<ellipse fill="#fde725" stroke="black" cx="677.69" cy="-62" rx="34.5" ry="18"/>
<text text-anchor="middle" x="677.69" y="-58.3" font-family="Times,serif" font-size="14.00">healpy</text>
</a>
</g>
</g>
<!-- astropy&#45;&gt;healpy -->
<g id="edge2" class="edge">
<title>astropy&#45;&gt;healpy</title>
<path fill="none" stroke="black" d="M677.69,-115.7C677.69,-107.98 677.69,-98.71 677.69,-90.11"/>
<polygon fill="black" stroke="black" points="681.19,-90.1 677.69,-80.1 674.19,-90.1 681.19,-90.1"/>
</g>
<!-- autoconf -->
<g id="node5" class="node">
<title>autoconf</title>
<g id="a_node5"><a xlink:href="https://github.com/conda-forge/autoconf-feedstock/pull/30" xlink:title="autoconf ❎">
<ellipse fill="#31688e" stroke="black" cx="264.69" cy="-134" rx="53.5" ry="18"/>
<text text-anchor="middle" x="264.69" y="-130.3" font-family="Times,serif" font-size="14.00" fill="white">autoconf ❎</text>
</a>
</g>
</g>
<!-- automake -->
<g id="node6" class="node">
<title>automake</title>
<g id="a_node6"><a xlink:href="https://github.com/conda-forge/automake-feedstock" xlink:title="automake">
<ellipse fill="#fde725" stroke="black" cx="264.69" cy="-62" rx="45.5" ry="18"/>
<text text-anchor="middle" x="264.69" y="-58.3" font-family="Times,serif" font-size="14.00">automake</text>
</a>
</g>
</g>
<!-- autoconf&#45;&gt;automake -->
<g id="edge3" class="edge">
<title>autoconf&#45;&gt;automake</title>
<path fill="none" stroke="black" d="M264.69,-115.7C264.69,-107.98 264.69,-98.71 264.69,-90.11"/>
<polygon fill="black" stroke="black" points="268.19,-90.1 264.69,-80.1 261.19,-90.1 268.19,-90.1"/>
</g>
<!-- constructor -->
<g id="node7" class="node">
<title>constructor</title>
<g id="a_node7"><a xlink:href="https://github.com/conda-forge/constructor-feedstock" xlink:title="constructor">
<ellipse fill="#fde725" stroke="black" cx="908.69" cy="-286" rx="50.09" ry="18"/>
<text text-anchor="middle" x="908.69" y="-282.3" font-family="Times,serif" font-size="14.00">constructor</text>
</a>
</g>
</g>
<!-- emacs -->
<g id="node8" class="node">
<title>emacs</title>
<g id="a_node8"><a xlink:href="https://github.com/conda-forge/emacs-feedstock" xlink:title="emacs">
<ellipse fill="#fde725" stroke="black" cx="612.69" cy="-178" rx="33.29" ry="18"/>
<text text-anchor="middle" x="612.69" y="-174.3" font-family="Times,serif" font-size="14.00">emacs</text>
</a>
</g>
</g>
<!-- entrypoints -->
<g id="node9" class="node">
<title>entrypoints</title>
<g id="a_node9"><a xlink:href="https://github.com/conda-forge/entrypoints-feedstock/pull/18" xlink:title="entrypoints ❎">
<ellipse fill="#31688e" stroke="black" cx="467.69" cy="-322" rx="61.99" ry="18"/>
<text text-anchor="middle" x="467.69" y="-318.3" font-family="Times,serif" font-size="14.00" fill="white">entrypoints ❎</text>
</a>
</g>
</g>
<!-- nbconvert -->
<g id="node10" class="node">
<title>nbconvert</title>
<g id="a_node10"><a xlink:href="https://github.com/conda-forge/nbconvert-feedstock" xlink:title="nbconvert">
<ellipse fill="#fde725" stroke="black" cx="373.69" cy="-250" rx="46.29" ry="18"/>
<text text-anchor="middle" x="373.69" y="-246.3" font-family="Times,serif" font-size="14.00">nbconvert</text>
</a>
</g>
</g>
<!-- entrypoints&#45;&gt;nbconvert -->
<g id="edge4" class="edge">
<title>entrypoints&#45;&gt;nbconvert</title>
<path fill="none" stroke="black" d="M445.89,-304.76C432.96,-295.13 416.41,-282.81 402.42,-272.39"/>
<polygon fill="black" stroke="black" points="404.2,-269.35 394.09,-266.19 400.02,-274.97 404.2,-269.35"/>
</g>
<!-- nbconvert&#45;&gt;notebook -->
<g id="edge5" class="edge">
<title>nbconvert&#45;&gt;notebook</title>
<path fill="none" stroke="black" d="M345.54,-235.5C322.47,-224.44 289.64,-208.7 264.49,-196.64"/>
<polygon fill="black" stroke="black" points="265.79,-193.39 255.26,-192.22 262.77,-199.7 265.79,-193.39"/>
</g>
<!-- git -->
<g id="node11" class="node">
<title>git</title>
<g id="a_node11"><a xlink:href="https://github.com/conda-forge/git-feedstock/pull/88" xlink:title="git ❎">
<ellipse fill="#31688e" stroke="black" cx="264.69" cy="-18" rx="32" ry="18"/>
<text text-anchor="middle" x="264.69" y="-14.3" font-family="Times,serif" font-size="14.00" fill="white">git ❎</text>
</a>
</g>
</g>
<!-- gnutls -->
<g id="node12" class="node">
<title>gnutls</title>
<g id="a_node12"><a xlink:href="https://github.com/conda-forge/gnutls-feedstock" xlink:title="gnutls">
<ellipse fill="#fde725" stroke="black" cx="579.69" cy="-250" rx="32.5" ry="18"/>
<text text-anchor="middle" x="579.69" y="-246.3" font-family="Times,serif" font-size="14.00">gnutls</text>
</a>
</g>
</g>
<!-- gnutls&#45;&gt;emacs -->
<g id="edge6" class="edge">
<title>gnutls&#45;&gt;emacs</title>
<path fill="none" stroke="black" d="M587.51,-232.41C591.36,-224.25 596.09,-214.22 600.41,-205.07"/>
<polygon fill="black" stroke="black" points="603.6,-206.49 604.7,-195.96 597.27,-203.51 603.6,-206.49"/>
</g>
<!-- gobject&#45;introspection -->
<g id="node13" class="node">
<title>gobject&#45;introspection</title>
<g id="a_node13"><a xlink:href="https://github.com/conda-forge/gobject-introspection-feedstock/pull/31" xlink:title="gobject introspection ❎">
<ellipse fill="#31688e" stroke="black" cx="638.69" cy="-394" rx="97" ry="18"/>
<text text-anchor="middle" x="638.69" y="-390.3" font-family="Times,serif" font-size="14.00" fill="white">gobject introspection ❎</text>
</a>
</g>
</g>
<!-- pango -->
<g id="node14" class="node">
<title>pango</title>
<g id="a_node14"><a xlink:href="https://github.com/conda-forge/pango-feedstock" xlink:title="pango">
<ellipse fill="#fde725" stroke="black" cx="700.69" cy="-322" rx="32.5" ry="18"/>
<text text-anchor="middle" x="700.69" y="-318.3" font-family="Times,serif" font-size="14.00">pango</text>
</a>
</g>
</g>
<!-- gobject&#45;introspection&#45;&gt;pango -->
<g id="edge7" class="edge">
<title>gobject&#45;introspection&#45;&gt;pango</title>
<path fill="none" stroke="black" d="M653.7,-376.05C661.73,-366.99 671.74,-355.69 680.45,-345.86"/>
<polygon fill="black" stroke="black" points="683.08,-348.16 687.09,-338.36 677.84,-343.52 683.08,-348.16"/>
</g>
<!-- librsvg -->
<g id="node15" class="node">
<title>librsvg</title>
<g id="a_node15"><a xlink:href="https://github.com/conda-forge/librsvg-feedstock" xlink:title="librsvg">
<ellipse fill="#fde725" stroke="black" cx="665.69" cy="-250" rx="35.19" ry="18"/>
<text text-anchor="middle" x="665.69" y="-246.3" font-family="Times,serif" font-size="14.00">librsvg</text>
</a>
</g>
</g>
<!-- pango&#45;&gt;librsvg -->
<g id="edge8" class="edge">
<title>pango&#45;&gt;librsvg</title>
<path fill="none" stroke="black" d="M692.4,-304.41C688.32,-296.25 683.3,-286.22 678.73,-277.07"/>
<polygon fill="black" stroke="black" points="681.78,-275.34 674.17,-267.96 675.51,-278.47 681.78,-275.34"/>
</g>
<!-- r&#45;base -->
<g id="node16" class="node">
<title>r&#45;base</title>
<g id="a_node16"><a xlink:href="https://github.com/conda-forge/r-base-feedstock" xlink:title="r base">
<ellipse fill="#fde725" stroke="black" cx="728.69" cy="-178" rx="32" ry="18"/>
<text text-anchor="middle" x="728.69" y="-174.3" font-family="Times,serif" font-size="14.00">r base</text>
</a>
</g>
</g>
<!-- pango&#45;&gt;r&#45;base -->
<g id="edge9" class="edge">
<title>pango&#45;&gt;r&#45;base</title>
<path fill="none" stroke="black" d="M704.07,-303.87C708.86,-279.56 717.69,-234.82 723.37,-206.01"/>
<polygon fill="black" stroke="black" points="726.8,-206.68 725.3,-196.19 719.94,-205.32 726.8,-206.68"/>
</g>
<!-- librsvg&#45;&gt;emacs -->
<g id="edge15" class="edge">
<title>librsvg&#45;&gt;emacs</title>
<path fill="none" stroke="black" d="M653.4,-232.76C646.78,-224.02 638.48,-213.05 631.1,-203.31"/>
<polygon fill="black" stroke="black" points="633.75,-201.01 624.92,-195.15 628.17,-205.23 633.75,-201.01"/>
</g>
<!-- harfbuzz -->
<g id="node17" class="node">
<title>harfbuzz</title>
<g id="a_node17"><a xlink:href="https://github.com/conda-forge/harfbuzz-feedstock/pull/58" xlink:title="harfbuzz ❎">
<ellipse fill="#31688e" stroke="black" cx="763.69" cy="-466" rx="53.5" ry="18"/>
<text text-anchor="middle" x="763.69" y="-462.3" font-family="Times,serif" font-size="14.00" fill="white">harfbuzz ❎</text>
</a>
</g>
</g>
<!-- harfbuzz&#45;&gt;pango -->
<g id="edge10" class="edge">
<title>harfbuzz&#45;&gt;pango</title>
<path fill="none" stroke="black" d="M762.48,-447.81C760.62,-429.28 756,-399.31 744.69,-376 739.34,-364.96 731.21,-354.26 723.39,-345.39"/>
<polygon fill="black" stroke="black" points="725.74,-342.78 716.38,-337.81 720.6,-347.53 725.74,-342.78"/>
</g>
<!-- ipykernel -->
<g id="node18" class="node">
<title>ipykernel</title>
<g id="a_node18"><a xlink:href="https://github.com/conda-forge/ipykernel-feedstock" xlink:title="ipykernel">
<ellipse fill="#fde725" stroke="black" cx="227.69" cy="-250" rx="44.39" ry="18"/>
<text text-anchor="middle" x="227.69" y="-246.3" font-family="Times,serif" font-size="14.00">ipykernel</text>
</a>
</g>
</g>
<!-- ipykernel&#45;&gt;notebook -->
<g id="edge11" class="edge">
<title>ipykernel&#45;&gt;notebook</title>
<path fill="none" stroke="black" d="M227.69,-231.7C227.69,-223.98 227.69,-214.71 227.69,-206.11"/>
<polygon fill="black" stroke="black" points="231.19,-206.1 227.69,-196.1 224.19,-206.1 231.19,-206.1"/>
</g>
<!-- jupyter_core -->
<g id="node19" class="node">
<title>jupyter_core</title>
<g id="a_node19"><a xlink:href="https://github.com/conda-forge/jupyter_core-feedstock/pull/31" xlink:title="jupyter_core ❎">
<ellipse fill="#31688e" stroke="black" cx="167.69" cy="-322" rx="67" ry="18"/>
<text text-anchor="middle" x="167.69" y="-318.3" font-family="Times,serif" font-size="14.00" fill="white">jupyter_core ❎</text>
</a>
</g>
</g>
<!-- jupyter_core&#45;&gt;notebook -->
<g id="edge12" class="edge">
<title>jupyter_core&#45;&gt;notebook</title>
<path fill="none" stroke="black" d="M165.63,-303.72C164.17,-285.12 164.05,-255.08 174.69,-232 180.18,-220.09 189.57,-209.34 198.92,-200.69"/>
<polygon fill="black" stroke="black" points="201.44,-203.14 206.69,-193.93 196.85,-197.85 201.44,-203.14"/>
</g>
<!-- jupyter_core&#45;&gt;nbconvert -->
<g id="edge13" class="edge">
<title>jupyter_core&#45;&gt;nbconvert</title>
<path fill="none" stroke="black" d="M207.41,-307.5C242.57,-295.56 293.8,-278.15 330.08,-265.82"/>
<polygon fill="black" stroke="black" points="331.55,-269.02 339.89,-262.49 329.3,-262.39 331.55,-269.02"/>
</g>
<!-- jupyter_core&#45;&gt;ipykernel -->
<g id="edge14" class="edge">
<title>jupyter_core&#45;&gt;ipykernel</title>
<path fill="none" stroke="black" d="M182.22,-304.05C189.7,-295.33 198.94,-284.54 207.14,-274.98"/>
<polygon fill="black" stroke="black" points="209.87,-277.18 213.72,-267.31 204.55,-272.62 209.87,-277.18"/>
</g>
<!-- libsodium -->
<g id="node20" class="node">
<title>libsodium</title>
<g id="a_node20"><a xlink:href="https://github.com/conda-forge/libsodium-feedstock/pull/19" xlink:title="libsodium ❎">
<ellipse fill="#31688e" stroke="black" cx="249.69" cy="-466" rx="58" ry="18"/>
<text text-anchor="middle" x="249.69" y="-462.3" font-family="Times,serif" font-size="14.00" fill="white">libsodium ❎</text>
</a>
</g>
</g>
<!-- pyzmq -->
<g id="node21" class="node">
<title>pyzmq</title>
<g id="a_node21"><a xlink:href="https://github.com/conda-forge/pyzmq-feedstock" xlink:title="pyzmq">
<ellipse fill="#fde725" stroke="black" cx="287.69" cy="-322" rx="35.19" ry="18"/>
<text text-anchor="middle" x="287.69" y="-318.3" font-family="Times,serif" font-size="14.00">pyzmq</text>
</a>
</g>
</g>
<!-- libsodium&#45;&gt;pyzmq -->
<g id="edge16" class="edge">
<title>libsodium&#45;&gt;pyzmq</title>
<path fill="none" stroke="black" d="M241.81,-447.98C234.47,-429.59 225.99,-399.75 235.69,-376 240.81,-363.48 250.47,-352.31 260.09,-343.5"/>
<polygon fill="black" stroke="black" points="262.4,-346.13 267.71,-336.96 257.84,-340.82 262.4,-346.13"/>
</g>
<!-- zeromq -->
<g id="node22" class="node">
<title>zeromq</title>
<g id="a_node22"><a xlink:href="https://github.com/conda-forge/zeromq-feedstock" xlink:title="zeromq">
<ellipse fill="#fde725" stroke="black" cx="282.69" cy="-394" rx="37.89" ry="18"/>
<text text-anchor="middle" x="282.69" y="-390.3" font-family="Times,serif" font-size="14.00">zeromq</text>
</a>
</g>
</g>
<!-- libsodium&#45;&gt;zeromq -->
<g id="edge17" class="edge">
<title>libsodium&#45;&gt;zeromq</title>
<path fill="none" stroke="black" d="M257.68,-448.05C261.49,-439.97 266.14,-430.12 270.38,-421.11"/>
<polygon fill="black" stroke="black" points="273.68,-422.33 274.78,-411.79 267.35,-419.34 273.68,-422.33"/>
</g>
<!-- pyzmq&#45;&gt;notebook -->
<g id="edge18" class="edge">
<title>pyzmq&#45;&gt;notebook</title>
<path fill="none" stroke="black" d="M289.75,-303.72C291.22,-285.12 291.34,-255.08 280.69,-232 275.2,-220.09 265.82,-209.34 256.46,-200.69"/>
<polygon fill="black" stroke="black" points="258.54,-197.85 248.7,-193.93 253.94,-203.14 258.54,-197.85"/>
</g>
<!-- pyzmq&#45;&gt;nbconvert -->
<g id="edge19" class="edge">
<title>pyzmq&#45;&gt;nbconvert</title>
<path fill="none" stroke="black" d="M305.93,-306.15C317.77,-296.52 333.42,-283.79 346.69,-272.98"/>
<polygon fill="black" stroke="black" points="349.04,-275.58 354.59,-266.55 344.62,-270.15 349.04,-275.58"/>
</g>
<!-- pyzmq&#45;&gt;ipykernel -->
<g id="edge20" class="edge">
<title>pyzmq&#45;&gt;ipykernel</title>
<path fill="none" stroke="black" d="M274.08,-305.12C266.44,-296.2 256.76,-284.91 248.22,-274.94"/>
<polygon fill="black" stroke="black" points="250.84,-272.62 241.67,-267.31 245.52,-277.18 250.84,-272.62"/>
</g>
<!-- zeromq&#45;&gt;pyzmq -->
<g id="edge21" class="edge">
<title>zeromq&#45;&gt;pyzmq</title>
<path fill="none" stroke="black" d="M283.93,-375.7C284.48,-367.98 285.14,-358.71 285.76,-350.11"/>
<polygon fill="black" stroke="black" points="289.25,-350.33 286.47,-340.1 282.27,-349.83 289.25,-350.33"/>
</g>
<!-- nettle -->
<g id="node23" class="node">
<title>nettle</title>
<g id="a_node23"><a xlink:href="https://github.com/conda-forge/nettle-feedstock/pull/7" xlink:title="nettle ❎">
<ellipse fill="#31688e" stroke="black" cx="579.69" cy="-322" rx="42.49" ry="18"/>
<text text-anchor="middle" x="579.69" y="-318.3" font-family="Times,serif" font-size="14.00" fill="white">nettle ❎</text>
</a>
</g>
</g>
<!-- nettle&#45;&gt;gnutls -->
<g id="edge22" class="edge">
<title>nettle&#45;&gt;gnutls</title>
<path fill="none" stroke="black" d="M579.69,-303.7C579.69,-295.98 579.69,-286.71 579.69,-278.11"/>
<polygon fill="black" stroke="black" points="583.19,-278.1 579.69,-268.1 576.19,-278.1 583.19,-278.1"/>
</g>
<!-- pandoc -->
<g id="node24" class="node">
<title>pandoc</title>
<g id="a_node24"><a xlink:href="https://github.com/conda-forge/pandoc-feedstock/pull/81" xlink:title="pandoc ❎">
<ellipse fill="#31688e" stroke="black" cx="386.69" cy="-394" rx="48.19" ry="18"/>
<text text-anchor="middle" x="386.69" y="-390.3" font-family="Times,serif" font-size="14.00" fill="white">pandoc ❎</text>
</a>
</g>
</g>
<!-- pandoc&#45;&gt;nbconvert -->
<g id="edge23" class="edge">
<title>pandoc&#45;&gt;nbconvert</title>
<path fill="none" stroke="black" d="M385.13,-375.87C382.91,-351.67 378.84,-307.21 376.2,-278.39"/>
<polygon fill="black" stroke="black" points="379.67,-277.83 375.27,-268.19 372.69,-278.47 379.67,-277.83"/>
</g>
<!-- trio -->
<g id="node25" class="node">
<title>trio</title>
<g id="a_node25"><a xlink:href="https://github.com/conda-forge/trio-feedstock" xlink:title="trio">
<ellipse fill="#fde725" stroke="black" cx="908.69" cy="-62" rx="27" ry="18"/>
<text text-anchor="middle" x="908.69" y="-58.3" font-family="Times,serif" font-size="14.00">trio</text>
</a>
</g>
</g>
<!-- sniffio -->
<g id="node26" class="node">
<title>sniffio</title>
<g id="a_node26"><a xlink:href="https://github.com/conda-forge/sniffio-feedstock/pull/10" xlink:title="sniffio ❎">
<ellipse fill="#31688e" stroke="black" cx="908.69" cy="-134" rx="45.5" ry="18"/>
<text text-anchor="middle" x="908.69" y="-130.3" font-family="Times,serif" font-size="14.00" fill="white">sniffio ❎</text>
</a>
</g>
</g>
<!-- sniffio&#45;&gt;trio -->
<g id="edge24" class="edge">
<title>sniffio&#45;&gt;trio</title>
<path fill="none" stroke="black" d="M908.69,-115.7C908.69,-107.98 908.69,-98.71 908.69,-90.11"/>
<polygon fill="black" stroke="black" points="912.19,-90.1 908.69,-80.1 905.19,-90.1 912.19,-90.1"/>
</g>
<!-- conda&#45;standalone -->
<g id="node27" class="node">
<title>conda&#45;standalone</title>
<g id="a_node27"><a xlink:href="https://github.com/conda-forge/conda-standalone-feedstock/pull/10" xlink:title="conda standalone ❎">
<ellipse fill="#31688e" stroke="black" cx="908.69" cy="-358" rx="83.39" ry="18"/>
<text text-anchor="middle" x="908.69" y="-354.3" font-family="Times,serif" font-size="14.00" fill="white">conda standalone ❎</text>
</a>
</g>
</g>
<!-- conda&#45;standalone&#45;&gt;constructor -->
<g id="edge25" class="edge">
<title>conda&#45;standalone&#45;&gt;constructor</title>
<path fill="none" stroke="black" d="M908.69,-339.7C908.69,-331.98 908.69,-322.71 908.69,-314.11"/>
<polygon fill="black" stroke="black" points="912.19,-314.1 908.69,-304.1 905.19,-314.1 912.19,-314.1"/>
</g>
</g>
</svg>
