<?xml version="1.0" encoding="UTF-8" standalone="no"?>
<!DOCTYPE svg PUBLIC "-//W3C//DTD SVG 1.1//EN"
 "http://www.w3.org/Graphics/SVG/1.1/DTD/svg11.dtd">
<!-- Generated by graphviz version 2.42.3 (20191010.1750)
 -->
<!-- Title: %3 Pages: 1 -->
<svg width="636pt" height="404pt"
 viewBox="0.00 0.00 635.75 404.00" xmlns="http://www.w3.org/2000/svg" xmlns:xlink="http://www.w3.org/1999/xlink">
<g id="graph0" class="graph" transform="scale(1 1) rotate(0) translate(4 400)">
<title>%3</title>
<polygon fill="white" stroke="transparent" points="-4,4 -4,-400 631.75,-400 631.75,4 -4,4"/>
<!-- binutils -->
<g id="node1" class="node">
<title>binutils</title>
<g id="a_node1"><a xlink:href="https://github.com/conda-forge/binutils-feedstock" xlink:title="binutils">
<ellipse fill="#fde725" stroke="black" cx="301.5" cy="-90" rx="37.09" ry="18"/>
<text text-anchor="middle" x="301.5" y="-86.3" font-family="Times,serif" font-size="14.00">binutils</text>
</a>
</g>
</g>
<!-- python -->
<g id="node2" class="node">
<title>python</title>
<g id="a_node2"><a xlink:href="https://github.com/conda-forge/python-feedstock" xlink:title="python">
<ellipse fill="#fde725" stroke="black" cx="261.5" cy="-18" rx="35.19" ry="18"/>
<text text-anchor="middle" x="261.5" y="-14.3" font-family="Times,serif" font-size="14.00">python</text>
</a>
</g>
</g>
<!-- binutils&#45;&gt;python -->
<g id="edge1" class="edge">
<title>binutils&#45;&gt;python</title>
<path fill="none" stroke="black" d="M292.02,-72.41C287.24,-64.04 281.33,-53.71 276,-44.37"/>
<polygon fill="black" stroke="black" points="278.91,-42.42 270.91,-35.47 272.83,-45.89 278.91,-42.42"/>
</g>
<!-- bison -->
<g id="node3" class="node">
<title>bison</title>
<g id="a_node3"><a xlink:href="https://github.com/conda-forge/bison-feedstock" xlink:title="bison">
<ellipse fill="#fde725" stroke="black" cx="326.5" cy="-306" rx="30" ry="18"/>
<text text-anchor="middle" x="326.5" y="-302.3" font-family="Times,serif" font-size="14.00">bison</text>
</a>
</g>
</g>
<!-- crosstool&#45;ng -->
<g id="node4" class="node">
<title>crosstool&#45;ng</title>
<g id="a_node4"><a xlink:href="https://github.com/conda-forge/crosstool-ng-feedstock" xlink:title="crosstool ng">
<ellipse fill="#fde725" stroke="black" cx="362.5" cy="-234" rx="54" ry="18"/>
<text text-anchor="middle" x="362.5" y="-230.3" font-family="Times,serif" font-size="14.00">crosstool ng</text>
</a>
</g>
</g>
<!-- bison&#45;&gt;crosstool&#45;ng -->
<g id="edge2" class="edge">
<title>bison&#45;&gt;crosstool&#45;ng</title>
<path fill="none" stroke="black" d="M335.03,-288.41C339.23,-280.25 344.39,-270.22 349.09,-261.07"/>
<polygon fill="black" stroke="black" points="352.32,-262.45 353.78,-251.96 346.09,-259.25 352.32,-262.45"/>
</g>
<!-- ctng&#45;compilers -->
<g id="node5" class="node">
<title>ctng&#45;compilers</title>
<g id="a_node5"><a xlink:href="https://github.com/conda-forge/ctng-compilers-feedstock" xlink:title="ctng compilers">
<ellipse fill="#fde725" stroke="black" cx="314.5" cy="-162" rx="63.89" ry="18"/>
<text text-anchor="middle" x="314.5" y="-158.3" font-family="Times,serif" font-size="14.00">ctng compilers</text>
</a>
</g>
</g>
<!-- crosstool&#45;ng&#45;&gt;ctng&#45;compilers -->
<g id="edge3" class="edge">
<title>crosstool&#45;ng&#45;&gt;ctng&#45;compilers</title>
<path fill="none" stroke="black" d="M350.88,-216.05C345.16,-207.71 338.15,-197.49 331.82,-188.25"/>
<polygon fill="black" stroke="black" points="334.55,-186.06 326.01,-179.79 328.78,-190.02 334.55,-186.06"/>
</g>
<!-- ctng&#45;compilers&#45;&gt;binutils -->
<g id="edge18" class="edge">
<title>ctng&#45;compilers&#45;&gt;binutils</title>
<path fill="none" stroke="black" d="M311.29,-143.7C309.85,-135.98 308.13,-126.71 306.54,-118.11"/>
<polygon fill="black" stroke="black" points="309.94,-117.3 304.68,-108.1 303.06,-118.58 309.94,-117.3"/>
</g>
<!-- flex -->
<g id="node6" class="node">
<title>flex</title>
<g id="a_node6"><a xlink:href="https://github.com/conda-forge/flex-feedstock/pull/28" xlink:title="flex ❎">
<ellipse fill="#31688e" stroke="black" cx="355.5" cy="-378" rx="36.5" ry="18"/>
<text text-anchor="middle" x="355.5" y="-374.3" font-family="Times,serif" font-size="14.00" fill="white">flex ❎</text>
</a>
</g>
</g>
<!-- flex&#45;&gt;bison -->
<g id="edge4" class="edge">
<title>flex&#45;&gt;bison</title>
<path fill="none" stroke="black" d="M348.48,-360.05C345.13,-351.97 341.05,-342.12 337.32,-333.11"/>
<polygon fill="black" stroke="black" points="340.52,-331.69 333.46,-323.79 334.05,-334.37 340.52,-331.69"/>
</g>
<!-- flex&#45;&gt;crosstool&#45;ng -->
<g id="edge5" class="edge">
<title>flex&#45;&gt;crosstool&#45;ng</title>
<path fill="none" stroke="black" d="M359.56,-359.93C361.81,-349.6 364.37,-336.12 365.5,-324 367.43,-303.35 366.51,-279.9 365.2,-262.26"/>
<polygon fill="black" stroke="black" points="368.68,-261.78 364.36,-252.1 361.7,-262.36 368.68,-261.78"/>
</g>
<!-- libffi -->
<g id="node7" class="node">
<title>libffi</title>
<g id="a_node7"><a xlink:href="https://github.com/conda-forge/libffi-feedstock/pull/28" xlink:title="libffi ✓">
<ellipse fill="#31688e" stroke="black" cx="38.5" cy="-90" rx="38.5" ry="18"/>
<text text-anchor="middle" x="38.5" y="-86.3" font-family="Times,serif" font-size="14.00" fill="white">libffi ✓</text>
</a>
</g>
</g>
<!-- libffi&#45;&gt;python -->
<g id="edge6" class="edge">
<title>libffi&#45;&gt;python</title>
<path fill="none" stroke="black" d="M67.75,-78.14C73.61,-76.05 79.73,-73.91 85.5,-72 131.82,-56.66 185.6,-40.74 221.4,-30.4"/>
<polygon fill="black" stroke="black" points="222.81,-33.64 231.45,-27.51 220.87,-26.91 222.81,-33.64"/>
</g>
<!-- libtool -->
<g id="node8" class="node">
<title>libtool</title>
<g id="a_node8"><a xlink:href="https://github.com/conda-forge/libtool-feedstock/pull/21" xlink:title="libtool ❎">
<ellipse fill="#31688e" stroke="black" cx="458.5" cy="-306" rx="45.5" ry="18"/>
<text text-anchor="middle" x="458.5" y="-302.3" font-family="Times,serif" font-size="14.00" fill="white">libtool ❎</text>
</a>
</g>
</g>
<!-- libtool&#45;&gt;crosstool&#45;ng -->
<g id="edge7" class="edge">
<title>libtool&#45;&gt;crosstool&#45;ng</title>
<path fill="none" stroke="black" d="M437.67,-289.81C424.39,-280.13 406.98,-267.43 392.26,-256.7"/>
<polygon fill="black" stroke="black" points="394.1,-253.71 383.95,-250.64 389.97,-259.36 394.1,-253.71"/>
</g>
<!-- msinttypes -->
<g id="node9" class="node">
<title>msinttypes</title>
<g id="a_node9"><a xlink:href="https://github.com/conda-forge/msinttypes-feedstock/pull/15" xlink:title="msinttypes ❎">
<ellipse fill="#31688e" stroke="black" cx="95.5" cy="-162" rx="61.19" ry="18"/>
<text text-anchor="middle" x="95.5" y="-158.3" font-family="Times,serif" font-size="14.00" fill="white">msinttypes ❎</text>
</a>
</g>
</g>
<!-- xz -->
<g id="node10" class="node">
<title>xz</title>
<g id="a_node10"><a xlink:href="https://github.com/conda-forge/xz-feedstock/pull/25" xlink:title="xz ❎">
<ellipse fill="#31688e" stroke="black" cx="125.5" cy="-90" rx="30.59" ry="18"/>
<text text-anchor="middle" x="125.5" y="-86.3" font-family="Times,serif" font-size="14.00" fill="white">xz ❎</text>
</a>
</g>
</g>
<!-- msinttypes&#45;&gt;xz -->
<g id="edge8" class="edge">
<title>msinttypes&#45;&gt;xz</title>
<path fill="none" stroke="black" d="M102.76,-144.05C106.23,-135.97 110.45,-126.12 114.31,-117.11"/>
<polygon fill="black" stroke="black" points="117.58,-118.36 118.3,-107.79 111.15,-115.6 117.58,-118.36"/>
</g>
<!-- xz&#45;&gt;python -->
<g id="edge9" class="edge">
<title>xz&#45;&gt;python</title>
<path fill="none" stroke="black" d="M147.65,-77.6C169.54,-66.33 203.3,-48.95 228.38,-36.05"/>
<polygon fill="black" stroke="black" points="230.23,-39.03 237.52,-31.34 227.03,-32.81 230.23,-39.03"/>
</g>
<!-- ncurses -->
<g id="node11" class="node">
<title>ncurses</title>
<g id="a_node11"><a xlink:href="https://github.com/conda-forge/ncurses-feedstock/pull/57" xlink:title="ncurses ❎">
<ellipse fill="#31688e" stroke="black" cx="229.5" cy="-306" rx="48.99" ry="18"/>
<text text-anchor="middle" x="229.5" y="-302.3" font-family="Times,serif" font-size="14.00" fill="white">ncurses ❎</text>
</a>
</g>
</g>
<!-- ncurses&#45;&gt;python -->
<g id="edge10" class="edge">
<title>ncurses&#45;&gt;python</title>
<path fill="none" stroke="black" d="M218.72,-288.08C212.97,-278.03 206.47,-264.78 203.5,-252 199.88,-236.41 201.49,-231.87 203.5,-216 211.79,-150.44 220.07,-134.84 240.5,-72 243.36,-63.21 246.93,-53.77 250.31,-45.33"/>
<polygon fill="black" stroke="black" points="253.59,-46.57 254.14,-35.99 247.11,-43.91 253.59,-46.57"/>
</g>
<!-- ncurses&#45;&gt;crosstool&#45;ng -->
<g id="edge11" class="edge">
<title>ncurses&#45;&gt;crosstool&#45;ng</title>
<path fill="none" stroke="black" d="M256.41,-290.83C276.34,-280.35 303.72,-265.94 325.67,-254.38"/>
<polygon fill="black" stroke="black" points="327.49,-257.38 334.71,-249.63 324.23,-251.19 327.49,-257.38"/>
</g>
<!-- readline -->
<g id="node12" class="node">
<title>readline</title>
<g id="a_node12"><a xlink:href="https://github.com/conda-forge/readline-feedstock" xlink:title="readline">
<ellipse fill="#fde725" stroke="black" cx="251.5" cy="-234" rx="39" ry="18"/>
<text text-anchor="middle" x="251.5" y="-230.3" font-family="Times,serif" font-size="14.00">readline</text>
</a>
</g>
</g>
<!-- ncurses&#45;&gt;readline -->
<g id="edge12" class="edge">
<title>ncurses&#45;&gt;readline</title>
<path fill="none" stroke="black" d="M234.83,-288.05C237.28,-280.26 240.24,-270.82 242.99,-262.08"/>
<polygon fill="black" stroke="black" points="246.41,-262.86 246.07,-252.28 239.73,-260.77 246.41,-262.86"/>
</g>
<!-- readline&#45;&gt;python -->
<g id="edge13" class="edge">
<title>readline&#45;&gt;python</title>
<path fill="none" stroke="black" d="M247.44,-215.93C245.19,-205.6 242.63,-192.12 241.5,-180 237.07,-132.63 247.19,-77.68 254.59,-45.78"/>
<polygon fill="black" stroke="black" points="258.04,-46.43 256.97,-35.88 251.23,-44.79 258.04,-46.43"/>
</g>
<!-- openssl -->
<g id="node13" class="node">
<title>openssl</title>
<g id="a_node13"><a xlink:href="https://github.com/conda-forge/openssl-feedstock/pull/60" xlink:title="openssl ❎">
<ellipse fill="#31688e" stroke="black" cx="419.5" cy="-90" rx="48.99" ry="18"/>
<text text-anchor="middle" x="419.5" y="-86.3" font-family="Times,serif" font-size="14.00" fill="white">openssl ❎</text>
</a>
</g>
</g>
<!-- openssl&#45;&gt;python -->
<g id="edge14" class="edge">
<title>openssl&#45;&gt;python</title>
<path fill="none" stroke="black" d="M389.41,-75.67C362.98,-63.96 324.51,-46.91 296.66,-34.58"/>
<polygon fill="black" stroke="black" points="297.86,-31.28 287.3,-30.43 295.02,-37.68 297.86,-31.28"/>
</g>
<!-- perl -->
<g id="node14" class="node">
<title>perl</title>
<g id="a_node14"><a xlink:href="https://github.com/conda-forge/perl-feedstock/pull/41" xlink:title="perl ❎">
<ellipse fill="#31688e" stroke="black" cx="432.5" cy="-162" rx="36.5" ry="18"/>
<text text-anchor="middle" x="432.5" y="-158.3" font-family="Times,serif" font-size="14.00" fill="white">perl ❎</text>
</a>
</g>
</g>
<!-- perl&#45;&gt;openssl -->
<g id="edge15" class="edge">
<title>perl&#45;&gt;openssl</title>
<path fill="none" stroke="black" d="M429.35,-144.05C427.92,-136.35 426.19,-127.03 424.58,-118.36"/>
<polygon fill="black" stroke="black" points="427.98,-117.47 422.71,-108.28 421.09,-118.75 427.98,-117.47"/>
</g>
<!-- sqlite -->
<g id="node15" class="node">
<title>sqlite</title>
<g id="a_node15"><a xlink:href="https://github.com/conda-forge/sqlite-feedstock/pull/55" xlink:title="sqlite ❎">
<ellipse fill="#31688e" stroke="black" cx="528.5" cy="-162" rx="41.69" ry="18"/>
<text text-anchor="middle" x="528.5" y="-158.3" font-family="Times,serif" font-size="14.00" fill="white">sqlite ❎</text>
</a>
</g>
</g>
<!-- sqlite&#45;&gt;python -->
<g id="edge16" class="edge">
<title>sqlite&#45;&gt;python</title>
<path fill="none" stroke="black" d="M523.29,-143.78C516.24,-123.48 501.68,-90.21 477.5,-72 427.46,-34.31 354.1,-23.11 307.07,-19.95"/>
<polygon fill="black" stroke="black" points="307.06,-16.45 296.87,-19.37 306.66,-23.44 307.06,-16.45"/>
</g>
<!-- tk -->
<g id="node16" class="node">
<title>tk</title>
<g id="a_node16"><a xlink:href="https://github.com/conda-forge/tk-feedstock/pull/43" xlink:title="tk ❎">
<ellipse fill="#31688e" stroke="black" cx="598.5" cy="-234" rx="29.5" ry="18"/>
<text text-anchor="middle" x="598.5" y="-230.3" font-family="Times,serif" font-size="14.00" fill="white">tk ❎</text>
</a>
</g>
</g>
<!-- tk&#45;&gt;python -->
<g id="edge17" class="edge">
<title>tk&#45;&gt;python</title>
<path fill="none" stroke="black" d="M597.75,-215.92C596.3,-197.23 592.03,-166.86 579.5,-144 557.6,-104.04 546.58,-93.68 506.5,-72 442.58,-37.43 357.8,-25.41 306.57,-21.23"/>
<polygon fill="black" stroke="black" points="306.71,-17.73 296.48,-20.47 306.19,-24.71 306.71,-17.73"/>
</g>
</g>
</svg>
