<?xml version="1.0" encoding="UTF-8" standalone="no"?>
<!DOCTYPE svg PUBLIC "-//W3C//DTD SVG 1.1//EN"
 "http://www.w3.org/Graphics/SVG/1.1/DTD/svg11.dtd">
<!-- Generated by graphviz version 2.42.3 (20191010.1750)
 -->
<!-- Title: %3 Pages: 1 -->
<svg width="871pt" height="260pt"
 viewBox="0.00 0.00 871.04 260.00" xmlns="http://www.w3.org/2000/svg" xmlns:xlink="http://www.w3.org/1999/xlink">
<g id="graph0" class="graph" transform="scale(1 1) rotate(0) translate(4 256)">
<title>%3</title>
<polygon fill="white" stroke="transparent" points="-4,4 -4,-256 867.04,-256 867.04,4 -4,4"/>
<!-- arrow&#45;cpp -->
<g id="node1" class="node">
<title>arrow&#45;cpp</title>
<g id="a_node1"><a xlink:href="https://github.com/conda-forge/arrow-cpp-feedstock" xlink:title="arrow cpp">
<ellipse fill="#fde725" stroke="black" cx="689.04" cy="-18" rx="46.29" ry="18"/>
<text text-anchor="middle" x="689.04" y="-14.3" font-family="Times,serif" font-size="14.00">arrow cpp</text>
</a>
</g>
</g>
<!-- conda -->
<g id="node2" class="node">
<title>conda</title>
<g id="a_node2"><a xlink:href="https://github.com/conda-forge/conda-feedstock/pull/127" xlink:title="conda ❎">
<ellipse fill="#31688e" stroke="black" cx="282.04" cy="-162" rx="43.59" ry="18"/>
<text text-anchor="middle" x="282.04" y="-158.3" font-family="Times,serif" font-size="14.00" fill="white">conda ❎</text>
</a>
</g>
</g>
<!-- conda&#45;build -->
<g id="node3" class="node">
<title>conda&#45;build</title>
<g id="a_node3"><a xlink:href="https://github.com/conda-forge/conda-build-feedstock" xlink:title="conda build">
<ellipse fill="#fde725" stroke="black" cx="202.04" cy="-90" rx="52" ry="18"/>
<text text-anchor="middle" x="202.04" y="-86.3" font-family="Times,serif" font-size="14.00">conda build</text>
</a>
</g>
</g>
<!-- conda&#45;&gt;conda&#45;build -->
<g id="edge1" class="edge">
<title>conda&#45;&gt;conda&#45;build</title>
<path fill="none" stroke="black" d="M264.29,-145.46C253.67,-136.17 239.97,-124.19 228.14,-113.83"/>
<polygon fill="black" stroke="black" points="230.13,-110.93 220.3,-106.98 225.52,-116.2 230.13,-110.93"/>
</g>
<!-- constructor -->
<g id="node4" class="node">
<title>constructor</title>
<g id="a_node4"><a xlink:href="https://github.com/conda-forge/constructor-feedstock" xlink:title="constructor">
<ellipse fill="#fde725" stroke="black" cx="332.04" cy="-18" rx="50.09" ry="18"/>
<text text-anchor="middle" x="332.04" y="-14.3" font-family="Times,serif" font-size="14.00">constructor</text>
</a>
</g>
</g>
<!-- conda&#45;&gt;constructor -->
<g id="edge2" class="edge">
<title>conda&#45;&gt;constructor</title>
<path fill="none" stroke="black" d="M284.06,-143.8C286.58,-125.53 291.73,-96.01 301.04,-72 304.66,-62.66 309.81,-53.03 314.86,-44.59"/>
<polygon fill="black" stroke="black" points="317.92,-46.3 320.24,-35.96 311.98,-42.59 317.92,-46.3"/>
</g>
<!-- conda&#45;standalone -->
<g id="node5" class="node">
<title>conda&#45;standalone</title>
<g id="a_node5"><a xlink:href="https://github.com/conda-forge/conda-standalone-feedstock" xlink:title="conda standalone">
<ellipse fill="#fde725" stroke="black" cx="382.04" cy="-90" rx="71.5" ry="18"/>
<text text-anchor="middle" x="382.04" y="-86.3" font-family="Times,serif" font-size="14.00">conda standalone</text>
</a>
</g>
</g>
<!-- conda&#45;&gt;conda&#45;standalone -->
<g id="edge3" class="edge">
<title>conda&#45;&gt;conda&#45;standalone</title>
<path fill="none" stroke="black" d="M303.25,-146.15C316.99,-136.54 335.13,-123.84 350.53,-113.05"/>
<polygon fill="black" stroke="black" points="352.58,-115.89 358.77,-107.29 348.57,-110.16 352.58,-115.89"/>
</g>
<!-- conda&#45;standalone&#45;&gt;constructor -->
<g id="edge4" class="edge">
<title>conda&#45;standalone&#45;&gt;constructor</title>
<path fill="none" stroke="black" d="M369.94,-72.05C363.92,-63.63 356.53,-53.28 349.88,-43.97"/>
<polygon fill="black" stroke="black" points="352.69,-41.89 344.03,-35.79 347,-45.96 352.69,-41.89"/>
</g>
<!-- numpy -->
<g id="node6" class="node">
<title>numpy</title>
<g id="a_node6"><a xlink:href="https://github.com/conda-forge/numpy-feedstock" xlink:title="numpy">
<ellipse fill="#fde725" stroke="black" cx="497.04" cy="-90" rx="36" ry="18"/>
<text text-anchor="middle" x="497.04" y="-86.3" font-family="Times,serif" font-size="14.00">numpy</text>
</a>
</g>
</g>
<!-- numpy&#45;&gt;arrow&#45;cpp -->
<g id="edge5" class="edge">
<title>numpy&#45;&gt;arrow&#45;cpp</title>
<path fill="none" stroke="black" d="M524.62,-78.5C530.37,-76.34 536.4,-74.08 542.04,-72 577.14,-59.04 617.08,-44.67 646.47,-34.16"/>
<polygon fill="black" stroke="black" points="647.76,-37.41 656,-30.75 645.41,-30.82 647.76,-37.41"/>
</g>
<!-- pandas -->
<g id="node7" class="node">
<title>pandas</title>
<g id="a_node7"><a xlink:href="https://github.com/conda-forge/pandas-feedstock" xlink:title="pandas">
<ellipse fill="#fde725" stroke="black" cx="497.04" cy="-18" rx="35.19" ry="18"/>
<text text-anchor="middle" x="497.04" y="-14.3" font-family="Times,serif" font-size="14.00">pandas</text>
</a>
</g>
</g>
<!-- numpy&#45;&gt;pandas -->
<g id="edge6" class="edge">
<title>numpy&#45;&gt;pandas</title>
<path fill="none" stroke="black" d="M497.04,-71.7C497.04,-63.98 497.04,-54.71 497.04,-46.11"/>
<polygon fill="black" stroke="black" points="500.54,-46.1 497.04,-36.1 493.54,-46.1 500.54,-46.1"/>
</g>
<!-- python&#45;libarchive&#45;c -->
<g id="node8" class="node">
<title>python&#45;libarchive&#45;c</title>
<g id="a_node8"><a xlink:href="https://github.com/conda-forge/python-libarchive-c-feedstock/pull/18" xlink:title="python libarchive c ✓">
<ellipse fill="#31688e" stroke="black" cx="89.04" cy="-162" rx="89.08" ry="18"/>
<text text-anchor="middle" x="89.04" y="-158.3" font-family="Times,serif" font-size="14.00" fill="white">python libarchive c ✓</text>
</a>
</g>
</g>
<!-- python&#45;libarchive&#45;c&#45;&gt;conda&#45;build -->
<g id="edge7" class="edge">
<title>python&#45;libarchive&#45;c&#45;&gt;conda&#45;build</title>
<path fill="none" stroke="black" d="M115.25,-144.76C131.35,-134.79 152.11,-121.93 169.29,-111.29"/>
<polygon fill="black" stroke="black" points="171.25,-114.19 177.9,-105.95 167.56,-108.24 171.25,-114.19"/>
</g>
<!-- thrift&#45;cpp -->
<g id="node9" class="node">
<title>thrift&#45;cpp</title>
<g id="a_node9"><a xlink:href="https://github.com/conda-forge/thrift-cpp-feedstock/pull/49" xlink:title="thrift cpp ❎">
<ellipse fill="#31688e" stroke="black" cx="606.04" cy="-90" rx="55.49" ry="18"/>
<text text-anchor="middle" x="606.04" y="-86.3" font-family="Times,serif" font-size="14.00" fill="white">thrift cpp ❎</text>
</a>
</g>
</g>
<!-- thrift&#45;cpp&#45;&gt;arrow&#45;cpp -->
<g id="edge8" class="edge">
<title>thrift&#45;cpp&#45;&gt;arrow&#45;cpp</title>
<path fill="none" stroke="black" d="M625.29,-72.76C636.45,-63.36 650.65,-51.38 662.82,-41.12"/>
<polygon fill="black" stroke="black" points="665.08,-43.79 670.47,-34.67 660.57,-38.44 665.08,-43.79"/>
</g>
<!-- llvmdev -->
<g id="node10" class="node">
<title>llvmdev</title>
<g id="a_node10"><a xlink:href="https://github.com/conda-forge/llvmdev-feedstock/pull/101" xlink:title="llvmdev ❎">
<ellipse fill="#31688e" stroke="black" cx="707.04" cy="-162" rx="52" ry="18"/>
<text text-anchor="middle" x="707.04" y="-158.3" font-family="Times,serif" font-size="14.00" fill="white">llvmdev ❎</text>
</a>
</g>
</g>
<!-- llvmdev&#45;&gt;arrow&#45;cpp -->
<g id="edge9" class="edge">
<title>llvmdev&#45;&gt;arrow&#45;cpp</title>
<path fill="none" stroke="black" d="M704.87,-143.87C701.8,-119.67 696.17,-75.21 692.51,-46.39"/>
<polygon fill="black" stroke="black" points="695.95,-45.67 691.22,-36.19 689.01,-46.55 695.95,-45.67"/>
</g>
<!-- clangdev -->
<g id="node11" class="node">
<title>clangdev</title>
<g id="a_node11"><a xlink:href="https://github.com/conda-forge/clangdev-feedstock" xlink:title="clangdev">
<ellipse fill="#fde725" stroke="black" cx="759.04" cy="-90" rx="42.49" ry="18"/>
<text text-anchor="middle" x="759.04" y="-86.3" font-family="Times,serif" font-size="14.00">clangdev</text>
</a>
</g>
</g>
<!-- llvmdev&#45;&gt;clangdev -->
<g id="edge10" class="edge">
<title>llvmdev&#45;&gt;clangdev</title>
<path fill="none" stroke="black" d="M719.37,-144.41C725.71,-135.87 733.58,-125.28 740.63,-115.79"/>
<polygon fill="black" stroke="black" points="743.65,-117.58 746.81,-107.47 738.03,-113.41 743.65,-117.58"/>
</g>
<!-- clangdev&#45;&gt;arrow&#45;cpp -->
<g id="edge11" class="edge">
<title>clangdev&#45;&gt;arrow&#45;cpp</title>
<path fill="none" stroke="black" d="M743.16,-73.12C734.16,-64.12 722.72,-52.68 712.69,-42.65"/>
<polygon fill="black" stroke="black" points="714.9,-39.9 705.35,-35.31 709.95,-44.85 714.9,-39.9"/>
</g>
<!-- blas -->
<g id="node12" class="node">
<title>blas</title>
<g id="a_node12"><a xlink:href="https://github.com/conda-forge/blas-feedstock" xlink:title="blas">
<ellipse fill="#fde725" stroke="black" cx="497.04" cy="-162" rx="27" ry="18"/>
<text text-anchor="middle" x="497.04" y="-158.3" font-family="Times,serif" font-size="14.00">blas</text>
</a>
</g>
</g>
<!-- blas&#45;&gt;numpy -->
<g id="edge12" class="edge">
<title>blas&#45;&gt;numpy</title>
<path fill="none" stroke="black" d="M497.04,-143.7C497.04,-135.98 497.04,-126.71 497.04,-118.11"/>
<polygon fill="black" stroke="black" points="500.54,-118.1 497.04,-108.1 493.54,-118.1 500.54,-118.1"/>
</g>
<!-- blis -->
<g id="node13" class="node">
<title>blis</title>
<g id="a_node13"><a xlink:href="https://github.com/conda-forge/blis-feedstock/pull/18" xlink:title="blis ❎">
<ellipse fill="#31688e" stroke="black" cx="497.04" cy="-234" rx="35.19" ry="18"/>
<text text-anchor="middle" x="497.04" y="-230.3" font-family="Times,serif" font-size="14.00" fill="white">blis ❎</text>
</a>
</g>
</g>
<!-- blis&#45;&gt;blas -->
<g id="edge13" class="edge">
<title>blis&#45;&gt;blas</title>
<path fill="none" stroke="black" d="M497.04,-215.7C497.04,-207.98 497.04,-198.71 497.04,-190.11"/>
<polygon fill="black" stroke="black" points="500.54,-190.1 497.04,-180.1 493.54,-190.1 500.54,-190.1"/>
</g>
<!-- orc -->
<g id="node14" class="node">
<title>orc</title>
<g id="a_node14"><a xlink:href="https://github.com/conda-forge/orc-feedstock/pull/20" xlink:title="orc ❎">
<ellipse fill="#31688e" stroke="black" cx="829.04" cy="-162" rx="34" ry="18"/>
<text text-anchor="middle" x="829.04" y="-158.3" font-family="Times,serif" font-size="14.00" fill="white">orc ❎</text>
</a>
</g>
</g>
<!-- orc&#45;&gt;arrow&#45;cpp -->
<g id="edge14" class="edge">
<title>orc&#45;&gt;arrow&#45;cpp</title>
<path fill="none" stroke="black" d="M829.8,-143.97C829.76,-124.47 826.82,-92.57 810.04,-72 792.38,-50.35 764.13,-37.3 739.36,-29.57"/>
<polygon fill="black" stroke="black" points="740.3,-26.2 729.72,-26.77 738.34,-32.92 740.3,-26.2"/>
</g>
<!-- ripgrep -->
<g id="node15" class="node">
<title>ripgrep</title>
<g id="a_node15"><a xlink:href="https://github.com/conda-forge/ripgrep-feedstock/pull/15" xlink:title="ripgrep ❎">
<ellipse fill="#31688e" stroke="black" cx="206.04" cy="-234" rx="48.19" ry="18"/>
<text text-anchor="middle" x="206.04" y="-230.3" font-family="Times,serif" font-size="14.00" fill="white">ripgrep ❎</text>
</a>
</g>
</g>
<!-- ripgrep&#45;&gt;conda&#45;build -->
<g id="edge15" class="edge">
<title>ripgrep&#45;&gt;conda&#45;build</title>
<path fill="none" stroke="black" d="M205.56,-215.87C204.88,-191.67 203.63,-147.21 202.81,-118.39"/>
<polygon fill="black" stroke="black" points="206.31,-118.09 202.53,-108.19 199.31,-118.28 206.31,-118.09"/>
</g>
</g>
</svg>
