<?xml version="1.0" encoding="UTF-8" standalone="no"?>
<!DOCTYPE svg PUBLIC "-//W3C//DTD SVG 1.1//EN"
 "http://www.w3.org/Graphics/SVG/1.1/DTD/svg11.dtd">
<!-- Generated by graphviz version 2.42.3 (20191010.1750)
 -->
<!-- Title: %3 Pages: 1 -->
<svg width="2534pt" height="692pt"
 viewBox="0.00 0.00 2534.00 692.00" xmlns="http://www.w3.org/2000/svg" xmlns:xlink="http://www.w3.org/1999/xlink">
<g id="graph0" class="graph" transform="scale(1 1) rotate(0) translate(4 688)">
<title>%3</title>
<polygon fill="white" stroke="transparent" points="-4,4 -4,-688 2530,-688 2530,4 -4,4"/>
<!-- beautifulsoup4 -->
<g id="node1" class="node">
<title>beautifulsoup4</title>
<g id="a_node1"><a xlink:href="https://github.com/conda-forge/beautifulsoup4-feedstock" xlink:title="beautifulsoup4">
<ellipse fill="#fde725" stroke="black" cx="1629" cy="-378" rx="63.09" ry="18"/>
<text text-anchor="middle" x="1629" y="-374.3" font-family="Times,serif" font-size="14.00">beautifulsoup4</text>
</a>
</g>
</g>
<!-- conda&#45;build -->
<g id="node2" class="node">
<title>conda&#45;build</title>
<g id="a_node2"><a xlink:href="https://github.com/conda-forge/conda-build-feedstock" xlink:title="conda build">
<ellipse fill="#fde725" stroke="black" cx="888" cy="-18" rx="52" ry="18"/>
<text text-anchor="middle" x="888" y="-14.3" font-family="Times,serif" font-size="14.00">conda build</text>
</a>
</g>
</g>
<!-- beautifulsoup4&#45;&gt;conda&#45;build -->
<g id="edge1" class="edge">
<title>beautifulsoup4&#45;&gt;conda&#45;build</title>
<path fill="none" stroke="black" d="M1617.81,-359.87C1601.99,-333.96 1575,-282.74 1575,-235 1575,-235 1575,-235 1575,-161 1575,-34.04 1119.33,-19.69 950.2,-18.74"/>
<polygon fill="black" stroke="black" points="950.22,-15.24 940.2,-18.7 950.19,-22.24 950.22,-15.24"/>
</g>
<!-- brotlipy -->
<g id="node3" class="node">
<title>brotlipy</title>
<g id="a_node3"><a xlink:href="https://github.com/conda-forge/brotlipy-feedstock" xlink:title="brotlipy">
<ellipse fill="#fde725" stroke="black" cx="637" cy="-234" rx="38.5" ry="18"/>
<text text-anchor="middle" x="637" y="-230.3" font-family="Times,serif" font-size="14.00">brotlipy</text>
</a>
</g>
</g>
<!-- brotlipy&#45;&gt;conda&#45;build -->
<g id="edge2" class="edge">
<title>brotlipy&#45;&gt;conda&#45;build</title>
<path fill="none" stroke="black" d="M639.19,-215.87C642.3,-196.85 649.46,-165.95 665,-144 707.04,-84.62 786.68,-50.03 838.53,-32.83"/>
<polygon fill="black" stroke="black" points="839.75,-36.12 848.19,-29.72 837.6,-29.45 839.75,-36.12"/>
</g>
<!-- conda -->
<g id="node4" class="node">
<title>conda</title>
<g id="a_node4"><a xlink:href="https://github.com/conda-forge/conda-feedstock" xlink:title="conda">
<ellipse fill="#fde725" stroke="black" cx="570" cy="-90" rx="32" ry="18"/>
<text text-anchor="middle" x="570" y="-86.3" font-family="Times,serif" font-size="14.00">conda</text>
</a>
</g>
</g>
<!-- brotlipy&#45;&gt;conda -->
<g id="edge3" class="edge">
<title>brotlipy&#45;&gt;conda</title>
<path fill="none" stroke="black" d="M629.05,-216.15C617.47,-191.6 595.84,-145.77 582.22,-116.91"/>
<polygon fill="black" stroke="black" points="585.37,-115.38 577.94,-107.82 579.04,-118.36 585.37,-115.38"/>
</g>
<!-- conda&#45;&gt;conda&#45;build -->
<g id="edge4" class="edge">
<title>conda&#45;&gt;conda&#45;build</title>
<path fill="none" stroke="black" d="M597.99,-80.92C608.6,-77.96 620.82,-74.69 632,-72 701.09,-55.39 781.42,-39.28 833.41,-29.26"/>
<polygon fill="black" stroke="black" points="834.25,-32.66 843.41,-27.34 832.93,-25.79 834.25,-32.66"/>
</g>
<!-- certifi -->
<g id="node5" class="node">
<title>certifi</title>
<g id="a_node5"><a xlink:href="https://github.com/conda-forge/certifi-feedstock" xlink:title="certifi">
<ellipse fill="#fde725" stroke="black" cx="819" cy="-522" rx="32" ry="18"/>
<text text-anchor="middle" x="819" y="-518.3" font-family="Times,serif" font-size="14.00">certifi</text>
</a>
</g>
</g>
<!-- certifi&#45;&gt;conda&#45;build -->
<g id="edge5" class="edge">
<title>certifi&#45;&gt;conda&#45;build</title>
<path fill="none" stroke="black" d="M811.29,-504.36C799.93,-478.24 780,-425.79 780,-379 780,-379 780,-379 780,-305 780,-203.03 840.82,-93.04 871.18,-44.49"/>
<polygon fill="black" stroke="black" points="874.24,-46.21 876.65,-35.89 868.33,-42.45 874.24,-46.21"/>
</g>
<!-- certifi&#45;&gt;conda -->
<g id="edge6" class="edge">
<title>certifi&#45;&gt;conda</title>
<path fill="none" stroke="black" d="M800.7,-507.2C754.71,-471.26 634.72,-369.37 589,-252 571.65,-207.47 568.96,-151.18 569.11,-118.32"/>
<polygon fill="black" stroke="black" points="572.61,-118.17 569.26,-108.13 565.61,-118.08 572.61,-118.17"/>
</g>
<!-- setuptools -->
<g id="node6" class="node">
<title>setuptools</title>
<g id="a_node6"><a xlink:href="https://github.com/conda-forge/setuptools-feedstock" xlink:title="setuptools">
<ellipse fill="#fde725" stroke="black" cx="881" cy="-450" rx="46.29" ry="18"/>
<text text-anchor="middle" x="881" y="-446.3" font-family="Times,serif" font-size="14.00">setuptools</text>
</a>
</g>
</g>
<!-- certifi&#45;&gt;setuptools -->
<g id="edge7" class="edge">
<title>certifi&#45;&gt;setuptools</title>
<path fill="none" stroke="black" d="M832.76,-505.46C840.64,-496.57 850.7,-485.21 859.6,-475.16"/>
<polygon fill="black" stroke="black" points="862.4,-477.27 866.41,-467.47 857.16,-472.63 862.4,-477.27"/>
</g>
<!-- setuptools&#45;&gt;beautifulsoup4 -->
<g id="edge8" class="edge">
<title>setuptools&#45;&gt;beautifulsoup4</title>
<path fill="none" stroke="black" d="M926.36,-446.33C1031.03,-439.94 1297.43,-422.29 1519,-396 1534.35,-394.18 1550.84,-391.84 1566.27,-389.48"/>
<polygon fill="black" stroke="black" points="1566.89,-392.92 1576.23,-387.93 1565.81,-386.01 1566.89,-392.92"/>
</g>
<!-- setuptools&#45;&gt;conda&#45;build -->
<g id="edge9" class="edge">
<title>setuptools&#45;&gt;conda&#45;build</title>
<path fill="none" stroke="black" d="M875.94,-431.68C868.64,-405.11 856,-352.56 856,-307 856,-307 856,-307 856,-161 856,-120.04 868.83,-74.02 878.24,-45.77"/>
<polygon fill="black" stroke="black" points="881.59,-46.8 881.52,-36.21 874.97,-44.53 881.59,-46.8"/>
</g>
<!-- setuptools&#45;&gt;brotlipy -->
<g id="edge10" class="edge">
<title>setuptools&#45;&gt;brotlipy</title>
<path fill="none" stroke="black" d="M838.67,-442.75C805.48,-436.01 759.74,-422.46 728,-396 684.57,-359.79 657.83,-297.21 645.37,-261.67"/>
<polygon fill="black" stroke="black" points="648.61,-260.34 642.09,-251.99 641.98,-262.58 648.61,-260.34"/>
</g>
<!-- setuptools&#45;&gt;conda -->
<g id="edge11" class="edge">
<title>setuptools&#45;&gt;conda</title>
<path fill="none" stroke="black" d="M866.87,-432.73C858.71,-422.68 848.76,-409.22 842,-396 788.44,-291.26 845.85,-225.49 761,-144 720.88,-105.46 655.25,-94.46 612.34,-91.59"/>
<polygon fill="black" stroke="black" points="612.4,-88.08 602.22,-91.03 612.01,-95.07 612.4,-88.08"/>
</g>
<!-- chardet -->
<g id="node7" class="node">
<title>chardet</title>
<g id="a_node7"><a xlink:href="https://github.com/conda-forge/chardet-feedstock" xlink:title="chardet">
<ellipse fill="#fde725" stroke="black" cx="921" cy="-162" rx="36.5" ry="18"/>
<text text-anchor="middle" x="921" y="-158.3" font-family="Times,serif" font-size="14.00">chardet</text>
</a>
</g>
</g>
<!-- setuptools&#45;&gt;chardet -->
<g id="edge12" class="edge">
<title>setuptools&#45;&gt;chardet</title>
<path fill="none" stroke="black" d="M883.38,-431.97C890.06,-384.19 909.02,-248.62 917.19,-190.27"/>
<polygon fill="black" stroke="black" points="920.66,-190.69 918.58,-180.31 913.73,-189.73 920.66,-190.69"/>
</g>
<!-- cython -->
<g id="node8" class="node">
<title>cython</title>
<g id="a_node8"><a xlink:href="https://github.com/conda-forge/cython-feedstock" xlink:title="cython">
<ellipse fill="#fde725" stroke="black" cx="282" cy="-378" rx="34.5" ry="18"/>
<text text-anchor="middle" x="282" y="-374.3" font-family="Times,serif" font-size="14.00">cython</text>
</a>
</g>
</g>
<!-- setuptools&#45;&gt;cython -->
<g id="edge13" class="edge">
<title>setuptools&#45;&gt;cython</title>
<path fill="none" stroke="black" d="M834.88,-448.95C738.7,-447.91 510.27,-440.51 325,-396 322.38,-395.37 319.71,-394.62 317.05,-393.78"/>
<polygon fill="black" stroke="black" points="318.13,-390.45 307.54,-390.46 315.83,-397.06 318.13,-390.45"/>
</g>
<!-- ruamel_yaml -->
<g id="node9" class="node">
<title>ruamel_yaml</title>
<g id="a_node9"><a xlink:href="https://github.com/conda-forge/ruamel_yaml-feedstock" xlink:title="ruamel_yaml">
<ellipse fill="#fde725" stroke="black" cx="218" cy="-306" rx="58" ry="18"/>
<text text-anchor="middle" x="218" y="-302.3" font-family="Times,serif" font-size="14.00">ruamel_yaml</text>
</a>
</g>
</g>
<!-- setuptools&#45;&gt;ruamel_yaml -->
<g id="edge14" class="edge">
<title>setuptools&#45;&gt;ruamel_yaml</title>
<path fill="none" stroke="black" d="M835.42,-446.69C763.25,-442.14 618.76,-429.37 501,-396 462.71,-385.15 456.58,-373.11 419,-360 370.84,-343.19 314.59,-328.79 273.86,-319.26"/>
<polygon fill="black" stroke="black" points="274.65,-315.85 264.11,-317 273.07,-322.67 274.65,-315.85"/>
</g>
<!-- conda&#45;package&#45;handling -->
<g id="node10" class="node">
<title>conda&#45;package&#45;handling</title>
<g id="a_node10"><a xlink:href="https://github.com/conda-forge/conda-package-handling-feedstock" xlink:title="conda package handling">
<ellipse fill="#fde725" stroke="black" cx="428" cy="-306" rx="96.38" ry="18"/>
<text text-anchor="middle" x="428" y="-302.3" font-family="Times,serif" font-size="14.00">conda package handling</text>
</a>
</g>
</g>
<!-- setuptools&#45;&gt;conda&#45;package&#45;handling -->
<g id="edge15" class="edge">
<title>setuptools&#45;&gt;conda&#45;package&#45;handling</title>
<path fill="none" stroke="black" d="M835.71,-446.34C774.93,-441.62 664.38,-428.94 576,-396 532.21,-379.68 486.87,-350.24 458.11,-329.7"/>
<polygon fill="black" stroke="black" points="459.89,-326.67 449.74,-323.64 455.79,-332.34 459.89,-326.67"/>
</g>
<!-- python&#45;libarchive&#45;c -->
<g id="node11" class="node">
<title>python&#45;libarchive&#45;c</title>
<g id="a_node11"><a xlink:href="https://github.com/conda-forge/python-libarchive-c-feedstock" xlink:title="python libarchive c">
<ellipse fill="#fde725" stroke="black" cx="1790" cy="-378" rx="79.5" ry="18"/>
<text text-anchor="middle" x="1790" y="-374.3" font-family="Times,serif" font-size="14.00">python libarchive c</text>
</a>
</g>
</g>
<!-- setuptools&#45;&gt;python&#45;libarchive&#45;c -->
<g id="edge16" class="edge">
<title>setuptools&#45;&gt;python&#45;libarchive&#45;c</title>
<path fill="none" stroke="black" d="M926.98,-448.03C1051.87,-444.96 1407.71,-433.34 1701,-396 1708.38,-395.06 1716.07,-393.89 1723.7,-392.6"/>
<polygon fill="black" stroke="black" points="1724.43,-396.03 1733.67,-390.85 1723.22,-389.13 1724.43,-396.03"/>
</g>
<!-- markupsafe -->
<g id="node12" class="node">
<title>markupsafe</title>
<g id="a_node12"><a xlink:href="https://github.com/conda-forge/markupsafe-feedstock" xlink:title="markupsafe">
<ellipse fill="#fde725" stroke="black" cx="1306" cy="-378" rx="52" ry="18"/>
<text text-anchor="middle" x="1306" y="-374.3" font-family="Times,serif" font-size="14.00">markupsafe</text>
</a>
</g>
</g>
<!-- setuptools&#45;&gt;markupsafe -->
<g id="edge17" class="edge">
<title>setuptools&#45;&gt;markupsafe</title>
<path fill="none" stroke="black" d="M922.96,-442.3C985.05,-432.36 1105.06,-413.04 1207,-396 1221.12,-393.64 1236.36,-391.05 1250.55,-388.61"/>
<polygon fill="black" stroke="black" points="1251.41,-392.01 1260.67,-386.87 1250.22,-385.12 1251.41,-392.01"/>
</g>
<!-- pluggy -->
<g id="node13" class="node">
<title>pluggy</title>
<g id="a_node13"><a xlink:href="https://github.com/conda-forge/pluggy-feedstock" xlink:title="pluggy">
<ellipse fill="#fde725" stroke="black" cx="1054" cy="-306" rx="35.19" ry="18"/>
<text text-anchor="middle" x="1054" y="-302.3" font-family="Times,serif" font-size="14.00">pluggy</text>
</a>
</g>
</g>
<!-- setuptools&#45;&gt;pluggy -->
<g id="edge18" class="edge">
<title>setuptools&#45;&gt;pluggy</title>
<path fill="none" stroke="black" d="M900.08,-433.49C913.04,-422.94 930.57,-408.65 946,-396 974.16,-372.92 1006.36,-346.36 1028.22,-328.31"/>
<polygon fill="black" stroke="black" points="1030.58,-330.9 1036.06,-321.83 1026.12,-325.5 1030.58,-330.9"/>
</g>
<!-- pytest -->
<g id="node14" class="node">
<title>pytest</title>
<g id="a_node14"><a xlink:href="https://github.com/conda-forge/pytest-feedstock" xlink:title="pytest">
<ellipse fill="#fde725" stroke="black" cx="1054" cy="-234" rx="32" ry="18"/>
<text text-anchor="middle" x="1054" y="-230.3" font-family="Times,serif" font-size="14.00">pytest</text>
</a>
</g>
</g>
<!-- setuptools&#45;&gt;pytest -->
<g id="edge19" class="edge">
<title>setuptools&#45;&gt;pytest</title>
<path fill="none" stroke="black" d="M892.58,-432.3C905.29,-414.18 926.47,-384.56 946,-360 975.15,-323.33 1011.06,-282.57 1033.25,-257.87"/>
<polygon fill="black" stroke="black" points="1035.85,-260.21 1039.94,-250.44 1030.65,-255.53 1035.85,-260.21"/>
</g>
<!-- psutil -->
<g id="node15" class="node">
<title>psutil</title>
<g id="a_node15"><a xlink:href="https://github.com/conda-forge/psutil-feedstock" xlink:title="psutil">
<ellipse fill="#fde725" stroke="black" cx="1407" cy="-378" rx="30.59" ry="18"/>
<text text-anchor="middle" x="1407" y="-374.3" font-family="Times,serif" font-size="14.00">psutil</text>
</a>
</g>
</g>
<!-- setuptools&#45;&gt;psutil -->
<g id="edge20" class="edge">
<title>setuptools&#45;&gt;psutil</title>
<path fill="none" stroke="black" d="M927.03,-448.44C1014.28,-446.41 1209.11,-437.2 1367,-396 1369.49,-395.35 1372.03,-394.57 1374.56,-393.71"/>
<polygon fill="black" stroke="black" points="1376.03,-396.89 1384.14,-390.07 1373.55,-390.35 1376.03,-396.89"/>
</g>
<!-- pycosat -->
<g id="node16" class="node">
<title>pycosat</title>
<g id="a_node16"><a xlink:href="https://github.com/conda-forge/pycosat-feedstock" xlink:title="pycosat">
<ellipse fill="#fde725" stroke="black" cx="372" cy="-378" rx="37.89" ry="18"/>
<text text-anchor="middle" x="372" y="-374.3" font-family="Times,serif" font-size="14.00">pycosat</text>
</a>
</g>
</g>
<!-- setuptools&#45;&gt;pycosat -->
<g id="edge21" class="edge">
<title>setuptools&#45;&gt;pycosat</title>
<path fill="none" stroke="black" d="M837.14,-444.34C760.74,-436.03 598.35,-417.48 462,-396 447.09,-393.65 430.85,-390.7 416.33,-387.93"/>
<polygon fill="black" stroke="black" points="416.59,-384.41 406.1,-385.95 415.26,-391.29 416.59,-384.41"/>
</g>
<!-- pysocks -->
<g id="node17" class="node">
<title>pysocks</title>
<g id="a_node17"><a xlink:href="https://github.com/conda-forge/pysocks-feedstock" xlink:title="pysocks">
<ellipse fill="#fde725" stroke="black" cx="713" cy="-162" rx="39" ry="18"/>
<text text-anchor="middle" x="713" y="-158.3" font-family="Times,serif" font-size="14.00">pysocks</text>
</a>
</g>
</g>
<!-- setuptools&#45;&gt;pysocks -->
<g id="edge22" class="edge">
<title>setuptools&#45;&gt;pysocks</title>
<path fill="none" stroke="black" d="M853.3,-435.35C837.06,-426.15 817.2,-412.66 804,-396 753.33,-332.06 728.02,-236.49 718.14,-190.14"/>
<polygon fill="black" stroke="black" points="721.55,-189.34 716.11,-180.24 714.69,-190.74 721.55,-189.34"/>
</g>
<!-- cryptography -->
<g id="node18" class="node">
<title>cryptography</title>
<g id="a_node18"><a xlink:href="https://github.com/conda-forge/cryptography-feedstock" xlink:title="cryptography">
<ellipse fill="#fde725" stroke="black" cx="370" cy="-234" rx="58" ry="18"/>
<text text-anchor="middle" x="370" y="-230.3" font-family="Times,serif" font-size="14.00">cryptography</text>
</a>
</g>
</g>
<!-- setuptools&#45;&gt;cryptography -->
<g id="edge23" class="edge">
<title>setuptools&#45;&gt;cryptography</title>
<path fill="none" stroke="black" d="M840.07,-441.4C801.07,-433.26 741.3,-418.4 693,-396 615.17,-359.9 610.1,-325.63 533,-288 498.1,-270.97 456.43,-257.53 423.95,-248.44"/>
<polygon fill="black" stroke="black" points="424.76,-245.03 414.19,-245.76 422.9,-251.79 424.76,-245.03"/>
</g>
<!-- importlib_metadata -->
<g id="node19" class="node">
<title>importlib_metadata</title>
<g id="a_node19"><a xlink:href="https://github.com/conda-forge/importlib_metadata-feedstock" xlink:title="importlib_metadata">
<ellipse fill="#fde725" stroke="black" cx="1117" cy="-378" rx="80.69" ry="18"/>
<text text-anchor="middle" x="1117" y="-374.3" font-family="Times,serif" font-size="14.00">importlib_metadata</text>
</a>
</g>
</g>
<!-- setuptools&#45;&gt;importlib_metadata -->
<g id="edge24" class="edge">
<title>setuptools&#45;&gt;importlib_metadata</title>
<path fill="none" stroke="black" d="M916.59,-438.44C954.78,-427.12 1015.97,-408.97 1060.7,-395.7"/>
<polygon fill="black" stroke="black" points="1061.96,-398.98 1070.55,-392.78 1059.96,-392.27 1061.96,-398.98"/>
</g>
<!-- lief -->
<g id="node20" class="node">
<title>lief</title>
<g id="a_node20"><a xlink:href="https://github.com/conda-forge/lief-feedstock" xlink:title="lief">
<ellipse fill="#fde725" stroke="black" cx="1483" cy="-378" rx="27" ry="18"/>
<text text-anchor="middle" x="1483" y="-374.3" font-family="Times,serif" font-size="14.00">lief</text>
</a>
</g>
</g>
<!-- setuptools&#45;&gt;lief -->
<g id="edge25" class="edge">
<title>setuptools&#45;&gt;lief</title>
<path fill="none" stroke="black" d="M926.54,-446.77C1042.95,-440.76 1349.07,-422.81 1447,-396 1448.95,-395.47 1450.92,-394.83 1452.89,-394.13"/>
<polygon fill="black" stroke="black" points="1454.62,-397.2 1462.53,-390.16 1451.95,-390.73 1454.62,-397.2"/>
</g>
<!-- chardet&#45;&gt;conda&#45;build -->
<g id="edge26" class="edge">
<title>chardet&#45;&gt;conda&#45;build</title>
<path fill="none" stroke="black" d="M917.02,-143.87C911.37,-119.56 900.97,-74.82 894.28,-46.01"/>
<polygon fill="black" stroke="black" points="897.67,-45.14 891.99,-36.19 890.85,-46.72 897.67,-45.14"/>
</g>
<!-- chardet&#45;&gt;conda -->
<g id="edge27" class="edge">
<title>chardet&#45;&gt;conda</title>
<path fill="none" stroke="black" d="M887.66,-154.35C822.72,-141.4 679.52,-112.84 609.75,-98.93"/>
<polygon fill="black" stroke="black" points="610.1,-95.43 599.61,-96.91 608.73,-102.29 610.1,-95.43"/>
</g>
<!-- cython&#45;&gt;ruamel_yaml -->
<g id="edge30" class="edge">
<title>cython&#45;&gt;ruamel_yaml</title>
<path fill="none" stroke="black" d="M267.8,-361.46C259.58,-352.48 249.07,-340.98 239.82,-330.87"/>
<polygon fill="black" stroke="black" points="242.39,-328.49 233.06,-323.47 237.22,-333.21 242.39,-328.49"/>
</g>
<!-- cython&#45;&gt;conda&#45;package&#45;handling -->
<g id="edge31" class="edge">
<title>cython&#45;&gt;conda&#45;package&#45;handling</title>
<path fill="none" stroke="black" d="M306.44,-365.28C327.98,-354.95 359.86,-339.67 385.56,-327.35"/>
<polygon fill="black" stroke="black" points="387.22,-330.44 394.72,-322.96 384.19,-324.12 387.22,-330.44"/>
</g>
<!-- pyyaml -->
<g id="node23" class="node">
<title>pyyaml</title>
<g id="a_node23"><a xlink:href="https://github.com/conda-forge/pyyaml-feedstock" xlink:title="pyyaml">
<ellipse fill="#fde725" stroke="black" cx="104" cy="-306" rx="37.89" ry="18"/>
<text text-anchor="middle" x="104" y="-302.3" font-family="Times,serif" font-size="14.00">pyyaml</text>
</a>
</g>
</g>
<!-- cython&#45;&gt;pyyaml -->
<g id="edge29" class="edge">
<title>cython&#45;&gt;pyyaml</title>
<path fill="none" stroke="black" d="M255.35,-366.52C225.25,-354.68 176.03,-335.33 141.93,-321.92"/>
<polygon fill="black" stroke="black" points="142.89,-318.53 132.3,-318.13 140.33,-325.05 142.89,-318.53"/>
</g>
<!-- ruamel_yaml&#45;&gt;conda -->
<g id="edge33" class="edge">
<title>ruamel_yaml&#45;&gt;conda</title>
<path fill="none" stroke="black" d="M262.68,-294.45C326.24,-279.42 435.33,-253.45 437,-252 476.02,-218.14 446.37,-183.22 480,-144 494.67,-126.88 516.32,-113.89 534.71,-105.06"/>
<polygon fill="black" stroke="black" points="536.34,-108.16 543.97,-100.81 533.42,-101.8 536.34,-108.16"/>
</g>
<!-- conda&#45;package&#45;handling&#45;&gt;conda&#45;build -->
<g id="edge34" class="edge">
<title>conda&#45;package&#45;handling&#45;&gt;conda&#45;build</title>
<path fill="none" stroke="black" d="M362.44,-292.75C339.7,-285.02 316.53,-272.44 303,-252 245.35,-164.94 312.86,-135.17 438,-72 504.59,-38.39 719.45,-25.49 826.37,-21.06"/>
<polygon fill="black" stroke="black" points="826.53,-24.56 836.38,-20.66 826.24,-17.57 826.53,-24.56"/>
</g>
<!-- conda&#45;package&#45;handling&#45;&gt;conda -->
<g id="edge35" class="edge">
<title>conda&#45;package&#45;handling&#45;&gt;conda</title>
<path fill="none" stroke="black" d="M461.55,-288.99C477.43,-280 495.59,-267.46 508,-252 525.17,-230.62 549.49,-157.49 561.95,-117.55"/>
<polygon fill="black" stroke="black" points="565.31,-118.52 564.92,-107.93 558.63,-116.46 565.31,-118.52"/>
</g>
<!-- python&#45;libarchive&#45;c&#45;&gt;conda&#45;build -->
<g id="edge42" class="edge">
<title>python&#45;libarchive&#45;c&#45;&gt;conda&#45;build</title>
<path fill="none" stroke="black" d="M1763.9,-360.82C1729.97,-337.54 1675,-291.15 1675,-235 1675,-235 1675,-235 1675,-161 1675,-81.56 1595.83,-95.66 1520,-72 1414.87,-39.2 1088.15,-25.3 950.33,-20.79"/>
<polygon fill="black" stroke="black" points="950.05,-17.28 939.95,-20.45 949.83,-24.27 950.05,-17.28"/>
</g>
<!-- markupsafe&#45;&gt;conda&#45;build -->
<g id="edge48" class="edge">
<title>markupsafe&#45;&gt;conda&#45;build</title>
<path fill="none" stroke="black" d="M1290.46,-360.57C1268.49,-335.55 1231,-285.46 1231,-235 1231,-235 1231,-235 1231,-161 1231,-99.22 1038.63,-50.33 942.02,-29.68"/>
<polygon fill="black" stroke="black" points="942.65,-26.23 932.14,-27.59 941.2,-33.08 942.65,-26.23"/>
</g>
<!-- pluggy&#45;&gt;pytest -->
<g id="edge49" class="edge">
<title>pluggy&#45;&gt;pytest</title>
<path fill="none" stroke="black" d="M1054,-287.7C1054,-279.98 1054,-270.71 1054,-262.11"/>
<polygon fill="black" stroke="black" points="1057.5,-262.1 1054,-252.1 1050.5,-262.1 1057.5,-262.1"/>
</g>
<!-- pytest&#45;&gt;chardet -->
<g id="edge50" class="edge">
<title>pytest&#45;&gt;chardet</title>
<path fill="none" stroke="black" d="M1031.44,-221.13C1010.24,-209.97 978.26,-193.14 954.16,-180.45"/>
<polygon fill="black" stroke="black" points="955.5,-177.2 945.02,-175.64 952.24,-183.4 955.5,-177.2"/>
</g>
<!-- psutil&#45;&gt;conda&#45;build -->
<g id="edge51" class="edge">
<title>psutil&#45;&gt;conda&#45;build</title>
<path fill="none" stroke="black" d="M1414.51,-360.34C1425.58,-334.2 1445,-281.7 1445,-235 1445,-235 1445,-235 1445,-161 1445,-59.65 1094.33,-29.73 949.47,-21.7"/>
<polygon fill="black" stroke="black" points="949.58,-18.2 939.4,-21.16 949.2,-25.19 949.58,-18.2"/>
</g>
<!-- pycosat&#45;&gt;conda -->
<g id="edge52" class="edge">
<title>pycosat&#45;&gt;conda</title>
<path fill="none" stroke="black" d="M353.28,-361.97C332.6,-343.55 304.54,-311.85 323,-288 362.06,-237.53 409.94,-288.91 462,-252 475.01,-242.77 527.99,-158.91 554.59,-116.02"/>
<polygon fill="black" stroke="black" points="557.71,-117.63 560,-107.29 551.76,-113.95 557.71,-117.63"/>
</g>
<!-- pysocks&#45;&gt;conda&#45;build -->
<g id="edge53" class="edge">
<title>pysocks&#45;&gt;conda&#45;build</title>
<path fill="none" stroke="black" d="M727.23,-145.17C744.42,-126.52 774.69,-95.15 804,-72 819.27,-59.94 837.4,-48.21 852.9,-38.87"/>
<polygon fill="black" stroke="black" points="854.87,-41.77 861.68,-33.66 851.3,-35.75 854.87,-41.77"/>
</g>
<!-- pysocks&#45;&gt;conda -->
<g id="edge54" class="edge">
<title>pysocks&#45;&gt;conda</title>
<path fill="none" stroke="black" d="M687.1,-148.32C663.41,-136.72 628.25,-119.51 602.64,-106.98"/>
<polygon fill="black" stroke="black" points="603.86,-103.68 593.34,-102.42 600.78,-109.96 603.86,-103.68"/>
</g>
<!-- cryptography&#45;&gt;conda&#45;build -->
<g id="edge55" class="edge">
<title>cryptography&#45;&gt;conda&#45;build</title>
<path fill="none" stroke="black" d="M372.74,-215.82C376.58,-196.47 385.2,-164.99 403,-144 444.72,-94.81 468.04,-93.07 529,-72 629.31,-37.32 753.06,-25.33 825.97,-21.19"/>
<polygon fill="black" stroke="black" points="826.55,-24.66 836.35,-20.63 826.17,-17.67 826.55,-24.66"/>
</g>
<!-- cryptography&#45;&gt;conda -->
<g id="edge56" class="edge">
<title>cryptography&#45;&gt;conda</title>
<path fill="none" stroke="black" d="M379.97,-216.11C392.33,-196.45 415.09,-164.1 442,-144 469,-123.83 504.78,-109.87 531.65,-101.35"/>
<polygon fill="black" stroke="black" points="532.93,-104.62 541.47,-98.36 530.89,-97.93 532.93,-104.62"/>
</g>
<!-- importlib_metadata&#45;&gt;pluggy -->
<g id="edge57" class="edge">
<title>importlib_metadata&#45;&gt;pluggy</title>
<path fill="none" stroke="black" d="M1101.75,-360.05C1093.7,-351.12 1083.71,-340.01 1074.95,-330.28"/>
<polygon fill="black" stroke="black" points="1077.54,-327.92 1068.25,-322.83 1072.33,-332.6 1077.54,-327.92"/>
</g>
<!-- importlib_metadata&#45;&gt;pytest -->
<g id="edge58" class="edge">
<title>importlib_metadata&#45;&gt;pytest</title>
<path fill="none" stroke="black" d="M1115.78,-359.81C1113.93,-341.28 1109.31,-311.31 1098,-288 1092.65,-276.96 1084.52,-266.26 1076.7,-257.39"/>
<polygon fill="black" stroke="black" points="1079.05,-254.78 1069.69,-249.81 1073.91,-259.53 1079.05,-254.78"/>
</g>
<!-- lief&#45;&gt;conda&#45;build -->
<g id="edge59" class="edge">
<title>lief&#45;&gt;conda&#45;build</title>
<path fill="none" stroke="black" d="M1483,-359.95C1483,-333.29 1483,-280.11 1483,-235 1483,-235 1483,-235 1483,-161 1483,-100.16 1434.85,-96.12 1379,-72 1303.34,-39.32 1064.41,-25.84 950.11,-21.14"/>
<polygon fill="black" stroke="black" points="949.91,-17.63 939.77,-20.73 949.63,-24.63 949.91,-17.63"/>
</g>
<!-- curl -->
<g id="node21" class="node">
<title>curl</title>
<g id="a_node21"><a xlink:href="https://github.com/conda-forge/curl-feedstock" xlink:title="curl">
<ellipse fill="#fde725" stroke="black" cx="2264" cy="-450" rx="27" ry="18"/>
<text text-anchor="middle" x="2264" y="-446.3" font-family="Times,serif" font-size="14.00">curl</text>
</a>
</g>
</g>
<!-- micromamba -->
<g id="node22" class="node">
<title>micromamba</title>
<g id="a_node22"><a xlink:href="https://github.com/conda-forge/micromamba-feedstock" xlink:title="micromamba">
<ellipse fill="#fde725" stroke="black" cx="2227" cy="-378" rx="58.5" ry="18"/>
<text text-anchor="middle" x="2227" y="-374.3" font-family="Times,serif" font-size="14.00">micromamba</text>
</a>
</g>
</g>
<!-- curl&#45;&gt;micromamba -->
<g id="edge28" class="edge">
<title>curl&#45;&gt;micromamba</title>
<path fill="none" stroke="black" d="M2255.42,-432.76C2251.06,-424.53 2245.67,-414.32 2240.75,-405.02"/>
<polygon fill="black" stroke="black" points="2243.82,-403.33 2236.05,-396.12 2237.63,-406.6 2243.82,-403.33"/>
</g>
<!-- pyyaml&#45;&gt;conda&#45;build -->
<g id="edge32" class="edge">
<title>pyyaml&#45;&gt;conda&#45;build</title>
<path fill="none" stroke="black" d="M115.96,-288.73C149.59,-244.44 250.24,-121.65 367,-72 448.3,-37.43 706.4,-24.8 826.03,-20.73"/>
<polygon fill="black" stroke="black" points="826.25,-24.22 836.13,-20.39 826.02,-17.22 826.25,-24.22"/>
</g>
<!-- icu -->
<g id="node24" class="node">
<title>icu</title>
<g id="a_node24"><a xlink:href="https://github.com/conda-forge/icu-feedstock/pull/33" xlink:title="icu ❎">
<ellipse fill="#31688e" stroke="black" cx="2025" cy="-594" rx="33.29" ry="18"/>
<text text-anchor="middle" x="2025" y="-590.3" font-family="Times,serif" font-size="14.00" fill="white">icu ❎</text>
</a>
</g>
</g>
<!-- libxml2 -->
<g id="node25" class="node">
<title>libxml2</title>
<g id="a_node25"><a xlink:href="https://github.com/conda-forge/libxml2-feedstock" xlink:title="libxml2">
<ellipse fill="#fde725" stroke="black" cx="2046" cy="-522" rx="38.5" ry="18"/>
<text text-anchor="middle" x="2046" y="-518.3" font-family="Times,serif" font-size="14.00">libxml2</text>
</a>
</g>
</g>
<!-- icu&#45;&gt;libxml2 -->
<g id="edge36" class="edge">
<title>icu&#45;&gt;libxml2</title>
<path fill="none" stroke="black" d="M2030.08,-576.05C2032.42,-568.26 2035.25,-558.82 2037.88,-550.08"/>
<polygon fill="black" stroke="black" points="2041.3,-550.86 2040.82,-540.28 2034.59,-548.85 2041.3,-550.86"/>
</g>
<!-- libarchive -->
<g id="node26" class="node">
<title>libarchive</title>
<g id="a_node26"><a xlink:href="https://github.com/conda-forge/libarchive-feedstock" xlink:title="libarchive">
<ellipse fill="#fde725" stroke="black" cx="2046" cy="-450" rx="46.29" ry="18"/>
<text text-anchor="middle" x="2046" y="-446.3" font-family="Times,serif" font-size="14.00">libarchive</text>
</a>
</g>
</g>
<!-- libxml2&#45;&gt;libarchive -->
<g id="edge37" class="edge">
<title>libxml2&#45;&gt;libarchive</title>
<path fill="none" stroke="black" d="M2046,-503.7C2046,-495.98 2046,-486.71 2046,-478.11"/>
<polygon fill="black" stroke="black" points="2049.5,-478.1 2046,-468.1 2042.5,-478.1 2049.5,-478.1"/>
</g>
<!-- libarchive&#45;&gt;python&#45;libarchive&#45;c -->
<g id="edge41" class="edge">
<title>libarchive&#45;&gt;python&#45;libarchive&#45;c</title>
<path fill="none" stroke="black" d="M2009.32,-438.97C1967.41,-427.51 1898.26,-408.6 1848.8,-395.08"/>
<polygon fill="black" stroke="black" points="1849.45,-391.63 1838.88,-392.36 1847.6,-398.38 1849.45,-391.63"/>
</g>
<!-- libarchive&#45;&gt;micromamba -->
<g id="edge40" class="edge">
<title>libarchive&#45;&gt;micromamba</title>
<path fill="none" stroke="black" d="M2077.53,-436.81C2106.53,-425.59 2149.85,-408.84 2182.4,-396.25"/>
<polygon fill="black" stroke="black" points="2184.06,-399.36 2192.13,-392.49 2181.54,-392.83 2184.06,-399.36"/>
</g>
<!-- krb5 -->
<g id="node27" class="node">
<title>krb5</title>
<g id="a_node27"><a xlink:href="https://github.com/conda-forge/krb5-feedstock/pull/26" xlink:title="krb5 ❎">
<ellipse fill="#31688e" stroke="black" cx="2180" cy="-522" rx="38.5" ry="18"/>
<text text-anchor="middle" x="2180" y="-518.3" font-family="Times,serif" font-size="14.00" fill="white">krb5 ❎</text>
</a>
</g>
</g>
<!-- krb5&#45;&gt;curl -->
<g id="edge38" class="edge">
<title>krb5&#45;&gt;curl</title>
<path fill="none" stroke="black" d="M2198.23,-505.81C2210.45,-495.62 2226.69,-482.09 2239.97,-471.02"/>
<polygon fill="black" stroke="black" points="2242.35,-473.59 2247.8,-464.5 2237.87,-468.22 2242.35,-473.59"/>
</g>
<!-- krb5&#45;&gt;micromamba -->
<g id="edge39" class="edge">
<title>krb5&#45;&gt;micromamba</title>
<path fill="none" stroke="black" d="M2185.58,-504.15C2193.59,-479.94 2208.45,-435.05 2218.02,-406.13"/>
<polygon fill="black" stroke="black" points="2221.47,-406.86 2221.28,-396.27 2214.82,-404.66 2221.47,-406.86"/>
</g>
<!-- libev -->
<g id="node28" class="node">
<title>libev</title>
<g id="a_node28"><a xlink:href="https://github.com/conda-forge/libev-feedstock/pull/10" xlink:title="libev ✓">
<ellipse fill="#31688e" stroke="black" cx="2274" cy="-594" rx="38.5" ry="18"/>
<text text-anchor="middle" x="2274" y="-590.3" font-family="Times,serif" font-size="14.00" fill="white">libev ✓</text>
</a>
</g>
</g>
<!-- nghttp2 -->
<g id="node29" class="node">
<title>nghttp2</title>
<g id="a_node29"><a xlink:href="https://github.com/conda-forge/nghttp2-feedstock" xlink:title="nghttp2">
<ellipse fill="#fde725" stroke="black" cx="2274" cy="-522" rx="37.89" ry="18"/>
<text text-anchor="middle" x="2274" y="-518.3" font-family="Times,serif" font-size="14.00">nghttp2</text>
</a>
</g>
</g>
<!-- libev&#45;&gt;nghttp2 -->
<g id="edge43" class="edge">
<title>libev&#45;&gt;nghttp2</title>
<path fill="none" stroke="black" d="M2274,-575.7C2274,-567.98 2274,-558.71 2274,-550.11"/>
<polygon fill="black" stroke="black" points="2277.5,-550.1 2274,-540.1 2270.5,-550.1 2277.5,-550.1"/>
</g>
<!-- nghttp2&#45;&gt;curl -->
<g id="edge44" class="edge">
<title>nghttp2&#45;&gt;curl</title>
<path fill="none" stroke="black" d="M2271.53,-503.7C2270.43,-495.98 2269.1,-486.71 2267.87,-478.11"/>
<polygon fill="black" stroke="black" points="2271.32,-477.51 2266.44,-468.1 2264.39,-478.5 2271.32,-477.51"/>
</g>
<!-- libssh2 -->
<g id="node30" class="node">
<title>libssh2</title>
<g id="a_node30"><a xlink:href="https://github.com/conda-forge/libssh2-feedstock/pull/43" xlink:title="libssh2 ❎">
<ellipse fill="#31688e" stroke="black" cx="2377" cy="-522" rx="47.5" ry="18"/>
<text text-anchor="middle" x="2377" y="-518.3" font-family="Times,serif" font-size="14.00" fill="white">libssh2 ❎</text>
</a>
</g>
</g>
<!-- libssh2&#45;&gt;curl -->
<g id="edge45" class="edge">
<title>libssh2&#45;&gt;curl</title>
<path fill="none" stroke="black" d="M2353.31,-506.33C2335.4,-495.23 2310.76,-479.97 2291.9,-468.28"/>
<polygon fill="black" stroke="black" points="2293.5,-465.16 2283.16,-462.87 2289.82,-471.11 2293.5,-465.16"/>
</g>
<!-- libssh2&#45;&gt;micromamba -->
<g id="edge46" class="edge">
<title>libssh2&#45;&gt;micromamba</title>
<path fill="none" stroke="black" d="M2364.66,-504.58C2350.24,-485.92 2325.13,-455.08 2300,-432 2287.51,-420.53 2272.52,-409.28 2259.39,-400.12"/>
<polygon fill="black" stroke="black" points="2261.3,-397.18 2251.07,-394.42 2257.34,-402.96 2261.3,-397.18"/>
</g>
<!-- lzo -->
<g id="node31" class="node">
<title>lzo</title>
<g id="a_node31"><a xlink:href="https://github.com/conda-forge/lzo-feedstock/pull/6" xlink:title="lzo ✓">
<ellipse fill="#31688e" stroke="black" cx="1957" cy="-522" rx="32" ry="18"/>
<text text-anchor="middle" x="1957" y="-518.3" font-family="Times,serif" font-size="14.00" fill="white">lzo ✓</text>
</a>
</g>
</g>
<!-- lzo&#45;&gt;libarchive -->
<g id="edge47" class="edge">
<title>lzo&#45;&gt;libarchive</title>
<path fill="none" stroke="black" d="M1975.01,-506.83C1987.49,-497.02 2004.35,-483.76 2018.5,-472.63"/>
<polygon fill="black" stroke="black" points="2020.78,-475.29 2026.47,-466.36 2016.45,-469.79 2020.78,-475.29"/>
</g>
<!-- python -->
<g id="node32" class="node">
<title>python</title>
<g id="a_node32"><a xlink:href="https://github.com/conda-forge/python-feedstock/pull/376" xlink:title="python ❎">
<ellipse fill="#31688e" stroke="black" cx="2479" cy="-342" rx="47" ry="18"/>
<text text-anchor="middle" x="2479" y="-338.3" font-family="Times,serif" font-size="14.00" fill="white">python ❎</text>
</a>
</g>
</g>
<!-- zstd -->
<g id="node33" class="node">
<title>zstd</title>
<g id="a_node33"><a xlink:href="https://github.com/conda-forge/zstd-feedstock/pull/44" xlink:title="zstd ❎">
<ellipse fill="#31688e" stroke="black" cx="2113" cy="-594" rx="36.5" ry="18"/>
<text text-anchor="middle" x="2113" y="-590.3" font-family="Times,serif" font-size="14.00" fill="white">zstd ❎</text>
</a>
</g>
</g>
<!-- zstd&#45;&gt;libarchive -->
<g id="edge60" class="edge">
<title>zstd&#45;&gt;libarchive</title>
<path fill="none" stroke="black" d="M2111.98,-575.71C2110.28,-557.1 2105.81,-527.06 2094,-504 2088.4,-493.06 2079.95,-482.66 2071.7,-474.01"/>
<polygon fill="black" stroke="black" points="2074.12,-471.48 2064.57,-466.89 2069.17,-476.43 2074.12,-471.48"/>
</g>
<!-- yaml -->
<g id="node34" class="node">
<title>yaml</title>
<g id="a_node34"><a xlink:href="https://github.com/conda-forge/yaml-feedstock/pull/19" xlink:title="yaml ✓">
<ellipse fill="#31688e" stroke="black" cx="152" cy="-378" rx="39" ry="18"/>
<text text-anchor="middle" x="152" y="-374.3" font-family="Times,serif" font-size="14.00" fill="white">yaml ✓</text>
</a>
</g>
</g>
<!-- yaml&#45;&gt;ruamel_yaml -->
<g id="edge62" class="edge">
<title>yaml&#45;&gt;ruamel_yaml</title>
<path fill="none" stroke="black" d="M166.98,-361.12C175.34,-352.24 185.93,-341.01 195.3,-331.08"/>
<polygon fill="black" stroke="black" points="197.85,-333.47 202.16,-323.8 192.76,-328.67 197.85,-333.47"/>
</g>
<!-- yaml&#45;&gt;pyyaml -->
<g id="edge61" class="edge">
<title>yaml&#45;&gt;pyyaml</title>
<path fill="none" stroke="black" d="M140.62,-360.41C134.77,-351.87 127.51,-341.28 121,-331.79"/>
<polygon fill="black" stroke="black" points="123.84,-329.74 115.29,-323.47 118.06,-333.7 123.84,-329.74"/>
</g>
<!-- soupsieve -->
<g id="node35" class="node">
<title>soupsieve</title>
<g id="a_node35"><a xlink:href="https://github.com/conda-forge/soupsieve-feedstock" xlink:title="soupsieve">
<ellipse fill="#fde725" stroke="black" cx="1612" cy="-450" rx="45.5" ry="18"/>
<text text-anchor="middle" x="1612" y="-446.3" font-family="Times,serif" font-size="14.00">soupsieve</text>
</a>
</g>
</g>
<!-- soupsieve&#45;&gt;beautifulsoup4 -->
<g id="edge63" class="edge">
<title>soupsieve&#45;&gt;beautifulsoup4</title>
<path fill="none" stroke="black" d="M1616.12,-432.05C1618.01,-424.26 1620.3,-414.82 1622.42,-406.08"/>
<polygon fill="black" stroke="black" points="1625.85,-406.82 1624.8,-396.28 1619.04,-405.17 1625.85,-406.82"/>
</g>
<!-- pypy3.6 -->
<g id="node36" class="node">
<title>pypy3.6</title>
<g id="a_node36"><a xlink:href="https://github.com/conda-forge/pypy3.6-feedstock/pull/25" xlink:title="pypy3 6 ❎">
<ellipse fill="#31688e" stroke="black" cx="932" cy="-666" rx="51.5" ry="18"/>
<text text-anchor="middle" x="932" y="-662.3" font-family="Times,serif" font-size="14.00" fill="white">pypy3 6 ❎</text>
</a>
</g>
</g>
<!-- pypy&#45;meta -->
<g id="node37" class="node">
<title>pypy&#45;meta</title>
<g id="a_node37"><a xlink:href="https://github.com/conda-forge/pypy-meta-feedstock" xlink:title="pypy meta">
<ellipse fill="#fde725" stroke="black" cx="932" cy="-594" rx="48.19" ry="18"/>
<text text-anchor="middle" x="932" y="-590.3" font-family="Times,serif" font-size="14.00">pypy meta</text>
</a>
</g>
</g>
<!-- pypy3.6&#45;&gt;pypy&#45;meta -->
<g id="edge64" class="edge">
<title>pypy3.6&#45;&gt;pypy&#45;meta</title>
<path fill="none" stroke="black" d="M932,-647.7C932,-639.98 932,-630.71 932,-622.11"/>
<polygon fill="black" stroke="black" points="935.5,-622.1 932,-612.1 928.5,-622.1 935.5,-622.1"/>
</g>
<!-- pypy&#45;meta&#45;&gt;beautifulsoup4 -->
<g id="edge65" class="edge">
<title>pypy&#45;meta&#45;&gt;beautifulsoup4</title>
<path fill="none" stroke="black" d="M980.12,-592.9C1111.55,-592.02 1474.02,-585.43 1583,-540 1628.39,-521.08 1646.45,-512.67 1667,-468 1673.69,-453.46 1671.9,-447.23 1667,-432 1663.73,-421.81 1657.69,-411.93 1651.38,-403.5"/>
<polygon fill="black" stroke="black" points="1654.05,-401.24 1645.07,-395.61 1648.58,-405.61 1654.05,-401.24"/>
</g>
<!-- pypy&#45;meta&#45;&gt;conda&#45;build -->
<g id="edge66" class="edge">
<title>pypy&#45;meta&#45;&gt;conda&#45;build</title>
<path fill="none" stroke="black" d="M979.82,-591.43C1121.42,-586.5 1536.91,-569.81 1669,-540 1775.11,-516.05 1897,-559.78 1897,-451 1897,-451 1897,-451 1897,-161 1897,-64.79 1168.35,-29.55 949.46,-21.14"/>
<polygon fill="black" stroke="black" points="949.55,-17.64 939.42,-20.76 949.28,-24.63 949.55,-17.64"/>
</g>
<!-- pypy&#45;meta&#45;&gt;brotlipy -->
<g id="edge67" class="edge">
<title>pypy&#45;meta&#45;&gt;brotlipy</title>
<path fill="none" stroke="black" d="M884.24,-591.66C826.47,-588.35 727.58,-577.18 652,-540 598.61,-513.74 552,-510.5 552,-451 552,-451 552,-451 552,-377 552,-329.14 587.98,-283.45 613.12,-257.36"/>
<polygon fill="black" stroke="black" points="615.65,-259.79 620.21,-250.23 610.68,-254.86 615.65,-259.79"/>
</g>
<!-- pypy&#45;meta&#45;&gt;conda -->
<g id="edge68" class="edge">
<title>pypy&#45;meta&#45;&gt;conda</title>
<path fill="none" stroke="black" d="M883.79,-592.59C711.04,-590.77 129.49,-581.59 58,-540 17.19,-516.26 0,-498.21 0,-451 0,-451 0,-451 0,-305 0,-191.79 399.05,-118.21 529.37,-97.2"/>
<polygon fill="black" stroke="black" points="530.03,-100.64 539.35,-95.61 528.93,-93.73 530.03,-100.64"/>
</g>
<!-- pypy&#45;meta&#45;&gt;certifi -->
<g id="edge69" class="edge">
<title>pypy&#45;meta&#45;&gt;certifi</title>
<path fill="none" stroke="black" d="M908.31,-578.33C890.85,-567.51 866.98,-552.72 848.32,-541.16"/>
<polygon fill="black" stroke="black" points="849.97,-538.07 839.62,-535.77 846.28,-544.02 849.97,-538.07"/>
</g>
<!-- pypy&#45;meta&#45;&gt;setuptools -->
<g id="edge70" class="edge">
<title>pypy&#45;meta&#45;&gt;setuptools</title>
<path fill="none" stroke="black" d="M925.85,-575.87C917.08,-551.46 900.91,-506.43 890.57,-477.64"/>
<polygon fill="black" stroke="black" points="893.85,-476.42 887.17,-468.19 887.26,-478.78 893.85,-476.42"/>
</g>
<!-- pypy&#45;meta&#45;&gt;chardet -->
<g id="edge71" class="edge">
<title>pypy&#45;meta&#45;&gt;chardet</title>
<path fill="none" stroke="black" d="M932.73,-575.61C933.71,-551.47 935.39,-506.43 936,-468 937.64,-365.34 928.22,-243.46 923.53,-190.19"/>
<polygon fill="black" stroke="black" points="927.01,-189.83 922.63,-180.18 920.04,-190.46 927.01,-189.83"/>
</g>
<!-- pypy&#45;meta&#45;&gt;cython -->
<g id="edge72" class="edge">
<title>pypy&#45;meta&#45;&gt;cython</title>
<path fill="none" stroke="black" d="M883.69,-593.36C767.4,-593.42 475.42,-588.58 393,-540 340.6,-509.11 307.18,-442.61 291.84,-405.46"/>
<polygon fill="black" stroke="black" points="294.94,-403.81 287.99,-395.82 288.44,-406.4 294.94,-403.81"/>
</g>
<!-- pypy&#45;meta&#45;&gt;ruamel_yaml -->
<g id="edge74" class="edge">
<title>pypy&#45;meta&#45;&gt;ruamel_yaml</title>
<path fill="none" stroke="black" d="M883.58,-593.5C760.78,-593.99 440.52,-590.28 349,-540 278.18,-501.09 272.34,-469.15 238,-396 228.77,-376.35 223.69,-352.22 220.97,-334.05"/>
<polygon fill="black" stroke="black" points="224.43,-333.55 219.62,-324.11 217.49,-334.49 224.43,-333.55"/>
</g>
<!-- pypy&#45;meta&#45;&gt;conda&#45;package&#45;handling -->
<g id="edge75" class="edge">
<title>pypy&#45;meta&#45;&gt;conda&#45;package&#45;handling</title>
<path fill="none" stroke="black" d="M884.09,-592.16C791.46,-589.64 592.17,-579.64 538,-540 468.89,-489.43 441.62,-384.18 432.27,-334.32"/>
<polygon fill="black" stroke="black" points="435.68,-333.52 430.49,-324.29 428.79,-334.74 435.68,-333.52"/>
</g>
<!-- pypy&#45;meta&#45;&gt;python&#45;libarchive&#45;c -->
<g id="edge76" class="edge">
<title>pypy&#45;meta&#45;&gt;python&#45;libarchive&#45;c</title>
<path fill="none" stroke="black" d="M980.55,-593.59C1118.71,-594.6 1511.52,-592.64 1627,-540 1692.67,-510.07 1747.14,-441.68 1773.29,-404.39"/>
<polygon fill="black" stroke="black" points="1776.24,-406.28 1779.03,-396.06 1770.47,-402.31 1776.24,-406.28"/>
</g>
<!-- pypy&#45;meta&#45;&gt;markupsafe -->
<g id="edge77" class="edge">
<title>pypy&#45;meta&#45;&gt;markupsafe</title>
<path fill="none" stroke="black" d="M979.36,-590.38C1055.49,-585.28 1200.59,-571.62 1240,-540 1281.71,-506.54 1297.3,-442.37 1302.94,-405.96"/>
<polygon fill="black" stroke="black" points="1306.41,-406.44 1304.34,-396.05 1299.48,-405.46 1306.41,-406.44"/>
</g>
<!-- pypy&#45;meta&#45;&gt;pluggy -->
<g id="edge78" class="edge">
<title>pypy&#45;meta&#45;&gt;pluggy</title>
<path fill="none" stroke="black" d="M965.92,-580.91C1027.58,-556.83 1156.33,-496.41 1207,-396 1214.21,-381.72 1216.28,-373.03 1207,-360 1182.74,-325.92 1134.99,-313.55 1099.25,-309.17"/>
<polygon fill="black" stroke="black" points="1099.36,-305.66 1089.05,-308.09 1098.63,-312.62 1099.36,-305.66"/>
</g>
<!-- pypy&#45;meta&#45;&gt;pytest -->
<g id="edge79" class="edge">
<title>pypy&#45;meta&#45;&gt;pytest</title>
<path fill="none" stroke="black" d="M979.15,-590.18C1073.21,-584.02 1280.71,-567.69 1346,-540 1438.1,-500.95 1477.47,-487.01 1519,-396 1525.64,-381.44 1528.74,-372.7 1519,-360 1466.75,-291.85 1198.89,-252.58 1095.13,-239.73"/>
<polygon fill="black" stroke="black" points="1095.38,-236.23 1085.03,-238.5 1094.54,-243.18 1095.38,-236.23"/>
</g>
<!-- pypy&#45;meta&#45;&gt;psutil -->
<g id="edge80" class="edge">
<title>pypy&#45;meta&#45;&gt;psutil</title>
<path fill="none" stroke="black" d="M978.81,-589.64C1059.31,-583.21 1220.06,-567.31 1269,-540 1326.98,-507.64 1371.77,-440.95 1393.17,-404.37"/>
<polygon fill="black" stroke="black" points="1396.41,-405.75 1398.34,-395.34 1390.33,-402.28 1396.41,-405.75"/>
</g>
<!-- pypy&#45;meta&#45;&gt;pycosat -->
<g id="edge81" class="edge">
<title>pypy&#45;meta&#45;&gt;pycosat</title>
<path fill="none" stroke="black" d="M884.19,-590.96C764.56,-585.43 459.35,-568.65 424,-540 383.78,-507.4 374.29,-443.36 372.29,-406.64"/>
<polygon fill="black" stroke="black" points="375.77,-406.04 371.88,-396.18 368.77,-406.31 375.77,-406.04"/>
</g>
<!-- pypy&#45;meta&#45;&gt;pysocks -->
<g id="edge82" class="edge">
<title>pypy&#45;meta&#45;&gt;pysocks</title>
<path fill="none" stroke="black" d="M885.45,-589.17C850.78,-583.79 804.95,-570.89 778,-540 688.69,-437.62 700.6,-258.15 709,-190.15"/>
<polygon fill="black" stroke="black" points="712.47,-190.59 710.3,-180.22 705.53,-189.68 712.47,-190.59"/>
</g>
<!-- pypy&#45;meta&#45;&gt;cryptography -->
<g id="edge83" class="edge">
<title>pypy&#45;meta&#45;&gt;cryptography</title>
<path fill="none" stroke="black" d="M884.08,-592.11C743.21,-589.09 332.32,-577.23 204,-540 123.6,-516.67 38,-534.71 38,-451 38,-451 38,-451 38,-377 38,-336.55 27.8,-315.98 57,-288 91.3,-255.13 221.32,-242.5 302.6,-237.75"/>
<polygon fill="black" stroke="black" points="302.97,-241.24 312.76,-237.18 302.58,-234.25 302.97,-241.24"/>
</g>
<!-- pypy&#45;meta&#45;&gt;importlib_metadata -->
<g id="edge84" class="edge">
<title>pypy&#45;meta&#45;&gt;importlib_metadata</title>
<path fill="none" stroke="black" d="M948.77,-576.64C959.14,-566.34 972.61,-552.64 984,-540 1026.09,-493.26 1072.22,-435.93 1097.58,-403.82"/>
<polygon fill="black" stroke="black" points="1100.42,-405.87 1103.86,-395.85 1094.92,-401.54 1100.42,-405.87"/>
</g>
<!-- pypy&#45;meta&#45;&gt;lief -->
<g id="edge85" class="edge">
<title>pypy&#45;meta&#45;&gt;lief</title>
<path fill="none" stroke="black" d="M978.94,-589.77C1065.81,-583.22 1247.99,-566.71 1305,-540 1374.16,-507.59 1435.54,-439.05 1464.82,-402.73"/>
<polygon fill="black" stroke="black" points="1467.76,-404.67 1471.23,-394.66 1462.28,-400.31 1467.76,-404.67"/>
</g>
<!-- pypy&#45;meta&#45;&gt;pyyaml -->
<g id="edge73" class="edge">
<title>pypy&#45;meta&#45;&gt;pyyaml</title>
<path fill="none" stroke="black" d="M883.66,-592.43C754.26,-590.37 402.57,-581.04 295,-540 195.67,-502.1 151.42,-491.15 104,-396 94.49,-376.93 95.23,-352.57 97.93,-334.16"/>
<polygon fill="black" stroke="black" points="101.42,-334.55 99.69,-324.09 94.52,-333.34 101.42,-334.55"/>
</g>
<!-- pypy&#45;meta&#45;&gt;soupsieve -->
<g id="edge86" class="edge">
<title>pypy&#45;meta&#45;&gt;soupsieve</title>
<path fill="none" stroke="black" d="M979.64,-591.28C1116.3,-586.03 1503.05,-568.78 1552,-540 1575.99,-525.9 1592.41,-497.96 1601.93,-477.13"/>
<polygon fill="black" stroke="black" points="1605.18,-478.42 1605.93,-467.85 1598.76,-475.64 1605.18,-478.42"/>
</g>
<!-- ripgrep -->
<g id="node38" class="node">
<title>ripgrep</title>
<g id="a_node38"><a xlink:href="https://github.com/conda-forge/ripgrep-feedstock/pull/15" xlink:title="ripgrep ❎">
<ellipse fill="#31688e" stroke="black" cx="1973" cy="-90" rx="48.19" ry="18"/>
<text text-anchor="middle" x="1973" y="-86.3" font-family="Times,serif" font-size="14.00" fill="white">ripgrep ❎</text>
</a>
</g>
</g>
<!-- ripgrep&#45;&gt;conda&#45;build -->
<g id="edge87" class="edge">
<title>ripgrep&#45;&gt;conda&#45;build</title>
<path fill="none" stroke="black" d="M1937.23,-77.78C1928.71,-75.5 1919.59,-73.38 1911,-72 1724.26,-41.92 1141.57,-25.24 949.84,-20.45"/>
<polygon fill="black" stroke="black" points="949.75,-16.95 939.66,-20.2 949.57,-23.95 949.75,-16.95"/>
</g>
</g>
</svg>
