<?xml version="1.0" encoding="UTF-8" standalone="no"?>
<!DOCTYPE svg PUBLIC "-//W3C//DTD SVG 1.1//EN"
 "http://www.w3.org/Graphics/SVG/1.1/DTD/svg11.dtd">
<!-- Generated by graphviz version 2.42.3 (20191010.1750)
 -->
<!-- Title: %3 Pages: 1 -->
<svg width="1801pt" height="548pt"
 viewBox="0.00 0.00 1801.15 548.00" xmlns="http://www.w3.org/2000/svg" xmlns:xlink="http://www.w3.org/1999/xlink">
<g id="graph0" class="graph" transform="scale(1 1) rotate(0) translate(4 544)">
<title>%3</title>
<polygon fill="white" stroke="transparent" points="-4,4 -4,-544 1797.15,-544 1797.15,4 -4,4"/>
<!-- beautifulsoup4 -->
<g id="node1" class="node">
<title>beautifulsoup4</title>
<g id="a_node1"><a xlink:href="https://github.com/conda-forge/beautifulsoup4-feedstock" xlink:title="beautifulsoup4">
<ellipse fill="#fde725" stroke="black" cx="1610.15" cy="-234" rx="63.09" ry="18"/>
<text text-anchor="middle" x="1610.15" y="-230.3" font-family="Times,serif" font-size="14.00">beautifulsoup4</text>
</a>
</g>
</g>
<!-- conda&#45;build -->
<g id="node2" class="node">
<title>conda&#45;build</title>
<g id="a_node2"><a xlink:href="https://github.com/conda-forge/conda-build-feedstock" xlink:title="conda build">
<ellipse fill="#fde725" stroke="black" cx="1077.15" cy="-18" rx="52" ry="18"/>
<text text-anchor="middle" x="1077.15" y="-14.3" font-family="Times,serif" font-size="14.00">conda build</text>
</a>
</g>
</g>
<!-- beautifulsoup4&#45;&gt;conda&#45;build -->
<g id="edge1" class="edge">
<title>beautifulsoup4&#45;&gt;conda&#45;build</title>
<path fill="none" stroke="black" d="M1602.06,-216.03C1584.92,-182.13 1541.41,-106.36 1480.15,-72 1423.01,-39.95 1236.75,-26.51 1138.74,-21.55"/>
<polygon fill="black" stroke="black" points="1138.83,-18.05 1128.67,-21.05 1138.49,-25.04 1138.83,-18.05"/>
</g>
<!-- brotlipy -->
<g id="node3" class="node">
<title>brotlipy</title>
<g id="a_node3"><a xlink:href="https://github.com/conda-forge/brotlipy-feedstock" xlink:title="brotlipy">
<ellipse fill="#fde725" stroke="black" cx="437.15" cy="-162" rx="38.5" ry="18"/>
<text text-anchor="middle" x="437.15" y="-158.3" font-family="Times,serif" font-size="14.00">brotlipy</text>
</a>
</g>
</g>
<!-- brotlipy&#45;&gt;conda&#45;build -->
<g id="edge2" class="edge">
<title>brotlipy&#45;&gt;conda&#45;build</title>
<path fill="none" stroke="black" d="M457.16,-146.38C486.32,-125.91 542.94,-89.29 597.15,-72 741.7,-25.89 921.74,-18.49 1014.87,-18.11"/>
<polygon fill="black" stroke="black" points="1014.97,-21.61 1024.97,-18.09 1014.96,-14.61 1014.97,-21.61"/>
</g>
<!-- conda -->
<g id="node4" class="node">
<title>conda</title>
<g id="a_node4"><a xlink:href="https://github.com/conda-forge/conda-feedstock" xlink:title="conda">
<ellipse fill="#fde725" stroke="black" cx="709.15" cy="-90" rx="32" ry="18"/>
<text text-anchor="middle" x="709.15" y="-86.3" font-family="Times,serif" font-size="14.00">conda</text>
</a>
</g>
</g>
<!-- brotlipy&#45;&gt;conda -->
<g id="edge3" class="edge">
<title>brotlipy&#45;&gt;conda</title>
<path fill="none" stroke="black" d="M466.06,-149.95C472,-147.85 478.25,-145.76 484.15,-144 548.21,-124.94 624.13,-108.25 669.38,-98.91"/>
<polygon fill="black" stroke="black" points="670.28,-102.3 679.38,-96.87 668.88,-95.44 670.28,-102.3"/>
</g>
<!-- conda&#45;&gt;conda&#45;build -->
<g id="edge4" class="edge">
<title>conda&#45;&gt;conda&#45;build</title>
<path fill="none" stroke="black" d="M738.95,-83.33C800.77,-71.57 943.74,-44.38 1022.55,-29.39"/>
<polygon fill="black" stroke="black" points="1023.6,-32.75 1032.77,-27.44 1022.29,-25.87 1023.6,-32.75"/>
</g>
<!-- certifi -->
<g id="node5" class="node">
<title>certifi</title>
<g id="a_node5"><a xlink:href="https://github.com/conda-forge/certifi-feedstock" xlink:title="certifi">
<ellipse fill="#fde725" stroke="black" cx="586.15" cy="-378" rx="32" ry="18"/>
<text text-anchor="middle" x="586.15" y="-374.3" font-family="Times,serif" font-size="14.00">certifi</text>
</a>
</g>
</g>
<!-- certifi&#45;&gt;conda&#45;build -->
<g id="edge5" class="edge">
<title>certifi&#45;&gt;conda&#45;build</title>
<path fill="none" stroke="black" d="M555.2,-373.19C474.52,-363.15 261.98,-335.91 232.15,-324 168.14,-298.44 105.15,-303.92 105.15,-235 105.15,-235 105.15,-235 105.15,-161 105.15,-68.61 801.63,-30.88 1015.46,-21.48"/>
<polygon fill="black" stroke="black" points="1015.74,-24.97 1025.58,-21.04 1015.43,-17.98 1015.74,-24.97"/>
</g>
<!-- certifi&#45;&gt;conda -->
<g id="edge6" class="edge">
<title>certifi&#45;&gt;conda</title>
<path fill="none" stroke="black" d="M576.15,-360.84C559.13,-331.11 528.37,-266.18 550.15,-216 568.8,-173.02 590.22,-172.83 627.15,-144 643.46,-131.27 662.85,-118.63 678.69,-108.89"/>
<polygon fill="black" stroke="black" points="680.82,-111.69 687.55,-103.51 677.18,-105.71 680.82,-111.69"/>
</g>
<!-- setuptools -->
<g id="node6" class="node">
<title>setuptools</title>
<g id="a_node6"><a xlink:href="https://github.com/conda-forge/setuptools-feedstock" xlink:title="setuptools">
<ellipse fill="#fde725" stroke="black" cx="918.15" cy="-306" rx="46.29" ry="18"/>
<text text-anchor="middle" x="918.15" y="-302.3" font-family="Times,serif" font-size="14.00">setuptools</text>
</a>
</g>
</g>
<!-- certifi&#45;&gt;setuptools -->
<g id="edge7" class="edge">
<title>certifi&#45;&gt;setuptools</title>
<path fill="none" stroke="black" d="M615.61,-370.79C672.64,-358.76 798.63,-332.2 868.7,-317.43"/>
<polygon fill="black" stroke="black" points="869.56,-320.82 878.62,-315.33 868.11,-313.97 869.56,-320.82"/>
</g>
<!-- setuptools&#45;&gt;beautifulsoup4 -->
<g id="edge8" class="edge">
<title>setuptools&#45;&gt;beautifulsoup4</title>
<path fill="none" stroke="black" d="M963.93,-303.38C1067.04,-299.24 1325.06,-286.08 1538.15,-252 1543.62,-251.13 1549.29,-250.06 1554.94,-248.9"/>
<polygon fill="black" stroke="black" points="1555.99,-252.25 1565.03,-246.72 1554.52,-245.41 1555.99,-252.25"/>
</g>
<!-- setuptools&#45;&gt;conda&#45;build -->
<g id="edge9" class="edge">
<title>setuptools&#45;&gt;conda&#45;build</title>
<path fill="none" stroke="black" d="M910.28,-287.88C897.39,-257.15 875.57,-191.45 900.15,-144 927.98,-90.27 990.71,-54.72 1033.5,-35.71"/>
<polygon fill="black" stroke="black" points="1035.04,-38.85 1042.84,-31.68 1032.27,-32.42 1035.04,-38.85"/>
</g>
<!-- setuptools&#45;&gt;brotlipy -->
<g id="edge10" class="edge">
<title>setuptools&#45;&gt;brotlipy</title>
<path fill="none" stroke="black" d="M872.58,-303.12C821.81,-299.25 738.77,-287.5 677.15,-252 658.34,-241.17 662.93,-226.88 644.15,-216 581.08,-179.46 554.12,-200.44 484.15,-180 481.38,-179.19 478.53,-178.3 475.68,-177.37"/>
<polygon fill="black" stroke="black" points="476.64,-174 466.04,-174.1 474.38,-180.63 476.64,-174"/>
</g>
<!-- setuptools&#45;&gt;conda -->
<g id="edge11" class="edge">
<title>setuptools&#45;&gt;conda</title>
<path fill="none" stroke="black" d="M885.94,-292.97C842.89,-275.15 767.48,-237.53 728.15,-180 715.72,-161.82 711.19,-137.04 709.65,-118.25"/>
<polygon fill="black" stroke="black" points="713.14,-118.01 709.06,-108.24 706.15,-118.43 713.14,-118.01"/>
</g>
<!-- chardet -->
<g id="node7" class="node">
<title>chardet</title>
<g id="a_node7"><a xlink:href="https://github.com/conda-forge/chardet-feedstock" xlink:title="chardet">
<ellipse fill="#fde725" stroke="black" cx="530.15" cy="-162" rx="36.5" ry="18"/>
<text text-anchor="middle" x="530.15" y="-158.3" font-family="Times,serif" font-size="14.00">chardet</text>
</a>
</g>
</g>
<!-- setuptools&#45;&gt;chardet -->
<g id="edge12" class="edge">
<title>setuptools&#45;&gt;chardet</title>
<path fill="none" stroke="black" d="M883.75,-293.97C852.18,-283.67 804.23,-267.6 763.15,-252 724.41,-237.29 715.76,-231.03 677.15,-216 640.7,-201.81 598.67,-186.79 568.91,-176.38"/>
<polygon fill="black" stroke="black" points="569.91,-173.02 559.32,-173.03 567.61,-179.63 569.91,-173.02"/>
</g>
<!-- cython -->
<g id="node8" class="node">
<title>cython</title>
<g id="a_node8"><a xlink:href="https://github.com/conda-forge/cython-feedstock" xlink:title="cython">
<ellipse fill="#fde725" stroke="black" cx="992.15" cy="-234" rx="34.5" ry="18"/>
<text text-anchor="middle" x="992.15" y="-230.3" font-family="Times,serif" font-size="14.00">cython</text>
</a>
</g>
</g>
<!-- setuptools&#45;&gt;cython -->
<g id="edge13" class="edge">
<title>setuptools&#45;&gt;cython</title>
<path fill="none" stroke="black" d="M934.94,-289.12C944.82,-279.77 957.48,-267.79 968.38,-257.49"/>
<polygon fill="black" stroke="black" points="971.07,-259.75 975.93,-250.34 966.26,-254.67 971.07,-259.75"/>
</g>
<!-- ruamel_yaml -->
<g id="node9" class="node">
<title>ruamel_yaml</title>
<g id="a_node9"><a xlink:href="https://github.com/conda-forge/ruamel_yaml-feedstock" xlink:title="ruamel_yaml">
<ellipse fill="#fde725" stroke="black" cx="795.15" cy="-162" rx="58" ry="18"/>
<text text-anchor="middle" x="795.15" y="-158.3" font-family="Times,serif" font-size="14.00">ruamel_yaml</text>
</a>
</g>
</g>
<!-- setuptools&#45;&gt;ruamel_yaml -->
<g id="edge14" class="edge">
<title>setuptools&#45;&gt;ruamel_yaml</title>
<path fill="none" stroke="black" d="M904.04,-288.71C882.47,-263.81 841.16,-216.12 816.09,-187.17"/>
<polygon fill="black" stroke="black" points="818.67,-184.8 809.47,-179.54 813.38,-189.39 818.67,-184.8"/>
</g>
<!-- conda&#45;package&#45;handling -->
<g id="node10" class="node">
<title>conda&#45;package&#45;handling</title>
<g id="a_node10"><a xlink:href="https://github.com/conda-forge/conda-package-handling-feedstock" xlink:title="conda package handling">
<ellipse fill="#fde725" stroke="black" cx="1005.15" cy="-162" rx="96.38" ry="18"/>
<text text-anchor="middle" x="1005.15" y="-158.3" font-family="Times,serif" font-size="14.00">conda package handling</text>
</a>
</g>
</g>
<!-- setuptools&#45;&gt;conda&#45;package&#45;handling -->
<g id="edge15" class="edge">
<title>setuptools&#45;&gt;conda&#45;package&#45;handling</title>
<path fill="none" stroke="black" d="M921.29,-287.82C925.31,-269.04 933.55,-238.6 948.15,-216 955.25,-205 965.14,-194.74 974.69,-186.23"/>
<polygon fill="black" stroke="black" points="977.23,-188.67 982.57,-179.52 972.69,-183.34 977.23,-188.67"/>
</g>
<!-- python&#45;libarchive&#45;c -->
<g id="node11" class="node">
<title>python&#45;libarchive&#45;c</title>
<g id="a_node11"><a xlink:href="https://github.com/conda-forge/python-libarchive-c-feedstock" xlink:title="python libarchive c">
<ellipse fill="#fde725" stroke="black" cx="424.15" cy="-234" rx="79.5" ry="18"/>
<text text-anchor="middle" x="424.15" y="-230.3" font-family="Times,serif" font-size="14.00">python libarchive c</text>
</a>
</g>
</g>
<!-- setuptools&#45;&gt;python&#45;libarchive&#45;c -->
<g id="edge16" class="edge">
<title>setuptools&#45;&gt;python&#45;libarchive&#45;c</title>
<path fill="none" stroke="black" d="M875.6,-298.97C791.83,-287.1 604.53,-260.56 499.41,-245.66"/>
<polygon fill="black" stroke="black" points="499.89,-242.2 489.5,-244.26 498.91,-249.13 499.89,-242.2"/>
</g>
<!-- markupsafe -->
<g id="node12" class="node">
<title>markupsafe</title>
<g id="a_node12"><a xlink:href="https://github.com/conda-forge/markupsafe-feedstock" xlink:title="markupsafe">
<ellipse fill="#fde725" stroke="black" cx="1287.15" cy="-234" rx="52" ry="18"/>
<text text-anchor="middle" x="1287.15" y="-230.3" font-family="Times,serif" font-size="14.00">markupsafe</text>
</a>
</g>
</g>
<!-- setuptools&#45;&gt;markupsafe -->
<g id="edge17" class="edge">
<title>setuptools&#45;&gt;markupsafe</title>
<path fill="none" stroke="black" d="M958.7,-297.31C1025.3,-284.67 1157.93,-259.51 1232.67,-245.33"/>
<polygon fill="black" stroke="black" points="1233.65,-248.71 1242.82,-243.41 1232.34,-241.83 1233.65,-248.71"/>
</g>
<!-- psutil -->
<g id="node13" class="node">
<title>psutil</title>
<g id="a_node13"><a xlink:href="https://github.com/conda-forge/psutil-feedstock" xlink:title="psutil">
<ellipse fill="#fde725" stroke="black" cx="1388.15" cy="-234" rx="30.59" ry="18"/>
<text text-anchor="middle" x="1388.15" y="-230.3" font-family="Times,serif" font-size="14.00">psutil</text>
</a>
</g>
</g>
<!-- setuptools&#45;&gt;psutil -->
<g id="edge18" class="edge">
<title>setuptools&#45;&gt;psutil</title>
<path fill="none" stroke="black" d="M964.14,-303.53C1043.69,-300.06 1211.58,-288.66 1348.15,-252 1350.64,-251.33 1353.17,-250.54 1355.7,-249.67"/>
<polygon fill="black" stroke="black" points="1357.18,-252.85 1365.27,-246.01 1354.68,-246.31 1357.18,-252.85"/>
</g>
<!-- pycosat -->
<g id="node14" class="node">
<title>pycosat</title>
<g id="a_node14"><a xlink:href="https://github.com/conda-forge/pycosat-feedstock" xlink:title="pycosat">
<ellipse fill="#fde725" stroke="black" cx="597.15" cy="-234" rx="37.89" ry="18"/>
<text text-anchor="middle" x="597.15" y="-230.3" font-family="Times,serif" font-size="14.00">pycosat</text>
</a>
</g>
</g>
<!-- setuptools&#45;&gt;pycosat -->
<g id="edge19" class="edge">
<title>setuptools&#45;&gt;pycosat</title>
<path fill="none" stroke="black" d="M876.32,-298.38C823.12,-289.59 728.6,-272.73 649.15,-252 645.01,-250.92 640.73,-249.7 636.47,-248.41"/>
<polygon fill="black" stroke="black" points="637.25,-244.99 626.66,-245.34 635.16,-251.67 637.25,-244.99"/>
</g>
<!-- pysocks -->
<g id="node15" class="node">
<title>pysocks</title>
<g id="a_node15"><a xlink:href="https://github.com/conda-forge/pysocks-feedstock" xlink:title="pysocks">
<ellipse fill="#fde725" stroke="black" cx="1158.15" cy="-162" rx="39" ry="18"/>
<text text-anchor="middle" x="1158.15" y="-158.3" font-family="Times,serif" font-size="14.00">pysocks</text>
</a>
</g>
</g>
<!-- setuptools&#45;&gt;pysocks -->
<g id="edge20" class="edge">
<title>setuptools&#45;&gt;pysocks</title>
<path fill="none" stroke="black" d="M949.79,-292.7C973.83,-282.87 1007.38,-268.12 1035.15,-252 1070.23,-231.64 1107.57,-203.61 1131.78,-184.48"/>
<polygon fill="black" stroke="black" points="1134.14,-187.08 1139.78,-178.11 1129.78,-181.6 1134.14,-187.08"/>
</g>
<!-- cryptography -->
<g id="node16" class="node">
<title>cryptography</title>
<g id="a_node16"><a xlink:href="https://github.com/conda-forge/cryptography-feedstock" xlink:title="cryptography">
<ellipse fill="#fde725" stroke="black" cx="1273.15" cy="-162" rx="58" ry="18"/>
<text text-anchor="middle" x="1273.15" y="-158.3" font-family="Times,serif" font-size="14.00">cryptography</text>
</a>
</g>
</g>
<!-- setuptools&#45;&gt;cryptography -->
<g id="edge21" class="edge">
<title>setuptools&#45;&gt;cryptography</title>
<path fill="none" stroke="black" d="M953.34,-294.31C985.61,-284.25 1034.54,-268.33 1076.15,-252 1131.87,-230.13 1194.62,-200.97 1234.02,-182.09"/>
<polygon fill="black" stroke="black" points="1236.02,-185.01 1243.51,-177.52 1232.98,-178.7 1236.02,-185.01"/>
</g>
<!-- lief -->
<g id="node17" class="node">
<title>lief</title>
<g id="a_node17"><a xlink:href="https://github.com/conda-forge/lief-feedstock" xlink:title="lief">
<ellipse fill="#fde725" stroke="black" cx="1502.15" cy="-234" rx="27" ry="18"/>
<text text-anchor="middle" x="1502.15" y="-230.3" font-family="Times,serif" font-size="14.00">lief</text>
</a>
</g>
</g>
<!-- setuptools&#45;&gt;lief -->
<g id="edge22" class="edge">
<title>setuptools&#45;&gt;lief</title>
<path fill="none" stroke="black" d="M963.43,-302.16C1052.75,-296.15 1257.79,-280.31 1428.15,-252 1441.05,-249.86 1455.07,-246.82 1467.4,-243.91"/>
<polygon fill="black" stroke="black" points="1468.4,-247.26 1477.3,-241.51 1466.75,-240.46 1468.4,-247.26"/>
</g>
<!-- chardet&#45;&gt;conda&#45;build -->
<g id="edge23" class="edge">
<title>chardet&#45;&gt;conda&#45;build</title>
<path fill="none" stroke="black" d="M547.5,-146.11C572.39,-125.66 620.5,-89.44 668.15,-72 785.51,-29.05 932.95,-20.03 1014.91,-18.64"/>
<polygon fill="black" stroke="black" points="1015.11,-22.14 1025.06,-18.5 1015.01,-15.14 1015.11,-22.14"/>
</g>
<!-- chardet&#45;&gt;conda -->
<g id="edge24" class="edge">
<title>chardet&#45;&gt;conda</title>
<path fill="none" stroke="black" d="M558.12,-150.06C589.44,-137.81 640.25,-117.94 674.18,-104.68"/>
<polygon fill="black" stroke="black" points="675.66,-107.86 683.69,-100.95 673.11,-101.34 675.66,-107.86"/>
</g>
<!-- cython&#45;&gt;ruamel_yaml -->
<g id="edge27" class="edge">
<title>cython&#45;&gt;ruamel_yaml</title>
<path fill="none" stroke="black" d="M964.34,-223.12C932.51,-211.81 879.84,-193.09 841.72,-179.55"/>
<polygon fill="black" stroke="black" points="842.47,-176.1 831.87,-176.05 840.12,-182.69 842.47,-176.1"/>
</g>
<!-- cython&#45;&gt;conda&#45;package&#45;handling -->
<g id="edge28" class="edge">
<title>cython&#45;&gt;conda&#45;package&#45;handling</title>
<path fill="none" stroke="black" d="M995.3,-216.05C996.73,-208.35 998.46,-199.03 1000.07,-190.36"/>
<polygon fill="black" stroke="black" points="1003.56,-190.75 1001.94,-180.28 996.67,-189.47 1003.56,-190.75"/>
</g>
<!-- pyyaml -->
<g id="node20" class="node">
<title>pyyaml</title>
<g id="a_node20"><a xlink:href="https://github.com/conda-forge/pyyaml-feedstock" xlink:title="pyyaml">
<ellipse fill="#fde725" stroke="black" cx="1463.15" cy="-162" rx="37.89" ry="18"/>
<text text-anchor="middle" x="1463.15" y="-158.3" font-family="Times,serif" font-size="14.00">pyyaml</text>
</a>
</g>
</g>
<!-- cython&#45;&gt;pyyaml -->
<g id="edge26" class="edge">
<title>cython&#45;&gt;pyyaml</title>
<path fill="none" stroke="black" d="M1024.9,-228.13C1107.24,-215.9 1323.08,-183.82 1417.65,-169.76"/>
<polygon fill="black" stroke="black" points="1418.38,-173.19 1427.76,-168.26 1417.36,-166.27 1418.38,-173.19"/>
</g>
<!-- ruamel_yaml&#45;&gt;conda -->
<g id="edge30" class="edge">
<title>ruamel_yaml&#45;&gt;conda</title>
<path fill="none" stroke="black" d="M775.2,-144.76C763.16,-134.96 747.68,-122.36 734.74,-111.83"/>
<polygon fill="black" stroke="black" points="736.62,-108.85 726.66,-105.25 732.2,-114.28 736.62,-108.85"/>
</g>
<!-- conda&#45;package&#45;handling&#45;&gt;conda&#45;build -->
<g id="edge31" class="edge">
<title>conda&#45;package&#45;handling&#45;&gt;conda&#45;build</title>
<path fill="none" stroke="black" d="M1013.84,-143.87C1026.27,-119.35 1049.25,-74.03 1063.84,-45.26"/>
<polygon fill="black" stroke="black" points="1067.03,-46.69 1068.43,-36.19 1060.79,-43.53 1067.03,-46.69"/>
</g>
<!-- conda&#45;package&#45;handling&#45;&gt;conda -->
<g id="edge32" class="edge">
<title>conda&#45;package&#45;handling&#45;&gt;conda</title>
<path fill="none" stroke="black" d="M948.08,-147.5C889.3,-133.6 799.27,-112.31 748.16,-100.23"/>
<polygon fill="black" stroke="black" points="748.71,-96.76 738.17,-97.86 747.1,-103.57 748.71,-96.76"/>
</g>
<!-- python&#45;libarchive&#45;c&#45;&gt;conda&#45;build -->
<g id="edge35" class="edge">
<title>python&#45;libarchive&#45;c&#45;&gt;conda&#45;build</title>
<path fill="none" stroke="black" d="M408.8,-216.23C393.89,-197.8 375.36,-167.67 389.15,-144 421.81,-87.94 454.26,-91.48 516.15,-72 607.93,-43.11 889.93,-27.32 1015.6,-21.56"/>
<polygon fill="black" stroke="black" points="1015.99,-25.05 1025.82,-21.1 1015.67,-18.05 1015.99,-25.05"/>
</g>
<!-- markupsafe&#45;&gt;conda&#45;build -->
<g id="edge37" class="edge">
<title>markupsafe&#45;&gt;conda&#45;build</title>
<path fill="none" stroke="black" d="M1309.42,-217.6C1320.94,-208.22 1333.88,-195.15 1340.15,-180 1346.27,-165.22 1348.69,-157.53 1340.15,-144 1295.11,-72.62 1196.95,-41.18 1134.12,-27.94"/>
<polygon fill="black" stroke="black" points="1134.47,-24.44 1123.97,-25.9 1133.09,-31.3 1134.47,-24.44"/>
</g>
<!-- psutil&#45;&gt;conda&#45;build -->
<g id="edge38" class="edge">
<title>psutil&#45;&gt;conda&#45;build</title>
<path fill="none" stroke="black" d="M1384.53,-215.88C1376.3,-181.71 1352.67,-105.46 1300.15,-72 1251.22,-40.83 1185.69,-27.97 1138.34,-22.68"/>
<polygon fill="black" stroke="black" points="1138.53,-19.18 1128.22,-21.63 1137.81,-26.14 1138.53,-19.18"/>
</g>
<!-- pycosat&#45;&gt;conda -->
<g id="edge39" class="edge">
<title>pycosat&#45;&gt;conda</title>
<path fill="none" stroke="black" d="M607.13,-216.29C618.4,-197.91 637.71,-167.82 657.15,-144 665.81,-133.39 676.24,-122.46 685.48,-113.3"/>
<polygon fill="black" stroke="black" points="688.18,-115.55 692.89,-106.07 683.29,-110.54 688.18,-115.55"/>
</g>
<!-- pysocks&#45;&gt;conda&#45;build -->
<g id="edge40" class="edge">
<title>pysocks&#45;&gt;conda&#45;build</title>
<path fill="none" stroke="black" d="M1148.7,-144.43C1134.69,-119.88 1108.3,-73.6 1091.78,-44.65"/>
<polygon fill="black" stroke="black" points="1094.79,-42.85 1086.79,-35.9 1088.71,-46.32 1094.79,-42.85"/>
</g>
<!-- pysocks&#45;&gt;conda -->
<g id="edge41" class="edge">
<title>pysocks&#45;&gt;conda</title>
<path fill="none" stroke="black" d="M1129.51,-149.76C1123.21,-147.59 1116.51,-145.53 1110.15,-144 981.3,-113.03 824.5,-98.92 750.98,-93.64"/>
<polygon fill="black" stroke="black" points="750.98,-90.13 740.76,-92.92 750.49,-97.11 750.98,-90.13"/>
</g>
<!-- cryptography&#45;&gt;conda&#45;build -->
<g id="edge42" class="edge">
<title>cryptography&#45;&gt;conda&#45;build</title>
<path fill="none" stroke="black" d="M1251.43,-145.26C1216.23,-119.76 1146.7,-69.39 1106.92,-40.57"/>
<polygon fill="black" stroke="black" points="1108.82,-37.63 1098.67,-34.59 1104.72,-43.29 1108.82,-37.63"/>
</g>
<!-- cryptography&#45;&gt;conda -->
<g id="edge43" class="edge">
<title>cryptography&#45;&gt;conda</title>
<path fill="none" stroke="black" d="M1231.18,-149.38C1222.92,-147.37 1214.3,-145.46 1206.15,-144 1038.88,-114.02 836.69,-98.89 750.89,-93.44"/>
<polygon fill="black" stroke="black" points="750.97,-89.94 740.77,-92.81 750.53,-96.92 750.97,-89.94"/>
</g>
<!-- lief&#45;&gt;conda&#45;build -->
<g id="edge44" class="edge">
<title>lief&#45;&gt;conda&#45;build</title>
<path fill="none" stroke="black" d="M1508.08,-216.26C1513.61,-197.86 1519.69,-167.75 1510.15,-144 1493.63,-102.87 1480.55,-92.3 1441.15,-72 1389.49,-45.39 1227.33,-29.83 1137.88,-23.06"/>
<polygon fill="black" stroke="black" points="1138.11,-19.56 1127.87,-22.31 1137.59,-26.54 1138.11,-19.56"/>
</g>
<!-- curl -->
<g id="node18" class="node">
<title>curl</title>
<g id="a_node18"><a xlink:href="https://github.com/conda-forge/curl-feedstock" xlink:title="curl">
<ellipse fill="#35b779" stroke="black" cx="268.15" cy="-306" rx="27" ry="18"/>
<text text-anchor="middle" x="268.15" y="-302.3" font-family="Times,serif" font-size="14.00">curl</text>
</a>
</g>
</g>
<!-- micromamba -->
<g id="node19" class="node">
<title>micromamba</title>
<g id="a_node19"><a xlink:href="https://github.com/conda-forge/micromamba-feedstock" xlink:title="micromamba">
<ellipse fill="#fde725" stroke="black" cx="268.15" cy="-234" rx="58.5" ry="18"/>
<text text-anchor="middle" x="268.15" y="-230.3" font-family="Times,serif" font-size="14.00">micromamba</text>
</a>
</g>
</g>
<!-- curl&#45;&gt;micromamba -->
<g id="edge25" class="edge">
<title>curl&#45;&gt;micromamba</title>
<path fill="none" stroke="black" d="M268.15,-287.7C268.15,-279.98 268.15,-270.71 268.15,-262.11"/>
<polygon fill="black" stroke="black" points="271.65,-262.1 268.15,-252.1 264.65,-262.1 271.65,-262.1"/>
</g>
<!-- pyyaml&#45;&gt;conda&#45;build -->
<g id="edge29" class="edge">
<title>pyyaml&#45;&gt;conda&#45;build</title>
<path fill="none" stroke="black" d="M1458.24,-144.15C1451.3,-123.58 1436.56,-89.37 1411.15,-72 1367.88,-42.42 1222.49,-28.32 1138.48,-22.49"/>
<polygon fill="black" stroke="black" points="1138.51,-18.99 1128.3,-21.81 1138.04,-25.97 1138.51,-18.99"/>
</g>
<!-- libarchive -->
<g id="node21" class="node">
<title>libarchive</title>
<g id="a_node21"><a xlink:href="https://github.com/conda-forge/libarchive-feedstock" xlink:title="libarchive">
<ellipse fill="#fde725" stroke="black" cx="367.15" cy="-306" rx="46.29" ry="18"/>
<text text-anchor="middle" x="367.15" y="-302.3" font-family="Times,serif" font-size="14.00">libarchive</text>
</a>
</g>
</g>
<!-- libarchive&#45;&gt;python&#45;libarchive&#45;c -->
<g id="edge34" class="edge">
<title>libarchive&#45;&gt;python&#45;libarchive&#45;c</title>
<path fill="none" stroke="black" d="M380.66,-288.41C387.58,-279.91 396.16,-269.37 403.86,-259.91"/>
<polygon fill="black" stroke="black" points="406.74,-261.92 410.34,-251.96 401.31,-257.5 406.74,-261.92"/>
</g>
<!-- libarchive&#45;&gt;micromamba -->
<g id="edge33" class="edge">
<title>libarchive&#45;&gt;micromamba</title>
<path fill="none" stroke="black" d="M345.67,-289.81C332.07,-280.2 314.27,-267.61 299.16,-256.92"/>
<polygon fill="black" stroke="black" points="300.81,-253.8 290.62,-250.89 296.77,-259.52 300.81,-253.8"/>
</g>
<!-- libxml2 -->
<g id="node22" class="node">
<title>libxml2</title>
<g id="a_node22"><a xlink:href="https://github.com/conda-forge/libxml2-feedstock/pull/55" xlink:title="libxml2 ❎">
<ellipse fill="#31688e" stroke="black" cx="367.15" cy="-378" rx="50.09" ry="18"/>
<text text-anchor="middle" x="367.15" y="-374.3" font-family="Times,serif" font-size="14.00" fill="white">libxml2 ❎</text>
</a>
</g>
</g>
<!-- libxml2&#45;&gt;libarchive -->
<g id="edge36" class="edge">
<title>libxml2&#45;&gt;libarchive</title>
<path fill="none" stroke="black" d="M367.15,-359.7C367.15,-351.98 367.15,-342.71 367.15,-334.11"/>
<polygon fill="black" stroke="black" points="370.65,-334.1 367.15,-324.1 363.65,-334.1 370.65,-334.1"/>
</g>
<!-- python -->
<g id="node23" class="node">
<title>python</title>
<g id="a_node23"><a xlink:href="https://github.com/conda-forge/python-feedstock/pull/376" xlink:title="python ❎">
<ellipse fill="#31688e" stroke="black" cx="1746.15" cy="-270" rx="47" ry="18"/>
<text text-anchor="middle" x="1746.15" y="-266.3" font-family="Times,serif" font-size="14.00" fill="white">python ❎</text>
</a>
</g>
</g>
<!-- pypy3.6 -->
<g id="node24" class="node">
<title>pypy3.6</title>
<g id="a_node24"><a xlink:href="https://github.com/conda-forge/pypy3.6-feedstock/pull/25" xlink:title="pypy3 6 ❎">
<ellipse fill="#31688e" stroke="black" cx="973.15" cy="-522" rx="51.5" ry="18"/>
<text text-anchor="middle" x="973.15" y="-518.3" font-family="Times,serif" font-size="14.00" fill="white">pypy3 6 ❎</text>
</a>
</g>
</g>
<!-- pypy&#45;meta -->
<g id="node25" class="node">
<title>pypy&#45;meta</title>
<g id="a_node25"><a xlink:href="https://github.com/conda-forge/pypy-meta-feedstock" xlink:title="pypy meta">
<ellipse fill="#fde725" stroke="black" cx="973.15" cy="-450" rx="48.19" ry="18"/>
<text text-anchor="middle" x="973.15" y="-446.3" font-family="Times,serif" font-size="14.00">pypy meta</text>
</a>
</g>
</g>
<!-- pypy3.6&#45;&gt;pypy&#45;meta -->
<g id="edge45" class="edge">
<title>pypy3.6&#45;&gt;pypy&#45;meta</title>
<path fill="none" stroke="black" d="M973.15,-503.7C973.15,-495.98 973.15,-486.71 973.15,-478.11"/>
<polygon fill="black" stroke="black" points="976.65,-478.1 973.15,-468.1 969.65,-478.1 976.65,-478.1"/>
</g>
<!-- pypy&#45;meta&#45;&gt;beautifulsoup4 -->
<g id="edge46" class="edge">
<title>pypy&#45;meta&#45;&gt;beautifulsoup4</title>
<path fill="none" stroke="black" d="M1021.25,-448.87C1133.44,-447.79 1408.93,-440.57 1488.15,-396 1543,-365.14 1580.9,-298.43 1598.66,-261.29"/>
<polygon fill="black" stroke="black" points="1601.9,-262.64 1602.94,-252.09 1595.55,-259.69 1601.9,-262.64"/>
</g>
<!-- pypy&#45;meta&#45;&gt;conda&#45;build -->
<g id="edge47" class="edge">
<title>pypy&#45;meta&#45;&gt;conda&#45;build</title>
<path fill="none" stroke="black" d="M925.11,-448.88C778.25,-448.01 337.05,-441.57 202.15,-396 134.06,-373 67.15,-378.87 67.15,-307 67.15,-307 67.15,-307 67.15,-161 67.15,-141.56 0,-138.41 203.15,-72 354.13,-22.64 841.04,-18.55 1014.81,-18.71"/>
<polygon fill="black" stroke="black" points="1015.06,-22.21 1025.06,-18.73 1015.07,-15.21 1015.06,-22.21"/>
</g>
<!-- pypy&#45;meta&#45;&gt;brotlipy -->
<g id="edge48" class="edge">
<title>pypy&#45;meta&#45;&gt;brotlipy</title>
<path fill="none" stroke="black" d="M925.18,-447.77C773.93,-443.58 313.54,-428.27 255.15,-396 179.74,-354.32 128.8,-282.86 183.15,-216 208.57,-184.73 322.54,-171.28 388.86,-166.02"/>
<polygon fill="black" stroke="black" points="389.37,-169.49 399.07,-165.24 388.84,-162.51 389.37,-169.49"/>
</g>
<!-- pypy&#45;meta&#45;&gt;conda -->
<g id="edge49" class="edge">
<title>pypy&#45;meta&#45;&gt;conda</title>
<path fill="none" stroke="black" d="M945.93,-435.1C928.07,-425.34 904.67,-411.34 886.15,-396 819.75,-341 808.43,-320.57 756.15,-252 733.13,-221.8 721,-216.39 710.15,-180 704.16,-159.92 704.24,-136.13 705.63,-118.21"/>
<polygon fill="black" stroke="black" points="709.13,-118.44 706.6,-108.15 702.16,-117.77 709.13,-118.44"/>
</g>
<!-- pypy&#45;meta&#45;&gt;certifi -->
<g id="edge50" class="edge">
<title>pypy&#45;meta&#45;&gt;certifi</title>
<path fill="none" stroke="black" d="M929.46,-442.42C868.82,-433.11 755.82,-415.07 660.15,-396 648.67,-393.71 636.25,-390.96 624.92,-388.35"/>
<polygon fill="black" stroke="black" points="625.42,-384.87 614.88,-386.01 623.83,-391.69 625.42,-384.87"/>
</g>
<!-- pypy&#45;meta&#45;&gt;setuptools -->
<g id="edge51" class="edge">
<title>pypy&#45;meta&#45;&gt;setuptools</title>
<path fill="none" stroke="black" d="M966.62,-432.15C957.16,-407.71 939.52,-362.17 928.33,-333.29"/>
<polygon fill="black" stroke="black" points="931.54,-331.89 924.67,-323.82 925.01,-334.41 931.54,-331.89"/>
</g>
<!-- pypy&#45;meta&#45;&gt;chardet -->
<g id="edge52" class="edge">
<title>pypy&#45;meta&#45;&gt;chardet</title>
<path fill="none" stroke="black" d="M924.84,-449.28C791.09,-449.39 418.58,-445.18 308.15,-396 265.65,-377.07 259.01,-361.99 232.15,-324 203.25,-283.12 167.05,-253.56 200.15,-216 242.21,-168.27 422.36,-195.12 484.15,-180 487.11,-179.27 490.15,-178.42 493.18,-177.48"/>
<polygon fill="black" stroke="black" points="494.36,-180.78 502.74,-174.29 492.14,-174.14 494.36,-180.78"/>
</g>
<!-- pypy&#45;meta&#45;&gt;cython -->
<g id="edge53" class="edge">
<title>pypy&#45;meta&#45;&gt;cython</title>
<path fill="none" stroke="black" d="M974.67,-431.85C977.96,-394.83 985.74,-307.18 989.72,-262.39"/>
<polygon fill="black" stroke="black" points="993.22,-262.5 990.62,-252.23 986.25,-261.88 993.22,-262.5"/>
</g>
<!-- pypy&#45;meta&#45;&gt;ruamel_yaml -->
<g id="edge55" class="edge">
<title>pypy&#45;meta&#45;&gt;ruamel_yaml</title>
<path fill="none" stroke="black" d="M955.96,-433.02C932.53,-410.5 890.36,-367.33 863.15,-324 835.63,-280.18 814.6,-223.29 803.63,-190.19"/>
<polygon fill="black" stroke="black" points="806.84,-188.76 800.42,-180.33 800.18,-190.92 806.84,-188.76"/>
</g>
<!-- pypy&#45;meta&#45;&gt;conda&#45;package&#45;handling -->
<g id="edge56" class="edge">
<title>pypy&#45;meta&#45;&gt;conda&#45;package&#45;handling</title>
<path fill="none" stroke="black" d="M980.61,-432.05C994.89,-398.5 1025.53,-320.89 1035.15,-252 1037.36,-236.15 1039.23,-231.47 1035.15,-216 1032.66,-206.54 1028.05,-196.99 1023.18,-188.66"/>
<polygon fill="black" stroke="black" points="1026.14,-186.79 1017.88,-180.15 1020.2,-190.49 1026.14,-186.79"/>
</g>
<!-- pypy&#45;meta&#45;&gt;python&#45;libarchive&#45;c -->
<g id="edge57" class="edge">
<title>pypy&#45;meta&#45;&gt;python&#45;libarchive&#45;c</title>
<path fill="none" stroke="black" d="M925.23,-447.73C827.47,-444.39 608.9,-432.9 545.15,-396 490.84,-364.56 453.21,-298.08 435.57,-261.14"/>
<polygon fill="black" stroke="black" points="438.7,-259.58 431.32,-251.99 432.36,-262.53 438.7,-259.58"/>
</g>
<!-- pypy&#45;meta&#45;&gt;markupsafe -->
<g id="edge58" class="edge">
<title>pypy&#45;meta&#45;&gt;markupsafe</title>
<path fill="none" stroke="black" d="M1019.02,-444.33C1082.02,-437.07 1190.96,-421.23 1221.15,-396 1261.9,-361.94 1277.81,-298.73 1283.78,-262.47"/>
<polygon fill="black" stroke="black" points="1287.3,-262.55 1285.32,-252.14 1280.38,-261.51 1287.3,-262.55"/>
</g>
<!-- pypy&#45;meta&#45;&gt;psutil -->
<g id="edge59" class="edge">
<title>pypy&#45;meta&#45;&gt;psutil</title>
<path fill="none" stroke="black" d="M1021.3,-449.22C1079.33,-447.46 1178.04,-437.82 1250.15,-396 1307.45,-362.77 1352.37,-296.72 1374.01,-260.4"/>
<polygon fill="black" stroke="black" points="1377.23,-261.82 1379.25,-251.42 1371.19,-258.3 1377.23,-261.82"/>
</g>
<!-- pypy&#45;meta&#45;&gt;pycosat -->
<g id="edge60" class="edge">
<title>pypy&#45;meta&#45;&gt;pycosat</title>
<path fill="none" stroke="black" d="M924.83,-448.18C872.07,-445.22 786.9,-434.27 725.15,-396 670.82,-362.33 629.89,-297.03 610.18,-260.79"/>
<polygon fill="black" stroke="black" points="613.19,-259.01 605.41,-251.82 607.01,-262.29 613.19,-259.01"/>
</g>
<!-- pypy&#45;meta&#45;&gt;pysocks -->
<g id="edge61" class="edge">
<title>pypy&#45;meta&#45;&gt;pysocks</title>
<path fill="none" stroke="black" d="M987.3,-432.74C995.98,-422.47 1007.13,-408.78 1016.15,-396 1067.42,-323.34 1119.86,-231.95 1144.18,-188.37"/>
<polygon fill="black" stroke="black" points="1147.27,-190.02 1149.07,-179.58 1141.15,-186.62 1147.27,-190.02"/>
</g>
<!-- pypy&#45;meta&#45;&gt;cryptography -->
<g id="edge62" class="edge">
<title>pypy&#45;meta&#45;&gt;cryptography</title>
<path fill="none" stroke="black" d="M994.57,-433.71C1008.5,-423.48 1026.85,-409.48 1042.15,-396 1123.42,-324.38 1211.41,-230.6 1251.3,-187.09"/>
<polygon fill="black" stroke="black" points="1254.01,-189.32 1258.17,-179.57 1248.84,-184.59 1254.01,-189.32"/>
</g>
<!-- pypy&#45;meta&#45;&gt;lief -->
<g id="edge63" class="edge">
<title>pypy&#45;meta&#45;&gt;lief</title>
<path fill="none" stroke="black" d="M1020.88,-446.87C1137.22,-441.27 1428.29,-424.52 1461.15,-396 1499.55,-362.67 1504.51,-298.91 1503.87,-262.43"/>
<polygon fill="black" stroke="black" points="1507.36,-261.92 1503.52,-252.04 1500.36,-262.16 1507.36,-261.92"/>
</g>
<!-- pypy&#45;meta&#45;&gt;pyyaml -->
<g id="edge54" class="edge">
<title>pypy&#45;meta&#45;&gt;pyyaml</title>
<path fill="none" stroke="black" d="M1021.51,-449.86C1085.78,-449.05 1201.2,-440.72 1287.15,-396 1366.61,-354.65 1379.59,-327.27 1428.15,-252 1440.62,-232.67 1449.85,-208.19 1455.69,-189.8"/>
<polygon fill="black" stroke="black" points="1459.1,-190.6 1458.66,-180.02 1452.4,-188.57 1459.1,-190.6"/>
</g>
<!-- ripgrep -->
<g id="node26" class="node">
<title>ripgrep</title>
<g id="a_node26"><a xlink:href="https://github.com/conda-forge/ripgrep-feedstock/pull/15" xlink:title="ripgrep ❎">
<ellipse fill="#31688e" stroke="black" cx="1643.15" cy="-90" rx="48.19" ry="18"/>
<text text-anchor="middle" x="1643.15" y="-86.3" font-family="Times,serif" font-size="14.00" fill="white">ripgrep ❎</text>
</a>
</g>
</g>
<!-- ripgrep&#45;&gt;conda&#45;build -->
<g id="edge64" class="edge">
<title>ripgrep&#45;&gt;conda&#45;build</title>
<path fill="none" stroke="black" d="M1606.99,-78.02C1598.57,-75.76 1589.6,-73.59 1581.15,-72 1423.07,-42.22 1233.7,-27.94 1138.38,-22.22"/>
<polygon fill="black" stroke="black" points="1138.53,-18.72 1128.34,-21.62 1138.12,-25.71 1138.53,-18.72"/>
</g>
</g>
</svg>
