<?xml version="1.0" encoding="UTF-8" standalone="no"?>
<!DOCTYPE svg PUBLIC "-//W3C//DTD SVG 1.1//EN"
 "http://www.w3.org/Graphics/SVG/1.1/DTD/svg11.dtd">
<!-- Generated by graphviz version 2.42.3 (20191010.1750)
 -->
<!-- Title: %3 Pages: 1 -->
<svg width="1643pt" height="404pt"
 viewBox="0.00 0.00 1642.69 404.00" xmlns="http://www.w3.org/2000/svg" xmlns:xlink="http://www.w3.org/1999/xlink">
<g id="graph0" class="graph" transform="scale(1 1) rotate(0) translate(4 400)">
<title>%3</title>
<polygon fill="white" stroke="transparent" points="-4,4 -4,-400 1638.69,-400 1638.69,4 -4,4"/>
<!-- autoconf -->
<g id="node1" class="node">
<title>autoconf</title>
<g id="a_node1"><a xlink:href="https://github.com/conda-forge/autoconf-feedstock" xlink:title="autoconf">
<ellipse fill="#fde725" stroke="black" cx="1325.5" cy="-198" rx="41.69" ry="18"/>
<text text-anchor="middle" x="1325.5" y="-194.3" font-family="Times,serif" font-size="14.00">autoconf</text>
</a>
</g>
</g>
<!-- automake -->
<g id="node2" class="node">
<title>automake</title>
<g id="a_node2"><a xlink:href="https://github.com/conda-forge/automake-feedstock" xlink:title="automake">
<ellipse fill="#fde725" stroke="black" cx="1334.5" cy="-126" rx="45.5" ry="18"/>
<text text-anchor="middle" x="1334.5" y="-122.3" font-family="Times,serif" font-size="14.00">automake</text>
</a>
</g>
</g>
<!-- autoconf&#45;&gt;automake -->
<g id="edge1" class="edge">
<title>autoconf&#45;&gt;automake</title>
<path fill="none" stroke="black" d="M1327.72,-179.7C1328.72,-171.98 1329.91,-162.71 1331.01,-154.11"/>
<polygon fill="black" stroke="black" points="1334.5,-154.47 1332.3,-144.1 1327.55,-153.58 1334.5,-154.47"/>
</g>
<!-- cairo -->
<g id="node3" class="node">
<title>cairo</title>
<g id="a_node3"><a xlink:href="https://github.com/conda-forge/cairo-feedstock" xlink:title="cairo">
<ellipse fill="#fde725" stroke="black" cx="560.5" cy="-306" rx="28.7" ry="18"/>
<text text-anchor="middle" x="560.5" y="-302.3" font-family="Times,serif" font-size="14.00">cairo</text>
</a>
</g>
</g>
<!-- gobject&#45;introspection -->
<g id="node4" class="node">
<title>gobject&#45;introspection</title>
<g id="a_node4"><a xlink:href="https://github.com/conda-forge/gobject-introspection-feedstock" xlink:title="gobject introspection">
<ellipse fill="#fde725" stroke="black" cx="314.5" cy="-234" rx="85.29" ry="18"/>
<text text-anchor="middle" x="314.5" y="-230.3" font-family="Times,serif" font-size="14.00">gobject introspection</text>
</a>
</g>
</g>
<!-- cairo&#45;&gt;gobject&#45;introspection -->
<g id="edge2" class="edge">
<title>cairo&#45;&gt;gobject&#45;introspection</title>
<path fill="none" stroke="black" d="M534.64,-297.64C496.51,-286.79 424.19,-266.21 372.86,-251.61"/>
<polygon fill="black" stroke="black" points="373.79,-248.23 363.21,-248.86 371.87,-254.96 373.79,-248.23"/>
</g>
<!-- harfbuzz -->
<g id="node5" class="node">
<title>harfbuzz</title>
<g id="a_node5"><a xlink:href="https://github.com/conda-forge/harfbuzz-feedstock" xlink:title="harfbuzz">
<ellipse fill="#fde725" stroke="black" cx="677.5" cy="-234" rx="41.69" ry="18"/>
<text text-anchor="middle" x="677.5" y="-230.3" font-family="Times,serif" font-size="14.00">harfbuzz</text>
</a>
</g>
</g>
<!-- cairo&#45;&gt;harfbuzz -->
<g id="edge3" class="edge">
<title>cairo&#45;&gt;harfbuzz</title>
<path fill="none" stroke="black" d="M580.61,-292.97C598.37,-282.34 624.58,-266.66 645.26,-254.29"/>
<polygon fill="black" stroke="black" points="647.25,-257.18 654.03,-249.04 643.65,-251.17 647.25,-257.18"/>
</g>
<!-- librsvg -->
<g id="node6" class="node">
<title>librsvg</title>
<g id="a_node6"><a xlink:href="https://github.com/conda-forge/librsvg-feedstock" xlink:title="librsvg">
<ellipse fill="#fde725" stroke="black" cx="369.5" cy="-90" rx="35.19" ry="18"/>
<text text-anchor="middle" x="369.5" y="-86.3" font-family="Times,serif" font-size="14.00">librsvg</text>
</a>
</g>
</g>
<!-- cairo&#45;&gt;librsvg -->
<g id="edge4" class="edge">
<title>cairo&#45;&gt;librsvg</title>
<path fill="none" stroke="black" d="M534.43,-298.45C509.17,-290.94 471.17,-276.4 446.5,-252 408.17,-214.09 386.37,-153.33 376.34,-118.3"/>
<polygon fill="black" stroke="black" points="379.62,-117.03 373.6,-108.31 372.87,-118.88 379.62,-117.03"/>
</g>
<!-- pango -->
<g id="node7" class="node">
<title>pango</title>
<g id="a_node7"><a xlink:href="https://github.com/conda-forge/pango-feedstock" xlink:title="pango">
<ellipse fill="#fde725" stroke="black" cx="546.5" cy="-162" rx="32.5" ry="18"/>
<text text-anchor="middle" x="546.5" y="-158.3" font-family="Times,serif" font-size="14.00">pango</text>
</a>
</g>
</g>
<!-- cairo&#45;&gt;pango -->
<g id="edge5" class="edge">
<title>cairo&#45;&gt;pango</title>
<path fill="none" stroke="black" d="M558.81,-287.87C556.43,-263.67 552.04,-219.21 549.2,-190.39"/>
<polygon fill="black" stroke="black" points="552.66,-189.8 548.19,-180.19 545.69,-190.48 552.66,-189.8"/>
</g>
<!-- r&#45;base -->
<g id="node8" class="node">
<title>r&#45;base</title>
<g id="a_node8"><a xlink:href="https://github.com/conda-forge/r-base-feedstock" xlink:title="r base">
<ellipse fill="#fde725" stroke="black" cx="775.5" cy="-90" rx="32" ry="18"/>
<text text-anchor="middle" x="775.5" y="-86.3" font-family="Times,serif" font-size="14.00">r base</text>
</a>
</g>
</g>
<!-- cairo&#45;&gt;r&#45;base -->
<g id="edge6" class="edge">
<title>cairo&#45;&gt;r&#45;base</title>
<path fill="none" stroke="black" d="M570.88,-289.2C583.23,-270.86 604.91,-240.04 626.5,-216 658.02,-180.9 668.21,-174.15 704.5,-144 718.38,-132.47 734.45,-120.38 747.78,-110.66"/>
<polygon fill="black" stroke="black" points="750.05,-113.34 756.1,-104.65 745.95,-107.67 750.05,-113.34"/>
</g>
<!-- gobject&#45;introspection&#45;&gt;pango -->
<g id="edge7" class="edge">
<title>gobject&#45;introspection&#45;&gt;pango</title>
<path fill="none" stroke="black" d="M361.17,-218.92C404.6,-205.82 468.5,-186.54 508.78,-174.38"/>
<polygon fill="black" stroke="black" points="509.93,-177.69 518.49,-171.45 507.9,-170.99 509.93,-177.69"/>
</g>
<!-- gdk&#45;pixbuf -->
<g id="node9" class="node">
<title>gdk&#45;pixbuf</title>
<g id="a_node9"><a xlink:href="https://github.com/conda-forge/gdk-pixbuf-feedstock" xlink:title="gdk pixbuf">
<ellipse fill="#fde725" stroke="black" cx="311.5" cy="-162" rx="49.5" ry="18"/>
<text text-anchor="middle" x="311.5" y="-158.3" font-family="Times,serif" font-size="14.00">gdk pixbuf</text>
</a>
</g>
</g>
<!-- gobject&#45;introspection&#45;&gt;gdk&#45;pixbuf -->
<g id="edge8" class="edge">
<title>gobject&#45;introspection&#45;&gt;gdk&#45;pixbuf</title>
<path fill="none" stroke="black" d="M313.76,-215.7C313.43,-207.98 313.03,-198.71 312.66,-190.11"/>
<polygon fill="black" stroke="black" points="316.16,-189.95 312.23,-180.1 309.16,-190.25 316.16,-189.95"/>
</g>
<!-- harfbuzz&#45;&gt;pango -->
<g id="edge9" class="edge">
<title>harfbuzz&#45;&gt;pango</title>
<path fill="none" stroke="black" d="M652.24,-219.5C631.07,-208.19 600.74,-191.98 577.99,-179.82"/>
<polygon fill="black" stroke="black" points="579.53,-176.68 569.06,-175.05 576.23,-182.85 579.53,-176.68"/>
</g>
<!-- emacs -->
<g id="node10" class="node">
<title>emacs</title>
<g id="a_node10"><a xlink:href="https://github.com/conda-forge/emacs-feedstock" xlink:title="emacs">
<ellipse fill="#fde725" stroke="black" cx="233.5" cy="-18" rx="33.29" ry="18"/>
<text text-anchor="middle" x="233.5" y="-14.3" font-family="Times,serif" font-size="14.00">emacs</text>
</a>
</g>
</g>
<!-- librsvg&#45;&gt;emacs -->
<g id="edge10" class="edge">
<title>librsvg&#45;&gt;emacs</title>
<path fill="none" stroke="black" d="M345.5,-76.65C323.32,-65.23 290.2,-48.18 265.72,-35.59"/>
<polygon fill="black" stroke="black" points="267.3,-32.46 256.81,-31 264.1,-38.68 267.3,-32.46"/>
</g>
<!-- pango&#45;&gt;librsvg -->
<g id="edge11" class="edge">
<title>pango&#45;&gt;librsvg</title>
<path fill="none" stroke="black" d="M520.76,-150.82C490.57,-138.88 440.29,-119 406.06,-105.46"/>
<polygon fill="black" stroke="black" points="407.02,-102.07 396.43,-101.65 404.44,-108.58 407.02,-102.07"/>
</g>
<!-- pango&#45;&gt;r&#45;base -->
<g id="edge12" class="edge">
<title>pango&#45;&gt;r&#45;base</title>
<path fill="none" stroke="black" d="M572.75,-151.17C579.48,-148.74 586.74,-146.21 593.5,-144 642.83,-127.91 700.44,-111.54 737.41,-101.33"/>
<polygon fill="black" stroke="black" points="738.55,-104.65 747.27,-98.62 736.7,-97.9 738.55,-104.65"/>
</g>
<!-- gdk&#45;pixbuf&#45;&gt;librsvg -->
<g id="edge15" class="edge">
<title>gdk&#45;pixbuf&#45;&gt;librsvg</title>
<path fill="none" stroke="black" d="M325.25,-144.41C332.57,-135.57 341.72,-124.53 349.79,-114.79"/>
<polygon fill="black" stroke="black" points="352.57,-116.92 356.25,-106.99 347.18,-112.46 352.57,-116.92"/>
</g>
<!-- constructor -->
<g id="node11" class="node">
<title>constructor</title>
<g id="a_node11"><a xlink:href="https://github.com/conda-forge/constructor-feedstock" xlink:title="constructor">
<ellipse fill="#fde725" stroke="black" cx="1551.5" cy="-162" rx="50.09" ry="18"/>
<text text-anchor="middle" x="1551.5" y="-158.3" font-family="Times,serif" font-size="14.00">constructor</text>
</a>
</g>
</g>
<!-- fontconfig -->
<g id="node12" class="node">
<title>fontconfig</title>
<g id="a_node12"><a xlink:href="https://github.com/conda-forge/fontconfig-feedstock/pull/44" xlink:title="fontconfig ❎">
<ellipse fill="#31688e" stroke="black" cx="654.5" cy="-378" rx="59.29" ry="18"/>
<text text-anchor="middle" x="654.5" y="-374.3" font-family="Times,serif" font-size="14.00" fill="white">fontconfig ❎</text>
</a>
</g>
</g>
<!-- fontconfig&#45;&gt;cairo -->
<g id="edge13" class="edge">
<title>fontconfig&#45;&gt;cairo</title>
<path fill="none" stroke="black" d="M633.17,-361.12C619.31,-350.8 601.16,-337.28 586.47,-326.34"/>
<polygon fill="black" stroke="black" points="588.39,-323.4 578.28,-320.24 584.21,-329.02 588.39,-323.4"/>
</g>
<!-- fontconfig&#45;&gt;pango -->
<g id="edge14" class="edge">
<title>fontconfig&#45;&gt;pango</title>
<path fill="none" stroke="black" d="M686.86,-362.73C702.47,-353.99 719.69,-341.15 728.5,-324 750.44,-281.31 757.31,-254.39 728.5,-216 711.62,-193.5 636.12,-177.41 587.82,-169.21"/>
<polygon fill="black" stroke="black" points="588.1,-165.71 577.66,-167.53 586.96,-172.62 588.1,-165.71"/>
</g>
<!-- git -->
<g id="node13" class="node">
<title>git</title>
<g id="a_node13"><a xlink:href="https://github.com/conda-forge/git-feedstock" xlink:title="git">
<ellipse fill="#fde725" stroke="black" cx="1433.5" cy="-126" rx="27" ry="18"/>
<text text-anchor="middle" x="1433.5" y="-122.3" font-family="Times,serif" font-size="14.00">git</text>
</a>
</g>
</g>
<!-- gnutls -->
<g id="node14" class="node">
<title>gnutls</title>
<g id="a_node14"><a xlink:href="https://github.com/conda-forge/gnutls-feedstock" xlink:title="gnutls">
<ellipse fill="#fde725" stroke="black" cx="168.5" cy="-90" rx="32.5" ry="18"/>
<text text-anchor="middle" x="168.5" y="-86.3" font-family="Times,serif" font-size="14.00">gnutls</text>
</a>
</g>
</g>
<!-- gnutls&#45;&gt;emacs -->
<g id="edge16" class="edge">
<title>gnutls&#45;&gt;emacs</title>
<path fill="none" stroke="black" d="M182.93,-73.46C191.51,-64.22 202.56,-52.32 212.14,-42"/>
<polygon fill="black" stroke="black" points="214.87,-44.2 219.11,-34.49 209.75,-39.44 214.87,-44.2"/>
</g>
<!-- graphite2 -->
<g id="node15" class="node">
<title>graphite2</title>
<g id="a_node15"><a xlink:href="https://github.com/conda-forge/graphite2-feedstock/pull/12" xlink:title="graphite2 ❎">
<ellipse fill="#31688e" stroke="black" cx="663.5" cy="-306" rx="56" ry="18"/>
<text text-anchor="middle" x="663.5" y="-302.3" font-family="Times,serif" font-size="14.00" fill="white">graphite2 ❎</text>
</a>
</g>
</g>
<!-- graphite2&#45;&gt;harfbuzz -->
<g id="edge17" class="edge">
<title>graphite2&#45;&gt;harfbuzz</title>
<path fill="none" stroke="black" d="M666.96,-287.7C668.5,-279.98 670.36,-270.71 672.08,-262.11"/>
<polygon fill="black" stroke="black" points="675.55,-262.6 674.08,-252.1 668.69,-261.22 675.55,-262.6"/>
</g>
<!-- gsl -->
<g id="node16" class="node">
<title>gsl</title>
<g id="a_node16"><a xlink:href="https://github.com/conda-forge/gsl-feedstock/pull/52" xlink:title="gsl ❎">
<ellipse fill="#31688e" stroke="black" cx="745.5" cy="-162" rx="32.5" ry="18"/>
<text text-anchor="middle" x="745.5" y="-158.3" font-family="Times,serif" font-size="14.00" fill="white">gsl ❎</text>
</a>
</g>
</g>
<!-- gsl&#45;&gt;r&#45;base -->
<g id="edge18" class="edge">
<title>gsl&#45;&gt;r&#45;base</title>
<path fill="none" stroke="black" d="M752.61,-144.41C756.07,-136.34 760.32,-126.43 764.21,-117.35"/>
<polygon fill="black" stroke="black" points="767.51,-118.53 768.23,-107.96 761.08,-115.77 767.51,-118.53"/>
</g>
<!-- libtiff -->
<g id="node17" class="node">
<title>libtiff</title>
<g id="a_node17"><a xlink:href="https://github.com/conda-forge/libtiff-feedstock" xlink:title="libtiff">
<ellipse fill="#35b779" stroke="black" cx="180.5" cy="-234" rx="30.59" ry="18"/>
<text text-anchor="middle" x="180.5" y="-230.3" font-family="Times,serif" font-size="14.00">libtiff</text>
</a>
</g>
</g>
<!-- libtiff&#45;&gt;r&#45;base -->
<g id="edge19" class="edge">
<title>libtiff&#45;&gt;r&#45;base</title>
<path fill="none" stroke="black" d="M203.94,-222.27C209.32,-220.03 215.05,-217.8 220.5,-216 285.61,-194.52 304.04,-196.83 370.5,-180 430.7,-164.75 445,-157.99 505.5,-144 586.66,-125.24 682.53,-107.44 735.41,-98.01"/>
<polygon fill="black" stroke="black" points="736.16,-101.43 745.4,-96.23 734.94,-94.53 736.16,-101.43"/>
</g>
<!-- libtiff&#45;&gt;gdk&#45;pixbuf -->
<g id="edge21" class="edge">
<title>libtiff&#45;&gt;gdk&#45;pixbuf</title>
<path fill="none" stroke="black" d="M202.43,-221.28C222.36,-210.63 252.15,-194.72 275.56,-182.21"/>
<polygon fill="black" stroke="black" points="277.34,-185.22 284.51,-177.42 274.04,-179.05 277.34,-185.22"/>
</g>
<!-- libtiff&#45;&gt;emacs -->
<g id="edge20" class="edge">
<title>libtiff&#45;&gt;emacs</title>
<path fill="none" stroke="black" d="M193.28,-217.3C200.75,-207.25 209.63,-193.59 214.5,-180 230.61,-135.01 233.71,-78.87 233.97,-46.16"/>
<polygon fill="black" stroke="black" points="237.47,-46.02 233.96,-36.02 230.47,-46.02 237.47,-46.02"/>
</g>
<!-- pillow -->
<g id="node18" class="node">
<title>pillow</title>
<g id="a_node18"><a xlink:href="https://github.com/conda-forge/pillow-feedstock" xlink:title="pillow">
<ellipse fill="#fde725" stroke="black" cx="56.5" cy="-90" rx="33.29" ry="18"/>
<text text-anchor="middle" x="56.5" y="-86.3" font-family="Times,serif" font-size="14.00">pillow</text>
</a>
</g>
</g>
<!-- libtiff&#45;&gt;pillow -->
<g id="edge22" class="edge">
<title>libtiff&#45;&gt;pillow</title>
<path fill="none" stroke="black" d="M160.54,-220.21C146.12,-210.35 126.76,-195.76 112.5,-180 95.01,-160.66 79.6,-135.18 69.4,-116.45"/>
<polygon fill="black" stroke="black" points="72.47,-114.78 64.68,-107.59 66.29,-118.06 72.47,-114.78"/>
</g>
<!-- lcms2 -->
<g id="node19" class="node">
<title>lcms2</title>
<g id="a_node19"><a xlink:href="https://github.com/conda-forge/lcms2-feedstock" xlink:title="lcms2">
<ellipse fill="#fde725" stroke="black" cx="32.5" cy="-162" rx="32.5" ry="18"/>
<text text-anchor="middle" x="32.5" y="-158.3" font-family="Times,serif" font-size="14.00">lcms2</text>
</a>
</g>
</g>
<!-- libtiff&#45;&gt;lcms2 -->
<g id="edge23" class="edge">
<title>libtiff&#45;&gt;lcms2</title>
<path fill="none" stroke="black" d="M157.38,-222.06C132.79,-210.44 93.7,-191.94 65.8,-178.75"/>
<polygon fill="black" stroke="black" points="66.98,-175.44 56.44,-174.32 63.99,-181.76 66.98,-175.44"/>
</g>
<!-- matplotlib -->
<g id="node20" class="node">
<title>matplotlib</title>
<g id="a_node20"><a xlink:href="https://github.com/conda-forge/matplotlib-feedstock" xlink:title="matplotlib">
<ellipse fill="#fde725" stroke="black" cx="56.5" cy="-18" rx="47.5" ry="18"/>
<text text-anchor="middle" x="56.5" y="-14.3" font-family="Times,serif" font-size="14.00">matplotlib</text>
</a>
</g>
</g>
<!-- pillow&#45;&gt;matplotlib -->
<g id="edge24" class="edge">
<title>pillow&#45;&gt;matplotlib</title>
<path fill="none" stroke="black" d="M56.5,-71.7C56.5,-63.98 56.5,-54.71 56.5,-46.11"/>
<polygon fill="black" stroke="black" points="60,-46.1 56.5,-36.1 53,-46.1 60,-46.1"/>
</g>
<!-- lcms2&#45;&gt;pillow -->
<g id="edge25" class="edge">
<title>lcms2&#45;&gt;pillow</title>
<path fill="none" stroke="black" d="M38.31,-144.05C41.05,-136.06 44.39,-126.33 47.45,-117.4"/>
<polygon fill="black" stroke="black" points="50.81,-118.38 50.74,-107.79 44.19,-116.11 50.81,-118.38"/>
</g>
<!-- nettle -->
<g id="node21" class="node">
<title>nettle</title>
<g id="a_node21"><a xlink:href="https://github.com/conda-forge/nettle-feedstock/pull/7" xlink:title="nettle ❎">
<ellipse fill="#31688e" stroke="black" cx="163.5" cy="-162" rx="42.49" ry="18"/>
<text text-anchor="middle" x="163.5" y="-158.3" font-family="Times,serif" font-size="14.00" fill="white">nettle ❎</text>
</a>
</g>
</g>
<!-- nettle&#45;&gt;gnutls -->
<g id="edge26" class="edge">
<title>nettle&#45;&gt;gnutls</title>
<path fill="none" stroke="black" d="M164.74,-143.7C165.29,-135.98 165.95,-126.71 166.56,-118.11"/>
<polygon fill="black" stroke="black" points="170.06,-118.33 167.28,-108.1 163.07,-117.83 170.06,-118.33"/>
</g>
<!-- pcre2 -->
<g id="node22" class="node">
<title>pcre2</title>
<g id="a_node22"><a xlink:href="https://github.com/conda-forge/pcre2-feedstock" xlink:title="pcre2">
<ellipse fill="#35b779" stroke="black" cx="806.5" cy="-234" rx="30.59" ry="18"/>
<text text-anchor="middle" x="806.5" y="-230.3" font-family="Times,serif" font-size="14.00">pcre2</text>
</a>
</g>
</g>
<!-- pcre2&#45;&gt;r&#45;base -->
<g id="edge27" class="edge">
<title>pcre2&#45;&gt;r&#45;base</title>
<path fill="none" stroke="black" d="M802.92,-215.92C799.15,-198 793,-169 787.5,-144 785.65,-135.58 783.59,-126.41 781.71,-118.11"/>
<polygon fill="black" stroke="black" points="785.08,-117.15 779.44,-108.17 778.25,-118.7 785.08,-117.15"/>
</g>
<!-- perl -->
<g id="node23" class="node">
<title>perl</title>
<g id="a_node23"><a xlink:href="https://github.com/conda-forge/perl-feedstock/pull/45" xlink:title="perl ✓">
<ellipse fill="#31688e" stroke="black" cx="1395.5" cy="-270" rx="34.5" ry="18"/>
<text text-anchor="middle" x="1395.5" y="-266.3" font-family="Times,serif" font-size="14.00" fill="white">perl ✓</text>
</a>
</g>
</g>
<!-- perl&#45;&gt;autoconf -->
<g id="edge28" class="edge">
<title>perl&#45;&gt;autoconf</title>
<path fill="none" stroke="black" d="M1380.31,-253.81C1371.12,-244.62 1359.22,-232.72 1348.85,-222.35"/>
<polygon fill="black" stroke="black" points="1351.18,-219.73 1341.63,-215.13 1346.23,-224.68 1351.18,-219.73"/>
</g>
<!-- perl&#45;&gt;automake -->
<g id="edge29" class="edge">
<title>perl&#45;&gt;automake</title>
<path fill="none" stroke="black" d="M1394.18,-251.86C1392.23,-233.37 1387.54,-203.44 1376.5,-180 1371.65,-169.7 1364.44,-159.59 1357.36,-151.02"/>
<polygon fill="black" stroke="black" points="1359.88,-148.58 1350.7,-143.3 1354.59,-153.16 1359.88,-148.58"/>
</g>
<!-- perl&#45;&gt;git -->
<g id="edge30" class="edge">
<title>perl&#45;&gt;git</title>
<path fill="none" stroke="black" d="M1400.01,-252.15C1406.52,-227.81 1418.63,-182.57 1426.36,-153.67"/>
<polygon fill="black" stroke="black" points="1429.79,-154.39 1429,-143.82 1423.03,-152.58 1429.79,-154.39"/>
</g>
<!-- compiler&#45;rt -->
<g id="node24" class="node">
<title>compiler&#45;rt</title>
<g id="a_node24"><a xlink:href="https://github.com/conda-forge/compiler-rt-feedstock/pull/28" xlink:title="compiler rt ❎">
<ellipse fill="#31688e" stroke="black" cx="1073.5" cy="-234" rx="61.99" ry="18"/>
<text text-anchor="middle" x="1073.5" y="-230.3" font-family="Times,serif" font-size="14.00" fill="white">compiler rt ❎</text>
</a>
</g>
</g>
<!-- clang&#45;compiler&#45;activation -->
<g id="node25" class="node">
<title>clang&#45;compiler&#45;activation</title>
<g id="a_node25"><a xlink:href="https://github.com/conda-forge/clang-compiler-activation-feedstock" xlink:title="clang compiler activation">
<ellipse fill="#fde725" stroke="black" cx="935.5" cy="-162" rx="100.98" ry="18"/>
<text text-anchor="middle" x="935.5" y="-158.3" font-family="Times,serif" font-size="14.00">clang compiler activation</text>
</a>
</g>
</g>
<!-- compiler&#45;rt&#45;&gt;clang&#45;compiler&#45;activation -->
<g id="edge31" class="edge">
<title>compiler&#45;rt&#45;&gt;clang&#45;compiler&#45;activation</title>
<path fill="none" stroke="black" d="M1043.9,-217.98C1024.22,-208 998.1,-194.76 976.44,-183.77"/>
<polygon fill="black" stroke="black" points="977.96,-180.61 967.46,-179.21 974.8,-186.86 977.96,-180.61"/>
</g>
<!-- clang&#45;compiler&#45;activation&#45;&gt;r&#45;base -->
<g id="edge32" class="edge">
<title>clang&#45;compiler&#45;activation&#45;&gt;r&#45;base</title>
<path fill="none" stroke="black" d="M899.19,-145.12C872.26,-133.33 835.79,-117.38 809.44,-105.85"/>
<polygon fill="black" stroke="black" points="810.79,-102.62 800.23,-101.82 807.98,-109.03 810.79,-102.62"/>
</g>
<!-- bwidget -->
<g id="node26" class="node">
<title>bwidget</title>
<g id="a_node26"><a xlink:href="https://github.com/conda-forge/bwidget-feedstock" xlink:title="bwidget">
<ellipse fill="#35b779" stroke="black" cx="1163.5" cy="-306" rx="39" ry="18"/>
<text text-anchor="middle" x="1163.5" y="-302.3" font-family="Times,serif" font-size="14.00">bwidget</text>
</a>
</g>
</g>
<!-- bwidget&#45;&gt;r&#45;base -->
<g id="edge33" class="edge">
<title>bwidget&#45;&gt;r&#45;base</title>
<path fill="none" stroke="black" d="M1163.4,-287.89C1162.54,-268.89 1158.79,-237.99 1144.5,-216 1114.86,-170.38 1095.37,-165.75 1045.5,-144 969.2,-110.72 871.66,-98.19 817.16,-93.58"/>
<polygon fill="black" stroke="black" points="817.42,-90.09 807.17,-92.78 816.86,-97.07 817.42,-90.09"/>
</g>
<!-- tktable -->
<g id="node27" class="node">
<title>tktable</title>
<g id="a_node27"><a xlink:href="https://github.com/conda-forge/tktable-feedstock/pull/6" xlink:title="tktable ✓">
<ellipse fill="#31688e" stroke="black" cx="1230.5" cy="-378" rx="45" ry="18"/>
<text text-anchor="middle" x="1230.5" y="-374.3" font-family="Times,serif" font-size="14.00" fill="white">tktable ✓</text>
</a>
</g>
</g>
<!-- tktable&#45;&gt;r&#45;base -->
<g id="edge34" class="edge">
<title>tktable&#45;&gt;r&#45;base</title>
<path fill="none" stroke="black" d="M1228.67,-359.73C1226.31,-341.39 1221.28,-311.83 1211.5,-288 1180.09,-211.45 1167.07,-181.86 1093.5,-144 1003.22,-97.54 881.21,-90.31 817.77,-90.04"/>
<polygon fill="black" stroke="black" points="817.73,-86.54 807.74,-90.06 817.74,-93.54 817.73,-86.54"/>
</g>
<!-- fribidi -->
<g id="node28" class="node">
<title>fribidi</title>
<g id="a_node28"><a xlink:href="https://github.com/conda-forge/fribidi-feedstock/pull/10" xlink:title="fribidi ✓">
<ellipse fill="#31688e" stroke="black" cx="498.5" cy="-234" rx="43" ry="18"/>
<text text-anchor="middle" x="498.5" y="-230.3" font-family="Times,serif" font-size="14.00" fill="white">fribidi ✓</text>
</a>
</g>
</g>
<!-- fribidi&#45;&gt;pango -->
<g id="edge35" class="edge">
<title>fribidi&#45;&gt;pango</title>
<path fill="none" stroke="black" d="M509.88,-216.41C515.82,-207.74 523.21,-196.97 529.79,-187.38"/>
<polygon fill="black" stroke="black" points="532.77,-189.21 535.54,-178.99 526.99,-185.26 532.77,-189.21"/>
</g>
<!-- cctools&#45;and&#45;ld64 -->
<g id="node29" class="node">
<title>cctools&#45;and&#45;ld64</title>
<g id="a_node29"><a xlink:href="https://github.com/conda-forge/cctools-and-ld64-feedstock" xlink:title="cctools and ld64">
<ellipse fill="#fde725" stroke="black" cx="924.5" cy="-234" rx="69" ry="18"/>
<text text-anchor="middle" x="924.5" y="-230.3" font-family="Times,serif" font-size="14.00">cctools and ld64</text>
</a>
</g>
</g>
<!-- cctools&#45;and&#45;ld64&#45;&gt;clang&#45;compiler&#45;activation -->
<g id="edge36" class="edge">
<title>cctools&#45;and&#45;ld64&#45;&gt;clang&#45;compiler&#45;activation</title>
<path fill="none" stroke="black" d="M927.22,-215.7C928.43,-207.98 929.89,-198.71 931.24,-190.11"/>
<polygon fill="black" stroke="black" points="934.72,-190.53 932.81,-180.1 927.8,-189.44 934.72,-190.53"/>
</g>
<!-- conda&#45;standalone -->
<g id="node30" class="node">
<title>conda&#45;standalone</title>
<g id="a_node30"><a xlink:href="https://github.com/conda-forge/conda-standalone-feedstock/pull/10" xlink:title="conda standalone ❎">
<ellipse fill="#31688e" stroke="black" cx="1551.5" cy="-234" rx="83.39" ry="18"/>
<text text-anchor="middle" x="1551.5" y="-230.3" font-family="Times,serif" font-size="14.00" fill="white">conda standalone ❎</text>
</a>
</g>
</g>
<!-- conda&#45;standalone&#45;&gt;constructor -->
<g id="edge37" class="edge">
<title>conda&#45;standalone&#45;&gt;constructor</title>
<path fill="none" stroke="black" d="M1551.5,-215.7C1551.5,-207.98 1551.5,-198.71 1551.5,-190.11"/>
<polygon fill="black" stroke="black" points="1555,-190.1 1551.5,-180.1 1548,-190.1 1555,-190.1"/>
</g>
<!-- ldid -->
<g id="node31" class="node">
<title>ldid</title>
<g id="a_node31"><a xlink:href="https://github.com/conda-forge/ldid-feedstock" xlink:title="ldid">
<ellipse fill="#35b779" stroke="black" cx="924.5" cy="-306" rx="27" ry="18"/>
<text text-anchor="middle" x="924.5" y="-302.3" font-family="Times,serif" font-size="14.00">ldid</text>
</a>
</g>
</g>
<!-- ldid&#45;&gt;cctools&#45;and&#45;ld64 -->
<g id="edge38" class="edge">
<title>ldid&#45;&gt;cctools&#45;and&#45;ld64</title>
<path fill="none" stroke="black" d="M924.5,-287.7C924.5,-279.98 924.5,-270.71 924.5,-262.11"/>
<polygon fill="black" stroke="black" points="928,-262.1 924.5,-252.1 921,-262.1 928,-262.1"/>
</g>
</g>
</svg>
