<?xml version="1.0" encoding="UTF-8" standalone="no"?>
<!DOCTYPE svg PUBLIC "-//W3C//DTD SVG 1.1//EN"
 "http://www.w3.org/Graphics/SVG/1.1/DTD/svg11.dtd">
<!-- Generated by graphviz version 2.42.3 (20191010.1750)
 -->
<!-- Title: %3 Pages: 1 -->
<svg width="794pt" height="448pt"
 viewBox="0.00 0.00 793.50 448.00" xmlns="http://www.w3.org/2000/svg" xmlns:xlink="http://www.w3.org/1999/xlink">
<g id="graph0" class="graph" transform="scale(1 1) rotate(0) translate(4 444)">
<title>%3</title>
<polygon fill="white" stroke="transparent" points="-4,4 -4,-444 789.5,-444 789.5,4 -4,4"/>
<!-- appnope -->
<g id="node1" class="node">
<title>appnope</title>
<g id="a_node1"><a xlink:href="https://github.com/conda-forge/appnope-feedstock" xlink:title="appnope">
<ellipse fill="#35b779" stroke="black" cx="380" cy="-278" rx="40.5" ry="18"/>
<text text-anchor="middle" x="380" y="-274.3" font-family="Times,serif" font-size="14.00">appnope</text>
</a>
</g>
</g>
<!-- ipython -->
<g id="node2" class="node">
<title>ipython</title>
<g id="a_node2"><a xlink:href="https://github.com/conda-forge/ipython-feedstock" xlink:title="ipython">
<ellipse fill="#fde725" stroke="black" cx="449" cy="-206" rx="37.89" ry="18"/>
<text text-anchor="middle" x="449" y="-202.3" font-family="Times,serif" font-size="14.00">ipython</text>
</a>
</g>
</g>
<!-- appnope&#45;&gt;ipython -->
<g id="edge1" class="edge">
<title>appnope&#45;&gt;ipython</title>
<path fill="none" stroke="black" d="M395.66,-261.12C404.66,-251.99 416.12,-240.36 426.11,-230.22"/>
<polygon fill="black" stroke="black" points="428.88,-232.4 433.4,-222.82 423.89,-227.49 428.88,-232.4"/>
</g>
<!-- astropy -->
<g id="node3" class="node">
<title>astropy</title>
<g id="a_node3"><a xlink:href="https://github.com/conda-forge/astropy-feedstock" xlink:title="astropy">
<ellipse fill="#35b779" stroke="black" cx="612" cy="-278" rx="36.5" ry="18"/>
<text text-anchor="middle" x="612" y="-274.3" font-family="Times,serif" font-size="14.00">astropy</text>
</a>
</g>
</g>
<!-- healpy -->
<g id="node4" class="node">
<title>healpy</title>
<g id="a_node4"><a xlink:href="https://github.com/conda-forge/healpy-feedstock" xlink:title="healpy">
<ellipse fill="#fde725" stroke="black" cx="677" cy="-206" rx="34.5" ry="18"/>
<text text-anchor="middle" x="677" y="-202.3" font-family="Times,serif" font-size="14.00">healpy</text>
</a>
</g>
</g>
<!-- astropy&#45;&gt;healpy -->
<g id="edge2" class="edge">
<title>astropy&#45;&gt;healpy</title>
<path fill="none" stroke="black" d="M626.43,-261.46C635.01,-252.22 646.06,-240.32 655.64,-230"/>
<polygon fill="black" stroke="black" points="658.37,-232.2 662.61,-222.49 653.25,-227.44 658.37,-232.2"/>
</g>
<!-- autoconf -->
<g id="node5" class="node">
<title>autoconf</title>
<g id="a_node5"><a xlink:href="https://github.com/conda-forge/autoconf-feedstock" xlink:title="autoconf">
<ellipse fill="#35b779" stroke="black" cx="681" cy="-126" rx="41.69" ry="18"/>
<text text-anchor="middle" x="681" y="-122.3" font-family="Times,serif" font-size="14.00">autoconf</text>
</a>
</g>
</g>
<!-- automake -->
<g id="node6" class="node">
<title>automake</title>
<g id="a_node6"><a xlink:href="https://github.com/conda-forge/automake-feedstock" xlink:title="automake">
<ellipse fill="#fde725" stroke="black" cx="681" cy="-54" rx="45.5" ry="18"/>
<text text-anchor="middle" x="681" y="-50.3" font-family="Times,serif" font-size="14.00">automake</text>
</a>
</g>
</g>
<!-- autoconf&#45;&gt;automake -->
<g id="edge3" class="edge">
<title>autoconf&#45;&gt;automake</title>
<path fill="none" stroke="black" d="M681,-107.7C681,-99.98 681,-90.71 681,-82.11"/>
<polygon fill="black" stroke="black" points="684.5,-82.1 681,-72.1 677.5,-82.1 684.5,-82.1"/>
</g>
<!-- cfitsio -->
<g id="node7" class="node">
<title>cfitsio</title>
<g id="a_node7"><a xlink:href="https://github.com/conda-forge/cfitsio-feedstock" xlink:title="cfitsio">
<ellipse fill="#35b779" stroke="black" cx="677" cy="-350" rx="32.5" ry="18"/>
<text text-anchor="middle" x="677" y="-346.3" font-family="Times,serif" font-size="14.00">cfitsio</text>
</a>
</g>
</g>
<!-- cfitsio&#45;&gt;healpy -->
<g id="edge4" class="edge">
<title>cfitsio&#45;&gt;healpy</title>
<path fill="none" stroke="black" d="M677,-331.87C677,-307.67 677,-263.21 677,-234.39"/>
<polygon fill="black" stroke="black" points="680.5,-234.19 677,-224.19 673.5,-234.19 680.5,-234.19"/>
</g>
<!-- constructor -->
<g id="node8" class="node">
<title>constructor</title>
<g id="a_node8"><a xlink:href="https://github.com/conda-forge/constructor-feedstock" xlink:title="constructor">
<ellipse fill="#fde725" stroke="black" cx="166" cy="-54" rx="50.09" ry="18"/>
<text text-anchor="middle" x="166" y="-50.3" font-family="Times,serif" font-size="14.00">constructor</text>
</a>
</g>
</g>
<!-- emacs -->
<g id="node9" class="node">
<title>emacs</title>
<g id="a_node9"><a xlink:href="https://github.com/conda-forge/emacs-feedstock" xlink:title="emacs">
<ellipse fill="#fde725" stroke="black" cx="198" cy="-206" rx="33.29" ry="18"/>
<text text-anchor="middle" x="198" y="-202.3" font-family="Times,serif" font-size="14.00">emacs</text>
</a>
</g>
</g>
<!-- gdk&#45;pixbuf -->
<g id="node10" class="node">
<title>gdk&#45;pixbuf</title>
<g id="a_node10"><a xlink:href="https://github.com/conda-forge/gdk-pixbuf-feedstock" xlink:title="gdk pixbuf">
<ellipse fill="#fde725" stroke="black" cx="97" cy="-350" rx="49.5" ry="18"/>
<text text-anchor="middle" x="97" y="-346.3" font-family="Times,serif" font-size="14.00">gdk pixbuf</text>
</a>
</g>
</g>
<!-- librsvg -->
<g id="node11" class="node">
<title>librsvg</title>
<g id="a_node11"><a xlink:href="https://github.com/conda-forge/librsvg-feedstock" xlink:title="librsvg">
<ellipse fill="#fde725" stroke="black" cx="114" cy="-278" rx="35.19" ry="18"/>
<text text-anchor="middle" x="114" y="-274.3" font-family="Times,serif" font-size="14.00">librsvg</text>
</a>
</g>
</g>
<!-- gdk&#45;pixbuf&#45;&gt;librsvg -->
<g id="edge5" class="edge">
<title>gdk&#45;pixbuf&#45;&gt;librsvg</title>
<path fill="none" stroke="black" d="M101.12,-332.05C103.01,-324.26 105.3,-314.82 107.42,-306.08"/>
<polygon fill="black" stroke="black" points="110.85,-306.82 109.8,-296.28 104.04,-305.17 110.85,-306.82"/>
</g>
<!-- librsvg&#45;&gt;emacs -->
<g id="edge6" class="edge">
<title>librsvg&#45;&gt;emacs</title>
<path fill="none" stroke="black" d="M131.81,-262.15C143.7,-252.25 159.5,-239.08 172.69,-228.09"/>
<polygon fill="black" stroke="black" points="175.06,-230.67 180.5,-221.58 170.58,-225.3 175.06,-230.67"/>
</g>
<!-- git -->
<g id="node12" class="node">
<title>git</title>
<g id="a_node12"><a xlink:href="https://github.com/conda-forge/git-feedstock" xlink:title="git">
<ellipse fill="#35b779" stroke="black" cx="454" cy="-162" rx="27" ry="18"/>
<text text-anchor="middle" x="454" y="-158.3" font-family="Times,serif" font-size="14.00">git</text>
</a>
</g>
</g>
<!-- fitsio -->
<g id="node13" class="node">
<title>fitsio</title>
<g id="a_node13"><a xlink:href="https://github.com/conda-forge/fitsio-feedstock" xlink:title="fitsio">
<ellipse fill="#35b779" stroke="black" cx="454" cy="-90" rx="28.7" ry="18"/>
<text text-anchor="middle" x="454" y="-86.3" font-family="Times,serif" font-size="14.00">fitsio</text>
</a>
</g>
</g>
<!-- git&#45;&gt;fitsio -->
<!-- reproc -->
<g id="node23" class="node">
<title>reproc</title>
<g id="a_node23"><a xlink:href="https://github.com/conda-forge/reproc-feedstock" xlink:title="reproc">
<ellipse fill="#35b779" stroke="black" cx="454" cy="-18" rx="33.29" ry="18"/>
<text text-anchor="middle" x="454" y="-14.3" font-family="Times,serif" font-size="14.00">reproc</text>
</a>
</g>
</g>
<!-- fitsio&#45;&gt;reproc -->
<!-- gnutls -->
<g id="node14" class="node">
<title>gnutls</title>
<g id="a_node14"><a xlink:href="https://github.com/conda-forge/gnutls-feedstock" xlink:title="gnutls">
<ellipse fill="#fde725" stroke="black" cx="287" cy="-278" rx="32.5" ry="18"/>
<text text-anchor="middle" x="287" y="-274.3" font-family="Times,serif" font-size="14.00">gnutls</text>
</a>
</g>
</g>
<!-- gnutls&#45;&gt;emacs -->
<g id="edge8" class="edge">
<title>gnutls&#45;&gt;emacs</title>
<path fill="none" stroke="black" d="M268.99,-262.83C256.08,-252.68 238.5,-238.85 224.06,-227.5"/>
<polygon fill="black" stroke="black" points="226.01,-224.58 215.98,-221.14 221.68,-230.08 226.01,-224.58"/>
</g>
<!-- gobject&#45;introspection -->
<g id="node15" class="node">
<title>gobject&#45;introspection</title>
<g id="a_node15"><a xlink:href="https://github.com/conda-forge/gobject-introspection-feedstock/pull/31" xlink:title="gobject introspection ❎">
<ellipse fill="#31688e" stroke="black" cx="97" cy="-422" rx="97" ry="18"/>
<text text-anchor="middle" x="97" y="-418.3" font-family="Times,serif" font-size="14.00" fill="white">gobject introspection ❎</text>
</a>
</g>
</g>
<!-- gobject&#45;introspection&#45;&gt;gdk&#45;pixbuf -->
<g id="edge9" class="edge">
<title>gobject&#45;introspection&#45;&gt;gdk&#45;pixbuf</title>
<path fill="none" stroke="black" d="M97,-403.7C97,-395.98 97,-386.71 97,-378.11"/>
<polygon fill="black" stroke="black" points="100.5,-378.1 97,-368.1 93.5,-378.1 100.5,-378.1"/>
</g>
<!-- pango -->
<g id="node16" class="node">
<title>pango</title>
<g id="a_node16"><a xlink:href="https://github.com/conda-forge/pango-feedstock" xlink:title="pango">
<ellipse fill="#fde725" stroke="black" cx="197" cy="-350" rx="32.5" ry="18"/>
<text text-anchor="middle" x="197" y="-346.3" font-family="Times,serif" font-size="14.00">pango</text>
</a>
</g>
</g>
<!-- gobject&#45;introspection&#45;&gt;pango -->
<g id="edge10" class="edge">
<title>gobject&#45;introspection&#45;&gt;pango</title>
<path fill="none" stroke="black" d="M120.7,-404.41C135.18,-394.27 153.78,-381.25 168.99,-370.6"/>
<polygon fill="black" stroke="black" points="171.31,-373.25 177.5,-364.65 167.3,-367.52 171.31,-373.25"/>
</g>
<!-- pango&#45;&gt;librsvg -->
<g id="edge11" class="edge">
<title>pango&#45;&gt;librsvg</title>
<path fill="none" stroke="black" d="M179.8,-334.5C168.08,-324.61 152.38,-311.36 139.24,-300.29"/>
<polygon fill="black" stroke="black" points="141.36,-297.5 131.46,-293.73 136.85,-302.85 141.36,-297.5"/>
</g>
<!-- r&#45;base -->
<g id="node17" class="node">
<title>r&#45;base</title>
<g id="a_node17"><a xlink:href="https://github.com/conda-forge/r-base-feedstock" xlink:title="r base">
<ellipse fill="#fde725" stroke="black" cx="199" cy="-278" rx="32" ry="18"/>
<text text-anchor="middle" x="199" y="-274.3" font-family="Times,serif" font-size="14.00">r base</text>
</a>
</g>
</g>
<!-- pango&#45;&gt;r&#45;base -->
<g id="edge12" class="edge">
<title>pango&#45;&gt;r&#45;base</title>
<path fill="none" stroke="black" d="M197.49,-331.7C197.71,-323.98 197.98,-314.71 198.23,-306.11"/>
<polygon fill="black" stroke="black" points="201.72,-306.2 198.51,-296.1 194.73,-306 201.72,-306.2"/>
</g>
<!-- harfbuzz -->
<g id="node18" class="node">
<title>harfbuzz</title>
<g id="a_node18"><a xlink:href="https://github.com/conda-forge/harfbuzz-feedstock/pull/58" xlink:title="harfbuzz ❎">
<ellipse fill="#31688e" stroke="black" cx="265" cy="-422" rx="53.5" ry="18"/>
<text text-anchor="middle" x="265" y="-418.3" font-family="Times,serif" font-size="14.00" fill="white">harfbuzz ❎</text>
</a>
</g>
</g>
<!-- harfbuzz&#45;&gt;pango -->
<g id="edge13" class="edge">
<title>harfbuzz&#45;&gt;pango</title>
<path fill="none" stroke="black" d="M249.23,-404.76C240.22,-395.5 228.8,-383.73 218.93,-373.58"/>
<polygon fill="black" stroke="black" points="221.23,-370.92 211.75,-366.19 216.21,-375.8 221.23,-370.92"/>
</g>
<!-- jedi -->
<g id="node19" class="node">
<title>jedi</title>
<g id="a_node19"><a xlink:href="https://github.com/conda-forge/jedi-feedstock" xlink:title="jedi">
<ellipse fill="#35b779" stroke="black" cx="449" cy="-350" rx="27" ry="18"/>
<text text-anchor="middle" x="449" y="-346.3" font-family="Times,serif" font-size="14.00">jedi</text>
</a>
</g>
</g>
<!-- jedi&#45;&gt;ipython -->
<g id="edge14" class="edge">
<title>jedi&#45;&gt;ipython</title>
<path fill="none" stroke="black" d="M449,-331.87C449,-307.67 449,-263.21 449,-234.39"/>
<polygon fill="black" stroke="black" points="452.5,-234.19 449,-224.19 445.5,-234.19 452.5,-234.19"/>
</g>
<!-- matplotlib -->
<g id="node20" class="node">
<title>matplotlib</title>
<g id="a_node20"><a xlink:href="https://github.com/conda-forge/matplotlib-feedstock" xlink:title="matplotlib">
<ellipse fill="#35b779" stroke="black" cx="738" cy="-422" rx="47.5" ry="18"/>
<text text-anchor="middle" x="738" y="-418.3" font-family="Times,serif" font-size="14.00">matplotlib</text>
</a>
</g>
</g>
<!-- matplotlib&#45;&gt;healpy -->
<g id="edge15" class="edge">
<title>matplotlib&#45;&gt;healpy</title>
<path fill="none" stroke="black" d="M734.65,-403.82C731.02,-385.8 724.82,-356.73 718,-332 708.5,-297.55 695.3,-258.53 686.47,-233.38"/>
<polygon fill="black" stroke="black" points="689.73,-232.09 683.09,-223.83 683.13,-234.42 689.73,-232.09"/>
</g>
<!-- nettle -->
<g id="node21" class="node">
<title>nettle</title>
<g id="a_node21"><a xlink:href="https://github.com/conda-forge/nettle-feedstock/pull/7" xlink:title="nettle ❎">
<ellipse fill="#31688e" stroke="black" cx="290" cy="-350" rx="42.49" ry="18"/>
<text text-anchor="middle" x="290" y="-346.3" font-family="Times,serif" font-size="14.00" fill="white">nettle ❎</text>
</a>
</g>
</g>
<!-- nettle&#45;&gt;gnutls -->
<g id="edge16" class="edge">
<title>nettle&#45;&gt;gnutls</title>
<path fill="none" stroke="black" d="M289.26,-331.7C288.93,-323.98 288.53,-314.71 288.16,-306.11"/>
<polygon fill="black" stroke="black" points="291.66,-305.95 287.73,-296.1 284.66,-306.25 291.66,-305.95"/>
</g>
<!-- prompt_toolkit -->
<g id="node22" class="node">
<title>prompt_toolkit</title>
<g id="a_node22"><a xlink:href="https://github.com/conda-forge/prompt_toolkit-feedstock" xlink:title="prompt_toolkit">
<ellipse fill="#35b779" stroke="black" cx="504" cy="-422" rx="63.89" ry="18"/>
<text text-anchor="middle" x="504" y="-418.3" font-family="Times,serif" font-size="14.00">prompt_toolkit</text>
</a>
</g>
</g>
<!-- prompt_toolkit&#45;&gt;ipython -->
<g id="edge17" class="edge">
<title>prompt_toolkit&#45;&gt;ipython</title>
<path fill="none" stroke="black" d="M500.71,-403.86C497.17,-385.87 491.22,-356.83 485,-332 476.42,-297.73 464.88,-258.66 457.2,-233.46"/>
<polygon fill="black" stroke="black" points="460.55,-232.42 454.27,-223.88 453.85,-234.47 460.55,-232.42"/>
</g>
<!-- conda&#45;standalone -->
<g id="node24" class="node">
<title>conda&#45;standalone</title>
<g id="a_node24"><a xlink:href="https://github.com/conda-forge/conda-standalone-feedstock/pull/10" xlink:title="conda standalone ❎">
<ellipse fill="#31688e" stroke="black" cx="166" cy="-126" rx="83.39" ry="18"/>
<text text-anchor="middle" x="166" y="-122.3" font-family="Times,serif" font-size="14.00" fill="white">conda standalone ❎</text>
</a>
</g>
</g>
<!-- conda&#45;standalone&#45;&gt;constructor -->
<g id="edge19" class="edge">
<title>conda&#45;standalone&#45;&gt;constructor</title>
<path fill="none" stroke="black" d="M166,-107.7C166,-99.98 166,-90.71 166,-82.11"/>
<polygon fill="black" stroke="black" points="169.5,-82.1 166,-72.1 162.5,-82.1 169.5,-82.1"/>
</g>
</g>
</svg>
