<?xml version="1.0" encoding="UTF-8" standalone="no"?>
<!DOCTYPE svg PUBLIC "-//W3C//DTD SVG 1.1//EN"
 "http://www.w3.org/Graphics/SVG/1.1/DTD/svg11.dtd">
<!-- Generated by graphviz version 2.42.3 (20191010.1750)
 -->
<!-- Title: %3 Pages: 1 -->
<svg width="1007pt" height="332pt"
 viewBox="0.00 0.00 1007.10 332.00" xmlns="http://www.w3.org/2000/svg" xmlns:xlink="http://www.w3.org/1999/xlink">
<g id="graph0" class="graph" transform="scale(1 1) rotate(0) translate(4 328)">
<title>%3</title>
<polygon fill="white" stroke="transparent" points="-4,4 -4,-328 1003.1,-328 1003.1,4 -4,4"/>
<!-- arrow&#45;cpp -->
<g id="node1" class="node">
<title>arrow&#45;cpp</title>
<g id="a_node1"><a xlink:href="https://github.com/conda-forge/arrow-cpp-feedstock" xlink:title="arrow cpp">
<ellipse fill="#fde725" stroke="black" cx="825.1" cy="-54" rx="46.29" ry="18"/>
<text text-anchor="middle" x="825.1" y="-50.3" font-family="Times,serif" font-size="14.00">arrow cpp</text>
</a>
</g>
</g>
<!-- brotlipy -->
<g id="node2" class="node">
<title>brotlipy</title>
<g id="a_node2"><a xlink:href="https://github.com/conda-forge/brotlipy-feedstock/pull/10" xlink:title="brotlipy ✓">
<ellipse fill="#31688e" stroke="black" cx="269.1" cy="-234" rx="48.99" ry="18"/>
<text text-anchor="middle" x="269.1" y="-230.3" font-family="Times,serif" font-size="14.00" fill="white">brotlipy ✓</text>
</a>
</g>
</g>
<!-- conda -->
<g id="node3" class="node">
<title>conda</title>
<g id="a_node3"><a xlink:href="https://github.com/conda-forge/conda-feedstock" xlink:title="conda">
<ellipse fill="#fde725" stroke="black" cx="458.1" cy="-162" rx="32" ry="18"/>
<text text-anchor="middle" x="458.1" y="-158.3" font-family="Times,serif" font-size="14.00">conda</text>
</a>
</g>
</g>
<!-- brotlipy&#45;&gt;conda -->
<g id="edge1" class="edge">
<title>brotlipy&#45;&gt;conda</title>
<path fill="none" stroke="black" d="M302.45,-220.65C336.11,-208.18 387.91,-188.99 422.39,-176.22"/>
<polygon fill="black" stroke="black" points="423.9,-179.4 432.06,-172.64 421.47,-172.83 423.9,-179.4"/>
</g>
<!-- conda&#45;build -->
<g id="node4" class="node">
<title>conda&#45;build</title>
<g id="a_node4"><a xlink:href="https://github.com/conda-forge/conda-build-feedstock" xlink:title="conda build">
<ellipse fill="#fde725" stroke="black" cx="223.1" cy="-90" rx="52" ry="18"/>
<text text-anchor="middle" x="223.1" y="-86.3" font-family="Times,serif" font-size="14.00">conda build</text>
</a>
</g>
</g>
<!-- brotlipy&#45;&gt;conda&#45;build -->
<g id="edge2" class="edge">
<title>brotlipy&#45;&gt;conda&#45;build</title>
<path fill="none" stroke="black" d="M234.3,-221.2C215.54,-212.85 194.04,-199.6 183.1,-180 171.21,-158.71 185.34,-133.22 199.98,-114.99"/>
<polygon fill="black" stroke="black" points="202.83,-117.04 206.66,-107.16 197.5,-112.5 202.83,-117.04"/>
</g>
<!-- conda&#45;&gt;conda&#45;build -->
<g id="edge3" class="edge">
<title>conda&#45;&gt;conda&#45;build</title>
<path fill="none" stroke="black" d="M432.43,-151.1C425.84,-148.67 418.74,-146.15 412.1,-144 365.53,-128.89 311.71,-114.05 273.44,-103.93"/>
<polygon fill="black" stroke="black" points="274.13,-100.5 263.57,-101.34 272.35,-107.27 274.13,-100.5"/>
</g>
<!-- constructor -->
<g id="node5" class="node">
<title>constructor</title>
<g id="a_node5"><a xlink:href="https://github.com/conda-forge/constructor-feedstock" xlink:title="constructor">
<ellipse fill="#fde725" stroke="black" cx="468.1" cy="-18" rx="50.09" ry="18"/>
<text text-anchor="middle" x="468.1" y="-14.3" font-family="Times,serif" font-size="14.00">constructor</text>
</a>
</g>
</g>
<!-- conda&#45;&gt;constructor -->
<g id="edge4" class="edge">
<title>conda&#45;&gt;constructor</title>
<path fill="none" stroke="black" d="M449.64,-144.51C441.55,-126.58 431.48,-97.12 438.1,-72 440.63,-62.39 445.34,-52.69 450.3,-44.26"/>
<polygon fill="black" stroke="black" points="453.33,-46.02 455.68,-35.68 447.4,-42.3 453.33,-46.02"/>
</g>
<!-- conda&#45;standalone -->
<g id="node6" class="node">
<title>conda&#45;standalone</title>
<g id="a_node6"><a xlink:href="https://github.com/conda-forge/conda-standalone-feedstock" xlink:title="conda standalone">
<ellipse fill="#fde725" stroke="black" cx="518.1" cy="-90" rx="71.5" ry="18"/>
<text text-anchor="middle" x="518.1" y="-86.3" font-family="Times,serif" font-size="14.00">conda standalone</text>
</a>
</g>
</g>
<!-- conda&#45;&gt;conda&#45;standalone -->
<g id="edge5" class="edge">
<title>conda&#45;&gt;conda&#45;standalone</title>
<path fill="none" stroke="black" d="M471.41,-145.46C478.93,-136.69 488.5,-125.53 497.01,-115.6"/>
<polygon fill="black" stroke="black" points="499.71,-117.83 503.56,-107.96 494.39,-113.28 499.71,-117.83"/>
</g>
<!-- conda&#45;standalone&#45;&gt;constructor -->
<g id="edge6" class="edge">
<title>conda&#45;standalone&#45;&gt;constructor</title>
<path fill="none" stroke="black" d="M505.99,-72.05C499.97,-63.63 492.58,-53.28 485.93,-43.97"/>
<polygon fill="black" stroke="black" points="488.75,-41.89 480.09,-35.79 483.05,-45.96 488.75,-41.89"/>
</g>
<!-- numpy -->
<g id="node7" class="node">
<title>numpy</title>
<g id="a_node7"><a xlink:href="https://github.com/conda-forge/numpy-feedstock" xlink:title="numpy">
<ellipse fill="#fde725" stroke="black" cx="633.1" cy="-126" rx="36" ry="18"/>
<text text-anchor="middle" x="633.1" y="-122.3" font-family="Times,serif" font-size="14.00">numpy</text>
</a>
</g>
</g>
<!-- numpy&#45;&gt;arrow&#45;cpp -->
<g id="edge7" class="edge">
<title>numpy&#45;&gt;arrow&#45;cpp</title>
<path fill="none" stroke="black" d="M660.68,-114.5C666.43,-112.34 672.45,-110.08 678.1,-108 713.19,-95.04 753.14,-80.67 782.52,-70.16"/>
<polygon fill="black" stroke="black" points="783.82,-73.41 792.06,-66.75 781.46,-66.82 783.82,-73.41"/>
</g>
<!-- pandas -->
<g id="node8" class="node">
<title>pandas</title>
<g id="a_node8"><a xlink:href="https://github.com/conda-forge/pandas-feedstock" xlink:title="pandas">
<ellipse fill="#fde725" stroke="black" cx="633.1" cy="-54" rx="35.19" ry="18"/>
<text text-anchor="middle" x="633.1" y="-50.3" font-family="Times,serif" font-size="14.00">pandas</text>
</a>
</g>
</g>
<!-- numpy&#45;&gt;pandas -->
<g id="edge8" class="edge">
<title>numpy&#45;&gt;pandas</title>
<path fill="none" stroke="black" d="M633.1,-107.7C633.1,-99.98 633.1,-90.71 633.1,-82.11"/>
<polygon fill="black" stroke="black" points="636.6,-82.1 633.1,-72.1 629.6,-82.1 636.6,-82.1"/>
</g>
<!-- python&#45;libarchive&#45;c -->
<g id="node9" class="node">
<title>python&#45;libarchive&#45;c</title>
<g id="a_node9"><a xlink:href="https://github.com/conda-forge/python-libarchive-c-feedstock/pull/18" xlink:title="python libarchive c ✓">
<ellipse fill="#31688e" stroke="black" cx="281.1" cy="-162" rx="89.08" ry="18"/>
<text text-anchor="middle" x="281.1" y="-158.3" font-family="Times,serif" font-size="14.00" fill="white">python libarchive c ✓</text>
</a>
</g>
</g>
<!-- python&#45;libarchive&#45;c&#45;&gt;conda&#45;build -->
<g id="edge9" class="edge">
<title>python&#45;libarchive&#45;c&#45;&gt;conda&#45;build</title>
<path fill="none" stroke="black" d="M267.06,-144.05C260,-135.54 251.32,-125.07 243.55,-115.68"/>
<polygon fill="black" stroke="black" points="246.08,-113.26 237.01,-107.79 240.69,-117.72 246.08,-113.26"/>
</g>
<!-- pyyaml -->
<g id="node10" class="node">
<title>pyyaml</title>
<g id="a_node10"><a xlink:href="https://github.com/conda-forge/pyyaml-feedstock/pull/27" xlink:title="pyyaml ❎">
<ellipse fill="#31688e" stroke="black" cx="126.1" cy="-234" rx="49.5" ry="18"/>
<text text-anchor="middle" x="126.1" y="-230.3" font-family="Times,serif" font-size="14.00" fill="white">pyyaml ❎</text>
</a>
</g>
</g>
<!-- pyyaml&#45;&gt;conda&#45;build -->
<g id="edge10" class="edge">
<title>pyyaml&#45;&gt;conda&#45;build</title>
<path fill="none" stroke="black" d="M134.02,-215.9C142.91,-197.45 158.3,-167.55 175.1,-144 182.34,-133.84 191.3,-123.48 199.51,-114.65"/>
<polygon fill="black" stroke="black" points="202.12,-116.99 206.47,-107.33 197.04,-112.17 202.12,-116.99"/>
</g>
<!-- thrift&#45;cpp -->
<g id="node11" class="node">
<title>thrift&#45;cpp</title>
<g id="a_node11"><a xlink:href="https://github.com/conda-forge/thrift-cpp-feedstock/pull/49" xlink:title="thrift cpp ❎">
<ellipse fill="#31688e" stroke="black" cx="742.1" cy="-126" rx="55.49" ry="18"/>
<text text-anchor="middle" x="742.1" y="-122.3" font-family="Times,serif" font-size="14.00" fill="white">thrift cpp ❎</text>
</a>
</g>
</g>
<!-- thrift&#45;cpp&#45;&gt;arrow&#45;cpp -->
<g id="edge11" class="edge">
<title>thrift&#45;cpp&#45;&gt;arrow&#45;cpp</title>
<path fill="none" stroke="black" d="M761.35,-108.76C772.5,-99.36 786.71,-87.38 798.87,-77.12"/>
<polygon fill="black" stroke="black" points="801.13,-79.79 806.52,-70.67 796.62,-74.44 801.13,-79.79"/>
</g>
<!-- llvmdev -->
<g id="node12" class="node">
<title>llvmdev</title>
<g id="a_node12"><a xlink:href="https://github.com/conda-forge/llvmdev-feedstock/pull/101" xlink:title="llvmdev ❎">
<ellipse fill="#31688e" stroke="black" cx="843.1" cy="-198" rx="52" ry="18"/>
<text text-anchor="middle" x="843.1" y="-194.3" font-family="Times,serif" font-size="14.00" fill="white">llvmdev ❎</text>
</a>
</g>
</g>
<!-- llvmdev&#45;&gt;arrow&#45;cpp -->
<g id="edge12" class="edge">
<title>llvmdev&#45;&gt;arrow&#45;cpp</title>
<path fill="none" stroke="black" d="M840.92,-179.87C837.86,-155.67 832.22,-111.21 828.57,-82.39"/>
<polygon fill="black" stroke="black" points="832,-81.67 827.27,-72.19 825.06,-82.55 832,-81.67"/>
</g>
<!-- clangdev -->
<g id="node13" class="node">
<title>clangdev</title>
<g id="a_node13"><a xlink:href="https://github.com/conda-forge/clangdev-feedstock" xlink:title="clangdev">
<ellipse fill="#fde725" stroke="black" cx="895.1" cy="-126" rx="42.49" ry="18"/>
<text text-anchor="middle" x="895.1" y="-122.3" font-family="Times,serif" font-size="14.00">clangdev</text>
</a>
</g>
</g>
<!-- llvmdev&#45;&gt;clangdev -->
<g id="edge13" class="edge">
<title>llvmdev&#45;&gt;clangdev</title>
<path fill="none" stroke="black" d="M855.42,-180.41C861.77,-171.87 869.63,-161.28 876.68,-151.79"/>
<polygon fill="black" stroke="black" points="879.71,-153.58 882.86,-143.47 874.09,-149.41 879.71,-153.58"/>
</g>
<!-- clangdev&#45;&gt;arrow&#45;cpp -->
<g id="edge14" class="edge">
<title>clangdev&#45;&gt;arrow&#45;cpp</title>
<path fill="none" stroke="black" d="M879.21,-109.12C870.21,-100.12 858.78,-88.68 848.74,-78.65"/>
<polygon fill="black" stroke="black" points="850.95,-75.9 841.4,-71.31 846,-80.85 850.95,-75.9"/>
</g>
<!-- blas -->
<g id="node14" class="node">
<title>blas</title>
<g id="a_node14"><a xlink:href="https://github.com/conda-forge/blas-feedstock" xlink:title="blas">
<ellipse fill="#fde725" stroke="black" cx="633.1" cy="-198" rx="27" ry="18"/>
<text text-anchor="middle" x="633.1" y="-194.3" font-family="Times,serif" font-size="14.00">blas</text>
</a>
</g>
</g>
<!-- blas&#45;&gt;numpy -->
<g id="edge15" class="edge">
<title>blas&#45;&gt;numpy</title>
<path fill="none" stroke="black" d="M633.1,-179.7C633.1,-171.98 633.1,-162.71 633.1,-154.11"/>
<polygon fill="black" stroke="black" points="636.6,-154.1 633.1,-144.1 629.6,-154.1 636.6,-154.1"/>
</g>
<!-- blis -->
<g id="node15" class="node">
<title>blis</title>
<g id="a_node15"><a xlink:href="https://github.com/conda-forge/blis-feedstock/pull/18" xlink:title="blis ❎">
<ellipse fill="#31688e" stroke="black" cx="633.1" cy="-270" rx="35.19" ry="18"/>
<text text-anchor="middle" x="633.1" y="-266.3" font-family="Times,serif" font-size="14.00" fill="white">blis ❎</text>
</a>
</g>
</g>
<!-- blis&#45;&gt;blas -->
<g id="edge16" class="edge">
<title>blis&#45;&gt;blas</title>
<path fill="none" stroke="black" d="M633.1,-251.7C633.1,-243.98 633.1,-234.71 633.1,-226.11"/>
<polygon fill="black" stroke="black" points="636.6,-226.1 633.1,-216.1 629.6,-226.1 636.6,-226.1"/>
</g>
<!-- orc -->
<g id="node16" class="node">
<title>orc</title>
<g id="a_node16"><a xlink:href="https://github.com/conda-forge/orc-feedstock/pull/20" xlink:title="orc ❎">
<ellipse fill="#31688e" stroke="black" cx="965.1" cy="-198" rx="34" ry="18"/>
<text text-anchor="middle" x="965.1" y="-194.3" font-family="Times,serif" font-size="14.00" fill="white">orc ❎</text>
</a>
</g>
</g>
<!-- orc&#45;&gt;arrow&#45;cpp -->
<g id="edge17" class="edge">
<title>orc&#45;&gt;arrow&#45;cpp</title>
<path fill="none" stroke="black" d="M965.85,-179.97C965.81,-160.47 962.87,-128.57 946.1,-108 928.44,-86.35 900.18,-73.3 875.42,-65.57"/>
<polygon fill="black" stroke="black" points="876.35,-62.2 865.77,-62.77 874.4,-68.92 876.35,-62.2"/>
</g>
<!-- conda&#45;package&#45;handling -->
<g id="node17" class="node">
<title>conda&#45;package&#45;handling</title>
<g id="a_node17"><a xlink:href="https://github.com/conda-forge/conda-package-handling-feedstock" xlink:title="conda package handling">
<ellipse fill="#fde725" stroke="black" cx="458.1" cy="-234" rx="96.38" ry="18"/>
<text text-anchor="middle" x="458.1" y="-230.3" font-family="Times,serif" font-size="14.00">conda package handling</text>
</a>
</g>
</g>
<!-- conda&#45;package&#45;handling&#45;&gt;conda -->
<g id="edge18" class="edge">
<title>conda&#45;package&#45;handling&#45;&gt;conda</title>
<path fill="none" stroke="black" d="M458.1,-215.7C458.1,-207.98 458.1,-198.71 458.1,-190.11"/>
<polygon fill="black" stroke="black" points="461.6,-190.1 458.1,-180.1 454.6,-190.1 461.6,-190.1"/>
</g>
<!-- conda&#45;package&#45;handling&#45;&gt;conda&#45;build -->
<g id="edge19" class="edge">
<title>conda&#45;package&#45;handling&#45;&gt;conda&#45;build</title>
<path fill="none" stroke="black" d="M444.83,-216.08C426.62,-193.23 394.41,-154.17 379.1,-144 348.24,-123.51 308.69,-110.19 277.13,-102.03"/>
<polygon fill="black" stroke="black" points="277.74,-98.57 267.19,-99.56 276.05,-105.36 277.74,-98.57"/>
</g>
<!-- conda&#45;package&#45;handling&#45;&gt;conda&#45;standalone -->
<g id="edge20" class="edge">
<title>conda&#45;package&#45;handling&#45;&gt;conda&#45;standalone</title>
<path fill="none" stroke="black" d="M474.3,-216.17C482.9,-206.34 492.93,-193.3 499.1,-180 508.21,-160.35 513.01,-136.22 515.51,-118.05"/>
<polygon fill="black" stroke="black" points="518.98,-118.47 516.72,-108.11 512.03,-117.61 518.98,-118.47"/>
</g>
<!-- ripgrep -->
<g id="node18" class="node">
<title>ripgrep</title>
<g id="a_node18"><a xlink:href="https://github.com/conda-forge/ripgrep-feedstock/pull/15" xlink:title="ripgrep ❎">
<ellipse fill="#31688e" stroke="black" cx="48.1" cy="-306" rx="48.19" ry="18"/>
<text text-anchor="middle" x="48.1" y="-302.3" font-family="Times,serif" font-size="14.00" fill="white">ripgrep ❎</text>
</a>
</g>
</g>
<!-- ripgrep&#45;&gt;conda&#45;build -->
<g id="edge21" class="edge">
<title>ripgrep&#45;&gt;conda&#45;build</title>
<path fill="none" stroke="black" d="M48.59,-287.78C49.83,-268.96 53.91,-238.49 67.1,-216 95.25,-167.98 149.37,-131.06 185.86,-110.18"/>
<polygon fill="black" stroke="black" points="187.71,-113.16 194.73,-105.22 184.3,-107.05 187.71,-113.16"/>
</g>
<!-- _libarchive_static_for_cph -->
<g id="node19" class="node">
<title>_libarchive_static_for_cph</title>
<g id="a_node19"><a xlink:href="https://github.com/conda-forge/_libarchive_static_for_cph-feedstock/pull/15" xlink:title="_libarchive_static_for_cph ❎">
<ellipse fill="#31688e" stroke="black" cx="458.1" cy="-306" rx="116.5" ry="18"/>
<text text-anchor="middle" x="458.1" y="-302.3" font-family="Times,serif" font-size="14.00" fill="white">_libarchive_static_for_cph ❎</text>
</a>
</g>
</g>
<!-- _libarchive_static_for_cph&#45;&gt;conda&#45;package&#45;handling -->
<g id="edge22" class="edge">
<title>_libarchive_static_for_cph&#45;&gt;conda&#45;package&#45;handling</title>
<path fill="none" stroke="black" d="M458.1,-287.7C458.1,-279.98 458.1,-270.71 458.1,-262.11"/>
<polygon fill="black" stroke="black" points="461.6,-262.1 458.1,-252.1 454.6,-262.1 461.6,-262.1"/>
</g>
</g>
</svg>
