<?xml version="1.0" encoding="UTF-8" standalone="no"?>
<!DOCTYPE svg PUBLIC "-//W3C//DTD SVG 1.1//EN"
 "http://www.w3.org/Graphics/SVG/1.1/DTD/svg11.dtd">
<!-- Generated by graphviz version 2.42.3 (20191010.1750)
 -->
<!-- Title: %3 Pages: 1 -->
<svg width="1305pt" height="404pt"
 viewBox="0.00 0.00 1304.50 404.00" xmlns="http://www.w3.org/2000/svg" xmlns:xlink="http://www.w3.org/1999/xlink">
<g id="graph0" class="graph" transform="scale(1 1) rotate(0) translate(4 400)">
<title>%3</title>
<polygon fill="white" stroke="transparent" points="-4,4 -4,-400 1300.5,-400 1300.5,4 -4,4"/>
<!-- arrow&#45;cpp -->
<g id="node1" class="node">
<title>arrow&#45;cpp</title>
<g id="a_node1"><a xlink:href="https://github.com/conda-forge/arrow-cpp-feedstock" xlink:title="arrow cpp">
<ellipse fill="#fde725" stroke="black" cx="1122.5" cy="-90" rx="46.29" ry="18"/>
<text text-anchor="middle" x="1122.5" y="-86.3" font-family="Times,serif" font-size="14.00">arrow cpp</text>
</a>
</g>
</g>
<!-- brotlipy -->
<g id="node2" class="node">
<title>brotlipy</title>
<g id="a_node2"><a xlink:href="https://github.com/conda-forge/brotlipy-feedstock/pull/10" xlink:title="brotlipy ✓">
<ellipse fill="#31688e" stroke="black" cx="439.5" cy="-234" rx="48.99" ry="18"/>
<text text-anchor="middle" x="439.5" y="-230.3" font-family="Times,serif" font-size="14.00" fill="white">brotlipy ✓</text>
</a>
</g>
</g>
<!-- conda -->
<g id="node3" class="node">
<title>conda</title>
<g id="a_node3"><a xlink:href="https://github.com/conda-forge/conda-feedstock" xlink:title="conda">
<ellipse fill="#fde725" stroke="black" cx="547.5" cy="-162" rx="32" ry="18"/>
<text text-anchor="middle" x="547.5" y="-158.3" font-family="Times,serif" font-size="14.00">conda</text>
</a>
</g>
</g>
<!-- brotlipy&#45;&gt;conda -->
<g id="edge1" class="edge">
<title>brotlipy&#45;&gt;conda</title>
<path fill="none" stroke="black" d="M462.67,-217.98C479.03,-207.38 501.07,-193.09 518.59,-181.74"/>
<polygon fill="black" stroke="black" points="520.79,-184.48 527.28,-176.11 516.98,-178.61 520.79,-184.48"/>
</g>
<!-- conda&#45;build -->
<g id="node4" class="node">
<title>conda&#45;build</title>
<g id="a_node4"><a xlink:href="https://github.com/conda-forge/conda-build-feedstock" xlink:title="conda build">
<ellipse fill="#fde725" stroke="black" cx="274.5" cy="-90" rx="52" ry="18"/>
<text text-anchor="middle" x="274.5" y="-86.3" font-family="Times,serif" font-size="14.00">conda build</text>
</a>
</g>
</g>
<!-- brotlipy&#45;&gt;conda&#45;build -->
<g id="edge2" class="edge">
<title>brotlipy&#45;&gt;conda&#45;build</title>
<path fill="none" stroke="black" d="M442.8,-215.92C445.54,-196.37 446.74,-164.42 430.5,-144 407.66,-115.3 368.56,-102.05 335.22,-95.98"/>
<polygon fill="black" stroke="black" points="335.52,-92.48 325.08,-94.31 334.38,-99.39 335.52,-92.48"/>
</g>
<!-- conda&#45;&gt;conda&#45;build -->
<g id="edge3" class="edge">
<title>conda&#45;&gt;conda&#45;build</title>
<path fill="none" stroke="black" d="M521.9,-150.9C515.31,-148.47 508.19,-146.01 501.5,-144 443.18,-126.49 375,-111.25 328.7,-101.67"/>
<polygon fill="black" stroke="black" points="329.37,-98.23 318.87,-99.65 327.96,-105.09 329.37,-98.23"/>
</g>
<!-- constructor -->
<g id="node5" class="node">
<title>constructor</title>
<g id="a_node5"><a xlink:href="https://github.com/conda-forge/constructor-feedstock" xlink:title="constructor">
<ellipse fill="#fde725" stroke="black" cx="577.5" cy="-18" rx="50.09" ry="18"/>
<text text-anchor="middle" x="577.5" y="-14.3" font-family="Times,serif" font-size="14.00">constructor</text>
</a>
</g>
</g>
<!-- conda&#45;&gt;constructor -->
<g id="edge4" class="edge">
<title>conda&#45;&gt;constructor</title>
<path fill="none" stroke="black" d="M544.96,-143.94C542.84,-125.78 541.09,-96.36 547.5,-72 550.03,-62.39 554.75,-52.69 559.71,-44.26"/>
<polygon fill="black" stroke="black" points="562.74,-46.02 565.09,-35.68 556.81,-42.3 562.74,-46.02"/>
</g>
<!-- conda&#45;standalone -->
<g id="node6" class="node">
<title>conda&#45;standalone</title>
<g id="a_node6"><a xlink:href="https://github.com/conda-forge/conda-standalone-feedstock" xlink:title="conda standalone">
<ellipse fill="#fde725" stroke="black" cx="627.5" cy="-90" rx="71.5" ry="18"/>
<text text-anchor="middle" x="627.5" y="-86.3" font-family="Times,serif" font-size="14.00">conda standalone</text>
</a>
</g>
</g>
<!-- conda&#45;&gt;conda&#45;standalone -->
<g id="edge5" class="edge">
<title>conda&#45;&gt;conda&#45;standalone</title>
<path fill="none" stroke="black" d="M564.08,-146.5C574.74,-137.17 588.83,-124.84 601.02,-114.17"/>
<polygon fill="black" stroke="black" points="603.48,-116.67 608.7,-107.45 598.87,-111.4 603.48,-116.67"/>
</g>
<!-- conda&#45;standalone&#45;&gt;constructor -->
<g id="edge6" class="edge">
<title>conda&#45;standalone&#45;&gt;constructor</title>
<path fill="none" stroke="black" d="M615.4,-72.05C609.38,-63.63 601.99,-53.28 595.33,-43.97"/>
<polygon fill="black" stroke="black" points="598.15,-41.89 589.49,-35.79 592.46,-45.96 598.15,-41.89"/>
</g>
<!-- numpy -->
<g id="node7" class="node">
<title>numpy</title>
<g id="a_node7"><a xlink:href="https://github.com/conda-forge/numpy-feedstock" xlink:title="numpy">
<ellipse fill="#fde725" stroke="black" cx="930.5" cy="-162" rx="36" ry="18"/>
<text text-anchor="middle" x="930.5" y="-158.3" font-family="Times,serif" font-size="14.00">numpy</text>
</a>
</g>
</g>
<!-- numpy&#45;&gt;arrow&#45;cpp -->
<g id="edge7" class="edge">
<title>numpy&#45;&gt;arrow&#45;cpp</title>
<path fill="none" stroke="black" d="M958.08,-150.5C963.83,-148.34 969.86,-146.08 975.5,-144 1010.6,-131.04 1050.54,-116.67 1079.92,-106.16"/>
<polygon fill="black" stroke="black" points="1081.22,-109.41 1089.46,-102.75 1078.87,-102.82 1081.22,-109.41"/>
</g>
<!-- pandas -->
<g id="node8" class="node">
<title>pandas</title>
<g id="a_node8"><a xlink:href="https://github.com/conda-forge/pandas-feedstock" xlink:title="pandas">
<ellipse fill="#fde725" stroke="black" cx="930.5" cy="-90" rx="35.19" ry="18"/>
<text text-anchor="middle" x="930.5" y="-86.3" font-family="Times,serif" font-size="14.00">pandas</text>
</a>
</g>
</g>
<!-- numpy&#45;&gt;pandas -->
<g id="edge8" class="edge">
<title>numpy&#45;&gt;pandas</title>
<path fill="none" stroke="black" d="M930.5,-143.7C930.5,-135.98 930.5,-126.71 930.5,-118.11"/>
<polygon fill="black" stroke="black" points="934,-118.1 930.5,-108.1 927,-118.1 934,-118.1"/>
</g>
<!-- pycrypto -->
<g id="node9" class="node">
<title>pycrypto</title>
<g id="a_node9"><a xlink:href="https://github.com/conda-forge/pycrypto-feedstock/pull/18" xlink:title="pycrypto ❎">
<ellipse fill="#31688e" stroke="black" cx="770.5" cy="-234" rx="54" ry="18"/>
<text text-anchor="middle" x="770.5" y="-230.3" font-family="Times,serif" font-size="14.00" fill="white">pycrypto ❎</text>
</a>
</g>
</g>
<!-- pyinstaller -->
<g id="node10" class="node">
<title>pyinstaller</title>
<g id="a_node10"><a xlink:href="https://github.com/conda-forge/pyinstaller-feedstock" xlink:title="pyinstaller">
<ellipse fill="#fde725" stroke="black" cx="770.5" cy="-162" rx="48.19" ry="18"/>
<text text-anchor="middle" x="770.5" y="-158.3" font-family="Times,serif" font-size="14.00">pyinstaller</text>
</a>
</g>
</g>
<!-- pycrypto&#45;&gt;pyinstaller -->
<g id="edge9" class="edge">
<title>pycrypto&#45;&gt;pyinstaller</title>
<path fill="none" stroke="black" d="M770.5,-215.7C770.5,-207.98 770.5,-198.71 770.5,-190.11"/>
<polygon fill="black" stroke="black" points="774,-190.1 770.5,-180.1 767,-190.1 774,-190.1"/>
</g>
<!-- pyinstaller&#45;&gt;conda&#45;standalone -->
<g id="edge10" class="edge">
<title>pyinstaller&#45;&gt;conda&#45;standalone</title>
<path fill="none" stroke="black" d="M742.59,-147.34C721.35,-136.94 691.81,-122.48 667.98,-110.81"/>
<polygon fill="black" stroke="black" points="669.34,-107.59 658.82,-106.33 666.26,-113.87 669.34,-107.59"/>
</g>
<!-- python&#45;libarchive&#45;c -->
<g id="node11" class="node">
<title>python&#45;libarchive&#45;c</title>
<g id="a_node11"><a xlink:href="https://github.com/conda-forge/python-libarchive-c-feedstock/pull/18" xlink:title="python libarchive c ✓">
<ellipse fill="#31688e" stroke="black" cx="332.5" cy="-162" rx="89.08" ry="18"/>
<text text-anchor="middle" x="332.5" y="-158.3" font-family="Times,serif" font-size="14.00" fill="white">python libarchive c ✓</text>
</a>
</g>
</g>
<!-- python&#45;libarchive&#45;c&#45;&gt;conda&#45;build -->
<g id="edge11" class="edge">
<title>python&#45;libarchive&#45;c&#45;&gt;conda&#45;build</title>
<path fill="none" stroke="black" d="M318.46,-144.05C311.41,-135.54 302.73,-125.07 294.95,-115.68"/>
<polygon fill="black" stroke="black" points="297.49,-113.26 288.41,-107.79 292.1,-117.72 297.49,-113.26"/>
</g>
<!-- pyyaml -->
<g id="node12" class="node">
<title>pyyaml</title>
<g id="a_node12"><a xlink:href="https://github.com/conda-forge/pyyaml-feedstock/pull/27" xlink:title="pyyaml ❎">
<ellipse fill="#31688e" stroke="black" cx="49.5" cy="-234" rx="49.5" ry="18"/>
<text text-anchor="middle" x="49.5" y="-230.3" font-family="Times,serif" font-size="14.00" fill="white">pyyaml ❎</text>
</a>
</g>
</g>
<!-- pyyaml&#45;&gt;conda&#45;build -->
<g id="edge12" class="edge">
<title>pyyaml&#45;&gt;conda&#45;build</title>
<path fill="none" stroke="black" d="M57.48,-216.09C67.75,-196.1 87.41,-163.13 113.5,-144 144.25,-121.45 185.13,-108.15 218,-100.51"/>
<polygon fill="black" stroke="black" points="218.91,-103.89 227.92,-98.32 217.4,-97.06 218.91,-103.89"/>
</g>
<!-- waf -->
<g id="node13" class="node">
<title>waf</title>
<g id="a_node13"><a xlink:href="https://github.com/conda-forge/waf-feedstock/pull/21" xlink:title="waf ✓">
<ellipse fill="#31688e" stroke="black" cx="852.5" cy="-306" rx="34.5" ry="18"/>
<text text-anchor="middle" x="852.5" y="-302.3" font-family="Times,serif" font-size="14.00" fill="white">waf ✓</text>
</a>
</g>
</g>
<!-- waf&#45;&gt;pyinstaller -->
<g id="edge13" class="edge">
<title>waf&#45;&gt;pyinstaller</title>
<path fill="none" stroke="black" d="M852.09,-287.73C850.94,-268.86 846.92,-238.35 833.5,-216 825.99,-203.5 814.47,-192.55 803.32,-183.89"/>
<polygon fill="black" stroke="black" points="805.07,-180.84 794.94,-177.74 800.92,-186.48 805.07,-180.84"/>
</g>
<!-- thrift&#45;cpp -->
<g id="node14" class="node">
<title>thrift&#45;cpp</title>
<g id="a_node14"><a xlink:href="https://github.com/conda-forge/thrift-cpp-feedstock/pull/49" xlink:title="thrift cpp ❎">
<ellipse fill="#31688e" stroke="black" cx="1039.5" cy="-162" rx="55.49" ry="18"/>
<text text-anchor="middle" x="1039.5" y="-158.3" font-family="Times,serif" font-size="14.00" fill="white">thrift cpp ❎</text>
</a>
</g>
</g>
<!-- thrift&#45;cpp&#45;&gt;arrow&#45;cpp -->
<g id="edge14" class="edge">
<title>thrift&#45;cpp&#45;&gt;arrow&#45;cpp</title>
<path fill="none" stroke="black" d="M1058.75,-144.76C1069.91,-135.36 1084.11,-123.38 1096.28,-113.12"/>
<polygon fill="black" stroke="black" points="1098.54,-115.79 1103.92,-106.67 1094.02,-110.44 1098.54,-115.79"/>
</g>
<!-- llvmdev -->
<g id="node15" class="node">
<title>llvmdev</title>
<g id="a_node15"><a xlink:href="https://github.com/conda-forge/llvmdev-feedstock/pull/101" xlink:title="llvmdev ❎">
<ellipse fill="#31688e" stroke="black" cx="1140.5" cy="-234" rx="52" ry="18"/>
<text text-anchor="middle" x="1140.5" y="-230.3" font-family="Times,serif" font-size="14.00" fill="white">llvmdev ❎</text>
</a>
</g>
</g>
<!-- llvmdev&#45;&gt;arrow&#45;cpp -->
<g id="edge15" class="edge">
<title>llvmdev&#45;&gt;arrow&#45;cpp</title>
<path fill="none" stroke="black" d="M1138.33,-215.87C1135.26,-191.67 1129.63,-147.21 1125.97,-118.39"/>
<polygon fill="black" stroke="black" points="1129.41,-117.67 1124.68,-108.19 1122.46,-118.55 1129.41,-117.67"/>
</g>
<!-- clangdev -->
<g id="node16" class="node">
<title>clangdev</title>
<g id="a_node16"><a xlink:href="https://github.com/conda-forge/clangdev-feedstock" xlink:title="clangdev">
<ellipse fill="#fde725" stroke="black" cx="1192.5" cy="-162" rx="42.49" ry="18"/>
<text text-anchor="middle" x="1192.5" y="-158.3" font-family="Times,serif" font-size="14.00">clangdev</text>
</a>
</g>
</g>
<!-- llvmdev&#45;&gt;clangdev -->
<g id="edge16" class="edge">
<title>llvmdev&#45;&gt;clangdev</title>
<path fill="none" stroke="black" d="M1152.82,-216.41C1159.17,-207.87 1167.04,-197.28 1174.09,-187.79"/>
<polygon fill="black" stroke="black" points="1177.11,-189.58 1180.27,-179.47 1171.49,-185.41 1177.11,-189.58"/>
</g>
<!-- clangdev&#45;&gt;arrow&#45;cpp -->
<g id="edge17" class="edge">
<title>clangdev&#45;&gt;arrow&#45;cpp</title>
<path fill="none" stroke="black" d="M1176.62,-145.12C1167.62,-136.12 1156.18,-124.68 1146.15,-114.65"/>
<polygon fill="black" stroke="black" points="1148.35,-111.9 1138.81,-107.31 1143.4,-116.85 1148.35,-111.9"/>
</g>
<!-- cryptography -->
<g id="node17" class="node">
<title>cryptography</title>
<g id="a_node17"><a xlink:href="https://github.com/conda-forge/cryptography-feedstock/pull/42" xlink:title="cryptography ❎">
<ellipse fill="#31688e" stroke="black" cx="294.5" cy="-234" rx="69.59" ry="18"/>
<text text-anchor="middle" x="294.5" y="-230.3" font-family="Times,serif" font-size="14.00" fill="white">cryptography ❎</text>
</a>
</g>
</g>
<!-- cryptography&#45;&gt;conda -->
<g id="edge18" class="edge">
<title>cryptography&#45;&gt;conda</title>
<path fill="none" stroke="black" d="M340.32,-220.32C388.77,-206.92 464.33,-186.01 509.56,-173.5"/>
<polygon fill="black" stroke="black" points="510.58,-176.85 519.28,-170.81 508.71,-170.1 510.58,-176.85"/>
</g>
<!-- cryptography&#45;&gt;conda&#45;build -->
<g id="edge19" class="edge">
<title>cryptography&#45;&gt;conda&#45;build</title>
<path fill="none" stroke="black" d="M268.12,-217.34C255.42,-208.22 241.47,-195.46 234.5,-180 227.92,-165.41 229.42,-159.17 234.5,-144 237.96,-133.67 244.32,-123.74 250.96,-115.33"/>
<polygon fill="black" stroke="black" points="253.82,-117.37 257.6,-107.47 248.48,-112.85 253.82,-117.37"/>
</g>
<!-- blas -->
<g id="node18" class="node">
<title>blas</title>
<g id="a_node18"><a xlink:href="https://github.com/conda-forge/blas-feedstock" xlink:title="blas">
<ellipse fill="#fde725" stroke="black" cx="930.5" cy="-234" rx="27" ry="18"/>
<text text-anchor="middle" x="930.5" y="-230.3" font-family="Times,serif" font-size="14.00">blas</text>
</a>
</g>
</g>
<!-- blas&#45;&gt;numpy -->
<g id="edge20" class="edge">
<title>blas&#45;&gt;numpy</title>
<path fill="none" stroke="black" d="M930.5,-215.7C930.5,-207.98 930.5,-198.71 930.5,-190.11"/>
<polygon fill="black" stroke="black" points="934,-190.1 930.5,-180.1 927,-190.1 934,-190.1"/>
</g>
<!-- blis -->
<g id="node19" class="node">
<title>blis</title>
<g id="a_node19"><a xlink:href="https://github.com/conda-forge/blis-feedstock/pull/18" xlink:title="blis ❎">
<ellipse fill="#31688e" stroke="black" cx="930.5" cy="-306" rx="35.19" ry="18"/>
<text text-anchor="middle" x="930.5" y="-302.3" font-family="Times,serif" font-size="14.00" fill="white">blis ❎</text>
</a>
</g>
</g>
<!-- blis&#45;&gt;blas -->
<g id="edge21" class="edge">
<title>blis&#45;&gt;blas</title>
<path fill="none" stroke="black" d="M930.5,-287.7C930.5,-279.98 930.5,-270.71 930.5,-262.11"/>
<polygon fill="black" stroke="black" points="934,-262.1 930.5,-252.1 927,-262.1 934,-262.1"/>
</g>
<!-- lief -->
<g id="node20" class="node">
<title>lief</title>
<g id="a_node20"><a xlink:href="https://github.com/conda-forge/lief-feedstock/pull/13" xlink:title="lief ❎">
<ellipse fill="#31688e" stroke="black" cx="114.5" cy="-306" rx="34.5" ry="18"/>
<text text-anchor="middle" x="114.5" y="-302.3" font-family="Times,serif" font-size="14.00" fill="white">lief ❎</text>
</a>
</g>
</g>
<!-- lief&#45;&gt;conda&#45;build -->
<g id="edge22" class="edge">
<title>lief&#45;&gt;conda&#45;build</title>
<path fill="none" stroke="black" d="M115.3,-287.82C117.65,-255.83 126.92,-186.53 163.5,-144 179.32,-125.61 202.96,-113.1 224.36,-104.88"/>
<polygon fill="black" stroke="black" points="225.78,-108.09 234,-101.4 223.41,-101.5 225.78,-108.09"/>
</g>
<!-- orc -->
<g id="node21" class="node">
<title>orc</title>
<g id="a_node21"><a xlink:href="https://github.com/conda-forge/orc-feedstock/pull/20" xlink:title="orc ❎">
<ellipse fill="#31688e" stroke="black" cx="1262.5" cy="-234" rx="34" ry="18"/>
<text text-anchor="middle" x="1262.5" y="-230.3" font-family="Times,serif" font-size="14.00" fill="white">orc ❎</text>
</a>
</g>
</g>
<!-- orc&#45;&gt;arrow&#45;cpp -->
<g id="edge23" class="edge">
<title>orc&#45;&gt;arrow&#45;cpp</title>
<path fill="none" stroke="black" d="M1263.25,-215.97C1263.22,-196.47 1260.28,-164.57 1243.5,-144 1225.84,-122.35 1197.59,-109.3 1172.82,-101.57"/>
<polygon fill="black" stroke="black" points="1173.75,-98.2 1163.18,-98.77 1171.8,-104.92 1173.75,-98.2"/>
</g>
<!-- conda&#45;package&#45;handling -->
<g id="node22" class="node">
<title>conda&#45;package&#45;handling</title>
<g id="a_node22"><a xlink:href="https://github.com/conda-forge/conda-package-handling-feedstock" xlink:title="conda package handling">
<ellipse fill="#fde725" stroke="black" cx="602.5" cy="-234" rx="96.38" ry="18"/>
<text text-anchor="middle" x="602.5" y="-230.3" font-family="Times,serif" font-size="14.00">conda package handling</text>
</a>
</g>
</g>
<!-- conda&#45;package&#45;handling&#45;&gt;conda -->
<g id="edge24" class="edge">
<title>conda&#45;package&#45;handling&#45;&gt;conda</title>
<path fill="none" stroke="black" d="M589.19,-216.05C582.3,-207.29 573.78,-196.45 566.24,-186.86"/>
<polygon fill="black" stroke="black" points="568.87,-184.53 559.94,-178.83 563.36,-188.86 568.87,-184.53"/>
</g>
<!-- conda&#45;package&#45;handling&#45;&gt;conda&#45;build -->
<g id="edge25" class="edge">
<title>conda&#45;package&#45;handling&#45;&gt;conda&#45;build</title>
<path fill="none" stroke="black" d="M571.94,-216.8C552.93,-206.56 528.08,-192.87 506.5,-180 481.09,-164.84 477.37,-156.39 450.5,-144 410.63,-125.62 362.79,-111.69 327.05,-102.74"/>
<polygon fill="black" stroke="black" points="327.86,-99.33 317.31,-100.34 326.19,-106.13 327.86,-99.33"/>
</g>
<!-- conda&#45;package&#45;handling&#45;&gt;conda&#45;standalone -->
<g id="edge26" class="edge">
<title>conda&#45;package&#45;handling&#45;&gt;conda&#45;standalone</title>
<path fill="none" stroke="black" d="M605.52,-215.87C609.78,-191.67 617.6,-147.21 622.68,-118.39"/>
<polygon fill="black" stroke="black" points="626.19,-118.64 624.47,-108.19 619.29,-117.43 626.19,-118.64"/>
</g>
<!-- ripgrep -->
<g id="node23" class="node">
<title>ripgrep</title>
<g id="a_node23"><a xlink:href="https://github.com/conda-forge/ripgrep-feedstock/pull/15" xlink:title="ripgrep ❎">
<ellipse fill="#31688e" stroke="black" cx="177.5" cy="-378" rx="48.19" ry="18"/>
<text text-anchor="middle" x="177.5" y="-374.3" font-family="Times,serif" font-size="14.00" fill="white">ripgrep ❎</text>
</a>
</g>
</g>
<!-- ripgrep&#45;&gt;conda&#45;build -->
<g id="edge27" class="edge">
<title>ripgrep&#45;&gt;conda&#45;build</title>
<path fill="none" stroke="black" d="M178.07,-359.9C180.03,-319.95 188.66,-218.2 226.5,-144 232.08,-133.05 240.53,-122.64 248.78,-114"/>
<polygon fill="black" stroke="black" points="251.31,-116.42 255.91,-106.88 246.36,-111.47 251.31,-116.42"/>
</g>
<!-- _libarchive_static_for_cph -->
<g id="node24" class="node">
<title>_libarchive_static_for_cph</title>
<g id="a_node24"><a xlink:href="https://github.com/conda-forge/_libarchive_static_for_cph-feedstock/pull/15" xlink:title="_libarchive_static_for_cph ❎">
<ellipse fill="#31688e" stroke="black" cx="602.5" cy="-306" rx="116.5" ry="18"/>
<text text-anchor="middle" x="602.5" y="-302.3" font-family="Times,serif" font-size="14.00" fill="white">_libarchive_static_for_cph ❎</text>
</a>
</g>
</g>
<!-- _libarchive_static_for_cph&#45;&gt;conda&#45;package&#45;handling -->
<g id="edge28" class="edge">
<title>_libarchive_static_for_cph&#45;&gt;conda&#45;package&#45;handling</title>
<path fill="none" stroke="black" d="M602.5,-287.7C602.5,-279.98 602.5,-270.71 602.5,-262.11"/>
<polygon fill="black" stroke="black" points="606,-262.1 602.5,-252.1 599,-262.1 606,-262.1"/>
</g>
</g>
</svg>
