<?xml version="1.0" encoding="UTF-8" standalone="no"?>
<!DOCTYPE svg PUBLIC "-//W3C//DTD SVG 1.1//EN"
 "http://www.w3.org/Graphics/SVG/1.1/DTD/svg11.dtd">
<!-- Generated by graphviz version 2.42.3 (20191010.1750)
 -->
<!-- Title: %3 Pages: 1 -->
<svg width="465pt" height="592pt"
 viewBox="0.00 0.00 464.60 592.00" xmlns="http://www.w3.org/2000/svg" xmlns:xlink="http://www.w3.org/1999/xlink">
<g id="graph0" class="graph" transform="scale(1 1) rotate(0) translate(4 588)">
<title>%3</title>
<polygon fill="white" stroke="transparent" points="-4,4 -4,-588 460.6,-588 460.6,4 -4,4"/>
<!-- arrow&#45;cpp -->
<g id="node1" class="node">
<title>arrow&#45;cpp</title>
<g id="a_node1"><a xlink:href="https://github.com/conda-forge/arrow-cpp-feedstock" xlink:title="arrow cpp">
<ellipse fill="#fde725" stroke="black" cx="215.6" cy="-350" rx="46.29" ry="18"/>
<text text-anchor="middle" x="215.6" y="-346.3" font-family="Times,serif" font-size="14.00">arrow cpp</text>
</a>
</g>
</g>
<!-- autoconf -->
<g id="node2" class="node">
<title>autoconf</title>
<g id="a_node2"><a xlink:href="https://github.com/conda-forge/autoconf-feedstock" xlink:title="autoconf">
<ellipse fill="#fde725" stroke="black" cx="41.6" cy="-90" rx="41.69" ry="18"/>
<text text-anchor="middle" x="41.6" y="-86.3" font-family="Times,serif" font-size="14.00">autoconf</text>
</a>
</g>
</g>
<!-- automake -->
<g id="node3" class="node">
<title>automake</title>
<g id="a_node3"><a xlink:href="https://github.com/conda-forge/automake-feedstock" xlink:title="automake">
<ellipse fill="#fde725" stroke="black" cx="76.6" cy="-18" rx="45.5" ry="18"/>
<text text-anchor="middle" x="76.6" y="-14.3" font-family="Times,serif" font-size="14.00">automake</text>
</a>
</g>
</g>
<!-- autoconf&#45;&gt;automake -->
<g id="edge1" class="edge">
<title>autoconf&#45;&gt;automake</title>
<path fill="none" stroke="black" d="M50.07,-72.05C54.15,-63.89 59.14,-53.91 63.68,-44.82"/>
<polygon fill="black" stroke="black" points="66.86,-46.3 68.2,-35.79 60.6,-43.17 66.86,-46.3"/>
</g>
<!-- cmake -->
<g id="node4" class="node">
<title>cmake</title>
<g id="a_node4"><a xlink:href="https://github.com/conda-forge/cmake-feedstock/pull/125" xlink:title="cmake ❎">
<ellipse fill="#31688e" stroke="black" cx="61.6" cy="-566" rx="46.29" ry="18"/>
<text text-anchor="middle" x="61.6" y="-562.3" font-family="Times,serif" font-size="14.00" fill="white">cmake ❎</text>
</a>
</g>
</g>
<!-- libtool -->
<g id="node5" class="node">
<title>libtool</title>
<g id="a_node5"><a xlink:href="https://github.com/conda-forge/libtool-feedstock" xlink:title="libtool">
<ellipse fill="#35b779" stroke="black" cx="61.6" cy="-494" rx="34" ry="18"/>
<text text-anchor="middle" x="61.6" y="-490.3" font-family="Times,serif" font-size="14.00">libtool</text>
</a>
</g>
</g>
<!-- cmake&#45;&gt;libtool -->
<!-- ninja -->
<g id="node10" class="node">
<title>ninja</title>
<g id="a_node10"><a xlink:href="https://github.com/conda-forge/ninja-feedstock/pull/23" xlink:title="ninja ❎">
<ellipse fill="#31688e" stroke="black" cx="61.6" cy="-422" rx="40.5" ry="18"/>
<text text-anchor="middle" x="61.6" y="-418.3" font-family="Times,serif" font-size="14.00" fill="white">ninja ❎</text>
</a>
</g>
</g>
<!-- libtool&#45;&gt;ninja -->
<!-- constructor -->
<g id="node6" class="node">
<title>constructor</title>
<g id="a_node6"><a xlink:href="https://github.com/conda-forge/constructor-feedstock" xlink:title="constructor">
<ellipse fill="#fde725" stroke="black" cx="227.6" cy="-54" rx="50.09" ry="18"/>
<text text-anchor="middle" x="227.6" y="-50.3" font-family="Times,serif" font-size="14.00">constructor</text>
</a>
</g>
</g>
<!-- gettext -->
<g id="node7" class="node">
<title>gettext</title>
<g id="a_node7"><a xlink:href="https://github.com/conda-forge/gettext-feedstock" xlink:title="gettext">
<ellipse fill="#35b779" stroke="black" cx="366.6" cy="-386" rx="34.5" ry="18"/>
<text text-anchor="middle" x="366.6" y="-382.3" font-family="Times,serif" font-size="14.00">gettext</text>
</a>
</g>
</g>
<!-- glib -->
<g id="node8" class="node">
<title>glib</title>
<g id="a_node8"><a xlink:href="https://github.com/conda-forge/glib-feedstock" xlink:title="glib">
<ellipse fill="#fde725" stroke="black" cx="397.6" cy="-314" rx="27" ry="18"/>
<text text-anchor="middle" x="397.6" y="-310.3" font-family="Times,serif" font-size="14.00">glib</text>
</a>
</g>
</g>
<!-- gettext&#45;&gt;glib -->
<g id="edge3" class="edge">
<title>gettext&#45;&gt;glib</title>
<path fill="none" stroke="black" d="M373.94,-368.41C377.61,-360.13 382.13,-349.92 386.23,-340.66"/>
<polygon fill="black" stroke="black" points="389.45,-342.03 390.3,-331.47 383.05,-339.2 389.45,-342.03"/>
</g>
<!-- lapack -->
<g id="node9" class="node">
<title>lapack</title>
<g id="a_node9"><a xlink:href="https://github.com/conda-forge/lapack-feedstock" xlink:title="lapack">
<ellipse fill="#fde725" stroke="black" cx="164.6" cy="-422" rx="34" ry="18"/>
<text text-anchor="middle" x="164.6" y="-418.3" font-family="Times,serif" font-size="14.00">lapack</text>
</a>
</g>
</g>
<!-- openblas -->
<g id="node11" class="node">
<title>openblas</title>
<g id="a_node11"><a xlink:href="https://github.com/conda-forge/openblas-feedstock/pull/105" xlink:title="openblas ❎">
<ellipse fill="#31688e" stroke="black" cx="61.6" cy="-350" rx="54" ry="18"/>
<text text-anchor="middle" x="61.6" y="-346.3" font-family="Times,serif" font-size="14.00" fill="white">openblas ❎</text>
</a>
</g>
</g>
<!-- ninja&#45;&gt;openblas -->
<!-- pkg&#45;config -->
<g id="node14" class="node">
<title>pkg&#45;config</title>
<g id="a_node14"><a xlink:href="https://github.com/conda-forge/pkg-config-feedstock/pull/35" xlink:title="pkg config ❎">
<ellipse fill="#31688e" stroke="black" cx="61.6" cy="-278" rx="60.5" ry="18"/>
<text text-anchor="middle" x="61.6" y="-274.3" font-family="Times,serif" font-size="14.00" fill="white">pkg config ❎</text>
</a>
</g>
</g>
<!-- openblas&#45;&gt;pkg&#45;config -->
<!-- numpy -->
<g id="node12" class="node">
<title>numpy</title>
<g id="a_node12"><a xlink:href="https://github.com/conda-forge/numpy-feedstock" xlink:title="numpy">
<ellipse fill="#fde725" stroke="black" cx="252.6" cy="-422" rx="36" ry="18"/>
<text text-anchor="middle" x="252.6" y="-418.3" font-family="Times,serif" font-size="14.00">numpy</text>
</a>
</g>
</g>
<!-- numpy&#45;&gt;arrow&#45;cpp -->
<g id="edge6" class="edge">
<title>numpy&#45;&gt;arrow&#45;cpp</title>
<path fill="none" stroke="black" d="M243.83,-404.41C239.51,-396.25 234.21,-386.22 229.37,-377.07"/>
<polygon fill="black" stroke="black" points="232.33,-375.16 224.56,-367.96 226.14,-378.43 232.33,-375.16"/>
</g>
<!-- pandas -->
<g id="node13" class="node">
<title>pandas</title>
<g id="a_node13"><a xlink:href="https://github.com/conda-forge/pandas-feedstock" xlink:title="pandas">
<ellipse fill="#fde725" stroke="black" cx="289.6" cy="-278" rx="35.19" ry="18"/>
<text text-anchor="middle" x="289.6" y="-274.3" font-family="Times,serif" font-size="14.00">pandas</text>
</a>
</g>
</g>
<!-- numpy&#45;&gt;pandas -->
<g id="edge7" class="edge">
<title>numpy&#45;&gt;pandas</title>
<path fill="none" stroke="black" d="M258.95,-403.97C262.65,-393.66 267.24,-380.18 270.6,-368 276.23,-347.57 281.17,-324.11 284.61,-306.4"/>
<polygon fill="black" stroke="black" points="288.12,-306.68 286.54,-296.21 281.24,-305.38 288.12,-306.68"/>
</g>
<!-- ripgrep -->
<g id="node17" class="node">
<title>ripgrep</title>
<g id="a_node17"><a xlink:href="https://github.com/conda-forge/ripgrep-feedstock/pull/15" xlink:title="ripgrep ❎">
<ellipse fill="#31688e" stroke="black" cx="61.6" cy="-206" rx="48.19" ry="18"/>
<text text-anchor="middle" x="61.6" y="-202.3" font-family="Times,serif" font-size="14.00" fill="white">ripgrep ❎</text>
</a>
</g>
</g>
<!-- pkg&#45;config&#45;&gt;ripgrep -->
<!-- pcre -->
<g id="node15" class="node">
<title>pcre</title>
<g id="a_node15"><a xlink:href="https://github.com/conda-forge/pcre-feedstock" xlink:title="pcre">
<ellipse fill="#35b779" stroke="black" cx="429.6" cy="-458" rx="27" ry="18"/>
<text text-anchor="middle" x="429.6" y="-454.3" font-family="Times,serif" font-size="14.00">pcre</text>
</a>
</g>
</g>
<!-- pcre&#45;&gt;glib -->
<g id="edge9" class="edge">
<title>pcre&#45;&gt;glib</title>
<path fill="none" stroke="black" d="M426.11,-439.9C422.41,-421.96 416.32,-392.95 410.6,-368 408.66,-359.56 406.45,-350.39 404.41,-342.09"/>
<polygon fill="black" stroke="black" points="407.75,-341.02 401.94,-332.15 400.95,-342.7 407.75,-341.02"/>
</g>
<!-- perl -->
<g id="node16" class="node">
<title>perl</title>
<g id="a_node16"><a xlink:href="https://github.com/conda-forge/perl-feedstock" xlink:title="perl">
<ellipse fill="#35b779" stroke="black" cx="76.6" cy="-162" rx="27" ry="18"/>
<text text-anchor="middle" x="76.6" y="-158.3" font-family="Times,serif" font-size="14.00">perl</text>
</a>
</g>
</g>
<!-- perl&#45;&gt;autoconf -->
<g id="edge10" class="edge">
<title>perl&#45;&gt;autoconf</title>
<path fill="none" stroke="black" d="M68.48,-144.76C64.4,-136.61 59.36,-126.53 54.75,-117.31"/>
<polygon fill="black" stroke="black" points="57.76,-115.5 50.16,-108.12 51.5,-118.63 57.76,-115.5"/>
</g>
<!-- perl&#45;&gt;automake -->
<g id="edge11" class="edge">
<title>perl&#45;&gt;automake</title>
<path fill="none" stroke="black" d="M83.08,-144.1C86.67,-133.84 90.77,-120.36 92.6,-108 94.93,-92.17 94.93,-87.83 92.6,-72 91.3,-63.21 88.85,-53.86 86.26,-45.5"/>
<polygon fill="black" stroke="black" points="89.54,-44.29 83.08,-35.9 82.9,-46.49 89.54,-44.29"/>
</g>
<!-- blas -->
<g id="node18" class="node">
<title>blas</title>
<g id="a_node18"><a xlink:href="https://github.com/conda-forge/blas-feedstock/pull/47" xlink:title="blas ❎">
<ellipse fill="#31688e" stroke="black" cx="208.6" cy="-494" rx="36.5" ry="18"/>
<text text-anchor="middle" x="208.6" y="-490.3" font-family="Times,serif" font-size="14.00" fill="white">blas ❎</text>
</a>
</g>
</g>
<!-- blas&#45;&gt;lapack -->
<g id="edge13" class="edge">
<title>blas&#45;&gt;lapack</title>
<path fill="none" stroke="black" d="M198.17,-476.41C192.85,-467.95 186.28,-457.49 180.36,-448.08"/>
<polygon fill="black" stroke="black" points="183.23,-446.07 174.95,-439.47 177.31,-449.8 183.23,-446.07"/>
</g>
<!-- blas&#45;&gt;numpy -->
<g id="edge14" class="edge">
<title>blas&#45;&gt;numpy</title>
<path fill="none" stroke="black" d="M219.02,-476.41C224.34,-467.95 230.91,-457.49 236.83,-448.08"/>
<polygon fill="black" stroke="black" points="239.89,-449.8 242.24,-439.47 233.96,-446.07 239.89,-449.8"/>
</g>
<!-- conda&#45;standalone -->
<g id="node19" class="node">
<title>conda&#45;standalone</title>
<g id="a_node19"><a xlink:href="https://github.com/conda-forge/conda-standalone-feedstock/pull/10" xlink:title="conda standalone ❎">
<ellipse fill="#31688e" stroke="black" cx="227.6" cy="-126" rx="83.39" ry="18"/>
<text text-anchor="middle" x="227.6" y="-122.3" font-family="Times,serif" font-size="14.00" fill="white">conda standalone ❎</text>
</a>
</g>
</g>
<!-- conda&#45;standalone&#45;&gt;constructor -->
<g id="edge15" class="edge">
<title>conda&#45;standalone&#45;&gt;constructor</title>
<path fill="none" stroke="black" d="M227.6,-107.7C227.6,-99.98 227.6,-90.71 227.6,-82.11"/>
<polygon fill="black" stroke="black" points="231.1,-82.1 227.6,-72.1 224.1,-82.1 231.1,-82.1"/>
</g>
</g>
</svg>
