<?xml version="1.0" encoding="UTF-8" standalone="no"?>
<!DOCTYPE svg PUBLIC "-//W3C//DTD SVG 1.1//EN"
 "http://www.w3.org/Graphics/SVG/1.1/DTD/svg11.dtd">
<!-- Generated by graphviz version 2.42.3 (20191010.1750)
 -->
<!-- Title: %3 Pages: 1 -->
<svg width="812pt" height="520pt"
 viewBox="0.00 0.00 811.50 520.00" xmlns="http://www.w3.org/2000/svg" xmlns:xlink="http://www.w3.org/1999/xlink">
<g id="graph0" class="graph" transform="scale(1 1) rotate(0) translate(4 516)">
<title>%3</title>
<polygon fill="white" stroke="transparent" points="-4,4 -4,-516 807.5,-516 807.5,4 -4,4"/>
<!-- appnope -->
<g id="node1" class="node">
<title>appnope</title>
<g id="a_node1"><a xlink:href="https://github.com/conda-forge/appnope-feedstock" xlink:title="appnope">
<ellipse fill="#35b779" stroke="black" cx="343" cy="-314" rx="40.5" ry="18"/>
<text text-anchor="middle" x="343" y="-310.3" font-family="Times,serif" font-size="14.00">appnope</text>
</a>
</g>
</g>
<!-- ipython -->
<g id="node2" class="node">
<title>ipython</title>
<g id="a_node2"><a xlink:href="https://github.com/conda-forge/ipython-feedstock" xlink:title="ipython">
<ellipse fill="#fde725" stroke="black" cx="412" cy="-242" rx="37.89" ry="18"/>
<text text-anchor="middle" x="412" y="-238.3" font-family="Times,serif" font-size="14.00">ipython</text>
</a>
</g>
</g>
<!-- appnope&#45;&gt;ipython -->
<g id="edge1" class="edge">
<title>appnope&#45;&gt;ipython</title>
<path fill="none" stroke="black" d="M358.66,-297.12C367.66,-287.99 379.12,-276.36 389.11,-266.22"/>
<polygon fill="black" stroke="black" points="391.88,-268.4 396.4,-258.82 386.89,-263.49 391.88,-268.4"/>
</g>
<!-- astropy -->
<g id="node3" class="node">
<title>astropy</title>
<g id="a_node3"><a xlink:href="https://github.com/conda-forge/astropy-feedstock/pull/82" xlink:title="astropy ❎">
<ellipse fill="#31688e" stroke="black" cx="608" cy="-314" rx="48.19" ry="18"/>
<text text-anchor="middle" x="608" y="-310.3" font-family="Times,serif" font-size="14.00" fill="white">astropy ❎</text>
</a>
</g>
</g>
<!-- healpy -->
<g id="node4" class="node">
<title>healpy</title>
<g id="a_node4"><a xlink:href="https://github.com/conda-forge/healpy-feedstock" xlink:title="healpy">
<ellipse fill="#fde725" stroke="black" cx="684" cy="-242" rx="34.5" ry="18"/>
<text text-anchor="middle" x="684" y="-238.3" font-family="Times,serif" font-size="14.00">healpy</text>
</a>
</g>
</g>
<!-- astropy&#45;&gt;healpy -->
<g id="edge2" class="edge">
<title>astropy&#45;&gt;healpy</title>
<path fill="none" stroke="black" d="M625.25,-297.12C635.56,-287.61 648.83,-275.39 660.14,-264.97"/>
<polygon fill="black" stroke="black" points="662.62,-267.45 667.6,-258.1 657.88,-262.3 662.62,-267.45"/>
</g>
<!-- autoconf -->
<g id="node5" class="node">
<title>autoconf</title>
<g id="a_node5"><a xlink:href="https://github.com/conda-forge/autoconf-feedstock" xlink:title="autoconf">
<ellipse fill="#35b779" stroke="black" cx="682" cy="-126" rx="41.69" ry="18"/>
<text text-anchor="middle" x="682" y="-122.3" font-family="Times,serif" font-size="14.00">autoconf</text>
</a>
</g>
</g>
<!-- automake -->
<g id="node6" class="node">
<title>automake</title>
<g id="a_node6"><a xlink:href="https://github.com/conda-forge/automake-feedstock" xlink:title="automake">
<ellipse fill="#fde725" stroke="black" cx="682" cy="-54" rx="45.5" ry="18"/>
<text text-anchor="middle" x="682" y="-50.3" font-family="Times,serif" font-size="14.00">automake</text>
</a>
</g>
</g>
<!-- autoconf&#45;&gt;automake -->
<g id="edge3" class="edge">
<title>autoconf&#45;&gt;automake</title>
<path fill="none" stroke="black" d="M682,-107.7C682,-99.98 682,-90.71 682,-82.11"/>
<polygon fill="black" stroke="black" points="685.5,-82.1 682,-72.1 678.5,-82.1 685.5,-82.1"/>
</g>
<!-- cfitsio -->
<g id="node7" class="node">
<title>cfitsio</title>
<g id="a_node7"><a xlink:href="https://github.com/conda-forge/cfitsio-feedstock/pull/29" xlink:title="cfitsio ❎">
<ellipse fill="#31688e" stroke="black" cx="684" cy="-386" rx="44.39" ry="18"/>
<text text-anchor="middle" x="684" y="-382.3" font-family="Times,serif" font-size="14.00" fill="white">cfitsio ❎</text>
</a>
</g>
</g>
<!-- cfitsio&#45;&gt;healpy -->
<g id="edge4" class="edge">
<title>cfitsio&#45;&gt;healpy</title>
<path fill="none" stroke="black" d="M684,-367.87C684,-343.67 684,-299.21 684,-270.39"/>
<polygon fill="black" stroke="black" points="687.5,-270.19 684,-260.19 680.5,-270.19 687.5,-270.19"/>
</g>
<!-- constructor -->
<g id="node8" class="node">
<title>constructor</title>
<g id="a_node8"><a xlink:href="https://github.com/conda-forge/constructor-feedstock" xlink:title="constructor">
<ellipse fill="#fde725" stroke="black" cx="147" cy="-54" rx="50.09" ry="18"/>
<text text-anchor="middle" x="147" y="-50.3" font-family="Times,serif" font-size="14.00">constructor</text>
</a>
</g>
</g>
<!-- emacs -->
<g id="node9" class="node">
<title>emacs</title>
<g id="a_node9"><a xlink:href="https://github.com/conda-forge/emacs-feedstock" xlink:title="emacs">
<ellipse fill="#fde725" stroke="black" cx="161" cy="-206" rx="33.29" ry="18"/>
<text text-anchor="middle" x="161" y="-202.3" font-family="Times,serif" font-size="14.00">emacs</text>
</a>
</g>
</g>
<!-- gdk&#45;pixbuf -->
<g id="node10" class="node">
<title>gdk&#45;pixbuf</title>
<g id="a_node10"><a xlink:href="https://github.com/conda-forge/gdk-pixbuf-feedstock" xlink:title="gdk pixbuf">
<ellipse fill="#35b779" stroke="black" cx="60" cy="-350" rx="49.5" ry="18"/>
<text text-anchor="middle" x="60" y="-346.3" font-family="Times,serif" font-size="14.00">gdk pixbuf</text>
</a>
</g>
</g>
<!-- librsvg -->
<g id="node11" class="node">
<title>librsvg</title>
<g id="a_node11"><a xlink:href="https://github.com/conda-forge/librsvg-feedstock" xlink:title="librsvg">
<ellipse fill="#fde725" stroke="black" cx="77" cy="-278" rx="35.19" ry="18"/>
<text text-anchor="middle" x="77" y="-274.3" font-family="Times,serif" font-size="14.00">librsvg</text>
</a>
</g>
</g>
<!-- gdk&#45;pixbuf&#45;&gt;librsvg -->
<g id="edge5" class="edge">
<title>gdk&#45;pixbuf&#45;&gt;librsvg</title>
<path fill="none" stroke="black" d="M64.12,-332.05C66.01,-324.26 68.3,-314.82 70.42,-306.08"/>
<polygon fill="black" stroke="black" points="73.85,-306.82 72.8,-296.28 67.04,-305.17 73.85,-306.82"/>
</g>
<!-- librsvg&#45;&gt;emacs -->
<g id="edge6" class="edge">
<title>librsvg&#45;&gt;emacs</title>
<path fill="none" stroke="black" d="M94.81,-262.15C106.7,-252.25 122.5,-239.08 135.69,-228.09"/>
<polygon fill="black" stroke="black" points="138.06,-230.67 143.5,-221.58 133.58,-225.3 138.06,-230.67"/>
</g>
<!-- git -->
<g id="node12" class="node">
<title>git</title>
<g id="a_node12"><a xlink:href="https://github.com/conda-forge/git-feedstock" xlink:title="git">
<ellipse fill="#35b779" stroke="black" cx="427" cy="-162" rx="27" ry="18"/>
<text text-anchor="middle" x="427" y="-158.3" font-family="Times,serif" font-size="14.00">git</text>
</a>
</g>
</g>
<!-- fitsio -->
<g id="node13" class="node">
<title>fitsio</title>
<g id="a_node13"><a xlink:href="https://github.com/conda-forge/fitsio-feedstock/pull/24" xlink:title="fitsio ❎">
<ellipse fill="#31688e" stroke="black" cx="427" cy="-90" rx="40.5" ry="18"/>
<text text-anchor="middle" x="427" y="-86.3" font-family="Times,serif" font-size="14.00" fill="white">fitsio ❎</text>
</a>
</g>
</g>
<!-- git&#45;&gt;fitsio -->
<!-- reproc -->
<g id="node23" class="node">
<title>reproc</title>
<g id="a_node23"><a xlink:href="https://github.com/conda-forge/reproc-feedstock" xlink:title="reproc">
<ellipse fill="#35b779" stroke="black" cx="427" cy="-18" rx="33.29" ry="18"/>
<text text-anchor="middle" x="427" y="-14.3" font-family="Times,serif" font-size="14.00">reproc</text>
</a>
</g>
</g>
<!-- fitsio&#45;&gt;reproc -->
<!-- gnutls -->
<g id="node14" class="node">
<title>gnutls</title>
<g id="a_node14"><a xlink:href="https://github.com/conda-forge/gnutls-feedstock" xlink:title="gnutls">
<ellipse fill="#fde725" stroke="black" cx="250" cy="-278" rx="32.5" ry="18"/>
<text text-anchor="middle" x="250" y="-274.3" font-family="Times,serif" font-size="14.00">gnutls</text>
</a>
</g>
</g>
<!-- gnutls&#45;&gt;emacs -->
<g id="edge8" class="edge">
<title>gnutls&#45;&gt;emacs</title>
<path fill="none" stroke="black" d="M231.99,-262.83C219.08,-252.68 201.5,-238.85 187.06,-227.5"/>
<polygon fill="black" stroke="black" points="189.01,-224.58 178.98,-221.14 184.68,-230.08 189.01,-224.58"/>
</g>
<!-- gobject&#45;introspection -->
<g id="node15" class="node">
<title>gobject&#45;introspection</title>
<g id="a_node15"><a xlink:href="https://github.com/conda-forge/gobject-introspection-feedstock/pull/31" xlink:title="gobject introspection ❎">
<ellipse fill="#31688e" stroke="black" cx="97" cy="-422" rx="97" ry="18"/>
<text text-anchor="middle" x="97" y="-418.3" font-family="Times,serif" font-size="14.00" fill="white">gobject introspection ❎</text>
</a>
</g>
</g>
<!-- pango -->
<g id="node16" class="node">
<title>pango</title>
<g id="a_node16"><a xlink:href="https://github.com/conda-forge/pango-feedstock" xlink:title="pango">
<ellipse fill="#fde725" stroke="black" cx="160" cy="-350" rx="32.5" ry="18"/>
<text text-anchor="middle" x="160" y="-346.3" font-family="Times,serif" font-size="14.00">pango</text>
</a>
</g>
</g>
<!-- gobject&#45;introspection&#45;&gt;pango -->
<g id="edge9" class="edge">
<title>gobject&#45;introspection&#45;&gt;pango</title>
<path fill="none" stroke="black" d="M112.25,-404.05C120.41,-394.99 130.58,-383.69 139.43,-373.86"/>
<polygon fill="black" stroke="black" points="142.09,-376.13 146.18,-366.36 136.89,-371.45 142.09,-376.13"/>
</g>
<!-- pango&#45;&gt;librsvg -->
<g id="edge10" class="edge">
<title>pango&#45;&gt;librsvg</title>
<path fill="none" stroke="black" d="M142.8,-334.5C131.08,-324.61 115.38,-311.36 102.24,-300.29"/>
<polygon fill="black" stroke="black" points="104.36,-297.5 94.46,-293.73 99.85,-302.85 104.36,-297.5"/>
</g>
<!-- r&#45;base -->
<g id="node17" class="node">
<title>r&#45;base</title>
<g id="a_node17"><a xlink:href="https://github.com/conda-forge/r-base-feedstock" xlink:title="r base">
<ellipse fill="#fde725" stroke="black" cx="162" cy="-278" rx="32" ry="18"/>
<text text-anchor="middle" x="162" y="-274.3" font-family="Times,serif" font-size="14.00">r base</text>
</a>
</g>
</g>
<!-- pango&#45;&gt;r&#45;base -->
<g id="edge11" class="edge">
<title>pango&#45;&gt;r&#45;base</title>
<path fill="none" stroke="black" d="M160.49,-331.7C160.71,-323.98 160.98,-314.71 161.23,-306.11"/>
<polygon fill="black" stroke="black" points="164.72,-306.2 161.51,-296.1 157.73,-306 164.72,-306.2"/>
</g>
<!-- harfbuzz -->
<g id="node18" class="node">
<title>harfbuzz</title>
<g id="a_node18"><a xlink:href="https://github.com/conda-forge/harfbuzz-feedstock/pull/58" xlink:title="harfbuzz ❎">
<ellipse fill="#31688e" stroke="black" cx="222" cy="-494" rx="53.5" ry="18"/>
<text text-anchor="middle" x="222" y="-490.3" font-family="Times,serif" font-size="14.00" fill="white">harfbuzz ❎</text>
</a>
</g>
</g>
<!-- harfbuzz&#45;&gt;pango -->
<g id="edge12" class="edge">
<title>harfbuzz&#45;&gt;pango</title>
<path fill="none" stroke="black" d="M220.73,-475.84C218.83,-457.33 214.18,-427.38 203,-404 197.76,-393.03 189.81,-382.34 182.17,-373.47"/>
<polygon fill="black" stroke="black" points="184.62,-370.96 175.32,-365.88 179.42,-375.65 184.62,-370.96"/>
</g>
<!-- jedi -->
<g id="node19" class="node">
<title>jedi</title>
<g id="a_node19"><a xlink:href="https://github.com/conda-forge/jedi-feedstock/pull/38" xlink:title="jedi ❎">
<ellipse fill="#31688e" stroke="black" cx="412" cy="-386" rx="36" ry="18"/>
<text text-anchor="middle" x="412" y="-382.3" font-family="Times,serif" font-size="14.00" fill="white">jedi ❎</text>
</a>
</g>
</g>
<!-- jedi&#45;&gt;ipython -->
<g id="edge13" class="edge">
<title>jedi&#45;&gt;ipython</title>
<path fill="none" stroke="black" d="M412,-367.87C412,-343.67 412,-299.21 412,-270.39"/>
<polygon fill="black" stroke="black" points="415.5,-270.19 412,-260.19 408.5,-270.19 415.5,-270.19"/>
</g>
<!-- matplotlib -->
<g id="node20" class="node">
<title>matplotlib</title>
<g id="a_node20"><a xlink:href="https://github.com/conda-forge/matplotlib-feedstock" xlink:title="matplotlib">
<ellipse fill="#35b779" stroke="black" cx="756" cy="-458" rx="47.5" ry="18"/>
<text text-anchor="middle" x="756" y="-454.3" font-family="Times,serif" font-size="14.00">matplotlib</text>
</a>
</g>
</g>
<!-- matplotlib&#45;&gt;healpy -->
<g id="edge14" class="edge">
<title>matplotlib&#45;&gt;healpy</title>
<path fill="none" stroke="black" d="M753.37,-440.02C750.33,-421.93 744.75,-392.56 737,-368 725.85,-332.68 708.42,-293.62 696.62,-268.72"/>
<polygon fill="black" stroke="black" points="699.72,-267.1 692.25,-259.6 693.41,-270.13 699.72,-267.1"/>
</g>
<!-- nettle -->
<g id="node21" class="node">
<title>nettle</title>
<g id="a_node21"><a xlink:href="https://github.com/conda-forge/nettle-feedstock/pull/7" xlink:title="nettle ❎">
<ellipse fill="#31688e" stroke="black" cx="253" cy="-350" rx="42.49" ry="18"/>
<text text-anchor="middle" x="253" y="-346.3" font-family="Times,serif" font-size="14.00" fill="white">nettle ❎</text>
</a>
</g>
</g>
<!-- nettle&#45;&gt;gnutls -->
<g id="edge15" class="edge">
<title>nettle&#45;&gt;gnutls</title>
<path fill="none" stroke="black" d="M252.26,-331.7C251.93,-323.98 251.53,-314.71 251.16,-306.11"/>
<polygon fill="black" stroke="black" points="254.66,-305.95 250.73,-296.1 247.66,-306.25 254.66,-305.95"/>
</g>
<!-- prompt_toolkit -->
<g id="node22" class="node">
<title>prompt_toolkit</title>
<g id="a_node22"><a xlink:href="https://github.com/conda-forge/prompt_toolkit-feedstock/pull/51" xlink:title="prompt_toolkit ❎">
<ellipse fill="#31688e" stroke="black" cx="476" cy="-458" rx="75.5" ry="18"/>
<text text-anchor="middle" x="476" y="-454.3" font-family="Times,serif" font-size="14.00" fill="white">prompt_toolkit ❎</text>
</a>
</g>
</g>
<!-- prompt_toolkit&#45;&gt;ipython -->
<g id="edge16" class="edge">
<title>prompt_toolkit&#45;&gt;ipython</title>
<path fill="none" stroke="black" d="M473.04,-439.77C469.77,-421.72 464.02,-392.61 457,-368 447.1,-333.3 432.49,-294.33 422.63,-269.27"/>
<polygon fill="black" stroke="black" points="425.79,-267.75 418.85,-259.75 419.29,-270.33 425.79,-267.75"/>
</g>
<!-- conda&#45;standalone -->
<g id="node24" class="node">
<title>conda&#45;standalone</title>
<g id="a_node24"><a xlink:href="https://github.com/conda-forge/conda-standalone-feedstock/pull/10" xlink:title="conda standalone ❎">
<ellipse fill="#31688e" stroke="black" cx="147" cy="-126" rx="83.39" ry="18"/>
<text text-anchor="middle" x="147" y="-122.3" font-family="Times,serif" font-size="14.00" fill="white">conda standalone ❎</text>
</a>
</g>
</g>
<!-- conda&#45;standalone&#45;&gt;constructor -->
<g id="edge18" class="edge">
<title>conda&#45;standalone&#45;&gt;constructor</title>
<path fill="none" stroke="black" d="M147,-107.7C147,-99.98 147,-90.71 147,-82.11"/>
<polygon fill="black" stroke="black" points="150.5,-82.1 147,-72.1 143.5,-82.1 150.5,-82.1"/>
</g>
</g>
</svg>
