<?xml version="1.0" encoding="UTF-8" standalone="no"?>
<!DOCTYPE svg PUBLIC "-//W3C//DTD SVG 1.1//EN"
 "http://www.w3.org/Graphics/SVG/1.1/DTD/svg11.dtd">
<!-- Generated by graphviz version 2.42.3 (20191010.1750)
 -->
<!-- Title: %3 Pages: 1 -->
<svg width="2645pt" height="548pt"
 viewBox="0.00 0.00 2645.00 548.00" xmlns="http://www.w3.org/2000/svg" xmlns:xlink="http://www.w3.org/1999/xlink">
<g id="graph0" class="graph" transform="scale(1 1) rotate(0) translate(4 544)">
<title>%3</title>
<polygon fill="white" stroke="transparent" points="-4,4 -4,-544 2641,-544 2641,4 -4,4"/>
<!-- arrow&#45;cpp -->
<g id="node1" class="node">
<title>arrow&#45;cpp</title>
<g id="a_node1"><a xlink:href="https://github.com/conda-forge/arrow-cpp-feedstock" xlink:title="arrow cpp">
<ellipse fill="#fde725" stroke="black" cx="2074.5" cy="-90" rx="46.29" ry="18"/>
<text text-anchor="middle" x="2074.5" y="-86.3" font-family="Times,serif" font-size="14.00">arrow cpp</text>
</a>
</g>
</g>
<!-- beautifulsoup4 -->
<g id="node2" class="node">
<title>beautifulsoup4</title>
<g id="a_node2"><a xlink:href="https://github.com/conda-forge/beautifulsoup4-feedstock" xlink:title="beautifulsoup4">
<ellipse fill="#fde725" stroke="black" cx="1089.5" cy="-234" rx="63.09" ry="18"/>
<text text-anchor="middle" x="1089.5" y="-230.3" font-family="Times,serif" font-size="14.00">beautifulsoup4</text>
</a>
</g>
</g>
<!-- conda&#45;build -->
<g id="node3" class="node">
<title>conda&#45;build</title>
<g id="a_node3"><a xlink:href="https://github.com/conda-forge/conda-build-feedstock" xlink:title="conda build">
<ellipse fill="#fde725" stroke="black" cx="939.5" cy="-18" rx="52" ry="18"/>
<text text-anchor="middle" x="939.5" y="-14.3" font-family="Times,serif" font-size="14.00">conda build</text>
</a>
</g>
</g>
<!-- beautifulsoup4&#45;&gt;conda&#45;build -->
<g id="edge1" class="edge">
<title>beautifulsoup4&#45;&gt;conda&#45;build</title>
<path fill="none" stroke="black" d="M1095.48,-216.05C1105.45,-184.45 1121.53,-115.78 1090.5,-72 1070.04,-43.14 1032.58,-29.88 1000.09,-23.84"/>
<polygon fill="black" stroke="black" points="1000.63,-20.38 990.19,-22.18 999.48,-27.28 1000.63,-20.38"/>
</g>
<!-- boost&#45;cpp -->
<g id="node4" class="node">
<title>boost&#45;cpp</title>
<g id="a_node4"><a xlink:href="https://github.com/conda-forge/boost-cpp-feedstock/pull/79" xlink:title="boost cpp ❎">
<ellipse fill="#31688e" stroke="black" cx="2261.5" cy="-234" rx="56.59" ry="18"/>
<text text-anchor="middle" x="2261.5" y="-230.3" font-family="Times,serif" font-size="14.00" fill="white">boost cpp ❎</text>
</a>
</g>
</g>
<!-- boost&#45;cpp&#45;&gt;arrow&#45;cpp -->
<g id="edge2" class="edge">
<title>boost&#45;cpp&#45;&gt;arrow&#45;cpp</title>
<path fill="none" stroke="black" d="M2251.17,-215.95C2238.62,-196.43 2215.85,-164.5 2189.5,-144 2168.25,-127.46 2141,-114.62 2118.36,-105.72"/>
<polygon fill="black" stroke="black" points="2119.57,-102.43 2108.98,-102.14 2117.08,-108.97 2119.57,-102.43"/>
</g>
<!-- thrift&#45;cpp -->
<g id="node5" class="node">
<title>thrift&#45;cpp</title>
<g id="a_node5"><a xlink:href="https://github.com/conda-forge/thrift-cpp-feedstock" xlink:title="thrift cpp">
<ellipse fill="#fde725" stroke="black" cx="2136.5" cy="-162" rx="43.59" ry="18"/>
<text text-anchor="middle" x="2136.5" y="-158.3" font-family="Times,serif" font-size="14.00">thrift cpp</text>
</a>
</g>
</g>
<!-- boost&#45;cpp&#45;&gt;thrift&#45;cpp -->
<g id="edge3" class="edge">
<title>boost&#45;cpp&#45;&gt;thrift&#45;cpp</title>
<path fill="none" stroke="black" d="M2234.68,-217.98C2215.9,-207.46 2190.64,-193.32 2170.45,-182.01"/>
<polygon fill="black" stroke="black" points="2172,-178.87 2161.57,-177.04 2168.58,-184.98 2172,-178.87"/>
</g>
<!-- thrift&#45;cpp&#45;&gt;arrow&#45;cpp -->
<g id="edge4" class="edge">
<title>thrift&#45;cpp&#45;&gt;arrow&#45;cpp</title>
<path fill="none" stroke="black" d="M2122.12,-144.76C2114.22,-135.84 2104.27,-124.61 2095.51,-114.72"/>
<polygon fill="black" stroke="black" points="2098.05,-112.31 2088.8,-107.15 2092.81,-116.95 2098.05,-112.31"/>
</g>
<!-- brotli -->
<g id="node6" class="node">
<title>brotli</title>
<g id="a_node6"><a xlink:href="https://github.com/conda-forge/brotli-feedstock/pull/24" xlink:title="brotli ❎">
<ellipse fill="#31688e" stroke="black" cx="1802.5" cy="-162" rx="41.69" ry="18"/>
<text text-anchor="middle" x="1802.5" y="-158.3" font-family="Times,serif" font-size="14.00" fill="white">brotli ❎</text>
</a>
</g>
</g>
<!-- brotli&#45;&gt;arrow&#45;cpp -->
<g id="edge5" class="edge">
<title>brotli&#45;&gt;arrow&#45;cpp</title>
<path fill="none" stroke="black" d="M1833.93,-150.05C1840.37,-147.94 1847.13,-145.82 1853.5,-144 1911.87,-127.31 1979.91,-111.53 2024.91,-101.61"/>
<polygon fill="black" stroke="black" points="2025.69,-105.02 2034.71,-99.46 2024.19,-98.18 2025.69,-105.02"/>
</g>
<!-- brotlipy -->
<g id="node7" class="node">
<title>brotlipy</title>
<g id="a_node7"><a xlink:href="https://github.com/conda-forge/brotlipy-feedstock" xlink:title="brotlipy">
<ellipse fill="#fde725" stroke="black" cx="131.5" cy="-162" rx="38.5" ry="18"/>
<text text-anchor="middle" x="131.5" y="-158.3" font-family="Times,serif" font-size="14.00">brotlipy</text>
</a>
</g>
</g>
<!-- brotlipy&#45;&gt;conda&#45;build -->
<g id="edge6" class="edge">
<title>brotlipy&#45;&gt;conda&#45;build</title>
<path fill="none" stroke="black" d="M151.44,-146.17C180.52,-125.45 237.05,-88.52 291.5,-72 400.04,-39.06 737.52,-25.18 877.59,-20.73"/>
<polygon fill="black" stroke="black" points="877.84,-24.22 887.73,-20.41 877.63,-17.23 877.84,-24.22"/>
</g>
<!-- conda -->
<g id="node8" class="node">
<title>conda</title>
<g id="a_node8"><a xlink:href="https://github.com/conda-forge/conda-feedstock" xlink:title="conda">
<ellipse fill="#fde725" stroke="black" cx="403.5" cy="-90" rx="32" ry="18"/>
<text text-anchor="middle" x="403.5" y="-86.3" font-family="Times,serif" font-size="14.00">conda</text>
</a>
</g>
</g>
<!-- brotlipy&#45;&gt;conda -->
<g id="edge7" class="edge">
<title>brotlipy&#45;&gt;conda</title>
<path fill="none" stroke="black" d="M160.41,-149.95C166.35,-147.85 172.6,-145.76 178.5,-144 242.56,-124.94 318.48,-108.25 363.73,-98.91"/>
<polygon fill="black" stroke="black" points="364.63,-102.3 373.73,-96.87 363.23,-95.44 364.63,-102.3"/>
</g>
<!-- conda&#45;&gt;conda&#45;build -->
<g id="edge8" class="edge">
<title>conda&#45;&gt;conda&#45;build</title>
<path fill="none" stroke="black" d="M434.24,-84.99C520.85,-73.67 767.91,-41.41 881.32,-26.6"/>
<polygon fill="black" stroke="black" points="882.07,-30.03 891.54,-25.26 881.17,-23.09 882.07,-30.03"/>
</g>
<!-- certifi -->
<g id="node9" class="node">
<title>certifi</title>
<g id="a_node9"><a xlink:href="https://github.com/conda-forge/certifi-feedstock" xlink:title="certifi">
<ellipse fill="#fde725" stroke="black" cx="861.5" cy="-378" rx="32" ry="18"/>
<text text-anchor="middle" x="861.5" y="-374.3" font-family="Times,serif" font-size="14.00">certifi</text>
</a>
</g>
</g>
<!-- certifi&#45;&gt;conda&#45;build -->
<g id="edge9" class="edge">
<title>certifi&#45;&gt;conda&#45;build</title>
<path fill="none" stroke="black" d="M853.24,-360.56C834.85,-321.59 794.44,-221.08 824.5,-144 841.47,-100.49 881.45,-62.98 909.48,-40.69"/>
<polygon fill="black" stroke="black" points="911.65,-43.44 917.4,-34.55 907.35,-37.91 911.65,-43.44"/>
</g>
<!-- certifi&#45;&gt;conda -->
<g id="edge10" class="edge">
<title>certifi&#45;&gt;conda</title>
<path fill="none" stroke="black" d="M833.24,-369.5C772.34,-352.8 624.98,-309.44 510.5,-252 458.94,-226.13 429.72,-230.86 402.5,-180 392.33,-161.01 393.54,-136.3 396.74,-117.75"/>
<polygon fill="black" stroke="black" points="400.19,-118.37 398.73,-107.88 393.32,-116.99 400.19,-118.37"/>
</g>
<!-- setuptools -->
<g id="node10" class="node">
<title>setuptools</title>
<g id="a_node10"><a xlink:href="https://github.com/conda-forge/setuptools-feedstock" xlink:title="setuptools">
<ellipse fill="#fde725" stroke="black" cx="906.5" cy="-306" rx="46.29" ry="18"/>
<text text-anchor="middle" x="906.5" y="-302.3" font-family="Times,serif" font-size="14.00">setuptools</text>
</a>
</g>
</g>
<!-- certifi&#45;&gt;setuptools -->
<g id="edge11" class="edge">
<title>certifi&#45;&gt;setuptools</title>
<path fill="none" stroke="black" d="M871.94,-360.76C877.37,-352.32 884.13,-341.8 890.23,-332.31"/>
<polygon fill="black" stroke="black" points="893.34,-333.94 895.81,-323.63 887.46,-330.15 893.34,-333.94"/>
</g>
<!-- setuptools&#45;&gt;arrow&#45;cpp -->
<g id="edge12" class="edge">
<title>setuptools&#45;&gt;arrow&#45;cpp</title>
<path fill="none" stroke="black" d="M952.7,-304.26C1109.32,-301.44 1613.76,-289.47 1675.5,-252 1723.59,-222.81 1694.76,-175.3 1741.5,-144 1785.87,-114.29 1936.13,-100.01 2018.82,-94.25"/>
<polygon fill="black" stroke="black" points="2019.3,-97.73 2029.04,-93.56 2018.83,-90.74 2019.3,-97.73"/>
</g>
<!-- setuptools&#45;&gt;beautifulsoup4 -->
<g id="edge13" class="edge">
<title>setuptools&#45;&gt;beautifulsoup4</title>
<path fill="none" stroke="black" d="M938.38,-292.81C967.55,-281.65 1011.04,-265.01 1043.89,-252.45"/>
<polygon fill="black" stroke="black" points="1045.19,-255.7 1053.28,-248.85 1042.69,-249.16 1045.19,-255.7"/>
</g>
<!-- setuptools&#45;&gt;conda&#45;build -->
<g id="edge14" class="edge">
<title>setuptools&#45;&gt;conda&#45;build</title>
<path fill="none" stroke="black" d="M901.18,-287.99C896.23,-268.51 891.73,-236.62 907.5,-216 943.14,-169.4 999.12,-226.8 1034.5,-180 1063.45,-141.71 1058.81,-113.39 1034.5,-72 1024.16,-54.39 1005.6,-42.2 987.61,-33.99"/>
<polygon fill="black" stroke="black" points="988.88,-30.73 978.3,-30.05 986.15,-37.17 988.88,-30.73"/>
</g>
<!-- setuptools&#45;&gt;brotlipy -->
<g id="edge15" class="edge">
<title>setuptools&#45;&gt;brotlipy</title>
<path fill="none" stroke="black" d="M861.01,-302.96C741.64,-297.27 421.55,-279.82 319.5,-252 261.2,-236.11 198.8,-202.97 162.56,-181.92"/>
<polygon fill="black" stroke="black" points="164.33,-178.9 153.93,-176.85 160.78,-184.93 164.33,-178.9"/>
</g>
<!-- setuptools&#45;&gt;conda -->
<g id="edge16" class="edge">
<title>setuptools&#45;&gt;conda</title>
<path fill="none" stroke="black" d="M863.22,-299.5C806.08,-291.69 702.62,-275.66 616.5,-252 605.41,-248.96 430.02,-188.7 422.5,-180 407.85,-163.06 403.6,-137.59 402.72,-118.23"/>
<polygon fill="black" stroke="black" points="406.22,-118.14 402.54,-108.2 399.22,-118.26 406.22,-118.14"/>
</g>
<!-- chardet -->
<g id="node11" class="node">
<title>chardet</title>
<g id="a_node11"><a xlink:href="https://github.com/conda-forge/chardet-feedstock" xlink:title="chardet">
<ellipse fill="#fde725" stroke="black" cx="224.5" cy="-162" rx="36.5" ry="18"/>
<text text-anchor="middle" x="224.5" y="-158.3" font-family="Times,serif" font-size="14.00">chardet</text>
</a>
</g>
</g>
<!-- setuptools&#45;&gt;chardet -->
<g id="edge17" class="edge">
<title>setuptools&#45;&gt;chardet</title>
<path fill="none" stroke="black" d="M863.3,-299.53C799.11,-291.09 674.88,-273.61 570.5,-252 458.94,-228.91 329.35,-193.14 265.03,-174.77"/>
<polygon fill="black" stroke="black" points="265.86,-171.36 255.28,-171.97 263.93,-178.09 265.86,-171.36"/>
</g>
<!-- cython -->
<g id="node12" class="node">
<title>cython</title>
<g id="a_node12"><a xlink:href="https://github.com/conda-forge/cython-feedstock" xlink:title="cython">
<ellipse fill="#fde725" stroke="black" cx="1445.5" cy="-234" rx="34.5" ry="18"/>
<text text-anchor="middle" x="1445.5" y="-230.3" font-family="Times,serif" font-size="14.00">cython</text>
</a>
</g>
</g>
<!-- setuptools&#45;&gt;cython -->
<g id="edge18" class="edge">
<title>setuptools&#45;&gt;cython</title>
<path fill="none" stroke="black" d="M951.12,-301.15C1033.1,-293.79 1213.09,-276.26 1363.5,-252 1376.86,-249.84 1391.35,-247.01 1404.38,-244.27"/>
<polygon fill="black" stroke="black" points="1405.42,-247.63 1414.47,-242.11 1403.96,-240.78 1405.42,-247.63"/>
</g>
<!-- numpy -->
<g id="node13" class="node">
<title>numpy</title>
<g id="a_node13"><a xlink:href="https://github.com/conda-forge/numpy-feedstock" xlink:title="numpy">
<ellipse fill="#fde725" stroke="black" cx="1578.5" cy="-162" rx="36" ry="18"/>
<text text-anchor="middle" x="1578.5" y="-158.3" font-family="Times,serif" font-size="14.00">numpy</text>
</a>
</g>
</g>
<!-- setuptools&#45;&gt;numpy -->
<g id="edge19" class="edge">
<title>setuptools&#45;&gt;numpy</title>
<path fill="none" stroke="black" d="M952.71,-304.78C1073.08,-303.57 1393.51,-296.18 1488.5,-252 1519.15,-237.75 1545.46,-208.49 1561.58,-187.41"/>
<polygon fill="black" stroke="black" points="1564.5,-189.34 1567.64,-179.22 1558.88,-185.17 1564.5,-189.34"/>
</g>
<!-- pandas -->
<g id="node14" class="node">
<title>pandas</title>
<g id="a_node14"><a xlink:href="https://github.com/conda-forge/pandas-feedstock" xlink:title="pandas">
<ellipse fill="#fde725" stroke="black" cx="1470.5" cy="-90" rx="35.19" ry="18"/>
<text text-anchor="middle" x="1470.5" y="-86.3" font-family="Times,serif" font-size="14.00">pandas</text>
</a>
</g>
</g>
<!-- setuptools&#45;&gt;pandas -->
<g id="edge20" class="edge">
<title>setuptools&#45;&gt;pandas</title>
<path fill="none" stroke="black" d="M928.78,-289.95C943.54,-279.72 963.12,-265.61 979.5,-252 997.4,-237.13 997.24,-227.43 1017.5,-216 1154.59,-138.63 1342.37,-106.88 1426.55,-95.93"/>
<polygon fill="black" stroke="black" points="1427.05,-99.4 1436.53,-94.67 1426.17,-92.45 1427.05,-99.4"/>
</g>
<!-- ruamel_yaml -->
<g id="node15" class="node">
<title>ruamel_yaml</title>
<g id="a_node15"><a xlink:href="https://github.com/conda-forge/ruamel_yaml-feedstock" xlink:title="ruamel_yaml">
<ellipse fill="#fde725" stroke="black" cx="489.5" cy="-162" rx="58" ry="18"/>
<text text-anchor="middle" x="489.5" y="-158.3" font-family="Times,serif" font-size="14.00">ruamel_yaml</text>
</a>
</g>
</g>
<!-- setuptools&#45;&gt;ruamel_yaml -->
<g id="edge21" class="edge">
<title>setuptools&#45;&gt;ruamel_yaml</title>
<path fill="none" stroke="black" d="M868.04,-295.77C828.82,-286.04 766.38,-269.71 713.5,-252 648.81,-230.34 575.66,-200.17 531.07,-181.12"/>
<polygon fill="black" stroke="black" points="532.3,-177.83 521.73,-177.11 529.54,-184.27 532.3,-177.83"/>
</g>
<!-- conda&#45;package&#45;handling -->
<g id="node16" class="node">
<title>conda&#45;package&#45;handling</title>
<g id="a_node16"><a xlink:href="https://github.com/conda-forge/conda-package-handling-feedstock" xlink:title="conda package handling">
<ellipse fill="#fde725" stroke="black" cx="929.5" cy="-162" rx="96.38" ry="18"/>
<text text-anchor="middle" x="929.5" y="-158.3" font-family="Times,serif" font-size="14.00">conda package handling</text>
</a>
</g>
</g>
<!-- setuptools&#45;&gt;conda&#45;package&#45;handling -->
<g id="edge22" class="edge">
<title>setuptools&#45;&gt;conda&#45;package&#45;handling</title>
<path fill="none" stroke="black" d="M893.23,-288.71C880.26,-270.7 863.9,-240.93 874.5,-216 879.36,-204.56 888.04,-194.39 897.09,-186.1"/>
<polygon fill="black" stroke="black" points="899.38,-188.74 904.7,-179.58 894.82,-183.43 899.38,-188.74"/>
</g>
<!-- markupsafe -->
<g id="node17" class="node">
<title>markupsafe</title>
<g id="a_node17"><a xlink:href="https://github.com/conda-forge/markupsafe-feedstock" xlink:title="markupsafe">
<ellipse fill="#fde725" stroke="black" cx="1222.5" cy="-234" rx="52" ry="18"/>
<text text-anchor="middle" x="1222.5" y="-230.3" font-family="Times,serif" font-size="14.00">markupsafe</text>
</a>
</g>
</g>
<!-- setuptools&#45;&gt;markupsafe -->
<g id="edge23" class="edge">
<title>setuptools&#45;&gt;markupsafe</title>
<path fill="none" stroke="black" d="M947.32,-297.39C997.83,-287.77 1086.37,-270.26 1161.5,-252 1165.59,-251.01 1169.81,-249.93 1174.05,-248.82"/>
<polygon fill="black" stroke="black" points="1175.13,-252.15 1183.88,-246.18 1173.31,-245.39 1175.13,-252.15"/>
</g>
<!-- psutil -->
<g id="node18" class="node">
<title>psutil</title>
<g id="a_node18"><a xlink:href="https://github.com/conda-forge/psutil-feedstock" xlink:title="psutil">
<ellipse fill="#fde725" stroke="black" cx="1323.5" cy="-234" rx="30.59" ry="18"/>
<text text-anchor="middle" x="1323.5" y="-230.3" font-family="Times,serif" font-size="14.00">psutil</text>
</a>
</g>
</g>
<!-- setuptools&#45;&gt;psutil -->
<g id="edge24" class="edge">
<title>setuptools&#45;&gt;psutil</title>
<path fill="none" stroke="black" d="M951.97,-302.46C1023.6,-297.61 1166.63,-284.44 1283.5,-252 1285.98,-251.31 1288.51,-250.5 1291.03,-249.62"/>
<polygon fill="black" stroke="black" points="1292.52,-252.8 1300.6,-245.94 1290.01,-246.27 1292.52,-252.8"/>
</g>
<!-- pycosat -->
<g id="node19" class="node">
<title>pycosat</title>
<g id="a_node19"><a xlink:href="https://github.com/conda-forge/pycosat-feedstock" xlink:title="pycosat">
<ellipse fill="#fde725" stroke="black" cx="366.5" cy="-234" rx="37.89" ry="18"/>
<text text-anchor="middle" x="366.5" y="-230.3" font-family="Times,serif" font-size="14.00">pycosat</text>
</a>
</g>
</g>
<!-- setuptools&#45;&gt;pycosat -->
<g id="edge25" class="edge">
<title>setuptools&#45;&gt;pycosat</title>
<path fill="none" stroke="black" d="M863.19,-299.49C788.11,-289.92 628.94,-269.57 494.5,-252 467.27,-248.44 436.79,-244.39 412.41,-241.14"/>
<polygon fill="black" stroke="black" points="412.73,-237.66 402.36,-239.8 411.81,-244.59 412.73,-237.66"/>
</g>
<!-- pysocks -->
<g id="node20" class="node">
<title>pysocks</title>
<g id="a_node20"><a xlink:href="https://github.com/conda-forge/pysocks-feedstock" xlink:title="pysocks">
<ellipse fill="#fde725" stroke="black" cx="604.5" cy="-162" rx="39" ry="18"/>
<text text-anchor="middle" x="604.5" y="-158.3" font-family="Times,serif" font-size="14.00">pysocks</text>
</a>
</g>
</g>
<!-- setuptools&#45;&gt;pysocks -->
<g id="edge26" class="edge">
<title>setuptools&#45;&gt;pysocks</title>
<path fill="none" stroke="black" d="M876.54,-291.99C852.4,-281.43 817.64,-266.04 787.5,-252 735.61,-227.84 676.1,-198.61 639.4,-180.41"/>
<polygon fill="black" stroke="black" points="640.64,-177.12 630.13,-175.8 637.53,-183.39 640.64,-177.12"/>
</g>
<!-- python&#45;libarchive&#45;c -->
<g id="node21" class="node">
<title>python&#45;libarchive&#45;c</title>
<g id="a_node21"><a xlink:href="https://github.com/conda-forge/python-libarchive-c-feedstock" xlink:title="python libarchive c">
<ellipse fill="#fde725" stroke="black" cx="79.5" cy="-234" rx="79.5" ry="18"/>
<text text-anchor="middle" x="79.5" y="-230.3" font-family="Times,serif" font-size="14.00">python libarchive c</text>
</a>
</g>
</g>
<!-- setuptools&#45;&gt;python&#45;libarchive&#45;c -->
<g id="edge27" class="edge">
<title>setuptools&#45;&gt;python&#45;libarchive&#45;c</title>
<path fill="none" stroke="black" d="M861.74,-301.21C728.95,-289.97 335.68,-256.68 162.72,-242.04"/>
<polygon fill="black" stroke="black" points="162.91,-238.55 152.65,-241.19 162.32,-245.52 162.91,-238.55"/>
</g>
<!-- llvmdev -->
<g id="node22" class="node">
<title>llvmdev</title>
<g id="a_node22"><a xlink:href="https://github.com/conda-forge/llvmdev-feedstock" xlink:title="llvmdev">
<ellipse fill="#fde725" stroke="black" cx="1801.5" cy="-234" rx="40.5" ry="18"/>
<text text-anchor="middle" x="1801.5" y="-230.3" font-family="Times,serif" font-size="14.00">llvmdev</text>
</a>
</g>
</g>
<!-- setuptools&#45;&gt;llvmdev -->
<g id="edge28" class="edge">
<title>setuptools&#45;&gt;llvmdev</title>
<path fill="none" stroke="black" d="M952.34,-303.81C1075.24,-300.23 1422.2,-287.51 1708.5,-252 1723.85,-250.1 1740.51,-247.29 1755.42,-244.5"/>
<polygon fill="black" stroke="black" points="1756.27,-247.91 1765.43,-242.59 1754.95,-241.03 1756.27,-247.91"/>
</g>
<!-- cryptography -->
<g id="node23" class="node">
<title>cryptography</title>
<g id="a_node23"><a xlink:href="https://github.com/conda-forge/cryptography-feedstock" xlink:title="cryptography">
<ellipse fill="#fde725" stroke="black" cx="719.5" cy="-162" rx="58" ry="18"/>
<text text-anchor="middle" x="719.5" y="-158.3" font-family="Times,serif" font-size="14.00">cryptography</text>
</a>
</g>
</g>
<!-- setuptools&#45;&gt;cryptography -->
<g id="edge29" class="edge">
<title>setuptools&#45;&gt;cryptography</title>
<path fill="none" stroke="black" d="M886.13,-289.53C852.87,-264.27 786.76,-214.08 748.57,-185.08"/>
<polygon fill="black" stroke="black" points="750.49,-182.14 740.41,-178.88 746.26,-187.72 750.49,-182.14"/>
</g>
<!-- lief -->
<g id="node24" class="node">
<title>lief</title>
<g id="a_node24"><a xlink:href="https://github.com/conda-forge/lief-feedstock" xlink:title="lief">
<ellipse fill="#fde725" stroke="black" cx="943.5" cy="-234" rx="27" ry="18"/>
<text text-anchor="middle" x="943.5" y="-230.3" font-family="Times,serif" font-size="14.00">lief</text>
</a>
</g>
</g>
<!-- setuptools&#45;&gt;lief -->
<g id="edge30" class="edge">
<title>setuptools&#45;&gt;lief</title>
<path fill="none" stroke="black" d="M915.46,-288.05C919.84,-279.77 925.2,-269.62 930.06,-260.42"/>
<polygon fill="black" stroke="black" points="933.3,-261.78 934.88,-251.31 927.11,-258.51 933.3,-261.78"/>
</g>
<!-- chardet&#45;&gt;conda&#45;build -->
<g id="edge31" class="edge">
<title>chardet&#45;&gt;conda&#45;build</title>
<path fill="none" stroke="black" d="M241.77,-145.86C266.55,-125.11 314.53,-88.55 362.5,-72 456.48,-39.58 749.28,-25.63 877.88,-20.95"/>
<polygon fill="black" stroke="black" points="878.09,-24.45 887.96,-20.59 877.84,-17.45 878.09,-24.45"/>
</g>
<!-- chardet&#45;&gt;conda -->
<g id="edge32" class="edge">
<title>chardet&#45;&gt;conda</title>
<path fill="none" stroke="black" d="M252.47,-150.06C283.79,-137.81 334.6,-117.94 368.53,-104.68"/>
<polygon fill="black" stroke="black" points="370.01,-107.86 378.04,-100.95 367.46,-101.34 370.01,-107.86"/>
</g>
<!-- cython&#45;&gt;arrow&#45;cpp -->
<g id="edge33" class="edge">
<title>cython&#45;&gt;arrow&#45;cpp</title>
<path fill="none" stroke="black" d="M1456.04,-216.82C1470.65,-195.93 1499.17,-160.35 1533.5,-144 1618.16,-103.69 1897.34,-94.03 2018.06,-91.72"/>
<polygon fill="black" stroke="black" points="2018.27,-95.22 2028.2,-91.54 2018.14,-88.22 2018.27,-95.22"/>
</g>
<!-- cython&#45;&gt;numpy -->
<g id="edge34" class="edge">
<title>cython&#45;&gt;numpy</title>
<path fill="none" stroke="black" d="M1468.97,-220.65C1490.17,-209.49 1521.59,-192.95 1545.35,-180.45"/>
<polygon fill="black" stroke="black" points="1547.15,-183.46 1554.37,-175.7 1543.89,-177.26 1547.15,-183.46"/>
</g>
<!-- cython&#45;&gt;pandas -->
<g id="edge35" class="edge">
<title>cython&#45;&gt;pandas</title>
<path fill="none" stroke="black" d="M1446.93,-215.83C1448.59,-197.83 1451.72,-168.76 1456.5,-144 1458.15,-135.46 1460.4,-126.26 1462.62,-117.96"/>
<polygon fill="black" stroke="black" points="1466.07,-118.62 1465.37,-108.05 1459.33,-116.75 1466.07,-118.62"/>
</g>
<!-- cython&#45;&gt;ruamel_yaml -->
<g id="edge37" class="edge">
<title>cython&#45;&gt;ruamel_yaml</title>
<path fill="none" stroke="black" d="M1414.93,-225.45C1399.59,-221.97 1380.67,-218.15 1363.5,-216 1007.26,-171.42 911.68,-232.42 556.5,-180 551.36,-179.24 546.05,-178.25 540.76,-177.14"/>
<polygon fill="black" stroke="black" points="541.22,-173.65 530.69,-174.85 539.67,-180.48 541.22,-173.65"/>
</g>
<!-- cython&#45;&gt;conda&#45;package&#45;handling -->
<g id="edge38" class="edge">
<title>cython&#45;&gt;conda&#45;package&#45;handling</title>
<path fill="none" stroke="black" d="M1414.46,-225.93C1399.17,-222.61 1380.43,-218.78 1363.5,-216 1246.48,-196.76 1110.66,-181.26 1022.56,-172.11"/>
<polygon fill="black" stroke="black" points="1022.89,-168.62 1012.59,-171.08 1022.18,-175.59 1022.89,-168.62"/>
</g>
<!-- pyyaml -->
<g id="node25" class="node">
<title>pyyaml</title>
<g id="a_node25"><a xlink:href="https://github.com/conda-forge/pyyaml-feedstock" xlink:title="pyyaml">
<ellipse fill="#fde725" stroke="black" cx="1366.5" cy="-162" rx="37.89" ry="18"/>
<text text-anchor="middle" x="1366.5" y="-158.3" font-family="Times,serif" font-size="14.00">pyyaml</text>
</a>
</g>
</g>
<!-- cython&#45;&gt;pyyaml -->
<g id="edge36" class="edge">
<title>cython&#45;&gt;pyyaml</title>
<path fill="none" stroke="black" d="M1428.75,-218.15C1417.9,-208.54 1403.58,-195.85 1391.4,-185.07"/>
<polygon fill="black" stroke="black" points="1393.58,-182.32 1383.78,-178.31 1388.94,-187.56 1393.58,-182.32"/>
</g>
<!-- numpy&#45;&gt;arrow&#45;cpp -->
<g id="edge39" class="edge">
<title>numpy&#45;&gt;arrow&#45;cpp</title>
<path fill="none" stroke="black" d="M1611.99,-155.15C1631.88,-151.74 1657.6,-147.45 1680.5,-144 1802.07,-125.7 1945.21,-107.21 2021.05,-97.65"/>
<polygon fill="black" stroke="black" points="2021.81,-101.08 2031.29,-96.36 2020.94,-94.14 2021.81,-101.08"/>
</g>
<!-- numpy&#45;&gt;pandas -->
<g id="edge40" class="edge">
<title>numpy&#45;&gt;pandas</title>
<path fill="none" stroke="black" d="M1557.42,-147.34C1541.07,-136.74 1518.2,-121.92 1500.02,-110.14"/>
<polygon fill="black" stroke="black" points="1501.82,-107.13 1491.53,-104.63 1498.01,-113 1501.82,-107.13"/>
</g>
<!-- ruamel_yaml&#45;&gt;conda -->
<g id="edge42" class="edge">
<title>ruamel_yaml&#45;&gt;conda</title>
<path fill="none" stroke="black" d="M469.55,-144.76C457.51,-134.96 442.03,-122.36 429.09,-111.83"/>
<polygon fill="black" stroke="black" points="430.97,-108.85 421.01,-105.25 426.55,-114.28 430.97,-108.85"/>
</g>
<!-- conda&#45;package&#45;handling&#45;&gt;conda&#45;build -->
<g id="edge43" class="edge">
<title>conda&#45;package&#45;handling&#45;&gt;conda&#45;build</title>
<path fill="none" stroke="black" d="M925.01,-143.84C920.94,-125.84 916.19,-96.79 920.5,-72 922.02,-63.24 924.86,-54.01 927.89,-45.75"/>
<polygon fill="black" stroke="black" points="931.22,-46.84 931.61,-36.25 924.71,-44.29 931.22,-46.84"/>
</g>
<!-- conda&#45;package&#45;handling&#45;&gt;conda -->
<g id="edge44" class="edge">
<title>conda&#45;package&#45;handling&#45;&gt;conda</title>
<path fill="none" stroke="black" d="M853.58,-150.9C740.67,-135.87 532.38,-108.15 444.41,-96.44"/>
<polygon fill="black" stroke="black" points="444.67,-92.95 434.3,-95.1 443.75,-99.89 444.67,-92.95"/>
</g>
<!-- markupsafe&#45;&gt;conda&#45;build -->
<g id="edge49" class="edge">
<title>markupsafe&#45;&gt;conda&#45;build</title>
<path fill="none" stroke="black" d="M1215.58,-216.09C1201.29,-183.31 1165.4,-110.92 1112.5,-72 1078.85,-47.24 1033.47,-33.9 997.63,-26.8"/>
<polygon fill="black" stroke="black" points="998.27,-23.36 987.79,-24.96 996.98,-30.24 998.27,-23.36"/>
</g>
<!-- psutil&#45;&gt;conda&#45;build -->
<g id="edge50" class="edge">
<title>psutil&#45;&gt;conda&#45;build</title>
<path fill="none" stroke="black" d="M1310.92,-217.49C1283.94,-185.29 1217.05,-110.95 1144.5,-72 1098.48,-47.29 1040.38,-33.68 997.79,-26.46"/>
<polygon fill="black" stroke="black" points="998.3,-23 987.87,-24.85 997.17,-29.91 998.3,-23"/>
</g>
<!-- pycosat&#45;&gt;conda -->
<g id="edge51" class="edge">
<title>pycosat&#45;&gt;conda</title>
<path fill="none" stroke="black" d="M358.45,-216.33C350.78,-197.99 341.72,-167.93 351.5,-144 356.69,-131.29 366.57,-119.98 376.33,-111.11"/>
<polygon fill="black" stroke="black" points="378.7,-113.68 384.04,-104.53 374.16,-108.36 378.7,-113.68"/>
</g>
<!-- pysocks&#45;&gt;conda&#45;build -->
<g id="edge52" class="edge">
<title>pysocks&#45;&gt;conda&#45;build</title>
<path fill="none" stroke="black" d="M624.64,-146.5C652.28,-127.18 704.08,-92.98 752.5,-72 795.85,-53.22 847.7,-39.13 885.8,-30.22"/>
<polygon fill="black" stroke="black" points="886.71,-33.6 895.67,-27.95 885.14,-26.78 886.71,-33.6"/>
</g>
<!-- pysocks&#45;&gt;conda -->
<g id="edge53" class="edge">
<title>pysocks&#45;&gt;conda</title>
<path fill="none" stroke="black" d="M574.55,-150.36C568.58,-148.24 562.34,-146.05 556.5,-144 516.52,-130 470.59,-114.11 439.57,-103.42"/>
<polygon fill="black" stroke="black" points="440.65,-100.09 430.05,-100.14 438.37,-106.7 440.65,-100.09"/>
</g>
<!-- python&#45;libarchive&#45;c&#45;&gt;conda&#45;build -->
<g id="edge54" class="edge">
<title>python&#45;libarchive&#45;c&#45;&gt;conda&#45;build</title>
<path fill="none" stroke="black" d="M75.66,-215.85C72.38,-196.81 70.08,-165.89 83.5,-144 117.41,-88.68 148.4,-90.81 210.5,-72 334.56,-34.42 724.91,-23.06 877.5,-20.01"/>
<polygon fill="black" stroke="black" points="877.71,-23.51 887.64,-19.82 877.57,-16.51 877.71,-23.51"/>
</g>
<!-- llvmdev&#45;&gt;arrow&#45;cpp -->
<g id="edge55" class="edge">
<title>llvmdev&#45;&gt;arrow&#45;cpp</title>
<path fill="none" stroke="black" d="M1782.51,-218.05C1761.12,-199.42 1731.77,-167.23 1751.5,-144 1785.09,-104.45 1935.15,-94.35 2018.39,-91.82"/>
<polygon fill="black" stroke="black" points="2018.55,-95.32 2028.45,-91.54 2018.36,-88.32 2018.55,-95.32"/>
</g>
<!-- clangdev -->
<g id="node29" class="node">
<title>clangdev</title>
<g id="a_node29"><a xlink:href="https://github.com/conda-forge/clangdev-feedstock" xlink:title="clangdev">
<ellipse fill="#fde725" stroke="black" cx="1904.5" cy="-162" rx="42.49" ry="18"/>
<text text-anchor="middle" x="1904.5" y="-158.3" font-family="Times,serif" font-size="14.00">clangdev</text>
</a>
</g>
</g>
<!-- llvmdev&#45;&gt;clangdev -->
<g id="edge56" class="edge">
<title>llvmdev&#45;&gt;clangdev</title>
<path fill="none" stroke="black" d="M1822.84,-218.5C1837.79,-208.33 1857.98,-194.61 1874.55,-183.36"/>
<polygon fill="black" stroke="black" points="1876.53,-186.24 1882.83,-177.73 1872.59,-180.45 1876.53,-186.24"/>
</g>
<!-- cryptography&#45;&gt;conda&#45;build -->
<g id="edge57" class="edge">
<title>cryptography&#45;&gt;conda&#45;build</title>
<path fill="none" stroke="black" d="M729.09,-144.24C741.24,-124.39 763.95,-91.56 791.5,-72 819.79,-51.92 856.48,-38.71 886.26,-30.5"/>
<polygon fill="black" stroke="black" points="887.29,-33.85 896.06,-27.91 885.5,-27.08 887.29,-33.85"/>
</g>
<!-- cryptography&#45;&gt;conda -->
<g id="edge58" class="edge">
<title>cryptography&#45;&gt;conda</title>
<path fill="none" stroke="black" d="M676.31,-149.78C668.4,-147.8 660.21,-145.8 652.5,-144 578.76,-126.8 492.21,-108.89 443.01,-98.92"/>
<polygon fill="black" stroke="black" points="443.59,-95.46 433.1,-96.91 442.2,-102.33 443.59,-95.46"/>
</g>
<!-- lief&#45;&gt;conda&#45;build -->
<g id="edge59" class="edge">
<title>lief&#45;&gt;conda&#45;build</title>
<path fill="none" stroke="black" d="M965.79,-223.65C1001.28,-208.75 1066.75,-181.14 1067.5,-180 1093.94,-139.94 1094.17,-111.91 1067.5,-72 1051.68,-48.33 1023.12,-35.22 996.99,-27.96"/>
<polygon fill="black" stroke="black" points="997.68,-24.52 987.12,-25.45 995.95,-31.31 997.68,-24.52"/>
</g>
<!-- pyyaml&#45;&gt;conda&#45;build -->
<g id="edge41" class="edge">
<title>pyyaml&#45;&gt;conda&#45;build</title>
<path fill="none" stroke="black" d="M1357.4,-144.38C1345.13,-123.71 1321.23,-89.07 1290.5,-72 1241.85,-44.98 1087.15,-29.71 1000.25,-23.05"/>
<polygon fill="black" stroke="black" points="1000.49,-19.56 990.26,-22.3 999.97,-26.54 1000.49,-19.56"/>
</g>
<!-- gflags -->
<g id="node26" class="node">
<title>gflags</title>
<g id="a_node26"><a xlink:href="https://github.com/conda-forge/gflags-feedstock/pull/24" xlink:title="gflags ✓">
<ellipse fill="#31688e" stroke="black" cx="2466.5" cy="-234" rx="42.49" ry="18"/>
<text text-anchor="middle" x="2466.5" y="-230.3" font-family="Times,serif" font-size="14.00" fill="white">gflags ✓</text>
</a>
</g>
</g>
<!-- gflags&#45;&gt;arrow&#45;cpp -->
<g id="edge45" class="edge">
<title>gflags&#45;&gt;arrow&#45;cpp</title>
<path fill="none" stroke="black" d="M2458.61,-216.1C2448.02,-195.47 2427.18,-161.2 2398.5,-144 2354.18,-117.42 2210.05,-101.9 2129.77,-95.11"/>
<polygon fill="black" stroke="black" points="2129.61,-91.58 2119.35,-94.25 2129.03,-98.56 2129.61,-91.58"/>
</g>
<!-- glog -->
<g id="node27" class="node">
<title>glog</title>
<g id="a_node27"><a xlink:href="https://github.com/conda-forge/glog-feedstock" xlink:title="glog">
<ellipse fill="#fde725" stroke="black" cx="2477.5" cy="-162" rx="27" ry="18"/>
<text text-anchor="middle" x="2477.5" y="-158.3" font-family="Times,serif" font-size="14.00">glog</text>
</a>
</g>
</g>
<!-- gflags&#45;&gt;glog -->
<g id="edge46" class="edge">
<title>gflags&#45;&gt;glog</title>
<path fill="none" stroke="black" d="M2469.22,-215.7C2470.43,-207.98 2471.89,-198.71 2473.24,-190.11"/>
<polygon fill="black" stroke="black" points="2476.72,-190.53 2474.81,-180.1 2469.8,-189.44 2476.72,-190.53"/>
</g>
<!-- glog&#45;&gt;arrow&#45;cpp -->
<g id="edge47" class="edge">
<title>glog&#45;&gt;arrow&#45;cpp</title>
<path fill="none" stroke="black" d="M2456.15,-150.98C2449.92,-148.38 2443.04,-145.8 2436.5,-144 2330.14,-114.65 2201.45,-100.73 2129.7,-94.81"/>
<polygon fill="black" stroke="black" points="2129.78,-91.31 2119.54,-94 2129.22,-98.28 2129.78,-91.31"/>
</g>
<!-- libevent -->
<g id="node28" class="node">
<title>libevent</title>
<g id="a_node28"><a xlink:href="https://github.com/conda-forge/libevent-feedstock/pull/19" xlink:title="libevent ❎">
<ellipse fill="#31688e" stroke="black" cx="2136.5" cy="-234" rx="50.89" ry="18"/>
<text text-anchor="middle" x="2136.5" y="-230.3" font-family="Times,serif" font-size="14.00" fill="white">libevent ❎</text>
</a>
</g>
</g>
<!-- libevent&#45;&gt;thrift&#45;cpp -->
<g id="edge48" class="edge">
<title>libevent&#45;&gt;thrift&#45;cpp</title>
<path fill="none" stroke="black" d="M2136.5,-215.7C2136.5,-207.98 2136.5,-198.71 2136.5,-190.11"/>
<polygon fill="black" stroke="black" points="2140,-190.1 2136.5,-180.1 2133,-190.1 2140,-190.1"/>
</g>
<!-- clangdev&#45;&gt;arrow&#45;cpp -->
<g id="edge63" class="edge">
<title>clangdev&#45;&gt;arrow&#45;cpp</title>
<path fill="none" stroke="black" d="M1933.72,-148.97C1961.48,-137.54 2003.44,-120.26 2034.33,-107.54"/>
<polygon fill="black" stroke="black" points="2036.02,-110.63 2043.94,-103.58 2033.36,-104.16 2036.02,-110.63"/>
</g>
<!-- snappy -->
<g id="node30" class="node">
<title>snappy</title>
<g id="a_node30"><a xlink:href="https://github.com/conda-forge/snappy-feedstock/pull/27" xlink:title="snappy ❎">
<ellipse fill="#31688e" stroke="black" cx="2589.5" cy="-234" rx="47.5" ry="18"/>
<text text-anchor="middle" x="2589.5" y="-230.3" font-family="Times,serif" font-size="14.00" fill="white">snappy ❎</text>
</a>
</g>
</g>
<!-- snappy&#45;&gt;arrow&#45;cpp -->
<g id="edge60" class="edge">
<title>snappy&#45;&gt;arrow&#45;cpp</title>
<path fill="none" stroke="black" d="M2594.56,-216.09C2599.39,-196.1 2603.54,-163.13 2585.5,-144 2554.73,-111.38 2256.98,-97.3 2130.68,-92.77"/>
<polygon fill="black" stroke="black" points="2130.57,-89.26 2120.45,-92.41 2130.32,-96.26 2130.57,-89.26"/>
</g>
<!-- orc -->
<g id="node31" class="node">
<title>orc</title>
<g id="a_node31"><a xlink:href="https://github.com/conda-forge/orc-feedstock" xlink:title="orc">
<ellipse fill="#fde725" stroke="black" cx="2549.5" cy="-162" rx="27" ry="18"/>
<text text-anchor="middle" x="2549.5" y="-158.3" font-family="Times,serif" font-size="14.00">orc</text>
</a>
</g>
</g>
<!-- snappy&#45;&gt;orc -->
<g id="edge61" class="edge">
<title>snappy&#45;&gt;orc</title>
<path fill="none" stroke="black" d="M2579.82,-216.05C2575.03,-207.68 2569.16,-197.4 2563.86,-188.13"/>
<polygon fill="black" stroke="black" points="2566.82,-186.25 2558.82,-179.31 2560.74,-189.73 2566.82,-186.25"/>
</g>
<!-- orc&#45;&gt;arrow&#45;cpp -->
<g id="edge62" class="edge">
<title>orc&#45;&gt;arrow&#45;cpp</title>
<path fill="none" stroke="black" d="M2529,-149.94C2524.05,-147.65 2518.68,-145.49 2513.5,-144 2379.84,-105.47 2215.47,-94.93 2130.81,-92.06"/>
<polygon fill="black" stroke="black" points="2130.75,-88.56 2120.64,-91.74 2130.53,-95.55 2130.75,-88.56"/>
</g>
<!-- aws&#45;sdk&#45;cpp -->
<g id="node32" class="node">
<title>aws&#45;sdk&#45;cpp</title>
<g id="a_node32"><a xlink:href="https://github.com/conda-forge/aws-sdk-cpp-feedstock/pull/126" xlink:title="aws sdk cpp ❎">
<ellipse fill="#31688e" stroke="black" cx="2002.5" cy="-234" rx="65.79" ry="18"/>
<text text-anchor="middle" x="2002.5" y="-230.3" font-family="Times,serif" font-size="14.00" fill="white">aws sdk cpp ❎</text>
</a>
</g>
</g>
<!-- aws&#45;sdk&#45;cpp&#45;&gt;arrow&#45;cpp -->
<g id="edge64" class="edge">
<title>aws&#45;sdk&#45;cpp&#45;&gt;arrow&#45;cpp</title>
<path fill="none" stroke="black" d="M2011.18,-215.87C2023.69,-191.22 2046.85,-145.54 2061.42,-116.79"/>
<polygon fill="black" stroke="black" points="2064.61,-118.25 2066.01,-107.75 2058.36,-115.08 2064.61,-118.25"/>
</g>
<!-- blas -->
<g id="node33" class="node">
<title>blas</title>
<g id="a_node33"><a xlink:href="https://github.com/conda-forge/blas-feedstock" xlink:title="blas">
<ellipse fill="#fde725" stroke="black" cx="1639.5" cy="-234" rx="27" ry="18"/>
<text text-anchor="middle" x="1639.5" y="-230.3" font-family="Times,serif" font-size="14.00">blas</text>
</a>
</g>
</g>
<!-- blas&#45;&gt;numpy -->
<g id="edge65" class="edge">
<title>blas&#45;&gt;numpy</title>
<path fill="none" stroke="black" d="M1626.56,-218.15C1618.54,-208.94 1608.05,-196.91 1598.92,-186.43"/>
<polygon fill="black" stroke="black" points="1601.47,-184.04 1592.27,-178.8 1596.2,-188.64 1601.47,-184.04"/>
</g>
<!-- blis -->
<g id="node34" class="node">
<title>blis</title>
<g id="a_node34"><a xlink:href="https://github.com/conda-forge/blis-feedstock/pull/18" xlink:title="blis ❎">
<ellipse fill="#31688e" stroke="black" cx="1647.5" cy="-306" rx="35.19" ry="18"/>
<text text-anchor="middle" x="1647.5" y="-302.3" font-family="Times,serif" font-size="14.00" fill="white">blis ❎</text>
</a>
</g>
</g>
<!-- blis&#45;&gt;blas -->
<g id="edge66" class="edge">
<title>blis&#45;&gt;blas</title>
<path fill="none" stroke="black" d="M1645.52,-287.7C1644.64,-279.98 1643.58,-270.71 1642.6,-262.11"/>
<polygon fill="black" stroke="black" points="1646.07,-261.64 1641.45,-252.1 1639.11,-262.44 1646.07,-261.64"/>
</g>
<!-- libutf8proc -->
<g id="node35" class="node">
<title>libutf8proc</title>
<g id="a_node35"><a xlink:href="https://github.com/conda-forge/libutf8proc-feedstock/pull/11" xlink:title="libutf8proc ❎">
<ellipse fill="#31688e" stroke="black" cx="2294.5" cy="-306" rx="61.99" ry="18"/>
<text text-anchor="middle" x="2294.5" y="-302.3" font-family="Times,serif" font-size="14.00" fill="white">libutf8proc ❎</text>
</a>
</g>
</g>
<!-- libutf8proc&#45;&gt;arrow&#45;cpp -->
<g id="edge67" class="edge">
<title>libutf8proc&#45;&gt;arrow&#45;cpp</title>
<path fill="none" stroke="black" d="M2308.87,-288.37C2322.84,-270.06 2340.23,-240.03 2327.5,-216 2288.4,-142.18 2189.15,-111.24 2127.22,-98.81"/>
<polygon fill="black" stroke="black" points="2127.72,-95.34 2117.24,-96.9 2126.41,-102.22 2127.72,-95.34"/>
</g>
<!-- grpc&#45;cpp -->
<g id="node36" class="node">
<title>grpc&#45;cpp</title>
<g id="a_node36"><a xlink:href="https://github.com/conda-forge/grpc-cpp-feedstock" xlink:title="grpc cpp">
<ellipse fill="#35b779" stroke="black" cx="2384.5" cy="-378" rx="41.69" ry="18"/>
<text text-anchor="middle" x="2384.5" y="-374.3" font-family="Times,serif" font-size="14.00">grpc cpp</text>
</a>
</g>
</g>
<!-- grpc&#45;cpp&#45;&gt;arrow&#45;cpp -->
<g id="edge68" class="edge">
<title>grpc&#45;cpp&#45;&gt;arrow&#45;cpp</title>
<path fill="none" stroke="black" d="M2383.87,-359.85C2381.18,-314.98 2367.03,-194.11 2292.5,-144 2243.87,-111.3 2177.1,-98.73 2130.31,-93.92"/>
<polygon fill="black" stroke="black" points="2130.63,-90.44 2120.35,-92.99 2129.97,-97.41 2130.63,-90.44"/>
</g>
<!-- pypy3.6 -->
<g id="node37" class="node">
<title>pypy3.6</title>
<g id="a_node37"><a xlink:href="https://github.com/conda-forge/pypy3.6-feedstock/pull/25" xlink:title="pypy3 6 ❎">
<ellipse fill="#31688e" stroke="black" cx="980.5" cy="-522" rx="51.5" ry="18"/>
<text text-anchor="middle" x="980.5" y="-518.3" font-family="Times,serif" font-size="14.00" fill="white">pypy3 6 ❎</text>
</a>
</g>
</g>
<!-- pypy&#45;meta -->
<g id="node38" class="node">
<title>pypy&#45;meta</title>
<g id="a_node38"><a xlink:href="https://github.com/conda-forge/pypy-meta-feedstock" xlink:title="pypy meta">
<ellipse fill="#fde725" stroke="black" cx="980.5" cy="-450" rx="48.19" ry="18"/>
<text text-anchor="middle" x="980.5" y="-446.3" font-family="Times,serif" font-size="14.00">pypy meta</text>
</a>
</g>
</g>
<!-- pypy3.6&#45;&gt;pypy&#45;meta -->
<g id="edge69" class="edge">
<title>pypy3.6&#45;&gt;pypy&#45;meta</title>
<path fill="none" stroke="black" d="M980.5,-503.7C980.5,-495.98 980.5,-486.71 980.5,-478.11"/>
<polygon fill="black" stroke="black" points="984,-478.1 980.5,-468.1 977,-478.1 984,-478.1"/>
</g>
<!-- pypy&#45;meta&#45;&gt;arrow&#45;cpp -->
<g id="edge70" class="edge">
<title>pypy&#45;meta&#45;&gt;arrow&#45;cpp</title>
<path fill="none" stroke="black" d="M1028.37,-448.15C1194.53,-444.92 1740.01,-431.66 1809.5,-396 1894.61,-352.33 1867.12,-290.2 1927.5,-216 1961.9,-173.72 2011.95,-134.69 2043.87,-111.86"/>
<polygon fill="black" stroke="black" points="2046.21,-114.49 2052.36,-105.86 2042.17,-108.77 2046.21,-114.49"/>
</g>
<!-- pypy&#45;meta&#45;&gt;beautifulsoup4 -->
<g id="edge71" class="edge">
<title>pypy&#45;meta&#45;&gt;beautifulsoup4</title>
<path fill="none" stroke="black" d="M989.05,-432.21C1007.99,-395.03 1053.57,-305.55 1076.24,-261.04"/>
<polygon fill="black" stroke="black" points="1079.42,-262.51 1080.84,-252.01 1073.18,-259.33 1079.42,-262.51"/>
</g>
<!-- pypy&#45;meta&#45;&gt;conda&#45;build -->
<g id="edge72" class="edge">
<title>pypy&#45;meta&#45;&gt;conda&#45;build</title>
<path fill="none" stroke="black" d="M1028.23,-446.91C1147.06,-441.33 1453.65,-424.54 1551.5,-396 1618.67,-376.41 1655.05,-383.73 1691.5,-324 1699.83,-310.34 1693.25,-303.9 1691.5,-288 1677.96,-164.63 1631.6,-113.14 1514.5,-72 1421.14,-39.2 1129.86,-25.47 1001.41,-20.9"/>
<polygon fill="black" stroke="black" points="1001.46,-17.4 991.34,-20.55 1001.21,-24.4 1001.46,-17.4"/>
</g>
<!-- pypy&#45;meta&#45;&gt;brotlipy -->
<g id="edge73" class="edge">
<title>pypy&#45;meta&#45;&gt;brotlipy</title>
<path fill="none" stroke="black" d="M932.32,-448.77C774.03,-447.58 276.92,-440.32 221.5,-396 156.27,-343.84 203.38,-291.42 167.5,-216 162.84,-206.21 156.51,-196.19 150.45,-187.53"/>
<polygon fill="black" stroke="black" points="153.26,-185.44 144.56,-179.39 147.59,-189.54 153.26,-185.44"/>
</g>
<!-- pypy&#45;meta&#45;&gt;conda -->
<g id="edge74" class="edge">
<title>pypy&#45;meta&#45;&gt;conda</title>
<path fill="none" stroke="black" d="M932.25,-449.62C812.29,-450.37 504.04,-447.12 417.5,-396 339.07,-349.67 304.91,-305.91 319.5,-216 324.9,-182.7 324.89,-172.13 343.5,-144 352.02,-131.13 364.43,-119.45 375.77,-110.35"/>
<polygon fill="black" stroke="black" points="377.96,-113.08 383.75,-104.21 373.69,-107.53 377.96,-113.08"/>
</g>
<!-- pypy&#45;meta&#45;&gt;certifi -->
<g id="edge75" class="edge">
<title>pypy&#45;meta&#45;&gt;certifi</title>
<path fill="none" stroke="black" d="M955.84,-434.5C937.19,-423.52 911.48,-408.4 891.61,-396.71"/>
<polygon fill="black" stroke="black" points="893.33,-393.66 882.93,-391.61 889.78,-399.7 893.33,-393.66"/>
</g>
<!-- pypy&#45;meta&#45;&gt;setuptools -->
<g id="edge76" class="edge">
<title>pypy&#45;meta&#45;&gt;setuptools</title>
<path fill="none" stroke="black" d="M971.72,-432.15C958.93,-407.6 935.04,-361.77 920,-332.91"/>
<polygon fill="black" stroke="black" points="922.99,-331.08 915.27,-323.82 916.79,-334.31 922.99,-331.08"/>
</g>
<!-- pypy&#45;meta&#45;&gt;chardet -->
<g id="edge77" class="edge">
<title>pypy&#45;meta&#45;&gt;chardet</title>
<path fill="none" stroke="black" d="M932.35,-449.02C777.19,-448.62 297.49,-443.52 248.5,-396 192.75,-341.92 206.83,-238.85 217.57,-189.99"/>
<polygon fill="black" stroke="black" points="221,-190.68 219.85,-180.15 214.18,-189.1 221,-190.68"/>
</g>
<!-- pypy&#45;meta&#45;&gt;cython -->
<g id="edge78" class="edge">
<title>pypy&#45;meta&#45;&gt;cython</title>
<path fill="none" stroke="black" d="M1028.61,-449.22C1125.99,-448.67 1341.84,-442.14 1396.5,-396 1435.85,-362.78 1444.25,-298.98 1445.65,-262.46"/>
<polygon fill="black" stroke="black" points="1449.16,-262.14 1445.89,-252.06 1442.16,-261.98 1449.16,-262.14"/>
</g>
<!-- pypy&#45;meta&#45;&gt;numpy -->
<g id="edge79" class="edge">
<title>pypy&#45;meta&#45;&gt;numpy</title>
<path fill="none" stroke="black" d="M1028.41,-447.45C1154,-442.95 1485.59,-428.12 1522.5,-396 1582.45,-343.82 1584.11,-239.75 1581.09,-190.31"/>
<polygon fill="black" stroke="black" points="1584.56,-189.79 1580.35,-180.07 1577.58,-190.3 1584.56,-189.79"/>
</g>
<!-- pypy&#45;meta&#45;&gt;pandas -->
<g id="edge80" class="edge">
<title>pypy&#45;meta&#45;&gt;pandas</title>
<path fill="none" stroke="black" d="M1028.35,-447.38C1128.37,-443.34 1355.95,-430.53 1424.5,-396 1473.08,-371.53 1508.5,-361.39 1508.5,-307 1508.5,-307 1508.5,-307 1508.5,-233 1508.5,-191.41 1493.1,-145.22 1481.9,-117.14"/>
<polygon fill="black" stroke="black" points="1485.05,-115.58 1478.01,-107.66 1478.57,-118.24 1485.05,-115.58"/>
</g>
<!-- pypy&#45;meta&#45;&gt;ruamel_yaml -->
<g id="edge82" class="edge">
<title>pypy&#45;meta&#45;&gt;ruamel_yaml</title>
<path fill="none" stroke="black" d="M932.46,-448.65C875.04,-446.3 777.66,-436.06 705.5,-396 612.17,-344.18 536.51,-237.55 505.14,-188.6"/>
<polygon fill="black" stroke="black" points="507.93,-186.47 499.63,-179.88 502.01,-190.2 507.93,-186.47"/>
</g>
<!-- pypy&#45;meta&#45;&gt;conda&#45;package&#45;handling -->
<g id="edge83" class="edge">
<title>pypy&#45;meta&#45;&gt;conda&#45;package&#45;handling</title>
<path fill="none" stroke="black" d="M932.64,-447.41C895.37,-443.34 845.86,-431.11 820.5,-396 789.21,-352.67 803.48,-311.73 867.5,-216 875.08,-204.67 885.72,-194.37 896.06,-185.92"/>
<polygon fill="black" stroke="black" points="898.48,-188.47 904.22,-179.56 894.18,-182.95 898.48,-188.47"/>
</g>
<!-- pypy&#45;meta&#45;&gt;markupsafe -->
<g id="edge84" class="edge">
<title>pypy&#45;meta&#45;&gt;markupsafe</title>
<path fill="none" stroke="black" d="M998.29,-433.26C1040.58,-395.87 1147.25,-301.54 1196.65,-257.86"/>
<polygon fill="black" stroke="black" points="1199.18,-260.3 1204.35,-251.05 1194.54,-255.05 1199.18,-260.3"/>
</g>
<!-- pypy&#45;meta&#45;&gt;psutil -->
<g id="edge85" class="edge">
<title>pypy&#45;meta&#45;&gt;psutil</title>
<path fill="none" stroke="black" d="M1006.98,-434.84C1026.19,-424.43 1052.69,-409.74 1075.5,-396 1156.91,-346.94 1250.29,-284.63 1295.74,-253.89"/>
<polygon fill="black" stroke="black" points="1297.85,-256.69 1304.17,-248.18 1293.93,-250.89 1297.85,-256.69"/>
</g>
<!-- pypy&#45;meta&#45;&gt;pycosat -->
<g id="edge86" class="edge">
<title>pypy&#45;meta&#45;&gt;pycosat</title>
<path fill="none" stroke="black" d="M932.4,-449.67C818.12,-450.42 534.08,-446.93 456.5,-396 408.87,-364.73 383.97,-299.15 373.22,-262.06"/>
<polygon fill="black" stroke="black" points="376.47,-260.68 370.44,-251.97 369.72,-262.54 376.47,-260.68"/>
</g>
<!-- pypy&#45;meta&#45;&gt;pysocks -->
<g id="edge87" class="edge">
<title>pypy&#45;meta&#45;&gt;pysocks</title>
<path fill="none" stroke="black" d="M932.54,-447.5C883.05,-443.9 805.39,-432.33 749.5,-396 672.67,-346.06 629.44,-239.65 612.69,-189.81"/>
<polygon fill="black" stroke="black" points="615.94,-188.49 609.52,-180.07 609.29,-190.66 615.94,-188.49"/>
</g>
<!-- pypy&#45;meta&#45;&gt;python&#45;libarchive&#45;c -->
<g id="edge88" class="edge">
<title>pypy&#45;meta&#45;&gt;python&#45;libarchive&#45;c</title>
<path fill="none" stroke="black" d="M932.49,-448.46C768.49,-446.27 237.01,-436.1 172.5,-396 123.51,-365.54 97.6,-299.16 86.42,-261.84"/>
<polygon fill="black" stroke="black" points="89.76,-260.8 83.65,-252.14 83.03,-262.72 89.76,-260.8"/>
</g>
<!-- pypy&#45;meta&#45;&gt;llvmdev -->
<g id="edge89" class="edge">
<title>pypy&#45;meta&#45;&gt;llvmdev</title>
<path fill="none" stroke="black" d="M1028.5,-448.72C1187.43,-447.38 1689.66,-439.69 1746.5,-396 1788.06,-364.05 1798.43,-299.02 1800.88,-262.13"/>
<polygon fill="black" stroke="black" points="1804.38,-262.25 1801.4,-252.09 1797.39,-261.9 1804.38,-262.25"/>
</g>
<!-- pypy&#45;meta&#45;&gt;cryptography -->
<g id="edge90" class="edge">
<title>pypy&#45;meta&#45;&gt;cryptography</title>
<path fill="none" stroke="black" d="M935.79,-443.33C897.54,-436.8 842.35,-423.24 801.5,-396 732.9,-350.25 712.09,-329.71 684.5,-252 679.15,-236.92 679.9,-231.32 684.5,-216 687.47,-206.12 692.94,-196.39 698.68,-188.01"/>
<polygon fill="black" stroke="black" points="701.6,-189.96 704.68,-179.83 695.95,-185.83 701.6,-189.96"/>
</g>
<!-- pypy&#45;meta&#45;&gt;lief -->
<g id="edge91" class="edge">
<title>pypy&#45;meta&#45;&gt;lief</title>
<path fill="none" stroke="black" d="M979.66,-431.88C977.95,-402.25 973.17,-339.61 961.5,-288 959.52,-279.24 956.62,-269.9 953.73,-261.53"/>
<polygon fill="black" stroke="black" points="956.95,-260.14 950.26,-251.92 950.36,-262.52 956.95,-260.14"/>
</g>
<!-- pypy&#45;meta&#45;&gt;pyyaml -->
<g id="edge81" class="edge">
<title>pypy&#45;meta&#45;&gt;pyyaml</title>
<path fill="none" stroke="black" d="M1023.62,-441.92C1107.11,-425.62 1289.14,-376.77 1363.5,-252 1374.53,-233.49 1374.44,-208.74 1372.07,-190.04"/>
<polygon fill="black" stroke="black" points="1375.51,-189.44 1370.52,-180.09 1368.6,-190.51 1375.51,-189.44"/>
</g>
<!-- pypy&#45;meta&#45;&gt;clangdev -->
<g id="edge92" class="edge">
<title>pypy&#45;meta&#45;&gt;clangdev</title>
<path fill="none" stroke="black" d="M1028.61,-448.45C1191.03,-446.22 1712.52,-436 1775.5,-396 1850.75,-348.21 1885.82,-240.26 1898.55,-189.86"/>
<polygon fill="black" stroke="black" points="1901.98,-190.57 1900.94,-180.02 1895.18,-188.92 1901.98,-190.57"/>
</g>
<!-- ripgrep -->
<g id="node39" class="node">
<title>ripgrep</title>
<g id="a_node39"><a xlink:href="https://github.com/conda-forge/ripgrep-feedstock/pull/15" xlink:title="ripgrep ❎">
<ellipse fill="#31688e" stroke="black" cx="977.5" cy="-90" rx="48.19" ry="18"/>
<text text-anchor="middle" x="977.5" y="-86.3" font-family="Times,serif" font-size="14.00" fill="white">ripgrep ❎</text>
</a>
</g>
</g>
<!-- ripgrep&#45;&gt;conda&#45;build -->
<g id="edge93" class="edge">
<title>ripgrep&#45;&gt;conda&#45;build</title>
<path fill="none" stroke="black" d="M968.3,-72.05C963.87,-63.89 958.45,-53.91 953.52,-44.82"/>
<polygon fill="black" stroke="black" points="956.46,-42.91 948.61,-35.79 950.31,-46.25 956.46,-42.91"/>
</g>
</g>
</svg>
