<?xml version="1.0" encoding="UTF-8" standalone="no"?>
<!DOCTYPE svg PUBLIC "-//W3C//DTD SVG 1.1//EN"
 "http://www.w3.org/Graphics/SVG/1.1/DTD/svg11.dtd">
<!-- Generated by graphviz version 2.42.3 (20191010.1750)
 -->
<!-- Title: %3 Pages: 1 -->
<svg width="852pt" height="448pt"
 viewBox="0.00 0.00 851.89 448.00" xmlns="http://www.w3.org/2000/svg" xmlns:xlink="http://www.w3.org/1999/xlink">
<g id="graph0" class="graph" transform="scale(1 1) rotate(0) translate(4 444)">
<title>%3</title>
<polygon fill="white" stroke="transparent" points="-4,4 -4,-444 847.89,-444 847.89,4 -4,4"/>
<!-- argon2_cffi -->
<g id="node1" class="node">
<title>argon2_cffi</title>
<g id="a_node1"><a xlink:href="https://github.com/conda-forge/argon2_cffi-feedstock/pull/26" xlink:title="argon2_cffi ❎">
<ellipse fill="#31688e" stroke="black" cx="63.69" cy="-242" rx="63.89" ry="18"/>
<text text-anchor="middle" x="63.69" y="-238.3" font-family="Times,serif" font-size="14.00" fill="white">argon2_cffi ❎</text>
</a>
</g>
</g>
<!-- notebook -->
<g id="node2" class="node">
<title>notebook</title>
<g id="a_node2"><a xlink:href="https://github.com/conda-forge/notebook-feedstock" xlink:title="notebook">
<ellipse fill="#fde725" stroke="black" cx="228.69" cy="-170" rx="43.59" ry="18"/>
<text text-anchor="middle" x="228.69" y="-166.3" font-family="Times,serif" font-size="14.00">notebook</text>
</a>
</g>
</g>
<!-- argon2_cffi&#45;&gt;notebook -->
<g id="edge1" class="edge">
<title>argon2_cffi&#45;&gt;notebook</title>
<path fill="none" stroke="black" d="M97.48,-226.67C124.3,-215.29 161.82,-199.37 189.88,-187.47"/>
<polygon fill="black" stroke="black" points="191.53,-190.57 199.37,-183.44 188.8,-184.12 191.53,-190.57"/>
</g>
<!-- automake -->
<g id="node3" class="node">
<title>automake</title>
<g id="a_node3"><a xlink:href="https://github.com/conda-forge/automake-feedstock/pull/27" xlink:title="automake ✓">
<ellipse fill="#31688e" stroke="black" cx="190.69" cy="-90" rx="56" ry="18"/>
<text text-anchor="middle" x="190.69" y="-86.3" font-family="Times,serif" font-size="14.00" fill="white">automake ✓</text>
</a>
</g>
</g>
<!-- git -->
<g id="node4" class="node">
<title>git</title>
<g id="a_node4"><a xlink:href="https://github.com/conda-forge/git-feedstock/pull/88" xlink:title="git ❎">
<ellipse fill="#31688e" stroke="black" cx="190.69" cy="-18" rx="32" ry="18"/>
<text text-anchor="middle" x="190.69" y="-14.3" font-family="Times,serif" font-size="14.00" fill="white">git ❎</text>
</a>
</g>
</g>
<!-- automake&#45;&gt;git -->
<!-- constructor -->
<g id="node5" class="node">
<title>constructor</title>
<g id="a_node5"><a xlink:href="https://github.com/conda-forge/constructor-feedstock" xlink:title="constructor">
<ellipse fill="#fde725" stroke="black" cx="760.69" cy="-242" rx="50.09" ry="18"/>
<text text-anchor="middle" x="760.69" y="-238.3" font-family="Times,serif" font-size="14.00">constructor</text>
</a>
</g>
</g>
<!-- emacs -->
<g id="node6" class="node">
<title>emacs</title>
<g id="a_node6"><a xlink:href="https://github.com/conda-forge/emacs-feedstock" xlink:title="emacs">
<ellipse fill="#fde725" stroke="black" cx="465.69" cy="-134" rx="33.29" ry="18"/>
<text text-anchor="middle" x="465.69" y="-130.3" font-family="Times,serif" font-size="14.00">emacs</text>
</a>
</g>
</g>
<!-- gnutls -->
<g id="node7" class="node">
<title>gnutls</title>
<g id="a_node7"><a xlink:href="https://github.com/conda-forge/gnutls-feedstock" xlink:title="gnutls">
<ellipse fill="#fde725" stroke="black" cx="432.69" cy="-206" rx="32.5" ry="18"/>
<text text-anchor="middle" x="432.69" y="-202.3" font-family="Times,serif" font-size="14.00">gnutls</text>
</a>
</g>
</g>
<!-- gnutls&#45;&gt;emacs -->
<g id="edge3" class="edge">
<title>gnutls&#45;&gt;emacs</title>
<path fill="none" stroke="black" d="M440.51,-188.41C444.36,-180.25 449.09,-170.22 453.41,-161.07"/>
<polygon fill="black" stroke="black" points="456.6,-162.49 457.7,-151.96 450.27,-159.51 456.6,-162.49"/>
</g>
<!-- gobject&#45;introspection -->
<g id="node8" class="node">
<title>gobject&#45;introspection</title>
<g id="a_node8"><a xlink:href="https://github.com/conda-forge/gobject-introspection-feedstock/pull/31" xlink:title="gobject introspection ❎">
<ellipse fill="#31688e" stroke="black" cx="491.69" cy="-350" rx="97" ry="18"/>
<text text-anchor="middle" x="491.69" y="-346.3" font-family="Times,serif" font-size="14.00" fill="white">gobject introspection ❎</text>
</a>
</g>
</g>
<!-- pango -->
<g id="node9" class="node">
<title>pango</title>
<g id="a_node9"><a xlink:href="https://github.com/conda-forge/pango-feedstock" xlink:title="pango">
<ellipse fill="#fde725" stroke="black" cx="553.69" cy="-278" rx="32.5" ry="18"/>
<text text-anchor="middle" x="553.69" y="-274.3" font-family="Times,serif" font-size="14.00">pango</text>
</a>
</g>
</g>
<!-- gobject&#45;introspection&#45;&gt;pango -->
<g id="edge4" class="edge">
<title>gobject&#45;introspection&#45;&gt;pango</title>
<path fill="none" stroke="black" d="M506.7,-332.05C514.73,-322.99 524.74,-311.69 533.45,-301.86"/>
<polygon fill="black" stroke="black" points="536.08,-304.16 540.09,-294.36 530.84,-299.52 536.08,-304.16"/>
</g>
<!-- librsvg -->
<g id="node10" class="node">
<title>librsvg</title>
<g id="a_node10"><a xlink:href="https://github.com/conda-forge/librsvg-feedstock" xlink:title="librsvg">
<ellipse fill="#fde725" stroke="black" cx="518.69" cy="-206" rx="35.19" ry="18"/>
<text text-anchor="middle" x="518.69" y="-202.3" font-family="Times,serif" font-size="14.00">librsvg</text>
</a>
</g>
</g>
<!-- pango&#45;&gt;librsvg -->
<g id="edge5" class="edge">
<title>pango&#45;&gt;librsvg</title>
<path fill="none" stroke="black" d="M545.4,-260.41C541.32,-252.25 536.3,-242.22 531.73,-233.07"/>
<polygon fill="black" stroke="black" points="534.78,-231.34 527.17,-223.96 528.51,-234.47 534.78,-231.34"/>
</g>
<!-- r&#45;base -->
<g id="node11" class="node">
<title>r&#45;base</title>
<g id="a_node11"><a xlink:href="https://github.com/conda-forge/r-base-feedstock" xlink:title="r base">
<ellipse fill="#fde725" stroke="black" cx="581.69" cy="-134" rx="32" ry="18"/>
<text text-anchor="middle" x="581.69" y="-130.3" font-family="Times,serif" font-size="14.00">r base</text>
</a>
</g>
</g>
<!-- pango&#45;&gt;r&#45;base -->
<g id="edge6" class="edge">
<title>pango&#45;&gt;r&#45;base</title>
<path fill="none" stroke="black" d="M557.07,-259.87C561.86,-235.56 570.69,-190.82 576.37,-162.01"/>
<polygon fill="black" stroke="black" points="579.8,-162.68 578.3,-152.19 572.94,-161.32 579.8,-162.68"/>
</g>
<!-- librsvg&#45;&gt;emacs -->
<g id="edge9" class="edge">
<title>librsvg&#45;&gt;emacs</title>
<path fill="none" stroke="black" d="M506.4,-188.76C499.78,-180.02 491.48,-169.05 484.1,-159.31"/>
<polygon fill="black" stroke="black" points="486.75,-157.01 477.92,-151.15 481.17,-161.23 486.75,-157.01"/>
</g>
<!-- harfbuzz -->
<g id="node12" class="node">
<title>harfbuzz</title>
<g id="a_node12"><a xlink:href="https://github.com/conda-forge/harfbuzz-feedstock/pull/58" xlink:title="harfbuzz ❎">
<ellipse fill="#31688e" stroke="black" cx="616.69" cy="-422" rx="53.5" ry="18"/>
<text text-anchor="middle" x="616.69" y="-418.3" font-family="Times,serif" font-size="14.00" fill="white">harfbuzz ❎</text>
</a>
</g>
</g>
<!-- harfbuzz&#45;&gt;pango -->
<g id="edge7" class="edge">
<title>harfbuzz&#45;&gt;pango</title>
<path fill="none" stroke="black" d="M615.48,-403.81C613.62,-385.28 609,-355.31 597.69,-332 592.34,-320.96 584.21,-310.26 576.39,-301.39"/>
<polygon fill="black" stroke="black" points="578.74,-298.78 569.38,-293.81 573.6,-303.53 578.74,-298.78"/>
</g>
<!-- ipykernel -->
<g id="node13" class="node">
<title>ipykernel</title>
<g id="a_node13"><a xlink:href="https://github.com/conda-forge/ipykernel-feedstock" xlink:title="ipykernel">
<ellipse fill="#fde725" stroke="black" cx="337.69" cy="-242" rx="44.39" ry="18"/>
<text text-anchor="middle" x="337.69" y="-238.3" font-family="Times,serif" font-size="14.00">ipykernel</text>
</a>
</g>
</g>
<!-- ipykernel&#45;&gt;notebook -->
<g id="edge8" class="edge">
<title>ipykernel&#45;&gt;notebook</title>
<path fill="none" stroke="black" d="M315.11,-226.5C299.18,-216.27 277.63,-202.43 260.04,-191.13"/>
<polygon fill="black" stroke="black" points="261.56,-187.94 251.25,-185.49 257.77,-193.83 261.56,-187.94"/>
</g>
<!-- nbconvert -->
<g id="node14" class="node">
<title>nbconvert</title>
<g id="a_node14"><a xlink:href="https://github.com/conda-forge/nbconvert-feedstock" xlink:title="nbconvert">
<ellipse fill="#fde725" stroke="black" cx="191.69" cy="-242" rx="46.29" ry="18"/>
<text text-anchor="middle" x="191.69" y="-238.3" font-family="Times,serif" font-size="14.00">nbconvert</text>
</a>
</g>
</g>
<!-- nbconvert&#45;&gt;notebook -->
<g id="edge10" class="edge">
<title>nbconvert&#45;&gt;notebook</title>
<path fill="none" stroke="black" d="M200.65,-224.05C204.97,-215.89 210.24,-205.91 215.04,-196.82"/>
<polygon fill="black" stroke="black" points="218.24,-198.27 219.82,-187.79 212.05,-194.99 218.24,-198.27"/>
</g>
<!-- nettle -->
<g id="node15" class="node">
<title>nettle</title>
<g id="a_node15"><a xlink:href="https://github.com/conda-forge/nettle-feedstock/pull/7" xlink:title="nettle ❎">
<ellipse fill="#31688e" stroke="black" cx="432.69" cy="-278" rx="42.49" ry="18"/>
<text text-anchor="middle" x="432.69" y="-274.3" font-family="Times,serif" font-size="14.00" fill="white">nettle ❎</text>
</a>
</g>
</g>
<!-- nettle&#45;&gt;gnutls -->
<g id="edge11" class="edge">
<title>nettle&#45;&gt;gnutls</title>
<path fill="none" stroke="black" d="M432.69,-259.7C432.69,-251.98 432.69,-242.71 432.69,-234.11"/>
<polygon fill="black" stroke="black" points="436.19,-234.1 432.69,-224.1 429.19,-234.1 436.19,-234.1"/>
</g>
<!-- pandoc -->
<g id="node16" class="node">
<title>pandoc</title>
<g id="a_node16"><a xlink:href="https://github.com/conda-forge/pandoc-feedstock/pull/81" xlink:title="pandoc ❎">
<ellipse fill="#31688e" stroke="black" cx="177.69" cy="-314" rx="48.19" ry="18"/>
<text text-anchor="middle" x="177.69" y="-310.3" font-family="Times,serif" font-size="14.00" fill="white">pandoc ❎</text>
</a>
</g>
</g>
<!-- pandoc&#45;&gt;nbconvert -->
<g id="edge12" class="edge">
<title>pandoc&#45;&gt;nbconvert</title>
<path fill="none" stroke="black" d="M181.16,-295.7C182.7,-287.98 184.55,-278.71 186.27,-270.11"/>
<polygon fill="black" stroke="black" points="189.74,-270.6 188.27,-260.1 182.88,-269.22 189.74,-270.6"/>
</g>
<!-- pyzmq -->
<g id="node17" class="node">
<title>pyzmq</title>
<g id="a_node17"><a xlink:href="https://github.com/conda-forge/pyzmq-feedstock" xlink:title="pyzmq">
<ellipse fill="#fde725" stroke="black" cx="278.69" cy="-314" rx="35.19" ry="18"/>
<text text-anchor="middle" x="278.69" y="-310.3" font-family="Times,serif" font-size="14.00">pyzmq</text>
</a>
</g>
</g>
<!-- pyzmq&#45;&gt;notebook -->
<g id="edge13" class="edge">
<title>pyzmq&#45;&gt;notebook</title>
<path fill="none" stroke="black" d="M272.76,-296.15C264.2,-271.84 248.29,-226.66 238.11,-197.75"/>
<polygon fill="black" stroke="black" points="241.4,-196.54 234.77,-188.27 234.79,-198.86 241.4,-196.54"/>
</g>
<!-- pyzmq&#45;&gt;ipykernel -->
<g id="edge14" class="edge">
<title>pyzmq&#45;&gt;ipykernel</title>
<path fill="none" stroke="black" d="M292.08,-297.12C299.52,-288.29 308.93,-277.13 317.27,-267.24"/>
<polygon fill="black" stroke="black" points="320.18,-269.21 323.95,-259.31 314.83,-264.7 320.18,-269.21"/>
</g>
<!-- pyzmq&#45;&gt;nbconvert -->
<g id="edge15" class="edge">
<title>pyzmq&#45;&gt;nbconvert</title>
<path fill="none" stroke="black" d="M260.67,-298.5C248.63,-288.81 232.58,-275.9 218.99,-264.96"/>
<polygon fill="black" stroke="black" points="220.89,-262 210.9,-258.46 216.5,-267.45 220.89,-262"/>
</g>
<!-- trio -->
<g id="node18" class="node">
<title>trio</title>
<g id="a_node18"><a xlink:href="https://github.com/conda-forge/trio-feedstock" xlink:title="trio">
<ellipse fill="#fde725" stroke="black" cx="529.69" cy="-18" rx="27" ry="18"/>
<text text-anchor="middle" x="529.69" y="-14.3" font-family="Times,serif" font-size="14.00">trio</text>
</a>
</g>
</g>
<!-- zeromq -->
<g id="node19" class="node">
<title>zeromq</title>
<g id="a_node19"><a xlink:href="https://github.com/conda-forge/zeromq-feedstock/pull/63" xlink:title="zeromq ✓">
<ellipse fill="#31688e" stroke="black" cx="278.69" cy="-386" rx="48.19" ry="18"/>
<text text-anchor="middle" x="278.69" y="-382.3" font-family="Times,serif" font-size="14.00" fill="white">zeromq ✓</text>
</a>
</g>
</g>
<!-- zeromq&#45;&gt;pyzmq -->
<g id="edge16" class="edge">
<title>zeromq&#45;&gt;pyzmq</title>
<path fill="none" stroke="black" d="M278.69,-367.7C278.69,-359.98 278.69,-350.71 278.69,-342.11"/>
<polygon fill="black" stroke="black" points="282.19,-342.1 278.69,-332.1 275.19,-342.1 282.19,-342.1"/>
</g>
<!-- sniffio -->
<g id="node20" class="node">
<title>sniffio</title>
<g id="a_node20"><a xlink:href="https://github.com/conda-forge/sniffio-feedstock/pull/10" xlink:title="sniffio ❎">
<ellipse fill="#31688e" stroke="black" cx="529.69" cy="-90" rx="45.5" ry="18"/>
<text text-anchor="middle" x="529.69" y="-86.3" font-family="Times,serif" font-size="14.00" fill="white">sniffio ❎</text>
</a>
</g>
</g>
<!-- sniffio&#45;&gt;trio -->
<g id="edge17" class="edge">
<title>sniffio&#45;&gt;trio</title>
<path fill="none" stroke="black" d="M529.69,-71.7C529.69,-63.98 529.69,-54.71 529.69,-46.11"/>
<polygon fill="black" stroke="black" points="533.19,-46.1 529.69,-36.1 526.19,-46.1 533.19,-46.1"/>
</g>
<!-- conda&#45;standalone -->
<g id="node21" class="node">
<title>conda&#45;standalone</title>
<g id="a_node21"><a xlink:href="https://github.com/conda-forge/conda-standalone-feedstock/pull/10" xlink:title="conda standalone ❎">
<ellipse fill="#31688e" stroke="black" cx="760.69" cy="-314" rx="83.39" ry="18"/>
<text text-anchor="middle" x="760.69" y="-310.3" font-family="Times,serif" font-size="14.00" fill="white">conda standalone ❎</text>
</a>
</g>
</g>
<!-- conda&#45;standalone&#45;&gt;constructor -->
<g id="edge18" class="edge">
<title>conda&#45;standalone&#45;&gt;constructor</title>
<path fill="none" stroke="black" d="M760.69,-295.7C760.69,-287.98 760.69,-278.71 760.69,-270.11"/>
<polygon fill="black" stroke="black" points="764.19,-270.1 760.69,-260.1 757.19,-270.1 764.19,-270.1"/>
</g>
</g>
</svg>
