<?xml version="1.0" encoding="UTF-8" standalone="no"?>
<!DOCTYPE svg PUBLIC "-//W3C//DTD SVG 1.1//EN"
 "http://www.w3.org/Graphics/SVG/1.1/DTD/svg11.dtd">
<!-- Generated by graphviz version 2.42.3 (20191010.1750)
 -->
<!-- Title: %3 Pages: 1 -->
<svg width="611pt" height="376pt"
 viewBox="0.00 0.00 611.10 376.00" xmlns="http://www.w3.org/2000/svg" xmlns:xlink="http://www.w3.org/1999/xlink">
<g id="graph0" class="graph" transform="scale(1 1) rotate(0) translate(4 372)">
<title>%3</title>
<polygon fill="white" stroke="transparent" points="-4,4 -4,-372 607.1,-372 607.1,4 -4,4"/>
<!-- arrow&#45;cpp -->
<g id="node1" class="node">
<title>arrow&#45;cpp</title>
<g id="a_node1"><a xlink:href="https://github.com/conda-forge/arrow-cpp-feedstock" xlink:title="arrow cpp">
<ellipse fill="#fde725" stroke="black" cx="364.6" cy="-206" rx="46.29" ry="18"/>
<text text-anchor="middle" x="364.6" y="-202.3" font-family="Times,serif" font-size="14.00">arrow cpp</text>
</a>
</g>
</g>
<!-- autoconf -->
<g id="node2" class="node">
<title>autoconf</title>
<g id="a_node2"><a xlink:href="https://github.com/conda-forge/autoconf-feedstock" xlink:title="autoconf">
<ellipse fill="#fde725" stroke="black" cx="41.6" cy="-242" rx="41.69" ry="18"/>
<text text-anchor="middle" x="41.6" y="-238.3" font-family="Times,serif" font-size="14.00">autoconf</text>
</a>
</g>
</g>
<!-- automake -->
<g id="node3" class="node">
<title>automake</title>
<g id="a_node3"><a xlink:href="https://github.com/conda-forge/automake-feedstock" xlink:title="automake">
<ellipse fill="#fde725" stroke="black" cx="76.6" cy="-170" rx="45.5" ry="18"/>
<text text-anchor="middle" x="76.6" y="-166.3" font-family="Times,serif" font-size="14.00">automake</text>
</a>
</g>
</g>
<!-- autoconf&#45;&gt;automake -->
<g id="edge1" class="edge">
<title>autoconf&#45;&gt;automake</title>
<path fill="none" stroke="black" d="M50.07,-224.05C54.15,-215.89 59.14,-205.91 63.68,-196.82"/>
<polygon fill="black" stroke="black" points="66.86,-198.3 68.2,-187.79 60.6,-195.17 66.86,-198.3"/>
</g>
<!-- constructor -->
<g id="node4" class="node">
<title>constructor</title>
<g id="a_node4"><a xlink:href="https://github.com/conda-forge/constructor-feedstock" xlink:title="constructor">
<ellipse fill="#fde725" stroke="black" cx="135.6" cy="-18" rx="50.09" ry="18"/>
<text text-anchor="middle" x="135.6" y="-14.3" font-family="Times,serif" font-size="14.00">constructor</text>
</a>
</g>
</g>
<!-- gettext -->
<g id="node5" class="node">
<title>gettext</title>
<g id="a_node5"><a xlink:href="https://github.com/conda-forge/gettext-feedstock/pull/12" xlink:title="gettext ❎">
<ellipse fill="#31688e" stroke="black" cx="225.6" cy="-314" rx="46.29" ry="18"/>
<text text-anchor="middle" x="225.6" y="-310.3" font-family="Times,serif" font-size="14.00" fill="white">gettext ❎</text>
</a>
</g>
</g>
<!-- git -->
<g id="node6" class="node">
<title>git</title>
<g id="a_node6"><a xlink:href="https://github.com/conda-forge/git-feedstock" xlink:title="git">
<ellipse fill="#fde725" stroke="black" cx="166.6" cy="-242" rx="27" ry="18"/>
<text text-anchor="middle" x="166.6" y="-238.3" font-family="Times,serif" font-size="14.00">git</text>
</a>
</g>
</g>
<!-- gettext&#45;&gt;git -->
<g id="edge2" class="edge">
<title>gettext&#45;&gt;git</title>
<path fill="none" stroke="black" d="M211.91,-296.76C204.18,-287.59 194.38,-275.96 185.88,-265.88"/>
<polygon fill="black" stroke="black" points="188.52,-263.58 179.4,-258.19 183.17,-268.09 188.52,-263.58"/>
</g>
<!-- glib -->
<g id="node7" class="node">
<title>glib</title>
<g id="a_node7"><a xlink:href="https://github.com/conda-forge/glib-feedstock" xlink:title="glib">
<ellipse fill="#fde725" stroke="black" cx="238.6" cy="-242" rx="27" ry="18"/>
<text text-anchor="middle" x="238.6" y="-238.3" font-family="Times,serif" font-size="14.00">glib</text>
</a>
</g>
</g>
<!-- gettext&#45;&gt;glib -->
<g id="edge3" class="edge">
<title>gettext&#45;&gt;glib</title>
<path fill="none" stroke="black" d="M228.81,-295.7C230.24,-287.98 231.96,-278.71 233.56,-270.11"/>
<polygon fill="black" stroke="black" points="237.03,-270.58 235.42,-260.1 230.15,-269.3 237.03,-270.58"/>
</g>
<!-- lapack -->
<g id="node8" class="node">
<title>lapack</title>
<g id="a_node8"><a xlink:href="https://github.com/conda-forge/lapack-feedstock" xlink:title="lapack">
<ellipse fill="#fde725" stroke="black" cx="313.6" cy="-278" rx="34" ry="18"/>
<text text-anchor="middle" x="313.6" y="-274.3" font-family="Times,serif" font-size="14.00">lapack</text>
</a>
</g>
</g>
<!-- libtool -->
<g id="node9" class="node">
<title>libtool</title>
<g id="a_node9"><a xlink:href="https://github.com/conda-forge/libtool-feedstock" xlink:title="libtool">
<ellipse fill="#35b779" stroke="black" cx="542.6" cy="-350" rx="34" ry="18"/>
<text text-anchor="middle" x="542.6" y="-346.3" font-family="Times,serif" font-size="14.00">libtool</text>
</a>
</g>
</g>
<!-- openblas -->
<g id="node10" class="node">
<title>openblas</title>
<g id="a_node10"><a xlink:href="https://github.com/conda-forge/openblas-feedstock/pull/105" xlink:title="openblas ❎">
<ellipse fill="#31688e" stroke="black" cx="542.6" cy="-278" rx="54" ry="18"/>
<text text-anchor="middle" x="542.6" y="-274.3" font-family="Times,serif" font-size="14.00" fill="white">openblas ❎</text>
</a>
</g>
</g>
<!-- libtool&#45;&gt;openblas -->
<!-- patch -->
<g id="node13" class="node">
<title>patch</title>
<g id="a_node13"><a xlink:href="https://github.com/conda-forge/patch-feedstock/pull/6" xlink:title="patch ❎">
<ellipse fill="#31688e" stroke="black" cx="542.6" cy="-206" rx="41.69" ry="18"/>
<text text-anchor="middle" x="542.6" y="-202.3" font-family="Times,serif" font-size="14.00" fill="white">patch ❎</text>
</a>
</g>
</g>
<!-- openblas&#45;&gt;patch -->
<!-- numpy -->
<g id="node11" class="node">
<title>numpy</title>
<g id="a_node11"><a xlink:href="https://github.com/conda-forge/numpy-feedstock" xlink:title="numpy">
<ellipse fill="#fde725" stroke="black" cx="401.6" cy="-278" rx="36" ry="18"/>
<text text-anchor="middle" x="401.6" y="-274.3" font-family="Times,serif" font-size="14.00">numpy</text>
</a>
</g>
</g>
<!-- numpy&#45;&gt;arrow&#45;cpp -->
<g id="edge5" class="edge">
<title>numpy&#45;&gt;arrow&#45;cpp</title>
<path fill="none" stroke="black" d="M392.83,-260.41C388.51,-252.25 383.21,-242.22 378.37,-233.07"/>
<polygon fill="black" stroke="black" points="381.33,-231.16 373.56,-223.96 375.14,-234.43 381.33,-231.16"/>
</g>
<!-- pandas -->
<g id="node12" class="node">
<title>pandas</title>
<g id="a_node12"><a xlink:href="https://github.com/conda-forge/pandas-feedstock" xlink:title="pandas">
<ellipse fill="#fde725" stroke="black" cx="438.6" cy="-134" rx="35.19" ry="18"/>
<text text-anchor="middle" x="438.6" y="-130.3" font-family="Times,serif" font-size="14.00">pandas</text>
</a>
</g>
</g>
<!-- numpy&#45;&gt;pandas -->
<g id="edge6" class="edge">
<title>numpy&#45;&gt;pandas</title>
<path fill="none" stroke="black" d="M407.95,-259.97C411.65,-249.66 416.24,-236.18 419.6,-224 425.23,-203.57 430.17,-180.11 433.61,-162.4"/>
<polygon fill="black" stroke="black" points="437.12,-162.68 435.54,-152.21 430.24,-161.38 437.12,-162.68"/>
</g>
<!-- pkg&#45;config -->
<g id="node14" class="node">
<title>pkg&#45;config</title>
<g id="a_node14"><a xlink:href="https://github.com/conda-forge/pkg-config-feedstock/pull/35" xlink:title="pkg config ❎">
<ellipse fill="#31688e" stroke="black" cx="542.6" cy="-134" rx="60.5" ry="18"/>
<text text-anchor="middle" x="542.6" y="-130.3" font-family="Times,serif" font-size="14.00" fill="white">pkg config ❎</text>
</a>
</g>
</g>
<!-- patch&#45;&gt;pkg&#45;config -->
<!-- perl -->
<g id="node15" class="node">
<title>perl</title>
<g id="a_node15"><a xlink:href="https://github.com/conda-forge/perl-feedstock/pull/45" xlink:title="perl ❎">
<ellipse fill="#31688e" stroke="black" cx="111.6" cy="-314" rx="36.5" ry="18"/>
<text text-anchor="middle" x="111.6" y="-310.3" font-family="Times,serif" font-size="14.00" fill="white">perl ❎</text>
</a>
</g>
</g>
<!-- perl&#45;&gt;autoconf -->
<g id="edge9" class="edge">
<title>perl&#45;&gt;autoconf</title>
<path fill="none" stroke="black" d="M96.06,-297.46C86.86,-288.26 75.02,-276.42 64.73,-266.13"/>
<polygon fill="black" stroke="black" points="67.12,-263.57 57.57,-258.98 62.17,-268.52 67.12,-263.57"/>
</g>
<!-- perl&#45;&gt;automake -->
<g id="edge10" class="edge">
<title>perl&#45;&gt;automake</title>
<path fill="none" stroke="black" d="M108.37,-295.84C104.89,-277.84 98.97,-248.79 92.6,-224 90.38,-215.4 87.68,-206.1 85.14,-197.73"/>
<polygon fill="black" stroke="black" points="88.45,-196.6 82.15,-188.08 81.76,-198.67 88.45,-196.6"/>
</g>
<!-- perl&#45;&gt;git -->
<g id="edge11" class="edge">
<title>perl&#45;&gt;git</title>
<path fill="none" stroke="black" d="M124.35,-296.76C131.49,-287.68 140.52,-276.19 148.39,-266.18"/>
<polygon fill="black" stroke="black" points="151.24,-268.21 154.66,-258.19 145.73,-263.89 151.24,-268.21"/>
</g>
<!-- blas -->
<g id="node16" class="node">
<title>blas</title>
<g id="a_node16"><a xlink:href="https://github.com/conda-forge/blas-feedstock/pull/47" xlink:title="blas ❎">
<ellipse fill="#31688e" stroke="black" cx="357.6" cy="-350" rx="36.5" ry="18"/>
<text text-anchor="middle" x="357.6" y="-346.3" font-family="Times,serif" font-size="14.00" fill="white">blas ❎</text>
</a>
</g>
</g>
<!-- blas&#45;&gt;lapack -->
<g id="edge12" class="edge">
<title>blas&#45;&gt;lapack</title>
<path fill="none" stroke="black" d="M347.17,-332.41C341.85,-323.95 335.28,-313.49 329.36,-304.08"/>
<polygon fill="black" stroke="black" points="332.23,-302.07 323.95,-295.47 326.31,-305.8 332.23,-302.07"/>
</g>
<!-- blas&#45;&gt;numpy -->
<g id="edge13" class="edge">
<title>blas&#45;&gt;numpy</title>
<path fill="none" stroke="black" d="M368.02,-332.41C373.34,-323.95 379.91,-313.49 385.83,-304.08"/>
<polygon fill="black" stroke="black" points="388.89,-305.8 391.24,-295.47 382.96,-302.07 388.89,-305.8"/>
</g>
<!-- conda&#45;standalone -->
<g id="node17" class="node">
<title>conda&#45;standalone</title>
<g id="a_node17"><a xlink:href="https://github.com/conda-forge/conda-standalone-feedstock/pull/10" xlink:title="conda standalone ❎">
<ellipse fill="#31688e" stroke="black" cx="135.6" cy="-90" rx="83.39" ry="18"/>
<text text-anchor="middle" x="135.6" y="-86.3" font-family="Times,serif" font-size="14.00" fill="white">conda standalone ❎</text>
</a>
</g>
</g>
<!-- conda&#45;standalone&#45;&gt;constructor -->
<g id="edge14" class="edge">
<title>conda&#45;standalone&#45;&gt;constructor</title>
<path fill="none" stroke="black" d="M135.6,-71.7C135.6,-63.98 135.6,-54.71 135.6,-46.11"/>
<polygon fill="black" stroke="black" points="139.1,-46.1 135.6,-36.1 132.1,-46.1 139.1,-46.1"/>
</g>
</g>
</svg>
