<?xml version="1.0" encoding="UTF-8" standalone="no"?>
<!DOCTYPE svg PUBLIC "-//W3C//DTD SVG 1.1//EN"
 "http://www.w3.org/Graphics/SVG/1.1/DTD/svg11.dtd">
<!-- Generated by graphviz version 2.42.3 (20191010.1750)
 -->
<!-- Title: %3 Pages: 1 -->
<svg width="1140pt" height="492pt"
 viewBox="0.00 0.00 1140.19 492.00" xmlns="http://www.w3.org/2000/svg" xmlns:xlink="http://www.w3.org/1999/xlink">
<g id="graph0" class="graph" transform="scale(1 1) rotate(0) translate(4 488)">
<title>%3</title>
<polygon fill="white" stroke="transparent" points="-4,4 -4,-488 1136.19,-488 1136.19,4 -4,4"/>
<!-- argon2_cffi -->
<g id="node1" class="node">
<title>argon2_cffi</title>
<g id="a_node1"><a xlink:href="https://github.com/conda-forge/argon2_cffi-feedstock" xlink:title="argon2_cffi">
<ellipse fill="#35b779" stroke="black" cx="52" cy="-250" rx="52" ry="18"/>
<text text-anchor="middle" x="52" y="-246.3" font-family="Times,serif" font-size="14.00">argon2_cffi</text>
</a>
</g>
</g>
<!-- notebook -->
<g id="node2" class="node">
<title>notebook</title>
<g id="a_node2"><a xlink:href="https://github.com/conda-forge/notebook-feedstock" xlink:title="notebook">
<ellipse fill="#fde725" stroke="black" cx="276" cy="-178" rx="43.59" ry="18"/>
<text text-anchor="middle" x="276" y="-174.3" font-family="Times,serif" font-size="14.00">notebook</text>
</a>
</g>
</g>
<!-- argon2_cffi&#45;&gt;notebook -->
<g id="edge1" class="edge">
<title>argon2_cffi&#45;&gt;notebook</title>
<path fill="none" stroke="black" d="M89.24,-237.36C128.74,-225.02 191.08,-205.54 232.74,-192.52"/>
<polygon fill="black" stroke="black" points="233.84,-195.84 242.34,-189.52 231.75,-189.16 233.84,-195.84"/>
</g>
<!-- astropy -->
<g id="node3" class="node">
<title>astropy</title>
<g id="a_node3"><a xlink:href="https://github.com/conda-forge/astropy-feedstock/pull/82" xlink:title="astropy ✓">
<ellipse fill="#31688e" stroke="black" cx="818" cy="-134" rx="47" ry="18"/>
<text text-anchor="middle" x="818" y="-130.3" font-family="Times,serif" font-size="14.00" fill="white">astropy ✓</text>
</a>
</g>
</g>
<!-- healpy -->
<g id="node4" class="node">
<title>healpy</title>
<g id="a_node4"><a xlink:href="https://github.com/conda-forge/healpy-feedstock" xlink:title="healpy">
<ellipse fill="#fde725" stroke="black" cx="818" cy="-62" rx="34.5" ry="18"/>
<text text-anchor="middle" x="818" y="-58.3" font-family="Times,serif" font-size="14.00">healpy</text>
</a>
</g>
</g>
<!-- astropy&#45;&gt;healpy -->
<g id="edge2" class="edge">
<title>astropy&#45;&gt;healpy</title>
<path fill="none" stroke="black" d="M818,-115.7C818,-107.98 818,-98.71 818,-90.11"/>
<polygon fill="black" stroke="black" points="821.5,-90.1 818,-80.1 814.5,-90.1 821.5,-90.1"/>
</g>
<!-- autoconf -->
<g id="node5" class="node">
<title>autoconf</title>
<g id="a_node5"><a xlink:href="https://github.com/conda-forge/autoconf-feedstock/pull/30" xlink:title="autoconf ❎">
<ellipse fill="#31688e" stroke="black" cx="335" cy="-134" rx="53.5" ry="18"/>
<text text-anchor="middle" x="335" y="-130.3" font-family="Times,serif" font-size="14.00" fill="white">autoconf ❎</text>
</a>
</g>
</g>
<!-- automake -->
<g id="node6" class="node">
<title>automake</title>
<g id="a_node6"><a xlink:href="https://github.com/conda-forge/automake-feedstock" xlink:title="automake">
<ellipse fill="#fde725" stroke="black" cx="335" cy="-62" rx="45.5" ry="18"/>
<text text-anchor="middle" x="335" y="-58.3" font-family="Times,serif" font-size="14.00">automake</text>
</a>
</g>
</g>
<!-- autoconf&#45;&gt;automake -->
<g id="edge3" class="edge">
<title>autoconf&#45;&gt;automake</title>
<path fill="none" stroke="black" d="M335,-115.7C335,-107.98 335,-98.71 335,-90.11"/>
<polygon fill="black" stroke="black" points="338.5,-90.1 335,-80.1 331.5,-90.1 338.5,-90.1"/>
</g>
<!-- constructor -->
<g id="node7" class="node">
<title>constructor</title>
<g id="a_node7"><a xlink:href="https://github.com/conda-forge/constructor-feedstock" xlink:title="constructor">
<ellipse fill="#fde725" stroke="black" cx="1049" cy="-286" rx="50.09" ry="18"/>
<text text-anchor="middle" x="1049" y="-282.3" font-family="Times,serif" font-size="14.00">constructor</text>
</a>
</g>
</g>
<!-- emacs -->
<g id="node8" class="node">
<title>emacs</title>
<g id="a_node8"><a xlink:href="https://github.com/conda-forge/emacs-feedstock" xlink:title="emacs">
<ellipse fill="#fde725" stroke="black" cx="754" cy="-178" rx="33.29" ry="18"/>
<text text-anchor="middle" x="754" y="-174.3" font-family="Times,serif" font-size="14.00">emacs</text>
</a>
</g>
</g>
<!-- entrypoints -->
<g id="node9" class="node">
<title>entrypoints</title>
<g id="a_node9"><a xlink:href="https://github.com/conda-forge/entrypoints-feedstock" xlink:title="entrypoints">
<ellipse fill="#35b779" stroke="black" cx="325" cy="-322" rx="50.09" ry="18"/>
<text text-anchor="middle" x="325" y="-318.3" font-family="Times,serif" font-size="14.00">entrypoints</text>
</a>
</g>
</g>
<!-- nbconvert -->
<g id="node10" class="node">
<title>nbconvert</title>
<g id="a_node10"><a xlink:href="https://github.com/conda-forge/nbconvert-feedstock" xlink:title="nbconvert">
<ellipse fill="#fde725" stroke="black" cx="350" cy="-250" rx="46.29" ry="18"/>
<text text-anchor="middle" x="350" y="-246.3" font-family="Times,serif" font-size="14.00">nbconvert</text>
</a>
</g>
</g>
<!-- entrypoints&#45;&gt;nbconvert -->
<g id="edge4" class="edge">
<title>entrypoints&#45;&gt;nbconvert</title>
<path fill="none" stroke="black" d="M331.05,-304.05C333.87,-296.18 337.28,-286.62 340.43,-277.79"/>
<polygon fill="black" stroke="black" points="343.76,-278.87 343.83,-268.28 337.17,-276.52 343.76,-278.87"/>
</g>
<!-- nbconvert&#45;&gt;notebook -->
<g id="edge5" class="edge">
<title>nbconvert&#45;&gt;notebook</title>
<path fill="none" stroke="black" d="M333.21,-233.12C323.46,-223.9 311.02,-212.13 300.23,-201.92"/>
<polygon fill="black" stroke="black" points="302.4,-199.15 292.73,-194.82 297.58,-204.24 302.4,-199.15"/>
</g>
<!-- git -->
<g id="node11" class="node">
<title>git</title>
<g id="a_node11"><a xlink:href="https://github.com/conda-forge/git-feedstock/pull/88" xlink:title="git ❎">
<ellipse fill="#31688e" stroke="black" cx="335" cy="-18" rx="32" ry="18"/>
<text text-anchor="middle" x="335" y="-14.3" font-family="Times,serif" font-size="14.00" fill="white">git ❎</text>
</a>
</g>
</g>
<!-- gnutls -->
<g id="node12" class="node">
<title>gnutls</title>
<g id="a_node12"><a xlink:href="https://github.com/conda-forge/gnutls-feedstock" xlink:title="gnutls">
<ellipse fill="#fde725" stroke="black" cx="721" cy="-250" rx="32.5" ry="18"/>
<text text-anchor="middle" x="721" y="-246.3" font-family="Times,serif" font-size="14.00">gnutls</text>
</a>
</g>
</g>
<!-- gnutls&#45;&gt;emacs -->
<g id="edge6" class="edge">
<title>gnutls&#45;&gt;emacs</title>
<path fill="none" stroke="black" d="M728.82,-232.41C732.67,-224.25 737.4,-214.22 741.71,-205.07"/>
<polygon fill="black" stroke="black" points="744.91,-206.49 746.01,-195.96 738.58,-203.51 744.91,-206.49"/>
</g>
<!-- gobject&#45;introspection -->
<g id="node13" class="node">
<title>gobject&#45;introspection</title>
<g id="a_node13"><a xlink:href="https://github.com/conda-forge/gobject-introspection-feedstock/pull/31" xlink:title="gobject introspection ❎">
<ellipse fill="#31688e" stroke="black" cx="780" cy="-394" rx="97" ry="18"/>
<text text-anchor="middle" x="780" y="-390.3" font-family="Times,serif" font-size="14.00" fill="white">gobject introspection ❎</text>
</a>
</g>
</g>
<!-- pango -->
<g id="node14" class="node">
<title>pango</title>
<g id="a_node14"><a xlink:href="https://github.com/conda-forge/pango-feedstock" xlink:title="pango">
<ellipse fill="#fde725" stroke="black" cx="842" cy="-322" rx="32.5" ry="18"/>
<text text-anchor="middle" x="842" y="-318.3" font-family="Times,serif" font-size="14.00">pango</text>
</a>
</g>
</g>
<!-- gobject&#45;introspection&#45;&gt;pango -->
<g id="edge7" class="edge">
<title>gobject&#45;introspection&#45;&gt;pango</title>
<path fill="none" stroke="black" d="M795.01,-376.05C803.04,-366.99 813.04,-355.69 821.75,-345.86"/>
<polygon fill="black" stroke="black" points="824.39,-348.16 828.4,-338.36 819.15,-343.52 824.39,-348.16"/>
</g>
<!-- librsvg -->
<g id="node15" class="node">
<title>librsvg</title>
<g id="a_node15"><a xlink:href="https://github.com/conda-forge/librsvg-feedstock" xlink:title="librsvg">
<ellipse fill="#fde725" stroke="black" cx="807" cy="-250" rx="35.19" ry="18"/>
<text text-anchor="middle" x="807" y="-246.3" font-family="Times,serif" font-size="14.00">librsvg</text>
</a>
</g>
</g>
<!-- pango&#45;&gt;librsvg -->
<g id="edge8" class="edge">
<title>pango&#45;&gt;librsvg</title>
<path fill="none" stroke="black" d="M833.71,-304.41C829.62,-296.25 824.61,-286.22 820.03,-277.07"/>
<polygon fill="black" stroke="black" points="823.08,-275.34 815.48,-267.96 816.82,-278.47 823.08,-275.34"/>
</g>
<!-- r&#45;base -->
<g id="node16" class="node">
<title>r&#45;base</title>
<g id="a_node16"><a xlink:href="https://github.com/conda-forge/r-base-feedstock" xlink:title="r base">
<ellipse fill="#fde725" stroke="black" cx="870" cy="-178" rx="32" ry="18"/>
<text text-anchor="middle" x="870" y="-174.3" font-family="Times,serif" font-size="14.00">r base</text>
</a>
</g>
</g>
<!-- pango&#45;&gt;r&#45;base -->
<g id="edge9" class="edge">
<title>pango&#45;&gt;r&#45;base</title>
<path fill="none" stroke="black" d="M845.38,-303.87C850.17,-279.56 858.99,-234.82 864.67,-206.01"/>
<polygon fill="black" stroke="black" points="868.11,-206.68 866.61,-196.19 861.24,-205.32 868.11,-206.68"/>
</g>
<!-- librsvg&#45;&gt;emacs -->
<g id="edge15" class="edge">
<title>librsvg&#45;&gt;emacs</title>
<path fill="none" stroke="black" d="M794.71,-232.76C788.09,-224.02 779.78,-213.05 772.4,-203.31"/>
<polygon fill="black" stroke="black" points="775.05,-201.01 766.23,-195.15 769.47,-205.23 775.05,-201.01"/>
</g>
<!-- harfbuzz -->
<g id="node17" class="node">
<title>harfbuzz</title>
<g id="a_node17"><a xlink:href="https://github.com/conda-forge/harfbuzz-feedstock/pull/58" xlink:title="harfbuzz ❎">
<ellipse fill="#31688e" stroke="black" cx="905" cy="-466" rx="53.5" ry="18"/>
<text text-anchor="middle" x="905" y="-462.3" font-family="Times,serif" font-size="14.00" fill="white">harfbuzz ❎</text>
</a>
</g>
</g>
<!-- harfbuzz&#45;&gt;pango -->
<g id="edge10" class="edge">
<title>harfbuzz&#45;&gt;pango</title>
<path fill="none" stroke="black" d="M903.78,-447.81C901.93,-429.28 897.31,-399.31 886,-376 880.65,-364.96 872.52,-354.26 864.7,-345.39"/>
<polygon fill="black" stroke="black" points="867.05,-342.78 857.69,-337.81 861.91,-347.53 867.05,-342.78"/>
</g>
<!-- ipykernel -->
<g id="node18" class="node">
<title>ipykernel</title>
<g id="a_node18"><a xlink:href="https://github.com/conda-forge/ipykernel-feedstock" xlink:title="ipykernel">
<ellipse fill="#fde725" stroke="black" cx="204" cy="-250" rx="44.39" ry="18"/>
<text text-anchor="middle" x="204" y="-246.3" font-family="Times,serif" font-size="14.00">ipykernel</text>
</a>
</g>
</g>
<!-- ipykernel&#45;&gt;notebook -->
<g id="edge11" class="edge">
<title>ipykernel&#45;&gt;notebook</title>
<path fill="none" stroke="black" d="M220.34,-233.12C229.82,-223.9 241.93,-212.13 252.43,-201.92"/>
<polygon fill="black" stroke="black" points="255,-204.3 259.73,-194.82 250.12,-199.28 255,-204.3"/>
</g>
<!-- jupyter_core -->
<g id="node19" class="node">
<title>jupyter_core</title>
<g id="a_node19"><a xlink:href="https://github.com/conda-forge/jupyter_core-feedstock" xlink:title="jupyter_core">
<ellipse fill="#35b779" stroke="black" cx="114" cy="-322" rx="55.49" ry="18"/>
<text text-anchor="middle" x="114" y="-318.3" font-family="Times,serif" font-size="14.00">jupyter_core</text>
</a>
</g>
</g>
<!-- jupyter_core&#45;&gt;notebook -->
<g id="edge12" class="edge">
<title>jupyter_core&#45;&gt;notebook</title>
<path fill="none" stroke="black" d="M117.09,-303.75C121.45,-284.04 131.19,-251.95 151,-232 171.89,-210.96 202.44,-197.8 228.1,-189.85"/>
<polygon fill="black" stroke="black" points="229.41,-193.12 238.03,-186.96 227.45,-186.4 229.41,-193.12"/>
</g>
<!-- jupyter_core&#45;&gt;nbconvert -->
<g id="edge13" class="edge">
<title>jupyter_core&#45;&gt;nbconvert</title>
<path fill="none" stroke="black" d="M153.5,-309.28C195.13,-296.93 260.63,-277.51 304.42,-264.52"/>
<polygon fill="black" stroke="black" points="305.65,-267.81 314.24,-261.61 303.66,-261.1 305.65,-267.81"/>
</g>
<!-- jupyter_core&#45;&gt;ipykernel -->
<g id="edge14" class="edge">
<title>jupyter_core&#45;&gt;ipykernel</title>
<path fill="none" stroke="black" d="M134.42,-305.12C146.79,-295.5 162.73,-283.1 176.24,-272.59"/>
<polygon fill="black" stroke="black" points="178.53,-275.24 184.28,-266.34 174.23,-269.72 178.53,-275.24"/>
</g>
<!-- libsodium -->
<g id="node20" class="node">
<title>libsodium</title>
<g id="a_node20"><a xlink:href="https://github.com/conda-forge/libsodium-feedstock" xlink:title="libsodium">
<ellipse fill="#35b779" stroke="black" cx="218" cy="-466" rx="46.29" ry="18"/>
<text text-anchor="middle" x="218" y="-462.3" font-family="Times,serif" font-size="14.00">libsodium</text>
</a>
</g>
</g>
<!-- pyzmq -->
<g id="node21" class="node">
<title>pyzmq</title>
<g id="a_node21"><a xlink:href="https://github.com/conda-forge/pyzmq-feedstock" xlink:title="pyzmq">
<ellipse fill="#fde725" stroke="black" cx="222" cy="-322" rx="35.19" ry="18"/>
<text text-anchor="middle" x="222" y="-318.3" font-family="Times,serif" font-size="14.00">pyzmq</text>
</a>
</g>
</g>
<!-- libsodium&#45;&gt;pyzmq -->
<g id="edge16" class="edge">
<title>libsodium&#45;&gt;pyzmq</title>
<path fill="none" stroke="black" d="M212.32,-448.04C209.18,-437.74 205.59,-424.27 204,-412 201.94,-396.13 201.39,-391.79 204,-376 205.46,-367.14 208.22,-357.77 211.14,-349.41"/>
<polygon fill="black" stroke="black" points="214.5,-350.41 214.71,-339.82 207.94,-347.97 214.5,-350.41"/>
</g>
<!-- zeromq -->
<g id="node22" class="node">
<title>zeromq</title>
<g id="a_node22"><a xlink:href="https://github.com/conda-forge/zeromq-feedstock" xlink:title="zeromq">
<ellipse fill="#fde725" stroke="black" cx="251" cy="-394" rx="37.89" ry="18"/>
<text text-anchor="middle" x="251" y="-390.3" font-family="Times,serif" font-size="14.00">zeromq</text>
</a>
</g>
</g>
<!-- libsodium&#45;&gt;zeromq -->
<g id="edge17" class="edge">
<title>libsodium&#45;&gt;zeromq</title>
<path fill="none" stroke="black" d="M225.99,-448.05C229.8,-439.97 234.44,-430.12 238.69,-421.11"/>
<polygon fill="black" stroke="black" points="241.99,-422.33 243.09,-411.79 235.66,-419.34 241.99,-422.33"/>
</g>
<!-- pyzmq&#45;&gt;notebook -->
<g id="edge18" class="edge">
<title>pyzmq&#45;&gt;notebook</title>
<path fill="none" stroke="black" d="M234.72,-305.19C242.24,-295.09 251.37,-281.42 257,-268 265.28,-248.24 270.12,-224.44 272.84,-206.42"/>
<polygon fill="black" stroke="black" points="276.34,-206.68 274.24,-196.3 269.41,-205.73 276.34,-206.68"/>
</g>
<!-- pyzmq&#45;&gt;nbconvert -->
<g id="edge19" class="edge">
<title>pyzmq&#45;&gt;nbconvert</title>
<path fill="none" stroke="black" d="M245.18,-308.32C264.81,-297.59 293.23,-282.05 315.53,-269.85"/>
<polygon fill="black" stroke="black" points="317.26,-272.89 324.36,-265.02 313.9,-266.75 317.26,-272.89"/>
</g>
<!-- pyzmq&#45;&gt;ipykernel -->
<g id="edge20" class="edge">
<title>pyzmq&#45;&gt;ipykernel</title>
<path fill="none" stroke="black" d="M217.64,-304.05C215.64,-296.26 213.21,-286.82 210.96,-278.08"/>
<polygon fill="black" stroke="black" points="214.32,-277.09 208.44,-268.28 207.54,-278.83 214.32,-277.09"/>
</g>
<!-- zeromq&#45;&gt;pyzmq -->
<g id="edge21" class="edge">
<title>zeromq&#45;&gt;pyzmq</title>
<path fill="none" stroke="black" d="M243.98,-376.05C240.63,-367.97 236.55,-358.12 232.82,-349.11"/>
<polygon fill="black" stroke="black" points="236.02,-347.69 228.96,-339.79 229.55,-350.37 236.02,-347.69"/>
</g>
<!-- mistune -->
<g id="node23" class="node">
<title>mistune</title>
<g id="a_node23"><a xlink:href="https://github.com/conda-forge/mistune-feedstock" xlink:title="mistune">
<ellipse fill="#35b779" stroke="black" cx="374" cy="-394" rx="39" ry="18"/>
<text text-anchor="middle" x="374" y="-390.3" font-family="Times,serif" font-size="14.00">mistune</text>
</a>
</g>
</g>
<!-- mistune&#45;&gt;nbconvert -->
<g id="edge22" class="edge">
<title>mistune&#45;&gt;nbconvert</title>
<path fill="none" stroke="black" d="M379.82,-375.93C385.13,-357.75 391.13,-328.32 384,-304 381.08,-294.03 375.64,-284.17 369.96,-275.7"/>
<polygon fill="black" stroke="black" points="372.71,-273.53 364.05,-267.43 367.02,-277.6 372.71,-273.53"/>
</g>
<!-- nettle -->
<g id="node24" class="node">
<title>nettle</title>
<g id="a_node24"><a xlink:href="https://github.com/conda-forge/nettle-feedstock/pull/7" xlink:title="nettle ❎">
<ellipse fill="#31688e" stroke="black" cx="721" cy="-322" rx="42.49" ry="18"/>
<text text-anchor="middle" x="721" y="-318.3" font-family="Times,serif" font-size="14.00" fill="white">nettle ❎</text>
</a>
</g>
</g>
<!-- nettle&#45;&gt;gnutls -->
<g id="edge23" class="edge">
<title>nettle&#45;&gt;gnutls</title>
<path fill="none" stroke="black" d="M721,-303.7C721,-295.98 721,-286.71 721,-278.11"/>
<polygon fill="black" stroke="black" points="724.5,-278.1 721,-268.1 717.5,-278.1 724.5,-278.1"/>
</g>
<!-- pandoc -->
<g id="node25" class="node">
<title>pandoc</title>
<g id="a_node25"><a xlink:href="https://github.com/conda-forge/pandoc-feedstock" xlink:title="pandoc">
<ellipse fill="#35b779" stroke="black" cx="441" cy="-466" rx="36.5" ry="18"/>
<text text-anchor="middle" x="441" y="-462.3" font-family="Times,serif" font-size="14.00">pandoc</text>
</a>
</g>
</g>
<!-- pandoc&#45;&gt;nbconvert -->
<g id="edge24" class="edge">
<title>pandoc&#45;&gt;nbconvert</title>
<path fill="none" stroke="black" d="M439.58,-447.87C436.39,-417.14 426.64,-351.42 399,-304 392.66,-293.11 383.74,-282.6 375.24,-273.85"/>
<polygon fill="black" stroke="black" points="377.53,-271.2 367.96,-266.65 372.61,-276.17 377.53,-271.2"/>
</g>
<!-- terminado -->
<g id="node26" class="node">
<title>terminado</title>
<g id="a_node26"><a xlink:href="https://github.com/conda-forge/terminado-feedstock" xlink:title="terminado">
<ellipse fill="#35b779" stroke="black" cx="624" cy="-322" rx="47" ry="18"/>
<text text-anchor="middle" x="624" y="-318.3" font-family="Times,serif" font-size="14.00">terminado</text>
</a>
</g>
</g>
<!-- terminado&#45;&gt;notebook -->
<g id="edge25" class="edge">
<title>terminado&#45;&gt;notebook</title>
<path fill="none" stroke="black" d="M598.34,-306.75C563.93,-288 500.6,-254.76 444,-232 403.32,-215.64 355.53,-200.98 321.33,-191.25"/>
<polygon fill="black" stroke="black" points="322.2,-187.86 311.63,-188.52 320.3,-194.6 322.2,-187.86"/>
</g>
<!-- trio -->
<g id="node27" class="node">
<title>trio</title>
<g id="a_node27"><a xlink:href="https://github.com/conda-forge/trio-feedstock" xlink:title="trio">
<ellipse fill="#fde725" stroke="black" cx="1049" cy="-62" rx="27" ry="18"/>
<text text-anchor="middle" x="1049" y="-58.3" font-family="Times,serif" font-size="14.00">trio</text>
</a>
</g>
</g>
<!-- sniffio -->
<g id="node28" class="node">
<title>sniffio</title>
<g id="a_node28"><a xlink:href="https://github.com/conda-forge/sniffio-feedstock" xlink:title="sniffio">
<ellipse fill="#35b779" stroke="black" cx="1049" cy="-134" rx="34" ry="18"/>
<text text-anchor="middle" x="1049" y="-130.3" font-family="Times,serif" font-size="14.00">sniffio</text>
</a>
</g>
</g>
<!-- sniffio&#45;&gt;trio -->
<g id="edge26" class="edge">
<title>sniffio&#45;&gt;trio</title>
<path fill="none" stroke="black" d="M1049,-115.7C1049,-107.98 1049,-98.71 1049,-90.11"/>
<polygon fill="black" stroke="black" points="1052.5,-90.1 1049,-80.1 1045.5,-90.1 1052.5,-90.1"/>
</g>
<!-- pyrsistent -->
<g id="node29" class="node">
<title>pyrsistent</title>
<g id="a_node29"><a xlink:href="https://github.com/conda-forge/pyrsistent-feedstock" xlink:title="pyrsistent">
<ellipse fill="#35b779" stroke="black" cx="514" cy="-322" rx="45" ry="18"/>
<text text-anchor="middle" x="514" y="-318.3" font-family="Times,serif" font-size="14.00">pyrsistent</text>
</a>
</g>
</g>
<!-- pyrsistent&#45;&gt;notebook -->
<g id="edge27" class="edge">
<title>pyrsistent&#45;&gt;notebook</title>
<path fill="none" stroke="black" d="M497.8,-305.15C477.47,-285.91 440.89,-253.38 405,-232 377.79,-215.79 344.72,-202.31 318.87,-193"/>
<polygon fill="black" stroke="black" points="319.94,-189.67 309.34,-189.64 317.61,-196.27 319.94,-189.67"/>
</g>
<!-- pyrsistent&#45;&gt;nbconvert -->
<g id="edge28" class="edge">
<title>pyrsistent&#45;&gt;nbconvert</title>
<path fill="none" stroke="black" d="M484.3,-308.32C457.76,-297 418.68,-280.32 389.51,-267.87"/>
<polygon fill="black" stroke="black" points="390.6,-264.53 380.03,-263.82 387.86,-270.96 390.6,-264.53"/>
</g>
<!-- conda&#45;standalone -->
<g id="node30" class="node">
<title>conda&#45;standalone</title>
<g id="a_node30"><a xlink:href="https://github.com/conda-forge/conda-standalone-feedstock/pull/10" xlink:title="conda standalone ❎">
<ellipse fill="#31688e" stroke="black" cx="1049" cy="-358" rx="83.39" ry="18"/>
<text text-anchor="middle" x="1049" y="-354.3" font-family="Times,serif" font-size="14.00" fill="white">conda standalone ❎</text>
</a>
</g>
</g>
<!-- conda&#45;standalone&#45;&gt;constructor -->
<g id="edge29" class="edge">
<title>conda&#45;standalone&#45;&gt;constructor</title>
<path fill="none" stroke="black" d="M1049,-339.7C1049,-331.98 1049,-322.71 1049,-314.11"/>
<polygon fill="black" stroke="black" points="1052.5,-314.1 1049,-304.1 1045.5,-314.1 1052.5,-314.1"/>
</g>
</g>
</svg>
