<?xml version="1.0" encoding="UTF-8" standalone="no"?>
<!DOCTYPE svg PUBLIC "-//W3C//DTD SVG 1.1//EN"
 "http://www.w3.org/Graphics/SVG/1.1/DTD/svg11.dtd">
<!-- Generated by graphviz version 2.42.3 (20191010.1750)
 -->
<!-- Title: %3 Pages: 1 -->
<svg width="1187pt" height="520pt"
 viewBox="0.00 0.00 1187.39 520.00" xmlns="http://www.w3.org/2000/svg" xmlns:xlink="http://www.w3.org/1999/xlink">
<g id="graph0" class="graph" transform="scale(1 1) rotate(0) translate(4 516)">
<title>%3</title>
<polygon fill="white" stroke="transparent" points="-4,4 -4,-516 1183.39,-516 1183.39,4 -4,4"/>
<!-- autoconf -->
<g id="node1" class="node">
<title>autoconf</title>
<g id="a_node1"><a xlink:href="https://github.com/conda-forge/autoconf-feedstock" xlink:title="autoconf">
<ellipse fill="#fde725" stroke="black" cx="870.2" cy="-278" rx="41.69" ry="18"/>
<text text-anchor="middle" x="870.2" y="-274.3" font-family="Times,serif" font-size="14.00">autoconf</text>
</a>
</g>
</g>
<!-- automake -->
<g id="node2" class="node">
<title>automake</title>
<g id="a_node2"><a xlink:href="https://github.com/conda-forge/automake-feedstock" xlink:title="automake">
<ellipse fill="#fde725" stroke="black" cx="879.2" cy="-206" rx="45.5" ry="18"/>
<text text-anchor="middle" x="879.2" y="-202.3" font-family="Times,serif" font-size="14.00">automake</text>
</a>
</g>
</g>
<!-- autoconf&#45;&gt;automake -->
<g id="edge1" class="edge">
<title>autoconf&#45;&gt;automake</title>
<path fill="none" stroke="black" d="M872.42,-259.7C873.41,-251.98 874.6,-242.71 875.71,-234.11"/>
<polygon fill="black" stroke="black" points="879.19,-234.47 877,-224.1 872.25,-233.58 879.19,-234.47"/>
</g>
<!-- cairo -->
<g id="node3" class="node">
<title>cairo</title>
<g id="a_node3"><a xlink:href="https://github.com/conda-forge/cairo-feedstock" xlink:title="cairo">
<ellipse fill="#fde725" stroke="black" cx="303.2" cy="-422" rx="28.7" ry="18"/>
<text text-anchor="middle" x="303.2" y="-418.3" font-family="Times,serif" font-size="14.00">cairo</text>
</a>
</g>
</g>
<!-- gobject&#45;introspection -->
<g id="node4" class="node">
<title>gobject&#45;introspection</title>
<g id="a_node4"><a xlink:href="https://github.com/conda-forge/gobject-introspection-feedstock" xlink:title="gobject introspection">
<ellipse fill="#fde725" stroke="black" cx="416.2" cy="-350" rx="85.29" ry="18"/>
<text text-anchor="middle" x="416.2" y="-346.3" font-family="Times,serif" font-size="14.00">gobject introspection</text>
</a>
</g>
</g>
<!-- cairo&#45;&gt;gobject&#45;introspection -->
<g id="edge2" class="edge">
<title>cairo&#45;&gt;gobject&#45;introspection</title>
<path fill="none" stroke="black" d="M322.88,-408.81C339,-398.82 362.21,-384.45 381.44,-372.53"/>
<polygon fill="black" stroke="black" points="383.3,-375.49 389.96,-367.25 379.62,-369.54 383.3,-375.49"/>
</g>
<!-- harfbuzz -->
<g id="node5" class="node">
<title>harfbuzz</title>
<g id="a_node5"><a xlink:href="https://github.com/conda-forge/harfbuzz-feedstock" xlink:title="harfbuzz">
<ellipse fill="#fde725" stroke="black" cx="195.2" cy="-350" rx="41.69" ry="18"/>
<text text-anchor="middle" x="195.2" y="-346.3" font-family="Times,serif" font-size="14.00">harfbuzz</text>
</a>
</g>
</g>
<!-- cairo&#45;&gt;harfbuzz -->
<g id="edge3" class="edge">
<title>cairo&#45;&gt;harfbuzz</title>
<path fill="none" stroke="black" d="M283.89,-408.49C267.76,-398.03 244.46,-382.93 225.79,-370.83"/>
<polygon fill="black" stroke="black" points="227.61,-367.84 217.32,-365.34 223.8,-373.71 227.61,-367.84"/>
</g>
<!-- librsvg -->
<g id="node6" class="node">
<title>librsvg</title>
<g id="a_node6"><a xlink:href="https://github.com/conda-forge/librsvg-feedstock" xlink:title="librsvg">
<ellipse fill="#fde725" stroke="black" cx="342.2" cy="-206" rx="35.19" ry="18"/>
<text text-anchor="middle" x="342.2" y="-202.3" font-family="Times,serif" font-size="14.00">librsvg</text>
</a>
</g>
</g>
<!-- cairo&#45;&gt;librsvg -->
<g id="edge4" class="edge">
<title>cairo&#45;&gt;librsvg</title>
<path fill="none" stroke="black" d="M304.08,-403.86C305.89,-374.19 310.92,-311.51 323.2,-260 325.29,-251.21 328.35,-241.86 331.4,-233.5"/>
<polygon fill="black" stroke="black" points="334.77,-234.49 335.06,-223.9 328.23,-232 334.77,-234.49"/>
</g>
<!-- pango -->
<g id="node7" class="node">
<title>pango</title>
<g id="a_node7"><a xlink:href="https://github.com/conda-forge/pango-feedstock" xlink:title="pango">
<ellipse fill="#fde725" stroke="black" cx="219.2" cy="-278" rx="32.5" ry="18"/>
<text text-anchor="middle" x="219.2" y="-274.3" font-family="Times,serif" font-size="14.00">pango</text>
</a>
</g>
</g>
<!-- cairo&#45;&gt;pango -->
<g id="edge5" class="edge">
<title>cairo&#45;&gt;pango</title>
<path fill="none" stroke="black" d="M293.72,-404.99C279.24,-380.51 251.47,-333.56 234.22,-304.4"/>
<polygon fill="black" stroke="black" points="237.13,-302.44 229.02,-295.61 231.1,-306 237.13,-302.44"/>
</g>
<!-- gobject&#45;introspection&#45;&gt;pango -->
<g id="edge6" class="edge">
<title>gobject&#45;introspection&#45;&gt;pango</title>
<path fill="none" stroke="black" d="M374.42,-334.15C339.06,-321.59 288.9,-303.77 255.26,-291.82"/>
<polygon fill="black" stroke="black" points="256.41,-288.51 245.82,-288.46 254.07,-295.1 256.41,-288.51"/>
</g>
<!-- gdk&#45;pixbuf -->
<g id="node8" class="node">
<title>gdk&#45;pixbuf</title>
<g id="a_node8"><a xlink:href="https://github.com/conda-forge/gdk-pixbuf-feedstock" xlink:title="gdk pixbuf">
<ellipse fill="#fde725" stroke="black" cx="381.2" cy="-278" rx="49.5" ry="18"/>
<text text-anchor="middle" x="381.2" y="-274.3" font-family="Times,serif" font-size="14.00">gdk pixbuf</text>
</a>
</g>
</g>
<!-- gobject&#45;introspection&#45;&gt;gdk&#45;pixbuf -->
<g id="edge7" class="edge">
<title>gobject&#45;introspection&#45;&gt;gdk&#45;pixbuf</title>
<path fill="none" stroke="black" d="M407.72,-332.05C403.64,-323.89 398.65,-313.91 394.11,-304.82"/>
<polygon fill="black" stroke="black" points="397.19,-303.17 389.59,-295.79 390.93,-306.3 397.19,-303.17"/>
</g>
<!-- harfbuzz&#45;&gt;pango -->
<g id="edge8" class="edge">
<title>harfbuzz&#45;&gt;pango</title>
<path fill="none" stroke="black" d="M201.01,-332.05C203.75,-324.06 207.08,-314.33 210.14,-305.4"/>
<polygon fill="black" stroke="black" points="213.51,-306.38 213.44,-295.79 206.89,-304.11 213.51,-306.38"/>
</g>
<!-- emacs -->
<g id="node9" class="node">
<title>emacs</title>
<g id="a_node9"><a xlink:href="https://github.com/conda-forge/emacs-feedstock" xlink:title="emacs">
<ellipse fill="#fde725" stroke="black" cx="490.2" cy="-134" rx="33.29" ry="18"/>
<text text-anchor="middle" x="490.2" y="-130.3" font-family="Times,serif" font-size="14.00">emacs</text>
</a>
</g>
</g>
<!-- librsvg&#45;&gt;emacs -->
<g id="edge9" class="edge">
<title>librsvg&#45;&gt;emacs</title>
<path fill="none" stroke="black" d="M367.3,-193.13C391.94,-181.47 429.67,-163.63 456.83,-150.78"/>
<polygon fill="black" stroke="black" points="458.41,-153.91 465.95,-146.47 455.41,-147.58 458.41,-153.91"/>
</g>
<!-- pango&#45;&gt;librsvg -->
<g id="edge10" class="edge">
<title>pango&#45;&gt;librsvg</title>
<path fill="none" stroke="black" d="M241.19,-264.49C260.53,-253.47 288.93,-237.31 310.69,-224.93"/>
<polygon fill="black" stroke="black" points="312.6,-227.87 319.56,-219.88 309.14,-221.78 312.6,-227.87"/>
</g>
<!-- gdk&#45;pixbuf&#45;&gt;librsvg -->
<g id="edge14" class="edge">
<title>gdk&#45;pixbuf&#45;&gt;librsvg</title>
<path fill="none" stroke="black" d="M371.76,-260.05C367.16,-251.8 361.53,-241.7 356.42,-232.54"/>
<polygon fill="black" stroke="black" points="359.47,-230.82 351.55,-223.79 353.36,-234.23 359.47,-230.82"/>
</g>
<!-- constructor -->
<g id="node10" class="node">
<title>constructor</title>
<g id="a_node10"><a xlink:href="https://github.com/conda-forge/constructor-feedstock" xlink:title="constructor">
<ellipse fill="#fde725" stroke="black" cx="1096.2" cy="-242" rx="50.09" ry="18"/>
<text text-anchor="middle" x="1096.2" y="-238.3" font-family="Times,serif" font-size="14.00">constructor</text>
</a>
</g>
</g>
<!-- dbus -->
<g id="node11" class="node">
<title>dbus</title>
<g id="a_node11"><a xlink:href="https://github.com/conda-forge/dbus-feedstock/pull/19" xlink:title="dbus ❎">
<ellipse fill="#31688e" stroke="black" cx="610.2" cy="-206" rx="39" ry="18"/>
<text text-anchor="middle" x="610.2" y="-202.3" font-family="Times,serif" font-size="14.00" fill="white">dbus ❎</text>
</a>
</g>
</g>
<!-- dbus&#45;&gt;emacs -->
<g id="edge11" class="edge">
<title>dbus&#45;&gt;emacs</title>
<path fill="none" stroke="black" d="M587.06,-191.5C568.19,-180.5 541.39,-164.86 520.76,-152.83"/>
<polygon fill="black" stroke="black" points="522.45,-149.76 512.05,-147.75 518.92,-155.81 522.45,-149.76"/>
</g>
<!-- fontconfig -->
<g id="node12" class="node">
<title>fontconfig</title>
<g id="a_node12"><a xlink:href="https://github.com/conda-forge/fontconfig-feedstock/pull/44" xlink:title="fontconfig ❎">
<ellipse fill="#31688e" stroke="black" cx="146.2" cy="-494" rx="59.29" ry="18"/>
<text text-anchor="middle" x="146.2" y="-490.3" font-family="Times,serif" font-size="14.00" fill="white">fontconfig ❎</text>
</a>
</g>
</g>
<!-- fontconfig&#45;&gt;cairo -->
<g id="edge12" class="edge">
<title>fontconfig&#45;&gt;cairo</title>
<path fill="none" stroke="black" d="M178.27,-478.73C202.23,-468.07 235.77,-453.14 265.2,-440 267.03,-439.18 268.91,-438.34 270.81,-437.49"/>
<polygon fill="black" stroke="black" points="272.59,-440.53 280.29,-433.25 269.73,-434.14 272.59,-440.53"/>
</g>
<!-- fontconfig&#45;&gt;pango -->
<g id="edge13" class="edge">
<title>fontconfig&#45;&gt;pango</title>
<path fill="none" stroke="black" d="M140.57,-475.99C131.37,-444.88 116.75,-377.79 144.2,-332 153.77,-316.03 170.21,-303.6 185.27,-294.81"/>
<polygon fill="black" stroke="black" points="187.3,-297.68 194.39,-289.8 183.94,-291.55 187.3,-297.68"/>
</g>
<!-- git -->
<g id="node13" class="node">
<title>git</title>
<g id="a_node13"><a xlink:href="https://github.com/conda-forge/git-feedstock" xlink:title="git">
<ellipse fill="#fde725" stroke="black" cx="978.2" cy="-206" rx="27" ry="18"/>
<text text-anchor="middle" x="978.2" y="-202.3" font-family="Times,serif" font-size="14.00">git</text>
</a>
</g>
</g>
<!-- gnutls -->
<g id="node14" class="node">
<title>gnutls</title>
<g id="a_node14"><a xlink:href="https://github.com/conda-forge/gnutls-feedstock" xlink:title="gnutls">
<ellipse fill="#fde725" stroke="black" cx="520.2" cy="-206" rx="32.5" ry="18"/>
<text text-anchor="middle" x="520.2" y="-202.3" font-family="Times,serif" font-size="14.00">gnutls</text>
</a>
</g>
</g>
<!-- gnutls&#45;&gt;emacs -->
<g id="edge15" class="edge">
<title>gnutls&#45;&gt;emacs</title>
<path fill="none" stroke="black" d="M513.09,-188.41C509.63,-180.34 505.38,-170.43 501.49,-161.35"/>
<polygon fill="black" stroke="black" points="504.62,-159.77 497.46,-151.96 498.19,-162.53 504.62,-159.77"/>
</g>
<!-- graphite2 -->
<g id="node15" class="node">
<title>graphite2</title>
<g id="a_node15"><a xlink:href="https://github.com/conda-forge/graphite2-feedstock/pull/12" xlink:title="graphite2 ❎">
<ellipse fill="#31688e" stroke="black" cx="200.2" cy="-422" rx="56" ry="18"/>
<text text-anchor="middle" x="200.2" y="-418.3" font-family="Times,serif" font-size="14.00" fill="white">graphite2 ❎</text>
</a>
</g>
</g>
<!-- graphite2&#45;&gt;harfbuzz -->
<g id="edge16" class="edge">
<title>graphite2&#45;&gt;harfbuzz</title>
<path fill="none" stroke="black" d="M198.96,-403.7C198.41,-395.98 197.75,-386.71 197.13,-378.11"/>
<polygon fill="black" stroke="black" points="200.62,-377.83 196.42,-368.1 193.64,-378.33 200.62,-377.83"/>
</g>
<!-- libtiff -->
<g id="node16" class="node">
<title>libtiff</title>
<g id="a_node16"><a xlink:href="https://github.com/conda-forge/libtiff-feedstock" xlink:title="libtiff">
<ellipse fill="#fde725" stroke="black" cx="696.2" cy="-350" rx="30.59" ry="18"/>
<text text-anchor="middle" x="696.2" y="-346.3" font-family="Times,serif" font-size="14.00">libtiff</text>
</a>
</g>
</g>
<!-- libtiff&#45;&gt;gdk&#45;pixbuf -->
<g id="edge18" class="edge">
<title>libtiff&#45;&gt;gdk&#45;pixbuf</title>
<path fill="none" stroke="black" d="M667.48,-343.44C620.74,-334.27 525.35,-315.09 445.2,-296 439.95,-294.75 434.49,-293.39 429.05,-292"/>
<polygon fill="black" stroke="black" points="429.92,-288.61 419.36,-289.48 428.16,-295.38 429.92,-288.61"/>
</g>
<!-- libtiff&#45;&gt;emacs -->
<g id="edge17" class="edge">
<title>libtiff&#45;&gt;emacs</title>
<path fill="none" stroke="black" d="M666.04,-346.19C611.8,-340.43 501.24,-325.32 478.2,-296 447.77,-257.29 464.75,-195.9 478.4,-161.18"/>
<polygon fill="black" stroke="black" points="481.72,-162.3 482.3,-151.73 475.25,-159.64 481.72,-162.3"/>
</g>
<!-- pillow -->
<g id="node17" class="node">
<title>pillow</title>
<g id="a_node17"><a xlink:href="https://github.com/conda-forge/pillow-feedstock" xlink:title="pillow">
<ellipse fill="#fde725" stroke="black" cx="707.2" cy="-134" rx="33.29" ry="18"/>
<text text-anchor="middle" x="707.2" y="-130.3" font-family="Times,serif" font-size="14.00">pillow</text>
</a>
</g>
</g>
<!-- libtiff&#45;&gt;pillow -->
<g id="edge19" class="edge">
<title>libtiff&#45;&gt;pillow</title>
<path fill="none" stroke="black" d="M695.28,-331.56C693.95,-301.95 692.17,-240.03 697.2,-188 698.02,-179.48 699.53,-170.29 701.13,-161.99"/>
<polygon fill="black" stroke="black" points="704.58,-162.57 703.16,-152.07 697.73,-161.17 704.58,-162.57"/>
</g>
<!-- libwebp -->
<g id="node18" class="node">
<title>libwebp</title>
<g id="a_node18"><a xlink:href="https://github.com/conda-forge/libwebp-feedstock" xlink:title="libwebp">
<ellipse fill="#fde725" stroke="black" cx="782.2" cy="-278" rx="39" ry="18"/>
<text text-anchor="middle" x="782.2" y="-274.3" font-family="Times,serif" font-size="14.00">libwebp</text>
</a>
</g>
</g>
<!-- libtiff&#45;&gt;libwebp -->
<g id="edge20" class="edge">
<title>libtiff&#45;&gt;libwebp</title>
<path fill="none" stroke="black" d="M709.56,-333.46C720.85,-323.3 737.14,-309.91 751.51,-298.96"/>
<polygon fill="black" stroke="black" points="753.79,-301.63 759.7,-292.83 749.59,-296.02 753.79,-301.63"/>
</g>
<!-- lcms2 -->
<g id="node19" class="node">
<title>lcms2</title>
<g id="a_node19"><a xlink:href="https://github.com/conda-forge/lcms2-feedstock" xlink:title="lcms2">
<ellipse fill="#fde725" stroke="black" cx="738.2" cy="-206" rx="32.5" ry="18"/>
<text text-anchor="middle" x="738.2" y="-202.3" font-family="Times,serif" font-size="14.00">lcms2</text>
</a>
</g>
</g>
<!-- libtiff&#45;&gt;lcms2 -->
<g id="edge21" class="edge">
<title>libtiff&#45;&gt;lcms2</title>
<path fill="none" stroke="black" d="M701.18,-332.15C708.38,-307.81 721.76,-262.57 730.31,-233.67"/>
<polygon fill="black" stroke="black" points="733.74,-234.41 733.22,-223.82 727.03,-232.42 733.74,-234.41"/>
</g>
<!-- matplotlib -->
<g id="node20" class="node">
<title>matplotlib</title>
<g id="a_node20"><a xlink:href="https://github.com/conda-forge/matplotlib-feedstock" xlink:title="matplotlib">
<ellipse fill="#fde725" stroke="black" cx="707.2" cy="-62" rx="47.5" ry="18"/>
<text text-anchor="middle" x="707.2" y="-58.3" font-family="Times,serif" font-size="14.00">matplotlib</text>
</a>
</g>
</g>
<!-- pillow&#45;&gt;matplotlib -->
<g id="edge22" class="edge">
<title>pillow&#45;&gt;matplotlib</title>
<path fill="none" stroke="black" d="M707.2,-115.7C707.2,-107.98 707.2,-98.71 707.2,-90.11"/>
<polygon fill="black" stroke="black" points="710.7,-90.1 707.2,-80.1 703.7,-90.1 710.7,-90.1"/>
</g>
<!-- libwebp&#45;&gt;libtiff -->
<g id="edge23" class="edge">
<title>libwebp&#45;&gt;libtiff</title>
<path fill="none" stroke="black" d="M768.2,-295.1C756.47,-305.62 739.64,-319.39 725.11,-330.38"/>
<polygon fill="black" stroke="black" points="722.83,-327.72 716.89,-336.49 727,-333.34 722.83,-327.72"/>
</g>
<!-- lcms2&#45;&gt;pillow -->
<g id="edge24" class="edge">
<title>lcms2&#45;&gt;pillow</title>
<path fill="none" stroke="black" d="M730.85,-188.41C727.27,-180.34 722.89,-170.43 718.87,-161.35"/>
<polygon fill="black" stroke="black" points="721.95,-159.68 714.71,-151.96 715.55,-162.52 721.95,-159.68"/>
</g>
<!-- libtool -->
<g id="node21" class="node">
<title>libtool</title>
<g id="a_node21"><a xlink:href="https://github.com/conda-forge/libtool-feedstock/pull/26" xlink:title="libtool ❎">
<ellipse fill="#31688e" stroke="black" cx="410.2" cy="-18" rx="45.5" ry="18"/>
<text text-anchor="middle" x="410.2" y="-14.3" font-family="Times,serif" font-size="14.00" fill="white">libtool ❎</text>
</a>
</g>
</g>
<!-- nettle -->
<g id="node22" class="node">
<title>nettle</title>
<g id="a_node22"><a xlink:href="https://github.com/conda-forge/nettle-feedstock/pull/7" xlink:title="nettle ❎">
<ellipse fill="#31688e" stroke="black" cx="529.2" cy="-278" rx="42.49" ry="18"/>
<text text-anchor="middle" x="529.2" y="-274.3" font-family="Times,serif" font-size="14.00" fill="white">nettle ❎</text>
</a>
</g>
</g>
<!-- nettle&#45;&gt;gnutls -->
<g id="edge25" class="edge">
<title>nettle&#45;&gt;gnutls</title>
<path fill="none" stroke="black" d="M526.97,-259.7C525.98,-251.98 524.79,-242.71 523.68,-234.11"/>
<polygon fill="black" stroke="black" points="527.14,-233.58 522.4,-224.1 520.2,-234.47 527.14,-233.58"/>
</g>
<!-- perl -->
<g id="node23" class="node">
<title>perl</title>
<g id="a_node23"><a xlink:href="https://github.com/conda-forge/perl-feedstock/pull/45" xlink:title="perl ❎">
<ellipse fill="#31688e" stroke="black" cx="940.2" cy="-350" rx="36.5" ry="18"/>
<text text-anchor="middle" x="940.2" y="-346.3" font-family="Times,serif" font-size="14.00" fill="white">perl ❎</text>
</a>
</g>
</g>
<!-- perl&#45;&gt;autoconf -->
<g id="edge26" class="edge">
<title>perl&#45;&gt;autoconf</title>
<path fill="none" stroke="black" d="M924.66,-333.46C915.46,-324.26 903.62,-312.42 893.33,-302.13"/>
<polygon fill="black" stroke="black" points="895.72,-299.57 886.17,-294.98 890.77,-304.52 895.72,-299.57"/>
</g>
<!-- perl&#45;&gt;automake -->
<g id="edge27" class="edge">
<title>perl&#45;&gt;automake</title>
<path fill="none" stroke="black" d="M938.88,-331.86C936.93,-313.37 932.24,-283.44 921.2,-260 916.34,-249.7 909.14,-239.59 902.06,-231.02"/>
<polygon fill="black" stroke="black" points="904.58,-228.58 895.39,-223.3 899.28,-233.16 904.58,-228.58"/>
</g>
<!-- perl&#45;&gt;git -->
<g id="edge28" class="edge">
<title>perl&#45;&gt;git</title>
<path fill="none" stroke="black" d="M944.78,-331.87C951.28,-307.56 963.26,-262.82 970.97,-234.01"/>
<polygon fill="black" stroke="black" points="974.39,-234.75 973.6,-224.19 967.63,-232.94 974.39,-234.75"/>
</g>
<!-- pixman -->
<g id="node24" class="node">
<title>pixman</title>
<g id="a_node24"><a xlink:href="https://github.com/conda-forge/pixman-feedstock/pull/18" xlink:title="pixman ❎">
<ellipse fill="#31688e" stroke="black" cx="303.2" cy="-494" rx="49.5" ry="18"/>
<text text-anchor="middle" x="303.2" y="-490.3" font-family="Times,serif" font-size="14.00" fill="white">pixman ❎</text>
</a>
</g>
</g>
<!-- pixman&#45;&gt;cairo -->
<g id="edge29" class="edge">
<title>pixman&#45;&gt;cairo</title>
<path fill="none" stroke="black" d="M303.2,-475.7C303.2,-467.98 303.2,-458.71 303.2,-450.11"/>
<polygon fill="black" stroke="black" points="306.7,-450.1 303.2,-440.1 299.7,-450.1 306.7,-450.1"/>
</g>
<!-- fribidi -->
<g id="node25" class="node">
<title>fribidi</title>
<g id="a_node25"><a xlink:href="https://github.com/conda-forge/fribidi-feedstock/pull/10" xlink:title="fribidi ❎">
<ellipse fill="#31688e" stroke="black" cx="44.2" cy="-350" rx="44.39" ry="18"/>
<text text-anchor="middle" x="44.2" y="-346.3" font-family="Times,serif" font-size="14.00" fill="white">fribidi ❎</text>
</a>
</g>
</g>
<!-- fribidi&#45;&gt;pango -->
<g id="edge30" class="edge">
<title>fribidi&#45;&gt;pango</title>
<path fill="none" stroke="black" d="M74.68,-336.81C105.21,-324.6 152.14,-305.82 184.18,-293.01"/>
<polygon fill="black" stroke="black" points="185.62,-296.2 193.61,-289.23 183.02,-289.7 185.62,-296.2"/>
</g>
<!-- conda&#45;standalone -->
<g id="node26" class="node">
<title>conda&#45;standalone</title>
<g id="a_node26"><a xlink:href="https://github.com/conda-forge/conda-standalone-feedstock/pull/10" xlink:title="conda standalone ❎">
<ellipse fill="#31688e" stroke="black" cx="1096.2" cy="-314" rx="83.39" ry="18"/>
<text text-anchor="middle" x="1096.2" y="-310.3" font-family="Times,serif" font-size="14.00" fill="white">conda standalone ❎</text>
</a>
</g>
</g>
<!-- conda&#45;standalone&#45;&gt;constructor -->
<g id="edge31" class="edge">
<title>conda&#45;standalone&#45;&gt;constructor</title>
<path fill="none" stroke="black" d="M1096.2,-295.7C1096.2,-287.98 1096.2,-278.71 1096.2,-270.11"/>
<polygon fill="black" stroke="black" points="1099.7,-270.1 1096.2,-260.1 1092.7,-270.1 1099.7,-270.1"/>
</g>
</g>
</svg>
