<?xml version="1.0" encoding="UTF-8" standalone="no"?>
<!DOCTYPE svg PUBLIC "-//W3C//DTD SVG 1.1//EN"
 "http://www.w3.org/Graphics/SVG/1.1/DTD/svg11.dtd">
<!-- Generated by graphviz version 2.42.3 (20191010.1750)
 -->
<!-- Title: %3 Pages: 1 -->
<svg width="1707pt" height="404pt"
 viewBox="0.00 0.00 1706.69 404.00" xmlns="http://www.w3.org/2000/svg" xmlns:xlink="http://www.w3.org/1999/xlink">
<g id="graph0" class="graph" transform="scale(1 1) rotate(0) translate(4 400)">
<title>%3</title>
<polygon fill="white" stroke="transparent" points="-4,4 -4,-400 1702.69,-400 1702.69,4 -4,4"/>
<!-- autoconf -->
<g id="node1" class="node">
<title>autoconf</title>
<g id="a_node1"><a xlink:href="https://github.com/conda-forge/autoconf-feedstock" xlink:title="autoconf">
<ellipse fill="#fde725" stroke="black" cx="1389.5" cy="-198" rx="41.69" ry="18"/>
<text text-anchor="middle" x="1389.5" y="-194.3" font-family="Times,serif" font-size="14.00">autoconf</text>
</a>
</g>
</g>
<!-- automake -->
<g id="node2" class="node">
<title>automake</title>
<g id="a_node2"><a xlink:href="https://github.com/conda-forge/automake-feedstock" xlink:title="automake">
<ellipse fill="#fde725" stroke="black" cx="1398.5" cy="-126" rx="45.5" ry="18"/>
<text text-anchor="middle" x="1398.5" y="-122.3" font-family="Times,serif" font-size="14.00">automake</text>
</a>
</g>
</g>
<!-- autoconf&#45;&gt;automake -->
<g id="edge1" class="edge">
<title>autoconf&#45;&gt;automake</title>
<path fill="none" stroke="black" d="M1391.72,-179.7C1392.72,-171.98 1393.91,-162.71 1395.01,-154.11"/>
<polygon fill="black" stroke="black" points="1398.5,-154.47 1396.3,-144.1 1391.55,-153.58 1398.5,-154.47"/>
</g>
<!-- cairo -->
<g id="node3" class="node">
<title>cairo</title>
<g id="a_node3"><a xlink:href="https://github.com/conda-forge/cairo-feedstock" xlink:title="cairo">
<ellipse fill="#fde725" stroke="black" cx="550.5" cy="-306" rx="28.7" ry="18"/>
<text text-anchor="middle" x="550.5" y="-302.3" font-family="Times,serif" font-size="14.00">cairo</text>
</a>
</g>
</g>
<!-- gobject&#45;introspection -->
<g id="node4" class="node">
<title>gobject&#45;introspection</title>
<g id="a_node4"><a xlink:href="https://github.com/conda-forge/gobject-introspection-feedstock" xlink:title="gobject introspection">
<ellipse fill="#fde725" stroke="black" cx="486.5" cy="-234" rx="85.29" ry="18"/>
<text text-anchor="middle" x="486.5" y="-230.3" font-family="Times,serif" font-size="14.00">gobject introspection</text>
</a>
</g>
</g>
<!-- cairo&#45;&gt;gobject&#45;introspection -->
<g id="edge2" class="edge">
<title>cairo&#45;&gt;gobject&#45;introspection</title>
<path fill="none" stroke="black" d="M536.93,-290.15C528.74,-281.2 518.11,-269.58 508.73,-259.31"/>
<polygon fill="black" stroke="black" points="511.18,-256.81 501.85,-251.79 506.01,-261.53 511.18,-256.81"/>
</g>
<!-- harfbuzz -->
<g id="node5" class="node">
<title>harfbuzz</title>
<g id="a_node5"><a xlink:href="https://github.com/conda-forge/harfbuzz-feedstock" xlink:title="harfbuzz">
<ellipse fill="#fde725" stroke="black" cx="341.5" cy="-234" rx="41.69" ry="18"/>
<text text-anchor="middle" x="341.5" y="-230.3" font-family="Times,serif" font-size="14.00">harfbuzz</text>
</a>
</g>
</g>
<!-- cairo&#45;&gt;harfbuzz -->
<g id="edge3" class="edge">
<title>cairo&#45;&gt;harfbuzz</title>
<path fill="none" stroke="black" d="M525.7,-296.7C490.49,-284.9 425.56,-263.15 382.95,-248.88"/>
<polygon fill="black" stroke="black" points="384.02,-245.55 373.43,-245.69 381.8,-252.19 384.02,-245.55"/>
</g>
<!-- librsvg -->
<g id="node6" class="node">
<title>librsvg</title>
<g id="a_node6"><a xlink:href="https://github.com/conda-forge/librsvg-feedstock" xlink:title="librsvg">
<ellipse fill="#fde725" stroke="black" cx="342.5" cy="-90" rx="35.19" ry="18"/>
<text text-anchor="middle" x="342.5" y="-86.3" font-family="Times,serif" font-size="14.00">librsvg</text>
</a>
</g>
</g>
<!-- cairo&#45;&gt;librsvg -->
<g id="edge4" class="edge">
<title>cairo&#45;&gt;librsvg</title>
<path fill="none" stroke="black" d="M522.64,-301.33C458.59,-292.6 305.22,-270.02 290.5,-252 257.27,-211.31 295.85,-148.9 322.12,-114.97"/>
<polygon fill="black" stroke="black" points="324.99,-116.99 328.48,-106.99 319.51,-112.63 324.99,-116.99"/>
</g>
<!-- pango -->
<g id="node7" class="node">
<title>pango</title>
<g id="a_node7"><a xlink:href="https://github.com/conda-forge/pango-feedstock" xlink:title="pango">
<ellipse fill="#fde725" stroke="black" cx="632.5" cy="-162" rx="32.5" ry="18"/>
<text text-anchor="middle" x="632.5" y="-158.3" font-family="Times,serif" font-size="14.00">pango</text>
</a>
</g>
</g>
<!-- cairo&#45;&gt;pango -->
<g id="edge5" class="edge">
<title>cairo&#45;&gt;pango</title>
<path fill="none" stroke="black" d="M578.74,-302.84C610.55,-298.72 660.87,-286.76 684.5,-252 699.87,-229.4 678.39,-202.09 658.56,-183.73"/>
<polygon fill="black" stroke="black" points="660.66,-180.91 650.84,-176.93 656.03,-186.16 660.66,-180.91"/>
</g>
<!-- r&#45;base -->
<g id="node8" class="node">
<title>r&#45;base</title>
<g id="a_node8"><a xlink:href="https://github.com/conda-forge/r-base-feedstock" xlink:title="r base">
<ellipse fill="#fde725" stroke="black" cx="870.5" cy="-90" rx="32" ry="18"/>
<text text-anchor="middle" x="870.5" y="-86.3" font-family="Times,serif" font-size="14.00">r base</text>
</a>
</g>
</g>
<!-- cairo&#45;&gt;r&#45;base -->
<g id="edge6" class="edge">
<title>cairo&#45;&gt;r&#45;base</title>
<path fill="none" stroke="black" d="M577.49,-299.65C608.98,-292.51 661.68,-277.67 700.5,-252 754.81,-216.08 751.2,-187.67 799.5,-144 812.88,-131.9 828.91,-119.76 842.35,-110.16"/>
<polygon fill="black" stroke="black" points="844.59,-112.86 850.75,-104.24 840.56,-107.14 844.59,-112.86"/>
</g>
<!-- gobject&#45;introspection&#45;&gt;pango -->
<g id="edge7" class="edge">
<title>gobject&#45;introspection&#45;&gt;pango</title>
<path fill="none" stroke="black" d="M519.27,-217.29C543.16,-205.83 575.43,-190.36 599.41,-178.87"/>
<polygon fill="black" stroke="black" points="600.97,-182 608.48,-174.52 597.95,-175.69 600.97,-182"/>
</g>
<!-- gdk&#45;pixbuf -->
<g id="node9" class="node">
<title>gdk&#45;pixbuf</title>
<g id="a_node9"><a xlink:href="https://github.com/conda-forge/gdk-pixbuf-feedstock" xlink:title="gdk pixbuf">
<ellipse fill="#fde725" stroke="black" cx="387.5" cy="-162" rx="49.5" ry="18"/>
<text text-anchor="middle" x="387.5" y="-158.3" font-family="Times,serif" font-size="14.00">gdk pixbuf</text>
</a>
</g>
</g>
<!-- gobject&#45;introspection&#45;&gt;gdk&#45;pixbuf -->
<g id="edge8" class="edge">
<title>gobject&#45;introspection&#45;&gt;gdk&#45;pixbuf</title>
<path fill="none" stroke="black" d="M463.29,-216.59C449.63,-206.93 432.2,-194.6 417.5,-184.21"/>
<polygon fill="black" stroke="black" points="419.4,-181.27 409.21,-178.35 415.35,-186.98 419.4,-181.27"/>
</g>
<!-- harfbuzz&#45;&gt;pango -->
<g id="edge9" class="edge">
<title>harfbuzz&#45;&gt;pango</title>
<path fill="none" stroke="black" d="M372.63,-222.05C379.15,-219.92 386.02,-217.79 392.5,-216 461.86,-196.84 543.97,-179.92 591.95,-170.61"/>
<polygon fill="black" stroke="black" points="592.78,-174.01 601.94,-168.69 591.46,-167.14 592.78,-174.01"/>
</g>
<!-- emacs -->
<g id="node10" class="node">
<title>emacs</title>
<g id="a_node10"><a xlink:href="https://github.com/conda-forge/emacs-feedstock" xlink:title="emacs">
<ellipse fill="#fde725" stroke="black" cx="233.5" cy="-18" rx="33.29" ry="18"/>
<text text-anchor="middle" x="233.5" y="-14.3" font-family="Times,serif" font-size="14.00">emacs</text>
</a>
</g>
</g>
<!-- librsvg&#45;&gt;emacs -->
<g id="edge10" class="edge">
<title>librsvg&#45;&gt;emacs</title>
<path fill="none" stroke="black" d="M321.48,-75.5C304.79,-64.78 281.25,-49.67 262.72,-37.77"/>
<polygon fill="black" stroke="black" points="264.39,-34.68 254.08,-32.22 260.61,-40.57 264.39,-34.68"/>
</g>
<!-- pango&#45;&gt;librsvg -->
<g id="edge11" class="edge">
<title>pango&#45;&gt;librsvg</title>
<path fill="none" stroke="black" d="M603.37,-153.97C551.5,-141.45 443.03,-115.27 383.6,-100.92"/>
<polygon fill="black" stroke="black" points="384.34,-97.5 373.8,-98.56 382.7,-104.3 384.34,-97.5"/>
</g>
<!-- pango&#45;&gt;r&#45;base -->
<g id="edge12" class="edge">
<title>pango&#45;&gt;r&#45;base</title>
<path fill="none" stroke="black" d="M660.74,-152.7C703.61,-140.08 785.2,-116.09 833.01,-102.03"/>
<polygon fill="black" stroke="black" points="834.06,-105.37 842.67,-99.19 832.09,-98.65 834.06,-105.37"/>
</g>
<!-- gdk&#45;pixbuf&#45;&gt;librsvg -->
<g id="edge15" class="edge">
<title>gdk&#45;pixbuf&#45;&gt;librsvg</title>
<path fill="none" stroke="black" d="M376.84,-144.41C371.4,-135.95 364.67,-125.49 358.62,-116.08"/>
<polygon fill="black" stroke="black" points="361.44,-113.99 353.09,-107.47 355.55,-117.77 361.44,-113.99"/>
</g>
<!-- constructor -->
<g id="node11" class="node">
<title>constructor</title>
<g id="a_node11"><a xlink:href="https://github.com/conda-forge/constructor-feedstock" xlink:title="constructor">
<ellipse fill="#fde725" stroke="black" cx="1615.5" cy="-162" rx="50.09" ry="18"/>
<text text-anchor="middle" x="1615.5" y="-158.3" font-family="Times,serif" font-size="14.00">constructor</text>
</a>
</g>
</g>
<!-- fontconfig -->
<g id="node12" class="node">
<title>fontconfig</title>
<g id="a_node12"><a xlink:href="https://github.com/conda-forge/fontconfig-feedstock/pull/44" xlink:title="fontconfig ❎">
<ellipse fill="#31688e" stroke="black" cx="614.5" cy="-378" rx="59.29" ry="18"/>
<text text-anchor="middle" x="614.5" y="-374.3" font-family="Times,serif" font-size="14.00" fill="white">fontconfig ❎</text>
</a>
</g>
</g>
<!-- fontconfig&#45;&gt;cairo -->
<g id="edge13" class="edge">
<title>fontconfig&#45;&gt;cairo</title>
<path fill="none" stroke="black" d="M599.33,-360.41C590.93,-351.22 580.37,-339.67 571.22,-329.66"/>
<polygon fill="black" stroke="black" points="573.58,-327.06 564.25,-322.04 568.41,-331.78 573.58,-327.06"/>
</g>
<!-- fontconfig&#45;&gt;pango -->
<g id="edge14" class="edge">
<title>fontconfig&#45;&gt;pango</title>
<path fill="none" stroke="black" d="M630.77,-360.6C651.65,-338.27 686.82,-296.02 700.5,-252 705.25,-236.72 707.52,-230.38 700.5,-216 693.01,-200.66 678.7,-188.48 665.13,-179.67"/>
<polygon fill="black" stroke="black" points="666.77,-176.57 656.41,-174.38 663.14,-182.56 666.77,-176.57"/>
</g>
<!-- git -->
<g id="node13" class="node">
<title>git</title>
<g id="a_node13"><a xlink:href="https://github.com/conda-forge/git-feedstock" xlink:title="git">
<ellipse fill="#fde725" stroke="black" cx="1497.5" cy="-126" rx="27" ry="18"/>
<text text-anchor="middle" x="1497.5" y="-122.3" font-family="Times,serif" font-size="14.00">git</text>
</a>
</g>
</g>
<!-- gnutls -->
<g id="node14" class="node">
<title>gnutls</title>
<g id="a_node14"><a xlink:href="https://github.com/conda-forge/gnutls-feedstock" xlink:title="gnutls">
<ellipse fill="#fde725" stroke="black" cx="168.5" cy="-90" rx="32.5" ry="18"/>
<text text-anchor="middle" x="168.5" y="-86.3" font-family="Times,serif" font-size="14.00">gnutls</text>
</a>
</g>
</g>
<!-- gnutls&#45;&gt;emacs -->
<g id="edge16" class="edge">
<title>gnutls&#45;&gt;emacs</title>
<path fill="none" stroke="black" d="M182.93,-73.46C191.51,-64.22 202.56,-52.32 212.14,-42"/>
<polygon fill="black" stroke="black" points="214.87,-44.2 219.11,-34.49 209.75,-39.44 214.87,-44.2"/>
</g>
<!-- graphite2 -->
<g id="node15" class="node">
<title>graphite2</title>
<g id="a_node15"><a xlink:href="https://github.com/conda-forge/graphite2-feedstock/pull/12" xlink:title="graphite2 ❎">
<ellipse fill="#31688e" stroke="black" cx="341.5" cy="-306" rx="56" ry="18"/>
<text text-anchor="middle" x="341.5" y="-302.3" font-family="Times,serif" font-size="14.00" fill="white">graphite2 ❎</text>
</a>
</g>
</g>
<!-- graphite2&#45;&gt;harfbuzz -->
<g id="edge17" class="edge">
<title>graphite2&#45;&gt;harfbuzz</title>
<path fill="none" stroke="black" d="M341.5,-287.7C341.5,-279.98 341.5,-270.71 341.5,-262.11"/>
<polygon fill="black" stroke="black" points="345,-262.1 341.5,-252.1 338,-262.1 345,-262.1"/>
</g>
<!-- gsl -->
<g id="node16" class="node">
<title>gsl</title>
<g id="a_node16"><a xlink:href="https://github.com/conda-forge/gsl-feedstock/pull/52" xlink:title="gsl ❎">
<ellipse fill="#31688e" stroke="black" cx="840.5" cy="-162" rx="32.5" ry="18"/>
<text text-anchor="middle" x="840.5" y="-158.3" font-family="Times,serif" font-size="14.00" fill="white">gsl ❎</text>
</a>
</g>
</g>
<!-- gsl&#45;&gt;r&#45;base -->
<g id="edge18" class="edge">
<title>gsl&#45;&gt;r&#45;base</title>
<path fill="none" stroke="black" d="M847.61,-144.41C851.07,-136.34 855.32,-126.43 859.21,-117.35"/>
<polygon fill="black" stroke="black" points="862.51,-118.53 863.23,-107.96 856.08,-115.77 862.51,-118.53"/>
</g>
<!-- libtiff -->
<g id="node17" class="node">
<title>libtiff</title>
<g id="a_node17"><a xlink:href="https://github.com/conda-forge/libtiff-feedstock" xlink:title="libtiff">
<ellipse fill="#35b779" stroke="black" cx="212.5" cy="-234" rx="30.59" ry="18"/>
<text text-anchor="middle" x="212.5" y="-230.3" font-family="Times,serif" font-size="14.00">libtiff</text>
</a>
</g>
</g>
<!-- libtiff&#45;&gt;r&#45;base -->
<g id="edge19" class="edge">
<title>libtiff&#45;&gt;r&#45;base</title>
<path fill="none" stroke="black" d="M226.54,-217.87C246.81,-197.14 286.47,-160.59 328.5,-144 419.44,-108.1 717.22,-95.61 828.26,-92.14"/>
<polygon fill="black" stroke="black" points="828.52,-95.64 838.41,-91.83 828.31,-88.64 828.52,-95.64"/>
</g>
<!-- libtiff&#45;&gt;gdk&#45;pixbuf -->
<g id="edge21" class="edge">
<title>libtiff&#45;&gt;gdk&#45;pixbuf</title>
<path fill="none" stroke="black" d="M237.2,-223.12C265.41,-211.83 312.04,-193.19 345.88,-179.65"/>
<polygon fill="black" stroke="black" points="347.52,-182.76 355.5,-175.8 344.92,-176.26 347.52,-182.76"/>
</g>
<!-- libtiff&#45;&gt;emacs -->
<g id="edge20" class="edge">
<title>libtiff&#45;&gt;emacs</title>
<path fill="none" stroke="black" d="M214.18,-215.85C217.82,-178.83 226.42,-91.18 230.81,-46.39"/>
<polygon fill="black" stroke="black" points="234.32,-46.53 231.81,-36.23 227.35,-45.84 234.32,-46.53"/>
</g>
<!-- pillow -->
<g id="node18" class="node">
<title>pillow</title>
<g id="a_node18"><a xlink:href="https://github.com/conda-forge/pillow-feedstock" xlink:title="pillow">
<ellipse fill="#fde725" stroke="black" cx="56.5" cy="-90" rx="33.29" ry="18"/>
<text text-anchor="middle" x="56.5" y="-86.3" font-family="Times,serif" font-size="14.00">pillow</text>
</a>
</g>
</g>
<!-- libtiff&#45;&gt;pillow -->
<g id="edge22" class="edge">
<title>libtiff&#45;&gt;pillow</title>
<path fill="none" stroke="black" d="M186.81,-223.75C165.13,-215 134.24,-200.19 112.5,-180 93.16,-162.04 77.8,-135.98 68.1,-116.7"/>
<polygon fill="black" stroke="black" points="71.19,-115.05 63.67,-107.58 64.89,-118.1 71.19,-115.05"/>
</g>
<!-- lcms2 -->
<g id="node19" class="node">
<title>lcms2</title>
<g id="a_node19"><a xlink:href="https://github.com/conda-forge/lcms2-feedstock" xlink:title="lcms2">
<ellipse fill="#fde725" stroke="black" cx="32.5" cy="-162" rx="32.5" ry="18"/>
<text text-anchor="middle" x="32.5" y="-158.3" font-family="Times,serif" font-size="14.00">lcms2</text>
</a>
</g>
</g>
<!-- libtiff&#45;&gt;lcms2 -->
<g id="edge23" class="edge">
<title>libtiff&#45;&gt;lcms2</title>
<path fill="none" stroke="black" d="M187.47,-223.27C156.39,-211.18 103.17,-190.48 67.92,-176.77"/>
<polygon fill="black" stroke="black" points="69.07,-173.47 58.48,-173.1 66.53,-179.99 69.07,-173.47"/>
</g>
<!-- matplotlib -->
<g id="node20" class="node">
<title>matplotlib</title>
<g id="a_node20"><a xlink:href="https://github.com/conda-forge/matplotlib-feedstock" xlink:title="matplotlib">
<ellipse fill="#fde725" stroke="black" cx="56.5" cy="-18" rx="47.5" ry="18"/>
<text text-anchor="middle" x="56.5" y="-14.3" font-family="Times,serif" font-size="14.00">matplotlib</text>
</a>
</g>
</g>
<!-- pillow&#45;&gt;matplotlib -->
<g id="edge24" class="edge">
<title>pillow&#45;&gt;matplotlib</title>
<path fill="none" stroke="black" d="M56.5,-71.7C56.5,-63.98 56.5,-54.71 56.5,-46.11"/>
<polygon fill="black" stroke="black" points="60,-46.1 56.5,-36.1 53,-46.1 60,-46.1"/>
</g>
<!-- lcms2&#45;&gt;pillow -->
<g id="edge25" class="edge">
<title>lcms2&#45;&gt;pillow</title>
<path fill="none" stroke="black" d="M38.31,-144.05C41.05,-136.06 44.39,-126.33 47.45,-117.4"/>
<polygon fill="black" stroke="black" points="50.81,-118.38 50.74,-107.79 44.19,-116.11 50.81,-118.38"/>
</g>
<!-- nettle -->
<g id="node21" class="node">
<title>nettle</title>
<g id="a_node21"><a xlink:href="https://github.com/conda-forge/nettle-feedstock/pull/7" xlink:title="nettle ❎">
<ellipse fill="#31688e" stroke="black" cx="163.5" cy="-162" rx="42.49" ry="18"/>
<text text-anchor="middle" x="163.5" y="-158.3" font-family="Times,serif" font-size="14.00" fill="white">nettle ❎</text>
</a>
</g>
</g>
<!-- nettle&#45;&gt;gnutls -->
<g id="edge26" class="edge">
<title>nettle&#45;&gt;gnutls</title>
<path fill="none" stroke="black" d="M164.74,-143.7C165.29,-135.98 165.95,-126.71 166.56,-118.11"/>
<polygon fill="black" stroke="black" points="170.06,-118.33 167.28,-108.1 163.07,-117.83 170.06,-118.33"/>
</g>
<!-- pcre2 -->
<g id="node22" class="node">
<title>pcre2</title>
<g id="a_node22"><a xlink:href="https://github.com/conda-forge/pcre2-feedstock" xlink:title="pcre2">
<ellipse fill="#35b779" stroke="black" cx="869.5" cy="-234" rx="30.59" ry="18"/>
<text text-anchor="middle" x="869.5" y="-230.3" font-family="Times,serif" font-size="14.00">pcre2</text>
</a>
</g>
</g>
<!-- pcre2&#45;&gt;r&#45;base -->
<g id="edge27" class="edge">
<title>pcre2&#45;&gt;r&#45;base</title>
<path fill="none" stroke="black" d="M874.77,-216.01C877.69,-205.7 881.02,-192.23 882.5,-180 884.42,-164.12 884.28,-159.9 882.5,-144 881.54,-135.43 879.74,-126.22 877.81,-117.93"/>
<polygon fill="black" stroke="black" points="881.16,-116.89 875.37,-108.02 874.37,-118.57 881.16,-116.89"/>
</g>
<!-- perl -->
<g id="node23" class="node">
<title>perl</title>
<g id="a_node23"><a xlink:href="https://github.com/conda-forge/perl-feedstock/pull/45" xlink:title="perl ✓">
<ellipse fill="#31688e" stroke="black" cx="1459.5" cy="-270" rx="34.5" ry="18"/>
<text text-anchor="middle" x="1459.5" y="-266.3" font-family="Times,serif" font-size="14.00" fill="white">perl ✓</text>
</a>
</g>
</g>
<!-- perl&#45;&gt;autoconf -->
<g id="edge28" class="edge">
<title>perl&#45;&gt;autoconf</title>
<path fill="none" stroke="black" d="M1444.31,-253.81C1435.12,-244.62 1423.22,-232.72 1412.85,-222.35"/>
<polygon fill="black" stroke="black" points="1415.18,-219.73 1405.63,-215.13 1410.23,-224.68 1415.18,-219.73"/>
</g>
<!-- perl&#45;&gt;automake -->
<g id="edge29" class="edge">
<title>perl&#45;&gt;automake</title>
<path fill="none" stroke="black" d="M1458.18,-251.86C1456.23,-233.37 1451.54,-203.44 1440.5,-180 1435.65,-169.7 1428.44,-159.59 1421.36,-151.02"/>
<polygon fill="black" stroke="black" points="1423.88,-148.58 1414.7,-143.3 1418.59,-153.16 1423.88,-148.58"/>
</g>
<!-- perl&#45;&gt;git -->
<g id="edge30" class="edge">
<title>perl&#45;&gt;git</title>
<path fill="none" stroke="black" d="M1464.01,-252.15C1470.52,-227.81 1482.63,-182.57 1490.36,-153.67"/>
<polygon fill="black" stroke="black" points="1493.79,-154.39 1493,-143.82 1487.03,-152.58 1493.79,-154.39"/>
</g>
<!-- compiler&#45;rt -->
<g id="node24" class="node">
<title>compiler&#45;rt</title>
<g id="a_node24"><a xlink:href="https://github.com/conda-forge/compiler-rt-feedstock/pull/28" xlink:title="compiler rt ❎">
<ellipse fill="#31688e" stroke="black" cx="1136.5" cy="-234" rx="61.99" ry="18"/>
<text text-anchor="middle" x="1136.5" y="-230.3" font-family="Times,serif" font-size="14.00" fill="white">compiler rt ❎</text>
</a>
</g>
</g>
<!-- clang&#45;compiler&#45;activation -->
<g id="node25" class="node">
<title>clang&#45;compiler&#45;activation</title>
<g id="a_node25"><a xlink:href="https://github.com/conda-forge/clang-compiler-activation-feedstock" xlink:title="clang compiler activation">
<ellipse fill="#fde725" stroke="black" cx="1030.5" cy="-162" rx="100.98" ry="18"/>
<text text-anchor="middle" x="1030.5" y="-158.3" font-family="Times,serif" font-size="14.00">clang compiler activation</text>
</a>
</g>
</g>
<!-- compiler&#45;rt&#45;&gt;clang&#45;compiler&#45;activation -->
<g id="edge31" class="edge">
<title>compiler&#45;rt&#45;&gt;clang&#45;compiler&#45;activation</title>
<path fill="none" stroke="black" d="M1112.71,-217.29C1098.39,-207.84 1079.94,-195.65 1064.15,-185.22"/>
<polygon fill="black" stroke="black" points="1065.96,-182.22 1055.69,-179.63 1062.1,-188.06 1065.96,-182.22"/>
</g>
<!-- clang&#45;compiler&#45;activation&#45;&gt;r&#45;base -->
<g id="edge32" class="edge">
<title>clang&#45;compiler&#45;activation&#45;&gt;r&#45;base</title>
<path fill="none" stroke="black" d="M994.19,-145.12C967.26,-133.33 930.79,-117.38 904.44,-105.85"/>
<polygon fill="black" stroke="black" points="905.79,-102.62 895.23,-101.82 902.98,-109.03 905.79,-102.62"/>
</g>
<!-- bwidget -->
<g id="node26" class="node">
<title>bwidget</title>
<g id="a_node26"><a xlink:href="https://github.com/conda-forge/bwidget-feedstock" xlink:title="bwidget">
<ellipse fill="#35b779" stroke="black" cx="1226.5" cy="-306" rx="39" ry="18"/>
<text text-anchor="middle" x="1226.5" y="-302.3" font-family="Times,serif" font-size="14.00">bwidget</text>
</a>
</g>
</g>
<!-- bwidget&#45;&gt;r&#45;base -->
<g id="edge33" class="edge">
<title>bwidget&#45;&gt;r&#45;base</title>
<path fill="none" stroke="black" d="M1225.54,-287.68C1223.9,-269.05 1219.46,-238.98 1207.5,-216 1187.32,-177.23 1178.7,-165.25 1140.5,-144 1067.55,-103.43 968.39,-93.55 912.79,-91.37"/>
<polygon fill="black" stroke="black" points="912.71,-87.86 902.61,-91.03 912.49,-94.86 912.71,-87.86"/>
</g>
<!-- tktable -->
<g id="node27" class="node">
<title>tktable</title>
<g id="a_node27"><a xlink:href="https://github.com/conda-forge/tktable-feedstock/pull/6" xlink:title="tktable ❎">
<ellipse fill="#31688e" stroke="black" cx="1293.5" cy="-378" rx="46.29" ry="18"/>
<text text-anchor="middle" x="1293.5" y="-374.3" font-family="Times,serif" font-size="14.00" fill="white">tktable ❎</text>
</a>
</g>
</g>
<!-- tktable&#45;&gt;r&#45;base -->
<g id="edge34" class="edge">
<title>tktable&#45;&gt;r&#45;base</title>
<path fill="none" stroke="black" d="M1291.72,-359.71C1289.39,-341.36 1284.39,-311.78 1274.5,-288 1244.76,-216.53 1241.97,-185.32 1176.5,-144 1133.15,-116.64 985.38,-100.68 912.22,-94.29"/>
<polygon fill="black" stroke="black" points="912.25,-90.78 901.99,-93.41 911.66,-97.75 912.25,-90.78"/>
</g>
<!-- fribidi -->
<g id="node28" class="node">
<title>fribidi</title>
<g id="a_node28"><a xlink:href="https://github.com/conda-forge/fribidi-feedstock/pull/10" xlink:title="fribidi ✓">
<ellipse fill="#31688e" stroke="black" cx="632.5" cy="-234" rx="43" ry="18"/>
<text text-anchor="middle" x="632.5" y="-230.3" font-family="Times,serif" font-size="14.00" fill="white">fribidi ✓</text>
</a>
</g>
</g>
<!-- fribidi&#45;&gt;pango -->
<g id="edge35" class="edge">
<title>fribidi&#45;&gt;pango</title>
<path fill="none" stroke="black" d="M632.5,-215.7C632.5,-207.98 632.5,-198.71 632.5,-190.11"/>
<polygon fill="black" stroke="black" points="636,-190.1 632.5,-180.1 629,-190.1 636,-190.1"/>
</g>
<!-- tapi -->
<g id="node29" class="node">
<title>tapi</title>
<g id="a_node29"><a xlink:href="https://github.com/conda-forge/tapi-feedstock/pull/9" xlink:title="tapi ❎">
<ellipse fill="#31688e" stroke="black" cx="1019.5" cy="-306" rx="36" ry="18"/>
<text text-anchor="middle" x="1019.5" y="-302.3" font-family="Times,serif" font-size="14.00" fill="white">tapi ❎</text>
</a>
</g>
</g>
<!-- cctools&#45;and&#45;ld64 -->
<g id="node30" class="node">
<title>cctools&#45;and&#45;ld64</title>
<g id="a_node30"><a xlink:href="https://github.com/conda-forge/cctools-and-ld64-feedstock" xlink:title="cctools and ld64">
<ellipse fill="#fde725" stroke="black" cx="987.5" cy="-234" rx="69" ry="18"/>
<text text-anchor="middle" x="987.5" y="-230.3" font-family="Times,serif" font-size="14.00">cctools and ld64</text>
</a>
</g>
</g>
<!-- tapi&#45;&gt;cctools&#45;and&#45;ld64 -->
<g id="edge36" class="edge">
<title>tapi&#45;&gt;cctools&#45;and&#45;ld64</title>
<path fill="none" stroke="black" d="M1011.75,-288.05C1008.11,-280.09 1003.69,-270.41 999.62,-261.51"/>
<polygon fill="black" stroke="black" points="1002.74,-259.91 995.4,-252.28 996.37,-262.83 1002.74,-259.91"/>
</g>
<!-- cctools&#45;and&#45;ld64&#45;&gt;clang&#45;compiler&#45;activation -->
<g id="edge37" class="edge">
<title>cctools&#45;and&#45;ld64&#45;&gt;clang&#45;compiler&#45;activation</title>
<path fill="none" stroke="black" d="M997.91,-216.05C1002.91,-207.92 1009,-198 1014.56,-188.94"/>
<polygon fill="black" stroke="black" points="1017.64,-190.63 1019.89,-180.28 1011.67,-186.96 1017.64,-190.63"/>
</g>
<!-- conda&#45;standalone -->
<g id="node31" class="node">
<title>conda&#45;standalone</title>
<g id="a_node31"><a xlink:href="https://github.com/conda-forge/conda-standalone-feedstock/pull/10" xlink:title="conda standalone ❎">
<ellipse fill="#31688e" stroke="black" cx="1615.5" cy="-234" rx="83.39" ry="18"/>
<text text-anchor="middle" x="1615.5" y="-230.3" font-family="Times,serif" font-size="14.00" fill="white">conda standalone ❎</text>
</a>
</g>
</g>
<!-- conda&#45;standalone&#45;&gt;constructor -->
<g id="edge38" class="edge">
<title>conda&#45;standalone&#45;&gt;constructor</title>
<path fill="none" stroke="black" d="M1615.5,-215.7C1615.5,-207.98 1615.5,-198.71 1615.5,-190.11"/>
<polygon fill="black" stroke="black" points="1619,-190.1 1615.5,-180.1 1612,-190.1 1619,-190.1"/>
</g>
<!-- ldid -->
<g id="node32" class="node">
<title>ldid</title>
<g id="a_node32"><a xlink:href="https://github.com/conda-forge/ldid-feedstock" xlink:title="ldid">
<ellipse fill="#35b779" stroke="black" cx="955.5" cy="-378" rx="27" ry="18"/>
<text text-anchor="middle" x="955.5" y="-374.3" font-family="Times,serif" font-size="14.00">ldid</text>
</a>
</g>
</g>
<!-- ldid&#45;&gt;cctools&#45;and&#45;ld64 -->
<g id="edge39" class="edge">
<title>ldid&#45;&gt;cctools&#45;and&#45;ld64</title>
<path fill="none" stroke="black" d="M958.99,-359.9C962.69,-341.96 968.78,-312.95 974.5,-288 976.44,-279.56 978.65,-270.39 980.69,-262.09"/>
<polygon fill="black" stroke="black" points="984.14,-262.7 983.15,-252.15 977.35,-261.02 984.14,-262.7"/>
</g>
</g>
</svg>
