<?xml version="1.0" encoding="UTF-8" standalone="no"?>
<!DOCTYPE svg PUBLIC "-//W3C//DTD SVG 1.1//EN"
 "http://www.w3.org/Graphics/SVG/1.1/DTD/svg11.dtd">
<!-- Generated by graphviz version 2.42.3 (20191010.1750)
 -->
<!-- Title: %3 Pages: 1 -->
<svg width="505pt" height="232pt"
 viewBox="0.00 0.00 505.04 232.00" xmlns="http://www.w3.org/2000/svg" xmlns:xlink="http://www.w3.org/1999/xlink">
<g id="graph0" class="graph" transform="scale(1 1) rotate(0) translate(4 228)">
<title>%3</title>
<polygon fill="white" stroke="transparent" points="-4,4 -4,-228 501.04,-228 501.04,4 -4,4"/>
<!-- arrow&#45;cpp -->
<g id="node1" class="node">
<title>arrow&#45;cpp</title>
<g id="a_node1"><a xlink:href="https://github.com/conda-forge/arrow-cpp-feedstock/pull/195" xlink:title="arrow cpp ❎">
<ellipse fill="#31688e" stroke="black" cx="96.6" cy="-18" rx="57.69" ry="18"/>
<text text-anchor="middle" x="96.6" y="-14.3" font-family="Times,serif" font-size="14.00" fill="white">arrow cpp ❎</text>
</a>
</g>
</g>
<!-- autoconf -->
<g id="node2" class="node">
<title>autoconf</title>
<g id="a_node2"><a xlink:href="https://github.com/conda-forge/autoconf-feedstock" xlink:title="autoconf">
<ellipse fill="#fde725" stroke="black" cx="41.6" cy="-134" rx="41.69" ry="18"/>
<text text-anchor="middle" x="41.6" y="-130.3" font-family="Times,serif" font-size="14.00">autoconf</text>
</a>
</g>
</g>
<!-- automake -->
<g id="node3" class="node">
<title>automake</title>
<g id="a_node3"><a xlink:href="https://github.com/conda-forge/automake-feedstock" xlink:title="automake">
<ellipse fill="#fde725" stroke="black" cx="76.6" cy="-62" rx="45.49" ry="18"/>
<text text-anchor="middle" x="76.6" y="-58.3" font-family="Times,serif" font-size="14.00">automake</text>
</a>
</g>
</g>
<!-- autoconf&#45;&gt;automake -->
<g id="edge1" class="edge">
<title>autoconf&#45;&gt;automake</title>
<path fill="none" stroke="black" d="M50.07,-116.05C54.15,-107.89 59.14,-97.91 63.68,-88.82"/>
<polygon fill="black" stroke="black" points="66.86,-90.3 68.2,-79.79 60.6,-87.17 66.86,-90.3"/>
</g>
<!-- constructor -->
<g id="node4" class="node">
<title>constructor</title>
<g id="a_node4"><a xlink:href="https://github.com/conda-forge/constructor-feedstock" xlink:title="constructor">
<ellipse fill="#fde725" stroke="black" cx="284.6" cy="-98" rx="50.09" ry="18"/>
<text text-anchor="middle" x="284.6" y="-94.3" font-family="Times,serif" font-size="14.00">constructor</text>
</a>
</g>
</g>
<!-- git -->
<g id="node5" class="node">
<title>git</title>
<g id="a_node5"><a xlink:href="https://github.com/conda-forge/git-feedstock" xlink:title="git">
<ellipse fill="#fde725" stroke="black" cx="166.6" cy="-134" rx="27" ry="18"/>
<text text-anchor="middle" x="166.6" y="-130.3" font-family="Times,serif" font-size="14.00">git</text>
</a>
</g>
</g>
<!-- glib -->
<g id="node6" class="node">
<title>glib</title>
<g id="a_node6"><a xlink:href="https://github.com/conda-forge/glib-feedstock/pull/72" xlink:title="glib ❎">
<ellipse fill="#31688e" stroke="black" cx="284.6" cy="-18" rx="36.29" ry="18"/>
<text text-anchor="middle" x="284.6" y="-14.3" font-family="Times,serif" font-size="14.00" fill="white">glib ❎</text>
</a>
</g>
</g>
<!-- libtool -->
<g id="node7" class="node">
<title>libtool</title>
<g id="a_node7"><a xlink:href="https://github.com/conda-forge/libtool-feedstock" xlink:title="libtool">
<ellipse fill="#35b779" stroke="black" cx="436.6" cy="-18" rx="33.6" ry="18"/>
<text text-anchor="middle" x="436.6" y="-14.3" font-family="Times,serif" font-size="14.00">libtool</text>
</a>
</g>
</g>
<!-- perl -->
<g id="node8" class="node">
<title>perl</title>
<g id="a_node8"><a xlink:href="https://github.com/conda-forge/perl-feedstock/pull/45" xlink:title="perl ❎">
<ellipse fill="#31688e" stroke="black" cx="111.6" cy="-206" rx="36.29" ry="18"/>
<text text-anchor="middle" x="111.6" y="-202.3" font-family="Times,serif" font-size="14.00" fill="white">perl ❎</text>
</a>
</g>
</g>
<!-- perl&#45;&gt;autoconf -->
<g id="edge2" class="edge">
<title>perl&#45;&gt;autoconf</title>
<path fill="none" stroke="black" d="M96.06,-189.46C86.86,-180.26 75.02,-168.42 64.73,-158.13"/>
<polygon fill="black" stroke="black" points="67.12,-155.57 57.57,-150.98 62.17,-160.52 67.12,-155.57"/>
</g>
<!-- perl&#45;&gt;automake -->
<g id="edge3" class="edge">
<title>perl&#45;&gt;automake</title>
<path fill="none" stroke="black" d="M108.37,-187.84C104.89,-169.84 98.97,-140.79 92.6,-116 90.38,-107.4 87.68,-98.1 85.14,-89.73"/>
<polygon fill="black" stroke="black" points="88.45,-88.6 82.15,-80.08 81.76,-90.67 88.45,-88.6"/>
</g>
<!-- perl&#45;&gt;git -->
<g id="edge4" class="edge">
<title>perl&#45;&gt;git</title>
<path fill="none" stroke="black" d="M124.35,-188.76C131.49,-179.68 140.52,-168.19 148.39,-158.18"/>
<polygon fill="black" stroke="black" points="151.24,-160.21 154.66,-150.19 145.73,-155.89 151.24,-160.21"/>
</g>
<!-- pkg&#45;config -->
<g id="node9" class="node">
<title>pkg&#45;config</title>
<g id="a_node9"><a xlink:href="https://github.com/conda-forge/pkg-config-feedstock/pull/35" xlink:title="pkg config ❎">
<ellipse fill="#31688e" stroke="black" cx="436.6" cy="-134" rx="60.39" ry="18"/>
<text text-anchor="middle" x="436.6" y="-130.3" font-family="Times,serif" font-size="14.00" fill="white">pkg config ❎</text>
</a>
</g>
</g>
<!-- conda&#45;standalone -->
<g id="node10" class="node">
<title>conda&#45;standalone</title>
<g id="a_node10"><a xlink:href="https://github.com/conda-forge/conda-standalone-feedstock/pull/10" xlink:title="conda standalone ❎">
<ellipse fill="#31688e" stroke="black" cx="284.6" cy="-170" rx="83.39" ry="18"/>
<text text-anchor="middle" x="284.6" y="-166.3" font-family="Times,serif" font-size="14.00" fill="white">conda standalone ❎</text>
</a>
</g>
</g>
<!-- conda&#45;standalone&#45;&gt;constructor -->
<g id="edge5" class="edge">
<title>conda&#45;standalone&#45;&gt;constructor</title>
<path fill="none" stroke="black" d="M284.6,-151.7C284.6,-143.98 284.6,-134.71 284.6,-126.11"/>
<polygon fill="black" stroke="black" points="288.1,-126.1 284.6,-116.1 281.1,-126.1 288.1,-126.1"/>
</g>
</g>
</svg>
