<?xml version="1.0" encoding="UTF-8" standalone="no"?>
<!DOCTYPE svg PUBLIC "-//W3C//DTD SVG 1.1//EN"
 "http://www.w3.org/Graphics/SVG/1.1/DTD/svg11.dtd">
<!-- Generated by graphviz version 2.42.3 (20191010.1750)
 -->
<!-- Title: %3 Pages: 1 -->
<svg width="755pt" height="116pt"
 viewBox="0.00 0.00 754.99 116.00" xmlns="http://www.w3.org/2000/svg" xmlns:xlink="http://www.w3.org/1999/xlink">
<g id="graph0" class="graph" transform="scale(1 1) rotate(0) translate(4 112)">
<title>%3</title>
<polygon fill="white" stroke="transparent" points="-4,4 -4,-112 750.99,-112 750.99,4 -4,4"/>
<!-- arrow&#45;cpp -->
<g id="node1" class="node">
<title>arrow&#45;cpp</title>
<g id="a_node1"><a xlink:href="https://github.com/conda-forge/arrow-cpp-feedstock" xlink:title="arrow cpp">
<ellipse fill="#35b779" stroke="black" cx="394.3" cy="-90" rx="46.29" ry="18"/>
<text text-anchor="middle" x="394.3" y="-86.3" font-family="Times,serif" font-size="14.00">arrow cpp</text>
</a>
</g>
</g>
<!-- pyarrow -->
<g id="node2" class="node">
<title>pyarrow</title>
<g id="a_node2"><a xlink:href="https://github.com/conda-forge/pyarrow-feedstock" xlink:title="pyarrow">
<ellipse fill="#fde725" stroke="black" cx="40.3" cy="-18" rx="40.09" ry="18"/>
<text text-anchor="middle" x="40.3" y="-14.3" font-family="Times,serif" font-size="14.00">pyarrow</text>
</a>
</g>
</g>
<!-- arrow&#45;cpp&#45;&gt;pyarrow -->
<g id="edge3" class="edge">
<title>arrow&#45;cpp&#45;&gt;pyarrow</title>
<path fill="none" stroke="black" d="M351.06,-83.61C291.7,-75.73 181.91,-59.41 90.3,-36 86.95,-35.15 83.51,-34.17 80.07,-33.14"/>
<polygon fill="black" stroke="black" points="81.07,-29.78 70.48,-30.1 78.95,-36.46 81.07,-29.78"/>
</g>
<!-- turbodbc -->
<g id="node3" class="node">
<title>turbodbc</title>
<g id="a_node3"><a xlink:href="https://github.com/conda-forge/turbodbc-feedstock" xlink:title="turbodbc">
<ellipse fill="#fde725" stroke="black" cx="141.3" cy="-18" rx="42.49" ry="18"/>
<text text-anchor="middle" x="141.3" y="-14.3" font-family="Times,serif" font-size="14.00">turbodbc</text>
</a>
</g>
</g>
<!-- arrow&#45;cpp&#45;&gt;turbodbc -->
<g id="edge6" class="edge">
<title>arrow&#45;cpp&#45;&gt;turbodbc</title>
<path fill="none" stroke="black" d="M356.33,-79.69C315.78,-69.58 249.72,-52.65 193.3,-36 189.96,-35.02 186.52,-33.97 183.06,-32.89"/>
<polygon fill="black" stroke="black" points="183.97,-29.51 173.38,-29.81 181.85,-36.18 183.97,-29.51"/>
</g>
<!-- snowflake&#45;connector&#45;python -->
<g id="node4" class="node">
<title>snowflake&#45;connector&#45;python</title>
<g id="a_node4"><a xlink:href="https://github.com/conda-forge/snowflake-connector-python-feedstock" xlink:title="snowflake connector python">
<ellipse fill="#fde725" stroke="black" cx="312.3" cy="-18" rx="110.48" ry="18"/>
<text text-anchor="middle" x="312.3" y="-14.3" font-family="Times,serif" font-size="14.00">snowflake connector python</text>
</a>
</g>
</g>
<!-- arrow&#45;cpp&#45;&gt;snowflake&#45;connector&#45;python -->
<g id="edge5" class="edge">
<title>arrow&#45;cpp&#45;&gt;snowflake&#45;connector&#45;python</title>
<path fill="none" stroke="black" d="M375.69,-73.12C365.09,-64.07 351.62,-52.57 339.82,-42.49"/>
<polygon fill="black" stroke="black" points="341.85,-39.63 331.97,-35.8 337.31,-44.95 341.85,-39.63"/>
</g>
<!-- r&#45;arrow -->
<g id="node5" class="node">
<title>r&#45;arrow</title>
<g id="a_node5"><a xlink:href="https://github.com/conda-forge/r-arrow-feedstock" xlink:title="r arrow">
<ellipse fill="#fde725" stroke="black" cx="477.3" cy="-18" rx="36.29" ry="18"/>
<text text-anchor="middle" x="477.3" y="-14.3" font-family="Times,serif" font-size="14.00">r arrow</text>
</a>
</g>
</g>
<!-- arrow&#45;cpp&#45;&gt;r&#45;arrow -->
<g id="edge4" class="edge">
<title>arrow&#45;cpp&#45;&gt;r&#45;arrow</title>
<path fill="none" stroke="black" d="M412.72,-73.46C424.16,-63.82 439.03,-51.28 451.61,-40.66"/>
<polygon fill="black" stroke="black" points="454.11,-43.13 459.5,-34.01 449.6,-37.78 454.11,-43.13"/>
</g>
<!-- omniscidb -->
<g id="node6" class="node">
<title>omniscidb</title>
<g id="a_node6"><a xlink:href="https://github.com/conda-forge/omniscidb-feedstock" xlink:title="omniscidb">
<ellipse fill="#fde725" stroke="black" cx="579.3" cy="-18" rx="48.19" ry="18"/>
<text text-anchor="middle" x="579.3" y="-14.3" font-family="Times,serif" font-size="14.00">omniscidb</text>
</a>
</g>
</g>
<!-- arrow&#45;cpp&#45;&gt;omniscidb -->
<g id="edge1" class="edge">
<title>arrow&#45;cpp&#45;&gt;omniscidb</title>
<path fill="none" stroke="black" d="M426.52,-76.81C457.24,-65.18 503.66,-47.62 537.27,-34.9"/>
<polygon fill="black" stroke="black" points="538.71,-38.1 546.82,-31.29 536.23,-31.55 538.71,-38.1"/>
</g>
<!-- perspective -->
<g id="node7" class="node">
<title>perspective</title>
<g id="a_node7"><a xlink:href="https://github.com/conda-forge/perspective-feedstock" xlink:title="perspective">
<ellipse fill="#fde725" stroke="black" cx="696.3" cy="-18" rx="50.89" ry="18"/>
<text text-anchor="middle" x="696.3" y="-14.3" font-family="Times,serif" font-size="14.00">perspective</text>
</a>
</g>
</g>
<!-- arrow&#45;cpp&#45;&gt;perspective -->
<g id="edge2" class="edge">
<title>arrow&#45;cpp&#45;&gt;perspective</title>
<path fill="none" stroke="black" d="M434.29,-81.01C482.42,-71.22 565.59,-53.74 636.3,-36 640.37,-34.98 644.59,-33.87 648.82,-32.74"/>
<polygon fill="black" stroke="black" points="649.9,-36.07 658.62,-30.05 648.05,-29.32 649.9,-36.07"/>
</g>
</g>
</svg>
