<?xml version="1.0" encoding="UTF-8" standalone="no"?>
<!DOCTYPE svg PUBLIC "-//W3C//DTD SVG 1.1//EN"
 "http://www.w3.org/Graphics/SVG/1.1/DTD/svg11.dtd">
<!-- Generated by graphviz version 5.0.0 (20220707.2338)
 -->
<!-- Pages: 1 -->
<svg width="512pt" height="116pt"
 viewBox="0.00 0.00 512.14 116.00" xmlns="http://www.w3.org/2000/svg" xmlns:xlink="http://www.w3.org/1999/xlink">
<g id="graph0" class="graph" transform="scale(1 1) rotate(0) translate(4 112)">
<polygon fill="white" stroke="transparent" points="-4,4 -4,-112 508.14,-112 508.14,4 -4,4"/>
<!-- python&#45;duckdb -->
<g id="node1" class="node">
<title>python&#45;duckdb</title>
<g id="a_node1"><a xlink:href="https://github.com/conda-forge/python-duckdb-feedstock/pull/54" xlink:title="python duckdb ❎">
<ellipse fill="#31688e" stroke="black" cx="251.74" cy="-54" rx="93.68" ry="18"/>
<text text-anchor="middle" x="251.74" y="-50.3" font-family="Times,serif" font-size="14.00" fill="white">python duckdb ❎</text>
</a>
</g>
</g>
<!-- omniscidb -->
<g id="node2" class="node">
<title>omniscidb</title>
<g id="a_node2"><a xlink:href="https://github.com/conda-forge/omniscidb-feedstock/pull/104" xlink:title="omniscidb ✓">
<ellipse fill="#31688e" stroke="black" cx="74.74" cy="-90" rx="65.79" ry="18"/>
<text text-anchor="middle" x="74.74" y="-86.3" font-family="Times,serif" font-size="14.00" fill="white">omniscidb ✓</text>
</a>
</g>
</g>
<!-- heavydb&#45;ext -->
<g id="node4" class="node">
<title>heavydb&#45;ext</title>
<g id="a_node4"><a xlink:href="https://github.com/conda-forge/heavydb-ext-feedstock/pull/19" xlink:title="heavydb ext ✓">
<ellipse fill="#31688e" stroke="black" cx="74.74" cy="-18" rx="74.99" ry="18"/>
<text text-anchor="middle" x="74.74" y="-14.3" font-family="Times,serif" font-size="14.00" fill="white">heavydb ext ✓</text>
</a>
</g>
</g>
<!-- omniscidb&#45;&gt;heavydb&#45;ext -->
<g id="edge1" class="edge">
<title>omniscidb&#45;&gt;heavydb&#45;ext</title>
<path fill="none" stroke="black" d="M68.87,-72.05C68.05,-64.35 67.8,-55.03 68.14,-46.36"/>
<polygon fill="black" stroke="black" points="71.64,-46.49 68.83,-36.28 64.65,-46.01 71.64,-46.49"/>
</g>
<!-- pyfitparquet -->
<g id="node3" class="node">
<title>pyfitparquet</title>
<g id="a_node3"><a xlink:href="https://github.com/conda-forge/pyfitparquet-feedstock/pull/10" xlink:title="pyfitparquet ✓">
<ellipse fill="#31688e" stroke="black" cx="428.74" cy="-54" rx="75.29" ry="18"/>
<text text-anchor="middle" x="428.74" y="-50.3" font-family="Times,serif" font-size="14.00" fill="white">pyfitparquet ✓</text>
</a>
</g>
</g>
<!-- heavydb&#45;ext&#45;&gt;omniscidb -->
<g id="edge2" class="edge">
<title>heavydb&#45;ext&#45;&gt;omniscidb</title>
<path fill="none" stroke="black" d="M80.66,-36.28C81.46,-44.03 81.68,-53.36 81.33,-62.01"/>
<polygon fill="black" stroke="black" points="77.84,-61.83 80.62,-72.05 84.82,-62.33 77.84,-61.83"/>
</g>
</g>
</svg>
