<?xml version="1.0" encoding="UTF-8" standalone="no"?>
<!DOCTYPE svg PUBLIC "-//W3C//DTD SVG 1.1//EN"
 "http://www.w3.org/Graphics/SVG/1.1/DTD/svg11.dtd">
<!-- Generated by graphviz version 6.0.2 (20221126.1951)
 -->
<!-- Pages: 1 -->
<svg width="332pt" height="188pt"
 viewBox="0.00 0.00 331.58 188.00" xmlns="http://www.w3.org/2000/svg" xmlns:xlink="http://www.w3.org/1999/xlink">
<g id="graph0" class="graph" transform="scale(1 1) rotate(0) translate(4 184)">
<polygon fill="white" stroke="none" points="-4,4 -4,-184 327.58,-184 327.58,4 -4,4"/>
<!-- hpp&#45;manipulation&#45;urdf -->
<g id="node1" class="node">
<title>hpp&#45;manipulation&#45;urdf</title>
<g id="a_node1"><a xlink:href="https://github.com/conda-forge/hpp-manipulation-urdf-feedstock/pull/11" xlink:title="hpp manipulation urdf ❎">
<ellipse fill="#31688e" stroke="black" cx="194.89" cy="-162" rx="128.88" ry="18"/>
<text text-anchor="middle" x="194.89" y="-158.3" font-family="Times,serif" font-size="14.00" fill="white">hpp manipulation urdf ❎</text>
</a>
</g>
</g>
<!-- hpp&#45;manipulation&#45;corba -->
<g id="node2" class="node">
<title>hpp&#45;manipulation&#45;corba</title>
<g id="a_node2"><a xlink:href="https://github.com/conda-forge/hpp-manipulation-corba-feedstock" xlink:title="hpp manipulation corba">
<ellipse fill="#fde725" stroke="black" cx="120.89" cy="-90" rx="120.78" ry="18"/>
<text text-anchor="middle" x="120.89" y="-86.3" font-family="Times,serif" font-size="14.00">hpp manipulation corba</text>
</a>
</g>
</g>
<!-- hpp&#45;manipulation&#45;urdf&#45;&gt;hpp&#45;manipulation&#45;corba -->
<g id="edge2" class="edge">
<title>hpp&#45;manipulation&#45;urdf&#45;&gt;hpp&#45;manipulation&#45;corba</title>
<path fill="none" stroke="black" d="M176.98,-144.05C167.77,-135.35 156.4,-124.59 146.31,-115.04"/>
<polygon fill="black" stroke="black" points="148.56,-112.36 138.89,-108.03 143.75,-117.45 148.56,-112.36"/>
</g>
<!-- hpp&#45;gepetto&#45;viewer -->
<g id="node3" class="node">
<title>hpp&#45;gepetto&#45;viewer</title>
<g id="a_node3"><a xlink:href="https://github.com/conda-forge/hpp-gepetto-viewer-feedstock" xlink:title="hpp gepetto viewer">
<ellipse fill="#fde725" stroke="black" cx="194.89" cy="-18" rx="100.98" ry="18"/>
<text text-anchor="middle" x="194.89" y="-14.3" font-family="Times,serif" font-size="14.00">hpp gepetto viewer</text>
</a>
</g>
</g>
<!-- hpp&#45;manipulation&#45;urdf&#45;&gt;hpp&#45;gepetto&#45;viewer -->
<g id="edge1" class="edge">
<title>hpp&#45;manipulation&#45;urdf&#45;&gt;hpp&#45;gepetto&#45;viewer</title>
<path fill="none" stroke="black" d="M220.43,-144.28C232.05,-135.11 244.59,-122.63 250.89,-108 257.21,-93.3 257.21,-86.7 250.89,-72 245.93,-60.47 237.09,-50.28 227.88,-41.99"/>
<polygon fill="black" stroke="black" points="230.04,-39.24 220.13,-35.49 225.54,-44.6 230.04,-39.24"/>
</g>
<!-- hpp&#45;manipulation&#45;corba&#45;&gt;hpp&#45;gepetto&#45;viewer -->
<g id="edge3" class="edge">
<title>hpp&#45;manipulation&#45;corba&#45;&gt;hpp&#45;gepetto&#45;viewer</title>
<path fill="none" stroke="black" d="M138.8,-72.05C148.07,-63.28 159.55,-52.43 169.7,-42.83"/>
<polygon fill="black" stroke="black" points="172.28,-45.2 177.14,-35.79 167.47,-40.12 172.28,-45.2"/>
</g>
</g>
</svg>
