<?xml version="1.0" encoding="UTF-8" standalone="no"?>
<!DOCTYPE svg PUBLIC "-//W3C//DTD SVG 1.1//EN"
 "http://www.w3.org/Graphics/SVG/1.1/DTD/svg11.dtd">
<!-- Generated by graphviz version 3.0.0 (20220315.2325)
 -->
<!-- Pages: 1 -->
<svg width="469pt" height="188pt"
 viewBox="0.00 0.00 469.49 188.00" xmlns="http://www.w3.org/2000/svg" xmlns:xlink="http://www.w3.org/1999/xlink">
<g id="graph0" class="graph" transform="scale(1 1) rotate(0) translate(4 184)">
<polygon fill="white" stroke="transparent" points="-4,4 -4,-184 465.49,-184 465.49,4 -4,4"/>
<!-- aws&#45;sdk&#45;cpp -->
<g id="node1" class="node">
<title>aws&#45;sdk&#45;cpp</title>
<g id="a_node1"><a xlink:href="https://github.com/conda-forge/aws-sdk-cpp-feedstock" xlink:title="aws sdk cpp">
<ellipse fill="#fde725" stroke="black" cx="197.74" cy="-18" rx="67.69" ry="18"/>
<text text-anchor="middle" x="197.74" y="-14.3" font-family="Times,serif" font-size="14.00">aws sdk cpp</text>
</a>
</g>
</g>
<!-- aws&#45;c&#45;event&#45;stream -->
<g id="node2" class="node">
<title>aws&#45;c&#45;event&#45;stream</title>
<g id="a_node2"><a xlink:href="https://github.com/conda-forge/aws-c-event-stream-feedstock" xlink:title="aws c event stream">
<ellipse fill="#35b779" stroke="black" cx="100.74" cy="-162" rx="100.98" ry="18"/>
<text text-anchor="middle" x="100.74" y="-158.3" font-family="Times,serif" font-size="14.00">aws c event stream</text>
</a>
</g>
</g>
<!-- aws&#45;c&#45;event&#45;stream&#45;&gt;aws&#45;sdk&#45;cpp -->
<g id="edge2" class="edge">
<title>aws&#45;c&#45;event&#45;stream&#45;&gt;aws&#45;sdk&#45;cpp</title>
<path fill="none" stroke="black" d="M100.71,-143.8C101.46,-124.72 105.1,-93.76 119.74,-72 128.81,-58.52 142.57,-47.52 156.03,-39.11"/>
<polygon fill="black" stroke="black" points="157.93,-42.05 164.77,-33.96 154.38,-36.02 157.93,-42.05"/>
</g>
<!-- aws&#45;crt&#45;cpp -->
<g id="node4" class="node">
<title>aws&#45;crt&#45;cpp</title>
<g id="a_node4"><a xlink:href="https://github.com/conda-forge/aws-crt-cpp-feedstock" xlink:title="aws crt cpp">
<ellipse fill="#fde725" stroke="black" cx="295.74" cy="-90" rx="64.19" ry="18"/>
<text text-anchor="middle" x="295.74" y="-86.3" font-family="Times,serif" font-size="14.00">aws crt cpp</text>
</a>
</g>
</g>
<!-- aws&#45;c&#45;event&#45;stream&#45;&gt;aws&#45;crt&#45;cpp -->
<g id="edge1" class="edge">
<title>aws&#45;c&#45;event&#45;stream&#45;&gt;aws&#45;crt&#45;cpp</title>
<path fill="none" stroke="black" d="M143.53,-145.64C174.42,-134.55 216.14,-119.58 248.09,-108.11"/>
<polygon fill="black" stroke="black" points="249.44,-111.34 257.67,-104.67 247.07,-104.75 249.44,-111.34"/>
</g>
<!-- awscrt -->
<g id="node6" class="node">
<title>awscrt</title>
<g id="a_node6"><a xlink:href="https://github.com/conda-forge/awscrt-feedstock" xlink:title="awscrt">
<ellipse fill="#fde725" stroke="black" cx="170.74" cy="-90" rx="42.49" ry="18"/>
<text text-anchor="middle" x="170.74" y="-86.3" font-family="Times,serif" font-size="14.00">awscrt</text>
</a>
</g>
</g>
<!-- aws&#45;c&#45;event&#45;stream&#45;&gt;awscrt -->
<g id="edge3" class="edge">
<title>aws&#45;c&#45;event&#45;stream&#45;&gt;awscrt</title>
<path fill="none" stroke="black" d="M117.69,-144.05C126.71,-135.03 137.95,-123.79 147.75,-113.99"/>
<polygon fill="black" stroke="black" points="150.32,-116.38 154.91,-106.83 145.37,-111.43 150.32,-116.38"/>
</g>
<!-- aws&#45;c&#45;mqtt -->
<g id="node3" class="node">
<title>aws&#45;c&#45;mqtt</title>
<g id="a_node3"><a xlink:href="https://github.com/conda-forge/aws-c-mqtt-feedstock" xlink:title="aws c mqtt">
<ellipse fill="#35b779" stroke="black" cx="399.74" cy="-162" rx="61.99" ry="18"/>
<text text-anchor="middle" x="399.74" y="-158.3" font-family="Times,serif" font-size="14.00">aws c mqtt</text>
</a>
</g>
</g>
<!-- aws&#45;c&#45;mqtt&#45;&gt;aws&#45;crt&#45;cpp -->
<g id="edge4" class="edge">
<title>aws&#45;c&#45;mqtt&#45;&gt;aws&#45;crt&#45;cpp</title>
<path fill="none" stroke="black" d="M376.4,-145.29C362.05,-135.63 343.46,-123.12 327.75,-112.55"/>
<polygon fill="black" stroke="black" points="329.61,-109.58 319.36,-106.9 325.7,-115.39 329.61,-109.58"/>
</g>
<!-- aws&#45;c&#45;mqtt&#45;&gt;awscrt -->
<g id="edge5" class="edge">
<title>aws&#45;c&#45;mqtt&#45;&gt;awscrt</title>
<path fill="none" stroke="black" d="M357.81,-148.77C321.89,-138.21 268.81,-122.43 222.74,-108 219.47,-106.98 216.09,-105.9 212.69,-104.81"/>
<polygon fill="black" stroke="black" points="213.75,-101.48 203.16,-101.74 211.6,-108.14 213.75,-101.48"/>
</g>
<!-- aws&#45;crt&#45;cpp&#45;&gt;aws&#45;sdk&#45;cpp -->
<g id="edge6" class="edge">
<title>aws&#45;crt&#45;cpp&#45;&gt;aws&#45;sdk&#45;cpp</title>
<path fill="none" stroke="black" d="M273.01,-72.76C259.78,-63.31 242.91,-51.26 228.5,-40.97"/>
<polygon fill="black" stroke="black" points="230.52,-38.11 220.35,-35.15 226.45,-43.81 230.52,-38.11"/>
</g>
<!-- aws&#45;c&#45;s3 -->
<g id="node5" class="node">
<title>aws&#45;c&#45;s3</title>
<g id="a_node5"><a xlink:href="https://github.com/conda-forge/aws-c-s3-feedstock" xlink:title="aws c s3">
<ellipse fill="#35b779" stroke="black" cx="269.74" cy="-162" rx="50.09" ry="18"/>
<text text-anchor="middle" x="269.74" y="-158.3" font-family="Times,serif" font-size="14.00">aws c s3</text>
</a>
</g>
</g>
<!-- aws&#45;c&#45;s3&#45;&gt;aws&#45;crt&#45;cpp -->
<g id="edge7" class="edge">
<title>aws&#45;c&#45;s3&#45;&gt;aws&#45;crt&#45;cpp</title>
<path fill="none" stroke="black" d="M276.03,-144.05C278.96,-136.18 282.51,-126.62 285.79,-117.79"/>
<polygon fill="black" stroke="black" points="289.12,-118.87 289.32,-108.28 282.56,-116.43 289.12,-118.87"/>
</g>
<!-- aws&#45;c&#45;s3&#45;&gt;awscrt -->
<g id="edge8" class="edge">
<title>aws&#45;c&#45;s3&#45;&gt;awscrt</title>
<path fill="none" stroke="black" d="M247.77,-145.46C233.77,-135.57 215.46,-122.62 200.21,-111.83"/>
<polygon fill="black" stroke="black" points="201.82,-108.69 191.63,-105.77 197.78,-114.4 201.82,-108.69"/>
</g>
</g>
</svg>
