<?xml version="1.0" encoding="UTF-8" standalone="no"?>
<!DOCTYPE svg PUBLIC "-//W3C//DTD SVG 1.1//EN"
 "http://www.w3.org/Graphics/SVG/1.1/DTD/svg11.dtd">
<!-- Generated by graphviz version 2.46.1 (20210222.2046)
 -->
<!-- Pages: 1 -->
<svg width="213pt" height="188pt"
 viewBox="0.00 0.00 213.38 188.00" xmlns="http://www.w3.org/2000/svg" xmlns:xlink="http://www.w3.org/1999/xlink">
<g id="graph0" class="graph" transform="scale(1 1) rotate(0) translate(4 184)">
<polygon fill="white" stroke="transparent" points="-4,4 -4,-184 209.38,-184 209.38,4 -4,4"/>
<!-- aws&#45;sdk&#45;cpp -->
<g id="node1" class="node">
<title>aws&#45;sdk&#45;cpp</title>
<g id="a_node1"><a xlink:href="https://github.com/conda-forge/aws-sdk-cpp-feedstock" xlink:title="aws sdk cpp">
<ellipse fill="#fde725" stroke="black" cx="102.69" cy="-18" rx="67.69" ry="18"/>
<text text-anchor="middle" x="102.69" y="-14.3" font-family="Times-Roman" font-size="14.00">aws sdk cpp</text>
</a>
</g>
</g>
<!-- aws&#45;c&#45;event&#45;stream -->
<g id="node2" class="node">
<title>aws&#45;c&#45;event&#45;stream</title>
<g id="a_node2"><a xlink:href="https://github.com/conda-forge/aws-c-event-stream-feedstock" xlink:title="aws c event stream">
<ellipse fill="#fde725" stroke="black" cx="102.69" cy="-90" rx="102.88" ry="18"/>
<text text-anchor="middle" x="102.69" y="-86.3" font-family="Times-Roman" font-size="14.00">aws c event stream</text>
</a>
</g>
</g>
<!-- aws&#45;c&#45;event&#45;stream&#45;&gt;aws&#45;sdk&#45;cpp -->
<g id="edge1" class="edge">
<title>aws&#45;c&#45;event&#45;stream&#45;&gt;aws&#45;sdk&#45;cpp</title>
<path fill="none" stroke="black" d="M102.69,-71.7C102.69,-63.98 102.69,-54.71 102.69,-46.11"/>
<polygon fill="black" stroke="black" points="106.19,-46.1 102.69,-36.1 99.19,-46.1 106.19,-46.1"/>
</g>
<!-- aws&#45;c&#45;io -->
<g id="node3" class="node">
<title>aws&#45;c&#45;io</title>
<g id="a_node3"><a xlink:href="https://github.com/conda-forge/aws-c-io-feedstock" xlink:title="aws c io">
<ellipse fill="#35b779" stroke="black" cx="102.69" cy="-162" rx="48.19" ry="18"/>
<text text-anchor="middle" x="102.69" y="-158.3" font-family="Times-Roman" font-size="14.00">aws c io</text>
</a>
</g>
</g>
<!-- aws&#45;c&#45;io&#45;&gt;aws&#45;c&#45;event&#45;stream -->
<g id="edge2" class="edge">
<title>aws&#45;c&#45;io&#45;&gt;aws&#45;c&#45;event&#45;stream</title>
<path fill="none" stroke="black" d="M102.69,-143.7C102.69,-135.98 102.69,-126.71 102.69,-118.11"/>
<polygon fill="black" stroke="black" points="106.19,-118.1 102.69,-108.1 99.19,-118.1 106.19,-118.1"/>
</g>
</g>
</svg>
