<?xml version="1.0" encoding="UTF-8" standalone="no"?>
<!DOCTYPE svg PUBLIC "-//W3C//DTD SVG 1.1//EN"
 "http://www.w3.org/Graphics/SVG/1.1/DTD/svg11.dtd">
<!-- Generated by graphviz version 2.47.1 (20210418.0311)
 -->
<!-- Pages: 1 -->
<svg width="338pt" height="260pt"
 viewBox="0.00 0.00 337.74 260.00" xmlns="http://www.w3.org/2000/svg" xmlns:xlink="http://www.w3.org/1999/xlink">
<g id="graph0" class="graph" transform="scale(1 1) rotate(0) translate(4 256)">
<polygon fill="white" stroke="transparent" points="-4,4 -4,-256 333.74,-256 333.74,4 -4,4"/>
<!-- aws&#45;sdk&#45;cpp -->
<g id="node1" class="node">
<title>aws&#45;sdk&#45;cpp</title>
<g id="a_node1"><a xlink:href="https://github.com/conda-forge/aws-sdk-cpp-feedstock" xlink:title="aws sdk cpp">
<ellipse fill="#fde725" stroke="black" cx="180.14" cy="-18" rx="67.69" ry="18"/>
<text text-anchor="middle" x="180.14" y="-14.3" font-family="Times-Roman" font-size="14.00">aws sdk cpp</text>
</a>
</g>
</g>
<!-- aws&#45;checksums -->
<g id="node2" class="node">
<title>aws&#45;checksums</title>
<g id="a_node2"><a xlink:href="https://github.com/conda-forge/aws-checksums-feedstock/pull/17" xlink:title="aws checksums ❎">
<ellipse fill="#31688e" stroke="black" cx="98.14" cy="-162" rx="98.28" ry="18"/>
<text text-anchor="middle" x="98.14" y="-158.3" font-family="Times-Roman" font-size="14.00" fill="white">aws checksums ❎</text>
</a>
</g>
</g>
<!-- aws&#45;c&#45;event&#45;stream -->
<g id="node3" class="node">
<title>aws&#45;c&#45;event&#45;stream</title>
<g id="a_node3"><a xlink:href="https://github.com/conda-forge/aws-c-event-stream-feedstock" xlink:title="aws c event stream">
<ellipse fill="#fde725" stroke="black" cx="180.14" cy="-90" rx="102.88" ry="18"/>
<text text-anchor="middle" x="180.14" y="-86.3" font-family="Times-Roman" font-size="14.00">aws c event stream</text>
</a>
</g>
</g>
<!-- aws&#45;checksums&#45;&gt;aws&#45;c&#45;event&#45;stream -->
<g id="edge1" class="edge">
<title>aws&#45;checksums&#45;&gt;aws&#45;c&#45;event&#45;stream</title>
<path fill="none" stroke="black" d="M117.99,-144.05C128.37,-135.2 141.23,-124.22 152.56,-114.55"/>
<polygon fill="black" stroke="black" points="155.14,-116.94 160.47,-107.79 150.6,-111.62 155.14,-116.94"/>
</g>
<!-- aws&#45;c&#45;event&#45;stream&#45;&gt;aws&#45;sdk&#45;cpp -->
<g id="edge2" class="edge">
<title>aws&#45;c&#45;event&#45;stream&#45;&gt;aws&#45;sdk&#45;cpp</title>
<path fill="none" stroke="black" d="M180.14,-71.7C180.14,-63.98 180.14,-54.71 180.14,-46.11"/>
<polygon fill="black" stroke="black" points="183.64,-46.1 180.14,-36.1 176.64,-46.1 183.64,-46.1"/>
</g>
<!-- aws&#45;c&#45;io -->
<g id="node4" class="node">
<title>aws&#45;c&#45;io</title>
<g id="a_node4"><a xlink:href="https://github.com/conda-forge/aws-c-io-feedstock" xlink:title="aws c io">
<ellipse fill="#fde725" stroke="black" cx="262.14" cy="-162" rx="48.19" ry="18"/>
<text text-anchor="middle" x="262.14" y="-158.3" font-family="Times-Roman" font-size="14.00">aws c io</text>
</a>
</g>
</g>
<!-- aws&#45;c&#45;io&#45;&gt;aws&#45;c&#45;event&#45;stream -->
<g id="edge3" class="edge">
<title>aws&#45;c&#45;io&#45;&gt;aws&#45;c&#45;event&#45;stream</title>
<path fill="none" stroke="black" d="M243.53,-145.12C232.94,-136.07 219.46,-124.57 207.66,-114.49"/>
<polygon fill="black" stroke="black" points="209.7,-111.63 199.82,-107.8 205.15,-116.95 209.7,-111.63"/>
</g>
<!-- aws&#45;c&#45;cal -->
<g id="node5" class="node">
<title>aws&#45;c&#45;cal</title>
<g id="a_node5"><a xlink:href="https://github.com/conda-forge/aws-c-cal-feedstock/pull/24" xlink:title="aws c cal ❎">
<ellipse fill="#31688e" stroke="black" cx="262.14" cy="-234" rx="67.69" ry="18"/>
<text text-anchor="middle" x="262.14" y="-230.3" font-family="Times-Roman" font-size="14.00" fill="white">aws c cal ❎</text>
</a>
</g>
</g>
<!-- aws&#45;c&#45;cal&#45;&gt;aws&#45;c&#45;io -->
<g id="edge4" class="edge">
<title>aws&#45;c&#45;cal&#45;&gt;aws&#45;c&#45;io</title>
<path fill="none" stroke="black" d="M262.14,-215.7C262.14,-207.98 262.14,-198.71 262.14,-190.11"/>
<polygon fill="black" stroke="black" points="265.64,-190.1 262.14,-180.1 258.64,-190.1 265.64,-190.1"/>
</g>
</g>
</svg>
