<?xml version="1.0" encoding="UTF-8" standalone="no"?>
<!DOCTYPE svg PUBLIC "-//W3C//DTD SVG 1.1//EN"
 "http://www.w3.org/Graphics/SVG/1.1/DTD/svg11.dtd">
<!-- Generated by graphviz version 2.47.2 (20210527.1257)
 -->
<!-- Pages: 1 -->
<svg width="634pt" height="332pt"
 viewBox="0.00 0.00 634.00 332.00" xmlns="http://www.w3.org/2000/svg" xmlns:xlink="http://www.w3.org/1999/xlink">
<g id="graph0" class="graph" transform="scale(1 1) rotate(0) translate(4 328)">
<polygon fill="white" stroke="transparent" points="-4,4 -4,-328 630,-328 630,4 -4,4"/>
<!-- aws&#45;sdk&#45;cpp -->
<g id="node1" class="node">
<title>aws&#45;sdk&#45;cpp</title>
<g id="a_node1"><a xlink:href="https://github.com/conda-forge/aws-sdk-cpp-feedstock" xlink:title="aws sdk cpp">
<ellipse fill="#fde725" stroke="black" cx="99" cy="-18" rx="67" ry="18"/>
<text text-anchor="middle" x="99" y="-14.3" font-family="Times-Roman" font-size="14.00">aws sdk cpp</text>
</a>
</g>
</g>
<!-- aws&#45;checksums -->
<g id="node2" class="node">
<title>aws&#45;checksums</title>
<g id="a_node2"><a xlink:href="https://github.com/conda-forge/aws-checksums-feedstock" xlink:title="aws checksums">
<ellipse fill="#35b779" stroke="black" cx="154" cy="-162" rx="82" ry="18"/>
<text text-anchor="middle" x="154" y="-158.3" font-family="Times-Roman" font-size="14.00">aws checksums</text>
</a>
</g>
</g>
<!-- aws&#45;c&#45;event&#45;stream -->
<g id="node3" class="node">
<title>aws&#45;c&#45;event&#45;stream</title>
<g id="a_node3"><a xlink:href="https://github.com/conda-forge/aws-c-event-stream-feedstock" xlink:title="aws c event stream">
<ellipse fill="#fde725" stroke="black" cx="99" cy="-90" rx="99" ry="18"/>
<text text-anchor="middle" x="99" y="-86.3" font-family="Times-Roman" font-size="14.00">aws c event stream</text>
</a>
</g>
</g>
<!-- aws&#45;checksums&#45;&gt;aws&#45;c&#45;event&#45;stream -->
<g id="edge1" class="edge">
<title>aws&#45;checksums&#45;&gt;aws&#45;c&#45;event&#45;stream</title>
<path fill="none" stroke="black" d="M140.69,-144.05C134.16,-135.75 126.17,-125.58 118.94,-116.38"/>
<polygon fill="black" stroke="black" points="121.5,-113.98 112.57,-108.28 116,-118.3 121.5,-113.98"/>
</g>
<!-- aws&#45;crt&#45;cpp -->
<g id="node4" class="node">
<title>aws&#45;crt&#45;cpp</title>
<g id="a_node4"><a xlink:href="https://github.com/conda-forge/aws-crt-cpp-feedstock" xlink:title="aws crt cpp">
<ellipse fill="#fde725" stroke="black" cx="353" cy="-18" rx="63.09" ry="18"/>
<text text-anchor="middle" x="353" y="-14.3" font-family="Times-Roman" font-size="14.00">aws crt cpp</text>
</a>
</g>
</g>
<!-- aws&#45;checksums&#45;&gt;aws&#45;crt&#45;cpp -->
<g id="edge2" class="edge">
<title>aws&#45;checksums&#45;&gt;aws&#45;crt&#45;cpp</title>
<path fill="none" stroke="black" d="M171.08,-144.1C193.94,-121.67 233.53,-83.55 250,-72 268.82,-58.81 291.37,-46.83 310.56,-37.61"/>
<polygon fill="black" stroke="black" points="312.13,-40.74 319.68,-33.32 309.15,-34.41 312.13,-40.74"/>
</g>
<!-- aws&#45;c&#45;event&#45;stream&#45;&gt;aws&#45;sdk&#45;cpp -->
<g id="edge3" class="edge">
<title>aws&#45;c&#45;event&#45;stream&#45;&gt;aws&#45;sdk&#45;cpp</title>
<path fill="none" stroke="black" d="M99,-71.7C99,-63.98 99,-54.71 99,-46.11"/>
<polygon fill="black" stroke="black" points="102.5,-46.1 99,-36.1 95.5,-46.1 102.5,-46.1"/>
</g>
<!-- aws&#45;c&#45;event&#45;stream&#45;&gt;aws&#45;crt&#45;cpp -->
<g id="edge4" class="edge">
<title>aws&#45;c&#45;event&#45;stream&#45;&gt;aws&#45;crt&#45;cpp</title>
<path fill="none" stroke="black" d="M151.01,-74.67C194.24,-62.75 255.51,-45.87 299.22,-33.82"/>
<polygon fill="black" stroke="black" points="300.38,-37.13 309.1,-31.1 298.52,-30.38 300.38,-37.13"/>
</g>
<!-- aws&#45;c&#45;io -->
<g id="node5" class="node">
<title>aws&#45;c&#45;io</title>
<g id="a_node5"><a xlink:href="https://github.com/conda-forge/aws-c-io-feedstock" xlink:title="aws c io">
<ellipse fill="#fde725" stroke="black" cx="289" cy="-234" rx="47" ry="18"/>
<text text-anchor="middle" x="289" y="-230.3" font-family="Times-Roman" font-size="14.00">aws c io</text>
</a>
</g>
</g>
<!-- aws&#45;c&#45;io&#45;&gt;aws&#45;c&#45;event&#45;stream -->
<g id="edge5" class="edge">
<title>aws&#45;c&#45;io&#45;&gt;aws&#45;c&#45;event&#45;stream</title>
<path fill="none" stroke="black" d="M243.79,-228.93C184.43,-222.55 85.12,-207.91 63,-180 47.94,-161 61.62,-134.85 76.24,-115.82"/>
<polygon fill="black" stroke="black" points="79.1,-117.85 82.7,-107.88 73.67,-113.43 79.1,-117.85"/>
</g>
<!-- aws&#45;c&#45;io&#45;&gt;aws&#45;crt&#45;cpp -->
<g id="edge6" class="edge">
<title>aws&#45;c&#45;io&#45;&gt;aws&#45;crt&#45;cpp</title>
<path fill="none" stroke="black" d="M283.29,-215.9C274.11,-185.22 259.34,-119.59 283,-72 289.61,-58.71 301.31,-47.86 313.29,-39.52"/>
<polygon fill="black" stroke="black" points="315.49,-42.27 321.98,-33.89 311.69,-36.39 315.49,-42.27"/>
</g>
<!-- aws&#45;c&#45;http -->
<g id="node6" class="node">
<title>aws&#45;c&#45;http</title>
<g id="a_node6"><a xlink:href="https://github.com/conda-forge/aws-c-http-feedstock" xlink:title="aws c http">
<ellipse fill="#fde725" stroke="black" cx="442" cy="-162" rx="58" ry="18"/>
<text text-anchor="middle" x="442" y="-158.3" font-family="Times-Roman" font-size="14.00">aws c http</text>
</a>
</g>
</g>
<!-- aws&#45;c&#45;io&#45;&gt;aws&#45;c&#45;http -->
<g id="edge7" class="edge">
<title>aws&#45;c&#45;io&#45;&gt;aws&#45;c&#45;http</title>
<path fill="none" stroke="black" d="M318.14,-219.67C341.77,-208.86 375.34,-193.5 401.57,-181.5"/>
<polygon fill="black" stroke="black" points="403.23,-184.59 410.87,-177.24 400.32,-178.22 403.23,-184.59"/>
</g>
<!-- aws&#45;c&#45;mqtt -->
<g id="node7" class="node">
<title>aws&#45;c&#45;mqtt</title>
<g id="a_node7"><a xlink:href="https://github.com/conda-forge/aws-c-mqtt-feedstock" xlink:title="aws c mqtt">
<ellipse fill="#fde725" stroke="black" cx="353" cy="-90" rx="60.5" ry="18"/>
<text text-anchor="middle" x="353" y="-86.3" font-family="Times-Roman" font-size="14.00">aws c mqtt</text>
</a>
</g>
</g>
<!-- aws&#45;c&#45;io&#45;&gt;aws&#45;c&#45;mqtt -->
<g id="edge8" class="edge">
<title>aws&#45;c&#45;io&#45;&gt;aws&#45;c&#45;mqtt</title>
<path fill="none" stroke="black" d="M296.59,-216.15C307.55,-191.84 327.91,-146.66 340.94,-117.75"/>
<polygon fill="black" stroke="black" points="344.3,-118.82 345.22,-108.27 337.92,-115.95 344.3,-118.82"/>
</g>
<!-- aws&#45;c&#45;auth -->
<g id="node8" class="node">
<title>aws&#45;c&#45;auth</title>
<g id="a_node8"><a xlink:href="https://github.com/conda-forge/aws-c-auth-feedstock" xlink:title="aws c auth">
<ellipse fill="#fde725" stroke="black" cx="530" cy="-90" rx="60" ry="18"/>
<text text-anchor="middle" x="530" y="-86.3" font-family="Times-Roman" font-size="14.00">aws c auth</text>
</a>
</g>
</g>
<!-- aws&#45;c&#45;io&#45;&gt;aws&#45;c&#45;auth -->
<g id="edge9" class="edge">
<title>aws&#45;c&#45;io&#45;&gt;aws&#45;c&#45;auth</title>
<path fill="none" stroke="black" d="M324.13,-221.87C331.02,-219.82 338.22,-217.77 345,-216 417.2,-197.15 455.82,-232.35 509,-180 525.13,-164.12 529.81,-138.32 530.79,-118.57"/>
<polygon fill="black" stroke="black" points="534.29,-118.4 531,-108.33 527.29,-118.25 534.29,-118.4"/>
</g>
<!-- aws&#45;c&#45;http&#45;&gt;aws&#45;crt&#45;cpp -->
<g id="edge10" class="edge">
<title>aws&#45;c&#45;http&#45;&gt;aws&#45;crt&#45;cpp</title>
<path fill="none" stroke="black" d="M441.57,-143.95C440.36,-125 436.15,-94.16 422,-72 413.89,-59.3 401.62,-48.45 389.66,-39.93"/>
<polygon fill="black" stroke="black" points="391.32,-36.83 381.07,-34.15 387.42,-42.64 391.32,-36.83"/>
</g>
<!-- aws&#45;c&#45;http&#45;&gt;aws&#45;c&#45;mqtt -->
<g id="edge11" class="edge">
<title>aws&#45;c&#45;http&#45;&gt;aws&#45;c&#45;mqtt</title>
<path fill="none" stroke="black" d="M421.8,-145.12C409.83,-135.7 394.46,-123.61 381.29,-113.25"/>
<polygon fill="black" stroke="black" points="383.45,-110.49 373.42,-107.06 379.12,-116 383.45,-110.49"/>
</g>
<!-- aws&#45;c&#45;http&#45;&gt;aws&#45;c&#45;auth -->
<g id="edge12" class="edge">
<title>aws&#45;c&#45;http&#45;&gt;aws&#45;c&#45;auth</title>
<path fill="none" stroke="black" d="M462.41,-144.76C474.07,-135.49 488.87,-123.71 501.65,-113.55"/>
<polygon fill="black" stroke="black" points="504.05,-116.11 509.7,-107.15 499.7,-110.63 504.05,-116.11"/>
</g>
<!-- aws&#45;c&#45;mqtt&#45;&gt;aws&#45;crt&#45;cpp -->
<g id="edge13" class="edge">
<title>aws&#45;c&#45;mqtt&#45;&gt;aws&#45;crt&#45;cpp</title>
<path fill="none" stroke="black" d="M353,-71.7C353,-63.98 353,-54.71 353,-46.11"/>
<polygon fill="black" stroke="black" points="356.5,-46.1 353,-36.1 349.5,-46.1 356.5,-46.1"/>
</g>
<!-- aws&#45;c&#45;auth&#45;&gt;aws&#45;crt&#45;cpp -->
<g id="edge14" class="edge">
<title>aws&#45;c&#45;auth&#45;&gt;aws&#45;crt&#45;cpp</title>
<path fill="none" stroke="black" d="M495.03,-75.17C467.21,-64.17 428.09,-48.7 397.95,-36.78"/>
<polygon fill="black" stroke="black" points="399.09,-33.46 388.5,-33.04 396.51,-39.97 399.09,-33.46"/>
</g>
<!-- aws&#45;c&#45;cal -->
<g id="node9" class="node">
<title>aws&#45;c&#45;cal</title>
<g id="a_node9"><a xlink:href="https://github.com/conda-forge/aws-c-cal-feedstock" xlink:title="aws c cal">
<ellipse fill="#35b779" stroke="black" cx="574" cy="-306" rx="52" ry="18"/>
<text text-anchor="middle" x="574" y="-302.3" font-family="Times-Roman" font-size="14.00">aws c cal</text>
</a>
</g>
</g>
<!-- aws&#45;c&#45;cal&#45;&gt;aws&#45;crt&#45;cpp -->
<g id="edge15" class="edge">
<title>aws&#45;c&#45;cal&#45;&gt;aws&#45;crt&#45;cpp</title>
<path fill="none" stroke="black" d="M583.13,-288.06C604.31,-246.19 651.14,-136.57 599,-72 577.25,-45.06 488.11,-31.16 423.38,-24.48"/>
<polygon fill="black" stroke="black" points="423.51,-20.98 413.21,-23.47 422.82,-27.94 423.51,-20.98"/>
</g>
<!-- aws&#45;c&#45;cal&#45;&gt;aws&#45;c&#45;io -->
<g id="edge16" class="edge">
<title>aws&#45;c&#45;cal&#45;&gt;aws&#45;c&#45;io</title>
<path fill="none" stroke="black" d="M530.74,-295.9C484.53,-285.96 409.26,-269.17 345,-252 341.4,-251.04 337.69,-250 333.96,-248.94"/>
<polygon fill="black" stroke="black" points="334.73,-245.51 324.15,-246.06 332.76,-252.23 334.73,-245.51"/>
</g>
<!-- aws&#45;c&#45;cal&#45;&gt;aws&#45;c&#45;auth -->
<g id="edge17" class="edge">
<title>aws&#45;c&#45;cal&#45;&gt;aws&#45;c&#45;auth</title>
<path fill="none" stroke="black" d="M570.47,-287.85C562.85,-250.75 544.76,-162.81 535.57,-118.1"/>
<polygon fill="black" stroke="black" points="538.99,-117.32 533.54,-108.23 532.13,-118.73 538.99,-117.32"/>
</g>
<!-- aws&#45;c&#45;compression -->
<g id="node10" class="node">
<title>aws&#45;c&#45;compression</title>
<g id="a_node10"><a xlink:href="https://github.com/conda-forge/aws-c-compression-feedstock" xlink:title="aws c compression">
<ellipse fill="#35b779" stroke="black" cx="450" cy="-234" rx="96.38" ry="18"/>
<text text-anchor="middle" x="450" y="-230.3" font-family="Times-Roman" font-size="14.00">aws c compression</text>
</a>
</g>
</g>
<!-- aws&#45;c&#45;compression&#45;&gt;aws&#45;c&#45;http -->
<g id="edge18" class="edge">
<title>aws&#45;c&#45;compression&#45;&gt;aws&#45;c&#45;http</title>
<path fill="none" stroke="black" d="M448.02,-215.7C447.14,-207.98 446.08,-198.71 445.1,-190.11"/>
<polygon fill="black" stroke="black" points="448.57,-189.64 443.95,-180.1 441.61,-190.44 448.57,-189.64"/>
</g>
</g>
</svg>
