<?xml version="1.0" encoding="UTF-8" standalone="no"?>
<!DOCTYPE svg PUBLIC "-//W3C//DTD SVG 1.1//EN"
 "http://www.w3.org/Graphics/SVG/1.1/DTD/svg11.dtd">
<!-- Generated by graphviz version 2.47.2 (20210527.1257)
 -->
<!-- Pages: 1 -->
<svg width="519pt" height="260pt"
 viewBox="0.00 0.00 519.15 260.00" xmlns="http://www.w3.org/2000/svg" xmlns:xlink="http://www.w3.org/1999/xlink">
<g id="graph0" class="graph" transform="scale(1 1) rotate(0) translate(4 256)">
<polygon fill="white" stroke="transparent" points="-4,4 -4,-256 515.15,-256 515.15,4 -4,4"/>
<!-- aws&#45;c&#45;event&#45;stream -->
<g id="node1" class="node">
<title>aws&#45;c&#45;event&#45;stream</title>
<g id="a_node1"><a xlink:href="https://github.com/conda-forge/aws-c-event-stream-feedstock" xlink:title="aws c event stream">
<ellipse fill="#35b779" stroke="black" cx="379.4" cy="-90" rx="98.58" ry="18"/>
<text text-anchor="middle" x="379.4" y="-86.3" font-family="Times-Roman" font-size="14.00">aws c event stream</text>
</a>
</g>
</g>
<!-- aws&#45;crt&#45;cpp -->
<g id="node5" class="node">
<title>aws&#45;crt&#45;cpp</title>
<g id="a_node5"><a xlink:href="https://github.com/conda-forge/aws-crt-cpp-feedstock" xlink:title="aws crt cpp">
<ellipse fill="#fde725" stroke="black" cx="84.4" cy="-18" rx="63.09" ry="18"/>
<text text-anchor="middle" x="84.4" y="-14.3" font-family="Times-Roman" font-size="14.00">aws crt cpp</text>
</a>
</g>
</g>
<!-- aws&#45;c&#45;event&#45;stream&#45;&gt;aws&#45;crt&#45;cpp -->
<g id="edge1" class="edge">
<title>aws&#45;c&#45;event&#45;stream&#45;&gt;aws&#45;crt&#45;cpp</title>
<path fill="none" stroke="black" d="M321.82,-75.34C269.63,-62.95 193.16,-44.81 141.21,-32.48"/>
<polygon fill="black" stroke="black" points="141.7,-29 131.16,-30.1 140.08,-35.81 141.7,-29"/>
</g>
<!-- awscrt -->
<g id="node7" class="node">
<title>awscrt</title>
<g id="a_node7"><a xlink:href="https://github.com/conda-forge/awscrt-feedstock" xlink:title="awscrt">
<ellipse fill="#fde725" stroke="black" cx="379.4" cy="-18" rx="40.09" ry="18"/>
<text text-anchor="middle" x="379.4" y="-14.3" font-family="Times-Roman" font-size="14.00">awscrt</text>
</a>
</g>
</g>
<!-- aws&#45;c&#45;event&#45;stream&#45;&gt;awscrt -->
<g id="edge2" class="edge">
<title>aws&#45;c&#45;event&#45;stream&#45;&gt;awscrt</title>
<path fill="none" stroke="black" d="M379.4,-71.7C379.4,-63.98 379.4,-54.71 379.4,-46.11"/>
<polygon fill="black" stroke="black" points="382.9,-46.1 379.4,-36.1 375.9,-46.1 382.9,-46.1"/>
</g>
<!-- aws&#45;c&#45;http -->
<g id="node2" class="node">
<title>aws&#45;c&#45;http</title>
<g id="a_node2"><a xlink:href="https://github.com/conda-forge/aws-c-http-feedstock" xlink:title="aws c http">
<ellipse fill="#35b779" stroke="black" cx="172.4" cy="-234" rx="57.69" ry="18"/>
<text text-anchor="middle" x="172.4" y="-230.3" font-family="Times-Roman" font-size="14.00">aws c http</text>
</a>
</g>
</g>
<!-- aws&#45;c&#45;mqtt -->
<g id="node3" class="node">
<title>aws&#45;c&#45;mqtt</title>
<g id="a_node3"><a xlink:href="https://github.com/conda-forge/aws-c-mqtt-feedstock" xlink:title="aws c mqtt">
<ellipse fill="#fde725" stroke="black" cx="84.4" cy="-90" rx="60.39" ry="18"/>
<text text-anchor="middle" x="84.4" y="-86.3" font-family="Times-Roman" font-size="14.00">aws c mqtt</text>
</a>
</g>
</g>
<!-- aws&#45;c&#45;http&#45;&gt;aws&#45;c&#45;mqtt -->
<g id="edge4" class="edge">
<title>aws&#45;c&#45;http&#45;&gt;aws&#45;c&#45;mqtt</title>
<path fill="none" stroke="black" d="M144.61,-218.11C130.17,-208.98 113.48,-195.97 103.4,-180 91.7,-161.46 87.1,-136.87 85.34,-118.23"/>
<polygon fill="black" stroke="black" points="88.82,-117.76 84.61,-108.04 81.84,-118.27 88.82,-117.76"/>
</g>
<!-- aws&#45;c&#45;auth -->
<g id="node4" class="node">
<title>aws&#45;c&#45;auth</title>
<g id="a_node4"><a xlink:href="https://github.com/conda-forge/aws-c-auth-feedstock" xlink:title="aws c auth">
<ellipse fill="#fde725" stroke="black" cx="172.4" cy="-162" rx="59.59" ry="18"/>
<text text-anchor="middle" x="172.4" y="-158.3" font-family="Times-Roman" font-size="14.00">aws c auth</text>
</a>
</g>
</g>
<!-- aws&#45;c&#45;http&#45;&gt;aws&#45;c&#45;auth -->
<g id="edge3" class="edge">
<title>aws&#45;c&#45;http&#45;&gt;aws&#45;c&#45;auth</title>
<path fill="none" stroke="black" d="M172.4,-215.7C172.4,-207.98 172.4,-198.71 172.4,-190.11"/>
<polygon fill="black" stroke="black" points="175.9,-190.1 172.4,-180.1 168.9,-190.1 175.9,-190.1"/>
</g>
<!-- aws&#45;c&#45;http&#45;&gt;aws&#45;crt&#45;cpp -->
<g id="edge6" class="edge">
<title>aws&#45;c&#45;http&#45;&gt;aws&#45;crt&#45;cpp</title>
<path fill="none" stroke="black" d="M137.79,-219.49C96.76,-201.29 30.77,-164.49 5.4,-108 -1.15,-93.4 -2.13,-86.12 5.4,-72 13.05,-57.65 26.5,-46.51 40.16,-38.21"/>
<polygon fill="black" stroke="black" points="42.11,-41.13 49.1,-33.17 38.67,-35.03 42.11,-41.13"/>
</g>
<!-- aws&#45;c&#45;s3 -->
<g id="node6" class="node">
<title>aws&#45;c&#45;s3</title>
<g id="a_node6"><a xlink:href="https://github.com/conda-forge/aws-c-s3-feedstock" xlink:title="aws c s3">
<ellipse fill="#fde725" stroke="black" cx="212.4" cy="-90" rx="50.09" ry="18"/>
<text text-anchor="middle" x="212.4" y="-86.3" font-family="Times-Roman" font-size="14.00">aws c s3</text>
</a>
</g>
</g>
<!-- aws&#45;c&#45;http&#45;&gt;aws&#45;c&#45;s3 -->
<g id="edge5" class="edge">
<title>aws&#45;c&#45;http&#45;&gt;aws&#45;c&#45;s3</title>
<path fill="none" stroke="black" d="M202.27,-218.44C216.94,-209.55 233.19,-196.67 241.4,-180 251.5,-159.52 241.77,-134.71 230.95,-116.49"/>
<polygon fill="black" stroke="black" points="233.62,-114.17 225.28,-107.63 227.72,-117.94 233.62,-114.17"/>
</g>
<!-- aws&#45;c&#45;http&#45;&gt;awscrt -->
<g id="edge7" class="edge">
<title>aws&#45;c&#45;http&#45;&gt;awscrt</title>
<path fill="none" stroke="black" d="M229.36,-230.31C306.64,-223.22 442.19,-197.89 504.4,-108 513.51,-94.84 513.24,-85.34 504.4,-72 487.37,-46.27 455.06,-33 427.56,-26.17"/>
<polygon fill="black" stroke="black" points="428.21,-22.72 417.68,-23.93 426.67,-29.55 428.21,-22.72"/>
</g>
<!-- aws&#45;c&#45;mqtt&#45;&gt;aws&#45;crt&#45;cpp -->
<g id="edge8" class="edge">
<title>aws&#45;c&#45;mqtt&#45;&gt;aws&#45;crt&#45;cpp</title>
<path fill="none" stroke="black" d="M84.4,-71.7C84.4,-63.98 84.4,-54.71 84.4,-46.11"/>
<polygon fill="black" stroke="black" points="87.9,-46.1 84.4,-36.1 80.9,-46.1 87.9,-46.1"/>
</g>
<!-- aws&#45;c&#45;mqtt&#45;&gt;awscrt -->
<g id="edge9" class="edge">
<title>aws&#45;c&#45;mqtt&#45;&gt;awscrt</title>
<path fill="none" stroke="black" d="M129.3,-77.86C137.32,-75.89 145.61,-73.87 153.4,-72 216.24,-56.89 289.04,-39.91 334.66,-29.34"/>
<polygon fill="black" stroke="black" points="335.58,-32.72 344.53,-27.05 334,-25.9 335.58,-32.72"/>
</g>
<!-- aws&#45;c&#45;auth&#45;&gt;aws&#45;crt&#45;cpp -->
<g id="edge11" class="edge">
<title>aws&#45;c&#45;auth&#45;&gt;aws&#45;crt&#45;cpp</title>
<path fill="none" stroke="black" d="M114.34,-157.64C79.53,-152.27 37.8,-139.2 15.4,-108 6.07,-95 8.33,-86.35 15.4,-72 21.9,-58.81 33.44,-47.98 45.24,-39.63"/>
<polygon fill="black" stroke="black" points="47.39,-42.41 53.82,-33.99 43.54,-36.57 47.39,-42.41"/>
</g>
<!-- aws&#45;c&#45;auth&#45;&gt;aws&#45;c&#45;s3 -->
<g id="edge10" class="edge">
<title>aws&#45;c&#45;auth&#45;&gt;aws&#45;c&#45;s3</title>
<path fill="none" stroke="black" d="M182.09,-144.05C186.8,-135.8 192.57,-125.7 197.81,-116.54"/>
<polygon fill="black" stroke="black" points="200.89,-118.21 202.81,-107.79 194.81,-114.73 200.89,-118.21"/>
</g>
<!-- aws&#45;c&#45;auth&#45;&gt;awscrt -->
<g id="edge12" class="edge">
<title>aws&#45;c&#45;auth&#45;&gt;awscrt</title>
<path fill="none" stroke="black" d="M232.05,-159.79C314.12,-156.71 455.35,-145.9 487.4,-108 497.74,-95.78 495.87,-85.58 487.4,-72 473.73,-50.05 448.02,-36.94 425.11,-29.25"/>
<polygon fill="black" stroke="black" points="426.1,-25.89 415.51,-26.27 424.03,-32.57 426.1,-25.89"/>
</g>
<!-- aws&#45;c&#45;s3&#45;&gt;aws&#45;crt&#45;cpp -->
<g id="edge13" class="edge">
<title>aws&#45;c&#45;s3&#45;&gt;aws&#45;crt&#45;cpp</title>
<path fill="none" stroke="black" d="M186.19,-74.67C167.46,-64.42 142,-50.5 121.23,-39.14"/>
<polygon fill="black" stroke="black" points="122.81,-36.01 112.35,-34.29 119.45,-42.15 122.81,-36.01"/>
</g>
<!-- aws&#45;c&#45;s3&#45;&gt;awscrt -->
<g id="edge14" class="edge">
<title>aws&#45;c&#45;s3&#45;&gt;awscrt</title>
<path fill="none" stroke="black" d="M243.81,-75.83C271.49,-64.23 311.87,-47.31 341.37,-34.94"/>
<polygon fill="black" stroke="black" points="343.05,-38.03 350.92,-30.94 340.34,-31.58 343.05,-38.03"/>
</g>
</g>
</svg>
