<?xml version="1.0" encoding="UTF-8" standalone="no"?>
<!DOCTYPE svg PUBLIC "-//W3C//DTD SVG 1.1//EN"
 "http://www.w3.org/Graphics/SVG/1.1/DTD/svg11.dtd">
<!-- Generated by graphviz version 2.47.3 (20210619.2315)
 -->
<!-- Pages: 1 -->
<svg width="522pt" height="188pt"
 viewBox="0.00 0.00 521.99 188.00" xmlns="http://www.w3.org/2000/svg" xmlns:xlink="http://www.w3.org/1999/xlink">
<g id="graph0" class="graph" transform="scale(1 1) rotate(0) translate(4 184)">
<polygon fill="white" stroke="transparent" points="-4,4 -4,-184 517.99,-184 517.99,4 -4,4"/>
<!-- aws&#45;c&#45;event&#45;stream -->
<g id="node1" class="node">
<title>aws&#45;c&#45;event&#45;stream</title>
<g id="a_node1"><a xlink:href="https://github.com/conda-forge/aws-c-event-stream-feedstock/pull/36" xlink:title="aws c event stream ✓">
<ellipse fill="#31688e" stroke="black" cx="385.1" cy="-90" rx="108.58" ry="18"/>
<text text-anchor="middle" x="385.1" y="-86.3" font-family="Times,serif" font-size="14.00" fill="white">aws c event stream ✓</text>
</a>
</g>
</g>
<!-- aws&#45;crt&#45;cpp -->
<g id="node4" class="node">
<title>aws&#45;crt&#45;cpp</title>
<g id="a_node4"><a xlink:href="https://github.com/conda-forge/aws-crt-cpp-feedstock" xlink:title="aws crt cpp">
<ellipse fill="#fde725" stroke="black" cx="271.1" cy="-18" rx="64.19" ry="18"/>
<text text-anchor="middle" x="271.1" y="-14.3" font-family="Times,serif" font-size="14.00">aws crt cpp</text>
</a>
</g>
</g>
<!-- aws&#45;c&#45;event&#45;stream&#45;&gt;aws&#45;crt&#45;cpp -->
<g id="edge1" class="edge">
<title>aws&#45;c&#45;event&#45;stream&#45;&gt;aws&#45;crt&#45;cpp</title>
<path fill="none" stroke="black" d="M358.08,-72.41C342.42,-62.79 322.53,-50.58 305.72,-40.26"/>
<polygon fill="black" stroke="black" points="307.1,-37 296.75,-34.75 303.44,-42.96 307.1,-37"/>
</g>
<!-- awscrt -->
<g id="node6" class="node">
<title>awscrt</title>
<g id="a_node6"><a xlink:href="https://github.com/conda-forge/awscrt-feedstock" xlink:title="awscrt">
<ellipse fill="#fde725" stroke="black" cx="144.1" cy="-18" rx="42.49" ry="18"/>
<text text-anchor="middle" x="144.1" y="-14.3" font-family="Times,serif" font-size="14.00">awscrt</text>
</a>
</g>
</g>
<!-- aws&#45;c&#45;event&#45;stream&#45;&gt;awscrt -->
<g id="edge2" class="edge">
<title>aws&#45;c&#45;event&#45;stream&#45;&gt;awscrt</title>
<path fill="none" stroke="black" d="M331.38,-74.22C293.94,-63.8 242.88,-49.39 198.1,-36 194.34,-34.88 190.44,-33.69 186.53,-32.49"/>
<polygon fill="black" stroke="black" points="187.48,-29.11 176.89,-29.49 185.4,-35.8 187.48,-29.11"/>
</g>
<!-- aws&#45;c&#45;mqtt -->
<g id="node2" class="node">
<title>aws&#45;c&#45;mqtt</title>
<g id="a_node2"><a xlink:href="https://github.com/conda-forge/aws-c-mqtt-feedstock" xlink:title="aws c mqtt">
<ellipse fill="#35b779" stroke="black" cx="78.1" cy="-90" rx="61.99" ry="18"/>
<text text-anchor="middle" x="78.1" y="-86.3" font-family="Times,serif" font-size="14.00">aws c mqtt</text>
</a>
</g>
</g>
<!-- aws&#45;c&#45;mqtt&#45;&gt;aws&#45;crt&#45;cpp -->
<g id="edge3" class="edge">
<title>aws&#45;c&#45;mqtt&#45;&gt;aws&#45;crt&#45;cpp</title>
<path fill="none" stroke="black" d="M115.31,-75.5C146.22,-64.29 190.37,-48.28 223.78,-36.16"/>
<polygon fill="black" stroke="black" points="225.14,-39.39 233.34,-32.69 222.75,-32.81 225.14,-39.39"/>
</g>
<!-- aws&#45;c&#45;mqtt&#45;&gt;awscrt -->
<g id="edge4" class="edge">
<title>aws&#45;c&#45;mqtt&#45;&gt;awscrt</title>
<path fill="none" stroke="black" d="M93.74,-72.41C102.16,-63.48 112.69,-52.31 121.94,-42.5"/>
<polygon fill="black" stroke="black" points="124.71,-44.67 129.02,-34.99 119.62,-39.86 124.71,-44.67"/>
</g>
<!-- aws&#45;c&#45;auth -->
<g id="node3" class="node">
<title>aws&#45;c&#45;auth</title>
<g id="a_node3"><a xlink:href="https://github.com/conda-forge/aws-c-auth-feedstock" xlink:title="aws c auth">
<ellipse fill="#35b779" stroke="black" cx="208.1" cy="-162" rx="60.39" ry="18"/>
<text text-anchor="middle" x="208.1" y="-158.3" font-family="Times,serif" font-size="14.00">aws c auth</text>
</a>
</g>
</g>
<!-- aws&#45;c&#45;auth&#45;&gt;aws&#45;crt&#45;cpp -->
<g id="edge6" class="edge">
<title>aws&#45;c&#45;auth&#45;&gt;aws&#45;crt&#45;cpp</title>
<path fill="none" stroke="black" d="M267.91,-159C345.3,-155 473.72,-143.13 503.1,-108 550.9,-50.84 428.58,-30.3 343.95,-22.98"/>
<polygon fill="black" stroke="black" points="344.08,-19.48 333.82,-22.15 343.51,-26.46 344.08,-19.48"/>
</g>
<!-- aws&#45;c&#45;s3 -->
<g id="node5" class="node">
<title>aws&#45;c&#45;s3</title>
<g id="a_node5"><a xlink:href="https://github.com/conda-forge/aws-c-s3-feedstock" xlink:title="aws c s3">
<ellipse fill="#fde725" stroke="black" cx="208.1" cy="-90" rx="50.09" ry="18"/>
<text text-anchor="middle" x="208.1" y="-86.3" font-family="Times,serif" font-size="14.00">aws c s3</text>
</a>
</g>
</g>
<!-- aws&#45;c&#45;auth&#45;&gt;aws&#45;c&#45;s3 -->
<g id="edge5" class="edge">
<title>aws&#45;c&#45;auth&#45;&gt;aws&#45;c&#45;s3</title>
<path fill="none" stroke="black" d="M208.1,-143.7C208.1,-135.98 208.1,-126.71 208.1,-118.11"/>
<polygon fill="black" stroke="black" points="211.6,-118.1 208.1,-108.1 204.6,-118.1 211.6,-118.1"/>
</g>
<!-- aws&#45;c&#45;auth&#45;&gt;awscrt -->
<g id="edge7" class="edge">
<title>aws&#45;c&#45;auth&#45;&gt;awscrt</title>
<path fill="none" stroke="black" d="M153.42,-154.1C100.23,-146.14 24.89,-131.08 7.1,-108 -2.67,-95.33 -1.95,-85.2 7.1,-72 26.33,-43.93 62.73,-30.73 93.18,-24.51"/>
<polygon fill="black" stroke="black" points="94.04,-27.91 103.24,-22.66 92.77,-21.03 94.04,-27.91"/>
</g>
<!-- aws&#45;c&#45;s3&#45;&gt;aws&#45;crt&#45;cpp -->
<g id="edge8" class="edge">
<title>aws&#45;c&#45;s3&#45;&gt;aws&#45;crt&#45;cpp</title>
<path fill="none" stroke="black" d="M222.71,-72.76C230.63,-63.97 240.56,-52.93 249.37,-43.14"/>
<polygon fill="black" stroke="black" points="252.04,-45.41 256.13,-35.63 246.84,-40.72 252.04,-45.41"/>
</g>
<!-- aws&#45;c&#45;s3&#45;&gt;awscrt -->
<g id="edge9" class="edge">
<title>aws&#45;c&#45;s3&#45;&gt;awscrt</title>
<path fill="none" stroke="black" d="M193.26,-72.76C185.1,-63.84 174.83,-52.61 165.79,-42.72"/>
<polygon fill="black" stroke="black" points="168.19,-40.17 158.86,-35.15 163.03,-44.89 168.19,-40.17"/>
</g>
</g>
</svg>
