<?xml version="1.0" encoding="UTF-8" standalone="no"?>
<!DOCTYPE svg PUBLIC "-//W3C//DTD SVG 1.1//EN"
 "http://www.w3.org/Graphics/SVG/1.1/DTD/svg11.dtd">
<!-- Generated by graphviz version 2.42.3 (20191010.1750)
 -->
<!-- Title: %3 Pages: 1 -->
<svg width="275pt" height="260pt"
 viewBox="0.00 0.00 275.29 260.00" xmlns="http://www.w3.org/2000/svg" xmlns:xlink="http://www.w3.org/1999/xlink">
<g id="graph0" class="graph" transform="scale(1 1) rotate(0) translate(4 256)">
<title>%3</title>
<polygon fill="white" stroke="transparent" points="-4,4 -4,-256 271.29,-256 271.29,4 -4,4"/>
<!-- aws&#45;sdk&#45;cpp -->
<g id="node1" class="node">
<title>aws&#45;sdk&#45;cpp</title>
<g id="a_node1"><a xlink:href="https://github.com/conda-forge/aws-sdk-cpp-feedstock" xlink:title="aws sdk cpp">
<ellipse fill="#fde725" stroke="black" cx="145.34" cy="-18" rx="53.89" ry="18"/>
<text text-anchor="middle" x="145.34" y="-14.3" font-family="Times,serif" font-size="14.00">aws sdk cpp</text>
</a>
</g>
</g>
<!-- aws&#45;checksums -->
<g id="node2" class="node">
<title>aws&#45;checksums</title>
<g id="a_node2"><a xlink:href="https://github.com/conda-forge/aws-checksums-feedstock/pull/9" xlink:title="aws checksums ❎">
<ellipse fill="#31688e" stroke="black" cx="77.34" cy="-162" rx="77.19" ry="18"/>
<text text-anchor="middle" x="77.34" y="-158.3" font-family="Times,serif" font-size="14.00" fill="white">aws checksums ❎</text>
</a>
</g>
</g>
<!-- aws&#45;c&#45;event&#45;stream -->
<g id="node3" class="node">
<title>aws&#45;c&#45;event&#45;stream</title>
<g id="a_node3"><a xlink:href="https://github.com/conda-forge/aws-c-event-stream-feedstock" xlink:title="aws c event stream">
<ellipse fill="#fde725" stroke="black" cx="145.34" cy="-90" rx="78.79" ry="18"/>
<text text-anchor="middle" x="145.34" y="-86.3" font-family="Times,serif" font-size="14.00">aws c event stream</text>
</a>
</g>
</g>
<!-- aws&#45;checksums&#45;&gt;aws&#45;c&#45;event&#45;stream -->
<g id="edge1" class="edge">
<title>aws&#45;checksums&#45;&gt;aws&#45;c&#45;event&#45;stream</title>
<path fill="none" stroke="black" d="M93.8,-144.05C102.24,-135.37 112.66,-124.64 121.92,-115.11"/>
<polygon fill="black" stroke="black" points="124.58,-117.4 129.03,-107.79 119.56,-112.52 124.58,-117.4"/>
</g>
<!-- aws&#45;c&#45;event&#45;stream&#45;&gt;aws&#45;sdk&#45;cpp -->
<g id="edge2" class="edge">
<title>aws&#45;c&#45;event&#45;stream&#45;&gt;aws&#45;sdk&#45;cpp</title>
<path fill="none" stroke="black" d="M145.34,-71.7C145.34,-63.98 145.34,-54.71 145.34,-46.11"/>
<polygon fill="black" stroke="black" points="148.84,-46.1 145.34,-36.1 141.84,-46.1 148.84,-46.1"/>
</g>
<!-- aws&#45;c&#45;io -->
<g id="node4" class="node">
<title>aws&#45;c&#45;io</title>
<g id="a_node4"><a xlink:href="https://github.com/conda-forge/aws-c-io-feedstock" xlink:title="aws c io">
<ellipse fill="#fde725" stroke="black" cx="213.34" cy="-162" rx="40.09" ry="18"/>
<text text-anchor="middle" x="213.34" y="-158.3" font-family="Times,serif" font-size="14.00">aws c io</text>
</a>
</g>
</g>
<!-- aws&#45;c&#45;io&#45;&gt;aws&#45;c&#45;event&#45;stream -->
<g id="edge3" class="edge">
<title>aws&#45;c&#45;io&#45;&gt;aws&#45;c&#45;event&#45;stream</title>
<path fill="none" stroke="black" d="M197.91,-145.12C189.29,-136.24 178.38,-125.01 168.73,-115.08"/>
<polygon fill="black" stroke="black" points="171.14,-112.53 161.66,-107.8 166.12,-117.41 171.14,-112.53"/>
</g>
<!-- aws&#45;c&#45;cal -->
<g id="node5" class="node">
<title>aws&#45;c&#45;cal</title>
<g id="a_node5"><a xlink:href="https://github.com/conda-forge/aws-c-cal-feedstock/pull/9" xlink:title="aws c cal ✓">
<ellipse fill="#31688e" stroke="black" cx="213.34" cy="-234" rx="53.89" ry="18"/>
<text text-anchor="middle" x="213.34" y="-230.3" font-family="Times,serif" font-size="14.00" fill="white">aws c cal ✓</text>
</a>
</g>
</g>
<!-- aws&#45;c&#45;cal&#45;&gt;aws&#45;c&#45;io -->
<g id="edge4" class="edge">
<title>aws&#45;c&#45;cal&#45;&gt;aws&#45;c&#45;io</title>
<path fill="none" stroke="black" d="M213.34,-215.7C213.34,-207.98 213.34,-198.71 213.34,-190.11"/>
<polygon fill="black" stroke="black" points="216.84,-190.1 213.34,-180.1 209.84,-190.1 216.84,-190.1"/>
</g>
</g>
</svg>
