<?xml version="1.0" encoding="UTF-8" standalone="no"?>
<!DOCTYPE svg PUBLIC "-//W3C//DTD SVG 1.1//EN"
 "http://www.w3.org/Graphics/SVG/1.1/DTD/svg11.dtd">
<!-- Generated by graphviz version 6.0.2 (20221126.1951)
 -->
<!-- Pages: 1 -->
<svg width="384pt" height="116pt"
 viewBox="0.00 0.00 384.38 116.00" xmlns="http://www.w3.org/2000/svg" xmlns:xlink="http://www.w3.org/1999/xlink">
<g id="graph0" class="graph" transform="scale(1 1) rotate(0) translate(4 112)">
<polygon fill="white" stroke="none" points="-4,4 -4,-112 380.38,-112 380.38,4 -4,4"/>
<!-- aws&#45;c&#45;event&#45;stream -->
<g id="node1" class="node">
<title>aws&#45;c&#45;event&#45;stream</title>
<g id="a_node1"><a xlink:href="https://github.com/conda-forge/aws-c-event-stream-feedstock/pull/103" xlink:title="aws c event stream ❎">
<ellipse fill="#31688e" stroke="black" cx="115.04" cy="-90" rx="115.08" ry="18"/>
<text text-anchor="middle" x="115.04" y="-86.3" font-family="Times,serif" font-size="14.00" fill="white">aws c event stream ❎</text>
</a>
</g>
</g>
<!-- aws&#45;crt&#45;cpp -->
<g id="node2" class="node">
<title>aws&#45;crt&#45;cpp</title>
<g id="a_node2"><a xlink:href="https://github.com/conda-forge/aws-crt-cpp-feedstock" xlink:title="aws crt cpp">
<ellipse fill="#fde725" stroke="black" cx="151.04" cy="-18" rx="64.19" ry="18"/>
<text text-anchor="middle" x="151.04" y="-14.3" font-family="Times,serif" font-size="14.00">aws crt cpp</text>
</a>
</g>
</g>
<!-- aws&#45;c&#45;event&#45;stream&#45;&gt;aws&#45;crt&#45;cpp -->
<g id="edge1" class="edge">
<title>aws&#45;c&#45;event&#45;stream&#45;&gt;aws&#45;crt&#45;cpp</title>
<path fill="none" stroke="black" d="M123.94,-71.7C128.04,-63.73 132.99,-54.1 137.53,-45.26"/>
<polygon fill="black" stroke="black" points="140.78,-46.6 142.24,-36.1 134.56,-43.4 140.78,-46.6"/>
</g>
<!-- awscrt -->
<g id="node4" class="node">
<title>awscrt</title>
<g id="a_node4"><a xlink:href="https://github.com/conda-forge/awscrt-feedstock" xlink:title="awscrt">
<ellipse fill="#fde725" stroke="black" cx="294.04" cy="-18" rx="42.49" ry="18"/>
<text text-anchor="middle" x="294.04" y="-14.3" font-family="Times,serif" font-size="14.00">awscrt</text>
</a>
</g>
</g>
<!-- aws&#45;c&#45;event&#45;stream&#45;&gt;awscrt -->
<g id="edge2" class="edge">
<title>aws&#45;c&#45;event&#45;stream&#45;&gt;awscrt</title>
<path fill="none" stroke="black" d="M155.66,-73.12C185.22,-61.56 225.05,-45.98 254.38,-34.51"/>
<polygon fill="black" stroke="black" points="255.86,-37.69 263.9,-30.79 253.31,-31.17 255.86,-37.69"/>
</g>
<!-- aws&#45;c&#45;s3 -->
<g id="node3" class="node">
<title>aws&#45;c&#45;s3</title>
<g id="a_node3"><a xlink:href="https://github.com/conda-forge/aws-c-s3-feedstock/pull/146" xlink:title="aws c s3 ❎">
<ellipse fill="#31688e" stroke="black" cx="312.04" cy="-90" rx="64.19" ry="18"/>
<text text-anchor="middle" x="312.04" y="-86.3" font-family="Times,serif" font-size="14.00" fill="white">aws c s3 ❎</text>
</a>
</g>
</g>
<!-- aws&#45;c&#45;s3&#45;&gt;aws&#45;crt&#45;cpp -->
<g id="edge3" class="edge">
<title>aws&#45;c&#45;s3&#45;&gt;aws&#45;crt&#45;cpp</title>
<path fill="none" stroke="black" d="M278.68,-74.5C254.07,-63.8 220.39,-49.15 193.8,-37.59"/>
<polygon fill="black" stroke="black" points="194.92,-34.26 184.36,-33.49 192.13,-40.68 194.92,-34.26"/>
</g>
<!-- aws&#45;c&#45;s3&#45;&gt;awscrt -->
<g id="edge4" class="edge">
<title>aws&#45;c&#45;s3&#45;&gt;awscrt</title>
<path fill="none" stroke="black" d="M307.59,-71.7C305.58,-63.9 303.17,-54.51 300.94,-45.83"/>
<polygon fill="black" stroke="black" points="304.32,-44.92 298.44,-36.1 297.54,-46.66 304.32,-44.92"/>
</g>
</g>
</svg>
