<?xml version="1.0" encoding="UTF-8" standalone="no"?>
<!DOCTYPE svg PUBLIC "-//W3C//DTD SVG 1.1//EN"
 "http://www.w3.org/Graphics/SVG/1.1/DTD/svg11.dtd">
<!-- Generated by graphviz version 2.49.0 (20210829.0051)
 -->
<!-- Pages: 1 -->
<svg width="543pt" height="260pt"
 viewBox="0.00 0.00 542.61 260.00" xmlns="http://www.w3.org/2000/svg" xmlns:xlink="http://www.w3.org/1999/xlink">
<g id="graph0" class="graph" transform="scale(1 1) rotate(0) translate(4 256)">
<polygon fill="white" stroke="transparent" points="-4,4 -4,-256 538.61,-256 538.61,4 -4,4"/>
<!-- aws&#45;sdk&#45;cpp -->
<g id="node1" class="node">
<title>aws&#45;sdk&#45;cpp</title>
<g id="a_node1"><a xlink:href="https://github.com/conda-forge/aws-sdk-cpp-feedstock" xlink:title="aws sdk cpp">
<ellipse fill="#fde725" stroke="black" cx="166.87" cy="-18" rx="67.69" ry="18"/>
<text text-anchor="middle" x="166.87" y="-14.3" font-family="Times,serif" font-size="14.00">aws sdk cpp</text>
</a>
</g>
</g>
<!-- aws&#45;c&#45;event&#45;stream -->
<g id="node2" class="node">
<title>aws&#45;c&#45;event&#45;stream</title>
<g id="a_node2"><a xlink:href="https://github.com/conda-forge/aws-c-event-stream-feedstock" xlink:title="aws c event stream">
<ellipse fill="#ff8c00" stroke="black" cx="120.87" cy="-162" rx="100.98" ry="18"/>
<text text-anchor="middle" x="120.87" y="-158.3" font-family="Times,serif" font-size="14.00">aws c event stream</text>
</a>
</g>
</g>
<!-- aws&#45;c&#45;event&#45;stream&#45;&gt;aws&#45;sdk&#45;cpp -->
<g id="edge2" class="edge">
<title>aws&#45;c&#45;event&#45;stream&#45;&gt;aws&#45;sdk&#45;cpp</title>
<path fill="none" stroke="black" d="M123.16,-143.91C125.91,-125.72 131.26,-96.27 139.87,-72 143.08,-62.95 147.52,-53.48 151.87,-45.09"/>
<polygon fill="black" stroke="black" points="155.02,-46.62 156.68,-36.16 148.86,-43.3 155.02,-46.62"/>
</g>
<!-- aws&#45;crt&#45;cpp -->
<g id="node5" class="node">
<title>aws&#45;crt&#45;cpp</title>
<g id="a_node5"><a xlink:href="https://github.com/conda-forge/aws-crt-cpp-feedstock" xlink:title="aws crt cpp">
<ellipse fill="#fde725" stroke="black" cx="212.87" cy="-90" rx="64.19" ry="18"/>
<text text-anchor="middle" x="212.87" y="-86.3" font-family="Times,serif" font-size="14.00">aws crt cpp</text>
</a>
</g>
</g>
<!-- aws&#45;c&#45;event&#45;stream&#45;&gt;aws&#45;crt&#45;cpp -->
<g id="edge1" class="edge">
<title>aws&#45;c&#45;event&#45;stream&#45;&gt;aws&#45;crt&#45;cpp</title>
<path fill="none" stroke="black" d="M142.67,-144.41C154.79,-135.19 170.04,-123.59 183.22,-113.55"/>
<polygon fill="black" stroke="black" points="185.7,-116.07 191.54,-107.23 181.46,-110.5 185.7,-116.07"/>
</g>
<!-- awscrt -->
<g id="node7" class="node">
<title>awscrt</title>
<g id="a_node7"><a xlink:href="https://github.com/conda-forge/awscrt-feedstock" xlink:title="awscrt">
<ellipse fill="#fde725" stroke="black" cx="398.87" cy="-90" rx="42.49" ry="18"/>
<text text-anchor="middle" x="398.87" y="-86.3" font-family="Times,serif" font-size="14.00">awscrt</text>
</a>
</g>
</g>
<!-- aws&#45;c&#45;event&#45;stream&#45;&gt;awscrt -->
<g id="edge3" class="edge">
<title>aws&#45;c&#45;event&#45;stream&#45;&gt;awscrt</title>
<path fill="none" stroke="black" d="M176.79,-146.92C228.75,-133.84 305.17,-114.59 353.45,-102.44"/>
<polygon fill="black" stroke="black" points="354.47,-105.79 363.31,-99.95 352.76,-99 354.47,-105.79"/>
</g>
<!-- aws&#45;c&#45;mqtt -->
<g id="node3" class="node">
<title>aws&#45;c&#45;mqtt</title>
<g id="a_node3"><a xlink:href="https://github.com/conda-forge/aws-c-mqtt-feedstock/pull/26" xlink:title="aws c mqtt ❎">
<ellipse fill="#31688e" stroke="black" cx="315.87" cy="-162" rx="76.09" ry="18"/>
<text text-anchor="middle" x="315.87" y="-158.3" font-family="Times,serif" font-size="14.00" fill="white">aws c mqtt ❎</text>
</a>
</g>
</g>
<!-- aws&#45;c&#45;mqtt&#45;&gt;aws&#45;crt&#45;cpp -->
<g id="edge4" class="edge">
<title>aws&#45;c&#45;mqtt&#45;&gt;aws&#45;crt&#45;cpp</title>
<path fill="none" stroke="black" d="M291.98,-144.76C277.97,-135.24 260.09,-123.09 244.87,-112.75"/>
<polygon fill="black" stroke="black" points="246.51,-109.63 236.27,-106.91 242.58,-115.42 246.51,-109.63"/>
</g>
<!-- aws&#45;c&#45;mqtt&#45;&gt;awscrt -->
<g id="edge5" class="edge">
<title>aws&#45;c&#45;mqtt&#45;&gt;awscrt</title>
<path fill="none" stroke="black" d="M335.54,-144.41C346.68,-135.02 360.75,-123.15 372.8,-112.99"/>
<polygon fill="black" stroke="black" points="375.37,-115.4 380.76,-106.27 370.86,-110.05 375.37,-115.4"/>
</g>
<!-- aws&#45;c&#45;auth -->
<g id="node4" class="node">
<title>aws&#45;c&#45;auth</title>
<g id="a_node4"><a xlink:href="https://github.com/conda-forge/aws-c-auth-feedstock/pull/33" xlink:title="aws c auth ❎">
<ellipse fill="#31688e" stroke="black" cx="459.87" cy="-234" rx="74.99" ry="18"/>
<text text-anchor="middle" x="459.87" y="-230.3" font-family="Times,serif" font-size="14.00" fill="white">aws c auth ❎</text>
</a>
</g>
</g>
<!-- aws&#45;c&#45;auth&#45;&gt;aws&#45;crt&#45;cpp -->
<g id="edge7" class="edge">
<title>aws&#45;c&#45;auth&#45;&gt;aws&#45;crt&#45;cpp</title>
<path fill="none" stroke="black" d="M387.33,-229.63C266.65,-223.27 35.41,-207.61 10.87,-180 -31.99,-131.79 68.85,-108.5 142.95,-98.2"/>
<polygon fill="black" stroke="black" points="143.76,-101.62 153.21,-96.83 142.83,-94.69 143.76,-101.62"/>
</g>
<!-- aws&#45;c&#45;s3 -->
<g id="node6" class="node">
<title>aws&#45;c&#45;s3</title>
<g id="a_node6"><a xlink:href="https://github.com/conda-forge/aws-c-s3-feedstock" xlink:title="aws c s3">
<ellipse fill="#fde725" stroke="black" cx="459.87" cy="-162" rx="50.09" ry="18"/>
<text text-anchor="middle" x="459.87" y="-158.3" font-family="Times,serif" font-size="14.00">aws c s3</text>
</a>
</g>
</g>
<!-- aws&#45;c&#45;auth&#45;&gt;aws&#45;c&#45;s3 -->
<g id="edge6" class="edge">
<title>aws&#45;c&#45;auth&#45;&gt;aws&#45;c&#45;s3</title>
<path fill="none" stroke="black" d="M459.87,-215.7C459.87,-207.98 459.87,-198.71 459.87,-190.11"/>
<polygon fill="black" stroke="black" points="463.37,-190.1 459.87,-180.1 456.37,-190.1 463.37,-190.1"/>
</g>
<!-- aws&#45;c&#45;auth&#45;&gt;awscrt -->
<g id="edge8" class="edge">
<title>aws&#45;c&#45;auth&#45;&gt;awscrt</title>
<path fill="none" stroke="black" d="M486.12,-217.02C498.53,-207.89 512.08,-195.22 518.87,-180 525.38,-165.39 527.6,-157.41 518.87,-144 503.17,-119.91 473.78,-106.69 448.01,-99.48"/>
<polygon fill="black" stroke="black" points="448.53,-96 437.98,-96.91 446.8,-102.78 448.53,-96"/>
</g>
<!-- aws&#45;crt&#45;cpp&#45;&gt;aws&#45;sdk&#45;cpp -->
<g id="edge9" class="edge">
<title>aws&#45;crt&#45;cpp&#45;&gt;aws&#45;sdk&#45;cpp</title>
<path fill="none" stroke="black" d="M201.73,-72.05C196.25,-63.71 189.53,-53.49 183.46,-44.25"/>
<polygon fill="black" stroke="black" points="186.32,-42.22 177.9,-35.79 180.47,-46.07 186.32,-42.22"/>
</g>
<!-- aws&#45;c&#45;s3&#45;&gt;aws&#45;crt&#45;cpp -->
<g id="edge10" class="edge">
<title>aws&#45;c&#45;s3&#45;&gt;aws&#45;crt&#45;cpp</title>
<path fill="none" stroke="black" d="M422.11,-150.08C415.05,-148.06 407.74,-145.96 400.87,-144 355.51,-131.07 303.95,-116.55 266.32,-105.98"/>
<polygon fill="black" stroke="black" points="267.15,-102.58 256.57,-103.24 265.26,-109.32 267.15,-102.58"/>
</g>
<!-- aws&#45;c&#45;s3&#45;&gt;awscrt -->
<g id="edge11" class="edge">
<title>aws&#45;c&#45;s3&#45;&gt;awscrt</title>
<path fill="none" stroke="black" d="M445.41,-144.41C437.82,-135.69 428.36,-124.85 419.96,-115.21"/>
<polygon fill="black" stroke="black" points="422.43,-112.71 413.22,-107.47 417.15,-117.31 422.43,-112.71"/>
</g>
</g>
</svg>
