<?xml version="1.0" encoding="UTF-8" standalone="no"?>
<!DOCTYPE svg PUBLIC "-//W3C//DTD SVG 1.1//EN"
 "http://www.w3.org/Graphics/SVG/1.1/DTD/svg11.dtd">
<!-- Generated by graphviz version 2.49.1 (20211004.0028)
 -->
<!-- Pages: 1 -->
<svg width="250pt" height="116pt"
 viewBox="0.00 0.00 250.39 116.00" xmlns="http://www.w3.org/2000/svg" xmlns:xlink="http://www.w3.org/1999/xlink">
<g id="graph0" class="graph" transform="scale(1 1) rotate(0) translate(4 112)">
<polygon fill="white" stroke="transparent" points="-4,4 -4,-112 246.39,-112 246.39,4 -4,4"/>
<!-- aws&#45;c&#45;mqtt -->
<g id="node1" class="node">
<title>aws&#45;c&#45;mqtt</title>
<g id="a_node1"><a xlink:href="https://github.com/conda-forge/aws-c-mqtt-feedstock" xlink:title="aws c mqtt">
<ellipse fill="#ff8c00" stroke="black" cx="62.34" cy="-90" rx="61.99" ry="18"/>
<text text-anchor="middle" x="62.34" y="-86.3" font-family="Times,serif" font-size="14.00">aws c mqtt</text>
</a>
</g>
</g>
<!-- aws&#45;crt&#45;cpp -->
<g id="node2" class="node">
<title>aws&#45;crt&#45;cpp</title>
<g id="a_node2"><a xlink:href="https://github.com/conda-forge/aws-crt-cpp-feedstock" xlink:title="aws crt cpp">
<ellipse fill="#fde725" stroke="black" cx="64.34" cy="-18" rx="64.19" ry="18"/>
<text text-anchor="middle" x="64.34" y="-14.3" font-family="Times,serif" font-size="14.00">aws crt cpp</text>
</a>
</g>
</g>
<!-- aws&#45;c&#45;mqtt&#45;&gt;aws&#45;crt&#45;cpp -->
<g id="edge1" class="edge">
<title>aws&#45;c&#45;mqtt&#45;&gt;aws&#45;crt&#45;cpp</title>
<path fill="none" stroke="black" d="M62.84,-71.7C63.06,-63.98 63.32,-54.71 63.57,-46.11"/>
<polygon fill="black" stroke="black" points="67.07,-46.2 63.86,-36.1 60.07,-46 67.07,-46.2"/>
</g>
<!-- awscrt -->
<g id="node4" class="node">
<title>awscrt</title>
<g id="a_node4"><a xlink:href="https://github.com/conda-forge/awscrt-feedstock" xlink:title="awscrt">
<ellipse fill="#fde725" stroke="black" cx="190.34" cy="-18" rx="42.49" ry="18"/>
<text text-anchor="middle" x="190.34" y="-14.3" font-family="Times,serif" font-size="14.00">awscrt</text>
</a>
</g>
</g>
<!-- aws&#45;c&#45;mqtt&#45;&gt;awscrt -->
<g id="edge2" class="edge">
<title>aws&#45;c&#45;mqtt&#45;&gt;awscrt</title>
<path fill="none" stroke="black" d="M90.12,-73.81C109.59,-63.16 135.73,-48.87 156.43,-37.55"/>
<polygon fill="black" stroke="black" points="158.13,-40.6 165.23,-32.74 154.77,-34.46 158.13,-40.6"/>
</g>
<!-- aws&#45;c&#45;s3 -->
<g id="node3" class="node">
<title>aws&#45;c&#45;s3</title>
<g id="a_node3"><a xlink:href="https://github.com/conda-forge/aws-c-s3-feedstock" xlink:title="aws c s3">
<ellipse fill="#ff8c00" stroke="black" cx="192.34" cy="-90" rx="50.09" ry="18"/>
<text text-anchor="middle" x="192.34" y="-86.3" font-family="Times,serif" font-size="14.00">aws c s3</text>
</a>
</g>
</g>
<!-- aws&#45;c&#45;s3&#45;&gt;aws&#45;crt&#45;cpp -->
<g id="edge3" class="edge">
<title>aws&#45;c&#45;s3&#45;&gt;aws&#45;crt&#45;cpp</title>
<path fill="none" stroke="black" d="M166.13,-74.67C147.4,-64.42 121.94,-50.5 101.17,-39.14"/>
<polygon fill="black" stroke="black" points="102.75,-36.01 92.29,-34.29 99.39,-42.15 102.75,-36.01"/>
</g>
<!-- aws&#45;c&#45;s3&#45;&gt;awscrt -->
<g id="edge4" class="edge">
<title>aws&#45;c&#45;s3&#45;&gt;awscrt</title>
<path fill="none" stroke="black" d="M191.85,-71.7C191.63,-63.98 191.36,-54.71 191.12,-46.11"/>
<polygon fill="black" stroke="black" points="194.62,-46 190.83,-36.1 187.62,-46.2 194.62,-46"/>
</g>
</g>
</svg>
