<?xml version="1.0" encoding="UTF-8" standalone="no"?>
<!DOCTYPE svg PUBLIC "-//W3C//DTD SVG 1.1//EN"
 "http://www.w3.org/Graphics/SVG/1.1/DTD/svg11.dtd">
<!-- Generated by graphviz version 5.0.0 (20220707.2338)
 -->
<!-- Pages: 1 -->
<svg width="278pt" height="116pt"
 viewBox="0.00 0.00 278.09 116.00" xmlns="http://www.w3.org/2000/svg" xmlns:xlink="http://www.w3.org/1999/xlink">
<g id="graph0" class="graph" transform="scale(1 1) rotate(0) translate(4 112)">
<polygon fill="white" stroke="transparent" points="-4,4 -4,-112 274.09,-112 274.09,4 -4,4"/>
<!-- aws&#45;c&#45;mqtt -->
<g id="node1" class="node">
<title>aws&#45;c&#45;mqtt</title>
<g id="a_node1"><a xlink:href="https://github.com/conda-forge/aws-c-mqtt-feedstock/pull/64" xlink:title="aws c mqtt ❎">
<ellipse fill="#31688e" stroke="black" cx="76.04" cy="-90" rx="76.09" ry="18"/>
<text text-anchor="middle" x="76.04" y="-86.3" font-family="Times,serif" font-size="14.00" fill="white">aws c mqtt ❎</text>
</a>
</g>
</g>
<!-- aws&#45;crt&#45;cpp -->
<g id="node2" class="node">
<title>aws&#45;crt&#45;cpp</title>
<g id="a_node2"><a xlink:href="https://github.com/conda-forge/aws-crt-cpp-feedstock" xlink:title="aws crt cpp">
<ellipse fill="#fde725" stroke="black" cx="85.04" cy="-18" rx="64.19" ry="18"/>
<text text-anchor="middle" x="85.04" y="-14.3" font-family="Times,serif" font-size="14.00">aws crt cpp</text>
</a>
</g>
</g>
<!-- aws&#45;c&#45;mqtt&#45;&gt;aws&#45;crt&#45;cpp -->
<g id="edge1" class="edge">
<title>aws&#45;c&#45;mqtt&#45;&gt;aws&#45;crt&#45;cpp</title>
<path fill="none" stroke="black" d="M78.27,-71.7C79.26,-63.98 80.45,-54.71 81.56,-46.11"/>
<polygon fill="black" stroke="black" points="85.04,-46.47 82.84,-36.1 78.1,-45.58 85.04,-46.47"/>
</g>
<!-- awscrt -->
<g id="node4" class="node">
<title>awscrt</title>
<g id="a_node4"><a xlink:href="https://github.com/conda-forge/awscrt-feedstock" xlink:title="awscrt">
<ellipse fill="#fde725" stroke="black" cx="215.04" cy="-18" rx="42.49" ry="18"/>
<text text-anchor="middle" x="215.04" y="-14.3" font-family="Times,serif" font-size="14.00">awscrt</text>
</a>
</g>
</g>
<!-- aws&#45;c&#45;mqtt&#45;&gt;awscrt -->
<g id="edge2" class="edge">
<title>aws&#45;c&#45;mqtt&#45;&gt;awscrt</title>
<path fill="none" stroke="black" d="M106.89,-73.46C128.31,-62.68 156.9,-48.28 179.31,-37"/>
<polygon fill="black" stroke="black" points="181.14,-39.99 188.49,-32.37 177.99,-33.74 181.14,-39.99"/>
</g>
<!-- aws&#45;c&#45;s3 -->
<g id="node3" class="node">
<title>aws&#45;c&#45;s3</title>
<g id="a_node3"><a xlink:href="https://github.com/conda-forge/aws-c-s3-feedstock" xlink:title="aws c s3">
<ellipse fill="#35b779" stroke="black" cx="220.04" cy="-90" rx="50.09" ry="18"/>
<text text-anchor="middle" x="220.04" y="-86.3" font-family="Times,serif" font-size="14.00">aws c s3</text>
</a>
</g>
</g>
<!-- aws&#45;c&#45;s3&#45;&gt;aws&#45;crt&#45;cpp -->
<g id="edge3" class="edge">
<title>aws&#45;c&#45;s3&#45;&gt;aws&#45;crt&#45;cpp</title>
<path fill="none" stroke="black" d="M192.72,-74.83C172.77,-64.49 145.45,-50.32 123.32,-38.85"/>
<polygon fill="black" stroke="black" points="124.68,-35.61 114.19,-34.11 121.46,-41.82 124.68,-35.61"/>
</g>
<!-- aws&#45;c&#45;s3&#45;&gt;awscrt -->
<g id="edge4" class="edge">
<title>aws&#45;c&#45;s3&#45;&gt;awscrt</title>
<path fill="none" stroke="black" d="M218.81,-71.7C218.26,-63.98 217.59,-54.71 216.98,-46.11"/>
<polygon fill="black" stroke="black" points="220.47,-45.83 216.26,-36.1 213.49,-46.33 220.47,-45.83"/>
</g>
</g>
</svg>
