<?xml version="1.0" encoding="UTF-8" standalone="no"?>
<!DOCTYPE svg PUBLIC "-//W3C//DTD SVG 1.1//EN"
 "http://www.w3.org/Graphics/SVG/1.1/DTD/svg11.dtd">
<!-- Generated by graphviz version 2.49.0 (20210829.0051)
 -->
<!-- Pages: 1 -->
<svg width="632pt" height="404pt"
 viewBox="0.00 0.00 632.22 404.00" xmlns="http://www.w3.org/2000/svg" xmlns:xlink="http://www.w3.org/1999/xlink">
<g id="graph0" class="graph" transform="scale(1 1) rotate(0) translate(4 400)">
<polygon fill="white" stroke="transparent" points="-4,4 -4,-400 628.22,-400 628.22,4 -4,4"/>
<!-- aws&#45;sdk&#45;cpp -->
<g id="node1" class="node">
<title>aws&#45;sdk&#45;cpp</title>
<g id="a_node1"><a xlink:href="https://github.com/conda-forge/aws-sdk-cpp-feedstock" xlink:title="aws sdk cpp">
<ellipse fill="#fde725" stroke="black" cx="327.56" cy="-18" rx="67.69" ry="18"/>
<text text-anchor="middle" x="327.56" y="-14.3" font-family="Times,serif" font-size="14.00">aws sdk cpp</text>
</a>
</g>
</g>
<!-- aws&#45;c&#45;event&#45;stream -->
<g id="node2" class="node">
<title>aws&#45;c&#45;event&#45;stream</title>
<g id="a_node2"><a xlink:href="https://github.com/conda-forge/aws-c-event-stream-feedstock" xlink:title="aws c event stream">
<ellipse fill="#fde725" stroke="black" cx="127.56" cy="-162" rx="100.98" ry="18"/>
<text text-anchor="middle" x="127.56" y="-158.3" font-family="Times,serif" font-size="14.00">aws c event stream</text>
</a>
</g>
</g>
<!-- aws&#45;c&#45;event&#45;stream&#45;&gt;aws&#45;sdk&#45;cpp -->
<g id="edge1" class="edge">
<title>aws&#45;c&#45;event&#45;stream&#45;&gt;aws&#45;sdk&#45;cpp</title>
<path fill="none" stroke="black" d="M143.23,-144.12C161.51,-125.05 193.25,-93.83 224.56,-72 243.13,-59.05 265.29,-47.24 284.29,-38.07"/>
<polygon fill="black" stroke="black" points="285.79,-41.24 293.33,-33.79 282.79,-34.91 285.79,-41.24"/>
</g>
<!-- aws&#45;crt&#45;cpp -->
<g id="node3" class="node">
<title>aws&#45;crt&#45;cpp</title>
<g id="a_node3"><a xlink:href="https://github.com/conda-forge/aws-crt-cpp-feedstock" xlink:title="aws crt cpp">
<ellipse fill="#fde725" stroke="black" cx="488.56" cy="-90" rx="64.5" ry="18"/>
<text text-anchor="middle" x="488.56" y="-86.3" font-family="Times,serif" font-size="14.00">aws crt cpp</text>
</a>
</g>
</g>
<!-- aws&#45;c&#45;event&#45;stream&#45;&gt;aws&#45;crt&#45;cpp -->
<g id="edge2" class="edge">
<title>aws&#45;c&#45;event&#45;stream&#45;&gt;aws&#45;crt&#45;cpp</title>
<path fill="none" stroke="black" d="M193.35,-148.24C259.95,-135.33 362.13,-115.52 427.12,-102.91"/>
<polygon fill="black" stroke="black" points="428.07,-106.29 437.22,-100.95 426.74,-99.42 428.07,-106.29"/>
</g>
<!-- awscrt -->
<g id="node4" class="node">
<title>awscrt</title>
<g id="a_node4"><a xlink:href="https://github.com/conda-forge/awscrt-feedstock" xlink:title="awscrt">
<ellipse fill="#fde725" stroke="black" cx="275.56" cy="-90" rx="42.49" ry="18"/>
<text text-anchor="middle" x="275.56" y="-86.3" font-family="Times,serif" font-size="14.00">awscrt</text>
</a>
</g>
</g>
<!-- aws&#45;c&#45;event&#45;stream&#45;&gt;awscrt -->
<g id="edge3" class="edge">
<title>aws&#45;c&#45;event&#45;stream&#45;&gt;awscrt</title>
<path fill="none" stroke="black" d="M161.51,-144.94C184.62,-134.01 215.17,-119.56 238.84,-108.37"/>
<polygon fill="black" stroke="black" points="240.65,-111.38 248.19,-103.94 237.65,-105.06 240.65,-111.38"/>
</g>
<!-- aws&#45;crt&#45;cpp&#45;&gt;aws&#45;sdk&#45;cpp -->
<g id="edge4" class="edge">
<title>aws&#45;crt&#45;cpp&#45;&gt;aws&#45;sdk&#45;cpp</title>
<path fill="none" stroke="black" d="M455.2,-74.5C430.76,-63.87 397.36,-49.35 370.85,-37.82"/>
<polygon fill="black" stroke="black" points="372,-34.5 361.43,-33.73 369.21,-40.92 372,-34.5"/>
</g>
<!-- aws&#45;c&#45;io -->
<g id="node5" class="node">
<title>aws&#45;c&#45;io</title>
<g id="a_node5"><a xlink:href="https://github.com/conda-forge/aws-c-io-feedstock" xlink:title="aws c io">
<ellipse fill="#35b779" stroke="black" cx="289.56" cy="-378" rx="48.19" ry="18"/>
<text text-anchor="middle" x="289.56" y="-374.3" font-family="Times,serif" font-size="14.00">aws c io</text>
</a>
</g>
</g>
<!-- aws&#45;c&#45;io&#45;&gt;aws&#45;c&#45;event&#45;stream -->
<g id="edge5" class="edge">
<title>aws&#45;c&#45;io&#45;&gt;aws&#45;c&#45;event&#45;stream</title>
<path fill="none" stroke="black" d="M277.12,-360.56C248.99,-323.4 180.33,-232.71 146.73,-188.32"/>
<polygon fill="black" stroke="black" points="149.32,-185.95 140.49,-180.09 143.74,-190.17 149.32,-185.95"/>
</g>
<!-- aws&#45;c&#45;io&#45;&gt;aws&#45;crt&#45;cpp -->
<g id="edge6" class="edge">
<title>aws&#45;c&#45;io&#45;&gt;aws&#45;crt&#45;cpp</title>
<path fill="none" stroke="black" d="M325.3,-365.8C332.32,-363.75 339.65,-361.72 346.56,-360 470.77,-329.06 558.74,-367.68 613.56,-252 634.66,-207.48 620.63,-181.4 588.56,-144 575.16,-128.38 555.99,-116.67 538.01,-108.28"/>
<polygon fill="black" stroke="black" points="539.31,-105.03 528.75,-104.2 536.49,-111.43 539.31,-105.03"/>
</g>
<!-- aws&#45;c&#45;io&#45;&gt;awscrt -->
<g id="edge7" class="edge">
<title>aws&#45;c&#45;io&#45;&gt;awscrt</title>
<path fill="none" stroke="black" d="M254.54,-365.62C164.26,-334.53 -63.78,-243.75 17.56,-144 43.09,-112.69 156.27,-99.36 223.96,-94.09"/>
<polygon fill="black" stroke="black" points="224.29,-97.58 234,-93.35 223.77,-90.6 224.29,-97.58"/>
</g>
<!-- aws&#45;c&#45;http -->
<g id="node6" class="node">
<title>aws&#45;c&#45;http</title>
<g id="a_node6"><a xlink:href="https://github.com/conda-forge/aws-c-http-feedstock" xlink:title="aws c http">
<ellipse fill="#fde725" stroke="black" cx="434.56" cy="-306" rx="59.29" ry="18"/>
<text text-anchor="middle" x="434.56" y="-302.3" font-family="Times,serif" font-size="14.00">aws c http</text>
</a>
</g>
</g>
<!-- aws&#45;c&#45;io&#45;&gt;aws&#45;c&#45;http -->
<g id="edge8" class="edge">
<title>aws&#45;c&#45;io&#45;&gt;aws&#45;c&#45;http</title>
<path fill="none" stroke="black" d="M317.86,-363.34C339.93,-352.68 370.84,-337.76 395.3,-325.95"/>
<polygon fill="black" stroke="black" points="396.85,-329.09 404.33,-321.59 393.8,-322.79 396.85,-329.09"/>
</g>
<!-- aws&#45;c&#45;mqtt -->
<g id="node7" class="node">
<title>aws&#45;c&#45;mqtt</title>
<g id="a_node7"><a xlink:href="https://github.com/conda-forge/aws-c-mqtt-feedstock" xlink:title="aws c mqtt">
<ellipse fill="#fde725" stroke="black" cx="524.56" cy="-234" rx="61.99" ry="18"/>
<text text-anchor="middle" x="524.56" y="-230.3" font-family="Times,serif" font-size="14.00">aws c mqtt</text>
</a>
</g>
</g>
<!-- aws&#45;c&#45;io&#45;&gt;aws&#45;c&#45;mqtt -->
<g id="edge9" class="edge">
<title>aws&#45;c&#45;io&#45;&gt;aws&#45;c&#45;mqtt</title>
<path fill="none" stroke="black" d="M325.34,-365.95C332.36,-363.89 339.67,-361.82 346.56,-360 415.36,-341.82 451.86,-373.92 502.56,-324 518.73,-308.08 523.71,-282.28 524.95,-262.55"/>
<polygon fill="black" stroke="black" points="528.46,-262.43 525.31,-252.31 521.47,-262.19 528.46,-262.43"/>
</g>
<!-- aws&#45;c&#45;auth -->
<g id="node8" class="node">
<title>aws&#45;c&#45;auth</title>
<g id="a_node8"><a xlink:href="https://github.com/conda-forge/aws-c-auth-feedstock" xlink:title="aws c auth">
<ellipse fill="#fde725" stroke="black" cx="345.56" cy="-234" rx="60.5" ry="18"/>
<text text-anchor="middle" x="345.56" y="-230.3" font-family="Times,serif" font-size="14.00">aws c auth</text>
</a>
</g>
</g>
<!-- aws&#45;c&#45;io&#45;&gt;aws&#45;c&#45;auth -->
<g id="edge10" class="edge">
<title>aws&#45;c&#45;io&#45;&gt;aws&#45;c&#45;auth</title>
<path fill="none" stroke="black" d="M296.2,-360.15C305.79,-335.84 323.61,-290.66 335.01,-261.75"/>
<polygon fill="black" stroke="black" points="338.34,-262.85 338.75,-252.27 331.83,-260.29 338.34,-262.85"/>
</g>
<!-- aws&#45;c&#45;s3 -->
<g id="node9" class="node">
<title>aws&#45;c&#45;s3</title>
<g id="a_node9"><a xlink:href="https://github.com/conda-forge/aws-c-s3-feedstock" xlink:title="aws c s3">
<ellipse fill="#fde725" stroke="black" cx="372.56" cy="-162" rx="50.09" ry="18"/>
<text text-anchor="middle" x="372.56" y="-158.3" font-family="Times,serif" font-size="14.00">aws c s3</text>
</a>
</g>
</g>
<!-- aws&#45;c&#45;io&#45;&gt;aws&#45;c&#45;s3 -->
<g id="edge11" class="edge">
<title>aws&#45;c&#45;io&#45;&gt;aws&#45;c&#45;s3</title>
<path fill="none" stroke="black" d="M282.02,-360.05C269.47,-329.03 248.22,-262.09 275.56,-216 286.36,-197.79 305.88,-185.43 324.59,-177.26"/>
<polygon fill="black" stroke="black" points="326,-180.46 333.95,-173.47 323.37,-173.97 326,-180.46"/>
</g>
<!-- aws&#45;c&#45;http&#45;&gt;aws&#45;crt&#45;cpp -->
<g id="edge12" class="edge">
<title>aws&#45;c&#45;http&#45;&gt;aws&#45;crt&#45;cpp</title>
<path fill="none" stroke="black" d="M492.46,-302.3C528.45,-297.26 572.19,-284.3 595.56,-252 630.79,-203.31 564.39,-143.97 521.29,-112.69"/>
<polygon fill="black" stroke="black" points="523.2,-109.76 513.02,-106.82 519.15,-115.46 523.2,-109.76"/>
</g>
<!-- aws&#45;c&#45;http&#45;&gt;awscrt -->
<g id="edge13" class="edge">
<title>aws&#45;c&#45;http&#45;&gt;awscrt</title>
<path fill="none" stroke="black" d="M376.57,-301.97C341.17,-296.77 298.44,-283.75 275.56,-252 247.12,-212.54 257.34,-152.35 266.81,-117.83"/>
<polygon fill="black" stroke="black" points="270.24,-118.57 269.68,-107.99 263.52,-116.61 270.24,-118.57"/>
</g>
<!-- aws&#45;c&#45;http&#45;&gt;aws&#45;c&#45;mqtt -->
<g id="edge14" class="edge">
<title>aws&#45;c&#45;http&#45;&gt;aws&#45;c&#45;mqtt</title>
<path fill="none" stroke="black" d="M455.43,-288.76C467.36,-279.49 482.5,-267.71 495.57,-257.55"/>
<polygon fill="black" stroke="black" points="498.05,-260.05 503.8,-251.15 493.76,-254.52 498.05,-260.05"/>
</g>
<!-- aws&#45;c&#45;http&#45;&gt;aws&#45;c&#45;auth -->
<g id="edge15" class="edge">
<title>aws&#45;c&#45;http&#45;&gt;aws&#45;c&#45;auth</title>
<path fill="none" stroke="black" d="M413.92,-288.76C402.12,-279.49 387.15,-267.71 374.23,-257.55"/>
<polygon fill="black" stroke="black" points="376.11,-254.58 366.09,-251.15 371.79,-260.08 376.11,-254.58"/>
</g>
<!-- aws&#45;c&#45;http&#45;&gt;aws&#45;c&#45;s3 -->
<g id="edge16" class="edge">
<title>aws&#45;c&#45;http&#45;&gt;aws&#45;c&#45;s3</title>
<path fill="none" stroke="black" d="M433,-287.86C430.81,-269.37 425.75,-239.44 414.56,-216 409.65,-205.72 402.43,-195.63 395.36,-187.05"/>
<polygon fill="black" stroke="black" points="397.89,-184.62 388.7,-179.33 392.59,-189.19 397.89,-184.62"/>
</g>
<!-- aws&#45;c&#45;mqtt&#45;&gt;aws&#45;crt&#45;cpp -->
<g id="edge17" class="edge">
<title>aws&#45;c&#45;mqtt&#45;&gt;aws&#45;crt&#45;cpp</title>
<path fill="none" stroke="black" d="M520.42,-215.92C516.06,-197.99 508.95,-168.98 502.56,-144 500.41,-135.57 498,-126.41 495.81,-118.1"/>
<polygon fill="black" stroke="black" points="499.12,-116.93 493.17,-108.17 492.35,-118.73 499.12,-116.93"/>
</g>
<!-- aws&#45;c&#45;mqtt&#45;&gt;awscrt -->
<g id="edge18" class="edge">
<title>aws&#45;c&#45;mqtt&#45;&gt;awscrt</title>
<path fill="none" stroke="black" d="M511.12,-216.29C494.39,-196.49 464.04,-163.71 431.56,-144 397.69,-123.45 354.8,-109.62 322.57,-101.25"/>
<polygon fill="black" stroke="black" points="323.06,-97.77 312.51,-98.73 321.36,-104.56 323.06,-97.77"/>
</g>
<!-- aws&#45;c&#45;auth&#45;&gt;aws&#45;crt&#45;cpp -->
<g id="edge19" class="edge">
<title>aws&#45;c&#45;auth&#45;&gt;aws&#45;crt&#45;cpp</title>
<path fill="none" stroke="black" d="M376.55,-218.3C394.05,-208.99 415.55,-195.74 431.56,-180 450.26,-161.63 465.84,-136.04 475.96,-117.02"/>
<polygon fill="black" stroke="black" points="479.13,-118.5 480.61,-108 472.91,-115.29 479.13,-118.5"/>
</g>
<!-- aws&#45;c&#45;auth&#45;&gt;awscrt -->
<g id="edge20" class="edge">
<title>aws&#45;c&#45;auth&#45;&gt;awscrt</title>
<path fill="none" stroke="black" d="M334.56,-216.16C328.08,-205.91 319.93,-192.44 313.56,-180 303.08,-159.53 292.94,-135.5 285.77,-117.58"/>
<polygon fill="black" stroke="black" points="288.94,-116.07 282.02,-108.05 282.43,-118.64 288.94,-116.07"/>
</g>
<!-- aws&#45;c&#45;auth&#45;&gt;aws&#45;c&#45;s3 -->
<g id="edge21" class="edge">
<title>aws&#45;c&#45;auth&#45;&gt;aws&#45;c&#45;s3</title>
<path fill="none" stroke="black" d="M352.1,-216.05C355.14,-208.18 358.82,-198.62 362.23,-189.79"/>
<polygon fill="black" stroke="black" points="365.56,-190.86 365.9,-180.28 359.03,-188.35 365.56,-190.86"/>
</g>
<!-- aws&#45;c&#45;s3&#45;&gt;aws&#45;crt&#45;cpp -->
<g id="edge22" class="edge">
<title>aws&#45;c&#45;s3&#45;&gt;aws&#45;crt&#45;cpp</title>
<path fill="none" stroke="black" d="M397.16,-146.15C413.74,-136.15 435.83,-122.82 454.14,-111.77"/>
<polygon fill="black" stroke="black" points="456.04,-114.71 462.79,-106.55 452.42,-108.72 456.04,-114.71"/>
</g>
<!-- aws&#45;c&#45;s3&#45;&gt;awscrt -->
<g id="edge23" class="edge">
<title>aws&#45;c&#45;s3&#45;&gt;awscrt</title>
<path fill="none" stroke="black" d="M351.03,-145.46C337.32,-135.57 319.38,-122.62 304.43,-111.83"/>
<polygon fill="black" stroke="black" points="306.19,-108.79 296.03,-105.77 302.09,-114.46 306.19,-108.79"/>
</g>
<!-- aws&#45;c&#45;compression -->
<g id="node10" class="node">
<title>aws&#45;c&#45;compression</title>
<g id="a_node10"><a xlink:href="https://github.com/conda-forge/aws-c-compression-feedstock" xlink:title="aws c compression">
<ellipse fill="#35b779" stroke="black" cx="453.56" cy="-378" rx="98.28" ry="18"/>
<text text-anchor="middle" x="453.56" y="-374.3" font-family="Times,serif" font-size="14.00">aws c compression</text>
</a>
</g>
</g>
<!-- aws&#45;c&#45;compression&#45;&gt;aws&#45;c&#45;http -->
<g id="edge24" class="edge">
<title>aws&#45;c&#45;compression&#45;&gt;aws&#45;c&#45;http</title>
<path fill="none" stroke="black" d="M448.86,-359.7C446.75,-351.9 444.2,-342.51 441.84,-333.83"/>
<polygon fill="black" stroke="black" points="445.2,-332.84 439.2,-324.1 438.44,-334.67 445.2,-332.84"/>
</g>
</g>
</svg>
