<?xml version="1.0" encoding="UTF-8" standalone="no"?>
<!DOCTYPE svg PUBLIC "-//W3C//DTD SVG 1.1//EN"
 "http://www.w3.org/Graphics/SVG/1.1/DTD/svg11.dtd">
<!-- Generated by graphviz version 2.49.1 (20211004.0028)
 -->
<!-- Pages: 1 -->
<svg width="721pt" height="404pt"
 viewBox="0.00 0.00 721.31 404.00" xmlns="http://www.w3.org/2000/svg" xmlns:xlink="http://www.w3.org/1999/xlink">
<g id="graph0" class="graph" transform="scale(1 1) rotate(0) translate(4 400)">
<polygon fill="white" stroke="transparent" points="-4,4 -4,-400 717.31,-400 717.31,4 -4,4"/>
<!-- aws&#45;sdk&#45;cpp -->
<g id="node1" class="node">
<title>aws&#45;sdk&#45;cpp</title>
<g id="a_node1"><a xlink:href="https://github.com/conda-forge/aws-sdk-cpp-feedstock" xlink:title="aws sdk cpp">
<ellipse fill="#fde725" stroke="black" cx="388.07" cy="-18" rx="67.69" ry="18"/>
<text text-anchor="middle" x="388.07" y="-14.3" font-family="Times,serif" font-size="14.00">aws sdk cpp</text>
</a>
</g>
</g>
<!-- aws&#45;checksums -->
<g id="node2" class="node">
<title>aws&#45;checksums</title>
<g id="a_node2"><a xlink:href="https://github.com/conda-forge/aws-checksums-feedstock" xlink:title="aws checksums">
<ellipse fill="#35b779" stroke="black" cx="524.07" cy="-234" rx="82.59" ry="18"/>
<text text-anchor="middle" x="524.07" y="-230.3" font-family="Times,serif" font-size="14.00">aws checksums</text>
</a>
</g>
</g>
<!-- aws&#45;c&#45;event&#45;stream -->
<g id="node3" class="node">
<title>aws&#45;c&#45;event&#45;stream</title>
<g id="a_node3"><a xlink:href="https://github.com/conda-forge/aws-c-event-stream-feedstock" xlink:title="aws c event stream">
<ellipse fill="#fde725" stroke="black" cx="597.07" cy="-162" rx="100.98" ry="18"/>
<text text-anchor="middle" x="597.07" y="-158.3" font-family="Times,serif" font-size="14.00">aws c event stream</text>
</a>
</g>
</g>
<!-- aws&#45;checksums&#45;&gt;aws&#45;c&#45;event&#45;stream -->
<g id="edge1" class="edge">
<title>aws&#45;checksums&#45;&gt;aws&#45;c&#45;event&#45;stream</title>
<path fill="none" stroke="black" d="M541.74,-216.05C550.89,-207.28 562.2,-196.43 572.22,-186.83"/>
<polygon fill="black" stroke="black" points="574.77,-189.24 579.56,-179.79 569.92,-184.18 574.77,-189.24"/>
</g>
<!-- aws&#45;crt&#45;cpp -->
<g id="node4" class="node">
<title>aws&#45;crt&#45;cpp</title>
<g id="a_node4"><a xlink:href="https://github.com/conda-forge/aws-crt-cpp-feedstock" xlink:title="aws crt cpp">
<ellipse fill="#fde725" stroke="black" cx="291.07" cy="-90" rx="64.5" ry="18"/>
<text text-anchor="middle" x="291.07" y="-86.3" font-family="Times,serif" font-size="14.00">aws crt cpp</text>
</a>
</g>
</g>
<!-- aws&#45;checksums&#45;&gt;aws&#45;crt&#45;cpp -->
<g id="edge2" class="edge">
<title>aws&#45;checksums&#45;&gt;aws&#45;crt&#45;cpp</title>
<path fill="none" stroke="black" d="M497.34,-216.71C454.89,-190.84 372.1,-140.38 325.35,-111.89"/>
<polygon fill="black" stroke="black" points="327.14,-108.88 316.78,-106.67 323.49,-114.86 327.14,-108.88"/>
</g>
<!-- awscrt -->
<g id="node5" class="node">
<title>awscrt</title>
<g id="a_node5"><a xlink:href="https://github.com/conda-forge/awscrt-feedstock" xlink:title="awscrt">
<ellipse fill="#fde725" stroke="black" cx="430.07" cy="-90" rx="42.49" ry="18"/>
<text text-anchor="middle" x="430.07" y="-86.3" font-family="Times,serif" font-size="14.00">awscrt</text>
</a>
</g>
</g>
<!-- aws&#45;checksums&#45;&gt;awscrt -->
<g id="edge3" class="edge">
<title>aws&#45;checksums&#45;&gt;awscrt</title>
<path fill="none" stroke="black" d="M511.9,-215.93C504.59,-205.6 495.18,-192.13 487.07,-180 472.82,-158.7 457.16,-134.15 445.86,-116.24"/>
<polygon fill="black" stroke="black" points="448.67,-114.13 440.38,-107.53 442.74,-117.86 448.67,-114.13"/>
</g>
<!-- aws&#45;c&#45;event&#45;stream&#45;&gt;aws&#45;sdk&#45;cpp -->
<g id="edge4" class="edge">
<title>aws&#45;c&#45;event&#45;stream&#45;&gt;aws&#45;sdk&#45;cpp</title>
<path fill="none" stroke="black" d="M576.74,-144.04C554.06,-125.44 515.96,-95.17 481.07,-72 463.57,-60.38 443.38,-48.68 426.3,-39.25"/>
<polygon fill="black" stroke="black" points="427.62,-35.98 417.17,-34.25 424.26,-42.12 427.62,-35.98"/>
</g>
<!-- aws&#45;c&#45;event&#45;stream&#45;&gt;aws&#45;crt&#45;cpp -->
<g id="edge5" class="edge">
<title>aws&#45;c&#45;event&#45;stream&#45;&gt;aws&#45;crt&#45;cpp</title>
<path fill="none" stroke="black" d="M537.71,-147.42C483.22,-134.96 403,-116.6 348.98,-104.25"/>
<polygon fill="black" stroke="black" points="349.73,-100.83 339.21,-102.01 348.17,-107.65 349.73,-100.83"/>
</g>
<!-- aws&#45;c&#45;event&#45;stream&#45;&gt;awscrt -->
<g id="edge6" class="edge">
<title>aws&#45;c&#45;event&#45;stream&#45;&gt;awscrt</title>
<path fill="none" stroke="black" d="M559.59,-145.29C532.41,-133.9 495.76,-118.54 468.39,-107.06"/>
<polygon fill="black" stroke="black" points="469.7,-103.81 459.12,-103.18 466.99,-110.27 469.7,-103.81"/>
</g>
<!-- aws&#45;crt&#45;cpp&#45;&gt;aws&#45;sdk&#45;cpp -->
<g id="edge7" class="edge">
<title>aws&#45;crt&#45;cpp&#45;&gt;aws&#45;sdk&#45;cpp</title>
<path fill="none" stroke="black" d="M313.57,-72.76C326.54,-63.4 343.05,-51.49 357.22,-41.26"/>
<polygon fill="black" stroke="black" points="359.63,-43.84 365.69,-35.15 355.54,-38.16 359.63,-43.84"/>
</g>
<!-- aws&#45;c&#45;io -->
<g id="node6" class="node">
<title>aws&#45;c&#45;io</title>
<g id="a_node6"><a xlink:href="https://github.com/conda-forge/aws-c-io-feedstock" xlink:title="aws c io">
<ellipse fill="#35b779" stroke="black" cx="293.07" cy="-378" rx="48.19" ry="18"/>
<text text-anchor="middle" x="293.07" y="-374.3" font-family="Times,serif" font-size="14.00">aws c io</text>
</a>
</g>
</g>
<!-- aws&#45;c&#45;io&#45;&gt;aws&#45;c&#45;event&#45;stream -->
<g id="edge8" class="edge">
<title>aws&#45;c&#45;io&#45;&gt;aws&#45;c&#45;event&#45;stream</title>
<path fill="none" stroke="black" d="M341.08,-375.96C417.11,-371.32 562.11,-349.45 616.07,-252 626.82,-232.58 620.05,-207.67 611.75,-189.14"/>
<polygon fill="black" stroke="black" points="614.87,-187.56 607.35,-180.1 608.58,-190.62 614.87,-187.56"/>
</g>
<!-- aws&#45;c&#45;io&#45;&gt;aws&#45;crt&#45;cpp -->
<g id="edge9" class="edge">
<title>aws&#45;c&#45;io&#45;&gt;aws&#45;crt&#45;cpp</title>
<path fill="none" stroke="black" d="M256.61,-366.14C249.47,-364.07 242.05,-361.94 235.07,-360 174.41,-343.14 150.31,-359.14 98.07,-324 26.01,-275.53 -33.08,-211.08 22.07,-144 46.49,-114.3 147.22,-100.98 218.22,-95.19"/>
<polygon fill="black" stroke="black" points="218.77,-98.66 228.46,-94.39 218.22,-91.68 218.77,-98.66"/>
</g>
<!-- aws&#45;c&#45;io&#45;&gt;awscrt -->
<g id="edge10" class="edge">
<title>aws&#45;c&#45;io&#45;&gt;awscrt</title>
<path fill="none" stroke="black" d="M341.33,-377.4C400.92,-375.88 503.64,-366.56 579.07,-324 653.65,-281.92 676.64,-260.04 707.07,-180 712.76,-165.04 717.26,-156.33 707.07,-144 679.12,-110.19 554.58,-97.75 482.37,-93.32"/>
<polygon fill="black" stroke="black" points="482.3,-89.81 472.11,-92.72 481.89,-96.8 482.3,-89.81"/>
</g>
<!-- aws&#45;c&#45;http -->
<g id="node7" class="node">
<title>aws&#45;c&#45;http</title>
<g id="a_node7"><a xlink:href="https://github.com/conda-forge/aws-c-http-feedstock" xlink:title="aws c http">
<ellipse fill="#fde725" stroke="black" cx="187.07" cy="-306" rx="59.29" ry="18"/>
<text text-anchor="middle" x="187.07" y="-302.3" font-family="Times,serif" font-size="14.00">aws c http</text>
</a>
</g>
</g>
<!-- aws&#45;c&#45;io&#45;&gt;aws&#45;c&#45;http -->
<g id="edge11" class="edge">
<title>aws&#45;c&#45;io&#45;&gt;aws&#45;c&#45;http</title>
<path fill="none" stroke="black" d="M270.33,-361.98C255.55,-352.22 236.04,-339.34 219.63,-328.5"/>
<polygon fill="black" stroke="black" points="221.15,-325.31 210.87,-322.72 217.29,-331.15 221.15,-325.31"/>
</g>
<!-- aws&#45;c&#45;mqtt -->
<g id="node8" class="node">
<title>aws&#45;c&#45;mqtt</title>
<g id="a_node8"><a xlink:href="https://github.com/conda-forge/aws-c-mqtt-feedstock" xlink:title="aws c mqtt">
<ellipse fill="#fde725" stroke="black" cx="108.07" cy="-162" rx="61.99" ry="18"/>
<text text-anchor="middle" x="108.07" y="-158.3" font-family="Times,serif" font-size="14.00">aws c mqtt</text>
</a>
</g>
</g>
<!-- aws&#45;c&#45;io&#45;&gt;aws&#45;c&#45;mqtt -->
<g id="edge12" class="edge">
<title>aws&#45;c&#45;io&#45;&gt;aws&#45;c&#45;mqtt</title>
<path fill="none" stroke="black" d="M256.46,-366.13C205.75,-351.03 120.17,-325.39 119.07,-324 88.73,-285.84 94.55,-225.18 101.39,-190.23"/>
<polygon fill="black" stroke="black" points="104.86,-190.77 103.51,-180.26 98.01,-189.32 104.86,-190.77"/>
</g>
<!-- aws&#45;c&#45;auth -->
<g id="node9" class="node">
<title>aws&#45;c&#45;auth</title>
<g id="a_node9"><a xlink:href="https://github.com/conda-forge/aws-c-auth-feedstock" xlink:title="aws c auth">
<ellipse fill="#fde725" stroke="black" cx="363.07" cy="-234" rx="60.5" ry="18"/>
<text text-anchor="middle" x="363.07" y="-230.3" font-family="Times,serif" font-size="14.00">aws c auth</text>
</a>
</g>
</g>
<!-- aws&#45;c&#45;io&#45;&gt;aws&#45;c&#45;auth -->
<g id="edge13" class="edge">
<title>aws&#45;c&#45;io&#45;&gt;aws&#45;c&#45;auth</title>
<path fill="none" stroke="black" d="M299.53,-359.95C306.59,-341.79 318.58,-312.37 331.07,-288 335.8,-278.77 341.51,-268.97 346.79,-260.34"/>
<polygon fill="black" stroke="black" points="349.76,-262.18 352.07,-251.84 343.82,-258.48 349.76,-262.18"/>
</g>
<!-- aws&#45;c&#45;s3 -->
<g id="node10" class="node">
<title>aws&#45;c&#45;s3</title>
<g id="a_node10"><a xlink:href="https://github.com/conda-forge/aws-c-s3-feedstock" xlink:title="aws c s3">
<ellipse fill="#fde725" stroke="black" cx="276.07" cy="-162" rx="50.09" ry="18"/>
<text text-anchor="middle" x="276.07" y="-158.3" font-family="Times,serif" font-size="14.00">aws c s3</text>
</a>
</g>
</g>
<!-- aws&#45;c&#45;io&#45;&gt;aws&#45;c&#45;s3 -->
<g id="edge14" class="edge">
<title>aws&#45;c&#45;io&#45;&gt;aws&#45;c&#45;s3</title>
<path fill="none" stroke="black" d="M291.71,-359.85C288.77,-322.83 281.8,-235.18 278.24,-190.39"/>
<polygon fill="black" stroke="black" points="281.72,-189.92 277.44,-180.23 274.74,-190.48 281.72,-189.92"/>
</g>
<!-- aws&#45;c&#45;http&#45;&gt;aws&#45;crt&#45;cpp -->
<g id="edge15" class="edge">
<title>aws&#45;c&#45;http&#45;&gt;aws&#45;crt&#45;cpp</title>
<path fill="none" stroke="black" d="M155.4,-290.73C98.87,-263.34 -9.32,-201.07 37.07,-144 59.67,-116.2 152.27,-102.48 219.14,-96.08"/>
<polygon fill="black" stroke="black" points="219.58,-99.56 229.22,-95.15 218.94,-92.59 219.58,-99.56"/>
</g>
<!-- aws&#45;c&#45;http&#45;&gt;awscrt -->
<g id="edge16" class="edge">
<title>aws&#45;c&#45;http&#45;&gt;awscrt</title>
<path fill="none" stroke="black" d="M184.77,-287.79C181.45,-255.12 179.34,-183.84 217.07,-144 263.62,-94.85 299.43,-124.57 365.07,-108 371.6,-106.35 378.5,-104.58 385.26,-102.83"/>
<polygon fill="black" stroke="black" points="386.22,-106.19 395.01,-100.29 384.46,-99.42 386.22,-106.19"/>
</g>
<!-- aws&#45;c&#45;http&#45;&gt;aws&#45;c&#45;mqtt -->
<g id="edge17" class="edge">
<title>aws&#45;c&#45;http&#45;&gt;aws&#45;c&#45;mqtt</title>
<path fill="none" stroke="black" d="M177.7,-288.15C164.04,-263.6 138.54,-217.77 122.48,-188.91"/>
<polygon fill="black" stroke="black" points="125.35,-186.86 117.43,-179.82 119.23,-190.27 125.35,-186.86"/>
</g>
<!-- aws&#45;c&#45;http&#45;&gt;aws&#45;c&#45;auth -->
<g id="edge18" class="edge">
<title>aws&#45;c&#45;http&#45;&gt;aws&#45;c&#45;auth</title>
<path fill="none" stroke="black" d="M221.42,-291.34C249.22,-280.28 288.58,-264.63 318.75,-252.63"/>
<polygon fill="black" stroke="black" points="320.2,-255.82 328.2,-248.87 317.62,-249.31 320.2,-255.82"/>
</g>
<!-- aws&#45;c&#45;http&#45;&gt;aws&#45;c&#45;s3 -->
<g id="edge19" class="edge">
<title>aws&#45;c&#45;http&#45;&gt;aws&#45;c&#45;s3</title>
<path fill="none" stroke="black" d="M197.63,-288.15C213.08,-263.49 241.99,-217.37 260.07,-188.53"/>
<polygon fill="black" stroke="black" points="263.18,-190.16 265.52,-179.82 257.25,-186.44 263.18,-190.16"/>
</g>
<!-- aws&#45;c&#45;mqtt&#45;&gt;aws&#45;crt&#45;cpp -->
<g id="edge20" class="edge">
<title>aws&#45;c&#45;mqtt&#45;&gt;aws&#45;crt&#45;cpp</title>
<path fill="none" stroke="black" d="M144.22,-147.17C173.2,-136.08 214.05,-120.46 245.31,-108.5"/>
<polygon fill="black" stroke="black" points="246.59,-111.76 254.68,-104.92 244.09,-105.22 246.59,-111.76"/>
</g>
<!-- aws&#45;c&#45;mqtt&#45;&gt;awscrt -->
<g id="edge21" class="edge">
<title>aws&#45;c&#45;mqtt&#45;&gt;awscrt</title>
<path fill="none" stroke="black" d="M155.06,-150.31C164.65,-148.18 174.68,-145.98 184.07,-144 264.32,-127.05 285.14,-126.38 365.07,-108 371.71,-106.47 378.71,-104.76 385.56,-103.02"/>
<polygon fill="black" stroke="black" points="386.61,-106.36 395.42,-100.47 384.86,-99.58 386.61,-106.36"/>
</g>
<!-- aws&#45;c&#45;auth&#45;&gt;aws&#45;crt&#45;cpp -->
<g id="edge22" class="edge">
<title>aws&#45;c&#45;auth&#45;&gt;aws&#45;crt&#45;cpp</title>
<path fill="none" stroke="black" d="M359.74,-215.82C355.69,-197.29 347.78,-167.33 335.07,-144 329.46,-133.71 321.7,-123.53 314.25,-114.88"/>
<polygon fill="black" stroke="black" points="316.85,-112.54 307.58,-107.42 311.63,-117.21 316.85,-112.54"/>
</g>
<!-- aws&#45;c&#45;auth&#45;&gt;awscrt -->
<g id="edge23" class="edge">
<title>aws&#45;c&#45;auth&#45;&gt;awscrt</title>
<path fill="none" stroke="black" d="M371.02,-216.15C382.6,-191.6 404.23,-145.77 417.84,-116.91"/>
<polygon fill="black" stroke="black" points="421.03,-118.36 422.13,-107.82 414.7,-115.38 421.03,-118.36"/>
</g>
<!-- aws&#45;c&#45;auth&#45;&gt;aws&#45;c&#45;s3 -->
<g id="edge24" class="edge">
<title>aws&#45;c&#45;auth&#45;&gt;aws&#45;c&#45;s3</title>
<path fill="none" stroke="black" d="M342.89,-216.76C331.2,-207.36 316.31,-195.38 303.56,-185.12"/>
<polygon fill="black" stroke="black" points="305.52,-182.21 295.54,-178.67 301.14,-187.66 305.52,-182.21"/>
</g>
<!-- aws&#45;c&#45;s3&#45;&gt;aws&#45;crt&#45;cpp -->
<g id="edge25" class="edge">
<title>aws&#45;c&#45;s3&#45;&gt;aws&#45;crt&#45;cpp</title>
<path fill="none" stroke="black" d="M279.78,-143.7C281.43,-135.98 283.42,-126.71 285.26,-118.11"/>
<polygon fill="black" stroke="black" points="288.73,-118.62 287.4,-108.1 281.89,-117.15 288.73,-118.62"/>
</g>
<!-- aws&#45;c&#45;s3&#45;&gt;awscrt -->
<g id="edge26" class="edge">
<title>aws&#45;c&#45;s3&#45;&gt;awscrt</title>
<path fill="none" stroke="black" d="M305.76,-147.5C330.59,-136.22 366.14,-120.06 392.87,-107.91"/>
<polygon fill="black" stroke="black" points="394.63,-110.96 402.28,-103.63 391.73,-104.58 394.63,-110.96"/>
</g>
<!-- aws&#45;c&#45;compression -->
<g id="node11" class="node">
<title>aws&#45;c&#45;compression</title>
<g id="a_node11"><a xlink:href="https://github.com/conda-forge/aws-c-compression-feedstock/pull/18" xlink:title="aws c compression ❎">
<ellipse fill="#31688e" stroke="black" cx="114.07" cy="-378" rx="112.5" ry="18"/>
<text text-anchor="middle" x="114.07" y="-374.3" font-family="Times,serif" font-size="14.00" fill="white">aws c compression ❎</text>
</a>
</g>
</g>
<!-- aws&#45;c&#45;compression&#45;&gt;aws&#45;c&#45;http -->
<g id="edge27" class="edge">
<title>aws&#45;c&#45;compression&#45;&gt;aws&#45;c&#45;http</title>
<path fill="none" stroke="black" d="M131.74,-360.05C141.02,-351.16 152.54,-340.11 162.66,-330.41"/>
<polygon fill="black" stroke="black" points="165.27,-332.75 170.06,-323.31 160.42,-327.7 165.27,-332.75"/>
</g>
<!-- aws&#45;c&#45;sdkutils -->
<g id="node12" class="node">
<title>aws&#45;c&#45;sdkutils</title>
<g id="a_node12"><a xlink:href="https://github.com/conda-forge/aws-c-sdkutils-feedstock" xlink:title="aws c sdkutils">
<ellipse fill="#35b779" stroke="black" cx="416.07" cy="-306" rx="76.09" ry="18"/>
<text text-anchor="middle" x="416.07" y="-302.3" font-family="Times,serif" font-size="14.00">aws c sdkutils</text>
</a>
</g>
</g>
<!-- aws&#45;c&#45;sdkutils&#45;&gt;aws&#45;c&#45;auth -->
<g id="edge28" class="edge">
<title>aws&#45;c&#45;sdkutils&#45;&gt;aws&#45;c&#45;auth</title>
<path fill="none" stroke="black" d="M403.24,-288.05C396.86,-279.63 389.02,-269.28 381.97,-259.97"/>
<polygon fill="black" stroke="black" points="384.61,-257.65 375.78,-251.79 379.03,-261.87 384.61,-257.65"/>
</g>
</g>
</svg>
