<?xml version="1.0" encoding="UTF-8" standalone="no"?>
<!DOCTYPE svg PUBLIC "-//W3C//DTD SVG 1.1//EN"
 "http://www.w3.org/Graphics/SVG/1.1/DTD/svg11.dtd">
<!-- Generated by graphviz version 2.49.3 (20211104.1129)
 -->
<!-- Pages: 1 -->
<svg width="925pt" height="476pt"
 viewBox="0.00 0.00 925.00 476.00" xmlns="http://www.w3.org/2000/svg" xmlns:xlink="http://www.w3.org/1999/xlink">
<g id="graph0" class="graph" transform="scale(1 1) rotate(0) translate(4 472)">
<polygon fill="white" stroke="transparent" points="-4,4 -4,-472 921,-472 921,4 -4,4"/>
<!-- aws&#45;sdk&#45;cpp -->
<g id="node1" class="node">
<title>aws&#45;sdk&#45;cpp</title>
<g id="a_node1"><a xlink:href="https://github.com/conda-forge/aws-sdk-cpp-feedstock" xlink:title="aws sdk cpp">
<ellipse fill="#fde725" stroke="black" cx="489" cy="-18" rx="67.69" ry="18"/>
<text text-anchor="middle" x="489" y="-14.3" font-family="Times,serif" font-size="14.00">aws sdk cpp</text>
</a>
</g>
</g>
<!-- aws&#45;checksums -->
<g id="node2" class="node">
<title>aws&#45;checksums</title>
<g id="a_node2"><a xlink:href="https://github.com/conda-forge/aws-checksums-feedstock" xlink:title="aws checksums">
<ellipse fill="#35b779" stroke="black" cx="645" cy="-234" rx="82.59" ry="18"/>
<text text-anchor="middle" x="645" y="-230.3" font-family="Times,serif" font-size="14.00">aws checksums</text>
</a>
</g>
</g>
<!-- aws&#45;c&#45;event&#45;stream -->
<g id="node3" class="node">
<title>aws&#45;c&#45;event&#45;stream</title>
<g id="a_node3"><a xlink:href="https://github.com/conda-forge/aws-c-event-stream-feedstock" xlink:title="aws c event stream">
<ellipse fill="#fde725" stroke="black" cx="750" cy="-162" rx="100.98" ry="18"/>
<text text-anchor="middle" x="750" y="-158.3" font-family="Times,serif" font-size="14.00">aws c event stream</text>
</a>
</g>
</g>
<!-- aws&#45;checksums&#45;&gt;aws&#45;c&#45;event&#45;stream -->
<g id="edge1" class="edge">
<title>aws&#45;checksums&#45;&gt;aws&#45;c&#45;event&#45;stream</title>
<path fill="none" stroke="black" d="M669.35,-216.76C683.33,-207.45 701.09,-195.61 716.38,-185.41"/>
<polygon fill="black" stroke="black" points="718.67,-188.09 725.05,-179.63 714.79,-182.27 718.67,-188.09"/>
</g>
<!-- aws&#45;crt&#45;cpp -->
<g id="node4" class="node">
<title>aws&#45;crt&#45;cpp</title>
<g id="a_node4"><a xlink:href="https://github.com/conda-forge/aws-crt-cpp-feedstock" xlink:title="aws crt cpp">
<ellipse fill="#fde725" stroke="black" cx="325" cy="-90" rx="64.5" ry="18"/>
<text text-anchor="middle" x="325" y="-86.3" font-family="Times,serif" font-size="14.00">aws crt cpp</text>
</a>
</g>
</g>
<!-- aws&#45;checksums&#45;&gt;aws&#45;crt&#45;cpp -->
<g id="edge2" class="edge">
<title>aws&#45;checksums&#45;&gt;aws&#45;crt&#45;cpp</title>
<path fill="none" stroke="black" d="M627.1,-216.07C605.01,-196.06 565.49,-163.08 526,-144 482.86,-123.16 430.41,-109.68 389.91,-101.54"/>
<polygon fill="black" stroke="black" points="390.37,-98.06 379.88,-99.58 389.03,-104.93 390.37,-98.06"/>
</g>
<!-- awscrt -->
<g id="node5" class="node">
<title>awscrt</title>
<g id="a_node5"><a xlink:href="https://github.com/conda-forge/awscrt-feedstock" xlink:title="awscrt">
<ellipse fill="#fde725" stroke="black" cx="602" cy="-90" rx="42.49" ry="18"/>
<text text-anchor="middle" x="602" y="-86.3" font-family="Times,serif" font-size="14.00">awscrt</text>
</a>
</g>
</g>
<!-- aws&#45;checksums&#45;&gt;awscrt -->
<g id="edge3" class="edge">
<title>aws&#45;checksums&#45;&gt;awscrt</title>
<path fill="none" stroke="black" d="M639.81,-215.87C632.45,-191.56 618.9,-146.82 610.18,-118.01"/>
<polygon fill="black" stroke="black" points="613.45,-116.75 607.21,-108.19 606.75,-118.77 613.45,-116.75"/>
</g>
<!-- aws&#45;c&#45;event&#45;stream&#45;&gt;aws&#45;sdk&#45;cpp -->
<g id="edge4" class="edge">
<title>aws&#45;c&#45;event&#45;stream&#45;&gt;aws&#45;sdk&#45;cpp</title>
<path fill="none" stroke="black" d="M735.57,-143.89C717.96,-124 686.37,-91.44 653,-72 621.5,-53.65 582.85,-40.77 550.98,-32.3"/>
<polygon fill="black" stroke="black" points="551.44,-28.8 540.89,-29.7 549.7,-35.58 551.44,-28.8"/>
</g>
<!-- aws&#45;c&#45;event&#45;stream&#45;&gt;aws&#45;crt&#45;cpp -->
<g id="edge5" class="edge">
<title>aws&#45;c&#45;event&#45;stream&#45;&gt;aws&#45;crt&#45;cpp</title>
<path fill="none" stroke="black" d="M678.39,-149.2C597.45,-135.87 466.88,-114.37 389.15,-101.57"/>
<polygon fill="black" stroke="black" points="389.45,-98.07 379.01,-99.9 388.31,-104.97 389.45,-98.07"/>
</g>
<!-- aws&#45;c&#45;event&#45;stream&#45;&gt;awscrt -->
<g id="edge6" class="edge">
<title>aws&#45;c&#45;event&#45;stream&#45;&gt;awscrt</title>
<path fill="none" stroke="black" d="M716.05,-144.94C692.94,-134.01 662.39,-119.56 638.72,-108.37"/>
<polygon fill="black" stroke="black" points="639.91,-105.06 629.37,-103.94 636.91,-111.38 639.91,-105.06"/>
</g>
<!-- aws&#45;crt&#45;cpp&#45;&gt;aws&#45;sdk&#45;cpp -->
<g id="edge7" class="edge">
<title>aws&#45;crt&#45;cpp&#45;&gt;aws&#45;sdk&#45;cpp</title>
<path fill="none" stroke="black" d="M358.98,-74.5C384.07,-63.79 418.43,-49.12 445.53,-37.56"/>
<polygon fill="black" stroke="black" points="446.96,-40.75 454.78,-33.61 444.21,-34.31 446.96,-40.75"/>
</g>
<!-- aws&#45;c&#45;io -->
<g id="node6" class="node">
<title>aws&#45;c&#45;io</title>
<g id="a_node6"><a xlink:href="https://github.com/conda-forge/aws-c-io-feedstock" xlink:title="aws c io">
<ellipse fill="#fde725" stroke="black" cx="409" cy="-378" rx="48.19" ry="18"/>
<text text-anchor="middle" x="409" y="-374.3" font-family="Times,serif" font-size="14.00">aws c io</text>
</a>
</g>
</g>
<!-- aws&#45;c&#45;io&#45;&gt;aws&#45;c&#45;event&#45;stream -->
<g id="edge8" class="edge">
<title>aws&#45;c&#45;io&#45;&gt;aws&#45;c&#45;event&#45;stream</title>
<path fill="none" stroke="black" d="M455.89,-373.63C528.48,-365.71 666.95,-339.36 737,-252 750.78,-234.81 753.32,-209.53 752.82,-190.31"/>
<polygon fill="black" stroke="black" points="756.31,-189.86 752.27,-180.06 749.32,-190.24 756.31,-189.86"/>
</g>
<!-- aws&#45;c&#45;io&#45;&gt;aws&#45;crt&#45;cpp -->
<g id="edge9" class="edge">
<title>aws&#45;c&#45;io&#45;&gt;aws&#45;crt&#45;cpp</title>
<path fill="none" stroke="black" d="M361.09,-376.16C281.76,-373.64 128.51,-363.63 95,-324 38.6,-257.28 100.38,-191.04 174,-144 202.29,-125.92 237.52,-113.1 266.83,-104.61"/>
<polygon fill="black" stroke="black" points="267.84,-107.96 276.53,-101.89 265.95,-101.22 267.84,-107.96"/>
</g>
<!-- aws&#45;c&#45;io&#45;&gt;awscrt -->
<g id="edge10" class="edge">
<title>aws&#45;c&#45;io&#45;&gt;awscrt</title>
<path fill="none" stroke="black" d="M456.52,-374.86C557.09,-367.34 788.11,-333.38 860,-180 866.79,-165.51 870.11,-156.4 860,-144 834.47,-112.69 721.29,-99.36 653.6,-94.09"/>
<polygon fill="black" stroke="black" points="653.79,-90.6 643.56,-93.35 653.27,-97.58 653.79,-90.6"/>
</g>
<!-- aws&#45;c&#45;http -->
<g id="node7" class="node">
<title>aws&#45;c&#45;http</title>
<g id="a_node7"><a xlink:href="https://github.com/conda-forge/aws-c-http-feedstock" xlink:title="aws c http">
<ellipse fill="#fde725" stroke="black" cx="409" cy="-306" rx="59.29" ry="18"/>
<text text-anchor="middle" x="409" y="-302.3" font-family="Times,serif" font-size="14.00">aws c http</text>
</a>
</g>
</g>
<!-- aws&#45;c&#45;io&#45;&gt;aws&#45;c&#45;http -->
<g id="edge11" class="edge">
<title>aws&#45;c&#45;io&#45;&gt;aws&#45;c&#45;http</title>
<path fill="none" stroke="black" d="M409,-359.7C409,-351.98 409,-342.71 409,-334.11"/>
<polygon fill="black" stroke="black" points="412.5,-334.1 409,-324.1 405.5,-334.1 412.5,-334.1"/>
</g>
<!-- aws&#45;c&#45;mqtt -->
<g id="node8" class="node">
<title>aws&#45;c&#45;mqtt</title>
<g id="a_node8"><a xlink:href="https://github.com/conda-forge/aws-c-mqtt-feedstock" xlink:title="aws c mqtt">
<ellipse fill="#fde725" stroke="black" cx="455" cy="-162" rx="61.99" ry="18"/>
<text text-anchor="middle" x="455" y="-158.3" font-family="Times,serif" font-size="14.00">aws c mqtt</text>
</a>
</g>
</g>
<!-- aws&#45;c&#45;io&#45;&gt;aws&#45;c&#45;mqtt -->
<g id="edge12" class="edge">
<title>aws&#45;c&#45;io&#45;&gt;aws&#45;c&#45;mqtt</title>
<path fill="none" stroke="black" d="M437.04,-363.2C451.86,-354.26 468.66,-341.08 477,-324 498.32,-280.35 481.01,-222.58 467.39,-189.44"/>
<polygon fill="black" stroke="black" points="470.49,-187.79 463.32,-179.98 464.06,-190.55 470.49,-187.79"/>
</g>
<!-- aws&#45;c&#45;auth -->
<g id="node9" class="node">
<title>aws&#45;c&#45;auth</title>
<g id="a_node9"><a xlink:href="https://github.com/conda-forge/aws-c-auth-feedstock" xlink:title="aws c auth">
<ellipse fill="#fde725" stroke="black" cx="174" cy="-234" rx="60.5" ry="18"/>
<text text-anchor="middle" x="174" y="-230.3" font-family="Times,serif" font-size="14.00">aws c auth</text>
</a>
</g>
</g>
<!-- aws&#45;c&#45;io&#45;&gt;aws&#45;c&#45;auth -->
<g id="edge13" class="edge">
<title>aws&#45;c&#45;io&#45;&gt;aws&#45;c&#45;auth</title>
<path fill="none" stroke="black" d="M379.32,-363.51C358.68,-353.63 330.87,-339.32 308,-324 287.29,-310.13 285.4,-302.32 265,-288 248.08,-276.12 228.36,-264.4 211.61,-255.01"/>
<polygon fill="black" stroke="black" points="213.09,-251.83 202.64,-250.05 209.7,-257.95 213.09,-251.83"/>
</g>
<!-- aws&#45;c&#45;s3 -->
<g id="node10" class="node">
<title>aws&#45;c&#45;s3</title>
<g id="a_node10"><a xlink:href="https://github.com/conda-forge/aws-c-s3-feedstock" xlink:title="aws c s3">
<ellipse fill="#fde725" stroke="black" cx="325" cy="-162" rx="50.09" ry="18"/>
<text text-anchor="middle" x="325" y="-158.3" font-family="Times,serif" font-size="14.00">aws c s3</text>
</a>
</g>
</g>
<!-- aws&#45;c&#45;io&#45;&gt;aws&#45;c&#45;s3 -->
<g id="edge14" class="edge">
<title>aws&#45;c&#45;io&#45;&gt;aws&#45;c&#45;s3</title>
<path fill="none" stroke="black" d="M381.94,-363.08C367.25,-354.03 350.25,-340.78 341,-324 317.75,-281.83 318.46,-223.93 321.47,-190.29"/>
<polygon fill="black" stroke="black" points="324.96,-190.57 322.5,-180.27 318,-189.86 324.96,-190.57"/>
</g>
<!-- aws&#45;c&#45;http&#45;&gt;aws&#45;crt&#45;cpp -->
<g id="edge15" class="edge">
<title>aws&#45;c&#45;http&#45;&gt;aws&#45;crt&#45;cpp</title>
<path fill="none" stroke="black" d="M380.49,-290.14C345.94,-270.32 289.45,-231.64 266,-180 259.38,-165.43 259.48,-158.61 266,-144 271.44,-131.8 281.24,-121.23 291.3,-112.81"/>
<polygon fill="black" stroke="black" points="293.62,-115.44 299.36,-106.53 289.32,-109.92 293.62,-115.44"/>
</g>
<!-- aws&#45;c&#45;http&#45;&gt;awscrt -->
<g id="edge16" class="edge">
<title>aws&#45;c&#45;http&#45;&gt;awscrt</title>
<path fill="none" stroke="black" d="M424.76,-288.64C447.46,-264.97 490.54,-219.66 526,-180 545.38,-158.33 566.84,-133.08 582,-115.02"/>
<polygon fill="black" stroke="black" points="584.75,-117.18 588.49,-107.27 579.38,-112.69 584.75,-117.18"/>
</g>
<!-- aws&#45;c&#45;http&#45;&gt;aws&#45;c&#45;mqtt -->
<g id="edge17" class="edge">
<title>aws&#45;c&#45;http&#45;&gt;aws&#45;c&#45;mqtt</title>
<path fill="none" stroke="black" d="M414.55,-287.87C422.42,-263.56 436.92,-218.82 446.25,-190.01"/>
<polygon fill="black" stroke="black" points="449.68,-190.78 449.43,-180.19 443.02,-188.62 449.68,-190.78"/>
</g>
<!-- aws&#45;c&#45;http&#45;&gt;aws&#45;c&#45;auth -->
<g id="edge18" class="edge">
<title>aws&#45;c&#45;http&#45;&gt;aws&#45;c&#45;auth</title>
<path fill="none" stroke="black" d="M368.33,-292.89C328.6,-281.05 268,-263 225.05,-250.21"/>
<polygon fill="black" stroke="black" points="225.93,-246.82 215.35,-247.32 223.94,-253.53 225.93,-246.82"/>
</g>
<!-- aws&#45;c&#45;http&#45;&gt;aws&#45;c&#45;s3 -->
<g id="edge19" class="edge">
<title>aws&#45;c&#45;http&#45;&gt;aws&#45;c&#45;s3</title>
<path fill="none" stroke="black" d="M399.03,-288.15C384.45,-263.49 357.16,-217.37 340.1,-188.53"/>
<polygon fill="black" stroke="black" points="343.06,-186.65 334.95,-179.82 337.03,-190.21 343.06,-186.65"/>
</g>
<!-- aws&#45;c&#45;mqtt&#45;&gt;aws&#45;crt&#45;cpp -->
<g id="edge20" class="edge">
<title>aws&#45;c&#45;mqtt&#45;&gt;aws&#45;crt&#45;cpp</title>
<path fill="none" stroke="black" d="M426.79,-145.81C408.01,-135.7 383.12,-122.3 362.66,-111.28"/>
<polygon fill="black" stroke="black" points="364.07,-108.06 353.6,-106.4 360.75,-114.22 364.07,-108.06"/>
</g>
<!-- aws&#45;c&#45;mqtt&#45;&gt;awscrt -->
<g id="edge21" class="edge">
<title>aws&#45;c&#45;mqtt&#45;&gt;awscrt</title>
<path fill="none" stroke="black" d="M485.82,-146.33C509.01,-135.28 540.87,-120.11 565.36,-108.45"/>
<polygon fill="black" stroke="black" points="567.17,-111.46 574.69,-104 564.16,-105.14 567.17,-111.46"/>
</g>
<!-- aws&#45;c&#45;auth&#45;&gt;aws&#45;crt&#45;cpp -->
<g id="edge22" class="edge">
<title>aws&#45;c&#45;auth&#45;&gt;aws&#45;crt&#45;cpp</title>
<path fill="none" stroke="black" d="M173.59,-215.86C174.04,-196.26 177.66,-164.27 195,-144 212.2,-123.9 238.18,-111.31 262.41,-103.49"/>
<polygon fill="black" stroke="black" points="263.73,-106.75 272.3,-100.52 261.72,-100.04 263.73,-106.75"/>
</g>
<!-- aws&#45;c&#45;auth&#45;&gt;awscrt -->
<g id="edge23" class="edge">
<title>aws&#45;c&#45;auth&#45;&gt;awscrt</title>
<path fill="none" stroke="black" d="M186.17,-216.05C202.02,-195.37 231.79,-161.06 266,-144 315.03,-119.55 469.52,-102.7 550.82,-95.28"/>
<polygon fill="black" stroke="black" points="551.19,-98.76 560.84,-94.37 550.57,-91.78 551.19,-98.76"/>
</g>
<!-- aws&#45;c&#45;auth&#45;&gt;aws&#45;c&#45;s3 -->
<g id="edge24" class="edge">
<title>aws&#45;c&#45;auth&#45;&gt;aws&#45;c&#45;s3</title>
<path fill="none" stroke="black" d="M205.29,-218.5C228.8,-207.59 261.15,-192.6 286.3,-180.94"/>
<polygon fill="black" stroke="black" points="287.95,-184.03 295.55,-176.65 285,-177.68 287.95,-184.03"/>
</g>
<!-- aws&#45;c&#45;s3&#45;&gt;aws&#45;crt&#45;cpp -->
<g id="edge25" class="edge">
<title>aws&#45;c&#45;s3&#45;&gt;aws&#45;crt&#45;cpp</title>
<path fill="none" stroke="black" d="M325,-143.7C325,-135.98 325,-126.71 325,-118.11"/>
<polygon fill="black" stroke="black" points="328.5,-118.1 325,-108.1 321.5,-118.1 328.5,-118.1"/>
</g>
<!-- aws&#45;c&#45;s3&#45;&gt;awscrt -->
<g id="edge26" class="edge">
<title>aws&#45;c&#45;s3&#45;&gt;awscrt</title>
<path fill="none" stroke="black" d="M362.39,-149.97C369.55,-147.93 376.99,-145.86 384,-144 443.02,-128.33 511.52,-111.97 555.75,-101.65"/>
<polygon fill="black" stroke="black" points="556.68,-105.03 565.62,-99.35 555.09,-98.21 556.68,-105.03"/>
</g>
<!-- aws&#45;c&#45;cal -->
<g id="node11" class="node">
<title>aws&#45;c&#45;cal</title>
<g id="a_node11"><a xlink:href="https://github.com/conda-forge/aws-c-cal-feedstock/pull/46" xlink:title="aws c cal ❎">
<ellipse fill="#31688e" stroke="black" cx="409" cy="-450" rx="67" ry="18"/>
<text text-anchor="middle" x="409" y="-446.3" font-family="Times,serif" font-size="14.00" fill="white">aws c cal ❎</text>
</a>
</g>
</g>
<!-- aws&#45;c&#45;cal&#45;&gt;aws&#45;crt&#45;cpp -->
<g id="edge27" class="edge">
<title>aws&#45;c&#45;cal&#45;&gt;aws&#45;crt&#45;cpp</title>
<path fill="none" stroke="black" d="M344.65,-444.82C285.77,-439.2 197.25,-426.13 126,-396 62.85,-369.3 0,-375.56 0,-307 0,-307 0,-307 0,-233 0,-124.43 154.18,-98.05 250.15,-92.15"/>
<polygon fill="black" stroke="black" points="250.61,-95.63 260.4,-91.59 250.22,-88.64 250.61,-95.63"/>
</g>
<!-- aws&#45;c&#45;cal&#45;&gt;awscrt -->
<g id="edge28" class="edge">
<title>aws&#45;c&#45;cal&#45;&gt;awscrt</title>
<path fill="none" stroke="black" d="M473.08,-444.59C609.65,-433.43 917,-398.17 917,-307 917,-307 917,-307 917,-233 917,-189.63 911.01,-170.91 877,-144 843.05,-117.13 723.23,-102 653.45,-95.27"/>
<polygon fill="black" stroke="black" points="653.41,-91.75 643.12,-94.3 652.75,-98.72 653.41,-91.75"/>
</g>
<!-- aws&#45;c&#45;cal&#45;&gt;aws&#45;c&#45;io -->
<g id="edge29" class="edge">
<title>aws&#45;c&#45;cal&#45;&gt;aws&#45;c&#45;io</title>
<path fill="none" stroke="black" d="M409,-431.7C409,-423.98 409,-414.71 409,-406.11"/>
<polygon fill="black" stroke="black" points="412.5,-406.1 409,-396.1 405.5,-406.1 412.5,-406.1"/>
</g>
<!-- aws&#45;c&#45;cal&#45;&gt;aws&#45;c&#45;auth -->
<g id="edge30" class="edge">
<title>aws&#45;c&#45;cal&#45;&gt;aws&#45;c&#45;auth</title>
<path fill="none" stroke="black" d="M345.46,-444.11C271.09,-434.59 150.99,-406.55 95,-324 86.02,-310.76 87.47,-302.12 95,-288 102.71,-273.54 116.32,-262.32 130.09,-254.01"/>
<polygon fill="black" stroke="black" points="132.09,-256.9 139.11,-248.96 128.67,-250.79 132.09,-256.9"/>
</g>
<!-- aws&#45;c&#45;cal&#45;&gt;aws&#45;c&#45;s3 -->
<g id="edge31" class="edge">
<title>aws&#45;c&#45;cal&#45;&gt;aws&#45;c&#45;s3</title>
<path fill="none" stroke="black" d="M432.59,-433.07C444.55,-423.71 458.16,-410.81 466,-396 488.57,-353.35 497.61,-331.63 477,-288 453.59,-238.45 399.84,-201.91 362.96,-181.54"/>
<polygon fill="black" stroke="black" points="364.44,-178.37 353.98,-176.71 361.13,-184.53 364.44,-178.37"/>
</g>
<!-- aws&#45;c&#45;sdkutils -->
<g id="node12" class="node">
<title>aws&#45;c&#45;sdkutils</title>
<g id="a_node12"><a xlink:href="https://github.com/conda-forge/aws-c-sdkutils-feedstock" xlink:title="aws c sdkutils">
<ellipse fill="#35b779" stroke="black" cx="180" cy="-306" rx="76.09" ry="18"/>
<text text-anchor="middle" x="180" y="-302.3" font-family="Times,serif" font-size="14.00">aws c sdkutils</text>
</a>
</g>
</g>
<!-- aws&#45;c&#45;sdkutils&#45;&gt;aws&#45;c&#45;auth -->
<g id="edge32" class="edge">
<title>aws&#45;c&#45;sdkutils&#45;&gt;aws&#45;c&#45;auth</title>
<path fill="none" stroke="black" d="M178.52,-287.7C177.86,-279.98 177.06,-270.71 176.32,-262.11"/>
<polygon fill="black" stroke="black" points="179.81,-261.77 175.47,-252.1 172.83,-262.37 179.81,-261.77"/>
</g>
</g>
</svg>
