<?xml version="1.0" encoding="UTF-8" standalone="no"?>
<!DOCTYPE svg PUBLIC "-//W3C//DTD SVG 1.1//EN"
 "http://www.w3.org/Graphics/SVG/1.1/DTD/svg11.dtd">
<!-- Generated by graphviz version 2.42.3 (20191010.1750)
 -->
<!-- Title: %3 Pages: 1 -->
<svg width="1214pt" height="1904pt"
 viewBox="0.00 0.00 1213.59 1904.00" xmlns="http://www.w3.org/2000/svg" xmlns:xlink="http://www.w3.org/1999/xlink">
<g id="graph0" class="graph" transform="scale(1 1) rotate(0) translate(4 1900)">
<title>%3</title>
<polygon fill="white" stroke="transparent" points="-4,4 -4,-1900 1209.59,-1900 1209.59,4 -4,4"/>
<!-- avrocpp -->
<g id="node1" class="node">
<title>avrocpp</title>
<g id="a_node1"><a xlink:href="https://github.com/conda-forge/avrocpp-feedstock/pull/14" xlink:title="avrocpp ❎">
<ellipse fill="#31688e" stroke="black" cx="150.59" cy="-1878" rx="50.89" ry="18"/>
<text text-anchor="middle" x="150.59" y="-1874.3" font-family="Times,serif" font-size="14.00" fill="white">avrocpp ❎</text>
</a>
</g>
</g>
<!-- caffe -->
<g id="node2" class="node">
<title>caffe</title>
<g id="a_node2"><a xlink:href="https://github.com/conda-forge/caffe-feedstock/pull/66" xlink:title="caffe ❎">
<ellipse fill="#31688e" stroke="black" cx="150.59" cy="-1806" rx="40.5" ry="18"/>
<text text-anchor="middle" x="150.59" y="-1802.3" font-family="Times,serif" font-size="14.00" fill="white">caffe ❎</text>
</a>
</g>
</g>
<!-- avrocpp&#45;&gt;caffe -->
<!-- cyclus -->
<g id="node3" class="node">
<title>cyclus</title>
<g id="a_node3"><a xlink:href="https://github.com/conda-forge/cyclus-feedstock/pull/57" xlink:title="cyclus ❎">
<ellipse fill="#31688e" stroke="black" cx="150.59" cy="-1734" rx="45" ry="18"/>
<text text-anchor="middle" x="150.59" y="-1730.3" font-family="Times,serif" font-size="14.00" fill="white">cyclus ❎</text>
</a>
</g>
</g>
<!-- caffe&#45;&gt;cyclus -->
<!-- libcmaes -->
<g id="node4" class="node">
<title>libcmaes</title>
<g id="a_node4"><a xlink:href="https://github.com/conda-forge/libcmaes-feedstock/pull/23" xlink:title="libcmaes ❎">
<ellipse fill="#31688e" stroke="black" cx="150.59" cy="-1662" rx="54" ry="18"/>
<text text-anchor="middle" x="150.59" y="-1658.3" font-family="Times,serif" font-size="14.00" fill="white">libcmaes ❎</text>
</a>
</g>
</g>
<!-- cyclus&#45;&gt;libcmaes -->
<!-- paraview -->
<g id="node7" class="node">
<title>paraview</title>
<g id="a_node7"><a xlink:href="https://github.com/conda-forge/paraview-feedstock/pull/96" xlink:title="paraview ❎">
<ellipse fill="#31688e" stroke="black" cx="150.59" cy="-1590" rx="54.69" ry="18"/>
<text text-anchor="middle" x="150.59" y="-1586.3" font-family="Times,serif" font-size="14.00" fill="white">paraview ❎</text>
</a>
</g>
</g>
<!-- libcmaes&#45;&gt;paraview -->
<!-- fenics -->
<g id="node5" class="node">
<title>fenics</title>
<g id="a_node5"><a xlink:href="https://github.com/conda-forge/fenics-feedstock/pull/111" xlink:title="fenics ❎">
<ellipse fill="#31688e" stroke="black" cx="150.59" cy="-90" rx="43.59" ry="18"/>
<text text-anchor="middle" x="150.59" y="-86.3" font-family="Times,serif" font-size="14.00" fill="white">fenics ❎</text>
</a>
</g>
</g>
<!-- mshr -->
<g id="node6" class="node">
<title>mshr</title>
<g id="a_node6"><a xlink:href="https://github.com/conda-forge/mshr-feedstock" xlink:title="mshr">
<ellipse fill="#fde725" stroke="black" cx="150.59" cy="-18" rx="28.7" ry="18"/>
<text text-anchor="middle" x="150.59" y="-14.3" font-family="Times,serif" font-size="14.00">mshr</text>
</a>
</g>
</g>
<!-- fenics&#45;&gt;mshr -->
<g id="edge4" class="edge">
<title>fenics&#45;&gt;mshr</title>
<path fill="none" stroke="black" d="M150.59,-71.7C150.59,-63.98 150.59,-54.71 150.59,-46.11"/>
<polygon fill="black" stroke="black" points="154.09,-46.1 150.59,-36.1 147.09,-46.1 154.09,-46.1"/>
</g>
<!-- pykep -->
<g id="node8" class="node">
<title>pykep</title>
<g id="a_node8"><a xlink:href="https://github.com/conda-forge/pykep-feedstock/pull/14" xlink:title="pykep ✓">
<ellipse fill="#31688e" stroke="black" cx="150.59" cy="-1518" rx="42.49" ry="18"/>
<text text-anchor="middle" x="150.59" y="-1514.3" font-family="Times,serif" font-size="14.00" fill="white">pykep ✓</text>
</a>
</g>
</g>
<!-- paraview&#45;&gt;pykep -->
<!-- pyopcode -->
<g id="node9" class="node">
<title>pyopcode</title>
<g id="a_node9"><a xlink:href="https://github.com/conda-forge/pyopcode-feedstock/pull/21" xlink:title="pyopcode ❎">
<ellipse fill="#31688e" stroke="black" cx="150.59" cy="-1446" rx="56.59" ry="18"/>
<text text-anchor="middle" x="150.59" y="-1442.3" font-family="Times,serif" font-size="14.00" fill="white">pyopcode ❎</text>
</a>
</g>
</g>
<!-- pykep&#45;&gt;pyopcode -->
<!-- pyranha -->
<g id="node10" class="node">
<title>pyranha</title>
<g id="a_node10"><a xlink:href="https://github.com/conda-forge/pyranha-feedstock/pull/17" xlink:title="pyranha ❎">
<ellipse fill="#31688e" stroke="black" cx="150.59" cy="-1374" rx="50.89" ry="18"/>
<text text-anchor="middle" x="150.59" y="-1370.3" font-family="Times,serif" font-size="14.00" fill="white">pyranha ❎</text>
</a>
</g>
</g>
<!-- pyopcode&#45;&gt;pyranha -->
<!-- python&#45;casacore -->
<g id="node11" class="node">
<title>python&#45;casacore</title>
<g id="a_node11"><a xlink:href="https://github.com/conda-forge/python-casacore-feedstock/pull/18" xlink:title="python casacore ✓">
<ellipse fill="#31688e" stroke="black" cx="150.59" cy="-1302" rx="78" ry="18"/>
<text text-anchor="middle" x="150.59" y="-1298.3" font-family="Times,serif" font-size="14.00" fill="white">python casacore ✓</text>
</a>
</g>
</g>
<!-- pyranha&#45;&gt;python&#45;casacore -->
<!-- pytrilinos -->
<g id="node12" class="node">
<title>pytrilinos</title>
<g id="a_node12"><a xlink:href="https://github.com/conda-forge/pytrilinos-feedstock/pull/30" xlink:title="pytrilinos ❎">
<ellipse fill="#31688e" stroke="black" cx="150.59" cy="-1230" rx="56" ry="18"/>
<text text-anchor="middle" x="150.59" y="-1226.3" font-family="Times,serif" font-size="14.00" fill="white">pytrilinos ❎</text>
</a>
</g>
</g>
<!-- python&#45;casacore&#45;&gt;pytrilinos -->
<!-- rsgislib -->
<g id="node13" class="node">
<title>rsgislib</title>
<g id="a_node13"><a xlink:href="https://github.com/conda-forge/rsgislib-feedstock/pull/36" xlink:title="rsgislib ❎">
<ellipse fill="#31688e" stroke="black" cx="150.59" cy="-1158" rx="48.19" ry="18"/>
<text text-anchor="middle" x="150.59" y="-1154.3" font-family="Times,serif" font-size="14.00" fill="white">rsgislib ❎</text>
</a>
</g>
</g>
<!-- pytrilinos&#45;&gt;rsgislib -->
<!-- sagelib -->
<g id="node14" class="node">
<title>sagelib</title>
<g id="a_node14"><a xlink:href="https://github.com/conda-forge/sagelib-feedstock/pull/104" xlink:title="sagelib ❎">
<ellipse fill="#31688e" stroke="black" cx="150.59" cy="-1114" rx="47.5" ry="18"/>
<text text-anchor="middle" x="150.59" y="-1110.3" font-family="Times,serif" font-size="14.00" fill="white">sagelib ❎</text>
</a>
</g>
</g>
<!-- clfft -->
<g id="node15" class="node">
<title>clfft</title>
<g id="a_node15"><a xlink:href="https://github.com/conda-forge/clfft-feedstock/pull/11" xlink:title="clfft ❎">
<ellipse fill="#31688e" stroke="black" cx="150.59" cy="-1042" rx="37.09" ry="18"/>
<text text-anchor="middle" x="150.59" y="-1038.3" font-family="Times,serif" font-size="14.00" fill="white">clfft ❎</text>
</a>
</g>
</g>
<!-- sagelib&#45;&gt;clfft -->
<!-- clsparse -->
<g id="node21" class="node">
<title>clsparse</title>
<g id="a_node21"><a xlink:href="https://github.com/conda-forge/clsparse-feedstock/pull/8" xlink:title="clsparse ❎">
<ellipse fill="#31688e" stroke="black" cx="150.59" cy="-970" rx="50.89" ry="18"/>
<text text-anchor="middle" x="150.59" y="-966.3" font-family="Times,serif" font-size="14.00" fill="white">clsparse ❎</text>
</a>
</g>
</g>
<!-- clfft&#45;&gt;clsparse -->
<!-- vtk -->
<g id="node16" class="node">
<title>vtk</title>
<g id="a_node16"><a xlink:href="https://github.com/conda-forge/vtk-feedstock/pull/146" xlink:title="vtk ❎">
<ellipse fill="#31688e" stroke="black" cx="1024.59" cy="-862" rx="34" ry="18"/>
<text text-anchor="middle" x="1024.59" y="-858.3" font-family="Times,serif" font-size="14.00" fill="white">vtk ❎</text>
</a>
</g>
</g>
<!-- smesh -->
<g id="node17" class="node">
<title>smesh</title>
<g id="a_node17"><a xlink:href="https://github.com/conda-forge/smesh-feedstock" xlink:title="smesh">
<ellipse fill="#fde725" stroke="black" cx="935.59" cy="-790" rx="33.29" ry="18"/>
<text text-anchor="middle" x="935.59" y="-786.3" font-family="Times,serif" font-size="14.00">smesh</text>
</a>
</g>
</g>
<!-- vtk&#45;&gt;smesh -->
<g id="edge13" class="edge">
<title>vtk&#45;&gt;smesh</title>
<path fill="none" stroke="black" d="M1006.15,-846.5C993.3,-836.39 975.97,-822.75 961.7,-811.53"/>
<polygon fill="black" stroke="black" points="963.73,-808.68 953.71,-805.25 959.4,-814.18 963.73,-808.68"/>
</g>
<!-- freecad -->
<g id="node18" class="node">
<title>freecad</title>
<g id="a_node18"><a xlink:href="https://github.com/conda-forge/freecad-feedstock" xlink:title="freecad">
<ellipse fill="#fde725" stroke="black" cx="930.59" cy="-718" rx="36.5" ry="18"/>
<text text-anchor="middle" x="930.59" y="-714.3" font-family="Times,serif" font-size="14.00">freecad</text>
</a>
</g>
</g>
<!-- vtk&#45;&gt;freecad -->
<g id="edge14" class="edge">
<title>vtk&#45;&gt;freecad</title>
<path fill="none" stroke="black" d="M1017.22,-844.24C1008.79,-825.82 994.01,-795.7 977.59,-772 970.34,-761.52 961.25,-750.84 953.01,-741.84"/>
<polygon fill="black" stroke="black" points="955.44,-739.31 946.05,-734.41 950.33,-744.1 955.44,-739.31"/>
</g>
<!-- esys&#45;escript -->
<g id="node19" class="node">
<title>esys&#45;escript</title>
<g id="a_node19"><a xlink:href="https://github.com/conda-forge/esys-escript-feedstock/pull/21" xlink:title="esys escript ❎">
<ellipse fill="#31688e" stroke="black" cx="1048.59" cy="-718" rx="63.89" ry="18"/>
<text text-anchor="middle" x="1048.59" y="-714.3" font-family="Times,serif" font-size="14.00" fill="white">esys escript ❎</text>
</a>
</g>
</g>
<!-- vtk&#45;&gt;esys&#45;escript -->
<g id="edge15" class="edge">
<title>vtk&#45;&gt;esys&#45;escript</title>
<path fill="none" stroke="black" d="M1027.49,-843.87C1031.58,-819.67 1039.09,-775.21 1043.96,-746.39"/>
<polygon fill="black" stroke="black" points="1047.47,-746.63 1045.69,-736.19 1040.57,-745.47 1047.47,-746.63"/>
</g>
<!-- topologytoolkit -->
<g id="node20" class="node">
<title>topologytoolkit</title>
<g id="a_node20"><a xlink:href="https://github.com/conda-forge/topologytoolkit-feedstock" xlink:title="topologytoolkit">
<ellipse fill="#fde725" stroke="black" cx="1140.59" cy="-646" rx="65" ry="18"/>
<text text-anchor="middle" x="1140.59" y="-642.3" font-family="Times,serif" font-size="14.00">topologytoolkit</text>
</a>
</g>
</g>
<!-- vtk&#45;&gt;topologytoolkit -->
<g id="edge16" class="edge">
<title>vtk&#45;&gt;topologytoolkit</title>
<path fill="none" stroke="black" d="M1040.38,-845.61C1062.14,-823.45 1100.98,-780.34 1121.59,-736 1130.72,-716.36 1135.52,-692.23 1138.01,-674.05"/>
<polygon fill="black" stroke="black" points="1141.49,-674.47 1139.23,-664.12 1134.54,-673.62 1141.49,-674.47"/>
</g>
<!-- smesh&#45;&gt;freecad -->
<g id="edge17" class="edge">
<title>smesh&#45;&gt;freecad</title>
<path fill="none" stroke="black" d="M934.36,-771.7C933.81,-763.98 933.14,-754.71 932.53,-746.11"/>
<polygon fill="black" stroke="black" points="936.02,-745.83 931.81,-736.1 929.04,-746.33 936.02,-745.83"/>
</g>
<!-- spdlib -->
<g id="node22" class="node">
<title>spdlib</title>
<g id="a_node22"><a xlink:href="https://github.com/conda-forge/spdlib-feedstock" xlink:title="spdlib">
<ellipse fill="#fde725" stroke="black" cx="150.59" cy="-898" rx="32.5" ry="18"/>
<text text-anchor="middle" x="150.59" y="-894.3" font-family="Times,serif" font-size="14.00">spdlib</text>
</a>
</g>
</g>
<!-- clsparse&#45;&gt;spdlib -->
<!-- fmipp -->
<g id="node23" class="node">
<title>fmipp</title>
<g id="a_node23"><a xlink:href="https://github.com/conda-forge/fmipp-feedstock/pull/16" xlink:title="fmipp ❎">
<ellipse fill="#31688e" stroke="black" cx="150.59" cy="-826" rx="44.39" ry="18"/>
<text text-anchor="middle" x="150.59" y="-822.3" font-family="Times,serif" font-size="14.00" fill="white">fmipp ❎</text>
</a>
</g>
</g>
<!-- spdlib&#45;&gt;fmipp -->
<!-- multineat -->
<g id="node24" class="node">
<title>multineat</title>
<g id="a_node24"><a xlink:href="https://github.com/conda-forge/multineat-feedstock/pull/5" xlink:title="multineat ❎">
<ellipse fill="#31688e" stroke="black" cx="150.59" cy="-754" rx="56" ry="18"/>
<text text-anchor="middle" x="150.59" y="-750.3" font-family="Times,serif" font-size="14.00" fill="white">multineat ❎</text>
</a>
</g>
</g>
<!-- fmipp&#45;&gt;multineat -->
<!-- ovito -->
<g id="node25" class="node">
<title>ovito</title>
<g id="a_node25"><a xlink:href="https://github.com/conda-forge/ovito-feedstock/pull/30" xlink:title="ovito ❎">
<ellipse fill="#31688e" stroke="black" cx="150.59" cy="-682" rx="40.5" ry="18"/>
<text text-anchor="middle" x="150.59" y="-678.3" font-family="Times,serif" font-size="14.00" fill="white">ovito ❎</text>
</a>
</g>
</g>
<!-- multineat&#45;&gt;ovito -->
<!-- helics -->
<g id="node26" class="node">
<title>helics</title>
<g id="a_node26"><a xlink:href="https://github.com/conda-forge/helics-feedstock/pull/21" xlink:title="helics ❎">
<ellipse fill="#31688e" stroke="black" cx="150.59" cy="-610" rx="43" ry="18"/>
<text text-anchor="middle" x="150.59" y="-606.3" font-family="Times,serif" font-size="14.00" fill="white">helics ❎</text>
</a>
</g>
</g>
<!-- ovito&#45;&gt;helics -->
<!-- z5py -->
<g id="node27" class="node">
<title>z5py</title>
<g id="a_node27"><a xlink:href="https://github.com/conda-forge/z5py-feedstock/pull/33" xlink:title="z5py ❎">
<ellipse fill="#31688e" stroke="black" cx="150.59" cy="-538" rx="39.79" ry="18"/>
<text text-anchor="middle" x="150.59" y="-534.3" font-family="Times,serif" font-size="14.00" fill="white">z5py ❎</text>
</a>
</g>
</g>
<!-- helics&#45;&gt;z5py -->
<!-- gudhi -->
<g id="node28" class="node">
<title>gudhi</title>
<g id="a_node28"><a xlink:href="https://github.com/conda-forge/gudhi-feedstock/pull/22" xlink:title="gudhi ❎">
<ellipse fill="#31688e" stroke="black" cx="150.59" cy="-466" rx="42.49" ry="18"/>
<text text-anchor="middle" x="150.59" y="-462.3" font-family="Times,serif" font-size="14.00" fill="white">gudhi ❎</text>
</a>
</g>
</g>
<!-- z5py&#45;&gt;gudhi -->
<!-- desres&#45;msys -->
<g id="node33" class="node">
<title>desres&#45;msys</title>
<g id="a_node33"><a xlink:href="https://github.com/conda-forge/desres-msys-feedstock/pull/11" xlink:title="desres msys ❎">
<ellipse fill="#31688e" stroke="black" cx="150.59" cy="-394" rx="65.79" ry="18"/>
<text text-anchor="middle" x="150.59" y="-390.3" font-family="Times,serif" font-size="14.00" fill="white">desres msys ❎</text>
</a>
</g>
</g>
<!-- gudhi&#45;&gt;desres&#45;msys -->
<!-- ldas&#45;tools&#45;al -->
<g id="node29" class="node">
<title>ldas&#45;tools&#45;al</title>
<g id="a_node29"><a xlink:href="https://github.com/conda-forge/ldas-tools-al-feedstock/pull/15" xlink:title="ldas tools al ❎">
<ellipse fill="#31688e" stroke="black" cx="189.59" cy="-350" rx="65" ry="18"/>
<text text-anchor="middle" x="189.59" y="-346.3" font-family="Times,serif" font-size="14.00" fill="white">ldas tools al ❎</text>
</a>
</g>
</g>
<!-- ldas&#45;tools&#45;framecpp -->
<g id="node30" class="node">
<title>ldas&#45;tools&#45;framecpp</title>
<g id="a_node30"><a xlink:href="https://github.com/conda-forge/ldas-tools-framecpp-feedstock" xlink:title="ldas tools framecpp">
<ellipse fill="#fde725" stroke="black" cx="80.59" cy="-278" rx="80.69" ry="18"/>
<text text-anchor="middle" x="80.59" y="-274.3" font-family="Times,serif" font-size="14.00">ldas tools framecpp</text>
</a>
</g>
</g>
<!-- ldas&#45;tools&#45;al&#45;&gt;ldas&#45;tools&#45;framecpp -->
<g id="edge26" class="edge">
<title>ldas&#45;tools&#45;al&#45;&gt;ldas&#45;tools&#45;framecpp</title>
<path fill="none" stroke="black" d="M165.13,-333.29C150.2,-323.7 130.89,-311.3 114.49,-300.77"/>
<polygon fill="black" stroke="black" points="116.03,-297.6 105.73,-295.14 112.25,-303.49 116.03,-297.6"/>
</g>
<!-- ldas&#45;tools&#45;ldasgen -->
<g id="node31" class="node">
<title>ldas&#45;tools&#45;ldasgen</title>
<g id="a_node31"><a xlink:href="https://github.com/conda-forge/ldas-tools-ldasgen-feedstock" xlink:title="ldas tools ldasgen">
<ellipse fill="#fde725" stroke="black" cx="157.59" cy="-206" rx="73.5" ry="18"/>
<text text-anchor="middle" x="157.59" y="-202.3" font-family="Times,serif" font-size="14.00">ldas tools ldasgen</text>
</a>
</g>
</g>
<!-- ldas&#45;tools&#45;al&#45;&gt;ldas&#45;tools&#45;ldasgen -->
<g id="edge27" class="edge">
<title>ldas&#45;tools&#45;al&#45;&gt;ldas&#45;tools&#45;ldasgen</title>
<path fill="none" stroke="black" d="M186.1,-331.9C182.4,-313.96 176.31,-284.95 170.59,-260 168.66,-251.56 166.45,-242.39 164.4,-234.09"/>
<polygon fill="black" stroke="black" points="167.74,-233.02 161.94,-224.15 160.95,-234.7 167.74,-233.02"/>
</g>
<!-- ldas&#45;tools&#45;diskcacheapi -->
<g id="node32" class="node">
<title>ldas&#45;tools&#45;diskcacheapi</title>
<g id="a_node32"><a xlink:href="https://github.com/conda-forge/ldas-tools-diskcacheapi-feedstock" xlink:title="ldas tools diskcacheapi">
<ellipse fill="#fde725" stroke="black" cx="208.59" cy="-134" rx="92.5" ry="18"/>
<text text-anchor="middle" x="208.59" y="-130.3" font-family="Times,serif" font-size="14.00">ldas tools diskcacheapi</text>
</a>
</g>
</g>
<!-- ldas&#45;tools&#45;al&#45;&gt;ldas&#45;tools&#45;diskcacheapi -->
<g id="edge28" class="edge">
<title>ldas&#45;tools&#45;al&#45;&gt;ldas&#45;tools&#45;diskcacheapi</title>
<path fill="none" stroke="black" d="M199.1,-331.87C211.52,-308.38 232.65,-264.48 240.59,-224 243.67,-208.3 244.89,-203.41 240.59,-188 237.92,-178.42 233,-168.84 227.81,-160.51"/>
<polygon fill="black" stroke="black" points="230.61,-158.41 222.16,-152.03 224.79,-162.29 230.61,-158.41"/>
</g>
<!-- ldas&#45;tools&#45;ldasgen&#45;&gt;ldas&#45;tools&#45;diskcacheapi -->
<g id="edge29" class="edge">
<title>ldas&#45;tools&#45;ldasgen&#45;&gt;ldas&#45;tools&#45;diskcacheapi</title>
<path fill="none" stroke="black" d="M169.94,-188.05C175.99,-179.75 183.4,-169.58 190.1,-160.38"/>
<polygon fill="black" stroke="black" points="192.95,-162.42 196.01,-152.28 187.29,-158.3 192.95,-162.42"/>
</g>
<!-- dealii -->
<g id="node34" class="node">
<title>dealii</title>
<g id="a_node34"><a xlink:href="https://github.com/conda-forge/dealii-feedstock/pull/10" xlink:title="dealii ❎">
<ellipse fill="#31688e" stroke="black" cx="1049.59" cy="-1878" rx="42.49" ry="18"/>
<text text-anchor="middle" x="1049.59" y="-1874.3" font-family="Times,serif" font-size="14.00" fill="white">dealii ❎</text>
</a>
</g>
</g>
<!-- opencamlib -->
<g id="node35" class="node">
<title>opencamlib</title>
<g id="a_node35"><a xlink:href="https://github.com/conda-forge/opencamlib-feedstock/pull/5" xlink:title="opencamlib ❎">
<ellipse fill="#31688e" stroke="black" cx="1049.59" cy="-1806" rx="63.89" ry="18"/>
<text text-anchor="middle" x="1049.59" y="-1802.3" font-family="Times,serif" font-size="14.00" fill="white">opencamlib ❎</text>
</a>
</g>
</g>
<!-- dealii&#45;&gt;opencamlib -->
<!-- ledger -->
<g id="node36" class="node">
<title>ledger</title>
<g id="a_node36"><a xlink:href="https://github.com/conda-forge/ledger-feedstock/pull/6" xlink:title="ledger ✓">
<ellipse fill="#31688e" stroke="black" cx="1049.59" cy="-1734" rx="43" ry="18"/>
<text text-anchor="middle" x="1049.59" y="-1730.3" font-family="Times,serif" font-size="14.00" fill="white">ledger ✓</text>
</a>
</g>
</g>
<!-- opencamlib&#45;&gt;ledger -->
<!-- htcondor -->
<g id="node37" class="node">
<title>htcondor</title>
<g id="a_node37"><a xlink:href="https://github.com/conda-forge/htcondor-feedstock/pull/18" xlink:title="htcondor ❎">
<ellipse fill="#31688e" stroke="black" cx="1049.59" cy="-1662" rx="54" ry="18"/>
<text text-anchor="middle" x="1049.59" y="-1658.3" font-family="Times,serif" font-size="14.00" fill="white">htcondor ❎</text>
</a>
</g>
</g>
<!-- ledger&#45;&gt;htcondor -->
<!-- dcgp&#45;python -->
<g id="node45" class="node">
<title>dcgp&#45;python</title>
<g id="a_node45"><a xlink:href="https://github.com/conda-forge/dcgp-python-feedstock/pull/14" xlink:title="dcgp python ❎">
<ellipse fill="#31688e" stroke="black" cx="1049.59" cy="-1590" rx="66.5" ry="18"/>
<text text-anchor="middle" x="1049.59" y="-1586.3" font-family="Times,serif" font-size="14.00" fill="white">dcgp python ❎</text>
</a>
</g>
</g>
<!-- htcondor&#45;&gt;dcgp&#45;python -->
<!-- ros&#45;roscpp -->
<g id="node38" class="node">
<title>ros&#45;roscpp</title>
<g id="a_node38"><a xlink:href="https://github.com/conda-forge/ros-roscpp-feedstock/pull/8" xlink:title="ros roscpp ❎">
<ellipse fill="#31688e" stroke="black" cx="580.59" cy="-1662" rx="59.29" ry="18"/>
<text text-anchor="middle" x="580.59" y="-1658.3" font-family="Times,serif" font-size="14.00" fill="white">ros roscpp ❎</text>
</a>
</g>
</g>
<!-- ros&#45;rostest -->
<g id="node39" class="node">
<title>ros&#45;rostest</title>
<g id="a_node39"><a xlink:href="https://github.com/conda-forge/ros-rostest-feedstock/pull/4" xlink:title="ros rostest ❎">
<ellipse fill="#31688e" stroke="black" cx="580.59" cy="-1590" rx="58.5" ry="18"/>
<text text-anchor="middle" x="580.59" y="-1586.3" font-family="Times,serif" font-size="14.00" fill="white">ros rostest ❎</text>
</a>
</g>
</g>
<!-- ros&#45;roscpp&#45;&gt;ros&#45;rostest -->
<g id="edge34" class="edge">
<title>ros&#45;roscpp&#45;&gt;ros&#45;rostest</title>
<path fill="none" stroke="black" d="M580.59,-1643.7C580.59,-1635.98 580.59,-1626.71 580.59,-1618.11"/>
<polygon fill="black" stroke="black" points="584.09,-1618.1 580.59,-1608.1 577.09,-1618.1 584.09,-1618.1"/>
</g>
<!-- ros&#45;message&#45;filters -->
<g id="node40" class="node">
<title>ros&#45;message&#45;filters</title>
<g id="a_node40"><a xlink:href="https://github.com/conda-forge/ros-message-filters-feedstock" xlink:title="ros message filters">
<ellipse fill="#fde725" stroke="black" cx="436.59" cy="-1518" rx="77.5" ry="18"/>
<text text-anchor="middle" x="436.59" y="-1514.3" font-family="Times,serif" font-size="14.00">ros message filters</text>
</a>
</g>
</g>
<!-- ros&#45;roscpp&#45;&gt;ros&#45;message&#45;filters -->
<g id="edge35" class="edge">
<title>ros&#45;roscpp&#45;&gt;ros&#45;message&#45;filters</title>
<path fill="none" stroke="black" d="M557.92,-1645.12C544.24,-1635.11 526.76,-1621.55 512.59,-1608 491.58,-1587.91 470.31,-1562.47 455.64,-1543.94"/>
<polygon fill="black" stroke="black" points="458.31,-1541.67 449.39,-1535.96 452.8,-1545.99 458.31,-1541.67"/>
</g>
<!-- ros&#45;rosbag -->
<g id="node41" class="node">
<title>ros&#45;rosbag</title>
<g id="a_node41"><a xlink:href="https://github.com/conda-forge/ros-rosbag-feedstock" xlink:title="ros rosbag">
<ellipse fill="#fde725" stroke="black" cx="684.59" cy="-1446" rx="47.5" ry="18"/>
<text text-anchor="middle" x="684.59" y="-1442.3" font-family="Times,serif" font-size="14.00">ros rosbag</text>
</a>
</g>
</g>
<!-- ros&#45;roscpp&#45;&gt;ros&#45;rosbag -->
<g id="edge36" class="edge">
<title>ros&#45;roscpp&#45;&gt;ros&#45;rosbag</title>
<path fill="none" stroke="black" d="M618.93,-1648.19C664.11,-1630.79 737.02,-1594.9 768.59,-1536 776.15,-1521.9 776.32,-1514.01 768.59,-1500 759.61,-1483.72 743.29,-1471.75 727.41,-1463.35"/>
<polygon fill="black" stroke="black" points="728.69,-1460.07 718.17,-1458.81 725.6,-1466.36 728.69,-1460.07"/>
</g>
<!-- ros&#45;actionlib -->
<g id="node42" class="node">
<title>ros&#45;actionlib</title>
<g id="a_node42"><a xlink:href="https://github.com/conda-forge/ros-actionlib-feedstock" xlink:title="ros actionlib">
<ellipse fill="#fde725" stroke="black" cx="542.59" cy="-1374" rx="54.69" ry="18"/>
<text text-anchor="middle" x="542.59" y="-1370.3" font-family="Times,serif" font-size="14.00">ros actionlib</text>
</a>
</g>
</g>
<!-- ros&#45;roscpp&#45;&gt;ros&#45;actionlib -->
<g id="edge37" class="edge">
<title>ros&#45;roscpp&#45;&gt;ros&#45;actionlib</title>
<path fill="none" stroke="black" d="M533.6,-1650.96C478.2,-1636.32 388.73,-1603.18 349.59,-1536 309.42,-1467.04 425.16,-1414.44 494.54,-1390.02"/>
<polygon fill="black" stroke="black" points="495.68,-1393.33 504,-1386.76 493.41,-1386.71 495.68,-1393.33"/>
</g>
<!-- ros&#45;dynamic&#45;reconfigure -->
<g id="node43" class="node">
<title>ros&#45;dynamic&#45;reconfigure</title>
<g id="a_node43"><a xlink:href="https://github.com/conda-forge/ros-dynamic-reconfigure-feedstock" xlink:title="ros dynamic reconfigure">
<ellipse fill="#fde725" stroke="black" cx="788.59" cy="-1374" rx="97.5" ry="18"/>
<text text-anchor="middle" x="788.59" y="-1370.3" font-family="Times,serif" font-size="14.00">ros dynamic reconfigure</text>
</a>
</g>
</g>
<!-- ros&#45;roscpp&#45;&gt;ros&#45;dynamic&#45;reconfigure -->
<g id="edge38" class="edge">
<title>ros&#45;roscpp&#45;&gt;ros&#45;dynamic&#45;reconfigure</title>
<path fill="none" stroke="black" d="M630.45,-1652.1C662.58,-1644.47 703.93,-1630.97 734.59,-1608 792.34,-1564.73 798.03,-1535.23 809.59,-1464 812.16,-1448.21 812.59,-1443.72 809.59,-1428 807.89,-1419.06 804.69,-1409.7 801.3,-1401.37"/>
<polygon fill="black" stroke="black" points="804.5,-1399.95 797.31,-1392.17 798.08,-1402.73 804.5,-1399.95"/>
</g>
<!-- ros&#45;rostest&#45;&gt;ros&#45;message&#45;filters -->
<g id="edge39" class="edge">
<title>ros&#45;rostest&#45;&gt;ros&#45;message&#45;filters</title>
<path fill="none" stroke="black" d="M550.76,-1574.5C529.61,-1564.22 500.98,-1550.3 477.68,-1538.97"/>
<polygon fill="black" stroke="black" points="478.91,-1535.68 468.39,-1534.46 475.85,-1541.98 478.91,-1535.68"/>
</g>
<!-- ros&#45;rostest&#45;&gt;ros&#45;rosbag -->
<g id="edge40" class="edge">
<title>ros&#45;rostest&#45;&gt;ros&#45;rosbag</title>
<path fill="none" stroke="black" d="M580.4,-1571.7C581.01,-1552.52 584.53,-1521.47 599.59,-1500 610.45,-1484.53 627.4,-1472.64 643.32,-1464.08"/>
<polygon fill="black" stroke="black" points="645.18,-1467.07 652.53,-1459.43 642.02,-1460.82 645.18,-1467.07"/>
</g>
<!-- ros&#45;rostest&#45;&gt;ros&#45;actionlib -->
<g id="edge41" class="edge">
<title>ros&#45;rostest&#45;&gt;ros&#45;actionlib</title>
<path fill="none" stroke="black" d="M577.55,-1571.85C570.96,-1534.75 555.34,-1446.81 547.41,-1402.1"/>
<polygon fill="black" stroke="black" points="550.85,-1401.47 545.65,-1392.23 543.96,-1402.69 550.85,-1401.47"/>
</g>
<!-- ros&#45;rostest&#45;&gt;ros&#45;dynamic&#45;reconfigure -->
<g id="edge42" class="edge">
<title>ros&#45;rostest&#45;&gt;ros&#45;dynamic&#45;reconfigure</title>
<path fill="none" stroke="black" d="M631.7,-1581.08C681.03,-1572.33 750.8,-1556.71 768.59,-1536 800.53,-1498.83 798.29,-1437.81 793.58,-1402.53"/>
<polygon fill="black" stroke="black" points="797.02,-1401.84 792.08,-1392.47 790.09,-1402.87 797.02,-1401.84"/>
</g>
<!-- ros&#45;rosbag&#45;storage -->
<g id="node44" class="node">
<title>ros&#45;rosbag&#45;storage</title>
<g id="a_node44"><a xlink:href="https://github.com/conda-forge/ros-rosbag-storage-feedstock" xlink:title="ros rosbag storage">
<ellipse fill="#fde725" stroke="black" cx="684.59" cy="-1518" rx="75.5" ry="18"/>
<text text-anchor="middle" x="684.59" y="-1514.3" font-family="Times,serif" font-size="14.00">ros rosbag storage</text>
</a>
</g>
</g>
<!-- ros&#45;rostest&#45;&gt;ros&#45;rosbag&#45;storage -->
<g id="edge43" class="edge">
<title>ros&#45;rostest&#45;&gt;ros&#45;rosbag&#45;storage</title>
<path fill="none" stroke="black" d="M603.93,-1573.29C618.18,-1563.7 636.61,-1551.3 652.25,-1540.77"/>
<polygon fill="black" stroke="black" points="654.27,-1543.63 660.61,-1535.14 650.36,-1537.82 654.27,-1543.63"/>
</g>
<!-- ros&#45;rosbag&#45;&gt;ros&#45;actionlib -->
<g id="edge44" class="edge">
<title>ros&#45;rosbag&#45;&gt;ros&#45;actionlib</title>
<path fill="none" stroke="black" d="M656.88,-1431.34C635.22,-1420.66 604.86,-1405.7 580.88,-1393.87"/>
<polygon fill="black" stroke="black" points="582.22,-1390.63 571.7,-1389.35 579.13,-1396.91 582.22,-1390.63"/>
</g>
<!-- ros&#45;rosbag&#45;&gt;ros&#45;dynamic&#45;reconfigure -->
<g id="edge45" class="edge">
<title>ros&#45;rosbag&#45;&gt;ros&#45;dynamic&#45;reconfigure</title>
<path fill="none" stroke="black" d="M706.9,-1429.98C721.1,-1420.42 739.75,-1407.88 755.64,-1397.18"/>
<polygon fill="black" stroke="black" points="757.8,-1399.95 764.14,-1391.46 753.89,-1394.14 757.8,-1399.95"/>
</g>
<!-- ros&#45;rosbag&#45;storage&#45;&gt;ros&#45;rosbag -->
<g id="edge46" class="edge">
<title>ros&#45;rosbag&#45;storage&#45;&gt;ros&#45;rosbag</title>
<path fill="none" stroke="black" d="M684.59,-1499.7C684.59,-1491.98 684.59,-1482.71 684.59,-1474.11"/>
<polygon fill="black" stroke="black" points="688.09,-1474.1 684.59,-1464.1 681.09,-1474.1 688.09,-1474.1"/>
</g>
<!-- nix -->
<g id="node46" class="node">
<title>nix</title>
<g id="a_node46"><a xlink:href="https://github.com/conda-forge/nix-feedstock/pull/8" xlink:title="nix ❎">
<ellipse fill="#31688e" stroke="black" cx="1049.59" cy="-1518" rx="34" ry="18"/>
<text text-anchor="middle" x="1049.59" y="-1514.3" font-family="Times,serif" font-size="14.00" fill="white">nix ❎</text>
</a>
</g>
</g>
<!-- dcgp&#45;python&#45;&gt;nix -->
<!-- triqs_dft_tools -->
<g id="node54" class="node">
<title>triqs_dft_tools</title>
<g id="a_node54"><a xlink:href="https://github.com/conda-forge/triqs_dft_tools-feedstock/pull/14" xlink:title="triqs_dft_tools ✓">
<ellipse fill="#31688e" stroke="black" cx="1049.59" cy="-1446" rx="72.29" ry="18"/>
<text text-anchor="middle" x="1049.59" y="-1442.3" font-family="Times,serif" font-size="14.00" fill="white">triqs_dft_tools ✓</text>
</a>
</g>
</g>
<!-- nix&#45;&gt;triqs_dft_tools -->
<!-- gnuradio -->
<g id="node47" class="node">
<title>gnuradio</title>
<g id="a_node47"><a xlink:href="https://github.com/conda-forge/gnuradio-feedstock" xlink:title="gnuradio">
<ellipse fill="#ff8c00" stroke="black" cx="602.59" cy="-862" rx="42.49" ry="18"/>
<text text-anchor="middle" x="602.59" y="-858.3" font-family="Times,serif" font-size="14.00">gnuradio</text>
</a>
</g>
</g>
<!-- gnuradio&#45;osmosdr -->
<g id="node48" class="node">
<title>gnuradio&#45;osmosdr</title>
<g id="a_node48"><a xlink:href="https://github.com/conda-forge/gnuradio-osmosdr-feedstock" xlink:title="gnuradio osmosdr">
<ellipse fill="#fde725" stroke="black" cx="480.59" cy="-790" rx="74.99" ry="18"/>
<text text-anchor="middle" x="480.59" y="-786.3" font-family="Times,serif" font-size="14.00">gnuradio osmosdr</text>
</a>
</g>
</g>
<!-- gnuradio&#45;&gt;gnuradio&#45;osmosdr -->
<g id="edge49" class="edge">
<title>gnuradio&#45;&gt;gnuradio&#45;osmosdr</title>
<path fill="none" stroke="black" d="M578.49,-847.17C560.91,-837.08 536.77,-823.23 516.86,-811.81"/>
<polygon fill="black" stroke="black" points="518.47,-808.7 508.05,-806.76 514.98,-814.77 518.47,-808.7"/>
</g>
<!-- gnuradio&#45;soapy -->
<g id="node49" class="node">
<title>gnuradio&#45;soapy</title>
<g id="a_node49"><a xlink:href="https://github.com/conda-forge/gnuradio-soapy-feedstock" xlink:title="gnuradio soapy">
<ellipse fill="#fde725" stroke="black" cx="621.59" cy="-718" rx="65" ry="18"/>
<text text-anchor="middle" x="621.59" y="-714.3" font-family="Times,serif" font-size="14.00">gnuradio soapy</text>
</a>
</g>
</g>
<!-- gnuradio&#45;&gt;gnuradio&#45;soapy -->
<g id="edge50" class="edge">
<title>gnuradio&#45;&gt;gnuradio&#45;soapy</title>
<path fill="none" stroke="black" d="M604.88,-843.87C608.12,-819.67 614.07,-775.21 617.93,-746.39"/>
<polygon fill="black" stroke="black" points="621.44,-746.57 619.29,-736.19 614.5,-745.64 621.44,-746.57"/>
</g>
<!-- gqrx -->
<g id="node50" class="node">
<title>gqrx</title>
<g id="a_node50"><a xlink:href="https://github.com/conda-forge/gqrx-feedstock" xlink:title="gqrx">
<ellipse fill="#fde725" stroke="black" cx="496.59" cy="-718" rx="27" ry="18"/>
<text text-anchor="middle" x="496.59" y="-714.3" font-family="Times,serif" font-size="14.00">gqrx</text>
</a>
</g>
</g>
<!-- gnuradio&#45;&gt;gqrx -->
<g id="edge51" class="edge">
<title>gnuradio&#45;&gt;gqrx</title>
<path fill="none" stroke="black" d="M598.11,-843.93C592.53,-824.96 581.61,-794.1 564.59,-772 553.73,-757.89 538.28,-745.45 524.86,-736.18"/>
<polygon fill="black" stroke="black" points="526.66,-733.17 516.39,-730.55 522.78,-739 526.66,-733.17"/>
</g>
<!-- gnuradio&#45;satellites -->
<g id="node51" class="node">
<title>gnuradio&#45;satellites</title>
<g id="a_node51"><a xlink:href="https://github.com/conda-forge/gnuradio-satellites-feedstock" xlink:title="gnuradio satellites">
<ellipse fill="#fde725" stroke="black" cx="714.59" cy="-646" rx="75.5" ry="18"/>
<text text-anchor="middle" x="714.59" y="-642.3" font-family="Times,serif" font-size="14.00">gnuradio satellites</text>
</a>
</g>
</g>
<!-- gnuradio&#45;&gt;gnuradio&#45;satellites -->
<g id="edge52" class="edge">
<title>gnuradio&#45;&gt;gnuradio&#45;satellites</title>
<path fill="none" stroke="black" d="M618.06,-845.1C638.95,-822.68 675.85,-779.62 695.59,-736 704.48,-716.36 709.29,-692.37 711.85,-674.25"/>
<polygon fill="black" stroke="black" points="715.35,-674.44 713.13,-664.08 708.41,-673.56 715.35,-674.44"/>
</g>
<!-- gnuradio&#45;osmosdr&#45;&gt;gqrx -->
<g id="edge53" class="edge">
<title>gnuradio&#45;osmosdr&#45;&gt;gqrx</title>
<path fill="none" stroke="black" d="M484.55,-771.7C486.31,-763.98 488.43,-754.71 490.4,-746.11"/>
<polygon fill="black" stroke="black" points="493.87,-746.63 492.68,-736.1 487.04,-745.07 493.87,-746.63"/>
</g>
<!-- odil -->
<g id="node52" class="node">
<title>odil</title>
<g id="a_node52"><a xlink:href="https://github.com/conda-forge/odil-feedstock/pull/8" xlink:title="odil ❎">
<ellipse fill="#31688e" stroke="black" cx="1049.59" cy="-278" rx="36.5" ry="18"/>
<text text-anchor="middle" x="1049.59" y="-274.3" font-family="Times,serif" font-size="14.00" fill="white">odil ❎</text>
</a>
</g>
</g>
<!-- dicomifier -->
<g id="node53" class="node">
<title>dicomifier</title>
<g id="a_node53"><a xlink:href="https://github.com/conda-forge/dicomifier-feedstock" xlink:title="dicomifier">
<ellipse fill="#fde725" stroke="black" cx="1049.59" cy="-206" rx="48.19" ry="18"/>
<text text-anchor="middle" x="1049.59" y="-202.3" font-family="Times,serif" font-size="14.00">dicomifier</text>
</a>
</g>
</g>
<!-- odil&#45;&gt;dicomifier -->
<g id="edge54" class="edge">
<title>odil&#45;&gt;dicomifier</title>
<path fill="none" stroke="black" d="M1049.59,-259.7C1049.59,-251.98 1049.59,-242.71 1049.59,-234.11"/>
<polygon fill="black" stroke="black" points="1053.09,-234.1 1049.59,-224.1 1046.09,-234.1 1053.09,-234.1"/>
</g>
<!-- cartographer -->
<g id="node55" class="node">
<title>cartographer</title>
<g id="a_node55"><a xlink:href="https://github.com/conda-forge/cartographer-feedstock/pull/4" xlink:title="cartographer ❎">
<ellipse fill="#31688e" stroke="black" cx="1049.59" cy="-1374" rx="67" ry="18"/>
<text text-anchor="middle" x="1049.59" y="-1370.3" font-family="Times,serif" font-size="14.00" fill="white">cartographer ❎</text>
</a>
</g>
</g>
<!-- triqs_dft_tools&#45;&gt;cartographer -->
<!-- ros&#45;cv&#45;bridge -->
<g id="node56" class="node">
<title>ros&#45;cv&#45;bridge</title>
<g id="a_node56"><a xlink:href="https://github.com/conda-forge/ros-cv-bridge-feedstock/pull/7" xlink:title="ros cv bridge ❎">
<ellipse fill="#31688e" stroke="black" cx="1049.59" cy="-1302" rx="69" ry="18"/>
<text text-anchor="middle" x="1049.59" y="-1298.3" font-family="Times,serif" font-size="14.00" fill="white">ros cv bridge ❎</text>
</a>
</g>
</g>
<!-- cartographer&#45;&gt;ros&#45;cv&#45;bridge -->
<!-- omniscidb -->
<g id="node57" class="node">
<title>omniscidb</title>
<g id="a_node57"><a xlink:href="https://github.com/conda-forge/omniscidb-feedstock/pull/15" xlink:title="omniscidb ❎">
<ellipse fill="#31688e" stroke="black" cx="1049.59" cy="-1230" rx="60" ry="18"/>
<text text-anchor="middle" x="1049.59" y="-1226.3" font-family="Times,serif" font-size="14.00" fill="white">omniscidb ❎</text>
</a>
</g>
</g>
<!-- ros&#45;cv&#45;bridge&#45;&gt;omniscidb -->
<!-- perspective -->
<g id="node58" class="node">
<title>perspective</title>
<g id="a_node58"><a xlink:href="https://github.com/conda-forge/perspective-feedstock/pull/10" xlink:title="perspective ❎">
<ellipse fill="#31688e" stroke="black" cx="1049.59" cy="-1158" rx="62.5" ry="18"/>
<text text-anchor="middle" x="1049.59" y="-1154.3" font-family="Times,serif" font-size="14.00" fill="white">perspective ❎</text>
</a>
</g>
</g>
<!-- omniscidb&#45;&gt;perspective -->
<!-- soapysdr&#45;module&#45;uhd -->
<g id="node59" class="node">
<title>soapysdr&#45;module&#45;uhd</title>
<g id="a_node59"><a xlink:href="https://github.com/conda-forge/soapysdr-module-uhd-feedstock" xlink:title="soapysdr module uhd">
<ellipse fill="#ff8c00" stroke="black" cx="597.59" cy="-278" rx="87.18" ry="18"/>
<text text-anchor="middle" x="597.59" y="-274.3" font-family="Times,serif" font-size="14.00">soapysdr module uhd</text>
</a>
</g>
</g>
<!-- libsmu -->
<g id="node60" class="node">
<title>libsmu</title>
<g id="a_node60"><a xlink:href="https://github.com/conda-forge/libsmu-feedstock/pull/1" xlink:title="libsmu ✓">
<ellipse fill="#31688e" stroke="black" cx="597.59" cy="-206" rx="45.5" ry="18"/>
<text text-anchor="middle" x="597.59" y="-202.3" font-family="Times,serif" font-size="14.00" fill="white">libsmu ✓</text>
</a>
</g>
</g>
<!-- soapysdr&#45;module&#45;uhd&#45;&gt;libsmu -->
</g>
</svg>
