<?xml version="1.0" encoding="UTF-8" standalone="no"?>
<!DOCTYPE svg PUBLIC "-//W3C//DTD SVG 1.1//EN"
 "http://www.w3.org/Graphics/SVG/1.1/DTD/svg11.dtd">
<!-- Generated by graphviz version 2.42.3 (20191010.1750)
 -->
<!-- Title: %3 Pages: 1 -->
<svg width="1522pt" height="1644pt"
 viewBox="0.00 0.00 1521.72 1644.00" xmlns="http://www.w3.org/2000/svg" xmlns:xlink="http://www.w3.org/1999/xlink">
<g id="graph0" class="graph" transform="scale(1 1) rotate(0) translate(4 1640)">
<title>%3</title>
<polygon fill="white" stroke="transparent" points="-4,4 -4,-1640 1517.72,-1640 1517.72,4 -4,4"/>
<!-- avrocpp -->
<g id="node1" class="node">
<title>avrocpp</title>
<g id="a_node1"><a xlink:href="https://github.com/conda-forge/avrocpp-feedstock/pull/14" xlink:title="avrocpp ❎">
<ellipse fill="#31688e" stroke="black" cx="383.22" cy="-854" rx="50.89" ry="18"/>
<text text-anchor="middle" x="383.22" y="-850.3" font-family="Times,serif" font-size="14.00" fill="white">avrocpp ❎</text>
</a>
</g>
</g>
<!-- caffe -->
<g id="node2" class="node">
<title>caffe</title>
<g id="a_node2"><a xlink:href="https://github.com/conda-forge/caffe-feedstock/pull/66" xlink:title="caffe ❎">
<ellipse fill="#31688e" stroke="black" cx="383.22" cy="-782" rx="40.5" ry="18"/>
<text text-anchor="middle" x="383.22" y="-778.3" font-family="Times,serif" font-size="14.00" fill="white">caffe ❎</text>
</a>
</g>
</g>
<!-- avrocpp&#45;&gt;caffe -->
<!-- cyclus -->
<g id="node3" class="node">
<title>cyclus</title>
<g id="a_node3"><a xlink:href="https://github.com/conda-forge/cyclus-feedstock/pull/57" xlink:title="cyclus ❎">
<ellipse fill="#31688e" stroke="black" cx="383.22" cy="-710" rx="45" ry="18"/>
<text text-anchor="middle" x="383.22" y="-706.3" font-family="Times,serif" font-size="14.00" fill="white">cyclus ❎</text>
</a>
</g>
</g>
<!-- caffe&#45;&gt;cyclus -->
<!-- libcmaes -->
<g id="node4" class="node">
<title>libcmaes</title>
<g id="a_node4"><a xlink:href="https://github.com/conda-forge/libcmaes-feedstock/pull/26" xlink:title="libcmaes ❎">
<ellipse fill="#31688e" stroke="black" cx="383.22" cy="-638" rx="54" ry="18"/>
<text text-anchor="middle" x="383.22" y="-634.3" font-family="Times,serif" font-size="14.00" fill="white">libcmaes ❎</text>
</a>
</g>
</g>
<!-- cyclus&#45;&gt;libcmaes -->
<!-- mshr -->
<g id="node5" class="node">
<title>mshr</title>
<g id="a_node5"><a xlink:href="https://github.com/conda-forge/mshr-feedstock/pull/20" xlink:title="mshr ✓">
<ellipse fill="#31688e" stroke="black" cx="383.22" cy="-566" rx="39" ry="18"/>
<text text-anchor="middle" x="383.22" y="-562.3" font-family="Times,serif" font-size="14.00" fill="white">mshr ✓</text>
</a>
</g>
</g>
<!-- libcmaes&#45;&gt;mshr -->
<!-- pyopcode -->
<g id="node6" class="node">
<title>pyopcode</title>
<g id="a_node6"><a xlink:href="https://github.com/conda-forge/pyopcode-feedstock/pull/21" xlink:title="pyopcode ❎">
<ellipse fill="#31688e" stroke="black" cx="383.22" cy="-494" rx="56.59" ry="18"/>
<text text-anchor="middle" x="383.22" y="-490.3" font-family="Times,serif" font-size="14.00" fill="white">pyopcode ❎</text>
</a>
</g>
</g>
<!-- mshr&#45;&gt;pyopcode -->
<!-- pyranha -->
<g id="node7" class="node">
<title>pyranha</title>
<g id="a_node7"><a xlink:href="https://github.com/conda-forge/pyranha-feedstock/pull/17" xlink:title="pyranha ❎">
<ellipse fill="#31688e" stroke="black" cx="383.22" cy="-422" rx="50.89" ry="18"/>
<text text-anchor="middle" x="383.22" y="-418.3" font-family="Times,serif" font-size="14.00" fill="white">pyranha ❎</text>
</a>
</g>
</g>
<!-- pyopcode&#45;&gt;pyranha -->
<!-- pytrilinos -->
<g id="node8" class="node">
<title>pytrilinos</title>
<g id="a_node8"><a xlink:href="https://github.com/conda-forge/pytrilinos-feedstock/pull/30" xlink:title="pytrilinos ❎">
<ellipse fill="#31688e" stroke="black" cx="383.22" cy="-350" rx="56" ry="18"/>
<text text-anchor="middle" x="383.22" y="-346.3" font-family="Times,serif" font-size="14.00" fill="white">pytrilinos ❎</text>
</a>
</g>
</g>
<!-- pyranha&#45;&gt;pytrilinos -->
<!-- rsgislib -->
<g id="node9" class="node">
<title>rsgislib</title>
<g id="a_node9"><a xlink:href="https://github.com/conda-forge/rsgislib-feedstock/pull/36" xlink:title="rsgislib ❎">
<ellipse fill="#31688e" stroke="black" cx="383.22" cy="-278" rx="48.19" ry="18"/>
<text text-anchor="middle" x="383.22" y="-274.3" font-family="Times,serif" font-size="14.00" fill="white">rsgislib ❎</text>
</a>
</g>
</g>
<!-- pytrilinos&#45;&gt;rsgislib -->
<!-- sagelib -->
<g id="node10" class="node">
<title>sagelib</title>
<g id="a_node10"><a xlink:href="https://github.com/conda-forge/sagelib-feedstock/pull/108" xlink:title="sagelib ✓">
<ellipse fill="#31688e" stroke="black" cx="383.22" cy="-206" rx="46.29" ry="18"/>
<text text-anchor="middle" x="383.22" y="-202.3" font-family="Times,serif" font-size="14.00" fill="white">sagelib ✓</text>
</a>
</g>
</g>
<!-- rsgislib&#45;&gt;sagelib -->
<!-- clfft -->
<g id="node11" class="node">
<title>clfft</title>
<g id="a_node11"><a xlink:href="https://github.com/conda-forge/clfft-feedstock/pull/11" xlink:title="clfft ❎">
<ellipse fill="#31688e" stroke="black" cx="383.22" cy="-134" rx="37.09" ry="18"/>
<text text-anchor="middle" x="383.22" y="-130.3" font-family="Times,serif" font-size="14.00" fill="white">clfft ❎</text>
</a>
</g>
</g>
<!-- sagelib&#45;&gt;clfft -->
<!-- clsparse -->
<g id="node12" class="node">
<title>clsparse</title>
<g id="a_node12"><a xlink:href="https://github.com/conda-forge/clsparse-feedstock/pull/8" xlink:title="clsparse ❎">
<ellipse fill="#31688e" stroke="black" cx="851.22" cy="-1618" rx="50.89" ry="18"/>
<text text-anchor="middle" x="851.22" y="-1614.3" font-family="Times,serif" font-size="14.00" fill="white">clsparse ❎</text>
</a>
</g>
</g>
<!-- spdlib -->
<g id="node13" class="node">
<title>spdlib</title>
<g id="a_node13"><a xlink:href="https://github.com/conda-forge/spdlib-feedstock/pull/18" xlink:title="spdlib ❎">
<ellipse fill="#31688e" stroke="black" cx="851.22" cy="-1546" rx="44.39" ry="18"/>
<text text-anchor="middle" x="851.22" y="-1542.3" font-family="Times,serif" font-size="14.00" fill="white">spdlib ❎</text>
</a>
</g>
</g>
<!-- clsparse&#45;&gt;spdlib -->
<!-- fmipp -->
<g id="node14" class="node">
<title>fmipp</title>
<g id="a_node14"><a xlink:href="https://github.com/conda-forge/fmipp-feedstock/pull/16" xlink:title="fmipp ❎">
<ellipse fill="#31688e" stroke="black" cx="851.22" cy="-1474" rx="44.39" ry="18"/>
<text text-anchor="middle" x="851.22" y="-1470.3" font-family="Times,serif" font-size="14.00" fill="white">fmipp ❎</text>
</a>
</g>
</g>
<!-- spdlib&#45;&gt;fmipp -->
<!-- multineat -->
<g id="node17" class="node">
<title>multineat</title>
<g id="a_node17"><a xlink:href="https://github.com/conda-forge/multineat-feedstock/pull/5" xlink:title="multineat ❎">
<ellipse fill="#31688e" stroke="black" cx="851.22" cy="-1402" rx="56" ry="18"/>
<text text-anchor="middle" x="851.22" y="-1398.3" font-family="Times,serif" font-size="14.00" fill="white">multineat ❎</text>
</a>
</g>
</g>
<!-- fmipp&#45;&gt;multineat -->
<!-- smesh -->
<g id="node15" class="node">
<title>smesh</title>
<g id="a_node15"><a xlink:href="https://github.com/conda-forge/smesh-feedstock/pull/36" xlink:title="smesh ❎">
<ellipse fill="#31688e" stroke="black" cx="383.22" cy="-90" rx="45" ry="18"/>
<text text-anchor="middle" x="383.22" y="-86.3" font-family="Times,serif" font-size="14.00" fill="white">smesh ❎</text>
</a>
</g>
</g>
<!-- freecad -->
<g id="node16" class="node">
<title>freecad</title>
<g id="a_node16"><a xlink:href="https://github.com/conda-forge/freecad-feedstock" xlink:title="freecad">
<ellipse fill="#fde725" stroke="black" cx="383.22" cy="-18" rx="36.5" ry="18"/>
<text text-anchor="middle" x="383.22" y="-14.3" font-family="Times,serif" font-size="14.00">freecad</text>
</a>
</g>
</g>
<!-- smesh&#45;&gt;freecad -->
<g id="edge13" class="edge">
<title>smesh&#45;&gt;freecad</title>
<path fill="none" stroke="black" d="M383.22,-71.7C383.22,-63.98 383.22,-54.71 383.22,-46.11"/>
<polygon fill="black" stroke="black" points="386.72,-46.1 383.22,-36.1 379.72,-46.1 386.72,-46.1"/>
</g>
<!-- helics -->
<g id="node18" class="node">
<title>helics</title>
<g id="a_node18"><a xlink:href="https://github.com/conda-forge/helics-feedstock/pull/21" xlink:title="helics ❎">
<ellipse fill="#31688e" stroke="black" cx="851.22" cy="-1330" rx="43" ry="18"/>
<text text-anchor="middle" x="851.22" y="-1326.3" font-family="Times,serif" font-size="14.00" fill="white">helics ❎</text>
</a>
</g>
</g>
<!-- multineat&#45;&gt;helics -->
<!-- z5py -->
<g id="node19" class="node">
<title>z5py</title>
<g id="a_node19"><a xlink:href="https://github.com/conda-forge/z5py-feedstock/pull/33" xlink:title="z5py ❎">
<ellipse fill="#31688e" stroke="black" cx="851.22" cy="-1258" rx="39.79" ry="18"/>
<text text-anchor="middle" x="851.22" y="-1254.3" font-family="Times,serif" font-size="14.00" fill="white">z5py ❎</text>
</a>
</g>
</g>
<!-- helics&#45;&gt;z5py -->
<!-- gudhi -->
<g id="node20" class="node">
<title>gudhi</title>
<g id="a_node20"><a xlink:href="https://github.com/conda-forge/gudhi-feedstock/pull/22" xlink:title="gudhi ❎">
<ellipse fill="#31688e" stroke="black" cx="851.22" cy="-1186" rx="42.49" ry="18"/>
<text text-anchor="middle" x="851.22" y="-1182.3" font-family="Times,serif" font-size="14.00" fill="white">gudhi ❎</text>
</a>
</g>
</g>
<!-- z5py&#45;&gt;gudhi -->
<!-- dealii -->
<g id="node21" class="node">
<title>dealii</title>
<g id="a_node21"><a xlink:href="https://github.com/conda-forge/dealii-feedstock/pull/10" xlink:title="dealii ❎">
<ellipse fill="#31688e" stroke="black" cx="851.22" cy="-1114" rx="42.49" ry="18"/>
<text text-anchor="middle" x="851.22" y="-1110.3" font-family="Times,serif" font-size="14.00" fill="white">dealii ❎</text>
</a>
</g>
</g>
<!-- gudhi&#45;&gt;dealii -->
<!-- esys&#45;escript -->
<g id="node24" class="node">
<title>esys&#45;escript</title>
<g id="a_node24"><a xlink:href="https://github.com/conda-forge/esys-escript-feedstock/pull/21" xlink:title="esys escript ❎">
<ellipse fill="#31688e" stroke="black" cx="851.22" cy="-1042" rx="63.89" ry="18"/>
<text text-anchor="middle" x="851.22" y="-1038.3" font-family="Times,serif" font-size="14.00" fill="white">esys escript ❎</text>
</a>
</g>
</g>
<!-- dealii&#45;&gt;esys&#45;escript -->
<!-- ldas&#45;tools&#45;ldasgen -->
<g id="node22" class="node">
<title>ldas&#45;tools&#45;ldasgen</title>
<g id="a_node22"><a xlink:href="https://github.com/conda-forge/ldas-tools-ldasgen-feedstock/pull/9" xlink:title="ldas tools ldasgen ✓">
<ellipse fill="#31688e" stroke="black" cx="1225.22" cy="-530" rx="84" ry="18"/>
<text text-anchor="middle" x="1225.22" y="-526.3" font-family="Times,serif" font-size="14.00" fill="white">ldas tools ldasgen ✓</text>
</a>
</g>
</g>
<!-- ldas&#45;tools&#45;diskcacheapi -->
<g id="node23" class="node">
<title>ldas&#45;tools&#45;diskcacheapi</title>
<g id="a_node23"><a xlink:href="https://github.com/conda-forge/ldas-tools-diskcacheapi-feedstock" xlink:title="ldas tools diskcacheapi">
<ellipse fill="#fde725" stroke="black" cx="1225.22" cy="-458" rx="92.5" ry="18"/>
<text text-anchor="middle" x="1225.22" y="-454.3" font-family="Times,serif" font-size="14.00">ldas tools diskcacheapi</text>
</a>
</g>
</g>
<!-- ldas&#45;tools&#45;ldasgen&#45;&gt;ldas&#45;tools&#45;diskcacheapi -->
<g id="edge19" class="edge">
<title>ldas&#45;tools&#45;ldasgen&#45;&gt;ldas&#45;tools&#45;diskcacheapi</title>
<path fill="none" stroke="black" d="M1225.22,-511.7C1225.22,-503.98 1225.22,-494.71 1225.22,-486.11"/>
<polygon fill="black" stroke="black" points="1228.72,-486.1 1225.22,-476.1 1221.72,-486.1 1228.72,-486.1"/>
</g>
<!-- topologytoolkit -->
<g id="node25" class="node">
<title>topologytoolkit</title>
<g id="a_node25"><a xlink:href="https://github.com/conda-forge/topologytoolkit-feedstock/pull/7" xlink:title="topologytoolkit ❎">
<ellipse fill="#31688e" stroke="black" cx="851.22" cy="-970" rx="76.89" ry="18"/>
<text text-anchor="middle" x="851.22" y="-966.3" font-family="Times,serif" font-size="14.00" fill="white">topologytoolkit ❎</text>
</a>
</g>
</g>
<!-- esys&#45;escript&#45;&gt;topologytoolkit -->
<!-- ledger -->
<g id="node26" class="node">
<title>ledger</title>
<g id="a_node26"><a xlink:href="https://github.com/conda-forge/ledger-feedstock/pull/8" xlink:title="ledger ✓">
<ellipse fill="#31688e" stroke="black" cx="851.22" cy="-898" rx="43" ry="18"/>
<text text-anchor="middle" x="851.22" y="-894.3" font-family="Times,serif" font-size="14.00" fill="white">ledger ✓</text>
</a>
</g>
</g>
<!-- topologytoolkit&#45;&gt;ledger -->
<!-- ros&#45;roscpp -->
<g id="node27" class="node">
<title>ros&#45;roscpp</title>
<g id="a_node27"><a xlink:href="https://github.com/conda-forge/ros-roscpp-feedstock/pull/10" xlink:title="ros roscpp ❎">
<ellipse fill="#31688e" stroke="black" cx="1208.22" cy="-1402" rx="59.29" ry="18"/>
<text text-anchor="middle" x="1208.22" y="-1398.3" font-family="Times,serif" font-size="14.00" fill="white">ros roscpp ❎</text>
</a>
</g>
</g>
<!-- ros&#45;rostest -->
<g id="node28" class="node">
<title>ros&#45;rostest</title>
<g id="a_node28"><a xlink:href="https://github.com/conda-forge/ros-rostest-feedstock" xlink:title="ros rostest">
<ellipse fill="#fde725" stroke="black" cx="1208.22" cy="-1330" rx="47" ry="18"/>
<text text-anchor="middle" x="1208.22" y="-1326.3" font-family="Times,serif" font-size="14.00">ros rostest</text>
</a>
</g>
</g>
<!-- ros&#45;roscpp&#45;&gt;ros&#45;rostest -->
<g id="edge23" class="edge">
<title>ros&#45;roscpp&#45;&gt;ros&#45;rostest</title>
<path fill="none" stroke="black" d="M1208.22,-1383.7C1208.22,-1375.98 1208.22,-1366.71 1208.22,-1358.11"/>
<polygon fill="black" stroke="black" points="1211.72,-1358.1 1208.22,-1348.1 1204.72,-1358.1 1211.72,-1358.1"/>
</g>
<!-- ros&#45;message&#45;filters -->
<g id="node29" class="node">
<title>ros&#45;message&#45;filters</title>
<g id="a_node29"><a xlink:href="https://github.com/conda-forge/ros-message-filters-feedstock" xlink:title="ros message filters">
<ellipse fill="#fde725" stroke="black" cx="1064.22" cy="-1258" rx="77.5" ry="18"/>
<text text-anchor="middle" x="1064.22" y="-1254.3" font-family="Times,serif" font-size="14.00">ros message filters</text>
</a>
</g>
</g>
<!-- ros&#45;roscpp&#45;&gt;ros&#45;message&#45;filters -->
<g id="edge24" class="edge">
<title>ros&#45;roscpp&#45;&gt;ros&#45;message&#45;filters</title>
<path fill="none" stroke="black" d="M1190.67,-1384.67C1179.56,-1374.27 1164.94,-1360.45 1152.22,-1348 1130.07,-1326.33 1105.28,-1301.18 1087.68,-1283.15"/>
<polygon fill="black" stroke="black" points="1090.09,-1280.61 1080.6,-1275.9 1085.07,-1285.5 1090.09,-1280.61"/>
</g>
<!-- ros&#45;rosbag -->
<g id="node30" class="node">
<title>ros&#45;rosbag</title>
<g id="a_node30"><a xlink:href="https://github.com/conda-forge/ros-rosbag-feedstock" xlink:title="ros rosbag">
<ellipse fill="#fde725" stroke="black" cx="1312.22" cy="-1186" rx="47.5" ry="18"/>
<text text-anchor="middle" x="1312.22" y="-1182.3" font-family="Times,serif" font-size="14.00">ros rosbag</text>
</a>
</g>
</g>
<!-- ros&#45;roscpp&#45;&gt;ros&#45;rosbag -->
<g id="edge25" class="edge">
<title>ros&#45;roscpp&#45;&gt;ros&#45;rosbag</title>
<path fill="none" stroke="black" d="M1246.75,-1388.25C1292.17,-1370.91 1365.46,-1335.08 1397.22,-1276 1404.79,-1261.91 1404.98,-1253.99 1397.22,-1240 1388.12,-1223.6 1371.6,-1211.61 1355.53,-1203.23"/>
<polygon fill="black" stroke="black" points="1356.71,-1199.91 1346.18,-1198.71 1353.66,-1206.21 1356.71,-1199.91"/>
</g>
<!-- ros&#45;actionlib -->
<g id="node31" class="node">
<title>ros&#45;actionlib</title>
<g id="a_node31"><a xlink:href="https://github.com/conda-forge/ros-actionlib-feedstock" xlink:title="ros actionlib">
<ellipse fill="#fde725" stroke="black" cx="1170.22" cy="-1114" rx="54.69" ry="18"/>
<text text-anchor="middle" x="1170.22" y="-1110.3" font-family="Times,serif" font-size="14.00">ros actionlib</text>
</a>
</g>
</g>
<!-- ros&#45;roscpp&#45;&gt;ros&#45;actionlib -->
<g id="edge26" class="edge">
<title>ros&#45;roscpp&#45;&gt;ros&#45;actionlib</title>
<path fill="none" stroke="black" d="M1161.45,-1390.83C1106.27,-1376.06 1017.02,-1342.79 977.22,-1276 936.36,-1207.44 1052.4,-1154.67 1122,-1130.12"/>
<polygon fill="black" stroke="black" points="1123.18,-1133.41 1131.49,-1126.84 1120.9,-1126.79 1123.18,-1133.41"/>
</g>
<!-- ros&#45;dynamic&#45;reconfigure -->
<g id="node32" class="node">
<title>ros&#45;dynamic&#45;reconfigure</title>
<g id="a_node32"><a xlink:href="https://github.com/conda-forge/ros-dynamic-reconfigure-feedstock" xlink:title="ros dynamic reconfigure">
<ellipse fill="#fde725" stroke="black" cx="1416.22" cy="-1114" rx="97.5" ry="18"/>
<text text-anchor="middle" x="1416.22" y="-1110.3" font-family="Times,serif" font-size="14.00">ros dynamic reconfigure</text>
</a>
</g>
</g>
<!-- ros&#45;roscpp&#45;&gt;ros&#45;dynamic&#45;reconfigure -->
<g id="edge27" class="edge">
<title>ros&#45;roscpp&#45;&gt;ros&#45;dynamic&#45;reconfigure</title>
<path fill="none" stroke="black" d="M1258.47,-1392.26C1290.84,-1384.71 1332.46,-1371.22 1363.22,-1348 1420.65,-1304.65 1425.69,-1275.03 1437.22,-1204 1439.78,-1188.21 1440.22,-1183.72 1437.22,-1168 1435.51,-1159.06 1432.32,-1149.7 1428.93,-1141.37"/>
<polygon fill="black" stroke="black" points="1432.13,-1139.95 1424.94,-1132.17 1425.7,-1142.73 1432.13,-1139.95"/>
</g>
<!-- ros&#45;rostest&#45;&gt;ros&#45;message&#45;filters -->
<g id="edge28" class="edge">
<title>ros&#45;rostest&#45;&gt;ros&#45;message&#45;filters</title>
<path fill="none" stroke="black" d="M1180.11,-1315.34C1158.8,-1304.98 1129.18,-1290.58 1105.22,-1278.93"/>
<polygon fill="black" stroke="black" points="1106.54,-1275.68 1096.01,-1274.46 1103.48,-1281.98 1106.54,-1275.68"/>
</g>
<!-- ros&#45;rostest&#45;&gt;ros&#45;rosbag -->
<g id="edge29" class="edge">
<title>ros&#45;rostest&#45;&gt;ros&#45;rosbag</title>
<path fill="none" stroke="black" d="M1208.03,-1311.7C1208.64,-1292.52 1212.15,-1261.47 1227.22,-1240 1238.07,-1224.53 1255.03,-1212.64 1270.95,-1204.08"/>
<polygon fill="black" stroke="black" points="1272.81,-1207.07 1280.15,-1199.43 1269.65,-1200.82 1272.81,-1207.07"/>
</g>
<!-- ros&#45;rostest&#45;&gt;ros&#45;actionlib -->
<g id="edge30" class="edge">
<title>ros&#45;rostest&#45;&gt;ros&#45;actionlib</title>
<path fill="none" stroke="black" d="M1205.17,-1311.85C1198.59,-1274.75 1182.97,-1186.81 1175.03,-1142.1"/>
<polygon fill="black" stroke="black" points="1178.47,-1141.47 1173.28,-1132.23 1171.58,-1142.69 1178.47,-1141.47"/>
</g>
<!-- ros&#45;rostest&#45;&gt;ros&#45;dynamic&#45;reconfigure -->
<g id="edge31" class="edge">
<title>ros&#45;rostest&#45;&gt;ros&#45;dynamic&#45;reconfigure</title>
<path fill="none" stroke="black" d="M1251.5,-1322.53C1301.23,-1314.16 1378.39,-1298.02 1397.22,-1276 1429.04,-1238.78 1426.38,-1177.78 1421.42,-1142.52"/>
<polygon fill="black" stroke="black" points="1424.84,-1141.79 1419.83,-1132.46 1417.93,-1142.88 1424.84,-1141.79"/>
</g>
<!-- ros&#45;rosbag&#45;storage -->
<g id="node33" class="node">
<title>ros&#45;rosbag&#45;storage</title>
<g id="a_node33"><a xlink:href="https://github.com/conda-forge/ros-rosbag-storage-feedstock" xlink:title="ros rosbag storage">
<ellipse fill="#fde725" stroke="black" cx="1312.22" cy="-1258" rx="75.5" ry="18"/>
<text text-anchor="middle" x="1312.22" y="-1254.3" font-family="Times,serif" font-size="14.00">ros rosbag storage</text>
</a>
</g>
</g>
<!-- ros&#45;rostest&#45;&gt;ros&#45;rosbag&#45;storage -->
<g id="edge32" class="edge">
<title>ros&#45;rostest&#45;&gt;ros&#45;rosbag&#45;storage</title>
<path fill="none" stroke="black" d="M1230.53,-1313.98C1244.83,-1304.36 1263.64,-1291.7 1279.6,-1280.95"/>
<polygon fill="black" stroke="black" points="1281.79,-1283.7 1288.13,-1275.21 1277.88,-1277.89 1281.79,-1283.7"/>
</g>
<!-- ros&#45;rosbag&#45;&gt;ros&#45;actionlib -->
<g id="edge33" class="edge">
<title>ros&#45;rosbag&#45;&gt;ros&#45;actionlib</title>
<path fill="none" stroke="black" d="M1284.5,-1171.34C1262.84,-1160.66 1232.49,-1145.7 1208.51,-1133.87"/>
<polygon fill="black" stroke="black" points="1209.85,-1130.63 1199.33,-1129.35 1206.75,-1136.91 1209.85,-1130.63"/>
</g>
<!-- ros&#45;rosbag&#45;&gt;ros&#45;dynamic&#45;reconfigure -->
<g id="edge34" class="edge">
<title>ros&#45;rosbag&#45;&gt;ros&#45;dynamic&#45;reconfigure</title>
<path fill="none" stroke="black" d="M1334.53,-1169.98C1348.73,-1160.42 1367.37,-1147.88 1383.26,-1137.18"/>
<polygon fill="black" stroke="black" points="1385.42,-1139.95 1391.76,-1131.46 1381.51,-1134.14 1385.42,-1139.95"/>
</g>
<!-- ros&#45;rosbag&#45;storage&#45;&gt;ros&#45;rosbag -->
<g id="edge35" class="edge">
<title>ros&#45;rosbag&#45;storage&#45;&gt;ros&#45;rosbag</title>
<path fill="none" stroke="black" d="M1312.22,-1239.7C1312.22,-1231.98 1312.22,-1222.71 1312.22,-1214.11"/>
<polygon fill="black" stroke="black" points="1315.72,-1214.1 1312.22,-1204.1 1308.72,-1214.1 1315.72,-1214.1"/>
</g>
<!-- htcondor -->
<g id="node34" class="node">
<title>htcondor</title>
<g id="a_node34"><a xlink:href="https://github.com/conda-forge/htcondor-feedstock/pull/18" xlink:title="htcondor ❎">
<ellipse fill="#31688e" stroke="black" cx="851.22" cy="-674" rx="54" ry="18"/>
<text text-anchor="middle" x="851.22" y="-670.3" font-family="Times,serif" font-size="14.00" fill="white">htcondor ❎</text>
</a>
</g>
</g>
<!-- dcgp&#45;python -->
<g id="node35" class="node">
<title>dcgp&#45;python</title>
<g id="a_node35"><a xlink:href="https://github.com/conda-forge/dcgp-python-feedstock/pull/14" xlink:title="dcgp python ❎">
<ellipse fill="#31688e" stroke="black" cx="851.22" cy="-602" rx="66.5" ry="18"/>
<text text-anchor="middle" x="851.22" y="-598.3" font-family="Times,serif" font-size="14.00" fill="white">dcgp python ❎</text>
</a>
</g>
</g>
<!-- htcondor&#45;&gt;dcgp&#45;python -->
<!-- ros&#45;cv&#45;bridge -->
<g id="node36" class="node">
<title>ros&#45;cv&#45;bridge</title>
<g id="a_node36"><a xlink:href="https://github.com/conda-forge/ros-cv-bridge-feedstock/pull/7" xlink:title="ros cv bridge ❎">
<ellipse fill="#31688e" stroke="black" cx="851.22" cy="-530" rx="69" ry="18"/>
<text text-anchor="middle" x="851.22" y="-526.3" font-family="Times,serif" font-size="14.00" fill="white">ros cv bridge ❎</text>
</a>
</g>
</g>
<!-- dcgp&#45;python&#45;&gt;ros&#45;cv&#45;bridge -->
<!-- libsmu -->
<g id="node37" class="node">
<title>libsmu</title>
<g id="a_node37"><a xlink:href="https://github.com/conda-forge/libsmu-feedstock/pull/4" xlink:title="libsmu ✓">
<ellipse fill="#31688e" stroke="black" cx="851.22" cy="-458" rx="45.5" ry="18"/>
<text text-anchor="middle" x="851.22" y="-454.3" font-family="Times,serif" font-size="14.00" fill="white">libsmu ✓</text>
</a>
</g>
</g>
<!-- ros&#45;cv&#45;bridge&#45;&gt;libsmu -->
<!-- warpx -->
<g id="node38" class="node">
<title>warpx</title>
<g id="a_node38"><a xlink:href="https://github.com/conda-forge/warpx-feedstock/pull/4" xlink:title="warpx ✓">
<ellipse fill="#31688e" stroke="black" cx="851.22" cy="-386" rx="43" ry="18"/>
<text text-anchor="middle" x="851.22" y="-382.3" font-family="Times,serif" font-size="14.00" fill="white">warpx ✓</text>
</a>
</g>
</g>
<!-- libsmu&#45;&gt;warpx -->
<!-- crocoddyl -->
<g id="node50" class="node">
<title>crocoddyl</title>
<g id="a_node50"><a xlink:href="https://github.com/conda-forge/crocoddyl-feedstock/pull/2" xlink:title="crocoddyl ❎">
<ellipse fill="#31688e" stroke="black" cx="851.22" cy="-314" rx="58" ry="18"/>
<text text-anchor="middle" x="851.22" y="-310.3" font-family="Times,serif" font-size="14.00" fill="white">crocoddyl ❎</text>
</a>
</g>
</g>
<!-- warpx&#45;&gt;crocoddyl -->
<!-- hpp&#45;corbaserver -->
<g id="node39" class="node">
<title>hpp&#45;corbaserver</title>
<g id="a_node39"><a xlink:href="https://github.com/conda-forge/hpp-corbaserver-feedstock" xlink:title="hpp corbaserver">
<ellipse fill="#fde725" stroke="black" cx="125.22" cy="-1222" rx="67.69" ry="18"/>
<text text-anchor="middle" x="125.22" y="-1218.3" font-family="Times,serif" font-size="14.00">hpp corbaserver</text>
</a>
</g>
</g>
<!-- hpp&#45;gui -->
<g id="node40" class="node">
<title>hpp&#45;gui</title>
<g id="a_node40"><a xlink:href="https://github.com/conda-forge/hpp-gui-feedstock" xlink:title="hpp gui">
<ellipse fill="#fde725" stroke="black" cx="264.22" cy="-1006" rx="37.89" ry="18"/>
<text text-anchor="middle" x="264.22" y="-1002.3" font-family="Times,serif" font-size="14.00">hpp gui</text>
</a>
</g>
</g>
<!-- hpp&#45;corbaserver&#45;&gt;hpp&#45;gui -->
<g id="edge40" class="edge">
<title>hpp&#45;corbaserver&#45;&gt;hpp&#45;gui</title>
<path fill="none" stroke="black" d="M124.4,-1204C123.76,-1172.31 126.69,-1103.49 160.22,-1060 175.56,-1040.1 200.44,-1027.04 222.02,-1018.87"/>
<polygon fill="black" stroke="black" points="223.41,-1022.09 231.66,-1015.45 221.06,-1015.49 223.41,-1022.09"/>
</g>
<!-- hpp&#45;manipulation&#45;corba -->
<g id="node41" class="node">
<title>hpp&#45;manipulation&#45;corba</title>
<g id="a_node41"><a xlink:href="https://github.com/conda-forge/hpp-manipulation-corba-feedstock" xlink:title="hpp manipulation corba">
<ellipse fill="#fde725" stroke="black" cx="264.22" cy="-1078" rx="95" ry="18"/>
<text text-anchor="middle" x="264.22" y="-1074.3" font-family="Times,serif" font-size="14.00">hpp manipulation corba</text>
</a>
</g>
</g>
<!-- hpp&#45;corbaserver&#45;&gt;hpp&#45;manipulation&#45;corba -->
<g id="edge41" class="edge">
<title>hpp&#45;corbaserver&#45;&gt;hpp&#45;manipulation&#45;corba</title>
<path fill="none" stroke="black" d="M139.96,-1204.24C156.09,-1186.08 182.91,-1156.42 207.22,-1132 217,-1122.18 228.09,-1111.72 237.88,-1102.71"/>
<polygon fill="black" stroke="black" points="240.38,-1105.16 245.39,-1095.83 235.65,-1100 240.38,-1105.16"/>
</g>
<!-- hpp&#45;manipulation&#45;corba&#45;&gt;hpp&#45;gui -->
<g id="edge42" class="edge">
<title>hpp&#45;manipulation&#45;corba&#45;&gt;hpp&#45;gui</title>
<path fill="none" stroke="black" d="M264.22,-1059.7C264.22,-1051.98 264.22,-1042.71 264.22,-1034.11"/>
<polygon fill="black" stroke="black" points="267.72,-1034.1 264.22,-1024.1 260.72,-1034.1 267.72,-1034.1"/>
</g>
<!-- hpp&#45;core -->
<g id="node42" class="node">
<title>hpp&#45;core</title>
<g id="a_node42"><a xlink:href="https://github.com/conda-forge/hpp-core-feedstock" xlink:title="hpp core">
<ellipse fill="#fde725" stroke="black" cx="491.22" cy="-1294" rx="41.69" ry="18"/>
<text text-anchor="middle" x="491.22" y="-1290.3" font-family="Times,serif" font-size="14.00">hpp core</text>
</a>
</g>
</g>
<!-- hpp&#45;core&#45;&gt;hpp&#45;corbaserver -->
<g id="edge43" class="edge">
<title>hpp&#45;core&#45;&gt;hpp&#45;corbaserver</title>
<path fill="none" stroke="black" d="M459.13,-1282.5C451.35,-1280.17 443.03,-1277.85 435.22,-1276 353.3,-1256.64 257.62,-1241.38 194.46,-1232.3"/>
<polygon fill="black" stroke="black" points="194.62,-1228.79 184.23,-1230.84 193.63,-1235.72 194.62,-1228.79"/>
</g>
<!-- hpp&#45;core&#45;&gt;hpp&#45;gui -->
<g id="edge44" class="edge">
<title>hpp&#45;core&#45;&gt;hpp&#45;gui</title>
<path fill="none" stroke="black" d="M506.49,-1276.78C514.66,-1266.95 523.91,-1253.7 528.22,-1240 535.2,-1217.8 524.37,-1136.53 521.22,-1132 471.42,-1060.37 368.79,-1028.17 309.4,-1015.02"/>
<polygon fill="black" stroke="black" points="310.05,-1011.59 299.54,-1012.93 308.59,-1018.43 310.05,-1011.59"/>
</g>
<!-- hpp&#45;core&#45;&gt;hpp&#45;manipulation&#45;corba -->
<g id="edge45" class="edge">
<title>hpp&#45;core&#45;&gt;hpp&#45;manipulation&#45;corba</title>
<path fill="none" stroke="black" d="M498.56,-1276.08C511.26,-1243.92 532.79,-1173.48 498.22,-1132 479.91,-1110.04 413.97,-1096.39 356.73,-1088.46"/>
<polygon fill="black" stroke="black" points="356.91,-1084.95 346.53,-1087.09 355.97,-1091.89 356.91,-1084.95"/>
</g>
<!-- hpp&#45;manipulation&#45;urdf -->
<g id="node43" class="node">
<title>hpp&#45;manipulation&#45;urdf</title>
<g id="a_node43"><a xlink:href="https://github.com/conda-forge/hpp-manipulation-urdf-feedstock" xlink:title="hpp manipulation urdf">
<ellipse fill="#fde725" stroke="black" cx="399.22" cy="-1150" rx="90.5" ry="18"/>
<text text-anchor="middle" x="399.22" y="-1146.3" font-family="Times,serif" font-size="14.00">hpp manipulation urdf</text>
</a>
</g>
</g>
<!-- hpp&#45;core&#45;&gt;hpp&#45;manipulation&#45;urdf -->
<g id="edge46" class="edge">
<title>hpp&#45;core&#45;&gt;hpp&#45;manipulation&#45;urdf</title>
<path fill="none" stroke="black" d="M493.42,-1275.87C494.98,-1256.85 494.81,-1225.94 481.22,-1204 472.8,-1190.4 459.45,-1179.63 445.95,-1171.45"/>
<polygon fill="black" stroke="black" points="447.53,-1168.32 437.1,-1166.44 444.08,-1174.41 447.53,-1168.32"/>
</g>
<!-- hpp&#45;manipulation -->
<g id="node44" class="node">
<title>hpp&#45;manipulation</title>
<g id="a_node44"><a xlink:href="https://github.com/conda-forge/hpp-manipulation-feedstock" xlink:title="hpp manipulation">
<ellipse fill="#fde725" stroke="black" cx="399.22" cy="-1222" rx="73.5" ry="18"/>
<text text-anchor="middle" x="399.22" y="-1218.3" font-family="Times,serif" font-size="14.00">hpp manipulation</text>
</a>
</g>
</g>
<!-- hpp&#45;core&#45;&gt;hpp&#45;manipulation -->
<g id="edge47" class="edge">
<title>hpp&#45;core&#45;&gt;hpp&#45;manipulation</title>
<path fill="none" stroke="black" d="M471.26,-1277.81C458.91,-1268.42 442.84,-1256.19 429.01,-1245.67"/>
<polygon fill="black" stroke="black" points="430.82,-1242.65 420.75,-1239.38 426.59,-1248.22 430.82,-1242.65"/>
</g>
<!-- hpp&#45;manipulation&#45;urdf&#45;&gt;hpp&#45;manipulation&#45;corba -->
<g id="edge48" class="edge">
<title>hpp&#45;manipulation&#45;urdf&#45;&gt;hpp&#45;manipulation&#45;corba</title>
<path fill="none" stroke="black" d="M368.25,-1132.94C349.34,-1123.14 324.97,-1110.5 304.57,-1099.92"/>
<polygon fill="black" stroke="black" points="306,-1096.72 295.51,-1095.23 302.78,-1102.94 306,-1096.72"/>
</g>
<!-- hpp&#45;manipulation&#45;&gt;hpp&#45;manipulation&#45;corba -->
<g id="edge49" class="edge">
<title>hpp&#45;manipulation&#45;&gt;hpp&#45;manipulation&#45;corba</title>
<path fill="none" stroke="black" d="M357.84,-1206.91C337.88,-1198.33 314.93,-1185.58 299.22,-1168 283.63,-1150.55 274.6,-1125.35 269.63,-1106.21"/>
<polygon fill="black" stroke="black" points="272.99,-1105.21 267.27,-1096.29 266.18,-1106.83 272.99,-1105.21"/>
</g>
<!-- hpp&#45;manipulation&#45;&gt;hpp&#45;manipulation&#45;urdf -->
<g id="edge50" class="edge">
<title>hpp&#45;manipulation&#45;&gt;hpp&#45;manipulation&#45;urdf</title>
<path fill="none" stroke="black" d="M399.22,-1203.7C399.22,-1195.98 399.22,-1186.71 399.22,-1178.11"/>
<polygon fill="black" stroke="black" points="402.72,-1178.1 399.22,-1168.1 395.72,-1178.1 402.72,-1178.1"/>
</g>
<!-- hpp&#45;environments -->
<g id="node45" class="node">
<title>hpp&#45;environments</title>
<g id="a_node45"><a xlink:href="https://github.com/conda-forge/hpp-environments-feedstock/pull/1" xlink:title="hpp environments ✓">
<ellipse fill="#31688e" stroke="black" cx="198.22" cy="-1510" rx="85.29" ry="18"/>
<text text-anchor="middle" x="198.22" y="-1506.3" font-family="Times,serif" font-size="14.00" fill="white">hpp environments ✓</text>
</a>
</g>
</g>
<!-- hpp&#45;pinocchio -->
<g id="node46" class="node">
<title>hpp&#45;pinocchio</title>
<g id="a_node46"><a xlink:href="https://github.com/conda-forge/hpp-pinocchio-feedstock" xlink:title="hpp pinocchio">
<ellipse fill="#fde725" stroke="black" cx="198.22" cy="-1438" rx="61.19" ry="18"/>
<text text-anchor="middle" x="198.22" y="-1434.3" font-family="Times,serif" font-size="14.00">hpp pinocchio</text>
</a>
</g>
</g>
<!-- hpp&#45;environments&#45;&gt;hpp&#45;pinocchio -->
<g id="edge51" class="edge">
<title>hpp&#45;environments&#45;&gt;hpp&#45;pinocchio</title>
<path fill="none" stroke="black" d="M198.22,-1491.7C198.22,-1483.98 198.22,-1474.71 198.22,-1466.11"/>
<polygon fill="black" stroke="black" points="201.72,-1466.1 198.22,-1456.1 194.72,-1466.1 201.72,-1466.1"/>
</g>
<!-- hpp&#45;pinocchio&#45;&gt;hpp&#45;corbaserver -->
<g id="edge52" class="edge">
<title>hpp&#45;pinocchio&#45;&gt;hpp&#45;corbaserver</title>
<path fill="none" stroke="black" d="M176.4,-1421.05C165.16,-1411.59 152.36,-1398.61 145.22,-1384 124.11,-1340.8 122.26,-1283.63 123.37,-1250.32"/>
<polygon fill="black" stroke="black" points="126.88,-1250.15 123.84,-1240 119.89,-1249.83 126.88,-1250.15"/>
</g>
<!-- hpp&#45;pinocchio&#45;&gt;hpp&#45;gui -->
<g id="edge53" class="edge">
<title>hpp&#45;pinocchio&#45;&gt;hpp&#45;gui</title>
<path fill="none" stroke="black" d="M157.46,-1424.58C134.1,-1415.96 105.32,-1402.64 84.22,-1384 22,-1329.02 21.95,-1286.12 34.22,-1204 44.54,-1134.91 42.91,-1103.94 97.22,-1060 131.76,-1032.05 181.26,-1018.74 217.4,-1012.46"/>
<polygon fill="black" stroke="black" points="218.37,-1015.85 227.68,-1010.8 217.25,-1008.94 218.37,-1015.85"/>
</g>
<!-- hpp&#45;pinocchio&#45;&gt;hpp&#45;manipulation&#45;corba -->
<g id="edge54" class="edge">
<title>hpp&#45;pinocchio&#45;&gt;hpp&#45;manipulation&#45;corba</title>
<path fill="none" stroke="black" d="M174.16,-1421.25C120.62,-1384.16 0,-1288.1 48.22,-1204 80.71,-1147.33 149.86,-1114.05 201.22,-1096.27"/>
<polygon fill="black" stroke="black" points="202.54,-1099.52 210.91,-1093.02 200.31,-1092.88 202.54,-1099.52"/>
</g>
<!-- hpp&#45;pinocchio&#45;&gt;hpp&#45;core -->
<g id="edge55" class="edge">
<title>hpp&#45;pinocchio&#45;&gt;hpp&#45;core</title>
<path fill="none" stroke="black" d="M243.24,-1425.77C276.26,-1416.68 321.69,-1402.39 359.22,-1384 397.8,-1365.1 438.19,-1336.34 463.97,-1316.66"/>
<polygon fill="black" stroke="black" points="466.35,-1319.25 472.13,-1310.36 462.07,-1313.7 466.35,-1319.25"/>
</g>
<!-- hpp&#45;pinocchio&#45;&gt;hpp&#45;manipulation&#45;urdf -->
<g id="edge56" class="edge">
<title>hpp&#45;pinocchio&#45;&gt;hpp&#45;manipulation&#45;urdf</title>
<path fill="none" stroke="black" d="M188.9,-1419.96C180.24,-1401.82 169.84,-1372.42 178.22,-1348 204.53,-1271.31 227.23,-1255.06 290.22,-1204 307.36,-1190.11 328.74,-1178.71 348.02,-1170.08"/>
<polygon fill="black" stroke="black" points="349.49,-1173.26 357.28,-1166.07 346.71,-1166.83 349.49,-1173.26"/>
</g>
<!-- hpp&#45;pinocchio&#45;&gt;hpp&#45;manipulation -->
<g id="edge57" class="edge">
<title>hpp&#45;pinocchio&#45;&gt;hpp&#45;manipulation</title>
<path fill="none" stroke="black" d="M245.88,-1426.69C272.18,-1418.86 303.77,-1405.63 325.22,-1384 361.71,-1347.2 346.63,-1322.65 369.22,-1276 373.62,-1266.92 378.91,-1257.24 383.81,-1248.67"/>
<polygon fill="black" stroke="black" points="386.92,-1250.29 388.92,-1239.89 380.87,-1246.77 386.92,-1250.29"/>
</g>
<!-- hpp&#45;constraints -->
<g id="node47" class="node">
<title>hpp&#45;constraints</title>
<g id="a_node47"><a xlink:href="https://github.com/conda-forge/hpp-constraints-feedstock" xlink:title="hpp constraints">
<ellipse fill="#fde725" stroke="black" cx="252.22" cy="-1366" rx="64.5" ry="18"/>
<text text-anchor="middle" x="252.22" y="-1362.3" font-family="Times,serif" font-size="14.00">hpp constraints</text>
</a>
</g>
</g>
<!-- hpp&#45;pinocchio&#45;&gt;hpp&#45;constraints -->
<g id="edge58" class="edge">
<title>hpp&#45;pinocchio&#45;&gt;hpp&#45;constraints</title>
<path fill="none" stroke="black" d="M211.29,-1420.05C217.79,-1411.63 225.77,-1401.28 232.96,-1391.97"/>
<polygon fill="black" stroke="black" points="235.93,-1393.84 239.27,-1383.79 230.39,-1389.57 235.93,-1393.84"/>
</g>
<!-- hpp&#45;constraints&#45;&gt;hpp&#45;corbaserver -->
<g id="edge74" class="edge">
<title>hpp&#45;constraints&#45;&gt;hpp&#45;corbaserver</title>
<path fill="none" stroke="black" d="M237.4,-1348.43C215.15,-1323.56 172.98,-1276.4 147.15,-1247.53"/>
<polygon fill="black" stroke="black" points="149.61,-1245.02 140.33,-1239.9 144.39,-1249.69 149.61,-1245.02"/>
</g>
<!-- hpp&#45;constraints&#45;&gt;hpp&#45;gui -->
<g id="edge75" class="edge">
<title>hpp&#45;constraints&#45;&gt;hpp&#45;gui</title>
<path fill="none" stroke="black" d="M207.45,-1352.89C140.73,-1332.06 25.33,-1283.8 48.22,-1204 69.02,-1131.45 80.75,-1108.92 138.22,-1060 162.25,-1039.54 195.33,-1026.03 221.56,-1017.78"/>
<polygon fill="black" stroke="black" points="222.67,-1021.1 231.24,-1014.87 220.66,-1014.39 222.67,-1021.1"/>
</g>
<!-- hpp&#45;constraints&#45;&gt;hpp&#45;manipulation&#45;corba -->
<g id="edge76" class="edge">
<title>hpp&#45;constraints&#45;&gt;hpp&#45;manipulation&#45;corba</title>
<path fill="none" stroke="black" d="M252.93,-1347.97C254.93,-1300.29 260.6,-1165.18 263.06,-1106.63"/>
<polygon fill="black" stroke="black" points="266.57,-1106.44 263.49,-1096.31 259.58,-1106.15 266.57,-1106.44"/>
</g>
<!-- hpp&#45;constraints&#45;&gt;hpp&#45;core -->
<g id="edge77" class="edge">
<title>hpp&#45;constraints&#45;&gt;hpp&#45;core</title>
<path fill="none" stroke="black" d="M294.95,-1352.49C338.17,-1339.83 404.63,-1320.36 448.02,-1307.65"/>
<polygon fill="black" stroke="black" points="449.11,-1310.98 457.72,-1304.81 447.14,-1304.26 449.11,-1310.98"/>
</g>
<!-- hpp&#45;constraints&#45;&gt;hpp&#45;manipulation&#45;urdf -->
<g id="edge78" class="edge">
<title>hpp&#45;constraints&#45;&gt;hpp&#45;manipulation&#45;urdf</title>
<path fill="none" stroke="black" d="M255.42,-1347.7C262.01,-1316.11 279.63,-1248.29 316.22,-1204 326.85,-1191.13 341.44,-1180.37 355.43,-1171.98"/>
<polygon fill="black" stroke="black" points="357.53,-1174.81 364.48,-1166.81 354.06,-1168.73 357.53,-1174.81"/>
</g>
<!-- hpp&#45;constraints&#45;&gt;hpp&#45;manipulation -->
<g id="edge79" class="edge">
<title>hpp&#45;constraints&#45;&gt;hpp&#45;manipulation</title>
<path fill="none" stroke="black" d="M265.64,-1348.1C280.72,-1329.55 306.36,-1299.32 331.22,-1276 342.64,-1265.29 356.08,-1254.48 367.98,-1245.44"/>
<polygon fill="black" stroke="black" points="370.42,-1248 376.33,-1239.2 366.22,-1242.39 370.42,-1248"/>
</g>
<!-- hpp&#45;statistics -->
<g id="node48" class="node">
<title>hpp&#45;statistics</title>
<g id="a_node48"><a xlink:href="https://github.com/conda-forge/hpp-statistics-feedstock" xlink:title="hpp statistics">
<ellipse fill="#fde725" stroke="black" cx="561.22" cy="-1366" rx="56.59" ry="18"/>
<text text-anchor="middle" x="561.22" y="-1362.3" font-family="Times,serif" font-size="14.00">hpp statistics</text>
</a>
</g>
</g>
<!-- hpp&#45;statistics&#45;&gt;hpp&#45;corbaserver -->
<g id="edge59" class="edge">
<title>hpp&#45;statistics&#45;&gt;hpp&#45;corbaserver</title>
<path fill="none" stroke="black" d="M523.29,-1352.65C444.71,-1327.05 264.1,-1268.23 175.75,-1239.46"/>
<polygon fill="black" stroke="black" points="176.81,-1236.12 166.22,-1236.35 174.64,-1242.78 176.81,-1236.12"/>
</g>
<!-- hpp&#45;statistics&#45;&gt;hpp&#45;gui -->
<g id="edge60" class="edge">
<title>hpp&#45;statistics&#45;&gt;hpp&#45;gui</title>
<path fill="none" stroke="black" d="M598.5,-1352.42C648,-1333.08 729.22,-1290.98 729.22,-1223 729.22,-1223 729.22,-1223 729.22,-1149 729.22,-1062.25 429.45,-1023.26 311.28,-1011.26"/>
<polygon fill="black" stroke="black" points="311.39,-1007.76 301.09,-1010.25 310.7,-1014.72 311.39,-1007.76"/>
</g>
<!-- hpp&#45;statistics&#45;&gt;hpp&#45;manipulation&#45;corba -->
<g id="edge61" class="edge">
<title>hpp&#45;statistics&#45;&gt;hpp&#45;manipulation&#45;corba</title>
<path fill="none" stroke="black" d="M569.52,-1347.79C573.96,-1337.63 578.96,-1324.38 581.22,-1312 584.09,-1296.26 584.36,-1291.69 581.22,-1276 567.62,-1208.01 574.7,-1176.12 521.22,-1132 496.07,-1111.26 418.74,-1097.15 355.42,-1088.73"/>
<polygon fill="black" stroke="black" points="355.75,-1085.25 345.39,-1087.43 354.85,-1092.19 355.75,-1085.25"/>
</g>
<!-- hpp&#45;statistics&#45;&gt;hpp&#45;core -->
<g id="edge62" class="edge">
<title>hpp&#45;statistics&#45;&gt;hpp&#45;core</title>
<path fill="none" stroke="black" d="M544.63,-1348.41C535.61,-1339.39 524.31,-1328.09 514.42,-1318.21"/>
<polygon fill="black" stroke="black" points="516.75,-1315.58 507.21,-1310.99 511.8,-1320.53 516.75,-1315.58"/>
</g>
<!-- hpp&#45;statistics&#45;&gt;hpp&#45;manipulation&#45;urdf -->
<g id="edge63" class="edge">
<title>hpp&#45;statistics&#45;&gt;hpp&#45;manipulation&#45;urdf</title>
<path fill="none" stroke="black" d="M565.89,-1347.96C570.06,-1329.57 574.23,-1299.71 565.22,-1276 545.61,-1224.43 490.19,-1189.86 448.74,-1170.39"/>
<polygon fill="black" stroke="black" points="450.15,-1167.19 439.6,-1166.23 447.25,-1173.56 450.15,-1167.19"/>
</g>
<!-- hpp&#45;statistics&#45;&gt;hpp&#45;manipulation -->
<g id="edge64" class="edge">
<title>hpp&#45;statistics&#45;&gt;hpp&#45;manipulation</title>
<path fill="none" stroke="black" d="M562.18,-1347.8C562.34,-1328.13 559.58,-1296.08 542.22,-1276 524.02,-1254.96 496.67,-1242.26 470.74,-1234.6"/>
<polygon fill="black" stroke="black" points="471.47,-1231.17 460.9,-1231.91 469.62,-1237.92 471.47,-1231.17"/>
</g>
<!-- hpp&#45;util -->
<g id="node49" class="node">
<title>hpp&#45;util</title>
<g id="a_node49"><a xlink:href="https://github.com/conda-forge/hpp-util-feedstock/pull/1" xlink:title="hpp util ✓">
<ellipse fill="#31688e" stroke="black" cx="383.22" cy="-1510" rx="48.19" ry="18"/>
<text text-anchor="middle" x="383.22" y="-1506.3" font-family="Times,serif" font-size="14.00" fill="white">hpp util ✓</text>
</a>
</g>
</g>
<!-- hpp&#45;util&#45;&gt;hpp&#45;corbaserver -->
<g id="edge65" class="edge">
<title>hpp&#45;util&#45;&gt;hpp&#45;corbaserver</title>
<path fill="none" stroke="black" d="M341.53,-1501.01C270.12,-1487.22 131.72,-1460.06 128.22,-1456 78.06,-1397.73 100.72,-1297.56 115.73,-1249.82"/>
<polygon fill="black" stroke="black" points="119.09,-1250.79 118.88,-1240.19 112.44,-1248.61 119.09,-1250.79"/>
</g>
<!-- hpp&#45;util&#45;&gt;hpp&#45;gui -->
<g id="edge66" class="edge">
<title>hpp&#45;util&#45;&gt;hpp&#45;gui</title>
<path fill="none" stroke="black" d="M426.89,-1502.36C527.54,-1485.81 767.22,-1438.88 767.22,-1367 767.22,-1367 767.22,-1367 767.22,-1149 767.22,-1085.77 714.33,-1084.92 656.22,-1060 595.05,-1033.77 401.79,-1016.88 311.53,-1010.22"/>
<polygon fill="black" stroke="black" points="311.53,-1006.71 301.31,-1009.48 311.03,-1013.69 311.53,-1006.71"/>
</g>
<!-- hpp&#45;util&#45;&gt;hpp&#45;manipulation&#45;corba -->
<g id="edge67" class="edge">
<title>hpp&#45;util&#45;&gt;hpp&#45;manipulation&#45;corba</title>
<path fill="none" stroke="black" d="M341.06,-1501.12C263.37,-1486.58 105.39,-1456.92 104.22,-1456 49.06,-1412.55 56.36,-1380.09 39.22,-1312 19.32,-1232.97 10.23,-1182.47 74.22,-1132 102.36,-1109.8 139.25,-1096.9 173.03,-1089.39"/>
<polygon fill="black" stroke="black" points="173.86,-1092.8 182.94,-1087.33 172.43,-1085.94 173.86,-1092.8"/>
</g>
<!-- hpp&#45;util&#45;&gt;hpp&#45;core -->
<g id="edge68" class="edge">
<title>hpp&#45;util&#45;&gt;hpp&#45;core</title>
<path fill="none" stroke="black" d="M391.69,-1492.21C410.5,-1454.94 455.84,-1365.11 478.24,-1320.71"/>
<polygon fill="black" stroke="black" points="481.4,-1322.22 482.78,-1311.71 475.15,-1319.06 481.4,-1322.22"/>
</g>
<!-- hpp&#45;util&#45;&gt;hpp&#45;manipulation&#45;urdf -->
<g id="edge69" class="edge">
<title>hpp&#45;util&#45;&gt;hpp&#45;manipulation&#45;urdf</title>
<path fill="none" stroke="black" d="M426.73,-1501.96C485.47,-1489.77 587.35,-1458.49 627.22,-1384 664.58,-1314.19 590.54,-1245.83 540.22,-1204 519.53,-1186.81 492.71,-1174.88 468.02,-1166.75"/>
<polygon fill="black" stroke="black" points="468.91,-1163.36 458.32,-1163.71 466.82,-1170.04 468.91,-1163.36"/>
</g>
<!-- hpp&#45;util&#45;&gt;hpp&#45;manipulation -->
<g id="edge70" class="edge">
<title>hpp&#45;util&#45;&gt;hpp&#45;manipulation</title>
<path fill="none" stroke="black" d="M384.17,-1491.97C386.84,-1444.29 394.4,-1309.18 397.67,-1250.63"/>
<polygon fill="black" stroke="black" points="401.19,-1250.49 398.25,-1240.31 394.2,-1250.1 401.19,-1250.49"/>
</g>
<!-- hpp&#45;util&#45;&gt;hpp&#45;pinocchio -->
<g id="edge71" class="edge">
<title>hpp&#45;util&#45;&gt;hpp&#45;pinocchio</title>
<path fill="none" stroke="black" d="M350.57,-1496.65C320.92,-1485.43 276.91,-1468.77 243.8,-1456.25"/>
<polygon fill="black" stroke="black" points="244.93,-1452.93 234.34,-1452.67 242.45,-1459.48 244.93,-1452.93"/>
</g>
<!-- hpp&#45;util&#45;&gt;hpp&#45;constraints -->
<g id="edge73" class="edge">
<title>hpp&#45;util&#45;&gt;hpp&#45;constraints</title>
<path fill="none" stroke="black" d="M368.19,-1492.71C345.22,-1467.81 301.22,-1420.12 274.52,-1391.17"/>
<polygon fill="black" stroke="black" points="276.83,-1388.51 267.47,-1383.54 271.68,-1393.26 276.83,-1388.51"/>
</g>
<!-- hpp&#45;util&#45;&gt;hpp&#45;statistics -->
<g id="edge72" class="edge">
<title>hpp&#45;util&#45;&gt;hpp&#45;statistics</title>
<path fill="none" stroke="black" d="M415.33,-1496.42C436.69,-1487.14 464.67,-1473.17 486.22,-1456 509.24,-1437.65 530.35,-1411.36 544.27,-1392.11"/>
<polygon fill="black" stroke="black" points="547.22,-1394 550.13,-1383.82 541.5,-1389.96 547.22,-1394"/>
</g>
</g>
</svg>
