<?xml version="1.0" encoding="UTF-8" standalone="no"?>
<!DOCTYPE svg PUBLIC "-//W3C//DTD SVG 1.1//EN"
 "http://www.w3.org/Graphics/SVG/1.1/DTD/svg11.dtd">
<!-- Generated by graphviz version 6.0.1 (20220911.2005)
 -->
<!-- Pages: 1 -->
<svg width="1140pt" height="160pt"
 viewBox="0.00 0.00 1140.14 160.00" xmlns="http://www.w3.org/2000/svg" xmlns:xlink="http://www.w3.org/1999/xlink">
<g id="graph0" class="graph" transform="scale(1 1) rotate(0) translate(4 156)">
<polygon fill="white" stroke="none" points="-4,4 -4,-156 1136.14,-156 1136.14,4 -4,4"/>
<!-- sourmash&#45;minimal -->
<g id="node1" class="node">
<title>sourmash&#45;minimal</title>
<g id="a_node1"><a xlink:href="https://github.com/conda-forge/sourmash-minimal-feedstock" xlink:title="sourmash minimal">
<ellipse fill="#35b779" stroke="black" cx="96.84" cy="-62" rx="96.68" ry="18"/>
<text text-anchor="middle" x="96.84" y="-58.3" font-family="Times,serif" font-size="14.00">sourmash minimal</text>
</a>
</g>
</g>
<!-- sktime -->
<g id="node2" class="node">
<title>sktime</title>
<g id="a_node2"><a xlink:href="https://github.com/conda-forge/sktime-feedstock" xlink:title="sktime">
<ellipse fill="#35b779" stroke="black" cx="253.84" cy="-62" rx="42.49" ry="18"/>
<text text-anchor="middle" x="253.84" y="-58.3" font-family="Times,serif" font-size="14.00">sktime</text>
</a>
</g>
</g>
<!-- pyoptsparse -->
<g id="node3" class="node">
<title>pyoptsparse</title>
<g id="a_node3"><a xlink:href="https://github.com/conda-forge/pyoptsparse-feedstock" xlink:title="pyoptsparse">
<ellipse fill="#35b779" stroke="black" cx="381.84" cy="-62" rx="67.69" ry="18"/>
<text text-anchor="middle" x="381.84" y="-58.3" font-family="Times,serif" font-size="14.00">pyoptsparse</text>
</a>
</g>
</g>
<!-- idyntree -->
<g id="node4" class="node">
<title>idyntree</title>
<g id="a_node4"><a xlink:href="https://github.com/conda-forge/idyntree-feedstock" xlink:title="idyntree">
<ellipse fill="#35b779" stroke="black" cx="517.84" cy="-62" rx="50.09" ry="18"/>
<text text-anchor="middle" x="517.84" y="-58.3" font-family="Times,serif" font-size="14.00">idyntree</text>
</a>
</g>
</g>
<!-- contourpy -->
<g id="node5" class="node">
<title>contourpy</title>
<g id="a_node5"><a xlink:href="https://github.com/conda-forge/contourpy-feedstock" xlink:title="contourpy">
<ellipse fill="#35b779" stroke="black" cx="381.84" cy="-134" rx="57.69" ry="18"/>
<text text-anchor="middle" x="381.84" y="-130.3" font-family="Times,serif" font-size="14.00">contourpy</text>
</a>
</g>
</g>
<!-- contourpy&#45;&gt;sourmash&#45;minimal -->
<g id="edge2" class="edge">
<title>contourpy&#45;&gt;sourmash&#45;minimal</title>
<path fill="none" stroke="black" d="M337.93,-122.22C291.12,-110.72 216.45,-92.38 162.61,-79.15"/>
<polygon fill="black" stroke="black" points="163.36,-75.73 152.81,-76.75 161.69,-82.53 163.36,-75.73"/>
</g>
<!-- contourpy&#45;&gt;sktime -->
<g id="edge1" class="edge">
<title>contourpy&#45;&gt;sktime</title>
<path fill="none" stroke="black" d="M354.38,-117.98C334.8,-107.28 308.36,-92.81 287.51,-81.41"/>
<polygon fill="black" stroke="black" points="289.11,-78.3 278.66,-76.57 285.75,-84.44 289.11,-78.3"/>
</g>
<!-- contourpy&#45;&gt;pyoptsparse -->
<g id="edge5" class="edge">
<title>contourpy&#45;&gt;pyoptsparse</title>
<path fill="none" stroke="black" d="M381.84,-115.7C381.84,-107.98 381.84,-98.71 381.84,-90.11"/>
<polygon fill="black" stroke="black" points="385.34,-90.1 381.84,-80.1 378.34,-90.1 385.34,-90.1"/>
</g>
<!-- contourpy&#45;&gt;idyntree -->
<g id="edge3" class="edge">
<title>contourpy&#45;&gt;idyntree</title>
<path fill="none" stroke="black" d="M410.35,-118.33C430.93,-107.73 458.9,-93.34 481.15,-81.88"/>
<polygon fill="black" stroke="black" points="483.01,-84.87 490.3,-77.18 479.8,-78.64 483.01,-84.87"/>
</g>
<!-- natcap.invest -->
<g id="node7" class="node">
<title>natcap.invest</title>
<g id="a_node7"><a xlink:href="https://github.com/conda-forge/natcap.invest-feedstock" xlink:title="natcap invest">
<ellipse fill="#35b779" stroke="black" cx="658.84" cy="-62" rx="73.39" ry="18"/>
<text text-anchor="middle" x="658.84" y="-58.3" font-family="Times,serif" font-size="14.00">natcap invest</text>
</a>
</g>
</g>
<!-- contourpy&#45;&gt;natcap.invest -->
<g id="edge4" class="edge">
<title>contourpy&#45;&gt;natcap.invest</title>
<path fill="none" stroke="black" d="M425.43,-121.99C472.37,-110.12 547.36,-91.17 599.62,-77.96"/>
<polygon fill="black" stroke="black" points="600.6,-81.33 609.43,-75.49 598.88,-74.54 600.6,-81.33"/>
</g>
<!-- npe2 -->
<g id="node6" class="node">
<title>npe2</title>
<g id="a_node6"><a xlink:href="https://github.com/conda-forge/npe2-feedstock" xlink:title="npe2">
<ellipse fill="#35b779" stroke="black" cx="865.84" cy="-18" rx="33.6" ry="18"/>
<text text-anchor="middle" x="865.84" y="-14.3" font-family="Times,serif" font-size="14.00">npe2</text>
</a>
</g>
</g>
<!-- versioningit -->
<g id="node8" class="node">
<title>versioningit</title>
<g id="a_node8"><a xlink:href="https://github.com/conda-forge/versioningit-feedstock" xlink:title="versioningit">
<ellipse fill="#35b779" stroke="black" cx="1065.84" cy="-98" rx="66.09" ry="18"/>
<text text-anchor="middle" x="1065.84" y="-94.3" font-family="Times,serif" font-size="14.00">versioningit</text>
</a>
</g>
</g>
<!-- hatch&#45;fancy&#45;pypi&#45;readme -->
<g id="node9" class="node">
<title>hatch&#45;fancy&#45;pypi&#45;readme</title>
<g id="a_node9"><a xlink:href="https://github.com/conda-forge/hatch-fancy-pypi-readme-feedstock" xlink:title="hatch fancy pypi readme">
<ellipse fill="#35b779" stroke="black" cx="865.84" cy="-98" rx="125.38" ry="18"/>
<text text-anchor="middle" x="865.84" y="-94.3" font-family="Times,serif" font-size="14.00">hatch fancy pypi readme</text>
</a>
</g>
</g>
<!-- arrow_odbc -->
<g id="node10" class="node">
<title>arrow_odbc</title>
<g id="a_node10"><a xlink:href="https://github.com/conda-forge/arrow_odbc-feedstock" xlink:title="arrow_odbc">
<ellipse fill="#35b779" stroke="black" cx="366.84" cy="-18" rx="64.19" ry="18"/>
<text text-anchor="middle" x="366.84" y="-14.3" font-family="Times,serif" font-size="14.00">arrow_odbc</text>
</a>
</g>
</g>
</g>
</svg>
