<?xml version="1.0" encoding="UTF-8" standalone="no"?>
<!DOCTYPE svg PUBLIC "-//W3C//DTD SVG 1.1//EN"
 "http://www.w3.org/Graphics/SVG/1.1/DTD/svg11.dtd">
<!-- Generated by graphviz version 2.50.0 (20211209.0339)
 -->
<!-- Pages: 1 -->
<svg width="431pt" height="188pt"
 viewBox="0.00 0.00 430.84 188.00" xmlns="http://www.w3.org/2000/svg" xmlns:xlink="http://www.w3.org/1999/xlink">
<g id="graph0" class="graph" transform="scale(1 1) rotate(0) translate(4 184)">
<polygon fill="white" stroke="transparent" points="-4,4 -4,-184 426.84,-184 426.84,4 -4,4"/>
<!-- root -->
<g id="node1" class="node">
<title>root</title>
<g id="a_node1"><a xlink:href="https://github.com/conda-forge/root-feedstock/pull/147" xlink:title="root ❎">
<ellipse fill="#31688e" stroke="black" cx="128.69" cy="-162" rx="44.39" ry="18"/>
<text text-anchor="middle" x="128.69" y="-158.3" font-family="Times,serif" font-size="14.00" fill="white">root ❎</text>
</a>
</g>
</g>
<!-- stackvana&#45;afw -->
<g id="node3" class="node">
<title>stackvana&#45;afw</title>
<g id="a_node3"><a xlink:href="https://github.com/conda-forge/stackvana-afw-feedstock" xlink:title="stackvana afw">
<ellipse fill="#fde725" stroke="black" cx="76.69" cy="-90" rx="76.89" ry="18"/>
<text text-anchor="middle" x="76.69" y="-86.3" font-family="Times,serif" font-size="14.00">stackvana afw</text>
</a>
</g>
</g>
<!-- root&#45;&gt;stackvana&#45;afw -->
<g id="edge2" class="edge">
<title>root&#45;&gt;stackvana&#45;afw</title>
<path fill="none" stroke="black" d="M116.37,-144.41C110.12,-135.99 102.38,-125.58 95.41,-116.2"/>
<polygon fill="black" stroke="black" points="98.06,-113.9 89.29,-107.96 92.44,-118.07 98.06,-113.9"/>
</g>
<!-- stackvana -->
<g id="node4" class="node">
<title>stackvana</title>
<g id="a_node4"><a xlink:href="https://github.com/conda-forge/stackvana-feedstock" xlink:title="stackvana">
<ellipse fill="#fde725" stroke="black" cx="128.69" cy="-18" rx="57.39" ry="18"/>
<text text-anchor="middle" x="128.69" y="-14.3" font-family="Times,serif" font-size="14.00">stackvana</text>
</a>
</g>
</g>
<!-- root&#45;&gt;stackvana -->
<g id="edge1" class="edge">
<title>root&#45;&gt;stackvana</title>
<path fill="none" stroke="black" d="M142.74,-144.57C150.26,-134.68 158.76,-121.43 162.69,-108 167.19,-92.65 167.19,-87.35 162.69,-72 159.82,-62.19 154.51,-52.47 148.92,-44.09"/>
<polygon fill="black" stroke="black" points="151.74,-42.02 143.09,-35.9 146.03,-46.07 151.74,-42.02"/>
</g>
<!-- psrchive -->
<g id="node2" class="node">
<title>psrchive</title>
<g id="a_node2"><a xlink:href="https://github.com/conda-forge/psrchive-feedstock/pull/16" xlink:title="psrchive ❎">
<ellipse fill="#31688e" stroke="black" cx="258.69" cy="-90" rx="64.19" ry="18"/>
<text text-anchor="middle" x="258.69" y="-86.3" font-family="Times,serif" font-size="14.00" fill="white">psrchive ❎</text>
</a>
</g>
</g>
<!-- stackvana&#45;afw&#45;&gt;stackvana -->
<g id="edge3" class="edge">
<title>stackvana&#45;afw&#45;&gt;stackvana</title>
<path fill="none" stroke="black" d="M89.28,-72.05C95.54,-63.63 103.23,-53.28 110.15,-43.97"/>
<polygon fill="black" stroke="black" points="113.07,-45.9 116.22,-35.79 107.45,-41.73 113.07,-45.9"/>
</g>
<!-- hstcal -->
<g id="node5" class="node">
<title>hstcal</title>
<g id="a_node5"><a xlink:href="https://github.com/conda-forge/hstcal-feedstock/pull/5" xlink:title="hstcal ✓">
<ellipse fill="#31688e" stroke="black" cx="376.69" cy="-90" rx="46.29" ry="18"/>
<text text-anchor="middle" x="376.69" y="-86.3" font-family="Times,serif" font-size="14.00" fill="white">hstcal ✓</text>
</a>
</g>
</g>
</g>
</svg>
