<?xml version="1.0" encoding="UTF-8" standalone="no"?>
<!DOCTYPE svg PUBLIC "-//W3C//DTD SVG 1.1//EN"
 "http://www.w3.org/Graphics/SVG/1.1/DTD/svg11.dtd">
<!-- Generated by graphviz version 2.49.1 (20211004.0028)
 -->
<!-- Pages: 1 -->
<svg width="758pt" height="476pt"
 viewBox="0.00 0.00 758.29 476.00" xmlns="http://www.w3.org/2000/svg" xmlns:xlink="http://www.w3.org/1999/xlink">
<g id="graph0" class="graph" transform="scale(1 1) rotate(0) translate(4 472)">
<polygon fill="white" stroke="transparent" points="-4,4 -4,-472 754.29,-472 754.29,4 -4,4"/>
<!-- casacore -->
<g id="node1" class="node">
<title>casacore</title>
<g id="a_node1"><a xlink:href="https://github.com/conda-forge/casacore-feedstock/pull/60" xlink:title="casacore ❎">
<ellipse fill="#31688e" stroke="black" cx="563.24" cy="-450" rx="65.79" ry="18"/>
<text text-anchor="middle" x="563.24" y="-446.3" font-family="Times,serif" font-size="14.00" fill="white">casacore ❎</text>
</a>
</g>
</g>
<!-- gdal -->
<g id="node2" class="node">
<title>gdal</title>
<g id="a_node2"><a xlink:href="https://github.com/conda-forge/gdal-feedstock/pull/542" xlink:title="gdal ❎">
<ellipse fill="#31688e" stroke="black" cx="563.24" cy="-378" rx="45" ry="18"/>
<text text-anchor="middle" x="563.24" y="-374.3" font-family="Times,serif" font-size="14.00" fill="white">gdal ❎</text>
</a>
</g>
</g>
<!-- casacore&#45;&gt;gdal -->
<!-- healpix_cxx -->
<g id="node3" class="node">
<title>healpix_cxx</title>
<g id="a_node3"><a xlink:href="https://github.com/conda-forge/healpix_cxx-feedstock/pull/13" xlink:title="healpix_cxx ❎">
<ellipse fill="#31688e" stroke="black" cx="563.24" cy="-306" rx="78.79" ry="18"/>
<text text-anchor="middle" x="563.24" y="-302.3" font-family="Times,serif" font-size="14.00" fill="white">healpix_cxx ❎</text>
</a>
</g>
</g>
<!-- gdal&#45;&gt;healpix_cxx -->
<!-- ccfits -->
<g id="node4" class="node">
<title>ccfits</title>
<g id="a_node4"><a xlink:href="https://github.com/conda-forge/ccfits-feedstock/pull/9" xlink:title="ccfits ✓">
<ellipse fill="#31688e" stroke="black" cx="563.24" cy="-234" rx="42.49" ry="18"/>
<text text-anchor="middle" x="563.24" y="-230.3" font-family="Times,serif" font-size="14.00" fill="white">ccfits ✓</text>
</a>
</g>
</g>
<!-- healpix_cxx&#45;&gt;ccfits -->
<!-- nuflux -->
<g id="node11" class="node">
<title>nuflux</title>
<g id="a_node11"><a xlink:href="https://github.com/conda-forge/nuflux-feedstock" xlink:title="nuflux">
<ellipse fill="#ff8c00" stroke="black" cx="563.24" cy="-162" rx="39.79" ry="18"/>
<text text-anchor="middle" x="563.24" y="-158.3" font-family="Times,serif" font-size="14.00">nuflux</text>
</a>
</g>
</g>
<!-- ccfits&#45;&gt;nuflux -->
<!-- healpy -->
<g id="node5" class="node">
<title>healpy</title>
<g id="a_node5"><a xlink:href="https://github.com/conda-forge/healpy-feedstock/pull/41" xlink:title="healpy ❎">
<ellipse fill="#31688e" stroke="black" cx="234.24" cy="-342" rx="56" ry="18"/>
<text text-anchor="middle" x="234.24" y="-338.3" font-family="Times,serif" font-size="14.00" fill="white">healpy ❎</text>
</a>
</g>
</g>
<!-- namaster -->
<g id="node6" class="node">
<title>namaster</title>
<g id="a_node6"><a xlink:href="https://github.com/conda-forge/namaster-feedstock" xlink:title="namaster">
<ellipse fill="#fde725" stroke="black" cx="151.24" cy="-270" rx="54.69" ry="18"/>
<text text-anchor="middle" x="151.24" y="-266.3" font-family="Times,serif" font-size="14.00">namaster</text>
</a>
</g>
</g>
<!-- healpy&#45;&gt;namaster -->
<g id="edge4" class="edge">
<title>healpy&#45;&gt;namaster</title>
<path fill="none" stroke="black" d="M214.99,-324.76C204.02,-315.51 190.1,-303.77 178.07,-293.63"/>
<polygon fill="black" stroke="black" points="180,-290.68 170.1,-286.91 175.49,-296.03 180,-290.68"/>
</g>
<!-- lalapps -->
<g id="node7" class="node">
<title>lalapps</title>
<g id="a_node7"><a xlink:href="https://github.com/conda-forge/lalapps-feedstock" xlink:title="lalapps">
<ellipse fill="#fde725" stroke="black" cx="234.24" cy="-198" rx="44.39" ry="18"/>
<text text-anchor="middle" x="234.24" y="-194.3" font-family="Times,serif" font-size="14.00">lalapps</text>
</a>
</g>
</g>
<!-- healpy&#45;&gt;lalapps -->
<g id="edge5" class="edge">
<title>healpy&#45;&gt;lalapps</title>
<path fill="none" stroke="black" d="M234.24,-323.87C234.24,-299.67 234.24,-255.21 234.24,-226.39"/>
<polygon fill="black" stroke="black" points="237.74,-226.19 234.24,-216.19 230.74,-226.19 237.74,-226.19"/>
</g>
<!-- stackvana&#45;afw -->
<g id="node8" class="node">
<title>stackvana&#45;afw</title>
<g id="a_node8"><a xlink:href="https://github.com/conda-forge/stackvana-afw-feedstock" xlink:title="stackvana afw">
<ellipse fill="#fde725" stroke="black" cx="377.24" cy="-270" rx="76.89" ry="18"/>
<text text-anchor="middle" x="377.24" y="-266.3" font-family="Times,serif" font-size="14.00">stackvana afw</text>
</a>
</g>
</g>
<!-- healpy&#45;&gt;stackvana&#45;afw -->
<g id="edge6" class="edge">
<title>healpy&#45;&gt;stackvana&#45;afw</title>
<path fill="none" stroke="black" d="M263.87,-326.5C284.87,-316.22 313.3,-302.3 336.44,-290.97"/>
<polygon fill="black" stroke="black" points="338.23,-294 345.67,-286.46 335.15,-287.71 338.23,-294"/>
</g>
<!-- stackvana -->
<g id="node9" class="node">
<title>stackvana</title>
<g id="a_node9"><a xlink:href="https://github.com/conda-forge/stackvana-feedstock" xlink:title="stackvana">
<ellipse fill="#fde725" stroke="black" cx="377.24" cy="-198" rx="57.39" ry="18"/>
<text text-anchor="middle" x="377.24" y="-194.3" font-family="Times,serif" font-size="14.00">stackvana</text>
</a>
</g>
</g>
<!-- healpy&#45;&gt;stackvana -->
<g id="edge7" class="edge">
<title>healpy&#45;&gt;stackvana</title>
<path fill="none" stroke="black" d="M242.2,-324C251.79,-304.81 269.39,-273.48 291.24,-252 304.73,-238.74 322.12,-227.25 337.72,-218.39"/>
<polygon fill="black" stroke="black" points="339.58,-221.36 346.66,-213.48 336.21,-215.22 339.58,-221.36"/>
</g>
<!-- des&#45;eastlake -->
<g id="node10" class="node">
<title>des&#45;eastlake</title>
<g id="a_node10"><a xlink:href="https://github.com/conda-forge/des-eastlake-feedstock" xlink:title="des eastlake">
<ellipse fill="#fde725" stroke="black" cx="68.24" cy="-126" rx="68.49" ry="18"/>
<text text-anchor="middle" x="68.24" y="-122.3" font-family="Times,serif" font-size="14.00">des eastlake</text>
</a>
</g>
</g>
<!-- healpy&#45;&gt;des&#45;eastlake -->
<g id="edge8" class="edge">
<title>healpy&#45;&gt;des&#45;eastlake</title>
<path fill="none" stroke="black" d="M181.31,-335.76C149.07,-329.66 109.85,-316.47 87.24,-288 56.79,-249.65 58.96,-189.05 63.47,-154.17"/>
<polygon fill="black" stroke="black" points="66.94,-154.62 64.91,-144.22 60.01,-153.62 66.94,-154.62"/>
</g>
<!-- stackvana&#45;afw&#45;&gt;stackvana -->
<g id="edge9" class="edge">
<title>stackvana&#45;afw&#45;&gt;stackvana</title>
<path fill="none" stroke="black" d="M377.24,-251.7C377.24,-243.98 377.24,-234.71 377.24,-226.11"/>
<polygon fill="black" stroke="black" points="380.74,-226.1 377.24,-216.1 373.74,-226.1 380.74,-226.1"/>
</g>
<!-- hstcal -->
<g id="node15" class="node">
<title>hstcal</title>
<g id="a_node15"><a xlink:href="https://github.com/conda-forge/hstcal-feedstock" xlink:title="hstcal">
<ellipse fill="#ff8c00" stroke="black" cx="563.24" cy="-90" rx="38.5" ry="18"/>
<text text-anchor="middle" x="563.24" y="-86.3" font-family="Times,serif" font-size="14.00">hstcal</text>
</a>
</g>
</g>
<!-- nuflux&#45;&gt;hstcal -->
<!-- root -->
<g id="node12" class="node">
<title>root</title>
<g id="a_node12"><a xlink:href="https://github.com/conda-forge/root-feedstock" xlink:title="root">
<ellipse fill="#ff8c00" stroke="black" cx="429.24" cy="-342" rx="30" ry="18"/>
<text text-anchor="middle" x="429.24" y="-338.3" font-family="Times,serif" font-size="14.00">root</text>
</a>
</g>
</g>
<!-- root&#45;&gt;stackvana&#45;afw -->
<g id="edge11" class="edge">
<title>root&#45;&gt;stackvana&#45;afw</title>
<path fill="none" stroke="black" d="M417.44,-325.12C411.05,-316.51 403,-305.67 395.78,-295.96"/>
<polygon fill="black" stroke="black" points="398.49,-293.74 389.72,-287.8 392.88,-297.91 398.49,-293.74"/>
</g>
<!-- root&#45;&gt;stackvana -->
<g id="edge12" class="edge">
<title>root&#45;&gt;stackvana</title>
<path fill="none" stroke="black" d="M442.82,-325.93C457.46,-307.74 476.95,-276.55 463.24,-252 454.45,-236.26 438.85,-224.61 423.33,-216.31"/>
<polygon fill="black" stroke="black" points="424.76,-213.11 414.25,-211.8 421.65,-219.38 424.76,-213.11"/>
</g>
<!-- tempo2 -->
<g id="node13" class="node">
<title>tempo2</title>
<g id="a_node13"><a xlink:href="https://github.com/conda-forge/tempo2-feedstock" xlink:title="tempo2">
<ellipse fill="#ff8c00" stroke="black" cx="700.24" cy="-270" rx="46.29" ry="18"/>
<text text-anchor="middle" x="700.24" y="-266.3" font-family="Times,serif" font-size="14.00">tempo2</text>
</a>
</g>
</g>
<!-- psrchive -->
<g id="node14" class="node">
<title>psrchive</title>
<g id="a_node14"><a xlink:href="https://github.com/conda-forge/psrchive-feedstock" xlink:title="psrchive">
<ellipse fill="#fde725" stroke="black" cx="700.24" cy="-198" rx="50.09" ry="18"/>
<text text-anchor="middle" x="700.24" y="-194.3" font-family="Times,serif" font-size="14.00">psrchive</text>
</a>
</g>
</g>
<!-- tempo2&#45;&gt;psrchive -->
<g id="edge13" class="edge">
<title>tempo2&#45;&gt;psrchive</title>
<path fill="none" stroke="black" d="M700.24,-251.7C700.24,-243.98 700.24,-234.71 700.24,-226.11"/>
<polygon fill="black" stroke="black" points="703.74,-226.1 700.24,-216.1 696.74,-226.1 703.74,-226.1"/>
</g>
<!-- fitsverify -->
<g id="node16" class="node">
<title>fitsverify</title>
<g id="a_node16"><a xlink:href="https://github.com/conda-forge/fitsverify-feedstock/pull/2" xlink:title="fitsverify ✓">
<ellipse fill="#31688e" stroke="black" cx="563.24" cy="-18" rx="60" ry="18"/>
<text text-anchor="middle" x="563.24" y="-14.3" font-family="Times,serif" font-size="14.00" fill="white">fitsverify ✓</text>
</a>
</g>
</g>
<!-- hstcal&#45;&gt;fitsverify -->
</g>
</svg>
