<?xml version="1.0" encoding="UTF-8" standalone="no"?>
<!DOCTYPE svg PUBLIC "-//W3C//DTD SVG 1.1//EN"
 "http://www.w3.org/Graphics/SVG/1.1/DTD/svg11.dtd">
<!-- Generated by graphviz version 6.0.1 (20220911.2005)
 -->
<!-- Pages: 1 -->
<svg width="747pt" height="592pt"
 viewBox="0.00 0.00 747.00 592.00" xmlns="http://www.w3.org/2000/svg" xmlns:xlink="http://www.w3.org/1999/xlink">
<g id="graph0" class="graph" transform="scale(1 1) rotate(0) translate(4 588)">
<polygon fill="white" stroke="none" points="-4,4 -4,-588 743,-588 743,4 -4,4"/>
<!-- casacore -->
<g id="node1" class="node">
<title>casacore</title>
<g id="a_node1"><a xlink:href="https://github.com/conda-forge/casacore-feedstock" xlink:title="casacore">
<ellipse fill="#fde725" stroke="black" cx="51.5" cy="-386" rx="51.5" ry="18"/>
<text text-anchor="middle" x="51.5" y="-382.3" font-family="Times,serif" font-size="14.00">casacore</text>
</a>
</g>
</g>
<!-- healpix_cxx -->
<g id="node2" class="node">
<title>healpix_cxx</title>
<g id="a_node2"><a xlink:href="https://github.com/conda-forge/healpix_cxx-feedstock" xlink:title="healpix_cxx">
<ellipse fill="#35b779" stroke="black" cx="556.5" cy="-566" rx="64.5" ry="18"/>
<text text-anchor="middle" x="556.5" y="-562.3" font-family="Times,serif" font-size="14.00">healpix_cxx</text>
</a>
</g>
</g>
<!-- ccfits -->
<g id="node3" class="node">
<title>ccfits</title>
<g id="a_node3"><a xlink:href="https://github.com/conda-forge/ccfits-feedstock" xlink:title="ccfits">
<ellipse fill="#35b779" stroke="black" cx="556.5" cy="-494" rx="35.19" ry="18"/>
<text text-anchor="middle" x="556.5" y="-490.3" font-family="Times,serif" font-size="14.00">ccfits</text>
</a>
</g>
</g>
<!-- healpix_cxx&#45;&gt;ccfits -->
<!-- numcosmo -->
<g id="node9" class="node">
<title>numcosmo</title>
<g id="a_node9"><a xlink:href="https://github.com/conda-forge/numcosmo-feedstock" xlink:title="numcosmo">
<ellipse fill="#35b779" stroke="black" cx="556.5" cy="-422" rx="60.5" ry="18"/>
<text text-anchor="middle" x="556.5" y="-418.3" font-family="Times,serif" font-size="14.00">numcosmo</text>
</a>
</g>
</g>
<!-- ccfits&#45;&gt;numcosmo -->
<!-- wcslib -->
<g id="node4" class="node">
<title>wcslib</title>
<g id="a_node4"><a xlink:href="https://github.com/conda-forge/wcslib-feedstock/pull/25" xlink:title="wcslib ✓">
<ellipse fill="#31688e" stroke="black" cx="195.5" cy="-458" rx="47.5" ry="18"/>
<text text-anchor="middle" x="195.5" y="-454.3" font-family="Times,serif" font-size="14.00" fill="white">wcslib ✓</text>
</a>
</g>
</g>
<!-- wcslib&#45;&gt;casacore -->
<g id="edge2" class="edge">
<title>wcslib&#45;&gt;casacore</title>
<path fill="none" stroke="black" d="M167.39,-443.34C145.18,-432.54 113.97,-417.37 89.53,-405.48"/>
<polygon fill="black" stroke="black" points="91.05,-402.33 80.52,-401.11 87.99,-408.63 91.05,-402.33"/>
</g>
<!-- astrometry -->
<g id="node5" class="node">
<title>astrometry</title>
<g id="a_node5"><a xlink:href="https://github.com/conda-forge/astrometry-feedstock" xlink:title="astrometry">
<ellipse fill="#fde725" stroke="black" cx="104.5" cy="-314" rx="62.5" ry="18"/>
<text text-anchor="middle" x="104.5" y="-310.3" font-family="Times,serif" font-size="14.00">astrometry</text>
</a>
</g>
</g>
<!-- wcslib&#45;&gt;astrometry -->
<g id="edge3" class="edge">
<title>wcslib&#45;&gt;astrometry</title>
<path fill="none" stroke="black" d="M184.88,-440.43C169.15,-415.88 139.49,-369.6 120.94,-340.65"/>
<polygon fill="black" stroke="black" points="123.67,-338.43 115.33,-331.9 117.78,-342.21 123.67,-338.43"/>
</g>
<!-- gnuastro -->
<g id="node6" class="node">
<title>gnuastro</title>
<g id="a_node6"><a xlink:href="https://github.com/conda-forge/gnuastro-feedstock" xlink:title="gnuastro">
<ellipse fill="#fde725" stroke="black" cx="183.5" cy="-242" rx="52" ry="18"/>
<text text-anchor="middle" x="183.5" y="-238.3" font-family="Times,serif" font-size="14.00">gnuastro</text>
</a>
</g>
</g>
<!-- wcslib&#45;&gt;gnuastro -->
<g id="edge4" class="edge">
<title>wcslib&#45;&gt;gnuastro</title>
<path fill="none" stroke="black" d="M194.54,-439.85C192.46,-402.83 187.55,-315.18 185.04,-270.39"/>
<polygon fill="black" stroke="black" points="188.52,-270.02 184.47,-260.23 181.53,-270.41 188.52,-270.02"/>
</g>
<!-- rubinenv -->
<g id="node7" class="node">
<title>rubinenv</title>
<g id="a_node7"><a xlink:href="https://github.com/conda-forge/rubinenv-feedstock" xlink:title="rubinenv">
<ellipse fill="#fde725" stroke="black" cx="343.5" cy="-386" rx="52" ry="18"/>
<text text-anchor="middle" x="343.5" y="-382.3" font-family="Times,serif" font-size="14.00">rubinenv</text>
</a>
</g>
</g>
<!-- wcslib&#45;&gt;rubinenv -->
<g id="edge5" class="edge">
<title>wcslib&#45;&gt;rubinenv</title>
<path fill="none" stroke="black" d="M224.04,-443.5C246.98,-432.65 279.43,-417.3 304.73,-405.34"/>
<polygon fill="black" stroke="black" points="306.5,-408.37 314.04,-400.93 303.5,-402.05 306.5,-408.37"/>
</g>
<!-- cpl -->
<g id="node8" class="node">
<title>cpl</title>
<g id="a_node8"><a xlink:href="https://github.com/conda-forge/cpl-feedstock" xlink:title="cpl">
<ellipse fill="#fde725" stroke="black" cx="263.5" cy="-170" rx="27" ry="18"/>
<text text-anchor="middle" x="263.5" y="-166.3" font-family="Times,serif" font-size="14.00">cpl</text>
</a>
</g>
</g>
<!-- wcslib&#45;&gt;cpl -->
<g id="edge6" class="edge">
<title>wcslib&#45;&gt;cpl</title>
<path fill="none" stroke="black" d="M199.95,-439.92C208.8,-405.81 229.07,-326.79 244.5,-260 249.27,-239.35 254.26,-215.9 257.93,-198.26"/>
<polygon fill="black" stroke="black" points="261.43,-198.6 260.03,-188.1 254.58,-197.18 261.43,-198.6"/>
</g>
<!-- libvips -->
<g id="node10" class="node">
<title>libvips</title>
<g id="a_node10"><a xlink:href="https://github.com/conda-forge/libvips-feedstock/pull/66" xlink:title="libvips ✓">
<ellipse fill="#31688e" stroke="black" cx="556.5" cy="-350" rx="48.99" ry="18"/>
<text text-anchor="middle" x="556.5" y="-346.3" font-family="Times,serif" font-size="14.00" fill="white">libvips ✓</text>
</a>
</g>
</g>
<!-- numcosmo&#45;&gt;libvips -->
<!-- hstcal -->
<g id="node18" class="node">
<title>hstcal</title>
<g id="a_node18"><a xlink:href="https://github.com/conda-forge/hstcal-feedstock" xlink:title="hstcal">
<ellipse fill="#35b779" stroke="black" cx="556.5" cy="-278" rx="38.5" ry="18"/>
<text text-anchor="middle" x="556.5" y="-274.3" font-family="Times,serif" font-size="14.00">hstcal</text>
</a>
</g>
</g>
<!-- libvips&#45;&gt;hstcal -->
<!-- lalpulsar -->
<g id="node11" class="node">
<title>lalpulsar</title>
<g id="a_node11"><a xlink:href="https://github.com/conda-forge/lalpulsar-feedstock" xlink:title="lalpulsar">
<ellipse fill="#35b779" stroke="black" cx="685.5" cy="-90" rx="51.5" ry="18"/>
<text text-anchor="middle" x="685.5" y="-86.3" font-family="Times,serif" font-size="14.00">lalpulsar</text>
</a>
</g>
</g>
<!-- lalapps -->
<g id="node12" class="node">
<title>lalapps</title>
<g id="a_node12"><a xlink:href="https://github.com/conda-forge/lalapps-feedstock" xlink:title="lalapps">
<ellipse fill="#fde725" stroke="black" cx="685.5" cy="-18" rx="44.39" ry="18"/>
<text text-anchor="middle" x="685.5" y="-14.3" font-family="Times,serif" font-size="14.00">lalapps</text>
</a>
</g>
</g>
<!-- lalpulsar&#45;&gt;lalapps -->
<g id="edge9" class="edge">
<title>lalpulsar&#45;&gt;lalapps</title>
<path fill="none" stroke="black" d="M685.5,-71.7C685.5,-63.98 685.5,-54.71 685.5,-46.11"/>
<polygon fill="black" stroke="black" points="689,-46.1 685.5,-36.1 682,-46.1 689,-46.1"/>
</g>
<!-- chealpix -->
<g id="node13" class="node">
<title>chealpix</title>
<g id="a_node13"><a xlink:href="https://github.com/conda-forge/chealpix-feedstock/pull/9" xlink:title="chealpix ✓">
<ellipse fill="#31688e" stroke="black" cx="556.5" cy="-90" rx="56.59" ry="18"/>
<text text-anchor="middle" x="556.5" y="-86.3" font-family="Times,serif" font-size="14.00" fill="white">chealpix ✓</text>
</a>
</g>
</g>
<!-- namaster -->
<g id="node14" class="node">
<title>namaster</title>
<g id="a_node14"><a xlink:href="https://github.com/conda-forge/namaster-feedstock" xlink:title="namaster">
<ellipse fill="#fde725" stroke="black" cx="556.5" cy="-18" rx="54.69" ry="18"/>
<text text-anchor="middle" x="556.5" y="-14.3" font-family="Times,serif" font-size="14.00">namaster</text>
</a>
</g>
</g>
<!-- chealpix&#45;&gt;namaster -->
<g id="edge10" class="edge">
<title>chealpix&#45;&gt;namaster</title>
<path fill="none" stroke="black" d="M556.5,-71.7C556.5,-63.98 556.5,-54.71 556.5,-46.11"/>
<polygon fill="black" stroke="black" points="560,-46.1 556.5,-36.1 553,-46.1 560,-46.1"/>
</g>
<!-- root -->
<g id="node15" class="node">
<title>root</title>
<g id="a_node15"><a xlink:href="https://github.com/conda-forge/root-feedstock/pull/193" xlink:title="root ❎">
<ellipse fill="#31688e" stroke="black" cx="330.5" cy="-458" rx="44.39" ry="18"/>
<text text-anchor="middle" x="330.5" y="-454.3" font-family="Times,serif" font-size="14.00" fill="white">root ❎</text>
</a>
</g>
</g>
<!-- root&#45;&gt;rubinenv -->
<g id="edge11" class="edge">
<title>root&#45;&gt;rubinenv</title>
<path fill="none" stroke="black" d="M333.71,-439.7C335.15,-431.98 336.87,-422.71 338.46,-414.11"/>
<polygon fill="black" stroke="black" points="341.94,-414.58 340.32,-404.1 335.06,-413.3 341.94,-414.58"/>
</g>
<!-- photospline -->
<g id="node16" class="node">
<title>photospline</title>
<g id="a_node16"><a xlink:href="https://github.com/conda-forge/photospline-feedstock/pull/25" xlink:title="photospline ✓">
<ellipse fill="#31688e" stroke="black" cx="240.5" cy="-90" rx="72.29" ry="18"/>
<text text-anchor="middle" x="240.5" y="-86.3" font-family="Times,serif" font-size="14.00" fill="white">photospline ✓</text>
</a>
</g>
</g>
<!-- nuflux -->
<g id="node17" class="node">
<title>nuflux</title>
<g id="a_node17"><a xlink:href="https://github.com/conda-forge/nuflux-feedstock" xlink:title="nuflux">
<ellipse fill="#fde725" stroke="black" cx="240.5" cy="-18" rx="39.79" ry="18"/>
<text text-anchor="middle" x="240.5" y="-14.3" font-family="Times,serif" font-size="14.00">nuflux</text>
</a>
</g>
</g>
<!-- photospline&#45;&gt;nuflux -->
<g id="edge12" class="edge">
<title>photospline&#45;&gt;nuflux</title>
<path fill="none" stroke="black" d="M240.5,-71.7C240.5,-63.98 240.5,-54.71 240.5,-46.11"/>
<polygon fill="black" stroke="black" points="244,-46.1 240.5,-36.1 237,-46.1 244,-46.1"/>
</g>
<!-- fitsverify -->
<g id="node23" class="node">
<title>fitsverify</title>
<g id="a_node23"><a xlink:href="https://github.com/conda-forge/fitsverify-feedstock" xlink:title="fitsverify">
<ellipse fill="#35b779" stroke="black" cx="556.5" cy="-206" rx="52" ry="18"/>
<text text-anchor="middle" x="556.5" y="-202.3" font-family="Times,serif" font-size="14.00">fitsverify</text>
</a>
</g>
</g>
<!-- hstcal&#45;&gt;fitsverify -->
<!-- imagecodecs -->
<g id="node19" class="node">
<title>imagecodecs</title>
<g id="a_node19"><a xlink:href="https://github.com/conda-forge/imagecodecs-feedstock/pull/71" xlink:title="imagecodecs ✓">
<ellipse fill="#31688e" stroke="black" cx="402.5" cy="-530" rx="77.5" ry="18"/>
<text text-anchor="middle" x="402.5" y="-526.3" font-family="Times,serif" font-size="14.00" fill="white">imagecodecs ✓</text>
</a>
</g>
</g>
<!-- imagecodecs&#45;&gt;rubinenv -->
<g id="edge14" class="edge">
<title>imagecodecs&#45;&gt;rubinenv</title>
<path fill="none" stroke="black" d="M401.07,-511.91C399.03,-493.47 394.26,-463.57 383.5,-440 378.85,-429.83 371.99,-419.76 365.25,-411.17"/>
<polygon fill="black" stroke="black" points="367.95,-408.94 358.9,-403.43 362.54,-413.38 367.95,-408.94"/>
</g>
<!-- tempo2 -->
<g id="node20" class="node">
<title>tempo2</title>
<g id="a_node20"><a xlink:href="https://github.com/conda-forge/tempo2-feedstock/pull/18" xlink:title="tempo2 ✓">
<ellipse fill="#31688e" stroke="black" cx="685.5" cy="-422" rx="53.5" ry="18"/>
<text text-anchor="middle" x="685.5" y="-418.3" font-family="Times,serif" font-size="14.00" fill="white">tempo2 ✓</text>
</a>
</g>
</g>
<!-- psrchive -->
<g id="node21" class="node">
<title>psrchive</title>
<g id="a_node21"><a xlink:href="https://github.com/conda-forge/psrchive-feedstock" xlink:title="psrchive">
<ellipse fill="#fde725" stroke="black" cx="685.5" cy="-350" rx="50.09" ry="18"/>
<text text-anchor="middle" x="685.5" y="-346.3" font-family="Times,serif" font-size="14.00">psrchive</text>
</a>
</g>
</g>
<!-- tempo2&#45;&gt;psrchive -->
<g id="edge15" class="edge">
<title>tempo2&#45;&gt;psrchive</title>
<path fill="none" stroke="black" d="M685.5,-403.7C685.5,-395.98 685.5,-386.71 685.5,-378.11"/>
<polygon fill="black" stroke="black" points="689,-378.1 685.5,-368.1 682,-378.1 689,-378.1"/>
</g>
<!-- dspsr -->
<g id="node22" class="node">
<title>dspsr</title>
<g id="a_node22"><a xlink:href="https://github.com/conda-forge/dspsr-feedstock" xlink:title="dspsr">
<ellipse fill="#fde725" stroke="black" cx="685.5" cy="-278" rx="36.5" ry="18"/>
<text text-anchor="middle" x="685.5" y="-274.3" font-family="Times,serif" font-size="14.00">dspsr</text>
</a>
</g>
</g>
<!-- psrchive&#45;&gt;dspsr -->
<g id="edge16" class="edge">
<title>psrchive&#45;&gt;dspsr</title>
<path fill="none" stroke="black" d="M685.5,-331.7C685.5,-323.98 685.5,-314.71 685.5,-306.11"/>
<polygon fill="black" stroke="black" points="689,-306.1 685.5,-296.1 682,-306.1 689,-306.1"/>
</g>
<!-- des&#45;eastlake -->
<g id="node24" class="node">
<title>des&#45;eastlake</title>
<g id="a_node24"><a xlink:href="https://github.com/conda-forge/des-eastlake-feedstock" xlink:title="des eastlake">
<ellipse fill="#35b779" stroke="black" cx="556.5" cy="-134" rx="68.49" ry="18"/>
<text text-anchor="middle" x="556.5" y="-130.3" font-family="Times,serif" font-size="14.00">des eastlake</text>
</a>
</g>
</g>
<!-- fitsverify&#45;&gt;des&#45;eastlake -->
</g>
</svg>
