<?xml version="1.0" encoding="UTF-8" standalone="no"?>
<!DOCTYPE svg PUBLIC "-//W3C//DTD SVG 1.1//EN"
 "http://www.w3.org/Graphics/SVG/1.1/DTD/svg11.dtd">
<!-- Generated by graphviz version 2.46.1 (20210222.2046)
 -->
<!-- Pages: 1 -->
<svg width="931pt" height="476pt"
 viewBox="0.00 0.00 930.74 476.00" xmlns="http://www.w3.org/2000/svg" xmlns:xlink="http://www.w3.org/1999/xlink">
<g id="graph0" class="graph" transform="scale(1 1) rotate(0) translate(4 472)">
<polygon fill="white" stroke="transparent" points="-4,4 -4,-472 926.74,-472 926.74,4 -4,4"/>
<!-- implicit -->
<g id="node1" class="node">
<title>implicit</title>
<g id="a_node1"><a xlink:href="https://github.com/conda-forge/implicit-feedstock/pull/34" xlink:title="implicit ❎">
<ellipse fill="#31688e" stroke="black" cx="866.74" cy="-234" rx="56" ry="18"/>
<text text-anchor="middle" x="866.74" y="-230.3" font-family="Times-Roman" font-size="14.00" fill="white">implicit ❎</text>
</a>
</g>
</g>
<!-- openmpi -->
<g id="node2" class="node">
<title>openmpi</title>
<g id="a_node2"><a xlink:href="https://github.com/conda-forge/openmpi-feedstock" xlink:title="openmpi">
<ellipse fill="#ff8c00" stroke="black" cx="683.74" cy="-306" rx="52" ry="18"/>
<text text-anchor="middle" x="683.74" y="-302.3" font-family="Times-Roman" font-size="14.00">openmpi</text>
</a>
</g>
</g>
<!-- prismatic_split -->
<g id="node3" class="node">
<title>prismatic_split</title>
<g id="a_node3"><a xlink:href="https://github.com/conda-forge/prismatic_split-feedstock" xlink:title="prismatic_split">
<ellipse fill="#fde725" stroke="black" cx="630.74" cy="-234" rx="77.5" ry="18"/>
<text text-anchor="middle" x="630.74" y="-230.3" font-family="Times-Roman" font-size="14.00">prismatic_split</text>
</a>
</g>
</g>
<!-- openmpi&#45;&gt;prismatic_split -->
<g id="edge1" class="edge">
<title>openmpi&#45;&gt;prismatic_split</title>
<path fill="none" stroke="black" d="M671.18,-288.41C664.81,-279.99 656.93,-269.58 649.83,-260.2"/>
<polygon fill="black" stroke="black" points="652.41,-257.82 643.58,-251.96 646.83,-262.04 652.41,-257.82"/>
</g>
<!-- pp&#45;sketchlib -->
<g id="node4" class="node">
<title>pp&#45;sketchlib</title>
<g id="a_node4"><a xlink:href="https://github.com/conda-forge/pp-sketchlib-feedstock" xlink:title="pp sketchlib">
<ellipse fill="#fde725" stroke="black" cx="736.74" cy="-162" rx="65.79" ry="18"/>
<text text-anchor="middle" x="736.74" y="-158.3" font-family="Times-Roman" font-size="14.00">pp sketchlib</text>
</a>
</g>
</g>
<!-- openmpi&#45;&gt;pp&#45;sketchlib -->
<g id="edge2" class="edge">
<title>openmpi&#45;&gt;pp&#45;sketchlib</title>
<path fill="none" stroke="black" d="M696.75,-288.21C703.92,-278.19 712.42,-264.94 717.74,-252 725.9,-232.18 730.75,-208.39 733.5,-190.39"/>
<polygon fill="black" stroke="black" points="737,-190.66 734.92,-180.27 730.06,-189.69 737,-190.66"/>
</g>
<!-- torchvision -->
<g id="node5" class="node">
<title>torchvision</title>
<g id="a_node5"><a xlink:href="https://github.com/conda-forge/torchvision-feedstock" xlink:title="torchvision">
<ellipse fill="#fde725" stroke="black" cx="61.74" cy="-306" rx="61.99" ry="18"/>
<text text-anchor="middle" x="61.74" y="-302.3" font-family="Times-Roman" font-size="14.00">torchvision</text>
</a>
</g>
</g>
<!-- pytorch&#45;cpu -->
<g id="node6" class="node">
<title>pytorch&#45;cpu</title>
<g id="a_node6"><a xlink:href="https://github.com/conda-forge/pytorch-cpu-feedstock" xlink:title="pytorch cpu">
<ellipse fill="#fde725" stroke="black" cx="254.74" cy="-378" rx="65.79" ry="18"/>
<text text-anchor="middle" x="254.74" y="-374.3" font-family="Times-Roman" font-size="14.00">pytorch cpu</text>
</a>
</g>
</g>
<!-- pytorch&#45;cpu&#45;&gt;torchvision -->
<g id="edge3" class="edge">
<title>pytorch&#45;cpu&#45;&gt;torchvision</title>
<path fill="none" stroke="black" d="M216.61,-363.17C185.52,-351.89 141.47,-335.92 108.3,-323.88"/>
<polygon fill="black" stroke="black" points="109.41,-320.56 98.81,-320.44 107.02,-327.14 109.41,-320.56"/>
</g>
<!-- nvidia&#45;apex -->
<g id="node7" class="node">
<title>nvidia&#45;apex</title>
<g id="a_node7"><a xlink:href="https://github.com/conda-forge/nvidia-apex-feedstock" xlink:title="nvidia apex">
<ellipse fill="#fde725" stroke="black" cx="123.74" cy="-234" rx="64.5" ry="18"/>
<text text-anchor="middle" x="123.74" y="-230.3" font-family="Times-Roman" font-size="14.00">nvidia apex</text>
</a>
</g>
</g>
<!-- pytorch&#45;cpu&#45;&gt;nvidia&#45;apex -->
<g id="edge4" class="edge">
<title>pytorch&#45;cpu&#45;&gt;nvidia&#45;apex</title>
<path fill="none" stroke="black" d="M238.13,-360.5C227.82,-350.14 214.35,-336.44 202.74,-324 182.7,-302.52 160.54,-277.44 144.81,-259.39"/>
<polygon fill="black" stroke="black" points="147.26,-256.88 138.06,-251.62 141.98,-261.47 147.26,-256.88"/>
</g>
<!-- pytorch_cluster -->
<g id="node8" class="node">
<title>pytorch_cluster</title>
<g id="a_node8"><a xlink:href="https://github.com/conda-forge/pytorch_cluster-feedstock" xlink:title="pytorch_cluster">
<ellipse fill="#fde725" stroke="black" cx="144.74" cy="-162" rx="82" ry="18"/>
<text text-anchor="middle" x="144.74" y="-158.3" font-family="Times-Roman" font-size="14.00">pytorch_cluster</text>
</a>
</g>
</g>
<!-- pytorch&#45;cpu&#45;&gt;pytorch_cluster -->
<g id="edge5" class="edge">
<title>pytorch&#45;cpu&#45;&gt;pytorch_cluster</title>
<path fill="none" stroke="black" d="M249.57,-359.79C238.53,-323.6 212.39,-240.91 196.74,-216 190.06,-205.36 180.93,-195.14 172.19,-186.57"/>
<polygon fill="black" stroke="black" points="174.35,-183.79 164.67,-179.48 169.55,-188.89 174.35,-183.79"/>
</g>
<!-- pytorch_scatter -->
<g id="node9" class="node">
<title>pytorch_scatter</title>
<g id="a_node9"><a xlink:href="https://github.com/conda-forge/pytorch_scatter-feedstock" xlink:title="pytorch_scatter">
<ellipse fill="#fde725" stroke="black" cx="174.74" cy="-90" rx="83.39" ry="18"/>
<text text-anchor="middle" x="174.74" y="-86.3" font-family="Times-Roman" font-size="14.00">pytorch_scatter</text>
</a>
</g>
</g>
<!-- pytorch&#45;cpu&#45;&gt;pytorch_scatter -->
<g id="edge6" class="edge">
<title>pytorch&#45;cpu&#45;&gt;pytorch_scatter</title>
<path fill="none" stroke="black" d="M257.55,-359.74C263.24,-319.42 272.67,-216.97 235.74,-144 229.75,-132.15 219.84,-121.81 209.74,-113.49"/>
<polygon fill="black" stroke="black" points="211.72,-110.6 201.66,-107.26 207.44,-116.14 211.72,-110.6"/>
</g>
<!-- pytorch_spline_conv -->
<g id="node10" class="node">
<title>pytorch_spline_conv</title>
<g id="a_node10"><a xlink:href="https://github.com/conda-forge/pytorch_spline_conv-feedstock" xlink:title="pytorch_spline_conv">
<ellipse fill="#fde725" stroke="black" cx="365.74" cy="-18" rx="104.78" ry="18"/>
<text text-anchor="middle" x="365.74" y="-14.3" font-family="Times-Roman" font-size="14.00">pytorch_spline_conv</text>
</a>
</g>
</g>
<!-- pytorch&#45;cpu&#45;&gt;pytorch_spline_conv -->
<g id="edge7" class="edge">
<title>pytorch&#45;cpu&#45;&gt;pytorch_spline_conv</title>
<path fill="none" stroke="black" d="M277.31,-361.03C307.9,-337.33 358.74,-289.7 358.74,-235 358.74,-235 358.74,-235 358.74,-161 358.74,-120.95 361.56,-74.62 363.62,-46.06"/>
<polygon fill="black" stroke="black" points="367.11,-46.27 364.36,-36.04 360.13,-45.75 367.11,-46.27"/>
</g>
<!-- pytorch_sparse -->
<g id="node11" class="node">
<title>pytorch_sparse</title>
<g id="a_node11"><a xlink:href="https://github.com/conda-forge/pytorch_sparse-feedstock" xlink:title="pytorch_sparse">
<ellipse fill="#fde725" stroke="black" cx="160.74" cy="-18" rx="82" ry="18"/>
<text text-anchor="middle" x="160.74" y="-14.3" font-family="Times-Roman" font-size="14.00">pytorch_sparse</text>
</a>
</g>
</g>
<!-- pytorch&#45;cpu&#45;&gt;pytorch_sparse -->
<g id="edge8" class="edge">
<title>pytorch&#45;cpu&#45;&gt;pytorch_sparse</title>
<path fill="none" stroke="black" d="M263.05,-359.68C267.65,-349.49 273.15,-336.24 276.74,-324 288.07,-285.44 292.74,-275.19 292.74,-235 292.74,-235 292.74,-235 292.74,-161 292.74,-119.79 293.16,-103.63 266.74,-72 253.77,-56.47 235.12,-45.05 217.07,-36.87"/>
<polygon fill="black" stroke="black" points="218.29,-33.59 207.72,-32.89 215.55,-40.03 218.29,-33.59"/>
</g>
<!-- openmm&#45;torch -->
<g id="node12" class="node">
<title>openmm&#45;torch</title>
<g id="a_node12"><a xlink:href="https://github.com/conda-forge/openmm-torch-feedstock" xlink:title="openmm torch">
<ellipse fill="#fde725" stroke="black" cx="465.74" cy="-306" rx="79.5" ry="18"/>
<text text-anchor="middle" x="465.74" y="-302.3" font-family="Times-Roman" font-size="14.00">openmm torch</text>
</a>
</g>
</g>
<!-- pytorch&#45;cpu&#45;&gt;openmm&#45;torch -->
<g id="edge9" class="edge">
<title>pytorch&#45;cpu&#45;&gt;openmm&#45;torch</title>
<path fill="none" stroke="black" d="M294.93,-363.67C328.52,-352.53 376.66,-336.55 413.29,-324.4"/>
<polygon fill="black" stroke="black" points="414.42,-327.71 422.81,-321.24 412.22,-321.07 414.42,-327.71"/>
</g>
<!-- pytorch_scatter&#45;&gt;pytorch_sparse -->
<g id="edge10" class="edge">
<title>pytorch_scatter&#45;&gt;pytorch_sparse</title>
<path fill="none" stroke="black" d="M171.28,-71.7C169.74,-63.98 167.89,-54.71 166.17,-46.11"/>
<polygon fill="black" stroke="black" points="169.56,-45.22 164.17,-36.1 162.69,-46.6 169.56,-45.22"/>
</g>
<!-- magma -->
<g id="node13" class="node">
<title>magma</title>
<g id="a_node13"><a xlink:href="https://github.com/conda-forge/magma-feedstock/pull/8" xlink:title="magma ✓">
<ellipse fill="#31688e" stroke="black" cx="254.74" cy="-450" rx="58" ry="18"/>
<text text-anchor="middle" x="254.74" y="-446.3" font-family="Times-Roman" font-size="14.00" fill="white">magma ✓</text>
</a>
</g>
</g>
<!-- magma&#45;&gt;pytorch&#45;cpu -->
<g id="edge11" class="edge">
<title>magma&#45;&gt;pytorch&#45;cpu</title>
<path fill="none" stroke="black" d="M254.74,-431.7C254.74,-423.98 254.74,-414.71 254.74,-406.11"/>
<polygon fill="black" stroke="black" points="258.24,-406.1 254.74,-396.1 251.24,-406.1 258.24,-406.1"/>
</g>
</g>
</svg>
