<?xml version="1.0" encoding="UTF-8" standalone="no"?>
<!DOCTYPE svg PUBLIC "-//W3C//DTD SVG 1.1//EN"
 "http://www.w3.org/Graphics/SVG/1.1/DTD/svg11.dtd">
<!-- Generated by graphviz version 7.0.6 (20230107.1202)
 -->
<!-- Pages: 1 -->
<svg width="2257pt" height="880pt"
 viewBox="0.00 0.00 2257.24 880.00" xmlns="http://www.w3.org/2000/svg" xmlns:xlink="http://www.w3.org/1999/xlink">
<g id="graph0" class="graph" transform="scale(1 1) rotate(0) translate(4 876)">
<polygon fill="white" stroke="none" points="-4,4 -4,-876 2253.24,-876 2253.24,4 -4,4"/>
<!-- kaldi -->
<g id="node1" class="node">
<title>kaldi</title>
<g id="a_node1"><a xlink:href="https://github.com/conda-forge/kaldi-feedstock" xlink:title="kaldi">
<ellipse fill="#fde725" stroke="black" cx="814.74" cy="-710" rx="33.29" ry="18"/>
<text text-anchor="middle" x="814.74" y="-706.3" font-family="Times,serif" font-size="14.00">kaldi</text>
</a>
</g>
</g>
<!-- torchvision -->
<g id="node2" class="node">
<title>torchvision</title>
<g id="a_node2"><a xlink:href="https://github.com/conda-forge/torchvision-feedstock" xlink:title="torchvision">
<ellipse fill="#fde725" stroke="black" cx="383.74" cy="-638" rx="62.5" ry="18"/>
<text text-anchor="middle" x="383.74" y="-634.3" font-family="Times,serif" font-size="14.00">torchvision</text>
</a>
</g>
</g>
<!-- detectron2 -->
<g id="node3" class="node">
<title>detectron2</title>
<g id="a_node3"><a xlink:href="https://github.com/conda-forge/detectron2-feedstock" xlink:title="detectron2">
<ellipse fill="#fde725" stroke="black" cx="61.74" cy="-566" rx="61.99" ry="18"/>
<text text-anchor="middle" x="61.74" y="-562.3" font-family="Times,serif" font-size="14.00">detectron2</text>
</a>
</g>
</g>
<!-- torchvision&#45;&gt;detectron2 -->
<g id="edge1" class="edge">
<title>torchvision&#45;&gt;detectron2</title>
<path fill="none" stroke="black" d="M333.65,-626.84C282.93,-616.45 202.26,-599.66 132.74,-584 128.42,-583.03 123.95,-582 119.45,-580.95"/>
<polygon fill="black" stroke="black" points="120.31,-577.56 109.77,-578.68 118.71,-584.37 120.31,-577.56"/>
</g>
<!-- fcos -->
<g id="node4" class="node">
<title>fcos</title>
<g id="a_node4"><a xlink:href="https://github.com/conda-forge/fcos-feedstock" xlink:title="fcos">
<ellipse fill="#fde725" stroke="black" cx="170.74" cy="-566" rx="29.5" ry="18"/>
<text text-anchor="middle" x="170.74" y="-562.3" font-family="Times,serif" font-size="14.00">fcos</text>
</a>
</g>
</g>
<!-- torchvision&#45;&gt;fcos -->
<g id="edge2" class="edge">
<title>torchvision&#45;&gt;fcos</title>
<path fill="none" stroke="black" d="M339,-625.13C303.33,-615.27 252.31,-600.27 208.74,-584 207.18,-583.42 205.59,-582.8 203.98,-582.16"/>
<polygon fill="black" stroke="black" points="205.43,-578.97 194.85,-578.31 202.71,-585.42 205.43,-578.97"/>
</g>
<!-- fairscale -->
<g id="node5" class="node">
<title>fairscale</title>
<g id="a_node5"><a xlink:href="https://github.com/conda-forge/fairscale-feedstock" xlink:title="fairscale">
<ellipse fill="#fde725" stroke="black" cx="267.74" cy="-566" rx="50.09" ry="18"/>
<text text-anchor="middle" x="267.74" y="-562.3" font-family="Times,serif" font-size="14.00">fairscale</text>
</a>
</g>
</g>
<!-- torchvision&#45;&gt;fairscale -->
<g id="edge3" class="edge">
<title>torchvision&#45;&gt;fairscale</title>
<path fill="none" stroke="black" d="M357.71,-621.29C341.25,-611.36 319.8,-598.41 301.98,-587.66"/>
<polygon fill="black" stroke="black" points="304.16,-584.89 293.79,-582.72 300.55,-590.88 304.16,-584.89"/>
</g>
<!-- graphvite -->
<g id="node6" class="node">
<title>graphvite</title>
<g id="a_node6"><a xlink:href="https://github.com/conda-forge/graphvite-feedstock" xlink:title="graphvite">
<ellipse fill="#fde725" stroke="black" cx="391.74" cy="-566" rx="56" ry="18"/>
<text text-anchor="middle" x="391.74" y="-562.3" font-family="Times,serif" font-size="14.00">graphvite</text>
</a>
</g>
</g>
<!-- torchvision&#45;&gt;graphvite -->
<g id="edge4" class="edge">
<title>torchvision&#45;&gt;graphvite</title>
<path fill="none" stroke="black" d="M385.72,-619.7C386.56,-612.41 387.55,-603.73 388.48,-595.54"/>
<polygon fill="black" stroke="black" points="391.96,-595.94 389.62,-585.61 385,-595.15 391.96,-595.94"/>
</g>
<!-- mmcv&#45;recipe -->
<g id="node7" class="node">
<title>mmcv&#45;recipe</title>
<g id="a_node7"><a xlink:href="https://github.com/conda-forge/mmcv-recipe-feedstock" xlink:title="mmcv recipe">
<ellipse fill="#fde725" stroke="black" cx="535.74" cy="-566" rx="70.39" ry="18"/>
<text text-anchor="middle" x="535.74" y="-562.3" font-family="Times,serif" font-size="14.00">mmcv recipe</text>
</a>
</g>
</g>
<!-- torchvision&#45;&gt;mmcv&#45;recipe -->
<g id="edge5" class="edge">
<title>torchvision&#45;&gt;mmcv&#45;recipe</title>
<path fill="none" stroke="black" d="M415.98,-622.15C438.15,-611.95 467.85,-598.27 492.12,-587.09"/>
<polygon fill="black" stroke="black" points="493.51,-590.3 501.13,-582.94 490.58,-583.94 493.51,-590.3"/>
</g>
<!-- tensorflow -->
<g id="node8" class="node">
<title>tensorflow</title>
<g id="a_node8"><a xlink:href="https://github.com/conda-forge/tensorflow-feedstock" xlink:title="tensorflow">
<ellipse fill="#fde725" stroke="black" cx="2184.74" cy="-90" rx="60" ry="18"/>
<text text-anchor="middle" x="2184.74" y="-86.3" font-family="Times,serif" font-size="14.00">tensorflow</text>
</a>
</g>
</g>
<!-- deepmd&#45;kit -->
<g id="node9" class="node">
<title>deepmd&#45;kit</title>
<g id="a_node9"><a xlink:href="https://github.com/conda-forge/deepmd-kit-feedstock" xlink:title="deepmd kit">
<ellipse fill="#fde725" stroke="black" cx="2184.74" cy="-18" rx="63.09" ry="18"/>
<text text-anchor="middle" x="2184.74" y="-14.3" font-family="Times,serif" font-size="14.00">deepmd kit</text>
</a>
</g>
</g>
<!-- tensorflow&#45;&gt;deepmd&#45;kit -->
<g id="edge6" class="edge">
<title>tensorflow&#45;&gt;deepmd&#45;kit</title>
<path fill="none" stroke="black" d="M2184.74,-71.7C2184.74,-64.41 2184.74,-55.73 2184.74,-47.54"/>
<polygon fill="black" stroke="black" points="2188.24,-47.62 2184.74,-37.62 2181.24,-47.62 2188.24,-47.62"/>
</g>
<!-- hoomd -->
<g id="node10" class="node">
<title>hoomd</title>
<g id="a_node10"><a xlink:href="https://github.com/conda-forge/hoomd-feedstock" xlink:title="hoomd">
<ellipse fill="#fde725" stroke="black" cx="901.74" cy="-90" rx="42.49" ry="18"/>
<text text-anchor="middle" x="901.74" y="-86.3" font-family="Times,serif" font-size="14.00">hoomd</text>
</a>
</g>
</g>
<!-- hoomd&#45;dlext -->
<g id="node11" class="node">
<title>hoomd&#45;dlext</title>
<g id="a_node11"><a xlink:href="https://github.com/conda-forge/hoomd-dlext-feedstock" xlink:title="hoomd dlext">
<ellipse fill="#fde725" stroke="black" cx="901.74" cy="-18" rx="68.49" ry="18"/>
<text text-anchor="middle" x="901.74" y="-14.3" font-family="Times,serif" font-size="14.00">hoomd dlext</text>
</a>
</g>
</g>
<!-- hoomd&#45;&gt;hoomd&#45;dlext -->
<g id="edge7" class="edge">
<title>hoomd&#45;&gt;hoomd&#45;dlext</title>
<path fill="none" stroke="black" d="M901.74,-71.7C901.74,-64.41 901.74,-55.73 901.74,-47.54"/>
<polygon fill="black" stroke="black" points="905.24,-47.62 901.74,-37.62 898.24,-47.62 905.24,-47.62"/>
</g>
<!-- pytorch&#45;cpu -->
<g id="node12" class="node">
<title>pytorch&#45;cpu</title>
<g id="a_node12"><a xlink:href="https://github.com/conda-forge/pytorch-cpu-feedstock" xlink:title="pytorch cpu">
<ellipse fill="#fde725" stroke="black" cx="931.74" cy="-710" rx="65.79" ry="18"/>
<text text-anchor="middle" x="931.74" y="-706.3" font-family="Times,serif" font-size="14.00">pytorch cpu</text>
</a>
</g>
</g>
<!-- pytorch&#45;cpu&#45;&gt;torchvision -->
<g id="edge8" class="edge">
<title>pytorch&#45;cpu&#45;&gt;torchvision</title>
<path fill="none" stroke="black" d="M883.91,-697.2C874.92,-695.25 865.58,-693.42 856.74,-692 690.11,-665.29 645.95,-678.88 478.74,-656 468.03,-654.53 456.67,-652.72 445.68,-650.84"/>
<polygon fill="black" stroke="black" points="446.35,-647.4 435.89,-649.12 445.14,-654.3 446.35,-647.4"/>
</g>
<!-- pytorch&#45;cpu&#45;&gt;detectron2 -->
<g id="edge9" class="edge">
<title>pytorch&#45;cpu&#45;&gt;detectron2</title>
<path fill="none" stroke="black" d="M884.76,-697.09C875.52,-695.11 865.87,-693.28 856.74,-692 576.38,-652.57 492.57,-735.17 220.74,-656 172.65,-641.99 123.21,-611.26 92.5,-589.85"/>
<polygon fill="black" stroke="black" points="94.63,-587.07 84.45,-584.14 90.58,-592.78 94.63,-587.07"/>
</g>
<!-- pytorch&#45;cpu&#45;&gt;fcos -->
<g id="edge10" class="edge">
<title>pytorch&#45;cpu&#45;&gt;fcos</title>
<path fill="none" stroke="black" d="M884.75,-697.14C875.52,-695.15 865.86,-693.31 856.74,-692 729.58,-673.74 399.36,-702.88 279.74,-656 244.16,-642.05 211.36,-611.91 191.23,-590.58"/>
<polygon fill="black" stroke="black" points="194.02,-588.45 184.68,-583.45 188.87,-593.18 194.02,-588.45"/>
</g>
<!-- pytorch&#45;cpu&#45;&gt;fairscale -->
<g id="edge11" class="edge">
<title>pytorch&#45;cpu&#45;&gt;fairscale</title>
<path fill="none" stroke="black" d="M884.34,-697.08C875.23,-695.12 865.73,-693.31 856.74,-692 796.69,-683.27 362.21,-689.7 311.74,-656 291.04,-642.17 279.69,-615.61 273.73,-595.09"/>
<polygon fill="black" stroke="black" points="277.17,-594.4 271.27,-585.61 270.4,-596.16 277.17,-594.4"/>
</g>
<!-- pytorch&#45;cpu&#45;&gt;graphvite -->
<g id="edge12" class="edge">
<title>pytorch&#45;cpu&#45;&gt;graphvite</title>
<path fill="none" stroke="black" d="M883.88,-697.4C874.89,-695.43 865.56,-693.54 856.74,-692 727.49,-669.47 689.09,-694.76 563.74,-656 512.66,-640.2 458.66,-609.68 425.09,-588.83"/>
<polygon fill="black" stroke="black" points="426.96,-585.87 416.63,-583.5 423.22,-591.79 426.96,-585.87"/>
</g>
<!-- pytorch&#45;cpu&#45;&gt;mmcv&#45;recipe -->
<g id="edge13" class="edge">
<title>pytorch&#45;cpu&#45;&gt;mmcv&#45;recipe</title>
<path fill="none" stroke="black" d="M883.45,-697.45C874.59,-695.51 865.41,-693.6 856.74,-692 745.92,-671.53 703.35,-712.33 605.74,-656 580.95,-641.69 561.71,-614.87 549.74,-594.39"/>
<polygon fill="black" stroke="black" points="552.81,-592.71 544.88,-585.68 546.69,-596.12 552.81,-592.71"/>
</g>
<!-- nvidia&#45;apex -->
<g id="node13" class="node">
<title>nvidia&#45;apex</title>
<g id="a_node13"><a xlink:href="https://github.com/conda-forge/nvidia-apex-feedstock" xlink:title="nvidia apex">
<ellipse fill="#fde725" stroke="black" cx="678.74" cy="-638" rx="63.89" ry="18"/>
<text text-anchor="middle" x="678.74" y="-634.3" font-family="Times,serif" font-size="14.00">nvidia apex</text>
</a>
</g>
</g>
<!-- pytorch&#45;cpu&#45;&gt;nvidia&#45;apex -->
<g id="edge14" class="edge">
<title>pytorch&#45;cpu&#45;&gt;nvidia&#45;apex</title>
<path fill="none" stroke="black" d="M886.51,-696.49C843.84,-684.68 779.77,-666.95 734.07,-654.31"/>
<polygon fill="black" stroke="black" points="735.19,-650.99 724.62,-651.69 733.32,-657.73 735.19,-650.99"/>
</g>
<!-- pytorch_cluster -->
<g id="node14" class="node">
<title>pytorch_cluster</title>
<g id="a_node14"><a xlink:href="https://github.com/conda-forge/pytorch_cluster-feedstock" xlink:title="pytorch_cluster">
<ellipse fill="#fde725" stroke="black" cx="706.74" cy="-566" rx="83.39" ry="18"/>
<text text-anchor="middle" x="706.74" y="-562.3" font-family="Times,serif" font-size="14.00">pytorch_cluster</text>
</a>
</g>
</g>
<!-- pytorch&#45;cpu&#45;&gt;pytorch_cluster -->
<g id="edge15" class="edge">
<title>pytorch&#45;cpu&#45;&gt;pytorch_cluster</title>
<path fill="none" stroke="black" d="M889.59,-695.75C863.71,-686.62 830.52,-673.07 803.74,-656 775.67,-638.1 748.13,-611.75 729.62,-592.37"/>
<polygon fill="black" stroke="black" points="732.2,-590.01 722.81,-585.11 727.1,-594.8 732.2,-590.01"/>
</g>
<!-- pytorch_scatter -->
<g id="node15" class="node">
<title>pytorch_scatter</title>
<g id="a_node15"><a xlink:href="https://github.com/conda-forge/pytorch_scatter-feedstock" xlink:title="pytorch_scatter">
<ellipse fill="#fde725" stroke="black" cx="669.74" cy="-494" rx="83.39" ry="18"/>
<text text-anchor="middle" x="669.74" y="-490.3" font-family="Times,serif" font-size="14.00">pytorch_scatter</text>
</a>
</g>
</g>
<!-- pytorch&#45;cpu&#45;&gt;pytorch_scatter -->
<g id="edge16" class="edge">
<title>pytorch&#45;cpu&#45;&gt;pytorch_scatter</title>
<path fill="none" stroke="black" d="M895.86,-694.66C877.61,-685.83 856.26,-672.93 841.74,-656 808.12,-616.78 835.08,-584.73 798.74,-548 781.99,-531.06 759.06,-519.31 737.17,-511.27"/>
<polygon fill="black" stroke="black" points="738.57,-508.05 727.97,-508.1 736.29,-514.67 738.57,-508.05"/>
</g>
<!-- pytorch_spline_conv -->
<g id="node16" class="node">
<title>pytorch_spline_conv</title>
<g id="a_node16"><a xlink:href="https://github.com/conda-forge/pytorch_spline_conv-feedstock" xlink:title="pytorch_spline_conv">
<ellipse fill="#fde725" stroke="black" cx="798.74" cy="-422" rx="104.78" ry="18"/>
<text text-anchor="middle" x="798.74" y="-418.3" font-family="Times,serif" font-size="14.00">pytorch_spline_conv</text>
</a>
</g>
</g>
<!-- pytorch&#45;cpu&#45;&gt;pytorch_spline_conv -->
<g id="edge17" class="edge">
<title>pytorch&#45;cpu&#45;&gt;pytorch_spline_conv</title>
<path fill="none" stroke="black" d="M927.22,-691.91C913,-638.25 870.14,-476.58 869.74,-476 861.8,-464.26 850.37,-454.1 838.99,-445.9"/>
<polygon fill="black" stroke="black" points="841.03,-443.05 830.78,-440.34 837.1,-448.85 841.03,-443.05"/>
</g>
<!-- pytorch_sparse -->
<g id="node17" class="node">
<title>pytorch_sparse</title>
<g id="a_node17"><a xlink:href="https://github.com/conda-forge/pytorch_sparse-feedstock" xlink:title="pytorch_sparse">
<ellipse fill="#fde725" stroke="black" cx="594.74" cy="-422" rx="81.49" ry="18"/>
<text text-anchor="middle" x="594.74" y="-418.3" font-family="Times,serif" font-size="14.00">pytorch_sparse</text>
</a>
</g>
</g>
<!-- pytorch&#45;cpu&#45;&gt;pytorch_sparse -->
<g id="edge18" class="edge">
<title>pytorch&#45;cpu&#45;&gt;pytorch_sparse</title>
<path fill="none" stroke="black" d="M921.49,-691.96C891.87,-643.26 805.5,-505.15 761.74,-476 733.67,-457.3 698.59,-444.86 667.83,-436.76"/>
<polygon fill="black" stroke="black" points="668.74,-433.38 658.19,-434.34 667.03,-440.17 668.74,-433.38"/>
</g>
<!-- torchani -->
<g id="node18" class="node">
<title>torchani</title>
<g id="a_node18"><a xlink:href="https://github.com/conda-forge/torchani-feedstock" xlink:title="torchani">
<ellipse fill="#fde725" stroke="black" cx="891.74" cy="-350" rx="49.5" ry="18"/>
<text text-anchor="middle" x="891.74" y="-346.3" font-family="Times,serif" font-size="14.00">torchani</text>
</a>
</g>
</g>
<!-- pytorch&#45;cpu&#45;&gt;torchani -->
<g id="edge19" class="edge">
<title>pytorch&#45;cpu&#45;&gt;torchani</title>
<path fill="none" stroke="black" d="M931.74,-691.51C931.74,-664.71 931.74,-611.87 931.74,-567 931.74,-567 931.74,-567 931.74,-493 931.74,-451.85 915.99,-406.42 904.25,-378.29"/>
<polygon fill="black" stroke="black" points="907.61,-377.24 900.44,-369.44 901.18,-380.01 907.61,-377.24"/>
</g>
<!-- openmm&#45;torch -->
<g id="node19" class="node">
<title>openmm&#45;torch</title>
<g id="a_node19"><a xlink:href="https://github.com/conda-forge/openmm-torch-feedstock" xlink:title="openmm torch">
<ellipse fill="#fde725" stroke="black" cx="1075.74" cy="-638" rx="78" ry="18"/>
<text text-anchor="middle" x="1075.74" y="-634.3" font-family="Times,serif" font-size="14.00">openmm torch</text>
</a>
</g>
</g>
<!-- pytorch&#45;cpu&#45;&gt;openmm&#45;torch -->
<g id="edge20" class="edge">
<title>pytorch&#45;cpu&#45;&gt;openmm&#45;torch</title>
<path fill="none" stroke="black" d="M962.99,-693.81C983.48,-683.85 1010.55,-670.69 1033.02,-659.77"/>
<polygon fill="black" stroke="black" points="1034.49,-662.95 1041.95,-655.43 1031.43,-656.65 1034.49,-662.95"/>
</g>
<!-- torchsparse -->
<g id="node20" class="node">
<title>torchsparse</title>
<g id="a_node20"><a xlink:href="https://github.com/conda-forge/torchsparse-feedstock" xlink:title="torchsparse">
<ellipse fill="#fde725" stroke="black" cx="1125.74" cy="-566" rx="65.79" ry="18"/>
<text text-anchor="middle" x="1125.74" y="-562.3" font-family="Times,serif" font-size="14.00">torchsparse</text>
</a>
</g>
</g>
<!-- pytorch&#45;cpu&#45;&gt;torchsparse -->
<g id="edge21" class="edge">
<title>pytorch&#45;cpu&#45;&gt;torchsparse</title>
<path fill="none" stroke="black" d="M993.63,-703.39C1054.72,-696.41 1141.95,-682.11 1162.74,-656 1177.71,-637.22 1164.26,-611.52 1149.56,-592.57"/>
<polygon fill="black" stroke="black" points="1152.4,-590.51 1143.33,-585.03 1147.01,-594.97 1152.4,-590.51"/>
</g>
<!-- torch&#45;scatter -->
<g id="node21" class="node">
<title>torch&#45;scatter</title>
<g id="a_node21"><a xlink:href="https://github.com/conda-forge/torch-scatter-feedstock" xlink:title="torch scatter">
<ellipse fill="#fde725" stroke="black" cx="1158.74" cy="-494" rx="71" ry="18"/>
<text text-anchor="middle" x="1158.74" y="-490.3" font-family="Times,serif" font-size="14.00">torch scatter</text>
</a>
</g>
</g>
<!-- pytorch&#45;cpu&#45;&gt;torch&#45;scatter -->
<g id="edge22" class="edge">
<title>pytorch&#45;cpu&#45;&gt;torch&#45;scatter</title>
<path fill="none" stroke="black" d="M993.11,-703.21C1057.84,-695.87 1154.1,-681.06 1180.74,-656 1216.3,-622.55 1216.8,-594.1 1200.74,-548 1197.27,-538.01 1191.03,-528.49 1184.42,-520.34"/>
<polygon fill="black" stroke="black" points="1187.13,-518.13 1177.91,-512.91 1181.87,-522.74 1187.13,-518.13"/>
</g>
<!-- kaolin -->
<g id="node22" class="node">
<title>kaolin</title>
<g id="a_node22"><a xlink:href="https://github.com/conda-forge/kaolin-feedstock" xlink:title="kaolin">
<ellipse fill="#fde725" stroke="black" cx="1228.74" cy="-422" rx="38.5" ry="18"/>
<text text-anchor="middle" x="1228.74" y="-418.3" font-family="Times,serif" font-size="14.00">kaolin</text>
</a>
</g>
</g>
<!-- pytorch&#45;cpu&#45;&gt;kaolin -->
<g id="edge23" class="edge">
<title>pytorch&#45;cpu&#45;&gt;kaolin</title>
<path fill="none" stroke="black" d="M995.18,-704.81C1067.1,-698.73 1178.22,-684.87 1207.74,-656 1262.74,-602.22 1247.86,-500.49 1236.39,-451.2"/>
<polygon fill="black" stroke="black" points="1239.82,-450.47 1234.03,-441.6 1233.02,-452.14 1239.82,-450.47"/>
</g>
<!-- nnpops -->
<g id="node23" class="node">
<title>nnpops</title>
<g id="a_node23"><a xlink:href="https://github.com/conda-forge/nnpops-feedstock" xlink:title="nnpops">
<ellipse fill="#fde725" stroke="black" cx="930.74" cy="-278" rx="44.39" ry="18"/>
<text text-anchor="middle" x="930.74" y="-274.3" font-family="Times,serif" font-size="14.00">nnpops</text>
</a>
</g>
</g>
<!-- pytorch&#45;cpu&#45;&gt;nnpops -->
<g id="edge24" class="edge">
<title>pytorch&#45;cpu&#45;&gt;nnpops</title>
<path fill="none" stroke="black" d="M939.43,-691.91C950.54,-665.62 969.74,-613.45 969.74,-567 969.74,-567 969.74,-567 969.74,-421 969.74,-379.92 954.38,-334.47 942.94,-306.32"/>
<polygon fill="black" stroke="black" points="946.32,-305.33 939.22,-297.47 939.87,-308.04 946.32,-305.33"/>
</g>
<!-- triton -->
<g id="node24" class="node">
<title>triton</title>
<g id="a_node24"><a xlink:href="https://github.com/conda-forge/triton-feedstock" xlink:title="triton">
<ellipse fill="#fde725" stroke="black" cx="1268.74" cy="-350" rx="37.09" ry="18"/>
<text text-anchor="middle" x="1268.74" y="-346.3" font-family="Times,serif" font-size="14.00">triton</text>
</a>
</g>
</g>
<!-- pytorch&#45;cpu&#45;&gt;triton -->
<g id="edge25" class="edge">
<title>pytorch&#45;cpu&#45;&gt;triton</title>
<path fill="none" stroke="black" d="M993.82,-703.74C1070.3,-696.31 1194.87,-680.81 1233.74,-656 1274.38,-630.07 1295.74,-615.21 1295.74,-567 1295.74,-567 1295.74,-567 1295.74,-493 1295.74,-452.86 1285.2,-407.44 1277.29,-379.01"/>
<polygon fill="black" stroke="black" points="1280.75,-378.38 1274.63,-369.74 1274.03,-380.32 1280.75,-378.38"/>
</g>
<!-- openmmtorchplugin -->
<g id="node25" class="node">
<title>openmmtorchplugin</title>
<g id="a_node25"><a xlink:href="https://github.com/conda-forge/openmmtorchplugin-feedstock" xlink:title="openmmtorchplugin">
<ellipse fill="#fde725" stroke="black" cx="1466.74" cy="-638" rx="104.78" ry="18"/>
<text text-anchor="middle" x="1466.74" y="-634.3" font-family="Times,serif" font-size="14.00">openmmtorchplugin</text>
</a>
</g>
</g>
<!-- pytorch&#45;cpu&#45;&gt;openmmtorchplugin -->
<g id="edge26" class="edge">
<title>pytorch&#45;cpu&#45;&gt;openmmtorchplugin</title>
<path fill="none" stroke="black" d="M991.03,-701.73C1071.75,-691.77 1220.76,-673.16 1347.74,-656 1357.36,-654.7 1367.41,-653.31 1377.42,-651.91"/>
<polygon fill="black" stroke="black" points="1377.76,-655.4 1387.18,-650.54 1376.79,-648.47 1377.76,-655.4"/>
</g>
<!-- molgrid -->
<g id="node26" class="node">
<title>molgrid</title>
<g id="a_node26"><a xlink:href="https://github.com/conda-forge/molgrid-feedstock" xlink:title="molgrid">
<ellipse fill="#fde725" stroke="black" cx="1580.74" cy="-566" rx="47" ry="18"/>
<text text-anchor="middle" x="1580.74" y="-562.3" font-family="Times,serif" font-size="14.00">molgrid</text>
</a>
</g>
</g>
<!-- pytorch&#45;cpu&#45;&gt;molgrid -->
<g id="edge27" class="edge">
<title>pytorch&#45;cpu&#45;&gt;molgrid</title>
<path fill="none" stroke="black" d="M997.81,-708.56C1155.13,-706.83 1541.79,-698.26 1580.74,-656 1595.47,-640.02 1594.02,-614.75 1589.72,-595.21"/>
<polygon fill="black" stroke="black" points="1593.14,-594.47 1587.25,-585.66 1586.37,-596.22 1593.14,-594.47"/>
</g>
<!-- theseus&#45;ai -->
<g id="node27" class="node">
<title>theseus&#45;ai</title>
<g id="a_node27"><a xlink:href="https://github.com/conda-forge/theseus-ai-feedstock" xlink:title="theseus ai">
<ellipse fill="#fde725" stroke="black" cx="1655.74" cy="-494" rx="58" ry="18"/>
<text text-anchor="middle" x="1655.74" y="-490.3" font-family="Times,serif" font-size="14.00">theseus ai</text>
</a>
</g>
</g>
<!-- pytorch&#45;cpu&#45;&gt;theseus&#45;ai -->
<g id="edge28" class="edge">
<title>pytorch&#45;cpu&#45;&gt;theseus&#45;ai</title>
<path fill="none" stroke="black" d="M997.24,-707.44C1155.91,-703.15 1551.47,-689.21 1600.74,-656 1643.95,-626.88 1653.73,-561.44 1655.63,-523.57"/>
<polygon fill="black" stroke="black" points="1659.12,-523.94 1655.95,-513.83 1652.12,-523.71 1659.12,-523.94"/>
</g>
<!-- pyg&#45;lib -->
<g id="node28" class="node">
<title>pyg&#45;lib</title>
<g id="a_node28"><a xlink:href="https://github.com/conda-forge/pyg-lib-feedstock" xlink:title="pyg lib">
<ellipse fill="#fde725" stroke="black" cx="1325.74" cy="-278" rx="42.49" ry="18"/>
<text text-anchor="middle" x="1325.74" y="-274.3" font-family="Times,serif" font-size="14.00">pyg lib</text>
</a>
</g>
</g>
<!-- pytorch&#45;cpu&#45;&gt;pyg&#45;lib -->
<g id="edge29" class="edge">
<title>pytorch&#45;cpu&#45;&gt;pyg&#45;lib</title>
<path fill="none" stroke="black" d="M995.15,-704.96C1080.21,-698.56 1225.81,-683.86 1270.74,-656 1311.93,-630.46 1333.74,-615.46 1333.74,-567 1333.74,-567 1333.74,-567 1333.74,-421 1333.74,-381.68 1330.65,-336.33 1328.31,-307.67"/>
<polygon fill="black" stroke="black" points="1331.82,-307.65 1327.49,-297.98 1324.84,-308.24 1331.82,-307.65"/>
</g>
<!-- deepspeed -->
<g id="node29" class="node">
<title>deepspeed</title>
<g id="a_node29"><a xlink:href="https://github.com/conda-forge/deepspeed-feedstock" xlink:title="deepspeed">
<ellipse fill="#fde725" stroke="black" cx="1741.74" cy="-422" rx="60.5" ry="18"/>
<text text-anchor="middle" x="1741.74" y="-418.3" font-family="Times,serif" font-size="14.00">deepspeed</text>
</a>
</g>
</g>
<!-- pytorch&#45;cpu&#45;&gt;deepspeed -->
<g id="edge30" class="edge">
<title>pytorch&#45;cpu&#45;&gt;deepspeed</title>
<path fill="none" stroke="black" d="M997.24,-707.35C1160.67,-702.76 1577.18,-688.03 1630.74,-656 1704.26,-612.03 1729.88,-503.8 1738.14,-451.8"/>
<polygon fill="black" stroke="black" points="1741.6,-452.34 1739.59,-441.94 1734.67,-451.32 1741.6,-452.34"/>
</g>
<!-- pytorch_scatter&#45;&gt;pytorch_sparse -->
<g id="edge31" class="edge">
<title>pytorch_scatter&#45;&gt;pytorch_sparse</title>
<path fill="none" stroke="black" d="M651.59,-476.05C642.44,-467.52 631.19,-457.01 621.11,-447.61"/>
<polygon fill="black" stroke="black" points="623.8,-445.33 614.1,-441.06 619.02,-450.45 623.8,-445.33"/>
</g>
<!-- torchani&#45;&gt;nnpops -->
<g id="edge32" class="edge">
<title>torchani&#45;&gt;nnpops</title>
<path fill="none" stroke="black" d="M901.19,-332.05C905.59,-324.14 910.94,-314.54 915.88,-305.69"/>
<polygon fill="black" stroke="black" points="918.84,-307.55 920.65,-297.11 912.73,-304.14 918.84,-307.55"/>
</g>
<!-- triton&#45;&gt;pyg&#45;lib -->
<g id="edge33" class="edge">
<title>triton&#45;&gt;pyg&#45;lib</title>
<path fill="none" stroke="black" d="M1281.96,-332.76C1288.94,-324.19 1297.66,-313.49 1305.47,-303.9"/>
<polygon fill="black" stroke="black" points="1308.04,-306.29 1311.64,-296.32 1302.61,-301.87 1308.04,-306.29"/>
</g>
<!-- pp&#45;sketchlib -->
<g id="node30" class="node">
<title>pp&#45;sketchlib</title>
<g id="a_node30"><a xlink:href="https://github.com/conda-forge/pp-sketchlib-feedstock" xlink:title="pp sketchlib">
<ellipse fill="#fde725" stroke="black" cx="1961.74" cy="-90" rx="67.69" ry="18"/>
<text text-anchor="middle" x="1961.74" y="-86.3" font-family="Times,serif" font-size="14.00">pp sketchlib</text>
</a>
</g>
</g>
<!-- mandrake -->
<g id="node31" class="node">
<title>mandrake</title>
<g id="a_node31"><a xlink:href="https://github.com/conda-forge/mandrake-feedstock" xlink:title="mandrake">
<ellipse fill="#fde725" stroke="black" cx="1961.74" cy="-18" rx="57.39" ry="18"/>
<text text-anchor="middle" x="1961.74" y="-14.3" font-family="Times,serif" font-size="14.00">mandrake</text>
</a>
</g>
</g>
<!-- pp&#45;sketchlib&#45;&gt;mandrake -->
<g id="edge34" class="edge">
<title>pp&#45;sketchlib&#45;&gt;mandrake</title>
<path fill="none" stroke="black" d="M1961.74,-71.7C1961.74,-64.41 1961.74,-55.73 1961.74,-47.54"/>
<polygon fill="black" stroke="black" points="1965.24,-47.62 1961.74,-37.62 1958.24,-47.62 1965.24,-47.62"/>
</g>
<!-- libtvm -->
<g id="node32" class="node">
<title>libtvm</title>
<g id="a_node32"><a xlink:href="https://github.com/conda-forge/libtvm-feedstock" xlink:title="libtvm">
<ellipse fill="#fde725" stroke="black" cx="1426.74" cy="-278" rx="40.5" ry="18"/>
<text text-anchor="middle" x="1426.74" y="-274.3" font-family="Times,serif" font-size="14.00">libtvm</text>
</a>
</g>
</g>
<!-- tvm&#45;py -->
<g id="node33" class="node">
<title>tvm&#45;py</title>
<g id="a_node33"><a xlink:href="https://github.com/conda-forge/tvm-py-feedstock" xlink:title="tvm py">
<ellipse fill="#fde725" stroke="black" cx="1426.74" cy="-206" rx="43" ry="18"/>
<text text-anchor="middle" x="1426.74" y="-202.3" font-family="Times,serif" font-size="14.00">tvm py</text>
</a>
</g>
</g>
<!-- libtvm&#45;&gt;tvm&#45;py -->
<g id="edge35" class="edge">
<title>libtvm&#45;&gt;tvm&#45;py</title>
<path fill="none" stroke="black" d="M1426.74,-259.7C1426.74,-252.41 1426.74,-243.73 1426.74,-235.54"/>
<polygon fill="black" stroke="black" points="1430.24,-235.62 1426.74,-225.62 1423.24,-235.62 1430.24,-235.62"/>
</g>
<!-- magma -->
<g id="node34" class="node">
<title>magma</title>
<g id="a_node34"><a xlink:href="https://github.com/conda-forge/magma-feedstock/pull/17" xlink:title="magma ❎">
<ellipse fill="#31688e" stroke="black" cx="872.74" cy="-782" rx="59.29" ry="18"/>
<text text-anchor="middle" x="872.74" y="-778.3" font-family="Times,serif" font-size="14.00" fill="white">magma ❎</text>
</a>
</g>
</g>
<!-- magma&#45;&gt;kaldi -->
<g id="edge36" class="edge">
<title>magma&#45;&gt;kaldi</title>
<path fill="none" stroke="black" d="M858.7,-764.05C851.59,-755.47 842.82,-744.89 834.99,-735.44"/>
<polygon fill="black" stroke="black" points="837.9,-733.46 828.83,-727.99 832.51,-737.93 837.9,-733.46"/>
</g>
<!-- magma&#45;&gt;pytorch&#45;cpu -->
<g id="edge37" class="edge">
<title>magma&#45;&gt;pytorch&#45;cpu</title>
<path fill="none" stroke="black" d="M887.03,-764.05C893.98,-755.8 902.5,-745.7 910.22,-736.54"/>
<polygon fill="black" stroke="black" points="912.85,-738.85 916.62,-728.95 907.5,-734.34 912.85,-738.85"/>
</g>
<!-- openmm&#45;plumed -->
<g id="node35" class="node">
<title>openmm&#45;plumed</title>
<g id="a_node35"><a xlink:href="https://github.com/conda-forge/openmm-plumed-feedstock" xlink:title="openmm plumed">
<ellipse fill="#fde725" stroke="black" cx="1961.74" cy="-854" rx="88.5" ry="18"/>
<text text-anchor="middle" x="1961.74" y="-850.3" font-family="Times,serif" font-size="14.00">openmm plumed</text>
</a>
</g>
</g>
<!-- meld -->
<g id="node36" class="node">
<title>meld</title>
<g id="a_node36"><a xlink:href="https://github.com/conda-forge/meld-feedstock" xlink:title="meld">
<ellipse fill="#fde725" stroke="black" cx="1961.74" cy="-782" rx="34" ry="18"/>
<text text-anchor="middle" x="1961.74" y="-778.3" font-family="Times,serif" font-size="14.00">meld</text>
</a>
</g>
</g>
<!-- openmm&#45;plumed&#45;&gt;meld -->
<!-- cudadecon -->
<g id="node37" class="node">
<title>cudadecon</title>
<g id="a_node37"><a xlink:href="https://github.com/conda-forge/cudadecon-feedstock" xlink:title="cudadecon">
<ellipse fill="#fde725" stroke="black" cx="1961.74" cy="-710" rx="60" ry="18"/>
<text text-anchor="middle" x="1961.74" y="-706.3" font-family="Times,serif" font-size="14.00">cudadecon</text>
</a>
</g>
</g>
<!-- meld&#45;&gt;cudadecon -->
<!-- cudasirecon -->
<g id="node38" class="node">
<title>cudasirecon</title>
<g id="a_node38"><a xlink:href="https://github.com/conda-forge/cudasirecon-feedstock" xlink:title="cudasirecon">
<ellipse fill="#fde725" stroke="black" cx="1961.74" cy="-638" rx="66.5" ry="18"/>
<text text-anchor="middle" x="1961.74" y="-634.3" font-family="Times,serif" font-size="14.00">cudasirecon</text>
</a>
</g>
</g>
<!-- cudadecon&#45;&gt;cudasirecon -->
<!-- colmap -->
<g id="node39" class="node">
<title>colmap</title>
<g id="a_node39"><a xlink:href="https://github.com/conda-forge/colmap-feedstock" xlink:title="colmap">
<ellipse fill="#fde725" stroke="black" cx="1961.74" cy="-566" rx="44.39" ry="18"/>
<text text-anchor="middle" x="1961.74" y="-562.3" font-family="Times,serif" font-size="14.00">colmap</text>
</a>
</g>
</g>
<!-- cudasirecon&#45;&gt;colmap -->
<!-- seekr2_openmm_plugin -->
<g id="node40" class="node">
<title>seekr2_openmm_plugin</title>
<g id="a_node40"><a xlink:href="https://github.com/conda-forge/seekr2_openmm_plugin-feedstock" xlink:title="seekr2_openmm_plugin">
<ellipse fill="#fde725" stroke="black" cx="1961.74" cy="-494" rx="120.48" ry="18"/>
<text text-anchor="middle" x="1961.74" y="-490.3" font-family="Times,serif" font-size="14.00">seekr2_openmm_plugin</text>
</a>
</g>
</g>
<!-- colmap&#45;&gt;seekr2_openmm_plugin -->
<!-- tsnecuda -->
<g id="node41" class="node">
<title>tsnecuda</title>
<g id="a_node41"><a xlink:href="https://github.com/conda-forge/tsnecuda-feedstock" xlink:title="tsnecuda">
<ellipse fill="#fde725" stroke="black" cx="1961.74" cy="-422" rx="52.79" ry="18"/>
<text text-anchor="middle" x="1961.74" y="-418.3" font-family="Times,serif" font-size="14.00">tsnecuda</text>
</a>
</g>
</g>
<!-- seekr2_openmm_plugin&#45;&gt;tsnecuda -->
<!-- gromacs -->
<g id="node42" class="node">
<title>gromacs</title>
<g id="a_node42"><a xlink:href="https://github.com/conda-forge/gromacs-feedstock" xlink:title="gromacs">
<ellipse fill="#fde725" stroke="black" cx="1961.74" cy="-350" rx="50.09" ry="18"/>
<text text-anchor="middle" x="1961.74" y="-346.3" font-family="Times,serif" font-size="14.00">gromacs</text>
</a>
</g>
</g>
<!-- tsnecuda&#45;&gt;gromacs -->
<!-- openmm&#45;atmmetaforce&#45;plugin -->
<g id="node44" class="node">
<title>openmm&#45;atmmetaforce&#45;plugin</title>
<g id="a_node44"><a xlink:href="https://github.com/conda-forge/openmm-atmmetaforce-plugin-feedstock" xlink:title="openmm atmmetaforce plugin">
<ellipse fill="#fde725" stroke="black" cx="1961.74" cy="-278" rx="151" ry="18"/>
<text text-anchor="middle" x="1961.74" y="-274.3" font-family="Times,serif" font-size="14.00">openmm atmmetaforce plugin</text>
</a>
</g>
</g>
<!-- gromacs&#45;&gt;openmm&#45;atmmetaforce&#45;plugin -->
<!-- cutlass -->
<g id="node43" class="node">
<title>cutlass</title>
<g id="a_node43"><a xlink:href="https://github.com/conda-forge/cutlass-feedstock" xlink:title="cutlass">
<ellipse fill="#fde725" stroke="black" cx="1419.74" cy="-350" rx="43.59" ry="18"/>
<text text-anchor="middle" x="1419.74" y="-346.3" font-family="Times,serif" font-size="14.00">cutlass</text>
</a>
</g>
</g>
<!-- cutlass&#45;&gt;pyg&#45;lib -->
<g id="edge45" class="edge">
<title>cutlass&#45;&gt;pyg&#45;lib</title>
<path fill="none" stroke="black" d="M1399.35,-333.81C1386.41,-324.18 1369.47,-311.56 1355.1,-300.86"/>
<polygon fill="black" stroke="black" points="1357.43,-298.23 1347.32,-295.06 1353.25,-303.84 1357.43,-298.23"/>
</g>
<!-- cutlass&#45;&gt;libtvm -->
<g id="edge46" class="edge">
<title>cutlass&#45;&gt;libtvm</title>
<path fill="none" stroke="black" d="M1421.47,-331.7C1422.2,-324.41 1423.07,-315.73 1423.89,-307.54"/>
<polygon fill="black" stroke="black" points="1427.37,-307.91 1424.88,-297.61 1420.41,-307.21 1427.37,-307.91"/>
</g>
<!-- heavydb&#45;ext -->
<g id="node45" class="node">
<title>heavydb&#45;ext</title>
<g id="a_node45"><a xlink:href="https://github.com/conda-forge/heavydb-ext-feedstock" xlink:title="heavydb ext">
<ellipse fill="#fde725" stroke="black" cx="1961.74" cy="-206" rx="67.69" ry="18"/>
<text text-anchor="middle" x="1961.74" y="-202.3" font-family="Times,serif" font-size="14.00">heavydb ext</text>
</a>
</g>
</g>
<!-- openmm&#45;atmmetaforce&#45;plugin&#45;&gt;heavydb&#45;ext -->
<!-- openmm&#45;dlext -->
<g id="node46" class="node">
<title>openmm&#45;dlext</title>
<g id="a_node46"><a xlink:href="https://github.com/conda-forge/openmm-dlext-feedstock" xlink:title="openmm dlext">
<ellipse fill="#fde725" stroke="black" cx="1961.74" cy="-134" rx="77.5" ry="18"/>
<text text-anchor="middle" x="1961.74" y="-130.3" font-family="Times,serif" font-size="14.00">openmm dlext</text>
</a>
</g>
</g>
<!-- heavydb&#45;ext&#45;&gt;openmm&#45;dlext -->
<!-- hdk -->
<g id="node47" class="node">
<title>hdk</title>
<g id="a_node47"><a xlink:href="https://github.com/conda-forge/hdk-feedstock" xlink:title="hdk">
<ellipse fill="#fde725" stroke="black" cx="2184.74" cy="-602" rx="28" ry="18"/>
<text text-anchor="middle" x="2184.74" y="-598.3" font-family="Times,serif" font-size="14.00">hdk</text>
</a>
</g>
</g>
<!-- cyrsoxs -->
<g id="node48" class="node">
<title>cyrsoxs</title>
<g id="a_node48"><a xlink:href="https://github.com/conda-forge/cyrsoxs-feedstock" xlink:title="cyrsoxs">
<ellipse fill="#fde725" stroke="black" cx="2184.74" cy="-530" rx="46.29" ry="18"/>
<text text-anchor="middle" x="2184.74" y="-526.3" font-family="Times,serif" font-size="14.00">cyrsoxs</text>
</a>
</g>
</g>
<!-- hdk&#45;&gt;cyrsoxs -->
<!-- katago -->
<g id="node49" class="node">
<title>katago</title>
<g id="a_node49"><a xlink:href="https://github.com/conda-forge/katago-feedstock" xlink:title="katago">
<ellipse fill="#fde725" stroke="black" cx="2184.74" cy="-458" rx="42.49" ry="18"/>
<text text-anchor="middle" x="2184.74" y="-454.3" font-family="Times,serif" font-size="14.00">katago</text>
</a>
</g>
</g>
<!-- cyrsoxs&#45;&gt;katago -->
<!-- parallelproj -->
<g id="node50" class="node">
<title>parallelproj</title>
<g id="a_node50"><a xlink:href="https://github.com/conda-forge/parallelproj-feedstock" xlink:title="parallelproj">
<ellipse fill="#fde725" stroke="black" cx="2184.74" cy="-386" rx="64.5" ry="18"/>
<text text-anchor="middle" x="2184.74" y="-382.3" font-family="Times,serif" font-size="14.00">parallelproj</text>
</a>
</g>
</g>
<!-- katago&#45;&gt;parallelproj -->
</g>
</svg>
