<?xml version="1.0" encoding="UTF-8" standalone="no"?>
<!DOCTYPE svg PUBLIC "-//W3C//DTD SVG 1.1//EN"
 "http://www.w3.org/Graphics/SVG/1.1/DTD/svg11.dtd">
<!-- Generated by graphviz version 7.0.5 (20221231.0122)
 -->
<!-- Pages: 1 -->
<svg width="2935pt" height="1068pt"
 viewBox="0.00 0.00 2934.64 1068.00" xmlns="http://www.w3.org/2000/svg" xmlns:xlink="http://www.w3.org/1999/xlink">
<g id="graph0" class="graph" transform="scale(1 1) rotate(0) translate(4 1064)">
<polygon fill="white" stroke="none" points="-4,4 -4,-1064 2930.64,-1064 2930.64,4 -4,4"/>
<!-- implicit -->
<g id="node1" class="node">
<title>implicit</title>
<g id="a_node1"><a xlink:href="https://github.com/conda-forge/implicit-feedstock" xlink:title="implicit">
<ellipse fill="#fde725" stroke="black" cx="2679.05" cy="-1042" rx="46.29" ry="18"/>
<text text-anchor="middle" x="2679.05" y="-1038.3" font-family="Times,serif" font-size="14.00">implicit</text>
</a>
</g>
</g>
<!-- xgboost -->
<g id="node2" class="node">
<title>xgboost</title>
<g id="a_node2"><a xlink:href="https://github.com/conda-forge/xgboost-feedstock" xlink:title="xgboost">
<ellipse fill="#000000" stroke="black" cx="2679.05" cy="-970" rx="47.5" ry="18"/>
<text text-anchor="middle" x="2679.05" y="-966.3" font-family="Times,serif" font-size="14.00" fill="white">xgboost</text>
</a>
</g>
</g>
<!-- implicit&#45;&gt;xgboost -->
<!-- conda&#45;forge&#45;ci&#45;setup -->
<g id="node10" class="node">
<title>conda&#45;forge&#45;ci&#45;setup</title>
<g id="a_node10"><a xlink:href="https://github.com/conda-forge/conda-forge-ci-setup-feedstock" xlink:title="conda forge ci setup">
<ellipse fill="#000000" stroke="black" cx="2679.05" cy="-898" rx="104.78" ry="18"/>
<text text-anchor="middle" x="2679.05" y="-894.3" font-family="Times,serif" font-size="14.00" fill="white">conda forge ci setup</text>
</a>
</g>
</g>
<!-- xgboost&#45;&gt;conda&#45;forge&#45;ci&#45;setup -->
<!-- kaldi -->
<g id="node3" class="node">
<title>kaldi</title>
<g id="a_node3"><a xlink:href="https://github.com/conda-forge/kaldi-feedstock" xlink:title="kaldi">
<ellipse fill="#fde725" stroke="black" cx="860.05" cy="-862" rx="33.29" ry="18"/>
<text text-anchor="middle" x="860.05" y="-858.3" font-family="Times,serif" font-size="14.00">kaldi</text>
</a>
</g>
</g>
<!-- torchvision -->
<g id="node4" class="node">
<title>torchvision</title>
<g id="a_node4"><a xlink:href="https://github.com/conda-forge/torchvision-feedstock" xlink:title="torchvision">
<ellipse fill="#fde725" stroke="black" cx="496.05" cy="-790" rx="62.5" ry="18"/>
<text text-anchor="middle" x="496.05" y="-786.3" font-family="Times,serif" font-size="14.00">torchvision</text>
</a>
</g>
</g>
<!-- detectron2 -->
<g id="node5" class="node">
<title>detectron2</title>
<g id="a_node5"><a xlink:href="https://github.com/conda-forge/detectron2-feedstock" xlink:title="detectron2">
<ellipse fill="#fde725" stroke="black" cx="192.05" cy="-718" rx="61.99" ry="18"/>
<text text-anchor="middle" x="192.05" y="-714.3" font-family="Times,serif" font-size="14.00">detectron2</text>
</a>
</g>
</g>
<!-- torchvision&#45;&gt;detectron2 -->
<g id="edge2" class="edge">
<title>torchvision&#45;&gt;detectron2</title>
<path fill="none" stroke="black" d="M447.82,-778.2C400.67,-767.6 326.88,-750.9 263.05,-736 258.73,-734.99 254.26,-733.94 249.77,-732.88"/>
<polygon fill="black" stroke="black" points="250.63,-729.49 240.1,-730.58 249.02,-736.3 250.63,-729.49"/>
</g>
<!-- fcos -->
<g id="node6" class="node">
<title>fcos</title>
<g id="a_node6"><a xlink:href="https://github.com/conda-forge/fcos-feedstock" xlink:title="fcos">
<ellipse fill="#fde725" stroke="black" cx="301.05" cy="-718" rx="29.5" ry="18"/>
<text text-anchor="middle" x="301.05" y="-714.3" font-family="Times,serif" font-size="14.00">fcos</text>
</a>
</g>
</g>
<!-- torchvision&#45;&gt;fcos -->
<g id="edge3" class="edge">
<title>torchvision&#45;&gt;fcos</title>
<path fill="none" stroke="black" d="M454.67,-776.22C422.79,-766.09 377.76,-751.15 339.05,-736 337.49,-735.39 335.91,-734.75 334.31,-734.1"/>
<polygon fill="black" stroke="black" points="335.77,-730.91 325.2,-730.2 333.01,-737.35 335.77,-730.91"/>
</g>
<!-- fairscale -->
<g id="node7" class="node">
<title>fairscale</title>
<g id="a_node7"><a xlink:href="https://github.com/conda-forge/fairscale-feedstock" xlink:title="fairscale">
<ellipse fill="#fde725" stroke="black" cx="398.05" cy="-718" rx="50.09" ry="18"/>
<text text-anchor="middle" x="398.05" y="-714.3" font-family="Times,serif" font-size="14.00">fairscale</text>
</a>
</g>
</g>
<!-- torchvision&#45;&gt;fairscale -->
<g id="edge4" class="edge">
<title>torchvision&#45;&gt;fairscale</title>
<path fill="none" stroke="black" d="M473.32,-772.76C460.14,-763.36 443.38,-751.38 429.01,-741.12"/>
<polygon fill="black" stroke="black" points="431.38,-738.51 421.21,-735.55 427.31,-744.21 431.38,-738.51"/>
</g>
<!-- graphvite -->
<g id="node8" class="node">
<title>graphvite</title>
<g id="a_node8"><a xlink:href="https://github.com/conda-forge/graphvite-feedstock" xlink:title="graphvite">
<ellipse fill="#fde725" stroke="black" cx="680.05" cy="-718" rx="56" ry="18"/>
<text text-anchor="middle" x="680.05" y="-714.3" font-family="Times,serif" font-size="14.00">graphvite</text>
</a>
</g>
</g>
<!-- torchvision&#45;&gt;graphvite -->
<g id="edge5" class="edge">
<title>torchvision&#45;&gt;graphvite</title>
<path fill="none" stroke="black" d="M532.84,-775C562.02,-763.9 602.95,-748.33 634.24,-736.42"/>
<polygon fill="black" stroke="black" points="635.36,-739.74 643.46,-732.92 632.87,-733.2 635.36,-739.74"/>
</g>
<!-- mmcv&#45;recipe -->
<g id="node9" class="node">
<title>mmcv&#45;recipe</title>
<g id="a_node9"><a xlink:href="https://github.com/conda-forge/mmcv-recipe-feedstock" xlink:title="mmcv recipe">
<ellipse fill="#fde725" stroke="black" cx="536.05" cy="-718" rx="70.39" ry="18"/>
<text text-anchor="middle" x="536.05" y="-714.3" font-family="Times,serif" font-size="14.00">mmcv recipe</text>
</a>
</g>
</g>
<!-- torchvision&#45;&gt;mmcv&#45;recipe -->
<g id="edge6" class="edge">
<title>torchvision&#45;&gt;mmcv&#45;recipe</title>
<path fill="none" stroke="black" d="M505.73,-772.05C510.18,-764.26 515.58,-754.82 520.57,-746.08"/>
<polygon fill="black" stroke="black" points="523.5,-748.01 525.42,-737.59 517.42,-744.54 523.5,-748.01"/>
</g>
<!-- prismatic_split -->
<g id="node13" class="node">
<title>prismatic_split</title>
<g id="a_node13"><a xlink:href="https://github.com/conda-forge/prismatic_split-feedstock" xlink:title="prismatic_split">
<ellipse fill="#fde725" stroke="black" cx="2679.05" cy="-826" rx="79.5" ry="18"/>
<text text-anchor="middle" x="2679.05" y="-822.3" font-family="Times,serif" font-size="14.00">prismatic_split</text>
</a>
</g>
</g>
<!-- conda&#45;forge&#45;ci&#45;setup&#45;&gt;prismatic_split -->
<!-- tensorflow -->
<g id="node11" class="node">
<title>tensorflow</title>
<g id="a_node11"><a xlink:href="https://github.com/conda-forge/tensorflow-feedstock" xlink:title="tensorflow">
<ellipse fill="#fde725" stroke="black" cx="1283.05" cy="-90" rx="60" ry="18"/>
<text text-anchor="middle" x="1283.05" y="-86.3" font-family="Times,serif" font-size="14.00">tensorflow</text>
</a>
</g>
</g>
<!-- deepmd&#45;kit -->
<g id="node12" class="node">
<title>deepmd&#45;kit</title>
<g id="a_node12"><a xlink:href="https://github.com/conda-forge/deepmd-kit-feedstock" xlink:title="deepmd kit">
<ellipse fill="#fde725" stroke="black" cx="1283.05" cy="-18" rx="63.09" ry="18"/>
<text text-anchor="middle" x="1283.05" y="-14.3" font-family="Times,serif" font-size="14.00">deepmd kit</text>
</a>
</g>
</g>
<!-- tensorflow&#45;&gt;deepmd&#45;kit -->
<g id="edge8" class="edge">
<title>tensorflow&#45;&gt;deepmd&#45;kit</title>
<path fill="none" stroke="black" d="M1283.05,-71.7C1283.05,-64.41 1283.05,-55.73 1283.05,-47.54"/>
<polygon fill="black" stroke="black" points="1286.55,-47.62 1283.05,-37.62 1279.55,-47.62 1286.55,-47.62"/>
</g>
<!-- cudadecon -->
<g id="node38" class="node">
<title>cudadecon</title>
<g id="a_node38"><a xlink:href="https://github.com/conda-forge/cudadecon-feedstock" xlink:title="cudadecon">
<ellipse fill="#fde725" stroke="black" cx="2679.05" cy="-754" rx="60" ry="18"/>
<text text-anchor="middle" x="2679.05" y="-750.3" font-family="Times,serif" font-size="14.00">cudadecon</text>
</a>
</g>
</g>
<!-- prismatic_split&#45;&gt;cudadecon -->
<!-- hoomd -->
<g id="node14" class="node">
<title>hoomd</title>
<g id="a_node14"><a xlink:href="https://github.com/conda-forge/hoomd-feedstock" xlink:title="hoomd">
<ellipse fill="#fde725" stroke="black" cx="2679.05" cy="-242" rx="42.49" ry="18"/>
<text text-anchor="middle" x="2679.05" y="-238.3" font-family="Times,serif" font-size="14.00">hoomd</text>
</a>
</g>
</g>
<!-- hoomd&#45;dlext -->
<g id="node15" class="node">
<title>hoomd&#45;dlext</title>
<g id="a_node15"><a xlink:href="https://github.com/conda-forge/hoomd-dlext-feedstock" xlink:title="hoomd dlext">
<ellipse fill="#fde725" stroke="black" cx="2679.05" cy="-170" rx="68.49" ry="18"/>
<text text-anchor="middle" x="2679.05" y="-166.3" font-family="Times,serif" font-size="14.00">hoomd dlext</text>
</a>
</g>
</g>
<!-- hoomd&#45;&gt;hoomd&#45;dlext -->
<g id="edge10" class="edge">
<title>hoomd&#45;&gt;hoomd&#45;dlext</title>
<path fill="none" stroke="black" d="M2679.05,-223.7C2679.05,-216.41 2679.05,-207.73 2679.05,-199.54"/>
<polygon fill="black" stroke="black" points="2682.55,-199.62 2679.05,-189.62 2675.55,-199.62 2682.55,-199.62"/>
</g>
<!-- pytorch&#45;cpu -->
<g id="node16" class="node">
<title>pytorch&#45;cpu</title>
<g id="a_node16"><a xlink:href="https://github.com/conda-forge/pytorch-cpu-feedstock" xlink:title="pytorch cpu">
<ellipse fill="#fde725" stroke="black" cx="977.05" cy="-862" rx="65.79" ry="18"/>
<text text-anchor="middle" x="977.05" y="-858.3" font-family="Times,serif" font-size="14.00">pytorch cpu</text>
</a>
</g>
</g>
<!-- pytorch&#45;cpu&#45;&gt;torchvision -->
<g id="edge11" class="edge">
<title>pytorch&#45;cpu&#45;&gt;torchvision</title>
<path fill="none" stroke="black" d="M929.2,-849.3C920.21,-847.35 910.87,-845.48 902.05,-844 756.97,-819.7 718.19,-831.89 573.05,-808 566.97,-807 560.65,-805.83 554.36,-804.57"/>
<polygon fill="black" stroke="black" points="555.11,-801.15 544.61,-802.55 553.69,-808.01 555.11,-801.15"/>
</g>
<!-- pytorch&#45;cpu&#45;&gt;detectron2 -->
<g id="edge12" class="edge">
<title>pytorch&#45;cpu&#45;&gt;detectron2</title>
<path fill="none" stroke="black" d="M929.64,-849.1C920.53,-847.14 911.03,-845.32 902.05,-844 787.23,-827.12 485.6,-858.37 381.05,-808 361.49,-798.58 366.22,-783.86 348.05,-772 330.93,-760.83 284.32,-745.62 246.47,-734.35"/>
<polygon fill="black" stroke="black" points="247.59,-731.04 237.01,-731.57 245.61,-737.75 247.59,-731.04"/>
</g>
<!-- pytorch&#45;cpu&#45;&gt;fcos -->
<g id="edge13" class="edge">
<title>pytorch&#45;cpu&#45;&gt;fcos</title>
<path fill="none" stroke="black" d="M929.64,-849.14C920.52,-847.18 911.02,-845.35 902.05,-844 796.92,-828.21 523.74,-847.48 425.05,-808 401.59,-798.62 401.38,-787 381.05,-772 364.77,-760 345.94,-747.46 330.64,-737.59"/>
<polygon fill="black" stroke="black" points="332.74,-734.78 322.43,-732.34 328.97,-740.68 332.74,-734.78"/>
</g>
<!-- pytorch&#45;cpu&#45;&gt;fairscale -->
<g id="edge14" class="edge">
<title>pytorch&#45;cpu&#45;&gt;fairscale</title>
<path fill="none" stroke="black" d="M929.18,-849.38C920.2,-847.42 910.86,-845.53 902.05,-844 771.04,-821.27 725,-865.38 605.05,-808 584.35,-798.1 587.76,-783.74 568.05,-772 562.62,-768.77 494.96,-748.1 446.66,-733.55"/>
<polygon fill="black" stroke="black" points="447.8,-730.24 437.21,-730.71 445.78,-736.94 447.8,-730.24"/>
</g>
<!-- pytorch&#45;cpu&#45;&gt;graphvite -->
<g id="edge15" class="edge">
<title>pytorch&#45;cpu&#45;&gt;graphvite</title>
<path fill="none" stroke="black" d="M928.32,-849.5C919.59,-847.57 910.56,-845.66 902.05,-844 853.42,-834.52 714.55,-845.39 682.05,-808 667.94,-791.77 668.58,-766.9 672.1,-747.57"/>
<polygon fill="black" stroke="black" points="675.5,-748.37 674.23,-737.85 668.67,-746.87 675.5,-748.37"/>
</g>
<!-- pytorch&#45;cpu&#45;&gt;mmcv&#45;recipe -->
<g id="edge16" class="edge">
<title>pytorch&#45;cpu&#45;&gt;mmcv&#45;recipe</title>
<path fill="none" stroke="black" d="M928.74,-849.51C919.88,-847.56 910.71,-845.64 902.05,-844 797.36,-824.21 764.09,-847.25 665.05,-808 644.42,-799.82 597.7,-765.93 566.52,-742.41"/>
<polygon fill="black" stroke="black" points="568.67,-739.66 558.59,-736.4 564.44,-745.23 568.67,-739.66"/>
</g>
<!-- nvidia&#45;apex -->
<g id="node17" class="node">
<title>nvidia&#45;apex</title>
<g id="a_node17"><a xlink:href="https://github.com/conda-forge/nvidia-apex-feedstock" xlink:title="nvidia apex">
<ellipse fill="#fde725" stroke="black" cx="755.05" cy="-790" rx="63.89" ry="18"/>
<text text-anchor="middle" x="755.05" y="-786.3" font-family="Times,serif" font-size="14.00">nvidia apex</text>
</a>
</g>
</g>
<!-- pytorch&#45;cpu&#45;&gt;nvidia&#45;apex -->
<g id="edge17" class="edge">
<title>pytorch&#45;cpu&#45;&gt;nvidia&#45;apex</title>
<path fill="none" stroke="black" d="M935.03,-847.75C898.8,-836.33 846.32,-819.78 807.37,-807.5"/>
<polygon fill="black" stroke="black" points="808.55,-804.2 797.96,-804.53 806.44,-810.88 808.55,-804.2"/>
</g>
<!-- pytorch_cluster -->
<g id="node18" class="node">
<title>pytorch_cluster</title>
<g id="a_node18"><a xlink:href="https://github.com/conda-forge/pytorch_cluster-feedstock" xlink:title="pytorch_cluster">
<ellipse fill="#fde725" stroke="black" cx="961.05" cy="-718" rx="83.39" ry="18"/>
<text text-anchor="middle" x="961.05" y="-714.3" font-family="Times,serif" font-size="14.00">pytorch_cluster</text>
</a>
</g>
</g>
<!-- pytorch&#45;cpu&#45;&gt;pytorch_cluster -->
<g id="edge18" class="edge">
<title>pytorch&#45;cpu&#45;&gt;pytorch_cluster</title>
<path fill="none" stroke="black" d="M975.08,-843.59C972.38,-819.61 967.49,-776.14 964.25,-747.42"/>
<polygon fill="black" stroke="black" points="967.74,-747.16 963.14,-737.61 960.79,-747.94 967.74,-747.16"/>
</g>
<!-- pytorch_scatter -->
<g id="node19" class="node">
<title>pytorch_scatter</title>
<g id="a_node19"><a xlink:href="https://github.com/conda-forge/pytorch_scatter-feedstock" xlink:title="pytorch_scatter">
<ellipse fill="#fde725" stroke="black" cx="1064.05" cy="-646" rx="83.39" ry="18"/>
<text text-anchor="middle" x="1064.05" y="-642.3" font-family="Times,serif" font-size="14.00">pytorch_scatter</text>
</a>
</g>
</g>
<!-- pytorch&#45;cpu&#45;&gt;pytorch_scatter -->
<g id="edge19" class="edge">
<title>pytorch&#45;cpu&#45;&gt;pytorch_scatter</title>
<path fill="none" stroke="black" d="M1026.44,-849.75C1048.69,-841.95 1072.88,-829.05 1086.05,-808 1111.84,-766.78 1092.93,-708.09 1077.82,-674.13"/>
<polygon fill="black" stroke="black" points="1081.15,-672.99 1073.75,-665.4 1074.8,-675.95 1081.15,-672.99"/>
</g>
<!-- pytorch_spline_conv -->
<g id="node20" class="node">
<title>pytorch_spline_conv</title>
<g id="a_node20"><a xlink:href="https://github.com/conda-forge/pytorch_spline_conv-feedstock" xlink:title="pytorch_spline_conv">
<ellipse fill="#fde725" stroke="black" cx="1175.05" cy="-574" rx="104.78" ry="18"/>
<text text-anchor="middle" x="1175.05" y="-570.3" font-family="Times,serif" font-size="14.00">pytorch_spline_conv</text>
</a>
</g>
</g>
<!-- pytorch&#45;cpu&#45;&gt;pytorch_spline_conv -->
<g id="edge20" class="edge">
<title>pytorch&#45;cpu&#45;&gt;pytorch_spline_conv</title>
<path fill="none" stroke="black" d="M1028.3,-850.32C1054.34,-842.53 1084.68,-829.46 1105.05,-808 1159.61,-750.51 1171.8,-652.1 1174.41,-603.65"/>
<polygon fill="black" stroke="black" points="1177.91,-603.85 1174.83,-593.71 1170.91,-603.55 1177.91,-603.85"/>
</g>
<!-- pytorch_sparse -->
<g id="node21" class="node">
<title>pytorch_sparse</title>
<g id="a_node21"><a xlink:href="https://github.com/conda-forge/pytorch_sparse-feedstock" xlink:title="pytorch_sparse">
<ellipse fill="#fde725" stroke="black" cx="962.05" cy="-574" rx="81.49" ry="18"/>
<text text-anchor="middle" x="962.05" y="-570.3" font-family="Times,serif" font-size="14.00">pytorch_sparse</text>
</a>
</g>
</g>
<!-- pytorch&#45;cpu&#45;&gt;pytorch_sparse -->
<g id="edge21" class="edge">
<title>pytorch&#45;cpu&#45;&gt;pytorch_sparse</title>
<path fill="none" stroke="black" d="M995.48,-844.71C1027.08,-814.76 1085.22,-749.5 1053.05,-700 1031.58,-666.97 995.33,-695.78 972.05,-664 959.4,-646.73 957.46,-622.31 958.37,-603.41"/>
<polygon fill="black" stroke="black" points="961.84,-603.95 959.15,-593.7 954.86,-603.39 961.84,-603.95"/>
</g>
<!-- torchani -->
<g id="node22" class="node">
<title>torchani</title>
<g id="a_node22"><a xlink:href="https://github.com/conda-forge/torchani-feedstock" xlink:title="torchani">
<ellipse fill="#fde725" stroke="black" cx="1367.05" cy="-502" rx="49.5" ry="18"/>
<text text-anchor="middle" x="1367.05" y="-498.3" font-family="Times,serif" font-size="14.00">torchani</text>
</a>
</g>
</g>
<!-- pytorch&#45;cpu&#45;&gt;torchani -->
<g id="edge22" class="edge">
<title>pytorch&#45;cpu&#45;&gt;torchani</title>
<path fill="none" stroke="black" d="M1042.74,-860.02C1130.91,-857.21 1280.69,-846.69 1317.05,-808 1333.55,-790.43 1323.53,-723.85 1327.05,-700 1335.99,-639.3 1351.52,-569.06 1360.36,-531.01"/>
<polygon fill="black" stroke="black" points="1363.66,-532.29 1362.54,-521.76 1356.84,-530.69 1363.66,-532.29"/>
</g>
<!-- openmm&#45;torch -->
<g id="node23" class="node">
<title>openmm&#45;torch</title>
<g id="a_node23"><a xlink:href="https://github.com/conda-forge/openmm-torch-feedstock" xlink:title="openmm torch">
<ellipse fill="#fde725" stroke="black" cx="1650.05" cy="-790" rx="78" ry="18"/>
<text text-anchor="middle" x="1650.05" y="-786.3" font-family="Times,serif" font-size="14.00">openmm torch</text>
</a>
</g>
</g>
<!-- pytorch&#45;cpu&#45;&gt;openmm&#45;torch -->
<g id="edge23" class="edge">
<title>pytorch&#45;cpu&#45;&gt;openmm&#45;torch</title>
<path fill="none" stroke="black" d="M1040.88,-857.1C1148.08,-850.12 1370.91,-833.77 1558.05,-808 1565.51,-806.97 1573.28,-805.76 1581.01,-804.46"/>
<polygon fill="black" stroke="black" points="1581.52,-807.93 1590.78,-802.77 1580.33,-801.03 1581.52,-807.93"/>
</g>
<!-- torchsparse -->
<g id="node24" class="node">
<title>torchsparse</title>
<g id="a_node24"><a xlink:href="https://github.com/conda-forge/torchsparse-feedstock" xlink:title="torchsparse">
<ellipse fill="#fde725" stroke="black" cx="1242.05" cy="-790" rx="65.79" ry="18"/>
<text text-anchor="middle" x="1242.05" y="-786.3" font-family="Times,serif" font-size="14.00">torchsparse</text>
</a>
</g>
</g>
<!-- pytorch&#45;cpu&#45;&gt;torchsparse -->
<g id="edge24" class="edge">
<title>pytorch&#45;cpu&#45;&gt;torchsparse</title>
<path fill="none" stroke="black" d="M1023.21,-848.81C1068.19,-836.92 1136.7,-818.83 1185.06,-806.05"/>
<polygon fill="black" stroke="black" points="1185.73,-809.5 1194.51,-803.56 1183.95,-802.73 1185.73,-809.5"/>
</g>
<!-- torch&#45;scatter -->
<g id="node25" class="node">
<title>torch&#45;scatter</title>
<g id="a_node25"><a xlink:href="https://github.com/conda-forge/torch-scatter-feedstock" xlink:title="torch scatter">
<ellipse fill="#fde725" stroke="black" cx="1407.05" cy="-718" rx="71" ry="18"/>
<text text-anchor="middle" x="1407.05" y="-714.3" font-family="Times,serif" font-size="14.00">torch scatter</text>
</a>
</g>
</g>
<!-- pytorch&#45;cpu&#45;&gt;torch&#45;scatter -->
<g id="edge25" class="edge">
<title>pytorch&#45;cpu&#45;&gt;torch&#45;scatter</title>
<path fill="none" stroke="black" d="M1041.9,-858.24C1134.87,-853.21 1300.32,-839.96 1350.05,-808 1372.32,-793.69 1387.59,-767.24 1396.68,-746.88"/>
<polygon fill="black" stroke="black" points="1399.89,-748.28 1400.51,-737.71 1393.43,-745.58 1399.89,-748.28"/>
</g>
<!-- kaolin -->
<g id="node26" class="node">
<title>kaolin</title>
<g id="a_node26"><a xlink:href="https://github.com/conda-forge/kaolin-feedstock" xlink:title="kaolin">
<ellipse fill="#fde725" stroke="black" cx="1477.05" cy="-646" rx="38.5" ry="18"/>
<text text-anchor="middle" x="1477.05" y="-642.3" font-family="Times,serif" font-size="14.00">kaolin</text>
</a>
</g>
</g>
<!-- pytorch&#45;cpu&#45;&gt;kaolin -->
<g id="edge26" class="edge">
<title>pytorch&#45;cpu&#45;&gt;kaolin</title>
<path fill="none" stroke="black" d="M1043.14,-861.47C1124.87,-860.02 1267.01,-850.74 1380.05,-808 1433.66,-787.73 1460.11,-786.6 1487.05,-736 1497.04,-717.22 1493.5,-693.09 1488.03,-674.7"/>
<polygon fill="black" stroke="black" points="1491.36,-673.62 1484.86,-665.25 1484.73,-675.85 1491.36,-673.62"/>
</g>
<!-- nnpops -->
<g id="node27" class="node">
<title>nnpops</title>
<g id="a_node27"><a xlink:href="https://github.com/conda-forge/nnpops-feedstock" xlink:title="nnpops">
<ellipse fill="#fde725" stroke="black" cx="1485.05" cy="-430" rx="44.39" ry="18"/>
<text text-anchor="middle" x="1485.05" y="-426.3" font-family="Times,serif" font-size="14.00">nnpops</text>
</a>
</g>
</g>
<!-- pytorch&#45;cpu&#45;&gt;nnpops -->
<g id="edge27" class="edge">
<title>pytorch&#45;cpu&#45;&gt;nnpops</title>
<path fill="none" stroke="black" d="M1041.41,-857.91C1149.83,-851.97 1363.83,-836.92 1433.05,-808 1491.39,-783.62 1544.05,-782.23 1544.05,-719 1544.05,-719 1544.05,-719 1544.05,-573 1544.05,-529.92 1520.6,-484.72 1503.27,-457.2"/>
<polygon fill="black" stroke="black" points="1506.2,-455.29 1497.81,-448.82 1500.34,-459.11 1506.2,-455.29"/>
</g>
<!-- triton -->
<g id="node28" class="node">
<title>triton</title>
<g id="a_node28"><a xlink:href="https://github.com/conda-forge/triton-feedstock" xlink:title="triton">
<ellipse fill="#fde725" stroke="black" cx="37.05" cy="-574" rx="37.09" ry="18"/>
<text text-anchor="middle" x="37.05" y="-570.3" font-family="Times,serif" font-size="14.00">triton</text>
</a>
</g>
</g>
<!-- pytorch&#45;cpu&#45;&gt;triton -->
<g id="edge28" class="edge">
<title>pytorch&#45;cpu&#45;&gt;triton</title>
<path fill="none" stroke="black" d="M930.07,-849C920.83,-847.03 911.18,-845.23 902.05,-844 812.32,-831.95 157.3,-866.31 88.05,-808 27.91,-757.37 28.92,-653.69 33.46,-603.49"/>
<polygon fill="black" stroke="black" points="36.92,-604.04 34.46,-593.73 29.95,-603.32 36.92,-604.04"/>
</g>
<!-- openmmtorchplugin -->
<g id="node29" class="node">
<title>openmmtorchplugin</title>
<g id="a_node29"><a xlink:href="https://github.com/conda-forge/openmmtorchplugin-feedstock" xlink:title="openmmtorchplugin">
<ellipse fill="#fde725" stroke="black" cx="1851.05" cy="-790" rx="104.78" ry="18"/>
<text text-anchor="middle" x="1851.05" y="-786.3" font-family="Times,serif" font-size="14.00">openmmtorchplugin</text>
</a>
</g>
</g>
<!-- pytorch&#45;cpu&#45;&gt;openmmtorchplugin -->
<g id="edge29" class="edge">
<title>pytorch&#45;cpu&#45;&gt;openmmtorchplugin</title>
<path fill="none" stroke="black" d="M1041.76,-858.2C1173.11,-852.14 1480.33,-836.05 1737.05,-808 1746.2,-807 1755.74,-805.81 1765.24,-804.53"/>
<polygon fill="black" stroke="black" points="1765.42,-808.04 1774.84,-803.2 1764.46,-801.11 1765.42,-808.04"/>
</g>
<!-- molgrid -->
<g id="node30" class="node">
<title>molgrid</title>
<g id="a_node30"><a xlink:href="https://github.com/conda-forge/molgrid-feedstock" xlink:title="molgrid">
<ellipse fill="#fde725" stroke="black" cx="102.05" cy="-502" rx="47" ry="18"/>
<text text-anchor="middle" x="102.05" y="-498.3" font-family="Times,serif" font-size="14.00">molgrid</text>
</a>
</g>
</g>
<!-- pytorch&#45;cpu&#45;&gt;molgrid -->
<g id="edge30" class="edge">
<title>pytorch&#45;cpu&#45;&gt;molgrid</title>
<path fill="none" stroke="black" d="M930.06,-849.06C920.83,-847.08 911.17,-845.26 902.05,-844 750.4,-823 357.57,-861.29 214.05,-808 154.44,-785.87 102.05,-782.58 102.05,-719 102.05,-719 102.05,-719 102.05,-645 102.05,-605.74 102.05,-560.38 102.05,-531.69"/>
<polygon fill="black" stroke="black" points="105.55,-532 102.05,-522 98.55,-532 105.55,-532"/>
</g>
<!-- theseus&#45;ai -->
<g id="node31" class="node">
<title>theseus&#45;ai</title>
<g id="a_node31"><a xlink:href="https://github.com/conda-forge/theseus-ai-feedstock" xlink:title="theseus ai">
<ellipse fill="#fde725" stroke="black" cx="281.05" cy="-790" rx="58" ry="18"/>
<text text-anchor="middle" x="281.05" y="-786.3" font-family="Times,serif" font-size="14.00">theseus ai</text>
</a>
</g>
</g>
<!-- pytorch&#45;cpu&#45;&gt;theseus&#45;ai -->
<g id="edge31" class="edge">
<title>pytorch&#45;cpu&#45;&gt;theseus&#45;ai</title>
<path fill="none" stroke="black" d="M929.65,-849.07C920.53,-847.12 911.03,-845.3 902.05,-844 660.06,-808.86 594.87,-844.22 353.05,-808 347.32,-807.14 341.37,-806.06 335.47,-804.86"/>
<polygon fill="black" stroke="black" points="336.22,-801.44 325.7,-802.74 334.74,-808.28 336.22,-801.44"/>
</g>
<!-- pytorch_scatter&#45;&gt;pytorch_sparse -->
<g id="edge32" class="edge">
<title>pytorch_scatter&#45;&gt;pytorch_sparse</title>
<path fill="none" stroke="black" d="M1039.87,-628.41C1026.54,-619.26 1009.78,-607.76 995.23,-597.77"/>
<polygon fill="black" stroke="black" points="997.52,-595.1 987.29,-592.33 993.56,-600.87 997.52,-595.1"/>
</g>
<!-- torchani&#45;&gt;nnpops -->
<g id="edge33" class="edge">
<title>torchani&#45;&gt;nnpops</title>
<path fill="none" stroke="black" d="M1392.07,-486.15C1409.28,-475.95 1432.33,-462.28 1451.17,-451.1"/>
<polygon fill="black" stroke="black" points="1452.75,-454.23 1459.56,-446.12 1449.18,-448.21 1452.75,-454.23"/>
</g>
<!-- openmm -->
<g id="node32" class="node">
<title>openmm</title>
<g id="a_node32"><a xlink:href="https://github.com/conda-forge/openmm-feedstock" xlink:title="openmm">
<ellipse fill="#000000" stroke="black" cx="2101.05" cy="-862" rx="50.89" ry="18"/>
<text text-anchor="middle" x="2101.05" y="-858.3" font-family="Times,serif" font-size="14.00" fill="white">openmm</text>
</a>
</g>
</g>
<!-- openmm&#45;&gt;openmm&#45;torch -->
<g id="edge34" class="edge">
<title>openmm&#45;&gt;openmm&#45;torch</title>
<path fill="none" stroke="black" d="M2053.81,-854.87C1984.28,-845.67 1850.36,-827.31 1737.05,-808 1730.98,-806.97 1724.68,-805.84 1718.38,-804.68"/>
<polygon fill="black" stroke="black" points="1719.03,-801.24 1708.56,-802.83 1717.74,-808.12 1719.03,-801.24"/>
</g>
<!-- openmm&#45;&gt;openmmtorchplugin -->
<g id="edge35" class="edge">
<title>openmm&#45;&gt;openmmtorchplugin</title>
<path fill="none" stroke="black" d="M2061.98,-850.06C2022.7,-839.06 1961.46,-821.92 1915.07,-808.93"/>
<polygon fill="black" stroke="black" points="1916.25,-805.62 1905.68,-806.3 1914.36,-812.36 1916.25,-805.62"/>
</g>
<!-- openmm&#45;plumed -->
<g id="node33" class="node">
<title>openmm&#45;plumed</title>
<g id="a_node33"><a xlink:href="https://github.com/conda-forge/openmm-plumed-feedstock" xlink:title="openmm plumed">
<ellipse fill="#fde725" stroke="black" cx="2101.05" cy="-790" rx="88.5" ry="18"/>
<text text-anchor="middle" x="2101.05" y="-786.3" font-family="Times,serif" font-size="14.00">openmm plumed</text>
</a>
</g>
</g>
<!-- openmm&#45;&gt;openmm&#45;plumed -->
<g id="edge36" class="edge">
<title>openmm&#45;&gt;openmm&#45;plumed</title>
<path fill="none" stroke="black" d="M2101.05,-843.7C2101.05,-836.41 2101.05,-827.73 2101.05,-819.54"/>
<polygon fill="black" stroke="black" points="2104.55,-819.62 2101.05,-809.62 2097.55,-819.62 2104.55,-819.62"/>
</g>
<!-- meld -->
<g id="node34" class="node">
<title>meld</title>
<g id="a_node34"><a xlink:href="https://github.com/conda-forge/meld-feedstock" xlink:title="meld">
<ellipse fill="#fde725" stroke="black" cx="2206.05" cy="-718" rx="34" ry="18"/>
<text text-anchor="middle" x="2206.05" y="-714.3" font-family="Times,serif" font-size="14.00">meld</text>
</a>
</g>
</g>
<!-- openmm&#45;&gt;meld -->
<g id="edge37" class="edge">
<title>openmm&#45;&gt;meld</title>
<path fill="none" stroke="black" d="M2139.92,-850.07C2161.05,-842 2185.55,-828.75 2199.05,-808 2210.56,-790.31 2211.8,-766.26 2210.45,-747.62"/>
<polygon fill="black" stroke="black" points="2213.94,-747.36 2209.42,-737.77 2206.98,-748.08 2213.94,-747.36"/>
</g>
<!-- seekr2_openmm_plugin -->
<g id="node35" class="node">
<title>seekr2_openmm_plugin</title>
<g id="a_node35"><a xlink:href="https://github.com/conda-forge/seekr2_openmm_plugin-feedstock" xlink:title="seekr2_openmm_plugin">
<ellipse fill="#fde725" stroke="black" cx="2268.05" cy="-646" rx="120.48" ry="18"/>
<text text-anchor="middle" x="2268.05" y="-642.3" font-family="Times,serif" font-size="14.00">seekr2_openmm_plugin</text>
</a>
</g>
</g>
<!-- openmm&#45;&gt;seekr2_openmm_plugin -->
<g id="edge38" class="edge">
<title>openmm&#45;&gt;seekr2_openmm_plugin</title>
<path fill="none" stroke="black" d="M2141.73,-850.71C2166.5,-842.65 2197.27,-829.17 2218.05,-808 2253.5,-771.87 2263.87,-711.08 2266.87,-675.43"/>
<polygon fill="black" stroke="black" points="2270.33,-676.11 2267.52,-665.89 2263.35,-675.63 2270.33,-676.11"/>
</g>
<!-- openmm&#45;atmmetaforce&#45;plugin -->
<g id="node36" class="node">
<title>openmm&#45;atmmetaforce&#45;plugin</title>
<g id="a_node36"><a xlink:href="https://github.com/conda-forge/openmm-atmmetaforce-plugin-feedstock" xlink:title="openmm atmmetaforce plugin">
<ellipse fill="#fde725" stroke="black" cx="2416.05" cy="-574" rx="151" ry="18"/>
<text text-anchor="middle" x="2416.05" y="-570.3" font-family="Times,serif" font-size="14.00">openmm atmmetaforce plugin</text>
</a>
</g>
</g>
<!-- openmm&#45;&gt;openmm&#45;atmmetaforce&#45;plugin -->
<g id="edge39" class="edge">
<title>openmm&#45;&gt;openmm&#45;atmmetaforce&#45;plugin</title>
<path fill="none" stroke="black" d="M2141.24,-850.63C2170.78,-841.93 2211.17,-827.74 2243.05,-808 2322.71,-758.66 2350.92,-745.57 2397.05,-664 2407.46,-645.59 2412.18,-622.09 2414.31,-603.86"/>
<polygon fill="black" stroke="black" points="2417.79,-604.28 2415.25,-593.99 2410.82,-603.61 2417.79,-604.28"/>
</g>
<!-- openmm&#45;dlext -->
<g id="node37" class="node">
<title>openmm&#45;dlext</title>
<g id="a_node37"><a xlink:href="https://github.com/conda-forge/openmm-dlext-feedstock" xlink:title="openmm dlext">
<ellipse fill="#fde725" stroke="black" cx="1984.05" cy="-502" rx="77.5" ry="18"/>
<text text-anchor="middle" x="1984.05" y="-498.3" font-family="Times,serif" font-size="14.00">openmm dlext</text>
</a>
</g>
</g>
<!-- openmm&#45;&gt;openmm&#45;dlext -->
<g id="edge40" class="edge">
<title>openmm&#45;&gt;openmm&#45;dlext</title>
<path fill="none" stroke="black" d="M2064.12,-849.41C2043.46,-841.07 2018.95,-827.77 2004.05,-808 1979.64,-775.62 1984.05,-759.54 1984.05,-719 1984.05,-719 1984.05,-719 1984.05,-645 1984.05,-605.74 1984.05,-560.38 1984.05,-531.69"/>
<polygon fill="black" stroke="black" points="1987.55,-532 1984.05,-522 1980.55,-532 1987.55,-532"/>
</g>
<!-- cudasirecon -->
<g id="node46" class="node">
<title>cudasirecon</title>
<g id="a_node46"><a xlink:href="https://github.com/conda-forge/cudasirecon-feedstock" xlink:title="cudasirecon">
<ellipse fill="#fde725" stroke="black" cx="2679.05" cy="-682" rx="66.5" ry="18"/>
<text text-anchor="middle" x="2679.05" y="-678.3" font-family="Times,serif" font-size="14.00">cudasirecon</text>
</a>
</g>
</g>
<!-- cudadecon&#45;&gt;cudasirecon -->
<!-- pp&#45;sketchlib -->
<g id="node39" class="node">
<title>pp&#45;sketchlib</title>
<g id="a_node39"><a xlink:href="https://github.com/conda-forge/pp-sketchlib-feedstock" xlink:title="pp sketchlib">
<ellipse fill="#fde725" stroke="black" cx="2859.05" cy="-242" rx="67.69" ry="18"/>
<text text-anchor="middle" x="2859.05" y="-238.3" font-family="Times,serif" font-size="14.00">pp sketchlib</text>
</a>
</g>
</g>
<!-- mandrake -->
<g id="node40" class="node">
<title>mandrake</title>
<g id="a_node40"><a xlink:href="https://github.com/conda-forge/mandrake-feedstock" xlink:title="mandrake">
<ellipse fill="#fde725" stroke="black" cx="2859.05" cy="-170" rx="57.39" ry="18"/>
<text text-anchor="middle" x="2859.05" y="-166.3" font-family="Times,serif" font-size="14.00">mandrake</text>
</a>
</g>
</g>
<!-- pp&#45;sketchlib&#45;&gt;mandrake -->
<g id="edge42" class="edge">
<title>pp&#45;sketchlib&#45;&gt;mandrake</title>
<path fill="none" stroke="black" d="M2859.05,-223.7C2859.05,-216.41 2859.05,-207.73 2859.05,-199.54"/>
<polygon fill="black" stroke="black" points="2862.55,-199.62 2859.05,-189.62 2855.55,-199.62 2862.55,-199.62"/>
</g>
<!-- faiss&#45;split -->
<g id="node41" class="node">
<title>faiss&#45;split</title>
<g id="a_node41"><a xlink:href="https://github.com/conda-forge/faiss-split-feedstock" xlink:title="faiss split">
<ellipse fill="#fde725" stroke="black" cx="893.05" cy="-790" rx="56" ry="18"/>
<text text-anchor="middle" x="893.05" y="-786.3" font-family="Times,serif" font-size="14.00">faiss split</text>
</a>
</g>
</g>
<!-- faiss&#45;split&#45;&gt;graphvite -->
<g id="edge43" class="edge">
<title>faiss&#45;split&#45;&gt;graphvite</title>
<path fill="none" stroke="black" d="M854.97,-776.49C819.79,-764.92 767.34,-747.69 729.05,-735.1"/>
<polygon fill="black" stroke="black" points="730.19,-731.79 719.59,-732 728,-738.44 730.19,-731.79"/>
</g>
<!-- tsnecuda -->
<g id="node42" class="node">
<title>tsnecuda</title>
<g id="a_node42"><a xlink:href="https://github.com/conda-forge/tsnecuda-feedstock" xlink:title="tsnecuda">
<ellipse fill="#fde725" stroke="black" cx="807.05" cy="-718" rx="52.79" ry="18"/>
<text text-anchor="middle" x="807.05" y="-714.3" font-family="Times,serif" font-size="14.00">tsnecuda</text>
</a>
</g>
</g>
<!-- faiss&#45;split&#45;&gt;tsnecuda -->
<g id="edge44" class="edge">
<title>faiss&#45;split&#45;&gt;tsnecuda</title>
<path fill="none" stroke="black" d="M873.1,-772.76C861.92,-763.66 847.79,-752.16 835.47,-742.13"/>
<polygon fill="black" stroke="black" points="838.02,-739.7 828.06,-736.1 833.6,-745.13 838.02,-739.7"/>
</g>
<!-- libtvm -->
<g id="node43" class="node">
<title>libtvm</title>
<g id="a_node43"><a xlink:href="https://github.com/conda-forge/libtvm-feedstock" xlink:title="libtvm">
<ellipse fill="#fde725" stroke="black" cx="1283.05" cy="-206" rx="40.5" ry="18"/>
<text text-anchor="middle" x="1283.05" y="-202.3" font-family="Times,serif" font-size="14.00">libtvm</text>
</a>
</g>
</g>
<!-- tvm&#45;py -->
<g id="node44" class="node">
<title>tvm&#45;py</title>
<g id="a_node44"><a xlink:href="https://github.com/conda-forge/tvm-py-feedstock" xlink:title="tvm py">
<ellipse fill="#fde725" stroke="black" cx="1283.05" cy="-134" rx="43" ry="18"/>
<text text-anchor="middle" x="1283.05" y="-130.3" font-family="Times,serif" font-size="14.00">tvm py</text>
</a>
</g>
</g>
<!-- libtvm&#45;&gt;tvm&#45;py -->
<g id="edge45" class="edge">
<title>libtvm&#45;&gt;tvm&#45;py</title>
<path fill="none" stroke="black" d="M1283.05,-187.7C1283.05,-180.41 1283.05,-171.73 1283.05,-163.54"/>
<polygon fill="black" stroke="black" points="1286.55,-163.62 1283.05,-153.62 1279.55,-163.62 1286.55,-163.62"/>
</g>
<!-- magma -->
<g id="node45" class="node">
<title>magma</title>
<g id="a_node45"><a xlink:href="https://github.com/conda-forge/magma-feedstock/pull/17" xlink:title="magma ❎">
<ellipse fill="#31688e" stroke="black" cx="918.05" cy="-934" rx="59.29" ry="18"/>
<text text-anchor="middle" x="918.05" y="-930.3" font-family="Times,serif" font-size="14.00" fill="white">magma ❎</text>
</a>
</g>
</g>
<!-- magma&#45;&gt;kaldi -->
<g id="edge46" class="edge">
<title>magma&#45;&gt;kaldi</title>
<path fill="none" stroke="black" d="M904.01,-916.05C896.89,-907.47 888.13,-896.89 880.3,-887.44"/>
<polygon fill="black" stroke="black" points="883.2,-885.46 874.13,-879.99 877.81,-889.93 883.2,-885.46"/>
</g>
<!-- magma&#45;&gt;pytorch&#45;cpu -->
<g id="edge47" class="edge">
<title>magma&#45;&gt;pytorch&#45;cpu</title>
<path fill="none" stroke="black" d="M932.33,-916.05C939.29,-907.8 947.8,-897.7 955.52,-888.54"/>
<polygon fill="black" stroke="black" points="958.15,-890.85 961.92,-880.95 952.8,-886.34 958.15,-890.85"/>
</g>
<!-- timemory -->
<g id="node47" class="node">
<title>timemory</title>
<g id="a_node47"><a xlink:href="https://github.com/conda-forge/timemory-feedstock" xlink:title="timemory">
<ellipse fill="#fde725" stroke="black" cx="2679.05" cy="-610" rx="56" ry="18"/>
<text text-anchor="middle" x="2679.05" y="-606.3" font-family="Times,serif" font-size="14.00">timemory</text>
</a>
</g>
</g>
<!-- cudasirecon&#45;&gt;timemory -->
<!-- colmap -->
<g id="node48" class="node">
<title>colmap</title>
<g id="a_node48"><a xlink:href="https://github.com/conda-forge/colmap-feedstock" xlink:title="colmap">
<ellipse fill="#fde725" stroke="black" cx="2679.05" cy="-538" rx="44.39" ry="18"/>
<text text-anchor="middle" x="2679.05" y="-534.3" font-family="Times,serif" font-size="14.00">colmap</text>
</a>
</g>
</g>
<!-- timemory&#45;&gt;colmap -->
<!-- gromacs -->
<g id="node49" class="node">
<title>gromacs</title>
<g id="a_node49"><a xlink:href="https://github.com/conda-forge/gromacs-feedstock" xlink:title="gromacs">
<ellipse fill="#fde725" stroke="black" cx="2679.05" cy="-466" rx="50.09" ry="18"/>
<text text-anchor="middle" x="2679.05" y="-462.3" font-family="Times,serif" font-size="14.00">gromacs</text>
</a>
</g>
</g>
<!-- colmap&#45;&gt;gromacs -->
<!-- pyvkfft -->
<g id="node51" class="node">
<title>pyvkfft</title>
<g id="a_node51"><a xlink:href="https://github.com/conda-forge/pyvkfft-feedstock" xlink:title="pyvkfft">
<ellipse fill="#000000" stroke="black" cx="2679.05" cy="-394" rx="43" ry="18"/>
<text text-anchor="middle" x="2679.05" y="-390.3" font-family="Times,serif" font-size="14.00" fill="white">pyvkfft</text>
</a>
</g>
</g>
<!-- gromacs&#45;&gt;pyvkfft -->
<!-- cutlass -->
<g id="node50" class="node">
<title>cutlass</title>
<g id="a_node50"><a xlink:href="https://github.com/conda-forge/cutlass-feedstock" xlink:title="cutlass">
<ellipse fill="#fde725" stroke="black" cx="1283.05" cy="-278" rx="43.59" ry="18"/>
<text text-anchor="middle" x="1283.05" y="-274.3" font-family="Times,serif" font-size="14.00">cutlass</text>
</a>
</g>
</g>
<!-- cutlass&#45;&gt;libtvm -->
<g id="edge52" class="edge">
<title>cutlass&#45;&gt;libtvm</title>
<path fill="none" stroke="black" d="M1283.05,-259.7C1283.05,-252.41 1283.05,-243.73 1283.05,-235.54"/>
<polygon fill="black" stroke="black" points="1286.55,-235.62 1283.05,-225.62 1279.55,-235.62 1286.55,-235.62"/>
</g>
<!-- pyscamp&#45;gpu -->
<g id="node52" class="node">
<title>pyscamp&#45;gpu</title>
<g id="a_node52"><a xlink:href="https://github.com/conda-forge/pyscamp-gpu-feedstock" xlink:title="pyscamp gpu">
<ellipse fill="#fde725" stroke="black" cx="2679.05" cy="-322" rx="72.29" ry="18"/>
<text text-anchor="middle" x="2679.05" y="-318.3" font-family="Times,serif" font-size="14.00">pyscamp gpu</text>
</a>
</g>
</g>
<!-- pyvkfft&#45;&gt;pyscamp&#45;gpu -->
<!-- heavydb&#45;ext -->
<g id="node53" class="node">
<title>heavydb&#45;ext</title>
<g id="a_node53"><a xlink:href="https://github.com/conda-forge/heavydb-ext-feedstock" xlink:title="heavydb ext">
<ellipse fill="#fde725" stroke="black" cx="2859.05" cy="-862" rx="67.69" ry="18"/>
<text text-anchor="middle" x="2859.05" y="-858.3" font-family="Times,serif" font-size="14.00">heavydb ext</text>
</a>
</g>
</g>
<!-- hdk -->
<g id="node54" class="node">
<title>hdk</title>
<g id="a_node54"><a xlink:href="https://github.com/conda-forge/hdk-feedstock" xlink:title="hdk">
<ellipse fill="#fde725" stroke="black" cx="2859.05" cy="-790" rx="28" ry="18"/>
<text text-anchor="middle" x="2859.05" y="-786.3" font-family="Times,serif" font-size="14.00">hdk</text>
</a>
</g>
</g>
<!-- heavydb&#45;ext&#45;&gt;hdk -->
<!-- cyrsoxs -->
<g id="node55" class="node">
<title>cyrsoxs</title>
<g id="a_node55"><a xlink:href="https://github.com/conda-forge/cyrsoxs-feedstock" xlink:title="cyrsoxs">
<ellipse fill="#fde725" stroke="black" cx="2859.05" cy="-718" rx="46.29" ry="18"/>
<text text-anchor="middle" x="2859.05" y="-714.3" font-family="Times,serif" font-size="14.00">cyrsoxs</text>
</a>
</g>
</g>
<!-- hdk&#45;&gt;cyrsoxs -->
<!-- katago -->
<g id="node56" class="node">
<title>katago</title>
<g id="a_node56"><a xlink:href="https://github.com/conda-forge/katago-feedstock" xlink:title="katago">
<ellipse fill="#fde725" stroke="black" cx="2859.05" cy="-646" rx="42.49" ry="18"/>
<text text-anchor="middle" x="2859.05" y="-642.3" font-family="Times,serif" font-size="14.00">katago</text>
</a>
</g>
</g>
<!-- cyrsoxs&#45;&gt;katago -->
<!-- nyxus -->
<g id="node57" class="node">
<title>nyxus</title>
<g id="a_node57"><a xlink:href="https://github.com/conda-forge/nyxus-feedstock" xlink:title="nyxus">
<ellipse fill="#fde725" stroke="black" cx="2859.05" cy="-574" rx="38.5" ry="18"/>
<text text-anchor="middle" x="2859.05" y="-570.3" font-family="Times,serif" font-size="14.00">nyxus</text>
</a>
</g>
</g>
<!-- katago&#45;&gt;nyxus -->
<!-- parallelproj -->
<g id="node58" class="node">
<title>parallelproj</title>
<g id="a_node58"><a xlink:href="https://github.com/conda-forge/parallelproj-feedstock" xlink:title="parallelproj">
<ellipse fill="#fde725" stroke="black" cx="2859.05" cy="-502" rx="64.5" ry="18"/>
<text text-anchor="middle" x="2859.05" y="-498.3" font-family="Times,serif" font-size="14.00">parallelproj</text>
</a>
</g>
</g>
<!-- nyxus&#45;&gt;parallelproj -->
</g>
</svg>
