<?xml version="1.0" encoding="UTF-8" standalone="no"?>
<!DOCTYPE svg PUBLIC "-//W3C//DTD SVG 1.1//EN"
 "http://www.w3.org/Graphics/SVG/1.1/DTD/svg11.dtd">
<!-- Generated by graphviz version 3.0.0 (20220315.2325)
 -->
<!-- Pages: 1 -->
<svg width="3622pt" height="692pt"
 viewBox="0.00 0.00 3621.50 692.00" xmlns="http://www.w3.org/2000/svg" xmlns:xlink="http://www.w3.org/1999/xlink">
<g id="graph0" class="graph" transform="scale(1 1) rotate(0) translate(4 688)">
<polygon fill="white" stroke="transparent" points="-4,4 -4,-688 3617.5,-688 3617.5,4 -4,4"/>
<!-- arrow&#45;cpp -->
<g id="node1" class="node">
<title>arrow&#45;cpp</title>
<g id="a_node1"><a xlink:href="https://github.com/conda-forge/arrow-cpp-feedstock" xlink:title="arrow cpp">
<ellipse fill="#000000" stroke="black" cx="3555.5" cy="-378" rx="58" ry="18"/>
<text text-anchor="middle" x="3555.5" y="-374.3" font-family="Times,serif" font-size="14.00" fill="white">arrow cpp</text>
</a>
</g>
</g>
<!-- omniscidb -->
<g id="node2" class="node">
<title>omniscidb</title>
<g id="a_node2"><a xlink:href="https://github.com/conda-forge/omniscidb-feedstock" xlink:title="omniscidb">
<ellipse fill="#fde725" stroke="black" cx="3555.5" cy="-306" rx="58" ry="18"/>
<text text-anchor="middle" x="3555.5" y="-302.3" font-family="Times,serif" font-size="14.00">omniscidb</text>
</a>
</g>
</g>
<!-- arrow&#45;cpp&#45;&gt;omniscidb -->
<g id="edge1" class="edge">
<title>arrow&#45;cpp&#45;&gt;omniscidb</title>
<path fill="none" stroke="black" d="M3555.5,-359.7C3555.5,-351.98 3555.5,-342.71 3555.5,-334.11"/>
<polygon fill="black" stroke="black" points="3559,-334.1 3555.5,-324.1 3552,-334.1 3559,-334.1"/>
</g>
<!-- implicit -->
<g id="node3" class="node">
<title>implicit</title>
<g id="a_node3"><a xlink:href="https://github.com/conda-forge/implicit-feedstock" xlink:title="implicit">
<ellipse fill="#35b779" stroke="black" cx="3385.5" cy="-666" rx="46.29" ry="18"/>
<text text-anchor="middle" x="3385.5" y="-662.3" font-family="Times,serif" font-size="14.00">implicit</text>
</a>
</g>
</g>
<!-- kaldi -->
<g id="node4" class="node">
<title>kaldi</title>
<g id="a_node4"><a xlink:href="https://github.com/conda-forge/kaldi-feedstock/pull/27" xlink:title="kaldi ❎">
<ellipse fill="#31688e" stroke="black" cx="3385.5" cy="-594" rx="47.5" ry="18"/>
<text text-anchor="middle" x="3385.5" y="-590.3" font-family="Times,serif" font-size="14.00" fill="white">kaldi ❎</text>
</a>
</g>
</g>
<!-- implicit&#45;&gt;kaldi -->
<!-- tomopy -->
<g id="node5" class="node">
<title>tomopy</title>
<g id="a_node5"><a xlink:href="https://github.com/conda-forge/tomopy-feedstock/pull/57" xlink:title="tomopy ❎">
<ellipse fill="#31688e" stroke="black" cx="3385.5" cy="-522" rx="60" ry="18"/>
<text text-anchor="middle" x="3385.5" y="-518.3" font-family="Times,serif" font-size="14.00" fill="white">tomopy ❎</text>
</a>
</g>
</g>
<!-- kaldi&#45;&gt;tomopy -->
<!-- xgboost -->
<g id="node17" class="node">
<title>xgboost</title>
<g id="a_node17"><a xlink:href="https://github.com/conda-forge/xgboost-feedstock" xlink:title="xgboost">
<ellipse fill="#000000" stroke="black" cx="3385.5" cy="-450" rx="47.5" ry="18"/>
<text text-anchor="middle" x="3385.5" y="-446.3" font-family="Times,serif" font-size="14.00" fill="white">xgboost</text>
</a>
</g>
</g>
<!-- tomopy&#45;&gt;xgboost -->
<!-- openmpi -->
<g id="node6" class="node">
<title>openmpi</title>
<g id="a_node6"><a xlink:href="https://github.com/conda-forge/openmpi-feedstock" xlink:title="openmpi">
<ellipse fill="#fde725" stroke="black" cx="2800.5" cy="-486" rx="50.89" ry="18"/>
<text text-anchor="middle" x="2800.5" y="-482.3" font-family="Times,serif" font-size="14.00">openmpi</text>
</a>
</g>
</g>
<!-- tensorflow -->
<g id="node7" class="node">
<title>tensorflow</title>
<g id="a_node7"><a xlink:href="https://github.com/conda-forge/tensorflow-feedstock" xlink:title="tensorflow">
<ellipse fill="#fde725" stroke="black" cx="2721.5" cy="-414" rx="60" ry="18"/>
<text text-anchor="middle" x="2721.5" y="-410.3" font-family="Times,serif" font-size="14.00">tensorflow</text>
</a>
</g>
</g>
<!-- openmpi&#45;&gt;tensorflow -->
<g id="edge4" class="edge">
<title>openmpi&#45;&gt;tensorflow</title>
<path fill="none" stroke="black" d="M2782.57,-469.12C2772.22,-459.94 2759.01,-448.23 2747.52,-438.06"/>
<polygon fill="black" stroke="black" points="2749.71,-435.32 2739.9,-431.31 2745.07,-440.56 2749.71,-435.32"/>
</g>
<!-- deepmd&#45;kit -->
<g id="node8" class="node">
<title>deepmd&#45;kit</title>
<g id="a_node8"><a xlink:href="https://github.com/conda-forge/deepmd-kit-feedstock" xlink:title="deepmd kit">
<ellipse fill="#fde725" stroke="black" cx="2827.5" cy="-342" rx="63.09" ry="18"/>
<text text-anchor="middle" x="2827.5" y="-338.3" font-family="Times,serif" font-size="14.00">deepmd kit</text>
</a>
</g>
</g>
<!-- openmpi&#45;&gt;deepmd&#45;kit -->
<g id="edge5" class="edge">
<title>openmpi&#45;&gt;deepmd&#45;kit</title>
<path fill="none" stroke="black" d="M2851.18,-483.98C2889.95,-480.2 2941.09,-468.08 2967.5,-432 2976.95,-419.09 2976.59,-409.17 2967.5,-396 2950.99,-372.1 2922.21,-358.96 2895.02,-351.75"/>
<polygon fill="black" stroke="black" points="2895.64,-348.3 2885.1,-349.35 2894,-355.11 2895.64,-348.3"/>
</g>
<!-- prismatic_split -->
<g id="node9" class="node">
<title>prismatic_split</title>
<g id="a_node9"><a xlink:href="https://github.com/conda-forge/prismatic_split-feedstock" xlink:title="prismatic_split">
<ellipse fill="#fde725" stroke="black" cx="2879.5" cy="-414" rx="79.5" ry="18"/>
<text text-anchor="middle" x="2879.5" y="-410.3" font-family="Times,serif" font-size="14.00">prismatic_split</text>
</a>
</g>
</g>
<!-- openmpi&#45;&gt;prismatic_split -->
<g id="edge6" class="edge">
<title>openmpi&#45;&gt;prismatic_split</title>
<path fill="none" stroke="black" d="M2818.43,-469.12C2828.71,-460 2841.81,-448.4 2853.23,-438.28"/>
<polygon fill="black" stroke="black" points="2855.66,-440.8 2860.82,-431.55 2851.01,-435.56 2855.66,-440.8"/>
</g>
<!-- pp&#45;sketchlib -->
<g id="node10" class="node">
<title>pp&#45;sketchlib</title>
<g id="a_node10"><a xlink:href="https://github.com/conda-forge/pp-sketchlib-feedstock" xlink:title="pp sketchlib">
<ellipse fill="#fde725" stroke="black" cx="3120.5" cy="-342" rx="67.69" ry="18"/>
<text text-anchor="middle" x="3120.5" y="-338.3" font-family="Times,serif" font-size="14.00">pp sketchlib</text>
</a>
</g>
</g>
<!-- openmpi&#45;&gt;pp&#45;sketchlib -->
<g id="edge7" class="edge">
<title>openmpi&#45;&gt;pp&#45;sketchlib</title>
<path fill="none" stroke="black" d="M2850.57,-482.54C2901.03,-478.14 2979.63,-465.92 3038.5,-432 3065.74,-416.31 3089.15,-388.55 3103.9,-368.2"/>
<polygon fill="black" stroke="black" points="3106.79,-370.18 3109.68,-359.99 3101.06,-366.15 3106.79,-370.18"/>
</g>
<!-- torchani -->
<g id="node11" class="node">
<title>torchani</title>
<g id="a_node11"><a xlink:href="https://github.com/conda-forge/torchani-feedstock" xlink:title="torchani">
<ellipse fill="#fde725" stroke="black" cx="1258.5" cy="-414" rx="49.5" ry="18"/>
<text text-anchor="middle" x="1258.5" y="-410.3" font-family="Times,serif" font-size="14.00">torchani</text>
</a>
</g>
</g>
<!-- openmpi&#45;&gt;torchani -->
<g id="edge8" class="edge">
<title>openmpi&#45;&gt;torchani</title>
<path fill="none" stroke="black" d="M2750.34,-483.38C2495.27,-475.12 1352.67,-437.85 1316.5,-432 1312.13,-431.29 1307.62,-430.36 1303.14,-429.29"/>
<polygon fill="black" stroke="black" points="1304.01,-425.89 1293.45,-426.77 1302.25,-432.67 1304.01,-425.89"/>
</g>
<!-- openmm&#45;plumed -->
<g id="node12" class="node">
<title>openmm&#45;plumed</title>
<g id="a_node12"><a xlink:href="https://github.com/conda-forge/openmm-plumed-feedstock" xlink:title="openmm plumed">
<ellipse fill="#fde725" stroke="black" cx="1923.5" cy="-414" rx="88.5" ry="18"/>
<text text-anchor="middle" x="1923.5" y="-410.3" font-family="Times,serif" font-size="14.00">openmm plumed</text>
</a>
</g>
</g>
<!-- openmpi&#45;&gt;openmm&#45;plumed -->
<g id="edge9" class="edge">
<title>openmpi&#45;&gt;openmm&#45;plumed</title>
<path fill="none" stroke="black" d="M2750.14,-483.42C2625.85,-479.13 2294.7,-465.25 2020.5,-432 2012.33,-431.01 2003.8,-429.79 1995.33,-428.46"/>
<polygon fill="black" stroke="black" points="1995.88,-425.01 1985.45,-426.86 1994.76,-431.92 1995.88,-425.01"/>
</g>
<!-- meld -->
<g id="node13" class="node">
<title>meld</title>
<g id="a_node13"><a xlink:href="https://github.com/conda-forge/meld-feedstock" xlink:title="meld">
<ellipse fill="#fde725" stroke="black" cx="2221.5" cy="-414" rx="34" ry="18"/>
<text text-anchor="middle" x="2221.5" y="-410.3" font-family="Times,serif" font-size="14.00">meld</text>
</a>
</g>
</g>
<!-- openmpi&#45;&gt;meld -->
<g id="edge10" class="edge">
<title>openmpi&#45;&gt;meld</title>
<path fill="none" stroke="black" d="M2749.84,-484.65C2653.81,-482.96 2439.22,-474.3 2264.5,-432 2261.72,-431.33 2258.88,-430.51 2256.05,-429.61"/>
<polygon fill="black" stroke="black" points="2257.18,-426.29 2246.59,-426.27 2254.85,-432.89 2257.18,-426.29"/>
</g>
<!-- timemory -->
<g id="node14" class="node">
<title>timemory</title>
<g id="a_node14"><a xlink:href="https://github.com/conda-forge/timemory-feedstock" xlink:title="timemory">
<ellipse fill="#fde725" stroke="black" cx="3216.5" cy="-270" rx="56" ry="18"/>
<text text-anchor="middle" x="3216.5" y="-266.3" font-family="Times,serif" font-size="14.00">timemory</text>
</a>
</g>
</g>
<!-- openmpi&#45;&gt;timemory -->
<g id="edge11" class="edge">
<title>openmpi&#45;&gt;timemory</title>
<path fill="none" stroke="black" d="M2849.17,-480.51C2904.83,-474.25 2998.01,-460.32 3073.5,-432 3133.17,-409.62 3160.08,-411.59 3197.5,-360 3210.51,-342.06 3214.97,-317.07 3216.34,-298.13"/>
<polygon fill="black" stroke="black" points="3219.84,-298.2 3216.82,-288.05 3212.85,-297.87 3219.84,-298.2"/>
</g>
<!-- mandrake -->
<g id="node15" class="node">
<title>mandrake</title>
<g id="a_node15"><a xlink:href="https://github.com/conda-forge/mandrake-feedstock" xlink:title="mandrake">
<ellipse fill="#fde725" stroke="black" cx="3054.5" cy="-270" rx="57.39" ry="18"/>
<text text-anchor="middle" x="3054.5" y="-266.3" font-family="Times,serif" font-size="14.00">mandrake</text>
</a>
</g>
</g>
<!-- openmpi&#45;&gt;mandrake -->
<g id="edge12" class="edge">
<title>openmpi&#45;&gt;mandrake</title>
<path fill="none" stroke="black" d="M2850.15,-482.14C2890.68,-477.36 2947.15,-464.79 2984.5,-432 3005.56,-413.51 3032.49,-338.49 3045.98,-297.71"/>
<polygon fill="black" stroke="black" points="3049.33,-298.73 3049.11,-288.13 3042.68,-296.55 3049.33,-298.73"/>
</g>
<!-- nnpops -->
<g id="node16" class="node">
<title>nnpops</title>
<g id="a_node16"><a xlink:href="https://github.com/conda-forge/nnpops-feedstock" xlink:title="nnpops">
<ellipse fill="#fde725" stroke="black" cx="1258.5" cy="-342" rx="44.39" ry="18"/>
<text text-anchor="middle" x="1258.5" y="-338.3" font-family="Times,serif" font-size="14.00">nnpops</text>
</a>
</g>
</g>
<!-- openmpi&#45;&gt;nnpops -->
<g id="edge13" class="edge">
<title>openmpi&#45;&gt;nnpops</title>
<path fill="none" stroke="black" d="M2750.03,-484.11C2691.01,-481.2 2591.8,-470.38 2516.5,-432 2495.77,-421.43 2499.96,-404.99 2478.5,-396 2374.63,-352.46 1577.93,-366.61 1465.5,-360 1413.07,-356.92 1353.29,-351.84 1311.5,-348.03"/>
<polygon fill="black" stroke="black" points="1311.55,-344.52 1301.28,-347.1 1310.91,-351.5 1311.55,-344.52"/>
</g>
<!-- tensorflow&#45;&gt;deepmd&#45;kit -->
<g id="edge14" class="edge">
<title>tensorflow&#45;&gt;deepmd&#45;kit</title>
<path fill="none" stroke="black" d="M2745.29,-397.29C2759.92,-387.63 2778.86,-375.12 2794.87,-364.55"/>
<polygon fill="black" stroke="black" points="2797.01,-367.33 2803.42,-358.9 2793.15,-361.49 2797.01,-367.33"/>
</g>
<!-- pp&#45;sketchlib&#45;&gt;mandrake -->
<g id="edge15" class="edge">
<title>pp&#45;sketchlib&#45;&gt;mandrake</title>
<path fill="none" stroke="black" d="M3104.86,-324.41C3096.56,-315.61 3086.21,-304.63 3077.05,-294.92"/>
<polygon fill="black" stroke="black" points="3079.44,-292.34 3070.03,-287.47 3074.34,-297.15 3079.44,-292.34"/>
</g>
<!-- torchani&#45;&gt;nnpops -->
<g id="edge16" class="edge">
<title>torchani&#45;&gt;nnpops</title>
<path fill="none" stroke="black" d="M1258.5,-395.7C1258.5,-387.98 1258.5,-378.71 1258.5,-370.11"/>
<polygon fill="black" stroke="black" points="1262,-370.1 1258.5,-360.1 1255,-370.1 1262,-370.1"/>
</g>
<!-- conda&#45;forge&#45;ci&#45;setup -->
<g id="node23" class="node">
<title>conda&#45;forge&#45;ci&#45;setup</title>
<g id="a_node23"><a xlink:href="https://github.com/conda-forge/conda-forge-ci-setup-feedstock" xlink:title="conda forge ci setup">
<ellipse fill="#35b779" stroke="black" cx="3385.5" cy="-378" rx="104.78" ry="18"/>
<text text-anchor="middle" x="3385.5" y="-374.3" font-family="Times,serif" font-size="14.00">conda forge ci setup</text>
</a>
</g>
</g>
<!-- xgboost&#45;&gt;conda&#45;forge&#45;ci&#45;setup -->
<!-- torchvision -->
<g id="node18" class="node">
<title>torchvision</title>
<g id="a_node18"><a xlink:href="https://github.com/conda-forge/torchvision-feedstock" xlink:title="torchvision">
<ellipse fill="#fde725" stroke="black" cx="717.5" cy="-414" rx="62.5" ry="18"/>
<text text-anchor="middle" x="717.5" y="-410.3" font-family="Times,serif" font-size="14.00">torchvision</text>
</a>
</g>
</g>
<!-- detectron2 -->
<g id="node19" class="node">
<title>detectron2</title>
<g id="a_node19"><a xlink:href="https://github.com/conda-forge/detectron2-feedstock" xlink:title="detectron2">
<ellipse fill="#fde725" stroke="black" cx="796.5" cy="-342" rx="61.99" ry="18"/>
<text text-anchor="middle" x="796.5" y="-338.3" font-family="Times,serif" font-size="14.00">detectron2</text>
</a>
</g>
</g>
<!-- torchvision&#45;&gt;detectron2 -->
<g id="edge18" class="edge">
<title>torchvision&#45;&gt;detectron2</title>
<path fill="none" stroke="black" d="M735.82,-396.76C746.12,-387.64 759.14,-376.1 770.48,-366.06"/>
<polygon fill="black" stroke="black" points="772.84,-368.64 778,-359.39 768.2,-363.4 772.84,-368.64"/>
</g>
<!-- fcos -->
<g id="node20" class="node">
<title>fcos</title>
<g id="a_node20"><a xlink:href="https://github.com/conda-forge/fcos-feedstock" xlink:title="fcos">
<ellipse fill="#fde725" stroke="black" cx="569.5" cy="-342" rx="29.5" ry="18"/>
<text text-anchor="middle" x="569.5" y="-338.3" font-family="Times,serif" font-size="14.00">fcos</text>
</a>
</g>
</g>
<!-- torchvision&#45;&gt;fcos -->
<g id="edge19" class="edge">
<title>torchvision&#45;&gt;fcos</title>
<path fill="none" stroke="black" d="M686.47,-398.33C661.52,-386.52 626.59,-370 601.41,-358.09"/>
<polygon fill="black" stroke="black" points="602.81,-354.88 592.27,-353.77 599.82,-361.21 602.81,-354.88"/>
</g>
<!-- fairscale -->
<g id="node21" class="node">
<title>fairscale</title>
<g id="a_node21"><a xlink:href="https://github.com/conda-forge/fairscale-feedstock" xlink:title="fairscale">
<ellipse fill="#fde725" stroke="black" cx="666.5" cy="-342" rx="50.09" ry="18"/>
<text text-anchor="middle" x="666.5" y="-338.3" font-family="Times,serif" font-size="14.00">fairscale</text>
</a>
</g>
</g>
<!-- torchvision&#45;&gt;fairscale -->
<g id="edge20" class="edge">
<title>torchvision&#45;&gt;fairscale</title>
<path fill="none" stroke="black" d="M705.15,-396.05C699.02,-387.63 691.48,-377.28 684.69,-367.97"/>
<polygon fill="black" stroke="black" points="687.45,-365.81 678.73,-359.79 681.79,-369.93 687.45,-365.81"/>
</g>
<!-- graphvite -->
<g id="node22" class="node">
<title>graphvite</title>
<g id="a_node22"><a xlink:href="https://github.com/conda-forge/graphvite-feedstock" xlink:title="graphvite">
<ellipse fill="#fde725" stroke="black" cx="932.5" cy="-342" rx="56" ry="18"/>
<text text-anchor="middle" x="932.5" y="-338.3" font-family="Times,serif" font-size="14.00">graphvite</text>
</a>
</g>
</g>
<!-- torchvision&#45;&gt;graphvite -->
<g id="edge21" class="edge">
<title>torchvision&#45;&gt;graphvite</title>
<path fill="none" stroke="black" d="M757.18,-400.08C793.16,-388.37 846.26,-371.08 884.59,-358.6"/>
<polygon fill="black" stroke="black" points="886.07,-361.8 894.49,-355.38 883.9,-355.14 886.07,-361.8"/>
</g>
<!-- hoomd -->
<g id="node24" class="node">
<title>hoomd</title>
<g id="a_node24"><a xlink:href="https://github.com/conda-forge/hoomd-feedstock" xlink:title="hoomd">
<ellipse fill="#35b779" stroke="black" cx="3385.5" cy="-306" rx="42.49" ry="18"/>
<text text-anchor="middle" x="3385.5" y="-302.3" font-family="Times,serif" font-size="14.00">hoomd</text>
</a>
</g>
</g>
<!-- conda&#45;forge&#45;ci&#45;setup&#45;&gt;hoomd -->
<!-- pycuda -->
<g id="node25" class="node">
<title>pycuda</title>
<g id="a_node25"><a xlink:href="https://github.com/conda-forge/pycuda-feedstock/pull/14" xlink:title="pycuda ✓">
<ellipse fill="#31688e" stroke="black" cx="3385.5" cy="-234" rx="51.5" ry="18"/>
<text text-anchor="middle" x="3385.5" y="-230.3" font-family="Times,serif" font-size="14.00" fill="white">pycuda ✓</text>
</a>
</g>
</g>
<!-- hoomd&#45;&gt;pycuda -->
<!-- cudadecon -->
<g id="node51" class="node">
<title>cudadecon</title>
<g id="a_node51"><a xlink:href="https://github.com/conda-forge/cudadecon-feedstock/pull/11" xlink:title="cudadecon ❎">
<ellipse fill="#31688e" stroke="black" cx="3385.5" cy="-162" rx="74.19" ry="18"/>
<text text-anchor="middle" x="3385.5" y="-158.3" font-family="Times,serif" font-size="14.00" fill="white">cudadecon ❎</text>
</a>
</g>
</g>
<!-- pycuda&#45;&gt;cudadecon -->
<!-- pytorch&#45;cpu -->
<g id="node26" class="node">
<title>pytorch&#45;cpu</title>
<g id="a_node26"><a xlink:href="https://github.com/conda-forge/pytorch-cpu-feedstock" xlink:title="pytorch cpu">
<ellipse fill="#fde725" stroke="black" cx="588.5" cy="-486" rx="65.79" ry="18"/>
<text text-anchor="middle" x="588.5" y="-482.3" font-family="Times,serif" font-size="14.00">pytorch cpu</text>
</a>
</g>
</g>
<!-- pytorch&#45;cpu&#45;&gt;torchani -->
<g id="edge25" class="edge">
<title>pytorch&#45;cpu&#45;&gt;torchani</title>
<path fill="none" stroke="black" d="M653.72,-483.49C766.06,-479.96 1002.95,-468.48 1199.5,-432 1203.86,-431.19 1208.37,-430.19 1212.85,-429.09"/>
<polygon fill="black" stroke="black" points="1213.78,-432.47 1222.57,-426.55 1212.01,-425.7 1213.78,-432.47"/>
</g>
<!-- pytorch&#45;cpu&#45;&gt;nnpops -->
<g id="edge26" class="edge">
<title>pytorch&#45;cpu&#45;&gt;nnpops</title>
<path fill="none" stroke="black" d="M650,-479.65C699.36,-473.41 769.3,-460.09 824.5,-432 846.11,-421 843.43,-406.05 865.5,-396 924.91,-368.95 1111.96,-352.89 1204.95,-346.38"/>
<polygon fill="black" stroke="black" points="1205.26,-349.87 1214.99,-345.69 1204.78,-342.89 1205.26,-349.87"/>
</g>
<!-- pytorch&#45;cpu&#45;&gt;torchvision -->
<g id="edge27" class="edge">
<title>pytorch&#45;cpu&#45;&gt;torchvision</title>
<path fill="none" stroke="black" d="M616.81,-469.64C635.46,-459.52 660.08,-446.16 680.31,-435.18"/>
<polygon fill="black" stroke="black" points="682.14,-438.17 689.26,-430.33 678.8,-432.02 682.14,-438.17"/>
</g>
<!-- pytorch&#45;cpu&#45;&gt;detectron2 -->
<g id="edge28" class="edge">
<title>pytorch&#45;cpu&#45;&gt;detectron2</title>
<path fill="none" stroke="black" d="M595.35,-467.82C604.13,-447.86 621.18,-415.24 645.5,-396 661.05,-383.7 706.21,-368.64 743.12,-357.72"/>
<polygon fill="black" stroke="black" points="744.17,-361.06 752.79,-354.89 742.21,-354.34 744.17,-361.06"/>
</g>
<!-- pytorch&#45;cpu&#45;&gt;fcos -->
<g id="edge29" class="edge">
<title>pytorch&#45;cpu&#45;&gt;fcos</title>
<path fill="none" stroke="black" d="M583.07,-468C580.02,-457.7 576.44,-444.22 574.5,-432 571.25,-411.49 570.03,-388.04 569.61,-370.36"/>
<polygon fill="black" stroke="black" points="573.11,-370.11 569.44,-360.17 566.11,-370.23 573.11,-370.11"/>
</g>
<!-- pytorch&#45;cpu&#45;&gt;fairscale -->
<g id="edge30" class="edge">
<title>pytorch&#45;cpu&#45;&gt;fairscale</title>
<path fill="none" stroke="black" d="M590.39,-467.9C593.05,-449.18 599.17,-418.8 612.5,-396 619.13,-384.66 628.82,-374.09 638.17,-365.42"/>
<polygon fill="black" stroke="black" points="640.69,-367.86 645.86,-358.61 636.06,-362.62 640.69,-367.86"/>
</g>
<!-- pytorch&#45;cpu&#45;&gt;graphvite -->
<g id="edge31" class="edge">
<title>pytorch&#45;cpu&#45;&gt;graphvite</title>
<path fill="none" stroke="black" d="M645.14,-476.64C686.51,-468.98 743.08,-455.21 788.5,-432 811,-420.5 811.46,-409.98 832.5,-396 851.54,-383.35 873.93,-371.25 892.69,-361.81"/>
<polygon fill="black" stroke="black" points="894.45,-364.85 901.85,-357.27 891.34,-358.58 894.45,-364.85"/>
</g>
<!-- nvidia&#45;apex -->
<g id="node27" class="node">
<title>nvidia&#45;apex</title>
<g id="a_node27"><a xlink:href="https://github.com/conda-forge/nvidia-apex-feedstock" xlink:title="nvidia apex">
<ellipse fill="#fde725" stroke="black" cx="197.5" cy="-414" rx="63.89" ry="18"/>
<text text-anchor="middle" x="197.5" y="-410.3" font-family="Times,serif" font-size="14.00">nvidia apex</text>
</a>
</g>
</g>
<!-- pytorch&#45;cpu&#45;&gt;nvidia&#45;apex -->
<g id="edge32" class="edge">
<title>pytorch&#45;cpu&#45;&gt;nvidia&#45;apex</title>
<path fill="none" stroke="black" d="M532.95,-476.4C470.26,-466.51 365.32,-449.38 275.5,-432 269.01,-430.74 262.23,-429.37 255.49,-427.95"/>
<polygon fill="black" stroke="black" points="256.2,-424.53 245.69,-425.87 254.75,-431.37 256.2,-424.53"/>
</g>
<!-- pytorch_cluster -->
<g id="node28" class="node">
<title>pytorch_cluster</title>
<g id="a_node28"><a xlink:href="https://github.com/conda-forge/pytorch_cluster-feedstock" xlink:title="pytorch_cluster">
<ellipse fill="#fde725" stroke="black" cx="105.5" cy="-342" rx="83.39" ry="18"/>
<text text-anchor="middle" x="105.5" y="-338.3" font-family="Times,serif" font-size="14.00">pytorch_cluster</text>
</a>
</g>
</g>
<!-- pytorch&#45;cpu&#45;&gt;pytorch_cluster -->
<g id="edge33" class="edge">
<title>pytorch&#45;cpu&#45;&gt;pytorch_cluster</title>
<path fill="none" stroke="black" d="M524.23,-481.78C403.77,-475.15 153.54,-458.36 124.5,-432 107.64,-416.7 103.74,-390.42 103.55,-370.38"/>
<polygon fill="black" stroke="black" points="107.06,-370.34 103.76,-360.27 100.06,-370.2 107.06,-370.34"/>
</g>
<!-- pytorch_scatter -->
<g id="node29" class="node">
<title>pytorch_scatter</title>
<g id="a_node29"><a xlink:href="https://github.com/conda-forge/pytorch_scatter-feedstock" xlink:title="pytorch_scatter">
<ellipse fill="#fde725" stroke="black" cx="363.5" cy="-270" rx="83.39" ry="18"/>
<text text-anchor="middle" x="363.5" y="-266.3" font-family="Times,serif" font-size="14.00">pytorch_scatter</text>
</a>
</g>
</g>
<!-- pytorch&#45;cpu&#45;&gt;pytorch_scatter -->
<g id="edge34" class="edge">
<title>pytorch&#45;cpu&#45;&gt;pytorch_scatter</title>
<path fill="none" stroke="black" d="M541.39,-473.37C515.34,-465.12 483.65,-451.92 460.5,-432 417.05,-394.61 387.56,-332.73 373.33,-297.57"/>
<polygon fill="black" stroke="black" points="376.48,-296.01 369.56,-287.99 369.96,-298.58 376.48,-296.01"/>
</g>
<!-- pytorch_spline_conv -->
<g id="node30" class="node">
<title>pytorch_spline_conv</title>
<g id="a_node30"><a xlink:href="https://github.com/conda-forge/pytorch_spline_conv-feedstock" xlink:title="pytorch_spline_conv">
<ellipse fill="#fde725" stroke="black" cx="199.5" cy="-198" rx="104.78" ry="18"/>
<text text-anchor="middle" x="199.5" y="-194.3" font-family="Times,serif" font-size="14.00">pytorch_spline_conv</text>
</a>
</g>
</g>
<!-- pytorch&#45;cpu&#45;&gt;pytorch_spline_conv -->
<g id="edge35" class="edge">
<title>pytorch&#45;cpu&#45;&gt;pytorch_spline_conv</title>
<path fill="none" stroke="black" d="M537.27,-474.63C503.63,-466.37 459.53,-452.71 424.5,-432 331.08,-376.78 250.64,-272.4 216.7,-224.36"/>
<polygon fill="black" stroke="black" points="219.51,-222.27 210.92,-216.07 213.77,-226.28 219.51,-222.27"/>
</g>
<!-- pytorch_sparse -->
<g id="node31" class="node">
<title>pytorch_sparse</title>
<g id="a_node31"><a xlink:href="https://github.com/conda-forge/pytorch_sparse-feedstock" xlink:title="pytorch_sparse">
<ellipse fill="#fde725" stroke="black" cx="403.5" cy="-198" rx="81.49" ry="18"/>
<text text-anchor="middle" x="403.5" y="-194.3" font-family="Times,serif" font-size="14.00">pytorch_sparse</text>
</a>
</g>
</g>
<!-- pytorch&#45;cpu&#45;&gt;pytorch_sparse -->
<g id="edge36" class="edge">
<title>pytorch&#45;cpu&#45;&gt;pytorch_sparse</title>
<path fill="none" stroke="black" d="M550.69,-471.05C532.36,-462.45 511.54,-449.64 498.5,-432 449.61,-365.86 495.31,-323.98 455.5,-252 449.52,-241.18 440.72,-231.03 432.05,-222.56"/>
<polygon fill="black" stroke="black" points="434.25,-219.83 424.55,-215.59 429.49,-224.96 434.25,-219.83"/>
</g>
<!-- openmm&#45;torch -->
<g id="node32" class="node">
<title>openmm&#45;torch</title>
<g id="a_node32"><a xlink:href="https://github.com/conda-forge/openmm-torch-feedstock" xlink:title="openmm torch">
<ellipse fill="#fde725" stroke="black" cx="1112.5" cy="-414" rx="78" ry="18"/>
<text text-anchor="middle" x="1112.5" y="-410.3" font-family="Times,serif" font-size="14.00">openmm torch</text>
</a>
</g>
</g>
<!-- pytorch&#45;cpu&#45;&gt;openmm&#45;torch -->
<g id="edge37" class="edge">
<title>pytorch&#45;cpu&#45;&gt;openmm&#45;torch</title>
<path fill="none" stroke="black" d="M649.13,-479.05C733.69,-470.42 891.7,-453.16 1025.5,-432 1032.24,-430.93 1039.26,-429.73 1046.25,-428.46"/>
<polygon fill="black" stroke="black" points="1047.25,-431.83 1056.45,-426.57 1045.98,-424.95 1047.25,-431.83"/>
</g>
<!-- torchsparse -->
<g id="node33" class="node">
<title>torchsparse</title>
<g id="a_node33"><a xlink:href="https://github.com/conda-forge/torchsparse-feedstock" xlink:title="torchsparse">
<ellipse fill="#fde725" stroke="black" cx="512.5" cy="-126" rx="65.79" ry="18"/>
<text text-anchor="middle" x="512.5" y="-122.3" font-family="Times,serif" font-size="14.00">torchsparse</text>
</a>
</g>
</g>
<!-- pytorch&#45;cpu&#45;&gt;torchsparse -->
<g id="edge38" class="edge">
<title>pytorch&#45;cpu&#45;&gt;torchsparse</title>
<path fill="none" stroke="black" d="M572.38,-468.19C550.07,-443.09 512.5,-393.33 512.5,-343 512.5,-343 512.5,-343 512.5,-269 512.5,-229 512.5,-182.65 512.5,-154.08"/>
<polygon fill="black" stroke="black" points="516,-154.05 512.5,-144.05 509,-154.05 516,-154.05"/>
</g>
<!-- torch&#45;scatter -->
<g id="node34" class="node">
<title>torch&#45;scatter</title>
<g id="a_node34"><a xlink:href="https://github.com/conda-forge/torch-scatter-feedstock" xlink:title="torch scatter">
<ellipse fill="#fde725" stroke="black" cx="945.5" cy="-414" rx="71" ry="18"/>
<text text-anchor="middle" x="945.5" y="-410.3" font-family="Times,serif" font-size="14.00">torch scatter</text>
</a>
</g>
</g>
<!-- pytorch&#45;cpu&#45;&gt;torch&#45;scatter -->
<g id="edge39" class="edge">
<title>pytorch&#45;cpu&#45;&gt;torch&#45;scatter</title>
<path fill="none" stroke="black" d="M640.41,-474.97C695.15,-464.36 783.92,-447.12 860.5,-432 867.25,-430.67 874.29,-429.27 881.31,-427.87"/>
<polygon fill="black" stroke="black" points="882.43,-431.22 891.55,-425.83 881.06,-424.35 882.43,-431.22"/>
</g>
<!-- kaolin -->
<g id="node35" class="node">
<title>kaolin</title>
<g id="a_node35"><a xlink:href="https://github.com/conda-forge/kaolin-feedstock" xlink:title="kaolin">
<ellipse fill="#fde725" stroke="black" cx="38.5" cy="-414" rx="38.5" ry="18"/>
<text text-anchor="middle" x="38.5" y="-410.3" font-family="Times,serif" font-size="14.00">kaolin</text>
</a>
</g>
</g>
<!-- pytorch&#45;cpu&#45;&gt;kaolin -->
<g id="edge40" class="edge">
<title>pytorch&#45;cpu&#45;&gt;kaolin</title>
<path fill="none" stroke="black" d="M523.9,-482.32C428.45,-477.42 244.53,-464.35 91.5,-432 87.02,-431.05 82.38,-429.87 77.79,-428.58"/>
<polygon fill="black" stroke="black" points="78.51,-425.14 67.93,-425.61 76.49,-431.84 78.51,-425.14"/>
</g>
<!-- pytorch_scatter&#45;&gt;pytorch_sparse -->
<g id="edge41" class="edge">
<title>pytorch_scatter&#45;&gt;pytorch_sparse</title>
<path fill="none" stroke="black" d="M373.18,-252.05C377.78,-244.01 383.38,-234.2 388.51,-225.23"/>
<polygon fill="black" stroke="black" points="391.71,-226.69 393.63,-216.28 385.63,-223.22 391.71,-226.69"/>
</g>
<!-- ucx&#45;split -->
<g id="node36" class="node">
<title>ucx&#45;split</title>
<g id="a_node36"><a xlink:href="https://github.com/conda-forge/ucx-split-feedstock/pull/93" xlink:title="ucx split ✓">
<ellipse fill="#31688e" stroke="black" cx="2800.5" cy="-558" rx="58" ry="18"/>
<text text-anchor="middle" x="2800.5" y="-554.3" font-family="Times,serif" font-size="14.00" fill="white">ucx split ✓</text>
</a>
</g>
</g>
<!-- ucx&#45;split&#45;&gt;openmpi -->
<g id="edge42" class="edge">
<title>ucx&#45;split&#45;&gt;openmpi</title>
<path fill="none" stroke="black" d="M2800.5,-539.7C2800.5,-531.98 2800.5,-522.71 2800.5,-514.11"/>
<polygon fill="black" stroke="black" points="2804,-514.1 2800.5,-504.1 2797,-514.1 2804,-514.1"/>
</g>
<!-- openmm -->
<g id="node37" class="node">
<title>openmm</title>
<g id="a_node37"><a xlink:href="https://github.com/conda-forge/openmm-feedstock" xlink:title="openmm">
<ellipse fill="#000000" stroke="black" cx="1763.5" cy="-486" rx="50.89" ry="18"/>
<text text-anchor="middle" x="1763.5" y="-482.3" font-family="Times,serif" font-size="14.00" fill="white">openmm</text>
</a>
</g>
</g>
<!-- openmm&#45;&gt;openmm&#45;plumed -->
<g id="edge43" class="edge">
<title>openmm&#45;&gt;openmm&#45;plumed</title>
<path fill="none" stroke="black" d="M1794.35,-471.5C1818.31,-461.02 1851.88,-446.33 1878.79,-434.56"/>
<polygon fill="black" stroke="black" points="1880.24,-437.74 1888,-430.53 1877.44,-431.33 1880.24,-437.74"/>
</g>
<!-- openmm&#45;&gt;meld -->
<g id="edge44" class="edge">
<title>openmm&#45;&gt;meld</title>
<path fill="none" stroke="black" d="M1813.44,-482.64C1892.16,-478.04 2049.42,-465.2 2178.5,-432 2181.27,-431.29 2184.1,-430.44 2186.92,-429.52"/>
<polygon fill="black" stroke="black" points="2188.14,-432.8 2196.38,-426.14 2185.79,-426.21 2188.14,-432.8"/>
</g>
<!-- openmm&#45;&gt;openmm&#45;torch -->
<g id="edge45" class="edge">
<title>openmm&#45;&gt;openmm&#45;torch</title>
<path fill="none" stroke="black" d="M1714.96,-480.72C1587.54,-469.44 1249.87,-439.27 1199.5,-432 1192.48,-430.99 1185.18,-429.79 1177.91,-428.5"/>
<polygon fill="black" stroke="black" points="1178.52,-425.06 1168.05,-426.71 1177.26,-431.94 1178.52,-425.06"/>
</g>
<!-- seekr2_openmm_plugin -->
<g id="node38" class="node">
<title>seekr2_openmm_plugin</title>
<g id="a_node38"><a xlink:href="https://github.com/conda-forge/seekr2_openmm_plugin-feedstock" xlink:title="seekr2_openmm_plugin">
<ellipse fill="#fde725" stroke="black" cx="1696.5" cy="-414" rx="120.48" ry="18"/>
<text text-anchor="middle" x="1696.5" y="-410.3" font-family="Times,serif" font-size="14.00">seekr2_openmm_plugin</text>
</a>
</g>
</g>
<!-- openmm&#45;&gt;seekr2_openmm_plugin -->
<g id="edge46" class="edge">
<title>openmm&#45;&gt;seekr2_openmm_plugin</title>
<path fill="none" stroke="black" d="M1747.96,-468.76C1739.66,-460.1 1729.28,-449.25 1720.02,-439.57"/>
<polygon fill="black" stroke="black" points="1722.33,-436.93 1712.89,-432.12 1717.28,-441.77 1722.33,-436.93"/>
</g>
<!-- cupy -->
<g id="node39" class="node">
<title>cupy</title>
<g id="a_node39"><a xlink:href="https://github.com/conda-forge/cupy-feedstock" xlink:title="cupy">
<ellipse fill="#fde725" stroke="black" cx="2237.5" cy="-486" rx="32.5" ry="18"/>
<text text-anchor="middle" x="2237.5" y="-482.3" font-family="Times,serif" font-size="14.00">cupy</text>
</a>
</g>
</g>
<!-- cuquantum&#45;python -->
<g id="node40" class="node">
<title>cuquantum&#45;python</title>
<g id="a_node40"><a xlink:href="https://github.com/conda-forge/cuquantum-python-feedstock" xlink:title="cuquantum python">
<ellipse fill="#fde725" stroke="black" cx="2371.5" cy="-414" rx="98.28" ry="18"/>
<text text-anchor="middle" x="2371.5" y="-410.3" font-family="Times,serif" font-size="14.00">cuquantum python</text>
</a>
</g>
</g>
<!-- cupy&#45;&gt;cuquantum&#45;python -->
<g id="edge47" class="edge">
<title>cupy&#45;&gt;cuquantum&#45;python</title>
<path fill="none" stroke="black" d="M2260.23,-473.13C2279.74,-462.93 2308.32,-448 2331.63,-435.83"/>
<polygon fill="black" stroke="black" points="2333.36,-438.87 2340.6,-431.14 2330.12,-432.67 2333.36,-438.87"/>
</g>
<!-- cudnn -->
<g id="node41" class="node">
<title>cudnn</title>
<g id="a_node41"><a xlink:href="https://github.com/conda-forge/cudnn-feedstock/pull/39" xlink:title="cudnn ✓">
<ellipse fill="#31688e" stroke="black" cx="1413.5" cy="-558" rx="46.29" ry="18"/>
<text text-anchor="middle" x="1413.5" y="-554.3" font-family="Times,serif" font-size="14.00" fill="white">cudnn ✓</text>
</a>
</g>
</g>
<!-- cudnn&#45;&gt;tensorflow -->
<g id="edge48" class="edge">
<title>cudnn&#45;&gt;tensorflow</title>
<path fill="none" stroke="black" d="M1456.68,-551.56C1574.8,-536.78 1913.28,-495.19 2195.5,-468 2397.86,-448.5 2450.75,-464.09 2651.5,-432 2656.98,-431.12 2662.66,-430.04 2668.32,-428.85"/>
<polygon fill="black" stroke="black" points="2669.4,-432.19 2678.4,-426.61 2667.88,-425.36 2669.4,-432.19"/>
</g>
<!-- cudnn&#45;&gt;torchvision -->
<g id="edge49" class="edge">
<title>cudnn&#45;&gt;torchvision</title>
<path fill="none" stroke="black" d="M1371.68,-549.95C1314.74,-540.24 1209.7,-521.91 1120.5,-504 996.8,-479.16 852.59,-446.38 774.62,-428.34"/>
<polygon fill="black" stroke="black" points="775.06,-424.85 764.53,-426 773.48,-431.67 775.06,-424.85"/>
</g>
<!-- cudnn&#45;&gt;pytorch&#45;cpu -->
<g id="edge50" class="edge">
<title>cudnn&#45;&gt;pytorch&#45;cpu</title>
<path fill="none" stroke="black" d="M1368.85,-553.21C1233.47,-541.72 826.72,-507.21 660.48,-493.11"/>
<polygon fill="black" stroke="black" points="660.62,-489.61 650.36,-492.25 660.03,-496.58 660.62,-489.61"/>
</g>
<!-- cudnn&#45;&gt;torch&#45;scatter -->
<g id="edge51" class="edge">
<title>cudnn&#45;&gt;torch&#45;scatter</title>
<path fill="none" stroke="black" d="M1378.32,-546.33C1297.02,-521.66 1095.66,-460.56 998.98,-431.23"/>
<polygon fill="black" stroke="black" points="999.71,-427.79 989.12,-428.24 997.67,-434.49 999.71,-427.79"/>
</g>
<!-- cudnn&#45;&gt;cupy -->
<g id="edge52" class="edge">
<title>cudnn&#45;&gt;cupy</title>
<path fill="none" stroke="black" d="M1459.29,-554.75C1572.32,-548.95 1873.52,-531.93 2123.5,-504 2147.77,-501.29 2174.8,-497.3 2196.45,-493.87"/>
<polygon fill="black" stroke="black" points="2197.3,-497.28 2206.61,-492.23 2196.19,-490.36 2197.3,-497.28"/>
</g>
<!-- libtvm -->
<g id="node42" class="node">
<title>libtvm</title>
<g id="a_node42"><a xlink:href="https://github.com/conda-forge/libtvm-feedstock" xlink:title="libtvm">
<ellipse fill="#fde725" stroke="black" cx="1517.5" cy="-414" rx="40.5" ry="18"/>
<text text-anchor="middle" x="1517.5" y="-410.3" font-family="Times,serif" font-size="14.00">libtvm</text>
</a>
</g>
</g>
<!-- cudnn&#45;&gt;libtvm -->
<g id="edge53" class="edge">
<title>cudnn&#45;&gt;libtvm</title>
<path fill="none" stroke="black" d="M1419.67,-539.82C1426.93,-521.03 1440.22,-490.59 1457.5,-468 1466.45,-456.3 1478.28,-445.21 1489.06,-436.22"/>
<polygon fill="black" stroke="black" points="1491.45,-438.78 1497.04,-429.78 1487.06,-433.34 1491.45,-438.78"/>
</g>
<!-- cutlass -->
<g id="node43" class="node">
<title>cutlass</title>
<g id="a_node43"><a xlink:href="https://github.com/conda-forge/cutlass-feedstock" xlink:title="cutlass">
<ellipse fill="#fde725" stroke="black" cx="1510.5" cy="-486" rx="43.59" ry="18"/>
<text text-anchor="middle" x="1510.5" y="-482.3" font-family="Times,serif" font-size="14.00">cutlass</text>
</a>
</g>
</g>
<!-- cudnn&#45;&gt;cutlass -->
<g id="edge54" class="edge">
<title>cudnn&#45;&gt;cutlass</title>
<path fill="none" stroke="black" d="M1434.55,-541.81C1448.24,-531.93 1466.29,-518.9 1481.36,-508.03"/>
<polygon fill="black" stroke="black" points="1483.77,-510.61 1489.83,-501.92 1479.67,-504.93 1483.77,-510.61"/>
</g>
<!-- ptxcompiler -->
<g id="node44" class="node">
<title>ptxcompiler</title>
<g id="a_node44"><a xlink:href="https://github.com/conda-forge/ptxcompiler-feedstock" xlink:title="ptxcompiler">
<ellipse fill="#fde725" stroke="black" cx="1392.5" cy="-414" rx="66.5" ry="18"/>
<text text-anchor="middle" x="1392.5" y="-410.3" font-family="Times,serif" font-size="14.00">ptxcompiler</text>
</a>
</g>
</g>
<!-- cudnn&#45;&gt;ptxcompiler -->
<g id="edge55" class="edge">
<title>cudnn&#45;&gt;ptxcompiler</title>
<path fill="none" stroke="black" d="M1410.97,-539.87C1407.39,-515.67 1400.81,-471.21 1396.55,-442.39"/>
<polygon fill="black" stroke="black" points="1399.97,-441.57 1395.04,-432.19 1393.04,-442.59 1399.97,-441.57"/>
</g>
<!-- tvm&#45;py -->
<g id="node45" class="node">
<title>tvm&#45;py</title>
<g id="a_node45"><a xlink:href="https://github.com/conda-forge/tvm-py-feedstock" xlink:title="tvm py">
<ellipse fill="#fde725" stroke="black" cx="1517.5" cy="-342" rx="43" ry="18"/>
<text text-anchor="middle" x="1517.5" y="-338.3" font-family="Times,serif" font-size="14.00">tvm py</text>
</a>
</g>
</g>
<!-- libtvm&#45;&gt;tvm&#45;py -->
<g id="edge56" class="edge">
<title>libtvm&#45;&gt;tvm&#45;py</title>
<path fill="none" stroke="black" d="M1517.5,-395.7C1517.5,-387.98 1517.5,-378.71 1517.5,-370.11"/>
<polygon fill="black" stroke="black" points="1521,-370.1 1517.5,-360.1 1514,-370.1 1521,-370.1"/>
</g>
<!-- cutlass&#45;&gt;libtvm -->
<g id="edge57" class="edge">
<title>cutlass&#45;&gt;libtvm</title>
<path fill="none" stroke="black" d="M1512.23,-467.7C1513,-459.98 1513.93,-450.71 1514.79,-442.11"/>
<polygon fill="black" stroke="black" points="1518.28,-442.4 1515.79,-432.1 1511.31,-441.71 1518.28,-442.4"/>
</g>
<!-- faiss&#45;split -->
<g id="node46" class="node">
<title>faiss&#45;split</title>
<g id="a_node46"><a xlink:href="https://github.com/conda-forge/faiss-split-feedstock/pull/50" xlink:title="faiss split ❎">
<ellipse fill="#31688e" stroke="black" cx="2099.5" cy="-414" rx="69.59" ry="18"/>
<text text-anchor="middle" x="2099.5" y="-410.3" font-family="Times,serif" font-size="14.00" fill="white">faiss split ❎</text>
</a>
</g>
</g>
<!-- faiss&#45;split&#45;&gt;graphvite -->
<g id="edge58" class="edge">
<title>faiss&#45;split&#45;&gt;graphvite</title>
<path fill="none" stroke="black" d="M2050.41,-401.1C2040.56,-399.09 2030.24,-397.25 2020.5,-396 1660.89,-349.7 1567.56,-379.27 1205.5,-360 1133.96,-356.19 1051.93,-350.97 996.62,-347.32"/>
<polygon fill="black" stroke="black" points="996.82,-343.83 986.61,-346.66 996.36,-350.81 996.82,-343.83"/>
</g>
<!-- libcugraph -->
<g id="node47" class="node">
<title>libcugraph</title>
<g id="a_node47"><a xlink:href="https://github.com/conda-forge/libcugraph-feedstock" xlink:title="libcugraph">
<ellipse fill="#fde725" stroke="black" cx="2352.5" cy="-342" rx="60.5" ry="18"/>
<text text-anchor="middle" x="2352.5" y="-338.3" font-family="Times,serif" font-size="14.00">libcugraph</text>
</a>
</g>
</g>
<!-- faiss&#45;split&#45;&gt;libcugraph -->
<g id="edge59" class="edge">
<title>faiss&#45;split&#45;&gt;libcugraph</title>
<path fill="none" stroke="black" d="M2145.32,-400.32C2188.83,-388.28 2254.2,-370.2 2299.84,-357.57"/>
<polygon fill="black" stroke="black" points="2300.85,-360.92 2309.56,-354.88 2298.98,-354.18 2300.85,-360.92"/>
</g>
<!-- tsnecuda -->
<g id="node48" class="node">
<title>tsnecuda</title>
<g id="a_node48"><a xlink:href="https://github.com/conda-forge/tsnecuda-feedstock" xlink:title="tsnecuda">
<ellipse fill="#fde725" stroke="black" cx="2099.5" cy="-342" rx="52.79" ry="18"/>
<text text-anchor="middle" x="2099.5" y="-338.3" font-family="Times,serif" font-size="14.00">tsnecuda</text>
</a>
</g>
</g>
<!-- faiss&#45;split&#45;&gt;tsnecuda -->
<g id="edge60" class="edge">
<title>faiss&#45;split&#45;&gt;tsnecuda</title>
<path fill="none" stroke="black" d="M2099.5,-395.7C2099.5,-387.98 2099.5,-378.71 2099.5,-370.11"/>
<polygon fill="black" stroke="black" points="2103,-370.1 2099.5,-360.1 2096,-370.1 2103,-370.1"/>
</g>
<!-- magma -->
<g id="node49" class="node">
<title>magma</title>
<g id="a_node49"><a xlink:href="https://github.com/conda-forge/magma-feedstock/pull/16" xlink:title="magma ❎">
<ellipse fill="#31688e" stroke="black" cx="588.5" cy="-558" rx="59.29" ry="18"/>
<text text-anchor="middle" x="588.5" y="-554.3" font-family="Times,serif" font-size="14.00" fill="white">magma ❎</text>
</a>
</g>
</g>
<!-- magma&#45;&gt;pytorch&#45;cpu -->
<g id="edge61" class="edge">
<title>magma&#45;&gt;pytorch&#45;cpu</title>
<path fill="none" stroke="black" d="M588.5,-539.7C588.5,-531.98 588.5,-522.71 588.5,-514.11"/>
<polygon fill="black" stroke="black" points="592,-514.1 588.5,-504.1 585,-514.1 592,-514.1"/>
</g>
<!-- cusparselt -->
<g id="node50" class="node">
<title>cusparselt</title>
<g id="a_node50"><a xlink:href="https://github.com/conda-forge/cusparselt-feedstock" xlink:title="cusparselt">
<ellipse fill="#000000" stroke="black" cx="2237.5" cy="-558" rx="59.29" ry="18"/>
<text text-anchor="middle" x="2237.5" y="-554.3" font-family="Times,serif" font-size="14.00" fill="white">cusparselt</text>
</a>
</g>
</g>
<!-- cusparselt&#45;&gt;cupy -->
<g id="edge62" class="edge">
<title>cusparselt&#45;&gt;cupy</title>
<path fill="none" stroke="black" d="M2237.5,-539.7C2237.5,-531.98 2237.5,-522.71 2237.5,-514.11"/>
<polygon fill="black" stroke="black" points="2241,-514.1 2237.5,-504.1 2234,-514.1 2241,-514.1"/>
</g>
<!-- cudasirecon -->
<g id="node54" class="node">
<title>cudasirecon</title>
<g id="a_node54"><a xlink:href="https://github.com/conda-forge/cudasirecon-feedstock/pull/11" xlink:title="cudasirecon ❎">
<ellipse fill="#31688e" stroke="black" cx="3385.5" cy="-90" rx="80.69" ry="18"/>
<text text-anchor="middle" x="3385.5" y="-86.3" font-family="Times,serif" font-size="14.00" fill="white">cudasirecon ❎</text>
</a>
</g>
</g>
<!-- cudadecon&#45;&gt;cudasirecon -->
<!-- librmm -->
<g id="node52" class="node">
<title>librmm</title>
<g id="a_node52"><a xlink:href="https://github.com/conda-forge/librmm-feedstock/pull/21" xlink:title="librmm ❎">
<ellipse fill="#31688e" stroke="black" cx="2584.5" cy="-414" rx="58.5" ry="18"/>
<text text-anchor="middle" x="2584.5" y="-410.3" font-family="Times,serif" font-size="14.00" fill="white">librmm ❎</text>
</a>
</g>
</g>
<!-- librmm&#45;&gt;libcugraph -->
<g id="edge64" class="edge">
<title>librmm&#45;&gt;libcugraph</title>
<path fill="none" stroke="black" d="M2544.35,-400.89C2505.13,-389.05 2445.3,-371 2402.9,-358.21"/>
<polygon fill="black" stroke="black" points="2403.91,-354.86 2393.32,-355.32 2401.89,-361.56 2403.91,-354.86"/>
</g>
<!-- rmm -->
<g id="node53" class="node">
<title>rmm</title>
<g id="a_node53"><a xlink:href="https://github.com/conda-forge/rmm-feedstock" xlink:title="rmm">
<ellipse fill="#fde725" stroke="black" cx="2584.5" cy="-342" rx="32.5" ry="18"/>
<text text-anchor="middle" x="2584.5" y="-338.3" font-family="Times,serif" font-size="14.00">rmm</text>
</a>
</g>
</g>
<!-- librmm&#45;&gt;rmm -->
<g id="edge65" class="edge">
<title>librmm&#45;&gt;rmm</title>
<path fill="none" stroke="black" d="M2584.5,-395.7C2584.5,-387.98 2584.5,-378.71 2584.5,-370.11"/>
<polygon fill="black" stroke="black" points="2588,-370.1 2584.5,-360.1 2581,-370.1 2588,-370.1"/>
</g>
<!-- libastra -->
<g id="node55" class="node">
<title>libastra</title>
<g id="a_node55"><a xlink:href="https://github.com/conda-forge/libastra-feedstock/pull/9" xlink:title="libastra ❎">
<ellipse fill="#31688e" stroke="black" cx="3385.5" cy="-18" rx="60.5" ry="18"/>
<text text-anchor="middle" x="3385.5" y="-14.3" font-family="Times,serif" font-size="14.00" fill="white">libastra ❎</text>
</a>
</g>
</g>
<!-- cudasirecon&#45;&gt;libastra -->
</g>
</svg>
