<?xml version="1.0" encoding="UTF-8" standalone="no"?>
<!DOCTYPE svg PUBLIC "-//W3C//DTD SVG 1.1//EN"
 "http://www.w3.org/Graphics/SVG/1.1/DTD/svg11.dtd">
<!-- Generated by graphviz version 3.0.0 (20220315.2325)
 -->
<!-- Pages: 1 -->
<svg width="2686pt" height="880pt"
 viewBox="0.00 0.00 2685.84 880.00" xmlns="http://www.w3.org/2000/svg" xmlns:xlink="http://www.w3.org/1999/xlink">
<g id="graph0" class="graph" transform="scale(1 1) rotate(0) translate(4 876)">
<polygon fill="white" stroke="transparent" points="-4,4 -4,-876 2681.84,-876 2681.84,4 -4,4"/>
<!-- arrow&#45;cpp -->
<g id="node1" class="node">
<title>arrow&#45;cpp</title>
<g id="a_node1"><a xlink:href="https://github.com/conda-forge/arrow-cpp-feedstock" xlink:title="arrow cpp">
<ellipse fill="#000000" stroke="black" cx="1158.24" cy="-90" rx="58" ry="18"/>
<text text-anchor="middle" x="1158.24" y="-86.3" font-family="Times,serif" font-size="14.00" fill="white">arrow cpp</text>
</a>
</g>
</g>
<!-- omniscidb -->
<g id="node2" class="node">
<title>omniscidb</title>
<g id="a_node2"><a xlink:href="https://github.com/conda-forge/omniscidb-feedstock" xlink:title="omniscidb">
<ellipse fill="#fde725" stroke="black" cx="1158.24" cy="-18" rx="58" ry="18"/>
<text text-anchor="middle" x="1158.24" y="-14.3" font-family="Times,serif" font-size="14.00">omniscidb</text>
</a>
</g>
</g>
<!-- arrow&#45;cpp&#45;&gt;omniscidb -->
<g id="edge1" class="edge">
<title>arrow&#45;cpp&#45;&gt;omniscidb</title>
<path fill="none" stroke="black" d="M1158.24,-71.7C1158.24,-63.98 1158.24,-54.71 1158.24,-46.11"/>
<polygon fill="black" stroke="black" points="1161.74,-46.1 1158.24,-36.1 1154.74,-46.1 1161.74,-46.1"/>
</g>
<!-- implicit -->
<g id="node3" class="node">
<title>implicit</title>
<g id="a_node3"><a xlink:href="https://github.com/conda-forge/implicit-feedstock" xlink:title="implicit">
<ellipse fill="#fde725" stroke="black" cx="2430.24" cy="-854" rx="46.29" ry="18"/>
<text text-anchor="middle" x="2430.24" y="-850.3" font-family="Times,serif" font-size="14.00">implicit</text>
</a>
</g>
</g>
<!-- tomopy -->
<g id="node4" class="node">
<title>tomopy</title>
<g id="a_node4"><a xlink:href="https://github.com/conda-forge/tomopy-feedstock/pull/57" xlink:title="tomopy ❎">
<ellipse fill="#31688e" stroke="black" cx="2430.24" cy="-782" rx="60" ry="18"/>
<text text-anchor="middle" x="2430.24" y="-778.3" font-family="Times,serif" font-size="14.00" fill="white">tomopy ❎</text>
</a>
</g>
</g>
<!-- implicit&#45;&gt;tomopy -->
<!-- xgboost -->
<g id="node6" class="node">
<title>xgboost</title>
<g id="a_node6"><a xlink:href="https://github.com/conda-forge/xgboost-feedstock" xlink:title="xgboost">
<ellipse fill="#000000" stroke="black" cx="2430.24" cy="-710" rx="47.5" ry="18"/>
<text text-anchor="middle" x="2430.24" y="-706.3" font-family="Times,serif" font-size="14.00" fill="white">xgboost</text>
</a>
</g>
</g>
<!-- tomopy&#45;&gt;xgboost -->
<!-- kaldi -->
<g id="node5" class="node">
<title>kaldi</title>
<g id="a_node5"><a xlink:href="https://github.com/conda-forge/kaldi-feedstock" xlink:title="kaldi">
<ellipse fill="#fde725" stroke="black" cx="650.24" cy="-674" rx="33.29" ry="18"/>
<text text-anchor="middle" x="650.24" y="-670.3" font-family="Times,serif" font-size="14.00">kaldi</text>
</a>
</g>
</g>
<!-- conda&#45;forge&#45;ci&#45;setup -->
<g id="node12" class="node">
<title>conda&#45;forge&#45;ci&#45;setup</title>
<g id="a_node12"><a xlink:href="https://github.com/conda-forge/conda-forge-ci-setup-feedstock" xlink:title="conda forge ci setup">
<ellipse fill="#000000" stroke="black" cx="2430.24" cy="-638" rx="104.78" ry="18"/>
<text text-anchor="middle" x="2430.24" y="-634.3" font-family="Times,serif" font-size="14.00" fill="white">conda forge ci setup</text>
</a>
</g>
</g>
<!-- xgboost&#45;&gt;conda&#45;forge&#45;ci&#45;setup -->
<!-- torchvision -->
<g id="node7" class="node">
<title>torchvision</title>
<g id="a_node7"><a xlink:href="https://github.com/conda-forge/torchvision-feedstock" xlink:title="torchvision">
<ellipse fill="#fde725" stroke="black" cx="1060.24" cy="-602" rx="62.5" ry="18"/>
<text text-anchor="middle" x="1060.24" y="-598.3" font-family="Times,serif" font-size="14.00">torchvision</text>
</a>
</g>
</g>
<!-- detectron2 -->
<g id="node8" class="node">
<title>detectron2</title>
<g id="a_node8"><a xlink:href="https://github.com/conda-forge/detectron2-feedstock" xlink:title="detectron2">
<ellipse fill="#fde725" stroke="black" cx="1190.24" cy="-530" rx="61.99" ry="18"/>
<text text-anchor="middle" x="1190.24" y="-526.3" font-family="Times,serif" font-size="14.00">detectron2</text>
</a>
</g>
</g>
<!-- torchvision&#45;&gt;detectron2 -->
<g id="edge4" class="edge">
<title>torchvision&#45;&gt;detectron2</title>
<path fill="none" stroke="black" d="M1088.45,-585.81C1107.36,-575.63 1132.46,-562.11 1153.01,-551.05"/>
<polygon fill="black" stroke="black" points="1154.94,-553.98 1162.09,-546.16 1151.63,-547.82 1154.94,-553.98"/>
</g>
<!-- fcos -->
<g id="node9" class="node">
<title>fcos</title>
<g id="a_node9"><a xlink:href="https://github.com/conda-forge/fcos-feedstock" xlink:title="fcos">
<ellipse fill="#fde725" stroke="black" cx="918.24" cy="-530" rx="29.5" ry="18"/>
<text text-anchor="middle" x="918.24" y="-526.3" font-family="Times,serif" font-size="14.00">fcos</text>
</a>
</g>
</g>
<!-- torchvision&#45;&gt;fcos -->
<g id="edge5" class="edge">
<title>torchvision&#45;&gt;fcos</title>
<path fill="none" stroke="black" d="M1030.13,-586.15C1006.41,-574.46 973.46,-558.22 949.46,-546.39"/>
<polygon fill="black" stroke="black" points="950.94,-543.21 940.42,-541.93 947.84,-549.49 950.94,-543.21"/>
</g>
<!-- fairscale -->
<g id="node10" class="node">
<title>fairscale</title>
<g id="a_node10"><a xlink:href="https://github.com/conda-forge/fairscale-feedstock" xlink:title="fairscale">
<ellipse fill="#fde725" stroke="black" cx="1060.24" cy="-530" rx="50.09" ry="18"/>
<text text-anchor="middle" x="1060.24" y="-526.3" font-family="Times,serif" font-size="14.00">fairscale</text>
</a>
</g>
</g>
<!-- torchvision&#45;&gt;fairscale -->
<g id="edge6" class="edge">
<title>torchvision&#45;&gt;fairscale</title>
<path fill="none" stroke="black" d="M1060.24,-583.7C1060.24,-575.98 1060.24,-566.71 1060.24,-558.11"/>
<polygon fill="black" stroke="black" points="1063.74,-558.1 1060.24,-548.1 1056.74,-558.1 1063.74,-558.1"/>
</g>
<!-- graphvite -->
<g id="node11" class="node">
<title>graphvite</title>
<g id="a_node11"><a xlink:href="https://github.com/conda-forge/graphvite-feedstock" xlink:title="graphvite">
<ellipse fill="#fde725" stroke="black" cx="623.24" cy="-530" rx="56" ry="18"/>
<text text-anchor="middle" x="623.24" y="-526.3" font-family="Times,serif" font-size="14.00">graphvite</text>
</a>
</g>
</g>
<!-- torchvision&#45;&gt;graphvite -->
<g id="edge7" class="edge">
<title>torchvision&#45;&gt;graphvite</title>
<path fill="none" stroke="black" d="M1015.34,-589.42C1006.71,-587.43 997.73,-585.52 989.24,-584 856.62,-560.27 820.61,-573.1 688.24,-548 683.55,-547.11 678.69,-546.07 673.84,-544.95"/>
<polygon fill="black" stroke="black" points="674.51,-541.51 663.96,-542.56 672.86,-548.31 674.51,-541.51"/>
</g>
<!-- hoomd -->
<g id="node15" class="node">
<title>hoomd</title>
<g id="a_node15"><a xlink:href="https://github.com/conda-forge/hoomd-feedstock" xlink:title="hoomd">
<ellipse fill="#fde725" stroke="black" cx="2430.24" cy="-566" rx="42.49" ry="18"/>
<text text-anchor="middle" x="2430.24" y="-562.3" font-family="Times,serif" font-size="14.00">hoomd</text>
</a>
</g>
</g>
<!-- conda&#45;forge&#45;ci&#45;setup&#45;&gt;hoomd -->
<!-- tensorflow -->
<g id="node13" class="node">
<title>tensorflow</title>
<g id="a_node13"><a xlink:href="https://github.com/conda-forge/tensorflow-feedstock" xlink:title="tensorflow">
<ellipse fill="#fde725" stroke="black" cx="1669.24" cy="-674" rx="60" ry="18"/>
<text text-anchor="middle" x="1669.24" y="-670.3" font-family="Times,serif" font-size="14.00">tensorflow</text>
</a>
</g>
</g>
<!-- deepmd&#45;kit -->
<g id="node14" class="node">
<title>deepmd&#45;kit</title>
<g id="a_node14"><a xlink:href="https://github.com/conda-forge/deepmd-kit-feedstock" xlink:title="deepmd kit">
<ellipse fill="#fde725" stroke="black" cx="1758.24" cy="-602" rx="63.09" ry="18"/>
<text text-anchor="middle" x="1758.24" y="-598.3" font-family="Times,serif" font-size="14.00">deepmd kit</text>
</a>
</g>
</g>
<!-- tensorflow&#45;&gt;deepmd&#45;kit -->
<g id="edge9" class="edge">
<title>tensorflow&#45;&gt;deepmd&#45;kit</title>
<path fill="none" stroke="black" d="M1689.88,-656.76C1701.68,-647.49 1716.65,-635.71 1729.57,-625.55"/>
<polygon fill="black" stroke="black" points="1732.02,-628.08 1737.71,-619.15 1727.69,-622.58 1732.02,-628.08"/>
</g>
<!-- prismatic_split -->
<g id="node16" class="node">
<title>prismatic_split</title>
<g id="a_node16"><a xlink:href="https://github.com/conda-forge/prismatic_split-feedstock" xlink:title="prismatic_split">
<ellipse fill="#fde725" stroke="black" cx="2430.24" cy="-494" rx="79.5" ry="18"/>
<text text-anchor="middle" x="2430.24" y="-490.3" font-family="Times,serif" font-size="14.00">prismatic_split</text>
</a>
</g>
</g>
<!-- hoomd&#45;&gt;prismatic_split -->
<!-- cudadecon -->
<g id="node40" class="node">
<title>cudadecon</title>
<g id="a_node40"><a xlink:href="https://github.com/conda-forge/cudadecon-feedstock" xlink:title="cudadecon">
<ellipse fill="#fde725" stroke="black" cx="2430.24" cy="-422" rx="60" ry="18"/>
<text text-anchor="middle" x="2430.24" y="-418.3" font-family="Times,serif" font-size="14.00">cudadecon</text>
</a>
</g>
</g>
<!-- prismatic_split&#45;&gt;cudadecon -->
<!-- pytorch&#45;cpu -->
<g id="node17" class="node">
<title>pytorch&#45;cpu</title>
<g id="a_node17"><a xlink:href="https://github.com/conda-forge/pytorch-cpu-feedstock" xlink:title="pytorch cpu">
<ellipse fill="#fde725" stroke="black" cx="767.24" cy="-674" rx="65.79" ry="18"/>
<text text-anchor="middle" x="767.24" y="-670.3" font-family="Times,serif" font-size="14.00">pytorch cpu</text>
</a>
</g>
</g>
<!-- pytorch&#45;cpu&#45;&gt;torchvision -->
<g id="edge12" class="edge">
<title>pytorch&#45;cpu&#45;&gt;torchvision</title>
<path fill="none" stroke="black" d="M815.31,-661.53C860.28,-650.8 929.32,-634.33 989.24,-620 993.93,-618.88 998.79,-617.72 1003.66,-616.55"/>
<polygon fill="black" stroke="black" points="1004.74,-619.89 1013.65,-614.16 1003.11,-613.08 1004.74,-619.89"/>
</g>
<!-- pytorch&#45;cpu&#45;&gt;detectron2 -->
<g id="edge13" class="edge">
<title>pytorch&#45;cpu&#45;&gt;detectron2</title>
<path fill="none" stroke="black" d="M832.28,-671.38C927.88,-667.78 1100.32,-656.31 1149.24,-620 1169.14,-605.24 1179.66,-578.47 1185.04,-558.14"/>
<polygon fill="black" stroke="black" points="1188.5,-558.72 1187.41,-548.19 1181.69,-557.1 1188.5,-558.72"/>
</g>
<!-- pytorch&#45;cpu&#45;&gt;fcos -->
<g id="edge14" class="edge">
<title>pytorch&#45;cpu&#45;&gt;fcos</title>
<path fill="none" stroke="black" d="M779.58,-656.16C793.77,-637.41 818.33,-606.73 843.24,-584 857.48,-571.01 875,-558.47 889.53,-548.85"/>
<polygon fill="black" stroke="black" points="891.65,-551.64 898.13,-543.26 887.83,-545.77 891.65,-551.64"/>
</g>
<!-- pytorch&#45;cpu&#45;&gt;fairscale -->
<g id="edge15" class="edge">
<title>pytorch&#45;cpu&#45;&gt;fairscale</title>
<path fill="none" stroke="black" d="M833.11,-673.3C927.56,-672.17 1094.32,-663.82 1132.24,-620 1142.71,-607.9 1139.46,-598.28 1132.24,-584 1125.07,-569.82 1112.12,-558.5 1099.16,-550.03"/>
<polygon fill="black" stroke="black" points="1100.62,-546.82 1090.26,-544.62 1096.99,-552.8 1100.62,-546.82"/>
</g>
<!-- pytorch&#45;cpu&#45;&gt;graphvite -->
<g id="edge16" class="edge">
<title>pytorch&#45;cpu&#45;&gt;graphvite</title>
<path fill="none" stroke="black" d="M754.45,-656.04C740.04,-637.44 715.47,-607.17 691.24,-584 679.64,-572.91 665.82,-561.8 653.69,-552.65"/>
<polygon fill="black" stroke="black" points="655.71,-549.8 645.6,-546.65 651.54,-555.42 655.71,-549.8"/>
</g>
<!-- nvidia&#45;apex -->
<g id="node18" class="node">
<title>nvidia&#45;apex</title>
<g id="a_node18"><a xlink:href="https://github.com/conda-forge/nvidia-apex-feedstock" xlink:title="nvidia apex">
<ellipse fill="#fde725" stroke="black" cx="916.24" cy="-602" rx="63.89" ry="18"/>
<text text-anchor="middle" x="916.24" y="-598.3" font-family="Times,serif" font-size="14.00">nvidia apex</text>
</a>
</g>
</g>
<!-- pytorch&#45;cpu&#45;&gt;nvidia&#45;apex -->
<g id="edge17" class="edge">
<title>pytorch&#45;cpu&#45;&gt;nvidia&#45;apex</title>
<path fill="none" stroke="black" d="M798.84,-658.15C821.24,-647.63 851.49,-633.42 875.67,-622.06"/>
<polygon fill="black" stroke="black" points="877.38,-625.12 884.95,-617.7 874.41,-618.79 877.38,-625.12"/>
</g>
<!-- pytorch_cluster -->
<g id="node19" class="node">
<title>pytorch_cluster</title>
<g id="a_node19"><a xlink:href="https://github.com/conda-forge/pytorch_cluster-feedstock" xlink:title="pytorch_cluster">
<ellipse fill="#fde725" stroke="black" cx="98.24" cy="-530" rx="83.39" ry="18"/>
<text text-anchor="middle" x="98.24" y="-526.3" font-family="Times,serif" font-size="14.00">pytorch_cluster</text>
</a>
</g>
</g>
<!-- pytorch&#45;cpu&#45;&gt;pytorch_cluster -->
<g id="edge18" class="edge">
<title>pytorch&#45;cpu&#45;&gt;pytorch_cluster</title>
<path fill="none" stroke="black" d="M720.64,-661.29C711.28,-659.27 701.49,-657.37 692.24,-656 582.71,-639.71 296.92,-663.87 195.24,-620 163.19,-606.17 134.86,-577.17 117.22,-556.01"/>
<polygon fill="black" stroke="black" points="119.79,-553.63 110.77,-548.06 114.35,-558.03 119.79,-553.63"/>
</g>
<!-- pytorch_scatter -->
<g id="node20" class="node">
<title>pytorch_scatter</title>
<g id="a_node20"><a xlink:href="https://github.com/conda-forge/pytorch_scatter-feedstock" xlink:title="pytorch_scatter">
<ellipse fill="#fde725" stroke="black" cx="109.24" cy="-458" rx="83.39" ry="18"/>
<text text-anchor="middle" x="109.24" y="-454.3" font-family="Times,serif" font-size="14.00">pytorch_scatter</text>
</a>
</g>
</g>
<!-- pytorch&#45;cpu&#45;&gt;pytorch_scatter -->
<g id="edge19" class="edge">
<title>pytorch&#45;cpu&#45;&gt;pytorch_scatter</title>
<path fill="none" stroke="black" d="M720.23,-661.25C711,-659.25 701.35,-657.38 692.24,-656 591.09,-640.65 315.61,-680.7 233.24,-620 191.65,-589.35 222.94,-552.01 190.24,-512 179.69,-499.08 165.14,-488.22 151.28,-479.75"/>
<polygon fill="black" stroke="black" points="152.73,-476.54 142.33,-474.54 149.21,-482.59 152.73,-476.54"/>
</g>
<!-- pytorch_spline_conv -->
<g id="node21" class="node">
<title>pytorch_spline_conv</title>
<g id="a_node21"><a xlink:href="https://github.com/conda-forge/pytorch_spline_conv-feedstock" xlink:title="pytorch_spline_conv">
<ellipse fill="#fde725" stroke="black" cx="285.24" cy="-386" rx="104.78" ry="18"/>
<text text-anchor="middle" x="285.24" y="-382.3" font-family="Times,serif" font-size="14.00">pytorch_spline_conv</text>
</a>
</g>
</g>
<!-- pytorch&#45;cpu&#45;&gt;pytorch_spline_conv -->
<g id="edge20" class="edge">
<title>pytorch&#45;cpu&#45;&gt;pytorch_spline_conv</title>
<path fill="none" stroke="black" d="M720.21,-661.36C710.98,-659.36 701.34,-657.45 692.24,-656 607.83,-642.52 369.96,-680.18 309.24,-620 254.08,-565.33 267.87,-462.55 278.43,-413.87"/>
<polygon fill="black" stroke="black" points="281.85,-414.6 280.67,-404.07 275.03,-413.04 281.85,-414.6"/>
</g>
<!-- pytorch_sparse -->
<g id="node22" class="node">
<title>pytorch_sparse</title>
<g id="a_node22"><a xlink:href="https://github.com/conda-forge/pytorch_sparse-feedstock" xlink:title="pytorch_sparse">
<ellipse fill="#fde725" stroke="black" cx="81.24" cy="-386" rx="81.49" ry="18"/>
<text text-anchor="middle" x="81.24" y="-382.3" font-family="Times,serif" font-size="14.00">pytorch_sparse</text>
</a>
</g>
</g>
<!-- pytorch&#45;cpu&#45;&gt;pytorch_sparse -->
<g id="edge21" class="edge">
<title>pytorch&#45;cpu&#45;&gt;pytorch_sparse</title>
<path fill="none" stroke="black" d="M720.22,-661.32C710.99,-659.32 701.34,-657.42 692.24,-656 601.88,-641.86 356.8,-672.98 282.24,-620 210.73,-569.19 263.49,-501.82 201.24,-440 184.78,-423.65 162.41,-411.92 141.44,-403.72"/>
<polygon fill="black" stroke="black" points="142.53,-400.39 131.94,-400.2 140.1,-406.95 142.53,-400.39"/>
</g>
<!-- torchani -->
<g id="node23" class="node">
<title>torchani</title>
<g id="a_node23"><a xlink:href="https://github.com/conda-forge/torchani-feedstock" xlink:title="torchani">
<ellipse fill="#fde725" stroke="black" cx="517.24" cy="-314" rx="49.5" ry="18"/>
<text text-anchor="middle" x="517.24" y="-310.3" font-family="Times,serif" font-size="14.00">torchani</text>
</a>
</g>
</g>
<!-- pytorch&#45;cpu&#45;&gt;torchani -->
<g id="edge22" class="edge">
<title>pytorch&#45;cpu&#45;&gt;torchani</title>
<path fill="none" stroke="black" d="M718.33,-661.9C652.31,-646.87 542.71,-621.71 541.24,-620 523.38,-599.2 518.72,-413.58 517.58,-342.51"/>
<polygon fill="black" stroke="black" points="521.08,-342.08 517.43,-332.13 514.08,-342.18 521.08,-342.08"/>
</g>
<!-- openmm&#45;torch -->
<g id="node24" class="node">
<title>openmm&#45;torch</title>
<g id="a_node24"><a xlink:href="https://github.com/conda-forge/openmm-torch-feedstock" xlink:title="openmm torch">
<ellipse fill="#fde725" stroke="black" cx="1599.24" cy="-602" rx="78" ry="18"/>
<text text-anchor="middle" x="1599.24" y="-598.3" font-family="Times,serif" font-size="14.00">openmm torch</text>
</a>
</g>
</g>
<!-- pytorch&#45;cpu&#45;&gt;openmm&#45;torch -->
<g id="edge23" class="edge">
<title>pytorch&#45;cpu&#45;&gt;openmm&#45;torch</title>
<path fill="none" stroke="black" d="M831.21,-669.5C955.39,-662.42 1237.69,-644.93 1474.24,-620 1490.75,-618.26 1508.43,-616.06 1525.15,-613.83"/>
<polygon fill="black" stroke="black" points="1525.98,-617.25 1535.42,-612.44 1525.04,-610.31 1525.98,-617.25"/>
</g>
<!-- torchsparse -->
<g id="node25" class="node">
<title>torchsparse</title>
<g id="a_node25"><a xlink:href="https://github.com/conda-forge/torchsparse-feedstock" xlink:title="torchsparse">
<ellipse fill="#fde725" stroke="black" cx="616.24" cy="-602" rx="65.79" ry="18"/>
<text text-anchor="middle" x="616.24" y="-598.3" font-family="Times,serif" font-size="14.00">torchsparse</text>
</a>
</g>
</g>
<!-- pytorch&#45;cpu&#45;&gt;torchsparse -->
<g id="edge24" class="edge">
<title>pytorch&#45;cpu&#45;&gt;torchsparse</title>
<path fill="none" stroke="black" d="M735.22,-658.15C712.6,-647.67 682.08,-633.52 657.61,-622.18"/>
<polygon fill="black" stroke="black" points="658.76,-618.85 648.22,-617.82 655.82,-625.21 658.76,-618.85"/>
</g>
<!-- torch&#45;scatter -->
<g id="node26" class="node">
<title>torch&#45;scatter</title>
<g id="a_node26"><a xlink:href="https://github.com/conda-forge/torch-scatter-feedstock" xlink:title="torch scatter">
<ellipse fill="#fde725" stroke="black" cx="1288.24" cy="-602" rx="71" ry="18"/>
<text text-anchor="middle" x="1288.24" y="-598.3" font-family="Times,serif" font-size="14.00">torch scatter</text>
</a>
</g>
</g>
<!-- pytorch&#45;cpu&#45;&gt;torch&#45;scatter -->
<g id="edge25" class="edge">
<title>pytorch&#45;cpu&#45;&gt;torch&#45;scatter</title>
<path fill="none" stroke="black" d="M828.11,-667.09C912.57,-658.54 1069.98,-641.39 1203.24,-620 1210.58,-618.82 1218.25,-617.47 1225.84,-616.05"/>
<polygon fill="black" stroke="black" points="1226.59,-619.47 1235.76,-614.15 1225.28,-612.59 1226.59,-619.47"/>
</g>
<!-- kaolin -->
<g id="node27" class="node">
<title>kaolin</title>
<g id="a_node27"><a xlink:href="https://github.com/conda-forge/kaolin-feedstock" xlink:title="kaolin">
<ellipse fill="#fde725" stroke="black" cx="736.24" cy="-530" rx="38.5" ry="18"/>
<text text-anchor="middle" x="736.24" y="-526.3" font-family="Times,serif" font-size="14.00">kaolin</text>
</a>
</g>
</g>
<!-- pytorch&#45;cpu&#45;&gt;kaolin -->
<g id="edge26" class="edge">
<title>pytorch&#45;cpu&#45;&gt;kaolin</title>
<path fill="none" stroke="black" d="M763.5,-655.87C758.2,-631.56 748.43,-586.82 742.14,-558.01"/>
<polygon fill="black" stroke="black" points="745.55,-557.21 740,-548.19 738.71,-558.71 745.55,-557.21"/>
</g>
<!-- nnpops -->
<g id="node28" class="node">
<title>nnpops</title>
<g id="a_node28"><a xlink:href="https://github.com/conda-forge/nnpops-feedstock" xlink:title="nnpops">
<ellipse fill="#fde725" stroke="black" cx="457.24" cy="-242" rx="44.39" ry="18"/>
<text text-anchor="middle" x="457.24" y="-238.3" font-family="Times,serif" font-size="14.00">nnpops</text>
</a>
</g>
</g>
<!-- pytorch&#45;cpu&#45;&gt;nnpops -->
<g id="edge27" class="edge">
<title>pytorch&#45;cpu&#45;&gt;nnpops</title>
<path fill="none" stroke="black" d="M719.79,-661.41C710.68,-659.42 701.19,-657.51 692.24,-656 621.9,-644.1 426.14,-667.87 373.24,-620 313.05,-565.53 303.06,-511.09 342.24,-440 356.71,-413.76 380.48,-427.36 399.24,-404 431.31,-364.08 446.48,-304.94 452.98,-270.55"/>
<polygon fill="black" stroke="black" points="456.5,-270.77 454.8,-260.31 449.6,-269.55 456.5,-270.77"/>
</g>
<!-- triton -->
<g id="node29" class="node">
<title>triton</title>
<g id="a_node29"><a xlink:href="https://github.com/conda-forge/triton-feedstock" xlink:title="triton">
<ellipse fill="#fde725" stroke="black" cx="803.24" cy="-458" rx="37.09" ry="18"/>
<text text-anchor="middle" x="803.24" y="-454.3" font-family="Times,serif" font-size="14.00">triton</text>
</a>
</g>
</g>
<!-- pytorch&#45;cpu&#45;&gt;triton -->
<g id="edge28" class="edge">
<title>pytorch&#45;cpu&#45;&gt;triton</title>
<path fill="none" stroke="black" d="M770.13,-655.85C776.37,-618.75 791.16,-530.81 798.68,-486.1"/>
<polygon fill="black" stroke="black" points="802.14,-486.67 800.34,-476.23 795.23,-485.51 802.14,-486.67"/>
</g>
<!-- pytorch_scatter&#45;&gt;pytorch_sparse -->
<g id="edge29" class="edge">
<title>pytorch_scatter&#45;&gt;pytorch_sparse</title>
<path fill="none" stroke="black" d="M102.46,-440.05C99.31,-432.18 95.49,-422.62 91.96,-413.79"/>
<polygon fill="black" stroke="black" points="95.12,-412.26 88.15,-404.28 88.62,-414.86 95.12,-412.26"/>
</g>
<!-- torchani&#45;&gt;nnpops -->
<g id="edge30" class="edge">
<title>torchani&#45;&gt;nnpops</title>
<path fill="none" stroke="black" d="M503.02,-296.41C495.55,-287.69 486.25,-276.85 477.99,-267.21"/>
<polygon fill="black" stroke="black" points="480.53,-264.78 471.36,-259.47 475.21,-269.34 480.53,-264.78"/>
</g>
<!-- openmm -->
<g id="node30" class="node">
<title>openmm</title>
<g id="a_node30"><a xlink:href="https://github.com/conda-forge/openmm-feedstock" xlink:title="openmm">
<ellipse fill="#000000" stroke="black" cx="2088.24" cy="-674" rx="50.89" ry="18"/>
<text text-anchor="middle" x="2088.24" y="-670.3" font-family="Times,serif" font-size="14.00" fill="white">openmm</text>
</a>
</g>
</g>
<!-- openmm&#45;&gt;openmm&#45;torch -->
<g id="edge31" class="edge">
<title>openmm&#45;&gt;openmm&#45;torch</title>
<path fill="none" stroke="black" d="M2040.45,-667.67C1965,-659.03 1813.73,-640.84 1686.24,-620 1679.61,-618.92 1672.71,-617.71 1665.82,-616.45"/>
<polygon fill="black" stroke="black" points="1666.25,-612.97 1655.78,-614.57 1664.97,-619.85 1666.25,-612.97"/>
</g>
<!-- openmm&#45;plumed -->
<g id="node31" class="node">
<title>openmm&#45;plumed</title>
<g id="a_node31"><a xlink:href="https://github.com/conda-forge/openmm-plumed-feedstock" xlink:title="openmm plumed">
<ellipse fill="#fde725" stroke="black" cx="2229.24" cy="-602" rx="88.5" ry="18"/>
<text text-anchor="middle" x="2229.24" y="-598.3" font-family="Times,serif" font-size="14.00">openmm plumed</text>
</a>
</g>
</g>
<!-- openmm&#45;&gt;openmm&#45;plumed -->
<g id="edge32" class="edge">
<title>openmm&#45;&gt;openmm&#45;plumed</title>
<path fill="none" stroke="black" d="M2116.44,-659C2136.99,-648.8 2165.16,-634.81 2188.21,-623.37"/>
<polygon fill="black" stroke="black" points="2190.01,-626.39 2197.41,-618.81 2186.89,-620.12 2190.01,-626.39"/>
</g>
<!-- meld -->
<g id="node32" class="node">
<title>meld</title>
<g id="a_node32"><a xlink:href="https://github.com/conda-forge/meld-feedstock" xlink:title="meld">
<ellipse fill="#fde725" stroke="black" cx="2051.24" cy="-530" rx="34" ry="18"/>
<text text-anchor="middle" x="2051.24" y="-526.3" font-family="Times,serif" font-size="14.00">meld</text>
</a>
</g>
</g>
<!-- openmm&#45;&gt;meld -->
<g id="edge33" class="edge">
<title>openmm&#45;&gt;meld</title>
<path fill="none" stroke="black" d="M2083.78,-655.87C2077.45,-631.56 2065.79,-586.82 2058.28,-558.01"/>
<polygon fill="black" stroke="black" points="2061.63,-556.98 2055.72,-548.19 2054.86,-558.75 2061.63,-556.98"/>
</g>
<!-- seekr2_openmm_plugin -->
<g id="node33" class="node">
<title>seekr2_openmm_plugin</title>
<g id="a_node33"><a xlink:href="https://github.com/conda-forge/seekr2_openmm_plugin-feedstock" xlink:title="seekr2_openmm_plugin">
<ellipse fill="#fde725" stroke="black" cx="2113.24" cy="-458" rx="120.48" ry="18"/>
<text text-anchor="middle" x="2113.24" y="-454.3" font-family="Times,serif" font-size="14.00">seekr2_openmm_plugin</text>
</a>
</g>
</g>
<!-- openmm&#45;&gt;seekr2_openmm_plugin -->
<g id="edge34" class="edge">
<title>openmm&#45;&gt;seekr2_openmm_plugin</title>
<path fill="none" stroke="black" d="M2090.25,-655.85C2094.57,-618.83 2104.81,-531.18 2110.04,-486.39"/>
<polygon fill="black" stroke="black" points="2113.55,-486.57 2111.23,-476.23 2106.59,-485.76 2113.55,-486.57"/>
</g>
<!-- cupy -->
<g id="node34" class="node">
<title>cupy</title>
<g id="a_node34"><a xlink:href="https://github.com/conda-forge/cupy-feedstock" xlink:title="cupy">
<ellipse fill="#fde725" stroke="black" cx="1858.24" cy="-674" rx="32.5" ry="18"/>
<text text-anchor="middle" x="1858.24" y="-670.3" font-family="Times,serif" font-size="14.00">cupy</text>
</a>
</g>
</g>
<!-- cuquantum&#45;python -->
<g id="node35" class="node">
<title>cuquantum&#45;python</title>
<g id="a_node35"><a xlink:href="https://github.com/conda-forge/cuquantum-python-feedstock" xlink:title="cuquantum python">
<ellipse fill="#fde725" stroke="black" cx="1937.24" cy="-602" rx="98.28" ry="18"/>
<text text-anchor="middle" x="1937.24" y="-598.3" font-family="Times,serif" font-size="14.00">cuquantum python</text>
</a>
</g>
</g>
<!-- cupy&#45;&gt;cuquantum&#45;python -->
<g id="edge35" class="edge">
<title>cupy&#45;&gt;cuquantum&#45;python</title>
<path fill="none" stroke="black" d="M1875,-658.15C1885.3,-649.02 1898.74,-637.12 1910.49,-626.71"/>
<polygon fill="black" stroke="black" points="1913.13,-629.04 1918.3,-619.79 1908.49,-623.8 1913.13,-629.04"/>
</g>
<!-- cudnn -->
<g id="node36" class="node">
<title>cudnn</title>
<g id="a_node36"><a xlink:href="https://github.com/conda-forge/cudnn-feedstock/pull/39" xlink:title="cudnn ✓">
<ellipse fill="#31688e" stroke="black" cx="1421.24" cy="-746" rx="46.29" ry="18"/>
<text text-anchor="middle" x="1421.24" y="-742.3" font-family="Times,serif" font-size="14.00" fill="white">cudnn ✓</text>
</a>
</g>
</g>
<!-- cudnn&#45;&gt;torchvision -->
<g id="edge36" class="edge">
<title>cudnn&#45;&gt;torchvision</title>
<path fill="none" stroke="black" d="M1389.84,-732.65C1325.65,-707.4 1179.23,-649.8 1105.07,-620.63"/>
<polygon fill="black" stroke="black" points="1106.12,-617.28 1095.53,-616.88 1103.55,-623.8 1106.12,-617.28"/>
</g>
<!-- cudnn&#45;&gt;tensorflow -->
<g id="edge37" class="edge">
<title>cudnn&#45;&gt;tensorflow</title>
<path fill="none" stroke="black" d="M1457.57,-734.75C1499.65,-722.87 1569.3,-703.21 1617.14,-689.71"/>
<polygon fill="black" stroke="black" points="1618.33,-693.01 1627,-686.92 1616.43,-686.27 1618.33,-693.01"/>
</g>
<!-- cudnn&#45;&gt;pytorch&#45;cpu -->
<g id="edge38" class="edge">
<title>cudnn&#45;&gt;pytorch&#45;cpu</title>
<path fill="none" stroke="black" d="M1377.32,-740.3C1266.22,-728.41 973.3,-697.05 837.82,-682.55"/>
<polygon fill="black" stroke="black" points="837.87,-679.04 827.56,-681.46 837.13,-686 837.87,-679.04"/>
</g>
<!-- cudnn&#45;&gt;torch&#45;scatter -->
<g id="edge39" class="edge">
<title>cudnn&#45;&gt;torch&#45;scatter</title>
<path fill="none" stroke="black" d="M1405.99,-728.71C1382.78,-703.94 1338.47,-656.62 1311.32,-627.64"/>
<polygon fill="black" stroke="black" points="1313.54,-624.88 1304.15,-619.98 1308.43,-629.67 1313.54,-624.88"/>
</g>
<!-- cudnn&#45;&gt;cupy -->
<g id="edge40" class="edge">
<title>cudnn&#45;&gt;cupy</title>
<path fill="none" stroke="black" d="M1463.14,-738.29C1546.93,-724.87 1734.21,-694.87 1817.25,-681.57"/>
<polygon fill="black" stroke="black" points="1817.99,-684.99 1827.32,-679.95 1816.89,-678.08 1817.99,-684.99"/>
</g>
<!-- libtvm -->
<g id="node37" class="node">
<title>libtvm</title>
<g id="a_node37"><a xlink:href="https://github.com/conda-forge/libtvm-feedstock" xlink:title="libtvm">
<ellipse fill="#fde725" stroke="black" cx="1457.24" cy="-530" rx="40.5" ry="18"/>
<text text-anchor="middle" x="1457.24" y="-526.3" font-family="Times,serif" font-size="14.00">libtvm</text>
</a>
</g>
</g>
<!-- cudnn&#45;&gt;libtvm -->
<g id="edge41" class="edge">
<title>cudnn&#45;&gt;libtvm</title>
<path fill="none" stroke="black" d="M1430.9,-728.32C1443.78,-704.99 1465.93,-660.89 1474.24,-620 1477.43,-604.32 1476.72,-599.81 1474.24,-584 1472.86,-575.18 1470.26,-565.82 1467.5,-557.46"/>
<polygon fill="black" stroke="black" points="1470.75,-556.13 1464.13,-547.86 1464.15,-558.45 1470.75,-556.13"/>
</g>
<!-- cutlass -->
<g id="node38" class="node">
<title>cutlass</title>
<g id="a_node38"><a xlink:href="https://github.com/conda-forge/cutlass-feedstock" xlink:title="cutlass">
<ellipse fill="#fde725" stroke="black" cx="1421.24" cy="-602" rx="43.59" ry="18"/>
<text text-anchor="middle" x="1421.24" y="-598.3" font-family="Times,serif" font-size="14.00">cutlass</text>
</a>
</g>
</g>
<!-- cudnn&#45;&gt;cutlass -->
<g id="edge42" class="edge">
<title>cudnn&#45;&gt;cutlass</title>
<path fill="none" stroke="black" d="M1421.24,-727.87C1421.24,-703.67 1421.24,-659.21 1421.24,-630.39"/>
<polygon fill="black" stroke="black" points="1424.74,-630.19 1421.24,-620.19 1417.74,-630.19 1424.74,-630.19"/>
</g>
<!-- tvm&#45;py -->
<g id="node39" class="node">
<title>tvm&#45;py</title>
<g id="a_node39"><a xlink:href="https://github.com/conda-forge/tvm-py-feedstock" xlink:title="tvm py">
<ellipse fill="#fde725" stroke="black" cx="1457.24" cy="-458" rx="43" ry="18"/>
<text text-anchor="middle" x="1457.24" y="-454.3" font-family="Times,serif" font-size="14.00">tvm py</text>
</a>
</g>
</g>
<!-- libtvm&#45;&gt;tvm&#45;py -->
<g id="edge43" class="edge">
<title>libtvm&#45;&gt;tvm&#45;py</title>
<path fill="none" stroke="black" d="M1457.24,-511.7C1457.24,-503.98 1457.24,-494.71 1457.24,-486.11"/>
<polygon fill="black" stroke="black" points="1460.74,-486.1 1457.24,-476.1 1453.74,-486.1 1460.74,-486.1"/>
</g>
<!-- cutlass&#45;&gt;libtvm -->
<g id="edge44" class="edge">
<title>cutlass&#45;&gt;libtvm</title>
<path fill="none" stroke="black" d="M1429.96,-584.05C1434.16,-575.89 1439.29,-565.91 1443.96,-556.82"/>
<polygon fill="black" stroke="black" points="1447.15,-558.28 1448.61,-547.79 1440.92,-555.08 1447.15,-558.28"/>
</g>
<!-- cudasirecon -->
<g id="node48" class="node">
<title>cudasirecon</title>
<g id="a_node48"><a xlink:href="https://github.com/conda-forge/cudasirecon-feedstock" xlink:title="cudasirecon">
<ellipse fill="#fde725" stroke="black" cx="2430.24" cy="-350" rx="66.5" ry="18"/>
<text text-anchor="middle" x="2430.24" y="-346.3" font-family="Times,serif" font-size="14.00">cudasirecon</text>
</a>
</g>
</g>
<!-- cudadecon&#45;&gt;cudasirecon -->
<!-- pp&#45;sketchlib -->
<g id="node41" class="node">
<title>pp&#45;sketchlib</title>
<g id="a_node41"><a xlink:href="https://github.com/conda-forge/pp-sketchlib-feedstock" xlink:title="pp sketchlib">
<ellipse fill="#fde725" stroke="black" cx="2610.24" cy="-530" rx="67.69" ry="18"/>
<text text-anchor="middle" x="2610.24" y="-526.3" font-family="Times,serif" font-size="14.00">pp sketchlib</text>
</a>
</g>
</g>
<!-- mandrake -->
<g id="node42" class="node">
<title>mandrake</title>
<g id="a_node42"><a xlink:href="https://github.com/conda-forge/mandrake-feedstock" xlink:title="mandrake">
<ellipse fill="#fde725" stroke="black" cx="2610.24" cy="-458" rx="57.39" ry="18"/>
<text text-anchor="middle" x="2610.24" y="-454.3" font-family="Times,serif" font-size="14.00">mandrake</text>
</a>
</g>
</g>
<!-- pp&#45;sketchlib&#45;&gt;mandrake -->
<g id="edge46" class="edge">
<title>pp&#45;sketchlib&#45;&gt;mandrake</title>
<path fill="none" stroke="black" d="M2610.24,-511.7C2610.24,-503.98 2610.24,-494.71 2610.24,-486.11"/>
<polygon fill="black" stroke="black" points="2613.74,-486.1 2610.24,-476.1 2606.74,-486.1 2613.74,-486.1"/>
</g>
<!-- faiss&#45;split -->
<g id="node43" class="node">
<title>faiss&#45;split</title>
<g id="a_node43"><a xlink:href="https://github.com/conda-forge/faiss-split-feedstock" xlink:title="faiss split">
<ellipse fill="#fde725" stroke="black" cx="438.24" cy="-602" rx="56" ry="18"/>
<text text-anchor="middle" x="438.24" y="-598.3" font-family="Times,serif" font-size="14.00">faiss split</text>
</a>
</g>
</g>
<!-- faiss&#45;split&#45;&gt;graphvite -->
<g id="edge47" class="edge">
<title>faiss&#45;split&#45;&gt;graphvite</title>
<path fill="none" stroke="black" d="M473.04,-587.83C502.92,-576.53 546.17,-560.16 578.6,-547.89"/>
<polygon fill="black" stroke="black" points="580.17,-551.04 588.29,-544.23 577.7,-544.49 580.17,-551.04"/>
</g>
<!-- libcugraph -->
<g id="node44" class="node">
<title>libcugraph</title>
<g id="a_node44"><a xlink:href="https://github.com/conda-forge/libcugraph-feedstock" xlink:title="libcugraph">
<ellipse fill="#fde725" stroke="black" cx="450.24" cy="-530" rx="60.5" ry="18"/>
<text text-anchor="middle" x="450.24" y="-526.3" font-family="Times,serif" font-size="14.00">libcugraph</text>
</a>
</g>
</g>
<!-- faiss&#45;split&#45;&gt;libcugraph -->
<g id="edge48" class="edge">
<title>faiss&#45;split&#45;&gt;libcugraph</title>
<path fill="none" stroke="black" d="M441.21,-583.7C442.53,-575.98 444.12,-566.71 445.59,-558.11"/>
<polygon fill="black" stroke="black" points="449.07,-558.55 447.31,-548.1 442.17,-557.37 449.07,-558.55"/>
</g>
<!-- tsnecuda -->
<g id="node45" class="node">
<title>tsnecuda</title>
<g id="a_node45"><a xlink:href="https://github.com/conda-forge/tsnecuda-feedstock" xlink:title="tsnecuda">
<ellipse fill="#fde725" stroke="black" cx="404.24" cy="-458" rx="52.79" ry="18"/>
<text text-anchor="middle" x="404.24" y="-454.3" font-family="Times,serif" font-size="14.00">tsnecuda</text>
</a>
</g>
</g>
<!-- faiss&#45;split&#45;&gt;tsnecuda -->
<g id="edge49" class="edge">
<title>faiss&#45;split&#45;&gt;tsnecuda</title>
<path fill="none" stroke="black" d="M413.63,-585.82C401.11,-576.6 387.12,-563.6 380.24,-548 371.23,-527.55 379.19,-502.92 388.29,-484.77"/>
<polygon fill="black" stroke="black" points="391.4,-486.38 393.07,-475.92 385.24,-483.05 391.4,-486.38"/>
</g>
<!-- magma -->
<g id="node46" class="node">
<title>magma</title>
<g id="a_node46"><a xlink:href="https://github.com/conda-forge/magma-feedstock/pull/17" xlink:title="magma ❎">
<ellipse fill="#31688e" stroke="black" cx="708.24" cy="-746" rx="59.29" ry="18"/>
<text text-anchor="middle" x="708.24" y="-742.3" font-family="Times,serif" font-size="14.00" fill="white">magma ❎</text>
</a>
</g>
</g>
<!-- magma&#45;&gt;kaldi -->
<g id="edge50" class="edge">
<title>magma&#45;&gt;kaldi</title>
<path fill="none" stroke="black" d="M694.5,-728.41C687.17,-719.57 678.03,-708.53 669.95,-698.79"/>
<polygon fill="black" stroke="black" points="672.57,-696.46 663.49,-690.99 667.18,-700.92 672.57,-696.46"/>
</g>
<!-- magma&#45;&gt;pytorch&#45;cpu -->
<g id="edge51" class="edge">
<title>magma&#45;&gt;pytorch&#45;cpu</title>
<path fill="none" stroke="black" d="M722.22,-728.41C729.47,-719.82 738.45,-709.16 746.49,-699.63"/>
<polygon fill="black" stroke="black" points="749.18,-701.86 752.95,-691.96 743.83,-697.35 749.18,-701.86"/>
</g>
<!-- cusparselt -->
<g id="node47" class="node">
<title>cusparselt</title>
<g id="a_node47"><a xlink:href="https://github.com/conda-forge/cusparselt-feedstock" xlink:title="cusparselt">
<ellipse fill="#000000" stroke="black" cx="1858.24" cy="-746" rx="59.29" ry="18"/>
<text text-anchor="middle" x="1858.24" y="-742.3" font-family="Times,serif" font-size="14.00" fill="white">cusparselt</text>
</a>
</g>
</g>
<!-- cusparselt&#45;&gt;cupy -->
<g id="edge52" class="edge">
<title>cusparselt&#45;&gt;cupy</title>
<path fill="none" stroke="black" d="M1858.24,-727.7C1858.24,-719.98 1858.24,-710.71 1858.24,-702.11"/>
<polygon fill="black" stroke="black" points="1861.74,-702.1 1858.24,-692.1 1854.74,-702.1 1861.74,-702.1"/>
</g>
<!-- libastra -->
<g id="node49" class="node">
<title>libastra</title>
<g id="a_node49"><a xlink:href="https://github.com/conda-forge/libastra-feedstock" xlink:title="libastra">
<ellipse fill="#fde725" stroke="black" cx="2430.24" cy="-278" rx="46.29" ry="18"/>
<text text-anchor="middle" x="2430.24" y="-274.3" font-family="Times,serif" font-size="14.00">libastra</text>
</a>
</g>
</g>
<!-- cudasirecon&#45;&gt;libastra -->
<!-- timemory -->
<g id="node50" class="node">
<title>timemory</title>
<g id="a_node50"><a xlink:href="https://github.com/conda-forge/timemory-feedstock" xlink:title="timemory">
<ellipse fill="#fde725" stroke="black" cx="2430.24" cy="-206" rx="56" ry="18"/>
<text text-anchor="middle" x="2430.24" y="-202.3" font-family="Times,serif" font-size="14.00">timemory</text>
</a>
</g>
</g>
<!-- libastra&#45;&gt;timemory -->
<!-- rmm -->
<g id="node51" class="node">
<title>rmm</title>
<g id="a_node51"><a xlink:href="https://github.com/conda-forge/rmm-feedstock" xlink:title="rmm">
<ellipse fill="#fde725" stroke="black" cx="2430.24" cy="-134" rx="32.5" ry="18"/>
<text text-anchor="middle" x="2430.24" y="-130.3" font-family="Times,serif" font-size="14.00">rmm</text>
</a>
</g>
</g>
<!-- timemory&#45;&gt;rmm -->
<!-- gromacs -->
<g id="node52" class="node">
<title>gromacs</title>
<g id="a_node52"><a xlink:href="https://github.com/conda-forge/gromacs-feedstock" xlink:title="gromacs">
<ellipse fill="#fde725" stroke="black" cx="2430.24" cy="-54" rx="50.09" ry="18"/>
<text text-anchor="middle" x="2430.24" y="-50.3" font-family="Times,serif" font-size="14.00">gromacs</text>
</a>
</g>
</g>
</g>
</svg>
