<?xml version="1.0" encoding="UTF-8" standalone="no"?>
<!DOCTYPE svg PUBLIC "-//W3C//DTD SVG 1.1//EN"
 "http://www.w3.org/Graphics/SVG/1.1/DTD/svg11.dtd">
<!-- Generated by graphviz version 2.47.0 (20210327.0129)
 -->
<!-- Pages: 1 -->
<svg width="1352pt" height="232pt"
 viewBox="0.00 0.00 1351.64 232.00" xmlns="http://www.w3.org/2000/svg" xmlns:xlink="http://www.w3.org/1999/xlink">
<g id="graph0" class="graph" transform="scale(1 1) rotate(0) translate(4 228)">
<polygon fill="white" stroke="transparent" points="-4,4 -4,-228 1347.64,-228 1347.64,4 -4,4"/>
<!-- implicit -->
<g id="node1" class="node">
<title>implicit</title>
<g id="a_node1"><a xlink:href="https://github.com/conda-forge/implicit-feedstock/pull/34" xlink:title="implicit ❎">
<ellipse fill="#31688e" stroke="black" cx="1287.74" cy="-134" rx="55.79" ry="18"/>
<text text-anchor="middle" x="1287.74" y="-130.3" font-family="Times-Roman" font-size="14.00" fill="white">implicit ❎</text>
</a>
</g>
</g>
<!-- torchvision -->
<g id="node2" class="node">
<title>torchvision</title>
<g id="a_node2"><a xlink:href="https://github.com/conda-forge/torchvision-feedstock" xlink:title="torchvision">
<ellipse fill="#fde725" stroke="black" cx="61.74" cy="-134" rx="61.99" ry="18"/>
<text text-anchor="middle" x="61.74" y="-130.3" font-family="Times-Roman" font-size="14.00">torchvision</text>
</a>
</g>
</g>
<!-- pytorch&#45;cpu -->
<g id="node3" class="node">
<title>pytorch&#45;cpu</title>
<g id="a_node3"><a xlink:href="https://github.com/conda-forge/pytorch-cpu-feedstock/pull/41" xlink:title="pytorch cpu ❎">
<ellipse fill="#31688e" stroke="black" cx="552.74" cy="-206" rx="77.19" ry="18"/>
<text text-anchor="middle" x="552.74" y="-202.3" font-family="Times-Roman" font-size="14.00" fill="white">pytorch cpu ❎</text>
</a>
</g>
</g>
<!-- pytorch&#45;cpu&#45;&gt;torchvision -->
<g id="edge7" class="edge">
<title>pytorch&#45;cpu&#45;&gt;torchvision</title>
<path fill="none" stroke="black" d="M482.16,-198.48C398.41,-190.19 254.76,-174.24 132.74,-152 127.45,-151.03 121.95,-149.92 116.47,-148.73"/>
<polygon fill="black" stroke="black" points="117.18,-145.31 106.66,-146.54 115.65,-152.14 117.18,-145.31"/>
</g>
<!-- nvidia&#45;apex -->
<g id="node4" class="node">
<title>nvidia&#45;apex</title>
<g id="a_node4"><a xlink:href="https://github.com/conda-forge/nvidia-apex-feedstock" xlink:title="nvidia apex">
<ellipse fill="#fde725" stroke="black" cx="205.74" cy="-134" rx="64.19" ry="18"/>
<text text-anchor="middle" x="205.74" y="-130.3" font-family="Times-Roman" font-size="14.00">nvidia apex</text>
</a>
</g>
</g>
<!-- pytorch&#45;cpu&#45;&gt;nvidia&#45;apex -->
<g id="edge1" class="edge">
<title>pytorch&#45;cpu&#45;&gt;nvidia&#45;apex</title>
<path fill="none" stroke="black" d="M493.82,-194.27C438.24,-183.99 352.67,-167.75 278.74,-152 273.7,-150.93 268.47,-149.78 263.24,-148.6"/>
<polygon fill="black" stroke="black" points="263.73,-145.13 253.2,-146.33 262.18,-151.95 263.73,-145.13"/>
</g>
<!-- pytorch_cluster -->
<g id="node5" class="node">
<title>pytorch_cluster</title>
<g id="a_node5"><a xlink:href="https://github.com/conda-forge/pytorch_cluster-feedstock" xlink:title="pytorch_cluster">
<ellipse fill="#fde725" stroke="black" cx="369.74" cy="-134" rx="81.79" ry="18"/>
<text text-anchor="middle" x="369.74" y="-130.3" font-family="Times-Roman" font-size="14.00">pytorch_cluster</text>
</a>
</g>
</g>
<!-- pytorch&#45;cpu&#45;&gt;pytorch_cluster -->
<g id="edge3" class="edge">
<title>pytorch&#45;cpu&#45;&gt;pytorch_cluster</title>
<path fill="none" stroke="black" d="M514.38,-190.33C486.39,-179.62 448.24,-165.03 418.15,-153.52"/>
<polygon fill="black" stroke="black" points="419.28,-150.2 408.69,-149.9 416.78,-156.74 419.28,-150.2"/>
</g>
<!-- pytorch_scatter -->
<g id="node6" class="node">
<title>pytorch_scatter</title>
<g id="a_node6"><a xlink:href="https://github.com/conda-forge/pytorch_scatter-feedstock" xlink:title="pytorch_scatter">
<ellipse fill="#fde725" stroke="black" cx="552.74" cy="-134" rx="83.39" ry="18"/>
<text text-anchor="middle" x="552.74" y="-130.3" font-family="Times-Roman" font-size="14.00">pytorch_scatter</text>
</a>
</g>
</g>
<!-- pytorch&#45;cpu&#45;&gt;pytorch_scatter -->
<g id="edge4" class="edge">
<title>pytorch&#45;cpu&#45;&gt;pytorch_scatter</title>
<path fill="none" stroke="black" d="M552.74,-187.7C552.74,-179.98 552.74,-170.71 552.74,-162.11"/>
<polygon fill="black" stroke="black" points="556.24,-162.1 552.74,-152.1 549.24,-162.1 556.24,-162.1"/>
</g>
<!-- pytorch_spline_conv -->
<g id="node7" class="node">
<title>pytorch_spline_conv</title>
<g id="a_node7"><a xlink:href="https://github.com/conda-forge/pytorch_spline_conv-feedstock" xlink:title="pytorch_spline_conv">
<ellipse fill="#fde725" stroke="black" cx="758.74" cy="-134" rx="104.78" ry="18"/>
<text text-anchor="middle" x="758.74" y="-130.3" font-family="Times-Roman" font-size="14.00">pytorch_spline_conv</text>
</a>
</g>
</g>
<!-- pytorch&#45;cpu&#45;&gt;pytorch_spline_conv -->
<g id="edge6" class="edge">
<title>pytorch&#45;cpu&#45;&gt;pytorch_spline_conv</title>
<path fill="none" stroke="black" d="M594.43,-190.83C625.89,-180.14 669.35,-165.38 703.67,-153.72"/>
<polygon fill="black" stroke="black" points="705.2,-156.89 713.54,-150.36 702.95,-150.26 705.2,-156.89"/>
</g>
<!-- pytorch_sparse -->
<g id="node8" class="node">
<title>pytorch_sparse</title>
<g id="a_node8"><a xlink:href="https://github.com/conda-forge/pytorch_sparse-feedstock" xlink:title="pytorch_sparse">
<ellipse fill="#fde725" stroke="black" cx="721.74" cy="-62" rx="81.79" ry="18"/>
<text text-anchor="middle" x="721.74" y="-58.3" font-family="Times-Roman" font-size="14.00">pytorch_sparse</text>
</a>
</g>
</g>
<!-- pytorch&#45;cpu&#45;&gt;pytorch_sparse -->
<g id="edge5" class="edge">
<title>pytorch&#45;cpu&#45;&gt;pytorch_sparse</title>
<path fill="none" stroke="black" d="M629.34,-203.31C713.9,-199.63 842.15,-188.08 872.74,-152 902.94,-116.39 842.69,-91.49 789.56,-77.26"/>
<polygon fill="black" stroke="black" points="790.31,-73.84 779.75,-74.73 788.56,-80.61 790.31,-73.84"/>
</g>
<!-- openmm&#45;torch -->
<g id="node10" class="node">
<title>openmm&#45;torch</title>
<g id="a_node10"><a xlink:href="https://github.com/conda-forge/openmm-torch-feedstock" xlink:title="openmm torch">
<ellipse fill="#fde725" stroke="black" cx="998.74" cy="-134" rx="79.09" ry="18"/>
<text text-anchor="middle" x="998.74" y="-130.3" font-family="Times-Roman" font-size="14.00">openmm torch</text>
</a>
</g>
</g>
<!-- pytorch&#45;cpu&#45;&gt;openmm&#45;torch -->
<g id="edge2" class="edge">
<title>pytorch&#45;cpu&#45;&gt;openmm&#45;torch</title>
<path fill="none" stroke="black" d="M617.26,-195.94C688.1,-185.85 805.18,-168.74 905.74,-152 913.57,-150.7 921.76,-149.28 929.89,-147.84"/>
<polygon fill="black" stroke="black" points="930.53,-151.28 939.76,-146.07 929.3,-144.39 930.53,-151.28"/>
</g>
<!-- pytorch_scatter&#45;&gt;pytorch_sparse -->
<g id="edge8" class="edge">
<title>pytorch_scatter&#45;&gt;pytorch_sparse</title>
<path fill="none" stroke="black" d="M589.42,-117.81C614.77,-107.31 648.7,-93.26 675.85,-82.01"/>
<polygon fill="black" stroke="black" points="677.25,-85.22 685.15,-78.16 674.57,-78.75 677.25,-85.22"/>
</g>
<!-- omniscidb -->
<g id="node9" class="node">
<title>omniscidb</title>
<g id="a_node9"><a xlink:href="https://github.com/conda-forge/omniscidb-feedstock/pull/36" xlink:title="omniscidb ✓">
<ellipse fill="#31688e" stroke="black" cx="1154.74" cy="-134" rx="68.79" ry="18"/>
<text text-anchor="middle" x="1154.74" y="-130.3" font-family="Times-Roman" font-size="14.00" fill="white">omniscidb ✓</text>
</a>
</g>
</g>
<!-- meld -->
<g id="node11" class="node">
<title>meld</title>
<g id="a_node11"><a xlink:href="https://github.com/conda-forge/meld-feedstock/pull/2" xlink:title="meld ❎">
<ellipse fill="#31688e" stroke="black" cx="539.74" cy="-18" rx="46.29" ry="18"/>
<text text-anchor="middle" x="539.74" y="-14.3" font-family="Times-Roman" font-size="14.00" fill="white">meld ❎</text>
</a>
</g>
</g>
</g>
</svg>
