<?xml version="1.0" encoding="UTF-8" standalone="no"?>
<!DOCTYPE svg PUBLIC "-//W3C//DTD SVG 1.1//EN"
 "http://www.w3.org/Graphics/SVG/1.1/DTD/svg11.dtd">
<!-- Generated by graphviz version 2.46.1 (20210217.0520)
 -->
<!-- Pages: 1 -->
<svg width="1040pt" height="476pt"
 viewBox="0.00 0.00 1039.69 476.00" xmlns="http://www.w3.org/2000/svg" xmlns:xlink="http://www.w3.org/1999/xlink">
<g id="graph0" class="graph" transform="scale(1 1) rotate(0) translate(4 472)">
<polygon fill="white" stroke="transparent" points="-4,4 -4,-472 1035.69,-472 1035.69,4 -4,4"/>
<!-- implicit -->
<g id="node1" class="node">
<title>implicit</title>
<g id="a_node1"><a xlink:href="https://github.com/conda-forge/implicit-feedstock/pull/34" xlink:title="implicit ❎">
<ellipse fill="#31688e" stroke="black" cx="961.5" cy="-306" rx="56" ry="18"/>
<text text-anchor="middle" x="961.5" y="-302.3" font-family="Times-Roman" font-size="14.00" fill="white">implicit ❎</text>
</a>
</g>
</g>
<!-- hoomd -->
<g id="node2" class="node">
<title>hoomd</title>
<g id="a_node2"><a xlink:href="https://github.com/conda-forge/hoomd-feedstock/pull/36" xlink:title="hoomd ✓">
<ellipse fill="#31688e" stroke="black" cx="961.5" cy="-234" rx="54" ry="18"/>
<text text-anchor="middle" x="961.5" y="-230.3" font-family="Times-Roman" font-size="14.00" fill="white">hoomd ✓</text>
</a>
</g>
</g>
<!-- implicit&#45;&gt;hoomd -->
<!-- goofit&#45;split -->
<g id="node6" class="node">
<title>goofit&#45;split</title>
<g id="a_node6"><a xlink:href="https://github.com/conda-forge/goofit-split-feedstock/pull/9" xlink:title="goofit split ✓">
<ellipse fill="#31688e" stroke="black" cx="961.5" cy="-162" rx="70.39" ry="18"/>
<text text-anchor="middle" x="961.5" y="-158.3" font-family="Times-Roman" font-size="14.00" fill="white">goofit split ✓</text>
</a>
</g>
</g>
<!-- hoomd&#45;&gt;goofit&#45;split -->
<!-- openmpi -->
<g id="node3" class="node">
<title>openmpi</title>
<g id="a_node3"><a xlink:href="https://github.com/conda-forge/openmpi-feedstock" xlink:title="openmpi">
<ellipse fill="#ff8c00" stroke="black" cx="764.5" cy="-306" rx="52" ry="18"/>
<text text-anchor="middle" x="764.5" y="-302.3" font-family="Times-Roman" font-size="14.00">openmpi</text>
</a>
</g>
</g>
<!-- prismatic_split -->
<g id="node4" class="node">
<title>prismatic_split</title>
<g id="a_node4"><a xlink:href="https://github.com/conda-forge/prismatic_split-feedstock" xlink:title="prismatic_split">
<ellipse fill="#fde725" stroke="black" cx="711.5" cy="-234" rx="77.5" ry="18"/>
<text text-anchor="middle" x="711.5" y="-230.3" font-family="Times-Roman" font-size="14.00">prismatic_split</text>
</a>
</g>
</g>
<!-- openmpi&#45;&gt;prismatic_split -->
<g id="edge2" class="edge">
<title>openmpi&#45;&gt;prismatic_split</title>
<path fill="none" stroke="black" d="M751.94,-288.41C745.57,-279.99 737.69,-269.58 730.58,-260.2"/>
<polygon fill="black" stroke="black" points="733.17,-257.82 724.34,-251.96 727.58,-262.04 733.17,-257.82"/>
</g>
<!-- pp&#45;sketchlib -->
<g id="node5" class="node">
<title>pp&#45;sketchlib</title>
<g id="a_node5"><a xlink:href="https://github.com/conda-forge/pp-sketchlib-feedstock" xlink:title="pp sketchlib">
<ellipse fill="#fde725" stroke="black" cx="817.5" cy="-162" rx="65.79" ry="18"/>
<text text-anchor="middle" x="817.5" y="-158.3" font-family="Times-Roman" font-size="14.00">pp sketchlib</text>
</a>
</g>
</g>
<!-- openmpi&#45;&gt;pp&#45;sketchlib -->
<g id="edge3" class="edge">
<title>openmpi&#45;&gt;pp&#45;sketchlib</title>
<path fill="none" stroke="black" d="M777.51,-288.21C784.68,-278.19 793.18,-264.94 798.5,-252 806.65,-232.18 811.5,-208.39 814.26,-190.39"/>
<polygon fill="black" stroke="black" points="817.75,-190.66 815.68,-180.27 810.82,-189.69 817.75,-190.66"/>
</g>
<!-- pytorch&#45;cpu -->
<g id="node7" class="node">
<title>pytorch&#45;cpu</title>
<g id="a_node7"><a xlink:href="https://github.com/conda-forge/pytorch-cpu-feedstock" xlink:title="pytorch cpu">
<ellipse fill="#fde725" stroke="black" cx="286.5" cy="-378" rx="65.79" ry="18"/>
<text text-anchor="middle" x="286.5" y="-374.3" font-family="Times-Roman" font-size="14.00">pytorch cpu</text>
</a>
</g>
</g>
<!-- nvidia&#45;apex -->
<g id="node8" class="node">
<title>nvidia&#45;apex</title>
<g id="a_node8"><a xlink:href="https://github.com/conda-forge/nvidia-apex-feedstock" xlink:title="nvidia apex">
<ellipse fill="#fde725" stroke="black" cx="64.5" cy="-306" rx="64.5" ry="18"/>
<text text-anchor="middle" x="64.5" y="-302.3" font-family="Times-Roman" font-size="14.00">nvidia apex</text>
</a>
</g>
</g>
<!-- pytorch&#45;cpu&#45;&gt;nvidia&#45;apex -->
<g id="edge5" class="edge">
<title>pytorch&#45;cpu&#45;&gt;nvidia&#45;apex</title>
<path fill="none" stroke="black" d="M245,-363.92C208.33,-352.35 154.72,-335.45 115.45,-323.06"/>
<polygon fill="black" stroke="black" points="116.38,-319.69 105.79,-320.02 114.28,-326.37 116.38,-319.69"/>
</g>
<!-- pytorch_cluster -->
<g id="node9" class="node">
<title>pytorch_cluster</title>
<g id="a_node9"><a xlink:href="https://github.com/conda-forge/pytorch_cluster-feedstock" xlink:title="pytorch_cluster">
<ellipse fill="#fde725" stroke="black" cx="121.5" cy="-234" rx="82" ry="18"/>
<text text-anchor="middle" x="121.5" y="-230.3" font-family="Times-Roman" font-size="14.00">pytorch_cluster</text>
</a>
</g>
</g>
<!-- pytorch&#45;cpu&#45;&gt;pytorch_cluster -->
<g id="edge6" class="edge">
<title>pytorch&#45;cpu&#45;&gt;pytorch_cluster</title>
<path fill="none" stroke="black" d="M264.34,-360.8C250.6,-350.55 232.73,-336.86 217.5,-324 192.47,-302.86 165.19,-277.31 146.13,-259.02"/>
<polygon fill="black" stroke="black" points="148.38,-256.32 138.75,-251.9 143.52,-261.36 148.38,-256.32"/>
</g>
<!-- pytorch_scatter -->
<g id="node10" class="node">
<title>pytorch_scatter</title>
<g id="a_node10"><a xlink:href="https://github.com/conda-forge/pytorch_scatter-feedstock" xlink:title="pytorch_scatter">
<ellipse fill="#fde725" stroke="black" cx="342.5" cy="-162" rx="83.39" ry="18"/>
<text text-anchor="middle" x="342.5" y="-158.3" font-family="Times-Roman" font-size="14.00">pytorch_scatter</text>
</a>
</g>
</g>
<!-- pytorch&#45;cpu&#45;&gt;pytorch_scatter -->
<g id="edge7" class="edge">
<title>pytorch&#45;cpu&#45;&gt;pytorch_scatter</title>
<path fill="none" stroke="black" d="M290.99,-359.85C300.7,-322.75 323.71,-234.81 335.41,-190.1"/>
<polygon fill="black" stroke="black" points="338.84,-190.79 337.99,-180.23 332.07,-189.02 338.84,-190.79"/>
</g>
<!-- pytorch_spline_conv -->
<g id="node11" class="node">
<title>pytorch_spline_conv</title>
<g id="a_node11"><a xlink:href="https://github.com/conda-forge/pytorch_spline_conv-feedstock" xlink:title="pytorch_spline_conv">
<ellipse fill="#fde725" stroke="black" cx="231.5" cy="-90" rx="104.78" ry="18"/>
<text text-anchor="middle" x="231.5" y="-86.3" font-family="Times-Roman" font-size="14.00">pytorch_spline_conv</text>
</a>
</g>
</g>
<!-- pytorch&#45;cpu&#45;&gt;pytorch_spline_conv -->
<g id="edge8" class="edge">
<title>pytorch&#45;cpu&#45;&gt;pytorch_spline_conv</title>
<path fill="none" stroke="black" d="M283.22,-359.97C274.04,-312.19 247.97,-176.62 236.74,-118.27"/>
<polygon fill="black" stroke="black" points="240.15,-117.47 234.83,-108.31 233.28,-118.79 240.15,-117.47"/>
</g>
<!-- pytorch_sparse -->
<g id="node12" class="node">
<title>pytorch_sparse</title>
<g id="a_node12"><a xlink:href="https://github.com/conda-forge/pytorch_sparse-feedstock" xlink:title="pytorch_sparse">
<ellipse fill="#fde725" stroke="black" cx="436.5" cy="-90" rx="82" ry="18"/>
<text text-anchor="middle" x="436.5" y="-86.3" font-family="Times-Roman" font-size="14.00">pytorch_sparse</text>
</a>
</g>
</g>
<!-- pytorch&#45;cpu&#45;&gt;pytorch_sparse -->
<g id="edge9" class="edge">
<title>pytorch&#45;cpu&#45;&gt;pytorch_sparse</title>
<path fill="none" stroke="black" d="M304.85,-360.53C338.17,-329.24 407.69,-257.41 434.5,-180 441.36,-160.19 441.51,-136.39 440.14,-118.39"/>
<polygon fill="black" stroke="black" points="443.61,-117.9 439.16,-108.28 436.64,-118.57 443.61,-117.9"/>
</g>
<!-- openmm&#45;torch -->
<g id="node13" class="node">
<title>openmm&#45;torch</title>
<g id="a_node13"><a xlink:href="https://github.com/conda-forge/openmm-torch-feedstock" xlink:title="openmm torch">
<ellipse fill="#fde725" stroke="black" cx="546.5" cy="-18" rx="79.5" ry="18"/>
<text text-anchor="middle" x="546.5" y="-14.3" font-family="Times-Roman" font-size="14.00">openmm torch</text>
</a>
</g>
</g>
<!-- pytorch&#45;cpu&#45;&gt;openmm&#45;torch -->
<g id="edge10" class="edge">
<title>pytorch&#45;cpu&#45;&gt;openmm&#45;torch</title>
<path fill="none" stroke="black" d="M327.7,-363.88C401.01,-339.28 546.5,-284.25 546.5,-235 546.5,-235 546.5,-235 546.5,-161 546.5,-121 546.5,-74.65 546.5,-46.08"/>
<polygon fill="black" stroke="black" points="550,-46.05 546.5,-36.05 543,-46.05 550,-46.05"/>
</g>
<!-- pytorch_scatter&#45;&gt;pytorch_sparse -->
<g id="edge11" class="edge">
<title>pytorch_scatter&#45;&gt;pytorch_sparse</title>
<path fill="none" stroke="black" d="M364.78,-144.41C377.19,-135.17 392.81,-123.54 406.3,-113.49"/>
<polygon fill="black" stroke="black" points="408.45,-116.25 414.38,-107.47 404.27,-110.64 408.45,-116.25"/>
</g>
<!-- cupy -->
<g id="node14" class="node">
<title>cupy</title>
<g id="a_node14"><a xlink:href="https://github.com/conda-forge/cupy-feedstock" xlink:title="cupy">
<ellipse fill="#fde725" stroke="black" cx="429.5" cy="-378" rx="32.5" ry="18"/>
<text text-anchor="middle" x="429.5" y="-374.3" font-family="Times-Roman" font-size="14.00">cupy</text>
</a>
</g>
</g>
<!-- cudnn -->
<g id="node15" class="node">
<title>cudnn</title>
<g id="a_node15"><a xlink:href="https://github.com/conda-forge/cudnn-feedstock" xlink:title="cudnn">
<ellipse fill="#000000" stroke="black" cx="347.5" cy="-450" rx="39" ry="18"/>
<text text-anchor="middle" x="347.5" y="-446.3" font-family="Times-Roman" font-size="14.00" fill="white">cudnn</text>
</a>
</g>
</g>
<!-- cudnn&#45;&gt;pytorch&#45;cpu -->
<g id="edge12" class="edge">
<title>cudnn&#45;&gt;pytorch&#45;cpu</title>
<path fill="none" stroke="black" d="M333.66,-433.12C326,-424.33 316.33,-413.23 307.74,-403.37"/>
<polygon fill="black" stroke="black" points="310.35,-401.04 301.14,-395.8 305.07,-405.64 310.35,-401.04"/>
</g>
<!-- cudnn&#45;&gt;cupy -->
<g id="edge13" class="edge">
<title>cudnn&#45;&gt;cupy</title>
<path fill="none" stroke="black" d="M365.29,-433.81C376.81,-423.98 391.96,-411.04 404.66,-400.21"/>
<polygon fill="black" stroke="black" points="407.25,-402.6 412.58,-393.44 402.7,-397.27 407.25,-402.6"/>
</g>
<!-- magma -->
<g id="node16" class="node">
<title>magma</title>
<g id="a_node16"><a xlink:href="https://github.com/conda-forge/magma-feedstock/pull/8" xlink:title="magma ✓">
<ellipse fill="#31688e" stroke="black" cx="232.5" cy="-450" rx="58" ry="18"/>
<text text-anchor="middle" x="232.5" y="-446.3" font-family="Times-Roman" font-size="14.00" fill="white">magma ✓</text>
</a>
</g>
</g>
<!-- magma&#45;&gt;pytorch&#45;cpu -->
<g id="edge14" class="edge">
<title>magma&#45;&gt;pytorch&#45;cpu</title>
<path fill="none" stroke="black" d="M245.3,-432.41C251.86,-423.91 259.98,-413.37 267.28,-403.91"/>
<polygon fill="black" stroke="black" points="270.08,-406.01 273.42,-395.96 264.54,-401.74 270.08,-406.01"/>
</g>
<!-- cutensor -->
<g id="node17" class="node">
<title>cutensor</title>
<g id="a_node17"><a xlink:href="https://github.com/conda-forge/cutensor-feedstock" xlink:title="cutensor">
<ellipse fill="#000000" stroke="black" cx="456.5" cy="-450" rx="51.5" ry="18"/>
<text text-anchor="middle" x="456.5" y="-446.3" font-family="Times-Roman" font-size="14.00" fill="white">cutensor</text>
</a>
</g>
</g>
<!-- cutensor&#45;&gt;cupy -->
<g id="edge15" class="edge">
<title>cutensor&#45;&gt;cupy</title>
<path fill="none" stroke="black" d="M449.96,-432.05C446.88,-424.06 443.13,-414.33 439.68,-405.4"/>
<polygon fill="black" stroke="black" points="442.84,-403.86 435.98,-395.79 436.31,-406.38 442.84,-403.86"/>
</g>
</g>
</svg>
