<?xml version="1.0" encoding="UTF-8" standalone="no"?>
<!DOCTYPE svg PUBLIC "-//W3C//DTD SVG 1.1//EN"
 "http://www.w3.org/Graphics/SVG/1.1/DTD/svg11.dtd">
<!-- Generated by graphviz version 2.47.0 (20210316.1410)
 -->
<!-- Pages: 1 -->
<svg width="1165pt" height="1140pt"
 viewBox="0.00 0.00 1165.19 1140.00" xmlns="http://www.w3.org/2000/svg" xmlns:xlink="http://www.w3.org/1999/xlink">
<g id="graph0" class="graph" transform="scale(1 1) rotate(0) translate(4 1136)">
<polygon fill="white" stroke="transparent" points="-4,4 -4,-1136 1161.19,-1136 1161.19,4 -4,4"/>
<!-- cmake -->
<g id="node1" class="node">
<title>cmake</title>
<g id="a_node1"><a xlink:href="https://github.com/conda-forge/cmake-feedstock/pull/138" xlink:title="cmake ❎">
<ellipse fill="#31688e" stroke="black" cx="79.5" cy="-862" rx="54" ry="18"/>
<text text-anchor="middle" x="79.5" y="-858.3" font-family="Times-Roman" font-size="14.00" fill="white">cmake ❎</text>
</a>
</g>
</g>
<!-- libitk -->
<g id="node2" class="node">
<title>libitk</title>
<g id="a_node2"><a xlink:href="https://github.com/conda-forge/libitk-feedstock" xlink:title="libitk">
<ellipse fill="#fde725" stroke="black" cx="32.5" cy="-790" rx="32.5" ry="18"/>
<text text-anchor="middle" x="32.5" y="-786.3" font-family="Times-Roman" font-size="14.00">libitk</text>
</a>
</g>
</g>
<!-- cmake&#45;&gt;libitk -->
<g id="edge1" class="edge">
<title>cmake&#45;&gt;libitk</title>
<path fill="none" stroke="black" d="M68.12,-844.05C62.44,-835.59 55.46,-825.19 49.18,-815.84"/>
<polygon fill="black" stroke="black" points="51.93,-813.66 43.45,-807.31 46.12,-817.56 51.93,-813.66"/>
</g>
<!-- geant4 -->
<g id="node3" class="node">
<title>geant4</title>
<g id="a_node3"><a xlink:href="https://github.com/conda-forge/geant4-feedstock" xlink:title="geant4">
<ellipse fill="#fde725" stroke="black" cx="126.5" cy="-790" rx="43.59" ry="18"/>
<text text-anchor="middle" x="126.5" y="-786.3" font-family="Times-Roman" font-size="14.00">geant4</text>
</a>
</g>
</g>
<!-- cmake&#45;&gt;geant4 -->
<g id="edge2" class="edge">
<title>cmake&#45;&gt;geant4</title>
<path fill="none" stroke="black" d="M90.88,-844.05C96.48,-835.71 103.34,-825.49 109.55,-816.25"/>
<polygon fill="black" stroke="black" points="112.56,-818.04 115.23,-807.79 106.75,-814.14 112.56,-818.04"/>
</g>
<!-- dbus&#45;cxx -->
<g id="node4" class="node">
<title>dbus&#45;cxx</title>
<g id="a_node4"><a xlink:href="https://github.com/conda-forge/dbus-cxx-feedstock" xlink:title="dbus cxx">
<ellipse fill="#35b779" stroke="black" cx="836.5" cy="-1114" rx="52" ry="18"/>
<text text-anchor="middle" x="836.5" y="-1110.3" font-family="Times-Roman" font-size="14.00">dbus cxx</text>
</a>
</g>
</g>
<!-- exempi -->
<g id="node5" class="node">
<title>exempi</title>
<g id="a_node5"><a xlink:href="https://github.com/conda-forge/exempi-feedstock" xlink:title="exempi">
<ellipse fill="#35b779" stroke="black" cx="836.5" cy="-1042" rx="45" ry="18"/>
<text text-anchor="middle" x="836.5" y="-1038.3" font-family="Times-Roman" font-size="14.00">exempi</text>
</a>
</g>
</g>
<!-- dbus&#45;cxx&#45;&gt;exempi -->
<!-- gdb -->
<g id="node6" class="node">
<title>gdb</title>
<g id="a_node6"><a xlink:href="https://github.com/conda-forge/gdb-feedstock" xlink:title="gdb">
<ellipse fill="#35b779" stroke="black" cx="836.5" cy="-970" rx="28.7" ry="18"/>
<text text-anchor="middle" x="836.5" y="-966.3" font-family="Times-Roman" font-size="14.00">gdb</text>
</a>
</g>
</g>
<!-- exempi&#45;&gt;gdb -->
<!-- gdcm -->
<g id="node10" class="node">
<title>gdcm</title>
<g id="a_node10"><a xlink:href="https://github.com/conda-forge/gdcm-feedstock" xlink:title="gdcm">
<ellipse fill="#35b779" stroke="black" cx="836.5" cy="-898" rx="36.5" ry="18"/>
<text text-anchor="middle" x="836.5" y="-894.3" font-family="Times-Roman" font-size="14.00">gdcm</text>
</a>
</g>
</g>
<!-- gdb&#45;&gt;gdcm -->
<!-- gdal -->
<g id="node7" class="node">
<title>gdal</title>
<g id="a_node7"><a xlink:href="https://github.com/conda-forge/gdal-feedstock" xlink:title="gdal">
<ellipse fill="#fde725" stroke="black" cx="574.5" cy="-862" rx="30.59" ry="18"/>
<text text-anchor="middle" x="574.5" y="-858.3" font-family="Times-Roman" font-size="14.00">gdal</text>
</a>
</g>
</g>
<!-- pyngl -->
<g id="node8" class="node">
<title>pyngl</title>
<g id="a_node8"><a xlink:href="https://github.com/conda-forge/pyngl-feedstock" xlink:title="pyngl">
<ellipse fill="#fde725" stroke="black" cx="595.5" cy="-790" rx="36.5" ry="18"/>
<text text-anchor="middle" x="595.5" y="-786.3" font-family="Times-Roman" font-size="14.00">pyngl</text>
</a>
</g>
</g>
<!-- gdal&#45;&gt;pyngl -->
<g id="edge5" class="edge">
<title>gdal&#45;&gt;pyngl</title>
<path fill="none" stroke="black" d="M579.58,-844.05C581.92,-836.26 584.75,-826.82 587.38,-818.08"/>
<polygon fill="black" stroke="black" points="590.8,-818.86 590.32,-808.28 584.09,-816.85 590.8,-818.86"/>
</g>
<!-- qgis -->
<g id="node9" class="node">
<title>qgis</title>
<g id="a_node9"><a xlink:href="https://github.com/conda-forge/qgis-feedstock" xlink:title="qgis">
<ellipse fill="#fde725" stroke="black" cx="497.5" cy="-790" rx="30" ry="18"/>
<text text-anchor="middle" x="497.5" y="-786.3" font-family="Times-Roman" font-size="14.00">qgis</text>
</a>
</g>
</g>
<!-- gdal&#45;&gt;qgis -->
<g id="edge6" class="edge">
<title>gdal&#45;&gt;qgis</title>
<path fill="none" stroke="black" d="M558.55,-846.5C547.71,-836.64 533.18,-823.44 521.02,-812.38"/>
<polygon fill="black" stroke="black" points="523.19,-809.62 513.43,-805.49 518.48,-814.8 523.19,-809.62"/>
</g>
<!-- lftp -->
<g id="node11" class="node">
<title>lftp</title>
<g id="a_node11"><a xlink:href="https://github.com/conda-forge/lftp-feedstock" xlink:title="lftp">
<ellipse fill="#35b779" stroke="black" cx="836.5" cy="-826" rx="27" ry="18"/>
<text text-anchor="middle" x="836.5" y="-822.3" font-family="Times-Roman" font-size="14.00">lftp</text>
</a>
</g>
</g>
<!-- gdcm&#45;&gt;lftp -->
<!-- magics -->
<g id="node14" class="node">
<title>magics</title>
<g id="a_node14"><a xlink:href="https://github.com/conda-forge/magics-feedstock" xlink:title="magics">
<ellipse fill="#35b779" stroke="black" cx="836.5" cy="-754" rx="44.39" ry="18"/>
<text text-anchor="middle" x="836.5" y="-750.3" font-family="Times-Roman" font-size="14.00">magics</text>
</a>
</g>
</g>
<!-- lftp&#45;&gt;magics -->
<!-- graphviz -->
<g id="node12" class="node">
<title>graphviz</title>
<g id="a_node12"><a xlink:href="https://github.com/conda-forge/graphviz-feedstock" xlink:title="graphviz">
<ellipse fill="#35b779" stroke="black" cx="373.5" cy="-90" rx="50.89" ry="18"/>
<text text-anchor="middle" x="373.5" y="-86.3" font-family="Times-Roman" font-size="14.00">graphviz</text>
</a>
</g>
</g>
<!-- libvips -->
<g id="node13" class="node">
<title>libvips</title>
<g id="a_node13"><a xlink:href="https://github.com/conda-forge/libvips-feedstock" xlink:title="libvips">
<ellipse fill="#fde725" stroke="black" cx="373.5" cy="-18" rx="40.5" ry="18"/>
<text text-anchor="middle" x="373.5" y="-14.3" font-family="Times-Roman" font-size="14.00">libvips</text>
</a>
</g>
</g>
<!-- graphviz&#45;&gt;libvips -->
<g id="edge9" class="edge">
<title>graphviz&#45;&gt;libvips</title>
<path fill="none" stroke="black" d="M373.5,-71.7C373.5,-63.98 373.5,-54.71 373.5,-46.11"/>
<polygon fill="black" stroke="black" points="377,-46.1 373.5,-36.1 370,-46.1 377,-46.1"/>
</g>
<!-- perl&#45;xml&#45;parser -->
<g id="node16" class="node">
<title>perl&#45;xml&#45;parser</title>
<g id="a_node16"><a xlink:href="https://github.com/conda-forge/perl-xml-parser-feedstock" xlink:title="perl xml parser">
<ellipse fill="#35b779" stroke="black" cx="836.5" cy="-682" rx="82" ry="18"/>
<text text-anchor="middle" x="836.5" y="-678.3" font-family="Times-Roman" font-size="14.00">perl xml parser</text>
</a>
</g>
</g>
<!-- magics&#45;&gt;perl&#45;xml&#45;parser -->
<!-- libkml -->
<g id="node15" class="node">
<title>libkml</title>
<g id="a_node15"><a xlink:href="https://github.com/conda-forge/libkml-feedstock/pull/21" xlink:title="libkml ✓">
<ellipse fill="#31688e" stroke="black" cx="574.5" cy="-934" rx="49.5" ry="18"/>
<text text-anchor="middle" x="574.5" y="-930.3" font-family="Times-Roman" font-size="14.00" fill="white">libkml ✓</text>
</a>
</g>
</g>
<!-- libkml&#45;&gt;gdal -->
<g id="edge11" class="edge">
<title>libkml&#45;&gt;gdal</title>
<path fill="none" stroke="black" d="M574.5,-915.7C574.5,-907.98 574.5,-898.71 574.5,-890.11"/>
<polygon fill="black" stroke="black" points="578,-890.1 574.5,-880.1 571,-890.1 578,-890.1"/>
</g>
<!-- r&#45;rgl -->
<g id="node21" class="node">
<title>r&#45;rgl</title>
<g id="a_node21"><a xlink:href="https://github.com/conda-forge/r-rgl-feedstock" xlink:title="r rgl">
<ellipse fill="#35b779" stroke="black" cx="836.5" cy="-610" rx="30" ry="18"/>
<text text-anchor="middle" x="836.5" y="-606.3" font-family="Times-Roman" font-size="14.00">r rgl</text>
</a>
</g>
</g>
<!-- perl&#45;xml&#45;parser&#45;&gt;r&#45;rgl -->
<!-- mesalib -->
<g id="node17" class="node">
<title>mesalib</title>
<g id="a_node17"><a xlink:href="https://github.com/conda-forge/mesalib-feedstock" xlink:title="mesalib">
<ellipse fill="#35b779" stroke="black" cx="836.5" cy="-278" rx="47.5" ry="18"/>
<text text-anchor="middle" x="836.5" y="-274.3" font-family="Times-Roman" font-size="14.00">mesalib</text>
</a>
</g>
</g>
<!-- wxwidgets -->
<g id="node18" class="node">
<title>wxwidgets</title>
<g id="a_node18"><a xlink:href="https://github.com/conda-forge/wxwidgets-feedstock" xlink:title="wxwidgets">
<ellipse fill="#fde725" stroke="black" cx="836.5" cy="-206" rx="60" ry="18"/>
<text text-anchor="middle" x="836.5" y="-202.3" font-family="Times-Roman" font-size="14.00">wxwidgets</text>
</a>
</g>
</g>
<!-- mesalib&#45;&gt;wxwidgets -->
<g id="edge13" class="edge">
<title>mesalib&#45;&gt;wxwidgets</title>
<path fill="none" stroke="black" d="M836.5,-259.7C836.5,-251.98 836.5,-242.71 836.5,-234.11"/>
<polygon fill="black" stroke="black" points="840,-234.1 836.5,-224.1 833,-234.1 840,-234.1"/>
</g>
<!-- nco -->
<g id="node19" class="node">
<title>nco</title>
<g id="a_node19"><a xlink:href="https://github.com/conda-forge/nco-feedstock" xlink:title="nco">
<ellipse fill="#fde725" stroke="black" cx="684.5" cy="-790" rx="27.5" ry="18"/>
<text text-anchor="middle" x="684.5" y="-786.3" font-family="Times-Roman" font-size="14.00">nco</text>
</a>
</g>
</g>
<!-- paraview -->
<g id="node20" class="node">
<title>paraview</title>
<g id="a_node20"><a xlink:href="https://github.com/conda-forge/paraview-feedstock" xlink:title="paraview">
<ellipse fill="#fde725" stroke="black" cx="242.5" cy="-790" rx="54" ry="18"/>
<text text-anchor="middle" x="242.5" y="-786.3" font-family="Times-Roman" font-size="14.00">paraview</text>
</a>
</g>
</g>
<!-- wxpython -->
<g id="node26" class="node">
<title>wxpython</title>
<g id="a_node26"><a xlink:href="https://github.com/conda-forge/wxpython-feedstock" xlink:title="wxpython">
<ellipse fill="#35b779" stroke="black" cx="836.5" cy="-538" rx="56" ry="18"/>
<text text-anchor="middle" x="836.5" y="-534.3" font-family="Times-Roman" font-size="14.00">wxpython</text>
</a>
</g>
</g>
<!-- r&#45;rgl&#45;&gt;wxpython -->
<!-- qt -->
<g id="node22" class="node">
<title>qt</title>
<g id="a_node22"><a xlink:href="https://github.com/conda-forge/qt-feedstock" xlink:title="qt">
<ellipse fill="#35b779" stroke="black" cx="343.5" cy="-862" rx="27" ry="18"/>
<text text-anchor="middle" x="343.5" y="-858.3" font-family="Times-Roman" font-size="14.00">qt</text>
</a>
</g>
</g>
<!-- qt&#45;&gt;geant4 -->
<g id="edge15" class="edge">
<title>qt&#45;&gt;geant4</title>
<path fill="none" stroke="black" d="M319.45,-853.24C283.34,-841.59 214.56,-819.41 169.63,-804.91"/>
<polygon fill="black" stroke="black" points="170.46,-801.5 159.87,-801.76 168.31,-808.17 170.46,-801.5"/>
</g>
<!-- qt&#45;&gt;qgis -->
<g id="edge16" class="edge">
<title>qt&#45;&gt;qgis</title>
<path fill="none" stroke="black" d="M365.24,-851.12C391.27,-839.28 435.12,-819.35 465.14,-805.71"/>
<polygon fill="black" stroke="black" points="466.71,-808.84 474.36,-801.52 463.81,-802.47 466.71,-808.84"/>
</g>
<!-- qt&#45;&gt;paraview -->
<g id="edge17" class="edge">
<title>qt&#45;&gt;paraview</title>
<path fill="none" stroke="black" d="M325.44,-848.49C311.04,-838.51 290.54,-824.3 273.53,-812.5"/>
<polygon fill="black" stroke="black" points="275.21,-809.41 265,-806.59 271.22,-815.16 275.21,-809.41"/>
</g>
<!-- graph&#45;tool -->
<g id="node23" class="node">
<title>graph&#45;tool</title>
<g id="a_node23"><a xlink:href="https://github.com/conda-forge/graph-tool-feedstock" xlink:title="graph tool">
<ellipse fill="#fde725" stroke="black" cx="275.5" cy="-718" rx="58.5" ry="18"/>
<text text-anchor="middle" x="275.5" y="-714.3" font-family="Times-Roman" font-size="14.00">graph tool</text>
</a>
</g>
</g>
<!-- qt&#45;&gt;graph&#45;tool -->
<g id="edge18" class="edge">
<title>qt&#45;&gt;graph&#45;tool</title>
<path fill="none" stroke="black" d="M337.04,-844.35C329.87,-826.28 317.72,-796.7 305.5,-772 301.03,-762.95 295.72,-753.28 290.82,-744.71"/>
<polygon fill="black" stroke="black" points="293.76,-742.82 285.72,-735.93 287.71,-746.33 293.76,-742.82"/>
</g>
<!-- magics&#45;metview -->
<g id="node24" class="node">
<title>magics&#45;metview</title>
<g id="a_node24"><a xlink:href="https://github.com/conda-forge/magics-metview-feedstock" xlink:title="magics metview">
<ellipse fill="#fde725" stroke="black" cx="324.5" cy="-646" rx="87.18" ry="18"/>
<text text-anchor="middle" x="324.5" y="-642.3" font-family="Times-Roman" font-size="14.00">magics metview</text>
</a>
</g>
</g>
<!-- qt&#45;&gt;magics&#45;metview -->
<g id="edge19" class="edge">
<title>qt&#45;&gt;magics&#45;metview</title>
<path fill="none" stroke="black" d="M345.17,-843.92C347.67,-814.36 351.22,-751.82 342.5,-700 341.03,-691.28 338.33,-682.06 335.46,-673.8"/>
<polygon fill="black" stroke="black" points="338.7,-672.47 331.95,-664.3 332.14,-674.89 338.7,-672.47"/>
</g>
<!-- tomviz -->
<g id="node25" class="node">
<title>tomviz</title>
<g id="a_node25"><a xlink:href="https://github.com/conda-forge/tomviz-feedstock" xlink:title="tomviz">
<ellipse fill="#fde725" stroke="black" cx="439.5" cy="-574" rx="42.49" ry="18"/>
<text text-anchor="middle" x="439.5" y="-570.3" font-family="Times-Roman" font-size="14.00">tomviz</text>
</a>
</g>
</g>
<!-- qt&#45;&gt;tomviz -->
<g id="edge20" class="edge">
<title>qt&#45;&gt;tomviz</title>
<path fill="none" stroke="black" d="M351.03,-844.46C366.02,-810.99 399.92,-732.59 420.5,-664 426.62,-643.6 431.56,-620.01 434.87,-602.24"/>
<polygon fill="black" stroke="black" points="438.34,-602.73 436.67,-592.27 431.45,-601.49 438.34,-602.73"/>
</g>
<!-- vtk -->
<g id="node28" class="node">
<title>vtk</title>
<g id="a_node28"><a xlink:href="https://github.com/conda-forge/vtk-feedstock/pull/166" xlink:title="vtk ❎">
<ellipse fill="#31688e" stroke="black" cx="836.5" cy="-466" rx="37.09" ry="18"/>
<text text-anchor="middle" x="836.5" y="-462.3" font-family="Times-Roman" font-size="14.00" fill="white">vtk ❎</text>
</a>
</g>
</g>
<!-- wxpython&#45;&gt;vtk -->
<!-- udunits2 -->
<g id="node27" class="node">
<title>udunits2</title>
<g id="a_node27"><a xlink:href="https://github.com/conda-forge/udunits2-feedstock/pull/40" xlink:title="udunits2 ✓">
<ellipse fill="#31688e" stroke="black" cx="684.5" cy="-862" rx="61.99" ry="18"/>
<text text-anchor="middle" x="684.5" y="-858.3" font-family="Times-Roman" font-size="14.00" fill="white">udunits2 ✓</text>
</a>
</g>
</g>
<!-- udunits2&#45;&gt;pyngl -->
<g id="edge22" class="edge">
<title>udunits2&#45;&gt;pyngl</title>
<path fill="none" stroke="black" d="M663.86,-844.76C651.44,-835 635.5,-822.46 622.14,-811.96"/>
<polygon fill="black" stroke="black" points="624.24,-809.15 614.21,-805.72 619.91,-814.65 624.24,-809.15"/>
</g>
<!-- udunits2&#45;&gt;nco -->
<g id="edge23" class="edge">
<title>udunits2&#45;&gt;nco</title>
<path fill="none" stroke="black" d="M684.5,-843.7C684.5,-835.98 684.5,-826.71 684.5,-818.11"/>
<polygon fill="black" stroke="black" points="688,-818.1 684.5,-808.1 681,-818.1 688,-818.1"/>
</g>
<!-- coin3d -->
<g id="node29" class="node">
<title>coin3d</title>
<g id="a_node29"><a xlink:href="https://github.com/conda-forge/coin3d-feedstock" xlink:title="coin3d">
<ellipse fill="#35b779" stroke="black" cx="836.5" cy="-394" rx="41.69" ry="18"/>
<text text-anchor="middle" x="836.5" y="-390.3" font-family="Times-Roman" font-size="14.00">coin3d</text>
</a>
</g>
</g>
<!-- vtk&#45;&gt;coin3d -->
<!-- vmd&#45;python -->
<g id="node30" class="node">
<title>vmd&#45;python</title>
<g id="a_node30"><a xlink:href="https://github.com/conda-forge/vmd-python-feedstock" xlink:title="vmd python">
<ellipse fill="#35b779" stroke="black" cx="1041.5" cy="-1078" rx="66.5" ry="18"/>
<text text-anchor="middle" x="1041.5" y="-1074.3" font-family="Times-Roman" font-size="14.00">vmd python</text>
</a>
</g>
</g>
<!-- omcompiler -->
<g id="node31" class="node">
<title>omcompiler</title>
<g id="a_node31"><a xlink:href="https://github.com/conda-forge/omcompiler-feedstock" xlink:title="omcompiler">
<ellipse fill="#35b779" stroke="black" cx="1041.5" cy="-1006" rx="66.5" ry="18"/>
<text text-anchor="middle" x="1041.5" y="-1002.3" font-family="Times-Roman" font-size="14.00">omcompiler</text>
</a>
</g>
</g>
<!-- vmd&#45;python&#45;&gt;omcompiler -->
<!-- libass -->
<g id="node32" class="node">
<title>libass</title>
<g id="a_node32"><a xlink:href="https://github.com/conda-forge/libass-feedstock" xlink:title="libass">
<ellipse fill="#35b779" stroke="black" cx="1041.5" cy="-934" rx="37.09" ry="18"/>
<text text-anchor="middle" x="1041.5" y="-930.3" font-family="Times-Roman" font-size="14.00">libass</text>
</a>
</g>
</g>
<!-- omcompiler&#45;&gt;libass -->
<!-- pypy3.6 -->
<g id="node37" class="node">
<title>pypy3.6</title>
<g id="a_node37"><a xlink:href="https://github.com/conda-forge/pypy3.6-feedstock" xlink:title="pypy3 6">
<ellipse fill="#35b779" stroke="black" cx="1041.5" cy="-862" rx="48.19" ry="18"/>
<text text-anchor="middle" x="1041.5" y="-858.3" font-family="Times-Roman" font-size="14.00">pypy3 6</text>
</a>
</g>
</g>
<!-- libass&#45;&gt;pypy3.6 -->
<!-- apr -->
<g id="node33" class="node">
<title>apr</title>
<g id="a_node33"><a xlink:href="https://github.com/conda-forge/apr-feedstock" xlink:title="apr">
<ellipse fill="#35b779" stroke="black" cx="393.5" cy="-350" rx="27" ry="18"/>
<text text-anchor="middle" x="393.5" y="-346.3" font-family="Times-Roman" font-size="14.00">apr</text>
</a>
</g>
</g>
<!-- log4cxx -->
<g id="node34" class="node">
<title>log4cxx</title>
<g id="a_node34"><a xlink:href="https://github.com/conda-forge/log4cxx-feedstock" xlink:title="log4cxx">
<ellipse fill="#fde725" stroke="black" cx="319.5" cy="-278" rx="46.29" ry="18"/>
<text text-anchor="middle" x="319.5" y="-274.3" font-family="Times-Roman" font-size="14.00">log4cxx</text>
</a>
</g>
</g>
<!-- apr&#45;&gt;log4cxx -->
<g id="edge28" class="edge">
<title>apr&#45;&gt;log4cxx</title>
<path fill="none" stroke="black" d="M378.52,-334.83C368.57,-325.42 355.28,-312.85 343.83,-302.01"/>
<polygon fill="black" stroke="black" points="345.93,-299.18 336.26,-294.85 341.12,-304.27 345.93,-299.18"/>
</g>
<!-- serf -->
<g id="node35" class="node">
<title>serf</title>
<g id="a_node35"><a xlink:href="https://github.com/conda-forge/serf-feedstock" xlink:title="serf">
<ellipse fill="#fde725" stroke="black" cx="383.5" cy="-206" rx="28.7" ry="18"/>
<text text-anchor="middle" x="383.5" y="-202.3" font-family="Times-Roman" font-size="14.00">serf</text>
</a>
</g>
</g>
<!-- apr&#45;&gt;serf -->
<g id="edge29" class="edge">
<title>apr&#45;&gt;serf</title>
<path fill="none" stroke="black" d="M392.29,-331.87C390.59,-307.67 387.46,-263.21 385.43,-234.39"/>
<polygon fill="black" stroke="black" points="388.9,-233.92 384.71,-224.19 381.92,-234.41 388.9,-233.92"/>
</g>
<!-- subversion -->
<g id="node36" class="node">
<title>subversion</title>
<g id="a_node36"><a xlink:href="https://github.com/conda-forge/subversion-feedstock" xlink:title="subversion">
<ellipse fill="#fde725" stroke="black" cx="411.5" cy="-134" rx="61.99" ry="18"/>
<text text-anchor="middle" x="411.5" y="-130.3" font-family="Times-Roman" font-size="14.00">subversion</text>
</a>
</g>
</g>
<!-- apr&#45;&gt;subversion -->
<g id="edge30" class="edge">
<title>apr&#45;&gt;subversion</title>
<path fill="none" stroke="black" d="M399.43,-332.2C409.04,-303.04 426.47,-241.11 421.5,-188 420.7,-179.48 419.2,-170.28 417.6,-161.99"/>
<polygon fill="black" stroke="black" points="421,-161.16 415.56,-152.07 414.14,-162.57 421,-161.16"/>
</g>
<!-- serf&#45;&gt;subversion -->
<g id="edge31" class="edge">
<title>serf&#45;&gt;subversion</title>
<path fill="none" stroke="black" d="M390.14,-188.41C393.37,-180.34 397.33,-170.43 400.96,-161.35"/>
<polygon fill="black" stroke="black" points="404.25,-162.54 404.72,-151.96 397.75,-159.94 404.25,-162.54"/>
</g>
<!-- doxyrest -->
<g id="node40" class="node">
<title>doxyrest</title>
<g id="a_node40"><a xlink:href="https://github.com/conda-forge/doxyrest-feedstock" xlink:title="doxyrest">
<ellipse fill="#35b779" stroke="black" cx="1041.5" cy="-790" rx="50.89" ry="18"/>
<text text-anchor="middle" x="1041.5" y="-786.3" font-family="Times-Roman" font-size="14.00">doxyrest</text>
</a>
</g>
</g>
<!-- pypy3.6&#45;&gt;doxyrest -->
<!-- voms -->
<g id="node38" class="node">
<title>voms</title>
<g id="a_node38"><a xlink:href="https://github.com/conda-forge/voms-feedstock" xlink:title="voms">
<ellipse fill="#35b779" stroke="black" cx="1041.5" cy="-278" rx="36.5" ry="18"/>
<text text-anchor="middle" x="1041.5" y="-274.3" font-family="Times-Roman" font-size="14.00">voms</text>
</a>
</g>
</g>
<!-- htcondor -->
<g id="node39" class="node">
<title>htcondor</title>
<g id="a_node39"><a xlink:href="https://github.com/conda-forge/htcondor-feedstock" xlink:title="htcondor">
<ellipse fill="#fde725" stroke="black" cx="1041.5" cy="-206" rx="52" ry="18"/>
<text text-anchor="middle" x="1041.5" y="-202.3" font-family="Times-Roman" font-size="14.00">htcondor</text>
</a>
</g>
</g>
<!-- voms&#45;&gt;htcondor -->
<g id="edge33" class="edge">
<title>voms&#45;&gt;htcondor</title>
<path fill="none" stroke="black" d="M1041.5,-259.7C1041.5,-251.98 1041.5,-242.71 1041.5,-234.11"/>
<polygon fill="black" stroke="black" points="1045,-234.1 1041.5,-224.1 1038,-234.1 1045,-234.1"/>
</g>
<!-- magics&#45;metview&#45;batch -->
<g id="node42" class="node">
<title>magics&#45;metview&#45;batch</title>
<g id="a_node42"><a xlink:href="https://github.com/conda-forge/magics-metview-batch-feedstock" xlink:title="magics metview batch">
<ellipse fill="#35b779" stroke="black" cx="1041.5" cy="-718" rx="115.88" ry="18"/>
<text text-anchor="middle" x="1041.5" y="-714.3" font-family="Times-Roman" font-size="14.00">magics metview batch</text>
</a>
</g>
</g>
<!-- doxyrest&#45;&gt;magics&#45;metview&#45;batch -->
<!-- exiv2 -->
<g id="node41" class="node">
<title>exiv2</title>
<g id="a_node41"><a xlink:href="https://github.com/conda-forge/exiv2-feedstock" xlink:title="exiv2">
<ellipse fill="#35b779" stroke="black" cx="490.5" cy="-862" rx="36" ry="18"/>
<text text-anchor="middle" x="490.5" y="-858.3" font-family="Times-Roman" font-size="14.00">exiv2</text>
</a>
</g>
</g>
<!-- exiv2&#45;&gt;qgis -->
<g id="edge35" class="edge">
<title>exiv2&#45;&gt;qgis</title>
<path fill="none" stroke="black" d="M492.23,-843.7C493,-835.98 493.93,-826.71 494.79,-818.11"/>
<polygon fill="black" stroke="black" points="498.28,-818.4 495.79,-808.1 491.31,-817.71 498.28,-818.4"/>
</g>
<!-- avahi -->
<g id="node43" class="node">
<title>avahi</title>
<g id="a_node43"><a xlink:href="https://github.com/conda-forge/avahi-feedstock" xlink:title="avahi">
<ellipse fill="#35b779" stroke="black" cx="1041.5" cy="-646" rx="36.5" ry="18"/>
<text text-anchor="middle" x="1041.5" y="-642.3" font-family="Times-Roman" font-size="14.00">avahi</text>
</a>
</g>
</g>
<!-- magics&#45;metview&#45;batch&#45;&gt;avahi -->
<!-- openscenegraph -->
<g id="node44" class="node">
<title>openscenegraph</title>
<g id="a_node44"><a xlink:href="https://github.com/conda-forge/openscenegraph-feedstock" xlink:title="openscenegraph">
<ellipse fill="#35b779" stroke="black" cx="1041.5" cy="-574" rx="89.08" ry="18"/>
<text text-anchor="middle" x="1041.5" y="-570.3" font-family="Times-Roman" font-size="14.00">openscenegraph</text>
</a>
</g>
</g>
<!-- avahi&#45;&gt;openscenegraph -->
<!-- librepo -->
<g id="node45" class="node">
<title>librepo</title>
<g id="a_node45"><a xlink:href="https://github.com/conda-forge/librepo-feedstock" xlink:title="librepo">
<ellipse fill="#35b779" stroke="black" cx="1041.5" cy="-502" rx="43" ry="18"/>
<text text-anchor="middle" x="1041.5" y="-498.3" font-family="Times-Roman" font-size="14.00">librepo</text>
</a>
</g>
</g>
<!-- openscenegraph&#45;&gt;librepo -->
<!-- kaleido&#45;core -->
<g id="node46" class="node">
<title>kaleido&#45;core</title>
<g id="a_node46"><a xlink:href="https://github.com/conda-forge/kaleido-core-feedstock" xlink:title="kaleido core">
<ellipse fill="#35b779" stroke="black" cx="1041.5" cy="-430" rx="67.69" ry="18"/>
<text text-anchor="middle" x="1041.5" y="-426.3" font-family="Times-Roman" font-size="14.00">kaleido core</text>
</a>
</g>
</g>
<!-- librepo&#45;&gt;kaleido&#45;core -->
</g>
</svg>
