<?xml version="1.0" encoding="UTF-8" standalone="no"?>
<!DOCTYPE svg PUBLIC "-//W3C//DTD SVG 1.1//EN"
 "http://www.w3.org/Graphics/SVG/1.1/DTD/svg11.dtd">
<!-- Generated by graphviz version 6.0.1 (20220911.2005)
 -->
<!-- Pages: 1 -->
<svg width="702pt" height="232pt"
 viewBox="0.00 0.00 702.44 232.00" xmlns="http://www.w3.org/2000/svg" xmlns:xlink="http://www.w3.org/1999/xlink">
<g id="graph0" class="graph" transform="scale(1 1) rotate(0) translate(4 228)">
<polygon fill="white" stroke="none" points="-4,4 -4,-228 698.44,-228 698.44,4 -4,4"/>
<!-- lintel -->
<g id="node1" class="node">
<title>lintel</title>
<g id="a_node1"><a xlink:href="https://github.com/conda-forge/lintel-feedstock/pull/21" xlink:title="lintel ❎">
<ellipse fill="#31688e" stroke="black" cx="381.59" cy="-18" rx="48.99" ry="18"/>
<text text-anchor="middle" x="381.59" y="-14.3" font-family="Times,serif" font-size="14.00" fill="white">lintel ❎</text>
</a>
</g>
</g>
<!-- openimageio -->
<g id="node2" class="node">
<title>openimageio</title>
<g id="a_node2"><a xlink:href="https://github.com/conda-forge/openimageio-feedstock/pull/68" xlink:title="openimageio ❎">
<ellipse fill="#31688e" stroke="black" cx="610.59" cy="-134" rx="83.69" ry="18"/>
<text text-anchor="middle" x="610.59" y="-130.3" font-family="Times,serif" font-size="14.00" fill="white">openimageio ❎</text>
</a>
</g>
</g>
<!-- mlt -->
<g id="node3" class="node">
<title>mlt</title>
<g id="a_node3"><a xlink:href="https://github.com/conda-forge/mlt-feedstock/pull/19" xlink:title="mlt ❎">
<ellipse fill="#31688e" stroke="black" cx="283.59" cy="-170" rx="40.09" ry="18"/>
<text text-anchor="middle" x="283.59" y="-166.3" font-family="Times,serif" font-size="14.00" fill="white">mlt ❎</text>
</a>
</g>
</g>
<!-- kdenlive -->
<g id="node5" class="node">
<title>kdenlive</title>
<g id="a_node5"><a xlink:href="https://github.com/conda-forge/kdenlive-feedstock" xlink:title="kdenlive">
<ellipse fill="#fde725" stroke="black" cx="356.59" cy="-98" rx="50.09" ry="18"/>
<text text-anchor="middle" x="356.59" y="-94.3" font-family="Times,serif" font-size="14.00">kdenlive</text>
</a>
</g>
</g>
<!-- mlt&#45;&gt;kdenlive -->
<g id="edge1" class="edge">
<title>mlt&#45;&gt;kdenlive</title>
<path fill="none" stroke="black" d="M299.79,-153.46C309.39,-144.26 321.74,-132.42 332.47,-122.13"/>
<polygon fill="black" stroke="black" points="335.14,-124.42 339.93,-114.98 330.29,-119.37 335.14,-124.42"/>
</g>
<!-- kfilemetadata -->
<g id="node4" class="node">
<title>kfilemetadata</title>
<g id="a_node4"><a xlink:href="https://github.com/conda-forge/kfilemetadata-feedstock/pull/30" xlink:title="kfilemetadata ❎">
<ellipse fill="#31688e" stroke="black" cx="430.59" cy="-170" rx="88.28" ry="18"/>
<text text-anchor="middle" x="430.59" y="-166.3" font-family="Times,serif" font-size="14.00" fill="white">kfilemetadata ❎</text>
</a>
</g>
</g>
<!-- kfilemetadata&#45;&gt;kdenlive -->
<g id="edge2" class="edge">
<title>kfilemetadata&#45;&gt;kdenlive</title>
<path fill="none" stroke="black" d="M412.68,-152.05C403.2,-143.09 391.43,-131.95 381.12,-122.2"/>
<polygon fill="black" stroke="black" points="383.25,-119.4 373.58,-115.07 378.44,-124.48 383.25,-119.4"/>
</g>
<!-- openscenegraph -->
<g id="node6" class="node">
<title>openscenegraph</title>
<g id="a_node6"><a xlink:href="https://github.com/conda-forge/openscenegraph-feedstock/pull/21" xlink:title="openscenegraph ❎">
<ellipse fill="#31688e" stroke="black" cx="134.59" cy="-206" rx="100.98" ry="18"/>
<text text-anchor="middle" x="134.59" y="-202.3" font-family="Times,serif" font-size="14.00" fill="white">openscenegraph ❎</text>
</a>
</g>
</g>
<!-- gepetto&#45;viewer -->
<g id="node7" class="node">
<title>gepetto&#45;viewer</title>
<g id="a_node7"><a xlink:href="https://github.com/conda-forge/gepetto-viewer-feedstock" xlink:title="gepetto viewer">
<ellipse fill="#fde725" stroke="black" cx="80.59" cy="-134" rx="80.69" ry="18"/>
<text text-anchor="middle" x="80.59" y="-130.3" font-family="Times,serif" font-size="14.00">gepetto viewer</text>
</a>
</g>
</g>
<!-- openscenegraph&#45;&gt;gepetto&#45;viewer -->
<g id="edge3" class="edge">
<title>openscenegraph&#45;&gt;gepetto&#45;viewer</title>
<path fill="none" stroke="black" d="M121.52,-188.05C115.02,-179.63 107.04,-169.28 99.85,-159.97"/>
<polygon fill="black" stroke="black" points="102.42,-157.57 93.54,-151.79 96.88,-161.84 102.42,-157.57"/>
</g>
<!-- hpp&#45;gepetto&#45;viewer -->
<g id="node9" class="node">
<title>hpp&#45;gepetto&#45;viewer</title>
<g id="a_node9"><a xlink:href="https://github.com/conda-forge/hpp-gepetto-viewer-feedstock" xlink:title="hpp gepetto viewer">
<ellipse fill="#fde725" stroke="black" cx="134.59" cy="-62" rx="100.98" ry="18"/>
<text text-anchor="middle" x="134.59" y="-58.3" font-family="Times,serif" font-size="14.00">hpp gepetto viewer</text>
</a>
</g>
</g>
<!-- openscenegraph&#45;&gt;hpp&#45;gepetto&#45;viewer -->
<g id="edge4" class="edge">
<title>openscenegraph&#45;&gt;hpp&#45;gepetto&#45;viewer</title>
<path fill="none" stroke="black" d="M150.2,-187.77C157.97,-178.03 166.54,-165.18 170.59,-152 175.3,-136.71 175.3,-131.29 170.59,-116 167.58,-106.22 162.09,-96.62 156.28,-88.33"/>
<polygon fill="black" stroke="black" points="159,-86.13 150.2,-80.23 153.4,-90.33 159,-86.13"/>
</g>
<!-- gepetto&#45;viewer&#45;&gt;hpp&#45;gepetto&#45;viewer -->
<g id="edge5" class="edge">
<title>gepetto&#45;viewer&#45;&gt;hpp&#45;gepetto&#45;viewer</title>
<path fill="none" stroke="black" d="M93.66,-116.05C100.07,-107.75 107.91,-97.58 115.02,-88.38"/>
<polygon fill="black" stroke="black" points="117.93,-90.33 121.27,-80.28 112.39,-86.06 117.93,-90.33"/>
</g>
<!-- unpaper -->
<g id="node8" class="node">
<title>unpaper</title>
<g id="a_node8"><a xlink:href="https://github.com/conda-forge/unpaper-feedstock/pull/4" xlink:title="unpaper ❎">
<ellipse fill="#31688e" stroke="black" cx="117.59" cy="-18" rx="63.89" ry="18"/>
<text text-anchor="middle" x="117.59" y="-14.3" font-family="Times,serif" font-size="14.00" fill="white">unpaper ❎</text>
</a>
</g>
</g>
</g>
</svg>
