<?xml version="1.0" encoding="UTF-8" standalone="no"?>
<!DOCTYPE svg PUBLIC "-//W3C//DTD SVG 1.1//EN"
 "http://www.w3.org/Graphics/SVG/1.1/DTD/svg11.dtd">
<!-- Generated by graphviz version 4.0.0 (20220529.1859)
 -->
<!-- Pages: 1 -->
<svg width="902pt" height="188pt"
 viewBox="0.00 0.00 902.04 188.00" xmlns="http://www.w3.org/2000/svg" xmlns:xlink="http://www.w3.org/1999/xlink">
<g id="graph0" class="graph" transform="scale(1 1) rotate(0) translate(4 184)">
<polygon fill="white" stroke="transparent" points="-4,4 -4,-184 898.04,-184 898.04,4 -4,4"/>
<!-- basemap -->
<g id="node1" class="node">
<title>basemap</title>
<g id="a_node1"><a xlink:href="https://github.com/conda-forge/basemap-feedstock/pull/98" xlink:title="basemap ✓">
<ellipse fill="#31688e" stroke="black" cx="834.25" cy="-90" rx="59.59" ry="18"/>
<text text-anchor="middle" x="834.25" y="-86.3" font-family="Times,serif" font-size="14.00" fill="white">basemap ✓</text>
</a>
</g>
</g>
<!-- gdal -->
<g id="node2" class="node">
<title>gdal</title>
<g id="a_node2"><a xlink:href="https://github.com/conda-forge/gdal-feedstock/pull/634" xlink:title="gdal ❎">
<ellipse fill="#31688e" stroke="black" cx="315.25" cy="-162" rx="44.69" ry="18"/>
<text text-anchor="middle" x="315.25" y="-158.3" font-family="Times,serif" font-size="14.00" fill="white">gdal ❎</text>
</a>
</g>
</g>
<!-- gmt -->
<g id="node3" class="node">
<title>gmt</title>
<g id="a_node3"><a xlink:href="https://github.com/conda-forge/gmt-feedstock" xlink:title="gmt">
<ellipse fill="#fde725" stroke="black" cx="29.25" cy="-90" rx="29.5" ry="18"/>
<text text-anchor="middle" x="29.25" y="-86.3" font-family="Times,serif" font-size="14.00">gmt</text>
</a>
</g>
</g>
<!-- gdal&#45;&gt;gmt -->
<g id="edge1" class="edge">
<title>gdal&#45;&gt;gmt</title>
<path fill="none" stroke="black" d="M273.74,-154.87C223.91,-146.89 138.19,-131.16 67.25,-108 65.13,-107.31 62.96,-106.53 60.8,-105.71"/>
<polygon fill="black" stroke="black" points="62.02,-102.43 51.44,-101.87 59.36,-108.9 62.02,-102.43"/>
</g>
<!-- postgis -->
<g id="node4" class="node">
<title>postgis</title>
<g id="a_node4"><a xlink:href="https://github.com/conda-forge/postgis-feedstock" xlink:title="postgis">
<ellipse fill="#fde725" stroke="black" cx="120.25" cy="-90" rx="44.39" ry="18"/>
<text text-anchor="middle" x="120.25" y="-86.3" font-family="Times,serif" font-size="14.00">postgis</text>
</a>
</g>
</g>
<!-- gdal&#45;&gt;postgis -->
<g id="edge4" class="edge">
<title>gdal&#45;&gt;postgis</title>
<path fill="none" stroke="black" d="M283.05,-149.44C249.92,-137.55 198.19,-118.98 161.95,-105.97"/>
<polygon fill="black" stroke="black" points="162.77,-102.54 152.17,-102.46 160.4,-109.13 162.77,-102.54"/>
</g>
<!-- qgis -->
<g id="node5" class="node">
<title>qgis</title>
<g id="a_node5"><a xlink:href="https://github.com/conda-forge/qgis-feedstock" xlink:title="qgis">
<ellipse fill="#fde725" stroke="black" cx="213.25" cy="-90" rx="30.59" ry="18"/>
<text text-anchor="middle" x="213.25" y="-86.3" font-family="Times,serif" font-size="14.00">qgis</text>
</a>
</g>
</g>
<!-- gdal&#45;&gt;qgis -->
<g id="edge6" class="edge">
<title>gdal&#45;&gt;qgis</title>
<path fill="none" stroke="black" d="M293.62,-146.15C278.32,-135.66 257.68,-121.49 241.14,-110.14"/>
<polygon fill="black" stroke="black" points="242.67,-106.94 232.44,-104.17 238.7,-112.72 242.67,-106.94"/>
</g>
<!-- r&#45;exactextractr -->
<g id="node6" class="node">
<title>r&#45;exactextractr</title>
<g id="a_node6"><a xlink:href="https://github.com/conda-forge/r-exactextractr-feedstock" xlink:title="r exactextractr">
<ellipse fill="#fde725" stroke="black" cx="429.25" cy="-18" rx="80.69" ry="18"/>
<text text-anchor="middle" x="429.25" y="-14.3" font-family="Times,serif" font-size="14.00">r exactextractr</text>
</a>
</g>
</g>
<!-- gdal&#45;&gt;r&#45;exactextractr -->
<g id="edge8" class="edge">
<title>gdal&#45;&gt;r&#45;exactextractr</title>
<path fill="none" stroke="black" d="M303.29,-144.54C291.12,-125.56 276.02,-94.16 291.25,-72 305.43,-51.36 328.84,-38.76 352.39,-31.06"/>
<polygon fill="black" stroke="black" points="353.53,-34.37 362.11,-28.15 351.53,-27.67 353.53,-34.37"/>
</g>
<!-- omniscidb -->
<g id="node7" class="node">
<title>omniscidb</title>
<g id="a_node7"><a xlink:href="https://github.com/conda-forge/omniscidb-feedstock" xlink:title="omniscidb">
<ellipse fill="#fde725" stroke="black" cx="358.25" cy="-90" rx="57.69" ry="18"/>
<text text-anchor="middle" x="358.25" y="-86.3" font-family="Times,serif" font-size="14.00">omniscidb</text>
</a>
</g>
</g>
<!-- gdal&#45;&gt;omniscidb -->
<g id="edge3" class="edge">
<title>gdal&#45;&gt;omniscidb</title>
<path fill="none" stroke="black" d="M325.44,-144.41C330.56,-136.08 336.87,-125.8 342.59,-116.49"/>
<polygon fill="black" stroke="black" points="345.58,-118.31 347.83,-107.96 339.61,-114.65 345.58,-118.31"/>
</g>
<!-- pyogrio -->
<g id="node8" class="node">
<title>pyogrio</title>
<g id="a_node8"><a xlink:href="https://github.com/conda-forge/pyogrio-feedstock" xlink:title="pyogrio">
<ellipse fill="#fde725" stroke="black" cx="480.25" cy="-90" rx="46.29" ry="18"/>
<text text-anchor="middle" x="480.25" y="-86.3" font-family="Times,serif" font-size="14.00">pyogrio</text>
</a>
</g>
</g>
<!-- gdal&#45;&gt;pyogrio -->
<g id="edge5" class="edge">
<title>gdal&#45;&gt;pyogrio</title>
<path fill="none" stroke="black" d="M345.13,-148.32C371.91,-136.96 411.39,-120.21 440.77,-107.75"/>
<polygon fill="black" stroke="black" points="442.47,-110.83 450.31,-103.7 439.74,-104.38 442.47,-110.83"/>
</g>
<!-- r&#45;terra -->
<g id="node9" class="node">
<title>r&#45;terra</title>
<g id="a_node9"><a xlink:href="https://github.com/conda-forge/r-terra-feedstock" xlink:title="r terra">
<ellipse fill="#fde725" stroke="black" cx="586.25" cy="-90" rx="41.69" ry="18"/>
<text text-anchor="middle" x="586.25" y="-86.3" font-family="Times,serif" font-size="14.00">r terra</text>
</a>
</g>
</g>
<!-- gdal&#45;&gt;r&#45;terra -->
<g id="edge7" class="edge">
<title>gdal&#45;&gt;r&#45;terra</title>
<path fill="none" stroke="black" d="M354.06,-152.7C398.22,-143.02 472.37,-126.02 535.25,-108 538.43,-107.09 541.71,-106.1 545.01,-105.08"/>
<polygon fill="black" stroke="black" points="546.36,-108.32 554.82,-101.94 544.23,-101.65 546.36,-108.32"/>
</g>
<!-- mapserver -->
<g id="node10" class="node">
<title>mapserver</title>
<g id="a_node10"><a xlink:href="https://github.com/conda-forge/mapserver-feedstock" xlink:title="mapserver">
<ellipse fill="#fde725" stroke="black" cx="706.25" cy="-90" rx="60.39" ry="18"/>
<text text-anchor="middle" x="706.25" y="-86.3" font-family="Times,serif" font-size="14.00">mapserver</text>
</a>
</g>
</g>
<!-- gdal&#45;&gt;mapserver -->
<g id="edge2" class="edge">
<title>gdal&#45;&gt;mapserver</title>
<path fill="none" stroke="black" d="M356.87,-155.22C418.41,-146.42 537.21,-128.52 637.25,-108 642.18,-106.99 647.3,-105.87 652.41,-104.7"/>
<polygon fill="black" stroke="black" points="653.26,-108.09 662.19,-102.4 651.66,-101.28 653.26,-108.09"/>
</g>
<!-- r&#45;terra&#45;&gt;r&#45;exactextractr -->
<g id="edge9" class="edge">
<title>r&#45;terra&#45;&gt;r&#45;exactextractr</title>
<path fill="none" stroke="black" d="M558.18,-76.49C534.51,-65.93 500.23,-50.65 472.97,-38.49"/>
<polygon fill="black" stroke="black" points="474.21,-35.21 463.65,-34.34 471.36,-41.61 474.21,-35.21"/>
</g>
</g>
</svg>
