<?xml version="1.0" encoding="UTF-8" standalone="no"?>
<!DOCTYPE svg PUBLIC "-//W3C//DTD SVG 1.1//EN"
 "http://www.w3.org/Graphics/SVG/1.1/DTD/svg11.dtd">
<!-- Generated by graphviz version 2.49.3 (20211104.1129)
 -->
<!-- Pages: 1 -->
<svg width="773pt" height="476pt"
 viewBox="0.00 0.00 772.55 476.00" xmlns="http://www.w3.org/2000/svg" xmlns:xlink="http://www.w3.org/1999/xlink">
<g id="graph0" class="graph" transform="scale(1 1) rotate(0) translate(4 472)">
<polygon fill="white" stroke="transparent" points="-4,4 -4,-472 768.55,-472 768.55,4 -4,4"/>
<!-- basemap -->
<g id="node1" class="node">
<title>basemap</title>
<g id="a_node1"><a xlink:href="https://github.com/conda-forge/basemap-feedstock/pull/86" xlink:title="basemap ❎">
<ellipse fill="#31688e" stroke="black" cx="582.55" cy="-270" rx="66.5" ry="18"/>
<text text-anchor="middle" x="582.55" y="-266.3" font-family="Times,serif" font-size="14.00" fill="white">basemap ❎</text>
</a>
</g>
</g>
<!-- r&#45;rgeos -->
<g id="node2" class="node">
<title>r&#45;rgeos</title>
<g id="a_node2"><a xlink:href="https://github.com/conda-forge/r-rgeos-feedstock/pull/30" xlink:title="r rgeos ✓">
<ellipse fill="#31688e" stroke="black" cx="582.55" cy="-198" rx="51.5" ry="18"/>
<text text-anchor="middle" x="582.55" y="-194.3" font-family="Times,serif" font-size="14.00" fill="white">r rgeos ✓</text>
</a>
</g>
</g>
<!-- basemap&#45;&gt;r&#45;rgeos -->
<!-- cartopy -->
<g id="node3" class="node">
<title>cartopy</title>
<g id="a_node3"><a xlink:href="https://github.com/conda-forge/cartopy-feedstock" xlink:title="cartopy">
<ellipse fill="#fde725" stroke="black" cx="710.55" cy="-198" rx="46.29" ry="18"/>
<text text-anchor="middle" x="710.55" y="-194.3" font-family="Times,serif" font-size="14.00">cartopy</text>
</a>
</g>
</g>
<!-- gdal -->
<g id="node4" class="node">
<title>gdal</title>
<g id="a_node4"><a xlink:href="https://github.com/conda-forge/gdal-feedstock" xlink:title="gdal">
<ellipse fill="#fde725" stroke="black" cx="184.55" cy="-378" rx="30.59" ry="18"/>
<text text-anchor="middle" x="184.55" y="-374.3" font-family="Times,serif" font-size="14.00">gdal</text>
</a>
</g>
</g>
<!-- gmt -->
<g id="node5" class="node">
<title>gmt</title>
<g id="a_node5"><a xlink:href="https://github.com/conda-forge/gmt-feedstock" xlink:title="gmt">
<ellipse fill="#fde725" stroke="black" cx="108.55" cy="-306" rx="29.5" ry="18"/>
<text text-anchor="middle" x="108.55" y="-302.3" font-family="Times,serif" font-size="14.00">gmt</text>
</a>
</g>
</g>
<!-- gdal&#45;&gt;gmt -->
<g id="edge2" class="edge">
<title>gdal&#45;&gt;gmt</title>
<path fill="none" stroke="black" d="M168.8,-362.5C158.1,-352.64 143.77,-339.44 131.76,-328.38"/>
<polygon fill="black" stroke="black" points="134,-325.69 124.27,-321.49 129.26,-330.83 134,-325.69"/>
</g>
<!-- postgis -->
<g id="node6" class="node">
<title>postgis</title>
<g id="a_node6"><a xlink:href="https://github.com/conda-forge/postgis-feedstock" xlink:title="postgis">
<ellipse fill="#fde725" stroke="black" cx="131.55" cy="-234" rx="44.39" ry="18"/>
<text text-anchor="middle" x="131.55" y="-230.3" font-family="Times,serif" font-size="14.00">postgis</text>
</a>
</g>
</g>
<!-- gdal&#45;&gt;postgis -->
<g id="edge3" class="edge">
<title>gdal&#45;&gt;postgis</title>
<path fill="none" stroke="black" d="M178.26,-360.15C169.13,-335.71 152.14,-290.17 141.36,-261.29"/>
<polygon fill="black" stroke="black" points="144.6,-259.97 137.83,-251.82 138.04,-262.42 144.6,-259.97"/>
</g>
<!-- qgis -->
<g id="node7" class="node">
<title>qgis</title>
<g id="a_node7"><a xlink:href="https://github.com/conda-forge/qgis-feedstock" xlink:title="qgis">
<ellipse fill="#fde725" stroke="black" cx="30.55" cy="-306" rx="30.59" ry="18"/>
<text text-anchor="middle" x="30.55" y="-302.3" font-family="Times,serif" font-size="14.00">qgis</text>
</a>
</g>
</g>
<!-- gdal&#45;&gt;qgis -->
<g id="edge4" class="edge">
<title>gdal&#45;&gt;qgis</title>
<path fill="none" stroke="black" d="M161.16,-366.37C135.08,-354.51 92.71,-335.25 63.33,-321.9"/>
<polygon fill="black" stroke="black" points="64.46,-318.57 53.9,-317.62 61.56,-324.94 64.46,-318.57"/>
</g>
<!-- r&#45;exactextractr -->
<g id="node8" class="node">
<title>r&#45;exactextractr</title>
<g id="a_node8"><a xlink:href="https://github.com/conda-forge/r-exactextractr-feedstock" xlink:title="r exactextractr">
<ellipse fill="#fde725" stroke="black" cx="238.55" cy="-18" rx="80.69" ry="18"/>
<text text-anchor="middle" x="238.55" y="-14.3" font-family="Times,serif" font-size="14.00">r exactextractr</text>
</a>
</g>
</g>
<!-- gdal&#45;&gt;r&#45;exactextractr -->
<g id="edge5" class="edge">
<title>gdal&#45;&gt;r&#45;exactextractr</title>
<path fill="none" stroke="black" d="M188.3,-360.05C193.84,-333.52 203.55,-280.52 203.55,-235 203.55,-235 203.55,-235 203.55,-161 203.55,-119.84 217.58,-73.88 227.87,-45.69"/>
<polygon fill="black" stroke="black" points="231.22,-46.74 231.46,-36.15 224.67,-44.28 231.22,-46.74"/>
</g>
<!-- omniscidb -->
<g id="node9" class="node">
<title>omniscidb</title>
<g id="a_node9"><a xlink:href="https://github.com/conda-forge/omniscidb-feedstock" xlink:title="omniscidb">
<ellipse fill="#fde725" stroke="black" cx="289.55" cy="-162" rx="58" ry="18"/>
<text text-anchor="middle" x="289.55" y="-158.3" font-family="Times,serif" font-size="14.00">omniscidb</text>
</a>
</g>
</g>
<!-- gdal&#45;&gt;omniscidb -->
<g id="edge6" class="edge">
<title>gdal&#45;&gt;omniscidb</title>
<path fill="none" stroke="black" d="M195.24,-361.1C202.01,-350.74 210.73,-336.82 217.55,-324 241.93,-278.14 265.62,-222.36 278.82,-189.95"/>
<polygon fill="black" stroke="black" points="282.22,-190.87 282.73,-180.29 275.73,-188.24 282.22,-190.87"/>
</g>
<!-- pyogrio -->
<g id="node10" class="node">
<title>pyogrio</title>
<g id="a_node10"><a xlink:href="https://github.com/conda-forge/pyogrio-feedstock" xlink:title="pyogrio">
<ellipse fill="#fde725" stroke="black" cx="449.55" cy="-306" rx="46.29" ry="18"/>
<text text-anchor="middle" x="449.55" y="-302.3" font-family="Times,serif" font-size="14.00">pyogrio</text>
</a>
</g>
</g>
<!-- gdal&#45;&gt;pyogrio -->
<g id="edge7" class="edge">
<title>gdal&#45;&gt;pyogrio</title>
<path fill="none" stroke="black" d="M212.12,-370.09C251.53,-360.16 326.21,-341.16 389.55,-324 394.14,-322.76 398.92,-321.44 403.69,-320.11"/>
<polygon fill="black" stroke="black" points="404.73,-323.45 413.41,-317.38 402.84,-316.71 404.73,-323.45"/>
</g>
<!-- r&#45;terra -->
<g id="node11" class="node">
<title>r&#45;terra</title>
<g id="a_node11"><a xlink:href="https://github.com/conda-forge/r-terra-feedstock" xlink:title="r terra">
<ellipse fill="#fde725" stroke="black" cx="324.55" cy="-90" rx="41.69" ry="18"/>
<text text-anchor="middle" x="324.55" y="-86.3" font-family="Times,serif" font-size="14.00">r terra</text>
</a>
</g>
</g>
<!-- gdal&#45;&gt;r&#45;terra -->
<g id="edge8" class="edge">
<title>gdal&#45;&gt;r&#45;terra</title>
<path fill="none" stroke="black" d="M203.29,-363.66C241.42,-335.18 326.87,-264.14 356.55,-180 361.87,-164.91 360.84,-159.41 356.55,-144 353.84,-134.27 348.8,-124.54 343.52,-116.12"/>
<polygon fill="black" stroke="black" points="346.25,-113.92 337.78,-107.56 340.44,-117.81 346.25,-113.92"/>
</g>
<!-- r&#45;terra&#45;&gt;r&#45;exactextractr -->
<g id="edge9" class="edge">
<title>r&#45;terra&#45;&gt;r&#45;exactextractr</title>
<path fill="none" stroke="black" d="M305.89,-73.81C294.54,-64.58 279.82,-52.6 267.04,-42.19"/>
<polygon fill="black" stroke="black" points="268.94,-39.23 258.98,-35.63 264.52,-44.66 268.94,-39.23"/>
</g>
<!-- libspatialite -->
<g id="node12" class="node">
<title>libspatialite</title>
<g id="a_node12"><a xlink:href="https://github.com/conda-forge/libspatialite-feedstock" xlink:title="libspatialite">
<ellipse fill="#35b779" stroke="black" cx="116.55" cy="-450" rx="65.79" ry="18"/>
<text text-anchor="middle" x="116.55" y="-446.3" font-family="Times,serif" font-size="14.00">libspatialite</text>
</a>
</g>
</g>
<!-- libspatialite&#45;&gt;gdal -->
<g id="edge10" class="edge">
<title>libspatialite&#45;&gt;gdal</title>
<path fill="none" stroke="black" d="M132.66,-432.41C141.68,-423.13 153.03,-411.44 162.82,-401.36"/>
<polygon fill="black" stroke="black" points="165.48,-403.65 169.94,-394.04 160.46,-398.77 165.48,-403.65"/>
</g>
<!-- libspatialite&#45;&gt;qgis -->
<g id="edge11" class="edge">
<title>libspatialite&#45;&gt;qgis</title>
<path fill="none" stroke="black" d="M106.34,-432.15C91.33,-407.36 63.18,-360.88 45.73,-332.07"/>
<polygon fill="black" stroke="black" points="48.65,-330.13 40.47,-323.39 42.66,-333.75 48.65,-330.13"/>
</g>
<!-- shapely -->
<g id="node13" class="node">
<title>shapely</title>
<g id="a_node13"><a xlink:href="https://github.com/conda-forge/shapely-feedstock/pull/93" xlink:title="shapely ✓">
<ellipse fill="#31688e" stroke="black" cx="710.55" cy="-270" rx="54" ry="18"/>
<text text-anchor="middle" x="710.55" y="-266.3" font-family="Times,serif" font-size="14.00" fill="white">shapely ✓</text>
</a>
</g>
</g>
<!-- shapely&#45;&gt;cartopy -->
<g id="edge12" class="edge">
<title>shapely&#45;&gt;cartopy</title>
<path fill="none" stroke="black" d="M710.55,-251.7C710.55,-243.98 710.55,-234.71 710.55,-226.11"/>
<polygon fill="black" stroke="black" points="714.05,-226.1 710.55,-216.1 707.05,-226.1 714.05,-226.1"/>
</g>
<!-- pygeos -->
<g id="node14" class="node">
<title>pygeos</title>
<g id="a_node14"><a xlink:href="https://github.com/conda-forge/pygeos-feedstock/pull/48" xlink:title="pygeos ❎">
<ellipse fill="#31688e" stroke="black" cx="449.55" cy="-378" rx="58" ry="18"/>
<text text-anchor="middle" x="449.55" y="-374.3" font-family="Times,serif" font-size="14.00" fill="white">pygeos ❎</text>
</a>
</g>
</g>
<!-- pygeos&#45;&gt;pyogrio -->
<g id="edge13" class="edge">
<title>pygeos&#45;&gt;pyogrio</title>
<path fill="none" stroke="black" d="M449.55,-359.7C449.55,-351.98 449.55,-342.71 449.55,-334.11"/>
<polygon fill="black" stroke="black" points="453.05,-334.1 449.55,-324.1 446.05,-334.1 453.05,-334.1"/>
</g>
</g>
</svg>
