<?xml version="1.0" encoding="UTF-8" standalone="no"?>
<!DOCTYPE svg PUBLIC "-//W3C//DTD SVG 1.1//EN"
 "http://www.w3.org/Graphics/SVG/1.1/DTD/svg11.dtd">
<!-- Generated by graphviz version 6.0.1 (20220911.2005)
 -->
<!-- Pages: 1 -->
<svg width="730pt" height="548pt"
 viewBox="0.00 0.00 729.69 548.00" xmlns="http://www.w3.org/2000/svg" xmlns:xlink="http://www.w3.org/1999/xlink">
<g id="graph0" class="graph" transform="scale(1 1) rotate(0) translate(4 544)">
<polygon fill="white" stroke="none" points="-4,4 -4,-544 725.69,-544 725.69,4 -4,4"/>
<!-- basemap -->
<g id="node1" class="node">
<title>basemap</title>
<g id="a_node1"><a xlink:href="https://github.com/conda-forge/basemap-feedstock" xlink:title="basemap">
<ellipse fill="#35b779" stroke="black" cx="569.55" cy="-342" rx="52" ry="18"/>
<text text-anchor="middle" x="569.55" y="-338.3" font-family="Times,serif" font-size="14.00">basemap</text>
</a>
</g>
</g>
<!-- r&#45;rgeos -->
<g id="node2" class="node">
<title>r&#45;rgeos</title>
<g id="a_node2"><a xlink:href="https://github.com/conda-forge/r-rgeos-feedstock" xlink:title="r rgeos">
<ellipse fill="#35b779" stroke="black" cx="569.55" cy="-270" rx="44.39" ry="18"/>
<text text-anchor="middle" x="569.55" y="-266.3" font-family="Times,serif" font-size="14.00">r rgeos</text>
</a>
</g>
</g>
<!-- basemap&#45;&gt;r&#45;rgeos -->
<!-- pygeos -->
<g id="node14" class="node">
<title>pygeos</title>
<g id="a_node14"><a xlink:href="https://github.com/conda-forge/pygeos-feedstock" xlink:title="pygeos">
<ellipse fill="#35b779" stroke="black" cx="569.55" cy="-198" rx="43.59" ry="18"/>
<text text-anchor="middle" x="569.55" y="-194.3" font-family="Times,serif" font-size="14.00">pygeos</text>
</a>
</g>
</g>
<!-- r&#45;rgeos&#45;&gt;pygeos -->
<!-- cartopy -->
<g id="node3" class="node">
<title>cartopy</title>
<g id="a_node3"><a xlink:href="https://github.com/conda-forge/cartopy-feedstock" xlink:title="cartopy">
<ellipse fill="#fde725" stroke="black" cx="675.55" cy="-234" rx="46.29" ry="18"/>
<text text-anchor="middle" x="675.55" y="-230.3" font-family="Times,serif" font-size="14.00">cartopy</text>
</a>
</g>
</g>
<!-- gdal -->
<g id="node4" class="node">
<title>gdal</title>
<g id="a_node4"><a xlink:href="https://github.com/conda-forge/gdal-feedstock" xlink:title="gdal">
<ellipse fill="#fde725" stroke="black" cx="184.55" cy="-378" rx="30.59" ry="18"/>
<text text-anchor="middle" x="184.55" y="-374.3" font-family="Times,serif" font-size="14.00">gdal</text>
</a>
</g>
</g>
<!-- gmt -->
<g id="node5" class="node">
<title>gmt</title>
<g id="a_node5"><a xlink:href="https://github.com/conda-forge/gmt-feedstock" xlink:title="gmt">
<ellipse fill="#fde725" stroke="black" cx="108.55" cy="-306" rx="29.5" ry="18"/>
<text text-anchor="middle" x="108.55" y="-302.3" font-family="Times,serif" font-size="14.00">gmt</text>
</a>
</g>
</g>
<!-- gdal&#45;&gt;gmt -->
<g id="edge2" class="edge">
<title>gdal&#45;&gt;gmt</title>
<path fill="none" stroke="black" d="M168.8,-362.5C158.1,-352.64 143.77,-339.44 131.76,-328.38"/>
<polygon fill="black" stroke="black" points="134,-325.69 124.27,-321.49 129.26,-330.83 134,-325.69"/>
</g>
<!-- postgis -->
<g id="node6" class="node">
<title>postgis</title>
<g id="a_node6"><a xlink:href="https://github.com/conda-forge/postgis-feedstock" xlink:title="postgis">
<ellipse fill="#fde725" stroke="black" cx="131.55" cy="-234" rx="44.39" ry="18"/>
<text text-anchor="middle" x="131.55" y="-230.3" font-family="Times,serif" font-size="14.00">postgis</text>
</a>
</g>
</g>
<!-- gdal&#45;&gt;postgis -->
<g id="edge3" class="edge">
<title>gdal&#45;&gt;postgis</title>
<path fill="none" stroke="black" d="M178.26,-360.15C169.13,-335.71 152.14,-290.17 141.36,-261.29"/>
<polygon fill="black" stroke="black" points="144.6,-259.97 137.83,-251.82 138.04,-262.42 144.6,-259.97"/>
</g>
<!-- qgis -->
<g id="node7" class="node">
<title>qgis</title>
<g id="a_node7"><a xlink:href="https://github.com/conda-forge/qgis-feedstock" xlink:title="qgis">
<ellipse fill="#fde725" stroke="black" cx="30.55" cy="-306" rx="30.59" ry="18"/>
<text text-anchor="middle" x="30.55" y="-302.3" font-family="Times,serif" font-size="14.00">qgis</text>
</a>
</g>
</g>
<!-- gdal&#45;&gt;qgis -->
<g id="edge4" class="edge">
<title>gdal&#45;&gt;qgis</title>
<path fill="none" stroke="black" d="M161.16,-366.37C135.08,-354.51 92.71,-335.25 63.33,-321.9"/>
<polygon fill="black" stroke="black" points="64.46,-318.57 53.9,-317.62 61.56,-324.94 64.46,-318.57"/>
</g>
<!-- r&#45;exactextractr -->
<g id="node8" class="node">
<title>r&#45;exactextractr</title>
<g id="a_node8"><a xlink:href="https://github.com/conda-forge/r-exactextractr-feedstock" xlink:title="r exactextractr">
<ellipse fill="#fde725" stroke="black" cx="193.55" cy="-90" rx="80.69" ry="18"/>
<text text-anchor="middle" x="193.55" y="-86.3" font-family="Times,serif" font-size="14.00">r exactextractr</text>
</a>
</g>
</g>
<!-- gdal&#45;&gt;r&#45;exactextractr -->
<g id="edge5" class="edge">
<title>gdal&#45;&gt;r&#45;exactextractr</title>
<path fill="none" stroke="black" d="M185.08,-359.97C186.58,-312.29 190.84,-177.18 192.68,-118.63"/>
<polygon fill="black" stroke="black" points="196.19,-118.41 193,-108.31 189.19,-118.19 196.19,-118.41"/>
</g>
<!-- r&#45;terra -->
<g id="node9" class="node">
<title>r&#45;terra</title>
<g id="a_node9"><a xlink:href="https://github.com/conda-forge/r-terra-feedstock" xlink:title="r terra">
<ellipse fill="#fde725" stroke="black" cx="273.55" cy="-162" rx="41.69" ry="18"/>
<text text-anchor="middle" x="273.55" y="-158.3" font-family="Times,serif" font-size="14.00">r terra</text>
</a>
</g>
</g>
<!-- gdal&#45;&gt;r&#45;terra -->
<g id="edge6" class="edge">
<title>gdal&#45;&gt;r&#45;terra</title>
<path fill="none" stroke="black" d="M195.93,-360.83C202.8,-350.6 211.38,-336.91 217.55,-324 239.31,-278.46 256.93,-222.15 266.27,-189.62"/>
<polygon fill="black" stroke="black" points="269.65,-190.52 269,-179.94 262.92,-188.61 269.65,-190.52"/>
</g>
<!-- mapserver -->
<g id="node10" class="node">
<title>mapserver</title>
<g id="a_node10"><a xlink:href="https://github.com/conda-forge/mapserver-feedstock" xlink:title="mapserver">
<ellipse fill="#fde725" stroke="black" cx="352.55" cy="-90" rx="60.5" ry="18"/>
<text text-anchor="middle" x="352.55" y="-86.3" font-family="Times,serif" font-size="14.00">mapserver</text>
</a>
</g>
</g>
<!-- gdal&#45;&gt;mapserver -->
<g id="edge7" class="edge">
<title>gdal&#45;&gt;mapserver</title>
<path fill="none" stroke="black" d="M201.6,-362.75C213.11,-352.64 228.2,-338.36 239.55,-324 285.61,-265.68 294.31,-247.89 324.55,-180 333.53,-159.84 340.88,-135.93 345.79,-117.97"/>
<polygon fill="black" stroke="black" points="349.22,-118.72 348.4,-108.15 342.45,-116.92 349.22,-118.72"/>
</g>
<!-- heavydb&#45;ext -->
<g id="node11" class="node">
<title>heavydb&#45;ext</title>
<g id="a_node11"><a xlink:href="https://github.com/conda-forge/heavydb-ext-feedstock" xlink:title="heavydb ext">
<ellipse fill="#35b779" stroke="black" cx="441.55" cy="-18" rx="67.69" ry="18"/>
<text text-anchor="middle" x="441.55" y="-14.3" font-family="Times,serif" font-size="14.00">heavydb ext</text>
</a>
</g>
</g>
<!-- gdal&#45;&gt;heavydb&#45;ext -->
<g id="edge8" class="edge">
<title>gdal&#45;&gt;heavydb&#45;ext</title>
<path fill="none" stroke="black" d="M214.53,-374.4C282.33,-366.71 441.55,-337.72 441.55,-235 441.55,-235 441.55,-235 441.55,-161 441.55,-121 441.55,-74.65 441.55,-46.08"/>
<polygon fill="black" stroke="black" points="445.05,-46.05 441.55,-36.05 438.05,-46.05 445.05,-46.05"/>
</g>
<!-- r&#45;terra&#45;&gt;r&#45;exactextractr -->
<g id="edge9" class="edge">
<title>r&#45;terra&#45;&gt;r&#45;exactextractr</title>
<path fill="none" stroke="black" d="M255.79,-145.46C245.4,-136.37 232.06,-124.7 220.4,-114.49"/>
<polygon fill="black" stroke="black" points="222.48,-111.66 212.65,-107.71 217.87,-116.93 222.48,-111.66"/>
</g>
<!-- libspatialite -->
<g id="node12" class="node">
<title>libspatialite</title>
<g id="a_node12"><a xlink:href="https://github.com/conda-forge/libspatialite-feedstock" xlink:title="libspatialite">
<ellipse fill="#fde725" stroke="black" cx="116.55" cy="-450" rx="65.79" ry="18"/>
<text text-anchor="middle" x="116.55" y="-446.3" font-family="Times,serif" font-size="14.00">libspatialite</text>
</a>
</g>
</g>
<!-- libspatialite&#45;&gt;gdal -->
<g id="edge10" class="edge">
<title>libspatialite&#45;&gt;gdal</title>
<path fill="none" stroke="black" d="M132.66,-432.41C141.68,-423.13 153.03,-411.44 162.82,-401.36"/>
<polygon fill="black" stroke="black" points="165.48,-403.65 169.94,-394.04 160.46,-398.77 165.48,-403.65"/>
</g>
<!-- libspatialite&#45;&gt;qgis -->
<g id="edge11" class="edge">
<title>libspatialite&#45;&gt;qgis</title>
<path fill="none" stroke="black" d="M106.34,-432.15C91.33,-407.36 63.18,-360.88 45.73,-332.07"/>
<polygon fill="black" stroke="black" points="48.65,-330.13 40.47,-323.39 42.66,-333.75 48.65,-330.13"/>
</g>
<!-- shapely -->
<g id="node13" class="node">
<title>shapely</title>
<g id="a_node13"><a xlink:href="https://github.com/conda-forge/shapely-feedstock" xlink:title="shapely">
<ellipse fill="#35b779" stroke="black" cx="675.55" cy="-306" rx="46.29" ry="18"/>
<text text-anchor="middle" x="675.55" y="-302.3" font-family="Times,serif" font-size="14.00">shapely</text>
</a>
</g>
</g>
<!-- shapely&#45;&gt;cartopy -->
<g id="edge12" class="edge">
<title>shapely&#45;&gt;cartopy</title>
<path fill="none" stroke="black" d="M675.55,-287.7C675.55,-279.98 675.55,-270.71 675.55,-262.11"/>
<polygon fill="black" stroke="black" points="679.05,-262.1 675.55,-252.1 672.05,-262.1 679.05,-262.1"/>
</g>
<!-- librttopo -->
<g id="node15" class="node">
<title>librttopo</title>
<g id="a_node15"><a xlink:href="https://github.com/conda-forge/librttopo-feedstock" xlink:title="librttopo">
<ellipse fill="#35b779" stroke="black" cx="116.55" cy="-522" rx="51.5" ry="18"/>
<text text-anchor="middle" x="116.55" y="-518.3" font-family="Times,serif" font-size="14.00">librttopo</text>
</a>
</g>
</g>
<!-- librttopo&#45;&gt;libspatialite -->
<g id="edge14" class="edge">
<title>librttopo&#45;&gt;libspatialite</title>
<path fill="none" stroke="black" d="M116.55,-503.7C116.55,-495.98 116.55,-486.71 116.55,-478.11"/>
<polygon fill="black" stroke="black" points="120.05,-478.1 116.55,-468.1 113.05,-478.1 120.05,-478.1"/>
</g>
</g>
</svg>
