<?xml version="1.0" encoding="UTF-8" standalone="no"?>
<!DOCTYPE svg PUBLIC "-//W3C//DTD SVG 1.1//EN"
 "http://www.w3.org/Graphics/SVG/1.1/DTD/svg11.dtd">
<!-- Generated by graphviz version 6.0.1 (20220911.2005)
 -->
<!-- Pages: 1 -->
<svg width="839pt" height="188pt"
 viewBox="0.00 0.00 839.04 188.00" xmlns="http://www.w3.org/2000/svg" xmlns:xlink="http://www.w3.org/1999/xlink">
<g id="graph0" class="graph" transform="scale(1 1) rotate(0) translate(4 184)">
<polygon fill="white" stroke="none" points="-4,4 -4,-184 835.04,-184 835.04,4 -4,4"/>
<!-- basemap -->
<g id="node1" class="node">
<title>basemap</title>
<g id="a_node1"><a xlink:href="https://github.com/conda-forge/basemap-feedstock/pull/106" xlink:title="basemap ✓">
<ellipse fill="#31688e" stroke="black" cx="771.25" cy="-90" rx="59.59" ry="18"/>
<text text-anchor="middle" x="771.25" y="-86.3" font-family="Times,serif" font-size="14.00" fill="white">basemap ✓</text>
</a>
</g>
</g>
<!-- gdal -->
<g id="node2" class="node">
<title>gdal</title>
<g id="a_node2"><a xlink:href="https://github.com/conda-forge/gdal-feedstock/pull/667" xlink:title="gdal ❎">
<ellipse fill="#31688e" stroke="black" cx="272.25" cy="-162" rx="44.69" ry="18"/>
<text text-anchor="middle" x="272.25" y="-158.3" font-family="Times,serif" font-size="14.00" fill="white">gdal ❎</text>
</a>
</g>
</g>
<!-- gmt -->
<g id="node3" class="node">
<title>gmt</title>
<g id="a_node3"><a xlink:href="https://github.com/conda-forge/gmt-feedstock" xlink:title="gmt">
<ellipse fill="#fde725" stroke="black" cx="29.25" cy="-90" rx="29.5" ry="18"/>
<text text-anchor="middle" x="29.25" y="-86.3" font-family="Times,serif" font-size="14.00">gmt</text>
</a>
</g>
</g>
<!-- gdal&#45;&gt;gmt -->
<g id="edge1" class="edge">
<title>gdal&#45;&gt;gmt</title>
<path fill="none" stroke="black" d="M233.13,-152.94C191.45,-143.88 123.8,-127.8 67.25,-108 65.14,-107.26 62.99,-106.46 60.84,-105.61"/>
<polygon fill="black" stroke="black" points="62.08,-102.33 51.5,-101.7 59.38,-108.79 62.08,-102.33"/>
</g>
<!-- postgis -->
<g id="node4" class="node">
<title>postgis</title>
<g id="a_node4"><a xlink:href="https://github.com/conda-forge/postgis-feedstock" xlink:title="postgis">
<ellipse fill="#fde725" stroke="black" cx="120.25" cy="-90" rx="44.39" ry="18"/>
<text text-anchor="middle" x="120.25" y="-86.3" font-family="Times,serif" font-size="14.00">postgis</text>
</a>
</g>
</g>
<!-- gdal&#45;&gt;postgis -->
<g id="edge4" class="edge">
<title>gdal&#45;&gt;postgis</title>
<path fill="none" stroke="black" d="M244.01,-148C219.7,-136.8 184.41,-120.55 157.73,-108.26"/>
<polygon fill="black" stroke="black" points="158.88,-104.94 148.33,-103.93 155.95,-111.29 158.88,-104.94"/>
</g>
<!-- qgis -->
<g id="node5" class="node">
<title>qgis</title>
<g id="a_node5"><a xlink:href="https://github.com/conda-forge/qgis-feedstock" xlink:title="qgis">
<ellipse fill="#fde725" stroke="black" cx="213.25" cy="-90" rx="30.59" ry="18"/>
<text text-anchor="middle" x="213.25" y="-86.3" font-family="Times,serif" font-size="14.00">qgis</text>
</a>
</g>
</g>
<!-- gdal&#45;&gt;qgis -->
<g id="edge5" class="edge">
<title>gdal&#45;&gt;qgis</title>
<path fill="none" stroke="black" d="M258.56,-144.76C251.01,-135.8 241.49,-124.51 233.13,-114.59"/>
<polygon fill="black" stroke="black" points="235.57,-112.06 226.45,-106.67 230.22,-116.57 235.57,-112.06"/>
</g>
<!-- r&#45;exactextractr -->
<g id="node6" class="node">
<title>r&#45;exactextractr</title>
<g id="a_node6"><a xlink:href="https://github.com/conda-forge/r-exactextractr-feedstock" xlink:title="r exactextractr">
<ellipse fill="#fde725" stroke="black" cx="307.25" cy="-18" rx="80.69" ry="18"/>
<text text-anchor="middle" x="307.25" y="-14.3" font-family="Times,serif" font-size="14.00">r exactextractr</text>
</a>
</g>
</g>
<!-- gdal&#45;&gt;r&#45;exactextractr -->
<g id="edge7" class="edge">
<title>gdal&#45;&gt;r&#45;exactextractr</title>
<path fill="none" stroke="black" d="M275.47,-143.84C278.96,-125.84 284.87,-96.79 291.25,-72 293.46,-63.4 296.16,-54.1 298.71,-45.73"/>
<polygon fill="black" stroke="black" points="302.08,-46.67 301.7,-36.08 295.39,-44.6 302.08,-46.67"/>
</g>
<!-- r&#45;terra -->
<g id="node7" class="node">
<title>r&#45;terra</title>
<g id="a_node7"><a xlink:href="https://github.com/conda-forge/r-terra-feedstock" xlink:title="r terra">
<ellipse fill="#fde725" stroke="black" cx="342.25" cy="-90" rx="41.69" ry="18"/>
<text text-anchor="middle" x="342.25" y="-86.3" font-family="Times,serif" font-size="14.00">r terra</text>
</a>
</g>
</g>
<!-- gdal&#45;&gt;r&#45;terra -->
<g id="edge6" class="edge">
<title>gdal&#45;&gt;r&#45;terra</title>
<path fill="none" stroke="black" d="M288.13,-145.12C297.35,-135.9 309.12,-124.13 319.33,-113.92"/>
<polygon fill="black" stroke="black" points="321.83,-116.37 326.43,-106.82 316.88,-111.42 321.83,-116.37"/>
</g>
<!-- mapserver -->
<g id="node8" class="node">
<title>mapserver</title>
<g id="a_node8"><a xlink:href="https://github.com/conda-forge/mapserver-feedstock" xlink:title="mapserver">
<ellipse fill="#fde725" stroke="black" cx="462.25" cy="-90" rx="60.39" ry="18"/>
<text text-anchor="middle" x="462.25" y="-86.3" font-family="Times,serif" font-size="14.00">mapserver</text>
</a>
</g>
</g>
<!-- gdal&#45;&gt;mapserver -->
<g id="edge3" class="edge">
<title>gdal&#45;&gt;mapserver</title>
<path fill="none" stroke="black" d="M304.05,-149.28C334.76,-137.97 381.59,-120.72 416.33,-107.92"/>
<polygon fill="black" stroke="black" points="417.62,-111.17 425.79,-104.43 415.2,-104.6 417.62,-111.17"/>
</g>
<!-- heavydb&#45;ext -->
<g id="node9" class="node">
<title>heavydb&#45;ext</title>
<g id="a_node9"><a xlink:href="https://github.com/conda-forge/heavydb-ext-feedstock/pull/25" xlink:title="heavydb ext ❎">
<ellipse fill="#31688e" stroke="black" cx="622.25" cy="-90" rx="81.49" ry="18"/>
<text text-anchor="middle" x="622.25" y="-86.3" font-family="Times,serif" font-size="14.00" fill="white">heavydb ext ❎</text>
</a>
</g>
</g>
<!-- gdal&#45;&gt;heavydb&#45;ext -->
<g id="edge2" class="edge">
<title>gdal&#45;&gt;heavydb&#45;ext</title>
<path fill="none" stroke="black" d="M311.38,-153.17C370.07,-141.44 481.71,-119.11 554,-104.65"/>
<polygon fill="black" stroke="black" points="554.81,-108.06 563.93,-102.66 553.44,-101.19 554.81,-108.06"/>
</g>
<!-- r&#45;terra&#45;&gt;r&#45;exactextractr -->
<g id="edge8" class="edge">
<title>r&#45;terra&#45;&gt;r&#45;exactextractr</title>
<path fill="none" stroke="black" d="M333.77,-72.05C329.75,-64.01 324.85,-54.2 320.36,-45.23"/>
<polygon fill="black" stroke="black" points="323.49,-43.65 315.89,-36.28 317.23,-46.78 323.49,-43.65"/>
</g>
</g>
</svg>
