<?xml version="1.0" encoding="UTF-8" standalone="no"?>
<!DOCTYPE svg PUBLIC "-//W3C//DTD SVG 1.1//EN"
 "http://www.w3.org/Graphics/SVG/1.1/DTD/svg11.dtd">
<!-- Generated by graphviz version 2.46.1 (20210222.2046)
 -->
<!-- Pages: 1 -->
<svg width="740pt" height="188pt"
 viewBox="0.00 0.00 740.04 188.00" xmlns="http://www.w3.org/2000/svg" xmlns:xlink="http://www.w3.org/1999/xlink">
<g id="graph0" class="graph" transform="scale(1 1) rotate(0) translate(4 184)">
<polygon fill="white" stroke="transparent" points="-4,4 -4,-184 736.04,-184 736.04,4 -4,4"/>
<!-- gdal -->
<g id="node1" class="node">
<title>gdal</title>
<g id="a_node1"><a xlink:href="https://github.com/conda-forge/gdal-feedstock" xlink:title="gdal">
<ellipse fill="#fde725" stroke="black" cx="277.9" cy="-90" rx="30.59" ry="18"/>
<text text-anchor="middle" x="277.9" y="-86.3" font-family="Times-Roman" font-size="14.00">gdal</text>
</a>
</g>
</g>
<!-- postgis -->
<g id="node3" class="node">
<title>postgis</title>
<g id="a_node3"><a xlink:href="https://github.com/conda-forge/postgis-feedstock" xlink:title="postgis">
<ellipse fill="#fde725" stroke="black" cx="121.9" cy="-18" rx="44.39" ry="18"/>
<text text-anchor="middle" x="121.9" y="-14.3" font-family="Times-Roman" font-size="14.00">postgis</text>
</a>
</g>
</g>
<!-- gdal&#45;&gt;postgis -->
<g id="edge2" class="edge">
<title>gdal&#45;&gt;postgis</title>
<path fill="none" stroke="black" d="M254.2,-78.37C229.13,-67.12 189.2,-49.2 159.75,-35.99"/>
<polygon fill="black" stroke="black" points="161.15,-32.78 150.59,-31.88 158.28,-39.16 161.15,-32.78"/>
</g>
<!-- qgis -->
<g id="node4" class="node">
<title>qgis</title>
<g id="a_node4"><a xlink:href="https://github.com/conda-forge/qgis-feedstock" xlink:title="qgis">
<ellipse fill="#fde725" stroke="black" cx="29.9" cy="-18" rx="29.8" ry="18"/>
<text text-anchor="middle" x="29.9" y="-14.3" font-family="Times-Roman" font-size="14.00">qgis</text>
</a>
</g>
</g>
<!-- gdal&#45;&gt;qgis -->
<g id="edge4" class="edge">
<title>gdal&#45;&gt;qgis</title>
<path fill="none" stroke="black" d="M249.41,-83.32C208.79,-74.87 132.12,-57.63 68.9,-36 66.66,-35.23 64.37,-34.39 62.07,-33.51"/>
<polygon fill="black" stroke="black" points="63.33,-30.24 52.75,-29.7 60.68,-36.72 63.33,-30.24"/>
</g>
<!-- rsgislib -->
<g id="node5" class="node">
<title>rsgislib</title>
<g id="a_node5"><a xlink:href="https://github.com/conda-forge/rsgislib-feedstock" xlink:title="rsgislib">
<ellipse fill="#fde725" stroke="black" cx="227.9" cy="-18" rx="43.59" ry="18"/>
<text text-anchor="middle" x="227.9" y="-14.3" font-family="Times-Roman" font-size="14.00">rsgislib</text>
</a>
</g>
</g>
<!-- gdal&#45;&gt;rsgislib -->
<g id="edge5" class="edge">
<title>gdal&#45;&gt;rsgislib</title>
<path fill="none" stroke="black" d="M266.55,-73.12C260.4,-64.51 252.66,-53.67 245.72,-43.96"/>
<polygon fill="black" stroke="black" points="248.56,-41.9 239.9,-35.8 242.86,-45.97 248.56,-41.9"/>
</g>
<!-- spdlib -->
<g id="node6" class="node">
<title>spdlib</title>
<g id="a_node6"><a xlink:href="https://github.com/conda-forge/spdlib-feedstock" xlink:title="spdlib">
<ellipse fill="#fde725" stroke="black" cx="327.9" cy="-18" rx="38.19" ry="18"/>
<text text-anchor="middle" x="327.9" y="-14.3" font-family="Times-Roman" font-size="14.00">spdlib</text>
</a>
</g>
</g>
<!-- gdal&#45;&gt;spdlib -->
<g id="edge6" class="edge">
<title>gdal&#45;&gt;spdlib</title>
<path fill="none" stroke="black" d="M289.24,-73.12C295.48,-64.38 303.36,-53.35 310.37,-43.54"/>
<polygon fill="black" stroke="black" points="313.29,-45.48 316.25,-35.31 307.59,-41.41 313.29,-45.48"/>
</g>
<!-- pdal -->
<g id="node7" class="node">
<title>pdal</title>
<g id="a_node7"><a xlink:href="https://github.com/conda-forge/pdal-feedstock" xlink:title="pdal">
<ellipse fill="#fde725" stroke="black" cx="414.9" cy="-18" rx="30.59" ry="18"/>
<text text-anchor="middle" x="414.9" y="-14.3" font-family="Times-Roman" font-size="14.00">pdal</text>
</a>
</g>
</g>
<!-- gdal&#45;&gt;pdal -->
<g id="edge1" class="edge">
<title>gdal&#45;&gt;pdal</title>
<path fill="none" stroke="black" d="M300.21,-77.6C322.8,-66.06 357.94,-48.1 383.37,-35.11"/>
<polygon fill="black" stroke="black" points="385.28,-38.06 392.59,-30.4 382.09,-31.83 385.28,-38.06"/>
</g>
<!-- r&#45;exactextractr -->
<g id="node8" class="node">
<title>r&#45;exactextractr</title>
<g id="a_node8"><a xlink:href="https://github.com/conda-forge/r-exactextractr-feedstock" xlink:title="r exactextractr">
<ellipse fill="#fde725" stroke="black" cx="542.9" cy="-18" rx="79.09" ry="18"/>
<text text-anchor="middle" x="542.9" y="-14.3" font-family="Times-Roman" font-size="14.00">r exactextractr</text>
</a>
</g>
</g>
<!-- gdal&#45;&gt;r&#45;exactextractr -->
<g id="edge7" class="edge">
<title>gdal&#45;&gt;r&#45;exactextractr</title>
<path fill="none" stroke="black" d="M305.26,-81.77C347.05,-70.73 427.79,-49.41 483.47,-34.7"/>
<polygon fill="black" stroke="black" points="484.44,-38.06 493.22,-32.12 482.65,-31.29 484.44,-38.06"/>
</g>
<!-- pyogrio -->
<g id="node9" class="node">
<title>pyogrio</title>
<g id="a_node9"><a xlink:href="https://github.com/conda-forge/pyogrio-feedstock" xlink:title="pyogrio">
<ellipse fill="#fde725" stroke="black" cx="685.9" cy="-18" rx="46.29" ry="18"/>
<text text-anchor="middle" x="685.9" y="-14.3" font-family="Times-Roman" font-size="14.00">pyogrio</text>
</a>
</g>
</g>
<!-- gdal&#45;&gt;pyogrio -->
<g id="edge3" class="edge">
<title>gdal&#45;&gt;pyogrio</title>
<path fill="none" stroke="black" d="M307.93,-86.04C369.2,-79.65 512.78,-62.96 630.9,-36 634.57,-35.16 638.36,-34.2 642.14,-33.17"/>
<polygon fill="black" stroke="black" points="643.43,-36.44 652.08,-30.33 641.5,-29.71 643.43,-36.44"/>
</g>
<!-- libspatialite -->
<g id="node2" class="node">
<title>libspatialite</title>
<g id="a_node2"><a xlink:href="https://github.com/conda-forge/libspatialite-feedstock/pull/64" xlink:title="libspatialite ❎">
<ellipse fill="#31688e" stroke="black" cx="178.9" cy="-162" rx="76.09" ry="18"/>
<text text-anchor="middle" x="178.9" y="-158.3" font-family="Times-Roman" font-size="14.00" fill="white">libspatialite ❎</text>
</a>
</g>
</g>
<!-- libspatialite&#45;&gt;gdal -->
<g id="edge8" class="edge">
<title>libspatialite&#45;&gt;gdal</title>
<path fill="none" stroke="black" d="M201.86,-144.76C216.37,-134.5 235.21,-121.18 250.51,-110.37"/>
<polygon fill="black" stroke="black" points="252.9,-112.96 259.04,-104.33 248.86,-107.25 252.9,-112.96"/>
</g>
<!-- libspatialite&#45;&gt;qgis -->
<g id="edge9" class="edge">
<title>libspatialite&#45;&gt;qgis</title>
<path fill="none" stroke="black" d="M161.51,-144.43C134.59,-118.78 82.81,-69.43 52.85,-40.87"/>
<polygon fill="black" stroke="black" points="55.03,-38.11 45.37,-33.75 50.2,-43.18 55.03,-38.11"/>
</g>
</g>
</svg>
