<?xml version="1.0" encoding="UTF-8" standalone="no"?>
<!DOCTYPE svg PUBLIC "-//W3C//DTD SVG 1.1//EN"
 "http://www.w3.org/Graphics/SVG/1.1/DTD/svg11.dtd">
<!-- Generated by graphviz version 2.42.3 (20191010.1750)
 -->
<!-- Title: %3 Pages: 1 -->
<svg width="660pt" height="548pt"
 viewBox="0.00 0.00 659.69 548.00" xmlns="http://www.w3.org/2000/svg" xmlns:xlink="http://www.w3.org/1999/xlink">
<g id="graph0" class="graph" transform="scale(1 1) rotate(0) translate(4 544)">
<title>%3</title>
<polygon fill="white" stroke="transparent" points="-4,4 -4,-544 655.69,-544 655.69,4 -4,4"/>
<!-- basemap -->
<g id="node1" class="node">
<title>basemap</title>
<g id="a_node1"><a xlink:href="https://github.com/conda-forge/basemap-feedstock" xlink:title="basemap">
<ellipse fill="#35b779" stroke="black" cx="499.55" cy="-306" rx="52" ry="18"/>
<text text-anchor="middle" x="499.55" y="-302.3" font-family="Times,serif" font-size="14.00">basemap</text>
</a>
</g>
</g>
<!-- r&#45;rgeos -->
<g id="node2" class="node">
<title>r&#45;rgeos</title>
<g id="a_node2"><a xlink:href="https://github.com/conda-forge/r-rgeos-feedstock" xlink:title="r rgeos">
<ellipse fill="#35b779" stroke="black" cx="499.55" cy="-234" rx="44.39" ry="18"/>
<text text-anchor="middle" x="499.55" y="-230.3" font-family="Times,serif" font-size="14.00">r rgeos</text>
</a>
</g>
</g>
<!-- basemap&#45;&gt;r&#45;rgeos -->
<!-- cartopy -->
<g id="node3" class="node">
<title>cartopy</title>
<g id="a_node3"><a xlink:href="https://github.com/conda-forge/cartopy-feedstock" xlink:title="cartopy">
<ellipse fill="#fde725" stroke="black" cx="605.55" cy="-234" rx="46.29" ry="18"/>
<text text-anchor="middle" x="605.55" y="-230.3" font-family="Times,serif" font-size="14.00">cartopy</text>
</a>
</g>
</g>
<!-- gdal -->
<g id="node4" class="node">
<title>gdal</title>
<g id="a_node4"><a xlink:href="https://github.com/conda-forge/gdal-feedstock" xlink:title="gdal">
<ellipse fill="#fde725" stroke="black" cx="214.55" cy="-378" rx="30.59" ry="18"/>
<text text-anchor="middle" x="214.55" y="-374.3" font-family="Times,serif" font-size="14.00">gdal</text>
</a>
</g>
</g>
<!-- postgis -->
<g id="node5" class="node">
<title>postgis</title>
<g id="a_node5"><a xlink:href="https://github.com/conda-forge/postgis-feedstock" xlink:title="postgis">
<ellipse fill="#fde725" stroke="black" cx="123.55" cy="-306" rx="44.39" ry="18"/>
<text text-anchor="middle" x="123.55" y="-302.3" font-family="Times,serif" font-size="14.00">postgis</text>
</a>
</g>
</g>
<!-- gdal&#45;&gt;postgis -->
<g id="edge2" class="edge">
<title>gdal&#45;&gt;postgis</title>
<path fill="none" stroke="black" d="M196.57,-363.17C183.75,-353.31 166.27,-339.86 151.62,-328.6"/>
<polygon fill="black" stroke="black" points="153.44,-325.58 143.38,-322.26 149.18,-331.13 153.44,-325.58"/>
</g>
<!-- qgis -->
<g id="node6" class="node">
<title>qgis</title>
<g id="a_node6"><a xlink:href="https://github.com/conda-forge/qgis-feedstock" xlink:title="qgis">
<ellipse fill="#fde725" stroke="black" cx="30.55" cy="-306" rx="30.59" ry="18"/>
<text text-anchor="middle" x="30.55" y="-302.3" font-family="Times,serif" font-size="14.00">qgis</text>
</a>
</g>
</g>
<!-- gdal&#45;&gt;qgis -->
<g id="edge3" class="edge">
<title>gdal&#45;&gt;qgis</title>
<path fill="none" stroke="black" d="M188.91,-367.99C160,-357.74 111.66,-340.29 70.55,-324 68.36,-323.13 66.11,-322.22 63.84,-321.3"/>
<polygon fill="black" stroke="black" points="65.16,-318.05 54.58,-317.44 62.47,-324.52 65.16,-318.05"/>
</g>
<!-- rsgislib -->
<g id="node7" class="node">
<title>rsgislib</title>
<g id="a_node7"><a xlink:href="https://github.com/conda-forge/rsgislib-feedstock" xlink:title="rsgislib">
<ellipse fill="#fde725" stroke="black" cx="159.55" cy="-234" rx="45.5" ry="18"/>
<text text-anchor="middle" x="159.55" y="-230.3" font-family="Times,serif" font-size="14.00">rsgislib</text>
</a>
</g>
</g>
<!-- gdal&#45;&gt;rsgislib -->
<g id="edge4" class="edge">
<title>gdal&#45;&gt;rsgislib</title>
<path fill="none" stroke="black" d="M208.02,-360.15C198.55,-335.71 180.92,-290.17 169.73,-261.29"/>
<polygon fill="black" stroke="black" points="172.94,-259.89 166.06,-251.82 166.41,-262.41 172.94,-259.89"/>
</g>
<!-- spdlib -->
<g id="node8" class="node">
<title>spdlib</title>
<g id="a_node8"><a xlink:href="https://github.com/conda-forge/spdlib-feedstock" xlink:title="spdlib">
<ellipse fill="#fde725" stroke="black" cx="204.55" cy="-162" rx="39" ry="18"/>
<text text-anchor="middle" x="204.55" y="-158.3" font-family="Times,serif" font-size="14.00">spdlib</text>
</a>
</g>
</g>
<!-- gdal&#45;&gt;spdlib -->
<g id="edge5" class="edge">
<title>gdal&#45;&gt;spdlib</title>
<path fill="none" stroke="black" d="M215.36,-359.56C216.54,-329.98 218.1,-268.07 213.55,-216 212.8,-207.5 211.44,-198.31 210,-190.02"/>
<polygon fill="black" stroke="black" points="213.43,-189.29 208.17,-180.09 206.55,-190.56 213.43,-189.29"/>
</g>
<!-- pdal -->
<g id="node9" class="node">
<title>pdal</title>
<g id="a_node9"><a xlink:href="https://github.com/conda-forge/pdal-feedstock" xlink:title="pdal">
<ellipse fill="#fde725" stroke="black" cx="260.55" cy="-90" rx="30.59" ry="18"/>
<text text-anchor="middle" x="260.55" y="-86.3" font-family="Times,serif" font-size="14.00">pdal</text>
</a>
</g>
</g>
<!-- gdal&#45;&gt;pdal -->
<g id="edge6" class="edge">
<title>gdal&#45;&gt;pdal</title>
<path fill="none" stroke="black" d="M220.36,-359.98C223.71,-349.66 227.79,-336.19 230.55,-324 247.13,-250.65 255.39,-162.1 258.71,-118.29"/>
<polygon fill="black" stroke="black" points="262.21,-118.38 259.45,-108.15 255.23,-117.87 262.21,-118.38"/>
</g>
<!-- r&#45;exactextractr -->
<g id="node10" class="node">
<title>r&#45;exactextractr</title>
<g id="a_node10"><a xlink:href="https://github.com/conda-forge/r-exactextractr-feedstock" xlink:title="r exactextractr">
<ellipse fill="#fde725" stroke="black" cx="319.55" cy="-18" rx="81.49" ry="18"/>
<text text-anchor="middle" x="319.55" y="-14.3" font-family="Times,serif" font-size="14.00">r exactextractr</text>
</a>
</g>
</g>
<!-- gdal&#45;&gt;r&#45;exactextractr -->
<g id="edge7" class="edge">
<title>gdal&#45;&gt;r&#45;exactextractr</title>
<path fill="none" stroke="black" d="M233.81,-363.75C264.12,-341.15 319.55,-292.03 319.55,-235 319.55,-235 319.55,-235 319.55,-161 319.55,-121 319.55,-74.65 319.55,-46.08"/>
<polygon fill="black" stroke="black" points="323.05,-46.05 319.55,-36.05 316.05,-46.05 323.05,-46.05"/>
</g>
<!-- pyogrio -->
<g id="node11" class="node">
<title>pyogrio</title>
<g id="a_node11"><a xlink:href="https://github.com/conda-forge/pyogrio-feedstock" xlink:title="pyogrio">
<ellipse fill="#fde725" stroke="black" cx="393.55" cy="-306" rx="46.29" ry="18"/>
<text text-anchor="middle" x="393.55" y="-302.3" font-family="Times,serif" font-size="14.00">pyogrio</text>
</a>
</g>
</g>
<!-- gdal&#45;&gt;pyogrio -->
<g id="edge8" class="edge">
<title>gdal&#45;&gt;pyogrio</title>
<path fill="none" stroke="black" d="M239.44,-367.27C268.76,-355.8 317.91,-336.58 352.81,-322.93"/>
<polygon fill="black" stroke="black" points="354.21,-326.14 362.25,-319.24 351.66,-319.62 354.21,-326.14"/>
</g>
<!-- libspatialite -->
<g id="node12" class="node">
<title>libspatialite</title>
<g id="a_node12"><a xlink:href="https://github.com/conda-forge/libspatialite-feedstock" xlink:title="libspatialite">
<ellipse fill="#fde725" stroke="black" cx="131.55" cy="-450" rx="65.79" ry="18"/>
<text text-anchor="middle" x="131.55" y="-446.3" font-family="Times,serif" font-size="14.00">libspatialite</text>
</a>
</g>
</g>
<!-- libspatialite&#45;&gt;gdal -->
<g id="edge9" class="edge">
<title>libspatialite&#45;&gt;gdal</title>
<path fill="none" stroke="black" d="M150.8,-432.76C162.43,-422.96 177.36,-410.36 189.85,-399.83"/>
<polygon fill="black" stroke="black" points="192.26,-402.37 197.65,-393.25 187.75,-397.02 192.26,-402.37"/>
</g>
<!-- libspatialite&#45;&gt;qgis -->
<g id="edge10" class="edge">
<title>libspatialite&#45;&gt;qgis</title>
<path fill="none" stroke="black" d="M119.56,-432.15C101.76,-407.12 68.23,-359.97 47.79,-331.24"/>
<polygon fill="black" stroke="black" points="50.54,-329.07 41.89,-322.95 44.84,-333.13 50.54,-329.07"/>
</g>
<!-- shapely -->
<g id="node13" class="node">
<title>shapely</title>
<g id="a_node13"><a xlink:href="https://github.com/conda-forge/shapely-feedstock" xlink:title="shapely">
<ellipse fill="#35b779" stroke="black" cx="605.55" cy="-306" rx="46.29" ry="18"/>
<text text-anchor="middle" x="605.55" y="-302.3" font-family="Times,serif" font-size="14.00">shapely</text>
</a>
</g>
</g>
<!-- shapely&#45;&gt;cartopy -->
<g id="edge11" class="edge">
<title>shapely&#45;&gt;cartopy</title>
<path fill="none" stroke="black" d="M605.55,-287.7C605.55,-279.98 605.55,-270.71 605.55,-262.11"/>
<polygon fill="black" stroke="black" points="609.05,-262.1 605.55,-252.1 602.05,-262.1 609.05,-262.1"/>
</g>
<!-- pygeos -->
<g id="node14" class="node">
<title>pygeos</title>
<g id="a_node14"><a xlink:href="https://github.com/conda-forge/pygeos-feedstock" xlink:title="pygeos">
<ellipse fill="#35b779" stroke="black" cx="393.55" cy="-378" rx="43.59" ry="18"/>
<text text-anchor="middle" x="393.55" y="-374.3" font-family="Times,serif" font-size="14.00">pygeos</text>
</a>
</g>
</g>
<!-- pygeos&#45;&gt;pyogrio -->
<g id="edge12" class="edge">
<title>pygeos&#45;&gt;pyogrio</title>
<path fill="none" stroke="black" d="M393.55,-359.7C393.55,-351.98 393.55,-342.71 393.55,-334.11"/>
<polygon fill="black" stroke="black" points="397.05,-334.1 393.55,-324.1 390.05,-334.1 397.05,-334.1"/>
</g>
<!-- librttopo -->
<g id="node15" class="node">
<title>librttopo</title>
<g id="a_node15"><a xlink:href="https://github.com/conda-forge/librttopo-feedstock" xlink:title="librttopo">
<ellipse fill="#35b779" stroke="black" cx="131.55" cy="-522" rx="51.5" ry="18"/>
<text text-anchor="middle" x="131.55" y="-518.3" font-family="Times,serif" font-size="14.00">librttopo</text>
</a>
</g>
</g>
<!-- librttopo&#45;&gt;libspatialite -->
<g id="edge13" class="edge">
<title>librttopo&#45;&gt;libspatialite</title>
<path fill="none" stroke="black" d="M131.55,-503.7C131.55,-495.98 131.55,-486.71 131.55,-478.11"/>
<polygon fill="black" stroke="black" points="135.05,-478.1 131.55,-468.1 128.05,-478.1 135.05,-478.1"/>
</g>
</g>
</svg>
