<?xml version="1.0" encoding="UTF-8" standalone="no"?>
<!DOCTYPE svg PUBLIC "-//W3C//DTD SVG 1.1//EN"
 "http://www.w3.org/Graphics/SVG/1.1/DTD/svg11.dtd">
<!-- Generated by graphviz version 4.0.0 (20220529.1859)
 -->
<!-- Pages: 1 -->
<svg width="1010pt" height="188pt"
 viewBox="0.00 0.00 1010.09 188.00" xmlns="http://www.w3.org/2000/svg" xmlns:xlink="http://www.w3.org/1999/xlink">
<g id="graph0" class="graph" transform="scale(1 1) rotate(0) translate(4 184)">
<polygon fill="white" stroke="transparent" points="-4,4 -4,-184 1006.09,-184 1006.09,4 -4,4"/>
<!-- basemap -->
<g id="node1" class="node">
<title>basemap</title>
<g id="a_node1"><a xlink:href="https://github.com/conda-forge/basemap-feedstock/pull/99" xlink:title="basemap ❎">
<ellipse fill="#31688e" stroke="black" cx="812.25" cy="-90" rx="66.09" ry="18"/>
<text text-anchor="middle" x="812.25" y="-86.3" font-family="Times,serif" font-size="14.00" fill="white">basemap ❎</text>
</a>
</g>
</g>
<!-- gdal -->
<g id="node2" class="node">
<title>gdal</title>
<g id="a_node2"><a xlink:href="https://github.com/conda-forge/gdal-feedstock/pull/638" xlink:title="gdal ❎">
<ellipse fill="#31688e" stroke="black" cx="307.25" cy="-162" rx="44.69" ry="18"/>
<text text-anchor="middle" x="307.25" y="-158.3" font-family="Times,serif" font-size="14.00" fill="white">gdal ❎</text>
</a>
</g>
</g>
<!-- gmt -->
<g id="node3" class="node">
<title>gmt</title>
<g id="a_node3"><a xlink:href="https://github.com/conda-forge/gmt-feedstock" xlink:title="gmt">
<ellipse fill="#fde725" stroke="black" cx="29.25" cy="-90" rx="29.5" ry="18"/>
<text text-anchor="middle" x="29.25" y="-86.3" font-family="Times,serif" font-size="14.00">gmt</text>
</a>
</g>
</g>
<!-- gdal&#45;&gt;gmt -->
<g id="edge1" class="edge">
<title>gdal&#45;&gt;gmt</title>
<path fill="none" stroke="black" d="M266.23,-154.56C217.89,-146.38 135.52,-130.55 67.25,-108 65.13,-107.3 62.97,-106.52 60.81,-105.69"/>
<polygon fill="black" stroke="black" points="62.03,-102.41 51.45,-101.84 59.37,-108.89 62.03,-102.41"/>
</g>
<!-- postgis -->
<g id="node4" class="node">
<title>postgis</title>
<g id="a_node4"><a xlink:href="https://github.com/conda-forge/postgis-feedstock" xlink:title="postgis">
<ellipse fill="#fde725" stroke="black" cx="120.25" cy="-90" rx="44.39" ry="18"/>
<text text-anchor="middle" x="120.25" y="-86.3" font-family="Times,serif" font-size="14.00">postgis</text>
</a>
</g>
</g>
<!-- gdal&#45;&gt;postgis -->
<g id="edge5" class="edge">
<title>gdal&#45;&gt;postgis</title>
<path fill="none" stroke="black" d="M275.53,-149.13C244.13,-137.37 195.92,-119.33 161.56,-106.46"/>
<polygon fill="black" stroke="black" points="162.4,-103.04 151.81,-102.82 159.95,-109.6 162.4,-103.04"/>
</g>
<!-- qgis -->
<g id="node5" class="node">
<title>qgis</title>
<g id="a_node5"><a xlink:href="https://github.com/conda-forge/qgis-feedstock" xlink:title="qgis">
<ellipse fill="#fde725" stroke="black" cx="213.25" cy="-90" rx="30.59" ry="18"/>
<text text-anchor="middle" x="213.25" y="-86.3" font-family="Times,serif" font-size="14.00">qgis</text>
</a>
</g>
</g>
<!-- gdal&#45;&gt;qgis -->
<g id="edge6" class="edge">
<title>gdal&#45;&gt;qgis</title>
<path fill="none" stroke="black" d="M286.85,-145.81C273.04,-135.53 254.66,-121.84 239.72,-110.71"/>
<polygon fill="black" stroke="black" points="241.49,-107.67 231.38,-104.5 237.31,-113.28 241.49,-107.67"/>
</g>
<!-- r&#45;exactextractr -->
<g id="node7" class="node">
<title>r&#45;exactextractr</title>
<g id="a_node7"><a xlink:href="https://github.com/conda-forge/r-exactextractr-feedstock" xlink:title="r exactextractr">
<ellipse fill="#fde725" stroke="black" cx="283.25" cy="-18" rx="80.69" ry="18"/>
<text text-anchor="middle" x="283.25" y="-14.3" font-family="Times,serif" font-size="14.00">r exactextractr</text>
</a>
</g>
</g>
<!-- gdal&#45;&gt;r&#45;exactextractr -->
<g id="edge8" class="edge">
<title>gdal&#45;&gt;r&#45;exactextractr</title>
<path fill="none" stroke="black" d="M301.16,-144.04C297.71,-133.74 293.62,-120.27 291.25,-108 287.29,-87.57 285.28,-64.11 284.27,-46.41"/>
<polygon fill="black" stroke="black" points="287.75,-46.02 283.76,-36.21 280.76,-46.37 287.75,-46.02"/>
</g>
<!-- omniscidb -->
<g id="node8" class="node">
<title>omniscidb</title>
<g id="a_node8"><a xlink:href="https://github.com/conda-forge/omniscidb-feedstock/pull/100" xlink:title="omniscidb ❎">
<ellipse fill="#31688e" stroke="black" cx="474.25" cy="-90" rx="72.29" ry="18"/>
<text text-anchor="middle" x="474.25" y="-86.3" font-family="Times,serif" font-size="14.00" fill="white">omniscidb ❎</text>
</a>
</g>
</g>
<!-- gdal&#45;&gt;omniscidb -->
<g id="edge4" class="edge">
<title>gdal&#45;&gt;omniscidb</title>
<path fill="none" stroke="black" d="M337.1,-148.49C362.73,-137.74 400.04,-122.1 429.28,-109.85"/>
<polygon fill="black" stroke="black" points="430.99,-112.93 438.86,-105.83 428.28,-106.47 430.99,-112.93"/>
</g>
<!-- r&#45;terra -->
<g id="node9" class="node">
<title>r&#45;terra</title>
<g id="a_node9"><a xlink:href="https://github.com/conda-forge/r-terra-feedstock" xlink:title="r terra">
<ellipse fill="#fde725" stroke="black" cx="342.25" cy="-90" rx="41.69" ry="18"/>
<text text-anchor="middle" x="342.25" y="-86.3" font-family="Times,serif" font-size="14.00">r terra</text>
</a>
</g>
</g>
<!-- gdal&#45;&gt;r&#45;terra -->
<g id="edge7" class="edge">
<title>gdal&#45;&gt;r&#45;terra</title>
<path fill="none" stroke="black" d="M315.72,-144.05C319.8,-135.89 324.79,-125.91 329.34,-116.82"/>
<polygon fill="black" stroke="black" points="332.51,-118.3 333.85,-107.79 326.25,-115.17 332.51,-118.3"/>
</g>
<!-- mapserver -->
<g id="node10" class="node">
<title>mapserver</title>
<g id="a_node10"><a xlink:href="https://github.com/conda-forge/mapserver-feedstock" xlink:title="mapserver">
<ellipse fill="#fde725" stroke="black" cx="625.25" cy="-90" rx="60.39" ry="18"/>
<text text-anchor="middle" x="625.25" y="-86.3" font-family="Times,serif" font-size="14.00">mapserver</text>
</a>
</g>
</g>
<!-- gdal&#45;&gt;mapserver -->
<g id="edge3" class="edge">
<title>gdal&#45;&gt;mapserver</title>
<path fill="none" stroke="black" d="M346.41,-152.98C395.35,-142.88 481.63,-124.8 555.25,-108 560.15,-106.88 565.24,-105.69 570.34,-104.49"/>
<polygon fill="black" stroke="black" points="571.19,-107.88 580.1,-102.16 569.57,-101.07 571.19,-107.88"/>
</g>
<!-- heavydb&#45;ext -->
<g id="node11" class="node">
<title>heavydb&#45;ext</title>
<g id="a_node11"><a xlink:href="https://github.com/conda-forge/heavydb-ext-feedstock/pull/8" xlink:title="heavydb ext ❎">
<ellipse fill="#31688e" stroke="black" cx="474.25" cy="-18" rx="81.49" ry="18"/>
<text text-anchor="middle" x="474.25" y="-14.3" font-family="Times,serif" font-size="14.00" fill="white">heavydb ext ❎</text>
</a>
</g>
</g>
<!-- gdal&#45;&gt;heavydb&#45;ext -->
<g id="edge2" class="edge">
<title>gdal&#45;&gt;heavydb&#45;ext</title>
<path fill="none" stroke="black" d="M352.44,-161.87C444.83,-162.59 650.34,-158.34 694.25,-108 738.01,-57.83 638.88,-35.54 559.8,-25.92"/>
<polygon fill="black" stroke="black" points="560.12,-22.43 549.78,-24.75 559.31,-29.38 560.12,-22.43"/>
</g>
<!-- pygeos -->
<g id="node6" class="node">
<title>pygeos</title>
<g id="a_node6"><a xlink:href="https://github.com/conda-forge/pygeos-feedstock/pull/53" xlink:title="pygeos ❎">
<ellipse fill="#31688e" stroke="black" cx="944.25" cy="-90" rx="57.69" ry="18"/>
<text text-anchor="middle" x="944.25" y="-86.3" font-family="Times,serif" font-size="14.00" fill="white">pygeos ❎</text>
</a>
</g>
</g>
<!-- omniscidb&#45;&gt;heavydb&#45;ext -->
<g id="edge9" class="edge">
<title>omniscidb&#45;&gt;heavydb&#45;ext</title>
<path fill="none" stroke="black" d="M468.37,-72.05C467.55,-64.35 467.31,-55.03 467.64,-46.36"/>
<polygon fill="black" stroke="black" points="471.14,-46.49 468.33,-36.28 464.16,-46.01 471.14,-46.49"/>
</g>
<!-- r&#45;terra&#45;&gt;r&#45;exactextractr -->
<g id="edge10" class="edge">
<title>r&#45;terra&#45;&gt;r&#45;exactextractr</title>
<path fill="none" stroke="black" d="M328.56,-72.76C321.33,-64.18 312.29,-53.46 304.2,-43.86"/>
<polygon fill="black" stroke="black" points="306.8,-41.51 297.68,-36.12 301.45,-46.03 306.8,-41.51"/>
</g>
<!-- heavydb&#45;ext&#45;&gt;omniscidb -->
<g id="edge11" class="edge">
<title>heavydb&#45;ext&#45;&gt;omniscidb</title>
<path fill="none" stroke="black" d="M480.16,-36.28C480.96,-44.03 481.19,-53.36 480.84,-62.01"/>
<polygon fill="black" stroke="black" points="477.34,-61.83 480.13,-72.05 484.32,-62.33 477.34,-61.83"/>
</g>
</g>
</svg>
