<?xml version="1.0" encoding="UTF-8" standalone="no"?>
<!DOCTYPE svg PUBLIC "-//W3C//DTD SVG 1.1//EN"
 "http://www.w3.org/Graphics/SVG/1.1/DTD/svg11.dtd">
<!-- Generated by graphviz version 4.0.0 (20220529.1859)
 -->
<!-- Pages: 1 -->
<svg width="689pt" height="404pt"
 viewBox="0.00 0.00 689.05 404.00" xmlns="http://www.w3.org/2000/svg" xmlns:xlink="http://www.w3.org/1999/xlink">
<g id="graph0" class="graph" transform="scale(1 1) rotate(0) translate(4 400)">
<polygon fill="white" stroke="transparent" points="-4,4 -4,-400 685.05,-400 685.05,4 -4,4"/>
<!-- basemap -->
<g id="node1" class="node">
<title>basemap</title>
<g id="a_node1"><a xlink:href="https://github.com/conda-forge/basemap-feedstock/pull/99" xlink:title="basemap ❎">
<ellipse fill="#31688e" stroke="black" cx="614.55" cy="-306" rx="66.5" ry="18"/>
<text text-anchor="middle" x="614.55" y="-302.3" font-family="Times,serif" font-size="14.00" fill="white">basemap ❎</text>
</a>
</g>
</g>
<!-- cartopy -->
<g id="node2" class="node">
<title>cartopy</title>
<g id="a_node2"><a xlink:href="https://github.com/conda-forge/cartopy-feedstock/pull/144" xlink:title="cartopy ❎">
<ellipse fill="#31688e" stroke="black" cx="614.55" cy="-234" rx="60" ry="18"/>
<text text-anchor="middle" x="614.55" y="-230.3" font-family="Times,serif" font-size="14.00" fill="white">cartopy ❎</text>
</a>
</g>
</g>
<!-- basemap&#45;&gt;cartopy -->
<!-- r&#45;rgeos -->
<g id="node3" class="node">
<title>r&#45;rgeos</title>
<g id="a_node3"><a xlink:href="https://github.com/conda-forge/r-rgeos-feedstock/pull/34" xlink:title="r rgeos ✓">
<ellipse fill="#31688e" stroke="black" cx="614.55" cy="-162" rx="51.5" ry="18"/>
<text text-anchor="middle" x="614.55" y="-158.3" font-family="Times,serif" font-size="14.00" fill="white">r rgeos ✓</text>
</a>
</g>
</g>
<!-- cartopy&#45;&gt;r&#45;rgeos -->
<!-- pygeos -->
<g id="node14" class="node">
<title>pygeos</title>
<g id="a_node14"><a xlink:href="https://github.com/conda-forge/pygeos-feedstock/pull/53" xlink:title="pygeos ❎">
<ellipse fill="#31688e" stroke="black" cx="614.55" cy="-90" rx="58" ry="18"/>
<text text-anchor="middle" x="614.55" y="-86.3" font-family="Times,serif" font-size="14.00" fill="white">pygeos ❎</text>
</a>
</g>
</g>
<!-- r&#45;rgeos&#45;&gt;pygeos -->
<!-- gdal -->
<g id="node4" class="node">
<title>gdal</title>
<g id="a_node4"><a xlink:href="https://github.com/conda-forge/gdal-feedstock" xlink:title="gdal">
<ellipse fill="#fde725" stroke="black" cx="203.55" cy="-306" rx="30.59" ry="18"/>
<text text-anchor="middle" x="203.55" y="-302.3" font-family="Times,serif" font-size="14.00">gdal</text>
</a>
</g>
</g>
<!-- gmt -->
<g id="node5" class="node">
<title>gmt</title>
<g id="a_node5"><a xlink:href="https://github.com/conda-forge/gmt-feedstock" xlink:title="gmt">
<ellipse fill="#fde725" stroke="black" cx="108.55" cy="-234" rx="29.5" ry="18"/>
<text text-anchor="middle" x="108.55" y="-230.3" font-family="Times,serif" font-size="14.00">gmt</text>
</a>
</g>
</g>
<!-- gdal&#45;&gt;gmt -->
<g id="edge3" class="edge">
<title>gdal&#45;&gt;gmt</title>
<path fill="none" stroke="black" d="M185.23,-291.5C170.95,-280.98 150.91,-266.22 134.9,-254.42"/>
<polygon fill="black" stroke="black" points="136.61,-251.33 126.49,-248.22 132.46,-256.97 136.61,-251.33"/>
</g>
<!-- postgis -->
<g id="node6" class="node">
<title>postgis</title>
<g id="a_node6"><a xlink:href="https://github.com/conda-forge/postgis-feedstock" xlink:title="postgis">
<ellipse fill="#fde725" stroke="black" cx="131.55" cy="-162" rx="44.39" ry="18"/>
<text text-anchor="middle" x="131.55" y="-158.3" font-family="Times,serif" font-size="14.00">postgis</text>
</a>
</g>
</g>
<!-- gdal&#45;&gt;postgis -->
<g id="edge4" class="edge">
<title>gdal&#45;&gt;postgis</title>
<path fill="none" stroke="black" d="M195.15,-288.43C182.75,-263.98 159.44,-218 144.74,-189.02"/>
<polygon fill="black" stroke="black" points="147.76,-187.24 140.12,-179.9 141.52,-190.4 147.76,-187.24"/>
</g>
<!-- qgis -->
<g id="node7" class="node">
<title>qgis</title>
<g id="a_node7"><a xlink:href="https://github.com/conda-forge/qgis-feedstock" xlink:title="qgis">
<ellipse fill="#fde725" stroke="black" cx="30.55" cy="-234" rx="30.59" ry="18"/>
<text text-anchor="middle" x="30.55" y="-230.3" font-family="Times,serif" font-size="14.00">qgis</text>
</a>
</g>
</g>
<!-- gdal&#45;&gt;qgis -->
<g id="edge5" class="edge">
<title>gdal&#45;&gt;qgis</title>
<path fill="none" stroke="black" d="M178.48,-295.2C151.69,-284.69 108.01,-267.42 70.55,-252 68.37,-251.1 66.13,-250.17 63.87,-249.23"/>
<polygon fill="black" stroke="black" points="65.2,-245.99 54.62,-245.34 62.48,-252.44 65.2,-245.99"/>
</g>
<!-- r&#45;exactextractr -->
<g id="node8" class="node">
<title>r&#45;exactextractr</title>
<g id="a_node8"><a xlink:href="https://github.com/conda-forge/r-exactextractr-feedstock" xlink:title="r exactextractr">
<ellipse fill="#fde725" stroke="black" cx="262.55" cy="-18" rx="80.69" ry="18"/>
<text text-anchor="middle" x="262.55" y="-14.3" font-family="Times,serif" font-size="14.00">r exactextractr</text>
</a>
</g>
</g>
<!-- gdal&#45;&gt;r&#45;exactextractr -->
<g id="edge6" class="edge">
<title>gdal&#45;&gt;r&#45;exactextractr</title>
<path fill="none" stroke="black" d="M205.2,-287.94C208.23,-258.4 215.42,-195.9 226.55,-144 233.91,-109.65 245.62,-70.89 253.67,-45.76"/>
<polygon fill="black" stroke="black" points="257.02,-46.79 256.77,-36.2 250.36,-44.63 257.02,-46.79"/>
</g>
<!-- omniscidb -->
<g id="node9" class="node">
<title>omniscidb</title>
<g id="a_node9"><a xlink:href="https://github.com/conda-forge/omniscidb-feedstock/pull/100" xlink:title="omniscidb ❎">
<ellipse fill="#31688e" stroke="black" cx="303.55" cy="-234" rx="72.29" ry="18"/>
<text text-anchor="middle" x="303.55" y="-230.3" font-family="Times,serif" font-size="14.00" fill="white">omniscidb ❎</text>
</a>
</g>
</g>
<!-- gdal&#45;&gt;omniscidb -->
<g id="edge7" class="edge">
<title>gdal&#45;&gt;omniscidb</title>
<path fill="none" stroke="black" d="M222.83,-291.5C236.72,-281.78 255.77,-268.45 271.87,-257.17"/>
<polygon fill="black" stroke="black" points="274.28,-259.76 280.46,-251.16 270.26,-254.03 274.28,-259.76"/>
</g>
<!-- r&#45;terra -->
<g id="node10" class="node">
<title>r&#45;terra</title>
<g id="a_node10"><a xlink:href="https://github.com/conda-forge/r-terra-feedstock" xlink:title="r terra">
<ellipse fill="#fde725" stroke="black" cx="365.55" cy="-90" rx="41.69" ry="18"/>
<text text-anchor="middle" x="365.55" y="-86.3" font-family="Times,serif" font-size="14.00">r terra</text>
</a>
</g>
</g>
<!-- gdal&#45;&gt;r&#45;terra -->
<g id="edge8" class="edge">
<title>gdal&#45;&gt;r&#45;terra</title>
<path fill="none" stroke="black" d="M233.47,-301.46C283.83,-294.83 382.01,-278.72 402.55,-252 433.51,-211.71 403.9,-150.08 382.72,-115.94"/>
<polygon fill="black" stroke="black" points="385.64,-114.01 377.29,-107.48 379.75,-117.79 385.64,-114.01"/>
</g>
<!-- mapserver -->
<g id="node11" class="node">
<title>mapserver</title>
<g id="a_node11"><a xlink:href="https://github.com/conda-forge/mapserver-feedstock" xlink:title="mapserver">
<ellipse fill="#fde725" stroke="black" cx="479.55" cy="-18" rx="60.5" ry="18"/>
<text text-anchor="middle" x="479.55" y="-14.3" font-family="Times,serif" font-size="14.00">mapserver</text>
</a>
</g>
</g>
<!-- gdal&#45;&gt;mapserver -->
<g id="edge9" class="edge">
<title>gdal&#45;&gt;mapserver</title>
<path fill="none" stroke="black" d="M233.34,-301.67C287.04,-295.06 396.95,-278.61 423.55,-252 479.46,-196.06 483.21,-94.7 481.44,-46.23"/>
<polygon fill="black" stroke="black" points="484.93,-46.01 480.96,-36.19 477.94,-46.34 484.93,-46.01"/>
</g>
<!-- heavydb&#45;ext -->
<g id="node12" class="node">
<title>heavydb&#45;ext</title>
<g id="a_node12"><a xlink:href="https://github.com/conda-forge/heavydb-ext-feedstock" xlink:title="heavydb ext">
<ellipse fill="#35b779" stroke="black" cx="303.55" cy="-162" rx="67.69" ry="18"/>
<text text-anchor="middle" x="303.55" y="-158.3" font-family="Times,serif" font-size="14.00">heavydb ext</text>
</a>
</g>
</g>
<!-- gdal&#45;&gt;heavydb&#45;ext -->
<g id="edge10" class="edge">
<title>gdal&#45;&gt;heavydb&#45;ext</title>
<path fill="none" stroke="black" d="M233.02,-300.69C279.48,-293.21 366.34,-276.31 384.55,-252 394.14,-239.19 392.16,-230.07 384.55,-216 376.74,-201.57 363.11,-190.44 349.24,-182.19"/>
<polygon fill="black" stroke="black" points="350.59,-178.94 340.14,-177.18 347.21,-185.07 350.59,-178.94"/>
</g>
<!-- omniscidb&#45;&gt;heavydb&#45;ext -->
<g id="edge11" class="edge">
<title>omniscidb&#45;&gt;heavydb&#45;ext</title>
<path fill="none" stroke="black" d="M297.67,-216.05C296.85,-208.35 296.61,-199.03 296.94,-190.36"/>
<polygon fill="black" stroke="black" points="300.44,-190.49 297.63,-180.28 293.46,-190.01 300.44,-190.49"/>
</g>
<!-- r&#45;terra&#45;&gt;r&#45;exactextractr -->
<g id="edge12" class="edge">
<title>r&#45;terra&#45;&gt;r&#45;exactextractr</title>
<path fill="none" stroke="black" d="M344.21,-74.5C329.99,-64.83 311.03,-51.95 294.96,-41.03"/>
<polygon fill="black" stroke="black" points="296.62,-37.92 286.38,-35.2 292.69,-43.71 296.62,-37.92"/>
</g>
<!-- heavydb&#45;ext&#45;&gt;omniscidb -->
<g id="edge13" class="edge">
<title>heavydb&#45;ext&#45;&gt;omniscidb</title>
<path fill="none" stroke="black" d="M309.46,-180.28C310.26,-188.03 310.49,-197.36 310.14,-206.01"/>
<polygon fill="black" stroke="black" points="306.64,-205.83 309.43,-216.05 313.62,-206.33 306.64,-205.83"/>
</g>
<!-- libspatialite -->
<g id="node13" class="node">
<title>libspatialite</title>
<g id="a_node13"><a xlink:href="https://github.com/conda-forge/libspatialite-feedstock" xlink:title="libspatialite">
<ellipse fill="#35b779" stroke="black" cx="116.55" cy="-378" rx="65.79" ry="18"/>
<text text-anchor="middle" x="116.55" y="-374.3" font-family="Times,serif" font-size="14.00">libspatialite</text>
</a>
</g>
</g>
<!-- libspatialite&#45;&gt;gdal -->
<g id="edge14" class="edge">
<title>libspatialite&#45;&gt;gdal</title>
<path fill="none" stroke="black" d="M136.73,-360.76C149.11,-350.8 165.08,-337.95 178.3,-327.31"/>
<polygon fill="black" stroke="black" points="180.53,-330.01 186.12,-321.02 176.14,-324.56 180.53,-330.01"/>
</g>
<!-- libspatialite&#45;&gt;qgis -->
<g id="edge15" class="edge">
<title>libspatialite&#45;&gt;qgis</title>
<path fill="none" stroke="black" d="M106.34,-360.15C91.33,-335.36 63.18,-288.88 45.73,-260.07"/>
<polygon fill="black" stroke="black" points="48.65,-258.13 40.47,-251.39 42.66,-261.75 48.65,-258.13"/>
</g>
</g>
</svg>
