<?xml version="1.0" encoding="UTF-8" standalone="no"?>
<!DOCTYPE svg PUBLIC "-//W3C//DTD SVG 1.1//EN"
 "http://www.w3.org/Graphics/SVG/1.1/DTD/svg11.dtd">
<!-- Generated by graphviz version 2.42.3 (20191010.1750)
 -->
<!-- Title: %3 Pages: 1 -->
<svg width="1621pt" height="592pt"
 viewBox="0.00 0.00 1621.18 592.00" xmlns="http://www.w3.org/2000/svg" xmlns:xlink="http://www.w3.org/1999/xlink">
<g id="graph0" class="graph" transform="scale(1 1) rotate(0) translate(4 588)">
<title>%3</title>
<polygon fill="white" stroke="transparent" points="-4,4 -4,-588 1617.18,-588 1617.18,4 -4,4"/>
<!-- cyclus -->
<g id="node1" class="node">
<title>cyclus</title>
<g id="a_node1"><a xlink:href="https://github.com/conda-forge/cyclus-feedstock/pull/59" xlink:title="cyclus ❎">
<ellipse fill="#31688e" stroke="black" cx="1354.68" cy="-530" rx="45" ry="18"/>
<text text-anchor="middle" x="1354.68" y="-526.3" font-family="Times,serif" font-size="14.00" fill="white">cyclus ❎</text>
</a>
</g>
</g>
<!-- magics -->
<g id="node2" class="node">
<title>magics</title>
<g id="a_node2"><a xlink:href="https://github.com/conda-forge/magics-feedstock/pull/84" xlink:title="magics ❎">
<ellipse fill="#31688e" stroke="black" cx="1354.68" cy="-458" rx="48.19" ry="18"/>
<text text-anchor="middle" x="1354.68" y="-454.3" font-family="Times,serif" font-size="14.00" fill="white">magics ❎</text>
</a>
</g>
</g>
<!-- cyclus&#45;&gt;magics -->
<!-- r&#45;base -->
<g id="node19" class="node">
<title>r&#45;base</title>
<g id="a_node19"><a xlink:href="https://github.com/conda-forge/r-base-feedstock" xlink:title="r base">
<ellipse fill="#ff8c00" stroke="black" cx="1354.68" cy="-386" rx="32" ry="18"/>
<text text-anchor="middle" x="1354.68" y="-382.3" font-family="Times,serif" font-size="14.00">r base</text>
</a>
</g>
</g>
<!-- magics&#45;&gt;r&#45;base -->
<!-- emacs -->
<g id="node3" class="node">
<title>emacs</title>
<g id="a_node3"><a xlink:href="https://github.com/conda-forge/emacs-feedstock" xlink:title="emacs">
<ellipse fill="#fde725" stroke="black" cx="51.68" cy="-422" rx="33.29" ry="18"/>
<text text-anchor="middle" x="51.68" y="-418.3" font-family="Times,serif" font-size="14.00">emacs</text>
</a>
</g>
</g>
<!-- gdk&#45;pixbuf -->
<g id="node4" class="node">
<title>gdk&#45;pixbuf</title>
<g id="a_node4"><a xlink:href="https://github.com/conda-forge/gdk-pixbuf-feedstock/pull/30" xlink:title="gdk pixbuf ✓">
<ellipse fill="#31688e" stroke="black" cx="398.68" cy="-566" rx="60" ry="18"/>
<text text-anchor="middle" x="398.68" y="-562.3" font-family="Times,serif" font-size="14.00" fill="white">gdk pixbuf ✓</text>
</a>
</g>
</g>
<!-- imagemagick -->
<g id="node5" class="node">
<title>imagemagick</title>
<g id="a_node5"><a xlink:href="https://github.com/conda-forge/imagemagick-feedstock" xlink:title="imagemagick">
<ellipse fill="#fde725" stroke="black" cx="199.68" cy="-422" rx="59.29" ry="18"/>
<text text-anchor="middle" x="199.68" y="-418.3" font-family="Times,serif" font-size="14.00">imagemagick</text>
</a>
</g>
</g>
<!-- gdk&#45;pixbuf&#45;&gt;imagemagick -->
<g id="edge2" class="edge">
<title>gdk&#45;pixbuf&#45;&gt;imagemagick</title>
<path fill="none" stroke="black" d="M349.96,-555.34C320.26,-547.54 282.91,-534.12 255.68,-512 235.19,-495.36 219.98,-469.13 210.62,-449.45"/>
<polygon fill="black" stroke="black" points="213.7,-447.77 206.38,-440.11 207.33,-450.66 213.7,-447.77"/>
</g>
<!-- librsvg -->
<g id="node6" class="node">
<title>librsvg</title>
<g id="a_node6"><a xlink:href="https://github.com/conda-forge/librsvg-feedstock" xlink:title="librsvg">
<ellipse fill="#fde725" stroke="black" cx="128.68" cy="-494" rx="35.19" ry="18"/>
<text text-anchor="middle" x="128.68" y="-490.3" font-family="Times,serif" font-size="14.00">librsvg</text>
</a>
</g>
</g>
<!-- gdk&#45;pixbuf&#45;&gt;librsvg -->
<g id="edge3" class="edge">
<title>gdk&#45;pixbuf&#45;&gt;librsvg</title>
<path fill="none" stroke="black" d="M354.69,-553.6C303.25,-540.26 218.79,-518.36 168.98,-505.45"/>
<polygon fill="black" stroke="black" points="169.76,-502.04 159.2,-502.92 168.01,-508.81 169.76,-502.04"/>
</g>
<!-- gtk2 -->
<g id="node7" class="node">
<title>gtk2</title>
<g id="a_node7"><a xlink:href="https://github.com/conda-forge/gtk2-feedstock" xlink:title="gtk2">
<ellipse fill="#fde725" stroke="black" cx="421.68" cy="-494" rx="27" ry="18"/>
<text text-anchor="middle" x="421.68" y="-490.3" font-family="Times,serif" font-size="14.00">gtk2</text>
</a>
</g>
</g>
<!-- gdk&#45;pixbuf&#45;&gt;gtk2 -->
<g id="edge4" class="edge">
<title>gdk&#45;pixbuf&#45;&gt;gtk2</title>
<path fill="none" stroke="black" d="M404.24,-548.05C406.87,-540.06 410.07,-530.33 413,-521.4"/>
<polygon fill="black" stroke="black" points="416.36,-522.38 416.16,-511.79 409.71,-520.2 416.36,-522.38"/>
</g>
<!-- openslide -->
<g id="node8" class="node">
<title>openslide</title>
<g id="a_node8"><a xlink:href="https://github.com/conda-forge/openslide-feedstock" xlink:title="openslide">
<ellipse fill="#fde725" stroke="black" cx="308.68" cy="-494" rx="44.39" ry="18"/>
<text text-anchor="middle" x="308.68" y="-490.3" font-family="Times,serif" font-size="14.00">openslide</text>
</a>
</g>
</g>
<!-- gdk&#45;pixbuf&#45;&gt;openslide -->
<g id="edge5" class="edge">
<title>gdk&#45;pixbuf&#45;&gt;openslide</title>
<path fill="none" stroke="black" d="M377.8,-548.76C365.42,-539.13 349.57,-526.81 336.17,-516.39"/>
<polygon fill="black" stroke="black" points="338.25,-513.57 328.2,-510.19 333.95,-519.09 338.25,-513.57"/>
</g>
<!-- libvips -->
<g id="node9" class="node">
<title>libvips</title>
<g id="a_node9"><a xlink:href="https://github.com/conda-forge/libvips-feedstock" xlink:title="libvips">
<ellipse fill="#fde725" stroke="black" cx="199.68" cy="-350" rx="34.5" ry="18"/>
<text text-anchor="middle" x="199.68" y="-346.3" font-family="Times,serif" font-size="14.00">libvips</text>
</a>
</g>
</g>
<!-- gdk&#45;pixbuf&#45;&gt;libvips -->
<g id="edge6" class="edge">
<title>gdk&#45;pixbuf&#45;&gt;libvips</title>
<path fill="none" stroke="black" d="M338.44,-565.2C272.73,-563.13 166.04,-552.93 84.68,-512 43.4,-491.23 27.79,-482.51 9.68,-440 3.4,-425.28 0,-416.74 9.68,-404 27.35,-380.72 105.97,-364.91 156.37,-356.97"/>
<polygon fill="black" stroke="black" points="157,-360.42 166.36,-355.44 155.94,-353.5 157,-360.42"/>
</g>
<!-- gtk3 -->
<g id="node10" class="node">
<title>gtk3</title>
<g id="a_node10"><a xlink:href="https://github.com/conda-forge/gtk3-feedstock" xlink:title="gtk3">
<ellipse fill="#fde725" stroke="black" cx="721.68" cy="-494" rx="27" ry="18"/>
<text text-anchor="middle" x="721.68" y="-490.3" font-family="Times,serif" font-size="14.00">gtk3</text>
</a>
</g>
</g>
<!-- gdk&#45;pixbuf&#45;&gt;gtk3 -->
<g id="edge7" class="edge">
<title>gdk&#45;pixbuf&#45;&gt;gtk3</title>
<path fill="none" stroke="black" d="M451.86,-557.49C508.07,-548.94 599.03,-533.34 675.68,-512 680.13,-510.76 684.77,-509.28 689.31,-507.72"/>
<polygon fill="black" stroke="black" points="690.77,-510.91 698.99,-504.23 688.39,-504.33 690.77,-510.91"/>
</g>
<!-- gtkmm -->
<g id="node11" class="node">
<title>gtkmm</title>
<g id="a_node11"><a xlink:href="https://github.com/conda-forge/gtkmm-feedstock" xlink:title="gtkmm">
<ellipse fill="#fde725" stroke="black" cx="618.68" cy="-422" rx="36.5" ry="18"/>
<text text-anchor="middle" x="618.68" y="-418.3" font-family="Times,serif" font-size="14.00">gtkmm</text>
</a>
</g>
</g>
<!-- gdk&#45;pixbuf&#45;&gt;gtkmm -->
<g id="edge8" class="edge">
<title>gdk&#45;pixbuf&#45;&gt;gtkmm</title>
<path fill="none" stroke="black" d="M423.06,-549.26C463.67,-523.05 545.02,-470.54 588.93,-442.2"/>
<polygon fill="black" stroke="black" points="590.95,-445.06 597.45,-436.7 587.15,-439.18 590.95,-445.06"/>
</g>
<!-- wxwidgets -->
<g id="node12" class="node">
<title>wxwidgets</title>
<g id="a_node12"><a xlink:href="https://github.com/conda-forge/wxwidgets-feedstock" xlink:title="wxwidgets">
<ellipse fill="#fde725" stroke="black" cx="721.68" cy="-422" rx="48.99" ry="18"/>
<text text-anchor="middle" x="721.68" y="-418.3" font-family="Times,serif" font-size="14.00">wxwidgets</text>
</a>
</g>
</g>
<!-- gdk&#45;pixbuf&#45;&gt;wxwidgets -->
<g id="edge9" class="edge">
<title>gdk&#45;pixbuf&#45;&gt;wxwidgets</title>
<path fill="none" stroke="black" d="M431.9,-550.98C456.9,-540.38 492,-525.41 522.68,-512 578.53,-487.57 642.89,-458.65 682.93,-440.56"/>
<polygon fill="black" stroke="black" points="684.4,-443.73 692.07,-436.42 681.52,-437.35 684.4,-443.73"/>
</g>
<!-- imagemagick&#45;&gt;libvips -->
<g id="edge10" class="edge">
<title>imagemagick&#45;&gt;libvips</title>
<path fill="none" stroke="black" d="M199.68,-403.7C199.68,-395.98 199.68,-386.71 199.68,-378.11"/>
<polygon fill="black" stroke="black" points="203.18,-378.1 199.68,-368.1 196.18,-378.1 203.18,-378.1"/>
</g>
<!-- librsvg&#45;&gt;emacs -->
<g id="edge11" class="edge">
<title>librsvg&#45;&gt;emacs</title>
<path fill="none" stroke="black" d="M111.97,-477.81C101.4,-468.21 87.57,-455.63 75.82,-444.95"/>
<polygon fill="black" stroke="black" points="77.84,-442.06 68.09,-437.92 73.13,-447.24 77.84,-442.06"/>
</g>
<!-- librsvg&#45;&gt;imagemagick -->
<g id="edge12" class="edge">
<title>librsvg&#45;&gt;imagemagick</title>
<path fill="none" stroke="black" d="M144.08,-477.81C153.34,-468.69 165.31,-456.88 175.77,-446.57"/>
<polygon fill="black" stroke="black" points="178.4,-448.89 183.06,-439.38 173.48,-443.91 178.4,-448.89"/>
</g>
<!-- librsvg&#45;&gt;libvips -->
<g id="edge13" class="edge">
<title>librsvg&#45;&gt;libvips</title>
<path fill="none" stroke="black" d="M125.15,-475.87C122.2,-457.13 120.09,-426.73 131.68,-404 139.31,-389.01 153.35,-376.97 166.69,-368.17"/>
<polygon fill="black" stroke="black" points="168.62,-371.1 175.29,-362.87 164.94,-365.14 168.62,-371.1"/>
</g>
<!-- gtk2&#45;&gt;imagemagick -->
<g id="edge14" class="edge">
<title>gtk2&#45;&gt;imagemagick</title>
<path fill="none" stroke="black" d="M397.49,-485.38C362,-474.18 295.03,-453.07 248.91,-438.53"/>
<polygon fill="black" stroke="black" points="249.71,-435.11 239.12,-435.44 247.6,-441.78 249.71,-435.11"/>
</g>
<!-- gnuplot -->
<g id="node13" class="node">
<title>gnuplot</title>
<g id="a_node13"><a xlink:href="https://github.com/conda-forge/gnuplot-feedstock" xlink:title="gnuplot">
<ellipse fill="#fde725" stroke="black" cx="466.68" cy="-422" rx="37.89" ry="18"/>
<text text-anchor="middle" x="466.68" y="-418.3" font-family="Times,serif" font-size="14.00">gnuplot</text>
</a>
</g>
</g>
<!-- gtk2&#45;&gt;gnuplot -->
<g id="edge15" class="edge">
<title>gtk2&#45;&gt;gnuplot</title>
<path fill="none" stroke="black" d="M431.89,-477.12C437.45,-468.47 444.45,-457.58 450.71,-447.83"/>
<polygon fill="black" stroke="black" points="453.73,-449.61 456.19,-439.31 447.84,-445.83 453.73,-449.61"/>
</g>
<!-- wxpython -->
<g id="node14" class="node">
<title>wxpython</title>
<g id="a_node14"><a xlink:href="https://github.com/conda-forge/wxpython-feedstock" xlink:title="wxpython">
<ellipse fill="#fde725" stroke="black" cx="532.68" cy="-350" rx="46.29" ry="18"/>
<text text-anchor="middle" x="532.68" y="-346.3" font-family="Times,serif" font-size="14.00">wxpython</text>
</a>
</g>
</g>
<!-- gtk2&#45;&gt;wxpython -->
<g id="edge16" class="edge">
<title>gtk2&#45;&gt;wxpython</title>
<path fill="none" stroke="black" d="M445.9,-485.39C467.07,-477.47 496.97,-462.95 513.68,-440 526.72,-422.08 531.17,-397.09 532.53,-378.14"/>
<polygon fill="black" stroke="black" points="536.03,-378.21 533.01,-368.06 529.04,-377.88 536.03,-378.21"/>
</g>
<!-- openslide&#45;&gt;libvips -->
<g id="edge17" class="edge">
<title>openslide&#45;&gt;libvips</title>
<path fill="none" stroke="black" d="M303.54,-475.94C297.25,-456.98 285.22,-426.13 267.68,-404 257.25,-390.85 242.91,-379.05 230.09,-369.94"/>
<polygon fill="black" stroke="black" points="231.75,-366.84 221.52,-364.08 227.8,-372.62 231.75,-366.84"/>
</g>
<!-- gtk3&#45;&gt;gtkmm -->
<g id="edge18" class="edge">
<title>gtk3&#45;&gt;gtkmm</title>
<path fill="none" stroke="black" d="M703.26,-480.49C687.85,-470.01 665.57,-454.87 647.75,-442.76"/>
<polygon fill="black" stroke="black" points="649.65,-439.82 639.41,-437.09 645.71,-445.61 649.65,-439.82"/>
</g>
<!-- gtk3&#45;&gt;wxwidgets -->
<g id="edge19" class="edge">
<title>gtk3&#45;&gt;wxwidgets</title>
<path fill="none" stroke="black" d="M721.68,-475.7C721.68,-467.98 721.68,-458.71 721.68,-450.11"/>
<polygon fill="black" stroke="black" points="725.18,-450.1 721.68,-440.1 718.18,-450.1 725.18,-450.1"/>
</g>
<!-- pygobject -->
<g id="node15" class="node">
<title>pygobject</title>
<g id="a_node15"><a xlink:href="https://github.com/conda-forge/pygobject-feedstock" xlink:title="pygobject">
<ellipse fill="#fde725" stroke="black" cx="883.68" cy="-422" rx="45.5" ry="18"/>
<text text-anchor="middle" x="883.68" y="-418.3" font-family="Times,serif" font-size="14.00">pygobject</text>
</a>
</g>
</g>
<!-- gtk3&#45;&gt;pygobject -->
<g id="edge20" class="edge">
<title>gtk3&#45;&gt;pygobject</title>
<path fill="none" stroke="black" d="M743.86,-483.41C769.78,-472.22 813.12,-453.49 844.69,-439.85"/>
<polygon fill="black" stroke="black" points="846.28,-442.97 854.08,-435.79 843.51,-436.54 846.28,-442.97"/>
</g>
<!-- stoken -->
<g id="node16" class="node">
<title>stoken</title>
<g id="a_node16"><a xlink:href="https://github.com/conda-forge/stoken-feedstock" xlink:title="stoken">
<ellipse fill="#fde725" stroke="black" cx="981.68" cy="-422" rx="34" ry="18"/>
<text text-anchor="middle" x="981.68" y="-418.3" font-family="Times,serif" font-size="14.00">stoken</text>
</a>
</g>
</g>
<!-- gtk3&#45;&gt;stoken -->
<g id="edge21" class="edge">
<title>gtk3&#45;&gt;stoken</title>
<path fill="none" stroke="black" d="M747.38,-487.91C788.32,-479.55 870.68,-461.63 938.68,-440 941.24,-439.18 943.87,-438.29 946.51,-437.35"/>
<polygon fill="black" stroke="black" points="947.81,-440.6 955.96,-433.83 945.37,-434.04 947.81,-440.6"/>
</g>
<!-- cadabra2 -->
<g id="node17" class="node">
<title>cadabra2</title>
<g id="a_node17"><a xlink:href="https://github.com/conda-forge/cadabra2-feedstock" xlink:title="cadabra2">
<ellipse fill="#fde725" stroke="black" cx="638.68" cy="-350" rx="42.49" ry="18"/>
<text text-anchor="middle" x="638.68" y="-346.3" font-family="Times,serif" font-size="14.00">cadabra2</text>
</a>
</g>
</g>
<!-- gtkmm&#45;&gt;cadabra2 -->
<g id="edge22" class="edge">
<title>gtkmm&#45;&gt;cadabra2</title>
<path fill="none" stroke="black" d="M623.52,-404.05C625.74,-396.26 628.44,-386.82 630.94,-378.08"/>
<polygon fill="black" stroke="black" points="634.36,-378.85 633.74,-368.28 627.63,-376.93 634.36,-378.85"/>
</g>
<!-- octave -->
<g id="node18" class="node">
<title>octave</title>
<g id="a_node18"><a xlink:href="https://github.com/conda-forge/octave-feedstock" xlink:title="octave">
<ellipse fill="#fde725" stroke="black" cx="434.68" cy="-350" rx="34" ry="18"/>
<text text-anchor="middle" x="434.68" y="-346.3" font-family="Times,serif" font-size="14.00">octave</text>
</a>
</g>
</g>
<!-- gnuplot&#45;&gt;octave -->
<g id="edge23" class="edge">
<title>gnuplot&#45;&gt;octave</title>
<path fill="none" stroke="black" d="M458.93,-404.05C455.23,-395.97 450.73,-386.12 446.61,-377.11"/>
<polygon fill="black" stroke="black" points="449.69,-375.43 442.35,-367.79 443.32,-378.34 449.69,-375.43"/>
</g>
<!-- numcosmo -->
<g id="node22" class="node">
<title>numcosmo</title>
<g id="a_node22"><a xlink:href="https://github.com/conda-forge/numcosmo-feedstock" xlink:title="numcosmo">
<ellipse fill="#fde725" stroke="black" cx="786.68" cy="-350" rx="50.09" ry="18"/>
<text text-anchor="middle" x="786.68" y="-346.3" font-family="Times,serif" font-size="14.00">numcosmo</text>
</a>
</g>
</g>
<!-- pygobject&#45;&gt;numcosmo -->
<g id="edge27" class="edge">
<title>pygobject&#45;&gt;numcosmo</title>
<path fill="none" stroke="black" d="M862.63,-405.81C849.12,-396.06 831.38,-383.26 816.44,-372.48"/>
<polygon fill="black" stroke="black" points="818.17,-369.41 808.02,-366.4 814.08,-375.09 818.17,-369.41"/>
</g>
<!-- gst&#45;python -->
<g id="node23" class="node">
<title>gst&#45;python</title>
<g id="a_node23"><a xlink:href="https://github.com/conda-forge/gst-python-feedstock" xlink:title="gst python">
<ellipse fill="#fde725" stroke="black" cx="978.68" cy="-350" rx="48.19" ry="18"/>
<text text-anchor="middle" x="978.68" y="-346.3" font-family="Times,serif" font-size="14.00">gst python</text>
</a>
</g>
</g>
<!-- pygobject&#45;&gt;gst&#45;python -->
<g id="edge28" class="edge">
<title>pygobject&#45;&gt;gst&#45;python</title>
<path fill="none" stroke="black" d="M904.29,-405.81C917.52,-396.06 934.9,-383.26 949.53,-372.48"/>
<polygon fill="black" stroke="black" points="951.8,-375.15 957.77,-366.4 947.65,-369.52 951.8,-375.15"/>
</g>
<!-- gstlal&#45;ugly -->
<g id="node24" class="node">
<title>gstlal&#45;ugly</title>
<g id="a_node24"><a xlink:href="https://github.com/conda-forge/gstlal-ugly-feedstock" xlink:title="gstlal ugly">
<ellipse fill="#fde725" stroke="black" cx="902.68" cy="-278" rx="48.19" ry="18"/>
<text text-anchor="middle" x="902.68" y="-274.3" font-family="Times,serif" font-size="14.00">gstlal ugly</text>
</a>
</g>
</g>
<!-- pygobject&#45;&gt;gstlal&#45;ugly -->
<g id="edge29" class="edge">
<title>pygobject&#45;&gt;gstlal&#45;ugly</title>
<path fill="none" stroke="black" d="M885.97,-403.87C889.21,-379.67 895.15,-335.21 899.01,-306.39"/>
<polygon fill="black" stroke="black" points="902.52,-306.57 900.38,-296.19 895.58,-305.64 902.52,-306.57"/>
</g>
<!-- gstlal&#45;burst -->
<g id="node25" class="node">
<title>gstlal&#45;burst</title>
<g id="a_node25"><a xlink:href="https://github.com/conda-forge/gstlal-burst-feedstock" xlink:title="gstlal burst">
<ellipse fill="#fde725" stroke="black" cx="1023.68" cy="-206" rx="50.09" ry="18"/>
<text text-anchor="middle" x="1023.68" y="-202.3" font-family="Times,serif" font-size="14.00">gstlal burst</text>
</a>
</g>
</g>
<!-- pygobject&#45;&gt;gstlal&#45;burst -->
<g id="edge30" class="edge">
<title>pygobject&#45;&gt;gstlal&#45;burst</title>
<path fill="none" stroke="black" d="M918.25,-410.14C925.01,-408.07 932.06,-405.94 938.68,-404 1056.79,-369.4 1132.08,-402.56 1193.68,-296 1201.68,-282.15 1203.16,-272.89 1193.68,-260 1168.62,-225.94 1121.81,-213.15 1083.64,-208.62"/>
<polygon fill="black" stroke="black" points="1083.94,-205.13 1073.64,-207.59 1083.23,-212.09 1083.94,-205.13"/>
</g>
<!-- gstlal&#45;inspiral -->
<g id="node26" class="node">
<title>gstlal&#45;inspiral</title>
<g id="a_node26"><a xlink:href="https://github.com/conda-forge/gstlal-inspiral-feedstock" xlink:title="gstlal inspiral">
<ellipse fill="#fde725" stroke="black" cx="896.68" cy="-206" rx="58.5" ry="18"/>
<text text-anchor="middle" x="896.68" y="-202.3" font-family="Times,serif" font-size="14.00">gstlal inspiral</text>
</a>
</g>
</g>
<!-- pygobject&#45;&gt;gstlal&#45;inspiral -->
<g id="edge31" class="edge">
<title>pygobject&#45;&gt;gstlal&#45;inspiral</title>
<path fill="none" stroke="black" d="M877.07,-404.01C863.59,-368.26 835.05,-286.37 845.68,-260 850.29,-248.55 858.69,-238.19 867.36,-229.73"/>
<polygon fill="black" stroke="black" points="869.93,-232.12 874.97,-222.8 865.22,-226.95 869.93,-232.12"/>
</g>
<!-- gstlal&#45;calibration -->
<g id="node27" class="node">
<title>gstlal&#45;calibration</title>
<g id="a_node27"><a xlink:href="https://github.com/conda-forge/gstlal-calibration-feedstock" xlink:title="gstlal calibration">
<ellipse fill="#fde725" stroke="black" cx="1114.68" cy="-278" rx="69.59" ry="18"/>
<text text-anchor="middle" x="1114.68" y="-274.3" font-family="Times,serif" font-size="14.00">gstlal calibration</text>
</a>
</g>
</g>
<!-- pygobject&#45;&gt;gstlal&#45;calibration -->
<g id="edge32" class="edge">
<title>pygobject&#45;&gt;gstlal&#45;calibration</title>
<path fill="none" stroke="black" d="M918.08,-410.02C959.75,-396.57 1025.63,-374.73 1035.68,-368 1060.95,-351.07 1083.28,-324.18 1097.69,-304.39"/>
<polygon fill="black" stroke="black" points="1100.63,-306.3 1103.56,-296.12 1094.92,-302.25 1100.63,-306.3"/>
</g>
<!-- hkl -->
<g id="node28" class="node">
<title>hkl</title>
<g id="a_node28"><a xlink:href="https://github.com/conda-forge/hkl-feedstock" xlink:title="hkl">
<ellipse fill="#fde725" stroke="black" cx="1267.68" cy="-278" rx="27" ry="18"/>
<text text-anchor="middle" x="1267.68" y="-274.3" font-family="Times,serif" font-size="14.00">hkl</text>
</a>
</g>
</g>
<!-- pygobject&#45;&gt;hkl -->
<g id="edge33" class="edge">
<title>pygobject&#45;&gt;hkl</title>
<path fill="none" stroke="black" d="M917.17,-409.63C924.21,-407.52 931.64,-405.51 938.68,-404 1001.73,-390.42 1174.62,-406.09 1226.68,-368 1246.67,-353.37 1257.18,-326.59 1262.53,-306.21"/>
<polygon fill="black" stroke="black" points="1265.99,-306.77 1264.88,-296.24 1259.18,-305.17 1265.99,-306.77"/>
</g>
<!-- libmodulemd -->
<g id="node29" class="node">
<title>libmodulemd</title>
<g id="a_node29"><a xlink:href="https://github.com/conda-forge/libmodulemd-feedstock" xlink:title="libmodulemd">
<ellipse fill="#fde725" stroke="black" cx="708.68" cy="-206" rx="58.5" ry="18"/>
<text text-anchor="middle" x="708.68" y="-202.3" font-family="Times,serif" font-size="14.00">libmodulemd</text>
</a>
</g>
</g>
<!-- pygobject&#45;&gt;libmodulemd -->
<g id="edge34" class="edge">
<title>pygobject&#45;&gt;libmodulemd</title>
<path fill="none" stroke="black" d="M838.75,-418.33C802.93,-413.65 754.49,-401.13 727.68,-368 696.87,-329.93 699.16,-269.23 703.79,-234.26"/>
<polygon fill="black" stroke="black" points="707.27,-234.69 705.27,-224.28 700.34,-233.66 707.27,-234.69"/>
</g>
<!-- libsecret -->
<g id="node31" class="node">
<title>libsecret</title>
<g id="a_node31"><a xlink:href="https://github.com/conda-forge/libsecret-feedstock/pull/4" xlink:title="libsecret ❎">
<ellipse fill="#31688e" stroke="black" cx="1354.68" cy="-314" rx="52" ry="18"/>
<text text-anchor="middle" x="1354.68" y="-310.3" font-family="Times,serif" font-size="14.00" fill="white">libsecret ❎</text>
</a>
</g>
</g>
<!-- r&#45;base&#45;&gt;libsecret -->
<!-- poppler -->
<g id="node20" class="node">
<title>poppler</title>
<g id="a_node20"><a xlink:href="https://github.com/conda-forge/poppler-feedstock/pull/78" xlink:title="poppler ✓">
<ellipse fill="#31688e" stroke="black" cx="362.68" cy="-422" rx="48.19" ry="18"/>
<text text-anchor="middle" x="362.68" y="-418.3" font-family="Times,serif" font-size="14.00" fill="white">poppler ✓</text>
</a>
</g>
</g>
<!-- poppler&#45;&gt;libvips -->
<g id="edge25" class="edge">
<title>poppler&#45;&gt;libvips</title>
<path fill="none" stroke="black" d="M332.4,-408C304.77,-396.13 263.94,-378.6 234.87,-366.11"/>
<polygon fill="black" stroke="black" points="236.07,-362.82 225.5,-362.09 233.3,-369.25 236.07,-362.82"/>
</g>
<!-- pdf2svg -->
<g id="node21" class="node">
<title>pdf2svg</title>
<g id="a_node21"><a xlink:href="https://github.com/conda-forge/pdf2svg-feedstock" xlink:title="pdf2svg">
<ellipse fill="#fde725" stroke="black" cx="343.68" cy="-350" rx="39" ry="18"/>
<text text-anchor="middle" x="343.68" y="-346.3" font-family="Times,serif" font-size="14.00">pdf2svg</text>
</a>
</g>
</g>
<!-- poppler&#45;&gt;pdf2svg -->
<g id="edge26" class="edge">
<title>poppler&#45;&gt;pdf2svg</title>
<path fill="none" stroke="black" d="M358.08,-404.05C355.96,-396.26 353.4,-386.82 351.03,-378.08"/>
<polygon fill="black" stroke="black" points="354.36,-377.01 348.36,-368.28 347.61,-378.84 354.36,-377.01"/>
</g>
<!-- gst&#45;python&#45;&gt;gstlal&#45;ugly -->
<g id="edge35" class="edge">
<title>gst&#45;python&#45;&gt;gstlal&#45;ugly</title>
<path fill="none" stroke="black" d="M961.43,-333.12C951.32,-323.81 938.39,-311.9 927.24,-301.62"/>
<polygon fill="black" stroke="black" points="929.58,-299.02 919.85,-294.82 924.84,-304.17 929.58,-299.02"/>
</g>
<!-- gst&#45;python&#45;&gt;gstlal&#45;burst -->
<g id="edge36" class="edge">
<title>gst&#45;python&#45;&gt;gstlal&#45;burst</title>
<path fill="none" stroke="black" d="M984.1,-331.87C991.81,-307.56 1005.99,-262.82 1015.11,-234.01"/>
<polygon fill="black" stroke="black" points="1018.54,-234.78 1018.23,-224.19 1011.87,-232.66 1018.54,-234.78"/>
</g>
<!-- gst&#45;python&#45;&gt;gstlal&#45;inspiral -->
<g id="edge37" class="edge">
<title>gst&#45;python&#45;&gt;gstlal&#45;inspiral</title>
<path fill="none" stroke="black" d="M978.27,-331.73C977.11,-312.86 973.1,-282.35 959.68,-260 952.34,-247.79 941.18,-237.06 930.28,-228.51"/>
<polygon fill="black" stroke="black" points="932.17,-225.55 922.06,-222.4 928,-231.17 932.17,-225.55"/>
</g>
<!-- gst&#45;python&#45;&gt;gstlal&#45;calibration -->
<g id="edge38" class="edge">
<title>gst&#45;python&#45;&gt;gstlal&#45;calibration</title>
<path fill="none" stroke="black" d="M1005.87,-335C1025.9,-324.69 1053.43,-310.53 1075.78,-299.02"/>
<polygon fill="black" stroke="black" points="1077.4,-302.12 1084.69,-294.43 1074.2,-295.9 1077.4,-302.12"/>
</g>
<!-- gstlal&#45;ugly&#45;&gt;gstlal&#45;burst -->
<g id="edge39" class="edge">
<title>gstlal&#45;ugly&#45;&gt;gstlal&#45;burst</title>
<path fill="none" stroke="black" d="M927.75,-262.5C945.63,-252.15 969.9,-238.11 989.56,-226.74"/>
<polygon fill="black" stroke="black" points="991.32,-229.76 998.22,-221.73 987.81,-223.7 991.32,-229.76"/>
</g>
<!-- gstlal&#45;ugly&#45;&gt;gstlal&#45;inspiral -->
<g id="edge40" class="edge">
<title>gstlal&#45;ugly&#45;&gt;gstlal&#45;inspiral</title>
<path fill="none" stroke="black" d="M901.19,-259.7C900.53,-251.98 899.74,-242.71 899,-234.11"/>
<polygon fill="black" stroke="black" points="902.48,-233.77 898.14,-224.1 895.51,-234.37 902.48,-233.77"/>
</g>
<!-- createrepo_c -->
<g id="node30" class="node">
<title>createrepo_c</title>
<g id="a_node30"><a xlink:href="https://github.com/conda-forge/createrepo_c-feedstock" xlink:title="createrepo_c">
<ellipse fill="#fde725" stroke="black" cx="708.68" cy="-134" rx="56" ry="18"/>
<text text-anchor="middle" x="708.68" y="-130.3" font-family="Times,serif" font-size="14.00">createrepo_c</text>
</a>
</g>
</g>
<!-- libmodulemd&#45;&gt;createrepo_c -->
<g id="edge41" class="edge">
<title>libmodulemd&#45;&gt;createrepo_c</title>
<path fill="none" stroke="black" d="M708.68,-187.7C708.68,-179.98 708.68,-170.71 708.68,-162.11"/>
<polygon fill="black" stroke="black" points="712.18,-162.1 708.68,-152.1 705.18,-162.1 712.18,-162.1"/>
</g>
<!-- cem -->
<g id="node32" class="node">
<title>cem</title>
<g id="a_node32"><a xlink:href="https://github.com/conda-forge/cem-feedstock/pull/5" xlink:title="cem ❎">
<ellipse fill="#31688e" stroke="black" cx="1354.68" cy="-242" rx="37.89" ry="18"/>
<text text-anchor="middle" x="1354.68" y="-238.3" font-family="Times,serif" font-size="14.00" fill="white">cem ❎</text>
</a>
</g>
</g>
<!-- libsecret&#45;&gt;cem -->
<!-- libical -->
<g id="node33" class="node">
<title>libical</title>
<g id="a_node33"><a xlink:href="https://github.com/conda-forge/libical-feedstock/pull/8" xlink:title="libical ❎">
<ellipse fill="#31688e" stroke="black" cx="1354.68" cy="-170" rx="44.39" ry="18"/>
<text text-anchor="middle" x="1354.68" y="-166.3" font-family="Times,serif" font-size="14.00" fill="white">libical ❎</text>
</a>
</g>
</g>
<!-- cem&#45;&gt;libical -->
<!-- srm&#45;ifce -->
<g id="node34" class="node">
<title>srm&#45;ifce</title>
<g id="a_node34"><a xlink:href="https://github.com/conda-forge/srm-ifce-feedstock/pull/5" xlink:title="srm ifce ❎">
<ellipse fill="#31688e" stroke="black" cx="1512.68" cy="-458" rx="52" ry="18"/>
<text text-anchor="middle" x="1512.68" y="-454.3" font-family="Times,serif" font-size="14.00" fill="white">srm ifce ❎</text>
</a>
</g>
</g>
<!-- gfal2 -->
<g id="node35" class="node">
<title>gfal2</title>
<g id="a_node35"><a xlink:href="https://github.com/conda-forge/gfal2-feedstock" xlink:title="gfal2">
<ellipse fill="#fde725" stroke="black" cx="1512.68" cy="-386" rx="28.7" ry="18"/>
<text text-anchor="middle" x="1512.68" y="-382.3" font-family="Times,serif" font-size="14.00">gfal2</text>
</a>
</g>
</g>
<!-- srm&#45;ifce&#45;&gt;gfal2 -->
<g id="edge45" class="edge">
<title>srm&#45;ifce&#45;&gt;gfal2</title>
<path fill="none" stroke="black" d="M1512.68,-439.7C1512.68,-431.98 1512.68,-422.71 1512.68,-414.11"/>
<polygon fill="black" stroke="black" points="1516.18,-414.1 1512.68,-404.1 1509.18,-414.1 1516.18,-414.1"/>
</g>
<!-- python&#45;gfal2 -->
<g id="node36" class="node">
<title>python&#45;gfal2</title>
<g id="a_node36"><a xlink:href="https://github.com/conda-forge/python-gfal2-feedstock" xlink:title="python gfal2">
<ellipse fill="#fde725" stroke="black" cx="1470.68" cy="-314" rx="56" ry="18"/>
<text text-anchor="middle" x="1470.68" y="-310.3" font-family="Times,serif" font-size="14.00">python gfal2</text>
</a>
</g>
</g>
<!-- gfal2&#45;&gt;python&#45;gfal2 -->
<g id="edge46" class="edge">
<title>gfal2&#45;&gt;python&#45;gfal2</title>
<path fill="none" stroke="black" d="M1502.93,-368.76C1497.94,-360.44 1491.74,-350.1 1486.11,-340.73"/>
<polygon fill="black" stroke="black" points="1489.1,-338.9 1480.95,-332.12 1483.09,-342.5 1489.1,-338.9"/>
</g>
<!-- nordugrid&#45;arc -->
<g id="node37" class="node">
<title>nordugrid&#45;arc</title>
<g id="a_node37"><a xlink:href="https://github.com/conda-forge/nordugrid-arc-feedstock" xlink:title="nordugrid arc">
<ellipse fill="#fde725" stroke="black" cx="1554.68" cy="-242" rx="58.5" ry="18"/>
<text text-anchor="middle" x="1554.68" y="-238.3" font-family="Times,serif" font-size="14.00">nordugrid arc</text>
</a>
</g>
</g>
<!-- gfal2&#45;&gt;nordugrid&#45;arc -->
<g id="edge47" class="edge">
<title>gfal2&#45;&gt;nordugrid&#45;arc</title>
<path fill="none" stroke="black" d="M1520.79,-368.62C1525.65,-358.31 1531.64,-344.61 1535.68,-332 1542.21,-311.59 1547.15,-287.83 1550.36,-269.99"/>
<polygon fill="black" stroke="black" points="1553.83,-270.44 1552.08,-259.99 1546.93,-269.25 1553.83,-270.44"/>
</g>
<!-- gcab -->
<g id="node38" class="node">
<title>gcab</title>
<g id="a_node38"><a xlink:href="https://github.com/conda-forge/gcab-feedstock/pull/5" xlink:title="gcab ✓">
<ellipse fill="#31688e" stroke="black" cx="647.68" cy="-90" rx="37.89" ry="18"/>
<text text-anchor="middle" x="647.68" y="-86.3" font-family="Times,serif" font-size="14.00" fill="white">gcab ✓</text>
</a>
</g>
</g>
<!-- msitools -->
<g id="node39" class="node">
<title>msitools</title>
<g id="a_node39"><a xlink:href="https://github.com/conda-forge/msitools-feedstock" xlink:title="msitools">
<ellipse fill="#fde725" stroke="black" cx="647.68" cy="-18" rx="41" ry="18"/>
<text text-anchor="middle" x="647.68" y="-14.3" font-family="Times,serif" font-size="14.00">msitools</text>
</a>
</g>
</g>
<!-- gcab&#45;&gt;msitools -->
<g id="edge48" class="edge">
<title>gcab&#45;&gt;msitools</title>
<path fill="none" stroke="black" d="M647.68,-71.7C647.68,-63.98 647.68,-54.71 647.68,-46.11"/>
<polygon fill="black" stroke="black" points="651.18,-46.1 647.68,-36.1 644.18,-46.1 651.18,-46.1"/>
</g>
</g>
</svg>
