<?xml version="1.0" encoding="UTF-8" standalone="no"?>
<!DOCTYPE svg PUBLIC "-//W3C//DTD SVG 1.1//EN"
 "http://www.w3.org/Graphics/SVG/1.1/DTD/svg11.dtd">
<!-- Generated by graphviz version 2.42.3 (20191010.1750)
 -->
<!-- Title: %3 Pages: 1 -->
<svg width="1678pt" height="736pt"
 viewBox="0.00 0.00 1678.18 736.00" xmlns="http://www.w3.org/2000/svg" xmlns:xlink="http://www.w3.org/1999/xlink">
<g id="graph0" class="graph" transform="scale(1 1) rotate(0) translate(4 732)">
<title>%3</title>
<polygon fill="white" stroke="transparent" points="-4,4 -4,-732 1674.18,-732 1674.18,4 -4,4"/>
<!-- cyclus -->
<g id="node1" class="node">
<title>cyclus</title>
<g id="a_node1"><a xlink:href="https://github.com/conda-forge/cyclus-feedstock/pull/59" xlink:title="cyclus ❎">
<ellipse fill="#31688e" stroke="black" cx="1372.68" cy="-710" rx="45" ry="18"/>
<text text-anchor="middle" x="1372.68" y="-706.3" font-family="Times,serif" font-size="14.00" fill="white">cyclus ❎</text>
</a>
</g>
</g>
<!-- magics -->
<g id="node2" class="node">
<title>magics</title>
<g id="a_node2"><a xlink:href="https://github.com/conda-forge/magics-feedstock" xlink:title="magics">
<ellipse fill="#35b779" stroke="black" cx="1372.68" cy="-638" rx="36.5" ry="18"/>
<text text-anchor="middle" x="1372.68" y="-634.3" font-family="Times,serif" font-size="14.00">magics</text>
</a>
</g>
</g>
<!-- cyclus&#45;&gt;magics -->
<!-- r&#45;base -->
<g id="node19" class="node">
<title>r&#45;base</title>
<g id="a_node19"><a xlink:href="https://github.com/conda-forge/r-base-feedstock" xlink:title="r base">
<ellipse fill="#35b779" stroke="black" cx="1372.68" cy="-566" rx="32" ry="18"/>
<text text-anchor="middle" x="1372.68" y="-562.3" font-family="Times,serif" font-size="14.00">r base</text>
</a>
</g>
</g>
<!-- magics&#45;&gt;r&#45;base -->
<!-- emacs -->
<g id="node3" class="node">
<title>emacs</title>
<g id="a_node3"><a xlink:href="https://github.com/conda-forge/emacs-feedstock" xlink:title="emacs">
<ellipse fill="#fde725" stroke="black" cx="51.68" cy="-494" rx="33.29" ry="18"/>
<text text-anchor="middle" x="51.68" y="-490.3" font-family="Times,serif" font-size="14.00">emacs</text>
</a>
</g>
</g>
<!-- gdk&#45;pixbuf -->
<g id="node4" class="node">
<title>gdk&#45;pixbuf</title>
<g id="a_node4"><a xlink:href="https://github.com/conda-forge/gdk-pixbuf-feedstock" xlink:title="gdk pixbuf">
<ellipse fill="#35b779" stroke="black" cx="382.68" cy="-638" rx="49.5" ry="18"/>
<text text-anchor="middle" x="382.68" y="-634.3" font-family="Times,serif" font-size="14.00">gdk pixbuf</text>
</a>
</g>
</g>
<!-- imagemagick -->
<g id="node5" class="node">
<title>imagemagick</title>
<g id="a_node5"><a xlink:href="https://github.com/conda-forge/imagemagick-feedstock" xlink:title="imagemagick">
<ellipse fill="#fde725" stroke="black" cx="199.68" cy="-494" rx="59.29" ry="18"/>
<text text-anchor="middle" x="199.68" y="-490.3" font-family="Times,serif" font-size="14.00">imagemagick</text>
</a>
</g>
</g>
<!-- gdk&#45;pixbuf&#45;&gt;imagemagick -->
<g id="edge2" class="edge">
<title>gdk&#45;pixbuf&#45;&gt;imagemagick</title>
<path fill="none" stroke="black" d="M341.39,-628.03C313.26,-620.22 276.57,-606.53 250.68,-584 231.25,-567.1 217.5,-540.9 209.21,-521.3"/>
<polygon fill="black" stroke="black" points="212.45,-519.98 205.48,-512 205.96,-522.59 212.45,-519.98"/>
</g>
<!-- librsvg -->
<g id="node6" class="node">
<title>librsvg</title>
<g id="a_node6"><a xlink:href="https://github.com/conda-forge/librsvg-feedstock" xlink:title="librsvg">
<ellipse fill="#fde725" stroke="black" cx="128.68" cy="-566" rx="35.19" ry="18"/>
<text text-anchor="middle" x="128.68" y="-562.3" font-family="Times,serif" font-size="14.00">librsvg</text>
</a>
</g>
</g>
<!-- gdk&#45;pixbuf&#45;&gt;librsvg -->
<g id="edge3" class="edge">
<title>gdk&#45;pixbuf&#45;&gt;librsvg</title>
<path fill="none" stroke="black" d="M344.37,-626.44C297.02,-613.39 216.8,-591.29 168.68,-578.02"/>
<polygon fill="black" stroke="black" points="169.49,-574.62 158.92,-575.33 167.63,-581.37 169.49,-574.62"/>
</g>
<!-- gtk2 -->
<g id="node7" class="node">
<title>gtk2</title>
<g id="a_node7"><a xlink:href="https://github.com/conda-forge/gtk2-feedstock" xlink:title="gtk2">
<ellipse fill="#fde725" stroke="black" cx="410.68" cy="-566" rx="27" ry="18"/>
<text text-anchor="middle" x="410.68" y="-562.3" font-family="Times,serif" font-size="14.00">gtk2</text>
</a>
</g>
</g>
<!-- gdk&#45;pixbuf&#45;&gt;gtk2 -->
<g id="edge4" class="edge">
<title>gdk&#45;pixbuf&#45;&gt;gtk2</title>
<path fill="none" stroke="black" d="M389.45,-620.05C392.69,-611.97 396.63,-602.12 400.23,-593.11"/>
<polygon fill="black" stroke="black" points="403.5,-594.37 403.96,-583.79 397,-591.77 403.5,-594.37"/>
</g>
<!-- openslide -->
<g id="node8" class="node">
<title>openslide</title>
<g id="a_node8"><a xlink:href="https://github.com/conda-forge/openslide-feedstock" xlink:title="openslide">
<ellipse fill="#fde725" stroke="black" cx="303.68" cy="-566" rx="44.39" ry="18"/>
<text text-anchor="middle" x="303.68" y="-562.3" font-family="Times,serif" font-size="14.00">openslide</text>
</a>
</g>
</g>
<!-- gdk&#45;pixbuf&#45;&gt;openslide -->
<g id="edge5" class="edge">
<title>gdk&#45;pixbuf&#45;&gt;openslide</title>
<path fill="none" stroke="black" d="M364.75,-621.12C354.17,-611.74 340.61,-599.73 328.96,-589.41"/>
<polygon fill="black" stroke="black" points="331.06,-586.59 321.26,-582.58 326.42,-591.83 331.06,-586.59"/>
</g>
<!-- libvips -->
<g id="node9" class="node">
<title>libvips</title>
<g id="a_node9"><a xlink:href="https://github.com/conda-forge/libvips-feedstock" xlink:title="libvips">
<ellipse fill="#fde725" stroke="black" cx="199.68" cy="-422" rx="34.5" ry="18"/>
<text text-anchor="middle" x="199.68" y="-418.3" font-family="Times,serif" font-size="14.00">libvips</text>
</a>
</g>
</g>
<!-- gdk&#45;pixbuf&#45;&gt;libvips -->
<g id="edge6" class="edge">
<title>gdk&#45;pixbuf&#45;&gt;libvips</title>
<path fill="none" stroke="black" d="M333.23,-636.85C271.76,-634.79 165.12,-624.91 84.68,-584 43.49,-563.05 27.79,-554.51 9.68,-512 3.4,-497.28 0,-488.74 9.68,-476 27.35,-452.72 105.97,-436.91 156.37,-428.97"/>
<polygon fill="black" stroke="black" points="157,-432.42 166.36,-427.44 155.94,-425.5 157,-432.42"/>
</g>
<!-- gtk3 -->
<g id="node10" class="node">
<title>gtk3</title>
<g id="a_node10"><a xlink:href="https://github.com/conda-forge/gtk3-feedstock" xlink:title="gtk3">
<ellipse fill="#fde725" stroke="black" cx="700.68" cy="-566" rx="27" ry="18"/>
<text text-anchor="middle" x="700.68" y="-562.3" font-family="Times,serif" font-size="14.00">gtk3</text>
</a>
</g>
</g>
<!-- gdk&#45;pixbuf&#45;&gt;gtk3 -->
<g id="edge7" class="edge">
<title>gdk&#45;pixbuf&#45;&gt;gtk3</title>
<path fill="none" stroke="black" d="M427.96,-630.47C482.37,-622.1 576.15,-606 654.68,-584 659.13,-582.75 663.77,-581.27 668.31,-579.7"/>
<polygon fill="black" stroke="black" points="669.77,-582.9 677.98,-576.21 667.39,-576.31 669.77,-582.9"/>
</g>
<!-- gtkmm -->
<g id="node11" class="node">
<title>gtkmm</title>
<g id="a_node11"><a xlink:href="https://github.com/conda-forge/gtkmm-feedstock" xlink:title="gtkmm">
<ellipse fill="#fde725" stroke="black" cx="597.68" cy="-494" rx="36.5" ry="18"/>
<text text-anchor="middle" x="597.68" y="-490.3" font-family="Times,serif" font-size="14.00">gtkmm</text>
</a>
</g>
</g>
<!-- gdk&#45;pixbuf&#45;&gt;gtkmm -->
<g id="edge8" class="edge">
<title>gdk&#45;pixbuf&#45;&gt;gtkmm</title>
<path fill="none" stroke="black" d="M405.68,-621.8C445.01,-595.83 525.07,-542.95 568.35,-514.37"/>
<polygon fill="black" stroke="black" points="570.33,-517.26 576.74,-508.83 566.47,-511.42 570.33,-517.26"/>
</g>
<!-- wxwidgets -->
<g id="node12" class="node">
<title>wxwidgets</title>
<g id="a_node12"><a xlink:href="https://github.com/conda-forge/wxwidgets-feedstock" xlink:title="wxwidgets">
<ellipse fill="#fde725" stroke="black" cx="700.68" cy="-494" rx="48.99" ry="18"/>
<text text-anchor="middle" x="700.68" y="-490.3" font-family="Times,serif" font-size="14.00">wxwidgets</text>
</a>
</g>
</g>
<!-- gdk&#45;pixbuf&#45;&gt;wxwidgets -->
<g id="edge9" class="edge">
<title>gdk&#45;pixbuf&#45;&gt;wxwidgets</title>
<path fill="none" stroke="black" d="M413.3,-623.7C437.79,-613.04 472.98,-597.66 503.68,-584 558.64,-559.55 622,-530.83 661.7,-512.77"/>
<polygon fill="black" stroke="black" points="663.37,-515.85 671.02,-508.53 660.47,-509.48 663.37,-515.85"/>
</g>
<!-- imagemagick&#45;&gt;libvips -->
<g id="edge10" class="edge">
<title>imagemagick&#45;&gt;libvips</title>
<path fill="none" stroke="black" d="M199.68,-475.7C199.68,-467.98 199.68,-458.71 199.68,-450.11"/>
<polygon fill="black" stroke="black" points="203.18,-450.1 199.68,-440.1 196.18,-450.1 203.18,-450.1"/>
</g>
<!-- librsvg&#45;&gt;emacs -->
<g id="edge11" class="edge">
<title>librsvg&#45;&gt;emacs</title>
<path fill="none" stroke="black" d="M111.97,-549.81C101.4,-540.21 87.57,-527.63 75.82,-516.95"/>
<polygon fill="black" stroke="black" points="77.84,-514.06 68.09,-509.92 73.13,-519.24 77.84,-514.06"/>
</g>
<!-- librsvg&#45;&gt;imagemagick -->
<g id="edge12" class="edge">
<title>librsvg&#45;&gt;imagemagick</title>
<path fill="none" stroke="black" d="M144.08,-549.81C153.34,-540.69 165.31,-528.88 175.77,-518.57"/>
<polygon fill="black" stroke="black" points="178.4,-520.89 183.06,-511.38 173.48,-515.91 178.4,-520.89"/>
</g>
<!-- librsvg&#45;&gt;libvips -->
<g id="edge13" class="edge">
<title>librsvg&#45;&gt;libvips</title>
<path fill="none" stroke="black" d="M125.15,-547.87C122.2,-529.13 120.09,-498.73 131.68,-476 139.31,-461.01 153.35,-448.97 166.69,-440.17"/>
<polygon fill="black" stroke="black" points="168.62,-443.1 175.29,-434.87 164.94,-437.14 168.62,-443.1"/>
</g>
<!-- gtk2&#45;&gt;imagemagick -->
<g id="edge14" class="edge">
<title>gtk2&#45;&gt;imagemagick</title>
<path fill="none" stroke="black" d="M386.88,-557.11C353.21,-545.94 290.94,-525.28 247.5,-510.87"/>
<polygon fill="black" stroke="black" points="248.59,-507.54 237.99,-507.71 246.38,-514.18 248.59,-507.54"/>
</g>
<!-- gnuplot -->
<g id="node13" class="node">
<title>gnuplot</title>
<g id="a_node13"><a xlink:href="https://github.com/conda-forge/gnuplot-feedstock" xlink:title="gnuplot">
<ellipse fill="#fde725" stroke="black" cx="445.68" cy="-494" rx="37.89" ry="18"/>
<text text-anchor="middle" x="445.68" y="-490.3" font-family="Times,serif" font-size="14.00">gnuplot</text>
</a>
</g>
</g>
<!-- gtk2&#45;&gt;gnuplot -->
<g id="edge15" class="edge">
<title>gtk2&#45;&gt;gnuplot</title>
<path fill="none" stroke="black" d="M418.79,-548.76C422.97,-540.4 428.17,-530.02 432.87,-520.61"/>
<polygon fill="black" stroke="black" points="436.02,-522.14 437.36,-511.63 429.76,-519.01 436.02,-522.14"/>
</g>
<!-- wxpython -->
<g id="node14" class="node">
<title>wxpython</title>
<g id="a_node14"><a xlink:href="https://github.com/conda-forge/wxpython-feedstock" xlink:title="wxpython">
<ellipse fill="#fde725" stroke="black" cx="511.68" cy="-422" rx="46.29" ry="18"/>
<text text-anchor="middle" x="511.68" y="-418.3" font-family="Times,serif" font-size="14.00">wxpython</text>
</a>
</g>
</g>
<!-- gtk2&#45;&gt;wxpython -->
<g id="edge16" class="edge">
<title>gtk2&#45;&gt;wxpython</title>
<path fill="none" stroke="black" d="M433.41,-556.2C452.23,-547.73 478.15,-533.07 492.68,-512 505.18,-493.87 509.7,-469.09 511.22,-450.28"/>
<polygon fill="black" stroke="black" points="514.72,-450.45 511.8,-440.26 507.73,-450.04 514.72,-450.45"/>
</g>
<!-- openslide&#45;&gt;libvips -->
<g id="edge17" class="edge">
<title>openslide&#45;&gt;libvips</title>
<path fill="none" stroke="black" d="M299.64,-547.92C294.53,-528.95 284.34,-498.08 267.68,-476 257.56,-462.6 243.27,-450.78 230.39,-441.71"/>
<polygon fill="black" stroke="black" points="232.01,-438.59 221.77,-435.89 228.1,-444.39 232.01,-438.59"/>
</g>
<!-- gtk3&#45;&gt;gtkmm -->
<g id="edge18" class="edge">
<title>gtk3&#45;&gt;gtkmm</title>
<path fill="none" stroke="black" d="M682.26,-552.49C666.85,-542.01 644.57,-526.87 626.75,-514.76"/>
<polygon fill="black" stroke="black" points="628.65,-511.82 618.41,-509.09 624.71,-517.61 628.65,-511.82"/>
</g>
<!-- gtk3&#45;&gt;wxwidgets -->
<g id="edge19" class="edge">
<title>gtk3&#45;&gt;wxwidgets</title>
<path fill="none" stroke="black" d="M700.68,-547.7C700.68,-539.98 700.68,-530.71 700.68,-522.11"/>
<polygon fill="black" stroke="black" points="704.18,-522.1 700.68,-512.1 697.18,-522.1 704.18,-522.1"/>
</g>
<!-- pygobject -->
<g id="node15" class="node">
<title>pygobject</title>
<g id="a_node15"><a xlink:href="https://github.com/conda-forge/pygobject-feedstock" xlink:title="pygobject">
<ellipse fill="#fde725" stroke="black" cx="862.68" cy="-494" rx="45.5" ry="18"/>
<text text-anchor="middle" x="862.68" y="-490.3" font-family="Times,serif" font-size="14.00">pygobject</text>
</a>
</g>
</g>
<!-- gtk3&#45;&gt;pygobject -->
<g id="edge20" class="edge">
<title>gtk3&#45;&gt;pygobject</title>
<path fill="none" stroke="black" d="M722.86,-555.41C748.78,-544.22 792.12,-525.49 823.69,-511.85"/>
<polygon fill="black" stroke="black" points="825.28,-514.97 833.08,-507.79 822.51,-508.54 825.28,-514.97"/>
</g>
<!-- stoken -->
<g id="node16" class="node">
<title>stoken</title>
<g id="a_node16"><a xlink:href="https://github.com/conda-forge/stoken-feedstock" xlink:title="stoken">
<ellipse fill="#fde725" stroke="black" cx="960.68" cy="-494" rx="34" ry="18"/>
<text text-anchor="middle" x="960.68" y="-490.3" font-family="Times,serif" font-size="14.00">stoken</text>
</a>
</g>
</g>
<!-- gtk3&#45;&gt;stoken -->
<g id="edge21" class="edge">
<title>gtk3&#45;&gt;stoken</title>
<path fill="none" stroke="black" d="M726.38,-559.91C767.32,-551.55 849.68,-533.63 917.68,-512 920.24,-511.18 922.87,-510.29 925.51,-509.35"/>
<polygon fill="black" stroke="black" points="926.81,-512.6 934.96,-505.83 924.37,-506.04 926.81,-512.6"/>
</g>
<!-- cadabra2 -->
<g id="node17" class="node">
<title>cadabra2</title>
<g id="a_node17"><a xlink:href="https://github.com/conda-forge/cadabra2-feedstock" xlink:title="cadabra2">
<ellipse fill="#fde725" stroke="black" cx="617.68" cy="-422" rx="42.49" ry="18"/>
<text text-anchor="middle" x="617.68" y="-418.3" font-family="Times,serif" font-size="14.00">cadabra2</text>
</a>
</g>
</g>
<!-- gtkmm&#45;&gt;cadabra2 -->
<g id="edge22" class="edge">
<title>gtkmm&#45;&gt;cadabra2</title>
<path fill="none" stroke="black" d="M602.52,-476.05C604.74,-468.26 607.44,-458.82 609.94,-450.08"/>
<polygon fill="black" stroke="black" points="613.36,-450.85 612.74,-440.28 606.63,-448.93 613.36,-450.85"/>
</g>
<!-- octave -->
<g id="node18" class="node">
<title>octave</title>
<g id="a_node18"><a xlink:href="https://github.com/conda-forge/octave-feedstock" xlink:title="octave">
<ellipse fill="#fde725" stroke="black" cx="413.68" cy="-422" rx="34" ry="18"/>
<text text-anchor="middle" x="413.68" y="-418.3" font-family="Times,serif" font-size="14.00">octave</text>
</a>
</g>
</g>
<!-- gnuplot&#45;&gt;octave -->
<g id="edge23" class="edge">
<title>gnuplot&#45;&gt;octave</title>
<path fill="none" stroke="black" d="M437.93,-476.05C434.23,-467.97 429.73,-458.12 425.61,-449.11"/>
<polygon fill="black" stroke="black" points="428.69,-447.43 421.35,-439.79 422.32,-450.34 428.69,-447.43"/>
</g>
<!-- numcosmo -->
<g id="node22" class="node">
<title>numcosmo</title>
<g id="a_node22"><a xlink:href="https://github.com/conda-forge/numcosmo-feedstock" xlink:title="numcosmo">
<ellipse fill="#fde725" stroke="black" cx="765.68" cy="-422" rx="50.09" ry="18"/>
<text text-anchor="middle" x="765.68" y="-418.3" font-family="Times,serif" font-size="14.00">numcosmo</text>
</a>
</g>
</g>
<!-- pygobject&#45;&gt;numcosmo -->
<g id="edge27" class="edge">
<title>pygobject&#45;&gt;numcosmo</title>
<path fill="none" stroke="black" d="M841.63,-477.81C828.12,-468.06 810.38,-455.26 795.44,-444.48"/>
<polygon fill="black" stroke="black" points="797.17,-441.41 787.02,-438.4 793.08,-447.09 797.17,-441.41"/>
</g>
<!-- gst&#45;python -->
<g id="node23" class="node">
<title>gst&#45;python</title>
<g id="a_node23"><a xlink:href="https://github.com/conda-forge/gst-python-feedstock" xlink:title="gst python">
<ellipse fill="#fde725" stroke="black" cx="957.68" cy="-422" rx="48.19" ry="18"/>
<text text-anchor="middle" x="957.68" y="-418.3" font-family="Times,serif" font-size="14.00">gst python</text>
</a>
</g>
</g>
<!-- pygobject&#45;&gt;gst&#45;python -->
<g id="edge28" class="edge">
<title>pygobject&#45;&gt;gst&#45;python</title>
<path fill="none" stroke="black" d="M883.29,-477.81C896.52,-468.06 913.9,-455.26 928.53,-444.48"/>
<polygon fill="black" stroke="black" points="930.8,-447.15 936.77,-438.4 926.65,-441.52 930.8,-447.15"/>
</g>
<!-- gstlal&#45;ugly -->
<g id="node24" class="node">
<title>gstlal&#45;ugly</title>
<g id="a_node24"><a xlink:href="https://github.com/conda-forge/gstlal-ugly-feedstock" xlink:title="gstlal ugly">
<ellipse fill="#fde725" stroke="black" cx="881.68" cy="-350" rx="48.19" ry="18"/>
<text text-anchor="middle" x="881.68" y="-346.3" font-family="Times,serif" font-size="14.00">gstlal ugly</text>
</a>
</g>
</g>
<!-- pygobject&#45;&gt;gstlal&#45;ugly -->
<g id="edge29" class="edge">
<title>pygobject&#45;&gt;gstlal&#45;ugly</title>
<path fill="none" stroke="black" d="M864.97,-475.87C868.21,-451.67 874.15,-407.21 878.01,-378.39"/>
<polygon fill="black" stroke="black" points="881.52,-378.57 879.38,-368.19 874.58,-377.64 881.52,-378.57"/>
</g>
<!-- gstlal&#45;burst -->
<g id="node25" class="node">
<title>gstlal&#45;burst</title>
<g id="a_node25"><a xlink:href="https://github.com/conda-forge/gstlal-burst-feedstock" xlink:title="gstlal burst">
<ellipse fill="#fde725" stroke="black" cx="1002.68" cy="-278" rx="50.09" ry="18"/>
<text text-anchor="middle" x="1002.68" y="-274.3" font-family="Times,serif" font-size="14.00">gstlal burst</text>
</a>
</g>
</g>
<!-- pygobject&#45;&gt;gstlal&#45;burst -->
<g id="edge30" class="edge">
<title>pygobject&#45;&gt;gstlal&#45;burst</title>
<path fill="none" stroke="black" d="M897.25,-482.14C904.01,-480.07 911.06,-477.94 917.68,-476 1035.79,-441.4 1111.08,-474.56 1172.68,-368 1180.68,-354.15 1182.16,-344.89 1172.68,-332 1147.62,-297.94 1100.81,-285.15 1062.64,-280.62"/>
<polygon fill="black" stroke="black" points="1062.94,-277.13 1052.64,-279.59 1062.23,-284.09 1062.94,-277.13"/>
</g>
<!-- gstlal&#45;inspiral -->
<g id="node26" class="node">
<title>gstlal&#45;inspiral</title>
<g id="a_node26"><a xlink:href="https://github.com/conda-forge/gstlal-inspiral-feedstock" xlink:title="gstlal inspiral">
<ellipse fill="#fde725" stroke="black" cx="875.68" cy="-278" rx="58.5" ry="18"/>
<text text-anchor="middle" x="875.68" y="-274.3" font-family="Times,serif" font-size="14.00">gstlal inspiral</text>
</a>
</g>
</g>
<!-- pygobject&#45;&gt;gstlal&#45;inspiral -->
<g id="edge31" class="edge">
<title>pygobject&#45;&gt;gstlal&#45;inspiral</title>
<path fill="none" stroke="black" d="M856.07,-476.01C842.59,-440.26 814.05,-358.37 824.68,-332 829.29,-320.55 837.69,-310.19 846.36,-301.73"/>
<polygon fill="black" stroke="black" points="848.93,-304.12 853.97,-294.8 844.22,-298.95 848.93,-304.12"/>
</g>
<!-- gstlal&#45;calibration -->
<g id="node27" class="node">
<title>gstlal&#45;calibration</title>
<g id="a_node27"><a xlink:href="https://github.com/conda-forge/gstlal-calibration-feedstock" xlink:title="gstlal calibration">
<ellipse fill="#fde725" stroke="black" cx="1093.68" cy="-350" rx="69.59" ry="18"/>
<text text-anchor="middle" x="1093.68" y="-346.3" font-family="Times,serif" font-size="14.00">gstlal calibration</text>
</a>
</g>
</g>
<!-- pygobject&#45;&gt;gstlal&#45;calibration -->
<g id="edge32" class="edge">
<title>pygobject&#45;&gt;gstlal&#45;calibration</title>
<path fill="none" stroke="black" d="M897.08,-482.02C938.75,-468.57 1004.63,-446.73 1014.68,-440 1039.95,-423.07 1062.28,-396.18 1076.69,-376.39"/>
<polygon fill="black" stroke="black" points="1079.63,-378.3 1082.56,-368.12 1073.92,-374.25 1079.63,-378.3"/>
</g>
<!-- hkl -->
<g id="node28" class="node">
<title>hkl</title>
<g id="a_node28"><a xlink:href="https://github.com/conda-forge/hkl-feedstock" xlink:title="hkl">
<ellipse fill="#fde725" stroke="black" cx="1246.68" cy="-350" rx="27" ry="18"/>
<text text-anchor="middle" x="1246.68" y="-346.3" font-family="Times,serif" font-size="14.00">hkl</text>
</a>
</g>
</g>
<!-- pygobject&#45;&gt;hkl -->
<g id="edge33" class="edge">
<title>pygobject&#45;&gt;hkl</title>
<path fill="none" stroke="black" d="M896.17,-481.63C903.21,-479.52 910.64,-477.51 917.68,-476 980.73,-462.42 1153.62,-478.09 1205.68,-440 1225.67,-425.37 1236.18,-398.59 1241.53,-378.21"/>
<polygon fill="black" stroke="black" points="1244.99,-378.77 1243.88,-368.24 1238.18,-377.17 1244.99,-378.77"/>
</g>
<!-- libmodulemd -->
<g id="node29" class="node">
<title>libmodulemd</title>
<g id="a_node29"><a xlink:href="https://github.com/conda-forge/libmodulemd-feedstock" xlink:title="libmodulemd">
<ellipse fill="#fde725" stroke="black" cx="687.68" cy="-278" rx="58.5" ry="18"/>
<text text-anchor="middle" x="687.68" y="-274.3" font-family="Times,serif" font-size="14.00">libmodulemd</text>
</a>
</g>
</g>
<!-- pygobject&#45;&gt;libmodulemd -->
<g id="edge34" class="edge">
<title>pygobject&#45;&gt;libmodulemd</title>
<path fill="none" stroke="black" d="M817.75,-490.33C781.93,-485.65 733.49,-473.13 706.68,-440 675.87,-401.93 678.16,-341.23 682.79,-306.26"/>
<polygon fill="black" stroke="black" points="686.27,-306.69 684.27,-296.28 679.34,-305.66 686.27,-306.69"/>
</g>
<!-- libsecret -->
<g id="node31" class="node">
<title>libsecret</title>
<g id="a_node31"><a xlink:href="https://github.com/conda-forge/libsecret-feedstock/pull/4" xlink:title="libsecret ❎">
<ellipse fill="#31688e" stroke="black" cx="1372.68" cy="-494" rx="52" ry="18"/>
<text text-anchor="middle" x="1372.68" y="-490.3" font-family="Times,serif" font-size="14.00" fill="white">libsecret ❎</text>
</a>
</g>
</g>
<!-- r&#45;base&#45;&gt;libsecret -->
<!-- poppler -->
<g id="node20" class="node">
<title>poppler</title>
<g id="a_node20"><a xlink:href="https://github.com/conda-forge/poppler-feedstock" xlink:title="poppler">
<ellipse fill="#35b779" stroke="black" cx="352.68" cy="-494" rx="37.89" ry="18"/>
<text text-anchor="middle" x="352.68" y="-490.3" font-family="Times,serif" font-size="14.00">poppler</text>
</a>
</g>
</g>
<!-- poppler&#45;&gt;libvips -->
<g id="edge25" class="edge">
<title>poppler&#45;&gt;libvips</title>
<path fill="none" stroke="black" d="M326.37,-480.97C300.92,-469.32 262.2,-451.61 234.26,-438.83"/>
<polygon fill="black" stroke="black" points="235.42,-435.51 224.87,-434.53 232.51,-441.87 235.42,-435.51"/>
</g>
<!-- pdf2svg -->
<g id="node21" class="node">
<title>pdf2svg</title>
<g id="a_node21"><a xlink:href="https://github.com/conda-forge/pdf2svg-feedstock" xlink:title="pdf2svg">
<ellipse fill="#fde725" stroke="black" cx="322.68" cy="-422" rx="39" ry="18"/>
<text text-anchor="middle" x="322.68" y="-418.3" font-family="Times,serif" font-size="14.00">pdf2svg</text>
</a>
</g>
</g>
<!-- poppler&#45;&gt;pdf2svg -->
<g id="edge26" class="edge">
<title>poppler&#45;&gt;pdf2svg</title>
<path fill="none" stroke="black" d="M345.41,-476.05C341.95,-467.97 337.73,-458.12 333.87,-449.11"/>
<polygon fill="black" stroke="black" points="337.03,-447.6 329.87,-439.79 330.59,-450.36 337.03,-447.6"/>
</g>
<!-- gst&#45;python&#45;&gt;gstlal&#45;ugly -->
<g id="edge35" class="edge">
<title>gst&#45;python&#45;&gt;gstlal&#45;ugly</title>
<path fill="none" stroke="black" d="M940.43,-405.12C930.32,-395.81 917.39,-383.9 906.24,-373.62"/>
<polygon fill="black" stroke="black" points="908.58,-371.02 898.85,-366.82 903.84,-376.17 908.58,-371.02"/>
</g>
<!-- gst&#45;python&#45;&gt;gstlal&#45;burst -->
<g id="edge36" class="edge">
<title>gst&#45;python&#45;&gt;gstlal&#45;burst</title>
<path fill="none" stroke="black" d="M963.1,-403.87C970.81,-379.56 984.99,-334.82 994.11,-306.01"/>
<polygon fill="black" stroke="black" points="997.54,-306.78 997.23,-296.19 990.87,-304.66 997.54,-306.78"/>
</g>
<!-- gst&#45;python&#45;&gt;gstlal&#45;inspiral -->
<g id="edge37" class="edge">
<title>gst&#45;python&#45;&gt;gstlal&#45;inspiral</title>
<path fill="none" stroke="black" d="M957.27,-403.73C956.11,-384.86 952.1,-354.35 938.68,-332 931.34,-319.79 920.18,-309.06 909.28,-300.51"/>
<polygon fill="black" stroke="black" points="911.17,-297.55 901.06,-294.4 907,-303.17 911.17,-297.55"/>
</g>
<!-- gst&#45;python&#45;&gt;gstlal&#45;calibration -->
<g id="edge38" class="edge">
<title>gst&#45;python&#45;&gt;gstlal&#45;calibration</title>
<path fill="none" stroke="black" d="M984.87,-407C1004.9,-396.69 1032.43,-382.53 1054.78,-371.02"/>
<polygon fill="black" stroke="black" points="1056.4,-374.12 1063.69,-366.43 1053.2,-367.9 1056.4,-374.12"/>
</g>
<!-- gstlal&#45;ugly&#45;&gt;gstlal&#45;burst -->
<g id="edge39" class="edge">
<title>gstlal&#45;ugly&#45;&gt;gstlal&#45;burst</title>
<path fill="none" stroke="black" d="M906.75,-334.5C924.63,-324.15 948.9,-310.11 968.56,-298.74"/>
<polygon fill="black" stroke="black" points="970.32,-301.76 977.22,-293.73 966.81,-295.7 970.32,-301.76"/>
</g>
<!-- gstlal&#45;ugly&#45;&gt;gstlal&#45;inspiral -->
<g id="edge40" class="edge">
<title>gstlal&#45;ugly&#45;&gt;gstlal&#45;inspiral</title>
<path fill="none" stroke="black" d="M880.19,-331.7C879.53,-323.98 878.74,-314.71 878,-306.11"/>
<polygon fill="black" stroke="black" points="881.48,-305.77 877.14,-296.1 874.51,-306.37 881.48,-305.77"/>
</g>
<!-- createrepo_c -->
<g id="node30" class="node">
<title>createrepo_c</title>
<g id="a_node30"><a xlink:href="https://github.com/conda-forge/createrepo_c-feedstock" xlink:title="createrepo_c">
<ellipse fill="#fde725" stroke="black" cx="687.68" cy="-206" rx="56" ry="18"/>
<text text-anchor="middle" x="687.68" y="-202.3" font-family="Times,serif" font-size="14.00">createrepo_c</text>
</a>
</g>
</g>
<!-- libmodulemd&#45;&gt;createrepo_c -->
<g id="edge41" class="edge">
<title>libmodulemd&#45;&gt;createrepo_c</title>
<path fill="none" stroke="black" d="M687.68,-259.7C687.68,-251.98 687.68,-242.71 687.68,-234.11"/>
<polygon fill="black" stroke="black" points="691.18,-234.1 687.68,-224.1 684.18,-234.1 691.18,-234.1"/>
</g>
<!-- cem -->
<g id="node32" class="node">
<title>cem</title>
<g id="a_node32"><a xlink:href="https://github.com/conda-forge/cem-feedstock/pull/5" xlink:title="cem ❎">
<ellipse fill="#31688e" stroke="black" cx="1372.68" cy="-422" rx="37.89" ry="18"/>
<text text-anchor="middle" x="1372.68" y="-418.3" font-family="Times,serif" font-size="14.00" fill="white">cem ❎</text>
</a>
</g>
</g>
<!-- libsecret&#45;&gt;cem -->
<!-- libical -->
<g id="node33" class="node">
<title>libical</title>
<g id="a_node33"><a xlink:href="https://github.com/conda-forge/libical-feedstock/pull/8" xlink:title="libical ❎">
<ellipse fill="#31688e" stroke="black" cx="1372.68" cy="-350" rx="44.39" ry="18"/>
<text text-anchor="middle" x="1372.68" y="-346.3" font-family="Times,serif" font-size="14.00" fill="white">libical ❎</text>
</a>
</g>
</g>
<!-- cem&#45;&gt;libical -->
<!-- magics&#45;metview -->
<g id="node38" class="node">
<title>magics&#45;metview</title>
<g id="a_node38"><a xlink:href="https://github.com/conda-forge/magics-metview-feedstock" xlink:title="magics metview">
<ellipse fill="#35b779" stroke="black" cx="1372.68" cy="-278" rx="69.59" ry="18"/>
<text text-anchor="middle" x="1372.68" y="-274.3" font-family="Times,serif" font-size="14.00">magics metview</text>
</a>
</g>
</g>
<!-- libical&#45;&gt;magics&#45;metview -->
<!-- srm&#45;ifce -->
<g id="node34" class="node">
<title>srm&#45;ifce</title>
<g id="a_node34"><a xlink:href="https://github.com/conda-forge/srm-ifce-feedstock/pull/5" xlink:title="srm ifce ❎">
<ellipse fill="#31688e" stroke="black" cx="1569.68" cy="-530" rx="52" ry="18"/>
<text text-anchor="middle" x="1569.68" y="-526.3" font-family="Times,serif" font-size="14.00" fill="white">srm ifce ❎</text>
</a>
</g>
</g>
<!-- gfal2 -->
<g id="node35" class="node">
<title>gfal2</title>
<g id="a_node35"><a xlink:href="https://github.com/conda-forge/gfal2-feedstock" xlink:title="gfal2">
<ellipse fill="#fde725" stroke="black" cx="1569.68" cy="-458" rx="28.7" ry="18"/>
<text text-anchor="middle" x="1569.68" y="-454.3" font-family="Times,serif" font-size="14.00">gfal2</text>
</a>
</g>
</g>
<!-- srm&#45;ifce&#45;&gt;gfal2 -->
<g id="edge45" class="edge">
<title>srm&#45;ifce&#45;&gt;gfal2</title>
<path fill="none" stroke="black" d="M1569.68,-511.7C1569.68,-503.98 1569.68,-494.71 1569.68,-486.11"/>
<polygon fill="black" stroke="black" points="1573.18,-486.1 1569.68,-476.1 1566.18,-486.1 1573.18,-486.1"/>
</g>
<!-- python&#45;gfal2 -->
<g id="node36" class="node">
<title>python&#45;gfal2</title>
<g id="a_node36"><a xlink:href="https://github.com/conda-forge/python-gfal2-feedstock" xlink:title="python gfal2">
<ellipse fill="#fde725" stroke="black" cx="1527.68" cy="-386" rx="56" ry="18"/>
<text text-anchor="middle" x="1527.68" y="-382.3" font-family="Times,serif" font-size="14.00">python gfal2</text>
</a>
</g>
</g>
<!-- gfal2&#45;&gt;python&#45;gfal2 -->
<g id="edge46" class="edge">
<title>gfal2&#45;&gt;python&#45;gfal2</title>
<path fill="none" stroke="black" d="M1559.93,-440.76C1554.94,-432.44 1548.74,-422.1 1543.11,-412.73"/>
<polygon fill="black" stroke="black" points="1546.1,-410.9 1537.95,-404.12 1540.09,-414.5 1546.1,-410.9"/>
</g>
<!-- nordugrid&#45;arc -->
<g id="node37" class="node">
<title>nordugrid&#45;arc</title>
<g id="a_node37"><a xlink:href="https://github.com/conda-forge/nordugrid-arc-feedstock" xlink:title="nordugrid arc">
<ellipse fill="#fde725" stroke="black" cx="1611.68" cy="-314" rx="58.5" ry="18"/>
<text text-anchor="middle" x="1611.68" y="-310.3" font-family="Times,serif" font-size="14.00">nordugrid arc</text>
</a>
</g>
</g>
<!-- gfal2&#45;&gt;nordugrid&#45;arc -->
<g id="edge47" class="edge">
<title>gfal2&#45;&gt;nordugrid&#45;arc</title>
<path fill="none" stroke="black" d="M1577.79,-440.62C1582.65,-430.31 1588.64,-416.61 1592.68,-404 1599.21,-383.59 1604.15,-359.83 1607.36,-341.99"/>
<polygon fill="black" stroke="black" points="1610.83,-342.44 1609.08,-331.99 1603.93,-341.25 1610.83,-342.44"/>
</g>
<!-- libignition&#45;common -->
<g id="node41" class="node">
<title>libignition&#45;common</title>
<g id="a_node41"><a xlink:href="https://github.com/conda-forge/libignition-common-feedstock" xlink:title="libignition common">
<ellipse fill="#35b779" stroke="black" cx="1372.68" cy="-206" rx="81.49" ry="18"/>
<text text-anchor="middle" x="1372.68" y="-202.3" font-family="Times,serif" font-size="14.00">libignition common</text>
</a>
</g>
</g>
<!-- magics&#45;metview&#45;&gt;libignition&#45;common -->
<!-- gcab -->
<g id="node39" class="node">
<title>gcab</title>
<g id="a_node39"><a xlink:href="https://github.com/conda-forge/gcab-feedstock/pull/5" xlink:title="gcab ✓">
<ellipse fill="#31688e" stroke="black" cx="636.68" cy="-90" rx="37.89" ry="18"/>
<text text-anchor="middle" x="636.68" y="-86.3" font-family="Times,serif" font-size="14.00" fill="white">gcab ✓</text>
</a>
</g>
</g>
<!-- msitools -->
<g id="node40" class="node">
<title>msitools</title>
<g id="a_node40"><a xlink:href="https://github.com/conda-forge/msitools-feedstock" xlink:title="msitools">
<ellipse fill="#fde725" stroke="black" cx="636.68" cy="-18" rx="41" ry="18"/>
<text text-anchor="middle" x="636.68" y="-14.3" font-family="Times,serif" font-size="14.00">msitools</text>
</a>
</g>
</g>
<!-- gcab&#45;&gt;msitools -->
<g id="edge49" class="edge">
<title>gcab&#45;&gt;msitools</title>
<path fill="none" stroke="black" d="M636.68,-71.7C636.68,-63.98 636.68,-54.71 636.68,-46.11"/>
<polygon fill="black" stroke="black" points="640.18,-46.1 636.68,-36.1 633.18,-46.1 640.18,-46.1"/>
</g>
<!-- magics&#45;metview&#45;batch -->
<g id="node42" class="node">
<title>magics&#45;metview&#45;batch</title>
<g id="a_node42"><a xlink:href="https://github.com/conda-forge/magics-metview-batch-feedstock" xlink:title="magics metview batch">
<ellipse fill="#35b779" stroke="black" cx="1372.68" cy="-134" rx="91" ry="18"/>
<text text-anchor="middle" x="1372.68" y="-130.3" font-family="Times,serif" font-size="14.00">magics metview batch</text>
</a>
</g>
</g>
<!-- libignition&#45;common&#45;&gt;magics&#45;metview&#45;batch -->
</g>
</svg>
