<?xml version="1.0" encoding="UTF-8" standalone="no"?>
<!DOCTYPE svg PUBLIC "-//W3C//DTD SVG 1.1//EN"
 "http://www.w3.org/Graphics/SVG/1.1/DTD/svg11.dtd">
<!-- Generated by graphviz version 2.42.3 (20191010.1750)
 -->
<!-- Title: %3 Pages: 1 -->
<svg width="2104pt" height="664pt"
 viewBox="0.00 0.00 2104.00 664.00" xmlns="http://www.w3.org/2000/svg" xmlns:xlink="http://www.w3.org/1999/xlink">
<g id="graph0" class="graph" transform="scale(1 1) rotate(0) translate(4 660)">
<title>%3</title>
<polygon fill="white" stroke="transparent" points="-4,4 -4,-660 2100,-660 2100,4 -4,4"/>
<!-- cyclus -->
<g id="node1" class="node">
<title>cyclus</title>
<g id="a_node1"><a xlink:href="https://github.com/conda-forge/cyclus-feedstock" xlink:title="cyclus">
<ellipse fill="#fde725" stroke="black" cx="889" cy="-18" rx="33.29" ry="18"/>
<text text-anchor="middle" x="889" y="-14.3" font-family="Times,serif" font-size="14.00">cyclus</text>
</a>
</g>
</g>
<!-- emacs -->
<g id="node2" class="node">
<title>emacs</title>
<g id="a_node2"><a xlink:href="https://github.com/conda-forge/emacs-feedstock" xlink:title="emacs">
<ellipse fill="#fde725" stroke="black" cx="850" cy="-350" rx="33.29" ry="18"/>
<text text-anchor="middle" x="850" y="-346.3" font-family="Times,serif" font-size="14.00">emacs</text>
</a>
</g>
</g>
<!-- gdk&#45;pixbuf -->
<g id="node3" class="node">
<title>gdk&#45;pixbuf</title>
<g id="a_node3"><a xlink:href="https://github.com/conda-forge/gdk-pixbuf-feedstock" xlink:title="gdk pixbuf">
<ellipse fill="#fde725" stroke="black" cx="794" cy="-494" rx="49.5" ry="18"/>
<text text-anchor="middle" x="794" y="-490.3" font-family="Times,serif" font-size="14.00">gdk pixbuf</text>
</a>
</g>
</g>
<!-- librsvg -->
<g id="node4" class="node">
<title>librsvg</title>
<g id="a_node4"><a xlink:href="https://github.com/conda-forge/librsvg-feedstock" xlink:title="librsvg">
<ellipse fill="#fde725" stroke="black" cx="767" cy="-422" rx="35.19" ry="18"/>
<text text-anchor="middle" x="767" y="-418.3" font-family="Times,serif" font-size="14.00">librsvg</text>
</a>
</g>
</g>
<!-- gdk&#45;pixbuf&#45;&gt;librsvg -->
<g id="edge1" class="edge">
<title>gdk&#45;pixbuf&#45;&gt;librsvg</title>
<path fill="none" stroke="black" d="M787.46,-476.05C784.38,-468.06 780.63,-458.33 777.18,-449.4"/>
<polygon fill="black" stroke="black" points="780.34,-447.86 773.48,-439.79 773.81,-450.38 780.34,-447.86"/>
</g>
<!-- gtk2 -->
<g id="node5" class="node">
<title>gtk2</title>
<g id="a_node5"><a xlink:href="https://github.com/conda-forge/gtk2-feedstock" xlink:title="gtk2">
<ellipse fill="#fde725" stroke="black" cx="885" cy="-422" rx="27" ry="18"/>
<text text-anchor="middle" x="885" y="-418.3" font-family="Times,serif" font-size="14.00">gtk2</text>
</a>
</g>
</g>
<!-- gdk&#45;pixbuf&#45;&gt;gtk2 -->
<g id="edge2" class="edge">
<title>gdk&#45;pixbuf&#45;&gt;gtk2</title>
<path fill="none" stroke="black" d="M814.2,-477.46C827.68,-467.09 845.5,-453.38 859.9,-442.31"/>
<polygon fill="black" stroke="black" points="862.12,-445.01 867.92,-436.14 857.86,-439.46 862.12,-445.01"/>
</g>
<!-- openslide -->
<g id="node6" class="node">
<title>openslide</title>
<g id="a_node6"><a xlink:href="https://github.com/conda-forge/openslide-feedstock" xlink:title="openslide">
<ellipse fill="#fde725" stroke="black" cx="974" cy="-422" rx="44.39" ry="18"/>
<text text-anchor="middle" x="974" y="-418.3" font-family="Times,serif" font-size="14.00">openslide</text>
</a>
</g>
</g>
<!-- gdk&#45;pixbuf&#45;&gt;openslide -->
<g id="edge3" class="edge">
<title>gdk&#45;pixbuf&#45;&gt;openslide</title>
<path fill="none" stroke="black" d="M826.6,-480.32C856.62,-468.65 901.27,-451.28 933.56,-438.73"/>
<polygon fill="black" stroke="black" points="935.1,-441.88 943.15,-435 932.56,-435.36 935.1,-441.88"/>
</g>
<!-- libvips -->
<g id="node7" class="node">
<title>libvips</title>
<g id="a_node7"><a xlink:href="https://github.com/conda-forge/libvips-feedstock" xlink:title="libvips">
<ellipse fill="#fde725" stroke="black" cx="1046" cy="-350" rx="34.5" ry="18"/>
<text text-anchor="middle" x="1046" y="-346.3" font-family="Times,serif" font-size="14.00">libvips</text>
</a>
</g>
</g>
<!-- gdk&#45;pixbuf&#45;&gt;libvips -->
<g id="edge4" class="edge">
<title>gdk&#45;pixbuf&#45;&gt;libvips</title>
<path fill="none" stroke="black" d="M799.83,-476.08C807.72,-455.76 823.8,-422.15 849,-404 905.69,-363.17 935.26,-388.64 1002,-368 1004.62,-367.19 1007.31,-366.3 1010.01,-365.36"/>
<polygon fill="black" stroke="black" points="1011.48,-368.55 1019.68,-361.85 1009.09,-361.97 1011.48,-368.55"/>
</g>
<!-- gtk3 -->
<g id="node8" class="node">
<title>gtk3</title>
<g id="a_node8"><a xlink:href="https://github.com/conda-forge/gtk3-feedstock" xlink:title="gtk3">
<ellipse fill="#fde725" stroke="black" cx="535" cy="-422" rx="27" ry="18"/>
<text text-anchor="middle" x="535" y="-418.3" font-family="Times,serif" font-size="14.00">gtk3</text>
</a>
</g>
</g>
<!-- gdk&#45;pixbuf&#45;&gt;gtk3 -->
<g id="edge5" class="edge">
<title>gdk&#45;pixbuf&#45;&gt;gtk3</title>
<path fill="none" stroke="black" d="M755.5,-482.6C705.12,-468.98 617.56,-445.31 569.33,-432.28"/>
<polygon fill="black" stroke="black" points="570.23,-428.9 559.66,-429.67 568.4,-435.65 570.23,-428.9"/>
</g>
<!-- gtkmm -->
<g id="node9" class="node">
<title>gtkmm</title>
<g id="a_node9"><a xlink:href="https://github.com/conda-forge/gtkmm-feedstock" xlink:title="gtkmm">
<ellipse fill="#fde725" stroke="black" cx="451" cy="-350" rx="36.5" ry="18"/>
<text text-anchor="middle" x="451" y="-346.3" font-family="Times,serif" font-size="14.00">gtkmm</text>
</a>
</g>
</g>
<!-- gdk&#45;pixbuf&#45;&gt;gtkmm -->
<g id="edge6" class="edge">
<title>gdk&#45;pixbuf&#45;&gt;gtkmm</title>
<path fill="none" stroke="black" d="M746.02,-489.42C672.84,-483.14 537.71,-468.05 499,-440 478.2,-424.93 465.5,-398.02 458.43,-377.73"/>
<polygon fill="black" stroke="black" points="461.73,-376.53 455.32,-368.09 455.06,-378.69 461.73,-376.53"/>
</g>
<!-- wxwidgets -->
<g id="node10" class="node">
<title>wxwidgets</title>
<g id="a_node10"><a xlink:href="https://github.com/conda-forge/wxwidgets-feedstock" xlink:title="wxwidgets">
<ellipse fill="#fde725" stroke="black" cx="750" cy="-350" rx="48.99" ry="18"/>
<text text-anchor="middle" x="750" y="-346.3" font-family="Times,serif" font-size="14.00">wxwidgets</text>
</a>
</g>
</g>
<!-- gdk&#45;pixbuf&#45;&gt;wxwidgets -->
<g id="edge7" class="edge">
<title>gdk&#45;pixbuf&#45;&gt;wxwidgets</title>
<path fill="none" stroke="black" d="M764.39,-479.28C749.02,-470.44 731.69,-457.33 723,-440 712.78,-419.63 722.04,-394.66 732.41,-376.36"/>
<polygon fill="black" stroke="black" points="735.46,-378.08 737.66,-367.71 729.48,-374.44 735.46,-378.08"/>
</g>
<!-- librsvg&#45;&gt;emacs -->
<g id="edge8" class="edge">
<title>librsvg&#45;&gt;emacs</title>
<path fill="none" stroke="black" d="M784.6,-406.15C796.35,-396.25 811.96,-383.08 824.99,-372.09"/>
<polygon fill="black" stroke="black" points="827.32,-374.71 832.71,-365.58 822.81,-369.36 827.32,-374.71"/>
</g>
<!-- librsvg&#45;&gt;libvips -->
<g id="edge9" class="edge">
<title>librsvg&#45;&gt;libvips</title>
<path fill="none" stroke="black" d="M794.51,-410.68C801.46,-408.29 808.96,-405.89 816,-404 897.32,-382.14 921.08,-391.26 1002,-368 1004.64,-367.24 1007.34,-366.39 1010.05,-365.48"/>
<polygon fill="black" stroke="black" points="1011.5,-368.68 1019.74,-362.02 1009.14,-362.09 1011.5,-368.68"/>
</g>
<!-- gtk2&#45;&gt;libvips -->
<g id="edge10" class="edge">
<title>gtk2&#45;&gt;libvips</title>
<path fill="none" stroke="black" d="M906.25,-410.79C911.09,-408.52 916.21,-406.15 921,-404 950.82,-390.65 984.99,-376.22 1010.06,-365.79"/>
<polygon fill="black" stroke="black" points="1011.63,-368.93 1019.53,-361.86 1008.95,-362.46 1011.63,-368.93"/>
</g>
<!-- gnuplot -->
<g id="node11" class="node">
<title>gnuplot</title>
<g id="a_node11"><a xlink:href="https://github.com/conda-forge/gnuplot-feedstock" xlink:title="gnuplot">
<ellipse fill="#fde725" stroke="black" cx="1422" cy="-350" rx="37.89" ry="18"/>
<text text-anchor="middle" x="1422" y="-346.3" font-family="Times,serif" font-size="14.00">gnuplot</text>
</a>
</g>
</g>
<!-- gtk2&#45;&gt;gnuplot -->
<g id="edge11" class="edge">
<title>gtk2&#45;&gt;gnuplot</title>
<path fill="none" stroke="black" d="M905.48,-409.88C910.44,-407.6 915.81,-405.46 921,-404 1082.62,-358.7 1283.46,-351.53 1373.9,-350.78"/>
<polygon fill="black" stroke="black" points="1374.13,-354.28 1384.11,-350.72 1374.09,-347.28 1374.13,-354.28"/>
</g>
<!-- wxpython -->
<g id="node12" class="node">
<title>wxpython</title>
<g id="a_node12"><a xlink:href="https://github.com/conda-forge/wxpython-feedstock" xlink:title="wxpython">
<ellipse fill="#fde725" stroke="black" cx="947" cy="-350" rx="46.29" ry="18"/>
<text text-anchor="middle" x="947" y="-346.3" font-family="Times,serif" font-size="14.00">wxpython</text>
</a>
</g>
</g>
<!-- gtk2&#45;&gt;wxpython -->
<g id="edge12" class="edge">
<title>gtk2&#45;&gt;wxpython</title>
<path fill="none" stroke="black" d="M898.15,-406.15C906.19,-397.07 916.67,-385.24 925.86,-374.87"/>
<polygon fill="black" stroke="black" points="928.56,-377.1 932.57,-367.29 923.32,-372.46 928.56,-377.1"/>
</g>
<!-- openslide&#45;&gt;libvips -->
<g id="edge13" class="edge">
<title>openslide&#45;&gt;libvips</title>
<path fill="none" stroke="black" d="M990.34,-405.12C999.95,-395.77 1012.27,-383.79 1022.87,-373.49"/>
<polygon fill="black" stroke="black" points="1025.49,-375.82 1030.22,-366.34 1020.61,-370.8 1025.49,-375.82"/>
</g>
<!-- gtk3&#45;&gt;gtkmm -->
<g id="edge14" class="edge">
<title>gtk3&#45;&gt;gtkmm</title>
<path fill="none" stroke="black" d="M518.8,-407.5C506.85,-397.54 490.34,-383.78 476.6,-372.34"/>
<polygon fill="black" stroke="black" points="478.81,-369.62 468.89,-365.91 474.33,-375 478.81,-369.62"/>
</g>
<!-- gtk3&#45;&gt;wxwidgets -->
<g id="edge15" class="edge">
<title>gtk3&#45;&gt;wxwidgets</title>
<path fill="none" stroke="black" d="M556.98,-411.43C563.09,-408.89 569.76,-406.24 576,-404 599.44,-395.59 660.04,-377.43 703.12,-364.72"/>
<polygon fill="black" stroke="black" points="704.23,-368.04 712.84,-361.86 702.26,-361.33 704.23,-368.04"/>
</g>
<!-- pygobject -->
<g id="node13" class="node">
<title>pygobject</title>
<g id="a_node13"><a xlink:href="https://github.com/conda-forge/pygobject-feedstock" xlink:title="pygobject">
<ellipse fill="#fde725" stroke="black" cx="638" cy="-350" rx="45.5" ry="18"/>
<text text-anchor="middle" x="638" y="-346.3" font-family="Times,serif" font-size="14.00">pygobject</text>
</a>
</g>
</g>
<!-- gtk3&#45;&gt;pygobject -->
<g id="edge16" class="edge">
<title>gtk3&#45;&gt;pygobject</title>
<path fill="none" stroke="black" d="M553.41,-408.49C568.53,-398.21 590.24,-383.46 607.89,-371.47"/>
<polygon fill="black" stroke="black" points="609.87,-374.35 616.17,-365.83 605.93,-368.56 609.87,-374.35"/>
</g>
<!-- stoken -->
<g id="node14" class="node">
<title>stoken</title>
<g id="a_node14"><a xlink:href="https://github.com/conda-forge/stoken-feedstock" xlink:title="stoken">
<ellipse fill="#fde725" stroke="black" cx="540" cy="-350" rx="34" ry="18"/>
<text text-anchor="middle" x="540" y="-346.3" font-family="Times,serif" font-size="14.00">stoken</text>
</a>
</g>
</g>
<!-- gtk3&#45;&gt;stoken -->
<g id="edge17" class="edge">
<title>gtk3&#45;&gt;stoken</title>
<path fill="none" stroke="black" d="M536.24,-403.7C536.79,-395.98 537.45,-386.71 538.06,-378.11"/>
<polygon fill="black" stroke="black" points="541.56,-378.33 538.78,-368.1 534.57,-377.83 541.56,-378.33"/>
</g>
<!-- cadabra2 -->
<g id="node15" class="node">
<title>cadabra2</title>
<g id="a_node15"><a xlink:href="https://github.com/conda-forge/cadabra2-feedstock" xlink:title="cadabra2">
<ellipse fill="#fde725" stroke="black" cx="269" cy="-278" rx="42.49" ry="18"/>
<text text-anchor="middle" x="269" y="-274.3" font-family="Times,serif" font-size="14.00">cadabra2</text>
</a>
</g>
</g>
<!-- gtkmm&#45;&gt;cadabra2 -->
<g id="edge18" class="edge">
<title>gtkmm&#45;&gt;cadabra2</title>
<path fill="none" stroke="black" d="M422.96,-338.22C392.47,-326.49 343.48,-307.64 308.96,-294.37"/>
<polygon fill="black" stroke="black" points="309.78,-290.94 299.19,-290.61 307.27,-297.47 309.78,-290.94"/>
</g>
<!-- octave -->
<g id="node16" class="node">
<title>octave</title>
<g id="a_node16"><a xlink:href="https://github.com/conda-forge/octave-feedstock" xlink:title="octave">
<ellipse fill="#fde725" stroke="black" cx="1426" cy="-278" rx="34" ry="18"/>
<text text-anchor="middle" x="1426" y="-274.3" font-family="Times,serif" font-size="14.00">octave</text>
</a>
</g>
</g>
<!-- gnuplot&#45;&gt;octave -->
<g id="edge19" class="edge">
<title>gnuplot&#45;&gt;octave</title>
<path fill="none" stroke="black" d="M1422.99,-331.7C1423.43,-323.98 1423.96,-314.71 1424.45,-306.11"/>
<polygon fill="black" stroke="black" points="1427.95,-306.29 1425.02,-296.1 1420.96,-305.89 1427.95,-306.29"/>
</g>
<!-- gst&#45;python -->
<g id="node19" class="node">
<title>gst&#45;python</title>
<g id="a_node19"><a xlink:href="https://github.com/conda-forge/gst-python-feedstock" xlink:title="gst python">
<ellipse fill="#fde725" stroke="black" cx="1142" cy="-278" rx="48.19" ry="18"/>
<text text-anchor="middle" x="1142" y="-274.3" font-family="Times,serif" font-size="14.00">gst python</text>
</a>
</g>
</g>
<!-- pygobject&#45;&gt;gst&#45;python -->
<g id="edge55" class="edge">
<title>pygobject&#45;&gt;gst&#45;python</title>
<path fill="none" stroke="black" d="M670.85,-337.5C677.77,-335.4 685.07,-333.43 692,-332 845.14,-300.36 887.06,-317.12 1042,-296 1057.6,-293.87 1074.5,-291.16 1089.9,-288.53"/>
<polygon fill="black" stroke="black" points="1090.51,-291.97 1099.76,-286.81 1089.31,-285.08 1090.51,-291.97"/>
</g>
<!-- gstlal&#45;ugly -->
<g id="node20" class="node">
<title>gstlal&#45;ugly</title>
<g id="a_node20"><a xlink:href="https://github.com/conda-forge/gstlal-ugly-feedstock" xlink:title="gstlal ugly">
<ellipse fill="#fde725" stroke="black" cx="1237" cy="-206" rx="48.19" ry="18"/>
<text text-anchor="middle" x="1237" y="-202.3" font-family="Times,serif" font-size="14.00">gstlal ugly</text>
</a>
</g>
</g>
<!-- pygobject&#45;&gt;gstlal&#45;ugly -->
<g id="edge56" class="edge">
<title>pygobject&#45;&gt;gstlal&#45;ugly</title>
<path fill="none" stroke="black" d="M670.81,-337.33C677.74,-335.25 685.05,-333.32 692,-332 802.96,-310.9 1107.01,-361.54 1199,-296 1219.04,-281.72 1228.59,-254.65 1233.09,-234.09"/>
<polygon fill="black" stroke="black" points="1236.57,-234.52 1235.01,-224.04 1229.7,-233.21 1236.57,-234.52"/>
</g>
<!-- gstlal&#45;burst -->
<g id="node21" class="node">
<title>gstlal&#45;burst</title>
<g id="a_node21"><a xlink:href="https://github.com/conda-forge/gstlal-burst-feedstock" xlink:title="gstlal burst">
<ellipse fill="#fde725" stroke="black" cx="1047" cy="-134" rx="50.09" ry="18"/>
<text text-anchor="middle" x="1047" y="-130.3" font-family="Times,serif" font-size="14.00">gstlal burst</text>
</a>
</g>
</g>
<!-- pygobject&#45;&gt;gstlal&#45;burst -->
<g id="edge57" class="edge">
<title>pygobject&#45;&gt;gstlal&#45;burst</title>
<path fill="none" stroke="black" d="M664.52,-335.12C735.37,-298.05 929.17,-196.65 1010.41,-154.15"/>
<polygon fill="black" stroke="black" points="1012.5,-157 1019.74,-149.26 1009.26,-150.8 1012.5,-157"/>
</g>
<!-- gstlal&#45;inspiral -->
<g id="node22" class="node">
<title>gstlal&#45;inspiral</title>
<g id="a_node22"><a xlink:href="https://github.com/conda-forge/gstlal-inspiral-feedstock" xlink:title="gstlal inspiral">
<ellipse fill="#fde725" stroke="black" cx="1237" cy="-134" rx="58.5" ry="18"/>
<text text-anchor="middle" x="1237" y="-130.3" font-family="Times,serif" font-size="14.00">gstlal inspiral</text>
</a>
</g>
</g>
<!-- pygobject&#45;&gt;gstlal&#45;inspiral -->
<g id="edge58" class="edge">
<title>pygobject&#45;&gt;gstlal&#45;inspiral</title>
<path fill="none" stroke="black" d="M671.02,-337.49C701.62,-326.8 748.42,-310.41 789,-296 936.25,-243.7 1110.35,-180.84 1191.33,-151.54"/>
<polygon fill="black" stroke="black" points="1192.53,-154.83 1200.74,-148.13 1190.14,-148.25 1192.53,-154.83"/>
</g>
<!-- gstlal&#45;calibration -->
<g id="node23" class="node">
<title>gstlal&#45;calibration</title>
<g id="a_node23"><a xlink:href="https://github.com/conda-forge/gstlal-calibration-feedstock" xlink:title="gstlal calibration">
<ellipse fill="#fde725" stroke="black" cx="292" cy="-206" rx="69.59" ry="18"/>
<text text-anchor="middle" x="292" y="-202.3" font-family="Times,serif" font-size="14.00">gstlal calibration</text>
</a>
</g>
</g>
<!-- pygobject&#45;&gt;gstlal&#45;calibration -->
<g id="edge59" class="edge">
<title>pygobject&#45;&gt;gstlal&#45;calibration</title>
<path fill="none" stroke="black" d="M628.02,-332.25C614.9,-311.77 589.83,-277.67 559,-260 501.49,-227.04 426.84,-214.29 371.1,-209.49"/>
<polygon fill="black" stroke="black" points="371.17,-205.99 360.92,-208.69 370.62,-212.97 371.17,-205.99"/>
</g>
<!-- numcosmo -->
<g id="node26" class="node">
<title>numcosmo</title>
<g id="a_node26"><a xlink:href="https://github.com/conda-forge/numcosmo-feedstock" xlink:title="numcosmo">
<ellipse fill="#fde725" stroke="black" cx="500" cy="-278" rx="50.09" ry="18"/>
<text text-anchor="middle" x="500" y="-274.3" font-family="Times,serif" font-size="14.00">numcosmo</text>
</a>
</g>
</g>
<!-- pygobject&#45;&gt;numcosmo -->
<g id="edge60" class="edge">
<title>pygobject&#45;&gt;numcosmo</title>
<path fill="none" stroke="black" d="M611.06,-335.34C589.88,-324.59 560.13,-309.5 536.75,-297.64"/>
<polygon fill="black" stroke="black" points="538.32,-294.51 527.81,-293.11 535.15,-300.75 538.32,-294.51"/>
</g>
<!-- hkl -->
<g id="node32" class="node">
<title>hkl</title>
<g id="a_node32"><a xlink:href="https://github.com/conda-forge/hkl-feedstock" xlink:title="hkl">
<ellipse fill="#fde725" stroke="black" cx="690" cy="-278" rx="27" ry="18"/>
<text text-anchor="middle" x="690" y="-274.3" font-family="Times,serif" font-size="14.00">hkl</text>
</a>
</g>
</g>
<!-- pygobject&#45;&gt;hkl -->
<g id="edge61" class="edge">
<title>pygobject&#45;&gt;hkl</title>
<path fill="none" stroke="black" d="M650.32,-332.41C656.92,-323.53 665.16,-312.44 672.42,-302.67"/>
<polygon fill="black" stroke="black" points="675.32,-304.63 678.48,-294.51 669.7,-300.45 675.32,-304.63"/>
</g>
<!-- libmodulemd -->
<g id="node33" class="node">
<title>libmodulemd</title>
<g id="a_node33"><a xlink:href="https://github.com/conda-forge/libmodulemd-feedstock" xlink:title="libmodulemd">
<ellipse fill="#fde725" stroke="black" cx="635" cy="-206" rx="58.5" ry="18"/>
<text text-anchor="middle" x="635" y="-202.3" font-family="Times,serif" font-size="14.00">libmodulemd</text>
</a>
</g>
</g>
<!-- pygobject&#45;&gt;libmodulemd -->
<g id="edge62" class="edge">
<title>pygobject&#45;&gt;libmodulemd</title>
<path fill="none" stroke="black" d="M637.64,-331.87C637.13,-307.67 636.19,-263.21 635.58,-234.39"/>
<polygon fill="black" stroke="black" points="639.07,-234.11 635.36,-224.19 632.08,-234.26 639.07,-234.11"/>
</g>
<!-- gstreamer -->
<g id="node17" class="node">
<title>gstreamer</title>
<g id="a_node17"><a xlink:href="https://github.com/conda-forge/gstreamer-feedstock/pull/42" xlink:title="gstreamer ❎">
<ellipse fill="#31688e" stroke="black" cx="1046" cy="-638" rx="58" ry="18"/>
<text text-anchor="middle" x="1046" y="-634.3" font-family="Times,serif" font-size="14.00" fill="white">gstreamer ❎</text>
</a>
</g>
</g>
<!-- gstreamer&#45;&gt;wxpython -->
<g id="edge21" class="edge">
<title>gstreamer&#45;&gt;wxpython</title>
<path fill="none" stroke="black" d="M992.06,-631.31C921.39,-620.81 798.97,-591.61 735,-512 704.75,-474.35 692.62,-441.54 723,-404 771.32,-344.31 817.68,-387.36 892,-368 895.6,-367.06 899.31,-366.04 903.03,-364.97"/>
<polygon fill="black" stroke="black" points="904.21,-368.28 912.81,-362.09 902.23,-361.56 904.21,-368.28"/>
</g>
<!-- qt -->
<g id="node18" class="node">
<title>qt</title>
<g id="a_node18"><a xlink:href="https://github.com/conda-forge/qt-feedstock" xlink:title="qt">
<ellipse fill="#fde725" stroke="black" cx="1046" cy="-566" rx="27" ry="18"/>
<text text-anchor="middle" x="1046" y="-562.3" font-family="Times,serif" font-size="14.00">qt</text>
</a>
</g>
</g>
<!-- gstreamer&#45;&gt;qt -->
<g id="edge20" class="edge">
<title>gstreamer&#45;&gt;qt</title>
<path fill="none" stroke="black" d="M1046,-619.7C1046,-611.98 1046,-602.71 1046,-594.11"/>
<polygon fill="black" stroke="black" points="1049.5,-594.1 1046,-584.1 1042.5,-594.1 1049.5,-594.1"/>
</g>
<!-- gstreamer&#45;&gt;gst&#45;python -->
<g id="edge22" class="edge">
<title>gstreamer&#45;&gt;gst&#45;python</title>
<path fill="none" stroke="black" d="M1099.02,-630.7C1214.97,-615.87 1485.86,-575.19 1550,-512 1573.58,-488.77 1564.74,-472.82 1569,-440 1575.18,-392.4 1600.78,-367.97 1569,-332 1556.86,-318.26 1312.1,-294.41 1198.73,-284.05"/>
<polygon fill="black" stroke="black" points="1198.79,-280.54 1188.51,-283.12 1198.15,-287.51 1198.79,-280.54"/>
</g>
<!-- gstreamer&#45;&gt;gstlal&#45;ugly -->
<g id="edge23" class="edge">
<title>gstreamer&#45;&gt;gstlal&#45;ugly</title>
<path fill="none" stroke="black" d="M1103.98,-637.4C1270.77,-637.02 1740,-624.44 1740,-495 1740,-495 1740,-495 1740,-421 1740,-344.32 1738.51,-307.1 1678,-260 1619.7,-214.62 1401.6,-207.48 1295.58,-206.76"/>
<polygon fill="black" stroke="black" points="1295.39,-203.26 1285.38,-206.71 1295.36,-210.26 1295.39,-203.26"/>
</g>
<!-- gstreamer&#45;&gt;gstlal&#45;burst -->
<g id="edge24" class="edge">
<title>gstreamer&#45;&gt;gstlal&#45;burst</title>
<path fill="none" stroke="black" d="M988.35,-635.6C798.8,-630.75 202.3,-613.28 121,-584 58.19,-561.38 0,-561.76 0,-495 0,-495 0,-495 0,-277 0,-174.4 113.09,-211.35 213,-188 250.63,-179.2 803.49,-148.33 987.75,-138.23"/>
<polygon fill="black" stroke="black" points="988,-141.72 997.8,-137.68 987.62,-134.73 988,-141.72"/>
</g>
<!-- gstreamer&#45;&gt;gstlal&#45;inspiral -->
<g id="edge25" class="edge">
<title>gstreamer&#45;&gt;gstlal&#45;inspiral</title>
<path fill="none" stroke="black" d="M1104.08,-637.09C1241.38,-636.52 1582.1,-630.33 1685,-584 1737.17,-560.51 1778,-552.21 1778,-495 1778,-495 1778,-495 1778,-277 1778,-180.1 1449.17,-147.98 1304.24,-138.53"/>
<polygon fill="black" stroke="black" points="1304.33,-135.03 1294.13,-137.89 1303.89,-142.02 1304.33,-135.03"/>
</g>
<!-- gstreamer&#45;&gt;gstlal&#45;calibration -->
<g id="edge26" class="edge">
<title>gstreamer&#45;&gt;gstlal&#45;calibration</title>
<path fill="none" stroke="black" d="M988.55,-635.01C774.84,-626.85 38,-591.7 38,-495 38,-495 38,-495 38,-349 38,-302.96 54.23,-287.71 91,-260 126.87,-232.97 175.37,-219.7 215.74,-213.19"/>
<polygon fill="black" stroke="black" points="216.44,-216.62 225.81,-211.68 215.4,-209.7 216.44,-216.62"/>
</g>
<!-- qt&#45;&gt;emacs -->
<g id="edge27" class="edge">
<title>qt&#45;&gt;emacs</title>
<path fill="none" stroke="black" d="M1019.11,-564.28C951.07,-561.88 774.72,-551.87 735,-512 700.91,-477.79 696.22,-444.19 723,-404 723.69,-402.96 777.28,-380.83 814.61,-365.49"/>
<polygon fill="black" stroke="black" points="816.26,-368.6 824.18,-361.57 813.6,-362.13 816.26,-368.6"/>
</g>
<!-- qt&#45;&gt;gdk&#45;pixbuf -->
<g id="edge28" class="edge">
<title>qt&#45;&gt;gdk&#45;pixbuf</title>
<path fill="none" stroke="black" d="M1021.38,-558.16C979.96,-546.66 895.63,-523.23 842.12,-508.37"/>
<polygon fill="black" stroke="black" points="842.76,-504.91 832.18,-505.61 840.88,-511.66 842.76,-504.91"/>
</g>
<!-- qt&#45;&gt;gtk2 -->
<g id="edge29" class="edge">
<title>qt&#45;&gt;gtk2</title>
<path fill="none" stroke="black" d="M1030.27,-551.13C1001.82,-526.04 941.69,-473 908.41,-443.64"/>
<polygon fill="black" stroke="black" points="910.37,-440.71 900.56,-436.72 905.74,-445.96 910.37,-440.71"/>
</g>
<!-- qt&#45;&gt;openslide -->
<g id="edge30" class="edge">
<title>qt&#45;&gt;openslide</title>
<path fill="none" stroke="black" d="M1037.74,-548.71C1025.4,-524.36 1002.01,-478.24 987.25,-449.14"/>
<polygon fill="black" stroke="black" points="990.25,-447.31 982.61,-439.98 984.01,-450.48 990.25,-447.31"/>
</g>
<!-- qt&#45;&gt;libvips -->
<g id="edge31" class="edge">
<title>qt&#45;&gt;libvips</title>
<path fill="none" stroke="black" d="M1046,-547.85C1046,-510.83 1046,-423.18 1046,-378.39"/>
<polygon fill="black" stroke="black" points="1049.5,-378.23 1046,-368.23 1042.5,-378.23 1049.5,-378.23"/>
</g>
<!-- qt&#45;&gt;wxwidgets -->
<g id="edge32" class="edge">
<title>qt&#45;&gt;wxwidgets</title>
<path fill="none" stroke="black" d="M1018.8,-564.98C945.79,-564.31 748.2,-558.16 707,-512 675.03,-476.18 687.2,-448.98 704,-404 708.11,-392.99 715.66,-382.75 723.46,-374.27"/>
<polygon fill="black" stroke="black" points="726.1,-376.58 730.62,-367 721.11,-371.67 726.1,-376.58"/>
</g>
<!-- qt&#45;&gt;gnuplot -->
<g id="edge33" class="edge">
<title>qt&#45;&gt;gnuplot</title>
<path fill="none" stroke="black" d="M1072.96,-564.98C1150.05,-564.35 1369.14,-558.42 1420,-512 1456.64,-478.55 1443.44,-414.1 1431.89,-377.71"/>
<polygon fill="black" stroke="black" points="1435.07,-376.18 1428.57,-367.81 1428.43,-378.4 1435.07,-376.18"/>
</g>
<!-- qt&#45;&gt;cadabra2 -->
<g id="edge45" class="edge">
<title>qt&#45;&gt;cadabra2</title>
<path fill="none" stroke="black" d="M1018.98,-564.62C886.09,-562.54 305.47,-551.27 236,-512 164.98,-471.85 157.08,-401.38 200,-332 208.46,-318.33 221.81,-306.86 234.52,-298.13"/>
<polygon fill="black" stroke="black" points="236.67,-300.91 243.16,-292.53 232.86,-295.04 236.67,-300.91"/>
</g>
<!-- qt&#45;&gt;octave -->
<g id="edge34" class="edge">
<title>qt&#45;&gt;octave</title>
<path fill="none" stroke="black" d="M1072.96,-565.02C1138.52,-564.31 1310.76,-557.84 1445,-512 1505.31,-491.41 1537.2,-495.23 1569,-440 1592.95,-398.4 1596.42,-371.4 1569,-332 1565.81,-327.42 1504.88,-305.91 1463.59,-291.74"/>
<polygon fill="black" stroke="black" points="1464.67,-288.41 1454.08,-288.49 1462.4,-295.03 1464.67,-288.41"/>
</g>
<!-- qt&#45;&gt;gstlal&#45;ugly -->
<g id="edge35" class="edge">
<title>qt&#45;&gt;gstlal&#45;ugly</title>
<path fill="none" stroke="black" d="M1073.22,-565.17C1113.6,-563.9 1189.21,-555.4 1232,-512 1260.76,-482.83 1256,-463.97 1256,-423 1256,-423 1256,-423 1256,-349 1256,-308.64 1248.37,-262.39 1242.78,-233.94"/>
<polygon fill="black" stroke="black" points="1246.17,-233.06 1240.75,-223.95 1239.31,-234.45 1246.17,-233.06"/>
</g>
<!-- qt&#45;&gt;gstlal&#45;burst -->
<g id="edge36" class="edge">
<title>qt&#45;&gt;gstlal&#45;burst</title>
<path fill="none" stroke="black" d="M1071.72,-559.84C1097.81,-553.25 1137.49,-539.26 1160,-512 1190.99,-474.48 1194.94,-449.62 1178,-404 1155.96,-344.62 1113.76,-352.44 1085,-296 1062.86,-252.55 1053.37,-195.91 1049.49,-162.69"/>
<polygon fill="black" stroke="black" points="1052.93,-161.94 1048.38,-152.37 1045.97,-162.69 1052.93,-161.94"/>
</g>
<!-- qt&#45;&gt;gstlal&#45;inspiral -->
<g id="edge37" class="edge">
<title>qt&#45;&gt;gstlal&#45;inspiral</title>
<path fill="none" stroke="black" d="M1072.94,-564.83C1165.06,-563.83 1466.36,-557.1 1550,-512 1648.22,-459.04 1653.28,-404.82 1678,-296 1681.55,-280.4 1687.65,-272.76 1678,-260 1632.28,-199.52 1410.29,-159.82 1299.77,-143.47"/>
<polygon fill="black" stroke="black" points="1300.15,-139.99 1289.75,-142.01 1299.14,-146.92 1300.15,-139.99"/>
</g>
<!-- qt&#45;&gt;gstlal&#45;calibration -->
<g id="edge38" class="edge">
<title>qt&#45;&gt;gstlal&#45;calibration</title>
<path fill="none" stroke="black" d="M1019.1,-564.26C882.71,-560.41 271.04,-541.59 192,-512 131.14,-489.22 76,-487.98 76,-423 76,-423 76,-423 76,-349 76,-275.3 164.88,-237.73 228.61,-220.25"/>
<polygon fill="black" stroke="black" points="229.83,-223.55 238.61,-217.62 228.04,-216.78 229.83,-223.55"/>
</g>
<!-- magics -->
<g id="node24" class="node">
<title>magics</title>
<g id="a_node24"><a xlink:href="https://github.com/conda-forge/magics-feedstock" xlink:title="magics">
<ellipse fill="#fde725" stroke="black" cx="1375" cy="-494" rx="36.5" ry="18"/>
<text text-anchor="middle" x="1375" y="-490.3" font-family="Times,serif" font-size="14.00">magics</text>
</a>
</g>
</g>
<!-- qt&#45;&gt;magics -->
<g id="edge39" class="edge">
<title>qt&#45;&gt;magics</title>
<path fill="none" stroke="black" d="M1072.32,-561.18C1121.98,-553.71 1232.72,-535.8 1324,-512 1328.11,-510.93 1332.38,-509.7 1336.61,-508.4"/>
<polygon fill="black" stroke="black" points="1337.88,-511.67 1346.34,-505.3 1335.75,-505 1337.88,-511.67"/>
</g>
<!-- poppler -->
<g id="node25" class="node">
<title>poppler</title>
<g id="a_node25"><a xlink:href="https://github.com/conda-forge/poppler-feedstock" xlink:title="poppler">
<ellipse fill="#fde725" stroke="black" cx="1113" cy="-494" rx="37.89" ry="18"/>
<text text-anchor="middle" x="1113" y="-490.3" font-family="Times,serif" font-size="14.00">poppler</text>
</a>
</g>
</g>
<!-- qt&#45;&gt;poppler -->
<g id="edge40" class="edge">
<title>qt&#45;&gt;poppler</title>
<path fill="none" stroke="black" d="M1059.88,-550.5C1068.77,-541.22 1080.49,-528.97 1090.66,-518.34"/>
<polygon fill="black" stroke="black" points="1093.35,-520.59 1097.73,-510.95 1088.29,-515.75 1093.35,-520.59"/>
</g>
<!-- qt&#45;&gt;numcosmo -->
<g id="edge41" class="edge">
<title>qt&#45;&gt;numcosmo</title>
<path fill="none" stroke="black" d="M1018.91,-564.64C890.84,-562.73 349.61,-552.31 287,-512 213.69,-464.8 153.14,-398.95 209,-332 223.85,-314.2 362.47,-295.15 442.91,-285.46"/>
<polygon fill="black" stroke="black" points="443.38,-288.93 452.9,-284.27 442.55,-281.98 443.38,-288.93"/>
</g>
<!-- r&#45;base -->
<g id="node27" class="node">
<title>r&#45;base</title>
<g id="a_node27"><a xlink:href="https://github.com/conda-forge/r-base-feedstock" xlink:title="r base">
<ellipse fill="#fde725" stroke="black" cx="1396" cy="-422" rx="32" ry="18"/>
<text text-anchor="middle" x="1396" y="-418.3" font-family="Times,serif" font-size="14.00">r base</text>
</a>
</g>
</g>
<!-- qt&#45;&gt;r&#45;base -->
<g id="edge42" class="edge">
<title>qt&#45;&gt;r&#45;base</title>
<path fill="none" stroke="black" d="M1072.58,-562.04C1115.64,-556.54 1202.61,-542.39 1270,-512 1290.75,-502.64 1339.52,-466.46 1369.93,-443.21"/>
<polygon fill="black" stroke="black" points="1372.18,-445.89 1377.98,-437.03 1367.92,-440.34 1372.18,-445.89"/>
</g>
<!-- magics&#45;metview -->
<g id="node28" class="node">
<title>magics&#45;metview</title>
<g id="a_node28"><a xlink:href="https://github.com/conda-forge/magics-metview-feedstock" xlink:title="magics metview">
<ellipse fill="#fde725" stroke="black" cx="288" cy="-350" rx="69.59" ry="18"/>
<text text-anchor="middle" x="288" y="-346.3" font-family="Times,serif" font-size="14.00">magics metview</text>
</a>
</g>
</g>
<!-- qt&#45;&gt;magics&#45;metview -->
<g id="edge43" class="edge">
<title>qt&#45;&gt;magics&#45;metview</title>
<path fill="none" stroke="black" d="M1018.74,-565.49C932.07,-566.46 655.53,-564.91 435,-512 352.02,-492.09 304.71,-510.76 257,-440 243.89,-420.56 255.17,-394.99 267.65,-376.25"/>
<polygon fill="black" stroke="black" points="270.63,-378.09 273.57,-367.92 264.93,-374.04 270.63,-378.09"/>
</g>
<!-- magics&#45;metview&#45;batch -->
<g id="node29" class="node">
<title>magics&#45;metview&#45;batch</title>
<g id="a_node29"><a xlink:href="https://github.com/conda-forge/magics-metview-batch-feedstock" xlink:title="magics metview batch">
<ellipse fill="#fde725" stroke="black" cx="1578" cy="-278" rx="91" ry="18"/>
<text text-anchor="middle" x="1578" y="-274.3" font-family="Times,serif" font-size="14.00">magics metview batch</text>
</a>
</g>
</g>
<!-- qt&#45;&gt;magics&#45;metview&#45;batch -->
<g id="edge44" class="edge">
<title>qt&#45;&gt;magics&#45;metview&#45;batch</title>
<path fill="none" stroke="black" d="M1073.01,-563.94C1159.28,-560.22 1427.16,-546.15 1506,-512 1551.43,-492.32 1570.18,-484.92 1591,-440 1611.11,-396.61 1598.66,-339.58 1588.1,-306.34"/>
<polygon fill="black" stroke="black" points="1591.28,-304.8 1584.79,-296.43 1584.64,-307.02 1591.28,-304.8"/>
</g>
<!-- gst&#45;python&#45;&gt;gstlal&#45;ugly -->
<g id="edge46" class="edge">
<title>gst&#45;python&#45;&gt;gstlal&#45;ugly</title>
<path fill="none" stroke="black" d="M1163.08,-261.46C1176.34,-251.7 1193.61,-238.97 1208.13,-228.28"/>
<polygon fill="black" stroke="black" points="1210.33,-231 1216.3,-222.25 1206.18,-225.37 1210.33,-231"/>
</g>
<!-- gst&#45;python&#45;&gt;gstlal&#45;burst -->
<g id="edge47" class="edge">
<title>gst&#45;python&#45;&gt;gstlal&#45;burst</title>
<path fill="none" stroke="black" d="M1130.92,-260.43C1114.42,-235.77 1083.26,-189.2 1063.91,-160.27"/>
<polygon fill="black" stroke="black" points="1066.78,-158.27 1058.31,-151.9 1060.96,-162.16 1066.78,-158.27"/>
</g>
<!-- gst&#45;python&#45;&gt;gstlal&#45;inspiral -->
<g id="edge48" class="edge">
<title>gst&#45;python&#45;&gt;gstlal&#45;inspiral</title>
<path fill="none" stroke="black" d="M1146.95,-259.85C1152.88,-241.1 1164.06,-210.68 1180,-188 1187.85,-176.83 1198.38,-166.23 1208.25,-157.48"/>
<polygon fill="black" stroke="black" points="1210.63,-160.05 1215.96,-150.89 1206.08,-154.73 1210.63,-160.05"/>
</g>
<!-- gst&#45;python&#45;&gt;gstlal&#45;calibration -->
<g id="edge49" class="edge">
<title>gst&#45;python&#45;&gt;gstlal&#45;calibration</title>
<path fill="none" stroke="black" d="M1095.39,-273.16C955.62,-261.65 539.06,-227.35 367.31,-213.2"/>
<polygon fill="black" stroke="black" points="367.35,-209.69 357.09,-212.36 366.77,-216.67 367.35,-209.69"/>
</g>
<!-- gstlal&#45;ugly&#45;&gt;gstlal&#45;burst -->
<g id="edge50" class="edge">
<title>gstlal&#45;ugly&#45;&gt;gstlal&#45;burst</title>
<path fill="none" stroke="black" d="M1203.9,-192.81C1172.45,-181.22 1124.97,-163.73 1090.48,-151.02"/>
<polygon fill="black" stroke="black" points="1091.27,-147.58 1080.67,-147.41 1088.85,-154.15 1091.27,-147.58"/>
</g>
<!-- gstlal&#45;ugly&#45;&gt;gstlal&#45;inspiral -->
<g id="edge51" class="edge">
<title>gstlal&#45;ugly&#45;&gt;gstlal&#45;inspiral</title>
<path fill="none" stroke="black" d="M1237,-187.7C1237,-179.98 1237,-170.71 1237,-162.11"/>
<polygon fill="black" stroke="black" points="1240.5,-162.1 1237,-152.1 1233.5,-162.1 1240.5,-162.1"/>
</g>
<!-- poppler&#45;&gt;libvips -->
<g id="edge53" class="edge">
<title>poppler&#45;&gt;libvips</title>
<path fill="none" stroke="black" d="M1131.06,-478.13C1150.64,-460.13 1177.09,-429.13 1161,-404 1145.09,-379.16 1114.27,-365.8 1088.53,-358.7"/>
<polygon fill="black" stroke="black" points="1089.15,-355.25 1078.6,-356.2 1087.44,-362.04 1089.15,-355.25"/>
</g>
<!-- pdf2svg -->
<g id="node31" class="node">
<title>pdf2svg</title>
<g id="a_node31"><a xlink:href="https://github.com/conda-forge/pdf2svg-feedstock" xlink:title="pdf2svg">
<ellipse fill="#fde725" stroke="black" cx="1113" cy="-422" rx="39" ry="18"/>
<text text-anchor="middle" x="1113" y="-418.3" font-family="Times,serif" font-size="14.00">pdf2svg</text>
</a>
</g>
</g>
<!-- poppler&#45;&gt;pdf2svg -->
<g id="edge54" class="edge">
<title>poppler&#45;&gt;pdf2svg</title>
<path fill="none" stroke="black" d="M1113,-475.7C1113,-467.98 1113,-458.71 1113,-450.11"/>
<polygon fill="black" stroke="black" points="1116.5,-450.1 1113,-440.1 1109.5,-450.1 1116.5,-450.1"/>
</g>
<!-- libxmlpp -->
<g id="node30" class="node">
<title>libxmlpp</title>
<g id="a_node30"><a xlink:href="https://github.com/conda-forge/libxmlpp-feedstock" xlink:title="libxmlpp">
<ellipse fill="#35b779" stroke="black" cx="889" cy="-90" rx="43" ry="18"/>
<text text-anchor="middle" x="889" y="-86.3" font-family="Times,serif" font-size="14.00">libxmlpp</text>
</a>
</g>
</g>
<!-- libxmlpp&#45;&gt;cyclus -->
<g id="edge52" class="edge">
<title>libxmlpp&#45;&gt;cyclus</title>
<path fill="none" stroke="black" d="M889,-71.7C889,-63.98 889,-54.71 889,-46.11"/>
<polygon fill="black" stroke="black" points="892.5,-46.1 889,-36.1 885.5,-46.1 892.5,-46.1"/>
</g>
<!-- createrepo_c -->
<g id="node34" class="node">
<title>createrepo_c</title>
<g id="a_node34"><a xlink:href="https://github.com/conda-forge/createrepo_c-feedstock" xlink:title="createrepo_c">
<ellipse fill="#fde725" stroke="black" cx="635" cy="-134" rx="56" ry="18"/>
<text text-anchor="middle" x="635" y="-130.3" font-family="Times,serif" font-size="14.00">createrepo_c</text>
</a>
</g>
</g>
<!-- libmodulemd&#45;&gt;createrepo_c -->
<g id="edge63" class="edge">
<title>libmodulemd&#45;&gt;createrepo_c</title>
<path fill="none" stroke="black" d="M635,-187.7C635,-179.98 635,-170.71 635,-162.11"/>
<polygon fill="black" stroke="black" points="638.5,-162.1 635,-152.1 631.5,-162.1 638.5,-162.1"/>
</g>
<!-- libsecret -->
<g id="node35" class="node">
<title>libsecret</title>
<g id="a_node35"><a xlink:href="https://github.com/conda-forge/libsecret-feedstock/pull/4" xlink:title="libsecret ❎">
<ellipse fill="#31688e" stroke="black" cx="2044" cy="-530" rx="52" ry="18"/>
<text text-anchor="middle" x="2044" y="-526.3" font-family="Times,serif" font-size="14.00" fill="white">libsecret ❎</text>
</a>
</g>
</g>
<!-- cem -->
<g id="node36" class="node">
<title>cem</title>
<g id="a_node36"><a xlink:href="https://github.com/conda-forge/cem-feedstock/pull/5" xlink:title="cem ❎">
<ellipse fill="#31688e" stroke="black" cx="2044" cy="-458" rx="37.89" ry="18"/>
<text text-anchor="middle" x="2044" y="-454.3" font-family="Times,serif" font-size="14.00" fill="white">cem ❎</text>
</a>
</g>
</g>
<!-- libsecret&#45;&gt;cem -->
<!-- libical -->
<g id="node37" class="node">
<title>libical</title>
<g id="a_node37"><a xlink:href="https://github.com/conda-forge/libical-feedstock/pull/8" xlink:title="libical ❎">
<ellipse fill="#31688e" stroke="black" cx="2044" cy="-386" rx="44.39" ry="18"/>
<text text-anchor="middle" x="2044" y="-382.3" font-family="Times,serif" font-size="14.00" fill="white">libical ❎</text>
</a>
</g>
</g>
<!-- cem&#45;&gt;libical -->
<!-- libv8 -->
<g id="node42" class="node">
<title>libv8</title>
<g id="a_node42"><a xlink:href="https://github.com/conda-forge/libv8-feedstock/pull/22" xlink:title="libv8 ❎">
<ellipse fill="#31688e" stroke="black" cx="2044" cy="-314" rx="40.5" ry="18"/>
<text text-anchor="middle" x="2044" y="-310.3" font-family="Times,serif" font-size="14.00" fill="white">libv8 ❎</text>
</a>
</g>
</g>
<!-- libical&#45;&gt;libv8 -->
<!-- srm&#45;ifce -->
<g id="node38" class="node">
<title>srm&#45;ifce</title>
<g id="a_node38"><a xlink:href="https://github.com/conda-forge/srm-ifce-feedstock/pull/5" xlink:title="srm ifce ❎">
<ellipse fill="#31688e" stroke="black" cx="1884" cy="-494" rx="52" ry="18"/>
<text text-anchor="middle" x="1884" y="-490.3" font-family="Times,serif" font-size="14.00" fill="white">srm ifce ❎</text>
</a>
</g>
</g>
<!-- gfal2 -->
<g id="node39" class="node">
<title>gfal2</title>
<g id="a_node39"><a xlink:href="https://github.com/conda-forge/gfal2-feedstock" xlink:title="gfal2">
<ellipse fill="#fde725" stroke="black" cx="1884" cy="-422" rx="28.7" ry="18"/>
<text text-anchor="middle" x="1884" y="-418.3" font-family="Times,serif" font-size="14.00">gfal2</text>
</a>
</g>
</g>
<!-- srm&#45;ifce&#45;&gt;gfal2 -->
<g id="edge66" class="edge">
<title>srm&#45;ifce&#45;&gt;gfal2</title>
<path fill="none" stroke="black" d="M1884,-475.7C1884,-467.98 1884,-458.71 1884,-450.11"/>
<polygon fill="black" stroke="black" points="1887.5,-450.1 1884,-440.1 1880.5,-450.1 1887.5,-450.1"/>
</g>
<!-- python&#45;gfal2 -->
<g id="node40" class="node">
<title>python&#45;gfal2</title>
<g id="a_node40"><a xlink:href="https://github.com/conda-forge/python-gfal2-feedstock" xlink:title="python gfal2">
<ellipse fill="#fde725" stroke="black" cx="1842" cy="-350" rx="56" ry="18"/>
<text text-anchor="middle" x="1842" y="-346.3" font-family="Times,serif" font-size="14.00">python gfal2</text>
</a>
</g>
</g>
<!-- gfal2&#45;&gt;python&#45;gfal2 -->
<g id="edge67" class="edge">
<title>gfal2&#45;&gt;python&#45;gfal2</title>
<path fill="none" stroke="black" d="M1874.26,-404.76C1869.26,-396.44 1863.06,-386.1 1857.44,-376.73"/>
<polygon fill="black" stroke="black" points="1860.42,-374.9 1852.27,-368.12 1854.42,-378.5 1860.42,-374.9"/>
</g>
<!-- nordugrid&#45;arc -->
<g id="node41" class="node">
<title>nordugrid&#45;arc</title>
<g id="a_node41"><a xlink:href="https://github.com/conda-forge/nordugrid-arc-feedstock" xlink:title="nordugrid arc">
<ellipse fill="#fde725" stroke="black" cx="1926" cy="-278" rx="58.5" ry="18"/>
<text text-anchor="middle" x="1926" y="-274.3" font-family="Times,serif" font-size="14.00">nordugrid arc</text>
</a>
</g>
</g>
<!-- gfal2&#45;&gt;nordugrid&#45;arc -->
<g id="edge68" class="edge">
<title>gfal2&#45;&gt;nordugrid&#45;arc</title>
<path fill="none" stroke="black" d="M1892.12,-404.62C1896.97,-394.31 1902.96,-380.61 1907,-368 1913.53,-347.59 1918.48,-323.83 1921.68,-305.99"/>
<polygon fill="black" stroke="black" points="1925.16,-306.44 1923.41,-295.99 1918.26,-305.25 1925.16,-306.44"/>
</g>
<!-- libsoup -->
<g id="node43" class="node">
<title>libsoup</title>
<g id="a_node43"><a xlink:href="https://github.com/conda-forge/libsoup-feedstock/pull/5" xlink:title="libsoup ❎">
<ellipse fill="#31688e" stroke="black" cx="2044" cy="-242" rx="48.19" ry="18"/>
<text text-anchor="middle" x="2044" y="-238.3" font-family="Times,serif" font-size="14.00" fill="white">libsoup ❎</text>
</a>
</g>
</g>
<!-- libv8&#45;&gt;libsoup -->
<!-- libgsf -->
<g id="node44" class="node">
<title>libgsf</title>
<g id="a_node44"><a xlink:href="https://github.com/conda-forge/libgsf-feedstock" xlink:title="libgsf">
<ellipse fill="#ff8c00" stroke="black" cx="1315" cy="-422" rx="30.59" ry="18"/>
<text text-anchor="middle" x="1315" y="-418.3" font-family="Times,serif" font-size="14.00">libgsf</text>
</a>
</g>
</g>
<!-- libgsf&#45;&gt;libvips -->
<g id="edge71" class="edge">
<title>libgsf&#45;&gt;libvips</title>
<path fill="none" stroke="black" d="M1287.48,-413.84C1239.7,-401.41 1141.25,-375.79 1085.95,-361.39"/>
<polygon fill="black" stroke="black" points="1086.7,-357.98 1076.14,-358.84 1084.94,-364.75 1086.7,-357.98"/>
</g>
<!-- msitools -->
<g id="node45" class="node">
<title>msitools</title>
<g id="a_node45"><a xlink:href="https://github.com/conda-forge/msitools-feedstock" xlink:title="msitools">
<ellipse fill="#fde725" stroke="black" cx="1519" cy="-350" rx="41" ry="18"/>
<text text-anchor="middle" x="1519" y="-346.3" font-family="Times,serif" font-size="14.00">msitools</text>
</a>
</g>
</g>
<!-- libgsf&#45;&gt;msitools -->
<g id="edge72" class="edge">
<title>libgsf&#45;&gt;msitools</title>
<path fill="none" stroke="black" d="M1338.96,-410.37C1344.21,-408.17 1349.76,-405.93 1355,-404 1404.84,-385.59 1418.51,-384.55 1469,-368 1471.95,-367.03 1475,-366.02 1478.07,-365"/>
<polygon fill="black" stroke="black" points="1479.47,-368.22 1487.83,-361.72 1477.23,-361.59 1479.47,-368.22"/>
</g>
<!-- gcab -->
<g id="node46" class="node">
<title>gcab</title>
<g id="a_node46"><a xlink:href="https://github.com/conda-forge/gcab-feedstock/pull/5" xlink:title="gcab ✓">
<ellipse fill="#31688e" stroke="black" cx="1522" cy="-422" rx="37.89" ry="18"/>
<text text-anchor="middle" x="1522" y="-418.3" font-family="Times,serif" font-size="14.00" fill="white">gcab ✓</text>
</a>
</g>
</g>
<!-- gcab&#45;&gt;msitools -->
<g id="edge73" class="edge">
<title>gcab&#45;&gt;msitools</title>
<path fill="none" stroke="black" d="M1521.26,-403.7C1520.93,-395.98 1520.53,-386.71 1520.16,-378.11"/>
<polygon fill="black" stroke="black" points="1523.66,-377.95 1519.73,-368.1 1516.66,-378.25 1523.66,-377.95"/>
</g>
<!-- at&#45;spi2&#45;atk -->
<g id="node47" class="node">
<title>at&#45;spi2&#45;atk</title>
<g id="a_node47"><a xlink:href="https://github.com/conda-forge/at-spi2-atk-feedstock/pull/3" xlink:title="at spi2 atk ❎">
<ellipse fill="#31688e" stroke="black" cx="503" cy="-494" rx="59.29" ry="18"/>
<text text-anchor="middle" x="503" y="-490.3" font-family="Times,serif" font-size="14.00" fill="white">at spi2 atk ❎</text>
</a>
</g>
</g>
<!-- at&#45;spi2&#45;atk&#45;&gt;gtk3 -->
<g id="edge74" class="edge">
<title>at&#45;spi2&#45;atk&#45;&gt;gtk3</title>
<path fill="none" stroke="black" d="M510.75,-476.05C514.54,-467.77 519.17,-457.62 523.38,-448.42"/>
<polygon fill="black" stroke="black" points="526.57,-449.86 527.55,-439.31 520.2,-446.95 526.57,-449.86"/>
</g>
<!-- atkmm -->
<g id="node48" class="node">
<title>atkmm</title>
<g id="a_node48"><a xlink:href="https://github.com/conda-forge/atkmm-feedstock" xlink:title="atkmm">
<ellipse fill="#35b779" stroke="black" cx="303" cy="-422" rx="36.5" ry="18"/>
<text text-anchor="middle" x="303" y="-418.3" font-family="Times,serif" font-size="14.00">atkmm</text>
</a>
</g>
</g>
<!-- atkmm&#45;&gt;gtkmm -->
<g id="edge75" class="edge">
<title>atkmm&#45;&gt;gtkmm</title>
<path fill="none" stroke="black" d="M328.44,-408.97C352.69,-397.5 389.4,-380.14 416.32,-367.4"/>
<polygon fill="black" stroke="black" points="417.85,-370.55 425.39,-363.11 414.86,-364.22 417.85,-370.55"/>
</g>
<!-- atkmm&#45;&gt;cadabra2 -->
<g id="edge76" class="edge">
<title>atkmm&#45;&gt;cadabra2</title>
<path fill="none" stroke="black" d="M271.66,-412.5C249.87,-404.77 222.42,-390.97 209,-368 200.93,-354.18 202.42,-346.59 209,-332 214.92,-318.87 225.87,-307.69 236.82,-299.03"/>
<polygon fill="black" stroke="black" points="239.14,-301.67 245.1,-292.91 234.98,-296.04 239.14,-301.67"/>
</g>
<!-- pangomm -->
<g id="node49" class="node">
<title>pangomm</title>
<g id="a_node49"><a xlink:href="https://github.com/conda-forge/pangomm-feedstock" xlink:title="pangomm">
<ellipse fill="#35b779" stroke="black" cx="405" cy="-422" rx="47" ry="18"/>
<text text-anchor="middle" x="405" y="-418.3" font-family="Times,serif" font-size="14.00">pangomm</text>
</a>
</g>
</g>
<!-- pangomm&#45;&gt;gtkmm -->
<g id="edge77" class="edge">
<title>pangomm&#45;&gt;gtkmm</title>
<path fill="none" stroke="black" d="M415.9,-404.41C421.46,-395.95 428.33,-385.49 434.52,-376.08"/>
<polygon fill="black" stroke="black" points="437.61,-377.75 440.18,-367.47 431.76,-373.9 437.61,-377.75"/>
</g>
<!-- pangomm&#45;&gt;cadabra2 -->
<g id="edge78" class="edge">
<title>pangomm&#45;&gt;cadabra2</title>
<path fill="none" stroke="black" d="M401.27,-403.73C396.32,-384.29 385.9,-352.73 367,-332 351.73,-315.25 329.9,-302.73 310.72,-294.07"/>
<polygon fill="black" stroke="black" points="311.84,-290.74 301.27,-290.02 309.08,-297.18 311.84,-290.74"/>
</g>
</g>
</svg>
