<?xml version="1.0" encoding="UTF-8" standalone="no"?>
<!DOCTYPE svg PUBLIC "-//W3C//DTD SVG 1.1//EN"
 "http://www.w3.org/Graphics/SVG/1.1/DTD/svg11.dtd">
<!-- Generated by graphviz version 2.42.3 (20191010.1750)
 -->
<!-- Title: %3 Pages: 1 -->
<svg width="2270pt" height="736pt"
 viewBox="0.00 0.00 2270.00 736.00" xmlns="http://www.w3.org/2000/svg" xmlns:xlink="http://www.w3.org/1999/xlink">
<g id="graph0" class="graph" transform="scale(1 1) rotate(0) translate(4 732)">
<title>%3</title>
<polygon fill="white" stroke="transparent" points="-4,4 -4,-732 2266,-732 2266,4 -4,4"/>
<!-- cyclus -->
<g id="node1" class="node">
<title>cyclus</title>
<g id="a_node1"><a xlink:href="https://github.com/conda-forge/cyclus-feedstock" xlink:title="cyclus">
<ellipse fill="#fde725" stroke="black" cx="971" cy="-18" rx="33.29" ry="18"/>
<text text-anchor="middle" x="971" y="-14.3" font-family="Times,serif" font-size="14.00">cyclus</text>
</a>
</g>
</g>
<!-- emacs -->
<g id="node2" class="node">
<title>emacs</title>
<g id="a_node2"><a xlink:href="https://github.com/conda-forge/emacs-feedstock" xlink:title="emacs">
<ellipse fill="#fde725" stroke="black" cx="875" cy="-350" rx="33.29" ry="18"/>
<text text-anchor="middle" x="875" y="-346.3" font-family="Times,serif" font-size="14.00">emacs</text>
</a>
</g>
</g>
<!-- gdk&#45;pixbuf -->
<g id="node3" class="node">
<title>gdk&#45;pixbuf</title>
<g id="a_node3"><a xlink:href="https://github.com/conda-forge/gdk-pixbuf-feedstock" xlink:title="gdk pixbuf">
<ellipse fill="#fde725" stroke="black" cx="842" cy="-494" rx="49.5" ry="18"/>
<text text-anchor="middle" x="842" y="-490.3" font-family="Times,serif" font-size="14.00">gdk pixbuf</text>
</a>
</g>
</g>
<!-- librsvg -->
<g id="node4" class="node">
<title>librsvg</title>
<g id="a_node4"><a xlink:href="https://github.com/conda-forge/librsvg-feedstock" xlink:title="librsvg">
<ellipse fill="#fde725" stroke="black" cx="803" cy="-422" rx="35.19" ry="18"/>
<text text-anchor="middle" x="803" y="-418.3" font-family="Times,serif" font-size="14.00">librsvg</text>
</a>
</g>
</g>
<!-- gdk&#45;pixbuf&#45;&gt;librsvg -->
<g id="edge1" class="edge">
<title>gdk&#45;pixbuf&#45;&gt;librsvg</title>
<path fill="none" stroke="black" d="M832.56,-476.05C827.96,-467.8 822.33,-457.7 817.23,-448.54"/>
<polygon fill="black" stroke="black" points="820.28,-446.82 812.35,-439.79 814.16,-450.23 820.28,-446.82"/>
</g>
<!-- gtk2 -->
<g id="node5" class="node">
<title>gtk2</title>
<g id="a_node5"><a xlink:href="https://github.com/conda-forge/gtk2-feedstock" xlink:title="gtk2">
<ellipse fill="#fde725" stroke="black" cx="1027" cy="-422" rx="27" ry="18"/>
<text text-anchor="middle" x="1027" y="-418.3" font-family="Times,serif" font-size="14.00">gtk2</text>
</a>
</g>
</g>
<!-- gdk&#45;pixbuf&#45;&gt;gtk2 -->
<g id="edge2" class="edge">
<title>gdk&#45;pixbuf&#45;&gt;gtk2</title>
<path fill="none" stroke="black" d="M877.6,-481.45C908.02,-471.31 952.8,-455.77 991,-440 992.82,-439.25 994.68,-438.45 996.55,-437.63"/>
<polygon fill="black" stroke="black" points="998.18,-440.74 1005.84,-433.42 995.28,-434.37 998.18,-440.74"/>
</g>
<!-- openslide -->
<g id="node6" class="node">
<title>openslide</title>
<g id="a_node6"><a xlink:href="https://github.com/conda-forge/openslide-feedstock" xlink:title="openslide">
<ellipse fill="#fde725" stroke="black" cx="938" cy="-422" rx="44.39" ry="18"/>
<text text-anchor="middle" x="938" y="-418.3" font-family="Times,serif" font-size="14.00">openslide</text>
</a>
</g>
</g>
<!-- gdk&#45;pixbuf&#45;&gt;openslide -->
<g id="edge3" class="edge">
<title>gdk&#45;pixbuf&#45;&gt;openslide</title>
<path fill="none" stroke="black" d="M863.31,-477.46C876.79,-467.63 894.39,-454.8 909.12,-444.06"/>
<polygon fill="black" stroke="black" points="911.39,-446.73 917.41,-438.01 907.27,-441.08 911.39,-446.73"/>
</g>
<!-- libvips -->
<g id="node7" class="node">
<title>libvips</title>
<g id="a_node7"><a xlink:href="https://github.com/conda-forge/libvips-feedstock" xlink:title="libvips">
<ellipse fill="#fde725" stroke="black" cx="1071" cy="-350" rx="34.5" ry="18"/>
<text text-anchor="middle" x="1071" y="-346.3" font-family="Times,serif" font-size="14.00">libvips</text>
</a>
</g>
</g>
<!-- gdk&#45;pixbuf&#45;&gt;libvips -->
<g id="edge4" class="edge">
<title>gdk&#45;pixbuf&#45;&gt;libvips</title>
<path fill="none" stroke="black" d="M845.65,-475.86C850.85,-455.64 862.4,-422.45 885,-404 935.44,-362.83 964.97,-387.77 1027,-368 1029.62,-367.17 1032.3,-366.26 1034.99,-365.31"/>
<polygon fill="black" stroke="black" points="1036.47,-368.5 1044.66,-361.77 1034.07,-361.93 1036.47,-368.5"/>
</g>
<!-- gtk3 -->
<g id="node8" class="node">
<title>gtk3</title>
<g id="a_node8"><a xlink:href="https://github.com/conda-forge/gtk3-feedstock" xlink:title="gtk3">
<ellipse fill="#fde725" stroke="black" cx="571" cy="-422" rx="27" ry="18"/>
<text text-anchor="middle" x="571" y="-418.3" font-family="Times,serif" font-size="14.00">gtk3</text>
</a>
</g>
</g>
<!-- gdk&#45;pixbuf&#45;&gt;gtk3 -->
<g id="edge5" class="edge">
<title>gdk&#45;pixbuf&#45;&gt;gtk3</title>
<path fill="none" stroke="black" d="M802.88,-482.9C749.95,-469.22 656.33,-445.04 605.75,-431.98"/>
<polygon fill="black" stroke="black" points="606.5,-428.55 595.94,-429.44 604.75,-435.33 606.5,-428.55"/>
</g>
<!-- gtkmm -->
<g id="node9" class="node">
<title>gtkmm</title>
<g id="a_node9"><a xlink:href="https://github.com/conda-forge/gtkmm-feedstock" xlink:title="gtkmm">
<ellipse fill="#fde725" stroke="black" cx="364" cy="-350" rx="36.5" ry="18"/>
<text text-anchor="middle" x="364" y="-346.3" font-family="Times,serif" font-size="14.00">gtkmm</text>
</a>
</g>
</g>
<!-- gdk&#45;pixbuf&#45;&gt;gtkmm -->
<g id="edge6" class="edge">
<title>gdk&#45;pixbuf&#45;&gt;gtkmm</title>
<path fill="none" stroke="black" d="M794.07,-489.33C732.69,-483.6 623.66,-469.92 535,-440 482.83,-422.4 427.08,-390.66 393.91,-370.22"/>
<polygon fill="black" stroke="black" points="395.51,-367.1 385.17,-364.78 391.81,-373.04 395.51,-367.1"/>
</g>
<!-- wxwidgets -->
<g id="node10" class="node">
<title>wxwidgets</title>
<g id="a_node10"><a xlink:href="https://github.com/conda-forge/wxwidgets-feedstock" xlink:title="wxwidgets">
<ellipse fill="#fde725" stroke="black" cx="775" cy="-350" rx="48.99" ry="18"/>
<text text-anchor="middle" x="775" y="-346.3" font-family="Times,serif" font-size="14.00">wxwidgets</text>
</a>
</g>
</g>
<!-- gdk&#45;pixbuf&#45;&gt;wxwidgets -->
<g id="edge7" class="edge">
<title>gdk&#45;pixbuf&#45;&gt;wxwidgets</title>
<path fill="none" stroke="black" d="M807.96,-480.69C789.94,-472.23 769.43,-459.04 759,-440 748.39,-420.63 754.27,-395.66 761.73,-377.11"/>
<polygon fill="black" stroke="black" points="765,-378.36 765.81,-367.79 758.59,-375.54 765,-378.36"/>
</g>
<!-- librsvg&#45;&gt;emacs -->
<g id="edge8" class="edge">
<title>librsvg&#45;&gt;emacs</title>
<path fill="none" stroke="black" d="M818.62,-405.81C828.44,-396.27 841.26,-383.8 852.2,-373.17"/>
<polygon fill="black" stroke="black" points="854.68,-375.64 859.41,-366.16 849.8,-370.62 854.68,-375.64"/>
</g>
<!-- librsvg&#45;&gt;libvips -->
<g id="edge9" class="edge">
<title>librsvg&#45;&gt;libvips</title>
<path fill="none" stroke="black" d="M830.53,-410.74C837.48,-408.35 844.97,-405.93 852,-404 928.56,-382.94 950.81,-390.39 1027,-368 1029.63,-367.23 1032.33,-366.36 1035.04,-365.45"/>
<polygon fill="black" stroke="black" points="1036.49,-368.64 1044.72,-361.97 1034.13,-362.06 1036.49,-368.64"/>
</g>
<!-- gtk2&#45;&gt;libvips -->
<g id="edge10" class="edge">
<title>gtk2&#45;&gt;libvips</title>
<path fill="none" stroke="black" d="M1036.98,-405.12C1042.42,-396.47 1049.27,-385.58 1055.39,-375.83"/>
<polygon fill="black" stroke="black" points="1058.39,-377.64 1060.75,-367.31 1052.46,-373.91 1058.39,-377.64"/>
</g>
<!-- gnuplot -->
<g id="node11" class="node">
<title>gnuplot</title>
<g id="a_node11"><a xlink:href="https://github.com/conda-forge/gnuplot-feedstock" xlink:title="gnuplot">
<ellipse fill="#fde725" stroke="black" cx="1554" cy="-350" rx="37.89" ry="18"/>
<text text-anchor="middle" x="1554" y="-346.3" font-family="Times,serif" font-size="14.00">gnuplot</text>
</a>
</g>
</g>
<!-- gtk2&#45;&gt;gnuplot -->
<g id="edge11" class="edge">
<title>gtk2&#45;&gt;gnuplot</title>
<path fill="none" stroke="black" d="M1053.22,-416.81C1075.9,-413.23 1109.58,-408.05 1139,-404 1268.54,-386.19 1301.34,-384.95 1431,-368 1456.7,-364.64 1485.38,-360.69 1508.58,-357.44"/>
<polygon fill="black" stroke="black" points="1509.08,-360.9 1518.49,-356.05 1508.1,-353.97 1509.08,-360.9"/>
</g>
<!-- wxpython -->
<g id="node12" class="node">
<title>wxpython</title>
<g id="a_node12"><a xlink:href="https://github.com/conda-forge/wxpython-feedstock" xlink:title="wxpython">
<ellipse fill="#fde725" stroke="black" cx="972" cy="-350" rx="46.29" ry="18"/>
<text text-anchor="middle" x="972" y="-346.3" font-family="Times,serif" font-size="14.00">wxpython</text>
</a>
</g>
</g>
<!-- gtk2&#45;&gt;wxpython -->
<g id="edge12" class="edge">
<title>gtk2&#45;&gt;wxpython</title>
<path fill="none" stroke="black" d="M1015.07,-405.81C1008.15,-397.02 999.29,-385.73 991.4,-375.69"/>
<polygon fill="black" stroke="black" points="994,-373.33 985.06,-367.63 988.49,-377.65 994,-373.33"/>
</g>
<!-- openslide&#45;&gt;libvips -->
<g id="edge13" class="edge">
<title>openslide&#45;&gt;libvips</title>
<path fill="none" stroke="black" d="M963.96,-407.34C985.22,-396.15 1015.42,-380.25 1038.33,-368.2"/>
<polygon fill="black" stroke="black" points="1040.12,-371.21 1047.34,-363.45 1036.86,-365.01 1040.12,-371.21"/>
</g>
<!-- gtk3&#45;&gt;gtkmm -->
<g id="edge14" class="edge">
<title>gtk3&#45;&gt;gtkmm</title>
<path fill="none" stroke="black" d="M547.25,-412.97C512.06,-401.07 445.64,-378.61 403.17,-364.25"/>
<polygon fill="black" stroke="black" points="404.04,-360.85 393.45,-360.96 401.8,-367.48 404.04,-360.85"/>
</g>
<!-- gtk3&#45;&gt;wxwidgets -->
<g id="edge15" class="edge">
<title>gtk3&#45;&gt;wxwidgets</title>
<path fill="none" stroke="black" d="M593,-411.5C599.12,-408.97 605.78,-406.3 612,-404 650.96,-389.61 695.88,-375.16 728.69,-364.99"/>
<polygon fill="black" stroke="black" points="729.94,-368.27 738.46,-361.98 727.88,-361.58 729.94,-368.27"/>
</g>
<!-- pygobject -->
<g id="node13" class="node">
<title>pygobject</title>
<g id="a_node13"><a xlink:href="https://github.com/conda-forge/pygobject-feedstock" xlink:title="pygobject">
<ellipse fill="#fde725" stroke="black" cx="663" cy="-350" rx="45.5" ry="18"/>
<text text-anchor="middle" x="663" y="-346.3" font-family="Times,serif" font-size="14.00">pygobject</text>
</a>
</g>
</g>
<!-- gtk3&#45;&gt;pygobject -->
<g id="edge16" class="edge">
<title>gtk3&#45;&gt;pygobject</title>
<path fill="none" stroke="black" d="M588.3,-407.83C601.39,-397.88 619.64,-383.99 634.82,-372.44"/>
<polygon fill="black" stroke="black" points="637.05,-375.14 642.89,-366.3 632.81,-369.57 637.05,-375.14"/>
</g>
<!-- stoken -->
<g id="node14" class="node">
<title>stoken</title>
<g id="a_node14"><a xlink:href="https://github.com/conda-forge/stoken-feedstock" xlink:title="stoken">
<ellipse fill="#fde725" stroke="black" cx="565" cy="-350" rx="34" ry="18"/>
<text text-anchor="middle" x="565" y="-346.3" font-family="Times,serif" font-size="14.00">stoken</text>
</a>
</g>
</g>
<!-- gtk3&#45;&gt;stoken -->
<g id="edge17" class="edge">
<title>gtk3&#45;&gt;stoken</title>
<path fill="none" stroke="black" d="M569.52,-403.7C568.86,-395.98 568.06,-386.71 567.32,-378.11"/>
<polygon fill="black" stroke="black" points="570.81,-377.77 566.47,-368.1 563.83,-378.37 570.81,-377.77"/>
</g>
<!-- cadabra2 -->
<g id="node15" class="node">
<title>cadabra2</title>
<g id="a_node15"><a xlink:href="https://github.com/conda-forge/cadabra2-feedstock" xlink:title="cadabra2">
<ellipse fill="#fde725" stroke="black" cx="224" cy="-278" rx="42.49" ry="18"/>
<text text-anchor="middle" x="224" y="-274.3" font-family="Times,serif" font-size="14.00">cadabra2</text>
</a>
</g>
</g>
<!-- gtkmm&#45;&gt;cadabra2 -->
<g id="edge18" class="edge">
<title>gtkmm&#45;&gt;cadabra2</title>
<path fill="none" stroke="black" d="M339.29,-336.65C317.16,-325.58 284.43,-309.22 259.5,-296.75"/>
<polygon fill="black" stroke="black" points="260.87,-293.52 250.36,-292.18 257.74,-299.78 260.87,-293.52"/>
</g>
<!-- octave -->
<g id="node16" class="node">
<title>octave</title>
<g id="a_node16"><a xlink:href="https://github.com/conda-forge/octave-feedstock" xlink:title="octave">
<ellipse fill="#fde725" stroke="black" cx="1554" cy="-278" rx="34" ry="18"/>
<text text-anchor="middle" x="1554" y="-274.3" font-family="Times,serif" font-size="14.00">octave</text>
</a>
</g>
</g>
<!-- gnuplot&#45;&gt;octave -->
<g id="edge19" class="edge">
<title>gnuplot&#45;&gt;octave</title>
<path fill="none" stroke="black" d="M1554,-331.7C1554,-323.98 1554,-314.71 1554,-306.11"/>
<polygon fill="black" stroke="black" points="1557.5,-306.1 1554,-296.1 1550.5,-306.1 1557.5,-306.1"/>
</g>
<!-- gst&#45;python -->
<g id="node19" class="node">
<title>gst&#45;python</title>
<g id="a_node19"><a xlink:href="https://github.com/conda-forge/gst-python-feedstock" xlink:title="gst python">
<ellipse fill="#fde725" stroke="black" cx="446" cy="-278" rx="48.19" ry="18"/>
<text text-anchor="middle" x="446" y="-274.3" font-family="Times,serif" font-size="14.00">gst python</text>
</a>
</g>
</g>
<!-- pygobject&#45;&gt;gst&#45;python -->
<g id="edge59" class="edge">
<title>pygobject&#45;&gt;gst&#45;python</title>
<path fill="none" stroke="black" d="M628.62,-337.91C591.41,-325.91 531.93,-306.72 491.02,-293.52"/>
<polygon fill="black" stroke="black" points="491.89,-290.13 481.3,-290.39 489.75,-296.79 491.89,-290.13"/>
</g>
<!-- gstlal&#45;ugly -->
<g id="node20" class="node">
<title>gstlal&#45;ugly</title>
<g id="a_node20"><a xlink:href="https://github.com/conda-forge/gstlal-ugly-feedstock" xlink:title="gstlal ugly">
<ellipse fill="#fde725" stroke="black" cx="370" cy="-206" rx="48.19" ry="18"/>
<text text-anchor="middle" x="370" y="-202.3" font-family="Times,serif" font-size="14.00">gstlal ugly</text>
</a>
</g>
</g>
<!-- pygobject&#45;&gt;gstlal&#45;ugly -->
<g id="edge60" class="edge">
<title>pygobject&#45;&gt;gstlal&#45;ugly</title>
<path fill="none" stroke="black" d="M629.46,-337.83C622.42,-335.72 615,-333.65 608,-332 511.99,-309.38 460.38,-364.08 389,-296 372.52,-280.29 368.58,-254.06 368.27,-234.14"/>
<polygon fill="black" stroke="black" points="371.77,-234.16 368.41,-224.11 364.77,-234.06 371.77,-234.16"/>
</g>
<!-- gstlal&#45;burst -->
<g id="node21" class="node">
<title>gstlal&#45;burst</title>
<g id="a_node21"><a xlink:href="https://github.com/conda-forge/gstlal-burst-feedstock" xlink:title="gstlal burst">
<ellipse fill="#fde725" stroke="black" cx="1018" cy="-134" rx="50.09" ry="18"/>
<text text-anchor="middle" x="1018" y="-130.3" font-family="Times,serif" font-size="14.00">gstlal burst</text>
</a>
</g>
</g>
<!-- pygobject&#45;&gt;gstlal&#45;burst -->
<g id="edge61" class="edge">
<title>pygobject&#45;&gt;gstlal&#45;burst</title>
<path fill="none" stroke="black" d="M686.84,-334.63C748.56,-297.42 913.69,-197.88 984.74,-155.05"/>
<polygon fill="black" stroke="black" points="986.56,-158.04 993.32,-149.88 982.95,-152.04 986.56,-158.04"/>
</g>
<!-- gstlal&#45;inspiral -->
<g id="node22" class="node">
<title>gstlal&#45;inspiral</title>
<g id="a_node22"><a xlink:href="https://github.com/conda-forge/gstlal-inspiral-feedstock" xlink:title="gstlal inspiral">
<ellipse fill="#fde725" stroke="black" cx="294" cy="-134" rx="58.5" ry="18"/>
<text text-anchor="middle" x="294" y="-130.3" font-family="Times,serif" font-size="14.00">gstlal inspiral</text>
</a>
</g>
</g>
<!-- pygobject&#45;&gt;gstlal&#45;inspiral -->
<g id="edge62" class="edge">
<title>pygobject&#45;&gt;gstlal&#45;inspiral</title>
<path fill="none" stroke="black" d="M629.48,-337.76C622.44,-335.65 615.02,-333.6 608,-332 502.84,-308.01 460.86,-350.87 368,-296 333.33,-275.52 329.84,-260.58 313,-224 303.94,-204.32 299.14,-180.2 296.63,-162.03"/>
<polygon fill="black" stroke="black" points="300.1,-161.6 295.4,-152.1 293.15,-162.46 300.1,-161.6"/>
</g>
<!-- gstlal&#45;calibration -->
<g id="node23" class="node">
<title>gstlal&#45;calibration</title>
<g id="a_node23"><a xlink:href="https://github.com/conda-forge/gstlal-calibration-feedstock" xlink:title="gstlal calibration">
<ellipse fill="#fde725" stroke="black" cx="593" cy="-206" rx="69.59" ry="18"/>
<text text-anchor="middle" x="593" y="-202.3" font-family="Times,serif" font-size="14.00">gstlal calibration</text>
</a>
</g>
</g>
<!-- pygobject&#45;&gt;gstlal&#45;calibration -->
<g id="edge63" class="edge">
<title>pygobject&#45;&gt;gstlal&#45;calibration</title>
<path fill="none" stroke="black" d="M650.28,-332.44C642.87,-322.29 633.69,-308.82 627,-296 616.53,-275.92 607.53,-251.87 601.43,-233.83"/>
<polygon fill="black" stroke="black" points="604.72,-232.64 598.26,-224.24 598.07,-234.83 604.72,-232.64"/>
</g>
<!-- numcosmo -->
<g id="node30" class="node">
<title>numcosmo</title>
<g id="a_node30"><a xlink:href="https://github.com/conda-forge/numcosmo-feedstock" xlink:title="numcosmo">
<ellipse fill="#fde725" stroke="black" cx="1134" cy="-278" rx="50.09" ry="18"/>
<text text-anchor="middle" x="1134" y="-274.3" font-family="Times,serif" font-size="14.00">numcosmo</text>
</a>
</g>
</g>
<!-- pygobject&#45;&gt;numcosmo -->
<g id="edge64" class="edge">
<title>pygobject&#45;&gt;numcosmo</title>
<path fill="none" stroke="black" d="M695.85,-337.49C702.77,-335.4 710.07,-333.43 717,-332 871.45,-300.16 914.86,-324.33 1070,-296 1075.37,-295.02 1080.95,-293.82 1086.48,-292.51"/>
<polygon fill="black" stroke="black" points="1087.46,-295.87 1096.32,-290.07 1085.77,-289.08 1087.46,-295.87"/>
</g>
<!-- hkl -->
<g id="node33" class="node">
<title>hkl</title>
<g id="a_node33"><a xlink:href="https://github.com/conda-forge/hkl-feedstock" xlink:title="hkl">
<ellipse fill="#fde725" stroke="black" cx="663" cy="-278" rx="27" ry="18"/>
<text text-anchor="middle" x="663" y="-274.3" font-family="Times,serif" font-size="14.00">hkl</text>
</a>
</g>
</g>
<!-- pygobject&#45;&gt;hkl -->
<g id="edge65" class="edge">
<title>pygobject&#45;&gt;hkl</title>
<path fill="none" stroke="black" d="M663,-331.7C663,-323.98 663,-314.71 663,-306.11"/>
<polygon fill="black" stroke="black" points="666.5,-306.1 663,-296.1 659.5,-306.1 666.5,-306.1"/>
</g>
<!-- libmodulemd -->
<g id="node34" class="node">
<title>libmodulemd</title>
<g id="a_node34"><a xlink:href="https://github.com/conda-forge/libmodulemd-feedstock" xlink:title="libmodulemd">
<ellipse fill="#fde725" stroke="black" cx="1885" cy="-206" rx="58.5" ry="18"/>
<text text-anchor="middle" x="1885" y="-202.3" font-family="Times,serif" font-size="14.00">libmodulemd</text>
</a>
</g>
</g>
<!-- pygobject&#45;&gt;libmodulemd -->
<g id="edge66" class="edge">
<title>pygobject&#45;&gt;libmodulemd</title>
<path fill="none" stroke="black" d="M696.15,-337.47C702.98,-335.4 710.17,-333.45 717,-332 854.83,-302.71 902.51,-351.57 1032,-296 1054.9,-286.17 1051.86,-269.27 1075,-260 1142.96,-232.76 1634.39,-214.82 1816.95,-209.03"/>
<polygon fill="black" stroke="black" points="1817.09,-212.53 1826.97,-208.72 1816.87,-205.53 1817.09,-212.53"/>
</g>
<!-- gstreamer -->
<g id="node17" class="node">
<title>gstreamer</title>
<g id="a_node17"><a xlink:href="https://github.com/conda-forge/gstreamer-feedstock/pull/42" xlink:title="gstreamer ❎">
<ellipse fill="#31688e" stroke="black" cx="458" cy="-710" rx="58" ry="18"/>
<text text-anchor="middle" x="458" y="-706.3" font-family="Times,serif" font-size="14.00" fill="white">gstreamer ❎</text>
</a>
</g>
</g>
<!-- gstreamer&#45;&gt;wxpython -->
<g id="edge21" class="edge">
<title>gstreamer&#45;&gt;wxpython</title>
<path fill="none" stroke="black" d="M463.46,-691.9C477.74,-649.66 520.1,-539.26 591,-476 704.89,-374.38 769.57,-407.52 917,-368 920.54,-367.05 924.19,-366.03 927.85,-364.97"/>
<polygon fill="black" stroke="black" points="928.91,-368.3 937.5,-362.1 926.91,-361.59 928.91,-368.3"/>
</g>
<!-- qt -->
<g id="node18" class="node">
<title>qt</title>
<g id="a_node18"><a xlink:href="https://github.com/conda-forge/qt-feedstock" xlink:title="qt">
<ellipse fill="#fde725" stroke="black" cx="1624" cy="-638" rx="27" ry="18"/>
<text text-anchor="middle" x="1624" y="-634.3" font-family="Times,serif" font-size="14.00">qt</text>
</a>
</g>
</g>
<!-- gstreamer&#45;&gt;qt -->
<g id="edge20" class="edge">
<title>gstreamer&#45;&gt;qt</title>
<path fill="none" stroke="black" d="M514.63,-705.6C719.35,-693.31 1417.79,-651.38 1586.9,-641.23"/>
<polygon fill="black" stroke="black" points="1587.27,-644.71 1597.04,-640.62 1586.85,-637.72 1587.27,-644.71"/>
</g>
<!-- gstreamer&#45;&gt;gst&#45;python -->
<g id="edge22" class="edge">
<title>gstreamer&#45;&gt;gst&#45;python</title>
<path fill="none" stroke="black" d="M452.32,-692.04C449.18,-681.74 445.59,-668.27 444,-656 427.1,-525.88 437.9,-368.37 443.37,-306.16"/>
<polygon fill="black" stroke="black" points="446.88,-306.28 444.3,-296.01 439.9,-305.65 446.88,-306.28"/>
</g>
<!-- gstreamer&#45;&gt;gstlal&#45;ugly -->
<g id="edge23" class="edge">
<title>gstreamer&#45;&gt;gstlal&#45;ugly</title>
<path fill="none" stroke="black" d="M405.23,-702.46C292.43,-687.02 38,-643.68 38,-567 38,-567 38,-567 38,-421 38,-335.81 72.32,-309 142,-260 192.28,-224.65 262.73,-212.57 311.97,-208.6"/>
<polygon fill="black" stroke="black" points="312.41,-212.08 322.14,-207.87 311.91,-205.1 312.41,-212.08"/>
</g>
<!-- gstreamer&#45;&gt;gstlal&#45;burst -->
<g id="edge24" class="edge">
<title>gstreamer&#45;&gt;gstlal&#45;burst</title>
<path fill="none" stroke="black" d="M515.75,-708.23C740.59,-704.97 1550.47,-690.9 1660,-656 1729.54,-633.85 1798,-639.98 1798,-567 1798,-567 1798,-567 1798,-277 1798,-203.71 1258.07,-154.08 1076.65,-139.47"/>
<polygon fill="black" stroke="black" points="1076.74,-135.97 1066.5,-138.66 1076.19,-142.95 1076.74,-135.97"/>
</g>
<!-- gstreamer&#45;&gt;gstlal&#45;inspiral -->
<g id="edge25" class="edge">
<title>gstreamer&#45;&gt;gstlal&#45;inspiral</title>
<path fill="none" stroke="black" d="M401.7,-705.39C311.9,-698.9 140.89,-683.33 87,-656 37.67,-630.98 0,-622.32 0,-567 0,-567 0,-567 0,-277 0,-176.95 139.77,-147.36 226.57,-138.63"/>
<polygon fill="black" stroke="black" points="226.99,-142.11 236.62,-137.69 226.33,-135.14 226.99,-142.11"/>
</g>
<!-- gstreamer&#45;&gt;gstlal&#45;calibration -->
<g id="edge26" class="edge">
<title>gstreamer&#45;&gt;gstlal&#45;calibration</title>
<path fill="none" stroke="black" d="M458.79,-691.94C461.75,-637.73 474.53,-465.2 522,-332 535.13,-295.15 558.8,-256.56 575.18,-232.18"/>
<polygon fill="black" stroke="black" points="578.11,-234.1 580.85,-223.87 572.32,-230.16 578.11,-234.1"/>
</g>
<!-- qt&#45;&gt;gnuplot -->
<g id="edge27" class="edge">
<title>qt&#45;&gt;gnuplot</title>
<path fill="none" stroke="black" d="M1639.69,-623.31C1669.39,-595.64 1728.66,-531.02 1703,-476 1679.62,-425.86 1625.12,-388.69 1588.93,-368.44"/>
<polygon fill="black" stroke="black" points="1590.15,-365.12 1579.69,-363.41 1586.81,-371.27 1590.15,-365.12"/>
</g>
<!-- qt&#45;&gt;octave -->
<g id="edge28" class="edge">
<title>qt&#45;&gt;octave</title>
<path fill="none" stroke="black" d="M1645.55,-626.95C1683.9,-607.4 1760,-560.37 1760,-495 1760,-495 1760,-495 1760,-421 1760,-341.75 1655.37,-303.34 1595.25,-287.8"/>
<polygon fill="black" stroke="black" points="1595.84,-284.34 1585.29,-285.34 1594.15,-291.14 1595.84,-284.34"/>
</g>
<!-- opencv -->
<g id="node24" class="node">
<title>opencv</title>
<g id="a_node24"><a xlink:href="https://github.com/conda-forge/opencv-feedstock" xlink:title="opencv">
<ellipse fill="#fde725" stroke="black" cx="1115" cy="-566" rx="36.5" ry="18"/>
<text text-anchor="middle" x="1115" y="-562.3" font-family="Times,serif" font-size="14.00">opencv</text>
</a>
</g>
</g>
<!-- qt&#45;&gt;opencv -->
<g id="edge29" class="edge">
<title>qt&#45;&gt;opencv</title>
<path fill="none" stroke="black" d="M1597.71,-633.38C1515.63,-622.1 1263.53,-587.43 1160.04,-573.19"/>
<polygon fill="black" stroke="black" points="1160.3,-569.7 1149.92,-571.8 1159.35,-576.63 1160.3,-569.7"/>
</g>
<!-- magics&#45;metview -->
<g id="node25" class="node">
<title>magics&#45;metview</title>
<g id="a_node25"><a xlink:href="https://github.com/conda-forge/magics-metview-feedstock" xlink:title="magics metview">
<ellipse fill="#fde725" stroke="black" cx="1624" cy="-494" rx="69.59" ry="18"/>
<text text-anchor="middle" x="1624" y="-490.3" font-family="Times,serif" font-size="14.00">magics metview</text>
</a>
</g>
</g>
<!-- qt&#45;&gt;magics&#45;metview -->
<g id="edge30" class="edge">
<title>qt&#45;&gt;magics&#45;metview</title>
<path fill="none" stroke="black" d="M1624,-619.87C1624,-595.67 1624,-551.21 1624,-522.39"/>
<polygon fill="black" stroke="black" points="1627.5,-522.19 1624,-512.19 1620.5,-522.19 1627.5,-522.19"/>
</g>
<!-- gst&#45;python&#45;&gt;gstlal&#45;ugly -->
<g id="edge31" class="edge">
<title>gst&#45;python&#45;&gt;gstlal&#45;ugly</title>
<path fill="none" stroke="black" d="M428.75,-261.12C418.65,-251.81 405.72,-239.9 394.56,-229.62"/>
<polygon fill="black" stroke="black" points="396.9,-227.02 387.18,-222.82 392.16,-232.17 396.9,-227.02"/>
</g>
<!-- gst&#45;python&#45;&gt;gstlal&#45;burst -->
<g id="edge32" class="edge">
<title>gst&#45;python&#45;&gt;gstlal&#45;burst</title>
<path fill="none" stroke="black" d="M453.56,-260.19C463.92,-239.32 484.67,-204.47 514,-188 588.66,-146.09 841.1,-137.27 957.86,-135.45"/>
<polygon fill="black" stroke="black" points="958.1,-138.95 968.05,-135.3 958,-131.95 958.1,-138.95"/>
</g>
<!-- gst&#45;python&#45;&gt;gstlal&#45;inspiral -->
<g id="edge33" class="edge">
<title>gst&#45;python&#45;&gt;gstlal&#45;inspiral</title>
<path fill="none" stroke="black" d="M446.88,-259.87C446.95,-240.28 444.12,-208.29 427,-188 408.73,-166.36 380.38,-153.48 354.54,-145.85"/>
<polygon fill="black" stroke="black" points="355.35,-142.45 344.78,-143.18 353.5,-149.2 355.35,-142.45"/>
</g>
<!-- gst&#45;python&#45;&gt;gstlal&#45;calibration -->
<g id="edge34" class="edge">
<title>gst&#45;python&#45;&gt;gstlal&#45;calibration</title>
<path fill="none" stroke="black" d="M474.69,-263.34C496.77,-252.82 527.57,-238.16 552.21,-226.42"/>
<polygon fill="black" stroke="black" points="553.8,-229.54 561.32,-222.08 550.79,-223.22 553.8,-229.54"/>
</g>
<!-- gstlal&#45;ugly&#45;&gt;gstlal&#45;burst -->
<g id="edge35" class="edge">
<title>gstlal&#45;ugly&#45;&gt;gstlal&#45;burst</title>
<path fill="none" stroke="black" d="M412.25,-197.37C430.84,-194.19 452.96,-190.62 473,-188 649.38,-164.89 859.11,-147.25 959.19,-139.43"/>
<polygon fill="black" stroke="black" points="959.69,-142.9 969.39,-138.63 959.15,-135.92 959.69,-142.9"/>
</g>
<!-- gstlal&#45;ugly&#45;&gt;gstlal&#45;inspiral -->
<g id="edge36" class="edge">
<title>gstlal&#45;ugly&#45;&gt;gstlal&#45;inspiral</title>
<path fill="none" stroke="black" d="M352.75,-189.12C342.89,-180.03 330.33,-168.46 319.35,-158.35"/>
<polygon fill="black" stroke="black" points="321.43,-155.51 311.7,-151.31 316.69,-160.66 321.43,-155.51"/>
</g>
<!-- opencv&#45;&gt;emacs -->
<g id="edge38" class="edge">
<title>opencv&#45;&gt;emacs</title>
<path fill="none" stroke="black" d="M1078.67,-563.84C1002.01,-560.67 827.11,-549.44 783,-512 745.51,-480.19 732.42,-445.37 759,-404 761.42,-400.24 806.98,-380.12 840.27,-365.78"/>
<polygon fill="black" stroke="black" points="841.91,-368.89 849.72,-361.73 839.15,-362.46 841.91,-368.89"/>
</g>
<!-- opencv&#45;&gt;gdk&#45;pixbuf -->
<g id="edge39" class="edge">
<title>opencv&#45;&gt;gdk&#45;pixbuf</title>
<path fill="none" stroke="black" d="M1083.42,-556.9C1036.25,-544.81 946.98,-521.92 891.21,-507.62"/>
<polygon fill="black" stroke="black" points="891.76,-504.15 881.2,-505.05 890.02,-510.93 891.76,-504.15"/>
</g>
<!-- opencv&#45;&gt;gtk2 -->
<g id="edge40" class="edge">
<title>opencv&#45;&gt;gtk2</title>
<path fill="none" stroke="black" d="M1098.85,-549.31C1089.1,-539.26 1076.88,-525.59 1068,-512 1055.05,-492.17 1044.06,-467.59 1036.73,-449.29"/>
<polygon fill="black" stroke="black" points="1039.93,-447.88 1033.04,-439.83 1033.41,-450.42 1039.93,-447.88"/>
</g>
<!-- opencv&#45;&gt;openslide -->
<g id="edge41" class="edge">
<title>opencv&#45;&gt;openslide</title>
<path fill="none" stroke="black" d="M1095.5,-550.61C1081.36,-540.08 1061.83,-525.36 1045,-512 1016.98,-489.75 985.57,-463.47 964.07,-445.25"/>
<polygon fill="black" stroke="black" points="966.23,-442.5 956.35,-438.69 961.7,-447.83 966.23,-442.5"/>
</g>
<!-- opencv&#45;&gt;libvips -->
<g id="edge42" class="edge">
<title>opencv&#45;&gt;libvips</title>
<path fill="none" stroke="black" d="M1110.14,-547.89C1107.28,-537.55 1103.71,-524.07 1101,-512 1090.46,-465.15 1080.77,-410.03 1075.4,-377.96"/>
<polygon fill="black" stroke="black" points="1078.83,-377.3 1073.74,-368.01 1071.93,-378.44 1078.83,-377.3"/>
</g>
<!-- opencv&#45;&gt;wxwidgets -->
<g id="edge43" class="edge">
<title>opencv&#45;&gt;wxwidgets</title>
<path fill="none" stroke="black" d="M1078.37,-565.47C994.28,-565.67 791.39,-560.97 749,-512 716.31,-474.23 741.02,-412.06 759.55,-377.06"/>
<polygon fill="black" stroke="black" points="762.8,-378.4 764.55,-367.95 756.67,-375.02 762.8,-378.4"/>
</g>
<!-- opencv&#45;&gt;gnuplot -->
<g id="edge44" class="edge">
<title>opencv&#45;&gt;gnuplot</title>
<path fill="none" stroke="black" d="M1151.43,-564.8C1237.33,-563.61 1449.3,-556.14 1502,-512 1541.69,-478.75 1551.38,-414.96 1553.56,-378.45"/>
<polygon fill="black" stroke="black" points="1557.07,-378.2 1554.02,-368.06 1550.08,-377.89 1557.07,-378.2"/>
</g>
<!-- opencv&#45;&gt;cadabra2 -->
<g id="edge56" class="edge">
<title>opencv&#45;&gt;cadabra2</title>
<path fill="none" stroke="black" d="M1078.4,-565.25C992.01,-564.98 769.3,-559.34 591,-512 552.92,-501.89 548.05,-486.2 510,-476 436.83,-456.38 221.66,-496.33 171,-440 135.81,-400.87 175.65,-337.84 202.87,-303.4"/>
<polygon fill="black" stroke="black" points="205.87,-305.25 209.46,-295.29 200.44,-300.84 205.87,-305.25"/>
</g>
<!-- opencv&#45;&gt;octave -->
<g id="edge45" class="edge">
<title>opencv&#45;&gt;octave</title>
<path fill="none" stroke="black" d="M1150.46,-561.67C1217.92,-554.83 1361.76,-537.64 1404,-512 1482.79,-464.17 1457.42,-409.7 1507,-332 1513.86,-321.26 1522.86,-310.52 1531.16,-301.56"/>
<polygon fill="black" stroke="black" points="1533.83,-303.83 1538.19,-294.17 1528.76,-299 1533.83,-303.83"/>
</g>
<!-- opencv&#45;&gt;gstlal&#45;ugly -->
<g id="edge46" class="edge">
<title>opencv&#45;&gt;gstlal&#45;ugly</title>
<path fill="none" stroke="black" d="M1078.7,-563.5C965.23,-558.57 618.37,-541.4 510,-512 473.93,-502.22 469.87,-486.51 434,-476 373.8,-458.35 195.44,-487.1 154,-440 100.87,-379.6 118.96,-319.59 173,-260 192.01,-239.03 264.09,-223.59 315.55,-214.94"/>
<polygon fill="black" stroke="black" points="316.24,-218.37 325.54,-213.3 315.11,-211.47 316.24,-218.37"/>
</g>
<!-- opencv&#45;&gt;gstlal&#45;burst -->
<g id="edge47" class="edge">
<title>opencv&#45;&gt;gstlal&#45;burst</title>
<path fill="none" stroke="black" d="M1146.47,-556.5C1170.54,-548.55 1203.05,-534.47 1224,-512 1257.9,-475.65 1266.46,-451.84 1253,-404 1247.92,-385.95 1239.05,-384.94 1231,-368 1209.17,-322.04 1223.57,-300.68 1193,-260 1156.56,-211.5 1095.88,-174.22 1056.41,-153.44"/>
<polygon fill="black" stroke="black" points="1057.84,-150.24 1047.35,-148.77 1054.63,-156.46 1057.84,-150.24"/>
</g>
<!-- opencv&#45;&gt;gstlal&#45;inspiral -->
<g id="edge48" class="edge">
<title>opencv&#45;&gt;gstlal&#45;inspiral</title>
<path fill="none" stroke="black" d="M1078.6,-564.13C976.39,-561.27 678.31,-550.02 434,-512 295.95,-490.52 221.38,-543.92 128,-440 74.37,-380.31 96.97,-326.41 142,-260 172.63,-214.83 224.21,-177.37 258.67,-155.58"/>
<polygon fill="black" stroke="black" points="260.82,-158.36 267.47,-150.11 257.13,-152.41 260.82,-158.36"/>
</g>
<!-- opencv&#45;&gt;gstlal&#45;calibration -->
<g id="edge49" class="edge">
<title>opencv&#45;&gt;gstlal&#45;calibration</title>
<path fill="none" stroke="black" d="M1140,-552.56C1157.04,-543.17 1179.28,-529 1195,-512 1229.76,-474.42 1260.22,-448.54 1235,-404 1219.68,-376.94 1143.79,-343.76 1115,-332 959.87,-268.64 765.11,-232.62 662.94,-216.79"/>
<polygon fill="black" stroke="black" points="663.16,-213.28 652.75,-215.23 662.11,-220.2 663.16,-213.28"/>
</g>
<!-- opencv&#45;&gt;magics&#45;metview -->
<g id="edge54" class="edge">
<title>opencv&#45;&gt;magics&#45;metview</title>
<path fill="none" stroke="black" d="M1150.39,-561.5C1223.45,-554.08 1396.17,-535.49 1540,-512 1547.17,-510.83 1554.66,-509.49 1562.08,-508.08"/>
<polygon fill="black" stroke="black" points="1562.98,-511.47 1572.13,-506.13 1561.65,-504.6 1562.98,-511.47"/>
</g>
<!-- magics -->
<g id="node27" class="node">
<title>magics</title>
<g id="a_node27"><a xlink:href="https://github.com/conda-forge/magics-feedstock" xlink:title="magics">
<ellipse fill="#fde725" stroke="black" cx="637" cy="-494" rx="36.5" ry="18"/>
<text text-anchor="middle" x="637" y="-490.3" font-family="Times,serif" font-size="14.00">magics</text>
</a>
</g>
</g>
<!-- opencv&#45;&gt;magics -->
<g id="edge50" class="edge">
<title>opencv&#45;&gt;magics</title>
<path fill="none" stroke="black" d="M1078.88,-562.94C1004.79,-558.19 830.62,-544.28 688,-512 683.8,-511.05 679.46,-509.89 675.16,-508.63"/>
<polygon fill="black" stroke="black" points="675.9,-505.19 665.31,-505.54 673.81,-511.87 675.9,-505.19"/>
</g>
<!-- poppler -->
<g id="node28" class="node">
<title>poppler</title>
<g id="a_node28"><a xlink:href="https://github.com/conda-forge/poppler-feedstock" xlink:title="poppler">
<ellipse fill="#fde725" stroke="black" cx="1148" cy="-494" rx="37.89" ry="18"/>
<text text-anchor="middle" x="1148" y="-490.3" font-family="Times,serif" font-size="14.00">poppler</text>
</a>
</g>
</g>
<!-- opencv&#45;&gt;poppler -->
<g id="edge51" class="edge">
<title>opencv&#45;&gt;poppler</title>
<path fill="none" stroke="black" d="M1122.82,-548.41C1126.67,-540.25 1131.4,-530.22 1135.71,-521.07"/>
<polygon fill="black" stroke="black" points="1138.91,-522.49 1140.01,-511.96 1132.58,-519.51 1138.91,-522.49"/>
</g>
<!-- r&#45;base -->
<g id="node29" class="node">
<title>r&#45;base</title>
<g id="a_node29"><a xlink:href="https://github.com/conda-forge/r-base-feedstock" xlink:title="r base">
<ellipse fill="#fde725" stroke="black" cx="1352" cy="-422" rx="32" ry="18"/>
<text text-anchor="middle" x="1352" y="-418.3" font-family="Times,serif" font-size="14.00">r base</text>
</a>
</g>
</g>
<!-- opencv&#45;&gt;r&#45;base -->
<g id="edge52" class="edge">
<title>opencv&#45;&gt;r&#45;base</title>
<path fill="none" stroke="black" d="M1151.28,-563.44C1192.89,-559.89 1261.13,-548.45 1306,-512 1325.54,-496.12 1337.69,-469.74 1344.56,-449.81"/>
<polygon fill="black" stroke="black" points="1347.97,-450.66 1347.68,-440.07 1341.3,-448.53 1347.97,-450.66"/>
</g>
<!-- opencv&#45;&gt;numcosmo -->
<g id="edge53" class="edge">
<title>opencv&#45;&gt;numcosmo</title>
<path fill="none" stroke="black" d="M1150.7,-561.27C1212.34,-554.23 1335.49,-537.39 1370,-512 1438.04,-461.94 1485.23,-396.76 1431,-332 1401.35,-296.59 1271.64,-284.82 1193.77,-280.92"/>
<polygon fill="black" stroke="black" points="1193.77,-277.41 1183.61,-280.44 1193.44,-284.41 1193.77,-277.41"/>
</g>
<!-- magics&#45;metview&#45;batch -->
<g id="node31" class="node">
<title>magics&#45;metview&#45;batch</title>
<g id="a_node31"><a xlink:href="https://github.com/conda-forge/magics-metview-batch-feedstock" xlink:title="magics metview batch">
<ellipse fill="#fde725" stroke="black" cx="1331" cy="-350" rx="91" ry="18"/>
<text text-anchor="middle" x="1331" y="-346.3" font-family="Times,serif" font-size="14.00">magics metview batch</text>
</a>
</g>
</g>
<!-- opencv&#45;&gt;magics&#45;metview&#45;batch -->
<g id="edge55" class="edge">
<title>opencv&#45;&gt;magics&#45;metview&#45;batch</title>
<path fill="none" stroke="black" d="M1151.25,-563.1C1196.82,-559.24 1275.98,-547.53 1333,-512 1379.6,-482.96 1415.98,-453.87 1393,-404 1387.44,-391.92 1377.61,-381.58 1367.4,-373.31"/>
<polygon fill="black" stroke="black" points="1369.3,-370.36 1359.21,-367.14 1365.09,-375.95 1369.3,-370.36"/>
</g>
<!-- libxmlpp -->
<g id="node26" class="node">
<title>libxmlpp</title>
<g id="a_node26"><a xlink:href="https://github.com/conda-forge/libxmlpp-feedstock/pull/9" xlink:title="libxmlpp ❎">
<ellipse fill="#31688e" stroke="black" cx="971" cy="-90" rx="54.69" ry="18"/>
<text text-anchor="middle" x="971" y="-86.3" font-family="Times,serif" font-size="14.00" fill="white">libxmlpp ❎</text>
</a>
</g>
</g>
<!-- libxmlpp&#45;&gt;cyclus -->
<g id="edge37" class="edge">
<title>libxmlpp&#45;&gt;cyclus</title>
<path fill="none" stroke="black" d="M971,-71.7C971,-63.98 971,-54.71 971,-46.11"/>
<polygon fill="black" stroke="black" points="974.5,-46.1 971,-36.1 967.5,-46.1 974.5,-46.1"/>
</g>
<!-- poppler&#45;&gt;libvips -->
<g id="edge57" class="edge">
<title>poppler&#45;&gt;libvips</title>
<path fill="none" stroke="black" d="M1139.02,-476.43C1125.69,-451.85 1100.56,-405.51 1084.86,-376.56"/>
<polygon fill="black" stroke="black" points="1087.77,-374.58 1079.93,-367.46 1081.62,-377.92 1087.77,-374.58"/>
</g>
<!-- pdf2svg -->
<g id="node32" class="node">
<title>pdf2svg</title>
<g id="a_node32"><a xlink:href="https://github.com/conda-forge/pdf2svg-feedstock" xlink:title="pdf2svg">
<ellipse fill="#fde725" stroke="black" cx="1187" cy="-422" rx="39" ry="18"/>
<text text-anchor="middle" x="1187" y="-418.3" font-family="Times,serif" font-size="14.00">pdf2svg</text>
</a>
</g>
</g>
<!-- poppler&#45;&gt;pdf2svg -->
<g id="edge58" class="edge">
<title>poppler&#45;&gt;pdf2svg</title>
<path fill="none" stroke="black" d="M1157.24,-476.41C1161.84,-468.16 1167.5,-458.01 1172.64,-448.78"/>
<polygon fill="black" stroke="black" points="1175.74,-450.4 1177.55,-439.96 1169.63,-446.99 1175.74,-450.4"/>
</g>
<!-- createrepo_c -->
<g id="node35" class="node">
<title>createrepo_c</title>
<g id="a_node35"><a xlink:href="https://github.com/conda-forge/createrepo_c-feedstock" xlink:title="createrepo_c">
<ellipse fill="#fde725" stroke="black" cx="1885" cy="-134" rx="56" ry="18"/>
<text text-anchor="middle" x="1885" y="-130.3" font-family="Times,serif" font-size="14.00">createrepo_c</text>
</a>
</g>
</g>
<!-- libmodulemd&#45;&gt;createrepo_c -->
<g id="edge67" class="edge">
<title>libmodulemd&#45;&gt;createrepo_c</title>
<path fill="none" stroke="black" d="M1885,-187.7C1885,-179.98 1885,-170.71 1885,-162.11"/>
<polygon fill="black" stroke="black" points="1888.5,-162.1 1885,-152.1 1881.5,-162.1 1888.5,-162.1"/>
</g>
<!-- libsecret -->
<g id="node36" class="node">
<title>libsecret</title>
<g id="a_node36"><a xlink:href="https://github.com/conda-forge/libsecret-feedstock/pull/4" xlink:title="libsecret ❎">
<ellipse fill="#31688e" stroke="black" cx="2210" cy="-566" rx="52" ry="18"/>
<text text-anchor="middle" x="2210" y="-562.3" font-family="Times,serif" font-size="14.00" fill="white">libsecret ❎</text>
</a>
</g>
</g>
<!-- cem -->
<g id="node37" class="node">
<title>cem</title>
<g id="a_node37"><a xlink:href="https://github.com/conda-forge/cem-feedstock/pull/5" xlink:title="cem ❎">
<ellipse fill="#31688e" stroke="black" cx="2210" cy="-494" rx="37.89" ry="18"/>
<text text-anchor="middle" x="2210" y="-490.3" font-family="Times,serif" font-size="14.00" fill="white">cem ❎</text>
</a>
</g>
</g>
<!-- libsecret&#45;&gt;cem -->
<!-- libical -->
<g id="node38" class="node">
<title>libical</title>
<g id="a_node38"><a xlink:href="https://github.com/conda-forge/libical-feedstock/pull/8" xlink:title="libical ❎">
<ellipse fill="#31688e" stroke="black" cx="2210" cy="-422" rx="44.39" ry="18"/>
<text text-anchor="middle" x="2210" y="-418.3" font-family="Times,serif" font-size="14.00" fill="white">libical ❎</text>
</a>
</g>
</g>
<!-- cem&#45;&gt;libical -->
<!-- libv8 -->
<g id="node43" class="node">
<title>libv8</title>
<g id="a_node43"><a xlink:href="https://github.com/conda-forge/libv8-feedstock/pull/22" xlink:title="libv8 ❎">
<ellipse fill="#31688e" stroke="black" cx="2210" cy="-350" rx="40.5" ry="18"/>
<text text-anchor="middle" x="2210" y="-346.3" font-family="Times,serif" font-size="14.00" fill="white">libv8 ❎</text>
</a>
</g>
</g>
<!-- libical&#45;&gt;libv8 -->
<!-- srm&#45;ifce -->
<g id="node39" class="node">
<title>srm&#45;ifce</title>
<g id="a_node39"><a xlink:href="https://github.com/conda-forge/srm-ifce-feedstock/pull/5" xlink:title="srm ifce ❎">
<ellipse fill="#31688e" stroke="black" cx="2049" cy="-530" rx="52" ry="18"/>
<text text-anchor="middle" x="2049" y="-526.3" font-family="Times,serif" font-size="14.00" fill="white">srm ifce ❎</text>
</a>
</g>
</g>
<!-- gfal2 -->
<g id="node40" class="node">
<title>gfal2</title>
<g id="a_node40"><a xlink:href="https://github.com/conda-forge/gfal2-feedstock" xlink:title="gfal2">
<ellipse fill="#fde725" stroke="black" cx="2049" cy="-458" rx="28.7" ry="18"/>
<text text-anchor="middle" x="2049" y="-454.3" font-family="Times,serif" font-size="14.00">gfal2</text>
</a>
</g>
</g>
<!-- srm&#45;ifce&#45;&gt;gfal2 -->
<g id="edge70" class="edge">
<title>srm&#45;ifce&#45;&gt;gfal2</title>
<path fill="none" stroke="black" d="M2049,-511.7C2049,-503.98 2049,-494.71 2049,-486.11"/>
<polygon fill="black" stroke="black" points="2052.5,-486.1 2049,-476.1 2045.5,-486.1 2052.5,-486.1"/>
</g>
<!-- python&#45;gfal2 -->
<g id="node41" class="node">
<title>python&#45;gfal2</title>
<g id="a_node41"><a xlink:href="https://github.com/conda-forge/python-gfal2-feedstock" xlink:title="python gfal2">
<ellipse fill="#fde725" stroke="black" cx="2007" cy="-386" rx="56" ry="18"/>
<text text-anchor="middle" x="2007" y="-382.3" font-family="Times,serif" font-size="14.00">python gfal2</text>
</a>
</g>
</g>
<!-- gfal2&#45;&gt;python&#45;gfal2 -->
<g id="edge71" class="edge">
<title>gfal2&#45;&gt;python&#45;gfal2</title>
<path fill="none" stroke="black" d="M2039.26,-440.76C2034.26,-432.44 2028.06,-422.1 2022.44,-412.73"/>
<polygon fill="black" stroke="black" points="2025.42,-410.9 2017.27,-404.12 2019.42,-414.5 2025.42,-410.9"/>
</g>
<!-- nordugrid&#45;arc -->
<g id="node42" class="node">
<title>nordugrid&#45;arc</title>
<g id="a_node42"><a xlink:href="https://github.com/conda-forge/nordugrid-arc-feedstock" xlink:title="nordugrid arc">
<ellipse fill="#fde725" stroke="black" cx="2091" cy="-314" rx="58.5" ry="18"/>
<text text-anchor="middle" x="2091" y="-310.3" font-family="Times,serif" font-size="14.00">nordugrid arc</text>
</a>
</g>
</g>
<!-- gfal2&#45;&gt;nordugrid&#45;arc -->
<g id="edge72" class="edge">
<title>gfal2&#45;&gt;nordugrid&#45;arc</title>
<path fill="none" stroke="black" d="M2057.12,-440.62C2061.97,-430.31 2067.96,-416.61 2072,-404 2078.53,-383.59 2083.48,-359.83 2086.68,-341.99"/>
<polygon fill="black" stroke="black" points="2090.16,-342.44 2088.41,-331.99 2083.26,-341.25 2090.16,-342.44"/>
</g>
<!-- libsoup -->
<g id="node44" class="node">
<title>libsoup</title>
<g id="a_node44"><a xlink:href="https://github.com/conda-forge/libsoup-feedstock/pull/5" xlink:title="libsoup ❎">
<ellipse fill="#31688e" stroke="black" cx="2210" cy="-278" rx="48.19" ry="18"/>
<text text-anchor="middle" x="2210" y="-274.3" font-family="Times,serif" font-size="14.00" fill="white">libsoup ❎</text>
</a>
</g>
</g>
<!-- libv8&#45;&gt;libsoup -->
<!-- gcab -->
<g id="node45" class="node">
<title>gcab</title>
<g id="a_node45"><a xlink:href="https://github.com/conda-forge/gcab-feedstock/pull/5" xlink:title="gcab ✓">
<ellipse fill="#31688e" stroke="black" cx="2050" cy="-90" rx="37.89" ry="18"/>
<text text-anchor="middle" x="2050" y="-86.3" font-family="Times,serif" font-size="14.00" fill="white">gcab ✓</text>
</a>
</g>
</g>
<!-- msitools -->
<g id="node46" class="node">
<title>msitools</title>
<g id="a_node46"><a xlink:href="https://github.com/conda-forge/msitools-feedstock" xlink:title="msitools">
<ellipse fill="#fde725" stroke="black" cx="2050" cy="-18" rx="41" ry="18"/>
<text text-anchor="middle" x="2050" y="-14.3" font-family="Times,serif" font-size="14.00">msitools</text>
</a>
</g>
</g>
<!-- gcab&#45;&gt;msitools -->
<g id="edge75" class="edge">
<title>gcab&#45;&gt;msitools</title>
<path fill="none" stroke="black" d="M2050,-71.7C2050,-63.98 2050,-54.71 2050,-46.11"/>
<polygon fill="black" stroke="black" points="2053.5,-46.1 2050,-36.1 2046.5,-46.1 2053.5,-46.1"/>
</g>
<!-- atkmm -->
<g id="node47" class="node">
<title>atkmm</title>
<g id="a_node47"><a xlink:href="https://github.com/conda-forge/atkmm-feedstock/pull/1" xlink:title="atkmm ❎">
<ellipse fill="#31688e" stroke="black" cx="364" cy="-422" rx="48.19" ry="18"/>
<text text-anchor="middle" x="364" y="-418.3" font-family="Times,serif" font-size="14.00" fill="white">atkmm ❎</text>
</a>
</g>
</g>
<!-- atkmm&#45;&gt;gtkmm -->
<g id="edge76" class="edge">
<title>atkmm&#45;&gt;gtkmm</title>
<path fill="none" stroke="black" d="M364,-403.7C364,-395.98 364,-386.71 364,-378.11"/>
<polygon fill="black" stroke="black" points="367.5,-378.1 364,-368.1 360.5,-378.1 367.5,-378.1"/>
</g>
<!-- atkmm&#45;&gt;cadabra2 -->
<g id="edge77" class="edge">
<title>atkmm&#45;&gt;cadabra2</title>
<path fill="none" stroke="black" d="M348.21,-404.99C323.53,-379.95 275.68,-331.42 247.11,-302.44"/>
<polygon fill="black" stroke="black" points="249.46,-299.84 239.94,-295.17 244.47,-304.75 249.46,-299.84"/>
</g>
<!-- pangomm -->
<g id="node48" class="node">
<title>pangomm</title>
<g id="a_node48"><a xlink:href="https://github.com/conda-forge/pangomm-feedstock/pull/1" xlink:title="pangomm ❎">
<ellipse fill="#31688e" stroke="black" cx="239" cy="-422" rx="58.5" ry="18"/>
<text text-anchor="middle" x="239" y="-418.3" font-family="Times,serif" font-size="14.00" fill="white">pangomm ❎</text>
</a>
</g>
</g>
<!-- pangomm&#45;&gt;gtkmm -->
<g id="edge78" class="edge">
<title>pangomm&#45;&gt;gtkmm</title>
<path fill="none" stroke="black" d="M265.82,-405.98C285.1,-395.18 311.2,-380.57 331.65,-369.12"/>
<polygon fill="black" stroke="black" points="333.58,-372.05 340.6,-364.11 330.16,-365.94 333.58,-372.05"/>
</g>
<!-- pangomm&#45;&gt;cadabra2 -->
<g id="edge79" class="edge">
<title>pangomm&#45;&gt;cadabra2</title>
<path fill="none" stroke="black" d="M237.19,-403.87C234.63,-379.67 229.94,-335.21 226.89,-306.39"/>
<polygon fill="black" stroke="black" points="230.35,-305.77 225.82,-296.19 223.39,-306.5 230.35,-305.77"/>
</g>
</g>
</svg>
