<?xml version="1.0" encoding="UTF-8" standalone="no"?>
<!DOCTYPE svg PUBLIC "-//W3C//DTD SVG 1.1//EN"
 "http://www.w3.org/Graphics/SVG/1.1/DTD/svg11.dtd">
<!-- Generated by graphviz version 2.42.3 (20191010.1750)
 -->
<!-- Title: %3 Pages: 1 -->
<svg width="2127pt" height="740pt"
 viewBox="0.00 0.00 2127.00 739.66" xmlns="http://www.w3.org/2000/svg" xmlns:xlink="http://www.w3.org/1999/xlink">
<g id="graph0" class="graph" transform="scale(1 1) rotate(0) translate(4 735.66)">
<title>%3</title>
<polygon fill="white" stroke="transparent" points="-4,4 -4,-735.66 2123,-735.66 2123,4 -4,4"/>
<!-- cyclus -->
<g id="node1" class="node">
<title>cyclus</title>
<g id="a_node1"><a xlink:href="https://github.com/conda-forge/cyclus-feedstock" xlink:title="cyclus">
<ellipse fill="#fde725" stroke="black" cx="900" cy="-18" rx="33.29" ry="18"/>
<text text-anchor="middle" x="900" y="-14.3" font-family="Times,serif" font-size="14.00">cyclus</text>
</a>
</g>
</g>
<!-- emacs -->
<g id="node2" class="node">
<title>emacs</title>
<g id="a_node2"><a xlink:href="https://github.com/conda-forge/emacs-feedstock" xlink:title="emacs">
<ellipse fill="#fde725" stroke="black" cx="660" cy="-350" rx="33.29" ry="18"/>
<text text-anchor="middle" x="660" y="-346.3" font-family="Times,serif" font-size="14.00">emacs</text>
</a>
</g>
</g>
<!-- gdk&#45;pixbuf -->
<g id="node3" class="node">
<title>gdk&#45;pixbuf</title>
<g id="a_node3"><a xlink:href="https://github.com/conda-forge/gdk-pixbuf-feedstock" xlink:title="gdk pixbuf">
<ellipse fill="#fde725" stroke="black" cx="956" cy="-494" rx="49.5" ry="18"/>
<text text-anchor="middle" x="956" y="-490.3" font-family="Times,serif" font-size="14.00">gdk pixbuf</text>
</a>
</g>
</g>
<!-- librsvg -->
<g id="node4" class="node">
<title>librsvg</title>
<g id="a_node4"><a xlink:href="https://github.com/conda-forge/librsvg-feedstock" xlink:title="librsvg">
<ellipse fill="#fde725" stroke="black" cx="943" cy="-422" rx="35.19" ry="18"/>
<text text-anchor="middle" x="943" y="-418.3" font-family="Times,serif" font-size="14.00">librsvg</text>
</a>
</g>
</g>
<!-- gdk&#45;pixbuf&#45;&gt;librsvg -->
<g id="edge1" class="edge">
<title>gdk&#45;pixbuf&#45;&gt;librsvg</title>
<path fill="none" stroke="black" d="M952.79,-475.7C951.35,-467.98 949.63,-458.71 948.04,-450.11"/>
<polygon fill="black" stroke="black" points="951.44,-449.3 946.18,-440.1 944.56,-450.58 951.44,-449.3"/>
</g>
<!-- gtk2 -->
<g id="node5" class="node">
<title>gtk2</title>
<g id="a_node5"><a xlink:href="https://github.com/conda-forge/gtk2-feedstock" xlink:title="gtk2">
<ellipse fill="#fde725" stroke="black" cx="1205" cy="-422" rx="27" ry="18"/>
<text text-anchor="middle" x="1205" y="-418.3" font-family="Times,serif" font-size="14.00">gtk2</text>
</a>
</g>
</g>
<!-- gdk&#45;pixbuf&#45;&gt;gtk2 -->
<g id="edge2" class="edge">
<title>gdk&#45;pixbuf&#45;&gt;gtk2</title>
<path fill="none" stroke="black" d="M999.17,-484.87C1042.73,-476.06 1111.57,-460.48 1169,-440 1170.9,-439.32 1172.84,-438.58 1174.78,-437.79"/>
<polygon fill="black" stroke="black" points="1176.6,-440.81 1184.35,-433.6 1173.79,-434.4 1176.6,-440.81"/>
</g>
<!-- openslide -->
<g id="node6" class="node">
<title>openslide</title>
<g id="a_node6"><a xlink:href="https://github.com/conda-forge/openslide-feedstock" xlink:title="openslide">
<ellipse fill="#fde725" stroke="black" cx="1116" cy="-422" rx="44.39" ry="18"/>
<text text-anchor="middle" x="1116" y="-418.3" font-family="Times,serif" font-size="14.00">openslide</text>
</a>
</g>
</g>
<!-- gdk&#45;pixbuf&#45;&gt;openslide -->
<g id="edge3" class="edge">
<title>gdk&#45;pixbuf&#45;&gt;openslide</title>
<path fill="none" stroke="black" d="M986.47,-479.67C1012.34,-468.35 1049.61,-452.04 1077.54,-439.83"/>
<polygon fill="black" stroke="black" points="1079.23,-442.91 1086.99,-435.69 1076.43,-436.49 1079.23,-442.91"/>
</g>
<!-- libvips -->
<g id="node7" class="node">
<title>libvips</title>
<g id="a_node7"><a xlink:href="https://github.com/conda-forge/libvips-feedstock" xlink:title="libvips">
<ellipse fill="#fde725" stroke="black" cx="1166" cy="-350" rx="34.5" ry="18"/>
<text text-anchor="middle" x="1166" y="-346.3" font-family="Times,serif" font-size="14.00">libvips</text>
</a>
</g>
</g>
<!-- gdk&#45;pixbuf&#45;&gt;libvips -->
<g id="edge4" class="edge">
<title>gdk&#45;pixbuf&#45;&gt;libvips</title>
<path fill="none" stroke="black" d="M972.87,-476.96C993.22,-458.1 1028.94,-426.53 1063,-404 1084.72,-389.63 1110.82,-376.24 1131.31,-366.51"/>
<polygon fill="black" stroke="black" points="1133.01,-369.58 1140.59,-362.17 1130.04,-363.24 1133.01,-369.58"/>
</g>
<!-- gtk3 -->
<g id="node8" class="node">
<title>gtk3</title>
<g id="a_node8"><a xlink:href="https://github.com/conda-forge/gtk3-feedstock" xlink:title="gtk3">
<ellipse fill="#fde725" stroke="black" cx="787" cy="-422" rx="27" ry="18"/>
<text text-anchor="middle" x="787" y="-418.3" font-family="Times,serif" font-size="14.00">gtk3</text>
</a>
</g>
</g>
<!-- gdk&#45;pixbuf&#45;&gt;gtk3 -->
<g id="edge5" class="edge">
<title>gdk&#45;pixbuf&#45;&gt;gtk3</title>
<path fill="none" stroke="black" d="M924.61,-480C894.38,-467.47 848.89,-448.63 818.59,-436.08"/>
<polygon fill="black" stroke="black" points="819.9,-432.84 809.32,-432.25 817.22,-439.31 819.9,-432.84"/>
</g>
<!-- gtkmm -->
<g id="node9" class="node">
<title>gtkmm</title>
<g id="a_node9"><a xlink:href="https://github.com/conda-forge/gtkmm-feedstock" xlink:title="gtkmm">
<ellipse fill="#fde725" stroke="black" cx="288" cy="-350" rx="36.5" ry="18"/>
<text text-anchor="middle" x="288" y="-346.3" font-family="Times,serif" font-size="14.00">gtkmm</text>
</a>
</g>
</g>
<!-- gdk&#45;pixbuf&#45;&gt;gtkmm -->
<g id="edge6" class="edge">
<title>gdk&#45;pixbuf&#45;&gt;gtkmm</title>
<path fill="none" stroke="black" d="M916.43,-482.9C857.37,-467.81 752.84,-441.02 751,-440 730.65,-428.73 734.04,-413.92 713,-404 595.13,-348.41 551.31,-384.2 422,-368 392.32,-364.28 358.94,-360.05 332.93,-356.74"/>
<polygon fill="black" stroke="black" points="333.34,-353.26 322.98,-355.47 332.46,-360.2 333.34,-353.26"/>
</g>
<!-- wxwidgets -->
<g id="node10" class="node">
<title>wxwidgets</title>
<g id="a_node10"><a xlink:href="https://github.com/conda-forge/wxwidgets-feedstock" xlink:title="wxwidgets">
<ellipse fill="#fde725" stroke="black" cx="1065" cy="-350" rx="48.99" ry="18"/>
<text text-anchor="middle" x="1065" y="-346.3" font-family="Times,serif" font-size="14.00">wxwidgets</text>
</a>
</g>
</g>
<!-- gdk&#45;pixbuf&#45;&gt;wxwidgets -->
<g id="edge7" class="edge">
<title>gdk&#45;pixbuf&#45;&gt;wxwidgets</title>
<path fill="none" stroke="black" d="M932.39,-478.17C919.94,-468.9 905.85,-455.73 899,-440 892.61,-425.33 889.56,-416.92 899,-404 900.85,-401.46 970.15,-379.92 1018.61,-365.09"/>
<polygon fill="black" stroke="black" points="1019.76,-368.4 1028.3,-362.13 1017.72,-361.7 1019.76,-368.4"/>
</g>
<!-- librsvg&#45;&gt;emacs -->
<g id="edge8" class="edge">
<title>librsvg&#45;&gt;emacs</title>
<path fill="none" stroke="black" d="M910.19,-415.59C863.39,-407.47 775.04,-390.64 702,-368 699.57,-367.25 697.08,-366.41 694.59,-365.53"/>
<polygon fill="black" stroke="black" points="695.66,-362.19 685.07,-361.95 693.2,-368.74 695.66,-362.19"/>
</g>
<!-- librsvg&#45;&gt;libvips -->
<g id="edge9" class="edge">
<title>librsvg&#45;&gt;libvips</title>
<path fill="none" stroke="black" d="M970.88,-410.97C977.76,-408.6 985.12,-406.14 992,-404 1049.66,-386.09 1065.73,-387.13 1123,-368 1125.4,-367.2 1127.86,-366.34 1130.33,-365.44"/>
<polygon fill="black" stroke="black" points="1131.66,-368.68 1139.79,-361.88 1129.2,-362.13 1131.66,-368.68"/>
</g>
<!-- gtk2&#45;&gt;libvips -->
<g id="edge10" class="edge">
<title>gtk2&#45;&gt;libvips</title>
<path fill="none" stroke="black" d="M1195.95,-404.76C1191.3,-396.4 1185.51,-386.02 1180.27,-376.61"/>
<polygon fill="black" stroke="black" points="1183.19,-374.67 1175.27,-367.63 1177.08,-378.07 1183.19,-374.67"/>
</g>
<!-- gnuplot -->
<g id="node11" class="node">
<title>gnuplot</title>
<g id="a_node11"><a xlink:href="https://github.com/conda-forge/gnuplot-feedstock" xlink:title="gnuplot">
<ellipse fill="#fde725" stroke="black" cx="1404" cy="-350" rx="37.89" ry="18"/>
<text text-anchor="middle" x="1404" y="-346.3" font-family="Times,serif" font-size="14.00">gnuplot</text>
</a>
</g>
</g>
<!-- gtk2&#45;&gt;gnuplot -->
<g id="edge11" class="edge">
<title>gtk2&#45;&gt;gnuplot</title>
<path fill="none" stroke="black" d="M1228.61,-412.7C1262.28,-400.85 1324.49,-378.97 1365.05,-364.7"/>
<polygon fill="black" stroke="black" points="1366.34,-367.96 1374.61,-361.34 1364.02,-361.35 1366.34,-367.96"/>
</g>
<!-- wxpython -->
<g id="node12" class="node">
<title>wxpython</title>
<g id="a_node12"><a xlink:href="https://github.com/conda-forge/wxpython-feedstock" xlink:title="wxpython">
<ellipse fill="#fde725" stroke="black" cx="757" cy="-350" rx="46.29" ry="18"/>
<text text-anchor="middle" x="757" y="-346.3" font-family="Times,serif" font-size="14.00">wxpython</text>
</a>
</g>
</g>
<!-- gtk2&#45;&gt;wxpython -->
<g id="edge12" class="edge">
<title>gtk2&#45;&gt;wxpython</title>
<path fill="none" stroke="black" d="M1184.52,-409.86C1179.57,-407.58 1174.19,-405.44 1169,-404 1015.34,-361.33 968.29,-399.7 812,-368 808.14,-367.22 804.17,-366.27 800.21,-365.24"/>
<polygon fill="black" stroke="black" points="801.04,-361.83 790.47,-362.51 799.15,-368.57 801.04,-361.83"/>
</g>
<!-- openslide&#45;&gt;libvips -->
<g id="edge13" class="edge">
<title>openslide&#45;&gt;libvips</title>
<path fill="none" stroke="black" d="M1127.85,-404.41C1134.04,-395.74 1141.73,-384.97 1148.59,-375.38"/>
<polygon fill="black" stroke="black" points="1151.62,-377.16 1154.58,-366.99 1145.92,-373.09 1151.62,-377.16"/>
</g>
<!-- gtk3&#45;&gt;gtkmm -->
<g id="edge14" class="edge">
<title>gtk3&#45;&gt;gtkmm</title>
<path fill="none" stroke="black" d="M765.69,-410.83C759.46,-408.23 752.57,-405.69 746,-404 605.68,-367.89 565.87,-385.12 422,-368 392.29,-364.47 358.92,-360.23 332.91,-356.87"/>
<polygon fill="black" stroke="black" points="333.33,-353.4 322.97,-355.59 332.44,-360.34 333.33,-353.4"/>
</g>
<!-- gtk3&#45;&gt;wxwidgets -->
<g id="edge15" class="edge">
<title>gtk3&#45;&gt;wxwidgets</title>
<path fill="none" stroke="black" d="M808.84,-411.02C814.95,-408.48 821.66,-405.93 828,-404 905.63,-380.35 928.21,-387.43 1007,-368 1010.84,-367.05 1014.82,-366.01 1018.79,-364.93"/>
<polygon fill="black" stroke="black" points="1019.93,-368.25 1028.62,-362.19 1018.05,-361.51 1019.93,-368.25"/>
</g>
<!-- pygobject -->
<g id="node13" class="node">
<title>pygobject</title>
<g id="a_node13"><a xlink:href="https://github.com/conda-forge/pygobject-feedstock" xlink:title="pygobject">
<ellipse fill="#fde725" stroke="black" cx="953" cy="-350" rx="45.5" ry="18"/>
<text text-anchor="middle" x="953" y="-346.3" font-family="Times,serif" font-size="14.00">pygobject</text>
</a>
</g>
</g>
<!-- gtk3&#45;&gt;pygobject -->
<g id="edge16" class="edge">
<title>gtk3&#45;&gt;pygobject</title>
<path fill="none" stroke="black" d="M809.39,-411.56C836.13,-400.28 881.33,-381.22 913.88,-367.49"/>
<polygon fill="black" stroke="black" points="915.27,-370.71 923.12,-363.6 912.55,-364.26 915.27,-370.71"/>
</g>
<!-- stoken -->
<g id="node14" class="node">
<title>stoken</title>
<g id="a_node14"><a xlink:href="https://github.com/conda-forge/stoken-feedstock" xlink:title="stoken">
<ellipse fill="#fde725" stroke="black" cx="855" cy="-350" rx="34" ry="18"/>
<text text-anchor="middle" x="855" y="-346.3" font-family="Times,serif" font-size="14.00">stoken</text>
</a>
</g>
</g>
<!-- gtk3&#45;&gt;stoken -->
<g id="edge17" class="edge">
<title>gtk3&#45;&gt;stoken</title>
<path fill="none" stroke="black" d="M801.09,-406.5C810.23,-397.09 822.34,-384.63 832.76,-373.9"/>
<polygon fill="black" stroke="black" points="835.53,-376.07 839.99,-366.46 830.51,-371.19 835.53,-376.07"/>
</g>
<!-- cadabra2 -->
<g id="node15" class="node">
<title>cadabra2</title>
<g id="a_node15"><a xlink:href="https://github.com/conda-forge/cadabra2-feedstock" xlink:title="cadabra2">
<ellipse fill="#fde725" stroke="black" cx="192" cy="-278" rx="42.49" ry="18"/>
<text text-anchor="middle" x="192" y="-274.3" font-family="Times,serif" font-size="14.00">cadabra2</text>
</a>
</g>
</g>
<!-- gtkmm&#45;&gt;cadabra2 -->
<g id="edge18" class="edge">
<title>gtkmm&#45;&gt;cadabra2</title>
<path fill="none" stroke="black" d="M268.11,-334.5C254.39,-324.49 235.95,-311.05 220.65,-299.89"/>
<polygon fill="black" stroke="black" points="222.67,-297.03 212.53,-293.97 218.55,-302.69 222.67,-297.03"/>
</g>
<!-- octave -->
<g id="node16" class="node">
<title>octave</title>
<g id="a_node16"><a xlink:href="https://github.com/conda-forge/octave-feedstock" xlink:title="octave">
<ellipse fill="#fde725" stroke="black" cx="1413" cy="-278" rx="34" ry="18"/>
<text text-anchor="middle" x="1413" y="-274.3" font-family="Times,serif" font-size="14.00">octave</text>
</a>
</g>
</g>
<!-- gnuplot&#45;&gt;octave -->
<g id="edge19" class="edge">
<title>gnuplot&#45;&gt;octave</title>
<path fill="none" stroke="black" d="M1406.22,-331.7C1407.22,-323.98 1408.41,-314.71 1409.51,-306.11"/>
<polygon fill="black" stroke="black" points="1413,-306.47 1410.8,-296.1 1406.05,-305.58 1413,-306.47"/>
</g>
<!-- gst&#45;python -->
<g id="node19" class="node">
<title>gst&#45;python</title>
<g id="a_node19"><a xlink:href="https://github.com/conda-forge/gst-python-feedstock" xlink:title="gst python">
<ellipse fill="#fde725" stroke="black" cx="1192" cy="-278" rx="48.19" ry="18"/>
<text text-anchor="middle" x="1192" y="-274.3" font-family="Times,serif" font-size="14.00">gst python</text>
</a>
</g>
</g>
<!-- pygobject&#45;&gt;gst&#45;python -->
<g id="edge55" class="edge">
<title>pygobject&#45;&gt;gst&#45;python</title>
<path fill="none" stroke="black" d="M987.24,-338.07C993.79,-336.03 1000.6,-333.92 1007,-332 1053.85,-317.92 1107.62,-302.61 1145.08,-292.08"/>
<polygon fill="black" stroke="black" points="1146.03,-295.45 1154.71,-289.38 1144.14,-288.71 1146.03,-295.45"/>
</g>
<!-- gstlal&#45;ugly -->
<g id="node20" class="node">
<title>gstlal&#45;ugly</title>
<g id="a_node20"><a xlink:href="https://github.com/conda-forge/gstlal-ugly-feedstock" xlink:title="gstlal ugly">
<ellipse fill="#fde725" stroke="black" cx="1293" cy="-206" rx="48.19" ry="18"/>
<text text-anchor="middle" x="1293" y="-202.3" font-family="Times,serif" font-size="14.00">gstlal ugly</text>
</a>
</g>
</g>
<!-- pygobject&#45;&gt;gstlal&#45;ugly -->
<g id="edge56" class="edge">
<title>pygobject&#45;&gt;gstlal&#45;ugly</title>
<path fill="none" stroke="black" d="M986.19,-337.65C993.02,-335.57 1000.2,-333.57 1007,-332 1112.97,-307.6 1161.11,-360.03 1249,-296 1269.38,-281.15 1280.84,-254.21 1286.91,-233.85"/>
<polygon fill="black" stroke="black" points="1290.29,-234.75 1289.55,-224.18 1283.54,-232.91 1290.29,-234.75"/>
</g>
<!-- gstlal&#45;burst -->
<g id="node21" class="node">
<title>gstlal&#45;burst</title>
<g id="a_node21"><a xlink:href="https://github.com/conda-forge/gstlal-burst-feedstock" xlink:title="gstlal burst">
<ellipse fill="#fde725" stroke="black" cx="1169" cy="-134" rx="50.09" ry="18"/>
<text text-anchor="middle" x="1169" y="-130.3" font-family="Times,serif" font-size="14.00">gstlal burst</text>
</a>
</g>
</g>
<!-- pygobject&#45;&gt;gstlal&#45;burst -->
<g id="edge57" class="edge">
<title>pygobject&#45;&gt;gstlal&#45;burst</title>
<path fill="none" stroke="black" d="M953,-331.83C953.79,-312.77 957.46,-281.83 972,-260 1008.59,-205.09 1078.39,-169.44 1124.31,-150.78"/>
<polygon fill="black" stroke="black" points="1125.72,-153.99 1133.73,-147.06 1123.14,-147.48 1125.72,-153.99"/>
</g>
<!-- gstlal&#45;inspiral -->
<g id="node22" class="node">
<title>gstlal&#45;inspiral</title>
<g id="a_node22"><a xlink:href="https://github.com/conda-forge/gstlal-inspiral-feedstock" xlink:title="gstlal inspiral">
<ellipse fill="#fde725" stroke="black" cx="1296" cy="-134" rx="58.5" ry="18"/>
<text text-anchor="middle" x="1296" y="-130.3" font-family="Times,serif" font-size="14.00">gstlal inspiral</text>
</a>
</g>
</g>
<!-- pygobject&#45;&gt;gstlal&#45;inspiral -->
<g id="edge58" class="edge">
<title>pygobject&#45;&gt;gstlal&#45;inspiral</title>
<path fill="none" stroke="black" d="M977.9,-334.91C996.3,-324.41 1021.88,-309.59 1044,-296 1119.32,-249.74 1136.38,-235.39 1211,-188 1227.81,-177.32 1246.59,-165.59 1262.22,-155.89"/>
<polygon fill="black" stroke="black" points="1264.36,-158.68 1271.01,-150.43 1260.67,-152.73 1264.36,-158.68"/>
</g>
<!-- gstlal&#45;calibration -->
<g id="node23" class="node">
<title>gstlal&#45;calibration</title>
<g id="a_node23"><a xlink:href="https://github.com/conda-forge/gstlal-calibration-feedstock" xlink:title="gstlal calibration">
<ellipse fill="#fde725" stroke="black" cx="192" cy="-206" rx="69.59" ry="18"/>
<text text-anchor="middle" x="192" y="-202.3" font-family="Times,serif" font-size="14.00">gstlal calibration</text>
</a>
</g>
</g>
<!-- pygobject&#45;&gt;gstlal&#45;calibration -->
<g id="edge59" class="edge">
<title>pygobject&#45;&gt;gstlal&#45;calibration</title>
<path fill="none" stroke="black" d="M919.46,-337.83C912.42,-335.71 905.01,-333.64 898,-332 801.12,-309.25 775.06,-312.98 677,-296 526.18,-269.88 349.45,-236.83 256.57,-219.27"/>
<polygon fill="black" stroke="black" points="256.96,-215.79 246.49,-217.37 255.66,-222.66 256.96,-215.79"/>
</g>
<!-- numcosmo -->
<g id="node26" class="node">
<title>numcosmo</title>
<g id="a_node26"><a xlink:href="https://github.com/conda-forge/numcosmo-feedstock" xlink:title="numcosmo">
<ellipse fill="#fde725" stroke="black" cx="408" cy="-278" rx="50.09" ry="18"/>
<text text-anchor="middle" x="408" y="-274.3" font-family="Times,serif" font-size="14.00">numcosmo</text>
</a>
</g>
</g>
<!-- pygobject&#45;&gt;numcosmo -->
<g id="edge60" class="edge">
<title>pygobject&#45;&gt;numcosmo</title>
<path fill="none" stroke="black" d="M919.84,-337.5C912.71,-335.38 905.16,-333.4 898,-332 714.11,-296.13 662.9,-326.2 478,-296 471.12,-294.88 463.91,-293.44 456.85,-291.87"/>
<polygon fill="black" stroke="black" points="457.19,-288.36 446.66,-289.51 455.61,-295.17 457.19,-288.36"/>
</g>
<!-- hkl -->
<g id="node32" class="node">
<title>hkl</title>
<g id="a_node32"><a xlink:href="https://github.com/conda-forge/hkl-feedstock" xlink:title="hkl">
<ellipse fill="#fde725" stroke="black" cx="1008" cy="-278" rx="27" ry="18"/>
<text text-anchor="middle" x="1008" y="-274.3" font-family="Times,serif" font-size="14.00">hkl</text>
</a>
</g>
</g>
<!-- pygobject&#45;&gt;hkl -->
<g id="edge61" class="edge">
<title>pygobject&#45;&gt;hkl</title>
<path fill="none" stroke="black" d="M966.03,-332.41C973.01,-323.53 981.73,-312.44 989.4,-302.67"/>
<polygon fill="black" stroke="black" points="992.39,-304.54 995.81,-294.51 986.88,-300.21 992.39,-304.54"/>
</g>
<!-- libmodulemd -->
<g id="node33" class="node">
<title>libmodulemd</title>
<g id="a_node33"><a xlink:href="https://github.com/conda-forge/libmodulemd-feedstock" xlink:title="libmodulemd">
<ellipse fill="#fde725" stroke="black" cx="512" cy="-206" rx="58.5" ry="18"/>
<text text-anchor="middle" x="512" y="-202.3" font-family="Times,serif" font-size="14.00">libmodulemd</text>
</a>
</g>
</g>
<!-- pygobject&#45;&gt;libmodulemd -->
<g id="edge62" class="edge">
<title>pygobject&#45;&gt;libmodulemd</title>
<path fill="none" stroke="black" d="M918.76,-337.98C840.93,-312.92 650.53,-251.6 560.58,-222.64"/>
<polygon fill="black" stroke="black" points="561.49,-219.26 550.89,-219.52 559.34,-225.92 561.49,-219.26"/>
</g>
<!-- gstreamer -->
<g id="node17" class="node">
<title>gstreamer</title>
<g id="a_node17"><a xlink:href="https://github.com/conda-forge/gstreamer-feedstock/pull/42" xlink:title="gstreamer ❎">
<ellipse fill="#31688e" stroke="black" cx="1646" cy="-638" rx="58" ry="18"/>
<text text-anchor="middle" x="1646" y="-634.3" font-family="Times,serif" font-size="14.00" fill="white">gstreamer ❎</text>
</a>
</g>
</g>
<!-- gstreamer&#45;&gt;wxpython -->
<g id="edge21" class="edge">
<title>gstreamer&#45;&gt;wxpython</title>
<path fill="none" stroke="black" d="M1587.98,-637.09C1374.92,-636.52 637.77,-626.15 438,-512 391.23,-485.28 347.11,-444.17 383,-404 430.53,-350.8 632.17,-382.6 702,-368 705.85,-367.19 709.82,-366.24 713.78,-365.19"/>
<polygon fill="black" stroke="black" points="714.85,-368.52 723.52,-362.44 712.95,-361.79 714.85,-368.52"/>
</g>
<!-- qt -->
<g id="node18" class="node">
<title>qt</title>
<g id="a_node18"><a xlink:href="https://github.com/conda-forge/qt-feedstock" xlink:title="qt">
<ellipse fill="#fde725" stroke="black" cx="1072" cy="-566" rx="27" ry="18"/>
<text text-anchor="middle" x="1072" y="-562.3" font-family="Times,serif" font-size="14.00">qt</text>
</a>
</g>
</g>
<!-- gstreamer&#45;&gt;qt -->
<g id="edge20" class="edge">
<title>gstreamer&#45;&gt;qt</title>
<path fill="none" stroke="black" d="M1593.03,-630.54C1477.75,-616.48 1206.6,-583.41 1108.36,-571.43"/>
<polygon fill="black" stroke="black" points="1108.67,-567.95 1098.32,-570.21 1107.82,-574.89 1108.67,-567.95"/>
</g>
<!-- gstreamer&#45;&gt;gst&#45;python -->
<g id="edge22" class="edge">
<title>gstreamer&#45;&gt;gst&#45;python</title>
<path fill="none" stroke="black" d="M1646.46,-619.84C1646.86,-567.44 1640.34,-408.44 1551,-332 1528.4,-312.66 1343.74,-293.01 1248.45,-284.03"/>
<polygon fill="black" stroke="black" points="1248.68,-280.54 1238.4,-283.09 1248.03,-287.51 1248.68,-280.54"/>
</g>
<!-- gstreamer&#45;&gt;gstlal&#45;ugly -->
<g id="edge23" class="edge">
<title>gstreamer&#45;&gt;gstlal&#45;ugly</title>
<path fill="none" stroke="black" d="M1661.75,-620.61C1684.01,-595.64 1722,-545.61 1722,-495 1722,-495 1722,-495 1722,-349 1722,-302.03 1704.51,-285.4 1665,-260 1614.14,-227.31 1441.91,-214.17 1350.73,-209.41"/>
<polygon fill="black" stroke="black" points="1350.72,-205.91 1340.56,-208.9 1350.37,-212.9 1350.72,-205.91"/>
</g>
<!-- gstreamer&#45;&gt;gstlal&#45;burst -->
<g id="edge24" class="edge">
<title>gstreamer&#45;&gt;gstlal&#45;burst</title>
<path fill="none" stroke="black" d="M1670.74,-621.55C1704.26,-598.47 1760,-551.59 1760,-495 1760,-495 1760,-495 1760,-349 1760,-301.3 1739.34,-286.99 1700,-260 1522.54,-138.26 1436.36,-205.81 1228,-152 1224.16,-151.01 1220.19,-149.95 1216.21,-148.86"/>
<polygon fill="black" stroke="black" points="1216.94,-145.42 1206.37,-146.11 1215.06,-152.17 1216.94,-145.42"/>
</g>
<!-- gstreamer&#45;&gt;gstlal&#45;inspiral -->
<g id="edge25" class="edge">
<title>gstreamer&#45;&gt;gstlal&#45;inspiral</title>
<path fill="none" stroke="black" d="M1694.45,-627.93C1721.43,-620.48 1753.6,-607.22 1774,-584 1801.04,-553.22 1798,-535.97 1798,-495 1798,-495 1798,-495 1798,-277 1798,-187.62 1499.64,-151.66 1362.96,-139.87"/>
<polygon fill="black" stroke="black" points="1362.87,-136.35 1352.61,-139 1362.28,-143.33 1362.87,-136.35"/>
</g>
<!-- gstreamer&#45;&gt;gstlal&#45;calibration -->
<g id="edge26" class="edge">
<title>gstreamer&#45;&gt;gstlal&#45;calibration</title>
<path fill="none" stroke="black" d="M1588.05,-636.72C1422,-635.4 930.34,-627.78 525,-584 289.71,-558.59 0,-731.66 0,-495 0,-495 0,-495 0,-349 0,-281 78.81,-241.85 135.44,-222.49"/>
<polygon fill="black" stroke="black" points="136.63,-225.78 145.03,-219.33 134.44,-219.13 136.63,-225.78"/>
</g>
<!-- qt&#45;&gt;emacs -->
<g id="edge27" class="edge">
<title>qt&#45;&gt;emacs</title>
<path fill="none" stroke="black" d="M1045.46,-562.14C955.71,-551.82 666.4,-513.27 617,-440 602.65,-418.71 619.76,-391.9 636.46,-373.3"/>
<polygon fill="black" stroke="black" points="639.16,-375.54 643.5,-365.87 634.08,-370.72 639.16,-375.54"/>
</g>
<!-- qt&#45;&gt;gdk&#45;pixbuf -->
<g id="edge28" class="edge">
<title>qt&#45;&gt;gdk&#45;pixbuf</title>
<path fill="none" stroke="black" d="M1052.58,-553.28C1035.39,-542.91 1009.92,-527.54 989.45,-515.19"/>
<polygon fill="black" stroke="black" points="991.11,-512.1 980.74,-509.93 987.49,-518.09 991.11,-512.1"/>
</g>
<!-- qt&#45;&gt;gtk2 -->
<g id="edge29" class="edge">
<title>qt&#45;&gt;gtk2</title>
<path fill="none" stroke="black" d="M1085.73,-550.34C1109.13,-525.36 1156.84,-474.42 1184.3,-445.1"/>
<polygon fill="black" stroke="black" points="1186.86,-447.49 1191.14,-437.79 1181.75,-442.7 1186.86,-447.49"/>
</g>
<!-- qt&#45;&gt;openslide -->
<g id="edge30" class="edge">
<title>qt&#45;&gt;openslide</title>
<path fill="none" stroke="black" d="M1077.22,-548.15C1084.72,-523.94 1098.63,-479.05 1107.59,-450.13"/>
<polygon fill="black" stroke="black" points="1111.03,-450.86 1110.65,-440.27 1104.35,-448.78 1111.03,-450.86"/>
</g>
<!-- qt&#45;&gt;libvips -->
<g id="edge31" class="edge">
<title>qt&#45;&gt;libvips</title>
<path fill="none" stroke="black" d="M1095.22,-556.35C1134.25,-540.35 1211.62,-502 1241,-440 1247.85,-425.54 1248.36,-418.21 1241,-404 1232.56,-387.7 1216.55,-375.35 1201.48,-366.68"/>
<polygon fill="black" stroke="black" points="1202.76,-363.4 1192.29,-361.76 1199.45,-369.57 1202.76,-363.4"/>
</g>
<!-- qt&#45;&gt;wxwidgets -->
<g id="edge32" class="edge">
<title>qt&#45;&gt;wxwidgets</title>
<path fill="none" stroke="black" d="M1070.35,-547.63C1068.16,-523.51 1064.38,-478.49 1063,-440 1062.43,-424.01 1062.7,-420 1063,-404 1063.16,-395.68 1063.45,-386.63 1063.77,-378.4"/>
<polygon fill="black" stroke="black" points="1067.28,-378.32 1064.19,-368.18 1060.28,-378.03 1067.28,-378.32"/>
</g>
<!-- qt&#45;&gt;gnuplot -->
<g id="edge33" class="edge">
<title>qt&#45;&gt;gnuplot</title>
<path fill="none" stroke="black" d="M1098.86,-563.68C1188.1,-559.02 1470.51,-541.99 1497,-512 1507.59,-500.01 1503.51,-490.62 1497,-476 1487.27,-454.15 1472.18,-458.48 1457,-440 1440.87,-420.35 1426.39,-395.27 1416.66,-376.74"/>
<polygon fill="black" stroke="black" points="1419.7,-375.01 1412.02,-367.71 1413.48,-378.21 1419.7,-375.01"/>
</g>
<!-- qt&#45;&gt;cadabra2 -->
<g id="edge45" class="edge">
<title>qt&#45;&gt;cadabra2</title>
<path fill="none" stroke="black" d="M1044.75,-563.71C893,-556.23 156.84,-516.17 95,-440 57.57,-393.9 122.36,-331.99 162.96,-300.04"/>
<polygon fill="black" stroke="black" points="165.18,-302.75 170.97,-293.88 160.91,-297.21 165.18,-302.75"/>
</g>
<!-- qt&#45;&gt;octave -->
<g id="edge34" class="edge">
<title>qt&#45;&gt;octave</title>
<path fill="none" stroke="black" d="M1099.07,-564.62C1152.2,-562.93 1272.81,-554.31 1363,-512 1385.57,-501.42 1383.78,-487.29 1406,-476 1465.2,-445.92 1510.09,-492.3 1551,-440 1580.57,-402.19 1578.18,-371.56 1551,-332 1547.96,-327.58 1490.02,-306.32 1450.19,-292.11"/>
<polygon fill="black" stroke="black" points="1451.34,-288.8 1440.75,-288.75 1449,-295.4 1451.34,-288.8"/>
</g>
<!-- qt&#45;&gt;gstlal&#45;ugly -->
<g id="edge35" class="edge">
<title>qt&#45;&gt;gstlal&#45;ugly</title>
<path fill="none" stroke="black" d="M1098.83,-563.67C1161.38,-558.94 1316.44,-537.45 1381,-440 1389.84,-426.66 1385.64,-419.31 1381,-404 1375.43,-385.6 1365.93,-385.03 1357,-368 1333.17,-322.58 1312.69,-266.22 1301.67,-233.66"/>
<polygon fill="black" stroke="black" points="1304.92,-232.34 1298.43,-223.97 1298.28,-234.56 1304.92,-232.34"/>
</g>
<!-- qt&#45;&gt;gstlal&#45;burst -->
<g id="edge36" class="edge">
<title>qt&#45;&gt;gstlal&#45;burst</title>
<path fill="none" stroke="black" d="M1044.88,-564.17C964.4,-561.31 728.49,-549.82 663,-512 628.13,-491.86 620.9,-478.15 608,-440 602.87,-424.84 606.9,-419.96 608,-404 610.23,-371.77 597.82,-357.23 618,-332 731.58,-189.98 829.11,-247.38 1001,-188 1041.65,-173.96 1088.33,-159.35 1122.15,-149.04"/>
<polygon fill="black" stroke="black" points="1123.23,-152.37 1131.78,-146.11 1121.19,-145.67 1123.23,-152.37"/>
</g>
<!-- qt&#45;&gt;gstlal&#45;inspiral -->
<g id="edge37" class="edge">
<title>qt&#45;&gt;gstlal&#45;inspiral</title>
<path fill="none" stroke="black" d="M1099.09,-564.61C1217.53,-562.18 1684,-544.89 1684,-423 1684,-423 1684,-423 1684,-277 1684,-208.31 1466.84,-162.92 1357.44,-144.41"/>
<polygon fill="black" stroke="black" points="1357.96,-140.95 1347.52,-142.76 1356.81,-147.86 1357.96,-140.95"/>
</g>
<!-- qt&#45;&gt;gstlal&#45;calibration -->
<g id="edge38" class="edge">
<title>qt&#45;&gt;gstlal&#45;calibration</title>
<path fill="none" stroke="black" d="M1044.78,-564.3C903.96,-560.58 261.27,-542.06 178,-512 127.16,-493.65 104.41,-488.22 80,-440 72.77,-425.72 78.36,-419.92 80,-404 87.13,-334.86 97.98,-314.59 141,-260 148.82,-250.07 158.22,-239.89 166.81,-231.15"/>
<polygon fill="black" stroke="black" points="169.49,-233.42 174.09,-223.87 164.54,-228.47 169.49,-233.42"/>
</g>
<!-- magics -->
<g id="node24" class="node">
<title>magics</title>
<g id="a_node24"><a xlink:href="https://github.com/conda-forge/magics-feedstock" xlink:title="magics">
<ellipse fill="#fde725" stroke="black" cx="1452" cy="-494" rx="36.5" ry="18"/>
<text text-anchor="middle" x="1452" y="-490.3" font-family="Times,serif" font-size="14.00">magics</text>
</a>
</g>
</g>
<!-- qt&#45;&gt;magics -->
<g id="edge39" class="edge">
<title>qt&#45;&gt;magics</title>
<path fill="none" stroke="black" d="M1098.73,-562.18C1155.15,-555.91 1290.31,-539.17 1401,-512 1405.18,-510.97 1409.51,-509.77 1413.8,-508.47"/>
<polygon fill="black" stroke="black" points="1415.17,-511.71 1423.65,-505.36 1413.06,-505.04 1415.17,-511.71"/>
</g>
<!-- poppler -->
<g id="node25" class="node">
<title>poppler</title>
<g id="a_node25"><a xlink:href="https://github.com/conda-forge/poppler-feedstock" xlink:title="poppler">
<ellipse fill="#fde725" stroke="black" cx="842" cy="-494" rx="37.89" ry="18"/>
<text text-anchor="middle" x="842" y="-490.3" font-family="Times,serif" font-size="14.00">poppler</text>
</a>
</g>
</g>
<!-- qt&#45;&gt;poppler -->
<g id="edge40" class="edge">
<title>qt&#45;&gt;poppler</title>
<path fill="none" stroke="black" d="M1047.93,-557.76C1014.18,-547.59 950.88,-528.49 897,-512 892.35,-510.58 887.47,-509.08 882.63,-507.59"/>
<polygon fill="black" stroke="black" points="883.41,-504.17 872.82,-504.56 881.35,-510.85 883.41,-504.17"/>
</g>
<!-- qt&#45;&gt;numcosmo -->
<g id="edge41" class="edge">
<title>qt&#45;&gt;numcosmo</title>
<path fill="none" stroke="black" d="M1045.06,-563.98C939.76,-559.8 559.69,-542.69 516,-512 472.56,-481.49 497.44,-446.02 465,-404 449.77,-384.27 434.27,-389.69 422,-368 411.38,-349.22 408.14,-324.84 407.41,-306.35"/>
<polygon fill="black" stroke="black" points="410.9,-306.17 407.23,-296.23 403.91,-306.29 410.9,-306.17"/>
</g>
<!-- r&#45;base -->
<g id="node27" class="node">
<title>r&#45;base</title>
<g id="a_node27"><a xlink:href="https://github.com/conda-forge/r-base-feedstock" xlink:title="r base">
<ellipse fill="#fde725" stroke="black" cx="424" cy="-422" rx="32" ry="18"/>
<text text-anchor="middle" x="424" y="-418.3" font-family="Times,serif" font-size="14.00">r base</text>
</a>
</g>
</g>
<!-- qt&#45;&gt;r&#45;base -->
<g id="edge42" class="edge">
<title>qt&#45;&gt;r&#45;base</title>
<path fill="none" stroke="black" d="M1044.78,-564.13C933.68,-560.4 518.25,-544.36 470,-512 448.75,-497.74 436.73,-470.47 430.35,-449.86"/>
<polygon fill="black" stroke="black" points="433.67,-448.75 427.58,-440.08 426.94,-450.65 433.67,-448.75"/>
</g>
<!-- magics&#45;metview -->
<g id="node28" class="node">
<title>magics&#45;metview</title>
<g id="a_node28"><a xlink:href="https://github.com/conda-forge/magics-metview-feedstock" xlink:title="magics metview">
<ellipse fill="#fde725" stroke="black" cx="501" cy="-350" rx="69.59" ry="18"/>
<text text-anchor="middle" x="501" y="-346.3" font-family="Times,serif" font-size="14.00">magics metview</text>
</a>
</g>
</g>
<!-- qt&#45;&gt;magics&#45;metview -->
<g id="edge43" class="edge">
<title>qt&#45;&gt;magics&#45;metview</title>
<path fill="none" stroke="black" d="M1044.97,-564.04C942.87,-560.17 584.5,-544.38 546,-512 506.85,-479.07 500.28,-415.16 499.98,-378.54"/>
<polygon fill="black" stroke="black" points="503.49,-378.15 500.06,-368.12 496.49,-378.09 503.49,-378.15"/>
</g>
<!-- magics&#45;metview&#45;batch -->
<g id="node29" class="node">
<title>magics&#45;metview&#45;batch</title>
<g id="a_node29"><a xlink:href="https://github.com/conda-forge/magics-metview-batch-feedstock" xlink:title="magics metview batch">
<ellipse fill="#fde725" stroke="black" cx="1565" cy="-278" rx="91" ry="18"/>
<text text-anchor="middle" x="1565" y="-274.3" font-family="Times,serif" font-size="14.00">magics metview batch</text>
</a>
</g>
</g>
<!-- qt&#45;&gt;magics&#45;metview&#45;batch -->
<g id="edge44" class="edge">
<title>qt&#45;&gt;magics&#45;metview&#45;batch</title>
<path fill="none" stroke="black" d="M1099.1,-564.34C1183.72,-561.89 1441.68,-551.29 1514,-512 1550.6,-492.11 1559.82,-479.17 1574,-440 1590.25,-395.11 1580.86,-338.58 1572.77,-305.84"/>
<polygon fill="black" stroke="black" points="1576.14,-304.88 1570.23,-296.09 1569.37,-306.65 1576.14,-304.88"/>
</g>
<!-- gst&#45;python&#45;&gt;gstlal&#45;ugly -->
<g id="edge46" class="edge">
<title>gst&#45;python&#45;&gt;gstlal&#45;ugly</title>
<path fill="none" stroke="black" d="M1213.92,-261.81C1228.21,-251.9 1247.06,-238.84 1262.77,-227.95"/>
<polygon fill="black" stroke="black" points="1264.9,-230.73 1271.13,-222.16 1260.91,-224.98 1264.9,-230.73"/>
</g>
<!-- gst&#45;python&#45;&gt;gstlal&#45;burst -->
<g id="edge47" class="edge">
<title>gst&#45;python&#45;&gt;gstlal&#45;burst</title>
<path fill="none" stroke="black" d="M1189.23,-259.87C1185.31,-235.67 1178.1,-191.21 1173.44,-162.39"/>
<polygon fill="black" stroke="black" points="1176.84,-161.5 1171.78,-152.19 1169.93,-162.62 1176.84,-161.5"/>
</g>
<!-- gst&#45;python&#45;&gt;gstlal&#45;inspiral -->
<g id="edge48" class="edge">
<title>gst&#45;python&#45;&gt;gstlal&#45;inspiral</title>
<path fill="none" stroke="black" d="M1198.17,-259.82C1205.43,-241.03 1218.72,-210.59 1236,-188 1244.62,-176.74 1255.89,-166.04 1266.34,-157.24"/>
<polygon fill="black" stroke="black" points="1268.57,-159.94 1274.11,-150.9 1264.15,-154.51 1268.57,-159.94"/>
</g>
<!-- gst&#45;python&#45;&gt;gstlal&#45;calibration -->
<g id="edge49" class="edge">
<title>gst&#45;python&#45;&gt;gstlal&#45;calibration</title>
<path fill="none" stroke="black" d="M1147.38,-271.23C1118.04,-267.6 1078.78,-263.04 1044,-260 777.87,-236.75 710.61,-240.99 444,-224 385.05,-220.24 318.35,-215.73 268.39,-212.3"/>
<polygon fill="black" stroke="black" points="268.53,-208.8 258.31,-211.61 268.05,-215.79 268.53,-208.8"/>
</g>
<!-- gstlal&#45;ugly&#45;&gt;gstlal&#45;burst -->
<g id="edge50" class="edge">
<title>gstlal&#45;ugly&#45;&gt;gstlal&#45;burst</title>
<path fill="none" stroke="black" d="M1267.61,-190.67C1249.17,-180.26 1224.01,-166.06 1203.72,-154.6"/>
<polygon fill="black" stroke="black" points="1205.21,-151.42 1194.78,-149.56 1201.77,-157.52 1205.21,-151.42"/>
</g>
<!-- gstlal&#45;ugly&#45;&gt;gstlal&#45;inspiral -->
<g id="edge51" class="edge">
<title>gstlal&#45;ugly&#45;&gt;gstlal&#45;inspiral</title>
<path fill="none" stroke="black" d="M1293.74,-187.7C1294.07,-179.98 1294.47,-170.71 1294.84,-162.11"/>
<polygon fill="black" stroke="black" points="1298.34,-162.25 1295.27,-152.1 1291.34,-161.95 1298.34,-162.25"/>
</g>
<!-- poppler&#45;&gt;libvips -->
<g id="edge53" class="edge">
<title>poppler&#45;&gt;libvips</title>
<path fill="none" stroke="black" d="M847.86,-476.13C855.95,-455.53 872.61,-421.3 899,-404 983.33,-348.72 1025.76,-394.69 1123,-368 1125.6,-367.29 1128.25,-366.47 1130.9,-365.59"/>
<polygon fill="black" stroke="black" points="1132.16,-368.85 1140.39,-362.18 1129.79,-362.27 1132.16,-368.85"/>
</g>
<!-- pdf2svg -->
<g id="node31" class="node">
<title>pdf2svg</title>
<g id="a_node31"><a xlink:href="https://github.com/conda-forge/pdf2svg-feedstock" xlink:title="pdf2svg">
<ellipse fill="#fde725" stroke="black" cx="665" cy="-422" rx="39" ry="18"/>
<text text-anchor="middle" x="665" y="-418.3" font-family="Times,serif" font-size="14.00">pdf2svg</text>
</a>
</g>
</g>
<!-- poppler&#45;&gt;pdf2svg -->
<g id="edge54" class="edge">
<title>poppler&#45;&gt;pdf2svg</title>
<path fill="none" stroke="black" d="M813.95,-481.91C784.05,-470.08 736.52,-451.29 703.21,-438.11"/>
<polygon fill="black" stroke="black" points="704.38,-434.81 693.8,-434.39 701.81,-441.32 704.38,-434.81"/>
</g>
<!-- libxmlpp -->
<g id="node30" class="node">
<title>libxmlpp</title>
<g id="a_node30"><a xlink:href="https://github.com/conda-forge/libxmlpp-feedstock/pull/9" xlink:title="libxmlpp ❎">
<ellipse fill="#31688e" stroke="black" cx="900" cy="-90" rx="54.69" ry="18"/>
<text text-anchor="middle" x="900" y="-86.3" font-family="Times,serif" font-size="14.00" fill="white">libxmlpp ❎</text>
</a>
</g>
</g>
<!-- libxmlpp&#45;&gt;cyclus -->
<g id="edge52" class="edge">
<title>libxmlpp&#45;&gt;cyclus</title>
<path fill="none" stroke="black" d="M900,-71.7C900,-63.98 900,-54.71 900,-46.11"/>
<polygon fill="black" stroke="black" points="903.5,-46.1 900,-36.1 896.5,-46.1 903.5,-46.1"/>
</g>
<!-- createrepo_c -->
<g id="node34" class="node">
<title>createrepo_c</title>
<g id="a_node34"><a xlink:href="https://github.com/conda-forge/createrepo_c-feedstock" xlink:title="createrepo_c">
<ellipse fill="#fde725" stroke="black" cx="512" cy="-134" rx="56" ry="18"/>
<text text-anchor="middle" x="512" y="-130.3" font-family="Times,serif" font-size="14.00">createrepo_c</text>
</a>
</g>
</g>
<!-- libmodulemd&#45;&gt;createrepo_c -->
<g id="edge63" class="edge">
<title>libmodulemd&#45;&gt;createrepo_c</title>
<path fill="none" stroke="black" d="M512,-187.7C512,-179.98 512,-170.71 512,-162.11"/>
<polygon fill="black" stroke="black" points="515.5,-162.1 512,-152.1 508.5,-162.1 515.5,-162.1"/>
</g>
<!-- libsecret -->
<g id="node35" class="node">
<title>libsecret</title>
<g id="a_node35"><a xlink:href="https://github.com/conda-forge/libsecret-feedstock/pull/4" xlink:title="libsecret ❎">
<ellipse fill="#31688e" stroke="black" cx="2067" cy="-567" rx="52" ry="18"/>
<text text-anchor="middle" x="2067" y="-563.3" font-family="Times,serif" font-size="14.00" fill="white">libsecret ❎</text>
</a>
</g>
</g>
<!-- cem -->
<g id="node36" class="node">
<title>cem</title>
<g id="a_node36"><a xlink:href="https://github.com/conda-forge/cem-feedstock/pull/5" xlink:title="cem ❎">
<ellipse fill="#31688e" stroke="black" cx="2067" cy="-495" rx="37.89" ry="18"/>
<text text-anchor="middle" x="2067" y="-491.3" font-family="Times,serif" font-size="14.00" fill="white">cem ❎</text>
</a>
</g>
</g>
<!-- libsecret&#45;&gt;cem -->
<!-- libical -->
<g id="node37" class="node">
<title>libical</title>
<g id="a_node37"><a xlink:href="https://github.com/conda-forge/libical-feedstock/pull/8" xlink:title="libical ❎">
<ellipse fill="#31688e" stroke="black" cx="2067" cy="-423" rx="44.39" ry="18"/>
<text text-anchor="middle" x="2067" y="-419.3" font-family="Times,serif" font-size="14.00" fill="white">libical ❎</text>
</a>
</g>
</g>
<!-- cem&#45;&gt;libical -->
<!-- libv8 -->
<g id="node42" class="node">
<title>libv8</title>
<g id="a_node42"><a xlink:href="https://github.com/conda-forge/libv8-feedstock/pull/22" xlink:title="libv8 ❎">
<ellipse fill="#31688e" stroke="black" cx="2067" cy="-351" rx="40.5" ry="18"/>
<text text-anchor="middle" x="2067" y="-347.3" font-family="Times,serif" font-size="14.00" fill="white">libv8 ❎</text>
</a>
</g>
</g>
<!-- libical&#45;&gt;libv8 -->
<!-- srm&#45;ifce -->
<g id="node38" class="node">
<title>srm&#45;ifce</title>
<g id="a_node38"><a xlink:href="https://github.com/conda-forge/srm-ifce-feedstock/pull/5" xlink:title="srm ifce ❎">
<ellipse fill="#31688e" stroke="black" cx="1907" cy="-531" rx="52" ry="18"/>
<text text-anchor="middle" x="1907" y="-527.3" font-family="Times,serif" font-size="14.00" fill="white">srm ifce ❎</text>
</a>
</g>
</g>
<!-- gfal2 -->
<g id="node39" class="node">
<title>gfal2</title>
<g id="a_node39"><a xlink:href="https://github.com/conda-forge/gfal2-feedstock" xlink:title="gfal2">
<ellipse fill="#fde725" stroke="black" cx="1907" cy="-459" rx="28.7" ry="18"/>
<text text-anchor="middle" x="1907" y="-455.3" font-family="Times,serif" font-size="14.00">gfal2</text>
</a>
</g>
</g>
<!-- srm&#45;ifce&#45;&gt;gfal2 -->
<g id="edge66" class="edge">
<title>srm&#45;ifce&#45;&gt;gfal2</title>
<path fill="none" stroke="black" d="M1907,-512.7C1907,-504.98 1907,-495.71 1907,-487.11"/>
<polygon fill="black" stroke="black" points="1910.5,-487.1 1907,-477.1 1903.5,-487.1 1910.5,-487.1"/>
</g>
<!-- python&#45;gfal2 -->
<g id="node40" class="node">
<title>python&#45;gfal2</title>
<g id="a_node40"><a xlink:href="https://github.com/conda-forge/python-gfal2-feedstock" xlink:title="python gfal2">
<ellipse fill="#fde725" stroke="black" cx="1865" cy="-387" rx="56" ry="18"/>
<text text-anchor="middle" x="1865" y="-383.3" font-family="Times,serif" font-size="14.00">python gfal2</text>
</a>
</g>
</g>
<!-- gfal2&#45;&gt;python&#45;gfal2 -->
<g id="edge67" class="edge">
<title>gfal2&#45;&gt;python&#45;gfal2</title>
<path fill="none" stroke="black" d="M1897.26,-441.76C1892.26,-433.44 1886.06,-423.1 1880.44,-413.73"/>
<polygon fill="black" stroke="black" points="1883.42,-411.9 1875.27,-405.12 1877.42,-415.5 1883.42,-411.9"/>
</g>
<!-- nordugrid&#45;arc -->
<g id="node41" class="node">
<title>nordugrid&#45;arc</title>
<g id="a_node41"><a xlink:href="https://github.com/conda-forge/nordugrid-arc-feedstock" xlink:title="nordugrid arc">
<ellipse fill="#fde725" stroke="black" cx="1949" cy="-315" rx="58.5" ry="18"/>
<text text-anchor="middle" x="1949" y="-311.3" font-family="Times,serif" font-size="14.00">nordugrid arc</text>
</a>
</g>
</g>
<!-- gfal2&#45;&gt;nordugrid&#45;arc -->
<g id="edge68" class="edge">
<title>gfal2&#45;&gt;nordugrid&#45;arc</title>
<path fill="none" stroke="black" d="M1915.12,-441.62C1919.97,-431.31 1925.96,-417.61 1930,-405 1936.53,-384.59 1941.48,-360.83 1944.68,-342.99"/>
<polygon fill="black" stroke="black" points="1948.16,-343.44 1946.41,-332.99 1941.26,-342.25 1948.16,-343.44"/>
</g>
<!-- libsoup -->
<g id="node43" class="node">
<title>libsoup</title>
<g id="a_node43"><a xlink:href="https://github.com/conda-forge/libsoup-feedstock/pull/5" xlink:title="libsoup ❎">
<ellipse fill="#31688e" stroke="black" cx="2067" cy="-279" rx="48.19" ry="18"/>
<text text-anchor="middle" x="2067" y="-275.3" font-family="Times,serif" font-size="14.00" fill="white">libsoup ❎</text>
</a>
</g>
</g>
<!-- libv8&#45;&gt;libsoup -->
<!-- libgsf -->
<g id="node44" class="node">
<title>libgsf</title>
<g id="a_node44"><a xlink:href="https://github.com/conda-forge/libgsf-feedstock/pull/4" xlink:title="libgsf ❎">
<ellipse fill="#31688e" stroke="black" cx="1330" cy="-422" rx="42.49" ry="18"/>
<text text-anchor="middle" x="1330" y="-418.3" font-family="Times,serif" font-size="14.00" fill="white">libgsf ❎</text>
</a>
</g>
</g>
<!-- libgsf&#45;&gt;libvips -->
<g id="edge71" class="edge">
<title>libgsf&#45;&gt;libvips</title>
<path fill="none" stroke="black" d="M1301.06,-408.65C1273.18,-396.75 1230.96,-378.73 1201.16,-366.01"/>
<polygon fill="black" stroke="black" points="1202.52,-362.78 1191.95,-362.08 1199.78,-369.22 1202.52,-362.78"/>
</g>
<!-- msitools -->
<g id="node45" class="node">
<title>msitools</title>
<g id="a_node45"><a xlink:href="https://github.com/conda-forge/msitools-feedstock" xlink:title="msitools">
<ellipse fill="#fde725" stroke="black" cx="1501" cy="-350" rx="41" ry="18"/>
<text text-anchor="middle" x="1501" y="-346.3" font-family="Times,serif" font-size="14.00">msitools</text>
</a>
</g>
</g>
<!-- libgsf&#45;&gt;msitools -->
<g id="edge72" class="edge">
<title>libgsf&#45;&gt;msitools</title>
<path fill="none" stroke="black" d="M1359.4,-408.97C1387.95,-397.28 1431.46,-379.47 1462.71,-366.67"/>
<polygon fill="black" stroke="black" points="1464.06,-369.9 1471.99,-362.88 1461.41,-363.43 1464.06,-369.9"/>
</g>
<!-- gcab -->
<g id="node46" class="node">
<title>gcab</title>
<g id="a_node46"><a xlink:href="https://github.com/conda-forge/gcab-feedstock/pull/5" xlink:title="gcab ✓">
<ellipse fill="#31688e" stroke="black" cx="1504" cy="-422" rx="37.89" ry="18"/>
<text text-anchor="middle" x="1504" y="-418.3" font-family="Times,serif" font-size="14.00" fill="white">gcab ✓</text>
</a>
</g>
</g>
<!-- gcab&#45;&gt;msitools -->
<g id="edge73" class="edge">
<title>gcab&#45;&gt;msitools</title>
<path fill="none" stroke="black" d="M1503.26,-403.7C1502.93,-395.98 1502.53,-386.71 1502.16,-378.11"/>
<polygon fill="black" stroke="black" points="1505.66,-377.95 1501.73,-368.1 1498.66,-378.25 1505.66,-377.95"/>
</g>
<!-- atkmm -->
<g id="node47" class="node">
<title>atkmm</title>
<g id="a_node47"><a xlink:href="https://github.com/conda-forge/atkmm-feedstock/pull/1" xlink:title="atkmm ❎">
<ellipse fill="#31688e" stroke="black" cx="288" cy="-422" rx="48.19" ry="18"/>
<text text-anchor="middle" x="288" y="-418.3" font-family="Times,serif" font-size="14.00" fill="white">atkmm ❎</text>
</a>
</g>
</g>
<!-- atkmm&#45;&gt;gtkmm -->
<g id="edge74" class="edge">
<title>atkmm&#45;&gt;gtkmm</title>
<path fill="none" stroke="black" d="M288,-403.7C288,-395.98 288,-386.71 288,-378.11"/>
<polygon fill="black" stroke="black" points="291.5,-378.1 288,-368.1 284.5,-378.1 291.5,-378.1"/>
</g>
<!-- atkmm&#45;&gt;cadabra2 -->
<g id="edge75" class="edge">
<title>atkmm&#45;&gt;cadabra2</title>
<path fill="none" stroke="black" d="M272.16,-404.53C262.84,-394.42 251.12,-380.95 242,-368 227.73,-347.73 214.13,-323.04 204.73,-304.82"/>
<polygon fill="black" stroke="black" points="207.73,-303.01 200.08,-295.68 201.49,-306.18 207.73,-303.01"/>
</g>
<!-- pangomm -->
<g id="node48" class="node">
<title>pangomm</title>
<g id="a_node48"><a xlink:href="https://github.com/conda-forge/pangomm-feedstock/pull/1" xlink:title="pangomm ❎">
<ellipse fill="#31688e" stroke="black" cx="163" cy="-422" rx="58.5" ry="18"/>
<text text-anchor="middle" x="163" y="-418.3" font-family="Times,serif" font-size="14.00" fill="white">pangomm ❎</text>
</a>
</g>
</g>
<!-- pangomm&#45;&gt;gtkmm -->
<g id="edge76" class="edge">
<title>pangomm&#45;&gt;gtkmm</title>
<path fill="none" stroke="black" d="M189.82,-405.98C209.1,-395.18 235.2,-380.57 255.65,-369.12"/>
<polygon fill="black" stroke="black" points="257.58,-372.05 264.6,-364.11 254.16,-365.94 257.58,-372.05"/>
</g>
<!-- pangomm&#45;&gt;cadabra2 -->
<g id="edge77" class="edge">
<title>pangomm&#45;&gt;cadabra2</title>
<path fill="none" stroke="black" d="M166.5,-403.87C171.46,-379.56 180.6,-334.82 186.48,-306.01"/>
<polygon fill="black" stroke="black" points="189.92,-306.69 188.49,-296.19 183.06,-305.29 189.92,-306.69"/>
</g>
</g>
</svg>
