<?xml version="1.0" encoding="UTF-8" standalone="no"?>
<!DOCTYPE svg PUBLIC "-//W3C//DTD SVG 1.1//EN"
 "http://www.w3.org/Graphics/SVG/1.1/DTD/svg11.dtd">
<!-- Generated by graphviz version 2.42.3 (20191010.1750)
 -->
<!-- Title: %3 Pages: 1 -->
<svg width="1994pt" height="664pt"
 viewBox="0.00 0.00 1993.67 664.00" xmlns="http://www.w3.org/2000/svg" xmlns:xlink="http://www.w3.org/1999/xlink">
<g id="graph0" class="graph" transform="scale(1 1) rotate(0) translate(4 660)">
<title>%3</title>
<polygon fill="white" stroke="transparent" points="-4,4 -4,-660 1989.67,-660 1989.67,4 -4,4"/>
<!-- cyclus -->
<g id="node1" class="node">
<title>cyclus</title>
<g id="a_node1"><a xlink:href="https://github.com/conda-forge/cyclus-feedstock" xlink:title="cyclus">
<ellipse fill="#fde725" stroke="black" cx="833.67" cy="-18" rx="33.29" ry="18"/>
<text text-anchor="middle" x="833.67" y="-14.3" font-family="Times,serif" font-size="14.00">cyclus</text>
</a>
</g>
</g>
<!-- emacs -->
<g id="node2" class="node">
<title>emacs</title>
<g id="a_node2"><a xlink:href="https://github.com/conda-forge/emacs-feedstock" xlink:title="emacs">
<ellipse fill="#fde725" stroke="black" cx="825.67" cy="-350" rx="33.29" ry="18"/>
<text text-anchor="middle" x="825.67" y="-346.3" font-family="Times,serif" font-size="14.00">emacs</text>
</a>
</g>
</g>
<!-- gdk&#45;pixbuf -->
<g id="node3" class="node">
<title>gdk&#45;pixbuf</title>
<g id="a_node3"><a xlink:href="https://github.com/conda-forge/gdk-pixbuf-feedstock" xlink:title="gdk pixbuf">
<ellipse fill="#fde725" stroke="black" cx="753.67" cy="-494" rx="49.5" ry="18"/>
<text text-anchor="middle" x="753.67" y="-490.3" font-family="Times,serif" font-size="14.00">gdk pixbuf</text>
</a>
</g>
</g>
<!-- librsvg -->
<g id="node4" class="node">
<title>librsvg</title>
<g id="a_node4"><a xlink:href="https://github.com/conda-forge/librsvg-feedstock" xlink:title="librsvg">
<ellipse fill="#fde725" stroke="black" cx="716.67" cy="-422" rx="35.19" ry="18"/>
<text text-anchor="middle" x="716.67" y="-418.3" font-family="Times,serif" font-size="14.00">librsvg</text>
</a>
</g>
</g>
<!-- gdk&#45;pixbuf&#45;&gt;librsvg -->
<g id="edge1" class="edge">
<title>gdk&#45;pixbuf&#45;&gt;librsvg</title>
<path fill="none" stroke="black" d="M744.72,-476.05C740.4,-467.89 735.13,-457.91 730.32,-448.82"/>
<polygon fill="black" stroke="black" points="733.31,-446.99 725.55,-439.79 727.12,-450.27 733.31,-446.99"/>
</g>
<!-- gtk2 -->
<g id="node5" class="node">
<title>gtk2</title>
<g id="a_node5"><a xlink:href="https://github.com/conda-forge/gtk2-feedstock" xlink:title="gtk2">
<ellipse fill="#fde725" stroke="black" cx="1112.67" cy="-422" rx="27" ry="18"/>
<text text-anchor="middle" x="1112.67" y="-418.3" font-family="Times,serif" font-size="14.00">gtk2</text>
</a>
</g>
</g>
<!-- gdk&#45;pixbuf&#45;&gt;gtk2 -->
<g id="edge2" class="edge">
<title>gdk&#45;pixbuf&#45;&gt;gtk2</title>
<path fill="none" stroke="black" d="M797.73,-485.4C853.82,-475.58 953.67,-457.66 1038.67,-440 1051.48,-437.34 1065.47,-434.19 1077.81,-431.33"/>
<polygon fill="black" stroke="black" points="1078.78,-434.69 1087.72,-429.01 1077.19,-427.88 1078.78,-434.69"/>
</g>
<!-- openslide -->
<g id="node6" class="node">
<title>openslide</title>
<g id="a_node6"><a xlink:href="https://github.com/conda-forge/openslide-feedstock" xlink:title="openslide">
<ellipse fill="#fde725" stroke="black" cx="851.67" cy="-422" rx="44.39" ry="18"/>
<text text-anchor="middle" x="851.67" y="-418.3" font-family="Times,serif" font-size="14.00">openslide</text>
</a>
</g>
</g>
<!-- gdk&#45;pixbuf&#45;&gt;openslide -->
<g id="edge3" class="edge">
<title>gdk&#45;pixbuf&#45;&gt;openslide</title>
<path fill="none" stroke="black" d="M775.42,-477.46C789.19,-467.63 807.16,-454.8 822.19,-444.06"/>
<polygon fill="black" stroke="black" points="824.55,-446.67 830.66,-438.01 820.48,-440.98 824.55,-446.67"/>
</g>
<!-- libvips -->
<g id="node7" class="node">
<title>libvips</title>
<g id="a_node7"><a xlink:href="https://github.com/conda-forge/libvips-feedstock" xlink:title="libvips">
<ellipse fill="#fde725" stroke="black" cx="919.67" cy="-350" rx="34.5" ry="18"/>
<text text-anchor="middle" x="919.67" y="-346.3" font-family="Times,serif" font-size="14.00">libvips</text>
</a>
</g>
</g>
<!-- gdk&#45;pixbuf&#45;&gt;libvips -->
<g id="edge4" class="edge">
<title>gdk&#45;pixbuf&#45;&gt;libvips</title>
<path fill="none" stroke="black" d="M758.48,-475.77C764.77,-456.07 777.54,-423.99 798.67,-404 811.34,-392.02 851.64,-375.57 882.28,-364.19"/>
<polygon fill="black" stroke="black" points="883.66,-367.42 891.85,-360.69 881.25,-360.84 883.66,-367.42"/>
</g>
<!-- gtk3 -->
<g id="node8" class="node">
<title>gtk3</title>
<g id="a_node8"><a xlink:href="https://github.com/conda-forge/gtk3-feedstock" xlink:title="gtk3">
<ellipse fill="#fde725" stroke="black" cx="522.67" cy="-422" rx="27" ry="18"/>
<text text-anchor="middle" x="522.67" y="-418.3" font-family="Times,serif" font-size="14.00">gtk3</text>
</a>
</g>
</g>
<!-- gdk&#45;pixbuf&#45;&gt;gtk3 -->
<g id="edge5" class="edge">
<title>gdk&#45;pixbuf&#45;&gt;gtk3</title>
<path fill="none" stroke="black" d="M716.81,-481.83C672.59,-468.43 599.08,-446.15 556.33,-433.2"/>
<polygon fill="black" stroke="black" points="557.26,-429.82 546.67,-430.27 555.23,-436.52 557.26,-429.82"/>
</g>
<!-- gtkmm -->
<g id="node9" class="node">
<title>gtkmm</title>
<g id="a_node9"><a xlink:href="https://github.com/conda-forge/gtkmm-feedstock" xlink:title="gtkmm">
<ellipse fill="#fde725" stroke="black" cx="315.67" cy="-350" rx="36.5" ry="18"/>
<text text-anchor="middle" x="315.67" y="-346.3" font-family="Times,serif" font-size="14.00">gtkmm</text>
</a>
</g>
</g>
<!-- gdk&#45;pixbuf&#45;&gt;gtkmm -->
<g id="edge6" class="edge">
<title>gdk&#45;pixbuf&#45;&gt;gtkmm</title>
<path fill="none" stroke="black" d="M706.78,-487.79C652.61,-480.83 561.35,-466.24 486.67,-440 434.87,-421.8 379.22,-390.37 345.94,-370.14"/>
<polygon fill="black" stroke="black" points="347.53,-367.01 337.17,-364.76 343.86,-372.97 347.53,-367.01"/>
</g>
<!-- wxwidgets -->
<g id="node10" class="node">
<title>wxwidgets</title>
<g id="a_node10"><a xlink:href="https://github.com/conda-forge/wxwidgets-feedstock" xlink:title="wxwidgets">
<ellipse fill="#fde725" stroke="black" cx="725.67" cy="-350" rx="48.99" ry="18"/>
<text text-anchor="middle" x="725.67" y="-346.3" font-family="Times,serif" font-size="14.00">wxwidgets</text>
</a>
</g>
</g>
<!-- gdk&#45;pixbuf&#45;&gt;wxwidgets -->
<g id="edge7" class="edge">
<title>gdk&#45;pixbuf&#45;&gt;wxwidgets</title>
<path fill="none" stroke="black" d="M720.43,-480.49C702.84,-471.96 682.82,-458.77 672.67,-440 665.06,-425.93 666.55,-418.78 672.67,-404 677.61,-392.07 686.69,-381.43 695.94,-372.87"/>
<polygon fill="black" stroke="black" points="698.4,-375.37 703.68,-366.18 693.82,-370.07 698.4,-375.37"/>
</g>
<!-- librsvg&#45;&gt;emacs -->
<g id="edge8" class="edge">
<title>librsvg&#45;&gt;emacs</title>
<path fill="none" stroke="black" d="M737.69,-407.5C754.38,-396.78 777.92,-381.67 796.45,-369.77"/>
<polygon fill="black" stroke="black" points="798.57,-372.57 805.09,-364.22 794.78,-366.68 798.57,-372.57"/>
</g>
<!-- librsvg&#45;&gt;libvips -->
<g id="edge9" class="edge">
<title>librsvg&#45;&gt;libvips</title>
<path fill="none" stroke="black" d="M744.91,-411.19C751.71,-408.83 758.95,-406.32 765.67,-404 805.34,-390.29 850.78,-374.66 881.97,-363.95"/>
<polygon fill="black" stroke="black" points="883.24,-367.21 891.56,-360.65 880.97,-360.59 883.24,-367.21"/>
</g>
<!-- gtk2&#45;&gt;libvips -->
<g id="edge10" class="edge">
<title>gtk2&#45;&gt;libvips</title>
<path fill="none" stroke="black" d="M1090.64,-411.59C1084.52,-409.05 1077.86,-406.36 1071.67,-404 1033.15,-389.31 988.54,-373.95 957.66,-363.57"/>
<polygon fill="black" stroke="black" points="958.74,-360.24 948.14,-360.38 956.51,-366.88 958.74,-360.24"/>
</g>
<!-- gnuplot -->
<g id="node11" class="node">
<title>gnuplot</title>
<g id="a_node11"><a xlink:href="https://github.com/conda-forge/gnuplot-feedstock" xlink:title="gnuplot">
<ellipse fill="#fde725" stroke="black" cx="1297.67" cy="-350" rx="37.89" ry="18"/>
<text text-anchor="middle" x="1297.67" y="-346.3" font-family="Times,serif" font-size="14.00">gnuplot</text>
</a>
</g>
</g>
<!-- gtk2&#45;&gt;gnuplot -->
<g id="edge11" class="edge">
<title>gtk2&#45;&gt;gnuplot</title>
<path fill="none" stroke="black" d="M1135.73,-412.28C1166.76,-400.53 1222.36,-379.5 1259.64,-365.39"/>
<polygon fill="black" stroke="black" points="1261.05,-368.6 1269.16,-361.79 1258.57,-362.05 1261.05,-368.6"/>
</g>
<!-- wxpython -->
<g id="node12" class="node">
<title>wxpython</title>
<g id="a_node12"><a xlink:href="https://github.com/conda-forge/wxpython-feedstock" xlink:title="wxpython">
<ellipse fill="#fde725" stroke="black" cx="1513.67" cy="-350" rx="46.29" ry="18"/>
<text text-anchor="middle" x="1513.67" y="-346.3" font-family="Times,serif" font-size="14.00">wxpython</text>
</a>
</g>
</g>
<!-- gtk2&#45;&gt;wxpython -->
<g id="edge12" class="edge">
<title>gtk2&#45;&gt;wxpython</title>
<path fill="none" stroke="black" d="M1138.67,-416.46C1204.03,-405.05 1376.12,-375.01 1462.57,-359.92"/>
<polygon fill="black" stroke="black" points="1463.18,-363.37 1472.43,-358.2 1461.97,-356.47 1463.18,-363.37"/>
</g>
<!-- openslide&#45;&gt;libvips -->
<g id="edge13" class="edge">
<title>openslide&#45;&gt;libvips</title>
<path fill="none" stroke="black" d="M867.1,-405.12C876.1,-395.86 887.59,-384.03 897.53,-373.79"/>
<polygon fill="black" stroke="black" points="900.31,-375.95 904.77,-366.34 895.29,-371.07 900.31,-375.95"/>
</g>
<!-- gtk3&#45;&gt;gtkmm -->
<g id="edge14" class="edge">
<title>gtk3&#45;&gt;gtkmm</title>
<path fill="none" stroke="black" d="M498.93,-412.97C463.73,-401.07 397.31,-378.61 354.84,-364.25"/>
<polygon fill="black" stroke="black" points="355.71,-360.85 345.12,-360.96 353.47,-367.48 355.71,-360.85"/>
</g>
<!-- gtk3&#45;&gt;wxwidgets -->
<g id="edge15" class="edge">
<title>gtk3&#45;&gt;wxwidgets</title>
<path fill="none" stroke="black" d="M544.68,-411.51C550.79,-408.97 557.46,-406.3 563.67,-404 602.28,-389.71 646.76,-375.3 679.34,-365.12"/>
<polygon fill="black" stroke="black" points="680.53,-368.41 689.04,-362.1 678.46,-361.73 680.53,-368.41"/>
</g>
<!-- pygobject -->
<g id="node13" class="node">
<title>pygobject</title>
<g id="a_node13"><a xlink:href="https://github.com/conda-forge/pygobject-feedstock" xlink:title="pygobject">
<ellipse fill="#fde725" stroke="black" cx="526.67" cy="-350" rx="45.5" ry="18"/>
<text text-anchor="middle" x="526.67" y="-346.3" font-family="Times,serif" font-size="14.00">pygobject</text>
</a>
</g>
</g>
<!-- gtk3&#45;&gt;pygobject -->
<g id="edge16" class="edge">
<title>gtk3&#45;&gt;pygobject</title>
<path fill="none" stroke="black" d="M523.66,-403.7C524.1,-395.98 524.63,-386.71 525.12,-378.11"/>
<polygon fill="black" stroke="black" points="528.62,-378.29 525.69,-368.1 521.63,-377.89 528.62,-378.29"/>
</g>
<!-- stoken -->
<g id="node14" class="node">
<title>stoken</title>
<g id="a_node14"><a xlink:href="https://github.com/conda-forge/stoken-feedstock" xlink:title="stoken">
<ellipse fill="#fde725" stroke="black" cx="624.67" cy="-350" rx="34" ry="18"/>
<text text-anchor="middle" x="624.67" y="-346.3" font-family="Times,serif" font-size="14.00">stoken</text>
</a>
</g>
</g>
<!-- gtk3&#45;&gt;stoken -->
<g id="edge17" class="edge">
<title>gtk3&#45;&gt;stoken</title>
<path fill="none" stroke="black" d="M540.91,-408.49C556.27,-397.94 578.52,-382.68 596.22,-370.53"/>
<polygon fill="black" stroke="black" points="598.23,-373.39 604.5,-364.85 594.27,-367.62 598.23,-373.39"/>
</g>
<!-- cadabra2 -->
<g id="node15" class="node">
<title>cadabra2</title>
<g id="a_node15"><a xlink:href="https://github.com/conda-forge/cadabra2-feedstock" xlink:title="cadabra2">
<ellipse fill="#fde725" stroke="black" cx="201.67" cy="-278" rx="42.49" ry="18"/>
<text text-anchor="middle" x="201.67" y="-274.3" font-family="Times,serif" font-size="14.00">cadabra2</text>
</a>
</g>
</g>
<!-- gtkmm&#45;&gt;cadabra2 -->
<g id="edge18" class="edge">
<title>gtkmm&#45;&gt;cadabra2</title>
<path fill="none" stroke="black" d="M293.69,-335.5C276.6,-325.01 252.65,-310.3 233.47,-298.52"/>
<polygon fill="black" stroke="black" points="235.11,-295.43 224.76,-293.18 231.45,-301.39 235.11,-295.43"/>
</g>
<!-- octave -->
<g id="node16" class="node">
<title>octave</title>
<g id="a_node16"><a xlink:href="https://github.com/conda-forge/octave-feedstock" xlink:title="octave">
<ellipse fill="#fde725" stroke="black" cx="1273.67" cy="-278" rx="34" ry="18"/>
<text text-anchor="middle" x="1273.67" y="-274.3" font-family="Times,serif" font-size="14.00">octave</text>
</a>
</g>
</g>
<!-- gnuplot&#45;&gt;octave -->
<g id="edge19" class="edge">
<title>gnuplot&#45;&gt;octave</title>
<path fill="none" stroke="black" d="M1291.86,-332.05C1289.12,-324.06 1285.79,-314.33 1282.72,-305.4"/>
<polygon fill="black" stroke="black" points="1285.98,-304.11 1279.43,-295.79 1279.36,-306.38 1285.98,-304.11"/>
</g>
<!-- gst&#45;python -->
<g id="node19" class="node">
<title>gst&#45;python</title>
<g id="a_node19"><a xlink:href="https://github.com/conda-forge/gst-python-feedstock" xlink:title="gst python">
<ellipse fill="#fde725" stroke="black" cx="334.67" cy="-278" rx="48.19" ry="18"/>
<text text-anchor="middle" x="334.67" y="-274.3" font-family="Times,serif" font-size="14.00">gst python</text>
</a>
</g>
</g>
<!-- pygobject&#45;&gt;gst&#45;python -->
<g id="edge55" class="edge">
<title>pygobject&#45;&gt;gst&#45;python</title>
<path fill="none" stroke="black" d="M494.1,-337.13C462.03,-325.43 412.85,-307.5 377.6,-294.65"/>
<polygon fill="black" stroke="black" points="378.64,-291.31 368.05,-291.17 376.24,-297.88 378.64,-291.31"/>
</g>
<!-- gstlal&#45;ugly -->
<g id="node20" class="node">
<title>gstlal&#45;ugly</title>
<g id="a_node20"><a xlink:href="https://github.com/conda-forge/gstlal-ugly-feedstock" xlink:title="gstlal ugly">
<ellipse fill="#fde725" stroke="black" cx="790.67" cy="-206" rx="48.19" ry="18"/>
<text text-anchor="middle" x="790.67" y="-202.3" font-family="Times,serif" font-size="14.00">gstlal ugly</text>
</a>
</g>
</g>
<!-- pygobject&#45;&gt;gstlal&#45;ugly -->
<g id="edge56" class="edge">
<title>pygobject&#45;&gt;gstlal&#45;ugly</title>
<path fill="none" stroke="black" d="M560.91,-338.07C567.76,-335.98 574.93,-333.87 581.67,-332 646.5,-314.06 673.2,-334.05 728.67,-296 751.6,-280.28 768.7,-253.09 779.07,-232.89"/>
<polygon fill="black" stroke="black" points="782.22,-234.41 783.49,-223.9 775.94,-231.33 782.22,-234.41"/>
</g>
<!-- gstlal&#45;burst -->
<g id="node21" class="node">
<title>gstlal&#45;burst</title>
<g id="a_node21"><a xlink:href="https://github.com/conda-forge/gstlal-burst-feedstock" xlink:title="gstlal burst">
<ellipse fill="#fde725" stroke="black" cx="604.67" cy="-134" rx="50.09" ry="18"/>
<text text-anchor="middle" x="604.67" y="-130.3" font-family="Times,serif" font-size="14.00">gstlal burst</text>
</a>
</g>
</g>
<!-- pygobject&#45;&gt;gstlal&#45;burst -->
<g id="edge57" class="edge">
<title>pygobject&#45;&gt;gstlal&#45;burst</title>
<path fill="none" stroke="black" d="M538.66,-332.49C545.57,-322.36 553.99,-308.9 559.67,-296 579.53,-250.9 592.84,-194.79 599.56,-162.13"/>
<polygon fill="black" stroke="black" points="603.05,-162.49 601.58,-152 596.19,-161.12 603.05,-162.49"/>
</g>
<!-- gstlal&#45;inspiral -->
<g id="node22" class="node">
<title>gstlal&#45;inspiral</title>
<g id="a_node22"><a xlink:href="https://github.com/conda-forge/gstlal-inspiral-feedstock" xlink:title="gstlal inspiral">
<ellipse fill="#fde725" stroke="black" cx="790.67" cy="-134" rx="58.5" ry="18"/>
<text text-anchor="middle" x="790.67" y="-130.3" font-family="Times,serif" font-size="14.00">gstlal inspiral</text>
</a>
</g>
</g>
<!-- pygobject&#45;&gt;gstlal&#45;inspiral -->
<g id="edge58" class="edge">
<title>pygobject&#45;&gt;gstlal&#45;inspiral</title>
<path fill="none" stroke="black" d="M561.53,-338.17C610.82,-322.85 695.05,-296.6 695.67,-296 732.27,-260.64 705.78,-230.56 733.67,-188 741.09,-176.67 751.44,-166.09 761.28,-157.41"/>
<polygon fill="black" stroke="black" points="763.63,-160.01 769,-150.88 759.11,-154.66 763.63,-160.01"/>
</g>
<!-- gstlal&#45;calibration -->
<g id="node23" class="node">
<title>gstlal&#45;calibration</title>
<g id="a_node23"><a xlink:href="https://github.com/conda-forge/gstlal-calibration-feedstock" xlink:title="gstlal calibration">
<ellipse fill="#fde725" stroke="black" cx="155.67" cy="-206" rx="69.59" ry="18"/>
<text text-anchor="middle" x="155.67" y="-202.3" font-family="Times,serif" font-size="14.00">gstlal calibration</text>
</a>
</g>
</g>
<!-- pygobject&#45;&gt;gstlal&#45;calibration -->
<g id="edge59" class="edge">
<title>pygobject&#45;&gt;gstlal&#45;calibration</title>
<path fill="none" stroke="black" d="M528.73,-331.89C530.13,-311.69 528.96,-278.53 509.67,-260 471.5,-223.33 327.36,-211.99 235.19,-208.51"/>
<polygon fill="black" stroke="black" points="235.17,-205.01 225.06,-208.15 234.93,-212.01 235.17,-205.01"/>
</g>
<!-- numcosmo -->
<g id="node26" class="node">
<title>numcosmo</title>
<g id="a_node26"><a xlink:href="https://github.com/conda-forge/numcosmo-feedstock" xlink:title="numcosmo">
<ellipse fill="#fde725" stroke="black" cx="450.67" cy="-278" rx="50.09" ry="18"/>
<text text-anchor="middle" x="450.67" y="-274.3" font-family="Times,serif" font-size="14.00">numcosmo</text>
</a>
</g>
</g>
<!-- pygobject&#45;&gt;numcosmo -->
<g id="edge60" class="edge">
<title>pygobject&#45;&gt;numcosmo</title>
<path fill="none" stroke="black" d="M509.43,-333.12C499.39,-323.87 486.57,-312.07 475.47,-301.84"/>
<polygon fill="black" stroke="black" points="477.84,-299.26 468.11,-295.06 473.1,-304.41 477.84,-299.26"/>
</g>
<!-- hkl -->
<g id="node32" class="node">
<title>hkl</title>
<g id="a_node32"><a xlink:href="https://github.com/conda-forge/hkl-feedstock" xlink:title="hkl">
<ellipse fill="#fde725" stroke="black" cx="659.67" cy="-278" rx="27" ry="18"/>
<text text-anchor="middle" x="659.67" y="-274.3" font-family="Times,serif" font-size="14.00">hkl</text>
</a>
</g>
</g>
<!-- pygobject&#45;&gt;hkl -->
<g id="edge61" class="edge">
<title>pygobject&#45;&gt;hkl</title>
<path fill="none" stroke="black" d="M552.95,-335.17C575.17,-323.47 606.99,-306.72 630.1,-294.56"/>
<polygon fill="black" stroke="black" points="631.89,-297.58 639.11,-289.82 628.63,-291.38 631.89,-297.58"/>
</g>
<!-- libmodulemd -->
<g id="node33" class="node">
<title>libmodulemd</title>
<g id="a_node33"><a xlink:href="https://github.com/conda-forge/libmodulemd-feedstock" xlink:title="libmodulemd">
<ellipse fill="#fde725" stroke="black" cx="479.67" cy="-206" rx="58.5" ry="18"/>
<text text-anchor="middle" x="479.67" y="-202.3" font-family="Times,serif" font-size="14.00">libmodulemd</text>
</a>
</g>
</g>
<!-- pygobject&#45;&gt;libmodulemd -->
<g id="edge62" class="edge">
<title>pygobject&#45;&gt;libmodulemd</title>
<path fill="none" stroke="black" d="M535.44,-332.16C543.8,-313.67 553.6,-283.48 542.67,-260 536.76,-247.3 526.14,-236.55 515.28,-228.13"/>
<polygon fill="black" stroke="black" points="517.16,-225.17 507.01,-222.15 513.06,-230.84 517.16,-225.17"/>
</g>
<!-- gstreamer -->
<g id="node17" class="node">
<title>gstreamer</title>
<g id="a_node17"><a xlink:href="https://github.com/conda-forge/gstreamer-feedstock/pull/42" xlink:title="gstreamer ❎">
<ellipse fill="#31688e" stroke="black" cx="1513.67" cy="-638" rx="58" ry="18"/>
<text text-anchor="middle" x="1513.67" y="-634.3" font-family="Times,serif" font-size="14.00" fill="white">gstreamer ❎</text>
</a>
</g>
</g>
<!-- gstreamer&#45;&gt;wxpython -->
<g id="edge21" class="edge">
<title>gstreamer&#45;&gt;wxpython</title>
<path fill="none" stroke="black" d="M1513.67,-619.97C1513.67,-572.29 1513.67,-437.18 1513.67,-378.63"/>
<polygon fill="black" stroke="black" points="1517.17,-378.31 1513.67,-368.31 1510.17,-378.31 1517.17,-378.31"/>
</g>
<!-- qt -->
<g id="node18" class="node">
<title>qt</title>
<g id="a_node18"><a xlink:href="https://github.com/conda-forge/qt-feedstock" xlink:title="qt">
<ellipse fill="#fde725" stroke="black" cx="1018.67" cy="-566" rx="27" ry="18"/>
<text text-anchor="middle" x="1018.67" y="-562.3" font-family="Times,serif" font-size="14.00">qt</text>
</a>
</g>
</g>
<!-- gstreamer&#45;&gt;qt -->
<g id="edge20" class="edge">
<title>gstreamer&#45;&gt;qt</title>
<path fill="none" stroke="black" d="M1462.1,-629.71C1361.57,-615.49 1141.65,-584.39 1054.9,-572.12"/>
<polygon fill="black" stroke="black" points="1055.38,-568.66 1044.99,-570.72 1054.4,-575.59 1055.38,-568.66"/>
</g>
<!-- gstreamer&#45;&gt;gst&#45;python -->
<g id="edge22" class="edge">
<title>gstreamer&#45;&gt;gst&#45;python</title>
<path fill="none" stroke="black" d="M1455.9,-635.57C1268.7,-630.03 681.66,-605.43 520.67,-512 434.22,-461.82 372.35,-354.75 347.17,-305.18"/>
<polygon fill="black" stroke="black" points="350.23,-303.46 342.63,-296.07 343.96,-306.58 350.23,-303.46"/>
</g>
<!-- gstreamer&#45;&gt;gstlal&#45;ugly -->
<g id="edge23" class="edge">
<title>gstreamer&#45;&gt;gstlal&#45;ugly</title>
<path fill="none" stroke="black" d="M1529,-620.53C1550.68,-595.47 1587.67,-545.32 1587.67,-495 1587.67,-495 1587.67,-495 1587.67,-421 1587.67,-342.8 1584.96,-298.12 1516.67,-260 1458.97,-227.79 1010.93,-212.83 848.9,-208.44"/>
<polygon fill="black" stroke="black" points="848.74,-204.93 838.65,-208.16 848.55,-211.93 848.74,-204.93"/>
</g>
<!-- gstreamer&#45;&gt;gstlal&#45;burst -->
<g id="edge24" class="edge">
<title>gstreamer&#45;&gt;gstlal&#45;burst</title>
<path fill="none" stroke="black" d="M1537.97,-621.44C1570.91,-598.23 1625.67,-551.2 1625.67,-495 1625.67,-495 1625.67,-495 1625.67,-421 1625.67,-342.43 1618.78,-302.45 1552.67,-260 1396.16,-159.5 906.95,-177.26 722.67,-152 702.24,-149.2 679.84,-146 660.1,-143.14"/>
<polygon fill="black" stroke="black" points="660.44,-139.66 650.04,-141.68 659.43,-146.58 660.44,-139.66"/>
</g>
<!-- gstreamer&#45;&gt;gstlal&#45;inspiral -->
<g id="edge25" class="edge">
<title>gstreamer&#45;&gt;gstlal&#45;inspiral</title>
<path fill="none" stroke="black" d="M1561.37,-627.75C1587.94,-620.23 1619.61,-606.97 1639.67,-584 1666.62,-553.15 1663.67,-535.97 1663.67,-495 1663.67,-495 1663.67,-495 1663.67,-277 1663.67,-165.32 1537.6,-212.64 1428.67,-188 1225.58,-142.06 978.05,-134.97 859.9,-134.48"/>
<polygon fill="black" stroke="black" points="859.57,-130.98 849.56,-134.45 859.55,-137.98 859.57,-130.98"/>
</g>
<!-- gstreamer&#45;&gt;gstlal&#45;calibration -->
<g id="edge26" class="edge">
<title>gstreamer&#45;&gt;gstlal&#45;calibration</title>
<path fill="none" stroke="black" d="M1455.71,-635.72C1201.65,-629.62 194.22,-599.99 86.67,-512 23.59,-460.4 37.62,-412.28 51.67,-332 57.54,-298.49 56.81,-286.87 77.67,-260 87.8,-246.95 102.07,-235.96 115.63,-227.42"/>
<polygon fill="black" stroke="black" points="117.61,-230.32 124.39,-222.17 114.01,-224.31 117.61,-230.32"/>
</g>
<!-- qt&#45;&gt;emacs -->
<g id="edge27" class="edge">
<title>qt&#45;&gt;emacs</title>
<path fill="none" stroke="black" d="M991.73,-564.16C922.18,-561.44 738.93,-550.68 694.67,-512 657.79,-479.77 643.87,-443.62 672.67,-404 703.17,-362.05 734.94,-385.74 783.67,-368 785.92,-367.18 788.22,-366.32 790.54,-365.43"/>
<polygon fill="black" stroke="black" points="791.98,-368.63 800.02,-361.72 789.43,-362.11 791.98,-368.63"/>
</g>
<!-- qt&#45;&gt;gdk&#45;pixbuf -->
<g id="edge28" class="edge">
<title>qt&#45;&gt;gdk&#45;pixbuf</title>
<path fill="none" stroke="black" d="M993.74,-558.41C950.11,-546.89 859.16,-522.86 802.58,-507.92"/>
<polygon fill="black" stroke="black" points="803.34,-504.5 792.78,-505.33 801.56,-511.27 803.34,-504.5"/>
</g>
<!-- qt&#45;&gt;gtk2 -->
<g id="edge29" class="edge">
<title>qt&#45;&gt;gtk2</title>
<path fill="none" stroke="black" d="M1023.55,-548.22C1029.49,-529.51 1040.74,-498.89 1056.67,-476 1065.27,-463.66 1077.1,-451.94 1087.68,-442.67"/>
<polygon fill="black" stroke="black" points="1090.08,-445.23 1095.45,-436.1 1085.56,-439.89 1090.08,-445.23"/>
</g>
<!-- qt&#45;&gt;openslide -->
<g id="edge30" class="edge">
<title>qt&#45;&gt;openslide</title>
<path fill="none" stroke="black" d="M992.7,-560.9C963.33,-554.98 915.82,-541.35 886.67,-512 870.01,-495.22 861.06,-469.57 856.39,-450.11"/>
<polygon fill="black" stroke="black" points="859.8,-449.34 854.27,-440.3 852.96,-450.82 859.8,-449.34"/>
</g>
<!-- qt&#45;&gt;libvips -->
<g id="edge31" class="edge">
<title>qt&#45;&gt;libvips</title>
<path fill="none" stroke="black" d="M1021.56,-547.94C1026.89,-516.25 1037.83,-450.57 1038.67,-440 1039.94,-424.05 1047.39,-417.42 1038.67,-404 1021.91,-378.18 989.33,-364.84 962.49,-358"/>
<polygon fill="black" stroke="black" points="963.07,-354.54 952.53,-355.68 961.48,-361.36 963.07,-354.54"/>
</g>
<!-- qt&#45;&gt;wxwidgets -->
<g id="edge32" class="edge">
<title>qt&#45;&gt;wxwidgets</title>
<path fill="none" stroke="black" d="M991.55,-565.1C916.19,-564.75 706.79,-559.45 661.67,-512 628.53,-477.14 633.11,-447 654.67,-404 661.79,-389.81 674.7,-378.45 687.58,-369.94"/>
<polygon fill="black" stroke="black" points="689.74,-372.73 696.43,-364.51 686.07,-366.76 689.74,-372.73"/>
</g>
<!-- qt&#45;&gt;gnuplot -->
<g id="edge33" class="edge">
<title>qt&#45;&gt;gnuplot</title>
<path fill="none" stroke="black" d="M1045.85,-564.28C1091.03,-561.93 1183.02,-552.16 1247.67,-512 1282.81,-490.17 1292.75,-478.96 1306.67,-440 1313.84,-419.95 1310.75,-395.85 1306.33,-377.79"/>
<polygon fill="black" stroke="black" points="1309.65,-376.66 1303.64,-367.93 1302.9,-378.5 1309.65,-376.66"/>
</g>
<!-- qt&#45;&gt;cadabra2 -->
<g id="edge45" class="edge">
<title>qt&#45;&gt;cadabra2</title>
<path fill="none" stroke="black" d="M991.87,-563.37C848.87,-554.38 180.19,-508.86 122.67,-440 86.58,-396.79 140.89,-334.3 175.9,-301.32"/>
<polygon fill="black" stroke="black" points="178.47,-303.71 183.46,-294.36 173.73,-298.56 178.47,-303.71"/>
</g>
<!-- qt&#45;&gt;octave -->
<g id="edge34" class="edge">
<title>qt&#45;&gt;octave</title>
<path fill="none" stroke="black" d="M1045.16,-562.48C1104.26,-556.41 1244.68,-539.44 1282.67,-512 1351.26,-462.45 1382.6,-407.64 1344.67,-332 1336.87,-316.43 1322.08,-304.27 1308.02,-295.55"/>
<polygon fill="black" stroke="black" points="1309.36,-292.28 1298.96,-290.31 1305.86,-298.34 1309.36,-292.28"/>
</g>
<!-- qt&#45;&gt;gstlal&#45;ugly -->
<g id="edge35" class="edge">
<title>qt&#45;&gt;gstlal&#45;ugly</title>
<path fill="none" stroke="black" d="M1045.27,-562.52C1075.81,-558.09 1124.65,-545.83 1147.67,-512 1174.67,-472.31 1173.1,-445.32 1148.67,-404 1139.43,-388.37 915.96,-271.72 826.86,-225.64"/>
<polygon fill="black" stroke="black" points="828.41,-222.51 817.92,-221.02 825.19,-228.72 828.41,-222.51"/>
</g>
<!-- qt&#45;&gt;gstlal&#45;burst -->
<g id="edge36" class="edge">
<title>qt&#45;&gt;gstlal&#45;burst</title>
<path fill="none" stroke="black" d="M991.63,-565.22C868.05,-565.93 356.74,-565.51 207.67,-512 156.13,-493.5 137.51,-485.93 107.67,-440 46.2,-345.37 0,-270.8 76.67,-188 112.11,-149.73 493.33,-161.15 544.67,-152 549.17,-151.2 553.82,-150.2 558.44,-149.09"/>
<polygon fill="black" stroke="black" points="559.64,-152.39 568.45,-146.51 557.9,-145.61 559.64,-152.39"/>
</g>
<!-- qt&#45;&gt;gstlal&#45;inspiral -->
<g id="edge37" class="edge">
<title>qt&#45;&gt;gstlal&#45;inspiral</title>
<path fill="none" stroke="black" d="M1045.48,-563.45C1115.26,-559.01 1300.64,-544.39 1351.67,-512 1430.25,-462.13 1394.96,-399.84 1458.67,-332 1479.44,-309.89 1501.92,-322.51 1516.67,-296 1524.45,-282.02 1526.98,-272.24 1516.67,-260 1432.86,-160.52 1023.89,-140.21 859.39,-136.06"/>
<polygon fill="black" stroke="black" points="859,-132.55 848.91,-135.81 858.83,-139.55 859,-132.55"/>
</g>
<!-- qt&#45;&gt;gstlal&#45;calibration -->
<g id="edge38" class="edge">
<title>qt&#45;&gt;gstlal&#45;calibration</title>
<path fill="none" stroke="black" d="M991.7,-565C868.46,-564.74 358.38,-560.7 207.67,-512 136.8,-489.1 65.67,-497.48 65.67,-423 65.67,-423 65.67,-423 65.67,-349 65.67,-301.45 102.12,-256.91 128.63,-230.81"/>
<polygon fill="black" stroke="black" points="131.33,-233.07 136.14,-223.63 126.49,-228.01 131.33,-233.07"/>
</g>
<!-- magics -->
<g id="node24" class="node">
<title>magics</title>
<g id="a_node24"><a xlink:href="https://github.com/conda-forge/magics-feedstock" xlink:title="magics">
<ellipse fill="#fde725" stroke="black" cx="1102.67" cy="-494" rx="36.5" ry="18"/>
<text text-anchor="middle" x="1102.67" y="-490.3" font-family="Times,serif" font-size="14.00">magics</text>
</a>
</g>
</g>
<!-- qt&#45;&gt;magics -->
<g id="edge39" class="edge">
<title>qt&#45;&gt;magics</title>
<path fill="none" stroke="black" d="M1034.87,-551.5C1046.82,-541.54 1063.33,-527.78 1077.07,-516.34"/>
<polygon fill="black" stroke="black" points="1079.34,-519 1084.78,-509.91 1074.86,-513.62 1079.34,-519"/>
</g>
<!-- poppler -->
<g id="node25" class="node">
<title>poppler</title>
<g id="a_node25"><a xlink:href="https://github.com/conda-forge/poppler-feedstock" xlink:title="poppler">
<ellipse fill="#fde725" stroke="black" cx="933.67" cy="-494" rx="37.89" ry="18"/>
<text text-anchor="middle" x="933.67" y="-490.3" font-family="Times,serif" font-size="14.00">poppler</text>
</a>
</g>
</g>
<!-- qt&#45;&gt;poppler -->
<g id="edge40" class="edge">
<title>qt&#45;&gt;poppler</title>
<path fill="none" stroke="black" d="M1002.28,-551.5C990.18,-541.54 973.48,-527.78 959.58,-516.34"/>
<polygon fill="black" stroke="black" points="961.72,-513.56 951.78,-509.91 957.27,-518.97 961.72,-513.56"/>
</g>
<!-- qt&#45;&gt;numcosmo -->
<g id="edge41" class="edge">
<title>qt&#45;&gt;numcosmo</title>
<path fill="none" stroke="black" d="M991.67,-564.11C928.34,-561.41 765.85,-550.93 636.67,-512 565.87,-490.66 532.69,-497.89 486.67,-440 455.79,-401.16 450.22,-341.15 449.85,-306.42"/>
<polygon fill="black" stroke="black" points="453.35,-306.1 449.88,-296.08 446.35,-306.07 453.35,-306.1"/>
</g>
<!-- r&#45;base -->
<g id="node27" class="node">
<title>r&#45;base</title>
<g id="a_node27"><a xlink:href="https://github.com/conda-forge/r-base-feedstock" xlink:title="r base">
<ellipse fill="#fde725" stroke="black" cx="1265.67" cy="-422" rx="32" ry="18"/>
<text text-anchor="middle" x="1265.67" y="-418.3" font-family="Times,serif" font-size="14.00">r base</text>
</a>
</g>
</g>
<!-- qt&#45;&gt;r&#45;base -->
<g id="edge42" class="edge">
<title>qt&#45;&gt;r&#45;base</title>
<path fill="none" stroke="black" d="M1045.81,-564.61C1087.57,-562.64 1168.14,-553.31 1219.67,-512 1239.32,-496.25 1251.45,-469.85 1258.29,-449.89"/>
<polygon fill="black" stroke="black" points="1261.7,-450.71 1261.4,-440.12 1255.03,-448.59 1261.7,-450.71"/>
</g>
<!-- magics&#45;metview -->
<g id="node28" class="node">
<title>magics&#45;metview</title>
<g id="a_node28"><a xlink:href="https://github.com/conda-forge/magics-metview-feedstock" xlink:title="magics metview">
<ellipse fill="#fde725" stroke="black" cx="1172.67" cy="-350" rx="69.59" ry="18"/>
<text text-anchor="middle" x="1172.67" y="-346.3" font-family="Times,serif" font-size="14.00">magics metview</text>
</a>
</g>
</g>
<!-- qt&#45;&gt;magics&#45;metview -->
<g id="edge43" class="edge">
<title>qt&#45;&gt;magics&#45;metview</title>
<path fill="none" stroke="black" d="M1045.86,-565.18C1083.52,-563.79 1150.46,-554.98 1181.67,-512 1210.42,-472.42 1195.73,-411.85 1183.5,-377.4"/>
<polygon fill="black" stroke="black" points="1186.77,-376.15 1180,-368 1180.22,-378.59 1186.77,-376.15"/>
</g>
<!-- magics&#45;metview&#45;batch -->
<g id="node29" class="node">
<title>magics&#45;metview&#45;batch</title>
<g id="a_node29"><a xlink:href="https://github.com/conda-forge/magics-metview-batch-feedstock" xlink:title="magics metview batch">
<ellipse fill="#fde725" stroke="black" cx="1416.67" cy="-278" rx="91" ry="18"/>
<text text-anchor="middle" x="1416.67" y="-274.3" font-family="Times,serif" font-size="14.00">magics metview batch</text>
</a>
</g>
</g>
<!-- qt&#45;&gt;magics&#45;metview&#45;batch -->
<g id="edge44" class="edge">
<title>qt&#45;&gt;magics&#45;metview&#45;batch</title>
<path fill="none" stroke="black" d="M1045.51,-562.82C1110.1,-557.18 1272.23,-540.51 1317.67,-512 1389.62,-466.86 1409.36,-357.09 1414.71,-305.99"/>
<polygon fill="black" stroke="black" points="1418.2,-306.31 1415.65,-296.03 1411.23,-305.65 1418.2,-306.31"/>
</g>
<!-- gst&#45;python&#45;&gt;gstlal&#45;ugly -->
<g id="edge46" class="edge">
<title>gst&#45;python&#45;&gt;gstlal&#45;ugly</title>
<path fill="none" stroke="black" d="M369.72,-265.6C376.93,-263.53 384.5,-261.54 391.67,-260 512.32,-234.16 656.36,-218.75 734.12,-211.68"/>
<polygon fill="black" stroke="black" points="734.54,-215.16 744.19,-210.78 733.91,-208.18 734.54,-215.16"/>
</g>
<!-- gst&#45;python&#45;&gt;gstlal&#45;burst -->
<g id="edge47" class="edge">
<title>gst&#45;python&#45;&gt;gstlal&#45;burst</title>
<path fill="none" stroke="black" d="M344.72,-260.23C357.67,-240.05 382.09,-206.59 411.67,-188 463.53,-155.42 485.66,-168.35 544.67,-152 548.66,-150.89 552.8,-149.74 556.95,-148.58"/>
<polygon fill="black" stroke="black" points="557.92,-151.94 566.6,-145.86 556.03,-145.2 557.92,-151.94"/>
</g>
<!-- gst&#45;python&#45;&gt;gstlal&#45;inspiral -->
<g id="edge48" class="edge">
<title>gst&#45;python&#45;&gt;gstlal&#45;inspiral</title>
<path fill="none" stroke="black" d="M370.46,-265.96C377.47,-263.9 384.78,-261.83 391.67,-260 460.04,-241.88 478.88,-244.15 546.67,-224 618.04,-202.78 698.86,-171.91 747.24,-152.66"/>
<polygon fill="black" stroke="black" points="748.78,-155.82 756.76,-148.86 746.18,-149.32 748.78,-155.82"/>
</g>
<!-- gst&#45;python&#45;&gt;gstlal&#45;calibration -->
<g id="edge49" class="edge">
<title>gst&#45;python&#45;&gt;gstlal&#45;calibration</title>
<path fill="none" stroke="black" d="M302.67,-264.49C274.6,-253.51 233.45,-237.42 201.82,-225.05"/>
<polygon fill="black" stroke="black" points="202.92,-221.72 192.33,-221.34 200.37,-228.24 202.92,-221.72"/>
</g>
<!-- gstlal&#45;ugly&#45;&gt;gstlal&#45;burst -->
<g id="edge50" class="edge">
<title>gstlal&#45;ugly&#45;&gt;gstlal&#45;burst</title>
<path fill="none" stroke="black" d="M757.85,-192.65C727.19,-181.11 681.24,-163.81 647.66,-151.18"/>
<polygon fill="black" stroke="black" points="648.7,-147.83 638.11,-147.58 646.24,-154.38 648.7,-147.83"/>
</g>
<!-- gstlal&#45;ugly&#45;&gt;gstlal&#45;inspiral -->
<g id="edge51" class="edge">
<title>gstlal&#45;ugly&#45;&gt;gstlal&#45;inspiral</title>
<path fill="none" stroke="black" d="M790.67,-187.7C790.67,-179.98 790.67,-170.71 790.67,-162.11"/>
<polygon fill="black" stroke="black" points="794.17,-162.1 790.67,-152.1 787.17,-162.1 794.17,-162.1"/>
</g>
<!-- poppler&#45;&gt;libvips -->
<g id="edge53" class="edge">
<title>poppler&#45;&gt;libvips</title>
<path fill="none" stroke="black" d="M931.98,-475.87C929.6,-451.67 925.21,-407.21 922.37,-378.39"/>
<polygon fill="black" stroke="black" points="925.83,-377.8 921.37,-368.19 918.86,-378.48 925.83,-377.8"/>
</g>
<!-- pdf2svg -->
<g id="node31" class="node">
<title>pdf2svg</title>
<g id="a_node31"><a xlink:href="https://github.com/conda-forge/pdf2svg-feedstock" xlink:title="pdf2svg">
<ellipse fill="#fde725" stroke="black" cx="990.67" cy="-422" rx="39" ry="18"/>
<text text-anchor="middle" x="990.67" y="-418.3" font-family="Times,serif" font-size="14.00">pdf2svg</text>
</a>
</g>
</g>
<!-- poppler&#45;&gt;pdf2svg -->
<g id="edge54" class="edge">
<title>poppler&#45;&gt;pdf2svg</title>
<path fill="none" stroke="black" d="M946.89,-476.76C954.09,-467.93 963.12,-456.83 971.12,-447.01"/>
<polygon fill="black" stroke="black" points="973.92,-449.11 977.52,-439.15 968.5,-444.69 973.92,-449.11"/>
</g>
<!-- libxmlpp -->
<g id="node30" class="node">
<title>libxmlpp</title>
<g id="a_node30"><a xlink:href="https://github.com/conda-forge/libxmlpp-feedstock/pull/9" xlink:title="libxmlpp ❎">
<ellipse fill="#31688e" stroke="black" cx="833.67" cy="-90" rx="54.69" ry="18"/>
<text text-anchor="middle" x="833.67" y="-86.3" font-family="Times,serif" font-size="14.00" fill="white">libxmlpp ❎</text>
</a>
</g>
</g>
<!-- libxmlpp&#45;&gt;cyclus -->
<g id="edge52" class="edge">
<title>libxmlpp&#45;&gt;cyclus</title>
<path fill="none" stroke="black" d="M833.67,-71.7C833.67,-63.98 833.67,-54.71 833.67,-46.11"/>
<polygon fill="black" stroke="black" points="837.17,-46.1 833.67,-36.1 830.17,-46.1 837.17,-46.1"/>
</g>
<!-- createrepo_c -->
<g id="node34" class="node">
<title>createrepo_c</title>
<g id="a_node34"><a xlink:href="https://github.com/conda-forge/createrepo_c-feedstock" xlink:title="createrepo_c">
<ellipse fill="#fde725" stroke="black" cx="479.67" cy="-134" rx="56" ry="18"/>
<text text-anchor="middle" x="479.67" y="-130.3" font-family="Times,serif" font-size="14.00">createrepo_c</text>
</a>
</g>
</g>
<!-- libmodulemd&#45;&gt;createrepo_c -->
<g id="edge63" class="edge">
<title>libmodulemd&#45;&gt;createrepo_c</title>
<path fill="none" stroke="black" d="M479.67,-187.7C479.67,-179.98 479.67,-170.71 479.67,-162.11"/>
<polygon fill="black" stroke="black" points="483.17,-162.1 479.67,-152.1 476.17,-162.1 483.17,-162.1"/>
</g>
<!-- libsecret -->
<g id="node35" class="node">
<title>libsecret</title>
<g id="a_node35"><a xlink:href="https://github.com/conda-forge/libsecret-feedstock/pull/4" xlink:title="libsecret ❎">
<ellipse fill="#31688e" stroke="black" cx="1933.67" cy="-530" rx="52" ry="18"/>
<text text-anchor="middle" x="1933.67" y="-526.3" font-family="Times,serif" font-size="14.00" fill="white">libsecret ❎</text>
</a>
</g>
</g>
<!-- cem -->
<g id="node36" class="node">
<title>cem</title>
<g id="a_node36"><a xlink:href="https://github.com/conda-forge/cem-feedstock/pull/5" xlink:title="cem ❎">
<ellipse fill="#31688e" stroke="black" cx="1933.67" cy="-458" rx="37.89" ry="18"/>
<text text-anchor="middle" x="1933.67" y="-454.3" font-family="Times,serif" font-size="14.00" fill="white">cem ❎</text>
</a>
</g>
</g>
<!-- libsecret&#45;&gt;cem -->
<!-- libical -->
<g id="node37" class="node">
<title>libical</title>
<g id="a_node37"><a xlink:href="https://github.com/conda-forge/libical-feedstock/pull/8" xlink:title="libical ❎">
<ellipse fill="#31688e" stroke="black" cx="1933.67" cy="-386" rx="44.39" ry="18"/>
<text text-anchor="middle" x="1933.67" y="-382.3" font-family="Times,serif" font-size="14.00" fill="white">libical ❎</text>
</a>
</g>
</g>
<!-- cem&#45;&gt;libical -->
<!-- libv8 -->
<g id="node42" class="node">
<title>libv8</title>
<g id="a_node42"><a xlink:href="https://github.com/conda-forge/libv8-feedstock/pull/22" xlink:title="libv8 ❎">
<ellipse fill="#31688e" stroke="black" cx="1933.67" cy="-314" rx="40.5" ry="18"/>
<text text-anchor="middle" x="1933.67" y="-310.3" font-family="Times,serif" font-size="14.00" fill="white">libv8 ❎</text>
</a>
</g>
</g>
<!-- libical&#45;&gt;libv8 -->
<!-- srm&#45;ifce -->
<g id="node38" class="node">
<title>srm&#45;ifce</title>
<g id="a_node38"><a xlink:href="https://github.com/conda-forge/srm-ifce-feedstock/pull/5" xlink:title="srm ifce ❎">
<ellipse fill="#31688e" stroke="black" cx="1772.67" cy="-494" rx="52" ry="18"/>
<text text-anchor="middle" x="1772.67" y="-490.3" font-family="Times,serif" font-size="14.00" fill="white">srm ifce ❎</text>
</a>
</g>
</g>
<!-- gfal2 -->
<g id="node39" class="node">
<title>gfal2</title>
<g id="a_node39"><a xlink:href="https://github.com/conda-forge/gfal2-feedstock" xlink:title="gfal2">
<ellipse fill="#fde725" stroke="black" cx="1772.67" cy="-422" rx="28.7" ry="18"/>
<text text-anchor="middle" x="1772.67" y="-418.3" font-family="Times,serif" font-size="14.00">gfal2</text>
</a>
</g>
</g>
<!-- srm&#45;ifce&#45;&gt;gfal2 -->
<g id="edge66" class="edge">
<title>srm&#45;ifce&#45;&gt;gfal2</title>
<path fill="none" stroke="black" d="M1772.67,-475.7C1772.67,-467.98 1772.67,-458.71 1772.67,-450.11"/>
<polygon fill="black" stroke="black" points="1776.17,-450.1 1772.67,-440.1 1769.17,-450.1 1776.17,-450.1"/>
</g>
<!-- python&#45;gfal2 -->
<g id="node40" class="node">
<title>python&#45;gfal2</title>
<g id="a_node40"><a xlink:href="https://github.com/conda-forge/python-gfal2-feedstock" xlink:title="python gfal2">
<ellipse fill="#fde725" stroke="black" cx="1730.67" cy="-350" rx="56" ry="18"/>
<text text-anchor="middle" x="1730.67" y="-346.3" font-family="Times,serif" font-size="14.00">python gfal2</text>
</a>
</g>
</g>
<!-- gfal2&#45;&gt;python&#45;gfal2 -->
<g id="edge67" class="edge">
<title>gfal2&#45;&gt;python&#45;gfal2</title>
<path fill="none" stroke="black" d="M1762.93,-404.76C1757.94,-396.44 1751.73,-386.1 1746.11,-376.73"/>
<polygon fill="black" stroke="black" points="1749.09,-374.9 1740.95,-368.12 1743.09,-378.5 1749.09,-374.9"/>
</g>
<!-- nordugrid&#45;arc -->
<g id="node41" class="node">
<title>nordugrid&#45;arc</title>
<g id="a_node41"><a xlink:href="https://github.com/conda-forge/nordugrid-arc-feedstock" xlink:title="nordugrid arc">
<ellipse fill="#fde725" stroke="black" cx="1814.67" cy="-278" rx="58.5" ry="18"/>
<text text-anchor="middle" x="1814.67" y="-274.3" font-family="Times,serif" font-size="14.00">nordugrid arc</text>
</a>
</g>
</g>
<!-- gfal2&#45;&gt;nordugrid&#45;arc -->
<g id="edge68" class="edge">
<title>gfal2&#45;&gt;nordugrid&#45;arc</title>
<path fill="none" stroke="black" d="M1780.79,-404.62C1785.65,-394.31 1791.63,-380.61 1795.67,-368 1802.21,-347.59 1807.15,-323.83 1810.35,-305.99"/>
<polygon fill="black" stroke="black" points="1813.83,-306.44 1812.08,-295.99 1806.93,-305.25 1813.83,-306.44"/>
</g>
<!-- libsoup -->
<g id="node43" class="node">
<title>libsoup</title>
<g id="a_node43"><a xlink:href="https://github.com/conda-forge/libsoup-feedstock/pull/5" xlink:title="libsoup ❎">
<ellipse fill="#31688e" stroke="black" cx="1933.67" cy="-242" rx="48.19" ry="18"/>
<text text-anchor="middle" x="1933.67" y="-238.3" font-family="Times,serif" font-size="14.00" fill="white">libsoup ❎</text>
</a>
</g>
</g>
<!-- libv8&#45;&gt;libsoup -->
<!-- gcab -->
<g id="node44" class="node">
<title>gcab</title>
<g id="a_node44"><a xlink:href="https://github.com/conda-forge/gcab-feedstock/pull/5" xlink:title="gcab ✓">
<ellipse fill="#31688e" stroke="black" cx="1773.67" cy="-90" rx="37.89" ry="18"/>
<text text-anchor="middle" x="1773.67" y="-86.3" font-family="Times,serif" font-size="14.00" fill="white">gcab ✓</text>
</a>
</g>
</g>
<!-- msitools -->
<g id="node45" class="node">
<title>msitools</title>
<g id="a_node45"><a xlink:href="https://github.com/conda-forge/msitools-feedstock" xlink:title="msitools">
<ellipse fill="#fde725" stroke="black" cx="1773.67" cy="-18" rx="41" ry="18"/>
<text text-anchor="middle" x="1773.67" y="-14.3" font-family="Times,serif" font-size="14.00">msitools</text>
</a>
</g>
</g>
<!-- gcab&#45;&gt;msitools -->
<g id="edge71" class="edge">
<title>gcab&#45;&gt;msitools</title>
<path fill="none" stroke="black" d="M1773.67,-71.7C1773.67,-63.98 1773.67,-54.71 1773.67,-46.11"/>
<polygon fill="black" stroke="black" points="1777.17,-46.1 1773.67,-36.1 1770.17,-46.1 1777.17,-46.1"/>
</g>
<!-- atkmm -->
<g id="node46" class="node">
<title>atkmm</title>
<g id="a_node46"><a xlink:href="https://github.com/conda-forge/atkmm-feedstock/pull/1" xlink:title="atkmm ❎">
<ellipse fill="#31688e" stroke="black" cx="315.67" cy="-422" rx="48.19" ry="18"/>
<text text-anchor="middle" x="315.67" y="-418.3" font-family="Times,serif" font-size="14.00" fill="white">atkmm ❎</text>
</a>
</g>
</g>
<!-- atkmm&#45;&gt;gtkmm -->
<g id="edge72" class="edge">
<title>atkmm&#45;&gt;gtkmm</title>
<path fill="none" stroke="black" d="M315.67,-403.7C315.67,-395.98 315.67,-386.71 315.67,-378.11"/>
<polygon fill="black" stroke="black" points="319.17,-378.1 315.67,-368.1 312.17,-378.1 319.17,-378.1"/>
</g>
<!-- atkmm&#45;&gt;cadabra2 -->
<g id="edge73" class="edge">
<title>atkmm&#45;&gt;cadabra2</title>
<path fill="none" stroke="black" d="M300.9,-404.52C291.74,-394.17 279.83,-380.47 269.67,-368 252.26,-346.62 233.27,-321.62 219.8,-303.57"/>
<polygon fill="black" stroke="black" points="222.43,-301.25 213.66,-295.31 216.82,-305.43 222.43,-301.25"/>
</g>
<!-- pangomm -->
<g id="node47" class="node">
<title>pangomm</title>
<g id="a_node47"><a xlink:href="https://github.com/conda-forge/pangomm-feedstock/pull/1" xlink:title="pangomm ❎">
<ellipse fill="#31688e" stroke="black" cx="190.67" cy="-422" rx="58.5" ry="18"/>
<text text-anchor="middle" x="190.67" y="-418.3" font-family="Times,serif" font-size="14.00" fill="white">pangomm ❎</text>
</a>
</g>
</g>
<!-- pangomm&#45;&gt;gtkmm -->
<g id="edge74" class="edge">
<title>pangomm&#45;&gt;gtkmm</title>
<path fill="none" stroke="black" d="M217.49,-405.98C236.77,-395.18 262.87,-380.57 283.32,-369.12"/>
<polygon fill="black" stroke="black" points="285.25,-372.05 292.27,-364.11 281.83,-365.94 285.25,-372.05"/>
</g>
<!-- pangomm&#45;&gt;cadabra2 -->
<g id="edge75" class="edge">
<title>pangomm&#45;&gt;cadabra2</title>
<path fill="none" stroke="black" d="M192,-403.87C193.87,-379.67 197.32,-335.21 199.55,-306.39"/>
<polygon fill="black" stroke="black" points="203.06,-306.43 200.34,-296.19 196.08,-305.89 203.06,-306.43"/>
</g>
</g>
</svg>
