<?xml version="1.0" encoding="UTF-8" standalone="no"?>
<!DOCTYPE svg PUBLIC "-//W3C//DTD SVG 1.1//EN"
 "http://www.w3.org/Graphics/SVG/1.1/DTD/svg11.dtd">
<!-- Generated by graphviz version 2.42.3 (20191010.1750)
 -->
<!-- Title: %3 Pages: 1 -->
<svg width="2400pt" height="592pt"
 viewBox="0.00 0.00 2400.13 592.00" xmlns="http://www.w3.org/2000/svg" xmlns:xlink="http://www.w3.org/1999/xlink">
<g id="graph0" class="graph" transform="scale(1 1) rotate(0) translate(4 588)">
<title>%3</title>
<polygon fill="white" stroke="transparent" points="-4,4 -4,-588 2396.13,-588 2396.13,4 -4,4"/>
<!-- cyclus -->
<g id="node1" class="node">
<title>cyclus</title>
<g id="a_node1"><a xlink:href="https://github.com/conda-forge/cyclus-feedstock/pull/59" xlink:title="cyclus ❎">
<ellipse fill="#31688e" stroke="black" cx="2340.13" cy="-458" rx="45" ry="18"/>
<text text-anchor="middle" x="2340.13" y="-454.3" font-family="Times,serif" font-size="14.00" fill="white">cyclus ❎</text>
</a>
</g>
</g>
<!-- libsecret -->
<g id="node2" class="node">
<title>libsecret</title>
<g id="a_node2"><a xlink:href="https://github.com/conda-forge/libsecret-feedstock/pull/4" xlink:title="libsecret ❎">
<ellipse fill="#31688e" stroke="black" cx="2340.13" cy="-386" rx="52" ry="18"/>
<text text-anchor="middle" x="2340.13" y="-382.3" font-family="Times,serif" font-size="14.00" fill="white">libsecret ❎</text>
</a>
</g>
</g>
<!-- cyclus&#45;&gt;libsecret -->
<!-- cem -->
<g id="node36" class="node">
<title>cem</title>
<g id="a_node36"><a xlink:href="https://github.com/conda-forge/cem-feedstock/pull/5" xlink:title="cem ❎">
<ellipse fill="#31688e" stroke="black" cx="2340.13" cy="-314" rx="37.89" ry="18"/>
<text text-anchor="middle" x="2340.13" y="-310.3" font-family="Times,serif" font-size="14.00" fill="white">cem ❎</text>
</a>
</g>
</g>
<!-- libsecret&#45;&gt;cem -->
<!-- emacs -->
<g id="node3" class="node">
<title>emacs</title>
<g id="a_node3"><a xlink:href="https://github.com/conda-forge/emacs-feedstock" xlink:title="emacs">
<ellipse fill="#fde725" stroke="black" cx="955.13" cy="-350" rx="33.29" ry="18"/>
<text text-anchor="middle" x="955.13" y="-346.3" font-family="Times,serif" font-size="14.00">emacs</text>
</a>
</g>
</g>
<!-- gdk&#45;pixbuf -->
<g id="node4" class="node">
<title>gdk&#45;pixbuf</title>
<g id="a_node4"><a xlink:href="https://github.com/conda-forge/gdk-pixbuf-feedstock" xlink:title="gdk pixbuf">
<ellipse fill="#fde725" stroke="black" cx="1195.13" cy="-494" rx="49.5" ry="18"/>
<text text-anchor="middle" x="1195.13" y="-490.3" font-family="Times,serif" font-size="14.00">gdk pixbuf</text>
</a>
</g>
</g>
<!-- imagemagick -->
<g id="node5" class="node">
<title>imagemagick</title>
<g id="a_node5"><a xlink:href="https://github.com/conda-forge/imagemagick-feedstock" xlink:title="imagemagick">
<ellipse fill="#fde725" stroke="black" cx="1271.13" cy="-350" rx="59.29" ry="18"/>
<text text-anchor="middle" x="1271.13" y="-346.3" font-family="Times,serif" font-size="14.00">imagemagick</text>
</a>
</g>
</g>
<!-- gdk&#45;pixbuf&#45;&gt;imagemagick -->
<g id="edge2" class="edge">
<title>gdk&#45;pixbuf&#45;&gt;imagemagick</title>
<path fill="none" stroke="black" d="M1205.02,-475.91C1210.95,-465.57 1218.58,-452.09 1225.13,-440 1236.51,-418.96 1248.94,-394.84 1258.01,-377.02"/>
<polygon fill="black" stroke="black" points="1261.27,-378.33 1262.67,-367.83 1255.02,-375.17 1261.27,-378.33"/>
</g>
<!-- librsvg -->
<g id="node6" class="node">
<title>librsvg</title>
<g id="a_node6"><a xlink:href="https://github.com/conda-forge/librsvg-feedstock" xlink:title="librsvg">
<ellipse fill="#fde725" stroke="black" cx="1132.13" cy="-422" rx="35.19" ry="18"/>
<text text-anchor="middle" x="1132.13" y="-418.3" font-family="Times,serif" font-size="14.00">librsvg</text>
</a>
</g>
</g>
<!-- gdk&#45;pixbuf&#45;&gt;librsvg -->
<g id="edge3" class="edge">
<title>gdk&#45;pixbuf&#45;&gt;librsvg</title>
<path fill="none" stroke="black" d="M1180.51,-476.76C1172.37,-467.71 1162.08,-456.29 1153.09,-446.3"/>
<polygon fill="black" stroke="black" points="1155.52,-443.76 1146.23,-438.67 1150.31,-448.44 1155.52,-443.76"/>
</g>
<!-- gtk2 -->
<g id="node7" class="node">
<title>gtk2</title>
<g id="a_node7"><a xlink:href="https://github.com/conda-forge/gtk2-feedstock" xlink:title="gtk2">
<ellipse fill="#fde725" stroke="black" cx="1364.13" cy="-422" rx="27" ry="18"/>
<text text-anchor="middle" x="1364.13" y="-418.3" font-family="Times,serif" font-size="14.00">gtk2</text>
</a>
</g>
</g>
<!-- gdk&#45;pixbuf&#45;&gt;gtk2 -->
<g id="edge4" class="edge">
<title>gdk&#45;pixbuf&#45;&gt;gtk2</title>
<path fill="none" stroke="black" d="M1226.52,-480C1256.75,-467.47 1302.24,-448.63 1332.54,-436.08"/>
<polygon fill="black" stroke="black" points="1333.9,-439.31 1341.8,-432.25 1331.22,-432.84 1333.9,-439.31"/>
</g>
<!-- openslide -->
<g id="node8" class="node">
<title>openslide</title>
<g id="a_node8"><a xlink:href="https://github.com/conda-forge/openslide-feedstock" xlink:title="openslide">
<ellipse fill="#fde725" stroke="black" cx="1035.13" cy="-422" rx="44.39" ry="18"/>
<text text-anchor="middle" x="1035.13" y="-418.3" font-family="Times,serif" font-size="14.00">openslide</text>
</a>
</g>
</g>
<!-- gdk&#45;pixbuf&#45;&gt;openslide -->
<g id="edge5" class="edge">
<title>gdk&#45;pixbuf&#45;&gt;openslide</title>
<path fill="none" stroke="black" d="M1164.66,-479.67C1138.78,-468.35 1101.51,-452.04 1073.59,-439.83"/>
<polygon fill="black" stroke="black" points="1074.7,-436.49 1064.14,-435.69 1071.9,-442.91 1074.7,-436.49"/>
</g>
<!-- libvips -->
<g id="node9" class="node">
<title>libvips</title>
<g id="a_node9"><a xlink:href="https://github.com/conda-forge/libvips-feedstock" xlink:title="libvips">
<ellipse fill="#fde725" stroke="black" cx="1035.13" cy="-278" rx="34.5" ry="18"/>
<text text-anchor="middle" x="1035.13" y="-274.3" font-family="Times,serif" font-size="14.00">libvips</text>
</a>
</g>
</g>
<!-- gdk&#45;pixbuf&#45;&gt;libvips -->
<g id="edge6" class="edge">
<title>gdk&#45;pixbuf&#45;&gt;libvips</title>
<path fill="none" stroke="black" d="M1195.53,-475.9C1195.13,-456.61 1191.83,-425.2 1176.13,-404 1156.47,-377.47 1136.7,-388.89 1111.13,-368 1104.62,-362.69 1074.83,-327.12 1054.53,-302.59"/>
<polygon fill="black" stroke="black" points="1057.13,-300.24 1048.06,-294.76 1051.73,-304.7 1057.13,-300.24"/>
</g>
<!-- gtk3 -->
<g id="node10" class="node">
<title>gtk3</title>
<g id="a_node10"><a xlink:href="https://github.com/conda-forge/gtk3-feedstock" xlink:title="gtk3">
<ellipse fill="#fde725" stroke="black" cx="908.13" cy="-422" rx="27" ry="18"/>
<text text-anchor="middle" x="908.13" y="-418.3" font-family="Times,serif" font-size="14.00">gtk3</text>
</a>
</g>
</g>
<!-- gdk&#45;pixbuf&#45;&gt;gtk3 -->
<g id="edge7" class="edge">
<title>gdk&#45;pixbuf&#45;&gt;gtk3</title>
<path fill="none" stroke="black" d="M1155.22,-483.27C1098.79,-469.5 996.59,-444.58 943.02,-431.51"/>
<polygon fill="black" stroke="black" points="943.84,-428.11 933.3,-429.14 942.18,-434.91 943.84,-428.11"/>
</g>
<!-- gtkmm -->
<g id="node11" class="node">
<title>gtkmm</title>
<g id="a_node11"><a xlink:href="https://github.com/conda-forge/gtkmm-feedstock" xlink:title="gtkmm">
<ellipse fill="#fde725" stroke="black" cx="1157.13" cy="-350" rx="36.5" ry="18"/>
<text text-anchor="middle" x="1157.13" y="-346.3" font-family="Times,serif" font-size="14.00">gtkmm</text>
</a>
</g>
</g>
<!-- gdk&#45;pixbuf&#45;&gt;gtkmm -->
<g id="edge8" class="edge">
<title>gdk&#45;pixbuf&#45;&gt;gtkmm</title>
<path fill="none" stroke="black" d="M1203.01,-475.98C1210.36,-457.59 1218.83,-427.75 1209.13,-404 1204.1,-391.69 1194.68,-380.7 1185.23,-371.96"/>
<polygon fill="black" stroke="black" points="1187.23,-369.07 1177.38,-365.17 1182.65,-374.36 1187.23,-369.07"/>
</g>
<!-- wxwidgets -->
<g id="node12" class="node">
<title>wxwidgets</title>
<g id="a_node12"><a xlink:href="https://github.com/conda-forge/wxwidgets-feedstock" xlink:title="wxwidgets">
<ellipse fill="#fde725" stroke="black" cx="731.13" cy="-350" rx="48.99" ry="18"/>
<text text-anchor="middle" x="731.13" y="-346.3" font-family="Times,serif" font-size="14.00">wxwidgets</text>
</a>
</g>
</g>
<!-- gdk&#45;pixbuf&#45;&gt;wxwidgets -->
<g id="edge9" class="edge">
<title>gdk&#45;pixbuf&#45;&gt;wxwidgets</title>
<path fill="none" stroke="black" d="M1147.75,-488.67C1070.13,-481.01 919.72,-463.61 872.13,-440 851.29,-429.66 853.1,-417.46 834.13,-404 814.67,-390.2 791.14,-377.82 771.48,-368.49"/>
<polygon fill="black" stroke="black" points="772.72,-365.21 762.17,-364.17 769.77,-371.56 772.72,-365.21"/>
</g>
<!-- imagemagick&#45;&gt;libvips -->
<g id="edge10" class="edge">
<title>imagemagick&#45;&gt;libvips</title>
<path fill="none" stroke="black" d="M1230.29,-336.89C1186.44,-323.88 1117.28,-303.37 1074.15,-290.58"/>
<polygon fill="black" stroke="black" points="1074.89,-287.14 1064.31,-287.65 1072.9,-293.85 1074.89,-287.14"/>
</g>
<!-- librsvg&#45;&gt;emacs -->
<g id="edge11" class="edge">
<title>librsvg&#45;&gt;emacs</title>
<path fill="none" stroke="black" d="M1105.24,-410.37C1074.61,-398.25 1024.43,-378.41 990.61,-365.03"/>
<polygon fill="black" stroke="black" points="991.69,-361.7 981.11,-361.27 989.12,-368.21 991.69,-361.7"/>
</g>
<!-- librsvg&#45;&gt;imagemagick -->
<g id="edge12" class="edge">
<title>librsvg&#45;&gt;imagemagick</title>
<path fill="none" stroke="black" d="M1156.34,-408.81C1177.44,-398.18 1208.42,-382.58 1232.87,-370.26"/>
<polygon fill="black" stroke="black" points="1234.54,-373.35 1241.89,-365.72 1231.39,-367.09 1234.54,-373.35"/>
</g>
<!-- librsvg&#45;&gt;libvips -->
<g id="edge13" class="edge">
<title>librsvg&#45;&gt;libvips</title>
<path fill="none" stroke="black" d="M1114.27,-406.33C1102.92,-396.36 1088.47,-382.41 1078.13,-368 1064.2,-348.59 1052.7,-323.97 1045.11,-305.55"/>
<polygon fill="black" stroke="black" points="1048.27,-304.01 1041.31,-296.02 1041.77,-306.61 1048.27,-304.01"/>
</g>
<!-- gtk2&#45;&gt;imagemagick -->
<g id="edge14" class="edge">
<title>gtk2&#45;&gt;imagemagick</title>
<path fill="none" stroke="black" d="M1346.63,-407.83C1333.67,-398.08 1315.7,-384.55 1300.54,-373.14"/>
<polygon fill="black" stroke="black" points="1302.55,-370.27 1292.46,-367.06 1298.34,-375.87 1302.55,-370.27"/>
</g>
<!-- gnuplot -->
<g id="node13" class="node">
<title>gnuplot</title>
<g id="a_node13"><a xlink:href="https://github.com/conda-forge/gnuplot-feedstock" xlink:title="gnuplot">
<ellipse fill="#fde725" stroke="black" cx="1534.13" cy="-350" rx="37.89" ry="18"/>
<text text-anchor="middle" x="1534.13" y="-346.3" font-family="Times,serif" font-size="14.00">gnuplot</text>
</a>
</g>
</g>
<!-- gtk2&#45;&gt;gnuplot -->
<g id="edge15" class="edge">
<title>gtk2&#45;&gt;gnuplot</title>
<path fill="none" stroke="black" d="M1386.7,-411.7C1414.82,-400.13 1463.24,-380.19 1496.88,-366.34"/>
<polygon fill="black" stroke="black" points="1498.46,-369.47 1506.38,-362.43 1495.8,-363 1498.46,-369.47"/>
</g>
<!-- wxpython -->
<g id="node14" class="node">
<title>wxpython</title>
<g id="a_node14"><a xlink:href="https://github.com/conda-forge/wxpython-feedstock" xlink:title="wxpython">
<ellipse fill="#fde725" stroke="black" cx="1394.13" cy="-350" rx="46.29" ry="18"/>
<text text-anchor="middle" x="1394.13" y="-346.3" font-family="Times,serif" font-size="14.00">wxpython</text>
</a>
</g>
</g>
<!-- gtk2&#45;&gt;wxpython -->
<g id="edge16" class="edge">
<title>gtk2&#45;&gt;wxpython</title>
<path fill="none" stroke="black" d="M1371.24,-404.41C1374.7,-396.34 1378.94,-386.43 1382.83,-377.35"/>
<polygon fill="black" stroke="black" points="1386.14,-378.53 1386.86,-367.96 1379.7,-375.77 1386.14,-378.53"/>
</g>
<!-- openslide&#45;&gt;libvips -->
<g id="edge17" class="edge">
<title>openslide&#45;&gt;libvips</title>
<path fill="none" stroke="black" d="M1035.13,-403.87C1035.13,-379.67 1035.13,-335.21 1035.13,-306.39"/>
<polygon fill="black" stroke="black" points="1038.63,-306.19 1035.13,-296.19 1031.63,-306.19 1038.63,-306.19"/>
</g>
<!-- gtk3&#45;&gt;gtkmm -->
<g id="edge18" class="edge">
<title>gtk3&#45;&gt;gtkmm</title>
<path fill="none" stroke="black" d="M932.46,-414.16C975.13,-402.16 1063.91,-377.21 1116.19,-362.51"/>
<polygon fill="black" stroke="black" points="1117.45,-365.79 1126.13,-359.71 1115.56,-359.05 1117.45,-365.79"/>
</g>
<!-- gtk3&#45;&gt;wxwidgets -->
<g id="edge19" class="edge">
<title>gtk3&#45;&gt;wxwidgets</title>
<path fill="none" stroke="black" d="M885.61,-411.56C879.61,-409.08 873.13,-406.41 867.13,-404 835.72,-391.37 800.05,-377.49 773.13,-367.1"/>
<polygon fill="black" stroke="black" points="774.22,-363.77 763.63,-363.44 771.7,-370.3 774.22,-363.77"/>
</g>
<!-- pygobject -->
<g id="node15" class="node">
<title>pygobject</title>
<g id="a_node15"><a xlink:href="https://github.com/conda-forge/pygobject-feedstock" xlink:title="pygobject">
<ellipse fill="#fde725" stroke="black" cx="375.13" cy="-350" rx="45.5" ry="18"/>
<text text-anchor="middle" x="375.13" y="-346.3" font-family="Times,serif" font-size="14.00">pygobject</text>
</a>
</g>
</g>
<!-- gtk3&#45;&gt;pygobject -->
<g id="edge20" class="edge">
<title>gtk3&#45;&gt;pygobject</title>
<path fill="none" stroke="black" d="M883.26,-414.56C868.97,-411.04 850.63,-406.84 834.13,-404 688.84,-379 515.6,-362.58 429.42,-355.31"/>
<polygon fill="black" stroke="black" points="429.6,-351.81 419.35,-354.46 429.02,-358.79 429.6,-351.81"/>
</g>
<!-- stoken -->
<g id="node16" class="node">
<title>stoken</title>
<g id="a_node16"><a xlink:href="https://github.com/conda-forge/stoken-feedstock" xlink:title="stoken">
<ellipse fill="#fde725" stroke="black" cx="832.13" cy="-350" rx="34" ry="18"/>
<text text-anchor="middle" x="832.13" y="-346.3" font-family="Times,serif" font-size="14.00">stoken</text>
</a>
</g>
</g>
<!-- gtk3&#45;&gt;stoken -->
<g id="edge21" class="edge">
<title>gtk3&#45;&gt;stoken</title>
<path fill="none" stroke="black" d="M892.75,-406.83C882.14,-397.07 867.85,-383.9 855.8,-372.8"/>
<polygon fill="black" stroke="black" points="858,-370.07 848.27,-365.87 853.25,-375.22 858,-370.07"/>
</g>
<!-- cadabra2 -->
<g id="node17" class="node">
<title>cadabra2</title>
<g id="a_node17"><a xlink:href="https://github.com/conda-forge/cadabra2-feedstock" xlink:title="cadabra2">
<ellipse fill="#fde725" stroke="black" cx="1309.13" cy="-278" rx="42.49" ry="18"/>
<text text-anchor="middle" x="1309.13" y="-274.3" font-family="Times,serif" font-size="14.00">cadabra2</text>
</a>
</g>
</g>
<!-- gtkmm&#45;&gt;cadabra2 -->
<g id="edge22" class="edge">
<title>gtkmm&#45;&gt;cadabra2</title>
<path fill="none" stroke="black" d="M1182.91,-337.13C1207.38,-325.86 1244.43,-308.79 1272.07,-296.07"/>
<polygon fill="black" stroke="black" points="1273.79,-299.13 1281.41,-291.76 1270.86,-292.77 1273.79,-299.13"/>
</g>
<!-- octave -->
<g id="node18" class="node">
<title>octave</title>
<g id="a_node18"><a xlink:href="https://github.com/conda-forge/octave-feedstock" xlink:title="octave">
<ellipse fill="#fde725" stroke="black" cx="1555.13" cy="-278" rx="34" ry="18"/>
<text text-anchor="middle" x="1555.13" y="-274.3" font-family="Times,serif" font-size="14.00">octave</text>
</a>
</g>
</g>
<!-- gnuplot&#45;&gt;octave -->
<g id="edge23" class="edge">
<title>gnuplot&#45;&gt;octave</title>
<path fill="none" stroke="black" d="M1539.21,-332.05C1541.55,-324.26 1544.38,-314.82 1547,-306.08"/>
<polygon fill="black" stroke="black" points="1550.42,-306.86 1549.94,-296.28 1543.72,-304.85 1550.42,-306.86"/>
</g>
<!-- numcosmo -->
<g id="node23" class="node">
<title>numcosmo</title>
<g id="a_node23"><a xlink:href="https://github.com/conda-forge/numcosmo-feedstock" xlink:title="numcosmo">
<ellipse fill="#fde725" stroke="black" cx="567.13" cy="-278" rx="50.09" ry="18"/>
<text text-anchor="middle" x="567.13" y="-274.3" font-family="Times,serif" font-size="14.00">numcosmo</text>
</a>
</g>
</g>
<!-- pygobject&#45;&gt;numcosmo -->
<g id="edge49" class="edge">
<title>pygobject&#45;&gt;numcosmo</title>
<path fill="none" stroke="black" d="M407.7,-337.13C439.58,-325.5 488.35,-307.72 523.56,-294.88"/>
<polygon fill="black" stroke="black" points="524.91,-298.12 533.1,-291.4 522.51,-291.54 524.91,-298.12"/>
</g>
<!-- gstlal&#45;ugly -->
<g id="node27" class="node">
<title>gstlal&#45;ugly</title>
<g id="a_node27"><a xlink:href="https://github.com/conda-forge/gstlal-ugly-feedstock" xlink:title="gstlal ugly">
<ellipse fill="#fde725" stroke="black" cx="494.13" cy="-206" rx="48.19" ry="18"/>
<text text-anchor="middle" x="494.13" y="-202.3" font-family="Times,serif" font-size="14.00">gstlal ugly</text>
</a>
</g>
</g>
<!-- pygobject&#45;&gt;gstlal&#45;ugly -->
<g id="edge50" class="edge">
<title>pygobject&#45;&gt;gstlal&#45;ugly</title>
<path fill="none" stroke="black" d="M393.8,-333.45C405.42,-323.34 420.34,-309.57 432.13,-296 449.56,-275.93 466.61,-250.94 478.41,-232.55"/>
<polygon fill="black" stroke="black" points="481.53,-234.17 483.92,-223.85 475.61,-230.43 481.53,-234.17"/>
</g>
<!-- gstlal&#45;burst -->
<g id="node28" class="node">
<title>gstlal&#45;burst</title>
<g id="a_node28"><a xlink:href="https://github.com/conda-forge/gstlal-burst-feedstock" xlink:title="gstlal burst">
<ellipse fill="#fde725" stroke="black" cx="332.13" cy="-134" rx="50.09" ry="18"/>
<text text-anchor="middle" x="332.13" y="-130.3" font-family="Times,serif" font-size="14.00">gstlal burst</text>
</a>
</g>
</g>
<!-- pygobject&#45;&gt;gstlal&#45;burst -->
<g id="edge51" class="edge">
<title>pygobject&#45;&gt;gstlal&#45;burst</title>
<path fill="none" stroke="black" d="M329.75,-347.93C290.93,-344.37 236.9,-332.58 208.13,-296 178.42,-258.23 176.37,-227.91 203.13,-188 219.46,-163.64 249.21,-150.47 276.03,-143.35"/>
<polygon fill="black" stroke="black" points="276.86,-146.75 285.75,-140.99 275.21,-139.95 276.86,-146.75"/>
</g>
<!-- gstlal&#45;inspiral -->
<g id="node29" class="node">
<title>gstlal&#45;inspiral</title>
<g id="a_node29"><a xlink:href="https://github.com/conda-forge/gstlal-inspiral-feedstock" xlink:title="gstlal inspiral">
<ellipse fill="#fde725" stroke="black" cx="532.13" cy="-134" rx="58.5" ry="18"/>
<text text-anchor="middle" x="532.13" y="-130.3" font-family="Times,serif" font-size="14.00">gstlal inspiral</text>
</a>
</g>
</g>
<!-- pygobject&#45;&gt;gstlal&#45;inspiral -->
<g id="edge52" class="edge">
<title>pygobject&#45;&gt;gstlal&#45;inspiral</title>
<path fill="none" stroke="black" d="M399.78,-334.63C417,-324.35 440.36,-309.92 460.13,-296 465.4,-292.29 548.32,-229.8 551.13,-224 560.75,-204.11 554.19,-179.39 546.25,-161.05"/>
<polygon fill="black" stroke="black" points="549.35,-159.41 541.93,-151.85 543.01,-162.39 549.35,-159.41"/>
</g>
<!-- gstlal&#45;calibration -->
<g id="node30" class="node">
<title>gstlal&#45;calibration</title>
<g id="a_node30"><a xlink:href="https://github.com/conda-forge/gstlal-calibration-feedstock" xlink:title="gstlal calibration">
<ellipse fill="#fde725" stroke="black" cx="282.13" cy="-206" rx="69.59" ry="18"/>
<text text-anchor="middle" x="282.13" y="-202.3" font-family="Times,serif" font-size="14.00">gstlal calibration</text>
</a>
</g>
</g>
<!-- pygobject&#45;&gt;gstlal&#45;calibration -->
<g id="edge53" class="edge">
<title>pygobject&#45;&gt;gstlal&#45;calibration</title>
<path fill="none" stroke="black" d="M354.81,-333.86C342.86,-324.12 328.17,-310.58 318.13,-296 304.97,-276.89 295.47,-252.24 289.55,-233.73"/>
<polygon fill="black" stroke="black" points="292.89,-232.7 286.63,-224.16 286.2,-234.74 292.89,-232.7"/>
</g>
<!-- gst&#45;python -->
<g id="node32" class="node">
<title>gst&#45;python</title>
<g id="a_node32"><a xlink:href="https://github.com/conda-forge/gst-python-feedstock" xlink:title="gst python">
<ellipse fill="#fde725" stroke="black" cx="375.13" cy="-278" rx="48.19" ry="18"/>
<text text-anchor="middle" x="375.13" y="-274.3" font-family="Times,serif" font-size="14.00">gst python</text>
</a>
</g>
</g>
<!-- pygobject&#45;&gt;gst&#45;python -->
<g id="edge54" class="edge">
<title>pygobject&#45;&gt;gst&#45;python</title>
<path fill="none" stroke="black" d="M375.13,-331.7C375.13,-323.98 375.13,-314.71 375.13,-306.11"/>
<polygon fill="black" stroke="black" points="378.63,-306.1 375.13,-296.1 371.63,-306.1 378.63,-306.1"/>
</g>
<!-- hkl -->
<g id="node33" class="node">
<title>hkl</title>
<g id="a_node33"><a xlink:href="https://github.com/conda-forge/hkl-feedstock" xlink:title="hkl">
<ellipse fill="#fde725" stroke="black" cx="244.13" cy="-278" rx="27" ry="18"/>
<text text-anchor="middle" x="244.13" y="-274.3" font-family="Times,serif" font-size="14.00">hkl</text>
</a>
</g>
</g>
<!-- pygobject&#45;&gt;hkl -->
<g id="edge55" class="edge">
<title>pygobject&#45;&gt;hkl</title>
<path fill="none" stroke="black" d="M349.25,-335.17C327.49,-323.54 296.39,-306.93 273.66,-294.78"/>
<polygon fill="black" stroke="black" points="275.26,-291.67 264.79,-290.04 271.96,-297.84 275.26,-291.67"/>
</g>
<!-- libmodulemd -->
<g id="node34" class="node">
<title>libmodulemd</title>
<g id="a_node34"><a xlink:href="https://github.com/conda-forge/libmodulemd-feedstock" xlink:title="libmodulemd">
<ellipse fill="#fde725" stroke="black" cx="97.13" cy="-206" rx="58.5" ry="18"/>
<text text-anchor="middle" x="97.13" y="-202.3" font-family="Times,serif" font-size="14.00">libmodulemd</text>
</a>
</g>
</g>
<!-- pygobject&#45;&gt;libmodulemd -->
<g id="edge56" class="edge">
<title>pygobject&#45;&gt;libmodulemd</title>
<path fill="none" stroke="black" d="M330.76,-345.54C286.96,-340.37 219.54,-327.56 170.13,-296 145.15,-280.05 124.62,-252.71 111.76,-232.54"/>
<polygon fill="black" stroke="black" points="114.62,-230.52 106.4,-223.84 108.66,-234.19 114.62,-230.52"/>
</g>
<!-- magics -->
<g id="node19" class="node">
<title>magics</title>
<g id="a_node19"><a xlink:href="https://github.com/conda-forge/magics-feedstock" xlink:title="magics">
<ellipse fill="#fde725" stroke="black" cx="1703.13" cy="-494" rx="36.5" ry="18"/>
<text text-anchor="middle" x="1703.13" y="-490.3" font-family="Times,serif" font-size="14.00">magics</text>
</a>
</g>
</g>
<!-- opencv -->
<g id="node20" class="node">
<title>opencv</title>
<g id="a_node20"><a xlink:href="https://github.com/conda-forge/opencv-feedstock" xlink:title="opencv">
<ellipse fill="#35b779" stroke="black" cx="1309.13" cy="-566" rx="36.5" ry="18"/>
<text text-anchor="middle" x="1309.13" y="-562.3" font-family="Times,serif" font-size="14.00">opencv</text>
</a>
</g>
</g>
<!-- opencv&#45;&gt;emacs -->
<g id="edge24" class="edge">
<title>opencv&#45;&gt;emacs</title>
<path fill="none" stroke="black" d="M1272.96,-563.28C1157.05,-556.89 798.83,-530.03 738.13,-440 729.18,-426.73 728.25,-416.58 738.13,-404 743.63,-396.99 853.16,-372.71 914.46,-359.58"/>
<polygon fill="black" stroke="black" points="915.53,-362.93 924.58,-357.42 914.07,-356.09 915.53,-362.93"/>
</g>
<!-- opencv&#45;&gt;gdk&#45;pixbuf -->
<g id="edge25" class="edge">
<title>opencv&#45;&gt;gdk&#45;pixbuf</title>
<path fill="none" stroke="black" d="M1287.15,-551.5C1270.39,-541.21 1247.04,-526.88 1228.06,-515.22"/>
<polygon fill="black" stroke="black" points="1229.76,-512.16 1219.41,-509.91 1226.1,-518.12 1229.76,-512.16"/>
</g>
<!-- opencv&#45;&gt;imagemagick -->
<g id="edge26" class="edge">
<title>opencv&#45;&gt;imagemagick</title>
<path fill="none" stroke="black" d="M1306.08,-547.85C1299.49,-510.75 1283.88,-422.81 1275.94,-378.1"/>
<polygon fill="black" stroke="black" points="1279.38,-377.47 1274.19,-368.23 1272.49,-378.69 1279.38,-377.47"/>
</g>
<!-- opencv&#45;&gt;gtk2 -->
<g id="edge27" class="edge">
<title>opencv&#45;&gt;gtk2</title>
<path fill="none" stroke="black" d="M1315.65,-548.15C1325.12,-523.71 1342.76,-478.17 1353.95,-449.29"/>
<polygon fill="black" stroke="black" points="1357.26,-450.41 1357.61,-439.82 1350.73,-447.89 1357.26,-450.41"/>
</g>
<!-- opencv&#45;&gt;openslide -->
<g id="edge28" class="edge">
<title>opencv&#45;&gt;openslide</title>
<path fill="none" stroke="black" d="M1275.47,-558.98C1239.54,-551.58 1181.76,-536.86 1137.13,-512 1105.95,-494.64 1075.87,-466.56 1056.56,-446.59"/>
<polygon fill="black" stroke="black" points="1058.88,-443.95 1049.46,-439.11 1053.8,-448.77 1058.88,-443.95"/>
</g>
<!-- opencv&#45;&gt;libvips -->
<g id="edge29" class="edge">
<title>opencv&#45;&gt;libvips</title>
<path fill="none" stroke="black" d="M1272.82,-563.73C1153.96,-559.3 781.64,-543.04 738.13,-512 668.88,-462.6 617.51,-396.35 673.13,-332 713.64,-285.13 902.6,-278.91 990.25,-278.61"/>
<polygon fill="black" stroke="black" points="990.43,-282.11 1000.42,-278.6 990.42,-275.11 990.43,-282.11"/>
</g>
<!-- opencv&#45;&gt;wxwidgets -->
<g id="edge30" class="edge">
<title>opencv&#45;&gt;wxwidgets</title>
<path fill="none" stroke="black" d="M1272.36,-565.04C1167.05,-564.58 866.42,-559.08 782.13,-512 746.97,-492.36 740.03,-478.15 727.13,-440 720.37,-420.04 721.94,-396.11 724.89,-378.1"/>
<polygon fill="black" stroke="black" points="728.33,-378.72 726.73,-368.25 721.45,-377.43 728.33,-378.72"/>
</g>
<!-- opencv&#45;&gt;gnuplot -->
<g id="edge31" class="edge">
<title>opencv&#45;&gt;gnuplot</title>
<path fill="none" stroke="black" d="M1345.52,-563.42C1384.38,-559.81 1445.31,-548.26 1482.13,-512 1518.73,-475.95 1529.59,-414 1532.8,-378.38"/>
<polygon fill="black" stroke="black" points="1536.3,-378.46 1533.57,-368.22 1529.32,-377.93 1536.3,-378.46"/>
</g>
<!-- opencv&#45;&gt;cadabra2 -->
<g id="edge44" class="edge">
<title>opencv&#45;&gt;cadabra2</title>
<path fill="none" stroke="black" d="M1329.38,-550.96C1380.05,-514.12 1504.38,-411.99 1449.13,-332 1429.2,-303.15 1391.4,-289.99 1360.1,-283.99"/>
<polygon fill="black" stroke="black" points="1360.64,-280.54 1350.19,-282.29 1359.45,-287.43 1360.64,-280.54"/>
</g>
<!-- opencv&#45;&gt;octave -->
<g id="edge32" class="edge">
<title>opencv&#45;&gt;octave</title>
<path fill="none" stroke="black" d="M1345.42,-564.03C1388.64,-561.08 1460.9,-550.26 1508.13,-512 1563.88,-466.83 1564.45,-437.79 1581.13,-368 1584.85,-352.44 1584.74,-347.59 1581.13,-332 1578.94,-322.57 1574.83,-312.88 1570.51,-304.41"/>
<polygon fill="black" stroke="black" points="1573.48,-302.56 1565.63,-295.45 1567.33,-305.9 1573.48,-302.56"/>
</g>
<!-- opencv&#45;&gt;magics -->
<g id="edge33" class="edge">
<title>opencv&#45;&gt;magics</title>
<path fill="none" stroke="black" d="M1344.57,-561.52C1407.23,-554.91 1541.44,-538.8 1652.13,-512 1656.31,-510.99 1660.64,-509.79 1664.93,-508.5"/>
<polygon fill="black" stroke="black" points="1666.3,-511.74 1674.78,-505.39 1664.19,-505.06 1666.3,-511.74"/>
</g>
<!-- poppler -->
<g id="node21" class="node">
<title>poppler</title>
<g id="a_node21"><a xlink:href="https://github.com/conda-forge/poppler-feedstock" xlink:title="poppler">
<ellipse fill="#fde725" stroke="black" cx="963.13" cy="-494" rx="37.89" ry="18"/>
<text text-anchor="middle" x="963.13" y="-490.3" font-family="Times,serif" font-size="14.00">poppler</text>
</a>
</g>
</g>
<!-- opencv&#45;&gt;poppler -->
<g id="edge34" class="edge">
<title>opencv&#45;&gt;poppler</title>
<path fill="none" stroke="black" d="M1275.95,-558.29C1213.24,-545.6 1077.31,-518.1 1007.09,-503.89"/>
<polygon fill="black" stroke="black" points="1007.72,-500.45 997.22,-501.9 1006.33,-507.31 1007.72,-500.45"/>
</g>
<!-- r&#45;base -->
<g id="node22" class="node">
<title>r&#45;base</title>
<g id="a_node22"><a xlink:href="https://github.com/conda-forge/r-base-feedstock" xlink:title="r base">
<ellipse fill="#fde725" stroke="black" cx="1746.13" cy="-422" rx="32" ry="18"/>
<text text-anchor="middle" x="1746.13" y="-418.3" font-family="Times,serif" font-size="14.00">r base</text>
</a>
</g>
</g>
<!-- opencv&#45;&gt;r&#45;base -->
<g id="edge35" class="edge">
<title>opencv&#45;&gt;r&#45;base</title>
<path fill="none" stroke="black" d="M1345.48,-563.34C1446.06,-558.37 1722.45,-542.08 1749.13,-512 1763.98,-495.25 1761.07,-468.99 1755.74,-449.32"/>
<polygon fill="black" stroke="black" points="1759.08,-448.27 1752.82,-439.73 1752.39,-450.31 1759.08,-448.27"/>
</g>
<!-- opencv&#45;&gt;numcosmo -->
<g id="edge36" class="edge">
<title>opencv&#45;&gt;numcosmo</title>
<path fill="none" stroke="black" d="M1272.5,-564.99C1133.01,-564.59 640.32,-559.79 591.13,-512 535.42,-457.88 549.47,-354.83 560.21,-305.98"/>
<polygon fill="black" stroke="black" points="563.64,-306.67 562.49,-296.14 556.82,-305.09 563.64,-306.67"/>
</g>
<!-- magics&#45;metview -->
<g id="node24" class="node">
<title>magics&#45;metview</title>
<g id="a_node24"><a xlink:href="https://github.com/conda-forge/magics-metview-feedstock" xlink:title="magics metview">
<ellipse fill="#fde725" stroke="black" cx="1776.13" cy="-350" rx="69.59" ry="18"/>
<text text-anchor="middle" x="1776.13" y="-346.3" font-family="Times,serif" font-size="14.00">magics metview</text>
</a>
</g>
</g>
<!-- opencv&#45;&gt;magics&#45;metview -->
<g id="edge37" class="edge">
<title>opencv&#45;&gt;magics&#45;metview</title>
<path fill="none" stroke="black" d="M1345.18,-563.15C1447.82,-557.57 1736.3,-539.57 1768.13,-512 1805.67,-479.48 1795,-414.67 1784.93,-377.97"/>
<polygon fill="black" stroke="black" points="1788.17,-376.6 1782.01,-367.98 1781.45,-378.56 1788.17,-376.6"/>
</g>
<!-- libignition&#45;common -->
<g id="node25" class="node">
<title>libignition&#45;common</title>
<g id="a_node25"><a xlink:href="https://github.com/conda-forge/libignition-common-feedstock" xlink:title="libignition common">
<ellipse fill="#fde725" stroke="black" cx="1874.13" cy="-278" rx="81.49" ry="18"/>
<text text-anchor="middle" x="1874.13" y="-274.3" font-family="Times,serif" font-size="14.00">libignition common</text>
</a>
</g>
</g>
<!-- opencv&#45;&gt;libignition&#45;common -->
<g id="edge38" class="edge">
<title>opencv&#45;&gt;libignition&#45;common</title>
<path fill="none" stroke="black" d="M1345.88,-565.59C1446.1,-566.48 1721.35,-564.02 1792.13,-512 1858.44,-463.26 1871.41,-356.65 1873.75,-306.33"/>
<polygon fill="black" stroke="black" points="1877.25,-306.32 1874.11,-296.21 1870.26,-306.07 1877.25,-306.32"/>
</g>
<!-- magics&#45;metview&#45;batch -->
<g id="node26" class="node">
<title>magics&#45;metview&#45;batch</title>
<g id="a_node26"><a xlink:href="https://github.com/conda-forge/magics-metview-batch-feedstock" xlink:title="magics metview batch">
<ellipse fill="#fde725" stroke="black" cx="1983.13" cy="-206" rx="91" ry="18"/>
<text text-anchor="middle" x="1983.13" y="-202.3" font-family="Times,serif" font-size="14.00">magics metview batch</text>
</a>
</g>
</g>
<!-- opencv&#45;&gt;magics&#45;metview&#45;batch -->
<g id="edge39" class="edge">
<title>opencv&#45;&gt;magics&#45;metview&#45;batch</title>
<path fill="none" stroke="black" d="M1345.84,-565.17C1486.49,-564.84 1983.13,-554.39 1983.13,-423 1983.13,-423 1983.13,-423 1983.13,-349 1983.13,-309 1983.13,-262.65 1983.13,-234.08"/>
<polygon fill="black" stroke="black" points="1986.63,-234.05 1983.13,-224.05 1979.63,-234.05 1986.63,-234.05"/>
</g>
<!-- opencv&#45;&gt;gstlal&#45;ugly -->
<g id="edge40" class="edge">
<title>opencv&#45;&gt;gstlal&#45;ugly</title>
<path fill="none" stroke="black" d="M1272.71,-563.76C1147.79,-559.24 741.71,-542.33 692.13,-512 659.94,-492.31 659.62,-475.61 647.13,-440 620.47,-364 675.03,-323.99 626.13,-260 607.56,-235.71 576.08,-222.52 548.52,-215.37"/>
<polygon fill="black" stroke="black" points="549.12,-211.91 538.58,-213 547.5,-218.72 549.12,-211.91"/>
</g>
<!-- opencv&#45;&gt;gstlal&#45;burst -->
<g id="edge41" class="edge">
<title>opencv&#45;&gt;gstlal&#45;burst</title>
<path fill="none" stroke="black" d="M1272.65,-564.92C1107.47,-564.29 428.72,-558.87 222.13,-512 122.47,-489.39 10.13,-525.19 10.13,-423 10.13,-423 10.13,-423 10.13,-277 10.13,-236.55 0,-216.06 29.13,-188 46.62,-171.15 192.25,-151.48 275.08,-141.51"/>
<polygon fill="black" stroke="black" points="275.58,-144.98 285.1,-140.32 274.76,-138.03 275.58,-144.98"/>
</g>
<!-- opencv&#45;&gt;gstlal&#45;inspiral -->
<g id="edge42" class="edge">
<title>opencv&#45;&gt;gstlal&#45;inspiral</title>
<path fill="none" stroke="black" d="M1345.91,-565.5C1431.76,-564.54 1638.13,-549.13 1638.13,-423 1638.13,-423 1638.13,-423 1638.13,-277 1638.13,-171.85 841.58,-142.9 600.46,-136.55"/>
<polygon fill="black" stroke="black" points="600.51,-133.05 590.42,-136.29 600.33,-140.05 600.51,-133.05"/>
</g>
<!-- opencv&#45;&gt;gstlal&#45;calibration -->
<g id="edge43" class="edge">
<title>opencv&#45;&gt;gstlal&#45;calibration</title>
<path fill="none" stroke="black" d="M1272.72,-564.48C1075.73,-561.17 146.13,-539.39 146.13,-423 146.13,-423 146.13,-423 146.13,-349 146.13,-292.99 202,-250.44 242.12,-227.11"/>
<polygon fill="black" stroke="black" points="243.93,-230.11 250.93,-222.15 240.5,-224.01 243.93,-230.11"/>
</g>
<!-- poppler&#45;&gt;libvips -->
<g id="edge45" class="edge">
<title>poppler&#45;&gt;libvips</title>
<path fill="none" stroke="black" d="M961.99,-475.77C960.2,-457.21 955.64,-427.21 944.13,-404 934.74,-385.09 920.47,-387.79 913.13,-368 907.56,-353 904.35,-345.38 913.13,-332 930.55,-305.43 964.49,-292.11 992.16,-285.47"/>
<polygon fill="black" stroke="black" points="993,-288.87 1002.03,-283.32 991.51,-282.03 993,-288.87"/>
</g>
<!-- pdf2svg -->
<g id="node31" class="node">
<title>pdf2svg</title>
<g id="a_node31"><a xlink:href="https://github.com/conda-forge/pdf2svg-feedstock" xlink:title="pdf2svg">
<ellipse fill="#fde725" stroke="black" cx="786.13" cy="-422" rx="39" ry="18"/>
<text text-anchor="middle" x="786.13" y="-418.3" font-family="Times,serif" font-size="14.00">pdf2svg</text>
</a>
</g>
</g>
<!-- poppler&#45;&gt;pdf2svg -->
<g id="edge46" class="edge">
<title>poppler&#45;&gt;pdf2svg</title>
<path fill="none" stroke="black" d="M935.08,-481.91C905.18,-470.08 857.65,-451.29 824.34,-438.11"/>
<polygon fill="black" stroke="black" points="825.51,-434.81 814.92,-434.39 822.93,-441.32 825.51,-434.81"/>
</g>
<!-- gstlal&#45;ugly&#45;&gt;gstlal&#45;burst -->
<g id="edge47" class="edge">
<title>gstlal&#45;ugly&#45;&gt;gstlal&#45;burst</title>
<path fill="none" stroke="black" d="M463.66,-191.83C437.8,-180.66 400.5,-164.55 372.23,-152.33"/>
<polygon fill="black" stroke="black" points="373.58,-149.1 363.01,-148.35 370.8,-155.52 373.58,-149.1"/>
</g>
<!-- gstlal&#45;ugly&#45;&gt;gstlal&#45;inspiral -->
<g id="edge48" class="edge">
<title>gstlal&#45;ugly&#45;&gt;gstlal&#45;inspiral</title>
<path fill="none" stroke="black" d="M503.33,-188.05C507.76,-179.89 513.17,-169.91 518.11,-160.82"/>
<polygon fill="black" stroke="black" points="521.32,-162.25 523.01,-151.79 515.17,-158.91 521.32,-162.25"/>
</g>
<!-- gst&#45;python&#45;&gt;gstlal&#45;ugly -->
<g id="edge57" class="edge">
<title>gst&#45;python&#45;&gt;gstlal&#45;ugly</title>
<path fill="none" stroke="black" d="M399.78,-262.5C417.41,-252.12 441.35,-238.05 460.7,-226.66"/>
<polygon fill="black" stroke="black" points="462.66,-229.57 469.5,-221.49 459.11,-223.54 462.66,-229.57"/>
</g>
<!-- gst&#45;python&#45;&gt;gstlal&#45;burst -->
<g id="edge58" class="edge">
<title>gst&#45;python&#45;&gt;gstlal&#45;burst</title>
<path fill="none" stroke="black" d="M374.18,-259.85C372.78,-241.62 369.35,-212.13 361.13,-188 357.95,-178.67 353.19,-169.04 348.45,-160.6"/>
<polygon fill="black" stroke="black" points="351.46,-158.82 343.38,-151.97 345.43,-162.36 351.46,-158.82"/>
</g>
<!-- gst&#45;python&#45;&gt;gstlal&#45;inspiral -->
<g id="edge59" class="edge">
<title>gst&#45;python&#45;&gt;gstlal&#45;inspiral</title>
<path fill="none" stroke="black" d="M383.75,-260.21C394.3,-240.92 413.67,-209.23 437.13,-188 452.49,-174.1 472.12,-162.38 489.55,-153.53"/>
<polygon fill="black" stroke="black" points="491.53,-156.45 498.97,-148.91 488.45,-150.17 491.53,-156.45"/>
</g>
<!-- gst&#45;python&#45;&gt;gstlal&#45;calibration -->
<g id="edge60" class="edge">
<title>gst&#45;python&#45;&gt;gstlal&#45;calibration</title>
<path fill="none" stroke="black" d="M354.49,-261.46C341.99,-252.06 325.84,-239.9 311.97,-229.46"/>
<polygon fill="black" stroke="black" points="313.77,-226.44 303.68,-223.22 309.56,-232.03 313.77,-226.44"/>
</g>
<!-- createrepo_c -->
<g id="node35" class="node">
<title>createrepo_c</title>
<g id="a_node35"><a xlink:href="https://github.com/conda-forge/createrepo_c-feedstock" xlink:title="createrepo_c">
<ellipse fill="#fde725" stroke="black" cx="97.13" cy="-134" rx="56" ry="18"/>
<text text-anchor="middle" x="97.13" y="-130.3" font-family="Times,serif" font-size="14.00">createrepo_c</text>
</a>
</g>
</g>
<!-- libmodulemd&#45;&gt;createrepo_c -->
<g id="edge61" class="edge">
<title>libmodulemd&#45;&gt;createrepo_c</title>
<path fill="none" stroke="black" d="M97.13,-187.7C97.13,-179.98 97.13,-170.71 97.13,-162.11"/>
<polygon fill="black" stroke="black" points="100.63,-162.1 97.13,-152.1 93.63,-162.1 100.63,-162.1"/>
</g>
<!-- libical -->
<g id="node37" class="node">
<title>libical</title>
<g id="a_node37"><a xlink:href="https://github.com/conda-forge/libical-feedstock/pull/8" xlink:title="libical ❎">
<ellipse fill="#31688e" stroke="black" cx="2340.13" cy="-242" rx="44.39" ry="18"/>
<text text-anchor="middle" x="2340.13" y="-238.3" font-family="Times,serif" font-size="14.00" fill="white">libical ❎</text>
</a>
</g>
</g>
<!-- cem&#45;&gt;libical -->
<!-- srm&#45;ifce -->
<g id="node38" class="node">
<title>srm&#45;ifce</title>
<g id="a_node38"><a xlink:href="https://github.com/conda-forge/srm-ifce-feedstock/pull/5" xlink:title="srm ifce ❎">
<ellipse fill="#31688e" stroke="black" cx="2180.13" cy="-458" rx="52" ry="18"/>
<text text-anchor="middle" x="2180.13" y="-454.3" font-family="Times,serif" font-size="14.00" fill="white">srm ifce ❎</text>
</a>
</g>
</g>
<!-- gfal2 -->
<g id="node39" class="node">
<title>gfal2</title>
<g id="a_node39"><a xlink:href="https://github.com/conda-forge/gfal2-feedstock" xlink:title="gfal2">
<ellipse fill="#fde725" stroke="black" cx="2180.13" cy="-386" rx="28.7" ry="18"/>
<text text-anchor="middle" x="2180.13" y="-382.3" font-family="Times,serif" font-size="14.00">gfal2</text>
</a>
</g>
</g>
<!-- srm&#45;ifce&#45;&gt;gfal2 -->
<g id="edge64" class="edge">
<title>srm&#45;ifce&#45;&gt;gfal2</title>
<path fill="none" stroke="black" d="M2180.13,-439.7C2180.13,-431.98 2180.13,-422.71 2180.13,-414.11"/>
<polygon fill="black" stroke="black" points="2183.63,-414.1 2180.13,-404.1 2176.63,-414.1 2183.63,-414.1"/>
</g>
<!-- python&#45;gfal2 -->
<g id="node40" class="node">
<title>python&#45;gfal2</title>
<g id="a_node40"><a xlink:href="https://github.com/conda-forge/python-gfal2-feedstock" xlink:title="python gfal2">
<ellipse fill="#fde725" stroke="black" cx="2138.13" cy="-314" rx="56" ry="18"/>
<text text-anchor="middle" x="2138.13" y="-310.3" font-family="Times,serif" font-size="14.00">python gfal2</text>
</a>
</g>
</g>
<!-- gfal2&#45;&gt;python&#45;gfal2 -->
<g id="edge65" class="edge">
<title>gfal2&#45;&gt;python&#45;gfal2</title>
<path fill="none" stroke="black" d="M2170.39,-368.76C2165.39,-360.44 2159.19,-350.1 2153.56,-340.73"/>
<polygon fill="black" stroke="black" points="2156.55,-338.9 2148.4,-332.12 2150.54,-342.5 2156.55,-338.9"/>
</g>
<!-- nordugrid&#45;arc -->
<g id="node41" class="node">
<title>nordugrid&#45;arc</title>
<g id="a_node41"><a xlink:href="https://github.com/conda-forge/nordugrid-arc-feedstock" xlink:title="nordugrid arc">
<ellipse fill="#fde725" stroke="black" cx="2222.13" cy="-242" rx="58.5" ry="18"/>
<text text-anchor="middle" x="2222.13" y="-238.3" font-family="Times,serif" font-size="14.00">nordugrid arc</text>
</a>
</g>
</g>
<!-- gfal2&#45;&gt;nordugrid&#45;arc -->
<g id="edge66" class="edge">
<title>gfal2&#45;&gt;nordugrid&#45;arc</title>
<path fill="none" stroke="black" d="M2188.25,-368.62C2193.1,-358.31 2199.09,-344.61 2203.13,-332 2209.66,-311.59 2214.6,-287.83 2217.81,-269.99"/>
<polygon fill="black" stroke="black" points="2221.28,-270.44 2219.54,-259.99 2214.38,-269.25 2221.28,-270.44"/>
</g>
<!-- gcab -->
<g id="node42" class="node">
<title>gcab</title>
<g id="a_node42"><a xlink:href="https://github.com/conda-forge/gcab-feedstock/pull/5" xlink:title="gcab ✓">
<ellipse fill="#31688e" stroke="black" cx="1037.13" cy="-90" rx="37.89" ry="18"/>
<text text-anchor="middle" x="1037.13" y="-86.3" font-family="Times,serif" font-size="14.00" fill="white">gcab ✓</text>
</a>
</g>
</g>
<!-- msitools -->
<g id="node43" class="node">
<title>msitools</title>
<g id="a_node43"><a xlink:href="https://github.com/conda-forge/msitools-feedstock" xlink:title="msitools">
<ellipse fill="#fde725" stroke="black" cx="1037.13" cy="-18" rx="41" ry="18"/>
<text text-anchor="middle" x="1037.13" y="-14.3" font-family="Times,serif" font-size="14.00">msitools</text>
</a>
</g>
</g>
<!-- gcab&#45;&gt;msitools -->
<g id="edge67" class="edge">
<title>gcab&#45;&gt;msitools</title>
<path fill="none" stroke="black" d="M1037.13,-71.7C1037.13,-63.98 1037.13,-54.71 1037.13,-46.11"/>
<polygon fill="black" stroke="black" points="1040.63,-46.1 1037.13,-36.1 1033.63,-46.1 1040.63,-46.1"/>
</g>
</g>
</svg>
