<?xml version="1.0" encoding="UTF-8" standalone="no"?>
<!DOCTYPE svg PUBLIC "-//W3C//DTD SVG 1.1//EN"
 "http://www.w3.org/Graphics/SVG/1.1/DTD/svg11.dtd">
<!-- Generated by graphviz version 2.42.3 (20191010.1750)
 -->
<!-- Title: %3 Pages: 1 -->
<svg width="1485pt" height="808pt"
 viewBox="0.00 0.00 1485.05 808.00" xmlns="http://www.w3.org/2000/svg" xmlns:xlink="http://www.w3.org/1999/xlink">
<g id="graph0" class="graph" transform="scale(1 1) rotate(0) translate(4 804)">
<title>%3</title>
<polygon fill="white" stroke="transparent" points="-4,4 -4,-804 1481.05,-804 1481.05,4 -4,4"/>
<!-- cyclus -->
<g id="node1" class="node">
<title>cyclus</title>
<g id="a_node1"><a xlink:href="https://github.com/conda-forge/cyclus-feedstock/pull/59" xlink:title="cyclus ❎">
<ellipse fill="#31688e" stroke="black" cx="1425.05" cy="-782" rx="45" ry="18"/>
<text text-anchor="middle" x="1425.05" y="-778.3" font-family="Times,serif" font-size="14.00" fill="white">cyclus ❎</text>
</a>
</g>
</g>
<!-- magics -->
<g id="node2" class="node">
<title>magics</title>
<g id="a_node2"><a xlink:href="https://github.com/conda-forge/magics-feedstock/pull/84" xlink:title="magics ❎">
<ellipse fill="#31688e" stroke="black" cx="1425.05" cy="-710" rx="48.19" ry="18"/>
<text text-anchor="middle" x="1425.05" y="-706.3" font-family="Times,serif" font-size="14.00" fill="white">magics ❎</text>
</a>
</g>
</g>
<!-- cyclus&#45;&gt;magics -->
<!-- r&#45;base -->
<g id="node9" class="node">
<title>r&#45;base</title>
<g id="a_node9"><a xlink:href="https://github.com/conda-forge/r-base-feedstock" xlink:title="r base">
<ellipse fill="#ff8c00" stroke="black" cx="1425.05" cy="-638" rx="32" ry="18"/>
<text text-anchor="middle" x="1425.05" y="-634.3" font-family="Times,serif" font-size="14.00">r base</text>
</a>
</g>
</g>
<!-- magics&#45;&gt;r&#45;base -->
<!-- emacs -->
<g id="node3" class="node">
<title>emacs</title>
<g id="a_node3"><a xlink:href="https://github.com/conda-forge/emacs-feedstock" xlink:title="emacs">
<ellipse fill="#fde725" stroke="black" cx="723.05" cy="-530" rx="33.29" ry="18"/>
<text text-anchor="middle" x="723.05" y="-526.3" font-family="Times,serif" font-size="14.00">emacs</text>
</a>
</g>
</g>
<!-- gnuplot -->
<g id="node4" class="node">
<title>gnuplot</title>
<g id="a_node4"><a xlink:href="https://github.com/conda-forge/gnuplot-feedstock" xlink:title="gnuplot">
<ellipse fill="#fde725" stroke="black" cx="1228.05" cy="-530" rx="37.89" ry="18"/>
<text text-anchor="middle" x="1228.05" y="-526.3" font-family="Times,serif" font-size="14.00">gnuplot</text>
</a>
</g>
</g>
<!-- octave -->
<g id="node5" class="node">
<title>octave</title>
<g id="a_node5"><a xlink:href="https://github.com/conda-forge/octave-feedstock" xlink:title="octave">
<ellipse fill="#fde725" stroke="black" cx="1221.05" cy="-458" rx="34" ry="18"/>
<text text-anchor="middle" x="1221.05" y="-454.3" font-family="Times,serif" font-size="14.00">octave</text>
</a>
</g>
</g>
<!-- gnuplot&#45;&gt;octave -->
<g id="edge2" class="edge">
<title>gnuplot&#45;&gt;octave</title>
<path fill="none" stroke="black" d="M1226.32,-511.7C1225.54,-503.98 1224.62,-494.71 1223.76,-486.11"/>
<polygon fill="black" stroke="black" points="1227.23,-485.71 1222.76,-476.1 1220.27,-486.4 1227.23,-485.71"/>
</g>
<!-- imagemagick -->
<g id="node6" class="node">
<title>imagemagick</title>
<g id="a_node6"><a xlink:href="https://github.com/conda-forge/imagemagick-feedstock" xlink:title="imagemagick">
<ellipse fill="#fde725" stroke="black" cx="871.05" cy="-530" rx="59.29" ry="18"/>
<text text-anchor="middle" x="871.05" y="-526.3" font-family="Times,serif" font-size="14.00">imagemagick</text>
</a>
</g>
</g>
<!-- libvips -->
<g id="node7" class="node">
<title>libvips</title>
<g id="a_node7"><a xlink:href="https://github.com/conda-forge/libvips-feedstock" xlink:title="libvips">
<ellipse fill="#fde725" stroke="black" cx="937.05" cy="-458" rx="34.5" ry="18"/>
<text text-anchor="middle" x="937.05" y="-454.3" font-family="Times,serif" font-size="14.00">libvips</text>
</a>
</g>
</g>
<!-- imagemagick&#45;&gt;libvips -->
<g id="edge3" class="edge">
<title>imagemagick&#45;&gt;libvips</title>
<path fill="none" stroke="black" d="M886.69,-512.41C895.23,-503.35 905.94,-491.99 915.29,-482.08"/>
<polygon fill="black" stroke="black" points="918.11,-484.19 922.42,-474.51 913.01,-479.39 918.11,-484.19"/>
</g>
<!-- librsvg -->
<g id="node8" class="node">
<title>librsvg</title>
<g id="a_node8"><a xlink:href="https://github.com/conda-forge/librsvg-feedstock/pull/63" xlink:title="librsvg ❎">
<ellipse fill="#31688e" stroke="black" cx="784.05" cy="-602" rx="47" ry="18"/>
<text text-anchor="middle" x="784.05" y="-598.3" font-family="Times,serif" font-size="14.00" fill="white">librsvg ❎</text>
</a>
</g>
</g>
<!-- librsvg&#45;&gt;emacs -->
<g id="edge4" class="edge">
<title>librsvg&#45;&gt;emacs</title>
<path fill="none" stroke="black" d="M769.9,-584.76C762.01,-575.71 752.05,-564.29 743.35,-554.3"/>
<polygon fill="black" stroke="black" points="745.91,-551.91 736.7,-546.67 740.63,-556.5 745.91,-551.91"/>
</g>
<!-- librsvg&#45;&gt;imagemagick -->
<g id="edge5" class="edge">
<title>librsvg&#45;&gt;imagemagick</title>
<path fill="none" stroke="black" d="M803.35,-585.46C815.02,-576.08 830.08,-563.96 843.04,-553.54"/>
<polygon fill="black" stroke="black" points="845.59,-555.97 851.19,-546.98 841.2,-550.52 845.59,-555.97"/>
</g>
<!-- librsvg&#45;&gt;libvips -->
<g id="edge6" class="edge">
<title>librsvg&#45;&gt;libvips</title>
<path fill="none" stroke="black" d="M783.16,-583.86C783.08,-564.26 785.9,-532.26 803.05,-512 825.74,-485.18 863.86,-471.83 893.66,-465.25"/>
<polygon fill="black" stroke="black" points="894.7,-468.61 903.81,-463.2 893.31,-461.75 894.7,-468.61"/>
</g>
<!-- libsecret -->
<g id="node22" class="node">
<title>libsecret</title>
<g id="a_node22"><a xlink:href="https://github.com/conda-forge/libsecret-feedstock/pull/4" xlink:title="libsecret ❎">
<ellipse fill="#31688e" stroke="black" cx="1425.05" cy="-566" rx="52" ry="18"/>
<text text-anchor="middle" x="1425.05" y="-562.3" font-family="Times,serif" font-size="14.00" fill="white">libsecret ❎</text>
</a>
</g>
</g>
<!-- r&#45;base&#45;&gt;libsecret -->
<!-- poppler -->
<g id="node10" class="node">
<title>poppler</title>
<g id="a_node10"><a xlink:href="https://github.com/conda-forge/poppler-feedstock/pull/78" xlink:title="poppler ✓">
<ellipse fill="#31688e" stroke="black" cx="1124.05" cy="-530" rx="48.19" ry="18"/>
<text text-anchor="middle" x="1124.05" y="-526.3" font-family="Times,serif" font-size="14.00" fill="white">poppler ✓</text>
</a>
</g>
</g>
<!-- poppler&#45;&gt;libvips -->
<g id="edge8" class="edge">
<title>poppler&#45;&gt;libvips</title>
<path fill="none" stroke="black" d="M1091.04,-516.65C1058.22,-504.36 1007.95,-485.54 973.85,-472.78"/>
<polygon fill="black" stroke="black" points="974.85,-469.41 964.26,-469.19 972.39,-475.97 974.85,-469.41"/>
</g>
<!-- pdf2svg -->
<g id="node11" class="node">
<title>pdf2svg</title>
<g id="a_node11"><a xlink:href="https://github.com/conda-forge/pdf2svg-feedstock" xlink:title="pdf2svg">
<ellipse fill="#fde725" stroke="black" cx="1124.05" cy="-458" rx="39" ry="18"/>
<text text-anchor="middle" x="1124.05" y="-454.3" font-family="Times,serif" font-size="14.00">pdf2svg</text>
</a>
</g>
</g>
<!-- poppler&#45;&gt;pdf2svg -->
<g id="edge9" class="edge">
<title>poppler&#45;&gt;pdf2svg</title>
<path fill="none" stroke="black" d="M1124.05,-511.7C1124.05,-503.98 1124.05,-494.71 1124.05,-486.11"/>
<polygon fill="black" stroke="black" points="1127.55,-486.1 1124.05,-476.1 1120.55,-486.1 1127.55,-486.1"/>
</g>
<!-- pygobject -->
<g id="node12" class="node">
<title>pygobject</title>
<g id="a_node12"><a xlink:href="https://github.com/conda-forge/pygobject-feedstock" xlink:title="pygobject">
<ellipse fill="#35b779" stroke="black" cx="361.05" cy="-674" rx="45.5" ry="18"/>
<text text-anchor="middle" x="361.05" y="-670.3" font-family="Times,serif" font-size="14.00">pygobject</text>
</a>
</g>
</g>
<!-- numcosmo -->
<g id="node13" class="node">
<title>numcosmo</title>
<g id="a_node13"><a xlink:href="https://github.com/conda-forge/numcosmo-feedstock" xlink:title="numcosmo">
<ellipse fill="#fde725" stroke="black" cx="50.05" cy="-602" rx="50.09" ry="18"/>
<text text-anchor="middle" x="50.05" y="-598.3" font-family="Times,serif" font-size="14.00">numcosmo</text>
</a>
</g>
</g>
<!-- pygobject&#45;&gt;numcosmo -->
<g id="edge10" class="edge">
<title>pygobject&#45;&gt;numcosmo</title>
<path fill="none" stroke="black" d="M321.13,-665.05C272.18,-655.16 186.76,-637.45 114.05,-620 109,-618.79 103.75,-617.48 98.52,-616.14"/>
<polygon fill="black" stroke="black" points="99.11,-612.68 88.55,-613.55 97.35,-619.45 99.11,-612.68"/>
</g>
<!-- gst&#45;python -->
<g id="node14" class="node">
<title>gst&#45;python</title>
<g id="a_node14"><a xlink:href="https://github.com/conda-forge/gst-python-feedstock" xlink:title="gst python">
<ellipse fill="#fde725" stroke="black" cx="318.05" cy="-602" rx="48.19" ry="18"/>
<text text-anchor="middle" x="318.05" y="-598.3" font-family="Times,serif" font-size="14.00">gst python</text>
</a>
</g>
</g>
<!-- pygobject&#45;&gt;gst&#45;python -->
<g id="edge11" class="edge">
<title>pygobject&#45;&gt;gst&#45;python</title>
<path fill="none" stroke="black" d="M350.86,-656.41C345.74,-648.08 339.42,-637.8 333.7,-628.49"/>
<polygon fill="black" stroke="black" points="336.68,-626.65 328.46,-619.96 330.71,-630.31 336.68,-626.65"/>
</g>
<!-- gstlal&#45;ugly -->
<g id="node15" class="node">
<title>gstlal&#45;ugly</title>
<g id="a_node15"><a xlink:href="https://github.com/conda-forge/gstlal-ugly-feedstock" xlink:title="gstlal ugly">
<ellipse fill="#fde725" stroke="black" cx="204.05" cy="-530" rx="48.19" ry="18"/>
<text text-anchor="middle" x="204.05" y="-526.3" font-family="Times,serif" font-size="14.00">gstlal ugly</text>
</a>
</g>
</g>
<!-- pygobject&#45;&gt;gstlal&#45;ugly -->
<g id="edge12" class="edge">
<title>pygobject&#45;&gt;gstlal&#45;ugly</title>
<path fill="none" stroke="black" d="M329.15,-661.11C308.09,-652.13 280.85,-638.24 261.05,-620 241.65,-602.14 226.07,-576.28 216.13,-557.03"/>
<polygon fill="black" stroke="black" points="219.18,-555.31 211.58,-547.92 212.91,-558.43 219.18,-555.31"/>
</g>
<!-- gstlal&#45;burst -->
<g id="node16" class="node">
<title>gstlal&#45;burst</title>
<g id="a_node16"><a xlink:href="https://github.com/conda-forge/gstlal-burst-feedstock" xlink:title="gstlal burst">
<ellipse fill="#fde725" stroke="black" cx="197.05" cy="-458" rx="50.09" ry="18"/>
<text text-anchor="middle" x="197.05" y="-454.3" font-family="Times,serif" font-size="14.00">gstlal burst</text>
</a>
</g>
</g>
<!-- pygobject&#45;&gt;gstlal&#45;burst -->
<g id="edge13" class="edge">
<title>pygobject&#45;&gt;gstlal&#45;burst</title>
<path fill="none" stroke="black" d="M321.85,-664.6C269.11,-650.82 178.33,-617.67 147.05,-548 140.49,-533.4 141.14,-526.87 147.05,-512 151.63,-500.45 160.06,-489.96 168.71,-481.42"/>
<polygon fill="black" stroke="black" points="171.3,-483.79 176.27,-474.44 166.55,-478.65 171.3,-483.79"/>
</g>
<!-- gstlal&#45;inspiral -->
<g id="node17" class="node">
<title>gstlal&#45;inspiral</title>
<g id="a_node17"><a xlink:href="https://github.com/conda-forge/gstlal-inspiral-feedstock" xlink:title="gstlal inspiral">
<ellipse fill="#fde725" stroke="black" cx="324.05" cy="-458" rx="58.5" ry="18"/>
<text text-anchor="middle" x="324.05" y="-454.3" font-family="Times,serif" font-size="14.00">gstlal inspiral</text>
</a>
</g>
</g>
<!-- pygobject&#45;&gt;gstlal&#45;inspiral -->
<g id="edge14" class="edge">
<title>pygobject&#45;&gt;gstlal&#45;inspiral</title>
<path fill="none" stroke="black" d="M388.18,-659.24C438.37,-631.97 536.9,-568.79 495.05,-512 471.62,-480.21 429.32,-466.92 392.66,-461.6"/>
<polygon fill="black" stroke="black" points="392.85,-458.09 382.49,-460.3 391.97,-465.04 392.85,-458.09"/>
</g>
<!-- gstlal&#45;calibration -->
<g id="node18" class="node">
<title>gstlal&#45;calibration</title>
<g id="a_node18"><a xlink:href="https://github.com/conda-forge/gstlal-calibration-feedstock" xlink:title="gstlal calibration">
<ellipse fill="#fde725" stroke="black" cx="416.05" cy="-530" rx="69.59" ry="18"/>
<text text-anchor="middle" x="416.05" y="-526.3" font-family="Times,serif" font-size="14.00">gstlal calibration</text>
</a>
</g>
</g>
<!-- pygobject&#45;&gt;gstlal&#45;calibration -->
<g id="edge15" class="edge">
<title>pygobject&#45;&gt;gstlal&#45;calibration</title>
<path fill="none" stroke="black" d="M367.57,-656.15C376.99,-631.84 394.49,-586.66 405.68,-557.75"/>
<polygon fill="black" stroke="black" points="409.01,-558.86 409.36,-548.27 402.48,-556.33 409.01,-558.86"/>
</g>
<!-- hkl -->
<g id="node19" class="node">
<title>hkl</title>
<g id="a_node19"><a xlink:href="https://github.com/conda-forge/hkl-feedstock" xlink:title="hkl">
<ellipse fill="#fde725" stroke="black" cx="569.05" cy="-530" rx="27" ry="18"/>
<text text-anchor="middle" x="569.05" y="-526.3" font-family="Times,serif" font-size="14.00">hkl</text>
</a>
</g>
</g>
<!-- pygobject&#45;&gt;hkl -->
<g id="edge16" class="edge">
<title>pygobject&#45;&gt;hkl</title>
<path fill="none" stroke="black" d="M404.9,-668.91C441.7,-663.37 493.61,-650.4 528.05,-620 546.51,-603.7 557.2,-577.38 563.01,-557.58"/>
<polygon fill="black" stroke="black" points="566.39,-558.47 565.61,-547.9 559.63,-556.65 566.39,-558.47"/>
</g>
<!-- libmodulemd -->
<g id="node20" class="node">
<title>libmodulemd</title>
<g id="a_node20"><a xlink:href="https://github.com/conda-forge/libmodulemd-feedstock" xlink:title="libmodulemd">
<ellipse fill="#fde725" stroke="black" cx="624.05" cy="-458" rx="58.5" ry="18"/>
<text text-anchor="middle" x="624.05" y="-454.3" font-family="Times,serif" font-size="14.00">libmodulemd</text>
</a>
</g>
</g>
<!-- pygobject&#45;&gt;libmodulemd -->
<g id="edge17" class="edge">
<title>pygobject&#45;&gt;libmodulemd</title>
<path fill="none" stroke="black" d="M405.56,-669.55C447.46,-664.4 510.28,-651.64 555.05,-620 599.12,-588.85 615.25,-523.51 620.99,-486.36"/>
<polygon fill="black" stroke="black" points="624.49,-486.63 622.41,-476.24 617.56,-485.66 624.49,-486.63"/>
</g>
<!-- gst&#45;python&#45;&gt;gstlal&#45;ugly -->
<g id="edge18" class="edge">
<title>gst&#45;python&#45;&gt;gstlal&#45;ugly</title>
<path fill="none" stroke="black" d="M294.15,-586.33C277.43,-576.06 254.89,-562.22 236.54,-550.95"/>
<polygon fill="black" stroke="black" points="238.27,-547.91 227.91,-545.65 234.6,-553.87 238.27,-547.91"/>
</g>
<!-- gst&#45;python&#45;&gt;gstlal&#45;burst -->
<g id="edge19" class="edge">
<title>gst&#45;python&#45;&gt;gstlal&#45;burst</title>
<path fill="none" stroke="black" d="M309.35,-584.19C299.2,-565.46 281.23,-534.81 261.05,-512 250.97,-500.61 238.34,-489.61 226.97,-480.62"/>
<polygon fill="black" stroke="black" points="229.02,-477.78 218.96,-474.45 224.74,-483.32 229.02,-477.78"/>
</g>
<!-- gst&#45;python&#45;&gt;gstlal&#45;inspiral -->
<g id="edge20" class="edge">
<title>gst&#45;python&#45;&gt;gstlal&#45;inspiral</title>
<path fill="none" stroke="black" d="M318.77,-583.87C319.79,-559.67 321.67,-515.21 322.89,-486.39"/>
<polygon fill="black" stroke="black" points="326.39,-486.33 323.32,-476.19 319.4,-486.03 326.39,-486.33"/>
</g>
<!-- gst&#45;python&#45;&gt;gstlal&#45;calibration -->
<g id="edge21" class="edge">
<title>gst&#45;python&#45;&gt;gstlal&#45;calibration</title>
<path fill="none" stroke="black" d="M339.31,-585.81C352.67,-576.26 370.14,-563.79 385.04,-553.15"/>
<polygon fill="black" stroke="black" points="387.36,-555.79 393.46,-547.13 383.29,-550.1 387.36,-555.79"/>
</g>
<!-- gstlal&#45;ugly&#45;&gt;gstlal&#45;burst -->
<g id="edge22" class="edge">
<title>gstlal&#45;ugly&#45;&gt;gstlal&#45;burst</title>
<path fill="none" stroke="black" d="M202.32,-511.7C201.54,-503.98 200.62,-494.71 199.76,-486.11"/>
<polygon fill="black" stroke="black" points="203.23,-485.71 198.76,-476.1 196.27,-486.4 203.23,-485.71"/>
</g>
<!-- gstlal&#45;ugly&#45;&gt;gstlal&#45;inspiral -->
<g id="edge23" class="edge">
<title>gstlal&#45;ugly&#45;&gt;gstlal&#45;inspiral</title>
<path fill="none" stroke="black" d="M228.91,-514.5C246.33,-504.33 269.86,-490.61 289.16,-479.35"/>
<polygon fill="black" stroke="black" points="291.09,-482.27 297.97,-474.21 287.57,-476.23 291.09,-482.27"/>
</g>
<!-- createrepo_c -->
<g id="node21" class="node">
<title>createrepo_c</title>
<g id="a_node21"><a xlink:href="https://github.com/conda-forge/createrepo_c-feedstock" xlink:title="createrepo_c">
<ellipse fill="#fde725" stroke="black" cx="624.05" cy="-386" rx="56" ry="18"/>
<text text-anchor="middle" x="624.05" y="-382.3" font-family="Times,serif" font-size="14.00">createrepo_c</text>
</a>
</g>
</g>
<!-- libmodulemd&#45;&gt;createrepo_c -->
<g id="edge24" class="edge">
<title>libmodulemd&#45;&gt;createrepo_c</title>
<path fill="none" stroke="black" d="M624.05,-439.7C624.05,-431.98 624.05,-422.71 624.05,-414.11"/>
<polygon fill="black" stroke="black" points="627.55,-414.1 624.05,-404.1 620.55,-414.1 627.55,-414.1"/>
</g>
<!-- cem -->
<g id="node25" class="node">
<title>cem</title>
<g id="a_node25"><a xlink:href="https://github.com/conda-forge/cem-feedstock/pull/5" xlink:title="cem ❎">
<ellipse fill="#31688e" stroke="black" cx="1425.05" cy="-494" rx="37.89" ry="18"/>
<text text-anchor="middle" x="1425.05" y="-490.3" font-family="Times,serif" font-size="14.00" fill="white">cem ❎</text>
</a>
</g>
</g>
<!-- libsecret&#45;&gt;cem -->
<!-- wxpython -->
<g id="node23" class="node">
<title>wxpython</title>
<g id="a_node23"><a xlink:href="https://github.com/conda-forge/wxpython-feedstock" xlink:title="wxpython">
<ellipse fill="#fde725" stroke="black" cx="1319.05" cy="-458" rx="46.29" ry="18"/>
<text text-anchor="middle" x="1319.05" y="-454.3" font-family="Times,serif" font-size="14.00">wxpython</text>
</a>
</g>
</g>
<!-- gtk2 -->
<g id="node24" class="node">
<title>gtk2</title>
<g id="a_node24"><a xlink:href="https://github.com/conda-forge/gtk2-feedstock/pull/18" xlink:title="gtk2 ✓">
<ellipse fill="#31688e" stroke="black" cx="1228.05" cy="-602" rx="36.5" ry="18"/>
<text text-anchor="middle" x="1228.05" y="-598.3" font-family="Times,serif" font-size="14.00" fill="white">gtk2 ✓</text>
</a>
</g>
</g>
<!-- gtk2&#45;&gt;gnuplot -->
<g id="edge26" class="edge">
<title>gtk2&#45;&gt;gnuplot</title>
<path fill="none" stroke="black" d="M1228.05,-583.7C1228.05,-575.98 1228.05,-566.71 1228.05,-558.11"/>
<polygon fill="black" stroke="black" points="1231.55,-558.1 1228.05,-548.1 1224.55,-558.1 1231.55,-558.1"/>
</g>
<!-- gtk2&#45;&gt;imagemagick -->
<g id="edge27" class="edge">
<title>gtk2&#45;&gt;imagemagick</title>
<path fill="none" stroke="black" d="M1193.65,-595.42C1139.35,-586.45 1030.53,-567.8 939.05,-548 934.31,-546.98 929.41,-545.86 924.5,-544.7"/>
<polygon fill="black" stroke="black" points="925.02,-541.23 914.48,-542.3 923.39,-548.04 925.02,-541.23"/>
</g>
<!-- gtk2&#45;&gt;wxpython -->
<g id="edge28" class="edge">
<title>gtk2&#45;&gt;wxpython</title>
<path fill="none" stroke="black" d="M1243.63,-585.68C1253.4,-575.55 1265.85,-561.67 1275.05,-548 1288.36,-528.21 1300.14,-503.81 1308.15,-485.57"/>
<polygon fill="black" stroke="black" points="1311.47,-486.7 1312.2,-476.13 1305.04,-483.94 1311.47,-486.7"/>
</g>
<!-- libical -->
<g id="node26" class="node">
<title>libical</title>
<g id="a_node26"><a xlink:href="https://github.com/conda-forge/libical-feedstock/pull/8" xlink:title="libical ❎">
<ellipse fill="#31688e" stroke="black" cx="1425.05" cy="-422" rx="44.39" ry="18"/>
<text text-anchor="middle" x="1425.05" y="-418.3" font-family="Times,serif" font-size="14.00" fill="white">libical ❎</text>
</a>
</g>
</g>
<!-- cem&#45;&gt;libical -->
<!-- stoken -->
<g id="node31" class="node">
<title>stoken</title>
<g id="a_node31"><a xlink:href="https://github.com/conda-forge/stoken-feedstock" xlink:title="stoken">
<ellipse fill="#35b779" stroke="black" cx="1425.05" cy="-350" rx="34" ry="18"/>
<text text-anchor="middle" x="1425.05" y="-346.3" font-family="Times,serif" font-size="14.00">stoken</text>
</a>
</g>
</g>
<!-- libical&#45;&gt;stoken -->
<!-- srm&#45;ifce -->
<g id="node27" class="node">
<title>srm&#45;ifce</title>
<g id="a_node27"><a xlink:href="https://github.com/conda-forge/srm-ifce-feedstock/pull/5" xlink:title="srm ifce ❎">
<ellipse fill="#31688e" stroke="black" cx="340.05" cy="-234" rx="52" ry="18"/>
<text text-anchor="middle" x="340.05" y="-230.3" font-family="Times,serif" font-size="14.00" fill="white">srm ifce ❎</text>
</a>
</g>
</g>
<!-- gfal2 -->
<g id="node28" class="node">
<title>gfal2</title>
<g id="a_node28"><a xlink:href="https://github.com/conda-forge/gfal2-feedstock" xlink:title="gfal2">
<ellipse fill="#fde725" stroke="black" cx="340.05" cy="-162" rx="28.7" ry="18"/>
<text text-anchor="middle" x="340.05" y="-158.3" font-family="Times,serif" font-size="14.00">gfal2</text>
</a>
</g>
</g>
<!-- srm&#45;ifce&#45;&gt;gfal2 -->
<g id="edge31" class="edge">
<title>srm&#45;ifce&#45;&gt;gfal2</title>
<path fill="none" stroke="black" d="M340.05,-215.7C340.05,-207.98 340.05,-198.71 340.05,-190.11"/>
<polygon fill="black" stroke="black" points="343.55,-190.1 340.05,-180.1 336.55,-190.1 343.55,-190.1"/>
</g>
<!-- python&#45;gfal2 -->
<g id="node29" class="node">
<title>python&#45;gfal2</title>
<g id="a_node29"><a xlink:href="https://github.com/conda-forge/python-gfal2-feedstock" xlink:title="python gfal2">
<ellipse fill="#fde725" stroke="black" cx="298.05" cy="-90" rx="56" ry="18"/>
<text text-anchor="middle" x="298.05" y="-86.3" font-family="Times,serif" font-size="14.00">python gfal2</text>
</a>
</g>
</g>
<!-- gfal2&#45;&gt;python&#45;gfal2 -->
<g id="edge32" class="edge">
<title>gfal2&#45;&gt;python&#45;gfal2</title>
<path fill="none" stroke="black" d="M330.3,-144.76C325.31,-136.44 319.11,-126.1 313.48,-116.73"/>
<polygon fill="black" stroke="black" points="316.47,-114.9 308.32,-108.12 310.46,-118.5 316.47,-114.9"/>
</g>
<!-- nordugrid&#45;arc -->
<g id="node30" class="node">
<title>nordugrid&#45;arc</title>
<g id="a_node30"><a xlink:href="https://github.com/conda-forge/nordugrid-arc-feedstock" xlink:title="nordugrid arc">
<ellipse fill="#fde725" stroke="black" cx="382.05" cy="-18" rx="58.5" ry="18"/>
<text text-anchor="middle" x="382.05" y="-14.3" font-family="Times,serif" font-size="14.00">nordugrid arc</text>
</a>
</g>
</g>
<!-- gfal2&#45;&gt;nordugrid&#45;arc -->
<g id="edge33" class="edge">
<title>gfal2&#45;&gt;nordugrid&#45;arc</title>
<path fill="none" stroke="black" d="M348.16,-144.62C353.02,-134.31 359.01,-120.61 363.05,-108 369.58,-87.59 374.52,-63.83 377.73,-45.99"/>
<polygon fill="black" stroke="black" points="381.2,-46.44 379.45,-35.99 374.3,-45.25 381.2,-46.44"/>
</g>
<!-- wxwidgets -->
<g id="node37" class="node">
<title>wxwidgets</title>
<g id="a_node37"><a xlink:href="https://github.com/conda-forge/wxwidgets-feedstock" xlink:title="wxwidgets">
<ellipse fill="#35b779" stroke="black" cx="1425.05" cy="-278" rx="48.99" ry="18"/>
<text text-anchor="middle" x="1425.05" y="-274.3" font-family="Times,serif" font-size="14.00">wxwidgets</text>
</a>
</g>
</g>
<!-- stoken&#45;&gt;wxwidgets -->
<!-- openslide -->
<g id="node32" class="node">
<title>openslide</title>
<g id="a_node32"><a xlink:href="https://github.com/conda-forge/openslide-feedstock/pull/3" xlink:title="openslide ✓">
<ellipse fill="#31688e" stroke="black" cx="1003.05" cy="-530" rx="54.69" ry="18"/>
<text text-anchor="middle" x="1003.05" y="-526.3" font-family="Times,serif" font-size="14.00" fill="white">openslide ✓</text>
</a>
</g>
</g>
<!-- openslide&#45;&gt;libvips -->
<g id="edge35" class="edge">
<title>openslide&#45;&gt;libvips</title>
<path fill="none" stroke="black" d="M987.4,-512.41C978.86,-503.35 968.15,-491.99 958.8,-482.08"/>
<polygon fill="black" stroke="black" points="961.08,-479.39 951.67,-474.51 955.98,-484.19 961.08,-479.39"/>
</g>
<!-- gcab -->
<g id="node33" class="node">
<title>gcab</title>
<g id="a_node33"><a xlink:href="https://github.com/conda-forge/gcab-feedstock/pull/5" xlink:title="gcab ✓">
<ellipse fill="#31688e" stroke="black" cx="1425.05" cy="-162" rx="37.89" ry="18"/>
<text text-anchor="middle" x="1425.05" y="-158.3" font-family="Times,serif" font-size="14.00" fill="white">gcab ✓</text>
</a>
</g>
</g>
<!-- msitools -->
<g id="node34" class="node">
<title>msitools</title>
<g id="a_node34"><a xlink:href="https://github.com/conda-forge/msitools-feedstock" xlink:title="msitools">
<ellipse fill="#fde725" stroke="black" cx="1425.05" cy="-90" rx="41" ry="18"/>
<text text-anchor="middle" x="1425.05" y="-86.3" font-family="Times,serif" font-size="14.00">msitools</text>
</a>
</g>
</g>
<!-- gcab&#45;&gt;msitools -->
<g id="edge36" class="edge">
<title>gcab&#45;&gt;msitools</title>
<path fill="none" stroke="black" d="M1425.05,-143.7C1425.05,-135.98 1425.05,-126.71 1425.05,-118.11"/>
<polygon fill="black" stroke="black" points="1428.55,-118.1 1425.05,-108.1 1421.55,-118.1 1428.55,-118.1"/>
</g>
<!-- gtkmm -->
<g id="node35" class="node">
<title>gtkmm</title>
<g id="a_node35"><a xlink:href="https://github.com/conda-forge/gtkmm-feedstock" xlink:title="gtkmm">
<ellipse fill="#35b779" stroke="black" cx="1028.05" cy="-162" rx="36.5" ry="18"/>
<text text-anchor="middle" x="1028.05" y="-158.3" font-family="Times,serif" font-size="14.00">gtkmm</text>
</a>
</g>
</g>
<!-- cadabra2 -->
<g id="node36" class="node">
<title>cadabra2</title>
<g id="a_node36"><a xlink:href="https://github.com/conda-forge/cadabra2-feedstock" xlink:title="cadabra2">
<ellipse fill="#fde725" stroke="black" cx="1028.05" cy="-90" rx="42.49" ry="18"/>
<text text-anchor="middle" x="1028.05" y="-86.3" font-family="Times,serif" font-size="14.00">cadabra2</text>
</a>
</g>
</g>
<!-- gtkmm&#45;&gt;cadabra2 -->
<g id="edge37" class="edge">
<title>gtkmm&#45;&gt;cadabra2</title>
<path fill="none" stroke="black" d="M1028.05,-143.7C1028.05,-135.98 1028.05,-126.71 1028.05,-118.11"/>
<polygon fill="black" stroke="black" points="1031.55,-118.1 1028.05,-108.1 1024.55,-118.1 1031.55,-118.1"/>
</g>
</g>
</svg>
