<?xml version="1.0" encoding="UTF-8" standalone="no"?>
<!DOCTYPE svg PUBLIC "-//W3C//DTD SVG 1.1//EN"
 "http://www.w3.org/Graphics/SVG/1.1/DTD/svg11.dtd">
<!-- Generated by graphviz version 2.42.3 (20191010.1750)
 -->
<!-- Title: %3 Pages: 1 -->
<svg width="815pt" height="736pt"
 viewBox="0.00 0.00 814.55 736.00" xmlns="http://www.w3.org/2000/svg" xmlns:xlink="http://www.w3.org/1999/xlink">
<g id="graph0" class="graph" transform="scale(1 1) rotate(0) translate(4 732)">
<title>%3</title>
<polygon fill="white" stroke="transparent" points="-4,4 -4,-732 810.55,-732 810.55,4 -4,4"/>
<!-- cyclus -->
<g id="node1" class="node">
<title>cyclus</title>
<g id="a_node1"><a xlink:href="https://github.com/conda-forge/cyclus-feedstock/pull/59" xlink:title="cyclus ❎">
<ellipse fill="#31688e" stroke="black" cx="93.05" cy="-710" rx="45" ry="18"/>
<text text-anchor="middle" x="93.05" y="-706.3" font-family="Times,serif" font-size="14.00" fill="white">cyclus ❎</text>
</a>
</g>
</g>
<!-- magics -->
<g id="node2" class="node">
<title>magics</title>
<g id="a_node2"><a xlink:href="https://github.com/conda-forge/magics-feedstock/pull/84" xlink:title="magics ❎">
<ellipse fill="#31688e" stroke="black" cx="93.05" cy="-638" rx="48.19" ry="18"/>
<text text-anchor="middle" x="93.05" y="-634.3" font-family="Times,serif" font-size="14.00" fill="white">magics ❎</text>
</a>
</g>
</g>
<!-- cyclus&#45;&gt;magics -->
<!-- libsecret -->
<g id="node7" class="node">
<title>libsecret</title>
<g id="a_node7"><a xlink:href="https://github.com/conda-forge/libsecret-feedstock/pull/4" xlink:title="libsecret ❎">
<ellipse fill="#31688e" stroke="black" cx="93.05" cy="-566" rx="52" ry="18"/>
<text text-anchor="middle" x="93.05" y="-562.3" font-family="Times,serif" font-size="14.00" fill="white">libsecret ❎</text>
</a>
</g>
</g>
<!-- magics&#45;&gt;libsecret -->
<!-- gnuplot -->
<g id="node3" class="node">
<title>gnuplot</title>
<g id="a_node3"><a xlink:href="https://github.com/conda-forge/gnuplot-feedstock" xlink:title="gnuplot">
<ellipse fill="#fde725" stroke="black" cx="251.05" cy="-494" rx="37.89" ry="18"/>
<text text-anchor="middle" x="251.05" y="-490.3" font-family="Times,serif" font-size="14.00">gnuplot</text>
</a>
</g>
</g>
<!-- octave -->
<g id="node4" class="node">
<title>octave</title>
<g id="a_node4"><a xlink:href="https://github.com/conda-forge/octave-feedstock" xlink:title="octave">
<ellipse fill="#fde725" stroke="black" cx="228.05" cy="-422" rx="34" ry="18"/>
<text text-anchor="middle" x="228.05" y="-418.3" font-family="Times,serif" font-size="14.00">octave</text>
</a>
</g>
</g>
<!-- gnuplot&#45;&gt;octave -->
<g id="edge2" class="edge">
<title>gnuplot&#45;&gt;octave</title>
<path fill="none" stroke="black" d="M245.48,-476.05C242.85,-468.06 239.65,-458.33 236.72,-449.4"/>
<polygon fill="black" stroke="black" points="240.01,-448.2 233.56,-439.79 233.36,-450.38 240.01,-448.2"/>
</g>
<!-- imagemagick -->
<g id="node5" class="node">
<title>imagemagick</title>
<g id="a_node5"><a xlink:href="https://github.com/conda-forge/imagemagick-feedstock" xlink:title="imagemagick">
<ellipse fill="#fde725" stroke="black" cx="339.05" cy="-422" rx="59.29" ry="18"/>
<text text-anchor="middle" x="339.05" y="-418.3" font-family="Times,serif" font-size="14.00">imagemagick</text>
</a>
</g>
</g>
<!-- libvips -->
<g id="node6" class="node">
<title>libvips</title>
<g id="a_node6"><a xlink:href="https://github.com/conda-forge/libvips-feedstock" xlink:title="libvips">
<ellipse fill="#fde725" stroke="black" cx="397.05" cy="-350" rx="34.5" ry="18"/>
<text text-anchor="middle" x="397.05" y="-346.3" font-family="Times,serif" font-size="14.00">libvips</text>
</a>
</g>
</g>
<!-- imagemagick&#45;&gt;libvips -->
<g id="edge3" class="edge">
<title>imagemagick&#45;&gt;libvips</title>
<path fill="none" stroke="black" d="M352.79,-404.41C360.12,-395.57 369.26,-384.53 377.33,-374.79"/>
<polygon fill="black" stroke="black" points="380.11,-376.92 383.8,-366.99 374.72,-372.46 380.11,-376.92"/>
</g>
<!-- cem -->
<g id="node10" class="node">
<title>cem</title>
<g id="a_node10"><a xlink:href="https://github.com/conda-forge/cem-feedstock/pull/5" xlink:title="cem ❎">
<ellipse fill="#31688e" stroke="black" cx="93.05" cy="-494" rx="37.89" ry="18"/>
<text text-anchor="middle" x="93.05" y="-490.3" font-family="Times,serif" font-size="14.00" fill="white">cem ❎</text>
</a>
</g>
</g>
<!-- libsecret&#45;&gt;cem -->
<!-- wxpython -->
<g id="node8" class="node">
<title>wxpython</title>
<g id="a_node8"><a xlink:href="https://github.com/conda-forge/wxpython-feedstock" xlink:title="wxpython">
<ellipse fill="#fde725" stroke="black" cx="554.05" cy="-350" rx="46.29" ry="18"/>
<text text-anchor="middle" x="554.05" y="-346.3" font-family="Times,serif" font-size="14.00">wxpython</text>
</a>
</g>
</g>
<!-- gtk2 -->
<g id="node9" class="node">
<title>gtk2</title>
<g id="a_node9"><a xlink:href="https://github.com/conda-forge/gtk2-feedstock/pull/18" xlink:title="gtk2 ✓">
<ellipse fill="#31688e" stroke="black" cx="339.05" cy="-566" rx="36.5" ry="18"/>
<text text-anchor="middle" x="339.05" y="-562.3" font-family="Times,serif" font-size="14.00" fill="white">gtk2 ✓</text>
</a>
</g>
</g>
<!-- gtk2&#45;&gt;gnuplot -->
<g id="edge5" class="edge">
<title>gtk2&#45;&gt;gnuplot</title>
<path fill="none" stroke="black" d="M320.38,-550.15C308.02,-540.32 291.6,-527.26 277.84,-516.32"/>
<polygon fill="black" stroke="black" points="279.69,-513.31 269.68,-509.82 275.33,-518.79 279.69,-513.31"/>
</g>
<!-- gtk2&#45;&gt;imagemagick -->
<g id="edge6" class="edge">
<title>gtk2&#45;&gt;imagemagick</title>
<path fill="none" stroke="black" d="M339.05,-547.87C339.05,-523.67 339.05,-479.21 339.05,-450.39"/>
<polygon fill="black" stroke="black" points="342.55,-450.19 339.05,-440.19 335.55,-450.19 342.55,-450.19"/>
</g>
<!-- gtk2&#45;&gt;wxpython -->
<g id="edge7" class="edge">
<title>gtk2&#45;&gt;wxpython</title>
<path fill="none" stroke="black" d="M368.21,-554.83C411.77,-538.07 493.17,-500.34 535.05,-440 547.6,-421.9 552.12,-397.12 553.63,-378.3"/>
<polygon fill="black" stroke="black" points="557.12,-378.46 554.2,-368.28 550.14,-378.06 557.12,-378.46"/>
</g>
<!-- libical -->
<g id="node11" class="node">
<title>libical</title>
<g id="a_node11"><a xlink:href="https://github.com/conda-forge/libical-feedstock/pull/8" xlink:title="libical ❎">
<ellipse fill="#31688e" stroke="black" cx="93.05" cy="-422" rx="44.39" ry="18"/>
<text text-anchor="middle" x="93.05" y="-418.3" font-family="Times,serif" font-size="14.00" fill="white">libical ❎</text>
</a>
</g>
</g>
<!-- cem&#45;&gt;libical -->
<!-- graph&#45;tool -->
<g id="node16" class="node">
<title>graph&#45;tool</title>
<g id="a_node16"><a xlink:href="https://github.com/conda-forge/graph-tool-feedstock" xlink:title="graph tool">
<ellipse fill="#ff8c00" stroke="black" cx="93.05" cy="-350" rx="47" ry="18"/>
<text text-anchor="middle" x="93.05" y="-346.3" font-family="Times,serif" font-size="14.00">graph tool</text>
</a>
</g>
</g>
<!-- libical&#45;&gt;graph&#45;tool -->
<!-- srm&#45;ifce -->
<g id="node12" class="node">
<title>srm&#45;ifce</title>
<g id="a_node12"><a xlink:href="https://github.com/conda-forge/srm-ifce-feedstock/pull/5" xlink:title="srm ifce ❎">
<ellipse fill="#31688e" stroke="black" cx="706.05" cy="-566" rx="52" ry="18"/>
<text text-anchor="middle" x="706.05" y="-562.3" font-family="Times,serif" font-size="14.00" fill="white">srm ifce ❎</text>
</a>
</g>
</g>
<!-- gfal2 -->
<g id="node13" class="node">
<title>gfal2</title>
<g id="a_node13"><a xlink:href="https://github.com/conda-forge/gfal2-feedstock" xlink:title="gfal2">
<ellipse fill="#fde725" stroke="black" cx="706.05" cy="-494" rx="28.7" ry="18"/>
<text text-anchor="middle" x="706.05" y="-490.3" font-family="Times,serif" font-size="14.00">gfal2</text>
</a>
</g>
</g>
<!-- srm&#45;ifce&#45;&gt;gfal2 -->
<g id="edge10" class="edge">
<title>srm&#45;ifce&#45;&gt;gfal2</title>
<path fill="none" stroke="black" d="M706.05,-547.7C706.05,-539.98 706.05,-530.71 706.05,-522.11"/>
<polygon fill="black" stroke="black" points="709.55,-522.1 706.05,-512.1 702.55,-522.1 709.55,-522.1"/>
</g>
<!-- python&#45;gfal2 -->
<g id="node14" class="node">
<title>python&#45;gfal2</title>
<g id="a_node14"><a xlink:href="https://github.com/conda-forge/python-gfal2-feedstock" xlink:title="python gfal2">
<ellipse fill="#fde725" stroke="black" cx="664.05" cy="-422" rx="56" ry="18"/>
<text text-anchor="middle" x="664.05" y="-418.3" font-family="Times,serif" font-size="14.00">python gfal2</text>
</a>
</g>
</g>
<!-- gfal2&#45;&gt;python&#45;gfal2 -->
<g id="edge11" class="edge">
<title>gfal2&#45;&gt;python&#45;gfal2</title>
<path fill="none" stroke="black" d="M696.3,-476.76C691.31,-468.44 685.11,-458.1 679.48,-448.73"/>
<polygon fill="black" stroke="black" points="682.47,-446.9 674.32,-440.12 676.46,-450.5 682.47,-446.9"/>
</g>
<!-- nordugrid&#45;arc -->
<g id="node15" class="node">
<title>nordugrid&#45;arc</title>
<g id="a_node15"><a xlink:href="https://github.com/conda-forge/nordugrid-arc-feedstock" xlink:title="nordugrid arc">
<ellipse fill="#fde725" stroke="black" cx="748.05" cy="-350" rx="58.5" ry="18"/>
<text text-anchor="middle" x="748.05" y="-346.3" font-family="Times,serif" font-size="14.00">nordugrid arc</text>
</a>
</g>
</g>
<!-- gfal2&#45;&gt;nordugrid&#45;arc -->
<g id="edge12" class="edge">
<title>gfal2&#45;&gt;nordugrid&#45;arc</title>
<path fill="none" stroke="black" d="M714.16,-476.62C719.02,-466.31 725.01,-452.61 729.05,-440 735.58,-419.59 740.52,-395.83 743.73,-377.99"/>
<polygon fill="black" stroke="black" points="747.2,-378.44 745.45,-367.99 740.3,-377.25 747.2,-378.44"/>
</g>
<!-- gstlal&#45;calibration -->
<g id="node18" class="node">
<title>gstlal&#45;calibration</title>
<g id="a_node18"><a xlink:href="https://github.com/conda-forge/gstlal-calibration-feedstock" xlink:title="gstlal calibration">
<ellipse fill="#ff8c00" stroke="black" cx="93.05" cy="-278" rx="69.59" ry="18"/>
<text text-anchor="middle" x="93.05" y="-274.3" font-family="Times,serif" font-size="14.00">gstlal calibration</text>
</a>
</g>
</g>
<!-- graph&#45;tool&#45;&gt;gstlal&#45;calibration -->
<!-- openslide -->
<g id="node17" class="node">
<title>openslide</title>
<g id="a_node17"><a xlink:href="https://github.com/conda-forge/openslide-feedstock/pull/3" xlink:title="openslide ✓">
<ellipse fill="#31688e" stroke="black" cx="471.05" cy="-422" rx="54.69" ry="18"/>
<text text-anchor="middle" x="471.05" y="-418.3" font-family="Times,serif" font-size="14.00" fill="white">openslide ✓</text>
</a>
</g>
</g>
<!-- openslide&#45;&gt;libvips -->
<g id="edge14" class="edge">
<title>openslide&#45;&gt;libvips</title>
<path fill="none" stroke="black" d="M453.88,-404.76C443.99,-395.4 431.41,-383.5 420.6,-373.28"/>
<polygon fill="black" stroke="black" points="422.77,-370.52 413.1,-366.19 417.96,-375.6 422.77,-370.52"/>
</g>
<!-- stoken -->
<g id="node24" class="node">
<title>stoken</title>
<g id="a_node24"><a xlink:href="https://github.com/conda-forge/stoken-feedstock/pull/4" xlink:title="stoken ❎">
<ellipse fill="#31688e" stroke="black" cx="93.05" cy="-206" rx="45.5" ry="18"/>
<text text-anchor="middle" x="93.05" y="-202.3" font-family="Times,serif" font-size="14.00" fill="white">stoken ❎</text>
</a>
</g>
</g>
<!-- gstlal&#45;calibration&#45;&gt;stoken -->
<!-- gcab -->
<g id="node19" class="node">
<title>gcab</title>
<g id="a_node19"><a xlink:href="https://github.com/conda-forge/gcab-feedstock/pull/5" xlink:title="gcab ✓">
<ellipse fill="#31688e" stroke="black" cx="397.05" cy="-126" rx="37.89" ry="18"/>
<text text-anchor="middle" x="397.05" y="-122.3" font-family="Times,serif" font-size="14.00" fill="white">gcab ✓</text>
</a>
</g>
</g>
<!-- msitools -->
<g id="node20" class="node">
<title>msitools</title>
<g id="a_node20"><a xlink:href="https://github.com/conda-forge/msitools-feedstock" xlink:title="msitools">
<ellipse fill="#fde725" stroke="black" cx="397.05" cy="-54" rx="41" ry="18"/>
<text text-anchor="middle" x="397.05" y="-50.3" font-family="Times,serif" font-size="14.00">msitools</text>
</a>
</g>
</g>
<!-- gcab&#45;&gt;msitools -->
<g id="edge16" class="edge">
<title>gcab&#45;&gt;msitools</title>
<path fill="none" stroke="black" d="M397.05,-107.7C397.05,-99.98 397.05,-90.71 397.05,-82.11"/>
<polygon fill="black" stroke="black" points="400.55,-82.1 397.05,-72.1 393.55,-82.1 400.55,-82.1"/>
</g>
<!-- gstlal&#45;ugly -->
<g id="node21" class="node">
<title>gstlal&#45;ugly</title>
<g id="a_node21"><a xlink:href="https://github.com/conda-forge/gstlal-ugly-feedstock" xlink:title="gstlal ugly">
<ellipse fill="#ff8c00" stroke="black" cx="89.05" cy="-162" rx="48.19" ry="18"/>
<text text-anchor="middle" x="89.05" y="-158.3" font-family="Times,serif" font-size="14.00">gstlal ugly</text>
</a>
</g>
</g>
<!-- gstlal&#45;burst -->
<g id="node22" class="node">
<title>gstlal&#45;burst</title>
<g id="a_node22"><a xlink:href="https://github.com/conda-forge/gstlal-burst-feedstock" xlink:title="gstlal burst">
<ellipse fill="#fde725" stroke="black" cx="50.05" cy="-90" rx="50.09" ry="18"/>
<text text-anchor="middle" x="50.05" y="-86.3" font-family="Times,serif" font-size="14.00">gstlal burst</text>
</a>
</g>
</g>
<!-- gstlal&#45;ugly&#45;&gt;gstlal&#45;burst -->
<g id="edge17" class="edge">
<title>gstlal&#45;ugly&#45;&gt;gstlal&#45;burst</title>
<path fill="none" stroke="black" d="M79.6,-144.05C75.01,-135.8 69.38,-125.7 64.27,-116.54"/>
<polygon fill="black" stroke="black" points="67.32,-114.82 59.4,-107.79 61.21,-118.23 67.32,-114.82"/>
</g>
<!-- gstlal&#45;inspiral -->
<g id="node23" class="node">
<title>gstlal&#45;inspiral</title>
<g id="a_node23"><a xlink:href="https://github.com/conda-forge/gstlal-inspiral-feedstock" xlink:title="gstlal inspiral">
<ellipse fill="#fde725" stroke="black" cx="128.05" cy="-18" rx="58.5" ry="18"/>
<text text-anchor="middle" x="128.05" y="-14.3" font-family="Times,serif" font-size="14.00">gstlal inspiral</text>
</a>
</g>
</g>
<!-- gstlal&#45;ugly&#45;&gt;gstlal&#45;inspiral -->
<g id="edge18" class="edge">
<title>gstlal&#45;ugly&#45;&gt;gstlal&#45;inspiral</title>
<path fill="none" stroke="black" d="M96.19,-144.04C100.34,-133.74 105.44,-120.27 109.05,-108 115.04,-87.57 119.99,-63.98 123.34,-46.22"/>
<polygon fill="black" stroke="black" points="126.8,-46.72 125.16,-36.25 119.92,-45.46 126.8,-46.72"/>
</g>
</g>
</svg>
