<?xml version="1.0" encoding="UTF-8" standalone="no"?>
<!DOCTYPE svg PUBLIC "-//W3C//DTD SVG 1.1//EN"
 "http://www.w3.org/Graphics/SVG/1.1/DTD/svg11.dtd">
<!-- Generated by graphviz version 2.42.3 (20191010.1750)
 -->
<!-- Title: %3 Pages: 1 -->
<svg width="768pt" height="664pt"
 viewBox="0.00 0.00 767.50 664.00" xmlns="http://www.w3.org/2000/svg" xmlns:xlink="http://www.w3.org/1999/xlink">
<g id="graph0" class="graph" transform="scale(1 1) rotate(0) translate(4 660)">
<title>%3</title>
<polygon fill="white" stroke="transparent" points="-4,4 -4,-660 763.5,-660 763.5,4 -4,4"/>
<!-- cyclus -->
<g id="node1" class="node">
<title>cyclus</title>
<g id="a_node1"><a xlink:href="https://github.com/conda-forge/cyclus-feedstock/pull/59" xlink:title="cyclus ❎">
<ellipse fill="#31688e" stroke="black" cx="483" cy="-638" rx="45" ry="18"/>
<text text-anchor="middle" x="483" y="-634.3" font-family="Times,serif" font-size="14.00" fill="white">cyclus ❎</text>
</a>
</g>
</g>
<!-- magics -->
<g id="node2" class="node">
<title>magics</title>
<g id="a_node2"><a xlink:href="https://github.com/conda-forge/magics-feedstock/pull/84" xlink:title="magics ❎">
<ellipse fill="#31688e" stroke="black" cx="483" cy="-566" rx="48.19" ry="18"/>
<text text-anchor="middle" x="483" y="-562.3" font-family="Times,serif" font-size="14.00" fill="white">magics ❎</text>
</a>
</g>
</g>
<!-- cyclus&#45;&gt;magics -->
<!-- libsecret -->
<g id="node7" class="node">
<title>libsecret</title>
<g id="a_node7"><a xlink:href="https://github.com/conda-forge/libsecret-feedstock/pull/4" xlink:title="libsecret ❎">
<ellipse fill="#31688e" stroke="black" cx="483" cy="-494" rx="52" ry="18"/>
<text text-anchor="middle" x="483" y="-490.3" font-family="Times,serif" font-size="14.00" fill="white">libsecret ❎</text>
</a>
</g>
</g>
<!-- magics&#45;&gt;libsecret -->
<!-- gnuplot -->
<g id="node3" class="node">
<title>gnuplot</title>
<g id="a_node3"><a xlink:href="https://github.com/conda-forge/gnuplot-feedstock" xlink:title="gnuplot">
<ellipse fill="#fde725" stroke="black" cx="57" cy="-458" rx="37.89" ry="18"/>
<text text-anchor="middle" x="57" y="-454.3" font-family="Times,serif" font-size="14.00">gnuplot</text>
</a>
</g>
</g>
<!-- octave -->
<g id="node4" class="node">
<title>octave</title>
<g id="a_node4"><a xlink:href="https://github.com/conda-forge/octave-feedstock" xlink:title="octave">
<ellipse fill="#fde725" stroke="black" cx="34" cy="-386" rx="34" ry="18"/>
<text text-anchor="middle" x="34" y="-382.3" font-family="Times,serif" font-size="14.00">octave</text>
</a>
</g>
</g>
<!-- gnuplot&#45;&gt;octave -->
<g id="edge2" class="edge">
<title>gnuplot&#45;&gt;octave</title>
<path fill="none" stroke="black" d="M51.43,-440.05C48.8,-432.06 45.61,-422.33 42.67,-413.4"/>
<polygon fill="black" stroke="black" points="45.96,-412.2 39.52,-403.79 39.31,-414.38 45.96,-412.2"/>
</g>
<!-- imagemagick -->
<g id="node5" class="node">
<title>imagemagick</title>
<g id="a_node5"><a xlink:href="https://github.com/conda-forge/imagemagick-feedstock" xlink:title="imagemagick">
<ellipse fill="#fde725" stroke="black" cx="145" cy="-386" rx="59.29" ry="18"/>
<text text-anchor="middle" x="145" y="-382.3" font-family="Times,serif" font-size="14.00">imagemagick</text>
</a>
</g>
</g>
<!-- libvips -->
<g id="node6" class="node">
<title>libvips</title>
<g id="a_node6"><a xlink:href="https://github.com/conda-forge/libvips-feedstock" xlink:title="libvips">
<ellipse fill="#fde725" stroke="black" cx="203" cy="-314" rx="34.5" ry="18"/>
<text text-anchor="middle" x="203" y="-310.3" font-family="Times,serif" font-size="14.00">libvips</text>
</a>
</g>
</g>
<!-- imagemagick&#45;&gt;libvips -->
<g id="edge3" class="edge">
<title>imagemagick&#45;&gt;libvips</title>
<path fill="none" stroke="black" d="M158.75,-368.41C166.07,-359.57 175.22,-348.53 183.29,-338.79"/>
<polygon fill="black" stroke="black" points="186.07,-340.92 189.75,-330.99 180.68,-336.46 186.07,-340.92"/>
</g>
<!-- cem -->
<g id="node10" class="node">
<title>cem</title>
<g id="a_node10"><a xlink:href="https://github.com/conda-forge/cem-feedstock/pull/5" xlink:title="cem ❎">
<ellipse fill="#31688e" stroke="black" cx="483" cy="-422" rx="37.89" ry="18"/>
<text text-anchor="middle" x="483" y="-418.3" font-family="Times,serif" font-size="14.00" fill="white">cem ❎</text>
</a>
</g>
</g>
<!-- libsecret&#45;&gt;cem -->
<!-- wxpython -->
<g id="node8" class="node">
<title>wxpython</title>
<g id="a_node8"><a xlink:href="https://github.com/conda-forge/wxpython-feedstock" xlink:title="wxpython">
<ellipse fill="#fde725" stroke="black" cx="360" cy="-314" rx="46.29" ry="18"/>
<text text-anchor="middle" x="360" y="-310.3" font-family="Times,serif" font-size="14.00">wxpython</text>
</a>
</g>
</g>
<!-- gtk2 -->
<g id="node9" class="node">
<title>gtk2</title>
<g id="a_node9"><a xlink:href="https://github.com/conda-forge/gtk2-feedstock/pull/18" xlink:title="gtk2 ✓">
<ellipse fill="#31688e" stroke="black" cx="145" cy="-530" rx="36.5" ry="18"/>
<text text-anchor="middle" x="145" y="-526.3" font-family="Times,serif" font-size="14.00" fill="white">gtk2 ✓</text>
</a>
</g>
</g>
<!-- gtk2&#45;&gt;gnuplot -->
<g id="edge5" class="edge">
<title>gtk2&#45;&gt;gnuplot</title>
<path fill="none" stroke="black" d="M126.34,-514.15C113.97,-504.32 97.55,-491.26 83.8,-480.32"/>
<polygon fill="black" stroke="black" points="85.64,-477.31 75.64,-473.82 81.28,-482.79 85.64,-477.31"/>
</g>
<!-- gtk2&#45;&gt;imagemagick -->
<g id="edge6" class="edge">
<title>gtk2&#45;&gt;imagemagick</title>
<path fill="none" stroke="black" d="M145,-511.87C145,-487.67 145,-443.21 145,-414.39"/>
<polygon fill="black" stroke="black" points="148.5,-414.19 145,-404.19 141.5,-414.19 148.5,-414.19"/>
</g>
<!-- gtk2&#45;&gt;wxpython -->
<g id="edge7" class="edge">
<title>gtk2&#45;&gt;wxpython</title>
<path fill="none" stroke="black" d="M174.17,-518.83C217.72,-502.07 299.12,-464.34 341,-404 353.56,-385.9 358.07,-361.12 359.58,-342.3"/>
<polygon fill="black" stroke="black" points="363.08,-342.46 360.15,-332.28 356.09,-342.06 363.08,-342.46"/>
</g>
<!-- libical -->
<g id="node11" class="node">
<title>libical</title>
<g id="a_node11"><a xlink:href="https://github.com/conda-forge/libical-feedstock/pull/8" xlink:title="libical ❎">
<ellipse fill="#31688e" stroke="black" cx="483" cy="-350" rx="44.39" ry="18"/>
<text text-anchor="middle" x="483" y="-346.3" font-family="Times,serif" font-size="14.00" fill="white">libical ❎</text>
</a>
</g>
</g>
<!-- cem&#45;&gt;libical -->
<!-- gstlal&#45;calibration -->
<g id="node16" class="node">
<title>gstlal&#45;calibration</title>
<g id="a_node16"><a xlink:href="https://github.com/conda-forge/gstlal-calibration-feedstock" xlink:title="gstlal calibration">
<ellipse fill="#000000" stroke="black" cx="483" cy="-278" rx="69.59" ry="18"/>
<text text-anchor="middle" x="483" y="-274.3" font-family="Times,serif" font-size="14.00" fill="white">gstlal calibration</text>
</a>
</g>
</g>
<!-- libical&#45;&gt;gstlal&#45;calibration -->
<!-- srm&#45;ifce -->
<g id="node12" class="node">
<title>srm&#45;ifce</title>
<g id="a_node12"><a xlink:href="https://github.com/conda-forge/srm-ifce-feedstock/pull/5" xlink:title="srm ifce ❎">
<ellipse fill="#31688e" stroke="black" cx="659" cy="-530" rx="52" ry="18"/>
<text text-anchor="middle" x="659" y="-526.3" font-family="Times,serif" font-size="14.00" fill="white">srm ifce ❎</text>
</a>
</g>
</g>
<!-- gfal2 -->
<g id="node13" class="node">
<title>gfal2</title>
<g id="a_node13"><a xlink:href="https://github.com/conda-forge/gfal2-feedstock" xlink:title="gfal2">
<ellipse fill="#fde725" stroke="black" cx="659" cy="-458" rx="28.7" ry="18"/>
<text text-anchor="middle" x="659" y="-454.3" font-family="Times,serif" font-size="14.00">gfal2</text>
</a>
</g>
</g>
<!-- srm&#45;ifce&#45;&gt;gfal2 -->
<g id="edge10" class="edge">
<title>srm&#45;ifce&#45;&gt;gfal2</title>
<path fill="none" stroke="black" d="M659,-511.7C659,-503.98 659,-494.71 659,-486.11"/>
<polygon fill="black" stroke="black" points="662.5,-486.1 659,-476.1 655.5,-486.1 662.5,-486.1"/>
</g>
<!-- python&#45;gfal2 -->
<g id="node14" class="node">
<title>python&#45;gfal2</title>
<g id="a_node14"><a xlink:href="https://github.com/conda-forge/python-gfal2-feedstock" xlink:title="python gfal2">
<ellipse fill="#fde725" stroke="black" cx="617" cy="-386" rx="56" ry="18"/>
<text text-anchor="middle" x="617" y="-382.3" font-family="Times,serif" font-size="14.00">python gfal2</text>
</a>
</g>
</g>
<!-- gfal2&#45;&gt;python&#45;gfal2 -->
<g id="edge11" class="edge">
<title>gfal2&#45;&gt;python&#45;gfal2</title>
<path fill="none" stroke="black" d="M649.26,-440.76C644.26,-432.44 638.06,-422.1 632.44,-412.73"/>
<polygon fill="black" stroke="black" points="635.42,-410.9 627.27,-404.12 629.42,-414.5 635.42,-410.9"/>
</g>
<!-- nordugrid&#45;arc -->
<g id="node15" class="node">
<title>nordugrid&#45;arc</title>
<g id="a_node15"><a xlink:href="https://github.com/conda-forge/nordugrid-arc-feedstock" xlink:title="nordugrid arc">
<ellipse fill="#fde725" stroke="black" cx="701" cy="-314" rx="58.5" ry="18"/>
<text text-anchor="middle" x="701" y="-310.3" font-family="Times,serif" font-size="14.00">nordugrid arc</text>
</a>
</g>
</g>
<!-- gfal2&#45;&gt;nordugrid&#45;arc -->
<g id="edge12" class="edge">
<title>gfal2&#45;&gt;nordugrid&#45;arc</title>
<path fill="none" stroke="black" d="M667.12,-440.62C671.97,-430.31 677.96,-416.61 682,-404 688.53,-383.59 693.48,-359.83 696.68,-341.99"/>
<polygon fill="black" stroke="black" points="700.16,-342.44 698.41,-331.99 693.26,-341.25 700.16,-342.44"/>
</g>
<!-- stoken -->
<g id="node23" class="node">
<title>stoken</title>
<g id="a_node23"><a xlink:href="https://github.com/conda-forge/stoken-feedstock/pull/3" xlink:title="stoken ✓">
<ellipse fill="#31688e" stroke="black" cx="483" cy="-206" rx="44.39" ry="18"/>
<text text-anchor="middle" x="483" y="-202.3" font-family="Times,serif" font-size="14.00" fill="white">stoken ✓</text>
</a>
</g>
</g>
<!-- gstlal&#45;calibration&#45;&gt;stoken -->
<!-- openslide -->
<g id="node17" class="node">
<title>openslide</title>
<g id="a_node17"><a xlink:href="https://github.com/conda-forge/openslide-feedstock/pull/3" xlink:title="openslide ✓">
<ellipse fill="#31688e" stroke="black" cx="277" cy="-386" rx="54.69" ry="18"/>
<text text-anchor="middle" x="277" y="-382.3" font-family="Times,serif" font-size="14.00" fill="white">openslide ✓</text>
</a>
</g>
</g>
<!-- openslide&#45;&gt;libvips -->
<g id="edge14" class="edge">
<title>openslide&#45;&gt;libvips</title>
<path fill="none" stroke="black" d="M259.84,-368.76C249.94,-359.4 237.36,-347.5 226.55,-337.28"/>
<polygon fill="black" stroke="black" points="228.73,-334.52 219.06,-330.19 223.92,-339.6 228.73,-334.52"/>
</g>
<!-- gcab -->
<g id="node18" class="node">
<title>gcab</title>
<g id="a_node18"><a xlink:href="https://github.com/conda-forge/gcab-feedstock/pull/5" xlink:title="gcab ✓">
<ellipse fill="#31688e" stroke="black" cx="483" cy="-126" rx="37.89" ry="18"/>
<text text-anchor="middle" x="483" y="-122.3" font-family="Times,serif" font-size="14.00" fill="white">gcab ✓</text>
</a>
</g>
</g>
<!-- msitools -->
<g id="node19" class="node">
<title>msitools</title>
<g id="a_node19"><a xlink:href="https://github.com/conda-forge/msitools-feedstock" xlink:title="msitools">
<ellipse fill="#fde725" stroke="black" cx="483" cy="-54" rx="41" ry="18"/>
<text text-anchor="middle" x="483" y="-50.3" font-family="Times,serif" font-size="14.00">msitools</text>
</a>
</g>
</g>
<!-- gcab&#45;&gt;msitools -->
<g id="edge15" class="edge">
<title>gcab&#45;&gt;msitools</title>
<path fill="none" stroke="black" d="M483,-107.7C483,-99.98 483,-90.71 483,-82.11"/>
<polygon fill="black" stroke="black" points="486.5,-82.1 483,-72.1 479.5,-82.1 486.5,-82.1"/>
</g>
<!-- gstlal&#45;ugly -->
<g id="node20" class="node">
<title>gstlal&#45;ugly</title>
<g id="a_node20"><a xlink:href="https://github.com/conda-forge/gstlal-ugly-feedstock" xlink:title="gstlal ugly">
<ellipse fill="#000000" stroke="black" cx="198" cy="-162" rx="48.19" ry="18"/>
<text text-anchor="middle" x="198" y="-158.3" font-family="Times,serif" font-size="14.00" fill="white">gstlal ugly</text>
</a>
</g>
</g>
<!-- gstlal&#45;burst -->
<g id="node21" class="node">
<title>gstlal&#45;burst</title>
<g id="a_node21"><a xlink:href="https://github.com/conda-forge/gstlal-burst-feedstock" xlink:title="gstlal burst">
<ellipse fill="#fde725" stroke="black" cx="159" cy="-90" rx="50.09" ry="18"/>
<text text-anchor="middle" x="159" y="-86.3" font-family="Times,serif" font-size="14.00">gstlal burst</text>
</a>
</g>
</g>
<!-- gstlal&#45;ugly&#45;&gt;gstlal&#45;burst -->
<g id="edge16" class="edge">
<title>gstlal&#45;ugly&#45;&gt;gstlal&#45;burst</title>
<path fill="none" stroke="black" d="M188.56,-144.05C183.96,-135.8 178.33,-125.7 173.23,-116.54"/>
<polygon fill="black" stroke="black" points="176.28,-114.82 168.35,-107.79 170.16,-118.23 176.28,-114.82"/>
</g>
<!-- gstlal&#45;inspiral -->
<g id="node22" class="node">
<title>gstlal&#45;inspiral</title>
<g id="a_node22"><a xlink:href="https://github.com/conda-forge/gstlal-inspiral-feedstock" xlink:title="gstlal inspiral">
<ellipse fill="#fde725" stroke="black" cx="237" cy="-18" rx="58.5" ry="18"/>
<text text-anchor="middle" x="237" y="-14.3" font-family="Times,serif" font-size="14.00">gstlal inspiral</text>
</a>
</g>
</g>
<!-- gstlal&#45;ugly&#45;&gt;gstlal&#45;inspiral -->
<g id="edge17" class="edge">
<title>gstlal&#45;ugly&#45;&gt;gstlal&#45;inspiral</title>
<path fill="none" stroke="black" d="M205.15,-144.04C209.3,-133.74 214.4,-120.27 218,-108 224,-87.57 228.95,-63.98 232.29,-46.22"/>
<polygon fill="black" stroke="black" points="235.76,-46.72 234.11,-36.25 228.87,-45.46 235.76,-46.72"/>
</g>
</g>
</svg>
