<?xml version="1.0" encoding="UTF-8" standalone="no"?>
<!DOCTYPE svg PUBLIC "-//W3C//DTD SVG 1.1//EN"
 "http://www.w3.org/Graphics/SVG/1.1/DTD/svg11.dtd">
<!-- Generated by graphviz version 2.42.3 (20191010.1750)
 -->
<!-- Title: %3 Pages: 1 -->
<svg width="1657pt" height="664pt"
 viewBox="0.00 0.00 1657.42 664.00" xmlns="http://www.w3.org/2000/svg" xmlns:xlink="http://www.w3.org/1999/xlink">
<g id="graph0" class="graph" transform="scale(1 1) rotate(0) translate(4 660)">
<title>%3</title>
<polygon fill="white" stroke="transparent" points="-4,4 -4,-660 1653.42,-660 1653.42,4 -4,4"/>
<!-- cyclus -->
<g id="node1" class="node">
<title>cyclus</title>
<g id="a_node1"><a xlink:href="https://github.com/conda-forge/cyclus-feedstock/pull/59" xlink:title="cyclus ❎">
<ellipse fill="#31688e" stroke="black" cx="1597.42" cy="-638" rx="45" ry="18"/>
<text text-anchor="middle" x="1597.42" y="-634.3" font-family="Times,serif" font-size="14.00" fill="white">cyclus ❎</text>
</a>
</g>
</g>
<!-- magics -->
<g id="node2" class="node">
<title>magics</title>
<g id="a_node2"><a xlink:href="https://github.com/conda-forge/magics-feedstock/pull/84" xlink:title="magics ❎">
<ellipse fill="#31688e" stroke="black" cx="1597.42" cy="-566" rx="48.19" ry="18"/>
<text text-anchor="middle" x="1597.42" y="-562.3" font-family="Times,serif" font-size="14.00" fill="white">magics ❎</text>
</a>
</g>
</g>
<!-- cyclus&#45;&gt;magics -->
<!-- r&#45;base -->
<g id="node9" class="node">
<title>r&#45;base</title>
<g id="a_node9"><a xlink:href="https://github.com/conda-forge/r-base-feedstock" xlink:title="r base">
<ellipse fill="#ff8c00" stroke="black" cx="1597.42" cy="-494" rx="32" ry="18"/>
<text text-anchor="middle" x="1597.42" y="-490.3" font-family="Times,serif" font-size="14.00">r base</text>
</a>
</g>
</g>
<!-- magics&#45;&gt;r&#45;base -->
<!-- emacs -->
<g id="node3" class="node">
<title>emacs</title>
<g id="a_node3"><a xlink:href="https://github.com/conda-forge/emacs-feedstock" xlink:title="emacs">
<ellipse fill="#fde725" stroke="black" cx="917.42" cy="-458" rx="33.29" ry="18"/>
<text text-anchor="middle" x="917.42" y="-454.3" font-family="Times,serif" font-size="14.00">emacs</text>
</a>
</g>
</g>
<!-- gnuplot -->
<g id="node4" class="node">
<title>gnuplot</title>
<g id="a_node4"><a xlink:href="https://github.com/conda-forge/gnuplot-feedstock" xlink:title="gnuplot">
<ellipse fill="#fde725" stroke="black" cx="1400.42" cy="-458" rx="37.89" ry="18"/>
<text text-anchor="middle" x="1400.42" y="-454.3" font-family="Times,serif" font-size="14.00">gnuplot</text>
</a>
</g>
</g>
<!-- octave -->
<g id="node5" class="node">
<title>octave</title>
<g id="a_node5"><a xlink:href="https://github.com/conda-forge/octave-feedstock" xlink:title="octave">
<ellipse fill="#fde725" stroke="black" cx="1393.42" cy="-386" rx="34" ry="18"/>
<text text-anchor="middle" x="1393.42" y="-382.3" font-family="Times,serif" font-size="14.00">octave</text>
</a>
</g>
</g>
<!-- gnuplot&#45;&gt;octave -->
<g id="edge2" class="edge">
<title>gnuplot&#45;&gt;octave</title>
<path fill="none" stroke="black" d="M1398.69,-439.7C1397.92,-431.98 1396.99,-422.71 1396.13,-414.11"/>
<polygon fill="black" stroke="black" points="1399.61,-413.71 1395.13,-404.1 1392.64,-414.4 1399.61,-413.71"/>
</g>
<!-- imagemagick -->
<g id="node6" class="node">
<title>imagemagick</title>
<g id="a_node6"><a xlink:href="https://github.com/conda-forge/imagemagick-feedstock" xlink:title="imagemagick">
<ellipse fill="#fde725" stroke="black" cx="1065.42" cy="-458" rx="59.29" ry="18"/>
<text text-anchor="middle" x="1065.42" y="-454.3" font-family="Times,serif" font-size="14.00">imagemagick</text>
</a>
</g>
</g>
<!-- libvips -->
<g id="node7" class="node">
<title>libvips</title>
<g id="a_node7"><a xlink:href="https://github.com/conda-forge/libvips-feedstock" xlink:title="libvips">
<ellipse fill="#fde725" stroke="black" cx="1126.42" cy="-386" rx="34.5" ry="18"/>
<text text-anchor="middle" x="1126.42" y="-382.3" font-family="Times,serif" font-size="14.00">libvips</text>
</a>
</g>
</g>
<!-- imagemagick&#45;&gt;libvips -->
<g id="edge3" class="edge">
<title>imagemagick&#45;&gt;libvips</title>
<path fill="none" stroke="black" d="M1079.87,-440.41C1087.58,-431.57 1097.2,-420.53 1105.69,-410.79"/>
<polygon fill="black" stroke="black" points="1108.55,-412.83 1112.48,-402.99 1103.28,-408.23 1108.55,-412.83"/>
</g>
<!-- librsvg -->
<g id="node8" class="node">
<title>librsvg</title>
<g id="a_node8"><a xlink:href="https://github.com/conda-forge/librsvg-feedstock" xlink:title="librsvg">
<ellipse fill="#35b779" stroke="black" cx="978.42" cy="-530" rx="35.19" ry="18"/>
<text text-anchor="middle" x="978.42" y="-526.3" font-family="Times,serif" font-size="14.00">librsvg</text>
</a>
</g>
</g>
<!-- librsvg&#45;&gt;emacs -->
<g id="edge4" class="edge">
<title>librsvg&#45;&gt;emacs</title>
<path fill="none" stroke="black" d="M964.58,-513.12C956.7,-504.08 946.68,-492.58 937.91,-482.52"/>
<polygon fill="black" stroke="black" points="940.41,-480.06 931.2,-474.82 935.14,-484.66 940.41,-480.06"/>
</g>
<!-- librsvg&#45;&gt;imagemagick -->
<g id="edge5" class="edge">
<title>librsvg&#45;&gt;imagemagick</title>
<path fill="none" stroke="black" d="M996.44,-514.5C1008.23,-505.01 1023.87,-492.43 1037.28,-481.64"/>
<polygon fill="black" stroke="black" points="1039.69,-484.19 1045.29,-475.2 1035.3,-478.74 1039.69,-484.19"/>
</g>
<!-- librsvg&#45;&gt;libvips -->
<g id="edge6" class="edge">
<title>librsvg&#45;&gt;libvips</title>
<path fill="none" stroke="black" d="M977.58,-511.9C977.54,-492.34 980.41,-460.38 997.42,-440 1018.91,-414.26 1054.9,-400.86 1083.41,-393.98"/>
<polygon fill="black" stroke="black" points="1084.54,-397.31 1093.54,-391.73 1083.02,-390.48 1084.54,-397.31"/>
</g>
<!-- libsecret -->
<g id="node22" class="node">
<title>libsecret</title>
<g id="a_node22"><a xlink:href="https://github.com/conda-forge/libsecret-feedstock/pull/4" xlink:title="libsecret ❎">
<ellipse fill="#31688e" stroke="black" cx="1597.42" cy="-422" rx="52" ry="18"/>
<text text-anchor="middle" x="1597.42" y="-418.3" font-family="Times,serif" font-size="14.00" fill="white">libsecret ❎</text>
</a>
</g>
</g>
<!-- r&#45;base&#45;&gt;libsecret -->
<!-- poppler -->
<g id="node10" class="node">
<title>poppler</title>
<g id="a_node10"><a xlink:href="https://github.com/conda-forge/poppler-feedstock/pull/78" xlink:title="poppler ✓">
<ellipse fill="#31688e" stroke="black" cx="1296.42" cy="-458" rx="48.19" ry="18"/>
<text text-anchor="middle" x="1296.42" y="-454.3" font-family="Times,serif" font-size="14.00" fill="white">poppler ✓</text>
</a>
</g>
</g>
<!-- poppler&#45;&gt;libvips -->
<g id="edge8" class="edge">
<title>poppler&#45;&gt;libvips</title>
<path fill="none" stroke="black" d="M1265.24,-444.16C1236.09,-432.16 1192.6,-414.25 1162.08,-401.68"/>
<polygon fill="black" stroke="black" points="1163.24,-398.38 1152.66,-397.81 1160.58,-404.85 1163.24,-398.38"/>
</g>
<!-- pdf2svg -->
<g id="node11" class="node">
<title>pdf2svg</title>
<g id="a_node11"><a xlink:href="https://github.com/conda-forge/pdf2svg-feedstock" xlink:title="pdf2svg">
<ellipse fill="#fde725" stroke="black" cx="1296.42" cy="-386" rx="39" ry="18"/>
<text text-anchor="middle" x="1296.42" y="-382.3" font-family="Times,serif" font-size="14.00">pdf2svg</text>
</a>
</g>
</g>
<!-- poppler&#45;&gt;pdf2svg -->
<g id="edge9" class="edge">
<title>poppler&#45;&gt;pdf2svg</title>
<path fill="none" stroke="black" d="M1296.42,-439.7C1296.42,-431.98 1296.42,-422.71 1296.42,-414.11"/>
<polygon fill="black" stroke="black" points="1299.92,-414.1 1296.42,-404.1 1292.92,-414.1 1299.92,-414.1"/>
</g>
<!-- pygobject -->
<g id="node12" class="node">
<title>pygobject</title>
<g id="a_node12"><a xlink:href="https://github.com/conda-forge/pygobject-feedstock" xlink:title="pygobject">
<ellipse fill="#fde725" stroke="black" cx="373.42" cy="-566" rx="45.5" ry="18"/>
<text text-anchor="middle" x="373.42" y="-562.3" font-family="Times,serif" font-size="14.00">pygobject</text>
</a>
</g>
</g>
<!-- numcosmo -->
<g id="node13" class="node">
<title>numcosmo</title>
<g id="a_node13"><a xlink:href="https://github.com/conda-forge/numcosmo-feedstock" xlink:title="numcosmo">
<ellipse fill="#fde725" stroke="black" cx="561.42" cy="-494" rx="50.09" ry="18"/>
<text text-anchor="middle" x="561.42" y="-490.3" font-family="Times,serif" font-size="14.00">numcosmo</text>
</a>
</g>
</g>
<!-- pygobject&#45;&gt;numcosmo -->
<g id="edge10" class="edge">
<title>pygobject&#45;&gt;numcosmo</title>
<path fill="none" stroke="black" d="M405.31,-553.13C436.3,-541.59 483.58,-523.98 518,-511.17"/>
<polygon fill="black" stroke="black" points="519.63,-514.29 527.78,-507.52 517.19,-507.73 519.63,-514.29"/>
</g>
<!-- gst&#45;python -->
<g id="node14" class="node">
<title>gst&#45;python</title>
<g id="a_node14"><a xlink:href="https://github.com/conda-forge/gst-python-feedstock" xlink:title="gst python">
<ellipse fill="#fde725" stroke="black" cx="177.42" cy="-494" rx="48.19" ry="18"/>
<text text-anchor="middle" x="177.42" y="-490.3" font-family="Times,serif" font-size="14.00">gst python</text>
</a>
</g>
</g>
<!-- pygobject&#45;&gt;gst&#45;python -->
<g id="edge11" class="edge">
<title>pygobject&#45;&gt;gst&#45;python</title>
<path fill="none" stroke="black" d="M340.61,-553.28C307.74,-541.54 256.96,-523.41 220.78,-510.49"/>
<polygon fill="black" stroke="black" points="221.58,-507.06 210.99,-506.99 219.23,-513.65 221.58,-507.06"/>
</g>
<!-- gstlal&#45;ugly -->
<g id="node15" class="node">
<title>gstlal&#45;ugly</title>
<g id="a_node15"><a xlink:href="https://github.com/conda-forge/gstlal-ugly-feedstock" xlink:title="gstlal ugly">
<ellipse fill="#fde725" stroke="black" cx="63.42" cy="-422" rx="48.19" ry="18"/>
<text text-anchor="middle" x="63.42" y="-418.3" font-family="Times,serif" font-size="14.00">gstlal ugly</text>
</a>
</g>
</g>
<!-- pygobject&#45;&gt;gstlal&#45;ugly -->
<g id="edge12" class="edge">
<title>pygobject&#45;&gt;gstlal&#45;ugly</title>
<path fill="none" stroke="black" d="M327.73,-565.73C273.64,-564.42 183.03,-555.19 120.42,-512 98.22,-496.69 82.73,-469.63 73.55,-449.35"/>
<polygon fill="black" stroke="black" points="76.71,-447.84 69.55,-440.03 70.28,-450.6 76.71,-447.84"/>
</g>
<!-- gstlal&#45;burst -->
<g id="node16" class="node">
<title>gstlal&#45;burst</title>
<g id="a_node16"><a xlink:href="https://github.com/conda-forge/gstlal-burst-feedstock" xlink:title="gstlal burst">
<ellipse fill="#fde725" stroke="black" cx="56.42" cy="-350" rx="50.09" ry="18"/>
<text text-anchor="middle" x="56.42" y="-346.3" font-family="Times,serif" font-size="14.00">gstlal burst</text>
</a>
</g>
</g>
<!-- pygobject&#45;&gt;gstlal&#45;burst -->
<g id="edge13" class="edge">
<title>pygobject&#45;&gt;gstlal&#45;burst</title>
<path fill="none" stroke="black" d="M327.9,-564.38C268.79,-561.9 163.81,-551.67 84.42,-512 42.21,-490.91 25.34,-483.22 6.42,-440 0,-425.34 0.51,-418.87 6.42,-404 11,-392.45 19.43,-381.96 28.08,-373.42"/>
<polygon fill="black" stroke="black" points="30.67,-375.79 35.64,-366.44 25.92,-370.65 30.67,-375.79"/>
</g>
<!-- gstlal&#45;inspiral -->
<g id="node17" class="node">
<title>gstlal&#45;inspiral</title>
<g id="a_node17"><a xlink:href="https://github.com/conda-forge/gstlal-inspiral-feedstock" xlink:title="gstlal inspiral">
<ellipse fill="#fde725" stroke="black" cx="183.42" cy="-350" rx="58.5" ry="18"/>
<text text-anchor="middle" x="183.42" y="-346.3" font-family="Times,serif" font-size="14.00">gstlal inspiral</text>
</a>
</g>
</g>
<!-- pygobject&#45;&gt;gstlal&#45;inspiral -->
<g id="edge14" class="edge">
<title>pygobject&#45;&gt;gstlal&#45;inspiral</title>
<path fill="none" stroke="black" d="M376.93,-547.63C382.38,-515.33 388.98,-445.54 354.42,-404 329.25,-373.75 287.16,-360.46 251.03,-354.75"/>
<polygon fill="black" stroke="black" points="251.41,-351.27 241.02,-353.33 250.43,-358.2 251.41,-351.27"/>
</g>
<!-- gstlal&#45;calibration -->
<g id="node18" class="node">
<title>gstlal&#45;calibration</title>
<g id="a_node18"><a xlink:href="https://github.com/conda-forge/gstlal-calibration-feedstock" xlink:title="gstlal calibration">
<ellipse fill="#fde725" stroke="black" cx="275.42" cy="-422" rx="69.59" ry="18"/>
<text text-anchor="middle" x="275.42" y="-418.3" font-family="Times,serif" font-size="14.00">gstlal calibration</text>
</a>
</g>
</g>
<!-- pygobject&#45;&gt;gstlal&#45;calibration -->
<g id="edge15" class="edge">
<title>pygobject&#45;&gt;gstlal&#45;calibration</title>
<path fill="none" stroke="black" d="M361.98,-548.43C344.96,-523.77 312.82,-477.2 292.86,-448.27"/>
<polygon fill="black" stroke="black" points="295.64,-446.14 287.08,-439.9 289.88,-450.12 295.64,-446.14"/>
</g>
<!-- hkl -->
<g id="node19" class="node">
<title>hkl</title>
<g id="a_node19"><a xlink:href="https://github.com/conda-forge/hkl-feedstock" xlink:title="hkl">
<ellipse fill="#fde725" stroke="black" cx="428.42" cy="-422" rx="27" ry="18"/>
<text text-anchor="middle" x="428.42" y="-418.3" font-family="Times,serif" font-size="14.00">hkl</text>
</a>
</g>
</g>
<!-- pygobject&#45;&gt;hkl -->
<g id="edge16" class="edge">
<title>pygobject&#45;&gt;hkl</title>
<path fill="none" stroke="black" d="M379.94,-548.15C389.41,-523.71 407.05,-478.17 418.24,-449.29"/>
<polygon fill="black" stroke="black" points="421.55,-450.41 421.9,-439.82 415.02,-447.89 421.55,-450.41"/>
</g>
<!-- libmodulemd -->
<g id="node20" class="node">
<title>libmodulemd</title>
<g id="a_node20"><a xlink:href="https://github.com/conda-forge/libmodulemd-feedstock" xlink:title="libmodulemd">
<ellipse fill="#fde725" stroke="black" cx="483.42" cy="-350" rx="58.5" ry="18"/>
<text text-anchor="middle" x="483.42" y="-346.3" font-family="Times,serif" font-size="14.00">libmodulemd</text>
</a>
</g>
</g>
<!-- pygobject&#45;&gt;libmodulemd -->
<g id="edge17" class="edge">
<title>pygobject&#45;&gt;libmodulemd</title>
<path fill="none" stroke="black" d="M389.08,-548.74C409.8,-526.23 445.85,-483.44 464.42,-440 472.84,-420.3 477.67,-396.49 480.35,-378.46"/>
<polygon fill="black" stroke="black" points="483.85,-378.71 481.72,-368.33 476.91,-377.77 483.85,-378.71"/>
</g>
<!-- gst&#45;python&#45;&gt;gstlal&#45;ugly -->
<g id="edge18" class="edge">
<title>gst&#45;python&#45;&gt;gstlal&#45;ugly</title>
<path fill="none" stroke="black" d="M153.52,-478.33C136.8,-468.06 114.26,-454.22 95.91,-442.95"/>
<polygon fill="black" stroke="black" points="97.64,-439.91 87.28,-437.65 93.97,-445.87 97.64,-439.91"/>
</g>
<!-- gst&#45;python&#45;&gt;gstlal&#45;burst -->
<g id="edge19" class="edge">
<title>gst&#45;python&#45;&gt;gstlal&#45;burst</title>
<path fill="none" stroke="black" d="M168.72,-476.19C158.58,-457.46 140.6,-426.81 120.42,-404 110.34,-392.61 97.71,-381.61 86.34,-372.62"/>
<polygon fill="black" stroke="black" points="88.39,-369.78 78.33,-366.45 84.11,-375.32 88.39,-369.78"/>
</g>
<!-- gst&#45;python&#45;&gt;gstlal&#45;inspiral -->
<g id="edge20" class="edge">
<title>gst&#45;python&#45;&gt;gstlal&#45;inspiral</title>
<path fill="none" stroke="black" d="M178.14,-475.87C179.16,-451.67 181.04,-407.21 182.26,-378.39"/>
<polygon fill="black" stroke="black" points="185.77,-378.33 182.69,-368.19 178.77,-378.03 185.77,-378.33"/>
</g>
<!-- gst&#45;python&#45;&gt;gstlal&#45;calibration -->
<g id="edge21" class="edge">
<title>gst&#45;python&#45;&gt;gstlal&#45;calibration</title>
<path fill="none" stroke="black" d="M198.68,-477.81C212.05,-468.26 229.52,-455.79 244.41,-445.15"/>
<polygon fill="black" stroke="black" points="246.73,-447.79 252.83,-439.13 242.66,-442.1 246.73,-447.79"/>
</g>
<!-- gstlal&#45;ugly&#45;&gt;gstlal&#45;burst -->
<g id="edge22" class="edge">
<title>gstlal&#45;ugly&#45;&gt;gstlal&#45;burst</title>
<path fill="none" stroke="black" d="M61.69,-403.7C60.92,-395.98 59.99,-386.71 59.13,-378.11"/>
<polygon fill="black" stroke="black" points="62.61,-377.71 58.13,-368.1 55.64,-378.4 62.61,-377.71"/>
</g>
<!-- gstlal&#45;ugly&#45;&gt;gstlal&#45;inspiral -->
<g id="edge23" class="edge">
<title>gstlal&#45;ugly&#45;&gt;gstlal&#45;inspiral</title>
<path fill="none" stroke="black" d="M88.28,-406.5C105.7,-396.33 129.23,-382.61 148.53,-371.35"/>
<polygon fill="black" stroke="black" points="150.47,-374.27 157.34,-366.21 146.94,-368.23 150.47,-374.27"/>
</g>
<!-- createrepo_c -->
<g id="node21" class="node">
<title>createrepo_c</title>
<g id="a_node21"><a xlink:href="https://github.com/conda-forge/createrepo_c-feedstock" xlink:title="createrepo_c">
<ellipse fill="#fde725" stroke="black" cx="483.42" cy="-278" rx="56" ry="18"/>
<text text-anchor="middle" x="483.42" y="-274.3" font-family="Times,serif" font-size="14.00">createrepo_c</text>
</a>
</g>
</g>
<!-- libmodulemd&#45;&gt;createrepo_c -->
<g id="edge24" class="edge">
<title>libmodulemd&#45;&gt;createrepo_c</title>
<path fill="none" stroke="black" d="M483.42,-331.7C483.42,-323.98 483.42,-314.71 483.42,-306.11"/>
<polygon fill="black" stroke="black" points="486.92,-306.1 483.42,-296.1 479.92,-306.1 486.92,-306.1"/>
</g>
<!-- cem -->
<g id="node25" class="node">
<title>cem</title>
<g id="a_node25"><a xlink:href="https://github.com/conda-forge/cem-feedstock/pull/5" xlink:title="cem ❎">
<ellipse fill="#31688e" stroke="black" cx="1597.42" cy="-350" rx="37.89" ry="18"/>
<text text-anchor="middle" x="1597.42" y="-346.3" font-family="Times,serif" font-size="14.00" fill="white">cem ❎</text>
</a>
</g>
</g>
<!-- libsecret&#45;&gt;cem -->
<!-- wxpython -->
<g id="node23" class="node">
<title>wxpython</title>
<g id="a_node23"><a xlink:href="https://github.com/conda-forge/wxpython-feedstock" xlink:title="wxpython">
<ellipse fill="#fde725" stroke="black" cx="1491.42" cy="-386" rx="46.29" ry="18"/>
<text text-anchor="middle" x="1491.42" y="-382.3" font-family="Times,serif" font-size="14.00">wxpython</text>
</a>
</g>
</g>
<!-- gtk2 -->
<g id="node24" class="node">
<title>gtk2</title>
<g id="a_node24"><a xlink:href="https://github.com/conda-forge/gtk2-feedstock" xlink:title="gtk2">
<ellipse fill="#35b779" stroke="black" cx="1400.42" cy="-530" rx="27" ry="18"/>
<text text-anchor="middle" x="1400.42" y="-526.3" font-family="Times,serif" font-size="14.00">gtk2</text>
</a>
</g>
</g>
<!-- gtk2&#45;&gt;gnuplot -->
<g id="edge26" class="edge">
<title>gtk2&#45;&gt;gnuplot</title>
<path fill="none" stroke="black" d="M1400.42,-511.7C1400.42,-503.98 1400.42,-494.71 1400.42,-486.11"/>
<polygon fill="black" stroke="black" points="1403.92,-486.1 1400.42,-476.1 1396.92,-486.1 1403.92,-486.1"/>
</g>
<!-- gtk2&#45;&gt;imagemagick -->
<g id="edge27" class="edge">
<title>gtk2&#45;&gt;imagemagick</title>
<path fill="none" stroke="black" d="M1374.55,-524.3C1326.77,-515.53 1221.5,-495.74 1133.42,-476 1128.76,-474.96 1123.94,-473.84 1119.11,-472.68"/>
<polygon fill="black" stroke="black" points="1119.78,-469.24 1109.24,-470.29 1118.13,-476.05 1119.78,-469.24"/>
</g>
<!-- gtk2&#45;&gt;wxpython -->
<g id="edge28" class="edge">
<title>gtk2&#45;&gt;wxpython</title>
<path fill="none" stroke="black" d="M1415.13,-514.57C1425.02,-504.38 1437.94,-490.08 1447.42,-476 1460.73,-456.21 1472.51,-431.81 1480.52,-413.57"/>
<polygon fill="black" stroke="black" points="1483.84,-414.7 1484.57,-404.13 1477.41,-411.94 1483.84,-414.7"/>
</g>
<!-- libical -->
<g id="node26" class="node">
<title>libical</title>
<g id="a_node26"><a xlink:href="https://github.com/conda-forge/libical-feedstock/pull/8" xlink:title="libical ❎">
<ellipse fill="#31688e" stroke="black" cx="1597.42" cy="-278" rx="44.39" ry="18"/>
<text text-anchor="middle" x="1597.42" y="-274.3" font-family="Times,serif" font-size="14.00" fill="white">libical ❎</text>
</a>
</g>
</g>
<!-- cem&#45;&gt;libical -->
<!-- srm&#45;ifce -->
<g id="node27" class="node">
<title>srm&#45;ifce</title>
<g id="a_node27"><a xlink:href="https://github.com/conda-forge/srm-ifce-feedstock/pull/5" xlink:title="srm ifce ❎">
<ellipse fill="#31688e" stroke="black" cx="436.42" cy="-234" rx="52" ry="18"/>
<text text-anchor="middle" x="436.42" y="-230.3" font-family="Times,serif" font-size="14.00" fill="white">srm ifce ❎</text>
</a>
</g>
</g>
<!-- gfal2 -->
<g id="node28" class="node">
<title>gfal2</title>
<g id="a_node28"><a xlink:href="https://github.com/conda-forge/gfal2-feedstock" xlink:title="gfal2">
<ellipse fill="#fde725" stroke="black" cx="436.42" cy="-162" rx="28.7" ry="18"/>
<text text-anchor="middle" x="436.42" y="-158.3" font-family="Times,serif" font-size="14.00">gfal2</text>
</a>
</g>
</g>
<!-- srm&#45;ifce&#45;&gt;gfal2 -->
<g id="edge31" class="edge">
<title>srm&#45;ifce&#45;&gt;gfal2</title>
<path fill="none" stroke="black" d="M436.42,-215.7C436.42,-207.98 436.42,-198.71 436.42,-190.11"/>
<polygon fill="black" stroke="black" points="439.92,-190.1 436.42,-180.1 432.92,-190.1 439.92,-190.1"/>
</g>
<!-- python&#45;gfal2 -->
<g id="node29" class="node">
<title>python&#45;gfal2</title>
<g id="a_node29"><a xlink:href="https://github.com/conda-forge/python-gfal2-feedstock" xlink:title="python gfal2">
<ellipse fill="#fde725" stroke="black" cx="394.42" cy="-90" rx="56" ry="18"/>
<text text-anchor="middle" x="394.42" y="-86.3" font-family="Times,serif" font-size="14.00">python gfal2</text>
</a>
</g>
</g>
<!-- gfal2&#45;&gt;python&#45;gfal2 -->
<g id="edge32" class="edge">
<title>gfal2&#45;&gt;python&#45;gfal2</title>
<path fill="none" stroke="black" d="M426.68,-144.76C421.68,-136.44 415.48,-126.1 409.85,-116.73"/>
<polygon fill="black" stroke="black" points="412.84,-114.9 404.69,-108.12 406.84,-118.5 412.84,-114.9"/>
</g>
<!-- nordugrid&#45;arc -->
<g id="node30" class="node">
<title>nordugrid&#45;arc</title>
<g id="a_node30"><a xlink:href="https://github.com/conda-forge/nordugrid-arc-feedstock" xlink:title="nordugrid arc">
<ellipse fill="#fde725" stroke="black" cx="478.42" cy="-18" rx="58.5" ry="18"/>
<text text-anchor="middle" x="478.42" y="-14.3" font-family="Times,serif" font-size="14.00">nordugrid arc</text>
</a>
</g>
</g>
<!-- gfal2&#45;&gt;nordugrid&#45;arc -->
<g id="edge33" class="edge">
<title>gfal2&#45;&gt;nordugrid&#45;arc</title>
<path fill="none" stroke="black" d="M444.54,-144.62C449.39,-134.31 455.38,-120.61 459.42,-108 465.95,-87.59 470.89,-63.83 474.1,-45.99"/>
<polygon fill="black" stroke="black" points="477.57,-46.44 475.83,-35.99 470.68,-45.25 477.57,-46.44"/>
</g>
<!-- openslide -->
<g id="node31" class="node">
<title>openslide</title>
<g id="a_node31"><a xlink:href="https://github.com/conda-forge/openslide-feedstock" xlink:title="openslide">
<ellipse fill="#35b779" stroke="black" cx="1186.42" cy="-458" rx="44.39" ry="18"/>
<text text-anchor="middle" x="1186.42" y="-454.3" font-family="Times,serif" font-size="14.00">openslide</text>
</a>
</g>
</g>
<!-- openslide&#45;&gt;libvips -->
<g id="edge34" class="edge">
<title>openslide&#45;&gt;libvips</title>
<path fill="none" stroke="black" d="M1172.5,-440.76C1164.74,-431.71 1154.95,-420.29 1146.39,-410.3"/>
<polygon fill="black" stroke="black" points="1149.01,-407.98 1139.84,-402.67 1143.7,-412.54 1149.01,-407.98"/>
</g>
<!-- gcab -->
<g id="node32" class="node">
<title>gcab</title>
<g id="a_node32"><a xlink:href="https://github.com/conda-forge/gcab-feedstock/pull/5" xlink:title="gcab ✓">
<ellipse fill="#31688e" stroke="black" cx="1210.42" cy="-162" rx="37.89" ry="18"/>
<text text-anchor="middle" x="1210.42" y="-158.3" font-family="Times,serif" font-size="14.00" fill="white">gcab ✓</text>
</a>
</g>
</g>
<!-- msitools -->
<g id="node33" class="node">
<title>msitools</title>
<g id="a_node33"><a xlink:href="https://github.com/conda-forge/msitools-feedstock" xlink:title="msitools">
<ellipse fill="#fde725" stroke="black" cx="1210.42" cy="-90" rx="41" ry="18"/>
<text text-anchor="middle" x="1210.42" y="-86.3" font-family="Times,serif" font-size="14.00">msitools</text>
</a>
</g>
</g>
<!-- gcab&#45;&gt;msitools -->
<g id="edge35" class="edge">
<title>gcab&#45;&gt;msitools</title>
<path fill="none" stroke="black" d="M1210.42,-143.7C1210.42,-135.98 1210.42,-126.71 1210.42,-118.11"/>
<polygon fill="black" stroke="black" points="1213.92,-118.1 1210.42,-108.1 1206.92,-118.1 1213.92,-118.1"/>
</g>
<!-- gtk3 -->
<g id="node34" class="node">
<title>gtk3</title>
<g id="a_node34"><a xlink:href="https://github.com/conda-forge/gtk3-feedstock" xlink:title="gtk3">
<ellipse fill="#35b779" stroke="black" cx="732.42" cy="-638" rx="27" ry="18"/>
<text text-anchor="middle" x="732.42" y="-634.3" font-family="Times,serif" font-size="14.00">gtk3</text>
</a>
</g>
</g>
<!-- gtk3&#45;&gt;pygobject -->
<g id="edge36" class="edge">
<title>gtk3&#45;&gt;pygobject</title>
<path fill="none" stroke="black" d="M706.89,-632.02C647.86,-620.51 501.09,-591.89 423.44,-576.75"/>
<polygon fill="black" stroke="black" points="423.89,-573.28 413.41,-574.8 422.55,-580.15 423.89,-573.28"/>
</g>
<!-- gtkmm -->
<g id="node35" class="node">
<title>gtkmm</title>
<g id="a_node35"><a xlink:href="https://github.com/conda-forge/gtkmm-feedstock" xlink:title="gtkmm">
<ellipse fill="#fde725" stroke="black" cx="685.42" cy="-566" rx="36.5" ry="18"/>
<text text-anchor="middle" x="685.42" y="-562.3" font-family="Times,serif" font-size="14.00">gtkmm</text>
</a>
</g>
</g>
<!-- gtk3&#45;&gt;gtkmm -->
<g id="edge37" class="edge">
<title>gtk3&#45;&gt;gtkmm</title>
<path fill="none" stroke="black" d="M721.75,-621.12C715.95,-612.47 708.63,-601.58 702.09,-591.83"/>
<polygon fill="black" stroke="black" points="704.85,-589.66 696.37,-583.31 699.03,-593.56 704.85,-589.66"/>
</g>
<!-- stoken -->
<g id="node36" class="node">
<title>stoken</title>
<g id="a_node36"><a xlink:href="https://github.com/conda-forge/stoken-feedstock" xlink:title="stoken">
<ellipse fill="#fde725" stroke="black" cx="765.42" cy="-494" rx="34" ry="18"/>
<text text-anchor="middle" x="765.42" y="-490.3" font-family="Times,serif" font-size="14.00">stoken</text>
</a>
</g>
</g>
<!-- gtk3&#45;&gt;stoken -->
<g id="edge38" class="edge">
<title>gtk3&#45;&gt;stoken</title>
<path fill="none" stroke="black" d="M736.33,-620.15C741.96,-595.94 752.39,-551.05 759.11,-522.13"/>
<polygon fill="black" stroke="black" points="762.55,-522.8 761.4,-512.27 755.73,-521.22 762.55,-522.8"/>
</g>
<!-- wxwidgets -->
<g id="node37" class="node">
<title>wxwidgets</title>
<g id="a_node37"><a xlink:href="https://github.com/conda-forge/wxwidgets-feedstock" xlink:title="wxwidgets">
<ellipse fill="#fde725" stroke="black" cx="827.42" cy="-422" rx="48.99" ry="18"/>
<text text-anchor="middle" x="827.42" y="-418.3" font-family="Times,serif" font-size="14.00">wxwidgets</text>
</a>
</g>
</g>
<!-- gtk3&#45;&gt;wxwidgets -->
<g id="edge39" class="edge">
<title>gtk3&#45;&gt;wxwidgets</title>
<path fill="none" stroke="black" d="M744.07,-621.72C760.82,-599.02 791.53,-554.48 808.42,-512 816.33,-492.09 821.19,-468.29 824.01,-450.32"/>
<polygon fill="black" stroke="black" points="827.51,-450.63 825.48,-440.23 820.58,-449.62 827.51,-450.63"/>
</g>
<!-- cadabra2 -->
<g id="node38" class="node">
<title>cadabra2</title>
<g id="a_node38"><a xlink:href="https://github.com/conda-forge/cadabra2-feedstock" xlink:title="cadabra2">
<ellipse fill="#fde725" stroke="black" cx="671.42" cy="-494" rx="42.49" ry="18"/>
<text text-anchor="middle" x="671.42" y="-490.3" font-family="Times,serif" font-size="14.00">cadabra2</text>
</a>
</g>
</g>
<!-- gtkmm&#45;&gt;cadabra2 -->
<g id="edge40" class="edge">
<title>gtkmm&#45;&gt;cadabra2</title>
<path fill="none" stroke="black" d="M682.03,-548.05C680.49,-540.35 678.62,-531.03 676.89,-522.36"/>
<polygon fill="black" stroke="black" points="680.27,-521.39 674.87,-512.28 673.4,-522.77 680.27,-521.39"/>
</g>
</g>
</svg>
