<?xml version="1.0" encoding="UTF-8" standalone="no"?>
<!DOCTYPE svg PUBLIC "-//W3C//DTD SVG 1.1//EN"
 "http://www.w3.org/Graphics/SVG/1.1/DTD/svg11.dtd">
<!-- Generated by graphviz version 2.48.0 (20210717.2242)
 -->
<!-- Pages: 1 -->
<svg width="1375pt" height="1212pt"
 viewBox="0.00 0.00 1374.59 1212.00" xmlns="http://www.w3.org/2000/svg" xmlns:xlink="http://www.w3.org/1999/xlink">
<g id="graph0" class="graph" transform="scale(1 1) rotate(0) translate(4 1208)">
<polygon fill="white" stroke="transparent" points="-4,4 -4,-1208 1370.59,-1208 1370.59,4 -4,4"/>
<!-- giac -->
<g id="node1" class="node">
<title>giac</title>
<g id="a_node1"><a xlink:href="https://github.com/conda-forge/giac-feedstock/pull/27" xlink:title="giac ✓">
<ellipse fill="#31688e" stroke="black" cx="376.5" cy="-90" rx="37.09" ry="18"/>
<text text-anchor="middle" x="376.5" y="-86.3" font-family="Times,serif" font-size="14.00" fill="white">giac ✓</text>
</a>
</g>
</g>
<!-- sagelib -->
<g id="node2" class="node">
<title>sagelib</title>
<g id="a_node2"><a xlink:href="https://github.com/conda-forge/sagelib-feedstock" xlink:title="sagelib">
<ellipse fill="#fde725" stroke="black" cx="376.5" cy="-18" rx="44.39" ry="18"/>
<text text-anchor="middle" x="376.5" y="-14.3" font-family="Times,serif" font-size="14.00">sagelib</text>
</a>
</g>
</g>
<!-- giac&#45;&gt;sagelib -->
<g id="edge1" class="edge">
<title>giac&#45;&gt;sagelib</title>
<path fill="none" stroke="black" d="M376.5,-71.7C376.5,-63.98 376.5,-54.71 376.5,-46.11"/>
<polygon fill="black" stroke="black" points="380,-46.1 376.5,-36.1 373,-46.1 380,-46.1"/>
</g>
<!-- libdiffpy -->
<g id="node3" class="node">
<title>libdiffpy</title>
<g id="a_node3"><a xlink:href="https://github.com/conda-forge/libdiffpy-feedstock/pull/8" xlink:title="libdiffpy ❎">
<ellipse fill="#31688e" stroke="black" cx="873.5" cy="-1186" rx="63.09" ry="18"/>
<text text-anchor="middle" x="873.5" y="-1182.3" font-family="Times,serif" font-size="14.00" fill="white">libdiffpy ❎</text>
</a>
</g>
</g>
<!-- ncl -->
<g id="node4" class="node">
<title>ncl</title>
<g id="a_node4"><a xlink:href="https://github.com/conda-forge/ncl-feedstock" xlink:title="ncl">
<ellipse fill="#ff8c00" stroke="black" cx="873.5" cy="-1114" rx="27" ry="18"/>
<text text-anchor="middle" x="873.5" y="-1110.3" font-family="Times,serif" font-size="14.00">ncl</text>
</a>
</g>
</g>
<!-- libdiffpy&#45;&gt;ncl -->
<!-- qgis -->
<g id="node5" class="node">
<title>qgis</title>
<g id="a_node5"><a xlink:href="https://github.com/conda-forge/qgis-feedstock" xlink:title="qgis">
<ellipse fill="#ff8c00" stroke="black" cx="873.5" cy="-1042" rx="30.59" ry="18"/>
<text text-anchor="middle" x="873.5" y="-1038.3" font-family="Times,serif" font-size="14.00">qgis</text>
</a>
</g>
</g>
<!-- ncl&#45;&gt;qgis -->
<!-- root5 -->
<g id="node6" class="node">
<title>root5</title>
<g id="a_node6"><a xlink:href="https://github.com/conda-forge/root5-feedstock" xlink:title="root5">
<ellipse fill="#ff8c00" stroke="black" cx="873.5" cy="-970" rx="36" ry="18"/>
<text text-anchor="middle" x="873.5" y="-966.3" font-family="Times,serif" font-size="14.00">root5</text>
</a>
</g>
</g>
<!-- qgis&#45;&gt;root5 -->
<!-- slda -->
<g id="node13" class="node">
<title>slda</title>
<g id="a_node13"><a xlink:href="https://github.com/conda-forge/slda-feedstock/pull/14" xlink:title="slda ✓">
<ellipse fill="#31688e" stroke="black" cx="873.5" cy="-898" rx="37.09" ry="18"/>
<text text-anchor="middle" x="873.5" y="-894.3" font-family="Times,serif" font-size="14.00" fill="white">slda ✓</text>
</a>
</g>
</g>
<!-- root5&#45;&gt;slda -->
<!-- r&#45;base -->
<g id="node7" class="node">
<title>r&#45;base</title>
<g id="a_node7"><a xlink:href="https://github.com/conda-forge/r-base-feedstock" xlink:title="r base">
<ellipse fill="#ff8c00" stroke="black" cx="1122.5" cy="-934" rx="39.79" ry="18"/>
<text text-anchor="middle" x="1122.5" y="-930.3" font-family="Times,serif" font-size="14.00">r base</text>
</a>
</g>
</g>
<!-- r&#45;gsl -->
<g id="node8" class="node">
<title>r&#45;gsl</title>
<g id="a_node8"><a xlink:href="https://github.com/conda-forge/r-gsl-feedstock" xlink:title="r gsl">
<ellipse fill="#fde725" stroke="black" cx="1062.5" cy="-862" rx="32" ry="18"/>
<text text-anchor="middle" x="1062.5" y="-858.3" font-family="Times,serif" font-size="14.00">r gsl</text>
</a>
</g>
</g>
<!-- r&#45;base&#45;&gt;r&#45;gsl -->
<g id="edge5" class="edge">
<title>r&#45;base&#45;&gt;r&#45;gsl</title>
<path fill="none" stroke="black" d="M1108.58,-916.76C1100.83,-907.71 1091.03,-896.29 1082.47,-886.3"/>
<polygon fill="black" stroke="black" points="1085.09,-883.98 1075.93,-878.67 1079.78,-888.54 1085.09,-883.98"/>
</g>
<!-- r&#45;rcppgsl -->
<g id="node9" class="node">
<title>r&#45;rcppgsl</title>
<g id="a_node9"><a xlink:href="https://github.com/conda-forge/r-rcppgsl-feedstock" xlink:title="r rcppgsl">
<ellipse fill="#fde725" stroke="black" cx="1203.5" cy="-790" rx="52.79" ry="18"/>
<text text-anchor="middle" x="1203.5" y="-786.3" font-family="Times,serif" font-size="14.00">r rcppgsl</text>
</a>
</g>
</g>
<!-- r&#45;base&#45;&gt;r&#45;rcppgsl -->
<g id="edge6" class="edge">
<title>r&#45;base&#45;&gt;r&#45;rcppgsl</title>
<path fill="none" stroke="black" d="M1131.95,-916.43C1145.96,-891.88 1172.35,-845.6 1188.87,-816.65"/>
<polygon fill="black" stroke="black" points="1191.94,-818.32 1193.86,-807.9 1185.86,-814.85 1191.94,-818.32"/>
</g>
<!-- r&#45;topicmodels -->
<g id="node10" class="node">
<title>r&#45;topicmodels</title>
<g id="a_node10"><a xlink:href="https://github.com/conda-forge/r-topicmodels-feedstock" xlink:title="r topicmodels">
<ellipse fill="#fde725" stroke="black" cx="1292.5" cy="-718" rx="74.19" ry="18"/>
<text text-anchor="middle" x="1292.5" y="-714.3" font-family="Times,serif" font-size="14.00">r topicmodels</text>
</a>
</g>
</g>
<!-- r&#45;base&#45;&gt;r&#45;topicmodels -->
<g id="edge7" class="edge">
<title>r&#45;base&#45;&gt;r&#45;topicmodels</title>
<path fill="none" stroke="black" d="M1145.1,-919.16C1176.64,-898.71 1233.56,-857.44 1265.5,-808 1277.64,-789.2 1284.55,-764.68 1288.33,-746.13"/>
<polygon fill="black" stroke="black" points="1291.78,-746.73 1290.17,-736.26 1284.9,-745.45 1291.78,-746.73"/>
</g>
<!-- r&#45;aws -->
<g id="node11" class="node">
<title>r&#45;aws</title>
<g id="a_node11"><a xlink:href="https://github.com/conda-forge/r-aws-feedstock" xlink:title="r aws">
<ellipse fill="#fde725" stroke="black" cx="1030.5" cy="-790" rx="36.5" ry="18"/>
<text text-anchor="middle" x="1030.5" y="-786.3" font-family="Times,serif" font-size="14.00">r aws</text>
</a>
</g>
</g>
<!-- r&#45;base&#45;&gt;r&#45;aws -->
<g id="edge8" class="edge">
<title>r&#45;base&#45;&gt;r&#45;aws</title>
<path fill="none" stroke="black" d="M1087.92,-924.83C1064.7,-917.35 1035.84,-903.72 1021.5,-880 1010.18,-861.27 1014.05,-836.2 1019.81,-817.44"/>
<polygon fill="black" stroke="black" points="1023.2,-818.34 1023.13,-807.74 1016.58,-816.07 1023.2,-818.34"/>
</g>
<!-- r&#45;rcppziggurat -->
<g id="node12" class="node">
<title>r&#45;rcppziggurat</title>
<g id="a_node12"><a xlink:href="https://github.com/conda-forge/r-rcppziggurat-feedstock" xlink:title="r rcppziggurat">
<ellipse fill="#fde725" stroke="black" cx="1122.5" cy="-718" rx="78" ry="18"/>
<text text-anchor="middle" x="1122.5" y="-714.3" font-family="Times,serif" font-size="14.00">r rcppziggurat</text>
</a>
</g>
</g>
<!-- r&#45;base&#45;&gt;r&#45;rcppziggurat -->
<g id="edge9" class="edge">
<title>r&#45;base&#45;&gt;r&#45;rcppziggurat</title>
<path fill="none" stroke="black" d="M1122.5,-915.85C1122.5,-878.83 1122.5,-791.18 1122.5,-746.39"/>
<polygon fill="black" stroke="black" points="1126,-746.23 1122.5,-736.23 1119,-746.23 1126,-746.23"/>
</g>
<!-- r&#45;gsl&#45;&gt;r&#45;aws -->
<g id="edge10" class="edge">
<title>r&#45;gsl&#45;&gt;r&#45;aws</title>
<path fill="none" stroke="black" d="M1054.92,-844.41C1051.19,-836.25 1046.6,-826.22 1042.42,-817.07"/>
<polygon fill="black" stroke="black" points="1045.59,-815.6 1038.25,-807.96 1039.23,-818.51 1045.59,-815.6"/>
</g>
<!-- r&#45;rcppgsl&#45;&gt;r&#45;rcppziggurat -->
<g id="edge11" class="edge">
<title>r&#45;rcppgsl&#45;&gt;r&#45;rcppziggurat</title>
<path fill="none" stroke="black" d="M1185.12,-773.12C1174.58,-764 1161.15,-752.4 1149.43,-742.28"/>
<polygon fill="black" stroke="black" points="1151.51,-739.44 1141.65,-735.55 1146.93,-744.74 1151.51,-739.44"/>
</g>
<!-- machine&#45;learning&#45;py -->
<g id="node14" class="node">
<title>machine&#45;learning&#45;py</title>
<g id="a_node14"><a xlink:href="https://github.com/conda-forge/machine-learning-py-feedstock/pull/8" xlink:title="machine learning py ✓">
<ellipse fill="#31688e" stroke="black" cx="873.5" cy="-826" rx="112.5" ry="18"/>
<text text-anchor="middle" x="873.5" y="-822.3" font-family="Times,serif" font-size="14.00" fill="white">machine learning py ✓</text>
</a>
</g>
</g>
<!-- slda&#45;&gt;machine&#45;learning&#45;py -->
<!-- gnuastro -->
<g id="node29" class="node">
<title>gnuastro</title>
<g id="a_node29"><a xlink:href="https://github.com/conda-forge/gnuastro-feedstock/pull/10" xlink:title="gnuastro ✓">
<ellipse fill="#31688e" stroke="black" cx="873.5" cy="-754" rx="60" ry="18"/>
<text text-anchor="middle" x="873.5" y="-750.3" font-family="Times,serif" font-size="14.00" fill="white">gnuastro ✓</text>
</a>
</g>
</g>
<!-- machine&#45;learning&#45;py&#45;&gt;gnuastro -->
<!-- lalinference -->
<g id="node15" class="node">
<title>lalinference</title>
<g id="a_node15"><a xlink:href="https://github.com/conda-forge/lalinference-feedstock/pull/37" xlink:title="lalinference ❎">
<ellipse fill="#31688e" stroke="black" cx="79.5" cy="-934" rx="79.5" ry="18"/>
<text text-anchor="middle" x="79.5" y="-930.3" font-family="Times,serif" font-size="14.00" fill="white">lalinference ❎</text>
</a>
</g>
</g>
<!-- lalapps -->
<g id="node16" class="node">
<title>lalapps</title>
<g id="a_node16"><a xlink:href="https://github.com/conda-forge/lalapps-feedstock" xlink:title="lalapps">
<ellipse fill="#fde725" stroke="black" cx="145.5" cy="-862" rx="44.39" ry="18"/>
<text text-anchor="middle" x="145.5" y="-858.3" font-family="Times,serif" font-size="14.00">lalapps</text>
</a>
</g>
</g>
<!-- lalinference&#45;&gt;lalapps -->
<g id="edge14" class="edge">
<title>lalinference&#45;&gt;lalapps</title>
<path fill="none" stroke="black" d="M95.48,-916.05C103.79,-907.24 114.08,-896.33 123.16,-886.69"/>
<polygon fill="black" stroke="black" points="125.81,-888.98 130.12,-879.31 120.72,-884.18 125.81,-888.98"/>
</g>
<!-- bayeswave -->
<g id="node17" class="node">
<title>bayeswave</title>
<g id="a_node17"><a xlink:href="https://github.com/conda-forge/bayeswave-feedstock" xlink:title="bayeswave">
<ellipse fill="#fde725" stroke="black" cx="80.5" cy="-718" rx="61.99" ry="18"/>
<text text-anchor="middle" x="80.5" y="-714.3" font-family="Times,serif" font-size="14.00">bayeswave</text>
</a>
</g>
</g>
<!-- lalinference&#45;&gt;bayeswave -->
<g id="edge15" class="edge">
<title>lalinference&#45;&gt;bayeswave</title>
<path fill="none" stroke="black" d="M79.58,-915.85C79.75,-878.83 80.16,-791.18 80.37,-746.39"/>
<polygon fill="black" stroke="black" points="83.87,-746.25 80.42,-736.23 76.87,-746.22 83.87,-746.25"/>
</g>
<!-- lalapps&#45;&gt;bayeswave -->
<g id="edge16" class="edge">
<title>lalapps&#45;&gt;bayeswave</title>
<path fill="none" stroke="black" d="M128.18,-845.42C118.32,-835.62 106.57,-822.17 99.5,-808 89.83,-788.62 85.07,-764.47 82.73,-746.22"/>
<polygon fill="black" stroke="black" points="86.21,-745.79 81.62,-736.24 79.25,-746.56 86.21,-745.79"/>
</g>
<!-- ligo.skymap -->
<g id="node18" class="node">
<title>ligo.skymap</title>
<g id="a_node18"><a xlink:href="https://github.com/conda-forge/ligo.skymap-feedstock" xlink:title="ligo skymap">
<ellipse fill="#fde725" stroke="black" cx="175.5" cy="-790" rx="66.5" ry="18"/>
<text text-anchor="middle" x="175.5" y="-786.3" font-family="Times,serif" font-size="14.00">ligo skymap</text>
</a>
</g>
</g>
<!-- lalapps&#45;&gt;ligo.skymap -->
<g id="edge17" class="edge">
<title>lalapps&#45;&gt;ligo.skymap</title>
<path fill="none" stroke="black" d="M152.76,-844.05C156.18,-836.09 160.32,-826.41 164.14,-817.51"/>
<polygon fill="black" stroke="black" points="167.37,-818.85 168.1,-808.28 160.94,-816.09 167.37,-818.85"/>
</g>
<!-- gstlal&#45;inspiral -->
<g id="node19" class="node">
<title>gstlal&#45;inspiral</title>
<g id="a_node19"><a xlink:href="https://github.com/conda-forge/gstlal-inspiral-feedstock" xlink:title="gstlal inspiral">
<ellipse fill="#fde725" stroke="black" cx="334.5" cy="-790" rx="74.99" ry="18"/>
<text text-anchor="middle" x="334.5" y="-786.3" font-family="Times,serif" font-size="14.00">gstlal inspiral</text>
</a>
</g>
</g>
<!-- lalapps&#45;&gt;gstlal&#45;inspiral -->
<g id="edge18" class="edge">
<title>lalapps&#45;&gt;gstlal&#45;inspiral</title>
<path fill="none" stroke="black" d="M177.13,-849.28C206.78,-838.3 251.54,-821.72 285.76,-809.05"/>
<polygon fill="black" stroke="black" points="287.39,-812.18 295.56,-805.42 284.96,-805.61 287.39,-812.18"/>
</g>
<!-- ligo.skymap&#45;&gt;bayeswave -->
<g id="edge19" class="edge">
<title>ligo.skymap&#45;&gt;bayeswave</title>
<path fill="none" stroke="black" d="M153.47,-772.76C140.67,-763.33 124.36,-751.32 110.41,-741.04"/>
<polygon fill="black" stroke="black" points="112.21,-738.02 102.09,-734.91 108.06,-743.66 112.21,-738.02"/>
</g>
<!-- root -->
<g id="node20" class="node">
<title>root</title>
<g id="a_node20"><a xlink:href="https://github.com/conda-forge/root-feedstock" xlink:title="root">
<ellipse fill="#ff8c00" stroke="black" cx="389.5" cy="-422" rx="30" ry="18"/>
<text text-anchor="middle" x="389.5" y="-418.3" font-family="Times,serif" font-size="14.00">root</text>
</a>
</g>
</g>
<!-- fwlite -->
<g id="node21" class="node">
<title>fwlite</title>
<g id="a_node21"><a xlink:href="https://github.com/conda-forge/fwlite-feedstock" xlink:title="fwlite">
<ellipse fill="#fde725" stroke="black" cx="294.5" cy="-350" rx="37.09" ry="18"/>
<text text-anchor="middle" x="294.5" y="-346.3" font-family="Times,serif" font-size="14.00">fwlite</text>
</a>
</g>
</g>
<!-- root&#45;&gt;fwlite -->
<g id="edge20" class="edge">
<title>root&#45;&gt;fwlite</title>
<path fill="none" stroke="black" d="M371.18,-407.5C357.35,-397.31 338.13,-383.15 322.4,-371.56"/>
<polygon fill="black" stroke="black" points="324.2,-368.53 314.07,-365.42 320.04,-374.17 324.2,-368.53"/>
</g>
<!-- ostaphep -->
<g id="node22" class="node">
<title>ostaphep</title>
<g id="a_node22"><a xlink:href="https://github.com/conda-forge/ostaphep-feedstock" xlink:title="ostaphep">
<ellipse fill="#fde725" stroke="black" cx="337.5" cy="-278" rx="53.5" ry="18"/>
<text text-anchor="middle" x="337.5" y="-274.3" font-family="Times,serif" font-size="14.00">ostaphep</text>
</a>
</g>
</g>
<!-- root&#45;&gt;ostaphep -->
<g id="edge21" class="edge">
<title>root&#45;&gt;ostaphep</title>
<path fill="none" stroke="black" d="M383.33,-404.15C374.43,-379.84 357.88,-334.66 347.3,-305.75"/>
<polygon fill="black" stroke="black" points="350.55,-304.45 343.82,-296.27 343.98,-306.86 350.55,-304.45"/>
</g>
<!-- stackvana&#45;afw -->
<g id="node23" class="node">
<title>stackvana&#45;afw</title>
<g id="a_node23"><a xlink:href="https://github.com/conda-forge/stackvana-afw-feedstock" xlink:title="stackvana afw">
<ellipse fill="#fde725" stroke="black" cx="386.5" cy="-206" rx="76.89" ry="18"/>
<text text-anchor="middle" x="386.5" y="-202.3" font-family="Times,serif" font-size="14.00">stackvana afw</text>
</a>
</g>
</g>
<!-- root&#45;&gt;stackvana&#45;afw -->
<g id="edge22" class="edge">
<title>root&#45;&gt;stackvana&#45;afw</title>
<path fill="none" stroke="black" d="M392.58,-404.02C397.46,-374.6 405.82,-312.27 399.5,-260 398.46,-251.4 396.51,-242.19 394.42,-233.89"/>
<polygon fill="black" stroke="black" points="397.74,-232.75 391.77,-223.99 390.98,-234.56 397.74,-232.75"/>
</g>
<!-- stackvana -->
<g id="node24" class="node">
<title>stackvana</title>
<g id="a_node24"><a xlink:href="https://github.com/conda-forge/stackvana-feedstock" xlink:title="stackvana">
<ellipse fill="#fde725" stroke="black" cx="438.5" cy="-134" rx="57.39" ry="18"/>
<text text-anchor="middle" x="438.5" y="-130.3" font-family="Times,serif" font-size="14.00">stackvana</text>
</a>
</g>
</g>
<!-- root&#45;&gt;stackvana -->
<g id="edge23" class="edge">
<title>root&#45;&gt;stackvana</title>
<path fill="none" stroke="black" d="M399.01,-404.87C417.68,-372.14 458.52,-295.01 472.5,-224 475.59,-208.3 477,-203.35 472.5,-188 469.62,-178.19 464.31,-168.47 458.73,-160.09"/>
<polygon fill="black" stroke="black" points="461.55,-158.02 452.9,-151.9 455.84,-162.07 461.55,-158.02"/>
</g>
<!-- stackvana&#45;afw&#45;&gt;stackvana -->
<g id="edge24" class="edge">
<title>stackvana&#45;afw&#45;&gt;stackvana</title>
<path fill="none" stroke="black" d="M399.09,-188.05C405.35,-179.63 413.04,-169.28 419.95,-159.97"/>
<polygon fill="black" stroke="black" points="422.87,-161.9 426.03,-151.79 417.26,-157.73 422.87,-161.9"/>
</g>
<!-- gstlal -->
<g id="node25" class="node">
<title>gstlal</title>
<g id="a_node25"><a xlink:href="https://github.com/conda-forge/gstlal-feedstock/pull/16" xlink:title="gstlal ❎">
<ellipse fill="#31688e" stroke="black" cx="493.5" cy="-934" rx="50.89" ry="18"/>
<text text-anchor="middle" x="493.5" y="-930.3" font-family="Times,serif" font-size="14.00" fill="white">gstlal ❎</text>
</a>
</g>
</g>
<!-- gstlal&#45;&gt;gstlal&#45;inspiral -->
<g id="edge25" class="edge">
<title>gstlal&#45;&gt;gstlal&#45;inspiral</title>
<path fill="none" stroke="black" d="M475.57,-916.99C447.57,-891.98 393.31,-843.52 360.85,-814.54"/>
<polygon fill="black" stroke="black" points="362.89,-811.66 353.1,-807.61 358.23,-816.88 362.89,-811.66"/>
</g>
<!-- gstlal&#45;ugly -->
<g id="node26" class="node">
<title>gstlal&#45;ugly</title>
<g id="a_node26"><a xlink:href="https://github.com/conda-forge/gstlal-ugly-feedstock" xlink:title="gstlal ugly">
<ellipse fill="#fde725" stroke="black" cx="537.5" cy="-862" rx="60" ry="18"/>
<text text-anchor="middle" x="537.5" y="-858.3" font-family="Times,serif" font-size="14.00">gstlal ugly</text>
</a>
</g>
</g>
<!-- gstlal&#45;&gt;gstlal&#45;ugly -->
<g id="edge26" class="edge">
<title>gstlal&#45;&gt;gstlal&#45;ugly</title>
<path fill="none" stroke="black" d="M504.15,-916.05C509.34,-907.8 515.69,-897.7 521.45,-888.54"/>
<polygon fill="black" stroke="black" points="524.59,-890.12 526.95,-879.79 518.66,-886.39 524.59,-890.12"/>
</g>
<!-- gstlal&#45;burst -->
<g id="node27" class="node">
<title>gstlal&#45;burst</title>
<g id="a_node27"><a xlink:href="https://github.com/conda-forge/gstlal-burst-feedstock" xlink:title="gstlal burst">
<ellipse fill="#fde725" stroke="black" cx="688.5" cy="-790" rx="64.5" ry="18"/>
<text text-anchor="middle" x="688.5" y="-786.3" font-family="Times,serif" font-size="14.00">gstlal burst</text>
</a>
</g>
</g>
<!-- gstlal&#45;&gt;gstlal&#45;burst -->
<g id="edge27" class="edge">
<title>gstlal&#45;&gt;gstlal&#45;burst</title>
<path fill="none" stroke="black" d="M528.27,-920.77C551.65,-911.59 582.47,-897.61 606.5,-880 631.3,-861.83 654.54,-835.35 669.9,-816"/>
<polygon fill="black" stroke="black" points="672.81,-817.96 676.19,-807.92 667.28,-813.67 672.81,-817.96"/>
</g>
<!-- gstlal&#45;calibration -->
<g id="node28" class="node">
<title>gstlal&#45;calibration</title>
<g id="a_node28"><a xlink:href="https://github.com/conda-forge/gstlal-calibration-feedstock" xlink:title="gstlal calibration">
<ellipse fill="#fde725" stroke="black" cx="516.5" cy="-790" rx="89.08" ry="18"/>
<text text-anchor="middle" x="516.5" y="-786.3" font-family="Times,serif" font-size="14.00">gstlal calibration</text>
</a>
</g>
</g>
<!-- gstlal&#45;&gt;gstlal&#45;calibration -->
<g id="edge28" class="edge">
<title>gstlal&#45;&gt;gstlal&#45;calibration</title>
<path fill="none" stroke="black" d="M482.47,-916.29C471.95,-898.18 459.03,-868.56 468.5,-844 472.71,-833.09 480.31,-823.04 488.25,-814.68"/>
<polygon fill="black" stroke="black" points="490.86,-817.02 495.54,-807.52 485.96,-812.03 490.86,-817.02"/>
</g>
<!-- gstlal&#45;ugly&#45;&gt;gstlal&#45;inspiral -->
<g id="edge29" class="edge">
<title>gstlal&#45;ugly&#45;&gt;gstlal&#45;inspiral</title>
<path fill="none" stroke="black" d="M499.79,-848C467.51,-836.87 420.76,-820.74 385.2,-808.48"/>
<polygon fill="black" stroke="black" points="386.09,-805.09 375.49,-805.14 383.81,-811.7 386.09,-805.09"/>
</g>
<!-- gstlal&#45;ugly&#45;&gt;gstlal&#45;burst -->
<g id="edge30" class="edge">
<title>gstlal&#45;ugly&#45;&gt;gstlal&#45;burst</title>
<path fill="none" stroke="black" d="M568.79,-846.5C591.61,-835.91 622.77,-821.47 647.57,-809.97"/>
<polygon fill="black" stroke="black" points="649.13,-813.11 656.73,-805.73 646.19,-806.76 649.13,-813.11"/>
</g>
<!-- gstlal&#45;ugly&#45;&gt;gstlal&#45;calibration -->
<g id="edge31" class="edge">
<title>gstlal&#45;ugly&#45;&gt;gstlal&#45;calibration</title>
<path fill="none" stroke="black" d="M532.42,-844.05C530.08,-836.26 527.25,-826.82 524.62,-818.08"/>
<polygon fill="black" stroke="black" points="527.91,-816.85 521.68,-808.28 521.2,-818.86 527.91,-816.85"/>
</g>
<!-- gwsurrogate -->
<g id="node30" class="node">
<title>gwsurrogate</title>
<g id="a_node30"><a xlink:href="https://github.com/conda-forge/gwsurrogate-feedstock" xlink:title="gwsurrogate">
<ellipse fill="#ff8c00" stroke="black" cx="873.5" cy="-682" rx="69.59" ry="18"/>
<text text-anchor="middle" x="873.5" y="-678.3" font-family="Times,serif" font-size="14.00">gwsurrogate</text>
</a>
</g>
</g>
<!-- gnuastro&#45;&gt;gwsurrogate -->
<!-- neper -->
<g id="node31" class="node">
<title>neper</title>
<g id="a_node31"><a xlink:href="https://github.com/conda-forge/neper-feedstock" xlink:title="neper">
<ellipse fill="#ff8c00" stroke="black" cx="873.5" cy="-610" rx="37.89" ry="18"/>
<text text-anchor="middle" x="873.5" y="-606.3" font-family="Times,serif" font-size="14.00">neper</text>
</a>
</g>
</g>
<!-- gwsurrogate&#45;&gt;neper -->
<!-- polycap -->
<g id="node32" class="node">
<title>polycap</title>
<g id="a_node32"><a xlink:href="https://github.com/conda-forge/polycap-feedstock/pull/9" xlink:title="polycap ❎">
<ellipse fill="#31688e" stroke="black" cx="873.5" cy="-538" rx="60.5" ry="18"/>
<text text-anchor="middle" x="873.5" y="-534.3" font-family="Times,serif" font-size="14.00" fill="white">polycap ❎</text>
</a>
</g>
</g>
<!-- neper&#45;&gt;polycap -->
<!-- gwframes -->
<g id="node33" class="node">
<title>gwframes</title>
<g id="a_node33"><a xlink:href="https://github.com/conda-forge/gwframes-feedstock" xlink:title="gwframes">
<ellipse fill="#000000" stroke="black" cx="873.5" cy="-466" rx="56.59" ry="18"/>
<text text-anchor="middle" x="873.5" y="-462.3" font-family="Times,serif" font-size="14.00" fill="white">gwframes</text>
</a>
</g>
</g>
<!-- polycap&#45;&gt;gwframes -->
<!-- pyrost -->
<g id="node34" class="node">
<title>pyrost</title>
<g id="a_node34"><a xlink:href="https://github.com/conda-forge/pyrost-feedstock/pull/17" xlink:title="pyrost ✓">
<ellipse fill="#31688e" stroke="black" cx="873.5" cy="-314" rx="48.19" ry="18"/>
<text text-anchor="middle" x="873.5" y="-310.3" font-family="Times,serif" font-size="14.00" fill="white">pyrost ✓</text>
</a>
</g>
</g>
<!-- rnmc&#45;native -->
<g id="node35" class="node">
<title>rnmc&#45;native</title>
<g id="a_node35"><a xlink:href="https://github.com/conda-forge/rnmc-native-feedstock/pull/7" xlink:title="rnmc native ❎">
<ellipse fill="#31688e" stroke="black" cx="873.5" cy="-242" rx="80.69" ry="18"/>
<text text-anchor="middle" x="873.5" y="-238.3" font-family="Times,serif" font-size="14.00" fill="white">rnmc native ❎</text>
</a>
</g>
</g>
<!-- pyrost&#45;&gt;rnmc&#45;native -->
<!-- tempo2 -->
<g id="node36" class="node">
<title>tempo2</title>
<g id="a_node36"><a xlink:href="https://github.com/conda-forge/tempo2-feedstock" xlink:title="tempo2">
<ellipse fill="#ff8c00" stroke="black" cx="1180.5" cy="-314" rx="46.29" ry="18"/>
<text text-anchor="middle" x="1180.5" y="-310.3" font-family="Times,serif" font-size="14.00">tempo2</text>
</a>
</g>
</g>
<!-- psrchive -->
<g id="node37" class="node">
<title>psrchive</title>
<g id="a_node37"><a xlink:href="https://github.com/conda-forge/psrchive-feedstock" xlink:title="psrchive">
<ellipse fill="#fde725" stroke="black" cx="1180.5" cy="-242" rx="50.09" ry="18"/>
<text text-anchor="middle" x="1180.5" y="-238.3" font-family="Times,serif" font-size="14.00">psrchive</text>
</a>
</g>
</g>
<!-- tempo2&#45;&gt;psrchive -->
<g id="edge38" class="edge">
<title>tempo2&#45;&gt;psrchive</title>
<path fill="none" stroke="black" d="M1180.5,-295.7C1180.5,-287.98 1180.5,-278.71 1180.5,-270.11"/>
<polygon fill="black" stroke="black" points="1184,-270.1 1180.5,-260.1 1177,-270.1 1184,-270.1"/>
</g>
</g>
</svg>
