<?xml version="1.0" encoding="UTF-8" standalone="no"?>
<!DOCTYPE svg PUBLIC "-//W3C//DTD SVG 1.1//EN"
 "http://www.w3.org/Graphics/SVG/1.1/DTD/svg11.dtd">
<!-- Generated by graphviz version 2.48.0 (20210717.2242)
 -->
<!-- Pages: 1 -->
<svg width="984pt" height="1212pt"
 viewBox="0.00 0.00 984.09 1212.00" xmlns="http://www.w3.org/2000/svg" xmlns:xlink="http://www.w3.org/1999/xlink">
<g id="graph0" class="graph" transform="scale(1 1) rotate(0) translate(4 1208)">
<polygon fill="white" stroke="transparent" points="-4,4 -4,-1208 980.09,-1208 980.09,4 -4,4"/>
<!-- giac -->
<g id="node1" class="node">
<title>giac</title>
<g id="a_node1"><a xlink:href="https://github.com/conda-forge/giac-feedstock/pull/27" xlink:title="giac ✓">
<ellipse fill="#31688e" stroke="black" cx="119.05" cy="-90" rx="37.09" ry="18"/>
<text text-anchor="middle" x="119.05" y="-86.3" font-family="Times,serif" font-size="14.00" fill="white">giac ✓</text>
</a>
</g>
</g>
<!-- sagelib -->
<g id="node2" class="node">
<title>sagelib</title>
<g id="a_node2"><a xlink:href="https://github.com/conda-forge/sagelib-feedstock" xlink:title="sagelib">
<ellipse fill="#fde725" stroke="black" cx="119.05" cy="-18" rx="44.39" ry="18"/>
<text text-anchor="middle" x="119.05" y="-14.3" font-family="Times,serif" font-size="14.00">sagelib</text>
</a>
</g>
</g>
<!-- giac&#45;&gt;sagelib -->
<g id="edge1" class="edge">
<title>giac&#45;&gt;sagelib</title>
<path fill="none" stroke="black" d="M119.05,-71.7C119.05,-63.98 119.05,-54.71 119.05,-46.11"/>
<polygon fill="black" stroke="black" points="122.55,-46.1 119.05,-36.1 115.55,-46.1 122.55,-46.1"/>
</g>
<!-- libdiffpy -->
<g id="node3" class="node">
<title>libdiffpy</title>
<g id="a_node3"><a xlink:href="https://github.com/conda-forge/libdiffpy-feedstock/pull/8" xlink:title="libdiffpy ❎">
<ellipse fill="#31688e" stroke="black" cx="119.05" cy="-1186" rx="63.09" ry="18"/>
<text text-anchor="middle" x="119.05" y="-1182.3" font-family="Times,serif" font-size="14.00" fill="white">libdiffpy ❎</text>
</a>
</g>
</g>
<!-- ncl -->
<g id="node4" class="node">
<title>ncl</title>
<g id="a_node4"><a xlink:href="https://github.com/conda-forge/ncl-feedstock" xlink:title="ncl">
<ellipse fill="#ff8c00" stroke="black" cx="119.05" cy="-1114" rx="27" ry="18"/>
<text text-anchor="middle" x="119.05" y="-1110.3" font-family="Times,serif" font-size="14.00">ncl</text>
</a>
</g>
</g>
<!-- libdiffpy&#45;&gt;ncl -->
<!-- qgis -->
<g id="node5" class="node">
<title>qgis</title>
<g id="a_node5"><a xlink:href="https://github.com/conda-forge/qgis-feedstock" xlink:title="qgis">
<ellipse fill="#ff8c00" stroke="black" cx="119.05" cy="-1042" rx="30.59" ry="18"/>
<text text-anchor="middle" x="119.05" y="-1038.3" font-family="Times,serif" font-size="14.00">qgis</text>
</a>
</g>
</g>
<!-- ncl&#45;&gt;qgis -->
<!-- root5 -->
<g id="node6" class="node">
<title>root5</title>
<g id="a_node6"><a xlink:href="https://github.com/conda-forge/root5-feedstock" xlink:title="root5">
<ellipse fill="#ff8c00" stroke="black" cx="119.05" cy="-970" rx="36" ry="18"/>
<text text-anchor="middle" x="119.05" y="-966.3" font-family="Times,serif" font-size="14.00">root5</text>
</a>
</g>
</g>
<!-- qgis&#45;&gt;root5 -->
<!-- slda -->
<g id="node13" class="node">
<title>slda</title>
<g id="a_node13"><a xlink:href="https://github.com/conda-forge/slda-feedstock/pull/14" xlink:title="slda ✓">
<ellipse fill="#31688e" stroke="black" cx="119.05" cy="-898" rx="37.09" ry="18"/>
<text text-anchor="middle" x="119.05" y="-894.3" font-family="Times,serif" font-size="14.00" fill="white">slda ✓</text>
</a>
</g>
</g>
<!-- root5&#45;&gt;slda -->
<!-- r&#45;base -->
<g id="node7" class="node">
<title>r&#45;base</title>
<g id="a_node7"><a xlink:href="https://github.com/conda-forge/r-base-feedstock" xlink:title="r base">
<ellipse fill="#ff8c00" stroke="black" cx="374.05" cy="-934" rx="39.79" ry="18"/>
<text text-anchor="middle" x="374.05" y="-930.3" font-family="Times,serif" font-size="14.00">r base</text>
</a>
</g>
</g>
<!-- r&#45;gsl -->
<g id="node8" class="node">
<title>r&#45;gsl</title>
<g id="a_node8"><a xlink:href="https://github.com/conda-forge/r-gsl-feedstock" xlink:title="r gsl">
<ellipse fill="#fde725" stroke="black" cx="314.05" cy="-862" rx="32" ry="18"/>
<text text-anchor="middle" x="314.05" y="-858.3" font-family="Times,serif" font-size="14.00">r gsl</text>
</a>
</g>
</g>
<!-- r&#45;base&#45;&gt;r&#45;gsl -->
<g id="edge5" class="edge">
<title>r&#45;base&#45;&gt;r&#45;gsl</title>
<path fill="none" stroke="black" d="M360.13,-916.76C352.37,-907.71 342.58,-896.29 334.02,-886.3"/>
<polygon fill="black" stroke="black" points="336.64,-883.98 327.47,-878.67 331.33,-888.54 336.64,-883.98"/>
</g>
<!-- r&#45;rcppgsl -->
<g id="node9" class="node">
<title>r&#45;rcppgsl</title>
<g id="a_node9"><a xlink:href="https://github.com/conda-forge/r-rcppgsl-feedstock" xlink:title="r rcppgsl">
<ellipse fill="#fde725" stroke="black" cx="455.05" cy="-790" rx="52.79" ry="18"/>
<text text-anchor="middle" x="455.05" y="-786.3" font-family="Times,serif" font-size="14.00">r rcppgsl</text>
</a>
</g>
</g>
<!-- r&#45;base&#45;&gt;r&#45;rcppgsl -->
<g id="edge6" class="edge">
<title>r&#45;base&#45;&gt;r&#45;rcppgsl</title>
<path fill="none" stroke="black" d="M383.5,-916.43C397.51,-891.88 423.9,-845.6 440.42,-816.65"/>
<polygon fill="black" stroke="black" points="443.49,-818.32 445.41,-807.9 437.41,-814.85 443.49,-818.32"/>
</g>
<!-- r&#45;topicmodels -->
<g id="node10" class="node">
<title>r&#45;topicmodels</title>
<g id="a_node10"><a xlink:href="https://github.com/conda-forge/r-topicmodels-feedstock" xlink:title="r topicmodels">
<ellipse fill="#fde725" stroke="black" cx="544.05" cy="-718" rx="74.19" ry="18"/>
<text text-anchor="middle" x="544.05" y="-714.3" font-family="Times,serif" font-size="14.00">r topicmodels</text>
</a>
</g>
</g>
<!-- r&#45;base&#45;&gt;r&#45;topicmodels -->
<g id="edge7" class="edge">
<title>r&#45;base&#45;&gt;r&#45;topicmodels</title>
<path fill="none" stroke="black" d="M396.65,-919.16C428.19,-898.71 485.11,-857.44 517.05,-808 529.19,-789.2 536.1,-764.68 539.88,-746.13"/>
<polygon fill="black" stroke="black" points="543.33,-746.73 541.72,-736.26 536.45,-745.45 543.33,-746.73"/>
</g>
<!-- r&#45;aws -->
<g id="node11" class="node">
<title>r&#45;aws</title>
<g id="a_node11"><a xlink:href="https://github.com/conda-forge/r-aws-feedstock" xlink:title="r aws">
<ellipse fill="#fde725" stroke="black" cx="282.05" cy="-790" rx="36.5" ry="18"/>
<text text-anchor="middle" x="282.05" y="-786.3" font-family="Times,serif" font-size="14.00">r aws</text>
</a>
</g>
</g>
<!-- r&#45;base&#45;&gt;r&#45;aws -->
<g id="edge8" class="edge">
<title>r&#45;base&#45;&gt;r&#45;aws</title>
<path fill="none" stroke="black" d="M339.46,-924.83C316.25,-917.35 287.39,-903.72 273.05,-880 261.73,-861.27 265.59,-836.2 271.36,-817.44"/>
<polygon fill="black" stroke="black" points="274.75,-818.34 274.67,-807.74 268.13,-816.07 274.75,-818.34"/>
</g>
<!-- r&#45;rcppziggurat -->
<g id="node12" class="node">
<title>r&#45;rcppziggurat</title>
<g id="a_node12"><a xlink:href="https://github.com/conda-forge/r-rcppziggurat-feedstock" xlink:title="r rcppziggurat">
<ellipse fill="#fde725" stroke="black" cx="374.05" cy="-718" rx="78" ry="18"/>
<text text-anchor="middle" x="374.05" y="-714.3" font-family="Times,serif" font-size="14.00">r rcppziggurat</text>
</a>
</g>
</g>
<!-- r&#45;base&#45;&gt;r&#45;rcppziggurat -->
<g id="edge9" class="edge">
<title>r&#45;base&#45;&gt;r&#45;rcppziggurat</title>
<path fill="none" stroke="black" d="M374.05,-915.85C374.05,-878.83 374.05,-791.18 374.05,-746.39"/>
<polygon fill="black" stroke="black" points="377.55,-746.23 374.05,-736.23 370.55,-746.23 377.55,-746.23"/>
</g>
<!-- r&#45;gsl&#45;&gt;r&#45;aws -->
<g id="edge10" class="edge">
<title>r&#45;gsl&#45;&gt;r&#45;aws</title>
<path fill="none" stroke="black" d="M306.46,-844.41C302.73,-836.25 298.15,-826.22 293.96,-817.07"/>
<polygon fill="black" stroke="black" points="297.14,-815.6 289.8,-807.96 290.77,-818.51 297.14,-815.6"/>
</g>
<!-- r&#45;rcppgsl&#45;&gt;r&#45;rcppziggurat -->
<g id="edge11" class="edge">
<title>r&#45;rcppgsl&#45;&gt;r&#45;rcppziggurat</title>
<path fill="none" stroke="black" d="M436.67,-773.12C426.12,-764 412.7,-752.4 400.98,-742.28"/>
<polygon fill="black" stroke="black" points="403.05,-739.44 393.2,-735.55 398.48,-744.74 403.05,-739.44"/>
</g>
<!-- bayeswave -->
<g id="node14" class="node">
<title>bayeswave</title>
<g id="a_node14"><a xlink:href="https://github.com/conda-forge/bayeswave-feedstock" xlink:title="bayeswave">
<ellipse fill="#35b779" stroke="black" cx="119.05" cy="-826" rx="61.99" ry="18"/>
<text text-anchor="middle" x="119.05" y="-822.3" font-family="Times,serif" font-size="14.00">bayeswave</text>
</a>
</g>
</g>
<!-- slda&#45;&gt;bayeswave -->
<!-- machine&#45;learning&#45;py -->
<g id="node20" class="node">
<title>machine&#45;learning&#45;py</title>
<g id="a_node20"><a xlink:href="https://github.com/conda-forge/machine-learning-py-feedstock/pull/8" xlink:title="machine learning py ✓">
<ellipse fill="#31688e" stroke="black" cx="119.05" cy="-754" rx="112.5" ry="18"/>
<text text-anchor="middle" x="119.05" y="-750.3" font-family="Times,serif" font-size="14.00" fill="white">machine learning py ✓</text>
</a>
</g>
</g>
<!-- bayeswave&#45;&gt;machine&#45;learning&#45;py -->
<!-- root -->
<g id="node15" class="node">
<title>root</title>
<g id="a_node15"><a xlink:href="https://github.com/conda-forge/root-feedstock" xlink:title="root">
<ellipse fill="#ff8c00" stroke="black" cx="132.05" cy="-422" rx="30" ry="18"/>
<text text-anchor="middle" x="132.05" y="-418.3" font-family="Times,serif" font-size="14.00">root</text>
</a>
</g>
</g>
<!-- fwlite -->
<g id="node16" class="node">
<title>fwlite</title>
<g id="a_node16"><a xlink:href="https://github.com/conda-forge/fwlite-feedstock" xlink:title="fwlite">
<ellipse fill="#fde725" stroke="black" cx="37.05" cy="-350" rx="37.09" ry="18"/>
<text text-anchor="middle" x="37.05" y="-346.3" font-family="Times,serif" font-size="14.00">fwlite</text>
</a>
</g>
</g>
<!-- root&#45;&gt;fwlite -->
<g id="edge14" class="edge">
<title>root&#45;&gt;fwlite</title>
<path fill="none" stroke="black" d="M113.73,-407.5C99.9,-397.31 80.68,-383.15 64.94,-371.56"/>
<polygon fill="black" stroke="black" points="66.74,-368.53 56.62,-365.42 62.59,-374.17 66.74,-368.53"/>
</g>
<!-- ostaphep -->
<g id="node17" class="node">
<title>ostaphep</title>
<g id="a_node17"><a xlink:href="https://github.com/conda-forge/ostaphep-feedstock" xlink:title="ostaphep">
<ellipse fill="#fde725" stroke="black" cx="80.05" cy="-278" rx="53.5" ry="18"/>
<text text-anchor="middle" x="80.05" y="-274.3" font-family="Times,serif" font-size="14.00">ostaphep</text>
</a>
</g>
</g>
<!-- root&#45;&gt;ostaphep -->
<g id="edge15" class="edge">
<title>root&#45;&gt;ostaphep</title>
<path fill="none" stroke="black" d="M125.88,-404.15C116.97,-379.84 100.43,-334.66 89.84,-305.75"/>
<polygon fill="black" stroke="black" points="93.1,-304.45 86.37,-296.27 86.52,-306.86 93.1,-304.45"/>
</g>
<!-- stackvana&#45;afw -->
<g id="node18" class="node">
<title>stackvana&#45;afw</title>
<g id="a_node18"><a xlink:href="https://github.com/conda-forge/stackvana-afw-feedstock" xlink:title="stackvana afw">
<ellipse fill="#fde725" stroke="black" cx="129.05" cy="-206" rx="76.89" ry="18"/>
<text text-anchor="middle" x="129.05" y="-202.3" font-family="Times,serif" font-size="14.00">stackvana afw</text>
</a>
</g>
</g>
<!-- root&#45;&gt;stackvana&#45;afw -->
<g id="edge16" class="edge">
<title>root&#45;&gt;stackvana&#45;afw</title>
<path fill="none" stroke="black" d="M135.13,-404.02C140.01,-374.6 148.36,-312.27 142.05,-260 141.01,-251.4 139.05,-242.19 136.97,-233.89"/>
<polygon fill="black" stroke="black" points="140.29,-232.75 134.32,-223.99 133.52,-234.56 140.29,-232.75"/>
</g>
<!-- stackvana -->
<g id="node19" class="node">
<title>stackvana</title>
<g id="a_node19"><a xlink:href="https://github.com/conda-forge/stackvana-feedstock" xlink:title="stackvana">
<ellipse fill="#fde725" stroke="black" cx="181.05" cy="-134" rx="57.39" ry="18"/>
<text text-anchor="middle" x="181.05" y="-130.3" font-family="Times,serif" font-size="14.00">stackvana</text>
</a>
</g>
</g>
<!-- root&#45;&gt;stackvana -->
<g id="edge17" class="edge">
<title>root&#45;&gt;stackvana</title>
<path fill="none" stroke="black" d="M141.56,-404.87C160.23,-372.14 201.06,-295.01 215.05,-224 218.14,-208.3 219.55,-203.35 215.05,-188 212.17,-178.19 206.86,-168.47 201.27,-160.09"/>
<polygon fill="black" stroke="black" points="204.09,-158.02 195.45,-151.9 198.39,-162.07 204.09,-158.02"/>
</g>
<!-- stackvana&#45;afw&#45;&gt;stackvana -->
<g id="edge18" class="edge">
<title>stackvana&#45;afw&#45;&gt;stackvana</title>
<path fill="none" stroke="black" d="M141.63,-188.05C147.89,-179.63 155.58,-169.28 162.5,-159.97"/>
<polygon fill="black" stroke="black" points="165.42,-161.9 168.57,-151.79 159.8,-157.73 165.42,-161.9"/>
</g>
<!-- gnuastro -->
<g id="node21" class="node">
<title>gnuastro</title>
<g id="a_node21"><a xlink:href="https://github.com/conda-forge/gnuastro-feedstock/pull/10" xlink:title="gnuastro ✓">
<ellipse fill="#31688e" stroke="black" cx="119.05" cy="-682" rx="60" ry="18"/>
<text text-anchor="middle" x="119.05" y="-678.3" font-family="Times,serif" font-size="14.00" fill="white">gnuastro ✓</text>
</a>
</g>
</g>
<!-- machine&#45;learning&#45;py&#45;&gt;gnuastro -->
<!-- gwsurrogate -->
<g id="node22" class="node">
<title>gwsurrogate</title>
<g id="a_node22"><a xlink:href="https://github.com/conda-forge/gwsurrogate-feedstock" xlink:title="gwsurrogate">
<ellipse fill="#ff8c00" stroke="black" cx="119.05" cy="-610" rx="69.59" ry="18"/>
<text text-anchor="middle" x="119.05" y="-606.3" font-family="Times,serif" font-size="14.00">gwsurrogate</text>
</a>
</g>
</g>
<!-- gnuastro&#45;&gt;gwsurrogate -->
<!-- neper -->
<g id="node23" class="node">
<title>neper</title>
<g id="a_node23"><a xlink:href="https://github.com/conda-forge/neper-feedstock" xlink:title="neper">
<ellipse fill="#ff8c00" stroke="black" cx="119.05" cy="-538" rx="37.89" ry="18"/>
<text text-anchor="middle" x="119.05" y="-534.3" font-family="Times,serif" font-size="14.00">neper</text>
</a>
</g>
</g>
<!-- gwsurrogate&#45;&gt;neper -->
<!-- polycap -->
<g id="node28" class="node">
<title>polycap</title>
<g id="a_node28"><a xlink:href="https://github.com/conda-forge/polycap-feedstock/pull/9" xlink:title="polycap ❎">
<ellipse fill="#31688e" stroke="black" cx="119.05" cy="-466" rx="60.5" ry="18"/>
<text text-anchor="middle" x="119.05" y="-462.3" font-family="Times,serif" font-size="14.00" fill="white">polycap ❎</text>
</a>
</g>
</g>
<!-- neper&#45;&gt;polycap -->
<!-- gstlal&#45;ugly -->
<g id="node24" class="node">
<title>gstlal&#45;ugly</title>
<g id="a_node24"><a xlink:href="https://github.com/conda-forge/gstlal-ugly-feedstock" xlink:title="gstlal ugly">
<ellipse fill="#35b779" stroke="black" cx="784.05" cy="-934" rx="60" ry="18"/>
<text text-anchor="middle" x="784.05" y="-930.3" font-family="Times,serif" font-size="14.00">gstlal ugly</text>
</a>
</g>
</g>
<!-- gstlal&#45;burst -->
<g id="node25" class="node">
<title>gstlal&#45;burst</title>
<g id="a_node25"><a xlink:href="https://github.com/conda-forge/gstlal-burst-feedstock" xlink:title="gstlal burst">
<ellipse fill="#fde725" stroke="black" cx="691.05" cy="-862" rx="64.5" ry="18"/>
<text text-anchor="middle" x="691.05" y="-858.3" font-family="Times,serif" font-size="14.00">gstlal burst</text>
</a>
</g>
</g>
<!-- gstlal&#45;ugly&#45;&gt;gstlal&#45;burst -->
<g id="edge23" class="edge">
<title>gstlal&#45;ugly&#45;&gt;gstlal&#45;burst</title>
<path fill="none" stroke="black" d="M762.94,-917.12C750.43,-907.7 734.37,-895.61 720.61,-885.25"/>
<polygon fill="black" stroke="black" points="722.48,-882.28 712.39,-879.06 718.27,-887.87 722.48,-882.28"/>
</g>
<!-- gstlal&#45;inspiral -->
<g id="node26" class="node">
<title>gstlal&#45;inspiral</title>
<g id="a_node26"><a xlink:href="https://github.com/conda-forge/gstlal-inspiral-feedstock" xlink:title="gstlal inspiral">
<ellipse fill="#fde725" stroke="black" cx="784.05" cy="-790" rx="74.99" ry="18"/>
<text text-anchor="middle" x="784.05" y="-786.3" font-family="Times,serif" font-size="14.00">gstlal inspiral</text>
</a>
</g>
</g>
<!-- gstlal&#45;ugly&#45;&gt;gstlal&#45;inspiral -->
<g id="edge24" class="edge">
<title>gstlal&#45;ugly&#45;&gt;gstlal&#45;inspiral</title>
<path fill="none" stroke="black" d="M784.05,-915.87C784.05,-891.67 784.05,-847.21 784.05,-818.39"/>
<polygon fill="black" stroke="black" points="787.55,-818.19 784.05,-808.19 780.55,-818.19 787.55,-818.19"/>
</g>
<!-- gstlal&#45;calibration -->
<g id="node27" class="node">
<title>gstlal&#45;calibration</title>
<g id="a_node27"><a xlink:href="https://github.com/conda-forge/gstlal-calibration-feedstock" xlink:title="gstlal calibration">
<ellipse fill="#fde725" stroke="black" cx="887.05" cy="-718" rx="89.08" ry="18"/>
<text text-anchor="middle" x="887.05" y="-714.3" font-family="Times,serif" font-size="14.00">gstlal calibration</text>
</a>
</g>
</g>
<!-- gstlal&#45;ugly&#45;&gt;gstlal&#45;calibration -->
<g id="edge25" class="edge">
<title>gstlal&#45;ugly&#45;&gt;gstlal&#45;calibration</title>
<path fill="none" stroke="black" d="M798.27,-916.42C817.12,-893.56 850.08,-850.37 868.05,-808 876.41,-788.27 881.25,-764.47 883.94,-746.44"/>
<polygon fill="black" stroke="black" points="887.44,-746.7 885.33,-736.32 880.5,-745.75 887.44,-746.7"/>
</g>
<!-- gwframes -->
<g id="node29" class="node">
<title>gwframes</title>
<g id="a_node29"><a xlink:href="https://github.com/conda-forge/gwframes-feedstock" xlink:title="gwframes">
<ellipse fill="#000000" stroke="black" cx="432.05" cy="-350" rx="56.59" ry="18"/>
<text text-anchor="middle" x="432.05" y="-346.3" font-family="Times,serif" font-size="14.00" fill="white">gwframes</text>
</a>
</g>
</g>
<!-- pyrost -->
<g id="node30" class="node">
<title>pyrost</title>
<g id="a_node30"><a xlink:href="https://github.com/conda-forge/pyrost-feedstock/pull/17" xlink:title="pyrost ✓">
<ellipse fill="#31688e" stroke="black" cx="432.05" cy="-278" rx="48.19" ry="18"/>
<text text-anchor="middle" x="432.05" y="-274.3" font-family="Times,serif" font-size="14.00" fill="white">pyrost ✓</text>
</a>
</g>
</g>
<!-- gwframes&#45;&gt;pyrost -->
<!-- rnmc&#45;native -->
<g id="node31" class="node">
<title>rnmc&#45;native</title>
<g id="a_node31"><a xlink:href="https://github.com/conda-forge/rnmc-native-feedstock/pull/7" xlink:title="rnmc native ❎">
<ellipse fill="#31688e" stroke="black" cx="432.05" cy="-206" rx="80.69" ry="18"/>
<text text-anchor="middle" x="432.05" y="-202.3" font-family="Times,serif" font-size="14.00" fill="white">rnmc native ❎</text>
</a>
</g>
</g>
<!-- pyrost&#45;&gt;rnmc&#45;native -->
<!-- tempo2 -->
<g id="node32" class="node">
<title>tempo2</title>
<g id="a_node32"><a xlink:href="https://github.com/conda-forge/tempo2-feedstock" xlink:title="tempo2">
<ellipse fill="#ff8c00" stroke="black" cx="801.05" cy="-314" rx="46.29" ry="18"/>
<text text-anchor="middle" x="801.05" y="-310.3" font-family="Times,serif" font-size="14.00">tempo2</text>
</a>
</g>
</g>
<!-- psrchive -->
<g id="node33" class="node">
<title>psrchive</title>
<g id="a_node33"><a xlink:href="https://github.com/conda-forge/psrchive-feedstock" xlink:title="psrchive">
<ellipse fill="#fde725" stroke="black" cx="801.05" cy="-242" rx="50.09" ry="18"/>
<text text-anchor="middle" x="801.05" y="-238.3" font-family="Times,serif" font-size="14.00">psrchive</text>
</a>
</g>
</g>
<!-- tempo2&#45;&gt;psrchive -->
<g id="edge29" class="edge">
<title>tempo2&#45;&gt;psrchive</title>
<path fill="none" stroke="black" d="M801.05,-295.7C801.05,-287.98 801.05,-278.71 801.05,-270.11"/>
<polygon fill="black" stroke="black" points="804.55,-270.1 801.05,-260.1 797.55,-270.1 804.55,-270.1"/>
</g>
</g>
</svg>
