<?xml version="1.0" encoding="UTF-8" standalone="no"?>
<!DOCTYPE svg PUBLIC "-//W3C//DTD SVG 1.1//EN"
 "http://www.w3.org/Graphics/SVG/1.1/DTD/svg11.dtd">
<!-- Generated by graphviz version 2.50.0 (20220117.2223)
 -->
<!-- Pages: 1 -->
<svg width="863pt" height="260pt"
 viewBox="0.00 0.00 863.24 260.00" xmlns="http://www.w3.org/2000/svg" xmlns:xlink="http://www.w3.org/1999/xlink">
<g id="graph0" class="graph" transform="scale(1 1) rotate(0) translate(4 256)">
<polygon fill="white" stroke="transparent" points="-4,4 -4,-256 859.24,-256 859.24,4 -4,4"/>
<!-- qt -->
<g id="node1" class="node">
<title>qt</title>
<g id="a_node1"><a xlink:href="https://github.com/conda-forge/qt-feedstock/pull/220" xlink:title="qt ❎">
<ellipse fill="#31688e" stroke="black" cx="204.74" cy="-234" rx="34.5" ry="18"/>
<text text-anchor="middle" x="204.74" y="-230.3" font-family="Times,serif" font-size="14.00" fill="white">qt ❎</text>
</a>
</g>
</g>
<!-- gstlal -->
<g id="node2" class="node">
<title>gstlal</title>
<g id="a_node2"><a xlink:href="https://github.com/conda-forge/gstlal-feedstock" xlink:title="gstlal">
<ellipse fill="#fde725" stroke="black" cx="264.74" cy="-162" rx="36.5" ry="18"/>
<text text-anchor="middle" x="264.74" y="-158.3" font-family="Times,serif" font-size="14.00">gstlal</text>
</a>
</g>
</g>
<!-- qt&#45;&gt;gstlal -->
<g id="edge1" class="edge">
<title>qt&#45;&gt;gstlal</title>
<path fill="none" stroke="black" d="M218.36,-217.12C226.11,-208.08 235.96,-196.58 244.59,-186.52"/>
<polygon fill="black" stroke="black" points="247.33,-188.69 251.18,-178.82 242.02,-184.14 247.33,-188.69"/>
</g>
<!-- gstlal&#45;ugly -->
<g id="node3" class="node">
<title>gstlal&#45;ugly</title>
<g id="a_node3"><a xlink:href="https://github.com/conda-forge/gstlal-ugly-feedstock" xlink:title="gstlal ugly">
<ellipse fill="#fde725" stroke="black" cx="264.74" cy="-90" rx="60" ry="18"/>
<text text-anchor="middle" x="264.74" y="-86.3" font-family="Times,serif" font-size="14.00">gstlal ugly</text>
</a>
</g>
</g>
<!-- qt&#45;&gt;gstlal&#45;ugly -->
<g id="edge2" class="edge">
<title>qt&#45;&gt;gstlal&#45;ugly</title>
<path fill="none" stroke="black" d="M204.68,-215.79C205.22,-197.24 207.92,-167.26 218.74,-144 223.7,-133.34 231.45,-123.19 239.19,-114.68"/>
<polygon fill="black" stroke="black" points="241.82,-116.99 246.21,-107.35 236.77,-112.15 241.82,-116.99"/>
</g>
<!-- gstlal&#45;burst -->
<g id="node4" class="node">
<title>gstlal&#45;burst</title>
<g id="a_node4"><a xlink:href="https://github.com/conda-forge/gstlal-burst-feedstock" xlink:title="gstlal burst">
<ellipse fill="#fde725" stroke="black" cx="428.74" cy="-18" rx="64.5" ry="18"/>
<text text-anchor="middle" x="428.74" y="-14.3" font-family="Times,serif" font-size="14.00">gstlal burst</text>
</a>
</g>
</g>
<!-- qt&#45;&gt;gstlal&#45;burst -->
<g id="edge3" class="edge">
<title>qt&#45;&gt;gstlal&#45;burst</title>
<path fill="none" stroke="black" d="M232.39,-223.15C255.02,-214.2 287.04,-199.44 310.74,-180 357.78,-141.44 395.78,-80.08 415.03,-45.31"/>
<polygon fill="black" stroke="black" points="418.26,-46.7 419.95,-36.25 412.1,-43.36 418.26,-46.7"/>
</g>
<!-- gstlal&#45;inspiral -->
<g id="node5" class="node">
<title>gstlal&#45;inspiral</title>
<g id="a_node5"><a xlink:href="https://github.com/conda-forge/gstlal-inspiral-feedstock" xlink:title="gstlal inspiral">
<ellipse fill="#fde725" stroke="black" cx="74.74" cy="-18" rx="74.99" ry="18"/>
<text text-anchor="middle" x="74.74" y="-14.3" font-family="Times,serif" font-size="14.00">gstlal inspiral</text>
</a>
</g>
</g>
<!-- qt&#45;&gt;gstlal&#45;inspiral -->
<g id="edge4" class="edge">
<title>qt&#45;&gt;gstlal&#45;inspiral</title>
<path fill="none" stroke="black" d="M194.76,-216.56C172.28,-179.56 117.55,-89.46 90.46,-44.87"/>
<polygon fill="black" stroke="black" points="93.31,-42.81 85.12,-36.09 87.32,-46.45 93.31,-42.81"/>
</g>
<!-- gstlal&#45;&gt;gstlal&#45;ugly -->
<g id="edge5" class="edge">
<title>gstlal&#45;&gt;gstlal&#45;ugly</title>
<path fill="none" stroke="black" d="M264.74,-143.7C264.74,-135.98 264.74,-126.71 264.74,-118.11"/>
<polygon fill="black" stroke="black" points="268.24,-118.1 264.74,-108.1 261.24,-118.1 268.24,-118.1"/>
</g>
<!-- gstlal&#45;&gt;gstlal&#45;burst -->
<g id="edge6" class="edge">
<title>gstlal&#45;&gt;gstlal&#45;burst</title>
<path fill="none" stroke="black" d="M284.48,-146.65C298.5,-136.25 317.62,-121.69 333.74,-108 358.62,-86.88 385.65,-61.28 404.5,-42.96"/>
<polygon fill="black" stroke="black" points="407.33,-45.08 412.04,-35.59 402.44,-40.08 407.33,-45.08"/>
</g>
<!-- gstlal&#45;&gt;gstlal&#45;inspiral -->
<g id="edge7" class="edge">
<title>gstlal&#45;&gt;gstlal&#45;inspiral</title>
<path fill="none" stroke="black" d="M243.59,-147.24C227.73,-136.78 205.6,-121.87 186.74,-108 157.34,-86.38 124.79,-60.25 102.39,-41.92"/>
<polygon fill="black" stroke="black" points="104.57,-39.18 94.62,-35.54 100.13,-44.59 104.57,-39.18"/>
</g>
<!-- gstlal&#45;calibration -->
<g id="node6" class="node">
<title>gstlal&#45;calibration</title>
<g id="a_node6"><a xlink:href="https://github.com/conda-forge/gstlal-calibration-feedstock" xlink:title="gstlal calibration">
<ellipse fill="#fde725" stroke="black" cx="256.74" cy="-18" rx="89.08" ry="18"/>
<text text-anchor="middle" x="256.74" y="-14.3" font-family="Times,serif" font-size="14.00">gstlal calibration</text>
</a>
</g>
</g>
<!-- gstlal&#45;&gt;gstlal&#45;calibration -->
<g id="edge8" class="edge">
<title>gstlal&#45;&gt;gstlal&#45;calibration</title>
<path fill="none" stroke="black" d="M239.11,-148.93C223.45,-140.03 204.76,-126.29 195.74,-108 188.67,-93.65 189.11,-86.56 195.74,-72 201.21,-60.01 210.87,-49.69 220.92,-41.42"/>
<polygon fill="black" stroke="black" points="223.17,-44.1 228.98,-35.24 218.92,-38.54 223.17,-44.1"/>
</g>
<!-- gstlal&#45;ugly&#45;&gt;gstlal&#45;burst -->
<g id="edge9" class="edge">
<title>gstlal&#45;ugly&#45;&gt;gstlal&#45;burst</title>
<path fill="none" stroke="black" d="M297.93,-74.83C323.22,-64.04 358.24,-49.09 385.68,-37.38"/>
<polygon fill="black" stroke="black" points="387.22,-40.53 395.04,-33.38 384.47,-34.09 387.22,-40.53"/>
</g>
<!-- gstlal&#45;ugly&#45;&gt;gstlal&#45;inspiral -->
<g id="edge10" class="edge">
<title>gstlal&#45;ugly&#45;&gt;gstlal&#45;inspiral</title>
<path fill="none" stroke="black" d="M228.11,-75.5C198.4,-64.56 156.26,-49.03 123.67,-37.02"/>
<polygon fill="black" stroke="black" points="124.47,-33.59 113.88,-33.42 122.05,-40.16 124.47,-33.59"/>
</g>
<!-- gstlal&#45;ugly&#45;&gt;gstlal&#45;calibration -->
<g id="edge11" class="edge">
<title>gstlal&#45;ugly&#45;&gt;gstlal&#45;calibration</title>
<path fill="none" stroke="black" d="M262.77,-71.7C261.88,-63.98 260.82,-54.71 259.84,-46.11"/>
<polygon fill="black" stroke="black" points="263.31,-45.64 258.7,-36.1 256.36,-46.44 263.31,-45.64"/>
</g>
<!-- wxpython -->
<g id="node7" class="node">
<title>wxpython</title>
<g id="a_node7"><a xlink:href="https://github.com/conda-forge/wxpython-feedstock/pull/78" xlink:title="wxpython ❎">
<ellipse fill="#31688e" stroke="black" cx="600.74" cy="-234" rx="70.39" ry="18"/>
<text text-anchor="middle" x="600.74" y="-230.3" font-family="Times,serif" font-size="14.00" fill="white">wxpython ❎</text>
</a>
</g>
</g>
<!-- gst&#45;plugins&#45;ugly -->
<g id="node8" class="node">
<title>gst&#45;plugins&#45;ugly</title>
<g id="a_node8"><a xlink:href="https://github.com/conda-forge/gst-plugins-ugly-feedstock/pull/10" xlink:title="gst plugins ugly ❎">
<ellipse fill="#31688e" stroke="black" cx="600.74" cy="-162" rx="99.5" ry="18"/>
<text text-anchor="middle" x="600.74" y="-158.3" font-family="Times,serif" font-size="14.00" fill="white">gst plugins ugly ❎</text>
</a>
</g>
</g>
<!-- wxpython&#45;&gt;gst&#45;plugins&#45;ugly -->
<!-- gst&#45;plugins&#45;bad -->
<g id="node10" class="node">
<title>gst&#45;plugins&#45;bad</title>
<g id="a_node10"><a xlink:href="https://github.com/conda-forge/gst-plugins-bad-feedstock/pull/13" xlink:title="gst plugins bad ❎">
<ellipse fill="#31688e" stroke="black" cx="600.74" cy="-90" rx="97" ry="18"/>
<text text-anchor="middle" x="600.74" y="-86.3" font-family="Times,serif" font-size="14.00" fill="white">gst plugins bad ❎</text>
</a>
</g>
</g>
<!-- gst&#45;plugins&#45;ugly&#45;&gt;gst&#45;plugins&#45;bad -->
<!-- gst&#45;python -->
<g id="node9" class="node">
<title>gst&#45;python</title>
<g id="a_node9"><a xlink:href="https://github.com/conda-forge/gst-python-feedstock/pull/20" xlink:title="gst python ✓">
<ellipse fill="#31688e" stroke="black" cx="329.74" cy="-234" rx="67.69" ry="18"/>
<text text-anchor="middle" x="329.74" y="-230.3" font-family="Times,serif" font-size="14.00" fill="white">gst python ✓</text>
</a>
</g>
</g>
<!-- gst&#45;python&#45;&gt;gstlal -->
<g id="edge13" class="edge">
<title>gst&#45;python&#45;&gt;gstlal</title>
<path fill="none" stroke="black" d="M314.34,-216.41C306.04,-207.48 295.67,-196.31 286.56,-186.5"/>
<polygon fill="black" stroke="black" points="288.96,-183.93 279.59,-178.99 283.83,-188.7 288.96,-183.93"/>
</g>
<!-- gst&#45;python&#45;&gt;gstlal&#45;ugly -->
<g id="edge14" class="edge">
<title>gst&#45;python&#45;&gt;gstlal&#45;ugly</title>
<path fill="none" stroke="black" d="M328.63,-215.76C326.85,-197.19 322.31,-167.19 310.74,-144 305.5,-133.48 297.67,-123.36 289.96,-114.84"/>
<polygon fill="black" stroke="black" points="292.41,-112.33 282.98,-107.49 287.33,-117.15 292.41,-112.33"/>
</g>
<!-- gst&#45;python&#45;&gt;gstlal&#45;burst -->
<g id="edge15" class="edge">
<title>gst&#45;python&#45;&gt;gstlal&#45;burst</title>
<path fill="none" stroke="black" d="M361.88,-218.03C377.32,-209.17 394.63,-196.43 404.74,-180 430.14,-138.74 432.29,-80.53 430.93,-46.59"/>
<polygon fill="black" stroke="black" points="434.42,-46.27 430.39,-36.47 427.43,-46.64 434.42,-46.27"/>
</g>
<!-- gst&#45;libav -->
<g id="node11" class="node">
<title>gst&#45;libav</title>
<g id="a_node11"><a xlink:href="https://github.com/conda-forge/gst-libav-feedstock" xlink:title="gst libav">
<ellipse fill="#35b779" stroke="black" cx="600.74" cy="-18" rx="50.89" ry="18"/>
<text text-anchor="middle" x="600.74" y="-14.3" font-family="Times,serif" font-size="14.00">gst libav</text>
</a>
</g>
</g>
<!-- gst&#45;plugins&#45;bad&#45;&gt;gst&#45;libav -->
<!-- qt&#45;main -->
<g id="node12" class="node">
<title>qt&#45;main</title>
<g id="a_node12"><a xlink:href="https://github.com/conda-forge/qt-main-feedstock/pull/11" xlink:title="qt main ❎">
<ellipse fill="#31688e" stroke="black" cx="781.74" cy="-162" rx="60.5" ry="18"/>
<text text-anchor="middle" x="781.74" y="-158.3" font-family="Times,serif" font-size="14.00" fill="white">qt main ❎</text>
</a>
</g>
</g>
<!-- qt&#45;webengine -->
<g id="node13" class="node">
<title>qt&#45;webengine</title>
<g id="a_node13"><a xlink:href="https://github.com/conda-forge/qt-webengine-feedstock" xlink:title="qt webengine">
<ellipse fill="#fde725" stroke="black" cx="781.74" cy="-90" rx="73.5" ry="18"/>
<text text-anchor="middle" x="781.74" y="-86.3" font-family="Times,serif" font-size="14.00">qt webengine</text>
</a>
</g>
</g>
<!-- qt&#45;main&#45;&gt;qt&#45;webengine -->
<g id="edge18" class="edge">
<title>qt&#45;main&#45;&gt;qt&#45;webengine</title>
<path fill="none" stroke="black" d="M781.74,-143.7C781.74,-135.98 781.74,-126.71 781.74,-118.11"/>
<polygon fill="black" stroke="black" points="785.24,-118.1 781.74,-108.1 778.24,-118.1 785.24,-118.1"/>
</g>
</g>
</svg>
