<?xml version="1.0" encoding="UTF-8" standalone="no"?>
<!DOCTYPE svg PUBLIC "-//W3C//DTD SVG 1.1//EN"
 "http://www.w3.org/Graphics/SVG/1.1/DTD/svg11.dtd">
<!-- Generated by graphviz version 2.42.3 (20191010.1750)
 -->
<!-- Title: %3 Pages: 1 -->
<svg width="485pt" height="188pt"
 viewBox="0.00 0.00 484.94 188.00" xmlns="http://www.w3.org/2000/svg" xmlns:xlink="http://www.w3.org/1999/xlink">
<g id="graph0" class="graph" transform="scale(1 1) rotate(0) translate(4 184)">
<title>%3</title>
<polygon fill="white" stroke="transparent" points="-4,4 -4,-184 480.94,-184 480.94,4 -4,4"/>
<!-- wxpython -->
<g id="node1" class="node">
<title>wxpython</title>
<g id="a_node1"><a xlink:href="https://github.com/conda-forge/wxpython-feedstock/pull/60" xlink:title="wxpython ✓">
<ellipse fill="#31688e" stroke="black" cx="421.05" cy="-90" rx="55.79" ry="18"/>
<text text-anchor="middle" x="421.05" y="-86.3" font-family="Times,serif" font-size="14.00" fill="white">wxpython ✓</text>
</a>
</g>
</g>
<!-- gstlal -->
<g id="node2" class="node">
<title>gstlal</title>
<g id="a_node2"><a xlink:href="https://github.com/conda-forge/gstlal-feedstock" xlink:title="gstlal">
<ellipse fill="#ff8c00" stroke="black" cx="152.05" cy="-162" rx="29.8" ry="18"/>
<text text-anchor="middle" x="152.05" y="-158.3" font-family="Times,serif" font-size="14.00">gstlal</text>
</a>
</g>
</g>
<!-- gstlal&#45;ugly -->
<g id="node3" class="node">
<title>gstlal&#45;ugly</title>
<g id="a_node3"><a xlink:href="https://github.com/conda-forge/gstlal-ugly-feedstock" xlink:title="gstlal ugly">
<ellipse fill="#fde725" stroke="black" cx="114.05" cy="-90" rx="48.19" ry="18"/>
<text text-anchor="middle" x="114.05" y="-86.3" font-family="Times,serif" font-size="14.00">gstlal ugly</text>
</a>
</g>
</g>
<!-- gstlal&#45;&gt;gstlal&#45;ugly -->
<g id="edge4" class="edge">
<title>gstlal&#45;&gt;gstlal&#45;ugly</title>
<path fill="none" stroke="black" d="M143.23,-144.76C138.76,-136.53 133.22,-126.32 128.17,-117.02"/>
<polygon fill="black" stroke="black" points="131.19,-115.24 123.34,-108.12 125.04,-118.58 131.19,-115.24"/>
</g>
<!-- gstlal&#45;burst -->
<g id="node4" class="node">
<title>gstlal&#45;burst</title>
<g id="a_node4"><a xlink:href="https://github.com/conda-forge/gstlal-burst-feedstock" xlink:title="gstlal burst">
<ellipse fill="#fde725" stroke="black" cx="50.05" cy="-18" rx="50.09" ry="18"/>
<text text-anchor="middle" x="50.05" y="-14.3" font-family="Times,serif" font-size="14.00">gstlal burst</text>
</a>
</g>
</g>
<!-- gstlal&#45;&gt;gstlal&#45;burst -->
<g id="edge1" class="edge">
<title>gstlal&#45;&gt;gstlal&#45;burst</title>
<path fill="none" stroke="black" d="M124.98,-153.68C102.73,-146.13 72.44,-132.01 57.05,-108 45.38,-89.81 44.35,-65.04 45.82,-46.25"/>
<polygon fill="black" stroke="black" points="49.31,-46.55 46.88,-36.24 42.35,-45.81 49.31,-46.55"/>
</g>
<!-- gstlal&#45;inspiral -->
<g id="node5" class="node">
<title>gstlal&#45;inspiral</title>
<g id="a_node5"><a xlink:href="https://github.com/conda-forge/gstlal-inspiral-feedstock" xlink:title="gstlal inspiral">
<ellipse fill="#fde725" stroke="black" cx="183.05" cy="-18" rx="58.49" ry="18"/>
<text text-anchor="middle" x="183.05" y="-14.3" font-family="Times,serif" font-size="14.00">gstlal inspiral</text>
</a>
</g>
</g>
<!-- gstlal&#45;&gt;gstlal&#45;inspiral -->
<g id="edge3" class="edge">
<title>gstlal&#45;&gt;gstlal&#45;inspiral</title>
<path fill="none" stroke="black" d="M159.14,-144.09C163.18,-133.82 168.04,-120.35 171.05,-108 176.02,-87.58 179.09,-63.99 180.87,-46.23"/>
<polygon fill="black" stroke="black" points="184.36,-46.54 181.8,-36.26 177.39,-45.89 184.36,-46.54"/>
</g>
<!-- gstlal&#45;calibration -->
<g id="node6" class="node">
<title>gstlal&#45;calibration</title>
<g id="a_node6"><a xlink:href="https://github.com/conda-forge/gstlal-calibration-feedstock" xlink:title="gstlal calibration">
<ellipse fill="#fde725" stroke="black" cx="288.05" cy="-90" rx="69.59" ry="18"/>
<text text-anchor="middle" x="288.05" y="-86.3" font-family="Times,serif" font-size="14.00">gstlal calibration</text>
</a>
</g>
</g>
<!-- gstlal&#45;&gt;gstlal&#45;calibration -->
<g id="edge2" class="edge">
<title>gstlal&#45;&gt;gstlal&#45;calibration</title>
<path fill="none" stroke="black" d="M174.2,-149.6C194.49,-139.15 224.97,-123.46 249.29,-110.95"/>
<polygon fill="black" stroke="black" points="250.98,-114.01 258.27,-106.32 247.78,-107.79 250.98,-114.01"/>
</g>
<!-- gstlal&#45;ugly&#45;&gt;gstlal&#45;burst -->
<g id="edge5" class="edge">
<title>gstlal&#45;ugly&#45;&gt;gstlal&#45;burst</title>
<path fill="none" stroke="black" d="M99.2,-72.76C91.16,-63.97 81.07,-52.93 72.12,-43.14"/>
<polygon fill="black" stroke="black" points="74.58,-40.65 65.25,-35.63 69.42,-45.38 74.58,-40.65"/>
</g>
<!-- gstlal&#45;ugly&#45;&gt;gstlal&#45;inspiral -->
<g id="edge6" class="edge">
<title>gstlal&#45;ugly&#45;&gt;gstlal&#45;inspiral</title>
<path fill="none" stroke="black" d="M130.05,-72.76C138.8,-63.88 149.82,-52.71 159.53,-42.85"/>
<polygon fill="black" stroke="black" points="162.12,-45.21 166.65,-35.63 157.14,-40.3 162.12,-45.21"/>
</g>
</g>
</svg>
