<?xml version="1.0" encoding="UTF-8" standalone="no"?>
<!DOCTYPE svg PUBLIC "-//W3C//DTD SVG 1.1//EN"
 "http://www.w3.org/Graphics/SVG/1.1/DTD/svg11.dtd">
<!-- Generated by graphviz version 2.49.0 (20210829.0051)
 -->
<!-- Pages: 1 -->
<svg width="2375pt" height="1544pt"
 viewBox="0.00 0.00 2375.14 1544.00" xmlns="http://www.w3.org/2000/svg" xmlns:xlink="http://www.w3.org/1999/xlink">
<g id="graph0" class="graph" transform="scale(1 1) rotate(0) translate(4 1540)">
<polygon fill="white" stroke="transparent" points="-4,4 -4,-1540 2371.14,-1540 2371.14,4 -4,4"/>
<!-- caffe -->
<g id="node1" class="node">
<title>caffe</title>
<g id="a_node1"><a xlink:href="https://github.com/conda-forge/caffe-feedstock" xlink:title="caffe">
<ellipse fill="#fde725" stroke="black" cx="32.5" cy="-1230" rx="32.5" ry="18"/>
<text text-anchor="middle" x="32.5" y="-1226.3" font-family="Times,serif" font-size="14.00">caffe</text>
</a>
</g>
</g>
<!-- cdo -->
<g id="node2" class="node">
<title>cdo</title>
<g id="a_node2"><a xlink:href="https://github.com/conda-forge/cdo-feedstock" xlink:title="cdo">
<ellipse fill="#fde725" stroke="black" cx="860.5" cy="-18" rx="27" ry="18"/>
<text text-anchor="middle" x="860.5" y="-14.3" font-family="Times,serif" font-size="14.00">cdo</text>
</a>
</g>
</g>
<!-- cyclus -->
<g id="node3" class="node">
<title>cyclus</title>
<g id="a_node3"><a xlink:href="https://github.com/conda-forge/cyclus-feedstock/pull/63" xlink:title="cyclus ❎">
<ellipse fill="#31688e" stroke="black" cx="2262.5" cy="-1518" rx="54" ry="18"/>
<text text-anchor="middle" x="2262.5" y="-1514.3" font-family="Times,serif" font-size="14.00" fill="white">cyclus ❎</text>
</a>
</g>
</g>
<!-- fenics -->
<g id="node4" class="node">
<title>fenics</title>
<g id="a_node4"><a xlink:href="https://github.com/conda-forge/fenics-feedstock" xlink:title="fenics">
<ellipse fill="#ff8c00" stroke="black" cx="2262.5" cy="-1446" rx="38.5" ry="18"/>
<text text-anchor="middle" x="2262.5" y="-1442.3" font-family="Times,serif" font-size="14.00">fenics</text>
</a>
</g>
</g>
<!-- cyclus&#45;&gt;fenics -->
<!-- graph -->
<g id="node9" class="node">
<title>graph</title>
<g id="a_node9"><a xlink:href="https://github.com/conda-forge/graph-feedstock/pull/6" xlink:title="graph ✓">
<ellipse fill="#31688e" stroke="black" cx="2262.5" cy="-1374" rx="45.5" ry="18"/>
<text text-anchor="middle" x="2262.5" y="-1370.3" font-family="Times,serif" font-size="14.00" fill="white">graph ✓</text>
</a>
</g>
</g>
<!-- fenics&#45;&gt;graph -->
<!-- eccodes -->
<g id="node5" class="node">
<title>eccodes</title>
<g id="a_node5"><a xlink:href="https://github.com/conda-forge/eccodes-feedstock" xlink:title="eccodes">
<ellipse fill="#ff8c00" stroke="black" cx="860.5" cy="-90" rx="47.5" ry="18"/>
<text text-anchor="middle" x="860.5" y="-86.3" font-family="Times,serif" font-size="14.00">eccodes</text>
</a>
</g>
</g>
<!-- eccodes&#45;&gt;cdo -->
<g id="edge2" class="edge">
<title>eccodes&#45;&gt;cdo</title>
<path fill="none" stroke="black" d="M860.5,-71.7C860.5,-63.98 860.5,-54.71 860.5,-46.11"/>
<polygon fill="black" stroke="black" points="864,-46.1 860.5,-36.1 857,-46.1 864,-46.1"/>
</g>
<!-- esmf -->
<g id="node6" class="node">
<title>esmf</title>
<g id="a_node6"><a xlink:href="https://github.com/conda-forge/esmf-feedstock" xlink:title="esmf">
<ellipse fill="#fde725" stroke="black" cx="605.5" cy="-1302" rx="33.29" ry="18"/>
<text text-anchor="middle" x="605.5" y="-1298.3" font-family="Times,serif" font-size="14.00">esmf</text>
</a>
</g>
</g>
<!-- ncl -->
<g id="node7" class="node">
<title>ncl</title>
<g id="a_node7"><a xlink:href="https://github.com/conda-forge/ncl-feedstock" xlink:title="ncl">
<ellipse fill="#fde725" stroke="black" cx="464.5" cy="-1230" rx="27" ry="18"/>
<text text-anchor="middle" x="464.5" y="-1226.3" font-family="Times,serif" font-size="14.00">ncl</text>
</a>
</g>
</g>
<!-- esmf&#45;&gt;ncl -->
<g id="edge3" class="edge">
<title>esmf&#45;&gt;ncl</title>
<path fill="none" stroke="black" d="M581.9,-1289.28C558.02,-1277.43 521,-1259.05 494.93,-1246.11"/>
<polygon fill="black" stroke="black" points="496.38,-1242.92 485.87,-1241.61 493.27,-1249.19 496.38,-1242.92"/>
</g>
<!-- nco -->
<g id="node8" class="node">
<title>nco</title>
<g id="a_node8"><a xlink:href="https://github.com/conda-forge/nco-feedstock" xlink:title="nco">
<ellipse fill="#fde725" stroke="black" cx="642.5" cy="-1230" rx="27" ry="18"/>
<text text-anchor="middle" x="642.5" y="-1226.3" font-family="Times,serif" font-size="14.00">nco</text>
</a>
</g>
</g>
<!-- esmf&#45;&gt;nco -->
<g id="edge4" class="edge">
<title>esmf&#45;&gt;nco</title>
<path fill="none" stroke="black" d="M614.27,-1284.41C618.69,-1276.04 624.15,-1265.71 629.09,-1256.37"/>
<polygon fill="black" stroke="black" points="632.22,-1257.95 633.79,-1247.47 626.03,-1254.68 632.22,-1257.95"/>
</g>
<!-- hyperion&#45;fortran -->
<g id="node21" class="node">
<title>hyperion&#45;fortran</title>
<g id="a_node21"><a xlink:href="https://github.com/conda-forge/hyperion-fortran-feedstock/pull/20" xlink:title="hyperion fortran ❎">
<ellipse fill="#31688e" stroke="black" cx="2262.5" cy="-1302" rx="101.5" ry="18"/>
<text text-anchor="middle" x="2262.5" y="-1298.3" font-family="Times,serif" font-size="14.00" fill="white">hyperion fortran ❎</text>
</a>
</g>
</g>
<!-- graph&#45;&gt;hyperion&#45;fortran -->
<!-- flann -->
<g id="node10" class="node">
<title>flann</title>
<g id="a_node10"><a xlink:href="https://github.com/conda-forge/flann-feedstock/pull/31" xlink:title="flann ❎">
<ellipse fill="#31688e" stroke="black" cx="1161.5" cy="-1302" rx="48.19" ry="18"/>
<text text-anchor="middle" x="1161.5" y="-1298.3" font-family="Times,serif" font-size="14.00" fill="white">flann ❎</text>
</a>
</g>
</g>
<!-- freecad -->
<g id="node11" class="node">
<title>freecad</title>
<g id="a_node11"><a xlink:href="https://github.com/conda-forge/freecad-feedstock" xlink:title="freecad">
<ellipse fill="#fde725" stroke="black" cx="1160.5" cy="-1230" rx="45.5" ry="18"/>
<text text-anchor="middle" x="1160.5" y="-1226.3" font-family="Times,serif" font-size="14.00">freecad</text>
</a>
</g>
</g>
<!-- flann&#45;&gt;freecad -->
<g id="edge6" class="edge">
<title>flann&#45;&gt;freecad</title>
<path fill="none" stroke="black" d="M1161.25,-1283.7C1161.14,-1275.98 1161.01,-1266.71 1160.89,-1258.11"/>
<polygon fill="black" stroke="black" points="1164.39,-1258.05 1160.74,-1248.1 1157.39,-1258.15 1164.39,-1258.05"/>
</g>
<!-- mpas_tools -->
<g id="node12" class="node">
<title>mpas_tools</title>
<g id="a_node12"><a xlink:href="https://github.com/conda-forge/mpas_tools-feedstock" xlink:title="mpas_tools">
<ellipse fill="#fde725" stroke="black" cx="1286.5" cy="-1230" rx="62.5" ry="18"/>
<text text-anchor="middle" x="1286.5" y="-1226.3" font-family="Times,serif" font-size="14.00">mpas_tools</text>
</a>
</g>
</g>
<!-- flann&#45;&gt;mpas_tools -->
<g id="edge7" class="edge">
<title>flann&#45;&gt;mpas_tools</title>
<path fill="none" stroke="black" d="M1187.1,-1286.67C1205.31,-1276.47 1230.03,-1262.62 1250.26,-1251.29"/>
<polygon fill="black" stroke="black" points="1252.19,-1254.23 1259.2,-1246.29 1248.77,-1248.12 1252.19,-1254.23"/>
</g>
<!-- gazebo -->
<g id="node13" class="node">
<title>gazebo</title>
<g id="a_node13"><a xlink:href="https://github.com/conda-forge/gazebo-feedstock" xlink:title="gazebo">
<ellipse fill="#fde725" stroke="black" cx="553.5" cy="-1230" rx="43.59" ry="18"/>
<text text-anchor="middle" x="553.5" y="-1226.3" font-family="Times,serif" font-size="14.00">gazebo</text>
</a>
</g>
</g>
<!-- flann&#45;&gt;gazebo -->
<g id="edge8" class="edge">
<title>flann&#45;&gt;gazebo</title>
<path fill="none" stroke="black" d="M1114.5,-1297.82C998.94,-1289.79 703.32,-1267.91 606.5,-1248 602.67,-1247.21 598.73,-1246.25 594.8,-1245.18"/>
<polygon fill="black" stroke="black" points="595.73,-1241.81 585.15,-1242.38 593.78,-1248.53 595.73,-1241.81"/>
</g>
<!-- gdal -->
<g id="node14" class="node">
<title>gdal</title>
<g id="a_node14"><a xlink:href="https://github.com/conda-forge/gdal-feedstock" xlink:title="gdal">
<ellipse fill="#ff8c00" stroke="black" cx="352.5" cy="-1302" rx="30.59" ry="18"/>
<text text-anchor="middle" x="352.5" y="-1298.3" font-family="Times,serif" font-size="14.00">gdal</text>
</a>
</g>
</g>
<!-- gdal&#45;&gt;ncl -->
<g id="edge9" class="edge">
<title>gdal&#45;&gt;ncl</title>
<path fill="none" stroke="black" d="M372.78,-1288.32C390.71,-1277.12 417.03,-1260.67 436.88,-1248.26"/>
<polygon fill="black" stroke="black" points="438.86,-1251.15 445.49,-1242.88 435.15,-1245.21 438.86,-1251.15"/>
</g>
<!-- gdal&#45;&gt;gazebo -->
<g id="edge10" class="edge">
<title>gdal&#45;&gt;gazebo</title>
<path fill="none" stroke="black" d="M378.37,-1291.99C412.06,-1280.26 471.4,-1259.59 511.57,-1245.6"/>
<polygon fill="black" stroke="black" points="512.79,-1248.88 521.09,-1242.29 510.49,-1242.27 512.79,-1248.88"/>
</g>
<!-- gmt -->
<g id="node15" class="node">
<title>gmt</title>
<g id="a_node15"><a xlink:href="https://github.com/conda-forge/gmt-feedstock" xlink:title="gmt">
<ellipse fill="#fde725" stroke="black" cx="238.5" cy="-1230" rx="29.5" ry="18"/>
<text text-anchor="middle" x="238.5" y="-1226.3" font-family="Times,serif" font-size="14.00">gmt</text>
</a>
</g>
</g>
<!-- gdal&#45;&gt;gmt -->
<g id="edge11" class="edge">
<title>gdal&#45;&gt;gmt</title>
<path fill="none" stroke="black" d="M332.12,-1288.49C314.12,-1277.44 287.69,-1261.2 267.49,-1248.8"/>
<polygon fill="black" stroke="black" points="269.06,-1245.66 258.7,-1243.41 265.39,-1251.62 269.06,-1245.66"/>
</g>
<!-- pynio -->
<g id="node16" class="node">
<title>pynio</title>
<g id="a_node16"><a xlink:href="https://github.com/conda-forge/pynio-feedstock" xlink:title="pynio">
<ellipse fill="#fde725" stroke="black" cx="268.5" cy="-1158" rx="36.5" ry="18"/>
<text text-anchor="middle" x="268.5" y="-1154.3" font-family="Times,serif" font-size="14.00">pynio</text>
</a>
</g>
</g>
<!-- gdal&#45;&gt;pynio -->
<g id="edge12" class="edge">
<title>gdal&#45;&gt;pynio</title>
<path fill="none" stroke="black" d="M342.24,-1284.86C335.64,-1274.4 326.95,-1260.47 319.5,-1248 306.86,-1226.85 292.98,-1202.56 282.9,-1184.7"/>
<polygon fill="black" stroke="black" points="285.68,-1182.5 277.72,-1175.51 279.58,-1185.94 285.68,-1182.5"/>
</g>
<!-- pdal -->
<g id="node17" class="node">
<title>pdal</title>
<g id="a_node17"><a xlink:href="https://github.com/conda-forge/pdal-feedstock" xlink:title="pdal">
<ellipse fill="#fde725" stroke="black" cx="312.5" cy="-1086" rx="30.59" ry="18"/>
<text text-anchor="middle" x="312.5" y="-1082.3" font-family="Times,serif" font-size="14.00">pdal</text>
</a>
</g>
</g>
<!-- gdal&#45;&gt;pdal -->
<g id="edge13" class="edge">
<title>gdal&#45;&gt;pdal</title>
<path fill="none" stroke="black" d="M349.29,-1283.85C342.34,-1246.66 325.84,-1158.37 317.5,-1113.77"/>
<polygon fill="black" stroke="black" points="320.94,-1113.12 315.67,-1103.94 314.06,-1114.41 320.94,-1113.12"/>
</g>
<!-- isce2 -->
<g id="node18" class="node">
<title>isce2</title>
<g id="a_node18"><a xlink:href="https://github.com/conda-forge/isce2-feedstock" xlink:title="isce2">
<ellipse fill="#fde725" stroke="black" cx="156.5" cy="-1230" rx="34.5" ry="18"/>
<text text-anchor="middle" x="156.5" y="-1226.3" font-family="Times,serif" font-size="14.00">isce2</text>
</a>
</g>
</g>
<!-- gdal&#45;&gt;isce2 -->
<g id="edge14" class="edge">
<title>gdal&#45;&gt;isce2</title>
<path fill="none" stroke="black" d="M326.59,-1292.26C296.26,-1281.96 244.57,-1264.19 200.5,-1248 197.99,-1247.08 195.41,-1246.12 192.81,-1245.14"/>
<polygon fill="black" stroke="black" points="194.03,-1241.86 183.44,-1241.57 191.54,-1248.4 194.03,-1241.86"/>
</g>
<!-- lue -->
<g id="node19" class="node">
<title>lue</title>
<g id="a_node19"><a xlink:href="https://github.com/conda-forge/lue-feedstock" xlink:title="lue">
<ellipse fill="#fde725" stroke="black" cx="354.5" cy="-1014" rx="27" ry="18"/>
<text text-anchor="middle" x="354.5" y="-1010.3" font-family="Times,serif" font-size="14.00">lue</text>
</a>
</g>
</g>
<!-- gdal&#45;&gt;lue -->
<g id="edge15" class="edge">
<title>gdal&#45;&gt;lue</title>
<path fill="none" stroke="black" d="M352.62,-1283.97C352.95,-1236.29 353.9,-1101.18 354.31,-1042.63"/>
<polygon fill="black" stroke="black" points="357.81,-1042.33 354.38,-1032.31 350.81,-1042.28 357.81,-1042.33"/>
</g>
<!-- mdal -->
<g id="node20" class="node">
<title>mdal</title>
<g id="a_node20"><a xlink:href="https://github.com/conda-forge/mdal-feedstock" xlink:title="mdal">
<ellipse fill="#fde725" stroke="black" cx="409.5" cy="-942" rx="34" ry="18"/>
<text text-anchor="middle" x="409.5" y="-938.3" font-family="Times,serif" font-size="14.00">mdal</text>
</a>
</g>
</g>
<!-- gdal&#45;&gt;mdal -->
<g id="edge16" class="edge">
<title>gdal&#45;&gt;mdal</title>
<path fill="none" stroke="black" d="M363.76,-1284.8C380.37,-1259.29 409.5,-1207.61 409.5,-1159 409.5,-1159 409.5,-1159 409.5,-1085 409.5,-1045 409.5,-998.65 409.5,-970.08"/>
<polygon fill="black" stroke="black" points="413,-970.05 409.5,-960.05 406,-970.05 413,-970.05"/>
</g>
<!-- libcdms -->
<g id="node22" class="node">
<title>libcdms</title>
<g id="a_node22"><a xlink:href="https://github.com/conda-forge/libcdms-feedstock" xlink:title="libcdms">
<ellipse fill="#ff8c00" stroke="black" cx="2262.5" cy="-1230" rx="47" ry="18"/>
<text text-anchor="middle" x="2262.5" y="-1226.3" font-family="Times,serif" font-size="14.00">libcdms</text>
</a>
</g>
</g>
<!-- hyperion&#45;fortran&#45;&gt;libcdms -->
<!-- paraview -->
<g id="node23" class="node">
<title>paraview</title>
<g id="a_node23"><a xlink:href="https://github.com/conda-forge/paraview-feedstock" xlink:title="paraview">
<ellipse fill="#ff8c00" stroke="black" cx="2262.5" cy="-1158" rx="53.5" ry="18"/>
<text text-anchor="middle" x="2262.5" y="-1154.3" font-family="Times,serif" font-size="14.00">paraview</text>
</a>
</g>
</g>
<!-- libcdms&#45;&gt;paraview -->
<!-- r&#45;ncdf4 -->
<g id="node43" class="node">
<title>r&#45;ncdf4</title>
<g id="a_node43"><a xlink:href="https://github.com/conda-forge/r-ncdf4-feedstock" xlink:title="r ncdf4">
<ellipse fill="#ff8c00" stroke="black" cx="2262.5" cy="-1086" rx="44.39" ry="18"/>
<text text-anchor="middle" x="2262.5" y="-1082.3" font-family="Times,serif" font-size="14.00">r ncdf4</text>
</a>
</g>
</g>
<!-- paraview&#45;&gt;r&#45;ncdf4 -->
<!-- libmatio -->
<g id="node24" class="node">
<title>libmatio</title>
<g id="a_node24"><a xlink:href="https://github.com/conda-forge/libmatio-feedstock/pull/39" xlink:title="libmatio ✓">
<ellipse fill="#31688e" stroke="black" cx="1996.5" cy="-574" rx="56" ry="18"/>
<text text-anchor="middle" x="1996.5" y="-570.3" font-family="Times,serif" font-size="14.00" fill="white">libmatio ✓</text>
</a>
</g>
</g>
<!-- pytrilinos -->
<g id="node25" class="node">
<title>pytrilinos</title>
<g id="a_node25"><a xlink:href="https://github.com/conda-forge/pytrilinos-feedstock" xlink:title="pytrilinos">
<ellipse fill="#fde725" stroke="black" cx="1783.5" cy="-502" rx="55.49" ry="18"/>
<text text-anchor="middle" x="1783.5" y="-498.3" font-family="Times,serif" font-size="14.00">pytrilinos</text>
</a>
</g>
</g>
<!-- libmatio&#45;&gt;pytrilinos -->
<g id="edge20" class="edge">
<title>libmatio&#45;&gt;pytrilinos</title>
<path fill="none" stroke="black" d="M1958.91,-560.65C1923.28,-548.94 1869.61,-531.3 1831.03,-518.62"/>
<polygon fill="black" stroke="black" points="1831.66,-515.14 1821.07,-515.35 1829.48,-521.79 1831.66,-515.14"/>
</g>
<!-- trilinos -->
<g id="node26" class="node">
<title>trilinos</title>
<g id="a_node26"><a xlink:href="https://github.com/conda-forge/trilinos-feedstock" xlink:title="trilinos">
<ellipse fill="#fde725" stroke="black" cx="1900.5" cy="-502" rx="44.39" ry="18"/>
<text text-anchor="middle" x="1900.5" y="-498.3" font-family="Times,serif" font-size="14.00">trilinos</text>
</a>
</g>
</g>
<!-- libmatio&#45;&gt;trilinos -->
<g id="edge21" class="edge">
<title>libmatio&#45;&gt;trilinos</title>
<path fill="none" stroke="black" d="M1974.72,-557.12C1961.31,-547.34 1943.96,-534.69 1929.4,-524.08"/>
<polygon fill="black" stroke="black" points="1931.35,-521.17 1921.21,-518.1 1927.23,-526.82 1931.35,-521.17"/>
</g>
<!-- openmeeg -->
<g id="node27" class="node">
<title>openmeeg</title>
<g id="a_node27"><a xlink:href="https://github.com/conda-forge/openmeeg-feedstock" xlink:title="openmeeg">
<ellipse fill="#fde725" stroke="black" cx="2021.5" cy="-502" rx="58.5" ry="18"/>
<text text-anchor="middle" x="2021.5" y="-498.3" font-family="Times,serif" font-size="14.00">openmeeg</text>
</a>
</g>
</g>
<!-- libmatio&#45;&gt;openmeeg -->
<g id="edge22" class="edge">
<title>libmatio&#45;&gt;openmeeg</title>
<path fill="none" stroke="black" d="M2002.55,-556.05C2005.37,-548.18 2008.78,-538.62 2011.93,-529.79"/>
<polygon fill="black" stroke="black" points="2015.26,-530.87 2015.33,-520.28 2008.67,-528.52 2015.26,-530.87"/>
</g>
<!-- libvips -->
<g id="node28" class="node">
<title>libvips</title>
<g id="a_node28"><a xlink:href="https://github.com/conda-forge/libvips-feedstock" xlink:title="libvips">
<ellipse fill="#fde725" stroke="black" cx="2108.5" cy="-430" rx="41.69" ry="18"/>
<text text-anchor="middle" x="2108.5" y="-426.3" font-family="Times,serif" font-size="14.00">libvips</text>
</a>
</g>
</g>
<!-- libmatio&#45;&gt;libvips -->
<g id="edge23" class="edge">
<title>libmatio&#45;&gt;libvips</title>
<path fill="none" stroke="black" d="M2033.86,-560.3C2053.29,-551.82 2075.78,-538.75 2089.5,-520 2102.58,-502.11 2107.03,-477.11 2108.38,-458.16"/>
<polygon fill="black" stroke="black" points="2111.88,-458.22 2108.86,-448.07 2104.89,-457.9 2111.88,-458.22"/>
</g>
<!-- moab -->
<g id="node29" class="node">
<title>moab</title>
<g id="a_node29"><a xlink:href="https://github.com/conda-forge/moab-feedstock" xlink:title="moab">
<ellipse fill="#fde725" stroke="black" cx="836.5" cy="-1230" rx="36.5" ry="18"/>
<text text-anchor="middle" x="836.5" y="-1226.3" font-family="Times,serif" font-size="14.00">moab</text>
</a>
</g>
</g>
<!-- pyne -->
<g id="node30" class="node">
<title>pyne</title>
<g id="a_node30"><a xlink:href="https://github.com/conda-forge/pyne-feedstock" xlink:title="pyne">
<ellipse fill="#fde725" stroke="black" cx="739.5" cy="-1158" rx="33.29" ry="18"/>
<text text-anchor="middle" x="739.5" y="-1154.3" font-family="Times,serif" font-size="14.00">pyne</text>
</a>
</g>
</g>
<!-- moab&#45;&gt;pyne -->
<g id="edge24" class="edge">
<title>moab&#45;&gt;pyne</title>
<path fill="none" stroke="black" d="M816.4,-1214.5C802.07,-1204.16 782.64,-1190.13 766.9,-1178.77"/>
<polygon fill="black" stroke="black" points="768.74,-1175.78 758.58,-1172.77 764.64,-1181.46 768.74,-1175.78"/>
</g>
<!-- dagmc -->
<g id="node31" class="node">
<title>dagmc</title>
<g id="a_node31"><a xlink:href="https://github.com/conda-forge/dagmc-feedstock" xlink:title="dagmc">
<ellipse fill="#fde725" stroke="black" cx="836.5" cy="-1158" rx="41.69" ry="18"/>
<text text-anchor="middle" x="836.5" y="-1154.3" font-family="Times,serif" font-size="14.00">dagmc</text>
</a>
</g>
</g>
<!-- moab&#45;&gt;dagmc -->
<g id="edge25" class="edge">
<title>moab&#45;&gt;dagmc</title>
<path fill="none" stroke="black" d="M836.5,-1211.7C836.5,-1203.98 836.5,-1194.71 836.5,-1186.11"/>
<polygon fill="black" stroke="black" points="840,-1186.1 836.5,-1176.1 833,-1186.1 840,-1186.1"/>
</g>
<!-- netcdf&#45;cxx4 -->
<g id="node32" class="node">
<title>netcdf&#45;cxx4</title>
<g id="a_node32"><a xlink:href="https://github.com/conda-forge/netcdf-cxx4-feedstock" xlink:title="netcdf cxx4">
<ellipse fill="#ff8c00" stroke="black" cx="1832.5" cy="-574" rx="64.5" ry="18"/>
<text text-anchor="middle" x="1832.5" y="-570.3" font-family="Times,serif" font-size="14.00">netcdf cxx4</text>
</a>
</g>
</g>
<!-- netcdf&#45;cxx4&#45;&gt;pytrilinos -->
<g id="edge26" class="edge">
<title>netcdf&#45;cxx4&#45;&gt;pytrilinos</title>
<path fill="none" stroke="black" d="M1820.64,-556.05C1814.8,-547.71 1807.64,-537.49 1801.18,-528.25"/>
<polygon fill="black" stroke="black" points="1803.85,-525.97 1795.25,-519.79 1798.12,-529.99 1803.85,-525.97"/>
</g>
<!-- netcdf&#45;cxx4&#45;&gt;trilinos -->
<g id="edge27" class="edge">
<title>netcdf&#45;cxx4&#45;&gt;trilinos</title>
<path fill="none" stroke="black" d="M1848.62,-556.41C1857.38,-547.39 1868.36,-536.09 1877.96,-526.21"/>
<polygon fill="black" stroke="black" points="1880.51,-528.6 1884.97,-518.99 1875.49,-523.72 1880.51,-528.6"/>
</g>
<!-- netcdf&#45;fortran -->
<g id="node33" class="node">
<title>netcdf&#45;fortran</title>
<g id="a_node33"><a xlink:href="https://github.com/conda-forge/netcdf-fortran-feedstock" xlink:title="netcdf fortran">
<ellipse fill="#ff8c00" stroke="black" cx="942.5" cy="-1374" rx="75.5" ry="18"/>
<text text-anchor="middle" x="942.5" y="-1370.3" font-family="Times,serif" font-size="14.00">netcdf fortran</text>
</a>
</g>
</g>
<!-- netcdf&#45;fortran&#45;&gt;esmf -->
<g id="edge28" class="edge">
<title>netcdf&#45;fortran&#45;&gt;esmf</title>
<path fill="none" stroke="black" d="M876.58,-1365.13C816.19,-1356.99 724.74,-1342.31 647.5,-1320 645.05,-1319.29 642.55,-1318.49 640.05,-1317.64"/>
<polygon fill="black" stroke="black" points="641.11,-1314.3 630.52,-1314.11 638.69,-1320.86 641.11,-1314.3"/>
</g>
<!-- siesta -->
<g id="node34" class="node">
<title>siesta</title>
<g id="a_node34"><a xlink:href="https://github.com/conda-forge/siesta-feedstock" xlink:title="siesta">
<ellipse fill="#fde725" stroke="black" cx="875.5" cy="-1302" rx="38.5" ry="18"/>
<text text-anchor="middle" x="875.5" y="-1298.3" font-family="Times,serif" font-size="14.00">siesta</text>
</a>
</g>
</g>
<!-- netcdf&#45;fortran&#45;&gt;siesta -->
<g id="edge29" class="edge">
<title>netcdf&#45;fortran&#45;&gt;siesta</title>
<path fill="none" stroke="black" d="M926.28,-1356.05C917.72,-1347.12 907.1,-1336.01 897.78,-1326.28"/>
<polygon fill="black" stroke="black" points="900.09,-1323.63 890.65,-1318.83 895.04,-1328.47 900.09,-1323.63"/>
</g>
<!-- abinit -->
<g id="node35" class="node">
<title>abinit</title>
<g id="a_node35"><a xlink:href="https://github.com/conda-forge/abinit-feedstock" xlink:title="abinit">
<ellipse fill="#fde725" stroke="black" cx="928.5" cy="-1230" rx="37.89" ry="18"/>
<text text-anchor="middle" x="928.5" y="-1226.3" font-family="Times,serif" font-size="14.00">abinit</text>
</a>
</g>
</g>
<!-- netcdf&#45;fortran&#45;&gt;abinit -->
<g id="edge30" class="edge">
<title>netcdf&#45;fortran&#45;&gt;abinit</title>
<path fill="none" stroke="black" d="M940.81,-1355.87C938.43,-1331.67 934.04,-1287.21 931.2,-1258.39"/>
<polygon fill="black" stroke="black" points="934.66,-1257.8 930.19,-1248.19 927.69,-1258.48 934.66,-1257.8"/>
</g>
<!-- fates&#45;emerald -->
<g id="node36" class="node">
<title>fates&#45;emerald</title>
<g id="a_node36"><a xlink:href="https://github.com/conda-forge/fates-emerald-feedstock" xlink:title="fates emerald">
<ellipse fill="#fde725" stroke="black" cx="982.5" cy="-1158" rx="74.99" ry="18"/>
<text text-anchor="middle" x="982.5" y="-1154.3" font-family="Times,serif" font-size="14.00">fates emerald</text>
</a>
</g>
</g>
<!-- netcdf&#45;fortran&#45;&gt;fates&#45;emerald -->
<g id="edge31" class="edge">
<title>netcdf&#45;fortran&#45;&gt;fates&#45;emerald</title>
<path fill="none" stroke="black" d="M948.09,-1355.82C955.62,-1331.93 968.85,-1287.17 975.5,-1248 978.98,-1227.5 980.74,-1204.04 981.62,-1186.36"/>
<polygon fill="black" stroke="black" points="985.12,-1186.32 982.06,-1176.17 978.13,-1186.01 985.12,-1186.32"/>
</g>
<!-- yambo -->
<g id="node37" class="node">
<title>yambo</title>
<g id="a_node37"><a xlink:href="https://github.com/conda-forge/yambo-feedstock" xlink:title="yambo">
<ellipse fill="#fde725" stroke="black" cx="1085.5" cy="-1086" rx="41.69" ry="18"/>
<text text-anchor="middle" x="1085.5" y="-1082.3" font-family="Times,serif" font-size="14.00">yambo</text>
</a>
</g>
</g>
<!-- netcdf&#45;fortran&#45;&gt;yambo -->
<g id="edge32" class="edge">
<title>netcdf&#45;fortran&#45;&gt;yambo</title>
<path fill="none" stroke="black" d="M956.02,-1356.22C981.62,-1323.56 1037.25,-1248.3 1066.5,-1176 1074.54,-1156.14 1079.39,-1132.34 1082.18,-1114.35"/>
<polygon fill="black" stroke="black" points="1085.67,-1114.65 1083.62,-1104.25 1078.74,-1113.65 1085.67,-1114.65"/>
</g>
<!-- netcdf4 -->
<g id="node38" class="node">
<title>netcdf4</title>
<g id="a_node38"><a xlink:href="https://github.com/conda-forge/netcdf4-feedstock/pull/125" xlink:title="netcdf4 ❎">
<ellipse fill="#31688e" stroke="black" cx="1659.5" cy="-1302" rx="60" ry="18"/>
<text text-anchor="middle" x="1659.5" y="-1298.3" font-family="Times,serif" font-size="14.00" fill="white">netcdf4 ❎</text>
</a>
</g>
</g>
<!-- netcdf4&#45;&gt;mpas_tools -->
<g id="edge33" class="edge">
<title>netcdf4&#45;&gt;mpas_tools</title>
<path fill="none" stroke="black" d="M1607.66,-1292.8C1547.55,-1283.08 1445.55,-1265.93 1358.5,-1248 1353.23,-1246.92 1347.76,-1245.73 1342.29,-1244.51"/>
<polygon fill="black" stroke="black" points="1343.03,-1241.09 1332.5,-1242.28 1341.48,-1247.91 1343.03,-1241.09"/>
</g>
<!-- cmor -->
<g id="node39" class="node">
<title>cmor</title>
<g id="a_node39"><a xlink:href="https://github.com/conda-forge/cmor-feedstock" xlink:title="cmor">
<ellipse fill="#fde725" stroke="black" cx="1685.5" cy="-1230" rx="34.5" ry="18"/>
<text text-anchor="middle" x="1685.5" y="-1226.3" font-family="Times,serif" font-size="14.00">cmor</text>
</a>
</g>
</g>
<!-- netcdf4&#45;&gt;cmor -->
<g id="edge34" class="edge">
<title>netcdf4&#45;&gt;cmor</title>
<path fill="none" stroke="black" d="M1665.79,-1284.05C1668.76,-1276.06 1672.38,-1266.33 1675.69,-1257.4"/>
<polygon fill="black" stroke="black" points="1679.06,-1258.38 1679.26,-1247.79 1672.5,-1255.94 1679.06,-1258.38"/>
</g>
<!-- opencv -->
<g id="node40" class="node">
<title>opencv</title>
<g id="a_node40"><a xlink:href="https://github.com/conda-forge/opencv-feedstock" xlink:title="opencv">
<ellipse fill="#ff8c00" stroke="black" cx="93.5" cy="-1302" rx="43.59" ry="18"/>
<text text-anchor="middle" x="93.5" y="-1298.3" font-family="Times,serif" font-size="14.00">opencv</text>
</a>
</g>
</g>
<!-- opencv&#45;&gt;caffe -->
<g id="edge35" class="edge">
<title>opencv&#45;&gt;caffe</title>
<path fill="none" stroke="black" d="M79.35,-1284.76C71.46,-1275.71 61.51,-1264.29 52.8,-1254.3"/>
<polygon fill="black" stroke="black" points="55.36,-1251.91 46.15,-1246.67 50.08,-1256.5 55.36,-1251.91"/>
</g>
<!-- opencv&#45;&gt;isce2 -->
<g id="edge36" class="edge">
<title>opencv&#45;&gt;isce2</title>
<path fill="none" stroke="black" d="M108.11,-1284.76C116.26,-1275.71 126.54,-1264.29 135.53,-1254.3"/>
<polygon fill="black" stroke="black" points="138.31,-1256.44 142.4,-1246.67 133.11,-1251.76 138.31,-1256.44"/>
</g>
<!-- imp -->
<g id="node41" class="node">
<title>imp</title>
<g id="a_node41"><a xlink:href="https://github.com/conda-forge/imp-feedstock" xlink:title="imp">
<ellipse fill="#fde725" stroke="black" cx="93.5" cy="-1158" rx="28.7" ry="18"/>
<text text-anchor="middle" x="93.5" y="-1154.3" font-family="Times,serif" font-size="14.00">imp</text>
</a>
</g>
</g>
<!-- opencv&#45;&gt;imp -->
<g id="edge37" class="edge">
<title>opencv&#45;&gt;imp</title>
<path fill="none" stroke="black" d="M93.5,-1283.87C93.5,-1259.67 93.5,-1215.21 93.5,-1186.39"/>
<polygon fill="black" stroke="black" points="97,-1186.19 93.5,-1176.19 90,-1186.19 97,-1186.19"/>
</g>
<!-- openmc -->
<g id="node42" class="node">
<title>openmc</title>
<g id="a_node42"><a xlink:href="https://github.com/conda-forge/openmc-feedstock" xlink:title="openmc">
<ellipse fill="#ff8c00" stroke="black" cx="734.5" cy="-1230" rx="47" ry="18"/>
<text text-anchor="middle" x="734.5" y="-1226.3" font-family="Times,serif" font-size="14.00">openmc</text>
</a>
</g>
</g>
<!-- openmc&#45;&gt;pyne -->
<g id="edge38" class="edge">
<title>openmc&#45;&gt;pyne</title>
<path fill="none" stroke="black" d="M735.74,-1211.7C736.29,-1203.98 736.95,-1194.71 737.56,-1186.11"/>
<polygon fill="black" stroke="black" points="741.06,-1186.33 738.28,-1176.1 734.07,-1185.83 741.06,-1186.33"/>
</g>
<!-- yaafe -->
<g id="node44" class="node">
<title>yaafe</title>
<g id="a_node44"><a xlink:href="https://github.com/conda-forge/yaafe-feedstock/pull/15" xlink:title="yaafe ❎">
<ellipse fill="#31688e" stroke="black" cx="2262.5" cy="-1014" rx="50.09" ry="18"/>
<text text-anchor="middle" x="2262.5" y="-1010.3" font-family="Times,serif" font-size="14.00" fill="white">yaafe ❎</text>
</a>
</g>
</g>
<!-- r&#45;ncdf4&#45;&gt;yaafe -->
<!-- lal -->
<g id="node49" class="node">
<title>lal</title>
<g id="a_node49"><a xlink:href="https://github.com/conda-forge/lal-feedstock/pull/58" xlink:title="lal ❎">
<ellipse fill="#31688e" stroke="black" cx="2262.5" cy="-942" rx="36.5" ry="18"/>
<text text-anchor="middle" x="2262.5" y="-938.3" font-family="Times,serif" font-size="14.00" fill="white">lal ❎</text>
</a>
</g>
</g>
<!-- yaafe&#45;&gt;lal -->
<!-- shogun -->
<g id="node45" class="node">
<title>shogun</title>
<g id="a_node45"><a xlink:href="https://github.com/conda-forge/shogun-feedstock" xlink:title="shogun">
<ellipse fill="#fde725" stroke="black" cx="2262.5" cy="-466" rx="44.39" ry="18"/>
<text text-anchor="middle" x="2262.5" y="-462.3" font-family="Times,serif" font-size="14.00">shogun</text>
</a>
</g>
</g>
<!-- shogun&#45;cpp -->
<g id="node46" class="node">
<title>shogun&#45;cpp</title>
<g id="a_node46"><a xlink:href="https://github.com/conda-forge/shogun-cpp-feedstock/pull/47" xlink:title="shogun cpp ✓">
<ellipse fill="#31688e" stroke="black" cx="2262.5" cy="-538" rx="71.5" ry="18"/>
<text text-anchor="middle" x="2262.5" y="-534.3" font-family="Times,serif" font-size="14.00" fill="white">shogun cpp ✓</text>
</a>
</g>
</g>
<!-- shogun&#45;cpp&#45;&gt;shogun -->
<g id="edge41" class="edge">
<title>shogun&#45;cpp&#45;&gt;shogun</title>
<path fill="none" stroke="black" d="M2262.5,-519.7C2262.5,-511.98 2262.5,-502.71 2262.5,-494.11"/>
<polygon fill="black" stroke="black" points="2266,-494.1 2262.5,-484.1 2259,-494.1 2266,-494.1"/>
</g>
<!-- vigra -->
<g id="node47" class="node">
<title>vigra</title>
<g id="a_node47"><a xlink:href="https://github.com/conda-forge/vigra-feedstock/pull/75" xlink:title="vigra ❎">
<ellipse fill="#31688e" stroke="black" cx="2262.5" cy="-206" rx="48.99" ry="18"/>
<text text-anchor="middle" x="2262.5" y="-202.3" font-family="Times,serif" font-size="14.00" fill="white">vigra ❎</text>
</a>
</g>
</g>
<!-- nifty -->
<g id="node48" class="node">
<title>nifty</title>
<g id="a_node48"><a xlink:href="https://github.com/conda-forge/nifty-feedstock" xlink:title="nifty">
<ellipse fill="#fde725" stroke="black" cx="2262.5" cy="-134" rx="32.5" ry="18"/>
<text text-anchor="middle" x="2262.5" y="-130.3" font-family="Times,serif" font-size="14.00">nifty</text>
</a>
</g>
</g>
<!-- vigra&#45;&gt;nifty -->
<g id="edge42" class="edge">
<title>vigra&#45;&gt;nifty</title>
<path fill="none" stroke="black" d="M2262.5,-187.7C2262.5,-179.98 2262.5,-170.71 2262.5,-162.11"/>
<polygon fill="black" stroke="black" points="2266,-162.1 2262.5,-152.1 2259,-162.1 2266,-162.1"/>
</g>
<!-- blosc&#45;hdf5&#45;plugin -->
<g id="node57" class="node">
<title>blosc&#45;hdf5&#45;plugin</title>
<g id="a_node57"><a xlink:href="https://github.com/conda-forge/blosc-hdf5-plugin-feedstock/pull/5" xlink:title="blosc hdf5 plugin ❎">
<ellipse fill="#31688e" stroke="black" cx="2262.5" cy="-870" rx="104.78" ry="18"/>
<text text-anchor="middle" x="2262.5" y="-866.3" font-family="Times,serif" font-size="14.00" fill="white">blosc hdf5 plugin ❎</text>
</a>
</g>
</g>
<!-- lal&#45;&gt;blosc&#45;hdf5&#45;plugin -->
<!-- vtk -->
<g id="node50" class="node">
<title>vtk</title>
<g id="a_node50"><a xlink:href="https://github.com/conda-forge/vtk-feedstock" xlink:title="vtk">
<ellipse fill="#ff8c00" stroke="black" cx="1509.5" cy="-1302" rx="27" ry="18"/>
<text text-anchor="middle" x="1509.5" y="-1298.3" font-family="Times,serif" font-size="14.00">vtk</text>
</a>
</g>
</g>
<!-- vtk&#45;&gt;freecad -->
<g id="edge44" class="edge">
<title>vtk&#45;&gt;freecad</title>
<path fill="none" stroke="black" d="M1483.32,-1297.37C1431.69,-1289.98 1313.26,-1271.83 1215.5,-1248 1211.84,-1247.11 1208.06,-1246.11 1204.28,-1245.05"/>
<polygon fill="black" stroke="black" points="1204.93,-1241.6 1194.35,-1242.17 1202.98,-1248.32 1204.93,-1241.6"/>
</g>
<!-- pymeep -->
<g id="node51" class="node">
<title>pymeep</title>
<g id="a_node51"><a xlink:href="https://github.com/conda-forge/pymeep-feedstock" xlink:title="pymeep">
<ellipse fill="#fde725" stroke="black" cx="1414.5" cy="-1230" rx="47.5" ry="18"/>
<text text-anchor="middle" x="1414.5" y="-1226.3" font-family="Times,serif" font-size="14.00">pymeep</text>
</a>
</g>
</g>
<!-- vtk&#45;&gt;pymeep -->
<g id="edge45" class="edge">
<title>vtk&#45;&gt;pymeep</title>
<path fill="none" stroke="black" d="M1492.08,-1288.16C1478.61,-1278.24 1459.66,-1264.27 1443.86,-1252.63"/>
<polygon fill="black" stroke="black" points="1445.59,-1249.56 1435.46,-1246.45 1441.44,-1255.2 1445.59,-1249.56"/>
</g>
<!-- bonsu -->
<g id="node52" class="node">
<title>bonsu</title>
<g id="a_node52"><a xlink:href="https://github.com/conda-forge/bonsu-feedstock" xlink:title="bonsu">
<ellipse fill="#fde725" stroke="black" cx="1461.5" cy="-1158" rx="38.5" ry="18"/>
<text text-anchor="middle" x="1461.5" y="-1154.3" font-family="Times,serif" font-size="14.00">bonsu</text>
</a>
</g>
</g>
<!-- vtk&#45;&gt;bonsu -->
<g id="edge46" class="edge">
<title>vtk&#45;&gt;bonsu</title>
<path fill="none" stroke="black" d="M1503.81,-1284.15C1495.58,-1259.81 1480.28,-1214.57 1470.51,-1185.67"/>
<polygon fill="black" stroke="black" points="1473.71,-1184.18 1467.19,-1175.82 1467.07,-1186.42 1473.71,-1184.18"/>
</g>
<!-- esys&#45;escript -->
<g id="node53" class="node">
<title>esys&#45;escript</title>
<g id="a_node53"><a xlink:href="https://github.com/conda-forge/esys-escript-feedstock" xlink:title="esys escript">
<ellipse fill="#fde725" stroke="black" cx="1471.5" cy="-1086" rx="66.5" ry="18"/>
<text text-anchor="middle" x="1471.5" y="-1082.3" font-family="Times,serif" font-size="14.00">esys escript</text>
</a>
</g>
</g>
<!-- vtk&#45;&gt;esys&#45;escript -->
<g id="edge47" class="edge">
<title>vtk&#45;&gt;esys&#45;escript</title>
<path fill="none" stroke="black" d="M1512.82,-1284.02C1517.96,-1254.08 1525.67,-1190.29 1509.5,-1140 1506.23,-1129.81 1500.19,-1119.93 1493.88,-1111.5"/>
<polygon fill="black" stroke="black" points="1496.55,-1109.24 1487.57,-1103.61 1491.08,-1113.61 1496.55,-1109.24"/>
</g>
<!-- damask -->
<g id="node54" class="node">
<title>damask</title>
<g id="a_node54"><a xlink:href="https://github.com/conda-forge/damask-feedstock" xlink:title="damask">
<ellipse fill="#fde725" stroke="black" cx="1548.5" cy="-1014" rx="46.29" ry="18"/>
<text text-anchor="middle" x="1548.5" y="-1010.3" font-family="Times,serif" font-size="14.00">damask</text>
</a>
</g>
</g>
<!-- vtk&#45;&gt;damask -->
<g id="edge48" class="edge">
<title>vtk&#45;&gt;damask</title>
<path fill="none" stroke="black" d="M1517.68,-1284.71C1522.47,-1274.43 1528.22,-1260.74 1531.5,-1248 1550.2,-1175.4 1550.76,-1086.17 1549.62,-1042.17"/>
<polygon fill="black" stroke="black" points="1553.12,-1041.89 1549.31,-1032 1546.12,-1042.1 1553.12,-1041.89"/>
</g>
<!-- pycgns -->
<g id="node55" class="node">
<title>pycgns</title>
<g id="a_node55"><a xlink:href="https://github.com/conda-forge/pycgns-feedstock" xlink:title="pycgns">
<ellipse fill="#fde725" stroke="black" cx="1622.5" cy="-942" rx="43.59" ry="18"/>
<text text-anchor="middle" x="1622.5" y="-938.3" font-family="Times,serif" font-size="14.00">pycgns</text>
</a>
</g>
</g>
<!-- vtk&#45;&gt;pycgns -->
<g id="edge49" class="edge">
<title>vtk&#45;&gt;pycgns</title>
<path fill="none" stroke="black" d="M1528.67,-1289.15C1560.91,-1267.57 1622.5,-1218.55 1622.5,-1159 1622.5,-1159 1622.5,-1159 1622.5,-1085 1622.5,-1045 1622.5,-998.65 1622.5,-970.08"/>
<polygon fill="black" stroke="black" points="1626,-970.05 1622.5,-960.05 1619,-970.05 1626,-970.05"/>
</g>
<!-- openpmd&#45;api -->
<g id="node56" class="node">
<title>openpmd&#45;api</title>
<g id="a_node56"><a xlink:href="https://github.com/conda-forge/openpmd-api-feedstock" xlink:title="openpmd api">
<ellipse fill="#fde725" stroke="black" cx="860.5" cy="-134" rx="71" ry="18"/>
<text text-anchor="middle" x="860.5" y="-130.3" font-family="Times,serif" font-size="14.00">openpmd api</text>
</a>
</g>
</g>
<!-- scilab -->
<g id="node58" class="node">
<title>scilab</title>
<g id="a_node58"><a xlink:href="https://github.com/conda-forge/scilab-feedstock/pull/25" xlink:title="scilab ❎">
<ellipse fill="#31688e" stroke="black" cx="2262.5" cy="-798" rx="52" ry="18"/>
<text text-anchor="middle" x="2262.5" y="-794.3" font-family="Times,serif" font-size="14.00" fill="white">scilab ❎</text>
</a>
</g>
</g>
<!-- blosc&#45;hdf5&#45;plugin&#45;&gt;scilab -->
<!-- tempest&#45;remap -->
<g id="node59" class="node">
<title>tempest&#45;remap</title>
<g id="a_node59"><a xlink:href="https://github.com/conda-forge/tempest-remap-feedstock" xlink:title="tempest remap">
<ellipse fill="#ff8c00" stroke="black" cx="737.5" cy="-1302" rx="81.49" ry="18"/>
<text text-anchor="middle" x="737.5" y="-1298.3" font-family="Times,serif" font-size="14.00">tempest remap</text>
</a>
</g>
</g>
<!-- tempest&#45;remap&#45;&gt;nco -->
<g id="edge52" class="edge">
<title>tempest&#45;remap&#45;&gt;nco</title>
<path fill="none" stroke="black" d="M714.99,-1284.41C700.95,-1274.07 682.85,-1260.73 668.24,-1249.97"/>
<polygon fill="black" stroke="black" points="670.23,-1247.09 660.11,-1243.97 666.08,-1252.72 670.23,-1247.09"/>
</g>
<!-- tempest&#45;remap&#45;&gt;moab -->
<g id="edge53" class="edge">
<title>tempest&#45;remap&#45;&gt;moab</title>
<path fill="none" stroke="black" d="M760.71,-1284.59C774.85,-1274.59 793.03,-1261.74 808.03,-1251.13"/>
<polygon fill="black" stroke="black" points="810.3,-1253.81 816.45,-1245.18 806.26,-1248.09 810.3,-1253.81"/>
</g>
<!-- bitshuffle -->
<g id="node60" class="node">
<title>bitshuffle</title>
<g id="a_node60"><a xlink:href="https://github.com/conda-forge/bitshuffle-feedstock" xlink:title="bitshuffle">
<ellipse fill="#ff8c00" stroke="black" cx="1938.5" cy="-1518" rx="54.69" ry="18"/>
<text text-anchor="middle" x="1938.5" y="-1514.3" font-family="Times,serif" font-size="14.00">bitshuffle</text>
</a>
</g>
</g>
<!-- dakota -->
<g id="node61" class="node">
<title>dakota</title>
<g id="a_node61"><a xlink:href="https://github.com/conda-forge/dakota-feedstock" xlink:title="dakota">
<ellipse fill="#ff8c00" stroke="black" cx="1938.5" cy="-1446" rx="42.49" ry="18"/>
<text text-anchor="middle" x="1938.5" y="-1442.3" font-family="Times,serif" font-size="14.00">dakota</text>
</a>
</g>
</g>
<!-- bitshuffle&#45;&gt;dakota -->
<!-- ncview -->
<g id="node63" class="node">
<title>ncview</title>
<g id="a_node63"><a xlink:href="https://github.com/conda-forge/ncview-feedstock" xlink:title="ncview">
<ellipse fill="#ff8c00" stroke="black" cx="1938.5" cy="-1374" rx="43" ry="18"/>
<text text-anchor="middle" x="1938.5" y="-1370.3" font-family="Times,serif" font-size="14.00">ncview</text>
</a>
</g>
</g>
<!-- dakota&#45;&gt;ncview -->
<!-- adios2 -->
<g id="node62" class="node">
<title>adios2</title>
<g id="a_node62"><a xlink:href="https://github.com/conda-forge/adios2-feedstock/pull/31" xlink:title="adios2 ❎">
<ellipse fill="#31688e" stroke="black" cx="860.5" cy="-206" rx="55.49" ry="18"/>
<text text-anchor="middle" x="860.5" y="-202.3" font-family="Times,serif" font-size="14.00" fill="white">adios2 ❎</text>
</a>
</g>
</g>
<!-- adios2&#45;&gt;openpmd&#45;api -->
<g id="edge55" class="edge">
<title>adios2&#45;&gt;openpmd&#45;api</title>
<path fill="none" stroke="black" d="M860.5,-187.7C860.5,-179.98 860.5,-170.71 860.5,-162.11"/>
<polygon fill="black" stroke="black" points="864,-162.1 860.5,-152.1 857,-162.1 864,-162.1"/>
</g>
<!-- proteus -->
<g id="node64" class="node">
<title>proteus</title>
<g id="a_node64"><a xlink:href="https://github.com/conda-forge/proteus-feedstock" xlink:title="proteus">
<ellipse fill="#ff8c00" stroke="black" cx="1938.5" cy="-1302" rx="46.29" ry="18"/>
<text text-anchor="middle" x="1938.5" y="-1298.3" font-family="Times,serif" font-size="14.00">proteus</text>
</a>
</g>
</g>
<!-- ncview&#45;&gt;proteus -->
<!-- hdf5&#45;external&#45;filter&#45;plugins -->
<g id="node67" class="node">
<title>hdf5&#45;external&#45;filter&#45;plugins</title>
<g id="a_node67"><a xlink:href="https://github.com/conda-forge/hdf5-external-filter-plugins-feedstock/pull/12" xlink:title="hdf5 external filter plugins ✓">
<ellipse fill="#31688e" stroke="black" cx="1938.5" cy="-1230" rx="143" ry="18"/>
<text text-anchor="middle" x="1938.5" y="-1226.3" font-family="Times,serif" font-size="14.00" fill="white">hdf5 external filter plugins ✓</text>
</a>
</g>
</g>
<!-- proteus&#45;&gt;hdf5&#45;external&#45;filter&#45;plugins -->
<!-- triqs -->
<g id="node65" class="node">
<title>triqs</title>
<g id="a_node65"><a xlink:href="https://github.com/conda-forge/triqs-feedstock/pull/19" xlink:title="triqs ❎">
<ellipse fill="#31688e" stroke="black" cx="1938.5" cy="-206" rx="47" ry="18"/>
<text text-anchor="middle" x="1938.5" y="-202.3" font-family="Times,serif" font-size="14.00" fill="white">triqs ❎</text>
</a>
</g>
</g>
<!-- triqs_cthyb -->
<g id="node66" class="node">
<title>triqs_cthyb</title>
<g id="a_node66"><a xlink:href="https://github.com/conda-forge/triqs_cthyb-feedstock" xlink:title="triqs_cthyb">
<ellipse fill="#fde725" stroke="black" cx="1938.5" cy="-134" rx="63.09" ry="18"/>
<text text-anchor="middle" x="1938.5" y="-130.3" font-family="Times,serif" font-size="14.00">triqs_cthyb</text>
</a>
</g>
</g>
<!-- triqs&#45;&gt;triqs_cthyb -->
<g id="edge58" class="edge">
<title>triqs&#45;&gt;triqs_cthyb</title>
<path fill="none" stroke="black" d="M1938.5,-187.7C1938.5,-179.98 1938.5,-170.71 1938.5,-162.11"/>
<polygon fill="black" stroke="black" points="1942,-162.1 1938.5,-152.1 1935,-162.1 1942,-162.1"/>
</g>
<!-- hdf5plugin -->
<g id="node68" class="node">
<title>hdf5plugin</title>
<g id="a_node68"><a xlink:href="https://github.com/conda-forge/hdf5plugin-feedstock" xlink:title="hdf5plugin">
<ellipse fill="#ff8c00" stroke="black" cx="1938.5" cy="-1158" rx="61.19" ry="18"/>
<text text-anchor="middle" x="1938.5" y="-1154.3" font-family="Times,serif" font-size="14.00">hdf5plugin</text>
</a>
</g>
</g>
<!-- hdf5&#45;external&#45;filter&#45;plugins&#45;&gt;hdf5plugin -->
<!-- netcdf&#45;cxx&#45;legacy -->
<g id="node69" class="node">
<title>netcdf&#45;cxx&#45;legacy</title>
<g id="a_node69"><a xlink:href="https://github.com/conda-forge/netcdf-cxx-legacy-feedstock" xlink:title="netcdf cxx legacy">
<ellipse fill="#ff8c00" stroke="black" cx="1938.5" cy="-1086" rx="91" ry="18"/>
<text text-anchor="middle" x="1938.5" y="-1082.3" font-family="Times,serif" font-size="14.00">netcdf cxx legacy</text>
</a>
</g>
</g>
<!-- hdf5plugin&#45;&gt;netcdf&#45;cxx&#45;legacy -->
<!-- prismatic_split -->
<g id="node70" class="node">
<title>prismatic_split</title>
<g id="a_node70"><a xlink:href="https://github.com/conda-forge/prismatic_split-feedstock" xlink:title="prismatic_split">
<ellipse fill="#ff8c00" stroke="black" cx="1938.5" cy="-1014" rx="79.5" ry="18"/>
<text text-anchor="middle" x="1938.5" y="-1010.3" font-family="Times,serif" font-size="14.00">prismatic_split</text>
</a>
</g>
</g>
<!-- netcdf&#45;cxx&#45;legacy&#45;&gt;prismatic_split -->
<!-- digital_rf -->
<g id="node71" class="node">
<title>digital_rf</title>
<g id="a_node71"><a xlink:href="https://github.com/conda-forge/digital_rf-feedstock" xlink:title="digital_rf">
<ellipse fill="#ff8c00" stroke="black" cx="1938.5" cy="-942" rx="52.79" ry="18"/>
<text text-anchor="middle" x="1938.5" y="-938.3" font-family="Times,serif" font-size="14.00">digital_rf</text>
</a>
</g>
</g>
<!-- prismatic_split&#45;&gt;digital_rf -->
<!-- gwollum -->
<g id="node72" class="node">
<title>gwollum</title>
<g id="a_node72"><a xlink:href="https://github.com/conda-forge/gwollum-feedstock" xlink:title="gwollum">
<ellipse fill="#ff8c00" stroke="black" cx="1938.5" cy="-870" rx="50.09" ry="18"/>
<text text-anchor="middle" x="1938.5" y="-866.3" font-family="Times,serif" font-size="14.00">gwollum</text>
</a>
</g>
</g>
<!-- digital_rf&#45;&gt;gwollum -->
<!-- conduit -->
<g id="node73" class="node">
<title>conduit</title>
<g id="a_node73"><a xlink:href="https://github.com/conda-forge/conduit-feedstock/pull/14" xlink:title="conduit ❎">
<ellipse fill="#31688e" stroke="black" cx="1938.5" cy="-798" rx="60" ry="18"/>
<text text-anchor="middle" x="1938.5" y="-794.3" font-family="Times,serif" font-size="14.00" fill="white">conduit ❎</text>
</a>
</g>
</g>
<!-- gwollum&#45;&gt;conduit -->
<!-- nccmp -->
<g id="node74" class="node">
<title>nccmp</title>
<g id="a_node74"><a xlink:href="https://github.com/conda-forge/nccmp-feedstock" xlink:title="nccmp">
<ellipse fill="#ff8c00" stroke="black" cx="860.5" cy="-754" rx="41" ry="18"/>
<text text-anchor="middle" x="860.5" y="-750.3" font-family="Times,serif" font-size="14.00">nccmp</text>
</a>
</g>
</g>
<!-- pp&#45;sketchlib -->
<g id="node75" class="node">
<title>pp&#45;sketchlib</title>
<g id="a_node75"><a xlink:href="https://github.com/conda-forge/pp-sketchlib-feedstock" xlink:title="pp sketchlib">
<ellipse fill="#ff8c00" stroke="black" cx="860.5" cy="-682" rx="67.69" ry="18"/>
<text text-anchor="middle" x="860.5" y="-678.3" font-family="Times,serif" font-size="14.00">pp sketchlib</text>
</a>
</g>
</g>
<!-- nccmp&#45;&gt;pp&#45;sketchlib -->
<!-- polycap -->
<g id="node76" class="node">
<title>polycap</title>
<g id="a_node76"><a xlink:href="https://github.com/conda-forge/polycap-feedstock/pull/10" xlink:title="polycap ❎">
<ellipse fill="#31688e" stroke="black" cx="860.5" cy="-610" rx="60.5" ry="18"/>
<text text-anchor="middle" x="860.5" y="-606.3" font-family="Times,serif" font-size="14.00" fill="white">polycap ❎</text>
</a>
</g>
</g>
<!-- pp&#45;sketchlib&#45;&gt;polycap -->
<!-- gwframes -->
<g id="node77" class="node">
<title>gwframes</title>
<g id="a_node77"><a xlink:href="https://github.com/conda-forge/gwframes-feedstock" xlink:title="gwframes">
<ellipse fill="#000000" stroke="black" cx="860.5" cy="-538" rx="56.59" ry="18"/>
<text text-anchor="middle" x="860.5" y="-534.3" font-family="Times,serif" font-size="14.00" fill="white">gwframes</text>
</a>
</g>
</g>
<!-- polycap&#45;&gt;gwframes -->
<!-- muq -->
<g id="node78" class="node">
<title>muq</title>
<g id="a_node78"><a xlink:href="https://github.com/conda-forge/muq-feedstock/pull/16" xlink:title="muq ✓">
<ellipse fill="#31688e" stroke="black" cx="860.5" cy="-466" rx="38.5" ry="18"/>
<text text-anchor="middle" x="860.5" y="-462.3" font-family="Times,serif" font-size="14.00" fill="white">muq ✓</text>
</a>
</g>
</g>
<!-- gwframes&#45;&gt;muq -->
<!-- tomviz -->
<g id="node79" class="node">
<title>tomviz</title>
<g id="a_node79"><a xlink:href="https://github.com/conda-forge/tomviz-feedstock/pull/10" xlink:title="tomviz ❎">
<ellipse fill="#31688e" stroke="black" cx="860.5" cy="-394" rx="56" ry="18"/>
<text text-anchor="middle" x="860.5" y="-390.3" font-family="Times,serif" font-size="14.00" fill="white">tomviz ❎</text>
</a>
</g>
</g>
<!-- muq&#45;&gt;tomviz -->
<!-- sirius -->
<g id="node80" class="node">
<title>sirius</title>
<g id="a_node80"><a xlink:href="https://github.com/conda-forge/sirius-feedstock/pull/7" xlink:title="sirius ❎">
<ellipse fill="#31688e" stroke="black" cx="860.5" cy="-322" rx="50.89" ry="18"/>
<text text-anchor="middle" x="860.5" y="-318.3" font-family="Times,serif" font-size="14.00" fill="white">sirius ❎</text>
</a>
</g>
</g>
<!-- tomviz&#45;&gt;sirius -->
<!-- harp -->
<g id="node81" class="node">
<title>harp</title>
<g id="a_node81"><a xlink:href="https://github.com/conda-forge/harp-feedstock/pull/4" xlink:title="harp ❎">
<ellipse fill="#31688e" stroke="black" cx="860.5" cy="-250" rx="46.29" ry="18"/>
<text text-anchor="middle" x="860.5" y="-246.3" font-family="Times,serif" font-size="14.00" fill="white">harp ❎</text>
</a>
</g>
</g>
<!-- sirius&#45;&gt;harp -->
</g>
</svg>
