<?xml version="1.0" encoding="UTF-8" standalone="no"?>
<!DOCTYPE svg PUBLIC "-//W3C//DTD SVG 1.1//EN"
 "http://www.w3.org/Graphics/SVG/1.1/DTD/svg11.dtd">
<!-- Generated by graphviz version 2.49.0 (20210829.0051)
 -->
<!-- Pages: 1 -->
<svg width="2159pt" height="1544pt"
 viewBox="0.00 0.00 2159.14 1544.00" xmlns="http://www.w3.org/2000/svg" xmlns:xlink="http://www.w3.org/1999/xlink">
<g id="graph0" class="graph" transform="scale(1 1) rotate(0) translate(4 1540)">
<polygon fill="white" stroke="transparent" points="-4,4 -4,-1540 2155.14,-1540 2155.14,4 -4,4"/>
<!-- caffe -->
<g id="node1" class="node">
<title>caffe</title>
<g id="a_node1"><a xlink:href="https://github.com/conda-forge/caffe-feedstock" xlink:title="caffe">
<ellipse fill="#fde725" stroke="black" cx="32.5" cy="-1230" rx="32.5" ry="18"/>
<text text-anchor="middle" x="32.5" y="-1226.3" font-family="Times,serif" font-size="14.00">caffe</text>
</a>
</g>
</g>
<!-- cdo -->
<g id="node2" class="node">
<title>cdo</title>
<g id="a_node2"><a xlink:href="https://github.com/conda-forge/cdo-feedstock" xlink:title="cdo">
<ellipse fill="#fde725" stroke="black" cx="1722.5" cy="-18" rx="27" ry="18"/>
<text text-anchor="middle" x="1722.5" y="-14.3" font-family="Times,serif" font-size="14.00">cdo</text>
</a>
</g>
</g>
<!-- cyclus -->
<g id="node3" class="node">
<title>cyclus</title>
<g id="a_node3"><a xlink:href="https://github.com/conda-forge/cyclus-feedstock/pull/63" xlink:title="cyclus ❎">
<ellipse fill="#31688e" stroke="black" cx="2046.5" cy="-1518" rx="54" ry="18"/>
<text text-anchor="middle" x="2046.5" y="-1514.3" font-family="Times,serif" font-size="14.00" fill="white">cyclus ❎</text>
</a>
</g>
</g>
<!-- fenics -->
<g id="node4" class="node">
<title>fenics</title>
<g id="a_node4"><a xlink:href="https://github.com/conda-forge/fenics-feedstock" xlink:title="fenics">
<ellipse fill="#ff8c00" stroke="black" cx="2046.5" cy="-1446" rx="38.5" ry="18"/>
<text text-anchor="middle" x="2046.5" y="-1442.3" font-family="Times,serif" font-size="14.00">fenics</text>
</a>
</g>
</g>
<!-- cyclus&#45;&gt;fenics -->
<!-- graph -->
<g id="node9" class="node">
<title>graph</title>
<g id="a_node9"><a xlink:href="https://github.com/conda-forge/graph-feedstock/pull/6" xlink:title="graph ✓">
<ellipse fill="#31688e" stroke="black" cx="2046.5" cy="-1374" rx="45.5" ry="18"/>
<text text-anchor="middle" x="2046.5" y="-1370.3" font-family="Times,serif" font-size="14.00" fill="white">graph ✓</text>
</a>
</g>
</g>
<!-- fenics&#45;&gt;graph -->
<!-- eccodes -->
<g id="node5" class="node">
<title>eccodes</title>
<g id="a_node5"><a xlink:href="https://github.com/conda-forge/eccodes-feedstock" xlink:title="eccodes">
<ellipse fill="#ff8c00" stroke="black" cx="1722.5" cy="-90" rx="47.5" ry="18"/>
<text text-anchor="middle" x="1722.5" y="-86.3" font-family="Times,serif" font-size="14.00">eccodes</text>
</a>
</g>
</g>
<!-- eccodes&#45;&gt;cdo -->
<g id="edge2" class="edge">
<title>eccodes&#45;&gt;cdo</title>
<path fill="none" stroke="black" d="M1722.5,-71.7C1722.5,-63.98 1722.5,-54.71 1722.5,-46.11"/>
<polygon fill="black" stroke="black" points="1726,-46.1 1722.5,-36.1 1719,-46.1 1726,-46.1"/>
</g>
<!-- esmf -->
<g id="node6" class="node">
<title>esmf</title>
<g id="a_node6"><a xlink:href="https://github.com/conda-forge/esmf-feedstock" xlink:title="esmf">
<ellipse fill="#fde725" stroke="black" cx="732.5" cy="-1302" rx="33.29" ry="18"/>
<text text-anchor="middle" x="732.5" y="-1298.3" font-family="Times,serif" font-size="14.00">esmf</text>
</a>
</g>
</g>
<!-- ncl -->
<g id="node7" class="node">
<title>ncl</title>
<g id="a_node7"><a xlink:href="https://github.com/conda-forge/ncl-feedstock" xlink:title="ncl">
<ellipse fill="#fde725" stroke="black" cx="560.5" cy="-1230" rx="27" ry="18"/>
<text text-anchor="middle" x="560.5" y="-1226.3" font-family="Times,serif" font-size="14.00">ncl</text>
</a>
</g>
</g>
<!-- esmf&#45;&gt;ncl -->
<g id="edge3" class="edge">
<title>esmf&#45;&gt;ncl</title>
<path fill="none" stroke="black" d="M705.7,-1291.18C678.11,-1280.93 633.98,-1264.13 596.5,-1248 594.69,-1247.22 592.84,-1246.41 590.97,-1245.57"/>
<polygon fill="black" stroke="black" points="592.26,-1242.31 581.71,-1241.31 589.34,-1248.67 592.26,-1242.31"/>
</g>
<!-- nco -->
<g id="node8" class="node">
<title>nco</title>
<g id="a_node8"><a xlink:href="https://github.com/conda-forge/nco-feedstock" xlink:title="nco">
<ellipse fill="#fde725" stroke="black" cx="738.5" cy="-1230" rx="27" ry="18"/>
<text text-anchor="middle" x="738.5" y="-1226.3" font-family="Times,serif" font-size="14.00">nco</text>
</a>
</g>
</g>
<!-- esmf&#45;&gt;nco -->
<g id="edge4" class="edge">
<title>esmf&#45;&gt;nco</title>
<path fill="none" stroke="black" d="M733.98,-1283.7C734.64,-1275.98 735.44,-1266.71 736.18,-1258.11"/>
<polygon fill="black" stroke="black" points="739.67,-1258.37 737.03,-1248.1 732.69,-1257.77 739.67,-1258.37"/>
</g>
<!-- hyperion&#45;fortran -->
<g id="node21" class="node">
<title>hyperion&#45;fortran</title>
<g id="a_node21"><a xlink:href="https://github.com/conda-forge/hyperion-fortran-feedstock/pull/20" xlink:title="hyperion fortran ❎">
<ellipse fill="#31688e" stroke="black" cx="2046.5" cy="-1302" rx="101.5" ry="18"/>
<text text-anchor="middle" x="2046.5" y="-1298.3" font-family="Times,serif" font-size="14.00" fill="white">hyperion fortran ❎</text>
</a>
</g>
</g>
<!-- graph&#45;&gt;hyperion&#45;fortran -->
<!-- flann -->
<g id="node10" class="node">
<title>flann</title>
<g id="a_node10"><a xlink:href="https://github.com/conda-forge/flann-feedstock/pull/31" xlink:title="flann ❎">
<ellipse fill="#31688e" stroke="black" cx="1003.5" cy="-1302" rx="48.19" ry="18"/>
<text text-anchor="middle" x="1003.5" y="-1298.3" font-family="Times,serif" font-size="14.00" fill="white">flann ❎</text>
</a>
</g>
</g>
<!-- freecad -->
<g id="node11" class="node">
<title>freecad</title>
<g id="a_node11"><a xlink:href="https://github.com/conda-forge/freecad-feedstock" xlink:title="freecad">
<ellipse fill="#fde725" stroke="black" cx="1088.5" cy="-1230" rx="45.5" ry="18"/>
<text text-anchor="middle" x="1088.5" y="-1226.3" font-family="Times,serif" font-size="14.00">freecad</text>
</a>
</g>
</g>
<!-- flann&#45;&gt;freecad -->
<g id="edge6" class="edge">
<title>flann&#45;&gt;freecad</title>
<path fill="none" stroke="black" d="M1022.79,-1285.12C1034.28,-1275.65 1049.04,-1263.5 1061.65,-1253.11"/>
<polygon fill="black" stroke="black" points="1064.09,-1255.64 1069.58,-1246.58 1059.64,-1250.24 1064.09,-1255.64"/>
</g>
<!-- mpas_tools -->
<g id="node12" class="node">
<title>mpas_tools</title>
<g id="a_node12"><a xlink:href="https://github.com/conda-forge/mpas_tools-feedstock" xlink:title="mpas_tools">
<ellipse fill="#fde725" stroke="black" cx="962.5" cy="-1230" rx="62.5" ry="18"/>
<text text-anchor="middle" x="962.5" y="-1226.3" font-family="Times,serif" font-size="14.00">mpas_tools</text>
</a>
</g>
</g>
<!-- flann&#45;&gt;mpas_tools -->
<g id="edge7" class="edge">
<title>flann&#45;&gt;mpas_tools</title>
<path fill="none" stroke="black" d="M993.58,-1284.05C988.74,-1275.8 982.83,-1265.7 977.46,-1256.54"/>
<polygon fill="black" stroke="black" points="980.41,-1254.65 972.33,-1247.79 974.37,-1258.19 980.41,-1254.65"/>
</g>
<!-- gazebo -->
<g id="node13" class="node">
<title>gazebo</title>
<g id="a_node13"><a xlink:href="https://github.com/conda-forge/gazebo-feedstock" xlink:title="gazebo">
<ellipse fill="#fde725" stroke="black" cx="649.5" cy="-1230" rx="43.59" ry="18"/>
<text text-anchor="middle" x="649.5" y="-1226.3" font-family="Times,serif" font-size="14.00">gazebo</text>
</a>
</g>
</g>
<!-- flann&#45;&gt;gazebo -->
<g id="edge8" class="edge">
<title>flann&#45;&gt;gazebo</title>
<path fill="none" stroke="black" d="M968.13,-1289.6C961.02,-1287.54 953.56,-1285.56 946.5,-1284 839.48,-1260.27 809.27,-1272.82 702.5,-1248 698.9,-1247.16 695.19,-1246.2 691.49,-1245.16"/>
<polygon fill="black" stroke="black" points="692.36,-1241.77 681.78,-1242.28 690.37,-1248.48 692.36,-1241.77"/>
</g>
<!-- gdal -->
<g id="node14" class="node">
<title>gdal</title>
<g id="a_node14"><a xlink:href="https://github.com/conda-forge/gdal-feedstock/pull/518" xlink:title="gdal ✓">
<ellipse fill="#31688e" stroke="black" cx="448.5" cy="-1302" rx="38.5" ry="18"/>
<text text-anchor="middle" x="448.5" y="-1298.3" font-family="Times,serif" font-size="14.00" fill="white">gdal ✓</text>
</a>
</g>
</g>
<!-- gdal&#45;&gt;ncl -->
<g id="edge9" class="edge">
<title>gdal&#45;&gt;ncl</title>
<path fill="none" stroke="black" d="M470.63,-1287.17C488.46,-1276.03 513.63,-1260.29 532.8,-1248.31"/>
<polygon fill="black" stroke="black" points="534.78,-1251.2 541.4,-1242.94 531.07,-1245.27 534.78,-1251.2"/>
</g>
<!-- gdal&#45;&gt;gazebo -->
<g id="edge10" class="edge">
<title>gdal&#45;&gt;gazebo</title>
<path fill="none" stroke="black" d="M478.59,-1290.52C512.77,-1278.62 568.79,-1259.11 607.32,-1245.69"/>
<polygon fill="black" stroke="black" points="608.91,-1248.84 617.2,-1242.25 606.61,-1242.23 608.91,-1248.84"/>
</g>
<!-- gmt -->
<g id="node15" class="node">
<title>gmt</title>
<g id="a_node15"><a xlink:href="https://github.com/conda-forge/gmt-feedstock" xlink:title="gmt">
<ellipse fill="#fde725" stroke="black" cx="372.5" cy="-1230" rx="29.5" ry="18"/>
<text text-anchor="middle" x="372.5" y="-1226.3" font-family="Times,serif" font-size="14.00">gmt</text>
</a>
</g>
</g>
<!-- gdal&#45;&gt;gmt -->
<g id="edge11" class="edge">
<title>gdal&#45;&gt;gmt</title>
<path fill="none" stroke="black" d="M431.63,-1285.46C421.04,-1275.71 407.25,-1263 395.64,-1252.32"/>
<polygon fill="black" stroke="black" points="397.75,-1249.5 388.03,-1245.3 393.01,-1254.65 397.75,-1249.5"/>
</g>
<!-- pynio -->
<g id="node16" class="node">
<title>pynio</title>
<g id="a_node16"><a xlink:href="https://github.com/conda-forge/pynio-feedstock" xlink:title="pynio">
<ellipse fill="#fde725" stroke="black" cx="402.5" cy="-1158" rx="36.5" ry="18"/>
<text text-anchor="middle" x="402.5" y="-1154.3" font-family="Times,serif" font-size="14.00">pynio</text>
</a>
</g>
</g>
<!-- gdal&#45;&gt;pynio -->
<g id="edge12" class="edge">
<title>gdal&#45;&gt;pynio</title>
<path fill="none" stroke="black" d="M443.04,-1284.15C435.16,-1259.81 420.5,-1214.57 411.14,-1185.67"/>
<polygon fill="black" stroke="black" points="414.36,-1184.26 407.95,-1175.82 407.7,-1186.42 414.36,-1184.26"/>
</g>
<!-- pdal -->
<g id="node17" class="node">
<title>pdal</title>
<g id="a_node17"><a xlink:href="https://github.com/conda-forge/pdal-feedstock" xlink:title="pdal">
<ellipse fill="#fde725" stroke="black" cx="446.5" cy="-1086" rx="30.59" ry="18"/>
<text text-anchor="middle" x="446.5" y="-1082.3" font-family="Times,serif" font-size="14.00">pdal</text>
</a>
</g>
</g>
<!-- gdal&#45;&gt;pdal -->
<g id="edge13" class="edge">
<title>gdal&#45;&gt;pdal</title>
<path fill="none" stroke="black" d="M448.71,-1283.61C449.03,-1254.08 449.49,-1192.26 448.5,-1140 448.34,-1131.68 448.05,-1122.63 447.73,-1114.4"/>
<polygon fill="black" stroke="black" points="451.22,-1114.03 447.31,-1104.18 444.22,-1114.32 451.22,-1114.03"/>
</g>
<!-- isce2 -->
<g id="node18" class="node">
<title>isce2</title>
<g id="a_node18"><a xlink:href="https://github.com/conda-forge/isce2-feedstock" xlink:title="isce2">
<ellipse fill="#fde725" stroke="black" cx="252.5" cy="-1230" rx="34.5" ry="18"/>
<text text-anchor="middle" x="252.5" y="-1226.3" font-family="Times,serif" font-size="14.00">isce2</text>
</a>
</g>
</g>
<!-- gdal&#45;&gt;isce2 -->
<g id="edge14" class="edge">
<title>gdal&#45;&gt;isce2</title>
<path fill="none" stroke="black" d="M418.73,-1290.37C384.23,-1278.05 327.32,-1257.72 289.87,-1244.35"/>
<polygon fill="black" stroke="black" points="290.92,-1241 280.32,-1240.94 288.56,-1247.6 290.92,-1241"/>
</g>
<!-- lue -->
<g id="node19" class="node">
<title>lue</title>
<g id="a_node19"><a xlink:href="https://github.com/conda-forge/lue-feedstock" xlink:title="lue">
<ellipse fill="#fde725" stroke="black" cx="505.5" cy="-1014" rx="27" ry="18"/>
<text text-anchor="middle" x="505.5" y="-1010.3" font-family="Times,serif" font-size="14.00">lue</text>
</a>
</g>
</g>
<!-- gdal&#45;&gt;lue -->
<g id="edge15" class="edge">
<title>gdal&#45;&gt;lue</title>
<path fill="none" stroke="black" d="M453.37,-1283.89C456.23,-1273.55 459.8,-1260.07 462.5,-1248 479.08,-1173.99 494.08,-1085.73 501.18,-1042.13"/>
<polygon fill="black" stroke="black" points="504.67,-1042.48 502.81,-1032.05 497.76,-1041.36 504.67,-1042.48"/>
</g>
<!-- mdal -->
<g id="node20" class="node">
<title>mdal</title>
<g id="a_node20"><a xlink:href="https://github.com/conda-forge/mdal-feedstock" xlink:title="mdal">
<ellipse fill="#fde725" stroke="black" cx="315.5" cy="-942" rx="34" ry="18"/>
<text text-anchor="middle" x="315.5" y="-938.3" font-family="Times,serif" font-size="14.00">mdal</text>
</a>
</g>
</g>
<!-- gdal&#45;&gt;mdal -->
<g id="edge16" class="edge">
<title>gdal&#45;&gt;mdal</title>
<path fill="none" stroke="black" d="M414.18,-1293.78C388.41,-1286.56 354.29,-1272.83 334.5,-1248 309.29,-1216.37 315.5,-1199.45 315.5,-1159 315.5,-1159 315.5,-1159 315.5,-1085 315.5,-1045 315.5,-998.65 315.5,-970.08"/>
<polygon fill="black" stroke="black" points="319,-970.05 315.5,-960.05 312,-970.05 319,-970.05"/>
</g>
<!-- libcdms -->
<g id="node22" class="node">
<title>libcdms</title>
<g id="a_node22"><a xlink:href="https://github.com/conda-forge/libcdms-feedstock" xlink:title="libcdms">
<ellipse fill="#ff8c00" stroke="black" cx="2046.5" cy="-1230" rx="47" ry="18"/>
<text text-anchor="middle" x="2046.5" y="-1226.3" font-family="Times,serif" font-size="14.00">libcdms</text>
</a>
</g>
</g>
<!-- hyperion&#45;fortran&#45;&gt;libcdms -->
<!-- paraview -->
<g id="node23" class="node">
<title>paraview</title>
<g id="a_node23"><a xlink:href="https://github.com/conda-forge/paraview-feedstock" xlink:title="paraview">
<ellipse fill="#ff8c00" stroke="black" cx="2046.5" cy="-1158" rx="53.5" ry="18"/>
<text text-anchor="middle" x="2046.5" y="-1154.3" font-family="Times,serif" font-size="14.00">paraview</text>
</a>
</g>
</g>
<!-- libcdms&#45;&gt;paraview -->
<!-- yaafe -->
<g id="node41" class="node">
<title>yaafe</title>
<g id="a_node41"><a xlink:href="https://github.com/conda-forge/yaafe-feedstock/pull/15" xlink:title="yaafe ❎">
<ellipse fill="#31688e" stroke="black" cx="2046.5" cy="-1086" rx="50.09" ry="18"/>
<text text-anchor="middle" x="2046.5" y="-1082.3" font-family="Times,serif" font-size="14.00" fill="white">yaafe ❎</text>
</a>
</g>
</g>
<!-- paraview&#45;&gt;yaafe -->
<!-- libmatio -->
<g id="node24" class="node">
<title>libmatio</title>
<g id="a_node24"><a xlink:href="https://github.com/conda-forge/libmatio-feedstock/pull/39" xlink:title="libmatio ✓">
<ellipse fill="#31688e" stroke="black" cx="1780.5" cy="-574" rx="56" ry="18"/>
<text text-anchor="middle" x="1780.5" y="-570.3" font-family="Times,serif" font-size="14.00" fill="white">libmatio ✓</text>
</a>
</g>
</g>
<!-- pytrilinos -->
<g id="node25" class="node">
<title>pytrilinos</title>
<g id="a_node25"><a xlink:href="https://github.com/conda-forge/pytrilinos-feedstock" xlink:title="pytrilinos">
<ellipse fill="#fde725" stroke="black" cx="1567.5" cy="-502" rx="55.49" ry="18"/>
<text text-anchor="middle" x="1567.5" y="-498.3" font-family="Times,serif" font-size="14.00">pytrilinos</text>
</a>
</g>
</g>
<!-- libmatio&#45;&gt;pytrilinos -->
<g id="edge20" class="edge">
<title>libmatio&#45;&gt;pytrilinos</title>
<path fill="none" stroke="black" d="M1742.91,-560.65C1707.28,-548.94 1653.61,-531.3 1615.03,-518.62"/>
<polygon fill="black" stroke="black" points="1615.66,-515.14 1605.07,-515.35 1613.48,-521.79 1615.66,-515.14"/>
</g>
<!-- trilinos -->
<g id="node26" class="node">
<title>trilinos</title>
<g id="a_node26"><a xlink:href="https://github.com/conda-forge/trilinos-feedstock" xlink:title="trilinos">
<ellipse fill="#fde725" stroke="black" cx="1684.5" cy="-502" rx="44.39" ry="18"/>
<text text-anchor="middle" x="1684.5" y="-498.3" font-family="Times,serif" font-size="14.00">trilinos</text>
</a>
</g>
</g>
<!-- libmatio&#45;&gt;trilinos -->
<g id="edge21" class="edge">
<title>libmatio&#45;&gt;trilinos</title>
<path fill="none" stroke="black" d="M1758.72,-557.12C1745.31,-547.34 1727.96,-534.69 1713.4,-524.08"/>
<polygon fill="black" stroke="black" points="1715.35,-521.17 1705.21,-518.1 1711.23,-526.82 1715.35,-521.17"/>
</g>
<!-- openmeeg -->
<g id="node27" class="node">
<title>openmeeg</title>
<g id="a_node27"><a xlink:href="https://github.com/conda-forge/openmeeg-feedstock" xlink:title="openmeeg">
<ellipse fill="#fde725" stroke="black" cx="1805.5" cy="-502" rx="58.5" ry="18"/>
<text text-anchor="middle" x="1805.5" y="-498.3" font-family="Times,serif" font-size="14.00">openmeeg</text>
</a>
</g>
</g>
<!-- libmatio&#45;&gt;openmeeg -->
<g id="edge22" class="edge">
<title>libmatio&#45;&gt;openmeeg</title>
<path fill="none" stroke="black" d="M1786.55,-556.05C1789.37,-548.18 1792.78,-538.62 1795.93,-529.79"/>
<polygon fill="black" stroke="black" points="1799.26,-530.87 1799.33,-520.28 1792.67,-528.52 1799.26,-530.87"/>
</g>
<!-- libvips -->
<g id="node28" class="node">
<title>libvips</title>
<g id="a_node28"><a xlink:href="https://github.com/conda-forge/libvips-feedstock" xlink:title="libvips">
<ellipse fill="#fde725" stroke="black" cx="1892.5" cy="-430" rx="41.69" ry="18"/>
<text text-anchor="middle" x="1892.5" y="-426.3" font-family="Times,serif" font-size="14.00">libvips</text>
</a>
</g>
</g>
<!-- libmatio&#45;&gt;libvips -->
<g id="edge23" class="edge">
<title>libmatio&#45;&gt;libvips</title>
<path fill="none" stroke="black" d="M1817.86,-560.3C1837.29,-551.82 1859.78,-538.75 1873.5,-520 1886.58,-502.11 1891.03,-477.11 1892.38,-458.16"/>
<polygon fill="black" stroke="black" points="1895.88,-458.22 1892.86,-448.07 1888.89,-457.9 1895.88,-458.22"/>
</g>
<!-- moab -->
<g id="node29" class="node">
<title>moab</title>
<g id="a_node29"><a xlink:href="https://github.com/conda-forge/moab-feedstock" xlink:title="moab">
<ellipse fill="#ff8c00" stroke="black" cx="2100.5" cy="-538" rx="36.5" ry="18"/>
<text text-anchor="middle" x="2100.5" y="-534.3" font-family="Times,serif" font-size="14.00">moab</text>
</a>
</g>
</g>
<!-- pyne -->
<g id="node30" class="node">
<title>pyne</title>
<g id="a_node30"><a xlink:href="https://github.com/conda-forge/pyne-feedstock" xlink:title="pyne">
<ellipse fill="#fde725" stroke="black" cx="2003.5" cy="-466" rx="33.29" ry="18"/>
<text text-anchor="middle" x="2003.5" y="-462.3" font-family="Times,serif" font-size="14.00">pyne</text>
</a>
</g>
</g>
<!-- moab&#45;&gt;pyne -->
<g id="edge24" class="edge">
<title>moab&#45;&gt;pyne</title>
<path fill="none" stroke="black" d="M2080.4,-522.5C2066.07,-512.16 2046.64,-498.13 2030.9,-486.77"/>
<polygon fill="black" stroke="black" points="2032.74,-483.78 2022.58,-480.77 2028.64,-489.46 2032.74,-483.78"/>
</g>
<!-- dagmc -->
<g id="node31" class="node">
<title>dagmc</title>
<g id="a_node31"><a xlink:href="https://github.com/conda-forge/dagmc-feedstock" xlink:title="dagmc">
<ellipse fill="#fde725" stroke="black" cx="2100.5" cy="-466" rx="41.69" ry="18"/>
<text text-anchor="middle" x="2100.5" y="-462.3" font-family="Times,serif" font-size="14.00">dagmc</text>
</a>
</g>
</g>
<!-- moab&#45;&gt;dagmc -->
<g id="edge25" class="edge">
<title>moab&#45;&gt;dagmc</title>
<path fill="none" stroke="black" d="M2100.5,-519.7C2100.5,-511.98 2100.5,-502.71 2100.5,-494.11"/>
<polygon fill="black" stroke="black" points="2104,-494.1 2100.5,-484.1 2097,-494.1 2104,-494.1"/>
</g>
<!-- netcdf&#45;cxx4 -->
<g id="node32" class="node">
<title>netcdf&#45;cxx4</title>
<g id="a_node32"><a xlink:href="https://github.com/conda-forge/netcdf-cxx4-feedstock" xlink:title="netcdf cxx4">
<ellipse fill="#ff8c00" stroke="black" cx="1616.5" cy="-574" rx="64.5" ry="18"/>
<text text-anchor="middle" x="1616.5" y="-570.3" font-family="Times,serif" font-size="14.00">netcdf cxx4</text>
</a>
</g>
</g>
<!-- netcdf&#45;cxx4&#45;&gt;pytrilinos -->
<g id="edge26" class="edge">
<title>netcdf&#45;cxx4&#45;&gt;pytrilinos</title>
<path fill="none" stroke="black" d="M1604.64,-556.05C1598.8,-547.71 1591.64,-537.49 1585.18,-528.25"/>
<polygon fill="black" stroke="black" points="1587.85,-525.97 1579.25,-519.79 1582.12,-529.99 1587.85,-525.97"/>
</g>
<!-- netcdf&#45;cxx4&#45;&gt;trilinos -->
<g id="edge27" class="edge">
<title>netcdf&#45;cxx4&#45;&gt;trilinos</title>
<path fill="none" stroke="black" d="M1632.62,-556.41C1641.38,-547.39 1652.36,-536.09 1661.96,-526.21"/>
<polygon fill="black" stroke="black" points="1664.51,-528.6 1668.97,-518.99 1659.49,-523.72 1664.51,-528.6"/>
</g>
<!-- netcdf&#45;fortran -->
<g id="node33" class="node">
<title>netcdf&#45;fortran</title>
<g id="a_node33"><a xlink:href="https://github.com/conda-forge/netcdf-fortran-feedstock/pull/66" xlink:title="netcdf fortran ❎">
<ellipse fill="#31688e" stroke="black" cx="793.5" cy="-1374" rx="89.88" ry="18"/>
<text text-anchor="middle" x="793.5" y="-1370.3" font-family="Times,serif" font-size="14.00" fill="white">netcdf fortran ❎</text>
</a>
</g>
</g>
<!-- netcdf&#45;fortran&#45;&gt;esmf -->
<g id="edge28" class="edge">
<title>netcdf&#45;fortran&#45;&gt;esmf</title>
<path fill="none" stroke="black" d="M778.73,-1356.05C771.02,-1347.2 761.46,-1336.23 753.04,-1326.57"/>
<polygon fill="black" stroke="black" points="755.5,-1324.07 746.29,-1318.83 750.23,-1328.67 755.5,-1324.07"/>
</g>
<!-- siesta -->
<g id="node34" class="node">
<title>siesta</title>
<g id="a_node34"><a xlink:href="https://github.com/conda-forge/siesta-feedstock" xlink:title="siesta">
<ellipse fill="#fde725" stroke="black" cx="898.5" cy="-1302" rx="38.5" ry="18"/>
<text text-anchor="middle" x="898.5" y="-1298.3" font-family="Times,serif" font-size="14.00">siesta</text>
</a>
</g>
</g>
<!-- netcdf&#45;fortran&#45;&gt;siesta -->
<g id="edge29" class="edge">
<title>netcdf&#45;fortran&#45;&gt;siesta</title>
<path fill="none" stroke="black" d="M818.12,-1356.59C833.26,-1346.5 852.75,-1333.5 868.75,-1322.83"/>
<polygon fill="black" stroke="black" points="870.85,-1325.64 877.23,-1317.18 866.97,-1319.81 870.85,-1325.64"/>
</g>
<!-- abinit -->
<g id="node35" class="node">
<title>abinit</title>
<g id="a_node35"><a xlink:href="https://github.com/conda-forge/abinit-feedstock" xlink:title="abinit">
<ellipse fill="#fde725" stroke="black" cx="162.5" cy="-1230" rx="37.89" ry="18"/>
<text text-anchor="middle" x="162.5" y="-1226.3" font-family="Times,serif" font-size="14.00">abinit</text>
</a>
</g>
</g>
<!-- netcdf&#45;fortran&#45;&gt;abinit -->
<g id="edge30" class="edge">
<title>netcdf&#45;fortran&#45;&gt;abinit</title>
<path fill="none" stroke="black" d="M710.28,-1367.14C630.22,-1360.24 506.25,-1346.24 401.5,-1320 327.12,-1301.37 244,-1267.22 198,-1247.07"/>
<polygon fill="black" stroke="black" points="199.33,-1243.83 188.77,-1242.99 196.5,-1250.23 199.33,-1243.83"/>
</g>
<!-- fates&#45;emerald -->
<g id="node36" class="node">
<title>fates&#45;emerald</title>
<g id="a_node36"><a xlink:href="https://github.com/conda-forge/fates-emerald-feedstock" xlink:title="fates emerald">
<ellipse fill="#fde725" stroke="black" cx="728.5" cy="-1158" rx="74.99" ry="18"/>
<text text-anchor="middle" x="728.5" y="-1154.3" font-family="Times,serif" font-size="14.00">fates emerald</text>
</a>
</g>
</g>
<!-- netcdf&#45;fortran&#45;&gt;fates&#45;emerald -->
<g id="edge31" class="edge">
<title>netcdf&#45;fortran&#45;&gt;fates&#45;emerald</title>
<path fill="none" stroke="black" d="M794.7,-1355.69C796.11,-1325.22 796,-1260.65 774.5,-1212 769.82,-1201.42 762.29,-1191.4 754.66,-1182.98"/>
<polygon fill="black" stroke="black" points="757.15,-1180.52 747.71,-1175.72 752.1,-1185.36 757.15,-1180.52"/>
</g>
<!-- yambo -->
<g id="node37" class="node">
<title>yambo</title>
<g id="a_node37"><a xlink:href="https://github.com/conda-forge/yambo-feedstock" xlink:title="yambo">
<ellipse fill="#fde725" stroke="black" cx="831.5" cy="-1086" rx="41.69" ry="18"/>
<text text-anchor="middle" x="831.5" y="-1082.3" font-family="Times,serif" font-size="14.00">yambo</text>
</a>
</g>
</g>
<!-- netcdf&#45;fortran&#45;&gt;yambo -->
<g id="edge32" class="edge">
<title>netcdf&#45;fortran&#45;&gt;yambo</title>
<path fill="none" stroke="black" d="M798.72,-1355.97C801.7,-1345.65 805.28,-1332.17 807.5,-1320 820.96,-1246.24 827.48,-1157.87 830.08,-1114.19"/>
<polygon fill="black" stroke="black" points="833.58,-1114.27 830.65,-1104.08 826.59,-1113.87 833.58,-1114.27"/>
</g>
<!-- opencv -->
<g id="node38" class="node">
<title>opencv</title>
<g id="a_node38"><a xlink:href="https://github.com/conda-forge/opencv-feedstock" xlink:title="opencv">
<ellipse fill="#ff8c00" stroke="black" cx="92.5" cy="-1302" rx="43.59" ry="18"/>
<text text-anchor="middle" x="92.5" y="-1298.3" font-family="Times,serif" font-size="14.00">opencv</text>
</a>
</g>
</g>
<!-- opencv&#45;&gt;caffe -->
<g id="edge33" class="edge">
<title>opencv&#45;&gt;caffe</title>
<path fill="none" stroke="black" d="M78.58,-1284.76C70.83,-1275.71 61.03,-1264.29 52.47,-1254.3"/>
<polygon fill="black" stroke="black" points="55.09,-1251.98 45.93,-1246.67 49.78,-1256.54 55.09,-1251.98"/>
</g>
<!-- opencv&#45;&gt;isce2 -->
<g id="edge34" class="edge">
<title>opencv&#45;&gt;isce2</title>
<path fill="none" stroke="black" d="M121.47,-1288.32C148.5,-1276.5 188.85,-1258.85 217.63,-1246.26"/>
<polygon fill="black" stroke="black" points="219.15,-1249.41 226.91,-1242.2 216.34,-1243 219.15,-1249.41"/>
</g>
<!-- imp -->
<g id="node39" class="node">
<title>imp</title>
<g id="a_node39"><a xlink:href="https://github.com/conda-forge/imp-feedstock" xlink:title="imp">
<ellipse fill="#fde725" stroke="black" cx="93.5" cy="-1158" rx="28.7" ry="18"/>
<text text-anchor="middle" x="93.5" y="-1154.3" font-family="Times,serif" font-size="14.00">imp</text>
</a>
</g>
</g>
<!-- opencv&#45;&gt;imp -->
<g id="edge35" class="edge">
<title>opencv&#45;&gt;imp</title>
<path fill="none" stroke="black" d="M92.62,-1283.87C92.79,-1259.67 93.1,-1215.21 93.31,-1186.39"/>
<polygon fill="black" stroke="black" points="96.81,-1186.21 93.38,-1176.19 89.81,-1186.16 96.81,-1186.21"/>
</g>
<!-- openmc -->
<g id="node40" class="node">
<title>openmc</title>
<g id="a_node40"><a xlink:href="https://github.com/conda-forge/openmc-feedstock" xlink:title="openmc">
<ellipse fill="#ff8c00" stroke="black" cx="1998.5" cy="-538" rx="47" ry="18"/>
<text text-anchor="middle" x="1998.5" y="-534.3" font-family="Times,serif" font-size="14.00">openmc</text>
</a>
</g>
</g>
<!-- openmc&#45;&gt;pyne -->
<g id="edge36" class="edge">
<title>openmc&#45;&gt;pyne</title>
<path fill="none" stroke="black" d="M1999.74,-519.7C2000.29,-511.98 2000.95,-502.71 2001.56,-494.11"/>
<polygon fill="black" stroke="black" points="2005.06,-494.33 2002.28,-484.1 1998.07,-493.83 2005.06,-494.33"/>
</g>
<!-- cmor -->
<g id="node46" class="node">
<title>cmor</title>
<g id="a_node46"><a xlink:href="https://github.com/conda-forge/cmor-feedstock/pull/37" xlink:title="cmor ✓">
<ellipse fill="#31688e" stroke="black" cx="2046.5" cy="-1014" rx="41.69" ry="18"/>
<text text-anchor="middle" x="2046.5" y="-1010.3" font-family="Times,serif" font-size="14.00" fill="white">cmor ✓</text>
</a>
</g>
</g>
<!-- yaafe&#45;&gt;cmor -->
<!-- shogun -->
<g id="node42" class="node">
<title>shogun</title>
<g id="a_node42"><a xlink:href="https://github.com/conda-forge/shogun-feedstock" xlink:title="shogun">
<ellipse fill="#fde725" stroke="black" cx="752.5" cy="-134" rx="44.39" ry="18"/>
<text text-anchor="middle" x="752.5" y="-130.3" font-family="Times,serif" font-size="14.00">shogun</text>
</a>
</g>
</g>
<!-- shogun&#45;cpp -->
<g id="node43" class="node">
<title>shogun&#45;cpp</title>
<g id="a_node43"><a xlink:href="https://github.com/conda-forge/shogun-cpp-feedstock/pull/47" xlink:title="shogun cpp ✓">
<ellipse fill="#31688e" stroke="black" cx="752.5" cy="-206" rx="71.5" ry="18"/>
<text text-anchor="middle" x="752.5" y="-202.3" font-family="Times,serif" font-size="14.00" fill="white">shogun cpp ✓</text>
</a>
</g>
</g>
<!-- shogun&#45;cpp&#45;&gt;shogun -->
<g id="edge38" class="edge">
<title>shogun&#45;cpp&#45;&gt;shogun</title>
<path fill="none" stroke="black" d="M752.5,-187.7C752.5,-179.98 752.5,-170.71 752.5,-162.11"/>
<polygon fill="black" stroke="black" points="756,-162.1 752.5,-152.1 749,-162.1 756,-162.1"/>
</g>
<!-- vigra -->
<g id="node44" class="node">
<title>vigra</title>
<g id="a_node44"><a xlink:href="https://github.com/conda-forge/vigra-feedstock/pull/75" xlink:title="vigra ❎">
<ellipse fill="#31688e" stroke="black" cx="752.5" cy="-90" rx="48.99" ry="18"/>
<text text-anchor="middle" x="752.5" y="-86.3" font-family="Times,serif" font-size="14.00" fill="white">vigra ❎</text>
</a>
</g>
</g>
<!-- nifty -->
<g id="node45" class="node">
<title>nifty</title>
<g id="a_node45"><a xlink:href="https://github.com/conda-forge/nifty-feedstock" xlink:title="nifty">
<ellipse fill="#fde725" stroke="black" cx="752.5" cy="-18" rx="32.5" ry="18"/>
<text text-anchor="middle" x="752.5" y="-14.3" font-family="Times,serif" font-size="14.00">nifty</text>
</a>
</g>
</g>
<!-- vigra&#45;&gt;nifty -->
<g id="edge39" class="edge">
<title>vigra&#45;&gt;nifty</title>
<path fill="none" stroke="black" d="M752.5,-71.7C752.5,-63.98 752.5,-54.71 752.5,-46.11"/>
<polygon fill="black" stroke="black" points="756,-46.1 752.5,-36.1 749,-46.1 756,-46.1"/>
</g>
<!-- lal -->
<g id="node54" class="node">
<title>lal</title>
<g id="a_node54"><a xlink:href="https://github.com/conda-forge/lal-feedstock/pull/58" xlink:title="lal ❎">
<ellipse fill="#31688e" stroke="black" cx="2046.5" cy="-942" rx="36.5" ry="18"/>
<text text-anchor="middle" x="2046.5" y="-938.3" font-family="Times,serif" font-size="14.00" fill="white">lal ❎</text>
</a>
</g>
</g>
<!-- cmor&#45;&gt;lal -->
<!-- vtk -->
<g id="node47" class="node">
<title>vtk</title>
<g id="a_node47"><a xlink:href="https://github.com/conda-forge/vtk-feedstock" xlink:title="vtk">
<ellipse fill="#ff8c00" stroke="black" cx="1256.5" cy="-1302" rx="27" ry="18"/>
<text text-anchor="middle" x="1256.5" y="-1298.3" font-family="Times,serif" font-size="14.00">vtk</text>
</a>
</g>
</g>
<!-- vtk&#45;&gt;freecad -->
<g id="edge41" class="edge">
<title>vtk&#45;&gt;freecad</title>
<path fill="none" stroke="black" d="M1234.19,-1291.7C1207.14,-1280.43 1161.06,-1261.23 1127.96,-1247.44"/>
<polygon fill="black" stroke="black" points="1129.15,-1244.15 1118.57,-1243.53 1126.46,-1250.61 1129.15,-1244.15"/>
</g>
<!-- pymeep -->
<g id="node48" class="node">
<title>pymeep</title>
<g id="a_node48"><a xlink:href="https://github.com/conda-forge/pymeep-feedstock" xlink:title="pymeep">
<ellipse fill="#fde725" stroke="black" cx="1294.5" cy="-1230" rx="47.5" ry="18"/>
<text text-anchor="middle" x="1294.5" y="-1226.3" font-family="Times,serif" font-size="14.00">pymeep</text>
</a>
</g>
</g>
<!-- vtk&#45;&gt;pymeep -->
<g id="edge42" class="edge">
<title>vtk&#45;&gt;pymeep</title>
<path fill="none" stroke="black" d="M1265.31,-1284.76C1269.79,-1276.53 1275.33,-1266.32 1280.38,-1257.02"/>
<polygon fill="black" stroke="black" points="1283.51,-1258.58 1285.2,-1248.12 1277.36,-1255.24 1283.51,-1258.58"/>
</g>
<!-- bonsu -->
<g id="node49" class="node">
<title>bonsu</title>
<g id="a_node49"><a xlink:href="https://github.com/conda-forge/bonsu-feedstock" xlink:title="bonsu">
<ellipse fill="#fde725" stroke="black" cx="1370.5" cy="-1158" rx="38.5" ry="18"/>
<text text-anchor="middle" x="1370.5" y="-1154.3" font-family="Times,serif" font-size="14.00">bonsu</text>
</a>
</g>
</g>
<!-- vtk&#45;&gt;bonsu -->
<g id="edge43" class="edge">
<title>vtk&#45;&gt;bonsu</title>
<path fill="none" stroke="black" d="M1280.65,-1293.91C1302.55,-1286.2 1334,-1271.7 1351.5,-1248 1364.66,-1230.17 1369.11,-1205.17 1370.43,-1186.2"/>
<polygon fill="black" stroke="black" points="1373.93,-1186.24 1370.89,-1176.1 1366.94,-1185.93 1373.93,-1186.24"/>
</g>
<!-- esys&#45;escript -->
<g id="node50" class="node">
<title>esys&#45;escript</title>
<g id="a_node50"><a xlink:href="https://github.com/conda-forge/esys-escript-feedstock" xlink:title="esys escript">
<ellipse fill="#fde725" stroke="black" cx="1437.5" cy="-1086" rx="66.5" ry="18"/>
<text text-anchor="middle" x="1437.5" y="-1082.3" font-family="Times,serif" font-size="14.00">esys escript</text>
</a>
</g>
</g>
<!-- vtk&#45;&gt;esys&#45;escript -->
<g id="edge44" class="edge">
<title>vtk&#45;&gt;esys&#45;escript</title>
<path fill="none" stroke="black" d="M1280.98,-1294.33C1306.16,-1286.5 1345.43,-1271.53 1372.5,-1248 1401.16,-1223.09 1404.08,-1211.13 1418.5,-1176 1426.64,-1156.18 1431.48,-1132.38 1434.24,-1114.38"/>
<polygon fill="black" stroke="black" points="1437.74,-1114.66 1435.67,-1104.27 1430.81,-1113.68 1437.74,-1114.66"/>
</g>
<!-- damask -->
<g id="node51" class="node">
<title>damask</title>
<g id="a_node51"><a xlink:href="https://github.com/conda-forge/damask-feedstock" xlink:title="damask">
<ellipse fill="#fde725" stroke="black" cx="1144.5" cy="-1014" rx="46.29" ry="18"/>
<text text-anchor="middle" x="1144.5" y="-1010.3" font-family="Times,serif" font-size="14.00">damask</text>
</a>
</g>
</g>
<!-- vtk&#45;&gt;damask -->
<g id="edge45" class="edge">
<title>vtk&#45;&gt;damask</title>
<path fill="none" stroke="black" d="M1239.61,-1287.9C1228.09,-1278.09 1213.37,-1263.72 1204.5,-1248 1166.27,-1180.29 1151.91,-1087.85 1146.93,-1042.45"/>
<polygon fill="black" stroke="black" points="1150.38,-1041.81 1145.87,-1032.22 1143.41,-1042.52 1150.38,-1041.81"/>
</g>
<!-- pycgns -->
<g id="node52" class="node">
<title>pycgns</title>
<g id="a_node52"><a xlink:href="https://github.com/conda-forge/pycgns-feedstock" xlink:title="pycgns">
<ellipse fill="#fde725" stroke="black" cx="1218.5" cy="-942" rx="43.59" ry="18"/>
<text text-anchor="middle" x="1218.5" y="-938.3" font-family="Times,serif" font-size="14.00">pycgns</text>
</a>
</g>
</g>
<!-- vtk&#45;&gt;pycgns -->
<g id="edge46" class="edge">
<title>vtk&#45;&gt;pycgns</title>
<path fill="none" stroke="black" d="M1248.99,-1284.34C1237.92,-1258.2 1218.5,-1205.7 1218.5,-1159 1218.5,-1159 1218.5,-1159 1218.5,-1085 1218.5,-1045 1218.5,-998.65 1218.5,-970.08"/>
<polygon fill="black" stroke="black" points="1222,-970.05 1218.5,-960.05 1215,-970.05 1222,-970.05"/>
</g>
<!-- openpmd&#45;api -->
<g id="node53" class="node">
<title>openpmd&#45;api</title>
<g id="a_node53"><a xlink:href="https://github.com/conda-forge/openpmd-api-feedstock" xlink:title="openpmd api">
<ellipse fill="#fde725" stroke="black" cx="1722.5" cy="-134" rx="71" ry="18"/>
<text text-anchor="middle" x="1722.5" y="-130.3" font-family="Times,serif" font-size="14.00">openpmd api</text>
</a>
</g>
</g>
<!-- blosc&#45;hdf5&#45;plugin -->
<g id="node55" class="node">
<title>blosc&#45;hdf5&#45;plugin</title>
<g id="a_node55"><a xlink:href="https://github.com/conda-forge/blosc-hdf5-plugin-feedstock/pull/5" xlink:title="blosc hdf5 plugin ❎">
<ellipse fill="#31688e" stroke="black" cx="2046.5" cy="-870" rx="104.78" ry="18"/>
<text text-anchor="middle" x="2046.5" y="-866.3" font-family="Times,serif" font-size="14.00" fill="white">blosc hdf5 plugin ❎</text>
</a>
</g>
</g>
<!-- lal&#45;&gt;blosc&#45;hdf5&#45;plugin -->
<!-- scilab -->
<g id="node56" class="node">
<title>scilab</title>
<g id="a_node56"><a xlink:href="https://github.com/conda-forge/scilab-feedstock/pull/25" xlink:title="scilab ❎">
<ellipse fill="#31688e" stroke="black" cx="2046.5" cy="-798" rx="52" ry="18"/>
<text text-anchor="middle" x="2046.5" y="-794.3" font-family="Times,serif" font-size="14.00" fill="white">scilab ❎</text>
</a>
</g>
</g>
<!-- blosc&#45;hdf5&#45;plugin&#45;&gt;scilab -->
<!-- bitshuffle -->
<g id="node57" class="node">
<title>bitshuffle</title>
<g id="a_node57"><a xlink:href="https://github.com/conda-forge/bitshuffle-feedstock" xlink:title="bitshuffle">
<ellipse fill="#ff8c00" stroke="black" cx="1722.5" cy="-1518" rx="54.69" ry="18"/>
<text text-anchor="middle" x="1722.5" y="-1514.3" font-family="Times,serif" font-size="14.00">bitshuffle</text>
</a>
</g>
</g>
<!-- dakota -->
<g id="node58" class="node">
<title>dakota</title>
<g id="a_node58"><a xlink:href="https://github.com/conda-forge/dakota-feedstock" xlink:title="dakota">
<ellipse fill="#ff8c00" stroke="black" cx="1722.5" cy="-1446" rx="42.49" ry="18"/>
<text text-anchor="middle" x="1722.5" y="-1442.3" font-family="Times,serif" font-size="14.00">dakota</text>
</a>
</g>
</g>
<!-- bitshuffle&#45;&gt;dakota -->
<!-- ncview -->
<g id="node60" class="node">
<title>ncview</title>
<g id="a_node60"><a xlink:href="https://github.com/conda-forge/ncview-feedstock" xlink:title="ncview">
<ellipse fill="#ff8c00" stroke="black" cx="1722.5" cy="-1374" rx="43" ry="18"/>
<text text-anchor="middle" x="1722.5" y="-1370.3" font-family="Times,serif" font-size="14.00">ncview</text>
</a>
</g>
</g>
<!-- dakota&#45;&gt;ncview -->
<!-- adios2 -->
<g id="node59" class="node">
<title>adios2</title>
<g id="a_node59"><a xlink:href="https://github.com/conda-forge/adios2-feedstock/pull/31" xlink:title="adios2 ❎">
<ellipse fill="#31688e" stroke="black" cx="1722.5" cy="-206" rx="55.49" ry="18"/>
<text text-anchor="middle" x="1722.5" y="-202.3" font-family="Times,serif" font-size="14.00" fill="white">adios2 ❎</text>
</a>
</g>
</g>
<!-- adios2&#45;&gt;openpmd&#45;api -->
<g id="edge51" class="edge">
<title>adios2&#45;&gt;openpmd&#45;api</title>
<path fill="none" stroke="black" d="M1722.5,-187.7C1722.5,-179.98 1722.5,-170.71 1722.5,-162.11"/>
<polygon fill="black" stroke="black" points="1726,-162.1 1722.5,-152.1 1719,-162.1 1726,-162.1"/>
</g>
<!-- proteus -->
<g id="node61" class="node">
<title>proteus</title>
<g id="a_node61"><a xlink:href="https://github.com/conda-forge/proteus-feedstock" xlink:title="proteus">
<ellipse fill="#ff8c00" stroke="black" cx="1722.5" cy="-1302" rx="46.29" ry="18"/>
<text text-anchor="middle" x="1722.5" y="-1298.3" font-family="Times,serif" font-size="14.00">proteus</text>
</a>
</g>
</g>
<!-- ncview&#45;&gt;proteus -->
<!-- hdf5&#45;external&#45;filter&#45;plugins -->
<g id="node64" class="node">
<title>hdf5&#45;external&#45;filter&#45;plugins</title>
<g id="a_node64"><a xlink:href="https://github.com/conda-forge/hdf5-external-filter-plugins-feedstock/pull/12" xlink:title="hdf5 external filter plugins ✓">
<ellipse fill="#31688e" stroke="black" cx="1722.5" cy="-1230" rx="143" ry="18"/>
<text text-anchor="middle" x="1722.5" y="-1226.3" font-family="Times,serif" font-size="14.00" fill="white">hdf5 external filter plugins ✓</text>
</a>
</g>
</g>
<!-- proteus&#45;&gt;hdf5&#45;external&#45;filter&#45;plugins -->
<!-- triqs -->
<g id="node62" class="node">
<title>triqs</title>
<g id="a_node62"><a xlink:href="https://github.com/conda-forge/triqs-feedstock/pull/19" xlink:title="triqs ❎">
<ellipse fill="#31688e" stroke="black" cx="2046.5" cy="-206" rx="47" ry="18"/>
<text text-anchor="middle" x="2046.5" y="-202.3" font-family="Times,serif" font-size="14.00" fill="white">triqs ❎</text>
</a>
</g>
</g>
<!-- triqs_cthyb -->
<g id="node63" class="node">
<title>triqs_cthyb</title>
<g id="a_node63"><a xlink:href="https://github.com/conda-forge/triqs_cthyb-feedstock" xlink:title="triqs_cthyb">
<ellipse fill="#fde725" stroke="black" cx="2046.5" cy="-134" rx="63.09" ry="18"/>
<text text-anchor="middle" x="2046.5" y="-130.3" font-family="Times,serif" font-size="14.00">triqs_cthyb</text>
</a>
</g>
</g>
<!-- triqs&#45;&gt;triqs_cthyb -->
<g id="edge54" class="edge">
<title>triqs&#45;&gt;triqs_cthyb</title>
<path fill="none" stroke="black" d="M2046.5,-187.7C2046.5,-179.98 2046.5,-170.71 2046.5,-162.11"/>
<polygon fill="black" stroke="black" points="2050,-162.1 2046.5,-152.1 2043,-162.1 2050,-162.1"/>
</g>
<!-- hdf5plugin -->
<g id="node65" class="node">
<title>hdf5plugin</title>
<g id="a_node65"><a xlink:href="https://github.com/conda-forge/hdf5plugin-feedstock" xlink:title="hdf5plugin">
<ellipse fill="#ff8c00" stroke="black" cx="1722.5" cy="-1158" rx="61.19" ry="18"/>
<text text-anchor="middle" x="1722.5" y="-1154.3" font-family="Times,serif" font-size="14.00">hdf5plugin</text>
</a>
</g>
</g>
<!-- hdf5&#45;external&#45;filter&#45;plugins&#45;&gt;hdf5plugin -->
<!-- netcdf&#45;cxx&#45;legacy -->
<g id="node66" class="node">
<title>netcdf&#45;cxx&#45;legacy</title>
<g id="a_node66"><a xlink:href="https://github.com/conda-forge/netcdf-cxx-legacy-feedstock" xlink:title="netcdf cxx legacy">
<ellipse fill="#ff8c00" stroke="black" cx="1722.5" cy="-1086" rx="91" ry="18"/>
<text text-anchor="middle" x="1722.5" y="-1082.3" font-family="Times,serif" font-size="14.00">netcdf cxx legacy</text>
</a>
</g>
</g>
<!-- hdf5plugin&#45;&gt;netcdf&#45;cxx&#45;legacy -->
<!-- prismatic_split -->
<g id="node67" class="node">
<title>prismatic_split</title>
<g id="a_node67"><a xlink:href="https://github.com/conda-forge/prismatic_split-feedstock" xlink:title="prismatic_split">
<ellipse fill="#ff8c00" stroke="black" cx="1722.5" cy="-1014" rx="79.5" ry="18"/>
<text text-anchor="middle" x="1722.5" y="-1010.3" font-family="Times,serif" font-size="14.00">prismatic_split</text>
</a>
</g>
</g>
<!-- netcdf&#45;cxx&#45;legacy&#45;&gt;prismatic_split -->
<!-- digital_rf -->
<g id="node68" class="node">
<title>digital_rf</title>
<g id="a_node68"><a xlink:href="https://github.com/conda-forge/digital_rf-feedstock" xlink:title="digital_rf">
<ellipse fill="#ff8c00" stroke="black" cx="1722.5" cy="-942" rx="52.79" ry="18"/>
<text text-anchor="middle" x="1722.5" y="-938.3" font-family="Times,serif" font-size="14.00">digital_rf</text>
</a>
</g>
</g>
<!-- prismatic_split&#45;&gt;digital_rf -->
<!-- gwollum -->
<g id="node69" class="node">
<title>gwollum</title>
<g id="a_node69"><a xlink:href="https://github.com/conda-forge/gwollum-feedstock" xlink:title="gwollum">
<ellipse fill="#ff8c00" stroke="black" cx="1722.5" cy="-870" rx="50.09" ry="18"/>
<text text-anchor="middle" x="1722.5" y="-866.3" font-family="Times,serif" font-size="14.00">gwollum</text>
</a>
</g>
</g>
<!-- digital_rf&#45;&gt;gwollum -->
<!-- conduit -->
<g id="node70" class="node">
<title>conduit</title>
<g id="a_node70"><a xlink:href="https://github.com/conda-forge/conduit-feedstock/pull/14" xlink:title="conduit ❎">
<ellipse fill="#31688e" stroke="black" cx="1722.5" cy="-798" rx="60" ry="18"/>
<text text-anchor="middle" x="1722.5" y="-794.3" font-family="Times,serif" font-size="14.00" fill="white">conduit ❎</text>
</a>
</g>
</g>
<!-- gwollum&#45;&gt;conduit -->
<!-- nccmp -->
<g id="node71" class="node">
<title>nccmp</title>
<g id="a_node71"><a xlink:href="https://github.com/conda-forge/nccmp-feedstock" xlink:title="nccmp">
<ellipse fill="#ff8c00" stroke="black" cx="752.5" cy="-754" rx="41" ry="18"/>
<text text-anchor="middle" x="752.5" y="-750.3" font-family="Times,serif" font-size="14.00">nccmp</text>
</a>
</g>
</g>
<!-- pp&#45;sketchlib -->
<g id="node72" class="node">
<title>pp&#45;sketchlib</title>
<g id="a_node72"><a xlink:href="https://github.com/conda-forge/pp-sketchlib-feedstock" xlink:title="pp sketchlib">
<ellipse fill="#ff8c00" stroke="black" cx="752.5" cy="-682" rx="67.69" ry="18"/>
<text text-anchor="middle" x="752.5" y="-678.3" font-family="Times,serif" font-size="14.00">pp sketchlib</text>
</a>
</g>
</g>
<!-- nccmp&#45;&gt;pp&#45;sketchlib -->
<!-- polycap -->
<g id="node73" class="node">
<title>polycap</title>
<g id="a_node73"><a xlink:href="https://github.com/conda-forge/polycap-feedstock/pull/10" xlink:title="polycap ❎">
<ellipse fill="#31688e" stroke="black" cx="752.5" cy="-610" rx="60.5" ry="18"/>
<text text-anchor="middle" x="752.5" y="-606.3" font-family="Times,serif" font-size="14.00" fill="white">polycap ❎</text>
</a>
</g>
</g>
<!-- pp&#45;sketchlib&#45;&gt;polycap -->
<!-- gwframes -->
<g id="node74" class="node">
<title>gwframes</title>
<g id="a_node74"><a xlink:href="https://github.com/conda-forge/gwframes-feedstock" xlink:title="gwframes">
<ellipse fill="#000000" stroke="black" cx="752.5" cy="-538" rx="56.59" ry="18"/>
<text text-anchor="middle" x="752.5" y="-534.3" font-family="Times,serif" font-size="14.00" fill="white">gwframes</text>
</a>
</g>
</g>
<!-- polycap&#45;&gt;gwframes -->
<!-- muq -->
<g id="node75" class="node">
<title>muq</title>
<g id="a_node75"><a xlink:href="https://github.com/conda-forge/muq-feedstock/pull/16" xlink:title="muq ✓">
<ellipse fill="#31688e" stroke="black" cx="752.5" cy="-466" rx="38.5" ry="18"/>
<text text-anchor="middle" x="752.5" y="-462.3" font-family="Times,serif" font-size="14.00" fill="white">muq ✓</text>
</a>
</g>
</g>
<!-- gwframes&#45;&gt;muq -->
<!-- tomviz -->
<g id="node76" class="node">
<title>tomviz</title>
<g id="a_node76"><a xlink:href="https://github.com/conda-forge/tomviz-feedstock/pull/10" xlink:title="tomviz ❎">
<ellipse fill="#31688e" stroke="black" cx="752.5" cy="-394" rx="56" ry="18"/>
<text text-anchor="middle" x="752.5" y="-390.3" font-family="Times,serif" font-size="14.00" fill="white">tomviz ❎</text>
</a>
</g>
</g>
<!-- muq&#45;&gt;tomviz -->
<!-- sirius -->
<g id="node77" class="node">
<title>sirius</title>
<g id="a_node77"><a xlink:href="https://github.com/conda-forge/sirius-feedstock/pull/7" xlink:title="sirius ❎">
<ellipse fill="#31688e" stroke="black" cx="752.5" cy="-322" rx="50.89" ry="18"/>
<text text-anchor="middle" x="752.5" y="-318.3" font-family="Times,serif" font-size="14.00" fill="white">sirius ❎</text>
</a>
</g>
</g>
<!-- tomviz&#45;&gt;sirius -->
<!-- harp -->
<g id="node78" class="node">
<title>harp</title>
<g id="a_node78"><a xlink:href="https://github.com/conda-forge/harp-feedstock/pull/4" xlink:title="harp ❎">
<ellipse fill="#31688e" stroke="black" cx="752.5" cy="-250" rx="46.29" ry="18"/>
<text text-anchor="middle" x="752.5" y="-246.3" font-family="Times,serif" font-size="14.00" fill="white">harp ❎</text>
</a>
</g>
</g>
<!-- sirius&#45;&gt;harp -->
</g>
</svg>
