<?xml version="1.0" encoding="UTF-8" standalone="no"?>
<!DOCTYPE svg PUBLIC "-//W3C//DTD SVG 1.1//EN"
 "http://www.w3.org/Graphics/SVG/1.1/DTD/svg11.dtd">
<!-- Generated by graphviz version 2.49.0 (20210829.0051)
 -->
<!-- Pages: 1 -->
<svg width="1951pt" height="1760pt"
 viewBox="0.00 0.00 1951.14 1760.00" xmlns="http://www.w3.org/2000/svg" xmlns:xlink="http://www.w3.org/1999/xlink">
<g id="graph0" class="graph" transform="scale(1 1) rotate(0) translate(4 1756)">
<polygon fill="white" stroke="transparent" points="-4,4 -4,-1756 1947.14,-1756 1947.14,4 -4,4"/>
<!-- caffe -->
<g id="node1" class="node">
<title>caffe</title>
<g id="a_node1"><a xlink:href="https://github.com/conda-forge/caffe-feedstock" xlink:title="caffe">
<ellipse fill="#fde725" stroke="black" cx="32.5" cy="-1482" rx="32.5" ry="18"/>
<text text-anchor="middle" x="32.5" y="-1478.3" font-family="Times,serif" font-size="14.00">caffe</text>
</a>
</g>
</g>
<!-- cdo -->
<g id="node2" class="node">
<title>cdo</title>
<g id="a_node2"><a xlink:href="https://github.com/conda-forge/cdo-feedstock" xlink:title="cdo">
<ellipse fill="#fde725" stroke="black" cx="647.5" cy="-18" rx="27" ry="18"/>
<text text-anchor="middle" x="647.5" y="-14.3" font-family="Times,serif" font-size="14.00">cdo</text>
</a>
</g>
</g>
<!-- cyclus -->
<g id="node3" class="node">
<title>cyclus</title>
<g id="a_node3"><a xlink:href="https://github.com/conda-forge/cyclus-feedstock/pull/63" xlink:title="cyclus ❎">
<ellipse fill="#31688e" stroke="black" cx="1838.5" cy="-1734" rx="54" ry="18"/>
<text text-anchor="middle" x="1838.5" y="-1730.3" font-family="Times,serif" font-size="14.00" fill="white">cyclus ❎</text>
</a>
</g>
</g>
<!-- fenics -->
<g id="node4" class="node">
<title>fenics</title>
<g id="a_node4"><a xlink:href="https://github.com/conda-forge/fenics-feedstock" xlink:title="fenics">
<ellipse fill="#ff8c00" stroke="black" cx="1838.5" cy="-1662" rx="38.5" ry="18"/>
<text text-anchor="middle" x="1838.5" y="-1658.3" font-family="Times,serif" font-size="14.00">fenics</text>
</a>
</g>
</g>
<!-- cyclus&#45;&gt;fenics -->
<!-- graph -->
<g id="node9" class="node">
<title>graph</title>
<g id="a_node9"><a xlink:href="https://github.com/conda-forge/graph-feedstock/pull/6" xlink:title="graph ✓">
<ellipse fill="#31688e" stroke="black" cx="1838.5" cy="-1590" rx="45.5" ry="18"/>
<text text-anchor="middle" x="1838.5" y="-1586.3" font-family="Times,serif" font-size="14.00" fill="white">graph ✓</text>
</a>
</g>
</g>
<!-- fenics&#45;&gt;graph -->
<!-- eccodes -->
<g id="node5" class="node">
<title>eccodes</title>
<g id="a_node5"><a xlink:href="https://github.com/conda-forge/eccodes-feedstock/pull/131" xlink:title="eccodes ✓">
<ellipse fill="#31688e" stroke="black" cx="647.5" cy="-90" rx="54.69" ry="18"/>
<text text-anchor="middle" x="647.5" y="-86.3" font-family="Times,serif" font-size="14.00" fill="white">eccodes ✓</text>
</a>
</g>
</g>
<!-- eccodes&#45;&gt;cdo -->
<g id="edge2" class="edge">
<title>eccodes&#45;&gt;cdo</title>
<path fill="none" stroke="black" d="M647.5,-71.7C647.5,-63.98 647.5,-54.71 647.5,-46.11"/>
<polygon fill="black" stroke="black" points="651,-46.1 647.5,-36.1 644,-46.1 651,-46.1"/>
</g>
<!-- esmf -->
<g id="node6" class="node">
<title>esmf</title>
<g id="a_node6"><a xlink:href="https://github.com/conda-forge/esmf-feedstock" xlink:title="esmf">
<ellipse fill="#35b779" stroke="black" cx="553.5" cy="-1554" rx="33.29" ry="18"/>
<text text-anchor="middle" x="553.5" y="-1550.3" font-family="Times,serif" font-size="14.00">esmf</text>
</a>
</g>
</g>
<!-- ncl -->
<g id="node7" class="node">
<title>ncl</title>
<g id="a_node7"><a xlink:href="https://github.com/conda-forge/ncl-feedstock" xlink:title="ncl">
<ellipse fill="#fde725" stroke="black" cx="464.5" cy="-1482" rx="27" ry="18"/>
<text text-anchor="middle" x="464.5" y="-1478.3" font-family="Times,serif" font-size="14.00">ncl</text>
</a>
</g>
</g>
<!-- esmf&#45;&gt;ncl -->
<g id="edge3" class="edge">
<title>esmf&#45;&gt;ncl</title>
<path fill="none" stroke="black" d="M535.49,-1538.83C522.24,-1528.42 504.07,-1514.12 489.43,-1502.61"/>
<polygon fill="black" stroke="black" points="491.3,-1499.63 481.28,-1496.2 486.98,-1505.13 491.3,-1499.63"/>
</g>
<!-- nco -->
<g id="node8" class="node">
<title>nco</title>
<g id="a_node8"><a xlink:href="https://github.com/conda-forge/nco-feedstock" xlink:title="nco">
<ellipse fill="#fde725" stroke="black" cx="642.5" cy="-1482" rx="27" ry="18"/>
<text text-anchor="middle" x="642.5" y="-1478.3" font-family="Times,serif" font-size="14.00">nco</text>
</a>
</g>
</g>
<!-- esmf&#45;&gt;nco -->
<g id="edge4" class="edge">
<title>esmf&#45;&gt;nco</title>
<path fill="none" stroke="black" d="M571.51,-1538.83C584.76,-1528.42 602.93,-1514.12 617.57,-1502.61"/>
<polygon fill="black" stroke="black" points="620.02,-1505.13 625.72,-1496.2 615.7,-1499.63 620.02,-1505.13"/>
</g>
<!-- hyperion&#45;fortran -->
<g id="node21" class="node">
<title>hyperion&#45;fortran</title>
<g id="a_node21"><a xlink:href="https://github.com/conda-forge/hyperion-fortran-feedstock/pull/20" xlink:title="hyperion fortran ❎">
<ellipse fill="#31688e" stroke="black" cx="1838.5" cy="-1518" rx="101.5" ry="18"/>
<text text-anchor="middle" x="1838.5" y="-1514.3" font-family="Times,serif" font-size="14.00" fill="white">hyperion fortran ❎</text>
</a>
</g>
</g>
<!-- graph&#45;&gt;hyperion&#45;fortran -->
<!-- flann -->
<g id="node10" class="node">
<title>flann</title>
<g id="a_node10"><a xlink:href="https://github.com/conda-forge/flann-feedstock/pull/31" xlink:title="flann ❎">
<ellipse fill="#31688e" stroke="black" cx="750.5" cy="-1554" rx="48.19" ry="18"/>
<text text-anchor="middle" x="750.5" y="-1550.3" font-family="Times,serif" font-size="14.00" fill="white">flann ❎</text>
</a>
</g>
</g>
<!-- freecad -->
<g id="node11" class="node">
<title>freecad</title>
<g id="a_node11"><a xlink:href="https://github.com/conda-forge/freecad-feedstock" xlink:title="freecad">
<ellipse fill="#fde725" stroke="black" cx="876.5" cy="-1482" rx="45.5" ry="18"/>
<text text-anchor="middle" x="876.5" y="-1478.3" font-family="Times,serif" font-size="14.00">freecad</text>
</a>
</g>
</g>
<!-- flann&#45;&gt;freecad -->
<g id="edge6" class="edge">
<title>flann&#45;&gt;freecad</title>
<path fill="none" stroke="black" d="M776.3,-1538.67C795.37,-1528.07 821.52,-1513.55 842.32,-1501.99"/>
<polygon fill="black" stroke="black" points="844.12,-1504.99 851.16,-1497.08 840.72,-1498.87 844.12,-1504.99"/>
</g>
<!-- mpas_tools -->
<g id="node12" class="node">
<title>mpas_tools</title>
<g id="a_node12"><a xlink:href="https://github.com/conda-forge/mpas_tools-feedstock" xlink:title="mpas_tools">
<ellipse fill="#fde725" stroke="black" cx="750.5" cy="-1482" rx="62.5" ry="18"/>
<text text-anchor="middle" x="750.5" y="-1478.3" font-family="Times,serif" font-size="14.00">mpas_tools</text>
</a>
</g>
</g>
<!-- flann&#45;&gt;mpas_tools -->
<g id="edge7" class="edge">
<title>flann&#45;&gt;mpas_tools</title>
<path fill="none" stroke="black" d="M750.5,-1535.7C750.5,-1527.98 750.5,-1518.71 750.5,-1510.11"/>
<polygon fill="black" stroke="black" points="754,-1510.1 750.5,-1500.1 747,-1510.1 754,-1510.1"/>
</g>
<!-- gazebo -->
<g id="node13" class="node">
<title>gazebo</title>
<g id="a_node13"><a xlink:href="https://github.com/conda-forge/gazebo-feedstock" xlink:title="gazebo">
<ellipse fill="#fde725" stroke="black" cx="553.5" cy="-1482" rx="43.59" ry="18"/>
<text text-anchor="middle" x="553.5" y="-1478.3" font-family="Times,serif" font-size="14.00">gazebo</text>
</a>
</g>
</g>
<!-- flann&#45;&gt;gazebo -->
<g id="edge8" class="edge">
<title>flann&#45;&gt;gazebo</title>
<path fill="none" stroke="black" d="M716.63,-1540.97C683.05,-1529.03 631.51,-1510.72 595.38,-1497.88"/>
<polygon fill="black" stroke="black" points="596.21,-1494.46 585.62,-1494.41 593.87,-1501.06 596.21,-1494.46"/>
</g>
<!-- gdal -->
<g id="node14" class="node">
<title>gdal</title>
<g id="a_node14"><a xlink:href="https://github.com/conda-forge/gdal-feedstock/pull/518" xlink:title="gdal ✓">
<ellipse fill="#31688e" stroke="black" cx="352.5" cy="-1554" rx="38.5" ry="18"/>
<text text-anchor="middle" x="352.5" y="-1550.3" font-family="Times,serif" font-size="14.00" fill="white">gdal ✓</text>
</a>
</g>
</g>
<!-- gdal&#45;&gt;ncl -->
<g id="edge9" class="edge">
<title>gdal&#45;&gt;ncl</title>
<path fill="none" stroke="black" d="M374.63,-1539.17C392.46,-1528.03 417.63,-1512.29 436.8,-1500.31"/>
<polygon fill="black" stroke="black" points="438.78,-1503.2 445.4,-1494.94 435.07,-1497.27 438.78,-1503.2"/>
</g>
<!-- gdal&#45;&gt;gazebo -->
<g id="edge10" class="edge">
<title>gdal&#45;&gt;gazebo</title>
<path fill="none" stroke="black" d="M382.59,-1542.52C416.77,-1530.62 472.79,-1511.11 511.32,-1497.69"/>
<polygon fill="black" stroke="black" points="512.91,-1500.84 521.2,-1494.25 510.61,-1494.23 512.91,-1500.84"/>
</g>
<!-- gmt -->
<g id="node15" class="node">
<title>gmt</title>
<g id="a_node15"><a xlink:href="https://github.com/conda-forge/gmt-feedstock" xlink:title="gmt">
<ellipse fill="#fde725" stroke="black" cx="276.5" cy="-1482" rx="29.5" ry="18"/>
<text text-anchor="middle" x="276.5" y="-1478.3" font-family="Times,serif" font-size="14.00">gmt</text>
</a>
</g>
</g>
<!-- gdal&#45;&gt;gmt -->
<g id="edge11" class="edge">
<title>gdal&#45;&gt;gmt</title>
<path fill="none" stroke="black" d="M335.63,-1537.46C325.04,-1527.71 311.25,-1515 299.64,-1504.32"/>
<polygon fill="black" stroke="black" points="301.75,-1501.5 292.03,-1497.3 297.01,-1506.65 301.75,-1501.5"/>
</g>
<!-- pynio -->
<g id="node16" class="node">
<title>pynio</title>
<g id="a_node16"><a xlink:href="https://github.com/conda-forge/pynio-feedstock" xlink:title="pynio">
<ellipse fill="#fde725" stroke="black" cx="306.5" cy="-1410" rx="36.5" ry="18"/>
<text text-anchor="middle" x="306.5" y="-1406.3" font-family="Times,serif" font-size="14.00">pynio</text>
</a>
</g>
</g>
<!-- gdal&#45;&gt;pynio -->
<g id="edge12" class="edge">
<title>gdal&#45;&gt;pynio</title>
<path fill="none" stroke="black" d="M347.04,-1536.15C339.16,-1511.81 324.5,-1466.57 315.14,-1437.67"/>
<polygon fill="black" stroke="black" points="318.36,-1436.26 311.95,-1427.82 311.7,-1438.42 318.36,-1436.26"/>
</g>
<!-- pdal -->
<g id="node17" class="node">
<title>pdal</title>
<g id="a_node17"><a xlink:href="https://github.com/conda-forge/pdal-feedstock" xlink:title="pdal">
<ellipse fill="#fde725" stroke="black" cx="350.5" cy="-1338" rx="30.59" ry="18"/>
<text text-anchor="middle" x="350.5" y="-1334.3" font-family="Times,serif" font-size="14.00">pdal</text>
</a>
</g>
</g>
<!-- gdal&#45;&gt;pdal -->
<g id="edge13" class="edge">
<title>gdal&#45;&gt;pdal</title>
<path fill="none" stroke="black" d="M352.71,-1535.61C353.03,-1506.08 353.49,-1444.26 352.5,-1392 352.34,-1383.68 352.05,-1374.63 351.73,-1366.4"/>
<polygon fill="black" stroke="black" points="355.22,-1366.03 351.31,-1356.18 348.22,-1366.32 355.22,-1366.03"/>
</g>
<!-- isce2 -->
<g id="node18" class="node">
<title>isce2</title>
<g id="a_node18"><a xlink:href="https://github.com/conda-forge/isce2-feedstock" xlink:title="isce2">
<ellipse fill="#fde725" stroke="black" cx="156.5" cy="-1482" rx="34.5" ry="18"/>
<text text-anchor="middle" x="156.5" y="-1478.3" font-family="Times,serif" font-size="14.00">isce2</text>
</a>
</g>
</g>
<!-- gdal&#45;&gt;isce2 -->
<g id="edge14" class="edge">
<title>gdal&#45;&gt;isce2</title>
<path fill="none" stroke="black" d="M322.73,-1542.37C288.23,-1530.05 231.32,-1509.72 193.87,-1496.35"/>
<polygon fill="black" stroke="black" points="194.92,-1493 184.32,-1492.94 192.56,-1499.6 194.92,-1493"/>
</g>
<!-- lue -->
<g id="node19" class="node">
<title>lue</title>
<g id="a_node19"><a xlink:href="https://github.com/conda-forge/lue-feedstock" xlink:title="lue">
<ellipse fill="#fde725" stroke="black" cx="409.5" cy="-1266" rx="27" ry="18"/>
<text text-anchor="middle" x="409.5" y="-1262.3" font-family="Times,serif" font-size="14.00">lue</text>
</a>
</g>
</g>
<!-- gdal&#45;&gt;lue -->
<g id="edge15" class="edge">
<title>gdal&#45;&gt;lue</title>
<path fill="none" stroke="black" d="M357.37,-1535.89C360.23,-1525.55 363.8,-1512.07 366.5,-1500 383.08,-1425.99 398.08,-1337.73 405.18,-1294.13"/>
<polygon fill="black" stroke="black" points="408.67,-1294.48 406.81,-1284.05 401.76,-1293.36 408.67,-1294.48"/>
</g>
<!-- mdal -->
<g id="node20" class="node">
<title>mdal</title>
<g id="a_node20"><a xlink:href="https://github.com/conda-forge/mdal-feedstock" xlink:title="mdal">
<ellipse fill="#fde725" stroke="black" cx="219.5" cy="-1194" rx="34" ry="18"/>
<text text-anchor="middle" x="219.5" y="-1190.3" font-family="Times,serif" font-size="14.00">mdal</text>
</a>
</g>
</g>
<!-- gdal&#45;&gt;mdal -->
<g id="edge16" class="edge">
<title>gdal&#45;&gt;mdal</title>
<path fill="none" stroke="black" d="M318.18,-1545.78C292.41,-1538.56 258.29,-1524.83 238.5,-1500 213.29,-1468.37 219.5,-1451.45 219.5,-1411 219.5,-1411 219.5,-1411 219.5,-1337 219.5,-1297 219.5,-1250.65 219.5,-1222.08"/>
<polygon fill="black" stroke="black" points="223,-1222.05 219.5,-1212.05 216,-1222.05 223,-1222.05"/>
</g>
<!-- libcdms -->
<g id="node22" class="node">
<title>libcdms</title>
<g id="a_node22"><a xlink:href="https://github.com/conda-forge/libcdms-feedstock" xlink:title="libcdms">
<ellipse fill="#ff8c00" stroke="black" cx="1838.5" cy="-1446" rx="47" ry="18"/>
<text text-anchor="middle" x="1838.5" y="-1442.3" font-family="Times,serif" font-size="14.00">libcdms</text>
</a>
</g>
</g>
<!-- hyperion&#45;fortran&#45;&gt;libcdms -->
<!-- paraview -->
<g id="node23" class="node">
<title>paraview</title>
<g id="a_node23"><a xlink:href="https://github.com/conda-forge/paraview-feedstock" xlink:title="paraview">
<ellipse fill="#ff8c00" stroke="black" cx="1838.5" cy="-1374" rx="53.5" ry="18"/>
<text text-anchor="middle" x="1838.5" y="-1370.3" font-family="Times,serif" font-size="14.00">paraview</text>
</a>
</g>
</g>
<!-- libcdms&#45;&gt;paraview -->
<!-- yaafe -->
<g id="node36" class="node">
<title>yaafe</title>
<g id="a_node36"><a xlink:href="https://github.com/conda-forge/yaafe-feedstock/pull/15" xlink:title="yaafe ❎">
<ellipse fill="#31688e" stroke="black" cx="1838.5" cy="-1302" rx="50.09" ry="18"/>
<text text-anchor="middle" x="1838.5" y="-1298.3" font-family="Times,serif" font-size="14.00" fill="white">yaafe ❎</text>
</a>
</g>
</g>
<!-- paraview&#45;&gt;yaafe -->
<!-- libmatio -->
<g id="node24" class="node">
<title>libmatio</title>
<g id="a_node24"><a xlink:href="https://github.com/conda-forge/libmatio-feedstock/pull/39" xlink:title="libmatio ✓">
<ellipse fill="#31688e" stroke="black" cx="1571.5" cy="-682" rx="56" ry="18"/>
<text text-anchor="middle" x="1571.5" y="-678.3" font-family="Times,serif" font-size="14.00" fill="white">libmatio ✓</text>
</a>
</g>
</g>
<!-- pytrilinos -->
<g id="node25" class="node">
<title>pytrilinos</title>
<g id="a_node25"><a xlink:href="https://github.com/conda-forge/pytrilinos-feedstock" xlink:title="pytrilinos">
<ellipse fill="#fde725" stroke="black" cx="1358.5" cy="-610" rx="55.49" ry="18"/>
<text text-anchor="middle" x="1358.5" y="-606.3" font-family="Times,serif" font-size="14.00">pytrilinos</text>
</a>
</g>
</g>
<!-- libmatio&#45;&gt;pytrilinos -->
<g id="edge20" class="edge">
<title>libmatio&#45;&gt;pytrilinos</title>
<path fill="none" stroke="black" d="M1533.91,-668.65C1498.28,-656.94 1444.61,-639.3 1406.03,-626.62"/>
<polygon fill="black" stroke="black" points="1406.66,-623.14 1396.07,-623.35 1404.48,-629.79 1406.66,-623.14"/>
</g>
<!-- trilinos -->
<g id="node26" class="node">
<title>trilinos</title>
<g id="a_node26"><a xlink:href="https://github.com/conda-forge/trilinos-feedstock" xlink:title="trilinos">
<ellipse fill="#fde725" stroke="black" cx="1475.5" cy="-610" rx="44.39" ry="18"/>
<text text-anchor="middle" x="1475.5" y="-606.3" font-family="Times,serif" font-size="14.00">trilinos</text>
</a>
</g>
</g>
<!-- libmatio&#45;&gt;trilinos -->
<g id="edge21" class="edge">
<title>libmatio&#45;&gt;trilinos</title>
<path fill="none" stroke="black" d="M1549.72,-665.12C1536.31,-655.34 1518.96,-642.69 1504.4,-632.08"/>
<polygon fill="black" stroke="black" points="1506.35,-629.17 1496.21,-626.1 1502.23,-634.82 1506.35,-629.17"/>
</g>
<!-- openmeeg -->
<g id="node27" class="node">
<title>openmeeg</title>
<g id="a_node27"><a xlink:href="https://github.com/conda-forge/openmeeg-feedstock" xlink:title="openmeeg">
<ellipse fill="#fde725" stroke="black" cx="1596.5" cy="-610" rx="58.5" ry="18"/>
<text text-anchor="middle" x="1596.5" y="-606.3" font-family="Times,serif" font-size="14.00">openmeeg</text>
</a>
</g>
</g>
<!-- libmatio&#45;&gt;openmeeg -->
<g id="edge22" class="edge">
<title>libmatio&#45;&gt;openmeeg</title>
<path fill="none" stroke="black" d="M1577.55,-664.05C1580.37,-656.18 1583.78,-646.62 1586.93,-637.79"/>
<polygon fill="black" stroke="black" points="1590.26,-638.87 1590.33,-628.28 1583.67,-636.52 1590.26,-638.87"/>
</g>
<!-- libvips -->
<g id="node28" class="node">
<title>libvips</title>
<g id="a_node28"><a xlink:href="https://github.com/conda-forge/libvips-feedstock" xlink:title="libvips">
<ellipse fill="#fde725" stroke="black" cx="1683.5" cy="-538" rx="41.69" ry="18"/>
<text text-anchor="middle" x="1683.5" y="-534.3" font-family="Times,serif" font-size="14.00">libvips</text>
</a>
</g>
</g>
<!-- libmatio&#45;&gt;libvips -->
<g id="edge23" class="edge">
<title>libmatio&#45;&gt;libvips</title>
<path fill="none" stroke="black" d="M1608.86,-668.3C1628.29,-659.82 1650.78,-646.75 1664.5,-628 1677.58,-610.11 1682.03,-585.11 1683.38,-566.16"/>
<polygon fill="black" stroke="black" points="1686.88,-566.22 1683.86,-556.07 1679.89,-565.9 1686.88,-566.22"/>
</g>
<!-- moab -->
<g id="node29" class="node">
<title>moab</title>
<g id="a_node29"><a xlink:href="https://github.com/conda-forge/moab-feedstock" xlink:title="moab">
<ellipse fill="#ff8c00" stroke="black" cx="1891.5" cy="-646" rx="36.5" ry="18"/>
<text text-anchor="middle" x="1891.5" y="-642.3" font-family="Times,serif" font-size="14.00">moab</text>
</a>
</g>
</g>
<!-- pyne -->
<g id="node30" class="node">
<title>pyne</title>
<g id="a_node30"><a xlink:href="https://github.com/conda-forge/pyne-feedstock" xlink:title="pyne">
<ellipse fill="#fde725" stroke="black" cx="1794.5" cy="-574" rx="33.29" ry="18"/>
<text text-anchor="middle" x="1794.5" y="-570.3" font-family="Times,serif" font-size="14.00">pyne</text>
</a>
</g>
</g>
<!-- moab&#45;&gt;pyne -->
<g id="edge24" class="edge">
<title>moab&#45;&gt;pyne</title>
<path fill="none" stroke="black" d="M1871.4,-630.5C1857.07,-620.16 1837.64,-606.13 1821.9,-594.77"/>
<polygon fill="black" stroke="black" points="1823.74,-591.78 1813.58,-588.77 1819.64,-597.46 1823.74,-591.78"/>
</g>
<!-- dagmc -->
<g id="node31" class="node">
<title>dagmc</title>
<g id="a_node31"><a xlink:href="https://github.com/conda-forge/dagmc-feedstock" xlink:title="dagmc">
<ellipse fill="#fde725" stroke="black" cx="1891.5" cy="-574" rx="41.69" ry="18"/>
<text text-anchor="middle" x="1891.5" y="-570.3" font-family="Times,serif" font-size="14.00">dagmc</text>
</a>
</g>
</g>
<!-- moab&#45;&gt;dagmc -->
<g id="edge25" class="edge">
<title>moab&#45;&gt;dagmc</title>
<path fill="none" stroke="black" d="M1891.5,-627.7C1891.5,-619.98 1891.5,-610.71 1891.5,-602.11"/>
<polygon fill="black" stroke="black" points="1895,-602.1 1891.5,-592.1 1888,-602.1 1895,-602.1"/>
</g>
<!-- netcdf&#45;cxx4 -->
<g id="node32" class="node">
<title>netcdf&#45;cxx4</title>
<g id="a_node32"><a xlink:href="https://github.com/conda-forge/netcdf-cxx4-feedstock" xlink:title="netcdf cxx4">
<ellipse fill="#ff8c00" stroke="black" cx="1407.5" cy="-682" rx="64.5" ry="18"/>
<text text-anchor="middle" x="1407.5" y="-678.3" font-family="Times,serif" font-size="14.00">netcdf cxx4</text>
</a>
</g>
</g>
<!-- netcdf&#45;cxx4&#45;&gt;pytrilinos -->
<g id="edge26" class="edge">
<title>netcdf&#45;cxx4&#45;&gt;pytrilinos</title>
<path fill="none" stroke="black" d="M1395.64,-664.05C1389.8,-655.71 1382.64,-645.49 1376.18,-636.25"/>
<polygon fill="black" stroke="black" points="1378.85,-633.97 1370.25,-627.79 1373.12,-637.99 1378.85,-633.97"/>
</g>
<!-- netcdf&#45;cxx4&#45;&gt;trilinos -->
<g id="edge27" class="edge">
<title>netcdf&#45;cxx4&#45;&gt;trilinos</title>
<path fill="none" stroke="black" d="M1423.62,-664.41C1432.38,-655.39 1443.36,-644.09 1452.96,-634.21"/>
<polygon fill="black" stroke="black" points="1455.51,-636.6 1459.97,-626.99 1450.49,-631.72 1455.51,-636.6"/>
</g>
<!-- opencv -->
<g id="node33" class="node">
<title>opencv</title>
<g id="a_node33"><a xlink:href="https://github.com/conda-forge/opencv-feedstock" xlink:title="opencv">
<ellipse fill="#ff8c00" stroke="black" cx="93.5" cy="-1554" rx="43.59" ry="18"/>
<text text-anchor="middle" x="93.5" y="-1550.3" font-family="Times,serif" font-size="14.00">opencv</text>
</a>
</g>
</g>
<!-- opencv&#45;&gt;caffe -->
<g id="edge28" class="edge">
<title>opencv&#45;&gt;caffe</title>
<path fill="none" stroke="black" d="M79.35,-1536.76C71.46,-1527.71 61.51,-1516.29 52.8,-1506.3"/>
<polygon fill="black" stroke="black" points="55.36,-1503.91 46.15,-1498.67 50.08,-1508.5 55.36,-1503.91"/>
</g>
<!-- opencv&#45;&gt;isce2 -->
<g id="edge29" class="edge">
<title>opencv&#45;&gt;isce2</title>
<path fill="none" stroke="black" d="M108.11,-1536.76C116.26,-1527.71 126.54,-1516.29 135.53,-1506.3"/>
<polygon fill="black" stroke="black" points="138.31,-1508.44 142.4,-1498.67 133.11,-1503.76 138.31,-1508.44"/>
</g>
<!-- imp -->
<g id="node34" class="node">
<title>imp</title>
<g id="a_node34"><a xlink:href="https://github.com/conda-forge/imp-feedstock" xlink:title="imp">
<ellipse fill="#fde725" stroke="black" cx="93.5" cy="-1410" rx="28.7" ry="18"/>
<text text-anchor="middle" x="93.5" y="-1406.3" font-family="Times,serif" font-size="14.00">imp</text>
</a>
</g>
</g>
<!-- opencv&#45;&gt;imp -->
<g id="edge30" class="edge">
<title>opencv&#45;&gt;imp</title>
<path fill="none" stroke="black" d="M93.5,-1535.87C93.5,-1511.67 93.5,-1467.21 93.5,-1438.39"/>
<polygon fill="black" stroke="black" points="97,-1438.19 93.5,-1428.19 90,-1438.19 97,-1438.19"/>
</g>
<!-- openmc -->
<g id="node35" class="node">
<title>openmc</title>
<g id="a_node35"><a xlink:href="https://github.com/conda-forge/openmc-feedstock" xlink:title="openmc">
<ellipse fill="#ff8c00" stroke="black" cx="1789.5" cy="-646" rx="47" ry="18"/>
<text text-anchor="middle" x="1789.5" y="-642.3" font-family="Times,serif" font-size="14.00">openmc</text>
</a>
</g>
</g>
<!-- openmc&#45;&gt;pyne -->
<g id="edge31" class="edge">
<title>openmc&#45;&gt;pyne</title>
<path fill="none" stroke="black" d="M1790.74,-627.7C1791.29,-619.98 1791.95,-610.71 1792.56,-602.11"/>
<polygon fill="black" stroke="black" points="1796.06,-602.33 1793.28,-592.1 1789.07,-601.83 1796.06,-602.33"/>
</g>
<!-- siesta -->
<g id="node41" class="node">
<title>siesta</title>
<g id="a_node41"><a xlink:href="https://github.com/conda-forge/siesta-feedstock" xlink:title="siesta">
<ellipse fill="#35b779" stroke="black" cx="1838.5" cy="-1230" rx="38.5" ry="18"/>
<text text-anchor="middle" x="1838.5" y="-1226.3" font-family="Times,serif" font-size="14.00">siesta</text>
</a>
</g>
</g>
<!-- yaafe&#45;&gt;siesta -->
<!-- shogun -->
<g id="node37" class="node">
<title>shogun</title>
<g id="a_node37"><a xlink:href="https://github.com/conda-forge/shogun-feedstock" xlink:title="shogun">
<ellipse fill="#fde725" stroke="black" cx="647.5" cy="-134" rx="44.39" ry="18"/>
<text text-anchor="middle" x="647.5" y="-130.3" font-family="Times,serif" font-size="14.00">shogun</text>
</a>
</g>
</g>
<!-- shogun&#45;cpp -->
<g id="node38" class="node">
<title>shogun&#45;cpp</title>
<g id="a_node38"><a xlink:href="https://github.com/conda-forge/shogun-cpp-feedstock/pull/47" xlink:title="shogun cpp ✓">
<ellipse fill="#31688e" stroke="black" cx="647.5" cy="-206" rx="71.5" ry="18"/>
<text text-anchor="middle" x="647.5" y="-202.3" font-family="Times,serif" font-size="14.00" fill="white">shogun cpp ✓</text>
</a>
</g>
</g>
<!-- shogun&#45;cpp&#45;&gt;shogun -->
<g id="edge33" class="edge">
<title>shogun&#45;cpp&#45;&gt;shogun</title>
<path fill="none" stroke="black" d="M647.5,-187.7C647.5,-179.98 647.5,-170.71 647.5,-162.11"/>
<polygon fill="black" stroke="black" points="651,-162.1 647.5,-152.1 644,-162.1 651,-162.1"/>
</g>
<!-- vigra -->
<g id="node39" class="node">
<title>vigra</title>
<g id="a_node39"><a xlink:href="https://github.com/conda-forge/vigra-feedstock/pull/75" xlink:title="vigra ❎">
<ellipse fill="#31688e" stroke="black" cx="1514.5" cy="-90" rx="48.99" ry="18"/>
<text text-anchor="middle" x="1514.5" y="-86.3" font-family="Times,serif" font-size="14.00" fill="white">vigra ❎</text>
</a>
</g>
</g>
<!-- nifty -->
<g id="node40" class="node">
<title>nifty</title>
<g id="a_node40"><a xlink:href="https://github.com/conda-forge/nifty-feedstock" xlink:title="nifty">
<ellipse fill="#fde725" stroke="black" cx="1514.5" cy="-18" rx="32.5" ry="18"/>
<text text-anchor="middle" x="1514.5" y="-14.3" font-family="Times,serif" font-size="14.00">nifty</text>
</a>
</g>
</g>
<!-- vigra&#45;&gt;nifty -->
<g id="edge34" class="edge">
<title>vigra&#45;&gt;nifty</title>
<path fill="none" stroke="black" d="M1514.5,-71.7C1514.5,-63.98 1514.5,-54.71 1514.5,-46.11"/>
<polygon fill="black" stroke="black" points="1518,-46.1 1514.5,-36.1 1511,-46.1 1518,-46.1"/>
</g>
<!-- cmor -->
<g id="node42" class="node">
<title>cmor</title>
<g id="a_node42"><a xlink:href="https://github.com/conda-forge/cmor-feedstock/pull/37" xlink:title="cmor ✓">
<ellipse fill="#31688e" stroke="black" cx="1838.5" cy="-1158" rx="41.69" ry="18"/>
<text text-anchor="middle" x="1838.5" y="-1154.3" font-family="Times,serif" font-size="14.00" fill="white">cmor ✓</text>
</a>
</g>
</g>
<!-- siesta&#45;&gt;cmor -->
<!-- lal -->
<g id="node50" class="node">
<title>lal</title>
<g id="a_node50"><a xlink:href="https://github.com/conda-forge/lal-feedstock/pull/58" xlink:title="lal ❎">
<ellipse fill="#31688e" stroke="black" cx="1838.5" cy="-1086" rx="36.5" ry="18"/>
<text text-anchor="middle" x="1838.5" y="-1082.3" font-family="Times,serif" font-size="14.00" fill="white">lal ❎</text>
</a>
</g>
</g>
<!-- cmor&#45;&gt;lal -->
<!-- vtk -->
<g id="node43" class="node">
<title>vtk</title>
<g id="a_node43"><a xlink:href="https://github.com/conda-forge/vtk-feedstock" xlink:title="vtk">
<ellipse fill="#ff8c00" stroke="black" cx="1064.5" cy="-1554" rx="27" ry="18"/>
<text text-anchor="middle" x="1064.5" y="-1550.3" font-family="Times,serif" font-size="14.00">vtk</text>
</a>
</g>
</g>
<!-- vtk&#45;&gt;freecad -->
<g id="edge37" class="edge">
<title>vtk&#45;&gt;freecad</title>
<path fill="none" stroke="black" d="M1041.45,-1544.42C1010.85,-1533.02 956.26,-1512.7 918.3,-1498.56"/>
<polygon fill="black" stroke="black" points="919.14,-1495.14 908.55,-1494.93 916.7,-1501.7 919.14,-1495.14"/>
</g>
<!-- pymeep -->
<g id="node44" class="node">
<title>pymeep</title>
<g id="a_node44"><a xlink:href="https://github.com/conda-forge/pymeep-feedstock" xlink:title="pymeep">
<ellipse fill="#fde725" stroke="black" cx="1026.5" cy="-1482" rx="47.5" ry="18"/>
<text text-anchor="middle" x="1026.5" y="-1478.3" font-family="Times,serif" font-size="14.00">pymeep</text>
</a>
</g>
</g>
<!-- vtk&#45;&gt;pymeep -->
<g id="edge38" class="edge">
<title>vtk&#45;&gt;pymeep</title>
<path fill="none" stroke="black" d="M1055.69,-1536.76C1051.21,-1528.53 1045.67,-1518.32 1040.62,-1509.02"/>
<polygon fill="black" stroke="black" points="1043.64,-1507.24 1035.8,-1500.12 1037.49,-1510.58 1043.64,-1507.24"/>
</g>
<!-- bonsu -->
<g id="node45" class="node">
<title>bonsu</title>
<g id="a_node45"><a xlink:href="https://github.com/conda-forge/bonsu-feedstock" xlink:title="bonsu">
<ellipse fill="#fde725" stroke="black" cx="1087.5" cy="-1410" rx="38.5" ry="18"/>
<text text-anchor="middle" x="1087.5" y="-1406.3" font-family="Times,serif" font-size="14.00">bonsu</text>
</a>
</g>
</g>
<!-- vtk&#45;&gt;bonsu -->
<g id="edge39" class="edge">
<title>vtk&#45;&gt;bonsu</title>
<path fill="none" stroke="black" d="M1071.8,-1536.65C1076.03,-1526.35 1081.01,-1512.66 1083.5,-1500 1087.51,-1479.64 1088.42,-1456.18 1088.37,-1438.46"/>
<polygon fill="black" stroke="black" points="1091.87,-1438.2 1088.24,-1428.24 1084.87,-1438.29 1091.87,-1438.2"/>
</g>
<!-- esys&#45;escript -->
<g id="node46" class="node">
<title>esys&#45;escript</title>
<g id="a_node46"><a xlink:href="https://github.com/conda-forge/esys-escript-feedstock" xlink:title="esys escript">
<ellipse fill="#fde725" stroke="black" cx="1154.5" cy="-1338" rx="66.5" ry="18"/>
<text text-anchor="middle" x="1154.5" y="-1334.3" font-family="Times,serif" font-size="14.00">esys escript</text>
</a>
</g>
</g>
<!-- vtk&#45;&gt;esys&#45;escript -->
<g id="edge40" class="edge">
<title>vtk&#45;&gt;esys&#45;escript</title>
<path fill="none" stroke="black" d="M1075.74,-1537.08C1082.87,-1526.72 1092.11,-1512.8 1099.5,-1500 1117.39,-1469.02 1123.67,-1461.76 1135.5,-1428 1142.58,-1407.78 1147.5,-1384 1150.55,-1366.12"/>
<polygon fill="black" stroke="black" points="1154.03,-1366.51 1152.17,-1356.08 1147.12,-1365.39 1154.03,-1366.51"/>
</g>
<!-- damask -->
<g id="node47" class="node">
<title>damask</title>
<g id="a_node47"><a xlink:href="https://github.com/conda-forge/damask-feedstock" xlink:title="damask">
<ellipse fill="#fde725" stroke="black" cx="1249.5" cy="-1266" rx="46.29" ry="18"/>
<text text-anchor="middle" x="1249.5" y="-1262.3" font-family="Times,serif" font-size="14.00">damask</text>
</a>
</g>
</g>
<!-- vtk&#45;&gt;damask -->
<g id="edge41" class="edge">
<title>vtk&#45;&gt;damask</title>
<path fill="none" stroke="black" d="M1081.09,-1539.64C1093.38,-1529.39 1110.24,-1514.55 1123.5,-1500 1177.2,-1441.06 1197.65,-1428.65 1230.5,-1356 1239.38,-1336.36 1244.19,-1312.37 1246.75,-1294.25"/>
<polygon fill="black" stroke="black" points="1250.26,-1294.43 1248.04,-1284.07 1243.31,-1293.56 1250.26,-1294.43"/>
</g>
<!-- pycgns -->
<g id="node48" class="node">
<title>pycgns</title>
<g id="a_node48"><a xlink:href="https://github.com/conda-forge/pycgns-feedstock" xlink:title="pycgns">
<ellipse fill="#fde725" stroke="black" cx="950.5" cy="-1194" rx="43.59" ry="18"/>
<text text-anchor="middle" x="950.5" y="-1190.3" font-family="Times,serif" font-size="14.00">pycgns</text>
</a>
</g>
</g>
<!-- vtk&#45;&gt;pycgns -->
<g id="edge42" class="edge">
<title>vtk&#45;&gt;pycgns</title>
<path fill="none" stroke="black" d="M1040.24,-1545.64C1018.63,-1537.82 987.82,-1523.31 970.5,-1500 946.31,-1467.46 950.5,-1451.54 950.5,-1411 950.5,-1411 950.5,-1411 950.5,-1337 950.5,-1297 950.5,-1250.65 950.5,-1222.08"/>
<polygon fill="black" stroke="black" points="954,-1222.05 950.5,-1212.05 947,-1222.05 954,-1222.05"/>
</g>
<!-- openpmd&#45;api -->
<g id="node49" class="node">
<title>openpmd&#45;api</title>
<g id="a_node49"><a xlink:href="https://github.com/conda-forge/openpmd-api-feedstock" xlink:title="openpmd api">
<ellipse fill="#fde725" stroke="black" cx="1514.5" cy="-134" rx="71" ry="18"/>
<text text-anchor="middle" x="1514.5" y="-130.3" font-family="Times,serif" font-size="14.00">openpmd api</text>
</a>
</g>
</g>
<!-- blosc&#45;hdf5&#45;plugin -->
<g id="node51" class="node">
<title>blosc&#45;hdf5&#45;plugin</title>
<g id="a_node51"><a xlink:href="https://github.com/conda-forge/blosc-hdf5-plugin-feedstock/pull/5" xlink:title="blosc hdf5 plugin ❎">
<ellipse fill="#31688e" stroke="black" cx="1838.5" cy="-1014" rx="104.78" ry="18"/>
<text text-anchor="middle" x="1838.5" y="-1010.3" font-family="Times,serif" font-size="14.00" fill="white">blosc hdf5 plugin ❎</text>
</a>
</g>
</g>
<!-- lal&#45;&gt;blosc&#45;hdf5&#45;plugin -->
<!-- scilab -->
<g id="node52" class="node">
<title>scilab</title>
<g id="a_node52"><a xlink:href="https://github.com/conda-forge/scilab-feedstock/pull/25" xlink:title="scilab ❎">
<ellipse fill="#31688e" stroke="black" cx="1514.5" cy="-1734" rx="52" ry="18"/>
<text text-anchor="middle" x="1514.5" y="-1730.3" font-family="Times,serif" font-size="14.00" fill="white">scilab ❎</text>
</a>
</g>
</g>
<!-- bitshuffle -->
<g id="node53" class="node">
<title>bitshuffle</title>
<g id="a_node53"><a xlink:href="https://github.com/conda-forge/bitshuffle-feedstock" xlink:title="bitshuffle">
<ellipse fill="#ff8c00" stroke="black" cx="1514.5" cy="-1662" rx="54.69" ry="18"/>
<text text-anchor="middle" x="1514.5" y="-1658.3" font-family="Times,serif" font-size="14.00">bitshuffle</text>
</a>
</g>
</g>
<!-- scilab&#45;&gt;bitshuffle -->
<!-- dakota -->
<g id="node54" class="node">
<title>dakota</title>
<g id="a_node54"><a xlink:href="https://github.com/conda-forge/dakota-feedstock" xlink:title="dakota">
<ellipse fill="#ff8c00" stroke="black" cx="1514.5" cy="-1590" rx="42.49" ry="18"/>
<text text-anchor="middle" x="1514.5" y="-1586.3" font-family="Times,serif" font-size="14.00">dakota</text>
</a>
</g>
</g>
<!-- bitshuffle&#45;&gt;dakota -->
<!-- ncview -->
<g id="node56" class="node">
<title>ncview</title>
<g id="a_node56"><a xlink:href="https://github.com/conda-forge/ncview-feedstock" xlink:title="ncview">
<ellipse fill="#ff8c00" stroke="black" cx="1514.5" cy="-1518" rx="43" ry="18"/>
<text text-anchor="middle" x="1514.5" y="-1514.3" font-family="Times,serif" font-size="14.00">ncview</text>
</a>
</g>
</g>
<!-- dakota&#45;&gt;ncview -->
<!-- adios2 -->
<g id="node55" class="node">
<title>adios2</title>
<g id="a_node55"><a xlink:href="https://github.com/conda-forge/adios2-feedstock/pull/31" xlink:title="adios2 ❎">
<ellipse fill="#31688e" stroke="black" cx="1514.5" cy="-206" rx="55.49" ry="18"/>
<text text-anchor="middle" x="1514.5" y="-202.3" font-family="Times,serif" font-size="14.00" fill="white">adios2 ❎</text>
</a>
</g>
</g>
<!-- adios2&#45;&gt;openpmd&#45;api -->
<g id="edge47" class="edge">
<title>adios2&#45;&gt;openpmd&#45;api</title>
<path fill="none" stroke="black" d="M1514.5,-187.7C1514.5,-179.98 1514.5,-170.71 1514.5,-162.11"/>
<polygon fill="black" stroke="black" points="1518,-162.1 1514.5,-152.1 1511,-162.1 1518,-162.1"/>
</g>
<!-- proteus -->
<g id="node57" class="node">
<title>proteus</title>
<g id="a_node57"><a xlink:href="https://github.com/conda-forge/proteus-feedstock" xlink:title="proteus">
<ellipse fill="#ff8c00" stroke="black" cx="1514.5" cy="-1446" rx="46.29" ry="18"/>
<text text-anchor="middle" x="1514.5" y="-1442.3" font-family="Times,serif" font-size="14.00">proteus</text>
</a>
</g>
</g>
<!-- ncview&#45;&gt;proteus -->
<!-- hdf5&#45;external&#45;filter&#45;plugins -->
<g id="node60" class="node">
<title>hdf5&#45;external&#45;filter&#45;plugins</title>
<g id="a_node60"><a xlink:href="https://github.com/conda-forge/hdf5-external-filter-plugins-feedstock/pull/12" xlink:title="hdf5 external filter plugins ✓">
<ellipse fill="#31688e" stroke="black" cx="1514.5" cy="-1374" rx="143" ry="18"/>
<text text-anchor="middle" x="1514.5" y="-1370.3" font-family="Times,serif" font-size="14.00" fill="white">hdf5 external filter plugins ✓</text>
</a>
</g>
</g>
<!-- proteus&#45;&gt;hdf5&#45;external&#45;filter&#45;plugins -->
<!-- triqs -->
<g id="node58" class="node">
<title>triqs</title>
<g id="a_node58"><a xlink:href="https://github.com/conda-forge/triqs-feedstock/pull/19" xlink:title="triqs ❎">
<ellipse fill="#31688e" stroke="black" cx="1838.5" cy="-206" rx="47" ry="18"/>
<text text-anchor="middle" x="1838.5" y="-202.3" font-family="Times,serif" font-size="14.00" fill="white">triqs ❎</text>
</a>
</g>
</g>
<!-- triqs_cthyb -->
<g id="node59" class="node">
<title>triqs_cthyb</title>
<g id="a_node59"><a xlink:href="https://github.com/conda-forge/triqs_cthyb-feedstock" xlink:title="triqs_cthyb">
<ellipse fill="#fde725" stroke="black" cx="1838.5" cy="-134" rx="63.09" ry="18"/>
<text text-anchor="middle" x="1838.5" y="-130.3" font-family="Times,serif" font-size="14.00">triqs_cthyb</text>
</a>
</g>
</g>
<!-- triqs&#45;&gt;triqs_cthyb -->
<g id="edge50" class="edge">
<title>triqs&#45;&gt;triqs_cthyb</title>
<path fill="none" stroke="black" d="M1838.5,-187.7C1838.5,-179.98 1838.5,-170.71 1838.5,-162.11"/>
<polygon fill="black" stroke="black" points="1842,-162.1 1838.5,-152.1 1835,-162.1 1842,-162.1"/>
</g>
<!-- hdf5plugin -->
<g id="node61" class="node">
<title>hdf5plugin</title>
<g id="a_node61"><a xlink:href="https://github.com/conda-forge/hdf5plugin-feedstock" xlink:title="hdf5plugin">
<ellipse fill="#ff8c00" stroke="black" cx="1514.5" cy="-1302" rx="61.19" ry="18"/>
<text text-anchor="middle" x="1514.5" y="-1298.3" font-family="Times,serif" font-size="14.00">hdf5plugin</text>
</a>
</g>
</g>
<!-- hdf5&#45;external&#45;filter&#45;plugins&#45;&gt;hdf5plugin -->
<!-- netcdf&#45;cxx&#45;legacy -->
<g id="node62" class="node">
<title>netcdf&#45;cxx&#45;legacy</title>
<g id="a_node62"><a xlink:href="https://github.com/conda-forge/netcdf-cxx-legacy-feedstock" xlink:title="netcdf cxx legacy">
<ellipse fill="#ff8c00" stroke="black" cx="1514.5" cy="-1230" rx="91" ry="18"/>
<text text-anchor="middle" x="1514.5" y="-1226.3" font-family="Times,serif" font-size="14.00">netcdf cxx legacy</text>
</a>
</g>
</g>
<!-- hdf5plugin&#45;&gt;netcdf&#45;cxx&#45;legacy -->
<!-- prismatic_split -->
<g id="node63" class="node">
<title>prismatic_split</title>
<g id="a_node63"><a xlink:href="https://github.com/conda-forge/prismatic_split-feedstock" xlink:title="prismatic_split">
<ellipse fill="#ff8c00" stroke="black" cx="1514.5" cy="-1158" rx="79.5" ry="18"/>
<text text-anchor="middle" x="1514.5" y="-1154.3" font-family="Times,serif" font-size="14.00">prismatic_split</text>
</a>
</g>
</g>
<!-- netcdf&#45;cxx&#45;legacy&#45;&gt;prismatic_split -->
<!-- digital_rf -->
<g id="node64" class="node">
<title>digital_rf</title>
<g id="a_node64"><a xlink:href="https://github.com/conda-forge/digital_rf-feedstock" xlink:title="digital_rf">
<ellipse fill="#ff8c00" stroke="black" cx="1514.5" cy="-1086" rx="52.79" ry="18"/>
<text text-anchor="middle" x="1514.5" y="-1082.3" font-family="Times,serif" font-size="14.00">digital_rf</text>
</a>
</g>
</g>
<!-- prismatic_split&#45;&gt;digital_rf -->
<!-- gwollum -->
<g id="node65" class="node">
<title>gwollum</title>
<g id="a_node65"><a xlink:href="https://github.com/conda-forge/gwollum-feedstock" xlink:title="gwollum">
<ellipse fill="#ff8c00" stroke="black" cx="1514.5" cy="-1014" rx="50.09" ry="18"/>
<text text-anchor="middle" x="1514.5" y="-1010.3" font-family="Times,serif" font-size="14.00">gwollum</text>
</a>
</g>
</g>
<!-- digital_rf&#45;&gt;gwollum -->
<!-- conduit -->
<g id="node66" class="node">
<title>conduit</title>
<g id="a_node66"><a xlink:href="https://github.com/conda-forge/conduit-feedstock/pull/14" xlink:title="conduit ❎">
<ellipse fill="#31688e" stroke="black" cx="647.5" cy="-970" rx="60" ry="18"/>
<text text-anchor="middle" x="647.5" y="-966.3" font-family="Times,serif" font-size="14.00" fill="white">conduit ❎</text>
</a>
</g>
</g>
<!-- nccmp -->
<g id="node67" class="node">
<title>nccmp</title>
<g id="a_node67"><a xlink:href="https://github.com/conda-forge/nccmp-feedstock" xlink:title="nccmp">
<ellipse fill="#ff8c00" stroke="black" cx="647.5" cy="-898" rx="41" ry="18"/>
<text text-anchor="middle" x="647.5" y="-894.3" font-family="Times,serif" font-size="14.00">nccmp</text>
</a>
</g>
</g>
<!-- conduit&#45;&gt;nccmp -->
<!-- pp&#45;sketchlib -->
<g id="node68" class="node">
<title>pp&#45;sketchlib</title>
<g id="a_node68"><a xlink:href="https://github.com/conda-forge/pp-sketchlib-feedstock" xlink:title="pp sketchlib">
<ellipse fill="#ff8c00" stroke="black" cx="647.5" cy="-826" rx="67.69" ry="18"/>
<text text-anchor="middle" x="647.5" y="-822.3" font-family="Times,serif" font-size="14.00">pp sketchlib</text>
</a>
</g>
</g>
<!-- nccmp&#45;&gt;pp&#45;sketchlib -->
<!-- abinit -->
<g id="node69" class="node">
<title>abinit</title>
<g id="a_node69"><a xlink:href="https://github.com/conda-forge/abinit-feedstock" xlink:title="abinit">
<ellipse fill="#35b779" stroke="black" cx="647.5" cy="-754" rx="37.89" ry="18"/>
<text text-anchor="middle" x="647.5" y="-750.3" font-family="Times,serif" font-size="14.00">abinit</text>
</a>
</g>
</g>
<!-- pp&#45;sketchlib&#45;&gt;abinit -->
<!-- polycap -->
<g id="node70" class="node">
<title>polycap</title>
<g id="a_node70"><a xlink:href="https://github.com/conda-forge/polycap-feedstock/pull/10" xlink:title="polycap ❎">
<ellipse fill="#31688e" stroke="black" cx="647.5" cy="-682" rx="60.5" ry="18"/>
<text text-anchor="middle" x="647.5" y="-678.3" font-family="Times,serif" font-size="14.00" fill="white">polycap ❎</text>
</a>
</g>
</g>
<!-- abinit&#45;&gt;polycap -->
<!-- gwframes -->
<g id="node71" class="node">
<title>gwframes</title>
<g id="a_node71"><a xlink:href="https://github.com/conda-forge/gwframes-feedstock" xlink:title="gwframes">
<ellipse fill="#000000" stroke="black" cx="647.5" cy="-610" rx="56.59" ry="18"/>
<text text-anchor="middle" x="647.5" y="-606.3" font-family="Times,serif" font-size="14.00" fill="white">gwframes</text>
</a>
</g>
</g>
<!-- polycap&#45;&gt;gwframes -->
<!-- fates&#45;emerald -->
<g id="node72" class="node">
<title>fates&#45;emerald</title>
<g id="a_node72"><a xlink:href="https://github.com/conda-forge/fates-emerald-feedstock" xlink:title="fates emerald">
<ellipse fill="#35b779" stroke="black" cx="647.5" cy="-538" rx="74.99" ry="18"/>
<text text-anchor="middle" x="647.5" y="-534.3" font-family="Times,serif" font-size="14.00">fates emerald</text>
</a>
</g>
</g>
<!-- gwframes&#45;&gt;fates&#45;emerald -->
<!-- muq -->
<g id="node73" class="node">
<title>muq</title>
<g id="a_node73"><a xlink:href="https://github.com/conda-forge/muq-feedstock/pull/16" xlink:title="muq ✓">
<ellipse fill="#31688e" stroke="black" cx="647.5" cy="-466" rx="38.5" ry="18"/>
<text text-anchor="middle" x="647.5" y="-462.3" font-family="Times,serif" font-size="14.00" fill="white">muq ✓</text>
</a>
</g>
</g>
<!-- fates&#45;emerald&#45;&gt;muq -->
<!-- tomviz -->
<g id="node74" class="node">
<title>tomviz</title>
<g id="a_node74"><a xlink:href="https://github.com/conda-forge/tomviz-feedstock/pull/10" xlink:title="tomviz ❎">
<ellipse fill="#31688e" stroke="black" cx="647.5" cy="-394" rx="56" ry="18"/>
<text text-anchor="middle" x="647.5" y="-390.3" font-family="Times,serif" font-size="14.00" fill="white">tomviz ❎</text>
</a>
</g>
</g>
<!-- muq&#45;&gt;tomviz -->
<!-- sirius -->
<g id="node75" class="node">
<title>sirius</title>
<g id="a_node75"><a xlink:href="https://github.com/conda-forge/sirius-feedstock/pull/7" xlink:title="sirius ❎">
<ellipse fill="#31688e" stroke="black" cx="647.5" cy="-322" rx="50.89" ry="18"/>
<text text-anchor="middle" x="647.5" y="-318.3" font-family="Times,serif" font-size="14.00" fill="white">sirius ❎</text>
</a>
</g>
</g>
<!-- tomviz&#45;&gt;sirius -->
<!-- yambo -->
<g id="node76" class="node">
<title>yambo</title>
<g id="a_node76"><a xlink:href="https://github.com/conda-forge/yambo-feedstock" xlink:title="yambo">
<ellipse fill="#35b779" stroke="black" cx="647.5" cy="-250" rx="41.69" ry="18"/>
<text text-anchor="middle" x="647.5" y="-246.3" font-family="Times,serif" font-size="14.00">yambo</text>
</a>
</g>
</g>
<!-- sirius&#45;&gt;yambo -->
<!-- harp -->
<g id="node77" class="node">
<title>harp</title>
<g id="a_node77"><a xlink:href="https://github.com/conda-forge/harp-feedstock/pull/4" xlink:title="harp ❎">
<ellipse fill="#31688e" stroke="black" cx="1838.5" cy="-54" rx="46.29" ry="18"/>
<text text-anchor="middle" x="1838.5" y="-50.3" font-family="Times,serif" font-size="14.00" fill="white">harp ❎</text>
</a>
</g>
</g>
</g>
</svg>
