<?xml version="1.0" encoding="UTF-8" standalone="no"?>
<!DOCTYPE svg PUBLIC "-//W3C//DTD SVG 1.1//EN"
 "http://www.w3.org/Graphics/SVG/1.1/DTD/svg11.dtd">
<!-- Generated by graphviz version 2.42.3 (20191010.1750)
 -->
<!-- Title: %3 Pages: 1 -->
<svg width="1029pt" height="548pt"
 viewBox="0.00 0.00 1028.50 548.00" xmlns="http://www.w3.org/2000/svg" xmlns:xlink="http://www.w3.org/1999/xlink">
<g id="graph0" class="graph" transform="scale(1 1) rotate(0) translate(4 544)">
<title>%3</title>
<polygon fill="white" stroke="transparent" points="-4,4 -4,-544 1024.5,-544 1024.5,4 -4,4"/>
<!-- cairo -->
<g id="node1" class="node">
<title>cairo</title>
<g id="a_node1"><a xlink:href="https://github.com/conda-forge/cairo-feedstock/pull/58" xlink:title="cairo ✓">
<ellipse fill="#31688e" stroke="black" cx="499.5" cy="-414" rx="38.5" ry="18"/>
<text text-anchor="middle" x="499.5" y="-410.3" font-family="Times,serif" font-size="14.00" fill="white">cairo ✓</text>
</a>
</g>
</g>
<!-- gdal -->
<g id="node2" class="node">
<title>gdal</title>
<g id="a_node2"><a xlink:href="https://github.com/conda-forge/gdal-feedstock" xlink:title="gdal">
<ellipse fill="#fde725" stroke="black" cx="51.5" cy="-270" rx="27" ry="18"/>
<text text-anchor="middle" x="51.5" y="-266.3" font-family="Times,serif" font-size="14.00">gdal</text>
</a>
</g>
</g>
<!-- cairo&#45;&gt;gdal -->
<g id="edge1" class="edge">
<title>cairo&#45;&gt;gdal</title>
<path fill="none" stroke="black" d="M462.98,-408.16C424.84,-401.82 364.42,-388.01 319.5,-360 301.08,-348.51 305.36,-334.75 286.5,-324 219.03,-285.53 191.06,-305.98 115.5,-288 105.89,-285.71 95.52,-283.05 85.99,-280.51"/>
<polygon fill="black" stroke="black" points="86.61,-277.06 76.04,-277.84 84.79,-283.82 86.61,-277.06"/>
</g>
<!-- harfbuzz -->
<g id="node3" class="node">
<title>harfbuzz</title>
<g id="a_node3"><a xlink:href="https://github.com/conda-forge/harfbuzz-feedstock" xlink:title="harfbuzz">
<ellipse fill="#fde725" stroke="black" cx="413.5" cy="-342" rx="41.69" ry="18"/>
<text text-anchor="middle" x="413.5" y="-338.3" font-family="Times,serif" font-size="14.00">harfbuzz</text>
</a>
</g>
</g>
<!-- cairo&#45;&gt;harfbuzz -->
<g id="edge2" class="edge">
<title>cairo&#45;&gt;harfbuzz</title>
<path fill="none" stroke="black" d="M480.84,-397.81C468.89,-388.09 453.21,-375.32 439.99,-364.56"/>
<polygon fill="black" stroke="black" points="442.09,-361.76 432.12,-358.16 437.67,-367.19 442.09,-361.76"/>
</g>
<!-- octave -->
<g id="node4" class="node">
<title>octave</title>
<g id="a_node4"><a xlink:href="https://github.com/conda-forge/octave-feedstock" xlink:title="octave">
<ellipse fill="#fde725" stroke="black" cx="508.5" cy="-198" rx="34" ry="18"/>
<text text-anchor="middle" x="508.5" y="-194.3" font-family="Times,serif" font-size="14.00">octave</text>
</a>
</g>
</g>
<!-- cairo&#45;&gt;octave -->
<g id="edge3" class="edge">
<title>cairo&#45;&gt;octave</title>
<path fill="none" stroke="black" d="M530.12,-402.92C595,-379.94 736.38,-320.35 685.5,-252 669.35,-230.31 597.68,-214.2 550.64,-205.73"/>
<polygon fill="black" stroke="black" points="551.17,-202.27 540.71,-203.99 549.96,-209.16 551.17,-202.27"/>
</g>
<!-- python&#45;igraph -->
<g id="node5" class="node">
<title>python&#45;igraph</title>
<g id="a_node5"><a xlink:href="https://github.com/conda-forge/python-igraph-feedstock" xlink:title="python igraph">
<ellipse fill="#fde725" stroke="black" cx="217.5" cy="-342" rx="60" ry="18"/>
<text text-anchor="middle" x="217.5" y="-338.3" font-family="Times,serif" font-size="14.00">python igraph</text>
</a>
</g>
</g>
<!-- cairo&#45;&gt;python&#45;igraph -->
<g id="edge4" class="edge">
<title>cairo&#45;&gt;python&#45;igraph</title>
<path fill="none" stroke="black" d="M466.32,-404.76C418.52,-392.9 329.72,-370.86 272.15,-356.57"/>
<polygon fill="black" stroke="black" points="272.69,-353.09 262.14,-354.08 271,-359.89 272.69,-353.09"/>
</g>
<!-- r&#45;base -->
<g id="node6" class="node">
<title>r&#45;base</title>
<g id="a_node6"><a xlink:href="https://github.com/conda-forge/r-base-feedstock" xlink:title="r base">
<ellipse fill="#fde725" stroke="black" cx="785.5" cy="-270" rx="32" ry="18"/>
<text text-anchor="middle" x="785.5" y="-266.3" font-family="Times,serif" font-size="14.00">r base</text>
</a>
</g>
</g>
<!-- cairo&#45;&gt;r&#45;base -->
<g id="edge5" class="edge">
<title>cairo&#45;&gt;r&#45;base</title>
<path fill="none" stroke="black" d="M536.46,-408.71C595.6,-401.21 708.04,-384.19 739.5,-360 759.67,-344.49 771.81,-317.64 778.51,-297.48"/>
<polygon fill="black" stroke="black" points="781.85,-298.51 781.45,-287.92 775.16,-296.45 781.85,-298.51"/>
</g>
<!-- texlive&#45;core -->
<g id="node7" class="node">
<title>texlive&#45;core</title>
<g id="a_node7"><a xlink:href="https://github.com/conda-forge/texlive-core-feedstock" xlink:title="texlive core">
<ellipse fill="#fde725" stroke="black" cx="607.5" cy="-270" rx="52" ry="18"/>
<text text-anchor="middle" x="607.5" y="-266.3" font-family="Times,serif" font-size="14.00">texlive core</text>
</a>
</g>
</g>
<!-- cairo&#45;&gt;texlive&#45;core -->
<g id="edge6" class="edge">
<title>cairo&#45;&gt;texlive&#45;core</title>
<path fill="none" stroke="black" d="M513.28,-397C522.1,-386.6 533.7,-372.68 543.5,-360 559.91,-338.78 577.65,-313.95 590.28,-295.92"/>
<polygon fill="black" stroke="black" points="593.19,-297.86 596.04,-287.65 587.45,-293.85 593.19,-297.86"/>
</g>
<!-- gtk2 -->
<g id="node8" class="node">
<title>gtk2</title>
<g id="a_node8"><a xlink:href="https://github.com/conda-forge/gtk2-feedstock" xlink:title="gtk2">
<ellipse fill="#fde725" stroke="black" cx="161.5" cy="-270" rx="27" ry="18"/>
<text text-anchor="middle" x="161.5" y="-266.3" font-family="Times,serif" font-size="14.00">gtk2</text>
</a>
</g>
</g>
<!-- cairo&#45;&gt;gtk2 -->
<g id="edge7" class="edge">
<title>cairo&#45;&gt;gtk2</title>
<path fill="none" stroke="black" d="M467.41,-403.88C438.75,-394.99 396.21,-379.89 362.5,-360 341.03,-347.33 341.47,-335.77 319.5,-324 269.67,-297.3 250.33,-308.13 197.5,-288 195.66,-287.3 193.78,-286.54 191.9,-285.75"/>
<polygon fill="black" stroke="black" points="193.15,-282.48 182.58,-281.62 190.31,-288.88 193.15,-282.48"/>
</g>
<!-- libical -->
<g id="node9" class="node">
<title>libical</title>
<g id="a_node9"><a xlink:href="https://github.com/conda-forge/libical-feedstock" xlink:title="libical">
<ellipse fill="#fde725" stroke="black" cx="868.5" cy="-270" rx="32.5" ry="18"/>
<text text-anchor="middle" x="868.5" y="-266.3" font-family="Times,serif" font-size="14.00">libical</text>
</a>
</g>
</g>
<!-- cairo&#45;&gt;libical -->
<g id="edge8" class="edge">
<title>cairo&#45;&gt;libical</title>
<path fill="none" stroke="black" d="M537.9,-411.65C591.81,-408.41 691.81,-397.39 767.5,-360 799.87,-344.01 829.96,-314.91 848.72,-294.34"/>
<polygon fill="black" stroke="black" points="851.54,-296.45 855.58,-286.65 846.31,-291.79 851.54,-296.45"/>
</g>
<!-- qgis -->
<g id="node10" class="node">
<title>qgis</title>
<g id="a_node10"><a xlink:href="https://github.com/conda-forge/qgis-feedstock" xlink:title="qgis">
<ellipse fill="#fde725" stroke="black" cx="161.5" cy="-198" rx="27" ry="18"/>
<text text-anchor="middle" x="161.5" y="-194.3" font-family="Times,serif" font-size="14.00">qgis</text>
</a>
</g>
</g>
<!-- gdal&#45;&gt;qgis -->
<g id="edge9" class="edge">
<title>gdal&#45;&gt;qgis</title>
<path fill="none" stroke="black" d="M70.66,-256.81C88.17,-245.67 114.26,-229.06 133.99,-216.5"/>
<polygon fill="black" stroke="black" points="136,-219.37 142.56,-211.05 132.24,-213.47 136,-219.37"/>
</g>
<!-- harfbuzz&#45;&gt;gdal -->
<g id="edge10" class="edge">
<title>harfbuzz&#45;&gt;gdal</title>
<path fill="none" stroke="black" d="M376.02,-334.03C358.82,-330.88 338.14,-327.16 319.5,-324 218.79,-306.91 190.81,-315.76 92.5,-288 89.31,-287.1 86.04,-286.02 82.8,-284.85"/>
<polygon fill="black" stroke="black" points="83.88,-281.52 73.29,-281.15 81.34,-288.04 83.88,-281.52"/>
</g>
<!-- harfbuzz&#45;&gt;octave -->
<g id="edge11" class="edge">
<title>harfbuzz&#45;&gt;octave</title>
<path fill="none" stroke="black" d="M423.75,-324.43C434.97,-306.43 453.61,-276.91 470.5,-252 476.95,-242.48 484.26,-232.18 490.74,-223.21"/>
<polygon fill="black" stroke="black" points="493.59,-225.23 496.64,-215.08 487.93,-221.12 493.59,-225.23"/>
</g>
<!-- harfbuzz&#45;&gt;r&#45;base -->
<g id="edge12" class="edge">
<title>harfbuzz&#45;&gt;r&#45;base</title>
<path fill="none" stroke="black" d="M445.27,-330.19C452.53,-327.94 460.24,-325.74 467.5,-324 519.51,-311.54 671.07,-288.15 744.58,-277.09"/>
<polygon fill="black" stroke="black" points="745.47,-280.5 754.84,-275.55 744.43,-273.57 745.47,-280.5"/>
</g>
<!-- harfbuzz&#45;&gt;texlive&#45;core -->
<g id="edge13" class="edge">
<title>harfbuzz&#45;&gt;texlive&#45;core</title>
<path fill="none" stroke="black" d="M444.67,-329.75C476.68,-318.2 526.81,-300.11 563,-287.06"/>
<polygon fill="black" stroke="black" points="564.59,-290.21 572.8,-283.52 562.21,-283.62 564.59,-290.21"/>
</g>
<!-- harfbuzz&#45;&gt;gtk2 -->
<g id="edge14" class="edge">
<title>harfbuzz&#45;&gt;gtk2</title>
<path fill="none" stroke="black" d="M381.04,-330.71C373.35,-328.39 365.16,-326.02 357.5,-324 287.02,-305.4 266.43,-311.71 197.5,-288 195.59,-287.34 193.64,-286.61 191.7,-285.84"/>
<polygon fill="black" stroke="black" points="192.68,-282.45 182.12,-281.68 189.9,-288.87 192.68,-282.45"/>
</g>
<!-- harfbuzz&#45;&gt;qgis -->
<g id="edge15" class="edge">
<title>harfbuzz&#45;&gt;qgis</title>
<path fill="none" stroke="black" d="M375.93,-334.16C298.01,-319.98 126,-288.6 125.5,-288 109.17,-268.39 125.25,-240.4 140.82,-221.06"/>
<polygon fill="black" stroke="black" points="143.56,-223.25 147.36,-213.36 138.22,-218.72 143.56,-223.25"/>
</g>
<!-- libgd -->
<g id="node11" class="node">
<title>libgd</title>
<g id="a_node11"><a xlink:href="https://github.com/conda-forge/libgd-feedstock" xlink:title="libgd">
<ellipse fill="#fde725" stroke="black" cx="508.5" cy="-270" rx="28.7" ry="18"/>
<text text-anchor="middle" x="508.5" y="-266.3" font-family="Times,serif" font-size="14.00">libgd</text>
</a>
</g>
</g>
<!-- harfbuzz&#45;&gt;libgd -->
<g id="edge16" class="edge">
<title>harfbuzz&#45;&gt;libgd</title>
<path fill="none" stroke="black" d="M433.65,-326.15C447.89,-315.66 467.12,-301.49 482.52,-290.14"/>
<polygon fill="black" stroke="black" points="484.65,-292.92 490.62,-284.17 480.5,-287.29 484.65,-292.92"/>
</g>
<!-- tectonic -->
<g id="node12" class="node">
<title>tectonic</title>
<g id="a_node12"><a xlink:href="https://github.com/conda-forge/tectonic-feedstock" xlink:title="tectonic">
<ellipse fill="#fde725" stroke="black" cx="245.5" cy="-270" rx="38.5" ry="18"/>
<text text-anchor="middle" x="245.5" y="-266.3" font-family="Times,serif" font-size="14.00">tectonic</text>
</a>
</g>
</g>
<!-- harfbuzz&#45;&gt;tectonic -->
<g id="edge17" class="edge">
<title>harfbuzz&#45;&gt;tectonic</title>
<path fill="none" stroke="black" d="M384.62,-328.97C356.43,-317.22 313.41,-299.3 282.68,-286.49"/>
<polygon fill="black" stroke="black" points="283.74,-283.14 273.17,-282.53 281.05,-289.61 283.74,-283.14"/>
</g>
<!-- qtwebkit -->
<g id="node13" class="node">
<title>qtwebkit</title>
<g id="a_node13"><a xlink:href="https://github.com/conda-forge/qtwebkit-feedstock" xlink:title="qtwebkit">
<ellipse fill="#fde725" stroke="black" cx="343.5" cy="-270" rx="41.69" ry="18"/>
<text text-anchor="middle" x="343.5" y="-266.3" font-family="Times,serif" font-size="14.00">qtwebkit</text>
</a>
</g>
</g>
<!-- harfbuzz&#45;&gt;qtwebkit -->
<g id="edge18" class="edge">
<title>harfbuzz&#45;&gt;qtwebkit</title>
<path fill="none" stroke="black" d="M397.62,-325.12C388.4,-315.9 376.63,-304.13 366.42,-293.92"/>
<polygon fill="black" stroke="black" points="368.87,-291.42 359.32,-286.82 363.92,-296.37 368.87,-291.42"/>
</g>
<!-- r&#45;stringi -->
<g id="node14" class="node">
<title>r&#45;stringi</title>
<g id="a_node14"><a xlink:href="https://github.com/conda-forge/r-stringi-feedstock" xlink:title="r stringi">
<ellipse fill="#fde725" stroke="black" cx="751.5" cy="-198" rx="38.5" ry="18"/>
<text text-anchor="middle" x="751.5" y="-194.3" font-family="Times,serif" font-size="14.00">r stringi</text>
</a>
</g>
</g>
<!-- r&#45;base&#45;&gt;r&#45;stringi -->
<g id="edge19" class="edge">
<title>r&#45;base&#45;&gt;r&#45;stringi</title>
<path fill="none" stroke="black" d="M777.44,-252.41C773.48,-244.25 768.61,-234.22 764.16,-225.07"/>
<polygon fill="black" stroke="black" points="767.25,-223.42 759.74,-215.96 760.96,-226.48 767.25,-223.42"/>
</g>
<!-- r&#45;v8 -->
<g id="node15" class="node">
<title>r&#45;v8</title>
<g id="a_node15"><a xlink:href="https://github.com/conda-forge/r-v8-feedstock" xlink:title="r v8">
<ellipse fill="#fde725" stroke="black" cx="818.5" cy="-126" rx="27" ry="18"/>
<text text-anchor="middle" x="818.5" y="-122.3" font-family="Times,serif" font-size="14.00">r v8</text>
</a>
</g>
</g>
<!-- r&#45;base&#45;&gt;r&#45;v8 -->
<g id="edge20" class="edge">
<title>r&#45;base&#45;&gt;r&#45;v8</title>
<path fill="none" stroke="black" d="M790.25,-251.87C793.06,-241.51 796.63,-228.03 799.5,-216 804.42,-195.38 809.4,-171.93 813.03,-154.28"/>
<polygon fill="black" stroke="black" points="816.53,-154.61 815.1,-144.12 809.67,-153.22 816.53,-154.61"/>
</g>
<!-- gtk2&#45;&gt;octave -->
<g id="edge21" class="edge">
<title>gtk2&#45;&gt;octave</title>
<path fill="none" stroke="black" d="M182.05,-258.12C187.01,-255.83 192.36,-253.62 197.5,-252 290.35,-222.77 404.16,-208.58 465.09,-202.64"/>
<polygon fill="black" stroke="black" points="465.49,-206.11 475.12,-201.69 464.83,-199.15 465.49,-206.11"/>
</g>
<!-- gtk2&#45;&gt;qgis -->
<g id="edge22" class="edge">
<title>gtk2&#45;&gt;qgis</title>
<path fill="none" stroke="black" d="M161.5,-251.7C161.5,-243.98 161.5,-234.71 161.5,-226.11"/>
<polygon fill="black" stroke="black" points="165,-226.1 161.5,-216.1 158,-226.1 165,-226.1"/>
</g>
<!-- libgd&#45;&gt;octave -->
<g id="edge23" class="edge">
<title>libgd&#45;&gt;octave</title>
<path fill="none" stroke="black" d="M508.5,-251.7C508.5,-243.98 508.5,-234.71 508.5,-226.11"/>
<polygon fill="black" stroke="black" points="512,-226.1 508.5,-216.1 505,-226.1 512,-226.1"/>
</g>
<!-- qtwebkit&#45;&gt;qgis -->
<g id="edge24" class="edge">
<title>qtwebkit&#45;&gt;qgis</title>
<path fill="none" stroke="black" d="M313.45,-257.44C280.46,-244.75 227.69,-224.46 193.83,-211.43"/>
<polygon fill="black" stroke="black" points="194.98,-208.13 184.39,-207.8 192.46,-214.66 194.98,-208.13"/>
</g>
<!-- igraph -->
<g id="node16" class="node">
<title>igraph</title>
<g id="a_node16"><a xlink:href="https://github.com/conda-forge/igraph-feedstock" xlink:title="igraph">
<ellipse fill="#ff8c00" stroke="black" cx="964.5" cy="-522" rx="33.29" ry="18"/>
<text text-anchor="middle" x="964.5" y="-518.3" font-family="Times,serif" font-size="14.00">igraph</text>
</a>
</g>
</g>
<!-- root5 -->
<g id="node17" class="node">
<title>root5</title>
<g id="a_node17"><a xlink:href="https://github.com/conda-forge/root5-feedstock" xlink:title="root5">
<ellipse fill="#ff8c00" stroke="black" cx="964.5" cy="-450" rx="29.5" ry="18"/>
<text text-anchor="middle" x="964.5" y="-446.3" font-family="Times,serif" font-size="14.00">root5</text>
</a>
</g>
</g>
<!-- igraph&#45;&gt;root5 -->
<!-- uwsgi -->
<g id="node19" class="node">
<title>uwsgi</title>
<g id="a_node19"><a xlink:href="https://github.com/conda-forge/uwsgi-feedstock/pull/41" xlink:title="uwsgi ❎">
<ellipse fill="#31688e" stroke="black" cx="964.5" cy="-378" rx="43.59" ry="18"/>
<text text-anchor="middle" x="964.5" y="-374.3" font-family="Times,serif" font-size="14.00" fill="white">uwsgi ❎</text>
</a>
</g>
</g>
<!-- root5&#45;&gt;uwsgi -->
<!-- qt -->
<g id="node18" class="node">
<title>qt</title>
<g id="a_node18"><a xlink:href="https://github.com/conda-forge/qt-feedstock/pull/178" xlink:title="qt ❎">
<ellipse fill="#31688e" stroke="black" cx="505.5" cy="-342" rx="29.5" ry="18"/>
<text text-anchor="middle" x="505.5" y="-338.3" font-family="Times,serif" font-size="14.00" fill="white">qt ❎</text>
</a>
</g>
</g>
<!-- qt&#45;&gt;gdal -->
<g id="edge26" class="edge">
<title>qt&#45;&gt;gdal</title>
<path fill="none" stroke="black" d="M482.91,-330.28C477.03,-327.86 470.62,-325.56 464.5,-324 317.67,-286.6 274.94,-313.01 125.5,-288 112.6,-285.84 98.58,-282.8 86.25,-279.89"/>
<polygon fill="black" stroke="black" points="86.9,-276.44 76.36,-277.49 85.25,-283.25 86.9,-276.44"/>
</g>
<!-- qt&#45;&gt;octave -->
<g id="edge27" class="edge">
<title>qt&#45;&gt;octave</title>
<path fill="none" stroke="black" d="M534.94,-341.09C572.96,-339.43 637.9,-330.13 668.5,-288 702.16,-241.66 609.18,-216.46 551.15,-205.6"/>
<polygon fill="black" stroke="black" points="551.57,-202.12 541.11,-203.8 550.33,-209.01 551.57,-202.12"/>
</g>
<!-- qt&#45;&gt;r&#45;base -->
<g id="edge28" class="edge">
<title>qt&#45;&gt;r&#45;base</title>
<path fill="none" stroke="black" d="M532.09,-334.35C581.8,-321.92 688.98,-295.13 746.74,-280.69"/>
<polygon fill="black" stroke="black" points="747.73,-284.05 756.59,-278.23 746.04,-277.26 747.73,-284.05"/>
</g>
<!-- qt&#45;&gt;texlive&#45;core -->
<g id="edge29" class="edge">
<title>qt&#45;&gt;texlive&#45;core</title>
<path fill="none" stroke="black" d="M524.21,-328.16C538.8,-318.14 559.39,-304.02 576.45,-292.31"/>
<polygon fill="black" stroke="black" points="578.73,-294.99 584.99,-286.45 574.77,-289.22 578.73,-294.99"/>
</g>
<!-- qt&#45;&gt;gtk2 -->
<g id="edge30" class="edge">
<title>qt&#45;&gt;gtk2</title>
<path fill="none" stroke="black" d="M482.88,-330.4C477,-327.98 470.6,-325.65 464.5,-324 348.89,-292.81 312.32,-321.96 197.5,-288 195.56,-287.43 193.6,-286.76 191.63,-286.04"/>
<polygon fill="black" stroke="black" points="192.59,-282.64 182.01,-282.01 189.89,-289.1 192.59,-282.64"/>
</g>
<!-- qt&#45;&gt;qgis -->
<g id="edge31" class="edge">
<title>qt&#45;&gt;qgis</title>
<path fill="none" stroke="black" d="M491.22,-325.89C471.43,-305.88 433.65,-270.9 394.5,-252 329.72,-220.73 245.81,-207.51 198.4,-202.23"/>
<polygon fill="black" stroke="black" points="198.6,-198.73 188.29,-201.16 197.87,-205.69 198.6,-198.73"/>
</g>
<!-- qt&#45;&gt;libgd -->
<g id="edge32" class="edge">
<title>qt&#45;&gt;libgd</title>
<path fill="none" stroke="black" d="M506.24,-323.7C506.57,-315.98 506.97,-306.71 507.34,-298.11"/>
<polygon fill="black" stroke="black" points="510.84,-298.25 507.77,-288.1 503.84,-297.95 510.84,-298.25"/>
</g>
<!-- qt&#45;&gt;qtwebkit -->
<g id="edge33" class="edge">
<title>qt&#45;&gt;qtwebkit</title>
<path fill="none" stroke="black" d="M482.29,-330.97C455.89,-319.56 412.39,-300.77 381.13,-287.26"/>
<polygon fill="black" stroke="black" points="382.42,-284 371.85,-283.25 379.64,-290.43 382.42,-284"/>
</g>
<!-- pyicu -->
<g id="node20" class="node">
<title>pyicu</title>
<g id="a_node20"><a xlink:href="https://github.com/conda-forge/pyicu-feedstock/pull/23" xlink:title="pyicu ❎">
<ellipse fill="#31688e" stroke="black" cx="964.5" cy="-306" rx="42.49" ry="18"/>
<text text-anchor="middle" x="964.5" y="-302.3" font-family="Times,serif" font-size="14.00" fill="white">pyicu ❎</text>
</a>
</g>
</g>
<!-- uwsgi&#45;&gt;pyicu -->
<!-- mdsplus -->
<g id="node22" class="node">
<title>mdsplus</title>
<g id="a_node22"><a xlink:href="https://github.com/conda-forge/mdsplus-feedstock/pull/18" xlink:title="mdsplus ✓">
<ellipse fill="#31688e" stroke="black" cx="964.5" cy="-234" rx="50.89" ry="18"/>
<text text-anchor="middle" x="964.5" y="-230.3" font-family="Times,serif" font-size="14.00" fill="white">mdsplus ✓</text>
</a>
</g>
</g>
<!-- pyicu&#45;&gt;mdsplus -->
<!-- xerces&#45;c -->
<g id="node21" class="node">
<title>xerces&#45;c</title>
<g id="a_node21"><a xlink:href="https://github.com/conda-forge/xerces-c-feedstock/pull/26" xlink:title="xerces c ❎">
<ellipse fill="#31688e" stroke="black" cx="51.5" cy="-342" rx="51.5" ry="18"/>
<text text-anchor="middle" x="51.5" y="-338.3" font-family="Times,serif" font-size="14.00" fill="white">xerces c ❎</text>
</a>
</g>
</g>
<!-- xerces&#45;c&#45;&gt;gdal -->
<g id="edge36" class="edge">
<title>xerces&#45;c&#45;&gt;gdal</title>
<path fill="none" stroke="black" d="M51.5,-323.7C51.5,-315.98 51.5,-306.71 51.5,-298.11"/>
<polygon fill="black" stroke="black" points="55,-298.1 51.5,-288.1 48,-298.1 55,-298.1"/>
</g>
<!-- ticcutils -->
<g id="node23" class="node">
<title>ticcutils</title>
<g id="a_node23"><a xlink:href="https://github.com/conda-forge/ticcutils-feedstock/pull/13" xlink:title="ticcutils ✓">
<ellipse fill="#31688e" stroke="black" cx="964.5" cy="-162" rx="48.99" ry="18"/>
<text text-anchor="middle" x="964.5" y="-158.3" font-family="Times,serif" font-size="14.00" fill="white">ticcutils ✓</text>
</a>
</g>
</g>
<!-- mdsplus&#45;&gt;ticcutils -->
<!-- mongodb -->
<g id="node24" class="node">
<title>mongodb</title>
<g id="a_node24"><a xlink:href="https://github.com/conda-forge/mongodb-feedstock/pull/17" xlink:title="mongodb ❎">
<ellipse fill="#31688e" stroke="black" cx="964.5" cy="-90" rx="56" ry="18"/>
<text text-anchor="middle" x="964.5" y="-86.3" font-family="Times,serif" font-size="14.00" fill="white">mongodb ❎</text>
</a>
</g>
</g>
<!-- ticcutils&#45;&gt;mongodb -->
<!-- scilab -->
<g id="node25" class="node">
<title>scilab</title>
<g id="a_node25"><a xlink:href="https://github.com/conda-forge/scilab-feedstock/pull/20" xlink:title="scilab ❎">
<ellipse fill="#31688e" stroke="black" cx="964.5" cy="-18" rx="43" ry="18"/>
<text text-anchor="middle" x="964.5" y="-14.3" font-family="Times,serif" font-size="14.00" fill="white">scilab ❎</text>
</a>
</g>
</g>
<!-- mongodb&#45;&gt;scilab -->
</g>
</svg>
