<?xml version="1.0" encoding="UTF-8" standalone="no"?>
<!DOCTYPE svg PUBLIC "-//W3C//DTD SVG 1.1//EN"
 "http://www.w3.org/Graphics/SVG/1.1/DTD/svg11.dtd">
<!-- Generated by graphviz version 2.50.0 (20220117.2223)
 -->
<!-- Pages: 1 -->
<svg width="417pt" height="160pt"
 viewBox="0.00 0.00 416.54 160.00" xmlns="http://www.w3.org/2000/svg" xmlns:xlink="http://www.w3.org/1999/xlink">
<g id="graph0" class="graph" transform="scale(1 1) rotate(0) translate(4 156)">
<polygon fill="white" stroke="transparent" points="-4,4 -4,-156 412.54,-156 412.54,4 -4,4"/>
<!-- octave -->
<g id="node1" class="node">
<title>octave</title>
<g id="a_node1"><a xlink:href="https://github.com/conda-forge/octave-feedstock" xlink:title="octave">
<ellipse fill="#fde725" stroke="black" cx="40.95" cy="-62" rx="40.89" ry="18"/>
<text text-anchor="middle" x="40.95" y="-58.3" font-family="Times,serif" font-size="14.00">octave</text>
</a>
</g>
</g>
<!-- qgis -->
<g id="node2" class="node">
<title>qgis</title>
<g id="a_node2"><a xlink:href="https://github.com/conda-forge/qgis-feedstock" xlink:title="qgis">
<ellipse fill="#fde725" stroke="black" cx="129.95" cy="-62" rx="30.59" ry="18"/>
<text text-anchor="middle" x="129.95" y="-58.3" font-family="Times,serif" font-size="14.00">qgis</text>
</a>
</g>
</g>
<!-- qt -->
<g id="node3" class="node">
<title>qt</title>
<g id="a_node3"><a xlink:href="https://github.com/conda-forge/qt-feedstock/pull/207" xlink:title="qt ❎">
<ellipse fill="#31688e" stroke="black" cx="84.95" cy="-134" rx="34.39" ry="18"/>
<text text-anchor="middle" x="84.95" y="-130.3" font-family="Times,serif" font-size="14.00" fill="white">qt ❎</text>
</a>
</g>
</g>
<!-- qt&#45;&gt;octave -->
<g id="edge1" class="edge">
<title>qt&#45;&gt;octave</title>
<path fill="none" stroke="black" d="M74.74,-116.76C69.43,-108.32 62.82,-97.8 56.86,-88.31"/>
<polygon fill="black" stroke="black" points="59.69,-86.24 51.4,-79.63 53.76,-89.96 59.69,-86.24"/>
</g>
<!-- qt&#45;&gt;qgis -->
<g id="edge2" class="edge">
<title>qt&#45;&gt;qgis</title>
<path fill="none" stroke="black" d="M95.38,-116.76C100.95,-108.11 107.91,-97.27 114.13,-87.6"/>
<polygon fill="black" stroke="black" points="117.1,-89.45 119.57,-79.15 111.21,-85.67 117.1,-89.45"/>
</g>
<!-- pyicu -->
<g id="node4" class="node">
<title>pyicu</title>
<g id="a_node4"><a xlink:href="https://github.com/conda-forge/pyicu-feedstock/pull/34" xlink:title="pyicu ✓">
<ellipse fill="#31688e" stroke="black" cx="216.95" cy="-18" rx="42.79" ry="18"/>
<text text-anchor="middle" x="216.95" y="-14.3" font-family="Times,serif" font-size="14.00" fill="white">pyicu ✓</text>
</a>
</g>
</g>
<!-- scilab -->
<g id="node5" class="node">
<title>scilab</title>
<g id="a_node5"><a xlink:href="https://github.com/conda-forge/scilab-feedstock/pull/26" xlink:title="scilab ❎">
<ellipse fill="#31688e" stroke="black" cx="80.95" cy="-18" rx="51.99" ry="18"/>
<text text-anchor="middle" x="80.95" y="-14.3" font-family="Times,serif" font-size="14.00" fill="white">scilab ❎</text>
</a>
</g>
</g>
<!-- libv8 -->
<g id="node6" class="node">
<title>libv8</title>
<g id="a_node6"><a xlink:href="https://github.com/conda-forge/libv8-feedstock/pull/71" xlink:title="libv8 ❎">
<ellipse fill="#31688e" stroke="black" cx="216.95" cy="-134" rx="48.19" ry="18"/>
<text text-anchor="middle" x="216.95" y="-130.3" font-family="Times,serif" font-size="14.00" fill="white">libv8 ❎</text>
</a>
</g>
</g>
<!-- r&#45;v8 -->
<g id="node7" class="node">
<title>r&#45;v8</title>
<g id="a_node7"><a xlink:href="https://github.com/conda-forge/r-v8-feedstock" xlink:title="r v8">
<ellipse fill="#fde725" stroke="black" cx="216.95" cy="-62" rx="29.5" ry="18"/>
<text text-anchor="middle" x="216.95" y="-58.3" font-family="Times,serif" font-size="14.00">r v8</text>
</a>
</g>
</g>
<!-- libv8&#45;&gt;r&#45;v8 -->
<g id="edge3" class="edge">
<title>libv8&#45;&gt;r&#45;v8</title>
<path fill="none" stroke="black" d="M216.95,-115.7C216.95,-107.98 216.95,-98.71 216.95,-90.11"/>
<polygon fill="black" stroke="black" points="220.45,-90.1 216.95,-80.1 213.45,-90.1 220.45,-90.1"/>
</g>
<!-- libxmlsec1 -->
<g id="node8" class="node">
<title>libxmlsec1</title>
<g id="a_node8"><a xlink:href="https://github.com/conda-forge/libxmlsec1-feedstock/pull/5" xlink:title="libxmlsec1 ✓">
<ellipse fill="#31688e" stroke="black" cx="340.95" cy="-98" rx="67.69" ry="18"/>
<text text-anchor="middle" x="340.95" y="-94.3" font-family="Times,serif" font-size="14.00" fill="white">libxmlsec1 ✓</text>
</a>
</g>
</g>
</g>
</svg>
