<?xml version="1.0" encoding="UTF-8" standalone="no"?>
<!DOCTYPE svg PUBLIC "-//W3C//DTD SVG 1.1//EN"
 "http://www.w3.org/Graphics/SVG/1.1/DTD/svg11.dtd">
<!-- Generated by graphviz version 2.49.3 (20211104.1129)
 -->
<!-- Pages: 1 -->
<svg width="768pt" height="476pt"
 viewBox="0.00 0.00 767.60 476.00" xmlns="http://www.w3.org/2000/svg" xmlns:xlink="http://www.w3.org/1999/xlink">
<g id="graph0" class="graph" transform="scale(1 1) rotate(0) translate(4 472)">
<polygon fill="white" stroke="transparent" points="-4,4 -4,-472 763.6,-472 763.6,4 -4,4"/>
<!-- libxslt -->
<g id="node1" class="node">
<title>libxslt</title>
<g id="a_node1"><a xlink:href="https://github.com/conda-forge/libxslt-feedstock/pull/23" xlink:title="libxslt ❎">
<ellipse fill="#31688e" stroke="black" cx="283.5" cy="-306" rx="54" ry="18"/>
<text text-anchor="middle" x="283.5" y="-302.3" font-family="Times,serif" font-size="14.00" fill="white">libxslt ❎</text>
</a>
</g>
</g>
<!-- qtwebkit -->
<g id="node2" class="node">
<title>qtwebkit</title>
<g id="a_node2"><a xlink:href="https://github.com/conda-forge/qtwebkit-feedstock" xlink:title="qtwebkit">
<ellipse fill="#fde725" stroke="black" cx="358.5" cy="-234" rx="52" ry="18"/>
<text text-anchor="middle" x="358.5" y="-230.3" font-family="Times,serif" font-size="14.00">qtwebkit</text>
</a>
</g>
</g>
<!-- libxslt&#45;&gt;qtwebkit -->
<g id="edge1" class="edge">
<title>libxslt&#45;&gt;qtwebkit</title>
<path fill="none" stroke="black" d="M300.9,-288.76C310.64,-279.66 322.97,-268.16 333.71,-258.13"/>
<polygon fill="black" stroke="black" points="336.28,-260.53 341.2,-251.15 331.5,-255.41 336.28,-260.53"/>
</g>
<!-- libxmlsec1 -->
<g id="node3" class="node">
<title>libxmlsec1</title>
<g id="a_node3"><a xlink:href="https://github.com/conda-forge/libxmlsec1-feedstock" xlink:title="libxmlsec1">
<ellipse fill="#fde725" stroke="black" cx="227.5" cy="-234" rx="60.5" ry="18"/>
<text text-anchor="middle" x="227.5" y="-230.3" font-family="Times,serif" font-size="14.00">libxmlsec1</text>
</a>
</g>
</g>
<!-- libxslt&#45;&gt;libxmlsec1 -->
<g id="edge2" class="edge">
<title>libxslt&#45;&gt;libxmlsec1</title>
<path fill="none" stroke="black" d="M270.23,-288.41C263.42,-279.91 255,-269.37 247.43,-259.91"/>
<polygon fill="black" stroke="black" points="250.05,-257.58 241.06,-251.96 244.58,-261.95 250.05,-257.58"/>
</g>
<!-- qgis -->
<g id="node4" class="node">
<title>qgis</title>
<g id="a_node4"><a xlink:href="https://github.com/conda-forge/qgis-feedstock" xlink:title="qgis">
<ellipse fill="#fde725" stroke="black" cx="398.5" cy="-162" rx="30.59" ry="18"/>
<text text-anchor="middle" x="398.5" y="-158.3" font-family="Times,serif" font-size="14.00">qgis</text>
</a>
</g>
</g>
<!-- qtwebkit&#45;&gt;qgis -->
<g id="edge3" class="edge">
<title>qtwebkit&#45;&gt;qgis</title>
<path fill="none" stroke="black" d="M368.18,-216.05C372.97,-207.68 378.84,-197.4 384.14,-188.13"/>
<polygon fill="black" stroke="black" points="387.26,-189.73 389.18,-179.31 381.18,-186.25 387.26,-189.73"/>
</g>
<!-- nodejs -->
<g id="node5" class="node">
<title>nodejs</title>
<g id="a_node5"><a xlink:href="https://github.com/conda-forge/nodejs-feedstock/pull/218" xlink:title="nodejs ✓">
<ellipse fill="#31688e" stroke="black" cx="79.5" cy="-450" rx="48.19" ry="18"/>
<text text-anchor="middle" x="79.5" y="-446.3" font-family="Times,serif" font-size="14.00" fill="white">nodejs ✓</text>
</a>
</g>
</g>
<!-- root5 -->
<g id="node6" class="node">
<title>root5</title>
<g id="a_node6"><a xlink:href="https://github.com/conda-forge/root5-feedstock" xlink:title="root5">
<ellipse fill="#ff8c00" stroke="black" cx="79.5" cy="-378" rx="36" ry="18"/>
<text text-anchor="middle" x="79.5" y="-374.3" font-family="Times,serif" font-size="14.00">root5</text>
</a>
</g>
</g>
<!-- nodejs&#45;&gt;root5 -->
<!-- texlive&#45;core -->
<g id="node12" class="node">
<title>texlive&#45;core</title>
<g id="a_node12"><a xlink:href="https://github.com/conda-forge/texlive-core-feedstock/pull/54" xlink:title="texlive core ❎">
<ellipse fill="#31688e" stroke="black" cx="79.5" cy="-306" rx="79.5" ry="18"/>
<text text-anchor="middle" x="79.5" y="-302.3" font-family="Times,serif" font-size="14.00" fill="white">texlive core ❎</text>
</a>
</g>
</g>
<!-- root5&#45;&gt;texlive&#45;core -->
<!-- octave -->
<g id="node7" class="node">
<title>octave</title>
<g id="a_node7"><a xlink:href="https://github.com/conda-forge/octave-feedstock" xlink:title="octave">
<ellipse fill="#fde725" stroke="black" cx="507.5" cy="-234" rx="41" ry="18"/>
<text text-anchor="middle" x="507.5" y="-230.3" font-family="Times,serif" font-size="14.00">octave</text>
</a>
</g>
</g>
<!-- qt -->
<g id="node8" class="node">
<title>qt</title>
<g id="a_node8"><a xlink:href="https://github.com/conda-forge/qt-feedstock" xlink:title="qt">
<ellipse fill="#ff8c00" stroke="black" cx="438.5" cy="-306" rx="27" ry="18"/>
<text text-anchor="middle" x="438.5" y="-302.3" font-family="Times,serif" font-size="14.00">qt</text>
</a>
</g>
</g>
<!-- qt&#45;&gt;qtwebkit -->
<g id="edge5" class="edge">
<title>qt&#45;&gt;qtwebkit</title>
<path fill="none" stroke="black" d="M422.69,-291.17C411.76,-281.6 396.96,-268.65 384.32,-257.6"/>
<polygon fill="black" stroke="black" points="386.62,-254.96 376.79,-251.01 382.01,-260.23 386.62,-254.96"/>
</g>
<!-- qt&#45;&gt;qgis -->
<g id="edge7" class="edge">
<title>qt&#45;&gt;qgis</title>
<path fill="none" stroke="black" d="M435.75,-288.06C432.62,-269.99 426.96,-240.65 419.5,-216 416.82,-207.15 413.3,-197.7 409.91,-189.26"/>
<polygon fill="black" stroke="black" points="413.1,-187.83 406.05,-179.93 406.64,-190.51 413.1,-187.83"/>
</g>
<!-- qt&#45;&gt;octave -->
<g id="edge6" class="edge">
<title>qt&#45;&gt;octave</title>
<path fill="none" stroke="black" d="M452.8,-290.5C461.94,-281.22 474.02,-268.97 484.5,-258.34"/>
<polygon fill="black" stroke="black" points="487.25,-260.53 491.78,-250.95 482.27,-255.61 487.25,-260.53"/>
</g>
<!-- r&#45;base -->
<g id="node9" class="node">
<title>r&#45;base</title>
<g id="a_node9"><a xlink:href="https://github.com/conda-forge/r-base-feedstock" xlink:title="r base">
<ellipse fill="#ff8c00" stroke="black" cx="605.5" cy="-270" rx="39.79" ry="18"/>
<text text-anchor="middle" x="605.5" y="-266.3" font-family="Times,serif" font-size="14.00">r base</text>
</a>
</g>
</g>
<!-- r&#45;stringi -->
<g id="node10" class="node">
<title>r&#45;stringi</title>
<g id="a_node10"><a xlink:href="https://github.com/conda-forge/r-stringi-feedstock" xlink:title="r stringi">
<ellipse fill="#fde725" stroke="black" cx="605.5" cy="-198" rx="48.99" ry="18"/>
<text text-anchor="middle" x="605.5" y="-194.3" font-family="Times,serif" font-size="14.00">r stringi</text>
</a>
</g>
</g>
<!-- r&#45;base&#45;&gt;r&#45;stringi -->
<g id="edge8" class="edge">
<title>r&#45;base&#45;&gt;r&#45;stringi</title>
<path fill="none" stroke="black" d="M605.5,-251.7C605.5,-243.98 605.5,-234.71 605.5,-226.11"/>
<polygon fill="black" stroke="black" points="609,-226.1 605.5,-216.1 602,-226.1 609,-226.1"/>
</g>
<!-- r&#45;v8 -->
<g id="node11" class="node">
<title>r&#45;v8</title>
<g id="a_node11"><a xlink:href="https://github.com/conda-forge/r-v8-feedstock" xlink:title="r v8">
<ellipse fill="#fde725" stroke="black" cx="706.5" cy="-198" rx="29.5" ry="18"/>
<text text-anchor="middle" x="706.5" y="-194.3" font-family="Times,serif" font-size="14.00">r v8</text>
</a>
</g>
</g>
<!-- r&#45;base&#45;&gt;r&#45;v8 -->
<g id="edge9" class="edge">
<title>r&#45;base&#45;&gt;r&#45;v8</title>
<path fill="none" stroke="black" d="M626.43,-254.5C641.78,-243.86 662.76,-229.32 679.39,-217.79"/>
<polygon fill="black" stroke="black" points="681.42,-220.64 687.64,-212.07 677.43,-214.89 681.42,-220.64"/>
</g>
<!-- pyicu -->
<g id="node13" class="node">
<title>pyicu</title>
<g id="a_node13"><a xlink:href="https://github.com/conda-forge/pyicu-feedstock/pull/30" xlink:title="pyicu ❎">
<ellipse fill="#31688e" stroke="black" cx="79.5" cy="-234" rx="50.09" ry="18"/>
<text text-anchor="middle" x="79.5" y="-230.3" font-family="Times,serif" font-size="14.00" fill="white">pyicu ❎</text>
</a>
</g>
</g>
<!-- texlive&#45;core&#45;&gt;pyicu -->
<!-- tensorflow -->
<g id="node14" class="node">
<title>tensorflow</title>
<g id="a_node14"><a xlink:href="https://github.com/conda-forge/tensorflow-feedstock/pull/165" xlink:title="tensorflow ❎">
<ellipse fill="#31688e" stroke="black" cx="79.5" cy="-162" rx="73.5" ry="18"/>
<text text-anchor="middle" x="79.5" y="-158.3" font-family="Times,serif" font-size="14.00" fill="white">tensorflow ❎</text>
</a>
</g>
</g>
<!-- pyicu&#45;&gt;tensorflow -->
<!-- scilab -->
<g id="node15" class="node">
<title>scilab</title>
<g id="a_node15"><a xlink:href="https://github.com/conda-forge/scilab-feedstock/pull/26" xlink:title="scilab ❎">
<ellipse fill="#31688e" stroke="black" cx="79.5" cy="-90" rx="52" ry="18"/>
<text text-anchor="middle" x="79.5" y="-86.3" font-family="Times,serif" font-size="14.00" fill="white">scilab ❎</text>
</a>
</g>
</g>
<!-- tensorflow&#45;&gt;scilab -->
<!-- libical -->
<g id="node16" class="node">
<title>libical</title>
<g id="a_node16"><a xlink:href="https://github.com/conda-forge/libical-feedstock/pull/16" xlink:title="libical ✓">
<ellipse fill="#31688e" stroke="black" cx="79.5" cy="-18" rx="46.29" ry="18"/>
<text text-anchor="middle" x="79.5" y="-14.3" font-family="Times,serif" font-size="14.00" fill="white">libical ✓</text>
</a>
</g>
</g>
<!-- scilab&#45;&gt;libical -->
<!-- libv8 -->
<g id="node17" class="node">
<title>libv8</title>
<g id="a_node17"><a xlink:href="https://github.com/conda-forge/libv8-feedstock/pull/71" xlink:title="libv8 ❎">
<ellipse fill="#31688e" stroke="black" cx="711.5" cy="-270" rx="48.19" ry="18"/>
<text text-anchor="middle" x="711.5" y="-266.3" font-family="Times,serif" font-size="14.00" fill="white">libv8 ❎</text>
</a>
</g>
</g>
<!-- libv8&#45;&gt;r&#45;v8 -->
<g id="edge15" class="edge">
<title>libv8&#45;&gt;r&#45;v8</title>
<path fill="none" stroke="black" d="M710.26,-251.7C709.71,-243.98 709.05,-234.71 708.44,-226.11"/>
<polygon fill="black" stroke="black" points="711.93,-225.83 707.72,-216.1 704.94,-226.33 711.93,-225.83"/>
</g>
</g>
</svg>
