<?xml version="1.0" encoding="UTF-8" standalone="no"?>
<!DOCTYPE svg PUBLIC "-//W3C//DTD SVG 1.1//EN"
 "http://www.w3.org/Graphics/SVG/1.1/DTD/svg11.dtd">
<!-- Generated by graphviz version 2.49.1 (20211004.0028)
 -->
<!-- Pages: 1 -->
<svg width="1656pt" height="404pt"
 viewBox="0.00 0.00 1655.50 404.00" xmlns="http://www.w3.org/2000/svg" xmlns:xlink="http://www.w3.org/1999/xlink">
<g id="graph0" class="graph" transform="scale(1 1) rotate(0) translate(4 400)">
<polygon fill="white" stroke="transparent" points="-4,4 -4,-400 1651.5,-400 1651.5,4 -4,4"/>
<!-- boost&#45;cpp -->
<g id="node1" class="node">
<title>boost&#45;cpp</title>
<g id="a_node1"><a xlink:href="https://github.com/conda-forge/boost-cpp-feedstock" xlink:title="boost cpp">
<ellipse fill="#35b779" stroke="black" cx="326.5" cy="-306" rx="56" ry="18"/>
<text text-anchor="middle" x="326.5" y="-302.3" font-family="Times,serif" font-size="14.00">boost cpp</text>
</a>
</g>
</g>
<!-- gdal -->
<g id="node2" class="node">
<title>gdal</title>
<g id="a_node2"><a xlink:href="https://github.com/conda-forge/gdal-feedstock" xlink:title="gdal">
<ellipse fill="#fde725" stroke="black" cx="499.5" cy="-234" rx="30.59" ry="18"/>
<text text-anchor="middle" x="499.5" y="-230.3" font-family="Times,serif" font-size="14.00">gdal</text>
</a>
</g>
</g>
<!-- boost&#45;cpp&#45;&gt;gdal -->
<g id="edge1" class="edge">
<title>boost&#45;cpp&#45;&gt;gdal</title>
<path fill="none" stroke="black" d="M359.86,-291.5C390.25,-279.21 434.92,-261.13 465.51,-248.75"/>
<polygon fill="black" stroke="black" points="466.95,-251.95 474.91,-244.95 464.33,-245.46 466.95,-251.95"/>
</g>
<!-- texlive&#45;core -->
<g id="node3" class="node">
<title>texlive&#45;core</title>
<g id="a_node3"><a xlink:href="https://github.com/conda-forge/texlive-core-feedstock" xlink:title="texlive core">
<ellipse fill="#fde725" stroke="black" cx="1254.5" cy="-234" rx="65" ry="18"/>
<text text-anchor="middle" x="1254.5" y="-230.3" font-family="Times,serif" font-size="14.00">texlive core</text>
</a>
</g>
</g>
<!-- boost&#45;cpp&#45;&gt;texlive&#45;core -->
<g id="edge2" class="edge">
<title>boost&#45;cpp&#45;&gt;texlive&#45;core</title>
<path fill="none" stroke="black" d="M366.1,-293.23C374.42,-291.16 383.2,-289.26 391.5,-288 738.55,-235.3 832.7,-299.49 1180.5,-252 1186.36,-251.2 1192.43,-250.16 1198.47,-248.99"/>
<polygon fill="black" stroke="black" points="1199.47,-252.35 1208.55,-246.9 1198.05,-245.5 1199.47,-252.35"/>
</g>
<!-- mongodb -->
<g id="node4" class="node">
<title>mongodb</title>
<g id="a_node4"><a xlink:href="https://github.com/conda-forge/mongodb-feedstock" xlink:title="mongodb">
<ellipse fill="#fde725" stroke="black" cx="325.5" cy="-234" rx="54" ry="18"/>
<text text-anchor="middle" x="325.5" y="-230.3" font-family="Times,serif" font-size="14.00">mongodb</text>
</a>
</g>
</g>
<!-- boost&#45;cpp&#45;&gt;mongodb -->
<g id="edge3" class="edge">
<title>boost&#45;cpp&#45;&gt;mongodb</title>
<path fill="none" stroke="black" d="M326.25,-287.7C326.14,-279.98 326.01,-270.71 325.89,-262.11"/>
<polygon fill="black" stroke="black" points="329.39,-262.05 325.74,-252.1 322.39,-262.15 329.39,-262.05"/>
</g>
<!-- odil -->
<g id="node5" class="node">
<title>odil</title>
<g id="a_node5"><a xlink:href="https://github.com/conda-forge/odil-feedstock" xlink:title="odil">
<ellipse fill="#fde725" stroke="black" cx="407.5" cy="-162" rx="28" ry="18"/>
<text text-anchor="middle" x="407.5" y="-158.3" font-family="Times,serif" font-size="14.00">odil</text>
</a>
</g>
</g>
<!-- boost&#45;cpp&#45;&gt;odil -->
<g id="edge4" class="edge">
<title>boost&#45;cpp&#45;&gt;odil</title>
<path fill="none" stroke="black" d="M351.17,-289.74C364.21,-280.41 379.37,-267.33 388.5,-252 399.65,-233.27 404.3,-208.89 406.22,-190.38"/>
<polygon fill="black" stroke="black" points="409.72,-190.51 407.06,-180.25 402.74,-189.93 409.72,-190.51"/>
</g>
<!-- qgis -->
<g id="node6" class="node">
<title>qgis</title>
<g id="a_node6"><a xlink:href="https://github.com/conda-forge/qgis-feedstock" xlink:title="qgis">
<ellipse fill="#fde725" stroke="black" cx="711.5" cy="-162" rx="30.59" ry="18"/>
<text text-anchor="middle" x="711.5" y="-158.3" font-family="Times,serif" font-size="14.00">qgis</text>
</a>
</g>
</g>
<!-- gdal&#45;&gt;qgis -->
<g id="edge5" class="edge">
<title>gdal&#45;&gt;qgis</title>
<path fill="none" stroke="black" d="M525.5,-224.42C563.16,-211.98 633.06,-188.9 675.61,-174.85"/>
<polygon fill="black" stroke="black" points="676.89,-178.11 685.29,-171.65 674.7,-171.47 676.89,-178.11"/>
</g>
<!-- cairo -->
<g id="node7" class="node">
<title>cairo</title>
<g id="a_node7"><a xlink:href="https://github.com/conda-forge/cairo-feedstock" xlink:title="cairo">
<ellipse fill="#35b779" stroke="black" cx="1213.5" cy="-378" rx="34" ry="18"/>
<text text-anchor="middle" x="1213.5" y="-374.3" font-family="Times,serif" font-size="14.00">cairo</text>
</a>
</g>
</g>
<!-- cairo&#45;&gt;texlive&#45;core -->
<g id="edge6" class="edge">
<title>cairo&#45;&gt;texlive&#45;core</title>
<path fill="none" stroke="black" d="M1244.16,-370.05C1267.95,-362.88 1299.34,-349.08 1314.5,-324 1322.78,-310.31 1321.08,-302.59 1314.5,-288 1309,-275.8 1299.15,-265.28 1289,-256.91"/>
<polygon fill="black" stroke="black" points="1290.94,-253.98 1280.88,-250.66 1286.67,-259.53 1290.94,-253.98"/>
</g>
<!-- harfbuzz -->
<g id="node8" class="node">
<title>harfbuzz</title>
<g id="a_node8"><a xlink:href="https://github.com/conda-forge/harfbuzz-feedstock" xlink:title="harfbuzz">
<ellipse fill="#fde725" stroke="black" cx="1253.5" cy="-306" rx="51.5" ry="18"/>
<text text-anchor="middle" x="1253.5" y="-302.3" font-family="Times,serif" font-size="14.00">harfbuzz</text>
</a>
</g>
</g>
<!-- cairo&#45;&gt;harfbuzz -->
<g id="edge7" class="edge">
<title>cairo&#45;&gt;harfbuzz</title>
<path fill="none" stroke="black" d="M1222.98,-360.41C1227.69,-352.16 1233.49,-342.01 1238.77,-332.78"/>
<polygon fill="black" stroke="black" points="1241.89,-334.38 1243.81,-323.96 1235.81,-330.9 1241.89,-334.38"/>
</g>
<!-- octave -->
<g id="node9" class="node">
<title>octave</title>
<g id="a_node9"><a xlink:href="https://github.com/conda-forge/octave-feedstock" xlink:title="octave">
<ellipse fill="#fde725" stroke="black" cx="1032.5" cy="-234" rx="41" ry="18"/>
<text text-anchor="middle" x="1032.5" y="-230.3" font-family="Times,serif" font-size="14.00">octave</text>
</a>
</g>
</g>
<!-- cairo&#45;&gt;octave -->
<g id="edge8" class="edge">
<title>cairo&#45;&gt;octave</title>
<path fill="none" stroke="black" d="M1195.15,-362.6C1163.15,-337.5 1096.99,-285.6 1059.66,-256.31"/>
<polygon fill="black" stroke="black" points="1061.74,-253.49 1051.72,-250.08 1057.42,-259 1061.74,-253.49"/>
</g>
<!-- r&#45;base -->
<g id="node10" class="node">
<title>r&#45;base</title>
<g id="a_node10"><a xlink:href="https://github.com/conda-forge/r-base-feedstock" xlink:title="r base">
<ellipse fill="#fde725" stroke="black" cx="1131.5" cy="-234" rx="39.79" ry="18"/>
<text text-anchor="middle" x="1131.5" y="-230.3" font-family="Times,serif" font-size="14.00">r base</text>
</a>
</g>
</g>
<!-- cairo&#45;&gt;r&#45;base -->
<g id="edge9" class="edge">
<title>cairo&#45;&gt;r&#45;base</title>
<path fill="none" stroke="black" d="M1203.93,-360.43C1189.75,-335.88 1163.03,-289.6 1146.31,-260.65"/>
<polygon fill="black" stroke="black" points="1149.29,-258.81 1141.26,-251.9 1143.23,-262.31 1149.29,-258.81"/>
</g>
<!-- harfbuzz&#45;&gt;texlive&#45;core -->
<g id="edge10" class="edge">
<title>harfbuzz&#45;&gt;texlive&#45;core</title>
<path fill="none" stroke="black" d="M1253.75,-287.7C1253.86,-279.98 1253.99,-270.71 1254.11,-262.11"/>
<polygon fill="black" stroke="black" points="1257.61,-262.15 1254.26,-252.1 1250.61,-262.05 1257.61,-262.15"/>
</g>
<!-- harfbuzz&#45;&gt;octave -->
<g id="edge11" class="edge">
<title>harfbuzz&#45;&gt;octave</title>
<path fill="none" stroke="black" d="M1215.71,-293.61C1181,-283.07 1128.17,-266.84 1082.5,-252 1079.54,-251.04 1076.49,-250.04 1073.43,-249.02"/>
<polygon fill="black" stroke="black" points="1074.26,-245.6 1063.66,-245.74 1072.03,-252.24 1074.26,-245.6"/>
</g>
<!-- harfbuzz&#45;&gt;r&#45;base -->
<g id="edge12" class="edge">
<title>harfbuzz&#45;&gt;r&#45;base</title>
<path fill="none" stroke="black" d="M1227.92,-290.33C1209.38,-279.69 1184.16,-265.22 1164.16,-253.74"/>
<polygon fill="black" stroke="black" points="1165.8,-250.64 1155.38,-248.7 1162.32,-256.72 1165.8,-250.64"/>
</g>
<!-- tectonic -->
<g id="node11" class="node">
<title>tectonic</title>
<g id="a_node11"><a xlink:href="https://github.com/conda-forge/tectonic-feedstock" xlink:title="tectonic">
<ellipse fill="#fde725" stroke="black" cx="1385.5" cy="-234" rx="48.19" ry="18"/>
<text text-anchor="middle" x="1385.5" y="-230.3" font-family="Times,serif" font-size="14.00">tectonic</text>
</a>
</g>
</g>
<!-- harfbuzz&#45;&gt;tectonic -->
<g id="edge13" class="edge">
<title>harfbuzz&#45;&gt;tectonic</title>
<path fill="none" stroke="black" d="M1280.53,-290.67C1300.59,-280.03 1328.14,-265.42 1349.98,-253.83"/>
<polygon fill="black" stroke="black" points="1351.76,-256.85 1358.96,-249.08 1348.48,-250.67 1351.76,-256.85"/>
</g>
<!-- r&#45;stringi -->
<g id="node12" class="node">
<title>r&#45;stringi</title>
<g id="a_node12"><a xlink:href="https://github.com/conda-forge/r-stringi-feedstock" xlink:title="r stringi">
<ellipse fill="#fde725" stroke="black" cx="1131.5" cy="-162" rx="48.99" ry="18"/>
<text text-anchor="middle" x="1131.5" y="-158.3" font-family="Times,serif" font-size="14.00">r stringi</text>
</a>
</g>
</g>
<!-- r&#45;base&#45;&gt;r&#45;stringi -->
<g id="edge14" class="edge">
<title>r&#45;base&#45;&gt;r&#45;stringi</title>
<path fill="none" stroke="black" d="M1131.5,-215.7C1131.5,-207.98 1131.5,-198.71 1131.5,-190.11"/>
<polygon fill="black" stroke="black" points="1135,-190.1 1131.5,-180.1 1128,-190.1 1135,-190.1"/>
</g>
<!-- r&#45;v8 -->
<g id="node13" class="node">
<title>r&#45;v8</title>
<g id="a_node13"><a xlink:href="https://github.com/conda-forge/r-v8-feedstock" xlink:title="r v8">
<ellipse fill="#fde725" stroke="black" cx="1356.5" cy="-162" rx="29.5" ry="18"/>
<text text-anchor="middle" x="1356.5" y="-158.3" font-family="Times,serif" font-size="14.00">r v8</text>
</a>
</g>
</g>
<!-- r&#45;base&#45;&gt;r&#45;v8 -->
<g id="edge15" class="edge">
<title>r&#45;base&#45;&gt;r&#45;v8</title>
<path fill="none" stroke="black" d="M1161.75,-222.28C1167.94,-220.15 1174.42,-217.97 1180.5,-216 1228.72,-200.38 1284.85,-183.74 1320.51,-173.36"/>
<polygon fill="black" stroke="black" points="1321.82,-176.63 1330.45,-170.48 1319.87,-169.9 1321.82,-176.63"/>
</g>
<!-- libgd -->
<g id="node14" class="node">
<title>libgd</title>
<g id="a_node14"><a xlink:href="https://github.com/conda-forge/libgd-feedstock" xlink:title="libgd">
<ellipse fill="#35b779" stroke="black" cx="1034.5" cy="-306" rx="34.5" ry="18"/>
<text text-anchor="middle" x="1034.5" y="-302.3" font-family="Times,serif" font-size="14.00">libgd</text>
</a>
</g>
</g>
<!-- libgd&#45;&gt;octave -->
<g id="edge16" class="edge">
<title>libgd&#45;&gt;octave</title>
<path fill="none" stroke="black" d="M1034.01,-287.7C1033.79,-279.98 1033.52,-270.71 1033.27,-262.11"/>
<polygon fill="black" stroke="black" points="1036.77,-262 1032.99,-252.1 1029.78,-262.2 1036.77,-262"/>
</g>
<!-- libxml2 -->
<g id="node15" class="node">
<title>libxml2</title>
<g id="a_node15"><a xlink:href="https://github.com/conda-forge/libxml2-feedstock/pull/61" xlink:title="libxml2 ✓">
<ellipse fill="#31688e" stroke="black" cx="611.5" cy="-378" rx="52.79" ry="18"/>
<text text-anchor="middle" x="611.5" y="-374.3" font-family="Times,serif" font-size="14.00" fill="white">libxml2 ✓</text>
</a>
</g>
</g>
<!-- libxml2&#45;&gt;gdal -->
<g id="edge17" class="edge">
<title>libxml2&#45;&gt;gdal</title>
<path fill="none" stroke="black" d="M598.43,-360.43C578.58,-335.26 540.74,-287.28 518.05,-258.51"/>
<polygon fill="black" stroke="black" points="520.74,-256.28 511.8,-250.6 515.25,-260.61 520.74,-256.28"/>
</g>
<!-- libxml2&#45;&gt;qgis -->
<g id="edge20" class="edge">
<title>libxml2&#45;&gt;qgis</title>
<path fill="none" stroke="black" d="M606.78,-359.96C599.2,-328.8 587.79,-261.65 615.5,-216 628.38,-194.79 653.03,-181.43 674.13,-173.44"/>
<polygon fill="black" stroke="black" points="675.55,-176.65 683.83,-170.03 673.23,-170.04 675.55,-176.65"/>
</g>
<!-- libxml2&#45;&gt;octave -->
<g id="edge18" class="edge">
<title>libxml2&#45;&gt;octave</title>
<path fill="none" stroke="black" d="M662.39,-373.29C744.85,-366.58 903.37,-350.61 952.5,-324 967.14,-316.07 994.82,-283.17 1013.46,-259.68"/>
<polygon fill="black" stroke="black" points="1016.45,-261.54 1019.88,-251.52 1010.95,-257.22 1016.45,-261.54"/>
</g>
<!-- libxml2&#45;&gt;r&#45;base -->
<g id="edge19" class="edge">
<title>libxml2&#45;&gt;r&#45;base</title>
<path fill="none" stroke="black" d="M662.99,-373.74C777.14,-366.13 1044.14,-346.19 1078.5,-324 1100.83,-309.58 1115.04,-282.14 1123.07,-261.52"/>
<polygon fill="black" stroke="black" points="1126.39,-262.63 1126.52,-252.04 1119.81,-260.24 1126.39,-262.63"/>
</g>
<!-- libxslt -->
<g id="node16" class="node">
<title>libxslt</title>
<g id="a_node16"><a xlink:href="https://github.com/conda-forge/libxslt-feedstock" xlink:title="libxslt">
<ellipse fill="#fde725" stroke="black" cx="793.5" cy="-306" rx="39.79" ry="18"/>
<text text-anchor="middle" x="793.5" y="-302.3" font-family="Times,serif" font-size="14.00">libxslt</text>
</a>
</g>
</g>
<!-- libxml2&#45;&gt;libxslt -->
<g id="edge21" class="edge">
<title>libxml2&#45;&gt;libxslt</title>
<path fill="none" stroke="black" d="M645.31,-364C676.24,-352.1 721.99,-334.5 754.46,-322.01"/>
<polygon fill="black" stroke="black" points="756.01,-325.17 764.08,-318.31 753.49,-318.64 756.01,-325.17"/>
</g>
<!-- qt -->
<g id="node17" class="node">
<title>qt</title>
<g id="a_node17"><a xlink:href="https://github.com/conda-forge/qt-feedstock" xlink:title="qt">
<ellipse fill="#fde725" stroke="black" cx="916.5" cy="-306" rx="27" ry="18"/>
<text text-anchor="middle" x="916.5" y="-302.3" font-family="Times,serif" font-size="14.00">qt</text>
</a>
</g>
</g>
<!-- libxml2&#45;&gt;qt -->
<g id="edge22" class="edge">
<title>libxml2&#45;&gt;qt</title>
<path fill="none" stroke="black" d="M659.4,-370.26C712.83,-362.09 801.49,-346.54 875.5,-324 878.67,-323.03 881.93,-321.91 885.16,-320.72"/>
<polygon fill="black" stroke="black" points="886.64,-323.9 894.66,-316.98 884.07,-317.39 886.64,-323.9"/>
</g>
<!-- root5 -->
<g id="node18" class="node">
<title>root5</title>
<g id="a_node18"><a xlink:href="https://github.com/conda-forge/root5-feedstock" xlink:title="root5">
<ellipse fill="#fde725" stroke="black" cx="102.5" cy="-306" rx="36" ry="18"/>
<text text-anchor="middle" x="102.5" y="-302.3" font-family="Times,serif" font-size="14.00">root5</text>
</a>
</g>
</g>
<!-- libxml2&#45;&gt;root5 -->
<g id="edge23" class="edge">
<title>libxml2&#45;&gt;root5</title>
<path fill="none" stroke="black" d="M559.62,-374.61C473.93,-369.86 297.87,-356.71 152.5,-324 148.37,-323.07 144.11,-321.93 139.9,-320.67"/>
<polygon fill="black" stroke="black" points="140.82,-317.29 130.23,-317.6 138.7,-323.96 140.82,-317.29"/>
</g>
<!-- uwsgi -->
<g id="node19" class="node">
<title>uwsgi</title>
<g id="a_node19"><a xlink:href="https://github.com/conda-forge/uwsgi-feedstock" xlink:title="uwsgi">
<ellipse fill="#fde725" stroke="black" cx="38.5" cy="-234" rx="38.5" ry="18"/>
<text text-anchor="middle" x="38.5" y="-230.3" font-family="Times,serif" font-size="14.00">uwsgi</text>
</a>
</g>
</g>
<!-- libxml2&#45;&gt;uwsgi -->
<g id="edge24" class="edge">
<title>libxml2&#45;&gt;uwsgi</title>
<path fill="none" stroke="black" d="M559.18,-375.47C428.29,-371.15 94.51,-356.99 57.5,-324 40.5,-308.85 36.62,-282.56 36.47,-262.47"/>
<polygon fill="black" stroke="black" points="39.98,-262.41 36.7,-252.33 32.98,-262.25 39.98,-262.41"/>
</g>
<!-- qtwebkit -->
<g id="node20" class="node">
<title>qtwebkit</title>
<g id="a_node20"><a xlink:href="https://github.com/conda-forge/qtwebkit-feedstock" xlink:title="qtwebkit">
<ellipse fill="#fde725" stroke="black" cx="827.5" cy="-234" rx="52" ry="18"/>
<text text-anchor="middle" x="827.5" y="-230.3" font-family="Times,serif" font-size="14.00">qtwebkit</text>
</a>
</g>
</g>
<!-- libxml2&#45;&gt;qtwebkit -->
<g id="edge25" class="edge">
<title>libxml2&#45;&gt;qtwebkit</title>
<path fill="none" stroke="black" d="M661.87,-372.65C722.91,-366.21 820.36,-351.8 842.5,-324 856.53,-306.39 850.08,-280.5 841.72,-261.18"/>
<polygon fill="black" stroke="black" points="844.84,-259.58 837.41,-252.02 838.5,-262.56 844.84,-259.58"/>
</g>
<!-- mdsplus -->
<g id="node21" class="node">
<title>mdsplus</title>
<g id="a_node21"><a xlink:href="https://github.com/conda-forge/mdsplus-feedstock" xlink:title="mdsplus">
<ellipse fill="#fde725" stroke="black" cx="126.5" cy="-162" rx="50.09" ry="18"/>
<text text-anchor="middle" x="126.5" y="-158.3" font-family="Times,serif" font-size="14.00">mdsplus</text>
</a>
</g>
</g>
<!-- libxml2&#45;&gt;mdsplus -->
<g id="edge26" class="edge">
<title>libxml2&#45;&gt;mdsplus</title>
<path fill="none" stroke="black" d="M558.94,-376.87C459.09,-375.61 246.93,-367.69 190.5,-324 148.4,-291.4 133.92,-226.9 128.99,-190.21"/>
<polygon fill="black" stroke="black" points="132.46,-189.72 127.8,-180.21 125.51,-190.55 132.46,-189.72"/>
</g>
<!-- ticcutils -->
<g id="node22" class="node">
<title>ticcutils</title>
<g id="a_node22"><a xlink:href="https://github.com/conda-forge/ticcutils-feedstock" xlink:title="ticcutils">
<ellipse fill="#fde725" stroke="black" cx="166.5" cy="-90" rx="48.19" ry="18"/>
<text text-anchor="middle" x="166.5" y="-86.3" font-family="Times,serif" font-size="14.00">ticcutils</text>
</a>
</g>
</g>
<!-- libxml2&#45;&gt;ticcutils -->
<g id="edge27" class="edge">
<title>libxml2&#45;&gt;ticcutils</title>
<path fill="none" stroke="black" d="M558.78,-376.81C465.31,-375.36 275.91,-367.02 228.5,-324 167.59,-268.73 208.97,-222.83 185.5,-144 182.92,-135.34 179.73,-126.03 176.7,-117.66"/>
<polygon fill="black" stroke="black" points="179.89,-116.19 173.14,-108.03 173.33,-118.62 179.89,-116.19"/>
</g>
<!-- scilab -->
<g id="node23" class="node">
<title>scilab</title>
<g id="a_node23"><a xlink:href="https://github.com/conda-forge/scilab-feedstock" xlink:title="scilab">
<ellipse fill="#fde725" stroke="black" cx="242.5" cy="-18" rx="37.89" ry="18"/>
<text text-anchor="middle" x="242.5" y="-14.3" font-family="Times,serif" font-size="14.00">scilab</text>
</a>
</g>
</g>
<!-- libxml2&#45;&gt;scilab -->
<g id="edge28" class="edge">
<title>libxml2&#45;&gt;scilab</title>
<path fill="none" stroke="black" d="M559.09,-376.14C472.15,-373.6 303.5,-363.55 261.5,-324 232.05,-296.27 242.5,-275.45 242.5,-235 242.5,-235 242.5,-235 242.5,-161 242.5,-121 242.5,-74.65 242.5,-46.08"/>
<polygon fill="black" stroke="black" points="246,-46.05 242.5,-36.05 239,-46.05 246,-46.05"/>
</g>
<!-- libical -->
<g id="node24" class="node">
<title>libical</title>
<g id="a_node24"><a xlink:href="https://github.com/conda-forge/libical-feedstock" xlink:title="libical">
<ellipse fill="#fde725" stroke="black" cx="697.5" cy="-306" rx="38.5" ry="18"/>
<text text-anchor="middle" x="697.5" y="-302.3" font-family="Times,serif" font-size="14.00">libical</text>
</a>
</g>
</g>
<!-- libxml2&#45;&gt;libical -->
<g id="edge29" class="edge">
<title>libxml2&#45;&gt;libical</title>
<path fill="none" stroke="black" d="M631.01,-361.12C642.89,-351.45 658.2,-338.99 671.14,-328.46"/>
<polygon fill="black" stroke="black" points="673.69,-330.89 679.24,-321.86 669.27,-325.46 673.69,-330.89"/>
</g>
<!-- libxmlsec1 -->
<g id="node25" class="node">
<title>libxmlsec1</title>
<g id="a_node25"><a xlink:href="https://github.com/conda-forge/libxmlsec1-feedstock" xlink:title="libxmlsec1">
<ellipse fill="#fde725" stroke="black" cx="684.5" cy="-234" rx="60.5" ry="18"/>
<text text-anchor="middle" x="684.5" y="-230.3" font-family="Times,serif" font-size="14.00">libxmlsec1</text>
</a>
</g>
</g>
<!-- libxml2&#45;&gt;libxmlsec1 -->
<g id="edge30" class="edge">
<title>libxml2&#45;&gt;libxmlsec1</title>
<path fill="none" stroke="black" d="M618.06,-359.89C625.26,-341.69 637.52,-312.24 650.5,-288 655.48,-278.7 661.54,-268.88 667.15,-260.26"/>
<polygon fill="black" stroke="black" points="670.17,-262.04 672.77,-251.77 664.33,-258.17 670.17,-262.04"/>
</g>
<!-- libxslt&#45;&gt;qtwebkit -->
<g id="edge31" class="edge">
<title>libxslt&#45;&gt;qtwebkit</title>
<path fill="none" stroke="black" d="M801.73,-288.05C805.7,-279.89 810.54,-269.91 814.96,-260.82"/>
<polygon fill="black" stroke="black" points="818.12,-262.31 819.35,-251.79 811.83,-259.25 818.12,-262.31"/>
</g>
<!-- libxslt&#45;&gt;libxmlsec1 -->
<g id="edge32" class="edge">
<title>libxslt&#45;&gt;libxmlsec1</title>
<path fill="none" stroke="black" d="M771.44,-290.83C755.97,-280.9 735.02,-267.45 717.56,-256.23"/>
<polygon fill="black" stroke="black" points="719.11,-253.06 708.8,-250.61 715.32,-258.95 719.11,-253.06"/>
</g>
<!-- qt&#45;&gt;qgis -->
<g id="edge34" class="edge">
<title>qt&#45;&gt;qgis</title>
<path fill="none" stroke="black" d="M915.75,-287.81C913.95,-267.85 907.99,-235.22 888.5,-216 852.02,-180.02 792.16,-168.31 752.29,-164.58"/>
<polygon fill="black" stroke="black" points="752.36,-161.08 742.11,-163.77 751.8,-168.06 752.36,-161.08"/>
</g>
<!-- qt&#45;&gt;octave -->
<g id="edge33" class="edge">
<title>qt&#45;&gt;octave</title>
<path fill="none" stroke="black" d="M935.92,-293.28C953.56,-282.64 979.91,-266.73 1000.64,-254.23"/>
<polygon fill="black" stroke="black" points="1002.67,-257.09 1009.43,-248.92 999.05,-251.09 1002.67,-257.09"/>
</g>
<!-- qt&#45;&gt;qtwebkit -->
<g id="edge35" class="edge">
<title>qt&#45;&gt;qtwebkit</title>
<path fill="none" stroke="black" d="M899.76,-291.83C887.38,-282.1 870.24,-268.62 855.76,-257.22"/>
<polygon fill="black" stroke="black" points="857.62,-254.23 847.59,-250.8 853.29,-259.74 857.62,-254.23"/>
</g>
<!-- qtwebkit&#45;&gt;qgis -->
<g id="edge36" class="edge">
<title>qtwebkit&#45;&gt;qgis</title>
<path fill="none" stroke="black" d="M802.62,-217.98C784.45,-207.02 759.78,-192.13 740.69,-180.61"/>
<polygon fill="black" stroke="black" points="742.46,-177.59 732.09,-175.42 738.84,-183.59 742.46,-177.59"/>
</g>
<!-- mysql -->
<g id="node26" class="node">
<title>mysql</title>
<g id="a_node26"><a xlink:href="https://github.com/conda-forge/mysql-feedstock/pull/56" xlink:title="mysql ❎">
<ellipse fill="#31688e" stroke="black" cx="916.5" cy="-378" rx="52.79" ry="18"/>
<text text-anchor="middle" x="916.5" y="-374.3" font-family="Times,serif" font-size="14.00" fill="white">mysql ❎</text>
</a>
</g>
</g>
<!-- mysql&#45;&gt;qt -->
<g id="edge37" class="edge">
<title>mysql&#45;&gt;qt</title>
<path fill="none" stroke="black" d="M916.5,-359.7C916.5,-351.98 916.5,-342.71 916.5,-334.11"/>
<polygon fill="black" stroke="black" points="920,-334.1 916.5,-324.1 913,-334.1 920,-334.1"/>
</g>
<!-- nodejs -->
<g id="node27" class="node">
<title>nodejs</title>
<g id="a_node27"><a xlink:href="https://github.com/conda-forge/nodejs-feedstock/pull/218" xlink:title="nodejs ❎">
<ellipse fill="#31688e" stroke="black" cx="1587.5" cy="-306" rx="55.49" ry="18"/>
<text text-anchor="middle" x="1587.5" y="-302.3" font-family="Times,serif" font-size="14.00" fill="white">nodejs ❎</text>
</a>
</g>
</g>
<!-- pyicu -->
<g id="node28" class="node">
<title>pyicu</title>
<g id="a_node28"><a xlink:href="https://github.com/conda-forge/pyicu-feedstock/pull/30" xlink:title="pyicu ❎">
<ellipse fill="#31688e" stroke="black" cx="1587.5" cy="-234" rx="50.09" ry="18"/>
<text text-anchor="middle" x="1587.5" y="-230.3" font-family="Times,serif" font-size="14.00" fill="white">pyicu ❎</text>
</a>
</g>
</g>
<!-- nodejs&#45;&gt;pyicu -->
<!-- tensorflow -->
<g id="node30" class="node">
<title>tensorflow</title>
<g id="a_node30"><a xlink:href="https://github.com/conda-forge/tensorflow-feedstock" xlink:title="tensorflow">
<ellipse fill="#35b779" stroke="black" cx="1587.5" cy="-162" rx="60" ry="18"/>
<text text-anchor="middle" x="1587.5" y="-158.3" font-family="Times,serif" font-size="14.00">tensorflow</text>
</a>
</g>
</g>
<!-- pyicu&#45;&gt;tensorflow -->
<!-- xerces&#45;c -->
<g id="node29" class="node">
<title>xerces&#45;c</title>
<g id="a_node29"><a xlink:href="https://github.com/conda-forge/xerces-c-feedstock/pull/31" xlink:title="xerces c ❎">
<ellipse fill="#31688e" stroke="black" cx="463.5" cy="-306" rx="63.09" ry="18"/>
<text text-anchor="middle" x="463.5" y="-302.3" font-family="Times,serif" font-size="14.00" fill="white">xerces c ❎</text>
</a>
</g>
</g>
<!-- xerces&#45;c&#45;&gt;gdal -->
<g id="edge39" class="edge">
<title>xerces&#45;c&#45;&gt;gdal</title>
<path fill="none" stroke="black" d="M472.21,-288.05C476.42,-279.89 481.55,-269.91 486.22,-260.82"/>
<polygon fill="black" stroke="black" points="489.4,-262.28 490.87,-251.79 483.18,-259.08 489.4,-262.28"/>
</g>
<!-- libpsl -->
<g id="node31" class="node">
<title>libpsl</title>
<g id="a_node31"><a xlink:href="https://github.com/conda-forge/libpsl-feedstock" xlink:title="libpsl">
<ellipse fill="#35b779" stroke="black" cx="1587.5" cy="-90" rx="36.5" ry="18"/>
<text text-anchor="middle" x="1587.5" y="-86.3" font-family="Times,serif" font-size="14.00">libpsl</text>
</a>
</g>
</g>
<!-- tensorflow&#45;&gt;libpsl -->
<!-- libv8 -->
<g id="node32" class="node">
<title>libv8</title>
<g id="a_node32"><a xlink:href="https://github.com/conda-forge/libv8-feedstock" xlink:title="libv8">
<ellipse fill="#35b779" stroke="black" cx="1485.5" cy="-234" rx="34" ry="18"/>
<text text-anchor="middle" x="1485.5" y="-230.3" font-family="Times,serif" font-size="14.00">libv8</text>
</a>
</g>
</g>
<!-- libv8&#45;&gt;r&#45;v8 -->
<g id="edge42" class="edge">
<title>libv8&#45;&gt;r&#45;v8</title>
<path fill="none" stroke="black" d="M1462.44,-220.49C1441.29,-209.01 1409.84,-191.94 1386.7,-179.39"/>
<polygon fill="black" stroke="black" points="1388.11,-176.17 1377.65,-174.48 1384.77,-182.32 1388.11,-176.17"/>
</g>
</g>
</svg>
