<?xml version="1.0" encoding="UTF-8" standalone="no"?>
<!DOCTYPE svg PUBLIC "-//W3C//DTD SVG 1.1//EN"
 "http://www.w3.org/Graphics/SVG/1.1/DTD/svg11.dtd">
<!-- Generated by graphviz version 2.42.3 (20191010.1750)
 -->
<!-- Title: %3 Pages: 1 -->
<svg width="2046pt" height="476pt"
 viewBox="0.00 0.00 2046.20 476.00" xmlns="http://www.w3.org/2000/svg" xmlns:xlink="http://www.w3.org/1999/xlink">
<g id="graph0" class="graph" transform="scale(1 1) rotate(0) translate(4 472)">
<title>%3</title>
<polygon fill="white" stroke="transparent" points="-4,4 -4,-472 2042.2,-472 2042.2,4 -4,4"/>
<!-- cairo -->
<g id="node1" class="node">
<title>cairo</title>
<g id="a_node1"><a xlink:href="https://github.com/conda-forge/cairo-feedstock" xlink:title="cairo">
<ellipse fill="#fde725" stroke="black" cx="688" cy="-306" rx="28.7" ry="18"/>
<text text-anchor="middle" x="688" y="-302.3" font-family="Times,serif" font-size="14.00">cairo</text>
</a>
</g>
</g>
<!-- gdal -->
<g id="node2" class="node">
<title>gdal</title>
<g id="a_node2"><a xlink:href="https://github.com/conda-forge/gdal-feedstock" xlink:title="gdal">
<ellipse fill="#fde725" stroke="black" cx="451" cy="-162" rx="27" ry="18"/>
<text text-anchor="middle" x="451" y="-158.3" font-family="Times,serif" font-size="14.00">gdal</text>
</a>
</g>
</g>
<!-- cairo&#45;&gt;gdal -->
<g id="edge1" class="edge">
<title>cairo&#45;&gt;gdal</title>
<path fill="none" stroke="black" d="M660.26,-301.21C625.41,-295.38 564.98,-281.61 522,-252 497.72,-235.27 477.63,-207.83 465.09,-187.83"/>
<polygon fill="black" stroke="black" points="468.05,-185.96 459.87,-179.23 462.07,-189.59 468.05,-185.96"/>
</g>
<!-- harfbuzz -->
<g id="node3" class="node">
<title>harfbuzz</title>
<g id="a_node3"><a xlink:href="https://github.com/conda-forge/harfbuzz-feedstock" xlink:title="harfbuzz">
<ellipse fill="#fde725" stroke="black" cx="618" cy="-234" rx="41.69" ry="18"/>
<text text-anchor="middle" x="618" y="-230.3" font-family="Times,serif" font-size="14.00">harfbuzz</text>
</a>
</g>
</g>
<!-- cairo&#45;&gt;harfbuzz -->
<g id="edge2" class="edge">
<title>cairo&#45;&gt;harfbuzz</title>
<path fill="none" stroke="black" d="M673.15,-290.15C663.85,-280.85 651.67,-268.67 641.12,-258.12"/>
<polygon fill="black" stroke="black" points="643.34,-255.39 633.8,-250.8 638.39,-260.34 643.34,-255.39"/>
</g>
<!-- octave -->
<g id="node4" class="node">
<title>octave</title>
<g id="a_node4"><a xlink:href="https://github.com/conda-forge/octave-feedstock" xlink:title="octave">
<ellipse fill="#fde725" stroke="black" cx="1192" cy="-90" rx="34" ry="18"/>
<text text-anchor="middle" x="1192" y="-86.3" font-family="Times,serif" font-size="14.00">octave</text>
</a>
</g>
</g>
<!-- cairo&#45;&gt;octave -->
<g id="edge3" class="edge">
<title>cairo&#45;&gt;octave</title>
<path fill="none" stroke="black" d="M716.52,-304.62C795.35,-303.04 1013.98,-294.8 1069,-252 1109.91,-220.18 1080.27,-184.19 1113,-144 1125.29,-128.9 1143.01,-116.47 1158.56,-107.46"/>
<polygon fill="black" stroke="black" points="1160.36,-110.46 1167.4,-102.54 1156.96,-104.34 1160.36,-110.46"/>
</g>
<!-- python&#45;igraph -->
<g id="node5" class="node">
<title>python&#45;igraph</title>
<g id="a_node5"><a xlink:href="https://github.com/conda-forge/python-igraph-feedstock" xlink:title="python igraph">
<ellipse fill="#fde725" stroke="black" cx="814" cy="-234" rx="60" ry="18"/>
<text text-anchor="middle" x="814" y="-230.3" font-family="Times,serif" font-size="14.00">python igraph</text>
</a>
</g>
</g>
<!-- cairo&#45;&gt;python&#45;igraph -->
<g id="edge4" class="edge">
<title>cairo&#45;&gt;python&#45;igraph</title>
<path fill="none" stroke="black" d="M708.81,-293.44C727.48,-283.07 755.31,-267.6 777.66,-255.19"/>
<polygon fill="black" stroke="black" points="779.5,-258.17 786.54,-250.25 776.1,-252.05 779.5,-258.17"/>
</g>
<!-- r&#45;base -->
<g id="node6" class="node">
<title>r&#45;base</title>
<g id="a_node6"><a xlink:href="https://github.com/conda-forge/r-base-feedstock" xlink:title="r base">
<ellipse fill="#fde725" stroke="black" cx="982" cy="-162" rx="32" ry="18"/>
<text text-anchor="middle" x="982" y="-158.3" font-family="Times,serif" font-size="14.00">r base</text>
</a>
</g>
</g>
<!-- cairo&#45;&gt;r&#45;base -->
<g id="edge5" class="edge">
<title>cairo&#45;&gt;r&#45;base</title>
<path fill="none" stroke="black" d="M694.03,-288.39C702.3,-268.05 719.14,-234.09 745,-216 803.69,-174.93 888.88,-165.03 939.54,-163.01"/>
<polygon fill="black" stroke="black" points="939.91,-166.51 949.8,-162.7 939.7,-159.51 939.91,-166.51"/>
</g>
<!-- texlive&#45;core -->
<g id="node7" class="node">
<title>texlive&#45;core</title>
<g id="a_node7"><a xlink:href="https://github.com/conda-forge/texlive-core-feedstock" xlink:title="texlive core">
<ellipse fill="#fde725" stroke="black" cx="548" cy="-162" rx="52" ry="18"/>
<text text-anchor="middle" x="548" y="-158.3" font-family="Times,serif" font-size="14.00">texlive core</text>
</a>
</g>
</g>
<!-- cairo&#45;&gt;texlive&#45;core -->
<g id="edge6" class="edge">
<title>cairo&#45;&gt;texlive&#45;core</title>
<path fill="none" stroke="black" d="M659.2,-304.48C623.1,-302.08 562.49,-291.94 534,-252 521,-233.78 526.91,-208.13 534.64,-189.05"/>
<polygon fill="black" stroke="black" points="537.92,-190.3 538.76,-179.74 531.51,-187.46 537.92,-190.3"/>
</g>
<!-- gtk2 -->
<g id="node8" class="node">
<title>gtk2</title>
<g id="a_node8"><a xlink:href="https://github.com/conda-forge/gtk2-feedstock" xlink:title="gtk2">
<ellipse fill="#fde725" stroke="black" cx="778" cy="-162" rx="27" ry="18"/>
<text text-anchor="middle" x="778" y="-158.3" font-family="Times,serif" font-size="14.00">gtk2</text>
</a>
</g>
</g>
<!-- cairo&#45;&gt;gtk2 -->
<g id="edge7" class="edge">
<title>cairo&#45;&gt;gtk2</title>
<path fill="none" stroke="black" d="M689.42,-287.98C691.69,-269.06 697.47,-238.24 712,-216 721.56,-201.37 736.49,-188.89 749.73,-179.73"/>
<polygon fill="black" stroke="black" points="751.69,-182.62 758.11,-174.19 747.84,-176.78 751.69,-182.62"/>
</g>
<!-- libical -->
<g id="node9" class="node">
<title>libical</title>
<g id="a_node9"><a xlink:href="https://github.com/conda-forge/libical-feedstock" xlink:title="libical">
<ellipse fill="#fde725" stroke="black" cx="373" cy="-234" rx="32.5" ry="18"/>
<text text-anchor="middle" x="373" y="-230.3" font-family="Times,serif" font-size="14.00">libical</text>
</a>
</g>
</g>
<!-- cairo&#45;&gt;libical -->
<g id="edge8" class="edge">
<title>cairo&#45;&gt;libical</title>
<path fill="none" stroke="black" d="M660.28,-300.94C611.28,-293.46 506.37,-276.01 420,-252 416.36,-250.99 412.59,-249.83 408.86,-248.6"/>
<polygon fill="black" stroke="black" points="409.72,-245.19 399.12,-245.24 407.44,-251.81 409.72,-245.19"/>
</g>
<!-- qgis -->
<g id="node10" class="node">
<title>qgis</title>
<g id="a_node10"><a xlink:href="https://github.com/conda-forge/qgis-feedstock" xlink:title="qgis">
<ellipse fill="#fde725" stroke="black" cx="669" cy="-90" rx="27" ry="18"/>
<text text-anchor="middle" x="669" y="-86.3" font-family="Times,serif" font-size="14.00">qgis</text>
</a>
</g>
</g>
<!-- gdal&#45;&gt;qgis -->
<g id="edge9" class="edge">
<title>gdal&#45;&gt;qgis</title>
<path fill="none" stroke="black" d="M472.08,-150.37C476.92,-148.12 482.09,-145.86 487,-144 537.07,-125.02 597.01,-108.76 634.05,-99.43"/>
<polygon fill="black" stroke="black" points="635.01,-102.79 643.86,-96.98 633.31,-96 635.01,-102.79"/>
</g>
<!-- harfbuzz&#45;&gt;gdal -->
<g id="edge10" class="edge">
<title>harfbuzz&#45;&gt;gdal</title>
<path fill="none" stroke="black" d="M587.88,-221.38C561.2,-210.94 521.27,-195.01 487,-180 485.2,-179.21 483.35,-178.38 481.49,-177.54"/>
<polygon fill="black" stroke="black" points="482.78,-174.28 472.23,-173.27 479.84,-180.64 482.78,-174.28"/>
</g>
<!-- harfbuzz&#45;&gt;octave -->
<g id="edge11" class="edge">
<title>harfbuzz&#45;&gt;octave</title>
<path fill="none" stroke="black" d="M634.02,-217.3C656.21,-196.6 698.52,-160.86 742,-144 779.44,-129.48 1043.47,-104.4 1148.78,-94.85"/>
<polygon fill="black" stroke="black" points="1149.12,-98.33 1158.76,-93.95 1148.49,-91.36 1149.12,-98.33"/>
</g>
<!-- harfbuzz&#45;&gt;r&#45;base -->
<g id="edge12" class="edge">
<title>harfbuzz&#45;&gt;r&#45;base</title>
<path fill="none" stroke="black" d="M655.24,-225.84C724.15,-212.59 870.97,-184.35 941.94,-170.7"/>
<polygon fill="black" stroke="black" points="942.68,-174.13 951.84,-168.8 941.36,-167.25 942.68,-174.13"/>
</g>
<!-- harfbuzz&#45;&gt;texlive&#45;core -->
<g id="edge13" class="edge">
<title>harfbuzz&#45;&gt;texlive&#45;core</title>
<path fill="none" stroke="black" d="M602.12,-217.12C593.12,-208.12 581.68,-196.68 571.65,-186.65"/>
<polygon fill="black" stroke="black" points="573.85,-183.9 564.31,-179.31 568.9,-188.85 573.85,-183.9"/>
</g>
<!-- harfbuzz&#45;&gt;gtk2 -->
<g id="edge14" class="edge">
<title>harfbuzz&#45;&gt;gtk2</title>
<path fill="none" stroke="black" d="M646.24,-220.65C674.29,-208.38 717.21,-189.59 746.39,-176.83"/>
<polygon fill="black" stroke="black" points="747.95,-179.97 755.71,-172.75 745.15,-173.55 747.95,-179.97"/>
</g>
<!-- harfbuzz&#45;&gt;qgis -->
<g id="edge17" class="edge">
<title>harfbuzz&#45;&gt;qgis</title>
<path fill="none" stroke="black" d="M624.05,-216.15C632.83,-191.71 649.19,-146.17 659.56,-117.29"/>
<polygon fill="black" stroke="black" points="662.87,-118.42 662.96,-107.82 656.28,-116.05 662.87,-118.42"/>
</g>
<!-- libgd -->
<g id="node11" class="node">
<title>libgd</title>
<g id="a_node11"><a xlink:href="https://github.com/conda-forge/libgd-feedstock" xlink:title="libgd">
<ellipse fill="#fde725" stroke="black" cx="1291" cy="-162" rx="28.7" ry="18"/>
<text text-anchor="middle" x="1291" y="-158.3" font-family="Times,serif" font-size="14.00">libgd</text>
</a>
</g>
</g>
<!-- harfbuzz&#45;&gt;libgd -->
<g id="edge15" class="edge">
<title>harfbuzz&#45;&gt;libgd</title>
<path fill="none" stroke="black" d="M656.84,-227.22C681.95,-223.63 715.35,-219.12 745,-216 953.35,-194.09 1007.8,-210.95 1215,-180 1228.29,-178.01 1242.73,-175.01 1255.41,-172.07"/>
<polygon fill="black" stroke="black" points="1256.23,-175.47 1265.14,-169.75 1254.61,-168.66 1256.23,-175.47"/>
</g>
<!-- tectonic -->
<g id="node12" class="node">
<title>tectonic</title>
<g id="a_node12"><a xlink:href="https://github.com/conda-forge/tectonic-feedstock" xlink:title="tectonic">
<ellipse fill="#fde725" stroke="black" cx="217" cy="-162" rx="38.5" ry="18"/>
<text text-anchor="middle" x="217" y="-158.3" font-family="Times,serif" font-size="14.00">tectonic</text>
</a>
</g>
</g>
<!-- harfbuzz&#45;&gt;tectonic -->
<g id="edge16" class="edge">
<title>harfbuzz&#45;&gt;tectonic</title>
<path fill="none" stroke="black" d="M580.27,-226.41C506.39,-213.52 342.84,-184.97 262.86,-171"/>
<polygon fill="black" stroke="black" points="263.06,-167.49 252.6,-169.21 261.85,-174.38 263.06,-167.49"/>
</g>
<!-- qtwebkit -->
<g id="node13" class="node">
<title>qtwebkit</title>
<g id="a_node13"><a xlink:href="https://github.com/conda-forge/qtwebkit-feedstock" xlink:title="qtwebkit">
<ellipse fill="#fde725" stroke="black" cx="1164" cy="-162" rx="41.69" ry="18"/>
<text text-anchor="middle" x="1164" y="-158.3" font-family="Times,serif" font-size="14.00">qtwebkit</text>
</a>
</g>
</g>
<!-- harfbuzz&#45;&gt;qtwebkit -->
<g id="edge18" class="edge">
<title>harfbuzz&#45;&gt;qtwebkit</title>
<path fill="none" stroke="black" d="M657.18,-227.68C682.28,-224.29 715.55,-219.83 745,-216 878.43,-198.63 1035.87,-178.93 1114.33,-169.16"/>
<polygon fill="black" stroke="black" points="1114.92,-172.62 1124.42,-167.91 1114.06,-165.67 1114.92,-172.62"/>
</g>
<!-- r&#45;stringi -->
<g id="node14" class="node">
<title>r&#45;stringi</title>
<g id="a_node14"><a xlink:href="https://github.com/conda-forge/r-stringi-feedstock" xlink:title="r stringi">
<ellipse fill="#fde725" stroke="black" cx="948" cy="-90" rx="38.5" ry="18"/>
<text text-anchor="middle" x="948" y="-86.3" font-family="Times,serif" font-size="14.00">r stringi</text>
</a>
</g>
</g>
<!-- r&#45;base&#45;&gt;r&#45;stringi -->
<g id="edge19" class="edge">
<title>r&#45;base&#45;&gt;r&#45;stringi</title>
<path fill="none" stroke="black" d="M973.94,-144.41C969.98,-136.25 965.11,-126.22 960.66,-117.07"/>
<polygon fill="black" stroke="black" points="963.75,-115.42 956.24,-107.96 957.46,-118.48 963.75,-115.42"/>
</g>
<!-- r&#45;v8 -->
<g id="node15" class="node">
<title>r&#45;v8</title>
<g id="a_node15"><a xlink:href="https://github.com/conda-forge/r-v8-feedstock" xlink:title="r v8">
<ellipse fill="#fde725" stroke="black" cx="1015" cy="-18" rx="27" ry="18"/>
<text text-anchor="middle" x="1015" y="-14.3" font-family="Times,serif" font-size="14.00">r v8</text>
</a>
</g>
</g>
<!-- r&#45;base&#45;&gt;r&#45;v8 -->
<g id="edge20" class="edge">
<title>r&#45;base&#45;&gt;r&#45;v8</title>
<path fill="none" stroke="black" d="M986.75,-143.87C989.56,-133.51 993.13,-120.03 996,-108 1000.92,-87.38 1005.9,-63.93 1009.53,-46.28"/>
<polygon fill="black" stroke="black" points="1013.03,-46.61 1011.6,-36.12 1006.17,-45.22 1013.03,-46.61"/>
</g>
<!-- gtk2&#45;&gt;octave -->
<g id="edge21" class="edge">
<title>gtk2&#45;&gt;octave</title>
<path fill="none" stroke="black" d="M803.9,-156.62C873.4,-144.87 1064.53,-112.55 1149.88,-98.12"/>
<polygon fill="black" stroke="black" points="1150.71,-101.53 1159.99,-96.41 1149.55,-94.63 1150.71,-101.53"/>
</g>
<!-- gtk2&#45;&gt;qgis -->
<g id="edge22" class="edge">
<title>gtk2&#45;&gt;qgis</title>
<path fill="none" stroke="black" d="M759.01,-148.81C741.66,-137.67 715.81,-121.06 696.26,-108.5"/>
<polygon fill="black" stroke="black" points="698.07,-105.51 687.77,-103.05 694.29,-111.4 698.07,-105.51"/>
</g>
<!-- libgd&#45;&gt;octave -->
<g id="edge32" class="edge">
<title>libgd&#45;&gt;octave</title>
<path fill="none" stroke="black" d="M1272.38,-147.83C1257.59,-137.38 1236.69,-122.6 1219.9,-110.73"/>
<polygon fill="black" stroke="black" points="1221.74,-107.74 1211.55,-104.83 1217.7,-113.46 1221.74,-107.74"/>
</g>
<!-- fontconfig -->
<g id="node16" class="node">
<title>fontconfig</title>
<g id="a_node16"><a xlink:href="https://github.com/conda-forge/fontconfig-feedstock" xlink:title="fontconfig">
<ellipse fill="#fde725" stroke="black" cx="974" cy="-378" rx="47.5" ry="18"/>
<text text-anchor="middle" x="974" y="-374.3" font-family="Times,serif" font-size="14.00">fontconfig</text>
</a>
</g>
</g>
<!-- fontconfig&#45;&gt;cairo -->
<g id="edge23" class="edge">
<title>fontconfig&#45;&gt;cairo</title>
<path fill="none" stroke="black" d="M935.13,-367.49C879.6,-353.9 778.32,-329.11 724.27,-315.88"/>
<polygon fill="black" stroke="black" points="724.97,-312.45 714.43,-313.47 723.31,-319.25 724.97,-312.45"/>
</g>
<!-- fontconfig&#45;&gt;octave -->
<g id="edge24" class="edge">
<title>fontconfig&#45;&gt;octave</title>
<path fill="none" stroke="black" d="M1021.68,-377.45C1095.07,-376.59 1238.96,-368.68 1351,-324 1402.21,-303.58 1426.75,-301.01 1452,-252 1500.02,-158.8 1319.25,-113.59 1234.08,-97.78"/>
<polygon fill="black" stroke="black" points="1234.66,-94.33 1224.19,-96 1233.42,-101.22 1234.66,-94.33"/>
</g>
<!-- fontconfig&#45;&gt;r&#45;base -->
<g id="edge25" class="edge">
<title>fontconfig&#45;&gt;r&#45;base</title>
<path fill="none" stroke="black" d="M974.64,-359.85C976.02,-322.83 979.3,-235.18 980.98,-190.39"/>
<polygon fill="black" stroke="black" points="984.48,-190.36 981.36,-180.23 977.48,-190.09 984.48,-190.36"/>
</g>
<!-- fontconfig&#45;&gt;texlive&#45;core -->
<g id="edge26" class="edge">
<title>fontconfig&#45;&gt;texlive&#45;core</title>
<path fill="none" stroke="black" d="M926.96,-375.39C791.67,-369.65 406.51,-345.26 332,-252 252.45,-152.43 357.64,-213.03 487,-180 491.07,-178.96 495.29,-177.85 499.52,-176.72"/>
<polygon fill="black" stroke="black" points="500.61,-180.05 509.34,-174.05 498.78,-173.29 500.61,-180.05"/>
</g>
<!-- fontconfig&#45;&gt;gtk2 -->
<g id="edge27" class="edge">
<title>fontconfig&#45;&gt;gtk2</title>
<path fill="none" stroke="black" d="M968.18,-359.78C956.59,-327.74 927.8,-258.35 883,-216 856.71,-191.15 842.2,-196.49 810,-180 809.19,-179.59 808.37,-179.16 807.55,-178.74"/>
<polygon fill="black" stroke="black" points="809.09,-175.6 798.61,-174.07 805.85,-181.8 809.09,-175.6"/>
</g>
<!-- fontconfig&#45;&gt;libgd -->
<g id="edge28" class="edge">
<title>fontconfig&#45;&gt;libgd</title>
<path fill="none" stroke="black" d="M1018.77,-371.93C1124.75,-358.87 1385.79,-320.28 1435,-252 1444.36,-239.02 1444.15,-229.12 1435,-216 1411.38,-182.14 1363.59,-169.85 1329.55,-165.43"/>
<polygon fill="black" stroke="black" points="1329.79,-161.93 1319.46,-164.29 1329.01,-168.89 1329.79,-161.93"/>
</g>
<!-- fontconfig&#45;&gt;tectonic -->
<g id="edge31" class="edge">
<title>fontconfig&#45;&gt;tectonic</title>
<path fill="none" stroke="black" d="M926.95,-375.28C826.44,-371.06 583.6,-357.94 383,-324 253.33,-302.06 176.89,-355.69 96,-252 86.16,-239.38 87.25,-229.39 96,-216 112.52,-190.72 144.06,-177.43 170.8,-170.47"/>
<polygon fill="black" stroke="black" points="171.85,-173.82 180.77,-168.11 170.23,-167.01 171.85,-173.82"/>
</g>
<!-- qt -->
<g id="node17" class="node">
<title>qt</title>
<g id="a_node17"><a xlink:href="https://github.com/conda-forge/qt-feedstock" xlink:title="qt">
<ellipse fill="#fde725" stroke="black" cx="1033" cy="-234" rx="27" ry="18"/>
<text text-anchor="middle" x="1033" y="-230.3" font-family="Times,serif" font-size="14.00">qt</text>
</a>
</g>
</g>
<!-- fontconfig&#45;&gt;qt -->
<g id="edge29" class="edge">
<title>fontconfig&#45;&gt;qt</title>
<path fill="none" stroke="black" d="M981,-360.15C991.16,-335.71 1010.08,-290.17 1022.08,-261.29"/>
<polygon fill="black" stroke="black" points="1025.4,-262.4 1026.01,-251.82 1018.94,-259.72 1025.4,-262.4"/>
</g>
<!-- root5 -->
<g id="node18" class="node">
<title>root5</title>
<g id="a_node18"><a xlink:href="https://github.com/conda-forge/root5-feedstock" xlink:title="root5">
<ellipse fill="#fde725" stroke="black" cx="1059" cy="-306" rx="29.5" ry="18"/>
<text text-anchor="middle" x="1059" y="-302.3" font-family="Times,serif" font-size="14.00">root5</text>
</a>
</g>
</g>
<!-- fontconfig&#45;&gt;root5 -->
<g id="edge30" class="edge">
<title>fontconfig&#45;&gt;root5</title>
<path fill="none" stroke="black" d="M992.86,-361.46C1005.1,-351.39 1021.16,-338.16 1034.39,-327.27"/>
<polygon fill="black" stroke="black" points="1036.71,-329.89 1042.2,-320.83 1032.26,-324.49 1036.71,-329.89"/>
</g>
<!-- qt&#45;&gt;gdal -->
<g id="edge33" class="edge">
<title>qt&#45;&gt;gdal</title>
<path fill="none" stroke="black" d="M1006.47,-229.81C976.5,-226.26 926.28,-220.42 883,-216 707.19,-198.05 657.51,-226.44 487,-180 485.05,-179.47 483.07,-178.84 481.11,-178.13"/>
<polygon fill="black" stroke="black" points="482.05,-174.74 471.47,-174.17 479.38,-181.21 482.05,-174.74"/>
</g>
<!-- qt&#45;&gt;octave -->
<g id="edge34" class="edge">
<title>qt&#45;&gt;octave</title>
<path fill="none" stroke="black" d="M1038.2,-216.22C1045.02,-196.66 1058.67,-164.42 1080,-144 1100.4,-124.48 1129.32,-111.04 1152.66,-102.58"/>
<polygon fill="black" stroke="black" points="1153.98,-105.83 1162.29,-99.26 1151.69,-99.22 1153.98,-105.83"/>
</g>
<!-- qt&#45;&gt;r&#45;base -->
<g id="edge35" class="edge">
<title>qt&#45;&gt;r&#45;base</title>
<path fill="none" stroke="black" d="M1021.68,-217.46C1015.24,-208.62 1007.02,-197.34 999.73,-187.34"/>
<polygon fill="black" stroke="black" points="1002.36,-185 993.64,-178.98 996.7,-189.12 1002.36,-185"/>
</g>
<!-- qt&#45;&gt;texlive&#45;core -->
<g id="edge36" class="edge">
<title>qt&#45;&gt;texlive&#45;core</title>
<path fill="none" stroke="black" d="M1006.92,-229.24C931.33,-218.33 710.77,-186.49 605.37,-171.28"/>
<polygon fill="black" stroke="black" points="605.63,-167.78 595.23,-169.82 604.63,-174.71 605.63,-167.78"/>
</g>
<!-- qt&#45;&gt;gtk2 -->
<g id="edge37" class="edge">
<title>qt&#45;&gt;gtk2</title>
<path fill="none" stroke="black" d="M1008.55,-226.29C962.97,-213.78 864.92,-186.86 812.58,-172.49"/>
<polygon fill="black" stroke="black" points="813.32,-169.07 802.75,-169.79 811.47,-175.82 813.32,-169.07"/>
</g>
<!-- qt&#45;&gt;qgis -->
<g id="edge39" class="edge">
<title>qt&#45;&gt;qgis</title>
<path fill="none" stroke="black" d="M1010.72,-223.64C971.25,-207.12 886.37,-171.92 814,-144 775.86,-129.29 731.7,-113.29 702.23,-102.77"/>
<polygon fill="black" stroke="black" points="703.05,-99.34 692.45,-99.28 700.7,-105.94 703.05,-99.34"/>
</g>
<!-- qt&#45;&gt;libgd -->
<g id="edge38" class="edge">
<title>qt&#45;&gt;libgd</title>
<path fill="none" stroke="black" d="M1057.74,-226.29C1103.71,-213.81 1202.45,-187.02 1255.53,-172.62"/>
<polygon fill="black" stroke="black" points="1256.46,-176 1265.19,-170 1254.62,-169.24 1256.46,-176"/>
</g>
<!-- qt&#45;&gt;qtwebkit -->
<g id="edge40" class="edge">
<title>qt&#45;&gt;qtwebkit</title>
<path fill="none" stroke="black" d="M1053.47,-222.06C1073.89,-211.15 1105.62,-194.19 1129.86,-181.24"/>
<polygon fill="black" stroke="black" points="1131.57,-184.3 1138.74,-176.5 1128.27,-178.12 1131.57,-184.3"/>
</g>
<!-- igraph -->
<g id="node19" class="node">
<title>igraph</title>
<g id="a_node19"><a xlink:href="https://github.com/conda-forge/igraph-feedstock" xlink:title="igraph">
<ellipse fill="#fde725" stroke="black" cx="1545" cy="-378" rx="33.29" ry="18"/>
<text text-anchor="middle" x="1545" y="-374.3" font-family="Times,serif" font-size="14.00">igraph</text>
</a>
</g>
</g>
<!-- libxml2 -->
<g id="node20" class="node">
<title>libxml2</title>
<g id="a_node20"><a xlink:href="https://github.com/conda-forge/libxml2-feedstock/pull/56" xlink:title="libxml2 ❎">
<ellipse fill="#31688e" stroke="black" cx="1238" cy="-450" rx="50.09" ry="18"/>
<text text-anchor="middle" x="1238" y="-446.3" font-family="Times,serif" font-size="14.00" fill="white">libxml2 ❎</text>
</a>
</g>
</g>
<!-- libxml2&#45;&gt;gdal -->
<g id="edge41" class="edge">
<title>libxml2&#45;&gt;gdal</title>
<path fill="none" stroke="black" d="M1187.74,-449.1C984.15,-448.3 225.43,-433.06 96,-252 86.7,-238.98 85.55,-228.12 96,-216 116.62,-192.07 327.34,-172.79 414.04,-165.82"/>
<polygon fill="black" stroke="black" points="414.53,-169.29 424.22,-165.01 413.97,-162.31 414.53,-169.29"/>
</g>
<!-- libxml2&#45;&gt;octave -->
<g id="edge42" class="edge">
<title>libxml2&#45;&gt;octave</title>
<path fill="none" stroke="black" d="M1287.57,-447.5C1379.69,-443.89 1572.92,-432.1 1628,-396 1666.69,-370.63 1682,-353.27 1682,-307 1682,-307 1682,-307 1682,-233 1682,-140.58 1356.34,-104.47 1236,-94.29"/>
<polygon fill="black" stroke="black" points="1235.93,-90.77 1225.68,-93.43 1235.36,-97.74 1235.93,-90.77"/>
</g>
<!-- libxml2&#45;&gt;python&#45;igraph -->
<g id="edge43" class="edge">
<title>libxml2&#45;&gt;python&#45;igraph</title>
<path fill="none" stroke="black" d="M1189.13,-445.72C1110.87,-439.69 961.79,-424.73 918,-396 868.41,-363.46 837.46,-298.18 823.23,-261.53"/>
<polygon fill="black" stroke="black" points="826.45,-260.14 819.66,-252 819.89,-262.6 826.45,-260.14"/>
</g>
<!-- libxml2&#45;&gt;r&#45;base -->
<g id="edge44" class="edge">
<title>libxml2&#45;&gt;r&#45;base</title>
<path fill="none" stroke="black" d="M1240.49,-431.93C1244.13,-400.71 1247.67,-333.48 1219,-288 1174.63,-217.61 1076.56,-184.56 1021.5,-171.04"/>
<polygon fill="black" stroke="black" points="1022.27,-167.62 1011.74,-168.73 1020.67,-174.44 1022.27,-167.62"/>
</g>
<!-- libxml2&#45;&gt;texlive&#45;core -->
<g id="edge45" class="edge">
<title>libxml2&#45;&gt;texlive&#45;core</title>
<path fill="none" stroke="black" d="M1188.48,-446.88C1010.77,-438.08 410.08,-397.82 304,-252 221.54,-138.64 319.48,-219.76 487,-180 491.09,-179.03 495.32,-177.97 499.56,-176.87"/>
<polygon fill="black" stroke="black" points="500.63,-180.2 509.39,-174.25 498.83,-173.44 500.63,-180.2"/>
</g>
<!-- libxml2&#45;&gt;gtk2 -->
<g id="edge46" class="edge">
<title>libxml2&#45;&gt;gtk2</title>
<path fill="none" stroke="black" d="M1188.74,-446.31C1015.43,-435.72 438.5,-390.42 332,-252 322.24,-239.32 321.37,-227.96 332,-216 338.81,-208.34 635.35,-177.5 741.05,-166.73"/>
<polygon fill="black" stroke="black" points="741.66,-170.19 751.25,-165.7 740.95,-163.23 741.66,-170.19"/>
</g>
<!-- libxml2&#45;&gt;libical -->
<g id="edge47" class="edge">
<title>libxml2&#45;&gt;libical</title>
<path fill="none" stroke="black" d="M1190.26,-444.56C1120.41,-437.5 986.54,-421.8 875,-396 772.71,-372.34 749.98,-356.06 650,-324 564.14,-296.47 463.35,-264.06 410.19,-246.96"/>
<polygon fill="black" stroke="black" points="411.11,-243.58 400.52,-243.85 408.97,-250.25 411.11,-243.58"/>
</g>
<!-- libxml2&#45;&gt;qgis -->
<g id="edge52" class="edge">
<title>libxml2&#45;&gt;qgis</title>
<path fill="none" stroke="black" d="M1187.94,-448.61C956.33,-446.16 0,-428.69 0,-307 0,-307 0,-307 0,-233 0,-102.82 490.88,-91.47 631.67,-90.89"/>
<polygon fill="black" stroke="black" points="631.95,-94.39 641.95,-90.87 631.94,-87.39 631.95,-94.39"/>
</g>
<!-- libxml2&#45;&gt;libgd -->
<g id="edge49" class="edge">
<title>libxml2&#45;&gt;libgd</title>
<path fill="none" stroke="black" d="M1285.86,-444.46C1332.51,-438.49 1404.35,-425.12 1460,-396 1465.32,-393.22 1618.55,-257.48 1621,-252 1627.53,-237.39 1631.38,-228.18 1621,-216 1583.94,-172.52 1408.65,-164.57 1329.71,-163.22"/>
<polygon fill="black" stroke="black" points="1329.73,-159.72 1319.68,-163.07 1329.63,-166.72 1329.73,-159.72"/>
</g>
<!-- libxml2&#45;&gt;qtwebkit -->
<g id="edge53" class="edge">
<title>libxml2&#45;&gt;qtwebkit</title>
<path fill="none" stroke="black" d="M1266.3,-435.06C1335.77,-399.05 1504.11,-299.93 1435,-216 1434.11,-214.91 1288.66,-186.89 1211.24,-172.05"/>
<polygon fill="black" stroke="black" points="1211.72,-168.57 1201.24,-170.13 1210.41,-175.45 1211.72,-168.57"/>
</g>
<!-- libxml2&#45;&gt;fontconfig -->
<g id="edge48" class="edge">
<title>libxml2&#45;&gt;fontconfig</title>
<path fill="none" stroke="black" d="M1199.05,-438.67C1151.85,-426.16 1072.36,-405.08 1021.58,-391.62"/>
<polygon fill="black" stroke="black" points="1022.39,-388.21 1011.83,-389.03 1020.6,-394.98 1022.39,-388.21"/>
</g>
<!-- libxml2&#45;&gt;qt -->
<g id="edge50" class="edge">
<title>libxml2&#45;&gt;qt</title>
<path fill="none" stroke="black" d="M1224.81,-432.23C1200.76,-402.07 1147.6,-337.22 1097,-288 1084.82,-276.15 1070.29,-263.98 1058.16,-254.3"/>
<polygon fill="black" stroke="black" points="1060.23,-251.47 1050.21,-248.03 1055.89,-256.96 1060.23,-251.47"/>
</g>
<!-- libxml2&#45;&gt;root5 -->
<g id="edge51" class="edge">
<title>libxml2&#45;&gt;root5</title>
<path fill="none" stroke="black" d="M1194.64,-440.81C1165.46,-433.38 1127.77,-419.82 1102,-396 1083.87,-379.24 1072.53,-353.19 1066.08,-333.6"/>
<polygon fill="black" stroke="black" points="1069.42,-332.56 1063.14,-324.03 1062.73,-334.62 1069.42,-332.56"/>
</g>
<!-- libxml2&#45;&gt;igraph -->
<g id="edge54" class="edge">
<title>libxml2&#45;&gt;igraph</title>
<path fill="none" stroke="black" d="M1283.1,-441.87C1335.33,-433.13 1423.72,-416.88 1498,-396 1501.64,-394.98 1505.4,-393.81 1509.14,-392.58"/>
<polygon fill="black" stroke="black" points="1510.56,-395.79 1518.87,-389.22 1508.28,-389.17 1510.56,-395.79"/>
</g>
<!-- libxslt -->
<g id="node21" class="node">
<title>libxslt</title>
<g id="a_node21"><a xlink:href="https://github.com/conda-forge/libxslt-feedstock" xlink:title="libxslt">
<ellipse fill="#fde725" stroke="black" cx="1177" cy="-306" rx="32.5" ry="18"/>
<text text-anchor="middle" x="1177" y="-302.3" font-family="Times,serif" font-size="14.00">libxslt</text>
</a>
</g>
</g>
<!-- libxml2&#45;&gt;libxslt -->
<g id="edge55" class="edge">
<title>libxml2&#45;&gt;libxslt</title>
<path fill="none" stroke="black" d="M1230.76,-432.15C1220.26,-407.71 1200.7,-362.17 1188.29,-333.29"/>
<polygon fill="black" stroke="black" points="1191.39,-331.63 1184.23,-323.82 1184.96,-334.39 1191.39,-331.63"/>
</g>
<!-- uwsgi -->
<g id="node22" class="node">
<title>uwsgi</title>
<g id="a_node22"><a xlink:href="https://github.com/conda-forge/uwsgi-feedstock" xlink:title="uwsgi">
<ellipse fill="#fde725" stroke="black" cx="1742" cy="-306" rx="32" ry="18"/>
<text text-anchor="middle" x="1742" y="-302.3" font-family="Times,serif" font-size="14.00">uwsgi</text>
</a>
</g>
</g>
<!-- libxml2&#45;&gt;uwsgi -->
<g id="edge56" class="edge">
<title>libxml2&#45;&gt;uwsgi</title>
<path fill="none" stroke="black" d="M1288.23,-449C1393.08,-448.09 1630.88,-440.98 1696,-396 1717.06,-381.45 1729.11,-354.23 1735.54,-333.7"/>
<polygon fill="black" stroke="black" points="1738.94,-334.54 1738.34,-323.97 1732.22,-332.61 1738.94,-334.54"/>
</g>
<!-- mdsplus -->
<g id="node23" class="node">
<title>mdsplus</title>
<g id="a_node23"><a xlink:href="https://github.com/conda-forge/mdsplus-feedstock" xlink:title="mdsplus">
<ellipse fill="#fde725" stroke="black" cx="1385" cy="-234" rx="40.5" ry="18"/>
<text text-anchor="middle" x="1385" y="-230.3" font-family="Times,serif" font-size="14.00">mdsplus</text>
</a>
</g>
</g>
<!-- libxml2&#45;&gt;mdsplus -->
<g id="edge57" class="edge">
<title>libxml2&#45;&gt;mdsplus</title>
<path fill="none" stroke="black" d="M1288.06,-449.05C1375.19,-447.96 1549.05,-440.15 1587,-396 1643.09,-330.74 1501.61,-272.86 1427.22,-247.96"/>
<polygon fill="black" stroke="black" points="1428.22,-244.6 1417.63,-244.81 1426.04,-251.25 1428.22,-244.6"/>
</g>
<!-- ticcutils -->
<g id="node24" class="node">
<title>ticcutils</title>
<g id="a_node24"><a xlink:href="https://github.com/conda-forge/ticcutils-feedstock" xlink:title="ticcutils">
<ellipse fill="#fde725" stroke="black" cx="1787" cy="-234" rx="38.5" ry="18"/>
<text text-anchor="middle" x="1787" y="-230.3" font-family="Times,serif" font-size="14.00">ticcutils</text>
</a>
</g>
</g>
<!-- libxml2&#45;&gt;ticcutils -->
<g id="edge58" class="edge">
<title>libxml2&#45;&gt;ticcutils</title>
<path fill="none" stroke="black" d="M1288.1,-448.28C1396.63,-445.96 1649.65,-436.28 1724,-396 1760.38,-376.29 1768.21,-362.64 1783,-324 1790.55,-304.29 1791.19,-280.31 1790.14,-262.2"/>
<polygon fill="black" stroke="black" points="1793.61,-261.74 1789.34,-252.04 1786.63,-262.29 1793.61,-261.74"/>
</g>
<!-- scilab -->
<g id="node25" class="node">
<title>scilab</title>
<g id="a_node25"><a xlink:href="https://github.com/conda-forge/scilab-feedstock" xlink:title="scilab">
<ellipse fill="#fde725" stroke="black" cx="1854" cy="-162" rx="31.4" ry="18"/>
<text text-anchor="middle" x="1854" y="-158.3" font-family="Times,serif" font-size="14.00">scilab</text>
</a>
</g>
</g>
<!-- libxml2&#45;&gt;scilab -->
<g id="edge59" class="edge">
<title>libxml2&#45;&gt;scilab</title>
<path fill="none" stroke="black" d="M1288.35,-449.61C1403.54,-450.12 1682.24,-445.99 1759,-396 1829.42,-350.14 1847.65,-241.62 1852.36,-190.52"/>
<polygon fill="black" stroke="black" points="1855.88,-190.49 1853.2,-180.24 1848.9,-189.93 1855.88,-190.49"/>
</g>
<!-- odil -->
<g id="node26" class="node">
<title>odil</title>
<g id="a_node26"><a xlink:href="https://github.com/conda-forge/odil-feedstock" xlink:title="odil">
<ellipse fill="#fde725" stroke="black" cx="1585" cy="-234" rx="27" ry="18"/>
<text text-anchor="middle" x="1585" y="-230.3" font-family="Times,serif" font-size="14.00">odil</text>
</a>
</g>
</g>
<!-- libxml2&#45;&gt;odil -->
<g id="edge60" class="edge">
<title>libxml2&#45;&gt;odil</title>
<path fill="none" stroke="black" d="M1288.38,-449.52C1379.58,-449.27 1566.36,-442.89 1607,-396 1639.93,-358 1616.34,-294.87 1598.97,-260.02"/>
<polygon fill="black" stroke="black" points="1602,-258.25 1594.29,-250.99 1595.78,-261.48 1602,-258.25"/>
</g>
<!-- libiio -->
<g id="node27" class="node">
<title>libiio</title>
<g id="a_node27"><a xlink:href="https://github.com/conda-forge/libiio-feedstock" xlink:title="libiio">
<ellipse fill="#fde725" stroke="black" cx="1913" cy="-90" rx="29.5" ry="18"/>
<text text-anchor="middle" x="1913" y="-86.3" font-family="Times,serif" font-size="14.00">libiio</text>
</a>
</g>
</g>
<!-- libxml2&#45;&gt;libiio -->
<g id="edge61" class="edge">
<title>libxml2&#45;&gt;libiio</title>
<path fill="none" stroke="black" d="M1288.18,-449.13C1444.62,-448.18 1913,-434.69 1913,-307 1913,-307 1913,-307 1913,-233 1913,-193 1913,-146.65 1913,-118.08"/>
<polygon fill="black" stroke="black" points="1916.5,-118.05 1913,-108.05 1909.5,-118.05 1916.5,-118.05"/>
</g>
<!-- libxslt&#45;&gt;gdal -->
<g id="edge62" class="edge">
<title>libxslt&#45;&gt;gdal</title>
<path fill="none" stroke="black" d="M1147.92,-297.76C1132.82,-294.28 1114.02,-290.35 1097,-288 975.01,-271.16 656.73,-301.56 544,-252 527,-244.53 492.87,-209.24 471.02,-185.41"/>
<polygon fill="black" stroke="black" points="473.44,-182.87 464.13,-177.82 468.26,-187.57 473.44,-182.87"/>
</g>
<!-- libxslt&#45;&gt;octave -->
<g id="edge63" class="edge">
<title>libxslt&#45;&gt;octave</title>
<path fill="none" stroke="black" d="M1203.23,-295.04C1224.67,-286.02 1254.92,-271.22 1277,-252 1306.77,-226.08 1316.86,-217.56 1329,-180 1333.92,-164.78 1338.05,-157.2 1329,-144 1308.18,-113.63 1267.27,-100.66 1235.55,-95.12"/>
<polygon fill="black" stroke="black" points="1236.04,-91.65 1225.62,-93.57 1234.96,-98.57 1236.04,-91.65"/>
</g>
<!-- libxslt&#45;&gt;python&#45;igraph -->
<g id="edge64" class="edge">
<title>libxslt&#45;&gt;python&#45;igraph</title>
<path fill="none" stroke="black" d="M1147.4,-298.53C1132.33,-295.28 1113.71,-291.34 1097,-288 1020.24,-272.66 931.49,-256.25 874.15,-245.83"/>
<polygon fill="black" stroke="black" points="874.63,-242.36 864.17,-244.02 873.38,-249.25 874.63,-242.36"/>
</g>
<!-- libxslt&#45;&gt;r&#45;base -->
<g id="edge65" class="edge">
<title>libxslt&#45;&gt;r&#45;base</title>
<path fill="none" stroke="black" d="M1160.75,-290.36C1140.1,-272.07 1103.06,-240.22 1069,-216 1051,-203.2 1029.86,-190.28 1012.93,-180.4"/>
<polygon fill="black" stroke="black" points="1014.41,-177.21 1004,-175.24 1010.91,-183.27 1014.41,-177.21"/>
</g>
<!-- libxslt&#45;&gt;texlive&#45;core -->
<g id="edge66" class="edge">
<title>libxslt&#45;&gt;texlive&#45;core</title>
<path fill="none" stroke="black" d="M1147.92,-297.78C1132.82,-294.3 1114.02,-290.37 1097,-288 1038.54,-279.85 611.6,-290.66 567,-252 549.69,-237 545.89,-210.45 545.85,-190.25"/>
<polygon fill="black" stroke="black" points="549.36,-190.16 546.14,-180.07 542.36,-189.96 549.36,-190.16"/>
</g>
<!-- libxslt&#45;&gt;gtk2 -->
<g id="edge67" class="edge">
<title>libxslt&#45;&gt;gtk2</title>
<path fill="none" stroke="black" d="M1147.94,-297.71C1112.03,-288.41 1049.28,-271.22 997,-252 960.02,-238.41 952.69,-230.35 916,-216 869.66,-197.88 855.67,-199.74 810,-180 809.14,-179.63 808.27,-179.24 807.4,-178.85"/>
<polygon fill="black" stroke="black" points="808.59,-175.53 798.07,-174.29 805.52,-181.82 808.59,-175.53"/>
</g>
<!-- libxslt&#45;&gt;qgis -->
<g id="edge70" class="edge">
<title>libxslt&#45;&gt;qgis</title>
<path fill="none" stroke="black" d="M1188.86,-289C1210.89,-257.18 1252.64,-185.47 1215,-144 1206.41,-134.53 827.95,-103.65 706.26,-93.95"/>
<polygon fill="black" stroke="black" points="706.21,-90.43 695.96,-93.13 705.65,-97.41 706.21,-90.43"/>
</g>
<!-- libxslt&#45;&gt;libgd -->
<g id="edge68" class="edge">
<title>libxslt&#45;&gt;libgd</title>
<path fill="none" stroke="black" d="M1200.58,-293.48C1217.39,-284.25 1239.49,-269.9 1254,-252 1268.84,-233.68 1278.56,-208.56 1284.29,-189.68"/>
<polygon fill="black" stroke="black" points="1287.7,-190.5 1287.07,-179.92 1280.97,-188.58 1287.7,-190.5"/>
</g>
<!-- libxslt&#45;&gt;qtwebkit -->
<g id="edge71" class="edge">
<title>libxslt&#45;&gt;qtwebkit</title>
<path fill="none" stroke="black" d="M1175.43,-287.87C1173.22,-263.67 1169.15,-219.21 1166.51,-190.39"/>
<polygon fill="black" stroke="black" points="1169.97,-189.83 1165.57,-180.19 1163,-190.47 1169.97,-189.83"/>
</g>
<!-- libxslt&#45;&gt;qt -->
<g id="edge69" class="edge">
<title>libxslt&#45;&gt;qt</title>
<path fill="none" stroke="black" d="M1153.22,-293.44C1128.75,-281.54 1090.52,-262.96 1063.75,-249.95"/>
<polygon fill="black" stroke="black" points="1064.98,-246.66 1054.46,-245.43 1061.92,-252.95 1064.98,-246.66"/>
</g>
<!-- libxslt&#45;&gt;mdsplus -->
<g id="edge72" class="edge">
<title>libxslt&#45;&gt;mdsplus</title>
<path fill="none" stroke="black" d="M1204.19,-295.85C1239.87,-283.84 1302.81,-262.66 1344.21,-248.73"/>
<polygon fill="black" stroke="black" points="1345.37,-252.03 1353.73,-245.52 1343.13,-245.4 1345.37,-252.03"/>
</g>
<!-- libxslt&#45;&gt;odil -->
<g id="edge73" class="edge">
<title>libxslt&#45;&gt;odil</title>
<path fill="none" stroke="black" d="M1207.67,-299.74C1281.71,-287.03 1469.99,-254.73 1549.11,-241.16"/>
<polygon fill="black" stroke="black" points="1549.83,-244.59 1559.09,-239.45 1548.64,-237.69 1549.83,-244.59"/>
</g>
<!-- xerces&#45;c -->
<g id="node28" class="node">
<title>xerces&#45;c</title>
<g id="a_node28"><a xlink:href="https://github.com/conda-forge/xerces-c-feedstock/pull/26" xlink:title="xerces c ❎">
<ellipse fill="#31688e" stroke="black" cx="156" cy="-234" rx="51.5" ry="18"/>
<text text-anchor="middle" x="156" y="-230.3" font-family="Times,serif" font-size="14.00" fill="white">xerces c ❎</text>
</a>
</g>
</g>
<!-- xerces&#45;c&#45;&gt;gdal -->
<g id="edge74" class="edge">
<title>xerces&#45;c&#45;&gt;gdal</title>
<path fill="none" stroke="black" d="M196.1,-222.5C204.64,-220.31 213.61,-218.05 222,-216 290.59,-199.23 371.07,-180.92 416.04,-170.81"/>
<polygon fill="black" stroke="black" points="416.89,-174.21 425.88,-168.6 415.35,-167.38 416.89,-174.21"/>
</g>
<!-- pyicu -->
<g id="node29" class="node">
<title>pyicu</title>
<g id="a_node29"><a xlink:href="https://github.com/conda-forge/pyicu-feedstock/pull/23" xlink:title="pyicu ❎">
<ellipse fill="#31688e" stroke="black" cx="1994" cy="-270" rx="42.49" ry="18"/>
<text text-anchor="middle" x="1994" y="-266.3" font-family="Times,serif" font-size="14.00" fill="white">pyicu ❎</text>
</a>
</g>
</g>
<!-- mongodb -->
<g id="node30" class="node">
<title>mongodb</title>
<g id="a_node30"><a xlink:href="https://github.com/conda-forge/mongodb-feedstock" xlink:title="mongodb">
<ellipse fill="#ff8c00" stroke="black" cx="1994" cy="-198" rx="44.39" ry="18"/>
<text text-anchor="middle" x="1994" y="-194.3" font-family="Times,serif" font-size="14.00">mongodb</text>
</a>
</g>
</g>
<!-- pyicu&#45;&gt;mongodb -->
</g>
</svg>
