<?xml version="1.0" encoding="UTF-8" standalone="no"?>
<!DOCTYPE svg PUBLIC "-//W3C//DTD SVG 1.1//EN"
 "http://www.w3.org/Graphics/SVG/1.1/DTD/svg11.dtd">
<!-- Generated by graphviz version 2.49.1 (20211004.0028)
 -->
<!-- Pages: 1 -->
<svg width="1043pt" height="764pt"
 viewBox="0.00 0.00 1043.05 764.00" xmlns="http://www.w3.org/2000/svg" xmlns:xlink="http://www.w3.org/1999/xlink">
<g id="graph0" class="graph" transform="scale(1 1) rotate(0) translate(4 760)">
<polygon fill="white" stroke="transparent" points="-4,4 -4,-760 1039.05,-760 1039.05,4 -4,4"/>
<!-- gdal -->
<g id="node1" class="node">
<title>gdal</title>
<g id="a_node1"><a xlink:href="https://github.com/conda-forge/gdal-feedstock" xlink:title="gdal">
<ellipse fill="#ff8c00" stroke="black" cx="30.55" cy="-378" rx="30.59" ry="18"/>
<text text-anchor="middle" x="30.55" y="-374.3" font-family="Times,serif" font-size="14.00">gdal</text>
</a>
</g>
</g>
<!-- qgis -->
<g id="node2" class="node">
<title>qgis</title>
<g id="a_node2"><a xlink:href="https://github.com/conda-forge/qgis-feedstock" xlink:title="qgis">
<ellipse fill="#fde725" stroke="black" cx="270.55" cy="-306" rx="30.59" ry="18"/>
<text text-anchor="middle" x="270.55" y="-302.3" font-family="Times,serif" font-size="14.00">qgis</text>
</a>
</g>
</g>
<!-- gdal&#45;&gt;qgis -->
<g id="edge1" class="edge">
<title>gdal&#45;&gt;qgis</title>
<path fill="none" stroke="black" d="M53.83,-366.16C58.95,-363.97 64.38,-361.79 69.55,-360 125.17,-340.67 191.55,-324.45 232.37,-315.23"/>
<polygon fill="black" stroke="black" points="233.18,-318.63 242.18,-313.04 231.65,-311.8 233.18,-318.63"/>
</g>
<!-- harfbuzz -->
<g id="node3" class="node">
<title>harfbuzz</title>
<g id="a_node3"><a xlink:href="https://github.com/conda-forge/harfbuzz-feedstock" xlink:title="harfbuzz">
<ellipse fill="#35b779" stroke="black" cx="571.55" cy="-450" rx="51.5" ry="18"/>
<text text-anchor="middle" x="571.55" y="-446.3" font-family="Times,serif" font-size="14.00">harfbuzz</text>
</a>
</g>
</g>
<!-- octave -->
<g id="node4" class="node">
<title>octave</title>
<g id="a_node4"><a xlink:href="https://github.com/conda-forge/octave-feedstock" xlink:title="octave">
<ellipse fill="#fde725" stroke="black" cx="419.55" cy="-378" rx="41" ry="18"/>
<text text-anchor="middle" x="419.55" y="-374.3" font-family="Times,serif" font-size="14.00">octave</text>
</a>
</g>
</g>
<!-- harfbuzz&#45;&gt;octave -->
<g id="edge2" class="edge">
<title>harfbuzz&#45;&gt;octave</title>
<path fill="none" stroke="black" d="M541.52,-435.17C516.94,-423.85 482.08,-407.8 455.92,-395.75"/>
<polygon fill="black" stroke="black" points="457.26,-392.51 446.71,-391.51 454.33,-398.87 457.26,-392.51"/>
</g>
<!-- r&#45;base -->
<g id="node5" class="node">
<title>r&#45;base</title>
<g id="a_node5"><a xlink:href="https://github.com/conda-forge/r-base-feedstock" xlink:title="r base">
<ellipse fill="#fde725" stroke="black" cx="518.55" cy="-378" rx="39.79" ry="18"/>
<text text-anchor="middle" x="518.55" y="-374.3" font-family="Times,serif" font-size="14.00">r base</text>
</a>
</g>
</g>
<!-- harfbuzz&#45;&gt;r&#45;base -->
<g id="edge3" class="edge">
<title>harfbuzz&#45;&gt;r&#45;base</title>
<path fill="none" stroke="black" d="M558.99,-432.41C552.45,-423.78 544.34,-413.06 537.1,-403.5"/>
<polygon fill="black" stroke="black" points="539.84,-401.33 531.02,-395.47 534.26,-405.56 539.84,-401.33"/>
</g>
<!-- tectonic -->
<g id="node6" class="node">
<title>tectonic</title>
<g id="a_node6"><a xlink:href="https://github.com/conda-forge/tectonic-feedstock" xlink:title="tectonic">
<ellipse fill="#fde725" stroke="black" cx="624.55" cy="-378" rx="48.19" ry="18"/>
<text text-anchor="middle" x="624.55" y="-374.3" font-family="Times,serif" font-size="14.00">tectonic</text>
</a>
</g>
</g>
<!-- harfbuzz&#45;&gt;tectonic -->
<g id="edge4" class="edge">
<title>harfbuzz&#45;&gt;tectonic</title>
<path fill="none" stroke="black" d="M584.11,-432.41C590.64,-423.78 598.76,-413.06 606,-403.5"/>
<polygon fill="black" stroke="black" points="608.83,-405.56 612.08,-395.47 603.25,-401.33 608.83,-405.56"/>
</g>
<!-- texlive&#45;core -->
<g id="node7" class="node">
<title>texlive&#45;core</title>
<g id="a_node7"><a xlink:href="https://github.com/conda-forge/texlive-core-feedstock" xlink:title="texlive core">
<ellipse fill="#fde725" stroke="black" cx="814.55" cy="-306" rx="65" ry="18"/>
<text text-anchor="middle" x="814.55" y="-302.3" font-family="Times,serif" font-size="14.00">texlive core</text>
</a>
</g>
</g>
<!-- harfbuzz&#45;&gt;texlive&#45;core -->
<g id="edge5" class="edge">
<title>harfbuzz&#45;&gt;texlive&#45;core</title>
<path fill="none" stroke="black" d="M619.8,-443.63C678.12,-436.14 771.44,-420.64 795.55,-396 811.3,-379.9 815.4,-354.12 815.94,-334.44"/>
<polygon fill="black" stroke="black" points="819.44,-334.23 815.93,-324.24 812.44,-334.24 819.44,-334.23"/>
</g>
<!-- r&#45;stringi -->
<g id="node8" class="node">
<title>r&#45;stringi</title>
<g id="a_node8"><a xlink:href="https://github.com/conda-forge/r-stringi-feedstock" xlink:title="r stringi">
<ellipse fill="#fde725" stroke="black" cx="518.55" cy="-306" rx="48.99" ry="18"/>
<text text-anchor="middle" x="518.55" y="-302.3" font-family="Times,serif" font-size="14.00">r stringi</text>
</a>
</g>
</g>
<!-- r&#45;base&#45;&gt;r&#45;stringi -->
<g id="edge6" class="edge">
<title>r&#45;base&#45;&gt;r&#45;stringi</title>
<path fill="none" stroke="black" d="M518.55,-359.7C518.55,-351.98 518.55,-342.71 518.55,-334.11"/>
<polygon fill="black" stroke="black" points="522.05,-334.1 518.55,-324.1 515.05,-334.1 522.05,-334.1"/>
</g>
<!-- r&#45;v8 -->
<g id="node9" class="node">
<title>r&#45;v8</title>
<g id="a_node9"><a xlink:href="https://github.com/conda-forge/r-v8-feedstock" xlink:title="r v8">
<ellipse fill="#fde725" stroke="black" cx="658.55" cy="-306" rx="29.5" ry="18"/>
<text text-anchor="middle" x="658.55" y="-302.3" font-family="Times,serif" font-size="14.00">r v8</text>
</a>
</g>
</g>
<!-- r&#45;base&#45;&gt;r&#45;v8 -->
<g id="edge7" class="edge">
<title>r&#45;base&#45;&gt;r&#45;v8</title>
<path fill="none" stroke="black" d="M544.23,-364.16C567.6,-352.47 602.19,-335.18 627.19,-322.68"/>
<polygon fill="black" stroke="black" points="628.88,-325.75 636.26,-318.14 625.75,-319.48 628.88,-325.75"/>
</g>
<!-- libxslt -->
<g id="node10" class="node">
<title>libxslt</title>
<g id="a_node10"><a xlink:href="https://github.com/conda-forge/libxslt-feedstock" xlink:title="libxslt">
<ellipse fill="#35b779" stroke="black" cx="202.55" cy="-450" rx="39.79" ry="18"/>
<text text-anchor="middle" x="202.55" y="-446.3" font-family="Times,serif" font-size="14.00">libxslt</text>
</a>
</g>
</g>
<!-- qtwebkit -->
<g id="node11" class="node">
<title>qtwebkit</title>
<g id="a_node11"><a xlink:href="https://github.com/conda-forge/qtwebkit-feedstock" xlink:title="qtwebkit">
<ellipse fill="#fde725" stroke="black" cx="270.55" cy="-378" rx="52" ry="18"/>
<text text-anchor="middle" x="270.55" y="-374.3" font-family="Times,serif" font-size="14.00">qtwebkit</text>
</a>
</g>
</g>
<!-- libxslt&#45;&gt;qtwebkit -->
<g id="edge8" class="edge">
<title>libxslt&#45;&gt;qtwebkit</title>
<path fill="none" stroke="black" d="M217.98,-433.12C226.72,-424.12 237.83,-412.68 247.58,-402.65"/>
<polygon fill="black" stroke="black" points="250.25,-404.92 254.71,-395.31 245.23,-400.04 250.25,-404.92"/>
</g>
<!-- libxmlsec1 -->
<g id="node12" class="node">
<title>libxmlsec1</title>
<g id="a_node12"><a xlink:href="https://github.com/conda-forge/libxmlsec1-feedstock" xlink:title="libxmlsec1">
<ellipse fill="#fde725" stroke="black" cx="139.55" cy="-378" rx="60.5" ry="18"/>
<text text-anchor="middle" x="139.55" y="-374.3" font-family="Times,serif" font-size="14.00">libxmlsec1</text>
</a>
</g>
</g>
<!-- libxslt&#45;&gt;libxmlsec1 -->
<g id="edge9" class="edge">
<title>libxslt&#45;&gt;libxmlsec1</title>
<path fill="none" stroke="black" d="M188.25,-433.12C180.35,-424.33 170.35,-413.23 161.48,-403.37"/>
<polygon fill="black" stroke="black" points="163.96,-400.89 154.66,-395.8 158.75,-405.57 163.96,-400.89"/>
</g>
<!-- qtwebkit&#45;&gt;qgis -->
<g id="edge10" class="edge">
<title>qtwebkit&#45;&gt;qgis</title>
<path fill="none" stroke="black" d="M270.55,-359.7C270.55,-351.98 270.55,-342.71 270.55,-334.11"/>
<polygon fill="black" stroke="black" points="274.05,-334.1 270.55,-324.1 267.05,-334.1 274.05,-334.1"/>
</g>
<!-- nodejs -->
<g id="node13" class="node">
<title>nodejs</title>
<g id="a_node13"><a xlink:href="https://github.com/conda-forge/nodejs-feedstock/pull/218" xlink:title="nodejs ✓">
<ellipse fill="#31688e" stroke="black" cx="961.55" cy="-738" rx="48.19" ry="18"/>
<text text-anchor="middle" x="961.55" y="-734.3" font-family="Times,serif" font-size="14.00" fill="white">nodejs ✓</text>
</a>
</g>
</g>
<!-- root5 -->
<g id="node14" class="node">
<title>root5</title>
<g id="a_node14"><a xlink:href="https://github.com/conda-forge/root5-feedstock" xlink:title="root5">
<ellipse fill="#ff8c00" stroke="black" cx="961.55" cy="-666" rx="36" ry="18"/>
<text text-anchor="middle" x="961.55" y="-662.3" font-family="Times,serif" font-size="14.00">root5</text>
</a>
</g>
</g>
<!-- nodejs&#45;&gt;root5 -->
<!-- uwsgi -->
<g id="node16" class="node">
<title>uwsgi</title>
<g id="a_node16"><a xlink:href="https://github.com/conda-forge/uwsgi-feedstock/pull/50" xlink:title="uwsgi ❎">
<ellipse fill="#31688e" stroke="black" cx="961.55" cy="-594" rx="52" ry="18"/>
<text text-anchor="middle" x="961.55" y="-590.3" font-family="Times,serif" font-size="14.00" fill="white">uwsgi ❎</text>
</a>
</g>
</g>
<!-- root5&#45;&gt;uwsgi -->
<!-- qt -->
<g id="node15" class="node">
<title>qt</title>
<g id="a_node15"><a xlink:href="https://github.com/conda-forge/qt-feedstock" xlink:title="qt">
<ellipse fill="#ff8c00" stroke="black" cx="350.55" cy="-450" rx="27" ry="18"/>
<text text-anchor="middle" x="350.55" y="-446.3" font-family="Times,serif" font-size="14.00">qt</text>
</a>
</g>
</g>
<!-- qt&#45;&gt;qgis -->
<g id="edge12" class="edge">
<title>qt&#45;&gt;qgis</title>
<path fill="none" stroke="black" d="M350.07,-431.77C348.86,-412.94 344.79,-382.45 331.55,-360 323.58,-346.48 310.92,-334.66 299.21,-325.63"/>
<polygon fill="black" stroke="black" points="301.05,-322.65 290.92,-319.57 296.92,-328.3 301.05,-322.65"/>
</g>
<!-- qt&#45;&gt;octave -->
<g id="edge13" class="edge">
<title>qt&#45;&gt;octave</title>
<path fill="none" stroke="black" d="M364.84,-434.5C373.99,-425.22 386.07,-412.97 396.54,-402.34"/>
<polygon fill="black" stroke="black" points="399.3,-404.53 403.83,-394.95 394.31,-399.61 399.3,-404.53"/>
</g>
<!-- qt&#45;&gt;qtwebkit -->
<g id="edge14" class="edge">
<title>qt&#45;&gt;qtwebkit</title>
<path fill="none" stroke="black" d="M334.74,-435.17C323.81,-425.6 309.01,-412.65 296.37,-401.6"/>
<polygon fill="black" stroke="black" points="298.67,-398.96 288.84,-395.01 294.06,-404.23 298.67,-398.96"/>
</g>
<!-- pyicu -->
<g id="node17" class="node">
<title>pyicu</title>
<g id="a_node17"><a xlink:href="https://github.com/conda-forge/pyicu-feedstock/pull/30" xlink:title="pyicu ❎">
<ellipse fill="#31688e" stroke="black" cx="961.55" cy="-522" rx="50.09" ry="18"/>
<text text-anchor="middle" x="961.55" y="-518.3" font-family="Times,serif" font-size="14.00" fill="white">pyicu ❎</text>
</a>
</g>
</g>
<!-- uwsgi&#45;&gt;pyicu -->
<!-- tensorflow -->
<g id="node18" class="node">
<title>tensorflow</title>
<g id="a_node18"><a xlink:href="https://github.com/conda-forge/tensorflow-feedstock/pull/159" xlink:title="tensorflow ❎">
<ellipse fill="#31688e" stroke="black" cx="961.55" cy="-450" rx="73.5" ry="18"/>
<text text-anchor="middle" x="961.55" y="-446.3" font-family="Times,serif" font-size="14.00" fill="white">tensorflow ❎</text>
</a>
</g>
</g>
<!-- pyicu&#45;&gt;tensorflow -->
<!-- mdsplus -->
<g id="node19" class="node">
<title>mdsplus</title>
<g id="a_node19"><a xlink:href="https://github.com/conda-forge/mdsplus-feedstock/pull/24" xlink:title="mdsplus ✓">
<ellipse fill="#31688e" stroke="black" cx="961.55" cy="-378" rx="57.39" ry="18"/>
<text text-anchor="middle" x="961.55" y="-374.3" font-family="Times,serif" font-size="14.00" fill="white">mdsplus ✓</text>
</a>
</g>
</g>
<!-- tensorflow&#45;&gt;mdsplus -->
<!-- mongodb -->
<g id="node20" class="node">
<title>mongodb</title>
<g id="a_node20"><a xlink:href="https://github.com/conda-forge/mongodb-feedstock/pull/38" xlink:title="mongodb ❎">
<ellipse fill="#31688e" stroke="black" cx="961.55" cy="-306" rx="67.69" ry="18"/>
<text text-anchor="middle" x="961.55" y="-302.3" font-family="Times,serif" font-size="14.00" fill="white">mongodb ❎</text>
</a>
</g>
</g>
<!-- mdsplus&#45;&gt;mongodb -->
<!-- scilab -->
<g id="node21" class="node">
<title>scilab</title>
<g id="a_node21"><a xlink:href="https://github.com/conda-forge/scilab-feedstock/pull/26" xlink:title="scilab ❎">
<ellipse fill="#31688e" stroke="black" cx="961.55" cy="-234" rx="52" ry="18"/>
<text text-anchor="middle" x="961.55" y="-230.3" font-family="Times,serif" font-size="14.00" fill="white">scilab ❎</text>
</a>
</g>
</g>
<!-- mongodb&#45;&gt;scilab -->
<!-- libical -->
<g id="node22" class="node">
<title>libical</title>
<g id="a_node22"><a xlink:href="https://github.com/conda-forge/libical-feedstock/pull/16" xlink:title="libical ✓">
<ellipse fill="#31688e" stroke="black" cx="961.55" cy="-162" rx="46.29" ry="18"/>
<text text-anchor="middle" x="961.55" y="-158.3" font-family="Times,serif" font-size="14.00" fill="white">libical ✓</text>
</a>
</g>
</g>
<!-- scilab&#45;&gt;libical -->
<!-- odil -->
<g id="node23" class="node">
<title>odil</title>
<g id="a_node23"><a xlink:href="https://github.com/conda-forge/odil-feedstock" xlink:title="odil">
<ellipse fill="#35b779" stroke="black" cx="961.55" cy="-90" rx="28" ry="18"/>
<text text-anchor="middle" x="961.55" y="-86.3" font-family="Times,serif" font-size="14.00">odil</text>
</a>
</g>
</g>
<!-- libical&#45;&gt;odil -->
<!-- libpsl -->
<g id="node25" class="node">
<title>libpsl</title>
<g id="a_node25"><a xlink:href="https://github.com/conda-forge/libpsl-feedstock/pull/5" xlink:title="libpsl ✓">
<ellipse fill="#31688e" stroke="black" cx="961.55" cy="-18" rx="43.59" ry="18"/>
<text text-anchor="middle" x="961.55" y="-14.3" font-family="Times,serif" font-size="14.00" fill="white">libpsl ✓</text>
</a>
</g>
</g>
<!-- odil&#45;&gt;libpsl -->
<!-- libv8 -->
<g id="node24" class="node">
<title>libv8</title>
<g id="a_node24"><a xlink:href="https://github.com/conda-forge/libv8-feedstock/pull/71" xlink:title="libv8 ❎">
<ellipse fill="#31688e" stroke="black" cx="738.55" cy="-378" rx="48.19" ry="18"/>
<text text-anchor="middle" x="738.55" y="-374.3" font-family="Times,serif" font-size="14.00" fill="white">libv8 ❎</text>
</a>
</g>
</g>
<!-- libv8&#45;&gt;r&#45;v8 -->
<g id="edge23" class="edge">
<title>libv8&#45;&gt;r&#45;v8</title>
<path fill="none" stroke="black" d="M720.39,-361.12C709.12,-351.26 694.52,-338.47 682.33,-327.81"/>
<polygon fill="black" stroke="black" points="684.56,-325.11 674.73,-321.16 679.95,-330.38 684.56,-325.11"/>
</g>
</g>
</svg>
