<?xml version="1.0" encoding="UTF-8" standalone="no"?>
<!DOCTYPE svg PUBLIC "-//W3C//DTD SVG 1.1//EN"
 "http://www.w3.org/Graphics/SVG/1.1/DTD/svg11.dtd">
<!-- Generated by graphviz version 2.49.1 (20211004.0028)
 -->
<!-- Pages: 1 -->
<svg width="1098pt" height="764pt"
 viewBox="0.00 0.00 1097.50 764.00" xmlns="http://www.w3.org/2000/svg" xmlns:xlink="http://www.w3.org/1999/xlink">
<g id="graph0" class="graph" transform="scale(1 1) rotate(0) translate(4 760)">
<polygon fill="white" stroke="transparent" points="-4,4 -4,-760 1093.5,-760 1093.5,4 -4,4"/>
<!-- cairo -->
<g id="node1" class="node">
<title>cairo</title>
<g id="a_node1"><a xlink:href="https://github.com/conda-forge/cairo-feedstock/pull/61" xlink:title="cairo ✓">
<ellipse fill="#31688e" stroke="black" cx="197" cy="-486" rx="41" ry="18"/>
<text text-anchor="middle" x="197" y="-482.3" font-family="Times,serif" font-size="14.00" fill="white">cairo ✓</text>
</a>
</g>
</g>
<!-- harfbuzz -->
<g id="node2" class="node">
<title>harfbuzz</title>
<g id="a_node2"><a xlink:href="https://github.com/conda-forge/harfbuzz-feedstock" xlink:title="harfbuzz">
<ellipse fill="#fde725" stroke="black" cx="237" cy="-414" rx="51.5" ry="18"/>
<text text-anchor="middle" x="237" y="-410.3" font-family="Times,serif" font-size="14.00">harfbuzz</text>
</a>
</g>
</g>
<!-- cairo&#45;&gt;harfbuzz -->
<g id="edge1" class="edge">
<title>cairo&#45;&gt;harfbuzz</title>
<path fill="none" stroke="black" d="M206.48,-468.41C211.19,-460.16 216.99,-450.01 222.27,-440.78"/>
<polygon fill="black" stroke="black" points="225.39,-442.38 227.31,-431.96 219.31,-438.9 225.39,-442.38"/>
</g>
<!-- octave -->
<g id="node3" class="node">
<title>octave</title>
<g id="a_node3"><a xlink:href="https://github.com/conda-forge/octave-feedstock" xlink:title="octave">
<ellipse fill="#fde725" stroke="black" cx="401" cy="-342" rx="41" ry="18"/>
<text text-anchor="middle" x="401" y="-338.3" font-family="Times,serif" font-size="14.00">octave</text>
</a>
</g>
</g>
<!-- cairo&#45;&gt;octave -->
<g id="edge2" class="edge">
<title>cairo&#45;&gt;octave</title>
<path fill="none" stroke="black" d="M236.49,-481.02C292.5,-474.46 390.6,-459.31 412,-432 425.82,-414.36 420.62,-388.43 413.43,-369.1"/>
<polygon fill="black" stroke="black" points="416.6,-367.6 409.57,-359.67 410.12,-370.25 416.6,-367.6"/>
</g>
<!-- r&#45;base -->
<g id="node4" class="node">
<title>r&#45;base</title>
<g id="a_node4"><a xlink:href="https://github.com/conda-forge/r-base-feedstock" xlink:title="r base">
<ellipse fill="#fde725" stroke="black" cx="188" cy="-342" rx="39.79" ry="18"/>
<text text-anchor="middle" x="188" y="-338.3" font-family="Times,serif" font-size="14.00">r base</text>
</a>
</g>
</g>
<!-- cairo&#45;&gt;r&#45;base -->
<g id="edge3" class="edge">
<title>cairo&#45;&gt;r&#45;base</title>
<path fill="none" stroke="black" d="M188.9,-468.26C184.42,-458.05 179.29,-444.58 177,-432 173.25,-411.45 176.45,-388 180.35,-370.33"/>
<polygon fill="black" stroke="black" points="183.86,-370.69 182.81,-360.15 177.06,-369.05 183.86,-370.69"/>
</g>
<!-- texlive&#45;core -->
<g id="node5" class="node">
<title>texlive&#45;core</title>
<g id="a_node5"><a xlink:href="https://github.com/conda-forge/texlive-core-feedstock" xlink:title="texlive core">
<ellipse fill="#fde725" stroke="black" cx="65" cy="-342" rx="65" ry="18"/>
<text text-anchor="middle" x="65" y="-338.3" font-family="Times,serif" font-size="14.00">texlive core</text>
</a>
</g>
</g>
<!-- cairo&#45;&gt;texlive&#45;core -->
<g id="edge4" class="edge">
<title>cairo&#45;&gt;texlive&#45;core</title>
<path fill="none" stroke="black" d="M182.11,-468.99C159.06,-444.19 114.58,-396.34 87.57,-367.28"/>
<polygon fill="black" stroke="black" points="89.81,-364.55 80.44,-359.61 84.69,-369.32 89.81,-364.55"/>
</g>
<!-- harfbuzz&#45;&gt;octave -->
<g id="edge5" class="edge">
<title>harfbuzz&#45;&gt;octave</title>
<path fill="none" stroke="black" d="M268.23,-399.67C295.29,-388.12 334.49,-371.39 363.29,-359.1"/>
<polygon fill="black" stroke="black" points="364.8,-362.26 372.62,-355.11 362.05,-355.82 364.8,-362.26"/>
</g>
<!-- harfbuzz&#45;&gt;r&#45;base -->
<g id="edge6" class="edge">
<title>harfbuzz&#45;&gt;r&#45;base</title>
<path fill="none" stroke="black" d="M225.39,-396.41C219.41,-387.87 211.99,-377.28 205.35,-367.79"/>
<polygon fill="black" stroke="black" points="208.13,-365.66 199.53,-359.47 202.4,-369.67 208.13,-365.66"/>
</g>
<!-- harfbuzz&#45;&gt;texlive&#45;core -->
<g id="edge7" class="edge">
<title>harfbuzz&#45;&gt;texlive&#45;core</title>
<path fill="none" stroke="black" d="M204.65,-399.83C177.78,-388.9 139.28,-373.23 109.5,-361.11"/>
<polygon fill="black" stroke="black" points="110.75,-357.84 100.17,-357.31 108.11,-364.32 110.75,-357.84"/>
</g>
<!-- tectonic -->
<g id="node6" class="node">
<title>tectonic</title>
<g id="a_node6"><a xlink:href="https://github.com/conda-forge/tectonic-feedstock" xlink:title="tectonic">
<ellipse fill="#fde725" stroke="black" cx="294" cy="-342" rx="48.19" ry="18"/>
<text text-anchor="middle" x="294" y="-338.3" font-family="Times,serif" font-size="14.00">tectonic</text>
</a>
</g>
</g>
<!-- harfbuzz&#45;&gt;tectonic -->
<g id="edge8" class="edge">
<title>harfbuzz&#45;&gt;tectonic</title>
<path fill="none" stroke="black" d="M250.51,-396.41C257.54,-387.78 266.26,-377.06 274.05,-367.5"/>
<polygon fill="black" stroke="black" points="276.99,-369.43 280.59,-359.47 271.56,-365.01 276.99,-369.43"/>
</g>
<!-- r&#45;stringi -->
<g id="node7" class="node">
<title>r&#45;stringi</title>
<g id="a_node7"><a xlink:href="https://github.com/conda-forge/r-stringi-feedstock" xlink:title="r stringi">
<ellipse fill="#fde725" stroke="black" cx="188" cy="-270" rx="48.99" ry="18"/>
<text text-anchor="middle" x="188" y="-266.3" font-family="Times,serif" font-size="14.00">r stringi</text>
</a>
</g>
</g>
<!-- r&#45;base&#45;&gt;r&#45;stringi -->
<g id="edge9" class="edge">
<title>r&#45;base&#45;&gt;r&#45;stringi</title>
<path fill="none" stroke="black" d="M188,-323.7C188,-315.98 188,-306.71 188,-298.11"/>
<polygon fill="black" stroke="black" points="191.5,-298.1 188,-288.1 184.5,-298.1 191.5,-298.1"/>
</g>
<!-- r&#45;v8 -->
<g id="node8" class="node">
<title>r&#45;v8</title>
<g id="a_node8"><a xlink:href="https://github.com/conda-forge/r-v8-feedstock" xlink:title="r v8">
<ellipse fill="#fde725" stroke="black" cx="396" cy="-270" rx="29.5" ry="18"/>
<text text-anchor="middle" x="396" y="-266.3" font-family="Times,serif" font-size="14.00">r v8</text>
</a>
</g>
</g>
<!-- r&#45;base&#45;&gt;r&#45;v8 -->
<g id="edge10" class="edge">
<title>r&#45;base&#45;&gt;r&#45;v8</title>
<path fill="none" stroke="black" d="M218.56,-330.33C224.67,-328.22 231.03,-326.03 237,-324 279.63,-309.5 328.82,-293.16 361.07,-282.51"/>
<polygon fill="black" stroke="black" points="362.51,-285.72 370.91,-279.26 360.31,-279.07 362.51,-285.72"/>
</g>
<!-- gdal -->
<g id="node9" class="node">
<title>gdal</title>
<g id="a_node9"><a xlink:href="https://github.com/conda-forge/gdal-feedstock" xlink:title="gdal">
<ellipse fill="#35b779" stroke="black" cx="904" cy="-342" rx="30.59" ry="18"/>
<text text-anchor="middle" x="904" y="-338.3" font-family="Times,serif" font-size="14.00">gdal</text>
</a>
</g>
</g>
<!-- qgis -->
<g id="node10" class="node">
<title>qgis</title>
<g id="a_node10"><a xlink:href="https://github.com/conda-forge/qgis-feedstock" xlink:title="qgis">
<ellipse fill="#fde725" stroke="black" cx="664" cy="-270" rx="30.59" ry="18"/>
<text text-anchor="middle" x="664" y="-266.3" font-family="Times,serif" font-size="14.00">qgis</text>
</a>
</g>
</g>
<!-- gdal&#45;&gt;qgis -->
<g id="edge11" class="edge">
<title>gdal&#45;&gt;qgis</title>
<path fill="none" stroke="black" d="M880.72,-330.16C875.6,-327.97 870.16,-325.79 865,-324 809.38,-304.67 743,-288.45 702.18,-279.23"/>
<polygon fill="black" stroke="black" points="702.89,-275.8 692.37,-277.04 701.37,-282.63 702.89,-275.8"/>
</g>
<!-- libgd -->
<g id="node11" class="node">
<title>libgd</title>
<g id="a_node11"><a xlink:href="https://github.com/conda-forge/libgd-feedstock/pull/44" xlink:title="libgd ❎">
<ellipse fill="#31688e" stroke="black" cx="355" cy="-414" rx="48.19" ry="18"/>
<text text-anchor="middle" x="355" y="-410.3" font-family="Times,serif" font-size="14.00" fill="white">libgd ❎</text>
</a>
</g>
</g>
<!-- libgd&#45;&gt;octave -->
<g id="edge12" class="edge">
<title>libgd&#45;&gt;octave</title>
<path fill="none" stroke="black" d="M365.9,-396.41C371.46,-387.95 378.33,-377.49 384.52,-368.08"/>
<polygon fill="black" stroke="black" points="387.61,-369.75 390.18,-359.47 381.76,-365.9 387.61,-369.75"/>
</g>
<!-- libxslt -->
<g id="node12" class="node">
<title>libxslt</title>
<g id="a_node12"><a xlink:href="https://github.com/conda-forge/libxslt-feedstock" xlink:title="libxslt">
<ellipse fill="#35b779" stroke="black" cx="732" cy="-414" rx="39.79" ry="18"/>
<text text-anchor="middle" x="732" y="-410.3" font-family="Times,serif" font-size="14.00">libxslt</text>
</a>
</g>
</g>
<!-- qtwebkit -->
<g id="node13" class="node">
<title>qtwebkit</title>
<g id="a_node13"><a xlink:href="https://github.com/conda-forge/qtwebkit-feedstock" xlink:title="qtwebkit">
<ellipse fill="#fde725" stroke="black" cx="664" cy="-342" rx="52" ry="18"/>
<text text-anchor="middle" x="664" y="-338.3" font-family="Times,serif" font-size="14.00">qtwebkit</text>
</a>
</g>
</g>
<!-- libxslt&#45;&gt;qtwebkit -->
<g id="edge13" class="edge">
<title>libxslt&#45;&gt;qtwebkit</title>
<path fill="none" stroke="black" d="M716.57,-397.12C707.83,-388.12 696.72,-376.68 686.97,-366.65"/>
<polygon fill="black" stroke="black" points="689.32,-364.04 679.84,-359.31 684.3,-368.92 689.32,-364.04"/>
</g>
<!-- libxmlsec1 -->
<g id="node14" class="node">
<title>libxmlsec1</title>
<g id="a_node14"><a xlink:href="https://github.com/conda-forge/libxmlsec1-feedstock" xlink:title="libxmlsec1">
<ellipse fill="#fde725" stroke="black" cx="795" cy="-342" rx="60.5" ry="18"/>
<text text-anchor="middle" x="795" y="-338.3" font-family="Times,serif" font-size="14.00">libxmlsec1</text>
</a>
</g>
</g>
<!-- libxslt&#45;&gt;libxmlsec1 -->
<g id="edge14" class="edge">
<title>libxslt&#45;&gt;libxmlsec1</title>
<path fill="none" stroke="black" d="M746.3,-397.12C754.2,-388.33 764.19,-377.23 773.07,-367.37"/>
<polygon fill="black" stroke="black" points="775.79,-369.57 779.88,-359.8 770.59,-364.89 775.79,-369.57"/>
</g>
<!-- qtwebkit&#45;&gt;qgis -->
<g id="edge15" class="edge">
<title>qtwebkit&#45;&gt;qgis</title>
<path fill="none" stroke="black" d="M664,-323.7C664,-315.98 664,-306.71 664,-298.11"/>
<polygon fill="black" stroke="black" points="667.5,-298.1 664,-288.1 660.5,-298.1 667.5,-298.1"/>
</g>
<!-- nodejs -->
<g id="node15" class="node">
<title>nodejs</title>
<g id="a_node15"><a xlink:href="https://github.com/conda-forge/nodejs-feedstock/pull/218" xlink:title="nodejs ✓">
<ellipse fill="#31688e" stroke="black" cx="1016" cy="-738" rx="48.19" ry="18"/>
<text text-anchor="middle" x="1016" y="-734.3" font-family="Times,serif" font-size="14.00" fill="white">nodejs ✓</text>
</a>
</g>
</g>
<!-- root5 -->
<g id="node16" class="node">
<title>root5</title>
<g id="a_node16"><a xlink:href="https://github.com/conda-forge/root5-feedstock" xlink:title="root5">
<ellipse fill="#ff8c00" stroke="black" cx="1016" cy="-666" rx="36" ry="18"/>
<text text-anchor="middle" x="1016" y="-662.3" font-family="Times,serif" font-size="14.00">root5</text>
</a>
</g>
</g>
<!-- nodejs&#45;&gt;root5 -->
<!-- uwsgi -->
<g id="node18" class="node">
<title>uwsgi</title>
<g id="a_node18"><a xlink:href="https://github.com/conda-forge/uwsgi-feedstock/pull/50" xlink:title="uwsgi ❎">
<ellipse fill="#31688e" stroke="black" cx="1016" cy="-594" rx="52" ry="18"/>
<text text-anchor="middle" x="1016" y="-590.3" font-family="Times,serif" font-size="14.00" fill="white">uwsgi ❎</text>
</a>
</g>
</g>
<!-- root5&#45;&gt;uwsgi -->
<!-- qt -->
<g id="node17" class="node">
<title>qt</title>
<g id="a_node17"><a xlink:href="https://github.com/conda-forge/qt-feedstock" xlink:title="qt">
<ellipse fill="#ff8c00" stroke="black" cx="584" cy="-414" rx="27" ry="18"/>
<text text-anchor="middle" x="584" y="-410.3" font-family="Times,serif" font-size="14.00">qt</text>
</a>
</g>
</g>
<!-- qt&#45;&gt;octave -->
<g id="edge17" class="edge">
<title>qt&#45;&gt;octave</title>
<path fill="none" stroke="black" d="M561.19,-404.28C530.94,-392.7 477.07,-372.1 440.22,-358"/>
<polygon fill="black" stroke="black" points="441.37,-354.69 430.78,-354.39 438.87,-361.23 441.37,-354.69"/>
</g>
<!-- qt&#45;&gt;qgis -->
<g id="edge18" class="edge">
<title>qt&#45;&gt;qgis</title>
<path fill="none" stroke="black" d="M584.48,-395.77C585.69,-376.94 589.76,-346.45 603,-324 610.97,-310.48 623.62,-298.66 635.34,-289.63"/>
<polygon fill="black" stroke="black" points="637.63,-292.3 643.63,-283.57 633.49,-286.65 637.63,-292.3"/>
</g>
<!-- qt&#45;&gt;qtwebkit -->
<g id="edge19" class="edge">
<title>qt&#45;&gt;qtwebkit</title>
<path fill="none" stroke="black" d="M599.81,-399.17C610.74,-389.6 625.54,-376.65 638.18,-365.6"/>
<polygon fill="black" stroke="black" points="640.49,-368.23 645.71,-359.01 635.88,-362.96 640.49,-368.23"/>
</g>
<!-- pyicu -->
<g id="node19" class="node">
<title>pyicu</title>
<g id="a_node19"><a xlink:href="https://github.com/conda-forge/pyicu-feedstock/pull/30" xlink:title="pyicu ❎">
<ellipse fill="#31688e" stroke="black" cx="1016" cy="-522" rx="50.09" ry="18"/>
<text text-anchor="middle" x="1016" y="-518.3" font-family="Times,serif" font-size="14.00" fill="white">pyicu ❎</text>
</a>
</g>
</g>
<!-- uwsgi&#45;&gt;pyicu -->
<!-- tensorflow -->
<g id="node20" class="node">
<title>tensorflow</title>
<g id="a_node20"><a xlink:href="https://github.com/conda-forge/tensorflow-feedstock/pull/159" xlink:title="tensorflow ❎">
<ellipse fill="#31688e" stroke="black" cx="1016" cy="-450" rx="73.5" ry="18"/>
<text text-anchor="middle" x="1016" y="-446.3" font-family="Times,serif" font-size="14.00" fill="white">tensorflow ❎</text>
</a>
</g>
</g>
<!-- pyicu&#45;&gt;tensorflow -->
<!-- mdsplus -->
<g id="node21" class="node">
<title>mdsplus</title>
<g id="a_node21"><a xlink:href="https://github.com/conda-forge/mdsplus-feedstock/pull/24" xlink:title="mdsplus ✓">
<ellipse fill="#31688e" stroke="black" cx="1016" cy="-378" rx="57.39" ry="18"/>
<text text-anchor="middle" x="1016" y="-374.3" font-family="Times,serif" font-size="14.00" fill="white">mdsplus ✓</text>
</a>
</g>
</g>
<!-- tensorflow&#45;&gt;mdsplus -->
<!-- mongodb -->
<g id="node22" class="node">
<title>mongodb</title>
<g id="a_node22"><a xlink:href="https://github.com/conda-forge/mongodb-feedstock" xlink:title="mongodb">
<ellipse fill="#35b779" stroke="black" cx="1016" cy="-306" rx="54" ry="18"/>
<text text-anchor="middle" x="1016" y="-302.3" font-family="Times,serif" font-size="14.00">mongodb</text>
</a>
</g>
</g>
<!-- mdsplus&#45;&gt;mongodb -->
<!-- scilab -->
<g id="node23" class="node">
<title>scilab</title>
<g id="a_node23"><a xlink:href="https://github.com/conda-forge/scilab-feedstock/pull/26" xlink:title="scilab ❎">
<ellipse fill="#31688e" stroke="black" cx="1016" cy="-234" rx="52" ry="18"/>
<text text-anchor="middle" x="1016" y="-230.3" font-family="Times,serif" font-size="14.00" fill="white">scilab ❎</text>
</a>
</g>
</g>
<!-- mongodb&#45;&gt;scilab -->
<!-- libical -->
<g id="node24" class="node">
<title>libical</title>
<g id="a_node24"><a xlink:href="https://github.com/conda-forge/libical-feedstock/pull/16" xlink:title="libical ❎">
<ellipse fill="#31688e" stroke="black" cx="1016" cy="-162" rx="52.79" ry="18"/>
<text text-anchor="middle" x="1016" y="-158.3" font-family="Times,serif" font-size="14.00" fill="white">libical ❎</text>
</a>
</g>
</g>
<!-- scilab&#45;&gt;libical -->
<!-- odil -->
<g id="node25" class="node">
<title>odil</title>
<g id="a_node25"><a xlink:href="https://github.com/conda-forge/odil-feedstock" xlink:title="odil">
<ellipse fill="#35b779" stroke="black" cx="1016" cy="-90" rx="28" ry="18"/>
<text text-anchor="middle" x="1016" y="-86.3" font-family="Times,serif" font-size="14.00">odil</text>
</a>
</g>
</g>
<!-- libical&#45;&gt;odil -->
<!-- libpsl -->
<g id="node27" class="node">
<title>libpsl</title>
<g id="a_node27"><a xlink:href="https://github.com/conda-forge/libpsl-feedstock/pull/5" xlink:title="libpsl ✓">
<ellipse fill="#31688e" stroke="black" cx="1016" cy="-18" rx="43.59" ry="18"/>
<text text-anchor="middle" x="1016" y="-14.3" font-family="Times,serif" font-size="14.00" fill="white">libpsl ✓</text>
</a>
</g>
</g>
<!-- odil&#45;&gt;libpsl -->
<!-- libv8 -->
<g id="node26" class="node">
<title>libv8</title>
<g id="a_node26"><a xlink:href="https://github.com/conda-forge/libv8-feedstock/pull/71" xlink:title="libv8 ❎">
<ellipse fill="#31688e" stroke="black" cx="508" cy="-342" rx="48.19" ry="18"/>
<text text-anchor="middle" x="508" y="-338.3" font-family="Times,serif" font-size="14.00" fill="white">libv8 ❎</text>
</a>
</g>
</g>
<!-- libv8&#45;&gt;r&#45;v8 -->
<g id="edge28" class="edge">
<title>libv8&#45;&gt;r&#45;v8</title>
<path fill="none" stroke="black" d="M484.25,-326.15C466.81,-315.26 443.04,-300.4 424.57,-288.86"/>
<polygon fill="black" stroke="black" points="426.31,-285.82 415.97,-283.48 422.6,-291.75 426.31,-285.82"/>
</g>
</g>
</svg>
