<?xml version="1.0" encoding="UTF-8" standalone="no"?>
<!DOCTYPE svg PUBLIC "-//W3C//DTD SVG 1.1//EN"
 "http://www.w3.org/Graphics/SVG/1.1/DTD/svg11.dtd">
<!-- Generated by graphviz version 2.50.0 (20220117.2223)
 -->
<!-- Pages: 1 -->
<svg width="468pt" height="160pt"
 viewBox="0.00 0.00 467.54 160.00" xmlns="http://www.w3.org/2000/svg" xmlns:xlink="http://www.w3.org/1999/xlink">
<g id="graph0" class="graph" transform="scale(1 1) rotate(0) translate(4 156)">
<polygon fill="white" stroke="transparent" points="-4,4 -4,-156 463.54,-156 463.54,4 -4,4"/>
<!-- octave -->
<g id="node1" class="node">
<title>octave</title>
<g id="a_node1"><a xlink:href="https://github.com/conda-forge/octave-feedstock" xlink:title="octave">
<ellipse fill="#fde725" stroke="black" cx="40.95" cy="-62" rx="40.89" ry="18"/>
<text text-anchor="middle" x="40.95" y="-58.3" font-family="Times,serif" font-size="14.00">octave</text>
</a>
</g>
</g>
<!-- qgis -->
<g id="node2" class="node">
<title>qgis</title>
<g id="a_node2"><a xlink:href="https://github.com/conda-forge/qgis-feedstock" xlink:title="qgis">
<ellipse fill="#fde725" stroke="black" cx="140.95" cy="-62" rx="30.59" ry="18"/>
<text text-anchor="middle" x="140.95" y="-58.3" font-family="Times,serif" font-size="14.00">qgis</text>
</a>
</g>
</g>
<!-- qt -->
<g id="node3" class="node">
<title>qt</title>
<g id="a_node3"><a xlink:href="https://github.com/conda-forge/qt-feedstock/pull/207" xlink:title="qt ❎">
<ellipse fill="#31688e" stroke="black" cx="40.95" cy="-134" rx="34.39" ry="18"/>
<text text-anchor="middle" x="40.95" y="-130.3" font-family="Times,serif" font-size="14.00" fill="white">qt ❎</text>
</a>
</g>
</g>
<!-- qt&#45;&gt;octave -->
<g id="edge1" class="edge">
<title>qt&#45;&gt;octave</title>
<path fill="none" stroke="black" d="M40.95,-115.7C40.95,-107.98 40.95,-98.71 40.95,-90.11"/>
<polygon fill="black" stroke="black" points="44.45,-90.1 40.95,-80.1 37.45,-90.1 44.45,-90.1"/>
</g>
<!-- qt&#45;&gt;qgis -->
<g id="edge2" class="edge">
<title>qt&#45;&gt;qgis</title>
<path fill="none" stroke="black" d="M60.7,-119.17C75.83,-108.58 96.86,-93.86 113.6,-82.14"/>
<polygon fill="black" stroke="black" points="115.72,-84.93 121.91,-76.33 111.71,-79.19 115.72,-84.93"/>
</g>
<!-- qtwebkit -->
<g id="node4" class="node">
<title>qtwebkit</title>
<g id="a_node4"><a xlink:href="https://github.com/conda-forge/qtwebkit-feedstock/pull/19" xlink:title="qtwebkit ✓">
<ellipse fill="#31688e" stroke="black" cx="152.95" cy="-134" rx="59.29" ry="18"/>
<text text-anchor="middle" x="152.95" y="-130.3" font-family="Times,serif" font-size="14.00" fill="white">qtwebkit ✓</text>
</a>
</g>
</g>
<!-- qtwebkit&#45;&gt;qgis -->
<g id="edge3" class="edge">
<title>qtwebkit&#45;&gt;qgis</title>
<path fill="none" stroke="black" d="M149.98,-115.7C148.66,-107.98 147.07,-98.71 145.59,-90.11"/>
<polygon fill="black" stroke="black" points="149.02,-89.37 143.88,-80.1 142.12,-90.55 149.02,-89.37"/>
</g>
<!-- pyicu -->
<g id="node5" class="node">
<title>pyicu</title>
<g id="a_node5"><a xlink:href="https://github.com/conda-forge/pyicu-feedstock/pull/34" xlink:title="pyicu ✓">
<ellipse fill="#31688e" stroke="black" cx="268.95" cy="-18" rx="42.79" ry="18"/>
<text text-anchor="middle" x="268.95" y="-14.3" font-family="Times,serif" font-size="14.00" fill="white">pyicu ✓</text>
</a>
</g>
</g>
<!-- scilab -->
<g id="node6" class="node">
<title>scilab</title>
<g id="a_node6"><a xlink:href="https://github.com/conda-forge/scilab-feedstock/pull/26" xlink:title="scilab ❎">
<ellipse fill="#31688e" stroke="black" cx="106.95" cy="-18" rx="51.99" ry="18"/>
<text text-anchor="middle" x="106.95" y="-14.3" font-family="Times,serif" font-size="14.00" fill="white">scilab ❎</text>
</a>
</g>
</g>
<!-- libv8 -->
<g id="node7" class="node">
<title>libv8</title>
<g id="a_node7"><a xlink:href="https://github.com/conda-forge/libv8-feedstock/pull/71" xlink:title="libv8 ❎">
<ellipse fill="#31688e" stroke="black" cx="268.95" cy="-134" rx="48.19" ry="18"/>
<text text-anchor="middle" x="268.95" y="-130.3" font-family="Times,serif" font-size="14.00" fill="white">libv8 ❎</text>
</a>
</g>
</g>
<!-- r&#45;v8 -->
<g id="node8" class="node">
<title>r&#45;v8</title>
<g id="a_node8"><a xlink:href="https://github.com/conda-forge/r-v8-feedstock" xlink:title="r v8">
<ellipse fill="#fde725" stroke="black" cx="268.95" cy="-62" rx="29.5" ry="18"/>
<text text-anchor="middle" x="268.95" y="-58.3" font-family="Times,serif" font-size="14.00">r v8</text>
</a>
</g>
</g>
<!-- libv8&#45;&gt;r&#45;v8 -->
<g id="edge4" class="edge">
<title>libv8&#45;&gt;r&#45;v8</title>
<path fill="none" stroke="black" d="M268.95,-115.7C268.95,-107.98 268.95,-98.71 268.95,-90.11"/>
<polygon fill="black" stroke="black" points="272.45,-90.1 268.95,-80.1 265.45,-90.1 272.45,-90.1"/>
</g>
<!-- libxmlsec1 -->
<g id="node9" class="node">
<title>libxmlsec1</title>
<g id="a_node9"><a xlink:href="https://github.com/conda-forge/libxmlsec1-feedstock/pull/5" xlink:title="libxmlsec1 ✓">
<ellipse fill="#31688e" stroke="black" cx="391.95" cy="-98" rx="67.69" ry="18"/>
<text text-anchor="middle" x="391.95" y="-94.3" font-family="Times,serif" font-size="14.00" fill="white">libxmlsec1 ✓</text>
</a>
</g>
</g>
</g>
</svg>
