<?xml version="1.0" encoding="UTF-8" standalone="no"?>
<!DOCTYPE svg PUBLIC "-//W3C//DTD SVG 1.1//EN"
 "http://www.w3.org/Graphics/SVG/1.1/DTD/svg11.dtd">
<!-- Generated by graphviz version 2.42.3 (20191010.1750)
 -->
<!-- Title: %3 Pages: 1 -->
<svg width="1519pt" height="476pt"
 viewBox="0.00 0.00 1519.17 476.00" xmlns="http://www.w3.org/2000/svg" xmlns:xlink="http://www.w3.org/1999/xlink">
<g id="graph0" class="graph" transform="scale(1 1) rotate(0) translate(4 472)">
<title>%3</title>
<polygon fill="white" stroke="transparent" points="-4,4 -4,-472 1515.17,-472 1515.17,4 -4,4"/>
<!-- cairo -->
<g id="node1" class="node">
<title>cairo</title>
<g id="a_node1"><a xlink:href="https://github.com/conda-forge/cairo-feedstock" xlink:title="cairo">
<ellipse fill="#fde725" stroke="black" cx="402.17" cy="-342" rx="28.7" ry="18"/>
<text text-anchor="middle" x="402.17" y="-338.3" font-family="Times,serif" font-size="14.00">cairo</text>
</a>
</g>
</g>
<!-- gdal -->
<g id="node2" class="node">
<title>gdal</title>
<g id="a_node2"><a xlink:href="https://github.com/conda-forge/gdal-feedstock" xlink:title="gdal">
<ellipse fill="#fde725" stroke="black" cx="948.17" cy="-198" rx="27" ry="18"/>
<text text-anchor="middle" x="948.17" y="-194.3" font-family="Times,serif" font-size="14.00">gdal</text>
</a>
</g>
</g>
<!-- cairo&#45;&gt;gdal -->
<g id="edge1" class="edge">
<title>cairo&#45;&gt;gdal</title>
<path fill="none" stroke="black" d="M423.82,-329.82C429.05,-327.54 434.71,-325.41 440.17,-324 622.42,-276.9 692.17,-368.83 862.17,-288 892.06,-273.79 917.11,-244.47 932.33,-223.36"/>
<polygon fill="black" stroke="black" points="935.39,-225.09 938.23,-214.88 929.64,-221.09 935.39,-225.09"/>
</g>
<!-- harfbuzz -->
<g id="node3" class="node">
<title>harfbuzz</title>
<g id="a_node3"><a xlink:href="https://github.com/conda-forge/harfbuzz-feedstock" xlink:title="harfbuzz">
<ellipse fill="#fde725" stroke="black" cx="487.17" cy="-270" rx="41.69" ry="18"/>
<text text-anchor="middle" x="487.17" y="-266.3" font-family="Times,serif" font-size="14.00">harfbuzz</text>
</a>
</g>
</g>
<!-- cairo&#45;&gt;harfbuzz -->
<g id="edge2" class="edge">
<title>cairo&#45;&gt;harfbuzz</title>
<path fill="none" stroke="black" d="M418.97,-327.17C430.83,-317.4 446.96,-304.11 460.56,-292.91"/>
<polygon fill="black" stroke="black" points="463.15,-295.32 468.64,-286.26 458.7,-289.91 463.15,-295.32"/>
</g>
<!-- octave -->
<g id="node4" class="node">
<title>octave</title>
<g id="a_node4"><a xlink:href="https://github.com/conda-forge/octave-feedstock" xlink:title="octave">
<ellipse fill="#fde725" stroke="black" cx="478.17" cy="-126" rx="34" ry="18"/>
<text text-anchor="middle" x="478.17" y="-122.3" font-family="Times,serif" font-size="14.00">octave</text>
</a>
</g>
</g>
<!-- cairo&#45;&gt;octave -->
<g id="edge3" class="edge">
<title>cairo&#45;&gt;octave</title>
<path fill="none" stroke="black" d="M374.16,-337.96C344.37,-333.07 298.65,-320.43 277.17,-288 268.34,-274.66 269.68,-266.14 277.17,-252 310.46,-189.15 390.61,-154.15 439.04,-138.07"/>
<polygon fill="black" stroke="black" points="440.12,-141.4 448.58,-135.01 437.99,-134.73 440.12,-141.4"/>
</g>
<!-- python&#45;igraph -->
<g id="node5" class="node">
<title>python&#45;igraph</title>
<g id="a_node5"><a xlink:href="https://github.com/conda-forge/python-igraph-feedstock" xlink:title="python igraph">
<ellipse fill="#fde725" stroke="black" cx="683.17" cy="-270" rx="60" ry="18"/>
<text text-anchor="middle" x="683.17" y="-266.3" font-family="Times,serif" font-size="14.00">python igraph</text>
</a>
</g>
</g>
<!-- cairo&#45;&gt;python&#45;igraph -->
<g id="edge4" class="edge">
<title>cairo&#45;&gt;python&#45;igraph</title>
<path fill="none" stroke="black" d="M423.97,-330.31C429.19,-328.01 434.81,-325.75 440.17,-324 513.18,-300.19 534.19,-304.6 609.17,-288 614.94,-286.72 620.96,-285.37 626.97,-284.01"/>
<polygon fill="black" stroke="black" points="628.04,-287.36 637.01,-281.72 626.49,-280.53 628.04,-287.36"/>
</g>
<!-- r&#45;base -->
<g id="node6" class="node">
<title>r&#45;base</title>
<g id="a_node6"><a xlink:href="https://github.com/conda-forge/r-base-feedstock" xlink:title="r base">
<ellipse fill="#fde725" stroke="black" cx="197.17" cy="-198" rx="32" ry="18"/>
<text text-anchor="middle" x="197.17" y="-194.3" font-family="Times,serif" font-size="14.00">r base</text>
</a>
</g>
</g>
<!-- cairo&#45;&gt;r&#45;base -->
<g id="edge5" class="edge">
<title>cairo&#45;&gt;r&#45;base</title>
<path fill="none" stroke="black" d="M374.03,-338.09C339.56,-333.2 281.09,-320.44 243.17,-288 224.04,-271.63 211.84,-245.31 204.84,-225.54"/>
<polygon fill="black" stroke="black" points="208.11,-224.27 201.65,-215.88 201.47,-226.47 208.11,-224.27"/>
</g>
<!-- texlive&#45;core -->
<g id="node7" class="node">
<title>texlive&#45;core</title>
<g id="a_node7"><a xlink:href="https://github.com/conda-forge/texlive-core-feedstock" xlink:title="texlive core">
<ellipse fill="#fde725" stroke="black" cx="596.17" cy="-198" rx="52" ry="18"/>
<text text-anchor="middle" x="596.17" y="-194.3" font-family="Times,serif" font-size="14.00">texlive core</text>
</a>
</g>
</g>
<!-- cairo&#45;&gt;texlive&#45;core -->
<g id="edge6" class="edge">
<title>cairo&#45;&gt;texlive&#45;core</title>
<path fill="none" stroke="black" d="M424.57,-330.68C429.67,-328.41 435.08,-326.07 440.17,-324 483.15,-306.52 501.88,-316.91 538.17,-288 559.12,-271.31 574.97,-244.91 584.76,-225.19"/>
<polygon fill="black" stroke="black" points="587.94,-226.66 589.08,-216.12 581.62,-223.65 587.94,-226.66"/>
</g>
<!-- gtk2 -->
<g id="node8" class="node">
<title>gtk2</title>
<g id="a_node8"><a xlink:href="https://github.com/conda-forge/gtk2-feedstock" xlink:title="gtk2">
<ellipse fill="#fde725" stroke="black" cx="833.17" cy="-198" rx="27" ry="18"/>
<text text-anchor="middle" x="833.17" y="-194.3" font-family="Times,serif" font-size="14.00">gtk2</text>
</a>
</g>
</g>
<!-- cairo&#45;&gt;gtk2 -->
<g id="edge7" class="edge">
<title>cairo&#45;&gt;gtk2</title>
<path fill="none" stroke="black" d="M424.46,-330.39C429.56,-328.14 435.01,-325.88 440.17,-324 495.32,-303.97 514.73,-314.3 567.17,-288 590.69,-276.2 590.19,-262.82 614.17,-252 689.73,-217.9 718.43,-241.89 797.17,-216 799.09,-215.37 801.04,-214.66 803,-213.9"/>
<polygon fill="black" stroke="black" points="804.78,-216.94 812.59,-209.78 802.02,-210.51 804.78,-216.94"/>
</g>
<!-- libical -->
<g id="node9" class="node">
<title>libical</title>
<g id="a_node9"><a xlink:href="https://github.com/conda-forge/libical-feedstock" xlink:title="libical">
<ellipse fill="#fde725" stroke="black" cx="318.17" cy="-270" rx="32.5" ry="18"/>
<text text-anchor="middle" x="318.17" y="-266.3" font-family="Times,serif" font-size="14.00">libical</text>
</a>
</g>
</g>
<!-- cairo&#45;&gt;libical -->
<g id="edge8" class="edge">
<title>cairo&#45;&gt;libical</title>
<path fill="none" stroke="black" d="M385.58,-327.17C373.62,-317.21 357.26,-303.57 343.65,-292.23"/>
<polygon fill="black" stroke="black" points="345.52,-289.24 335.6,-285.52 341.04,-294.61 345.52,-289.24"/>
</g>
<!-- qgis -->
<g id="node10" class="node">
<title>qgis</title>
<g id="a_node10"><a xlink:href="https://github.com/conda-forge/qgis-feedstock" xlink:title="qgis">
<ellipse fill="#fde725" stroke="black" cx="860.17" cy="-126" rx="27" ry="18"/>
<text text-anchor="middle" x="860.17" y="-122.3" font-family="Times,serif" font-size="14.00">qgis</text>
</a>
</g>
</g>
<!-- gdal&#45;&gt;qgis -->
<g id="edge9" class="edge">
<title>gdal&#45;&gt;qgis</title>
<path fill="none" stroke="black" d="M931.21,-183.5C918.1,-173.08 899.76,-158.49 885,-146.75"/>
<polygon fill="black" stroke="black" points="886.79,-143.7 876.79,-140.22 882.44,-149.18 886.79,-143.7"/>
</g>
<!-- harfbuzz&#45;&gt;gdal -->
<g id="edge10" class="edge">
<title>harfbuzz&#45;&gt;gdal</title>
<path fill="none" stroke="black" d="M526.21,-263.75C616.74,-251.55 835.84,-221.89 869.17,-216 883.59,-213.45 899.39,-210.15 913.04,-207.14"/>
<polygon fill="black" stroke="black" points="914.01,-210.51 923.01,-204.91 912.48,-203.68 914.01,-210.51"/>
</g>
<!-- harfbuzz&#45;&gt;octave -->
<g id="edge11" class="edge">
<title>harfbuzz&#45;&gt;octave</title>
<path fill="none" stroke="black" d="M486.09,-251.87C484.55,-227.67 481.74,-183.21 479.91,-154.39"/>
<polygon fill="black" stroke="black" points="483.39,-153.95 479.26,-144.19 476.4,-154.39 483.39,-153.95"/>
</g>
<!-- harfbuzz&#45;&gt;r&#45;base -->
<g id="edge12" class="edge">
<title>harfbuzz&#45;&gt;r&#45;base</title>
<path fill="none" stroke="black" d="M451.61,-260.42C396.94,-247.22 292.63,-222.04 236.03,-208.38"/>
<polygon fill="black" stroke="black" points="236.58,-204.91 226.04,-205.97 234.94,-211.72 236.58,-204.91"/>
</g>
<!-- harfbuzz&#45;&gt;texlive&#45;core -->
<g id="edge13" class="edge">
<title>harfbuzz&#45;&gt;texlive&#45;core</title>
<path fill="none" stroke="black" d="M509.49,-254.67C525.09,-244.65 546.16,-231.12 563.62,-219.91"/>
<polygon fill="black" stroke="black" points="565.85,-222.63 572.37,-214.29 562.07,-216.74 565.85,-222.63"/>
</g>
<!-- harfbuzz&#45;&gt;gtk2 -->
<g id="edge14" class="edge">
<title>harfbuzz&#45;&gt;gtk2</title>
<path fill="none" stroke="black" d="M524.66,-262.1C541.87,-258.96 562.55,-255.24 581.17,-252 677.06,-235.34 704.29,-245.06 797.17,-216 799.1,-215.4 801.06,-214.71 803.02,-213.96"/>
<polygon fill="black" stroke="black" points="804.78,-217.02 812.62,-209.89 802.05,-210.57 804.78,-217.02"/>
</g>
<!-- harfbuzz&#45;&gt;qgis -->
<g id="edge17" class="edge">
<title>harfbuzz&#45;&gt;qgis</title>
<path fill="none" stroke="black" d="M491.45,-251.84C497.52,-231.28 510.72,-197.42 535.17,-180 580.89,-147.44 747.66,-133.65 822.9,-128.99"/>
<polygon fill="black" stroke="black" points="823.54,-132.46 833.31,-128.37 823.12,-125.47 823.54,-132.46"/>
</g>
<!-- libgd -->
<g id="node11" class="node">
<title>libgd</title>
<g id="a_node11"><a xlink:href="https://github.com/conda-forge/libgd-feedstock" xlink:title="libgd">
<ellipse fill="#fde725" stroke="black" cx="421.17" cy="-198" rx="28.7" ry="18"/>
<text text-anchor="middle" x="421.17" y="-194.3" font-family="Times,serif" font-size="14.00">libgd</text>
</a>
</g>
</g>
<!-- harfbuzz&#45;&gt;libgd -->
<g id="edge15" class="edge">
<title>harfbuzz&#45;&gt;libgd</title>
<path fill="none" stroke="black" d="M472.2,-253.12C463.35,-243.73 452,-231.7 442.26,-221.36"/>
<polygon fill="black" stroke="black" points="444.59,-218.74 435.19,-213.86 439.5,-223.54 444.59,-218.74"/>
</g>
<!-- tectonic -->
<g id="node12" class="node">
<title>tectonic</title>
<g id="a_node12"><a xlink:href="https://github.com/conda-forge/tectonic-feedstock" xlink:title="tectonic">
<ellipse fill="#fde725" stroke="black" cx="102.17" cy="-198" rx="38.5" ry="18"/>
<text text-anchor="middle" x="102.17" y="-194.3" font-family="Times,serif" font-size="14.00">tectonic</text>
</a>
</g>
</g>
<!-- harfbuzz&#45;&gt;tectonic -->
<g id="edge16" class="edge">
<title>harfbuzz&#45;&gt;tectonic</title>
<path fill="none" stroke="black" d="M448.29,-263.5C373.29,-252.78 211.18,-228.99 156.17,-216 151.52,-214.9 146.68,-213.6 141.89,-212.23"/>
<polygon fill="black" stroke="black" points="142.81,-208.85 132.23,-209.32 140.8,-215.55 142.81,-208.85"/>
</g>
<!-- qtwebkit -->
<g id="node13" class="node">
<title>qtwebkit</title>
<g id="a_node13"><a xlink:href="https://github.com/conda-forge/qtwebkit-feedstock" xlink:title="qtwebkit">
<ellipse fill="#fde725" stroke="black" cx="746.17" cy="-198" rx="41.69" ry="18"/>
<text text-anchor="middle" x="746.17" y="-194.3" font-family="Times,serif" font-size="14.00">qtwebkit</text>
</a>
</g>
</g>
<!-- harfbuzz&#45;&gt;qtwebkit -->
<g id="edge18" class="edge">
<title>harfbuzz&#45;&gt;qtwebkit</title>
<path fill="none" stroke="black" d="M521.57,-259.7C568.01,-247.15 650.82,-224.77 701.87,-210.97"/>
<polygon fill="black" stroke="black" points="702.9,-214.32 711.64,-208.33 701.07,-207.56 702.9,-214.32"/>
</g>
<!-- r&#45;stringi -->
<g id="node14" class="node">
<title>r&#45;stringi</title>
<g id="a_node14"><a xlink:href="https://github.com/conda-forge/r-stringi-feedstock" xlink:title="r stringi">
<ellipse fill="#fde725" stroke="black" cx="164.17" cy="-126" rx="38.5" ry="18"/>
<text text-anchor="middle" x="164.17" y="-122.3" font-family="Times,serif" font-size="14.00">r stringi</text>
</a>
</g>
</g>
<!-- r&#45;base&#45;&gt;r&#45;stringi -->
<g id="edge19" class="edge">
<title>r&#45;base&#45;&gt;r&#45;stringi</title>
<path fill="none" stroke="black" d="M189.35,-180.41C185.5,-172.25 180.78,-162.22 176.46,-153.07"/>
<polygon fill="black" stroke="black" points="179.6,-151.51 172.17,-143.96 173.26,-154.49 179.6,-151.51"/>
</g>
<!-- r&#45;v8 -->
<g id="node15" class="node">
<title>r&#45;v8</title>
<g id="a_node15"><a xlink:href="https://github.com/conda-forge/r-v8-feedstock" xlink:title="r v8">
<ellipse fill="#fde725" stroke="black" cx="231.17" cy="-54" rx="27" ry="18"/>
<text text-anchor="middle" x="231.17" y="-50.3" font-family="Times,serif" font-size="14.00">r v8</text>
</a>
</g>
</g>
<!-- r&#45;base&#45;&gt;r&#45;v8 -->
<g id="edge20" class="edge">
<title>r&#45;base&#45;&gt;r&#45;v8</title>
<path fill="none" stroke="black" d="M202.32,-179.89C205.36,-169.54 209.18,-156.07 212.17,-144 217.27,-123.43 222.25,-99.97 225.82,-82.31"/>
<polygon fill="black" stroke="black" points="229.33,-82.63 227.86,-72.14 222.47,-81.26 229.33,-82.63"/>
</g>
<!-- gtk2&#45;&gt;octave -->
<g id="edge21" class="edge">
<title>gtk2&#45;&gt;octave</title>
<path fill="none" stroke="black" d="M812.63,-186.11C807.67,-183.81 802.32,-181.61 797.17,-180 701.69,-150.16 584.57,-136.18 522.2,-130.44"/>
<polygon fill="black" stroke="black" points="522.22,-126.93 511.94,-129.53 521.59,-133.9 522.22,-126.93"/>
</g>
<!-- gtk2&#45;&gt;qgis -->
<g id="edge22" class="edge">
<title>gtk2&#45;&gt;qgis</title>
<path fill="none" stroke="black" d="M839.57,-180.41C842.69,-172.34 846.51,-162.43 850.01,-153.35"/>
<polygon fill="black" stroke="black" points="853.3,-154.55 853.63,-143.96 846.77,-152.03 853.3,-154.55"/>
</g>
<!-- libgd&#45;&gt;octave -->
<g id="edge32" class="edge">
<title>libgd&#45;&gt;octave</title>
<path fill="none" stroke="black" d="M433.82,-181.46C441.17,-172.44 450.58,-160.88 458.85,-150.73"/>
<polygon fill="black" stroke="black" points="461.56,-152.94 465.16,-142.98 456.13,-148.52 461.56,-152.94"/>
</g>
<!-- qtwebkit&#45;&gt;qgis -->
<g id="edge41" class="edge">
<title>qtwebkit&#45;&gt;qgis</title>
<path fill="none" stroke="black" d="M769.24,-182.83C787.44,-171.66 812.89,-156.03 832.24,-144.15"/>
<polygon fill="black" stroke="black" points="834.23,-147.04 840.92,-138.82 830.57,-141.07 834.23,-147.04"/>
</g>
<!-- fontconfig -->
<g id="node16" class="node">
<title>fontconfig</title>
<g id="a_node16"><a xlink:href="https://github.com/conda-forge/fontconfig-feedstock" xlink:title="fontconfig">
<ellipse fill="#35b779" stroke="black" cx="219.17" cy="-414" rx="47.5" ry="18"/>
<text text-anchor="middle" x="219.17" y="-410.3" font-family="Times,serif" font-size="14.00">fontconfig</text>
</a>
</g>
</g>
<!-- fontconfig&#45;&gt;cairo -->
<g id="edge23" class="edge">
<title>fontconfig&#45;&gt;cairo</title>
<path fill="none" stroke="black" d="M251.47,-400.65C284.39,-388.05 335.22,-368.61 368.59,-355.84"/>
<polygon fill="black" stroke="black" points="370.26,-358.95 378.35,-352.11 367.76,-352.42 370.26,-358.95"/>
</g>
<!-- fontconfig&#45;&gt;octave -->
<g id="edge24" class="edge">
<title>fontconfig&#45;&gt;octave</title>
<path fill="none" stroke="black" d="M177.28,-405.31C149.66,-398.13 114.73,-384.65 93.17,-360 39.29,-298.38 0,-241.37 54.17,-180 79.09,-151.77 331.17,-134.98 434.42,-129.24"/>
<polygon fill="black" stroke="black" points="434.73,-132.73 444.52,-128.69 434.34,-125.74 434.73,-132.73"/>
</g>
<!-- fontconfig&#45;&gt;r&#45;base -->
<g id="edge25" class="edge">
<title>fontconfig&#45;&gt;r&#45;base</title>
<path fill="none" stroke="black" d="M183.73,-401.99C163.9,-393.81 140.87,-380.47 129.17,-360 105.35,-318.33 108.11,-295.13 129.17,-252 136.72,-236.55 151.18,-224.3 164.83,-215.48"/>
<polygon fill="black" stroke="black" points="166.85,-218.35 173.6,-210.19 163.24,-212.36 166.85,-218.35"/>
</g>
<!-- fontconfig&#45;&gt;texlive&#45;core -->
<g id="edge26" class="edge">
<title>fontconfig&#45;&gt;texlive&#45;core</title>
<path fill="none" stroke="black" d="M219.92,-395.99C222.37,-362.71 232.78,-289 277.17,-252 287.16,-243.67 449.92,-219.62 538.99,-206.98"/>
<polygon fill="black" stroke="black" points="539.53,-210.44 548.94,-205.57 538.55,-203.5 539.53,-210.44"/>
</g>
<!-- fontconfig&#45;&gt;gtk2 -->
<g id="edge27" class="edge">
<title>fontconfig&#45;&gt;gtk2</title>
<path fill="none" stroke="black" d="M266.86,-413.19C421.07,-413.3 899.06,-409.61 945.17,-360 971.32,-331.88 921.23,-261.53 913.17,-252 899.68,-236.05 880.22,-223.01 863.86,-213.85"/>
<polygon fill="black" stroke="black" points="865.13,-210.56 854.66,-208.92 861.82,-216.73 865.13,-210.56"/>
</g>
<!-- fontconfig&#45;&gt;libgd -->
<g id="edge28" class="edge">
<title>fontconfig&#45;&gt;libgd</title>
<path fill="none" stroke="black" d="M210.75,-395.79C196.43,-363.76 171.93,-294.39 205.17,-252 226.83,-224.38 326.65,-209.26 382.7,-202.82"/>
<polygon fill="black" stroke="black" points="383.41,-206.26 392.96,-201.68 382.63,-199.3 383.41,-206.26"/>
</g>
<!-- fontconfig&#45;&gt;tectonic -->
<g id="edge31" class="edge">
<title>fontconfig&#45;&gt;tectonic</title>
<path fill="none" stroke="black" d="M179.23,-404.17C155.28,-396.66 126.57,-383.24 111.17,-360 84.52,-319.78 89.68,-260.74 95.89,-226.45"/>
<polygon fill="black" stroke="black" points="99.4,-226.74 97.91,-216.25 92.54,-225.38 99.4,-226.74"/>
</g>
<!-- qt -->
<g id="node17" class="node">
<title>qt</title>
<g id="a_node17"><a xlink:href="https://github.com/conda-forge/qt-feedstock" xlink:title="qt">
<ellipse fill="#fde725" stroke="black" cx="826.17" cy="-270" rx="27" ry="18"/>
<text text-anchor="middle" x="826.17" y="-266.3" font-family="Times,serif" font-size="14.00">qt</text>
</a>
</g>
</g>
<!-- fontconfig&#45;&gt;qt -->
<g id="edge29" class="edge">
<title>fontconfig&#45;&gt;qt</title>
<path fill="none" stroke="black" d="M262.74,-406.66C320.88,-397.88 426.89,-380.73 516.17,-360 617.84,-336.4 735.8,-299.98 792.43,-281.93"/>
<polygon fill="black" stroke="black" points="793.82,-285.16 802.28,-278.77 791.69,-278.49 793.82,-285.16"/>
</g>
<!-- root5 -->
<g id="node18" class="node">
<title>root5</title>
<g id="a_node18"><a xlink:href="https://github.com/conda-forge/root5-feedstock" xlink:title="root5">
<ellipse fill="#fde725" stroke="black" cx="478.17" cy="-342" rx="29.5" ry="18"/>
<text text-anchor="middle" x="478.17" y="-338.3" font-family="Times,serif" font-size="14.00">root5</text>
</a>
</g>
</g>
<!-- fontconfig&#45;&gt;root5 -->
<g id="edge30" class="edge">
<title>fontconfig&#45;&gt;root5</title>
<path fill="none" stroke="black" d="M260.96,-405.38C305.89,-396.64 379.1,-380.78 440.17,-360 442.29,-359.28 444.44,-358.49 446.6,-357.65"/>
<polygon fill="black" stroke="black" points="448.05,-360.84 455.94,-353.77 445.37,-354.37 448.05,-360.84"/>
</g>
<!-- qt&#45;&gt;gdal -->
<g id="edge33" class="edge">
<title>qt&#45;&gt;gdal</title>
<path fill="none" stroke="black" d="M846.05,-257.6C865.99,-246.16 896.9,-228.42 919.49,-215.46"/>
<polygon fill="black" stroke="black" points="921.38,-218.41 928.31,-210.4 917.89,-212.34 921.38,-218.41"/>
</g>
<!-- qt&#45;&gt;octave -->
<g id="edge34" class="edge">
<title>qt&#45;&gt;octave</title>
<path fill="none" stroke="black" d="M803.64,-259.6C797.64,-257.11 791.17,-254.44 785.17,-252 745.27,-235.75 731.46,-239.23 695.17,-216 675.58,-203.46 677.33,-191.62 657.17,-180 614.06,-155.14 558.26,-141.03 520.51,-133.72"/>
<polygon fill="black" stroke="black" points="520.84,-130.22 510.36,-131.84 519.56,-137.11 520.84,-130.22"/>
</g>
<!-- qt&#45;&gt;r&#45;base -->
<g id="edge35" class="edge">
<title>qt&#45;&gt;r&#45;base</title>
<path fill="none" stroke="black" d="M801.33,-262.44C787.04,-258.88 768.7,-254.68 752.17,-252 726.87,-247.9 363.45,-214.3 238.79,-202.82"/>
<polygon fill="black" stroke="black" points="238.79,-199.31 228.51,-201.88 238.14,-206.28 238.79,-199.31"/>
</g>
<!-- qt&#45;&gt;texlive&#45;core -->
<g id="edge36" class="edge">
<title>qt&#45;&gt;texlive&#45;core</title>
<path fill="none" stroke="black" d="M804.23,-259.33C798.12,-256.8 791.44,-254.17 785.17,-252 759.54,-243.13 692.71,-224.8 645.83,-212.2"/>
<polygon fill="black" stroke="black" points="646.72,-208.82 636.15,-209.61 644.9,-215.58 646.72,-208.82"/>
</g>
<!-- qt&#45;&gt;gtk2 -->
<g id="edge37" class="edge">
<title>qt&#45;&gt;gtk2</title>
<path fill="none" stroke="black" d="M827.9,-251.7C828.67,-243.98 829.6,-234.71 830.46,-226.11"/>
<polygon fill="black" stroke="black" points="833.95,-226.4 831.46,-216.1 826.98,-225.71 833.95,-226.4"/>
</g>
<!-- qt&#45;&gt;qgis -->
<g id="edge39" class="edge">
<title>qt&#45;&gt;qgis</title>
<path fill="none" stroke="black" d="M842.11,-254.99C851.99,-245.2 863.79,-231.19 869.17,-216 876.33,-195.81 873.16,-171.54 868.72,-153.45"/>
<polygon fill="black" stroke="black" points="872.04,-152.31 866.02,-143.59 865.28,-154.16 872.04,-152.31"/>
</g>
<!-- qt&#45;&gt;libgd -->
<g id="edge38" class="edge">
<title>qt&#45;&gt;libgd</title>
<path fill="none" stroke="black" d="M801.26,-262.84C786.95,-259.41 768.61,-255.2 752.17,-252 696.43,-241.15 533.32,-216.04 458.94,-204.72"/>
<polygon fill="black" stroke="black" points="459.04,-201.2 448.63,-203.15 457.99,-208.12 459.04,-201.2"/>
</g>
<!-- qt&#45;&gt;qtwebkit -->
<g id="edge40" class="edge">
<title>qt&#45;&gt;qtwebkit</title>
<path fill="none" stroke="black" d="M810.37,-255.17C799.28,-245.47 784.22,-232.29 771.48,-221.14"/>
<polygon fill="black" stroke="black" points="773.73,-218.46 763.89,-214.51 769.12,-223.73 773.73,-218.46"/>
</g>
<!-- igraph -->
<g id="node19" class="node">
<title>igraph</title>
<g id="a_node19"><a xlink:href="https://github.com/conda-forge/igraph-feedstock" xlink:title="igraph">
<ellipse fill="#35b779" stroke="black" cx="1455.17" cy="-450" rx="33.29" ry="18"/>
<text text-anchor="middle" x="1455.17" y="-446.3" font-family="Times,serif" font-size="14.00">igraph</text>
</a>
</g>
</g>
<!-- uwsgi -->
<g id="node20" class="node">
<title>uwsgi</title>
<g id="a_node20"><a xlink:href="https://github.com/conda-forge/uwsgi-feedstock" xlink:title="uwsgi">
<ellipse fill="#35b779" stroke="black" cx="1455.17" cy="-378" rx="32" ry="18"/>
<text text-anchor="middle" x="1455.17" y="-374.3" font-family="Times,serif" font-size="14.00">uwsgi</text>
</a>
</g>
</g>
<!-- igraph&#45;&gt;uwsgi -->
<!-- pyicu -->
<g id="node24" class="node">
<title>pyicu</title>
<g id="a_node24"><a xlink:href="https://github.com/conda-forge/pyicu-feedstock/pull/23" xlink:title="pyicu ❎">
<ellipse fill="#31688e" stroke="black" cx="1455.17" cy="-306" rx="42.49" ry="18"/>
<text text-anchor="middle" x="1455.17" y="-302.3" font-family="Times,serif" font-size="14.00" fill="white">pyicu ❎</text>
</a>
</g>
</g>
<!-- uwsgi&#45;&gt;pyicu -->
<!-- libxslt -->
<g id="node21" class="node">
<title>libxslt</title>
<g id="a_node21"><a xlink:href="https://github.com/conda-forge/libxslt-feedstock" xlink:title="libxslt">
<ellipse fill="#35b779" stroke="black" cx="903.17" cy="-342" rx="32.5" ry="18"/>
<text text-anchor="middle" x="903.17" y="-338.3" font-family="Times,serif" font-size="14.00">libxslt</text>
</a>
</g>
</g>
<!-- libxslt&#45;&gt;gdal -->
<g id="edge43" class="edge">
<title>libxslt&#45;&gt;gdal</title>
<path fill="none" stroke="black" d="M935.37,-338.51C993.31,-333.3 1111.4,-319.05 1136.17,-288 1179.58,-233.61 1051.13,-210.68 984.94,-202.66"/>
<polygon fill="black" stroke="black" points="985.23,-199.17 974.89,-201.5 984.42,-206.12 985.23,-199.17"/>
</g>
<!-- libxslt&#45;&gt;octave -->
<g id="edge44" class="edge">
<title>libxslt&#45;&gt;octave</title>
<path fill="none" stroke="black" d="M935.9,-341.21C1015.01,-340.51 1206.39,-330.82 1154.17,-252 1083.91,-145.94 661.84,-129.84 522.66,-127.42"/>
<polygon fill="black" stroke="black" points="522.42,-123.92 512.37,-127.26 522.31,-130.91 522.42,-123.92"/>
</g>
<!-- libxslt&#45;&gt;python&#45;igraph -->
<g id="edge45" class="edge">
<title>libxslt&#45;&gt;python&#45;igraph</title>
<path fill="none" stroke="black" d="M875.75,-332.28C839.99,-320.9 776.77,-300.78 732.55,-286.71"/>
<polygon fill="black" stroke="black" points="733.46,-283.33 722.87,-283.63 731.34,-290 733.46,-283.33"/>
</g>
<!-- libxslt&#45;&gt;r&#45;base -->
<g id="edge46" class="edge">
<title>libxslt&#45;&gt;r&#45;base</title>
<path fill="none" stroke="black" d="M870.75,-339.46C775.79,-334.62 499.72,-318.28 415.17,-288 387.67,-278.15 386.52,-264.63 360.17,-252 319.44,-232.48 269.7,-217.47 235.96,-208.49"/>
<polygon fill="black" stroke="black" points="236.59,-205.04 226.03,-205.9 234.82,-211.81 236.59,-205.04"/>
</g>
<!-- libxslt&#45;&gt;texlive&#45;core -->
<g id="edge47" class="edge">
<title>libxslt&#45;&gt;texlive&#45;core</title>
<path fill="none" stroke="black" d="M876.78,-331.42C853.03,-322.16 817.74,-306.8 790.17,-288 770.95,-274.89 772.09,-264.02 752.17,-252 733.85,-240.94 683.65,-224.71 645.1,-213.12"/>
<polygon fill="black" stroke="black" points="645.66,-209.63 635.08,-210.13 643.66,-216.34 645.66,-209.63"/>
</g>
<!-- libxslt&#45;&gt;gtk2 -->
<g id="edge48" class="edge">
<title>libxslt&#45;&gt;gtk2</title>
<path fill="none" stroke="black" d="M905.31,-323.88C906.84,-305.14 906.92,-274.75 895.17,-252 887.63,-237.38 874.16,-225.11 861.7,-216.08"/>
<polygon fill="black" stroke="black" points="863.55,-213.1 853.32,-210.35 859.6,-218.88 863.55,-213.1"/>
</g>
<!-- libxslt&#45;&gt;qgis -->
<g id="edge51" class="edge">
<title>libxslt&#45;&gt;qgis</title>
<path fill="none" stroke="black" d="M935.79,-341.29C1025.31,-341.45 1272.18,-337.28 1333.17,-288 1371.49,-257.03 1391.12,-216.64 1358.17,-180 1327.44,-145.82 1007.7,-131.95 897.36,-128.15"/>
<polygon fill="black" stroke="black" points="897.17,-124.64 887.06,-127.81 896.93,-131.64 897.17,-124.64"/>
</g>
<!-- libxslt&#45;&gt;libgd -->
<g id="edge49" class="edge">
<title>libxslt&#45;&gt;libgd</title>
<path fill="none" stroke="black" d="M870.74,-339.55C770.06,-334.73 467.71,-317.88 436.17,-288 419.78,-272.47 417.09,-246.22 417.87,-226.25"/>
<polygon fill="black" stroke="black" points="421.37,-226.4 418.57,-216.18 414.38,-225.92 421.37,-226.4"/>
</g>
<!-- libxslt&#45;&gt;qtwebkit -->
<g id="edge52" class="edge">
<title>libxslt&#45;&gt;qtwebkit</title>
<path fill="none" stroke="black" d="M899.14,-323.83C893.75,-304.2 882.41,-272.18 862.17,-252 850.83,-240.69 815.27,-225.24 786.48,-213.94"/>
<polygon fill="black" stroke="black" points="787.61,-210.63 777.02,-210.28 785.09,-217.15 787.61,-210.63"/>
</g>
<!-- libxslt&#45;&gt;qt -->
<g id="edge50" class="edge">
<title>libxslt&#45;&gt;qt</title>
<path fill="none" stroke="black" d="M886.84,-326.15C875.83,-316.15 861.16,-302.8 849,-291.75"/>
<polygon fill="black" stroke="black" points="851.19,-289.01 841.43,-284.87 846.48,-294.19 851.19,-289.01"/>
</g>
<!-- mdsplus -->
<g id="node22" class="node">
<title>mdsplus</title>
<g id="a_node22"><a xlink:href="https://github.com/conda-forge/mdsplus-feedstock" xlink:title="mdsplus">
<ellipse fill="#fde725" stroke="black" cx="1262.17" cy="-270" rx="40.5" ry="18"/>
<text text-anchor="middle" x="1262.17" y="-266.3" font-family="Times,serif" font-size="14.00">mdsplus</text>
</a>
</g>
</g>
<!-- libxslt&#45;&gt;mdsplus -->
<g id="edge53" class="edge">
<title>libxslt&#45;&gt;mdsplus</title>
<path fill="none" stroke="black" d="M934.51,-336.88C989.95,-329.29 1108.73,-311.69 1207.17,-288 1211.61,-286.93 1216.22,-285.7 1220.79,-284.41"/>
<polygon fill="black" stroke="black" points="1222.06,-287.68 1230.66,-281.49 1220.08,-280.97 1222.06,-287.68"/>
</g>
<!-- odil -->
<g id="node23" class="node">
<title>odil</title>
<g id="a_node23"><a xlink:href="https://github.com/conda-forge/odil-feedstock" xlink:title="odil">
<ellipse fill="#fde725" stroke="black" cx="1322.17" cy="-198" rx="27" ry="18"/>
<text text-anchor="middle" x="1322.17" y="-194.3" font-family="Times,serif" font-size="14.00">odil</text>
</a>
</g>
</g>
<!-- libxslt&#45;&gt;odil -->
<g id="edge54" class="edge">
<title>libxslt&#45;&gt;odil</title>
<path fill="none" stroke="black" d="M935.73,-341.71C1023.16,-342.9 1260.03,-341.04 1312.17,-288 1327.88,-272.02 1329.07,-245.83 1327.11,-225.99"/>
<polygon fill="black" stroke="black" points="1330.58,-225.47 1325.82,-216 1323.63,-226.37 1330.58,-225.47"/>
</g>
<!-- ticcutils -->
<g id="node26" class="node">
<title>ticcutils</title>
<g id="a_node26"><a xlink:href="https://github.com/conda-forge/ticcutils-feedstock" xlink:title="ticcutils">
<ellipse fill="#35b779" stroke="black" cx="1455.17" cy="-234" rx="38.5" ry="18"/>
<text text-anchor="middle" x="1455.17" y="-230.3" font-family="Times,serif" font-size="14.00">ticcutils</text>
</a>
</g>
</g>
<!-- pyicu&#45;&gt;ticcutils -->
<!-- xerces&#45;c -->
<g id="node25" class="node">
<title>xerces&#45;c</title>
<g id="a_node25"><a xlink:href="https://github.com/conda-forge/xerces-c-feedstock/pull/26" xlink:title="xerces c ❎">
<ellipse fill="#31688e" stroke="black" cx="1075.17" cy="-270" rx="51.5" ry="18"/>
<text text-anchor="middle" x="1075.17" y="-266.3" font-family="Times,serif" font-size="14.00" fill="white">xerces c ❎</text>
</a>
</g>
</g>
<!-- xerces&#45;c&#45;&gt;gdal -->
<g id="edge56" class="edge">
<title>xerces&#45;c&#45;&gt;gdal</title>
<path fill="none" stroke="black" d="M1048.86,-254.5C1028.1,-243.05 999.15,-227.1 977.62,-215.23"/>
<polygon fill="black" stroke="black" points="979.05,-212.02 968.6,-210.26 975.67,-218.15 979.05,-212.02"/>
</g>
<!-- mongodb -->
<g id="node27" class="node">
<title>mongodb</title>
<g id="a_node27"><a xlink:href="https://github.com/conda-forge/mongodb-feedstock/pull/17" xlink:title="mongodb ❎">
<ellipse fill="#31688e" stroke="black" cx="1455.17" cy="-162" rx="56" ry="18"/>
<text text-anchor="middle" x="1455.17" y="-158.3" font-family="Times,serif" font-size="14.00" fill="white">mongodb ❎</text>
</a>
</g>
</g>
<!-- ticcutils&#45;&gt;mongodb -->
<!-- scilab -->
<g id="node28" class="node">
<title>scilab</title>
<g id="a_node28"><a xlink:href="https://github.com/conda-forge/scilab-feedstock" xlink:title="scilab">
<ellipse fill="#35b779" stroke="black" cx="1455.17" cy="-90" rx="31.4" ry="18"/>
<text text-anchor="middle" x="1455.17" y="-86.3" font-family="Times,serif" font-size="14.00">scilab</text>
</a>
</g>
</g>
<!-- mongodb&#45;&gt;scilab -->
<!-- libiio -->
<g id="node29" class="node">
<title>libiio</title>
<g id="a_node29"><a xlink:href="https://github.com/conda-forge/libiio-feedstock" xlink:title="libiio">
<ellipse fill="#35b779" stroke="black" cx="1455.17" cy="-18" rx="29.5" ry="18"/>
<text text-anchor="middle" x="1455.17" y="-14.3" font-family="Times,serif" font-size="14.00">libiio</text>
</a>
</g>
</g>
<!-- scilab&#45;&gt;libiio -->
</g>
</svg>
