<?xml version="1.0" encoding="UTF-8" standalone="no"?>
<!DOCTYPE svg PUBLIC "-//W3C//DTD SVG 1.1//EN"
 "http://www.w3.org/Graphics/SVG/1.1/DTD/svg11.dtd">
<!-- Generated by graphviz version 3.0.0 (20220315.2325)
 -->
<!-- Pages: 1 -->
<svg width="756pt" height="620pt"
 viewBox="0.00 0.00 756.44 620.00" xmlns="http://www.w3.org/2000/svg" xmlns:xlink="http://www.w3.org/1999/xlink">
<g id="graph0" class="graph" transform="scale(1 1) rotate(0) translate(4 616)">
<polygon fill="white" stroke="transparent" points="-4,4 -4,-616 752.44,-616 752.44,4 -4,4"/>
<!-- gdal -->
<g id="node1" class="node">
<title>gdal</title>
<g id="a_node1"><a xlink:href="https://github.com/conda-forge/gdal-feedstock" xlink:title="gdal">
<ellipse fill="#fde725" stroke="black" cx="327.34" cy="-234" rx="30.59" ry="18"/>
<text text-anchor="middle" x="327.34" y="-230.3" font-family="Times,serif" font-size="14.00">gdal</text>
</a>
</g>
</g>
<!-- qgis -->
<g id="node2" class="node">
<title>qgis</title>
<g id="a_node2"><a xlink:href="https://github.com/conda-forge/qgis-feedstock" xlink:title="qgis">
<ellipse fill="#fde725" stroke="black" cx="129.34" cy="-162" rx="30.59" ry="18"/>
<text text-anchor="middle" x="129.34" y="-158.3" font-family="Times,serif" font-size="14.00">qgis</text>
</a>
</g>
</g>
<!-- gdal&#45;&gt;qgis -->
<g id="edge1" class="edge">
<title>gdal&#45;&gt;qgis</title>
<path fill="none" stroke="black" d="M301.86,-223.99C266.91,-211.64 203.95,-189.38 164.52,-175.44"/>
<polygon fill="black" stroke="black" points="165.63,-172.12 155.04,-172.08 163.3,-178.72 165.63,-172.12"/>
</g>
<!-- kaldi -->
<g id="node3" class="node">
<title>kaldi</title>
<g id="a_node3"><a xlink:href="https://github.com/conda-forge/kaldi-feedstock/pull/28" xlink:title="kaldi ✓">
<ellipse fill="#31688e" stroke="black" cx="570.34" cy="-594" rx="40.5" ry="18"/>
<text text-anchor="middle" x="570.34" y="-590.3" font-family="Times,serif" font-size="14.00" fill="white">kaldi ✓</text>
</a>
</g>
</g>
<!-- uwsgi -->
<g id="node4" class="node">
<title>uwsgi</title>
<g id="a_node4"><a xlink:href="https://github.com/conda-forge/uwsgi-feedstock/pull/56" xlink:title="uwsgi ❎">
<ellipse fill="#31688e" stroke="black" cx="570.34" cy="-522" rx="52" ry="18"/>
<text text-anchor="middle" x="570.34" y="-518.3" font-family="Times,serif" font-size="14.00" fill="white">uwsgi ❎</text>
</a>
</g>
</g>
<!-- kaldi&#45;&gt;uwsgi -->
<!-- pyicu -->
<g id="node8" class="node">
<title>pyicu</title>
<g id="a_node8"><a xlink:href="https://github.com/conda-forge/pyicu-feedstock/pull/36" xlink:title="pyicu ✓">
<ellipse fill="#31688e" stroke="black" cx="570.34" cy="-450" rx="43" ry="18"/>
<text text-anchor="middle" x="570.34" y="-446.3" font-family="Times,serif" font-size="14.00" fill="white">pyicu ✓</text>
</a>
</g>
</g>
<!-- uwsgi&#45;&gt;pyicu -->
<!-- octave -->
<g id="node5" class="node">
<title>octave</title>
<g id="a_node5"><a xlink:href="https://github.com/conda-forge/octave-feedstock" xlink:title="octave">
<ellipse fill="#fde725" stroke="black" cx="62.34" cy="-306" rx="41" ry="18"/>
<text text-anchor="middle" x="62.34" y="-302.3" font-family="Times,serif" font-size="14.00">octave</text>
</a>
</g>
</g>
<!-- qt -->
<g id="node6" class="node">
<title>qt</title>
<g id="a_node6"><a xlink:href="https://github.com/conda-forge/qt-feedstock" xlink:title="qt">
<ellipse fill="#fde725" stroke="black" cx="77.34" cy="-378" rx="27" ry="18"/>
<text text-anchor="middle" x="77.34" y="-374.3" font-family="Times,serif" font-size="14.00">qt</text>
</a>
</g>
</g>
<!-- qt&#45;&gt;qgis -->
<g id="edge3" class="edge">
<title>qt&#45;&gt;qgis</title>
<path fill="none" stroke="black" d="M56.39,-366.5C41.05,-357.54 21.4,-343.07 12.34,-324 0,-298.01 27.86,-216.63 28.34,-216 44.2,-195.27 70.51,-181.84 92.3,-173.68"/>
<polygon fill="black" stroke="black" points="93.66,-176.91 101.94,-170.3 91.34,-170.31 93.66,-176.91"/>
</g>
<!-- qt&#45;&gt;octave -->
<g id="edge4" class="edge">
<title>qt&#45;&gt;octave</title>
<path fill="none" stroke="black" d="M73.71,-360.05C72.04,-352.26 70.02,-342.82 68.15,-334.08"/>
<polygon fill="black" stroke="black" points="71.56,-333.32 66.05,-324.28 64.72,-334.79 71.56,-333.32"/>
</g>
<!-- qtwebkit -->
<g id="node7" class="node">
<title>qtwebkit</title>
<g id="a_node7"><a xlink:href="https://github.com/conda-forge/qtwebkit-feedstock" xlink:title="qtwebkit">
<ellipse fill="#fde725" stroke="black" cx="89.34" cy="-234" rx="52" ry="18"/>
<text text-anchor="middle" x="89.34" y="-230.3" font-family="Times,serif" font-size="14.00">qtwebkit</text>
</a>
</g>
</g>
<!-- qt&#45;&gt;qtwebkit -->
<g id="edge5" class="edge">
<title>qt&#45;&gt;qtwebkit</title>
<path fill="none" stroke="black" d="M90.72,-362C98.7,-352.01 108.09,-338.15 112.34,-324 118.66,-302.98 111.55,-278.86 103.62,-261.03"/>
<polygon fill="black" stroke="black" points="106.69,-259.34 99.21,-251.84 100.38,-262.37 106.69,-259.34"/>
</g>
<!-- qtwebkit&#45;&gt;qgis -->
<g id="edge6" class="edge">
<title>qtwebkit&#45;&gt;qgis</title>
<path fill="none" stroke="black" d="M99.03,-216.05C103.81,-207.68 109.68,-197.4 114.98,-188.13"/>
<polygon fill="black" stroke="black" points="118.1,-189.73 120.03,-179.31 112.02,-186.25 118.1,-189.73"/>
</g>
<!-- tensorflow -->
<g id="node10" class="node">
<title>tensorflow</title>
<g id="a_node10"><a xlink:href="https://github.com/conda-forge/tensorflow-feedstock/pull/217" xlink:title="tensorflow ❎">
<ellipse fill="#31688e" stroke="black" cx="570.34" cy="-378" rx="73.5" ry="18"/>
<text text-anchor="middle" x="570.34" y="-374.3" font-family="Times,serif" font-size="14.00" fill="white">tensorflow ❎</text>
</a>
</g>
</g>
<!-- pyicu&#45;&gt;tensorflow -->
<!-- xerces&#45;c -->
<g id="node9" class="node">
<title>xerces&#45;c</title>
<g id="a_node9"><a xlink:href="https://github.com/conda-forge/xerces-c-feedstock/pull/32" xlink:title="xerces c ❎">
<ellipse fill="#31688e" stroke="black" cx="426.34" cy="-306" rx="63.09" ry="18"/>
<text text-anchor="middle" x="426.34" y="-302.3" font-family="Times,serif" font-size="14.00" fill="white">xerces c ❎</text>
</a>
</g>
</g>
<!-- xerces&#45;c&#45;&gt;gdal -->
<g id="edge8" class="edge">
<title>xerces&#45;c&#45;&gt;gdal</title>
<path fill="none" stroke="black" d="M403.88,-289.12C389.15,-278.7 369.81,-265.03 354.26,-254.03"/>
<polygon fill="black" stroke="black" points="356.25,-251.15 346.06,-248.24 352.21,-256.87 356.25,-251.15"/>
</g>
<!-- mdsplus -->
<g id="node11" class="node">
<title>mdsplus</title>
<g id="a_node11"><a xlink:href="https://github.com/conda-forge/mdsplus-feedstock/pull/27" xlink:title="mdsplus ❎">
<ellipse fill="#31688e" stroke="black" cx="570.34" cy="-306" rx="63.89" ry="18"/>
<text text-anchor="middle" x="570.34" y="-302.3" font-family="Times,serif" font-size="14.00" fill="white">mdsplus ❎</text>
</a>
</g>
</g>
<!-- tensorflow&#45;&gt;mdsplus -->
<!-- ticcutils -->
<g id="node12" class="node">
<title>ticcutils</title>
<g id="a_node12"><a xlink:href="https://github.com/conda-forge/ticcutils-feedstock/pull/22" xlink:title="ticcutils ✓">
<ellipse fill="#31688e" stroke="black" cx="570.34" cy="-234" rx="55.49" ry="18"/>
<text text-anchor="middle" x="570.34" y="-230.3" font-family="Times,serif" font-size="14.00" fill="white">ticcutils ✓</text>
</a>
</g>
</g>
<!-- mdsplus&#45;&gt;ticcutils -->
<!-- mongodb -->
<g id="node13" class="node">
<title>mongodb</title>
<g id="a_node13"><a xlink:href="https://github.com/conda-forge/mongodb-feedstock/pull/45" xlink:title="mongodb ❎">
<ellipse fill="#31688e" stroke="black" cx="570.34" cy="-162" rx="67.69" ry="18"/>
<text text-anchor="middle" x="570.34" y="-158.3" font-family="Times,serif" font-size="14.00" fill="white">mongodb ❎</text>
</a>
</g>
</g>
<!-- ticcutils&#45;&gt;mongodb -->
<!-- scilab -->
<g id="node14" class="node">
<title>scilab</title>
<g id="a_node14"><a xlink:href="https://github.com/conda-forge/scilab-feedstock/pull/27" xlink:title="scilab ❎">
<ellipse fill="#31688e" stroke="black" cx="570.34" cy="-90" rx="52" ry="18"/>
<text text-anchor="middle" x="570.34" y="-86.3" font-family="Times,serif" font-size="14.00" fill="white">scilab ❎</text>
</a>
</g>
</g>
<!-- mongodb&#45;&gt;scilab -->
<!-- libical -->
<g id="node15" class="node">
<title>libical</title>
<g id="a_node15"><a xlink:href="https://github.com/conda-forge/libical-feedstock/pull/21" xlink:title="libical ❎">
<ellipse fill="#31688e" stroke="black" cx="570.34" cy="-18" rx="52.79" ry="18"/>
<text text-anchor="middle" x="570.34" y="-14.3" font-family="Times,serif" font-size="14.00" fill="white">libical ❎</text>
</a>
</g>
</g>
<!-- scilab&#45;&gt;libical -->
<!-- libv8 -->
<g id="node16" class="node">
<title>libv8</title>
<g id="a_node16"><a xlink:href="https://github.com/conda-forge/libv8-feedstock/pull/76" xlink:title="libv8 ❎">
<ellipse fill="#31688e" stroke="black" cx="700.34" cy="-342" rx="48.19" ry="18"/>
<text text-anchor="middle" x="700.34" y="-338.3" font-family="Times,serif" font-size="14.00" fill="white">libv8 ❎</text>
</a>
</g>
</g>
<!-- r&#45;v8 -->
<g id="node17" class="node">
<title>r&#45;v8</title>
<g id="a_node17"><a xlink:href="https://github.com/conda-forge/r-v8-feedstock" xlink:title="r v8">
<ellipse fill="#fde725" stroke="black" cx="700.34" cy="-270" rx="29.5" ry="18"/>
<text text-anchor="middle" x="700.34" y="-266.3" font-family="Times,serif" font-size="14.00">r v8</text>
</a>
</g>
</g>
<!-- libv8&#45;&gt;r&#45;v8 -->
<g id="edge15" class="edge">
<title>libv8&#45;&gt;r&#45;v8</title>
<path fill="none" stroke="black" d="M700.34,-323.7C700.34,-315.98 700.34,-306.71 700.34,-298.11"/>
<polygon fill="black" stroke="black" points="703.84,-298.1 700.34,-288.1 696.84,-298.1 703.84,-298.1"/>
</g>
<!-- libpsl -->
<g id="node18" class="node">
<title>libpsl</title>
<g id="a_node18"><a xlink:href="https://github.com/conda-forge/libpsl-feedstock/pull/7" xlink:title="libpsl ✓">
<ellipse fill="#31688e" stroke="black" cx="176.34" cy="-450" rx="43.59" ry="18"/>
<text text-anchor="middle" x="176.34" y="-446.3" font-family="Times,serif" font-size="14.00" fill="white">libpsl ✓</text>
</a>
</g>
</g>
<!-- libpsl&#45;&gt;qt -->
<g id="edge16" class="edge">
<title>libpsl&#45;&gt;qt</title>
<path fill="none" stroke="black" d="M155.35,-434.15C140.31,-423.52 119.95,-409.13 103.8,-397.71"/>
<polygon fill="black" stroke="black" points="105.51,-394.63 95.32,-391.71 101.47,-400.34 105.51,-394.63"/>
</g>
<!-- qt&#45;main -->
<g id="node19" class="node">
<title>qt&#45;main</title>
<g id="a_node19"><a xlink:href="https://github.com/conda-forge/qt-main-feedstock" xlink:title="qt main">
<ellipse fill="#fde725" stroke="black" cx="176.34" cy="-378" rx="46.29" ry="18"/>
<text text-anchor="middle" x="176.34" y="-374.3" font-family="Times,serif" font-size="14.00">qt main</text>
</a>
</g>
</g>
<!-- libpsl&#45;&gt;qt&#45;main -->
<g id="edge17" class="edge">
<title>libpsl&#45;&gt;qt&#45;main</title>
<path fill="none" stroke="black" d="M176.34,-431.7C176.34,-423.98 176.34,-414.71 176.34,-406.11"/>
<polygon fill="black" stroke="black" points="179.84,-406.1 176.34,-396.1 172.84,-406.1 179.84,-406.1"/>
</g>
<!-- qt&#45;webengine -->
<g id="node20" class="node">
<title>qt&#45;webengine</title>
<g id="a_node20"><a xlink:href="https://github.com/conda-forge/qt-webengine-feedstock" xlink:title="qt webengine">
<ellipse fill="#fde725" stroke="black" cx="271.34" cy="-306" rx="73.5" ry="18"/>
<text text-anchor="middle" x="271.34" y="-302.3" font-family="Times,serif" font-size="14.00">qt webengine</text>
</a>
</g>
</g>
<!-- libpsl&#45;&gt;qt&#45;webengine -->
<g id="edge18" class="edge">
<title>libpsl&#45;&gt;qt&#45;webengine</title>
<path fill="none" stroke="black" d="M195.47,-433.82C206.96,-423.96 221.27,-410.32 231.34,-396 244.91,-376.71 255.55,-352.08 262.44,-333.62"/>
<polygon fill="black" stroke="black" points="265.78,-334.67 265.87,-324.08 259.19,-332.3 265.78,-334.67"/>
</g>
<!-- qt&#45;main&#45;&gt;qgis -->
<g id="edge19" class="edge">
<title>qt&#45;main&#45;&gt;qgis</title>
<path fill="none" stroke="black" d="M174.81,-359.82C171.87,-330.09 164.47,-267.32 150.34,-216 147.89,-207.08 144.43,-197.62 141.02,-189.19"/>
<polygon fill="black" stroke="black" points="144.21,-187.73 137.11,-179.86 137.75,-190.44 144.21,-187.73"/>
</g>
<!-- qt&#45;main&#45;&gt;qt&#45;webengine -->
<g id="edge20" class="edge">
<title>qt&#45;main&#45;&gt;qt&#45;webengine</title>
<path fill="none" stroke="black" d="M196.96,-361.81C209.82,-352.33 226.61,-339.96 240.98,-329.37"/>
<polygon fill="black" stroke="black" points="243.14,-332.13 249.11,-323.38 238.99,-326.49 243.14,-332.13"/>
</g>
</g>
</svg>
