<?xml version="1.0" encoding="UTF-8" standalone="no"?>
<!DOCTYPE svg PUBLIC "-//W3C//DTD SVG 1.1//EN"
 "http://www.w3.org/Graphics/SVG/1.1/DTD/svg11.dtd">
<!-- Generated by graphviz version 2.47.1 (20210511.0111)
 -->
<!-- Pages: 1 -->
<svg width="742pt" height="764pt"
 viewBox="0.00 0.00 741.64 764.00" xmlns="http://www.w3.org/2000/svg" xmlns:xlink="http://www.w3.org/1999/xlink">
<g id="graph0" class="graph" transform="scale(1 1) rotate(0) translate(4 760)">
<polygon fill="white" stroke="transparent" points="-4,4 -4,-760 737.64,-760 737.64,4 -4,4"/>
<!-- curl -->
<g id="node1" class="node">
<title>curl</title>
<g id="a_node1"><a xlink:href="https://github.com/conda-forge/curl-feedstock/pull/92" xlink:title="curl ✓">
<ellipse fill="#31688e" stroke="black" cx="207.14" cy="-486" rx="38.5" ry="18"/>
<text text-anchor="middle" x="207.14" y="-482.3" font-family="Times-Roman" font-size="14.00" fill="white">curl ✓</text>
</a>
</g>
</g>
<!-- nco -->
<g id="node2" class="node">
<title>nco</title>
<g id="a_node2"><a xlink:href="https://github.com/conda-forge/nco-feedstock" xlink:title="nco">
<ellipse fill="#fde725" stroke="black" cx="152.14" cy="-414" rx="27" ry="18"/>
<text text-anchor="middle" x="152.14" y="-410.3" font-family="Times-Roman" font-size="14.00">nco</text>
</a>
</g>
</g>
<!-- curl&#45;&gt;nco -->
<g id="edge1" class="edge">
<title>curl&#45;&gt;nco</title>
<path fill="none" stroke="black" d="M194.39,-468.76C187.25,-459.68 178.23,-448.19 170.35,-438.18"/>
<polygon fill="black" stroke="black" points="173.01,-435.89 164.08,-430.19 167.51,-440.21 173.01,-435.89"/>
</g>
<!-- r&#45;base -->
<g id="node3" class="node">
<title>r&#45;base</title>
<g id="a_node3"><a xlink:href="https://github.com/conda-forge/r-base-feedstock" xlink:title="r base">
<ellipse fill="#fde725" stroke="black" cx="181.14" cy="-342" rx="39" ry="18"/>
<text text-anchor="middle" x="181.14" y="-338.3" font-family="Times-Roman" font-size="14.00">r base</text>
</a>
</g>
</g>
<!-- curl&#45;&gt;r&#45;base -->
<g id="edge2" class="edge">
<title>curl&#45;&gt;r&#45;base</title>
<path fill="none" stroke="black" d="M204.01,-467.87C199.58,-443.67 191.44,-399.21 186.16,-370.39"/>
<polygon fill="black" stroke="black" points="189.54,-369.4 184.29,-360.19 182.65,-370.66 189.54,-369.4"/>
</g>
<!-- libhdfs3 -->
<g id="node4" class="node">
<title>libhdfs3</title>
<g id="a_node4"><a xlink:href="https://github.com/conda-forge/libhdfs3-feedstock" xlink:title="libhdfs3">
<ellipse fill="#fde725" stroke="black" cx="59.14" cy="-414" rx="47.5" ry="18"/>
<text text-anchor="middle" x="59.14" y="-410.3" font-family="Times-Roman" font-size="14.00">libhdfs3</text>
</a>
</g>
</g>
<!-- curl&#45;&gt;libhdfs3 -->
<g id="edge3" class="edge">
<title>curl&#45;&gt;libhdfs3</title>
<path fill="none" stroke="black" d="M181.03,-472.65C157.75,-461.64 123.38,-445.38 97.07,-432.94"/>
<polygon fill="black" stroke="black" points="98.32,-429.66 87.78,-428.54 95.32,-435.98 98.32,-429.66"/>
</g>
<!-- xrootd -->
<g id="node5" class="node">
<title>xrootd</title>
<g id="a_node5"><a xlink:href="https://github.com/conda-forge/xrootd-feedstock" xlink:title="xrootd">
<ellipse fill="#fde725" stroke="black" cx="248.14" cy="-270" rx="39.79" ry="18"/>
<text text-anchor="middle" x="248.14" y="-266.3" font-family="Times-Roman" font-size="14.00">xrootd</text>
</a>
</g>
</g>
<!-- curl&#45;&gt;xrootd -->
<g id="edge4" class="edge">
<title>curl&#45;&gt;xrootd</title>
<path fill="none" stroke="black" d="M210.43,-467.85C217.54,-430.75 234.39,-342.81 242.95,-298.1"/>
<polygon fill="black" stroke="black" points="246.4,-298.71 244.84,-288.23 239.52,-297.4 246.4,-298.71"/>
</g>
<!-- htcondor -->
<g id="node6" class="node">
<title>htcondor</title>
<g id="a_node6"><a xlink:href="https://github.com/conda-forge/htcondor-feedstock" xlink:title="htcondor">
<ellipse fill="#fde725" stroke="black" cx="402.14" cy="-414" rx="51.5" ry="18"/>
<text text-anchor="middle" x="402.14" y="-410.3" font-family="Times-Roman" font-size="14.00">htcondor</text>
</a>
</g>
</g>
<!-- curl&#45;&gt;htcondor -->
<g id="edge5" class="edge">
<title>curl&#45;&gt;htcondor</title>
<path fill="none" stroke="black" d="M236.76,-474.37C269.04,-462.78 321.01,-444.12 358.08,-430.82"/>
<polygon fill="black" stroke="black" points="359.41,-434.06 367.64,-427.39 357.04,-427.47 359.41,-434.06"/>
</g>
<!-- libtiledb&#45;sql -->
<g id="node7" class="node">
<title>libtiledb&#45;sql</title>
<g id="a_node7"><a xlink:href="https://github.com/conda-forge/libtiledb-sql-feedstock" xlink:title="libtiledb sql">
<ellipse fill="#fde725" stroke="black" cx="316.14" cy="-198" rx="63.09" ry="18"/>
<text text-anchor="middle" x="316.14" y="-194.3" font-family="Times-Roman" font-size="14.00">libtiledb sql</text>
</a>
</g>
</g>
<!-- curl&#45;&gt;libtiledb&#45;sql -->
<g id="edge6" class="edge">
<title>curl&#45;&gt;libtiledb&#45;sql</title>
<path fill="none" stroke="black" d="M216.32,-468.46C221.96,-458.09 229.22,-444.39 235.14,-432 265.22,-369.15 275.99,-354.39 297.14,-288 303.65,-267.58 308.59,-243.82 311.81,-225.99"/>
<polygon fill="black" stroke="black" points="315.28,-226.44 313.54,-215.99 308.38,-225.24 315.28,-226.44"/>
</g>
<!-- cyrus&#45;sasl -->
<g id="node8" class="node">
<title>cyrus&#45;sasl</title>
<g id="a_node8"><a xlink:href="https://github.com/conda-forge/cyrus-sasl-feedstock/pull/16" xlink:title="cyrus sasl ✓">
<ellipse fill="#31688e" stroke="black" cx="455.14" cy="-558" rx="67" ry="18"/>
<text text-anchor="middle" x="455.14" y="-554.3" font-family="Times-Roman" font-size="14.00" fill="white">cyrus sasl ✓</text>
</a>
</g>
</g>
<!-- nds2&#45;client -->
<g id="node9" class="node">
<title>nds2&#45;client</title>
<g id="a_node9"><a xlink:href="https://github.com/conda-forge/nds2-client-feedstock" xlink:title="nds2 client">
<ellipse fill="#fde725" stroke="black" cx="324.14" cy="-486" rx="60.5" ry="18"/>
<text text-anchor="middle" x="324.14" y="-482.3" font-family="Times-Roman" font-size="14.00">nds2 client</text>
</a>
</g>
</g>
<!-- cyrus&#45;sasl&#45;&gt;nds2&#45;client -->
<g id="edge7" class="edge">
<title>cyrus&#45;sasl&#45;&gt;nds2&#45;client</title>
<path fill="none" stroke="black" d="M426.4,-541.64C407.24,-531.4 381.88,-517.85 361.21,-506.81"/>
<polygon fill="black" stroke="black" points="362.85,-503.71 352.38,-502.09 359.55,-509.89 362.85,-503.71"/>
</g>
<!-- openldap -->
<g id="node10" class="node">
<title>openldap</title>
<g id="a_node10"><a xlink:href="https://github.com/conda-forge/openldap-feedstock" xlink:title="openldap">
<ellipse fill="#fde725" stroke="black" cx="455.14" cy="-486" rx="52.79" ry="18"/>
<text text-anchor="middle" x="455.14" y="-482.3" font-family="Times-Roman" font-size="14.00">openldap</text>
</a>
</g>
</g>
<!-- cyrus&#45;sasl&#45;&gt;openldap -->
<g id="edge8" class="edge">
<title>cyrus&#45;sasl&#45;&gt;openldap</title>
<path fill="none" stroke="black" d="M455.14,-539.7C455.14,-531.98 455.14,-522.71 455.14,-514.11"/>
<polygon fill="black" stroke="black" points="458.64,-514.1 455.14,-504.1 451.64,-514.1 458.64,-514.1"/>
</g>
<!-- myproxy -->
<g id="node11" class="node">
<title>myproxy</title>
<g id="a_node11"><a xlink:href="https://github.com/conda-forge/myproxy-feedstock" xlink:title="myproxy">
<ellipse fill="#fde725" stroke="black" cx="525.14" cy="-414" rx="50.09" ry="18"/>
<text text-anchor="middle" x="525.14" y="-410.3" font-family="Times-Roman" font-size="14.00">myproxy</text>
</a>
</g>
</g>
<!-- cyrus&#45;sasl&#45;&gt;myproxy -->
<g id="edge9" class="edge">
<title>cyrus&#45;sasl&#45;&gt;myproxy</title>
<path fill="none" stroke="black" d="M481.81,-541.26C494.77,-532.11 509.22,-519.35 517.14,-504 526.96,-484.99 528.52,-460.63 527.87,-442.2"/>
<polygon fill="black" stroke="black" points="531.36,-441.9 527.28,-432.12 524.37,-442.31 531.36,-441.9"/>
</g>
<!-- openldap&#45;&gt;htcondor -->
<g id="edge10" class="edge">
<title>openldap&#45;&gt;htcondor</title>
<path fill="none" stroke="black" d="M442.58,-468.41C436.05,-459.78 427.93,-449.06 420.69,-439.5"/>
<polygon fill="black" stroke="black" points="423.44,-437.33 414.61,-431.47 417.86,-441.56 423.44,-437.33"/>
</g>
<!-- openldap&#45;&gt;myproxy -->
<g id="edge11" class="edge">
<title>openldap&#45;&gt;myproxy</title>
<path fill="none" stroke="black" d="M471.38,-468.76C480.39,-459.75 491.76,-448.39 501.72,-438.43"/>
<polygon fill="black" stroke="black" points="504.4,-440.69 509,-431.15 499.45,-435.74 504.4,-440.69"/>
</g>
<!-- libgsasl -->
<g id="node12" class="node">
<title>libgsasl</title>
<g id="a_node12"><a xlink:href="https://github.com/conda-forge/libgsasl-feedstock/pull/21" xlink:title="libgsasl ❎">
<ellipse fill="#31688e" stroke="black" cx="59.14" cy="-486" rx="59.29" ry="18"/>
<text text-anchor="middle" x="59.14" y="-482.3" font-family="Times-Roman" font-size="14.00" fill="white">libgsasl ❎</text>
</a>
</g>
</g>
<!-- libgsasl&#45;&gt;libhdfs3 -->
<g id="edge12" class="edge">
<title>libgsasl&#45;&gt;libhdfs3</title>
<path fill="none" stroke="black" d="M59.14,-467.7C59.14,-459.98 59.14,-450.71 59.14,-442.11"/>
<polygon fill="black" stroke="black" points="62.64,-442.1 59.14,-432.1 55.64,-442.1 62.64,-442.1"/>
</g>
<!-- lighttpd -->
<g id="node13" class="node">
<title>lighttpd</title>
<g id="a_node13"><a xlink:href="https://github.com/conda-forge/lighttpd-feedstock" xlink:title="lighttpd">
<ellipse fill="#35b779" stroke="black" cx="658.14" cy="-738" rx="46.29" ry="18"/>
<text text-anchor="middle" x="658.14" y="-734.3" font-family="Times-Roman" font-size="14.00">lighttpd</text>
</a>
</g>
</g>
<!-- postgresql -->
<g id="node14" class="node">
<title>postgresql</title>
<g id="a_node14"><a xlink:href="https://github.com/conda-forge/postgresql-feedstock/pull/91" xlink:title="postgresql ✓">
<ellipse fill="#31688e" stroke="black" cx="658.14" cy="-666" rx="69" ry="18"/>
<text text-anchor="middle" x="658.14" y="-662.3" font-family="Times-Roman" font-size="14.00" fill="white">postgresql ✓</text>
</a>
</g>
</g>
<!-- lighttpd&#45;&gt;postgresql -->
<!-- root5 -->
<g id="node15" class="node">
<title>root5</title>
<g id="a_node15"><a xlink:href="https://github.com/conda-forge/root5-feedstock" xlink:title="root5">
<ellipse fill="#35b779" stroke="black" cx="658.14" cy="-594" rx="34.5" ry="18"/>
<text text-anchor="middle" x="658.14" y="-590.3" font-family="Times-Roman" font-size="14.00">root5</text>
</a>
</g>
</g>
<!-- postgresql&#45;&gt;root5 -->
<!-- postgres&#45;xl -->
<g id="node16" class="node">
<title>postgres&#45;xl</title>
<g id="a_node16"><a xlink:href="https://github.com/conda-forge/postgres-xl-feedstock" xlink:title="postgres xl">
<ellipse fill="#35b779" stroke="black" cx="658.14" cy="-522" rx="60.5" ry="18"/>
<text text-anchor="middle" x="658.14" y="-518.3" font-family="Times-Roman" font-size="14.00">postgres xl</text>
</a>
</g>
</g>
<!-- root5&#45;&gt;postgres&#45;xl -->
<!-- mongo&#45;tools -->
<g id="node17" class="node">
<title>mongo&#45;tools</title>
<g id="a_node17"><a xlink:href="https://github.com/conda-forge/mongo-tools-feedstock" xlink:title="mongo tools">
<ellipse fill="#35b779" stroke="black" cx="658.14" cy="-450" rx="66.5" ry="18"/>
<text text-anchor="middle" x="658.14" y="-446.3" font-family="Times-Roman" font-size="14.00">mongo tools</text>
</a>
</g>
</g>
<!-- postgres&#45;xl&#45;&gt;mongo&#45;tools -->
<!-- pykerberos -->
<g id="node18" class="node">
<title>pykerberos</title>
<g id="a_node18"><a xlink:href="https://github.com/conda-forge/pykerberos-feedstock/pull/11" xlink:title="pykerberos ❎">
<ellipse fill="#31688e" stroke="black" cx="658.14" cy="-378" rx="75.5" ry="18"/>
<text text-anchor="middle" x="658.14" y="-374.3" font-family="Times-Roman" font-size="14.00" fill="white">pykerberos ❎</text>
</a>
</g>
</g>
<!-- mongo&#45;tools&#45;&gt;pykerberos -->
<!-- dcap -->
<g id="node19" class="node">
<title>dcap</title>
<g id="a_node19"><a xlink:href="https://github.com/conda-forge/dcap-feedstock/pull/4" xlink:title="dcap ❎">
<ellipse fill="#31688e" stroke="black" cx="658.14" cy="-306" rx="47" ry="18"/>
<text text-anchor="middle" x="658.14" y="-302.3" font-family="Times-Roman" font-size="14.00" fill="white">dcap ❎</text>
</a>
</g>
</g>
<!-- pykerberos&#45;&gt;dcap -->
<!-- openshift&#45;cli -->
<g id="node20" class="node">
<title>openshift&#45;cli</title>
<g id="a_node20"><a xlink:href="https://github.com/conda-forge/openshift-cli-feedstock" xlink:title="openshift cli">
<ellipse fill="#35b779" stroke="black" cx="658.14" cy="-234" rx="65.79" ry="18"/>
<text text-anchor="middle" x="658.14" y="-230.3" font-family="Times-Roman" font-size="14.00">openshift cli</text>
</a>
</g>
</g>
<!-- dcap&#45;&gt;openshift&#45;cli -->
<!-- kio -->
<g id="node21" class="node">
<title>kio</title>
<g id="a_node21"><a xlink:href="https://github.com/conda-forge/kio-feedstock" xlink:title="kio">
<ellipse fill="#ff8c00" stroke="black" cx="658.14" cy="-162" rx="27" ry="18"/>
<text text-anchor="middle" x="658.14" y="-158.3" font-family="Times-Roman" font-size="14.00">kio</text>
</a>
</g>
</g>
<!-- openshift&#45;cli&#45;&gt;kio -->
<!-- openconnect -->
<g id="node22" class="node">
<title>openconnect</title>
<g id="a_node22"><a xlink:href="https://github.com/conda-forge/openconnect-feedstock" xlink:title="openconnect">
<ellipse fill="#35b779" stroke="black" cx="658.14" cy="-90" rx="69" ry="18"/>
<text text-anchor="middle" x="658.14" y="-86.3" font-family="Times-Roman" font-size="14.00">openconnect</text>
</a>
</g>
</g>
<!-- kio&#45;&gt;openconnect -->
<!-- python&#45;gssapi -->
<g id="node23" class="node">
<title>python&#45;gssapi</title>
<g id="a_node23"><a xlink:href="https://github.com/conda-forge/python-gssapi-feedstock" xlink:title="python gssapi">
<ellipse fill="#35b779" stroke="black" cx="658.14" cy="-18" rx="74.99" ry="18"/>
<text text-anchor="middle" x="658.14" y="-14.3" font-family="Times-Roman" font-size="14.00">python gssapi</text>
</a>
</g>
</g>
<!-- openconnect&#45;&gt;python&#45;gssapi -->
</g>
</svg>
