<?xml version="1.0" encoding="UTF-8" standalone="no"?>
<!DOCTYPE svg PUBLIC "-//W3C//DTD SVG 1.1//EN"
 "http://www.w3.org/Graphics/SVG/1.1/DTD/svg11.dtd">
<!-- Generated by graphviz version 2.49.0 (20210829.0051)
 -->
<!-- Pages: 1 -->
<svg width="911pt" height="332pt"
 viewBox="0.00 0.00 911.34 332.00" xmlns="http://www.w3.org/2000/svg" xmlns:xlink="http://www.w3.org/1999/xlink">
<g id="graph0" class="graph" transform="scale(1 1) rotate(0) translate(4 328)">
<polygon fill="white" stroke="transparent" points="-4,4 -4,-328 907.34,-328 907.34,4 -4,4"/>
<!-- cffi -->
<g id="node1" class="node">
<title>cffi</title>
<g id="a_node1"><a xlink:href="https://github.com/conda-forge/cffi-feedstock" xlink:title="cffi">
<ellipse fill="#fde725" stroke="black" cx="216.19" cy="-234" rx="27" ry="18"/>
<text text-anchor="middle" x="216.19" y="-230.3" font-family="Times,serif" font-size="14.00">cffi</text>
</a>
</g>
</g>
<!-- glib -->
<g id="node2" class="node">
<title>glib</title>
<g id="a_node2"><a xlink:href="https://github.com/conda-forge/glib-feedstock" xlink:title="glib">
<ellipse fill="#fde725" stroke="black" cx="328.19" cy="-234" rx="28.7" ry="18"/>
<text text-anchor="middle" x="328.19" y="-230.3" font-family="Times,serif" font-size="14.00">glib</text>
</a>
</g>
</g>
<!-- gobject&#45;introspection -->
<g id="node3" class="node">
<title>gobject&#45;introspection</title>
<g id="a_node3"><a xlink:href="https://github.com/conda-forge/gobject-introspection-feedstock" xlink:title="gobject introspection">
<ellipse fill="#fde725" stroke="black" cx="109.19" cy="-162" rx="109.38" ry="18"/>
<text text-anchor="middle" x="109.19" y="-158.3" font-family="Times,serif" font-size="14.00">gobject introspection</text>
</a>
</g>
</g>
<!-- glib&#45;&gt;gobject&#45;introspection -->
<g id="edge1" class="edge">
<title>glib&#45;&gt;gobject&#45;introspection</title>
<path fill="none" stroke="black" d="M304.67,-223.29C298.38,-220.8 291.56,-218.21 285.19,-216 248.02,-203.08 205.81,-190.31 172.05,-180.54"/>
<polygon fill="black" stroke="black" points="172.9,-177.14 162.32,-177.74 170.96,-183.87 172.9,-177.14"/>
</g>
<!-- pygobject -->
<g id="node4" class="node">
<title>pygobject</title>
<g id="a_node4"><a xlink:href="https://github.com/conda-forge/pygobject-feedstock" xlink:title="pygobject">
<ellipse fill="#fde725" stroke="black" cx="246.19" cy="-90" rx="56" ry="18"/>
<text text-anchor="middle" x="246.19" y="-86.3" font-family="Times,serif" font-size="14.00">pygobject</text>
</a>
</g>
</g>
<!-- glib&#45;&gt;pygobject -->
<g id="edge2" class="edge">
<title>glib&#45;&gt;pygobject</title>
<path fill="none" stroke="black" d="M308.05,-221.18C293.88,-211.8 275.64,-197.4 265.19,-180 253.97,-161.32 249.32,-136.93 247.43,-118.41"/>
<polygon fill="black" stroke="black" points="250.9,-117.95 246.6,-108.27 243.92,-118.52 250.9,-117.95"/>
</g>
<!-- git&#45;annex -->
<g id="node5" class="node">
<title>git&#45;annex</title>
<g id="a_node5"><a xlink:href="https://github.com/conda-forge/git-annex-feedstock" xlink:title="git annex">
<ellipse fill="#fde725" stroke="black" cx="328.19" cy="-162" rx="54" ry="18"/>
<text text-anchor="middle" x="328.19" y="-158.3" font-family="Times,serif" font-size="14.00">git annex</text>
</a>
</g>
</g>
<!-- glib&#45;&gt;git&#45;annex -->
<g id="edge3" class="edge">
<title>glib&#45;&gt;git&#45;annex</title>
<path fill="none" stroke="black" d="M328.19,-215.7C328.19,-207.98 328.19,-198.71 328.19,-190.11"/>
<polygon fill="black" stroke="black" points="331.69,-190.1 328.19,-180.1 324.69,-190.1 331.69,-190.1"/>
</g>
<!-- gobject&#45;introspection&#45;&gt;pygobject -->
<g id="edge4" class="edge">
<title>gobject&#45;introspection&#45;&gt;pygobject</title>
<path fill="none" stroke="black" d="M140.97,-144.76C161.07,-134.49 187.17,-121.16 208.35,-110.34"/>
<polygon fill="black" stroke="black" points="210.07,-113.38 217.39,-105.72 206.89,-107.15 210.07,-113.38"/>
</g>
<!-- python -->
<g id="node6" class="node">
<title>python</title>
<g id="a_node6"><a xlink:href="https://github.com/conda-forge/python-feedstock/pull/484" xlink:title="python ❎">
<ellipse fill="#31688e" stroke="black" cx="410.19" cy="-306" rx="57.39" ry="18"/>
<text text-anchor="middle" x="410.19" y="-302.3" font-family="Times,serif" font-size="14.00" fill="white">python ❎</text>
</a>
</g>
</g>
<!-- python&#45;&gt;cffi -->
<g id="edge5" class="edge">
<title>python&#45;&gt;cffi</title>
<path fill="none" stroke="black" d="M371.92,-292.45C340.84,-282.08 295.95,-266.73 257.19,-252 254.09,-250.82 250.88,-249.56 247.68,-248.28"/>
<polygon fill="black" stroke="black" points="248.8,-244.96 238.22,-244.42 246.16,-251.44 248.8,-244.96"/>
</g>
<!-- python&#45;&gt;glib -->
<g id="edge6" class="edge">
<title>python&#45;&gt;glib</title>
<path fill="none" stroke="black" d="M391.17,-288.76C379.61,-278.89 364.73,-266.19 352.34,-255.61"/>
<polygon fill="black" stroke="black" points="354.49,-252.85 344.61,-249.02 349.94,-258.17 354.49,-252.85"/>
</g>
<!-- python&#45;&gt;gobject&#45;introspection -->
<g id="edge7" class="edge">
<title>python&#45;&gt;gobject&#45;introspection</title>
<path fill="none" stroke="black" d="M372.81,-292.29C348.23,-283.04 315.98,-269.16 290.19,-252 270.82,-239.11 271.94,-228.29 252.19,-216 228.17,-201.05 199.29,-189.35 173.79,-180.79"/>
<polygon fill="black" stroke="black" points="174.79,-177.43 164.2,-177.66 172.62,-184.09 174.79,-177.43"/>
</g>
<!-- python&#45;&gt;pygobject -->
<g id="edge8" class="edge">
<title>python&#45;&gt;pygobject</title>
<path fill="none" stroke="black" d="M413.5,-287.79C418.63,-255.76 424.7,-186.39 391.19,-144 371.25,-118.78 338.17,-105.56 308.63,-98.63"/>
<polygon fill="black" stroke="black" points="309.29,-95.19 298.78,-96.51 307.82,-102.03 309.29,-95.19"/>
</g>
<!-- adios2 -->
<g id="node7" class="node">
<title>adios2</title>
<g id="a_node7"><a xlink:href="https://github.com/conda-forge/adios2-feedstock" xlink:title="adios2">
<ellipse fill="#fde725" stroke="black" cx="479.19" cy="-162" rx="41" ry="18"/>
<text text-anchor="middle" x="479.19" y="-158.3" font-family="Times,serif" font-size="14.00">adios2</text>
</a>
</g>
</g>
<!-- python&#45;&gt;adios2 -->
<g id="edge9" class="edge">
<title>python&#45;&gt;adios2</title>
<path fill="none" stroke="black" d="M418.38,-288.15C430.31,-263.6 452.58,-217.77 466.6,-188.91"/>
<polygon fill="black" stroke="black" points="469.79,-190.35 471.01,-179.82 463.5,-187.29 469.79,-190.35"/>
</g>
<!-- micropython -->
<g id="node8" class="node">
<title>micropython</title>
<g id="a_node8"><a xlink:href="https://github.com/conda-forge/micropython-feedstock" xlink:title="micropython">
<ellipse fill="#fde725" stroke="black" cx="548.19" cy="-90" rx="69.59" ry="18"/>
<text text-anchor="middle" x="548.19" y="-86.3" font-family="Times,serif" font-size="14.00">micropython</text>
</a>
</g>
</g>
<!-- python&#45;&gt;micropython -->
<g id="edge10" class="edge">
<title>python&#45;&gt;micropython</title>
<path fill="none" stroke="black" d="M431.51,-288.93C458.63,-267.29 504.86,-226.11 529.19,-180 539.36,-160.73 544.09,-136.39 546.28,-118.03"/>
<polygon fill="black" stroke="black" points="549.77,-118.31 547.31,-108 542.81,-117.6 549.77,-118.31"/>
</g>
<!-- wasmer -->
<g id="node9" class="node">
<title>wasmer</title>
<g id="a_node9"><a xlink:href="https://github.com/conda-forge/wasmer-feedstock" xlink:title="wasmer">
<ellipse fill="#fde725" stroke="black" cx="646.19" cy="-18" rx="47.5" ry="18"/>
<text text-anchor="middle" x="646.19" y="-14.3" font-family="Times,serif" font-size="14.00">wasmer</text>
</a>
</g>
</g>
<!-- python&#45;&gt;wasmer -->
<g id="edge11" class="edge">
<title>python&#45;&gt;wasmer</title>
<path fill="none" stroke="black" d="M441.55,-290.8C460.7,-281.32 485.1,-267.72 504.19,-252 569.18,-198.51 589.93,-183.47 627.19,-108 636.78,-88.58 641.55,-64.43 643.91,-46.2"/>
<polygon fill="black" stroke="black" points="647.39,-46.55 645.04,-36.22 640.43,-45.76 647.39,-46.55"/>
</g>
<!-- ruby -->
<g id="node10" class="node">
<title>ruby</title>
<g id="a_node10"><a xlink:href="https://github.com/conda-forge/ruby-feedstock/pull/67" xlink:title="ruby ❎">
<ellipse fill="#31688e" stroke="black" cx="857.19" cy="-198" rx="46.29" ry="18"/>
<text text-anchor="middle" x="857.19" y="-194.3" font-family="Times,serif" font-size="14.00" fill="white">ruby ❎</text>
</a>
</g>
</g>
<!-- rb&#45;ffi -->
<g id="node11" class="node">
<title>rb&#45;ffi</title>
<g id="a_node11"><a xlink:href="https://github.com/conda-forge/rb-ffi-feedstock" xlink:title="rb ffi">
<ellipse fill="#fde725" stroke="black" cx="857.19" cy="-126" rx="33.29" ry="18"/>
<text text-anchor="middle" x="857.19" y="-122.3" font-family="Times,serif" font-size="14.00">rb ffi</text>
</a>
</g>
</g>
<!-- ruby&#45;&gt;rb&#45;ffi -->
<g id="edge12" class="edge">
<title>ruby&#45;&gt;rb&#45;ffi</title>
<path fill="none" stroke="black" d="M857.19,-179.7C857.19,-171.98 857.19,-162.71 857.19,-154.11"/>
<polygon fill="black" stroke="black" points="860.69,-154.1 857.19,-144.1 853.69,-154.1 860.69,-154.1"/>
</g>
<!-- p11&#45;kit -->
<g id="node12" class="node">
<title>p11&#45;kit</title>
<g id="a_node12"><a xlink:href="https://github.com/conda-forge/p11-kit-feedstock/pull/13" xlink:title="p11 kit ✓">
<ellipse fill="#31688e" stroke="black" cx="752.19" cy="-198" rx="50.89" ry="18"/>
<text text-anchor="middle" x="752.19" y="-194.3" font-family="Times,serif" font-size="14.00" fill="white">p11 kit ✓</text>
</a>
</g>
</g>
<!-- guile -->
<g id="node13" class="node">
<title>guile</title>
<g id="a_node13"><a xlink:href="https://github.com/conda-forge/guile-feedstock/pull/10" xlink:title="guile ❎">
<ellipse fill="#31688e" stroke="black" cx="752.19" cy="-126" rx="48.19" ry="18"/>
<text text-anchor="middle" x="752.19" y="-122.3" font-family="Times,serif" font-size="14.00" fill="white">guile ❎</text>
</a>
</g>
</g>
<!-- p11&#45;kit&#45;&gt;guile -->
</g>
</svg>
