<?xml version="1.0" encoding="UTF-8" standalone="no"?>
<!DOCTYPE svg PUBLIC "-//W3C//DTD SVG 1.1//EN"
 "http://www.w3.org/Graphics/SVG/1.1/DTD/svg11.dtd">
<!-- Generated by graphviz version 2.49.0 (20210829.0051)
 -->
<!-- Pages: 1 -->
<svg width="591pt" height="304pt"
 viewBox="0.00 0.00 591.39 304.00" xmlns="http://www.w3.org/2000/svg" xmlns:xlink="http://www.w3.org/1999/xlink">
<g id="graph0" class="graph" transform="scale(1 1) rotate(0) translate(4 300)">
<polygon fill="white" stroke="transparent" points="-4,4 -4,-300 587.39,-300 587.39,4 -4,4"/>
<!-- gap -->
<g id="node1" class="node">
<title>gap</title>
<g id="a_node1"><a xlink:href="https://github.com/conda-forge/gap-feedstock" xlink:title="gap">
<ellipse fill="#fde725" stroke="black" cx="190.04" cy="-134" rx="27.9" ry="18"/>
<text text-anchor="middle" x="190.04" y="-130.3" font-family="Times,serif" font-size="14.00">gap</text>
</a>
</g>
</g>
<!-- sagelib -->
<g id="node5" class="node">
<title>sagelib</title>
<g id="a_node5"><a xlink:href="https://github.com/conda-forge/sagelib-feedstock" xlink:title="sagelib">
<ellipse fill="#fde725" stroke="black" cx="129.04" cy="-62" rx="44.39" ry="18"/>
<text text-anchor="middle" x="129.04" y="-58.3" font-family="Times,serif" font-size="14.00">sagelib</text>
</a>
</g>
</g>
<!-- gap&#45;&gt;sagelib -->
<g id="edge1" class="edge">
<title>gap&#45;&gt;sagelib</title>
<path fill="none" stroke="black" d="M176.81,-117.81C168.96,-108.8 158.83,-97.18 149.92,-86.95"/>
<polygon fill="black" stroke="black" points="152.31,-84.37 143.1,-79.13 147.03,-88.97 152.31,-84.37"/>
</g>
<!-- mppp -->
<g id="node2" class="node">
<title>mppp</title>
<g id="a_node2"><a xlink:href="https://github.com/conda-forge/mppp-feedstock" xlink:title="mppp">
<ellipse fill="#ff8c00" stroke="black" cx="123.04" cy="-18" rx="37.09" ry="18"/>
<text text-anchor="middle" x="123.04" y="-14.3" font-family="Times,serif" font-size="14.00">mppp</text>
</a>
</g>
</g>
<!-- pynac -->
<g id="node3" class="node">
<title>pynac</title>
<g id="a_node3"><a xlink:href="https://github.com/conda-forge/pynac-feedstock" xlink:title="pynac">
<ellipse fill="#fde725" stroke="black" cx="63.04" cy="-134" rx="38.19" ry="18"/>
<text text-anchor="middle" x="63.04" y="-130.3" font-family="Times,serif" font-size="14.00">pynac</text>
</a>
</g>
</g>
<!-- pynac&#45;&gt;sagelib -->
<g id="edge2" class="edge">
<title>pynac&#45;&gt;sagelib</title>
<path fill="none" stroke="black" d="M78.02,-117.12C86.51,-108.12 97.29,-96.68 106.75,-86.65"/>
<polygon fill="black" stroke="black" points="109.36,-88.98 113.67,-79.31 104.26,-84.18 109.36,-88.98"/>
</g>
<!-- python&#45;symengine -->
<g id="node4" class="node">
<title>python&#45;symengine</title>
<g id="a_node4"><a xlink:href="https://github.com/conda-forge/python-symengine-feedstock" xlink:title="python symengine">
<ellipse fill="#35b779" stroke="black" cx="350.04" cy="-170" rx="96.38" ry="18"/>
<text text-anchor="middle" x="350.04" y="-166.3" font-family="Times,serif" font-size="14.00">python symengine</text>
</a>
</g>
</g>
<!-- singular -->
<g id="node6" class="node">
<title>singular</title>
<g id="a_node6"><a xlink:href="https://github.com/conda-forge/singular-feedstock/pull/20" xlink:title="singular ❎">
<ellipse fill="#31688e" stroke="black" cx="63.04" cy="-206" rx="63.09" ry="18"/>
<text text-anchor="middle" x="63.04" y="-202.3" font-family="Times,serif" font-size="14.00" fill="white">singular ❎</text>
</a>
</g>
</g>
<!-- singular&#45;&gt;pynac -->
<g id="edge3" class="edge">
<title>singular&#45;&gt;pynac</title>
<path fill="none" stroke="black" d="M63.04,-187.7C63.04,-179.98 63.04,-170.71 63.04,-162.11"/>
<polygon fill="black" stroke="black" points="66.54,-162.1 63.04,-152.1 59.54,-162.1 66.54,-162.1"/>
</g>
<!-- singular&#45;&gt;sagelib -->
<g id="edge4" class="edge">
<title>singular&#45;&gt;sagelib</title>
<path fill="none" stroke="black" d="M81.69,-188.58C91.56,-178.89 103.06,-165.83 110.04,-152 119.81,-132.67 124.57,-108.52 126.88,-90.25"/>
<polygon fill="black" stroke="black" points="130.36,-90.58 127.97,-80.26 123.4,-89.82 130.36,-90.58"/>
</g>
<!-- python&#45;flint -->
<g id="node7" class="node">
<title>python&#45;flint</title>
<g id="a_node7"><a xlink:href="https://github.com/conda-forge/python-flint-feedstock" xlink:title="python flint">
<ellipse fill="#ff8c00" stroke="black" cx="519.04" cy="-170" rx="64.19" ry="18"/>
<text text-anchor="middle" x="519.04" y="-166.3" font-family="Times,serif" font-size="14.00">python flint</text>
</a>
</g>
</g>
<!-- e&#45;antic -->
<g id="node8" class="node">
<title>e&#45;antic</title>
<g id="a_node8"><a xlink:href="https://github.com/conda-forge/e-antic-feedstock" xlink:title="e antic">
<ellipse fill="#35b779" stroke="black" cx="195.04" cy="-278" rx="42.49" ry="18"/>
<text text-anchor="middle" x="195.04" y="-274.3" font-family="Times,serif" font-size="14.00">e antic</text>
</a>
</g>
</g>
<!-- normaliz -->
<g id="node9" class="node">
<title>normaliz</title>
<g id="a_node9"><a xlink:href="https://github.com/conda-forge/normaliz-feedstock" xlink:title="normaliz">
<ellipse fill="#fde725" stroke="black" cx="195.04" cy="-206" rx="51.19" ry="18"/>
<text text-anchor="middle" x="195.04" y="-202.3" font-family="Times,serif" font-size="14.00">normaliz</text>
</a>
</g>
</g>
<!-- e&#45;antic&#45;&gt;normaliz -->
<g id="edge5" class="edge">
<title>e&#45;antic&#45;&gt;normaliz</title>
<path fill="none" stroke="black" d="M195.04,-259.7C195.04,-251.98 195.04,-242.71 195.04,-234.11"/>
<polygon fill="black" stroke="black" points="198.54,-234.1 195.04,-224.1 191.54,-234.1 198.54,-234.1"/>
</g>
<!-- normaliz&#45;&gt;gap -->
<g id="edge6" class="edge">
<title>normaliz&#45;&gt;gap</title>
<path fill="none" stroke="black" d="M193.81,-187.7C193.26,-179.98 192.6,-170.71 191.98,-162.11"/>
<polygon fill="black" stroke="black" points="195.47,-161.83 191.27,-152.1 188.49,-162.33 195.47,-161.83"/>
</g>
</g>
</svg>
