<?xml version="1.0" encoding="UTF-8" standalone="no"?>
<!DOCTYPE svg PUBLIC "-//W3C//DTD SVG 1.1//EN"
 "http://www.w3.org/Graphics/SVG/1.1/DTD/svg11.dtd">
<!-- Generated by graphviz version 2.49.0 (20210829.0051)
 -->
<!-- Pages: 1 -->
<svg width="916pt" height="404pt"
 viewBox="0.00 0.00 916.20 404.00" xmlns="http://www.w3.org/2000/svg" xmlns:xlink="http://www.w3.org/1999/xlink">
<g id="graph0" class="graph" transform="scale(1 1) rotate(0) translate(4 400)">
<polygon fill="white" stroke="transparent" points="-4,4 -4,-400 912.2,-400 912.2,4 -4,4"/>
<!-- cffi -->
<g id="node1" class="node">
<title>cffi</title>
<g id="a_node1"><a xlink:href="https://github.com/conda-forge/cffi-feedstock" xlink:title="cffi">
<ellipse fill="#fde725" stroke="black" cx="38.5" cy="-306" rx="27" ry="18"/>
<text text-anchor="middle" x="38.5" y="-302.3" font-family="Times,serif" font-size="14.00">cffi</text>
</a>
</g>
</g>
<!-- ghc -->
<g id="node2" class="node">
<title>ghc</title>
<g id="a_node2"><a xlink:href="https://github.com/conda-forge/ghc-feedstock" xlink:title="ghc">
<ellipse fill="#fde725" stroke="black" cx="27.5" cy="-234" rx="27.5" ry="18"/>
<text text-anchor="middle" x="27.5" y="-230.3" font-family="Times,serif" font-size="14.00">ghc</text>
</a>
</g>
</g>
<!-- cffi&#45;&gt;ghc -->
<g id="edge1" class="edge">
<title>cffi&#45;&gt;ghc</title>
<path fill="none" stroke="black" d="M35.84,-288.05C34.63,-280.35 33.16,-271.03 31.8,-262.36"/>
<polygon fill="black" stroke="black" points="35.22,-261.61 30.21,-252.28 28.31,-262.7 35.22,-261.61"/>
</g>
<!-- gdal -->
<g id="node3" class="node">
<title>gdal</title>
<g id="a_node3"><a xlink:href="https://github.com/conda-forge/gdal-feedstock" xlink:title="gdal">
<ellipse fill="#fde725" stroke="black" cx="103.5" cy="-234" rx="30.59" ry="18"/>
<text text-anchor="middle" x="103.5" y="-230.3" font-family="Times,serif" font-size="14.00">gdal</text>
</a>
</g>
</g>
<!-- glib -->
<g id="node4" class="node">
<title>glib</title>
<g id="a_node4"><a xlink:href="https://github.com/conda-forge/glib-feedstock" xlink:title="glib">
<ellipse fill="#fde725" stroke="black" cx="439.5" cy="-306" rx="28.7" ry="18"/>
<text text-anchor="middle" x="439.5" y="-302.3" font-family="Times,serif" font-size="14.00">glib</text>
</a>
</g>
</g>
<!-- gobject&#45;introspection -->
<g id="node5" class="node">
<title>gobject&#45;introspection</title>
<g id="a_node5"><a xlink:href="https://github.com/conda-forge/gobject-introspection-feedstock" xlink:title="gobject introspection">
<ellipse fill="#fde725" stroke="black" cx="261.5" cy="-234" rx="109.38" ry="18"/>
<text text-anchor="middle" x="261.5" y="-230.3" font-family="Times,serif" font-size="14.00">gobject introspection</text>
</a>
</g>
</g>
<!-- glib&#45;&gt;gobject&#45;introspection -->
<g id="edge2" class="edge">
<title>glib&#45;&gt;gobject&#45;introspection</title>
<path fill="none" stroke="black" d="M415.86,-295.7C389.24,-285.23 345.22,-267.92 310.99,-254.46"/>
<polygon fill="black" stroke="black" points="312.2,-251.18 301.62,-250.78 309.64,-257.69 312.2,-251.18"/>
</g>
<!-- pygobject -->
<g id="node6" class="node">
<title>pygobject</title>
<g id="a_node6"><a xlink:href="https://github.com/conda-forge/pygobject-feedstock" xlink:title="pygobject">
<ellipse fill="#fde725" stroke="black" cx="398.5" cy="-162" rx="56" ry="18"/>
<text text-anchor="middle" x="398.5" y="-158.3" font-family="Times,serif" font-size="14.00">pygobject</text>
</a>
</g>
</g>
<!-- glib&#45;&gt;pygobject -->
<g id="edge3" class="edge">
<title>glib&#45;&gt;pygobject</title>
<path fill="none" stroke="black" d="M431.77,-288.58C427.14,-278.25 421.41,-264.56 417.5,-252 411.17,-231.67 406.24,-208.07 402.99,-190.29"/>
<polygon fill="black" stroke="black" points="406.41,-189.54 401.23,-180.3 399.52,-190.76 406.41,-189.54"/>
</g>
<!-- git&#45;annex -->
<g id="node7" class="node">
<title>git&#45;annex</title>
<g id="a_node7"><a xlink:href="https://github.com/conda-forge/git-annex-feedstock" xlink:title="git annex">
<ellipse fill="#fde725" stroke="black" cx="480.5" cy="-234" rx="54" ry="18"/>
<text text-anchor="middle" x="480.5" y="-230.3" font-family="Times,serif" font-size="14.00">git annex</text>
</a>
</g>
</g>
<!-- glib&#45;&gt;git&#45;annex -->
<g id="edge4" class="edge">
<title>glib&#45;&gt;git&#45;annex</title>
<path fill="none" stroke="black" d="M449.01,-288.76C453.84,-280.53 459.81,-270.32 465.26,-261.02"/>
<polygon fill="black" stroke="black" points="468.44,-262.52 470.47,-252.12 462.4,-258.98 468.44,-262.52"/>
</g>
<!-- gobject&#45;introspection&#45;&gt;pygobject -->
<g id="edge5" class="edge">
<title>gobject&#45;introspection&#45;&gt;pygobject</title>
<path fill="none" stroke="black" d="M293.27,-216.76C313.38,-206.49 339.48,-193.16 360.66,-182.34"/>
<polygon fill="black" stroke="black" points="362.38,-185.38 369.7,-177.72 359.2,-179.15 362.38,-185.38"/>
</g>
<!-- python -->
<g id="node8" class="node">
<title>python</title>
<g id="a_node8"><a xlink:href="https://github.com/conda-forge/python-feedstock/pull/484" xlink:title="python ❎">
<ellipse fill="#31688e" stroke="black" cx="521.5" cy="-378" rx="57.39" ry="18"/>
<text text-anchor="middle" x="521.5" y="-374.3" font-family="Times,serif" font-size="14.00" fill="white">python ❎</text>
</a>
</g>
</g>
<!-- python&#45;&gt;cffi -->
<g id="edge6" class="edge">
<title>python&#45;&gt;cffi</title>
<path fill="none" stroke="black" d="M465.66,-373.72C382.74,-368.05 222.55,-354.02 89.5,-324 83.49,-322.64 77.19,-320.86 71.15,-318.95"/>
<polygon fill="black" stroke="black" points="71.92,-315.52 61.33,-315.69 69.71,-322.16 71.92,-315.52"/>
</g>
<!-- python&#45;&gt;gdal -->
<g id="edge7" class="edge">
<title>python&#45;&gt;gdal</title>
<path fill="none" stroke="black" d="M479.69,-365.7C442.64,-355.48 387.18,-339.68 339.5,-324 251.34,-295.01 229.79,-286.16 143.5,-252 141.31,-251.13 139.06,-250.22 136.79,-249.3"/>
<polygon fill="black" stroke="black" points="138.11,-246.05 127.53,-245.44 135.42,-252.52 138.11,-246.05"/>
</g>
<!-- python&#45;&gt;glib -->
<g id="edge8" class="edge">
<title>python&#45;&gt;glib</title>
<path fill="none" stroke="black" d="M502.48,-360.76C490.92,-350.89 476.04,-338.19 463.65,-327.61"/>
<polygon fill="black" stroke="black" points="465.8,-324.85 455.92,-321.02 461.25,-330.17 465.8,-324.85"/>
</g>
<!-- python&#45;&gt;gobject&#45;introspection -->
<g id="edge9" class="edge">
<title>python&#45;&gt;gobject&#45;introspection</title>
<path fill="none" stroke="black" d="M487.23,-363.48C462.87,-353.48 429.62,-339.04 401.5,-324 363.46,-303.66 322,-276.65 294.15,-257.74"/>
<polygon fill="black" stroke="black" points="295.84,-254.66 285.61,-251.91 291.89,-260.44 295.84,-254.66"/>
</g>
<!-- python&#45;&gt;pygobject -->
<g id="edge10" class="edge">
<title>python&#45;&gt;pygobject</title>
<path fill="none" stroke="black" d="M530.76,-360.17C546.64,-328.76 574.54,-260.39 543.5,-216 525.01,-189.56 491.84,-176.26 461.89,-169.6"/>
<polygon fill="black" stroke="black" points="462.38,-166.13 451.88,-167.58 461,-172.99 462.38,-166.13"/>
</g>
<!-- adios2 -->
<g id="node9" class="node">
<title>adios2</title>
<g id="a_node9"><a xlink:href="https://github.com/conda-forge/adios2-feedstock" xlink:title="adios2">
<ellipse fill="#fde725" stroke="black" cx="584.5" cy="-162" rx="41" ry="18"/>
<text text-anchor="middle" x="584.5" y="-158.3" font-family="Times,serif" font-size="14.00">adios2</text>
</a>
</g>
</g>
<!-- python&#45;&gt;adios2 -->
<g id="edge11" class="edge">
<title>python&#45;&gt;adios2</title>
<path fill="none" stroke="black" d="M544.58,-361.42C556.36,-352.08 569.64,-339.09 576.5,-324 596.17,-280.74 593.27,-224.03 589.08,-190.75"/>
<polygon fill="black" stroke="black" points="592.49,-189.84 587.64,-180.42 585.55,-190.8 592.49,-189.84"/>
</g>
<!-- micropython -->
<g id="node10" class="node">
<title>micropython</title>
<g id="a_node10"><a xlink:href="https://github.com/conda-forge/micropython-feedstock" xlink:title="micropython">
<ellipse fill="#fde725" stroke="black" cx="653.5" cy="-90" rx="69.59" ry="18"/>
<text text-anchor="middle" x="653.5" y="-86.3" font-family="Times,serif" font-size="14.00">micropython</text>
</a>
</g>
</g>
<!-- python&#45;&gt;micropython -->
<g id="edge12" class="edge">
<title>python&#45;&gt;micropython</title>
<path fill="none" stroke="black" d="M551.39,-362.43C566.99,-353.39 585.14,-340.37 596.5,-324 641.02,-259.87 650.9,-164.71 653,-118.36"/>
<polygon fill="black" stroke="black" points="656.51,-118.32 653.37,-108.2 649.51,-118.06 656.51,-118.32"/>
</g>
<!-- wasmer -->
<g id="node11" class="node">
<title>wasmer</title>
<g id="a_node11"><a xlink:href="https://github.com/conda-forge/wasmer-feedstock" xlink:title="wasmer">
<ellipse fill="#fde725" stroke="black" cx="751.5" cy="-18" rx="47.5" ry="18"/>
<text text-anchor="middle" x="751.5" y="-14.3" font-family="Times,serif" font-size="14.00">wasmer</text>
</a>
</g>
</g>
<!-- python&#45;&gt;wasmer -->
<g id="edge13" class="edge">
<title>python&#45;&gt;wasmer</title>
<path fill="none" stroke="black" d="M571.12,-369.05C638.74,-355.06 751.5,-319.12 751.5,-235 751.5,-235 751.5,-235 751.5,-161 751.5,-121 751.5,-74.65 751.5,-46.08"/>
<polygon fill="black" stroke="black" points="755,-46.05 751.5,-36.05 748,-46.05 755,-46.05"/>
</g>
<!-- p11&#45;kit -->
<g id="node12" class="node">
<title>p11&#45;kit</title>
<g id="a_node12"><a xlink:href="https://github.com/conda-forge/p11-kit-feedstock/pull/13" xlink:title="p11 kit ✓">
<ellipse fill="#31688e" stroke="black" cx="857.5" cy="-270" rx="50.89" ry="18"/>
<text text-anchor="middle" x="857.5" y="-266.3" font-family="Times,serif" font-size="14.00" fill="white">p11 kit ✓</text>
</a>
</g>
</g>
<!-- guile -->
<g id="node13" class="node">
<title>guile</title>
<g id="a_node13"><a xlink:href="https://github.com/conda-forge/guile-feedstock/pull/10" xlink:title="guile ✓">
<ellipse fill="#31688e" stroke="black" cx="857.5" cy="-198" rx="41" ry="18"/>
<text text-anchor="middle" x="857.5" y="-194.3" font-family="Times,serif" font-size="14.00" fill="white">guile ✓</text>
</a>
</g>
</g>
<!-- p11&#45;kit&#45;&gt;guile -->
<!-- rb&#45;ffi -->
<g id="node14" class="node">
<title>rb&#45;ffi</title>
<g id="a_node14"><a xlink:href="https://github.com/conda-forge/rb-ffi-feedstock" xlink:title="rb ffi">
<ellipse fill="#ff8c00" stroke="black" cx="857.5" cy="-126" rx="33.29" ry="18"/>
<text text-anchor="middle" x="857.5" y="-122.3" font-family="Times,serif" font-size="14.00">rb ffi</text>
</a>
</g>
</g>
<!-- guile&#45;&gt;rb&#45;ffi -->
</g>
</svg>
