<?xml version="1.0" encoding="UTF-8" standalone="no"?>
<!DOCTYPE svg PUBLIC "-//W3C//DTD SVG 1.1//EN"
 "http://www.w3.org/Graphics/SVG/1.1/DTD/svg11.dtd">
<!-- Generated by graphviz version 2.49.0 (20210829.0051)
 -->
<!-- Pages: 1 -->
<svg width="1865pt" height="1140pt"
 viewBox="0.00 0.00 1864.75 1140.00" xmlns="http://www.w3.org/2000/svg" xmlns:xlink="http://www.w3.org/1999/xlink">
<g id="graph0" class="graph" transform="scale(1 1) rotate(0) translate(4 1136)">
<polygon fill="white" stroke="transparent" points="-4,4 -4,-1136 1860.75,-1136 1860.75,4 -4,4"/>
<!-- cdms2 -->
<g id="node1" class="node">
<title>cdms2</title>
<g id="a_node1"><a xlink:href="https://github.com/conda-forge/cdms2-feedstock" xlink:title="cdms2">
<ellipse fill="#fde725" stroke="black" cx="173.25" cy="-718" rx="41" ry="18"/>
<text text-anchor="middle" x="173.25" y="-714.3" font-family="Times,serif" font-size="14.00">cdms2</text>
</a>
</g>
</g>
<!-- cdo -->
<g id="node2" class="node">
<title>cdo</title>
<g id="a_node2"><a xlink:href="https://github.com/conda-forge/cdo-feedstock" xlink:title="cdo">
<ellipse fill="#fde725" stroke="black" cx="1346.25" cy="-862" rx="27" ry="18"/>
<text text-anchor="middle" x="1346.25" y="-858.3" font-family="Times,serif" font-size="14.00">cdo</text>
</a>
</g>
</g>
<!-- cdtime -->
<g id="node3" class="node">
<title>cdtime</title>
<g id="a_node3"><a xlink:href="https://github.com/conda-forge/cdtime-feedstock" xlink:title="cdtime">
<ellipse fill="#fde725" stroke="black" cx="42.25" cy="-790" rx="42.49" ry="18"/>
<text text-anchor="middle" x="42.25" y="-786.3" font-family="Times,serif" font-size="14.00">cdtime</text>
</a>
</g>
</g>
<!-- cdtime&#45;&gt;cdms2 -->
<g id="edge1" class="edge">
<title>cdtime&#45;&gt;cdms2</title>
<path fill="none" stroke="black" d="M67.5,-775.5C87.89,-764.61 116.77,-749.18 139.2,-737.19"/>
<polygon fill="black" stroke="black" points="140.9,-740.26 148.07,-732.46 137.6,-734.08 140.9,-740.26"/>
</g>
<!-- chemfiles&#45;lib -->
<g id="node4" class="node">
<title>chemfiles&#45;lib</title>
<g id="a_node4"><a xlink:href="https://github.com/conda-forge/chemfiles-lib-feedstock/pull/43" xlink:title="chemfiles lib ❎">
<ellipse fill="#31688e" stroke="black" cx="1220.25" cy="-1114" rx="83.39" ry="18"/>
<text text-anchor="middle" x="1220.25" y="-1110.3" font-family="Times,serif" font-size="14.00" fill="white">chemfiles lib ❎</text>
</a>
</g>
</g>
<!-- netcdf&#45;cxx4 -->
<g id="node5" class="node">
<title>netcdf&#45;cxx4</title>
<g id="a_node5"><a xlink:href="https://github.com/conda-forge/netcdf-cxx4-feedstock" xlink:title="netcdf cxx4">
<ellipse fill="#35b779" stroke="black" cx="1220.25" cy="-1042" rx="64.5" ry="18"/>
<text text-anchor="middle" x="1220.25" y="-1038.3" font-family="Times,serif" font-size="14.00">netcdf cxx4</text>
</a>
</g>
</g>
<!-- chemfiles&#45;lib&#45;&gt;netcdf&#45;cxx4 -->
<!-- r&#45;rnetcdf -->
<g id="node26" class="node">
<title>r&#45;rnetcdf</title>
<g id="a_node26"><a xlink:href="https://github.com/conda-forge/r-rnetcdf-feedstock/pull/20" xlink:title="r rnetcdf ❎">
<ellipse fill="#31688e" stroke="black" cx="1220.25" cy="-970" rx="65.79" ry="18"/>
<text text-anchor="middle" x="1220.25" y="-966.3" font-family="Times,serif" font-size="14.00" fill="white">r rnetcdf ❎</text>
</a>
</g>
</g>
<!-- netcdf&#45;cxx4&#45;&gt;r&#45;rnetcdf -->
<!-- eccodes -->
<g id="node6" class="node">
<title>eccodes</title>
<g id="a_node6"><a xlink:href="https://github.com/conda-forge/eccodes-feedstock" xlink:title="eccodes">
<ellipse fill="#35b779" stroke="black" cx="1570.25" cy="-934" rx="47.5" ry="18"/>
<text text-anchor="middle" x="1570.25" y="-930.3" font-family="Times,serif" font-size="14.00">eccodes</text>
</a>
</g>
</g>
<!-- eccodes&#45;&gt;cdo -->
<g id="edge3" class="edge">
<title>eccodes&#45;&gt;cdo</title>
<path fill="none" stroke="black" d="M1532,-923.25C1494.71,-913.44 1436.56,-897.3 1387.25,-880 1384.12,-878.9 1380.89,-877.69 1377.67,-876.44"/>
<polygon fill="black" stroke="black" points="1378.79,-873.12 1368.2,-872.63 1376.17,-879.61 1378.79,-873.12"/>
</g>
<!-- magics -->
<g id="node7" class="node">
<title>magics</title>
<g id="a_node7"><a xlink:href="https://github.com/conda-forge/magics-feedstock" xlink:title="magics">
<ellipse fill="#fde725" stroke="black" cx="1384.25" cy="-790" rx="43.59" ry="18"/>
<text text-anchor="middle" x="1384.25" y="-786.3" font-family="Times,serif" font-size="14.00">magics</text>
</a>
</g>
</g>
<!-- eccodes&#45;&gt;magics -->
<g id="edge4" class="edge">
<title>eccodes&#45;&gt;magics</title>
<path fill="none" stroke="black" d="M1531.47,-923.55C1504.26,-915.44 1468.25,-901.59 1442.25,-880 1421.64,-862.89 1405.75,-836.55 1395.85,-816.96"/>
<polygon fill="black" stroke="black" points="1398.99,-815.42 1391.48,-807.95 1392.7,-818.48 1398.99,-815.42"/>
</g>
<!-- metview -->
<g id="node8" class="node">
<title>metview</title>
<g id="a_node8"><a xlink:href="https://github.com/conda-forge/metview-feedstock" xlink:title="metview">
<ellipse fill="#fde725" stroke="black" cx="1456.25" cy="-646" rx="50.09" ry="18"/>
<text text-anchor="middle" x="1456.25" y="-642.3" font-family="Times,serif" font-size="14.00">metview</text>
</a>
</g>
</g>
<!-- eccodes&#45;&gt;metview -->
<g id="edge5" class="edge">
<title>eccodes&#45;&gt;metview</title>
<path fill="none" stroke="black" d="M1560.43,-916.2C1541.36,-882.89 1499.1,-805.69 1475.25,-736 1468.31,-715.73 1463.39,-691.96 1460.3,-674.08"/>
<polygon fill="black" stroke="black" points="1463.72,-673.35 1458.64,-664.06 1456.82,-674.49 1463.72,-673.35"/>
</g>
<!-- magics&#45;metview -->
<g id="node9" class="node">
<title>magics&#45;metview</title>
<g id="a_node9"><a xlink:href="https://github.com/conda-forge/magics-metview-feedstock" xlink:title="magics metview">
<ellipse fill="#fde725" stroke="black" cx="1570.25" cy="-718" rx="86" ry="18"/>
<text text-anchor="middle" x="1570.25" y="-714.3" font-family="Times,serif" font-size="14.00">magics metview</text>
</a>
</g>
</g>
<!-- eccodes&#45;&gt;magics&#45;metview -->
<g id="edge6" class="edge">
<title>eccodes&#45;&gt;magics&#45;metview</title>
<path fill="none" stroke="black" d="M1570.25,-915.85C1570.25,-878.83 1570.25,-791.18 1570.25,-746.39"/>
<polygon fill="black" stroke="black" points="1573.75,-746.23 1570.25,-736.23 1566.75,-746.23 1573.75,-746.23"/>
</g>
<!-- magics&#45;metview&#45;batch -->
<g id="node10" class="node">
<title>magics&#45;metview&#45;batch</title>
<g id="a_node10"><a xlink:href="https://github.com/conda-forge/magics-metview-batch-feedstock" xlink:title="magics metview batch">
<ellipse fill="#fde725" stroke="black" cx="1639.25" cy="-646" rx="114.5" ry="18"/>
<text text-anchor="middle" x="1639.25" y="-642.3" font-family="Times,serif" font-size="14.00">magics metview batch</text>
</a>
</g>
</g>
<!-- eccodes&#45;&gt;magics&#45;metview&#45;batch -->
<g id="edge7" class="edge">
<title>eccodes&#45;&gt;magics&#45;metview&#45;batch</title>
<path fill="none" stroke="black" d="M1581.54,-916.31C1602.98,-883.52 1648.88,-807.63 1665.25,-736 1668.81,-720.4 1668.86,-715.59 1665.25,-700 1663.15,-690.96 1659.28,-681.68 1655.16,-673.47"/>
<polygon fill="black" stroke="black" points="1658.1,-671.55 1650.29,-664.39 1651.93,-674.86 1658.1,-671.55"/>
</g>
<!-- metview&#45;batch -->
<g id="node11" class="node">
<title>metview&#45;batch</title>
<g id="a_node11"><a xlink:href="https://github.com/conda-forge/metview-batch-feedstock" xlink:title="metview batch">
<ellipse fill="#fde725" stroke="black" cx="1663.25" cy="-574" rx="79.5" ry="18"/>
<text text-anchor="middle" x="1663.25" y="-570.3" font-family="Times,serif" font-size="14.00">metview batch</text>
</a>
</g>
</g>
<!-- eccodes&#45;&gt;metview&#45;batch -->
<g id="edge8" class="edge">
<title>eccodes&#45;&gt;metview&#45;batch</title>
<path fill="none" stroke="black" d="M1611.37,-924.9C1673.02,-910.1 1782.25,-872.4 1782.25,-791 1782.25,-791 1782.25,-791 1782.25,-717 1782.25,-676.46 1786.79,-660.27 1762.25,-628 1750.7,-612.81 1733.51,-601.49 1716.68,-593.3"/>
<polygon fill="black" stroke="black" points="1717.96,-590.03 1707.4,-589.06 1715.05,-596.4 1717.96,-590.03"/>
</g>
<!-- fimex -->
<g id="node12" class="node">
<title>fimex</title>
<g id="a_node12"><a xlink:href="https://github.com/conda-forge/fimex-feedstock" xlink:title="fimex">
<ellipse fill="#fde725" stroke="black" cx="1820.25" cy="-574" rx="36.5" ry="18"/>
<text text-anchor="middle" x="1820.25" y="-570.3" font-family="Times,serif" font-size="14.00">fimex</text>
</a>
</g>
</g>
<!-- eccodes&#45;&gt;fimex -->
<g id="edge9" class="edge">
<title>eccodes&#45;&gt;fimex</title>
<path fill="none" stroke="black" d="M1615.23,-927.91C1687.21,-917 1820.25,-884.22 1820.25,-791 1820.25,-791 1820.25,-791 1820.25,-717 1820.25,-677 1820.25,-630.65 1820.25,-602.08"/>
<polygon fill="black" stroke="black" points="1823.75,-602.05 1820.25,-592.05 1816.75,-602.05 1823.75,-602.05"/>
</g>
<!-- magics&#45;metview&#45;&gt;metview -->
<g id="edge10" class="edge">
<title>magics&#45;metview&#45;&gt;metview</title>
<path fill="none" stroke="black" d="M1543.81,-700.76C1527.56,-690.79 1506.62,-677.93 1489.29,-667.29"/>
<polygon fill="black" stroke="black" points="1490.95,-664.2 1480.6,-661.95 1487.29,-670.17 1490.95,-664.2"/>
</g>
<!-- magics&#45;metview&#45;batch&#45;&gt;metview&#45;batch -->
<g id="edge11" class="edge">
<title>magics&#45;metview&#45;batch&#45;&gt;metview&#45;batch</title>
<path fill="none" stroke="black" d="M1645.18,-627.7C1647.85,-619.9 1651.07,-610.51 1654.05,-601.83"/>
<polygon fill="black" stroke="black" points="1657.45,-602.7 1657.38,-592.1 1650.83,-600.43 1657.45,-602.7"/>
</g>
<!-- esmf -->
<g id="node13" class="node">
<title>esmf</title>
<g id="a_node13"><a xlink:href="https://github.com/conda-forge/esmf-feedstock" xlink:title="esmf">
<ellipse fill="#fde725" stroke="black" cx="329.25" cy="-790" rx="33.29" ry="18"/>
<text text-anchor="middle" x="329.25" y="-786.3" font-family="Times,serif" font-size="14.00">esmf</text>
</a>
</g>
</g>
<!-- esmf&#45;&gt;cdms2 -->
<g id="edge12" class="edge">
<title>esmf&#45;&gt;cdms2</title>
<path fill="none" stroke="black" d="M304.53,-777.91C279.21,-766.55 239.55,-748.75 210.44,-735.69"/>
<polygon fill="black" stroke="black" points="211.56,-732.36 201.01,-731.46 208.7,-738.74 211.56,-732.36"/>
</g>
<!-- ncl -->
<g id="node14" class="node">
<title>ncl</title>
<g id="a_node14"><a xlink:href="https://github.com/conda-forge/ncl-feedstock" xlink:title="ncl">
<ellipse fill="#fde725" stroke="black" cx="288.25" cy="-718" rx="27" ry="18"/>
<text text-anchor="middle" x="288.25" y="-714.3" font-family="Times,serif" font-size="14.00">ncl</text>
</a>
</g>
</g>
<!-- esmf&#45;&gt;ncl -->
<g id="edge13" class="edge">
<title>esmf&#45;&gt;ncl</title>
<path fill="none" stroke="black" d="M319.53,-772.41C314.51,-763.83 308.27,-753.19 302.7,-743.67"/>
<polygon fill="black" stroke="black" points="305.68,-741.85 297.61,-734.99 299.64,-745.39 305.68,-741.85"/>
</g>
<!-- nco -->
<g id="node15" class="node">
<title>nco</title>
<g id="a_node15"><a xlink:href="https://github.com/conda-forge/nco-feedstock" xlink:title="nco">
<ellipse fill="#fde725" stroke="black" cx="660.25" cy="-718" rx="27" ry="18"/>
<text text-anchor="middle" x="660.25" y="-714.3" font-family="Times,serif" font-size="14.00">nco</text>
</a>
</g>
</g>
<!-- esmf&#45;&gt;nco -->
<g id="edge14" class="edge">
<title>esmf&#45;&gt;nco</title>
<path fill="none" stroke="black" d="M354.22,-777.73C359.74,-775.57 365.63,-773.51 371.25,-772 480.92,-742.48 515.45,-768.61 624.25,-736 626.18,-735.42 628.15,-734.75 630.11,-734.02"/>
<polygon fill="black" stroke="black" points="631.86,-737.08 639.73,-729.98 629.15,-730.62 631.86,-737.08"/>
</g>
<!-- gdal -->
<g id="node16" class="node">
<title>gdal</title>
<g id="a_node16"><a xlink:href="https://github.com/conda-forge/gdal-feedstock/pull/515" xlink:title="gdal ❎">
<ellipse fill="#31688e" stroke="black" cx="425.25" cy="-790" rx="45" ry="18"/>
<text text-anchor="middle" x="425.25" y="-786.3" font-family="Times,serif" font-size="14.00" fill="white">gdal ❎</text>
</a>
</g>
</g>
<!-- gdal&#45;&gt;ncl -->
<g id="edge15" class="edge">
<title>gdal&#45;&gt;ncl</title>
<path fill="none" stroke="black" d="M398.51,-775.34C375.41,-763.54 342.07,-746.5 318.1,-734.25"/>
<polygon fill="black" stroke="black" points="319.6,-731.09 309.1,-729.66 316.41,-737.32 319.6,-731.09"/>
</g>
<!-- gmt -->
<g id="node17" class="node">
<title>gmt</title>
<g id="a_node17"><a xlink:href="https://github.com/conda-forge/gmt-feedstock" xlink:title="gmt">
<ellipse fill="#fde725" stroke="black" cx="362.25" cy="-718" rx="29.5" ry="18"/>
<text text-anchor="middle" x="362.25" y="-714.3" font-family="Times,serif" font-size="14.00">gmt</text>
</a>
</g>
</g>
<!-- gdal&#45;&gt;gmt -->
<g id="edge16" class="edge">
<title>gdal&#45;&gt;gmt</title>
<path fill="none" stroke="black" d="M410.63,-772.76C402.37,-763.59 391.91,-751.96 382.83,-741.88"/>
<polygon fill="black" stroke="black" points="385.21,-739.28 375.92,-734.19 380,-743.96 385.21,-739.28"/>
</g>
<!-- pynio -->
<g id="node18" class="node">
<title>pynio</title>
<g id="a_node18"><a xlink:href="https://github.com/conda-forge/pynio-feedstock" xlink:title="pynio">
<ellipse fill="#fde725" stroke="black" cx="392.25" cy="-646" rx="36.5" ry="18"/>
<text text-anchor="middle" x="392.25" y="-642.3" font-family="Times,serif" font-size="14.00">pynio</text>
</a>
</g>
</g>
<!-- gdal&#45;&gt;pynio -->
<g id="edge17" class="edge">
<title>gdal&#45;&gt;pynio</title>
<path fill="none" stroke="black" d="M421.27,-771.87C415.62,-747.56 405.22,-702.82 398.52,-674.01"/>
<polygon fill="black" stroke="black" points="401.91,-673.14 396.24,-664.19 395.1,-674.72 401.91,-673.14"/>
</g>
<!-- mdal -->
<g id="node19" class="node">
<title>mdal</title>
<g id="a_node19"><a xlink:href="https://github.com/conda-forge/mdal-feedstock" xlink:title="mdal">
<ellipse fill="#fde725" stroke="black" cx="457.25" cy="-574" rx="34" ry="18"/>
<text text-anchor="middle" x="457.25" y="-570.3" font-family="Times,serif" font-size="14.00">mdal</text>
</a>
</g>
</g>
<!-- gdal&#45;&gt;mdal -->
<g id="edge18" class="edge">
<title>gdal&#45;&gt;mdal</title>
<path fill="none" stroke="black" d="M427.81,-771.85C433.35,-734.83 446.45,-647.18 453.15,-602.39"/>
<polygon fill="black" stroke="black" points="456.65,-602.64 454.67,-592.23 449.73,-601.6 456.65,-602.64"/>
</g>
<!-- r&#45;gdalcubes -->
<g id="node20" class="node">
<title>r&#45;gdalcubes</title>
<g id="a_node20"><a xlink:href="https://github.com/conda-forge/r-gdalcubes-feedstock" xlink:title="r gdalcubes">
<ellipse fill="#fde725" stroke="black" cx="550.25" cy="-718" rx="65" ry="18"/>
<text text-anchor="middle" x="550.25" y="-714.3" font-family="Times,serif" font-size="14.00">r gdalcubes</text>
</a>
</g>
</g>
<!-- gdal&#45;&gt;r&#45;gdalcubes -->
<g id="edge19" class="edge">
<title>gdal&#45;&gt;r&#45;gdalcubes</title>
<path fill="none" stroke="black" d="M450.24,-775C468.49,-764.78 493.5,-750.78 513.95,-739.33"/>
<polygon fill="black" stroke="black" points="515.67,-742.37 522.69,-734.43 512.25,-736.27 515.67,-742.37"/>
</g>
<!-- libcdms -->
<g id="node21" class="node">
<title>libcdms</title>
<g id="a_node21"><a xlink:href="https://github.com/conda-forge/libcdms-feedstock" xlink:title="libcdms">
<ellipse fill="#fde725" stroke="black" cx="113.25" cy="-934" rx="47" ry="18"/>
<text text-anchor="middle" x="113.25" y="-930.3" font-family="Times,serif" font-size="14.00">libcdms</text>
</a>
</g>
</g>
<!-- libcdms&#45;&gt;cdms2 -->
<g id="edge20" class="edge">
<title>libcdms&#45;&gt;cdms2</title>
<path fill="none" stroke="black" d="M118.97,-915.88C122.38,-905.53 126.71,-892.05 130.25,-880 144.02,-833.11 158.34,-778.01 166.48,-745.94"/>
<polygon fill="black" stroke="black" points="169.94,-746.55 169,-736 163.15,-744.83 169.94,-746.55"/>
</g>
<!-- libcdms&#45;&gt;cdtime -->
<g id="edge21" class="edge">
<title>libcdms&#45;&gt;cdtime</title>
<path fill="none" stroke="black" d="M77.04,-922.2C56.77,-914.09 33.24,-900.75 21.25,-880 9.95,-860.45 17.68,-835.16 26.79,-816.53"/>
<polygon fill="black" stroke="black" points="30,-817.94 31.59,-807.47 23.82,-814.67 30,-817.94"/>
</g>
<!-- libdrs_f -->
<g id="node22" class="node">
<title>libdrs_f</title>
<g id="a_node22"><a xlink:href="https://github.com/conda-forge/libdrs_f-feedstock" xlink:title="libdrs_f">
<ellipse fill="#fde725" stroke="black" cx="76.25" cy="-862" rx="45.5" ry="18"/>
<text text-anchor="middle" x="76.25" y="-858.3" font-family="Times,serif" font-size="14.00">libdrs_f</text>
</a>
</g>
</g>
<!-- libcdms&#45;&gt;libdrs_f -->
<g id="edge22" class="edge">
<title>libcdms&#45;&gt;libdrs_f</title>
<path fill="none" stroke="black" d="M104.29,-916.05C99.97,-907.89 94.7,-897.91 89.9,-888.82"/>
<polygon fill="black" stroke="black" points="92.89,-886.99 85.12,-879.79 86.7,-890.27 92.89,-886.99"/>
</g>
<!-- libdrs_f&#45;&gt;cdms2 -->
<g id="edge23" class="edge">
<title>libdrs_f&#45;&gt;cdms2</title>
<path fill="none" stroke="black" d="M87.44,-844.21C99.44,-826.28 119.06,-797.05 136.25,-772 142.53,-762.84 149.49,-752.84 155.66,-744.02"/>
<polygon fill="black" stroke="black" points="158.64,-745.86 161.51,-735.66 152.91,-741.84 158.64,-745.86"/>
</g>
<!-- libdrs_f&#45;&gt;cdtime -->
<g id="edge24" class="edge">
<title>libdrs_f&#45;&gt;cdtime</title>
<path fill="none" stroke="black" d="M68.02,-844.05C64.05,-835.89 59.2,-825.91 54.79,-816.82"/>
<polygon fill="black" stroke="black" points="57.92,-815.25 50.4,-807.79 51.62,-818.31 57.92,-815.25"/>
</g>
<!-- libcf -->
<g id="node23" class="node">
<title>libcf</title>
<g id="a_node23"><a xlink:href="https://github.com/conda-forge/libcf-feedstock" xlink:title="libcf">
<ellipse fill="#35b779" stroke="black" cx="209.25" cy="-790" rx="30.59" ry="18"/>
<text text-anchor="middle" x="209.25" y="-786.3" font-family="Times,serif" font-size="14.00">libcf</text>
</a>
</g>
</g>
<!-- libcf&#45;&gt;cdms2 -->
<g id="edge25" class="edge">
<title>libcf&#45;&gt;cdms2</title>
<path fill="none" stroke="black" d="M200.71,-772.41C196.52,-764.25 191.36,-754.22 186.65,-745.07"/>
<polygon fill="black" stroke="black" points="189.65,-743.25 181.97,-735.96 183.43,-746.45 189.65,-743.25"/>
</g>
<!-- libdrs -->
<g id="node24" class="node">
<title>libdrs</title>
<g id="a_node24"><a xlink:href="https://github.com/conda-forge/libdrs-feedstock" xlink:title="libdrs">
<ellipse fill="#35b779" stroke="black" cx="190.25" cy="-1006" rx="37.89" ry="18"/>
<text text-anchor="middle" x="190.25" y="-1002.3" font-family="Times,serif" font-size="14.00">libdrs</text>
</a>
</g>
</g>
<!-- libdrs&#45;&gt;cdms2 -->
<g id="edge26" class="edge">
<title>libdrs&#45;&gt;cdms2</title>
<path fill="none" stroke="black" d="M201.82,-988.83C228.37,-949.61 288.43,-847.1 249.25,-772 241.05,-756.29 225.84,-744.29 211.17,-735.71"/>
<polygon fill="black" stroke="black" points="212.62,-732.52 202.17,-730.81 209.27,-738.67 212.62,-732.52"/>
</g>
<!-- libdrs&#45;&gt;libcdms -->
<g id="edge27" class="edge">
<title>libdrs&#45;&gt;libcdms</title>
<path fill="none" stroke="black" d="M173.54,-989.81C163.26,-980.47 149.89,-968.31 138.36,-957.83"/>
<polygon fill="black" stroke="black" points="140.48,-955.03 130.72,-950.89 135.77,-960.2 140.48,-955.03"/>
</g>
<!-- moab -->
<g id="node25" class="node">
<title>moab</title>
<g id="a_node25"><a xlink:href="https://github.com/conda-forge/moab-feedstock" xlink:title="moab">
<ellipse fill="#fde725" stroke="black" cx="742.25" cy="-718" rx="36.5" ry="18"/>
<text text-anchor="middle" x="742.25" y="-714.3" font-family="Times,serif" font-size="14.00">moab</text>
</a>
</g>
</g>
<!-- wgrib2 -->
<g id="node39" class="node">
<title>wgrib2</title>
<g id="a_node39"><a xlink:href="https://github.com/conda-forge/wgrib2-feedstock/pull/20" xlink:title="wgrib2 ❎">
<ellipse fill="#31688e" stroke="black" cx="1220.25" cy="-898" rx="58" ry="18"/>
<text text-anchor="middle" x="1220.25" y="-894.3" font-family="Times,serif" font-size="14.00" fill="white">wgrib2 ❎</text>
</a>
</g>
</g>
<!-- r&#45;rnetcdf&#45;&gt;wgrib2 -->
<!-- netcdf&#45;fortran -->
<g id="node27" class="node">
<title>netcdf&#45;fortran</title>
<g id="a_node27"><a xlink:href="https://github.com/conda-forge/netcdf-fortran-feedstock" xlink:title="netcdf fortran">
<ellipse fill="#35b779" stroke="black" cx="931.25" cy="-862" rx="75.5" ry="18"/>
<text text-anchor="middle" x="931.25" y="-858.3" font-family="Times,serif" font-size="14.00">netcdf fortran</text>
</a>
</g>
</g>
<!-- netcdf&#45;fortran&#45;&gt;esmf -->
<g id="edge29" class="edge">
<title>netcdf&#45;fortran&#45;&gt;esmf</title>
<path fill="none" stroke="black" d="M855.82,-860.75C747.19,-858.86 541.06,-849.46 371.25,-808 368.61,-807.36 365.93,-806.58 363.26,-805.72"/>
<polygon fill="black" stroke="black" points="364.32,-802.38 353.73,-802.29 361.95,-808.97 364.32,-802.38"/>
</g>
<!-- pyferret -->
<g id="node28" class="node">
<title>pyferret</title>
<g id="a_node28"><a xlink:href="https://github.com/conda-forge/pyferret-feedstock" xlink:title="pyferret">
<ellipse fill="#fde725" stroke="black" cx="835.25" cy="-790" rx="48.99" ry="18"/>
<text text-anchor="middle" x="835.25" y="-786.3" font-family="Times,serif" font-size="14.00">pyferret</text>
</a>
</g>
</g>
<!-- netcdf&#45;fortran&#45;&gt;pyferret -->
<g id="edge30" class="edge">
<title>netcdf&#45;fortran&#45;&gt;pyferret</title>
<path fill="none" stroke="black" d="M908.98,-844.76C895.86,-835.2 879.1,-822.98 864.88,-812.61"/>
<polygon fill="black" stroke="black" points="866.55,-809.49 856.4,-806.43 862.42,-815.15 866.55,-809.49"/>
</g>
<!-- siesta -->
<g id="node29" class="node">
<title>siesta</title>
<g id="a_node29"><a xlink:href="https://github.com/conda-forge/siesta-feedstock" xlink:title="siesta">
<ellipse fill="#fde725" stroke="black" cx="883.25" cy="-718" rx="38.5" ry="18"/>
<text text-anchor="middle" x="883.25" y="-714.3" font-family="Times,serif" font-size="14.00">siesta</text>
</a>
</g>
</g>
<!-- netcdf&#45;fortran&#45;&gt;siesta -->
<g id="edge31" class="edge">
<title>netcdf&#45;fortran&#45;&gt;siesta</title>
<path fill="none" stroke="black" d="M925.46,-843.87C917.24,-819.56 902.11,-774.82 892.38,-746.01"/>
<polygon fill="black" stroke="black" points="895.57,-744.54 889.06,-736.19 888.94,-746.78 895.57,-744.54"/>
</g>
<!-- ambertools -->
<g id="node30" class="node">
<title>ambertools</title>
<g id="a_node30"><a xlink:href="https://github.com/conda-forge/ambertools-feedstock" xlink:title="ambertools">
<ellipse fill="#fde725" stroke="black" cx="923.25" cy="-646" rx="63.09" ry="18"/>
<text text-anchor="middle" x="923.25" y="-642.3" font-family="Times,serif" font-size="14.00">ambertools</text>
</a>
</g>
</g>
<!-- netcdf&#45;fortran&#45;&gt;ambertools -->
<g id="edge32" class="edge">
<title>netcdf&#45;fortran&#45;&gt;ambertools</title>
<path fill="none" stroke="black" d="M932.1,-843.58C933.35,-814 935.16,-752.12 931.25,-700 930.61,-691.52 929.41,-682.34 928.13,-674.04"/>
<polygon fill="black" stroke="black" points="931.57,-673.41 926.49,-664.11 924.66,-674.55 931.57,-673.41"/>
</g>
<!-- abinit -->
<g id="node31" class="node">
<title>abinit</title>
<g id="a_node31"><a xlink:href="https://github.com/conda-forge/abinit-feedstock" xlink:title="abinit">
<ellipse fill="#fde725" stroke="black" cx="1014.25" cy="-574" rx="37.89" ry="18"/>
<text text-anchor="middle" x="1014.25" y="-570.3" font-family="Times,serif" font-size="14.00">abinit</text>
</a>
</g>
</g>
<!-- netcdf&#45;fortran&#45;&gt;abinit -->
<g id="edge33" class="edge">
<title>netcdf&#45;fortran&#45;&gt;abinit</title>
<path fill="none" stroke="black" d="M937.41,-844.05C949.59,-810.17 977.11,-731.55 995.25,-664 1000.74,-643.53 1005.69,-620.07 1009.17,-602.38"/>
<polygon fill="black" stroke="black" points="1012.67,-602.67 1011.13,-592.19 1005.8,-601.35 1012.67,-602.67"/>
</g>
<!-- yambo -->
<g id="node32" class="node">
<title>yambo</title>
<g id="a_node32"><a xlink:href="https://github.com/conda-forge/yambo-feedstock" xlink:title="yambo">
<ellipse fill="#fde725" stroke="black" cx="1080.25" cy="-502" rx="41.69" ry="18"/>
<text text-anchor="middle" x="1080.25" y="-498.3" font-family="Times,serif" font-size="14.00">yambo</text>
</a>
</g>
</g>
<!-- netcdf&#45;fortran&#45;&gt;yambo -->
<g id="edge34" class="edge">
<title>netcdf&#45;fortran&#45;&gt;yambo</title>
<path fill="none" stroke="black" d="M966.94,-845.95C1011.02,-824.68 1080.25,-781.36 1080.25,-719 1080.25,-719 1080.25,-719 1080.25,-645 1080.25,-605 1080.25,-558.65 1080.25,-530.08"/>
<polygon fill="black" stroke="black" points="1083.75,-530.05 1080.25,-520.05 1076.75,-530.05 1083.75,-530.05"/>
</g>
<!-- netcdf4 -->
<g id="node33" class="node">
<title>netcdf4</title>
<g id="a_node33"><a xlink:href="https://github.com/conda-forge/netcdf4-feedstock/pull/124" xlink:title="netcdf4 ❎">
<ellipse fill="#31688e" stroke="black" cx="1206.25" cy="-314" rx="60" ry="18"/>
<text text-anchor="middle" x="1206.25" y="-310.3" font-family="Times,serif" font-size="14.00" fill="white">netcdf4 ❎</text>
</a>
</g>
</g>
<!-- cmor -->
<g id="node34" class="node">
<title>cmor</title>
<g id="a_node34"><a xlink:href="https://github.com/conda-forge/cmor-feedstock" xlink:title="cmor">
<ellipse fill="#fde725" stroke="black" cx="1175.25" cy="-242" rx="34.5" ry="18"/>
<text text-anchor="middle" x="1175.25" y="-238.3" font-family="Times,serif" font-size="14.00">cmor</text>
</a>
</g>
</g>
<!-- netcdf4&#45;&gt;cmor -->
<g id="edge35" class="edge">
<title>netcdf4&#45;&gt;cmor</title>
<path fill="none" stroke="black" d="M1198.74,-296.05C1195.16,-287.97 1190.8,-278.12 1186.81,-269.11"/>
<polygon fill="black" stroke="black" points="1189.93,-267.52 1182.68,-259.79 1183.53,-270.35 1189.93,-267.52"/>
</g>
<!-- mpas_tools -->
<g id="node35" class="node">
<title>mpas_tools</title>
<g id="a_node35"><a xlink:href="https://github.com/conda-forge/mpas_tools-feedstock" xlink:title="mpas_tools">
<ellipse fill="#fde725" stroke="black" cx="1238.25" cy="-170" rx="62.5" ry="18"/>
<text text-anchor="middle" x="1238.25" y="-166.3" font-family="Times,serif" font-size="14.00">mpas_tools</text>
</a>
</g>
</g>
<!-- netcdf4&#45;&gt;mpas_tools -->
<g id="edge36" class="edge">
<title>netcdf4&#45;&gt;mpas_tools</title>
<path fill="none" stroke="black" d="M1210.59,-295.85C1213.18,-285.48 1216.49,-272 1219.25,-260 1223.98,-239.34 1228.97,-215.89 1232.65,-198.25"/>
<polygon fill="black" stroke="black" points="1236.15,-198.6 1234.76,-188.1 1229.3,-197.18 1236.15,-198.6"/>
</g>
<!-- paraview -->
<g id="node36" class="node">
<title>paraview</title>
<g id="a_node36"><a xlink:href="https://github.com/conda-forge/paraview-feedstock" xlink:title="paraview">
<ellipse fill="#35b779" stroke="black" cx="560.25" cy="-90" rx="53.5" ry="18"/>
<text text-anchor="middle" x="560.25" y="-86.3" font-family="Times,serif" font-size="14.00">paraview</text>
</a>
</g>
</g>
<!-- lfric_reader -->
<g id="node37" class="node">
<title>lfric_reader</title>
<g id="a_node37"><a xlink:href="https://github.com/conda-forge/lfric_reader-feedstock" xlink:title="lfric_reader">
<ellipse fill="#fde725" stroke="black" cx="560.25" cy="-18" rx="64.5" ry="18"/>
<text text-anchor="middle" x="560.25" y="-14.3" font-family="Times,serif" font-size="14.00">lfric_reader</text>
</a>
</g>
</g>
<!-- paraview&#45;&gt;lfric_reader -->
<g id="edge37" class="edge">
<title>paraview&#45;&gt;lfric_reader</title>
<path fill="none" stroke="black" d="M560.25,-71.7C560.25,-63.98 560.25,-54.71 560.25,-46.11"/>
<polygon fill="black" stroke="black" points="563.75,-46.1 560.25,-36.1 556.75,-46.1 563.75,-46.1"/>
</g>
<!-- r&#45;ncdf4 -->
<g id="node38" class="node">
<title>r&#45;ncdf4</title>
<g id="a_node38"><a xlink:href="https://github.com/conda-forge/r-ncdf4-feedstock" xlink:title="r ncdf4">
<ellipse fill="#35b779" stroke="black" cx="544.25" cy="-790" rx="44.39" ry="18"/>
<text text-anchor="middle" x="544.25" y="-786.3" font-family="Times,serif" font-size="14.00">r ncdf4</text>
</a>
</g>
</g>
<!-- r&#45;ncdf4&#45;&gt;r&#45;gdalcubes -->
<g id="edge38" class="edge">
<title>r&#45;ncdf4&#45;&gt;r&#45;gdalcubes</title>
<path fill="none" stroke="black" d="M545.73,-771.7C546.39,-763.98 547.19,-754.71 547.92,-746.11"/>
<polygon fill="black" stroke="black" points="551.41,-746.37 548.78,-736.1 544.44,-745.77 551.41,-746.37"/>
</g>
<!-- vic -->
<g id="node40" class="node">
<title>vic</title>
<g id="a_node40"><a xlink:href="https://github.com/conda-forge/vic-feedstock" xlink:title="vic">
<ellipse fill="#35b779" stroke="black" cx="1220.25" cy="-826" rx="27" ry="18"/>
<text text-anchor="middle" x="1220.25" y="-822.3" font-family="Times,serif" font-size="14.00">vic</text>
</a>
</g>
</g>
<!-- wgrib2&#45;&gt;vic -->
<!-- vmd&#45;python -->
<g id="node41" class="node">
<title>vmd&#45;python</title>
<g id="a_node41"><a xlink:href="https://github.com/conda-forge/vmd-python-feedstock" xlink:title="vmd python">
<ellipse fill="#35b779" stroke="black" cx="1220.25" cy="-754" rx="65.79" ry="18"/>
<text text-anchor="middle" x="1220.25" y="-750.3" font-family="Times,serif" font-size="14.00">vmd python</text>
</a>
</g>
</g>
<!-- vic&#45;&gt;vmd&#45;python -->
<!-- ovito -->
<g id="node44" class="node">
<title>ovito</title>
<g id="a_node44"><a xlink:href="https://github.com/conda-forge/ovito-feedstock" xlink:title="ovito">
<ellipse fill="#35b779" stroke="black" cx="1220.25" cy="-682" rx="34" ry="18"/>
<text text-anchor="middle" x="1220.25" y="-678.3" font-family="Times,serif" font-size="14.00">ovito</text>
</a>
</g>
</g>
<!-- vmd&#45;python&#45;&gt;ovito -->
<!-- vtk -->
<g id="node42" class="node">
<title>vtk</title>
<g id="a_node42"><a xlink:href="https://github.com/conda-forge/vtk-feedstock" xlink:title="vtk">
<ellipse fill="#35b779" stroke="black" cx="1588.25" cy="-278" rx="27" ry="18"/>
<text text-anchor="middle" x="1588.25" y="-274.3" font-family="Times,serif" font-size="14.00">vtk</text>
</a>
</g>
</g>
<!-- python&#45;mint -->
<g id="node43" class="node">
<title>python&#45;mint</title>
<g id="a_node43"><a xlink:href="https://github.com/conda-forge/python-mint-feedstock" xlink:title="python mint">
<ellipse fill="#fde725" stroke="black" cx="1588.25" cy="-206" rx="67.69" ry="18"/>
<text text-anchor="middle" x="1588.25" y="-202.3" font-family="Times,serif" font-size="14.00">python mint</text>
</a>
</g>
</g>
<!-- vtk&#45;&gt;python&#45;mint -->
<g id="edge42" class="edge">
<title>vtk&#45;&gt;python&#45;mint</title>
<path fill="none" stroke="black" d="M1588.25,-259.7C1588.25,-251.98 1588.25,-242.71 1588.25,-234.11"/>
<polygon fill="black" stroke="black" points="1591.75,-234.1 1588.25,-224.1 1584.75,-234.1 1591.75,-234.1"/>
</g>
<!-- fpocket -->
<g id="node45" class="node">
<title>fpocket</title>
<g id="a_node45"><a xlink:href="https://github.com/conda-forge/fpocket-feedstock" xlink:title="fpocket">
<ellipse fill="#35b779" stroke="black" cx="1220.25" cy="-610" rx="45" ry="18"/>
<text text-anchor="middle" x="1220.25" y="-606.3" font-family="Times,serif" font-size="14.00">fpocket</text>
</a>
</g>
</g>
<!-- ovito&#45;&gt;fpocket -->
<!-- sphinxdft -->
<g id="node47" class="node">
<title>sphinxdft</title>
<g id="a_node47"><a xlink:href="https://github.com/conda-forge/sphinxdft-feedstock" xlink:title="sphinxdft">
<ellipse fill="#35b779" stroke="black" cx="1220.25" cy="-538" rx="54.69" ry="18"/>
<text text-anchor="middle" x="1220.25" y="-534.3" font-family="Times,serif" font-size="14.00">sphinxdft</text>
</a>
</g>
</g>
<!-- fpocket&#45;&gt;sphinxdft -->
<!-- tempest&#45;remap -->
<g id="node46" class="node">
<title>tempest&#45;remap</title>
<g id="a_node46"><a xlink:href="https://github.com/conda-forge/tempest-remap-feedstock" xlink:title="tempest remap">
<ellipse fill="#35b779" stroke="black" cx="687.25" cy="-790" rx="81.49" ry="18"/>
<text text-anchor="middle" x="687.25" y="-786.3" font-family="Times,serif" font-size="14.00">tempest remap</text>
</a>
</g>
</g>
<!-- tempest&#45;remap&#45;&gt;nco -->
<g id="edge45" class="edge">
<title>tempest&#45;remap&#45;&gt;nco</title>
<path fill="none" stroke="black" d="M680.71,-772.05C677.63,-764.06 673.87,-754.33 670.43,-745.4"/>
<polygon fill="black" stroke="black" points="673.59,-743.86 666.72,-735.79 667.06,-746.38 673.59,-743.86"/>
</g>
<!-- tempest&#45;remap&#45;&gt;moab -->
<g id="edge46" class="edge">
<title>tempest&#45;remap&#45;&gt;moab</title>
<path fill="none" stroke="black" d="M700.56,-772.05C707.35,-763.42 715.72,-752.76 723.18,-743.27"/>
<polygon fill="black" stroke="black" points="726.01,-745.33 729.43,-735.31 720.5,-741.01 726.01,-745.33"/>
</g>
<!-- ncview -->
<g id="node48" class="node">
<title>ncview</title>
<g id="a_node48"><a xlink:href="https://github.com/conda-forge/ncview-feedstock/pull/11" xlink:title="ncview ❎">
<ellipse fill="#31688e" stroke="black" cx="1220.25" cy="-466" rx="57.39" ry="18"/>
<text text-anchor="middle" x="1220.25" y="-462.3" font-family="Times,serif" font-size="14.00" fill="white">ncview ❎</text>
</a>
</g>
</g>
<!-- sphinxdft&#45;&gt;ncview -->
<!-- netcdf&#45;cxx&#45;legacy -->
<g id="node49" class="node">
<title>netcdf&#45;cxx&#45;legacy</title>
<g id="a_node49"><a xlink:href="https://github.com/conda-forge/netcdf-cxx-legacy-feedstock" xlink:title="netcdf cxx legacy">
<ellipse fill="#35b779" stroke="black" cx="1220.25" cy="-394" rx="91" ry="18"/>
<text text-anchor="middle" x="1220.25" y="-390.3" font-family="Times,serif" font-size="14.00">netcdf cxx legacy</text>
</a>
</g>
</g>
<!-- ncview&#45;&gt;netcdf&#45;cxx&#45;legacy -->
<!-- nccmp -->
<g id="node50" class="node">
<title>nccmp</title>
<g id="a_node50"><a xlink:href="https://github.com/conda-forge/nccmp-feedstock/pull/11" xlink:title="nccmp ❎">
<ellipse fill="#31688e" stroke="black" cx="560.25" cy="-350" rx="55.49" ry="18"/>
<text text-anchor="middle" x="560.25" y="-346.3" font-family="Times,serif" font-size="14.00" fill="white">nccmp ❎</text>
</a>
</g>
</g>
<!-- tempest&#45;extremes -->
<g id="node51" class="node">
<title>tempest&#45;extremes</title>
<g id="a_node51"><a xlink:href="https://github.com/conda-forge/tempest-extremes-feedstock" xlink:title="tempest extremes">
<ellipse fill="#35b779" stroke="black" cx="560.25" cy="-278" rx="95" ry="18"/>
<text text-anchor="middle" x="560.25" y="-274.3" font-family="Times,serif" font-size="14.00">tempest extremes</text>
</a>
</g>
</g>
<!-- nccmp&#45;&gt;tempest&#45;extremes -->
<!-- pymol&#45;open&#45;source -->
<g id="node52" class="node">
<title>pymol&#45;open&#45;source</title>
<g id="a_node52"><a xlink:href="https://github.com/conda-forge/pymol-open-source-feedstock" xlink:title="pymol open source">
<ellipse fill="#35b779" stroke="black" cx="560.25" cy="-206" rx="98.28" ry="18"/>
<text text-anchor="middle" x="560.25" y="-202.3" font-family="Times,serif" font-size="14.00">pymol open source</text>
</a>
</g>
</g>
<!-- tempest&#45;extremes&#45;&gt;pymol&#45;open&#45;source -->
<!-- raven&#45;hydro -->
<g id="node53" class="node">
<title>raven&#45;hydro</title>
<g id="a_node53"><a xlink:href="https://github.com/conda-forge/raven-hydro-feedstock" xlink:title="raven hydro">
<ellipse fill="#35b779" stroke="black" cx="560.25" cy="-134" rx="67" ry="18"/>
<text text-anchor="middle" x="560.25" y="-130.3" font-family="Times,serif" font-size="14.00">raven hydro</text>
</a>
</g>
</g>
<!-- pymol&#45;open&#45;source&#45;&gt;raven&#45;hydro -->
</g>
</svg>
