<?xml version="1.0" encoding="UTF-8" standalone="no"?>
<!DOCTYPE svg PUBLIC "-//W3C//DTD SVG 1.1//EN"
 "http://www.w3.org/Graphics/SVG/1.1/DTD/svg11.dtd">
<!-- Generated by graphviz version 2.50.0 (20211209.0339)
 -->
<!-- Pages: 1 -->
<svg width="1030pt" height="880pt"
 viewBox="0.00 0.00 1030.19 880.00" xmlns="http://www.w3.org/2000/svg" xmlns:xlink="http://www.w3.org/1999/xlink">
<g id="graph0" class="graph" transform="scale(1 1) rotate(0) translate(4 876)">
<polygon fill="white" stroke="transparent" points="-4,4 -4,-876 1026.19,-876 1026.19,4 -4,4"/>
<!-- bazel -->
<g id="node1" class="node">
<title>bazel</title>
<g id="a_node1"><a xlink:href="https://github.com/conda-forge/bazel-feedstock" xlink:title="bazel">
<ellipse fill="#ff8c00" stroke="black" cx="122.19" cy="-854" rx="35.19" ry="18"/>
<text text-anchor="middle" x="122.19" y="-850.3" font-family="Times,serif" font-size="14.00">bazel</text>
</a>
</g>
</g>
<!-- caffe -->
<g id="node2" class="node">
<title>caffe</title>
<g id="a_node2"><a xlink:href="https://github.com/conda-forge/caffe-feedstock/pull/76" xlink:title="caffe ❎">
<ellipse fill="#31688e" stroke="black" cx="122.19" cy="-782" rx="47" ry="18"/>
<text text-anchor="middle" x="122.19" y="-778.3" font-family="Times,serif" font-size="14.00" fill="white">caffe ❎</text>
</a>
</g>
</g>
<!-- bazel&#45;&gt;caffe -->
<!-- mysql&#45;connector&#45;python -->
<g id="node3" class="node">
<title>mysql&#45;connector&#45;python</title>
<g id="a_node3"><a xlink:href="https://github.com/conda-forge/mysql-connector-python-feedstock" xlink:title="mysql connector python">
<ellipse fill="#000000" stroke="black" cx="122.19" cy="-710" rx="122.38" ry="18"/>
<text text-anchor="middle" x="122.19" y="-706.3" font-family="Times,serif" font-size="14.00" fill="white">mysql connector python</text>
</a>
</g>
</g>
<!-- caffe&#45;&gt;mysql&#45;connector&#45;python -->
<!-- onnx -->
<g id="node4" class="node">
<title>onnx</title>
<g id="a_node4"><a xlink:href="https://github.com/conda-forge/onnx-feedstock/pull/72" xlink:title="onnx ❎">
<ellipse fill="#31688e" stroke="black" cx="122.19" cy="-638" rx="47.5" ry="18"/>
<text text-anchor="middle" x="122.19" y="-634.3" font-family="Times,serif" font-size="14.00" fill="white">onnx ❎</text>
</a>
</g>
</g>
<!-- mysql&#45;connector&#45;python&#45;&gt;onnx -->
<!-- paraview -->
<g id="node5" class="node">
<title>paraview</title>
<g id="a_node5"><a xlink:href="https://github.com/conda-forge/paraview-feedstock/pull/137" xlink:title="paraview ❎">
<ellipse fill="#31688e" stroke="black" cx="122.19" cy="-566" rx="67.69" ry="18"/>
<text text-anchor="middle" x="122.19" y="-562.3" font-family="Times,serif" font-size="14.00" fill="white">paraview ❎</text>
</a>
</g>
</g>
<!-- onnx&#45;&gt;paraview -->
<!-- qgis -->
<g id="node6" class="node">
<title>qgis</title>
<g id="a_node6"><a xlink:href="https://github.com/conda-forge/qgis-feedstock/pull/220" xlink:title="qgis ✓">
<ellipse fill="#31688e" stroke="black" cx="122.19" cy="-494" rx="37.89" ry="18"/>
<text text-anchor="middle" x="122.19" y="-490.3" font-family="Times,serif" font-size="14.00" fill="white">qgis ✓</text>
</a>
</g>
</g>
<!-- paraview&#45;&gt;qgis -->
<!-- tensorflow -->
<g id="node7" class="node">
<title>tensorflow</title>
<g id="a_node7"><a xlink:href="https://github.com/conda-forge/tensorflow-feedstock/pull/193" xlink:title="tensorflow ❎">
<ellipse fill="#31688e" stroke="black" cx="122.19" cy="-422" rx="73.5" ry="18"/>
<text text-anchor="middle" x="122.19" y="-418.3" font-family="Times,serif" font-size="14.00" fill="white">tensorflow ❎</text>
</a>
</g>
</g>
<!-- qgis&#45;&gt;tensorflow -->
<!-- libhdfs3 -->
<g id="node10" class="node">
<title>libhdfs3</title>
<g id="a_node10"><a xlink:href="https://github.com/conda-forge/libhdfs3-feedstock/pull/41" xlink:title="libhdfs3 ❎">
<ellipse fill="#31688e" stroke="black" cx="122.19" cy="-350" rx="62.5" ry="18"/>
<text text-anchor="middle" x="122.19" y="-346.3" font-family="Times,serif" font-size="14.00" fill="white">libhdfs3 ❎</text>
</a>
</g>
</g>
<!-- tensorflow&#45;&gt;libhdfs3 -->
<!-- shogun -->
<g id="node8" class="node">
<title>shogun</title>
<g id="a_node8"><a xlink:href="https://github.com/conda-forge/shogun-feedstock" xlink:title="shogun">
<ellipse fill="#fde725" stroke="black" cx="944.19" cy="-458" rx="44.39" ry="18"/>
<text text-anchor="middle" x="944.19" y="-454.3" font-family="Times,serif" font-size="14.00">shogun</text>
</a>
</g>
</g>
<!-- shogun&#45;cpp -->
<g id="node9" class="node">
<title>shogun&#45;cpp</title>
<g id="a_node9"><a xlink:href="https://github.com/conda-forge/shogun-cpp-feedstock/pull/49" xlink:title="shogun cpp ❎">
<ellipse fill="#31688e" stroke="black" cx="944.19" cy="-530" rx="78" ry="18"/>
<text text-anchor="middle" x="944.19" y="-526.3" font-family="Times,serif" font-size="14.00" fill="white">shogun cpp ❎</text>
</a>
</g>
</g>
<!-- shogun&#45;cpp&#45;&gt;shogun -->
<g id="edge7" class="edge">
<title>shogun&#45;cpp&#45;&gt;shogun</title>
<path fill="none" stroke="black" d="M944.19,-511.7C944.19,-503.98 944.19,-494.71 944.19,-486.11"/>
<polygon fill="black" stroke="black" points="947.69,-486.1 944.19,-476.1 940.69,-486.1 947.69,-486.1"/>
</g>
<!-- pytorch&#45;cpu -->
<g id="node11" class="node">
<title>pytorch&#45;cpu</title>
<g id="a_node11"><a xlink:href="https://github.com/conda-forge/pytorch-cpu-feedstock/pull/77" xlink:title="pytorch cpu ❎">
<ellipse fill="#31688e" stroke="black" cx="122.19" cy="-278" rx="80" ry="18"/>
<text text-anchor="middle" x="122.19" y="-274.3" font-family="Times,serif" font-size="14.00" fill="white">pytorch cpu ❎</text>
</a>
</g>
</g>
<!-- libhdfs3&#45;&gt;pytorch&#45;cpu -->
<!-- gazebo -->
<g id="node12" class="node">
<title>gazebo</title>
<g id="a_node12"><a xlink:href="https://github.com/conda-forge/gazebo-feedstock" xlink:title="gazebo">
<ellipse fill="#ff8c00" stroke="black" cx="122.19" cy="-206" rx="43.59" ry="18"/>
<text text-anchor="middle" x="122.19" y="-202.3" font-family="Times,serif" font-size="14.00">gazebo</text>
</a>
</g>
</g>
<!-- pytorch&#45;cpu&#45;&gt;gazebo -->
<!-- go&#45;cockroach -->
<g id="node20" class="node">
<title>go&#45;cockroach</title>
<g id="a_node20"><a xlink:href="https://github.com/conda-forge/go-cockroach-feedstock" xlink:title="go cockroach">
<ellipse fill="#ff8c00" stroke="black" cx="122.19" cy="-134" rx="71.5" ry="18"/>
<text text-anchor="middle" x="122.19" y="-130.3" font-family="Times,serif" font-size="14.00">go cockroach</text>
</a>
</g>
</g>
<!-- gazebo&#45;&gt;go&#45;cockroach -->
<!-- libignition&#45;transport4 -->
<g id="node13" class="node">
<title>libignition&#45;transport4</title>
<g id="a_node13"><a xlink:href="https://github.com/conda-forge/libignition-transport4-feedstock" xlink:title="libignition transport4">
<ellipse fill="#fde725" stroke="black" cx="448.19" cy="-566" rx="110.5" ry="18"/>
<text text-anchor="middle" x="448.19" y="-562.3" font-family="Times,serif" font-size="14.00">libignition transport4</text>
</a>
</g>
</g>
<!-- libignition&#45;sensors -->
<g id="node14" class="node">
<title>libignition&#45;sensors</title>
<g id="a_node14"><a xlink:href="https://github.com/conda-forge/libignition-sensors-feedstock" xlink:title="libignition sensors">
<ellipse fill="#fde725" stroke="black" cx="594.19" cy="-494" rx="97" ry="18"/>
<text text-anchor="middle" x="594.19" y="-490.3" font-family="Times,serif" font-size="14.00">libignition sensors</text>
</a>
</g>
</g>
<!-- libignition&#45;transport4&#45;&gt;libignition&#45;sensors -->
<g id="edge11" class="edge">
<title>libignition&#45;transport4&#45;&gt;libignition&#45;sensors</title>
<path fill="none" stroke="black" d="M482.05,-548.76C502.76,-538.83 529.44,-526.04 551.58,-515.43"/>
<polygon fill="black" stroke="black" points="553.26,-518.51 560.76,-511.03 550.23,-512.19 553.26,-518.51"/>
</g>
<!-- libignition&#45;gui -->
<g id="node15" class="node">
<title>libignition&#45;gui</title>
<g id="a_node15"><a xlink:href="https://github.com/conda-forge/libignition-gui-feedstock" xlink:title="libignition gui">
<ellipse fill="#fde725" stroke="black" cx="327.19" cy="-494" rx="75.5" ry="18"/>
<text text-anchor="middle" x="327.19" y="-490.3" font-family="Times,serif" font-size="14.00">libignition gui</text>
</a>
</g>
</g>
<!-- libignition&#45;transport4&#45;&gt;libignition&#45;gui -->
<g id="edge12" class="edge">
<title>libignition&#45;transport4&#45;&gt;libignition&#45;gui</title>
<path fill="none" stroke="black" d="M419.82,-548.59C403.05,-538.88 381.63,-526.49 363.62,-516.07"/>
<polygon fill="black" stroke="black" points="364.96,-512.81 354.55,-510.83 361.45,-518.86 364.96,-512.81"/>
</g>
<!-- libignition&#45;gazebo -->
<g id="node16" class="node">
<title>libignition&#45;gazebo</title>
<g id="a_node16"><a xlink:href="https://github.com/conda-forge/libignition-gazebo-feedstock" xlink:title="libignition gazebo">
<ellipse fill="#fde725" stroke="black" cx="574.19" cy="-422" rx="93.68" ry="18"/>
<text text-anchor="middle" x="574.19" y="-418.3" font-family="Times,serif" font-size="14.00">libignition gazebo</text>
</a>
</g>
</g>
<!-- libignition&#45;transport4&#45;&gt;libignition&#45;gazebo -->
<g id="edge13" class="edge">
<title>libignition&#45;transport4&#45;&gt;libignition&#45;gazebo</title>
<path fill="none" stroke="black" d="M452.56,-547.92C458.19,-528.66 469.53,-497.26 488.19,-476 499.59,-463.01 514.96,-452.17 529.55,-443.74"/>
<polygon fill="black" stroke="black" points="531.42,-446.71 538.49,-438.81 528.04,-440.58 531.42,-446.71"/>
</g>
<!-- libignition&#45;launch -->
<g id="node17" class="node">
<title>libignition&#45;launch</title>
<g id="a_node17"><a xlink:href="https://github.com/conda-forge/libignition-launch-feedstock" xlink:title="libignition launch">
<ellipse fill="#fde725" stroke="black" cx="512.19" cy="-350" rx="91.78" ry="18"/>
<text text-anchor="middle" x="512.19" y="-346.3" font-family="Times,serif" font-size="14.00">libignition launch</text>
</a>
</g>
</g>
<!-- libignition&#45;transport4&#45;&gt;libignition&#45;launch -->
<g id="edge14" class="edge">
<title>libignition&#45;transport4&#45;&gt;libignition&#45;launch</title>
<path fill="none" stroke="black" d="M447.82,-547.79C447.77,-517.48 450.4,-453.15 471.19,-404 475.4,-394.04 481.97,-384.32 488.62,-375.98"/>
<polygon fill="black" stroke="black" points="491.45,-378.05 495.21,-368.15 486.09,-373.54 491.45,-378.05"/>
</g>
<!-- libignition&#45;sensors&#45;&gt;libignition&#45;gazebo -->
<g id="edge15" class="edge">
<title>libignition&#45;sensors&#45;&gt;libignition&#45;gazebo</title>
<path fill="none" stroke="black" d="M589.25,-475.7C587.02,-467.9 584.33,-458.51 581.85,-449.83"/>
<polygon fill="black" stroke="black" points="585.19,-448.76 579.08,-440.1 578.46,-450.68 585.19,-448.76"/>
</g>
<!-- libignition&#45;gui&#45;&gt;libignition&#45;gazebo -->
<g id="edge16" class="edge">
<title>libignition&#45;gui&#45;&gt;libignition&#45;gazebo</title>
<path fill="none" stroke="black" d="M373.94,-479.75C413.64,-468.5 470.88,-452.28 514,-440.06"/>
<polygon fill="black" stroke="black" points="515.14,-443.37 523.81,-437.28 513.23,-436.64 515.14,-443.37"/>
</g>
<!-- libignition&#45;gui&#45;&gt;libignition&#45;launch -->
<g id="edge17" class="edge">
<title>libignition&#45;gui&#45;&gt;libignition&#45;launch</title>
<path fill="none" stroke="black" d="M341.62,-476.2C358.49,-457.2 387.85,-426.04 417.19,-404 433.37,-391.84 452.65,-380.58 469.6,-371.59"/>
<polygon fill="black" stroke="black" points="471.48,-374.55 478.74,-366.84 468.25,-368.34 471.48,-374.55"/>
</g>
<!-- libignition&#45;gazebo&#45;&gt;libignition&#45;launch -->
<g id="edge18" class="edge">
<title>libignition&#45;gazebo&#45;&gt;libignition&#45;launch</title>
<path fill="none" stroke="black" d="M559.18,-404.05C551.57,-395.46 542.18,-384.86 533.8,-375.4"/>
<polygon fill="black" stroke="black" points="536.31,-372.95 527.06,-367.79 531.07,-377.6 536.31,-372.95"/>
</g>
<!-- libignition&#45;msgs1 -->
<g id="node18" class="node">
<title>libignition&#45;msgs1</title>
<g id="a_node18"><a xlink:href="https://github.com/conda-forge/libignition-msgs1-feedstock/pull/63" xlink:title="libignition msgs1 ❎">
<ellipse fill="#31688e" stroke="black" cx="653.19" cy="-638" rx="105.5" ry="18"/>
<text text-anchor="middle" x="653.19" y="-634.3" font-family="Times,serif" font-size="14.00" fill="white">libignition msgs1 ❎</text>
</a>
</g>
</g>
<!-- libignition&#45;msgs1&#45;&gt;libignition&#45;transport4 -->
<g id="edge19" class="edge">
<title>libignition&#45;msgs1&#45;&gt;libignition&#45;transport4</title>
<path fill="none" stroke="black" d="M608.2,-621.64C577.2,-611.05 535.82,-596.92 502.91,-585.68"/>
<polygon fill="black" stroke="black" points="504.02,-582.37 493.43,-582.45 501.76,-588.99 504.02,-582.37"/>
</g>
<!-- libignition&#45;msgs1&#45;&gt;libignition&#45;sensors -->
<g id="edge20" class="edge">
<title>libignition&#45;msgs1&#45;&gt;libignition&#45;sensors</title>
<path fill="none" stroke="black" d="M633.18,-619.85C623.41,-610.32 612.44,-597.64 606.19,-584 597.33,-564.66 594.5,-540.65 593.8,-522.45"/>
<polygon fill="black" stroke="black" points="597.29,-522.15 593.6,-512.22 590.29,-522.28 597.29,-522.15"/>
</g>
<!-- libignition&#45;msgs1&#45;&gt;libignition&#45;gui -->
<g id="edge21" class="edge">
<title>libignition&#45;msgs1&#45;&gt;libignition&#45;gui</title>
<path fill="none" stroke="black" d="M549.88,-634.18C465.78,-629.45 356.52,-616.94 328.19,-584 313.76,-567.22 315.16,-541.35 319.2,-521.82"/>
<polygon fill="black" stroke="black" points="322.63,-522.53 321.56,-511.99 315.82,-520.9 322.63,-522.53"/>
</g>
<!-- libignition&#45;msgs1&#45;&gt;libignition&#45;gazebo -->
<g id="edge22" class="edge">
<title>libignition&#45;msgs1&#45;&gt;libignition&#45;gazebo</title>
<path fill="none" stroke="black" d="M735.81,-626.8C793.62,-615.64 856.49,-592.96 832.19,-548 797.08,-483.06 716.06,-451.41 654.1,-436.28"/>
<polygon fill="black" stroke="black" points="654.87,-432.86 644.33,-433.99 653.27,-439.68 654.87,-432.86"/>
</g>
<!-- libignition&#45;msgs1&#45;&gt;libignition&#45;launch -->
<g id="edge23" class="edge">
<title>libignition&#45;msgs1&#45;&gt;libignition&#45;launch</title>
<path fill="none" stroke="black" d="M730.7,-625.71C778.57,-616.98 833.57,-603.13 848.19,-584 857.91,-571.29 853.25,-563.18 848.19,-548 811.54,-438.05 673.35,-387.02 586.02,-365.3"/>
<polygon fill="black" stroke="black" points="586.7,-361.87 576.16,-362.92 585.06,-368.67 586.7,-361.87"/>
</g>
<!-- libignition&#45;fuel&#45;tools -->
<g id="node19" class="node">
<title>libignition&#45;fuel&#45;tools</title>
<g id="a_node19"><a xlink:href="https://github.com/conda-forge/libignition-fuel-tools-feedstock" xlink:title="libignition fuel tools">
<ellipse fill="#fde725" stroke="black" cx="719.19" cy="-566" rx="104" ry="18"/>
<text text-anchor="middle" x="719.19" y="-562.3" font-family="Times,serif" font-size="14.00">libignition fuel tools</text>
</a>
</g>
</g>
<!-- libignition&#45;msgs1&#45;&gt;libignition&#45;fuel&#45;tools -->
<g id="edge24" class="edge">
<title>libignition&#45;msgs1&#45;&gt;libignition&#45;fuel&#45;tools</title>
<path fill="none" stroke="black" d="M669.17,-620.05C677.15,-611.58 686.97,-601.17 695.79,-591.82"/>
<polygon fill="black" stroke="black" points="698.59,-593.95 702.9,-584.28 693.49,-589.15 698.59,-593.95"/>
</g>
<!-- libignition&#45;fuel&#45;tools&#45;&gt;libignition&#45;gazebo -->
<g id="edge25" class="edge">
<title>libignition&#45;fuel&#45;tools&#45;&gt;libignition&#45;gazebo</title>
<path fill="none" stroke="black" d="M720,-547.93C720.01,-528.39 717.12,-496.45 700.19,-476 685.95,-458.8 665.16,-447.08 644.55,-439.14"/>
<polygon fill="black" stroke="black" points="645.72,-435.84 635.12,-435.76 643.35,-442.43 645.72,-435.84"/>
</g>
<!-- tomviz -->
<g id="node21" class="node">
<title>tomviz</title>
<g id="a_node21"><a xlink:href="https://github.com/conda-forge/tomviz-feedstock/pull/17" xlink:title="tomviz ❎">
<ellipse fill="#31688e" stroke="black" cx="122.19" cy="-90" rx="56" ry="18"/>
<text text-anchor="middle" x="122.19" y="-86.3" font-family="Times,serif" font-size="14.00" fill="white">tomviz ❎</text>
</a>
</g>
</g>
<!-- protozfits -->
<g id="node22" class="node">
<title>protozfits</title>
<g id="a_node22"><a xlink:href="https://github.com/conda-forge/protozfits-feedstock/pull/9" xlink:title="protozfits ❎">
<ellipse fill="#31688e" stroke="black" cx="122.19" cy="-18" rx="69.59" ry="18"/>
<text text-anchor="middle" x="122.19" y="-14.3" font-family="Times,serif" font-size="14.00" fill="white">protozfits ❎</text>
</a>
</g>
</g>
<!-- tomviz&#45;&gt;protozfits -->
</g>
</svg>
