<?xml version="1.0" encoding="UTF-8" standalone="no"?>
<!DOCTYPE svg PUBLIC "-//W3C//DTD SVG 1.1//EN"
 "http://www.w3.org/Graphics/SVG/1.1/DTD/svg11.dtd">
<!-- Generated by graphviz version 2.49.0 (20210829.0051)
 -->
<!-- Pages: 1 -->
<svg width="1125pt" height="1140pt"
 viewBox="0.00 0.00 1124.80 1140.00" xmlns="http://www.w3.org/2000/svg" xmlns:xlink="http://www.w3.org/1999/xlink">
<g id="graph0" class="graph" transform="scale(1 1) rotate(0) translate(4 1136)">
<polygon fill="white" stroke="transparent" points="-4,4 -4,-1136 1120.8,-1136 1120.8,4 -4,4"/>
<!-- arrow&#45;cpp -->
<g id="node1" class="node">
<title>arrow&#45;cpp</title>
<g id="a_node1"><a xlink:href="https://github.com/conda-forge/arrow-cpp-feedstock" xlink:title="arrow cpp">
<ellipse fill="#fde725" stroke="black" cx="271.69" cy="-862" rx="58" ry="18"/>
<text text-anchor="middle" x="271.69" y="-858.3" font-family="Times,serif" font-size="14.00">arrow cpp</text>
</a>
</g>
</g>
<!-- bazel -->
<g id="node2" class="node">
<title>bazel</title>
<g id="a_node2"><a xlink:href="https://github.com/conda-forge/bazel-feedstock" xlink:title="bazel">
<ellipse fill="#fde725" stroke="black" cx="344.69" cy="-790" rx="35.19" ry="18"/>
<text text-anchor="middle" x="344.69" y="-786.3" font-family="Times,serif" font-size="14.00">bazel</text>
</a>
</g>
</g>
<!-- caffe -->
<g id="node3" class="node">
<title>caffe</title>
<g id="a_node3"><a xlink:href="https://github.com/conda-forge/caffe-feedstock" xlink:title="caffe">
<ellipse fill="#fde725" stroke="black" cx="867.69" cy="-242" rx="32.5" ry="18"/>
<text text-anchor="middle" x="867.69" y="-238.3" font-family="Times,serif" font-size="14.00">caffe</text>
</a>
</g>
</g>
<!-- mosh -->
<g id="node4" class="node">
<title>mosh</title>
<g id="a_node4"><a xlink:href="https://github.com/conda-forge/mosh-feedstock/pull/25" xlink:title="mosh ✓">
<ellipse fill="#31688e" stroke="black" cx="102.69" cy="-1114" rx="43" ry="18"/>
<text text-anchor="middle" x="102.69" y="-1110.3" font-family="Times,serif" font-size="14.00" fill="white">mosh ✓</text>
</a>
</g>
</g>
<!-- onnx -->
<g id="node5" class="node">
<title>onnx</title>
<g id="a_node5"><a xlink:href="https://github.com/conda-forge/onnx-feedstock/pull/64" xlink:title="onnx ❎">
<ellipse fill="#31688e" stroke="black" cx="102.69" cy="-1042" rx="47.5" ry="18"/>
<text text-anchor="middle" x="102.69" y="-1038.3" font-family="Times,serif" font-size="14.00" fill="white">onnx ❎</text>
</a>
</g>
</g>
<!-- mosh&#45;&gt;onnx -->
<!-- paraview -->
<g id="node8" class="node">
<title>paraview</title>
<g id="a_node8"><a xlink:href="https://github.com/conda-forge/paraview-feedstock/pull/132" xlink:title="paraview ✓">
<ellipse fill="#31688e" stroke="black" cx="102.69" cy="-970" rx="60.5" ry="18"/>
<text text-anchor="middle" x="102.69" y="-966.3" font-family="Times,serif" font-size="14.00" fill="white">paraview ✓</text>
</a>
</g>
</g>
<!-- onnx&#45;&gt;paraview -->
<!-- mysql -->
<g id="node6" class="node">
<title>mysql</title>
<g id="a_node6"><a xlink:href="https://github.com/conda-forge/mysql-feedstock" xlink:title="mysql">
<ellipse fill="#ff8c00" stroke="black" cx="440.69" cy="-278" rx="38.5" ry="18"/>
<text text-anchor="middle" x="440.69" y="-274.3" font-family="Times,serif" font-size="14.00">mysql</text>
</a>
</g>
</g>
<!-- mysql&#45;connector&#45;python -->
<g id="node7" class="node">
<title>mysql&#45;connector&#45;python</title>
<g id="a_node7"><a xlink:href="https://github.com/conda-forge/mysql-connector-python-feedstock" xlink:title="mysql connector python">
<ellipse fill="#fde725" stroke="black" cx="440.69" cy="-206" rx="122.38" ry="18"/>
<text text-anchor="middle" x="440.69" y="-202.3" font-family="Times,serif" font-size="14.00">mysql connector python</text>
</a>
</g>
</g>
<!-- mysql&#45;&gt;mysql&#45;connector&#45;python -->
<g id="edge2" class="edge">
<title>mysql&#45;&gt;mysql&#45;connector&#45;python</title>
<path fill="none" stroke="black" d="M440.69,-259.7C440.69,-251.98 440.69,-242.71 440.69,-234.11"/>
<polygon fill="black" stroke="black" points="444.19,-234.1 440.69,-224.1 437.19,-234.1 444.19,-234.1"/>
</g>
<!-- qgis -->
<g id="node11" class="node">
<title>qgis</title>
<g id="a_node11"><a xlink:href="https://github.com/conda-forge/qgis-feedstock/pull/204" xlink:title="qgis ❎">
<ellipse fill="#31688e" stroke="black" cx="102.69" cy="-898" rx="44.39" ry="18"/>
<text text-anchor="middle" x="102.69" y="-894.3" font-family="Times,serif" font-size="14.00" fill="white">qgis ❎</text>
</a>
</g>
</g>
<!-- paraview&#45;&gt;qgis -->
<!-- opencv -->
<g id="node9" class="node">
<title>opencv</title>
<g id="a_node9"><a xlink:href="https://github.com/conda-forge/opencv-feedstock" xlink:title="opencv">
<ellipse fill="#ff8c00" stroke="black" cx="897.69" cy="-314" rx="43.59" ry="18"/>
<text text-anchor="middle" x="897.69" y="-310.3" font-family="Times,serif" font-size="14.00">opencv</text>
</a>
</g>
</g>
<!-- opencv&#45;&gt;caffe -->
<g id="edge4" class="edge">
<title>opencv&#45;&gt;caffe</title>
<path fill="none" stroke="black" d="M890.43,-296.05C886.96,-287.97 882.74,-278.12 878.88,-269.11"/>
<polygon fill="black" stroke="black" points="882.04,-267.6 874.89,-259.79 875.61,-270.36 882.04,-267.6"/>
</g>
<!-- imp -->
<g id="node10" class="node">
<title>imp</title>
<g id="a_node10"><a xlink:href="https://github.com/conda-forge/imp-feedstock" xlink:title="imp">
<ellipse fill="#fde725" stroke="black" cx="928.69" cy="-170" rx="28.7" ry="18"/>
<text text-anchor="middle" x="928.69" y="-166.3" font-family="Times,serif" font-size="14.00">imp</text>
</a>
</g>
</g>
<!-- opencv&#45;&gt;imp -->
<g id="edge5" class="edge">
<title>opencv&#45;&gt;imp</title>
<path fill="none" stroke="black" d="M901.64,-295.83C904,-285.46 907.06,-271.98 909.69,-260 914.24,-239.3 919.24,-215.85 922.97,-198.22"/>
<polygon fill="black" stroke="black" points="926.47,-198.58 925.11,-188.08 919.62,-197.14 926.47,-198.58"/>
</g>
<!-- libhdfs3 -->
<g id="node12" class="node">
<title>libhdfs3</title>
<g id="a_node12"><a xlink:href="https://github.com/conda-forge/libhdfs3-feedstock/pull/40" xlink:title="libhdfs3 ✓">
<ellipse fill="#31688e" stroke="black" cx="102.69" cy="-826" rx="56" ry="18"/>
<text text-anchor="middle" x="102.69" y="-822.3" font-family="Times,serif" font-size="14.00" fill="white">libhdfs3 ✓</text>
</a>
</g>
</g>
<!-- qgis&#45;&gt;libhdfs3 -->
<!-- r&#45;protolite -->
<g id="node16" class="node">
<title>r&#45;protolite</title>
<g id="a_node16"><a xlink:href="https://github.com/conda-forge/r-protolite-feedstock" xlink:title="r protolite">
<ellipse fill="#35b779" stroke="black" cx="102.69" cy="-754" rx="58" ry="18"/>
<text text-anchor="middle" x="102.69" y="-750.3" font-family="Times,serif" font-size="14.00">r protolite</text>
</a>
</g>
</g>
<!-- libhdfs3&#45;&gt;r&#45;protolite -->
<!-- shogun -->
<g id="node13" class="node">
<title>shogun</title>
<g id="a_node13"><a xlink:href="https://github.com/conda-forge/shogun-feedstock" xlink:title="shogun">
<ellipse fill="#fde725" stroke="black" cx="102.69" cy="-18" rx="44.39" ry="18"/>
<text text-anchor="middle" x="102.69" y="-14.3" font-family="Times,serif" font-size="14.00">shogun</text>
</a>
</g>
</g>
<!-- shogun&#45;cpp -->
<g id="node14" class="node">
<title>shogun&#45;cpp</title>
<g id="a_node14"><a xlink:href="https://github.com/conda-forge/shogun-cpp-feedstock" xlink:title="shogun cpp">
<ellipse fill="#35b779" stroke="black" cx="102.69" cy="-90" rx="63.89" ry="18"/>
<text text-anchor="middle" x="102.69" y="-86.3" font-family="Times,serif" font-size="14.00">shogun cpp</text>
</a>
</g>
</g>
<!-- shogun&#45;cpp&#45;&gt;shogun -->
<g id="edge8" class="edge">
<title>shogun&#45;cpp&#45;&gt;shogun</title>
<path fill="none" stroke="black" d="M102.69,-71.7C102.69,-63.98 102.69,-54.71 102.69,-46.11"/>
<polygon fill="black" stroke="black" points="106.19,-46.1 102.69,-36.1 99.19,-46.1 106.19,-46.1"/>
</g>
<!-- tensorflow -->
<g id="node15" class="node">
<title>tensorflow</title>
<g id="a_node15"><a xlink:href="https://github.com/conda-forge/tensorflow-feedstock" xlink:title="tensorflow">
<ellipse fill="#fde725" stroke="black" cx="382.69" cy="-718" rx="60" ry="18"/>
<text text-anchor="middle" x="382.69" y="-714.3" font-family="Times,serif" font-size="14.00">tensorflow</text>
</a>
</g>
</g>
<!-- pytorch&#45;cpu -->
<g id="node17" class="node">
<title>pytorch&#45;cpu</title>
<g id="a_node17"><a xlink:href="https://github.com/conda-forge/pytorch-cpu-feedstock/pull/67" xlink:title="pytorch cpu ✓">
<ellipse fill="#31688e" stroke="black" cx="102.69" cy="-682" rx="73.5" ry="18"/>
<text text-anchor="middle" x="102.69" y="-678.3" font-family="Times,serif" font-size="14.00" fill="white">pytorch cpu ✓</text>
</a>
</g>
</g>
<!-- r&#45;protolite&#45;&gt;pytorch&#45;cpu -->
<!-- gazebo -->
<g id="node18" class="node">
<title>gazebo</title>
<g id="a_node18"><a xlink:href="https://github.com/conda-forge/gazebo-feedstock" xlink:title="gazebo">
<ellipse fill="#ff8c00" stroke="black" cx="102.69" cy="-610" rx="43.59" ry="18"/>
<text text-anchor="middle" x="102.69" y="-606.3" font-family="Times,serif" font-size="14.00">gazebo</text>
</a>
</g>
</g>
<!-- pytorch&#45;cpu&#45;&gt;gazebo -->
<!-- zaber&#45;motion -->
<g id="node27" class="node">
<title>zaber&#45;motion</title>
<g id="a_node27"><a xlink:href="https://github.com/conda-forge/zaber-motion-feedstock" xlink:title="zaber motion">
<ellipse fill="#35b779" stroke="black" cx="102.69" cy="-538" rx="71.5" ry="18"/>
<text text-anchor="middle" x="102.69" y="-534.3" font-family="Times,serif" font-size="14.00">zaber motion</text>
</a>
</g>
</g>
<!-- gazebo&#45;&gt;zaber&#45;motion -->
<!-- grpc&#45;cpp -->
<g id="node19" class="node">
<title>grpc&#45;cpp</title>
<g id="a_node19"><a xlink:href="https://github.com/conda-forge/grpc-cpp-feedstock/pull/112" xlink:title="grpc cpp ✓">
<ellipse fill="#31688e" stroke="black" cx="407.69" cy="-934" rx="58.5" ry="18"/>
<text text-anchor="middle" x="407.69" y="-930.3" font-family="Times,serif" font-size="14.00" fill="white">grpc cpp ✓</text>
</a>
</g>
</g>
<!-- grpc&#45;cpp&#45;&gt;arrow&#45;cpp -->
<g id="edge12" class="edge">
<title>grpc&#45;cpp&#45;&gt;arrow&#45;cpp</title>
<path fill="none" stroke="black" d="M378.85,-918.15C358.65,-907.76 331.47,-893.77 309.53,-882.48"/>
<polygon fill="black" stroke="black" points="310.98,-879.29 300.49,-877.82 307.78,-885.51 310.98,-879.29"/>
</g>
<!-- grpc&#45;cpp&#45;&gt;bazel -->
<g id="edge13" class="edge">
<title>grpc&#45;cpp&#45;&gt;bazel</title>
<path fill="none" stroke="black" d="M400.09,-915.87C389.2,-891.33 369.06,-845.94 356.3,-817.17"/>
<polygon fill="black" stroke="black" points="359.38,-815.47 352.12,-807.75 352.98,-818.31 359.38,-815.47"/>
</g>
<!-- grpc&#45;cpp&#45;&gt;tensorflow -->
<g id="edge14" class="edge">
<title>grpc&#45;cpp&#45;&gt;tensorflow</title>
<path fill="none" stroke="black" d="M405.69,-915.85C401.36,-878.83 391.12,-791.18 385.89,-746.39"/>
<polygon fill="black" stroke="black" points="389.34,-745.76 384.7,-736.23 382.39,-746.57 389.34,-745.76"/>
</g>
<!-- google&#45;cloud&#45;cpp -->
<g id="node20" class="node">
<title>google&#45;cloud&#45;cpp</title>
<g id="a_node20"><a xlink:href="https://github.com/conda-forge/google-cloud-cpp-feedstock" xlink:title="google cloud cpp">
<ellipse fill="#fde725" stroke="black" cx="470.69" cy="-646" rx="89.08" ry="18"/>
<text text-anchor="middle" x="470.69" y="-642.3" font-family="Times,serif" font-size="14.00">google cloud cpp</text>
</a>
</g>
</g>
<!-- grpc&#45;cpp&#45;&gt;google&#45;cloud&#45;cpp -->
<g id="edge15" class="edge">
<title>grpc&#45;cpp&#45;&gt;google&#45;cloud&#45;cpp</title>
<path fill="none" stroke="black" d="M411.57,-915.88C419.3,-881.71 437.15,-802.59 451.69,-736 456.21,-715.29 461.21,-691.85 464.95,-674.22"/>
<polygon fill="black" stroke="black" points="468.45,-674.58 467.1,-664.07 461.6,-673.13 468.45,-674.58"/>
</g>
<!-- googleapis&#45;cpp -->
<g id="node21" class="node">
<title>googleapis&#45;cpp</title>
<g id="a_node21"><a xlink:href="https://github.com/conda-forge/googleapis-cpp-feedstock" xlink:title="googleapis cpp">
<ellipse fill="#fde725" stroke="black" cx="587.69" cy="-574" rx="80" ry="18"/>
<text text-anchor="middle" x="587.69" y="-570.3" font-family="Times,serif" font-size="14.00">googleapis cpp</text>
</a>
</g>
</g>
<!-- grpc&#45;cpp&#45;&gt;googleapis&#45;cpp -->
<g id="edge16" class="edge">
<title>grpc&#45;cpp&#45;&gt;googleapis&#45;cpp</title>
<path fill="none" stroke="black" d="M448.54,-920.91C501.64,-902.36 587.69,-861.45 587.69,-791 587.69,-791 587.69,-791 587.69,-717 587.69,-677 587.69,-630.65 587.69,-602.08"/>
<polygon fill="black" stroke="black" points="591.19,-602.05 587.69,-592.05 584.19,-602.05 591.19,-602.05"/>
</g>
<!-- libignition&#45;transport4 -->
<g id="node22" class="node">
<title>libignition&#45;transport4</title>
<g id="a_node22"><a xlink:href="https://github.com/conda-forge/libignition-transport4-feedstock" xlink:title="libignition transport4">
<ellipse fill="#35b779" stroke="black" cx="949.69" cy="-862" rx="110.5" ry="18"/>
<text text-anchor="middle" x="949.69" y="-858.3" font-family="Times,serif" font-size="14.00">libignition transport4</text>
</a>
</g>
</g>
<!-- libignition&#45;sensors -->
<g id="node23" class="node">
<title>libignition&#45;sensors</title>
<g id="a_node23"><a xlink:href="https://github.com/conda-forge/libignition-sensors-feedstock" xlink:title="libignition sensors">
<ellipse fill="#fde725" stroke="black" cx="772.69" cy="-790" rx="97" ry="18"/>
<text text-anchor="middle" x="772.69" y="-786.3" font-family="Times,serif" font-size="14.00">libignition sensors</text>
</a>
</g>
</g>
<!-- libignition&#45;transport4&#45;&gt;libignition&#45;sensors -->
<g id="edge17" class="edge">
<title>libignition&#45;transport4&#45;&gt;libignition&#45;sensors</title>
<path fill="none" stroke="black" d="M909.53,-845.12C883.43,-834.8 849.25,-821.28 821.58,-810.33"/>
<polygon fill="black" stroke="black" points="822.67,-807 812.09,-806.58 820.1,-813.51 822.67,-807"/>
</g>
<!-- libignition&#45;gui -->
<g id="node24" class="node">
<title>libignition&#45;gui</title>
<g id="a_node24"><a xlink:href="https://github.com/conda-forge/libignition-gui-feedstock" xlink:title="libignition gui">
<ellipse fill="#fde725" stroke="black" cx="1001.69" cy="-790" rx="75.5" ry="18"/>
<text text-anchor="middle" x="1001.69" y="-786.3" font-family="Times,serif" font-size="14.00">libignition gui</text>
</a>
</g>
</g>
<!-- libignition&#45;transport4&#45;&gt;libignition&#45;gui -->
<g id="edge18" class="edge">
<title>libignition&#45;transport4&#45;&gt;libignition&#45;gui</title>
<path fill="none" stroke="black" d="M962.28,-844.05C968.54,-835.63 976.23,-825.28 983.14,-815.97"/>
<polygon fill="black" stroke="black" points="986.07,-817.9 989.22,-807.79 980.45,-813.73 986.07,-817.9"/>
</g>
<!-- libignition&#45;gazebo -->
<g id="node25" class="node">
<title>libignition&#45;gazebo</title>
<g id="a_node25"><a xlink:href="https://github.com/conda-forge/libignition-gazebo-feedstock" xlink:title="libignition gazebo">
<ellipse fill="#fde725" stroke="black" cx="897.69" cy="-718" rx="93.68" ry="18"/>
<text text-anchor="middle" x="897.69" y="-714.3" font-family="Times,serif" font-size="14.00">libignition gazebo</text>
</a>
</g>
</g>
<!-- libignition&#45;transport4&#45;&gt;libignition&#45;gazebo -->
<g id="edge19" class="edge">
<title>libignition&#45;transport4&#45;&gt;libignition&#45;gazebo</title>
<path fill="none" stroke="black" d="M936.76,-843.68C929.88,-833.7 921.8,-820.66 916.69,-808 908.67,-788.13 903.82,-764.33 901.02,-746.35"/>
<polygon fill="black" stroke="black" points="904.46,-745.65 899.58,-736.25 897.53,-746.64 904.46,-745.65"/>
</g>
<!-- libignition&#45;launch -->
<g id="node26" class="node">
<title>libignition&#45;launch</title>
<g id="a_node26"><a xlink:href="https://github.com/conda-forge/libignition-launch-feedstock" xlink:title="libignition launch">
<ellipse fill="#fde725" stroke="black" cx="1019.69" cy="-646" rx="91.78" ry="18"/>
<text text-anchor="middle" x="1019.69" y="-642.3" font-family="Times,serif" font-size="14.00">libignition launch</text>
</a>
</g>
</g>
<!-- libignition&#45;transport4&#45;&gt;libignition&#45;launch -->
<g id="edge20" class="edge">
<title>libignition&#45;transport4&#45;&gt;libignition&#45;launch</title>
<path fill="none" stroke="black" d="M1025.69,-848.91C1049.17,-841.21 1072.56,-828.62 1086.69,-808 1116.8,-764.07 1073.9,-704.5 1044.11,-671.52"/>
<polygon fill="black" stroke="black" points="1046.61,-669.07 1037.24,-664.12 1041.48,-673.83 1046.61,-669.07"/>
</g>
<!-- libignition&#45;sensors&#45;&gt;libignition&#45;gazebo -->
<g id="edge21" class="edge">
<title>libignition&#45;sensors&#45;&gt;libignition&#45;gazebo</title>
<path fill="none" stroke="black" d="M801.68,-772.76C819.04,-763.05 841.28,-750.59 859.99,-740.11"/>
<polygon fill="black" stroke="black" points="861.84,-743.09 868.86,-735.15 858.42,-736.98 861.84,-743.09"/>
</g>
<!-- libignition&#45;gui&#45;&gt;libignition&#45;gazebo -->
<g id="edge22" class="edge">
<title>libignition&#45;gui&#45;&gt;libignition&#45;gazebo</title>
<path fill="none" stroke="black" d="M977.57,-772.76C963.63,-763.38 945.88,-751.44 930.66,-741.19"/>
<polygon fill="black" stroke="black" points="932.29,-738.07 922.04,-735.39 928.38,-743.88 932.29,-738.07"/>
</g>
<!-- libignition&#45;gui&#45;&gt;libignition&#45;launch -->
<g id="edge23" class="edge">
<title>libignition&#45;gui&#45;&gt;libignition&#45;launch</title>
<path fill="none" stroke="black" d="M1003.86,-771.87C1006.93,-747.67 1012.57,-703.21 1016.22,-674.39"/>
<polygon fill="black" stroke="black" points="1019.73,-674.55 1017.51,-664.19 1012.78,-673.67 1019.73,-674.55"/>
</g>
<!-- libignition&#45;gazebo&#45;&gt;libignition&#45;launch -->
<g id="edge24" class="edge">
<title>libignition&#45;gazebo&#45;&gt;libignition&#45;launch</title>
<path fill="none" stroke="black" d="M925.99,-700.76C942.77,-691.13 964.24,-678.81 982.4,-668.4"/>
<polygon fill="black" stroke="black" points="984.62,-671.16 991.55,-663.15 981.13,-665.09 984.62,-671.16"/>
</g>
<!-- go&#45;cockroach -->
<g id="node28" class="node">
<title>go&#45;cockroach</title>
<g id="a_node28"><a xlink:href="https://github.com/conda-forge/go-cockroach-feedstock" xlink:title="go cockroach">
<ellipse fill="#ff8c00" stroke="black" cx="102.69" cy="-466" rx="71.5" ry="18"/>
<text text-anchor="middle" x="102.69" y="-462.3" font-family="Times,serif" font-size="14.00">go cockroach</text>
</a>
</g>
</g>
<!-- zaber&#45;motion&#45;&gt;go&#45;cockroach -->
<!-- cartographer -->
<g id="node29" class="node">
<title>cartographer</title>
<g id="a_node29"><a xlink:href="https://github.com/conda-forge/cartographer-feedstock/pull/20" xlink:title="cartographer ❎">
<ellipse fill="#31688e" stroke="black" cx="102.69" cy="-394" rx="86" ry="18"/>
<text text-anchor="middle" x="102.69" y="-390.3" font-family="Times,serif" font-size="14.00" fill="white">cartographer ❎</text>
</a>
</g>
</g>
<!-- go&#45;cockroach&#45;&gt;cartographer -->
<!-- tomviz -->
<g id="node30" class="node">
<title>tomviz</title>
<g id="a_node30"><a xlink:href="https://github.com/conda-forge/tomviz-feedstock/pull/11" xlink:title="tomviz ❎">
<ellipse fill="#31688e" stroke="black" cx="102.69" cy="-350" rx="56" ry="18"/>
<text text-anchor="middle" x="102.69" y="-346.3" font-family="Times,serif" font-size="14.00" fill="white">tomviz ❎</text>
</a>
</g>
</g>
<!-- protozfits -->
<g id="node31" class="node">
<title>protozfits</title>
<g id="a_node31"><a xlink:href="https://github.com/conda-forge/protozfits-feedstock" xlink:title="protozfits">
<ellipse fill="#35b779" stroke="black" cx="102.69" cy="-278" rx="55.49" ry="18"/>
<text text-anchor="middle" x="102.69" y="-274.3" font-family="Times,serif" font-size="14.00">protozfits</text>
</a>
</g>
</g>
<!-- tomviz&#45;&gt;protozfits -->
<!-- grpc_java_plugin -->
<g id="node32" class="node">
<title>grpc_java_plugin</title>
<g id="a_node32"><a xlink:href="https://github.com/conda-forge/grpc_java_plugin-feedstock/pull/16" xlink:title="grpc_java_plugin ❎">
<ellipse fill="#31688e" stroke="black" cx="102.69" cy="-206" rx="102.88" ry="18"/>
<text text-anchor="middle" x="102.69" y="-202.3" font-family="Times,serif" font-size="14.00" fill="white">grpc_java_plugin ❎</text>
</a>
</g>
</g>
<!-- protozfits&#45;&gt;grpc_java_plugin -->
<!-- onnxruntime -->
<g id="node33" class="node">
<title>onnxruntime</title>
<g id="a_node33"><a xlink:href="https://github.com/conda-forge/onnxruntime-feedstock/pull/15" xlink:title="onnxruntime ✓">
<ellipse fill="#31688e" stroke="black" cx="102.69" cy="-134" rx="77.5" ry="18"/>
<text text-anchor="middle" x="102.69" y="-130.3" font-family="Times,serif" font-size="14.00" fill="white">onnxruntime ✓</text>
</a>
</g>
</g>
<!-- grpc_java_plugin&#45;&gt;onnxruntime -->
</g>
</svg>
