<?xml version="1.0" encoding="UTF-8" standalone="no"?>
<!DOCTYPE svg PUBLIC "-//W3C//DTD SVG 1.1//EN"
 "http://www.w3.org/Graphics/SVG/1.1/DTD/svg11.dtd">
<!-- Generated by graphviz version 2.42.3 (20191010.1750)
 -->
<!-- Title: %3 Pages: 1 -->
<svg width="647pt" height="232pt"
 viewBox="0.00 0.00 647.34 232.00" xmlns="http://www.w3.org/2000/svg" xmlns:xlink="http://www.w3.org/1999/xlink">
<g id="graph0" class="graph" transform="scale(1 1) rotate(0) translate(4 228)">
<title>%3</title>
<polygon fill="white" stroke="transparent" points="-4,4 -4,-228 643.34,-228 643.34,4 -4,4"/>
<!-- mysql -->
<g id="node1" class="node">
<title>mysql</title>
<g id="a_node1"><a xlink:href="https://github.com/conda-forge/mysql-feedstock/pull/27" xlink:title="mysql ❎">
<ellipse fill="#31688e" stroke="black" cx="175.9" cy="-206" rx="44.39" ry="18"/>
<text text-anchor="middle" x="175.9" y="-202.3" font-family="Times,serif" font-size="14.00" fill="white">mysql ❎</text>
</a>
</g>
</g>
<!-- paraview -->
<g id="node2" class="node">
<title>paraview</title>
<g id="a_node2"><a xlink:href="https://github.com/conda-forge/paraview-feedstock" xlink:title="paraview">
<ellipse fill="#fde725" stroke="black" cx="42.9" cy="-62" rx="42.79" ry="18"/>
<text text-anchor="middle" x="42.9" y="-58.3" font-family="Times,serif" font-size="14.00">paraview</text>
</a>
</g>
</g>
<!-- mysql&#45;&gt;paraview -->
<g id="edge2" class="edge">
<title>mysql&#45;&gt;paraview</title>
<path fill="none" stroke="black" d="M151.51,-190.75C136.18,-181.05 116.6,-167.24 101.9,-152 83.51,-132.94 67.27,-107.43 56.51,-88.61"/>
<polygon fill="black" stroke="black" points="59.47,-86.74 51.54,-79.71 53.36,-90.15 59.47,-86.74"/>
</g>
<!-- vtk -->
<g id="node3" class="node">
<title>vtk</title>
<g id="a_node3"><a xlink:href="https://github.com/conda-forge/vtk-feedstock" xlink:title="vtk">
<ellipse fill="#fde725" stroke="black" cx="130.9" cy="-62" rx="27" ry="18"/>
<text text-anchor="middle" x="130.9" y="-58.3" font-family="Times,serif" font-size="14.00">vtk</text>
</a>
</g>
</g>
<!-- mysql&#45;&gt;vtk -->
<g id="edge1" class="edge">
<title>mysql&#45;&gt;vtk</title>
<path fill="none" stroke="black" d="M149.33,-191.43C134.79,-182.42 118.09,-169.09 109.9,-152 100.08,-131.52 107.79,-106.14 116.51,-87.72"/>
<polygon fill="black" stroke="black" points="119.64,-89.29 121.07,-78.79 113.4,-86.11 119.64,-89.29"/>
</g>
<!-- root -->
<g id="node5" class="node">
<title>root</title>
<g id="a_node5"><a xlink:href="https://github.com/conda-forge/root-feedstock" xlink:title="root">
<ellipse fill="#fde725" stroke="black" cx="202.9" cy="-62" rx="27" ry="18"/>
<text text-anchor="middle" x="202.9" y="-58.3" font-family="Times,serif" font-size="14.00">root</text>
</a>
</g>
</g>
<!-- mysql&#45;&gt;root -->
<g id="edge3" class="edge">
<title>mysql&#45;&gt;root</title>
<path fill="none" stroke="black" d="M202.46,-191.43C217.01,-182.42 233.7,-169.09 241.9,-152 248.81,-137.57 246.89,-131.2 241.9,-116 238.19,-104.7 231.04,-93.82 223.87,-84.89"/>
<polygon fill="black" stroke="black" points="226.53,-82.62 217.38,-77.29 221.21,-87.17 226.53,-82.62"/>
</g>
<!-- imagecodecs -->
<g id="node8" class="node">
<title>imagecodecs</title>
<g id="a_node8"><a xlink:href="https://github.com/conda-forge/imagecodecs-feedstock" xlink:title="imagecodecs">
<ellipse fill="#fde725" stroke="black" cx="175.9" cy="-134" rx="56.59" ry="18"/>
<text text-anchor="middle" x="175.9" y="-130.3" font-family="Times,serif" font-size="14.00">imagecodecs</text>
</a>
</g>
</g>
<!-- mysql&#45;&gt;imagecodecs -->
<g id="edge4" class="edge">
<title>mysql&#45;&gt;imagecodecs</title>
<path fill="none" stroke="black" d="M175.9,-187.7C175.9,-179.98 175.9,-170.71 175.9,-162.11"/>
<polygon fill="black" stroke="black" points="179.4,-162.1 175.9,-152.1 172.4,-162.1 179.4,-162.1"/>
</g>
<!-- openconnect -->
<g id="node9" class="node">
<title>openconnect</title>
<g id="a_node9"><a xlink:href="https://github.com/conda-forge/openconnect-feedstock" xlink:title="openconnect">
<ellipse fill="#fde725" stroke="black" cx="302.9" cy="-62" rx="55.49" ry="18"/>
<text text-anchor="middle" x="302.9" y="-58.3" font-family="Times,serif" font-size="14.00">openconnect</text>
</a>
</g>
</g>
<!-- mysql&#45;&gt;openconnect -->
<g id="edge5" class="edge">
<title>mysql&#45;&gt;openconnect</title>
<path fill="none" stroke="black" d="M203.67,-191.87C220.95,-182.62 242.71,-168.89 257.9,-152 274.29,-133.78 286.31,-108.49 293.79,-89.53"/>
<polygon fill="black" stroke="black" points="297.13,-90.59 297.37,-80 290.58,-88.12 297.13,-90.59"/>
</g>
<!-- squashfs&#45;tools -->
<g id="node4" class="node">
<title>squashfs&#45;tools</title>
<g id="a_node4"><a xlink:href="https://github.com/conda-forge/squashfs-tools-feedstock/pull/10" xlink:title="squashfs tools ❎">
<ellipse fill="#31688e" stroke="black" cx="438.9" cy="-134" rx="72.29" ry="18"/>
<text text-anchor="middle" x="438.9" y="-130.3" font-family="Times,serif" font-size="14.00" fill="white">squashfs tools ❎</text>
</a>
</g>
</g>
<!-- rocksdb -->
<g id="node6" class="node">
<title>rocksdb</title>
<g id="a_node6"><a xlink:href="https://github.com/conda-forge/rocksdb-feedstock/pull/34" xlink:title="rocksdb ❎">
<ellipse fill="#31688e" stroke="black" cx="179.9" cy="-18" rx="50.09" ry="18"/>
<text text-anchor="middle" x="179.9" y="-14.3" font-family="Times,serif" font-size="14.00" fill="white">rocksdb ❎</text>
</a>
</g>
</g>
<!-- subversion -->
<g id="node7" class="node">
<title>subversion</title>
<g id="a_node7"><a xlink:href="https://github.com/conda-forge/subversion-feedstock/pull/8" xlink:title="subversion ❎">
<ellipse fill="#31688e" stroke="black" cx="578.9" cy="-134" rx="60.39" ry="18"/>
<text text-anchor="middle" x="578.9" y="-130.3" font-family="Times,serif" font-size="14.00" fill="white">subversion ❎</text>
</a>
</g>
</g>
<!-- imagecodecs&#45;&gt;paraview -->
<g id="edge6" class="edge">
<title>imagecodecs&#45;&gt;paraview</title>
<path fill="none" stroke="black" d="M148.02,-118.33C127.49,-107.52 99.44,-92.76 77.49,-81.21"/>
<polygon fill="black" stroke="black" points="78.97,-78.03 68.49,-76.47 75.71,-84.22 78.97,-78.03"/>
</g>
<!-- imagecodecs&#45;&gt;vtk -->
<g id="edge7" class="edge">
<title>imagecodecs&#45;&gt;vtk</title>
<path fill="none" stroke="black" d="M165,-116.05C159.48,-107.47 152.68,-96.89 146.61,-87.44"/>
<polygon fill="black" stroke="black" points="149.42,-85.35 141.07,-78.83 143.54,-89.13 149.42,-85.35"/>
</g>
<!-- imagecodecs&#45;&gt;root -->
<g id="edge8" class="edge">
<title>imagecodecs&#45;&gt;root</title>
<path fill="none" stroke="black" d="M182.43,-116.05C185.52,-108.06 189.27,-98.33 192.71,-89.4"/>
<polygon fill="black" stroke="black" points="196.09,-90.38 196.42,-79.79 189.56,-87.86 196.09,-90.38"/>
</g>
<!-- imagecodecs&#45;&gt;openconnect -->
<g id="edge9" class="edge">
<title>imagecodecs&#45;&gt;openconnect</title>
<path fill="none" stroke="black" d="M202.83,-118.15C221.52,-107.85 246.62,-94.02 267.01,-82.78"/>
<polygon fill="black" stroke="black" points="268.93,-85.72 276,-77.82 265.55,-79.59 268.93,-85.72"/>
</g>
</g>
</svg>
