<?xml version="1.0" encoding="UTF-8" standalone="no"?>
<!DOCTYPE svg PUBLIC "-//W3C//DTD SVG 1.1//EN"
 "http://www.w3.org/Graphics/SVG/1.1/DTD/svg11.dtd">
<!-- Generated by graphviz version 2.42.3 (20191010.1750)
 -->
<!-- Title: %3 Pages: 1 -->
<svg width="632pt" height="476pt"
 viewBox="0.00 0.00 631.79 476.00" xmlns="http://www.w3.org/2000/svg" xmlns:xlink="http://www.w3.org/1999/xlink">
<g id="graph0" class="graph" transform="scale(1 1) rotate(0) translate(4 472)">
<title>%3</title>
<polygon fill="white" stroke="transparent" points="-4,4 -4,-472 627.79,-472 627.79,4 -4,4"/>
<!-- arrow&#45;cpp -->
<g id="node1" class="node">
<title>arrow&#45;cpp</title>
<g id="a_node1"><a xlink:href="https://github.com/conda-forge/arrow-cpp-feedstock/pull/248" xlink:title="arrow cpp ✓">
<ellipse fill="#31688e" stroke="black" cx="72.14" cy="-450" rx="56.59" ry="18"/>
<text text-anchor="middle" x="72.14" y="-446.3" font-family="Times,serif" font-size="14.00" fill="white">arrow cpp ✓</text>
</a>
</g>
</g>
<!-- libarchive -->
<g id="node2" class="node">
<title>libarchive</title>
<g id="a_node2"><a xlink:href="https://github.com/conda-forge/libarchive-feedstock/pull/58" xlink:title="libarchive ✓">
<ellipse fill="#31688e" stroke="black" cx="72.14" cy="-378" rx="56" ry="18"/>
<text text-anchor="middle" x="72.14" y="-374.3" font-family="Times,serif" font-size="14.00" fill="white">libarchive ✓</text>
</a>
</g>
</g>
<!-- arrow&#45;cpp&#45;&gt;libarchive -->
<!-- librdkafka -->
<g id="node3" class="node">
<title>librdkafka</title>
<g id="a_node3"><a xlink:href="https://github.com/conda-forge/librdkafka-feedstock/pull/54" xlink:title="librdkafka ✓">
<ellipse fill="#31688e" stroke="black" cx="72.14" cy="-306" rx="57.39" ry="18"/>
<text text-anchor="middle" x="72.14" y="-302.3" font-family="Times,serif" font-size="14.00" fill="white">librdkafka ✓</text>
</a>
</g>
</g>
<!-- libarchive&#45;&gt;librdkafka -->
<!-- squashfs&#45;tools -->
<g id="node4" class="node">
<title>squashfs&#45;tools</title>
<g id="a_node4"><a xlink:href="https://github.com/conda-forge/squashfs-tools-feedstock/pull/10" xlink:title="squashfs tools ❎">
<ellipse fill="#31688e" stroke="black" cx="72.14" cy="-234" rx="72.29" ry="18"/>
<text text-anchor="middle" x="72.14" y="-230.3" font-family="Times,serif" font-size="14.00" fill="white">squashfs tools ❎</text>
</a>
</g>
</g>
<!-- librdkafka&#45;&gt;squashfs&#45;tools -->
<!-- ros&#45;roslz4 -->
<g id="node13" class="node">
<title>ros&#45;roslz4</title>
<g id="a_node13"><a xlink:href="https://github.com/conda-forge/ros-roslz4-feedstock/pull/12" xlink:title="ros roslz4 ✓">
<ellipse fill="#31688e" stroke="black" cx="72.14" cy="-162" rx="56" ry="18"/>
<text text-anchor="middle" x="72.14" y="-158.3" font-family="Times,serif" font-size="14.00" fill="white">ros roslz4 ✓</text>
</a>
</g>
</g>
<!-- squashfs&#45;tools&#45;&gt;ros&#45;roslz4 -->
<!-- mysql -->
<g id="node5" class="node">
<title>mysql</title>
<g id="a_node5"><a xlink:href="https://github.com/conda-forge/mysql-feedstock/pull/27" xlink:title="mysql ❎">
<ellipse fill="#31688e" stroke="black" cx="328.14" cy="-306" rx="44.39" ry="18"/>
<text text-anchor="middle" x="328.14" y="-302.3" font-family="Times,serif" font-size="14.00" fill="white">mysql ❎</text>
</a>
</g>
</g>
<!-- paraview -->
<g id="node6" class="node">
<title>paraview</title>
<g id="a_node6"><a xlink:href="https://github.com/conda-forge/paraview-feedstock" xlink:title="paraview">
<ellipse fill="#fde725" stroke="black" cx="195.14" cy="-162" rx="43" ry="18"/>
<text text-anchor="middle" x="195.14" y="-158.3" font-family="Times,serif" font-size="14.00">paraview</text>
</a>
</g>
</g>
<!-- mysql&#45;&gt;paraview -->
<g id="edge4" class="edge">
<title>mysql&#45;&gt;paraview</title>
<path fill="none" stroke="black" d="M303.76,-290.75C288.43,-281.05 268.84,-267.24 254.14,-252 235.76,-232.94 219.52,-207.43 208.76,-188.61"/>
<polygon fill="black" stroke="black" points="211.72,-186.74 203.79,-179.71 205.6,-190.15 211.72,-186.74"/>
</g>
<!-- vtk -->
<g id="node7" class="node">
<title>vtk</title>
<g id="a_node7"><a xlink:href="https://github.com/conda-forge/vtk-feedstock" xlink:title="vtk">
<ellipse fill="#fde725" stroke="black" cx="283.14" cy="-162" rx="27" ry="18"/>
<text text-anchor="middle" x="283.14" y="-158.3" font-family="Times,serif" font-size="14.00">vtk</text>
</a>
</g>
</g>
<!-- mysql&#45;&gt;vtk -->
<g id="edge5" class="edge">
<title>mysql&#45;&gt;vtk</title>
<path fill="none" stroke="black" d="M301.58,-291.43C287.03,-282.42 270.34,-269.09 262.14,-252 252.32,-231.52 260.04,-206.14 268.75,-187.72"/>
<polygon fill="black" stroke="black" points="271.88,-189.29 273.32,-178.79 265.65,-186.11 271.88,-189.29"/>
</g>
<!-- root -->
<g id="node8" class="node">
<title>root</title>
<g id="a_node8"><a xlink:href="https://github.com/conda-forge/root-feedstock" xlink:title="root">
<ellipse fill="#fde725" stroke="black" cx="355.14" cy="-162" rx="27" ry="18"/>
<text text-anchor="middle" x="355.14" y="-158.3" font-family="Times,serif" font-size="14.00">root</text>
</a>
</g>
</g>
<!-- mysql&#45;&gt;root -->
<g id="edge6" class="edge">
<title>mysql&#45;&gt;root</title>
<path fill="none" stroke="black" d="M354.71,-291.43C369.25,-282.42 385.95,-269.09 394.14,-252 401.06,-237.57 399.13,-231.2 394.14,-216 390.43,-204.7 383.29,-193.82 376.12,-184.89"/>
<polygon fill="black" stroke="black" points="378.78,-182.62 369.62,-177.29 373.46,-187.17 378.78,-182.62"/>
</g>
<!-- imagecodecs -->
<g id="node9" class="node">
<title>imagecodecs</title>
<g id="a_node9"><a xlink:href="https://github.com/conda-forge/imagecodecs-feedstock" xlink:title="imagecodecs">
<ellipse fill="#fde725" stroke="black" cx="328.14" cy="-234" rx="56.59" ry="18"/>
<text text-anchor="middle" x="328.14" y="-230.3" font-family="Times,serif" font-size="14.00">imagecodecs</text>
</a>
</g>
</g>
<!-- mysql&#45;&gt;imagecodecs -->
<g id="edge7" class="edge">
<title>mysql&#45;&gt;imagecodecs</title>
<path fill="none" stroke="black" d="M328.14,-287.7C328.14,-279.98 328.14,-270.71 328.14,-262.11"/>
<polygon fill="black" stroke="black" points="331.64,-262.1 328.14,-252.1 324.64,-262.1 331.64,-262.1"/>
</g>
<!-- openconnect -->
<g id="node10" class="node">
<title>openconnect</title>
<g id="a_node10"><a xlink:href="https://github.com/conda-forge/openconnect-feedstock" xlink:title="openconnect">
<ellipse fill="#fde725" stroke="black" cx="455.14" cy="-162" rx="55.49" ry="18"/>
<text text-anchor="middle" x="455.14" y="-158.3" font-family="Times,serif" font-size="14.00">openconnect</text>
</a>
</g>
</g>
<!-- mysql&#45;&gt;openconnect -->
<g id="edge8" class="edge">
<title>mysql&#45;&gt;openconnect</title>
<path fill="none" stroke="black" d="M355.91,-291.87C373.2,-282.62 394.95,-268.89 410.14,-252 426.54,-233.78 438.56,-208.49 446.03,-189.53"/>
<polygon fill="black" stroke="black" points="449.37,-190.59 449.62,-180 442.82,-188.12 449.37,-190.59"/>
</g>
<!-- imagecodecs&#45;&gt;paraview -->
<g id="edge9" class="edge">
<title>imagecodecs&#45;&gt;paraview</title>
<path fill="none" stroke="black" d="M300.26,-218.33C279.73,-207.52 251.69,-192.76 229.73,-181.21"/>
<polygon fill="black" stroke="black" points="231.21,-178.03 220.74,-176.47 227.95,-184.22 231.21,-178.03"/>
</g>
<!-- imagecodecs&#45;&gt;vtk -->
<g id="edge10" class="edge">
<title>imagecodecs&#45;&gt;vtk</title>
<path fill="none" stroke="black" d="M317.25,-216.05C311.73,-207.47 304.93,-196.89 298.85,-187.44"/>
<polygon fill="black" stroke="black" points="301.67,-185.35 293.32,-178.83 295.78,-189.13 301.67,-185.35"/>
</g>
<!-- imagecodecs&#45;&gt;root -->
<g id="edge11" class="edge">
<title>imagecodecs&#45;&gt;root</title>
<path fill="none" stroke="black" d="M334.68,-216.05C337.76,-208.06 341.52,-198.33 344.96,-189.4"/>
<polygon fill="black" stroke="black" points="348.33,-190.38 348.67,-179.79 341.8,-187.86 348.33,-190.38"/>
</g>
<!-- imagecodecs&#45;&gt;openconnect -->
<g id="edge12" class="edge">
<title>imagecodecs&#45;&gt;openconnect</title>
<path fill="none" stroke="black" d="M355.08,-218.15C373.77,-207.85 398.87,-194.02 419.25,-182.78"/>
<polygon fill="black" stroke="black" points="421.18,-185.72 428.25,-177.82 417.8,-179.59 421.18,-185.72"/>
</g>
<!-- tiledb -->
<g id="node11" class="node">
<title>tiledb</title>
<g id="a_node11"><a xlink:href="https://github.com/conda-forge/tiledb-feedstock/pull/93" xlink:title="tiledb ❎">
<ellipse fill="#31688e" stroke="black" cx="571.14" cy="-270" rx="42.49" ry="18"/>
<text text-anchor="middle" x="571.14" y="-266.3" font-family="Times,serif" font-size="14.00" fill="white">tiledb ❎</text>
</a>
</g>
</g>
<!-- libtiledb&#45;sql -->
<g id="node12" class="node">
<title>libtiledb&#45;sql</title>
<g id="a_node12"><a xlink:href="https://github.com/conda-forge/libtiledb-sql-feedstock" xlink:title="libtiledb sql">
<ellipse fill="#fde725" stroke="black" cx="571.14" cy="-198" rx="52.79" ry="18"/>
<text text-anchor="middle" x="571.14" y="-194.3" font-family="Times,serif" font-size="14.00">libtiledb sql</text>
</a>
</g>
</g>
<!-- tiledb&#45;&gt;libtiledb&#45;sql -->
<g id="edge13" class="edge">
<title>tiledb&#45;&gt;libtiledb&#45;sql</title>
<path fill="none" stroke="black" d="M571.14,-251.7C571.14,-243.98 571.14,-234.71 571.14,-226.11"/>
<polygon fill="black" stroke="black" points="574.64,-226.1 571.14,-216.1 567.64,-226.1 574.64,-226.1"/>
</g>
<!-- rocksdb -->
<g id="node14" class="node">
<title>rocksdb</title>
<g id="a_node14"><a xlink:href="https://github.com/conda-forge/rocksdb-feedstock/pull/34" xlink:title="rocksdb ❎">
<ellipse fill="#31688e" stroke="black" cx="72.14" cy="-90" rx="50.09" ry="18"/>
<text text-anchor="middle" x="72.14" y="-86.3" font-family="Times,serif" font-size="14.00" fill="white">rocksdb ❎</text>
</a>
</g>
</g>
<!-- ros&#45;roslz4&#45;&gt;rocksdb -->
<!-- subversion -->
<g id="node15" class="node">
<title>subversion</title>
<g id="a_node15"><a xlink:href="https://github.com/conda-forge/subversion-feedstock/pull/8" xlink:title="subversion ❎">
<ellipse fill="#31688e" stroke="black" cx="72.14" cy="-18" rx="60.5" ry="18"/>
<text text-anchor="middle" x="72.14" y="-14.3" font-family="Times,serif" font-size="14.00" fill="white">subversion ❎</text>
</a>
</g>
</g>
<!-- rocksdb&#45;&gt;subversion -->
</g>
</svg>
