<?xml version="1.0" encoding="UTF-8" standalone="no"?>
<!DOCTYPE svg PUBLIC "-//W3C//DTD SVG 1.1//EN"
 "http://www.w3.org/Graphics/SVG/1.1/DTD/svg11.dtd">
<!-- Generated by graphviz version 2.50.0 (20211209.0339)
 -->
<!-- Pages: 1 -->
<svg width="1923pt" height="1140pt"
 viewBox="0.00 0.00 1923.19 1140.00" xmlns="http://www.w3.org/2000/svg" xmlns:xlink="http://www.w3.org/1999/xlink">
<g id="graph0" class="graph" transform="scale(1 1) rotate(0) translate(4 1136)">
<polygon fill="white" stroke="transparent" points="-4,4 -4,-1136 1919.19,-1136 1919.19,4 -4,4"/>
<!-- airflow -->
<g id="node1" class="node">
<title>airflow</title>
<g id="a_node1"><a xlink:href="https://github.com/conda-forge/airflow-feedstock" xlink:title="airflow">
<ellipse fill="#fde725" stroke="black" cx="206" cy="-790" rx="42.49" ry="18"/>
<text text-anchor="middle" x="206" y="-786.3" font-family="Times,serif" font-size="14.00">airflow</text>
</a>
</g>
</g>
<!-- arrow&#45;cpp -->
<g id="node2" class="node">
<title>arrow&#45;cpp</title>
<g id="a_node2"><a xlink:href="https://github.com/conda-forge/arrow-cpp-feedstock" xlink:title="arrow cpp">
<ellipse fill="#fde725" stroke="black" cx="206" cy="-862" rx="58" ry="18"/>
<text text-anchor="middle" x="206" y="-858.3" font-family="Times,serif" font-size="14.00">arrow cpp</text>
</a>
</g>
</g>
<!-- arrow&#45;cpp&#45;&gt;airflow -->
<g id="edge1" class="edge">
<title>arrow&#45;cpp&#45;&gt;airflow</title>
<path fill="none" stroke="black" d="M206,-843.7C206,-835.98 206,-826.71 206,-818.11"/>
<polygon fill="black" stroke="black" points="209.5,-818.1 206,-808.1 202.5,-818.1 209.5,-818.1"/>
</g>
<!-- omniscidb -->
<g id="node3" class="node">
<title>omniscidb</title>
<g id="a_node3"><a xlink:href="https://github.com/conda-forge/omniscidb-feedstock" xlink:title="omniscidb">
<ellipse fill="#fde725" stroke="black" cx="88" cy="-790" rx="58" ry="18"/>
<text text-anchor="middle" x="88" y="-786.3" font-family="Times,serif" font-size="14.00">omniscidb</text>
</a>
</g>
</g>
<!-- arrow&#45;cpp&#45;&gt;omniscidb -->
<g id="edge2" class="edge">
<title>arrow&#45;cpp&#45;&gt;omniscidb</title>
<path fill="none" stroke="black" d="M180.4,-845.81C163.39,-835.72 140.86,-822.36 122.3,-811.35"/>
<polygon fill="black" stroke="black" points="123.94,-808.25 113.55,-806.16 120.37,-814.27 123.94,-808.25"/>
</g>
<!-- erlang -->
<g id="node4" class="node">
<title>erlang</title>
<g id="a_node4"><a xlink:href="https://github.com/conda-forge/erlang-feedstock/pull/105" xlink:title="erlang ❎">
<ellipse fill="#31688e" stroke="black" cx="1806" cy="-1114" rx="54.69" ry="18"/>
<text text-anchor="middle" x="1806" y="-1110.3" font-family="Times,serif" font-size="14.00" fill="white">erlang ❎</text>
</a>
</g>
</g>
<!-- m2crypto -->
<g id="node5" class="node">
<title>m2crypto</title>
<g id="a_node5"><a xlink:href="https://github.com/conda-forge/m2crypto-feedstock/pull/63" xlink:title="m2crypto ❎">
<ellipse fill="#31688e" stroke="black" cx="1806" cy="-1042" rx="69.59" ry="18"/>
<text text-anchor="middle" x="1806" y="-1038.3" font-family="Times,serif" font-size="14.00" fill="white">m2crypto ❎</text>
</a>
</g>
</g>
<!-- erlang&#45;&gt;m2crypto -->
<!-- mysql&#45;connector&#45;c -->
<g id="node8" class="node">
<title>mysql&#45;connector&#45;c</title>
<g id="a_node8"><a xlink:href="https://github.com/conda-forge/mysql-connector-c-feedstock/pull/18" xlink:title="mysql connector c ❎">
<ellipse fill="#31688e" stroke="black" cx="1806" cy="-970" rx="109.38" ry="18"/>
<text text-anchor="middle" x="1806" y="-966.3" font-family="Times,serif" font-size="14.00" fill="white">mysql connector c ❎</text>
</a>
</g>
</g>
<!-- m2crypto&#45;&gt;mysql&#45;connector&#45;c -->
<!-- librdkafka -->
<g id="node6" class="node">
<title>librdkafka</title>
<g id="a_node6"><a xlink:href="https://github.com/conda-forge/librdkafka-feedstock/pull/67" xlink:title="librdkafka ✓">
<ellipse fill="#31688e" stroke="black" cx="65" cy="-862" rx="65" ry="18"/>
<text text-anchor="middle" x="65" y="-858.3" font-family="Times,serif" font-size="14.00" fill="white">librdkafka ✓</text>
</a>
</g>
</g>
<!-- librdkafka&#45;&gt;omniscidb -->
<g id="edge4" class="edge">
<title>librdkafka&#45;&gt;omniscidb</title>
<path fill="none" stroke="black" d="M70.57,-844.05C73.16,-836.18 76.3,-826.62 79.2,-817.79"/>
<polygon fill="black" stroke="black" points="82.53,-818.87 82.32,-808.28 75.88,-816.68 82.53,-818.87"/>
</g>
<!-- lighttpd -->
<g id="node7" class="node">
<title>lighttpd</title>
<g id="a_node7"><a xlink:href="https://github.com/conda-forge/lighttpd-feedstock" xlink:title="lighttpd">
<ellipse fill="#fde725" stroke="black" cx="1186" cy="-862" rx="48.19" ry="18"/>
<text text-anchor="middle" x="1186" y="-858.3" font-family="Times,serif" font-size="14.00">lighttpd</text>
</a>
</g>
</g>
<!-- uwsgi -->
<g id="node17" class="node">
<title>uwsgi</title>
<g id="a_node17"><a xlink:href="https://github.com/conda-forge/uwsgi-feedstock" xlink:title="uwsgi">
<ellipse fill="#ff8c00" stroke="black" cx="1806" cy="-898" rx="38.5" ry="18"/>
<text text-anchor="middle" x="1806" y="-894.3" font-family="Times,serif" font-size="14.00">uwsgi</text>
</a>
</g>
</g>
<!-- mysql&#45;connector&#45;c&#45;&gt;uwsgi -->
<!-- mysql -->
<g id="node9" class="node">
<title>mysql</title>
<g id="a_node9"><a xlink:href="https://github.com/conda-forge/mysql-feedstock/pull/59" xlink:title="mysql ❎">
<ellipse fill="#31688e" stroke="black" cx="1224" cy="-934" rx="52.79" ry="18"/>
<text text-anchor="middle" x="1224" y="-930.3" font-family="Times,serif" font-size="14.00" fill="white">mysql ❎</text>
</a>
</g>
</g>
<!-- mysql&#45;&gt;lighttpd -->
<g id="edge6" class="edge">
<title>mysql&#45;&gt;lighttpd</title>
<path fill="none" stroke="black" d="M1214.8,-916.05C1210.37,-907.89 1204.95,-897.91 1200.02,-888.82"/>
<polygon fill="black" stroke="black" points="1202.96,-886.91 1195.11,-879.79 1196.81,-890.25 1202.96,-886.91"/>
</g>
<!-- qt -->
<g id="node10" class="node">
<title>qt</title>
<g id="a_node10"><a xlink:href="https://github.com/conda-forge/qt-feedstock" xlink:title="qt">
<ellipse fill="#fde725" stroke="black" cx="380" cy="-862" rx="27" ry="18"/>
<text text-anchor="middle" x="380" y="-858.3" font-family="Times,serif" font-size="14.00">qt</text>
</a>
</g>
</g>
<!-- mysql&#45;&gt;qt -->
<g id="edge7" class="edge">
<title>mysql&#45;&gt;qt</title>
<path fill="none" stroke="black" d="M1172.32,-930.5C1053.07,-924.47 749.55,-907.52 497,-880 469.75,-877.03 439.09,-872.53 415.99,-868.91"/>
<polygon fill="black" stroke="black" points="416.38,-865.43 405.96,-867.32 415.28,-872.34 416.38,-865.43"/>
</g>
<!-- mysql&#45;connector&#45;cpp -->
<g id="node11" class="node">
<title>mysql&#45;connector&#45;cpp</title>
<g id="a_node11"><a xlink:href="https://github.com/conda-forge/mysql-connector-cpp-feedstock" xlink:title="mysql connector cpp">
<ellipse fill="#fde725" stroke="black" cx="1262" cy="-790" rx="106.68" ry="18"/>
<text text-anchor="middle" x="1262" y="-786.3" font-family="Times,serif" font-size="14.00">mysql connector cpp</text>
</a>
</g>
</g>
<!-- mysql&#45;&gt;mysql&#45;connector&#45;cpp -->
<g id="edge8" class="edge">
<title>mysql&#45;&gt;mysql&#45;connector&#45;cpp</title>
<path fill="none" stroke="black" d="M1230.75,-916C1234.68,-905.7 1239.52,-892.22 1243,-880 1248.8,-859.61 1253.74,-836.15 1257.13,-818.44"/>
<polygon fill="black" stroke="black" points="1260.64,-818.7 1259.03,-808.23 1253.76,-817.42 1260.64,-818.7"/>
</g>
<!-- qt&#45;main -->
<g id="node12" class="node">
<title>qt&#45;main</title>
<g id="a_node12"><a xlink:href="https://github.com/conda-forge/qt-main-feedstock" xlink:title="qt main">
<ellipse fill="#fde725" stroke="black" cx="1397" cy="-718" rx="46.29" ry="18"/>
<text text-anchor="middle" x="1397" y="-714.3" font-family="Times,serif" font-size="14.00">qt main</text>
</a>
</g>
</g>
<!-- mysql&#45;&gt;qt&#45;main -->
<g id="edge9" class="edge">
<title>mysql&#45;&gt;qt&#45;main</title>
<path fill="none" stroke="black" d="M1251.65,-918.47C1286.8,-898.48 1346.7,-859.09 1378,-808 1389.38,-789.42 1394.02,-765.02 1395.87,-746.47"/>
<polygon fill="black" stroke="black" points="1399.37,-746.56 1396.67,-736.32 1392.39,-746.01 1399.37,-746.56"/>
</g>
<!-- qt&#45;&gt;airflow -->
<g id="edge10" class="edge">
<title>qt&#45;&gt;airflow</title>
<path fill="none" stroke="black" d="M357.25,-851.85C328.79,-840.4 279.6,-820.61 245.07,-806.72"/>
<polygon fill="black" stroke="black" points="246.33,-803.45 235.74,-802.97 243.72,-809.95 246.33,-803.45"/>
</g>
<!-- octave -->
<g id="node13" class="node">
<title>octave</title>
<g id="a_node13"><a xlink:href="https://github.com/conda-forge/octave-feedstock" xlink:title="octave">
<ellipse fill="#fde725" stroke="black" cx="345" cy="-790" rx="41" ry="18"/>
<text text-anchor="middle" x="345" y="-786.3" font-family="Times,serif" font-size="14.00">octave</text>
</a>
</g>
</g>
<!-- qt&#45;&gt;octave -->
<g id="edge11" class="edge">
<title>qt&#45;&gt;octave</title>
<path fill="none" stroke="black" d="M371.88,-844.76C367.7,-836.4 362.51,-826.02 357.8,-816.61"/>
<polygon fill="black" stroke="black" points="360.92,-815.01 353.32,-807.63 354.66,-818.14 360.92,-815.01"/>
</g>
<!-- lalinference -->
<g id="node14" class="node">
<title>lalinference</title>
<g id="a_node14"><a xlink:href="https://github.com/conda-forge/lalinference-feedstock" xlink:title="lalinference">
<ellipse fill="#fde725" stroke="black" cx="630" cy="-574" rx="65.79" ry="18"/>
<text text-anchor="middle" x="630" y="-570.3" font-family="Times,serif" font-size="14.00">lalinference</text>
</a>
</g>
</g>
<!-- qt&#45;&gt;lalinference -->
<g id="edge12" class="edge">
<title>qt&#45;&gt;lalinference</title>
<path fill="none" stroke="black" d="M356.06,-853.46C335.75,-845.65 307.91,-831.27 295,-808 269.6,-762.23 309.74,-741.23 342,-700 368.93,-665.57 371.25,-650.04 409,-628 454.46,-601.46 512.56,-588.19 557.78,-581.57"/>
<polygon fill="black" stroke="black" points="558.38,-585.02 567.8,-580.17 557.42,-578.08 558.38,-585.02"/>
</g>
<!-- ambertools -->
<g id="node15" class="node">
<title>ambertools</title>
<g id="a_node15"><a xlink:href="https://github.com/conda-forge/ambertools-feedstock" xlink:title="ambertools">
<ellipse fill="#fde725" stroke="black" cx="414" cy="-718" rx="63.09" ry="18"/>
<text text-anchor="middle" x="414" y="-714.3" font-family="Times,serif" font-size="14.00">ambertools</text>
</a>
</g>
</g>
<!-- qt&#45;&gt;ambertools -->
<g id="edge13" class="edge">
<title>qt&#45;&gt;ambertools</title>
<path fill="none" stroke="black" d="M385.15,-843.89C388.19,-833.54 392.01,-820.07 395,-808 400.1,-787.43 405.07,-763.97 408.65,-746.31"/>
<polygon fill="black" stroke="black" points="412.16,-746.63 410.69,-736.14 405.29,-745.26 412.16,-746.63"/>
</g>
<!-- gnuradio -->
<g id="node16" class="node">
<title>gnuradio</title>
<g id="a_node16"><a xlink:href="https://github.com/conda-forge/gnuradio-feedstock" xlink:title="gnuradio">
<ellipse fill="#fde725" stroke="black" cx="494" cy="-790" rx="52" ry="18"/>
<text text-anchor="middle" x="494" y="-786.3" font-family="Times,serif" font-size="14.00">gnuradio</text>
</a>
</g>
</g>
<!-- qt&#45;&gt;gnuradio -->
<g id="edge14" class="edge">
<title>qt&#45;&gt;gnuradio</title>
<path fill="none" stroke="black" d="M399.34,-849.13C416.09,-838.84 440.68,-823.74 460.61,-811.5"/>
<polygon fill="black" stroke="black" points="462.7,-814.33 469.39,-806.11 459.03,-808.36 462.7,-814.33"/>
</g>
<!-- w3m -->
<g id="node22" class="node">
<title>w3m</title>
<g id="a_node22"><a xlink:href="https://github.com/conda-forge/w3m-feedstock/pull/11" xlink:title="w3m ❎">
<ellipse fill="#31688e" stroke="black" cx="1806" cy="-826" rx="47.5" ry="18"/>
<text text-anchor="middle" x="1806" y="-822.3" font-family="Times,serif" font-size="14.00" fill="white">w3m ❎</text>
</a>
</g>
</g>
<!-- uwsgi&#45;&gt;w3m -->
<!-- pylibscrypt -->
<g id="node18" class="node">
<title>pylibscrypt</title>
<g id="a_node18"><a xlink:href="https://github.com/conda-forge/pylibscrypt-feedstock" xlink:title="pylibscrypt">
<ellipse fill="#fde725" stroke="black" cx="1570" cy="-18" rx="63.09" ry="18"/>
<text text-anchor="middle" x="1570" y="-14.3" font-family="Times,serif" font-size="14.00">pylibscrypt</text>
</a>
</g>
</g>
<!-- ruby -->
<g id="node19" class="node">
<title>ruby</title>
<g id="a_node19"><a xlink:href="https://github.com/conda-forge/ruby-feedstock/pull/88" xlink:title="ruby ❎">
<ellipse fill="#31688e" stroke="black" cx="721" cy="-90" rx="46.29" ry="18"/>
<text text-anchor="middle" x="721" y="-86.3" font-family="Times,serif" font-size="14.00" fill="white">ruby ❎</text>
</a>
</g>
</g>
<!-- rb&#45;eventmachine -->
<g id="node20" class="node">
<title>rb&#45;eventmachine</title>
<g id="a_node20"><a xlink:href="https://github.com/conda-forge/rb-eventmachine-feedstock" xlink:title="rb eventmachine">
<ellipse fill="#fde725" stroke="black" cx="721" cy="-18" rx="89.08" ry="18"/>
<text text-anchor="middle" x="721" y="-14.3" font-family="Times,serif" font-size="14.00">rb eventmachine</text>
</a>
</g>
</g>
<!-- ruby&#45;&gt;rb&#45;eventmachine -->
<g id="edge16" class="edge">
<title>ruby&#45;&gt;rb&#45;eventmachine</title>
<path fill="none" stroke="black" d="M721,-71.7C721,-63.98 721,-54.71 721,-46.11"/>
<polygon fill="black" stroke="black" points="724.5,-46.1 721,-36.1 717.5,-46.1 724.5,-46.1"/>
</g>
<!-- scrypt -->
<g id="node21" class="node">
<title>scrypt</title>
<g id="a_node21"><a xlink:href="https://github.com/conda-forge/scrypt-feedstock/pull/37" xlink:title="scrypt ❎">
<ellipse fill="#31688e" stroke="black" cx="1570" cy="-90" rx="54" ry="18"/>
<text text-anchor="middle" x="1570" y="-86.3" font-family="Times,serif" font-size="14.00" fill="white">scrypt ❎</text>
</a>
</g>
</g>
<!-- scrypt&#45;&gt;pylibscrypt -->
<g id="edge17" class="edge">
<title>scrypt&#45;&gt;pylibscrypt</title>
<path fill="none" stroke="black" d="M1570,-71.7C1570,-63.98 1570,-54.71 1570,-46.11"/>
<polygon fill="black" stroke="black" points="1573.5,-46.1 1570,-36.1 1566.5,-46.1 1573.5,-46.1"/>
</g>
<!-- postgres&#45;xl -->
<g id="node23" class="node">
<title>postgres&#45;xl</title>
<g id="a_node23"><a xlink:href="https://github.com/conda-forge/postgres-xl-feedstock/pull/8" xlink:title="postgres xl ❎">
<ellipse fill="#31688e" stroke="black" cx="1806" cy="-754" rx="76.89" ry="18"/>
<text text-anchor="middle" x="1806" y="-750.3" font-family="Times,serif" font-size="14.00" fill="white">postgres xl ❎</text>
</a>
</g>
</g>
<!-- w3m&#45;&gt;postgres&#45;xl -->
<!-- sstp&#45;client -->
<g id="node24" class="node">
<title>sstp&#45;client</title>
<g id="a_node24"><a xlink:href="https://github.com/conda-forge/sstp-client-feedstock/pull/7" xlink:title="sstp client ✓">
<ellipse fill="#31688e" stroke="black" cx="1806" cy="-682" rx="66.5" ry="18"/>
<text text-anchor="middle" x="1806" y="-678.3" font-family="Times,serif" font-size="14.00" fill="white">sstp client ✓</text>
</a>
</g>
</g>
<!-- postgres&#45;xl&#45;&gt;sstp&#45;client -->
<!-- pycurl -->
<g id="node33" class="node">
<title>pycurl</title>
<g id="a_node33"><a xlink:href="https://github.com/conda-forge/pycurl-feedstock/pull/19" xlink:title="pycurl ❎">
<ellipse fill="#31688e" stroke="black" cx="1806" cy="-610" rx="54" ry="18"/>
<text text-anchor="middle" x="1806" y="-606.3" font-family="Times,serif" font-size="14.00" fill="white">pycurl ❎</text>
</a>
</g>
</g>
<!-- sstp&#45;client&#45;&gt;pycurl -->
<!-- cryptography -->
<g id="node25" class="node">
<title>cryptography</title>
<g id="a_node25"><a xlink:href="https://github.com/conda-forge/cryptography-feedstock/pull/80" xlink:title="cryptography ❎">
<ellipse fill="#31688e" stroke="black" cx="593" cy="-862" rx="87.18" ry="18"/>
<text text-anchor="middle" x="593" y="-858.3" font-family="Times,serif" font-size="14.00" fill="white">cryptography ❎</text>
</a>
</g>
</g>
<!-- cryptography&#45;&gt;airflow -->
<g id="edge21" class="edge">
<title>cryptography&#45;&gt;airflow</title>
<path fill="none" stroke="black" d="M528.72,-849.81C468.34,-839.24 375.49,-822.84 295,-808 281.56,-805.52 267,-802.77 253.62,-800.21"/>
<polygon fill="black" stroke="black" points="254.14,-796.75 243.66,-798.3 252.82,-803.62 254.14,-796.75"/>
</g>
<!-- cryptography&#45;&gt;omniscidb -->
<g id="edge22" class="edge">
<title>cryptography&#45;&gt;omniscidb</title>
<path fill="none" stroke="black" d="M517.14,-853.01C410.73,-841.59 222.58,-820.61 155,-808 150.04,-807.07 144.9,-805.99 139.78,-804.84"/>
<polygon fill="black" stroke="black" points="140.53,-801.42 129.99,-802.53 138.92,-808.23 140.53,-801.42"/>
</g>
<!-- cryptography&#45;&gt;lalinference -->
<g id="edge23" class="edge">
<title>cryptography&#45;&gt;lalinference</title>
<path fill="none" stroke="black" d="M661.68,-850.89C687.18,-843.44 713.63,-830.49 729,-808 752.47,-773.66 777.29,-735.7 710,-628 701.24,-613.98 687.24,-602.86 673.39,-594.5"/>
<polygon fill="black" stroke="black" points="674.8,-591.28 664.37,-589.41 671.35,-597.37 674.8,-591.28"/>
</g>
<!-- cryptography&#45;&gt;gnuradio -->
<g id="edge24" class="edge">
<title>cryptography&#45;&gt;gnuradio</title>
<path fill="none" stroke="black" d="M569.79,-844.59C556.22,-834.99 538.94,-822.78 524.31,-812.43"/>
<polygon fill="black" stroke="black" points="526.23,-809.5 516.05,-806.59 522.19,-815.22 526.23,-809.5"/>
</g>
<!-- tensorflow -->
<g id="node26" class="node">
<title>tensorflow</title>
<g id="a_node26"><a xlink:href="https://github.com/conda-forge/tensorflow-feedstock" xlink:title="tensorflow">
<ellipse fill="#fde725" stroke="black" cx="836" cy="-790" rx="60" ry="18"/>
<text text-anchor="middle" x="836" y="-786.3" font-family="Times,serif" font-size="14.00">tensorflow</text>
</a>
</g>
</g>
<!-- cryptography&#45;&gt;tensorflow -->
<g id="edge25" class="edge">
<title>cryptography&#45;&gt;tensorflow</title>
<path fill="none" stroke="black" d="M641.59,-847C683.01,-835.07 742.36,-817.97 784.57,-805.82"/>
<polygon fill="black" stroke="black" points="785.73,-809.12 794.37,-802.99 783.79,-802.4 785.73,-809.12"/>
</g>
<!-- lal -->
<g id="node27" class="node">
<title>lal</title>
<g id="a_node27"><a xlink:href="https://github.com/conda-forge/lal-feedstock" xlink:title="lal">
<ellipse fill="#fde725" stroke="black" cx="693" cy="-790" rx="27" ry="18"/>
<text text-anchor="middle" x="693" y="-786.3" font-family="Times,serif" font-size="14.00">lal</text>
</a>
</g>
</g>
<!-- cryptography&#45;&gt;lal -->
<g id="edge26" class="edge">
<title>cryptography&#45;&gt;lal</title>
<path fill="none" stroke="black" d="M616.45,-844.59C631.55,-834.02 651.2,-820.26 666.81,-809.33"/>
<polygon fill="black" stroke="black" points="668.83,-812.19 675.01,-803.59 664.81,-806.46 668.83,-812.19"/>
</g>
<!-- mamba -->
<g id="node28" class="node">
<title>mamba</title>
<g id="a_node28"><a xlink:href="https://github.com/conda-forge/mamba-feedstock" xlink:title="mamba">
<ellipse fill="#fde725" stroke="black" cx="1008" cy="-790" rx="45" ry="18"/>
<text text-anchor="middle" x="1008" y="-786.3" font-family="Times,serif" font-size="14.00">mamba</text>
</a>
</g>
</g>
<!-- cryptography&#45;&gt;mamba -->
<g id="edge27" class="edge">
<title>cryptography&#45;&gt;mamba</title>
<path fill="none" stroke="black" d="M656.5,-849.66C667.34,-847.75 678.49,-845.8 689,-844 714.93,-839.55 873.89,-813.21 957.18,-799.41"/>
<polygon fill="black" stroke="black" points="957.9,-802.84 967.2,-797.75 956.76,-795.94 957.9,-802.84"/>
</g>
<!-- mlflow -->
<g id="node29" class="node">
<title>mlflow</title>
<g id="a_node29"><a xlink:href="https://github.com/conda-forge/mlflow-feedstock" xlink:title="mlflow">
<ellipse fill="#fde725" stroke="black" cx="606" cy="-790" rx="41.69" ry="18"/>
<text text-anchor="middle" x="606" y="-786.3" font-family="Times,serif" font-size="14.00">mlflow</text>
</a>
</g>
</g>
<!-- cryptography&#45;&gt;mlflow -->
<g id="edge28" class="edge">
<title>cryptography&#45;&gt;mlflow</title>
<path fill="none" stroke="black" d="M596.21,-843.7C597.65,-835.98 599.37,-826.71 600.96,-818.11"/>
<polygon fill="black" stroke="black" points="604.44,-818.58 602.82,-808.1 597.56,-817.3 604.44,-818.58"/>
</g>
<!-- lal&#45;&gt;lalinference -->
<g id="edge29" class="edge">
<title>lal&#45;&gt;lalinference</title>
<path fill="none" stroke="black" d="M696.95,-772.03C703.14,-741.55 712.29,-676.22 690,-628 684.39,-615.85 674.51,-605.35 664.37,-596.97"/>
<polygon fill="black" stroke="black" points="666.32,-594.05 656.26,-590.71 662.04,-599.59 666.32,-594.05"/>
</g>
<!-- lalsimulation -->
<g id="node30" class="node">
<title>lalsimulation</title>
<g id="a_node30"><a xlink:href="https://github.com/conda-forge/lalsimulation-feedstock" xlink:title="lalsimulation">
<ellipse fill="#fde725" stroke="black" cx="489" cy="-646" rx="71" ry="18"/>
<text text-anchor="middle" x="489" y="-642.3" font-family="Times,serif" font-size="14.00">lalsimulation</text>
</a>
</g>
</g>
<!-- lal&#45;&gt;lalsimulation -->
<g id="edge30" class="edge">
<title>lal&#45;&gt;lalsimulation</title>
<path fill="none" stroke="black" d="M674.9,-776.4C640.23,-752.27 564.08,-699.26 520.77,-669.11"/>
<polygon fill="black" stroke="black" points="522.52,-666.06 512.31,-663.22 518.52,-671.81 522.52,-666.06"/>
</g>
<!-- lalpulsar -->
<g id="node31" class="node">
<title>lalpulsar</title>
<g id="a_node31"><a xlink:href="https://github.com/conda-forge/lalpulsar-feedstock" xlink:title="lalpulsar">
<ellipse fill="#fde725" stroke="black" cx="630" cy="-646" rx="51.5" ry="18"/>
<text text-anchor="middle" x="630" y="-642.3" font-family="Times,serif" font-size="14.00">lalpulsar</text>
</a>
</g>
</g>
<!-- lal&#45;&gt;lalpulsar -->
<g id="edge31" class="edge">
<title>lal&#45;&gt;lalpulsar</title>
<path fill="none" stroke="black" d="M685.65,-772.43C674.85,-748.09 654.58,-702.4 641.71,-673.4"/>
<polygon fill="black" stroke="black" points="644.75,-671.62 637.5,-663.9 638.35,-674.46 644.75,-671.62"/>
</g>
<!-- lalsimulation&#45;&gt;lalinference -->
<g id="edge33" class="edge">
<title>lalsimulation&#45;&gt;lalinference</title>
<path fill="none" stroke="black" d="M519.94,-629.64C540.66,-619.36 568.1,-605.73 590.41,-594.66"/>
<polygon fill="black" stroke="black" points="592.21,-597.67 599.61,-590.09 589.1,-591.4 592.21,-597.67"/>
</g>
<!-- lalpulsar&#45;&gt;lalinference -->
<g id="edge34" class="edge">
<title>lalpulsar&#45;&gt;lalinference</title>
<path fill="none" stroke="black" d="M630,-627.7C630,-619.98 630,-610.71 630,-602.11"/>
<polygon fill="black" stroke="black" points="633.5,-602.1 630,-592.1 626.5,-602.1 633.5,-602.1"/>
</g>
<!-- aws&#45;sdk&#45;cpp -->
<g id="node32" class="node">
<title>aws&#45;sdk&#45;cpp</title>
<g id="a_node32"><a xlink:href="https://github.com/conda-forge/aws-sdk-cpp-feedstock" xlink:title="aws sdk cpp">
<ellipse fill="#ff8c00" stroke="black" cx="206" cy="-934" rx="67.69" ry="18"/>
<text text-anchor="middle" x="206" y="-930.3" font-family="Times,serif" font-size="14.00">aws sdk cpp</text>
</a>
</g>
</g>
<!-- aws&#45;sdk&#45;cpp&#45;&gt;arrow&#45;cpp -->
<g id="edge32" class="edge">
<title>aws&#45;sdk&#45;cpp&#45;&gt;arrow&#45;cpp</title>
<path fill="none" stroke="black" d="M206,-915.7C206,-907.98 206,-898.71 206,-890.11"/>
<polygon fill="black" stroke="black" points="209.5,-890.1 206,-880.1 202.5,-890.1 209.5,-890.1"/>
</g>
<!-- pyctest -->
<g id="node34" class="node">
<title>pyctest</title>
<g id="a_node34"><a xlink:href="https://github.com/conda-forge/pyctest-feedstock/pull/18" xlink:title="pyctest ✓">
<ellipse fill="#31688e" stroke="black" cx="1806" cy="-538" rx="52" ry="18"/>
<text text-anchor="middle" x="1806" y="-534.3" font-family="Times,serif" font-size="14.00" fill="white">pyctest ✓</text>
</a>
</g>
</g>
<!-- pycurl&#45;&gt;pyctest -->
<!-- entwine -->
<g id="node35" class="node">
<title>entwine</title>
<g id="a_node35"><a xlink:href="https://github.com/conda-forge/entwine-feedstock/pull/28" xlink:title="entwine ❎">
<ellipse fill="#31688e" stroke="black" cx="1806" cy="-466" rx="61.99" ry="18"/>
<text text-anchor="middle" x="1806" y="-462.3" font-family="Times,serif" font-size="14.00" fill="white">entwine ❎</text>
</a>
</g>
</g>
<!-- pyctest&#45;&gt;entwine -->
<!-- fossil -->
<g id="node36" class="node">
<title>fossil</title>
<g id="a_node36"><a xlink:href="https://github.com/conda-forge/fossil-feedstock/pull/14" xlink:title="fossil ❎">
<ellipse fill="#31688e" stroke="black" cx="1806" cy="-394" rx="49.5" ry="18"/>
<text text-anchor="middle" x="1806" y="-390.3" font-family="Times,serif" font-size="14.00" fill="white">fossil ❎</text>
</a>
</g>
</g>
<!-- entwine&#45;&gt;fossil -->
<!-- xrootd -->
<g id="node37" class="node">
<title>xrootd</title>
<g id="a_node37"><a xlink:href="https://github.com/conda-forge/xrootd-feedstock/pull/53" xlink:title="xrootd ❎">
<ellipse fill="#31688e" stroke="black" cx="463" cy="-314" rx="55.49" ry="18"/>
<text text-anchor="middle" x="463" y="-310.3" font-family="Times,serif" font-size="14.00" fill="white">xrootd ❎</text>
</a>
</g>
</g>
<!-- root -->
<g id="node38" class="node">
<title>root</title>
<g id="a_node38"><a xlink:href="https://github.com/conda-forge/root-feedstock" xlink:title="root">
<ellipse fill="#fde725" stroke="black" cx="401" cy="-242" rx="30" ry="18"/>
<text text-anchor="middle" x="401" y="-238.3" font-family="Times,serif" font-size="14.00">root</text>
</a>
</g>
</g>
<!-- xrootd&#45;&gt;root -->
<g id="edge39" class="edge">
<title>xrootd&#45;&gt;root</title>
<path fill="none" stroke="black" d="M448.31,-296.41C440.28,-287.35 430.22,-275.99 421.44,-266.08"/>
<polygon fill="black" stroke="black" points="423.99,-263.68 414.74,-258.51 418.75,-268.32 423.99,-263.68"/>
</g>
<!-- nordugrid&#45;arc -->
<g id="node39" class="node">
<title>nordugrid&#45;arc</title>
<g id="a_node39"><a xlink:href="https://github.com/conda-forge/nordugrid-arc-feedstock" xlink:title="nordugrid arc">
<ellipse fill="#fde725" stroke="black" cx="524" cy="-242" rx="74.99" ry="18"/>
<text text-anchor="middle" x="524" y="-238.3" font-family="Times,serif" font-size="14.00">nordugrid arc</text>
</a>
</g>
</g>
<!-- xrootd&#45;&gt;nordugrid&#45;arc -->
<g id="edge40" class="edge">
<title>xrootd&#45;&gt;nordugrid&#45;arc</title>
<path fill="none" stroke="black" d="M477.46,-296.41C484.94,-287.82 494.23,-277.16 502.54,-267.63"/>
<polygon fill="black" stroke="black" points="505.29,-269.79 509.22,-259.96 500.02,-265.2 505.29,-269.79"/>
</g>
<!-- cds&#45;crtools -->
<g id="node40" class="node">
<title>cds&#45;crtools</title>
<g id="a_node40"><a xlink:href="https://github.com/conda-forge/cds-crtools-feedstock" xlink:title="cds crtools">
<ellipse fill="#fde725" stroke="black" cx="401" cy="-170" rx="61.19" ry="18"/>
<text text-anchor="middle" x="401" y="-166.3" font-family="Times,serif" font-size="14.00">cds crtools</text>
</a>
</g>
</g>
<!-- root&#45;&gt;cds&#45;crtools -->
<g id="edge41" class="edge">
<title>root&#45;&gt;cds&#45;crtools</title>
<path fill="none" stroke="black" d="M401,-223.7C401,-215.98 401,-206.71 401,-198.11"/>
<polygon fill="black" stroke="black" points="404.5,-198.1 401,-188.1 397.5,-198.1 404.5,-198.1"/>
</g>
<!-- virtuoso&#45;opensource -->
<g id="node41" class="node">
<title>virtuoso&#45;opensource</title>
<g id="a_node41"><a xlink:href="https://github.com/conda-forge/virtuoso-opensource-feedstock/pull/5" xlink:title="virtuoso opensource ❎">
<ellipse fill="#31688e" stroke="black" cx="1570" cy="-1114" rx="119" ry="18"/>
<text text-anchor="middle" x="1570" y="-1110.3" font-family="Times,serif" font-size="14.00" fill="white">virtuoso opensource ❎</text>
</a>
</g>
</g>
<!-- pypy3.6 -->
<g id="node42" class="node">
<title>pypy3.6</title>
<g id="a_node42"><a xlink:href="https://github.com/conda-forge/pypy3.6-feedstock/pull/72" xlink:title="pypy3 6 ❎">
<ellipse fill="#31688e" stroke="black" cx="1570" cy="-1042" rx="61.99" ry="18"/>
<text text-anchor="middle" x="1570" y="-1038.3" font-family="Times,serif" font-size="14.00" fill="white">pypy3 6 ❎</text>
</a>
</g>
</g>
<!-- virtuoso&#45;opensource&#45;&gt;pypy3.6 -->
<!-- pygsi -->
<g id="node48" class="node">
<title>pygsi</title>
<g id="a_node48"><a xlink:href="https://github.com/conda-forge/pygsi-feedstock" xlink:title="pygsi">
<ellipse fill="#ff8c00" stroke="black" cx="1570" cy="-970" rx="36" ry="18"/>
<text text-anchor="middle" x="1570" y="-966.3" font-family="Times,serif" font-size="14.00">pygsi</text>
</a>
</g>
</g>
<!-- pypy3.6&#45;&gt;pygsi -->
<!-- voms -->
<g id="node43" class="node">
<title>voms</title>
<g id="a_node43"><a xlink:href="https://github.com/conda-forge/voms-feedstock/pull/8" xlink:title="voms ❎">
<ellipse fill="#31688e" stroke="black" cx="928" cy="-314" rx="49.5" ry="18"/>
<text text-anchor="middle" x="928" y="-310.3" font-family="Times,serif" font-size="14.00" fill="white">voms ❎</text>
</a>
</g>
</g>
<!-- cgsi&#45;gsoap -->
<g id="node44" class="node">
<title>cgsi&#45;gsoap</title>
<g id="a_node44"><a xlink:href="https://github.com/conda-forge/cgsi-gsoap-feedstock" xlink:title="cgsi gsoap">
<ellipse fill="#fde725" stroke="black" cx="798" cy="-242" rx="60" ry="18"/>
<text text-anchor="middle" x="798" y="-238.3" font-family="Times,serif" font-size="14.00">cgsi gsoap</text>
</a>
</g>
</g>
<!-- voms&#45;&gt;cgsi&#45;gsoap -->
<g id="edge43" class="edge">
<title>voms&#45;&gt;cgsi&#45;gsoap</title>
<path fill="none" stroke="black" d="M901.38,-298.67C882.23,-288.35 856.14,-274.31 834.97,-262.91"/>
<polygon fill="black" stroke="black" points="836.4,-259.7 825.93,-258.04 833.08,-265.86 836.4,-259.7"/>
</g>
<!-- htcondor -->
<g id="node45" class="node">
<title>htcondor</title>
<g id="a_node45"><a xlink:href="https://github.com/conda-forge/htcondor-feedstock" xlink:title="htcondor">
<ellipse fill="#fde725" stroke="black" cx="1050" cy="-242" rx="52" ry="18"/>
<text text-anchor="middle" x="1050" y="-238.3" font-family="Times,serif" font-size="14.00">htcondor</text>
</a>
</g>
</g>
<!-- voms&#45;&gt;htcondor -->
<g id="edge44" class="edge">
<title>voms&#45;&gt;htcondor</title>
<path fill="none" stroke="black" d="M953.28,-298.5C971.31,-288.15 995.78,-274.11 1015.6,-262.74"/>
<polygon fill="black" stroke="black" points="1017.4,-265.74 1024.33,-257.73 1013.92,-259.67 1017.4,-265.74"/>
</g>
<!-- myproxy -->
<g id="node46" class="node">
<title>myproxy</title>
<g id="a_node46"><a xlink:href="https://github.com/conda-forge/myproxy-feedstock" xlink:title="myproxy">
<ellipse fill="#fde725" stroke="black" cx="928" cy="-242" rx="51.5" ry="18"/>
<text text-anchor="middle" x="928" y="-238.3" font-family="Times,serif" font-size="14.00">myproxy</text>
</a>
</g>
</g>
<!-- voms&#45;&gt;myproxy -->
<g id="edge45" class="edge">
<title>voms&#45;&gt;myproxy</title>
<path fill="none" stroke="black" d="M928,-295.7C928,-287.98 928,-278.71 928,-270.11"/>
<polygon fill="black" stroke="black" points="931.5,-270.1 928,-260.1 924.5,-270.1 931.5,-270.1"/>
</g>
<!-- srm&#45;ifce -->
<g id="node47" class="node">
<title>srm&#45;ifce</title>
<g id="a_node47"><a xlink:href="https://github.com/conda-forge/srm-ifce-feedstock" xlink:title="srm ifce">
<ellipse fill="#fde725" stroke="black" cx="754" cy="-170" rx="48.19" ry="18"/>
<text text-anchor="middle" x="754" y="-166.3" font-family="Times,serif" font-size="14.00">srm ifce</text>
</a>
</g>
</g>
<!-- cgsi&#45;gsoap&#45;&gt;srm&#45;ifce -->
<g id="edge46" class="edge">
<title>cgsi&#45;gsoap&#45;&gt;srm&#45;ifce</title>
<path fill="none" stroke="black" d="M787.35,-224.05C782.16,-215.8 775.81,-205.7 770.05,-196.54"/>
<polygon fill="black" stroke="black" points="772.84,-194.39 764.55,-187.79 766.91,-198.12 772.84,-194.39"/>
</g>
<!-- git&#45;crypt -->
<g id="node49" class="node">
<title>git&#45;crypt</title>
<g id="a_node49"><a xlink:href="https://github.com/conda-forge/git-crypt-feedstock/pull/2" xlink:title="git crypt ❎">
<ellipse fill="#31688e" stroke="black" cx="1570" cy="-898" rx="65" ry="18"/>
<text text-anchor="middle" x="1570" y="-894.3" font-family="Times,serif" font-size="14.00" fill="white">git crypt ❎</text>
</a>
</g>
</g>
<!-- pygsi&#45;&gt;git&#45;crypt -->
<!-- uftp -->
<g id="node50" class="node">
<title>uftp</title>
<g id="a_node50"><a xlink:href="https://github.com/conda-forge/uftp-feedstock/pull/2" xlink:title="uftp ❎">
<ellipse fill="#31688e" stroke="black" cx="1570" cy="-826" rx="44.39" ry="18"/>
<text text-anchor="middle" x="1570" y="-822.3" font-family="Times,serif" font-size="14.00" fill="white">uftp ❎</text>
</a>
</g>
</g>
<!-- git&#45;crypt&#45;&gt;uftp -->
<!-- nix -->
<g id="node55" class="node">
<title>nix</title>
<g id="a_node55"><a xlink:href="https://github.com/conda-forge/nix-feedstock/pull/19" xlink:title="nix ✓">
<ellipse fill="#31688e" stroke="black" cx="1570" cy="-754" rx="32.5" ry="18"/>
<text text-anchor="middle" x="1570" y="-750.3" font-family="Times,serif" font-size="14.00" fill="white">nix ✓</text>
</a>
</g>
</g>
<!-- uftp&#45;&gt;nix -->
<!-- gct -->
<g id="node51" class="node">
<title>gct</title>
<g id="a_node51"><a xlink:href="https://github.com/conda-forge/gct-feedstock/pull/6" xlink:title="gct ❎">
<ellipse fill="#31688e" stroke="black" cx="710" cy="-314" rx="39.79" ry="18"/>
<text text-anchor="middle" x="710" y="-310.3" font-family="Times,serif" font-size="14.00" fill="white">gct ❎</text>
</a>
</g>
</g>
<!-- gct&#45;&gt;nordugrid&#45;arc -->
<g id="edge50" class="edge">
<title>gct&#45;&gt;nordugrid&#45;arc</title>
<path fill="none" stroke="black" d="M680.53,-301.91C651.41,-290.95 606.37,-274 572.07,-261.09"/>
<polygon fill="black" stroke="black" points="573.29,-257.81 562.7,-257.56 570.83,-264.36 573.29,-257.81"/>
</g>
<!-- gct&#45;&gt;cgsi&#45;gsoap -->
<g id="edge51" class="edge">
<title>gct&#45;&gt;cgsi&#45;gsoap</title>
<path fill="none" stroke="black" d="M729.09,-297.81C740.98,-288.35 756.49,-276.02 769.78,-265.45"/>
<polygon fill="black" stroke="black" points="772.07,-268.1 777.72,-259.13 767.71,-262.62 772.07,-268.1"/>
</g>
<!-- gct&#45;&gt;myproxy -->
<g id="edge52" class="edge">
<title>gct&#45;&gt;myproxy</title>
<path fill="none" stroke="black" d="M741.7,-302.82C778.54,-290.99 839.66,-271.37 881.79,-257.84"/>
<polygon fill="black" stroke="black" points="883.08,-261.1 891.53,-254.71 880.94,-254.43 883.08,-261.1"/>
</g>
<!-- gct&#45;&gt;srm&#45;ifce -->
<g id="edge54" class="edge">
<title>gct&#45;&gt;srm&#45;ifce</title>
<path fill="none" stroke="black" d="M712.44,-295.96C715.31,-277.81 720.76,-248.4 729,-224 732.07,-214.9 736.28,-205.29 740.37,-196.8"/>
<polygon fill="black" stroke="black" points="743.54,-198.28 744.87,-187.77 737.28,-195.16 743.54,-198.28"/>
</g>
<!-- dcap -->
<g id="node52" class="node">
<title>dcap</title>
<g id="a_node52"><a xlink:href="https://github.com/conda-forge/dcap-feedstock" xlink:title="dcap">
<ellipse fill="#fde725" stroke="black" cx="649" cy="-242" rx="32.5" ry="18"/>
<text text-anchor="middle" x="649" y="-238.3" font-family="Times,serif" font-size="14.00">dcap</text>
</a>
</g>
</g>
<!-- gct&#45;&gt;dcap -->
<g id="edge53" class="edge">
<title>gct&#45;&gt;dcap</title>
<path fill="none" stroke="black" d="M696.16,-297.12C688.28,-288.08 678.27,-276.58 669.49,-266.52"/>
<polygon fill="black" stroke="black" points="672,-264.06 662.79,-258.82 666.72,-268.66 672,-264.06"/>
</g>
<!-- libwebsockets -->
<g id="node53" class="node">
<title>libwebsockets</title>
<g id="a_node53"><a xlink:href="https://github.com/conda-forge/libwebsockets-feedstock/pull/32" xlink:title="libwebsockets ❎">
<ellipse fill="#31688e" stroke="black" cx="1806" cy="-278" rx="90.5" ry="18"/>
<text text-anchor="middle" x="1806" y="-274.3" font-family="Times,serif" font-size="14.00" fill="white">libwebsockets ❎</text>
</a>
</g>
</g>
<!-- ttyd -->
<g id="node54" class="node">
<title>ttyd</title>
<g id="a_node54"><a xlink:href="https://github.com/conda-forge/ttyd-feedstock" xlink:title="ttyd">
<ellipse fill="#fde725" stroke="black" cx="1806" cy="-206" rx="30" ry="18"/>
<text text-anchor="middle" x="1806" y="-202.3" font-family="Times,serif" font-size="14.00">ttyd</text>
</a>
</g>
</g>
<!-- libwebsockets&#45;&gt;ttyd -->
<g id="edge55" class="edge">
<title>libwebsockets&#45;&gt;ttyd</title>
<path fill="none" stroke="black" d="M1806,-259.7C1806,-251.98 1806,-242.71 1806,-234.11"/>
<polygon fill="black" stroke="black" points="1809.5,-234.1 1806,-224.1 1802.5,-234.1 1809.5,-234.1"/>
</g>
<!-- cyclonedds -->
<g id="node56" class="node">
<title>cyclonedds</title>
<g id="a_node56"><a xlink:href="https://github.com/conda-forge/cyclonedds-feedstock/pull/2" xlink:title="cyclonedds ❎">
<ellipse fill="#31688e" stroke="black" cx="1570" cy="-682" rx="76.09" ry="18"/>
<text text-anchor="middle" x="1570" y="-678.3" font-family="Times,serif" font-size="14.00" fill="white">cyclonedds ❎</text>
</a>
</g>
</g>
<!-- nix&#45;&gt;cyclonedds -->
<!-- createrepo_c -->
<g id="node57" class="node">
<title>createrepo_c</title>
<g id="a_node57"><a xlink:href="https://github.com/conda-forge/createrepo_c-feedstock" xlink:title="createrepo_c">
<ellipse fill="#ff8c00" stroke="black" cx="1570" cy="-610" rx="70.39" ry="18"/>
<text text-anchor="middle" x="1570" y="-606.3" font-family="Times,serif" font-size="14.00">createrepo_c</text>
</a>
</g>
</g>
<!-- cyclonedds&#45;&gt;createrepo_c -->
<!-- glib&#45;networking -->
<g id="node60" class="node">
<title>glib&#45;networking</title>
<g id="a_node60"><a xlink:href="https://github.com/conda-forge/glib-networking-feedstock" xlink:title="glib networking">
<ellipse fill="#ff8c00" stroke="black" cx="1570" cy="-538" rx="84" ry="18"/>
<text text-anchor="middle" x="1570" y="-534.3" font-family="Times,serif" font-size="14.00">glib networking</text>
</a>
</g>
</g>
<!-- createrepo_c&#45;&gt;glib&#45;networking -->
<!-- serf -->
<g id="node58" class="node">
<title>serf</title>
<g id="a_node58"><a xlink:href="https://github.com/conda-forge/serf-feedstock/pull/2" xlink:title="serf ✓">
<ellipse fill="#31688e" stroke="black" cx="1806" cy="-90" rx="36.5" ry="18"/>
<text text-anchor="middle" x="1806" y="-86.3" font-family="Times,serif" font-size="14.00" fill="white">serf ✓</text>
</a>
</g>
</g>
<!-- subversion -->
<g id="node59" class="node">
<title>subversion</title>
<g id="a_node59"><a xlink:href="https://github.com/conda-forge/subversion-feedstock" xlink:title="subversion">
<ellipse fill="#fde725" stroke="black" cx="1806" cy="-18" rx="61.99" ry="18"/>
<text text-anchor="middle" x="1806" y="-14.3" font-family="Times,serif" font-size="14.00">subversion</text>
</a>
</g>
</g>
<!-- serf&#45;&gt;subversion -->
<g id="edge59" class="edge">
<title>serf&#45;&gt;subversion</title>
<path fill="none" stroke="black" d="M1806,-71.7C1806,-63.98 1806,-54.71 1806,-46.11"/>
<polygon fill="black" stroke="black" points="1809.5,-46.1 1806,-36.1 1802.5,-46.1 1809.5,-46.1"/>
</g>
<!-- pineappl -->
<g id="node61" class="node">
<title>pineappl</title>
<g id="a_node61"><a xlink:href="https://github.com/conda-forge/pineappl-feedstock/pull/8" xlink:title="pineappl ❎">
<ellipse fill="#31688e" stroke="black" cx="1570" cy="-466" rx="65" ry="18"/>
<text text-anchor="middle" x="1570" y="-462.3" font-family="Times,serif" font-size="14.00" fill="white">pineappl ❎</text>
</a>
</g>
</g>
<!-- glib&#45;networking&#45;&gt;pineappl -->
<!-- s2n -->
<g id="node62" class="node">
<title>s2n</title>
<g id="a_node62"><a xlink:href="https://github.com/conda-forge/s2n-feedstock/pull/45" xlink:title="s2n ❎">
<ellipse fill="#31688e" stroke="black" cx="1570" cy="-394" rx="41.69" ry="18"/>
<text text-anchor="middle" x="1570" y="-390.3" font-family="Times,serif" font-size="14.00" fill="white">s2n ❎</text>
</a>
</g>
</g>
<!-- pineappl&#45;&gt;s2n -->
<!-- libmamba -->
<g id="node63" class="node">
<title>libmamba</title>
<g id="a_node63"><a xlink:href="https://github.com/conda-forge/libmamba-feedstock/pull/41" xlink:title="libmamba ✓">
<ellipse fill="#31688e" stroke="black" cx="1056" cy="-862" rx="63.89" ry="18"/>
<text text-anchor="middle" x="1056" y="-858.3" font-family="Times,serif" font-size="14.00" fill="white">libmamba ✓</text>
</a>
</g>
</g>
<!-- libmamba&#45;&gt;mamba -->
<g id="edge63" class="edge">
<title>libmamba&#45;&gt;mamba</title>
<path fill="none" stroke="black" d="M1044.38,-844.05C1038.66,-835.71 1031.65,-825.49 1025.32,-816.25"/>
<polygon fill="black" stroke="black" points="1028.05,-814.06 1019.51,-807.79 1022.28,-818.02 1028.05,-814.06"/>
</g>
<!-- panda3d -->
<g id="node64" class="node">
<title>panda3d</title>
<g id="a_node64"><a xlink:href="https://github.com/conda-forge/panda3d-feedstock/pull/6" xlink:title="panda3d ✓">
<ellipse fill="#31688e" stroke="black" cx="1570" cy="-350" rx="58" ry="18"/>
<text text-anchor="middle" x="1570" y="-346.3" font-family="Times,serif" font-size="14.00" fill="white">panda3d ✓</text>
</a>
</g>
</g>
<!-- libxmlsec1 -->
<g id="node65" class="node">
<title>libxmlsec1</title>
<g id="a_node65"><a xlink:href="https://github.com/conda-forge/libxmlsec1-feedstock/pull/3" xlink:title="libxmlsec1 ❎">
<ellipse fill="#31688e" stroke="black" cx="1570" cy="-278" rx="74.99" ry="18"/>
<text text-anchor="middle" x="1570" y="-274.3" font-family="Times,serif" font-size="14.00" fill="white">libxmlsec1 ❎</text>
</a>
</g>
</g>
<!-- panda3d&#45;&gt;libxmlsec1 -->
<!-- aws&#45;c&#45;s3 -->
<g id="node66" class="node">
<title>aws&#45;c&#45;s3</title>
<g id="a_node66"><a xlink:href="https://github.com/conda-forge/aws-c-s3-feedstock" xlink:title="aws c s3">
<ellipse fill="#ff8c00" stroke="black" cx="1570" cy="-206" rx="50.09" ry="18"/>
<text text-anchor="middle" x="1570" y="-202.3" font-family="Times,serif" font-size="14.00">aws c s3</text>
</a>
</g>
</g>
<!-- libxmlsec1&#45;&gt;aws&#45;c&#45;s3 -->
<!-- oxigraph -->
<g id="node68" class="node">
<title>oxigraph</title>
<g id="a_node68"><a xlink:href="https://github.com/conda-forge/oxigraph-feedstock/pull/6" xlink:title="oxigraph ❎">
<ellipse fill="#31688e" stroke="black" cx="1570" cy="-134" rx="65.79" ry="18"/>
<text text-anchor="middle" x="1570" y="-130.3" font-family="Times,serif" font-size="14.00" fill="white">oxigraph ❎</text>
</a>
</g>
</g>
<!-- aws&#45;c&#45;s3&#45;&gt;oxigraph -->
<!-- tensorboard&#45;data&#45;server -->
<g id="node67" class="node">
<title>tensorboard&#45;data&#45;server</title>
<g id="a_node67"><a xlink:href="https://github.com/conda-forge/tensorboard-data-server-feedstock/pull/9" xlink:title="tensorboard data server ❎">
<ellipse fill="#31688e" stroke="black" cx="836" cy="-862" rx="138" ry="18"/>
<text text-anchor="middle" x="836" y="-858.3" font-family="Times,serif" font-size="14.00" fill="white">tensorboard data server ❎</text>
</a>
</g>
</g>
<!-- tensorboard&#45;data&#45;server&#45;&gt;tensorflow -->
<g id="edge66" class="edge">
<title>tensorboard&#45;data&#45;server&#45;&gt;tensorflow</title>
<path fill="none" stroke="black" d="M836,-843.7C836,-835.98 836,-826.71 836,-818.11"/>
<polygon fill="black" stroke="black" points="839.5,-818.1 836,-808.1 832.5,-818.1 839.5,-818.1"/>
</g>
</g>
</svg>
