<?xml version="1.0" encoding="UTF-8" standalone="no"?>
<!DOCTYPE svg PUBLIC "-//W3C//DTD SVG 1.1//EN"
 "http://www.w3.org/Graphics/SVG/1.1/DTD/svg11.dtd">
<!-- Generated by graphviz version 2.50.0 (20211209.0339)
 -->
<!-- Pages: 1 -->
<svg width="2371pt" height="1140pt"
 viewBox="0.00 0.00 2371.04 1140.00" xmlns="http://www.w3.org/2000/svg" xmlns:xlink="http://www.w3.org/1999/xlink">
<g id="graph0" class="graph" transform="scale(1 1) rotate(0) translate(4 1136)">
<polygon fill="white" stroke="transparent" points="-4,4 -4,-1136 2367.04,-1136 2367.04,4 -4,4"/>
<!-- airflow -->
<g id="node1" class="node">
<title>airflow</title>
<g id="a_node1"><a xlink:href="https://github.com/conda-forge/airflow-feedstock" xlink:title="airflow">
<ellipse fill="#fde725" stroke="black" cx="590" cy="-716" rx="42.49" ry="18"/>
<text text-anchor="middle" x="590" y="-712.3" font-family="Times,serif" font-size="14.00">airflow</text>
</a>
</g>
</g>
<!-- arrow&#45;cpp -->
<g id="node2" class="node">
<title>arrow&#45;cpp</title>
<g id="a_node2"><a xlink:href="https://github.com/conda-forge/arrow-cpp-feedstock" xlink:title="arrow cpp">
<ellipse fill="#fde725" stroke="black" cx="854" cy="-788" rx="58" ry="18"/>
<text text-anchor="middle" x="854" y="-784.3" font-family="Times,serif" font-size="14.00">arrow cpp</text>
</a>
</g>
</g>
<!-- arrow&#45;cpp&#45;&gt;airflow -->
<g id="edge1" class="edge">
<title>arrow&#45;cpp&#45;&gt;airflow</title>
<path fill="none" stroke="black" d="M811.29,-775.68C762.82,-762.82 684.12,-741.96 634.8,-728.88"/>
<polygon fill="black" stroke="black" points="635.61,-725.47 625.05,-726.29 633.82,-732.24 635.61,-725.47"/>
</g>
<!-- omniscidb -->
<g id="node3" class="node">
<title>omniscidb</title>
<g id="a_node3"><a xlink:href="https://github.com/conda-forge/omniscidb-feedstock" xlink:title="omniscidb">
<ellipse fill="#fde725" stroke="black" cx="854" cy="-716" rx="58" ry="18"/>
<text text-anchor="middle" x="854" y="-712.3" font-family="Times,serif" font-size="14.00">omniscidb</text>
</a>
</g>
</g>
<!-- arrow&#45;cpp&#45;&gt;omniscidb -->
<g id="edge2" class="edge">
<title>arrow&#45;cpp&#45;&gt;omniscidb</title>
<path fill="none" stroke="black" d="M854,-769.7C854,-761.98 854,-752.71 854,-744.11"/>
<polygon fill="black" stroke="black" points="857.5,-744.1 854,-734.1 850.5,-744.1 857.5,-744.1"/>
</g>
<!-- erlang -->
<g id="node4" class="node">
<title>erlang</title>
<g id="a_node4"><a xlink:href="https://github.com/conda-forge/erlang-feedstock/pull/105" xlink:title="erlang ❎">
<ellipse fill="#31688e" stroke="black" cx="2058" cy="-1114" rx="54.69" ry="18"/>
<text text-anchor="middle" x="2058" y="-1110.3" font-family="Times,serif" font-size="14.00" fill="white">erlang ❎</text>
</a>
</g>
</g>
<!-- m2crypto -->
<g id="node5" class="node">
<title>m2crypto</title>
<g id="a_node5"><a xlink:href="https://github.com/conda-forge/m2crypto-feedstock/pull/63" xlink:title="m2crypto ❎">
<ellipse fill="#31688e" stroke="black" cx="2058" cy="-1042" rx="69.59" ry="18"/>
<text text-anchor="middle" x="2058" y="-1038.3" font-family="Times,serif" font-size="14.00" fill="white">m2crypto ❎</text>
</a>
</g>
</g>
<!-- erlang&#45;&gt;m2crypto -->
<!-- mysql&#45;connector&#45;c -->
<g id="node7" class="node">
<title>mysql&#45;connector&#45;c</title>
<g id="a_node7"><a xlink:href="https://github.com/conda-forge/mysql-connector-c-feedstock/pull/18" xlink:title="mysql connector c ❎">
<ellipse fill="#31688e" stroke="black" cx="2058" cy="-970" rx="109.38" ry="18"/>
<text text-anchor="middle" x="2058" y="-966.3" font-family="Times,serif" font-size="14.00" fill="white">mysql connector c ❎</text>
</a>
</g>
</g>
<!-- m2crypto&#45;&gt;mysql&#45;connector&#45;c -->
<!-- lighttpd -->
<g id="node6" class="node">
<title>lighttpd</title>
<g id="a_node6"><a xlink:href="https://github.com/conda-forge/lighttpd-feedstock" xlink:title="lighttpd">
<ellipse fill="#fde725" stroke="black" cx="244" cy="-788" rx="48.19" ry="18"/>
<text text-anchor="middle" x="244" y="-784.3" font-family="Times,serif" font-size="14.00">lighttpd</text>
</a>
</g>
</g>
<!-- w3m -->
<g id="node16" class="node">
<title>w3m</title>
<g id="a_node16"><a xlink:href="https://github.com/conda-forge/w3m-feedstock/pull/11" xlink:title="w3m ❎">
<ellipse fill="#31688e" stroke="black" cx="2058" cy="-898" rx="47.5" ry="18"/>
<text text-anchor="middle" x="2058" y="-894.3" font-family="Times,serif" font-size="14.00" fill="white">w3m ❎</text>
</a>
</g>
</g>
<!-- mysql&#45;connector&#45;c&#45;&gt;w3m -->
<!-- mysql -->
<g id="node8" class="node">
<title>mysql</title>
<g id="a_node8"><a xlink:href="https://github.com/conda-forge/mysql-feedstock/pull/59" xlink:title="mysql ❎">
<ellipse fill="#31688e" stroke="black" cx="940" cy="-860" rx="52.79" ry="18"/>
<text text-anchor="middle" x="940" y="-856.3" font-family="Times,serif" font-size="14.00" fill="white">mysql ❎</text>
</a>
</g>
</g>
<!-- mysql&#45;&gt;lighttpd -->
<g id="edge5" class="edge">
<title>mysql&#45;&gt;lighttpd</title>
<path fill="none" stroke="black" d="M902.53,-847.23C894.82,-845.18 886.7,-843.3 879,-842 625.19,-799.22 554.41,-851.07 301,-806 296.83,-805.26 292.52,-804.32 288.24,-803.26"/>
<polygon fill="black" stroke="black" points="288.93,-799.82 278.36,-800.62 287.12,-806.58 288.93,-799.82"/>
</g>
<!-- qt -->
<g id="node9" class="node">
<title>qt</title>
<g id="a_node9"><a xlink:href="https://github.com/conda-forge/qt-feedstock" xlink:title="qt">
<ellipse fill="#fde725" stroke="black" cx="151" cy="-788" rx="27" ry="18"/>
<text text-anchor="middle" x="151" y="-784.3" font-family="Times,serif" font-size="14.00">qt</text>
</a>
</g>
</g>
<!-- mysql&#45;&gt;qt -->
<g id="edge6" class="edge">
<title>mysql&#45;&gt;qt</title>
<path fill="none" stroke="black" d="M902.54,-847.17C894.83,-845.13 886.7,-843.26 879,-842 575.06,-792.36 485.66,-881.17 187,-806 184.82,-805.45 182.62,-804.77 180.43,-803.99"/>
<polygon fill="black" stroke="black" points="181.63,-800.7 171.05,-800.14 178.97,-807.18 181.63,-800.7"/>
</g>
<!-- mysql&#45;connector&#45;cpp -->
<g id="node10" class="node">
<title>mysql&#45;connector&#45;cpp</title>
<g id="a_node10"><a xlink:href="https://github.com/conda-forge/mysql-connector-cpp-feedstock" xlink:title="mysql connector cpp">
<ellipse fill="#fde725" stroke="black" cx="1075" cy="-716" rx="106.68" ry="18"/>
<text text-anchor="middle" x="1075" y="-712.3" font-family="Times,serif" font-size="14.00">mysql connector cpp</text>
</a>
</g>
</g>
<!-- mysql&#45;&gt;mysql&#45;connector&#45;cpp -->
<g id="edge7" class="edge">
<title>mysql&#45;&gt;mysql&#45;connector&#45;cpp</title>
<path fill="none" stroke="black" d="M955.49,-842.71C979.14,-817.83 1024.4,-770.22 1051.93,-741.26"/>
<polygon fill="black" stroke="black" points="1054.5,-743.64 1058.86,-733.98 1049.43,-738.81 1054.5,-743.64"/>
</g>
<!-- qt&#45;main -->
<g id="node11" class="node">
<title>qt&#45;main</title>
<g id="a_node11"><a xlink:href="https://github.com/conda-forge/qt-main-feedstock" xlink:title="qt main">
<ellipse fill="#fde725" stroke="black" cx="940" cy="-644" rx="46.29" ry="18"/>
<text text-anchor="middle" x="940" y="-640.3" font-family="Times,serif" font-size="14.00">qt main</text>
</a>
</g>
</g>
<!-- mysql&#45;&gt;qt&#45;main -->
<g id="edge8" class="edge">
<title>mysql&#45;&gt;qt&#45;main</title>
<path fill="none" stroke="black" d="M940,-841.85C940,-804.83 940,-717.18 940,-672.39"/>
<polygon fill="black" stroke="black" points="943.5,-672.23 940,-662.23 936.5,-672.23 943.5,-672.23"/>
</g>
<!-- qt&#45;&gt;airflow -->
<g id="edge9" class="edge">
<title>qt&#45;&gt;airflow</title>
<path fill="none" stroke="black" d="M171.48,-775.87C176.44,-773.59 181.81,-771.45 187,-770 338.5,-727.82 385.25,-767.06 539,-734 542.43,-733.26 545.96,-732.37 549.48,-731.39"/>
<polygon fill="black" stroke="black" points="550.72,-734.68 559.29,-728.45 548.7,-727.97 550.72,-734.68"/>
</g>
<!-- octave -->
<g id="node12" class="node">
<title>octave</title>
<g id="a_node12"><a xlink:href="https://github.com/conda-forge/octave-feedstock" xlink:title="octave">
<ellipse fill="#fde725" stroke="black" cx="41" cy="-716" rx="41" ry="18"/>
<text text-anchor="middle" x="41" y="-712.3" font-family="Times,serif" font-size="14.00">octave</text>
</a>
</g>
</g>
<!-- qt&#45;&gt;octave -->
<g id="edge10" class="edge">
<title>qt&#45;&gt;octave</title>
<path fill="none" stroke="black" d="M131.84,-774.81C115.29,-764.28 91.08,-748.87 71.81,-736.61"/>
<polygon fill="black" stroke="black" points="73.67,-733.64 63.35,-731.22 69.91,-739.55 73.67,-733.64"/>
</g>
<!-- lalinference -->
<g id="node13" class="node">
<title>lalinference</title>
<g id="a_node13"><a xlink:href="https://github.com/conda-forge/lalinference-feedstock" xlink:title="lalinference">
<ellipse fill="#fde725" stroke="black" cx="204" cy="-716" rx="65.79" ry="18"/>
<text text-anchor="middle" x="204" y="-712.3" font-family="Times,serif" font-size="14.00">lalinference</text>
</a>
</g>
</g>
<!-- qt&#45;&gt;lalinference -->
<g id="edge11" class="edge">
<title>qt&#45;&gt;lalinference</title>
<path fill="none" stroke="black" d="M162.76,-771.46C169.27,-762.87 177.52,-751.97 184.93,-742.19"/>
<polygon fill="black" stroke="black" points="187.91,-744.05 191.16,-733.96 182.33,-739.82 187.91,-744.05"/>
</g>
<!-- ambertools -->
<g id="node14" class="node">
<title>ambertools</title>
<g id="a_node14"><a xlink:href="https://github.com/conda-forge/ambertools-feedstock" xlink:title="ambertools">
<ellipse fill="#fde725" stroke="black" cx="110" cy="-644" rx="63.09" ry="18"/>
<text text-anchor="middle" x="110" y="-640.3" font-family="Times,serif" font-size="14.00">ambertools</text>
</a>
</g>
</g>
<!-- qt&#45;&gt;ambertools -->
<g id="edge12" class="edge">
<title>qt&#45;&gt;ambertools</title>
<path fill="none" stroke="black" d="M143.27,-770.58C138.64,-760.25 132.91,-746.56 129,-734 122.67,-713.67 117.74,-690.07 114.49,-672.29"/>
<polygon fill="black" stroke="black" points="117.91,-671.54 112.73,-662.3 111.02,-672.76 117.91,-671.54"/>
</g>
<!-- gnuradio -->
<g id="node15" class="node">
<title>gnuradio</title>
<g id="a_node15"><a xlink:href="https://github.com/conda-forge/gnuradio-feedstock" xlink:title="gnuradio">
<ellipse fill="#fde725" stroke="black" cx="340" cy="-716" rx="52" ry="18"/>
<text text-anchor="middle" x="340" y="-712.3" font-family="Times,serif" font-size="14.00">gnuradio</text>
</a>
</g>
</g>
<!-- qt&#45;&gt;gnuradio -->
<g id="edge13" class="edge">
<title>qt&#45;&gt;gnuradio</title>
<path fill="none" stroke="black" d="M172.15,-776.55C176.99,-774.29 182.14,-771.98 187,-770 222.11,-755.68 262.71,-741.73 293.25,-731.74"/>
<polygon fill="black" stroke="black" points="294.37,-735.06 302.8,-728.64 292.2,-728.4 294.37,-735.06"/>
</g>
<!-- postgres&#45;xl -->
<g id="node19" class="node">
<title>postgres&#45;xl</title>
<g id="a_node19"><a xlink:href="https://github.com/conda-forge/postgres-xl-feedstock/pull/8" xlink:title="postgres xl ❎">
<ellipse fill="#31688e" stroke="black" cx="2058" cy="-826" rx="76.89" ry="18"/>
<text text-anchor="middle" x="2058" y="-822.3" font-family="Times,serif" font-size="14.00" fill="white">postgres xl ❎</text>
</a>
</g>
</g>
<!-- w3m&#45;&gt;postgres&#45;xl -->
<!-- pylibscrypt -->
<g id="node17" class="node">
<title>pylibscrypt</title>
<g id="a_node17"><a xlink:href="https://github.com/conda-forge/pylibscrypt-feedstock" xlink:title="pylibscrypt">
<ellipse fill="#fde725" stroke="black" cx="2274" cy="-206" rx="63.09" ry="18"/>
<text text-anchor="middle" x="2274" y="-202.3" font-family="Times,serif" font-size="14.00">pylibscrypt</text>
</a>
</g>
</g>
<!-- scrypt -->
<g id="node18" class="node">
<title>scrypt</title>
<g id="a_node18"><a xlink:href="https://github.com/conda-forge/scrypt-feedstock/pull/37" xlink:title="scrypt ❎">
<ellipse fill="#31688e" stroke="black" cx="2274" cy="-278" rx="54" ry="18"/>
<text text-anchor="middle" x="2274" y="-274.3" font-family="Times,serif" font-size="14.00" fill="white">scrypt ❎</text>
</a>
</g>
</g>
<!-- scrypt&#45;&gt;pylibscrypt -->
<g id="edge15" class="edge">
<title>scrypt&#45;&gt;pylibscrypt</title>
<path fill="none" stroke="black" d="M2274,-259.7C2274,-251.98 2274,-242.71 2274,-234.11"/>
<polygon fill="black" stroke="black" points="2277.5,-234.1 2274,-224.1 2270.5,-234.1 2277.5,-234.1"/>
</g>
<!-- sstp&#45;client -->
<g id="node20" class="node">
<title>sstp&#45;client</title>
<g id="a_node20"><a xlink:href="https://github.com/conda-forge/sstp-client-feedstock/pull/7" xlink:title="sstp client ✓">
<ellipse fill="#31688e" stroke="black" cx="2058" cy="-754" rx="66.5" ry="18"/>
<text text-anchor="middle" x="2058" y="-750.3" font-family="Times,serif" font-size="14.00" fill="white">sstp client ✓</text>
</a>
</g>
</g>
<!-- postgres&#45;xl&#45;&gt;sstp&#45;client -->
<!-- pycurl -->
<g id="node28" class="node">
<title>pycurl</title>
<g id="a_node28"><a xlink:href="https://github.com/conda-forge/pycurl-feedstock/pull/19" xlink:title="pycurl ❎">
<ellipse fill="#31688e" stroke="black" cx="2058" cy="-682" rx="54" ry="18"/>
<text text-anchor="middle" x="2058" y="-678.3" font-family="Times,serif" font-size="14.00" fill="white">pycurl ❎</text>
</a>
</g>
</g>
<!-- sstp&#45;client&#45;&gt;pycurl -->
<!-- cryptography -->
<g id="node21" class="node">
<title>cryptography</title>
<g id="a_node21"><a xlink:href="https://github.com/conda-forge/cryptography-feedstock/pull/80" xlink:title="cryptography ❎">
<ellipse fill="#31688e" stroke="black" cx="691" cy="-788" rx="87.18" ry="18"/>
<text text-anchor="middle" x="691" y="-784.3" font-family="Times,serif" font-size="14.00" fill="white">cryptography ❎</text>
</a>
</g>
</g>
<!-- cryptography&#45;&gt;airflow -->
<g id="edge18" class="edge">
<title>cryptography&#45;&gt;airflow</title>
<path fill="none" stroke="black" d="M667.32,-770.59C653.09,-760.72 634.85,-748.09 619.67,-737.56"/>
<polygon fill="black" stroke="black" points="621.34,-734.46 611.13,-731.64 617.35,-740.22 621.34,-734.46"/>
</g>
<!-- cryptography&#45;&gt;omniscidb -->
<g id="edge19" class="edge">
<title>cryptography&#45;&gt;omniscidb</title>
<path fill="none" stroke="black" d="M727.17,-771.46C752.32,-760.67 785.9,-746.25 812.19,-734.95"/>
<polygon fill="black" stroke="black" points="813.71,-738.11 821.52,-730.95 810.95,-731.68 813.71,-738.11"/>
</g>
<!-- cryptography&#45;&gt;lalinference -->
<g id="edge20" class="edge">
<title>cryptography&#45;&gt;lalinference</title>
<path fill="none" stroke="black" d="M628.61,-775.37C617.44,-773.46 605.89,-771.58 595,-770 455.12,-749.67 418.36,-757.66 279,-734 273.27,-733.03 267.31,-731.89 261.38,-730.68"/>
<polygon fill="black" stroke="black" points="261.96,-727.23 251.45,-728.58 260.51,-734.07 261.96,-727.23"/>
</g>
<!-- cryptography&#45;&gt;gnuradio -->
<g id="edge21" class="edge">
<title>cryptography&#45;&gt;gnuradio</title>
<path fill="none" stroke="black" d="M627.14,-775.65C548.51,-761.62 422.67,-738.99 401,-734 396.84,-733.04 392.54,-731.98 388.24,-730.88"/>
<polygon fill="black" stroke="black" points="388.82,-727.41 378.26,-728.24 387.03,-734.18 388.82,-727.41"/>
</g>
<!-- tensorflow -->
<g id="node22" class="node">
<title>tensorflow</title>
<g id="a_node22"><a xlink:href="https://github.com/conda-forge/tensorflow-feedstock" xlink:title="tensorflow">
<ellipse fill="#fde725" stroke="black" cx="470" cy="-716" rx="60" ry="18"/>
<text text-anchor="middle" x="470" y="-712.3" font-family="Times,serif" font-size="14.00">tensorflow</text>
</a>
</g>
</g>
<!-- cryptography&#45;&gt;tensorflow -->
<g id="edge22" class="edge">
<title>cryptography&#45;&gt;tensorflow</title>
<path fill="none" stroke="black" d="M645.48,-772.58C608.82,-760.97 557.38,-744.68 519.66,-732.73"/>
<polygon fill="black" stroke="black" points="520.49,-729.32 509.9,-729.64 518.38,-736 520.49,-729.32"/>
</g>
<!-- root -->
<g id="node23" class="node">
<title>root</title>
<g id="a_node23"><a xlink:href="https://github.com/conda-forge/root-feedstock" xlink:title="root">
<ellipse fill="#fde725" stroke="black" cx="1230" cy="-716" rx="30" ry="18"/>
<text text-anchor="middle" x="1230" y="-712.3" font-family="Times,serif" font-size="14.00">root</text>
</a>
</g>
</g>
<!-- cryptography&#45;&gt;root -->
<g id="edge23" class="edge">
<title>cryptography&#45;&gt;root</title>
<path fill="none" stroke="black" d="M752.85,-775.24C764.18,-773.31 775.93,-771.47 787,-770 965.7,-746.26 1016.34,-778.59 1191,-734 1193.44,-733.38 1195.93,-732.62 1198.4,-731.77"/>
<polygon fill="black" stroke="black" points="1199.68,-735.03 1207.75,-728.16 1197.16,-728.49 1199.68,-735.03"/>
</g>
<!-- mamba -->
<g id="node24" class="node">
<title>mamba</title>
<g id="a_node24"><a xlink:href="https://github.com/conda-forge/mamba-feedstock" xlink:title="mamba">
<ellipse fill="#fde725" stroke="black" cx="733" cy="-716" rx="45" ry="18"/>
<text text-anchor="middle" x="733" y="-712.3" font-family="Times,serif" font-size="14.00">mamba</text>
</a>
</g>
</g>
<!-- cryptography&#45;&gt;mamba -->
<g id="edge24" class="edge">
<title>cryptography&#45;&gt;mamba</title>
<path fill="none" stroke="black" d="M701.17,-770.05C706.12,-761.8 712.18,-751.7 717.68,-742.54"/>
<polygon fill="black" stroke="black" points="720.78,-744.16 722.93,-733.79 714.78,-740.56 720.78,-744.16"/>
</g>
<!-- mlflow -->
<g id="node25" class="node">
<title>mlflow</title>
<g id="a_node25"><a xlink:href="https://github.com/conda-forge/mlflow-feedstock" xlink:title="mlflow">
<ellipse fill="#fde725" stroke="black" cx="660" cy="-644" rx="41.69" ry="18"/>
<text text-anchor="middle" x="660" y="-640.3" font-family="Times,serif" font-size="14.00">mlflow</text>
</a>
</g>
</g>
<!-- cryptography&#45;&gt;mlflow -->
<g id="edge25" class="edge">
<title>cryptography&#45;&gt;mlflow</title>
<path fill="none" stroke="black" d="M687.06,-769.83C684.69,-759.46 681.63,-745.98 679,-734 674.45,-713.3 669.45,-689.85 665.72,-672.22"/>
<polygon fill="black" stroke="black" points="669.07,-671.14 663.58,-662.08 662.22,-672.58 669.07,-671.14"/>
</g>
<!-- cds&#45;crtools -->
<g id="node26" class="node">
<title>cds&#45;crtools</title>
<g id="a_node26"><a xlink:href="https://github.com/conda-forge/cds-crtools-feedstock" xlink:title="cds crtools">
<ellipse fill="#fde725" stroke="black" cx="1230" cy="-644" rx="61.19" ry="18"/>
<text text-anchor="middle" x="1230" y="-640.3" font-family="Times,serif" font-size="14.00">cds crtools</text>
</a>
</g>
</g>
<!-- root&#45;&gt;cds&#45;crtools -->
<g id="edge26" class="edge">
<title>root&#45;&gt;cds&#45;crtools</title>
<path fill="none" stroke="black" d="M1230,-697.7C1230,-689.98 1230,-680.71 1230,-672.11"/>
<polygon fill="black" stroke="black" points="1233.5,-672.1 1230,-662.1 1226.5,-672.1 1233.5,-672.1"/>
</g>
<!-- aws&#45;sdk&#45;cpp -->
<g id="node27" class="node">
<title>aws&#45;sdk&#45;cpp</title>
<g id="a_node27"><a xlink:href="https://github.com/conda-forge/aws-sdk-cpp-feedstock" xlink:title="aws sdk cpp">
<ellipse fill="#ff8c00" stroke="black" cx="802" cy="-860" rx="67.69" ry="18"/>
<text text-anchor="middle" x="802" y="-856.3" font-family="Times,serif" font-size="14.00">aws sdk cpp</text>
</a>
</g>
</g>
<!-- aws&#45;sdk&#45;cpp&#45;&gt;arrow&#45;cpp -->
<g id="edge27" class="edge">
<title>aws&#45;sdk&#45;cpp&#45;&gt;arrow&#45;cpp</title>
<path fill="none" stroke="black" d="M814.59,-842.05C820.85,-833.63 828.54,-823.28 835.45,-813.97"/>
<polygon fill="black" stroke="black" points="838.37,-815.9 841.53,-805.79 832.76,-811.73 838.37,-815.9"/>
</g>
<!-- pyctest -->
<g id="node29" class="node">
<title>pyctest</title>
<g id="a_node29"><a xlink:href="https://github.com/conda-forge/pyctest-feedstock/pull/18" xlink:title="pyctest ✓">
<ellipse fill="#31688e" stroke="black" cx="2058" cy="-610" rx="52" ry="18"/>
<text text-anchor="middle" x="2058" y="-606.3" font-family="Times,serif" font-size="14.00" fill="white">pyctest ✓</text>
</a>
</g>
</g>
<!-- pycurl&#45;&gt;pyctest -->
<!-- fossil -->
<g id="node30" class="node">
<title>fossil</title>
<g id="a_node30"><a xlink:href="https://github.com/conda-forge/fossil-feedstock/pull/14" xlink:title="fossil ❎">
<ellipse fill="#31688e" stroke="black" cx="2058" cy="-538" rx="49.5" ry="18"/>
<text text-anchor="middle" x="2058" y="-534.3" font-family="Times,serif" font-size="14.00" fill="white">fossil ❎</text>
</a>
</g>
</g>
<!-- pyctest&#45;&gt;fossil -->
<!-- virtuoso&#45;opensource -->
<g id="node33" class="node">
<title>virtuoso&#45;opensource</title>
<g id="a_node33"><a xlink:href="https://github.com/conda-forge/virtuoso-opensource-feedstock/pull/5" xlink:title="virtuoso opensource ❎">
<ellipse fill="#31688e" stroke="black" cx="2058" cy="-466" rx="119" ry="18"/>
<text text-anchor="middle" x="2058" y="-462.3" font-family="Times,serif" font-size="14.00" fill="white">virtuoso opensource ❎</text>
</a>
</g>
</g>
<!-- fossil&#45;&gt;virtuoso&#45;opensource -->
<!-- xrootd -->
<g id="node31" class="node">
<title>xrootd</title>
<g id="a_node31"><a xlink:href="https://github.com/conda-forge/xrootd-feedstock" xlink:title="xrootd">
<ellipse fill="#ff8c00" stroke="black" cx="1291" cy="-788" rx="41" ry="18"/>
<text text-anchor="middle" x="1291" y="-784.3" font-family="Times,serif" font-size="14.00">xrootd</text>
</a>
</g>
</g>
<!-- xrootd&#45;&gt;root -->
<g id="edge31" class="edge">
<title>xrootd&#45;&gt;root</title>
<path fill="none" stroke="black" d="M1276.85,-770.76C1268.85,-761.59 1258.73,-749.96 1249.93,-739.88"/>
<polygon fill="black" stroke="black" points="1252.44,-737.43 1243.24,-732.19 1247.17,-742.03 1252.44,-737.43"/>
</g>
<!-- nordugrid&#45;arc -->
<g id="node32" class="node">
<title>nordugrid&#45;arc</title>
<g id="a_node32"><a xlink:href="https://github.com/conda-forge/nordugrid-arc-feedstock" xlink:title="nordugrid arc">
<ellipse fill="#fde725" stroke="black" cx="1353" cy="-716" rx="74.99" ry="18"/>
<text text-anchor="middle" x="1353" y="-712.3" font-family="Times,serif" font-size="14.00">nordugrid arc</text>
</a>
</g>
</g>
<!-- xrootd&#45;&gt;nordugrid&#45;arc -->
<g id="edge32" class="edge">
<title>xrootd&#45;&gt;nordugrid&#45;arc</title>
<path fill="none" stroke="black" d="M1305.38,-770.76C1312.98,-762.18 1322.48,-751.46 1330.98,-741.86"/>
<polygon fill="black" stroke="black" points="1333.82,-743.93 1337.83,-734.12 1328.58,-739.29 1333.82,-743.93"/>
</g>
<!-- pypy3.6 -->
<g id="node34" class="node">
<title>pypy3.6</title>
<g id="a_node34"><a xlink:href="https://github.com/conda-forge/pypy3.6-feedstock/pull/72" xlink:title="pypy3 6 ❎">
<ellipse fill="#31688e" stroke="black" cx="2058" cy="-394" rx="61.99" ry="18"/>
<text text-anchor="middle" x="2058" y="-390.3" font-family="Times,serif" font-size="14.00" fill="white">pypy3 6 ❎</text>
</a>
</g>
</g>
<!-- virtuoso&#45;opensource&#45;&gt;pypy3.6 -->
<!-- voms -->
<g id="node35" class="node">
<title>voms</title>
<g id="a_node35"><a xlink:href="https://github.com/conda-forge/voms-feedstock/pull/8" xlink:title="voms ❎">
<ellipse fill="#31688e" stroke="black" cx="1749" cy="-788" rx="49.5" ry="18"/>
<text text-anchor="middle" x="1749" y="-784.3" font-family="Times,serif" font-size="14.00" fill="white">voms ❎</text>
</a>
</g>
</g>
<!-- cgsi&#45;gsoap -->
<g id="node36" class="node">
<title>cgsi&#45;gsoap</title>
<g id="a_node36"><a xlink:href="https://github.com/conda-forge/cgsi-gsoap-feedstock" xlink:title="cgsi gsoap">
<ellipse fill="#fde725" stroke="black" cx="1749" cy="-716" rx="60" ry="18"/>
<text text-anchor="middle" x="1749" y="-712.3" font-family="Times,serif" font-size="14.00">cgsi gsoap</text>
</a>
</g>
</g>
<!-- voms&#45;&gt;cgsi&#45;gsoap -->
<g id="edge35" class="edge">
<title>voms&#45;&gt;cgsi&#45;gsoap</title>
<path fill="none" stroke="black" d="M1749,-769.7C1749,-761.98 1749,-752.71 1749,-744.11"/>
<polygon fill="black" stroke="black" points="1752.5,-744.1 1749,-734.1 1745.5,-744.1 1752.5,-744.1"/>
</g>
<!-- htcondor -->
<g id="node37" class="node">
<title>htcondor</title>
<g id="a_node37"><a xlink:href="https://github.com/conda-forge/htcondor-feedstock" xlink:title="htcondor">
<ellipse fill="#fde725" stroke="black" cx="1879" cy="-716" rx="52" ry="18"/>
<text text-anchor="middle" x="1879" y="-712.3" font-family="Times,serif" font-size="14.00">htcondor</text>
</a>
</g>
</g>
<!-- voms&#45;&gt;htcondor -->
<g id="edge36" class="edge">
<title>voms&#45;&gt;htcondor</title>
<path fill="none" stroke="black" d="M1775.62,-772.67C1795.03,-762.21 1821.56,-747.93 1842.88,-736.45"/>
<polygon fill="black" stroke="black" points="1844.82,-739.38 1851.97,-731.56 1841.5,-733.22 1844.82,-739.38"/>
</g>
<!-- myproxy -->
<g id="node38" class="node">
<title>myproxy</title>
<g id="a_node38"><a xlink:href="https://github.com/conda-forge/myproxy-feedstock" xlink:title="myproxy">
<ellipse fill="#fde725" stroke="black" cx="1619" cy="-716" rx="51.5" ry="18"/>
<text text-anchor="middle" x="1619" y="-712.3" font-family="Times,serif" font-size="14.00">myproxy</text>
</a>
</g>
</g>
<!-- voms&#45;&gt;myproxy -->
<g id="edge37" class="edge">
<title>voms&#45;&gt;myproxy</title>
<path fill="none" stroke="black" d="M1722.38,-772.67C1702.97,-762.21 1676.44,-747.93 1655.12,-736.45"/>
<polygon fill="black" stroke="black" points="1656.5,-733.22 1646.03,-731.56 1653.18,-739.38 1656.5,-733.22"/>
</g>
<!-- srm&#45;ifce -->
<g id="node39" class="node">
<title>srm&#45;ifce</title>
<g id="a_node39"><a xlink:href="https://github.com/conda-forge/srm-ifce-feedstock" xlink:title="srm ifce">
<ellipse fill="#fde725" stroke="black" cx="1602" cy="-644" rx="48.19" ry="18"/>
<text text-anchor="middle" x="1602" y="-640.3" font-family="Times,serif" font-size="14.00">srm ifce</text>
</a>
</g>
</g>
<!-- cgsi&#45;gsoap&#45;&gt;srm&#45;ifce -->
<g id="edge38" class="edge">
<title>cgsi&#45;gsoap&#45;&gt;srm&#45;ifce</title>
<path fill="none" stroke="black" d="M1718.18,-700.33C1695.44,-689.5 1664.35,-674.69 1640.06,-663.12"/>
<polygon fill="black" stroke="black" points="1641.31,-659.84 1630.78,-658.7 1638.3,-666.16 1641.31,-659.84"/>
</g>
<!-- pygsi -->
<g id="node40" class="node">
<title>pygsi</title>
<g id="a_node40"><a xlink:href="https://github.com/conda-forge/pygsi-feedstock" xlink:title="pygsi">
<ellipse fill="#ff8c00" stroke="black" cx="2274" cy="-1114" rx="36" ry="18"/>
<text text-anchor="middle" x="2274" y="-1110.3" font-family="Times,serif" font-size="14.00">pygsi</text>
</a>
</g>
</g>
<!-- git&#45;crypt -->
<g id="node41" class="node">
<title>git&#45;crypt</title>
<g id="a_node41"><a xlink:href="https://github.com/conda-forge/git-crypt-feedstock/pull/2" xlink:title="git crypt ❎">
<ellipse fill="#31688e" stroke="black" cx="2274" cy="-1042" rx="65" ry="18"/>
<text text-anchor="middle" x="2274" y="-1038.3" font-family="Times,serif" font-size="14.00" fill="white">git crypt ❎</text>
</a>
</g>
</g>
<!-- pygsi&#45;&gt;git&#45;crypt -->
<!-- rb&#45;eventmachine -->
<g id="node42" class="node">
<title>rb&#45;eventmachine</title>
<g id="a_node42"><a xlink:href="https://github.com/conda-forge/rb-eventmachine-feedstock" xlink:title="rb eventmachine">
<ellipse fill="#ff8c00" stroke="black" cx="2274" cy="-970" rx="89.08" ry="18"/>
<text text-anchor="middle" x="2274" y="-966.3" font-family="Times,serif" font-size="14.00">rb eventmachine</text>
</a>
</g>
</g>
<!-- git&#45;crypt&#45;&gt;rb&#45;eventmachine -->
<!-- uftp -->
<g id="node47" class="node">
<title>uftp</title>
<g id="a_node47"><a xlink:href="https://github.com/conda-forge/uftp-feedstock/pull/2" xlink:title="uftp ❎">
<ellipse fill="#31688e" stroke="black" cx="2274" cy="-898" rx="44.39" ry="18"/>
<text text-anchor="middle" x="2274" y="-894.3" font-family="Times,serif" font-size="14.00" fill="white">uftp ❎</text>
</a>
</g>
</g>
<!-- rb&#45;eventmachine&#45;&gt;uftp -->
<!-- gct -->
<g id="node43" class="node">
<title>gct</title>
<g id="a_node43"><a xlink:href="https://github.com/conda-forge/gct-feedstock/pull/6" xlink:title="gct ❎">
<ellipse fill="#31688e" stroke="black" cx="1517" cy="-788" rx="39.79" ry="18"/>
<text text-anchor="middle" x="1517" y="-784.3" font-family="Times,serif" font-size="14.00" fill="white">gct ❎</text>
</a>
</g>
</g>
<!-- gct&#45;&gt;nordugrid&#45;arc -->
<g id="edge41" class="edge">
<title>gct&#45;&gt;nordugrid&#45;arc</title>
<path fill="none" stroke="black" d="M1489.18,-775.13C1464.14,-764.44 1426.89,-748.54 1397.68,-736.07"/>
<polygon fill="black" stroke="black" points="1398.68,-732.69 1388.11,-731.99 1395.93,-739.13 1398.68,-732.69"/>
</g>
<!-- gct&#45;&gt;cgsi&#45;gsoap -->
<g id="edge42" class="edge">
<title>gct&#45;&gt;cgsi&#45;gsoap</title>
<path fill="none" stroke="black" d="M1549.26,-777.27C1587.89,-765.61 1653.04,-745.95 1698.39,-732.27"/>
<polygon fill="black" stroke="black" points="1699.47,-735.6 1708.03,-729.36 1697.45,-728.9 1699.47,-735.6"/>
</g>
<!-- gct&#45;&gt;myproxy -->
<g id="edge43" class="edge">
<title>gct&#45;&gt;myproxy</title>
<path fill="none" stroke="black" d="M1538.13,-772.5C1552.51,-762.63 1571.78,-749.41 1587.9,-738.35"/>
<polygon fill="black" stroke="black" points="1590.21,-741 1596.48,-732.46 1586.25,-735.23 1590.21,-741"/>
</g>
<!-- gct&#45;&gt;srm&#45;ifce -->
<g id="edge45" class="edge">
<title>gct&#45;&gt;srm&#45;ifce</title>
<path fill="none" stroke="black" d="M1500.5,-771.45C1483.06,-753.06 1460.09,-721.95 1476,-698 1492.01,-673.9 1521.35,-660.73 1547.69,-653.55"/>
<polygon fill="black" stroke="black" points="1548.75,-656.9 1557.61,-651.08 1547.06,-650.1 1548.75,-656.9"/>
</g>
<!-- dcap -->
<g id="node44" class="node">
<title>dcap</title>
<g id="a_node44"><a xlink:href="https://github.com/conda-forge/dcap-feedstock" xlink:title="dcap">
<ellipse fill="#fde725" stroke="black" cx="1517" cy="-716" rx="32.5" ry="18"/>
<text text-anchor="middle" x="1517" y="-712.3" font-family="Times,serif" font-size="14.00">dcap</text>
</a>
</g>
</g>
<!-- gct&#45;&gt;dcap -->
<g id="edge44" class="edge">
<title>gct&#45;&gt;dcap</title>
<path fill="none" stroke="black" d="M1517,-769.7C1517,-761.98 1517,-752.71 1517,-744.11"/>
<polygon fill="black" stroke="black" points="1520.5,-744.1 1517,-734.1 1513.5,-744.1 1520.5,-744.1"/>
</g>
<!-- libwebsockets -->
<g id="node45" class="node">
<title>libwebsockets</title>
<g id="a_node45"><a xlink:href="https://github.com/conda-forge/libwebsockets-feedstock/pull/32" xlink:title="libwebsockets ❎">
<ellipse fill="#31688e" stroke="black" cx="2058" cy="-278" rx="90.5" ry="18"/>
<text text-anchor="middle" x="2058" y="-274.3" font-family="Times,serif" font-size="14.00" fill="white">libwebsockets ❎</text>
</a>
</g>
</g>
<!-- ttyd -->
<g id="node46" class="node">
<title>ttyd</title>
<g id="a_node46"><a xlink:href="https://github.com/conda-forge/ttyd-feedstock" xlink:title="ttyd">
<ellipse fill="#fde725" stroke="black" cx="2058" cy="-206" rx="30" ry="18"/>
<text text-anchor="middle" x="2058" y="-202.3" font-family="Times,serif" font-size="14.00">ttyd</text>
</a>
</g>
</g>
<!-- libwebsockets&#45;&gt;ttyd -->
<g id="edge46" class="edge">
<title>libwebsockets&#45;&gt;ttyd</title>
<path fill="none" stroke="black" d="M2058,-259.7C2058,-251.98 2058,-242.71 2058,-234.11"/>
<polygon fill="black" stroke="black" points="2061.5,-234.1 2058,-224.1 2054.5,-234.1 2061.5,-234.1"/>
</g>
<!-- nix -->
<g id="node48" class="node">
<title>nix</title>
<g id="a_node48"><a xlink:href="https://github.com/conda-forge/nix-feedstock/pull/19" xlink:title="nix ✓">
<ellipse fill="#31688e" stroke="black" cx="2274" cy="-826" rx="32.5" ry="18"/>
<text text-anchor="middle" x="2274" y="-822.3" font-family="Times,serif" font-size="14.00" fill="white">nix ✓</text>
</a>
</g>
</g>
<!-- uftp&#45;&gt;nix -->
<!-- cyclonedds -->
<g id="node49" class="node">
<title>cyclonedds</title>
<g id="a_node49"><a xlink:href="https://github.com/conda-forge/cyclonedds-feedstock/pull/2" xlink:title="cyclonedds ❎">
<ellipse fill="#31688e" stroke="black" cx="2274" cy="-754" rx="76.09" ry="18"/>
<text text-anchor="middle" x="2274" y="-750.3" font-family="Times,serif" font-size="14.00" fill="white">cyclonedds ❎</text>
</a>
</g>
</g>
<!-- nix&#45;&gt;cyclonedds -->
<!-- createrepo_c -->
<g id="node50" class="node">
<title>createrepo_c</title>
<g id="a_node50"><a xlink:href="https://github.com/conda-forge/createrepo_c-feedstock" xlink:title="createrepo_c">
<ellipse fill="#ff8c00" stroke="black" cx="2274" cy="-682" rx="70.39" ry="18"/>
<text text-anchor="middle" x="2274" y="-678.3" font-family="Times,serif" font-size="14.00">createrepo_c</text>
</a>
</g>
</g>
<!-- cyclonedds&#45;&gt;createrepo_c -->
<!-- glib&#45;networking -->
<g id="node53" class="node">
<title>glib&#45;networking</title>
<g id="a_node53"><a xlink:href="https://github.com/conda-forge/glib-networking-feedstock" xlink:title="glib networking">
<ellipse fill="#ff8c00" stroke="black" cx="2274" cy="-610" rx="84" ry="18"/>
<text text-anchor="middle" x="2274" y="-606.3" font-family="Times,serif" font-size="14.00">glib networking</text>
</a>
</g>
</g>
<!-- createrepo_c&#45;&gt;glib&#45;networking -->
<!-- serf -->
<g id="node51" class="node">
<title>serf</title>
<g id="a_node51"><a xlink:href="https://github.com/conda-forge/serf-feedstock/pull/2" xlink:title="serf ✓">
<ellipse fill="#31688e" stroke="black" cx="965" cy="-90" rx="36.5" ry="18"/>
<text text-anchor="middle" x="965" y="-86.3" font-family="Times,serif" font-size="14.00" fill="white">serf ✓</text>
</a>
</g>
</g>
<!-- subversion -->
<g id="node52" class="node">
<title>subversion</title>
<g id="a_node52"><a xlink:href="https://github.com/conda-forge/subversion-feedstock" xlink:title="subversion">
<ellipse fill="#fde725" stroke="black" cx="965" cy="-18" rx="61.99" ry="18"/>
<text text-anchor="middle" x="965" y="-14.3" font-family="Times,serif" font-size="14.00">subversion</text>
</a>
</g>
</g>
<!-- serf&#45;&gt;subversion -->
<g id="edge51" class="edge">
<title>serf&#45;&gt;subversion</title>
<path fill="none" stroke="black" d="M965,-71.7C965,-63.98 965,-54.71 965,-46.11"/>
<polygon fill="black" stroke="black" points="968.5,-46.1 965,-36.1 961.5,-46.1 968.5,-46.1"/>
</g>
<!-- pineappl -->
<g id="node54" class="node">
<title>pineappl</title>
<g id="a_node54"><a xlink:href="https://github.com/conda-forge/pineappl-feedstock/pull/8" xlink:title="pineappl ❎">
<ellipse fill="#31688e" stroke="black" cx="2274" cy="-538" rx="65" ry="18"/>
<text text-anchor="middle" x="2274" y="-534.3" font-family="Times,serif" font-size="14.00" fill="white">pineappl ❎</text>
</a>
</g>
</g>
<!-- glib&#45;networking&#45;&gt;pineappl -->
<!-- s2n -->
<g id="node55" class="node">
<title>s2n</title>
<g id="a_node55"><a xlink:href="https://github.com/conda-forge/s2n-feedstock/pull/50" xlink:title="s2n ❎">
<ellipse fill="#31688e" stroke="black" cx="2274" cy="-466" rx="41.69" ry="18"/>
<text text-anchor="middle" x="2274" y="-462.3" font-family="Times,serif" font-size="14.00" fill="white">s2n ❎</text>
</a>
</g>
</g>
<!-- pineappl&#45;&gt;s2n -->
<!-- panda3d -->
<g id="node56" class="node">
<title>panda3d</title>
<g id="a_node56"><a xlink:href="https://github.com/conda-forge/panda3d-feedstock/pull/6" xlink:title="panda3d ✓">
<ellipse fill="#31688e" stroke="black" cx="2274" cy="-394" rx="58" ry="18"/>
<text text-anchor="middle" x="2274" y="-390.3" font-family="Times,serif" font-size="14.00" fill="white">panda3d ✓</text>
</a>
</g>
</g>
<!-- s2n&#45;&gt;panda3d -->
<!-- libxmlsec1 -->
<g id="node57" class="node">
<title>libxmlsec1</title>
<g id="a_node57"><a xlink:href="https://github.com/conda-forge/libxmlsec1-feedstock/pull/3" xlink:title="libxmlsec1 ❎">
<ellipse fill="#31688e" stroke="black" cx="965" cy="-350" rx="74.99" ry="18"/>
<text text-anchor="middle" x="965" y="-346.3" font-family="Times,serif" font-size="14.00" fill="white">libxmlsec1 ❎</text>
</a>
</g>
</g>
<!-- go&#45;ipfs -->
<g id="node58" class="node">
<title>go&#45;ipfs</title>
<g id="a_node58"><a xlink:href="https://github.com/conda-forge/go-ipfs-feedstock/pull/10" xlink:title="go ipfs ❎">
<ellipse fill="#31688e" stroke="black" cx="965" cy="-278" rx="56" ry="18"/>
<text text-anchor="middle" x="965" y="-274.3" font-family="Times,serif" font-size="14.00" fill="white">go ipfs ❎</text>
</a>
</g>
</g>
<!-- libxmlsec1&#45;&gt;go&#45;ipfs -->
<!-- aws&#45;c&#45;s3 -->
<g id="node59" class="node">
<title>aws&#45;c&#45;s3</title>
<g id="a_node59"><a xlink:href="https://github.com/conda-forge/aws-c-s3-feedstock" xlink:title="aws c s3">
<ellipse fill="#ff8c00" stroke="black" cx="965" cy="-206" rx="50.09" ry="18"/>
<text text-anchor="middle" x="965" y="-202.3" font-family="Times,serif" font-size="14.00">aws c s3</text>
</a>
</g>
</g>
<!-- go&#45;ipfs&#45;&gt;aws&#45;c&#45;s3 -->
<!-- oxigraph -->
<g id="node61" class="node">
<title>oxigraph</title>
<g id="a_node61"><a xlink:href="https://github.com/conda-forge/oxigraph-feedstock/pull/6" xlink:title="oxigraph ❎">
<ellipse fill="#31688e" stroke="black" cx="965" cy="-134" rx="65.79" ry="18"/>
<text text-anchor="middle" x="965" y="-130.3" font-family="Times,serif" font-size="14.00" fill="white">oxigraph ❎</text>
</a>
</g>
</g>
<!-- aws&#45;c&#45;s3&#45;&gt;oxigraph -->
<!-- tensorboard&#45;data&#45;server -->
<g id="node60" class="node">
<title>tensorboard&#45;data&#45;server</title>
<g id="a_node60"><a xlink:href="https://github.com/conda-forge/tensorboard-data-server-feedstock/pull/9" xlink:title="tensorboard data server ❎">
<ellipse fill="#31688e" stroke="black" cx="448" cy="-788" rx="138" ry="18"/>
<text text-anchor="middle" x="448" y="-784.3" font-family="Times,serif" font-size="14.00" fill="white">tensorboard data server ❎</text>
</a>
</g>
</g>
<!-- tensorboard&#45;data&#45;server&#45;&gt;tensorflow -->
<g id="edge58" class="edge">
<title>tensorboard&#45;data&#45;server&#45;&gt;tensorflow</title>
<path fill="none" stroke="black" d="M453.44,-769.7C455.89,-761.9 458.84,-752.51 461.57,-743.83"/>
<polygon fill="black" stroke="black" points="464.96,-744.69 464.62,-734.1 458.29,-742.59 464.96,-744.69"/>
</g>
</g>
</svg>
