<?xml version="1.0" encoding="UTF-8" standalone="no"?>
<!DOCTYPE svg PUBLIC "-//W3C//DTD SVG 1.1//EN"
 "http://www.w3.org/Graphics/SVG/1.1/DTD/svg11.dtd">
<!-- Generated by graphviz version 2.49.3 (20211104.1129)
 -->
<!-- Pages: 1 -->
<svg width="1775pt" height="1500pt"
 viewBox="0.00 0.00 1775.19 1500.00" xmlns="http://www.w3.org/2000/svg" xmlns:xlink="http://www.w3.org/1999/xlink">
<g id="graph0" class="graph" transform="scale(1 1) rotate(0) translate(4 1496)">
<polygon fill="white" stroke="transparent" points="-4,4 -4,-1496 1771.19,-1496 1771.19,4 -4,4"/>
<!-- airflow -->
<g id="node1" class="node">
<title>airflow</title>
<g id="a_node1"><a xlink:href="https://github.com/conda-forge/airflow-feedstock" xlink:title="airflow">
<ellipse fill="#fde725" stroke="black" cx="304" cy="-1150" rx="42.49" ry="18"/>
<text text-anchor="middle" x="304" y="-1146.3" font-family="Times,serif" font-size="14.00">airflow</text>
</a>
</g>
</g>
<!-- arrow&#45;cpp -->
<g id="node2" class="node">
<title>arrow&#45;cpp</title>
<g id="a_node2"><a xlink:href="https://github.com/conda-forge/arrow-cpp-feedstock" xlink:title="arrow cpp">
<ellipse fill="#fde725" stroke="black" cx="192" cy="-1222" rx="58" ry="18"/>
<text text-anchor="middle" x="192" y="-1218.3" font-family="Times,serif" font-size="14.00">arrow cpp</text>
</a>
</g>
</g>
<!-- arrow&#45;cpp&#45;&gt;airflow -->
<g id="edge1" class="edge">
<title>arrow&#45;cpp&#45;&gt;airflow</title>
<path fill="none" stroke="black" d="M216.58,-1205.64C232.92,-1195.43 254.54,-1181.91 272.19,-1170.88"/>
<polygon fill="black" stroke="black" points="274.38,-1173.64 281.01,-1165.37 270.67,-1167.7 274.38,-1173.64"/>
</g>
<!-- omniscidb -->
<g id="node3" class="node">
<title>omniscidb</title>
<g id="a_node3"><a xlink:href="https://github.com/conda-forge/omniscidb-feedstock" xlink:title="omniscidb">
<ellipse fill="#fde725" stroke="black" cx="148" cy="-1150" rx="58" ry="18"/>
<text text-anchor="middle" x="148" y="-1146.3" font-family="Times,serif" font-size="14.00">omniscidb</text>
</a>
</g>
</g>
<!-- arrow&#45;cpp&#45;&gt;omniscidb -->
<g id="edge2" class="edge">
<title>arrow&#45;cpp&#45;&gt;omniscidb</title>
<path fill="none" stroke="black" d="M181.35,-1204.05C176.16,-1195.8 169.81,-1185.7 164.05,-1176.54"/>
<polygon fill="black" stroke="black" points="166.84,-1174.39 158.55,-1167.79 160.91,-1178.12 166.84,-1174.39"/>
</g>
<!-- erlang -->
<g id="node4" class="node">
<title>erlang</title>
<g id="a_node4"><a xlink:href="https://github.com/conda-forge/erlang-feedstock/pull/105" xlink:title="erlang ❎">
<ellipse fill="#31688e" stroke="black" cx="1658" cy="-1474" rx="54.69" ry="18"/>
<text text-anchor="middle" x="1658" y="-1470.3" font-family="Times,serif" font-size="14.00" fill="white">erlang ❎</text>
</a>
</g>
</g>
<!-- m2crypto -->
<g id="node5" class="node">
<title>m2crypto</title>
<g id="a_node5"><a xlink:href="https://github.com/conda-forge/m2crypto-feedstock/pull/63" xlink:title="m2crypto ❎">
<ellipse fill="#31688e" stroke="black" cx="1658" cy="-1402" rx="69.59" ry="18"/>
<text text-anchor="middle" x="1658" y="-1398.3" font-family="Times,serif" font-size="14.00" fill="white">m2crypto ❎</text>
</a>
</g>
</g>
<!-- erlang&#45;&gt;m2crypto -->
<!-- mysql&#45;connector&#45;c -->
<g id="node8" class="node">
<title>mysql&#45;connector&#45;c</title>
<g id="a_node8"><a xlink:href="https://github.com/conda-forge/mysql-connector-c-feedstock/pull/18" xlink:title="mysql connector c ❎">
<ellipse fill="#31688e" stroke="black" cx="1658" cy="-1330" rx="109.38" ry="18"/>
<text text-anchor="middle" x="1658" y="-1326.3" font-family="Times,serif" font-size="14.00" fill="white">mysql connector c ❎</text>
</a>
</g>
</g>
<!-- m2crypto&#45;&gt;mysql&#45;connector&#45;c -->
<!-- librdkafka -->
<g id="node6" class="node">
<title>librdkafka</title>
<g id="a_node6"><a xlink:href="https://github.com/conda-forge/librdkafka-feedstock" xlink:title="librdkafka">
<ellipse fill="#ff8c00" stroke="black" cx="58" cy="-1222" rx="58" ry="18"/>
<text text-anchor="middle" x="58" y="-1218.3" font-family="Times,serif" font-size="14.00">librdkafka</text>
</a>
</g>
</g>
<!-- librdkafka&#45;&gt;omniscidb -->
<g id="edge4" class="edge">
<title>librdkafka&#45;&gt;omniscidb</title>
<path fill="none" stroke="black" d="M78.42,-1205.12C90.53,-1195.7 106.07,-1183.61 119.39,-1173.25"/>
<polygon fill="black" stroke="black" points="121.6,-1175.97 127.35,-1167.06 117.3,-1170.44 121.6,-1175.97"/>
</g>
<!-- lighttpd -->
<g id="node7" class="node">
<title>lighttpd</title>
<g id="a_node7"><a xlink:href="https://github.com/conda-forge/lighttpd-feedstock" xlink:title="lighttpd">
<ellipse fill="#fde725" stroke="black" cx="948" cy="-1222" rx="48.19" ry="18"/>
<text text-anchor="middle" x="948" y="-1218.3" font-family="Times,serif" font-size="14.00">lighttpd</text>
</a>
</g>
</g>
<!-- uwsgi -->
<g id="node16" class="node">
<title>uwsgi</title>
<g id="a_node16"><a xlink:href="https://github.com/conda-forge/uwsgi-feedstock" xlink:title="uwsgi">
<ellipse fill="#ff8c00" stroke="black" cx="1658" cy="-1258" rx="38.5" ry="18"/>
<text text-anchor="middle" x="1658" y="-1254.3" font-family="Times,serif" font-size="14.00">uwsgi</text>
</a>
</g>
</g>
<!-- mysql&#45;connector&#45;c&#45;&gt;uwsgi -->
<!-- mysql -->
<g id="node9" class="node">
<title>mysql</title>
<g id="a_node9"><a xlink:href="https://github.com/conda-forge/mysql-feedstock/pull/57" xlink:title="mysql ❎">
<ellipse fill="#31688e" stroke="black" cx="1041" cy="-1294" rx="52.79" ry="18"/>
<text text-anchor="middle" x="1041" y="-1290.3" font-family="Times,serif" font-size="14.00" fill="white">mysql ❎</text>
</a>
</g>
</g>
<!-- mysql&#45;&gt;lighttpd -->
<g id="edge6" class="edge">
<title>mysql&#45;&gt;lighttpd</title>
<path fill="none" stroke="black" d="M1019.9,-1277.12C1007.12,-1267.5 990.64,-1255.1 976.69,-1244.59"/>
<polygon fill="black" stroke="black" points="978.48,-1241.56 968.38,-1238.34 974.27,-1247.15 978.48,-1241.56"/>
</g>
<!-- qt -->
<g id="node10" class="node">
<title>qt</title>
<g id="a_node10"><a xlink:href="https://github.com/conda-forge/qt-feedstock" xlink:title="qt">
<ellipse fill="#fde725" stroke="black" cx="1041" cy="-1222" rx="27" ry="18"/>
<text text-anchor="middle" x="1041" y="-1218.3" font-family="Times,serif" font-size="14.00">qt</text>
</a>
</g>
</g>
<!-- mysql&#45;&gt;qt -->
<g id="edge7" class="edge">
<title>mysql&#45;&gt;qt</title>
<path fill="none" stroke="black" d="M1041,-1275.7C1041,-1267.98 1041,-1258.71 1041,-1250.11"/>
<polygon fill="black" stroke="black" points="1044.5,-1250.1 1041,-1240.1 1037.5,-1250.1 1044.5,-1250.1"/>
</g>
<!-- mysql&#45;connector&#45;cpp -->
<g id="node11" class="node">
<title>mysql&#45;connector&#45;cpp</title>
<g id="a_node11"><a xlink:href="https://github.com/conda-forge/mysql-connector-cpp-feedstock" xlink:title="mysql connector cpp">
<ellipse fill="#fde725" stroke="black" cx="1189" cy="-1150" rx="106.68" ry="18"/>
<text text-anchor="middle" x="1189" y="-1146.3" font-family="Times,serif" font-size="14.00">mysql connector cpp</text>
</a>
</g>
</g>
<!-- mysql&#45;&gt;mysql&#45;connector&#45;cpp -->
<g id="edge8" class="edge">
<title>mysql&#45;&gt;mysql&#45;connector&#45;cpp</title>
<path fill="none" stroke="black" d="M1057.98,-1276.71C1083.91,-1251.83 1133.53,-1204.22 1163.71,-1175.26"/>
<polygon fill="black" stroke="black" points="1166.51,-1177.43 1171.3,-1167.98 1161.66,-1172.38 1166.51,-1177.43"/>
</g>
<!-- qt&#45;&gt;airflow -->
<g id="edge9" class="edge">
<title>qt&#45;&gt;airflow</title>
<path fill="none" stroke="black" d="M1020.95,-1209.87C1015.89,-1207.53 1010.36,-1205.36 1005,-1204 724.54,-1132.91 639.2,-1222.23 355,-1168 351.4,-1167.31 347.7,-1166.43 344.01,-1165.44"/>
<polygon fill="black" stroke="black" points="344.97,-1162.08 334.39,-1162.6 342.99,-1168.79 344.97,-1162.08"/>
</g>
<!-- octave -->
<g id="node12" class="node">
<title>octave</title>
<g id="a_node12"><a xlink:href="https://github.com/conda-forge/octave-feedstock" xlink:title="octave">
<ellipse fill="#fde725" stroke="black" cx="985" cy="-1150" rx="41" ry="18"/>
<text text-anchor="middle" x="985" y="-1146.3" font-family="Times,serif" font-size="14.00">octave</text>
</a>
</g>
</g>
<!-- qt&#45;&gt;octave -->
<g id="edge10" class="edge">
<title>qt&#45;&gt;octave</title>
<path fill="none" stroke="black" d="M1028.85,-1205.81C1021.64,-1196.8 1012.34,-1185.18 1004.16,-1174.95"/>
<polygon fill="black" stroke="black" points="1006.89,-1172.76 997.91,-1167.13 1001.42,-1177.13 1006.89,-1172.76"/>
</g>
<!-- lalinference -->
<g id="node13" class="node">
<title>lalinference</title>
<g id="a_node13"><a xlink:href="https://github.com/conda-forge/lalinference-feedstock" xlink:title="lalinference">
<ellipse fill="#fde725" stroke="black" cx="446" cy="-934" rx="65.79" ry="18"/>
<text text-anchor="middle" x="446" y="-930.3" font-family="Times,serif" font-size="14.00">lalinference</text>
</a>
</g>
</g>
<!-- qt&#45;&gt;lalinference -->
<g id="edge11" class="edge">
<title>qt&#45;&gt;lalinference</title>
<path fill="none" stroke="black" d="M1042.37,-1203.77C1043.25,-1185.47 1043.01,-1155.94 1035,-1132 1022.88,-1095.76 1019.33,-1081.88 988,-1060 845,-960.15 634,-938.97 522.12,-935.16"/>
<polygon fill="black" stroke="black" points="522.04,-931.65 511.94,-934.85 521.83,-938.65 522.04,-931.65"/>
</g>
<!-- ambertools -->
<g id="node14" class="node">
<title>ambertools</title>
<g id="a_node14"><a xlink:href="https://github.com/conda-forge/ambertools-feedstock" xlink:title="ambertools">
<ellipse fill="#fde725" stroke="black" cx="916" cy="-1078" rx="63.09" ry="18"/>
<text text-anchor="middle" x="916" y="-1074.3" font-family="Times,serif" font-size="14.00">ambertools</text>
</a>
</g>
</g>
<!-- qt&#45;&gt;ambertools -->
<g id="edge12" class="edge">
<title>qt&#45;&gt;ambertools</title>
<path fill="none" stroke="black" d="M1019.27,-1210.73C989.09,-1196.38 937.83,-1171.66 935,-1168 921.44,-1150.48 917.03,-1125.44 915.82,-1106.38"/>
<polygon fill="black" stroke="black" points="919.31,-1106.09 915.44,-1096.23 912.32,-1106.35 919.31,-1106.09"/>
</g>
<!-- gnuradio -->
<g id="node15" class="node">
<title>gnuradio</title>
<g id="a_node15"><a xlink:href="https://github.com/conda-forge/gnuradio-feedstock" xlink:title="gnuradio">
<ellipse fill="#fde725" stroke="black" cx="836" cy="-1150" rx="52" ry="18"/>
<text text-anchor="middle" x="836" y="-1146.3" font-family="Times,serif" font-size="14.00">gnuradio</text>
</a>
</g>
</g>
<!-- qt&#45;&gt;gnuradio -->
<g id="edge13" class="edge">
<title>qt&#45;&gt;gnuradio</title>
<path fill="none" stroke="black" d="M1019.89,-1210.44C1015.05,-1208.19 1009.89,-1205.91 1005,-1204 965.51,-1188.57 919.53,-1174.38 885.51,-1164.58"/>
<polygon fill="black" stroke="black" points="886.38,-1161.19 875.8,-1161.81 884.46,-1167.92 886.38,-1161.19"/>
</g>
<!-- w3m -->
<g id="node19" class="node">
<title>w3m</title>
<g id="a_node19"><a xlink:href="https://github.com/conda-forge/w3m-feedstock/pull/11" xlink:title="w3m ❎">
<ellipse fill="#31688e" stroke="black" cx="1658" cy="-1186" rx="47.5" ry="18"/>
<text text-anchor="middle" x="1658" y="-1182.3" font-family="Times,serif" font-size="14.00" fill="white">w3m ❎</text>
</a>
</g>
</g>
<!-- uwsgi&#45;&gt;w3m -->
<!-- pylibscrypt -->
<g id="node17" class="node">
<title>pylibscrypt</title>
<g id="a_node17"><a xlink:href="https://github.com/conda-forge/pylibscrypt-feedstock" xlink:title="pylibscrypt">
<ellipse fill="#fde725" stroke="black" cx="647" cy="-18" rx="63.09" ry="18"/>
<text text-anchor="middle" x="647" y="-14.3" font-family="Times,serif" font-size="14.00">pylibscrypt</text>
</a>
</g>
</g>
<!-- scrypt -->
<g id="node18" class="node">
<title>scrypt</title>
<g id="a_node18"><a xlink:href="https://github.com/conda-forge/scrypt-feedstock/pull/31" xlink:title="scrypt ❎">
<ellipse fill="#31688e" stroke="black" cx="647" cy="-90" rx="54" ry="18"/>
<text text-anchor="middle" x="647" y="-86.3" font-family="Times,serif" font-size="14.00" fill="white">scrypt ❎</text>
</a>
</g>
</g>
<!-- scrypt&#45;&gt;pylibscrypt -->
<g id="edge15" class="edge">
<title>scrypt&#45;&gt;pylibscrypt</title>
<path fill="none" stroke="black" d="M647,-71.7C647,-63.98 647,-54.71 647,-46.11"/>
<polygon fill="black" stroke="black" points="650.5,-46.1 647,-36.1 643.5,-46.1 650.5,-46.1"/>
</g>
<!-- postgres&#45;xl -->
<g id="node20" class="node">
<title>postgres&#45;xl</title>
<g id="a_node20"><a xlink:href="https://github.com/conda-forge/postgres-xl-feedstock/pull/8" xlink:title="postgres xl ❎">
<ellipse fill="#31688e" stroke="black" cx="1658" cy="-1114" rx="76.89" ry="18"/>
<text text-anchor="middle" x="1658" y="-1110.3" font-family="Times,serif" font-size="14.00" fill="white">postgres xl ❎</text>
</a>
</g>
</g>
<!-- w3m&#45;&gt;postgres&#45;xl -->
<!-- sstp&#45;client -->
<g id="node21" class="node">
<title>sstp&#45;client</title>
<g id="a_node21"><a xlink:href="https://github.com/conda-forge/sstp-client-feedstock/pull/7" xlink:title="sstp client ✓">
<ellipse fill="#31688e" stroke="black" cx="1658" cy="-1042" rx="66.5" ry="18"/>
<text text-anchor="middle" x="1658" y="-1038.3" font-family="Times,serif" font-size="14.00" fill="white">sstp client ✓</text>
</a>
</g>
</g>
<!-- postgres&#45;xl&#45;&gt;sstp&#45;client -->
<!-- pycurl -->
<g id="node31" class="node">
<title>pycurl</title>
<g id="a_node31"><a xlink:href="https://github.com/conda-forge/pycurl-feedstock/pull/19" xlink:title="pycurl ❎">
<ellipse fill="#31688e" stroke="black" cx="1658" cy="-970" rx="54" ry="18"/>
<text text-anchor="middle" x="1658" y="-966.3" font-family="Times,serif" font-size="14.00" fill="white">pycurl ❎</text>
</a>
</g>
</g>
<!-- sstp&#45;client&#45;&gt;pycurl -->
<!-- cryptography -->
<g id="node22" class="node">
<title>cryptography</title>
<g id="a_node22"><a xlink:href="https://github.com/conda-forge/cryptography-feedstock/pull/80" xlink:title="cryptography ❎">
<ellipse fill="#31688e" stroke="black" cx="355" cy="-1222" rx="87.18" ry="18"/>
<text text-anchor="middle" x="355" y="-1218.3" font-family="Times,serif" font-size="14.00" fill="white">cryptography ❎</text>
</a>
</g>
</g>
<!-- cryptography&#45;&gt;airflow -->
<g id="edge19" class="edge">
<title>cryptography&#45;&gt;airflow</title>
<path fill="none" stroke="black" d="M342.65,-1204.05C336.42,-1195.5 328.75,-1184.97 321.89,-1175.56"/>
<polygon fill="black" stroke="black" points="324.6,-1173.33 315.88,-1167.31 318.94,-1177.45 324.6,-1173.33"/>
</g>
<!-- cryptography&#45;&gt;omniscidb -->
<g id="edge20" class="edge">
<title>cryptography&#45;&gt;omniscidb</title>
<path fill="none" stroke="black" d="M311.61,-1206.33C277.58,-1194.82 230.29,-1178.83 195.3,-1166.99"/>
<polygon fill="black" stroke="black" points="196.37,-1163.66 185.78,-1163.77 194.13,-1170.29 196.37,-1163.66"/>
</g>
<!-- cryptography&#45;&gt;lalinference -->
<g id="edge21" class="edge">
<title>cryptography&#45;&gt;lalinference</title>
<path fill="none" stroke="black" d="M304.43,-1207.25C284.83,-1199.19 264.4,-1186.76 253,-1168 226.08,-1123.67 216.26,-1062.44 283,-988 306.13,-962.2 341.95,-948.9 374.12,-942.08"/>
<polygon fill="black" stroke="black" points="374.83,-945.51 383.97,-940.16 373.49,-938.63 374.83,-945.51"/>
</g>
<!-- cryptography&#45;&gt;gnuradio -->
<g id="edge22" class="edge">
<title>cryptography&#45;&gt;gnuradio</title>
<path fill="none" stroke="black" d="M417.39,-1209.35C428.56,-1207.43 440.11,-1205.57 451,-1204 594.41,-1183.36 632.75,-1195.54 775,-1168 779.43,-1167.14 784.01,-1166.12 788.57,-1165.01"/>
<polygon fill="black" stroke="black" points="789.66,-1168.35 798.48,-1162.48 787.92,-1161.57 789.66,-1168.35"/>
</g>
<!-- tensorflow -->
<g id="node23" class="node">
<title>tensorflow</title>
<g id="a_node23"><a xlink:href="https://github.com/conda-forge/tensorflow-feedstock" xlink:title="tensorflow">
<ellipse fill="#fde725" stroke="black" cx="598" cy="-1150" rx="60" ry="18"/>
<text text-anchor="middle" x="598" y="-1146.3" font-family="Times,serif" font-size="14.00">tensorflow</text>
</a>
</g>
</g>
<!-- cryptography&#45;&gt;tensorflow -->
<g id="edge23" class="edge">
<title>cryptography&#45;&gt;tensorflow</title>
<path fill="none" stroke="black" d="M403.59,-1207C445.01,-1195.07 504.36,-1177.97 546.57,-1165.82"/>
<polygon fill="black" stroke="black" points="547.73,-1169.12 556.37,-1162.99 545.79,-1162.4 547.73,-1169.12"/>
</g>
<!-- lal -->
<g id="node24" class="node">
<title>lal</title>
<g id="a_node24"><a xlink:href="https://github.com/conda-forge/lal-feedstock" xlink:title="lal">
<ellipse fill="#fde725" stroke="black" cx="391" cy="-1150" rx="27" ry="18"/>
<text text-anchor="middle" x="391" y="-1146.3" font-family="Times,serif" font-size="14.00">lal</text>
</a>
</g>
</g>
<!-- cryptography&#45;&gt;lal -->
<g id="edge24" class="edge">
<title>cryptography&#45;&gt;lal</title>
<path fill="none" stroke="black" d="M363.71,-1204.05C367.98,-1195.77 373.2,-1185.62 377.92,-1176.42"/>
<polygon fill="black" stroke="black" points="381.15,-1177.8 382.61,-1167.31 374.93,-1174.6 381.15,-1177.8"/>
</g>
<!-- mamba -->
<g id="node25" class="node">
<title>mamba</title>
<g id="a_node25"><a xlink:href="https://github.com/conda-forge/mamba-feedstock" xlink:title="mamba">
<ellipse fill="#fde725" stroke="black" cx="721" cy="-1150" rx="45" ry="18"/>
<text text-anchor="middle" x="721" y="-1146.3" font-family="Times,serif" font-size="14.00">mamba</text>
</a>
</g>
</g>
<!-- cryptography&#45;&gt;mamba -->
<g id="edge25" class="edge">
<title>cryptography&#45;&gt;mamba</title>
<path fill="none" stroke="black" d="M418.5,-1209.66C429.34,-1207.75 440.49,-1205.81 451,-1204 546.92,-1187.51 572.35,-1190.67 667,-1168 670.61,-1167.14 674.32,-1166.16 678.03,-1165.12"/>
<polygon fill="black" stroke="black" points="679.18,-1168.43 687.79,-1162.26 677.21,-1161.71 679.18,-1168.43"/>
</g>
<!-- mlflow -->
<g id="node26" class="node">
<title>mlflow</title>
<g id="a_node26"><a xlink:href="https://github.com/conda-forge/mlflow-feedstock" xlink:title="mlflow">
<ellipse fill="#fde725" stroke="black" cx="478" cy="-1150" rx="41.69" ry="18"/>
<text text-anchor="middle" x="478" y="-1146.3" font-family="Times,serif" font-size="14.00">mlflow</text>
</a>
</g>
</g>
<!-- cryptography&#45;&gt;mlflow -->
<g id="edge26" class="edge">
<title>cryptography&#45;&gt;mlflow</title>
<path fill="none" stroke="black" d="M383.22,-1204.94C401.59,-1194.49 425.62,-1180.81 444.9,-1169.84"/>
<polygon fill="black" stroke="black" points="446.69,-1172.85 453.65,-1164.86 443.23,-1166.76 446.69,-1172.85"/>
</g>
<!-- lal&#45;&gt;lalinference -->
<g id="edge27" class="edge">
<title>lal&#45;&gt;lalinference</title>
<path fill="none" stroke="black" d="M373.14,-1136.24C336.41,-1108.43 258.8,-1040.6 296,-988 313.91,-962.68 344.97,-949.37 374.2,-942.41"/>
<polygon fill="black" stroke="black" points="374.99,-945.82 384.02,-940.29 373.51,-938.98 374.99,-945.82"/>
</g>
<!-- lalframe -->
<g id="node27" class="node">
<title>lalframe</title>
<g id="a_node27"><a xlink:href="https://github.com/conda-forge/lalframe-feedstock" xlink:title="lalframe">
<ellipse fill="#fde725" stroke="black" cx="517" cy="-1078" rx="49.5" ry="18"/>
<text text-anchor="middle" x="517" y="-1074.3" font-family="Times,serif" font-size="14.00">lalframe</text>
</a>
</g>
</g>
<!-- lal&#45;&gt;lalframe -->
<g id="edge28" class="edge">
<title>lal&#45;&gt;lalframe</title>
<path fill="none" stroke="black" d="M411.24,-1137.75C430.32,-1127.16 459.3,-1111.06 482.1,-1098.39"/>
<polygon fill="black" stroke="black" points="484.09,-1101.29 491.13,-1093.37 480.69,-1095.17 484.09,-1101.29"/>
</g>
<!-- lalsimulation -->
<g id="node28" class="node">
<title>lalsimulation</title>
<g id="a_node28"><a xlink:href="https://github.com/conda-forge/lalsimulation-feedstock" xlink:title="lalsimulation">
<ellipse fill="#fde725" stroke="black" cx="376" cy="-1006" rx="71" ry="18"/>
<text text-anchor="middle" x="376" y="-1002.3" font-family="Times,serif" font-size="14.00">lalsimulation</text>
</a>
</g>
</g>
<!-- lal&#45;&gt;lalsimulation -->
<g id="edge29" class="edge">
<title>lal&#45;&gt;lalsimulation</title>
<path fill="none" stroke="black" d="M389.19,-1131.87C386.63,-1107.67 381.94,-1063.21 378.89,-1034.39"/>
<polygon fill="black" stroke="black" points="382.35,-1033.77 377.82,-1024.19 375.39,-1034.5 382.35,-1033.77"/>
</g>
<!-- lalpulsar -->
<g id="node29" class="node">
<title>lalpulsar</title>
<g id="a_node29"><a xlink:href="https://github.com/conda-forge/lalpulsar-feedstock" xlink:title="lalpulsar">
<ellipse fill="#fde725" stroke="black" cx="517" cy="-1006" rx="51.5" ry="18"/>
<text text-anchor="middle" x="517" y="-1002.3" font-family="Times,serif" font-size="14.00">lalpulsar</text>
</a>
</g>
</g>
<!-- lal&#45;&gt;lalpulsar -->
<g id="edge30" class="edge">
<title>lal&#45;&gt;lalpulsar</title>
<path fill="none" stroke="black" d="M401.52,-1133.17C414.05,-1114.79 436.04,-1083.95 458,-1060 467.79,-1049.33 479.49,-1038.47 489.89,-1029.4"/>
<polygon fill="black" stroke="black" points="492.23,-1032 497.53,-1022.83 487.66,-1026.69 492.23,-1032"/>
</g>
<!-- lalframe&#45;&gt;lalinference -->
<g id="edge32" class="edge">
<title>lalframe&#45;&gt;lalinference</title>
<path fill="none" stroke="black" d="M542.13,-1062.23C555.15,-1053.05 569.8,-1039.96 577,-1024 583.58,-1009.41 585.94,-1001.27 577,-988 562.35,-966.27 537.12,-953.45 512.68,-945.88"/>
<polygon fill="black" stroke="black" points="513.6,-942.5 503.02,-943.14 511.69,-949.24 513.6,-942.5"/>
</g>
<!-- lalframe&#45;&gt;lalpulsar -->
<g id="edge33" class="edge">
<title>lalframe&#45;&gt;lalpulsar</title>
<path fill="none" stroke="black" d="M517,-1059.7C517,-1051.98 517,-1042.71 517,-1034.11"/>
<polygon fill="black" stroke="black" points="520.5,-1034.1 517,-1024.1 513.5,-1034.1 520.5,-1034.1"/>
</g>
<!-- lalsimulation&#45;&gt;lalinference -->
<g id="edge34" class="edge">
<title>lalsimulation&#45;&gt;lalinference</title>
<path fill="none" stroke="black" d="M392.59,-988.41C401.48,-979.52 412.59,-968.41 422.37,-958.63"/>
<polygon fill="black" stroke="black" points="424.93,-961.02 429.53,-951.47 419.98,-956.07 424.93,-961.02"/>
</g>
<!-- lalpulsar&#45;&gt;lalinference -->
<g id="edge35" class="edge">
<title>lalpulsar&#45;&gt;lalinference</title>
<path fill="none" stroke="black" d="M500.53,-988.76C491.52,-979.88 480.19,-968.71 470.19,-958.85"/>
<polygon fill="black" stroke="black" points="472.45,-956.16 462.87,-951.63 467.53,-961.15 472.45,-956.16"/>
</g>
<!-- aws&#45;sdk&#45;cpp -->
<g id="node30" class="node">
<title>aws&#45;sdk&#45;cpp</title>
<g id="a_node30"><a xlink:href="https://github.com/conda-forge/aws-sdk-cpp-feedstock" xlink:title="aws sdk cpp">
<ellipse fill="#ff8c00" stroke="black" cx="192" cy="-1294" rx="67.69" ry="18"/>
<text text-anchor="middle" x="192" y="-1290.3" font-family="Times,serif" font-size="14.00">aws sdk cpp</text>
</a>
</g>
</g>
<!-- aws&#45;sdk&#45;cpp&#45;&gt;arrow&#45;cpp -->
<g id="edge31" class="edge">
<title>aws&#45;sdk&#45;cpp&#45;&gt;arrow&#45;cpp</title>
<path fill="none" stroke="black" d="M192,-1275.7C192,-1267.98 192,-1258.71 192,-1250.11"/>
<polygon fill="black" stroke="black" points="195.5,-1250.1 192,-1240.1 188.5,-1250.1 195.5,-1250.1"/>
</g>
<!-- pyctest -->
<g id="node32" class="node">
<title>pyctest</title>
<g id="a_node32"><a xlink:href="https://github.com/conda-forge/pyctest-feedstock/pull/18" xlink:title="pyctest ✓">
<ellipse fill="#31688e" stroke="black" cx="1658" cy="-898" rx="52" ry="18"/>
<text text-anchor="middle" x="1658" y="-894.3" font-family="Times,serif" font-size="14.00" fill="white">pyctest ✓</text>
</a>
</g>
</g>
<!-- pycurl&#45;&gt;pyctest -->
<!-- entwine -->
<g id="node33" class="node">
<title>entwine</title>
<g id="a_node33"><a xlink:href="https://github.com/conda-forge/entwine-feedstock" xlink:title="entwine">
<ellipse fill="#ff8c00" stroke="black" cx="1658" cy="-826" rx="48.19" ry="18"/>
<text text-anchor="middle" x="1658" y="-822.3" font-family="Times,serif" font-size="14.00">entwine</text>
</a>
</g>
</g>
<!-- pyctest&#45;&gt;entwine -->
<!-- fossil -->
<g id="node34" class="node">
<title>fossil</title>
<g id="a_node34"><a xlink:href="https://github.com/conda-forge/fossil-feedstock/pull/14" xlink:title="fossil ❎">
<ellipse fill="#31688e" stroke="black" cx="1658" cy="-754" rx="49.5" ry="18"/>
<text text-anchor="middle" x="1658" y="-750.3" font-family="Times,serif" font-size="14.00" fill="white">fossil ❎</text>
</a>
</g>
</g>
<!-- entwine&#45;&gt;fossil -->
<!-- xrootd -->
<g id="node35" class="node">
<title>xrootd</title>
<g id="a_node35"><a xlink:href="https://github.com/conda-forge/xrootd-feedstock" xlink:title="xrootd">
<ellipse fill="#ff8c00" stroke="black" cx="450" cy="-494" rx="41" ry="18"/>
<text text-anchor="middle" x="450" y="-490.3" font-family="Times,serif" font-size="14.00">xrootd</text>
</a>
</g>
</g>
<!-- root -->
<g id="node36" class="node">
<title>root</title>
<g id="a_node36"><a xlink:href="https://github.com/conda-forge/root-feedstock" xlink:title="root">
<ellipse fill="#fde725" stroke="black" cx="388" cy="-422" rx="30" ry="18"/>
<text text-anchor="middle" x="388" y="-418.3" font-family="Times,serif" font-size="14.00">root</text>
</a>
</g>
</g>
<!-- xrootd&#45;&gt;root -->
<g id="edge40" class="edge">
<title>xrootd&#45;&gt;root</title>
<path fill="none" stroke="black" d="M435.62,-476.76C427.49,-467.59 417.2,-455.96 408.26,-445.88"/>
<polygon fill="black" stroke="black" points="410.7,-443.35 401.45,-438.19 405.46,-448 410.7,-443.35"/>
</g>
<!-- nordugrid&#45;arc -->
<g id="node37" class="node">
<title>nordugrid&#45;arc</title>
<g id="a_node37"><a xlink:href="https://github.com/conda-forge/nordugrid-arc-feedstock" xlink:title="nordugrid arc">
<ellipse fill="#fde725" stroke="black" cx="511" cy="-422" rx="74.99" ry="18"/>
<text text-anchor="middle" x="511" y="-418.3" font-family="Times,serif" font-size="14.00">nordugrid arc</text>
</a>
</g>
</g>
<!-- xrootd&#45;&gt;nordugrid&#45;arc -->
<g id="edge41" class="edge">
<title>xrootd&#45;&gt;nordugrid&#45;arc</title>
<path fill="none" stroke="black" d="M464.15,-476.76C471.63,-468.18 480.97,-457.46 489.34,-447.86"/>
<polygon fill="black" stroke="black" points="492.15,-449.96 496.08,-440.12 486.87,-445.36 492.15,-449.96"/>
</g>
<!-- cds&#45;crtools -->
<g id="node38" class="node">
<title>cds&#45;crtools</title>
<g id="a_node38"><a xlink:href="https://github.com/conda-forge/cds-crtools-feedstock" xlink:title="cds crtools">
<ellipse fill="#fde725" stroke="black" cx="388" cy="-350" rx="61.19" ry="18"/>
<text text-anchor="middle" x="388" y="-346.3" font-family="Times,serif" font-size="14.00">cds crtools</text>
</a>
</g>
</g>
<!-- root&#45;&gt;cds&#45;crtools -->
<g id="edge42" class="edge">
<title>root&#45;&gt;cds&#45;crtools</title>
<path fill="none" stroke="black" d="M388,-403.7C388,-395.98 388,-386.71 388,-378.11"/>
<polygon fill="black" stroke="black" points="391.5,-378.1 388,-368.1 384.5,-378.1 391.5,-378.1"/>
</g>
<!-- virtuoso&#45;opensource -->
<g id="node39" class="node">
<title>virtuoso&#45;opensource</title>
<g id="a_node39"><a xlink:href="https://github.com/conda-forge/virtuoso-opensource-feedstock/pull/5" xlink:title="virtuoso opensource ❎">
<ellipse fill="#31688e" stroke="black" cx="1422" cy="-1474" rx="119" ry="18"/>
<text text-anchor="middle" x="1422" y="-1470.3" font-family="Times,serif" font-size="14.00" fill="white">virtuoso opensource ❎</text>
</a>
</g>
</g>
<!-- pypy3.6 -->
<g id="node40" class="node">
<title>pypy3.6</title>
<g id="a_node40"><a xlink:href="https://github.com/conda-forge/pypy3.6-feedstock/pull/72" xlink:title="pypy3 6 ❎">
<ellipse fill="#31688e" stroke="black" cx="1422" cy="-1402" rx="61.99" ry="18"/>
<text text-anchor="middle" x="1422" y="-1398.3" font-family="Times,serif" font-size="14.00" fill="white">pypy3 6 ❎</text>
</a>
</g>
</g>
<!-- virtuoso&#45;opensource&#45;&gt;pypy3.6 -->
<!-- pygsi -->
<g id="node45" class="node">
<title>pygsi</title>
<g id="a_node45"><a xlink:href="https://github.com/conda-forge/pygsi-feedstock" xlink:title="pygsi">
<ellipse fill="#ff8c00" stroke="black" cx="1422" cy="-1330" rx="36" ry="18"/>
<text text-anchor="middle" x="1422" y="-1326.3" font-family="Times,serif" font-size="14.00">pygsi</text>
</a>
</g>
</g>
<!-- pypy3.6&#45;&gt;pygsi -->
<!-- voms -->
<g id="node41" class="node">
<title>voms</title>
<g id="a_node41"><a xlink:href="https://github.com/conda-forge/voms-feedstock/pull/6" xlink:title="voms ❎">
<ellipse fill="#31688e" stroke="black" cx="851" cy="-494" rx="49.5" ry="18"/>
<text text-anchor="middle" x="851" y="-490.3" font-family="Times,serif" font-size="14.00" fill="white">voms ❎</text>
</a>
</g>
</g>
<!-- cgsi&#45;gsoap -->
<g id="node42" class="node">
<title>cgsi&#45;gsoap</title>
<g id="a_node42"><a xlink:href="https://github.com/conda-forge/cgsi-gsoap-feedstock" xlink:title="cgsi gsoap">
<ellipse fill="#fde725" stroke="black" cx="786" cy="-422" rx="60" ry="18"/>
<text text-anchor="middle" x="786" y="-418.3" font-family="Times,serif" font-size="14.00">cgsi gsoap</text>
</a>
</g>
</g>
<!-- voms&#45;&gt;cgsi&#45;gsoap -->
<g id="edge44" class="edge">
<title>voms&#45;&gt;cgsi&#45;gsoap</title>
<path fill="none" stroke="black" d="M835.92,-476.76C827.76,-467.97 817.5,-456.93 808.42,-447.14"/>
<polygon fill="black" stroke="black" points="810.81,-444.58 801.45,-439.63 805.69,-449.34 810.81,-444.58"/>
</g>
<!-- myproxy -->
<g id="node43" class="node">
<title>myproxy</title>
<g id="a_node43"><a xlink:href="https://github.com/conda-forge/myproxy-feedstock" xlink:title="myproxy">
<ellipse fill="#fde725" stroke="black" cx="916" cy="-422" rx="51.5" ry="18"/>
<text text-anchor="middle" x="916" y="-418.3" font-family="Times,serif" font-size="14.00">myproxy</text>
</a>
</g>
</g>
<!-- voms&#45;&gt;myproxy -->
<g id="edge45" class="edge">
<title>voms&#45;&gt;myproxy</title>
<path fill="none" stroke="black" d="M866.08,-476.76C874.24,-467.97 884.5,-456.93 893.58,-447.14"/>
<polygon fill="black" stroke="black" points="896.31,-449.34 900.55,-439.63 891.19,-444.58 896.31,-449.34"/>
</g>
<!-- srm&#45;ifce -->
<g id="node44" class="node">
<title>srm&#45;ifce</title>
<g id="a_node44"><a xlink:href="https://github.com/conda-forge/srm-ifce-feedstock" xlink:title="srm ifce">
<ellipse fill="#fde725" stroke="black" cx="700" cy="-350" rx="48.19" ry="18"/>
<text text-anchor="middle" x="700" y="-346.3" font-family="Times,serif" font-size="14.00">srm ifce</text>
</a>
</g>
</g>
<!-- cgsi&#45;gsoap&#45;&gt;srm&#45;ifce -->
<g id="edge46" class="edge">
<title>cgsi&#45;gsoap&#45;&gt;srm&#45;ifce</title>
<path fill="none" stroke="black" d="M766.05,-404.76C754.49,-395.36 739.78,-383.38 727.17,-373.12"/>
<polygon fill="black" stroke="black" points="729.21,-370.26 719.25,-366.67 724.79,-375.69 729.21,-370.26"/>
</g>
<!-- git&#45;crypt -->
<g id="node46" class="node">
<title>git&#45;crypt</title>
<g id="a_node46"><a xlink:href="https://github.com/conda-forge/git-crypt-feedstock/pull/2" xlink:title="git crypt ❎">
<ellipse fill="#31688e" stroke="black" cx="1422" cy="-1258" rx="65" ry="18"/>
<text text-anchor="middle" x="1422" y="-1254.3" font-family="Times,serif" font-size="14.00" fill="white">git crypt ❎</text>
</a>
</g>
</g>
<!-- pygsi&#45;&gt;git&#45;crypt -->
<!-- rb&#45;eventmachine -->
<g id="node47" class="node">
<title>rb&#45;eventmachine</title>
<g id="a_node47"><a xlink:href="https://github.com/conda-forge/rb-eventmachine-feedstock" xlink:title="rb eventmachine">
<ellipse fill="#35b779" stroke="black" cx="1422" cy="-1186" rx="89.08" ry="18"/>
<text text-anchor="middle" x="1422" y="-1182.3" font-family="Times,serif" font-size="14.00">rb eventmachine</text>
</a>
</g>
</g>
<!-- git&#45;crypt&#45;&gt;rb&#45;eventmachine -->
<!-- htcondor -->
<g id="node52" class="node">
<title>htcondor</title>
<g id="a_node52"><a xlink:href="https://github.com/conda-forge/htcondor-feedstock/pull/69" xlink:title="htcondor ❎">
<ellipse fill="#31688e" stroke="black" cx="1422" cy="-1114" rx="66.5" ry="18"/>
<text text-anchor="middle" x="1422" y="-1110.3" font-family="Times,serif" font-size="14.00" fill="white">htcondor ❎</text>
</a>
</g>
</g>
<!-- rb&#45;eventmachine&#45;&gt;htcondor -->
<!-- gct -->
<g id="node48" class="node">
<title>gct</title>
<g id="a_node48"><a xlink:href="https://github.com/conda-forge/gct-feedstock/pull/6" xlink:title="gct ❎">
<ellipse fill="#31688e" stroke="black" cx="675" cy="-494" rx="39.79" ry="18"/>
<text text-anchor="middle" x="675" y="-490.3" font-family="Times,serif" font-size="14.00" fill="white">gct ❎</text>
</a>
</g>
</g>
<!-- gct&#45;&gt;nordugrid&#45;arc -->
<g id="edge50" class="edge">
<title>gct&#45;&gt;nordugrid&#45;arc</title>
<path fill="none" stroke="black" d="M647.18,-481.13C622.14,-470.44 584.89,-454.54 555.68,-442.07"/>
<polygon fill="black" stroke="black" points="556.68,-438.69 546.11,-437.99 553.93,-445.13 556.68,-438.69"/>
</g>
<!-- gct&#45;&gt;cgsi&#45;gsoap -->
<g id="edge51" class="edge">
<title>gct&#45;&gt;cgsi&#45;gsoap</title>
<path fill="none" stroke="black" d="M697.2,-479C713.07,-468.99 734.72,-455.34 752.66,-444.02"/>
<polygon fill="black" stroke="black" points="754.54,-446.98 761.13,-438.68 750.81,-441.05 754.54,-446.98"/>
</g>
<!-- gct&#45;&gt;myproxy -->
<g id="edge52" class="edge">
<title>gct&#45;&gt;myproxy</title>
<path fill="none" stroke="black" d="M707.5,-483.56C748.77,-471.57 820.3,-450.8 867.89,-436.97"/>
<polygon fill="black" stroke="black" points="869.04,-440.29 877.66,-434.14 867.08,-433.56 869.04,-440.29"/>
</g>
<!-- gct&#45;&gt;srm&#45;ifce -->
<g id="edge54" class="edge">
<title>gct&#45;&gt;srm&#45;ifce</title>
<path fill="none" stroke="black" d="M658.14,-477.6C648.77,-467.86 638.02,-454.41 633,-440 627.74,-424.89 626.03,-418.4 633,-404 639.6,-390.36 651.61,-379.16 663.66,-370.63"/>
<polygon fill="black" stroke="black" points="665.94,-373.32 672.36,-364.9 662.08,-367.48 665.94,-373.32"/>
</g>
<!-- dcap -->
<g id="node49" class="node">
<title>dcap</title>
<g id="a_node49"><a xlink:href="https://github.com/conda-forge/dcap-feedstock" xlink:title="dcap">
<ellipse fill="#fde725" stroke="black" cx="675" cy="-422" rx="32.5" ry="18"/>
<text text-anchor="middle" x="675" y="-418.3" font-family="Times,serif" font-size="14.00">dcap</text>
</a>
</g>
</g>
<!-- gct&#45;&gt;dcap -->
<g id="edge53" class="edge">
<title>gct&#45;&gt;dcap</title>
<path fill="none" stroke="black" d="M675,-475.7C675,-467.98 675,-458.71 675,-450.11"/>
<polygon fill="black" stroke="black" points="678.5,-450.1 675,-440.1 671.5,-450.1 678.5,-450.1"/>
</g>
<!-- libwebsockets -->
<g id="node50" class="node">
<title>libwebsockets</title>
<g id="a_node50"><a xlink:href="https://github.com/conda-forge/libwebsockets-feedstock/pull/32" xlink:title="libwebsockets ❎">
<ellipse fill="#31688e" stroke="black" cx="1658" cy="-458" rx="90.5" ry="18"/>
<text text-anchor="middle" x="1658" y="-454.3" font-family="Times,serif" font-size="14.00" fill="white">libwebsockets ❎</text>
</a>
</g>
</g>
<!-- ttyd -->
<g id="node51" class="node">
<title>ttyd</title>
<g id="a_node51"><a xlink:href="https://github.com/conda-forge/ttyd-feedstock" xlink:title="ttyd">
<ellipse fill="#fde725" stroke="black" cx="1658" cy="-386" rx="30" ry="18"/>
<text text-anchor="middle" x="1658" y="-382.3" font-family="Times,serif" font-size="14.00">ttyd</text>
</a>
</g>
</g>
<!-- libwebsockets&#45;&gt;ttyd -->
<g id="edge55" class="edge">
<title>libwebsockets&#45;&gt;ttyd</title>
<path fill="none" stroke="black" d="M1658,-439.7C1658,-431.98 1658,-422.71 1658,-414.11"/>
<polygon fill="black" stroke="black" points="1661.5,-414.1 1658,-404.1 1654.5,-414.1 1661.5,-414.1"/>
</g>
<!-- uftp -->
<g id="node53" class="node">
<title>uftp</title>
<g id="a_node53"><a xlink:href="https://github.com/conda-forge/uftp-feedstock/pull/2" xlink:title="uftp ❎">
<ellipse fill="#31688e" stroke="black" cx="1422" cy="-1042" rx="44.39" ry="18"/>
<text text-anchor="middle" x="1422" y="-1038.3" font-family="Times,serif" font-size="14.00" fill="white">uftp ❎</text>
</a>
</g>
</g>
<!-- htcondor&#45;&gt;uftp -->
<!-- nix -->
<g id="node54" class="node">
<title>nix</title>
<g id="a_node54"><a xlink:href="https://github.com/conda-forge/nix-feedstock/pull/19" xlink:title="nix ✓">
<ellipse fill="#31688e" stroke="black" cx="1422" cy="-970" rx="32.5" ry="18"/>
<text text-anchor="middle" x="1422" y="-966.3" font-family="Times,serif" font-size="14.00" fill="white">nix ✓</text>
</a>
</g>
</g>
<!-- uftp&#45;&gt;nix -->
<!-- cyclonedds -->
<g id="node55" class="node">
<title>cyclonedds</title>
<g id="a_node55"><a xlink:href="https://github.com/conda-forge/cyclonedds-feedstock/pull/2" xlink:title="cyclonedds ❎">
<ellipse fill="#31688e" stroke="black" cx="1422" cy="-898" rx="76.09" ry="18"/>
<text text-anchor="middle" x="1422" y="-894.3" font-family="Times,serif" font-size="14.00" fill="white">cyclonedds ❎</text>
</a>
</g>
</g>
<!-- nix&#45;&gt;cyclonedds -->
<!-- createrepo_c -->
<g id="node56" class="node">
<title>createrepo_c</title>
<g id="a_node56"><a xlink:href="https://github.com/conda-forge/createrepo_c-feedstock" xlink:title="createrepo_c">
<ellipse fill="#ff8c00" stroke="black" cx="1422" cy="-826" rx="70.39" ry="18"/>
<text text-anchor="middle" x="1422" y="-822.3" font-family="Times,serif" font-size="14.00">createrepo_c</text>
</a>
</g>
</g>
<!-- cyclonedds&#45;&gt;createrepo_c -->
<!-- glib&#45;networking -->
<g id="node59" class="node">
<title>glib&#45;networking</title>
<g id="a_node59"><a xlink:href="https://github.com/conda-forge/glib-networking-feedstock" xlink:title="glib networking">
<ellipse fill="#ff8c00" stroke="black" cx="1422" cy="-754" rx="84" ry="18"/>
<text text-anchor="middle" x="1422" y="-750.3" font-family="Times,serif" font-size="14.00">glib networking</text>
</a>
</g>
</g>
<!-- createrepo_c&#45;&gt;glib&#45;networking -->
<!-- serf -->
<g id="node57" class="node">
<title>serf</title>
<g id="a_node57"><a xlink:href="https://github.com/conda-forge/serf-feedstock/pull/2" xlink:title="serf ✓">
<ellipse fill="#31688e" stroke="black" cx="1422" cy="-90" rx="36.5" ry="18"/>
<text text-anchor="middle" x="1422" y="-86.3" font-family="Times,serif" font-size="14.00" fill="white">serf ✓</text>
</a>
</g>
</g>
<!-- subversion -->
<g id="node58" class="node">
<title>subversion</title>
<g id="a_node58"><a xlink:href="https://github.com/conda-forge/subversion-feedstock" xlink:title="subversion">
<ellipse fill="#fde725" stroke="black" cx="1422" cy="-18" rx="61.99" ry="18"/>
<text text-anchor="middle" x="1422" y="-14.3" font-family="Times,serif" font-size="14.00">subversion</text>
</a>
</g>
</g>
<!-- serf&#45;&gt;subversion -->
<g id="edge61" class="edge">
<title>serf&#45;&gt;subversion</title>
<path fill="none" stroke="black" d="M1422,-71.7C1422,-63.98 1422,-54.71 1422,-46.11"/>
<polygon fill="black" stroke="black" points="1425.5,-46.1 1422,-36.1 1418.5,-46.1 1425.5,-46.1"/>
</g>
<!-- pineappl -->
<g id="node60" class="node">
<title>pineappl</title>
<g id="a_node60"><a xlink:href="https://github.com/conda-forge/pineappl-feedstock/pull/8" xlink:title="pineappl ❎">
<ellipse fill="#31688e" stroke="black" cx="1422" cy="-710" rx="65" ry="18"/>
<text text-anchor="middle" x="1422" y="-706.3" font-family="Times,serif" font-size="14.00" fill="white">pineappl ❎</text>
</a>
</g>
</g>
<!-- s2n -->
<g id="node61" class="node">
<title>s2n</title>
<g id="a_node61"><a xlink:href="https://github.com/conda-forge/s2n-feedstock/pull/45" xlink:title="s2n ❎">
<ellipse fill="#31688e" stroke="black" cx="1422" cy="-638" rx="41.69" ry="18"/>
<text text-anchor="middle" x="1422" y="-634.3" font-family="Times,serif" font-size="14.00" fill="white">s2n ❎</text>
</a>
</g>
</g>
<!-- pineappl&#45;&gt;s2n -->
<!-- panda3d -->
<g id="node63" class="node">
<title>panda3d</title>
<g id="a_node63"><a xlink:href="https://github.com/conda-forge/panda3d-feedstock/pull/6" xlink:title="panda3d ✓">
<ellipse fill="#31688e" stroke="black" cx="1422" cy="-566" rx="58" ry="18"/>
<text text-anchor="middle" x="1422" y="-562.3" font-family="Times,serif" font-size="14.00" fill="white">panda3d ✓</text>
</a>
</g>
</g>
<!-- s2n&#45;&gt;panda3d -->
<!-- libmamba -->
<g id="node62" class="node">
<title>libmamba</title>
<g id="a_node62"><a xlink:href="https://github.com/conda-forge/libmamba-feedstock/pull/41" xlink:title="libmamba ✓">
<ellipse fill="#31688e" stroke="black" cx="818" cy="-1222" rx="63.89" ry="18"/>
<text text-anchor="middle" x="818" y="-1218.3" font-family="Times,serif" font-size="14.00" fill="white">libmamba ✓</text>
</a>
</g>
</g>
<!-- libmamba&#45;&gt;mamba -->
<g id="edge64" class="edge">
<title>libmamba&#45;&gt;mamba</title>
<path fill="none" stroke="black" d="M795.5,-1204.76C782.03,-1195.04 764.75,-1182.57 750.23,-1172.09"/>
<polygon fill="black" stroke="black" points="752.2,-1169.2 742.05,-1166.19 748.11,-1174.88 752.2,-1169.2"/>
</g>
<!-- wasmer -->
<g id="node64" class="node">
<title>wasmer</title>
<g id="a_node64"><a xlink:href="https://github.com/conda-forge/wasmer-feedstock/pull/11" xlink:title="wasmer ❎">
<ellipse fill="#31688e" stroke="black" cx="1422" cy="-494" rx="61.99" ry="18"/>
<text text-anchor="middle" x="1422" y="-490.3" font-family="Times,serif" font-size="14.00" fill="white">wasmer ❎</text>
</a>
</g>
</g>
<!-- panda3d&#45;&gt;wasmer -->
<!-- libxmlsec1 -->
<g id="node65" class="node">
<title>libxmlsec1</title>
<g id="a_node65"><a xlink:href="https://github.com/conda-forge/libxmlsec1-feedstock/pull/3" xlink:title="libxmlsec1 ❎">
<ellipse fill="#31688e" stroke="black" cx="1422" cy="-422" rx="74.99" ry="18"/>
<text text-anchor="middle" x="1422" y="-418.3" font-family="Times,serif" font-size="14.00" fill="white">libxmlsec1 ❎</text>
</a>
</g>
</g>
<!-- wasmer&#45;&gt;libxmlsec1 -->
<!-- go&#45;ipfs -->
<g id="node66" class="node">
<title>go&#45;ipfs</title>
<g id="a_node66"><a xlink:href="https://github.com/conda-forge/go-ipfs-feedstock/pull/8" xlink:title="go ipfs ❎">
<ellipse fill="#31688e" stroke="black" cx="1422" cy="-350" rx="56" ry="18"/>
<text text-anchor="middle" x="1422" y="-346.3" font-family="Times,serif" font-size="14.00" fill="white">go ipfs ❎</text>
</a>
</g>
</g>
<!-- libxmlsec1&#45;&gt;go&#45;ipfs -->
<!-- aws&#45;c&#45;s3 -->
<g id="node67" class="node">
<title>aws&#45;c&#45;s3</title>
<g id="a_node67"><a xlink:href="https://github.com/conda-forge/aws-c-s3-feedstock" xlink:title="aws c s3">
<ellipse fill="#ff8c00" stroke="black" cx="1422" cy="-278" rx="50.09" ry="18"/>
<text text-anchor="middle" x="1422" y="-274.3" font-family="Times,serif" font-size="14.00">aws c s3</text>
</a>
</g>
</g>
<!-- go&#45;ipfs&#45;&gt;aws&#45;c&#45;s3 -->
<!-- php -->
<g id="node69" class="node">
<title>php</title>
<g id="a_node69"><a xlink:href="https://github.com/conda-forge/php-feedstock/pull/17" xlink:title="php ❎">
<ellipse fill="#31688e" stroke="black" cx="1422" cy="-206" rx="42.49" ry="18"/>
<text text-anchor="middle" x="1422" y="-202.3" font-family="Times,serif" font-size="14.00" fill="white">php ❎</text>
</a>
</g>
</g>
<!-- aws&#45;c&#45;s3&#45;&gt;php -->
<!-- tensorboard&#45;data&#45;server -->
<g id="node68" class="node">
<title>tensorboard&#45;data&#45;server</title>
<g id="a_node68"><a xlink:href="https://github.com/conda-forge/tensorboard-data-server-feedstock/pull/9" xlink:title="tensorboard data server ❎">
<ellipse fill="#31688e" stroke="black" cx="598" cy="-1222" rx="138" ry="18"/>
<text text-anchor="middle" x="598" y="-1218.3" font-family="Times,serif" font-size="14.00" fill="white">tensorboard data server ❎</text>
</a>
</g>
</g>
<!-- tensorboard&#45;data&#45;server&#45;&gt;tensorflow -->
<g id="edge70" class="edge">
<title>tensorboard&#45;data&#45;server&#45;&gt;tensorflow</title>
<path fill="none" stroke="black" d="M598,-1203.7C598,-1195.98 598,-1186.71 598,-1178.11"/>
<polygon fill="black" stroke="black" points="601.5,-1178.1 598,-1168.1 594.5,-1178.1 601.5,-1178.1"/>
</g>
<!-- oxigraph -->
<g id="node70" class="node">
<title>oxigraph</title>
<g id="a_node70"><a xlink:href="https://github.com/conda-forge/oxigraph-feedstock/pull/5" xlink:title="oxigraph ✓">
<ellipse fill="#31688e" stroke="black" cx="1422" cy="-134" rx="59.29" ry="18"/>
<text text-anchor="middle" x="1422" y="-130.3" font-family="Times,serif" font-size="14.00" fill="white">oxigraph ✓</text>
</a>
</g>
</g>
<!-- php&#45;&gt;oxigraph -->
</g>
</svg>
