<?xml version="1.0" encoding="UTF-8" standalone="no"?>
<!DOCTYPE svg PUBLIC "-//W3C//DTD SVG 1.1//EN"
 "http://www.w3.org/Graphics/SVG/1.1/DTD/svg11.dtd">
<!-- Generated by graphviz version 3.0.0 (20220315.2325)
 -->
<!-- Pages: 1 -->
<svg width="407pt" height="116pt"
 viewBox="0.00 0.00 407.49 116.00" xmlns="http://www.w3.org/2000/svg" xmlns:xlink="http://www.w3.org/1999/xlink">
<g id="graph0" class="graph" transform="scale(1 1) rotate(0) translate(4 112)">
<polygon fill="white" stroke="transparent" points="-4,4 -4,-112 403.49,-112 403.49,4 -4,4"/>
<!-- freeimage -->
<g id="node1" class="node">
<title>freeimage</title>
<g id="a_node1"><a xlink:href="https://github.com/conda-forge/freeimage-feedstock/pull/29" xlink:title="freeimage ❎">
<ellipse fill="#31688e" stroke="black" cx="71.49" cy="-90" rx="71.49" ry="18"/>
<text text-anchor="middle" x="71.49" y="-86.3" font-family="Times,serif" font-size="14.00" fill="white">freeimage ❎</text>
</a>
</g>
</g>
<!-- ogre -->
<g id="node2" class="node">
<title>ogre</title>
<g id="a_node2"><a xlink:href="https://github.com/conda-forge/ogre-feedstock" xlink:title="ogre">
<ellipse fill="#fde725" stroke="black" cx="71.49" cy="-18" rx="31.7" ry="18"/>
<text text-anchor="middle" x="71.49" y="-14.3" font-family="Times,serif" font-size="14.00">ogre</text>
</a>
</g>
</g>
<!-- freeimage&#45;&gt;ogre -->
<g id="edge1" class="edge">
<title>freeimage&#45;&gt;ogre</title>
<path fill="none" stroke="black" d="M71.49,-71.7C71.49,-63.98 71.49,-54.71 71.49,-46.11"/>
<polygon fill="black" stroke="black" points="74.99,-46.1 71.49,-36.1 67.99,-46.1 74.99,-46.1"/>
</g>
<!-- enblend -->
<g id="node3" class="node">
<title>enblend</title>
<g id="a_node3"><a xlink:href="https://github.com/conda-forge/enblend-feedstock/pull/12" xlink:title="enblend ✓">
<ellipse fill="#31688e" stroke="black" cx="206.49" cy="-90" rx="55.49" ry="18"/>
<text text-anchor="middle" x="206.49" y="-86.3" font-family="Times,serif" font-size="14.00" fill="white">enblend ✓</text>
</a>
</g>
</g>
<!-- hugin -->
<g id="node4" class="node">
<title>hugin</title>
<g id="a_node4"><a xlink:href="https://github.com/conda-forge/hugin-feedstock" xlink:title="hugin">
<ellipse fill="#fde725" stroke="black" cx="206.49" cy="-18" rx="37.09" ry="18"/>
<text text-anchor="middle" x="206.49" y="-14.3" font-family="Times,serif" font-size="14.00">hugin</text>
</a>
</g>
</g>
<!-- enblend&#45;&gt;hugin -->
<g id="edge2" class="edge">
<title>enblend&#45;&gt;hugin</title>
<path fill="none" stroke="black" d="M206.49,-71.7C206.49,-63.98 206.49,-54.71 206.49,-46.11"/>
<polygon fill="black" stroke="black" points="209.99,-46.1 206.49,-36.1 202.99,-46.1 209.99,-46.1"/>
</g>
<!-- panda3d -->
<g id="node5" class="node">
<title>panda3d</title>
<g id="a_node5"><a xlink:href="https://github.com/conda-forge/panda3d-feedstock/pull/12" xlink:title="panda3d ❎">
<ellipse fill="#31688e" stroke="black" cx="334.49" cy="-54" rx="64.99" ry="18"/>
<text text-anchor="middle" x="334.49" y="-50.3" font-family="Times,serif" font-size="14.00" fill="white">panda3d ❎</text>
</a>
</g>
</g>
</g>
</svg>
