<?xml version="1.0" encoding="UTF-8" standalone="no"?>
<!DOCTYPE svg PUBLIC "-//W3C//DTD SVG 1.1//EN"
 "http://www.w3.org/Graphics/SVG/1.1/DTD/svg11.dtd">
<!-- Generated by graphviz version 2.50.0 (20211205.1242)
 -->
<!-- Pages: 1 -->
<svg width="1789pt" height="1356pt"
 viewBox="0.00 0.00 1789.19 1356.00" xmlns="http://www.w3.org/2000/svg" xmlns:xlink="http://www.w3.org/1999/xlink">
<g id="graph0" class="graph" transform="scale(1 1) rotate(0) translate(4 1352)">
<polygon fill="white" stroke="transparent" points="-4,4 -4,-1352 1785.19,-1352 1785.19,4 -4,4"/>
<!-- airflow -->
<g id="node1" class="node">
<title>airflow</title>
<g id="a_node1"><a xlink:href="https://github.com/conda-forge/airflow-feedstock" xlink:title="airflow">
<ellipse fill="#fde725" stroke="black" cx="318" cy="-1006" rx="42.49" ry="18"/>
<text text-anchor="middle" x="318" y="-1002.3" font-family="Times,serif" font-size="14.00">airflow</text>
</a>
</g>
</g>
<!-- arrow&#45;cpp -->
<g id="node2" class="node">
<title>arrow&#45;cpp</title>
<g id="a_node2"><a xlink:href="https://github.com/conda-forge/arrow-cpp-feedstock" xlink:title="arrow cpp">
<ellipse fill="#fde725" stroke="black" cx="206" cy="-1078" rx="58" ry="18"/>
<text text-anchor="middle" x="206" y="-1074.3" font-family="Times,serif" font-size="14.00">arrow cpp</text>
</a>
</g>
</g>
<!-- arrow&#45;cpp&#45;&gt;airflow -->
<g id="edge1" class="edge">
<title>arrow&#45;cpp&#45;&gt;airflow</title>
<path fill="none" stroke="black" d="M230.58,-1061.64C246.92,-1051.43 268.54,-1037.91 286.19,-1026.88"/>
<polygon fill="black" stroke="black" points="288.38,-1029.64 295.01,-1021.37 284.67,-1023.7 288.38,-1029.64"/>
</g>
<!-- omniscidb -->
<g id="node3" class="node">
<title>omniscidb</title>
<g id="a_node3"><a xlink:href="https://github.com/conda-forge/omniscidb-feedstock" xlink:title="omniscidb">
<ellipse fill="#fde725" stroke="black" cx="162" cy="-1006" rx="58" ry="18"/>
<text text-anchor="middle" x="162" y="-1002.3" font-family="Times,serif" font-size="14.00">omniscidb</text>
</a>
</g>
</g>
<!-- arrow&#45;cpp&#45;&gt;omniscidb -->
<g id="edge2" class="edge">
<title>arrow&#45;cpp&#45;&gt;omniscidb</title>
<path fill="none" stroke="black" d="M195.35,-1060.05C190.16,-1051.8 183.81,-1041.7 178.05,-1032.54"/>
<polygon fill="black" stroke="black" points="180.84,-1030.39 172.55,-1023.79 174.91,-1034.12 180.84,-1030.39"/>
</g>
<!-- erlang -->
<g id="node4" class="node">
<title>erlang</title>
<g id="a_node4"><a xlink:href="https://github.com/conda-forge/erlang-feedstock/pull/105" xlink:title="erlang ❎">
<ellipse fill="#31688e" stroke="black" cx="1672" cy="-1330" rx="54.69" ry="18"/>
<text text-anchor="middle" x="1672" y="-1326.3" font-family="Times,serif" font-size="14.00" fill="white">erlang ❎</text>
</a>
</g>
</g>
<!-- m2crypto -->
<g id="node5" class="node">
<title>m2crypto</title>
<g id="a_node5"><a xlink:href="https://github.com/conda-forge/m2crypto-feedstock/pull/63" xlink:title="m2crypto ❎">
<ellipse fill="#31688e" stroke="black" cx="1672" cy="-1258" rx="69.59" ry="18"/>
<text text-anchor="middle" x="1672" y="-1254.3" font-family="Times,serif" font-size="14.00" fill="white">m2crypto ❎</text>
</a>
</g>
</g>
<!-- erlang&#45;&gt;m2crypto -->
<!-- mysql&#45;connector&#45;c -->
<g id="node8" class="node">
<title>mysql&#45;connector&#45;c</title>
<g id="a_node8"><a xlink:href="https://github.com/conda-forge/mysql-connector-c-feedstock/pull/18" xlink:title="mysql connector c ❎">
<ellipse fill="#31688e" stroke="black" cx="1672" cy="-1186" rx="109.38" ry="18"/>
<text text-anchor="middle" x="1672" y="-1182.3" font-family="Times,serif" font-size="14.00" fill="white">mysql connector c ❎</text>
</a>
</g>
</g>
<!-- m2crypto&#45;&gt;mysql&#45;connector&#45;c -->
<!-- librdkafka -->
<g id="node6" class="node">
<title>librdkafka</title>
<g id="a_node6"><a xlink:href="https://github.com/conda-forge/librdkafka-feedstock/pull/67" xlink:title="librdkafka ✓">
<ellipse fill="#31688e" stroke="black" cx="65" cy="-1078" rx="65" ry="18"/>
<text text-anchor="middle" x="65" y="-1074.3" font-family="Times,serif" font-size="14.00" fill="white">librdkafka ✓</text>
</a>
</g>
</g>
<!-- librdkafka&#45;&gt;omniscidb -->
<g id="edge4" class="edge">
<title>librdkafka&#45;&gt;omniscidb</title>
<path fill="none" stroke="black" d="M87.5,-1060.76C100.57,-1051.33 117.21,-1039.32 131.46,-1029.04"/>
<polygon fill="black" stroke="black" points="133.9,-1031.6 139.96,-1022.91 129.8,-1025.92 133.9,-1031.6"/>
</g>
<!-- lighttpd -->
<g id="node7" class="node">
<title>lighttpd</title>
<g id="a_node7"><a xlink:href="https://github.com/conda-forge/lighttpd-feedstock" xlink:title="lighttpd">
<ellipse fill="#fde725" stroke="black" cx="962" cy="-1078" rx="48.19" ry="18"/>
<text text-anchor="middle" x="962" y="-1074.3" font-family="Times,serif" font-size="14.00">lighttpd</text>
</a>
</g>
</g>
<!-- uwsgi -->
<g id="node16" class="node">
<title>uwsgi</title>
<g id="a_node16"><a xlink:href="https://github.com/conda-forge/uwsgi-feedstock" xlink:title="uwsgi">
<ellipse fill="#ff8c00" stroke="black" cx="1672" cy="-1114" rx="38.5" ry="18"/>
<text text-anchor="middle" x="1672" y="-1110.3" font-family="Times,serif" font-size="14.00">uwsgi</text>
</a>
</g>
</g>
<!-- mysql&#45;connector&#45;c&#45;&gt;uwsgi -->
<!-- mysql -->
<g id="node9" class="node">
<title>mysql</title>
<g id="a_node9"><a xlink:href="https://github.com/conda-forge/mysql-feedstock/pull/57" xlink:title="mysql ❎">
<ellipse fill="#31688e" stroke="black" cx="1055" cy="-1150" rx="52.79" ry="18"/>
<text text-anchor="middle" x="1055" y="-1146.3" font-family="Times,serif" font-size="14.00" fill="white">mysql ❎</text>
</a>
</g>
</g>
<!-- mysql&#45;&gt;lighttpd -->
<g id="edge6" class="edge">
<title>mysql&#45;&gt;lighttpd</title>
<path fill="none" stroke="black" d="M1033.9,-1133.12C1021.12,-1123.5 1004.64,-1111.1 990.69,-1100.59"/>
<polygon fill="black" stroke="black" points="992.48,-1097.56 982.38,-1094.34 988.27,-1103.15 992.48,-1097.56"/>
</g>
<!-- qt -->
<g id="node10" class="node">
<title>qt</title>
<g id="a_node10"><a xlink:href="https://github.com/conda-forge/qt-feedstock" xlink:title="qt">
<ellipse fill="#fde725" stroke="black" cx="1055" cy="-1078" rx="27" ry="18"/>
<text text-anchor="middle" x="1055" y="-1074.3" font-family="Times,serif" font-size="14.00">qt</text>
</a>
</g>
</g>
<!-- mysql&#45;&gt;qt -->
<g id="edge7" class="edge">
<title>mysql&#45;&gt;qt</title>
<path fill="none" stroke="black" d="M1055,-1131.7C1055,-1123.98 1055,-1114.71 1055,-1106.11"/>
<polygon fill="black" stroke="black" points="1058.5,-1106.1 1055,-1096.1 1051.5,-1106.1 1058.5,-1106.1"/>
</g>
<!-- mysql&#45;connector&#45;cpp -->
<g id="node11" class="node">
<title>mysql&#45;connector&#45;cpp</title>
<g id="a_node11"><a xlink:href="https://github.com/conda-forge/mysql-connector-cpp-feedstock" xlink:title="mysql connector cpp">
<ellipse fill="#fde725" stroke="black" cx="1203" cy="-1006" rx="106.68" ry="18"/>
<text text-anchor="middle" x="1203" y="-1002.3" font-family="Times,serif" font-size="14.00">mysql connector cpp</text>
</a>
</g>
</g>
<!-- mysql&#45;&gt;mysql&#45;connector&#45;cpp -->
<g id="edge8" class="edge">
<title>mysql&#45;&gt;mysql&#45;connector&#45;cpp</title>
<path fill="none" stroke="black" d="M1071.98,-1132.71C1097.91,-1107.83 1147.53,-1060.22 1177.71,-1031.26"/>
<polygon fill="black" stroke="black" points="1180.51,-1033.43 1185.3,-1023.98 1175.66,-1028.38 1180.51,-1033.43"/>
</g>
<!-- qt&#45;&gt;airflow -->
<g id="edge9" class="edge">
<title>qt&#45;&gt;airflow</title>
<path fill="none" stroke="black" d="M1034.95,-1065.87C1029.89,-1063.53 1024.36,-1061.36 1019,-1060 738.54,-988.91 653.2,-1078.23 369,-1024 365.4,-1023.31 361.7,-1022.43 358.01,-1021.44"/>
<polygon fill="black" stroke="black" points="358.97,-1018.08 348.39,-1018.6 356.99,-1024.79 358.97,-1018.08"/>
</g>
<!-- octave -->
<g id="node12" class="node">
<title>octave</title>
<g id="a_node12"><a xlink:href="https://github.com/conda-forge/octave-feedstock" xlink:title="octave">
<ellipse fill="#fde725" stroke="black" cx="999" cy="-1006" rx="41" ry="18"/>
<text text-anchor="middle" x="999" y="-1002.3" font-family="Times,serif" font-size="14.00">octave</text>
</a>
</g>
</g>
<!-- qt&#45;&gt;octave -->
<g id="edge10" class="edge">
<title>qt&#45;&gt;octave</title>
<path fill="none" stroke="black" d="M1042.85,-1061.81C1035.64,-1052.8 1026.34,-1041.18 1018.16,-1030.95"/>
<polygon fill="black" stroke="black" points="1020.89,-1028.76 1011.91,-1023.13 1015.42,-1033.13 1020.89,-1028.76"/>
</g>
<!-- lalinference -->
<g id="node13" class="node">
<title>lalinference</title>
<g id="a_node13"><a xlink:href="https://github.com/conda-forge/lalinference-feedstock" xlink:title="lalinference">
<ellipse fill="#fde725" stroke="black" cx="460" cy="-790" rx="65.79" ry="18"/>
<text text-anchor="middle" x="460" y="-786.3" font-family="Times,serif" font-size="14.00">lalinference</text>
</a>
</g>
</g>
<!-- qt&#45;&gt;lalinference -->
<g id="edge11" class="edge">
<title>qt&#45;&gt;lalinference</title>
<path fill="none" stroke="black" d="M1056.37,-1059.77C1057.25,-1041.47 1057.01,-1011.94 1049,-988 1036.88,-951.76 1033.33,-937.88 1002,-916 859,-816.15 648,-794.97 536.12,-791.16"/>
<polygon fill="black" stroke="black" points="536.04,-787.65 525.94,-790.85 535.83,-794.65 536.04,-787.65"/>
</g>
<!-- ambertools -->
<g id="node14" class="node">
<title>ambertools</title>
<g id="a_node14"><a xlink:href="https://github.com/conda-forge/ambertools-feedstock" xlink:title="ambertools">
<ellipse fill="#fde725" stroke="black" cx="930" cy="-934" rx="63.09" ry="18"/>
<text text-anchor="middle" x="930" y="-930.3" font-family="Times,serif" font-size="14.00">ambertools</text>
</a>
</g>
</g>
<!-- qt&#45;&gt;ambertools -->
<g id="edge12" class="edge">
<title>qt&#45;&gt;ambertools</title>
<path fill="none" stroke="black" d="M1033.27,-1066.73C1003.09,-1052.38 951.83,-1027.66 949,-1024 935.44,-1006.48 931.03,-981.44 929.82,-962.38"/>
<polygon fill="black" stroke="black" points="933.31,-962.09 929.44,-952.23 926.32,-962.35 933.31,-962.09"/>
</g>
<!-- gnuradio -->
<g id="node15" class="node">
<title>gnuradio</title>
<g id="a_node15"><a xlink:href="https://github.com/conda-forge/gnuradio-feedstock" xlink:title="gnuradio">
<ellipse fill="#fde725" stroke="black" cx="850" cy="-1006" rx="52" ry="18"/>
<text text-anchor="middle" x="850" y="-1002.3" font-family="Times,serif" font-size="14.00">gnuradio</text>
</a>
</g>
</g>
<!-- qt&#45;&gt;gnuradio -->
<g id="edge13" class="edge">
<title>qt&#45;&gt;gnuradio</title>
<path fill="none" stroke="black" d="M1033.89,-1066.44C1029.05,-1064.19 1023.89,-1061.91 1019,-1060 979.51,-1044.57 933.53,-1030.38 899.51,-1020.58"/>
<polygon fill="black" stroke="black" points="900.38,-1017.19 889.8,-1017.81 898.46,-1023.92 900.38,-1017.19"/>
</g>
<!-- w3m -->
<g id="node21" class="node">
<title>w3m</title>
<g id="a_node21"><a xlink:href="https://github.com/conda-forge/w3m-feedstock/pull/11" xlink:title="w3m ❎">
<ellipse fill="#31688e" stroke="black" cx="1672" cy="-1042" rx="47.5" ry="18"/>
<text text-anchor="middle" x="1672" y="-1038.3" font-family="Times,serif" font-size="14.00" fill="white">w3m ❎</text>
</a>
</g>
</g>
<!-- uwsgi&#45;&gt;w3m -->
<!-- pylibscrypt -->
<g id="node17" class="node">
<title>pylibscrypt</title>
<g id="a_node17"><a xlink:href="https://github.com/conda-forge/pylibscrypt-feedstock" xlink:title="pylibscrypt">
<ellipse fill="#fde725" stroke="black" cx="1436" cy="-18" rx="63.09" ry="18"/>
<text text-anchor="middle" x="1436" y="-14.3" font-family="Times,serif" font-size="14.00">pylibscrypt</text>
</a>
</g>
</g>
<!-- ruby -->
<g id="node18" class="node">
<title>ruby</title>
<g id="a_node18"><a xlink:href="https://github.com/conda-forge/ruby-feedstock/pull/88" xlink:title="ruby ❎">
<ellipse fill="#31688e" stroke="black" cx="654" cy="-90" rx="46.29" ry="18"/>
<text text-anchor="middle" x="654" y="-86.3" font-family="Times,serif" font-size="14.00" fill="white">ruby ❎</text>
</a>
</g>
</g>
<!-- rb&#45;eventmachine -->
<g id="node19" class="node">
<title>rb&#45;eventmachine</title>
<g id="a_node19"><a xlink:href="https://github.com/conda-forge/rb-eventmachine-feedstock" xlink:title="rb eventmachine">
<ellipse fill="#fde725" stroke="black" cx="654" cy="-18" rx="89.08" ry="18"/>
<text text-anchor="middle" x="654" y="-14.3" font-family="Times,serif" font-size="14.00">rb eventmachine</text>
</a>
</g>
</g>
<!-- ruby&#45;&gt;rb&#45;eventmachine -->
<g id="edge15" class="edge">
<title>ruby&#45;&gt;rb&#45;eventmachine</title>
<path fill="none" stroke="black" d="M654,-71.7C654,-63.98 654,-54.71 654,-46.11"/>
<polygon fill="black" stroke="black" points="657.5,-46.1 654,-36.1 650.5,-46.1 657.5,-46.1"/>
</g>
<!-- scrypt -->
<g id="node20" class="node">
<title>scrypt</title>
<g id="a_node20"><a xlink:href="https://github.com/conda-forge/scrypt-feedstock/pull/37" xlink:title="scrypt ❎">
<ellipse fill="#31688e" stroke="black" cx="1436" cy="-90" rx="54" ry="18"/>
<text text-anchor="middle" x="1436" y="-86.3" font-family="Times,serif" font-size="14.00" fill="white">scrypt ❎</text>
</a>
</g>
</g>
<!-- scrypt&#45;&gt;pylibscrypt -->
<g id="edge16" class="edge">
<title>scrypt&#45;&gt;pylibscrypt</title>
<path fill="none" stroke="black" d="M1436,-71.7C1436,-63.98 1436,-54.71 1436,-46.11"/>
<polygon fill="black" stroke="black" points="1439.5,-46.1 1436,-36.1 1432.5,-46.1 1439.5,-46.1"/>
</g>
<!-- postgres&#45;xl -->
<g id="node22" class="node">
<title>postgres&#45;xl</title>
<g id="a_node22"><a xlink:href="https://github.com/conda-forge/postgres-xl-feedstock/pull/8" xlink:title="postgres xl ❎">
<ellipse fill="#31688e" stroke="black" cx="1672" cy="-970" rx="76.89" ry="18"/>
<text text-anchor="middle" x="1672" y="-966.3" font-family="Times,serif" font-size="14.00" fill="white">postgres xl ❎</text>
</a>
</g>
</g>
<!-- w3m&#45;&gt;postgres&#45;xl -->
<!-- sstp&#45;client -->
<g id="node23" class="node">
<title>sstp&#45;client</title>
<g id="a_node23"><a xlink:href="https://github.com/conda-forge/sstp-client-feedstock/pull/7" xlink:title="sstp client ✓">
<ellipse fill="#31688e" stroke="black" cx="1672" cy="-898" rx="66.5" ry="18"/>
<text text-anchor="middle" x="1672" y="-894.3" font-family="Times,serif" font-size="14.00" fill="white">sstp client ✓</text>
</a>
</g>
</g>
<!-- postgres&#45;xl&#45;&gt;sstp&#45;client -->
<!-- pycurl -->
<g id="node33" class="node">
<title>pycurl</title>
<g id="a_node33"><a xlink:href="https://github.com/conda-forge/pycurl-feedstock/pull/19" xlink:title="pycurl ❎">
<ellipse fill="#31688e" stroke="black" cx="1672" cy="-826" rx="54" ry="18"/>
<text text-anchor="middle" x="1672" y="-822.3" font-family="Times,serif" font-size="14.00" fill="white">pycurl ❎</text>
</a>
</g>
</g>
<!-- sstp&#45;client&#45;&gt;pycurl -->
<!-- cryptography -->
<g id="node24" class="node">
<title>cryptography</title>
<g id="a_node24"><a xlink:href="https://github.com/conda-forge/cryptography-feedstock/pull/80" xlink:title="cryptography ❎">
<ellipse fill="#31688e" stroke="black" cx="369" cy="-1078" rx="87.18" ry="18"/>
<text text-anchor="middle" x="369" y="-1074.3" font-family="Times,serif" font-size="14.00" fill="white">cryptography ❎</text>
</a>
</g>
</g>
<!-- cryptography&#45;&gt;airflow -->
<g id="edge20" class="edge">
<title>cryptography&#45;&gt;airflow</title>
<path fill="none" stroke="black" d="M356.65,-1060.05C350.42,-1051.5 342.75,-1040.97 335.89,-1031.56"/>
<polygon fill="black" stroke="black" points="338.6,-1029.33 329.88,-1023.31 332.94,-1033.45 338.6,-1029.33"/>
</g>
<!-- cryptography&#45;&gt;omniscidb -->
<g id="edge21" class="edge">
<title>cryptography&#45;&gt;omniscidb</title>
<path fill="none" stroke="black" d="M325.61,-1062.33C291.58,-1050.82 244.29,-1034.83 209.3,-1022.99"/>
<polygon fill="black" stroke="black" points="210.37,-1019.66 199.78,-1019.77 208.13,-1026.29 210.37,-1019.66"/>
</g>
<!-- cryptography&#45;&gt;lalinference -->
<g id="edge22" class="edge">
<title>cryptography&#45;&gt;lalinference</title>
<path fill="none" stroke="black" d="M318.43,-1063.25C298.83,-1055.19 278.4,-1042.76 267,-1024 240.08,-979.67 230.26,-918.44 297,-844 320.13,-818.2 355.95,-804.9 388.12,-798.08"/>
<polygon fill="black" stroke="black" points="388.83,-801.51 397.97,-796.16 387.49,-794.63 388.83,-801.51"/>
</g>
<!-- cryptography&#45;&gt;gnuradio -->
<g id="edge23" class="edge">
<title>cryptography&#45;&gt;gnuradio</title>
<path fill="none" stroke="black" d="M431.39,-1065.35C442.56,-1063.43 454.11,-1061.57 465,-1060 608.41,-1039.36 646.75,-1051.54 789,-1024 793.43,-1023.14 798.01,-1022.12 802.57,-1021.01"/>
<polygon fill="black" stroke="black" points="803.66,-1024.35 812.48,-1018.48 801.92,-1017.57 803.66,-1024.35"/>
</g>
<!-- tensorflow -->
<g id="node25" class="node">
<title>tensorflow</title>
<g id="a_node25"><a xlink:href="https://github.com/conda-forge/tensorflow-feedstock" xlink:title="tensorflow">
<ellipse fill="#fde725" stroke="black" cx="612" cy="-1006" rx="60" ry="18"/>
<text text-anchor="middle" x="612" y="-1002.3" font-family="Times,serif" font-size="14.00">tensorflow</text>
</a>
</g>
</g>
<!-- cryptography&#45;&gt;tensorflow -->
<g id="edge24" class="edge">
<title>cryptography&#45;&gt;tensorflow</title>
<path fill="none" stroke="black" d="M417.59,-1063C459.01,-1051.07 518.36,-1033.97 560.57,-1021.82"/>
<polygon fill="black" stroke="black" points="561.73,-1025.12 570.37,-1018.99 559.79,-1018.4 561.73,-1025.12"/>
</g>
<!-- lal -->
<g id="node26" class="node">
<title>lal</title>
<g id="a_node26"><a xlink:href="https://github.com/conda-forge/lal-feedstock" xlink:title="lal">
<ellipse fill="#fde725" stroke="black" cx="405" cy="-1006" rx="27" ry="18"/>
<text text-anchor="middle" x="405" y="-1002.3" font-family="Times,serif" font-size="14.00">lal</text>
</a>
</g>
</g>
<!-- cryptography&#45;&gt;lal -->
<g id="edge25" class="edge">
<title>cryptography&#45;&gt;lal</title>
<path fill="none" stroke="black" d="M377.71,-1060.05C381.98,-1051.77 387.2,-1041.62 391.92,-1032.42"/>
<polygon fill="black" stroke="black" points="395.15,-1033.8 396.61,-1023.31 388.93,-1030.6 395.15,-1033.8"/>
</g>
<!-- mamba -->
<g id="node27" class="node">
<title>mamba</title>
<g id="a_node27"><a xlink:href="https://github.com/conda-forge/mamba-feedstock" xlink:title="mamba">
<ellipse fill="#fde725" stroke="black" cx="735" cy="-1006" rx="45" ry="18"/>
<text text-anchor="middle" x="735" y="-1002.3" font-family="Times,serif" font-size="14.00">mamba</text>
</a>
</g>
</g>
<!-- cryptography&#45;&gt;mamba -->
<g id="edge26" class="edge">
<title>cryptography&#45;&gt;mamba</title>
<path fill="none" stroke="black" d="M432.5,-1065.66C443.34,-1063.75 454.49,-1061.81 465,-1060 560.92,-1043.51 586.35,-1046.67 681,-1024 684.61,-1023.14 688.32,-1022.16 692.03,-1021.12"/>
<polygon fill="black" stroke="black" points="693.18,-1024.43 701.79,-1018.26 691.21,-1017.71 693.18,-1024.43"/>
</g>
<!-- mlflow -->
<g id="node28" class="node">
<title>mlflow</title>
<g id="a_node28"><a xlink:href="https://github.com/conda-forge/mlflow-feedstock" xlink:title="mlflow">
<ellipse fill="#fde725" stroke="black" cx="492" cy="-1006" rx="41.69" ry="18"/>
<text text-anchor="middle" x="492" y="-1002.3" font-family="Times,serif" font-size="14.00">mlflow</text>
</a>
</g>
</g>
<!-- cryptography&#45;&gt;mlflow -->
<g id="edge27" class="edge">
<title>cryptography&#45;&gt;mlflow</title>
<path fill="none" stroke="black" d="M397.22,-1060.94C415.59,-1050.49 439.62,-1036.81 458.9,-1025.84"/>
<polygon fill="black" stroke="black" points="460.69,-1028.85 467.65,-1020.86 457.23,-1022.76 460.69,-1028.85"/>
</g>
<!-- lal&#45;&gt;lalinference -->
<g id="edge28" class="edge">
<title>lal&#45;&gt;lalinference</title>
<path fill="none" stroke="black" d="M387.14,-992.24C350.41,-964.43 272.8,-896.6 310,-844 327.91,-818.68 358.97,-805.37 388.2,-798.41"/>
<polygon fill="black" stroke="black" points="388.99,-801.82 398.02,-796.29 387.51,-794.98 388.99,-801.82"/>
</g>
<!-- lalframe -->
<g id="node29" class="node">
<title>lalframe</title>
<g id="a_node29"><a xlink:href="https://github.com/conda-forge/lalframe-feedstock" xlink:title="lalframe">
<ellipse fill="#fde725" stroke="black" cx="531" cy="-934" rx="49.5" ry="18"/>
<text text-anchor="middle" x="531" y="-930.3" font-family="Times,serif" font-size="14.00">lalframe</text>
</a>
</g>
</g>
<!-- lal&#45;&gt;lalframe -->
<g id="edge29" class="edge">
<title>lal&#45;&gt;lalframe</title>
<path fill="none" stroke="black" d="M425.24,-993.75C444.32,-983.16 473.3,-967.06 496.1,-954.39"/>
<polygon fill="black" stroke="black" points="498.09,-957.29 505.13,-949.37 494.69,-951.17 498.09,-957.29"/>
</g>
<!-- lalsimulation -->
<g id="node30" class="node">
<title>lalsimulation</title>
<g id="a_node30"><a xlink:href="https://github.com/conda-forge/lalsimulation-feedstock" xlink:title="lalsimulation">
<ellipse fill="#fde725" stroke="black" cx="390" cy="-862" rx="71" ry="18"/>
<text text-anchor="middle" x="390" y="-858.3" font-family="Times,serif" font-size="14.00">lalsimulation</text>
</a>
</g>
</g>
<!-- lal&#45;&gt;lalsimulation -->
<g id="edge30" class="edge">
<title>lal&#45;&gt;lalsimulation</title>
<path fill="none" stroke="black" d="M403.19,-987.87C400.63,-963.67 395.94,-919.21 392.89,-890.39"/>
<polygon fill="black" stroke="black" points="396.35,-889.77 391.82,-880.19 389.39,-890.5 396.35,-889.77"/>
</g>
<!-- lalpulsar -->
<g id="node31" class="node">
<title>lalpulsar</title>
<g id="a_node31"><a xlink:href="https://github.com/conda-forge/lalpulsar-feedstock" xlink:title="lalpulsar">
<ellipse fill="#fde725" stroke="black" cx="531" cy="-862" rx="51.5" ry="18"/>
<text text-anchor="middle" x="531" y="-858.3" font-family="Times,serif" font-size="14.00">lalpulsar</text>
</a>
</g>
</g>
<!-- lal&#45;&gt;lalpulsar -->
<g id="edge31" class="edge">
<title>lal&#45;&gt;lalpulsar</title>
<path fill="none" stroke="black" d="M415.52,-989.17C428.05,-970.79 450.04,-939.95 472,-916 481.79,-905.33 493.49,-894.47 503.89,-885.4"/>
<polygon fill="black" stroke="black" points="506.23,-888 511.53,-878.83 501.66,-882.69 506.23,-888"/>
</g>
<!-- lalframe&#45;&gt;lalinference -->
<g id="edge33" class="edge">
<title>lalframe&#45;&gt;lalinference</title>
<path fill="none" stroke="black" d="M556.13,-918.23C569.15,-909.05 583.8,-895.96 591,-880 597.58,-865.41 599.94,-857.27 591,-844 576.35,-822.27 551.12,-809.45 526.68,-801.88"/>
<polygon fill="black" stroke="black" points="527.6,-798.5 517.02,-799.14 525.69,-805.24 527.6,-798.5"/>
</g>
<!-- lalframe&#45;&gt;lalpulsar -->
<g id="edge34" class="edge">
<title>lalframe&#45;&gt;lalpulsar</title>
<path fill="none" stroke="black" d="M531,-915.7C531,-907.98 531,-898.71 531,-890.11"/>
<polygon fill="black" stroke="black" points="534.5,-890.1 531,-880.1 527.5,-890.1 534.5,-890.1"/>
</g>
<!-- lalsimulation&#45;&gt;lalinference -->
<g id="edge35" class="edge">
<title>lalsimulation&#45;&gt;lalinference</title>
<path fill="none" stroke="black" d="M406.59,-844.41C415.48,-835.52 426.59,-824.41 436.37,-814.63"/>
<polygon fill="black" stroke="black" points="438.93,-817.02 443.53,-807.47 433.98,-812.07 438.93,-817.02"/>
</g>
<!-- lalpulsar&#45;&gt;lalinference -->
<g id="edge36" class="edge">
<title>lalpulsar&#45;&gt;lalinference</title>
<path fill="none" stroke="black" d="M514.53,-844.76C505.52,-835.88 494.19,-824.71 484.19,-814.85"/>
<polygon fill="black" stroke="black" points="486.45,-812.16 476.87,-807.63 481.53,-817.15 486.45,-812.16"/>
</g>
<!-- aws&#45;sdk&#45;cpp -->
<g id="node32" class="node">
<title>aws&#45;sdk&#45;cpp</title>
<g id="a_node32"><a xlink:href="https://github.com/conda-forge/aws-sdk-cpp-feedstock" xlink:title="aws sdk cpp">
<ellipse fill="#ff8c00" stroke="black" cx="206" cy="-1150" rx="67.69" ry="18"/>
<text text-anchor="middle" x="206" y="-1146.3" font-family="Times,serif" font-size="14.00">aws sdk cpp</text>
</a>
</g>
</g>
<!-- aws&#45;sdk&#45;cpp&#45;&gt;arrow&#45;cpp -->
<g id="edge32" class="edge">
<title>aws&#45;sdk&#45;cpp&#45;&gt;arrow&#45;cpp</title>
<path fill="none" stroke="black" d="M206,-1131.7C206,-1123.98 206,-1114.71 206,-1106.11"/>
<polygon fill="black" stroke="black" points="209.5,-1106.1 206,-1096.1 202.5,-1106.1 209.5,-1106.1"/>
</g>
<!-- pyctest -->
<g id="node34" class="node">
<title>pyctest</title>
<g id="a_node34"><a xlink:href="https://github.com/conda-forge/pyctest-feedstock/pull/18" xlink:title="pyctest ✓">
<ellipse fill="#31688e" stroke="black" cx="1672" cy="-754" rx="52" ry="18"/>
<text text-anchor="middle" x="1672" y="-750.3" font-family="Times,serif" font-size="14.00" fill="white">pyctest ✓</text>
</a>
</g>
</g>
<!-- pycurl&#45;&gt;pyctest -->
<!-- entwine -->
<g id="node35" class="node">
<title>entwine</title>
<g id="a_node35"><a xlink:href="https://github.com/conda-forge/entwine-feedstock/pull/28" xlink:title="entwine ❎">
<ellipse fill="#31688e" stroke="black" cx="1672" cy="-682" rx="61.99" ry="18"/>
<text text-anchor="middle" x="1672" y="-678.3" font-family="Times,serif" font-size="14.00" fill="white">entwine ❎</text>
</a>
</g>
</g>
<!-- pyctest&#45;&gt;entwine -->
<!-- fossil -->
<g id="node36" class="node">
<title>fossil</title>
<g id="a_node36"><a xlink:href="https://github.com/conda-forge/fossil-feedstock/pull/14" xlink:title="fossil ❎">
<ellipse fill="#31688e" stroke="black" cx="1672" cy="-610" rx="49.5" ry="18"/>
<text text-anchor="middle" x="1672" y="-606.3" font-family="Times,serif" font-size="14.00" fill="white">fossil ❎</text>
</a>
</g>
</g>
<!-- entwine&#45;&gt;fossil -->
<!-- xrootd -->
<g id="node37" class="node">
<title>xrootd</title>
<g id="a_node37"><a xlink:href="https://github.com/conda-forge/xrootd-feedstock" xlink:title="xrootd">
<ellipse fill="#ff8c00" stroke="black" cx="457" cy="-422" rx="41" ry="18"/>
<text text-anchor="middle" x="457" y="-418.3" font-family="Times,serif" font-size="14.00">xrootd</text>
</a>
</g>
</g>
<!-- root -->
<g id="node38" class="node">
<title>root</title>
<g id="a_node38"><a xlink:href="https://github.com/conda-forge/root-feedstock" xlink:title="root">
<ellipse fill="#fde725" stroke="black" cx="395" cy="-350" rx="30" ry="18"/>
<text text-anchor="middle" x="395" y="-346.3" font-family="Times,serif" font-size="14.00">root</text>
</a>
</g>
</g>
<!-- xrootd&#45;&gt;root -->
<g id="edge41" class="edge">
<title>xrootd&#45;&gt;root</title>
<path fill="none" stroke="black" d="M442.62,-404.76C434.49,-395.59 424.2,-383.96 415.26,-373.88"/>
<polygon fill="black" stroke="black" points="417.7,-371.35 408.45,-366.19 412.46,-376 417.7,-371.35"/>
</g>
<!-- nordugrid&#45;arc -->
<g id="node39" class="node">
<title>nordugrid&#45;arc</title>
<g id="a_node39"><a xlink:href="https://github.com/conda-forge/nordugrid-arc-feedstock" xlink:title="nordugrid arc">
<ellipse fill="#fde725" stroke="black" cx="518" cy="-350" rx="74.99" ry="18"/>
<text text-anchor="middle" x="518" y="-346.3" font-family="Times,serif" font-size="14.00">nordugrid arc</text>
</a>
</g>
</g>
<!-- xrootd&#45;&gt;nordugrid&#45;arc -->
<g id="edge42" class="edge">
<title>xrootd&#45;&gt;nordugrid&#45;arc</title>
<path fill="none" stroke="black" d="M471.15,-404.76C478.63,-396.18 487.97,-385.46 496.34,-375.86"/>
<polygon fill="black" stroke="black" points="499.15,-377.96 503.08,-368.12 493.87,-373.36 499.15,-377.96"/>
</g>
<!-- cds&#45;crtools -->
<g id="node40" class="node">
<title>cds&#45;crtools</title>
<g id="a_node40"><a xlink:href="https://github.com/conda-forge/cds-crtools-feedstock" xlink:title="cds crtools">
<ellipse fill="#fde725" stroke="black" cx="395" cy="-278" rx="61.19" ry="18"/>
<text text-anchor="middle" x="395" y="-274.3" font-family="Times,serif" font-size="14.00">cds crtools</text>
</a>
</g>
</g>
<!-- root&#45;&gt;cds&#45;crtools -->
<g id="edge43" class="edge">
<title>root&#45;&gt;cds&#45;crtools</title>
<path fill="none" stroke="black" d="M395,-331.7C395,-323.98 395,-314.71 395,-306.11"/>
<polygon fill="black" stroke="black" points="398.5,-306.1 395,-296.1 391.5,-306.1 398.5,-306.1"/>
</g>
<!-- virtuoso&#45;opensource -->
<g id="node41" class="node">
<title>virtuoso&#45;opensource</title>
<g id="a_node41"><a xlink:href="https://github.com/conda-forge/virtuoso-opensource-feedstock/pull/5" xlink:title="virtuoso opensource ❎">
<ellipse fill="#31688e" stroke="black" cx="1436" cy="-1330" rx="119" ry="18"/>
<text text-anchor="middle" x="1436" y="-1326.3" font-family="Times,serif" font-size="14.00" fill="white">virtuoso opensource ❎</text>
</a>
</g>
</g>
<!-- pypy3.6 -->
<g id="node42" class="node">
<title>pypy3.6</title>
<g id="a_node42"><a xlink:href="https://github.com/conda-forge/pypy3.6-feedstock/pull/72" xlink:title="pypy3 6 ❎">
<ellipse fill="#31688e" stroke="black" cx="1436" cy="-1258" rx="61.99" ry="18"/>
<text text-anchor="middle" x="1436" y="-1254.3" font-family="Times,serif" font-size="14.00" fill="white">pypy3 6 ❎</text>
</a>
</g>
</g>
<!-- virtuoso&#45;opensource&#45;&gt;pypy3.6 -->
<!-- pygsi -->
<g id="node47" class="node">
<title>pygsi</title>
<g id="a_node47"><a xlink:href="https://github.com/conda-forge/pygsi-feedstock" xlink:title="pygsi">
<ellipse fill="#ff8c00" stroke="black" cx="1436" cy="-1186" rx="36" ry="18"/>
<text text-anchor="middle" x="1436" y="-1182.3" font-family="Times,serif" font-size="14.00">pygsi</text>
</a>
</g>
</g>
<!-- pypy3.6&#45;&gt;pygsi -->
<!-- voms -->
<g id="node43" class="node">
<title>voms</title>
<g id="a_node43"><a xlink:href="https://github.com/conda-forge/voms-feedstock/pull/6" xlink:title="voms ❎">
<ellipse fill="#31688e" stroke="black" cx="858" cy="-422" rx="49.5" ry="18"/>
<text text-anchor="middle" x="858" y="-418.3" font-family="Times,serif" font-size="14.00" fill="white">voms ❎</text>
</a>
</g>
</g>
<!-- cgsi&#45;gsoap -->
<g id="node44" class="node">
<title>cgsi&#45;gsoap</title>
<g id="a_node44"><a xlink:href="https://github.com/conda-forge/cgsi-gsoap-feedstock" xlink:title="cgsi gsoap">
<ellipse fill="#fde725" stroke="black" cx="793" cy="-350" rx="60" ry="18"/>
<text text-anchor="middle" x="793" y="-346.3" font-family="Times,serif" font-size="14.00">cgsi gsoap</text>
</a>
</g>
</g>
<!-- voms&#45;&gt;cgsi&#45;gsoap -->
<g id="edge45" class="edge">
<title>voms&#45;&gt;cgsi&#45;gsoap</title>
<path fill="none" stroke="black" d="M842.92,-404.76C834.76,-395.97 824.5,-384.93 815.42,-375.14"/>
<polygon fill="black" stroke="black" points="817.81,-372.58 808.45,-367.63 812.69,-377.34 817.81,-372.58"/>
</g>
<!-- myproxy -->
<g id="node45" class="node">
<title>myproxy</title>
<g id="a_node45"><a xlink:href="https://github.com/conda-forge/myproxy-feedstock" xlink:title="myproxy">
<ellipse fill="#fde725" stroke="black" cx="923" cy="-350" rx="51.5" ry="18"/>
<text text-anchor="middle" x="923" y="-346.3" font-family="Times,serif" font-size="14.00">myproxy</text>
</a>
</g>
</g>
<!-- voms&#45;&gt;myproxy -->
<g id="edge46" class="edge">
<title>voms&#45;&gt;myproxy</title>
<path fill="none" stroke="black" d="M873.08,-404.76C881.24,-395.97 891.5,-384.93 900.58,-375.14"/>
<polygon fill="black" stroke="black" points="903.31,-377.34 907.55,-367.63 898.19,-372.58 903.31,-377.34"/>
</g>
<!-- srm&#45;ifce -->
<g id="node46" class="node">
<title>srm&#45;ifce</title>
<g id="a_node46"><a xlink:href="https://github.com/conda-forge/srm-ifce-feedstock" xlink:title="srm ifce">
<ellipse fill="#fde725" stroke="black" cx="707" cy="-278" rx="48.19" ry="18"/>
<text text-anchor="middle" x="707" y="-274.3" font-family="Times,serif" font-size="14.00">srm ifce</text>
</a>
</g>
</g>
<!-- cgsi&#45;gsoap&#45;&gt;srm&#45;ifce -->
<g id="edge47" class="edge">
<title>cgsi&#45;gsoap&#45;&gt;srm&#45;ifce</title>
<path fill="none" stroke="black" d="M773.05,-332.76C761.49,-323.36 746.78,-311.38 734.17,-301.12"/>
<polygon fill="black" stroke="black" points="736.21,-298.26 726.25,-294.67 731.79,-303.69 736.21,-298.26"/>
</g>
<!-- git&#45;crypt -->
<g id="node48" class="node">
<title>git&#45;crypt</title>
<g id="a_node48"><a xlink:href="https://github.com/conda-forge/git-crypt-feedstock/pull/2" xlink:title="git crypt ❎">
<ellipse fill="#31688e" stroke="black" cx="1436" cy="-1114" rx="65" ry="18"/>
<text text-anchor="middle" x="1436" y="-1110.3" font-family="Times,serif" font-size="14.00" fill="white">git crypt ❎</text>
</a>
</g>
</g>
<!-- pygsi&#45;&gt;git&#45;crypt -->
<!-- htcondor -->
<g id="node49" class="node">
<title>htcondor</title>
<g id="a_node49"><a xlink:href="https://github.com/conda-forge/htcondor-feedstock/pull/69" xlink:title="htcondor ❎">
<ellipse fill="#31688e" stroke="black" cx="1436" cy="-1042" rx="66.5" ry="18"/>
<text text-anchor="middle" x="1436" y="-1038.3" font-family="Times,serif" font-size="14.00" fill="white">htcondor ❎</text>
</a>
</g>
</g>
<!-- git&#45;crypt&#45;&gt;htcondor -->
<!-- uftp -->
<g id="node54" class="node">
<title>uftp</title>
<g id="a_node54"><a xlink:href="https://github.com/conda-forge/uftp-feedstock/pull/2" xlink:title="uftp ❎">
<ellipse fill="#31688e" stroke="black" cx="1436" cy="-970" rx="44.39" ry="18"/>
<text text-anchor="middle" x="1436" y="-966.3" font-family="Times,serif" font-size="14.00" fill="white">uftp ❎</text>
</a>
</g>
</g>
<!-- htcondor&#45;&gt;uftp -->
<!-- gct -->
<g id="node50" class="node">
<title>gct</title>
<g id="a_node50"><a xlink:href="https://github.com/conda-forge/gct-feedstock/pull/6" xlink:title="gct ❎">
<ellipse fill="#31688e" stroke="black" cx="682" cy="-422" rx="39.79" ry="18"/>
<text text-anchor="middle" x="682" y="-418.3" font-family="Times,serif" font-size="14.00" fill="white">gct ❎</text>
</a>
</g>
</g>
<!-- gct&#45;&gt;nordugrid&#45;arc -->
<g id="edge51" class="edge">
<title>gct&#45;&gt;nordugrid&#45;arc</title>
<path fill="none" stroke="black" d="M654.18,-409.13C629.14,-398.44 591.89,-382.54 562.68,-370.07"/>
<polygon fill="black" stroke="black" points="563.68,-366.69 553.11,-365.99 560.93,-373.13 563.68,-366.69"/>
</g>
<!-- gct&#45;&gt;cgsi&#45;gsoap -->
<g id="edge52" class="edge">
<title>gct&#45;&gt;cgsi&#45;gsoap</title>
<path fill="none" stroke="black" d="M704.2,-407C720.07,-396.99 741.72,-383.34 759.66,-372.02"/>
<polygon fill="black" stroke="black" points="761.54,-374.98 768.13,-366.68 757.81,-369.05 761.54,-374.98"/>
</g>
<!-- gct&#45;&gt;myproxy -->
<g id="edge53" class="edge">
<title>gct&#45;&gt;myproxy</title>
<path fill="none" stroke="black" d="M714.5,-411.56C755.77,-399.57 827.3,-378.8 874.89,-364.97"/>
<polygon fill="black" stroke="black" points="876.04,-368.29 884.66,-362.14 874.08,-361.56 876.04,-368.29"/>
</g>
<!-- gct&#45;&gt;srm&#45;ifce -->
<g id="edge55" class="edge">
<title>gct&#45;&gt;srm&#45;ifce</title>
<path fill="none" stroke="black" d="M665.14,-405.6C655.77,-395.86 645.02,-382.41 640,-368 634.74,-352.89 633.03,-346.4 640,-332 646.6,-318.36 658.61,-307.16 670.66,-298.63"/>
<polygon fill="black" stroke="black" points="672.94,-301.32 679.36,-292.9 669.08,-295.48 672.94,-301.32"/>
</g>
<!-- dcap -->
<g id="node51" class="node">
<title>dcap</title>
<g id="a_node51"><a xlink:href="https://github.com/conda-forge/dcap-feedstock" xlink:title="dcap">
<ellipse fill="#fde725" stroke="black" cx="682" cy="-350" rx="32.5" ry="18"/>
<text text-anchor="middle" x="682" y="-346.3" font-family="Times,serif" font-size="14.00">dcap</text>
</a>
</g>
</g>
<!-- gct&#45;&gt;dcap -->
<g id="edge54" class="edge">
<title>gct&#45;&gt;dcap</title>
<path fill="none" stroke="black" d="M682,-403.7C682,-395.98 682,-386.71 682,-378.11"/>
<polygon fill="black" stroke="black" points="685.5,-378.1 682,-368.1 678.5,-378.1 685.5,-378.1"/>
</g>
<!-- libwebsockets -->
<g id="node52" class="node">
<title>libwebsockets</title>
<g id="a_node52"><a xlink:href="https://github.com/conda-forge/libwebsockets-feedstock/pull/32" xlink:title="libwebsockets ❎">
<ellipse fill="#31688e" stroke="black" cx="1672" cy="-386" rx="90.5" ry="18"/>
<text text-anchor="middle" x="1672" y="-382.3" font-family="Times,serif" font-size="14.00" fill="white">libwebsockets ❎</text>
</a>
</g>
</g>
<!-- ttyd -->
<g id="node53" class="node">
<title>ttyd</title>
<g id="a_node53"><a xlink:href="https://github.com/conda-forge/ttyd-feedstock" xlink:title="ttyd">
<ellipse fill="#fde725" stroke="black" cx="1672" cy="-314" rx="30" ry="18"/>
<text text-anchor="middle" x="1672" y="-310.3" font-family="Times,serif" font-size="14.00">ttyd</text>
</a>
</g>
</g>
<!-- libwebsockets&#45;&gt;ttyd -->
<g id="edge56" class="edge">
<title>libwebsockets&#45;&gt;ttyd</title>
<path fill="none" stroke="black" d="M1672,-367.7C1672,-359.98 1672,-350.71 1672,-342.11"/>
<polygon fill="black" stroke="black" points="1675.5,-342.1 1672,-332.1 1668.5,-342.1 1675.5,-342.1"/>
</g>
<!-- nix -->
<g id="node55" class="node">
<title>nix</title>
<g id="a_node55"><a xlink:href="https://github.com/conda-forge/nix-feedstock/pull/19" xlink:title="nix ✓">
<ellipse fill="#31688e" stroke="black" cx="1436" cy="-898" rx="32.5" ry="18"/>
<text text-anchor="middle" x="1436" y="-894.3" font-family="Times,serif" font-size="14.00" fill="white">nix ✓</text>
</a>
</g>
</g>
<!-- uftp&#45;&gt;nix -->
<!-- cyclonedds -->
<g id="node56" class="node">
<title>cyclonedds</title>
<g id="a_node56"><a xlink:href="https://github.com/conda-forge/cyclonedds-feedstock/pull/2" xlink:title="cyclonedds ❎">
<ellipse fill="#31688e" stroke="black" cx="1436" cy="-826" rx="76.09" ry="18"/>
<text text-anchor="middle" x="1436" y="-822.3" font-family="Times,serif" font-size="14.00" fill="white">cyclonedds ❎</text>
</a>
</g>
</g>
<!-- nix&#45;&gt;cyclonedds -->
<!-- createrepo_c -->
<g id="node57" class="node">
<title>createrepo_c</title>
<g id="a_node57"><a xlink:href="https://github.com/conda-forge/createrepo_c-feedstock" xlink:title="createrepo_c">
<ellipse fill="#ff8c00" stroke="black" cx="1436" cy="-754" rx="70.39" ry="18"/>
<text text-anchor="middle" x="1436" y="-750.3" font-family="Times,serif" font-size="14.00">createrepo_c</text>
</a>
</g>
</g>
<!-- cyclonedds&#45;&gt;createrepo_c -->
<!-- glib&#45;networking -->
<g id="node60" class="node">
<title>glib&#45;networking</title>
<g id="a_node60"><a xlink:href="https://github.com/conda-forge/glib-networking-feedstock" xlink:title="glib networking">
<ellipse fill="#ff8c00" stroke="black" cx="1436" cy="-682" rx="84" ry="18"/>
<text text-anchor="middle" x="1436" y="-678.3" font-family="Times,serif" font-size="14.00">glib networking</text>
</a>
</g>
</g>
<!-- createrepo_c&#45;&gt;glib&#45;networking -->
<!-- serf -->
<g id="node58" class="node">
<title>serf</title>
<g id="a_node58"><a xlink:href="https://github.com/conda-forge/serf-feedstock/pull/2" xlink:title="serf ✓">
<ellipse fill="#31688e" stroke="black" cx="1672" cy="-90" rx="36.5" ry="18"/>
<text text-anchor="middle" x="1672" y="-86.3" font-family="Times,serif" font-size="14.00" fill="white">serf ✓</text>
</a>
</g>
</g>
<!-- subversion -->
<g id="node59" class="node">
<title>subversion</title>
<g id="a_node59"><a xlink:href="https://github.com/conda-forge/subversion-feedstock" xlink:title="subversion">
<ellipse fill="#fde725" stroke="black" cx="1672" cy="-18" rx="61.99" ry="18"/>
<text text-anchor="middle" x="1672" y="-14.3" font-family="Times,serif" font-size="14.00">subversion</text>
</a>
</g>
</g>
<!-- serf&#45;&gt;subversion -->
<g id="edge61" class="edge">
<title>serf&#45;&gt;subversion</title>
<path fill="none" stroke="black" d="M1672,-71.7C1672,-63.98 1672,-54.71 1672,-46.11"/>
<polygon fill="black" stroke="black" points="1675.5,-46.1 1672,-36.1 1668.5,-46.1 1675.5,-46.1"/>
</g>
<!-- pineappl -->
<g id="node61" class="node">
<title>pineappl</title>
<g id="a_node61"><a xlink:href="https://github.com/conda-forge/pineappl-feedstock/pull/8" xlink:title="pineappl ❎">
<ellipse fill="#31688e" stroke="black" cx="1436" cy="-610" rx="65" ry="18"/>
<text text-anchor="middle" x="1436" y="-606.3" font-family="Times,serif" font-size="14.00" fill="white">pineappl ❎</text>
</a>
</g>
</g>
<!-- glib&#45;networking&#45;&gt;pineappl -->
<!-- libmamba -->
<g id="node62" class="node">
<title>libmamba</title>
<g id="a_node62"><a xlink:href="https://github.com/conda-forge/libmamba-feedstock/pull/41" xlink:title="libmamba ✓">
<ellipse fill="#31688e" stroke="black" cx="832" cy="-1078" rx="63.89" ry="18"/>
<text text-anchor="middle" x="832" y="-1074.3" font-family="Times,serif" font-size="14.00" fill="white">libmamba ✓</text>
</a>
</g>
</g>
<!-- libmamba&#45;&gt;mamba -->
<g id="edge64" class="edge">
<title>libmamba&#45;&gt;mamba</title>
<path fill="none" stroke="black" d="M809.5,-1060.76C796.03,-1051.04 778.75,-1038.57 764.23,-1028.09"/>
<polygon fill="black" stroke="black" points="766.2,-1025.2 756.05,-1022.19 762.11,-1030.88 766.2,-1025.2"/>
</g>
<!-- s2n -->
<g id="node63" class="node">
<title>s2n</title>
<g id="a_node63"><a xlink:href="https://github.com/conda-forge/s2n-feedstock/pull/45" xlink:title="s2n ❎">
<ellipse fill="#31688e" stroke="black" cx="1436" cy="-566" rx="41.69" ry="18"/>
<text text-anchor="middle" x="1436" y="-562.3" font-family="Times,serif" font-size="14.00" fill="white">s2n ❎</text>
</a>
</g>
</g>
<!-- panda3d -->
<g id="node64" class="node">
<title>panda3d</title>
<g id="a_node64"><a xlink:href="https://github.com/conda-forge/panda3d-feedstock/pull/6" xlink:title="panda3d ✓">
<ellipse fill="#31688e" stroke="black" cx="1436" cy="-494" rx="58" ry="18"/>
<text text-anchor="middle" x="1436" y="-490.3" font-family="Times,serif" font-size="14.00" fill="white">panda3d ✓</text>
</a>
</g>
</g>
<!-- s2n&#45;&gt;panda3d -->
<!-- libxmlsec1 -->
<g id="node65" class="node">
<title>libxmlsec1</title>
<g id="a_node65"><a xlink:href="https://github.com/conda-forge/libxmlsec1-feedstock/pull/3" xlink:title="libxmlsec1 ❎">
<ellipse fill="#31688e" stroke="black" cx="1436" cy="-422" rx="74.99" ry="18"/>
<text text-anchor="middle" x="1436" y="-418.3" font-family="Times,serif" font-size="14.00" fill="white">libxmlsec1 ❎</text>
</a>
</g>
</g>
<!-- panda3d&#45;&gt;libxmlsec1 -->
<!-- go&#45;ipfs -->
<g id="node66" class="node">
<title>go&#45;ipfs</title>
<g id="a_node66"><a xlink:href="https://github.com/conda-forge/go-ipfs-feedstock/pull/8" xlink:title="go ipfs ❎">
<ellipse fill="#31688e" stroke="black" cx="1436" cy="-350" rx="56" ry="18"/>
<text text-anchor="middle" x="1436" y="-346.3" font-family="Times,serif" font-size="14.00" fill="white">go ipfs ❎</text>
</a>
</g>
</g>
<!-- libxmlsec1&#45;&gt;go&#45;ipfs -->
<!-- aws&#45;c&#45;s3 -->
<g id="node67" class="node">
<title>aws&#45;c&#45;s3</title>
<g id="a_node67"><a xlink:href="https://github.com/conda-forge/aws-c-s3-feedstock" xlink:title="aws c s3">
<ellipse fill="#ff8c00" stroke="black" cx="1436" cy="-278" rx="50.09" ry="18"/>
<text text-anchor="middle" x="1436" y="-274.3" font-family="Times,serif" font-size="14.00">aws c s3</text>
</a>
</g>
</g>
<!-- go&#45;ipfs&#45;&gt;aws&#45;c&#45;s3 -->
<!-- oxigraph -->
<g id="node69" class="node">
<title>oxigraph</title>
<g id="a_node69"><a xlink:href="https://github.com/conda-forge/oxigraph-feedstock/pull/5" xlink:title="oxigraph ✓">
<ellipse fill="#31688e" stroke="black" cx="1436" cy="-206" rx="59.29" ry="18"/>
<text text-anchor="middle" x="1436" y="-202.3" font-family="Times,serif" font-size="14.00" fill="white">oxigraph ✓</text>
</a>
</g>
</g>
<!-- aws&#45;c&#45;s3&#45;&gt;oxigraph -->
<!-- tensorboard&#45;data&#45;server -->
<g id="node68" class="node">
<title>tensorboard&#45;data&#45;server</title>
<g id="a_node68"><a xlink:href="https://github.com/conda-forge/tensorboard-data-server-feedstock/pull/9" xlink:title="tensorboard data server ❎">
<ellipse fill="#31688e" stroke="black" cx="612" cy="-1078" rx="138" ry="18"/>
<text text-anchor="middle" x="612" y="-1074.3" font-family="Times,serif" font-size="14.00" fill="white">tensorboard data server ❎</text>
</a>
</g>
</g>
<!-- tensorboard&#45;data&#45;server&#45;&gt;tensorflow -->
<g id="edge69" class="edge">
<title>tensorboard&#45;data&#45;server&#45;&gt;tensorflow</title>
<path fill="none" stroke="black" d="M612,-1059.7C612,-1051.98 612,-1042.71 612,-1034.11"/>
<polygon fill="black" stroke="black" points="615.5,-1034.1 612,-1024.1 608.5,-1034.1 615.5,-1034.1"/>
</g>
<!-- singularityce -->
<g id="node70" class="node">
<title>singularityce</title>
<g id="a_node70"><a xlink:href="https://github.com/conda-forge/singularityce-feedstock/pull/2" xlink:title="singularityce ❎">
<ellipse fill="#31688e" stroke="black" cx="1436" cy="-134" rx="85.29" ry="18"/>
<text text-anchor="middle" x="1436" y="-130.3" font-family="Times,serif" font-size="14.00" fill="white">singularityce ❎</text>
</a>
</g>
</g>
<!-- oxigraph&#45;&gt;singularityce -->
</g>
</svg>
