<?xml version="1.0" encoding="UTF-8" standalone="no"?>
<!DOCTYPE svg PUBLIC "-//W3C//DTD SVG 1.1//EN"
 "http://www.w3.org/Graphics/SVG/1.1/DTD/svg11.dtd">
<!-- Generated by graphviz version 2.50.0 (20211209.0339)
 -->
<!-- Pages: 1 -->
<svg width="2441pt" height="1140pt"
 viewBox="0.00 0.00 2441.04 1140.00" xmlns="http://www.w3.org/2000/svg" xmlns:xlink="http://www.w3.org/1999/xlink">
<g id="graph0" class="graph" transform="scale(1 1) rotate(0) translate(4 1136)">
<polygon fill="white" stroke="transparent" points="-4,4 -4,-1136 2437.04,-1136 2437.04,4 -4,4"/>
<!-- airflow -->
<g id="node1" class="node">
<title>airflow</title>
<g id="a_node1"><a xlink:href="https://github.com/conda-forge/airflow-feedstock" xlink:title="airflow">
<ellipse fill="#fde725" stroke="black" cx="349" cy="-718" rx="42.49" ry="18"/>
<text text-anchor="middle" x="349" y="-714.3" font-family="Times,serif" font-size="14.00">airflow</text>
</a>
</g>
</g>
<!-- arrow&#45;cpp -->
<g id="node2" class="node">
<title>arrow&#45;cpp</title>
<g id="a_node2"><a xlink:href="https://github.com/conda-forge/arrow-cpp-feedstock" xlink:title="arrow cpp">
<ellipse fill="#fde725" stroke="black" cx="206" cy="-790" rx="58" ry="18"/>
<text text-anchor="middle" x="206" y="-786.3" font-family="Times,serif" font-size="14.00">arrow cpp</text>
</a>
</g>
</g>
<!-- arrow&#45;cpp&#45;&gt;airflow -->
<g id="edge1" class="edge">
<title>arrow&#45;cpp&#45;&gt;airflow</title>
<path fill="none" stroke="black" d="M235.63,-774.5C258.16,-763.47 289.26,-748.24 313.19,-736.53"/>
<polygon fill="black" stroke="black" points="314.86,-739.61 322.3,-732.07 311.78,-733.32 314.86,-739.61"/>
</g>
<!-- omniscidb -->
<g id="node3" class="node">
<title>omniscidb</title>
<g id="a_node3"><a xlink:href="https://github.com/conda-forge/omniscidb-feedstock" xlink:title="omniscidb">
<ellipse fill="#fde725" stroke="black" cx="85" cy="-718" rx="58" ry="18"/>
<text text-anchor="middle" x="85" y="-714.3" font-family="Times,serif" font-size="14.00">omniscidb</text>
</a>
</g>
</g>
<!-- arrow&#45;cpp&#45;&gt;omniscidb -->
<g id="edge2" class="edge">
<title>arrow&#45;cpp&#45;&gt;omniscidb</title>
<path fill="none" stroke="black" d="M179.74,-773.81C162.22,-763.67 138.99,-750.23 119.91,-739.2"/>
<polygon fill="black" stroke="black" points="121.61,-736.14 111.2,-734.16 118.11,-742.2 121.61,-736.14"/>
</g>
<!-- erlang -->
<g id="node4" class="node">
<title>erlang</title>
<g id="a_node4"><a xlink:href="https://github.com/conda-forge/erlang-feedstock/pull/105" xlink:title="erlang ❎">
<ellipse fill="#31688e" stroke="black" cx="2128" cy="-1114" rx="54.69" ry="18"/>
<text text-anchor="middle" x="2128" y="-1110.3" font-family="Times,serif" font-size="14.00" fill="white">erlang ❎</text>
</a>
</g>
</g>
<!-- m2crypto -->
<g id="node5" class="node">
<title>m2crypto</title>
<g id="a_node5"><a xlink:href="https://github.com/conda-forge/m2crypto-feedstock/pull/63" xlink:title="m2crypto ❎">
<ellipse fill="#31688e" stroke="black" cx="2128" cy="-1042" rx="69.59" ry="18"/>
<text text-anchor="middle" x="2128" y="-1038.3" font-family="Times,serif" font-size="14.00" fill="white">m2crypto ❎</text>
</a>
</g>
</g>
<!-- erlang&#45;&gt;m2crypto -->
<!-- mysql&#45;connector&#45;c -->
<g id="node8" class="node">
<title>mysql&#45;connector&#45;c</title>
<g id="a_node8"><a xlink:href="https://github.com/conda-forge/mysql-connector-c-feedstock/pull/18" xlink:title="mysql connector c ❎">
<ellipse fill="#31688e" stroke="black" cx="2128" cy="-970" rx="109.38" ry="18"/>
<text text-anchor="middle" x="2128" y="-966.3" font-family="Times,serif" font-size="14.00" fill="white">mysql connector c ❎</text>
</a>
</g>
</g>
<!-- m2crypto&#45;&gt;mysql&#45;connector&#45;c -->
<!-- librdkafka -->
<g id="node6" class="node">
<title>librdkafka</title>
<g id="a_node6"><a xlink:href="https://github.com/conda-forge/librdkafka-feedstock/pull/67" xlink:title="librdkafka ✓">
<ellipse fill="#31688e" stroke="black" cx="65" cy="-790" rx="65" ry="18"/>
<text text-anchor="middle" x="65" y="-786.3" font-family="Times,serif" font-size="14.00" fill="white">librdkafka ✓</text>
</a>
</g>
</g>
<!-- librdkafka&#45;&gt;omniscidb -->
<g id="edge4" class="edge">
<title>librdkafka&#45;&gt;omniscidb</title>
<path fill="none" stroke="black" d="M69.94,-771.7C72.17,-763.9 74.85,-754.51 77.33,-745.83"/>
<polygon fill="black" stroke="black" points="80.73,-746.68 80.11,-736.1 74,-744.76 80.73,-746.68"/>
</g>
<!-- lighttpd -->
<g id="node7" class="node">
<title>lighttpd</title>
<g id="a_node7"><a xlink:href="https://github.com/conda-forge/lighttpd-feedstock" xlink:title="lighttpd">
<ellipse fill="#fde725" stroke="black" cx="1299" cy="-790" rx="48.19" ry="18"/>
<text text-anchor="middle" x="1299" y="-786.3" font-family="Times,serif" font-size="14.00">lighttpd</text>
</a>
</g>
</g>
<!-- w3m -->
<g id="node17" class="node">
<title>w3m</title>
<g id="a_node17"><a xlink:href="https://github.com/conda-forge/w3m-feedstock/pull/11" xlink:title="w3m ❎">
<ellipse fill="#31688e" stroke="black" cx="2128" cy="-898" rx="47.5" ry="18"/>
<text text-anchor="middle" x="2128" y="-894.3" font-family="Times,serif" font-size="14.00" fill="white">w3m ❎</text>
</a>
</g>
</g>
<!-- mysql&#45;connector&#45;c&#45;&gt;w3m -->
<!-- mysql -->
<g id="node9" class="node">
<title>mysql</title>
<g id="a_node9"><a xlink:href="https://github.com/conda-forge/mysql-feedstock/pull/59" xlink:title="mysql ❎">
<ellipse fill="#31688e" stroke="black" cx="1154" cy="-862" rx="52.79" ry="18"/>
<text text-anchor="middle" x="1154" y="-858.3" font-family="Times,serif" font-size="14.00" fill="white">mysql ❎</text>
</a>
</g>
</g>
<!-- mysql&#45;&gt;lighttpd -->
<g id="edge6" class="edge">
<title>mysql&#45;&gt;lighttpd</title>
<path fill="none" stroke="black" d="M1183.34,-846.83C1205.84,-835.97 1237.06,-820.9 1261.4,-809.15"/>
<polygon fill="black" stroke="black" points="1263.2,-812.17 1270.69,-804.67 1260.16,-805.86 1263.2,-812.17"/>
</g>
<!-- qt -->
<g id="node10" class="node">
<title>qt</title>
<g id="a_node10"><a xlink:href="https://github.com/conda-forge/qt-feedstock" xlink:title="qt">
<ellipse fill="#fde725" stroke="black" cx="867" cy="-790" rx="27" ry="18"/>
<text text-anchor="middle" x="867" y="-786.3" font-family="Times,serif" font-size="14.00">qt</text>
</a>
</g>
</g>
<!-- mysql&#45;&gt;qt -->
<g id="edge7" class="edge">
<title>mysql&#45;&gt;qt</title>
<path fill="none" stroke="black" d="M1112.27,-850.82C1055.57,-836.99 955.21,-812.51 902.15,-799.57"/>
<polygon fill="black" stroke="black" points="902.74,-796.11 892.19,-797.14 901.08,-802.91 902.74,-796.11"/>
</g>
<!-- mysql&#45;connector&#45;cpp -->
<g id="node11" class="node">
<title>mysql&#45;connector&#45;cpp</title>
<g id="a_node11"><a xlink:href="https://github.com/conda-forge/mysql-connector-cpp-feedstock" xlink:title="mysql connector cpp">
<ellipse fill="#fde725" stroke="black" cx="1223" cy="-718" rx="106.68" ry="18"/>
<text text-anchor="middle" x="1223" y="-714.3" font-family="Times,serif" font-size="14.00">mysql connector cpp</text>
</a>
</g>
</g>
<!-- mysql&#45;&gt;mysql&#45;connector&#45;cpp -->
<g id="edge8" class="edge">
<title>mysql&#45;&gt;mysql&#45;connector&#45;cpp</title>
<path fill="none" stroke="black" d="M1173.36,-845.25C1183.98,-835.59 1196.48,-822.34 1204,-808 1214.07,-788.82 1218.8,-764.66 1221.03,-746.35"/>
<polygon fill="black" stroke="black" points="1224.51,-746.64 1222.07,-736.33 1217.55,-745.92 1224.51,-746.64"/>
</g>
<!-- qt&#45;main -->
<g id="node12" class="node">
<title>qt&#45;main</title>
<g id="a_node12"><a xlink:href="https://github.com/conda-forge/qt-main-feedstock" xlink:title="qt main">
<ellipse fill="#fde725" stroke="black" cx="1126" cy="-646" rx="46.29" ry="18"/>
<text text-anchor="middle" x="1126" y="-642.3" font-family="Times,serif" font-size="14.00">qt main</text>
</a>
</g>
</g>
<!-- mysql&#45;&gt;qt&#45;main -->
<g id="edge9" class="edge">
<title>mysql&#45;&gt;qt&#45;main</title>
<path fill="none" stroke="black" d="M1132.97,-845.34C1122.09,-835.88 1109.88,-822.81 1104,-808 1086.16,-763.09 1102.04,-706.21 1114.51,-673.47"/>
<polygon fill="black" stroke="black" points="1117.78,-674.71 1118.22,-664.13 1111.27,-672.13 1117.78,-674.71"/>
</g>
<!-- qt&#45;&gt;airflow -->
<g id="edge10" class="edge">
<title>qt&#45;&gt;airflow</title>
<path fill="none" stroke="black" d="M840.87,-784.47C819.03,-780.78 787.05,-775.61 759,-772 599.96,-751.52 556.8,-769.56 400,-736 396.56,-735.26 393.04,-734.38 389.52,-733.4"/>
<polygon fill="black" stroke="black" points="390.29,-729.98 379.71,-730.46 388.28,-736.68 390.29,-729.98"/>
</g>
<!-- octave -->
<g id="node13" class="node">
<title>octave</title>
<g id="a_node13"><a xlink:href="https://github.com/conda-forge/octave-feedstock" xlink:title="octave">
<ellipse fill="#fde725" stroke="black" cx="938" cy="-718" rx="41" ry="18"/>
<text text-anchor="middle" x="938" y="-714.3" font-family="Times,serif" font-size="14.00">octave</text>
</a>
</g>
</g>
<!-- qt&#45;&gt;octave -->
<g id="edge11" class="edge">
<title>qt&#45;&gt;octave</title>
<path fill="none" stroke="black" d="M881.71,-774.5C891.22,-765.13 903.79,-752.73 914.64,-742.03"/>
<polygon fill="black" stroke="black" points="917.16,-744.46 921.82,-734.95 912.24,-739.48 917.16,-744.46"/>
</g>
<!-- lalinference -->
<g id="node14" class="node">
<title>lalinference</title>
<g id="a_node14"><a xlink:href="https://github.com/conda-forge/lalinference-feedstock" xlink:title="lalinference">
<ellipse fill="#fde725" stroke="black" cx="613" cy="-718" rx="65.79" ry="18"/>
<text text-anchor="middle" x="613" y="-714.3" font-family="Times,serif" font-size="14.00">lalinference</text>
</a>
</g>
</g>
<!-- qt&#45;&gt;lalinference -->
<g id="edge12" class="edge">
<title>qt&#45;&gt;lalinference</title>
<path fill="none" stroke="black" d="M842.18,-782.16C801.99,-771.08 721.72,-748.96 667.67,-734.07"/>
<polygon fill="black" stroke="black" points="668.47,-730.66 657.9,-731.37 666.61,-737.41 668.47,-730.66"/>
</g>
<!-- ambertools -->
<g id="node15" class="node">
<title>ambertools</title>
<g id="a_node15"><a xlink:href="https://github.com/conda-forge/ambertools-feedstock" xlink:title="ambertools">
<ellipse fill="#fde725" stroke="black" cx="999" cy="-646" rx="63.09" ry="18"/>
<text text-anchor="middle" x="999" y="-642.3" font-family="Times,serif" font-size="14.00">ambertools</text>
</a>
</g>
</g>
<!-- qt&#45;&gt;ambertools -->
<g id="edge13" class="edge">
<title>qt&#45;&gt;ambertools</title>
<path fill="none" stroke="black" d="M893.17,-785.22C921.39,-779.67 965.32,-766.43 988,-736 1001.05,-718.49 1003.1,-693.45 1002.29,-674.39"/>
<polygon fill="black" stroke="black" points="1005.77,-673.96 1001.57,-664.23 998.79,-674.45 1005.77,-673.96"/>
</g>
<!-- gnuradio -->
<g id="node16" class="node">
<title>gnuradio</title>
<g id="a_node16"><a xlink:href="https://github.com/conda-forge/gnuradio-feedstock" xlink:title="gnuradio">
<ellipse fill="#fde725" stroke="black" cx="749" cy="-718" rx="52" ry="18"/>
<text text-anchor="middle" x="749" y="-714.3" font-family="Times,serif" font-size="14.00">gnuradio</text>
</a>
</g>
</g>
<!-- qt&#45;&gt;gnuradio -->
<g id="edge14" class="edge">
<title>qt&#45;&gt;gnuradio</title>
<path fill="none" stroke="black" d="M847.51,-777.44C829.99,-767.04 803.85,-751.54 782.9,-739.11"/>
<polygon fill="black" stroke="black" points="784.67,-736.09 774.28,-734 781.1,-742.11 784.67,-736.09"/>
</g>
<!-- postgres&#45;xl -->
<g id="node20" class="node">
<title>postgres&#45;xl</title>
<g id="a_node20"><a xlink:href="https://github.com/conda-forge/postgres-xl-feedstock/pull/8" xlink:title="postgres xl ❎">
<ellipse fill="#31688e" stroke="black" cx="2128" cy="-826" rx="76.89" ry="18"/>
<text text-anchor="middle" x="2128" y="-822.3" font-family="Times,serif" font-size="14.00" fill="white">postgres xl ❎</text>
</a>
</g>
</g>
<!-- w3m&#45;&gt;postgres&#45;xl -->
<!-- pylibscrypt -->
<g id="node18" class="node">
<title>pylibscrypt</title>
<g id="a_node18"><a xlink:href="https://github.com/conda-forge/pylibscrypt-feedstock" xlink:title="pylibscrypt">
<ellipse fill="#fde725" stroke="black" cx="2344" cy="-206" rx="63.09" ry="18"/>
<text text-anchor="middle" x="2344" y="-202.3" font-family="Times,serif" font-size="14.00">pylibscrypt</text>
</a>
</g>
</g>
<!-- scrypt -->
<g id="node19" class="node">
<title>scrypt</title>
<g id="a_node19"><a xlink:href="https://github.com/conda-forge/scrypt-feedstock/pull/37" xlink:title="scrypt ❎">
<ellipse fill="#31688e" stroke="black" cx="2344" cy="-278" rx="54" ry="18"/>
<text text-anchor="middle" x="2344" y="-274.3" font-family="Times,serif" font-size="14.00" fill="white">scrypt ❎</text>
</a>
</g>
</g>
<!-- scrypt&#45;&gt;pylibscrypt -->
<g id="edge16" class="edge">
<title>scrypt&#45;&gt;pylibscrypt</title>
<path fill="none" stroke="black" d="M2344,-259.7C2344,-251.98 2344,-242.71 2344,-234.11"/>
<polygon fill="black" stroke="black" points="2347.5,-234.1 2344,-224.1 2340.5,-234.1 2347.5,-234.1"/>
</g>
<!-- sstp&#45;client -->
<g id="node21" class="node">
<title>sstp&#45;client</title>
<g id="a_node21"><a xlink:href="https://github.com/conda-forge/sstp-client-feedstock/pull/7" xlink:title="sstp client ✓">
<ellipse fill="#31688e" stroke="black" cx="2128" cy="-754" rx="66.5" ry="18"/>
<text text-anchor="middle" x="2128" y="-750.3" font-family="Times,serif" font-size="14.00" fill="white">sstp client ✓</text>
</a>
</g>
</g>
<!-- postgres&#45;xl&#45;&gt;sstp&#45;client -->
<!-- pycurl -->
<g id="node29" class="node">
<title>pycurl</title>
<g id="a_node29"><a xlink:href="https://github.com/conda-forge/pycurl-feedstock/pull/19" xlink:title="pycurl ❎">
<ellipse fill="#31688e" stroke="black" cx="2128" cy="-682" rx="54" ry="18"/>
<text text-anchor="middle" x="2128" y="-678.3" font-family="Times,serif" font-size="14.00" fill="white">pycurl ❎</text>
</a>
</g>
</g>
<!-- sstp&#45;client&#45;&gt;pycurl -->
<!-- cryptography -->
<g id="node22" class="node">
<title>cryptography</title>
<g id="a_node22"><a xlink:href="https://github.com/conda-forge/cryptography-feedstock/pull/80" xlink:title="cryptography ❎">
<ellipse fill="#31688e" stroke="black" cx="369" cy="-790" rx="87.18" ry="18"/>
<text text-anchor="middle" x="369" y="-786.3" font-family="Times,serif" font-size="14.00" fill="white">cryptography ❎</text>
</a>
</g>
</g>
<!-- cryptography&#45;&gt;airflow -->
<g id="edge19" class="edge">
<title>cryptography&#45;&gt;airflow</title>
<path fill="none" stroke="black" d="M364.06,-771.7C361.83,-763.9 359.15,-754.51 356.67,-745.83"/>
<polygon fill="black" stroke="black" points="360,-744.76 353.89,-736.1 353.27,-746.68 360,-744.76"/>
</g>
<!-- cryptography&#45;&gt;omniscidb -->
<g id="edge20" class="edge">
<title>cryptography&#45;&gt;omniscidb</title>
<path fill="none" stroke="black" d="M315.25,-775.75C264.74,-763.3 189.56,-744.77 138.98,-732.31"/>
<polygon fill="black" stroke="black" points="139.76,-728.89 129.21,-729.9 138.08,-735.69 139.76,-728.89"/>
</g>
<!-- cryptography&#45;&gt;lalinference -->
<g id="edge21" class="edge">
<title>cryptography&#45;&gt;lalinference</title>
<path fill="none" stroke="black" d="M417.79,-775C458.73,-763.26 517.13,-746.5 559.38,-734.38"/>
<polygon fill="black" stroke="black" points="560.56,-737.69 569.21,-731.56 558.63,-730.96 560.56,-737.69"/>
</g>
<!-- cryptography&#45;&gt;gnuradio -->
<g id="edge22" class="edge">
<title>cryptography&#45;&gt;gnuradio</title>
<path fill="none" stroke="black" d="M432.49,-777.62C443.33,-775.71 454.49,-773.78 465,-772 563.99,-755.25 589.94,-757.51 688,-736 692.17,-735.09 696.47,-734.06 700.78,-732.97"/>
<polygon fill="black" stroke="black" points="701.98,-736.28 710.77,-730.36 700.21,-729.5 701.98,-736.28"/>
</g>
<!-- tensorflow -->
<g id="node23" class="node">
<title>tensorflow</title>
<g id="a_node23"><a xlink:href="https://github.com/conda-forge/tensorflow-feedstock" xlink:title="tensorflow">
<ellipse fill="#fde725" stroke="black" cx="469" cy="-718" rx="60" ry="18"/>
<text text-anchor="middle" x="469" y="-714.3" font-family="Times,serif" font-size="14.00">tensorflow</text>
</a>
</g>
</g>
<!-- cryptography&#45;&gt;tensorflow -->
<g id="edge23" class="edge">
<title>cryptography&#45;&gt;tensorflow</title>
<path fill="none" stroke="black" d="M392.45,-772.59C406.05,-763.06 423.36,-750.95 438.07,-740.65"/>
<polygon fill="black" stroke="black" points="440.2,-743.43 446.39,-734.83 436.19,-737.69 440.2,-743.43"/>
</g>
<!-- root -->
<g id="node24" class="node">
<title>root</title>
<g id="a_node24"><a xlink:href="https://github.com/conda-forge/root-feedstock" xlink:title="root">
<ellipse fill="#fde725" stroke="black" cx="849" cy="-718" rx="30" ry="18"/>
<text text-anchor="middle" x="849" y="-714.3" font-family="Times,serif" font-size="14.00">root</text>
</a>
</g>
</g>
<!-- cryptography&#45;&gt;root -->
<g id="edge24" class="edge">
<title>cryptography&#45;&gt;root</title>
<path fill="none" stroke="black" d="M431.12,-777.33C442.38,-775.41 454.02,-773.54 465,-772 617.67,-750.55 660.92,-775.26 810,-736 812.44,-735.36 814.92,-734.59 817.39,-733.73"/>
<polygon fill="black" stroke="black" points="818.68,-736.98 826.74,-730.1 816.15,-730.45 818.68,-736.98"/>
</g>
<!-- mamba -->
<g id="node25" class="node">
<title>mamba</title>
<g id="a_node25"><a xlink:href="https://github.com/conda-forge/mamba-feedstock" xlink:title="mamba">
<ellipse fill="#fde725" stroke="black" cx="244" cy="-718" rx="45" ry="18"/>
<text text-anchor="middle" x="244" y="-714.3" font-family="Times,serif" font-size="14.00">mamba</text>
</a>
</g>
</g>
<!-- cryptography&#45;&gt;mamba -->
<g id="edge25" class="edge">
<title>cryptography&#45;&gt;mamba</title>
<path fill="none" stroke="black" d="M340.32,-772.94C321.78,-762.56 297.55,-748.99 278.04,-738.06"/>
<polygon fill="black" stroke="black" points="279.59,-734.92 269.16,-733.09 276.17,-741.03 279.59,-734.92"/>
</g>
<!-- mlflow -->
<g id="node26" class="node">
<title>mlflow</title>
<g id="a_node26"><a xlink:href="https://github.com/conda-forge/mlflow-feedstock" xlink:title="mlflow">
<ellipse fill="#fde725" stroke="black" cx="171" cy="-646" rx="41.69" ry="18"/>
<text text-anchor="middle" x="171" y="-642.3" font-family="Times,serif" font-size="14.00">mlflow</text>
</a>
</g>
</g>
<!-- cryptography&#45;&gt;mlflow -->
<g id="edge26" class="edge">
<title>cryptography&#45;&gt;mlflow</title>
<path fill="none" stroke="black" d="M306.23,-777.48C261.27,-767.96 205.96,-753.25 190,-736 174.7,-719.46 170.55,-693.74 169.87,-674.19"/>
<polygon fill="black" stroke="black" points="173.37,-674.04 169.81,-664.06 166.37,-674.08 173.37,-674.04"/>
</g>
<!-- cds&#45;crtools -->
<g id="node27" class="node">
<title>cds&#45;crtools</title>
<g id="a_node27"><a xlink:href="https://github.com/conda-forge/cds-crtools-feedstock" xlink:title="cds crtools">
<ellipse fill="#fde725" stroke="black" cx="849" cy="-646" rx="61.19" ry="18"/>
<text text-anchor="middle" x="849" y="-642.3" font-family="Times,serif" font-size="14.00">cds crtools</text>
</a>
</g>
</g>
<!-- root&#45;&gt;cds&#45;crtools -->
<g id="edge27" class="edge">
<title>root&#45;&gt;cds&#45;crtools</title>
<path fill="none" stroke="black" d="M849,-699.7C849,-691.98 849,-682.71 849,-674.11"/>
<polygon fill="black" stroke="black" points="852.5,-674.1 849,-664.1 845.5,-674.1 852.5,-674.1"/>
</g>
<!-- aws&#45;sdk&#45;cpp -->
<g id="node28" class="node">
<title>aws&#45;sdk&#45;cpp</title>
<g id="a_node28"><a xlink:href="https://github.com/conda-forge/aws-sdk-cpp-feedstock" xlink:title="aws sdk cpp">
<ellipse fill="#ff8c00" stroke="black" cx="206" cy="-862" rx="67.69" ry="18"/>
<text text-anchor="middle" x="206" y="-858.3" font-family="Times,serif" font-size="14.00">aws sdk cpp</text>
</a>
</g>
</g>
<!-- aws&#45;sdk&#45;cpp&#45;&gt;arrow&#45;cpp -->
<g id="edge28" class="edge">
<title>aws&#45;sdk&#45;cpp&#45;&gt;arrow&#45;cpp</title>
<path fill="none" stroke="black" d="M206,-843.7C206,-835.98 206,-826.71 206,-818.11"/>
<polygon fill="black" stroke="black" points="209.5,-818.1 206,-808.1 202.5,-818.1 209.5,-818.1"/>
</g>
<!-- pyctest -->
<g id="node30" class="node">
<title>pyctest</title>
<g id="a_node30"><a xlink:href="https://github.com/conda-forge/pyctest-feedstock/pull/18" xlink:title="pyctest ✓">
<ellipse fill="#31688e" stroke="black" cx="2128" cy="-610" rx="52" ry="18"/>
<text text-anchor="middle" x="2128" y="-606.3" font-family="Times,serif" font-size="14.00" fill="white">pyctest ✓</text>
</a>
</g>
</g>
<!-- pycurl&#45;&gt;pyctest -->
<!-- fossil -->
<g id="node31" class="node">
<title>fossil</title>
<g id="a_node31"><a xlink:href="https://github.com/conda-forge/fossil-feedstock/pull/14" xlink:title="fossil ❎">
<ellipse fill="#31688e" stroke="black" cx="2128" cy="-538" rx="49.5" ry="18"/>
<text text-anchor="middle" x="2128" y="-534.3" font-family="Times,serif" font-size="14.00" fill="white">fossil ❎</text>
</a>
</g>
</g>
<!-- pyctest&#45;&gt;fossil -->
<!-- virtuoso&#45;opensource -->
<g id="node34" class="node">
<title>virtuoso&#45;opensource</title>
<g id="a_node34"><a xlink:href="https://github.com/conda-forge/virtuoso-opensource-feedstock/pull/5" xlink:title="virtuoso opensource ❎">
<ellipse fill="#31688e" stroke="black" cx="2128" cy="-466" rx="119" ry="18"/>
<text text-anchor="middle" x="2128" y="-462.3" font-family="Times,serif" font-size="14.00" fill="white">virtuoso opensource ❎</text>
</a>
</g>
</g>
<!-- fossil&#45;&gt;virtuoso&#45;opensource -->
<!-- xrootd -->
<g id="node32" class="node">
<title>xrootd</title>
<g id="a_node32"><a xlink:href="https://github.com/conda-forge/xrootd-feedstock" xlink:title="xrootd">
<ellipse fill="#ff8c00" stroke="black" cx="1154" cy="-790" rx="41" ry="18"/>
<text text-anchor="middle" x="1154" y="-786.3" font-family="Times,serif" font-size="14.00">xrootd</text>
</a>
</g>
</g>
<!-- xrootd&#45;&gt;root -->
<g id="edge32" class="edge">
<title>xrootd&#45;&gt;root</title>
<path fill="none" stroke="black" d="M1115.03,-783.91C1062.6,-776.46 966.85,-760.73 888,-736 885.74,-735.29 883.43,-734.49 881.13,-733.64"/>
<polygon fill="black" stroke="black" points="882.37,-730.37 871.78,-729.9 879.77,-736.87 882.37,-730.37"/>
</g>
<!-- nordugrid&#45;arc -->
<g id="node33" class="node">
<title>nordugrid&#45;arc</title>
<g id="a_node33"><a xlink:href="https://github.com/conda-forge/nordugrid-arc-feedstock" xlink:title="nordugrid arc">
<ellipse fill="#fde725" stroke="black" cx="1422" cy="-718" rx="74.99" ry="18"/>
<text text-anchor="middle" x="1422" y="-714.3" font-family="Times,serif" font-size="14.00">nordugrid arc</text>
</a>
</g>
</g>
<!-- xrootd&#45;&gt;nordugrid&#45;arc -->
<g id="edge33" class="edge">
<title>xrootd&#45;&gt;nordugrid&#45;arc</title>
<path fill="none" stroke="black" d="M1188.21,-780.06C1232.32,-768.54 1309.69,-748.33 1363.29,-734.34"/>
<polygon fill="black" stroke="black" points="1364.21,-737.71 1373,-731.8 1362.44,-730.94 1364.21,-737.71"/>
</g>
<!-- pypy3.6 -->
<g id="node35" class="node">
<title>pypy3.6</title>
<g id="a_node35"><a xlink:href="https://github.com/conda-forge/pypy3.6-feedstock/pull/72" xlink:title="pypy3 6 ❎">
<ellipse fill="#31688e" stroke="black" cx="2128" cy="-394" rx="61.99" ry="18"/>
<text text-anchor="middle" x="2128" y="-390.3" font-family="Times,serif" font-size="14.00" fill="white">pypy3 6 ❎</text>
</a>
</g>
</g>
<!-- virtuoso&#45;opensource&#45;&gt;pypy3.6 -->
<!-- voms -->
<g id="node36" class="node">
<title>voms</title>
<g id="a_node36"><a xlink:href="https://github.com/conda-forge/voms-feedstock/pull/8" xlink:title="voms ❎">
<ellipse fill="#31688e" stroke="black" cx="1827" cy="-790" rx="49.5" ry="18"/>
<text text-anchor="middle" x="1827" y="-786.3" font-family="Times,serif" font-size="14.00" fill="white">voms ❎</text>
</a>
</g>
</g>
<!-- cgsi&#45;gsoap -->
<g id="node37" class="node">
<title>cgsi&#45;gsoap</title>
<g id="a_node37"><a xlink:href="https://github.com/conda-forge/cgsi-gsoap-feedstock" xlink:title="cgsi gsoap">
<ellipse fill="#fde725" stroke="black" cx="1697" cy="-718" rx="60" ry="18"/>
<text text-anchor="middle" x="1697" y="-714.3" font-family="Times,serif" font-size="14.00">cgsi gsoap</text>
</a>
</g>
</g>
<!-- voms&#45;&gt;cgsi&#45;gsoap -->
<g id="edge36" class="edge">
<title>voms&#45;&gt;cgsi&#45;gsoap</title>
<path fill="none" stroke="black" d="M1800.38,-774.67C1781.23,-764.35 1755.14,-750.31 1733.97,-738.91"/>
<polygon fill="black" stroke="black" points="1735.4,-735.7 1724.93,-734.04 1732.08,-741.86 1735.4,-735.7"/>
</g>
<!-- htcondor -->
<g id="node38" class="node">
<title>htcondor</title>
<g id="a_node38"><a xlink:href="https://github.com/conda-forge/htcondor-feedstock" xlink:title="htcondor">
<ellipse fill="#fde725" stroke="black" cx="1949" cy="-718" rx="52" ry="18"/>
<text text-anchor="middle" x="1949" y="-714.3" font-family="Times,serif" font-size="14.00">htcondor</text>
</a>
</g>
</g>
<!-- voms&#45;&gt;htcondor -->
<g id="edge37" class="edge">
<title>voms&#45;&gt;htcondor</title>
<path fill="none" stroke="black" d="M1852.28,-774.5C1870.31,-764.15 1894.78,-750.11 1914.6,-738.74"/>
<polygon fill="black" stroke="black" points="1916.4,-741.74 1923.33,-733.73 1912.92,-735.67 1916.4,-741.74"/>
</g>
<!-- myproxy -->
<g id="node39" class="node">
<title>myproxy</title>
<g id="a_node39"><a xlink:href="https://github.com/conda-forge/myproxy-feedstock" xlink:title="myproxy">
<ellipse fill="#fde725" stroke="black" cx="1827" cy="-718" rx="51.5" ry="18"/>
<text text-anchor="middle" x="1827" y="-714.3" font-family="Times,serif" font-size="14.00">myproxy</text>
</a>
</g>
</g>
<!-- voms&#45;&gt;myproxy -->
<g id="edge38" class="edge">
<title>voms&#45;&gt;myproxy</title>
<path fill="none" stroke="black" d="M1827,-771.7C1827,-763.98 1827,-754.71 1827,-746.11"/>
<polygon fill="black" stroke="black" points="1830.5,-746.1 1827,-736.1 1823.5,-746.1 1830.5,-746.1"/>
</g>
<!-- srm&#45;ifce -->
<g id="node40" class="node">
<title>srm&#45;ifce</title>
<g id="a_node40"><a xlink:href="https://github.com/conda-forge/srm-ifce-feedstock" xlink:title="srm ifce">
<ellipse fill="#fde725" stroke="black" cx="1611" cy="-646" rx="48.19" ry="18"/>
<text text-anchor="middle" x="1611" y="-642.3" font-family="Times,serif" font-size="14.00">srm ifce</text>
</a>
</g>
</g>
<!-- cgsi&#45;gsoap&#45;&gt;srm&#45;ifce -->
<g id="edge39" class="edge">
<title>cgsi&#45;gsoap&#45;&gt;srm&#45;ifce</title>
<path fill="none" stroke="black" d="M1677.05,-700.76C1665.49,-691.36 1650.78,-679.38 1638.17,-669.12"/>
<polygon fill="black" stroke="black" points="1640.21,-666.26 1630.25,-662.67 1635.79,-671.69 1640.21,-666.26"/>
</g>
<!-- pygsi -->
<g id="node41" class="node">
<title>pygsi</title>
<g id="a_node41"><a xlink:href="https://github.com/conda-forge/pygsi-feedstock" xlink:title="pygsi">
<ellipse fill="#ff8c00" stroke="black" cx="2344" cy="-1114" rx="36" ry="18"/>
<text text-anchor="middle" x="2344" y="-1110.3" font-family="Times,serif" font-size="14.00">pygsi</text>
</a>
</g>
</g>
<!-- git&#45;crypt -->
<g id="node42" class="node">
<title>git&#45;crypt</title>
<g id="a_node42"><a xlink:href="https://github.com/conda-forge/git-crypt-feedstock/pull/2" xlink:title="git crypt ❎">
<ellipse fill="#31688e" stroke="black" cx="2344" cy="-1042" rx="65" ry="18"/>
<text text-anchor="middle" x="2344" y="-1038.3" font-family="Times,serif" font-size="14.00" fill="white">git crypt ❎</text>
</a>
</g>
</g>
<!-- pygsi&#45;&gt;git&#45;crypt -->
<!-- rb&#45;eventmachine -->
<g id="node43" class="node">
<title>rb&#45;eventmachine</title>
<g id="a_node43"><a xlink:href="https://github.com/conda-forge/rb-eventmachine-feedstock" xlink:title="rb eventmachine">
<ellipse fill="#ff8c00" stroke="black" cx="2344" cy="-970" rx="89.08" ry="18"/>
<text text-anchor="middle" x="2344" y="-966.3" font-family="Times,serif" font-size="14.00">rb eventmachine</text>
</a>
</g>
</g>
<!-- git&#45;crypt&#45;&gt;rb&#45;eventmachine -->
<!-- uftp -->
<g id="node48" class="node">
<title>uftp</title>
<g id="a_node48"><a xlink:href="https://github.com/conda-forge/uftp-feedstock/pull/2" xlink:title="uftp ❎">
<ellipse fill="#31688e" stroke="black" cx="2344" cy="-898" rx="44.39" ry="18"/>
<text text-anchor="middle" x="2344" y="-894.3" font-family="Times,serif" font-size="14.00" fill="white">uftp ❎</text>
</a>
</g>
</g>
<!-- rb&#45;eventmachine&#45;&gt;uftp -->
<!-- gct -->
<g id="node44" class="node">
<title>gct</title>
<g id="a_node44"><a xlink:href="https://github.com/conda-forge/gct-feedstock/pull/6" xlink:title="gct ❎">
<ellipse fill="#31688e" stroke="black" cx="1586" cy="-790" rx="39.79" ry="18"/>
<text text-anchor="middle" x="1586" y="-786.3" font-family="Times,serif" font-size="14.00" fill="white">gct ❎</text>
</a>
</g>
</g>
<!-- gct&#45;&gt;nordugrid&#45;arc -->
<g id="edge42" class="edge">
<title>gct&#45;&gt;nordugrid&#45;arc</title>
<path fill="none" stroke="black" d="M1558.18,-777.13C1533.14,-766.44 1495.89,-750.54 1466.68,-738.07"/>
<polygon fill="black" stroke="black" points="1467.68,-734.69 1457.11,-733.99 1464.93,-741.13 1467.68,-734.69"/>
</g>
<!-- gct&#45;&gt;cgsi&#45;gsoap -->
<g id="edge43" class="edge">
<title>gct&#45;&gt;cgsi&#45;gsoap</title>
<path fill="none" stroke="black" d="M1608.2,-775C1624.07,-764.99 1645.72,-751.34 1663.66,-740.02"/>
<polygon fill="black" stroke="black" points="1665.54,-742.98 1672.13,-734.68 1661.81,-737.05 1665.54,-742.98"/>
</g>
<!-- gct&#45;&gt;myproxy -->
<g id="edge44" class="edge">
<title>gct&#45;&gt;myproxy</title>
<path fill="none" stroke="black" d="M1618.5,-779.56C1659.77,-767.57 1731.3,-746.8 1778.89,-732.97"/>
<polygon fill="black" stroke="black" points="1780.04,-736.29 1788.66,-730.14 1778.08,-729.56 1780.04,-736.29"/>
</g>
<!-- gct&#45;&gt;srm&#45;ifce -->
<g id="edge46" class="edge">
<title>gct&#45;&gt;srm&#45;ifce</title>
<path fill="none" stroke="black" d="M1569.53,-773.52C1560.39,-763.75 1549.89,-750.31 1545,-736 1539.83,-720.86 1538.08,-714.43 1545,-700 1551.49,-686.46 1563.32,-675.28 1575.19,-666.74"/>
<polygon fill="black" stroke="black" points="1577.4,-669.47 1583.76,-660.99 1573.51,-663.65 1577.4,-669.47"/>
</g>
<!-- dcap -->
<g id="node45" class="node">
<title>dcap</title>
<g id="a_node45"><a xlink:href="https://github.com/conda-forge/dcap-feedstock" xlink:title="dcap">
<ellipse fill="#fde725" stroke="black" cx="1586" cy="-718" rx="32.5" ry="18"/>
<text text-anchor="middle" x="1586" y="-714.3" font-family="Times,serif" font-size="14.00">dcap</text>
</a>
</g>
</g>
<!-- gct&#45;&gt;dcap -->
<g id="edge45" class="edge">
<title>gct&#45;&gt;dcap</title>
<path fill="none" stroke="black" d="M1586,-771.7C1586,-763.98 1586,-754.71 1586,-746.11"/>
<polygon fill="black" stroke="black" points="1589.5,-746.1 1586,-736.1 1582.5,-746.1 1589.5,-746.1"/>
</g>
<!-- libwebsockets -->
<g id="node46" class="node">
<title>libwebsockets</title>
<g id="a_node46"><a xlink:href="https://github.com/conda-forge/libwebsockets-feedstock/pull/32" xlink:title="libwebsockets ❎">
<ellipse fill="#31688e" stroke="black" cx="2128" cy="-278" rx="90.5" ry="18"/>
<text text-anchor="middle" x="2128" y="-274.3" font-family="Times,serif" font-size="14.00" fill="white">libwebsockets ❎</text>
</a>
</g>
</g>
<!-- ttyd -->
<g id="node47" class="node">
<title>ttyd</title>
<g id="a_node47"><a xlink:href="https://github.com/conda-forge/ttyd-feedstock" xlink:title="ttyd">
<ellipse fill="#fde725" stroke="black" cx="2128" cy="-206" rx="30" ry="18"/>
<text text-anchor="middle" x="2128" y="-202.3" font-family="Times,serif" font-size="14.00">ttyd</text>
</a>
</g>
</g>
<!-- libwebsockets&#45;&gt;ttyd -->
<g id="edge47" class="edge">
<title>libwebsockets&#45;&gt;ttyd</title>
<path fill="none" stroke="black" d="M2128,-259.7C2128,-251.98 2128,-242.71 2128,-234.11"/>
<polygon fill="black" stroke="black" points="2131.5,-234.1 2128,-224.1 2124.5,-234.1 2131.5,-234.1"/>
</g>
<!-- nix -->
<g id="node49" class="node">
<title>nix</title>
<g id="a_node49"><a xlink:href="https://github.com/conda-forge/nix-feedstock/pull/19" xlink:title="nix ✓">
<ellipse fill="#31688e" stroke="black" cx="2344" cy="-826" rx="32.5" ry="18"/>
<text text-anchor="middle" x="2344" y="-822.3" font-family="Times,serif" font-size="14.00" fill="white">nix ✓</text>
</a>
</g>
</g>
<!-- uftp&#45;&gt;nix -->
<!-- cyclonedds -->
<g id="node50" class="node">
<title>cyclonedds</title>
<g id="a_node50"><a xlink:href="https://github.com/conda-forge/cyclonedds-feedstock/pull/2" xlink:title="cyclonedds ❎">
<ellipse fill="#31688e" stroke="black" cx="2344" cy="-754" rx="76.09" ry="18"/>
<text text-anchor="middle" x="2344" y="-750.3" font-family="Times,serif" font-size="14.00" fill="white">cyclonedds ❎</text>
</a>
</g>
</g>
<!-- nix&#45;&gt;cyclonedds -->
<!-- createrepo_c -->
<g id="node51" class="node">
<title>createrepo_c</title>
<g id="a_node51"><a xlink:href="https://github.com/conda-forge/createrepo_c-feedstock" xlink:title="createrepo_c">
<ellipse fill="#ff8c00" stroke="black" cx="2344" cy="-682" rx="70.39" ry="18"/>
<text text-anchor="middle" x="2344" y="-678.3" font-family="Times,serif" font-size="14.00">createrepo_c</text>
</a>
</g>
</g>
<!-- cyclonedds&#45;&gt;createrepo_c -->
<!-- glib&#45;networking -->
<g id="node54" class="node">
<title>glib&#45;networking</title>
<g id="a_node54"><a xlink:href="https://github.com/conda-forge/glib-networking-feedstock" xlink:title="glib networking">
<ellipse fill="#ff8c00" stroke="black" cx="2344" cy="-610" rx="84" ry="18"/>
<text text-anchor="middle" x="2344" y="-606.3" font-family="Times,serif" font-size="14.00">glib networking</text>
</a>
</g>
</g>
<!-- createrepo_c&#45;&gt;glib&#45;networking -->
<!-- serf -->
<g id="node52" class="node">
<title>serf</title>
<g id="a_node52"><a xlink:href="https://github.com/conda-forge/serf-feedstock/pull/2" xlink:title="serf ✓">
<ellipse fill="#31688e" stroke="black" cx="1000" cy="-90" rx="36.5" ry="18"/>
<text text-anchor="middle" x="1000" y="-86.3" font-family="Times,serif" font-size="14.00" fill="white">serf ✓</text>
</a>
</g>
</g>
<!-- subversion -->
<g id="node53" class="node">
<title>subversion</title>
<g id="a_node53"><a xlink:href="https://github.com/conda-forge/subversion-feedstock" xlink:title="subversion">
<ellipse fill="#fde725" stroke="black" cx="1000" cy="-18" rx="61.99" ry="18"/>
<text text-anchor="middle" x="1000" y="-14.3" font-family="Times,serif" font-size="14.00">subversion</text>
</a>
</g>
</g>
<!-- serf&#45;&gt;subversion -->
<g id="edge52" class="edge">
<title>serf&#45;&gt;subversion</title>
<path fill="none" stroke="black" d="M1000,-71.7C1000,-63.98 1000,-54.71 1000,-46.11"/>
<polygon fill="black" stroke="black" points="1003.5,-46.1 1000,-36.1 996.5,-46.1 1003.5,-46.1"/>
</g>
<!-- pineappl -->
<g id="node55" class="node">
<title>pineappl</title>
<g id="a_node55"><a xlink:href="https://github.com/conda-forge/pineappl-feedstock/pull/8" xlink:title="pineappl ❎">
<ellipse fill="#31688e" stroke="black" cx="2344" cy="-538" rx="65" ry="18"/>
<text text-anchor="middle" x="2344" y="-534.3" font-family="Times,serif" font-size="14.00" fill="white">pineappl ❎</text>
</a>
</g>
</g>
<!-- glib&#45;networking&#45;&gt;pineappl -->
<!-- s2n -->
<g id="node56" class="node">
<title>s2n</title>
<g id="a_node56"><a xlink:href="https://github.com/conda-forge/s2n-feedstock/pull/50" xlink:title="s2n ❎">
<ellipse fill="#31688e" stroke="black" cx="2344" cy="-466" rx="41.69" ry="18"/>
<text text-anchor="middle" x="2344" y="-462.3" font-family="Times,serif" font-size="14.00" fill="white">s2n ❎</text>
</a>
</g>
</g>
<!-- pineappl&#45;&gt;s2n -->
<!-- panda3d -->
<g id="node57" class="node">
<title>panda3d</title>
<g id="a_node57"><a xlink:href="https://github.com/conda-forge/panda3d-feedstock/pull/6" xlink:title="panda3d ✓">
<ellipse fill="#31688e" stroke="black" cx="2344" cy="-394" rx="58" ry="18"/>
<text text-anchor="middle" x="2344" y="-390.3" font-family="Times,serif" font-size="14.00" fill="white">panda3d ✓</text>
</a>
</g>
</g>
<!-- s2n&#45;&gt;panda3d -->
<!-- libxmlsec1 -->
<g id="node58" class="node">
<title>libxmlsec1</title>
<g id="a_node58"><a xlink:href="https://github.com/conda-forge/libxmlsec1-feedstock/pull/3" xlink:title="libxmlsec1 ❎">
<ellipse fill="#31688e" stroke="black" cx="1000" cy="-350" rx="74.99" ry="18"/>
<text text-anchor="middle" x="1000" y="-346.3" font-family="Times,serif" font-size="14.00" fill="white">libxmlsec1 ❎</text>
</a>
</g>
</g>
<!-- go&#45;ipfs -->
<g id="node59" class="node">
<title>go&#45;ipfs</title>
<g id="a_node59"><a xlink:href="https://github.com/conda-forge/go-ipfs-feedstock/pull/10" xlink:title="go ipfs ❎">
<ellipse fill="#31688e" stroke="black" cx="1000" cy="-278" rx="56" ry="18"/>
<text text-anchor="middle" x="1000" y="-274.3" font-family="Times,serif" font-size="14.00" fill="white">go ipfs ❎</text>
</a>
</g>
</g>
<!-- libxmlsec1&#45;&gt;go&#45;ipfs -->
<!-- aws&#45;c&#45;s3 -->
<g id="node60" class="node">
<title>aws&#45;c&#45;s3</title>
<g id="a_node60"><a xlink:href="https://github.com/conda-forge/aws-c-s3-feedstock" xlink:title="aws c s3">
<ellipse fill="#ff8c00" stroke="black" cx="1000" cy="-206" rx="50.09" ry="18"/>
<text text-anchor="middle" x="1000" y="-202.3" font-family="Times,serif" font-size="14.00">aws c s3</text>
</a>
</g>
</g>
<!-- go&#45;ipfs&#45;&gt;aws&#45;c&#45;s3 -->
<!-- oxigraph -->
<g id="node62" class="node">
<title>oxigraph</title>
<g id="a_node62"><a xlink:href="https://github.com/conda-forge/oxigraph-feedstock/pull/6" xlink:title="oxigraph ❎">
<ellipse fill="#31688e" stroke="black" cx="1000" cy="-134" rx="65.79" ry="18"/>
<text text-anchor="middle" x="1000" y="-130.3" font-family="Times,serif" font-size="14.00" fill="white">oxigraph ❎</text>
</a>
</g>
</g>
<!-- aws&#45;c&#45;s3&#45;&gt;oxigraph -->
<!-- tensorboard&#45;data&#45;server -->
<g id="node61" class="node">
<title>tensorboard&#45;data&#45;server</title>
<g id="a_node61"><a xlink:href="https://github.com/conda-forge/tensorboard-data-server-feedstock/pull/9" xlink:title="tensorboard data server ❎">
<ellipse fill="#31688e" stroke="black" cx="612" cy="-790" rx="138" ry="18"/>
<text text-anchor="middle" x="612" y="-786.3" font-family="Times,serif" font-size="14.00" fill="white">tensorboard data server ❎</text>
</a>
</g>
</g>
<!-- tensorboard&#45;data&#45;server&#45;&gt;tensorflow -->
<g id="edge59" class="edge">
<title>tensorboard&#45;data&#45;server&#45;&gt;tensorflow</title>
<path fill="none" stroke="black" d="M578.11,-772.41C557.15,-762.15 530.17,-748.94 508.28,-738.23"/>
<polygon fill="black" stroke="black" points="509.76,-735.06 499.24,-733.8 506.68,-741.34 509.76,-735.06"/>
</g>
</g>
</svg>
