<?xml version="1.0" encoding="UTF-8" standalone="no"?>
<!DOCTYPE svg PUBLIC "-//W3C//DTD SVG 1.1//EN"
 "http://www.w3.org/Graphics/SVG/1.1/DTD/svg11.dtd">
<!-- Generated by graphviz version 2.50.0 (20211209.0339)
 -->
<!-- Pages: 1 -->
<svg width="2021pt" height="1284pt"
 viewBox="0.00 0.00 2021.19 1284.00" xmlns="http://www.w3.org/2000/svg" xmlns:xlink="http://www.w3.org/1999/xlink">
<g id="graph0" class="graph" transform="scale(1 1) rotate(0) translate(4 1280)">
<polygon fill="white" stroke="transparent" points="-4,4 -4,-1280 2017.19,-1280 2017.19,4 -4,4"/>
<!-- airflow -->
<g id="node1" class="node">
<title>airflow</title>
<g id="a_node1"><a xlink:href="https://github.com/conda-forge/airflow-feedstock" xlink:title="airflow">
<ellipse fill="#fde725" stroke="black" cx="548" cy="-862" rx="42.49" ry="18"/>
<text text-anchor="middle" x="548" y="-858.3" font-family="Times,serif" font-size="14.00">airflow</text>
</a>
</g>
</g>
<!-- arrow&#45;cpp -->
<g id="node2" class="node">
<title>arrow&#45;cpp</title>
<g id="a_node2"><a xlink:href="https://github.com/conda-forge/arrow-cpp-feedstock" xlink:title="arrow cpp">
<ellipse fill="#fde725" stroke="black" cx="500" cy="-934" rx="58" ry="18"/>
<text text-anchor="middle" x="500" y="-930.3" font-family="Times,serif" font-size="14.00">arrow cpp</text>
</a>
</g>
</g>
<!-- arrow&#45;cpp&#45;&gt;airflow -->
<g id="edge1" class="edge">
<title>arrow&#45;cpp&#45;&gt;airflow</title>
<path fill="none" stroke="black" d="M511.62,-916.05C517.34,-907.71 524.35,-897.49 530.68,-888.25"/>
<polygon fill="black" stroke="black" points="533.72,-890.02 536.49,-879.79 527.95,-886.06 533.72,-890.02"/>
</g>
<!-- omniscidb -->
<g id="node3" class="node">
<title>omniscidb</title>
<g id="a_node3"><a xlink:href="https://github.com/conda-forge/omniscidb-feedstock" xlink:title="omniscidb">
<ellipse fill="#fde725" stroke="black" cx="430" cy="-862" rx="58" ry="18"/>
<text text-anchor="middle" x="430" y="-858.3" font-family="Times,serif" font-size="14.00">omniscidb</text>
</a>
</g>
</g>
<!-- arrow&#45;cpp&#45;&gt;omniscidb -->
<g id="edge2" class="edge">
<title>arrow&#45;cpp&#45;&gt;omniscidb</title>
<path fill="none" stroke="black" d="M483.41,-916.41C474.52,-907.52 463.41,-896.41 453.63,-886.63"/>
<polygon fill="black" stroke="black" points="456.02,-884.07 446.47,-879.47 451.07,-889.02 456.02,-884.07"/>
</g>
<!-- erlang -->
<g id="node4" class="node">
<title>erlang</title>
<g id="a_node4"><a xlink:href="https://github.com/conda-forge/erlang-feedstock/pull/105" xlink:title="erlang ❎">
<ellipse fill="#31688e" stroke="black" cx="1904" cy="-1258" rx="54.69" ry="18"/>
<text text-anchor="middle" x="1904" y="-1254.3" font-family="Times,serif" font-size="14.00" fill="white">erlang ❎</text>
</a>
</g>
</g>
<!-- m2crypto -->
<g id="node5" class="node">
<title>m2crypto</title>
<g id="a_node5"><a xlink:href="https://github.com/conda-forge/m2crypto-feedstock/pull/63" xlink:title="m2crypto ❎">
<ellipse fill="#31688e" stroke="black" cx="1904" cy="-1186" rx="69.59" ry="18"/>
<text text-anchor="middle" x="1904" y="-1182.3" font-family="Times,serif" font-size="14.00" fill="white">m2crypto ❎</text>
</a>
</g>
</g>
<!-- erlang&#45;&gt;m2crypto -->
<!-- mysql&#45;connector&#45;c -->
<g id="node8" class="node">
<title>mysql&#45;connector&#45;c</title>
<g id="a_node8"><a xlink:href="https://github.com/conda-forge/mysql-connector-c-feedstock/pull/18" xlink:title="mysql connector c ❎">
<ellipse fill="#31688e" stroke="black" cx="1904" cy="-1114" rx="109.38" ry="18"/>
<text text-anchor="middle" x="1904" y="-1110.3" font-family="Times,serif" font-size="14.00" fill="white">mysql connector c ❎</text>
</a>
</g>
</g>
<!-- m2crypto&#45;&gt;mysql&#45;connector&#45;c -->
<!-- librdkafka -->
<g id="node6" class="node">
<title>librdkafka</title>
<g id="a_node6"><a xlink:href="https://github.com/conda-forge/librdkafka-feedstock/pull/67" xlink:title="librdkafka ✓">
<ellipse fill="#31688e" stroke="black" cx="359" cy="-934" rx="65" ry="18"/>
<text text-anchor="middle" x="359" y="-930.3" font-family="Times,serif" font-size="14.00" fill="white">librdkafka ✓</text>
</a>
</g>
</g>
<!-- librdkafka&#45;&gt;omniscidb -->
<g id="edge4" class="edge">
<title>librdkafka&#45;&gt;omniscidb</title>
<path fill="none" stroke="black" d="M375.83,-916.41C384.85,-907.52 396.11,-896.41 406.03,-886.63"/>
<polygon fill="black" stroke="black" points="408.63,-888.98 413.29,-879.47 403.72,-884 408.63,-888.98"/>
</g>
<!-- lighttpd -->
<g id="node7" class="node">
<title>lighttpd</title>
<g id="a_node7"><a xlink:href="https://github.com/conda-forge/lighttpd-feedstock" xlink:title="lighttpd">
<ellipse fill="#fde725" stroke="black" cx="1001" cy="-934" rx="48.19" ry="18"/>
<text text-anchor="middle" x="1001" y="-930.3" font-family="Times,serif" font-size="14.00">lighttpd</text>
</a>
</g>
</g>
<!-- uwsgi -->
<g id="node17" class="node">
<title>uwsgi</title>
<g id="a_node17"><a xlink:href="https://github.com/conda-forge/uwsgi-feedstock" xlink:title="uwsgi">
<ellipse fill="#ff8c00" stroke="black" cx="1904" cy="-1042" rx="38.5" ry="18"/>
<text text-anchor="middle" x="1904" y="-1038.3" font-family="Times,serif" font-size="14.00">uwsgi</text>
</a>
</g>
</g>
<!-- mysql&#45;connector&#45;c&#45;&gt;uwsgi -->
<!-- mysql -->
<g id="node9" class="node">
<title>mysql</title>
<g id="a_node9"><a xlink:href="https://github.com/conda-forge/mysql-feedstock/pull/59" xlink:title="mysql ❎">
<ellipse fill="#31688e" stroke="black" cx="1197" cy="-1006" rx="52.79" ry="18"/>
<text text-anchor="middle" x="1197" y="-1002.3" font-family="Times,serif" font-size="14.00" fill="white">mysql ❎</text>
</a>
</g>
</g>
<!-- mysql&#45;&gt;lighttpd -->
<g id="edge6" class="edge">
<title>mysql&#45;&gt;lighttpd</title>
<path fill="none" stroke="black" d="M1161.96,-992.49C1129.05,-980.73 1079.71,-963.11 1044.34,-950.48"/>
<polygon fill="black" stroke="black" points="1045.35,-947.12 1034.75,-947.06 1042.99,-953.71 1045.35,-947.12"/>
</g>
<!-- qt -->
<g id="node10" class="node">
<title>qt</title>
<g id="a_node10"><a xlink:href="https://github.com/conda-forge/qt-feedstock" xlink:title="qt">
<ellipse fill="#fde725" stroke="black" cx="1094" cy="-934" rx="27" ry="18"/>
<text text-anchor="middle" x="1094" y="-930.3" font-family="Times,serif" font-size="14.00">qt</text>
</a>
</g>
</g>
<!-- mysql&#45;&gt;qt -->
<g id="edge7" class="edge">
<title>mysql&#45;&gt;qt</title>
<path fill="none" stroke="black" d="M1174.4,-989.64C1158.71,-978.98 1137.73,-964.72 1121.13,-953.44"/>
<polygon fill="black" stroke="black" points="1122.67,-950.25 1112.43,-947.52 1118.73,-956.04 1122.67,-950.25"/>
</g>
<!-- mysql&#45;connector&#45;cpp -->
<g id="node11" class="node">
<title>mysql&#45;connector&#45;cpp</title>
<g id="a_node11"><a xlink:href="https://github.com/conda-forge/mysql-connector-cpp-feedstock" xlink:title="mysql connector cpp">
<ellipse fill="#fde725" stroke="black" cx="1435" cy="-862" rx="106.68" ry="18"/>
<text text-anchor="middle" x="1435" y="-858.3" font-family="Times,serif" font-size="14.00">mysql connector cpp</text>
</a>
</g>
</g>
<!-- mysql&#45;&gt;mysql&#45;connector&#45;cpp -->
<g id="edge8" class="edge">
<title>mysql&#45;&gt;mysql&#45;connector&#45;cpp</title>
<path fill="none" stroke="black" d="M1230.45,-992.04C1254.36,-982.25 1286.96,-967.83 1314,-952 1347.62,-932.31 1383.2,-905.3 1407.01,-886.21"/>
<polygon fill="black" stroke="black" points="1409.35,-888.82 1414.92,-879.81 1404.94,-883.38 1409.35,-888.82"/>
</g>
<!-- qt&#45;main -->
<g id="node12" class="node">
<title>qt&#45;main</title>
<g id="a_node12"><a xlink:href="https://github.com/conda-forge/qt-main-feedstock" xlink:title="qt main">
<ellipse fill="#fde725" stroke="black" cx="1313" cy="-790" rx="46.29" ry="18"/>
<text text-anchor="middle" x="1313" y="-786.3" font-family="Times,serif" font-size="14.00">qt main</text>
</a>
</g>
</g>
<!-- mysql&#45;&gt;qt&#45;main -->
<g id="edge9" class="edge">
<title>mysql&#45;&gt;qt&#45;main</title>
<path fill="none" stroke="black" d="M1223.65,-990.25C1238.1,-981 1255.17,-967.83 1266,-952 1294.18,-910.8 1305.7,-852.57 1310.23,-818.6"/>
<polygon fill="black" stroke="black" points="1313.73,-818.83 1311.47,-808.48 1306.78,-817.98 1313.73,-818.83"/>
</g>
<!-- qt&#45;&gt;airflow -->
<g id="edge10" class="edge">
<title>qt&#45;&gt;airflow</title>
<path fill="none" stroke="black" d="M1073.93,-921.96C1068.86,-919.61 1063.34,-917.42 1058,-916 860.24,-863.45 799.55,-920.66 599,-880 595.56,-879.3 592.02,-878.44 588.5,-877.48"/>
<polygon fill="black" stroke="black" points="589.27,-874.06 578.69,-874.57 587.28,-880.77 589.27,-874.06"/>
</g>
<!-- octave -->
<g id="node13" class="node">
<title>octave</title>
<g id="a_node13"><a xlink:href="https://github.com/conda-forge/octave-feedstock" xlink:title="octave">
<ellipse fill="#fde725" stroke="black" cx="981" cy="-862" rx="41" ry="18"/>
<text text-anchor="middle" x="981" y="-858.3" font-family="Times,serif" font-size="14.00">octave</text>
</a>
</g>
</g>
<!-- qt&#45;&gt;octave -->
<g id="edge11" class="edge">
<title>qt&#45;&gt;octave</title>
<path fill="none" stroke="black" d="M1074.83,-921.13C1057.72,-910.52 1032.33,-894.8 1012.28,-882.38"/>
<polygon fill="black" stroke="black" points="1014.12,-879.4 1003.77,-877.11 1010.43,-885.35 1014.12,-879.4"/>
</g>
<!-- lalinference -->
<g id="node14" class="node">
<title>lalinference</title>
<g id="a_node14"><a xlink:href="https://github.com/conda-forge/lalinference-feedstock" xlink:title="lalinference">
<ellipse fill="#fde725" stroke="black" cx="1106" cy="-862" rx="65.79" ry="18"/>
<text text-anchor="middle" x="1106" y="-858.3" font-family="Times,serif" font-size="14.00">lalinference</text>
</a>
</g>
</g>
<!-- qt&#45;&gt;lalinference -->
<g id="edge12" class="edge">
<title>qt&#45;&gt;lalinference</title>
<path fill="none" stroke="black" d="M1096.9,-916.05C1098.23,-908.35 1099.82,-899.03 1101.31,-890.36"/>
<polygon fill="black" stroke="black" points="1104.8,-890.72 1103.04,-880.28 1097.9,-889.54 1104.8,-890.72"/>
</g>
<!-- ambertools -->
<g id="node15" class="node">
<title>ambertools</title>
<g id="a_node15"><a xlink:href="https://github.com/conda-forge/ambertools-feedstock" xlink:title="ambertools">
<ellipse fill="#fde725" stroke="black" cx="1186" cy="-790" rx="63.09" ry="18"/>
<text text-anchor="middle" x="1186" y="-786.3" font-family="Times,serif" font-size="14.00">ambertools</text>
</a>
</g>
</g>
<!-- qt&#45;&gt;ambertools -->
<g id="edge13" class="edge">
<title>qt&#45;&gt;ambertools</title>
<path fill="none" stroke="black" d="M1115.48,-922.83C1138.7,-911.36 1173.41,-892.67 1181,-880 1192.09,-861.49 1192.58,-836.75 1190.73,-818.05"/>
<polygon fill="black" stroke="black" points="1194.2,-817.58 1189.48,-808.1 1187.26,-818.45 1194.2,-817.58"/>
</g>
<!-- gnuradio -->
<g id="node16" class="node">
<title>gnuradio</title>
<g id="a_node16"><a xlink:href="https://github.com/conda-forge/gnuradio-feedstock" xlink:title="gnuradio">
<ellipse fill="#fde725" stroke="black" cx="870" cy="-862" rx="52" ry="18"/>
<text text-anchor="middle" x="870" y="-858.3" font-family="Times,serif" font-size="14.00">gnuradio</text>
</a>
</g>
</g>
<!-- qt&#45;&gt;gnuradio -->
<g id="edge14" class="edge">
<title>qt&#45;&gt;gnuradio</title>
<path fill="none" stroke="black" d="M1072.93,-922.34C1068.09,-920.09 1062.92,-917.84 1058,-916 1054.65,-914.75 973.81,-892.05 919.24,-876.77"/>
<polygon fill="black" stroke="black" points="919.95,-873.34 909.38,-874.01 918.06,-880.08 919.95,-873.34"/>
</g>
<!-- w3m -->
<g id="node22" class="node">
<title>w3m</title>
<g id="a_node22"><a xlink:href="https://github.com/conda-forge/w3m-feedstock/pull/11" xlink:title="w3m ❎">
<ellipse fill="#31688e" stroke="black" cx="1904" cy="-970" rx="47.5" ry="18"/>
<text text-anchor="middle" x="1904" y="-966.3" font-family="Times,serif" font-size="14.00" fill="white">w3m ❎</text>
</a>
</g>
</g>
<!-- uwsgi&#45;&gt;w3m -->
<!-- pylibscrypt -->
<g id="node18" class="node">
<title>pylibscrypt</title>
<g id="a_node18"><a xlink:href="https://github.com/conda-forge/pylibscrypt-feedstock" xlink:title="pylibscrypt">
<ellipse fill="#fde725" stroke="black" cx="1668" cy="-18" rx="63.09" ry="18"/>
<text text-anchor="middle" x="1668" y="-14.3" font-family="Times,serif" font-size="14.00">pylibscrypt</text>
</a>
</g>
</g>
<!-- ruby -->
<g id="node19" class="node">
<title>ruby</title>
<g id="a_node19"><a xlink:href="https://github.com/conda-forge/ruby-feedstock/pull/88" xlink:title="ruby ❎">
<ellipse fill="#31688e" stroke="black" cx="770" cy="-90" rx="46.29" ry="18"/>
<text text-anchor="middle" x="770" y="-86.3" font-family="Times,serif" font-size="14.00" fill="white">ruby ❎</text>
</a>
</g>
</g>
<!-- rb&#45;eventmachine -->
<g id="node20" class="node">
<title>rb&#45;eventmachine</title>
<g id="a_node20"><a xlink:href="https://github.com/conda-forge/rb-eventmachine-feedstock" xlink:title="rb eventmachine">
<ellipse fill="#fde725" stroke="black" cx="770" cy="-18" rx="89.08" ry="18"/>
<text text-anchor="middle" x="770" y="-14.3" font-family="Times,serif" font-size="14.00">rb eventmachine</text>
</a>
</g>
</g>
<!-- ruby&#45;&gt;rb&#45;eventmachine -->
<g id="edge16" class="edge">
<title>ruby&#45;&gt;rb&#45;eventmachine</title>
<path fill="none" stroke="black" d="M770,-71.7C770,-63.98 770,-54.71 770,-46.11"/>
<polygon fill="black" stroke="black" points="773.5,-46.1 770,-36.1 766.5,-46.1 773.5,-46.1"/>
</g>
<!-- scrypt -->
<g id="node21" class="node">
<title>scrypt</title>
<g id="a_node21"><a xlink:href="https://github.com/conda-forge/scrypt-feedstock/pull/37" xlink:title="scrypt ❎">
<ellipse fill="#31688e" stroke="black" cx="1668" cy="-90" rx="54" ry="18"/>
<text text-anchor="middle" x="1668" y="-86.3" font-family="Times,serif" font-size="14.00" fill="white">scrypt ❎</text>
</a>
</g>
</g>
<!-- scrypt&#45;&gt;pylibscrypt -->
<g id="edge17" class="edge">
<title>scrypt&#45;&gt;pylibscrypt</title>
<path fill="none" stroke="black" d="M1668,-71.7C1668,-63.98 1668,-54.71 1668,-46.11"/>
<polygon fill="black" stroke="black" points="1671.5,-46.1 1668,-36.1 1664.5,-46.1 1671.5,-46.1"/>
</g>
<!-- postgres&#45;xl -->
<g id="node23" class="node">
<title>postgres&#45;xl</title>
<g id="a_node23"><a xlink:href="https://github.com/conda-forge/postgres-xl-feedstock/pull/8" xlink:title="postgres xl ❎">
<ellipse fill="#31688e" stroke="black" cx="1904" cy="-898" rx="76.89" ry="18"/>
<text text-anchor="middle" x="1904" y="-894.3" font-family="Times,serif" font-size="14.00" fill="white">postgres xl ❎</text>
</a>
</g>
</g>
<!-- w3m&#45;&gt;postgres&#45;xl -->
<!-- sstp&#45;client -->
<g id="node24" class="node">
<title>sstp&#45;client</title>
<g id="a_node24"><a xlink:href="https://github.com/conda-forge/sstp-client-feedstock/pull/7" xlink:title="sstp client ✓">
<ellipse fill="#31688e" stroke="black" cx="1904" cy="-826" rx="66.5" ry="18"/>
<text text-anchor="middle" x="1904" y="-822.3" font-family="Times,serif" font-size="14.00" fill="white">sstp client ✓</text>
</a>
</g>
</g>
<!-- postgres&#45;xl&#45;&gt;sstp&#45;client -->
<!-- pycurl -->
<g id="node30" class="node">
<title>pycurl</title>
<g id="a_node30"><a xlink:href="https://github.com/conda-forge/pycurl-feedstock/pull/19" xlink:title="pycurl ❎">
<ellipse fill="#31688e" stroke="black" cx="1904" cy="-754" rx="54" ry="18"/>
<text text-anchor="middle" x="1904" y="-750.3" font-family="Times,serif" font-size="14.00" fill="white">pycurl ❎</text>
</a>
</g>
</g>
<!-- sstp&#45;client&#45;&gt;pycurl -->
<!-- cryptography -->
<g id="node25" class="node">
<title>cryptography</title>
<g id="a_node25"><a xlink:href="https://github.com/conda-forge/cryptography-feedstock/pull/80" xlink:title="cryptography ❎">
<ellipse fill="#31688e" stroke="black" cx="663" cy="-934" rx="87.18" ry="18"/>
<text text-anchor="middle" x="663" y="-930.3" font-family="Times,serif" font-size="14.00" fill="white">cryptography ❎</text>
</a>
</g>
</g>
<!-- cryptography&#45;&gt;airflow -->
<g id="edge21" class="edge">
<title>cryptography&#45;&gt;airflow</title>
<path fill="none" stroke="black" d="M636.33,-916.76C619.6,-906.58 597.94,-893.4 580.25,-882.63"/>
<polygon fill="black" stroke="black" points="581.77,-879.46 571.41,-877.25 578.13,-885.44 581.77,-879.46"/>
</g>
<!-- cryptography&#45;&gt;omniscidb -->
<g id="edge22" class="edge">
<title>cryptography&#45;&gt;omniscidb</title>
<path fill="none" stroke="black" d="M615.85,-918.83C576.29,-906.95 519.97,-890.03 479.71,-877.93"/>
<polygon fill="black" stroke="black" points="480.68,-874.57 470.1,-875.05 478.67,-881.28 480.68,-874.57"/>
</g>
<!-- cryptography&#45;&gt;lalinference -->
<g id="edge23" class="edge">
<title>cryptography&#45;&gt;lalinference</title>
<path fill="none" stroke="black" d="M725.68,-921.49C736.76,-919.58 748.21,-917.67 759,-916 879.51,-897.36 910.97,-901.5 1031,-880 1036.72,-878.97 1042.67,-877.81 1048.6,-876.57"/>
<polygon fill="black" stroke="black" points="1049.48,-879.96 1058.52,-874.45 1048.01,-873.12 1049.48,-879.96"/>
</g>
<!-- cryptography&#45;&gt;gnuradio -->
<g id="edge24" class="edge">
<title>cryptography&#45;&gt;gnuradio</title>
<path fill="none" stroke="black" d="M706.39,-918.33C741.07,-906.6 789.52,-890.21 824.69,-878.32"/>
<polygon fill="black" stroke="black" points="825.89,-881.61 834.24,-875.09 823.64,-874.98 825.89,-881.61"/>
</g>
<!-- tensorflow -->
<g id="node26" class="node">
<title>tensorflow</title>
<g id="a_node26"><a xlink:href="https://github.com/conda-forge/tensorflow-feedstock" xlink:title="tensorflow">
<ellipse fill="#fde725" stroke="black" cx="222" cy="-862" rx="60" ry="18"/>
<text text-anchor="middle" x="222" y="-858.3" font-family="Times,serif" font-size="14.00">tensorflow</text>
</a>
</g>
</g>
<!-- cryptography&#45;&gt;tensorflow -->
<g id="edge25" class="edge">
<title>cryptography&#45;&gt;tensorflow</title>
<path fill="none" stroke="black" d="M599.78,-921.59C588.85,-919.68 577.6,-917.75 567,-916 468.62,-899.73 354.17,-882.48 284.96,-872.23"/>
<polygon fill="black" stroke="black" points="285.07,-868.71 274.66,-870.71 284.04,-875.63 285.07,-868.71"/>
</g>
<!-- mamba -->
<g id="node27" class="node">
<title>mamba</title>
<g id="a_node27"><a xlink:href="https://github.com/conda-forge/mamba-feedstock" xlink:title="mamba">
<ellipse fill="#fde725" stroke="black" cx="755" cy="-862" rx="45" ry="18"/>
<text text-anchor="middle" x="755" y="-858.3" font-family="Times,serif" font-size="14.00">mamba</text>
</a>
</g>
</g>
<!-- cryptography&#45;&gt;mamba -->
<g id="edge26" class="edge">
<title>cryptography&#45;&gt;mamba</title>
<path fill="none" stroke="black" d="M684.8,-916.41C697.39,-906.84 713.35,-894.69 726.87,-884.4"/>
<polygon fill="black" stroke="black" points="729.09,-887.11 734.93,-878.27 724.85,-881.54 729.09,-887.11"/>
</g>
<!-- mlflow -->
<g id="node28" class="node">
<title>mlflow</title>
<g id="a_node28"><a xlink:href="https://github.com/conda-forge/mlflow-feedstock" xlink:title="mlflow">
<ellipse fill="#fde725" stroke="black" cx="650" cy="-862" rx="41.69" ry="18"/>
<text text-anchor="middle" x="650" y="-858.3" font-family="Times,serif" font-size="14.00">mlflow</text>
</a>
</g>
</g>
<!-- cryptography&#45;&gt;mlflow -->
<g id="edge27" class="edge">
<title>cryptography&#45;&gt;mlflow</title>
<path fill="none" stroke="black" d="M659.79,-915.7C658.35,-907.98 656.63,-898.71 655.04,-890.11"/>
<polygon fill="black" stroke="black" points="658.44,-889.3 653.18,-880.1 651.56,-890.58 658.44,-889.3"/>
</g>
<!-- aws&#45;sdk&#45;cpp -->
<g id="node29" class="node">
<title>aws&#45;sdk&#45;cpp</title>
<g id="a_node29"><a xlink:href="https://github.com/conda-forge/aws-sdk-cpp-feedstock" xlink:title="aws sdk cpp">
<ellipse fill="#ff8c00" stroke="black" cx="500" cy="-1006" rx="67.69" ry="18"/>
<text text-anchor="middle" x="500" y="-1002.3" font-family="Times,serif" font-size="14.00">aws sdk cpp</text>
</a>
</g>
</g>
<!-- aws&#45;sdk&#45;cpp&#45;&gt;arrow&#45;cpp -->
<g id="edge28" class="edge">
<title>aws&#45;sdk&#45;cpp&#45;&gt;arrow&#45;cpp</title>
<path fill="none" stroke="black" d="M500,-987.7C500,-979.98 500,-970.71 500,-962.11"/>
<polygon fill="black" stroke="black" points="503.5,-962.1 500,-952.1 496.5,-962.1 503.5,-962.1"/>
</g>
<!-- pyctest -->
<g id="node31" class="node">
<title>pyctest</title>
<g id="a_node31"><a xlink:href="https://github.com/conda-forge/pyctest-feedstock/pull/18" xlink:title="pyctest ✓">
<ellipse fill="#31688e" stroke="black" cx="1904" cy="-682" rx="52" ry="18"/>
<text text-anchor="middle" x="1904" y="-678.3" font-family="Times,serif" font-size="14.00" fill="white">pyctest ✓</text>
</a>
</g>
</g>
<!-- pycurl&#45;&gt;pyctest -->
<!-- entwine -->
<g id="node33" class="node">
<title>entwine</title>
<g id="a_node33"><a xlink:href="https://github.com/conda-forge/entwine-feedstock/pull/28" xlink:title="entwine ❎">
<ellipse fill="#31688e" stroke="black" cx="1904" cy="-610" rx="61.99" ry="18"/>
<text text-anchor="middle" x="1904" y="-606.3" font-family="Times,serif" font-size="14.00" fill="white">entwine ❎</text>
</a>
</g>
</g>
<!-- pyctest&#45;&gt;entwine -->
<!-- lalpulsar -->
<g id="node32" class="node">
<title>lalpulsar</title>
<g id="a_node32"><a xlink:href="https://github.com/conda-forge/lalpulsar-feedstock/pull/39" xlink:title="lalpulsar ✓">
<ellipse fill="#31688e" stroke="black" cx="1198" cy="-934" rx="58.5" ry="18"/>
<text text-anchor="middle" x="1198" y="-930.3" font-family="Times,serif" font-size="14.00" fill="white">lalpulsar ✓</text>
</a>
</g>
</g>
<!-- lalpulsar&#45;&gt;lalinference -->
<g id="edge31" class="edge">
<title>lalpulsar&#45;&gt;lalinference</title>
<path fill="none" stroke="black" d="M1177.12,-917.12C1164.74,-907.7 1148.86,-895.61 1135.24,-885.25"/>
<polygon fill="black" stroke="black" points="1137.19,-882.33 1127.11,-879.06 1132.95,-887.9 1137.19,-882.33"/>
</g>
<!-- fossil -->
<g id="node34" class="node">
<title>fossil</title>
<g id="a_node34"><a xlink:href="https://github.com/conda-forge/fossil-feedstock/pull/14" xlink:title="fossil ❎">
<ellipse fill="#31688e" stroke="black" cx="1904" cy="-538" rx="49.5" ry="18"/>
<text text-anchor="middle" x="1904" y="-534.3" font-family="Times,serif" font-size="14.00" fill="white">fossil ❎</text>
</a>
</g>
</g>
<!-- entwine&#45;&gt;fossil -->
<!-- xrootd -->
<g id="node35" class="node">
<title>xrootd</title>
<g id="a_node35"><a xlink:href="https://github.com/conda-forge/xrootd-feedstock" xlink:title="xrootd">
<ellipse fill="#ff8c00" stroke="black" cx="512" cy="-386" rx="41" ry="18"/>
<text text-anchor="middle" x="512" y="-382.3" font-family="Times,serif" font-size="14.00">xrootd</text>
</a>
</g>
</g>
<!-- root -->
<g id="node36" class="node">
<title>root</title>
<g id="a_node36"><a xlink:href="https://github.com/conda-forge/root-feedstock" xlink:title="root">
<ellipse fill="#fde725" stroke="black" cx="450" cy="-314" rx="30" ry="18"/>
<text text-anchor="middle" x="450" y="-310.3" font-family="Times,serif" font-size="14.00">root</text>
</a>
</g>
</g>
<!-- xrootd&#45;&gt;root -->
<g id="edge34" class="edge">
<title>xrootd&#45;&gt;root</title>
<path fill="none" stroke="black" d="M497.62,-368.76C489.49,-359.59 479.2,-347.96 470.26,-337.88"/>
<polygon fill="black" stroke="black" points="472.7,-335.35 463.45,-330.19 467.46,-340 472.7,-335.35"/>
</g>
<!-- nordugrid&#45;arc -->
<g id="node37" class="node">
<title>nordugrid&#45;arc</title>
<g id="a_node37"><a xlink:href="https://github.com/conda-forge/nordugrid-arc-feedstock" xlink:title="nordugrid arc">
<ellipse fill="#fde725" stroke="black" cx="573" cy="-314" rx="74.99" ry="18"/>
<text text-anchor="middle" x="573" y="-310.3" font-family="Times,serif" font-size="14.00">nordugrid arc</text>
</a>
</g>
</g>
<!-- xrootd&#45;&gt;nordugrid&#45;arc -->
<g id="edge35" class="edge">
<title>xrootd&#45;&gt;nordugrid&#45;arc</title>
<path fill="none" stroke="black" d="M526.15,-368.76C533.63,-360.18 542.97,-349.46 551.34,-339.86"/>
<polygon fill="black" stroke="black" points="554.15,-341.96 558.08,-332.12 548.87,-337.36 554.15,-341.96"/>
</g>
<!-- cds&#45;crtools -->
<g id="node38" class="node">
<title>cds&#45;crtools</title>
<g id="a_node38"><a xlink:href="https://github.com/conda-forge/cds-crtools-feedstock" xlink:title="cds crtools">
<ellipse fill="#fde725" stroke="black" cx="450" cy="-242" rx="61.19" ry="18"/>
<text text-anchor="middle" x="450" y="-238.3" font-family="Times,serif" font-size="14.00">cds crtools</text>
</a>
</g>
</g>
<!-- root&#45;&gt;cds&#45;crtools -->
<g id="edge36" class="edge">
<title>root&#45;&gt;cds&#45;crtools</title>
<path fill="none" stroke="black" d="M450,-295.7C450,-287.98 450,-278.71 450,-270.11"/>
<polygon fill="black" stroke="black" points="453.5,-270.1 450,-260.1 446.5,-270.1 453.5,-270.1"/>
</g>
<!-- virtuoso&#45;opensource -->
<g id="node39" class="node">
<title>virtuoso&#45;opensource</title>
<g id="a_node39"><a xlink:href="https://github.com/conda-forge/virtuoso-opensource-feedstock/pull/5" xlink:title="virtuoso opensource ❎">
<ellipse fill="#31688e" stroke="black" cx="1668" cy="-1258" rx="119" ry="18"/>
<text text-anchor="middle" x="1668" y="-1254.3" font-family="Times,serif" font-size="14.00" fill="white">virtuoso opensource ❎</text>
</a>
</g>
</g>
<!-- pypy3.6 -->
<g id="node40" class="node">
<title>pypy3.6</title>
<g id="a_node40"><a xlink:href="https://github.com/conda-forge/pypy3.6-feedstock/pull/72" xlink:title="pypy3 6 ❎">
<ellipse fill="#31688e" stroke="black" cx="1668" cy="-1186" rx="61.99" ry="18"/>
<text text-anchor="middle" x="1668" y="-1182.3" font-family="Times,serif" font-size="14.00" fill="white">pypy3 6 ❎</text>
</a>
</g>
</g>
<!-- virtuoso&#45;opensource&#45;&gt;pypy3.6 -->
<!-- pygsi -->
<g id="node46" class="node">
<title>pygsi</title>
<g id="a_node46"><a xlink:href="https://github.com/conda-forge/pygsi-feedstock" xlink:title="pygsi">
<ellipse fill="#ff8c00" stroke="black" cx="1668" cy="-1114" rx="36" ry="18"/>
<text text-anchor="middle" x="1668" y="-1110.3" font-family="Times,serif" font-size="14.00">pygsi</text>
</a>
</g>
</g>
<!-- pypy3.6&#45;&gt;pygsi -->
<!-- voms -->
<g id="node41" class="node">
<title>voms</title>
<g id="a_node41"><a xlink:href="https://github.com/conda-forge/voms-feedstock/pull/8" xlink:title="voms ❎">
<ellipse fill="#31688e" stroke="black" cx="977" cy="-386" rx="49.5" ry="18"/>
<text text-anchor="middle" x="977" y="-382.3" font-family="Times,serif" font-size="14.00" fill="white">voms ❎</text>
</a>
</g>
</g>
<!-- cgsi&#45;gsoap -->
<g id="node42" class="node">
<title>cgsi&#45;gsoap</title>
<g id="a_node42"><a xlink:href="https://github.com/conda-forge/cgsi-gsoap-feedstock" xlink:title="cgsi gsoap">
<ellipse fill="#fde725" stroke="black" cx="847" cy="-314" rx="60" ry="18"/>
<text text-anchor="middle" x="847" y="-310.3" font-family="Times,serif" font-size="14.00">cgsi gsoap</text>
</a>
</g>
</g>
<!-- voms&#45;&gt;cgsi&#45;gsoap -->
<g id="edge38" class="edge">
<title>voms&#45;&gt;cgsi&#45;gsoap</title>
<path fill="none" stroke="black" d="M950.38,-370.67C931.23,-360.35 905.14,-346.31 883.97,-334.91"/>
<polygon fill="black" stroke="black" points="885.4,-331.7 874.93,-330.04 882.08,-337.86 885.4,-331.7"/>
</g>
<!-- htcondor -->
<g id="node43" class="node">
<title>htcondor</title>
<g id="a_node43"><a xlink:href="https://github.com/conda-forge/htcondor-feedstock" xlink:title="htcondor">
<ellipse fill="#fde725" stroke="black" cx="1099" cy="-314" rx="52" ry="18"/>
<text text-anchor="middle" x="1099" y="-310.3" font-family="Times,serif" font-size="14.00">htcondor</text>
</a>
</g>
</g>
<!-- voms&#45;&gt;htcondor -->
<g id="edge39" class="edge">
<title>voms&#45;&gt;htcondor</title>
<path fill="none" stroke="black" d="M1002.28,-370.5C1020.31,-360.15 1044.78,-346.11 1064.6,-334.74"/>
<polygon fill="black" stroke="black" points="1066.4,-337.74 1073.33,-329.73 1062.92,-331.67 1066.4,-337.74"/>
</g>
<!-- myproxy -->
<g id="node44" class="node">
<title>myproxy</title>
<g id="a_node44"><a xlink:href="https://github.com/conda-forge/myproxy-feedstock" xlink:title="myproxy">
<ellipse fill="#fde725" stroke="black" cx="977" cy="-314" rx="51.5" ry="18"/>
<text text-anchor="middle" x="977" y="-310.3" font-family="Times,serif" font-size="14.00">myproxy</text>
</a>
</g>
</g>
<!-- voms&#45;&gt;myproxy -->
<g id="edge40" class="edge">
<title>voms&#45;&gt;myproxy</title>
<path fill="none" stroke="black" d="M977,-367.7C977,-359.98 977,-350.71 977,-342.11"/>
<polygon fill="black" stroke="black" points="980.5,-342.1 977,-332.1 973.5,-342.1 980.5,-342.1"/>
</g>
<!-- srm&#45;ifce -->
<g id="node45" class="node">
<title>srm&#45;ifce</title>
<g id="a_node45"><a xlink:href="https://github.com/conda-forge/srm-ifce-feedstock" xlink:title="srm ifce">
<ellipse fill="#fde725" stroke="black" cx="803" cy="-242" rx="48.19" ry="18"/>
<text text-anchor="middle" x="803" y="-238.3" font-family="Times,serif" font-size="14.00">srm ifce</text>
</a>
</g>
</g>
<!-- cgsi&#45;gsoap&#45;&gt;srm&#45;ifce -->
<g id="edge41" class="edge">
<title>cgsi&#45;gsoap&#45;&gt;srm&#45;ifce</title>
<path fill="none" stroke="black" d="M836.35,-296.05C831.16,-287.8 824.81,-277.7 819.05,-268.54"/>
<polygon fill="black" stroke="black" points="821.84,-266.39 813.55,-259.79 815.91,-270.12 821.84,-266.39"/>
</g>
<!-- git&#45;crypt -->
<g id="node47" class="node">
<title>git&#45;crypt</title>
<g id="a_node47"><a xlink:href="https://github.com/conda-forge/git-crypt-feedstock/pull/2" xlink:title="git crypt ❎">
<ellipse fill="#31688e" stroke="black" cx="1668" cy="-1042" rx="65" ry="18"/>
<text text-anchor="middle" x="1668" y="-1038.3" font-family="Times,serif" font-size="14.00" fill="white">git crypt ❎</text>
</a>
</g>
</g>
<!-- pygsi&#45;&gt;git&#45;crypt -->
<!-- uftp -->
<g id="node48" class="node">
<title>uftp</title>
<g id="a_node48"><a xlink:href="https://github.com/conda-forge/uftp-feedstock/pull/2" xlink:title="uftp ❎">
<ellipse fill="#31688e" stroke="black" cx="1668" cy="-970" rx="44.39" ry="18"/>
<text text-anchor="middle" x="1668" y="-966.3" font-family="Times,serif" font-size="14.00" fill="white">uftp ❎</text>
</a>
</g>
</g>
<!-- git&#45;crypt&#45;&gt;uftp -->
<!-- nix -->
<g id="node53" class="node">
<title>nix</title>
<g id="a_node53"><a xlink:href="https://github.com/conda-forge/nix-feedstock/pull/19" xlink:title="nix ✓">
<ellipse fill="#31688e" stroke="black" cx="1668" cy="-898" rx="32.5" ry="18"/>
<text text-anchor="middle" x="1668" y="-894.3" font-family="Times,serif" font-size="14.00" fill="white">nix ✓</text>
</a>
</g>
</g>
<!-- uftp&#45;&gt;nix -->
<!-- gct -->
<g id="node49" class="node">
<title>gct</title>
<g id="a_node49"><a xlink:href="https://github.com/conda-forge/gct-feedstock/pull/6" xlink:title="gct ❎">
<ellipse fill="#31688e" stroke="black" cx="759" cy="-386" rx="39.79" ry="18"/>
<text text-anchor="middle" x="759" y="-382.3" font-family="Times,serif" font-size="14.00" fill="white">gct ❎</text>
</a>
</g>
</g>
<!-- gct&#45;&gt;nordugrid&#45;arc -->
<g id="edge45" class="edge">
<title>gct&#45;&gt;nordugrid&#45;arc</title>
<path fill="none" stroke="black" d="M729.53,-373.91C700.41,-362.95 655.37,-346 621.07,-333.09"/>
<polygon fill="black" stroke="black" points="622.29,-329.81 611.7,-329.56 619.83,-336.36 622.29,-329.81"/>
</g>
<!-- gct&#45;&gt;cgsi&#45;gsoap -->
<g id="edge46" class="edge">
<title>gct&#45;&gt;cgsi&#45;gsoap</title>
<path fill="none" stroke="black" d="M778.09,-369.81C789.98,-360.35 805.49,-348.02 818.78,-337.45"/>
<polygon fill="black" stroke="black" points="821.07,-340.1 826.72,-331.13 816.71,-334.62 821.07,-340.1"/>
</g>
<!-- gct&#45;&gt;myproxy -->
<g id="edge47" class="edge">
<title>gct&#45;&gt;myproxy</title>
<path fill="none" stroke="black" d="M790.7,-374.82C827.54,-362.99 888.66,-343.37 930.79,-329.84"/>
<polygon fill="black" stroke="black" points="932.08,-333.1 940.53,-326.71 929.94,-326.43 932.08,-333.1"/>
</g>
<!-- gct&#45;&gt;srm&#45;ifce -->
<g id="edge49" class="edge">
<title>gct&#45;&gt;srm&#45;ifce</title>
<path fill="none" stroke="black" d="M761.44,-367.96C764.31,-349.81 769.76,-320.4 778,-296 781.07,-286.9 785.28,-277.29 789.37,-268.8"/>
<polygon fill="black" stroke="black" points="792.54,-270.28 793.87,-259.77 786.28,-267.16 792.54,-270.28"/>
</g>
<!-- dcap -->
<g id="node50" class="node">
<title>dcap</title>
<g id="a_node50"><a xlink:href="https://github.com/conda-forge/dcap-feedstock" xlink:title="dcap">
<ellipse fill="#fde725" stroke="black" cx="698" cy="-314" rx="32.5" ry="18"/>
<text text-anchor="middle" x="698" y="-310.3" font-family="Times,serif" font-size="14.00">dcap</text>
</a>
</g>
</g>
<!-- gct&#45;&gt;dcap -->
<g id="edge48" class="edge">
<title>gct&#45;&gt;dcap</title>
<path fill="none" stroke="black" d="M745.16,-369.12C737.28,-360.08 727.27,-348.58 718.49,-338.52"/>
<polygon fill="black" stroke="black" points="721,-336.06 711.79,-330.82 715.72,-340.66 721,-336.06"/>
</g>
<!-- libwebsockets -->
<g id="node51" class="node">
<title>libwebsockets</title>
<g id="a_node51"><a xlink:href="https://github.com/conda-forge/libwebsockets-feedstock/pull/32" xlink:title="libwebsockets ❎">
<ellipse fill="#31688e" stroke="black" cx="1904" cy="-350" rx="90.5" ry="18"/>
<text text-anchor="middle" x="1904" y="-346.3" font-family="Times,serif" font-size="14.00" fill="white">libwebsockets ❎</text>
</a>
</g>
</g>
<!-- ttyd -->
<g id="node52" class="node">
<title>ttyd</title>
<g id="a_node52"><a xlink:href="https://github.com/conda-forge/ttyd-feedstock" xlink:title="ttyd">
<ellipse fill="#fde725" stroke="black" cx="1904" cy="-278" rx="30" ry="18"/>
<text text-anchor="middle" x="1904" y="-274.3" font-family="Times,serif" font-size="14.00">ttyd</text>
</a>
</g>
</g>
<!-- libwebsockets&#45;&gt;ttyd -->
<g id="edge50" class="edge">
<title>libwebsockets&#45;&gt;ttyd</title>
<path fill="none" stroke="black" d="M1904,-331.7C1904,-323.98 1904,-314.71 1904,-306.11"/>
<polygon fill="black" stroke="black" points="1907.5,-306.1 1904,-296.1 1900.5,-306.1 1907.5,-306.1"/>
</g>
<!-- cyclonedds -->
<g id="node54" class="node">
<title>cyclonedds</title>
<g id="a_node54"><a xlink:href="https://github.com/conda-forge/cyclonedds-feedstock/pull/2" xlink:title="cyclonedds ❎">
<ellipse fill="#31688e" stroke="black" cx="1668" cy="-826" rx="76.09" ry="18"/>
<text text-anchor="middle" x="1668" y="-822.3" font-family="Times,serif" font-size="14.00" fill="white">cyclonedds ❎</text>
</a>
</g>
</g>
<!-- nix&#45;&gt;cyclonedds -->
<!-- createrepo_c -->
<g id="node55" class="node">
<title>createrepo_c</title>
<g id="a_node55"><a xlink:href="https://github.com/conda-forge/createrepo_c-feedstock" xlink:title="createrepo_c">
<ellipse fill="#ff8c00" stroke="black" cx="1668" cy="-754" rx="70.39" ry="18"/>
<text text-anchor="middle" x="1668" y="-750.3" font-family="Times,serif" font-size="14.00">createrepo_c</text>
</a>
</g>
</g>
<!-- cyclonedds&#45;&gt;createrepo_c -->
<!-- glib&#45;networking -->
<g id="node58" class="node">
<title>glib&#45;networking</title>
<g id="a_node58"><a xlink:href="https://github.com/conda-forge/glib-networking-feedstock" xlink:title="glib networking">
<ellipse fill="#ff8c00" stroke="black" cx="1668" cy="-682" rx="84" ry="18"/>
<text text-anchor="middle" x="1668" y="-678.3" font-family="Times,serif" font-size="14.00">glib networking</text>
</a>
</g>
</g>
<!-- createrepo_c&#45;&gt;glib&#45;networking -->
<!-- serf -->
<g id="node56" class="node">
<title>serf</title>
<g id="a_node56"><a xlink:href="https://github.com/conda-forge/serf-feedstock/pull/2" xlink:title="serf ❎">
<ellipse fill="#31688e" stroke="black" cx="1904" cy="-90" rx="43" ry="18"/>
<text text-anchor="middle" x="1904" y="-86.3" font-family="Times,serif" font-size="14.00" fill="white">serf ❎</text>
</a>
</g>
</g>
<!-- subversion -->
<g id="node57" class="node">
<title>subversion</title>
<g id="a_node57"><a xlink:href="https://github.com/conda-forge/subversion-feedstock" xlink:title="subversion">
<ellipse fill="#fde725" stroke="black" cx="1904" cy="-18" rx="61.99" ry="18"/>
<text text-anchor="middle" x="1904" y="-14.3" font-family="Times,serif" font-size="14.00">subversion</text>
</a>
</g>
</g>
<!-- serf&#45;&gt;subversion -->
<g id="edge54" class="edge">
<title>serf&#45;&gt;subversion</title>
<path fill="none" stroke="black" d="M1904,-71.7C1904,-63.98 1904,-54.71 1904,-46.11"/>
<polygon fill="black" stroke="black" points="1907.5,-46.1 1904,-36.1 1900.5,-46.1 1907.5,-46.1"/>
</g>
<!-- pineappl -->
<g id="node59" class="node">
<title>pineappl</title>
<g id="a_node59"><a xlink:href="https://github.com/conda-forge/pineappl-feedstock/pull/8" xlink:title="pineappl ❎">
<ellipse fill="#31688e" stroke="black" cx="1668" cy="-610" rx="65" ry="18"/>
<text text-anchor="middle" x="1668" y="-606.3" font-family="Times,serif" font-size="14.00" fill="white">pineappl ❎</text>
</a>
</g>
</g>
<!-- glib&#45;networking&#45;&gt;pineappl -->
<!-- s2n -->
<g id="node60" class="node">
<title>s2n</title>
<g id="a_node60"><a xlink:href="https://github.com/conda-forge/s2n-feedstock/pull/45" xlink:title="s2n ❎">
<ellipse fill="#31688e" stroke="black" cx="1668" cy="-538" rx="41.69" ry="18"/>
<text text-anchor="middle" x="1668" y="-534.3" font-family="Times,serif" font-size="14.00" fill="white">s2n ❎</text>
</a>
</g>
</g>
<!-- pineappl&#45;&gt;s2n -->
<!-- libmamba -->
<g id="node61" class="node">
<title>libmamba</title>
<g id="a_node61"><a xlink:href="https://github.com/conda-forge/libmamba-feedstock/pull/41" xlink:title="libmamba ❎">
<ellipse fill="#31688e" stroke="black" cx="839" cy="-934" rx="71" ry="18"/>
<text text-anchor="middle" x="839" y="-930.3" font-family="Times,serif" font-size="14.00" fill="white">libmamba ❎</text>
</a>
</g>
</g>
<!-- libmamba&#45;&gt;mamba -->
<g id="edge58" class="edge">
<title>libmamba&#45;&gt;mamba</title>
<path fill="none" stroke="black" d="M819.09,-916.41C807.9,-907.08 793.78,-895.31 781.64,-885.2"/>
<polygon fill="black" stroke="black" points="783.54,-882.22 773.61,-878.51 779.05,-887.6 783.54,-882.22"/>
</g>
<!-- panda3d -->
<g id="node62" class="node">
<title>panda3d</title>
<g id="a_node62"><a xlink:href="https://github.com/conda-forge/panda3d-feedstock/pull/6" xlink:title="panda3d ✓">
<ellipse fill="#31688e" stroke="black" cx="1668" cy="-494" rx="58" ry="18"/>
<text text-anchor="middle" x="1668" y="-490.3" font-family="Times,serif" font-size="14.00" fill="white">panda3d ✓</text>
</a>
</g>
</g>
<!-- libxmlsec1 -->
<g id="node63" class="node">
<title>libxmlsec1</title>
<g id="a_node63"><a xlink:href="https://github.com/conda-forge/libxmlsec1-feedstock/pull/3" xlink:title="libxmlsec1 ❎">
<ellipse fill="#31688e" stroke="black" cx="1668" cy="-422" rx="74.99" ry="18"/>
<text text-anchor="middle" x="1668" y="-418.3" font-family="Times,serif" font-size="14.00" fill="white">libxmlsec1 ❎</text>
</a>
</g>
</g>
<!-- panda3d&#45;&gt;libxmlsec1 -->
<!-- go&#45;ipfs -->
<g id="node64" class="node">
<title>go&#45;ipfs</title>
<g id="a_node64"><a xlink:href="https://github.com/conda-forge/go-ipfs-feedstock/pull/10" xlink:title="go ipfs ❎">
<ellipse fill="#31688e" stroke="black" cx="1668" cy="-350" rx="56" ry="18"/>
<text text-anchor="middle" x="1668" y="-346.3" font-family="Times,serif" font-size="14.00" fill="white">go ipfs ❎</text>
</a>
</g>
</g>
<!-- libxmlsec1&#45;&gt;go&#45;ipfs -->
<!-- aws&#45;c&#45;s3 -->
<g id="node65" class="node">
<title>aws&#45;c&#45;s3</title>
<g id="a_node65"><a xlink:href="https://github.com/conda-forge/aws-c-s3-feedstock" xlink:title="aws c s3">
<ellipse fill="#ff8c00" stroke="black" cx="1668" cy="-278" rx="50.09" ry="18"/>
<text text-anchor="middle" x="1668" y="-274.3" font-family="Times,serif" font-size="14.00">aws c s3</text>
</a>
</g>
</g>
<!-- go&#45;ipfs&#45;&gt;aws&#45;c&#45;s3 -->
<!-- oxigraph -->
<g id="node67" class="node">
<title>oxigraph</title>
<g id="a_node67"><a xlink:href="https://github.com/conda-forge/oxigraph-feedstock/pull/6" xlink:title="oxigraph ❎">
<ellipse fill="#31688e" stroke="black" cx="1668" cy="-206" rx="65.79" ry="18"/>
<text text-anchor="middle" x="1668" y="-202.3" font-family="Times,serif" font-size="14.00" fill="white">oxigraph ❎</text>
</a>
</g>
</g>
<!-- aws&#45;c&#45;s3&#45;&gt;oxigraph -->
<!-- tensorboard&#45;data&#45;server -->
<g id="node66" class="node">
<title>tensorboard&#45;data&#45;server</title>
<g id="a_node66"><a xlink:href="https://github.com/conda-forge/tensorboard-data-server-feedstock/pull/9" xlink:title="tensorboard data server ❎">
<ellipse fill="#31688e" stroke="black" cx="138" cy="-934" rx="138" ry="18"/>
<text text-anchor="middle" x="138" y="-930.3" font-family="Times,serif" font-size="14.00" fill="white">tensorboard data server ❎</text>
</a>
</g>
</g>
<!-- tensorboard&#45;data&#45;server&#45;&gt;tensorflow -->
<g id="edge62" class="edge">
<title>tensorboard&#45;data&#45;server&#45;&gt;tensorflow</title>
<path fill="none" stroke="black" d="M158.33,-916.05C169.3,-906.92 182.98,-895.51 194.85,-885.63"/>
<polygon fill="black" stroke="black" points="197.28,-888.16 202.72,-879.07 192.8,-882.78 197.28,-888.16"/>
</g>
<!-- odc -->
<g id="node68" class="node">
<title>odc</title>
<g id="a_node68"><a xlink:href="https://github.com/conda-forge/odc-feedstock/pull/1" xlink:title="odc ✓">
<ellipse fill="#31688e" stroke="black" cx="1668" cy="-134" rx="34.5" ry="18"/>
<text text-anchor="middle" x="1668" y="-130.3" font-family="Times,serif" font-size="14.00" fill="white">odc ✓</text>
</a>
</g>
</g>
<!-- oxigraph&#45;&gt;odc -->
</g>
</svg>
