<?xml version="1.0" encoding="UTF-8" standalone="no"?>
<!DOCTYPE svg PUBLIC "-//W3C//DTD SVG 1.1//EN"
 "http://www.w3.org/Graphics/SVG/1.1/DTD/svg11.dtd">
<!-- Generated by graphviz version 4.0.0 (20220529.1859)
 -->
<!-- Pages: 1 -->
<svg width="1237pt" height="1024pt"
 viewBox="0.00 0.00 1237.28 1024.00" xmlns="http://www.w3.org/2000/svg" xmlns:xlink="http://www.w3.org/1999/xlink">
<g id="graph0" class="graph" transform="scale(1 1) rotate(0) translate(4 1020)">
<polygon fill="white" stroke="transparent" points="-4,4 -4,-1020 1233.28,-1020 1233.28,4 -4,4"/>
<!-- airflow -->
<g id="node1" class="node">
<title>airflow</title>
<g id="a_node1"><a xlink:href="https://github.com/conda-forge/airflow-feedstock" xlink:title="airflow">
<ellipse fill="#fde725" stroke="black" cx="667.59" cy="-710" rx="42.49" ry="18"/>
<text text-anchor="middle" x="667.59" y="-706.3" font-family="Times,serif" font-size="14.00">airflow</text>
</a>
</g>
</g>
<!-- arrow&#45;cpp -->
<g id="node2" class="node">
<title>arrow&#45;cpp</title>
<g id="a_node2"><a xlink:href="https://github.com/conda-forge/arrow-cpp-feedstock" xlink:title="arrow cpp">
<ellipse fill="#fde725" stroke="black" cx="67.59" cy="-782" rx="58" ry="18"/>
<text text-anchor="middle" x="67.59" y="-778.3" font-family="Times,serif" font-size="14.00">arrow cpp</text>
</a>
</g>
</g>
<!-- heavydb&#45;ext -->
<g id="node3" class="node">
<title>heavydb&#45;ext</title>
<g id="a_node3"><a xlink:href="https://github.com/conda-forge/heavydb-ext-feedstock" xlink:title="heavydb ext">
<ellipse fill="#35b779" stroke="black" cx="112.59" cy="-710" rx="67.69" ry="18"/>
<text text-anchor="middle" x="112.59" y="-706.3" font-family="Times,serif" font-size="14.00">heavydb ext</text>
</a>
</g>
</g>
<!-- arrow&#45;cpp&#45;&gt;heavydb&#45;ext -->
<g id="edge1" class="edge">
<title>arrow&#45;cpp&#45;&gt;heavydb&#45;ext</title>
<path fill="none" stroke="black" d="M78.49,-764.05C83.85,-755.71 90.42,-745.49 96.36,-736.25"/>
<polygon fill="black" stroke="black" points="99.34,-738.09 101.8,-727.79 93.45,-734.31 99.34,-738.09"/>
</g>
<!-- lighttpd -->
<g id="node4" class="node">
<title>lighttpd</title>
<g id="a_node4"><a xlink:href="https://github.com/conda-forge/lighttpd-feedstock/pull/12" xlink:title="lighttpd ❎">
<ellipse fill="#31688e" stroke="black" cx="866.59" cy="-998" rx="61.99" ry="18"/>
<text text-anchor="middle" x="866.59" y="-994.3" font-family="Times,serif" font-size="14.00" fill="white">lighttpd ❎</text>
</a>
</g>
</g>
<!-- m2crypto -->
<g id="node5" class="node">
<title>m2crypto</title>
<g id="a_node5"><a xlink:href="https://github.com/conda-forge/m2crypto-feedstock/pull/70" xlink:title="m2crypto ❎">
<ellipse fill="#31688e" stroke="black" cx="866.59" cy="-926" rx="69.59" ry="18"/>
<text text-anchor="middle" x="866.59" y="-922.3" font-family="Times,serif" font-size="14.00" fill="white">m2crypto ❎</text>
</a>
</g>
</g>
<!-- lighttpd&#45;&gt;m2crypto -->
<!-- mysql&#45;connector&#45;c -->
<g id="node6" class="node">
<title>mysql&#45;connector&#45;c</title>
<g id="a_node6"><a xlink:href="https://github.com/conda-forge/mysql-connector-c-feedstock/pull/21" xlink:title="mysql connector c ❎">
<ellipse fill="#31688e" stroke="black" cx="866.59" cy="-854" rx="109.38" ry="18"/>
<text text-anchor="middle" x="866.59" y="-850.3" font-family="Times,serif" font-size="14.00" fill="white">mysql connector c ❎</text>
</a>
</g>
</g>
<!-- m2crypto&#45;&gt;mysql&#45;connector&#45;c -->
<!-- w3m -->
<g id="node7" class="node">
<title>w3m</title>
<g id="a_node7"><a xlink:href="https://github.com/conda-forge/w3m-feedstock/pull/13" xlink:title="w3m ✓">
<ellipse fill="#31688e" stroke="black" cx="866.59" cy="-782" rx="40.5" ry="18"/>
<text text-anchor="middle" x="866.59" y="-778.3" font-family="Times,serif" font-size="14.00" fill="white">w3m ✓</text>
</a>
</g>
</g>
<!-- mysql&#45;connector&#45;c&#45;&gt;w3m -->
<!-- postgres&#45;xl -->
<g id="node9" class="node">
<title>postgres&#45;xl</title>
<g id="a_node9"><a xlink:href="https://github.com/conda-forge/postgres-xl-feedstock/pull/8" xlink:title="postgres xl ❎">
<ellipse fill="#31688e" stroke="black" cx="866.59" cy="-710" rx="76.89" ry="18"/>
<text text-anchor="middle" x="866.59" y="-706.3" font-family="Times,serif" font-size="14.00" fill="white">postgres xl ❎</text>
</a>
</g>
</g>
<!-- w3m&#45;&gt;postgres&#45;xl -->
<!-- octave -->
<g id="node8" class="node">
<title>octave</title>
<g id="a_node8"><a xlink:href="https://github.com/conda-forge/octave-feedstock" xlink:title="octave">
<ellipse fill="#fde725" stroke="black" cx="388.59" cy="-90" rx="41" ry="18"/>
<text text-anchor="middle" x="388.59" y="-86.3" font-family="Times,serif" font-size="14.00">octave</text>
</a>
</g>
</g>
<!-- sstp&#45;client -->
<g id="node10" class="node">
<title>sstp&#45;client</title>
<g id="a_node10"><a xlink:href="https://github.com/conda-forge/sstp-client-feedstock/pull/7" xlink:title="sstp client ✓">
<ellipse fill="#31688e" stroke="black" cx="866.59" cy="-638" rx="66.5" ry="18"/>
<text text-anchor="middle" x="866.59" y="-634.3" font-family="Times,serif" font-size="14.00" fill="white">sstp client ✓</text>
</a>
</g>
</g>
<!-- postgres&#45;xl&#45;&gt;sstp&#45;client -->
<!-- pycurl -->
<g id="node19" class="node">
<title>pycurl</title>
<g id="a_node19"><a xlink:href="https://github.com/conda-forge/pycurl-feedstock/pull/24" xlink:title="pycurl ✓">
<ellipse fill="#31688e" stroke="black" cx="866.59" cy="-566" rx="47.5" ry="18"/>
<text text-anchor="middle" x="866.59" y="-562.3" font-family="Times,serif" font-size="14.00" fill="white">pycurl ✓</text>
</a>
</g>
</g>
<!-- sstp&#45;client&#45;&gt;pycurl -->
<!-- cryptography -->
<g id="node11" class="node">
<title>cryptography</title>
<g id="a_node11"><a xlink:href="https://github.com/conda-forge/cryptography-feedstock/pull/98" xlink:title="cryptography ❎">
<ellipse fill="#31688e" stroke="black" cx="524.59" cy="-782" rx="87.18" ry="18"/>
<text text-anchor="middle" x="524.59" y="-778.3" font-family="Times,serif" font-size="14.00" fill="white">cryptography ❎</text>
</a>
</g>
</g>
<!-- cryptography&#45;&gt;airflow -->
<g id="edge7" class="edge">
<title>cryptography&#45;&gt;airflow</title>
<path fill="none" stroke="black" d="M557.04,-765.12C579.35,-754.2 608.97,-739.7 631.94,-728.45"/>
<polygon fill="black" stroke="black" points="633.57,-731.55 641.02,-724.01 630.5,-725.26 633.57,-731.55"/>
</g>
<!-- cryptography&#45;&gt;heavydb&#45;ext -->
<g id="edge8" class="edge">
<title>cryptography&#45;&gt;heavydb&#45;ext</title>
<path fill="none" stroke="black" d="M461.09,-769.67C450.25,-767.76 439.1,-765.81 428.59,-764 342.22,-749.11 242.45,-732.47 178.51,-721.88"/>
<polygon fill="black" stroke="black" points="179,-718.41 168.56,-720.23 177.85,-725.32 179,-718.41"/>
</g>
<!-- tensorflow -->
<g id="node12" class="node">
<title>tensorflow</title>
<g id="a_node12"><a xlink:href="https://github.com/conda-forge/tensorflow-feedstock" xlink:title="tensorflow">
<ellipse fill="#fde725" stroke="black" cx="292.59" cy="-710" rx="60" ry="18"/>
<text text-anchor="middle" x="292.59" y="-706.3" font-family="Times,serif" font-size="14.00">tensorflow</text>
</a>
</g>
</g>
<!-- cryptography&#45;&gt;tensorflow -->
<g id="edge9" class="edge">
<title>cryptography&#45;&gt;tensorflow</title>
<path fill="none" stroke="black" d="M477.65,-766.83C438.59,-755.05 383.1,-738.31 343.09,-726.24"/>
<polygon fill="black" stroke="black" points="343.86,-722.81 333.27,-723.27 341.83,-729.51 343.86,-722.81"/>
</g>
<!-- lalinference -->
<g id="node13" class="node">
<title>lalinference</title>
<g id="a_node13"><a xlink:href="https://github.com/conda-forge/lalinference-feedstock" xlink:title="lalinference">
<ellipse fill="#fde725" stroke="black" cx="392.59" cy="-638" rx="65.79" ry="18"/>
<text text-anchor="middle" x="392.59" y="-634.3" font-family="Times,serif" font-size="14.00">lalinference</text>
</a>
</g>
</g>
<!-- cryptography&#45;&gt;lalinference -->
<g id="edge10" class="edge">
<title>cryptography&#45;&gt;lalinference</title>
<path fill="none" stroke="black" d="M507.54,-764C497.3,-753.69 484.07,-740.22 472.59,-728 452.37,-706.46 429.92,-681.39 413.97,-663.35"/>
<polygon fill="black" stroke="black" points="416.37,-660.78 407.13,-655.6 411.12,-665.41 416.37,-660.78"/>
</g>
<!-- root -->
<g id="node14" class="node">
<title>root</title>
<g id="a_node14"><a xlink:href="https://github.com/conda-forge/root-feedstock" xlink:title="root">
<ellipse fill="#fde725" stroke="black" cx="433.59" cy="-566" rx="30" ry="18"/>
<text text-anchor="middle" x="433.59" y="-562.3" font-family="Times,serif" font-size="14.00">root</text>
</a>
</g>
</g>
<!-- cryptography&#45;&gt;root -->
<g id="edge11" class="edge">
<title>cryptography&#45;&gt;root</title>
<path fill="none" stroke="black" d="M519.85,-763.55C511.36,-733.43 492.11,-670.07 467.59,-620 462.76,-610.13 456.48,-599.84 450.64,-590.99"/>
<polygon fill="black" stroke="black" points="453.52,-588.99 445.01,-582.67 447.72,-592.92 453.52,-588.99"/>
</g>
<!-- mamba -->
<g id="node15" class="node">
<title>mamba</title>
<g id="a_node15"><a xlink:href="https://github.com/conda-forge/mamba-feedstock" xlink:title="mamba">
<ellipse fill="#fde725" stroke="black" cx="524.59" cy="-494" rx="45" ry="18"/>
<text text-anchor="middle" x="524.59" y="-490.3" font-family="Times,serif" font-size="14.00">mamba</text>
</a>
</g>
</g>
<!-- cryptography&#45;&gt;mamba -->
<g id="edge12" class="edge">
<title>cryptography&#45;&gt;mamba</title>
<path fill="none" stroke="black" d="M524.59,-763.97C524.59,-716.29 524.59,-581.18 524.59,-522.63"/>
<polygon fill="black" stroke="black" points="528.09,-522.31 524.59,-512.31 521.09,-522.31 528.09,-522.31"/>
</g>
<!-- mlflow -->
<g id="node16" class="node">
<title>mlflow</title>
<g id="a_node16"><a xlink:href="https://github.com/conda-forge/mlflow-feedstock" xlink:title="mlflow">
<ellipse fill="#fde725" stroke="black" cx="597.59" cy="-422" rx="41.69" ry="18"/>
<text text-anchor="middle" x="597.59" y="-418.3" font-family="Times,serif" font-size="14.00">mlflow</text>
</a>
</g>
</g>
<!-- cryptography&#45;&gt;mlflow -->
<g id="edge13" class="edge">
<title>cryptography&#45;&gt;mlflow</title>
<path fill="none" stroke="black" d="M540.08,-764.08C561.5,-738.83 597.59,-688.9 597.59,-639 597.59,-639 597.59,-639 597.59,-565 597.59,-525 597.59,-478.65 597.59,-450.08"/>
<polygon fill="black" stroke="black" points="601.09,-450.05 597.59,-440.05 594.09,-450.05 601.09,-450.05"/>
</g>
<!-- cds&#45;crtools -->
<g id="node17" class="node">
<title>cds&#45;crtools</title>
<g id="a_node17"><a xlink:href="https://github.com/conda-forge/cds-crtools-feedstock" xlink:title="cds crtools">
<ellipse fill="#fde725" stroke="black" cx="400.59" cy="-494" rx="61.19" ry="18"/>
<text text-anchor="middle" x="400.59" y="-490.3" font-family="Times,serif" font-size="14.00">cds crtools</text>
</a>
</g>
</g>
<!-- root&#45;&gt;cds&#45;crtools -->
<g id="edge14" class="edge">
<title>root&#45;&gt;cds&#45;crtools</title>
<path fill="none" stroke="black" d="M425.77,-548.41C421.93,-540.25 417.2,-530.22 412.88,-521.07"/>
<polygon fill="black" stroke="black" points="416.02,-519.51 408.59,-511.96 409.69,-522.49 416.02,-519.51"/>
</g>
<!-- aws&#45;sdk&#45;cpp -->
<g id="node18" class="node">
<title>aws&#45;sdk&#45;cpp</title>
<g id="a_node18"><a xlink:href="https://github.com/conda-forge/aws-sdk-cpp-feedstock" xlink:title="aws sdk cpp">
<ellipse fill="#ff8c00" stroke="black" cx="67.59" cy="-854" rx="67.69" ry="18"/>
<text text-anchor="middle" x="67.59" y="-850.3" font-family="Times,serif" font-size="14.00">aws sdk cpp</text>
</a>
</g>
</g>
<!-- aws&#45;sdk&#45;cpp&#45;&gt;arrow&#45;cpp -->
<g id="edge15" class="edge">
<title>aws&#45;sdk&#45;cpp&#45;&gt;arrow&#45;cpp</title>
<path fill="none" stroke="black" d="M67.59,-835.7C67.59,-827.98 67.59,-818.71 67.59,-810.11"/>
<polygon fill="black" stroke="black" points="71.09,-810.1 67.59,-800.1 64.09,-810.1 71.09,-810.1"/>
</g>
<!-- fossil -->
<g id="node20" class="node">
<title>fossil</title>
<g id="a_node20"><a xlink:href="https://github.com/conda-forge/fossil-feedstock/pull/15" xlink:title="fossil ❎">
<ellipse fill="#31688e" stroke="black" cx="866.59" cy="-494" rx="49.5" ry="18"/>
<text text-anchor="middle" x="866.59" y="-490.3" font-family="Times,serif" font-size="14.00" fill="white">fossil ❎</text>
</a>
</g>
</g>
<!-- pycurl&#45;&gt;fossil -->
<!-- virtuoso&#45;opensource -->
<g id="node21" class="node">
<title>virtuoso&#45;opensource</title>
<g id="a_node21"><a xlink:href="https://github.com/conda-forge/virtuoso-opensource-feedstock/pull/5" xlink:title="virtuoso opensource ❎">
<ellipse fill="#31688e" stroke="black" cx="866.59" cy="-422" rx="119" ry="18"/>
<text text-anchor="middle" x="866.59" y="-418.3" font-family="Times,serif" font-size="14.00" fill="white">virtuoso opensource ❎</text>
</a>
</g>
</g>
<!-- fossil&#45;&gt;virtuoso&#45;opensource -->
<!-- pygsi -->
<g id="node22" class="node">
<title>pygsi</title>
<g id="a_node22"><a xlink:href="https://github.com/conda-forge/pygsi-feedstock" xlink:title="pygsi">
<ellipse fill="#ff8c00" stroke="black" cx="866.59" cy="-350" rx="36" ry="18"/>
<text text-anchor="middle" x="866.59" y="-346.3" font-family="Times,serif" font-size="14.00">pygsi</text>
</a>
</g>
</g>
<!-- virtuoso&#45;opensource&#45;&gt;pygsi -->
<!-- git&#45;crypt -->
<g id="node28" class="node">
<title>git&#45;crypt</title>
<g id="a_node28"><a xlink:href="https://github.com/conda-forge/git-crypt-feedstock/pull/4" xlink:title="git crypt ❎">
<ellipse fill="#31688e" stroke="black" cx="866.59" cy="-278" rx="65" ry="18"/>
<text text-anchor="middle" x="866.59" y="-274.3" font-family="Times,serif" font-size="14.00" fill="white">git crypt ❎</text>
</a>
</g>
</g>
<!-- pygsi&#45;&gt;git&#45;crypt -->
<!-- voms -->
<g id="node23" class="node">
<title>voms</title>
<g id="a_node23"><a xlink:href="https://github.com/conda-forge/voms-feedstock/pull/14" xlink:title="voms ❎">
<ellipse fill="#31688e" stroke="black" cx="883.59" cy="-234" rx="49.5" ry="18"/>
<text text-anchor="middle" x="883.59" y="-230.3" font-family="Times,serif" font-size="14.00" fill="white">voms ❎</text>
</a>
</g>
</g>
<!-- cgsi&#45;gsoap -->
<g id="node24" class="node">
<title>cgsi&#45;gsoap</title>
<g id="a_node24"><a xlink:href="https://github.com/conda-forge/cgsi-gsoap-feedstock" xlink:title="cgsi gsoap">
<ellipse fill="#fde725" stroke="black" cx="780.59" cy="-162" rx="60" ry="18"/>
<text text-anchor="middle" x="780.59" y="-158.3" font-family="Times,serif" font-size="14.00">cgsi gsoap</text>
</a>
</g>
</g>
<!-- voms&#45;&gt;cgsi&#45;gsoap -->
<g id="edge20" class="edge">
<title>voms&#45;&gt;cgsi&#45;gsoap</title>
<path fill="none" stroke="black" d="M861.24,-217.81C846.87,-208.04 827.97,-195.2 812.08,-184.4"/>
<polygon fill="black" stroke="black" points="813.85,-181.37 803.61,-178.64 809.92,-187.16 813.85,-181.37"/>
</g>
<!-- htcondor -->
<g id="node25" class="node">
<title>htcondor</title>
<g id="a_node25"><a xlink:href="https://github.com/conda-forge/htcondor-feedstock" xlink:title="htcondor">
<ellipse fill="#fde725" stroke="black" cx="883.59" cy="-90" rx="52" ry="18"/>
<text text-anchor="middle" x="883.59" y="-86.3" font-family="Times,serif" font-size="14.00">htcondor</text>
</a>
</g>
</g>
<!-- voms&#45;&gt;htcondor -->
<g id="edge21" class="edge">
<title>voms&#45;&gt;htcondor</title>
<path fill="none" stroke="black" d="M883.59,-215.87C883.59,-191.67 883.59,-147.21 883.59,-118.39"/>
<polygon fill="black" stroke="black" points="887.09,-118.19 883.59,-108.19 880.09,-118.19 887.09,-118.19"/>
</g>
<!-- myproxy -->
<g id="node26" class="node">
<title>myproxy</title>
<g id="a_node26"><a xlink:href="https://github.com/conda-forge/myproxy-feedstock" xlink:title="myproxy">
<ellipse fill="#fde725" stroke="black" cx="963.59" cy="-18" rx="51.5" ry="18"/>
<text text-anchor="middle" x="963.59" y="-14.3" font-family="Times,serif" font-size="14.00">myproxy</text>
</a>
</g>
</g>
<!-- voms&#45;&gt;myproxy -->
<g id="edge22" class="edge">
<title>voms&#45;&gt;myproxy</title>
<path fill="none" stroke="black" d="M893.45,-216.18C906.83,-192.69 930.66,-148.4 944.59,-108 951.58,-87.74 956.5,-63.97 959.58,-46.09"/>
<polygon fill="black" stroke="black" points="963.06,-46.5 961.22,-36.06 956.15,-45.37 963.06,-46.5"/>
</g>
<!-- srm&#45;ifce -->
<g id="node27" class="node">
<title>srm&#45;ifce</title>
<g id="a_node27"><a xlink:href="https://github.com/conda-forge/srm-ifce-feedstock" xlink:title="srm ifce">
<ellipse fill="#fde725" stroke="black" cx="765.59" cy="-90" rx="48.19" ry="18"/>
<text text-anchor="middle" x="765.59" y="-86.3" font-family="Times,serif" font-size="14.00">srm ifce</text>
</a>
</g>
</g>
<!-- cgsi&#45;gsoap&#45;&gt;srm&#45;ifce -->
<g id="edge23" class="edge">
<title>cgsi&#45;gsoap&#45;&gt;srm&#45;ifce</title>
<path fill="none" stroke="black" d="M776.89,-143.7C775.23,-135.98 773.25,-126.71 771.4,-118.11"/>
<polygon fill="black" stroke="black" points="774.78,-117.15 769.26,-108.1 767.93,-118.62 774.78,-117.15"/>
</g>
<!-- ambertools -->
<g id="node29" class="node">
<title>ambertools</title>
<g id="a_node29"><a xlink:href="https://github.com/conda-forge/ambertools-feedstock/pull/87" xlink:title="ambertools ❎">
<ellipse fill="#31688e" stroke="black" cx="1126.59" cy="-998" rx="77.5" ry="18"/>
<text text-anchor="middle" x="1126.59" y="-994.3" font-family="Times,serif" font-size="14.00" fill="white">ambertools ❎</text>
</a>
</g>
</g>
<!-- rb&#45;eventmachine -->
<g id="node30" class="node">
<title>rb&#45;eventmachine</title>
<g id="a_node30"><a xlink:href="https://github.com/conda-forge/rb-eventmachine-feedstock/pull/4" xlink:title="rb eventmachine ❎">
<ellipse fill="#31688e" stroke="black" cx="1126.59" cy="-926" rx="102.88" ry="18"/>
<text text-anchor="middle" x="1126.59" y="-922.3" font-family="Times,serif" font-size="14.00" fill="white">rb eventmachine ❎</text>
</a>
</g>
</g>
<!-- ambertools&#45;&gt;rb&#45;eventmachine -->
<!-- uftp -->
<g id="node33" class="node">
<title>uftp</title>
<g id="a_node33"><a xlink:href="https://github.com/conda-forge/uftp-feedstock/pull/2" xlink:title="uftp ❎">
<ellipse fill="#31688e" stroke="black" cx="1126.59" cy="-854" rx="44.39" ry="18"/>
<text text-anchor="middle" x="1126.59" y="-850.3" font-family="Times,serif" font-size="14.00" fill="white">uftp ❎</text>
</a>
</g>
</g>
<!-- rb&#45;eventmachine&#45;&gt;uftp -->
<!-- libwebsockets -->
<g id="node31" class="node">
<title>libwebsockets</title>
<g id="a_node31"><a xlink:href="https://github.com/conda-forge/libwebsockets-feedstock/pull/35" xlink:title="libwebsockets ✓">
<ellipse fill="#31688e" stroke="black" cx="1126.59" cy="-162" rx="83.39" ry="18"/>
<text text-anchor="middle" x="1126.59" y="-158.3" font-family="Times,serif" font-size="14.00" fill="white">libwebsockets ✓</text>
</a>
</g>
</g>
<!-- ttyd -->
<g id="node32" class="node">
<title>ttyd</title>
<g id="a_node32"><a xlink:href="https://github.com/conda-forge/ttyd-feedstock" xlink:title="ttyd">
<ellipse fill="#fde725" stroke="black" cx="1126.59" cy="-90" rx="30" ry="18"/>
<text text-anchor="middle" x="1126.59" y="-86.3" font-family="Times,serif" font-size="14.00">ttyd</text>
</a>
</g>
</g>
<!-- libwebsockets&#45;&gt;ttyd -->
<g id="edge26" class="edge">
<title>libwebsockets&#45;&gt;ttyd</title>
<path fill="none" stroke="black" d="M1126.59,-143.7C1126.59,-135.98 1126.59,-126.71 1126.59,-118.11"/>
<polygon fill="black" stroke="black" points="1130.09,-118.1 1126.59,-108.1 1123.09,-118.1 1130.09,-118.1"/>
</g>
<!-- cyclonedds -->
<g id="node34" class="node">
<title>cyclonedds</title>
<g id="a_node34"><a xlink:href="https://github.com/conda-forge/cyclonedds-feedstock/pull/2" xlink:title="cyclonedds ❎">
<ellipse fill="#31688e" stroke="black" cx="1126.59" cy="-782" rx="76.09" ry="18"/>
<text text-anchor="middle" x="1126.59" y="-778.3" font-family="Times,serif" font-size="14.00" fill="white">cyclonedds ❎</text>
</a>
</g>
</g>
<!-- uftp&#45;&gt;cyclonedds -->
<!-- subversion -->
<g id="node35" class="node">
<title>subversion</title>
<g id="a_node35"><a xlink:href="https://github.com/conda-forge/subversion-feedstock/pull/10" xlink:title="subversion ❎">
<ellipse fill="#31688e" stroke="black" cx="1126.59" cy="-710" rx="75.5" ry="18"/>
<text text-anchor="middle" x="1126.59" y="-706.3" font-family="Times,serif" font-size="14.00" fill="white">subversion ❎</text>
</a>
</g>
</g>
<!-- cyclonedds&#45;&gt;subversion -->
<!-- nordugrid&#45;arc -->
<g id="node36" class="node">
<title>nordugrid&#45;arc</title>
<g id="a_node36"><a xlink:href="https://github.com/conda-forge/nordugrid-arc-feedstock" xlink:title="nordugrid arc">
<ellipse fill="#ff8c00" stroke="black" cx="1126.59" cy="-638" rx="74.99" ry="18"/>
<text text-anchor="middle" x="1126.59" y="-634.3" font-family="Times,serif" font-size="14.00">nordugrid arc</text>
</a>
</g>
</g>
<!-- subversion&#45;&gt;nordugrid&#45;arc -->
<!-- tokenizers -->
<g id="node37" class="node">
<title>tokenizers</title>
<g id="a_node37"><a xlink:href="https://github.com/conda-forge/tokenizers-feedstock/pull/48" xlink:title="tokenizers ❎">
<ellipse fill="#31688e" stroke="black" cx="1126.59" cy="-566" rx="73.5" ry="18"/>
<text text-anchor="middle" x="1126.59" y="-562.3" font-family="Times,serif" font-size="14.00" fill="white">tokenizers ❎</text>
</a>
</g>
</g>
<!-- nordugrid&#45;arc&#45;&gt;tokenizers -->
<!-- s2n -->
<g id="node38" class="node">
<title>s2n</title>
<g id="a_node38"><a xlink:href="https://github.com/conda-forge/s2n-feedstock/pull/64" xlink:title="s2n ❎">
<ellipse fill="#31688e" stroke="black" cx="1126.59" cy="-494" rx="41.69" ry="18"/>
<text text-anchor="middle" x="1126.59" y="-490.3" font-family="Times,serif" font-size="14.00" fill="white">s2n ❎</text>
</a>
</g>
</g>
<!-- tokenizers&#45;&gt;s2n -->
<!-- libxmlsec1 -->
<g id="node44" class="node">
<title>libxmlsec1</title>
<g id="a_node44"><a xlink:href="https://github.com/conda-forge/libxmlsec1-feedstock/pull/17" xlink:title="libxmlsec1 ❎">
<ellipse fill="#31688e" stroke="black" cx="1126.59" cy="-422" rx="74.99" ry="18"/>
<text text-anchor="middle" x="1126.59" y="-418.3" font-family="Times,serif" font-size="14.00" fill="white">libxmlsec1 ❎</text>
</a>
</g>
</g>
<!-- s2n&#45;&gt;libxmlsec1 -->
<!-- glib&#45;networking -->
<g id="node39" class="node">
<title>glib&#45;networking</title>
<g id="a_node39"><a xlink:href="https://github.com/conda-forge/glib-networking-feedstock/pull/19" xlink:title="glib networking ❎">
<ellipse fill="#31688e" stroke="black" cx="322.59" cy="-234" rx="98.28" ry="18"/>
<text text-anchor="middle" x="322.59" y="-230.3" font-family="Times,serif" font-size="14.00" fill="white">glib networking ❎</text>
</a>
</g>
</g>
<!-- qt&#45;main -->
<g id="node40" class="node">
<title>qt&#45;main</title>
<g id="a_node40"><a xlink:href="https://github.com/conda-forge/qt-main-feedstock" xlink:title="qt main">
<ellipse fill="#fde725" stroke="black" cx="388.59" cy="-162" rx="46.29" ry="18"/>
<text text-anchor="middle" x="388.59" y="-158.3" font-family="Times,serif" font-size="14.00">qt main</text>
</a>
</g>
</g>
<!-- glib&#45;networking&#45;&gt;qt&#45;main -->
<g id="edge33" class="edge">
<title>glib&#45;networking&#45;&gt;qt&#45;main</title>
<path fill="none" stroke="black" d="M338.57,-216.05C346.88,-207.24 357.17,-196.33 366.25,-186.69"/>
<polygon fill="black" stroke="black" points="368.91,-188.98 373.22,-179.31 363.81,-184.18 368.91,-188.98"/>
</g>
<!-- qt&#45;webengine -->
<g id="node41" class="node">
<title>qt&#45;webengine</title>
<g id="a_node41"><a xlink:href="https://github.com/conda-forge/qt-webengine-feedstock" xlink:title="qt webengine">
<ellipse fill="#fde725" stroke="black" cx="255.59" cy="-90" rx="73.5" ry="18"/>
<text text-anchor="middle" x="255.59" y="-86.3" font-family="Times,serif" font-size="14.00">qt webengine</text>
</a>
</g>
</g>
<!-- glib&#45;networking&#45;&gt;qt&#45;webengine -->
<g id="edge34" class="edge">
<title>glib&#45;networking&#45;&gt;qt&#45;webengine</title>
<path fill="none" stroke="black" d="M314.51,-215.87C302.94,-191.35 281.56,-146.03 267.98,-117.26"/>
<polygon fill="black" stroke="black" points="271.14,-115.74 263.7,-108.19 264.81,-118.73 271.14,-115.74"/>
</g>
<!-- qt&#45;main&#45;&gt;octave -->
<g id="edge35" class="edge">
<title>qt&#45;main&#45;&gt;octave</title>
<path fill="none" stroke="black" d="M388.59,-143.7C388.59,-135.98 388.59,-126.71 388.59,-118.11"/>
<polygon fill="black" stroke="black" points="392.09,-118.1 388.59,-108.1 385.09,-118.1 392.09,-118.1"/>
</g>
<!-- qt&#45;main&#45;&gt;qt&#45;webengine -->
<g id="edge36" class="edge">
<title>qt&#45;main&#45;&gt;qt&#45;webengine</title>
<path fill="none" stroke="black" d="M362.32,-147.17C342.84,-136.92 316,-122.79 294.1,-111.27"/>
<polygon fill="black" stroke="black" points="295.54,-108.07 285.06,-106.51 292.28,-114.26 295.54,-108.07"/>
</g>
<!-- rstudio -->
<g id="node42" class="node">
<title>rstudio</title>
<g id="a_node42"><a xlink:href="https://github.com/conda-forge/rstudio-feedstock" xlink:title="rstudio">
<ellipse fill="#fde725" stroke="black" cx="328.59" cy="-18" rx="44.39" ry="18"/>
<text text-anchor="middle" x="328.59" y="-14.3" font-family="Times,serif" font-size="14.00">rstudio</text>
</a>
</g>
</g>
<!-- qt&#45;main&#45;&gt;rstudio -->
<g id="edge37" class="edge">
<title>qt&#45;main&#45;&gt;rstudio</title>
<path fill="none" stroke="black" d="M409.11,-145.79C420.12,-136.3 432.62,-123.05 438.59,-108 444.5,-93.13 447.11,-85.55 438.59,-72 425.03,-50.4 399.92,-37.4 377.11,-29.68"/>
<polygon fill="black" stroke="black" points="378.1,-26.33 367.52,-26.69 376.02,-33.01 378.1,-26.33"/>
</g>
<!-- yarp -->
<g id="node43" class="node">
<title>yarp</title>
<g id="a_node43"><a xlink:href="https://github.com/conda-forge/yarp-feedstock" xlink:title="yarp">
<ellipse fill="#fde725" stroke="black" cx="495.59" cy="-18" rx="32" ry="18"/>
<text text-anchor="middle" x="495.59" y="-14.3" font-family="Times,serif" font-size="14.00">yarp</text>
</a>
</g>
</g>
<!-- qt&#45;main&#45;&gt;yarp -->
<g id="edge38" class="edge">
<title>qt&#45;main&#45;&gt;yarp</title>
<path fill="none" stroke="black" d="M411.96,-146.28C425.74,-136.7 442.75,-123.17 454.59,-108 469.26,-89.22 480.15,-64.35 487.01,-45.67"/>
<polygon fill="black" stroke="black" points="490.39,-46.61 490.4,-36.01 483.78,-44.29 490.39,-46.61"/>
</g>
<!-- qt&#45;webengine&#45;&gt;rstudio -->
<g id="edge39" class="edge">
<title>qt&#45;webengine&#45;&gt;rstudio</title>
<path fill="none" stroke="black" d="M272.89,-72.41C282.39,-63.3 294.32,-51.87 304.7,-41.92"/>
<polygon fill="black" stroke="black" points="307.13,-44.44 311.92,-34.99 302.28,-39.38 307.13,-44.44"/>
</g>
<!-- go&#45;ipfs -->
<g id="node45" class="node">
<title>go&#45;ipfs</title>
<g id="a_node45"><a xlink:href="https://github.com/conda-forge/go-ipfs-feedstock/pull/13" xlink:title="go ipfs ❎">
<ellipse fill="#31688e" stroke="black" cx="1126.59" cy="-350" rx="56" ry="18"/>
<text text-anchor="middle" x="1126.59" y="-346.3" font-family="Times,serif" font-size="14.00" fill="white">go ipfs ❎</text>
</a>
</g>
</g>
<!-- libxmlsec1&#45;&gt;go&#45;ipfs -->
<!-- aws&#45;c&#45;s3 -->
<g id="node46" class="node">
<title>aws&#45;c&#45;s3</title>
<g id="a_node46"><a xlink:href="https://github.com/conda-forge/aws-c-s3-feedstock" xlink:title="aws c s3">
<ellipse fill="#ff8c00" stroke="black" cx="1126.59" cy="-278" rx="50.09" ry="18"/>
<text text-anchor="middle" x="1126.59" y="-274.3" font-family="Times,serif" font-size="14.00">aws c s3</text>
</a>
</g>
</g>
<!-- go&#45;ipfs&#45;&gt;aws&#45;c&#45;s3 -->
<!-- tensorboard&#45;data&#45;server -->
<g id="node47" class="node">
<title>tensorboard&#45;data&#45;server</title>
<g id="a_node47"><a xlink:href="https://github.com/conda-forge/tensorboard-data-server-feedstock/pull/9" xlink:title="tensorboard data server ❎">
<ellipse fill="#31688e" stroke="black" cx="281.59" cy="-782" rx="138" ry="18"/>
<text text-anchor="middle" x="281.59" y="-778.3" font-family="Times,serif" font-size="14.00" fill="white">tensorboard data server ❎</text>
</a>
</g>
</g>
<!-- tensorboard&#45;data&#45;server&#45;&gt;tensorflow -->
<g id="edge43" class="edge">
<title>tensorboard&#45;data&#45;server&#45;&gt;tensorflow</title>
<path fill="none" stroke="black" d="M284.31,-763.7C285.53,-755.98 286.98,-746.71 288.33,-738.11"/>
<polygon fill="black" stroke="black" points="291.81,-738.53 289.91,-728.1 284.9,-737.44 291.81,-738.53"/>
</g>
</g>
</svg>
