<?xml version="1.0" encoding="UTF-8" standalone="no"?>
<!DOCTYPE svg PUBLIC "-//W3C//DTD SVG 1.1//EN"
 "http://www.w3.org/Graphics/SVG/1.1/DTD/svg11.dtd">
<!-- Generated by graphviz version 3.0.0 (20220315.2325)
 -->
<!-- Pages: 1 -->
<svg width="465pt" height="232pt"
 viewBox="0.00 0.00 464.84 232.00" xmlns="http://www.w3.org/2000/svg" xmlns:xlink="http://www.w3.org/1999/xlink">
<g id="graph0" class="graph" transform="scale(1 1) rotate(0) translate(4 228)">
<polygon fill="white" stroke="transparent" points="-4,4 -4,-228 460.84,-228 460.84,4 -4,4"/>
<!-- freeimage -->
<g id="node1" class="node">
<title>freeimage</title>
<g id="a_node1"><a xlink:href="https://github.com/conda-forge/freeimage-feedstock/pull/29" xlink:title="freeimage ❎">
<ellipse fill="#31688e" stroke="black" cx="209.99" cy="-170" rx="71.49" ry="18"/>
<text text-anchor="middle" x="209.99" y="-166.3" font-family="Times,serif" font-size="14.00" fill="white">freeimage ❎</text>
</a>
</g>
</g>
<!-- ogre -->
<g id="node4" class="node">
<title>ogre</title>
<g id="a_node4"><a xlink:href="https://github.com/conda-forge/ogre-feedstock" xlink:title="ogre">
<ellipse fill="#fde725" stroke="black" cx="209.99" cy="-98" rx="31.7" ry="18"/>
<text text-anchor="middle" x="209.99" y="-94.3" font-family="Times,serif" font-size="14.00">ogre</text>
</a>
</g>
</g>
<!-- freeimage&#45;&gt;ogre -->
<g id="edge1" class="edge">
<title>freeimage&#45;&gt;ogre</title>
<path fill="none" stroke="black" d="M209.99,-151.7C209.99,-143.98 209.99,-134.71 209.99,-126.11"/>
<polygon fill="black" stroke="black" points="213.49,-126.1 209.99,-116.1 206.49,-126.1 213.49,-126.1"/>
</g>
<!-- vigra -->
<g id="node2" class="node">
<title>vigra</title>
<g id="a_node2"><a xlink:href="https://github.com/conda-forge/vigra-feedstock" xlink:title="vigra">
<ellipse fill="#000000" stroke="black" cx="89.99" cy="-206" rx="34.39" ry="18"/>
<text text-anchor="middle" x="89.99" y="-202.3" font-family="Times,serif" font-size="14.00" fill="white">vigra</text>
</a>
</g>
</g>
<!-- enblend -->
<g id="node5" class="node">
<title>enblend</title>
<g id="a_node5"><a xlink:href="https://github.com/conda-forge/enblend-feedstock" xlink:title="enblend">
<ellipse fill="#fde725" stroke="black" cx="51.99" cy="-134" rx="48.19" ry="18"/>
<text text-anchor="middle" x="51.99" y="-130.3" font-family="Times,serif" font-size="14.00">enblend</text>
</a>
</g>
</g>
<!-- vigra&#45;&gt;enblend -->
<g id="edge2" class="edge">
<title>vigra&#45;&gt;enblend</title>
<path fill="none" stroke="black" d="M80.99,-188.41C76.51,-180.16 71,-170.01 65.99,-160.78"/>
<polygon fill="black" stroke="black" points="69.05,-159.07 61.2,-151.96 62.89,-162.41 69.05,-159.07"/>
</g>
<!-- hugin -->
<g id="node6" class="node">
<title>hugin</title>
<g id="a_node6"><a xlink:href="https://github.com/conda-forge/hugin-feedstock" xlink:title="hugin">
<ellipse fill="#fde725" stroke="black" cx="89.99" cy="-62" rx="37.09" ry="18"/>
<text text-anchor="middle" x="89.99" y="-58.3" font-family="Times,serif" font-size="14.00">hugin</text>
</a>
</g>
</g>
<!-- vigra&#45;&gt;hugin -->
<g id="edge3" class="edge">
<title>vigra&#45;&gt;hugin</title>
<path fill="none" stroke="black" d="M97.69,-188.22C101.95,-177.99 106.82,-164.52 108.99,-152 111.73,-136.24 111.73,-131.76 108.99,-116 107.43,-107 104.48,-97.51 101.36,-89.09"/>
<polygon fill="black" stroke="black" points="104.61,-87.8 97.69,-79.78 98.1,-90.37 104.61,-87.8"/>
</g>
<!-- openimageio -->
<g id="node3" class="node">
<title>openimageio</title>
<g id="a_node3"><a xlink:href="https://github.com/conda-forge/openimageio-feedstock/pull/58" xlink:title="openimageio ❎">
<ellipse fill="#31688e" stroke="black" cx="372.99" cy="-134" rx="83.69" ry="18"/>
<text text-anchor="middle" x="372.99" y="-130.3" font-family="Times,serif" font-size="14.00" fill="white">openimageio ❎</text>
</a>
</g>
</g>
<!-- enblend&#45;&gt;hugin -->
<g id="edge4" class="edge">
<title>enblend&#45;&gt;hugin</title>
<path fill="none" stroke="black" d="M61.19,-116.05C65.63,-107.89 71.04,-97.91 75.98,-88.82"/>
<polygon fill="black" stroke="black" points="79.19,-90.25 80.88,-79.79 73.03,-86.91 79.19,-90.25"/>
</g>
<!-- panda3d -->
<g id="node7" class="node">
<title>panda3d</title>
<g id="a_node7"><a xlink:href="https://github.com/conda-forge/panda3d-feedstock/pull/12" xlink:title="panda3d ❎">
<ellipse fill="#31688e" stroke="black" cx="64.99" cy="-18" rx="64.99" ry="18"/>
<text text-anchor="middle" x="64.99" y="-14.3" font-family="Times,serif" font-size="14.00" fill="white">panda3d ❎</text>
</a>
</g>
</g>
</g>
</svg>
