<?xml version="1.0" encoding="UTF-8" standalone="no"?>
<!DOCTYPE svg PUBLIC "-//W3C//DTD SVG 1.1//EN"
 "http://www.w3.org/Graphics/SVG/1.1/DTD/svg11.dtd">
<!-- Generated by graphviz version 2.49.3 (20211104.1129)
 -->
<!-- Pages: 1 -->
<svg width="1804pt" height="1428pt"
 viewBox="0.00 0.00 1803.69 1428.00" xmlns="http://www.w3.org/2000/svg" xmlns:xlink="http://www.w3.org/1999/xlink">
<g id="graph0" class="graph" transform="scale(1 1) rotate(0) translate(4 1424)">
<polygon fill="white" stroke="transparent" points="-4,4 -4,-1424 1799.69,-1424 1799.69,4 -4,4"/>
<!-- airflow -->
<g id="node1" class="node">
<title>airflow</title>
<g id="a_node1"><a xlink:href="https://github.com/conda-forge/airflow-feedstock" xlink:title="airflow">
<ellipse fill="#fde725" stroke="black" cx="331.5" cy="-1078" rx="42.49" ry="18"/>
<text text-anchor="middle" x="331.5" y="-1074.3" font-family="Times,serif" font-size="14.00">airflow</text>
</a>
</g>
</g>
<!-- arrow&#45;cpp -->
<g id="node2" class="node">
<title>arrow&#45;cpp</title>
<g id="a_node2"><a xlink:href="https://github.com/conda-forge/arrow-cpp-feedstock" xlink:title="arrow cpp">
<ellipse fill="#fde725" stroke="black" cx="219.5" cy="-1150" rx="58" ry="18"/>
<text text-anchor="middle" x="219.5" y="-1146.3" font-family="Times,serif" font-size="14.00">arrow cpp</text>
</a>
</g>
</g>
<!-- arrow&#45;cpp&#45;&gt;airflow -->
<g id="edge1" class="edge">
<title>arrow&#45;cpp&#45;&gt;airflow</title>
<path fill="none" stroke="black" d="M244.08,-1133.64C260.42,-1123.43 282.04,-1109.91 299.69,-1098.88"/>
<polygon fill="black" stroke="black" points="301.88,-1101.64 308.51,-1093.37 298.17,-1095.7 301.88,-1101.64"/>
</g>
<!-- omniscidb -->
<g id="node3" class="node">
<title>omniscidb</title>
<g id="a_node3"><a xlink:href="https://github.com/conda-forge/omniscidb-feedstock" xlink:title="omniscidb">
<ellipse fill="#fde725" stroke="black" cx="175.5" cy="-1078" rx="58" ry="18"/>
<text text-anchor="middle" x="175.5" y="-1074.3" font-family="Times,serif" font-size="14.00">omniscidb</text>
</a>
</g>
</g>
<!-- arrow&#45;cpp&#45;&gt;omniscidb -->
<g id="edge2" class="edge">
<title>arrow&#45;cpp&#45;&gt;omniscidb</title>
<path fill="none" stroke="black" d="M208.85,-1132.05C203.66,-1123.8 197.31,-1113.7 191.55,-1104.54"/>
<polygon fill="black" stroke="black" points="194.34,-1102.39 186.05,-1095.79 188.41,-1106.12 194.34,-1102.39"/>
</g>
<!-- erlang -->
<g id="node4" class="node">
<title>erlang</title>
<g id="a_node4"><a xlink:href="https://github.com/conda-forge/erlang-feedstock/pull/105" xlink:title="erlang ❎">
<ellipse fill="#31688e" stroke="black" cx="1686.5" cy="-1402" rx="54.69" ry="18"/>
<text text-anchor="middle" x="1686.5" y="-1398.3" font-family="Times,serif" font-size="14.00" fill="white">erlang ❎</text>
</a>
</g>
</g>
<!-- m2crypto -->
<g id="node5" class="node">
<title>m2crypto</title>
<g id="a_node5"><a xlink:href="https://github.com/conda-forge/m2crypto-feedstock/pull/63" xlink:title="m2crypto ❎">
<ellipse fill="#31688e" stroke="black" cx="1686.5" cy="-1330" rx="69.59" ry="18"/>
<text text-anchor="middle" x="1686.5" y="-1326.3" font-family="Times,serif" font-size="14.00" fill="white">m2crypto ❎</text>
</a>
</g>
</g>
<!-- erlang&#45;&gt;m2crypto -->
<!-- mysql&#45;connector&#45;c -->
<g id="node8" class="node">
<title>mysql&#45;connector&#45;c</title>
<g id="a_node8"><a xlink:href="https://github.com/conda-forge/mysql-connector-c-feedstock/pull/18" xlink:title="mysql connector c ❎">
<ellipse fill="#31688e" stroke="black" cx="1686.5" cy="-1258" rx="109.38" ry="18"/>
<text text-anchor="middle" x="1686.5" y="-1254.3" font-family="Times,serif" font-size="14.00" fill="white">mysql connector c ❎</text>
</a>
</g>
</g>
<!-- m2crypto&#45;&gt;mysql&#45;connector&#45;c -->
<!-- librdkafka -->
<g id="node6" class="node">
<title>librdkafka</title>
<g id="a_node6"><a xlink:href="https://github.com/conda-forge/librdkafka-feedstock/pull/67" xlink:title="librdkafka ❎">
<ellipse fill="#31688e" stroke="black" cx="71.5" cy="-1150" rx="71.5" ry="18"/>
<text text-anchor="middle" x="71.5" y="-1146.3" font-family="Times,serif" font-size="14.00" fill="white">librdkafka ❎</text>
</a>
</g>
</g>
<!-- librdkafka&#45;&gt;omniscidb -->
<g id="edge4" class="edge">
<title>librdkafka&#45;&gt;omniscidb</title>
<path fill="none" stroke="black" d="M95.36,-1132.94C109.73,-1123.27 128.2,-1110.83 143.79,-1100.34"/>
<polygon fill="black" stroke="black" points="145.77,-1103.23 152.11,-1094.74 141.86,-1097.42 145.77,-1103.23"/>
</g>
<!-- lighttpd -->
<g id="node7" class="node">
<title>lighttpd</title>
<g id="a_node7"><a xlink:href="https://github.com/conda-forge/lighttpd-feedstock" xlink:title="lighttpd">
<ellipse fill="#fde725" stroke="black" cx="975.5" cy="-1150" rx="48.19" ry="18"/>
<text text-anchor="middle" x="975.5" y="-1146.3" font-family="Times,serif" font-size="14.00">lighttpd</text>
</a>
</g>
</g>
<!-- uwsgi -->
<g id="node16" class="node">
<title>uwsgi</title>
<g id="a_node16"><a xlink:href="https://github.com/conda-forge/uwsgi-feedstock" xlink:title="uwsgi">
<ellipse fill="#ff8c00" stroke="black" cx="1686.5" cy="-1186" rx="38.5" ry="18"/>
<text text-anchor="middle" x="1686.5" y="-1182.3" font-family="Times,serif" font-size="14.00">uwsgi</text>
</a>
</g>
</g>
<!-- mysql&#45;connector&#45;c&#45;&gt;uwsgi -->
<!-- mysql -->
<g id="node9" class="node">
<title>mysql</title>
<g id="a_node9"><a xlink:href="https://github.com/conda-forge/mysql-feedstock/pull/57" xlink:title="mysql ❎">
<ellipse fill="#31688e" stroke="black" cx="1068.5" cy="-1222" rx="52.79" ry="18"/>
<text text-anchor="middle" x="1068.5" y="-1218.3" font-family="Times,serif" font-size="14.00" fill="white">mysql ❎</text>
</a>
</g>
</g>
<!-- mysql&#45;&gt;lighttpd -->
<g id="edge6" class="edge">
<title>mysql&#45;&gt;lighttpd</title>
<path fill="none" stroke="black" d="M1047.4,-1205.12C1034.62,-1195.5 1018.14,-1183.1 1004.19,-1172.59"/>
<polygon fill="black" stroke="black" points="1005.98,-1169.56 995.88,-1166.34 1001.77,-1175.15 1005.98,-1169.56"/>
</g>
<!-- qt -->
<g id="node10" class="node">
<title>qt</title>
<g id="a_node10"><a xlink:href="https://github.com/conda-forge/qt-feedstock" xlink:title="qt">
<ellipse fill="#fde725" stroke="black" cx="1068.5" cy="-1150" rx="27" ry="18"/>
<text text-anchor="middle" x="1068.5" y="-1146.3" font-family="Times,serif" font-size="14.00">qt</text>
</a>
</g>
</g>
<!-- mysql&#45;&gt;qt -->
<g id="edge7" class="edge">
<title>mysql&#45;&gt;qt</title>
<path fill="none" stroke="black" d="M1068.5,-1203.7C1068.5,-1195.98 1068.5,-1186.71 1068.5,-1178.11"/>
<polygon fill="black" stroke="black" points="1072,-1178.1 1068.5,-1168.1 1065,-1178.1 1072,-1178.1"/>
</g>
<!-- mysql&#45;connector&#45;cpp -->
<g id="node11" class="node">
<title>mysql&#45;connector&#45;cpp</title>
<g id="a_node11"><a xlink:href="https://github.com/conda-forge/mysql-connector-cpp-feedstock" xlink:title="mysql connector cpp">
<ellipse fill="#fde725" stroke="black" cx="1216.5" cy="-1078" rx="106.68" ry="18"/>
<text text-anchor="middle" x="1216.5" y="-1074.3" font-family="Times,serif" font-size="14.00">mysql connector cpp</text>
</a>
</g>
</g>
<!-- mysql&#45;&gt;mysql&#45;connector&#45;cpp -->
<g id="edge8" class="edge">
<title>mysql&#45;&gt;mysql&#45;connector&#45;cpp</title>
<path fill="none" stroke="black" d="M1085.48,-1204.71C1111.41,-1179.83 1161.03,-1132.22 1191.21,-1103.26"/>
<polygon fill="black" stroke="black" points="1194.01,-1105.43 1198.8,-1095.98 1189.16,-1100.38 1194.01,-1105.43"/>
</g>
<!-- qt&#45;&gt;airflow -->
<g id="edge9" class="edge">
<title>qt&#45;&gt;airflow</title>
<path fill="none" stroke="black" d="M1048.45,-1137.87C1043.39,-1135.53 1037.86,-1133.36 1032.5,-1132 752.04,-1060.91 666.7,-1150.23 382.5,-1096 378.9,-1095.31 375.2,-1094.43 371.51,-1093.44"/>
<polygon fill="black" stroke="black" points="372.47,-1090.08 361.89,-1090.6 370.49,-1096.79 372.47,-1090.08"/>
</g>
<!-- octave -->
<g id="node12" class="node">
<title>octave</title>
<g id="a_node12"><a xlink:href="https://github.com/conda-forge/octave-feedstock" xlink:title="octave">
<ellipse fill="#fde725" stroke="black" cx="1012.5" cy="-1078" rx="41" ry="18"/>
<text text-anchor="middle" x="1012.5" y="-1074.3" font-family="Times,serif" font-size="14.00">octave</text>
</a>
</g>
</g>
<!-- qt&#45;&gt;octave -->
<g id="edge10" class="edge">
<title>qt&#45;&gt;octave</title>
<path fill="none" stroke="black" d="M1056.35,-1133.81C1049.14,-1124.8 1039.84,-1113.18 1031.66,-1102.95"/>
<polygon fill="black" stroke="black" points="1034.39,-1100.76 1025.41,-1095.13 1028.92,-1105.13 1034.39,-1100.76"/>
</g>
<!-- lalinference -->
<g id="node13" class="node">
<title>lalinference</title>
<g id="a_node13"><a xlink:href="https://github.com/conda-forge/lalinference-feedstock" xlink:title="lalinference">
<ellipse fill="#fde725" stroke="black" cx="473.5" cy="-862" rx="65.79" ry="18"/>
<text text-anchor="middle" x="473.5" y="-858.3" font-family="Times,serif" font-size="14.00">lalinference</text>
</a>
</g>
</g>
<!-- qt&#45;&gt;lalinference -->
<g id="edge11" class="edge">
<title>qt&#45;&gt;lalinference</title>
<path fill="none" stroke="black" d="M1069.87,-1131.77C1070.75,-1113.47 1070.51,-1083.94 1062.5,-1060 1050.38,-1023.76 1046.83,-1009.88 1015.5,-988 872.5,-888.15 661.5,-866.97 549.62,-863.16"/>
<polygon fill="black" stroke="black" points="549.54,-859.65 539.44,-862.85 549.33,-866.65 549.54,-859.65"/>
</g>
<!-- ambertools -->
<g id="node14" class="node">
<title>ambertools</title>
<g id="a_node14"><a xlink:href="https://github.com/conda-forge/ambertools-feedstock" xlink:title="ambertools">
<ellipse fill="#fde725" stroke="black" cx="943.5" cy="-1006" rx="63.09" ry="18"/>
<text text-anchor="middle" x="943.5" y="-1002.3" font-family="Times,serif" font-size="14.00">ambertools</text>
</a>
</g>
</g>
<!-- qt&#45;&gt;ambertools -->
<g id="edge12" class="edge">
<title>qt&#45;&gt;ambertools</title>
<path fill="none" stroke="black" d="M1046.77,-1138.73C1016.59,-1124.38 965.33,-1099.66 962.5,-1096 948.94,-1078.48 944.53,-1053.44 943.32,-1034.38"/>
<polygon fill="black" stroke="black" points="946.81,-1034.09 942.94,-1024.23 939.82,-1034.35 946.81,-1034.09"/>
</g>
<!-- gnuradio -->
<g id="node15" class="node">
<title>gnuradio</title>
<g id="a_node15"><a xlink:href="https://github.com/conda-forge/gnuradio-feedstock" xlink:title="gnuradio">
<ellipse fill="#fde725" stroke="black" cx="863.5" cy="-1078" rx="52" ry="18"/>
<text text-anchor="middle" x="863.5" y="-1074.3" font-family="Times,serif" font-size="14.00">gnuradio</text>
</a>
</g>
</g>
<!-- qt&#45;&gt;gnuradio -->
<g id="edge13" class="edge">
<title>qt&#45;&gt;gnuradio</title>
<path fill="none" stroke="black" d="M1047.39,-1138.44C1042.55,-1136.19 1037.39,-1133.91 1032.5,-1132 993.01,-1116.57 947.03,-1102.38 913.01,-1092.58"/>
<polygon fill="black" stroke="black" points="913.88,-1089.19 903.3,-1089.81 911.96,-1095.92 913.88,-1089.19"/>
</g>
<!-- w3m -->
<g id="node19" class="node">
<title>w3m</title>
<g id="a_node19"><a xlink:href="https://github.com/conda-forge/w3m-feedstock/pull/11" xlink:title="w3m ❎">
<ellipse fill="#31688e" stroke="black" cx="1686.5" cy="-1114" rx="47.5" ry="18"/>
<text text-anchor="middle" x="1686.5" y="-1110.3" font-family="Times,serif" font-size="14.00" fill="white">w3m ❎</text>
</a>
</g>
</g>
<!-- uwsgi&#45;&gt;w3m -->
<!-- pylibscrypt -->
<g id="node17" class="node">
<title>pylibscrypt</title>
<g id="a_node17"><a xlink:href="https://github.com/conda-forge/pylibscrypt-feedstock" xlink:title="pylibscrypt">
<ellipse fill="#fde725" stroke="black" cx="661.5" cy="-18" rx="63.09" ry="18"/>
<text text-anchor="middle" x="661.5" y="-14.3" font-family="Times,serif" font-size="14.00">pylibscrypt</text>
</a>
</g>
</g>
<!-- scrypt -->
<g id="node18" class="node">
<title>scrypt</title>
<g id="a_node18"><a xlink:href="https://github.com/conda-forge/scrypt-feedstock/pull/31" xlink:title="scrypt ❎">
<ellipse fill="#31688e" stroke="black" cx="661.5" cy="-90" rx="54" ry="18"/>
<text text-anchor="middle" x="661.5" y="-86.3" font-family="Times,serif" font-size="14.00" fill="white">scrypt ❎</text>
</a>
</g>
</g>
<!-- scrypt&#45;&gt;pylibscrypt -->
<g id="edge15" class="edge">
<title>scrypt&#45;&gt;pylibscrypt</title>
<path fill="none" stroke="black" d="M661.5,-71.7C661.5,-63.98 661.5,-54.71 661.5,-46.11"/>
<polygon fill="black" stroke="black" points="665,-46.1 661.5,-36.1 658,-46.1 665,-46.1"/>
</g>
<!-- postgres&#45;xl -->
<g id="node20" class="node">
<title>postgres&#45;xl</title>
<g id="a_node20"><a xlink:href="https://github.com/conda-forge/postgres-xl-feedstock/pull/8" xlink:title="postgres xl ❎">
<ellipse fill="#31688e" stroke="black" cx="1686.5" cy="-1042" rx="76.89" ry="18"/>
<text text-anchor="middle" x="1686.5" y="-1038.3" font-family="Times,serif" font-size="14.00" fill="white">postgres xl ❎</text>
</a>
</g>
</g>
<!-- w3m&#45;&gt;postgres&#45;xl -->
<!-- sstp&#45;client -->
<g id="node21" class="node">
<title>sstp&#45;client</title>
<g id="a_node21"><a xlink:href="https://github.com/conda-forge/sstp-client-feedstock/pull/7" xlink:title="sstp client ✓">
<ellipse fill="#31688e" stroke="black" cx="1686.5" cy="-970" rx="66.5" ry="18"/>
<text text-anchor="middle" x="1686.5" y="-966.3" font-family="Times,serif" font-size="14.00" fill="white">sstp client ✓</text>
</a>
</g>
</g>
<!-- postgres&#45;xl&#45;&gt;sstp&#45;client -->
<!-- pycurl -->
<g id="node31" class="node">
<title>pycurl</title>
<g id="a_node31"><a xlink:href="https://github.com/conda-forge/pycurl-feedstock/pull/19" xlink:title="pycurl ❎">
<ellipse fill="#31688e" stroke="black" cx="1686.5" cy="-898" rx="54" ry="18"/>
<text text-anchor="middle" x="1686.5" y="-894.3" font-family="Times,serif" font-size="14.00" fill="white">pycurl ❎</text>
</a>
</g>
</g>
<!-- sstp&#45;client&#45;&gt;pycurl -->
<!-- cryptography -->
<g id="node22" class="node">
<title>cryptography</title>
<g id="a_node22"><a xlink:href="https://github.com/conda-forge/cryptography-feedstock/pull/80" xlink:title="cryptography ❎">
<ellipse fill="#31688e" stroke="black" cx="382.5" cy="-1150" rx="87.18" ry="18"/>
<text text-anchor="middle" x="382.5" y="-1146.3" font-family="Times,serif" font-size="14.00" fill="white">cryptography ❎</text>
</a>
</g>
</g>
<!-- cryptography&#45;&gt;airflow -->
<g id="edge19" class="edge">
<title>cryptography&#45;&gt;airflow</title>
<path fill="none" stroke="black" d="M370.15,-1132.05C363.92,-1123.5 356.25,-1112.97 349.39,-1103.56"/>
<polygon fill="black" stroke="black" points="352.1,-1101.33 343.38,-1095.31 346.44,-1105.45 352.1,-1101.33"/>
</g>
<!-- cryptography&#45;&gt;omniscidb -->
<g id="edge20" class="edge">
<title>cryptography&#45;&gt;omniscidb</title>
<path fill="none" stroke="black" d="M339.11,-1134.33C305.08,-1122.82 257.79,-1106.83 222.8,-1094.99"/>
<polygon fill="black" stroke="black" points="223.87,-1091.66 213.28,-1091.77 221.63,-1098.29 223.87,-1091.66"/>
</g>
<!-- cryptography&#45;&gt;lalinference -->
<g id="edge21" class="edge">
<title>cryptography&#45;&gt;lalinference</title>
<path fill="none" stroke="black" d="M331.93,-1135.25C312.33,-1127.19 291.9,-1114.76 280.5,-1096 253.58,-1051.67 243.76,-990.44 310.5,-916 333.63,-890.2 369.45,-876.9 401.62,-870.08"/>
<polygon fill="black" stroke="black" points="402.33,-873.51 411.47,-868.16 400.99,-866.63 402.33,-873.51"/>
</g>
<!-- cryptography&#45;&gt;gnuradio -->
<g id="edge22" class="edge">
<title>cryptography&#45;&gt;gnuradio</title>
<path fill="none" stroke="black" d="M444.89,-1137.35C456.06,-1135.43 467.61,-1133.57 478.5,-1132 621.91,-1111.36 660.25,-1123.54 802.5,-1096 806.93,-1095.14 811.51,-1094.12 816.07,-1093.01"/>
<polygon fill="black" stroke="black" points="817.16,-1096.35 825.98,-1090.48 815.42,-1089.57 817.16,-1096.35"/>
</g>
<!-- tensorflow -->
<g id="node23" class="node">
<title>tensorflow</title>
<g id="a_node23"><a xlink:href="https://github.com/conda-forge/tensorflow-feedstock" xlink:title="tensorflow">
<ellipse fill="#fde725" stroke="black" cx="625.5" cy="-1078" rx="60" ry="18"/>
<text text-anchor="middle" x="625.5" y="-1074.3" font-family="Times,serif" font-size="14.00">tensorflow</text>
</a>
</g>
</g>
<!-- cryptography&#45;&gt;tensorflow -->
<g id="edge23" class="edge">
<title>cryptography&#45;&gt;tensorflow</title>
<path fill="none" stroke="black" d="M431.09,-1135C472.51,-1123.07 531.86,-1105.97 574.07,-1093.82"/>
<polygon fill="black" stroke="black" points="575.23,-1097.12 583.87,-1090.99 573.29,-1090.4 575.23,-1097.12"/>
</g>
<!-- lal -->
<g id="node24" class="node">
<title>lal</title>
<g id="a_node24"><a xlink:href="https://github.com/conda-forge/lal-feedstock" xlink:title="lal">
<ellipse fill="#fde725" stroke="black" cx="418.5" cy="-1078" rx="27" ry="18"/>
<text text-anchor="middle" x="418.5" y="-1074.3" font-family="Times,serif" font-size="14.00">lal</text>
</a>
</g>
</g>
<!-- cryptography&#45;&gt;lal -->
<g id="edge24" class="edge">
<title>cryptography&#45;&gt;lal</title>
<path fill="none" stroke="black" d="M391.21,-1132.05C395.48,-1123.77 400.7,-1113.62 405.42,-1104.42"/>
<polygon fill="black" stroke="black" points="408.65,-1105.8 410.11,-1095.31 402.43,-1102.6 408.65,-1105.8"/>
</g>
<!-- mamba -->
<g id="node25" class="node">
<title>mamba</title>
<g id="a_node25"><a xlink:href="https://github.com/conda-forge/mamba-feedstock" xlink:title="mamba">
<ellipse fill="#fde725" stroke="black" cx="748.5" cy="-1078" rx="45" ry="18"/>
<text text-anchor="middle" x="748.5" y="-1074.3" font-family="Times,serif" font-size="14.00">mamba</text>
</a>
</g>
</g>
<!-- cryptography&#45;&gt;mamba -->
<g id="edge25" class="edge">
<title>cryptography&#45;&gt;mamba</title>
<path fill="none" stroke="black" d="M446,-1137.66C456.84,-1135.75 467.99,-1133.81 478.5,-1132 574.42,-1115.51 599.85,-1118.67 694.5,-1096 698.11,-1095.14 701.82,-1094.16 705.53,-1093.12"/>
<polygon fill="black" stroke="black" points="706.68,-1096.43 715.29,-1090.26 704.71,-1089.71 706.68,-1096.43"/>
</g>
<!-- mlflow -->
<g id="node26" class="node">
<title>mlflow</title>
<g id="a_node26"><a xlink:href="https://github.com/conda-forge/mlflow-feedstock" xlink:title="mlflow">
<ellipse fill="#fde725" stroke="black" cx="505.5" cy="-1078" rx="41.69" ry="18"/>
<text text-anchor="middle" x="505.5" y="-1074.3" font-family="Times,serif" font-size="14.00">mlflow</text>
</a>
</g>
</g>
<!-- cryptography&#45;&gt;mlflow -->
<g id="edge26" class="edge">
<title>cryptography&#45;&gt;mlflow</title>
<path fill="none" stroke="black" d="M410.72,-1132.94C429.09,-1122.49 453.12,-1108.81 472.4,-1097.84"/>
<polygon fill="black" stroke="black" points="474.19,-1100.85 481.15,-1092.86 470.73,-1094.76 474.19,-1100.85"/>
</g>
<!-- lal&#45;&gt;lalinference -->
<g id="edge27" class="edge">
<title>lal&#45;&gt;lalinference</title>
<path fill="none" stroke="black" d="M400.64,-1064.24C363.91,-1036.43 286.3,-968.6 323.5,-916 341.41,-890.68 372.47,-877.37 401.7,-870.41"/>
<polygon fill="black" stroke="black" points="402.49,-873.82 411.52,-868.29 401.01,-866.98 402.49,-873.82"/>
</g>
<!-- lalframe -->
<g id="node27" class="node">
<title>lalframe</title>
<g id="a_node27"><a xlink:href="https://github.com/conda-forge/lalframe-feedstock" xlink:title="lalframe">
<ellipse fill="#fde725" stroke="black" cx="544.5" cy="-1006" rx="49.5" ry="18"/>
<text text-anchor="middle" x="544.5" y="-1002.3" font-family="Times,serif" font-size="14.00">lalframe</text>
</a>
</g>
</g>
<!-- lal&#45;&gt;lalframe -->
<g id="edge28" class="edge">
<title>lal&#45;&gt;lalframe</title>
<path fill="none" stroke="black" d="M438.74,-1065.75C457.82,-1055.16 486.8,-1039.06 509.6,-1026.39"/>
<polygon fill="black" stroke="black" points="511.59,-1029.29 518.63,-1021.37 508.19,-1023.17 511.59,-1029.29"/>
</g>
<!-- lalsimulation -->
<g id="node28" class="node">
<title>lalsimulation</title>
<g id="a_node28"><a xlink:href="https://github.com/conda-forge/lalsimulation-feedstock" xlink:title="lalsimulation">
<ellipse fill="#fde725" stroke="black" cx="403.5" cy="-934" rx="71" ry="18"/>
<text text-anchor="middle" x="403.5" y="-930.3" font-family="Times,serif" font-size="14.00">lalsimulation</text>
</a>
</g>
</g>
<!-- lal&#45;&gt;lalsimulation -->
<g id="edge29" class="edge">
<title>lal&#45;&gt;lalsimulation</title>
<path fill="none" stroke="black" d="M416.69,-1059.87C414.13,-1035.67 409.44,-991.21 406.39,-962.39"/>
<polygon fill="black" stroke="black" points="409.85,-961.77 405.32,-952.19 402.89,-962.5 409.85,-961.77"/>
</g>
<!-- lalpulsar -->
<g id="node29" class="node">
<title>lalpulsar</title>
<g id="a_node29"><a xlink:href="https://github.com/conda-forge/lalpulsar-feedstock" xlink:title="lalpulsar">
<ellipse fill="#fde725" stroke="black" cx="544.5" cy="-934" rx="51.5" ry="18"/>
<text text-anchor="middle" x="544.5" y="-930.3" font-family="Times,serif" font-size="14.00">lalpulsar</text>
</a>
</g>
</g>
<!-- lal&#45;&gt;lalpulsar -->
<g id="edge30" class="edge">
<title>lal&#45;&gt;lalpulsar</title>
<path fill="none" stroke="black" d="M429.02,-1061.17C441.55,-1042.79 463.54,-1011.95 485.5,-988 495.29,-977.33 506.99,-966.47 517.39,-957.4"/>
<polygon fill="black" stroke="black" points="519.73,-960 525.03,-950.83 515.16,-954.69 519.73,-960"/>
</g>
<!-- lalframe&#45;&gt;lalinference -->
<g id="edge32" class="edge">
<title>lalframe&#45;&gt;lalinference</title>
<path fill="none" stroke="black" d="M569.63,-990.23C582.65,-981.05 597.3,-967.96 604.5,-952 611.08,-937.41 613.44,-929.27 604.5,-916 589.85,-894.27 564.62,-881.45 540.18,-873.88"/>
<polygon fill="black" stroke="black" points="541.1,-870.5 530.52,-871.14 539.19,-877.24 541.1,-870.5"/>
</g>
<!-- lalframe&#45;&gt;lalpulsar -->
<g id="edge33" class="edge">
<title>lalframe&#45;&gt;lalpulsar</title>
<path fill="none" stroke="black" d="M544.5,-987.7C544.5,-979.98 544.5,-970.71 544.5,-962.11"/>
<polygon fill="black" stroke="black" points="548,-962.1 544.5,-952.1 541,-962.1 548,-962.1"/>
</g>
<!-- lalsimulation&#45;&gt;lalinference -->
<g id="edge34" class="edge">
<title>lalsimulation&#45;&gt;lalinference</title>
<path fill="none" stroke="black" d="M420.09,-916.41C428.98,-907.52 440.09,-896.41 449.87,-886.63"/>
<polygon fill="black" stroke="black" points="452.43,-889.02 457.03,-879.47 447.48,-884.07 452.43,-889.02"/>
</g>
<!-- lalpulsar&#45;&gt;lalinference -->
<g id="edge35" class="edge">
<title>lalpulsar&#45;&gt;lalinference</title>
<path fill="none" stroke="black" d="M528.03,-916.76C519.02,-907.88 507.69,-896.71 497.69,-886.85"/>
<polygon fill="black" stroke="black" points="499.95,-884.16 490.37,-879.63 495.03,-889.15 499.95,-884.16"/>
</g>
<!-- aws&#45;sdk&#45;cpp -->
<g id="node30" class="node">
<title>aws&#45;sdk&#45;cpp</title>
<g id="a_node30"><a xlink:href="https://github.com/conda-forge/aws-sdk-cpp-feedstock" xlink:title="aws sdk cpp">
<ellipse fill="#ff8c00" stroke="black" cx="219.5" cy="-1222" rx="67.69" ry="18"/>
<text text-anchor="middle" x="219.5" y="-1218.3" font-family="Times,serif" font-size="14.00">aws sdk cpp</text>
</a>
</g>
</g>
<!-- aws&#45;sdk&#45;cpp&#45;&gt;arrow&#45;cpp -->
<g id="edge31" class="edge">
<title>aws&#45;sdk&#45;cpp&#45;&gt;arrow&#45;cpp</title>
<path fill="none" stroke="black" d="M219.5,-1203.7C219.5,-1195.98 219.5,-1186.71 219.5,-1178.11"/>
<polygon fill="black" stroke="black" points="223,-1178.1 219.5,-1168.1 216,-1178.1 223,-1178.1"/>
</g>
<!-- pyctest -->
<g id="node32" class="node">
<title>pyctest</title>
<g id="a_node32"><a xlink:href="https://github.com/conda-forge/pyctest-feedstock/pull/18" xlink:title="pyctest ✓">
<ellipse fill="#31688e" stroke="black" cx="1686.5" cy="-826" rx="52" ry="18"/>
<text text-anchor="middle" x="1686.5" y="-822.3" font-family="Times,serif" font-size="14.00" fill="white">pyctest ✓</text>
</a>
</g>
</g>
<!-- pycurl&#45;&gt;pyctest -->
<!-- entwine -->
<g id="node33" class="node">
<title>entwine</title>
<g id="a_node33"><a xlink:href="https://github.com/conda-forge/entwine-feedstock" xlink:title="entwine">
<ellipse fill="#ff8c00" stroke="black" cx="1686.5" cy="-754" rx="48.19" ry="18"/>
<text text-anchor="middle" x="1686.5" y="-750.3" font-family="Times,serif" font-size="14.00">entwine</text>
</a>
</g>
</g>
<!-- pyctest&#45;&gt;entwine -->
<!-- fossil -->
<g id="node34" class="node">
<title>fossil</title>
<g id="a_node34"><a xlink:href="https://github.com/conda-forge/fossil-feedstock/pull/14" xlink:title="fossil ❎">
<ellipse fill="#31688e" stroke="black" cx="1686.5" cy="-682" rx="49.5" ry="18"/>
<text text-anchor="middle" x="1686.5" y="-678.3" font-family="Times,serif" font-size="14.00" fill="white">fossil ❎</text>
</a>
</g>
</g>
<!-- entwine&#45;&gt;fossil -->
<!-- xrootd -->
<g id="node35" class="node">
<title>xrootd</title>
<g id="a_node35"><a xlink:href="https://github.com/conda-forge/xrootd-feedstock" xlink:title="xrootd">
<ellipse fill="#ff8c00" stroke="black" cx="464.5" cy="-458" rx="41" ry="18"/>
<text text-anchor="middle" x="464.5" y="-454.3" font-family="Times,serif" font-size="14.00">xrootd</text>
</a>
</g>
</g>
<!-- root -->
<g id="node36" class="node">
<title>root</title>
<g id="a_node36"><a xlink:href="https://github.com/conda-forge/root-feedstock" xlink:title="root">
<ellipse fill="#fde725" stroke="black" cx="402.5" cy="-386" rx="30" ry="18"/>
<text text-anchor="middle" x="402.5" y="-382.3" font-family="Times,serif" font-size="14.00">root</text>
</a>
</g>
</g>
<!-- xrootd&#45;&gt;root -->
<g id="edge40" class="edge">
<title>xrootd&#45;&gt;root</title>
<path fill="none" stroke="black" d="M450.12,-440.76C441.99,-431.59 431.7,-419.96 422.76,-409.88"/>
<polygon fill="black" stroke="black" points="425.2,-407.35 415.95,-402.19 419.96,-412 425.2,-407.35"/>
</g>
<!-- nordugrid&#45;arc -->
<g id="node37" class="node">
<title>nordugrid&#45;arc</title>
<g id="a_node37"><a xlink:href="https://github.com/conda-forge/nordugrid-arc-feedstock" xlink:title="nordugrid arc">
<ellipse fill="#fde725" stroke="black" cx="525.5" cy="-386" rx="74.99" ry="18"/>
<text text-anchor="middle" x="525.5" y="-382.3" font-family="Times,serif" font-size="14.00">nordugrid arc</text>
</a>
</g>
</g>
<!-- xrootd&#45;&gt;nordugrid&#45;arc -->
<g id="edge41" class="edge">
<title>xrootd&#45;&gt;nordugrid&#45;arc</title>
<path fill="none" stroke="black" d="M478.65,-440.76C486.13,-432.18 495.47,-421.46 503.84,-411.86"/>
<polygon fill="black" stroke="black" points="506.65,-413.96 510.58,-404.12 501.37,-409.36 506.65,-413.96"/>
</g>
<!-- cds&#45;crtools -->
<g id="node38" class="node">
<title>cds&#45;crtools</title>
<g id="a_node38"><a xlink:href="https://github.com/conda-forge/cds-crtools-feedstock" xlink:title="cds crtools">
<ellipse fill="#fde725" stroke="black" cx="402.5" cy="-314" rx="61.19" ry="18"/>
<text text-anchor="middle" x="402.5" y="-310.3" font-family="Times,serif" font-size="14.00">cds crtools</text>
</a>
</g>
</g>
<!-- root&#45;&gt;cds&#45;crtools -->
<g id="edge42" class="edge">
<title>root&#45;&gt;cds&#45;crtools</title>
<path fill="none" stroke="black" d="M402.5,-367.7C402.5,-359.98 402.5,-350.71 402.5,-342.11"/>
<polygon fill="black" stroke="black" points="406,-342.1 402.5,-332.1 399,-342.1 406,-342.1"/>
</g>
<!-- virtuoso&#45;opensource -->
<g id="node39" class="node">
<title>virtuoso&#45;opensource</title>
<g id="a_node39"><a xlink:href="https://github.com/conda-forge/virtuoso-opensource-feedstock/pull/5" xlink:title="virtuoso opensource ❎">
<ellipse fill="#31688e" stroke="black" cx="1450.5" cy="-1402" rx="119" ry="18"/>
<text text-anchor="middle" x="1450.5" y="-1398.3" font-family="Times,serif" font-size="14.00" fill="white">virtuoso opensource ❎</text>
</a>
</g>
</g>
<!-- pypy3.6 -->
<g id="node40" class="node">
<title>pypy3.6</title>
<g id="a_node40"><a xlink:href="https://github.com/conda-forge/pypy3.6-feedstock/pull/72" xlink:title="pypy3 6 ❎">
<ellipse fill="#31688e" stroke="black" cx="1450.5" cy="-1330" rx="61.99" ry="18"/>
<text text-anchor="middle" x="1450.5" y="-1326.3" font-family="Times,serif" font-size="14.00" fill="white">pypy3 6 ❎</text>
</a>
</g>
</g>
<!-- virtuoso&#45;opensource&#45;&gt;pypy3.6 -->
<!-- pygsi -->
<g id="node45" class="node">
<title>pygsi</title>
<g id="a_node45"><a xlink:href="https://github.com/conda-forge/pygsi-feedstock" xlink:title="pygsi">
<ellipse fill="#ff8c00" stroke="black" cx="1450.5" cy="-1258" rx="36" ry="18"/>
<text text-anchor="middle" x="1450.5" y="-1254.3" font-family="Times,serif" font-size="14.00">pygsi</text>
</a>
</g>
</g>
<!-- pypy3.6&#45;&gt;pygsi -->
<!-- voms -->
<g id="node41" class="node">
<title>voms</title>
<g id="a_node41"><a xlink:href="https://github.com/conda-forge/voms-feedstock/pull/6" xlink:title="voms ❎">
<ellipse fill="#31688e" stroke="black" cx="865.5" cy="-458" rx="49.5" ry="18"/>
<text text-anchor="middle" x="865.5" y="-454.3" font-family="Times,serif" font-size="14.00" fill="white">voms ❎</text>
</a>
</g>
</g>
<!-- cgsi&#45;gsoap -->
<g id="node42" class="node">
<title>cgsi&#45;gsoap</title>
<g id="a_node42"><a xlink:href="https://github.com/conda-forge/cgsi-gsoap-feedstock" xlink:title="cgsi gsoap">
<ellipse fill="#fde725" stroke="black" cx="800.5" cy="-386" rx="60" ry="18"/>
<text text-anchor="middle" x="800.5" y="-382.3" font-family="Times,serif" font-size="14.00">cgsi gsoap</text>
</a>
</g>
</g>
<!-- voms&#45;&gt;cgsi&#45;gsoap -->
<g id="edge44" class="edge">
<title>voms&#45;&gt;cgsi&#45;gsoap</title>
<path fill="none" stroke="black" d="M850.42,-440.76C842.26,-431.97 832,-420.93 822.92,-411.14"/>
<polygon fill="black" stroke="black" points="825.31,-408.58 815.95,-403.63 820.19,-413.34 825.31,-408.58"/>
</g>
<!-- myproxy -->
<g id="node43" class="node">
<title>myproxy</title>
<g id="a_node43"><a xlink:href="https://github.com/conda-forge/myproxy-feedstock" xlink:title="myproxy">
<ellipse fill="#fde725" stroke="black" cx="930.5" cy="-386" rx="51.5" ry="18"/>
<text text-anchor="middle" x="930.5" y="-382.3" font-family="Times,serif" font-size="14.00">myproxy</text>
</a>
</g>
</g>
<!-- voms&#45;&gt;myproxy -->
<g id="edge45" class="edge">
<title>voms&#45;&gt;myproxy</title>
<path fill="none" stroke="black" d="M880.58,-440.76C888.74,-431.97 899,-420.93 908.08,-411.14"/>
<polygon fill="black" stroke="black" points="910.81,-413.34 915.05,-403.63 905.69,-408.58 910.81,-413.34"/>
</g>
<!-- srm&#45;ifce -->
<g id="node44" class="node">
<title>srm&#45;ifce</title>
<g id="a_node44"><a xlink:href="https://github.com/conda-forge/srm-ifce-feedstock" xlink:title="srm ifce">
<ellipse fill="#fde725" stroke="black" cx="714.5" cy="-314" rx="48.19" ry="18"/>
<text text-anchor="middle" x="714.5" y="-310.3" font-family="Times,serif" font-size="14.00">srm ifce</text>
</a>
</g>
</g>
<!-- cgsi&#45;gsoap&#45;&gt;srm&#45;ifce -->
<g id="edge46" class="edge">
<title>cgsi&#45;gsoap&#45;&gt;srm&#45;ifce</title>
<path fill="none" stroke="black" d="M780.55,-368.76C768.99,-359.36 754.28,-347.38 741.67,-337.12"/>
<polygon fill="black" stroke="black" points="743.71,-334.26 733.75,-330.67 739.29,-339.69 743.71,-334.26"/>
</g>
<!-- git&#45;crypt -->
<g id="node46" class="node">
<title>git&#45;crypt</title>
<g id="a_node46"><a xlink:href="https://github.com/conda-forge/git-crypt-feedstock/pull/2" xlink:title="git crypt ❎">
<ellipse fill="#31688e" stroke="black" cx="1450.5" cy="-1186" rx="65" ry="18"/>
<text text-anchor="middle" x="1450.5" y="-1182.3" font-family="Times,serif" font-size="14.00" fill="white">git crypt ❎</text>
</a>
</g>
</g>
<!-- pygsi&#45;&gt;git&#45;crypt -->
<!-- rb&#45;eventmachine -->
<g id="node47" class="node">
<title>rb&#45;eventmachine</title>
<g id="a_node47"><a xlink:href="https://github.com/conda-forge/rb-eventmachine-feedstock" xlink:title="rb eventmachine">
<ellipse fill="#35b779" stroke="black" cx="1450.5" cy="-1114" rx="89.08" ry="18"/>
<text text-anchor="middle" x="1450.5" y="-1110.3" font-family="Times,serif" font-size="14.00">rb eventmachine</text>
</a>
</g>
</g>
<!-- git&#45;crypt&#45;&gt;rb&#45;eventmachine -->
<!-- htcondor -->
<g id="node52" class="node">
<title>htcondor</title>
<g id="a_node52"><a xlink:href="https://github.com/conda-forge/htcondor-feedstock/pull/69" xlink:title="htcondor ❎">
<ellipse fill="#31688e" stroke="black" cx="1450.5" cy="-1042" rx="66.5" ry="18"/>
<text text-anchor="middle" x="1450.5" y="-1038.3" font-family="Times,serif" font-size="14.00" fill="white">htcondor ❎</text>
</a>
</g>
</g>
<!-- rb&#45;eventmachine&#45;&gt;htcondor -->
<!-- gct -->
<g id="node48" class="node">
<title>gct</title>
<g id="a_node48"><a xlink:href="https://github.com/conda-forge/gct-feedstock/pull/6" xlink:title="gct ❎">
<ellipse fill="#31688e" stroke="black" cx="689.5" cy="-458" rx="39.79" ry="18"/>
<text text-anchor="middle" x="689.5" y="-454.3" font-family="Times,serif" font-size="14.00" fill="white">gct ❎</text>
</a>
</g>
</g>
<!-- gct&#45;&gt;nordugrid&#45;arc -->
<g id="edge50" class="edge">
<title>gct&#45;&gt;nordugrid&#45;arc</title>
<path fill="none" stroke="black" d="M661.68,-445.13C636.64,-434.44 599.39,-418.54 570.18,-406.07"/>
<polygon fill="black" stroke="black" points="571.18,-402.69 560.61,-401.99 568.43,-409.13 571.18,-402.69"/>
</g>
<!-- gct&#45;&gt;cgsi&#45;gsoap -->
<g id="edge51" class="edge">
<title>gct&#45;&gt;cgsi&#45;gsoap</title>
<path fill="none" stroke="black" d="M711.7,-443C727.57,-432.99 749.22,-419.34 767.16,-408.02"/>
<polygon fill="black" stroke="black" points="769.04,-410.98 775.63,-402.68 765.31,-405.05 769.04,-410.98"/>
</g>
<!-- gct&#45;&gt;myproxy -->
<g id="edge52" class="edge">
<title>gct&#45;&gt;myproxy</title>
<path fill="none" stroke="black" d="M722,-447.56C763.27,-435.57 834.8,-414.8 882.39,-400.97"/>
<polygon fill="black" stroke="black" points="883.54,-404.29 892.16,-398.14 881.58,-397.56 883.54,-404.29"/>
</g>
<!-- gct&#45;&gt;srm&#45;ifce -->
<g id="edge54" class="edge">
<title>gct&#45;&gt;srm&#45;ifce</title>
<path fill="none" stroke="black" d="M672.64,-441.6C663.27,-431.86 652.52,-418.41 647.5,-404 642.24,-388.89 640.53,-382.4 647.5,-368 654.1,-354.36 666.11,-343.16 678.16,-334.63"/>
<polygon fill="black" stroke="black" points="680.44,-337.32 686.86,-328.9 676.58,-331.48 680.44,-337.32"/>
</g>
<!-- dcap -->
<g id="node49" class="node">
<title>dcap</title>
<g id="a_node49"><a xlink:href="https://github.com/conda-forge/dcap-feedstock" xlink:title="dcap">
<ellipse fill="#fde725" stroke="black" cx="689.5" cy="-386" rx="32.5" ry="18"/>
<text text-anchor="middle" x="689.5" y="-382.3" font-family="Times,serif" font-size="14.00">dcap</text>
</a>
</g>
</g>
<!-- gct&#45;&gt;dcap -->
<g id="edge53" class="edge">
<title>gct&#45;&gt;dcap</title>
<path fill="none" stroke="black" d="M689.5,-439.7C689.5,-431.98 689.5,-422.71 689.5,-414.11"/>
<polygon fill="black" stroke="black" points="693,-414.1 689.5,-404.1 686,-414.1 693,-414.1"/>
</g>
<!-- libwebsockets -->
<g id="node50" class="node">
<title>libwebsockets</title>
<g id="a_node50"><a xlink:href="https://github.com/conda-forge/libwebsockets-feedstock/pull/32" xlink:title="libwebsockets ❎">
<ellipse fill="#31688e" stroke="black" cx="1686.5" cy="-422" rx="90.5" ry="18"/>
<text text-anchor="middle" x="1686.5" y="-418.3" font-family="Times,serif" font-size="14.00" fill="white">libwebsockets ❎</text>
</a>
</g>
</g>
<!-- ttyd -->
<g id="node51" class="node">
<title>ttyd</title>
<g id="a_node51"><a xlink:href="https://github.com/conda-forge/ttyd-feedstock" xlink:title="ttyd">
<ellipse fill="#fde725" stroke="black" cx="1686.5" cy="-350" rx="30" ry="18"/>
<text text-anchor="middle" x="1686.5" y="-346.3" font-family="Times,serif" font-size="14.00">ttyd</text>
</a>
</g>
</g>
<!-- libwebsockets&#45;&gt;ttyd -->
<g id="edge55" class="edge">
<title>libwebsockets&#45;&gt;ttyd</title>
<path fill="none" stroke="black" d="M1686.5,-403.7C1686.5,-395.98 1686.5,-386.71 1686.5,-378.11"/>
<polygon fill="black" stroke="black" points="1690,-378.1 1686.5,-368.1 1683,-378.1 1690,-378.1"/>
</g>
<!-- uftp -->
<g id="node53" class="node">
<title>uftp</title>
<g id="a_node53"><a xlink:href="https://github.com/conda-forge/uftp-feedstock/pull/2" xlink:title="uftp ❎">
<ellipse fill="#31688e" stroke="black" cx="1450.5" cy="-970" rx="44.39" ry="18"/>
<text text-anchor="middle" x="1450.5" y="-966.3" font-family="Times,serif" font-size="14.00" fill="white">uftp ❎</text>
</a>
</g>
</g>
<!-- htcondor&#45;&gt;uftp -->
<!-- nix -->
<g id="node54" class="node">
<title>nix</title>
<g id="a_node54"><a xlink:href="https://github.com/conda-forge/nix-feedstock/pull/19" xlink:title="nix ✓">
<ellipse fill="#31688e" stroke="black" cx="1450.5" cy="-898" rx="32.5" ry="18"/>
<text text-anchor="middle" x="1450.5" y="-894.3" font-family="Times,serif" font-size="14.00" fill="white">nix ✓</text>
</a>
</g>
</g>
<!-- uftp&#45;&gt;nix -->
<!-- cyclonedds -->
<g id="node55" class="node">
<title>cyclonedds</title>
<g id="a_node55"><a xlink:href="https://github.com/conda-forge/cyclonedds-feedstock/pull/2" xlink:title="cyclonedds ❎">
<ellipse fill="#31688e" stroke="black" cx="1450.5" cy="-826" rx="76.09" ry="18"/>
<text text-anchor="middle" x="1450.5" y="-822.3" font-family="Times,serif" font-size="14.00" fill="white">cyclonedds ❎</text>
</a>
</g>
</g>
<!-- nix&#45;&gt;cyclonedds -->
<!-- createrepo_c -->
<g id="node56" class="node">
<title>createrepo_c</title>
<g id="a_node56"><a xlink:href="https://github.com/conda-forge/createrepo_c-feedstock" xlink:title="createrepo_c">
<ellipse fill="#ff8c00" stroke="black" cx="1450.5" cy="-754" rx="70.39" ry="18"/>
<text text-anchor="middle" x="1450.5" y="-750.3" font-family="Times,serif" font-size="14.00">createrepo_c</text>
</a>
</g>
</g>
<!-- cyclonedds&#45;&gt;createrepo_c -->
<!-- glib&#45;networking -->
<g id="node59" class="node">
<title>glib&#45;networking</title>
<g id="a_node59"><a xlink:href="https://github.com/conda-forge/glib-networking-feedstock" xlink:title="glib networking">
<ellipse fill="#ff8c00" stroke="black" cx="1450.5" cy="-682" rx="84" ry="18"/>
<text text-anchor="middle" x="1450.5" y="-678.3" font-family="Times,serif" font-size="14.00">glib networking</text>
</a>
</g>
</g>
<!-- createrepo_c&#45;&gt;glib&#45;networking -->
<!-- serf -->
<g id="node57" class="node">
<title>serf</title>
<g id="a_node57"><a xlink:href="https://github.com/conda-forge/serf-feedstock/pull/2" xlink:title="serf ✓">
<ellipse fill="#31688e" stroke="black" cx="1450.5" cy="-90" rx="36.5" ry="18"/>
<text text-anchor="middle" x="1450.5" y="-86.3" font-family="Times,serif" font-size="14.00" fill="white">serf ✓</text>
</a>
</g>
</g>
<!-- subversion -->
<g id="node58" class="node">
<title>subversion</title>
<g id="a_node58"><a xlink:href="https://github.com/conda-forge/subversion-feedstock" xlink:title="subversion">
<ellipse fill="#fde725" stroke="black" cx="1450.5" cy="-18" rx="61.99" ry="18"/>
<text text-anchor="middle" x="1450.5" y="-14.3" font-family="Times,serif" font-size="14.00">subversion</text>
</a>
</g>
</g>
<!-- serf&#45;&gt;subversion -->
<g id="edge61" class="edge">
<title>serf&#45;&gt;subversion</title>
<path fill="none" stroke="black" d="M1450.5,-71.7C1450.5,-63.98 1450.5,-54.71 1450.5,-46.11"/>
<polygon fill="black" stroke="black" points="1454,-46.1 1450.5,-36.1 1447,-46.1 1454,-46.1"/>
</g>
<!-- pineappl -->
<g id="node60" class="node">
<title>pineappl</title>
<g id="a_node60"><a xlink:href="https://github.com/conda-forge/pineappl-feedstock/pull/8" xlink:title="pineappl ❎">
<ellipse fill="#31688e" stroke="black" cx="1450.5" cy="-638" rx="65" ry="18"/>
<text text-anchor="middle" x="1450.5" y="-634.3" font-family="Times,serif" font-size="14.00" fill="white">pineappl ❎</text>
</a>
</g>
</g>
<!-- s2n -->
<g id="node61" class="node">
<title>s2n</title>
<g id="a_node61"><a xlink:href="https://github.com/conda-forge/s2n-feedstock/pull/45" xlink:title="s2n ❎">
<ellipse fill="#31688e" stroke="black" cx="1450.5" cy="-566" rx="41.69" ry="18"/>
<text text-anchor="middle" x="1450.5" y="-562.3" font-family="Times,serif" font-size="14.00" fill="white">s2n ❎</text>
</a>
</g>
</g>
<!-- pineappl&#45;&gt;s2n -->
<!-- panda3d -->
<g id="node63" class="node">
<title>panda3d</title>
<g id="a_node63"><a xlink:href="https://github.com/conda-forge/panda3d-feedstock/pull/6" xlink:title="panda3d ✓">
<ellipse fill="#31688e" stroke="black" cx="1450.5" cy="-494" rx="58" ry="18"/>
<text text-anchor="middle" x="1450.5" y="-490.3" font-family="Times,serif" font-size="14.00" fill="white">panda3d ✓</text>
</a>
</g>
</g>
<!-- s2n&#45;&gt;panda3d -->
<!-- libmamba -->
<g id="node62" class="node">
<title>libmamba</title>
<g id="a_node62"><a xlink:href="https://github.com/conda-forge/libmamba-feedstock/pull/41" xlink:title="libmamba ✓">
<ellipse fill="#31688e" stroke="black" cx="845.5" cy="-1150" rx="63.89" ry="18"/>
<text text-anchor="middle" x="845.5" y="-1146.3" font-family="Times,serif" font-size="14.00" fill="white">libmamba ✓</text>
</a>
</g>
</g>
<!-- libmamba&#45;&gt;mamba -->
<g id="edge64" class="edge">
<title>libmamba&#45;&gt;mamba</title>
<path fill="none" stroke="black" d="M823,-1132.76C809.53,-1123.04 792.25,-1110.57 777.73,-1100.09"/>
<polygon fill="black" stroke="black" points="779.7,-1097.2 769.55,-1094.19 775.61,-1102.88 779.7,-1097.2"/>
</g>
<!-- wasmer -->
<g id="node64" class="node">
<title>wasmer</title>
<g id="a_node64"><a xlink:href="https://github.com/conda-forge/wasmer-feedstock/pull/11" xlink:title="wasmer ❎">
<ellipse fill="#31688e" stroke="black" cx="1450.5" cy="-422" rx="61.99" ry="18"/>
<text text-anchor="middle" x="1450.5" y="-418.3" font-family="Times,serif" font-size="14.00" fill="white">wasmer ❎</text>
</a>
</g>
</g>
<!-- panda3d&#45;&gt;wasmer -->
<!-- libxmlsec1 -->
<g id="node65" class="node">
<title>libxmlsec1</title>
<g id="a_node65"><a xlink:href="https://github.com/conda-forge/libxmlsec1-feedstock/pull/3" xlink:title="libxmlsec1 ❎">
<ellipse fill="#31688e" stroke="black" cx="1450.5" cy="-350" rx="74.99" ry="18"/>
<text text-anchor="middle" x="1450.5" y="-346.3" font-family="Times,serif" font-size="14.00" fill="white">libxmlsec1 ❎</text>
</a>
</g>
</g>
<!-- wasmer&#45;&gt;libxmlsec1 -->
<!-- go&#45;ipfs -->
<g id="node66" class="node">
<title>go&#45;ipfs</title>
<g id="a_node66"><a xlink:href="https://github.com/conda-forge/go-ipfs-feedstock/pull/8" xlink:title="go ipfs ❎">
<ellipse fill="#31688e" stroke="black" cx="1450.5" cy="-278" rx="56" ry="18"/>
<text text-anchor="middle" x="1450.5" y="-274.3" font-family="Times,serif" font-size="14.00" fill="white">go ipfs ❎</text>
</a>
</g>
</g>
<!-- libxmlsec1&#45;&gt;go&#45;ipfs -->
<!-- aws&#45;c&#45;s3 -->
<g id="node67" class="node">
<title>aws&#45;c&#45;s3</title>
<g id="a_node67"><a xlink:href="https://github.com/conda-forge/aws-c-s3-feedstock" xlink:title="aws c s3">
<ellipse fill="#ff8c00" stroke="black" cx="1450.5" cy="-206" rx="50.09" ry="18"/>
<text text-anchor="middle" x="1450.5" y="-202.3" font-family="Times,serif" font-size="14.00">aws c s3</text>
</a>
</g>
</g>
<!-- go&#45;ipfs&#45;&gt;aws&#45;c&#45;s3 -->
<!-- oxigraph -->
<g id="node69" class="node">
<title>oxigraph</title>
<g id="a_node69"><a xlink:href="https://github.com/conda-forge/oxigraph-feedstock/pull/5" xlink:title="oxigraph ✓">
<ellipse fill="#31688e" stroke="black" cx="1450.5" cy="-134" rx="59.29" ry="18"/>
<text text-anchor="middle" x="1450.5" y="-130.3" font-family="Times,serif" font-size="14.00" fill="white">oxigraph ✓</text>
</a>
</g>
</g>
<!-- aws&#45;c&#45;s3&#45;&gt;oxigraph -->
<!-- tensorboard&#45;data&#45;server -->
<g id="node68" class="node">
<title>tensorboard&#45;data&#45;server</title>
<g id="a_node68"><a xlink:href="https://github.com/conda-forge/tensorboard-data-server-feedstock/pull/9" xlink:title="tensorboard data server ❎">
<ellipse fill="#31688e" stroke="black" cx="625.5" cy="-1150" rx="138" ry="18"/>
<text text-anchor="middle" x="625.5" y="-1146.3" font-family="Times,serif" font-size="14.00" fill="white">tensorboard data server ❎</text>
</a>
</g>
</g>
<!-- tensorboard&#45;data&#45;server&#45;&gt;tensorflow -->
<g id="edge70" class="edge">
<title>tensorboard&#45;data&#45;server&#45;&gt;tensorflow</title>
<path fill="none" stroke="black" d="M625.5,-1131.7C625.5,-1123.98 625.5,-1114.71 625.5,-1106.11"/>
<polygon fill="black" stroke="black" points="629,-1106.1 625.5,-1096.1 622,-1106.1 629,-1106.1"/>
</g>
</g>
</svg>
