<?xml version="1.0" encoding="UTF-8" standalone="no"?>
<!DOCTYPE svg PUBLIC "-//W3C//DTD SVG 1.1//EN"
 "http://www.w3.org/Graphics/SVG/1.1/DTD/svg11.dtd">
<!-- Generated by graphviz version 2.50.0 (20211209.0339)
 -->
<!-- Pages: 1 -->
<svg width="2310pt" height="1644pt"
 viewBox="0.00 0.00 2310.00 1644.00" xmlns="http://www.w3.org/2000/svg" xmlns:xlink="http://www.w3.org/1999/xlink">
<g id="graph0" class="graph" transform="scale(1 1) rotate(0) translate(4 1640)">
<polygon fill="white" stroke="transparent" points="-4,4 -4,-1640 2306,-1640 2306,4 -4,4"/>
<!-- airflow -->
<g id="node1" class="node">
<title>airflow</title>
<g id="a_node1"><a xlink:href="https://github.com/conda-forge/airflow-feedstock" xlink:title="airflow">
<ellipse fill="#fde725" stroke="black" cx="334" cy="-1222" rx="42.49" ry="18"/>
<text text-anchor="middle" x="334" y="-1218.3" font-family="Times,serif" font-size="14.00">airflow</text>
</a>
</g>
</g>
<!-- arrow&#45;cpp -->
<g id="node2" class="node">
<title>arrow&#45;cpp</title>
<g id="a_node2"><a xlink:href="https://github.com/conda-forge/arrow-cpp-feedstock" xlink:title="arrow cpp">
<ellipse fill="#fde725" stroke="black" cx="206" cy="-1294" rx="58" ry="18"/>
<text text-anchor="middle" x="206" y="-1290.3" font-family="Times,serif" font-size="14.00">arrow cpp</text>
</a>
</g>
</g>
<!-- arrow&#45;cpp&#45;&gt;airflow -->
<g id="edge1" class="edge">
<title>arrow&#45;cpp&#45;&gt;airflow</title>
<path fill="none" stroke="black" d="M233.46,-1277.98C253.04,-1267.28 279.48,-1252.81 300.34,-1241.41"/>
<polygon fill="black" stroke="black" points="302.09,-1244.44 309.19,-1236.57 298.73,-1238.3 302.09,-1244.44"/>
</g>
<!-- omniscidb -->
<g id="node3" class="node">
<title>omniscidb</title>
<g id="a_node3"><a xlink:href="https://github.com/conda-forge/omniscidb-feedstock" xlink:title="omniscidb">
<ellipse fill="#fde725" stroke="black" cx="108" cy="-1222" rx="58" ry="18"/>
<text text-anchor="middle" x="108" y="-1218.3" font-family="Times,serif" font-size="14.00">omniscidb</text>
</a>
</g>
</g>
<!-- arrow&#45;cpp&#45;&gt;omniscidb -->
<g id="edge2" class="edge">
<title>arrow&#45;cpp&#45;&gt;omniscidb</title>
<path fill="none" stroke="black" d="M183.76,-1277.12C170.36,-1267.54 153.09,-1255.21 138.43,-1244.74"/>
<polygon fill="black" stroke="black" points="140.32,-1241.79 130.15,-1238.82 136.25,-1247.48 140.32,-1241.79"/>
</g>
<!-- erlang -->
<g id="node4" class="node">
<title>erlang</title>
<g id="a_node4"><a xlink:href="https://github.com/conda-forge/erlang-feedstock/pull/105" xlink:title="erlang ❎">
<ellipse fill="#31688e" stroke="black" cx="1413" cy="-1618" rx="54.69" ry="18"/>
<text text-anchor="middle" x="1413" y="-1614.3" font-family="Times,serif" font-size="14.00" fill="white">erlang ❎</text>
</a>
</g>
</g>
<!-- m2crypto -->
<g id="node5" class="node">
<title>m2crypto</title>
<g id="a_node5"><a xlink:href="https://github.com/conda-forge/m2crypto-feedstock/pull/63" xlink:title="m2crypto ❎">
<ellipse fill="#31688e" stroke="black" cx="1413" cy="-1546" rx="69.59" ry="18"/>
<text text-anchor="middle" x="1413" y="-1542.3" font-family="Times,serif" font-size="14.00" fill="white">m2crypto ❎</text>
</a>
</g>
</g>
<!-- erlang&#45;&gt;m2crypto -->
<!-- mysql&#45;connector&#45;c -->
<g id="node8" class="node">
<title>mysql&#45;connector&#45;c</title>
<g id="a_node8"><a xlink:href="https://github.com/conda-forge/mysql-connector-c-feedstock/pull/18" xlink:title="mysql connector c ❎">
<ellipse fill="#31688e" stroke="black" cx="1413" cy="-1474" rx="109.38" ry="18"/>
<text text-anchor="middle" x="1413" y="-1470.3" font-family="Times,serif" font-size="14.00" fill="white">mysql connector c ❎</text>
</a>
</g>
</g>
<!-- m2crypto&#45;&gt;mysql&#45;connector&#45;c -->
<!-- librdkafka -->
<g id="node6" class="node">
<title>librdkafka</title>
<g id="a_node6"><a xlink:href="https://github.com/conda-forge/librdkafka-feedstock/pull/67" xlink:title="librdkafka ✓">
<ellipse fill="#31688e" stroke="black" cx="65" cy="-1294" rx="65" ry="18"/>
<text text-anchor="middle" x="65" y="-1290.3" font-family="Times,serif" font-size="14.00" fill="white">librdkafka ✓</text>
</a>
</g>
</g>
<!-- librdkafka&#45;&gt;omniscidb -->
<g id="edge4" class="edge">
<title>librdkafka&#45;&gt;omniscidb</title>
<path fill="none" stroke="black" d="M75.41,-1276.05C80.48,-1267.8 86.68,-1257.7 92.31,-1248.54"/>
<polygon fill="black" stroke="black" points="95.43,-1250.14 97.69,-1239.79 89.47,-1246.48 95.43,-1250.14"/>
</g>
<!-- lighttpd -->
<g id="node7" class="node">
<title>lighttpd</title>
<g id="a_node7"><a xlink:href="https://github.com/conda-forge/lighttpd-feedstock" xlink:title="lighttpd">
<ellipse fill="#fde725" stroke="black" cx="1163" cy="-1294" rx="48.19" ry="18"/>
<text text-anchor="middle" x="1163" y="-1290.3" font-family="Times,serif" font-size="14.00">lighttpd</text>
</a>
</g>
</g>
<!-- uwsgi -->
<g id="node17" class="node">
<title>uwsgi</title>
<g id="a_node17"><a xlink:href="https://github.com/conda-forge/uwsgi-feedstock" xlink:title="uwsgi">
<ellipse fill="#ff8c00" stroke="black" cx="1413" cy="-1402" rx="38.5" ry="18"/>
<text text-anchor="middle" x="1413" y="-1398.3" font-family="Times,serif" font-size="14.00">uwsgi</text>
</a>
</g>
</g>
<!-- mysql&#45;connector&#45;c&#45;&gt;uwsgi -->
<!-- mysql -->
<g id="node9" class="node">
<title>mysql</title>
<g id="a_node9"><a xlink:href="https://github.com/conda-forge/mysql-feedstock/pull/59" xlink:title="mysql ❎">
<ellipse fill="#31688e" stroke="black" cx="1125" cy="-1366" rx="52.79" ry="18"/>
<text text-anchor="middle" x="1125" y="-1362.3" font-family="Times,serif" font-size="14.00" fill="white">mysql ❎</text>
</a>
</g>
</g>
<!-- mysql&#45;&gt;lighttpd -->
<g id="edge6" class="edge">
<title>mysql&#45;&gt;lighttpd</title>
<path fill="none" stroke="black" d="M1134.2,-1348.05C1138.63,-1339.89 1144.05,-1329.91 1148.98,-1320.82"/>
<polygon fill="black" stroke="black" points="1152.19,-1322.25 1153.89,-1311.79 1146.04,-1318.91 1152.19,-1322.25"/>
</g>
<!-- qt -->
<g id="node10" class="node">
<title>qt</title>
<g id="a_node10"><a xlink:href="https://github.com/conda-forge/qt-feedstock" xlink:title="qt">
<ellipse fill="#fde725" stroke="black" cx="795" cy="-1294" rx="27" ry="18"/>
<text text-anchor="middle" x="795" y="-1290.3" font-family="Times,serif" font-size="14.00">qt</text>
</a>
</g>
</g>
<!-- mysql&#45;&gt;qt -->
<g id="edge7" class="edge">
<title>mysql&#45;&gt;qt</title>
<path fill="none" stroke="black" d="M1075.36,-1359.88C1016.33,-1352.92 915.33,-1338.22 832,-1312 829.72,-1311.28 827.41,-1310.46 825.09,-1309.57"/>
<polygon fill="black" stroke="black" points="826.34,-1306.3 815.77,-1305.65 823.63,-1312.75 826.34,-1306.3"/>
</g>
<!-- mysql&#45;connector&#45;cpp -->
<g id="node11" class="node">
<title>mysql&#45;connector&#45;cpp</title>
<g id="a_node11"><a xlink:href="https://github.com/conda-forge/mysql-connector-cpp-feedstock" xlink:title="mysql connector cpp">
<ellipse fill="#fde725" stroke="black" cx="1087" cy="-1222" rx="106.68" ry="18"/>
<text text-anchor="middle" x="1087" y="-1218.3" font-family="Times,serif" font-size="14.00">mysql connector cpp</text>
</a>
</g>
</g>
<!-- mysql&#45;&gt;mysql&#45;connector&#45;cpp -->
<g id="edge8" class="edge">
<title>mysql&#45;&gt;mysql&#45;connector&#45;cpp</title>
<path fill="none" stroke="black" d="M1118.25,-1348C1114.32,-1337.7 1109.48,-1324.22 1106,-1312 1100.2,-1291.61 1095.26,-1268.15 1091.87,-1250.44"/>
<polygon fill="black" stroke="black" points="1095.24,-1249.42 1089.97,-1240.23 1088.36,-1250.7 1095.24,-1249.42"/>
</g>
<!-- qt&#45;main -->
<g id="node12" class="node">
<title>qt&#45;main</title>
<g id="a_node12"><a xlink:href="https://github.com/conda-forge/qt-main-feedstock" xlink:title="qt main">
<ellipse fill="#fde725" stroke="black" cx="1239" cy="-1150" rx="46.29" ry="18"/>
<text text-anchor="middle" x="1239" y="-1146.3" font-family="Times,serif" font-size="14.00">qt main</text>
</a>
</g>
</g>
<!-- mysql&#45;&gt;qt&#45;main -->
<g id="edge9" class="edge">
<title>mysql&#45;&gt;qt&#45;main</title>
<path fill="none" stroke="black" d="M1162.9,-1353.37C1183.18,-1345.13 1206.66,-1331.93 1220,-1312 1246.98,-1271.68 1246.24,-1212.68 1242.88,-1178.42"/>
<polygon fill="black" stroke="black" points="1246.33,-1177.77 1241.73,-1168.23 1239.37,-1178.56 1246.33,-1177.77"/>
</g>
<!-- qt&#45;&gt;airflow -->
<g id="edge10" class="edge">
<title>qt&#45;&gt;airflow</title>
<path fill="none" stroke="black" d="M774.52,-1281.89C769.56,-1279.61 764.19,-1277.46 759,-1276 614.41,-1235.37 571.55,-1262.11 423,-1240 409.36,-1237.97 394.63,-1235.34 381.15,-1232.75"/>
<polygon fill="black" stroke="black" points="381.61,-1229.28 371.12,-1230.8 380.27,-1236.15 381.61,-1229.28"/>
</g>
<!-- octave -->
<g id="node13" class="node">
<title>octave</title>
<g id="a_node13"><a xlink:href="https://github.com/conda-forge/octave-feedstock" xlink:title="octave">
<ellipse fill="#fde725" stroke="black" cx="733" cy="-1222" rx="41" ry="18"/>
<text text-anchor="middle" x="733" y="-1218.3" font-family="Times,serif" font-size="14.00">octave</text>
</a>
</g>
</g>
<!-- qt&#45;&gt;octave -->
<g id="edge11" class="edge">
<title>qt&#45;&gt;octave</title>
<path fill="none" stroke="black" d="M781.85,-1278.15C773.81,-1269.07 763.33,-1257.24 754.14,-1246.87"/>
<polygon fill="black" stroke="black" points="756.68,-1244.46 747.43,-1239.29 751.44,-1249.1 756.68,-1244.46"/>
</g>
<!-- lalinference -->
<g id="node14" class="node">
<title>lalinference</title>
<g id="a_node14"><a xlink:href="https://github.com/conda-forge/lalinference-feedstock" xlink:title="lalinference">
<ellipse fill="#fde725" stroke="black" cx="858" cy="-1222" rx="65.79" ry="18"/>
<text text-anchor="middle" x="858" y="-1218.3" font-family="Times,serif" font-size="14.00">lalinference</text>
</a>
</g>
</g>
<!-- qt&#45;&gt;lalinference -->
<g id="edge12" class="edge">
<title>qt&#45;&gt;lalinference</title>
<path fill="none" stroke="black" d="M808.36,-1278.15C816.42,-1269.2 826.88,-1257.58 836.12,-1247.31"/>
<polygon fill="black" stroke="black" points="838.8,-1249.56 842.89,-1239.79 833.6,-1244.88 838.8,-1249.56"/>
</g>
<!-- ambertools -->
<g id="node15" class="node">
<title>ambertools</title>
<g id="a_node15"><a xlink:href="https://github.com/conda-forge/ambertools-feedstock" xlink:title="ambertools">
<ellipse fill="#fde725" stroke="black" cx="952" cy="-1150" rx="63.09" ry="18"/>
<text text-anchor="middle" x="952" y="-1146.3" font-family="Times,serif" font-size="14.00">ambertools</text>
</a>
</g>
</g>
<!-- qt&#45;&gt;ambertools -->
<g id="edge13" class="edge">
<title>qt&#45;&gt;ambertools</title>
<path fill="none" stroke="black" d="M816.38,-1282.79C821.46,-1280.47 826.89,-1278.08 832,-1276 876.14,-1258.03 901.6,-1275.85 933,-1240 947.76,-1223.15 952,-1197.68 952.84,-1178.29"/>
<polygon fill="black" stroke="black" points="956.34,-1178.3 953.01,-1168.24 949.34,-1178.18 956.34,-1178.3"/>
</g>
<!-- gnuradio -->
<g id="node16" class="node">
<title>gnuradio</title>
<g id="a_node16"><a xlink:href="https://github.com/conda-forge/gnuradio-feedstock" xlink:title="gnuradio">
<ellipse fill="#fde725" stroke="black" cx="622" cy="-1222" rx="52" ry="18"/>
<text text-anchor="middle" x="622" y="-1218.3" font-family="Times,serif" font-size="14.00">gnuradio</text>
</a>
</g>
</g>
<!-- qt&#45;&gt;gnuradio -->
<g id="edge14" class="edge">
<title>qt&#45;&gt;gnuradio</title>
<path fill="none" stroke="black" d="M773.79,-1282.68C768.96,-1280.41 763.83,-1278.07 759,-1276 728.31,-1262.84 693.18,-1249.28 666.18,-1239.17"/>
<polygon fill="black" stroke="black" points="667.21,-1235.82 656.62,-1235.61 664.77,-1242.38 667.21,-1235.82"/>
</g>
<!-- w3m -->
<g id="node22" class="node">
<title>w3m</title>
<g id="a_node22"><a xlink:href="https://github.com/conda-forge/w3m-feedstock/pull/11" xlink:title="w3m ❎">
<ellipse fill="#31688e" stroke="black" cx="1413" cy="-1330" rx="47.5" ry="18"/>
<text text-anchor="middle" x="1413" y="-1326.3" font-family="Times,serif" font-size="14.00" fill="white">w3m ❎</text>
</a>
</g>
</g>
<!-- uwsgi&#45;&gt;w3m -->
<!-- pylibscrypt -->
<g id="node18" class="node">
<title>pylibscrypt</title>
<g id="a_node18"><a xlink:href="https://github.com/conda-forge/pylibscrypt-feedstock" xlink:title="pylibscrypt">
<ellipse fill="#fde725" stroke="black" cx="1413" cy="-18" rx="63.09" ry="18"/>
<text text-anchor="middle" x="1413" y="-14.3" font-family="Times,serif" font-size="14.00">pylibscrypt</text>
</a>
</g>
</g>
<!-- ruby -->
<g id="node19" class="node">
<title>ruby</title>
<g id="a_node19"><a xlink:href="https://github.com/conda-forge/ruby-feedstock/pull/88" xlink:title="ruby ❎">
<ellipse fill="#31688e" stroke="black" cx="643" cy="-90" rx="46.29" ry="18"/>
<text text-anchor="middle" x="643" y="-86.3" font-family="Times,serif" font-size="14.00" fill="white">ruby ❎</text>
</a>
</g>
</g>
<!-- rb&#45;eventmachine -->
<g id="node20" class="node">
<title>rb&#45;eventmachine</title>
<g id="a_node20"><a xlink:href="https://github.com/conda-forge/rb-eventmachine-feedstock" xlink:title="rb eventmachine">
<ellipse fill="#fde725" stroke="black" cx="643" cy="-18" rx="89.08" ry="18"/>
<text text-anchor="middle" x="643" y="-14.3" font-family="Times,serif" font-size="14.00">rb eventmachine</text>
</a>
</g>
</g>
<!-- ruby&#45;&gt;rb&#45;eventmachine -->
<g id="edge16" class="edge">
<title>ruby&#45;&gt;rb&#45;eventmachine</title>
<path fill="none" stroke="black" d="M643,-71.7C643,-63.98 643,-54.71 643,-46.11"/>
<polygon fill="black" stroke="black" points="646.5,-46.1 643,-36.1 639.5,-46.1 646.5,-46.1"/>
</g>
<!-- scrypt -->
<g id="node21" class="node">
<title>scrypt</title>
<g id="a_node21"><a xlink:href="https://github.com/conda-forge/scrypt-feedstock/pull/37" xlink:title="scrypt ❎">
<ellipse fill="#31688e" stroke="black" cx="1413" cy="-90" rx="54" ry="18"/>
<text text-anchor="middle" x="1413" y="-86.3" font-family="Times,serif" font-size="14.00" fill="white">scrypt ❎</text>
</a>
</g>
</g>
<!-- scrypt&#45;&gt;pylibscrypt -->
<g id="edge17" class="edge">
<title>scrypt&#45;&gt;pylibscrypt</title>
<path fill="none" stroke="black" d="M1413,-71.7C1413,-63.98 1413,-54.71 1413,-46.11"/>
<polygon fill="black" stroke="black" points="1416.5,-46.1 1413,-36.1 1409.5,-46.1 1416.5,-46.1"/>
</g>
<!-- postgres&#45;xl -->
<g id="node23" class="node">
<title>postgres&#45;xl</title>
<g id="a_node23"><a xlink:href="https://github.com/conda-forge/postgres-xl-feedstock/pull/8" xlink:title="postgres xl ❎">
<ellipse fill="#31688e" stroke="black" cx="1413" cy="-1258" rx="76.89" ry="18"/>
<text text-anchor="middle" x="1413" y="-1254.3" font-family="Times,serif" font-size="14.00" fill="white">postgres xl ❎</text>
</a>
</g>
</g>
<!-- w3m&#45;&gt;postgres&#45;xl -->
<!-- sstp&#45;client -->
<g id="node24" class="node">
<title>sstp&#45;client</title>
<g id="a_node24"><a xlink:href="https://github.com/conda-forge/sstp-client-feedstock/pull/7" xlink:title="sstp client ✓">
<ellipse fill="#31688e" stroke="black" cx="1413" cy="-1186" rx="66.5" ry="18"/>
<text text-anchor="middle" x="1413" y="-1182.3" font-family="Times,serif" font-size="14.00" fill="white">sstp client ✓</text>
</a>
</g>
</g>
<!-- postgres&#45;xl&#45;&gt;sstp&#45;client -->
<!-- pycurl -->
<g id="node30" class="node">
<title>pycurl</title>
<g id="a_node30"><a xlink:href="https://github.com/conda-forge/pycurl-feedstock/pull/19" xlink:title="pycurl ❎">
<ellipse fill="#31688e" stroke="black" cx="1413" cy="-1114" rx="54" ry="18"/>
<text text-anchor="middle" x="1413" y="-1110.3" font-family="Times,serif" font-size="14.00" fill="white">pycurl ❎</text>
</a>
</g>
</g>
<!-- sstp&#45;client&#45;&gt;pycurl -->
<!-- cryptography -->
<g id="node25" class="node">
<title>cryptography</title>
<g id="a_node25"><a xlink:href="https://github.com/conda-forge/cryptography-feedstock/pull/80" xlink:title="cryptography ❎">
<ellipse fill="#31688e" stroke="black" cx="369" cy="-1294" rx="87.18" ry="18"/>
<text text-anchor="middle" x="369" y="-1290.3" font-family="Times,serif" font-size="14.00" fill="white">cryptography ❎</text>
</a>
</g>
</g>
<!-- cryptography&#45;&gt;airflow -->
<g id="edge21" class="edge">
<title>cryptography&#45;&gt;airflow</title>
<path fill="none" stroke="black" d="M360.53,-1276.05C356.44,-1267.89 351.46,-1257.91 346.91,-1248.82"/>
<polygon fill="black" stroke="black" points="350,-1247.17 342.39,-1239.79 343.74,-1250.3 350,-1247.17"/>
</g>
<!-- cryptography&#45;&gt;omniscidb -->
<g id="edge22" class="edge">
<title>cryptography&#45;&gt;omniscidb</title>
<path fill="none" stroke="black" d="M318.06,-1279.34C272.59,-1267.14 206.28,-1249.36 160.37,-1237.05"/>
<polygon fill="black" stroke="black" points="161.18,-1233.64 150.62,-1234.43 159.37,-1240.4 161.18,-1233.64"/>
</g>
<!-- cryptography&#45;&gt;lalinference -->
<g id="edge23" class="edge">
<title>cryptography&#45;&gt;lalinference</title>
<path fill="none" stroke="black" d="M431.39,-1281.37C442.56,-1279.45 454.11,-1277.58 465,-1276 605.76,-1255.59 642.76,-1263.76 783,-1240 788.73,-1239.03 794.69,-1237.9 800.62,-1236.68"/>
<polygon fill="black" stroke="black" points="801.49,-1240.08 810.55,-1234.59 800.04,-1233.23 801.49,-1240.08"/>
</g>
<!-- cryptography&#45;&gt;gnuradio -->
<g id="edge24" class="edge">
<title>cryptography&#45;&gt;gnuradio</title>
<path fill="none" stroke="black" d="M419.14,-1279.2C457.88,-1268.52 512.85,-1253.36 561,-1240 564.99,-1238.89 569.13,-1237.74 573.29,-1236.59"/>
<polygon fill="black" stroke="black" points="574.26,-1239.95 582.95,-1233.9 572.38,-1233.21 574.26,-1239.95"/>
</g>
<!-- tensorflow -->
<g id="node26" class="node">
<title>tensorflow</title>
<g id="a_node26"><a xlink:href="https://github.com/conda-forge/tensorflow-feedstock" xlink:title="tensorflow">
<ellipse fill="#fde725" stroke="black" cx="492" cy="-1222" rx="60" ry="18"/>
<text text-anchor="middle" x="492" y="-1218.3" font-family="Times,serif" font-size="14.00">tensorflow</text>
</a>
</g>
</g>
<!-- cryptography&#45;&gt;tensorflow -->
<g id="edge25" class="edge">
<title>cryptography&#45;&gt;tensorflow</title>
<path fill="none" stroke="black" d="M397.22,-1276.94C414.77,-1266.95 437.5,-1254.01 456.3,-1243.31"/>
<polygon fill="black" stroke="black" points="458.22,-1246.25 465.18,-1238.26 454.76,-1240.17 458.22,-1246.25"/>
</g>
<!-- mamba -->
<g id="node27" class="node">
<title>mamba</title>
<g id="a_node27"><a xlink:href="https://github.com/conda-forge/mamba-feedstock" xlink:title="mamba">
<ellipse fill="#fde725" stroke="black" cx="229" cy="-1222" rx="45" ry="18"/>
<text text-anchor="middle" x="229" y="-1218.3" font-family="Times,serif" font-size="14.00">mamba</text>
</a>
</g>
</g>
<!-- cryptography&#45;&gt;mamba -->
<g id="edge26" class="edge">
<title>cryptography&#45;&gt;mamba</title>
<path fill="none" stroke="black" d="M337.23,-1277.12C315.77,-1266.39 287.4,-1252.2 265.08,-1241.04"/>
<polygon fill="black" stroke="black" points="266.44,-1237.81 255.93,-1236.47 263.31,-1244.07 266.44,-1237.81"/>
</g>
<!-- mlflow -->
<g id="node28" class="node">
<title>mlflow</title>
<g id="a_node28"><a xlink:href="https://github.com/conda-forge/mlflow-feedstock" xlink:title="mlflow">
<ellipse fill="#fde725" stroke="black" cx="404" cy="-1150" rx="41.69" ry="18"/>
<text text-anchor="middle" x="404" y="-1146.3" font-family="Times,serif" font-size="14.00">mlflow</text>
</a>
</g>
</g>
<!-- cryptography&#45;&gt;mlflow -->
<g id="edge27" class="edge">
<title>cryptography&#45;&gt;mlflow</title>
<path fill="none" stroke="black" d="M374.55,-1275.92C377.81,-1265.58 381.89,-1252.1 385,-1240 390.28,-1219.47 395.24,-1196.02 398.77,-1178.34"/>
<polygon fill="black" stroke="black" points="402.28,-1178.65 400.78,-1168.16 395.41,-1177.3 402.28,-1178.65"/>
</g>
<!-- aws&#45;sdk&#45;cpp -->
<g id="node29" class="node">
<title>aws&#45;sdk&#45;cpp</title>
<g id="a_node29"><a xlink:href="https://github.com/conda-forge/aws-sdk-cpp-feedstock" xlink:title="aws sdk cpp">
<ellipse fill="#ff8c00" stroke="black" cx="206" cy="-1366" rx="67.69" ry="18"/>
<text text-anchor="middle" x="206" y="-1362.3" font-family="Times,serif" font-size="14.00">aws sdk cpp</text>
</a>
</g>
</g>
<!-- aws&#45;sdk&#45;cpp&#45;&gt;arrow&#45;cpp -->
<g id="edge28" class="edge">
<title>aws&#45;sdk&#45;cpp&#45;&gt;arrow&#45;cpp</title>
<path fill="none" stroke="black" d="M206,-1347.7C206,-1339.98 206,-1330.71 206,-1322.11"/>
<polygon fill="black" stroke="black" points="209.5,-1322.1 206,-1312.1 202.5,-1322.1 209.5,-1322.1"/>
</g>
<!-- pyctest -->
<g id="node31" class="node">
<title>pyctest</title>
<g id="a_node31"><a xlink:href="https://github.com/conda-forge/pyctest-feedstock/pull/18" xlink:title="pyctest ✓">
<ellipse fill="#31688e" stroke="black" cx="1413" cy="-1042" rx="52" ry="18"/>
<text text-anchor="middle" x="1413" y="-1038.3" font-family="Times,serif" font-size="14.00" fill="white">pyctest ✓</text>
</a>
</g>
</g>
<!-- pycurl&#45;&gt;pyctest -->
<!-- fossil -->
<g id="node33" class="node">
<title>fossil</title>
<g id="a_node33"><a xlink:href="https://github.com/conda-forge/fossil-feedstock/pull/14" xlink:title="fossil ❎">
<ellipse fill="#31688e" stroke="black" cx="1413" cy="-970" rx="49.5" ry="18"/>
<text text-anchor="middle" x="1413" y="-966.3" font-family="Times,serif" font-size="14.00" fill="white">fossil ❎</text>
</a>
</g>
</g>
<!-- pyctest&#45;&gt;fossil -->
<!-- lalpulsar -->
<g id="node32" class="node">
<title>lalpulsar</title>
<g id="a_node32"><a xlink:href="https://github.com/conda-forge/lalpulsar-feedstock/pull/39" xlink:title="lalpulsar ✓">
<ellipse fill="#31688e" stroke="black" cx="899" cy="-1294" rx="58.5" ry="18"/>
<text text-anchor="middle" x="899" y="-1290.3" font-family="Times,serif" font-size="14.00" fill="white">lalpulsar ✓</text>
</a>
</g>
</g>
<!-- lalpulsar&#45;&gt;lalinference -->
<g id="edge31" class="edge">
<title>lalpulsar&#45;&gt;lalinference</title>
<path fill="none" stroke="black" d="M889.08,-1276.05C884.31,-1267.92 878.5,-1258 873.19,-1248.94"/>
<polygon fill="black" stroke="black" points="876.19,-1247.14 868.12,-1240.28 870.15,-1250.67 876.19,-1247.14"/>
</g>
<!-- virtuoso&#45;opensource -->
<g id="node38" class="node">
<title>virtuoso&#45;opensource</title>
<g id="a_node38"><a xlink:href="https://github.com/conda-forge/virtuoso-opensource-feedstock/pull/5" xlink:title="virtuoso opensource ❎">
<ellipse fill="#31688e" stroke="black" cx="1413" cy="-898" rx="119" ry="18"/>
<text text-anchor="middle" x="1413" y="-894.3" font-family="Times,serif" font-size="14.00" fill="white">virtuoso opensource ❎</text>
</a>
</g>
</g>
<!-- fossil&#45;&gt;virtuoso&#45;opensource -->
<!-- xrootd -->
<g id="node34" class="node">
<title>xrootd</title>
<g id="a_node34"><a xlink:href="https://github.com/conda-forge/xrootd-feedstock" xlink:title="xrootd">
<ellipse fill="#ff8c00" stroke="black" cx="1663" cy="-1330" rx="41" ry="18"/>
<text text-anchor="middle" x="1663" y="-1326.3" font-family="Times,serif" font-size="14.00">xrootd</text>
</a>
</g>
</g>
<!-- root -->
<g id="node35" class="node">
<title>root</title>
<g id="a_node35"><a xlink:href="https://github.com/conda-forge/root-feedstock" xlink:title="root">
<ellipse fill="#fde725" stroke="black" cx="1601" cy="-1258" rx="30" ry="18"/>
<text text-anchor="middle" x="1601" y="-1254.3" font-family="Times,serif" font-size="14.00">root</text>
</a>
</g>
</g>
<!-- xrootd&#45;&gt;root -->
<g id="edge33" class="edge">
<title>xrootd&#45;&gt;root</title>
<path fill="none" stroke="black" d="M1648.62,-1312.76C1640.49,-1303.59 1630.2,-1291.96 1621.26,-1281.88"/>
<polygon fill="black" stroke="black" points="1623.7,-1279.35 1614.45,-1274.19 1618.46,-1284 1623.7,-1279.35"/>
</g>
<!-- nordugrid&#45;arc -->
<g id="node36" class="node">
<title>nordugrid&#45;arc</title>
<g id="a_node36"><a xlink:href="https://github.com/conda-forge/nordugrid-arc-feedstock" xlink:title="nordugrid arc">
<ellipse fill="#fde725" stroke="black" cx="1724" cy="-1258" rx="74.99" ry="18"/>
<text text-anchor="middle" x="1724" y="-1254.3" font-family="Times,serif" font-size="14.00">nordugrid arc</text>
</a>
</g>
</g>
<!-- xrootd&#45;&gt;nordugrid&#45;arc -->
<g id="edge34" class="edge">
<title>xrootd&#45;&gt;nordugrid&#45;arc</title>
<path fill="none" stroke="black" d="M1677.15,-1312.76C1684.63,-1304.18 1693.97,-1293.46 1702.34,-1283.86"/>
<polygon fill="black" stroke="black" points="1705.15,-1285.96 1709.08,-1276.12 1699.87,-1281.36 1705.15,-1285.96"/>
</g>
<!-- cds&#45;crtools -->
<g id="node37" class="node">
<title>cds&#45;crtools</title>
<g id="a_node37"><a xlink:href="https://github.com/conda-forge/cds-crtools-feedstock" xlink:title="cds crtools">
<ellipse fill="#fde725" stroke="black" cx="1601" cy="-1186" rx="61.19" ry="18"/>
<text text-anchor="middle" x="1601" y="-1182.3" font-family="Times,serif" font-size="14.00">cds crtools</text>
</a>
</g>
</g>
<!-- root&#45;&gt;cds&#45;crtools -->
<g id="edge35" class="edge">
<title>root&#45;&gt;cds&#45;crtools</title>
<path fill="none" stroke="black" d="M1601,-1239.7C1601,-1231.98 1601,-1222.71 1601,-1214.11"/>
<polygon fill="black" stroke="black" points="1604.5,-1214.1 1601,-1204.1 1597.5,-1214.1 1604.5,-1214.1"/>
</g>
<!-- voms -->
<g id="node39" class="node">
<title>voms</title>
<g id="a_node39"><a xlink:href="https://github.com/conda-forge/voms-feedstock/pull/8" xlink:title="voms ❎">
<ellipse fill="#31688e" stroke="black" cx="2128" cy="-1330" rx="49.5" ry="18"/>
<text text-anchor="middle" x="2128" y="-1326.3" font-family="Times,serif" font-size="14.00" fill="white">voms ❎</text>
</a>
</g>
</g>
<!-- cgsi&#45;gsoap -->
<g id="node40" class="node">
<title>cgsi&#45;gsoap</title>
<g id="a_node40"><a xlink:href="https://github.com/conda-forge/cgsi-gsoap-feedstock" xlink:title="cgsi gsoap">
<ellipse fill="#fde725" stroke="black" cx="1998" cy="-1258" rx="60" ry="18"/>
<text text-anchor="middle" x="1998" y="-1254.3" font-family="Times,serif" font-size="14.00">cgsi gsoap</text>
</a>
</g>
</g>
<!-- voms&#45;&gt;cgsi&#45;gsoap -->
<g id="edge37" class="edge">
<title>voms&#45;&gt;cgsi&#45;gsoap</title>
<path fill="none" stroke="black" d="M2101.38,-1314.67C2082.23,-1304.35 2056.14,-1290.31 2034.97,-1278.91"/>
<polygon fill="black" stroke="black" points="2036.4,-1275.7 2025.93,-1274.04 2033.08,-1281.86 2036.4,-1275.7"/>
</g>
<!-- htcondor -->
<g id="node41" class="node">
<title>htcondor</title>
<g id="a_node41"><a xlink:href="https://github.com/conda-forge/htcondor-feedstock" xlink:title="htcondor">
<ellipse fill="#fde725" stroke="black" cx="2250" cy="-1258" rx="52" ry="18"/>
<text text-anchor="middle" x="2250" y="-1254.3" font-family="Times,serif" font-size="14.00">htcondor</text>
</a>
</g>
</g>
<!-- voms&#45;&gt;htcondor -->
<g id="edge38" class="edge">
<title>voms&#45;&gt;htcondor</title>
<path fill="none" stroke="black" d="M2153.28,-1314.5C2171.31,-1304.15 2195.78,-1290.11 2215.6,-1278.74"/>
<polygon fill="black" stroke="black" points="2217.4,-1281.74 2224.33,-1273.73 2213.92,-1275.67 2217.4,-1281.74"/>
</g>
<!-- myproxy -->
<g id="node42" class="node">
<title>myproxy</title>
<g id="a_node42"><a xlink:href="https://github.com/conda-forge/myproxy-feedstock" xlink:title="myproxy">
<ellipse fill="#fde725" stroke="black" cx="2128" cy="-1258" rx="51.5" ry="18"/>
<text text-anchor="middle" x="2128" y="-1254.3" font-family="Times,serif" font-size="14.00">myproxy</text>
</a>
</g>
</g>
<!-- voms&#45;&gt;myproxy -->
<g id="edge39" class="edge">
<title>voms&#45;&gt;myproxy</title>
<path fill="none" stroke="black" d="M2128,-1311.7C2128,-1303.98 2128,-1294.71 2128,-1286.11"/>
<polygon fill="black" stroke="black" points="2131.5,-1286.1 2128,-1276.1 2124.5,-1286.1 2131.5,-1286.1"/>
</g>
<!-- srm&#45;ifce -->
<g id="node43" class="node">
<title>srm&#45;ifce</title>
<g id="a_node43"><a xlink:href="https://github.com/conda-forge/srm-ifce-feedstock" xlink:title="srm ifce">
<ellipse fill="#fde725" stroke="black" cx="1954" cy="-1186" rx="48.19" ry="18"/>
<text text-anchor="middle" x="1954" y="-1182.3" font-family="Times,serif" font-size="14.00">srm ifce</text>
</a>
</g>
</g>
<!-- cgsi&#45;gsoap&#45;&gt;srm&#45;ifce -->
<g id="edge40" class="edge">
<title>cgsi&#45;gsoap&#45;&gt;srm&#45;ifce</title>
<path fill="none" stroke="black" d="M1987.35,-1240.05C1982.16,-1231.8 1975.81,-1221.7 1970.05,-1212.54"/>
<polygon fill="black" stroke="black" points="1972.84,-1210.39 1964.55,-1203.79 1966.91,-1214.12 1972.84,-1210.39"/>
</g>
<!-- pypy3.6 -->
<g id="node44" class="node">
<title>pypy3.6</title>
<g id="a_node44"><a xlink:href="https://github.com/conda-forge/pypy3.6-feedstock/pull/72" xlink:title="pypy3 6 ❎">
<ellipse fill="#31688e" stroke="black" cx="643" cy="-854" rx="61.99" ry="18"/>
<text text-anchor="middle" x="643" y="-850.3" font-family="Times,serif" font-size="14.00" fill="white">pypy3 6 ❎</text>
</a>
</g>
</g>
<!-- pygsi -->
<g id="node45" class="node">
<title>pygsi</title>
<g id="a_node45"><a xlink:href="https://github.com/conda-forge/pygsi-feedstock" xlink:title="pygsi">
<ellipse fill="#ff8c00" stroke="black" cx="643" cy="-782" rx="36" ry="18"/>
<text text-anchor="middle" x="643" y="-778.3" font-family="Times,serif" font-size="14.00">pygsi</text>
</a>
</g>
</g>
<!-- pypy3.6&#45;&gt;pygsi -->
<!-- git&#45;crypt -->
<g id="node46" class="node">
<title>git&#45;crypt</title>
<g id="a_node46"><a xlink:href="https://github.com/conda-forge/git-crypt-feedstock/pull/2" xlink:title="git crypt ❎">
<ellipse fill="#31688e" stroke="black" cx="643" cy="-710" rx="65" ry="18"/>
<text text-anchor="middle" x="643" y="-706.3" font-family="Times,serif" font-size="14.00" fill="white">git crypt ❎</text>
</a>
</g>
</g>
<!-- pygsi&#45;&gt;git&#45;crypt -->
<!-- uftp -->
<g id="node47" class="node">
<title>uftp</title>
<g id="a_node47"><a xlink:href="https://github.com/conda-forge/uftp-feedstock/pull/2" xlink:title="uftp ❎">
<ellipse fill="#31688e" stroke="black" cx="643" cy="-638" rx="44.39" ry="18"/>
<text text-anchor="middle" x="643" y="-634.3" font-family="Times,serif" font-size="14.00" fill="white">uftp ❎</text>
</a>
</g>
</g>
<!-- git&#45;crypt&#45;&gt;uftp -->
<!-- nix -->
<g id="node52" class="node">
<title>nix</title>
<g id="a_node52"><a xlink:href="https://github.com/conda-forge/nix-feedstock/pull/19" xlink:title="nix ✓">
<ellipse fill="#31688e" stroke="black" cx="643" cy="-566" rx="32.5" ry="18"/>
<text text-anchor="middle" x="643" y="-562.3" font-family="Times,serif" font-size="14.00" fill="white">nix ✓</text>
</a>
</g>
</g>
<!-- uftp&#45;&gt;nix -->
<!-- gct -->
<g id="node48" class="node">
<title>gct</title>
<g id="a_node48"><a xlink:href="https://github.com/conda-forge/gct-feedstock/pull/6" xlink:title="gct ❎">
<ellipse fill="#31688e" stroke="black" cx="1910" cy="-1330" rx="39.79" ry="18"/>
<text text-anchor="middle" x="1910" y="-1326.3" font-family="Times,serif" font-size="14.00" fill="white">gct ❎</text>
</a>
</g>
</g>
<!-- gct&#45;&gt;nordugrid&#45;arc -->
<g id="edge44" class="edge">
<title>gct&#45;&gt;nordugrid&#45;arc</title>
<path fill="none" stroke="black" d="M1880.53,-1317.91C1851.41,-1306.95 1806.37,-1290 1772.07,-1277.09"/>
<polygon fill="black" stroke="black" points="1773.29,-1273.81 1762.7,-1273.56 1770.83,-1280.36 1773.29,-1273.81"/>
</g>
<!-- gct&#45;&gt;cgsi&#45;gsoap -->
<g id="edge45" class="edge">
<title>gct&#45;&gt;cgsi&#45;gsoap</title>
<path fill="none" stroke="black" d="M1929.09,-1313.81C1940.98,-1304.35 1956.49,-1292.02 1969.78,-1281.45"/>
<polygon fill="black" stroke="black" points="1972.07,-1284.1 1977.72,-1275.13 1967.71,-1278.62 1972.07,-1284.1"/>
</g>
<!-- gct&#45;&gt;myproxy -->
<g id="edge46" class="edge">
<title>gct&#45;&gt;myproxy</title>
<path fill="none" stroke="black" d="M1941.7,-1318.82C1978.54,-1306.99 2039.66,-1287.37 2081.79,-1273.84"/>
<polygon fill="black" stroke="black" points="2083.08,-1277.1 2091.53,-1270.71 2080.94,-1270.43 2083.08,-1277.1"/>
</g>
<!-- gct&#45;&gt;srm&#45;ifce -->
<g id="edge48" class="edge">
<title>gct&#45;&gt;srm&#45;ifce</title>
<path fill="none" stroke="black" d="M1912.44,-1311.96C1915.31,-1293.81 1920.76,-1264.4 1929,-1240 1932.07,-1230.9 1936.28,-1221.29 1940.37,-1212.8"/>
<polygon fill="black" stroke="black" points="1943.54,-1214.28 1944.87,-1203.77 1937.28,-1211.16 1943.54,-1214.28"/>
</g>
<!-- dcap -->
<g id="node49" class="node">
<title>dcap</title>
<g id="a_node49"><a xlink:href="https://github.com/conda-forge/dcap-feedstock" xlink:title="dcap">
<ellipse fill="#fde725" stroke="black" cx="1849" cy="-1258" rx="32.5" ry="18"/>
<text text-anchor="middle" x="1849" y="-1254.3" font-family="Times,serif" font-size="14.00">dcap</text>
</a>
</g>
</g>
<!-- gct&#45;&gt;dcap -->
<g id="edge47" class="edge">
<title>gct&#45;&gt;dcap</title>
<path fill="none" stroke="black" d="M1896.16,-1313.12C1888.28,-1304.08 1878.27,-1292.58 1869.49,-1282.52"/>
<polygon fill="black" stroke="black" points="1872,-1280.06 1862.79,-1274.82 1866.72,-1284.66 1872,-1280.06"/>
</g>
<!-- libwebsockets -->
<g id="node50" class="node">
<title>libwebsockets</title>
<g id="a_node50"><a xlink:href="https://github.com/conda-forge/libwebsockets-feedstock/pull/32" xlink:title="libwebsockets ❎">
<ellipse fill="#31688e" stroke="black" cx="1921" cy="-530" rx="90.5" ry="18"/>
<text text-anchor="middle" x="1921" y="-526.3" font-family="Times,serif" font-size="14.00" fill="white">libwebsockets ❎</text>
</a>
</g>
</g>
<!-- ttyd -->
<g id="node51" class="node">
<title>ttyd</title>
<g id="a_node51"><a xlink:href="https://github.com/conda-forge/ttyd-feedstock" xlink:title="ttyd">
<ellipse fill="#fde725" stroke="black" cx="1921" cy="-458" rx="30" ry="18"/>
<text text-anchor="middle" x="1921" y="-454.3" font-family="Times,serif" font-size="14.00">ttyd</text>
</a>
</g>
</g>
<!-- libwebsockets&#45;&gt;ttyd -->
<g id="edge49" class="edge">
<title>libwebsockets&#45;&gt;ttyd</title>
<path fill="none" stroke="black" d="M1921,-511.7C1921,-503.98 1921,-494.71 1921,-486.11"/>
<polygon fill="black" stroke="black" points="1924.5,-486.1 1921,-476.1 1917.5,-486.1 1924.5,-486.1"/>
</g>
<!-- cyclonedds -->
<g id="node53" class="node">
<title>cyclonedds</title>
<g id="a_node53"><a xlink:href="https://github.com/conda-forge/cyclonedds-feedstock/pull/2" xlink:title="cyclonedds ❎">
<ellipse fill="#31688e" stroke="black" cx="643" cy="-494" rx="76.09" ry="18"/>
<text text-anchor="middle" x="643" y="-490.3" font-family="Times,serif" font-size="14.00" fill="white">cyclonedds ❎</text>
</a>
</g>
</g>
<!-- nix&#45;&gt;cyclonedds -->
<!-- createrepo_c -->
<g id="node54" class="node">
<title>createrepo_c</title>
<g id="a_node54"><a xlink:href="https://github.com/conda-forge/createrepo_c-feedstock" xlink:title="createrepo_c">
<ellipse fill="#ff8c00" stroke="black" cx="643" cy="-422" rx="70.39" ry="18"/>
<text text-anchor="middle" x="643" y="-418.3" font-family="Times,serif" font-size="14.00">createrepo_c</text>
</a>
</g>
</g>
<!-- cyclonedds&#45;&gt;createrepo_c -->
<!-- glib&#45;networking -->
<g id="node57" class="node">
<title>glib&#45;networking</title>
<g id="a_node57"><a xlink:href="https://github.com/conda-forge/glib-networking-feedstock" xlink:title="glib networking">
<ellipse fill="#ff8c00" stroke="black" cx="643" cy="-350" rx="84" ry="18"/>
<text text-anchor="middle" x="643" y="-346.3" font-family="Times,serif" font-size="14.00">glib networking</text>
</a>
</g>
</g>
<!-- createrepo_c&#45;&gt;glib&#45;networking -->
<!-- serf -->
<g id="node55" class="node">
<title>serf</title>
<g id="a_node55"><a xlink:href="https://github.com/conda-forge/serf-feedstock/pull/2" xlink:title="serf ✓">
<ellipse fill="#31688e" stroke="black" cx="1921" cy="-90" rx="36.5" ry="18"/>
<text text-anchor="middle" x="1921" y="-86.3" font-family="Times,serif" font-size="14.00" fill="white">serf ✓</text>
</a>
</g>
</g>
<!-- subversion -->
<g id="node56" class="node">
<title>subversion</title>
<g id="a_node56"><a xlink:href="https://github.com/conda-forge/subversion-feedstock" xlink:title="subversion">
<ellipse fill="#fde725" stroke="black" cx="1921" cy="-18" rx="61.99" ry="18"/>
<text text-anchor="middle" x="1921" y="-14.3" font-family="Times,serif" font-size="14.00">subversion</text>
</a>
</g>
</g>
<!-- serf&#45;&gt;subversion -->
<g id="edge53" class="edge">
<title>serf&#45;&gt;subversion</title>
<path fill="none" stroke="black" d="M1921,-71.7C1921,-63.98 1921,-54.71 1921,-46.11"/>
<polygon fill="black" stroke="black" points="1924.5,-46.1 1921,-36.1 1917.5,-46.1 1924.5,-46.1"/>
</g>
<!-- pineappl -->
<g id="node58" class="node">
<title>pineappl</title>
<g id="a_node58"><a xlink:href="https://github.com/conda-forge/pineappl-feedstock/pull/8" xlink:title="pineappl ❎">
<ellipse fill="#31688e" stroke="black" cx="643" cy="-278" rx="65" ry="18"/>
<text text-anchor="middle" x="643" y="-274.3" font-family="Times,serif" font-size="14.00" fill="white">pineappl ❎</text>
</a>
</g>
</g>
<!-- glib&#45;networking&#45;&gt;pineappl -->
<!-- panda3d -->
<g id="node59" class="node">
<title>panda3d</title>
<g id="a_node59"><a xlink:href="https://github.com/conda-forge/panda3d-feedstock/pull/6" xlink:title="panda3d ✓">
<ellipse fill="#31688e" stroke="black" cx="643" cy="-206" rx="58" ry="18"/>
<text text-anchor="middle" x="643" y="-202.3" font-family="Times,serif" font-size="14.00" fill="white">panda3d ✓</text>
</a>
</g>
</g>
<!-- pineappl&#45;&gt;panda3d -->
<!-- libxmlsec1 -->
<g id="node60" class="node">
<title>libxmlsec1</title>
<g id="a_node60"><a xlink:href="https://github.com/conda-forge/libxmlsec1-feedstock/pull/3" xlink:title="libxmlsec1 ❎">
<ellipse fill="#31688e" stroke="black" cx="643" cy="-134" rx="74.99" ry="18"/>
<text text-anchor="middle" x="643" y="-130.3" font-family="Times,serif" font-size="14.00" fill="white">libxmlsec1 ❎</text>
</a>
</g>
</g>
<!-- panda3d&#45;&gt;libxmlsec1 -->
<!-- go&#45;ipfs -->
<g id="node61" class="node">
<title>go&#45;ipfs</title>
<g id="a_node61"><a xlink:href="https://github.com/conda-forge/go-ipfs-feedstock/pull/10" xlink:title="go ipfs ❎">
<ellipse fill="#31688e" stroke="black" cx="1413" cy="-566" rx="56" ry="18"/>
<text text-anchor="middle" x="1413" y="-562.3" font-family="Times,serif" font-size="14.00" fill="white">go ipfs ❎</text>
</a>
</g>
</g>
<!-- aws&#45;c&#45;s3 -->
<g id="node62" class="node">
<title>aws&#45;c&#45;s3</title>
<g id="a_node62"><a xlink:href="https://github.com/conda-forge/aws-c-s3-feedstock" xlink:title="aws c s3">
<ellipse fill="#ff8c00" stroke="black" cx="1413" cy="-494" rx="50.09" ry="18"/>
<text text-anchor="middle" x="1413" y="-490.3" font-family="Times,serif" font-size="14.00">aws c s3</text>
</a>
</g>
</g>
<!-- go&#45;ipfs&#45;&gt;aws&#45;c&#45;s3 -->
<!-- oxigraph -->
<g id="node64" class="node">
<title>oxigraph</title>
<g id="a_node64"><a xlink:href="https://github.com/conda-forge/oxigraph-feedstock/pull/6" xlink:title="oxigraph ❎">
<ellipse fill="#31688e" stroke="black" cx="1413" cy="-422" rx="65.79" ry="18"/>
<text text-anchor="middle" x="1413" y="-418.3" font-family="Times,serif" font-size="14.00" fill="white">oxigraph ❎</text>
</a>
</g>
</g>
<!-- aws&#45;c&#45;s3&#45;&gt;oxigraph -->
<!-- tensorboard&#45;data&#45;server -->
<g id="node63" class="node">
<title>tensorboard&#45;data&#45;server</title>
<g id="a_node63"><a xlink:href="https://github.com/conda-forge/tensorboard-data-server-feedstock/pull/9" xlink:title="tensorboard data server ❎">
<ellipse fill="#31688e" stroke="black" cx="612" cy="-1294" rx="138" ry="18"/>
<text text-anchor="middle" x="612" y="-1290.3" font-family="Times,serif" font-size="14.00" fill="white">tensorboard data server ❎</text>
</a>
</g>
</g>
<!-- tensorboard&#45;data&#45;server&#45;&gt;tensorflow -->
<g id="edge59" class="edge">
<title>tensorboard&#45;data&#45;server&#45;&gt;tensorflow</title>
<path fill="none" stroke="black" d="M583.26,-1276.23C566.49,-1266.45 545.2,-1254.03 527.4,-1243.65"/>
<polygon fill="black" stroke="black" points="528.86,-1240.45 518.46,-1238.43 525.33,-1246.5 528.86,-1240.45"/>
</g>
</g>
</svg>
