<?xml version="1.0" encoding="UTF-8" standalone="no"?>
<!DOCTYPE svg PUBLIC "-//W3C//DTD SVG 1.1//EN"
 "http://www.w3.org/Graphics/SVG/1.1/DTD/svg11.dtd">
<!-- Generated by graphviz version 2.47.0 (20210316.1410)
 -->
<!-- Pages: 1 -->
<svg width="953pt" height="592pt"
 viewBox="0.00 0.00 952.69 592.00" xmlns="http://www.w3.org/2000/svg" xmlns:xlink="http://www.w3.org/1999/xlink">
<g id="graph0" class="graph" transform="scale(1 1) rotate(0) translate(4 588)">
<polygon fill="white" stroke="transparent" points="-4,4 -4,-588 948.69,-588 948.69,4 -4,4"/>
<!-- gnuplot -->
<g id="node1" class="node">
<title>gnuplot</title>
<g id="a_node1"><a xlink:href="https://github.com/conda-forge/gnuplot-feedstock" xlink:title="gnuplot">
<ellipse fill="#fde725" stroke="black" cx="371.69" cy="-386" rx="46.29" ry="18"/>
<text text-anchor="middle" x="371.69" y="-382.3" font-family="Times-Roman" font-size="14.00">gnuplot</text>
</a>
</g>
</g>
<!-- graphviz -->
<g id="node2" class="node">
<title>graphviz</title>
<g id="a_node2"><a xlink:href="https://github.com/conda-forge/graphviz-feedstock" xlink:title="graphviz">
<ellipse fill="#fde725" stroke="black" cx="551.69" cy="-386" rx="50.89" ry="18"/>
<text text-anchor="middle" x="551.69" y="-382.3" font-family="Times-Roman" font-size="14.00">graphviz</text>
</a>
</g>
</g>
<!-- imagemagick -->
<g id="node3" class="node">
<title>imagemagick</title>
<g id="a_node3"><a xlink:href="https://github.com/conda-forge/imagemagick-feedstock" xlink:title="imagemagick">
<ellipse fill="#fde725" stroke="black" cx="593.69" cy="-314" rx="73.5" ry="18"/>
<text text-anchor="middle" x="593.69" y="-310.3" font-family="Times-Roman" font-size="14.00">imagemagick</text>
</a>
</g>
</g>
<!-- graphviz&#45;&gt;imagemagick -->
<g id="edge1" class="edge">
<title>graphviz&#45;&gt;imagemagick</title>
<path fill="none" stroke="black" d="M561.86,-368.05C566.74,-359.92 572.69,-350 578.12,-340.94"/>
<polygon fill="black" stroke="black" points="581.18,-342.65 583.32,-332.28 575.18,-339.05 581.18,-342.65"/>
</g>
<!-- libvips -->
<g id="node4" class="node">
<title>libvips</title>
<g id="a_node4"><a xlink:href="https://github.com/conda-forge/libvips-feedstock" xlink:title="libvips">
<ellipse fill="#fde725" stroke="black" cx="644.69" cy="-242" rx="40.5" ry="18"/>
<text text-anchor="middle" x="644.69" y="-238.3" font-family="Times-Roman" font-size="14.00">libvips</text>
</a>
</g>
</g>
<!-- imagemagick&#45;&gt;libvips -->
<g id="edge2" class="edge">
<title>imagemagick&#45;&gt;libvips</title>
<path fill="none" stroke="black" d="M606.04,-296.05C612.26,-287.5 619.94,-276.97 626.8,-267.56"/>
<polygon fill="black" stroke="black" points="629.75,-269.45 632.81,-259.31 624.09,-265.33 629.75,-269.45"/>
</g>
<!-- librsvg -->
<g id="node5" class="node">
<title>librsvg</title>
<g id="a_node5"><a xlink:href="https://github.com/conda-forge/librsvg-feedstock/pull/69" xlink:title="librsvg ❎">
<ellipse fill="#31688e" stroke="black" cx="630.69" cy="-458" rx="54" ry="18"/>
<text text-anchor="middle" x="630.69" y="-454.3" font-family="Times-Roman" font-size="14.00" fill="white">librsvg ❎</text>
</a>
</g>
</g>
<!-- librsvg&#45;&gt;graphviz -->
<g id="edge3" class="edge">
<title>librsvg&#45;&gt;graphviz</title>
<path fill="none" stroke="black" d="M612.37,-440.76C601.92,-431.51 588.68,-419.77 577.22,-409.63"/>
<polygon fill="black" stroke="black" points="579.45,-406.92 569.64,-402.91 574.8,-412.16 579.45,-406.92"/>
</g>
<!-- librsvg&#45;&gt;imagemagick -->
<g id="edge4" class="edge">
<title>librsvg&#45;&gt;imagemagick</title>
<path fill="none" stroke="black" d="M627.64,-439.79C624.29,-421.76 618.49,-392.68 611.69,-368 609.3,-359.34 606.29,-350.03 603.42,-341.66"/>
<polygon fill="black" stroke="black" points="606.66,-340.3 600.04,-332.03 600.05,-342.62 606.66,-340.3"/>
</g>
<!-- librsvg&#45;&gt;libvips -->
<g id="edge5" class="edge">
<title>librsvg&#45;&gt;libvips</title>
<path fill="none" stroke="black" d="M639.08,-440.15C650.27,-416.63 669.51,-372.3 676.69,-332 679.5,-316.25 680.98,-311.41 676.69,-296 673.91,-286.01 668.68,-276.02 663.24,-267.45"/>
<polygon fill="black" stroke="black" points="666.09,-265.42 657.59,-259.1 660.29,-269.34 666.09,-265.42"/>
</g>
<!-- magics -->
<g id="node6" class="node">
<title>magics</title>
<g id="a_node6"><a xlink:href="https://github.com/conda-forge/magics-feedstock" xlink:title="magics">
<ellipse fill="#35b779" stroke="black" cx="115.69" cy="-566" rx="44.39" ry="18"/>
<text text-anchor="middle" x="115.69" y="-562.3" font-family="Times-Roman" font-size="14.00">magics</text>
</a>
</g>
</g>
<!-- pyferret -->
<g id="node7" class="node">
<title>pyferret</title>
<g id="a_node7"><a xlink:href="https://github.com/conda-forge/pyferret-feedstock" xlink:title="pyferret">
<ellipse fill="#35b779" stroke="black" cx="115.69" cy="-494" rx="48.19" ry="18"/>
<text text-anchor="middle" x="115.69" y="-490.3" font-family="Times-Roman" font-size="14.00">pyferret</text>
</a>
</g>
</g>
<!-- magics&#45;&gt;pyferret -->
<!-- r&#45;base -->
<g id="node8" class="node">
<title>r&#45;base</title>
<g id="a_node8"><a xlink:href="https://github.com/conda-forge/r-base-feedstock/pull/164" xlink:title="r base ✓">
<ellipse fill="#31688e" stroke="black" cx="115.69" cy="-422" rx="50.89" ry="18"/>
<text text-anchor="middle" x="115.69" y="-418.3" font-family="Times-Roman" font-size="14.00" fill="white">r base ✓</text>
</a>
</g>
</g>
<!-- pyferret&#45;&gt;r&#45;base -->
<!-- magics&#45;metview -->
<g id="node9" class="node">
<title>magics&#45;metview</title>
<g id="a_node9"><a xlink:href="https://github.com/conda-forge/magics-metview-feedstock" xlink:title="magics metview">
<ellipse fill="#35b779" stroke="black" cx="115.69" cy="-350" rx="87.18" ry="18"/>
<text text-anchor="middle" x="115.69" y="-346.3" font-family="Times-Roman" font-size="14.00">magics metview</text>
</a>
</g>
</g>
<!-- r&#45;base&#45;&gt;magics&#45;metview -->
<!-- magics&#45;metview&#45;batch -->
<g id="node13" class="node">
<title>magics&#45;metview&#45;batch</title>
<g id="a_node13"><a xlink:href="https://github.com/conda-forge/magics-metview-batch-feedstock" xlink:title="magics metview batch">
<ellipse fill="#35b779" stroke="black" cx="115.69" cy="-278" rx="115.88" ry="18"/>
<text text-anchor="middle" x="115.69" y="-274.3" font-family="Times-Roman" font-size="14.00">magics metview batch</text>
</a>
</g>
</g>
<!-- magics&#45;metview&#45;&gt;magics&#45;metview&#45;batch -->
<!-- wxpython -->
<g id="node10" class="node">
<title>wxpython</title>
<g id="a_node10"><a xlink:href="https://github.com/conda-forge/wxpython-feedstock" xlink:title="wxpython">
<ellipse fill="#fde725" stroke="black" cx="445.69" cy="-314" rx="56" ry="18"/>
<text text-anchor="middle" x="445.69" y="-310.3" font-family="Times-Roman" font-size="14.00">wxpython</text>
</a>
</g>
</g>
<!-- gtk2 -->
<g id="node11" class="node">
<title>gtk2</title>
<g id="a_node11"><a xlink:href="https://github.com/conda-forge/gtk2-feedstock/pull/21" xlink:title="gtk2 ✓">
<ellipse fill="#31688e" stroke="black" cx="408.69" cy="-458" rx="42.49" ry="18"/>
<text text-anchor="middle" x="408.69" y="-454.3" font-family="Times-Roman" font-size="14.00" fill="white">gtk2 ✓</text>
</a>
</g>
</g>
<!-- gtk2&#45;&gt;gnuplot -->
<g id="edge9" class="edge">
<title>gtk2&#45;&gt;gnuplot</title>
<path fill="none" stroke="black" d="M399.73,-440.05C395.42,-431.89 390.14,-421.91 385.34,-412.82"/>
<polygon fill="black" stroke="black" points="388.33,-410.99 380.56,-403.79 382.14,-414.27 388.33,-410.99"/>
</g>
<!-- gtk2&#45;&gt;graphviz -->
<g id="edge10" class="edge">
<title>gtk2&#45;&gt;graphviz</title>
<path fill="none" stroke="black" d="M435.25,-444C457.31,-433.2 488.97,-417.7 513.71,-405.59"/>
<polygon fill="black" stroke="black" points="515.37,-408.68 522.81,-401.14 512.29,-402.39 515.37,-408.68"/>
</g>
<!-- gtk2&#45;&gt;wxpython -->
<g id="edge11" class="edge">
<title>gtk2&#45;&gt;wxpython</title>
<path fill="none" stroke="black" d="M415.04,-439.97C418.74,-429.66 423.33,-416.18 426.69,-404 432.32,-383.57 437.27,-360.11 440.7,-342.4"/>
<polygon fill="black" stroke="black" points="444.21,-342.68 442.64,-332.21 437.33,-341.38 444.21,-342.68"/>
</g>
<!-- javafx&#45;sdk -->
<g id="node12" class="node">
<title>javafx&#45;sdk</title>
<g id="a_node12"><a xlink:href="https://github.com/conda-forge/javafx-sdk-feedstock" xlink:title="javafx sdk">
<ellipse fill="#fde725" stroke="black" cx="297.69" cy="-242" rx="58" ry="18"/>
<text text-anchor="middle" x="297.69" y="-238.3" font-family="Times-Roman" font-size="14.00">javafx sdk</text>
</a>
</g>
</g>
<!-- gtk2&#45;&gt;javafx&#45;sdk -->
<g id="edge12" class="edge">
<title>gtk2&#45;&gt;javafx&#45;sdk</title>
<path fill="none" stroke="black" d="M375.64,-446.6C355.22,-438.38 330.39,-424.78 316.69,-404 289.99,-363.5 290.63,-304.56 293.9,-270.36"/>
<polygon fill="black" stroke="black" points="297.4,-270.51 295.02,-260.19 290.45,-269.74 297.4,-270.51"/>
</g>
<!-- rrdtool -->
<g id="node14" class="node">
<title>rrdtool</title>
<g id="a_node14"><a xlink:href="https://github.com/conda-forge/rrdtool-feedstock" xlink:title="rrdtool">
<ellipse fill="#35b779" stroke="black" cx="115.69" cy="-206" rx="42.49" ry="18"/>
<text text-anchor="middle" x="115.69" y="-202.3" font-family="Times-Roman" font-size="14.00">rrdtool</text>
</a>
</g>
</g>
<!-- magics&#45;metview&#45;batch&#45;&gt;rrdtool -->
<!-- duc -->
<g id="node20" class="node">
<title>duc</title>
<g id="a_node20"><a xlink:href="https://github.com/conda-forge/duc-feedstock" xlink:title="duc">
<ellipse fill="#35b779" stroke="black" cx="115.69" cy="-134" rx="27.5" ry="18"/>
<text text-anchor="middle" x="115.69" y="-130.3" font-family="Times-Roman" font-size="14.00">duc</text>
</a>
</g>
</g>
<!-- rrdtool&#45;&gt;duc -->
<!-- gtk3 -->
<g id="node15" class="node">
<title>gtk3</title>
<g id="a_node15"><a xlink:href="https://github.com/conda-forge/gtk3-feedstock" xlink:title="gtk3">
<ellipse fill="#ff8c00" stroke="black" cx="882.69" cy="-422" rx="31.4" ry="18"/>
<text text-anchor="middle" x="882.69" y="-418.3" font-family="Times-Roman" font-size="14.00">gtk3</text>
</a>
</g>
</g>
<!-- gtkmm -->
<g id="node16" class="node">
<title>gtkmm</title>
<g id="a_node16"><a xlink:href="https://github.com/conda-forge/gtkmm-feedstock" xlink:title="gtkmm">
<ellipse fill="#fde725" stroke="black" cx="762.69" cy="-350" rx="44.39" ry="18"/>
<text text-anchor="middle" x="762.69" y="-346.3" font-family="Times-Roman" font-size="14.00">gtkmm</text>
</a>
</g>
</g>
<!-- gtk3&#45;&gt;gtkmm -->
<g id="edge15" class="edge">
<title>gtk3&#45;&gt;gtkmm</title>
<path fill="none" stroke="black" d="M861.51,-408.65C843.34,-398.05 816.85,-382.59 795.87,-370.35"/>
<polygon fill="black" stroke="black" points="797.36,-367.17 786.96,-365.16 793.83,-373.22 797.36,-367.17"/>
</g>
<!-- wxwidgets -->
<g id="node17" class="node">
<title>wxwidgets</title>
<g id="a_node17"><a xlink:href="https://github.com/conda-forge/wxwidgets-feedstock" xlink:title="wxwidgets">
<ellipse fill="#fde725" stroke="black" cx="884.69" cy="-350" rx="60" ry="18"/>
<text text-anchor="middle" x="884.69" y="-346.3" font-family="Times-Roman" font-size="14.00">wxwidgets</text>
</a>
</g>
</g>
<!-- gtk3&#45;&gt;wxwidgets -->
<g id="edge16" class="edge">
<title>gtk3&#45;&gt;wxwidgets</title>
<path fill="none" stroke="black" d="M883.18,-403.7C883.4,-395.98 883.67,-386.71 883.92,-378.11"/>
<polygon fill="black" stroke="black" points="887.41,-378.2 884.2,-368.1 880.42,-378 887.41,-378.2"/>
</g>
<!-- hugin -->
<g id="node18" class="node">
<title>hugin</title>
<g id="a_node18"><a xlink:href="https://github.com/conda-forge/hugin-feedstock" xlink:title="hugin">
<ellipse fill="#fde725" stroke="black" cx="884.69" cy="-278" rx="36.5" ry="18"/>
<text text-anchor="middle" x="884.69" y="-274.3" font-family="Times-Roman" font-size="14.00">hugin</text>
</a>
</g>
</g>
<!-- wxwidgets&#45;&gt;hugin -->
<g id="edge17" class="edge">
<title>wxwidgets&#45;&gt;hugin</title>
<path fill="none" stroke="black" d="M884.69,-331.7C884.69,-323.98 884.69,-314.71 884.69,-306.11"/>
<polygon fill="black" stroke="black" points="888.19,-306.1 884.69,-296.1 881.19,-306.1 888.19,-306.1"/>
</g>
<!-- pangomm -->
<g id="node19" class="node">
<title>pangomm</title>
<g id="a_node19"><a xlink:href="https://github.com/conda-forge/pangomm-feedstock/pull/3" xlink:title="pangomm ✓">
<ellipse fill="#31688e" stroke="black" cx="762.69" cy="-422" rx="69.59" ry="18"/>
<text text-anchor="middle" x="762.69" y="-418.3" font-family="Times-Roman" font-size="14.00" fill="white">pangomm ✓</text>
</a>
</g>
</g>
<!-- pangomm&#45;&gt;gtkmm -->
<g id="edge18" class="edge">
<title>pangomm&#45;&gt;gtkmm</title>
<path fill="none" stroke="black" d="M762.69,-403.7C762.69,-395.98 762.69,-386.71 762.69,-378.11"/>
<polygon fill="black" stroke="black" points="766.19,-378.1 762.69,-368.1 759.19,-378.1 766.19,-378.1"/>
</g>
<!-- vscode&#45;jupyter -->
<g id="node21" class="node">
<title>vscode&#45;jupyter</title>
<g id="a_node21"><a xlink:href="https://github.com/conda-forge/vscode-jupyter-feedstock/pull/15" xlink:title="vscode jupyter ❎">
<ellipse fill="#31688e" stroke="black" cx="115.69" cy="-90" rx="91" ry="18"/>
<text text-anchor="middle" x="115.69" y="-86.3" font-family="Times-Roman" font-size="14.00" fill="white">vscode jupyter ❎</text>
</a>
</g>
</g>
<!-- vscode&#45;python -->
<g id="node22" class="node">
<title>vscode&#45;python</title>
<g id="a_node22"><a xlink:href="https://github.com/conda-forge/vscode-python-feedstock" xlink:title="vscode python">
<ellipse fill="#fde725" stroke="black" cx="115.69" cy="-18" rx="78.79" ry="18"/>
<text text-anchor="middle" x="115.69" y="-14.3" font-family="Times-Roman" font-size="14.00">vscode python</text>
</a>
</g>
</g>
<!-- vscode&#45;jupyter&#45;&gt;vscode&#45;python -->
<g id="edge20" class="edge">
<title>vscode&#45;jupyter&#45;&gt;vscode&#45;python</title>
<path fill="none" stroke="black" d="M115.69,-71.7C115.69,-63.98 115.69,-54.71 115.69,-46.11"/>
<polygon fill="black" stroke="black" points="119.19,-46.1 115.69,-36.1 112.19,-46.1 119.19,-46.1"/>
</g>
</g>
</svg>
