<?xml version="1.0" encoding="UTF-8" standalone="no"?>
<!DOCTYPE svg PUBLIC "-//W3C//DTD SVG 1.1//EN"
 "http://www.w3.org/Graphics/SVG/1.1/DTD/svg11.dtd">
<!-- Generated by graphviz version 2.50.0 (20211209.0339)
 -->
<!-- Pages: 1 -->
<svg width="1340pt" height="880pt"
 viewBox="0.00 0.00 1339.69 880.00" xmlns="http://www.w3.org/2000/svg" xmlns:xlink="http://www.w3.org/1999/xlink">
<g id="graph0" class="graph" transform="scale(1 1) rotate(0) translate(4 876)">
<polygon fill="white" stroke="transparent" points="-4,4 -4,-876 1335.69,-876 1335.69,4 -4,4"/>
<!-- gnuplot -->
<g id="node1" class="node">
<title>gnuplot</title>
<g id="a_node1"><a xlink:href="https://github.com/conda-forge/gnuplot-feedstock" xlink:title="gnuplot">
<ellipse fill="#fde725" stroke="black" cx="755.69" cy="-530" rx="46.29" ry="18"/>
<text text-anchor="middle" x="755.69" y="-526.3" font-family="Times,serif" font-size="14.00">gnuplot</text>
</a>
</g>
</g>
<!-- graphviz -->
<g id="node2" class="node">
<title>graphviz</title>
<g id="a_node2"><a xlink:href="https://github.com/conda-forge/graphviz-feedstock" xlink:title="graphviz">
<ellipse fill="#fde725" stroke="black" cx="374.69" cy="-530" rx="51.5" ry="18"/>
<text text-anchor="middle" x="374.69" y="-526.3" font-family="Times,serif" font-size="14.00">graphviz</text>
</a>
</g>
</g>
<!-- imagemagick -->
<g id="node3" class="node">
<title>imagemagick</title>
<g id="a_node3"><a xlink:href="https://github.com/conda-forge/imagemagick-feedstock" xlink:title="imagemagick">
<ellipse fill="#fde725" stroke="black" cx="356.69" cy="-458" rx="72.29" ry="18"/>
<text text-anchor="middle" x="356.69" y="-454.3" font-family="Times,serif" font-size="14.00">imagemagick</text>
</a>
</g>
</g>
<!-- graphviz&#45;&gt;imagemagick -->
<g id="edge1" class="edge">
<title>graphviz&#45;&gt;imagemagick</title>
<path fill="none" stroke="black" d="M370.33,-512.05C368.33,-504.26 365.9,-494.82 363.65,-486.08"/>
<polygon fill="black" stroke="black" points="367.01,-485.09 361.13,-476.28 360.23,-486.83 367.01,-485.09"/>
</g>
<!-- libvips -->
<g id="node4" class="node">
<title>libvips</title>
<g id="a_node4"><a xlink:href="https://github.com/conda-forge/libvips-feedstock" xlink:title="libvips">
<ellipse fill="#fde725" stroke="black" cx="306.69" cy="-386" rx="41.69" ry="18"/>
<text text-anchor="middle" x="306.69" y="-382.3" font-family="Times,serif" font-size="14.00">libvips</text>
</a>
</g>
</g>
<!-- imagemagick&#45;&gt;libvips -->
<g id="edge2" class="edge">
<title>imagemagick&#45;&gt;libvips</title>
<path fill="none" stroke="black" d="M344.58,-440.05C338.48,-431.5 330.96,-420.97 324.23,-411.56"/>
<polygon fill="black" stroke="black" points="327,-409.41 318.34,-403.31 321.3,-413.48 327,-409.41"/>
</g>
<!-- librsvg -->
<g id="node5" class="node">
<title>librsvg</title>
<g id="a_node5"><a xlink:href="https://github.com/conda-forge/librsvg-feedstock/pull/86" xlink:title="librsvg ❎">
<ellipse fill="#31688e" stroke="black" cx="334.69" cy="-602" rx="57.39" ry="18"/>
<text text-anchor="middle" x="334.69" y="-598.3" font-family="Times,serif" font-size="14.00" fill="white">librsvg ❎</text>
</a>
</g>
</g>
<!-- librsvg&#45;&gt;graphviz -->
<g id="edge3" class="edge">
<title>librsvg&#45;&gt;graphviz</title>
<path fill="none" stroke="black" d="M344.37,-584.05C349.09,-575.8 354.86,-565.7 360.1,-556.54"/>
<polygon fill="black" stroke="black" points="363.17,-558.21 365.09,-547.79 357.09,-554.73 363.17,-558.21"/>
</g>
<!-- librsvg&#45;&gt;imagemagick -->
<g id="edge4" class="edge">
<title>librsvg&#45;&gt;imagemagick</title>
<path fill="none" stroke="black" d="M324.96,-583.95C315.92,-565.8 305.04,-536.39 313.69,-512 317.41,-501.51 324.19,-491.58 331.29,-483.21"/>
<polygon fill="black" stroke="black" points="333.97,-485.46 338.1,-475.7 328.79,-480.75 333.97,-485.46"/>
</g>
<!-- librsvg&#45;&gt;libvips -->
<g id="edge5" class="edge">
<title>librsvg&#45;&gt;libvips</title>
<path fill="none" stroke="black" d="M323.5,-584.13C308.9,-560.94 284.22,-517.37 275.69,-476 272.46,-460.33 271.5,-455.44 275.69,-440 278.31,-430.33 283.19,-420.61 288.31,-412.19"/>
<polygon fill="black" stroke="black" points="291.36,-413.92 293.87,-403.62 285.49,-410.11 291.36,-413.92"/>
</g>
<!-- gnome&#45;themes&#45;standard -->
<g id="node6" class="node">
<title>gnome&#45;themes&#45;standard</title>
<g id="a_node6"><a xlink:href="https://github.com/conda-forge/gnome-themes-standard-feedstock" xlink:title="gnome themes standard">
<ellipse fill="#fde725" stroke="black" cx="567.69" cy="-530" rx="123.5" ry="18"/>
<text text-anchor="middle" x="567.69" y="-526.3" font-family="Times,serif" font-size="14.00">gnome themes standard</text>
</a>
</g>
</g>
<!-- librsvg&#45;&gt;gnome&#45;themes&#45;standard -->
<g id="edge6" class="edge">
<title>librsvg&#45;&gt;gnome&#45;themes&#45;standard</title>
<path fill="none" stroke="black" d="M374.48,-589.05C410.7,-578.16 464.72,-561.93 506.44,-549.4"/>
<polygon fill="black" stroke="black" points="507.66,-552.69 516.23,-546.46 505.64,-545.99 507.66,-552.69"/>
</g>
<!-- magics -->
<g id="node7" class="node">
<title>magics</title>
<g id="a_node7"><a xlink:href="https://github.com/conda-forge/magics-feedstock" xlink:title="magics">
<ellipse fill="#35b779" stroke="black" cx="128.69" cy="-854" rx="43.59" ry="18"/>
<text text-anchor="middle" x="128.69" y="-850.3" font-family="Times,serif" font-size="14.00">magics</text>
</a>
</g>
</g>
<!-- pyferret -->
<g id="node8" class="node">
<title>pyferret</title>
<g id="a_node8"><a xlink:href="https://github.com/conda-forge/pyferret-feedstock" xlink:title="pyferret">
<ellipse fill="#35b779" stroke="black" cx="128.69" cy="-782" rx="48.99" ry="18"/>
<text text-anchor="middle" x="128.69" y="-778.3" font-family="Times,serif" font-size="14.00">pyferret</text>
</a>
</g>
</g>
<!-- magics&#45;&gt;pyferret -->
<!-- r&#45;base -->
<g id="node9" class="node">
<title>r&#45;base</title>
<g id="a_node9"><a xlink:href="https://github.com/conda-forge/r-base-feedstock/pull/197" xlink:title="r base ✓">
<ellipse fill="#31688e" stroke="black" cx="128.69" cy="-710" rx="47" ry="18"/>
<text text-anchor="middle" x="128.69" y="-706.3" font-family="Times,serif" font-size="14.00" fill="white">r base ✓</text>
</a>
</g>
</g>
<!-- pyferret&#45;&gt;r&#45;base -->
<!-- vega&#45;cli -->
<g id="node10" class="node">
<title>vega&#45;cli</title>
<g id="a_node10"><a xlink:href="https://github.com/conda-forge/vega-cli-feedstock" xlink:title="vega cli">
<ellipse fill="#ff8c00" stroke="black" cx="128.69" cy="-638" rx="46.29" ry="18"/>
<text text-anchor="middle" x="128.69" y="-634.3" font-family="Times,serif" font-size="14.00">vega cli</text>
</a>
</g>
</g>
<!-- r&#45;base&#45;&gt;vega&#45;cli -->
<!-- magics&#45;metview -->
<g id="node14" class="node">
<title>magics&#45;metview</title>
<g id="a_node14"><a xlink:href="https://github.com/conda-forge/magics-metview-feedstock" xlink:title="magics metview">
<ellipse fill="#35b779" stroke="black" cx="128.69" cy="-566" rx="86" ry="18"/>
<text text-anchor="middle" x="128.69" y="-562.3" font-family="Times,serif" font-size="14.00">magics metview</text>
</a>
</g>
</g>
<!-- vega&#45;cli&#45;&gt;magics&#45;metview -->
<!-- wxpython -->
<g id="node11" class="node">
<title>wxpython</title>
<g id="a_node11"><a xlink:href="https://github.com/conda-forge/wxpython-feedstock" xlink:title="wxpython">
<ellipse fill="#fde725" stroke="black" cx="829.69" cy="-458" rx="56" ry="18"/>
<text text-anchor="middle" x="829.69" y="-454.3" font-family="Times,serif" font-size="14.00">wxpython</text>
</a>
</g>
</g>
<!-- gtk2 -->
<g id="node12" class="node">
<title>gtk2</title>
<g id="a_node12"><a xlink:href="https://github.com/conda-forge/gtk2-feedstock/pull/23" xlink:title="gtk2 ❎">
<ellipse fill="#31688e" stroke="black" cx="755.69" cy="-602" rx="46.29" ry="18"/>
<text text-anchor="middle" x="755.69" y="-598.3" font-family="Times,serif" font-size="14.00" fill="white">gtk2 ❎</text>
</a>
</g>
</g>
<!-- gtk2&#45;&gt;gnuplot -->
<g id="edge10" class="edge">
<title>gtk2&#45;&gt;gnuplot</title>
<path fill="none" stroke="black" d="M755.69,-583.7C755.69,-575.98 755.69,-566.71 755.69,-558.11"/>
<polygon fill="black" stroke="black" points="759.19,-558.1 755.69,-548.1 752.19,-558.1 759.19,-558.1"/>
</g>
<!-- gtk2&#45;&gt;graphviz -->
<g id="edge11" class="edge">
<title>gtk2&#45;&gt;graphviz</title>
<path fill="none" stroke="black" d="M712.56,-595.45C650.66,-587.13 533.22,-570.02 434.69,-548 430.59,-547.08 426.35,-546.05 422.11,-544.97"/>
<polygon fill="black" stroke="black" points="422.86,-541.54 412.29,-542.35 421.05,-548.31 422.86,-541.54"/>
</g>
<!-- gtk2&#45;&gt;gnome&#45;themes&#45;standard -->
<g id="edge12" class="edge">
<title>gtk2&#45;&gt;gnome&#45;themes&#45;standard</title>
<path fill="none" stroke="black" d="M723.37,-588.97C694.99,-578.4 653.18,-562.83 620.04,-550.49"/>
<polygon fill="black" stroke="black" points="621.09,-547.15 610.49,-546.94 618.64,-553.71 621.09,-547.15"/>
</g>
<!-- gtk2&#45;&gt;wxpython -->
<g id="edge13" class="edge">
<title>gtk2&#45;&gt;wxpython</title>
<path fill="none" stroke="black" d="M776.73,-585.85C788.48,-576.29 802.38,-562.95 810.69,-548 821.27,-528.95 825.97,-504.59 828.05,-486.18"/>
<polygon fill="black" stroke="black" points="831.54,-486.39 828.99,-476.1 824.57,-485.73 831.54,-486.39"/>
</g>
<!-- javafx&#45;sdk -->
<g id="node13" class="node">
<title>javafx&#45;sdk</title>
<g id="a_node13"><a xlink:href="https://github.com/conda-forge/javafx-sdk-feedstock" xlink:title="javafx sdk">
<ellipse fill="#fde725" stroke="black" cx="913.69" cy="-386" rx="58" ry="18"/>
<text text-anchor="middle" x="913.69" y="-382.3" font-family="Times,serif" font-size="14.00">javafx sdk</text>
</a>
</g>
</g>
<!-- gtk2&#45;&gt;javafx&#45;sdk -->
<g id="edge14" class="edge">
<title>gtk2&#45;&gt;javafx&#45;sdk</title>
<path fill="none" stroke="black" d="M780.71,-586.8C813.31,-566.77 869.17,-526.92 894.69,-476 904.39,-456.64 909.15,-432.49 911.48,-414.23"/>
<polygon fill="black" stroke="black" points="914.96,-414.57 912.59,-404.25 908.01,-413.8 914.96,-414.57"/>
</g>
<!-- magics&#45;metview&#45;batch -->
<g id="node15" class="node">
<title>magics&#45;metview&#45;batch</title>
<g id="a_node15"><a xlink:href="https://github.com/conda-forge/magics-metview-batch-feedstock/pull/42" xlink:title="magics metview batch ❎">
<ellipse fill="#31688e" stroke="black" cx="128.69" cy="-494" rx="128.88" ry="18"/>
<text text-anchor="middle" x="128.69" y="-490.3" font-family="Times,serif" font-size="14.00" fill="white">magics metview batch ❎</text>
</a>
</g>
</g>
<!-- magics&#45;metview&#45;&gt;magics&#45;metview&#45;batch -->
<!-- rrdtool -->
<g id="node16" class="node">
<title>rrdtool</title>
<g id="a_node16"><a xlink:href="https://github.com/conda-forge/rrdtool-feedstock" xlink:title="rrdtool">
<ellipse fill="#35b779" stroke="black" cx="128.69" cy="-422" rx="43" ry="18"/>
<text text-anchor="middle" x="128.69" y="-418.3" font-family="Times,serif" font-size="14.00">rrdtool</text>
</a>
</g>
</g>
<!-- magics&#45;metview&#45;batch&#45;&gt;rrdtool -->
<!-- duc -->
<g id="node23" class="node">
<title>duc</title>
<g id="a_node23"><a xlink:href="https://github.com/conda-forge/duc-feedstock" xlink:title="duc">
<ellipse fill="#35b779" stroke="black" cx="128.69" cy="-350" rx="27.5" ry="18"/>
<text text-anchor="middle" x="128.69" y="-346.3" font-family="Times,serif" font-size="14.00">duc</text>
</a>
</g>
</g>
<!-- rrdtool&#45;&gt;duc -->
<!-- gtk3 -->
<g id="node17" class="node">
<title>gtk3</title>
<g id="a_node17"><a xlink:href="https://github.com/conda-forge/gtk3-feedstock/pull/45" xlink:title="gtk3 ❎">
<ellipse fill="#31688e" stroke="black" cx="1185.69" cy="-566" rx="46.29" ry="18"/>
<text text-anchor="middle" x="1185.69" y="-562.3" font-family="Times,serif" font-size="14.00" fill="white">gtk3 ❎</text>
</a>
</g>
</g>
<!-- gtkmm -->
<g id="node18" class="node">
<title>gtkmm</title>
<g id="a_node18"><a xlink:href="https://github.com/conda-forge/gtkmm-feedstock" xlink:title="gtkmm">
<ellipse fill="#fde725" stroke="black" cx="1056.69" cy="-494" rx="43.59" ry="18"/>
<text text-anchor="middle" x="1056.69" y="-490.3" font-family="Times,serif" font-size="14.00">gtkmm</text>
</a>
</g>
</g>
<!-- gtk3&#45;&gt;gtkmm -->
<g id="edge18" class="edge">
<title>gtk3&#45;&gt;gtkmm</title>
<path fill="none" stroke="black" d="M1159.89,-551C1140.08,-540.25 1112.53,-525.3 1090.88,-513.55"/>
<polygon fill="black" stroke="black" points="1092.46,-510.43 1082,-508.73 1089.12,-516.58 1092.46,-510.43"/>
</g>
<!-- wxwidgets -->
<g id="node19" class="node">
<title>wxwidgets</title>
<g id="a_node19"><a xlink:href="https://github.com/conda-forge/wxwidgets-feedstock" xlink:title="wxwidgets">
<ellipse fill="#fde725" stroke="black" cx="1181.69" cy="-494" rx="60.5" ry="18"/>
<text text-anchor="middle" x="1181.69" y="-490.3" font-family="Times,serif" font-size="14.00">wxwidgets</text>
</a>
</g>
</g>
<!-- gtk3&#45;&gt;wxwidgets -->
<g id="edge19" class="edge">
<title>gtk3&#45;&gt;wxwidgets</title>
<path fill="none" stroke="black" d="M1184.7,-547.7C1184.26,-539.98 1183.73,-530.71 1183.24,-522.11"/>
<polygon fill="black" stroke="black" points="1186.73,-521.89 1182.67,-512.1 1179.74,-522.29 1186.73,-521.89"/>
</g>
<!-- libdazzle -->
<g id="node20" class="node">
<title>libdazzle</title>
<g id="a_node20"><a xlink:href="https://github.com/conda-forge/libdazzle-feedstock" xlink:title="libdazzle">
<ellipse fill="#fde725" stroke="black" cx="1279.69" cy="-422" rx="52" ry="18"/>
<text text-anchor="middle" x="1279.69" y="-418.3" font-family="Times,serif" font-size="14.00">libdazzle</text>
</a>
</g>
</g>
<!-- gtk3&#45;&gt;libdazzle -->
<g id="edge20" class="edge">
<title>gtk3&#45;&gt;libdazzle</title>
<path fill="none" stroke="black" d="M1210.08,-550.58C1224.06,-541.19 1240.91,-527.77 1251.69,-512 1264.43,-493.36 1271.6,-468.62 1275.48,-449.96"/>
<polygon fill="black" stroke="black" points="1278.94,-450.51 1277.37,-440.03 1272.06,-449.21 1278.94,-450.51"/>
</g>
<!-- hugin -->
<g id="node21" class="node">
<title>hugin</title>
<g id="a_node21"><a xlink:href="https://github.com/conda-forge/hugin-feedstock" xlink:title="hugin">
<ellipse fill="#fde725" stroke="black" cx="1172.69" cy="-422" rx="37.09" ry="18"/>
<text text-anchor="middle" x="1172.69" y="-418.3" font-family="Times,serif" font-size="14.00">hugin</text>
</a>
</g>
</g>
<!-- wxwidgets&#45;&gt;hugin -->
<g id="edge21" class="edge">
<title>wxwidgets&#45;&gt;hugin</title>
<path fill="none" stroke="black" d="M1179.46,-475.7C1178.47,-467.98 1177.28,-458.71 1176.17,-450.11"/>
<polygon fill="black" stroke="black" points="1179.63,-449.58 1174.89,-440.1 1172.69,-450.47 1179.63,-449.58"/>
</g>
<!-- pangomm -->
<g id="node22" class="node">
<title>pangomm</title>
<g id="a_node22"><a xlink:href="https://github.com/conda-forge/pangomm-feedstock/pull/6" xlink:title="pangomm ❎">
<ellipse fill="#31688e" stroke="black" cx="1050.69" cy="-566" rx="71" ry="18"/>
<text text-anchor="middle" x="1050.69" y="-562.3" font-family="Times,serif" font-size="14.00" fill="white">pangomm ❎</text>
</a>
</g>
</g>
<!-- pangomm&#45;&gt;gtkmm -->
<g id="edge22" class="edge">
<title>pangomm&#45;&gt;gtkmm</title>
<path fill="none" stroke="black" d="M1052.17,-547.7C1052.83,-539.98 1053.63,-530.71 1054.36,-522.11"/>
<polygon fill="black" stroke="black" points="1057.86,-522.37 1055.22,-512.1 1050.88,-521.77 1057.86,-522.37"/>
</g>
<!-- gtk4 -->
<g id="node24" class="node">
<title>gtk4</title>
<g id="a_node24"><a xlink:href="https://github.com/conda-forge/gtk4-feedstock" xlink:title="gtk4">
<ellipse fill="#35b779" stroke="black" cx="128.69" cy="-278" rx="32" ry="18"/>
<text text-anchor="middle" x="128.69" y="-274.3" font-family="Times,serif" font-size="14.00">gtk4</text>
</a>
</g>
</g>
<!-- duc&#45;&gt;gtk4 -->
<!-- manimpango -->
<g id="node27" class="node">
<title>manimpango</title>
<g id="a_node27"><a xlink:href="https://github.com/conda-forge/manimpango-feedstock" xlink:title="manimpango">
<ellipse fill="#35b779" stroke="black" cx="128.69" cy="-206" rx="71" ry="18"/>
<text text-anchor="middle" x="128.69" y="-202.3" font-family="Times,serif" font-size="14.00">manimpango</text>
</a>
</g>
</g>
<!-- gtk4&#45;&gt;manimpango -->
<!-- vscode&#45;jupyter -->
<g id="node25" class="node">
<title>vscode&#45;jupyter</title>
<g id="a_node25"><a xlink:href="https://github.com/conda-forge/vscode-jupyter-feedstock" xlink:title="vscode jupyter">
<ellipse fill="#ff8c00" stroke="black" cx="128.69" cy="-90" rx="79.5" ry="18"/>
<text text-anchor="middle" x="128.69" y="-86.3" font-family="Times,serif" font-size="14.00">vscode jupyter</text>
</a>
</g>
</g>
<!-- vscode&#45;python -->
<g id="node26" class="node">
<title>vscode&#45;python</title>
<g id="a_node26"><a xlink:href="https://github.com/conda-forge/vscode-python-feedstock" xlink:title="vscode python">
<ellipse fill="#fde725" stroke="black" cx="128.69" cy="-18" rx="77.5" ry="18"/>
<text text-anchor="middle" x="128.69" y="-14.3" font-family="Times,serif" font-size="14.00">vscode python</text>
</a>
</g>
</g>
<!-- vscode&#45;jupyter&#45;&gt;vscode&#45;python -->
<g id="edge25" class="edge">
<title>vscode&#45;jupyter&#45;&gt;vscode&#45;python</title>
<path fill="none" stroke="black" d="M128.69,-71.7C128.69,-63.98 128.69,-54.71 128.69,-46.11"/>
<polygon fill="black" stroke="black" points="132.19,-46.1 128.69,-36.1 125.19,-46.1 132.19,-46.1"/>
</g>
<!-- bmad -->
<g id="node28" class="node">
<title>bmad</title>
<g id="a_node28"><a xlink:href="https://github.com/conda-forge/bmad-feedstock" xlink:title="bmad">
<ellipse fill="#35b779" stroke="black" cx="128.69" cy="-134" rx="36.5" ry="18"/>
<text text-anchor="middle" x="128.69" y="-130.3" font-family="Times,serif" font-size="14.00">bmad</text>
</a>
</g>
</g>
<!-- manimpango&#45;&gt;bmad -->
</g>
</svg>
