<?xml version="1.0" encoding="UTF-8" standalone="no"?>
<!DOCTYPE svg PUBLIC "-//W3C//DTD SVG 1.1//EN"
 "http://www.w3.org/Graphics/SVG/1.1/DTD/svg11.dtd">
<!-- Generated by graphviz version 2.50.0 (20211209.0339)
 -->
<!-- Pages: 1 -->
<svg width="1321pt" height="880pt"
 viewBox="0.00 0.00 1321.19 880.00" xmlns="http://www.w3.org/2000/svg" xmlns:xlink="http://www.w3.org/1999/xlink">
<g id="graph0" class="graph" transform="scale(1 1) rotate(0) translate(4 876)">
<polygon fill="white" stroke="transparent" points="-4,4 -4,-876 1317.19,-876 1317.19,4 -4,4"/>
<!-- gnuplot -->
<g id="node1" class="node">
<title>gnuplot</title>
<g id="a_node1"><a xlink:href="https://github.com/conda-forge/gnuplot-feedstock" xlink:title="gnuplot">
<ellipse fill="#fde725" stroke="black" cx="742.19" cy="-530" rx="46.29" ry="18"/>
<text text-anchor="middle" x="742.19" y="-526.3" font-family="Times,serif" font-size="14.00">gnuplot</text>
</a>
</g>
</g>
<!-- graphviz -->
<g id="node2" class="node">
<title>graphviz</title>
<g id="a_node2"><a xlink:href="https://github.com/conda-forge/graphviz-feedstock" xlink:title="graphviz">
<ellipse fill="#fde725" stroke="black" cx="361.19" cy="-530" rx="51.5" ry="18"/>
<text text-anchor="middle" x="361.19" y="-526.3" font-family="Times,serif" font-size="14.00">graphviz</text>
</a>
</g>
</g>
<!-- imagemagick -->
<g id="node3" class="node">
<title>imagemagick</title>
<g id="a_node3"><a xlink:href="https://github.com/conda-forge/imagemagick-feedstock" xlink:title="imagemagick">
<ellipse fill="#fde725" stroke="black" cx="343.19" cy="-458" rx="72.29" ry="18"/>
<text text-anchor="middle" x="343.19" y="-454.3" font-family="Times,serif" font-size="14.00">imagemagick</text>
</a>
</g>
</g>
<!-- graphviz&#45;&gt;imagemagick -->
<g id="edge1" class="edge">
<title>graphviz&#45;&gt;imagemagick</title>
<path fill="none" stroke="black" d="M356.83,-512.05C354.83,-504.26 352.4,-494.82 350.15,-486.08"/>
<polygon fill="black" stroke="black" points="353.51,-485.09 347.63,-476.28 346.73,-486.83 353.51,-485.09"/>
</g>
<!-- libvips -->
<g id="node4" class="node">
<title>libvips</title>
<g id="a_node4"><a xlink:href="https://github.com/conda-forge/libvips-feedstock" xlink:title="libvips">
<ellipse fill="#fde725" stroke="black" cx="293.19" cy="-386" rx="41.69" ry="18"/>
<text text-anchor="middle" x="293.19" y="-382.3" font-family="Times,serif" font-size="14.00">libvips</text>
</a>
</g>
</g>
<!-- imagemagick&#45;&gt;libvips -->
<g id="edge2" class="edge">
<title>imagemagick&#45;&gt;libvips</title>
<path fill="none" stroke="black" d="M331.09,-440.05C324.98,-431.5 317.46,-420.97 310.73,-411.56"/>
<polygon fill="black" stroke="black" points="313.5,-409.41 304.84,-403.31 307.8,-413.48 313.5,-409.41"/>
</g>
<!-- librsvg -->
<g id="node5" class="node">
<title>librsvg</title>
<g id="a_node5"><a xlink:href="https://github.com/conda-forge/librsvg-feedstock/pull/86" xlink:title="librsvg ❎">
<ellipse fill="#31688e" stroke="black" cx="321.19" cy="-602" rx="57.39" ry="18"/>
<text text-anchor="middle" x="321.19" y="-598.3" font-family="Times,serif" font-size="14.00" fill="white">librsvg ❎</text>
</a>
</g>
</g>
<!-- librsvg&#45;&gt;graphviz -->
<g id="edge3" class="edge">
<title>librsvg&#45;&gt;graphviz</title>
<path fill="none" stroke="black" d="M330.87,-584.05C335.59,-575.8 341.36,-565.7 346.6,-556.54"/>
<polygon fill="black" stroke="black" points="349.67,-558.21 351.6,-547.79 343.6,-554.73 349.67,-558.21"/>
</g>
<!-- librsvg&#45;&gt;imagemagick -->
<g id="edge4" class="edge">
<title>librsvg&#45;&gt;imagemagick</title>
<path fill="none" stroke="black" d="M311.46,-583.95C302.42,-565.8 291.54,-536.39 300.19,-512 303.91,-501.51 310.69,-491.58 317.79,-483.21"/>
<polygon fill="black" stroke="black" points="320.48,-485.46 324.6,-475.7 315.29,-480.75 320.48,-485.46"/>
</g>
<!-- librsvg&#45;&gt;libvips -->
<g id="edge5" class="edge">
<title>librsvg&#45;&gt;libvips</title>
<path fill="none" stroke="black" d="M310,-584.13C295.41,-560.94 270.72,-517.37 262.19,-476 258.96,-460.33 258,-455.44 262.19,-440 264.81,-430.33 269.69,-420.61 274.81,-412.19"/>
<polygon fill="black" stroke="black" points="277.86,-413.92 280.37,-403.62 271.99,-410.11 277.86,-413.92"/>
</g>
<!-- gnome&#45;themes&#45;standard -->
<g id="node6" class="node">
<title>gnome&#45;themes&#45;standard</title>
<g id="a_node6"><a xlink:href="https://github.com/conda-forge/gnome-themes-standard-feedstock" xlink:title="gnome themes standard">
<ellipse fill="#fde725" stroke="black" cx="554.19" cy="-530" rx="123.5" ry="18"/>
<text text-anchor="middle" x="554.19" y="-526.3" font-family="Times,serif" font-size="14.00">gnome themes standard</text>
</a>
</g>
</g>
<!-- librsvg&#45;&gt;gnome&#45;themes&#45;standard -->
<g id="edge6" class="edge">
<title>librsvg&#45;&gt;gnome&#45;themes&#45;standard</title>
<path fill="none" stroke="black" d="M360.98,-589.05C397.2,-578.16 451.22,-561.93 492.95,-549.4"/>
<polygon fill="black" stroke="black" points="494.16,-552.69 502.73,-546.46 492.14,-545.99 494.16,-552.69"/>
</g>
<!-- magics -->
<g id="node7" class="node">
<title>magics</title>
<g id="a_node7"><a xlink:href="https://github.com/conda-forge/magics-feedstock" xlink:title="magics">
<ellipse fill="#35b779" stroke="black" cx="122.19" cy="-854" rx="43.59" ry="18"/>
<text text-anchor="middle" x="122.19" y="-850.3" font-family="Times,serif" font-size="14.00">magics</text>
</a>
</g>
</g>
<!-- pyferret -->
<g id="node8" class="node">
<title>pyferret</title>
<g id="a_node8"><a xlink:href="https://github.com/conda-forge/pyferret-feedstock" xlink:title="pyferret">
<ellipse fill="#35b779" stroke="black" cx="122.19" cy="-782" rx="48.99" ry="18"/>
<text text-anchor="middle" x="122.19" y="-778.3" font-family="Times,serif" font-size="14.00">pyferret</text>
</a>
</g>
</g>
<!-- magics&#45;&gt;pyferret -->
<!-- r&#45;base -->
<g id="node9" class="node">
<title>r&#45;base</title>
<g id="a_node9"><a xlink:href="https://github.com/conda-forge/r-base-feedstock/pull/197" xlink:title="r base ✓">
<ellipse fill="#31688e" stroke="black" cx="122.19" cy="-710" rx="47" ry="18"/>
<text text-anchor="middle" x="122.19" y="-706.3" font-family="Times,serif" font-size="14.00" fill="white">r base ✓</text>
</a>
</g>
</g>
<!-- pyferret&#45;&gt;r&#45;base -->
<!-- vega&#45;cli -->
<g id="node10" class="node">
<title>vega&#45;cli</title>
<g id="a_node10"><a xlink:href="https://github.com/conda-forge/vega-cli-feedstock" xlink:title="vega cli">
<ellipse fill="#ff8c00" stroke="black" cx="122.19" cy="-638" rx="46.29" ry="18"/>
<text text-anchor="middle" x="122.19" y="-634.3" font-family="Times,serif" font-size="14.00">vega cli</text>
</a>
</g>
</g>
<!-- r&#45;base&#45;&gt;vega&#45;cli -->
<!-- magics&#45;metview -->
<g id="node14" class="node">
<title>magics&#45;metview</title>
<g id="a_node14"><a xlink:href="https://github.com/conda-forge/magics-metview-feedstock" xlink:title="magics metview">
<ellipse fill="#35b779" stroke="black" cx="122.19" cy="-566" rx="86" ry="18"/>
<text text-anchor="middle" x="122.19" y="-562.3" font-family="Times,serif" font-size="14.00">magics metview</text>
</a>
</g>
</g>
<!-- vega&#45;cli&#45;&gt;magics&#45;metview -->
<!-- wxpython -->
<g id="node11" class="node">
<title>wxpython</title>
<g id="a_node11"><a xlink:href="https://github.com/conda-forge/wxpython-feedstock" xlink:title="wxpython">
<ellipse fill="#fde725" stroke="black" cx="816.19" cy="-458" rx="56" ry="18"/>
<text text-anchor="middle" x="816.19" y="-454.3" font-family="Times,serif" font-size="14.00">wxpython</text>
</a>
</g>
</g>
<!-- gtk2 -->
<g id="node12" class="node">
<title>gtk2</title>
<g id="a_node12"><a xlink:href="https://github.com/conda-forge/gtk2-feedstock/pull/23" xlink:title="gtk2 ❎">
<ellipse fill="#31688e" stroke="black" cx="742.19" cy="-602" rx="46.29" ry="18"/>
<text text-anchor="middle" x="742.19" y="-598.3" font-family="Times,serif" font-size="14.00" fill="white">gtk2 ❎</text>
</a>
</g>
</g>
<!-- gtk2&#45;&gt;gnuplot -->
<g id="edge10" class="edge">
<title>gtk2&#45;&gt;gnuplot</title>
<path fill="none" stroke="black" d="M742.19,-583.7C742.19,-575.98 742.19,-566.71 742.19,-558.11"/>
<polygon fill="black" stroke="black" points="745.69,-558.1 742.19,-548.1 738.69,-558.1 745.69,-558.1"/>
</g>
<!-- gtk2&#45;&gt;graphviz -->
<g id="edge11" class="edge">
<title>gtk2&#45;&gt;graphviz</title>
<path fill="none" stroke="black" d="M699.06,-595.45C637.16,-587.13 519.72,-570.02 421.19,-548 417.09,-547.08 412.85,-546.05 408.61,-544.97"/>
<polygon fill="black" stroke="black" points="409.36,-541.54 398.79,-542.35 407.56,-548.31 409.36,-541.54"/>
</g>
<!-- gtk2&#45;&gt;gnome&#45;themes&#45;standard -->
<g id="edge12" class="edge">
<title>gtk2&#45;&gt;gnome&#45;themes&#45;standard</title>
<path fill="none" stroke="black" d="M709.87,-588.97C681.49,-578.4 639.68,-562.83 606.54,-550.49"/>
<polygon fill="black" stroke="black" points="607.59,-547.15 597,-546.94 605.15,-553.71 607.59,-547.15"/>
</g>
<!-- gtk2&#45;&gt;wxpython -->
<g id="edge13" class="edge">
<title>gtk2&#45;&gt;wxpython</title>
<path fill="none" stroke="black" d="M763.23,-585.85C774.98,-576.29 788.88,-562.95 797.19,-548 807.77,-528.95 812.47,-504.59 814.55,-486.18"/>
<polygon fill="black" stroke="black" points="818.04,-486.39 815.49,-476.1 811.07,-485.73 818.04,-486.39"/>
</g>
<!-- javafx&#45;sdk -->
<g id="node13" class="node">
<title>javafx&#45;sdk</title>
<g id="a_node13"><a xlink:href="https://github.com/conda-forge/javafx-sdk-feedstock" xlink:title="javafx sdk">
<ellipse fill="#fde725" stroke="black" cx="900.19" cy="-386" rx="58" ry="18"/>
<text text-anchor="middle" x="900.19" y="-382.3" font-family="Times,serif" font-size="14.00">javafx sdk</text>
</a>
</g>
</g>
<!-- gtk2&#45;&gt;javafx&#45;sdk -->
<g id="edge14" class="edge">
<title>gtk2&#45;&gt;javafx&#45;sdk</title>
<path fill="none" stroke="black" d="M767.21,-586.8C799.81,-566.77 855.67,-526.92 881.19,-476 890.89,-456.64 895.65,-432.49 897.98,-414.23"/>
<polygon fill="black" stroke="black" points="901.46,-414.57 899.09,-404.25 894.51,-413.8 901.46,-414.57"/>
</g>
<!-- magics&#45;metview&#45;batch -->
<g id="node15" class="node">
<title>magics&#45;metview&#45;batch</title>
<g id="a_node15"><a xlink:href="https://github.com/conda-forge/magics-metview-batch-feedstock/pull/42" xlink:title="magics metview batch ✓">
<ellipse fill="#31688e" stroke="black" cx="122.19" cy="-494" rx="122.38" ry="18"/>
<text text-anchor="middle" x="122.19" y="-490.3" font-family="Times,serif" font-size="14.00" fill="white">magics metview batch ✓</text>
</a>
</g>
</g>
<!-- magics&#45;metview&#45;&gt;magics&#45;metview&#45;batch -->
<!-- rrdtool -->
<g id="node16" class="node">
<title>rrdtool</title>
<g id="a_node16"><a xlink:href="https://github.com/conda-forge/rrdtool-feedstock" xlink:title="rrdtool">
<ellipse fill="#35b779" stroke="black" cx="122.19" cy="-422" rx="43" ry="18"/>
<text text-anchor="middle" x="122.19" y="-418.3" font-family="Times,serif" font-size="14.00">rrdtool</text>
</a>
</g>
</g>
<!-- magics&#45;metview&#45;batch&#45;&gt;rrdtool -->
<!-- duc -->
<g id="node23" class="node">
<title>duc</title>
<g id="a_node23"><a xlink:href="https://github.com/conda-forge/duc-feedstock" xlink:title="duc">
<ellipse fill="#35b779" stroke="black" cx="122.19" cy="-350" rx="27.5" ry="18"/>
<text text-anchor="middle" x="122.19" y="-346.3" font-family="Times,serif" font-size="14.00">duc</text>
</a>
</g>
</g>
<!-- rrdtool&#45;&gt;duc -->
<!-- gtk3 -->
<g id="node17" class="node">
<title>gtk3</title>
<g id="a_node17"><a xlink:href="https://github.com/conda-forge/gtk3-feedstock/pull/45" xlink:title="gtk3 ✓">
<ellipse fill="#31688e" stroke="black" cx="1165.19" cy="-566" rx="39" ry="18"/>
<text text-anchor="middle" x="1165.19" y="-562.3" font-family="Times,serif" font-size="14.00" fill="white">gtk3 ✓</text>
</a>
</g>
</g>
<!-- gtkmm -->
<g id="node18" class="node">
<title>gtkmm</title>
<g id="a_node18"><a xlink:href="https://github.com/conda-forge/gtkmm-feedstock" xlink:title="gtkmm">
<ellipse fill="#fde725" stroke="black" cx="1040.19" cy="-494" rx="43.59" ry="18"/>
<text text-anchor="middle" x="1040.19" y="-490.3" font-family="Times,serif" font-size="14.00">gtkmm</text>
</a>
</g>
</g>
<!-- gtk3&#45;&gt;gtkmm -->
<g id="edge18" class="edge">
<title>gtk3&#45;&gt;gtkmm</title>
<path fill="none" stroke="black" d="M1141.38,-551.67C1122.29,-540.98 1095.26,-525.84 1073.94,-513.9"/>
<polygon fill="black" stroke="black" points="1075.63,-510.83 1065.19,-509 1072.21,-516.94 1075.63,-510.83"/>
</g>
<!-- wxwidgets -->
<g id="node19" class="node">
<title>wxwidgets</title>
<g id="a_node19"><a xlink:href="https://github.com/conda-forge/wxwidgets-feedstock" xlink:title="wxwidgets">
<ellipse fill="#fde725" stroke="black" cx="1163.19" cy="-494" rx="60.5" ry="18"/>
<text text-anchor="middle" x="1163.19" y="-490.3" font-family="Times,serif" font-size="14.00">wxwidgets</text>
</a>
</g>
</g>
<!-- gtk3&#45;&gt;wxwidgets -->
<g id="edge19" class="edge">
<title>gtk3&#45;&gt;wxwidgets</title>
<path fill="none" stroke="black" d="M1164.69,-547.7C1164.47,-539.98 1164.21,-530.71 1163.96,-522.11"/>
<polygon fill="black" stroke="black" points="1167.46,-522 1163.68,-512.1 1160.46,-522.2 1167.46,-522"/>
</g>
<!-- libdazzle -->
<g id="node20" class="node">
<title>libdazzle</title>
<g id="a_node20"><a xlink:href="https://github.com/conda-forge/libdazzle-feedstock" xlink:title="libdazzle">
<ellipse fill="#fde725" stroke="black" cx="1261.19" cy="-422" rx="52" ry="18"/>
<text text-anchor="middle" x="1261.19" y="-418.3" font-family="Times,serif" font-size="14.00">libdazzle</text>
</a>
</g>
</g>
<!-- gtk3&#45;&gt;libdazzle -->
<g id="edge20" class="edge">
<title>gtk3&#45;&gt;libdazzle</title>
<path fill="none" stroke="black" d="M1189.01,-551.59C1203.66,-542.23 1221.75,-528.48 1233.19,-512 1246.07,-493.45 1253.22,-468.71 1257.07,-450.02"/>
<polygon fill="black" stroke="black" points="1260.53,-450.55 1258.93,-440.08 1253.65,-449.26 1260.53,-450.55"/>
</g>
<!-- hugin -->
<g id="node21" class="node">
<title>hugin</title>
<g id="a_node21"><a xlink:href="https://github.com/conda-forge/hugin-feedstock" xlink:title="hugin">
<ellipse fill="#fde725" stroke="black" cx="1154.19" cy="-422" rx="37.09" ry="18"/>
<text text-anchor="middle" x="1154.19" y="-418.3" font-family="Times,serif" font-size="14.00">hugin</text>
</a>
</g>
</g>
<!-- wxwidgets&#45;&gt;hugin -->
<g id="edge21" class="edge">
<title>wxwidgets&#45;&gt;hugin</title>
<path fill="none" stroke="black" d="M1160.96,-475.7C1159.97,-467.98 1158.78,-458.71 1157.68,-450.11"/>
<polygon fill="black" stroke="black" points="1161.14,-449.58 1156.39,-440.1 1154.19,-450.47 1161.14,-449.58"/>
</g>
<!-- pangomm -->
<g id="node22" class="node">
<title>pangomm</title>
<g id="a_node22"><a xlink:href="https://github.com/conda-forge/pangomm-feedstock/pull/6" xlink:title="pangomm ❎">
<ellipse fill="#31688e" stroke="black" cx="1037.19" cy="-566" rx="71" ry="18"/>
<text text-anchor="middle" x="1037.19" y="-562.3" font-family="Times,serif" font-size="14.00" fill="white">pangomm ❎</text>
</a>
</g>
</g>
<!-- pangomm&#45;&gt;gtkmm -->
<g id="edge22" class="edge">
<title>pangomm&#45;&gt;gtkmm</title>
<path fill="none" stroke="black" d="M1037.93,-547.7C1038.26,-539.98 1038.66,-530.71 1039.03,-522.11"/>
<polygon fill="black" stroke="black" points="1042.52,-522.25 1039.46,-512.1 1035.53,-521.95 1042.52,-522.25"/>
</g>
<!-- gtk4 -->
<g id="node24" class="node">
<title>gtk4</title>
<g id="a_node24"><a xlink:href="https://github.com/conda-forge/gtk4-feedstock" xlink:title="gtk4">
<ellipse fill="#35b779" stroke="black" cx="122.19" cy="-278" rx="32" ry="18"/>
<text text-anchor="middle" x="122.19" y="-274.3" font-family="Times,serif" font-size="14.00">gtk4</text>
</a>
</g>
</g>
<!-- duc&#45;&gt;gtk4 -->
<!-- manimpango -->
<g id="node27" class="node">
<title>manimpango</title>
<g id="a_node27"><a xlink:href="https://github.com/conda-forge/manimpango-feedstock" xlink:title="manimpango">
<ellipse fill="#35b779" stroke="black" cx="122.19" cy="-206" rx="71" ry="18"/>
<text text-anchor="middle" x="122.19" y="-202.3" font-family="Times,serif" font-size="14.00">manimpango</text>
</a>
</g>
</g>
<!-- gtk4&#45;&gt;manimpango -->
<!-- vscode&#45;jupyter -->
<g id="node25" class="node">
<title>vscode&#45;jupyter</title>
<g id="a_node25"><a xlink:href="https://github.com/conda-forge/vscode-jupyter-feedstock" xlink:title="vscode jupyter">
<ellipse fill="#ff8c00" stroke="black" cx="122.19" cy="-90" rx="79.5" ry="18"/>
<text text-anchor="middle" x="122.19" y="-86.3" font-family="Times,serif" font-size="14.00">vscode jupyter</text>
</a>
</g>
</g>
<!-- vscode&#45;python -->
<g id="node26" class="node">
<title>vscode&#45;python</title>
<g id="a_node26"><a xlink:href="https://github.com/conda-forge/vscode-python-feedstock" xlink:title="vscode python">
<ellipse fill="#fde725" stroke="black" cx="122.19" cy="-18" rx="77.5" ry="18"/>
<text text-anchor="middle" x="122.19" y="-14.3" font-family="Times,serif" font-size="14.00">vscode python</text>
</a>
</g>
</g>
<!-- vscode&#45;jupyter&#45;&gt;vscode&#45;python -->
<g id="edge25" class="edge">
<title>vscode&#45;jupyter&#45;&gt;vscode&#45;python</title>
<path fill="none" stroke="black" d="M122.19,-71.7C122.19,-63.98 122.19,-54.71 122.19,-46.11"/>
<polygon fill="black" stroke="black" points="125.69,-46.1 122.19,-36.1 118.69,-46.1 125.69,-46.1"/>
</g>
<!-- bmad -->
<g id="node28" class="node">
<title>bmad</title>
<g id="a_node28"><a xlink:href="https://github.com/conda-forge/bmad-feedstock" xlink:title="bmad">
<ellipse fill="#35b779" stroke="black" cx="122.19" cy="-134" rx="36.5" ry="18"/>
<text text-anchor="middle" x="122.19" y="-130.3" font-family="Times,serif" font-size="14.00">bmad</text>
</a>
</g>
</g>
<!-- manimpango&#45;&gt;bmad -->
</g>
</svg>
