<?xml version="1.0" encoding="UTF-8" standalone="no"?>
<!DOCTYPE svg PUBLIC "-//W3C//DTD SVG 1.1//EN"
 "http://www.w3.org/Graphics/SVG/1.1/DTD/svg11.dtd">
<!-- Generated by graphviz version 2.47.0 (20210316.1410)
 -->
<!-- Pages: 1 -->
<svg width="723pt" height="476pt"
 viewBox="0.00 0.00 723.04 476.00" xmlns="http://www.w3.org/2000/svg" xmlns:xlink="http://www.w3.org/1999/xlink">
<g id="graph0" class="graph" transform="scale(1 1) rotate(0) translate(4 472)">
<polygon fill="white" stroke="transparent" points="-4,4 -4,-472 719.04,-472 719.04,4 -4,4"/>
<!-- graphviz -->
<g id="node1" class="node">
<title>graphviz</title>
<g id="a_node1"><a xlink:href="https://github.com/conda-forge/graphviz-feedstock" xlink:title="graphviz">
<ellipse fill="#fde725" stroke="black" cx="322.04" cy="-270" rx="50.89" ry="18"/>
<text text-anchor="middle" x="322.04" y="-266.3" font-family="Times-Roman" font-size="14.00">graphviz</text>
</a>
</g>
</g>
<!-- imagemagick -->
<g id="node2" class="node">
<title>imagemagick</title>
<g id="a_node2"><a xlink:href="https://github.com/conda-forge/imagemagick-feedstock" xlink:title="imagemagick">
<ellipse fill="#fde725" stroke="black" cx="337.04" cy="-198" rx="73.5" ry="18"/>
<text text-anchor="middle" x="337.04" y="-194.3" font-family="Times-Roman" font-size="14.00">imagemagick</text>
</a>
</g>
</g>
<!-- graphviz&#45;&gt;imagemagick -->
<g id="edge1" class="edge">
<title>graphviz&#45;&gt;imagemagick</title>
<path fill="none" stroke="black" d="M325.75,-251.7C327.4,-243.98 329.39,-234.71 331.23,-226.11"/>
<polygon fill="black" stroke="black" points="334.7,-226.62 333.37,-216.1 327.86,-225.15 334.7,-226.62"/>
</g>
<!-- libvips -->
<g id="node3" class="node">
<title>libvips</title>
<g id="a_node3"><a xlink:href="https://github.com/conda-forge/libvips-feedstock" xlink:title="libvips">
<ellipse fill="#fde725" stroke="black" cx="388.04" cy="-126" rx="40.5" ry="18"/>
<text text-anchor="middle" x="388.04" y="-122.3" font-family="Times-Roman" font-size="14.00">libvips</text>
</a>
</g>
</g>
<!-- imagemagick&#45;&gt;libvips -->
<g id="edge2" class="edge">
<title>imagemagick&#45;&gt;libvips</title>
<path fill="none" stroke="black" d="M349.38,-180.05C355.61,-171.5 363.29,-160.97 370.15,-151.56"/>
<polygon fill="black" stroke="black" points="373.1,-153.45 376.16,-143.31 367.44,-149.33 373.1,-153.45"/>
</g>
<!-- librsvg -->
<g id="node4" class="node">
<title>librsvg</title>
<g id="a_node4"><a xlink:href="https://github.com/conda-forge/librsvg-feedstock/pull/69" xlink:title="librsvg ❎">
<ellipse fill="#31688e" stroke="black" cx="401.04" cy="-342" rx="54" ry="18"/>
<text text-anchor="middle" x="401.04" y="-338.3" font-family="Times-Roman" font-size="14.00" fill="white">librsvg ❎</text>
</a>
</g>
</g>
<!-- librsvg&#45;&gt;graphviz -->
<g id="edge3" class="edge">
<title>librsvg&#45;&gt;graphviz</title>
<path fill="none" stroke="black" d="M382.72,-324.76C372.27,-315.51 359.02,-303.77 347.57,-293.63"/>
<polygon fill="black" stroke="black" points="349.8,-290.92 339.99,-286.91 345.15,-296.16 349.8,-290.92"/>
</g>
<!-- librsvg&#45;&gt;imagemagick -->
<g id="edge4" class="edge">
<title>librsvg&#45;&gt;imagemagick</title>
<path fill="none" stroke="black" d="M399.87,-323.79C398.06,-305.24 393.48,-275.25 382.04,-252 376.9,-241.55 369.24,-231.45 361.7,-222.92"/>
<polygon fill="black" stroke="black" points="364.24,-220.52 354.87,-215.56 359.11,-225.28 364.24,-220.52"/>
</g>
<!-- librsvg&#45;&gt;libvips -->
<g id="edge5" class="edge">
<title>librsvg&#45;&gt;libvips</title>
<path fill="none" stroke="black" d="M407.1,-323.76C416.68,-293.94 432.87,-231.04 419.04,-180 416.38,-170.18 411.39,-160.31 406.18,-151.8"/>
<polygon fill="black" stroke="black" points="408.94,-149.62 400.54,-143.16 403.08,-153.45 408.94,-149.62"/>
</g>
<!-- magics -->
<g id="node5" class="node">
<title>magics</title>
<g id="a_node5"><a xlink:href="https://github.com/conda-forge/magics-feedstock/pull/90" xlink:title="magics ❎">
<ellipse fill="#31688e" stroke="black" cx="128.04" cy="-450" rx="56" ry="18"/>
<text text-anchor="middle" x="128.04" y="-446.3" font-family="Times-Roman" font-size="14.00" fill="white">magics ❎</text>
</a>
</g>
</g>
<!-- pyferret -->
<g id="node6" class="node">
<title>pyferret</title>
<g id="a_node6"><a xlink:href="https://github.com/conda-forge/pyferret-feedstock/pull/74" xlink:title="pyferret ❎">
<ellipse fill="#31688e" stroke="black" cx="128.04" cy="-378" rx="60.5" ry="18"/>
<text text-anchor="middle" x="128.04" y="-374.3" font-family="Times-Roman" font-size="14.00" fill="white">pyferret ❎</text>
</a>
</g>
</g>
<!-- magics&#45;&gt;pyferret -->
<!-- r&#45;base -->
<g id="node7" class="node">
<title>r&#45;base</title>
<g id="a_node7"><a xlink:href="https://github.com/conda-forge/r-base-feedstock/pull/164" xlink:title="r base ✓">
<ellipse fill="#31688e" stroke="black" cx="128.04" cy="-306" rx="50.89" ry="18"/>
<text text-anchor="middle" x="128.04" y="-302.3" font-family="Times-Roman" font-size="14.00" fill="white">r base ✓</text>
</a>
</g>
</g>
<!-- pyferret&#45;&gt;r&#45;base -->
<!-- javafx&#45;sdk -->
<g id="node8" class="node">
<title>javafx&#45;sdk</title>
<g id="a_node8"><a xlink:href="https://github.com/conda-forge/javafx-sdk-feedstock/pull/3" xlink:title="javafx sdk ❎">
<ellipse fill="#31688e" stroke="black" cx="128.04" cy="-234" rx="70.39" ry="18"/>
<text text-anchor="middle" x="128.04" y="-230.3" font-family="Times-Roman" font-size="14.00" fill="white">javafx sdk ❎</text>
</a>
</g>
</g>
<!-- r&#45;base&#45;&gt;javafx&#45;sdk -->
<!-- magics&#45;metview -->
<g id="node9" class="node">
<title>magics&#45;metview</title>
<g id="a_node9"><a xlink:href="https://github.com/conda-forge/magics-metview-feedstock/pull/32" xlink:title="magics metview ❎">
<ellipse fill="#31688e" stroke="black" cx="128.04" cy="-162" rx="99" ry="18"/>
<text text-anchor="middle" x="128.04" y="-158.3" font-family="Times-Roman" font-size="14.00" fill="white">magics metview ❎</text>
</a>
</g>
</g>
<!-- javafx&#45;sdk&#45;&gt;magics&#45;metview -->
<!-- magics&#45;metview&#45;batch -->
<g id="node10" class="node">
<title>magics&#45;metview&#45;batch</title>
<g id="a_node10"><a xlink:href="https://github.com/conda-forge/magics-metview-batch-feedstock/pull/24" xlink:title="magics metview batch ❎">
<ellipse fill="#31688e" stroke="black" cx="128.04" cy="-90" rx="128.08" ry="18"/>
<text text-anchor="middle" x="128.04" y="-86.3" font-family="Times-Roman" font-size="14.00" fill="white">magics metview batch ❎</text>
</a>
</g>
</g>
<!-- magics&#45;metview&#45;&gt;magics&#45;metview&#45;batch -->
<!-- duc -->
<g id="node11" class="node">
<title>duc</title>
<g id="a_node11"><a xlink:href="https://github.com/conda-forge/duc-feedstock/pull/2" xlink:title="duc ✓">
<ellipse fill="#31688e" stroke="black" cx="128.04" cy="-18" rx="38.5" ry="18"/>
<text text-anchor="middle" x="128.04" y="-14.3" font-family="Times-Roman" font-size="14.00" fill="white">duc ✓</text>
</a>
</g>
</g>
<!-- magics&#45;metview&#45;batch&#45;&gt;duc -->
<!-- gtk3 -->
<g id="node12" class="node">
<title>gtk3</title>
<g id="a_node12"><a xlink:href="https://github.com/conda-forge/gtk3-feedstock" xlink:title="gtk3">
<ellipse fill="#ff8c00" stroke="black" cx="653.04" cy="-306" rx="31.4" ry="18"/>
<text text-anchor="middle" x="653.04" y="-302.3" font-family="Times-Roman" font-size="14.00">gtk3</text>
</a>
</g>
</g>
<!-- gtkmm -->
<g id="node13" class="node">
<title>gtkmm</title>
<g id="a_node13"><a xlink:href="https://github.com/conda-forge/gtkmm-feedstock" xlink:title="gtkmm">
<ellipse fill="#fde725" stroke="black" cx="533.04" cy="-234" rx="44.39" ry="18"/>
<text text-anchor="middle" x="533.04" y="-230.3" font-family="Times-Roman" font-size="14.00">gtkmm</text>
</a>
</g>
</g>
<!-- gtk3&#45;&gt;gtkmm -->
<g id="edge12" class="edge">
<title>gtk3&#45;&gt;gtkmm</title>
<path fill="none" stroke="black" d="M631.86,-292.65C613.69,-282.05 587.2,-266.59 566.22,-254.35"/>
<polygon fill="black" stroke="black" points="567.71,-251.17 557.31,-249.16 564.18,-257.22 567.71,-251.17"/>
</g>
<!-- wxwidgets -->
<g id="node14" class="node">
<title>wxwidgets</title>
<g id="a_node14"><a xlink:href="https://github.com/conda-forge/wxwidgets-feedstock" xlink:title="wxwidgets">
<ellipse fill="#fde725" stroke="black" cx="655.04" cy="-234" rx="60" ry="18"/>
<text text-anchor="middle" x="655.04" y="-230.3" font-family="Times-Roman" font-size="14.00">wxwidgets</text>
</a>
</g>
</g>
<!-- gtk3&#45;&gt;wxwidgets -->
<g id="edge13" class="edge">
<title>gtk3&#45;&gt;wxwidgets</title>
<path fill="none" stroke="black" d="M653.53,-287.7C653.75,-279.98 654.02,-270.71 654.26,-262.11"/>
<polygon fill="black" stroke="black" points="657.76,-262.2 654.55,-252.1 650.77,-262 657.76,-262.2"/>
</g>
<!-- hugin -->
<g id="node15" class="node">
<title>hugin</title>
<g id="a_node15"><a xlink:href="https://github.com/conda-forge/hugin-feedstock" xlink:title="hugin">
<ellipse fill="#fde725" stroke="black" cx="655.04" cy="-162" rx="36.5" ry="18"/>
<text text-anchor="middle" x="655.04" y="-158.3" font-family="Times-Roman" font-size="14.00">hugin</text>
</a>
</g>
</g>
<!-- wxwidgets&#45;&gt;hugin -->
<g id="edge14" class="edge">
<title>wxwidgets&#45;&gt;hugin</title>
<path fill="none" stroke="black" d="M655.04,-215.7C655.04,-207.98 655.04,-198.71 655.04,-190.11"/>
<polygon fill="black" stroke="black" points="658.54,-190.1 655.04,-180.1 651.54,-190.1 658.54,-190.1"/>
</g>
<!-- pangomm -->
<g id="node16" class="node">
<title>pangomm</title>
<g id="a_node16"><a xlink:href="https://github.com/conda-forge/pangomm-feedstock/pull/3" xlink:title="pangomm ✓">
<ellipse fill="#31688e" stroke="black" cx="533.04" cy="-306" rx="69.59" ry="18"/>
<text text-anchor="middle" x="533.04" y="-302.3" font-family="Times-Roman" font-size="14.00" fill="white">pangomm ✓</text>
</a>
</g>
</g>
<!-- pangomm&#45;&gt;gtkmm -->
<g id="edge15" class="edge">
<title>pangomm&#45;&gt;gtkmm</title>
<path fill="none" stroke="black" d="M533.04,-287.7C533.04,-279.98 533.04,-270.71 533.04,-262.11"/>
<polygon fill="black" stroke="black" points="536.54,-262.1 533.04,-252.1 529.54,-262.1 536.54,-262.1"/>
</g>
</g>
</svg>
