<?xml version="1.0" encoding="UTF-8" standalone="no"?>
<!DOCTYPE svg PUBLIC "-//W3C//DTD SVG 1.1//EN"
 "http://www.w3.org/Graphics/SVG/1.1/DTD/svg11.dtd">
<!-- Generated by graphviz version 2.47.3 (20210619.2315)
 -->
<!-- Pages: 1 -->
<svg width="800pt" height="188pt"
 viewBox="0.00 0.00 800.39 188.00" xmlns="http://www.w3.org/2000/svg" xmlns:xlink="http://www.w3.org/1999/xlink">
<g id="graph0" class="graph" transform="scale(1 1) rotate(0) translate(4 184)">
<polygon fill="white" stroke="transparent" points="-4,4 -4,-184 796.39,-184 796.39,4 -4,4"/>
<!-- cypari2 -->
<g id="node1" class="node">
<title>cypari2</title>
<g id="a_node1"><a xlink:href="https://github.com/conda-forge/cypari2-feedstock" xlink:title="cypari2">
<ellipse fill="#fde725" stroke="black" cx="45.5" cy="-90" rx="45.49" ry="18"/>
<text text-anchor="middle" x="45.5" y="-86.3" font-family="Times,serif" font-size="14.00">cypari2</text>
</a>
</g>
</g>
<!-- sagelib -->
<g id="node7" class="node">
<title>sagelib</title>
<g id="a_node7"><a xlink:href="https://github.com/conda-forge/sagelib-feedstock" xlink:title="sagelib">
<ellipse fill="#fde725" stroke="black" cx="232.5" cy="-18" rx="44.39" ry="18"/>
<text text-anchor="middle" x="232.5" y="-14.3" font-family="Times,serif" font-size="14.00">sagelib</text>
</a>
</g>
</g>
<!-- cypari2&#45;&gt;sagelib -->
<g id="edge1" class="edge">
<title>cypari2&#45;&gt;sagelib</title>
<path fill="none" stroke="black" d="M77.64,-76.97C109.1,-65.19 157.15,-47.2 191.38,-34.39"/>
<polygon fill="black" stroke="black" points="192.94,-37.54 201.08,-30.76 190.49,-30.99 192.94,-37.54"/>
</g>
<!-- cysignals -->
<g id="node2" class="node">
<title>cysignals</title>
<g id="a_node2"><a xlink:href="https://github.com/conda-forge/cysignals-feedstock/pull/33" xlink:title="cysignals ✓">
<ellipse fill="#31688e" stroke="black" cx="81.5" cy="-162" rx="61.19" ry="18"/>
<text text-anchor="middle" x="81.5" y="-158.3" font-family="Times,serif" font-size="14.00" fill="white">cysignals ✓</text>
</a>
</g>
</g>
<!-- cysignals&#45;&gt;cypari2 -->
<g id="edge2" class="edge">
<title>cysignals&#45;&gt;cypari2</title>
<path fill="none" stroke="black" d="M72.78,-144.05C68.58,-135.89 63.45,-125.91 58.78,-116.82"/>
<polygon fill="black" stroke="black" points="61.82,-115.08 54.13,-107.79 55.59,-118.28 61.82,-115.08"/>
</g>
<!-- cysignals&#45;&gt;sagelib -->
<g id="edge3" class="edge">
<title>cysignals&#45;&gt;sagelib</title>
<path fill="none" stroke="black" d="M89.08,-143.82C98.29,-124.46 115.38,-92.98 137.5,-72 153.48,-56.84 174.63,-44.49 192.91,-35.53"/>
<polygon fill="black" stroke="black" points="194.62,-38.6 202.17,-31.17 191.63,-32.27 194.62,-38.6"/>
</g>
<!-- eclib -->
<g id="node3" class="node">
<title>eclib</title>
<g id="a_node3"><a xlink:href="https://github.com/conda-forge/eclib-feedstock/pull/31" xlink:title="eclib ✓">
<ellipse fill="#31688e" stroke="black" cx="186.5" cy="-90" rx="40.09" ry="18"/>
<text text-anchor="middle" x="186.5" y="-86.3" font-family="Times,serif" font-size="14.00" fill="white">eclib ✓</text>
</a>
</g>
</g>
<!-- eclib&#45;&gt;sagelib -->
<g id="edge4" class="edge">
<title>eclib&#45;&gt;sagelib</title>
<path fill="none" stroke="black" d="M197.4,-72.41C202.95,-63.95 209.83,-53.49 216.02,-44.08"/>
<polygon fill="black" stroke="black" points="219.11,-45.75 221.67,-35.47 213.26,-41.9 219.11,-45.75"/>
</g>
<!-- gap -->
<g id="node4" class="node">
<title>gap</title>
<g id="a_node4"><a xlink:href="https://github.com/conda-forge/gap-feedstock/pull/51" xlink:title="gap ✓">
<ellipse fill="#31688e" stroke="black" cx="279.5" cy="-90" rx="35.19" ry="18"/>
<text text-anchor="middle" x="279.5" y="-86.3" font-family="Times,serif" font-size="14.00" fill="white">gap ✓</text>
</a>
</g>
</g>
<!-- gap&#45;&gt;sagelib -->
<g id="edge5" class="edge">
<title>gap&#45;&gt;sagelib</title>
<path fill="none" stroke="black" d="M268.6,-72.76C262.86,-64.23 255.72,-53.58 249.29,-44.02"/>
<polygon fill="black" stroke="black" points="252.14,-41.98 243.66,-35.63 246.33,-45.89 252.14,-41.98"/>
</g>
<!-- giac -->
<g id="node5" class="node">
<title>giac</title>
<g id="a_node5"><a xlink:href="https://github.com/conda-forge/giac-feedstock/pull/26" xlink:title="giac ✓">
<ellipse fill="#31688e" stroke="black" cx="369.5" cy="-90" rx="37.09" ry="18"/>
<text text-anchor="middle" x="369.5" y="-86.3" font-family="Times,serif" font-size="14.00" fill="white">giac ✓</text>
</a>
</g>
</g>
<!-- giac&#45;&gt;sagelib -->
<g id="edge6" class="edge">
<title>giac&#45;&gt;sagelib</title>
<path fill="none" stroke="black" d="M345,-76.49C323.67,-65.58 292.46,-49.64 268.32,-37.3"/>
<polygon fill="black" stroke="black" points="269.61,-34.04 259.12,-32.6 266.43,-40.27 269.61,-34.04"/>
</g>
<!-- lcalc -->
<g id="node6" class="node">
<title>lcalc</title>
<g id="a_node6"><a xlink:href="https://github.com/conda-forge/lcalc-feedstock/pull/11" xlink:title="lcalc ✓">
<ellipse fill="#31688e" stroke="black" cx="463.5" cy="-90" rx="38.99" ry="18"/>
<text text-anchor="middle" x="463.5" y="-86.3" font-family="Times,serif" font-size="14.00" fill="white">lcalc ✓</text>
</a>
</g>
</g>
<!-- lcalc&#45;&gt;sagelib -->
<g id="edge7" class="edge">
<title>lcalc&#45;&gt;sagelib</title>
<path fill="none" stroke="black" d="M433.89,-78.21C427.82,-76.08 421.47,-73.92 415.5,-72 369.16,-57.1 315.62,-41.81 278.47,-31.51"/>
<polygon fill="black" stroke="black" points="279.02,-28.03 268.45,-28.74 277.16,-34.78 279.02,-28.03"/>
</g>
<!-- sympow -->
<g id="node8" class="node">
<title>sympow</title>
<g id="a_node8"><a xlink:href="https://github.com/conda-forge/sympow-feedstock/pull/29" xlink:title="sympow ✓">
<ellipse fill="#31688e" stroke="black" cx="736.5" cy="-90" rx="55.79" ry="18"/>
<text text-anchor="middle" x="736.5" y="-86.3" font-family="Times,serif" font-size="14.00" fill="white">sympow ✓</text>
</a>
</g>
</g>
<!-- pari_jupyter -->
<g id="node9" class="node">
<title>pari_jupyter</title>
<g id="a_node9"><a xlink:href="https://github.com/conda-forge/pari_jupyter-feedstock/pull/8" xlink:title="pari_jupyter ❎">
<ellipse fill="#31688e" stroke="black" cx="591.5" cy="-90" rx="81.49" ry="18"/>
<text text-anchor="middle" x="591.5" y="-86.3" font-family="Times,serif" font-size="14.00" fill="white">pari_jupyter ❎</text>
</a>
</g>
</g>
</g>
</svg>
