<?xml version="1.0" encoding="UTF-8" standalone="no"?>
<!DOCTYPE svg PUBLIC "-//W3C//DTD SVG 1.1//EN"
 "http://www.w3.org/Graphics/SVG/1.1/DTD/svg11.dtd">
<!-- Generated by graphviz version 2.42.3 (20191010.1750)
 -->
<!-- Title: %3 Pages: 1 -->
<svg width="671pt" height="232pt"
 viewBox="0.00 0.00 671.10 232.00" xmlns="http://www.w3.org/2000/svg" xmlns:xlink="http://www.w3.org/1999/xlink">
<g id="graph0" class="graph" transform="scale(1 1) rotate(0) translate(4 228)">
<title>%3</title>
<polygon fill="white" stroke="transparent" points="-4,4 -4,-228 667.1,-228 667.1,4 -4,4"/>
<!-- cartopy -->
<g id="node1" class="node">
<title>cartopy</title>
<g id="a_node1"><a xlink:href="https://github.com/conda-forge/cartopy-feedstock/pull/101" xlink:title="cartopy ❎">
<ellipse fill="#31688e" stroke="black" cx="510" cy="-134" rx="48.99" ry="18"/>
<text text-anchor="middle" x="510" y="-130.3" font-family="Times,serif" font-size="14.00" fill="white">cartopy ❎</text>
</a>
</g>
</g>
<!-- gdal -->
<g id="node2" class="node">
<title>gdal</title>
<g id="a_node2"><a xlink:href="https://github.com/conda-forge/gdal-feedstock" xlink:title="gdal">
<ellipse fill="#fde725" stroke="black" cx="275" cy="-134" rx="27" ry="18"/>
<text text-anchor="middle" x="275" y="-130.3" font-family="Times,serif" font-size="14.00">gdal</text>
</a>
</g>
</g>
<!-- ncl -->
<g id="node5" class="node">
<title>ncl</title>
<g id="a_node5"><a xlink:href="https://github.com/conda-forge/ncl-feedstock" xlink:title="ncl">
<ellipse fill="#fde725" stroke="black" cx="27" cy="-62" rx="27" ry="18"/>
<text text-anchor="middle" x="27" y="-58.3" font-family="Times,serif" font-size="14.00">ncl</text>
</a>
</g>
</g>
<!-- gdal&#45;&gt;ncl -->
<g id="edge1" class="edge">
<title>gdal&#45;&gt;ncl</title>
<path fill="none" stroke="black" d="M249.06,-128.23C208.62,-120.4 128.38,-103.35 63,-80 61.14,-79.34 59.26,-78.61 57.37,-77.84"/>
<polygon fill="black" stroke="black" points="58.59,-74.56 48.03,-73.77 55.8,-80.98 58.59,-74.56"/>
</g>
<!-- postgis -->
<g id="node6" class="node">
<title>postgis</title>
<g id="a_node6"><a xlink:href="https://github.com/conda-forge/postgis-feedstock" xlink:title="postgis">
<ellipse fill="#fde725" stroke="black" cx="108" cy="-62" rx="36" ry="18"/>
<text text-anchor="middle" x="108" y="-58.3" font-family="Times,serif" font-size="14.00">postgis</text>
</a>
</g>
</g>
<!-- gdal&#45;&gt;postgis -->
<g id="edge2" class="edge">
<title>gdal&#45;&gt;postgis</title>
<path fill="none" stroke="black" d="M252.82,-123.7C225.04,-112.06 177.08,-91.96 144.01,-78.09"/>
<polygon fill="black" stroke="black" points="145.26,-74.82 134.69,-74.19 142.56,-81.28 145.26,-74.82"/>
</g>
<!-- pynio -->
<g id="node7" class="node">
<title>pynio</title>
<g id="a_node7"><a xlink:href="https://github.com/conda-forge/pynio-feedstock" xlink:title="pynio">
<ellipse fill="#fde725" stroke="black" cx="192" cy="-62" rx="30.59" ry="18"/>
<text text-anchor="middle" x="192" y="-58.3" font-family="Times,serif" font-size="14.00">pynio</text>
</a>
</g>
</g>
<!-- gdal&#45;&gt;pynio -->
<g id="edge3" class="edge">
<title>gdal&#45;&gt;pynio</title>
<path fill="none" stroke="black" d="M258.6,-119.17C246.71,-109.14 230.41,-95.39 216.91,-84.01"/>
<polygon fill="black" stroke="black" points="218.83,-81.05 208.93,-77.28 214.32,-86.4 218.83,-81.05"/>
</g>
<!-- qgis -->
<g id="node8" class="node">
<title>qgis</title>
<g id="a_node8"><a xlink:href="https://github.com/conda-forge/qgis-feedstock" xlink:title="qgis">
<ellipse fill="#fde725" stroke="black" cx="426" cy="-62" rx="27" ry="18"/>
<text text-anchor="middle" x="426" y="-58.3" font-family="Times,serif" font-size="14.00">qgis</text>
</a>
</g>
</g>
<!-- gdal&#45;&gt;qgis -->
<g id="edge4" class="edge">
<title>gdal&#45;&gt;qgis</title>
<path fill="none" stroke="black" d="M296.65,-123.1C319.78,-112.49 357.53,-95.15 390,-80 391.79,-79.17 393.62,-78.31 395.47,-77.44"/>
<polygon fill="black" stroke="black" points="397.14,-80.53 404.7,-73.1 394.16,-74.19 397.14,-80.53"/>
</g>
<!-- r&#45;rgdal -->
<g id="node9" class="node">
<title>r&#45;rgdal</title>
<g id="a_node9"><a xlink:href="https://github.com/conda-forge/r-rgdal-feedstock" xlink:title="r rgdal">
<ellipse fill="#fde725" stroke="black" cx="275" cy="-62" rx="34.39" ry="18"/>
<text text-anchor="middle" x="275" y="-58.3" font-family="Times,serif" font-size="14.00">r rgdal</text>
</a>
</g>
</g>
<!-- gdal&#45;&gt;r&#45;rgdal -->
<g id="edge5" class="edge">
<title>gdal&#45;&gt;r&#45;rgdal</title>
<path fill="none" stroke="black" d="M275,-115.7C275,-107.98 275,-98.71 275,-90.11"/>
<polygon fill="black" stroke="black" points="278.5,-90.1 275,-80.1 271.5,-90.1 278.5,-90.1"/>
</g>
<!-- r&#45;sf -->
<g id="node10" class="node">
<title>r&#45;sf</title>
<g id="a_node10"><a xlink:href="https://github.com/conda-forge/r-sf-feedstock" xlink:title="r sf">
<ellipse fill="#fde725" stroke="black" cx="354" cy="-62" rx="27" ry="18"/>
<text text-anchor="middle" x="354" y="-58.3" font-family="Times,serif" font-size="14.00">r sf</text>
</a>
</g>
</g>
<!-- gdal&#45;&gt;r&#45;sf -->
<g id="edge6" class="edge">
<title>gdal&#45;&gt;r&#45;sf</title>
<path fill="none" stroke="black" d="M290.61,-119.17C302.08,-109.01 317.85,-95.03 330.79,-83.56"/>
<polygon fill="black" stroke="black" points="333.26,-86.05 338.42,-76.8 328.62,-80.81 333.26,-86.05"/>
</g>
<!-- libspatialite -->
<g id="node3" class="node">
<title>libspatialite</title>
<g id="a_node3"><a xlink:href="https://github.com/conda-forge/libspatialite-feedstock/pull/57" xlink:title="libspatialite ❎">
<ellipse fill="#31688e" stroke="black" cx="302" cy="-206" rx="63.89" ry="18"/>
<text text-anchor="middle" x="302" y="-202.3" font-family="Times,serif" font-size="14.00" fill="white">libspatialite ❎</text>
</a>
</g>
</g>
<!-- libspatialite&#45;&gt;gdal -->
<g id="edge7" class="edge">
<title>libspatialite&#45;&gt;gdal</title>
<path fill="none" stroke="black" d="M295.46,-188.05C292.38,-180.06 288.63,-170.33 285.18,-161.4"/>
<polygon fill="black" stroke="black" points="288.34,-159.86 281.48,-151.79 281.81,-162.38 288.34,-159.86"/>
</g>
<!-- libspatialite&#45;&gt;qgis -->
<g id="edge8" class="edge">
<title>libspatialite&#45;&gt;qgis</title>
<path fill="none" stroke="black" d="M316.47,-188.43C338.56,-163.13 380.79,-114.78 405.86,-86.06"/>
<polygon fill="black" stroke="black" points="408.81,-88 412.75,-78.17 403.54,-83.4 408.81,-88"/>
</g>
<!-- magics -->
<g id="node4" class="node">
<title>magics</title>
<g id="a_node4"><a xlink:href="https://github.com/conda-forge/magics-feedstock/pull/81" xlink:title="magics ❎">
<ellipse fill="#31688e" stroke="black" cx="615" cy="-134" rx="48.19" ry="18"/>
<text text-anchor="middle" x="615" y="-130.3" font-family="Times,serif" font-size="14.00" fill="white">magics ❎</text>
</a>
</g>
</g>
<!-- vtk -->
<g id="node11" class="node">
<title>vtk</title>
<g id="a_node11"><a xlink:href="https://github.com/conda-forge/vtk-feedstock/pull/151" xlink:title="vtk ❎">
<ellipse fill="#31688e" stroke="black" cx="227" cy="-18" rx="33.6" ry="18"/>
<text text-anchor="middle" x="227" y="-14.3" font-family="Times,serif" font-size="14.00" fill="white">vtk ❎</text>
</a>
</g>
</g>
</g>
</svg>
