<?xml version="1.0" encoding="UTF-8" standalone="no"?>
<!DOCTYPE svg PUBLIC "-//W3C//DTD SVG 1.1//EN"
 "http://www.w3.org/Graphics/SVG/1.1/DTD/svg11.dtd">
<!-- Generated by graphviz version 2.42.3 (20191010.1750)
 -->
<!-- Title: %3 Pages: 1 -->
<svg width="537pt" height="188pt"
 viewBox="0.00 0.00 536.80 188.00" xmlns="http://www.w3.org/2000/svg" xmlns:xlink="http://www.w3.org/1999/xlink">
<g id="graph0" class="graph" transform="scale(1 1) rotate(0) translate(4 184)">
<title>%3</title>
<polygon fill="white" stroke="transparent" points="-4,4 -4,-184 532.8,-184 532.8,4 -4,4"/>
<!-- gdal -->
<g id="node1" class="node">
<title>gdal</title>
<g id="a_node1"><a xlink:href="https://github.com/conda-forge/gdal-feedstock" xlink:title="gdal">
<ellipse fill="#fde725" stroke="black" cx="275" cy="-90" rx="27" ry="18"/>
<text text-anchor="middle" x="275" y="-86.3" font-family="Times,serif" font-size="14.00">gdal</text>
</a>
</g>
</g>
<!-- ncl -->
<g id="node3" class="node">
<title>ncl</title>
<g id="a_node3"><a xlink:href="https://github.com/conda-forge/ncl-feedstock" xlink:title="ncl">
<ellipse fill="#fde725" stroke="black" cx="27" cy="-18" rx="27" ry="18"/>
<text text-anchor="middle" x="27" y="-14.3" font-family="Times,serif" font-size="14.00">ncl</text>
</a>
</g>
</g>
<!-- gdal&#45;&gt;ncl -->
<g id="edge1" class="edge">
<title>gdal&#45;&gt;ncl</title>
<path fill="none" stroke="black" d="M249.06,-84.23C208.62,-76.4 128.38,-59.35 63,-36 61.14,-35.34 59.26,-34.61 57.37,-33.84"/>
<polygon fill="black" stroke="black" points="58.59,-30.56 48.03,-29.77 55.8,-36.98 58.59,-30.56"/>
</g>
<!-- postgis -->
<g id="node4" class="node">
<title>postgis</title>
<g id="a_node4"><a xlink:href="https://github.com/conda-forge/postgis-feedstock" xlink:title="postgis">
<ellipse fill="#fde725" stroke="black" cx="108" cy="-18" rx="36" ry="18"/>
<text text-anchor="middle" x="108" y="-14.3" font-family="Times,serif" font-size="14.00">postgis</text>
</a>
</g>
</g>
<!-- gdal&#45;&gt;postgis -->
<g id="edge2" class="edge">
<title>gdal&#45;&gt;postgis</title>
<path fill="none" stroke="black" d="M252.82,-79.7C225.04,-68.06 177.08,-47.96 144.01,-34.09"/>
<polygon fill="black" stroke="black" points="145.26,-30.82 134.69,-30.19 142.56,-37.28 145.26,-30.82"/>
</g>
<!-- pynio -->
<g id="node5" class="node">
<title>pynio</title>
<g id="a_node5"><a xlink:href="https://github.com/conda-forge/pynio-feedstock" xlink:title="pynio">
<ellipse fill="#fde725" stroke="black" cx="192" cy="-18" rx="30.59" ry="18"/>
<text text-anchor="middle" x="192" y="-14.3" font-family="Times,serif" font-size="14.00">pynio</text>
</a>
</g>
</g>
<!-- gdal&#45;&gt;pynio -->
<g id="edge3" class="edge">
<title>gdal&#45;&gt;pynio</title>
<path fill="none" stroke="black" d="M258.6,-75.17C246.71,-65.14 230.41,-51.39 216.91,-40.01"/>
<polygon fill="black" stroke="black" points="218.83,-37.05 208.93,-33.28 214.32,-42.4 218.83,-37.05"/>
</g>
<!-- qgis -->
<g id="node6" class="node">
<title>qgis</title>
<g id="a_node6"><a xlink:href="https://github.com/conda-forge/qgis-feedstock" xlink:title="qgis">
<ellipse fill="#fde725" stroke="black" cx="426" cy="-18" rx="27" ry="18"/>
<text text-anchor="middle" x="426" y="-14.3" font-family="Times,serif" font-size="14.00">qgis</text>
</a>
</g>
</g>
<!-- gdal&#45;&gt;qgis -->
<g id="edge4" class="edge">
<title>gdal&#45;&gt;qgis</title>
<path fill="none" stroke="black" d="M296.65,-79.1C319.78,-68.49 357.53,-51.15 390,-36 391.79,-35.17 393.62,-34.31 395.47,-33.44"/>
<polygon fill="black" stroke="black" points="397.14,-36.53 404.7,-29.1 394.16,-30.19 397.14,-36.53"/>
</g>
<!-- r&#45;rgdal -->
<g id="node7" class="node">
<title>r&#45;rgdal</title>
<g id="a_node7"><a xlink:href="https://github.com/conda-forge/r-rgdal-feedstock" xlink:title="r rgdal">
<ellipse fill="#fde725" stroke="black" cx="275" cy="-18" rx="34.39" ry="18"/>
<text text-anchor="middle" x="275" y="-14.3" font-family="Times,serif" font-size="14.00">r rgdal</text>
</a>
</g>
</g>
<!-- gdal&#45;&gt;r&#45;rgdal -->
<g id="edge5" class="edge">
<title>gdal&#45;&gt;r&#45;rgdal</title>
<path fill="none" stroke="black" d="M275,-71.7C275,-63.98 275,-54.71 275,-46.11"/>
<polygon fill="black" stroke="black" points="278.5,-46.1 275,-36.1 271.5,-46.1 278.5,-46.1"/>
</g>
<!-- r&#45;sf -->
<g id="node8" class="node">
<title>r&#45;sf</title>
<g id="a_node8"><a xlink:href="https://github.com/conda-forge/r-sf-feedstock" xlink:title="r sf">
<ellipse fill="#fde725" stroke="black" cx="354" cy="-18" rx="27" ry="18"/>
<text text-anchor="middle" x="354" y="-14.3" font-family="Times,serif" font-size="14.00">r sf</text>
</a>
</g>
</g>
<!-- gdal&#45;&gt;r&#45;sf -->
<g id="edge6" class="edge">
<title>gdal&#45;&gt;r&#45;sf</title>
<path fill="none" stroke="black" d="M290.61,-75.17C302.08,-65.01 317.85,-51.03 330.79,-39.56"/>
<polygon fill="black" stroke="black" points="333.26,-42.05 338.42,-32.8 328.62,-36.81 333.26,-42.05"/>
</g>
<!-- libspatialite -->
<g id="node2" class="node">
<title>libspatialite</title>
<g id="a_node2"><a xlink:href="https://github.com/conda-forge/libspatialite-feedstock/pull/57" xlink:title="libspatialite ❎">
<ellipse fill="#31688e" stroke="black" cx="302" cy="-162" rx="63.89" ry="18"/>
<text text-anchor="middle" x="302" y="-158.3" font-family="Times,serif" font-size="14.00" fill="white">libspatialite ❎</text>
</a>
</g>
</g>
<!-- libspatialite&#45;&gt;gdal -->
<g id="edge7" class="edge">
<title>libspatialite&#45;&gt;gdal</title>
<path fill="none" stroke="black" d="M295.46,-144.05C292.38,-136.06 288.63,-126.33 285.18,-117.4"/>
<polygon fill="black" stroke="black" points="288.34,-115.86 281.48,-107.79 281.81,-118.38 288.34,-115.86"/>
</g>
<!-- libspatialite&#45;&gt;qgis -->
<g id="edge8" class="edge">
<title>libspatialite&#45;&gt;qgis</title>
<path fill="none" stroke="black" d="M316.47,-144.43C338.56,-119.13 380.79,-70.78 405.86,-42.06"/>
<polygon fill="black" stroke="black" points="408.81,-44 412.75,-34.17 403.54,-39.4 408.81,-44"/>
</g>
<!-- vtk -->
<g id="node9" class="node">
<title>vtk</title>
<g id="a_node9"><a xlink:href="https://github.com/conda-forge/vtk-feedstock/pull/151" xlink:title="vtk ❎">
<ellipse fill="#31688e" stroke="black" cx="495" cy="-90" rx="33.6" ry="18"/>
<text text-anchor="middle" x="495" y="-86.3" font-family="Times,serif" font-size="14.00" fill="white">vtk ❎</text>
</a>
</g>
</g>
</g>
</svg>
