<?xml version="1.0" encoding="UTF-8" standalone="no"?>
<!DOCTYPE svg PUBLIC "-//W3C//DTD SVG 1.1//EN"
 "http://www.w3.org/Graphics/SVG/1.1/DTD/svg11.dtd">
<!-- Generated by graphviz version 6.0.1 (20220911.2005)
 -->
<!-- Pages: 1 -->
<svg width="838pt" height="404pt"
 viewBox="0.00 0.00 838.10 404.00" xmlns="http://www.w3.org/2000/svg" xmlns:xlink="http://www.w3.org/1999/xlink">
<g id="graph0" class="graph" transform="scale(1 1) rotate(0) translate(4 400)">
<polygon fill="white" stroke="none" points="-4,4 -4,-400 834.1,-400 834.1,4 -4,4"/>
<!-- gdal -->
<g id="node1" class="node">
<title>gdal</title>
<g id="a_node1"><a xlink:href="https://github.com/conda-forge/gdal-feedstock" xlink:title="gdal">
<ellipse fill="#ff8c00" stroke="black" cx="295" cy="-378" rx="30.59" ry="18"/>
<text text-anchor="middle" x="295" y="-374.3" font-family="Times,serif" font-size="14.00">gdal</text>
</a>
</g>
</g>
<!-- ncl -->
<g id="node2" class="node">
<title>ncl</title>
<g id="a_node2"><a xlink:href="https://github.com/conda-forge/ncl-feedstock" xlink:title="ncl">
<ellipse fill="#fde725" stroke="black" cx="27" cy="-306" rx="27" ry="18"/>
<text text-anchor="middle" x="27" y="-302.3" font-family="Times,serif" font-size="14.00">ncl</text>
</a>
</g>
</g>
<!-- gdal&#45;&gt;ncl -->
<g id="edge1" class="edge">
<title>gdal&#45;&gt;ncl</title>
<path fill="none" stroke="black" d="M266.28,-371.86C222.8,-363.73 137.92,-346.49 68,-324 64.85,-322.99 61.59,-321.83 58.37,-320.62"/>
<polygon fill="black" stroke="black" points="59.47,-317.29 48.88,-316.85 56.88,-323.79 59.47,-317.29"/>
</g>
<!-- postgis -->
<g id="node3" class="node">
<title>postgis</title>
<g id="a_node3"><a xlink:href="https://github.com/conda-forge/postgis-feedstock" xlink:title="postgis">
<ellipse fill="#fde725" stroke="black" cx="65" cy="-234" rx="44.39" ry="18"/>
<text text-anchor="middle" x="65" y="-230.3" font-family="Times,serif" font-size="14.00">postgis</text>
</a>
</g>
</g>
<!-- gdal&#45;&gt;postgis -->
<g id="edge2" class="edge">
<title>gdal&#45;&gt;postgis</title>
<path fill="none" stroke="black" d="M265.14,-374.03C228.44,-369.08 165.79,-356.26 123,-324 101.49,-307.78 85.64,-281.09 76,-261.16"/>
<polygon fill="black" stroke="black" points="79.13,-259.6 71.76,-251.99 72.78,-262.54 79.13,-259.6"/>
</g>
<!-- pynio -->
<g id="node4" class="node">
<title>pynio</title>
<g id="a_node4"><a xlink:href="https://github.com/conda-forge/pynio-feedstock" xlink:title="pynio">
<ellipse fill="#fde725" stroke="black" cx="110" cy="-162" rx="36.5" ry="18"/>
<text text-anchor="middle" x="110" y="-158.3" font-family="Times,serif" font-size="14.00">pynio</text>
</a>
</g>
</g>
<!-- gdal&#45;&gt;pynio -->
<g id="edge3" class="edge">
<title>gdal&#45;&gt;pynio</title>
<path fill="none" stroke="black" d="M265.53,-372.85C235.24,-367.07 188.72,-353.73 161,-324 142.69,-304.36 124.48,-230.43 115.59,-189.93"/>
<polygon fill="black" stroke="black" points="118.97,-188.98 113.44,-179.94 112.12,-190.45 118.97,-188.98"/>
</g>
<!-- qgis -->
<g id="node5" class="node">
<title>qgis</title>
<g id="a_node5"><a xlink:href="https://github.com/conda-forge/qgis-feedstock" xlink:title="qgis">
<ellipse fill="#fde725" stroke="black" cx="154" cy="-90" rx="30.59" ry="18"/>
<text text-anchor="middle" x="154" y="-86.3" font-family="Times,serif" font-size="14.00">qgis</text>
</a>
</g>
</g>
<!-- gdal&#45;&gt;qgis -->
<g id="edge4" class="edge">
<title>gdal&#45;&gt;qgis</title>
<path fill="none" stroke="black" d="M267.89,-369.15C245.86,-361.32 215.79,-347.1 199,-324 175.32,-291.42 161.56,-172.68 156.38,-118.41"/>
<polygon fill="black" stroke="black" points="159.84,-117.79 155.43,-108.16 152.87,-118.44 159.84,-117.79"/>
</g>
<!-- r&#45;rgdal -->
<g id="node6" class="node">
<title>r&#45;rgdal</title>
<g id="a_node6"><a xlink:href="https://github.com/conda-forge/r-rgdal-feedstock" xlink:title="r rgdal">
<ellipse fill="#fde725" stroke="black" cx="213" cy="-18" rx="42.49" ry="18"/>
<text text-anchor="middle" x="213" y="-14.3" font-family="Times,serif" font-size="14.00">r rgdal</text>
</a>
</g>
</g>
<!-- gdal&#45;&gt;r&#45;rgdal -->
<g id="edge5" class="edge">
<title>gdal&#45;&gt;r&#45;rgdal</title>
<path fill="none" stroke="black" d="M279.58,-362.44C255.82,-338.37 213,-287.67 213,-235 213,-235 213,-235 213,-161 213,-121 213,-74.65 213,-46.08"/>
<polygon fill="black" stroke="black" points="216.5,-46.05 213,-36.05 209.5,-46.05 216.5,-46.05"/>
</g>
<!-- r&#45;sf -->
<g id="node7" class="node">
<title>r&#45;sf</title>
<g id="a_node7"><a xlink:href="https://github.com/conda-forge/r-sf-feedstock" xlink:title="r sf">
<ellipse fill="#fde725" stroke="black" cx="295" cy="-306" rx="27" ry="18"/>
<text text-anchor="middle" x="295" y="-302.3" font-family="Times,serif" font-size="14.00">r sf</text>
</a>
</g>
</g>
<!-- gdal&#45;&gt;r&#45;sf -->
<g id="edge6" class="edge">
<title>gdal&#45;&gt;r&#45;sf</title>
<path fill="none" stroke="black" d="M295,-359.7C295,-351.98 295,-342.71 295,-334.11"/>
<polygon fill="black" stroke="black" points="298.5,-334.1 295,-324.1 291.5,-334.1 298.5,-334.1"/>
</g>
<!-- rasterio -->
<g id="node8" class="node">
<title>rasterio</title>
<g id="a_node8"><a xlink:href="https://github.com/conda-forge/rasterio-feedstock" xlink:title="rasterio">
<ellipse fill="#fde725" stroke="black" cx="415" cy="-234" rx="47.5" ry="18"/>
<text text-anchor="middle" x="415" y="-230.3" font-family="Times,serif" font-size="14.00">rasterio</text>
</a>
</g>
</g>
<!-- gdal&#45;&gt;rasterio -->
<g id="edge7" class="edge">
<title>gdal&#45;&gt;rasterio</title>
<path fill="none" stroke="black" d="M308.07,-361.53C328.95,-336.83 369.98,-288.28 394.7,-259.02"/>
<polygon fill="black" stroke="black" points="397.43,-261.22 401.21,-251.32 392.08,-256.7 397.43,-261.22"/>
</g>
<!-- geowombat -->
<g id="node9" class="node">
<title>geowombat</title>
<g id="a_node9"><a xlink:href="https://github.com/conda-forge/geowombat-feedstock" xlink:title="geowombat">
<ellipse fill="#fde725" stroke="black" cx="381" cy="-162" rx="64.5" ry="18"/>
<text text-anchor="middle" x="381" y="-158.3" font-family="Times,serif" font-size="14.00">geowombat</text>
</a>
</g>
</g>
<!-- gdal&#45;&gt;geowombat -->
<g id="edge8" class="edge">
<title>gdal&#45;&gt;geowombat</title>
<path fill="none" stroke="black" d="M320.44,-367.84C361.02,-351.66 439.11,-313.77 471,-252 478.34,-237.78 478.94,-229.89 471,-216 462.05,-200.34 446.46,-188.85 430.75,-180.65"/>
<polygon fill="black" stroke="black" points="432.06,-177.39 421.54,-176.19 429.02,-183.7 432.06,-177.39"/>
</g>
<!-- r&#45;gdalcubes -->
<g id="node10" class="node">
<title>r&#45;gdalcubes</title>
<g id="a_node10"><a xlink:href="https://github.com/conda-forge/r-gdalcubes-feedstock" xlink:title="r gdalcubes">
<ellipse fill="#fde725" stroke="black" cx="529" cy="-162" rx="65" ry="18"/>
<text text-anchor="middle" x="529" y="-158.3" font-family="Times,serif" font-size="14.00">r gdalcubes</text>
</a>
</g>
</g>
<!-- gdal&#45;&gt;r&#45;gdalcubes -->
<g id="edge9" class="edge">
<title>gdal&#45;&gt;r&#45;gdalcubes</title>
<path fill="none" stroke="black" d="M323.8,-371.86C354.85,-365.16 404.46,-350.97 439,-324 483.56,-289.2 509.47,-225.81 521.25,-189.83"/>
<polygon fill="black" stroke="black" points="524.68,-190.62 524.34,-180.03 518,-188.52 524.68,-190.62"/>
</g>
<!-- r&#45;terra -->
<g id="node11" class="node">
<title>r&#45;terra</title>
<g id="a_node11"><a xlink:href="https://github.com/conda-forge/r-terra-feedstock" xlink:title="r terra">
<ellipse fill="#fde725" stroke="black" cx="622" cy="-90" rx="41.69" ry="18"/>
<text text-anchor="middle" x="622" y="-86.3" font-family="Times,serif" font-size="14.00">r terra</text>
</a>
</g>
</g>
<!-- gdal&#45;&gt;r&#45;terra -->
<g id="edge10" class="edge">
<title>gdal&#45;&gt;r&#45;terra</title>
<path fill="none" stroke="black" d="M324.53,-372.93C361,-366.86 423.86,-352.9 470,-324 543.83,-277.75 562.92,-257.36 603,-180 612.96,-160.77 617.71,-136.61 619.96,-118.32"/>
<polygon fill="black" stroke="black" points="623.45,-118.62 621.02,-108.31 616.49,-117.88 623.45,-118.62"/>
</g>
<!-- mapserver -->
<g id="node12" class="node">
<title>mapserver</title>
<g id="a_node12"><a xlink:href="https://github.com/conda-forge/mapserver-feedstock" xlink:title="mapserver">
<ellipse fill="#fde725" stroke="black" cx="692" cy="-18" rx="60.5" ry="18"/>
<text text-anchor="middle" x="692" y="-14.3" font-family="Times,serif" font-size="14.00">mapserver</text>
</a>
</g>
</g>
<!-- gdal&#45;&gt;mapserver -->
<g id="edge11" class="edge">
<title>gdal&#45;&gt;mapserver</title>
<path fill="none" stroke="black" d="M324.52,-372.97C416.52,-359.6 692,-313.05 692,-235 692,-235 692,-235 692,-161 692,-121 692,-74.65 692,-46.08"/>
<polygon fill="black" stroke="black" points="695.5,-46.05 692,-36.05 688.5,-46.05 695.5,-46.05"/>
</g>
<!-- r&#45;lwgeom -->
<g id="node13" class="node">
<title>r&#45;lwgeom</title>
<g id="a_node13"><a xlink:href="https://github.com/conda-forge/r-lwgeom-feedstock" xlink:title="r lwgeom">
<ellipse fill="#fde725" stroke="black" cx="295" cy="-234" rx="54" ry="18"/>
<text text-anchor="middle" x="295" y="-230.3" font-family="Times,serif" font-size="14.00">r lwgeom</text>
</a>
</g>
</g>
<!-- r&#45;sf&#45;&gt;r&#45;lwgeom -->
<g id="edge12" class="edge">
<title>r&#45;sf&#45;&gt;r&#45;lwgeom</title>
<path fill="none" stroke="black" d="M295,-287.7C295,-279.98 295,-270.71 295,-262.11"/>
<polygon fill="black" stroke="black" points="298.5,-262.1 295,-252.1 291.5,-262.1 298.5,-262.1"/>
</g>
<!-- rasterio&#45;&gt;geowombat -->
<g id="edge13" class="edge">
<title>rasterio&#45;&gt;geowombat</title>
<path fill="none" stroke="black" d="M406.77,-216.05C402.9,-208.09 398.2,-198.41 393.88,-189.51"/>
<polygon fill="black" stroke="black" points="396.91,-187.74 389.39,-180.28 390.61,-190.8 396.91,-187.74"/>
</g>
<!-- visan -->
<g id="node14" class="node">
<title>visan</title>
<g id="a_node14"><a xlink:href="https://github.com/conda-forge/visan-feedstock" xlink:title="visan">
<ellipse fill="#35b779" stroke="black" cx="795" cy="-198" rx="35.19" ry="18"/>
<text text-anchor="middle" x="795" y="-194.3" font-family="Times,serif" font-size="14.00">visan</text>
</a>
</g>
</g>
</g>
</svg>
