<?xml version="1.0" encoding="UTF-8" standalone="no"?>
<!DOCTYPE svg PUBLIC "-//W3C//DTD SVG 1.1//EN"
 "http://www.w3.org/Graphics/SVG/1.1/DTD/svg11.dtd">
<!-- Generated by graphviz version 2.49.0 (20210829.0051)
 -->
<!-- Pages: 1 -->
<svg width="974pt" height="548pt"
 viewBox="0.00 0.00 974.05 548.00" xmlns="http://www.w3.org/2000/svg" xmlns:xlink="http://www.w3.org/1999/xlink">
<g id="graph0" class="graph" transform="scale(1 1) rotate(0) translate(4 544)">
<polygon fill="white" stroke="transparent" points="-4,4 -4,-544 970.05,-544 970.05,4 -4,4"/>
<!-- basemap -->
<g id="node1" class="node">
<title>basemap</title>
<g id="a_node1"><a xlink:href="https://github.com/conda-forge/basemap-feedstock" xlink:title="basemap">
<ellipse fill="#35b779" stroke="black" cx="735" cy="-522" rx="52" ry="18"/>
<text text-anchor="middle" x="735" y="-518.3" font-family="Times,serif" font-size="14.00">basemap</text>
</a>
</g>
</g>
<!-- cartopy -->
<g id="node2" class="node">
<title>cartopy</title>
<g id="a_node2"><a xlink:href="https://github.com/conda-forge/cartopy-feedstock" xlink:title="cartopy">
<ellipse fill="#35b779" stroke="black" cx="735" cy="-450" rx="46.29" ry="18"/>
<text text-anchor="middle" x="735" y="-446.3" font-family="Times,serif" font-size="14.00">cartopy</text>
</a>
</g>
</g>
<!-- basemap&#45;&gt;cartopy -->
<!-- cdo -->
<g id="node3" class="node">
<title>cdo</title>
<g id="a_node3"><a xlink:href="https://github.com/conda-forge/cdo-feedstock/pull/101" xlink:title="cdo ✓">
<ellipse fill="#31688e" stroke="black" cx="735" cy="-378" rx="34.5" ry="18"/>
<text text-anchor="middle" x="735" y="-374.3" font-family="Times,serif" font-size="14.00" fill="white">cdo ✓</text>
</a>
</g>
</g>
<!-- cartopy&#45;&gt;cdo -->
<!-- magics -->
<g id="node4" class="node">
<title>magics</title>
<g id="a_node4"><a xlink:href="https://github.com/conda-forge/magics-feedstock/pull/104" xlink:title="magics ✓">
<ellipse fill="#31688e" stroke="black" cx="735" cy="-306" rx="50.89" ry="18"/>
<text text-anchor="middle" x="735" y="-302.3" font-family="Times,serif" font-size="14.00" fill="white">magics ✓</text>
</a>
</g>
</g>
<!-- cdo&#45;&gt;magics -->
<!-- vtk -->
<g id="node18" class="node">
<title>vtk</title>
<g id="a_node18"><a xlink:href="https://github.com/conda-forge/vtk-feedstock" xlink:title="vtk">
<ellipse fill="#35b779" stroke="black" cx="735" cy="-234" rx="27" ry="18"/>
<text text-anchor="middle" x="735" y="-230.3" font-family="Times,serif" font-size="14.00">vtk</text>
</a>
</g>
</g>
<!-- magics&#45;&gt;vtk -->
<!-- gdal -->
<g id="node5" class="node">
<title>gdal</title>
<g id="a_node5"><a xlink:href="https://github.com/conda-forge/gdal-feedstock" xlink:title="gdal">
<ellipse fill="#fde725" stroke="black" cx="243" cy="-450" rx="30.59" ry="18"/>
<text text-anchor="middle" x="243" y="-446.3" font-family="Times,serif" font-size="14.00">gdal</text>
</a>
</g>
</g>
<!-- ncl -->
<g id="node6" class="node">
<title>ncl</title>
<g id="a_node6"><a xlink:href="https://github.com/conda-forge/ncl-feedstock" xlink:title="ncl">
<ellipse fill="#fde725" stroke="black" cx="150" cy="-378" rx="27" ry="18"/>
<text text-anchor="middle" x="150" y="-374.3" font-family="Times,serif" font-size="14.00">ncl</text>
</a>
</g>
</g>
<!-- gdal&#45;&gt;ncl -->
<g id="edge4" class="edge">
<title>gdal&#45;&gt;ncl</title>
<path fill="none" stroke="black" d="M224.63,-435.17C210.6,-424.61 191.11,-409.94 175.56,-398.24"/>
<polygon fill="black" stroke="black" points="177.49,-395.31 167.39,-392.09 173.28,-400.9 177.49,-395.31"/>
</g>
<!-- postgis -->
<g id="node7" class="node">
<title>postgis</title>
<g id="a_node7"><a xlink:href="https://github.com/conda-forge/postgis-feedstock" xlink:title="postgis">
<ellipse fill="#fde725" stroke="black" cx="171" cy="-306" rx="44.39" ry="18"/>
<text text-anchor="middle" x="171" y="-302.3" font-family="Times,serif" font-size="14.00">postgis</text>
</a>
</g>
</g>
<!-- gdal&#45;&gt;postgis -->
<g id="edge5" class="edge">
<title>gdal&#45;&gt;postgis</title>
<path fill="none" stroke="black" d="M234.6,-432.43C222.2,-407.98 198.89,-362 184.19,-333.02"/>
<polygon fill="black" stroke="black" points="187.21,-331.24 179.57,-323.9 180.97,-334.4 187.21,-331.24"/>
</g>
<!-- pynio -->
<g id="node8" class="node">
<title>pynio</title>
<g id="a_node8"><a xlink:href="https://github.com/conda-forge/pynio-feedstock" xlink:title="pynio">
<ellipse fill="#fde725" stroke="black" cx="216" cy="-234" rx="36.5" ry="18"/>
<text text-anchor="middle" x="216" y="-230.3" font-family="Times,serif" font-size="14.00">pynio</text>
</a>
</g>
</g>
<!-- gdal&#45;&gt;pynio -->
<g id="edge6" class="edge">
<title>gdal&#45;&gt;pynio</title>
<path fill="none" stroke="black" d="M241.13,-431.58C237.92,-402.03 231.01,-340.16 224,-288 222.87,-279.57 221.52,-270.4 220.26,-262.1"/>
<polygon fill="black" stroke="black" points="223.71,-261.52 218.73,-252.17 216.8,-262.58 223.71,-261.52"/>
</g>
<!-- qgis -->
<g id="node9" class="node">
<title>qgis</title>
<g id="a_node9"><a xlink:href="https://github.com/conda-forge/qgis-feedstock" xlink:title="qgis">
<ellipse fill="#fde725" stroke="black" cx="74" cy="-378" rx="30.59" ry="18"/>
<text text-anchor="middle" x="74" y="-374.3" font-family="Times,serif" font-size="14.00">qgis</text>
</a>
</g>
</g>
<!-- gdal&#45;&gt;qgis -->
<g id="edge7" class="edge">
<title>gdal&#45;&gt;qgis</title>
<path fill="none" stroke="black" d="M218.23,-438.93C192.24,-428.33 150.19,-411.12 114,-396 111.83,-395.09 109.59,-394.15 107.33,-393.2"/>
<polygon fill="black" stroke="black" points="108.67,-389.97 98.09,-389.3 105.94,-396.41 108.67,-389.97"/>
</g>
<!-- r&#45;rgdal -->
<g id="node10" class="node">
<title>r&#45;rgdal</title>
<g id="a_node10"><a xlink:href="https://github.com/conda-forge/r-rgdal-feedstock" xlink:title="r rgdal">
<ellipse fill="#fde725" stroke="black" cx="249" cy="-162" rx="42.49" ry="18"/>
<text text-anchor="middle" x="249" y="-158.3" font-family="Times,serif" font-size="14.00">r rgdal</text>
</a>
</g>
</g>
<!-- gdal&#45;&gt;r&#45;rgdal -->
<g id="edge8" class="edge">
<title>gdal&#45;&gt;r&#45;rgdal</title>
<path fill="none" stroke="black" d="M246.5,-432.01C253.96,-393.49 270.02,-296.64 261,-216 260.04,-207.43 258.24,-198.22 256.31,-189.93"/>
<polygon fill="black" stroke="black" points="259.66,-188.89 253.87,-180.02 252.87,-190.57 259.66,-188.89"/>
</g>
<!-- r&#45;sf -->
<g id="node11" class="node">
<title>r&#45;sf</title>
<g id="a_node11"><a xlink:href="https://github.com/conda-forge/r-sf-feedstock" xlink:title="r sf">
<ellipse fill="#fde725" stroke="black" cx="319" cy="-90" rx="27" ry="18"/>
<text text-anchor="middle" x="319" y="-86.3" font-family="Times,serif" font-size="14.00">r sf</text>
</a>
</g>
</g>
<!-- gdal&#45;&gt;r&#45;sf -->
<g id="edge9" class="edge">
<title>gdal&#45;&gt;r&#45;sf</title>
<path fill="none" stroke="black" d="M257.65,-433.83C279.74,-409.3 319,-358.45 319,-307 319,-307 319,-307 319,-233 319,-193 319,-146.65 319,-118.08"/>
<polygon fill="black" stroke="black" points="322.5,-118.05 319,-108.05 315.5,-118.05 322.5,-118.05"/>
</g>
<!-- rasterio -->
<g id="node12" class="node">
<title>rasterio</title>
<g id="a_node12"><a xlink:href="https://github.com/conda-forge/rasterio-feedstock" xlink:title="rasterio">
<ellipse fill="#fde725" stroke="black" cx="395" cy="-378" rx="47.5" ry="18"/>
<text text-anchor="middle" x="395" y="-374.3" font-family="Times,serif" font-size="14.00">rasterio</text>
</a>
</g>
</g>
<!-- gdal&#45;&gt;rasterio -->
<g id="edge10" class="edge">
<title>gdal&#45;&gt;rasterio</title>
<path fill="none" stroke="black" d="M266.42,-438.22C290.51,-427.12 328.43,-409.66 356.85,-396.57"/>
<polygon fill="black" stroke="black" points="358.48,-399.67 366.1,-392.31 355.55,-393.31 358.48,-399.67"/>
</g>
<!-- r&#45;gdalcubes -->
<g id="node13" class="node">
<title>r&#45;gdalcubes</title>
<g id="a_node13"><a xlink:href="https://github.com/conda-forge/r-gdalcubes-feedstock" xlink:title="r gdalcubes">
<ellipse fill="#fde725" stroke="black" cx="471" cy="-306" rx="65" ry="18"/>
<text text-anchor="middle" x="471" y="-302.3" font-family="Times,serif" font-size="14.00">r gdalcubes</text>
</a>
</g>
</g>
<!-- gdal&#45;&gt;r&#45;gdalcubes -->
<g id="edge11" class="edge">
<title>gdal&#45;&gt;r&#45;gdalcubes</title>
<path fill="none" stroke="black" d="M272.83,-445.25C324.24,-438.2 426.39,-421.32 451,-396 466.74,-379.81 471.15,-354.04 471.97,-334.39"/>
<polygon fill="black" stroke="black" points="475.47,-334.25 472.1,-324.2 468.47,-334.15 475.47,-334.25"/>
</g>
<!-- r&#45;terra -->
<g id="node14" class="node">
<title>r&#45;terra</title>
<g id="a_node14"><a xlink:href="https://github.com/conda-forge/r-terra-feedstock" xlink:title="r terra">
<ellipse fill="#fde725" stroke="black" cx="564" cy="-234" rx="41.69" ry="18"/>
<text text-anchor="middle" x="564" y="-230.3" font-family="Times,serif" font-size="14.00">r terra</text>
</a>
</g>
</g>
<!-- gdal&#45;&gt;r&#45;terra -->
<g id="edge12" class="edge">
<title>gdal&#45;&gt;r&#45;terra</title>
<path fill="none" stroke="black" d="M273.35,-447.42C319.44,-443.88 408.61,-432.49 474,-396 513.25,-374.1 523.68,-363.56 545,-324 555.34,-304.82 560.05,-280.47 562.2,-262.09"/>
<polygon fill="black" stroke="black" points="565.69,-262.34 563.19,-252.04 558.73,-261.65 565.69,-262.34"/>
</g>
<!-- r&#45;lwgeom -->
<g id="node15" class="node">
<title>r&#45;lwgeom</title>
<g id="a_node15"><a xlink:href="https://github.com/conda-forge/r-lwgeom-feedstock" xlink:title="r lwgeom">
<ellipse fill="#fde725" stroke="black" cx="319" cy="-18" rx="54" ry="18"/>
<text text-anchor="middle" x="319" y="-14.3" font-family="Times,serif" font-size="14.00">r lwgeom</text>
</a>
</g>
</g>
<!-- r&#45;sf&#45;&gt;r&#45;lwgeom -->
<g id="edge13" class="edge">
<title>r&#45;sf&#45;&gt;r&#45;lwgeom</title>
<path fill="none" stroke="black" d="M319,-71.7C319,-63.98 319,-54.71 319,-46.11"/>
<polygon fill="black" stroke="black" points="322.5,-46.1 319,-36.1 315.5,-46.1 322.5,-46.1"/>
</g>
<!-- geotiff -->
<g id="node16" class="node">
<title>geotiff</title>
<g id="a_node16"><a xlink:href="https://github.com/conda-forge/geotiff-feedstock/pull/41" xlink:title="geotiff ❎">
<ellipse fill="#31688e" stroke="black" cx="241" cy="-522" rx="54.69" ry="18"/>
<text text-anchor="middle" x="241" y="-518.3" font-family="Times,serif" font-size="14.00" fill="white">geotiff ❎</text>
</a>
</g>
</g>
<!-- geotiff&#45;&gt;gdal -->
<g id="edge14" class="edge">
<title>geotiff&#45;&gt;gdal</title>
<path fill="none" stroke="black" d="M241.49,-503.7C241.71,-495.98 241.98,-486.71 242.23,-478.11"/>
<polygon fill="black" stroke="black" points="245.72,-478.2 242.51,-468.1 238.73,-478 245.72,-478.2"/>
</g>
<!-- geotiff&#45;&gt;qgis -->
<g id="edge15" class="edge">
<title>geotiff&#45;&gt;qgis</title>
<path fill="none" stroke="black" d="M222.17,-504.99C191.97,-479.31 132.7,-428.91 98.99,-400.25"/>
<polygon fill="black" stroke="black" points="100.89,-397.27 91.01,-393.46 96.36,-402.61 100.89,-397.27"/>
</g>
<!-- libspatialite -->
<g id="node17" class="node">
<title>libspatialite</title>
<g id="a_node17"><a xlink:href="https://github.com/conda-forge/libspatialite-feedstock/pull/76" xlink:title="libspatialite ❎">
<ellipse fill="#31688e" stroke="black" cx="80" cy="-522" rx="80" ry="18"/>
<text text-anchor="middle" x="80" y="-518.3" font-family="Times,serif" font-size="14.00" fill="white">libspatialite ❎</text>
</a>
</g>
</g>
<!-- libspatialite&#45;&gt;gdal -->
<g id="edge16" class="edge">
<title>libspatialite&#45;&gt;gdal</title>
<path fill="none" stroke="black" d="M115.37,-505.81C143.34,-493.8 182.13,-477.14 209.58,-465.35"/>
<polygon fill="black" stroke="black" points="210.98,-468.56 218.79,-461.4 208.22,-462.13 210.98,-468.56"/>
</g>
<!-- libspatialite&#45;&gt;qgis -->
<g id="edge17" class="edge">
<title>libspatialite&#45;&gt;qgis</title>
<path fill="none" stroke="black" d="M79.28,-503.87C78.25,-479.67 76.38,-435.21 75.16,-406.39"/>
<polygon fill="black" stroke="black" points="78.65,-406.03 74.73,-396.19 71.65,-406.33 78.65,-406.03"/>
</g>
<!-- magics&#45;metview -->
<g id="node21" class="node">
<title>magics&#45;metview</title>
<g id="a_node21"><a xlink:href="https://github.com/conda-forge/magics-metview-feedstock/pull/45" xlink:title="magics metview ✓">
<ellipse fill="#31688e" stroke="black" cx="735" cy="-162" rx="93" ry="18"/>
<text text-anchor="middle" x="735" y="-158.3" font-family="Times,serif" font-size="14.00" fill="white">magics metview ✓</text>
</a>
</g>
</g>
<!-- vtk&#45;&gt;magics&#45;metview -->
<!-- r&#45;proj4 -->
<g id="node19" class="node">
<title>r&#45;proj4</title>
<g id="a_node19"><a xlink:href="https://github.com/conda-forge/r-proj4-feedstock/pull/30" xlink:title="r proj4 ✓">
<ellipse fill="#31688e" stroke="black" cx="916" cy="-306" rx="50.09" ry="18"/>
<text text-anchor="middle" x="916" y="-302.3" font-family="Times,serif" font-size="14.00" fill="white">r proj4 ✓</text>
</a>
</g>
</g>
<!-- r&#45;gribr -->
<g id="node20" class="node">
<title>r&#45;gribr</title>
<g id="a_node20"><a xlink:href="https://github.com/conda-forge/r-gribr-feedstock" xlink:title="r gribr">
<ellipse fill="#fde725" stroke="black" cx="916" cy="-234" rx="41.69" ry="18"/>
<text text-anchor="middle" x="916" y="-230.3" font-family="Times,serif" font-size="14.00">r gribr</text>
</a>
</g>
</g>
<!-- r&#45;proj4&#45;&gt;r&#45;gribr -->
<g id="edge19" class="edge">
<title>r&#45;proj4&#45;&gt;r&#45;gribr</title>
<path fill="none" stroke="black" d="M916,-287.7C916,-279.98 916,-270.71 916,-262.11"/>
<polygon fill="black" stroke="black" points="919.5,-262.1 916,-252.1 912.5,-262.1 919.5,-262.1"/>
</g>
<!-- magics&#45;metview&#45;batch -->
<g id="node22" class="node">
<title>magics&#45;metview&#45;batch</title>
<g id="a_node22"><a xlink:href="https://github.com/conda-forge/magics-metview-batch-feedstock/pull/37" xlink:title="magics metview batch ✓">
<ellipse fill="#31688e" stroke="black" cx="735" cy="-90" rx="122.38" ry="18"/>
<text text-anchor="middle" x="735" y="-86.3" font-family="Times,serif" font-size="14.00" fill="white">magics metview batch ✓</text>
</a>
</g>
</g>
<!-- magics&#45;metview&#45;&gt;magics&#45;metview&#45;batch -->
<!-- fimex -->
<g id="node23" class="node">
<title>fimex</title>
<g id="a_node23"><a xlink:href="https://github.com/conda-forge/fimex-feedstock" xlink:title="fimex">
<ellipse fill="#ff8c00" stroke="black" cx="735" cy="-18" rx="36.5" ry="18"/>
<text text-anchor="middle" x="735" y="-14.3" font-family="Times,serif" font-size="14.00">fimex</text>
</a>
</g>
</g>
<!-- magics&#45;metview&#45;batch&#45;&gt;fimex -->
</g>
</svg>
