<?xml version="1.0" encoding="UTF-8" standalone="no"?>
<!DOCTYPE svg PUBLIC "-//W3C//DTD SVG 1.1//EN"
 "http://www.w3.org/Graphics/SVG/1.1/DTD/svg11.dtd">
<!-- Generated by graphviz version 2.49.0 (20210829.0051)
 -->
<!-- Pages: 1 -->
<svg width="699pt" height="548pt"
 viewBox="0.00 0.00 698.55 548.00" xmlns="http://www.w3.org/2000/svg" xmlns:xlink="http://www.w3.org/1999/xlink">
<g id="graph0" class="graph" transform="scale(1 1) rotate(0) translate(4 544)">
<polygon fill="white" stroke="transparent" points="-4,4 -4,-544 694.55,-544 694.55,4 -4,4"/>
<!-- basemap -->
<g id="node1" class="node">
<title>basemap</title>
<g id="a_node1"><a xlink:href="https://github.com/conda-forge/basemap-feedstock" xlink:title="basemap">
<ellipse fill="#ff8c00" stroke="black" cx="630.55" cy="-378" rx="52" ry="18"/>
<text text-anchor="middle" x="630.55" y="-374.3" font-family="Times,serif" font-size="14.00">basemap</text>
</a>
</g>
</g>
<!-- cartopy -->
<g id="node2" class="node">
<title>cartopy</title>
<g id="a_node2"><a xlink:href="https://github.com/conda-forge/cartopy-feedstock/pull/114" xlink:title="cartopy ❎">
<ellipse fill="#31688e" stroke="black" cx="630.55" cy="-306" rx="60" ry="18"/>
<text text-anchor="middle" x="630.55" y="-302.3" font-family="Times,serif" font-size="14.00" fill="white">cartopy ❎</text>
</a>
</g>
</g>
<!-- basemap&#45;&gt;cartopy -->
<!-- r&#45;gribr -->
<g id="node3" class="node">
<title>r&#45;gribr</title>
<g id="a_node3"><a xlink:href="https://github.com/conda-forge/r-gribr-feedstock/pull/17" xlink:title="r gribr ✓">
<ellipse fill="#31688e" stroke="black" cx="630.55" cy="-234" rx="48.99" ry="18"/>
<text text-anchor="middle" x="630.55" y="-230.3" font-family="Times,serif" font-size="14.00" fill="white">r gribr ✓</text>
</a>
</g>
</g>
<!-- cartopy&#45;&gt;r&#45;gribr -->
<!-- fimex -->
<g id="node16" class="node">
<title>fimex</title>
<g id="a_node16"><a xlink:href="https://github.com/conda-forge/fimex-feedstock" xlink:title="fimex">
<ellipse fill="#ff8c00" stroke="black" cx="630.55" cy="-162" rx="36.5" ry="18"/>
<text text-anchor="middle" x="630.55" y="-158.3" font-family="Times,serif" font-size="14.00">fimex</text>
</a>
</g>
</g>
<!-- r&#45;gribr&#45;&gt;fimex -->
<!-- gdal -->
<g id="node4" class="node">
<title>gdal</title>
<g id="a_node4"><a xlink:href="https://github.com/conda-forge/gdal-feedstock" xlink:title="gdal">
<ellipse fill="#fde725" stroke="black" cx="218.55" cy="-450" rx="30.59" ry="18"/>
<text text-anchor="middle" x="218.55" y="-446.3" font-family="Times,serif" font-size="14.00">gdal</text>
</a>
</g>
</g>
<!-- ncl -->
<g id="node5" class="node">
<title>ncl</title>
<g id="a_node5"><a xlink:href="https://github.com/conda-forge/ncl-feedstock" xlink:title="ncl">
<ellipse fill="#fde725" stroke="black" cx="106.55" cy="-378" rx="27" ry="18"/>
<text text-anchor="middle" x="106.55" y="-374.3" font-family="Times,serif" font-size="14.00">ncl</text>
</a>
</g>
</g>
<!-- gdal&#45;&gt;ncl -->
<g id="edge3" class="edge">
<title>gdal&#45;&gt;ncl</title>
<path fill="none" stroke="black" d="M198.26,-436.32C180.33,-425.12 154.02,-408.67 134.17,-396.26"/>
<polygon fill="black" stroke="black" points="135.89,-393.21 125.56,-390.88 132.18,-399.15 135.89,-393.21"/>
</g>
<!-- postgis -->
<g id="node6" class="node">
<title>postgis</title>
<g id="a_node6"><a xlink:href="https://github.com/conda-forge/postgis-feedstock" xlink:title="postgis">
<ellipse fill="#fde725" stroke="black" cx="127.55" cy="-306" rx="44.39" ry="18"/>
<text text-anchor="middle" x="127.55" y="-302.3" font-family="Times,serif" font-size="14.00">postgis</text>
</a>
</g>
</g>
<!-- gdal&#45;&gt;postgis -->
<g id="edge4" class="edge">
<title>gdal&#45;&gt;postgis</title>
<path fill="none" stroke="black" d="M208.29,-432.99C192.6,-408.51 162.51,-361.56 143.83,-332.4"/>
<polygon fill="black" stroke="black" points="146.54,-330.14 138.19,-323.61 140.64,-333.92 146.54,-330.14"/>
</g>
<!-- pynio -->
<g id="node7" class="node">
<title>pynio</title>
<g id="a_node7"><a xlink:href="https://github.com/conda-forge/pynio-feedstock" xlink:title="pynio">
<ellipse fill="#fde725" stroke="black" cx="172.55" cy="-234" rx="36.5" ry="18"/>
<text text-anchor="middle" x="172.55" y="-230.3" font-family="Times,serif" font-size="14.00">pynio</text>
</a>
</g>
</g>
<!-- gdal&#45;&gt;pynio -->
<g id="edge5" class="edge">
<title>gdal&#45;&gt;pynio</title>
<path fill="none" stroke="black" d="M214.86,-431.85C206.87,-394.66 187.89,-306.37 178.3,-261.77"/>
<polygon fill="black" stroke="black" points="181.71,-260.98 176.19,-251.94 174.87,-262.45 181.71,-260.98"/>
</g>
<!-- qgis -->
<g id="node8" class="node">
<title>qgis</title>
<g id="a_node8"><a xlink:href="https://github.com/conda-forge/qgis-feedstock" xlink:title="qgis">
<ellipse fill="#fde725" stroke="black" cx="30.55" cy="-378" rx="30.59" ry="18"/>
<text text-anchor="middle" x="30.55" y="-374.3" font-family="Times,serif" font-size="14.00">qgis</text>
</a>
</g>
</g>
<!-- gdal&#45;&gt;qgis -->
<g id="edge6" class="edge">
<title>gdal&#45;&gt;qgis</title>
<path fill="none" stroke="black" d="M192.71,-440.26C163.04,-430.1 112.99,-412.6 70.55,-396 68.35,-395.14 66.1,-394.24 63.83,-393.32"/>
<polygon fill="black" stroke="black" points="65.15,-390.07 54.57,-389.48 62.46,-396.54 65.15,-390.07"/>
</g>
<!-- r&#45;rgdal -->
<g id="node9" class="node">
<title>r&#45;rgdal</title>
<g id="a_node9"><a xlink:href="https://github.com/conda-forge/r-rgdal-feedstock" xlink:title="r rgdal">
<ellipse fill="#fde725" stroke="black" cx="205.55" cy="-162" rx="42.49" ry="18"/>
<text text-anchor="middle" x="205.55" y="-158.3" font-family="Times,serif" font-size="14.00">r rgdal</text>
</a>
</g>
</g>
<!-- gdal&#45;&gt;r&#45;rgdal -->
<g id="edge7" class="edge">
<title>gdal&#45;&gt;r&#45;rgdal</title>
<path fill="none" stroke="black" d="M219.74,-431.97C222.17,-393.38 226.71,-296.38 217.55,-216 216.57,-207.43 214.76,-198.23 212.84,-189.93"/>
<polygon fill="black" stroke="black" points="216.19,-188.89 210.4,-180.02 209.39,-190.57 216.19,-188.89"/>
</g>
<!-- r&#45;sf -->
<g id="node10" class="node">
<title>r&#45;sf</title>
<g id="a_node10"><a xlink:href="https://github.com/conda-forge/r-sf-feedstock" xlink:title="r sf">
<ellipse fill="#fde725" stroke="black" cx="275.55" cy="-90" rx="27" ry="18"/>
<text text-anchor="middle" x="275.55" y="-86.3" font-family="Times,serif" font-size="14.00">r sf</text>
</a>
</g>
</g>
<!-- gdal&#45;&gt;r&#45;sf -->
<g id="edge8" class="edge">
<title>gdal&#45;&gt;r&#45;sf</title>
<path fill="none" stroke="black" d="M229.81,-432.8C246.42,-407.29 275.55,-355.61 275.55,-307 275.55,-307 275.55,-307 275.55,-233 275.55,-193 275.55,-146.65 275.55,-118.08"/>
<polygon fill="black" stroke="black" points="279.05,-118.05 275.55,-108.05 272.05,-118.05 279.05,-118.05"/>
</g>
<!-- rasterio -->
<g id="node11" class="node">
<title>rasterio</title>
<g id="a_node11"><a xlink:href="https://github.com/conda-forge/rasterio-feedstock" xlink:title="rasterio">
<ellipse fill="#fde725" stroke="black" cx="351.55" cy="-378" rx="47.5" ry="18"/>
<text text-anchor="middle" x="351.55" y="-374.3" font-family="Times,serif" font-size="14.00">rasterio</text>
</a>
</g>
</g>
<!-- gdal&#45;&gt;rasterio -->
<g id="edge9" class="edge">
<title>gdal&#45;&gt;rasterio</title>
<path fill="none" stroke="black" d="M240.51,-437.44C260.96,-426.68 291.82,-410.44 315.81,-397.81"/>
<polygon fill="black" stroke="black" points="317.75,-400.74 324.97,-392.99 314.49,-394.55 317.75,-400.74"/>
</g>
<!-- r&#45;gdalcubes -->
<g id="node12" class="node">
<title>r&#45;gdalcubes</title>
<g id="a_node12"><a xlink:href="https://github.com/conda-forge/r-gdalcubes-feedstock" xlink:title="r gdalcubes">
<ellipse fill="#fde725" stroke="black" cx="427.55" cy="-306" rx="65" ry="18"/>
<text text-anchor="middle" x="427.55" y="-302.3" font-family="Times,serif" font-size="14.00">r gdalcubes</text>
</a>
</g>
</g>
<!-- gdal&#45;&gt;r&#45;gdalcubes -->
<g id="edge10" class="edge">
<title>gdal&#45;&gt;r&#45;gdalcubes</title>
<path fill="none" stroke="black" d="M249.22,-449.48C291.15,-448.39 365.91,-439.88 407.55,-396 423.09,-379.62 427.52,-353.87 428.4,-334.28"/>
<polygon fill="black" stroke="black" points="431.9,-334.18 428.57,-324.12 424.9,-334.06 431.9,-334.18"/>
</g>
<!-- r&#45;terra -->
<g id="node13" class="node">
<title>r&#45;terra</title>
<g id="a_node13"><a xlink:href="https://github.com/conda-forge/r-terra-feedstock" xlink:title="r terra">
<ellipse fill="#fde725" stroke="black" cx="520.55" cy="-234" rx="41.69" ry="18"/>
<text text-anchor="middle" x="520.55" y="-230.3" font-family="Times,serif" font-size="14.00">r terra</text>
</a>
</g>
</g>
<!-- gdal&#45;&gt;r&#45;terra -->
<g id="edge11" class="edge">
<title>gdal&#45;&gt;r&#45;terra</title>
<path fill="none" stroke="black" d="M248.9,-446.6C291.87,-442.09 371.73,-429.57 430.55,-396 469.58,-373.72 480.22,-363.56 501.55,-324 511.89,-304.82 516.6,-280.47 518.75,-262.09"/>
<polygon fill="black" stroke="black" points="522.24,-262.34 519.74,-252.04 515.28,-261.65 522.24,-262.34"/>
</g>
<!-- r&#45;lwgeom -->
<g id="node14" class="node">
<title>r&#45;lwgeom</title>
<g id="a_node14"><a xlink:href="https://github.com/conda-forge/r-lwgeom-feedstock" xlink:title="r lwgeom">
<ellipse fill="#fde725" stroke="black" cx="275.55" cy="-18" rx="54" ry="18"/>
<text text-anchor="middle" x="275.55" y="-14.3" font-family="Times,serif" font-size="14.00">r lwgeom</text>
</a>
</g>
</g>
<!-- r&#45;sf&#45;&gt;r&#45;lwgeom -->
<g id="edge12" class="edge">
<title>r&#45;sf&#45;&gt;r&#45;lwgeom</title>
<path fill="none" stroke="black" d="M275.55,-71.7C275.55,-63.98 275.55,-54.71 275.55,-46.11"/>
<polygon fill="black" stroke="black" points="279.05,-46.1 275.55,-36.1 272.05,-46.1 279.05,-46.1"/>
</g>
<!-- libspatialite -->
<g id="node15" class="node">
<title>libspatialite</title>
<g id="a_node15"><a xlink:href="https://github.com/conda-forge/libspatialite-feedstock/pull/71" xlink:title="libspatialite ❎">
<ellipse fill="#31688e" stroke="black" cx="133.55" cy="-522" rx="80" ry="18"/>
<text text-anchor="middle" x="133.55" y="-518.3" font-family="Times,serif" font-size="14.00" fill="white">libspatialite ❎</text>
</a>
</g>
</g>
<!-- libspatialite&#45;&gt;gdal -->
<g id="edge13" class="edge">
<title>libspatialite&#45;&gt;gdal</title>
<path fill="none" stroke="black" d="M153.69,-504.41C165.61,-494.59 180.81,-482.08 193.5,-471.63"/>
<polygon fill="black" stroke="black" points="195.92,-474.17 201.42,-465.11 191.47,-468.76 195.92,-474.17"/>
</g>
<!-- libspatialite&#45;&gt;qgis -->
<g id="edge14" class="edge">
<title>libspatialite&#45;&gt;qgis</title>
<path fill="none" stroke="black" d="M121.33,-504.15C103.17,-479.12 68.97,-431.97 48.13,-403.24"/>
<polygon fill="black" stroke="black" points="50.82,-400.99 42.12,-394.95 45.16,-405.1 50.82,-400.99"/>
</g>
</g>
</svg>
