<?xml version="1.0" encoding="UTF-8" standalone="no"?>
<!DOCTYPE svg PUBLIC "-//W3C//DTD SVG 1.1//EN"
 "http://www.w3.org/Graphics/SVG/1.1/DTD/svg11.dtd">
<!-- Generated by graphviz version 4.0.0 (20220529.1859)
 -->
<!-- Pages: 1 -->
<svg width="801pt" height="404pt"
 viewBox="0.00 0.00 801.50 404.00" xmlns="http://www.w3.org/2000/svg" xmlns:xlink="http://www.w3.org/1999/xlink">
<g id="graph0" class="graph" transform="scale(1 1) rotate(0) translate(4 400)">
<polygon fill="white" stroke="transparent" points="-4,4 -4,-400 797.5,-400 797.5,4 -4,4"/>
<!-- cdo -->
<g id="node1" class="node">
<title>cdo</title>
<g id="a_node1"><a xlink:href="https://github.com/conda-forge/cdo-feedstock/pull/115" xlink:title="cdo ❎">
<ellipse fill="#31688e" stroke="black" cx="744" cy="-306" rx="41" ry="18"/>
<text text-anchor="middle" x="744" y="-302.3" font-family="Times,serif" font-size="14.00" fill="white">cdo ❎</text>
</a>
</g>
</g>
<!-- r&#45;gribr -->
<g id="node2" class="node">
<title>r&#45;gribr</title>
<g id="a_node2"><a xlink:href="https://github.com/conda-forge/r-gribr-feedstock" xlink:title="r gribr">
<ellipse fill="#35b779" stroke="black" cx="744" cy="-234" rx="41.69" ry="18"/>
<text text-anchor="middle" x="744" y="-230.3" font-family="Times,serif" font-size="14.00">r gribr</text>
</a>
</g>
</g>
<!-- cdo&#45;&gt;r&#45;gribr -->
<!-- fimex -->
<g id="node15" class="node">
<title>fimex</title>
<g id="a_node15"><a xlink:href="https://github.com/conda-forge/fimex-feedstock" xlink:title="fimex">
<ellipse fill="#35b779" stroke="black" cx="744" cy="-162" rx="36.5" ry="18"/>
<text text-anchor="middle" x="744" y="-158.3" font-family="Times,serif" font-size="14.00">fimex</text>
</a>
</g>
</g>
<!-- r&#45;gribr&#45;&gt;fimex -->
<!-- gdal -->
<g id="node3" class="node">
<title>gdal</title>
<g id="a_node3"><a xlink:href="https://github.com/conda-forge/gdal-feedstock" xlink:title="gdal">
<ellipse fill="#ff8c00" stroke="black" cx="247" cy="-378" rx="30.59" ry="18"/>
<text text-anchor="middle" x="247" y="-374.3" font-family="Times,serif" font-size="14.00">gdal</text>
</a>
</g>
</g>
<!-- ncl -->
<g id="node4" class="node">
<title>ncl</title>
<g id="a_node4"><a xlink:href="https://github.com/conda-forge/ncl-feedstock" xlink:title="ncl">
<ellipse fill="#fde725" stroke="black" cx="27" cy="-306" rx="27" ry="18"/>
<text text-anchor="middle" x="27" y="-302.3" font-family="Times,serif" font-size="14.00">ncl</text>
</a>
</g>
</g>
<!-- gdal&#45;&gt;ncl -->
<g id="edge2" class="edge">
<title>gdal&#45;&gt;ncl</title>
<path fill="none" stroke="black" d="M219.73,-369.88C184.38,-360.45 121,-342.78 68,-324 64.88,-322.89 61.65,-321.68 58.43,-320.42"/>
<polygon fill="black" stroke="black" points="59.55,-317.1 48.96,-316.61 56.93,-323.59 59.55,-317.1"/>
</g>
<!-- postgis -->
<g id="node5" class="node">
<title>postgis</title>
<g id="a_node5"><a xlink:href="https://github.com/conda-forge/postgis-feedstock" xlink:title="postgis">
<ellipse fill="#fde725" stroke="black" cx="65" cy="-234" rx="44.39" ry="18"/>
<text text-anchor="middle" x="65" y="-230.3" font-family="Times,serif" font-size="14.00">postgis</text>
</a>
</g>
</g>
<!-- gdal&#45;&gt;postgis -->
<g id="edge3" class="edge">
<title>gdal&#45;&gt;postgis</title>
<path fill="none" stroke="black" d="M219.36,-370.25C192.44,-362.59 151.51,-347.94 123,-324 102.58,-306.85 86.73,-280.69 76.79,-261.16"/>
<polygon fill="black" stroke="black" points="79.81,-259.35 72.27,-251.91 73.52,-262.43 79.81,-259.35"/>
</g>
<!-- pynio -->
<g id="node6" class="node">
<title>pynio</title>
<g id="a_node6"><a xlink:href="https://github.com/conda-forge/pynio-feedstock" xlink:title="pynio">
<ellipse fill="#fde725" stroke="black" cx="110" cy="-162" rx="36.5" ry="18"/>
<text text-anchor="middle" x="110" y="-158.3" font-family="Times,serif" font-size="14.00">pynio</text>
</a>
</g>
</g>
<!-- gdal&#45;&gt;pynio -->
<g id="edge4" class="edge">
<title>gdal&#45;&gt;pynio</title>
<path fill="none" stroke="black" d="M222.13,-367.41C202.86,-358.78 176.86,-344.33 161,-324 144.52,-302.89 125.59,-229.93 116.1,-189.86"/>
<polygon fill="black" stroke="black" points="119.47,-188.91 113.79,-179.97 112.66,-190.5 119.47,-188.91"/>
</g>
<!-- qgis -->
<g id="node7" class="node">
<title>qgis</title>
<g id="a_node7"><a xlink:href="https://github.com/conda-forge/qgis-feedstock" xlink:title="qgis">
<ellipse fill="#fde725" stroke="black" cx="154" cy="-90" rx="30.59" ry="18"/>
<text text-anchor="middle" x="154" y="-86.3" font-family="Times,serif" font-size="14.00">qgis</text>
</a>
</g>
</g>
<!-- gdal&#45;&gt;qgis -->
<g id="edge5" class="edge">
<title>gdal&#45;&gt;qgis</title>
<path fill="none" stroke="black" d="M230.22,-362.94C219.62,-353.12 206.55,-339.1 199,-324 164.72,-255.39 156.5,-163.36 154.57,-118.25"/>
<polygon fill="black" stroke="black" points="158.06,-117.96 154.21,-108.09 151.06,-118.2 158.06,-117.96"/>
</g>
<!-- r&#45;rgdal -->
<g id="node8" class="node">
<title>r&#45;rgdal</title>
<g id="a_node8"><a xlink:href="https://github.com/conda-forge/r-rgdal-feedstock" xlink:title="r rgdal">
<ellipse fill="#fde725" stroke="black" cx="213" cy="-18" rx="42.49" ry="18"/>
<text text-anchor="middle" x="213" y="-14.3" font-family="Times,serif" font-size="14.00">r rgdal</text>
</a>
</g>
</g>
<!-- gdal&#45;&gt;r&#45;rgdal -->
<g id="edge6" class="edge">
<title>gdal&#45;&gt;r&#45;rgdal</title>
<path fill="none" stroke="black" d="M240.28,-360.26C230.37,-334.02 213,-281.39 213,-235 213,-235 213,-235 213,-161 213,-121 213,-74.65 213,-46.08"/>
<polygon fill="black" stroke="black" points="216.5,-46.05 213,-36.05 209.5,-46.05 216.5,-46.05"/>
</g>
<!-- r&#45;sf -->
<g id="node9" class="node">
<title>r&#45;sf</title>
<g id="a_node9"><a xlink:href="https://github.com/conda-forge/r-sf-feedstock" xlink:title="r sf">
<ellipse fill="#fde725" stroke="black" cx="282" cy="-306" rx="27" ry="18"/>
<text text-anchor="middle" x="282" y="-302.3" font-family="Times,serif" font-size="14.00">r sf</text>
</a>
</g>
</g>
<!-- gdal&#45;&gt;r&#45;sf -->
<g id="edge7" class="edge">
<title>gdal&#45;&gt;r&#45;sf</title>
<path fill="none" stroke="black" d="M255.29,-360.41C259.44,-352.13 264.54,-341.92 269.17,-332.66"/>
<polygon fill="black" stroke="black" points="272.42,-333.98 273.77,-323.47 266.16,-330.85 272.42,-333.98"/>
</g>
<!-- rasterio -->
<g id="node10" class="node">
<title>rasterio</title>
<g id="a_node10"><a xlink:href="https://github.com/conda-forge/rasterio-feedstock" xlink:title="rasterio">
<ellipse fill="#fde725" stroke="black" cx="415" cy="-234" rx="47.5" ry="18"/>
<text text-anchor="middle" x="415" y="-230.3" font-family="Times,serif" font-size="14.00">rasterio</text>
</a>
</g>
</g>
<!-- gdal&#45;&gt;rasterio -->
<g id="edge8" class="edge">
<title>gdal&#45;&gt;rasterio</title>
<path fill="none" stroke="black" d="M265.78,-363.77C280.33,-353.34 300.82,-338.23 318,-324 343.83,-302.6 371.93,-276.48 391.2,-258.09"/>
<polygon fill="black" stroke="black" points="393.84,-260.41 398.64,-250.96 389,-255.36 393.84,-260.41"/>
</g>
<!-- r&#45;gdalcubes -->
<g id="node11" class="node">
<title>r&#45;gdalcubes</title>
<g id="a_node11"><a xlink:href="https://github.com/conda-forge/r-gdalcubes-feedstock" xlink:title="r gdalcubes">
<ellipse fill="#fde725" stroke="black" cx="463" cy="-162" rx="65" ry="18"/>
<text text-anchor="middle" x="463" y="-158.3" font-family="Times,serif" font-size="14.00">r gdalcubes</text>
</a>
</g>
</g>
<!-- gdal&#45;&gt;r&#45;gdalcubes -->
<g id="edge9" class="edge">
<title>gdal&#45;&gt;r&#45;gdalcubes</title>
<path fill="none" stroke="black" d="M275.33,-371.17C325.71,-359.08 429.48,-325.98 471,-252 481.64,-233.05 478.24,-208.2 472.98,-189.57"/>
<polygon fill="black" stroke="black" points="476.29,-188.42 469.94,-179.94 469.61,-190.53 476.29,-188.42"/>
</g>
<!-- r&#45;terra -->
<g id="node12" class="node">
<title>r&#45;terra</title>
<g id="a_node12"><a xlink:href="https://github.com/conda-forge/r-terra-feedstock" xlink:title="r terra">
<ellipse fill="#fde725" stroke="black" cx="556" cy="-90" rx="41.69" ry="18"/>
<text text-anchor="middle" x="556" y="-86.3" font-family="Times,serif" font-size="14.00">r terra</text>
</a>
</g>
</g>
<!-- gdal&#45;&gt;r&#45;terra -->
<g id="edge10" class="edge">
<title>gdal&#45;&gt;r&#45;terra</title>
<path fill="none" stroke="black" d="M276.99,-374.37C316.11,-369.71 385.31,-357.12 434,-324 499.06,-279.74 506.42,-252.5 537,-180 545.33,-160.26 550.16,-136.45 552.87,-118.43"/>
<polygon fill="black" stroke="black" points="556.37,-118.69 554.26,-108.31 549.43,-117.74 556.37,-118.69"/>
</g>
<!-- mapserver -->
<g id="node13" class="node">
<title>mapserver</title>
<g id="a_node13"><a xlink:href="https://github.com/conda-forge/mapserver-feedstock" xlink:title="mapserver">
<ellipse fill="#fde725" stroke="black" cx="626" cy="-18" rx="60.5" ry="18"/>
<text text-anchor="middle" x="626" y="-14.3" font-family="Times,serif" font-size="14.00">mapserver</text>
</a>
</g>
</g>
<!-- gdal&#45;&gt;mapserver -->
<g id="edge11" class="edge">
<title>gdal&#45;&gt;mapserver</title>
<path fill="none" stroke="black" d="M276.42,-372.51C365.47,-358.1 626,-309.57 626,-235 626,-235 626,-235 626,-161 626,-121 626,-74.65 626,-46.08"/>
<polygon fill="black" stroke="black" points="629.5,-46.05 626,-36.05 622.5,-46.05 629.5,-46.05"/>
</g>
<!-- r&#45;lwgeom -->
<g id="node14" class="node">
<title>r&#45;lwgeom</title>
<g id="a_node14"><a xlink:href="https://github.com/conda-forge/r-lwgeom-feedstock" xlink:title="r lwgeom">
<ellipse fill="#fde725" stroke="black" cx="295" cy="-234" rx="54" ry="18"/>
<text text-anchor="middle" x="295" y="-230.3" font-family="Times,serif" font-size="14.00">r lwgeom</text>
</a>
</g>
</g>
<!-- r&#45;sf&#45;&gt;r&#45;lwgeom -->
<g id="edge12" class="edge">
<title>r&#45;sf&#45;&gt;r&#45;lwgeom</title>
<path fill="none" stroke="black" d="M285.15,-288.05C286.58,-280.35 288.31,-271.03 289.92,-262.36"/>
<polygon fill="black" stroke="black" points="293.41,-262.75 291.79,-252.28 286.52,-261.47 293.41,-262.75"/>
</g>
<!-- visan -->
<g id="node16" class="node">
<title>visan</title>
<g id="a_node16"><a xlink:href="https://github.com/conda-forge/visan-feedstock/pull/7" xlink:title="visan ❎">
<ellipse fill="#31688e" stroke="black" cx="744" cy="-90" rx="49.5" ry="18"/>
<text text-anchor="middle" x="744" y="-86.3" font-family="Times,serif" font-size="14.00" fill="white">visan ❎</text>
</a>
</g>
</g>
<!-- fimex&#45;&gt;visan -->
</g>
</svg>
