<?xml version="1.0" encoding="UTF-8" standalone="no"?>
<!DOCTYPE svg PUBLIC "-//W3C//DTD SVG 1.1//EN"
 "http://www.w3.org/Graphics/SVG/1.1/DTD/svg11.dtd">
<!-- Generated by graphviz version 6.0.1 (20220911.2005)
 -->
<!-- Pages: 1 -->
<svg width="3931pt" height="654pt"
 viewBox="0.00 0.00 3931.33 654.16" xmlns="http://www.w3.org/2000/svg" xmlns:xlink="http://www.w3.org/1999/xlink">
<g id="graph0" class="graph" transform="scale(1 1) rotate(0) translate(4 650.16)">
<polygon fill="white" stroke="none" points="-4,4 -4,-650.16 3927.33,-650.16 3927.33,4 -4,4"/>
<!-- pivy -->
<g id="node1" class="node">
<title>pivy</title>
<g id="a_node1"><a xlink:href="https://github.com/conda-forge/pivy-feedstock" xlink:title="pivy">
<ellipse fill="#fde725" stroke="black" cx="3877.83" cy="-323.16" rx="30.59" ry="18"/>
<text text-anchor="middle" x="3877.83" y="-319.46" font-family="Times,serif" font-size="14.00">pivy</text>
</a>
</g>
</g>
<!-- freecad -->
<g id="node2" class="node">
<title>freecad</title>
<g id="a_node2"><a xlink:href="https://github.com/conda-forge/freecad-feedstock" xlink:title="freecad">
<ellipse fill="#fde725" stroke="black" cx="3877.83" cy="-251.16" rx="45.5" ry="18"/>
<text text-anchor="middle" x="3877.83" y="-247.46" font-family="Times,serif" font-size="14.00">freecad</text>
</a>
</g>
</g>
<!-- pivy&#45;&gt;freecad -->
<g id="edge1" class="edge">
<title>pivy&#45;&gt;freecad</title>
<path fill="none" stroke="black" d="M3877.83,-304.86C3877.83,-297.14 3877.83,-287.87 3877.83,-279.27"/>
<polygon fill="black" stroke="black" points="3881.33,-279.27 3877.83,-269.27 3874.33,-279.27 3881.33,-279.27"/>
</g>
<!-- soqt -->
<g id="node3" class="node">
<title>soqt</title>
<g id="a_node3"><a xlink:href="https://github.com/conda-forge/soqt-feedstock" xlink:title="soqt">
<ellipse fill="#000000" stroke="black" cx="3877.83" cy="-395.16" rx="30.59" ry="18"/>
<text text-anchor="middle" x="3877.83" y="-391.46" font-family="Times,serif" font-size="14.00" fill="white">soqt</text>
</a>
</g>
</g>
<!-- soqt&#45;&gt;pivy -->
<g id="edge2" class="edge">
<title>soqt&#45;&gt;pivy</title>
<path fill="none" stroke="black" d="M3877.83,-376.86C3877.83,-369.14 3877.83,-359.87 3877.83,-351.27"/>
<polygon fill="black" stroke="black" points="3881.33,-351.27 3877.83,-341.27 3874.33,-351.27 3881.33,-351.27"/>
</g>
<!-- qtserialport -->
<g id="node4" class="node">
<title>qtserialport</title>
<g id="a_node4"><a xlink:href="https://github.com/conda-forge/qtserialport-feedstock/pull/6" xlink:title="qtserialport ❎">
<ellipse fill="#31688e" stroke="black" cx="3730.83" cy="-539.16" rx="80" ry="18"/>
<text text-anchor="middle" x="3730.83" y="-535.46" font-family="Times,serif" font-size="14.00" fill="white">qtserialport ❎</text>
</a>
</g>
</g>
<!-- lxqt&#45;build&#45;tools -->
<g id="node5" class="node">
<title>lxqt&#45;build&#45;tools</title>
<g id="a_node5"><a xlink:href="https://github.com/conda-forge/lxqt-build-tools-feedstock/pull/6" xlink:title="lxqt build tools ✓">
<ellipse fill="#31688e" stroke="black" cx="3730.83" cy="-467.16" rx="87.99" ry="18"/>
<text text-anchor="middle" x="3730.83" y="-463.46" font-family="Times,serif" font-size="14.00" fill="white">lxqt build tools ✓</text>
</a>
</g>
</g>
<!-- qtserialport&#45;&gt;lxqt&#45;build&#45;tools -->
<!-- jkqtplotter -->
<g id="node6" class="node">
<title>jkqtplotter</title>
<g id="a_node6"><a xlink:href="https://github.com/conda-forge/jkqtplotter-feedstock/pull/5" xlink:title="jkqtplotter ❎">
<ellipse fill="#31688e" stroke="black" cx="3730.83" cy="-395.16" rx="74.99" ry="18"/>
<text text-anchor="middle" x="3730.83" y="-391.46" font-family="Times,serif" font-size="14.00" fill="white">jkqtplotter ❎</text>
</a>
</g>
</g>
<!-- lxqt&#45;build&#45;tools&#45;&gt;jkqtplotter -->
<!-- prismatic_split -->
<g id="node43" class="node">
<title>prismatic_split</title>
<g id="a_node43"><a xlink:href="https://github.com/conda-forge/prismatic_split-feedstock/pull/29" xlink:title="prismatic_split ❎">
<ellipse fill="#31688e" stroke="black" cx="3730.83" cy="-323.16" rx="93.68" ry="18"/>
<text text-anchor="middle" x="3730.83" y="-319.46" font-family="Times,serif" font-size="14.00" fill="white">prismatic_split ❎</text>
</a>
</g>
</g>
<!-- jkqtplotter&#45;&gt;prismatic_split -->
<!-- ki18n -->
<g id="node7" class="node">
<title>ki18n</title>
<g id="a_node7"><a xlink:href="https://github.com/conda-forge/ki18n-feedstock/pull/19" xlink:title="ki18n ❎">
<ellipse fill="#31688e" stroke="black" cx="630.83" cy="-556.16" rx="50.89" ry="18"/>
<text text-anchor="middle" x="630.83" y="-552.46" font-family="Times,serif" font-size="14.00" fill="white">ki18n ❎</text>
</a>
</g>
</g>
<!-- kconfigwidgets -->
<g id="node8" class="node">
<title>kconfigwidgets</title>
<g id="a_node8"><a xlink:href="https://github.com/conda-forge/kconfigwidgets-feedstock" xlink:title="kconfigwidgets">
<ellipse fill="#fde725" stroke="black" cx="1938.83" cy="-484.16" rx="80.69" ry="18"/>
<text text-anchor="middle" x="1938.83" y="-480.46" font-family="Times,serif" font-size="14.00">kconfigwidgets</text>
</a>
</g>
</g>
<!-- ki18n&#45;&gt;kconfigwidgets -->
<g id="edge5" class="edge">
<title>ki18n&#45;&gt;kconfigwidgets</title>
<path fill="none" stroke="black" d="M681.26,-553.82C841.22,-549.36 1351.48,-533.49 1772.83,-502.16 1800.88,-500.08 1831.53,-497.13 1858.78,-494.27"/>
<polygon fill="black" stroke="black" points="1859.47,-497.72 1869.04,-493.18 1858.73,-490.76 1859.47,-497.72"/>
</g>
<!-- kiconthemes -->
<g id="node9" class="node">
<title>kiconthemes</title>
<g id="a_node9"><a xlink:href="https://github.com/conda-forge/kiconthemes-feedstock" xlink:title="kiconthemes">
<ellipse fill="#fde725" stroke="black" cx="937.83" cy="-412.16" rx="69.59" ry="18"/>
<text text-anchor="middle" x="937.83" y="-408.46" font-family="Times,serif" font-size="14.00">kiconthemes</text>
</a>
</g>
</g>
<!-- ki18n&#45;&gt;kiconthemes -->
<g id="edge6" class="edge">
<title>ki18n&#45;&gt;kiconthemes</title>
<path fill="none" stroke="black" d="M681.53,-555.42C735.21,-553.33 820.25,-543.05 879.83,-502.16 902.18,-486.83 917.98,-459.77 927.39,-439.5"/>
<polygon fill="black" stroke="black" points="930.67,-440.74 931.49,-430.18 924.26,-437.92 930.67,-440.74"/>
</g>
<!-- kservice -->
<g id="node10" class="node">
<title>kservice</title>
<g id="a_node10"><a xlink:href="https://github.com/conda-forge/kservice-feedstock" xlink:title="kservice">
<ellipse fill="#fde725" stroke="black" cx="2201.83" cy="-484.16" rx="49.5" ry="18"/>
<text text-anchor="middle" x="2201.83" y="-480.46" font-family="Times,serif" font-size="14.00">kservice</text>
</a>
</g>
</g>
<!-- ki18n&#45;&gt;kservice -->
<g id="edge7" class="edge">
<title>ki18n&#45;&gt;kservice</title>
<path fill="none" stroke="black" d="M681.06,-553.66C898.36,-547.12 1758.64,-520.54 2028.83,-502.16 2067.71,-499.52 2111.39,-495.21 2145.13,-491.6"/>
<polygon fill="black" stroke="black" points="2145.7,-495.06 2155.27,-490.5 2144.95,-488.1 2145.7,-495.06"/>
</g>
<!-- ktextwidgets -->
<g id="node11" class="node">
<title>ktextwidgets</title>
<g id="a_node11"><a xlink:href="https://github.com/conda-forge/ktextwidgets-feedstock" xlink:title="ktextwidgets">
<ellipse fill="#fde725" stroke="black" cx="1713.83" cy="-412.16" rx="71.5" ry="18"/>
<text text-anchor="middle" x="1713.83" y="-408.46" font-family="Times,serif" font-size="14.00">ktextwidgets</text>
</a>
</g>
</g>
<!-- ki18n&#45;&gt;ktextwidgets -->
<g id="edge8" class="edge">
<title>ki18n&#45;&gt;ktextwidgets</title>
<path fill="none" stroke="black" d="M678.91,-550.37C764.47,-541.72 948.77,-522.47 1103.83,-502.16 1210.78,-488.15 1237.11,-481.81 1343.83,-466.16 1447.77,-450.92 1568.21,-433.76 1642.72,-423.21"/>
<polygon fill="black" stroke="black" points="1643.51,-426.63 1652.92,-421.76 1642.53,-419.7 1643.51,-426.63"/>
</g>
<!-- kxmlgui -->
<g id="node12" class="node">
<title>kxmlgui</title>
<g id="a_node12"><a xlink:href="https://github.com/conda-forge/kxmlgui-feedstock" xlink:title="kxmlgui">
<ellipse fill="#fde725" stroke="black" cx="1257.83" cy="-340.16" rx="48.19" ry="18"/>
<text text-anchor="middle" x="1257.83" y="-336.46" font-family="Times,serif" font-size="14.00">kxmlgui</text>
</a>
</g>
</g>
<!-- ki18n&#45;&gt;kxmlgui -->
<g id="edge9" class="edge">
<title>ki18n&#45;&gt;kxmlgui</title>
<path fill="none" stroke="black" d="M678.75,-550.07C801.74,-536.18 1124.79,-494.35 1208.83,-430.16 1229.21,-414.59 1242.25,-387.99 1249.71,-367.91"/>
<polygon fill="black" stroke="black" points="1253.05,-368.98 1253.02,-358.38 1246.43,-366.68 1253.05,-368.98"/>
</g>
<!-- kio -->
<g id="node13" class="node">
<title>kio</title>
<g id="a_node13"><a xlink:href="https://github.com/conda-forge/kio-feedstock" xlink:title="kio">
<ellipse fill="#fde725" stroke="black" cx="1770.83" cy="-196.16" rx="27" ry="18"/>
<text text-anchor="middle" x="1770.83" y="-192.46" font-family="Times,serif" font-size="14.00">kio</text>
</a>
</g>
</g>
<!-- ki18n&#45;&gt;kio -->
<g id="edge10" class="edge">
<title>ki18n&#45;&gt;kio</title>
<path fill="none" stroke="black" d="M642.73,-538.46C656.71,-519.55 681.27,-488.48 706.83,-466.16 751.41,-427.25 764.78,-418.25 818.83,-394.16 874.18,-369.49 1022.34,-333.68 1081.83,-322.16 1218.44,-295.71 1262,-333.53 1392.83,-286.16 1420.3,-276.22 1420.6,-260.76 1447.83,-250.16 1546.25,-211.86 1671.99,-201.24 1733.52,-198.29"/>
<polygon fill="black" stroke="black" points="1734.05,-201.77 1743.89,-197.84 1733.75,-194.78 1734.05,-201.77"/>
</g>
<!-- kpackage -->
<g id="node14" class="node">
<title>kpackage</title>
<g id="a_node14"><a xlink:href="https://github.com/conda-forge/kpackage-feedstock" xlink:title="kpackage">
<ellipse fill="#fde725" stroke="black" cx="605.83" cy="-412.16" rx="54" ry="18"/>
<text text-anchor="middle" x="605.83" y="-408.46" font-family="Times,serif" font-size="14.00">kpackage</text>
</a>
</g>
</g>
<!-- ki18n&#45;&gt;kpackage -->
<g id="edge11" class="edge">
<title>ki18n&#45;&gt;kpackage</title>
<path fill="none" stroke="black" d="M601.22,-541.44C585.85,-532.6 568.52,-519.49 559.83,-502.16 552.66,-487.86 554.23,-481.15 559.83,-466.16 563.94,-455.15 571.49,-444.91 579.29,-436.43"/>
<polygon fill="black" stroke="black" points="581.93,-438.74 586.45,-429.16 576.94,-433.83 581.93,-438.74"/>
</g>
<!-- kwallet -->
<g id="node15" class="node">
<title>kwallet</title>
<g id="a_node15"><a xlink:href="https://github.com/conda-forge/kwallet-feedstock" xlink:title="kwallet">
<ellipse fill="#fde725" stroke="black" cx="1885.83" cy="-412.16" rx="44.39" ry="18"/>
<text text-anchor="middle" x="1885.83" y="-408.46" font-family="Times,serif" font-size="14.00">kwallet</text>
</a>
</g>
</g>
<!-- ki18n&#45;&gt;kwallet -->
<g id="edge12" class="edge">
<title>ki18n&#45;&gt;kwallet</title>
<path fill="none" stroke="black" d="M680.62,-552.75C784.58,-547.29 1032.13,-532.08 1237.83,-502.16 1316.84,-490.67 1334.86,-477.93 1413.83,-466.16 1582.06,-441.08 1626.39,-453.8 1794.83,-430.16 1808.65,-428.22 1823.57,-425.64 1837.25,-423.08"/>
<polygon fill="black" stroke="black" points="1838.27,-426.45 1847.43,-421.13 1836.95,-419.57 1838.27,-426.45"/>
</g>
<!-- kfilemetadata -->
<g id="node16" class="node">
<title>kfilemetadata</title>
<g id="a_node16"><a xlink:href="https://github.com/conda-forge/kfilemetadata-feedstock" xlink:title="kfilemetadata">
<ellipse fill="#fde725" stroke="black" cx="231.83" cy="-412.16" rx="74.19" ry="18"/>
<text text-anchor="middle" x="231.83" y="-408.46" font-family="Times,serif" font-size="14.00">kfilemetadata</text>
</a>
</g>
</g>
<!-- ki18n&#45;&gt;kfilemetadata -->
<g id="edge13" class="edge">
<title>ki18n&#45;&gt;kfilemetadata</title>
<path fill="none" stroke="black" d="M580.2,-554.21C490.89,-551.52 310.27,-541.27 262.83,-502.16 244.53,-487.08 237.01,-460.54 233.94,-440.36"/>
<polygon fill="black" stroke="black" points="237.38,-439.69 232.67,-430.2 230.43,-440.55 237.38,-439.69"/>
</g>
<!-- knotifyconfig -->
<g id="node17" class="node">
<title>knotifyconfig</title>
<g id="a_node17"><a xlink:href="https://github.com/conda-forge/knotifyconfig-feedstock" xlink:title="knotifyconfig">
<ellipse fill="#fde725" stroke="black" cx="1318.83" cy="-124.16" rx="71" ry="18"/>
<text text-anchor="middle" x="1318.83" y="-120.46" font-family="Times,serif" font-size="14.00">knotifyconfig</text>
</a>
</g>
</g>
<!-- ki18n&#45;&gt;knotifyconfig -->
<g id="edge14" class="edge">
<title>ki18n&#45;&gt;knotifyconfig</title>
<path fill="none" stroke="black" d="M616.41,-538.87C601.86,-520.34 583.43,-489.61 597.83,-466.16 616.35,-436.01 639.3,-449.64 668.83,-430.16 689.63,-416.44 690.67,-407.34 711.83,-394.16 904.67,-274.04 1160.37,-179.43 1267.84,-142.25"/>
<polygon fill="black" stroke="black" points="1269.15,-145.51 1277.46,-138.94 1266.87,-138.89 1269.15,-145.51"/>
</g>
<!-- purpose -->
<g id="node18" class="node">
<title>purpose</title>
<g id="a_node18"><a xlink:href="https://github.com/conda-forge/purpose-feedstock" xlink:title="purpose">
<ellipse fill="#fde725" stroke="black" cx="561.83" cy="-124.16" rx="48.19" ry="18"/>
<text text-anchor="middle" x="561.83" y="-120.46" font-family="Times,serif" font-size="14.00">purpose</text>
</a>
</g>
</g>
<!-- ki18n&#45;&gt;purpose -->
<g id="edge15" class="edge">
<title>ki18n&#45;&gt;purpose</title>
<path fill="none" stroke="black" d="M579.79,-555.39C471.32,-554.94 222.18,-548.71 153.83,-502.16 123.92,-481.79 124.53,-465.28 115.83,-430.16 111.98,-414.63 111.98,-409.69 115.83,-394.16 130.03,-336.81 219.98,-208.25 270.83,-178.16 309.77,-155.12 432.98,-138.69 505.99,-130.68"/>
<polygon fill="black" stroke="black" points="506.38,-134.16 515.95,-129.61 505.63,-127.2 506.38,-134.16"/>
</g>
<!-- knewstuff -->
<g id="node19" class="node">
<title>knewstuff</title>
<g id="a_node19"><a xlink:href="https://github.com/conda-forge/knewstuff-feedstock" xlink:title="knewstuff">
<ellipse fill="#fde725" stroke="black" cx="945.83" cy="-124.16" rx="56" ry="18"/>
<text text-anchor="middle" x="945.83" y="-120.46" font-family="Times,serif" font-size="14.00">knewstuff</text>
</a>
</g>
</g>
<!-- ki18n&#45;&gt;knewstuff -->
<g id="edge16" class="edge">
<title>ki18n&#45;&gt;knewstuff</title>
<path fill="none" stroke="black" d="M581.38,-551.88C489.84,-545.26 297.76,-528.62 236.83,-502.16 180.04,-477.5 115.52,-446.36 148.83,-394.16 210.12,-298.11 504.87,-211.46 613.83,-178.16 704.62,-150.42 814.06,-136.53 881.81,-130.1"/>
<polygon fill="black" stroke="black" points="882.27,-133.57 891.9,-129.16 881.62,-126.6 882.27,-133.57"/>
</g>
<!-- kdeclarative -->
<g id="node20" class="node">
<title>kdeclarative</title>
<g id="a_node20"><a xlink:href="https://github.com/conda-forge/kdeclarative-feedstock" xlink:title="kdeclarative">
<ellipse fill="#fde725" stroke="black" cx="1770.83" cy="-124.16" rx="67.69" ry="18"/>
<text text-anchor="middle" x="1770.83" y="-120.46" font-family="Times,serif" font-size="14.00">kdeclarative</text>
</a>
</g>
</g>
<!-- ki18n&#45;&gt;kdeclarative -->
<g id="edge17" class="edge">
<title>ki18n&#45;&gt;kdeclarative</title>
<path fill="none" stroke="black" d="M635.74,-537.99C641.63,-519.2 652.78,-488.76 668.83,-466.16 675.71,-456.48 737.65,-400.29 747.83,-394.16 752.9,-391.11 1143.12,-251.71 1148.83,-250.16 1233.05,-227.34 1257.41,-236.25 1341.83,-214.16 1389.96,-201.57 1399.56,-190.23 1447.83,-178.16 1533.39,-156.77 1633.92,-141.84 1699.82,-133.39"/>
<polygon fill="black" stroke="black" points="1700.62,-136.82 1710.1,-132.09 1699.74,-129.88 1700.62,-136.82"/>
</g>
<!-- kdenlive -->
<g id="node21" class="node">
<title>kdenlive</title>
<g id="a_node21"><a xlink:href="https://github.com/conda-forge/kdenlive-feedstock" xlink:title="kdenlive">
<ellipse fill="#fde725" stroke="black" cx="1417.83" cy="-52.16" rx="50.09" ry="18"/>
<text text-anchor="middle" x="1417.83" y="-48.46" font-family="Times,serif" font-size="14.00">kdenlive</text>
</a>
</g>
</g>
<!-- ki18n&#45;&gt;kdenlive -->
<g id="edge18" class="edge">
<title>ki18n&#45;&gt;kdenlive</title>
<path fill="none" stroke="black" d="M580.16,-555.29C467.06,-554.73 197.94,-548.42 121.83,-502.16 48.62,-457.66 15.83,-426.83 15.83,-341.16 15.83,-341.16 15.83,-341.16 15.83,-195.16 15.83,-150.84 23.53,-130.11 60.83,-106.16 116.05,-70.7 1101.8,-56.83 1357.6,-53.82"/>
<polygon fill="black" stroke="black" points="1357.85,-57.32 1367.81,-53.7 1357.77,-50.32 1357.85,-57.32"/>
</g>
<!-- kconfigwidgets&#45;&gt;kiconthemes -->
<g id="edge19" class="edge">
<title>kconfigwidgets&#45;&gt;kiconthemes</title>
<path fill="none" stroke="black" d="M1868.63,-475.16C1839.08,-472 1804.32,-468.56 1772.83,-466.16 1454.69,-441.9 1373.41,-460.94 1055.83,-430.16 1039.37,-428.57 1021.68,-426.31 1005.15,-423.96"/>
<polygon fill="black" stroke="black" points="1005.42,-420.46 995.02,-422.49 1004.41,-427.39 1005.42,-420.46"/>
</g>
<!-- kconfigwidgets&#45;&gt;ktextwidgets -->
<g id="edge20" class="edge">
<title>kconfigwidgets&#45;&gt;ktextwidgets</title>
<path fill="none" stroke="black" d="M1893.84,-469.16C1857.34,-457.81 1805.81,-441.78 1767.23,-429.77"/>
<polygon fill="black" stroke="black" points="1767.8,-426.29 1757.21,-426.66 1765.72,-432.97 1767.8,-426.29"/>
</g>
<!-- kconfigwidgets&#45;&gt;kxmlgui -->
<g id="edge21" class="edge">
<title>kconfigwidgets&#45;&gt;kxmlgui</title>
<path fill="none" stroke="black" d="M1874.97,-473.08C1813.13,-463.08 1716.81,-446.87 1633.83,-430.16 1493.47,-401.9 1458.68,-393.1 1319.83,-358.16 1314.95,-356.93 1309.86,-355.61 1304.8,-354.26"/>
<polygon fill="black" stroke="black" points="1305.7,-350.88 1295.14,-351.67 1303.89,-357.64 1305.7,-350.88"/>
</g>
<!-- kconfigwidgets&#45;&gt;kio -->
<g id="edge22" class="edge">
<title>kconfigwidgets&#45;&gt;kio</title>
<path fill="none" stroke="black" d="M1942.15,-465.86C1944.92,-447.5 1947.21,-417.91 1938.83,-394.16 1911.19,-315.8 1835.87,-247.89 1796.14,-216.2"/>
<polygon fill="black" stroke="black" points="1798.26,-213.41 1788.23,-209.99 1793.94,-218.92 1798.26,-213.41"/>
</g>
<!-- kconfigwidgets&#45;&gt;kwallet -->
<g id="edge23" class="edge">
<title>kconfigwidgets&#45;&gt;kwallet</title>
<path fill="none" stroke="black" d="M1926,-466.22C1919.53,-457.67 1911.55,-447.14 1904.42,-437.72"/>
<polygon fill="black" stroke="black" points="1907,-435.33 1898.18,-429.47 1901.42,-439.55 1907,-435.33"/>
</g>
<!-- kconfigwidgets&#45;&gt;kdenlive -->
<g id="edge24" class="edge">
<title>kconfigwidgets&#45;&gt;kdenlive</title>
<path fill="none" stroke="black" d="M1902.01,-467.99C1880.9,-458.52 1854.4,-445.27 1832.83,-430.16 1813.77,-416.81 1811.73,-410.15 1794.83,-394.16 1659.38,-266.05 1632.95,-225.65 1489.83,-106.16 1476.63,-95.15 1461.38,-83.74 1448.32,-74.35"/>
<polygon fill="black" stroke="black" points="1450.27,-71.44 1440.1,-68.49 1446.21,-77.14 1450.27,-71.44"/>
</g>
<!-- kbookmarks -->
<g id="node22" class="node">
<title>kbookmarks</title>
<g id="a_node22"><a xlink:href="https://github.com/conda-forge/kbookmarks-feedstock" xlink:title="kbookmarks">
<ellipse fill="#fde725" stroke="black" cx="2052.83" cy="-268.16" rx="67" ry="18"/>
<text text-anchor="middle" x="2052.83" y="-264.46" font-family="Times,serif" font-size="14.00">kbookmarks</text>
</a>
</g>
</g>
<!-- kconfigwidgets&#45;&gt;kbookmarks -->
<g id="edge25" class="edge">
<title>kconfigwidgets&#45;&gt;kbookmarks</title>
<path fill="none" stroke="black" d="M1968.53,-467.35C1982.96,-458.26 1999.39,-445.57 2009.83,-430.16 2037.79,-388.88 2047.59,-330.21 2051.01,-296.27"/>
<polygon fill="black" stroke="black" points="2054.51,-296.45 2051.91,-286.18 2047.54,-295.83 2054.51,-296.45"/>
</g>
<!-- kiconthemes&#45;&gt;kxmlgui -->
<g id="edge26" class="edge">
<title>kiconthemes&#45;&gt;kxmlgui</title>
<path fill="none" stroke="black" d="M989.24,-399.92C1049.2,-386.8 1147.68,-365.26 1207.27,-352.22"/>
<polygon fill="black" stroke="black" points="1208.18,-355.61 1217.2,-350.05 1206.69,-348.77 1208.18,-355.61"/>
</g>
<!-- kiconthemes&#45;&gt;kio -->
<g id="edge27" class="edge">
<title>kiconthemes&#45;&gt;kio</title>
<path fill="none" stroke="black" d="M985.92,-399.06C1022.94,-389.28 1075.17,-374.5 1119.83,-358.16 1156.83,-344.62 1162.88,-332.74 1200.83,-322.16 1323.81,-287.87 1363.27,-321.94 1485.83,-286.16 1521.71,-275.69 1526.66,-262.81 1561.83,-250.16 1621.25,-228.78 1693.12,-212.56 1735.22,-203.99"/>
<polygon fill="black" stroke="black" points="1736.15,-207.37 1745.26,-201.98 1734.77,-200.51 1736.15,-207.37"/>
</g>
<!-- kiconthemes&#45;&gt;knewstuff -->
<g id="edge28" class="edge">
<title>kiconthemes&#45;&gt;knewstuff</title>
<path fill="none" stroke="black" d="M915.35,-394.74C888.14,-373.31 843.73,-332.97 825.83,-286.16 808.68,-241.33 799.63,-218.38 825.83,-178.16 839.7,-156.87 864.27,-144.07 887.58,-136.41"/>
<polygon fill="black" stroke="black" points="888.9,-139.67 897.46,-133.43 886.87,-132.97 888.9,-139.67"/>
</g>
<!-- kiconthemes&#45;&gt;kdeclarative -->
<g id="edge29" class="edge">
<title>kiconthemes&#45;&gt;kdeclarative</title>
<path fill="none" stroke="black" d="M961.67,-395C1011.17,-362.26 1129.68,-287.96 1239.83,-250.16 1328.57,-219.71 1361.69,-251.34 1447.83,-214.16 1472.31,-203.59 1471.45,-188.96 1495.83,-178.16 1559.89,-149.79 1638.96,-136.56 1695.85,-130.42"/>
<polygon fill="black" stroke="black" points="1696.26,-133.9 1705.85,-129.39 1695.55,-126.94 1696.26,-133.9"/>
</g>
<!-- kiconthemes&#45;&gt;kdenlive -->
<g id="edge30" class="edge">
<title>kiconthemes&#45;&gt;kdenlive</title>
<path fill="none" stroke="black" d="M910.28,-395.42C851.16,-362.43 706.83,-286.13 575.83,-250.16 441.52,-213.28 188.08,-290.2 270.83,-178.16 335.47,-90.63 397.74,-125.45 504.83,-106.16 669.53,-76.49 1182.05,-59.75 1357.9,-54.76"/>
<polygon fill="black" stroke="black" points="1358.1,-58.26 1368,-54.48 1357.91,-51.26 1358.1,-58.26"/>
</g>
<!-- kservice&#45;&gt;ktextwidgets -->
<g id="edge31" class="edge">
<title>kservice&#45;&gt;ktextwidgets</title>
<path fill="none" stroke="black" d="M2156.36,-476.64C2071.03,-464.4 1886.37,-437.91 1784.63,-423.32"/>
<polygon fill="black" stroke="black" points="1784.85,-419.81 1774.45,-421.86 1783.86,-426.74 1784.85,-419.81"/>
</g>
<!-- kservice&#45;&gt;kio -->
<g id="edge32" class="edge">
<title>kservice&#45;&gt;kio</title>
<path fill="none" stroke="black" d="M2208.3,-466.16C2223.26,-423.69 2254.89,-311.9 2199.83,-250.16 2173.87,-221.05 1907.08,-204.26 1807.79,-198.99"/>
<polygon fill="black" stroke="black" points="1807.79,-195.48 1797.62,-198.46 1807.43,-202.47 1807.79,-195.48"/>
</g>
<!-- kservice&#45;&gt;kwallet -->
<g id="edge33" class="edge">
<title>kservice&#45;&gt;kwallet</title>
<path fill="none" stroke="black" d="M2158.22,-475.34C2106.72,-465.84 2018.6,-448.77 1943.83,-430.16 1939.23,-429.02 1934.46,-427.75 1929.71,-426.44"/>
<polygon fill="black" stroke="black" points="1930.63,-423.06 1920.05,-423.7 1928.72,-429.79 1930.63,-423.06"/>
</g>
<!-- kservice&#45;&gt;knewstuff -->
<g id="edge34" class="edge">
<title>kservice&#45;&gt;knewstuff</title>
<path fill="none" stroke="black" d="M2215.8,-466.64C2223.37,-456.72 2232.12,-443.47 2236.83,-430.16 2263.6,-354.55 2283.31,-303.97 2223.83,-250.16 2084.36,-123.98 1993.64,-199.97 1806.83,-178.16 1767.44,-173.56 1203.69,-140.28 1010.35,-128.94"/>
<polygon fill="black" stroke="black" points="1010.52,-125.44 1000.33,-128.35 1010.11,-132.43 1010.52,-125.44"/>
</g>
<!-- kservice&#45;&gt;kdeclarative -->
<g id="edge35" class="edge">
<title>kservice&#45;&gt;kdeclarative</title>
<path fill="none" stroke="black" d="M2227.79,-468.75C2243.16,-459.27 2262.22,-445.76 2275.83,-430.16 2350.3,-344.82 2389.93,-262.05 2313.83,-178.16 2283.15,-144.35 1990.7,-131.4 1848.16,-127.07"/>
<polygon fill="black" stroke="black" points="1847.85,-123.56 1837.75,-126.77 1847.64,-130.56 1847.85,-123.56"/>
</g>
<!-- kservice&#45;&gt;kdenlive -->
<g id="edge36" class="edge">
<title>kservice&#45;&gt;kdenlive</title>
<path fill="none" stroke="black" d="M2235.74,-470.75C2256.99,-461.79 2284.01,-448.11 2303.83,-430.16 2366.77,-373.17 2418.41,-318.35 2367.83,-250.16 2260.48,-105.45 1669.08,-65.03 1477.64,-55.65"/>
<polygon fill="black" stroke="black" points="1477.65,-52.14 1467.49,-55.16 1477.31,-59.14 1477.65,-52.14"/>
</g>
<!-- ktextwidgets&#45;&gt;kxmlgui -->
<g id="edge37" class="edge">
<title>ktextwidgets&#45;&gt;kxmlgui</title>
<path fill="none" stroke="black" d="M1647.85,-405.01C1569.23,-397.06 1434.13,-381.41 1319.83,-358.16 1314.76,-357.13 1309.5,-355.92 1304.28,-354.62"/>
<polygon fill="black" stroke="black" points="1304.91,-351.17 1294.35,-352.05 1303.16,-357.94 1304.91,-351.17"/>
</g>
<!-- ktextwidgets&#45;&gt;kio -->
<g id="edge38" class="edge">
<title>ktextwidgets&#45;&gt;kio</title>
<path fill="none" stroke="black" d="M1719.58,-393.9C1727.47,-369.91 1741.79,-325.03 1751.83,-286.16 1757.13,-265.64 1762.09,-242.18 1765.62,-224.51"/>
<polygon fill="black" stroke="black" points="1769.12,-224.81 1767.61,-214.32 1762.25,-223.46 1769.12,-224.81"/>
</g>
<!-- ktextwidgets&#45;&gt;knewstuff -->
<g id="edge39" class="edge">
<title>ktextwidgets&#45;&gt;knewstuff</title>
<path fill="none" stroke="black" d="M1657.69,-400.97C1567.5,-383.58 1385.68,-344.32 1239.83,-286.16 1139.68,-246.23 1030.49,-179.76 977.81,-146.09"/>
<polygon fill="black" stroke="black" points="979.55,-143.05 969.25,-140.59 975.77,-148.94 979.55,-143.05"/>
</g>
<!-- ktextwidgets&#45;&gt;kdenlive -->
<g id="edge40" class="edge">
<title>ktextwidgets&#45;&gt;kdenlive</title>
<path fill="none" stroke="black" d="M1699.67,-394.2C1679.64,-370.18 1641.88,-324.87 1609.83,-286.16 1546.84,-210.08 1472.55,-119.76 1437.73,-77.39"/>
<polygon fill="black" stroke="black" points="1440.36,-75.07 1431.3,-69.57 1434.95,-79.52 1440.36,-75.07"/>
</g>
<!-- kxmlgui&#45;&gt;kio -->
<g id="edge41" class="edge">
<title>kxmlgui&#45;&gt;kio</title>
<path fill="none" stroke="black" d="M1303.65,-334.5C1363.81,-327.63 1472.31,-312.64 1561.83,-286.16 1566.38,-284.82 1682.11,-235.24 1739.36,-210.67"/>
<polygon fill="black" stroke="black" points="1740.86,-213.84 1748.67,-206.68 1738.1,-207.4 1740.86,-213.84"/>
</g>
<!-- kxmlgui&#45;&gt;knewstuff -->
<g id="edge42" class="edge">
<title>kxmlgui&#45;&gt;knewstuff</title>
<path fill="none" stroke="black" d="M1220.89,-328.58C1212.67,-326.35 1203.98,-324.09 1195.83,-322.16 1116.44,-303.36 1079.32,-337.4 1015.83,-286.16 1013.02,-283.89 975.95,-196.62 956.93,-151.54"/>
<polygon fill="black" stroke="black" points="960.06,-149.94 952.95,-142.09 953.61,-152.66 960.06,-149.94"/>
</g>
<!-- kxmlgui&#45;&gt;kdenlive -->
<g id="edge43" class="edge">
<title>kxmlgui&#45;&gt;kdenlive</title>
<path fill="none" stroke="black" d="M1220.56,-328.75C1186.67,-318.45 1140.39,-301.96 1129.83,-286.16 1085.38,-219.65 1078.64,-167.64 1129.83,-106.16 1158.26,-72.02 1282.11,-59.79 1357.84,-55.47"/>
<polygon fill="black" stroke="black" points="1358.39,-58.95 1368.19,-54.91 1358.02,-51.96 1358.39,-58.95"/>
</g>
<!-- kxmlgui&#45;&gt;kbookmarks -->
<g id="edge44" class="edge">
<title>kxmlgui&#45;&gt;kbookmarks</title>
<path fill="none" stroke="black" d="M1304.01,-335.1C1436.55,-323.42 1818.99,-289.75 1980,-275.57"/>
<polygon fill="black" stroke="black" points="1980.63,-279.03 1990.28,-274.67 1980.01,-272.06 1980.63,-279.03"/>
</g>
<!-- kio&#45;&gt;knotifyconfig -->
<g id="edge45" class="edge">
<title>kio&#45;&gt;knotifyconfig</title>
<path fill="none" stroke="black" d="M1744.57,-191.1C1675.92,-180.46 1489.36,-151.57 1387.49,-135.79"/>
<polygon fill="black" stroke="black" points="1388.02,-132.33 1377.6,-134.26 1386.94,-139.25 1388.02,-132.33"/>
</g>
<!-- kio&#45;&gt;purpose -->
<g id="edge46" class="edge">
<title>kio&#45;&gt;purpose</title>
<path fill="none" stroke="black" d="M1743.88,-193.6C1591.25,-184.76 834.45,-140.95 619.09,-128.48"/>
<polygon fill="black" stroke="black" points="619.14,-124.97 608.95,-127.89 618.73,-131.96 619.14,-124.97"/>
</g>
<!-- kio&#45;&gt;knewstuff -->
<g id="edge47" class="edge">
<title>kio&#45;&gt;knewstuff</title>
<path fill="none" stroke="black" d="M1743.85,-192.87C1628.79,-183.11 1177.37,-144.81 1009.31,-130.55"/>
<polygon fill="black" stroke="black" points="1009.4,-127.04 999.14,-129.68 1008.81,-134.02 1009.4,-127.04"/>
</g>
<!-- kio&#45;&gt;kdeclarative -->
<g id="edge48" class="edge">
<title>kio&#45;&gt;kdeclarative</title>
<path fill="none" stroke="black" d="M1770.83,-177.86C1770.83,-170.14 1770.83,-160.87 1770.83,-152.27"/>
<polygon fill="black" stroke="black" points="1774.33,-152.27 1770.83,-142.27 1767.33,-152.27 1774.33,-152.27"/>
</g>
<!-- kio&#45;&gt;kdenlive -->
<g id="edge49" class="edge">
<title>kio&#45;&gt;kdenlive</title>
<path fill="none" stroke="black" d="M1752.56,-182.69C1717.58,-158.84 1644.02,-108.87 1637.83,-106.16 1584.64,-82.85 1519.52,-68.79 1473.99,-61.07"/>
<polygon fill="black" stroke="black" points="1474.44,-57.59 1464.01,-59.42 1473.31,-64.5 1474.44,-57.59"/>
</g>
<!-- kpackage&#45;&gt;knewstuff -->
<g id="edge50" class="edge">
<title>kpackage&#45;&gt;knewstuff</title>
<path fill="none" stroke="black" d="M607.39,-393.96C612.3,-350.52 631.42,-235.75 699.83,-178.16 727.14,-155.17 819.81,-139.94 883.28,-131.92"/>
<polygon fill="black" stroke="black" points="884.09,-135.35 893.59,-130.65 883.23,-128.4 884.09,-135.35"/>
</g>
<!-- kpackage&#45;&gt;kdeclarative -->
<g id="edge51" class="edge">
<title>kpackage&#45;&gt;kdeclarative</title>
<path fill="none" stroke="black" d="M640.52,-398.29C719.7,-369.2 920.19,-297.29 1091.83,-250.16 1235.75,-210.64 1273.07,-205.32 1419.83,-178.16 1517.15,-160.15 1630.51,-143.88 1701.47,-134.25"/>
<polygon fill="black" stroke="black" points="1702.19,-137.69 1711.63,-132.88 1701.25,-130.75 1702.19,-137.69"/>
</g>
<!-- kwallet&#45;&gt;kio -->
<g id="edge52" class="edge">
<title>kwallet&#45;&gt;kio</title>
<path fill="none" stroke="black" d="M1876.81,-394.37C1856.68,-356.92 1808.03,-266.38 1784.3,-222.22"/>
<polygon fill="black" stroke="black" points="1787.31,-220.44 1779.5,-213.29 1781.15,-223.76 1787.31,-220.44"/>
</g>
<!-- kfilemetadata&#45;&gt;kdenlive -->
<g id="edge53" class="edge">
<title>kfilemetadata&#45;&gt;kdenlive</title>
<path fill="none" stroke="black" d="M211.93,-394.48C154.84,-344.76 0,-195.47 85.83,-106.16 130.41,-59.77 1102.98,-53.98 1357.38,-53.26"/>
<polygon fill="black" stroke="black" points="1357.55,-56.76 1367.54,-53.24 1357.53,-49.76 1357.55,-56.76"/>
</g>
<!-- knotifyconfig&#45;&gt;kdenlive -->
<g id="edge54" class="edge">
<title>knotifyconfig&#45;&gt;kdenlive</title>
<path fill="none" stroke="black" d="M1341.79,-106.93C1355.45,-97.27 1372.93,-84.91 1387.69,-74.47"/>
<polygon fill="black" stroke="black" points="1389.87,-77.22 1396.01,-68.59 1385.83,-71.5 1389.87,-77.22"/>
</g>
<!-- purpose&#45;&gt;kdenlive -->
<g id="edge55" class="edge">
<title>purpose&#45;&gt;kdenlive</title>
<path fill="none" stroke="black" d="M608.46,-119.35C753.89,-107.46 1199,-71.06 1359.43,-57.94"/>
<polygon fill="black" stroke="black" points="1359.89,-61.41 1369.57,-57.11 1359.32,-54.43 1359.89,-61.41"/>
</g>
<!-- knewstuff&#45;&gt;kdenlive -->
<g id="edge56" class="edge">
<title>knewstuff&#45;&gt;kdenlive</title>
<path fill="none" stroke="black" d="M987.87,-112.18C997.05,-110 1006.73,-107.86 1015.83,-106.16 1137.52,-83.43 1281.72,-66.92 1360.08,-58.81"/>
<polygon fill="black" stroke="black" points="1360.64,-62.27 1370.23,-57.77 1359.92,-55.31 1360.64,-62.27"/>
</g>
<!-- kdeclarative&#45;&gt;kdenlive -->
<g id="edge57" class="edge">
<title>kdeclarative&#45;&gt;kdenlive</title>
<path fill="none" stroke="black" d="M1718.36,-112.76C1651.68,-99.54 1537.25,-76.84 1470.48,-63.6"/>
<polygon fill="black" stroke="black" points="1471.08,-60.15 1460.59,-61.64 1469.72,-67.02 1471.08,-60.15"/>
</g>
<!-- kbookmarks&#45;&gt;kio -->
<g id="edge93" class="edge">
<title>kbookmarks&#45;&gt;kio</title>
<path fill="none" stroke="black" d="M2005.31,-255.37C1948.77,-241.33 1855.74,-218.24 1805.54,-205.78"/>
<polygon fill="black" stroke="black" points="1806.35,-202.37 1795.8,-203.36 1804.66,-209.17 1806.35,-202.37"/>
</g>
<!-- kbookmarks&#45;&gt;kdenlive -->
<g id="edge94" class="edge">
<title>kbookmarks&#45;&gt;kdenlive</title>
<path fill="none" stroke="black" d="M2037.82,-250.39C2006.39,-216.51 1929.73,-140.23 1847.83,-106.16 1782.2,-78.86 1579.08,-62.98 1477.27,-56.54"/>
<polygon fill="black" stroke="black" points="1477.35,-53.04 1467.15,-55.91 1476.91,-60.03 1477.35,-53.04"/>
</g>
<!-- karchive -->
<g id="node23" class="node">
<title>karchive</title>
<g id="a_node23"><a xlink:href="https://github.com/conda-forge/karchive-feedstock/pull/18" xlink:title="karchive ❎">
<ellipse fill="#31688e" stroke="black" cx="371.83" cy="-484.16" rx="64.5" ry="18"/>
<text text-anchor="middle" x="371.83" y="-480.46" font-family="Times,serif" font-size="14.00" fill="white">karchive ❎</text>
</a>
</g>
</g>
<!-- karchive&#45;&gt;kiconthemes -->
<g id="edge58" class="edge">
<title>karchive&#45;&gt;kiconthemes</title>
<path fill="none" stroke="black" d="M429.48,-476.03C533.69,-463.14 753.09,-436.01 866.54,-421.98"/>
<polygon fill="black" stroke="black" points="867.02,-425.45 876.51,-420.75 866.16,-418.5 867.02,-425.45"/>
</g>
<!-- karchive&#45;&gt;kio -->
<g id="edge59" class="edge">
<title>karchive&#45;&gt;kio</title>
<path fill="none" stroke="black" d="M395.88,-467.26C427.96,-446.86 487.21,-411.97 542.83,-394.16 761.26,-324.21 826.49,-352.53 1053.83,-322.16 1180.38,-305.25 1215.85,-320.45 1338.83,-286.16 1376.78,-275.58 1382.01,-261.2 1419.83,-250.16 1531.35,-217.61 1668.95,-204.26 1733.75,-199.48"/>
<polygon fill="black" stroke="black" points="1734.16,-202.96 1743.88,-198.76 1733.66,-195.98 1734.16,-202.96"/>
</g>
<!-- karchive&#45;&gt;kpackage -->
<g id="edge60" class="edge">
<title>karchive&#45;&gt;kpackage</title>
<path fill="none" stroke="black" d="M414.21,-470.49C454.44,-458.45 514.89,-440.37 557.1,-427.74"/>
<polygon fill="black" stroke="black" points="558.3,-431.03 566.88,-424.81 556.3,-424.33 558.3,-431.03"/>
</g>
<!-- karchive&#45;&gt;kfilemetadata -->
<g id="edge61" class="edge">
<title>karchive&#45;&gt;kfilemetadata</title>
<path fill="none" stroke="black" d="M341.8,-468.14C321.41,-457.95 294.22,-444.36 271.98,-433.24"/>
<polygon fill="black" stroke="black" points="273.29,-429.98 262.78,-428.64 270.16,-436.24 273.29,-429.98"/>
</g>
<!-- karchive&#45;&gt;knewstuff -->
<g id="edge62" class="edge">
<title>karchive&#45;&gt;knewstuff</title>
<path fill="none" stroke="black" d="M385.56,-466.32C433.46,-407.97 594.06,-215.96 663.83,-178.16 731.53,-141.49 820.27,-129.78 879.97,-126.26"/>
<polygon fill="black" stroke="black" points="880.23,-129.75 890.03,-125.72 879.86,-122.76 880.23,-129.75"/>
</g>
<!-- karchive&#45;&gt;kdenlive -->
<g id="edge63" class="edge">
<title>karchive&#45;&gt;kdenlive</title>
<path fill="none" stroke="black" d="M362.03,-466.12C333.29,-415.74 250.44,-267.74 237.83,-214.16 226.73,-166.99 215.93,-137.58 252.83,-106.16 295.19,-70.08 1124.16,-56.88 1357.3,-53.87"/>
<polygon fill="black" stroke="black" points="1357.67,-57.37 1367.62,-53.74 1357.58,-50.37 1357.67,-57.37"/>
</g>
<!-- kcoreaddons -->
<g id="node24" class="node">
<title>kcoreaddons</title>
<g id="a_node24"><a xlink:href="https://github.com/conda-forge/kcoreaddons-feedstock/pull/18" xlink:title="kcoreaddons ❎">
<ellipse fill="#31688e" stroke="black" cx="1867.83" cy="-628.16" rx="83.39" ry="18"/>
<text text-anchor="middle" x="1867.83" y="-624.46" font-family="Times,serif" font-size="14.00" fill="white">kcoreaddons ❎</text>
</a>
</g>
</g>
<!-- kcoreaddons&#45;&gt;kconfigwidgets -->
<g id="edge64" class="edge">
<title>kcoreaddons&#45;&gt;kconfigwidgets</title>
<path fill="none" stroke="black" d="M1876.39,-610.03C1888.65,-585.51 1911.31,-540.19 1925.7,-511.42"/>
<polygon fill="black" stroke="black" points="1928.89,-512.86 1930.23,-502.35 1922.63,-509.73 1928.89,-512.86"/>
</g>
<!-- kcoreaddons&#45;&gt;kiconthemes -->
<g id="edge65" class="edge">
<title>kcoreaddons&#45;&gt;kiconthemes</title>
<path fill="none" stroke="black" d="M1784.77,-626.61C1659.58,-624.39 1415.61,-614.67 1212.83,-574.16 1111.11,-553.84 1071.9,-566.87 990.83,-502.16 970.51,-485.94 956.24,-459.66 947.66,-439.85"/>
<polygon fill="black" stroke="black" points="950.84,-438.37 943.8,-430.44 944.36,-441.02 950.84,-438.37"/>
</g>
<!-- kcoreaddons&#45;&gt;kservice -->
<g id="edge66" class="edge">
<title>kcoreaddons&#45;&gt;kservice</title>
<path fill="none" stroke="black" d="M1948.49,-623.71C2074.86,-617.47 2307.74,-602.27 2332.83,-574.16 2343.48,-562.22 2341.77,-551.43 2332.83,-538.16 2327.63,-530.44 2282.57,-513.26 2246.73,-500.54"/>
<polygon fill="black" stroke="black" points="2247.5,-497.1 2236.91,-497.08 2245.18,-503.7 2247.5,-497.1"/>
</g>
<!-- kcoreaddons&#45;&gt;ktextwidgets -->
<g id="edge67" class="edge">
<title>kcoreaddons&#45;&gt;ktextwidgets</title>
<path fill="none" stroke="black" d="M1817.9,-613.6C1766.88,-596.78 1690.38,-562.63 1655.83,-502.16 1647.89,-488.27 1649.38,-480.8 1655.83,-466.16 1661.13,-454.15 1670.64,-443.67 1680.45,-435.28"/>
<polygon fill="black" stroke="black" points="1682.68,-437.98 1688.31,-429.01 1678.31,-432.51 1682.68,-437.98"/>
</g>
<!-- kcoreaddons&#45;&gt;kxmlgui -->
<g id="edge68" class="edge">
<title>kcoreaddons&#45;&gt;kxmlgui</title>
<path fill="none" stroke="black" d="M1784.96,-626.27C1467,-622.61 339.43,-607.34 270.83,-574.16 195.32,-537.64 177.71,-508.92 148.83,-430.16 143.32,-415.14 137.79,-405.74 148.83,-394.16 185.37,-355.84 976.42,-344.25 1199.65,-341.74"/>
<polygon fill="black" stroke="black" points="1199.89,-345.24 1209.85,-341.63 1199.81,-338.24 1199.89,-345.24"/>
</g>
<!-- kcoreaddons&#45;&gt;kio -->
<g id="edge69" class="edge">
<title>kcoreaddons&#45;&gt;kio</title>
<path fill="none" stroke="black" d="M1792.26,-620.6C1754.87,-613.95 1711.15,-600.66 1679.83,-574.16 1652.81,-551.3 1656.39,-535.94 1645.83,-502.16 1631.41,-456.07 1619.11,-440.16 1633.83,-394.16 1651.8,-338.02 1677.24,-334.61 1710.83,-286.16 1725.84,-264.51 1742.57,-239.64 1754.54,-221.7"/>
<polygon fill="black" stroke="black" points="1757.7,-223.26 1760.33,-213 1751.87,-219.38 1757.7,-223.26"/>
</g>
<!-- kcoreaddons&#45;&gt;kpackage -->
<g id="edge70" class="edge">
<title>kcoreaddons&#45;&gt;kpackage</title>
<path fill="none" stroke="black" d="M1784.77,-626.61C1659.58,-624.39 1415.61,-614.67 1212.83,-574.16 1136.54,-558.92 955.16,-485.59 879.83,-466.16 806.07,-447.14 719.57,-431.5 663.79,-422.25"/>
<polygon fill="black" stroke="black" points="664.18,-418.77 653.74,-420.6 663.04,-425.68 664.18,-418.77"/>
</g>
<!-- kcoreaddons&#45;&gt;kwallet -->
<g id="edge71" class="edge">
<title>kcoreaddons&#45;&gt;kwallet</title>
<path fill="none" stroke="black" d="M1861.16,-609.8C1850.64,-579.81 1832.95,-516.64 1848.83,-466.16 1852.06,-455.89 1858.07,-445.86 1864.32,-437.35"/>
<polygon fill="black" stroke="black" points="1867.15,-439.42 1870.56,-429.39 1861.64,-435.1 1867.15,-439.42"/>
</g>
<!-- kcoreaddons&#45;&gt;kfilemetadata -->
<g id="edge72" class="edge">
<title>kcoreaddons&#45;&gt;kfilemetadata</title>
<path fill="none" stroke="black" d="M1785.31,-625.64C1538.3,-620.8 807.24,-604.25 570.83,-574.16 420.19,-554.99 335.5,-617.59 236.83,-502.16 222.58,-485.49 222.57,-459.99 225.41,-440.56"/>
<polygon fill="black" stroke="black" points="228.9,-440.93 227.21,-430.48 222.01,-439.71 228.9,-440.93"/>
</g>
<!-- kcoreaddons&#45;&gt;purpose -->
<g id="edge73" class="edge">
<title>kcoreaddons&#45;&gt;purpose</title>
<path fill="none" stroke="black" d="M1784.75,-626.93C1452.09,-625.72 230.79,-618.27 161.83,-574.16 11.52,-478.01 73.06,-266.95 227.83,-178.16 274.03,-151.66 422.51,-136.1 505.08,-129.29"/>
<polygon fill="black" stroke="black" points="505.38,-132.77 515.06,-128.48 504.81,-125.8 505.38,-132.77"/>
</g>
<!-- kcoreaddons&#45;&gt;knewstuff -->
<g id="edge74" class="edge">
<title>kcoreaddons&#45;&gt;knewstuff</title>
<path fill="none" stroke="black" d="M1784.77,-626.57C1458.55,-623.99 279.55,-612.06 209.83,-574.16 110.78,-520.32 100.62,-401.39 180.83,-322.16 226.99,-276.57 248.13,-275.58 307.83,-250.16 359.45,-228.19 376.83,-235.24 428.83,-214.16 460.89,-201.17 464.78,-188.36 497.83,-178.16 629.03,-137.68 790.63,-127.78 879.46,-125.57"/>
<polygon fill="black" stroke="black" points="879.75,-129.07 889.67,-125.34 879.59,-122.07 879.75,-129.07"/>
</g>
<!-- kcoreaddons&#45;&gt;kdeclarative -->
<g id="edge75" class="edge">
<title>kcoreaddons&#45;&gt;kdeclarative</title>
<path fill="none" stroke="black" d="M1951.3,-627.22C2195.86,-626.82 2907.72,-621.52 3134.83,-574.16 3221.61,-556.07 3253.38,-559.68 3320.83,-502.16 3360.02,-468.75 3367.42,-445.46 3362.83,-394.16 3359.93,-361.77 3372.55,-345.43 3349.83,-322.16 3238.57,-208.23 3155.27,-279.94 2998.83,-250.16 2907.96,-232.87 2884.33,-233.32 2793.83,-214.16 2728.87,-200.41 2714.47,-188.2 2648.83,-178.16 2355.92,-133.35 2002.61,-126.02 1848.75,-125.1"/>
<polygon fill="black" stroke="black" points="1848.48,-121.6 1838.47,-125.04 1848.45,-128.6 1848.48,-121.6"/>
</g>
<!-- kcoreaddons&#45;&gt;kdenlive -->
<g id="edge76" class="edge">
<title>kcoreaddons&#45;&gt;kdenlive</title>
<path fill="none" stroke="black" d="M1951.03,-626.8C2205.51,-625.22 2970.99,-616.95 3215.83,-574.16 3344.88,-551.61 3496.83,-616.17 3496.83,-485.16 3496.83,-485.16 3496.83,-485.16 3496.83,-195.16 3496.83,-161.7 3628.85,-180.65 3324.83,-106.16 3142.22,-61.42 1783.36,-54.35 1478.44,-53.33"/>
<polygon fill="black" stroke="black" points="1478.05,-49.82 1468.04,-53.29 1478.03,-56.82 1478.05,-49.82"/>
</g>
<!-- kcoreaddons&#45;&gt;kbookmarks -->
<g id="edge80" class="edge">
<title>kcoreaddons&#45;&gt;kbookmarks</title>
<path fill="none" stroke="black" d="M1947.93,-623.18C2074.83,-616.2 2316.1,-599.98 2397.83,-574.16 2460.07,-554.5 2492.88,-558.5 2525.83,-502.16 2533.91,-488.35 2534.71,-479.47 2525.83,-466.16 2522.63,-461.37 2214.83,-335.31 2097.53,-287.4"/>
<polygon fill="black" stroke="black" points="2098.68,-284.09 2088.1,-283.55 2096.04,-290.57 2098.68,-284.09"/>
</g>
<!-- kauth -->
<g id="node25" class="node">
<title>kauth</title>
<g id="a_node25"><a xlink:href="https://github.com/conda-forge/kauth-feedstock" xlink:title="kauth">
<ellipse fill="#fde725" stroke="black" cx="2286.83" cy="-556.16" rx="37.09" ry="18"/>
<text text-anchor="middle" x="2286.83" y="-552.46" font-family="Times,serif" font-size="14.00">kauth</text>
</a>
</g>
</g>
<!-- kcoreaddons&#45;&gt;kauth -->
<g id="edge77" class="edge">
<title>kcoreaddons&#45;&gt;kauth</title>
<path fill="none" stroke="black" d="M1944.48,-621.08C2020.53,-613.92 2140,-599.65 2240.83,-574.16 2243.79,-573.41 2246.82,-572.54 2249.85,-571.6"/>
<polygon fill="black" stroke="black" points="2251.04,-574.89 2259.4,-568.38 2248.81,-568.25 2251.04,-574.89"/>
</g>
<!-- kcrash -->
<g id="node26" class="node">
<title>kcrash</title>
<g id="a_node26"><a xlink:href="https://github.com/conda-forge/kcrash-feedstock" xlink:title="kcrash">
<ellipse fill="#fde725" stroke="black" cx="3083.83" cy="-556.16" rx="41.69" ry="18"/>
<text text-anchor="middle" x="3083.83" y="-552.46" font-family="Times,serif" font-size="14.00">kcrash</text>
</a>
</g>
</g>
<!-- kcoreaddons&#45;&gt;kcrash -->
<g id="edge78" class="edge">
<title>kcoreaddons&#45;&gt;kcrash</title>
<path fill="none" stroke="black" d="M1950.6,-626.05C2179.96,-622.56 2820.45,-609.8 3027.83,-574.16 3032.65,-573.33 3037.63,-572.22 3042.55,-570.95"/>
<polygon fill="black" stroke="black" points="3043.78,-574.24 3052.47,-568.18 3041.9,-567.5 3043.78,-574.24"/>
</g>
<!-- kglobalaccel -->
<g id="node27" class="node">
<title>kglobalaccel</title>
<g id="a_node27"><a xlink:href="https://github.com/conda-forge/kglobalaccel-feedstock" xlink:title="kglobalaccel">
<ellipse fill="#fde725" stroke="black" cx="2716.83" cy="-484.16" rx="67.69" ry="18"/>
<text text-anchor="middle" x="2716.83" y="-480.46" font-family="Times,serif" font-size="14.00">kglobalaccel</text>
</a>
</g>
</g>
<!-- kcoreaddons&#45;&gt;kglobalaccel -->
<g id="edge79" class="edge">
<title>kcoreaddons&#45;&gt;kglobalaccel</title>
<path fill="none" stroke="black" d="M1951.25,-627.58C2151.28,-627.78 2645.77,-623.26 2700.83,-574.16 2717.81,-559.02 2720.69,-532.49 2720,-512.32"/>
<polygon fill="black" stroke="black" points="2723.48,-511.92 2719.34,-502.17 2716.49,-512.38 2723.48,-511.92"/>
</g>
<!-- kjobwidgets -->
<g id="node28" class="node">
<title>kjobwidgets</title>
<g id="a_node28"><a xlink:href="https://github.com/conda-forge/kjobwidgets-feedstock" xlink:title="kjobwidgets">
<ellipse fill="#fde725" stroke="black" cx="3249.83" cy="-340.16" rx="67" ry="18"/>
<text text-anchor="middle" x="3249.83" y="-336.46" font-family="Times,serif" font-size="14.00">kjobwidgets</text>
</a>
</g>
</g>
<!-- kcoreaddons&#45;&gt;kjobwidgets -->
<g id="edge81" class="edge">
<title>kcoreaddons&#45;&gt;kjobwidgets</title>
<path fill="none" stroke="black" d="M1950.81,-626.58C2194.96,-624.41 2899.71,-614.68 2994.83,-574.16 3016.23,-565.04 3011.93,-548.39 3032.83,-538.16 3127.73,-491.71 3192.63,-576.38 3267.83,-502.16 3302.2,-468.24 3292.13,-440.86 3279.83,-394.16 3277.34,-384.7 3272.73,-375.16 3267.86,-366.82"/>
<polygon fill="black" stroke="black" points="3270.82,-364.95 3262.56,-358.32 3264.87,-368.65 3270.82,-364.95"/>
</g>
<!-- knotifications -->
<g id="node29" class="node">
<title>knotifications</title>
<g id="a_node29"><a xlink:href="https://github.com/conda-forge/knotifications-feedstock" xlink:title="knotifications">
<ellipse fill="#fde725" stroke="black" cx="1495.83" cy="-484.16" rx="73.5" ry="18"/>
<text text-anchor="middle" x="1495.83" y="-480.46" font-family="Times,serif" font-size="14.00">knotifications</text>
</a>
</g>
</g>
<!-- kcoreaddons&#45;&gt;knotifications -->
<g id="edge82" class="edge">
<title>kcoreaddons&#45;&gt;knotifications</title>
<path fill="none" stroke="black" d="M1785.84,-624.8C1726.68,-620.11 1646.52,-607.42 1583.83,-574.16 1554.81,-558.77 1529.38,-530.52 1513.42,-509.97"/>
<polygon fill="black" stroke="black" points="1516.19,-507.83 1507.37,-501.96 1510.6,-512.05 1516.19,-507.83"/>
</g>
<!-- zeit -->
<g id="node30" class="node">
<title>zeit</title>
<g id="a_node30"><a xlink:href="https://github.com/conda-forge/zeit-feedstock" xlink:title="zeit">
<ellipse fill="#fde725" stroke="black" cx="2488.83" cy="-484.16" rx="28" ry="18"/>
<text text-anchor="middle" x="2488.83" y="-480.46" font-family="Times,serif" font-size="14.00">zeit</text>
</a>
</g>
</g>
<!-- kcoreaddons&#45;&gt;zeit -->
<g id="edge83" class="edge">
<title>kcoreaddons&#45;&gt;zeit</title>
<path fill="none" stroke="black" d="M1947.75,-622.8C2065.04,-615.66 2277.69,-599.64 2349.83,-574.16 2393.96,-558.58 2438.36,-526.65 2464.72,-505.58"/>
<polygon fill="black" stroke="black" points="2467.07,-508.18 2472.62,-499.15 2462.65,-502.75 2467.07,-508.18"/>
</g>
<!-- kauth&#45;&gt;kconfigwidgets -->
<g id="edge84" class="edge">
<title>kauth&#45;&gt;kconfigwidgets</title>
<path fill="none" stroke="black" d="M2258.87,-543.92C2252.98,-541.8 2246.75,-539.76 2240.83,-538.16 2166.23,-518.01 2079.12,-503.67 2017.68,-495.03"/>
<polygon fill="black" stroke="black" points="2018.05,-491.55 2007.67,-493.64 2017.09,-498.48 2018.05,-491.55"/>
</g>
<!-- kauth&#45;&gt;kio -->
<g id="edge85" class="edge">
<title>kauth&#45;&gt;kio</title>
<path fill="none" stroke="black" d="M2258.26,-544.6C2216.57,-529.19 2143.94,-502.32 2143.83,-502.16 2134.69,-489.03 2142.51,-482.11 2143.83,-466.16 2149.15,-401.88 2166.28,-386.51 2161.83,-322.16 2159.6,-289.93 2174.67,-273.01 2151.83,-250.16 2104.12,-202.44 1894.34,-197.04 1808.08,-196.87"/>
<polygon fill="black" stroke="black" points="1807.95,-193.37 1797.95,-196.88 1807.95,-200.37 1807.95,-193.37"/>
</g>
<!-- kauth&#45;&gt;zeit -->
<g id="edge86" class="edge">
<title>kauth&#45;&gt;zeit</title>
<path fill="none" stroke="black" d="M2317.11,-545.78C2349.44,-535.6 2402.06,-518.62 2446.83,-502.16 2449.93,-501.02 2453.14,-499.8 2456.35,-498.55"/>
<polygon fill="black" stroke="black" points="2457.83,-501.73 2465.83,-494.78 2455.24,-495.22 2457.83,-501.73"/>
</g>
<!-- kcrash&#45;&gt;kservice -->
<g id="edge87" class="edge">
<title>kcrash&#45;&gt;kservice</title>
<path fill="none" stroke="black" d="M3047.63,-547.06C3031.55,-543.77 3012.32,-540.25 2994.83,-538.16 2670.08,-499.39 2582.34,-556.54 2259.83,-502.16 2255.64,-501.46 2251.32,-500.55 2247.03,-499.52"/>
<polygon fill="black" stroke="black" points="2247.66,-496.07 2237.1,-496.94 2245.9,-502.84 2247.66,-496.07"/>
</g>
<!-- kcrash&#45;&gt;kio -->
<g id="edge88" class="edge">
<title>kcrash&#45;&gt;kio</title>
<path fill="none" stroke="black" d="M3121.08,-547.84C3177.62,-536.42 3279.82,-514.39 3291.83,-502.16 3348.89,-444.09 3379.5,-383.38 3325.83,-322.16 3285.57,-276.23 2841.65,-255.77 2780.83,-250.16 2401.63,-215.22 1940.04,-201.44 1807.82,-198.05"/>
<polygon fill="black" stroke="black" points="1807.89,-194.55 1797.81,-197.8 1807.72,-201.55 1807.89,-194.55"/>
</g>
<!-- kcrash&#45;&gt;kdenlive -->
<g id="edge89" class="edge">
<title>kcrash&#45;&gt;kdenlive</title>
<path fill="none" stroke="black" d="M3125.3,-553.74C3175.04,-550.34 3259.39,-539.08 3320.83,-502.16 3401.61,-453.62 3458.83,-435.41 3458.83,-341.16 3458.83,-341.16 3458.83,-341.16 3458.83,-195.16 3458.83,-63.73 3306.41,-128.13 3176.83,-106.16 2839.82,-49.03 1748.09,-51.28 1478.46,-52.75"/>
<polygon fill="black" stroke="black" points="1478.08,-49.26 1468.1,-52.81 1478.12,-56.26 1478.08,-49.26"/>
</g>
<!-- kcrash&#45;&gt;kglobalaccel -->
<g id="edge90" class="edge">
<title>kcrash&#45;&gt;kglobalaccel</title>
<path fill="none" stroke="black" d="M3046.59,-548.05C3030.65,-545 3011.83,-541.41 2994.83,-538.16 2921.07,-524.09 2836.31,-507.93 2779.96,-497.19"/>
<polygon fill="black" stroke="black" points="2780.6,-493.75 2770.12,-495.32 2779.29,-500.63 2780.6,-493.75"/>
</g>
<!-- kglobalaccel&#45;&gt;kxmlgui -->
<g id="edge91" class="edge">
<title>kglobalaccel&#45;&gt;kxmlgui</title>
<path fill="none" stroke="black" d="M2656.12,-476.2C2627.26,-472.98 2592.29,-469.2 2560.83,-466.16 2371.26,-447.84 2322.59,-455.48 2133.83,-430.16 2046.48,-418.45 2026.22,-405.6 1938.83,-394.16 1709.12,-364.1 1433.43,-349.06 1315.7,-343.62"/>
<polygon fill="black" stroke="black" points="1315.63,-340.11 1305.48,-343.15 1315.31,-347.1 1315.63,-340.11"/>
</g>
<!-- kglobalaccel&#45;&gt;kdeclarative -->
<g id="edge92" class="edge">
<title>kglobalaccel&#45;&gt;kdeclarative</title>
<path fill="none" stroke="black" d="M2702.87,-466.34C2657.32,-412.8 2506.31,-245.92 2339.83,-178.16 2252.68,-142.69 1982.29,-130.69 1848.05,-126.85"/>
<polygon fill="black" stroke="black" points="1847.94,-123.34 1837.84,-126.56 1847.74,-130.34 1847.94,-123.34"/>
</g>
<!-- kjobwidgets&#45;&gt;kio -->
<g id="edge95" class="edge">
<title>kjobwidgets&#45;&gt;kio</title>
<path fill="none" stroke="black" d="M3195.04,-329.74C3087.43,-311.57 2840.75,-271.6 2631.83,-250.16 2314.04,-217.55 1928.05,-202.49 1808.16,-198.37"/>
<polygon fill="black" stroke="black" points="1808.15,-194.87 1798.04,-198.03 1807.91,-201.87 1808.15,-194.87"/>
</g>
<!-- kjobwidgets&#45;&gt;kdenlive -->
<g id="edge96" class="edge">
<title>kjobwidgets&#45;&gt;kdenlive</title>
<path fill="none" stroke="black" d="M3232.65,-322.57C3184.64,-277.43 3042.99,-152.7 2897.83,-106.16 2761.25,-62.37 1738.29,-54.65 1477.96,-53.39"/>
<polygon fill="black" stroke="black" points="1477.95,-49.89 1467.94,-53.35 1477.92,-56.89 1477.95,-49.89"/>
</g>
<!-- knotifications&#45;&gt;kio -->
<g id="edge97" class="edge">
<title>knotifications&#45;&gt;kio</title>
<path fill="none" stroke="black" d="M1503.07,-465.9C1517.31,-433.78 1551.79,-364.28 1599.83,-322.16 1627.93,-297.52 1644.93,-307.19 1675.83,-286.16 1704.24,-266.83 1732.41,-239.06 1750.61,-219.7"/>
<polygon fill="black" stroke="black" points="1753.31,-221.94 1757.54,-212.22 1748.18,-217.18 1753.31,-221.94"/>
</g>
<!-- knotifications&#45;&gt;kwallet -->
<g id="edge98" class="edge">
<title>knotifications&#45;&gt;kwallet</title>
<path fill="none" stroke="black" d="M1553.74,-473.06C1613.99,-462.51 1711.06,-445.41 1794.83,-430.16 1808.31,-427.71 1822.91,-425 1836.38,-422.49"/>
<polygon fill="black" stroke="black" points="1837.24,-425.89 1846.43,-420.6 1835.95,-419 1837.24,-425.89"/>
</g>
<!-- knotifications&#45;&gt;purpose -->
<g id="edge99" class="edge">
<title>knotifications&#45;&gt;purpose</title>
<path fill="none" stroke="black" d="M1458.06,-468.68C1308.78,-411.47 760.48,-201.3 603.86,-141.27"/>
<polygon fill="black" stroke="black" points="604.71,-137.85 594.12,-137.54 602.2,-144.39 604.71,-137.85"/>
</g>
<!-- knotifications&#45;&gt;kdenlive -->
<g id="edge100" class="edge">
<title>knotifications&#45;&gt;kdenlive</title>
<path fill="none" stroke="black" d="M1480.15,-466.39C1450.25,-435.09 1382.05,-366.9 1314.83,-322.16 1284.05,-301.68 1261.32,-316.25 1239.83,-286.16 1193.11,-220.78 1174.03,-170 1222.83,-106.16 1239.66,-84.15 1309.97,-69.12 1361.35,-60.84"/>
<polygon fill="black" stroke="black" points="1362.01,-64.28 1371.35,-59.27 1360.93,-57.36 1362.01,-64.28"/>
</g>
<!-- kconfig -->
<g id="node31" class="node">
<title>kconfig</title>
<g id="a_node31"><a xlink:href="https://github.com/conda-forge/kconfig-feedstock/pull/18" xlink:title="kconfig ❎">
<ellipse fill="#31688e" stroke="black" cx="1279.83" cy="-556.16" rx="58" ry="18"/>
<text text-anchor="middle" x="1279.83" y="-552.46" font-family="Times,serif" font-size="14.00" fill="white">kconfig ❎</text>
</a>
</g>
</g>
<!-- kconfig&#45;&gt;kconfigwidgets -->
<g id="edge101" class="edge">
<title>kconfig&#45;&gt;kconfigwidgets</title>
<path fill="none" stroke="black" d="M1334.78,-550.11C1430.54,-541.2 1634.17,-521.78 1805.83,-502.16 1823.88,-500.1 1843.29,-497.71 1861.54,-495.39"/>
<polygon fill="black" stroke="black" points="1862.08,-498.86 1871.55,-494.12 1861.19,-491.91 1862.08,-498.86"/>
</g>
<!-- kconfig&#45;&gt;kiconthemes -->
<g id="edge102" class="edge">
<title>kconfig&#45;&gt;kiconthemes</title>
<path fill="none" stroke="black" d="M1223.79,-551.01C1172.92,-545.4 1097.03,-532.34 1037.83,-502.16 1021.11,-493.64 985.68,-460.44 961.8,-437.1"/>
<polygon fill="black" stroke="black" points="964.08,-434.43 954.5,-429.91 959.17,-439.42 964.08,-434.43"/>
</g>
<!-- kconfig&#45;&gt;kservice -->
<g id="edge103" class="edge">
<title>kconfig&#45;&gt;kservice</title>
<path fill="none" stroke="black" d="M1336.25,-551.7C1461.13,-543.91 1770.33,-524 2028.83,-502.16 2067.53,-498.89 2111.04,-494.61 2144.74,-491.17"/>
<polygon fill="black" stroke="black" points="2145.28,-494.63 2154.87,-490.13 2144.56,-487.67 2145.28,-494.63"/>
</g>
<!-- kconfig&#45;&gt;ktextwidgets -->
<g id="edge104" class="edge">
<title>kconfig&#45;&gt;ktextwidgets</title>
<path fill="none" stroke="black" d="M1298.81,-538.82C1323.55,-518.44 1368.97,-484.11 1413.83,-466.16 1434.89,-457.73 1562.51,-436.79 1644.37,-423.9"/>
<polygon fill="black" stroke="black" points="1645.02,-427.34 1654.36,-422.33 1643.94,-420.42 1645.02,-427.34"/>
</g>
<!-- kconfig&#45;&gt;kxmlgui -->
<g id="edge105" class="edge">
<title>kconfig&#45;&gt;kxmlgui</title>
<path fill="none" stroke="black" d="M1228.33,-547.78C1200.69,-540.9 1168.87,-527.66 1151.83,-502.16 1142.94,-488.86 1142.72,-479.31 1151.83,-466.16 1177.78,-428.71 1219.82,-466.11 1247.83,-430.16 1261.31,-412.86 1262.97,-387.59 1261.74,-368.4"/>
<polygon fill="black" stroke="black" points="1265.2,-367.81 1260.79,-358.18 1258.23,-368.46 1265.2,-367.81"/>
</g>
<!-- kconfig&#45;&gt;kio -->
<g id="edge106" class="edge">
<title>kconfig&#45;&gt;kio</title>
<path fill="none" stroke="black" d="M1280.21,-537.89C1281.55,-518.16 1286.62,-486.05 1304.83,-466.16 1335.32,-432.86 1359.68,-450.82 1399.83,-430.16 1476.78,-390.58 1489.24,-369.27 1561.83,-322.16 1612.1,-289.54 1624.31,-280.77 1675.83,-250.16 1697.5,-237.29 1722.39,-223.43 1741.26,-213.12"/>
<polygon fill="black" stroke="black" points="1743.15,-216.07 1750.26,-208.22 1739.81,-209.93 1743.15,-216.07"/>
</g>
<!-- kconfig&#45;&gt;kwallet -->
<g id="edge107" class="edge">
<title>kconfig&#45;&gt;kwallet</title>
<path fill="none" stroke="black" d="M1337.31,-553.16C1449.97,-548.57 1695.59,-535.01 1772.83,-502.16 1795.77,-492.41 1796.33,-481.69 1815.83,-466.16 1829.33,-455.41 1844.58,-443.81 1857.39,-434.2"/>
<polygon fill="black" stroke="black" points="1859.49,-437 1865.41,-428.21 1855.3,-431.39 1859.49,-437"/>
</g>
<!-- kconfig&#45;&gt;kfilemetadata -->
<g id="edge108" class="edge">
<title>kconfig&#45;&gt;kfilemetadata</title>
<path fill="none" stroke="black" d="M1222.3,-553.41C1018.19,-547 338.69,-524.13 297.83,-502.16 284.38,-494.93 262.24,-462.45 247.35,-438.82"/>
<polygon fill="black" stroke="black" points="250.29,-436.91 242.03,-430.26 244.34,-440.6 250.29,-436.91"/>
</g>
<!-- kconfig&#45;&gt;knotifyconfig -->
<g id="edge109" class="edge">
<title>kconfig&#45;&gt;knotifyconfig</title>
<path fill="none" stroke="black" d="M1240.69,-542.59C1221.76,-534.3 1200.81,-521.37 1189.83,-502.16 1181.89,-488.27 1181.21,-479.64 1189.83,-466.16 1210.41,-434 1238.94,-455.12 1267.83,-430.16 1296.75,-405.18 1303.93,-394.79 1314.83,-358.16 1319.39,-342.83 1323.35,-335.7 1314.83,-322.16 1295.14,-290.87 1259.52,-317.46 1239.83,-286.16 1231.31,-272.62 1235.38,-265.53 1239.83,-250.16 1251.01,-211.56 1278.05,-173.43 1297.38,-149.62"/>
<polygon fill="black" stroke="black" points="1300.16,-151.75 1303.86,-141.82 1294.78,-147.28 1300.16,-151.75"/>
</g>
<!-- kconfig&#45;&gt;purpose -->
<g id="edge110" class="edge">
<title>kconfig&#45;&gt;purpose</title>
<path fill="none" stroke="black" d="M1221.71,-555.87C1055.25,-556.46 583.32,-547.6 499.83,-430.16 437.4,-342.35 509.84,-206.29 544.92,-150.42"/>
<polygon fill="black" stroke="black" points="547.96,-152.17 550.4,-141.86 542.06,-148.39 547.96,-152.17"/>
</g>
<!-- kconfig&#45;&gt;knewstuff -->
<g id="edge111" class="edge">
<title>kconfig&#45;&gt;knewstuff</title>
<path fill="none" stroke="black" d="M1238.33,-543.41C1209.79,-534.37 1171.63,-520.35 1140.83,-502.16 1098.2,-476.98 1087.25,-468.42 1055.83,-430.16 988.57,-348.26 975.08,-318.19 954.83,-214.16 950.85,-193.71 948.57,-170.25 947.3,-152.56"/>
<polygon fill="black" stroke="black" points="950.78,-152.11 946.63,-142.36 943.79,-152.57 950.78,-152.11"/>
</g>
<!-- kconfig&#45;&gt;kdeclarative -->
<g id="edge112" class="edge">
<title>kconfig&#45;&gt;kdeclarative</title>
<path fill="none" stroke="black" d="M1275.84,-537.94C1272.43,-519.11 1269.78,-488.64 1281.83,-466.16 1378.36,-286.12 1616.74,-180.99 1720.84,-142.29"/>
<polygon fill="black" stroke="black" points="1722.3,-145.48 1730.49,-138.75 1719.89,-138.91 1722.3,-145.48"/>
</g>
<!-- kconfig&#45;&gt;kdenlive -->
<g id="edge113" class="edge">
<title>kconfig&#45;&gt;kdenlive</title>
<path fill="none" stroke="black" d="M1222.26,-553.51C1059.39,-548.49 603.17,-531.9 542.83,-502.16 384.24,-423.99 373.29,-224.31 504.83,-106.16 536.58,-77.64 1159.13,-59.64 1357.59,-54.61"/>
<polygon fill="black" stroke="black" points="1357.93,-58.1 1367.83,-54.35 1357.75,-51.1 1357.93,-58.1"/>
</g>
<!-- kconfig&#45;&gt;kbookmarks -->
<g id="edge115" class="edge">
<title>kconfig&#45;&gt;kbookmarks</title>
<path fill="none" stroke="black" d="M1287.3,-538.12C1297.17,-517.68 1316.57,-483.94 1343.83,-466.16 1408.51,-423.96 1439,-449.27 1513.83,-430.16 1567.78,-416.38 1580.48,-410.12 1633.83,-394.16 1765.47,-354.78 1920.43,-308.6 1999.92,-284.92"/>
<polygon fill="black" stroke="black" points="2001.11,-288.22 2009.7,-282.01 1999.11,-281.51 2001.11,-288.22"/>
</g>
<!-- kconfig&#45;&gt;kglobalaccel -->
<g id="edge114" class="edge">
<title>kconfig&#45;&gt;kglobalaccel</title>
<path fill="none" stroke="black" d="M1337.32,-553.66C1514.54,-548.84 2068.08,-532.25 2525.83,-502.16 2564.98,-499.59 2608.57,-495.78 2644.21,-492.42"/>
<polygon fill="black" stroke="black" points="2644.9,-495.87 2654.52,-491.44 2644.23,-488.9 2644.9,-495.87"/>
</g>
<!-- kconfig&#45;&gt;knotifications -->
<g id="edge116" class="edge">
<title>kconfig&#45;&gt;knotifications</title>
<path fill="none" stroke="black" d="M1318.45,-542.65C1353.46,-531.3 1405.35,-514.48 1443.97,-501.97"/>
<polygon fill="black" stroke="black" points="1445.05,-505.3 1453.48,-498.89 1442.89,-498.64 1445.05,-505.3"/>
</g>
<!-- kcompletion -->
<g id="node32" class="node">
<title>kcompletion</title>
<g id="a_node32"><a xlink:href="https://github.com/conda-forge/kcompletion-feedstock" xlink:title="kcompletion">
<ellipse fill="#fde725" stroke="black" cx="2336.83" cy="-484.16" rx="67.69" ry="18"/>
<text text-anchor="middle" x="2336.83" y="-480.46" font-family="Times,serif" font-size="14.00">kcompletion</text>
</a>
</g>
</g>
<!-- kconfig&#45;&gt;kcompletion -->
<g id="edge117" class="edge">
<title>kconfig&#45;&gt;kcompletion</title>
<path fill="none" stroke="black" d="M1337.92,-555.38C1490.16,-555.22 1912.98,-550.12 2260.83,-502.16 2266.75,-501.35 2272.89,-500.3 2279,-499.14"/>
<polygon fill="black" stroke="black" points="2280.1,-502.49 2289.21,-497.08 2278.72,-495.63 2280.1,-502.49"/>
</g>
<!-- kcompletion&#45;&gt;ktextwidgets -->
<g id="edge118" class="edge">
<title>kcompletion&#45;&gt;ktextwidgets</title>
<path fill="none" stroke="black" d="M2288.77,-471.38C2279.54,-469.41 2269.92,-467.55 2260.83,-466.16 2072.14,-437.26 2022.51,-451.67 1832.83,-430.16 1816.69,-428.33 1799.36,-426.04 1783.06,-423.74"/>
<polygon fill="black" stroke="black" points="1783.46,-420.26 1773.06,-422.31 1782.47,-427.19 1783.46,-420.26"/>
</g>
<!-- kcompletion&#45;&gt;kio -->
<g id="edge119" class="edge">
<title>kcompletion&#45;&gt;kio</title>
<path fill="none" stroke="black" d="M2334.22,-466.11C2326.49,-421.99 2299.32,-303.81 2223.83,-250.16 2157.26,-202.86 1903.88,-197.37 1807.94,-197.03"/>
<polygon fill="black" stroke="black" points="1807.84,-193.53 1797.83,-197.01 1807.82,-200.53 1807.84,-193.53"/>
</g>
<!-- kcompletion&#45;&gt;knotifyconfig -->
<g id="edge120" class="edge">
<title>kcompletion&#45;&gt;knotifyconfig</title>
<path fill="none" stroke="black" d="M2378.28,-469.87C2396.9,-461.59 2417.08,-448.87 2427.83,-430.16 2456.57,-380.16 2413.18,-211.08 2365.83,-178.16 2360.86,-174.71 1641.41,-140.41 1398.15,-128.9"/>
<polygon fill="black" stroke="black" points="1398.12,-125.4 1387.96,-128.42 1397.79,-132.39 1398.12,-125.4"/>
</g>
<!-- kcompletion&#45;&gt;knewstuff -->
<g id="edge121" class="edge">
<title>kcompletion&#45;&gt;knewstuff</title>
<path fill="none" stroke="black" d="M2338.14,-465.92C2339.11,-447.86 2339.57,-418.75 2334.83,-394.16 2320.83,-321.63 2312.93,-291.67 2251.83,-250.16 2157.24,-185.91 2117.62,-196.98 2004.83,-178.16 1668.65,-122.08 1579.18,-160.03 1238.83,-142.16 1160.35,-138.04 1070.08,-132.71 1010.71,-129.13"/>
<polygon fill="black" stroke="black" points="1010.55,-125.62 1000.36,-128.51 1010.13,-132.6 1010.55,-125.62"/>
</g>
<!-- kcompletion&#45;&gt;kdenlive -->
<g id="edge122" class="edge">
<title>kcompletion&#45;&gt;kdenlive</title>
<path fill="none" stroke="black" d="M2386.09,-471.83C2408.31,-464.02 2432.51,-451.12 2445.83,-430.16 2471.57,-389.65 2462.6,-367.5 2446.83,-322.16 2417.7,-238.44 2385.98,-221.82 2308.83,-178.16 2215.61,-125.4 2183.98,-126.57 2078.83,-106.16 1860.52,-63.79 1595.31,-55.19 1478.28,-53.52"/>
<polygon fill="black" stroke="black" points="1478.14,-50.01 1468.1,-53.38 1478.05,-57.01 1478.14,-50.01"/>
</g>
<!-- kcodecs -->
<g id="node33" class="node">
<title>kcodecs</title>
<g id="a_node33"><a xlink:href="https://github.com/conda-forge/kcodecs-feedstock/pull/17" xlink:title="kcodecs ❎">
<ellipse fill="#31688e" stroke="black" cx="1995.83" cy="-556.16" rx="61.99" ry="18"/>
<text text-anchor="middle" x="1995.83" y="-552.46" font-family="Times,serif" font-size="14.00" fill="white">kcodecs ❎</text>
</a>
</g>
</g>
<!-- kcodecs&#45;&gt;kconfigwidgets -->
<g id="edge123" class="edge">
<title>kcodecs&#45;&gt;kconfigwidgets</title>
<path fill="none" stroke="black" d="M1982.32,-538.57C1975.4,-530.07 1966.82,-519.53 1959.12,-510.08"/>
<polygon fill="black" stroke="black" points="1961.66,-507.66 1952.64,-502.12 1956.24,-512.08 1961.66,-507.66"/>
</g>
<!-- kcodecs&#45;&gt;kio -->
<g id="edge124" class="edge">
<title>kcodecs&#45;&gt;kio</title>
<path fill="none" stroke="black" d="M2014.09,-538.76C2066.47,-489.8 2208.46,-342.45 2128.83,-250.16 2087.65,-202.43 1891.06,-196.96 1808,-196.83"/>
<polygon fill="black" stroke="black" points="1807.99,-193.33 1797.99,-196.84 1807.99,-200.33 1807.99,-193.33"/>
</g>
<!-- kcodecs&#45;&gt;kbookmarks -->
<g id="edge125" class="edge">
<title>kcodecs&#45;&gt;kbookmarks</title>
<path fill="none" stroke="black" d="M2008.49,-538.33C2015.46,-528.31 2023.71,-515.06 2028.83,-502.16 2058.72,-426.85 2061.64,-403.1 2057.83,-322.16 2057.44,-313.82 2056.7,-304.76 2055.91,-296.53"/>
<polygon fill="black" stroke="black" points="2059.36,-295.91 2054.86,-286.32 2052.4,-296.62 2059.36,-295.91"/>
</g>
<!-- kcodecs&#45;&gt;knotifications -->
<g id="edge126" class="edge">
<title>kcodecs&#45;&gt;knotifications</title>
<path fill="none" stroke="black" d="M1942.49,-547.08C1923.37,-544.21 1901.64,-541 1881.83,-538.16 1772.89,-522.56 1646.51,-505.38 1568.87,-494.93"/>
<polygon fill="black" stroke="black" points="1569.08,-491.43 1558.71,-493.57 1568.15,-498.37 1569.08,-491.43"/>
</g>
<!-- kguiaddons -->
<g id="node34" class="node">
<title>kguiaddons</title>
<g id="a_node34"><a xlink:href="https://github.com/conda-forge/kguiaddons-feedstock/pull/18" xlink:title="kguiaddons ❎">
<ellipse fill="#31688e" stroke="black" cx="2153.83" cy="-556.16" rx="78" ry="18"/>
<text text-anchor="middle" x="2153.83" y="-552.46" font-family="Times,serif" font-size="14.00" fill="white">kguiaddons ❎</text>
</a>
</g>
</g>
<!-- kguiaddons&#45;&gt;kconfigwidgets -->
<g id="edge127" class="edge">
<title>kguiaddons&#45;&gt;kconfigwidgets</title>
<path fill="none" stroke="black" d="M2110.58,-541.08C2076.51,-529.99 2028.83,-514.46 1992.35,-502.59"/>
<polygon fill="black" stroke="black" points="1992.97,-499.11 1982.38,-499.34 1990.8,-505.76 1992.97,-499.11"/>
</g>
<!-- kguiaddons&#45;&gt;kdenlive -->
<g id="edge128" class="edge">
<title>kguiaddons&#45;&gt;kdenlive</title>
<path fill="none" stroke="black" d="M2210.93,-543.78C2286.81,-528.63 2411.67,-503.54 2413.83,-502.16 2430.57,-491.46 2460.63,-449.04 2466.83,-430.16 2492.18,-352.96 2482.79,-315.75 2434.83,-250.16 2355.71,-141.96 2300.54,-135.88 2169.83,-106.16 2038.37,-76.28 1631.48,-60.17 1477.6,-55.02"/>
<polygon fill="black" stroke="black" points="1477.51,-51.51 1467.4,-54.68 1477.28,-58.51 1477.51,-51.51"/>
</g>
<!-- kwidgetsaddons -->
<g id="node35" class="node">
<title>kwidgetsaddons</title>
<g id="a_node35"><a xlink:href="https://github.com/conda-forge/kwidgetsaddons-feedstock/pull/18" xlink:title="kwidgetsaddons ❎">
<ellipse fill="#31688e" stroke="black" cx="2885.83" cy="-556.16" rx="100.18" ry="18"/>
<text text-anchor="middle" x="2885.83" y="-552.46" font-family="Times,serif" font-size="14.00" fill="white">kwidgetsaddons ❎</text>
</a>
</g>
</g>
<!-- kwidgetsaddons&#45;&gt;kconfigwidgets -->
<g id="edge129" class="edge">
<title>kwidgetsaddons&#45;&gt;kconfigwidgets</title>
<path fill="none" stroke="black" d="M2800.21,-546.81C2768.95,-543.89 2733.31,-540.7 2700.83,-538.16 2453.51,-518.81 2391.23,-520.41 2143.83,-502.16 2103.95,-499.22 2059.74,-495.6 2022.61,-492.46"/>
<polygon fill="black" stroke="black" points="2022.6,-488.94 2012.34,-491.58 2022.01,-495.92 2022.6,-488.94"/>
</g>
<!-- kwidgetsaddons&#45;&gt;kiconthemes -->
<g id="edge130" class="edge">
<title>kwidgetsaddons&#45;&gt;kiconthemes</title>
<path fill="none" stroke="black" d="M2866.27,-538.43C2854.57,-528.23 2839.55,-514.75 2826.83,-502.16 2811.4,-486.89 2813.61,-475.11 2793.83,-466.16 2705.84,-426.36 1152.08,-438.06 1055.83,-430.16 1039.17,-428.79 1021.29,-426.6 1004.6,-424.23"/>
<polygon fill="black" stroke="black" points="1004.79,-420.72 994.39,-422.74 1003.78,-427.65 1004.79,-420.72"/>
</g>
<!-- kwidgetsaddons&#45;&gt;ktextwidgets -->
<g id="edge131" class="edge">
<title>kwidgetsaddons&#45;&gt;ktextwidgets</title>
<path fill="none" stroke="black" d="M2880.07,-538.11C2871.92,-516.97 2854.81,-481.84 2826.83,-466.16 2730.42,-412.13 1942.91,-439.99 1832.83,-430.16 1816.39,-428.69 1798.75,-426.51 1782.22,-424.19"/>
<polygon fill="black" stroke="black" points="1782.49,-420.7 1772.09,-422.74 1781.5,-427.63 1782.49,-420.7"/>
</g>
<!-- kwidgetsaddons&#45;&gt;kxmlgui -->
<g id="edge132" class="edge">
<title>kwidgetsaddons&#45;&gt;kxmlgui</title>
<path fill="none" stroke="black" d="M2901.87,-538.39C2918.65,-518.83 2940.06,-486.59 2920.83,-466.16 2875.28,-417.78 2389.98,-436.49 2323.83,-430.16 2201.56,-418.46 2172.06,-406.27 2049.83,-394.16 1775.44,-366.98 1446.17,-349.91 1315.41,-343.75"/>
<polygon fill="black" stroke="black" points="1315.38,-340.25 1305.23,-343.28 1315.06,-347.24 1315.38,-340.25"/>
</g>
<!-- kwidgetsaddons&#45;&gt;kio -->
<g id="edge133" class="edge">
<title>kwidgetsaddons&#45;&gt;kio</title>
<path fill="none" stroke="black" d="M2918.22,-539.05C2932.19,-530.23 2947.08,-517.88 2954.83,-502.16 2961.9,-487.81 2964.77,-478.7 2954.83,-466.16 2911.15,-411.09 2868.02,-450.8 2800.83,-430.16 2587.4,-364.6 2549.2,-301.13 2331.83,-250.16 2138.29,-204.78 1898.53,-198.05 1807.87,-197.2"/>
<polygon fill="black" stroke="black" points="1807.84,-193.7 1797.82,-197.13 1807.79,-200.7 1807.84,-193.7"/>
</g>
<!-- kwidgetsaddons&#45;&gt;kwallet -->
<g id="edge134" class="edge">
<title>kwidgetsaddons&#45;&gt;kwallet</title>
<path fill="none" stroke="black" d="M2896.74,-537.98C2907.9,-518.02 2921.18,-485.39 2902.83,-466.16 2873.3,-435.22 2176.53,-432.62 2133.83,-430.16 2066.52,-426.28 1988.99,-420.8 1938.8,-417.13"/>
<polygon fill="black" stroke="black" points="1939.05,-413.64 1928.82,-416.39 1938.54,-420.62 1939.05,-413.64"/>
</g>
<!-- kwidgetsaddons&#45;&gt;knewstuff -->
<g id="edge135" class="edge">
<title>kwidgetsaddons&#45;&gt;knewstuff</title>
<path fill="none" stroke="black" d="M2928.21,-539.77C2944.91,-531.38 2962.34,-519.16 2971.83,-502.16 2979.63,-488.19 2980.9,-479.34 2971.83,-466.16 2857.3,-299.81 2309.82,-206.34 2109.83,-178.16 1726.18,-124.11 1625.79,-161.38 1238.83,-142.16 1160.34,-138.26 1070.07,-132.89 1010.7,-129.24"/>
<polygon fill="black" stroke="black" points="1010.55,-125.72 1000.36,-128.6 1010.12,-132.71 1010.55,-125.72"/>
</g>
<!-- kwidgetsaddons&#45;&gt;kdeclarative -->
<g id="edge136" class="edge">
<title>kwidgetsaddons&#45;&gt;kdeclarative</title>
<path fill="none" stroke="black" d="M2955.77,-543.19C3038.46,-528.87 3165.39,-506.3 3168.83,-502.16 3179.05,-489.85 3177.18,-479.81 3168.83,-466.16 3003.64,-196.33 2828.62,-237.4 2517.83,-178.16 2276.98,-132.25 1985.6,-125.22 1848.84,-124.7"/>
<polygon fill="black" stroke="black" points="1848.48,-121.2 1838.47,-124.67 1848.46,-128.2 1848.48,-121.2"/>
</g>
<!-- kwidgetsaddons&#45;&gt;kdenlive -->
<g id="edge137" class="edge">
<title>kwidgetsaddons&#45;&gt;kdenlive</title>
<path fill="none" stroke="black" d="M2967.7,-545.77C3076.29,-533.03 3255.77,-510.87 3267.83,-502.16 3361.48,-434.59 3382.83,-384.64 3382.83,-269.16 3382.83,-269.16 3382.83,-269.16 3382.83,-195.16 3382.83,0 3146.6,-129.39 2952.83,-106.16 2659.69,-71.02 1725.12,-57.02 1478.16,-53.88"/>
<polygon fill="black" stroke="black" points="1477.99,-50.37 1467.95,-53.75 1477.9,-57.37 1477.99,-50.37"/>
</g>
<!-- kwidgetsaddons&#45;&gt;kbookmarks -->
<g id="edge138" class="edge">
<title>kwidgetsaddons&#45;&gt;kbookmarks</title>
<path fill="none" stroke="black" d="M2907.61,-538.38C2929.28,-519.68 2956.77,-489.05 2937.83,-466.16 2910.57,-433.22 2790.67,-438.98 2748.83,-430.16 2511.22,-380.07 2229.94,-312.42 2110.78,-283.38"/>
<polygon fill="black" stroke="black" points="2111.33,-279.91 2100.78,-280.94 2109.67,-286.71 2111.33,-279.91"/>
</g>
<!-- kwidgetsaddons&#45;&gt;kjobwidgets -->
<g id="edge139" class="edge">
<title>kwidgetsaddons&#45;&gt;kjobwidgets</title>
<path fill="none" stroke="black" d="M2960.03,-544.07C2973.28,-542.1 2986.96,-540.07 2999.83,-538.16 3054.27,-530.1 3208.22,-543.24 3244.83,-502.16 3277.51,-465.49 3267.7,-403.34 3258.32,-367.94"/>
<polygon fill="black" stroke="black" points="3261.68,-366.97 3255.59,-358.29 3254.94,-368.87 3261.68,-366.97"/>
</g>
<!-- kwidgetsaddons&#45;&gt;kcompletion -->
<g id="edge140" class="edge">
<title>kwidgetsaddons&#45;&gt;kcompletion</title>
<path fill="none" stroke="black" d="M2803.76,-545.76C2716.43,-535.62 2574.26,-518.68 2451.83,-502.16 2436.32,-500.07 2419.67,-497.69 2403.97,-495.38"/>
<polygon fill="black" stroke="black" points="2404.23,-491.88 2393.82,-493.88 2403.2,-498.8 2404.23,-491.88"/>
</g>
<!-- kitemviews -->
<g id="node36" class="node">
<title>kitemviews</title>
<g id="a_node36"><a xlink:href="https://github.com/conda-forge/kitemviews-feedstock/pull/17" xlink:title="kitemviews ❎">
<ellipse fill="#31688e" stroke="black" cx="793.83" cy="-484.16" rx="77.5" ry="18"/>
<text text-anchor="middle" x="793.83" y="-480.46" font-family="Times,serif" font-size="14.00" fill="white">kitemviews ❎</text>
</a>
</g>
</g>
<!-- kitemviews&#45;&gt;kiconthemes -->
<g id="edge141" class="edge">
<title>kitemviews&#45;&gt;kiconthemes</title>
<path fill="none" stroke="black" d="M825.79,-467.63C846.91,-457.36 874.77,-443.82 897.42,-432.81"/>
<polygon fill="black" stroke="black" points="898.99,-435.93 906.46,-428.41 895.93,-429.64 898.99,-435.93"/>
</g>
<!-- kitemviews&#45;&gt;kxmlgui -->
<g id="edge142" class="edge">
<title>kitemviews&#45;&gt;kxmlgui</title>
<path fill="none" stroke="black" d="M868.17,-478.88C964.06,-472.34 1124.72,-457.62 1176.83,-430.16 1191.71,-422.32 1219.92,-389.13 1238.8,-365.59"/>
<polygon fill="black" stroke="black" points="1241.57,-367.73 1245.05,-357.72 1236.09,-363.37 1241.57,-367.73"/>
</g>
<!-- kitemviews&#45;&gt;kio -->
<g id="edge143" class="edge">
<title>kitemviews&#45;&gt;kio</title>
<path fill="none" stroke="black" d="M801.34,-465.9C811.31,-445.23 830.94,-411.26 858.83,-394.16 944.42,-341.68 991.84,-402.66 1081.83,-358.16 1102.68,-347.85 1098.72,-331.94 1119.83,-322.16 1252.9,-260.51 1314.76,-347.81 1447.83,-286.16 1468.94,-276.38 1465.1,-260.72 1485.83,-250.16 1567.35,-208.64 1676.8,-199.36 1733.41,-197.47"/>
<polygon fill="black" stroke="black" points="1733.78,-200.96 1743.68,-197.19 1733.59,-193.97 1733.78,-200.96"/>
</g>
<!-- kitemviews&#45;&gt;knewstuff -->
<g id="edge144" class="edge">
<title>kitemviews&#45;&gt;knewstuff</title>
<path fill="none" stroke="black" d="M788.63,-465.9C774.69,-415.85 741.75,-268.45 806.83,-178.16 824.66,-153.42 855.62,-140.23 883.79,-133.19"/>
<polygon fill="black" stroke="black" points="884.65,-136.59 893.62,-130.95 883.09,-129.77 884.65,-136.59"/>
</g>
<!-- kitemviews&#45;&gt;kdenlive -->
<g id="edge145" class="edge">
<title>kitemviews&#45;&gt;kdenlive</title>
<path fill="none" stroke="black" d="M735.15,-472.32C666.5,-459.4 559.98,-438.5 542.83,-430.16 520.41,-419.26 519.2,-409.84 499.83,-394.16 419.12,-328.82 402.41,-307.5 315.83,-250.16 288.3,-231.93 267.6,-242.61 250.83,-214.16 223.78,-168.26 255.99,-131.53 302.83,-106.16 395.72,-55.85 1139.22,-52.79 1357.68,-52.99"/>
<polygon fill="black" stroke="black" points="1357.67,-56.49 1367.68,-53.01 1357.68,-49.49 1357.67,-56.49"/>
</g>
<!-- kdbusaddons -->
<g id="node37" class="node">
<title>kdbusaddons</title>
<g id="a_node37"><a xlink:href="https://github.com/conda-forge/kdbusaddons-feedstock/pull/17" xlink:title="kdbusaddons ❎">
<ellipse fill="#31688e" stroke="black" cx="2605.83" cy="-556.16" rx="86" ry="18"/>
<text text-anchor="middle" x="2605.83" y="-552.46" font-family="Times,serif" font-size="14.00" fill="white">kdbusaddons ❎</text>
</a>
</g>
</g>
<!-- kdbusaddons&#45;&gt;kservice -->
<g id="edge146" class="edge">
<title>kdbusaddons&#45;&gt;kservice</title>
<path fill="none" stroke="black" d="M2532.07,-546.75C2461.66,-538.05 2352.82,-522.82 2259.83,-502.16 2255.91,-501.29 2251.86,-500.3 2247.82,-499.25"/>
<polygon fill="black" stroke="black" points="2248.4,-495.78 2237.84,-496.52 2246.56,-502.53 2248.4,-495.78"/>
</g>
<!-- kdbusaddons&#45;&gt;kio -->
<g id="edge147" class="edge">
<title>kdbusaddons&#45;&gt;kio</title>
<path fill="none" stroke="black" d="M2603.14,-537.99C2597.33,-506.02 2580.83,-436.76 2541.83,-394.16 2445.73,-289.2 2392.3,-290.54 2255.83,-250.16 2094.18,-202.34 1890.73,-196.84 1808.18,-196.76"/>
<polygon fill="black" stroke="black" points="1808.03,-193.26 1798.04,-196.78 1808.05,-200.26 1808.03,-193.26"/>
</g>
<!-- kdbusaddons&#45;&gt;kwallet -->
<g id="edge148" class="edge">
<title>kdbusaddons&#45;&gt;kwallet</title>
<path fill="none" stroke="black" d="M2596.26,-538.09C2583.35,-516.95 2558.19,-481.8 2525.83,-466.16 2409.16,-409.78 2071.47,-452.52 1943.83,-430.16 1938.98,-429.31 1933.96,-428.2 1929,-426.96"/>
<polygon fill="black" stroke="black" points="1929.52,-423.48 1918.96,-424.25 1927.7,-430.23 1929.52,-423.48"/>
</g>
<!-- kdbusaddons&#45;&gt;kdenlive -->
<g id="edge149" class="edge">
<title>kdbusaddons&#45;&gt;kdenlive</title>
<path fill="none" stroke="black" d="M2682.33,-547.85C2744.86,-538.19 2819.11,-516.1 2793.83,-466.16 2663.06,-207.82 2531.08,-178.99 2250.83,-106.16 2104.52,-68.14 1643.43,-56.89 1477.81,-54.03"/>
<polygon fill="black" stroke="black" points="1477.85,-50.53 1467.8,-53.86 1477.74,-57.53 1477.85,-50.53"/>
</g>
<!-- kdbusaddons&#45;&gt;kglobalaccel -->
<g id="edge150" class="edge">
<title>kdbusaddons&#45;&gt;kglobalaccel</title>
<path fill="none" stroke="black" d="M2631.57,-538.93C2646.81,-529.32 2666.3,-517.03 2682.8,-506.62"/>
<polygon fill="black" stroke="black" points="2685.02,-509.36 2691.61,-501.07 2681.28,-503.44 2685.02,-509.36"/>
</g>
<!-- kwindowsystem -->
<g id="node38" class="node">
<title>kwindowsystem</title>
<g id="a_node38"><a xlink:href="https://github.com/conda-forge/kwindowsystem-feedstock/pull/19" xlink:title="kwindowsystem ❎">
<ellipse fill="#31688e" stroke="black" cx="3153.83" cy="-628.16" rx="99" ry="18"/>
<text text-anchor="middle" x="3153.83" y="-624.46" font-family="Times,serif" font-size="14.00" fill="white">kwindowsystem ❎</text>
</a>
</g>
</g>
<!-- kwindowsystem&#45;&gt;kservice -->
<g id="edge151" class="edge">
<title>kwindowsystem&#45;&gt;kservice</title>
<path fill="none" stroke="black" d="M3056.1,-625.08C2929.39,-621.03 2702,-609.11 2510.83,-574.16 2414.53,-556.56 2305.17,-521.31 2245.83,-500.85"/>
<polygon fill="black" stroke="black" points="2246.64,-497.43 2236.05,-497.46 2244.35,-504.04 2246.64,-497.43"/>
</g>
<!-- kwindowsystem&#45;&gt;ktextwidgets -->
<g id="edge152" class="edge">
<title>kwindowsystem&#45;&gt;ktextwidgets</title>
<path fill="none" stroke="black" d="M3155.23,-609.91C3155.84,-589.89 3153.55,-557.2 3134.83,-538.16 3084.93,-487.43 3047.63,-520.32 2978.83,-502.16 2924.58,-487.85 2913.2,-475.22 2857.83,-466.16 2407.97,-392.57 2286.88,-470.45 1832.83,-430.16 1816.3,-428.7 1798.56,-426.5 1781.96,-424.17"/>
<polygon fill="black" stroke="black" points="1782.19,-420.67 1771.79,-422.71 1781.19,-427.6 1782.19,-420.67"/>
</g>
<!-- kwindowsystem&#45;&gt;kxmlgui -->
<g id="edge153" class="edge">
<title>kwindowsystem&#45;&gt;kxmlgui</title>
<path fill="none" stroke="black" d="M3168.02,-610.03C3181.48,-591.54 3197.87,-561.61 3184.83,-538.16 3155.33,-485.13 3126.45,-485.2 3068.83,-466.16 2732.02,-354.87 1587.27,-342.65 1315.87,-341.32"/>
<polygon fill="black" stroke="black" points="1315.86,-337.82 1305.84,-341.28 1315.83,-344.82 1315.86,-337.82"/>
</g>
<!-- kwindowsystem&#45;&gt;kio -->
<g id="edge154" class="edge">
<title>kwindowsystem&#45;&gt;kio</title>
<path fill="none" stroke="black" d="M3250.99,-624.45C3343.3,-619.86 3473.39,-607.49 3510.83,-574.16 3541.43,-546.92 3534.83,-526.13 3534.83,-485.16 3534.83,-485.16 3534.83,-485.16 3534.83,-411.16 3534.83,-297.7 3122.43,-265.41 2998.83,-250.16 2759.76,-220.67 1987.31,-201.98 1808.17,-197.97"/>
<polygon fill="black" stroke="black" points="1808.02,-194.47 1797.95,-197.74 1807.87,-201.47 1808.02,-194.47"/>
</g>
<!-- kwindowsystem&#45;&gt;kwallet -->
<g id="edge155" class="edge">
<title>kwindowsystem&#45;&gt;kwallet</title>
<path fill="none" stroke="black" d="M3163.1,-610.17C3172.18,-590.99 3182.65,-559.67 3167.83,-538.16 3116.82,-464.15 3066.81,-484.57 2978.83,-466.16 2927.54,-455.43 2152.77,-423.83 1939.7,-415.3"/>
<polygon fill="black" stroke="black" points="1939.82,-411.8 1929.69,-414.9 1939.54,-418.8 1939.82,-411.8"/>
</g>
<!-- kwindowsystem&#45;&gt;kdeclarative -->
<g id="edge156" class="edge">
<title>kwindowsystem&#45;&gt;kdeclarative</title>
<path fill="none" stroke="black" d="M3250.89,-624.48C3349.14,-619.91 3492.57,-607.55 3535.83,-574.16 3569.74,-547.99 3572.83,-528 3572.83,-485.16 3572.83,-485.16 3572.83,-485.16 3572.83,-411.16 3572.83,-251.16 3259.88,-268.96 3165.83,-250.16 2975.38,-212.11 2927.86,-199.53 2734.83,-178.16 2406.55,-141.83 2012.5,-130.03 1848.42,-126.52"/>
<polygon fill="black" stroke="black" points="1848.02,-123.01 1837.95,-126.3 1847.87,-130.01 1848.02,-123.01"/>
</g>
<!-- kwindowsystem&#45;&gt;kcrash -->
<g id="edge157" class="edge">
<title>kwindowsystem&#45;&gt;kcrash</title>
<path fill="none" stroke="black" d="M3136.88,-610.22C3127.86,-601.19 3116.62,-589.95 3106.82,-580.15"/>
<polygon fill="black" stroke="black" points="3109.2,-577.59 3099.66,-572.99 3104.26,-582.54 3109.2,-577.59"/>
</g>
<!-- kwindowsystem&#45;&gt;kglobalaccel -->
<g id="edge158" class="edge">
<title>kwindowsystem&#45;&gt;kglobalaccel</title>
<path fill="none" stroke="black" d="M3059.24,-622.59C2963.29,-616.44 2822.58,-602.76 2776.83,-574.16 2753.37,-559.5 2736.94,-531.9 2727.27,-511.31"/>
<polygon fill="black" stroke="black" points="2730.45,-509.85 2723.19,-502.13 2724.06,-512.69 2730.45,-509.85"/>
</g>
<!-- kwindowsystem&#45;&gt;knotifications -->
<g id="edge159" class="edge">
<title>kwindowsystem&#45;&gt;knotifications</title>
<path fill="none" stroke="black" d="M3056.02,-624.98C2805.1,-619.07 2142.99,-601.31 1924.83,-574.16 1790.6,-557.45 1635.84,-521.01 1553.85,-500.31"/>
<polygon fill="black" stroke="black" points="1554.53,-496.88 1543.98,-497.81 1552.81,-503.66 1554.53,-496.88"/>
</g>
<!-- sonnet -->
<g id="node39" class="node">
<title>sonnet</title>
<g id="a_node39"><a xlink:href="https://github.com/conda-forge/sonnet-feedstock/pull/18" xlink:title="sonnet ✓">
<ellipse fill="#31688e" stroke="black" cx="1713.83" cy="-484.16" rx="49.5" ry="18"/>
<text text-anchor="middle" x="1713.83" y="-480.46" font-family="Times,serif" font-size="14.00" fill="white">sonnet ✓</text>
</a>
</g>
</g>
<!-- sonnet&#45;&gt;ktextwidgets -->
<g id="edge160" class="edge">
<title>sonnet&#45;&gt;ktextwidgets</title>
<path fill="none" stroke="black" d="M1713.83,-465.86C1713.83,-458.14 1713.83,-448.87 1713.83,-440.27"/>
<polygon fill="black" stroke="black" points="1717.33,-440.27 1713.83,-430.27 1710.33,-440.27 1717.33,-440.27"/>
</g>
<!-- solid -->
<g id="node40" class="node">
<title>solid</title>
<g id="a_node40"><a xlink:href="https://github.com/conda-forge/solid-feedstock/pull/17" xlink:title="solid ✓">
<ellipse fill="#31688e" stroke="black" cx="1288.83" cy="-268.16" rx="40.5" ry="18"/>
<text text-anchor="middle" x="1288.83" y="-264.46" font-family="Times,serif" font-size="14.00" fill="white">solid ✓</text>
</a>
</g>
</g>
<!-- solid&#45;&gt;kio -->
<g id="edge161" class="edge">
<title>solid&#45;&gt;kio</title>
<path fill="none" stroke="black" d="M1319.99,-256.49C1327.71,-254.13 1336.01,-251.84 1343.83,-250.16 1486.18,-219.58 1659.3,-204.84 1733.81,-199.55"/>
<polygon fill="black" stroke="black" points="1734.34,-203.02 1744.07,-198.84 1733.85,-196.04 1734.34,-203.02"/>
</g>
<!-- solid&#45;&gt;kdenlive -->
<g id="edge162" class="edge">
<title>solid&#45;&gt;kdenlive</title>
<path fill="none" stroke="black" d="M1275.09,-250.93C1250.61,-219.95 1205.03,-151.42 1238.83,-106.16 1253.83,-86.08 1316.03,-70.92 1362.93,-62.06"/>
<polygon fill="black" stroke="black" points="1363.78,-65.47 1372.98,-60.22 1362.51,-58.58 1363.78,-65.47"/>
</g>
<!-- attica -->
<g id="node41" class="node">
<title>attica</title>
<g id="a_node41"><a xlink:href="https://github.com/conda-forge/attica-feedstock/pull/20" xlink:title="attica ❎">
<ellipse fill="#31688e" stroke="black" cx="1115.83" cy="-412.16" rx="51.5" ry="18"/>
<text text-anchor="middle" x="1115.83" y="-408.46" font-family="Times,serif" font-size="14.00" fill="white">attica ❎</text>
</a>
</g>
</g>
<!-- attica&#45;&gt;kxmlgui -->
<g id="edge163" class="edge">
<title>attica&#45;&gt;kxmlgui</title>
<path fill="none" stroke="black" d="M1144.57,-397C1166.46,-386.2 1196.78,-371.26 1220.54,-359.54"/>
<polygon fill="black" stroke="black" points="1222.2,-362.63 1229.62,-355.07 1219.1,-356.35 1222.2,-362.63"/>
</g>
<!-- attica&#45;&gt;knewstuff -->
<g id="edge164" class="edge">
<title>attica&#45;&gt;knewstuff</title>
<path fill="none" stroke="black" d="M1096.59,-395.16C1070.91,-372.96 1025.37,-330.51 996.83,-286.16 978.16,-257.15 978.44,-246.99 967.83,-214.16 961.23,-193.75 955.48,-170.16 951.52,-152.4"/>
<polygon fill="black" stroke="black" points="954.89,-151.45 949.34,-142.42 948.05,-152.94 954.89,-151.45"/>
</g>
<!-- kirigami2 -->
<g id="node42" class="node">
<title>kirigami2</title>
<g id="a_node42"><a xlink:href="https://github.com/conda-forge/kirigami2-feedstock/pull/22" xlink:title="kirigami2 ❎">
<ellipse fill="#31688e" stroke="black" cx="349.83" cy="-196.16" rx="69.59" ry="18"/>
<text text-anchor="middle" x="349.83" y="-192.46" font-family="Times,serif" font-size="14.00" fill="white">kirigami2 ❎</text>
</a>
</g>
</g>
<!-- kirigami2&#45;&gt;purpose -->
<g id="edge165" class="edge">
<title>kirigami2&#45;&gt;purpose</title>
<path fill="none" stroke="black" d="M390.96,-181.58C427.21,-169.61 479.92,-152.21 517.19,-139.9"/>
<polygon fill="black" stroke="black" points="518.39,-143.19 526.79,-136.73 516.2,-136.54 518.39,-143.19"/>
</g>
<!-- pyqtads -->
<g id="node44" class="node">
<title>pyqtads</title>
<g id="a_node44"><a xlink:href="https://github.com/conda-forge/pyqtads-feedstock" xlink:title="pyqtads">
<ellipse fill="#ff8c00" stroke="black" cx="3730.83" cy="-251.16" rx="48.19" ry="18"/>
<text text-anchor="middle" x="3730.83" y="-247.46" font-family="Times,serif" font-size="14.00">pyqtads</text>
</a>
</g>
</g>
<!-- prismatic_split&#45;&gt;pyqtads -->
<!-- gammaray -->
<g id="node45" class="node">
<title>gammaray</title>
<g id="a_node45"><a xlink:href="https://github.com/conda-forge/gammaray-feedstock/pull/2" xlink:title="gammaray ❎">
<ellipse fill="#31688e" stroke="black" cx="3730.83" cy="-179.16" rx="74.19" ry="18"/>
<text text-anchor="middle" x="3730.83" y="-175.46" font-family="Times,serif" font-size="14.00" fill="white">gammaray ❎</text>
</a>
</g>
</g>
<!-- pyqtads&#45;&gt;gammaray -->
<!-- tomviz -->
<g id="node46" class="node">
<title>tomviz</title>
<g id="a_node46"><a xlink:href="https://github.com/conda-forge/tomviz-feedstock/pull/50" xlink:title="tomviz ❎">
<ellipse fill="#31688e" stroke="black" cx="3730.83" cy="-107.16" rx="56" ry="18"/>
<text text-anchor="middle" x="3730.83" y="-103.46" font-family="Times,serif" font-size="14.00" fill="white">tomviz ❎</text>
</a>
</g>
</g>
<!-- gammaray&#45;&gt;tomviz -->
</g>
</svg>
