<?xml version="1.0" encoding="UTF-8" standalone="no"?>
<!DOCTYPE svg PUBLIC "-//W3C//DTD SVG 1.1//EN"
 "http://www.w3.org/Graphics/SVG/1.1/DTD/svg11.dtd">
<!-- Generated by graphviz version 6.0.1 (20220911.2005)
 -->
<!-- Pages: 1 -->
<svg width="3947pt" height="692pt"
 viewBox="0.00 0.00 3946.68 692.00" xmlns="http://www.w3.org/2000/svg" xmlns:xlink="http://www.w3.org/1999/xlink">
<g id="graph0" class="graph" transform="scale(1 1) rotate(0) translate(4 688)">
<polygon fill="white" stroke="none" points="-4,4 -4,-688 3942.68,-688 3942.68,4 -4,4"/>
<!-- mayavi -->
<g id="node1" class="node">
<title>mayavi</title>
<g id="a_node1"><a xlink:href="https://github.com/conda-forge/mayavi-feedstock/pull/68" xlink:title="mayavi ❎">
<ellipse fill="#31688e" stroke="black" cx="3731.18" cy="-666" rx="58" ry="18"/>
<text text-anchor="middle" x="3731.18" y="-662.3" font-family="Times,serif" font-size="14.00" fill="white">mayavi ❎</text>
</a>
</g>
</g>
<!-- qtserialport -->
<g id="node2" class="node">
<title>qtserialport</title>
<g id="a_node2"><a xlink:href="https://github.com/conda-forge/qtserialport-feedstock/pull/6" xlink:title="qtserialport ❎">
<ellipse fill="#31688e" stroke="black" cx="3731.18" cy="-594" rx="80" ry="18"/>
<text text-anchor="middle" x="3731.18" y="-590.3" font-family="Times,serif" font-size="14.00" fill="white">qtserialport ❎</text>
</a>
</g>
</g>
<!-- mayavi&#45;&gt;qtserialport -->
<!-- lxqt&#45;build&#45;tools -->
<g id="node6" class="node">
<title>lxqt&#45;build&#45;tools</title>
<g id="a_node6"><a xlink:href="https://github.com/conda-forge/lxqt-build-tools-feedstock/pull/6" xlink:title="lxqt build tools ✓">
<ellipse fill="#31688e" stroke="black" cx="3731.18" cy="-522" rx="87.99" ry="18"/>
<text text-anchor="middle" x="3731.18" y="-518.3" font-family="Times,serif" font-size="14.00" fill="white">lxqt build tools ✓</text>
</a>
</g>
</g>
<!-- qtserialport&#45;&gt;lxqt&#45;build&#45;tools -->
<!-- pivy -->
<g id="node3" class="node">
<title>pivy</title>
<g id="a_node3"><a xlink:href="https://github.com/conda-forge/pivy-feedstock" xlink:title="pivy">
<ellipse fill="#fde725" stroke="black" cx="3893.18" cy="-342" rx="30.59" ry="18"/>
<text text-anchor="middle" x="3893.18" y="-338.3" font-family="Times,serif" font-size="14.00">pivy</text>
</a>
</g>
</g>
<!-- freecad -->
<g id="node4" class="node">
<title>freecad</title>
<g id="a_node4"><a xlink:href="https://github.com/conda-forge/freecad-feedstock" xlink:title="freecad">
<ellipse fill="#fde725" stroke="black" cx="3893.18" cy="-270" rx="45.5" ry="18"/>
<text text-anchor="middle" x="3893.18" y="-266.3" font-family="Times,serif" font-size="14.00">freecad</text>
</a>
</g>
</g>
<!-- pivy&#45;&gt;freecad -->
<g id="edge2" class="edge">
<title>pivy&#45;&gt;freecad</title>
<path fill="none" stroke="black" d="M3893.18,-323.7C3893.18,-315.98 3893.18,-306.71 3893.18,-298.11"/>
<polygon fill="black" stroke="black" points="3896.68,-298.1 3893.18,-288.1 3889.68,-298.1 3896.68,-298.1"/>
</g>
<!-- soqt -->
<g id="node5" class="node">
<title>soqt</title>
<g id="a_node5"><a xlink:href="https://github.com/conda-forge/soqt-feedstock" xlink:title="soqt">
<ellipse fill="#000000" stroke="black" cx="3893.18" cy="-414" rx="30.59" ry="18"/>
<text text-anchor="middle" x="3893.18" y="-410.3" font-family="Times,serif" font-size="14.00" fill="white">soqt</text>
</a>
</g>
</g>
<!-- soqt&#45;&gt;pivy -->
<g id="edge3" class="edge">
<title>soqt&#45;&gt;pivy</title>
<path fill="none" stroke="black" d="M3893.18,-395.7C3893.18,-387.98 3893.18,-378.71 3893.18,-370.11"/>
<polygon fill="black" stroke="black" points="3896.68,-370.1 3893.18,-360.1 3889.68,-370.1 3896.68,-370.1"/>
</g>
<!-- jkqtplotter -->
<g id="node7" class="node">
<title>jkqtplotter</title>
<g id="a_node7"><a xlink:href="https://github.com/conda-forge/jkqtplotter-feedstock/pull/5" xlink:title="jkqtplotter ❎">
<ellipse fill="#31688e" stroke="black" cx="3731.18" cy="-450" rx="74.99" ry="18"/>
<text text-anchor="middle" x="3731.18" y="-446.3" font-family="Times,serif" font-size="14.00" fill="white">jkqtplotter ❎</text>
</a>
</g>
</g>
<!-- lxqt&#45;build&#45;tools&#45;&gt;jkqtplotter -->
<!-- prismatic_split -->
<g id="node44" class="node">
<title>prismatic_split</title>
<g id="a_node44"><a xlink:href="https://github.com/conda-forge/prismatic_split-feedstock/pull/29" xlink:title="prismatic_split ❎">
<ellipse fill="#31688e" stroke="black" cx="3731.18" cy="-378" rx="93.68" ry="18"/>
<text text-anchor="middle" x="3731.18" y="-374.3" font-family="Times,serif" font-size="14.00" fill="white">prismatic_split ❎</text>
</a>
</g>
</g>
<!-- jkqtplotter&#45;&gt;prismatic_split -->
<!-- ki18n -->
<g id="node8" class="node">
<title>ki18n</title>
<g id="a_node8"><a xlink:href="https://github.com/conda-forge/ki18n-feedstock/pull/19" xlink:title="ki18n ✓">
<ellipse fill="#31688e" stroke="black" cx="633.18" cy="-574" rx="44.39" ry="18"/>
<text text-anchor="middle" x="633.18" y="-570.3" font-family="Times,serif" font-size="14.00" fill="white">ki18n ✓</text>
</a>
</g>
</g>
<!-- kconfigwidgets -->
<g id="node9" class="node">
<title>kconfigwidgets</title>
<g id="a_node9"><a xlink:href="https://github.com/conda-forge/kconfigwidgets-feedstock" xlink:title="kconfigwidgets">
<ellipse fill="#fde725" stroke="black" cx="1927.18" cy="-502" rx="80.69" ry="18"/>
<text text-anchor="middle" x="1927.18" y="-498.3" font-family="Times,serif" font-size="14.00">kconfigwidgets</text>
</a>
</g>
</g>
<!-- ki18n&#45;&gt;kconfigwidgets -->
<g id="edge6" class="edge">
<title>ki18n&#45;&gt;kconfigwidgets</title>
<path fill="none" stroke="black" d="M677.31,-571.8C828.55,-567.51 1339.87,-551.45 1761.18,-520 1789.23,-517.91 1819.88,-514.96 1847.13,-512.1"/>
<polygon fill="black" stroke="black" points="1847.82,-515.55 1857.39,-511.01 1847.08,-508.58 1847.82,-515.55"/>
</g>
<!-- kiconthemes -->
<g id="node10" class="node">
<title>kiconthemes</title>
<g id="a_node10"><a xlink:href="https://github.com/conda-forge/kiconthemes-feedstock" xlink:title="kiconthemes">
<ellipse fill="#fde725" stroke="black" cx="926.18" cy="-430" rx="69.59" ry="18"/>
<text text-anchor="middle" x="926.18" y="-426.3" font-family="Times,serif" font-size="14.00">kiconthemes</text>
</a>
</g>
</g>
<!-- ki18n&#45;&gt;kiconthemes -->
<g id="edge7" class="edge">
<title>ki18n&#45;&gt;kiconthemes</title>
<path fill="none" stroke="black" d="M677.64,-572.85C728.32,-570.59 811.57,-560.35 869.18,-520 891.27,-504.53 906.78,-477.49 915.99,-457.27"/>
<polygon fill="black" stroke="black" points="919.25,-458.53 920,-447.97 912.82,-455.76 919.25,-458.53"/>
</g>
<!-- kservice -->
<g id="node11" class="node">
<title>kservice</title>
<g id="a_node11"><a xlink:href="https://github.com/conda-forge/kservice-feedstock" xlink:title="kservice">
<ellipse fill="#fde725" stroke="black" cx="2190.18" cy="-502" rx="49.5" ry="18"/>
<text text-anchor="middle" x="2190.18" y="-498.3" font-family="Times,serif" font-size="14.00">kservice</text>
</a>
</g>
</g>
<!-- ki18n&#45;&gt;kservice -->
<g id="edge8" class="edge">
<title>ki18n&#45;&gt;kservice</title>
<path fill="none" stroke="black" d="M677.28,-571.67C882.71,-565.4 1747.3,-538.41 2017.18,-520 2056.06,-517.35 2099.74,-513.04 2133.48,-509.43"/>
<polygon fill="black" stroke="black" points="2134.05,-512.89 2143.62,-508.34 2133.3,-505.93 2134.05,-512.89"/>
</g>
<!-- ktextwidgets -->
<g id="node12" class="node">
<title>ktextwidgets</title>
<g id="a_node12"><a xlink:href="https://github.com/conda-forge/ktextwidgets-feedstock" xlink:title="ktextwidgets">
<ellipse fill="#fde725" stroke="black" cx="1702.18" cy="-430" rx="71.5" ry="18"/>
<text text-anchor="middle" x="1702.18" y="-426.3" font-family="Times,serif" font-size="14.00">ktextwidgets</text>
</a>
</g>
</g>
<!-- ki18n&#45;&gt;ktextwidgets -->
<g id="edge9" class="edge">
<title>ki18n&#45;&gt;ktextwidgets</title>
<path fill="none" stroke="black" d="M675.64,-568.58C756.71,-560.04 939.1,-540.31 1092.18,-520 1199.1,-505.81 1225.46,-499.65 1332.18,-484 1436.12,-468.76 1556.56,-451.6 1631.07,-441.04"/>
<polygon fill="black" stroke="black" points="1631.86,-444.47 1641.27,-439.6 1630.88,-437.54 1631.86,-444.47"/>
</g>
<!-- kxmlgui -->
<g id="node13" class="node">
<title>kxmlgui</title>
<g id="a_node13"><a xlink:href="https://github.com/conda-forge/kxmlgui-feedstock" xlink:title="kxmlgui">
<ellipse fill="#fde725" stroke="black" cx="1246.18" cy="-358" rx="48.19" ry="18"/>
<text text-anchor="middle" x="1246.18" y="-354.3" font-family="Times,serif" font-size="14.00">kxmlgui</text>
</a>
</g>
</g>
<!-- ki18n&#45;&gt;kxmlgui -->
<g id="edge10" class="edge">
<title>ki18n&#45;&gt;kxmlgui</title>
<path fill="none" stroke="black" d="M675.23,-568.29C791.46,-554.58 1114.02,-511.57 1197.18,-448 1217.56,-432.42 1230.6,-405.82 1238.06,-385.75"/>
<polygon fill="black" stroke="black" points="1241.39,-386.81 1241.37,-376.22 1234.78,-384.51 1241.39,-386.81"/>
</g>
<!-- kio -->
<g id="node14" class="node">
<title>kio</title>
<g id="a_node14"><a xlink:href="https://github.com/conda-forge/kio-feedstock" xlink:title="kio">
<ellipse fill="#fde725" stroke="black" cx="1759.18" cy="-214" rx="27" ry="18"/>
<text text-anchor="middle" x="1759.18" y="-210.3" font-family="Times,serif" font-size="14.00">kio</text>
</a>
</g>
</g>
<!-- ki18n&#45;&gt;kio -->
<g id="edge11" class="edge">
<title>ki18n&#45;&gt;kio</title>
<path fill="none" stroke="black" d="M645.28,-556.52C659.44,-537.81 684.16,-506.92 709.18,-484 749.83,-446.76 760.42,-435.72 810.18,-412 864.3,-386.21 1011.34,-351.48 1070.18,-340 1206.75,-313.35 1250.35,-351.37 1381.18,-304 1408.65,-294.05 1408.95,-278.59 1436.18,-268 1534.6,-229.7 1660.34,-219.08 1721.87,-216.13"/>
<polygon fill="black" stroke="black" points="1722.41,-219.61 1732.24,-215.68 1722.1,-212.62 1722.41,-219.61"/>
</g>
<!-- kpackage -->
<g id="node15" class="node">
<title>kpackage</title>
<g id="a_node15"><a xlink:href="https://github.com/conda-forge/kpackage-feedstock" xlink:title="kpackage">
<ellipse fill="#fde725" stroke="black" cx="594.18" cy="-430" rx="54" ry="18"/>
<text text-anchor="middle" x="594.18" y="-426.3" font-family="Times,serif" font-size="14.00">kpackage</text>
</a>
</g>
</g>
<!-- ki18n&#45;&gt;kpackage -->
<g id="edge12" class="edge">
<title>ki18n&#45;&gt;kpackage</title>
<path fill="none" stroke="black" d="M605.03,-560.11C589.31,-551.26 571.14,-537.88 562.18,-520 551.74,-499.19 562.69,-474.13 574.53,-455.91"/>
<polygon fill="black" stroke="black" points="577.49,-457.77 580.32,-447.56 571.74,-453.78 577.49,-457.77"/>
</g>
<!-- kwallet -->
<g id="node16" class="node">
<title>kwallet</title>
<g id="a_node16"><a xlink:href="https://github.com/conda-forge/kwallet-feedstock" xlink:title="kwallet">
<ellipse fill="#fde725" stroke="black" cx="1874.18" cy="-430" rx="44.39" ry="18"/>
<text text-anchor="middle" x="1874.18" y="-426.3" font-family="Times,serif" font-size="14.00">kwallet</text>
</a>
</g>
</g>
<!-- ki18n&#45;&gt;kwallet -->
<g id="edge13" class="edge">
<title>ki18n&#45;&gt;kwallet</title>
<path fill="none" stroke="black" d="M676.9,-570.78C775.37,-565.42 1021.9,-549.92 1226.18,-520 1305.18,-508.43 1323.21,-495.77 1402.18,-484 1570.41,-458.92 1614.74,-471.64 1783.18,-448 1797,-446.06 1811.92,-443.48 1825.6,-440.92"/>
<polygon fill="black" stroke="black" points="1826.62,-444.29 1835.78,-438.97 1825.31,-437.41 1826.62,-444.29"/>
</g>
<!-- kfilemetadata -->
<g id="node17" class="node">
<title>kfilemetadata</title>
<g id="a_node17"><a xlink:href="https://github.com/conda-forge/kfilemetadata-feedstock" xlink:title="kfilemetadata">
<ellipse fill="#fde725" stroke="black" cx="220.18" cy="-430" rx="74.19" ry="18"/>
<text text-anchor="middle" x="220.18" y="-426.3" font-family="Times,serif" font-size="14.00">kfilemetadata</text>
</a>
</g>
</g>
<!-- ki18n&#45;&gt;kfilemetadata -->
<g id="edge14" class="edge">
<title>ki18n&#45;&gt;kfilemetadata</title>
<path fill="none" stroke="black" d="M589.17,-572.2C501.1,-569.76 307.23,-559.87 256.18,-520 237.05,-505.06 228.04,-478.32 223.82,-458.04"/>
<polygon fill="black" stroke="black" points="227.25,-457.33 222.02,-448.12 220.36,-458.58 227.25,-457.33"/>
</g>
<!-- knotifyconfig -->
<g id="node18" class="node">
<title>knotifyconfig</title>
<g id="a_node18"><a xlink:href="https://github.com/conda-forge/knotifyconfig-feedstock" xlink:title="knotifyconfig">
<ellipse fill="#fde725" stroke="black" cx="1307.18" cy="-142" rx="71" ry="18"/>
<text text-anchor="middle" x="1307.18" y="-138.3" font-family="Times,serif" font-size="14.00">knotifyconfig</text>
</a>
</g>
</g>
<!-- ki18n&#45;&gt;knotifyconfig -->
<g id="edge15" class="edge">
<title>ki18n&#45;&gt;knotifyconfig</title>
<path fill="none" stroke="black" d="M618.92,-556.62C604.77,-538.27 586.98,-507.96 600.18,-484 614.64,-457.76 632.97,-465.66 657.18,-448 677.32,-433.31 679.02,-425.18 700.18,-412 893.02,-291.88 1148.73,-197.27 1256.19,-160.09"/>
<polygon fill="black" stroke="black" points="1257.5,-163.34 1265.81,-156.78 1255.22,-156.73 1257.5,-163.34"/>
</g>
<!-- purpose -->
<g id="node19" class="node">
<title>purpose</title>
<g id="a_node19"><a xlink:href="https://github.com/conda-forge/purpose-feedstock" xlink:title="purpose">
<ellipse fill="#fde725" stroke="black" cx="550.18" cy="-142" rx="48.19" ry="18"/>
<text text-anchor="middle" x="550.18" y="-138.3" font-family="Times,serif" font-size="14.00">purpose</text>
</a>
</g>
</g>
<!-- ki18n&#45;&gt;purpose -->
<g id="edge16" class="edge">
<title>ki18n&#45;&gt;purpose</title>
<path fill="none" stroke="black" d="M588.81,-573.41C482.05,-573.59 214.36,-569 142.18,-520 112.24,-499.68 112.88,-483.12 104.18,-448 100.33,-432.47 100.33,-427.53 104.18,-412 112.88,-376.88 121.4,-369.62 142.18,-340 167.03,-304.59 235.44,-217.15 273.18,-196 341.68,-157.61 433.06,-146.52 491.77,-143.59"/>
<polygon fill="black" stroke="black" points="492.15,-147.08 501.98,-143.15 491.84,-140.08 492.15,-147.08"/>
</g>
<!-- knewstuff -->
<g id="node20" class="node">
<title>knewstuff</title>
<g id="a_node20"><a xlink:href="https://github.com/conda-forge/knewstuff-feedstock" xlink:title="knewstuff">
<ellipse fill="#fde725" stroke="black" cx="934.18" cy="-142" rx="56" ry="18"/>
<text text-anchor="middle" x="934.18" y="-138.3" font-family="Times,serif" font-size="14.00">knewstuff</text>
</a>
</g>
</g>
<!-- ki18n&#45;&gt;knewstuff -->
<g id="edge17" class="edge">
<title>ki18n&#45;&gt;knewstuff</title>
<path fill="none" stroke="black" d="M589.85,-570.25C499.23,-564.04 292.77,-547.29 228.18,-520 170.36,-495.57 103.42,-464.91 137.18,-412 198.47,-315.95 493.22,-229.3 602.18,-196 692.97,-168.25 802.41,-154.37 870.16,-147.93"/>
<polygon fill="black" stroke="black" points="870.62,-151.41 880.25,-147 869.97,-144.44 870.62,-151.41"/>
</g>
<!-- kdeclarative -->
<g id="node21" class="node">
<title>kdeclarative</title>
<g id="a_node21"><a xlink:href="https://github.com/conda-forge/kdeclarative-feedstock" xlink:title="kdeclarative">
<ellipse fill="#fde725" stroke="black" cx="1759.18" cy="-142" rx="67.69" ry="18"/>
<text text-anchor="middle" x="1759.18" y="-138.3" font-family="Times,serif" font-size="14.00">kdeclarative</text>
</a>
</g>
</g>
<!-- ki18n&#45;&gt;kdeclarative -->
<g id="edge18" class="edge">
<title>ki18n&#45;&gt;kdeclarative</title>
<path fill="none" stroke="black" d="M638.17,-555.88C644.14,-537.15 655.35,-506.75 671.18,-484 697.76,-445.81 707.66,-436.56 747.18,-412 756.99,-405.9 1126.05,-271.07 1137.18,-268 1221.3,-244.81 1245.76,-254.09 1330.18,-232 1378.31,-219.41 1387.91,-208.07 1436.18,-196 1521.74,-174.61 1622.27,-159.67 1688.18,-151.23"/>
<polygon fill="black" stroke="black" points="1688.97,-154.66 1698.45,-149.93 1688.09,-147.71 1688.97,-154.66"/>
</g>
<!-- kdenlive -->
<g id="node22" class="node">
<title>kdenlive</title>
<g id="a_node22"><a xlink:href="https://github.com/conda-forge/kdenlive-feedstock" xlink:title="kdenlive">
<ellipse fill="#fde725" stroke="black" cx="1406.18" cy="-70" rx="50.09" ry="18"/>
<text text-anchor="middle" x="1406.18" y="-66.3" font-family="Times,serif" font-size="14.00">kdenlive</text>
</a>
</g>
</g>
<!-- ki18n&#45;&gt;kdenlive -->
<g id="edge19" class="edge">
<title>ki18n&#45;&gt;kdenlive</title>
<path fill="none" stroke="black" d="M588.71,-573.3C477.43,-573.3 190.18,-568.48 110.18,-520 36.91,-475.6 4.18,-444.67 4.18,-359 4.18,-359 4.18,-359 4.18,-213 4.18,-165.54 21.82,-147.27 63.18,-124 119.72,-92.19 1091.77,-75.65 1345.83,-71.85"/>
<polygon fill="black" stroke="black" points="1346.03,-75.35 1355.97,-71.7 1345.92,-68.35 1346.03,-75.35"/>
</g>
<!-- kconfigwidgets&#45;&gt;kiconthemes -->
<g id="edge20" class="edge">
<title>kconfigwidgets&#45;&gt;kiconthemes</title>
<path fill="none" stroke="black" d="M1856.98,-493C1827.43,-489.84 1792.67,-486.4 1761.18,-484 1442.59,-459.72 1361.18,-479.01 1043.18,-448 1026.94,-446.42 1009.5,-444.18 993.18,-441.84"/>
<polygon fill="black" stroke="black" points="993.58,-438.36 983.18,-440.38 992.57,-445.29 993.58,-438.36"/>
</g>
<!-- kconfigwidgets&#45;&gt;ktextwidgets -->
<g id="edge21" class="edge">
<title>kconfigwidgets&#45;&gt;ktextwidgets</title>
<path fill="none" stroke="black" d="M1882.19,-487C1845.69,-475.65 1794.16,-459.62 1755.58,-447.61"/>
<polygon fill="black" stroke="black" points="1756.15,-444.13 1745.56,-444.5 1754.07,-450.81 1756.15,-444.13"/>
</g>
<!-- kconfigwidgets&#45;&gt;kxmlgui -->
<g id="edge22" class="edge">
<title>kconfigwidgets&#45;&gt;kxmlgui</title>
<path fill="none" stroke="black" d="M1863.32,-490.92C1801.48,-480.92 1705.16,-464.71 1622.18,-448 1481.82,-419.73 1447.03,-410.94 1308.18,-376 1303.3,-374.77 1298.21,-373.45 1293.15,-372.1"/>
<polygon fill="black" stroke="black" points="1294.05,-368.72 1283.49,-369.5 1292.24,-375.48 1294.05,-368.72"/>
</g>
<!-- kconfigwidgets&#45;&gt;kio -->
<g id="edge23" class="edge">
<title>kconfigwidgets&#45;&gt;kio</title>
<path fill="none" stroke="black" d="M1930.5,-483.7C1933.27,-465.34 1935.56,-435.75 1927.18,-412 1899.54,-333.64 1824.22,-265.73 1784.49,-234.03"/>
<polygon fill="black" stroke="black" points="1786.61,-231.25 1776.59,-227.83 1782.29,-236.76 1786.61,-231.25"/>
</g>
<!-- kconfigwidgets&#45;&gt;kwallet -->
<g id="edge24" class="edge">
<title>kconfigwidgets&#45;&gt;kwallet</title>
<path fill="none" stroke="black" d="M1914.35,-484.05C1907.88,-475.5 1899.9,-464.97 1892.77,-455.56"/>
<polygon fill="black" stroke="black" points="1895.35,-453.17 1886.53,-447.31 1889.77,-457.39 1895.35,-453.17"/>
</g>
<!-- kconfigwidgets&#45;&gt;kdenlive -->
<g id="edge25" class="edge">
<title>kconfigwidgets&#45;&gt;kdenlive</title>
<path fill="none" stroke="black" d="M1890.36,-485.83C1869.25,-476.36 1842.75,-463.11 1821.18,-448 1802.13,-434.65 1800.08,-427.99 1783.18,-412 1647.73,-283.89 1621.3,-243.48 1478.18,-124 1464.99,-112.98 1449.73,-101.58 1436.67,-92.19"/>
<polygon fill="black" stroke="black" points="1438.62,-89.28 1428.45,-86.33 1434.56,-94.98 1438.62,-89.28"/>
</g>
<!-- kbookmarks -->
<g id="node23" class="node">
<title>kbookmarks</title>
<g id="a_node23"><a xlink:href="https://github.com/conda-forge/kbookmarks-feedstock" xlink:title="kbookmarks">
<ellipse fill="#fde725" stroke="black" cx="2041.18" cy="-286" rx="67" ry="18"/>
<text text-anchor="middle" x="2041.18" y="-282.3" font-family="Times,serif" font-size="14.00">kbookmarks</text>
</a>
</g>
</g>
<!-- kconfigwidgets&#45;&gt;kbookmarks -->
<g id="edge26" class="edge">
<title>kconfigwidgets&#45;&gt;kbookmarks</title>
<path fill="none" stroke="black" d="M1956.88,-485.19C1971.31,-476.09 1987.74,-463.41 1998.18,-448 2026.14,-406.71 2035.94,-348.05 2039.36,-314.11"/>
<polygon fill="black" stroke="black" points="2042.86,-314.29 2040.26,-304.02 2035.89,-313.67 2042.86,-314.29"/>
</g>
<!-- kiconthemes&#45;&gt;kxmlgui -->
<g id="edge27" class="edge">
<title>kiconthemes&#45;&gt;kxmlgui</title>
<path fill="none" stroke="black" d="M977.59,-417.75C1037.55,-404.64 1136.03,-383.1 1195.62,-370.06"/>
<polygon fill="black" stroke="black" points="1196.53,-373.44 1205.55,-367.89 1195.04,-366.61 1196.53,-373.44"/>
</g>
<!-- kiconthemes&#45;&gt;kio -->
<g id="edge28" class="edge">
<title>kiconthemes&#45;&gt;kio</title>
<path fill="none" stroke="black" d="M974.27,-416.9C1011.29,-407.12 1063.52,-392.34 1108.18,-376 1145.18,-362.46 1151.23,-350.58 1189.18,-340 1312.16,-305.71 1351.62,-339.78 1474.18,-304 1510.06,-293.53 1515.01,-280.65 1550.18,-268 1609.6,-246.62 1681.47,-230.4 1723.58,-221.83"/>
<polygon fill="black" stroke="black" points="1724.5,-225.21 1733.61,-219.81 1723.12,-218.35 1724.5,-225.21"/>
</g>
<!-- kiconthemes&#45;&gt;knewstuff -->
<g id="edge29" class="edge">
<title>kiconthemes&#45;&gt;knewstuff</title>
<path fill="none" stroke="black" d="M903.7,-412.58C876.49,-391.15 832.08,-350.81 814.18,-304 797.03,-259.17 787.98,-236.22 814.18,-196 828.05,-174.71 852.62,-161.91 875.93,-154.25"/>
<polygon fill="black" stroke="black" points="877.25,-157.51 885.81,-151.27 875.23,-150.8 877.25,-157.51"/>
</g>
<!-- kiconthemes&#45;&gt;kdeclarative -->
<g id="edge30" class="edge">
<title>kiconthemes&#45;&gt;kdeclarative</title>
<path fill="none" stroke="black" d="M950.02,-412.84C999.52,-380.09 1118.03,-305.8 1228.18,-268 1316.92,-237.55 1350.04,-269.18 1436.18,-232 1460.66,-221.43 1459.8,-206.8 1484.18,-196 1548.24,-167.63 1627.31,-154.4 1684.2,-148.26"/>
<polygon fill="black" stroke="black" points="1684.61,-151.74 1694.2,-147.23 1683.9,-144.78 1684.61,-151.74"/>
</g>
<!-- kiconthemes&#45;&gt;kdenlive -->
<g id="edge31" class="edge">
<title>kiconthemes&#45;&gt;kdenlive</title>
<path fill="none" stroke="black" d="M898.62,-413.31C839.46,-380.43 695.08,-304.34 564.18,-268 435.8,-232.36 194.98,-303.87 273.18,-196 333.56,-112.7 392.1,-143.14 493.18,-124 657.61,-92.87 1170.31,-77.07 1346.22,-72.46"/>
<polygon fill="black" stroke="black" points="1346.42,-75.96 1356.33,-72.2 1346.24,-68.96 1346.42,-75.96"/>
</g>
<!-- kservice&#45;&gt;ktextwidgets -->
<g id="edge32" class="edge">
<title>kservice&#45;&gt;ktextwidgets</title>
<path fill="none" stroke="black" d="M2144.71,-494.48C2059.38,-482.24 1874.72,-455.75 1772.99,-441.16"/>
<polygon fill="black" stroke="black" points="1773.2,-437.65 1762.8,-439.7 1772.21,-444.58 1773.2,-437.65"/>
</g>
<!-- kservice&#45;&gt;kio -->
<g id="edge33" class="edge">
<title>kservice&#45;&gt;kio</title>
<path fill="none" stroke="black" d="M2196.65,-484C2211.61,-441.53 2243.24,-329.74 2188.18,-268 2162.22,-238.89 1895.43,-222.1 1796.14,-216.83"/>
<polygon fill="black" stroke="black" points="1796.14,-213.32 1785.97,-216.29 1795.78,-220.31 1796.14,-213.32"/>
</g>
<!-- kservice&#45;&gt;kwallet -->
<g id="edge34" class="edge">
<title>kservice&#45;&gt;kwallet</title>
<path fill="none" stroke="black" d="M2146.57,-493.18C2095.07,-483.68 2006.95,-466.6 1932.18,-448 1927.59,-446.86 1922.81,-445.59 1918.06,-444.27"/>
<polygon fill="black" stroke="black" points="1918.98,-440.9 1908.4,-441.54 1917.07,-447.63 1918.98,-440.9"/>
</g>
<!-- kservice&#45;&gt;knewstuff -->
<g id="edge35" class="edge">
<title>kservice&#45;&gt;knewstuff</title>
<path fill="none" stroke="black" d="M2204.15,-484.48C2211.72,-474.55 2220.47,-461.3 2225.18,-448 2251.95,-372.39 2271.66,-321.81 2212.18,-268 2072.71,-141.82 1981.99,-217.81 1795.18,-196 1755.79,-191.4 1192.04,-158.12 998.7,-146.78"/>
<polygon fill="black" stroke="black" points="998.87,-143.28 988.68,-146.19 998.46,-150.27 998.87,-143.28"/>
</g>
<!-- kservice&#45;&gt;kdeclarative -->
<g id="edge36" class="edge">
<title>kservice&#45;&gt;kdeclarative</title>
<path fill="none" stroke="black" d="M2216.14,-486.59C2231.51,-477.11 2250.57,-463.6 2264.18,-448 2338.65,-362.66 2378.28,-279.89 2302.18,-196 2271.51,-162.19 1979.05,-149.24 1836.51,-144.91"/>
<polygon fill="black" stroke="black" points="1836.2,-141.4 1826.1,-144.6 1835.99,-148.4 1836.2,-141.4"/>
</g>
<!-- kservice&#45;&gt;kdenlive -->
<g id="edge37" class="edge">
<title>kservice&#45;&gt;kdenlive</title>
<path fill="none" stroke="black" d="M2224.09,-488.59C2245.34,-479.63 2272.36,-465.95 2292.18,-448 2355.12,-391.01 2406.76,-336.19 2356.18,-268 2248.84,-123.29 1657.43,-82.86 1466,-73.49"/>
<polygon fill="black" stroke="black" points="1466,-69.98 1455.84,-73 1465.66,-76.98 1466,-69.98"/>
</g>
<!-- ktextwidgets&#45;&gt;kxmlgui -->
<g id="edge38" class="edge">
<title>ktextwidgets&#45;&gt;kxmlgui</title>
<path fill="none" stroke="black" d="M1636.2,-422.85C1557.58,-414.9 1422.48,-399.25 1308.18,-376 1303.11,-374.97 1297.85,-373.76 1292.63,-372.46"/>
<polygon fill="black" stroke="black" points="1293.26,-369.01 1282.7,-369.89 1291.51,-375.78 1293.26,-369.01"/>
</g>
<!-- ktextwidgets&#45;&gt;kio -->
<g id="edge39" class="edge">
<title>ktextwidgets&#45;&gt;kio</title>
<path fill="none" stroke="black" d="M1707.94,-411.74C1715.82,-387.75 1730.14,-342.87 1740.18,-304 1745.48,-283.48 1750.44,-260.02 1753.97,-242.34"/>
<polygon fill="black" stroke="black" points="1757.47,-242.65 1755.97,-232.16 1750.6,-241.3 1757.47,-242.65"/>
</g>
<!-- ktextwidgets&#45;&gt;knewstuff -->
<g id="edge40" class="edge">
<title>ktextwidgets&#45;&gt;knewstuff</title>
<path fill="none" stroke="black" d="M1646.04,-418.8C1555.85,-401.41 1374.03,-362.16 1228.18,-304 1128.03,-264.06 1018.84,-197.6 966.16,-163.93"/>
<polygon fill="black" stroke="black" points="967.9,-160.89 957.6,-158.42 964.12,-166.78 967.9,-160.89"/>
</g>
<!-- ktextwidgets&#45;&gt;kdenlive -->
<g id="edge41" class="edge">
<title>ktextwidgets&#45;&gt;kdenlive</title>
<path fill="none" stroke="black" d="M1688.02,-412.04C1667.99,-388.02 1630.23,-342.7 1598.18,-304 1535.19,-227.92 1460.9,-137.6 1426.08,-95.22"/>
<polygon fill="black" stroke="black" points="1428.71,-92.91 1419.65,-87.41 1423.3,-97.35 1428.71,-92.91"/>
</g>
<!-- kxmlgui&#45;&gt;kio -->
<g id="edge42" class="edge">
<title>kxmlgui&#45;&gt;kio</title>
<path fill="none" stroke="black" d="M1292,-352.34C1352.16,-345.47 1460.66,-330.48 1550.18,-304 1554.73,-302.66 1670.46,-253.08 1727.71,-228.51"/>
<polygon fill="black" stroke="black" points="1729.21,-231.67 1737.02,-224.51 1726.45,-225.24 1729.21,-231.67"/>
</g>
<!-- kxmlgui&#45;&gt;knewstuff -->
<g id="edge43" class="edge">
<title>kxmlgui&#45;&gt;knewstuff</title>
<path fill="none" stroke="black" d="M1209.24,-346.41C1201.02,-344.19 1192.33,-341.93 1184.18,-340 1104.79,-321.2 1067.67,-355.24 1004.18,-304 1001.37,-301.73 964.3,-214.46 945.28,-169.38"/>
<polygon fill="black" stroke="black" points="948.41,-167.78 941.3,-159.93 941.96,-170.5 948.41,-167.78"/>
</g>
<!-- kxmlgui&#45;&gt;kdenlive -->
<g id="edge44" class="edge">
<title>kxmlgui&#45;&gt;kdenlive</title>
<path fill="none" stroke="black" d="M1208.91,-346.59C1175.02,-336.28 1128.74,-319.8 1118.18,-304 1073.73,-237.49 1066.99,-185.47 1118.18,-124 1146.61,-89.86 1270.46,-77.63 1346.19,-73.31"/>
<polygon fill="black" stroke="black" points="1346.75,-76.79 1356.54,-72.75 1346.37,-69.8 1346.75,-76.79"/>
</g>
<!-- kxmlgui&#45;&gt;kbookmarks -->
<g id="edge45" class="edge">
<title>kxmlgui&#45;&gt;kbookmarks</title>
<path fill="none" stroke="black" d="M1292.36,-352.93C1424.91,-341.26 1807.34,-307.59 1968.35,-293.41"/>
<polygon fill="black" stroke="black" points="1968.98,-296.87 1978.63,-292.51 1968.36,-289.9 1968.98,-296.87"/>
</g>
<!-- kio&#45;&gt;knotifyconfig -->
<g id="edge46" class="edge">
<title>kio&#45;&gt;knotifyconfig</title>
<path fill="none" stroke="black" d="M1732.93,-208.93C1664.27,-198.3 1477.72,-169.41 1375.84,-153.63"/>
<polygon fill="black" stroke="black" points="1376.37,-150.17 1365.95,-152.1 1375.29,-157.09 1376.37,-150.17"/>
</g>
<!-- kio&#45;&gt;purpose -->
<g id="edge47" class="edge">
<title>kio&#45;&gt;purpose</title>
<path fill="none" stroke="black" d="M1732.23,-211.44C1579.6,-202.6 822.8,-158.78 607.44,-146.32"/>
<polygon fill="black" stroke="black" points="607.49,-142.81 597.3,-145.73 607.09,-149.8 607.49,-142.81"/>
</g>
<!-- kio&#45;&gt;knewstuff -->
<g id="edge48" class="edge">
<title>kio&#45;&gt;knewstuff</title>
<path fill="none" stroke="black" d="M1732.2,-210.71C1617.14,-200.95 1165.72,-162.65 997.67,-148.39"/>
<polygon fill="black" stroke="black" points="997.75,-144.88 987.49,-147.52 997.16,-151.86 997.75,-144.88"/>
</g>
<!-- kio&#45;&gt;kdeclarative -->
<g id="edge49" class="edge">
<title>kio&#45;&gt;kdeclarative</title>
<path fill="none" stroke="black" d="M1759.18,-195.7C1759.18,-187.98 1759.18,-178.71 1759.18,-170.11"/>
<polygon fill="black" stroke="black" points="1762.68,-170.1 1759.18,-160.1 1755.68,-170.1 1762.68,-170.1"/>
</g>
<!-- kio&#45;&gt;kdenlive -->
<g id="edge50" class="edge">
<title>kio&#45;&gt;kdenlive</title>
<path fill="none" stroke="black" d="M1740.91,-200.53C1705.93,-176.68 1632.37,-126.71 1626.18,-124 1572.99,-100.69 1507.87,-86.63 1462.34,-78.91"/>
<polygon fill="black" stroke="black" points="1462.79,-75.43 1452.36,-77.26 1461.66,-82.34 1462.79,-75.43"/>
</g>
<!-- kpackage&#45;&gt;knewstuff -->
<g id="edge51" class="edge">
<title>kpackage&#45;&gt;knewstuff</title>
<path fill="none" stroke="black" d="M595.74,-411.8C600.65,-368.36 619.78,-253.59 688.18,-196 715.49,-173.01 808.16,-157.78 871.63,-149.76"/>
<polygon fill="black" stroke="black" points="872.44,-153.19 881.94,-148.49 871.59,-146.24 872.44,-153.19"/>
</g>
<!-- kpackage&#45;&gt;kdeclarative -->
<g id="edge52" class="edge">
<title>kpackage&#45;&gt;kdeclarative</title>
<path fill="none" stroke="black" d="M628.87,-416.12C708.05,-387.04 908.54,-315.13 1080.18,-268 1224.1,-228.48 1261.42,-223.16 1408.18,-196 1505.5,-177.99 1618.86,-161.72 1689.83,-152.09"/>
<polygon fill="black" stroke="black" points="1690.54,-155.53 1699.98,-150.72 1689.6,-148.59 1690.54,-155.53"/>
</g>
<!-- kwallet&#45;&gt;kio -->
<g id="edge53" class="edge">
<title>kwallet&#45;&gt;kio</title>
<path fill="none" stroke="black" d="M1865.16,-412.21C1845.03,-374.75 1796.38,-284.22 1772.65,-240.06"/>
<polygon fill="black" stroke="black" points="1775.66,-238.28 1767.85,-231.13 1769.5,-241.59 1775.66,-238.28"/>
</g>
<!-- kfilemetadata&#45;&gt;kdenlive -->
<g id="edge54" class="edge">
<title>kfilemetadata&#45;&gt;kdenlive</title>
<path fill="none" stroke="black" d="M201.94,-412.53C148.89,-362.78 3.64,-212.01 88.18,-124 132.26,-78.11 1093.57,-71.95 1345.94,-71.13"/>
<polygon fill="black" stroke="black" points="1346.04,-74.63 1356.03,-71.1 1346.02,-67.63 1346.04,-74.63"/>
</g>
<!-- knotifyconfig&#45;&gt;kdenlive -->
<g id="edge55" class="edge">
<title>knotifyconfig&#45;&gt;kdenlive</title>
<path fill="none" stroke="black" d="M1330.14,-124.76C1343.8,-115.11 1361.28,-102.75 1376.04,-92.31"/>
<polygon fill="black" stroke="black" points="1378.22,-95.06 1384.36,-86.43 1374.18,-89.34 1378.22,-95.06"/>
</g>
<!-- purpose&#45;&gt;kdenlive -->
<g id="edge56" class="edge">
<title>purpose&#45;&gt;kdenlive</title>
<path fill="none" stroke="black" d="M596.81,-137.19C742.24,-125.29 1187.36,-88.89 1347.78,-75.78"/>
<polygon fill="black" stroke="black" points="1348.24,-79.25 1357.93,-74.95 1347.67,-72.27 1348.24,-79.25"/>
</g>
<!-- knewstuff&#45;&gt;kdenlive -->
<g id="edge57" class="edge">
<title>knewstuff&#45;&gt;kdenlive</title>
<path fill="none" stroke="black" d="M976.22,-130.02C985.4,-127.84 995.08,-125.7 1004.18,-124 1125.87,-101.27 1270.07,-84.76 1348.43,-76.65"/>
<polygon fill="black" stroke="black" points="1348.99,-80.11 1358.58,-75.61 1348.27,-73.15 1348.99,-80.11"/>
</g>
<!-- kdeclarative&#45;&gt;kdenlive -->
<g id="edge58" class="edge">
<title>kdeclarative&#45;&gt;kdenlive</title>
<path fill="none" stroke="black" d="M1706.71,-130.6C1640.03,-117.37 1525.6,-94.68 1458.83,-81.44"/>
<polygon fill="black" stroke="black" points="1459.43,-77.99 1448.94,-79.48 1458.07,-84.86 1459.43,-77.99"/>
</g>
<!-- kbookmarks&#45;&gt;kio -->
<g id="edge94" class="edge">
<title>kbookmarks&#45;&gt;kio</title>
<path fill="none" stroke="black" d="M1993.66,-273.2C1937.12,-259.17 1844.09,-236.08 1793.89,-223.62"/>
<polygon fill="black" stroke="black" points="1794.7,-220.21 1784.15,-221.2 1793.01,-227 1794.7,-220.21"/>
</g>
<!-- kbookmarks&#45;&gt;kdenlive -->
<g id="edge95" class="edge">
<title>kbookmarks&#45;&gt;kdenlive</title>
<path fill="none" stroke="black" d="M2026.17,-268.23C1994.74,-234.34 1918.08,-158.07 1836.18,-124 1770.55,-96.7 1567.43,-80.82 1465.62,-74.38"/>
<polygon fill="black" stroke="black" points="1465.7,-70.88 1455.5,-73.75 1465.27,-77.86 1465.7,-70.88"/>
</g>
<!-- karchive -->
<g id="node24" class="node">
<title>karchive</title>
<g id="a_node24"><a xlink:href="https://github.com/conda-forge/karchive-feedstock/pull/18" xlink:title="karchive ✓">
<ellipse fill="#31688e" stroke="black" cx="360.18" cy="-502" rx="58" ry="18"/>
<text text-anchor="middle" x="360.18" y="-498.3" font-family="Times,serif" font-size="14.00" fill="white">karchive ✓</text>
</a>
</g>
</g>
<!-- karchive&#45;&gt;kiconthemes -->
<g id="edge59" class="edge">
<title>karchive&#45;&gt;kiconthemes</title>
<path fill="none" stroke="black" d="M412.92,-494.48C514.95,-481.86 739.43,-454.1 854.73,-439.84"/>
<polygon fill="black" stroke="black" points="855.37,-443.28 864.87,-438.58 854.52,-436.34 855.37,-443.28"/>
</g>
<!-- karchive&#45;&gt;kio -->
<g id="edge60" class="edge">
<title>karchive&#45;&gt;kio</title>
<path fill="none" stroke="black" d="M383.68,-485.45C415.64,-465.09 475.24,-429.91 531.18,-412 749.61,-342.05 814.85,-370.37 1042.18,-340 1168.73,-323.09 1204.2,-338.29 1327.18,-304 1365.13,-293.42 1370.36,-279.04 1408.18,-268 1519.7,-235.44 1657.3,-222.1 1722.11,-217.32"/>
<polygon fill="black" stroke="black" points="1722.51,-220.8 1732.23,-216.6 1722.01,-213.82 1722.51,-220.8"/>
</g>
<!-- karchive&#45;&gt;kpackage -->
<g id="edge61" class="edge">
<title>karchive&#45;&gt;kpackage</title>
<path fill="none" stroke="black" d="M400.41,-488.97C440.65,-476.93 502.6,-458.39 545.58,-445.54"/>
<polygon fill="black" stroke="black" points="546.68,-448.86 555.26,-442.64 544.67,-442.16 546.68,-448.86"/>
</g>
<!-- karchive&#45;&gt;kfilemetadata -->
<g id="edge62" class="edge">
<title>karchive&#45;&gt;kfilemetadata</title>
<path fill="none" stroke="black" d="M330.83,-486.33C310.25,-476.04 282.5,-462.16 259.94,-450.88"/>
<polygon fill="black" stroke="black" points="261.45,-447.72 250.94,-446.38 258.32,-453.98 261.45,-447.72"/>
</g>
<!-- karchive&#45;&gt;knewstuff -->
<g id="edge63" class="edge">
<title>karchive&#45;&gt;knewstuff</title>
<path fill="none" stroke="black" d="M373.91,-484.16C421.81,-425.8 582.41,-233.8 652.18,-196 719.88,-159.33 808.62,-147.62 868.32,-144.09"/>
<polygon fill="black" stroke="black" points="868.58,-147.59 878.38,-143.56 868.21,-140.6 868.58,-147.59"/>
</g>
<!-- karchive&#45;&gt;kdenlive -->
<g id="edge64" class="edge">
<title>karchive&#45;&gt;kdenlive</title>
<path fill="none" stroke="black" d="M349.75,-484.23C324.88,-443.14 262.61,-333.43 241.18,-232 231.16,-184.59 219.29,-155.43 256.18,-124 297.97,-88.39 1115.37,-74.86 1346.04,-71.75"/>
<polygon fill="black" stroke="black" points="1346.3,-75.24 1356.26,-71.61 1346.21,-68.24 1346.3,-75.24"/>
</g>
<!-- kcoreaddons -->
<g id="node25" class="node">
<title>kcoreaddons</title>
<g id="a_node25"><a xlink:href="https://github.com/conda-forge/kcoreaddons-feedstock/pull/18" xlink:title="kcoreaddons ❎">
<ellipse fill="#31688e" stroke="black" cx="1856.18" cy="-646" rx="83.39" ry="18"/>
<text text-anchor="middle" x="1856.18" y="-642.3" font-family="Times,serif" font-size="14.00" fill="white">kcoreaddons ❎</text>
</a>
</g>
</g>
<!-- kcoreaddons&#45;&gt;kconfigwidgets -->
<g id="edge65" class="edge">
<title>kcoreaddons&#45;&gt;kconfigwidgets</title>
<path fill="none" stroke="black" d="M1864.74,-627.87C1877.01,-603.35 1899.66,-558.03 1914.05,-529.26"/>
<polygon fill="black" stroke="black" points="1917.24,-530.7 1918.59,-520.19 1910.98,-527.57 1917.24,-530.7"/>
</g>
<!-- kcoreaddons&#45;&gt;kiconthemes -->
<g id="edge66" class="edge">
<title>kcoreaddons&#45;&gt;kiconthemes</title>
<path fill="none" stroke="black" d="M1773.29,-644.11C1649.26,-641.45 1408.55,-631.18 1208.18,-592 1103.47,-571.52 1062.86,-586.18 979.18,-520 958.67,-503.78 944.36,-477.26 935.82,-457.39"/>
<polygon fill="black" stroke="black" points="939,-455.91 931.99,-447.96 932.51,-458.54 939,-455.91"/>
</g>
<!-- kcoreaddons&#45;&gt;kservice -->
<g id="edge67" class="edge">
<title>kcoreaddons&#45;&gt;kservice</title>
<path fill="none" stroke="black" d="M1936.55,-640.95C2056.52,-634.08 2270.91,-618.26 2294.18,-592 2304.79,-580.03 2302.54,-569.64 2294.18,-556 2287,-544.28 2258.22,-530.1 2232.75,-519.35"/>
<polygon fill="black" stroke="black" points="2233.79,-515.99 2223.21,-515.42 2231.12,-522.46 2233.79,-515.99"/>
</g>
<!-- kcoreaddons&#45;&gt;ktextwidgets -->
<g id="edge68" class="edge">
<title>kcoreaddons&#45;&gt;ktextwidgets</title>
<path fill="none" stroke="black" d="M1806.25,-631.44C1755.23,-614.61 1678.73,-580.47 1644.18,-520 1636.24,-506.11 1637.73,-498.64 1644.18,-484 1649.48,-471.98 1658.99,-461.51 1668.8,-453.12"/>
<polygon fill="black" stroke="black" points="1671.03,-455.82 1676.66,-446.85 1666.66,-450.35 1671.03,-455.82"/>
</g>
<!-- kcoreaddons&#45;&gt;kxmlgui -->
<g id="edge69" class="edge">
<title>kcoreaddons&#45;&gt;kxmlgui</title>
<path fill="none" stroke="black" d="M1773.38,-644.05C1456.33,-640.18 333.89,-624.24 265.18,-592 187.66,-555.63 167.61,-528.04 137.18,-448 131.49,-433.04 126.14,-423.58 137.18,-412 173.72,-373.68 964.78,-362.09 1188,-359.58"/>
<polygon fill="black" stroke="black" points="1188.24,-363.08 1198.2,-359.47 1188.16,-356.08 1188.24,-363.08"/>
</g>
<!-- kcoreaddons&#45;&gt;kio -->
<g id="edge70" class="edge">
<title>kcoreaddons&#45;&gt;kio</title>
<path fill="none" stroke="black" d="M1780.61,-638.44C1743.22,-631.79 1699.51,-618.5 1668.18,-592 1641.16,-569.14 1644.75,-553.77 1634.18,-520 1619.76,-473.91 1607.46,-458 1622.18,-412 1640.15,-355.85 1665.59,-352.44 1699.18,-304 1714.19,-282.35 1730.92,-257.48 1742.89,-239.54"/>
<polygon fill="black" stroke="black" points="1746.05,-241.1 1748.68,-230.84 1740.23,-237.22 1746.05,-241.1"/>
</g>
<!-- kcoreaddons&#45;&gt;kpackage -->
<g id="edge71" class="edge">
<title>kcoreaddons&#45;&gt;kpackage</title>
<path fill="none" stroke="black" d="M1773.29,-644.11C1649.26,-641.45 1408.55,-631.18 1208.18,-592 1103.47,-571.52 1080.77,-552.59 979.18,-520 930.2,-504.29 918.98,-496.89 869.18,-484 795.18,-464.84 708.36,-449.23 652.37,-440.03"/>
<polygon fill="black" stroke="black" points="652.71,-436.54 642.28,-438.38 651.59,-443.45 652.71,-436.54"/>
</g>
<!-- kcoreaddons&#45;&gt;kwallet -->
<g id="edge72" class="edge">
<title>kcoreaddons&#45;&gt;kwallet</title>
<path fill="none" stroke="black" d="M1849.51,-627.64C1838.99,-597.64 1821.3,-534.48 1837.18,-484 1840.41,-473.72 1846.42,-463.7 1852.68,-455.19"/>
<polygon fill="black" stroke="black" points="1855.5,-457.25 1858.91,-447.22 1849.99,-452.94 1855.5,-457.25"/>
</g>
<!-- kcoreaddons&#45;&gt;kfilemetadata -->
<g id="edge73" class="edge">
<title>kcoreaddons&#45;&gt;kfilemetadata</title>
<path fill="none" stroke="black" d="M1773.72,-643.3C1529.49,-638 812.5,-620.4 580.18,-592 421.68,-572.62 334.59,-639.06 228.18,-520 213.44,-503.51 212.64,-477.77 214.82,-458.21"/>
<polygon fill="black" stroke="black" points="218.32,-458.47 216.27,-448.08 211.39,-457.48 218.32,-458.47"/>
</g>
<!-- kcoreaddons&#45;&gt;purpose -->
<g id="edge74" class="edge">
<title>kcoreaddons&#45;&gt;purpose</title>
<path fill="none" stroke="black" d="M1773.15,-644.77C1440.68,-643.55 220.1,-636.09 151.18,-592 0,-495.29 73.04,-282.69 230.18,-196 274.42,-171.59 413.87,-155.36 493.31,-147.84"/>
<polygon fill="black" stroke="black" points="494,-151.29 503.64,-146.88 493.35,-144.32 494,-151.29"/>
</g>
<!-- kcoreaddons&#45;&gt;knewstuff -->
<g id="edge75" class="edge">
<title>kcoreaddons&#45;&gt;knewstuff</title>
<path fill="none" stroke="black" d="M1773.29,-644.37C1447.74,-641.63 271.12,-629.19 201.18,-592 101.49,-539 88.86,-419.34 169.18,-340 215.34,-294.4 236.51,-293.48 296.18,-268 347.39,-246.13 364.54,-252.82 416.18,-232 448.63,-218.92 452.72,-206.22 486.18,-196 617.5,-155.9 779.05,-145.87 867.85,-143.53"/>
<polygon fill="black" stroke="black" points="868.14,-147.02 878.05,-143.28 867.97,-140.02 868.14,-147.02"/>
</g>
<!-- kcoreaddons&#45;&gt;kdeclarative -->
<g id="edge76" class="edge">
<title>kcoreaddons&#45;&gt;kdeclarative</title>
<path fill="none" stroke="black" d="M1939.25,-644.78C2181.77,-643.63 2885.86,-636.43 3111.18,-592 3203.46,-573.8 3238.25,-580.6 3310.18,-520 3349.44,-486.92 3355.42,-463.17 3351.18,-412 3348.5,-379.67 3361.68,-363.37 3339.18,-340 3229.36,-225.89 3145.72,-297.83 2990.18,-268 2900.19,-250.74 2876.82,-250.98 2787.18,-232 2721.8,-218.16 2707.25,-206.05 2641.18,-196 2346.71,-151.23 1991.56,-143.88 1837.16,-142.95"/>
<polygon fill="black" stroke="black" points="1836.86,-139.44 1826.84,-142.89 1836.82,-146.44 1836.86,-139.44"/>
</g>
<!-- kcoreaddons&#45;&gt;kdenlive -->
<g id="edge77" class="edge">
<title>kcoreaddons&#45;&gt;kdenlive</title>
<path fill="none" stroke="black" d="M1939.45,-644.55C2193.22,-642.74 2954.45,-633.86 3198.18,-592 3329.8,-569.39 3485.18,-636.55 3485.18,-503 3485.18,-503 3485.18,-503 3485.18,-213 3485.18,-179.88 3614.93,-198.11 3314.18,-124 3131.54,-78.99 1771.92,-72.13 1466.83,-71.15"/>
<polygon fill="black" stroke="black" points="1466.43,-67.65 1456.42,-71.12 1466.41,-74.65 1466.43,-67.65"/>
</g>
<!-- kcoreaddons&#45;&gt;kbookmarks -->
<g id="edge81" class="edge">
<title>kcoreaddons&#45;&gt;kbookmarks</title>
<path fill="none" stroke="black" d="M1938.63,-643.5C2101.44,-638.44 2453.73,-616.34 2514.18,-520 2522.68,-506.45 2523.06,-497.31 2514.18,-484 2512.58,-481.6 2203.06,-353.76 2085.64,-305.33"/>
<polygon fill="black" stroke="black" points="2086.79,-302.02 2076.21,-301.44 2084.12,-308.49 2086.79,-302.02"/>
</g>
<!-- kauth -->
<g id="node26" class="node">
<title>kauth</title>
<g id="a_node26"><a xlink:href="https://github.com/conda-forge/kauth-feedstock" xlink:title="kauth">
<ellipse fill="#fde725" stroke="black" cx="2248.18" cy="-574" rx="37.09" ry="18"/>
<text text-anchor="middle" x="2248.18" y="-570.3" font-family="Times,serif" font-size="14.00">kauth</text>
</a>
</g>
</g>
<!-- kcoreaddons&#45;&gt;kauth -->
<g id="edge78" class="edge">
<title>kcoreaddons&#45;&gt;kauth</title>
<path fill="none" stroke="black" d="M1930.97,-637.96C2001.64,-630.27 2110.25,-615.77 2202.18,-592 2205.13,-591.24 2208.16,-590.35 2211.19,-589.4"/>
<polygon fill="black" stroke="black" points="2212.39,-592.69 2220.74,-586.17 2210.14,-586.06 2212.39,-592.69"/>
</g>
<!-- kcrash -->
<g id="node27" class="node">
<title>kcrash</title>
<g id="a_node27"><a xlink:href="https://github.com/conda-forge/kcrash-feedstock" xlink:title="kcrash">
<ellipse fill="#fde725" stroke="black" cx="3060.18" cy="-574" rx="41.69" ry="18"/>
<text text-anchor="middle" x="3060.18" y="-570.3" font-family="Times,serif" font-size="14.00">kcrash</text>
</a>
</g>
</g>
<!-- kcoreaddons&#45;&gt;kcrash -->
<g id="edge79" class="edge">
<title>kcoreaddons&#45;&gt;kcrash</title>
<path fill="none" stroke="black" d="M1938.91,-643.85C2166.6,-640.25 2799.2,-627.28 3004.18,-592 3009,-591.17 3013.98,-590.05 3018.9,-588.79"/>
<polygon fill="black" stroke="black" points="3020.13,-592.07 3028.82,-586.01 3018.25,-585.33 3020.13,-592.07"/>
</g>
<!-- kglobalaccel -->
<g id="node28" class="node">
<title>kglobalaccel</title>
<g id="a_node28"><a xlink:href="https://github.com/conda-forge/kglobalaccel-feedstock" xlink:title="kglobalaccel">
<ellipse fill="#fde725" stroke="black" cx="2705.18" cy="-502" rx="67.69" ry="18"/>
<text text-anchor="middle" x="2705.18" y="-498.3" font-family="Times,serif" font-size="14.00">kglobalaccel</text>
</a>
</g>
</g>
<!-- kcoreaddons&#45;&gt;kglobalaccel -->
<g id="edge80" class="edge">
<title>kcoreaddons&#45;&gt;kglobalaccel</title>
<path fill="none" stroke="black" d="M1939.63,-645.55C2140.37,-646.06 2637.7,-642.2 2692.18,-592 2708.73,-576.75 2710.77,-550.47 2709.39,-530.41"/>
<polygon fill="black" stroke="black" points="2712.85,-529.9 2708.37,-520.29 2705.89,-530.59 2712.85,-529.9"/>
</g>
<!-- kjobwidgets -->
<g id="node29" class="node">
<title>kjobwidgets</title>
<g id="a_node29"><a xlink:href="https://github.com/conda-forge/kjobwidgets-feedstock" xlink:title="kjobwidgets">
<ellipse fill="#fde725" stroke="black" cx="3238.18" cy="-358" rx="67" ry="18"/>
<text text-anchor="middle" x="3238.18" y="-354.3" font-family="Times,serif" font-size="14.00">kjobwidgets</text>
</a>
</g>
</g>
<!-- kcoreaddons&#45;&gt;kjobwidgets -->
<g id="edge82" class="edge">
<title>kcoreaddons&#45;&gt;kjobwidgets</title>
<path fill="none" stroke="black" d="M1939.14,-644.37C2181.48,-642.09 2877.2,-632.06 2971.18,-592 2992.58,-582.88 2988.25,-566.15 3009.18,-556 3109,-507.59 3176.94,-597.64 3256.18,-520 3290.68,-486.2 3280.48,-458.7 3268.18,-412 3265.69,-402.54 3261.08,-392.99 3256.21,-384.66"/>
<polygon fill="black" stroke="black" points="3259.17,-382.79 3250.91,-376.15 3253.23,-386.49 3259.17,-382.79"/>
</g>
<!-- knotifications -->
<g id="node30" class="node">
<title>knotifications</title>
<g id="a_node30"><a xlink:href="https://github.com/conda-forge/knotifications-feedstock" xlink:title="knotifications">
<ellipse fill="#fde725" stroke="black" cx="1484.18" cy="-502" rx="73.5" ry="18"/>
<text text-anchor="middle" x="1484.18" y="-498.3" font-family="Times,serif" font-size="14.00">knotifications</text>
</a>
</g>
</g>
<!-- kcoreaddons&#45;&gt;knotifications -->
<g id="edge83" class="edge">
<title>kcoreaddons&#45;&gt;knotifications</title>
<path fill="none" stroke="black" d="M1774.19,-642.64C1715.03,-637.95 1634.88,-625.26 1572.18,-592 1543.16,-576.61 1517.73,-548.36 1501.77,-527.8"/>
<polygon fill="black" stroke="black" points="1504.54,-525.67 1495.72,-519.8 1498.96,-529.89 1504.54,-525.67"/>
</g>
<!-- zeit -->
<g id="node31" class="node">
<title>zeit</title>
<g id="a_node31"><a xlink:href="https://github.com/conda-forge/zeit-feedstock" xlink:title="zeit">
<ellipse fill="#fde725" stroke="black" cx="2477.18" cy="-502" rx="28" ry="18"/>
<text text-anchor="middle" x="2477.18" y="-498.3" font-family="Times,serif" font-size="14.00">zeit</text>
</a>
</g>
</g>
<!-- kcoreaddons&#45;&gt;zeit -->
<g id="edge84" class="edge">
<title>kcoreaddons&#45;&gt;zeit</title>
<path fill="none" stroke="black" d="M1939.48,-644.59C2032.23,-642.01 2185.6,-631.4 2311.18,-592 2363.43,-575.6 2418.36,-542.57 2450.1,-521.69"/>
<polygon fill="black" stroke="black" points="2452.42,-524.35 2458.8,-515.89 2448.54,-518.52 2452.42,-524.35"/>
</g>
<!-- kauth&#45;&gt;kconfigwidgets -->
<g id="edge85" class="edge">
<title>kauth&#45;&gt;kconfigwidgets</title>
<path fill="none" stroke="black" d="M2220.2,-561.83C2214.31,-559.71 2208.08,-557.65 2202.18,-556 2135.72,-537.45 2058.43,-523.18 2002.75,-514.14"/>
<polygon fill="black" stroke="black" points="2003.04,-510.64 1992.61,-512.52 2001.93,-517.56 2003.04,-510.64"/>
</g>
<!-- kauth&#45;&gt;kio -->
<g id="edge86" class="edge">
<title>kauth&#45;&gt;kio</title>
<path fill="none" stroke="black" d="M2220.29,-562.1C2187.63,-549.06 2137.31,-527.99 2132.18,-520 2123.53,-506.54 2130.43,-499.9 2132.18,-484 2139.26,-419.5 2162.4,-404.58 2156.18,-340 2153.05,-307.55 2165.85,-290.41 2142.18,-268 2092.93,-221.37 1882.8,-215.33 1796.45,-214.86"/>
<polygon fill="black" stroke="black" points="1796.33,-211.36 1786.31,-214.82 1796.3,-218.36 1796.33,-211.36"/>
</g>
<!-- kauth&#45;&gt;zeit -->
<g id="edge87" class="edge">
<title>kauth&#45;&gt;zeit</title>
<path fill="none" stroke="black" d="M2280.61,-564.95C2318.16,-555.37 2381.72,-538.34 2435.18,-520 2438.31,-518.93 2441.54,-517.75 2444.75,-516.53"/>
<polygon fill="black" stroke="black" points="2446.21,-519.72 2454.24,-512.81 2443.66,-513.2 2446.21,-519.72"/>
</g>
<!-- kcrash&#45;&gt;kservice -->
<g id="edge88" class="edge">
<title>kcrash&#45;&gt;kservice</title>
<path fill="none" stroke="black" d="M3023.98,-564.9C3007.9,-561.61 2988.67,-558.1 2971.18,-556 2651.73,-517.73 2565.41,-573.62 2248.18,-520 2243.99,-519.29 2239.67,-518.38 2235.38,-517.35"/>
<polygon fill="black" stroke="black" points="2236.01,-513.9 2225.45,-514.77 2234.25,-520.68 2236.01,-513.9"/>
</g>
<!-- kcrash&#45;&gt;kio -->
<g id="edge89" class="edge">
<title>kcrash&#45;&gt;kio</title>
<path fill="none" stroke="black" d="M3097.82,-566.2C3157.46,-555.11 3268.27,-533.04 3281.18,-520 3338.4,-462.2 3367.76,-401.19 3314.18,-340 3274.23,-294.38 2833.56,-273.59 2773.18,-268 2392.49,-232.78 1929.07,-219.2 1796.32,-215.87"/>
<polygon fill="black" stroke="black" points="1796.35,-212.37 1786.27,-215.62 1796.18,-219.36 1796.35,-212.37"/>
</g>
<!-- kcrash&#45;&gt;kdenlive -->
<g id="edge90" class="edge">
<title>kcrash&#45;&gt;kdenlive</title>
<path fill="none" stroke="black" d="M3101.64,-572.27C3153.78,-569.62 3244.43,-559.17 3310.18,-520 3390.9,-471.91 3447.18,-452.96 3447.18,-359 3447.18,-359 3447.18,-359 3447.18,-213 3447.18,-82.42 3295.9,-145.95 3167.18,-124 2996.95,-94.97 1756.63,-75.91 1466.68,-71.82"/>
<polygon fill="black" stroke="black" points="1466.42,-68.32 1456.37,-71.68 1466.32,-75.32 1466.42,-68.32"/>
</g>
<!-- kcrash&#45;&gt;kglobalaccel -->
<g id="edge91" class="edge">
<title>kcrash&#45;&gt;kglobalaccel</title>
<path fill="none" stroke="black" d="M3023.19,-565.71C2962.73,-553.78 2842.05,-529.99 2767.98,-515.38"/>
<polygon fill="black" stroke="black" points="2768.33,-511.89 2757.84,-513.38 2766.98,-518.75 2768.33,-511.89"/>
</g>
<!-- kglobalaccel&#45;&gt;kxmlgui -->
<g id="edge92" class="edge">
<title>kglobalaccel&#45;&gt;kxmlgui</title>
<path fill="none" stroke="black" d="M2644.51,-493.93C2616.17,-490.72 2581.97,-486.99 2551.18,-484 2360.74,-465.5 2311.82,-473.4 2122.18,-448 2034.83,-436.3 2014.57,-423.43 1927.18,-412 1697.47,-381.94 1421.78,-366.9 1304.05,-361.45"/>
<polygon fill="black" stroke="black" points="1303.98,-357.95 1293.83,-360.99 1303.66,-364.94 1303.98,-357.95"/>
</g>
<!-- kglobalaccel&#45;&gt;kdeclarative -->
<g id="edge93" class="edge">
<title>kglobalaccel&#45;&gt;kdeclarative</title>
<path fill="none" stroke="black" d="M2691.22,-484.18C2645.67,-430.64 2494.66,-263.76 2328.18,-196 2241.03,-160.53 1970.64,-148.52 1836.4,-144.69"/>
<polygon fill="black" stroke="black" points="1836.29,-141.18 1826.19,-144.4 1836.09,-148.18 1836.29,-141.18"/>
</g>
<!-- kjobwidgets&#45;&gt;kio -->
<g id="edge96" class="edge">
<title>kjobwidgets&#45;&gt;kio</title>
<path fill="none" stroke="black" d="M3183.42,-347.49C3076.47,-329.26 2832.17,-289.32 2625.18,-268 2305.2,-235.04 1916.44,-220.19 1796.32,-216.17"/>
<polygon fill="black" stroke="black" points="1796.29,-212.67 1786.18,-215.83 1796.06,-219.66 1796.29,-212.67"/>
</g>
<!-- kjobwidgets&#45;&gt;kdenlive -->
<g id="edge97" class="edge">
<title>kjobwidgets&#45;&gt;kdenlive</title>
<path fill="none" stroke="black" d="M3221.3,-340.41C3174.1,-295.27 3034.76,-170.55 2891.18,-124 2754.28,-79.62 1727.76,-72.34 1466.52,-71.2"/>
<polygon fill="black" stroke="black" points="1466.48,-67.7 1456.46,-71.16 1466.45,-74.7 1466.48,-67.7"/>
</g>
<!-- knotifications&#45;&gt;kio -->
<g id="edge98" class="edge">
<title>knotifications&#45;&gt;kio</title>
<path fill="none" stroke="black" d="M1491.42,-483.74C1505.66,-451.62 1540.14,-382.12 1588.18,-340 1616.28,-315.36 1633.28,-325.03 1664.18,-304 1692.59,-284.67 1720.76,-256.9 1738.96,-237.54"/>
<polygon fill="black" stroke="black" points="1741.66,-239.78 1745.89,-230.06 1736.53,-235.02 1741.66,-239.78"/>
</g>
<!-- knotifications&#45;&gt;kwallet -->
<g id="edge99" class="edge">
<title>knotifications&#45;&gt;kwallet</title>
<path fill="none" stroke="black" d="M1542.09,-490.9C1602.34,-480.35 1699.42,-463.25 1783.18,-448 1796.66,-445.55 1811.26,-442.84 1824.73,-440.32"/>
<polygon fill="black" stroke="black" points="1825.59,-443.72 1834.78,-438.44 1824.3,-436.84 1825.59,-443.72"/>
</g>
<!-- knotifications&#45;&gt;purpose -->
<g id="edge100" class="edge">
<title>knotifications&#45;&gt;purpose</title>
<path fill="none" stroke="black" d="M1446.41,-486.52C1297.13,-429.31 748.83,-219.14 592.21,-159.11"/>
<polygon fill="black" stroke="black" points="593.06,-155.69 582.47,-155.38 590.56,-162.22 593.06,-155.69"/>
</g>
<!-- knotifications&#45;&gt;kdenlive -->
<g id="edge101" class="edge">
<title>knotifications&#45;&gt;kdenlive</title>
<path fill="none" stroke="black" d="M1468.5,-484.23C1438.6,-452.93 1370.4,-384.74 1303.18,-340 1272.4,-319.51 1249.68,-334.08 1228.18,-304 1181.46,-238.62 1162.38,-187.84 1211.18,-124 1228.01,-101.99 1298.32,-86.96 1349.7,-78.68"/>
<polygon fill="black" stroke="black" points="1350.36,-82.12 1359.7,-77.11 1349.28,-75.2 1350.36,-82.12"/>
</g>
<!-- kconfig -->
<g id="node32" class="node">
<title>kconfig</title>
<g id="a_node32"><a xlink:href="https://github.com/conda-forge/kconfig-feedstock/pull/18" xlink:title="kconfig ✓">
<ellipse fill="#31688e" stroke="black" cx="1268.18" cy="-574" rx="51.5" ry="18"/>
<text text-anchor="middle" x="1268.18" y="-570.3" font-family="Times,serif" font-size="14.00" fill="white">kconfig ✓</text>
</a>
</g>
</g>
<!-- kconfig&#45;&gt;kconfigwidgets -->
<g id="edge102" class="edge">
<title>kconfig&#45;&gt;kconfigwidgets</title>
<path fill="none" stroke="black" d="M1317.54,-568.47C1410.76,-559.82 1619.1,-540.01 1794.18,-520 1812.23,-517.94 1831.64,-515.55 1849.89,-513.23"/>
<polygon fill="black" stroke="black" points="1850.43,-516.69 1859.9,-511.95 1849.54,-509.75 1850.43,-516.69"/>
</g>
<!-- kconfig&#45;&gt;kiconthemes -->
<g id="edge103" class="edge">
<title>kconfig&#45;&gt;kiconthemes</title>
<path fill="none" stroke="black" d="M1217.95,-569.46C1167.19,-564.22 1087.68,-551.35 1026.18,-520 1009.46,-511.48 974.03,-478.28 950.16,-454.94"/>
<polygon fill="black" stroke="black" points="952.43,-452.27 942.85,-447.75 947.52,-457.26 952.43,-452.27"/>
</g>
<!-- kconfig&#45;&gt;kservice -->
<g id="edge104" class="edge">
<title>kconfig&#45;&gt;kservice</title>
<path fill="none" stroke="black" d="M1318.63,-569.91C1439.36,-562.4 1754.46,-542.2 2017.18,-520 2055.88,-516.73 2099.39,-512.45 2133.09,-509.01"/>
<polygon fill="black" stroke="black" points="2133.63,-512.47 2143.22,-507.96 2132.91,-505.51 2133.63,-512.47"/>
</g>
<!-- kconfig&#45;&gt;ktextwidgets -->
<g id="edge105" class="edge">
<title>kconfig&#45;&gt;ktextwidgets</title>
<path fill="none" stroke="black" d="M1286.73,-557.01C1311.37,-536.68 1357.06,-502.05 1402.18,-484 1423.25,-475.57 1550.86,-454.63 1632.72,-441.74"/>
<polygon fill="black" stroke="black" points="1633.37,-445.18 1642.71,-440.17 1632.29,-438.26 1633.37,-445.18"/>
</g>
<!-- kconfig&#45;&gt;kxmlgui -->
<g id="edge106" class="edge">
<title>kconfig&#45;&gt;kxmlgui</title>
<path fill="none" stroke="black" d="M1220.88,-566.62C1192.32,-560.06 1158.09,-546.8 1140.18,-520 1131.29,-506.7 1131.07,-497.15 1140.18,-484 1166.14,-446.55 1208.17,-483.94 1236.18,-448 1249.66,-430.7 1251.32,-405.43 1250.09,-386.24"/>
<polygon fill="black" stroke="black" points="1253.56,-385.65 1249.14,-376.02 1246.59,-386.3 1253.56,-385.65"/>
</g>
<!-- kconfig&#45;&gt;kio -->
<g id="edge107" class="edge">
<title>kconfig&#45;&gt;kio</title>
<path fill="none" stroke="black" d="M1268.56,-555.73C1269.9,-536 1274.98,-503.89 1293.18,-484 1323.67,-450.69 1348.03,-468.65 1388.18,-448 1465.13,-408.42 1477.59,-387.11 1550.18,-340 1600.45,-307.38 1612.66,-298.61 1664.18,-268 1685.85,-255.13 1710.74,-241.27 1729.61,-230.96"/>
<polygon fill="black" stroke="black" points="1731.5,-233.91 1738.61,-226.05 1728.16,-227.76 1731.5,-233.91"/>
</g>
<!-- kconfig&#45;&gt;kwallet -->
<g id="edge108" class="edge">
<title>kconfig&#45;&gt;kwallet</title>
<path fill="none" stroke="black" d="M1319.31,-571.26C1428.82,-566.92 1682.46,-553.48 1761.18,-520 1784.12,-510.25 1784.68,-499.53 1804.18,-484 1817.68,-473.25 1832.93,-461.64 1845.74,-452.04"/>
<polygon fill="black" stroke="black" points="1847.84,-454.84 1853.76,-446.05 1843.66,-449.23 1847.84,-454.84"/>
</g>
<!-- kconfig&#45;&gt;kfilemetadata -->
<g id="edge109" class="edge">
<title>kconfig&#45;&gt;kfilemetadata</title>
<path fill="none" stroke="black" d="M1216.9,-571.36C1021.8,-564.96 334.67,-541.03 293.18,-520 278.97,-512.8 254.15,-480.05 237.44,-456.37"/>
<polygon fill="black" stroke="black" points="240.28,-454.32 231.69,-448.12 234.54,-458.32 240.28,-454.32"/>
</g>
<!-- kconfig&#45;&gt;knotifyconfig -->
<g id="edge110" class="edge">
<title>kconfig&#45;&gt;knotifyconfig</title>
<path fill="none" stroke="black" d="M1230.9,-561.22C1211.5,-552.98 1189.52,-539.84 1178.18,-520 1170.24,-506.11 1169.56,-497.48 1178.18,-484 1198.76,-451.84 1227.29,-472.96 1256.18,-448 1285.1,-423.02 1292.28,-412.63 1303.18,-376 1307.74,-360.66 1311.7,-353.54 1303.18,-340 1283.49,-308.71 1247.87,-335.29 1228.18,-304 1219.66,-290.46 1223.73,-283.37 1228.18,-268 1239.36,-229.4 1266.4,-191.26 1285.73,-167.46"/>
<polygon fill="black" stroke="black" points="1288.51,-169.59 1292.21,-159.66 1283.13,-165.12 1288.51,-169.59"/>
</g>
<!-- kconfig&#45;&gt;purpose -->
<g id="edge111" class="edge">
<title>kconfig&#45;&gt;purpose</title>
<path fill="none" stroke="black" d="M1216.53,-573.61C1056.41,-574.23 573.93,-566.13 488.18,-448 424.88,-360.81 497.81,-224.4 533.15,-168.35"/>
<polygon fill="black" stroke="black" points="536.21,-170.06 538.67,-159.76 530.32,-166.28 536.21,-170.06"/>
</g>
<!-- kconfig&#45;&gt;knewstuff -->
<g id="edge112" class="edge">
<title>kconfig&#45;&gt;knewstuff</title>
<path fill="none" stroke="black" d="M1229.46,-562.06C1200.67,-553.04 1161.03,-538.69 1129.18,-520 1086.19,-494.77 1074.83,-486.52 1043.18,-448 976.02,-366.26 963.4,-335.84 943.18,-232 939.2,-211.55 936.92,-188.09 935.65,-170.39"/>
<polygon fill="black" stroke="black" points="939.13,-169.95 934.98,-160.2 932.14,-170.4 939.13,-169.95"/>
</g>
<!-- kconfig&#45;&gt;kdeclarative -->
<g id="edge113" class="edge">
<title>kconfig&#45;&gt;kdeclarative</title>
<path fill="none" stroke="black" d="M1264.19,-555.78C1260.78,-536.95 1258.13,-506.47 1270.18,-484 1366.71,-303.96 1605.09,-198.83 1709.19,-160.13"/>
<polygon fill="black" stroke="black" points="1710.65,-163.32 1718.84,-156.59 1708.24,-156.75 1710.65,-163.32"/>
</g>
<!-- kconfig&#45;&gt;kdenlive -->
<g id="edge114" class="edge">
<title>kconfig&#45;&gt;kdenlive</title>
<path fill="none" stroke="black" d="M1217.15,-571.53C1060.36,-566.7 592.46,-549.91 531.18,-520 372.29,-442.44 361.64,-242.15 493.18,-124 524.93,-95.48 1147.48,-77.48 1345.95,-72.45"/>
<polygon fill="black" stroke="black" points="1346.28,-75.94 1356.19,-72.19 1346.1,-68.94 1346.28,-75.94"/>
</g>
<!-- kconfig&#45;&gt;kbookmarks -->
<g id="edge116" class="edge">
<title>kconfig&#45;&gt;kbookmarks</title>
<path fill="none" stroke="black" d="M1275.65,-555.96C1285.52,-535.52 1304.92,-501.78 1332.18,-484 1396.86,-441.8 1427.35,-467.11 1502.18,-448 1556.13,-434.22 1568.83,-427.96 1622.18,-412 1753.82,-372.62 1908.78,-326.43 1988.27,-302.76"/>
<polygon fill="black" stroke="black" points="1989.46,-306.05 1998.05,-299.84 1987.46,-299.34 1989.46,-306.05"/>
</g>
<!-- kconfig&#45;&gt;kglobalaccel -->
<g id="edge115" class="edge">
<title>kconfig&#45;&gt;kglobalaccel</title>
<path fill="none" stroke="black" d="M1319.26,-571.67C1489.16,-567.09 2050.76,-550.46 2514.18,-520 2553.33,-517.43 2596.92,-513.62 2632.56,-510.26"/>
<polygon fill="black" stroke="black" points="2633.25,-513.71 2642.87,-509.28 2632.58,-506.74 2633.25,-513.71"/>
</g>
<!-- kconfig&#45;&gt;knotifications -->
<g id="edge117" class="edge">
<title>kconfig&#45;&gt;knotifications</title>
<path fill="none" stroke="black" d="M1304.82,-561.13C1339.77,-549.8 1392.77,-532.62 1432.11,-519.88"/>
<polygon fill="black" stroke="black" points="1433.36,-523.15 1441.79,-516.74 1431.2,-516.49 1433.36,-523.15"/>
</g>
<!-- kcompletion -->
<g id="node33" class="node">
<title>kcompletion</title>
<g id="a_node33"><a xlink:href="https://github.com/conda-forge/kcompletion-feedstock" xlink:title="kcompletion">
<ellipse fill="#fde725" stroke="black" cx="2325.18" cy="-502" rx="67.69" ry="18"/>
<text text-anchor="middle" x="2325.18" y="-498.3" font-family="Times,serif" font-size="14.00">kcompletion</text>
</a>
</g>
</g>
<!-- kconfig&#45;&gt;kcompletion -->
<g id="edge118" class="edge">
<title>kconfig&#45;&gt;kcompletion</title>
<path fill="none" stroke="black" d="M1319.79,-573.22C1466.17,-573.2 1896.26,-568.66 2249.18,-520 2255.1,-519.18 2261.24,-518.14 2267.35,-516.98"/>
<polygon fill="black" stroke="black" points="2268.45,-520.33 2277.56,-514.92 2267.07,-513.47 2268.45,-520.33"/>
</g>
<!-- kcompletion&#45;&gt;ktextwidgets -->
<g id="edge119" class="edge">
<title>kcompletion&#45;&gt;ktextwidgets</title>
<path fill="none" stroke="black" d="M2277.12,-489.21C2267.89,-487.24 2258.27,-485.39 2249.18,-484 2060.49,-455.1 2010.86,-469.51 1821.18,-448 1805.04,-446.17 1787.71,-443.88 1771.41,-441.58"/>
<polygon fill="black" stroke="black" points="1771.81,-438.1 1761.41,-440.15 1770.82,-445.03 1771.81,-438.1"/>
</g>
<!-- kcompletion&#45;&gt;kio -->
<g id="edge120" class="edge">
<title>kcompletion&#45;&gt;kio</title>
<path fill="none" stroke="black" d="M2322.57,-483.95C2314.84,-439.83 2287.67,-321.65 2212.18,-268 2145.61,-220.69 1892.23,-215.21 1796.29,-214.87"/>
<polygon fill="black" stroke="black" points="1796.19,-211.37 1786.18,-214.85 1796.18,-218.37 1796.19,-211.37"/>
</g>
<!-- kcompletion&#45;&gt;knotifyconfig -->
<g id="edge121" class="edge">
<title>kcompletion&#45;&gt;knotifyconfig</title>
<path fill="none" stroke="black" d="M2366.63,-487.71C2385.25,-479.43 2405.43,-466.7 2416.18,-448 2444.79,-398.22 2405.84,-229.46 2359.18,-196 2354.24,-192.46 1630.48,-158.18 1386.46,-146.71"/>
<polygon fill="black" stroke="black" points="1386.4,-143.21 1376.24,-146.23 1386.07,-150.2 1386.4,-143.21"/>
</g>
<!-- kcompletion&#45;&gt;knewstuff -->
<g id="edge122" class="edge">
<title>kcompletion&#45;&gt;knewstuff</title>
<path fill="none" stroke="black" d="M2326.49,-483.76C2327.46,-465.69 2327.92,-436.58 2323.18,-412 2309.18,-339.47 2301.29,-309.51 2240.18,-268 2145.59,-203.75 2105.97,-214.82 1993.18,-196 1657.01,-139.92 1567.53,-177.87 1227.18,-160 1148.7,-155.88 1058.43,-150.55 999.06,-146.97"/>
<polygon fill="black" stroke="black" points="998.9,-143.45 988.71,-146.34 998.48,-150.44 998.9,-143.45"/>
</g>
<!-- kcompletion&#45;&gt;kdenlive -->
<g id="edge123" class="edge">
<title>kcompletion&#45;&gt;kdenlive</title>
<path fill="none" stroke="black" d="M2374.32,-489.59C2396.51,-481.75 2420.72,-468.86 2434.18,-448 2460.21,-407.66 2452.15,-385.28 2436.18,-340 2406.59,-256.11 2374.59,-239.81 2297.18,-196 2203.96,-143.24 2172.33,-144.41 2067.18,-124 1848.87,-81.63 1583.66,-73.03 1466.63,-71.35"/>
<polygon fill="black" stroke="black" points="1466.49,-67.85 1456.45,-71.22 1466.4,-74.85 1466.49,-67.85"/>
</g>
<!-- kcodecs -->
<g id="node34" class="node">
<title>kcodecs</title>
<g id="a_node34"><a xlink:href="https://github.com/conda-forge/kcodecs-feedstock/pull/17" xlink:title="kcodecs ✓">
<ellipse fill="#31688e" stroke="black" cx="1977.18" cy="-574" rx="54.69" ry="18"/>
<text text-anchor="middle" x="1977.18" y="-570.3" font-family="Times,serif" font-size="14.00" fill="white">kcodecs ✓</text>
</a>
</g>
</g>
<!-- kcodecs&#45;&gt;kconfigwidgets -->
<g id="edge124" class="edge">
<title>kcodecs&#45;&gt;kconfigwidgets</title>
<path fill="none" stroke="black" d="M1965.33,-556.41C1959.32,-547.99 1951.88,-537.58 1945.18,-528.2"/>
<polygon fill="black" stroke="black" points="1947.95,-526.06 1939.29,-519.96 1942.26,-530.13 1947.95,-526.06"/>
</g>
<!-- kcodecs&#45;&gt;kio -->
<g id="edge125" class="edge">
<title>kcodecs&#45;&gt;kio</title>
<path fill="none" stroke="black" d="M2000.04,-557.59C2012.75,-548.04 2028,-534.79 2038.18,-520 2104.75,-423.33 2193.86,-356.87 2117.18,-268 2076,-220.27 1879.41,-214.8 1796.35,-214.67"/>
<polygon fill="black" stroke="black" points="1796.34,-211.17 1786.34,-214.68 1796.34,-218.17 1796.34,-211.17"/>
</g>
<!-- kcodecs&#45;&gt;kbookmarks -->
<g id="edge126" class="edge">
<title>kcodecs&#45;&gt;kbookmarks</title>
<path fill="none" stroke="black" d="M1992.64,-556.59C2001.13,-546.71 2011.13,-533.46 2017.18,-520 2050.42,-446.1 2049.99,-420.94 2046.18,-340 2045.79,-331.66 2045.05,-322.6 2044.26,-314.37"/>
<polygon fill="black" stroke="black" points="2047.71,-313.75 2043.21,-304.16 2040.75,-314.46 2047.71,-313.75"/>
</g>
<!-- kcodecs&#45;&gt;knotifications -->
<g id="edge127" class="edge">
<title>kcodecs&#45;&gt;knotifications</title>
<path fill="none" stroke="black" d="M1929.28,-565.17C1910.82,-562.21 1889.53,-558.87 1870.18,-556 1761.48,-539.9 1635.29,-522.89 1557.59,-512.61"/>
<polygon fill="black" stroke="black" points="1557.8,-509.11 1547.42,-511.27 1556.88,-516.05 1557.8,-509.11"/>
</g>
<!-- kguiaddons -->
<g id="node35" class="node">
<title>kguiaddons</title>
<g id="a_node35"><a xlink:href="https://github.com/conda-forge/kguiaddons-feedstock/pull/18" xlink:title="kguiaddons ✓">
<ellipse fill="#31688e" stroke="black" cx="2121.18" cy="-574" rx="71.5" ry="18"/>
<text text-anchor="middle" x="2121.18" y="-570.3" font-family="Times,serif" font-size="14.00" fill="white">kguiaddons ✓</text>
</a>
</g>
</g>
<!-- kguiaddons&#45;&gt;kconfigwidgets -->
<g id="edge128" class="edge">
<title>kguiaddons&#45;&gt;kconfigwidgets</title>
<path fill="none" stroke="black" d="M2081.92,-558.83C2051.82,-547.97 2010.05,-532.9 1977.5,-521.16"/>
<polygon fill="black" stroke="black" points="1978.31,-517.73 1967.72,-517.63 1975.93,-524.31 1978.31,-517.73"/>
</g>
<!-- kguiaddons&#45;&gt;kdenlive -->
<g id="edge129" class="edge">
<title>kguiaddons&#45;&gt;kdenlive</title>
<path fill="none" stroke="black" d="M2173.86,-561.72C2183.28,-559.76 2193.01,-557.79 2202.18,-556 2290.83,-538.72 2325.52,-567.76 2402.18,-520 2419.04,-509.49 2448.98,-466.88 2455.18,-448 2480.53,-370.8 2471.52,-333.31 2423.18,-268 2343.43,-160.26 2288.89,-153.71 2158.18,-124 2026.72,-94.11 1619.83,-78.01 1465.95,-72.85"/>
<polygon fill="black" stroke="black" points="1465.86,-69.35 1455.75,-72.52 1465.63,-76.35 1465.86,-69.35"/>
</g>
<!-- kwidgetsaddons -->
<g id="node36" class="node">
<title>kwidgetsaddons</title>
<g id="a_node36"><a xlink:href="https://github.com/conda-forge/kwidgetsaddons-feedstock/pull/18" xlink:title="kwidgetsaddons ✓">
<ellipse fill="#31688e" stroke="black" cx="2869.18" cy="-574" rx="93" ry="18"/>
<text text-anchor="middle" x="2869.18" y="-570.3" font-family="Times,serif" font-size="14.00" fill="white">kwidgetsaddons ✓</text>
</a>
</g>
</g>
<!-- kwidgetsaddons&#45;&gt;kconfigwidgets -->
<g id="edge130" class="edge">
<title>kwidgetsaddons&#45;&gt;kconfigwidgets</title>
<path fill="none" stroke="black" d="M2789.05,-564.76C2758.72,-561.79 2723.88,-558.54 2692.18,-556 2443.57,-536.08 2380.91,-538.31 2132.18,-520 2092.3,-517.06 2048.09,-513.44 2010.96,-510.3"/>
<polygon fill="black" stroke="black" points="2010.95,-506.79 2000.69,-509.43 2010.36,-513.76 2010.95,-506.79"/>
</g>
<!-- kwidgetsaddons&#45;&gt;kiconthemes -->
<g id="edge131" class="edge">
<title>kwidgetsaddons&#45;&gt;kiconthemes</title>
<path fill="none" stroke="black" d="M2851.44,-556.04C2840.79,-545.75 2827.05,-532.28 2815.18,-520 2800.1,-504.39 2801.96,-492.94 2782.18,-484 2694.14,-444.18 1139.48,-455.96 1043.18,-448 1026.75,-446.64 1009.11,-444.46 992.64,-442.11"/>
<polygon fill="black" stroke="black" points="992.96,-438.62 982.55,-440.63 991.94,-445.54 992.96,-438.62"/>
</g>
<!-- kwidgetsaddons&#45;&gt;ktextwidgets -->
<g id="edge132" class="edge">
<title>kwidgetsaddons&#45;&gt;ktextwidgets</title>
<path fill="none" stroke="black" d="M2864.34,-555.99C2857.33,-534.91 2842.14,-499.83 2815.18,-484 2719.87,-428.05 1931.26,-457.83 1821.18,-448 1804.74,-446.53 1787.1,-444.35 1770.57,-442.03"/>
<polygon fill="black" stroke="black" points="1770.84,-438.53 1760.45,-440.58 1769.85,-445.46 1770.84,-438.53"/>
</g>
<!-- kwidgetsaddons&#45;&gt;kxmlgui -->
<g id="edge133" class="edge">
<title>kwidgetsaddons&#45;&gt;kxmlgui</title>
<path fill="none" stroke="black" d="M2887.03,-556.03C2905.37,-536.57 2928.69,-504.72 2909.18,-484 2863.63,-435.62 2378.33,-454.33 2312.18,-448 2189.91,-436.3 2160.41,-424.11 2038.18,-412 1763.8,-384.82 1434.52,-367.75 1303.76,-361.59"/>
<polygon fill="black" stroke="black" points="1303.73,-358.09 1293.58,-361.11 1303.41,-365.08 1303.73,-358.09"/>
</g>
<!-- kwidgetsaddons&#45;&gt;kio -->
<g id="edge134" class="edge">
<title>kwidgetsaddons&#45;&gt;kio</title>
<path fill="none" stroke="black" d="M2904.24,-557.19C2919.1,-548.5 2934.88,-536.16 2943.18,-520 2950.49,-505.77 2953.1,-496.56 2943.18,-484 2900.43,-429.85 2858.12,-468.29 2792.18,-448 2576.8,-381.73 2537.66,-319.09 2318.18,-268 2125.48,-223.14 1886.96,-216.1 1796.4,-215.11"/>
<polygon fill="black" stroke="black" points="1796.39,-211.61 1786.36,-215.01 1796.32,-218.6 1796.39,-211.61"/>
</g>
<!-- kwidgetsaddons&#45;&gt;kwallet -->
<g id="edge135" class="edge">
<title>kwidgetsaddons&#45;&gt;kwallet</title>
<path fill="none" stroke="black" d="M2881.51,-555.89C2894.21,-536.01 2909.75,-503.46 2891.18,-484 2861.65,-453.06 2164.88,-450.46 2122.18,-448 2054.87,-444.12 1977.34,-438.64 1927.15,-434.96"/>
<polygon fill="black" stroke="black" points="1927.4,-431.47 1917.17,-434.23 1926.89,-438.45 1927.4,-431.47"/>
</g>
<!-- kwidgetsaddons&#45;&gt;knewstuff -->
<g id="edge136" class="edge">
<title>kwidgetsaddons&#45;&gt;knewstuff</title>
<path fill="none" stroke="black" d="M2913.96,-558.19C2931.62,-549.9 2950.07,-537.59 2960.18,-520 2968.15,-506.13 2969.25,-497.18 2960.18,-484 2845.65,-317.65 2298.15,-224.33 2098.18,-196 1714.57,-141.65 1614.14,-179.22 1227.18,-160 1148.69,-156.1 1058.42,-150.73 999.06,-147.07"/>
<polygon fill="black" stroke="black" points="998.9,-143.56 988.71,-146.44 998.47,-150.55 998.9,-143.56"/>
</g>
<!-- kwidgetsaddons&#45;&gt;kdeclarative -->
<g id="edge137" class="edge">
<title>kwidgetsaddons&#45;&gt;kdeclarative</title>
<path fill="none" stroke="black" d="M2935.45,-561.34C3019.94,-546.39 3155.39,-522.15 3157.18,-520 3167.42,-507.71 3165.5,-497.67 3157.18,-484 2993.7,-215.5 2819.99,-254.79 2511.18,-196 2268.16,-149.74 1974.04,-142.9 1836.77,-142.48"/>
<polygon fill="black" stroke="black" points="1836.77,-138.98 1826.76,-142.47 1836.76,-145.98 1836.77,-138.98"/>
</g>
<!-- kwidgetsaddons&#45;&gt;kdenlive -->
<g id="edge138" class="edge">
<title>kwidgetsaddons&#45;&gt;kdenlive</title>
<path fill="none" stroke="black" d="M2945.01,-563.52C3055.9,-549.53 3249.9,-524.52 3256.18,-520 3349.89,-452.51 3371.18,-402.48 3371.18,-287 3371.18,-287 3371.18,-287 3371.18,-213 3371.18,-19.58 3137.21,-147.19 2945.18,-124 2651.14,-88.49 1713.24,-74.75 1466.26,-71.69"/>
<polygon fill="black" stroke="black" points="1466.09,-68.19 1456.05,-71.57 1466,-75.19 1466.09,-68.19"/>
</g>
<!-- kwidgetsaddons&#45;&gt;kbookmarks -->
<g id="edge139" class="edge">
<title>kwidgetsaddons&#45;&gt;kbookmarks</title>
<path fill="none" stroke="black" d="M2892.57,-556.43C2915.88,-537.91 2945.62,-507.45 2926.18,-484 2898.61,-450.75 2777.45,-456.88 2735.18,-448 2498.19,-398.2 2217.75,-330.4 2098.96,-301.26"/>
<polygon fill="black" stroke="black" points="2099.53,-297.8 2088.99,-298.82 2097.86,-304.6 2099.53,-297.8"/>
</g>
<!-- kwidgetsaddons&#45;&gt;kjobwidgets -->
<g id="edge140" class="edge">
<title>kwidgetsaddons&#45;&gt;kjobwidgets</title>
<path fill="none" stroke="black" d="M2938.22,-561.84C2950.84,-559.85 2963.9,-557.84 2976.18,-556 3033.22,-547.48 3194.67,-562.92 3233.18,-520 3265.99,-483.44 3256.13,-421.25 3246.71,-385.81"/>
<polygon fill="black" stroke="black" points="3250.06,-384.82 3243.97,-376.15 3243.33,-386.73 3250.06,-384.82"/>
</g>
<!-- kwidgetsaddons&#45;&gt;kcompletion -->
<g id="edge141" class="edge">
<title>kwidgetsaddons&#45;&gt;kcompletion</title>
<path fill="none" stroke="black" d="M2791.61,-563.98C2705.63,-553.85 2562.88,-536.65 2440.18,-520 2424.68,-517.9 2408.02,-515.51 2392.32,-513.2"/>
<polygon fill="black" stroke="black" points="2392.58,-509.7 2382.17,-511.7 2391.55,-516.62 2392.58,-509.7"/>
</g>
<!-- kitemviews -->
<g id="node37" class="node">
<title>kitemviews</title>
<g id="a_node37"><a xlink:href="https://github.com/conda-forge/kitemviews-feedstock/pull/17" xlink:title="kitemviews ✓">
<ellipse fill="#31688e" stroke="black" cx="789.18" cy="-502" rx="71" ry="18"/>
<text text-anchor="middle" x="789.18" y="-498.3" font-family="Times,serif" font-size="14.00" fill="white">kitemviews ✓</text>
</a>
</g>
</g>
<!-- kitemviews&#45;&gt;kiconthemes -->
<g id="edge142" class="edge">
<title>kitemviews&#45;&gt;kiconthemes</title>
<path fill="none" stroke="black" d="M819.25,-485.64C839.23,-475.43 865.67,-461.92 887.26,-450.88"/>
<polygon fill="black" stroke="black" points="888.87,-453.99 896.19,-446.33 885.69,-447.76 888.87,-453.99"/>
</g>
<!-- kitemviews&#45;&gt;kxmlgui -->
<g id="edge143" class="edge">
<title>kitemviews&#45;&gt;kxmlgui</title>
<path fill="none" stroke="black" d="M857.39,-496.93C950.88,-490.41 1113.16,-475.49 1165.18,-448 1180.05,-440.14 1208.26,-406.96 1227.14,-383.42"/>
<polygon fill="black" stroke="black" points="1229.91,-385.56 1233.4,-375.55 1224.44,-381.2 1229.91,-385.56"/>
</g>
<!-- kitemviews&#45;&gt;kio -->
<g id="edge144" class="edge">
<title>kitemviews&#45;&gt;kio</title>
<path fill="none" stroke="black" d="M795.37,-483.77C803.75,-463.13 820.74,-429.19 847.18,-412 931.34,-357.26 980.19,-420.5 1070.18,-376 1091.03,-365.69 1087.07,-349.78 1108.18,-340 1241.25,-278.35 1303.11,-365.65 1436.18,-304 1457.29,-294.22 1453.45,-278.56 1474.18,-268 1555.7,-226.48 1665.15,-217.2 1721.76,-215.31"/>
<polygon fill="black" stroke="black" points="1722.13,-218.8 1732.03,-215.03 1721.94,-211.8 1722.13,-218.8"/>
</g>
<!-- kitemviews&#45;&gt;knewstuff -->
<g id="edge145" class="edge">
<title>kitemviews&#45;&gt;knewstuff</title>
<path fill="none" stroke="black" d="M783.49,-483.81C768.14,-433.93 731.18,-286.96 795.18,-196 812.73,-171.06 843.66,-157.85 871.9,-150.86"/>
<polygon fill="black" stroke="black" points="872.76,-154.25 881.74,-148.63 871.22,-147.42 872.76,-154.25"/>
</g>
<!-- kitemviews&#45;&gt;kdenlive -->
<g id="edge146" class="edge">
<title>kitemviews&#45;&gt;kdenlive</title>
<path fill="none" stroke="black" d="M735.39,-490.12C660.46,-474.94 533.5,-449.12 531.18,-448 508.74,-437.16 507.49,-427.76 488.18,-412 408.54,-347 389.98,-328.92 307.18,-268 284.24,-251.12 267.51,-257.16 254.18,-232 229.42,-185.26 257.91,-149.63 304.18,-124 395.36,-73.48 1128.29,-70.56 1345.64,-70.81"/>
<polygon fill="black" stroke="black" points="1345.89,-74.31 1355.9,-70.83 1345.9,-67.31 1345.89,-74.31"/>
</g>
<!-- kdbusaddons -->
<g id="node38" class="node">
<title>kdbusaddons</title>
<g id="a_node38"><a xlink:href="https://github.com/conda-forge/kdbusaddons-feedstock/pull/17" xlink:title="kdbusaddons ✓">
<ellipse fill="#31688e" stroke="black" cx="2603.18" cy="-574" rx="79.5" ry="18"/>
<text text-anchor="middle" x="2603.18" y="-570.3" font-family="Times,serif" font-size="14.00" fill="white">kdbusaddons ✓</text>
</a>
</g>
</g>
<!-- kdbusaddons&#45;&gt;kservice -->
<g id="edge147" class="edge">
<title>kdbusaddons&#45;&gt;kservice</title>
<path fill="none" stroke="black" d="M2532.95,-565.39C2460.95,-556.92 2346.01,-541.53 2248.18,-520 2244.26,-519.14 2240.21,-518.15 2236.17,-517.1"/>
<polygon fill="black" stroke="black" points="2236.75,-513.63 2226.18,-514.38 2234.91,-520.39 2236.75,-513.63"/>
</g>
<!-- kdbusaddons&#45;&gt;kio -->
<g id="edge148" class="edge">
<title>kdbusaddons&#45;&gt;kio</title>
<path fill="none" stroke="black" d="M2599.43,-555.81C2591.65,-523.82 2570.99,-454.51 2530.18,-412 2431.62,-309.34 2380.65,-308.37 2244.18,-268 2082.53,-220.17 1879.08,-214.68 1796.53,-214.6"/>
<polygon fill="black" stroke="black" points="1796.38,-211.1 1786.39,-214.62 1796.4,-218.1 1796.38,-211.1"/>
</g>
<!-- kdbusaddons&#45;&gt;kwallet -->
<g id="edge149" class="edge">
<title>kdbusaddons&#45;&gt;kwallet</title>
<path fill="none" stroke="black" d="M2592.05,-555.9C2577.17,-534.72 2548.64,-499.54 2514.18,-484 2396.05,-430.74 2059.82,-470.36 1932.18,-448 1927.33,-447.15 1922.31,-446.04 1917.35,-444.8"/>
<polygon fill="black" stroke="black" points="1917.88,-441.31 1907.31,-442.09 1916.05,-448.07 1917.88,-441.31"/>
</g>
<!-- kdbusaddons&#45;&gt;kdenlive -->
<g id="edge150" class="edge">
<title>kdbusaddons&#45;&gt;kdenlive</title>
<path fill="none" stroke="black" d="M2665.62,-562.65C2711.41,-553.63 2767.97,-539.02 2782.18,-520 2791.75,-507.18 2789.41,-498.27 2782.18,-484 2651.25,-225.74 2519.33,-197.19 2239.18,-124 2092.92,-85.79 1631.8,-74.66 1466.16,-71.85"/>
<polygon fill="black" stroke="black" points="1466.21,-68.35 1456.15,-71.68 1466.09,-75.35 1466.21,-68.35"/>
</g>
<!-- kdbusaddons&#45;&gt;kglobalaccel -->
<g id="edge151" class="edge">
<title>kdbusaddons&#45;&gt;kglobalaccel</title>
<path fill="none" stroke="black" d="M2626.84,-556.76C2640.61,-547.31 2658.17,-535.26 2673.16,-524.97"/>
<polygon fill="black" stroke="black" points="2675.39,-527.69 2681.65,-519.15 2671.43,-521.92 2675.39,-527.69"/>
</g>
<!-- kwindowsystem -->
<g id="node39" class="node">
<title>kwindowsystem</title>
<g id="a_node39"><a xlink:href="https://github.com/conda-forge/kwindowsystem-feedstock/pull/19" xlink:title="kwindowsystem ✓">
<ellipse fill="#31688e" stroke="black" cx="3130.18" cy="-646" rx="92.5" ry="18"/>
<text text-anchor="middle" x="3130.18" y="-642.3" font-family="Times,serif" font-size="14.00" fill="white">kwindowsystem ✓</text>
</a>
</g>
</g>
<!-- kwindowsystem&#45;&gt;kservice -->
<g id="edge152" class="edge">
<title>kwindowsystem&#45;&gt;kservice</title>
<path fill="none" stroke="black" d="M3039.64,-642.22C2919.13,-637.37 2699.74,-624.57 2515.18,-592 2413.4,-574.04 2297.32,-538.48 2235.15,-518.17"/>
<polygon fill="black" stroke="black" points="2235.87,-514.72 2225.28,-514.92 2233.68,-521.37 2235.87,-514.72"/>
</g>
<!-- kwindowsystem&#45;&gt;ktextwidgets -->
<g id="edge153" class="edge">
<title>kwindowsystem&#45;&gt;ktextwidgets</title>
<path fill="none" stroke="black" d="M3131.52,-627.8C3132.07,-607.84 3129.73,-575.2 3111.18,-556 3065.35,-508.55 3030.83,-537.34 2967.18,-520 2912.63,-505.14 2900.98,-493.06 2845.18,-484 2395.68,-410.98 2274.79,-488.26 1821.18,-448 1804.65,-446.53 1786.92,-444.34 1770.31,-442.01"/>
<polygon fill="black" stroke="black" points="1770.54,-438.5 1760.14,-440.55 1769.54,-445.43 1770.54,-438.5"/>
</g>
<!-- kwindowsystem&#45;&gt;kxmlgui -->
<g id="edge154" class="edge">
<title>kwindowsystem&#45;&gt;kxmlgui</title>
<path fill="none" stroke="black" d="M3144.22,-627.94C3157.56,-609.53 3173.84,-579.66 3161.18,-556 3133.96,-505.14 3107.65,-503 3053.18,-484 2719.17,-367.51 1576.6,-359.23 1304.63,-358.93"/>
<polygon fill="black" stroke="black" points="1304.57,-355.43 1294.57,-358.92 1304.57,-362.43 1304.57,-355.43"/>
</g>
<!-- kwindowsystem&#45;&gt;kio -->
<g id="edge155" class="edge">
<title>kwindowsystem&#45;&gt;kio</title>
<path fill="none" stroke="black" d="M3221.76,-643.09C3317.48,-639.19 3459.22,-627.41 3499.18,-592 3529.84,-564.83 3523.18,-543.97 3523.18,-503 3523.18,-503 3523.18,-503 3523.18,-429 3523.18,-315.63 3112.17,-283.11 2990.18,-268 2750.41,-238.3 1975.35,-219.75 1796.32,-215.79"/>
<polygon fill="black" stroke="black" points="1796.18,-212.29 1786.11,-215.57 1796.03,-219.29 1796.18,-212.29"/>
</g>
<!-- kwindowsystem&#45;&gt;kwallet -->
<g id="edge156" class="edge">
<title>kwindowsystem&#45;&gt;kwallet</title>
<path fill="none" stroke="black" d="M3139.37,-628.07C3148.36,-608.94 3158.76,-577.67 3144.18,-556 3096.77,-485.54 3050.11,-502.32 2967.18,-484 2916.02,-472.7 2141.16,-441.51 1928.06,-433.11"/>
<polygon fill="black" stroke="black" points="1928.18,-429.61 1918.05,-432.71 1927.9,-436.6 1928.18,-429.61"/>
</g>
<!-- kwindowsystem&#45;&gt;kdeclarative -->
<g id="edge157" class="edge">
<title>kwindowsystem&#45;&gt;kdeclarative</title>
<path fill="none" stroke="black" d="M3221.55,-643.04C3322.9,-639.11 3478.21,-627.33 3524.18,-592 3558.15,-565.9 3561.18,-545.84 3561.18,-503 3561.18,-503 3561.18,-503 3561.18,-429 3561.18,-270.19 3247.79,-286.24 3157.18,-268 2967.65,-229.84 2920.34,-217.31 2728.18,-196 2397.68,-159.34 2000.83,-147.71 1836.38,-144.3"/>
<polygon fill="black" stroke="black" points="1836.42,-140.8 1826.36,-144.1 1836.28,-147.8 1836.42,-140.8"/>
</g>
<!-- kwindowsystem&#45;&gt;kcrash -->
<g id="edge158" class="edge">
<title>kwindowsystem&#45;&gt;kcrash</title>
<path fill="none" stroke="black" d="M3113.24,-628.05C3104.21,-619.03 3092.97,-607.79 3083.17,-597.99"/>
<polygon fill="black" stroke="black" points="3085.56,-595.43 3076.01,-590.83 3080.61,-600.38 3085.56,-595.43"/>
</g>
<!-- kwindowsystem&#45;&gt;kglobalaccel -->
<g id="edge159" class="edge">
<title>kwindowsystem&#45;&gt;kglobalaccel</title>
<path fill="none" stroke="black" d="M3042.55,-640.17C2950.17,-633.7 2811.94,-619.67 2767.18,-592 2743.4,-577.3 2726.34,-549.71 2716.22,-529.13"/>
<polygon fill="black" stroke="black" points="2719.33,-527.53 2711.93,-519.96 2712.99,-530.5 2719.33,-527.53"/>
</g>
<!-- kwindowsystem&#45;&gt;knotifications -->
<g id="edge160" class="edge">
<title>kwindowsystem&#45;&gt;knotifications</title>
<path fill="none" stroke="black" d="M3038.69,-642.93C2794.43,-637.08 2130.78,-619.13 1913.18,-592 1778.95,-575.26 1624.19,-538.83 1542.2,-518.14"/>
<polygon fill="black" stroke="black" points="1542.88,-514.71 1532.33,-515.64 1541.16,-521.49 1542.88,-514.71"/>
</g>
<!-- sonnet -->
<g id="node40" class="node">
<title>sonnet</title>
<g id="a_node40"><a xlink:href="https://github.com/conda-forge/sonnet-feedstock/pull/18" xlink:title="sonnet ✓">
<ellipse fill="#31688e" stroke="black" cx="1702.18" cy="-502" rx="49.5" ry="18"/>
<text text-anchor="middle" x="1702.18" y="-498.3" font-family="Times,serif" font-size="14.00" fill="white">sonnet ✓</text>
</a>
</g>
</g>
<!-- sonnet&#45;&gt;ktextwidgets -->
<g id="edge161" class="edge">
<title>sonnet&#45;&gt;ktextwidgets</title>
<path fill="none" stroke="black" d="M1702.18,-483.7C1702.18,-475.98 1702.18,-466.71 1702.18,-458.11"/>
<polygon fill="black" stroke="black" points="1705.68,-458.1 1702.18,-448.1 1698.68,-458.1 1705.68,-458.1"/>
</g>
<!-- solid -->
<g id="node41" class="node">
<title>solid</title>
<g id="a_node41"><a xlink:href="https://github.com/conda-forge/solid-feedstock/pull/17" xlink:title="solid ✓">
<ellipse fill="#31688e" stroke="black" cx="1277.18" cy="-286" rx="40.5" ry="18"/>
<text text-anchor="middle" x="1277.18" y="-282.3" font-family="Times,serif" font-size="14.00" fill="white">solid ✓</text>
</a>
</g>
</g>
<!-- solid&#45;&gt;kio -->
<g id="edge162" class="edge">
<title>solid&#45;&gt;kio</title>
<path fill="none" stroke="black" d="M1308.34,-274.32C1316.06,-271.97 1324.36,-269.68 1332.18,-268 1474.53,-237.42 1647.65,-222.68 1722.16,-217.39"/>
<polygon fill="black" stroke="black" points="1722.69,-220.86 1732.42,-216.68 1722.21,-213.88 1722.69,-220.86"/>
</g>
<!-- solid&#45;&gt;kdenlive -->
<g id="edge163" class="edge">
<title>solid&#45;&gt;kdenlive</title>
<path fill="none" stroke="black" d="M1263.45,-268.77C1238.96,-237.78 1193.38,-169.26 1227.18,-124 1242.18,-103.92 1304.38,-88.76 1351.28,-79.9"/>
<polygon fill="black" stroke="black" points="1352.13,-83.3 1361.33,-78.05 1350.87,-76.42 1352.13,-83.3"/>
</g>
<!-- attica -->
<g id="node42" class="node">
<title>attica</title>
<g id="a_node42"><a xlink:href="https://github.com/conda-forge/attica-feedstock/pull/20" xlink:title="attica ❎">
<ellipse fill="#31688e" stroke="black" cx="1104.18" cy="-430" rx="51.5" ry="18"/>
<text text-anchor="middle" x="1104.18" y="-426.3" font-family="Times,serif" font-size="14.00" fill="white">attica ❎</text>
</a>
</g>
</g>
<!-- attica&#45;&gt;kxmlgui -->
<g id="edge164" class="edge">
<title>attica&#45;&gt;kxmlgui</title>
<path fill="none" stroke="black" d="M1132.92,-414.83C1154.81,-404.04 1185.13,-389.1 1208.89,-377.38"/>
<polygon fill="black" stroke="black" points="1210.55,-380.47 1217.97,-372.91 1207.45,-374.19 1210.55,-380.47"/>
</g>
<!-- attica&#45;&gt;knewstuff -->
<g id="edge165" class="edge">
<title>attica&#45;&gt;knewstuff</title>
<path fill="none" stroke="black" d="M1084.94,-413C1059.26,-390.8 1013.72,-348.34 985.18,-304 966.51,-274.99 966.79,-264.83 956.18,-232 949.58,-211.59 943.83,-188 939.87,-170.23"/>
<polygon fill="black" stroke="black" points="943.24,-169.29 937.69,-160.26 936.41,-170.78 943.24,-169.29"/>
</g>
<!-- kirigami2 -->
<g id="node43" class="node">
<title>kirigami2</title>
<g id="a_node43"><a xlink:href="https://github.com/conda-forge/kirigami2-feedstock/pull/22" xlink:title="kirigami2 ✓">
<ellipse fill="#31688e" stroke="black" cx="345.18" cy="-214" rx="62.5" ry="18"/>
<text text-anchor="middle" x="345.18" y="-210.3" font-family="Times,serif" font-size="14.00" fill="white">kirigami2 ✓</text>
</a>
</g>
</g>
<!-- kirigami2&#45;&gt;purpose -->
<g id="edge166" class="edge">
<title>kirigami2&#45;&gt;purpose</title>
<path fill="none" stroke="black" d="M383.74,-199.83C418.51,-187.96 469.63,-170.5 506.03,-158.07"/>
<polygon fill="black" stroke="black" points="507.55,-161.26 515.88,-154.71 505.29,-154.63 507.55,-161.26"/>
</g>
<!-- pyqtads -->
<g id="node45" class="node">
<title>pyqtads</title>
<g id="a_node45"><a xlink:href="https://github.com/conda-forge/pyqtads-feedstock" xlink:title="pyqtads">
<ellipse fill="#ff8c00" stroke="black" cx="3731.18" cy="-306" rx="48.19" ry="18"/>
<text text-anchor="middle" x="3731.18" y="-302.3" font-family="Times,serif" font-size="14.00">pyqtads</text>
</a>
</g>
</g>
<!-- prismatic_split&#45;&gt;pyqtads -->
<!-- hpp&#45;gui -->
<g id="node46" class="node">
<title>hpp&#45;gui</title>
<g id="a_node46"><a xlink:href="https://github.com/conda-forge/hpp-gui-feedstock" xlink:title="hpp gui">
<ellipse fill="#ff8c00" stroke="black" cx="3731.18" cy="-234" rx="46.29" ry="18"/>
<text text-anchor="middle" x="3731.18" y="-230.3" font-family="Times,serif" font-size="14.00">hpp gui</text>
</a>
</g>
</g>
<!-- pyqtads&#45;&gt;hpp&#45;gui -->
<!-- gammaray -->
<g id="node47" class="node">
<title>gammaray</title>
<g id="a_node47"><a xlink:href="https://github.com/conda-forge/gammaray-feedstock/pull/2" xlink:title="gammaray ❎">
<ellipse fill="#31688e" stroke="black" cx="3731.18" cy="-162" rx="74.19" ry="18"/>
<text text-anchor="middle" x="3731.18" y="-158.3" font-family="Times,serif" font-size="14.00" fill="white">gammaray ❎</text>
</a>
</g>
</g>
<!-- hpp&#45;gui&#45;&gt;gammaray -->
<!-- tomviz -->
<g id="node48" class="node">
<title>tomviz</title>
<g id="a_node48"><a xlink:href="https://github.com/conda-forge/tomviz-feedstock/pull/50" xlink:title="tomviz ❎">
<ellipse fill="#31688e" stroke="black" cx="3731.18" cy="-90" rx="56" ry="18"/>
<text text-anchor="middle" x="3731.18" y="-86.3" font-family="Times,serif" font-size="14.00" fill="white">tomviz ❎</text>
</a>
</g>
</g>
<!-- gammaray&#45;&gt;tomviz -->
<!-- hpp&#45;gepetto&#45;viewer -->
<g id="node49" class="node">
<title>hpp&#45;gepetto&#45;viewer</title>
<g id="a_node49"><a xlink:href="https://github.com/conda-forge/hpp-gepetto-viewer-feedstock/pull/6" xlink:title="hpp gepetto viewer ✓">
<ellipse fill="#31688e" stroke="black" cx="3731.18" cy="-18" rx="108.58" ry="18"/>
<text text-anchor="middle" x="3731.18" y="-14.3" font-family="Times,serif" font-size="14.00" fill="white">hpp gepetto viewer ✓</text>
</a>
</g>
</g>
<!-- tomviz&#45;&gt;hpp&#45;gepetto&#45;viewer -->
</g>
</svg>
