<?xml version="1.0" encoding="UTF-8" standalone="no"?>
<!DOCTYPE svg PUBLIC "-//W3C//DTD SVG 1.1//EN"
 "http://www.w3.org/Graphics/SVG/1.1/DTD/svg11.dtd">
<!-- Generated by graphviz version 6.0.1 (20220911.2005)
 -->
<!-- Pages: 1 -->
<svg width="2502pt" height="808pt"
 viewBox="0.00 0.00 2501.64 808.00" xmlns="http://www.w3.org/2000/svg" xmlns:xlink="http://www.w3.org/1999/xlink">
<g id="graph0" class="graph" transform="scale(1 1) rotate(0) translate(4 804)">
<polygon fill="white" stroke="none" points="-4,4 -4,-804 2497.64,-804 2497.64,4 -4,4"/>
<!-- r&#45;eml -->
<g id="node1" class="node">
<title>r&#45;eml</title>
<g id="a_node1"><a xlink:href="https://github.com/conda-forge/r-eml-feedstock" xlink:title="r eml">
<ellipse fill="#fde725" stroke="black" cx="1386.54" cy="-386" rx="35.19" ry="18"/>
<text text-anchor="middle" x="1386.54" y="-382.3" font-family="Times,serif" font-size="14.00">r eml</text>
</a>
</g>
</g>
<!-- r&#45;finch -->
<g id="node2" class="node">
<title>r&#45;finch</title>
<g id="a_node2"><a xlink:href="https://github.com/conda-forge/r-finch-feedstock" xlink:title="r finch">
<ellipse fill="#fde725" stroke="black" cx="1386.54" cy="-314" rx="40.5" ry="18"/>
<text text-anchor="middle" x="1386.54" y="-310.3" font-family="Times,serif" font-size="14.00">r finch</text>
</a>
</g>
</g>
<!-- r&#45;eml&#45;&gt;r&#45;finch -->
<g id="edge1" class="edge">
<title>r&#45;eml&#45;&gt;r&#45;finch</title>
<path fill="none" stroke="black" d="M1386.54,-367.7C1386.54,-359.98 1386.54,-350.71 1386.54,-342.11"/>
<polygon fill="black" stroke="black" points="1390.04,-342.1 1386.54,-332.1 1383.04,-342.1 1390.04,-342.1"/>
</g>
<!-- r&#45;rstan -->
<g id="node3" class="node">
<title>r&#45;rstan</title>
<g id="a_node3"><a xlink:href="https://github.com/conda-forge/r-rstan-feedstock" xlink:title="r rstan">
<ellipse fill="#fde725" stroke="black" cx="610.54" cy="-602" rx="42.49" ry="18"/>
<text text-anchor="middle" x="610.54" y="-598.3" font-family="Times,serif" font-size="14.00">r rstan</text>
</a>
</g>
</g>
<!-- r&#45;shinystan -->
<g id="node4" class="node">
<title>r&#45;shinystan</title>
<g id="a_node4"><a xlink:href="https://github.com/conda-forge/r-shinystan-feedstock" xlink:title="r shinystan">
<ellipse fill="#fde725" stroke="black" cx="519.54" cy="-530" rx="63.09" ry="18"/>
<text text-anchor="middle" x="519.54" y="-526.3" font-family="Times,serif" font-size="14.00">r shinystan</text>
</a>
</g>
</g>
<!-- r&#45;rstan&#45;&gt;r&#45;shinystan -->
<g id="edge2" class="edge">
<title>r&#45;rstan&#45;&gt;r&#45;shinystan</title>
<path fill="none" stroke="black" d="M590.8,-585.81C578.5,-576.35 562.47,-564.02 548.72,-553.45"/>
<polygon fill="black" stroke="black" points="550.58,-550.46 540.52,-547.13 546.31,-556 550.58,-550.46"/>
</g>
<!-- r&#45;rstanarm -->
<g id="node5" class="node">
<title>r&#45;rstanarm</title>
<g id="a_node5"><a xlink:href="https://github.com/conda-forge/r-rstanarm-feedstock" xlink:title="r rstanarm">
<ellipse fill="#fde725" stroke="black" cx="435.54" cy="-458" rx="61.19" ry="18"/>
<text text-anchor="middle" x="435.54" y="-454.3" font-family="Times,serif" font-size="14.00">r rstanarm</text>
</a>
</g>
</g>
<!-- r&#45;rstan&#45;&gt;r&#45;rstanarm -->
<g id="edge3" class="edge">
<title>r&#45;rstan&#45;&gt;r&#45;rstanarm</title>
<path fill="none" stroke="black" d="M568.61,-599.34C530.96,-595.45 477.18,-583.53 447.54,-548 433.39,-531.03 431.23,-505.56 432.12,-486.22"/>
<polygon fill="black" stroke="black" points="435.61,-486.42 432.87,-476.19 428.63,-485.9 435.61,-486.42"/>
</g>
<!-- r&#45;brms -->
<g id="node6" class="node">
<title>r&#45;brms</title>
<g id="a_node6"><a xlink:href="https://github.com/conda-forge/r-brms-feedstock" xlink:title="r brms">
<ellipse fill="#fde725" stroke="black" cx="594.54" cy="-458" rx="42.49" ry="18"/>
<text text-anchor="middle" x="594.54" y="-454.3" font-family="Times,serif" font-size="14.00">r brms</text>
</a>
</g>
</g>
<!-- r&#45;rstan&#45;&gt;r&#45;brms -->
<g id="edge4" class="edge">
<title>r&#45;rstan&#45;&gt;r&#45;brms</title>
<path fill="none" stroke="black" d="M608.61,-583.87C605.89,-559.67 600.88,-515.21 597.63,-486.39"/>
<polygon fill="black" stroke="black" points="601.08,-485.73 596.48,-476.19 594.12,-486.52 601.08,-485.73"/>
</g>
<!-- r&#45;prophet -->
<g id="node7" class="node">
<title>r&#45;prophet</title>
<g id="a_node7"><a xlink:href="https://github.com/conda-forge/r-prophet-feedstock" xlink:title="r prophet">
<ellipse fill="#fde725" stroke="black" cx="250.54" cy="-530" rx="54.69" ry="18"/>
<text text-anchor="middle" x="250.54" y="-526.3" font-family="Times,serif" font-size="14.00">r prophet</text>
</a>
</g>
</g>
<!-- r&#45;rstan&#45;&gt;r&#45;prophet -->
<g id="edge5" class="edge">
<title>r&#45;rstan&#45;&gt;r&#45;prophet</title>
<path fill="none" stroke="black" d="M572.28,-593.91C518.65,-583.92 418.08,-565.02 332.54,-548 323.64,-546.23 314.21,-544.31 305.03,-542.42"/>
<polygon fill="black" stroke="black" points="305.7,-538.99 295.2,-540.39 304.29,-545.84 305.7,-538.99"/>
</g>
<!-- r&#45;metabma -->
<g id="node8" class="node">
<title>r&#45;metabma</title>
<g id="a_node8"><a xlink:href="https://github.com/conda-forge/r-metabma-feedstock" xlink:title="r metabma">
<ellipse fill="#fde725" stroke="black" cx="826.54" cy="-530" rx="61.99" ry="18"/>
<text text-anchor="middle" x="826.54" y="-526.3" font-family="Times,serif" font-size="14.00">r metabma</text>
</a>
</g>
</g>
<!-- r&#45;rstan&#45;&gt;r&#45;metabma -->
<g id="edge6" class="edge">
<title>r&#45;rstan&#45;&gt;r&#45;metabma</title>
<path fill="none" stroke="black" d="M643.35,-590.37C678.97,-578.83 736.25,-560.26 777.28,-546.97"/>
<polygon fill="black" stroke="black" points="778.38,-550.29 786.81,-543.88 776.22,-543.63 778.38,-550.29"/>
</g>
<!-- r&#45;rlgt -->
<g id="node9" class="node">
<title>r&#45;rlgt</title>
<g id="a_node9"><a xlink:href="https://github.com/conda-forge/r-rlgt-feedstock" xlink:title="r rlgt">
<ellipse fill="#fde725" stroke="black" cx="711.54" cy="-530" rx="35.19" ry="18"/>
<text text-anchor="middle" x="711.54" y="-526.3" font-family="Times,serif" font-size="14.00">r rlgt</text>
</a>
</g>
</g>
<!-- r&#45;rstan&#45;&gt;r&#45;rlgt -->
<g id="edge7" class="edge">
<title>r&#45;rstan&#45;&gt;r&#45;rlgt</title>
<path fill="none" stroke="black" d="M631.96,-586.15C646.81,-575.86 666.76,-562.04 682.97,-550.81"/>
<polygon fill="black" stroke="black" points="685.3,-553.44 691.53,-544.87 681.32,-547.69 685.3,-553.44"/>
</g>
<!-- r&#45;bayesforecast -->
<g id="node10" class="node">
<title>r&#45;bayesforecast</title>
<g id="a_node10"><a xlink:href="https://github.com/conda-forge/r-bayesforecast-feedstock" xlink:title="r bayesforecast">
<ellipse fill="#fde725" stroke="black" cx="82.54" cy="-458" rx="82.59" ry="18"/>
<text text-anchor="middle" x="82.54" y="-454.3" font-family="Times,serif" font-size="14.00">r bayesforecast</text>
</a>
</g>
</g>
<!-- r&#45;rstan&#45;&gt;r&#45;bayesforecast -->
<g id="edge8" class="edge">
<title>r&#45;rstan&#45;&gt;r&#45;bayesforecast</title>
<path fill="none" stroke="black" d="M568.64,-598.83C475.57,-593.51 254.48,-578.02 186.54,-548 153.2,-533.27 122.47,-504.23 103.2,-483.33"/>
<polygon fill="black" stroke="black" points="105.68,-480.85 96.39,-475.76 100.48,-485.54 105.68,-480.85"/>
</g>
<!-- r&#45;stanova -->
<g id="node11" class="node">
<title>r&#45;stanova</title>
<g id="a_node11"><a xlink:href="https://github.com/conda-forge/r-stanova-feedstock" xlink:title="r stanova">
<ellipse fill="#fde725" stroke="black" cx="903.54" cy="-458" rx="54" ry="18"/>
<text text-anchor="middle" x="903.54" y="-454.3" font-family="Times,serif" font-size="14.00">r stanova</text>
</a>
</g>
</g>
<!-- r&#45;rstan&#45;&gt;r&#45;stanova -->
<g id="edge9" class="edge">
<title>r&#45;rstan&#45;&gt;r&#45;stanova</title>
<path fill="none" stroke="black" d="M652.4,-599.37C724.06,-595.63 865.65,-583.8 897.54,-548 912.3,-531.44 912.42,-505.54 909.66,-485.94"/>
<polygon fill="black" stroke="black" points="913.11,-485.34 907.97,-476.08 906.21,-486.53 913.11,-485.34"/>
</g>
<!-- jasp -->
<g id="node12" class="node">
<title>jasp</title>
<g id="a_node12"><a xlink:href="https://github.com/conda-forge/jasp-feedstock" xlink:title="jasp">
<ellipse fill="#fde725" stroke="black" cx="664.54" cy="-386" rx="30" ry="18"/>
<text text-anchor="middle" x="664.54" y="-382.3" font-family="Times,serif" font-size="14.00">jasp</text>
</a>
</g>
</g>
<!-- r&#45;rstan&#45;&gt;jasp -->
<g id="edge10" class="edge">
<title>r&#45;rstan&#45;&gt;jasp</title>
<path fill="none" stroke="black" d="M615.64,-584.11C622.77,-560.17 635.94,-514.95 645.54,-476 650.62,-455.42 655.59,-431.97 659.17,-414.31"/>
<polygon fill="black" stroke="black" points="662.68,-414.63 661.22,-404.13 655.82,-413.25 662.68,-414.63"/>
</g>
<!-- r&#45;densestbayes -->
<g id="node13" class="node">
<title>r&#45;densestbayes</title>
<g id="a_node13"><a xlink:href="https://github.com/conda-forge/r-densestbayes-feedstock" xlink:title="r densestbayes">
<ellipse fill="#fde725" stroke="black" cx="302.54" cy="-386" rx="81.49" ry="18"/>
<text text-anchor="middle" x="302.54" y="-382.3" font-family="Times,serif" font-size="14.00">r densestbayes</text>
</a>
</g>
</g>
<!-- r&#45;rstan&#45;&gt;r&#45;densestbayes -->
<g id="edge11" class="edge">
<title>r&#45;rstan&#45;&gt;r&#45;densestbayes</title>
<path fill="none" stroke="black" d="M570.49,-595.81C531.95,-589.38 473.25,-575.68 429.54,-548 375.84,-513.99 335.27,-449.11 315.64,-412.96"/>
<polygon fill="black" stroke="black" points="318.66,-411.19 310.88,-404 312.48,-414.47 318.66,-411.19"/>
</g>
<!-- r&#45;shinystan&#45;&gt;r&#45;rstanarm -->
<g id="edge12" class="edge">
<title>r&#45;shinystan&#45;&gt;r&#45;rstanarm</title>
<path fill="none" stroke="black" d="M500.06,-512.76C488.93,-503.49 474.8,-491.71 462.6,-481.55"/>
<polygon fill="black" stroke="black" points="464.84,-478.86 454.92,-475.15 460.36,-484.24 464.84,-478.86"/>
</g>
<!-- r&#45;shinystan&#45;&gt;r&#45;brms -->
<g id="edge13" class="edge">
<title>r&#45;shinystan&#45;&gt;r&#45;brms</title>
<path fill="none" stroke="black" d="M537.32,-512.41C547.15,-503.24 559.5,-491.7 570.22,-481.7"/>
<polygon fill="black" stroke="black" points="572.75,-484.13 577.67,-474.75 567.97,-479.01 572.75,-484.13"/>
</g>
<!-- r&#45;shinystan&#45;&gt;jasp -->
<g id="edge14" class="edge">
<title>r&#45;shinystan&#45;&gt;jasp</title>
<path fill="none" stroke="black" d="M519.88,-511.9C521.15,-492.34 526,-460.38 543.54,-440 564.7,-415.42 599.41,-401.82 626.24,-394.57"/>
<polygon fill="black" stroke="black" points="627.25,-397.93 636.1,-392.1 625.55,-391.14 627.25,-397.93"/>
</g>
<!-- r&#45;rstanarm&#45;&gt;jasp -->
<g id="edge15" class="edge">
<title>r&#45;rstanarm&#45;&gt;jasp</title>
<path fill="none" stroke="black" d="M476.22,-444.57C519.56,-431.32 587.5,-410.55 628.83,-397.92"/>
<polygon fill="black" stroke="black" points="629.95,-401.24 638.49,-394.96 627.9,-394.54 629.95,-401.24"/>
</g>
<!-- r&#45;tidyposterior -->
<g id="node14" class="node">
<title>r&#45;tidyposterior</title>
<g id="a_node14"><a xlink:href="https://github.com/conda-forge/r-tidyposterior-feedstock" xlink:title="r tidyposterior">
<ellipse fill="#fde725" stroke="black" cx="480.54" cy="-386" rx="78.79" ry="18"/>
<text text-anchor="middle" x="480.54" y="-382.3" font-family="Times,serif" font-size="14.00">r tidyposterior</text>
</a>
</g>
</g>
<!-- r&#45;rstanarm&#45;&gt;r&#45;tidyposterior -->
<g id="edge16" class="edge">
<title>r&#45;rstanarm&#45;&gt;r&#45;tidyposterior</title>
<path fill="none" stroke="black" d="M446.44,-440.05C451.66,-431.92 458.04,-422 463.87,-412.94"/>
<polygon fill="black" stroke="black" points="466.97,-414.58 469.44,-404.28 461.09,-410.79 466.97,-414.58"/>
</g>
<!-- r&#45;prophet&#45;&gt;r&#45;bayesforecast -->
<g id="edge17" class="edge">
<title>r&#45;prophet&#45;&gt;r&#45;bayesforecast</title>
<path fill="none" stroke="black" d="M218.15,-515.5C192.71,-504.9 156.95,-490 128.54,-478.17"/>
<polygon fill="black" stroke="black" points="129.79,-474.9 119.22,-474.28 127.1,-481.36 129.79,-474.9"/>
</g>
<!-- r&#45;modeltime -->
<g id="node15" class="node">
<title>r&#45;modeltime</title>
<g id="a_node15"><a xlink:href="https://github.com/conda-forge/r-modeltime-feedstock" xlink:title="r modeltime">
<ellipse fill="#fde725" stroke="black" cx="250.54" cy="-458" rx="67.69" ry="18"/>
<text text-anchor="middle" x="250.54" y="-454.3" font-family="Times,serif" font-size="14.00">r modeltime</text>
</a>
</g>
</g>
<!-- r&#45;prophet&#45;&gt;r&#45;modeltime -->
<g id="edge18" class="edge">
<title>r&#45;prophet&#45;&gt;r&#45;modeltime</title>
<path fill="none" stroke="black" d="M250.54,-511.7C250.54,-503.98 250.54,-494.71 250.54,-486.11"/>
<polygon fill="black" stroke="black" points="254.04,-486.1 250.54,-476.1 247.04,-486.1 254.04,-486.1"/>
</g>
<!-- r&#45;metabma&#45;&gt;jasp -->
<g id="edge19" class="edge">
<title>r&#45;metabma&#45;&gt;jasp</title>
<path fill="none" stroke="black" d="M826.14,-511.75C824.78,-492.05 819.68,-459.95 801.54,-440 776.19,-412.11 734.45,-398.76 703.69,-392.45"/>
<polygon fill="black" stroke="black" points="704.2,-388.99 693.72,-390.57 702.9,-395.87 704.2,-388.99"/>
</g>
<!-- r&#45;tidybf -->
<g id="node16" class="node">
<title>r&#45;tidybf</title>
<g id="a_node16"><a xlink:href="https://github.com/conda-forge/r-tidybf-feedstock" xlink:title="r tidybf">
<ellipse fill="#fde725" stroke="black" cx="747.54" cy="-458" rx="45.5" ry="18"/>
<text text-anchor="middle" x="747.54" y="-454.3" font-family="Times,serif" font-size="14.00">r tidybf</text>
</a>
</g>
</g>
<!-- r&#45;metabma&#45;&gt;r&#45;tidybf -->
<g id="edge20" class="edge">
<title>r&#45;metabma&#45;&gt;r&#45;tidybf</title>
<path fill="none" stroke="black" d="M808.22,-512.76C797.7,-503.45 784.34,-491.61 772.83,-481.41"/>
<polygon fill="black" stroke="black" points="775.03,-478.68 765.22,-474.67 770.39,-483.92 775.03,-478.68"/>
</g>
<!-- r&#45;stanova&#45;&gt;jasp -->
<g id="edge21" class="edge">
<title>r&#45;stanova&#45;&gt;jasp</title>
<path fill="none" stroke="black" d="M864.34,-445.52C818.89,-432.21 744.57,-410.44 700.53,-397.54"/>
<polygon fill="black" stroke="black" points="701.4,-394.15 690.82,-394.7 699.43,-400.87 701.4,-394.15"/>
</g>
<!-- r&#45;reldist -->
<g id="node17" class="node">
<title>r&#45;reldist</title>
<g id="a_node17"><a xlink:href="https://github.com/conda-forge/r-reldist-feedstock" xlink:title="r reldist">
<ellipse fill="#fde725" stroke="black" cx="302.54" cy="-314" rx="48.19" ry="18"/>
<text text-anchor="middle" x="302.54" y="-310.3" font-family="Times,serif" font-size="14.00">r reldist</text>
</a>
</g>
</g>
<!-- r&#45;densestbayes&#45;&gt;r&#45;reldist -->
<g id="edge22" class="edge">
<title>r&#45;densestbayes&#45;&gt;r&#45;reldist</title>
<path fill="none" stroke="black" d="M302.54,-367.7C302.54,-359.98 302.54,-350.71 302.54,-342.11"/>
<polygon fill="black" stroke="black" points="306.04,-342.1 302.54,-332.1 299.04,-342.1 306.04,-342.1"/>
</g>
<!-- r&#45;sparklyr -->
<g id="node18" class="node">
<title>r&#45;sparklyr</title>
<g id="a_node18"><a xlink:href="https://github.com/conda-forge/r-sparklyr-feedstock/pull/42" xlink:title="r sparklyr ❎">
<ellipse fill="#31688e" stroke="black" cx="2392.54" cy="-530" rx="71" ry="18"/>
<text text-anchor="middle" x="2392.54" y="-526.3" font-family="Times,serif" font-size="14.00" fill="white">r sparklyr ❎</text>
</a>
</g>
</g>
<!-- r&#45;sparktf -->
<g id="node19" class="node">
<title>r&#45;sparktf</title>
<g id="a_node19"><a xlink:href="https://github.com/conda-forge/r-sparktf-feedstock" xlink:title="r sparktf">
<ellipse fill="#fde725" stroke="black" cx="2352.54" cy="-458" rx="51.5" ry="18"/>
<text text-anchor="middle" x="2352.54" y="-454.3" font-family="Times,serif" font-size="14.00">r sparktf</text>
</a>
</g>
</g>
<!-- r&#45;sparklyr&#45;&gt;r&#45;sparktf -->
<g id="edge23" class="edge">
<title>r&#45;sparklyr&#45;&gt;r&#45;sparktf</title>
<path fill="none" stroke="black" d="M2382.86,-512.05C2378.14,-503.8 2372.37,-493.7 2367.14,-484.54"/>
<polygon fill="black" stroke="black" points="2370.14,-482.73 2362.14,-475.79 2364.06,-486.21 2370.14,-482.73"/>
</g>
<!-- r&#45;sparkxgb -->
<g id="node20" class="node">
<title>r&#45;sparkxgb</title>
<g id="a_node20"><a xlink:href="https://github.com/conda-forge/r-sparkxgb-feedstock" xlink:title="r sparkxgb">
<ellipse fill="#fde725" stroke="black" cx="2432.54" cy="-386" rx="61.19" ry="18"/>
<text text-anchor="middle" x="2432.54" y="-382.3" font-family="Times,serif" font-size="14.00">r sparkxgb</text>
</a>
</g>
</g>
<!-- r&#45;sparklyr&#45;&gt;r&#45;sparkxgb -->
<g id="edge24" class="edge">
<title>r&#45;sparklyr&#45;&gt;r&#45;sparkxgb</title>
<path fill="none" stroke="black" d="M2400.09,-512.07C2404.46,-501.79 2409.82,-488.32 2413.54,-476 2419.71,-455.62 2424.65,-432.02 2427.95,-414.25"/>
<polygon fill="black" stroke="black" points="2431.41,-414.74 2429.74,-404.28 2424.52,-413.5 2431.41,-414.74"/>
</g>
<!-- r&#45;tfdatasets -->
<g id="node21" class="node">
<title>r&#45;tfdatasets</title>
<g id="a_node21"><a xlink:href="https://github.com/conda-forge/r-tfdatasets-feedstock" xlink:title="r tfdatasets">
<ellipse fill="#fde725" stroke="black" cx="1061.54" cy="-18" rx="65" ry="18"/>
<text text-anchor="middle" x="1061.54" y="-14.3" font-family="Times,serif" font-size="14.00">r tfdatasets</text>
</a>
</g>
</g>
<!-- r&#45;tfestimators -->
<g id="node22" class="node">
<title>r&#45;tfestimators</title>
<g id="a_node22"><a xlink:href="https://github.com/conda-forge/r-tfestimators-feedstock/pull/7" xlink:title="r tfestimators ❎">
<ellipse fill="#31688e" stroke="black" cx="1061.54" cy="-90" rx="89.08" ry="18"/>
<text text-anchor="middle" x="1061.54" y="-86.3" font-family="Times,serif" font-size="14.00" fill="white">r tfestimators ❎</text>
</a>
</g>
</g>
<!-- r&#45;tfestimators&#45;&gt;r&#45;tfdatasets -->
<g id="edge25" class="edge">
<title>r&#45;tfestimators&#45;&gt;r&#45;tfdatasets</title>
<path fill="none" stroke="black" d="M1061.54,-71.7C1061.54,-63.98 1061.54,-54.71 1061.54,-46.11"/>
<polygon fill="black" stroke="black" points="1065.04,-46.1 1061.54,-36.1 1058.04,-46.1 1065.04,-46.1"/>
</g>
<!-- r&#45;xtensor -->
<g id="node23" class="node">
<title>r&#45;xtensor</title>
<g id="a_node23"><a xlink:href="https://github.com/conda-forge/r-xtensor-feedstock/pull/20" xlink:title="r xtensor ✓">
<ellipse fill="#31688e" stroke="black" cx="2211.54" cy="-782" rx="60.5" ry="18"/>
<text text-anchor="middle" x="2211.54" y="-778.3" font-family="Times,serif" font-size="14.00" fill="white">r xtensor ✓</text>
</a>
</g>
</g>
<!-- r&#45;hypergea -->
<g id="node24" class="node">
<title>r&#45;hypergea</title>
<g id="a_node24"><a xlink:href="https://github.com/conda-forge/r-hypergea-feedstock/pull/7" xlink:title="r hypergea ❎">
<ellipse fill="#31688e" stroke="black" cx="2211.54" cy="-710" rx="75.5" ry="18"/>
<text text-anchor="middle" x="2211.54" y="-706.3" font-family="Times,serif" font-size="14.00" fill="white">r hypergea ❎</text>
</a>
</g>
</g>
<!-- r&#45;xtensor&#45;&gt;r&#45;hypergea -->
<!-- yggdrasil -->
<g id="node25" class="node">
<title>yggdrasil</title>
<g id="a_node25"><a xlink:href="https://github.com/conda-forge/yggdrasil-feedstock/pull/36" xlink:title="yggdrasil ❎">
<ellipse fill="#31688e" stroke="black" cx="2211.54" cy="-638" rx="68.49" ry="18"/>
<text text-anchor="middle" x="2211.54" y="-634.3" font-family="Times,serif" font-size="14.00" fill="white">yggdrasil ❎</text>
</a>
</g>
</g>
<!-- r&#45;hypergea&#45;&gt;yggdrasil -->
<!-- r&#45;mlflow -->
<g id="node26" class="node">
<title>r&#45;mlflow</title>
<g id="a_node26"><a xlink:href="https://github.com/conda-forge/r-mlflow-feedstock/pull/36" xlink:title="r mlflow ❎">
<ellipse fill="#31688e" stroke="black" cx="2211.54" cy="-566" rx="63.09" ry="18"/>
<text text-anchor="middle" x="2211.54" y="-562.3" font-family="Times,serif" font-size="14.00" fill="white">r mlflow ❎</text>
</a>
</g>
</g>
<!-- yggdrasil&#45;&gt;r&#45;mlflow -->
<!-- r&#45;destinie -->
<g id="node50" class="node">
<title>r&#45;destinie</title>
<g id="a_node50"><a xlink:href="https://github.com/conda-forge/r-destinie-feedstock/pull/6" xlink:title="r destinie ❎">
<ellipse fill="#31688e" stroke="black" cx="2211.54" cy="-494" rx="69.59" ry="18"/>
<text text-anchor="middle" x="2211.54" y="-490.3" font-family="Times,serif" font-size="14.00" fill="white">r destinie ❎</text>
</a>
</g>
</g>
<!-- r&#45;mlflow&#45;&gt;r&#45;destinie -->
<!-- r&#45;v8 -->
<g id="node27" class="node">
<title>r&#45;v8</title>
<g id="a_node27"><a xlink:href="https://github.com/conda-forge/r-v8-feedstock" xlink:title="r v8">
<ellipse fill="#ff8c00" stroke="black" cx="1451.54" cy="-674" rx="29.5" ry="18"/>
<text text-anchor="middle" x="1451.54" y="-670.3" font-family="Times,serif" font-size="14.00">r v8</text>
</a>
</g>
</g>
<!-- r&#45;v8&#45;&gt;r&#45;rstan -->
<g id="edge29" class="edge">
<title>r&#45;v8&#45;&gt;r&#45;rstan</title>
<path fill="none" stroke="black" d="M1422.59,-670.59C1299.77,-660.37 820.83,-620.5 662.02,-607.29"/>
<polygon fill="black" stroke="black" points="661.85,-603.76 651.59,-606.42 661.27,-610.73 661.85,-603.76"/>
</g>
<!-- r&#45;rmapshaper -->
<g id="node28" class="node">
<title>r&#45;rmapshaper</title>
<g id="a_node28"><a xlink:href="https://github.com/conda-forge/r-rmapshaper-feedstock" xlink:title="r rmapshaper">
<ellipse fill="#fde725" stroke="black" cx="1049.54" cy="-458" rx="74.19" ry="18"/>
<text text-anchor="middle" x="1049.54" y="-454.3" font-family="Times,serif" font-size="14.00">r rmapshaper</text>
</a>
</g>
</g>
<!-- r&#45;v8&#45;&gt;r&#45;rmapshaper -->
<g id="edge30" class="edge">
<title>r&#45;v8&#45;&gt;r&#45;rmapshaper</title>
<path fill="none" stroke="black" d="M1422.33,-671.57C1330.3,-666.78 1050.94,-649.88 1024.54,-620 991.5,-582.6 1015.87,-520.29 1034.22,-485.16"/>
<polygon fill="black" stroke="black" points="1037.49,-486.48 1039.18,-476.02 1031.33,-483.14 1037.49,-486.48"/>
</g>
<!-- r&#45;geojsonio -->
<g id="node29" class="node">
<title>r&#45;geojsonio</title>
<g id="a_node29"><a xlink:href="https://github.com/conda-forge/r-geojsonio-feedstock" xlink:title="r geojsonio">
<ellipse fill="#fde725" stroke="black" cx="1095.54" cy="-602" rx="61.99" ry="18"/>
<text text-anchor="middle" x="1095.54" y="-598.3" font-family="Times,serif" font-size="14.00">r geojsonio</text>
</a>
</g>
</g>
<!-- r&#45;v8&#45;&gt;r&#45;geojsonio -->
<g id="edge31" class="edge">
<title>r&#45;v8&#45;&gt;r&#45;geojsonio</title>
<path fill="none" stroke="black" d="M1423.69,-667.84C1373.86,-658.56 1266.17,-638.33 1175.54,-620 1168.46,-618.57 1161.04,-617.03 1153.68,-615.49"/>
<polygon fill="black" stroke="black" points="1154.24,-612.04 1143.74,-613.4 1152.8,-618.89 1154.24,-612.04"/>
</g>
<!-- r&#45;jsonvalidate -->
<g id="node30" class="node">
<title>r&#45;jsonvalidate</title>
<g id="a_node30"><a xlink:href="https://github.com/conda-forge/r-jsonvalidate-feedstock" xlink:title="r jsonvalidate">
<ellipse fill="#fde725" stroke="black" cx="1291.54" cy="-602" rx="74.19" ry="18"/>
<text text-anchor="middle" x="1291.54" y="-598.3" font-family="Times,serif" font-size="14.00">r jsonvalidate</text>
</a>
</g>
</g>
<!-- r&#45;v8&#45;&gt;r&#45;jsonvalidate -->
<g id="edge32" class="edge">
<title>r&#45;v8&#45;&gt;r&#45;jsonvalidate</title>
<path fill="none" stroke="black" d="M1428.28,-662.82C1403.95,-652.18 1365.22,-635.23 1335.17,-622.09"/>
<polygon fill="black" stroke="black" points="1336.32,-618.77 1325.75,-617.97 1333.51,-625.18 1336.32,-618.77"/>
</g>
<!-- r&#45;geojsonlint -->
<g id="node31" class="node">
<title>r&#45;geojsonlint</title>
<g id="a_node31"><a xlink:href="https://github.com/conda-forge/r-geojsonlint-feedstock" xlink:title="r geojsonlint">
<ellipse fill="#fde725" stroke="black" cx="1227.54" cy="-530" rx="69.59" ry="18"/>
<text text-anchor="middle" x="1227.54" y="-526.3" font-family="Times,serif" font-size="14.00">r geojsonlint</text>
</a>
</g>
</g>
<!-- r&#45;v8&#45;&gt;r&#45;geojsonlint -->
<g id="edge33" class="edge">
<title>r&#45;v8&#45;&gt;r&#45;geojsonlint</title>
<path fill="none" stroke="black" d="M1422.58,-671.1C1364.08,-666.58 1235.15,-653.04 1208.54,-620 1194.23,-602.23 1202.11,-576.2 1211.69,-556.87"/>
<polygon fill="black" stroke="black" points="1214.82,-558.46 1216.45,-547.99 1208.64,-555.16 1214.82,-558.46"/>
</g>
<!-- r&#45;daff -->
<g id="node32" class="node">
<title>r&#45;daff</title>
<g id="a_node32"><a xlink:href="https://github.com/conda-forge/r-daff-feedstock" xlink:title="r daff">
<ellipse fill="#fde725" stroke="black" cx="1419.54" cy="-602" rx="36" ry="18"/>
<text text-anchor="middle" x="1419.54" y="-598.3" font-family="Times,serif" font-size="14.00">r daff</text>
</a>
</g>
</g>
<!-- r&#45;v8&#45;&gt;r&#45;daff -->
<g id="edge34" class="edge">
<title>r&#45;v8&#45;&gt;r&#45;daff</title>
<path fill="none" stroke="black" d="M1443.96,-656.41C1440.23,-648.25 1435.64,-638.22 1431.46,-629.07"/>
<polygon fill="black" stroke="black" points="1434.63,-627.6 1427.29,-619.96 1428.27,-630.51 1434.63,-627.6"/>
</g>
<!-- r&#45;jsonld -->
<g id="node33" class="node">
<title>r&#45;jsonld</title>
<g id="a_node33"><a xlink:href="https://github.com/conda-forge/r-jsonld-feedstock" xlink:title="r jsonld">
<ellipse fill="#fde725" stroke="black" cx="1447.54" cy="-530" rx="46.29" ry="18"/>
<text text-anchor="middle" x="1447.54" y="-526.3" font-family="Times,serif" font-size="14.00">r jsonld</text>
</a>
</g>
</g>
<!-- r&#45;v8&#45;&gt;r&#45;jsonld -->
<g id="edge35" class="edge">
<title>r&#45;v8&#45;&gt;r&#45;jsonld</title>
<path fill="none" stroke="black" d="M1457,-656.25C1462.13,-638.35 1468.48,-609.15 1464.54,-584 1463.16,-575.18 1460.56,-565.82 1457.8,-557.46"/>
<polygon fill="black" stroke="black" points="1461.05,-556.13 1454.43,-547.86 1454.45,-558.45 1461.05,-556.13"/>
</g>
<!-- r&#45;concaveman -->
<g id="node34" class="node">
<title>r&#45;concaveman</title>
<g id="a_node34"><a xlink:href="https://github.com/conda-forge/r-concaveman-feedstock" xlink:title="r concaveman">
<ellipse fill="#fde725" stroke="black" cx="1521.54" cy="-458" rx="75.5" ry="18"/>
<text text-anchor="middle" x="1521.54" y="-454.3" font-family="Times,serif" font-size="14.00">r concaveman</text>
</a>
</g>
</g>
<!-- r&#45;v8&#45;&gt;r&#45;concaveman -->
<g id="edge36" class="edge">
<title>r&#45;v8&#45;&gt;r&#45;concaveman</title>
<path fill="none" stroke="black" d="M1461.14,-656.66C1466.95,-646.36 1474.22,-632.66 1479.54,-620 1498.44,-575.01 1510.68,-519.3 1516.83,-486.6"/>
<polygon fill="black" stroke="black" points="1520.33,-486.91 1518.68,-476.45 1513.44,-485.66 1520.33,-486.91"/>
</g>
<!-- r&#45;randomcolor -->
<g id="node35" class="node">
<title>r&#45;randomcolor</title>
<g id="a_node35"><a xlink:href="https://github.com/conda-forge/r-randomcolor-feedstock" xlink:title="r randomcolor">
<ellipse fill="#fde725" stroke="black" cx="1626.54" cy="-602" rx="76.89" ry="18"/>
<text text-anchor="middle" x="1626.54" y="-598.3" font-family="Times,serif" font-size="14.00">r randomcolor</text>
</a>
</g>
</g>
<!-- r&#45;v8&#45;&gt;r&#45;randomcolor -->
<g id="edge37" class="edge">
<title>r&#45;v8&#45;&gt;r&#45;randomcolor</title>
<path fill="none" stroke="black" d="M1475.51,-663.41C1502.26,-652.71 1546.21,-635.13 1579.81,-621.69"/>
<polygon fill="black" stroke="black" points="1581.45,-624.81 1589.44,-617.84 1578.85,-618.31 1581.45,-624.81"/>
</g>
<!-- r&#45;dot -->
<g id="node36" class="node">
<title>r&#45;dot</title>
<g id="a_node36"><a xlink:href="https://github.com/conda-forge/r-dot-feedstock" xlink:title="r dot">
<ellipse fill="#fde725" stroke="black" cx="1812.54" cy="-386" rx="33.29" ry="18"/>
<text text-anchor="middle" x="1812.54" y="-382.3" font-family="Times,serif" font-size="14.00">r dot</text>
</a>
</g>
</g>
<!-- r&#45;v8&#45;&gt;r&#45;dot -->
<g id="edge38" class="edge">
<title>r&#45;v8&#45;&gt;r&#45;dot</title>
<path fill="none" stroke="black" d="M1480.97,-672.02C1531.1,-669.3 1635.11,-659 1712.54,-620 1755.26,-598.48 1770.42,-590.41 1792.54,-548 1814.78,-505.37 1816.25,-448.01 1814.77,-414.51"/>
<polygon fill="black" stroke="black" points="1818.24,-413.91 1814.18,-404.12 1811.25,-414.31 1818.24,-413.91"/>
</g>
<!-- r&#45;diagrammersvg -->
<g id="node37" class="node">
<title>r&#45;diagrammersvg</title>
<g id="a_node37"><a xlink:href="https://github.com/conda-forge/r-diagrammersvg-feedstock" xlink:title="r diagrammersvg">
<ellipse fill="#fde725" stroke="black" cx="1939.54" cy="-602" rx="91" ry="18"/>
<text text-anchor="middle" x="1939.54" y="-598.3" font-family="Times,serif" font-size="14.00">r diagrammersvg</text>
</a>
</g>
</g>
<!-- r&#45;v8&#45;&gt;r&#45;diagrammersvg -->
<g id="edge39" class="edge">
<title>r&#45;v8&#45;&gt;r&#45;diagrammersvg</title>
<path fill="none" stroke="black" d="M1479.7,-669.08C1542.04,-660.39 1696.4,-638.78 1825.54,-620 1836.49,-618.41 1848.03,-616.71 1859.4,-615.03"/>
<polygon fill="black" stroke="black" points="1859.94,-618.48 1869.32,-613.55 1858.91,-611.56 1859.94,-618.48"/>
</g>
<!-- r&#45;dagitty -->
<g id="node38" class="node">
<title>r&#45;dagitty</title>
<g id="a_node38"><a xlink:href="https://github.com/conda-forge/r-dagitty-feedstock" xlink:title="r dagitty">
<ellipse fill="#fde725" stroke="black" cx="2062.54" cy="-314" rx="51.5" ry="18"/>
<text text-anchor="middle" x="2062.54" y="-310.3" font-family="Times,serif" font-size="14.00">r dagitty</text>
</a>
</g>
</g>
<!-- r&#45;v8&#45;&gt;r&#45;dagitty -->
<g id="edge40" class="edge">
<title>r&#45;v8&#45;&gt;r&#45;dagitty</title>
<path fill="none" stroke="black" d="M1480.99,-672.31C1594.12,-669.37 1996.62,-656.44 2039.54,-620 2070.69,-593.56 2062.54,-571.86 2062.54,-531 2062.54,-531 2062.54,-531 2062.54,-457 2062.54,-417 2062.54,-370.65 2062.54,-342.08"/>
<polygon fill="black" stroke="black" points="2066.04,-342.05 2062.54,-332.05 2059.04,-342.05 2066.04,-342.05"/>
</g>
<!-- r&#45;geojsonio&#45;&gt;r&#45;rmapshaper -->
<g id="edge41" class="edge">
<title>r&#45;geojsonio&#45;&gt;r&#45;rmapshaper</title>
<path fill="none" stroke="black" d="M1072.73,-585.15C1061.35,-575.81 1048.72,-562.91 1042.54,-548 1034.37,-528.28 1037.02,-504.01 1041.21,-485.81"/>
<polygon fill="black" stroke="black" points="1044.6,-486.68 1043.71,-476.12 1037.82,-484.93 1044.6,-486.68"/>
</g>
<!-- r&#45;sen2r -->
<g id="node39" class="node">
<title>r&#45;sen2r</title>
<g id="a_node39"><a xlink:href="https://github.com/conda-forge/r-sen2r-feedstock" xlink:title="r sen2r">
<ellipse fill="#fde725" stroke="black" cx="1095.54" cy="-530" rx="44.39" ry="18"/>
<text text-anchor="middle" x="1095.54" y="-526.3" font-family="Times,serif" font-size="14.00">r sen2r</text>
</a>
</g>
</g>
<!-- r&#45;geojsonio&#45;&gt;r&#45;sen2r -->
<g id="edge42" class="edge">
<title>r&#45;geojsonio&#45;&gt;r&#45;sen2r</title>
<path fill="none" stroke="black" d="M1095.54,-583.7C1095.54,-575.98 1095.54,-566.71 1095.54,-558.11"/>
<polygon fill="black" stroke="black" points="1099.04,-558.1 1095.54,-548.1 1092.04,-558.1 1099.04,-558.1"/>
</g>
<!-- r&#45;jsonvalidate&#45;&gt;r&#45;geojsonlint -->
<g id="edge43" class="edge">
<title>r&#45;jsonvalidate&#45;&gt;r&#45;geojsonlint</title>
<path fill="none" stroke="black" d="M1276.05,-584.05C1268.19,-575.46 1258.5,-564.86 1249.85,-555.4"/>
<polygon fill="black" stroke="black" points="1252.22,-552.81 1242.89,-547.79 1247.06,-557.53 1252.22,-552.81"/>
</g>
<!-- r&#45;cffr -->
<g id="node40" class="node">
<title>r&#45;cffr</title>
<g id="a_node40"><a xlink:href="https://github.com/conda-forge/r-cffr-feedstock" xlink:title="r cffr">
<ellipse fill="#fde725" stroke="black" cx="1349.54" cy="-530" rx="34" ry="18"/>
<text text-anchor="middle" x="1349.54" y="-526.3" font-family="Times,serif" font-size="14.00">r cffr</text>
</a>
</g>
</g>
<!-- r&#45;jsonvalidate&#45;&gt;r&#45;cffr -->
<g id="edge44" class="edge">
<title>r&#45;jsonvalidate&#45;&gt;r&#45;cffr</title>
<path fill="none" stroke="black" d="M1305.58,-584.05C1312.92,-575.2 1322.01,-564.23 1330.02,-554.57"/>
<polygon fill="black" stroke="black" points="1332.74,-556.76 1336.43,-546.83 1327.35,-552.3 1332.74,-556.76"/>
</g>
<!-- r&#45;geojsonlint&#45;&gt;r&#45;rmapshaper -->
<g id="edge45" class="edge">
<title>r&#45;geojsonlint&#45;&gt;r&#45;rmapshaper</title>
<path fill="none" stroke="black" d="M1191.09,-514.67C1163.65,-503.87 1125.82,-489 1096.18,-477.34"/>
<polygon fill="black" stroke="black" points="1097.45,-474.08 1086.86,-473.68 1094.89,-480.59 1097.45,-474.08"/>
</g>
<!-- r&#45;emld -->
<g id="node41" class="node">
<title>r&#45;emld</title>
<g id="a_node41"><a xlink:href="https://github.com/conda-forge/r-emld-feedstock" xlink:title="r emld">
<ellipse fill="#fde725" stroke="black" cx="1386.54" cy="-458" rx="41" ry="18"/>
<text text-anchor="middle" x="1386.54" y="-454.3" font-family="Times,serif" font-size="14.00">r emld</text>
</a>
</g>
</g>
<!-- r&#45;jsonld&#45;&gt;r&#45;emld -->
<g id="edge46" class="edge">
<title>r&#45;jsonld&#45;&gt;r&#45;emld</title>
<path fill="none" stroke="black" d="M1433.39,-512.76C1425.62,-503.84 1415.83,-492.61 1407.21,-482.72"/>
<polygon fill="black" stroke="black" points="1409.82,-480.39 1400.61,-475.15 1404.55,-484.99 1409.82,-480.39"/>
</g>
<!-- r&#45;bibitr -->
<g id="node42" class="node">
<title>r&#45;bibitr</title>
<g id="a_node42"><a xlink:href="https://github.com/conda-forge/r-bibitr-feedstock" xlink:title="r bibitr">
<ellipse fill="#fde725" stroke="black" cx="1593.54" cy="-530" rx="44.39" ry="18"/>
<text text-anchor="middle" x="1593.54" y="-526.3" font-family="Times,serif" font-size="14.00">r bibitr</text>
</a>
</g>
</g>
<!-- r&#45;randomcolor&#45;&gt;r&#45;bibitr -->
<g id="edge47" class="edge">
<title>r&#45;randomcolor&#45;&gt;r&#45;bibitr</title>
<path fill="none" stroke="black" d="M1618.55,-584.05C1614.74,-575.97 1610.1,-566.12 1605.85,-557.11"/>
<polygon fill="black" stroke="black" points="1608.89,-555.34 1601.46,-547.79 1602.56,-558.33 1608.89,-555.34"/>
</g>
<!-- r&#45;presenter -->
<g id="node43" class="node">
<title>r&#45;presenter</title>
<g id="a_node43"><a xlink:href="https://github.com/conda-forge/r-presenter-feedstock" xlink:title="r presenter">
<ellipse fill="#fde725" stroke="black" cx="1719.54" cy="-530" rx="63.89" ry="18"/>
<text text-anchor="middle" x="1719.54" y="-526.3" font-family="Times,serif" font-size="14.00">r presenter</text>
</a>
</g>
</g>
<!-- r&#45;randomcolor&#45;&gt;r&#45;presenter -->
<g id="edge48" class="edge">
<title>r&#45;randomcolor&#45;&gt;r&#45;presenter</title>
<path fill="none" stroke="black" d="M1648.58,-584.41C1661.04,-575.04 1676.76,-563.2 1690.25,-553.05"/>
<polygon fill="black" stroke="black" points="1692.42,-555.8 1698.3,-546.99 1688.21,-550.21 1692.42,-555.8"/>
</g>
<!-- r&#45;umx -->
<g id="node44" class="node">
<title>r&#45;umx</title>
<g id="a_node44"><a xlink:href="https://github.com/conda-forge/r-umx-feedstock" xlink:title="r umx">
<ellipse fill="#fde725" stroke="black" cx="1878.54" cy="-530" rx="38.5" ry="18"/>
<text text-anchor="middle" x="1878.54" y="-526.3" font-family="Times,serif" font-size="14.00">r umx</text>
</a>
</g>
</g>
<!-- r&#45;diagrammersvg&#45;&gt;r&#45;umx -->
<g id="edge49" class="edge">
<title>r&#45;diagrammersvg&#45;&gt;r&#45;umx</title>
<path fill="none" stroke="black" d="M1924.78,-584.05C1917.06,-575.2 1907.5,-564.23 1899.08,-554.57"/>
<polygon fill="black" stroke="black" points="1901.55,-552.07 1892.34,-546.83 1896.27,-556.67 1901.55,-552.07"/>
</g>
<!-- r&#45;vtree -->
<g id="node45" class="node">
<title>r&#45;vtree</title>
<g id="a_node45"><a xlink:href="https://github.com/conda-forge/r-vtree-feedstock" xlink:title="r vtree">
<ellipse fill="#fde725" stroke="black" cx="1918.54" cy="-458" rx="42.49" ry="18"/>
<text text-anchor="middle" x="1918.54" y="-454.3" font-family="Times,serif" font-size="14.00">r vtree</text>
</a>
</g>
</g>
<!-- r&#45;diagrammersvg&#45;&gt;r&#45;vtree -->
<g id="edge50" class="edge">
<title>r&#45;diagrammersvg&#45;&gt;r&#45;vtree</title>
<path fill="none" stroke="black" d="M1937.01,-583.87C1933.43,-559.67 1926.86,-515.21 1922.59,-486.39"/>
<polygon fill="black" stroke="black" points="1926.01,-485.57 1921.08,-476.19 1919.09,-486.59 1926.01,-485.57"/>
</g>
<!-- r&#45;integr -->
<g id="node46" class="node">
<title>r&#45;integr</title>
<g id="a_node46"><a xlink:href="https://github.com/conda-forge/r-integr-feedstock" xlink:title="r integr">
<ellipse fill="#fde725" stroke="black" cx="1988.54" cy="-386" rx="46.29" ry="18"/>
<text text-anchor="middle" x="1988.54" y="-382.3" font-family="Times,serif" font-size="14.00">r integr</text>
</a>
</g>
</g>
<!-- r&#45;diagrammersvg&#45;&gt;r&#45;integr -->
<g id="edge51" class="edge">
<title>r&#45;diagrammersvg&#45;&gt;r&#45;integr</title>
<path fill="none" stroke="black" d="M1943.86,-583.64C1949.81,-559.53 1960.81,-514.52 1969.54,-476 1974.23,-455.33 1979.22,-431.88 1982.91,-414.24"/>
<polygon fill="black" stroke="black" points="1986.41,-414.59 1985.03,-404.09 1979.56,-413.17 1986.41,-414.59"/>
</g>
<!-- r&#45;dagwood -->
<g id="node47" class="node">
<title>r&#45;dagwood</title>
<g id="a_node47"><a xlink:href="https://github.com/conda-forge/r-dagwood-feedstock" xlink:title="r dagwood">
<ellipse fill="#fde725" stroke="black" cx="2062.54" cy="-242" rx="60" ry="18"/>
<text text-anchor="middle" x="2062.54" y="-238.3" font-family="Times,serif" font-size="14.00">r dagwood</text>
</a>
</g>
</g>
<!-- r&#45;dagitty&#45;&gt;r&#45;dagwood -->
<g id="edge52" class="edge">
<title>r&#45;dagitty&#45;&gt;r&#45;dagwood</title>
<path fill="none" stroke="black" d="M2062.54,-295.7C2062.54,-287.98 2062.54,-278.71 2062.54,-270.11"/>
<polygon fill="black" stroke="black" points="2066.04,-270.1 2062.54,-260.1 2059.04,-270.1 2066.04,-270.1"/>
</g>
<!-- r&#45;emld&#45;&gt;r&#45;eml -->
<g id="edge53" class="edge">
<title>r&#45;emld&#45;&gt;r&#45;eml</title>
<path fill="none" stroke="black" d="M1386.54,-439.7C1386.54,-431.98 1386.54,-422.71 1386.54,-414.11"/>
<polygon fill="black" stroke="black" points="1390.04,-414.1 1386.54,-404.1 1383.04,-414.1 1390.04,-414.1"/>
</g>
<!-- r&#45;autostats -->
<g id="node48" class="node">
<title>r&#45;autostats</title>
<g id="a_node48"><a xlink:href="https://github.com/conda-forge/r-autostats-feedstock" xlink:title="r autostats">
<ellipse fill="#fde725" stroke="black" cx="1676.54" cy="-458" rx="61.99" ry="18"/>
<text text-anchor="middle" x="1676.54" y="-454.3" font-family="Times,serif" font-size="14.00">r autostats</text>
</a>
</g>
</g>
<!-- r&#45;presenter&#45;&gt;r&#45;autostats -->
<g id="edge54" class="edge">
<title>r&#45;presenter&#45;&gt;r&#45;autostats</title>
<path fill="none" stroke="black" d="M1709.13,-512.05C1704.06,-503.8 1697.86,-493.7 1692.23,-484.54"/>
<polygon fill="black" stroke="black" points="1695.07,-482.48 1686.86,-475.79 1689.11,-486.14 1695.07,-482.48"/>
</g>
<!-- r&#45;tidyconsultant -->
<g id="node49" class="node">
<title>r&#45;tidyconsultant</title>
<g id="a_node49"><a xlink:href="https://github.com/conda-forge/r-tidyconsultant-feedstock" xlink:title="r tidyconsultant">
<ellipse fill="#fde725" stroke="black" cx="1676.54" cy="-386" rx="85.29" ry="18"/>
<text text-anchor="middle" x="1676.54" y="-382.3" font-family="Times,serif" font-size="14.00">r tidyconsultant</text>
</a>
</g>
</g>
<!-- r&#45;presenter&#45;&gt;r&#45;tidyconsultant -->
<g id="edge55" class="edge">
<title>r&#45;presenter&#45;&gt;r&#45;tidyconsultant</title>
<path fill="none" stroke="black" d="M1732.18,-512.31C1744.43,-493.96 1759.52,-463.89 1747.54,-440 1741.05,-427.05 1729.73,-416.46 1718.01,-408.24"/>
<polygon fill="black" stroke="black" points="1719.76,-405.21 1709.47,-402.68 1715.94,-411.07 1719.76,-405.21"/>
</g>
<!-- r&#45;autostats&#45;&gt;r&#45;tidyconsultant -->
<g id="edge62" class="edge">
<title>r&#45;autostats&#45;&gt;r&#45;tidyconsultant</title>
<path fill="none" stroke="black" d="M1676.54,-439.7C1676.54,-431.98 1676.54,-422.71 1676.54,-414.11"/>
<polygon fill="black" stroke="black" points="1680.04,-414.1 1676.54,-404.1 1673.04,-414.1 1680.04,-414.1"/>
</g>
<!-- r&#45;immunarch -->
<g id="node51" class="node">
<title>r&#45;immunarch</title>
<g id="a_node51"><a xlink:href="https://github.com/conda-forge/r-immunarch-feedstock" xlink:title="r immunarch">
<ellipse fill="#ff8c00" stroke="black" cx="2211.54" cy="-422" rx="71" ry="18"/>
<text text-anchor="middle" x="2211.54" y="-418.3" font-family="Times,serif" font-size="14.00">r immunarch</text>
</a>
</g>
</g>
<!-- r&#45;destinie&#45;&gt;r&#45;immunarch -->
<!-- rhumba -->
<g id="node52" class="node">
<title>rhumba</title>
<g id="a_node52"><a xlink:href="https://github.com/conda-forge/rhumba-feedstock/pull/14" xlink:title="rhumba ✓">
<ellipse fill="#31688e" stroke="black" cx="2211.54" cy="-350" rx="54" ry="18"/>
<text text-anchor="middle" x="2211.54" y="-346.3" font-family="Times,serif" font-size="14.00" fill="white">rhumba ✓</text>
</a>
</g>
</g>
<!-- r&#45;immunarch&#45;&gt;rhumba -->
<!-- r&#45;httpgd -->
<g id="node53" class="node">
<title>r&#45;httpgd</title>
<g id="a_node53"><a xlink:href="https://github.com/conda-forge/r-httpgd-feedstock/pull/1" xlink:title="r httpgd ❎">
<ellipse fill="#31688e" stroke="black" cx="2211.54" cy="-278" rx="63.89" ry="18"/>
<text text-anchor="middle" x="2211.54" y="-274.3" font-family="Times,serif" font-size="14.00" fill="white">r httpgd ❎</text>
</a>
</g>
</g>
<!-- rhumba&#45;&gt;r&#45;httpgd -->
<!-- r&#45;diversity -->
<g id="node56" class="node">
<title>r&#45;diversity</title>
<g id="a_node56"><a xlink:href="https://github.com/conda-forge/r-diversity-feedstock/pull/1" xlink:title="r diversity ✓">
<ellipse fill="#31688e" stroke="black" cx="2211.54" cy="-206" rx="66.5" ry="18"/>
<text text-anchor="middle" x="2211.54" y="-202.3" font-family="Times,serif" font-size="14.00" fill="white">r diversity ✓</text>
</a>
</g>
</g>
<!-- r&#45;httpgd&#45;&gt;r&#45;diversity -->
<!-- r&#45;mlr3verse -->
<g id="node54" class="node">
<title>r&#45;mlr3verse</title>
<g id="a_node54"><a xlink:href="https://github.com/conda-forge/r-mlr3verse-feedstock" xlink:title="r mlr3verse">
<ellipse fill="#fde725" stroke="black" cx="2211.54" cy="-18" rx="65.79" ry="18"/>
<text text-anchor="middle" x="2211.54" y="-14.3" font-family="Times,serif" font-size="14.00">r mlr3verse</text>
</a>
</g>
</g>
<!-- r&#45;mlr3proba -->
<g id="node55" class="node">
<title>r&#45;mlr3proba</title>
<g id="a_node55"><a xlink:href="https://github.com/conda-forge/r-mlr3proba-feedstock/pull/11" xlink:title="r mlr3proba ❎">
<ellipse fill="#31688e" stroke="black" cx="2211.54" cy="-90" rx="81.49" ry="18"/>
<text text-anchor="middle" x="2211.54" y="-86.3" font-family="Times,serif" font-size="14.00" fill="white">r mlr3proba ❎</text>
</a>
</g>
</g>
<!-- r&#45;mlr3proba&#45;&gt;r&#45;mlr3verse -->
<g id="edge60" class="edge">
<title>r&#45;mlr3proba&#45;&gt;r&#45;mlr3verse</title>
<path fill="none" stroke="black" d="M2211.54,-71.7C2211.54,-63.98 2211.54,-54.71 2211.54,-46.11"/>
<polygon fill="black" stroke="black" points="2215.04,-46.1 2211.54,-36.1 2208.04,-46.1 2215.04,-46.1"/>
</g>
<!-- r&#45;loon -->
<g id="node57" class="node">
<title>r&#45;loon</title>
<g id="a_node57"><a xlink:href="https://github.com/conda-forge/r-loon-feedstock/pull/1" xlink:title="r loon ❎">
<ellipse fill="#31688e" stroke="black" cx="2211.54" cy="-134" rx="52" ry="18"/>
<text text-anchor="middle" x="2211.54" y="-130.3" font-family="Times,serif" font-size="14.00" fill="white">r loon ❎</text>
</a>
</g>
</g>
<!-- r&#45;diversity&#45;&gt;r&#45;loon -->
</g>
</svg>
