<?xml version="1.0" encoding="UTF-8" standalone="no"?>
<!DOCTYPE svg PUBLIC "-//W3C//DTD SVG 1.1//EN"
 "http://www.w3.org/Graphics/SVG/1.1/DTD/svg11.dtd">
<!-- Generated by graphviz version 6.0.1 (20220911.2005)
 -->
<!-- Pages: 1 -->
<svg width="2479pt" height="664pt"
 viewBox="0.00 0.00 2478.64 664.00" xmlns="http://www.w3.org/2000/svg" xmlns:xlink="http://www.w3.org/1999/xlink">
<g id="graph0" class="graph" transform="scale(1 1) rotate(0) translate(4 660)">
<polygon fill="white" stroke="none" points="-4,4 -4,-660 2474.64,-660 2474.64,4 -4,4"/>
<!-- r&#45;eml -->
<g id="node1" class="node">
<title>r&#45;eml</title>
<g id="a_node1"><a xlink:href="https://github.com/conda-forge/r-eml-feedstock" xlink:title="r eml">
<ellipse fill="#fde725" stroke="black" cx="1386.54" cy="-314" rx="35.19" ry="18"/>
<text text-anchor="middle" x="1386.54" y="-310.3" font-family="Times,serif" font-size="14.00">r eml</text>
</a>
</g>
</g>
<!-- r&#45;finch -->
<g id="node2" class="node">
<title>r&#45;finch</title>
<g id="a_node2"><a xlink:href="https://github.com/conda-forge/r-finch-feedstock" xlink:title="r finch">
<ellipse fill="#fde725" stroke="black" cx="1386.54" cy="-242" rx="40.5" ry="18"/>
<text text-anchor="middle" x="1386.54" y="-238.3" font-family="Times,serif" font-size="14.00">r finch</text>
</a>
</g>
</g>
<!-- r&#45;eml&#45;&gt;r&#45;finch -->
<g id="edge1" class="edge">
<title>r&#45;eml&#45;&gt;r&#45;finch</title>
<path fill="none" stroke="black" d="M1386.54,-295.7C1386.54,-287.98 1386.54,-278.71 1386.54,-270.11"/>
<polygon fill="black" stroke="black" points="1390.04,-270.1 1386.54,-260.1 1383.04,-270.1 1390.04,-270.1"/>
</g>
<!-- r&#45;rstan -->
<g id="node3" class="node">
<title>r&#45;rstan</title>
<g id="a_node3"><a xlink:href="https://github.com/conda-forge/r-rstan-feedstock" xlink:title="r rstan">
<ellipse fill="#fde725" stroke="black" cx="610.54" cy="-530" rx="42.49" ry="18"/>
<text text-anchor="middle" x="610.54" y="-526.3" font-family="Times,serif" font-size="14.00">r rstan</text>
</a>
</g>
</g>
<!-- r&#45;shinystan -->
<g id="node4" class="node">
<title>r&#45;shinystan</title>
<g id="a_node4"><a xlink:href="https://github.com/conda-forge/r-shinystan-feedstock" xlink:title="r shinystan">
<ellipse fill="#fde725" stroke="black" cx="519.54" cy="-458" rx="63.09" ry="18"/>
<text text-anchor="middle" x="519.54" y="-454.3" font-family="Times,serif" font-size="14.00">r shinystan</text>
</a>
</g>
</g>
<!-- r&#45;rstan&#45;&gt;r&#45;shinystan -->
<g id="edge2" class="edge">
<title>r&#45;rstan&#45;&gt;r&#45;shinystan</title>
<path fill="none" stroke="black" d="M590.8,-513.81C578.5,-504.35 562.47,-492.02 548.72,-481.45"/>
<polygon fill="black" stroke="black" points="550.58,-478.46 540.52,-475.13 546.31,-484 550.58,-478.46"/>
</g>
<!-- r&#45;rstanarm -->
<g id="node5" class="node">
<title>r&#45;rstanarm</title>
<g id="a_node5"><a xlink:href="https://github.com/conda-forge/r-rstanarm-feedstock" xlink:title="r rstanarm">
<ellipse fill="#fde725" stroke="black" cx="435.54" cy="-386" rx="61.19" ry="18"/>
<text text-anchor="middle" x="435.54" y="-382.3" font-family="Times,serif" font-size="14.00">r rstanarm</text>
</a>
</g>
</g>
<!-- r&#45;rstan&#45;&gt;r&#45;rstanarm -->
<g id="edge3" class="edge">
<title>r&#45;rstan&#45;&gt;r&#45;rstanarm</title>
<path fill="none" stroke="black" d="M568.61,-527.34C530.96,-523.45 477.18,-511.53 447.54,-476 433.39,-459.03 431.23,-433.56 432.12,-414.22"/>
<polygon fill="black" stroke="black" points="435.61,-414.42 432.87,-404.19 428.63,-413.9 435.61,-414.42"/>
</g>
<!-- r&#45;brms -->
<g id="node6" class="node">
<title>r&#45;brms</title>
<g id="a_node6"><a xlink:href="https://github.com/conda-forge/r-brms-feedstock" xlink:title="r brms">
<ellipse fill="#fde725" stroke="black" cx="594.54" cy="-386" rx="42.49" ry="18"/>
<text text-anchor="middle" x="594.54" y="-382.3" font-family="Times,serif" font-size="14.00">r brms</text>
</a>
</g>
</g>
<!-- r&#45;rstan&#45;&gt;r&#45;brms -->
<g id="edge4" class="edge">
<title>r&#45;rstan&#45;&gt;r&#45;brms</title>
<path fill="none" stroke="black" d="M608.61,-511.87C605.89,-487.67 600.88,-443.21 597.63,-414.39"/>
<polygon fill="black" stroke="black" points="601.08,-413.73 596.48,-404.19 594.12,-414.52 601.08,-413.73"/>
</g>
<!-- r&#45;prophet -->
<g id="node7" class="node">
<title>r&#45;prophet</title>
<g id="a_node7"><a xlink:href="https://github.com/conda-forge/r-prophet-feedstock" xlink:title="r prophet">
<ellipse fill="#fde725" stroke="black" cx="250.54" cy="-458" rx="54.69" ry="18"/>
<text text-anchor="middle" x="250.54" y="-454.3" font-family="Times,serif" font-size="14.00">r prophet</text>
</a>
</g>
</g>
<!-- r&#45;rstan&#45;&gt;r&#45;prophet -->
<g id="edge5" class="edge">
<title>r&#45;rstan&#45;&gt;r&#45;prophet</title>
<path fill="none" stroke="black" d="M572.28,-521.91C518.65,-511.92 418.08,-493.02 332.54,-476 323.64,-474.23 314.21,-472.31 305.03,-470.42"/>
<polygon fill="black" stroke="black" points="305.7,-466.99 295.2,-468.39 304.29,-473.84 305.7,-466.99"/>
</g>
<!-- r&#45;metabma -->
<g id="node8" class="node">
<title>r&#45;metabma</title>
<g id="a_node8"><a xlink:href="https://github.com/conda-forge/r-metabma-feedstock" xlink:title="r metabma">
<ellipse fill="#fde725" stroke="black" cx="826.54" cy="-458" rx="61.99" ry="18"/>
<text text-anchor="middle" x="826.54" y="-454.3" font-family="Times,serif" font-size="14.00">r metabma</text>
</a>
</g>
</g>
<!-- r&#45;rstan&#45;&gt;r&#45;metabma -->
<g id="edge6" class="edge">
<title>r&#45;rstan&#45;&gt;r&#45;metabma</title>
<path fill="none" stroke="black" d="M643.35,-518.37C678.97,-506.83 736.25,-488.26 777.28,-474.97"/>
<polygon fill="black" stroke="black" points="778.38,-478.29 786.81,-471.88 776.22,-471.63 778.38,-478.29"/>
</g>
<!-- r&#45;rlgt -->
<g id="node9" class="node">
<title>r&#45;rlgt</title>
<g id="a_node9"><a xlink:href="https://github.com/conda-forge/r-rlgt-feedstock" xlink:title="r rlgt">
<ellipse fill="#fde725" stroke="black" cx="711.54" cy="-458" rx="35.19" ry="18"/>
<text text-anchor="middle" x="711.54" y="-454.3" font-family="Times,serif" font-size="14.00">r rlgt</text>
</a>
</g>
</g>
<!-- r&#45;rstan&#45;&gt;r&#45;rlgt -->
<g id="edge7" class="edge">
<title>r&#45;rstan&#45;&gt;r&#45;rlgt</title>
<path fill="none" stroke="black" d="M631.96,-514.15C646.81,-503.86 666.76,-490.04 682.97,-478.81"/>
<polygon fill="black" stroke="black" points="685.3,-481.44 691.53,-472.87 681.32,-475.69 685.3,-481.44"/>
</g>
<!-- r&#45;bayesforecast -->
<g id="node10" class="node">
<title>r&#45;bayesforecast</title>
<g id="a_node10"><a xlink:href="https://github.com/conda-forge/r-bayesforecast-feedstock" xlink:title="r bayesforecast">
<ellipse fill="#fde725" stroke="black" cx="82.54" cy="-386" rx="82.59" ry="18"/>
<text text-anchor="middle" x="82.54" y="-382.3" font-family="Times,serif" font-size="14.00">r bayesforecast</text>
</a>
</g>
</g>
<!-- r&#45;rstan&#45;&gt;r&#45;bayesforecast -->
<g id="edge8" class="edge">
<title>r&#45;rstan&#45;&gt;r&#45;bayesforecast</title>
<path fill="none" stroke="black" d="M568.64,-526.83C475.57,-521.51 254.48,-506.02 186.54,-476 153.2,-461.27 122.47,-432.23 103.2,-411.33"/>
<polygon fill="black" stroke="black" points="105.68,-408.85 96.39,-403.76 100.48,-413.54 105.68,-408.85"/>
</g>
<!-- r&#45;stanova -->
<g id="node11" class="node">
<title>r&#45;stanova</title>
<g id="a_node11"><a xlink:href="https://github.com/conda-forge/r-stanova-feedstock" xlink:title="r stanova">
<ellipse fill="#fde725" stroke="black" cx="903.54" cy="-386" rx="54" ry="18"/>
<text text-anchor="middle" x="903.54" y="-382.3" font-family="Times,serif" font-size="14.00">r stanova</text>
</a>
</g>
</g>
<!-- r&#45;rstan&#45;&gt;r&#45;stanova -->
<g id="edge9" class="edge">
<title>r&#45;rstan&#45;&gt;r&#45;stanova</title>
<path fill="none" stroke="black" d="M652.4,-527.37C724.06,-523.63 865.65,-511.8 897.54,-476 912.3,-459.44 912.42,-433.54 909.66,-413.94"/>
<polygon fill="black" stroke="black" points="913.11,-413.34 907.97,-404.08 906.21,-414.53 913.11,-413.34"/>
</g>
<!-- jasp -->
<g id="node12" class="node">
<title>jasp</title>
<g id="a_node12"><a xlink:href="https://github.com/conda-forge/jasp-feedstock" xlink:title="jasp">
<ellipse fill="#fde725" stroke="black" cx="664.54" cy="-314" rx="30" ry="18"/>
<text text-anchor="middle" x="664.54" y="-310.3" font-family="Times,serif" font-size="14.00">jasp</text>
</a>
</g>
</g>
<!-- r&#45;rstan&#45;&gt;jasp -->
<g id="edge10" class="edge">
<title>r&#45;rstan&#45;&gt;jasp</title>
<path fill="none" stroke="black" d="M615.64,-512.11C622.77,-488.17 635.94,-442.95 645.54,-404 650.62,-383.42 655.59,-359.97 659.17,-342.31"/>
<polygon fill="black" stroke="black" points="662.68,-342.63 661.22,-332.13 655.82,-341.25 662.68,-342.63"/>
</g>
<!-- r&#45;densestbayes -->
<g id="node13" class="node">
<title>r&#45;densestbayes</title>
<g id="a_node13"><a xlink:href="https://github.com/conda-forge/r-densestbayes-feedstock" xlink:title="r densestbayes">
<ellipse fill="#fde725" stroke="black" cx="302.54" cy="-314" rx="81.49" ry="18"/>
<text text-anchor="middle" x="302.54" y="-310.3" font-family="Times,serif" font-size="14.00">r densestbayes</text>
</a>
</g>
</g>
<!-- r&#45;rstan&#45;&gt;r&#45;densestbayes -->
<g id="edge11" class="edge">
<title>r&#45;rstan&#45;&gt;r&#45;densestbayes</title>
<path fill="none" stroke="black" d="M570.49,-523.81C531.95,-517.38 473.25,-503.68 429.54,-476 375.84,-441.99 335.27,-377.11 315.64,-340.96"/>
<polygon fill="black" stroke="black" points="318.66,-339.19 310.88,-332 312.48,-342.47 318.66,-339.19"/>
</g>
<!-- r&#45;shinystan&#45;&gt;r&#45;rstanarm -->
<g id="edge12" class="edge">
<title>r&#45;shinystan&#45;&gt;r&#45;rstanarm</title>
<path fill="none" stroke="black" d="M500.06,-440.76C488.93,-431.49 474.8,-419.71 462.6,-409.55"/>
<polygon fill="black" stroke="black" points="464.84,-406.86 454.92,-403.15 460.36,-412.24 464.84,-406.86"/>
</g>
<!-- r&#45;shinystan&#45;&gt;r&#45;brms -->
<g id="edge13" class="edge">
<title>r&#45;shinystan&#45;&gt;r&#45;brms</title>
<path fill="none" stroke="black" d="M537.32,-440.41C547.15,-431.24 559.5,-419.7 570.22,-409.7"/>
<polygon fill="black" stroke="black" points="572.75,-412.13 577.67,-402.75 567.97,-407.01 572.75,-412.13"/>
</g>
<!-- r&#45;shinystan&#45;&gt;jasp -->
<g id="edge14" class="edge">
<title>r&#45;shinystan&#45;&gt;jasp</title>
<path fill="none" stroke="black" d="M519.88,-439.9C521.15,-420.34 526,-388.38 543.54,-368 564.7,-343.42 599.41,-329.82 626.24,-322.57"/>
<polygon fill="black" stroke="black" points="627.25,-325.93 636.1,-320.1 625.55,-319.14 627.25,-325.93"/>
</g>
<!-- r&#45;rstanarm&#45;&gt;jasp -->
<g id="edge15" class="edge">
<title>r&#45;rstanarm&#45;&gt;jasp</title>
<path fill="none" stroke="black" d="M476.22,-372.57C519.56,-359.32 587.5,-338.55 628.83,-325.92"/>
<polygon fill="black" stroke="black" points="629.95,-329.24 638.49,-322.96 627.9,-322.54 629.95,-329.24"/>
</g>
<!-- r&#45;tidyposterior -->
<g id="node14" class="node">
<title>r&#45;tidyposterior</title>
<g id="a_node14"><a xlink:href="https://github.com/conda-forge/r-tidyposterior-feedstock" xlink:title="r tidyposterior">
<ellipse fill="#fde725" stroke="black" cx="480.54" cy="-314" rx="78.79" ry="18"/>
<text text-anchor="middle" x="480.54" y="-310.3" font-family="Times,serif" font-size="14.00">r tidyposterior</text>
</a>
</g>
</g>
<!-- r&#45;rstanarm&#45;&gt;r&#45;tidyposterior -->
<g id="edge16" class="edge">
<title>r&#45;rstanarm&#45;&gt;r&#45;tidyposterior</title>
<path fill="none" stroke="black" d="M446.44,-368.05C451.66,-359.92 458.04,-350 463.87,-340.94"/>
<polygon fill="black" stroke="black" points="466.97,-342.58 469.44,-332.28 461.09,-338.79 466.97,-342.58"/>
</g>
<!-- r&#45;prophet&#45;&gt;r&#45;bayesforecast -->
<g id="edge17" class="edge">
<title>r&#45;prophet&#45;&gt;r&#45;bayesforecast</title>
<path fill="none" stroke="black" d="M218.15,-443.5C192.71,-432.9 156.95,-418 128.54,-406.17"/>
<polygon fill="black" stroke="black" points="129.79,-402.9 119.22,-402.28 127.1,-409.36 129.79,-402.9"/>
</g>
<!-- r&#45;modeltime -->
<g id="node15" class="node">
<title>r&#45;modeltime</title>
<g id="a_node15"><a xlink:href="https://github.com/conda-forge/r-modeltime-feedstock" xlink:title="r modeltime">
<ellipse fill="#fde725" stroke="black" cx="250.54" cy="-386" rx="67.69" ry="18"/>
<text text-anchor="middle" x="250.54" y="-382.3" font-family="Times,serif" font-size="14.00">r modeltime</text>
</a>
</g>
</g>
<!-- r&#45;prophet&#45;&gt;r&#45;modeltime -->
<g id="edge18" class="edge">
<title>r&#45;prophet&#45;&gt;r&#45;modeltime</title>
<path fill="none" stroke="black" d="M250.54,-439.7C250.54,-431.98 250.54,-422.71 250.54,-414.11"/>
<polygon fill="black" stroke="black" points="254.04,-414.1 250.54,-404.1 247.04,-414.1 254.04,-414.1"/>
</g>
<!-- r&#45;metabma&#45;&gt;jasp -->
<g id="edge19" class="edge">
<title>r&#45;metabma&#45;&gt;jasp</title>
<path fill="none" stroke="black" d="M826.14,-439.75C824.78,-420.05 819.68,-387.95 801.54,-368 776.19,-340.11 734.45,-326.76 703.69,-320.45"/>
<polygon fill="black" stroke="black" points="704.2,-316.99 693.72,-318.57 702.9,-323.87 704.2,-316.99"/>
</g>
<!-- r&#45;tidybf -->
<g id="node16" class="node">
<title>r&#45;tidybf</title>
<g id="a_node16"><a xlink:href="https://github.com/conda-forge/r-tidybf-feedstock" xlink:title="r tidybf">
<ellipse fill="#fde725" stroke="black" cx="747.54" cy="-386" rx="45.5" ry="18"/>
<text text-anchor="middle" x="747.54" y="-382.3" font-family="Times,serif" font-size="14.00">r tidybf</text>
</a>
</g>
</g>
<!-- r&#45;metabma&#45;&gt;r&#45;tidybf -->
<g id="edge20" class="edge">
<title>r&#45;metabma&#45;&gt;r&#45;tidybf</title>
<path fill="none" stroke="black" d="M808.22,-440.76C797.7,-431.45 784.34,-419.61 772.83,-409.41"/>
<polygon fill="black" stroke="black" points="775.03,-406.68 765.22,-402.67 770.39,-411.92 775.03,-406.68"/>
</g>
<!-- r&#45;stanova&#45;&gt;jasp -->
<g id="edge21" class="edge">
<title>r&#45;stanova&#45;&gt;jasp</title>
<path fill="none" stroke="black" d="M864.34,-373.52C818.89,-360.21 744.57,-338.44 700.53,-325.54"/>
<polygon fill="black" stroke="black" points="701.4,-322.15 690.82,-322.7 699.43,-328.87 701.4,-322.15"/>
</g>
<!-- r&#45;reldist -->
<g id="node17" class="node">
<title>r&#45;reldist</title>
<g id="a_node17"><a xlink:href="https://github.com/conda-forge/r-reldist-feedstock" xlink:title="r reldist">
<ellipse fill="#fde725" stroke="black" cx="302.54" cy="-242" rx="48.19" ry="18"/>
<text text-anchor="middle" x="302.54" y="-238.3" font-family="Times,serif" font-size="14.00">r reldist</text>
</a>
</g>
</g>
<!-- r&#45;densestbayes&#45;&gt;r&#45;reldist -->
<g id="edge22" class="edge">
<title>r&#45;densestbayes&#45;&gt;r&#45;reldist</title>
<path fill="none" stroke="black" d="M302.54,-295.7C302.54,-287.98 302.54,-278.71 302.54,-270.11"/>
<polygon fill="black" stroke="black" points="306.04,-270.1 302.54,-260.1 299.04,-270.1 306.04,-270.1"/>
</g>
<!-- r&#45;sparklyr -->
<g id="node18" class="node">
<title>r&#45;sparklyr</title>
<g id="a_node18"><a xlink:href="https://github.com/conda-forge/r-sparklyr-feedstock/pull/42" xlink:title="r sparklyr ❎">
<ellipse fill="#31688e" stroke="black" cx="2369.54" cy="-458" rx="71" ry="18"/>
<text text-anchor="middle" x="2369.54" y="-454.3" font-family="Times,serif" font-size="14.00" fill="white">r sparklyr ❎</text>
</a>
</g>
</g>
<!-- r&#45;sparktf -->
<g id="node19" class="node">
<title>r&#45;sparktf</title>
<g id="a_node19"><a xlink:href="https://github.com/conda-forge/r-sparktf-feedstock" xlink:title="r sparktf">
<ellipse fill="#fde725" stroke="black" cx="2329.54" cy="-386" rx="51.5" ry="18"/>
<text text-anchor="middle" x="2329.54" y="-382.3" font-family="Times,serif" font-size="14.00">r sparktf</text>
</a>
</g>
</g>
<!-- r&#45;sparklyr&#45;&gt;r&#45;sparktf -->
<g id="edge23" class="edge">
<title>r&#45;sparklyr&#45;&gt;r&#45;sparktf</title>
<path fill="none" stroke="black" d="M2359.86,-440.05C2355.14,-431.8 2349.37,-421.7 2344.14,-412.54"/>
<polygon fill="black" stroke="black" points="2347.14,-410.73 2339.14,-403.79 2341.06,-414.21 2347.14,-410.73"/>
</g>
<!-- r&#45;sparkxgb -->
<g id="node20" class="node">
<title>r&#45;sparkxgb</title>
<g id="a_node20"><a xlink:href="https://github.com/conda-forge/r-sparkxgb-feedstock" xlink:title="r sparkxgb">
<ellipse fill="#fde725" stroke="black" cx="2409.54" cy="-314" rx="61.19" ry="18"/>
<text text-anchor="middle" x="2409.54" y="-310.3" font-family="Times,serif" font-size="14.00">r sparkxgb</text>
</a>
</g>
</g>
<!-- r&#45;sparklyr&#45;&gt;r&#45;sparkxgb -->
<g id="edge24" class="edge">
<title>r&#45;sparklyr&#45;&gt;r&#45;sparkxgb</title>
<path fill="none" stroke="black" d="M2377.09,-440.07C2381.46,-429.79 2386.82,-416.32 2390.54,-404 2396.71,-383.62 2401.65,-360.02 2404.95,-342.25"/>
<polygon fill="black" stroke="black" points="2408.41,-342.74 2406.74,-332.28 2401.52,-341.5 2408.41,-342.74"/>
</g>
<!-- r&#45;tfdatasets -->
<g id="node21" class="node">
<title>r&#45;tfdatasets</title>
<g id="a_node21"><a xlink:href="https://github.com/conda-forge/r-tfdatasets-feedstock" xlink:title="r tfdatasets">
<ellipse fill="#fde725" stroke="black" cx="1061.54" cy="-18" rx="65" ry="18"/>
<text text-anchor="middle" x="1061.54" y="-14.3" font-family="Times,serif" font-size="14.00">r tfdatasets</text>
</a>
</g>
</g>
<!-- r&#45;tfestimators -->
<g id="node22" class="node">
<title>r&#45;tfestimators</title>
<g id="a_node22"><a xlink:href="https://github.com/conda-forge/r-tfestimators-feedstock/pull/7" xlink:title="r tfestimators ❎">
<ellipse fill="#31688e" stroke="black" cx="1061.54" cy="-90" rx="89.08" ry="18"/>
<text text-anchor="middle" x="1061.54" y="-86.3" font-family="Times,serif" font-size="14.00" fill="white">r tfestimators ❎</text>
</a>
</g>
</g>
<!-- r&#45;tfestimators&#45;&gt;r&#45;tfdatasets -->
<g id="edge25" class="edge">
<title>r&#45;tfestimators&#45;&gt;r&#45;tfdatasets</title>
<path fill="none" stroke="black" d="M1061.54,-71.7C1061.54,-63.98 1061.54,-54.71 1061.54,-46.11"/>
<polygon fill="black" stroke="black" points="1065.04,-46.1 1061.54,-36.1 1058.04,-46.1 1065.04,-46.1"/>
</g>
<!-- r&#45;xtensor -->
<g id="node23" class="node">
<title>r&#45;xtensor</title>
<g id="a_node23"><a xlink:href="https://github.com/conda-forge/r-xtensor-feedstock/pull/20" xlink:title="r xtensor ✓">
<ellipse fill="#31688e" stroke="black" cx="2200.54" cy="-638" rx="60.5" ry="18"/>
<text text-anchor="middle" x="2200.54" y="-634.3" font-family="Times,serif" font-size="14.00" fill="white">r xtensor ✓</text>
</a>
</g>
</g>
<!-- yggdrasil -->
<g id="node24" class="node">
<title>yggdrasil</title>
<g id="a_node24"><a xlink:href="https://github.com/conda-forge/yggdrasil-feedstock/pull/36" xlink:title="yggdrasil ❎">
<ellipse fill="#31688e" stroke="black" cx="2200.54" cy="-566" rx="68.49" ry="18"/>
<text text-anchor="middle" x="2200.54" y="-562.3" font-family="Times,serif" font-size="14.00" fill="white">yggdrasil ❎</text>
</a>
</g>
</g>
<!-- r&#45;xtensor&#45;&gt;yggdrasil -->
<!-- r&#45;mlflow -->
<g id="node25" class="node">
<title>r&#45;mlflow</title>
<g id="a_node25"><a xlink:href="https://github.com/conda-forge/r-mlflow-feedstock/pull/36" xlink:title="r mlflow ❎">
<ellipse fill="#31688e" stroke="black" cx="2200.54" cy="-494" rx="63.09" ry="18"/>
<text text-anchor="middle" x="2200.54" y="-490.3" font-family="Times,serif" font-size="14.00" fill="white">r mlflow ❎</text>
</a>
</g>
</g>
<!-- yggdrasil&#45;&gt;r&#45;mlflow -->
<!-- r&#45;destinie -->
<g id="node49" class="node">
<title>r&#45;destinie</title>
<g id="a_node49"><a xlink:href="https://github.com/conda-forge/r-destinie-feedstock/pull/6" xlink:title="r destinie ❎">
<ellipse fill="#31688e" stroke="black" cx="2200.54" cy="-422" rx="69.59" ry="18"/>
<text text-anchor="middle" x="2200.54" y="-418.3" font-family="Times,serif" font-size="14.00" fill="white">r destinie ❎</text>
</a>
</g>
</g>
<!-- r&#45;mlflow&#45;&gt;r&#45;destinie -->
<!-- r&#45;v8 -->
<g id="node26" class="node">
<title>r&#45;v8</title>
<g id="a_node26"><a xlink:href="https://github.com/conda-forge/r-v8-feedstock/pull/30" xlink:title="r v8 ❎">
<ellipse fill="#31688e" stroke="black" cx="1451.54" cy="-602" rx="43.59" ry="18"/>
<text text-anchor="middle" x="1451.54" y="-598.3" font-family="Times,serif" font-size="14.00" fill="white">r v8 ❎</text>
</a>
</g>
</g>
<!-- r&#45;v8&#45;&gt;r&#45;rstan -->
<g id="edge28" class="edge">
<title>r&#45;v8&#45;&gt;r&#45;rstan</title>
<path fill="none" stroke="black" d="M1409.26,-597.48C1268.44,-585.76 815.56,-548.06 662.02,-535.28"/>
<polygon fill="black" stroke="black" points="662.17,-531.79 651.91,-534.44 661.59,-538.76 662.17,-531.79"/>
</g>
<!-- r&#45;rmapshaper -->
<g id="node27" class="node">
<title>r&#45;rmapshaper</title>
<g id="a_node27"><a xlink:href="https://github.com/conda-forge/r-rmapshaper-feedstock" xlink:title="r rmapshaper">
<ellipse fill="#fde725" stroke="black" cx="1049.54" cy="-386" rx="74.19" ry="18"/>
<text text-anchor="middle" x="1049.54" y="-382.3" font-family="Times,serif" font-size="14.00">r rmapshaper</text>
</a>
</g>
</g>
<!-- r&#45;v8&#45;&gt;r&#45;rmapshaper -->
<g id="edge29" class="edge">
<title>r&#45;v8&#45;&gt;r&#45;rmapshaper</title>
<path fill="none" stroke="black" d="M1408.59,-598.84C1305.31,-593.21 1049.74,-576.51 1024.54,-548 991.5,-510.6 1015.87,-448.29 1034.22,-413.16"/>
<polygon fill="black" stroke="black" points="1037.49,-414.48 1039.18,-404.02 1031.33,-411.14 1037.49,-414.48"/>
</g>
<!-- r&#45;geojsonio -->
<g id="node28" class="node">
<title>r&#45;geojsonio</title>
<g id="a_node28"><a xlink:href="https://github.com/conda-forge/r-geojsonio-feedstock" xlink:title="r geojsonio">
<ellipse fill="#fde725" stroke="black" cx="1095.54" cy="-530" rx="61.99" ry="18"/>
<text text-anchor="middle" x="1095.54" y="-526.3" font-family="Times,serif" font-size="14.00">r geojsonio</text>
</a>
</g>
</g>
<!-- r&#45;v8&#45;&gt;r&#45;geojsonio -->
<g id="edge30" class="edge">
<title>r&#45;v8&#45;&gt;r&#45;geojsonio</title>
<path fill="none" stroke="black" d="M1412.64,-593.78C1359.16,-583.8 1259.95,-565.07 1175.54,-548 1168.46,-546.57 1161.04,-545.03 1153.68,-543.49"/>
<polygon fill="black" stroke="black" points="1154.24,-540.04 1143.74,-541.4 1152.8,-546.89 1154.24,-540.04"/>
</g>
<!-- r&#45;jsonvalidate -->
<g id="node29" class="node">
<title>r&#45;jsonvalidate</title>
<g id="a_node29"><a xlink:href="https://github.com/conda-forge/r-jsonvalidate-feedstock" xlink:title="r jsonvalidate">
<ellipse fill="#fde725" stroke="black" cx="1291.54" cy="-530" rx="74.19" ry="18"/>
<text text-anchor="middle" x="1291.54" y="-526.3" font-family="Times,serif" font-size="14.00">r jsonvalidate</text>
</a>
</g>
</g>
<!-- r&#45;v8&#45;&gt;r&#45;jsonvalidate -->
<g id="edge31" class="edge">
<title>r&#45;v8&#45;&gt;r&#45;jsonvalidate</title>
<path fill="none" stroke="black" d="M1422.57,-588.32C1398.24,-577.68 1363.11,-562.31 1335.34,-550.16"/>
<polygon fill="black" stroke="black" points="1336.43,-546.82 1325.86,-546.01 1333.62,-553.23 1336.43,-546.82"/>
</g>
<!-- r&#45;geojsonlint -->
<g id="node30" class="node">
<title>r&#45;geojsonlint</title>
<g id="a_node30"><a xlink:href="https://github.com/conda-forge/r-geojsonlint-feedstock" xlink:title="r geojsonlint">
<ellipse fill="#fde725" stroke="black" cx="1227.54" cy="-458" rx="69.59" ry="18"/>
<text text-anchor="middle" x="1227.54" y="-454.3" font-family="Times,serif" font-size="14.00">r geojsonlint</text>
</a>
</g>
</g>
<!-- r&#45;v8&#45;&gt;r&#45;geojsonlint -->
<g id="edge32" class="edge">
<title>r&#45;v8&#45;&gt;r&#45;geojsonlint</title>
<path fill="none" stroke="black" d="M1409.06,-597.99C1346.23,-592.56 1233.26,-578.69 1208.54,-548 1194.23,-530.23 1202.11,-504.2 1211.69,-484.87"/>
<polygon fill="black" stroke="black" points="1214.82,-486.46 1216.45,-475.99 1208.64,-483.16 1214.82,-486.46"/>
</g>
<!-- r&#45;daff -->
<g id="node31" class="node">
<title>r&#45;daff</title>
<g id="a_node31"><a xlink:href="https://github.com/conda-forge/r-daff-feedstock" xlink:title="r daff">
<ellipse fill="#fde725" stroke="black" cx="1419.54" cy="-530" rx="36" ry="18"/>
<text text-anchor="middle" x="1419.54" y="-526.3" font-family="Times,serif" font-size="14.00">r daff</text>
</a>
</g>
</g>
<!-- r&#45;v8&#45;&gt;r&#45;daff -->
<g id="edge33" class="edge">
<title>r&#45;v8&#45;&gt;r&#45;daff</title>
<path fill="none" stroke="black" d="M1443.8,-584.05C1440.1,-575.97 1435.6,-566.12 1431.48,-557.11"/>
<polygon fill="black" stroke="black" points="1434.56,-555.43 1427.22,-547.79 1428.19,-558.34 1434.56,-555.43"/>
</g>
<!-- r&#45;jsonld -->
<g id="node32" class="node">
<title>r&#45;jsonld</title>
<g id="a_node32"><a xlink:href="https://github.com/conda-forge/r-jsonld-feedstock" xlink:title="r jsonld">
<ellipse fill="#fde725" stroke="black" cx="1447.54" cy="-458" rx="46.29" ry="18"/>
<text text-anchor="middle" x="1447.54" y="-454.3" font-family="Times,serif" font-size="14.00">r jsonld</text>
</a>
</g>
</g>
<!-- r&#45;v8&#45;&gt;r&#45;jsonld -->
<g id="edge34" class="edge">
<title>r&#45;v8&#45;&gt;r&#45;jsonld</title>
<path fill="none" stroke="black" d="M1457.1,-583.92C1462.21,-565.99 1468.45,-536.99 1464.54,-512 1463.16,-503.18 1460.56,-493.82 1457.8,-485.46"/>
<polygon fill="black" stroke="black" points="1461.05,-484.13 1454.43,-475.86 1454.45,-486.45 1461.05,-484.13"/>
</g>
<!-- r&#45;concaveman -->
<g id="node33" class="node">
<title>r&#45;concaveman</title>
<g id="a_node33"><a xlink:href="https://github.com/conda-forge/r-concaveman-feedstock" xlink:title="r concaveman">
<ellipse fill="#fde725" stroke="black" cx="1521.54" cy="-386" rx="75.5" ry="18"/>
<text text-anchor="middle" x="1521.54" y="-382.3" font-family="Times,serif" font-size="14.00">r concaveman</text>
</a>
</g>
</g>
<!-- r&#45;v8&#45;&gt;r&#45;concaveman -->
<g id="edge35" class="edge">
<title>r&#45;v8&#45;&gt;r&#45;concaveman</title>
<path fill="none" stroke="black" d="M1461.41,-584.19C1467.17,-573.95 1474.3,-560.47 1479.54,-548 1498.44,-503.01 1510.68,-447.3 1516.83,-414.6"/>
<polygon fill="black" stroke="black" points="1520.33,-414.91 1518.68,-404.45 1513.44,-413.66 1520.33,-414.91"/>
</g>
<!-- r&#45;randomcolor -->
<g id="node34" class="node">
<title>r&#45;randomcolor</title>
<g id="a_node34"><a xlink:href="https://github.com/conda-forge/r-randomcolor-feedstock" xlink:title="r randomcolor">
<ellipse fill="#fde725" stroke="black" cx="1626.54" cy="-530" rx="76.89" ry="18"/>
<text text-anchor="middle" x="1626.54" y="-526.3" font-family="Times,serif" font-size="14.00">r randomcolor</text>
</a>
</g>
</g>
<!-- r&#45;v8&#45;&gt;r&#45;randomcolor -->
<g id="edge36" class="edge">
<title>r&#45;v8&#45;&gt;r&#45;randomcolor</title>
<path fill="none" stroke="black" d="M1481.63,-588.97C1508.73,-578.13 1548.98,-562.02 1580.19,-549.54"/>
<polygon fill="black" stroke="black" points="1581.58,-552.75 1589.57,-545.79 1578.98,-546.26 1581.58,-552.75"/>
</g>
<!-- r&#45;dot -->
<g id="node35" class="node">
<title>r&#45;dot</title>
<g id="a_node35"><a xlink:href="https://github.com/conda-forge/r-dot-feedstock" xlink:title="r dot">
<ellipse fill="#fde725" stroke="black" cx="1812.54" cy="-314" rx="33.29" ry="18"/>
<text text-anchor="middle" x="1812.54" y="-310.3" font-family="Times,serif" font-size="14.00">r dot</text>
</a>
</g>
</g>
<!-- r&#45;v8&#45;&gt;r&#45;dot -->
<g id="edge37" class="edge">
<title>r&#45;v8&#45;&gt;r&#45;dot</title>
<path fill="none" stroke="black" d="M1494.93,-599.15C1548.65,-595.33 1641.72,-583.67 1712.54,-548 1755.26,-526.48 1770.42,-518.41 1792.54,-476 1814.78,-433.37 1816.25,-376.01 1814.77,-342.51"/>
<polygon fill="black" stroke="black" points="1818.24,-341.91 1814.18,-332.12 1811.25,-342.31 1818.24,-341.91"/>
</g>
<!-- r&#45;diagrammersvg -->
<g id="node36" class="node">
<title>r&#45;diagrammersvg</title>
<g id="a_node36"><a xlink:href="https://github.com/conda-forge/r-diagrammersvg-feedstock" xlink:title="r diagrammersvg">
<ellipse fill="#fde725" stroke="black" cx="1939.54" cy="-530" rx="91" ry="18"/>
<text text-anchor="middle" x="1939.54" y="-526.3" font-family="Times,serif" font-size="14.00">r diagrammersvg</text>
</a>
</g>
</g>
<!-- r&#45;v8&#45;&gt;r&#45;diagrammersvg -->
<g id="edge38" class="edge">
<title>r&#45;v8&#45;&gt;r&#45;diagrammersvg</title>
<path fill="none" stroke="black" d="M1492.23,-595.33C1560.95,-585.74 1704.35,-565.62 1825.54,-548 1836.49,-546.41 1848.03,-544.71 1859.4,-543.03"/>
<polygon fill="black" stroke="black" points="1859.94,-546.48 1869.32,-541.55 1858.91,-539.56 1859.94,-546.48"/>
</g>
<!-- r&#45;dagitty -->
<g id="node37" class="node">
<title>r&#45;dagitty</title>
<g id="a_node37"><a xlink:href="https://github.com/conda-forge/r-dagitty-feedstock" xlink:title="r dagitty">
<ellipse fill="#fde725" stroke="black" cx="2062.54" cy="-242" rx="51.5" ry="18"/>
<text text-anchor="middle" x="2062.54" y="-238.3" font-family="Times,serif" font-size="14.00">r dagitty</text>
</a>
</g>
</g>
<!-- r&#45;v8&#45;&gt;r&#45;dagitty -->
<g id="edge39" class="edge">
<title>r&#45;v8&#45;&gt;r&#45;dagitty</title>
<path fill="none" stroke="black" d="M1494.92,-599.93C1623.83,-596.37 1998.23,-583.07 2039.54,-548 2070.69,-521.56 2062.54,-499.86 2062.54,-459 2062.54,-459 2062.54,-459 2062.54,-385 2062.54,-345 2062.54,-298.65 2062.54,-270.08"/>
<polygon fill="black" stroke="black" points="2066.04,-270.05 2062.54,-260.05 2059.04,-270.05 2066.04,-270.05"/>
</g>
<!-- r&#45;geojsonio&#45;&gt;r&#45;rmapshaper -->
<g id="edge40" class="edge">
<title>r&#45;geojsonio&#45;&gt;r&#45;rmapshaper</title>
<path fill="none" stroke="black" d="M1072.73,-513.15C1061.35,-503.81 1048.72,-490.91 1042.54,-476 1034.37,-456.28 1037.02,-432.01 1041.21,-413.81"/>
<polygon fill="black" stroke="black" points="1044.6,-414.68 1043.71,-404.12 1037.82,-412.93 1044.6,-414.68"/>
</g>
<!-- r&#45;sen2r -->
<g id="node38" class="node">
<title>r&#45;sen2r</title>
<g id="a_node38"><a xlink:href="https://github.com/conda-forge/r-sen2r-feedstock" xlink:title="r sen2r">
<ellipse fill="#fde725" stroke="black" cx="1095.54" cy="-458" rx="44.39" ry="18"/>
<text text-anchor="middle" x="1095.54" y="-454.3" font-family="Times,serif" font-size="14.00">r sen2r</text>
</a>
</g>
</g>
<!-- r&#45;geojsonio&#45;&gt;r&#45;sen2r -->
<g id="edge41" class="edge">
<title>r&#45;geojsonio&#45;&gt;r&#45;sen2r</title>
<path fill="none" stroke="black" d="M1095.54,-511.7C1095.54,-503.98 1095.54,-494.71 1095.54,-486.11"/>
<polygon fill="black" stroke="black" points="1099.04,-486.1 1095.54,-476.1 1092.04,-486.1 1099.04,-486.1"/>
</g>
<!-- r&#45;jsonvalidate&#45;&gt;r&#45;geojsonlint -->
<g id="edge42" class="edge">
<title>r&#45;jsonvalidate&#45;&gt;r&#45;geojsonlint</title>
<path fill="none" stroke="black" d="M1276.05,-512.05C1268.19,-503.46 1258.5,-492.86 1249.85,-483.4"/>
<polygon fill="black" stroke="black" points="1252.22,-480.81 1242.89,-475.79 1247.06,-485.53 1252.22,-480.81"/>
</g>
<!-- r&#45;cffr -->
<g id="node39" class="node">
<title>r&#45;cffr</title>
<g id="a_node39"><a xlink:href="https://github.com/conda-forge/r-cffr-feedstock" xlink:title="r cffr">
<ellipse fill="#fde725" stroke="black" cx="1349.54" cy="-458" rx="34" ry="18"/>
<text text-anchor="middle" x="1349.54" y="-454.3" font-family="Times,serif" font-size="14.00">r cffr</text>
</a>
</g>
</g>
<!-- r&#45;jsonvalidate&#45;&gt;r&#45;cffr -->
<g id="edge43" class="edge">
<title>r&#45;jsonvalidate&#45;&gt;r&#45;cffr</title>
<path fill="none" stroke="black" d="M1305.58,-512.05C1312.92,-503.2 1322.01,-492.23 1330.02,-482.57"/>
<polygon fill="black" stroke="black" points="1332.74,-484.76 1336.43,-474.83 1327.35,-480.3 1332.74,-484.76"/>
</g>
<!-- r&#45;geojsonlint&#45;&gt;r&#45;rmapshaper -->
<g id="edge44" class="edge">
<title>r&#45;geojsonlint&#45;&gt;r&#45;rmapshaper</title>
<path fill="none" stroke="black" d="M1191.09,-442.67C1163.65,-431.87 1125.82,-417 1096.18,-405.34"/>
<polygon fill="black" stroke="black" points="1097.45,-402.08 1086.86,-401.68 1094.89,-408.59 1097.45,-402.08"/>
</g>
<!-- r&#45;emld -->
<g id="node40" class="node">
<title>r&#45;emld</title>
<g id="a_node40"><a xlink:href="https://github.com/conda-forge/r-emld-feedstock" xlink:title="r emld">
<ellipse fill="#fde725" stroke="black" cx="1386.54" cy="-386" rx="41" ry="18"/>
<text text-anchor="middle" x="1386.54" y="-382.3" font-family="Times,serif" font-size="14.00">r emld</text>
</a>
</g>
</g>
<!-- r&#45;jsonld&#45;&gt;r&#45;emld -->
<g id="edge45" class="edge">
<title>r&#45;jsonld&#45;&gt;r&#45;emld</title>
<path fill="none" stroke="black" d="M1433.39,-440.76C1425.62,-431.84 1415.83,-420.61 1407.21,-410.72"/>
<polygon fill="black" stroke="black" points="1409.82,-408.39 1400.61,-403.15 1404.55,-412.99 1409.82,-408.39"/>
</g>
<!-- r&#45;bibitr -->
<g id="node41" class="node">
<title>r&#45;bibitr</title>
<g id="a_node41"><a xlink:href="https://github.com/conda-forge/r-bibitr-feedstock" xlink:title="r bibitr">
<ellipse fill="#fde725" stroke="black" cx="1593.54" cy="-458" rx="44.39" ry="18"/>
<text text-anchor="middle" x="1593.54" y="-454.3" font-family="Times,serif" font-size="14.00">r bibitr</text>
</a>
</g>
</g>
<!-- r&#45;randomcolor&#45;&gt;r&#45;bibitr -->
<g id="edge46" class="edge">
<title>r&#45;randomcolor&#45;&gt;r&#45;bibitr</title>
<path fill="none" stroke="black" d="M1618.55,-512.05C1614.74,-503.97 1610.1,-494.12 1605.85,-485.11"/>
<polygon fill="black" stroke="black" points="1608.89,-483.34 1601.46,-475.79 1602.56,-486.33 1608.89,-483.34"/>
</g>
<!-- r&#45;presenter -->
<g id="node42" class="node">
<title>r&#45;presenter</title>
<g id="a_node42"><a xlink:href="https://github.com/conda-forge/r-presenter-feedstock" xlink:title="r presenter">
<ellipse fill="#fde725" stroke="black" cx="1719.54" cy="-458" rx="63.89" ry="18"/>
<text text-anchor="middle" x="1719.54" y="-454.3" font-family="Times,serif" font-size="14.00">r presenter</text>
</a>
</g>
</g>
<!-- r&#45;randomcolor&#45;&gt;r&#45;presenter -->
<g id="edge47" class="edge">
<title>r&#45;randomcolor&#45;&gt;r&#45;presenter</title>
<path fill="none" stroke="black" d="M1648.58,-512.41C1661.04,-503.04 1676.76,-491.2 1690.25,-481.05"/>
<polygon fill="black" stroke="black" points="1692.42,-483.8 1698.3,-474.99 1688.21,-478.21 1692.42,-483.8"/>
</g>
<!-- r&#45;umx -->
<g id="node43" class="node">
<title>r&#45;umx</title>
<g id="a_node43"><a xlink:href="https://github.com/conda-forge/r-umx-feedstock" xlink:title="r umx">
<ellipse fill="#fde725" stroke="black" cx="1878.54" cy="-458" rx="38.5" ry="18"/>
<text text-anchor="middle" x="1878.54" y="-454.3" font-family="Times,serif" font-size="14.00">r umx</text>
</a>
</g>
</g>
<!-- r&#45;diagrammersvg&#45;&gt;r&#45;umx -->
<g id="edge48" class="edge">
<title>r&#45;diagrammersvg&#45;&gt;r&#45;umx</title>
<path fill="none" stroke="black" d="M1924.78,-512.05C1917.06,-503.2 1907.5,-492.23 1899.08,-482.57"/>
<polygon fill="black" stroke="black" points="1901.55,-480.07 1892.34,-474.83 1896.27,-484.67 1901.55,-480.07"/>
</g>
<!-- r&#45;vtree -->
<g id="node44" class="node">
<title>r&#45;vtree</title>
<g id="a_node44"><a xlink:href="https://github.com/conda-forge/r-vtree-feedstock" xlink:title="r vtree">
<ellipse fill="#fde725" stroke="black" cx="1918.54" cy="-386" rx="42.49" ry="18"/>
<text text-anchor="middle" x="1918.54" y="-382.3" font-family="Times,serif" font-size="14.00">r vtree</text>
</a>
</g>
</g>
<!-- r&#45;diagrammersvg&#45;&gt;r&#45;vtree -->
<g id="edge49" class="edge">
<title>r&#45;diagrammersvg&#45;&gt;r&#45;vtree</title>
<path fill="none" stroke="black" d="M1937.01,-511.87C1933.43,-487.67 1926.86,-443.21 1922.59,-414.39"/>
<polygon fill="black" stroke="black" points="1926.01,-413.57 1921.08,-404.19 1919.09,-414.59 1926.01,-413.57"/>
</g>
<!-- r&#45;integr -->
<g id="node45" class="node">
<title>r&#45;integr</title>
<g id="a_node45"><a xlink:href="https://github.com/conda-forge/r-integr-feedstock" xlink:title="r integr">
<ellipse fill="#fde725" stroke="black" cx="1988.54" cy="-314" rx="46.29" ry="18"/>
<text text-anchor="middle" x="1988.54" y="-310.3" font-family="Times,serif" font-size="14.00">r integr</text>
</a>
</g>
</g>
<!-- r&#45;diagrammersvg&#45;&gt;r&#45;integr -->
<g id="edge50" class="edge">
<title>r&#45;diagrammersvg&#45;&gt;r&#45;integr</title>
<path fill="none" stroke="black" d="M1943.86,-511.64C1949.81,-487.53 1960.81,-442.52 1969.54,-404 1974.23,-383.33 1979.22,-359.88 1982.91,-342.24"/>
<polygon fill="black" stroke="black" points="1986.41,-342.59 1985.03,-332.09 1979.56,-341.17 1986.41,-342.59"/>
</g>
<!-- r&#45;dagwood -->
<g id="node46" class="node">
<title>r&#45;dagwood</title>
<g id="a_node46"><a xlink:href="https://github.com/conda-forge/r-dagwood-feedstock" xlink:title="r dagwood">
<ellipse fill="#fde725" stroke="black" cx="2062.54" cy="-170" rx="60" ry="18"/>
<text text-anchor="middle" x="2062.54" y="-166.3" font-family="Times,serif" font-size="14.00">r dagwood</text>
</a>
</g>
</g>
<!-- r&#45;dagitty&#45;&gt;r&#45;dagwood -->
<g id="edge51" class="edge">
<title>r&#45;dagitty&#45;&gt;r&#45;dagwood</title>
<path fill="none" stroke="black" d="M2062.54,-223.7C2062.54,-215.98 2062.54,-206.71 2062.54,-198.11"/>
<polygon fill="black" stroke="black" points="2066.04,-198.1 2062.54,-188.1 2059.04,-198.1 2066.04,-198.1"/>
</g>
<!-- r&#45;emld&#45;&gt;r&#45;eml -->
<g id="edge52" class="edge">
<title>r&#45;emld&#45;&gt;r&#45;eml</title>
<path fill="none" stroke="black" d="M1386.54,-367.7C1386.54,-359.98 1386.54,-350.71 1386.54,-342.11"/>
<polygon fill="black" stroke="black" points="1390.04,-342.1 1386.54,-332.1 1383.04,-342.1 1390.04,-342.1"/>
</g>
<!-- r&#45;autostats -->
<g id="node47" class="node">
<title>r&#45;autostats</title>
<g id="a_node47"><a xlink:href="https://github.com/conda-forge/r-autostats-feedstock" xlink:title="r autostats">
<ellipse fill="#fde725" stroke="black" cx="1676.54" cy="-386" rx="61.99" ry="18"/>
<text text-anchor="middle" x="1676.54" y="-382.3" font-family="Times,serif" font-size="14.00">r autostats</text>
</a>
</g>
</g>
<!-- r&#45;presenter&#45;&gt;r&#45;autostats -->
<g id="edge53" class="edge">
<title>r&#45;presenter&#45;&gt;r&#45;autostats</title>
<path fill="none" stroke="black" d="M1709.13,-440.05C1704.06,-431.8 1697.86,-421.7 1692.23,-412.54"/>
<polygon fill="black" stroke="black" points="1695.07,-410.48 1686.86,-403.79 1689.11,-414.14 1695.07,-410.48"/>
</g>
<!-- r&#45;tidyconsultant -->
<g id="node48" class="node">
<title>r&#45;tidyconsultant</title>
<g id="a_node48"><a xlink:href="https://github.com/conda-forge/r-tidyconsultant-feedstock" xlink:title="r tidyconsultant">
<ellipse fill="#fde725" stroke="black" cx="1676.54" cy="-314" rx="85.29" ry="18"/>
<text text-anchor="middle" x="1676.54" y="-310.3" font-family="Times,serif" font-size="14.00">r tidyconsultant</text>
</a>
</g>
</g>
<!-- r&#45;presenter&#45;&gt;r&#45;tidyconsultant -->
<g id="edge54" class="edge">
<title>r&#45;presenter&#45;&gt;r&#45;tidyconsultant</title>
<path fill="none" stroke="black" d="M1732.18,-440.31C1744.43,-421.96 1759.52,-391.89 1747.54,-368 1741.05,-355.05 1729.73,-344.46 1718.01,-336.24"/>
<polygon fill="black" stroke="black" points="1719.76,-333.21 1709.47,-330.68 1715.94,-339.07 1719.76,-333.21"/>
</g>
<!-- r&#45;autostats&#45;&gt;r&#45;tidyconsultant -->
<g id="edge59" class="edge">
<title>r&#45;autostats&#45;&gt;r&#45;tidyconsultant</title>
<path fill="none" stroke="black" d="M1676.54,-367.7C1676.54,-359.98 1676.54,-350.71 1676.54,-342.11"/>
<polygon fill="black" stroke="black" points="1680.04,-342.1 1676.54,-332.1 1673.04,-342.1 1680.04,-342.1"/>
</g>
<!-- rhumba -->
<g id="node50" class="node">
<title>rhumba</title>
<g id="a_node50"><a xlink:href="https://github.com/conda-forge/rhumba-feedstock/pull/14" xlink:title="rhumba ✓">
<ellipse fill="#31688e" stroke="black" cx="2200.54" cy="-350" rx="54" ry="18"/>
<text text-anchor="middle" x="2200.54" y="-346.3" font-family="Times,serif" font-size="14.00" fill="white">rhumba ✓</text>
</a>
</g>
</g>
<!-- r&#45;destinie&#45;&gt;rhumba -->
<!-- r&#45;httpgd -->
<g id="node51" class="node">
<title>r&#45;httpgd</title>
<g id="a_node51"><a xlink:href="https://github.com/conda-forge/r-httpgd-feedstock/pull/1" xlink:title="r httpgd ❎">
<ellipse fill="#31688e" stroke="black" cx="2200.54" cy="-278" rx="63.89" ry="18"/>
<text text-anchor="middle" x="2200.54" y="-274.3" font-family="Times,serif" font-size="14.00" fill="white">r httpgd ❎</text>
</a>
</g>
</g>
<!-- rhumba&#45;&gt;r&#45;httpgd -->
<!-- r&#45;diversity -->
<g id="node52" class="node">
<title>r&#45;diversity</title>
<g id="a_node52"><a xlink:href="https://github.com/conda-forge/r-diversity-feedstock/pull/1" xlink:title="r diversity ✓">
<ellipse fill="#31688e" stroke="black" cx="2200.54" cy="-206" rx="66.5" ry="18"/>
<text text-anchor="middle" x="2200.54" y="-202.3" font-family="Times,serif" font-size="14.00" fill="white">r diversity ✓</text>
</a>
</g>
</g>
<!-- r&#45;httpgd&#45;&gt;r&#45;diversity -->
<!-- r&#45;loon -->
<g id="node53" class="node">
<title>r&#45;loon</title>
<g id="a_node53"><a xlink:href="https://github.com/conda-forge/r-loon-feedstock/pull/1" xlink:title="r loon ❎">
<ellipse fill="#31688e" stroke="black" cx="2200.54" cy="-134" rx="52" ry="18"/>
<text text-anchor="middle" x="2200.54" y="-130.3" font-family="Times,serif" font-size="14.00" fill="white">r loon ❎</text>
</a>
</g>
</g>
<!-- r&#45;diversity&#45;&gt;r&#45;loon -->
</g>
</svg>
