<?xml version="1.0" encoding="UTF-8" standalone="no"?>
<!DOCTYPE svg PUBLIC "-//W3C//DTD SVG 1.1//EN"
 "http://www.w3.org/Graphics/SVG/1.1/DTD/svg11.dtd">
<!-- Generated by graphviz version 6.0.1 (20220911.2005)
 -->
<!-- Pages: 1 -->
<svg width="2635pt" height="880pt"
 viewBox="0.00 0.00 2634.59 880.00" xmlns="http://www.w3.org/2000/svg" xmlns:xlink="http://www.w3.org/1999/xlink">
<g id="graph0" class="graph" transform="scale(1 1) rotate(0) translate(4 876)">
<polygon fill="white" stroke="none" points="-4,4 -4,-876 2630.59,-876 2630.59,4 -4,4"/>
<!-- r&#45;eml -->
<g id="node1" class="node">
<title>r&#45;eml</title>
<g id="a_node1"><a xlink:href="https://github.com/conda-forge/r-eml-feedstock" xlink:title="r eml">
<ellipse fill="#fde725" stroke="black" cx="1658.5" cy="-422" rx="35.19" ry="18"/>
<text text-anchor="middle" x="1658.5" y="-418.3" font-family="Times,serif" font-size="14.00">r eml</text>
</a>
</g>
</g>
<!-- r&#45;finch -->
<g id="node2" class="node">
<title>r&#45;finch</title>
<g id="a_node2"><a xlink:href="https://github.com/conda-forge/r-finch-feedstock" xlink:title="r finch">
<ellipse fill="#fde725" stroke="black" cx="1658.5" cy="-350" rx="40.5" ry="18"/>
<text text-anchor="middle" x="1658.5" y="-346.3" font-family="Times,serif" font-size="14.00">r finch</text>
</a>
</g>
</g>
<!-- r&#45;eml&#45;&gt;r&#45;finch -->
<g id="edge1" class="edge">
<title>r&#45;eml&#45;&gt;r&#45;finch</title>
<path fill="none" stroke="black" d="M1658.5,-403.7C1658.5,-395.98 1658.5,-386.71 1658.5,-378.11"/>
<polygon fill="black" stroke="black" points="1662,-378.1 1658.5,-368.1 1655,-378.1 1662,-378.1"/>
</g>
<!-- r&#45;rstan -->
<g id="node3" class="node">
<title>r&#45;rstan</title>
<g id="a_node3"><a xlink:href="https://github.com/conda-forge/r-rstan-feedstock" xlink:title="r rstan">
<ellipse fill="#fde725" stroke="black" cx="630.5" cy="-638" rx="42.49" ry="18"/>
<text text-anchor="middle" x="630.5" y="-634.3" font-family="Times,serif" font-size="14.00">r rstan</text>
</a>
</g>
</g>
<!-- r&#45;shinystan -->
<g id="node4" class="node">
<title>r&#45;shinystan</title>
<g id="a_node4"><a xlink:href="https://github.com/conda-forge/r-shinystan-feedstock" xlink:title="r shinystan">
<ellipse fill="#fde725" stroke="black" cx="833.5" cy="-566" rx="63.09" ry="18"/>
<text text-anchor="middle" x="833.5" y="-562.3" font-family="Times,serif" font-size="14.00">r shinystan</text>
</a>
</g>
</g>
<!-- r&#45;rstan&#45;&gt;r&#45;shinystan -->
<g id="edge2" class="edge">
<title>r&#45;rstan&#45;&gt;r&#45;shinystan</title>
<path fill="none" stroke="black" d="M662.22,-626.06C695.08,-614.73 746.85,-596.88 784.88,-583.77"/>
<polygon fill="black" stroke="black" points="786.41,-586.94 794.72,-580.37 784.12,-580.32 786.41,-586.94"/>
</g>
<!-- r&#45;rstanarm -->
<g id="node5" class="node">
<title>r&#45;rstanarm</title>
<g id="a_node5"><a xlink:href="https://github.com/conda-forge/r-rstanarm-feedstock" xlink:title="r rstanarm">
<ellipse fill="#fde725" stroke="black" cx="975.5" cy="-494" rx="61.19" ry="18"/>
<text text-anchor="middle" x="975.5" y="-490.3" font-family="Times,serif" font-size="14.00">r rstanarm</text>
</a>
</g>
</g>
<!-- r&#45;rstan&#45;&gt;r&#45;rstanarm -->
<g id="edge3" class="edge">
<title>r&#45;rstan&#45;&gt;r&#45;rstanarm</title>
<path fill="none" stroke="black" d="M672.87,-637.76C729.85,-636.89 832.43,-628.54 905.5,-584 930.39,-568.83 949.93,-541.37 961.97,-520.95"/>
<polygon fill="black" stroke="black" points="965.08,-522.56 966.97,-512.13 958.99,-519.11 965.08,-522.56"/>
</g>
<!-- r&#45;brms -->
<g id="node6" class="node">
<title>r&#45;brms</title>
<g id="a_node6"><a xlink:href="https://github.com/conda-forge/r-brms-feedstock" xlink:title="r brms">
<ellipse fill="#fde725" stroke="black" cx="816.5" cy="-494" rx="42.49" ry="18"/>
<text text-anchor="middle" x="816.5" y="-490.3" font-family="Times,serif" font-size="14.00">r brms</text>
</a>
</g>
</g>
<!-- r&#45;rstan&#45;&gt;r&#45;brms -->
<g id="edge4" class="edge">
<title>r&#45;rstan&#45;&gt;r&#45;brms</title>
<path fill="none" stroke="black" d="M650.41,-621.8C683.69,-596.39 750.71,-545.23 788.66,-516.26"/>
<polygon fill="black" stroke="black" points="790.91,-518.94 796.74,-510.09 786.67,-513.37 790.91,-518.94"/>
</g>
<!-- r&#45;prophet -->
<g id="node7" class="node">
<title>r&#45;prophet</title>
<g id="a_node7"><a xlink:href="https://github.com/conda-forge/r-prophet-feedstock" xlink:title="r prophet">
<ellipse fill="#fde725" stroke="black" cx="630.5" cy="-566" rx="54.69" ry="18"/>
<text text-anchor="middle" x="630.5" y="-562.3" font-family="Times,serif" font-size="14.00">r prophet</text>
</a>
</g>
</g>
<!-- r&#45;rstan&#45;&gt;r&#45;prophet -->
<g id="edge5" class="edge">
<title>r&#45;rstan&#45;&gt;r&#45;prophet</title>
<path fill="none" stroke="black" d="M630.5,-619.7C630.5,-611.98 630.5,-602.71 630.5,-594.11"/>
<polygon fill="black" stroke="black" points="634,-594.1 630.5,-584.1 627,-594.1 634,-594.1"/>
</g>
<!-- r&#45;metabma -->
<g id="node8" class="node">
<title>r&#45;metabma</title>
<g id="a_node8"><a xlink:href="https://github.com/conda-forge/r-metabma-feedstock" xlink:title="r metabma">
<ellipse fill="#fde725" stroke="black" cx="105.5" cy="-566" rx="61.99" ry="18"/>
<text text-anchor="middle" x="105.5" y="-562.3" font-family="Times,serif" font-size="14.00">r metabma</text>
</a>
</g>
</g>
<!-- r&#45;rstan&#45;&gt;r&#45;metabma -->
<g id="edge6" class="edge">
<title>r&#45;rstan&#45;&gt;r&#45;metabma</title>
<path fill="none" stroke="black" d="M589.26,-633.84C509.23,-627.34 327.49,-610.79 176.5,-584 171.12,-583.05 165.53,-581.93 159.97,-580.73"/>
<polygon fill="black" stroke="black" points="160.54,-577.28 150.02,-578.51 159.02,-584.11 160.54,-577.28"/>
</g>
<!-- r&#45;rlgt -->
<g id="node9" class="node">
<title>r&#45;rlgt</title>
<g id="a_node9"><a xlink:href="https://github.com/conda-forge/r-rlgt-feedstock" xlink:title="r rlgt">
<ellipse fill="#fde725" stroke="black" cx="220.5" cy="-566" rx="35.19" ry="18"/>
<text text-anchor="middle" x="220.5" y="-562.3" font-family="Times,serif" font-size="14.00">r rlgt</text>
</a>
</g>
</g>
<!-- r&#45;rstan&#45;&gt;r&#45;rlgt -->
<g id="edge7" class="edge">
<title>r&#45;rstan&#45;&gt;r&#45;rlgt</title>
<path fill="none" stroke="black" d="M589.41,-633.51C521.91,-627.2 383.64,-611.92 269.5,-584 265.58,-583.04 261.53,-581.9 257.51,-580.66"/>
<polygon fill="black" stroke="black" points="258.29,-577.23 247.7,-577.45 256.12,-583.89 258.29,-577.23"/>
</g>
<!-- r&#45;bayesforecast -->
<g id="node10" class="node">
<title>r&#45;bayesforecast</title>
<g id="a_node10"><a xlink:href="https://github.com/conda-forge/r-bayesforecast-feedstock" xlink:title="r bayesforecast">
<ellipse fill="#fde725" stroke="black" cx="520.5" cy="-494" rx="82.59" ry="18"/>
<text text-anchor="middle" x="520.5" y="-490.3" font-family="Times,serif" font-size="14.00">r bayesforecast</text>
</a>
</g>
</g>
<!-- r&#45;rstan&#45;&gt;r&#45;bayesforecast -->
<g id="edge8" class="edge">
<title>r&#45;rstan&#45;&gt;r&#45;bayesforecast</title>
<path fill="none" stroke="black" d="M608.71,-622.4C595.34,-612.66 578.54,-598.94 566.5,-584 551.24,-565.06 538.92,-540.25 530.89,-521.63"/>
<polygon fill="black" stroke="black" points="534.06,-520.15 526.98,-512.27 527.6,-522.85 534.06,-520.15"/>
</g>
<!-- r&#45;stanova -->
<g id="node11" class="node">
<title>r&#45;stanova</title>
<g id="a_node11"><a xlink:href="https://github.com/conda-forge/r-stanova-feedstock" xlink:title="r stanova">
<ellipse fill="#fde725" stroke="black" cx="365.5" cy="-494" rx="54" ry="18"/>
<text text-anchor="middle" x="365.5" y="-490.3" font-family="Times,serif" font-size="14.00">r stanova</text>
</a>
</g>
</g>
<!-- r&#45;rstan&#45;&gt;r&#45;stanova -->
<g id="edge9" class="edge">
<title>r&#45;rstan&#45;&gt;r&#45;stanova</title>
<path fill="none" stroke="black" d="M605.09,-623.38C557.82,-598.05 456.24,-543.62 401.76,-514.43"/>
<polygon fill="black" stroke="black" points="403.27,-511.27 392.8,-509.63 399.96,-517.44 403.27,-511.27"/>
</g>
<!-- jasp -->
<g id="node12" class="node">
<title>jasp</title>
<g id="a_node12"><a xlink:href="https://github.com/conda-forge/jasp-feedstock" xlink:title="jasp">
<ellipse fill="#fde725" stroke="black" cx="324.5" cy="-422" rx="30" ry="18"/>
<text text-anchor="middle" x="324.5" y="-418.3" font-family="Times,serif" font-size="14.00">jasp</text>
</a>
</g>
</g>
<!-- r&#45;rstan&#45;&gt;jasp -->
<g id="edge10" class="edge">
<title>r&#45;rstan&#45;&gt;jasp</title>
<path fill="none" stroke="black" d="M588.58,-635.73C515.2,-630.93 365.29,-609.1 302.5,-512 290.01,-492.68 298.64,-466.79 308.52,-447.92"/>
<polygon fill="black" stroke="black" points="311.68,-449.45 313.54,-439.02 305.58,-446.01 311.68,-449.45"/>
</g>
<!-- r&#45;densestbayes -->
<g id="node13" class="node">
<title>r&#45;densestbayes</title>
<g id="a_node13"><a xlink:href="https://github.com/conda-forge/r-densestbayes-feedstock" xlink:title="r densestbayes">
<ellipse fill="#fde725" stroke="black" cx="1109.5" cy="-422" rx="81.49" ry="18"/>
<text text-anchor="middle" x="1109.5" y="-418.3" font-family="Times,serif" font-size="14.00">r densestbayes</text>
</a>
</g>
</g>
<!-- r&#45;rstan&#45;&gt;r&#45;densestbayes -->
<g id="edge11" class="edge">
<title>r&#45;rstan&#45;&gt;r&#45;densestbayes</title>
<path fill="none" stroke="black" d="M672.36,-635.34C733.05,-631.72 848.1,-620.25 938.5,-584 991.7,-562.67 1004.34,-551.9 1045.5,-512 1064.99,-493.1 1082.64,-467.63 1094.44,-448.78"/>
<polygon fill="black" stroke="black" points="1097.5,-450.47 1099.74,-440.11 1091.54,-446.81 1097.5,-450.47"/>
</g>
<!-- r&#45;shinystan&#45;&gt;r&#45;rstanarm -->
<g id="edge12" class="edge">
<title>r&#45;shinystan&#45;&gt;r&#45;rstanarm</title>
<path fill="none" stroke="black" d="M863.61,-550.15C884.79,-539.71 913.34,-525.64 936.29,-514.33"/>
<polygon fill="black" stroke="black" points="938.01,-517.38 945.43,-509.82 934.91,-511.11 938.01,-517.38"/>
</g>
<!-- r&#45;shinystan&#45;&gt;r&#45;brms -->
<g id="edge13" class="edge">
<title>r&#45;shinystan&#45;&gt;r&#45;brms</title>
<path fill="none" stroke="black" d="M829.3,-547.7C827.4,-539.9 825.12,-530.51 823.02,-521.83"/>
<polygon fill="black" stroke="black" points="826.42,-521 820.65,-512.1 819.61,-522.65 826.42,-521"/>
</g>
<!-- r&#45;shinystan&#45;&gt;jasp -->
<g id="edge14" class="edge">
<title>r&#45;shinystan&#45;&gt;jasp</title>
<path fill="none" stroke="black" d="M849.12,-548.32C865.45,-528.86 886.28,-496.7 867.5,-476 833.83,-438.89 484.8,-426.92 364.77,-423.88"/>
<polygon fill="black" stroke="black" points="364.63,-420.38 354.55,-423.63 364.46,-427.37 364.63,-420.38"/>
</g>
<!-- r&#45;rstanarm&#45;&gt;jasp -->
<g id="edge15" class="edge">
<title>r&#45;rstanarm&#45;&gt;jasp</title>
<path fill="none" stroke="black" d="M930.47,-481.79C920.64,-479.62 910.26,-477.55 900.5,-476 700.66,-444.3 458.59,-429.67 364.55,-424.87"/>
<polygon fill="black" stroke="black" points="364.51,-421.37 354.35,-424.36 364.16,-428.36 364.51,-421.37"/>
</g>
<!-- r&#45;tidyposterior -->
<g id="node14" class="node">
<title>r&#45;tidyposterior</title>
<g id="a_node14"><a xlink:href="https://github.com/conda-forge/r-tidyposterior-feedstock" xlink:title="r tidyposterior">
<ellipse fill="#fde725" stroke="black" cx="931.5" cy="-422" rx="78.79" ry="18"/>
<text text-anchor="middle" x="931.5" y="-418.3" font-family="Times,serif" font-size="14.00">r tidyposterior</text>
</a>
</g>
</g>
<!-- r&#45;rstanarm&#45;&gt;r&#45;tidyposterior -->
<g id="edge16" class="edge">
<title>r&#45;rstanarm&#45;&gt;r&#45;tidyposterior</title>
<path fill="none" stroke="black" d="M964.85,-476.05C959.74,-467.92 953.5,-458 947.81,-448.94"/>
<polygon fill="black" stroke="black" points="950.64,-446.88 942.36,-440.28 944.72,-450.6 950.64,-446.88"/>
</g>
<!-- r&#45;prophet&#45;&gt;r&#45;bayesforecast -->
<g id="edge17" class="edge">
<title>r&#45;prophet&#45;&gt;r&#45;bayesforecast</title>
<path fill="none" stroke="black" d="M606.63,-549.81C591.35,-540.09 571.29,-527.32 554.37,-516.55"/>
<polygon fill="black" stroke="black" points="556.17,-513.55 545.85,-511.13 552.41,-519.46 556.17,-513.55"/>
</g>
<!-- r&#45;modeltime -->
<g id="node15" class="node">
<title>r&#45;modeltime</title>
<g id="a_node15"><a xlink:href="https://github.com/conda-forge/r-modeltime-feedstock" xlink:title="r modeltime">
<ellipse fill="#fde725" stroke="black" cx="688.5" cy="-494" rx="67.69" ry="18"/>
<text text-anchor="middle" x="688.5" y="-490.3" font-family="Times,serif" font-size="14.00">r modeltime</text>
</a>
</g>
</g>
<!-- r&#45;prophet&#45;&gt;r&#45;modeltime -->
<g id="edge18" class="edge">
<title>r&#45;prophet&#45;&gt;r&#45;modeltime</title>
<path fill="none" stroke="black" d="M644.25,-548.41C651.29,-539.91 660.02,-529.37 667.86,-519.91"/>
<polygon fill="black" stroke="black" points="670.77,-521.89 674.45,-511.96 665.38,-517.42 670.77,-521.89"/>
</g>
<!-- r&#45;metabma&#45;&gt;jasp -->
<g id="edge19" class="edge">
<title>r&#45;metabma&#45;&gt;jasp</title>
<path fill="none" stroke="black" d="M143.9,-551.85C168.53,-542.55 200.62,-528.78 226.5,-512 242.42,-501.68 278.58,-467.64 302.24,-444.78"/>
<polygon fill="black" stroke="black" points="304.7,-447.27 309.44,-437.79 299.83,-442.24 304.7,-447.27"/>
</g>
<!-- r&#45;tidybf -->
<g id="node16" class="node">
<title>r&#45;tidybf</title>
<g id="a_node16"><a xlink:href="https://github.com/conda-forge/r-tidybf-feedstock" xlink:title="r tidybf">
<ellipse fill="#fde725" stroke="black" cx="45.5" cy="-494" rx="45.5" ry="18"/>
<text text-anchor="middle" x="45.5" y="-490.3" font-family="Times,serif" font-size="14.00">r tidybf</text>
</a>
</g>
</g>
<!-- r&#45;metabma&#45;&gt;r&#45;tidybf -->
<g id="edge20" class="edge">
<title>r&#45;metabma&#45;&gt;r&#45;tidybf</title>
<path fill="none" stroke="black" d="M91.28,-548.41C83.81,-539.69 74.51,-528.85 66.25,-519.21"/>
<polygon fill="black" stroke="black" points="68.78,-516.78 59.62,-511.47 63.47,-521.34 68.78,-516.78"/>
</g>
<!-- r&#45;stanova&#45;&gt;jasp -->
<g id="edge21" class="edge">
<title>r&#45;stanova&#45;&gt;jasp</title>
<path fill="none" stroke="black" d="M355.58,-476.05C350.67,-467.68 344.65,-457.4 339.22,-448.13"/>
<polygon fill="black" stroke="black" points="342.13,-446.17 334.05,-439.31 336.09,-449.7 342.13,-446.17"/>
</g>
<!-- r&#45;reldist -->
<g id="node17" class="node">
<title>r&#45;reldist</title>
<g id="a_node17"><a xlink:href="https://github.com/conda-forge/r-reldist-feedstock" xlink:title="r reldist">
<ellipse fill="#fde725" stroke="black" cx="1109.5" cy="-350" rx="48.19" ry="18"/>
<text text-anchor="middle" x="1109.5" y="-346.3" font-family="Times,serif" font-size="14.00">r reldist</text>
</a>
</g>
</g>
<!-- r&#45;densestbayes&#45;&gt;r&#45;reldist -->
<g id="edge22" class="edge">
<title>r&#45;densestbayes&#45;&gt;r&#45;reldist</title>
<path fill="none" stroke="black" d="M1109.5,-403.7C1109.5,-395.98 1109.5,-386.71 1109.5,-378.11"/>
<polygon fill="black" stroke="black" points="1113,-378.1 1109.5,-368.1 1106,-378.1 1113,-378.1"/>
</g>
<!-- r&#45;sparklyr -->
<g id="node18" class="node">
<title>r&#45;sparklyr</title>
<g id="a_node18"><a xlink:href="https://github.com/conda-forge/r-sparklyr-feedstock/pull/42" xlink:title="r sparklyr ❎">
<ellipse fill="#31688e" stroke="black" cx="2525.5" cy="-566" rx="71" ry="18"/>
<text text-anchor="middle" x="2525.5" y="-562.3" font-family="Times,serif" font-size="14.00" fill="white">r sparklyr ❎</text>
</a>
</g>
</g>
<!-- r&#45;sparktf -->
<g id="node19" class="node">
<title>r&#45;sparktf</title>
<g id="a_node19"><a xlink:href="https://github.com/conda-forge/r-sparktf-feedstock" xlink:title="r sparktf">
<ellipse fill="#fde725" stroke="black" cx="2485.5" cy="-494" rx="51.5" ry="18"/>
<text text-anchor="middle" x="2485.5" y="-490.3" font-family="Times,serif" font-size="14.00">r sparktf</text>
</a>
</g>
</g>
<!-- r&#45;sparklyr&#45;&gt;r&#45;sparktf -->
<g id="edge23" class="edge">
<title>r&#45;sparklyr&#45;&gt;r&#45;sparktf</title>
<path fill="none" stroke="black" d="M2515.82,-548.05C2511.1,-539.8 2505.33,-529.7 2500.09,-520.54"/>
<polygon fill="black" stroke="black" points="2503.09,-518.73 2495.09,-511.79 2497.02,-522.21 2503.09,-518.73"/>
</g>
<!-- r&#45;sparkxgb -->
<g id="node20" class="node">
<title>r&#45;sparkxgb</title>
<g id="a_node20"><a xlink:href="https://github.com/conda-forge/r-sparkxgb-feedstock" xlink:title="r sparkxgb">
<ellipse fill="#fde725" stroke="black" cx="2565.5" cy="-422" rx="61.19" ry="18"/>
<text text-anchor="middle" x="2565.5" y="-418.3" font-family="Times,serif" font-size="14.00">r sparkxgb</text>
</a>
</g>
</g>
<!-- r&#45;sparklyr&#45;&gt;r&#45;sparkxgb -->
<g id="edge24" class="edge">
<title>r&#45;sparklyr&#45;&gt;r&#45;sparkxgb</title>
<path fill="none" stroke="black" d="M2533.05,-548.07C2537.42,-537.79 2542.77,-524.32 2546.5,-512 2552.67,-491.62 2557.61,-468.02 2560.9,-450.25"/>
<polygon fill="black" stroke="black" points="2564.37,-450.74 2562.69,-440.28 2557.48,-449.5 2564.37,-450.74"/>
</g>
<!-- r&#45;tfdatasets -->
<g id="node21" class="node">
<title>r&#45;tfdatasets</title>
<g id="a_node21"><a xlink:href="https://github.com/conda-forge/r-tfdatasets-feedstock" xlink:title="r tfdatasets">
<ellipse fill="#fde725" stroke="black" cx="1125.5" cy="-18" rx="65" ry="18"/>
<text text-anchor="middle" x="1125.5" y="-14.3" font-family="Times,serif" font-size="14.00">r tfdatasets</text>
</a>
</g>
</g>
<!-- r&#45;tfestimators -->
<g id="node22" class="node">
<title>r&#45;tfestimators</title>
<g id="a_node22"><a xlink:href="https://github.com/conda-forge/r-tfestimators-feedstock/pull/7" xlink:title="r tfestimators ❎">
<ellipse fill="#31688e" stroke="black" cx="1125.5" cy="-90" rx="89.08" ry="18"/>
<text text-anchor="middle" x="1125.5" y="-86.3" font-family="Times,serif" font-size="14.00" fill="white">r tfestimators ❎</text>
</a>
</g>
</g>
<!-- r&#45;tfestimators&#45;&gt;r&#45;tfdatasets -->
<g id="edge25" class="edge">
<title>r&#45;tfestimators&#45;&gt;r&#45;tfdatasets</title>
<path fill="none" stroke="black" d="M1125.5,-71.7C1125.5,-63.98 1125.5,-54.71 1125.5,-46.11"/>
<polygon fill="black" stroke="black" points="1129,-46.1 1125.5,-36.1 1122,-46.1 1129,-46.1"/>
</g>
<!-- r&#45;xtensor -->
<g id="node23" class="node">
<title>r&#45;xtensor</title>
<g id="a_node23"><a xlink:href="https://github.com/conda-forge/r-xtensor-feedstock/pull/20" xlink:title="r xtensor ✓">
<ellipse fill="#31688e" stroke="black" cx="2342.5" cy="-854" rx="60.5" ry="18"/>
<text text-anchor="middle" x="2342.5" y="-850.3" font-family="Times,serif" font-size="14.00" fill="white">r xtensor ✓</text>
</a>
</g>
</g>
<!-- r&#45;hypergea -->
<g id="node24" class="node">
<title>r&#45;hypergea</title>
<g id="a_node24"><a xlink:href="https://github.com/conda-forge/r-hypergea-feedstock/pull/7" xlink:title="r hypergea ❎">
<ellipse fill="#31688e" stroke="black" cx="2342.5" cy="-782" rx="75.5" ry="18"/>
<text text-anchor="middle" x="2342.5" y="-778.3" font-family="Times,serif" font-size="14.00" fill="white">r hypergea ❎</text>
</a>
</g>
</g>
<!-- r&#45;xtensor&#45;&gt;r&#45;hypergea -->
<!-- yggdrasil -->
<g id="node25" class="node">
<title>yggdrasil</title>
<g id="a_node25"><a xlink:href="https://github.com/conda-forge/yggdrasil-feedstock/pull/36" xlink:title="yggdrasil ❎">
<ellipse fill="#31688e" stroke="black" cx="2342.5" cy="-710" rx="68.49" ry="18"/>
<text text-anchor="middle" x="2342.5" y="-706.3" font-family="Times,serif" font-size="14.00" fill="white">yggdrasil ❎</text>
</a>
</g>
</g>
<!-- r&#45;hypergea&#45;&gt;yggdrasil -->
<!-- r&#45;mlflow -->
<g id="node26" class="node">
<title>r&#45;mlflow</title>
<g id="a_node26"><a xlink:href="https://github.com/conda-forge/r-mlflow-feedstock/pull/36" xlink:title="r mlflow ❎">
<ellipse fill="#31688e" stroke="black" cx="2342.5" cy="-638" rx="63.09" ry="18"/>
<text text-anchor="middle" x="2342.5" y="-634.3" font-family="Times,serif" font-size="14.00" fill="white">r mlflow ❎</text>
</a>
</g>
</g>
<!-- yggdrasil&#45;&gt;r&#45;mlflow -->
<!-- r&#45;mgrs -->
<g id="node50" class="node">
<title>r&#45;mgrs</title>
<g id="a_node50"><a xlink:href="https://github.com/conda-forge/r-mgrs-feedstock/pull/4" xlink:title="r mgrs ✓">
<ellipse fill="#31688e" stroke="black" cx="2342.5" cy="-566" rx="49.5" ry="18"/>
<text text-anchor="middle" x="2342.5" y="-562.3" font-family="Times,serif" font-size="14.00" fill="white">r mgrs ✓</text>
</a>
</g>
</g>
<!-- r&#45;mlflow&#45;&gt;r&#45;mgrs -->
<!-- r&#45;v8 -->
<g id="node27" class="node">
<title>r&#45;v8</title>
<g id="a_node27"><a xlink:href="https://github.com/conda-forge/r-v8-feedstock" xlink:title="r v8">
<ellipse fill="#ff8c00" stroke="black" cx="1543.5" cy="-710" rx="29.5" ry="18"/>
<text text-anchor="middle" x="1543.5" y="-706.3" font-family="Times,serif" font-size="14.00">r v8</text>
</a>
</g>
</g>
<!-- r&#45;v8&#45;&gt;r&#45;rstan -->
<g id="edge29" class="edge">
<title>r&#45;v8&#45;&gt;r&#45;rstan</title>
<path fill="none" stroke="black" d="M1514.67,-706.79C1384.48,-696.81 850.51,-655.87 681.82,-642.93"/>
<polygon fill="black" stroke="black" points="681.95,-639.43 671.71,-642.16 681.42,-646.41 681.95,-639.43"/>
</g>
<!-- r&#45;rmapshaper -->
<g id="node28" class="node">
<title>r&#45;rmapshaper</title>
<g id="a_node28"><a xlink:href="https://github.com/conda-forge/r-rmapshaper-feedstock" xlink:title="r rmapshaper">
<ellipse fill="#fde725" stroke="black" cx="1200.5" cy="-494" rx="74.19" ry="18"/>
<text text-anchor="middle" x="1200.5" y="-490.3" font-family="Times,serif" font-size="14.00">r rmapshaper</text>
</a>
</g>
</g>
<!-- r&#45;v8&#45;&gt;r&#45;rmapshaper -->
<g id="edge30" class="edge">
<title>r&#45;v8&#45;&gt;r&#45;rmapshaper</title>
<path fill="none" stroke="black" d="M1514.27,-708.81C1432.92,-707.7 1206.18,-700.61 1149.5,-656 1110.53,-625.33 1098.17,-591.75 1121.5,-548 1128.96,-534.01 1141.93,-523.06 1155.23,-514.84"/>
<polygon fill="black" stroke="black" points="1157.03,-517.84 1163.96,-509.83 1153.55,-511.77 1157.03,-517.84"/>
</g>
<!-- r&#45;geojsonio -->
<g id="node29" class="node">
<title>r&#45;geojsonio</title>
<g id="a_node29"><a xlink:href="https://github.com/conda-forge/r-geojsonio-feedstock" xlink:title="r geojsonio">
<ellipse fill="#fde725" stroke="black" cx="1396.5" cy="-638" rx="61.99" ry="18"/>
<text text-anchor="middle" x="1396.5" y="-634.3" font-family="Times,serif" font-size="14.00">r geojsonio</text>
</a>
</g>
</g>
<!-- r&#45;v8&#45;&gt;r&#45;geojsonio -->
<g id="edge31" class="edge">
<title>r&#45;v8&#45;&gt;r&#45;geojsonio</title>
<path fill="none" stroke="black" d="M1521.17,-698.37C1498.76,-687.69 1463.73,-671.02 1436.51,-658.05"/>
<polygon fill="black" stroke="black" points="1437.77,-654.78 1427.24,-653.64 1434.76,-661.1 1437.77,-654.78"/>
</g>
<!-- r&#45;jsonvalidate -->
<g id="node30" class="node">
<title>r&#45;jsonvalidate</title>
<g id="a_node30"><a xlink:href="https://github.com/conda-forge/r-jsonvalidate-feedstock" xlink:title="r jsonvalidate">
<ellipse fill="#fde725" stroke="black" cx="1242.5" cy="-638" rx="74.19" ry="18"/>
<text text-anchor="middle" x="1242.5" y="-634.3" font-family="Times,serif" font-size="14.00">r jsonvalidate</text>
</a>
</g>
</g>
<!-- r&#45;v8&#45;&gt;r&#45;jsonvalidate -->
<g id="edge32" class="edge">
<title>r&#45;v8&#45;&gt;r&#45;jsonvalidate</title>
<path fill="none" stroke="black" d="M1516.52,-702.73C1468.9,-691.65 1368.8,-668.37 1303.67,-653.23"/>
<polygon fill="black" stroke="black" points="1304.47,-649.82 1293.93,-650.96 1302.88,-656.64 1304.47,-649.82"/>
</g>
<!-- r&#45;geojsonlint -->
<g id="node31" class="node">
<title>r&#45;geojsonlint</title>
<g id="a_node31"><a xlink:href="https://github.com/conda-forge/r-geojsonlint-feedstock" xlink:title="r geojsonlint">
<ellipse fill="#fde725" stroke="black" cx="1200.5" cy="-566" rx="69.59" ry="18"/>
<text text-anchor="middle" x="1200.5" y="-562.3" font-family="Times,serif" font-size="14.00">r geojsonlint</text>
</a>
</g>
</g>
<!-- r&#45;v8&#45;&gt;r&#45;geojsonlint -->
<g id="edge33" class="edge">
<title>r&#45;v8&#45;&gt;r&#45;geojsonlint</title>
<path fill="none" stroke="black" d="M1514.09,-709.66C1432.41,-710.79 1205.7,-709.02 1159.5,-656 1143,-637.06 1159.17,-610.36 1175.82,-591.15"/>
<polygon fill="black" stroke="black" points="1178.48,-593.43 1182.64,-583.68 1173.31,-588.71 1178.48,-593.43"/>
</g>
<!-- r&#45;daff -->
<g id="node32" class="node">
<title>r&#45;daff</title>
<g id="a_node32"><a xlink:href="https://github.com/conda-forge/r-daff-feedstock" xlink:title="r daff">
<ellipse fill="#fde725" stroke="black" cx="1511.5" cy="-638" rx="36" ry="18"/>
<text text-anchor="middle" x="1511.5" y="-634.3" font-family="Times,serif" font-size="14.00">r daff</text>
</a>
</g>
</g>
<!-- r&#45;v8&#45;&gt;r&#45;daff -->
<g id="edge34" class="edge">
<title>r&#45;v8&#45;&gt;r&#45;daff</title>
<path fill="none" stroke="black" d="M1535.92,-692.41C1532.19,-684.25 1527.6,-674.22 1523.42,-665.07"/>
<polygon fill="black" stroke="black" points="1526.59,-663.6 1519.25,-655.96 1520.23,-666.51 1526.59,-663.6"/>
</g>
<!-- r&#45;jsonld -->
<g id="node33" class="node">
<title>r&#45;jsonld</title>
<g id="a_node33"><a xlink:href="https://github.com/conda-forge/r-jsonld-feedstock" xlink:title="r jsonld">
<ellipse fill="#fde725" stroke="black" cx="1613.5" cy="-566" rx="46.29" ry="18"/>
<text text-anchor="middle" x="1613.5" y="-562.3" font-family="Times,serif" font-size="14.00">r jsonld</text>
</a>
</g>
</g>
<!-- r&#45;v8&#45;&gt;r&#45;jsonld -->
<g id="edge35" class="edge">
<title>r&#45;v8&#45;&gt;r&#45;jsonld</title>
<path fill="none" stroke="black" d="M1559.21,-694.62C1569.22,-684.67 1581.71,-670.63 1589.5,-656 1599.81,-636.63 1605.96,-612.48 1609.45,-594.23"/>
<polygon fill="black" stroke="black" points="1612.92,-594.7 1611.21,-584.24 1606.03,-593.49 1612.92,-594.7"/>
</g>
<!-- r&#45;concaveman -->
<g id="node34" class="node">
<title>r&#45;concaveman</title>
<g id="a_node34"><a xlink:href="https://github.com/conda-forge/r-concaveman-feedstock" xlink:title="r concaveman">
<ellipse fill="#fde725" stroke="black" cx="1523.5" cy="-494" rx="75.5" ry="18"/>
<text text-anchor="middle" x="1523.5" y="-490.3" font-family="Times,serif" font-size="14.00">r concaveman</text>
</a>
</g>
</g>
<!-- r&#45;v8&#45;&gt;r&#45;concaveman -->
<g id="edge36" class="edge">
<title>r&#45;v8&#45;&gt;r&#45;concaveman</title>
<path fill="none" stroke="black" d="M1548.77,-692.01C1551.69,-681.7 1555.02,-668.23 1556.5,-656 1562.28,-608.2 1546.1,-553.47 1534.4,-521.71"/>
<polygon fill="black" stroke="black" points="1537.63,-520.34 1530.79,-512.24 1531.09,-522.83 1537.63,-520.34"/>
</g>
<!-- r&#45;randomcolor -->
<g id="node35" class="node">
<title>r&#45;randomcolor</title>
<g id="a_node35"><a xlink:href="https://github.com/conda-forge/r-randomcolor-feedstock" xlink:title="r randomcolor">
<ellipse fill="#fde725" stroke="black" cx="1721.5" cy="-638" rx="76.89" ry="18"/>
<text text-anchor="middle" x="1721.5" y="-634.3" font-family="Times,serif" font-size="14.00">r randomcolor</text>
</a>
</g>
</g>
<!-- r&#45;v8&#45;&gt;r&#45;randomcolor -->
<g id="edge37" class="edge">
<title>r&#45;v8&#45;&gt;r&#45;randomcolor</title>
<path fill="none" stroke="black" d="M1567.51,-699.56C1594.83,-688.81 1640.12,-671 1674.53,-657.47"/>
<polygon fill="black" stroke="black" points="1675.9,-660.69 1683.93,-653.78 1673.34,-654.18 1675.9,-660.69"/>
</g>
<!-- r&#45;dot -->
<g id="node36" class="node">
<title>r&#45;dot</title>
<g id="a_node36"><a xlink:href="https://github.com/conda-forge/r-dot-feedstock" xlink:title="r dot">
<ellipse fill="#fde725" stroke="black" cx="2130.5" cy="-422" rx="33.29" ry="18"/>
<text text-anchor="middle" x="2130.5" y="-418.3" font-family="Times,serif" font-size="14.00">r dot</text>
</a>
</g>
</g>
<!-- r&#45;v8&#45;&gt;r&#45;dot -->
<g id="edge38" class="edge">
<title>r&#45;v8&#45;&gt;r&#45;dot</title>
<path fill="none" stroke="black" d="M1572.86,-708.01C1678.42,-704.17 2034.51,-688.88 2072.5,-656 2132.72,-603.89 2135.36,-499.79 2132.82,-450.32"/>
<polygon fill="black" stroke="black" points="2136.3,-449.84 2132.18,-440.08 2129.31,-450.28 2136.3,-449.84"/>
</g>
<!-- r&#45;diagrammersvg -->
<g id="node37" class="node">
<title>r&#45;diagrammersvg</title>
<g id="a_node37"><a xlink:href="https://github.com/conda-forge/r-diagrammersvg-feedstock" xlink:title="r diagrammersvg">
<ellipse fill="#fde725" stroke="black" cx="1972.5" cy="-638" rx="91" ry="18"/>
<text text-anchor="middle" x="1972.5" y="-634.3" font-family="Times,serif" font-size="14.00">r diagrammersvg</text>
</a>
</g>
</g>
<!-- r&#45;v8&#45;&gt;r&#45;diagrammersvg -->
<g id="edge39" class="edge">
<title>r&#45;v8&#45;&gt;r&#45;diagrammersvg</title>
<path fill="none" stroke="black" d="M1571.65,-704.41C1636.37,-693.85 1797.66,-667.53 1894.77,-651.68"/>
<polygon fill="black" stroke="black" points="1895.53,-655.11 1904.83,-650.04 1894.4,-648.2 1895.53,-655.11"/>
</g>
<!-- r&#45;dagitty -->
<g id="node38" class="node">
<title>r&#45;dagitty</title>
<g id="a_node38"><a xlink:href="https://github.com/conda-forge/r-dagitty-feedstock" xlink:title="r dagitty">
<ellipse fill="#fde725" stroke="black" cx="2191.5" cy="-350" rx="51.5" ry="18"/>
<text text-anchor="middle" x="2191.5" y="-346.3" font-family="Times,serif" font-size="14.00">r dagitty</text>
</a>
</g>
</g>
<!-- r&#45;v8&#45;&gt;r&#45;dagitty -->
<g id="edge40" class="edge">
<title>r&#45;v8&#45;&gt;r&#45;dagitty</title>
<path fill="none" stroke="black" d="M1572.79,-708.79C1673.73,-707.66 2006.18,-700.55 2101.5,-656 2152.46,-632.18 2191.5,-623.26 2191.5,-567 2191.5,-567 2191.5,-567 2191.5,-493 2191.5,-453 2191.5,-406.65 2191.5,-378.08"/>
<polygon fill="black" stroke="black" points="2195,-378.05 2191.5,-368.05 2188,-378.05 2195,-378.05"/>
</g>
<!-- r&#45;geojsonio&#45;&gt;r&#45;rmapshaper -->
<g id="edge41" class="edge">
<title>r&#45;geojsonio&#45;&gt;r&#45;rmapshaper</title>
<path fill="none" stroke="black" d="M1395.05,-619.84C1392.46,-599.91 1385.29,-567.31 1365.5,-548 1341.7,-524.77 1307.69,-511.72 1276.72,-504.39"/>
<polygon fill="black" stroke="black" points="1277.31,-500.94 1266.79,-502.21 1275.81,-507.77 1277.31,-500.94"/>
</g>
<!-- r&#45;sen2r -->
<g id="node39" class="node">
<title>r&#45;sen2r</title>
<g id="a_node39"><a xlink:href="https://github.com/conda-forge/r-sen2r-feedstock" xlink:title="r sen2r">
<ellipse fill="#fde725" stroke="black" cx="1456.5" cy="-566" rx="44.39" ry="18"/>
<text text-anchor="middle" x="1456.5" y="-562.3" font-family="Times,serif" font-size="14.00">r sen2r</text>
</a>
</g>
</g>
<!-- r&#45;geojsonio&#45;&gt;r&#45;sen2r -->
<g id="edge42" class="edge">
<title>r&#45;geojsonio&#45;&gt;r&#45;sen2r</title>
<path fill="none" stroke="black" d="M1410.72,-620.41C1418.19,-611.69 1427.49,-600.85 1435.75,-591.21"/>
<polygon fill="black" stroke="black" points="1438.53,-593.34 1442.38,-583.47 1433.22,-588.78 1438.53,-593.34"/>
</g>
<!-- r&#45;jsonvalidate&#45;&gt;r&#45;geojsonlint -->
<g id="edge43" class="edge">
<title>r&#45;jsonvalidate&#45;&gt;r&#45;geojsonlint</title>
<path fill="none" stroke="black" d="M1232.33,-620.05C1227.45,-611.92 1221.5,-602 1216.07,-592.94"/>
<polygon fill="black" stroke="black" points="1219.01,-591.05 1210.87,-584.28 1213.01,-594.65 1219.01,-591.05"/>
</g>
<!-- r&#45;cffr -->
<g id="node40" class="node">
<title>r&#45;cffr</title>
<g id="a_node40"><a xlink:href="https://github.com/conda-forge/r-cffr-feedstock" xlink:title="r cffr">
<ellipse fill="#fde725" stroke="black" cx="1322.5" cy="-566" rx="34" ry="18"/>
<text text-anchor="middle" x="1322.5" y="-562.3" font-family="Times,serif" font-size="14.00">r cffr</text>
</a>
</g>
</g>
<!-- r&#45;jsonvalidate&#45;&gt;r&#45;cffr -->
<g id="edge44" class="edge">
<title>r&#45;jsonvalidate&#45;&gt;r&#45;cffr</title>
<path fill="none" stroke="black" d="M1261.46,-620.41C1272.35,-610.88 1286.14,-598.81 1297.86,-588.56"/>
<polygon fill="black" stroke="black" points="1300.36,-591.02 1305.58,-581.8 1295.75,-585.75 1300.36,-591.02"/>
</g>
<!-- r&#45;geojsonlint&#45;&gt;r&#45;rmapshaper -->
<g id="edge45" class="edge">
<title>r&#45;geojsonlint&#45;&gt;r&#45;rmapshaper</title>
<path fill="none" stroke="black" d="M1200.5,-547.7C1200.5,-539.98 1200.5,-530.71 1200.5,-522.11"/>
<polygon fill="black" stroke="black" points="1204,-522.1 1200.5,-512.1 1197,-522.1 1204,-522.1"/>
</g>
<!-- r&#45;emld -->
<g id="node41" class="node">
<title>r&#45;emld</title>
<g id="a_node41"><a xlink:href="https://github.com/conda-forge/r-emld-feedstock" xlink:title="r emld">
<ellipse fill="#fde725" stroke="black" cx="1658.5" cy="-494" rx="41" ry="18"/>
<text text-anchor="middle" x="1658.5" y="-490.3" font-family="Times,serif" font-size="14.00">r emld</text>
</a>
</g>
</g>
<!-- r&#45;jsonld&#45;&gt;r&#45;emld -->
<g id="edge46" class="edge">
<title>r&#45;jsonld&#45;&gt;r&#45;emld</title>
<path fill="none" stroke="black" d="M1624.16,-548.41C1629.6,-539.95 1636.33,-529.49 1642.38,-520.08"/>
<polygon fill="black" stroke="black" points="1645.45,-521.77 1647.91,-511.47 1639.56,-517.99 1645.45,-521.77"/>
</g>
<!-- r&#45;bibitr -->
<g id="node42" class="node">
<title>r&#45;bibitr</title>
<g id="a_node42"><a xlink:href="https://github.com/conda-forge/r-bibitr-feedstock" xlink:title="r bibitr">
<ellipse fill="#fde725" stroke="black" cx="1721.5" cy="-566" rx="44.39" ry="18"/>
<text text-anchor="middle" x="1721.5" y="-562.3" font-family="Times,serif" font-size="14.00">r bibitr</text>
</a>
</g>
</g>
<!-- r&#45;randomcolor&#45;&gt;r&#45;bibitr -->
<g id="edge47" class="edge">
<title>r&#45;randomcolor&#45;&gt;r&#45;bibitr</title>
<path fill="none" stroke="black" d="M1721.5,-619.7C1721.5,-611.98 1721.5,-602.71 1721.5,-594.11"/>
<polygon fill="black" stroke="black" points="1725,-594.1 1721.5,-584.1 1718,-594.1 1725,-594.1"/>
</g>
<!-- r&#45;presenter -->
<g id="node43" class="node">
<title>r&#45;presenter</title>
<g id="a_node43"><a xlink:href="https://github.com/conda-forge/r-presenter-feedstock" xlink:title="r presenter">
<ellipse fill="#fde725" stroke="black" cx="1847.5" cy="-566" rx="63.89" ry="18"/>
<text text-anchor="middle" x="1847.5" y="-562.3" font-family="Times,serif" font-size="14.00">r presenter</text>
</a>
</g>
</g>
<!-- r&#45;randomcolor&#45;&gt;r&#45;presenter -->
<g id="edge48" class="edge">
<title>r&#45;randomcolor&#45;&gt;r&#45;presenter</title>
<path fill="none" stroke="black" d="M1750.09,-621.12C1768.14,-611.09 1791.63,-598.04 1811.02,-587.27"/>
<polygon fill="black" stroke="black" points="1812.85,-590.26 1819.89,-582.34 1809.45,-584.14 1812.85,-590.26"/>
</g>
<!-- r&#45;umx -->
<g id="node44" class="node">
<title>r&#45;umx</title>
<g id="a_node44"><a xlink:href="https://github.com/conda-forge/r-umx-feedstock" xlink:title="r umx">
<ellipse fill="#fde725" stroke="black" cx="2006.5" cy="-566" rx="38.5" ry="18"/>
<text text-anchor="middle" x="2006.5" y="-562.3" font-family="Times,serif" font-size="14.00">r umx</text>
</a>
</g>
</g>
<!-- r&#45;diagrammersvg&#45;&gt;r&#45;umx -->
<g id="edge49" class="edge">
<title>r&#45;diagrammersvg&#45;&gt;r&#45;umx</title>
<path fill="none" stroke="black" d="M1980.73,-620.05C1984.7,-611.89 1989.54,-601.91 1993.96,-592.82"/>
<polygon fill="black" stroke="black" points="1997.12,-594.31 1998.35,-583.79 1990.83,-591.25 1997.12,-594.31"/>
</g>
<!-- r&#45;vtree -->
<g id="node45" class="node">
<title>r&#45;vtree</title>
<g id="a_node45"><a xlink:href="https://github.com/conda-forge/r-vtree-feedstock" xlink:title="r vtree">
<ellipse fill="#fde725" stroke="black" cx="1939.5" cy="-494" rx="42.49" ry="18"/>
<text text-anchor="middle" x="1939.5" y="-490.3" font-family="Times,serif" font-size="14.00">r vtree</text>
</a>
</g>
</g>
<!-- r&#45;diagrammersvg&#45;&gt;r&#45;vtree -->
<g id="edge50" class="edge">
<title>r&#45;diagrammersvg&#45;&gt;r&#45;vtree</title>
<path fill="none" stroke="black" d="M1967.75,-619.87C1964.94,-609.51 1961.37,-596.03 1958.5,-584 1953.58,-563.38 1948.6,-539.93 1944.97,-522.28"/>
<polygon fill="black" stroke="black" points="1948.33,-521.22 1942.9,-512.12 1941.47,-522.61 1948.33,-521.22"/>
</g>
<!-- r&#45;integr -->
<g id="node46" class="node">
<title>r&#45;integr</title>
<g id="a_node46"><a xlink:href="https://github.com/conda-forge/r-integr-feedstock" xlink:title="r integr">
<ellipse fill="#fde725" stroke="black" cx="2033.5" cy="-422" rx="46.29" ry="18"/>
<text text-anchor="middle" x="2033.5" y="-418.3" font-family="Times,serif" font-size="14.00">r integr</text>
</a>
</g>
</g>
<!-- r&#45;diagrammersvg&#45;&gt;r&#45;integr -->
<g id="edge51" class="edge">
<title>r&#45;diagrammersvg&#45;&gt;r&#45;integr</title>
<path fill="none" stroke="black" d="M2011.63,-621.5C2027.63,-612.99 2044.47,-600.7 2053.5,-584 2076.57,-541.34 2059.56,-483.23 2045.95,-449.75"/>
<polygon fill="black" stroke="black" points="2049.02,-448.03 2041.88,-440.2 2042.57,-450.77 2049.02,-448.03"/>
</g>
<!-- r&#45;dagwood -->
<g id="node47" class="node">
<title>r&#45;dagwood</title>
<g id="a_node47"><a xlink:href="https://github.com/conda-forge/r-dagwood-feedstock" xlink:title="r dagwood">
<ellipse fill="#fde725" stroke="black" cx="2191.5" cy="-278" rx="60" ry="18"/>
<text text-anchor="middle" x="2191.5" y="-274.3" font-family="Times,serif" font-size="14.00">r dagwood</text>
</a>
</g>
</g>
<!-- r&#45;dagitty&#45;&gt;r&#45;dagwood -->
<g id="edge52" class="edge">
<title>r&#45;dagitty&#45;&gt;r&#45;dagwood</title>
<path fill="none" stroke="black" d="M2191.5,-331.7C2191.5,-323.98 2191.5,-314.71 2191.5,-306.11"/>
<polygon fill="black" stroke="black" points="2195,-306.1 2191.5,-296.1 2188,-306.1 2195,-306.1"/>
</g>
<!-- r&#45;emld&#45;&gt;r&#45;eml -->
<g id="edge53" class="edge">
<title>r&#45;emld&#45;&gt;r&#45;eml</title>
<path fill="none" stroke="black" d="M1658.5,-475.7C1658.5,-467.98 1658.5,-458.71 1658.5,-450.11"/>
<polygon fill="black" stroke="black" points="1662,-450.1 1658.5,-440.1 1655,-450.1 1662,-450.1"/>
</g>
<!-- r&#45;autostats -->
<g id="node48" class="node">
<title>r&#45;autostats</title>
<g id="a_node48"><a xlink:href="https://github.com/conda-forge/r-autostats-feedstock" xlink:title="r autostats">
<ellipse fill="#fde725" stroke="black" cx="1779.5" cy="-494" rx="61.99" ry="18"/>
<text text-anchor="middle" x="1779.5" y="-490.3" font-family="Times,serif" font-size="14.00">r autostats</text>
</a>
</g>
</g>
<!-- r&#45;presenter&#45;&gt;r&#45;autostats -->
<g id="edge54" class="edge">
<title>r&#45;presenter&#45;&gt;r&#45;autostats</title>
<path fill="none" stroke="black" d="M1831.38,-548.41C1822.83,-539.61 1812.17,-528.63 1802.74,-518.92"/>
<polygon fill="black" stroke="black" points="1804.98,-516.2 1795.5,-511.47 1799.96,-521.08 1804.98,-516.2"/>
</g>
<!-- r&#45;tidyconsultant -->
<g id="node49" class="node">
<title>r&#45;tidyconsultant</title>
<g id="a_node49"><a xlink:href="https://github.com/conda-forge/r-tidyconsultant-feedstock" xlink:title="r tidyconsultant">
<ellipse fill="#fde725" stroke="black" cx="1850.5" cy="-422" rx="85.29" ry="18"/>
<text text-anchor="middle" x="1850.5" y="-418.3" font-family="Times,serif" font-size="14.00">r tidyconsultant</text>
</a>
</g>
</g>
<!-- r&#45;presenter&#45;&gt;r&#45;tidyconsultant -->
<g id="edge55" class="edge">
<title>r&#45;presenter&#45;&gt;r&#45;tidyconsultant</title>
<path fill="none" stroke="black" d="M1848.72,-547.82C1849.39,-537.46 1850.16,-523.98 1850.5,-512 1851.09,-491.28 1851.06,-467.83 1850.9,-450.21"/>
<polygon fill="black" stroke="black" points="1854.4,-450.03 1850.79,-440.07 1847.4,-450.1 1854.4,-450.03"/>
</g>
<!-- r&#45;autostats&#45;&gt;r&#45;tidyconsultant -->
<g id="edge65" class="edge">
<title>r&#45;autostats&#45;&gt;r&#45;tidyconsultant</title>
<path fill="none" stroke="black" d="M1796.33,-476.41C1805.21,-467.65 1816.29,-456.73 1826.1,-447.06"/>
<polygon fill="black" stroke="black" points="1828.64,-449.47 1833.3,-439.96 1823.72,-444.48 1828.64,-449.47"/>
</g>
<!-- r&#45;tiledb -->
<g id="node51" class="node">
<title>r&#45;tiledb</title>
<g id="a_node51"><a xlink:href="https://github.com/conda-forge/r-tiledb-feedstock/pull/46" xlink:title="r tiledb ✓">
<ellipse fill="#31688e" stroke="black" cx="2342.5" cy="-494" rx="52" ry="18"/>
<text text-anchor="middle" x="2342.5" y="-490.3" font-family="Times,serif" font-size="14.00" fill="white">r tiledb ✓</text>
</a>
</g>
</g>
<!-- r&#45;mgrs&#45;&gt;r&#45;tiledb -->
<!-- r&#45;destinie -->
<g id="node52" class="node">
<title>r&#45;destinie</title>
<g id="a_node52"><a xlink:href="https://github.com/conda-forge/r-destinie-feedstock/pull/6" xlink:title="r destinie ❎">
<ellipse fill="#31688e" stroke="black" cx="2342.5" cy="-422" rx="69.59" ry="18"/>
<text text-anchor="middle" x="2342.5" y="-418.3" font-family="Times,serif" font-size="14.00" fill="white">r destinie ❎</text>
</a>
</g>
</g>
<!-- r&#45;tiledb&#45;&gt;r&#45;destinie -->
<!-- r&#45;immunarch -->
<g id="node53" class="node">
<title>r&#45;immunarch</title>
<g id="a_node53"><a xlink:href="https://github.com/conda-forge/r-immunarch-feedstock" xlink:title="r immunarch">
<ellipse fill="#ff8c00" stroke="black" cx="2342.5" cy="-350" rx="71" ry="18"/>
<text text-anchor="middle" x="2342.5" y="-346.3" font-family="Times,serif" font-size="14.00">r immunarch</text>
</a>
</g>
</g>
<!-- r&#45;destinie&#45;&gt;r&#45;immunarch -->
<!-- rhumba -->
<g id="node54" class="node">
<title>rhumba</title>
<g id="a_node54"><a xlink:href="https://github.com/conda-forge/rhumba-feedstock/pull/14" xlink:title="rhumba ✓">
<ellipse fill="#31688e" stroke="black" cx="2342.5" cy="-278" rx="54" ry="18"/>
<text text-anchor="middle" x="2342.5" y="-274.3" font-family="Times,serif" font-size="14.00" fill="white">rhumba ✓</text>
</a>
</g>
</g>
<!-- r&#45;immunarch&#45;&gt;rhumba -->
<!-- r&#45;httpgd -->
<g id="node55" class="node">
<title>r&#45;httpgd</title>
<g id="a_node55"><a xlink:href="https://github.com/conda-forge/r-httpgd-feedstock/pull/1" xlink:title="r httpgd ❎">
<ellipse fill="#31688e" stroke="black" cx="2342.5" cy="-206" rx="63.89" ry="18"/>
<text text-anchor="middle" x="2342.5" y="-202.3" font-family="Times,serif" font-size="14.00" fill="white">r httpgd ❎</text>
</a>
</g>
</g>
<!-- rhumba&#45;&gt;r&#45;httpgd -->
<!-- r&#45;olinkanalyze -->
<g id="node59" class="node">
<title>r&#45;olinkanalyze</title>
<g id="a_node59"><a xlink:href="https://github.com/conda-forge/r-olinkanalyze-feedstock/pull/2" xlink:title="r olinkanalyze ✓">
<ellipse fill="#31688e" stroke="black" cx="2342.5" cy="-134" rx="83.39" ry="18"/>
<text text-anchor="middle" x="2342.5" y="-130.3" font-family="Times,serif" font-size="14.00" fill="white">r olinkanalyze ✓</text>
</a>
</g>
</g>
<!-- r&#45;httpgd&#45;&gt;r&#45;olinkanalyze -->
<!-- r&#45;mlr3verse -->
<g id="node56" class="node">
<title>r&#45;mlr3verse</title>
<g id="a_node56"><a xlink:href="https://github.com/conda-forge/r-mlr3verse-feedstock" xlink:title="r mlr3verse">
<ellipse fill="#fde725" stroke="black" cx="2342.5" cy="-18" rx="65.79" ry="18"/>
<text text-anchor="middle" x="2342.5" y="-14.3" font-family="Times,serif" font-size="14.00">r mlr3verse</text>
</a>
</g>
</g>
<!-- r&#45;mlr3proba -->
<g id="node57" class="node">
<title>r&#45;mlr3proba</title>
<g id="a_node57"><a xlink:href="https://github.com/conda-forge/r-mlr3proba-feedstock/pull/11" xlink:title="r mlr3proba ❎">
<ellipse fill="#31688e" stroke="black" cx="2342.5" cy="-90" rx="81.49" ry="18"/>
<text text-anchor="middle" x="2342.5" y="-86.3" font-family="Times,serif" font-size="14.00" fill="white">r mlr3proba ❎</text>
</a>
</g>
</g>
<!-- r&#45;mlr3proba&#45;&gt;r&#45;mlr3verse -->
<g id="edge62" class="edge">
<title>r&#45;mlr3proba&#45;&gt;r&#45;mlr3verse</title>
<path fill="none" stroke="black" d="M2342.5,-71.7C2342.5,-63.98 2342.5,-54.71 2342.5,-46.11"/>
<polygon fill="black" stroke="black" points="2346,-46.1 2342.5,-36.1 2339,-46.1 2346,-46.1"/>
</g>
<!-- r&#45;bootnet -->
<g id="node58" class="node">
<title>r&#45;bootnet</title>
<g id="a_node58"><a xlink:href="https://github.com/conda-forge/r-bootnet-feedstock" xlink:title="r bootnet">
<ellipse fill="#35b779" stroke="black" cx="163.5" cy="-494" rx="54" ry="18"/>
<text text-anchor="middle" x="163.5" y="-490.3" font-family="Times,serif" font-size="14.00">r bootnet</text>
</a>
</g>
</g>
<!-- r&#45;bootnet&#45;&gt;jasp -->
<g id="edge63" class="edge">
<title>r&#45;bootnet&#45;&gt;jasp</title>
<path fill="none" stroke="black" d="M194.92,-479.34C222.76,-467.24 263.25,-449.63 291.53,-437.33"/>
<polygon fill="black" stroke="black" points="293.21,-440.42 300.99,-433.22 290.42,-434 293.21,-440.42"/>
</g>
<!-- r&#45;diversity -->
<g id="node60" class="node">
<title>r&#45;diversity</title>
<g id="a_node60"><a xlink:href="https://github.com/conda-forge/r-diversity-feedstock/pull/1" xlink:title="r diversity ✓">
<ellipse fill="#31688e" stroke="black" cx="2530.5" cy="-90" rx="66.5" ry="18"/>
<text text-anchor="middle" x="2530.5" y="-86.3" font-family="Times,serif" font-size="14.00" fill="white">r diversity ✓</text>
</a>
</g>
</g>
<!-- r&#45;loon -->
<g id="node61" class="node">
<title>r&#45;loon</title>
<g id="a_node61"><a xlink:href="https://github.com/conda-forge/r-loon-feedstock/pull/1" xlink:title="r loon ❎">
<ellipse fill="#31688e" stroke="black" cx="2530.5" cy="-18" rx="52" ry="18"/>
<text text-anchor="middle" x="2530.5" y="-14.3" font-family="Times,serif" font-size="14.00" fill="white">r loon ❎</text>
</a>
</g>
</g>
<!-- r&#45;diversity&#45;&gt;r&#45;loon -->
</g>
</svg>
