<?xml version="1.0" encoding="UTF-8" standalone="no"?>
<!DOCTYPE svg PUBLIC "-//W3C//DTD SVG 1.1//EN"
 "http://www.w3.org/Graphics/SVG/1.1/DTD/svg11.dtd">
<!-- Generated by graphviz version 6.0.1 (20220911.2005)
 -->
<!-- Pages: 1 -->
<svg width="1629pt" height="1284pt"
 viewBox="0.00 0.00 1628.64 1284.00" xmlns="http://www.w3.org/2000/svg" xmlns:xlink="http://www.w3.org/1999/xlink">
<g id="graph0" class="graph" transform="scale(1 1) rotate(0) translate(4 1280)">
<polygon fill="white" stroke="none" points="-4,4 -4,-1280 1624.64,-1280 1624.64,4 -4,4"/>
<!-- r&#45;eml -->
<g id="node1" class="node">
<title>r&#45;eml</title>
<g id="a_node1"><a xlink:href="https://github.com/conda-forge/r-eml-feedstock" xlink:title="r eml">
<ellipse fill="#fde725" stroke="black" cx="518.64" cy="-90" rx="35.19" ry="18"/>
<text text-anchor="middle" x="518.64" y="-86.3" font-family="Times,serif" font-size="14.00">r eml</text>
</a>
</g>
</g>
<!-- r&#45;finch -->
<g id="node2" class="node">
<title>r&#45;finch</title>
<g id="a_node2"><a xlink:href="https://github.com/conda-forge/r-finch-feedstock" xlink:title="r finch">
<ellipse fill="#fde725" stroke="black" cx="518.64" cy="-18" rx="40.5" ry="18"/>
<text text-anchor="middle" x="518.64" y="-14.3" font-family="Times,serif" font-size="14.00">r finch</text>
</a>
</g>
</g>
<!-- r&#45;eml&#45;&gt;r&#45;finch -->
<g id="edge1" class="edge">
<title>r&#45;eml&#45;&gt;r&#45;finch</title>
<path fill="none" stroke="black" d="M518.64,-71.7C518.64,-63.98 518.64,-54.71 518.64,-46.11"/>
<polygon fill="black" stroke="black" points="522.14,-46.1 518.64,-36.1 515.14,-46.1 522.14,-46.1"/>
</g>
<!-- r&#45;rstan -->
<g id="node3" class="node">
<title>r&#45;rstan</title>
<g id="a_node3"><a xlink:href="https://github.com/conda-forge/r-rstan-feedstock" xlink:title="r rstan">
<ellipse fill="#35b779" stroke="black" cx="540.64" cy="-1042" rx="42.49" ry="18"/>
<text text-anchor="middle" x="540.64" y="-1038.3" font-family="Times,serif" font-size="14.00">r rstan</text>
</a>
</g>
</g>
<!-- r&#45;shinystan -->
<g id="node4" class="node">
<title>r&#45;shinystan</title>
<g id="a_node4"><a xlink:href="https://github.com/conda-forge/r-shinystan-feedstock" xlink:title="r shinystan">
<ellipse fill="#fde725" stroke="black" cx="302.64" cy="-970" rx="63.09" ry="18"/>
<text text-anchor="middle" x="302.64" y="-966.3" font-family="Times,serif" font-size="14.00">r shinystan</text>
</a>
</g>
</g>
<!-- r&#45;rstan&#45;&gt;r&#45;shinystan -->
<g id="edge2" class="edge">
<title>r&#45;rstan&#45;&gt;r&#45;shinystan</title>
<path fill="none" stroke="black" d="M506.8,-1031.05C467.1,-1019.37 400.86,-999.89 354.63,-986.29"/>
<polygon fill="black" stroke="black" points="355.38,-982.86 344.8,-983.4 353.41,-989.58 355.38,-982.86"/>
</g>
<!-- r&#45;rstanarm -->
<g id="node5" class="node">
<title>r&#45;rstanarm</title>
<g id="a_node5"><a xlink:href="https://github.com/conda-forge/r-rstanarm-feedstock" xlink:title="r rstanarm">
<ellipse fill="#fde725" stroke="black" cx="78.64" cy="-898" rx="61.19" ry="18"/>
<text text-anchor="middle" x="78.64" y="-894.3" font-family="Times,serif" font-size="14.00">r rstanarm</text>
</a>
</g>
</g>
<!-- r&#45;rstan&#45;&gt;r&#45;rstanarm -->
<g id="edge3" class="edge">
<title>r&#45;rstan&#45;&gt;r&#45;rstanarm</title>
<path fill="none" stroke="black" d="M498.6,-1040.08C434.2,-1037.4 308.23,-1027.12 209.64,-988 169.92,-972.24 130.14,-942.81 105.02,-922.12"/>
<polygon fill="black" stroke="black" points="107,-919.21 97.08,-915.47 102.5,-924.57 107,-919.21"/>
</g>
<!-- r&#45;brms -->
<g id="node6" class="node">
<title>r&#45;brms</title>
<g id="a_node6"><a xlink:href="https://github.com/conda-forge/r-brms-feedstock" xlink:title="r brms">
<ellipse fill="#fde725" stroke="black" cx="363.64" cy="-898" rx="42.49" ry="18"/>
<text text-anchor="middle" x="363.64" y="-894.3" font-family="Times,serif" font-size="14.00">r brms</text>
</a>
</g>
</g>
<!-- r&#45;rstan&#45;&gt;r&#45;brms -->
<g id="edge4" class="edge">
<title>r&#45;rstan&#45;&gt;r&#45;brms</title>
<path fill="none" stroke="black" d="M503.98,-1032.87C476.24,-1025.17 438.63,-1011.26 412.64,-988 393.73,-971.07 380.59,-945.05 372.72,-925.51"/>
<polygon fill="black" stroke="black" points="375.91,-924.06 369.08,-915.96 369.37,-926.55 375.91,-924.06"/>
</g>
<!-- r&#45;prophet -->
<g id="node7" class="node">
<title>r&#45;prophet</title>
<g id="a_node7"><a xlink:href="https://github.com/conda-forge/r-prophet-feedstock" xlink:title="r prophet">
<ellipse fill="#fde725" stroke="black" cx="706.64" cy="-970" rx="54.69" ry="18"/>
<text text-anchor="middle" x="706.64" y="-966.3" font-family="Times,serif" font-size="14.00">r prophet</text>
</a>
</g>
</g>
<!-- r&#45;rstan&#45;&gt;r&#45;prophet -->
<g id="edge5" class="edge">
<title>r&#45;rstan&#45;&gt;r&#45;prophet</title>
<path fill="none" stroke="black" d="M569.56,-1028.81C595.96,-1017.67 635.3,-1001.09 665.07,-988.53"/>
<polygon fill="black" stroke="black" points="666.52,-991.72 674.37,-984.61 663.8,-985.27 666.52,-991.72"/>
</g>
<!-- r&#45;metabma -->
<g id="node8" class="node">
<title>r&#45;metabma</title>
<g id="a_node8"><a xlink:href="https://github.com/conda-forge/r-metabma-feedstock" xlink:title="r metabma">
<ellipse fill="#fde725" stroke="black" cx="483.64" cy="-970" rx="61.99" ry="18"/>
<text text-anchor="middle" x="483.64" y="-966.3" font-family="Times,serif" font-size="14.00">r metabma</text>
</a>
</g>
</g>
<!-- r&#45;rstan&#45;&gt;r&#45;metabma -->
<g id="edge6" class="edge">
<title>r&#45;rstan&#45;&gt;r&#45;metabma</title>
<path fill="none" stroke="black" d="M527.42,-1024.76C520.33,-1016.06 511.45,-1005.15 503.54,-995.43"/>
<polygon fill="black" stroke="black" points="506.22,-993.18 497.19,-987.63 500.79,-997.6 506.22,-993.18"/>
</g>
<!-- r&#45;rlgt -->
<g id="node9" class="node">
<title>r&#45;rlgt</title>
<g id="a_node9"><a xlink:href="https://github.com/conda-forge/r-rlgt-feedstock" xlink:title="r rlgt">
<ellipse fill="#fde725" stroke="black" cx="598.64" cy="-970" rx="35.19" ry="18"/>
<text text-anchor="middle" x="598.64" y="-966.3" font-family="Times,serif" font-size="14.00">r rlgt</text>
</a>
</g>
</g>
<!-- r&#45;rstan&#45;&gt;r&#45;rlgt -->
<g id="edge7" class="edge">
<title>r&#45;rstan&#45;&gt;r&#45;rlgt</title>
<path fill="none" stroke="black" d="M554.1,-1024.76C561.42,-1015.93 570.61,-1004.83 578.75,-995.01"/>
<polygon fill="black" stroke="black" points="581.58,-997.08 585.26,-987.15 576.19,-992.61 581.58,-997.08"/>
</g>
<!-- r&#45;bayesforecast -->
<g id="node10" class="node">
<title>r&#45;bayesforecast</title>
<g id="a_node10"><a xlink:href="https://github.com/conda-forge/r-bayesforecast-feedstock" xlink:title="r bayesforecast">
<ellipse fill="#fde725" stroke="black" cx="806.64" cy="-898" rx="82.59" ry="18"/>
<text text-anchor="middle" x="806.64" y="-894.3" font-family="Times,serif" font-size="14.00">r bayesforecast</text>
</a>
</g>
</g>
<!-- r&#45;rstan&#45;&gt;r&#45;bayesforecast -->
<g id="edge8" class="edge">
<title>r&#45;rstan&#45;&gt;r&#45;bayesforecast</title>
<path fill="none" stroke="black" d="M581.04,-1036.22C639.14,-1028.6 742.43,-1012.07 770.64,-988 788.91,-972.41 798.02,-946.17 802.49,-926.21"/>
<polygon fill="black" stroke="black" points="805.98,-926.65 804.48,-916.16 799.11,-925.29 805.98,-926.65"/>
</g>
<!-- r&#45;stanova -->
<g id="node11" class="node">
<title>r&#45;stanova</title>
<g id="a_node11"><a xlink:href="https://github.com/conda-forge/r-stanova-feedstock" xlink:title="r stanova">
<ellipse fill="#fde725" stroke="black" cx="211.64" cy="-898" rx="54" ry="18"/>
<text text-anchor="middle" x="211.64" y="-894.3" font-family="Times,serif" font-size="14.00">r stanova</text>
</a>
</g>
</g>
<!-- r&#45;rstan&#45;&gt;r&#45;stanova -->
<g id="edge9" class="edge">
<title>r&#45;rstan&#45;&gt;r&#45;stanova</title>
<path fill="none" stroke="black" d="M498.71,-1039.5C423.12,-1035.9 268.36,-1024.2 230.64,-988 214.22,-972.23 210.26,-946.02 209.95,-926.11"/>
<polygon fill="black" stroke="black" points="213.45,-926.13 210.07,-916.09 206.45,-926.04 213.45,-926.13"/>
</g>
<!-- jasp -->
<g id="node12" class="node">
<title>jasp</title>
<g id="a_node12"><a xlink:href="https://github.com/conda-forge/jasp-feedstock" xlink:title="jasp">
<ellipse fill="#fde725" stroke="black" cx="293.64" cy="-826" rx="30" ry="18"/>
<text text-anchor="middle" x="293.64" y="-822.3" font-family="Times,serif" font-size="14.00">jasp</text>
</a>
</g>
</g>
<!-- r&#45;rstan&#45;&gt;jasp -->
<g id="edge10" class="edge">
<title>r&#45;rstan&#45;&gt;jasp</title>
<path fill="none" stroke="black" d="M581.74,-1037.37C694.64,-1025.97 994.98,-985.14 898.64,-880 860.54,-838.41 463.43,-829.32 334.1,-827.45"/>
<polygon fill="black" stroke="black" points="333.89,-823.95 323.85,-827.31 333.8,-830.95 333.89,-823.95"/>
</g>
<!-- r&#45;densestbayes -->
<g id="node13" class="node">
<title>r&#45;densestbayes</title>
<g id="a_node13"><a xlink:href="https://github.com/conda-forge/r-densestbayes-feedstock" xlink:title="r densestbayes">
<ellipse fill="#fde725" stroke="black" cx="955.64" cy="-826" rx="81.49" ry="18"/>
<text text-anchor="middle" x="955.64" y="-822.3" font-family="Times,serif" font-size="14.00">r densestbayes</text>
</a>
</g>
</g>
<!-- r&#45;rstan&#45;&gt;r&#45;densestbayes -->
<g id="edge11" class="edge">
<title>r&#45;rstan&#45;&gt;r&#45;densestbayes</title>
<path fill="none" stroke="black" d="M582.54,-1039.12C663.08,-1034.78 835.8,-1021.71 883.64,-988 928.07,-956.7 945.5,-891.41 952.01,-854.31"/>
<polygon fill="black" stroke="black" points="955.51,-854.64 953.64,-844.21 948.6,-853.53 955.51,-854.64"/>
</g>
<!-- r&#45;shinystan&#45;&gt;r&#45;rstanarm -->
<g id="edge12" class="edge">
<title>r&#45;shinystan&#45;&gt;r&#45;rstanarm</title>
<path fill="none" stroke="black" d="M261.82,-956.24C224.4,-944.55 168.87,-927.2 128.77,-914.67"/>
<polygon fill="black" stroke="black" points="129.78,-911.31 119.19,-911.67 127.69,-917.99 129.78,-911.31"/>
</g>
<!-- r&#45;shinystan&#45;&gt;r&#45;brms -->
<g id="edge13" class="edge">
<title>r&#45;shinystan&#45;&gt;r&#45;brms</title>
<path fill="none" stroke="black" d="M317.1,-952.41C324.7,-943.69 334.15,-932.85 342.55,-923.21"/>
<polygon fill="black" stroke="black" points="345.36,-925.31 349.29,-915.47 340.08,-920.71 345.36,-925.31"/>
</g>
<!-- r&#45;shinystan&#45;&gt;jasp -->
<g id="edge14" class="edge">
<title>r&#45;shinystan&#45;&gt;jasp</title>
<path fill="none" stroke="black" d="M301.56,-951.87C300.02,-927.67 297.21,-883.21 295.38,-854.39"/>
<polygon fill="black" stroke="black" points="298.86,-853.95 294.73,-844.19 291.87,-854.39 298.86,-853.95"/>
</g>
<!-- r&#45;rstanarm&#45;&gt;jasp -->
<g id="edge15" class="edge">
<title>r&#45;rstanarm&#45;&gt;jasp</title>
<path fill="none" stroke="black" d="M118.08,-884.16C158.14,-871.12 219.63,-851.1 258.19,-838.54"/>
<polygon fill="black" stroke="black" points="259.52,-841.79 267.95,-835.37 257.36,-835.13 259.52,-841.79"/>
</g>
<!-- r&#45;tidyposterior -->
<g id="node14" class="node">
<title>r&#45;tidyposterior</title>
<g id="a_node14"><a xlink:href="https://github.com/conda-forge/r-tidyposterior-feedstock" xlink:title="r tidyposterior">
<ellipse fill="#fde725" stroke="black" cx="78.64" cy="-826" rx="78.79" ry="18"/>
<text text-anchor="middle" x="78.64" y="-822.3" font-family="Times,serif" font-size="14.00">r tidyposterior</text>
</a>
</g>
</g>
<!-- r&#45;rstanarm&#45;&gt;r&#45;tidyposterior -->
<g id="edge16" class="edge">
<title>r&#45;rstanarm&#45;&gt;r&#45;tidyposterior</title>
<path fill="none" stroke="black" d="M78.64,-879.7C78.64,-871.98 78.64,-862.71 78.64,-854.11"/>
<polygon fill="black" stroke="black" points="82.14,-854.1 78.64,-844.1 75.14,-854.1 82.14,-854.1"/>
</g>
<!-- r&#45;prophet&#45;&gt;r&#45;bayesforecast -->
<g id="edge17" class="edge">
<title>r&#45;prophet&#45;&gt;r&#45;bayesforecast</title>
<path fill="none" stroke="black" d="M728.84,-953.46C742.3,-944.04 759.72,-931.85 774.66,-921.39"/>
<polygon fill="black" stroke="black" points="776.93,-924.07 783.12,-915.47 772.92,-918.33 776.93,-924.07"/>
</g>
<!-- r&#45;modeltime -->
<g id="node15" class="node">
<title>r&#45;modeltime</title>
<g id="a_node15"><a xlink:href="https://github.com/conda-forge/r-modeltime-feedstock" xlink:title="r modeltime">
<ellipse fill="#fde725" stroke="black" cx="638.64" cy="-898" rx="67.69" ry="18"/>
<text text-anchor="middle" x="638.64" y="-894.3" font-family="Times,serif" font-size="14.00">r modeltime</text>
</a>
</g>
</g>
<!-- r&#45;prophet&#45;&gt;r&#45;modeltime -->
<g id="edge18" class="edge">
<title>r&#45;prophet&#45;&gt;r&#45;modeltime</title>
<path fill="none" stroke="black" d="M690.87,-952.76C682.24,-943.88 671.39,-932.71 661.82,-922.85"/>
<polygon fill="black" stroke="black" points="664.28,-920.37 654.8,-915.63 659.26,-925.24 664.28,-920.37"/>
</g>
<!-- r&#45;metabma&#45;&gt;jasp -->
<g id="edge19" class="edge">
<title>r&#45;metabma&#45;&gt;jasp</title>
<path fill="none" stroke="black" d="M474.18,-952.19C462.43,-932.59 440.7,-900.31 414.64,-880 389.25,-860.21 355.33,-846.19 329.86,-837.56"/>
<polygon fill="black" stroke="black" points="330.8,-834.18 320.21,-834.41 328.63,-840.84 330.8,-834.18"/>
</g>
<!-- r&#45;tidybf -->
<g id="node16" class="node">
<title>r&#45;tidybf</title>
<g id="a_node16"><a xlink:href="https://github.com/conda-forge/r-tidybf-feedstock" xlink:title="r tidybf">
<ellipse fill="#fde725" stroke="black" cx="507.64" cy="-898" rx="45.5" ry="18"/>
<text text-anchor="middle" x="507.64" y="-894.3" font-family="Times,serif" font-size="14.00">r tidybf</text>
</a>
</g>
</g>
<!-- r&#45;metabma&#45;&gt;r&#45;tidybf -->
<g id="edge20" class="edge">
<title>r&#45;metabma&#45;&gt;r&#45;tidybf</title>
<path fill="none" stroke="black" d="M489.45,-952.05C492.15,-944.18 495.43,-934.62 498.46,-925.79"/>
<polygon fill="black" stroke="black" points="501.79,-926.87 501.72,-916.28 495.17,-924.6 501.79,-926.87"/>
</g>
<!-- r&#45;stanova&#45;&gt;jasp -->
<g id="edge21" class="edge">
<title>r&#45;stanova&#45;&gt;jasp</title>
<path fill="none" stroke="black" d="M230.66,-880.76C242.15,-870.96 256.91,-858.36 269.25,-847.83"/>
<polygon fill="black" stroke="black" points="271.62,-850.4 276.95,-841.25 267.07,-845.08 271.62,-850.4"/>
</g>
<!-- r&#45;reldist -->
<g id="node17" class="node">
<title>r&#45;reldist</title>
<g id="a_node17"><a xlink:href="https://github.com/conda-forge/r-reldist-feedstock" xlink:title="r reldist">
<ellipse fill="#fde725" stroke="black" cx="955.64" cy="-754" rx="48.19" ry="18"/>
<text text-anchor="middle" x="955.64" y="-750.3" font-family="Times,serif" font-size="14.00">r reldist</text>
</a>
</g>
</g>
<!-- r&#45;densestbayes&#45;&gt;r&#45;reldist -->
<g id="edge22" class="edge">
<title>r&#45;densestbayes&#45;&gt;r&#45;reldist</title>
<path fill="none" stroke="black" d="M955.64,-807.7C955.64,-799.98 955.64,-790.71 955.64,-782.11"/>
<polygon fill="black" stroke="black" points="959.14,-782.1 955.64,-772.1 952.14,-782.1 959.14,-782.1"/>
</g>
<!-- r&#45;sparklyr -->
<g id="node18" class="node">
<title>r&#45;sparklyr</title>
<g id="a_node18"><a xlink:href="https://github.com/conda-forge/r-sparklyr-feedstock/pull/42" xlink:title="r sparklyr ❎">
<ellipse fill="#31688e" stroke="black" cx="1442.64" cy="-458" rx="71" ry="18"/>
<text text-anchor="middle" x="1442.64" y="-454.3" font-family="Times,serif" font-size="14.00" fill="white">r sparklyr ❎</text>
</a>
</g>
</g>
<!-- r&#45;sparktf -->
<g id="node19" class="node">
<title>r&#45;sparktf</title>
<g id="a_node19"><a xlink:href="https://github.com/conda-forge/r-sparktf-feedstock" xlink:title="r sparktf">
<ellipse fill="#fde725" stroke="black" cx="1402.64" cy="-386" rx="51.5" ry="18"/>
<text text-anchor="middle" x="1402.64" y="-382.3" font-family="Times,serif" font-size="14.00">r sparktf</text>
</a>
</g>
</g>
<!-- r&#45;sparklyr&#45;&gt;r&#45;sparktf -->
<g id="edge23" class="edge">
<title>r&#45;sparklyr&#45;&gt;r&#45;sparktf</title>
<path fill="none" stroke="black" d="M1432.96,-440.05C1428.24,-431.8 1422.47,-421.7 1417.24,-412.54"/>
<polygon fill="black" stroke="black" points="1420.24,-410.73 1412.24,-403.79 1414.16,-414.21 1420.24,-410.73"/>
</g>
<!-- r&#45;sparkxgb -->
<g id="node20" class="node">
<title>r&#45;sparkxgb</title>
<g id="a_node20"><a xlink:href="https://github.com/conda-forge/r-sparkxgb-feedstock" xlink:title="r sparkxgb">
<ellipse fill="#fde725" stroke="black" cx="1482.64" cy="-314" rx="61.19" ry="18"/>
<text text-anchor="middle" x="1482.64" y="-310.3" font-family="Times,serif" font-size="14.00">r sparkxgb</text>
</a>
</g>
</g>
<!-- r&#45;sparklyr&#45;&gt;r&#45;sparkxgb -->
<g id="edge24" class="edge">
<title>r&#45;sparklyr&#45;&gt;r&#45;sparkxgb</title>
<path fill="none" stroke="black" d="M1450.19,-440.07C1454.56,-429.79 1459.92,-416.32 1463.64,-404 1469.81,-383.62 1474.75,-360.02 1478.05,-342.25"/>
<polygon fill="black" stroke="black" points="1481.51,-342.74 1479.84,-332.28 1474.62,-341.5 1481.51,-342.74"/>
</g>
<!-- r&#45;tfdatasets -->
<g id="node21" class="node">
<title>r&#45;tfdatasets</title>
<g id="a_node21"><a xlink:href="https://github.com/conda-forge/r-tfdatasets-feedstock" xlink:title="r tfdatasets">
<ellipse fill="#fde725" stroke="black" cx="1155.64" cy="-90" rx="65" ry="18"/>
<text text-anchor="middle" x="1155.64" y="-86.3" font-family="Times,serif" font-size="14.00">r tfdatasets</text>
</a>
</g>
</g>
<!-- r&#45;tfestimators -->
<g id="node22" class="node">
<title>r&#45;tfestimators</title>
<g id="a_node22"><a xlink:href="https://github.com/conda-forge/r-tfestimators-feedstock/pull/7" xlink:title="r tfestimators ❎">
<ellipse fill="#31688e" stroke="black" cx="1155.64" cy="-162" rx="89.08" ry="18"/>
<text text-anchor="middle" x="1155.64" y="-158.3" font-family="Times,serif" font-size="14.00" fill="white">r tfestimators ❎</text>
</a>
</g>
</g>
<!-- r&#45;tfestimators&#45;&gt;r&#45;tfdatasets -->
<g id="edge25" class="edge">
<title>r&#45;tfestimators&#45;&gt;r&#45;tfdatasets</title>
<path fill="none" stroke="black" d="M1155.64,-143.7C1155.64,-135.98 1155.64,-126.71 1155.64,-118.11"/>
<polygon fill="black" stroke="black" points="1159.14,-118.1 1155.64,-108.1 1152.14,-118.1 1159.14,-118.1"/>
</g>
<!-- r&#45;xtensor -->
<g id="node23" class="node">
<title>r&#45;xtensor</title>
<g id="a_node23"><a xlink:href="https://github.com/conda-forge/r-xtensor-feedstock/pull/20" xlink:title="r xtensor ✓">
<ellipse fill="#31688e" stroke="black" cx="1155.64" cy="-1258" rx="60.5" ry="18"/>
<text text-anchor="middle" x="1155.64" y="-1254.3" font-family="Times,serif" font-size="14.00" fill="white">r xtensor ✓</text>
</a>
</g>
</g>
<!-- yggdrasil -->
<g id="node24" class="node">
<title>yggdrasil</title>
<g id="a_node24"><a xlink:href="https://github.com/conda-forge/yggdrasil-feedstock/pull/36" xlink:title="yggdrasil ❎">
<ellipse fill="#31688e" stroke="black" cx="1155.64" cy="-1186" rx="68.49" ry="18"/>
<text text-anchor="middle" x="1155.64" y="-1182.3" font-family="Times,serif" font-size="14.00" fill="white">yggdrasil ❎</text>
</a>
</g>
</g>
<!-- r&#45;xtensor&#45;&gt;yggdrasil -->
<!-- r&#45;daff -->
<g id="node25" class="node">
<title>r&#45;daff</title>
<g id="a_node25"><a xlink:href="https://github.com/conda-forge/r-daff-feedstock" xlink:title="r daff">
<ellipse fill="#35b779" stroke="black" cx="1155.64" cy="-1114" rx="36" ry="18"/>
<text text-anchor="middle" x="1155.64" y="-1110.3" font-family="Times,serif" font-size="14.00">r daff</text>
</a>
</g>
</g>
<!-- yggdrasil&#45;&gt;r&#45;daff -->
<!-- r&#45;concaveman -->
<g id="node32" class="node">
<title>r&#45;concaveman</title>
<g id="a_node32"><a xlink:href="https://github.com/conda-forge/r-concaveman-feedstock" xlink:title="r concaveman">
<ellipse fill="#35b779" stroke="black" cx="1155.64" cy="-1042" rx="75.5" ry="18"/>
<text text-anchor="middle" x="1155.64" y="-1038.3" font-family="Times,serif" font-size="14.00">r concaveman</text>
</a>
</g>
</g>
<!-- r&#45;daff&#45;&gt;r&#45;concaveman -->
<!-- r&#45;rmapshaper -->
<g id="node26" class="node">
<title>r&#45;rmapshaper</title>
<g id="a_node26"><a xlink:href="https://github.com/conda-forge/r-rmapshaper-feedstock" xlink:title="r rmapshaper">
<ellipse fill="#fde725" stroke="black" cx="1351.64" cy="-826" rx="74.19" ry="18"/>
<text text-anchor="middle" x="1351.64" y="-822.3" font-family="Times,serif" font-size="14.00">r rmapshaper</text>
</a>
</g>
</g>
<!-- r&#45;geojsonio -->
<g id="node27" class="node">
<title>r&#45;geojsonio</title>
<g id="a_node27"><a xlink:href="https://github.com/conda-forge/r-geojsonio-feedstock" xlink:title="r geojsonio">
<ellipse fill="#35b779" stroke="black" cx="1493.64" cy="-898" rx="61.99" ry="18"/>
<text text-anchor="middle" x="1493.64" y="-894.3" font-family="Times,serif" font-size="14.00">r geojsonio</text>
</a>
</g>
</g>
<!-- r&#45;geojsonio&#45;&gt;r&#45;rmapshaper -->
<g id="edge28" class="edge">
<title>r&#45;geojsonio&#45;&gt;r&#45;rmapshaper</title>
<path fill="none" stroke="black" d="M1463.53,-882.15C1442.78,-871.93 1414.96,-858.21 1392.25,-847.02"/>
<polygon fill="black" stroke="black" points="1393.71,-843.83 1383.19,-842.55 1390.61,-850.11 1393.71,-843.83"/>
</g>
<!-- r&#45;sen2r -->
<g id="node28" class="node">
<title>r&#45;sen2r</title>
<g id="a_node28"><a xlink:href="https://github.com/conda-forge/r-sen2r-feedstock" xlink:title="r sen2r">
<ellipse fill="#fde725" stroke="black" cx="1490.64" cy="-826" rx="44.39" ry="18"/>
<text text-anchor="middle" x="1490.64" y="-822.3" font-family="Times,serif" font-size="14.00">r sen2r</text>
</a>
</g>
</g>
<!-- r&#45;geojsonio&#45;&gt;r&#45;sen2r -->
<g id="edge29" class="edge">
<title>r&#45;geojsonio&#45;&gt;r&#45;sen2r</title>
<path fill="none" stroke="black" d="M1492.9,-879.7C1492.57,-871.98 1492.17,-862.71 1491.8,-854.11"/>
<polygon fill="black" stroke="black" points="1495.3,-853.95 1491.38,-844.1 1488.31,-854.25 1495.3,-853.95"/>
</g>
<!-- r&#45;jsonvalidate -->
<g id="node29" class="node">
<title>r&#45;jsonvalidate</title>
<g id="a_node29"><a xlink:href="https://github.com/conda-forge/r-jsonvalidate-feedstock" xlink:title="r jsonvalidate">
<ellipse fill="#35b779" stroke="black" cx="1463.64" cy="-970" rx="74.19" ry="18"/>
<text text-anchor="middle" x="1463.64" y="-966.3" font-family="Times,serif" font-size="14.00">r jsonvalidate</text>
</a>
</g>
</g>
<!-- r&#45;geojsonlint -->
<g id="node30" class="node">
<title>r&#45;geojsonlint</title>
<g id="a_node30"><a xlink:href="https://github.com/conda-forge/r-geojsonlint-feedstock" xlink:title="r geojsonlint">
<ellipse fill="#fde725" stroke="black" cx="1344.64" cy="-898" rx="69.59" ry="18"/>
<text text-anchor="middle" x="1344.64" y="-894.3" font-family="Times,serif" font-size="14.00">r geojsonlint</text>
</a>
</g>
</g>
<!-- r&#45;jsonvalidate&#45;&gt;r&#45;geojsonlint -->
<g id="edge30" class="edge">
<title>r&#45;jsonvalidate&#45;&gt;r&#45;geojsonlint</title>
<path fill="none" stroke="black" d="M1436.64,-953.12C1420.06,-943.36 1398.61,-930.75 1380.6,-920.15"/>
<polygon fill="black" stroke="black" points="1381.93,-916.87 1371.54,-914.82 1378.38,-922.91 1381.93,-916.87"/>
</g>
<!-- r&#45;cffr -->
<g id="node31" class="node">
<title>r&#45;cffr</title>
<g id="a_node31"><a xlink:href="https://github.com/conda-forge/r-cffr-feedstock" xlink:title="r cffr">
<ellipse fill="#fde725" stroke="black" cx="1586.64" cy="-826" rx="34" ry="18"/>
<text text-anchor="middle" x="1586.64" y="-822.3" font-family="Times,serif" font-size="14.00">r cffr</text>
</a>
</g>
</g>
<!-- r&#45;jsonvalidate&#45;&gt;r&#45;cffr -->
<g id="edge31" class="edge">
<title>r&#45;jsonvalidate&#45;&gt;r&#45;cffr</title>
<path fill="none" stroke="black" d="M1507.48,-955.43C1527.64,-947.09 1550.23,-934.39 1564.64,-916 1578.42,-898.43 1583.7,-873.4 1585.66,-854.36"/>
<polygon fill="black" stroke="black" points="1589.17,-854.45 1586.46,-844.21 1582.19,-853.9 1589.17,-854.45"/>
</g>
<!-- r&#45;geojsonlint&#45;&gt;r&#45;rmapshaper -->
<g id="edge32" class="edge">
<title>r&#45;geojsonlint&#45;&gt;r&#45;rmapshaper</title>
<path fill="none" stroke="black" d="M1346.37,-879.7C1347.14,-871.98 1348.07,-862.71 1348.93,-854.11"/>
<polygon fill="black" stroke="black" points="1352.42,-854.4 1349.93,-844.1 1345.45,-853.71 1352.42,-854.4"/>
</g>
<!-- r&#45;mlflow -->
<g id="node35" class="node">
<title>r&#45;mlflow</title>
<g id="a_node35"><a xlink:href="https://github.com/conda-forge/r-mlflow-feedstock/pull/36" xlink:title="r mlflow ❎">
<ellipse fill="#31688e" stroke="black" cx="1155.64" cy="-970" rx="63.09" ry="18"/>
<text text-anchor="middle" x="1155.64" y="-966.3" font-family="Times,serif" font-size="14.00" fill="white">r mlflow ❎</text>
</a>
</g>
</g>
<!-- r&#45;concaveman&#45;&gt;r&#45;mlflow -->
<!-- r&#45;jsonld -->
<g id="node33" class="node">
<title>r&#45;jsonld</title>
<g id="a_node33"><a xlink:href="https://github.com/conda-forge/r-jsonld-feedstock" xlink:title="r jsonld">
<ellipse fill="#35b779" stroke="black" cx="518.64" cy="-234" rx="46.29" ry="18"/>
<text text-anchor="middle" x="518.64" y="-230.3" font-family="Times,serif" font-size="14.00">r jsonld</text>
</a>
</g>
</g>
<!-- r&#45;emld -->
<g id="node34" class="node">
<title>r&#45;emld</title>
<g id="a_node34"><a xlink:href="https://github.com/conda-forge/r-emld-feedstock" xlink:title="r emld">
<ellipse fill="#fde725" stroke="black" cx="518.64" cy="-162" rx="41" ry="18"/>
<text text-anchor="middle" x="518.64" y="-158.3" font-family="Times,serif" font-size="14.00">r emld</text>
</a>
</g>
</g>
<!-- r&#45;jsonld&#45;&gt;r&#45;emld -->
<g id="edge34" class="edge">
<title>r&#45;jsonld&#45;&gt;r&#45;emld</title>
<path fill="none" stroke="black" d="M518.64,-215.7C518.64,-207.98 518.64,-198.71 518.64,-190.11"/>
<polygon fill="black" stroke="black" points="522.14,-190.1 518.64,-180.1 515.14,-190.1 522.14,-190.1"/>
</g>
<!-- r&#45;emld&#45;&gt;r&#45;eml -->
<g id="edge35" class="edge">
<title>r&#45;emld&#45;&gt;r&#45;eml</title>
<path fill="none" stroke="black" d="M518.64,-143.7C518.64,-135.98 518.64,-126.71 518.64,-118.11"/>
<polygon fill="black" stroke="black" points="522.14,-118.1 518.64,-108.1 515.14,-118.1 522.14,-118.1"/>
</g>
<!-- r&#45;destinie -->
<g id="node41" class="node">
<title>r&#45;destinie</title>
<g id="a_node41"><a xlink:href="https://github.com/conda-forge/r-destinie-feedstock/pull/6" xlink:title="r destinie ❎">
<ellipse fill="#31688e" stroke="black" cx="1155.64" cy="-898" rx="69.59" ry="18"/>
<text text-anchor="middle" x="1155.64" y="-894.3" font-family="Times,serif" font-size="14.00" fill="white">r destinie ❎</text>
</a>
</g>
</g>
<!-- r&#45;mlflow&#45;&gt;r&#45;destinie -->
<!-- r&#45;randomcolor -->
<g id="node36" class="node">
<title>r&#45;randomcolor</title>
<g id="a_node36"><a xlink:href="https://github.com/conda-forge/r-randomcolor-feedstock" xlink:title="r randomcolor">
<ellipse fill="#35b779" stroke="black" cx="497.64" cy="-494" rx="76.89" ry="18"/>
<text text-anchor="middle" x="497.64" y="-490.3" font-family="Times,serif" font-size="14.00">r randomcolor</text>
</a>
</g>
</g>
<!-- r&#45;bibitr -->
<g id="node37" class="node">
<title>r&#45;bibitr</title>
<g id="a_node37"><a xlink:href="https://github.com/conda-forge/r-bibitr-feedstock" xlink:title="r bibitr">
<ellipse fill="#fde725" stroke="black" cx="434.64" cy="-422" rx="44.39" ry="18"/>
<text text-anchor="middle" x="434.64" y="-418.3" font-family="Times,serif" font-size="14.00">r bibitr</text>
</a>
</g>
</g>
<!-- r&#45;randomcolor&#45;&gt;r&#45;bibitr -->
<g id="edge37" class="edge">
<title>r&#45;randomcolor&#45;&gt;r&#45;bibitr</title>
<path fill="none" stroke="black" d="M482.39,-476.05C474.54,-467.33 464.83,-456.54 456.23,-446.98"/>
<polygon fill="black" stroke="black" points="458.61,-444.4 449.32,-439.31 453.41,-449.08 458.61,-444.4"/>
</g>
<!-- r&#45;presenter -->
<g id="node38" class="node">
<title>r&#45;presenter</title>
<g id="a_node38"><a xlink:href="https://github.com/conda-forge/r-presenter-feedstock" xlink:title="r presenter">
<ellipse fill="#fde725" stroke="black" cx="560.64" cy="-422" rx="63.89" ry="18"/>
<text text-anchor="middle" x="560.64" y="-418.3" font-family="Times,serif" font-size="14.00">r presenter</text>
</a>
</g>
</g>
<!-- r&#45;randomcolor&#45;&gt;r&#45;presenter -->
<g id="edge38" class="edge">
<title>r&#45;randomcolor&#45;&gt;r&#45;presenter</title>
<path fill="none" stroke="black" d="M512.89,-476.05C520.63,-467.46 530.17,-456.86 538.69,-447.4"/>
<polygon fill="black" stroke="black" points="541.44,-449.56 545.53,-439.79 536.24,-444.88 541.44,-449.56"/>
</g>
<!-- r&#45;autostats -->
<g id="node39" class="node">
<title>r&#45;autostats</title>
<g id="a_node39"><a xlink:href="https://github.com/conda-forge/r-autostats-feedstock" xlink:title="r autostats">
<ellipse fill="#fde725" stroke="black" cx="515.64" cy="-350" rx="61.99" ry="18"/>
<text text-anchor="middle" x="515.64" y="-346.3" font-family="Times,serif" font-size="14.00">r autostats</text>
</a>
</g>
</g>
<!-- r&#45;presenter&#45;&gt;r&#45;autostats -->
<g id="edge39" class="edge">
<title>r&#45;presenter&#45;&gt;r&#45;autostats</title>
<path fill="none" stroke="black" d="M549.75,-404.05C544.39,-395.71 537.82,-385.49 531.88,-376.25"/>
<polygon fill="black" stroke="black" points="534.79,-374.31 526.44,-367.79 528.9,-378.09 534.79,-374.31"/>
</g>
<!-- r&#45;tidyconsultant -->
<g id="node40" class="node">
<title>r&#45;tidyconsultant</title>
<g id="a_node40"><a xlink:href="https://github.com/conda-forge/r-tidyconsultant-feedstock" xlink:title="r tidyconsultant">
<ellipse fill="#fde725" stroke="black" cx="560.64" cy="-278" rx="85.29" ry="18"/>
<text text-anchor="middle" x="560.64" y="-274.3" font-family="Times,serif" font-size="14.00">r tidyconsultant</text>
</a>
</g>
</g>
<!-- r&#45;presenter&#45;&gt;r&#45;tidyconsultant -->
<g id="edge40" class="edge">
<title>r&#45;presenter&#45;&gt;r&#45;tidyconsultant</title>
<path fill="none" stroke="black" d="M571.42,-404.08C577.18,-394.03 583.68,-380.78 586.64,-368 590.26,-352.41 590.26,-347.59 586.64,-332 584.49,-322.72 580.47,-313.18 576.22,-304.81"/>
<polygon fill="black" stroke="black" points="579.25,-303.05 571.42,-295.92 573.09,-306.38 579.25,-303.05"/>
</g>
<!-- r&#45;autostats&#45;&gt;r&#45;tidyconsultant -->
<g id="edge50" class="edge">
<title>r&#45;autostats&#45;&gt;r&#45;tidyconsultant</title>
<path fill="none" stroke="black" d="M526.54,-332.05C531.76,-323.92 538.14,-314 543.97,-304.94"/>
<polygon fill="black" stroke="black" points="547.07,-306.58 549.54,-296.28 541.19,-302.79 547.07,-306.58"/>
</g>
<!-- r&#45;dot -->
<g id="node42" class="node">
<title>r&#45;dot</title>
<g id="a_node42"><a xlink:href="https://github.com/conda-forge/r-dot-feedstock" xlink:title="r dot">
<ellipse fill="#35b779" stroke="black" cx="1155.64" cy="-826" rx="33.29" ry="18"/>
<text text-anchor="middle" x="1155.64" y="-822.3" font-family="Times,serif" font-size="14.00">r dot</text>
</a>
</g>
</g>
<!-- r&#45;destinie&#45;&gt;r&#45;dot -->
<!-- rhumba -->
<g id="node43" class="node">
<title>rhumba</title>
<g id="a_node43"><a xlink:href="https://github.com/conda-forge/rhumba-feedstock/pull/14" xlink:title="rhumba ✓">
<ellipse fill="#31688e" stroke="black" cx="1155.64" cy="-754" rx="54" ry="18"/>
<text text-anchor="middle" x="1155.64" y="-750.3" font-family="Times,serif" font-size="14.00" fill="white">rhumba ✓</text>
</a>
</g>
</g>
<!-- r&#45;dot&#45;&gt;rhumba -->
<!-- r&#45;httpgd -->
<g id="node45" class="node">
<title>r&#45;httpgd</title>
<g id="a_node45"><a xlink:href="https://github.com/conda-forge/r-httpgd-feedstock/pull/1" xlink:title="r httpgd ❎">
<ellipse fill="#31688e" stroke="black" cx="1155.64" cy="-682" rx="63.89" ry="18"/>
<text text-anchor="middle" x="1155.64" y="-678.3" font-family="Times,serif" font-size="14.00" fill="white">r httpgd ❎</text>
</a>
</g>
</g>
<!-- rhumba&#45;&gt;r&#45;httpgd -->
<!-- r&#45;umx -->
<g id="node44" class="node">
<title>r&#45;umx</title>
<g id="a_node44"><a xlink:href="https://github.com/conda-forge/r-umx-feedstock" xlink:title="r umx">
<ellipse fill="#fde725" stroke="black" cx="1083.64" cy="-422" rx="38.5" ry="18"/>
<text text-anchor="middle" x="1083.64" y="-418.3" font-family="Times,serif" font-size="14.00">r umx</text>
</a>
</g>
</g>
<!-- r&#45;diversity -->
<g id="node51" class="node">
<title>r&#45;diversity</title>
<g id="a_node51"><a xlink:href="https://github.com/conda-forge/r-diversity-feedstock/pull/1" xlink:title="r diversity ✓">
<ellipse fill="#31688e" stroke="black" cx="1155.64" cy="-610" rx="66.5" ry="18"/>
<text text-anchor="middle" x="1155.64" y="-606.3" font-family="Times,serif" font-size="14.00" fill="white">r diversity ✓</text>
</a>
</g>
</g>
<!-- r&#45;httpgd&#45;&gt;r&#45;diversity -->
<!-- r&#45;diagrammersvg -->
<g id="node46" class="node">
<title>r&#45;diagrammersvg</title>
<g id="a_node46"><a xlink:href="https://github.com/conda-forge/r-diagrammersvg-feedstock" xlink:title="r diagrammersvg">
<ellipse fill="#35b779" stroke="black" cx="1150.64" cy="-494" rx="91" ry="18"/>
<text text-anchor="middle" x="1150.64" y="-490.3" font-family="Times,serif" font-size="14.00">r diagrammersvg</text>
</a>
</g>
</g>
<!-- r&#45;diagrammersvg&#45;&gt;r&#45;umx -->
<g id="edge45" class="edge">
<title>r&#45;diagrammersvg&#45;&gt;r&#45;umx</title>
<path fill="none" stroke="black" d="M1134.42,-476.05C1125.87,-467.12 1115.24,-456.01 1105.92,-446.28"/>
<polygon fill="black" stroke="black" points="1108.24,-443.63 1098.79,-438.83 1103.18,-448.47 1108.24,-443.63"/>
</g>
<!-- r&#45;vtree -->
<g id="node47" class="node">
<title>r&#45;vtree</title>
<g id="a_node47"><a xlink:href="https://github.com/conda-forge/r-vtree-feedstock" xlink:title="r vtree">
<ellipse fill="#fde725" stroke="black" cx="1150.64" cy="-350" rx="42.49" ry="18"/>
<text text-anchor="middle" x="1150.64" y="-346.3" font-family="Times,serif" font-size="14.00">r vtree</text>
</a>
</g>
</g>
<!-- r&#45;diagrammersvg&#45;&gt;r&#45;vtree -->
<g id="edge46" class="edge">
<title>r&#45;diagrammersvg&#45;&gt;r&#45;vtree</title>
<path fill="none" stroke="black" d="M1150.64,-475.87C1150.64,-451.67 1150.64,-407.21 1150.64,-378.39"/>
<polygon fill="black" stroke="black" points="1154.14,-378.19 1150.64,-368.19 1147.14,-378.19 1154.14,-378.19"/>
</g>
<!-- r&#45;integr -->
<g id="node48" class="node">
<title>r&#45;integr</title>
<g id="a_node48"><a xlink:href="https://github.com/conda-forge/r-integr-feedstock" xlink:title="r integr">
<ellipse fill="#fde725" stroke="black" cx="1220.64" cy="-278" rx="46.29" ry="18"/>
<text text-anchor="middle" x="1220.64" y="-274.3" font-family="Times,serif" font-size="14.00">r integr</text>
</a>
</g>
</g>
<!-- r&#45;diagrammersvg&#45;&gt;r&#45;integr -->
<g id="edge47" class="edge">
<title>r&#45;diagrammersvg&#45;&gt;r&#45;integr</title>
<path fill="none" stroke="black" d="M1158.73,-475.96C1169.72,-452.22 1189.43,-407.65 1201.64,-368 1207.91,-347.65 1212.85,-324.05 1216.12,-306.28"/>
<polygon fill="black" stroke="black" points="1219.59,-306.75 1217.89,-296.29 1212.69,-305.53 1219.59,-306.75"/>
</g>
<!-- r&#45;dagitty -->
<g id="node49" class="node">
<title>r&#45;dagitty</title>
<g id="a_node49"><a xlink:href="https://github.com/conda-forge/r-dagitty-feedstock" xlink:title="r dagitty">
<ellipse fill="#35b779" stroke="black" cx="1447.64" cy="-162" rx="51.5" ry="18"/>
<text text-anchor="middle" x="1447.64" y="-158.3" font-family="Times,serif" font-size="14.00">r dagitty</text>
</a>
</g>
</g>
<!-- r&#45;dagwood -->
<g id="node50" class="node">
<title>r&#45;dagwood</title>
<g id="a_node50"><a xlink:href="https://github.com/conda-forge/r-dagwood-feedstock" xlink:title="r dagwood">
<ellipse fill="#fde725" stroke="black" cx="1447.64" cy="-90" rx="60" ry="18"/>
<text text-anchor="middle" x="1447.64" y="-86.3" font-family="Times,serif" font-size="14.00">r dagwood</text>
</a>
</g>
</g>
<!-- r&#45;dagitty&#45;&gt;r&#45;dagwood -->
<g id="edge48" class="edge">
<title>r&#45;dagitty&#45;&gt;r&#45;dagwood</title>
<path fill="none" stroke="black" d="M1447.64,-143.7C1447.64,-135.98 1447.64,-126.71 1447.64,-118.11"/>
<polygon fill="black" stroke="black" points="1451.14,-118.1 1447.64,-108.1 1444.14,-118.1 1451.14,-118.1"/>
</g>
<!-- r&#45;loon -->
<g id="node52" class="node">
<title>r&#45;loon</title>
<g id="a_node52"><a xlink:href="https://github.com/conda-forge/r-loon-feedstock/pull/1" xlink:title="r loon ❎">
<ellipse fill="#31688e" stroke="black" cx="1155.64" cy="-538" rx="52" ry="18"/>
<text text-anchor="middle" x="1155.64" y="-534.3" font-family="Times,serif" font-size="14.00" fill="white">r loon ❎</text>
</a>
</g>
</g>
<!-- r&#45;diversity&#45;&gt;r&#45;loon -->
</g>
</svg>
