<?xml version="1.0" encoding="UTF-8" standalone="no"?>
<!DOCTYPE svg PUBLIC "-//W3C//DTD SVG 1.1//EN"
 "http://www.w3.org/Graphics/SVG/1.1/DTD/svg11.dtd">
<!-- Generated by graphviz version 2.47.2 (20210527.1257)
 -->
<!-- Pages: 1 -->
<svg width="1421pt" height="1704pt"
 viewBox="0.00 0.00 1420.75 1704.00" xmlns="http://www.w3.org/2000/svg" xmlns:xlink="http://www.w3.org/1999/xlink">
<g id="graph0" class="graph" transform="scale(1 1) rotate(0) translate(4 1700)">
<polygon fill="white" stroke="transparent" points="-4,4 -4,-1700 1416.75,-1700 1416.75,4 -4,4"/>
<!-- r&#45;cairo -->
<g id="node1" class="node">
<title>r&#45;cairo</title>
<g id="a_node1"><a xlink:href="https://github.com/conda-forge/r-cairo-feedstock/pull/12" xlink:title="r cairo ❎">
<ellipse fill="#31688e" stroke="black" cx="958.5" cy="-806" rx="53.5" ry="18"/>
<text text-anchor="middle" x="958.5" y="-802.3" font-family="Times-Roman" font-size="14.00" fill="white">r cairo ❎</text>
</a>
</g>
</g>
<!-- rpy2 -->
<g id="node2" class="node">
<title>rpy2</title>
<g id="a_node2"><a xlink:href="https://github.com/conda-forge/rpy2-feedstock" xlink:title="rpy2">
<ellipse fill="#fde725" stroke="black" cx="908.5" cy="-734" rx="32" ry="18"/>
<text text-anchor="middle" x="908.5" y="-730.3" font-family="Times-Roman" font-size="14.00">rpy2</text>
</a>
</g>
</g>
<!-- r&#45;cairo&#45;&gt;rpy2 -->
<g id="edge1" class="edge">
<title>r&#45;cairo&#45;&gt;rpy2</title>
<path fill="none" stroke="black" d="M946.65,-788.41C940.46,-779.74 932.77,-768.97 925.91,-759.38"/>
<polygon fill="black" stroke="black" points="928.58,-757.09 919.92,-750.99 922.88,-761.16 928.58,-757.09"/>
</g>
<!-- r&#45;ggrastr -->
<g id="node3" class="node">
<title>r&#45;ggrastr</title>
<g id="a_node3"><a xlink:href="https://github.com/conda-forge/r-ggrastr-feedstock" xlink:title="r ggrastr">
<ellipse fill="#fde725" stroke="black" cx="1009.5" cy="-734" rx="50.89" ry="18"/>
<text text-anchor="middle" x="1009.5" y="-730.3" font-family="Times-Roman" font-size="14.00">r ggrastr</text>
</a>
</g>
</g>
<!-- r&#45;cairo&#45;&gt;r&#45;ggrastr -->
<g id="edge2" class="edge">
<title>r&#45;cairo&#45;&gt;r&#45;ggrastr</title>
<path fill="none" stroke="black" d="M970.59,-788.41C976.72,-779.99 984.3,-769.58 991.14,-760.2"/>
<polygon fill="black" stroke="black" points="994.09,-762.1 997.15,-751.96 988.43,-757.98 994.09,-762.1"/>
</g>
<!-- r&#45;lidr -->
<g id="node4" class="node">
<title>r&#45;lidr</title>
<g id="a_node4"><a xlink:href="https://github.com/conda-forge/r-lidr-feedstock/pull/34" xlink:title="r lidr ❎">
<ellipse fill="#31688e" stroke="black" cx="1036.5" cy="-1678" rx="46.29" ry="18"/>
<text text-anchor="middle" x="1036.5" y="-1674.3" font-family="Times-Roman" font-size="14.00" fill="white">r lidr ❎</text>
</a>
</g>
</g>
<!-- r&#45;mustat -->
<g id="node5" class="node">
<title>r&#45;mustat</title>
<g id="a_node5"><a xlink:href="https://github.com/conda-forge/r-mustat-feedstock/pull/4" xlink:title="r mustat ✓">
<ellipse fill="#31688e" stroke="black" cx="1036.5" cy="-1606" rx="60" ry="18"/>
<text text-anchor="middle" x="1036.5" y="-1602.3" font-family="Times-Roman" font-size="14.00" fill="white">r mustat ✓</text>
</a>
</g>
</g>
<!-- r&#45;lidr&#45;&gt;r&#45;mustat -->
<!-- r&#45;elpigraph.r -->
<g id="node18" class="node">
<title>r&#45;elpigraph.r</title>
<g id="a_node18"><a xlink:href="https://github.com/conda-forge/r-elpigraph.r-feedstock/pull/5" xlink:title="r elpigraph r ✓">
<ellipse fill="#31688e" stroke="black" cx="1036.5" cy="-1534" rx="78" ry="18"/>
<text text-anchor="middle" x="1036.5" y="-1530.3" font-family="Times-Roman" font-size="14.00" fill="white">r elpigraph r ✓</text>
</a>
</g>
</g>
<!-- r&#45;mustat&#45;&gt;r&#45;elpigraph.r -->
<!-- r&#45;mapedit -->
<g id="node6" class="node">
<title>r&#45;mapedit</title>
<g id="a_node6"><a xlink:href="https://github.com/conda-forge/r-mapedit-feedstock" xlink:title="r mapedit">
<ellipse fill="#fde725" stroke="black" cx="434.5" cy="-322" rx="54.69" ry="18"/>
<text text-anchor="middle" x="434.5" y="-318.3" font-family="Times-Roman" font-size="14.00">r mapedit</text>
</a>
</g>
</g>
<!-- r&#45;robis -->
<g id="node7" class="node">
<title>r&#45;robis</title>
<g id="a_node7"><a xlink:href="https://github.com/conda-forge/r-robis-feedstock" xlink:title="r robis">
<ellipse fill="#fde725" stroke="black" cx="434.5" cy="-250" rx="39.79" ry="18"/>
<text text-anchor="middle" x="434.5" y="-246.3" font-family="Times-Roman" font-size="14.00">r robis</text>
</a>
</g>
</g>
<!-- r&#45;mapedit&#45;&gt;r&#45;robis -->
<g id="edge4" class="edge">
<title>r&#45;mapedit&#45;&gt;r&#45;robis</title>
<path fill="none" stroke="black" d="M434.5,-303.7C434.5,-295.98 434.5,-286.71 434.5,-278.11"/>
<polygon fill="black" stroke="black" points="438,-278.1 434.5,-268.1 431,-278.1 438,-278.1"/>
</g>
<!-- r&#45;mapview -->
<g id="node8" class="node">
<title>r&#45;mapview</title>
<g id="a_node8"><a xlink:href="https://github.com/conda-forge/r-mapview-feedstock/pull/14" xlink:title="r mapview ✓">
<ellipse fill="#31688e" stroke="black" cx="434.5" cy="-394" rx="69" ry="18"/>
<text text-anchor="middle" x="434.5" y="-390.3" font-family="Times-Roman" font-size="14.00" fill="white">r mapview ✓</text>
</a>
</g>
</g>
<!-- r&#45;mapview&#45;&gt;r&#45;mapedit -->
<g id="edge5" class="edge">
<title>r&#45;mapview&#45;&gt;r&#45;mapedit</title>
<path fill="none" stroke="black" d="M434.5,-375.7C434.5,-367.98 434.5,-358.71 434.5,-350.11"/>
<polygon fill="black" stroke="black" points="438,-350.1 434.5,-340.1 431,-350.1 438,-350.1"/>
</g>
<!-- r&#45;tidyverse -->
<g id="node9" class="node">
<title>r&#45;tidyverse</title>
<g id="a_node9"><a xlink:href="https://github.com/conda-forge/r-tidyverse-feedstock" xlink:title="r tidyverse">
<ellipse fill="#ff8c00" stroke="black" cx="1311.5" cy="-914" rx="60" ry="18"/>
<text text-anchor="middle" x="1311.5" y="-910.3" font-family="Times-Roman" font-size="14.00">r tidyverse</text>
</a>
</g>
</g>
<!-- r&#45;essentials -->
<g id="node10" class="node">
<title>r&#45;essentials</title>
<g id="a_node10"><a xlink:href="https://github.com/conda-forge/r-essentials-feedstock" xlink:title="r essentials">
<ellipse fill="#fde725" stroke="black" cx="1266.5" cy="-842" rx="62.5" ry="18"/>
<text text-anchor="middle" x="1266.5" y="-838.3" font-family="Times-Roman" font-size="14.00">r essentials</text>
</a>
</g>
</g>
<!-- r&#45;tidyverse&#45;&gt;r&#45;essentials -->
<g id="edge6" class="edge">
<title>r&#45;tidyverse&#45;&gt;r&#45;essentials</title>
<path fill="none" stroke="black" d="M1300.61,-896.05C1295.25,-887.71 1288.67,-877.49 1282.73,-868.25"/>
<polygon fill="black" stroke="black" points="1285.64,-866.31 1277.29,-859.79 1279.76,-870.09 1285.64,-866.31"/>
</g>
<!-- r&#45;projpred -->
<g id="node11" class="node">
<title>r&#45;projpred</title>
<g id="a_node11"><a xlink:href="https://github.com/conda-forge/r-projpred-feedstock" xlink:title="r projpred">
<ellipse fill="#fde725" stroke="black" cx="1357.5" cy="-770" rx="55.49" ry="18"/>
<text text-anchor="middle" x="1357.5" y="-766.3" font-family="Times-Roman" font-size="14.00">r projpred</text>
</a>
</g>
</g>
<!-- r&#45;tidyverse&#45;&gt;r&#45;projpred -->
<g id="edge7" class="edge">
<title>r&#45;tidyverse&#45;&gt;r&#45;projpred</title>
<path fill="none" stroke="black" d="M1321.69,-895.84C1327.33,-885.71 1334.08,-872.46 1338.5,-860 1345.66,-839.8 1350.57,-816.03 1353.6,-798.13"/>
<polygon fill="black" stroke="black" points="1357.08,-798.52 1355.21,-788.09 1350.17,-797.41 1357.08,-798.52"/>
</g>
<!-- r&#45;brms -->
<g id="node12" class="node">
<title>r&#45;brms</title>
<g id="a_node12"><a xlink:href="https://github.com/conda-forge/r-brms-feedstock" xlink:title="r brms">
<ellipse fill="#fde725" stroke="black" cx="1357.5" cy="-698" rx="40.5" ry="18"/>
<text text-anchor="middle" x="1357.5" y="-694.3" font-family="Times-Roman" font-size="14.00">r brms</text>
</a>
</g>
</g>
<!-- r&#45;projpred&#45;&gt;r&#45;brms -->
<g id="edge8" class="edge">
<title>r&#45;projpred&#45;&gt;r&#45;brms</title>
<path fill="none" stroke="black" d="M1357.5,-751.7C1357.5,-743.98 1357.5,-734.71 1357.5,-726.11"/>
<polygon fill="black" stroke="black" points="1361,-726.1 1357.5,-716.1 1354,-726.1 1361,-726.1"/>
</g>
<!-- r&#45;rsvg -->
<g id="node13" class="node">
<title>r&#45;rsvg</title>
<g id="a_node13"><a xlink:href="https://github.com/conda-forge/r-rsvg-feedstock/pull/15" xlink:title="r rsvg ❎">
<ellipse fill="#31688e" stroke="black" cx="184.5" cy="-1462" rx="52" ry="18"/>
<text text-anchor="middle" x="184.5" y="-1458.3" font-family="Times-Roman" font-size="14.00" fill="white">r rsvg ❎</text>
</a>
</g>
</g>
<!-- r&#45;rideogram -->
<g id="node14" class="node">
<title>r&#45;rideogram</title>
<g id="a_node14"><a xlink:href="https://github.com/conda-forge/r-rideogram-feedstock" xlink:title="r rideogram">
<ellipse fill="#fde725" stroke="black" cx="64.5" cy="-1390" rx="64.5" ry="18"/>
<text text-anchor="middle" x="64.5" y="-1386.3" font-family="Times-Roman" font-size="14.00">r rideogram</text>
</a>
</g>
</g>
<!-- r&#45;rsvg&#45;&gt;r&#45;rideogram -->
<g id="edge9" class="edge">
<title>r&#45;rsvg&#45;&gt;r&#45;rideogram</title>
<path fill="none" stroke="black" d="M159.05,-1446.15C141.83,-1436.11 118.84,-1422.7 99.85,-1411.62"/>
<polygon fill="black" stroke="black" points="101.56,-1408.57 91.16,-1406.55 98.03,-1414.61 101.56,-1408.57"/>
</g>
<!-- r&#45;umx -->
<g id="node15" class="node">
<title>r&#45;umx</title>
<g id="a_node15"><a xlink:href="https://github.com/conda-forge/r-umx-feedstock" xlink:title="r umx">
<ellipse fill="#fde725" stroke="black" cx="276.5" cy="-1390" rx="37.89" ry="18"/>
<text text-anchor="middle" x="276.5" y="-1386.3" font-family="Times-Roman" font-size="14.00">r umx</text>
</a>
</g>
</g>
<!-- r&#45;rsvg&#45;&gt;r&#45;umx -->
<g id="edge10" class="edge">
<title>r&#45;rsvg&#45;&gt;r&#45;umx</title>
<path fill="none" stroke="black" d="M205.38,-1445.12C218.28,-1435.29 235,-1422.58 248.98,-1411.94"/>
<polygon fill="black" stroke="black" points="251.44,-1414.47 257.28,-1405.63 247.2,-1408.9 251.44,-1414.47"/>
</g>
<!-- r&#45;vtree -->
<g id="node16" class="node">
<title>r&#45;vtree</title>
<g id="a_node16"><a xlink:href="https://github.com/conda-forge/r-vtree-feedstock" xlink:title="r vtree">
<ellipse fill="#fde725" stroke="black" cx="141.5" cy="-1318" rx="40.5" ry="18"/>
<text text-anchor="middle" x="141.5" y="-1314.3" font-family="Times-Roman" font-size="14.00">r vtree</text>
</a>
</g>
</g>
<!-- r&#45;rsvg&#45;&gt;r&#45;vtree -->
<g id="edge11" class="edge">
<title>r&#45;rsvg&#45;&gt;r&#45;vtree</title>
<path fill="none" stroke="black" d="M179.31,-1443.87C171.95,-1419.56 158.4,-1374.82 149.68,-1346.01"/>
<polygon fill="black" stroke="black" points="152.95,-1344.75 146.71,-1336.19 146.25,-1346.77 152.95,-1344.75"/>
</g>
<!-- r&#45;integr -->
<g id="node17" class="node">
<title>r&#45;integr</title>
<g id="a_node17"><a xlink:href="https://github.com/conda-forge/r-integr-feedstock" xlink:title="r integr">
<ellipse fill="#fde725" stroke="black" cx="210.5" cy="-1246" rx="44.39" ry="18"/>
<text text-anchor="middle" x="210.5" y="-1242.3" font-family="Times-Roman" font-size="14.00">r integr</text>
</a>
</g>
</g>
<!-- r&#45;rsvg&#45;&gt;r&#45;integr -->
<g id="edge12" class="edge">
<title>r&#45;rsvg&#45;&gt;r&#45;integr</title>
<path fill="none" stroke="black" d="M186.58,-1443.85C191.08,-1406.83 201.73,-1319.18 207.17,-1274.39"/>
<polygon fill="black" stroke="black" points="210.67,-1274.58 208.41,-1264.23 203.73,-1273.74 210.67,-1274.58"/>
</g>
<!-- r&#45;randomforestsrc -->
<g id="node25" class="node">
<title>r&#45;randomforestsrc</title>
<g id="a_node25"><a xlink:href="https://github.com/conda-forge/r-randomforestsrc-feedstock" xlink:title="r randomforestsrc">
<ellipse fill="#ff8c00" stroke="black" cx="1036.5" cy="-1462" rx="91.78" ry="18"/>
<text text-anchor="middle" x="1036.5" y="-1458.3" font-family="Times-Roman" font-size="14.00">r randomforestsrc</text>
</a>
</g>
</g>
<!-- r&#45;elpigraph.r&#45;&gt;r&#45;randomforestsrc -->
<!-- r&#45;dicekriging -->
<g id="node19" class="node">
<title>r&#45;dicekriging</title>
<g id="a_node19"><a xlink:href="https://github.com/conda-forge/r-dicekriging-feedstock/pull/9" xlink:title="r dicekriging ❎">
<ellipse fill="#31688e" stroke="black" cx="304.5" cy="-842" rx="82" ry="18"/>
<text text-anchor="middle" x="304.5" y="-838.3" font-family="Times-Roman" font-size="14.00" fill="white">r dicekriging ❎</text>
</a>
</g>
</g>
<!-- r&#45;grf -->
<g id="node20" class="node">
<title>r&#45;grf</title>
<g id="a_node20"><a xlink:href="https://github.com/conda-forge/r-grf-feedstock" xlink:title="r grf">
<ellipse fill="#fde725" stroke="black" cx="301.5" cy="-770" rx="30.59" ry="18"/>
<text text-anchor="middle" x="301.5" y="-766.3" font-family="Times-Roman" font-size="14.00">r grf</text>
</a>
</g>
</g>
<!-- r&#45;dicekriging&#45;&gt;r&#45;grf -->
<g id="edge14" class="edge">
<title>r&#45;dicekriging&#45;&gt;r&#45;grf</title>
<path fill="none" stroke="black" d="M303.76,-823.7C303.43,-815.98 303.03,-806.71 302.66,-798.11"/>
<polygon fill="black" stroke="black" points="306.16,-797.95 302.23,-788.1 299.16,-798.25 306.16,-797.95"/>
</g>
<!-- r&#45;tuneranger -->
<g id="node21" class="node">
<title>r&#45;tuneranger</title>
<g id="a_node21"><a xlink:href="https://github.com/conda-forge/r-tuneranger-feedstock" xlink:title="r tuneranger">
<ellipse fill="#fde725" stroke="black" cx="418.5" cy="-770" rx="68.49" ry="18"/>
<text text-anchor="middle" x="418.5" y="-766.3" font-family="Times-Roman" font-size="14.00">r tuneranger</text>
</a>
</g>
</g>
<!-- r&#45;dicekriging&#45;&gt;r&#45;tuneranger -->
<g id="edge15" class="edge">
<title>r&#45;dicekriging&#45;&gt;r&#45;tuneranger</title>
<path fill="none" stroke="black" d="M330.94,-824.76C346.74,-815.07 366.98,-802.64 384.02,-792.17"/>
<polygon fill="black" stroke="black" points="385.91,-795.12 392.6,-786.91 382.24,-789.16 385.91,-795.12"/>
</g>
<!-- r&#45;apatables -->
<g id="node22" class="node">
<title>r&#45;apatables</title>
<g id="a_node22"><a xlink:href="https://github.com/conda-forge/r-apatables-feedstock" xlink:title="r apatables">
<ellipse fill="#fde725" stroke="black" cx="806.5" cy="-1318" rx="61.99" ry="18"/>
<text text-anchor="middle" x="806.5" y="-1314.3" font-family="Times-Roman" font-size="14.00">r apatables</text>
</a>
</g>
</g>
<!-- r&#45;mbess -->
<g id="node23" class="node">
<title>r&#45;mbess</title>
<g id="a_node23"><a xlink:href="https://github.com/conda-forge/r-mbess-feedstock" xlink:title="r mbess">
<ellipse fill="#35b779" stroke="black" cx="743.5" cy="-1390" rx="47.5" ry="18"/>
<text text-anchor="middle" x="743.5" y="-1386.3" font-family="Times-Roman" font-size="14.00">r mbess</text>
</a>
</g>
</g>
<!-- r&#45;mbess&#45;&gt;r&#45;apatables -->
<g id="edge16" class="edge">
<title>r&#45;mbess&#45;&gt;r&#45;apatables</title>
<path fill="none" stroke="black" d="M758.11,-1372.76C766.03,-1363.97 775.96,-1352.93 784.77,-1343.14"/>
<polygon fill="black" stroke="black" points="787.44,-1345.41 791.53,-1335.63 782.24,-1340.72 787.44,-1345.41"/>
</g>
<!-- r&#45;userfriendlyscience -->
<g id="node24" class="node">
<title>r&#45;userfriendlyscience</title>
<g id="a_node24"><a xlink:href="https://github.com/conda-forge/r-userfriendlyscience-feedstock" xlink:title="r userfriendlyscience">
<ellipse fill="#fde725" stroke="black" cx="620.5" cy="-1318" rx="106" ry="18"/>
<text text-anchor="middle" x="620.5" y="-1314.3" font-family="Times-Roman" font-size="14.00">r userfriendlyscience</text>
</a>
</g>
</g>
<!-- r&#45;mbess&#45;&gt;r&#45;userfriendlyscience -->
<g id="edge17" class="edge">
<title>r&#45;mbess&#45;&gt;r&#45;userfriendlyscience</title>
<path fill="none" stroke="black" d="M718.31,-1374.67C701.08,-1364.86 677.92,-1351.68 658.47,-1340.61"/>
<polygon fill="black" stroke="black" points="659.96,-1337.43 649.54,-1335.53 656.5,-1343.51 659.96,-1337.43"/>
</g>
<!-- r&#45;incadata -->
<g id="node31" class="node">
<title>r&#45;incadata</title>
<g id="a_node31"><a xlink:href="https://github.com/conda-forge/r-incadata-feedstock" xlink:title="r incadata">
<ellipse fill="#ff8c00" stroke="black" cx="1036.5" cy="-1390" rx="56" ry="18"/>
<text text-anchor="middle" x="1036.5" y="-1386.3" font-family="Times-Roman" font-size="14.00">r incadata</text>
</a>
</g>
</g>
<!-- r&#45;randomforestsrc&#45;&gt;r&#45;incadata -->
<!-- r&#45;mlr -->
<g id="node26" class="node">
<title>r&#45;mlr</title>
<g id="a_node26"><a xlink:href="https://github.com/conda-forge/r-mlr-feedstock" xlink:title="r mlr">
<ellipse fill="#ff8c00" stroke="black" cx="496.5" cy="-914" rx="32.5" ry="18"/>
<text text-anchor="middle" x="496.5" y="-910.3" font-family="Times-Roman" font-size="14.00">r mlr</text>
</a>
</g>
</g>
<!-- r&#45;mlr&#45;&gt;r&#45;tuneranger -->
<g id="edge19" class="edge">
<title>r&#45;mlr&#45;&gt;r&#45;tuneranger</title>
<path fill="none" stroke="black" d="M475.42,-900.09C461.88,-890.67 445.09,-876.66 435.5,-860 424.68,-841.19 420.58,-816.82 419.11,-798.33"/>
<polygon fill="black" stroke="black" points="422.59,-797.99 418.51,-788.21 415.61,-798.4 422.59,-797.99"/>
</g>
<!-- r&#45;mlrmbo -->
<g id="node27" class="node">
<title>r&#45;mlrmbo</title>
<g id="a_node27"><a xlink:href="https://github.com/conda-forge/r-mlrmbo-feedstock" xlink:title="r mlrmbo">
<ellipse fill="#fde725" stroke="black" cx="496.5" cy="-842" rx="52" ry="18"/>
<text text-anchor="middle" x="496.5" y="-838.3" font-family="Times-Roman" font-size="14.00">r mlrmbo</text>
</a>
</g>
</g>
<!-- r&#45;mlr&#45;&gt;r&#45;mlrmbo -->
<g id="edge20" class="edge">
<title>r&#45;mlr&#45;&gt;r&#45;mlrmbo</title>
<path fill="none" stroke="black" d="M496.5,-895.7C496.5,-887.98 496.5,-878.71 496.5,-870.11"/>
<polygon fill="black" stroke="black" points="500,-870.1 496.5,-860.1 493,-870.1 500,-870.1"/>
</g>
<!-- r&#45;unbalanced -->
<g id="node28" class="node">
<title>r&#45;unbalanced</title>
<g id="a_node28"><a xlink:href="https://github.com/conda-forge/r-unbalanced-feedstock" xlink:title="r unbalanced">
<ellipse fill="#fde725" stroke="black" cx="576.5" cy="-770" rx="70.39" ry="18"/>
<text text-anchor="middle" x="576.5" y="-766.3" font-family="Times-Roman" font-size="14.00">r unbalanced</text>
</a>
</g>
</g>
<!-- r&#45;mlr&#45;&gt;r&#45;unbalanced -->
<g id="edge21" class="edge">
<title>r&#45;mlr&#45;&gt;r&#45;unbalanced</title>
<path fill="none" stroke="black" d="M517.46,-900.02C530.95,-890.57 547.74,-876.56 557.5,-860 568.57,-841.23 573.23,-816.85 575.17,-798.35"/>
<polygon fill="black" stroke="black" points="578.67,-798.49 576.02,-788.23 571.69,-797.9 578.67,-798.49"/>
</g>
<!-- r&#45;mlrmbo&#45;&gt;r&#45;tuneranger -->
<g id="edge22" class="edge">
<title>r&#45;mlrmbo&#45;&gt;r&#45;tuneranger</title>
<path fill="none" stroke="black" d="M478.41,-824.76C468.34,-815.73 455.63,-804.33 444.52,-794.35"/>
<polygon fill="black" stroke="black" points="446.54,-791.46 436.76,-787.39 441.87,-796.67 446.54,-791.46"/>
</g>
<!-- r&#45;themis -->
<g id="node29" class="node">
<title>r&#45;themis</title>
<g id="a_node29"><a xlink:href="https://github.com/conda-forge/r-themis-feedstock" xlink:title="r themis">
<ellipse fill="#fde725" stroke="black" cx="576.5" cy="-698" rx="48.19" ry="18"/>
<text text-anchor="middle" x="576.5" y="-694.3" font-family="Times-Roman" font-size="14.00">r themis</text>
</a>
</g>
</g>
<!-- r&#45;unbalanced&#45;&gt;r&#45;themis -->
<g id="edge23" class="edge">
<title>r&#45;unbalanced&#45;&gt;r&#45;themis</title>
<path fill="none" stroke="black" d="M576.5,-751.7C576.5,-743.98 576.5,-734.71 576.5,-726.11"/>
<polygon fill="black" stroke="black" points="580,-726.1 576.5,-716.1 573,-726.1 580,-726.1"/>
</g>
<!-- r&#45;pkgdown -->
<g id="node30" class="node">
<title>r&#45;pkgdown</title>
<g id="a_node30"><a xlink:href="https://github.com/conda-forge/r-pkgdown-feedstock" xlink:title="r pkgdown">
<ellipse fill="#fde725" stroke="black" cx="1137.5" cy="-734" rx="59.29" ry="18"/>
<text text-anchor="middle" x="1137.5" y="-730.3" font-family="Times-Roman" font-size="14.00">r pkgdown</text>
</a>
</g>
</g>
<!-- r&#45;mpmi -->
<g id="node32" class="node">
<title>r&#45;mpmi</title>
<g id="a_node32"><a xlink:href="https://github.com/conda-forge/r-mpmi-feedstock/pull/8" xlink:title="r mpmi ❎">
<ellipse fill="#31688e" stroke="black" cx="1036.5" cy="-1318" rx="58" ry="18"/>
<text text-anchor="middle" x="1036.5" y="-1314.3" font-family="Times-Roman" font-size="14.00" fill="white">r mpmi ❎</text>
</a>
</g>
</g>
<!-- r&#45;incadata&#45;&gt;r&#45;mpmi -->
<!-- r&#45;boolnet -->
<g id="node37" class="node">
<title>r&#45;boolnet</title>
<g id="a_node37"><a xlink:href="https://github.com/conda-forge/r-boolnet-feedstock" xlink:title="r boolnet">
<ellipse fill="#ff8c00" stroke="black" cx="1036.5" cy="-1246" rx="51.5" ry="18"/>
<text text-anchor="middle" x="1036.5" y="-1242.3" font-family="Times-Roman" font-size="14.00">r boolnet</text>
</a>
</g>
</g>
<!-- r&#45;mpmi&#45;&gt;r&#45;boolnet -->
<!-- r&#45;ufs -->
<g id="node33" class="node">
<title>r&#45;ufs</title>
<g id="a_node33"><a xlink:href="https://github.com/conda-forge/r-ufs-feedstock" xlink:title="r ufs">
<ellipse fill="#fde725" stroke="black" cx="583.5" cy="-1390" rx="32" ry="18"/>
<text text-anchor="middle" x="583.5" y="-1386.3" font-family="Times-Roman" font-size="14.00">r ufs</text>
</a>
</g>
</g>
<!-- r&#45;ufs&#45;&gt;r&#45;userfriendlyscience -->
<g id="edge26" class="edge">
<title>r&#45;ufs&#45;&gt;r&#45;userfriendlyscience</title>
<path fill="none" stroke="black" d="M592.27,-1372.41C596.58,-1364.25 601.88,-1354.22 606.72,-1345.07"/>
<polygon fill="black" stroke="black" points="609.96,-1346.43 611.54,-1335.96 603.77,-1343.16 609.96,-1346.43"/>
</g>
<!-- r&#45;pec -->
<g id="node34" class="node">
<title>r&#45;pec</title>
<g id="a_node34"><a xlink:href="https://github.com/conda-forge/r-pec-feedstock/pull/6" xlink:title="r pec ❎">
<ellipse fill="#31688e" stroke="black" cx="1036.5" cy="-618" rx="48.19" ry="18"/>
<text text-anchor="middle" x="1036.5" y="-614.3" font-family="Times-Roman" font-size="14.00" fill="white">r pec ❎</text>
</a>
</g>
</g>
<!-- r&#45;timeroc -->
<g id="node35" class="node">
<title>r&#45;timeroc</title>
<g id="a_node35"><a xlink:href="https://github.com/conda-forge/r-timeroc-feedstock" xlink:title="r timeroc">
<ellipse fill="#fde725" stroke="black" cx="996.5" cy="-546" rx="51.5" ry="18"/>
<text text-anchor="middle" x="996.5" y="-542.3" font-family="Times-Roman" font-size="14.00">r timeroc</text>
</a>
</g>
</g>
<!-- r&#45;pec&#45;&gt;r&#45;timeroc -->
<g id="edge27" class="edge">
<title>r&#45;pec&#45;&gt;r&#45;timeroc</title>
<path fill="none" stroke="black" d="M1026.82,-600.05C1022.1,-591.8 1016.33,-581.7 1011.09,-572.54"/>
<polygon fill="black" stroke="black" points="1014.09,-570.73 1006.09,-563.79 1008.02,-574.21 1014.09,-570.73"/>
</g>
<!-- r&#45;survxai -->
<g id="node36" class="node">
<title>r&#45;survxai</title>
<g id="a_node36"><a xlink:href="https://github.com/conda-forge/r-survxai-feedstock" xlink:title="r survxai">
<ellipse fill="#fde725" stroke="black" cx="1076.5" cy="-474" rx="50.89" ry="18"/>
<text text-anchor="middle" x="1076.5" y="-470.3" font-family="Times-Roman" font-size="14.00">r survxai</text>
</a>
</g>
</g>
<!-- r&#45;pec&#45;&gt;r&#45;survxai -->
<g id="edge28" class="edge">
<title>r&#45;pec&#45;&gt;r&#45;survxai</title>
<path fill="none" stroke="black" d="M1044.05,-600.07C1048.42,-589.79 1053.77,-576.32 1057.5,-564 1063.67,-543.62 1068.61,-520.02 1071.9,-502.25"/>
<polygon fill="black" stroke="black" points="1075.37,-502.74 1073.69,-492.28 1068.48,-501.5 1075.37,-502.74"/>
</g>
<!-- r&#45;gwidgetsrgtk2 -->
<g id="node44" class="node">
<title>r&#45;gwidgetsrgtk2</title>
<g id="a_node44"><a xlink:href="https://github.com/conda-forge/r-gwidgetsrgtk2-feedstock" xlink:title="r gwidgetsrgtk2">
<ellipse fill="#35b779" stroke="black" cx="1036.5" cy="-1174" rx="82.59" ry="18"/>
<text text-anchor="middle" x="1036.5" y="-1170.3" font-family="Times-Roman" font-size="14.00">r gwidgetsrgtk2</text>
</a>
</g>
</g>
<!-- r&#45;boolnet&#45;&gt;r&#45;gwidgetsrgtk2 -->
<!-- r&#45;kableextra -->
<g id="node38" class="node">
<title>r&#45;kableextra</title>
<g id="a_node38"><a xlink:href="https://github.com/conda-forge/r-kableextra-feedstock" xlink:title="r kableextra">
<ellipse fill="#ff8c00" stroke="black" cx="396.5" cy="-1462" rx="65" ry="18"/>
<text text-anchor="middle" x="396.5" y="-1458.3" font-family="Times-Roman" font-size="14.00">r kableextra</text>
</a>
</g>
</g>
<!-- r&#45;kableextra&#45;&gt;r&#45;umx -->
<g id="edge30" class="edge">
<title>r&#45;kableextra&#45;&gt;r&#45;umx</title>
<path fill="none" stroke="black" d="M369.87,-1445.46C351.63,-1434.82 327.36,-1420.67 308.13,-1409.45"/>
<polygon fill="black" stroke="black" points="309.82,-1406.39 299.42,-1404.37 306.29,-1412.43 309.82,-1406.39"/>
</g>
<!-- r&#45;kableextra&#45;&gt;r&#45;ufs -->
<g id="edge31" class="edge">
<title>r&#45;kableextra&#45;&gt;r&#45;ufs</title>
<path fill="none" stroke="black" d="M433.45,-1447.17C466.63,-1434.75 515.03,-1416.63 547.82,-1404.36"/>
<polygon fill="black" stroke="black" points="549.32,-1407.53 557.46,-1400.75 546.87,-1400.97 549.32,-1407.53"/>
</g>
<!-- r&#45;ptxqc -->
<g id="node39" class="node">
<title>r&#45;ptxqc</title>
<g id="a_node39"><a xlink:href="https://github.com/conda-forge/r-ptxqc-feedstock" xlink:title="r ptxqc">
<ellipse fill="#fde725" stroke="black" cx="325.5" cy="-1318" rx="43" ry="18"/>
<text text-anchor="middle" x="325.5" y="-1314.3" font-family="Times-Roman" font-size="14.00">r ptxqc</text>
</a>
</g>
</g>
<!-- r&#45;kableextra&#45;&gt;r&#45;ptxqc -->
<g id="edge32" class="edge">
<title>r&#45;kableextra&#45;&gt;r&#45;ptxqc</title>
<path fill="none" stroke="black" d="M387.94,-1443.87C375.61,-1419.22 352.77,-1373.54 338.4,-1344.79"/>
<polygon fill="black" stroke="black" points="341.48,-1343.13 333.87,-1335.75 335.22,-1346.26 341.48,-1343.13"/>
</g>
<!-- r&#45;comparegroups -->
<g id="node40" class="node">
<title>r&#45;comparegroups</title>
<g id="a_node40"><a xlink:href="https://github.com/conda-forge/r-comparegroups-feedstock" xlink:title="r comparegroups">
<ellipse fill="#fde725" stroke="black" cx="370.5" cy="-1246" rx="87.99" ry="18"/>
<text text-anchor="middle" x="370.5" y="-1242.3" font-family="Times-Roman" font-size="14.00">r comparegroups</text>
</a>
</g>
</g>
<!-- r&#45;kableextra&#45;&gt;r&#45;comparegroups -->
<g id="edge33" class="edge">
<title>r&#45;kableextra&#45;&gt;r&#45;comparegroups</title>
<path fill="none" stroke="black" d="M394.53,-1443.6C391.16,-1414.06 384.03,-1352.23 377.5,-1300 376.45,-1291.58 375.25,-1282.42 374.15,-1274.11"/>
<polygon fill="black" stroke="black" points="377.62,-1273.63 372.83,-1264.18 370.68,-1274.55 377.62,-1273.63"/>
</g>
<!-- r&#45;mvn -->
<g id="node41" class="node">
<title>r&#45;mvn</title>
<g id="a_node41"><a xlink:href="https://github.com/conda-forge/r-mvn-feedstock" xlink:title="r mvn">
<ellipse fill="#fde725" stroke="black" cx="486.5" cy="-1174" rx="37.89" ry="18"/>
<text text-anchor="middle" x="486.5" y="-1170.3" font-family="Times-Roman" font-size="14.00">r mvn</text>
</a>
</g>
</g>
<!-- r&#45;kableextra&#45;&gt;r&#45;mvn -->
<g id="edge34" class="edge">
<title>r&#45;kableextra&#45;&gt;r&#45;mvn</title>
<path fill="none" stroke="black" d="M403.57,-1443.87C417.35,-1409.98 448.14,-1331.82 467.5,-1264 473.32,-1243.62 478.26,-1220.16 481.64,-1202.44"/>
<polygon fill="black" stroke="black" points="485.15,-1202.7 483.54,-1192.23 478.27,-1201.42 485.15,-1202.7"/>
</g>
<!-- r&#45;refgenome -->
<g id="node42" class="node">
<title>r&#45;refgenome</title>
<g id="a_node42"><a xlink:href="https://github.com/conda-forge/r-refgenome-feedstock/pull/6" xlink:title="r refgenome ❎">
<ellipse fill="#31688e" stroke="black" cx="1308.5" cy="-358" rx="80.69" ry="18"/>
<text text-anchor="middle" x="1308.5" y="-354.3" font-family="Times-Roman" font-size="14.00" fill="white">r refgenome ❎</text>
</a>
</g>
</g>
<!-- r&#45;rbamtools -->
<g id="node43" class="node">
<title>r&#45;rbamtools</title>
<g id="a_node43"><a xlink:href="https://github.com/conda-forge/r-rbamtools-feedstock" xlink:title="r rbamtools">
<ellipse fill="#fde725" stroke="black" cx="1308.5" cy="-286" rx="63.09" ry="18"/>
<text text-anchor="middle" x="1308.5" y="-282.3" font-family="Times-Roman" font-size="14.00">r rbamtools</text>
</a>
</g>
</g>
<!-- r&#45;refgenome&#45;&gt;r&#45;rbamtools -->
<g id="edge35" class="edge">
<title>r&#45;refgenome&#45;&gt;r&#45;rbamtools</title>
<path fill="none" stroke="black" d="M1308.5,-339.7C1308.5,-331.98 1308.5,-322.71 1308.5,-314.11"/>
<polygon fill="black" stroke="black" points="1312,-314.1 1308.5,-304.1 1305,-314.1 1312,-314.1"/>
</g>
<!-- r&#45;rggobi -->
<g id="node45" class="node">
<title>r&#45;rggobi</title>
<g id="a_node45"><a xlink:href="https://github.com/conda-forge/r-rggobi-feedstock" xlink:title="r rggobi">
<ellipse fill="#35b779" stroke="black" cx="1036.5" cy="-1102" rx="46.29" ry="18"/>
<text text-anchor="middle" x="1036.5" y="-1098.3" font-family="Times-Roman" font-size="14.00">r rggobi</text>
</a>
</g>
</g>
<!-- r&#45;gwidgetsrgtk2&#45;&gt;r&#45;rggobi -->
<!-- yggdrasil -->
<g id="node46" class="node">
<title>yggdrasil</title>
<g id="a_node46"><a xlink:href="https://github.com/conda-forge/yggdrasil-feedstock/pull/22" xlink:title="yggdrasil ✓">
<ellipse fill="#31688e" stroke="black" cx="1036.5" cy="-1030" rx="63.89" ry="18"/>
<text text-anchor="middle" x="1036.5" y="-1026.3" font-family="Times-Roman" font-size="14.00" fill="white">yggdrasil ✓</text>
</a>
</g>
</g>
<!-- r&#45;rggobi&#45;&gt;yggdrasil -->
<!-- r&#45;survivalanalysis -->
<g id="node48" class="node">
<title>r&#45;survivalanalysis</title>
<g id="a_node48"><a xlink:href="https://github.com/conda-forge/r-survivalanalysis-feedstock" xlink:title="r survivalanalysis">
<ellipse fill="#35b779" stroke="black" cx="1036.5" cy="-958" rx="89.88" ry="18"/>
<text text-anchor="middle" x="1036.5" y="-954.3" font-family="Times-Roman" font-size="14.00">r survivalanalysis</text>
</a>
</g>
</g>
<!-- yggdrasil&#45;&gt;r&#45;survivalanalysis -->
<!-- r&#45;spotifyr -->
<g id="node47" class="node">
<title>r&#45;spotifyr</title>
<g id="a_node47"><a xlink:href="https://github.com/conda-forge/r-spotifyr-feedstock" xlink:title="r spotifyr">
<ellipse fill="#fde725" stroke="black" cx="434.5" cy="-18" rx="52" ry="18"/>
<text text-anchor="middle" x="434.5" y="-14.3" font-family="Times-Roman" font-size="14.00">r spotifyr</text>
</a>
</g>
</g>
<!-- r&#45;genius -->
<g id="node49" class="node">
<title>r&#45;genius</title>
<g id="a_node49"><a xlink:href="https://github.com/conda-forge/r-genius-feedstock" xlink:title="r genius">
<ellipse fill="#ff8c00" stroke="black" cx="434.5" cy="-90" rx="48.19" ry="18"/>
<text text-anchor="middle" x="434.5" y="-86.3" font-family="Times-Roman" font-size="14.00">r genius</text>
</a>
</g>
</g>
<!-- r&#45;genius&#45;&gt;r&#45;spotifyr -->
<g id="edge40" class="edge">
<title>r&#45;genius&#45;&gt;r&#45;spotifyr</title>
<path fill="none" stroke="black" d="M434.5,-71.7C434.5,-63.98 434.5,-54.71 434.5,-46.11"/>
<polygon fill="black" stroke="black" points="438,-46.1 434.5,-36.1 431,-46.1 438,-46.1"/>
</g>
<!-- r&#45;ragg -->
<g id="node50" class="node">
<title>r&#45;ragg</title>
<g id="a_node50"><a xlink:href="https://github.com/conda-forge/r-ragg-feedstock" xlink:title="r ragg">
<ellipse fill="#fde725" stroke="black" cx="1102.5" cy="-806" rx="38.5" ry="18"/>
<text text-anchor="middle" x="1102.5" y="-802.3" font-family="Times-Roman" font-size="14.00">r ragg</text>
</a>
</g>
</g>
<!-- r&#45;ragg&#45;&gt;r&#45;ggrastr -->
<g id="edge41" class="edge">
<title>r&#45;ragg&#45;&gt;r&#45;ggrastr</title>
<path fill="none" stroke="black" d="M1082.78,-790.15C1069.85,-780.43 1052.74,-767.54 1038.3,-756.68"/>
<polygon fill="black" stroke="black" points="1040.26,-753.77 1030.16,-750.55 1036.05,-759.36 1040.26,-753.77"/>
</g>
<!-- r&#45;ragg&#45;&gt;r&#45;pkgdown -->
<g id="edge42" class="edge">
<title>r&#45;ragg&#45;&gt;r&#45;pkgdown</title>
<path fill="none" stroke="black" d="M1110.79,-788.41C1114.88,-780.25 1119.89,-770.22 1124.47,-761.07"/>
<polygon fill="black" stroke="black" points="1127.68,-762.47 1129.02,-751.96 1121.42,-759.34 1127.68,-762.47"/>
</g>
<!-- r&#45;tsclust -->
<g id="node51" class="node">
<title>r&#45;tsclust</title>
<g id="a_node51"><a xlink:href="https://github.com/conda-forge/r-tsclust-feedstock/pull/4" xlink:title="r tsclust ❎">
<ellipse fill="#31688e" stroke="black" cx="1036.5" cy="-206" rx="61.99" ry="18"/>
<text text-anchor="middle" x="1036.5" y="-202.3" font-family="Times-Roman" font-size="14.00" fill="white">r tsclust ❎</text>
</a>
</g>
</g>
<!-- r&#45;tsdist -->
<g id="node52" class="node">
<title>r&#45;tsdist</title>
<g id="a_node52"><a xlink:href="https://github.com/conda-forge/r-tsdist-feedstock" xlink:title="r tsdist">
<ellipse fill="#fde725" stroke="black" cx="1036.5" cy="-134" rx="42.49" ry="18"/>
<text text-anchor="middle" x="1036.5" y="-130.3" font-family="Times-Roman" font-size="14.00">r tsdist</text>
</a>
</g>
</g>
<!-- r&#45;tsclust&#45;&gt;r&#45;tsdist -->
<g id="edge43" class="edge">
<title>r&#45;tsclust&#45;&gt;r&#45;tsdist</title>
<path fill="none" stroke="black" d="M1036.5,-187.7C1036.5,-179.98 1036.5,-170.71 1036.5,-162.11"/>
<polygon fill="black" stroke="black" points="1040,-162.1 1036.5,-152.1 1033,-162.1 1040,-162.1"/>
</g>
<!-- r&#45;seqminer -->
<g id="node53" class="node">
<title>r&#45;seqminer</title>
<g id="a_node53"><a xlink:href="https://github.com/conda-forge/r-seqminer-feedstock" xlink:title="r seqminer">
<ellipse fill="#ff8c00" stroke="black" cx="1308.5" cy="-1678" rx="60" ry="18"/>
<text text-anchor="middle" x="1308.5" y="-1674.3" font-family="Times-Roman" font-size="14.00">r seqminer</text>
</a>
</g>
</g>
<!-- r&#45;fastqcr -->
<g id="node54" class="node">
<title>r&#45;fastqcr</title>
<g id="a_node54"><a xlink:href="https://github.com/conda-forge/r-fastqcr-feedstock" xlink:title="r fastqcr">
<ellipse fill="#ff8c00" stroke="black" cx="1308.5" cy="-1606" rx="49.5" ry="18"/>
<text text-anchor="middle" x="1308.5" y="-1602.3" font-family="Times-Roman" font-size="14.00">r fastqcr</text>
</a>
</g>
</g>
<!-- r&#45;seqminer&#45;&gt;r&#45;fastqcr -->
<!-- r&#45;dplr -->
<g id="node55" class="node">
<title>r&#45;dplr</title>
<g id="a_node55"><a xlink:href="https://github.com/conda-forge/r-dplr-feedstock" xlink:title="r dplr">
<ellipse fill="#ff8c00" stroke="black" cx="1308.5" cy="-1534" rx="36" ry="18"/>
<text text-anchor="middle" x="1308.5" y="-1530.3" font-family="Times-Roman" font-size="14.00">r dplr</text>
</a>
</g>
</g>
<!-- r&#45;fastqcr&#45;&gt;r&#45;dplr -->
<!-- r&#45;traits -->
<g id="node59" class="node">
<title>r&#45;traits</title>
<g id="a_node59"><a xlink:href="https://github.com/conda-forge/r-traits-feedstock" xlink:title="r traits">
<ellipse fill="#ff8c00" stroke="black" cx="1308.5" cy="-1462" rx="41" ry="18"/>
<text text-anchor="middle" x="1308.5" y="-1458.3" font-family="Times-Roman" font-size="14.00">r traits</text>
</a>
</g>
</g>
<!-- r&#45;dplr&#45;&gt;r&#45;traits -->
<!-- r&#45;wicket -->
<g id="node56" class="node">
<title>r&#45;wicket</title>
<g id="a_node56"><a xlink:href="https://github.com/conda-forge/r-wicket-feedstock/pull/2" xlink:title="r wicket ❎">
<ellipse fill="#31688e" stroke="black" cx="1036.5" cy="-394" rx="60" ry="18"/>
<text text-anchor="middle" x="1036.5" y="-390.3" font-family="Times-Roman" font-size="14.00" fill="white">r wicket ❎</text>
</a>
</g>
</g>
<!-- r&#45;rgbif -->
<g id="node57" class="node">
<title>r&#45;rgbif</title>
<g id="a_node57"><a xlink:href="https://github.com/conda-forge/r-rgbif-feedstock" xlink:title="r rgbif">
<ellipse fill="#fde725" stroke="black" cx="1036.5" cy="-322" rx="38.5" ry="18"/>
<text text-anchor="middle" x="1036.5" y="-318.3" font-family="Times-Roman" font-size="14.00">r rgbif</text>
</a>
</g>
</g>
<!-- r&#45;wicket&#45;&gt;r&#45;rgbif -->
<g id="edge46" class="edge">
<title>r&#45;wicket&#45;&gt;r&#45;rgbif</title>
<path fill="none" stroke="black" d="M1036.5,-375.7C1036.5,-367.98 1036.5,-358.71 1036.5,-350.11"/>
<polygon fill="black" stroke="black" points="1040,-350.1 1036.5,-340.1 1033,-350.1 1040,-350.1"/>
</g>
<!-- r&#45;spocc -->
<g id="node58" class="node">
<title>r&#45;spocc</title>
<g id="a_node58"><a xlink:href="https://github.com/conda-forge/r-spocc-feedstock" xlink:title="r spocc">
<ellipse fill="#fde725" stroke="black" cx="1036.5" cy="-250" rx="43.59" ry="18"/>
<text text-anchor="middle" x="1036.5" y="-246.3" font-family="Times-Roman" font-size="14.00">r spocc</text>
</a>
</g>
</g>
<!-- r&#45;rgbif&#45;&gt;r&#45;spocc -->
<g id="edge47" class="edge">
<title>r&#45;rgbif&#45;&gt;r&#45;spocc</title>
<path fill="none" stroke="black" d="M1036.5,-303.7C1036.5,-295.98 1036.5,-286.71 1036.5,-278.11"/>
<polygon fill="black" stroke="black" points="1040,-278.1 1036.5,-268.1 1033,-278.1 1040,-278.1"/>
</g>
<!-- r&#45;velox -->
<g id="node60" class="node">
<title>r&#45;velox</title>
<g id="a_node60"><a xlink:href="https://github.com/conda-forge/r-velox-feedstock/pull/2" xlink:title="r velox ❎">
<ellipse fill="#31688e" stroke="black" cx="1308.5" cy="-1390" rx="56" ry="18"/>
<text text-anchor="middle" x="1308.5" y="-1386.3" font-family="Times-Roman" font-size="14.00" fill="white">r velox ❎</text>
</a>
</g>
</g>
<!-- r&#45;traits&#45;&gt;r&#45;velox -->
<!-- r&#45;tidyquant -->
<g id="node61" class="node">
<title>r&#45;tidyquant</title>
<g id="a_node61"><a xlink:href="https://github.com/conda-forge/r-tidyquant-feedstock" xlink:title="r tidyquant">
<ellipse fill="#ff8c00" stroke="black" cx="1308.5" cy="-1318" rx="61.19" ry="18"/>
<text text-anchor="middle" x="1308.5" y="-1314.3" font-family="Times-Roman" font-size="14.00">r tidyquant</text>
</a>
</g>
</g>
<!-- r&#45;velox&#45;&gt;r&#45;tidyquant -->
<!-- r&#45;scholar -->
<g id="node65" class="node">
<title>r&#45;scholar</title>
<g id="a_node65"><a xlink:href="https://github.com/conda-forge/r-scholar-feedstock" xlink:title="r scholar">
<ellipse fill="#ff8c00" stroke="black" cx="1308.5" cy="-1246" rx="50.09" ry="18"/>
<text text-anchor="middle" x="1308.5" y="-1242.3" font-family="Times-Roman" font-size="14.00">r scholar</text>
</a>
</g>
</g>
<!-- r&#45;tidyquant&#45;&gt;r&#45;scholar -->
<!-- r&#45;phylobase -->
<g id="node62" class="node">
<title>r&#45;phylobase</title>
<g id="a_node62"><a xlink:href="https://github.com/conda-forge/r-phylobase-feedstock" xlink:title="r phylobase">
<ellipse fill="#ff8c00" stroke="black" cx="1325.5" cy="-618" rx="63.89" ry="18"/>
<text text-anchor="middle" x="1325.5" y="-614.3" font-family="Times-Roman" font-size="14.00">r phylobase</text>
</a>
</g>
</g>
<!-- r&#45;adephylo -->
<g id="node63" class="node">
<title>r&#45;adephylo</title>
<g id="a_node63"><a xlink:href="https://github.com/conda-forge/r-adephylo-feedstock" xlink:title="r adephylo">
<ellipse fill="#fde725" stroke="black" cx="1282.5" cy="-546" rx="59.29" ry="18"/>
<text text-anchor="middle" x="1282.5" y="-542.3" font-family="Times-Roman" font-size="14.00">r adephylo</text>
</a>
</g>
</g>
<!-- r&#45;phylobase&#45;&gt;r&#45;adephylo -->
<g id="edge51" class="edge">
<title>r&#45;phylobase&#45;&gt;r&#45;adephylo</title>
<path fill="none" stroke="black" d="M1315.09,-600.05C1310.02,-591.8 1303.82,-581.7 1298.19,-572.54"/>
<polygon fill="black" stroke="black" points="1301.03,-570.48 1292.81,-563.79 1295.07,-574.14 1301.03,-570.48"/>
</g>
<!-- r&#45;phylosignal -->
<g id="node64" class="node">
<title>r&#45;phylosignal</title>
<g id="a_node64"><a xlink:href="https://github.com/conda-forge/r-phylosignal-feedstock" xlink:title="r phylosignal">
<ellipse fill="#fde725" stroke="black" cx="1325.5" cy="-474" rx="69.59" ry="18"/>
<text text-anchor="middle" x="1325.5" y="-470.3" font-family="Times-Roman" font-size="14.00">r phylosignal</text>
</a>
</g>
</g>
<!-- r&#45;phylobase&#45;&gt;r&#45;phylosignal -->
<g id="edge52" class="edge">
<title>r&#45;phylobase&#45;&gt;r&#45;phylosignal</title>
<path fill="none" stroke="black" d="M1335.87,-600.03C1341.4,-589.96 1347.65,-576.71 1350.5,-564 1354,-548.39 1354,-543.61 1350.5,-528 1348.43,-518.77 1344.57,-509.25 1340.48,-500.87"/>
<polygon fill="black" stroke="black" points="1343.58,-499.23 1335.87,-491.97 1337.36,-502.46 1343.58,-499.23"/>
</g>
<!-- r&#45;adephylo&#45;&gt;r&#45;phylosignal -->
<g id="edge53" class="edge">
<title>r&#45;adephylo&#45;&gt;r&#45;phylosignal</title>
<path fill="none" stroke="black" d="M1292.91,-528.05C1297.91,-519.92 1304,-510 1309.56,-500.94"/>
<polygon fill="black" stroke="black" points="1312.64,-502.63 1314.89,-492.28 1306.67,-498.96 1312.64,-502.63"/>
</g>
<!-- r&#45;osmdata -->
<g id="node66" class="node">
<title>r&#45;osmdata</title>
<g id="a_node66"><a xlink:href="https://github.com/conda-forge/r-osmdata-feedstock" xlink:title="r osmdata">
<ellipse fill="#ff8c00" stroke="black" cx="1308.5" cy="-1174" rx="56.59" ry="18"/>
<text text-anchor="middle" x="1308.5" y="-1170.3" font-family="Times-Roman" font-size="14.00">r osmdata</text>
</a>
</g>
</g>
<!-- r&#45;scholar&#45;&gt;r&#45;osmdata -->
<!-- r&#45;webchem -->
<g id="node67" class="node">
<title>r&#45;webchem</title>
<g id="a_node67"><a xlink:href="https://github.com/conda-forge/r-webchem-feedstock" xlink:title="r webchem">
<ellipse fill="#ff8c00" stroke="black" cx="1308.5" cy="-1102" rx="61.19" ry="18"/>
<text text-anchor="middle" x="1308.5" y="-1098.3" font-family="Times-Roman" font-size="14.00">r webchem</text>
</a>
</g>
</g>
<!-- r&#45;osmdata&#45;&gt;r&#45;webchem -->
<!-- r&#45;mvord -->
<g id="node70" class="node">
<title>r&#45;mvord</title>
<g id="a_node70"><a xlink:href="https://github.com/conda-forge/r-mvord-feedstock" xlink:title="r mvord">
<ellipse fill="#ff8c00" stroke="black" cx="1308.5" cy="-1030" rx="46.29" ry="18"/>
<text text-anchor="middle" x="1308.5" y="-1026.3" font-family="Times-Roman" font-size="14.00">r mvord</text>
</a>
</g>
</g>
<!-- r&#45;webchem&#45;&gt;r&#45;mvord -->
<!-- r&#45;kml -->
<g id="node68" class="node">
<title>r&#45;kml</title>
<g id="a_node68"><a xlink:href="https://github.com/conda-forge/r-kml-feedstock/pull/3" xlink:title="r kml ❎">
<ellipse fill="#31688e" stroke="black" cx="1308.5" cy="-206" rx="48.19" ry="18"/>
<text text-anchor="middle" x="1308.5" y="-202.3" font-family="Times-Roman" font-size="14.00" fill="white">r kml ❎</text>
</a>
</g>
</g>
<!-- r&#45;kmlshape -->
<g id="node69" class="node">
<title>r&#45;kmlshape</title>
<g id="a_node69"><a xlink:href="https://github.com/conda-forge/r-kmlshape-feedstock" xlink:title="r kmlshape">
<ellipse fill="#fde725" stroke="black" cx="1308.5" cy="-134" rx="61.99" ry="18"/>
<text text-anchor="middle" x="1308.5" y="-130.3" font-family="Times-Roman" font-size="14.00">r kmlshape</text>
</a>
</g>
</g>
<!-- r&#45;kml&#45;&gt;r&#45;kmlshape -->
<g id="edge57" class="edge">
<title>r&#45;kml&#45;&gt;r&#45;kmlshape</title>
<path fill="none" stroke="black" d="M1308.5,-187.7C1308.5,-179.98 1308.5,-170.71 1308.5,-162.11"/>
<polygon fill="black" stroke="black" points="1312,-162.1 1308.5,-152.1 1305,-162.1 1312,-162.1"/>
</g>
<!-- r&#45;ggquickeda -->
<g id="node71" class="node">
<title>r&#45;ggquickeda</title>
<g id="a_node71"><a xlink:href="https://github.com/conda-forge/r-ggquickeda-feedstock" xlink:title="r ggquickeda">
<ellipse fill="#35b779" stroke="black" cx="1308.5" cy="-958" rx="69.59" ry="18"/>
<text text-anchor="middle" x="1308.5" y="-954.3" font-family="Times-Roman" font-size="14.00">r ggquickeda</text>
</a>
</g>
</g>
<!-- r&#45;mvord&#45;&gt;r&#45;ggquickeda -->
<!-- r&#45;immunarch -->
<g id="node72" class="node">
<title>r&#45;immunarch</title>
<g id="a_node72"><a xlink:href="https://github.com/conda-forge/r-immunarch-feedstock" xlink:title="r immunarch">
<ellipse fill="#35b779" stroke="black" cx="434.5" cy="-654" rx="69" ry="18"/>
<text text-anchor="middle" x="434.5" y="-650.3" font-family="Times-Roman" font-size="14.00">r immunarch</text>
</a>
</g>
</g>
<!-- r&#45;geofacet -->
<g id="node73" class="node">
<title>r&#45;geofacet</title>
<g id="a_node73"><a xlink:href="https://github.com/conda-forge/r-geofacet-feedstock" xlink:title="r geofacet">
<ellipse fill="#ff8c00" stroke="black" cx="434.5" cy="-582" rx="56.59" ry="18"/>
<text text-anchor="middle" x="434.5" y="-578.3" font-family="Times-Roman" font-size="14.00">r geofacet</text>
</a>
</g>
</g>
<!-- r&#45;immunarch&#45;&gt;r&#45;geofacet -->
<!-- r&#45;dbmodelr -->
<g id="node76" class="node">
<title>r&#45;dbmodelr</title>
<g id="a_node76"><a xlink:href="https://github.com/conda-forge/r-dbmodelr-feedstock/pull/4" xlink:title="r dbmodelr ✓">
<ellipse fill="#31688e" stroke="black" cx="434.5" cy="-510" rx="71.5" ry="18"/>
<text text-anchor="middle" x="434.5" y="-506.3" font-family="Times-Roman" font-size="14.00" fill="white">r dbmodelr ✓</text>
</a>
</g>
</g>
<!-- r&#45;geofacet&#45;&gt;r&#45;dbmodelr -->
<!-- r&#45;luminescence -->
<g id="node74" class="node">
<title>r&#45;luminescence</title>
<g id="a_node74"><a xlink:href="https://github.com/conda-forge/r-luminescence-feedstock" xlink:title="r luminescence">
<ellipse fill="#ff8c00" stroke="black" cx="434.5" cy="-206" rx="79.5" ry="18"/>
<text text-anchor="middle" x="434.5" y="-202.3" font-family="Times-Roman" font-size="14.00">r luminescence</text>
</a>
</g>
</g>
<!-- r&#45;rlumshiny -->
<g id="node75" class="node">
<title>r&#45;rlumshiny</title>
<g id="a_node75"><a xlink:href="https://github.com/conda-forge/r-rlumshiny-feedstock" xlink:title="r rlumshiny">
<ellipse fill="#fde725" stroke="black" cx="434.5" cy="-134" rx="63.09" ry="18"/>
<text text-anchor="middle" x="434.5" y="-130.3" font-family="Times-Roman" font-size="14.00">r rlumshiny</text>
</a>
</g>
</g>
<!-- r&#45;luminescence&#45;&gt;r&#45;rlumshiny -->
<g id="edge61" class="edge">
<title>r&#45;luminescence&#45;&gt;r&#45;rlumshiny</title>
<path fill="none" stroke="black" d="M434.5,-187.7C434.5,-179.98 434.5,-170.71 434.5,-162.11"/>
<polygon fill="black" stroke="black" points="438,-162.1 434.5,-152.1 431,-162.1 438,-162.1"/>
</g>
<!-- r&#45;rmsnumpress -->
<g id="node78" class="node">
<title>r&#45;rmsnumpress</title>
<g id="a_node78"><a xlink:href="https://github.com/conda-forge/r-rmsnumpress-feedstock/pull/1" xlink:title="r rmsnumpress ✓">
<ellipse fill="#31688e" stroke="black" cx="434.5" cy="-438" rx="90.5" ry="18"/>
<text text-anchor="middle" x="434.5" y="-434.3" font-family="Times-Roman" font-size="14.00" fill="white">r rmsnumpress ✓</text>
</a>
</g>
</g>
<!-- r&#45;dbmodelr&#45;&gt;r&#45;rmsnumpress -->
<!-- r&#45;textshaping -->
<g id="node77" class="node">
<title>r&#45;textshaping</title>
<g id="a_node77"><a xlink:href="https://github.com/conda-forge/r-textshaping-feedstock/pull/6" xlink:title="r textshaping ❎">
<ellipse fill="#31688e" stroke="black" cx="1102.5" cy="-878" rx="85.29" ry="18"/>
<text text-anchor="middle" x="1102.5" y="-874.3" font-family="Times-Roman" font-size="14.00" fill="white">r textshaping ❎</text>
</a>
</g>
</g>
<!-- r&#45;textshaping&#45;&gt;r&#45;ragg -->
<g id="edge63" class="edge">
<title>r&#45;textshaping&#45;&gt;r&#45;ragg</title>
<path fill="none" stroke="black" d="M1102.5,-859.7C1102.5,-851.98 1102.5,-842.71 1102.5,-834.11"/>
<polygon fill="black" stroke="black" points="1106,-834.1 1102.5,-824.1 1099,-834.1 1106,-834.1"/>
</g>
<!-- r&#45;kfas -->
<g id="node79" class="node">
<title>r&#45;kfas</title>
<g id="a_node79"><a xlink:href="https://github.com/conda-forge/r-kfas-feedstock/pull/2" xlink:title="r kfas ✓">
<ellipse fill="#31688e" stroke="black" cx="1036.5" cy="-90" rx="47.5" ry="18"/>
<text text-anchor="middle" x="1036.5" y="-86.3" font-family="Times-Roman" font-size="14.00" fill="white">r kfas ✓</text>
</a>
</g>
</g>
<!-- r&#45;mbsts -->
<g id="node80" class="node">
<title>r&#45;mbsts</title>
<g id="a_node80"><a xlink:href="https://github.com/conda-forge/r-mbsts-feedstock" xlink:title="r mbsts">
<ellipse fill="#fde725" stroke="black" cx="1036.5" cy="-18" rx="45.5" ry="18"/>
<text text-anchor="middle" x="1036.5" y="-14.3" font-family="Times-Roman" font-size="14.00">r mbsts</text>
</a>
</g>
</g>
<!-- r&#45;kfas&#45;&gt;r&#45;mbsts -->
<g id="edge65" class="edge">
<title>r&#45;kfas&#45;&gt;r&#45;mbsts</title>
<path fill="none" stroke="black" d="M1036.5,-71.7C1036.5,-63.98 1036.5,-54.71 1036.5,-46.11"/>
<polygon fill="black" stroke="black" points="1040,-46.1 1036.5,-36.1 1033,-46.1 1040,-46.1"/>
</g>
</g>
</svg>
