<?xml version="1.0" encoding="UTF-8" standalone="no"?>
<!DOCTYPE svg PUBLIC "-//W3C//DTD SVG 1.1//EN"
 "http://www.w3.org/Graphics/SVG/1.1/DTD/svg11.dtd">
<!-- Generated by graphviz version 2.46.1 (20210222.2046)
 -->
<!-- Pages: 1 -->
<svg width="1167pt" height="520pt"
 viewBox="0.00 0.00 1166.60 520.00" xmlns="http://www.w3.org/2000/svg" xmlns:xlink="http://www.w3.org/1999/xlink">
<g id="graph0" class="graph" transform="scale(1 1) rotate(0) translate(4 516)">
<polygon fill="white" stroke="transparent" points="-4,4 -4,-516 1162.6,-516 1162.6,4 -4,4"/>
<!-- openturns -->
<g id="node1" class="node">
<title>openturns</title>
<g id="a_node1"><a xlink:href="https://github.com/conda-forge/openturns-feedstock" xlink:title="openturns">
<ellipse fill="#fde725" stroke="black" cx="585.6" cy="-206" rx="58" ry="18"/>
<text text-anchor="middle" x="585.6" y="-202.3" font-family="Times-Roman" font-size="14.00">openturns</text>
</a>
</g>
</g>
<!-- suitesparse -->
<g id="node2" class="node">
<title>suitesparse</title>
<g id="a_node2"><a xlink:href="https://github.com/conda-forge/suitesparse-feedstock" xlink:title="suitesparse">
<ellipse fill="#fde725" stroke="black" cx="692.6" cy="-350" rx="64.5" ry="18"/>
<text text-anchor="middle" x="692.6" y="-346.3" font-family="Times-Roman" font-size="14.00">suitesparse</text>
</a>
</g>
</g>
<!-- ceres&#45;solver -->
<g id="node3" class="node">
<title>ceres&#45;solver</title>
<g id="a_node3"><a xlink:href="https://github.com/conda-forge/ceres-solver-feedstock" xlink:title="ceres solver">
<ellipse fill="#fde725" stroke="black" cx="633.6" cy="-278" rx="67.69" ry="18"/>
<text text-anchor="middle" x="633.6" y="-274.3" font-family="Times-Roman" font-size="14.00">ceres solver</text>
</a>
</g>
</g>
<!-- suitesparse&#45;&gt;ceres&#45;solver -->
<g id="edge1" class="edge">
<title>suitesparse&#45;&gt;ceres&#45;solver</title>
<path fill="none" stroke="black" d="M678.61,-332.41C671.37,-323.82 662.39,-313.16 654.35,-303.63"/>
<polygon fill="black" stroke="black" points="657.01,-301.35 647.89,-295.96 651.66,-305.86 657.01,-301.35"/>
</g>
<!-- ceres&#45;solver&#45;&gt;openturns -->
<g id="edge2" class="edge">
<title>ceres&#45;solver&#45;&gt;openturns</title>
<path fill="none" stroke="black" d="M621.98,-260.05C616.26,-251.71 609.25,-241.49 602.91,-232.25"/>
<polygon fill="black" stroke="black" points="605.65,-230.06 597.11,-223.79 599.88,-234.02 605.65,-230.06"/>
</g>
<!-- vtk -->
<g id="node4" class="node">
<title>vtk</title>
<g id="a_node4"><a xlink:href="https://github.com/conda-forge/vtk-feedstock/pull/164" xlink:title="vtk ❎">
<ellipse fill="#31688e" stroke="black" cx="276.6" cy="-422" rx="37.09" ry="18"/>
<text text-anchor="middle" x="276.6" y="-418.3" font-family="Times-Roman" font-size="14.00" fill="white">vtk ❎</text>
</a>
</g>
</g>
<!-- occt -->
<g id="node5" class="node">
<title>occt</title>
<g id="a_node5"><a xlink:href="https://github.com/conda-forge/occt-feedstock" xlink:title="occt">
<ellipse fill="#fde725" stroke="black" cx="166.6" cy="-350" rx="30" ry="18"/>
<text text-anchor="middle" x="166.6" y="-346.3" font-family="Times-Roman" font-size="14.00">occt</text>
</a>
</g>
</g>
<!-- vtk&#45;&gt;occt -->
<g id="edge3" class="edge">
<title>vtk&#45;&gt;occt</title>
<path fill="none" stroke="black" d="M254.86,-407.17C237.75,-396.28 213.76,-381.01 195.11,-369.14"/>
<polygon fill="black" stroke="black" points="196.75,-366.04 186.43,-363.62 192.99,-371.95 196.75,-366.04"/>
</g>
<!-- smesh -->
<g id="node6" class="node">
<title>smesh</title>
<g id="a_node6"><a xlink:href="https://github.com/conda-forge/smesh-feedstock" xlink:title="smesh">
<ellipse fill="#fde725" stroke="black" cx="41.6" cy="-278" rx="41.69" ry="18"/>
<text text-anchor="middle" x="41.6" y="-274.3" font-family="Times-Roman" font-size="14.00">smesh</text>
</a>
</g>
</g>
<!-- vtk&#45;&gt;smesh -->
<g id="edge4" class="edge">
<title>vtk&#45;&gt;smesh</title>
<path fill="none" stroke="black" d="M243.24,-413.82C211.67,-405.99 163.84,-391.34 127.6,-368 100.57,-350.59 75.76,-323.13 59.8,-303.31"/>
<polygon fill="black" stroke="black" points="62.46,-301.03 53.53,-295.34 56.96,-305.36 62.46,-301.03"/>
</g>
<!-- freecad -->
<g id="node7" class="node">
<title>freecad</title>
<g id="a_node7"><a xlink:href="https://github.com/conda-forge/freecad-feedstock" xlink:title="freecad">
<ellipse fill="#fde725" stroke="black" cx="111.6" cy="-206" rx="46.29" ry="18"/>
<text text-anchor="middle" x="111.6" y="-202.3" font-family="Times-Roman" font-size="14.00">freecad</text>
</a>
</g>
</g>
<!-- vtk&#45;&gt;freecad -->
<g id="edge5" class="edge">
<title>vtk&#45;&gt;freecad</title>
<path fill="none" stroke="black" d="M288.19,-404.5C308.74,-373.06 346.33,-303.79 312.6,-260 294.7,-236.77 218.51,-221.67 165.26,-213.75"/>
<polygon fill="black" stroke="black" points="165.67,-210.27 155.27,-212.3 164.67,-217.2 165.67,-210.27"/>
</g>
<!-- topologytoolkit -->
<g id="node8" class="node">
<title>topologytoolkit</title>
<g id="a_node8"><a xlink:href="https://github.com/conda-forge/topologytoolkit-feedstock" xlink:title="topologytoolkit">
<ellipse fill="#fde725" stroke="black" cx="439.6" cy="-350" rx="80" ry="18"/>
<text text-anchor="middle" x="439.6" y="-346.3" font-family="Times-Roman" font-size="14.00">topologytoolkit</text>
</a>
</g>
</g>
<!-- vtk&#45;&gt;topologytoolkit -->
<g id="edge6" class="edge">
<title>vtk&#45;&gt;topologytoolkit</title>
<path fill="none" stroke="black" d="M303.51,-409.44C328.32,-398.79 365.6,-382.78 394.88,-370.2"/>
<polygon fill="black" stroke="black" points="396.27,-373.42 404.08,-366.25 393.51,-366.98 396.27,-373.42"/>
</g>
<!-- occt&#45;&gt;smesh -->
<g id="edge7" class="edge">
<title>occt&#45;&gt;smesh</title>
<path fill="none" stroke="black" d="M145.39,-337.13C126.05,-326.29 97.15,-310.11 74.75,-297.57"/>
<polygon fill="black" stroke="black" points="76.34,-294.45 65.91,-292.61 72.92,-300.55 76.34,-294.45"/>
</g>
<!-- occt&#45;&gt;freecad -->
<g id="edge8" class="edge">
<title>occt&#45;&gt;freecad</title>
<path fill="none" stroke="black" d="M153.85,-333.7C146.04,-323.59 136.45,-309.71 130.6,-296 122.13,-276.17 117.29,-252.2 114.62,-234.13"/>
<polygon fill="black" stroke="black" points="118.06,-233.43 113.25,-223.99 111.12,-234.37 118.06,-233.43"/>
</g>
<!-- pythonocc&#45;core -->
<g id="node9" class="node">
<title>pythonocc&#45;core</title>
<g id="a_node9"><a xlink:href="https://github.com/conda-forge/pythonocc-core-feedstock" xlink:title="pythonocc core">
<ellipse fill="#fde725" stroke="black" cx="221.6" cy="-278" rx="82" ry="18"/>
<text text-anchor="middle" x="221.6" y="-274.3" font-family="Times-Roman" font-size="14.00">pythonocc core</text>
</a>
</g>
</g>
<!-- occt&#45;&gt;pythonocc&#45;core -->
<g id="edge9" class="edge">
<title>occt&#45;&gt;pythonocc&#45;core</title>
<path fill="none" stroke="black" d="M178.8,-333.46C185.63,-324.78 194.29,-313.75 202.04,-303.89"/>
<polygon fill="black" stroke="black" points="204.84,-305.99 208.27,-295.96 199.34,-301.66 204.84,-305.99"/>
</g>
<!-- smesh&#45;&gt;freecad -->
<g id="edge10" class="edge">
<title>smesh&#45;&gt;freecad</title>
<path fill="none" stroke="black" d="M57.48,-261.12C66.48,-252.12 77.91,-240.68 87.95,-230.65"/>
<polygon fill="black" stroke="black" points="90.69,-232.85 95.29,-223.31 85.74,-227.9 90.69,-232.85"/>
</g>
<!-- numba -->
<g id="node10" class="node">
<title>numba</title>
<g id="a_node10"><a xlink:href="https://github.com/conda-forge/numba-feedstock" xlink:title="numba">
<ellipse fill="#ff8c00" stroke="black" cx="927.6" cy="-422" rx="43.59" ry="18"/>
<text text-anchor="middle" x="927.6" y="-418.3" font-family="Times-Roman" font-size="14.00">numba</text>
</a>
</g>
</g>
<!-- root -->
<g id="node11" class="node">
<title>root</title>
<g id="a_node11"><a xlink:href="https://github.com/conda-forge/root-feedstock" xlink:title="root">
<ellipse fill="#fde725" stroke="black" cx="874.6" cy="-350" rx="30" ry="18"/>
<text text-anchor="middle" x="874.6" y="-346.3" font-family="Times-Roman" font-size="14.00">root</text>
</a>
</g>
</g>
<!-- numba&#45;&gt;root -->
<g id="edge11" class="edge">
<title>numba&#45;&gt;root</title>
<path fill="none" stroke="black" d="M915.04,-404.41C908.41,-395.66 900.15,-384.75 892.83,-375.08"/>
<polygon fill="black" stroke="black" points="895.53,-372.85 886.7,-366.99 889.95,-377.07 895.53,-372.85"/>
</g>
<!-- omniscidb -->
<g id="node12" class="node">
<title>omniscidb</title>
<g id="a_node12"><a xlink:href="https://github.com/conda-forge/omniscidb-feedstock" xlink:title="omniscidb">
<ellipse fill="#fde725" stroke="black" cx="980.6" cy="-350" rx="58" ry="18"/>
<text text-anchor="middle" x="980.6" y="-346.3" font-family="Times-Roman" font-size="14.00">omniscidb</text>
</a>
</g>
</g>
<!-- numba&#45;&gt;omniscidb -->
<g id="edge12" class="edge">
<title>numba&#45;&gt;omniscidb</title>
<path fill="none" stroke="black" d="M940.16,-404.41C946.53,-395.99 954.41,-385.58 961.52,-376.2"/>
<polygon fill="black" stroke="black" points="964.51,-378.04 967.76,-367.96 958.93,-373.82 964.51,-378.04"/>
</g>
<!-- fwlite -->
<g id="node13" class="node">
<title>fwlite</title>
<g id="a_node13"><a xlink:href="https://github.com/conda-forge/fwlite-feedstock" xlink:title="fwlite">
<ellipse fill="#fde725" stroke="black" cx="906.6" cy="-278" rx="36.5" ry="18"/>
<text text-anchor="middle" x="906.6" y="-274.3" font-family="Times-Roman" font-size="14.00">fwlite</text>
</a>
</g>
</g>
<!-- root&#45;&gt;fwlite -->
<g id="edge13" class="edge">
<title>root&#45;&gt;fwlite</title>
<path fill="none" stroke="black" d="M882.18,-332.41C885.91,-324.25 890.5,-314.22 894.68,-305.07"/>
<polygon fill="black" stroke="black" points="897.87,-306.51 898.84,-295.96 891.5,-303.6 897.87,-306.51"/>
</g>
<!-- hoomd -->
<g id="node14" class="node">
<title>hoomd</title>
<g id="a_node14"><a xlink:href="https://github.com/conda-forge/hoomd-feedstock" xlink:title="hoomd">
<ellipse fill="#ff8c00" stroke="black" cx="1102.6" cy="-494" rx="43.59" ry="18"/>
<text text-anchor="middle" x="1102.6" y="-490.3" font-family="Times-Roman" font-size="14.00">hoomd</text>
</a>
</g>
</g>
<!-- freud -->
<g id="node15" class="node">
<title>freud</title>
<g id="a_node15"><a xlink:href="https://github.com/conda-forge/freud-feedstock/pull/35" xlink:title="freud ❎">
<ellipse fill="#31688e" stroke="black" cx="1102.6" cy="-422" rx="48.19" ry="18"/>
<text text-anchor="middle" x="1102.6" y="-418.3" font-family="Times-Roman" font-size="14.00" fill="white">freud ❎</text>
</a>
</g>
</g>
<!-- hoomd&#45;&gt;freud -->
<!-- dealii -->
<g id="node16" class="node">
<title>dealii</title>
<g id="a_node16"><a xlink:href="https://github.com/conda-forge/dealii-feedstock/pull/15" xlink:title="dealii ❎">
<ellipse fill="#31688e" stroke="black" cx="1102.6" cy="-350" rx="48.19" ry="18"/>
<text text-anchor="middle" x="1102.6" y="-346.3" font-family="Times-Roman" font-size="14.00" fill="white">dealii ❎</text>
</a>
</g>
</g>
<!-- freud&#45;&gt;dealii -->
<!-- gazebo -->
<g id="node17" class="node">
<title>gazebo</title>
<g id="a_node17"><a xlink:href="https://github.com/conda-forge/gazebo-feedstock/pull/61" xlink:title="gazebo ✓">
<ellipse fill="#31688e" stroke="black" cx="1102.6" cy="-278" rx="56" ry="18"/>
<text text-anchor="middle" x="1102.6" y="-274.3" font-family="Times-Roman" font-size="14.00" fill="white">gazebo ✓</text>
</a>
</g>
</g>
<!-- dealii&#45;&gt;gazebo -->
<!-- foamalgo -->
<g id="node20" class="node">
<title>foamalgo</title>
<g id="a_node20"><a xlink:href="https://github.com/conda-forge/foamalgo-feedstock" xlink:title="foamalgo">
<ellipse fill="#ff8c00" stroke="black" cx="1102.6" cy="-206" rx="55.49" ry="18"/>
<text text-anchor="middle" x="1102.6" y="-202.3" font-family="Times-Roman" font-size="14.00">foamalgo</text>
</a>
</g>
</g>
<!-- gazebo&#45;&gt;foamalgo -->
<!-- obake -->
<g id="node18" class="node">
<title>obake</title>
<g id="a_node18"><a xlink:href="https://github.com/conda-forge/obake-feedstock/pull/18" xlink:title="obake ❎">
<ellipse fill="#31688e" stroke="black" cx="259.6" cy="-90" rx="51.5" ry="18"/>
<text text-anchor="middle" x="259.6" y="-86.3" font-family="Times-Roman" font-size="14.00" fill="white">obake ❎</text>
</a>
</g>
</g>
<!-- dcgp&#45;python -->
<g id="node19" class="node">
<title>dcgp&#45;python</title>
<g id="a_node19"><a xlink:href="https://github.com/conda-forge/dcgp-python-feedstock" xlink:title="dcgp python">
<ellipse fill="#fde725" stroke="black" cx="259.6" cy="-18" rx="68.49" ry="18"/>
<text text-anchor="middle" x="259.6" y="-14.3" font-family="Times-Roman" font-size="14.00">dcgp python</text>
</a>
</g>
</g>
<!-- obake&#45;&gt;dcgp&#45;python -->
<g id="edge17" class="edge">
<title>obake&#45;&gt;dcgp&#45;python</title>
<path fill="none" stroke="black" d="M259.6,-71.7C259.6,-63.98 259.6,-54.71 259.6,-46.11"/>
<polygon fill="black" stroke="black" points="263.1,-46.1 259.6,-36.1 256.1,-46.1 263.1,-46.1"/>
</g>
<!-- tomviz -->
<g id="node23" class="node">
<title>tomviz</title>
<g id="a_node23"><a xlink:href="https://github.com/conda-forge/tomviz-feedstock/pull/6" xlink:title="tomviz ❎">
<ellipse fill="#31688e" stroke="black" cx="1102.6" cy="-134" rx="54" ry="18"/>
<text text-anchor="middle" x="1102.6" y="-130.3" font-family="Times-Roman" font-size="14.00" fill="white">tomviz ❎</text>
</a>
</g>
</g>
<!-- foamalgo&#45;&gt;tomviz -->
<!-- intel_repack -->
<g id="node21" class="node">
<title>intel_repack</title>
<g id="a_node21"><a xlink:href="https://github.com/conda-forge/intel_repack-feedstock/pull/21" xlink:title="intel_repack ❎">
<ellipse fill="#31688e" stroke="black" cx="692.6" cy="-422" rx="79.5" ry="18"/>
<text text-anchor="middle" x="692.6" y="-418.3" font-family="Times-Roman" font-size="14.00" fill="white">intel_repack ❎</text>
</a>
</g>
</g>
<!-- intel_repack&#45;&gt;openturns -->
<g id="edge19" class="edge">
<title>intel_repack&#45;&gt;openturns</title>
<path fill="none" stroke="black" d="M662.01,-405.34C627.36,-385.47 573.5,-347.49 556.6,-296 551.6,-280.8 552.63,-275.5 556.6,-260 559.04,-250.45 563.6,-240.76 568.39,-232.33"/>
<polygon fill="black" stroke="black" points="571.4,-234.11 573.59,-223.74 565.42,-230.49 571.4,-234.11"/>
</g>
<!-- intel_repack&#45;&gt;suitesparse -->
<g id="edge20" class="edge">
<title>intel_repack&#45;&gt;suitesparse</title>
<path fill="none" stroke="black" d="M692.6,-403.7C692.6,-395.98 692.6,-386.71 692.6,-378.11"/>
<polygon fill="black" stroke="black" points="696.1,-378.1 692.6,-368.1 689.1,-378.1 696.1,-378.1"/>
</g>
<!-- intel_repack&#45;&gt;ceres&#45;solver -->
<g id="edge21" class="edge">
<title>intel_repack&#45;&gt;ceres&#45;solver</title>
<path fill="none" stroke="black" d="M658.31,-405.64C643.23,-396.93 627.05,-384.45 618.6,-368 608.58,-348.51 613.99,-323.75 620.95,-305.3"/>
<polygon fill="black" stroke="black" points="624.2,-306.6 624.78,-296.03 617.73,-303.93 624.2,-306.6"/>
</g>
<!-- intel_repack&#45;&gt;root -->
<g id="edge22" class="edge">
<title>intel_repack&#45;&gt;root</title>
<path fill="none" stroke="black" d="M731.19,-406.15C763.58,-393.7 809.41,-376.07 840.47,-364.12"/>
<polygon fill="black" stroke="black" points="841.93,-367.32 850,-360.46 839.41,-360.78 841.93,-367.32"/>
</g>
<!-- scipoptsuite -->
<g id="node22" class="node">
<title>scipoptsuite</title>
<g id="a_node22"><a xlink:href="https://github.com/conda-forge/scipoptsuite-feedstock" xlink:title="scipoptsuite">
<ellipse fill="#fde725" stroke="black" cx="785.6" cy="-278" rx="66.5" ry="18"/>
<text text-anchor="middle" x="785.6" y="-274.3" font-family="Times-Roman" font-size="14.00">scipoptsuite</text>
</a>
</g>
</g>
<!-- intel_repack&#45;&gt;scipoptsuite -->
<g id="edge23" class="edge">
<title>intel_repack&#45;&gt;scipoptsuite</title>
<path fill="none" stroke="black" d="M724.26,-405.45C739.3,-396.5 756.21,-383.86 766.6,-368 778.61,-349.66 783.18,-325.05 784.85,-306.36"/>
<polygon fill="black" stroke="black" points="788.36,-306.34 785.53,-296.13 781.37,-305.88 788.36,-306.34"/>
</g>
</g>
</svg>
