<?xml version="1.0" encoding="UTF-8" standalone="no"?>
<!DOCTYPE svg PUBLIC "-//W3C//DTD SVG 1.1//EN"
 "http://www.w3.org/Graphics/SVG/1.1/DTD/svg11.dtd">
<!-- Generated by graphviz version 2.47.1 (20210418.0311)
 -->
<!-- Pages: 1 -->
<svg width="926pt" height="376pt"
 viewBox="0.00 0.00 926.10 376.00" xmlns="http://www.w3.org/2000/svg" xmlns:xlink="http://www.w3.org/1999/xlink">
<g id="graph0" class="graph" transform="scale(1 1) rotate(0) translate(4 372)">
<polygon fill="white" stroke="transparent" points="-4,4 -4,-372 922.1,-372 922.1,4 -4,4"/>
<!-- openturns -->
<g id="node1" class="node">
<title>openturns</title>
<g id="a_node1"><a xlink:href="https://github.com/conda-forge/openturns-feedstock" xlink:title="openturns">
<ellipse fill="#fde725" stroke="black" cx="842.6" cy="-170" rx="58" ry="18"/>
<text text-anchor="middle" x="842.6" y="-166.3" font-family="Times-Roman" font-size="14.00">openturns</text>
</a>
</g>
</g>
<!-- suitesparse -->
<g id="node2" class="node">
<title>suitesparse</title>
<g id="a_node2"><a xlink:href="https://github.com/conda-forge/suitesparse-feedstock/pull/72" xlink:title="suitesparse ✓">
<ellipse fill="#31688e" stroke="black" cx="842.6" cy="-314" rx="75.5" ry="18"/>
<text text-anchor="middle" x="842.6" y="-310.3" font-family="Times-Roman" font-size="14.00" fill="white">suitesparse ✓</text>
</a>
</g>
</g>
<!-- ceres&#45;solver -->
<g id="node3" class="node">
<title>ceres&#45;solver</title>
<g id="a_node3"><a xlink:href="https://github.com/conda-forge/ceres-solver-feedstock" xlink:title="ceres solver">
<ellipse fill="#fde725" stroke="black" cx="842.6" cy="-242" rx="67.69" ry="18"/>
<text text-anchor="middle" x="842.6" y="-238.3" font-family="Times-Roman" font-size="14.00">ceres solver</text>
</a>
</g>
</g>
<!-- suitesparse&#45;&gt;ceres&#45;solver -->
<g id="edge1" class="edge">
<title>suitesparse&#45;&gt;ceres&#45;solver</title>
<path fill="none" stroke="black" d="M842.6,-295.7C842.6,-287.98 842.6,-278.71 842.6,-270.11"/>
<polygon fill="black" stroke="black" points="846.1,-270.1 842.6,-260.1 839.1,-270.1 846.1,-270.1"/>
</g>
<!-- ceres&#45;solver&#45;&gt;openturns -->
<g id="edge2" class="edge">
<title>ceres&#45;solver&#45;&gt;openturns</title>
<path fill="none" stroke="black" d="M842.6,-223.7C842.6,-215.98 842.6,-206.71 842.6,-198.11"/>
<polygon fill="black" stroke="black" points="846.1,-198.1 842.6,-188.1 839.1,-198.1 846.1,-198.1"/>
</g>
<!-- vtk -->
<g id="node4" class="node">
<title>vtk</title>
<g id="a_node4"><a xlink:href="https://github.com/conda-forge/vtk-feedstock/pull/178" xlink:title="vtk ❎">
<ellipse fill="#31688e" stroke="black" cx="331.6" cy="-350" rx="39" ry="18"/>
<text text-anchor="middle" x="331.6" y="-346.3" font-family="Times-Roman" font-size="14.00" fill="white">vtk ❎</text>
</a>
</g>
</g>
<!-- occt -->
<g id="node5" class="node">
<title>occt</title>
<g id="a_node5"><a xlink:href="https://github.com/conda-forge/occt-feedstock" xlink:title="occt">
<ellipse fill="#fde725" stroke="black" cx="191.6" cy="-278" rx="30" ry="18"/>
<text text-anchor="middle" x="191.6" y="-274.3" font-family="Times-Roman" font-size="14.00">occt</text>
</a>
</g>
</g>
<!-- vtk&#45;&gt;occt -->
<g id="edge3" class="edge">
<title>vtk&#45;&gt;occt</title>
<path fill="none" stroke="black" d="M305.92,-336.16C282.54,-324.47 247.96,-307.18 222.95,-294.68"/>
<polygon fill="black" stroke="black" points="224.39,-291.48 213.88,-290.14 221.26,-297.75 224.39,-291.48"/>
</g>
<!-- smesh -->
<g id="node6" class="node">
<title>smesh</title>
<g id="a_node6"><a xlink:href="https://github.com/conda-forge/smesh-feedstock" xlink:title="smesh">
<ellipse fill="#fde725" stroke="black" cx="41.6" cy="-206" rx="41.69" ry="18"/>
<text text-anchor="middle" x="41.6" y="-202.3" font-family="Times-Roman" font-size="14.00">smesh</text>
</a>
</g>
</g>
<!-- vtk&#45;&gt;smesh -->
<g id="edge4" class="edge">
<title>vtk&#45;&gt;smesh</title>
<path fill="none" stroke="black" d="M295.74,-342.65C258.44,-335.09 199.12,-320.33 152.6,-296 118.87,-278.36 85.53,-249.72 64.33,-229.7"/>
<polygon fill="black" stroke="black" points="66.73,-227.15 57.09,-222.76 61.89,-232.2 66.73,-227.15"/>
</g>
<!-- freecad -->
<g id="node7" class="node">
<title>freecad</title>
<g id="a_node7"><a xlink:href="https://github.com/conda-forge/freecad-feedstock" xlink:title="freecad">
<ellipse fill="#fde725" stroke="black" cx="111.6" cy="-134" rx="46.29" ry="18"/>
<text text-anchor="middle" x="111.6" y="-130.3" font-family="Times-Roman" font-size="14.00">freecad</text>
</a>
</g>
</g>
<!-- vtk&#45;&gt;freecad -->
<g id="edge5" class="edge">
<title>vtk&#45;&gt;freecad</title>
<path fill="none" stroke="black" d="M335.18,-332C340.93,-299.69 348.22,-229.01 312.6,-188 293.36,-165.86 217.54,-150.47 164.73,-142.18"/>
<polygon fill="black" stroke="black" points="165.24,-138.72 154.83,-140.67 164.18,-145.64 165.24,-138.72"/>
</g>
<!-- topologytoolkit -->
<g id="node8" class="node">
<title>topologytoolkit</title>
<g id="a_node8"><a xlink:href="https://github.com/conda-forge/topologytoolkit-feedstock" xlink:title="topologytoolkit">
<ellipse fill="#fde725" stroke="black" cx="439.6" cy="-278" rx="80" ry="18"/>
<text text-anchor="middle" x="439.6" y="-274.3" font-family="Times-Roman" font-size="14.00">topologytoolkit</text>
</a>
</g>
</g>
<!-- vtk&#45;&gt;topologytoolkit -->
<g id="edge6" class="edge">
<title>vtk&#45;&gt;topologytoolkit</title>
<path fill="none" stroke="black" d="M353.19,-335C368.29,-325.22 388.75,-311.96 405.97,-300.8"/>
<polygon fill="black" stroke="black" points="408.14,-303.56 414.63,-295.18 404.34,-297.68 408.14,-303.56"/>
</g>
<!-- python&#45;mint -->
<g id="node9" class="node">
<title>python&#45;mint</title>
<g id="a_node9"><a xlink:href="https://github.com/conda-forge/python-mint-feedstock" xlink:title="python mint">
<ellipse fill="#fde725" stroke="black" cx="547.6" cy="-206" rx="67" ry="18"/>
<text text-anchor="middle" x="547.6" y="-202.3" font-family="Times-Roman" font-size="14.00">python mint</text>
</a>
</g>
</g>
<!-- vtk&#45;&gt;python&#45;mint -->
<g id="edge7" class="edge">
<title>vtk&#45;&gt;python&#45;mint</title>
<path fill="none" stroke="black" d="M370.91,-349.82C415.6,-348.5 487.64,-339.16 528.6,-296 544.1,-279.66 548.23,-253.91 548.84,-234.3"/>
<polygon fill="black" stroke="black" points="552.34,-234.15 548.87,-224.14 545.34,-234.13 552.34,-234.15"/>
</g>
<!-- occt&#45;&gt;smesh -->
<g id="edge8" class="edge">
<title>occt&#45;&gt;smesh</title>
<path fill="none" stroke="black" d="M168.49,-266.22C144.34,-254.95 106.13,-237.11 77.94,-223.96"/>
<polygon fill="black" stroke="black" points="79.34,-220.75 68.8,-219.69 76.38,-227.1 79.34,-220.75"/>
</g>
<!-- occt&#45;&gt;freecad -->
<g id="edge9" class="edge">
<title>occt&#45;&gt;freecad</title>
<path fill="none" stroke="black" d="M171.23,-264.43C157.64,-254.98 140.5,-240.8 130.6,-224 119.53,-205.23 114.87,-180.85 112.93,-162.35"/>
<polygon fill="black" stroke="black" points="116.4,-161.9 112.07,-152.23 109.43,-162.49 116.4,-161.9"/>
</g>
<!-- pythonocc&#45;core -->
<g id="node10" class="node">
<title>pythonocc&#45;core</title>
<g id="a_node10"><a xlink:href="https://github.com/conda-forge/pythonocc-core-feedstock" xlink:title="pythonocc core">
<ellipse fill="#fde725" stroke="black" cx="221.6" cy="-206" rx="82" ry="18"/>
<text text-anchor="middle" x="221.6" y="-202.3" font-family="Times-Roman" font-size="14.00">pythonocc core</text>
</a>
</g>
</g>
<!-- occt&#45;&gt;pythonocc&#45;core -->
<g id="edge10" class="edge">
<title>occt&#45;&gt;pythonocc&#45;core</title>
<path fill="none" stroke="black" d="M198.71,-260.41C202.17,-252.34 206.41,-242.43 210.3,-233.35"/>
<polygon fill="black" stroke="black" points="213.61,-234.53 214.33,-223.96 207.17,-231.77 213.61,-234.53"/>
</g>
<!-- smesh&#45;&gt;freecad -->
<g id="edge11" class="edge">
<title>smesh&#45;&gt;freecad</title>
<path fill="none" stroke="black" d="M57.48,-189.12C66.48,-180.12 77.91,-168.68 87.95,-158.65"/>
<polygon fill="black" stroke="black" points="90.69,-160.85 95.29,-151.31 85.74,-155.9 90.69,-160.85"/>
</g>
<!-- numba -->
<g id="node11" class="node">
<title>numba</title>
<g id="a_node11"><a xlink:href="https://github.com/conda-forge/numba-feedstock" xlink:title="numba">
<ellipse fill="#ff8c00" stroke="black" cx="307.6" cy="-90" rx="43.59" ry="18"/>
<text text-anchor="middle" x="307.6" y="-86.3" font-family="Times-Roman" font-size="14.00">numba</text>
</a>
</g>
</g>
<!-- omniscidb -->
<g id="node12" class="node">
<title>omniscidb</title>
<g id="a_node12"><a xlink:href="https://github.com/conda-forge/omniscidb-feedstock" xlink:title="omniscidb">
<ellipse fill="#fde725" stroke="black" cx="307.6" cy="-18" rx="58" ry="18"/>
<text text-anchor="middle" x="307.6" y="-14.3" font-family="Times-Roman" font-size="14.00">omniscidb</text>
</a>
</g>
</g>
<!-- numba&#45;&gt;omniscidb -->
<g id="edge12" class="edge">
<title>numba&#45;&gt;omniscidb</title>
<path fill="none" stroke="black" d="M307.6,-71.7C307.6,-63.98 307.6,-54.71 307.6,-46.11"/>
<polygon fill="black" stroke="black" points="311.1,-46.1 307.6,-36.1 304.1,-46.1 311.1,-46.1"/>
</g>
<!-- fwlite -->
<g id="node13" class="node">
<title>fwlite</title>
<g id="a_node13"><a xlink:href="https://github.com/conda-forge/fwlite-feedstock/pull/43" xlink:title="fwlite ❎">
<ellipse fill="#31688e" stroke="black" cx="690.6" cy="-350" rx="50.09" ry="18"/>
<text text-anchor="middle" x="690.6" y="-346.3" font-family="Times-Roman" font-size="14.00" fill="white">fwlite ❎</text>
</a>
</g>
</g>
<!-- dcgp&#45;python -->
<g id="node14" class="node">
<title>dcgp&#45;python</title>
<g id="a_node14"><a xlink:href="https://github.com/conda-forge/dcgp-python-feedstock" xlink:title="dcgp python">
<ellipse fill="#ff8c00" stroke="black" cx="690.6" cy="-278" rx="68.49" ry="18"/>
<text text-anchor="middle" x="690.6" y="-274.3" font-family="Times-Roman" font-size="14.00">dcgp python</text>
</a>
</g>
</g>
<!-- fwlite&#45;&gt;dcgp&#45;python -->
<!-- foamalgo -->
<g id="node15" class="node">
<title>foamalgo</title>
<g id="a_node15"><a xlink:href="https://github.com/conda-forge/foamalgo-feedstock" xlink:title="foamalgo">
<ellipse fill="#ff8c00" stroke="black" cx="690.6" cy="-206" rx="55.49" ry="18"/>
<text text-anchor="middle" x="690.6" y="-202.3" font-family="Times-Roman" font-size="14.00">foamalgo</text>
</a>
</g>
</g>
<!-- dcgp&#45;python&#45;&gt;foamalgo -->
<!-- tomviz -->
<g id="node16" class="node">
<title>tomviz</title>
<g id="a_node16"><a xlink:href="https://github.com/conda-forge/tomviz-feedstock/pull/6" xlink:title="tomviz ❎">
<ellipse fill="#31688e" stroke="black" cx="690.6" cy="-134" rx="56" ry="18"/>
<text text-anchor="middle" x="690.6" y="-130.3" font-family="Times-Roman" font-size="14.00" fill="white">tomviz ❎</text>
</a>
</g>
</g>
<!-- foamalgo&#45;&gt;tomviz -->
</g>
</svg>
