<?xml version="1.0" encoding="UTF-8" standalone="no"?>
<!DOCTYPE svg PUBLIC "-//W3C//DTD SVG 1.1//EN"
 "http://www.w3.org/Graphics/SVG/1.1/DTD/svg11.dtd">
<!-- Generated by graphviz version 2.49.0 (20210829.0051)
 -->
<!-- Pages: 1 -->
<svg width="1021pt" height="348pt"
 viewBox="0.00 0.00 1020.54 348.00" xmlns="http://www.w3.org/2000/svg" xmlns:xlink="http://www.w3.org/1999/xlink">
<g id="graph0" class="graph" transform="scale(1 1) rotate(0) translate(4 344)">
<polygon fill="white" stroke="transparent" points="-4,4 -4,-344 1016.54,-344 1016.54,4 -4,4"/>
<!-- vtk -->
<g id="node1" class="node">
<title>vtk</title>
<g id="a_node1"><a xlink:href="https://github.com/conda-forge/vtk-feedstock/pull/195" xlink:title="vtk ❎">
<ellipse fill="#31688e" stroke="black" cx="326.3" cy="-322" rx="39.79" ry="18"/>
<text text-anchor="middle" x="326.3" y="-318.3" font-family="Times,serif" font-size="14.00" fill="white">vtk ❎</text>
</a>
</g>
</g>
<!-- occt -->
<g id="node2" class="node">
<title>occt</title>
<g id="a_node2"><a xlink:href="https://github.com/conda-forge/occt-feedstock" xlink:title="occt">
<ellipse fill="#fde725" stroke="black" cx="187.3" cy="-250" rx="29.8" ry="18"/>
<text text-anchor="middle" x="187.3" y="-246.3" font-family="Times,serif" font-size="14.00">occt</text>
</a>
</g>
</g>
<!-- vtk&#45;&gt;occt -->
<g id="edge2" class="edge">
<title>vtk&#45;&gt;occt</title>
<path fill="none" stroke="black" d="M300.8,-308.16C277.59,-296.47 243.25,-279.18 218.43,-266.68"/>
<polygon fill="black" stroke="black" points="219.93,-263.51 209.42,-262.14 216.78,-269.77 219.93,-263.51"/>
</g>
<!-- smesh -->
<g id="node3" class="node">
<title>smesh</title>
<g id="a_node3"><a xlink:href="https://github.com/conda-forge/smesh-feedstock" xlink:title="smesh">
<ellipse fill="#fde725" stroke="black" cx="40.3" cy="-178" rx="40.09" ry="18"/>
<text text-anchor="middle" x="40.3" y="-174.3" font-family="Times,serif" font-size="14.00">smesh</text>
</a>
</g>
</g>
<!-- vtk&#45;&gt;smesh -->
<g id="edge4" class="edge">
<title>vtk&#45;&gt;smesh</title>
<path fill="none" stroke="black" d="M289.88,-314.6C252.71,-307.07 194.12,-292.4 148.3,-268 115.4,-250.48 83.15,-222 62.58,-201.99"/>
<polygon fill="black" stroke="black" points="64.86,-199.32 55.29,-194.77 59.94,-204.29 64.86,-199.32"/>
</g>
<!-- freecad -->
<g id="node4" class="node">
<title>freecad</title>
<g id="a_node4"><a xlink:href="https://github.com/conda-forge/freecad-feedstock" xlink:title="freecad">
<ellipse fill="#fde725" stroke="black" cx="108.3" cy="-106" rx="45.49" ry="18"/>
<text text-anchor="middle" x="108.3" y="-102.3" font-family="Times,serif" font-size="14.00">freecad</text>
</a>
</g>
</g>
<!-- vtk&#45;&gt;freecad -->
<g id="edge1" class="edge">
<title>vtk&#45;&gt;freecad</title>
<path fill="none" stroke="black" d="M329.87,-304.01C335.6,-271.71 342.87,-201.05 307.3,-160 288.26,-138.02 213.07,-122.58 160.78,-114.24"/>
<polygon fill="black" stroke="black" points="161.07,-110.74 150.65,-112.66 159.99,-117.66 161.07,-110.74"/>
</g>
<!-- topologytoolkit -->
<g id="node5" class="node">
<title>topologytoolkit</title>
<g id="a_node5"><a xlink:href="https://github.com/conda-forge/topologytoolkit-feedstock" xlink:title="topologytoolkit">
<ellipse fill="#fde725" stroke="black" cx="435.3" cy="-250" rx="80.69" ry="18"/>
<text text-anchor="middle" x="435.3" y="-246.3" font-family="Times,serif" font-size="14.00">topologytoolkit</text>
</a>
</g>
</g>
<!-- vtk&#45;&gt;topologytoolkit -->
<g id="edge5" class="edge">
<title>vtk&#45;&gt;topologytoolkit</title>
<path fill="none" stroke="black" d="M348.35,-306.83C363.5,-297.1 383.91,-284 401.15,-272.93"/>
<polygon fill="black" stroke="black" points="403.31,-275.7 409.83,-267.35 399.53,-269.81 403.31,-275.7"/>
</g>
<!-- python&#45;mint -->
<g id="node13" class="node">
<title>python&#45;mint</title>
<g id="a_node13"><a xlink:href="https://github.com/conda-forge/python-mint-feedstock" xlink:title="python mint">
<ellipse fill="#fde725" stroke="black" cx="601.3" cy="-250" rx="67.69" ry="18"/>
<text text-anchor="middle" x="601.3" y="-246.3" font-family="Times,serif" font-size="14.00">python mint</text>
</a>
</g>
</g>
<!-- vtk&#45;&gt;python&#45;mint -->
<g id="edge3" class="edge">
<title>vtk&#45;&gt;python&#45;mint</title>
<path fill="none" stroke="black" d="M360.02,-312.42C405.88,-300.74 488.58,-279.69 544.21,-265.53"/>
<polygon fill="black" stroke="black" points="545.1,-268.92 553.92,-263.06 543.37,-262.13 545.1,-268.92"/>
</g>
<!-- occt&#45;&gt;smesh -->
<g id="edge8" class="edge">
<title>occt&#45;&gt;smesh</title>
<path fill="none" stroke="black" d="M164.65,-238.22C141.09,-227 103.86,-209.27 76.27,-196.13"/>
<polygon fill="black" stroke="black" points="77.49,-192.83 66.95,-191.69 74.48,-199.15 77.49,-192.83"/>
</g>
<!-- occt&#45;&gt;freecad -->
<g id="edge6" class="edge">
<title>occt&#45;&gt;freecad</title>
<path fill="none" stroke="black" d="M167.26,-236.36C153.89,-226.87 137.04,-212.68 127.3,-196 116.3,-177.18 111.64,-152.81 109.68,-134.32"/>
<polygon fill="black" stroke="black" points="113.15,-133.87 108.81,-124.21 106.18,-134.47 113.15,-133.87"/>
</g>
<!-- pythonocc&#45;core -->
<g id="node8" class="node">
<title>pythonocc&#45;core</title>
<g id="a_node8"><a xlink:href="https://github.com/conda-forge/pythonocc-core-feedstock" xlink:title="pythonocc core">
<ellipse fill="#fde725" stroke="black" cx="217.3" cy="-178" rx="81.49" ry="18"/>
<text text-anchor="middle" x="217.3" y="-174.3" font-family="Times,serif" font-size="14.00">pythonocc core</text>
</a>
</g>
</g>
<!-- occt&#45;&gt;pythonocc&#45;core -->
<g id="edge7" class="edge">
<title>occt&#45;&gt;pythonocc&#45;core</title>
<path fill="none" stroke="black" d="M194.41,-232.41C197.87,-224.34 202.11,-214.43 206,-205.35"/>
<polygon fill="black" stroke="black" points="209.31,-206.53 210.03,-195.96 202.87,-203.77 209.31,-206.53"/>
</g>
<!-- smesh&#45;&gt;freecad -->
<g id="edge9" class="edge">
<title>smesh&#45;&gt;freecad</title>
<path fill="none" stroke="black" d="M55.73,-161.12C64.47,-152.12 75.58,-140.68 85.33,-130.65"/>
<polygon fill="black" stroke="black" points="88,-132.92 92.46,-123.31 82.98,-128.04 88,-132.92"/>
</g>
<!-- gazebo -->
<g id="node6" class="node">
<title>gazebo</title>
<g id="a_node6"><a xlink:href="https://github.com/conda-forge/gazebo-feedstock/pull/82" xlink:title="gazebo ❎">
<ellipse fill="#31688e" stroke="black" cx="334.3" cy="-62" rx="57.69" ry="18"/>
<text text-anchor="middle" x="334.3" y="-58.3" font-family="Times,serif" font-size="14.00" fill="white">gazebo ❎</text>
</a>
</g>
</g>
<!-- dcgp&#45;python -->
<g id="node7" class="node">
<title>dcgp&#45;python</title>
<g id="a_node7"><a xlink:href="https://github.com/conda-forge/dcgp-python-feedstock/pull/17" xlink:title="dcgp python ❎">
<ellipse fill="#31688e" stroke="black" cx="759.3" cy="-214" rx="82.59" ry="18"/>
<text text-anchor="middle" x="759.3" y="-210.3" font-family="Times,serif" font-size="14.00" fill="white">dcgp python ❎</text>
</a>
</g>
</g>
<!-- foamalgo -->
<g id="node9" class="node">
<title>foamalgo</title>
<g id="a_node9"><a xlink:href="https://github.com/conda-forge/foamalgo-feedstock" xlink:title="foamalgo">
<ellipse fill="#ff8c00" stroke="black" cx="334.3" cy="-18" rx="53.09" ry="18"/>
<text text-anchor="middle" x="334.3" y="-14.3" font-family="Times,serif" font-size="14.00">foamalgo</text>
</a>
</g>
</g>
<!-- heyoka -->
<g id="node10" class="node">
<title>heyoka</title>
<g id="a_node10"><a xlink:href="https://github.com/conda-forge/heyoka-feedstock/pull/23" xlink:title="heyoka ❎">
<ellipse fill="#31688e" stroke="black" cx="759.3" cy="-62" rx="57.69" ry="18"/>
<text text-anchor="middle" x="759.3" y="-58.3" font-family="Times,serif" font-size="14.00" fill="white">heyoka ❎</text>
</a>
</g>
</g>
<!-- tomviz -->
<g id="node11" class="node">
<title>tomviz</title>
<g id="a_node11"><a xlink:href="https://github.com/conda-forge/tomviz-feedstock/pull/12" xlink:title="tomviz ❎">
<ellipse fill="#31688e" stroke="black" cx="931.3" cy="-62" rx="55.79" ry="18"/>
<text text-anchor="middle" x="931.3" y="-58.3" font-family="Times,serif" font-size="14.00" fill="white">tomviz ❎</text>
</a>
</g>
</g>
<!-- scipoptsuite -->
<g id="node12" class="node">
<title>scipoptsuite</title>
<g id="a_node12"><a xlink:href="https://github.com/conda-forge/scipoptsuite-feedstock/pull/16" xlink:title="scipoptsuite ❎">
<ellipse fill="#31688e" stroke="black" cx="931.3" cy="-214" rx="81.49" ry="18"/>
<text text-anchor="middle" x="931.3" y="-210.3" font-family="Times,serif" font-size="14.00" fill="white">scipoptsuite ❎</text>
</a>
</g>
</g>
</g>
</svg>
