<?xml version="1.0" encoding="UTF-8" standalone="no"?>
<!DOCTYPE svg PUBLIC "-//W3C//DTD SVG 1.1//EN"
 "http://www.w3.org/Graphics/SVG/1.1/DTD/svg11.dtd">
<!-- Generated by graphviz version 2.46.1 (20210222.2046)
 -->
<!-- Pages: 1 -->
<svg width="1167pt" height="592pt"
 viewBox="0.00 0.00 1166.60 592.00" xmlns="http://www.w3.org/2000/svg" xmlns:xlink="http://www.w3.org/1999/xlink">
<g id="graph0" class="graph" transform="scale(1 1) rotate(0) translate(4 588)">
<polygon fill="white" stroke="transparent" points="-4,4 -4,-588 1162.6,-588 1162.6,4 -4,4"/>
<!-- openturns -->
<g id="node1" class="node">
<title>openturns</title>
<g id="a_node1"><a xlink:href="https://github.com/conda-forge/openturns-feedstock" xlink:title="openturns">
<ellipse fill="#fde725" stroke="black" cx="585.6" cy="-242" rx="58" ry="18"/>
<text text-anchor="middle" x="585.6" y="-238.3" font-family="Times-Roman" font-size="14.00">openturns</text>
</a>
</g>
</g>
<!-- suitesparse -->
<g id="node2" class="node">
<title>suitesparse</title>
<g id="a_node2"><a xlink:href="https://github.com/conda-forge/suitesparse-feedstock" xlink:title="suitesparse">
<ellipse fill="#fde725" stroke="black" cx="692.6" cy="-386" rx="64.5" ry="18"/>
<text text-anchor="middle" x="692.6" y="-382.3" font-family="Times-Roman" font-size="14.00">suitesparse</text>
</a>
</g>
</g>
<!-- ceres&#45;solver -->
<g id="node3" class="node">
<title>ceres&#45;solver</title>
<g id="a_node3"><a xlink:href="https://github.com/conda-forge/ceres-solver-feedstock" xlink:title="ceres solver">
<ellipse fill="#fde725" stroke="black" cx="633.6" cy="-314" rx="67.69" ry="18"/>
<text text-anchor="middle" x="633.6" y="-310.3" font-family="Times-Roman" font-size="14.00">ceres solver</text>
</a>
</g>
</g>
<!-- suitesparse&#45;&gt;ceres&#45;solver -->
<g id="edge1" class="edge">
<title>suitesparse&#45;&gt;ceres&#45;solver</title>
<path fill="none" stroke="black" d="M678.61,-368.41C671.37,-359.82 662.39,-349.16 654.35,-339.63"/>
<polygon fill="black" stroke="black" points="657.01,-337.35 647.89,-331.96 651.66,-341.86 657.01,-337.35"/>
</g>
<!-- ceres&#45;solver&#45;&gt;openturns -->
<g id="edge2" class="edge">
<title>ceres&#45;solver&#45;&gt;openturns</title>
<path fill="none" stroke="black" d="M621.98,-296.05C616.26,-287.71 609.25,-277.49 602.91,-268.25"/>
<polygon fill="black" stroke="black" points="605.65,-266.06 597.11,-259.79 599.88,-270.02 605.65,-266.06"/>
</g>
<!-- vtk -->
<g id="node4" class="node">
<title>vtk</title>
<g id="a_node4"><a xlink:href="https://github.com/conda-forge/vtk-feedstock/pull/164" xlink:title="vtk ❎">
<ellipse fill="#31688e" stroke="black" cx="276.6" cy="-458" rx="37.09" ry="18"/>
<text text-anchor="middle" x="276.6" y="-454.3" font-family="Times-Roman" font-size="14.00" fill="white">vtk ❎</text>
</a>
</g>
</g>
<!-- occt -->
<g id="node5" class="node">
<title>occt</title>
<g id="a_node5"><a xlink:href="https://github.com/conda-forge/occt-feedstock" xlink:title="occt">
<ellipse fill="#fde725" stroke="black" cx="166.6" cy="-386" rx="30" ry="18"/>
<text text-anchor="middle" x="166.6" y="-382.3" font-family="Times-Roman" font-size="14.00">occt</text>
</a>
</g>
</g>
<!-- vtk&#45;&gt;occt -->
<g id="edge3" class="edge">
<title>vtk&#45;&gt;occt</title>
<path fill="none" stroke="black" d="M254.86,-443.17C237.75,-432.28 213.76,-417.01 195.11,-405.14"/>
<polygon fill="black" stroke="black" points="196.75,-402.04 186.43,-399.62 192.99,-407.95 196.75,-402.04"/>
</g>
<!-- smesh -->
<g id="node6" class="node">
<title>smesh</title>
<g id="a_node6"><a xlink:href="https://github.com/conda-forge/smesh-feedstock" xlink:title="smesh">
<ellipse fill="#fde725" stroke="black" cx="41.6" cy="-314" rx="41.69" ry="18"/>
<text text-anchor="middle" x="41.6" y="-310.3" font-family="Times-Roman" font-size="14.00">smesh</text>
</a>
</g>
</g>
<!-- vtk&#45;&gt;smesh -->
<g id="edge4" class="edge">
<title>vtk&#45;&gt;smesh</title>
<path fill="none" stroke="black" d="M243.24,-449.82C211.67,-441.99 163.84,-427.34 127.6,-404 100.57,-386.59 75.76,-359.13 59.8,-339.31"/>
<polygon fill="black" stroke="black" points="62.46,-337.03 53.53,-331.34 56.96,-341.36 62.46,-337.03"/>
</g>
<!-- freecad -->
<g id="node7" class="node">
<title>freecad</title>
<g id="a_node7"><a xlink:href="https://github.com/conda-forge/freecad-feedstock" xlink:title="freecad">
<ellipse fill="#fde725" stroke="black" cx="111.6" cy="-242" rx="46.29" ry="18"/>
<text text-anchor="middle" x="111.6" y="-238.3" font-family="Times-Roman" font-size="14.00">freecad</text>
</a>
</g>
</g>
<!-- vtk&#45;&gt;freecad -->
<g id="edge5" class="edge">
<title>vtk&#45;&gt;freecad</title>
<path fill="none" stroke="black" d="M288.19,-440.5C308.74,-409.06 346.33,-339.79 312.6,-296 294.7,-272.77 218.51,-257.67 165.26,-249.75"/>
<polygon fill="black" stroke="black" points="165.67,-246.27 155.27,-248.3 164.67,-253.2 165.67,-246.27"/>
</g>
<!-- topologytoolkit -->
<g id="node8" class="node">
<title>topologytoolkit</title>
<g id="a_node8"><a xlink:href="https://github.com/conda-forge/topologytoolkit-feedstock" xlink:title="topologytoolkit">
<ellipse fill="#fde725" stroke="black" cx="439.6" cy="-386" rx="80" ry="18"/>
<text text-anchor="middle" x="439.6" y="-382.3" font-family="Times-Roman" font-size="14.00">topologytoolkit</text>
</a>
</g>
</g>
<!-- vtk&#45;&gt;topologytoolkit -->
<g id="edge6" class="edge">
<title>vtk&#45;&gt;topologytoolkit</title>
<path fill="none" stroke="black" d="M303.51,-445.44C328.32,-434.79 365.6,-418.78 394.88,-406.2"/>
<polygon fill="black" stroke="black" points="396.27,-409.42 404.08,-402.25 393.51,-402.98 396.27,-409.42"/>
</g>
<!-- occt&#45;&gt;smesh -->
<g id="edge7" class="edge">
<title>occt&#45;&gt;smesh</title>
<path fill="none" stroke="black" d="M145.39,-373.13C126.05,-362.29 97.15,-346.11 74.75,-333.57"/>
<polygon fill="black" stroke="black" points="76.34,-330.45 65.91,-328.61 72.92,-336.55 76.34,-330.45"/>
</g>
<!-- occt&#45;&gt;freecad -->
<g id="edge8" class="edge">
<title>occt&#45;&gt;freecad</title>
<path fill="none" stroke="black" d="M153.85,-369.7C146.04,-359.59 136.45,-345.71 130.6,-332 122.13,-312.17 117.29,-288.2 114.62,-270.13"/>
<polygon fill="black" stroke="black" points="118.06,-269.43 113.25,-259.99 111.12,-270.37 118.06,-269.43"/>
</g>
<!-- pythonocc&#45;core -->
<g id="node9" class="node">
<title>pythonocc&#45;core</title>
<g id="a_node9"><a xlink:href="https://github.com/conda-forge/pythonocc-core-feedstock" xlink:title="pythonocc core">
<ellipse fill="#fde725" stroke="black" cx="221.6" cy="-314" rx="82" ry="18"/>
<text text-anchor="middle" x="221.6" y="-310.3" font-family="Times-Roman" font-size="14.00">pythonocc core</text>
</a>
</g>
</g>
<!-- occt&#45;&gt;pythonocc&#45;core -->
<g id="edge9" class="edge">
<title>occt&#45;&gt;pythonocc&#45;core</title>
<path fill="none" stroke="black" d="M178.8,-369.46C185.63,-360.78 194.29,-349.75 202.04,-339.89"/>
<polygon fill="black" stroke="black" points="204.84,-341.99 208.27,-331.96 199.34,-337.66 204.84,-341.99"/>
</g>
<!-- smesh&#45;&gt;freecad -->
<g id="edge10" class="edge">
<title>smesh&#45;&gt;freecad</title>
<path fill="none" stroke="black" d="M57.48,-297.12C66.48,-288.12 77.91,-276.68 87.95,-266.65"/>
<polygon fill="black" stroke="black" points="90.69,-268.85 95.29,-259.31 85.74,-263.9 90.69,-268.85"/>
</g>
<!-- numba -->
<g id="node10" class="node">
<title>numba</title>
<g id="a_node10"><a xlink:href="https://github.com/conda-forge/numba-feedstock" xlink:title="numba">
<ellipse fill="#ff8c00" stroke="black" cx="927.6" cy="-458" rx="43.59" ry="18"/>
<text text-anchor="middle" x="927.6" y="-454.3" font-family="Times-Roman" font-size="14.00">numba</text>
</a>
</g>
</g>
<!-- root -->
<g id="node11" class="node">
<title>root</title>
<g id="a_node11"><a xlink:href="https://github.com/conda-forge/root-feedstock" xlink:title="root">
<ellipse fill="#fde725" stroke="black" cx="874.6" cy="-386" rx="30" ry="18"/>
<text text-anchor="middle" x="874.6" y="-382.3" font-family="Times-Roman" font-size="14.00">root</text>
</a>
</g>
</g>
<!-- numba&#45;&gt;root -->
<g id="edge11" class="edge">
<title>numba&#45;&gt;root</title>
<path fill="none" stroke="black" d="M915.04,-440.41C908.41,-431.66 900.15,-420.75 892.83,-411.08"/>
<polygon fill="black" stroke="black" points="895.53,-408.85 886.7,-402.99 889.95,-413.07 895.53,-408.85"/>
</g>
<!-- omniscidb -->
<g id="node12" class="node">
<title>omniscidb</title>
<g id="a_node12"><a xlink:href="https://github.com/conda-forge/omniscidb-feedstock" xlink:title="omniscidb">
<ellipse fill="#fde725" stroke="black" cx="980.6" cy="-386" rx="58" ry="18"/>
<text text-anchor="middle" x="980.6" y="-382.3" font-family="Times-Roman" font-size="14.00">omniscidb</text>
</a>
</g>
</g>
<!-- numba&#45;&gt;omniscidb -->
<g id="edge12" class="edge">
<title>numba&#45;&gt;omniscidb</title>
<path fill="none" stroke="black" d="M940.16,-440.41C946.53,-431.99 954.41,-421.58 961.52,-412.2"/>
<polygon fill="black" stroke="black" points="964.51,-414.04 967.76,-403.96 958.93,-409.82 964.51,-414.04"/>
</g>
<!-- fwlite -->
<g id="node13" class="node">
<title>fwlite</title>
<g id="a_node13"><a xlink:href="https://github.com/conda-forge/fwlite-feedstock" xlink:title="fwlite">
<ellipse fill="#fde725" stroke="black" cx="906.6" cy="-314" rx="36.5" ry="18"/>
<text text-anchor="middle" x="906.6" y="-310.3" font-family="Times-Roman" font-size="14.00">fwlite</text>
</a>
</g>
</g>
<!-- root&#45;&gt;fwlite -->
<g id="edge13" class="edge">
<title>root&#45;&gt;fwlite</title>
<path fill="none" stroke="black" d="M882.18,-368.41C885.91,-360.25 890.5,-350.22 894.68,-341.07"/>
<polygon fill="black" stroke="black" points="897.87,-342.51 898.84,-331.96 891.5,-339.6 897.87,-342.51"/>
</g>
<!-- fresnel -->
<g id="node14" class="node">
<title>fresnel</title>
<g id="a_node14"><a xlink:href="https://github.com/conda-forge/fresnel-feedstock" xlink:title="fresnel">
<ellipse fill="#35b779" stroke="black" cx="1102.6" cy="-566" rx="43" ry="18"/>
<text text-anchor="middle" x="1102.6" y="-562.3" font-family="Times-Roman" font-size="14.00">fresnel</text>
</a>
</g>
</g>
<!-- hoomd -->
<g id="node15" class="node">
<title>hoomd</title>
<g id="a_node15"><a xlink:href="https://github.com/conda-forge/hoomd-feedstock" xlink:title="hoomd">
<ellipse fill="#ff8c00" stroke="black" cx="1102.6" cy="-494" rx="43.59" ry="18"/>
<text text-anchor="middle" x="1102.6" y="-490.3" font-family="Times-Roman" font-size="14.00">hoomd</text>
</a>
</g>
</g>
<!-- fresnel&#45;&gt;hoomd -->
<!-- freud -->
<g id="node16" class="node">
<title>freud</title>
<g id="a_node16"><a xlink:href="https://github.com/conda-forge/freud-feedstock/pull/35" xlink:title="freud ❎">
<ellipse fill="#31688e" stroke="black" cx="1102.6" cy="-422" rx="48.19" ry="18"/>
<text text-anchor="middle" x="1102.6" y="-418.3" font-family="Times-Roman" font-size="14.00" fill="white">freud ❎</text>
</a>
</g>
</g>
<!-- hoomd&#45;&gt;freud -->
<!-- dealii -->
<g id="node17" class="node">
<title>dealii</title>
<g id="a_node17"><a xlink:href="https://github.com/conda-forge/dealii-feedstock/pull/15" xlink:title="dealii ❎">
<ellipse fill="#31688e" stroke="black" cx="1102.6" cy="-350" rx="48.19" ry="18"/>
<text text-anchor="middle" x="1102.6" y="-346.3" font-family="Times-Roman" font-size="14.00" fill="white">dealii ❎</text>
</a>
</g>
</g>
<!-- freud&#45;&gt;dealii -->
<!-- gazebo -->
<g id="node18" class="node">
<title>gazebo</title>
<g id="a_node18"><a xlink:href="https://github.com/conda-forge/gazebo-feedstock/pull/61" xlink:title="gazebo ✓">
<ellipse fill="#31688e" stroke="black" cx="1102.6" cy="-278" rx="56" ry="18"/>
<text text-anchor="middle" x="1102.6" y="-274.3" font-family="Times-Roman" font-size="14.00" fill="white">gazebo ✓</text>
</a>
</g>
</g>
<!-- dealii&#45;&gt;gazebo -->
<!-- foamalgo -->
<g id="node21" class="node">
<title>foamalgo</title>
<g id="a_node21"><a xlink:href="https://github.com/conda-forge/foamalgo-feedstock" xlink:title="foamalgo">
<ellipse fill="#ff8c00" stroke="black" cx="1102.6" cy="-206" rx="55.49" ry="18"/>
<text text-anchor="middle" x="1102.6" y="-202.3" font-family="Times-Roman" font-size="14.00">foamalgo</text>
</a>
</g>
</g>
<!-- gazebo&#45;&gt;foamalgo -->
<!-- obake -->
<g id="node19" class="node">
<title>obake</title>
<g id="a_node19"><a xlink:href="https://github.com/conda-forge/obake-feedstock/pull/18" xlink:title="obake ❎">
<ellipse fill="#31688e" stroke="black" cx="259.6" cy="-90" rx="51.5" ry="18"/>
<text text-anchor="middle" x="259.6" y="-86.3" font-family="Times-Roman" font-size="14.00" fill="white">obake ❎</text>
</a>
</g>
</g>
<!-- dcgp&#45;python -->
<g id="node20" class="node">
<title>dcgp&#45;python</title>
<g id="a_node20"><a xlink:href="https://github.com/conda-forge/dcgp-python-feedstock" xlink:title="dcgp python">
<ellipse fill="#fde725" stroke="black" cx="259.6" cy="-18" rx="68.49" ry="18"/>
<text text-anchor="middle" x="259.6" y="-14.3" font-family="Times-Roman" font-size="14.00">dcgp python</text>
</a>
</g>
</g>
<!-- obake&#45;&gt;dcgp&#45;python -->
<g id="edge18" class="edge">
<title>obake&#45;&gt;dcgp&#45;python</title>
<path fill="none" stroke="black" d="M259.6,-71.7C259.6,-63.98 259.6,-54.71 259.6,-46.11"/>
<polygon fill="black" stroke="black" points="263.1,-46.1 259.6,-36.1 256.1,-46.1 263.1,-46.1"/>
</g>
<!-- tomviz -->
<g id="node24" class="node">
<title>tomviz</title>
<g id="a_node24"><a xlink:href="https://github.com/conda-forge/tomviz-feedstock/pull/6" xlink:title="tomviz ❎">
<ellipse fill="#31688e" stroke="black" cx="1102.6" cy="-134" rx="54" ry="18"/>
<text text-anchor="middle" x="1102.6" y="-130.3" font-family="Times-Roman" font-size="14.00" fill="white">tomviz ❎</text>
</a>
</g>
</g>
<!-- foamalgo&#45;&gt;tomviz -->
<!-- intel_repack -->
<g id="node22" class="node">
<title>intel_repack</title>
<g id="a_node22"><a xlink:href="https://github.com/conda-forge/intel_repack-feedstock/pull/21" xlink:title="intel_repack ❎">
<ellipse fill="#31688e" stroke="black" cx="692.6" cy="-458" rx="79.5" ry="18"/>
<text text-anchor="middle" x="692.6" y="-454.3" font-family="Times-Roman" font-size="14.00" fill="white">intel_repack ❎</text>
</a>
</g>
</g>
<!-- intel_repack&#45;&gt;openturns -->
<g id="edge20" class="edge">
<title>intel_repack&#45;&gt;openturns</title>
<path fill="none" stroke="black" d="M662.01,-441.34C627.36,-421.47 573.5,-383.49 556.6,-332 551.6,-316.8 552.63,-311.5 556.6,-296 559.04,-286.45 563.6,-276.76 568.39,-268.33"/>
<polygon fill="black" stroke="black" points="571.4,-270.11 573.59,-259.74 565.42,-266.49 571.4,-270.11"/>
</g>
<!-- intel_repack&#45;&gt;suitesparse -->
<g id="edge21" class="edge">
<title>intel_repack&#45;&gt;suitesparse</title>
<path fill="none" stroke="black" d="M692.6,-439.7C692.6,-431.98 692.6,-422.71 692.6,-414.11"/>
<polygon fill="black" stroke="black" points="696.1,-414.1 692.6,-404.1 689.1,-414.1 696.1,-414.1"/>
</g>
<!-- intel_repack&#45;&gt;ceres&#45;solver -->
<g id="edge22" class="edge">
<title>intel_repack&#45;&gt;ceres&#45;solver</title>
<path fill="none" stroke="black" d="M658.31,-441.64C643.23,-432.93 627.05,-420.45 618.6,-404 608.58,-384.51 613.99,-359.75 620.95,-341.3"/>
<polygon fill="black" stroke="black" points="624.2,-342.6 624.78,-332.03 617.73,-339.93 624.2,-342.6"/>
</g>
<!-- intel_repack&#45;&gt;root -->
<g id="edge23" class="edge">
<title>intel_repack&#45;&gt;root</title>
<path fill="none" stroke="black" d="M731.19,-442.15C763.58,-429.7 809.41,-412.07 840.47,-400.12"/>
<polygon fill="black" stroke="black" points="841.93,-403.32 850,-396.46 839.41,-396.78 841.93,-403.32"/>
</g>
<!-- scipoptsuite -->
<g id="node23" class="node">
<title>scipoptsuite</title>
<g id="a_node23"><a xlink:href="https://github.com/conda-forge/scipoptsuite-feedstock" xlink:title="scipoptsuite">
<ellipse fill="#fde725" stroke="black" cx="785.6" cy="-314" rx="66.5" ry="18"/>
<text text-anchor="middle" x="785.6" y="-310.3" font-family="Times-Roman" font-size="14.00">scipoptsuite</text>
</a>
</g>
</g>
<!-- intel_repack&#45;&gt;scipoptsuite -->
<g id="edge24" class="edge">
<title>intel_repack&#45;&gt;scipoptsuite</title>
<path fill="none" stroke="black" d="M724.26,-441.45C739.3,-432.5 756.21,-419.86 766.6,-404 778.61,-385.66 783.18,-361.05 784.85,-342.36"/>
<polygon fill="black" stroke="black" points="788.36,-342.34 785.53,-332.13 781.37,-341.88 788.36,-342.34"/>
</g>
</g>
</svg>
