<?xml version="1.0" encoding="UTF-8" standalone="no"?>
<!DOCTYPE svg PUBLIC "-//W3C//DTD SVG 1.1//EN"
 "http://www.w3.org/Graphics/SVG/1.1/DTD/svg11.dtd">
<!-- Generated by graphviz version 2.46.1 (20210222.2046)
 -->
<!-- Pages: 1 -->
<svg width="1049pt" height="520pt"
 viewBox="0.00 0.00 1048.60 520.00" xmlns="http://www.w3.org/2000/svg" xmlns:xlink="http://www.w3.org/1999/xlink">
<g id="graph0" class="graph" transform="scale(1 1) rotate(0) translate(4 516)">
<polygon fill="white" stroke="transparent" points="-4,4 -4,-516 1044.6,-516 1044.6,4 -4,4"/>
<!-- openturns -->
<g id="node1" class="node">
<title>openturns</title>
<g id="a_node1"><a xlink:href="https://github.com/conda-forge/openturns-feedstock" xlink:title="openturns">
<ellipse fill="#fde725" stroke="black" cx="585.6" cy="-206" rx="58" ry="18"/>
<text text-anchor="middle" x="585.6" y="-202.3" font-family="Times-Roman" font-size="14.00">openturns</text>
</a>
</g>
</g>
<!-- suitesparse -->
<g id="node2" class="node">
<title>suitesparse</title>
<g id="a_node2"><a xlink:href="https://github.com/conda-forge/suitesparse-feedstock" xlink:title="suitesparse">
<ellipse fill="#fde725" stroke="black" cx="643.6" cy="-350" rx="64.5" ry="18"/>
<text text-anchor="middle" x="643.6" y="-346.3" font-family="Times-Roman" font-size="14.00">suitesparse</text>
</a>
</g>
</g>
<!-- ceres&#45;solver -->
<g id="node3" class="node">
<title>ceres&#45;solver</title>
<g id="a_node3"><a xlink:href="https://github.com/conda-forge/ceres-solver-feedstock" xlink:title="ceres solver">
<ellipse fill="#fde725" stroke="black" cx="646.6" cy="-278" rx="67.69" ry="18"/>
<text text-anchor="middle" x="646.6" y="-274.3" font-family="Times-Roman" font-size="14.00">ceres solver</text>
</a>
</g>
</g>
<!-- suitesparse&#45;&gt;ceres&#45;solver -->
<g id="edge1" class="edge">
<title>suitesparse&#45;&gt;ceres&#45;solver</title>
<path fill="none" stroke="black" d="M644.34,-331.7C644.67,-323.98 645.07,-314.71 645.43,-306.11"/>
<polygon fill="black" stroke="black" points="648.93,-306.25 645.86,-296.1 641.94,-305.95 648.93,-306.25"/>
</g>
<!-- ceres&#45;solver&#45;&gt;openturns -->
<g id="edge2" class="edge">
<title>ceres&#45;solver&#45;&gt;openturns</title>
<path fill="none" stroke="black" d="M632.14,-260.41C624.54,-251.69 615.09,-240.85 606.69,-231.21"/>
<polygon fill="black" stroke="black" points="609.16,-228.71 599.95,-223.47 603.88,-233.31 609.16,-228.71"/>
</g>
<!-- vtk -->
<g id="node4" class="node">
<title>vtk</title>
<g id="a_node4"><a xlink:href="https://github.com/conda-forge/vtk-feedstock/pull/164" xlink:title="vtk ❎">
<ellipse fill="#31688e" stroke="black" cx="276.6" cy="-422" rx="37.09" ry="18"/>
<text text-anchor="middle" x="276.6" y="-418.3" font-family="Times-Roman" font-size="14.00" fill="white">vtk ❎</text>
</a>
</g>
</g>
<!-- occt -->
<g id="node5" class="node">
<title>occt</title>
<g id="a_node5"><a xlink:href="https://github.com/conda-forge/occt-feedstock" xlink:title="occt">
<ellipse fill="#fde725" stroke="black" cx="166.6" cy="-350" rx="30" ry="18"/>
<text text-anchor="middle" x="166.6" y="-346.3" font-family="Times-Roman" font-size="14.00">occt</text>
</a>
</g>
</g>
<!-- vtk&#45;&gt;occt -->
<g id="edge3" class="edge">
<title>vtk&#45;&gt;occt</title>
<path fill="none" stroke="black" d="M254.86,-407.17C237.75,-396.28 213.76,-381.01 195.11,-369.14"/>
<polygon fill="black" stroke="black" points="196.75,-366.04 186.43,-363.62 192.99,-371.95 196.75,-366.04"/>
</g>
<!-- smesh -->
<g id="node6" class="node">
<title>smesh</title>
<g id="a_node6"><a xlink:href="https://github.com/conda-forge/smesh-feedstock" xlink:title="smesh">
<ellipse fill="#fde725" stroke="black" cx="41.6" cy="-278" rx="41.69" ry="18"/>
<text text-anchor="middle" x="41.6" y="-274.3" font-family="Times-Roman" font-size="14.00">smesh</text>
</a>
</g>
</g>
<!-- vtk&#45;&gt;smesh -->
<g id="edge4" class="edge">
<title>vtk&#45;&gt;smesh</title>
<path fill="none" stroke="black" d="M243.24,-413.82C211.67,-405.99 163.84,-391.34 127.6,-368 100.57,-350.59 75.76,-323.13 59.8,-303.31"/>
<polygon fill="black" stroke="black" points="62.46,-301.03 53.53,-295.34 56.96,-305.36 62.46,-301.03"/>
</g>
<!-- freecad -->
<g id="node7" class="node">
<title>freecad</title>
<g id="a_node7"><a xlink:href="https://github.com/conda-forge/freecad-feedstock" xlink:title="freecad">
<ellipse fill="#fde725" stroke="black" cx="111.6" cy="-206" rx="46.29" ry="18"/>
<text text-anchor="middle" x="111.6" y="-202.3" font-family="Times-Roman" font-size="14.00">freecad</text>
</a>
</g>
</g>
<!-- vtk&#45;&gt;freecad -->
<g id="edge5" class="edge">
<title>vtk&#45;&gt;freecad</title>
<path fill="none" stroke="black" d="M288.19,-404.5C308.74,-373.06 346.33,-303.79 312.6,-260 294.7,-236.77 218.51,-221.67 165.26,-213.75"/>
<polygon fill="black" stroke="black" points="165.67,-210.27 155.27,-212.3 164.67,-217.2 165.67,-210.27"/>
</g>
<!-- topologytoolkit -->
<g id="node8" class="node">
<title>topologytoolkit</title>
<g id="a_node8"><a xlink:href="https://github.com/conda-forge/topologytoolkit-feedstock" xlink:title="topologytoolkit">
<ellipse fill="#fde725" stroke="black" cx="439.6" cy="-350" rx="80" ry="18"/>
<text text-anchor="middle" x="439.6" y="-346.3" font-family="Times-Roman" font-size="14.00">topologytoolkit</text>
</a>
</g>
</g>
<!-- vtk&#45;&gt;topologytoolkit -->
<g id="edge6" class="edge">
<title>vtk&#45;&gt;topologytoolkit</title>
<path fill="none" stroke="black" d="M303.51,-409.44C328.32,-398.79 365.6,-382.78 394.88,-370.2"/>
<polygon fill="black" stroke="black" points="396.27,-373.42 404.08,-366.25 393.51,-366.98 396.27,-373.42"/>
</g>
<!-- occt&#45;&gt;smesh -->
<g id="edge7" class="edge">
<title>occt&#45;&gt;smesh</title>
<path fill="none" stroke="black" d="M145.39,-337.13C126.05,-326.29 97.15,-310.11 74.75,-297.57"/>
<polygon fill="black" stroke="black" points="76.34,-294.45 65.91,-292.61 72.92,-300.55 76.34,-294.45"/>
</g>
<!-- occt&#45;&gt;freecad -->
<g id="edge8" class="edge">
<title>occt&#45;&gt;freecad</title>
<path fill="none" stroke="black" d="M153.85,-333.7C146.04,-323.59 136.45,-309.71 130.6,-296 122.13,-276.17 117.29,-252.2 114.62,-234.13"/>
<polygon fill="black" stroke="black" points="118.06,-233.43 113.25,-223.99 111.12,-234.37 118.06,-233.43"/>
</g>
<!-- pythonocc&#45;core -->
<g id="node9" class="node">
<title>pythonocc&#45;core</title>
<g id="a_node9"><a xlink:href="https://github.com/conda-forge/pythonocc-core-feedstock" xlink:title="pythonocc core">
<ellipse fill="#fde725" stroke="black" cx="221.6" cy="-278" rx="82" ry="18"/>
<text text-anchor="middle" x="221.6" y="-274.3" font-family="Times-Roman" font-size="14.00">pythonocc core</text>
</a>
</g>
</g>
<!-- occt&#45;&gt;pythonocc&#45;core -->
<g id="edge9" class="edge">
<title>occt&#45;&gt;pythonocc&#45;core</title>
<path fill="none" stroke="black" d="M178.8,-333.46C185.63,-324.78 194.29,-313.75 202.04,-303.89"/>
<polygon fill="black" stroke="black" points="204.84,-305.99 208.27,-295.96 199.34,-301.66 204.84,-305.99"/>
</g>
<!-- smesh&#45;&gt;freecad -->
<g id="edge10" class="edge">
<title>smesh&#45;&gt;freecad</title>
<path fill="none" stroke="black" d="M57.48,-261.12C66.48,-252.12 77.91,-240.68 87.95,-230.65"/>
<polygon fill="black" stroke="black" points="90.69,-232.85 95.29,-223.31 85.74,-227.9 90.69,-232.85"/>
</g>
<!-- numba -->
<g id="node10" class="node">
<title>numba</title>
<g id="a_node10"><a xlink:href="https://github.com/conda-forge/numba-feedstock" xlink:title="numba">
<ellipse fill="#ff8c00" stroke="black" cx="723.6" cy="-90" rx="43.59" ry="18"/>
<text text-anchor="middle" x="723.6" y="-86.3" font-family="Times-Roman" font-size="14.00">numba</text>
</a>
</g>
</g>
<!-- omniscidb -->
<g id="node11" class="node">
<title>omniscidb</title>
<g id="a_node11"><a xlink:href="https://github.com/conda-forge/omniscidb-feedstock" xlink:title="omniscidb">
<ellipse fill="#fde725" stroke="black" cx="723.6" cy="-18" rx="58" ry="18"/>
<text text-anchor="middle" x="723.6" y="-14.3" font-family="Times-Roman" font-size="14.00">omniscidb</text>
</a>
</g>
</g>
<!-- numba&#45;&gt;omniscidb -->
<g id="edge11" class="edge">
<title>numba&#45;&gt;omniscidb</title>
<path fill="none" stroke="black" d="M723.6,-71.7C723.6,-63.98 723.6,-54.71 723.6,-46.11"/>
<polygon fill="black" stroke="black" points="727.1,-46.1 723.6,-36.1 720.1,-46.1 727.1,-46.1"/>
</g>
<!-- hoomd -->
<g id="node12" class="node">
<title>hoomd</title>
<g id="a_node12"><a xlink:href="https://github.com/conda-forge/hoomd-feedstock/pull/39" xlink:title="hoomd ❎">
<ellipse fill="#31688e" stroke="black" cx="984.6" cy="-494" rx="56" ry="18"/>
<text text-anchor="middle" x="984.6" y="-490.3" font-family="Times-Roman" font-size="14.00" fill="white">hoomd ❎</text>
</a>
</g>
</g>
<!-- freud -->
<g id="node13" class="node">
<title>freud</title>
<g id="a_node13"><a xlink:href="https://github.com/conda-forge/freud-feedstock/pull/35" xlink:title="freud ❎">
<ellipse fill="#31688e" stroke="black" cx="984.6" cy="-422" rx="48.19" ry="18"/>
<text text-anchor="middle" x="984.6" y="-418.3" font-family="Times-Roman" font-size="14.00" fill="white">freud ❎</text>
</a>
</g>
</g>
<!-- hoomd&#45;&gt;freud -->
<!-- dealii -->
<g id="node14" class="node">
<title>dealii</title>
<g id="a_node14"><a xlink:href="https://github.com/conda-forge/dealii-feedstock/pull/15" xlink:title="dealii ❎">
<ellipse fill="#31688e" stroke="black" cx="984.6" cy="-350" rx="48.19" ry="18"/>
<text text-anchor="middle" x="984.6" y="-346.3" font-family="Times-Roman" font-size="14.00" fill="white">dealii ❎</text>
</a>
</g>
</g>
<!-- freud&#45;&gt;dealii -->
<!-- gazebo -->
<g id="node17" class="node">
<title>gazebo</title>
<g id="a_node17"><a xlink:href="https://github.com/conda-forge/gazebo-feedstock/pull/61" xlink:title="gazebo ✓">
<ellipse fill="#31688e" stroke="black" cx="984.6" cy="-278" rx="56" ry="18"/>
<text text-anchor="middle" x="984.6" y="-274.3" font-family="Times-Roman" font-size="14.00" fill="white">gazebo ✓</text>
</a>
</g>
</g>
<!-- dealii&#45;&gt;gazebo -->
<!-- root -->
<g id="node15" class="node">
<title>root</title>
<g id="a_node15"><a xlink:href="https://github.com/conda-forge/root-feedstock" xlink:title="root">
<ellipse fill="#fde725" stroke="black" cx="768.6" cy="-278" rx="30" ry="18"/>
<text text-anchor="middle" x="768.6" y="-274.3" font-family="Times-Roman" font-size="14.00">root</text>
</a>
</g>
</g>
<!-- fwlite -->
<g id="node16" class="node">
<title>fwlite</title>
<g id="a_node16"><a xlink:href="https://github.com/conda-forge/fwlite-feedstock" xlink:title="fwlite">
<ellipse fill="#fde725" stroke="black" cx="732.6" cy="-206" rx="36.5" ry="18"/>
<text text-anchor="middle" x="732.6" y="-202.3" font-family="Times-Roman" font-size="14.00">fwlite</text>
</a>
</g>
</g>
<!-- root&#45;&gt;fwlite -->
<g id="edge14" class="edge">
<title>root&#45;&gt;fwlite</title>
<path fill="none" stroke="black" d="M760.06,-260.41C755.87,-252.25 750.71,-242.22 746,-233.07"/>
<polygon fill="black" stroke="black" points="749,-231.25 741.32,-223.96 742.78,-234.45 749,-231.25"/>
</g>
<!-- foamalgo -->
<g id="node20" class="node">
<title>foamalgo</title>
<g id="a_node20"><a xlink:href="https://github.com/conda-forge/foamalgo-feedstock" xlink:title="foamalgo">
<ellipse fill="#ff8c00" stroke="black" cx="984.6" cy="-206" rx="55.49" ry="18"/>
<text text-anchor="middle" x="984.6" y="-202.3" font-family="Times-Roman" font-size="14.00">foamalgo</text>
</a>
</g>
</g>
<!-- gazebo&#45;&gt;foamalgo -->
<!-- obake -->
<g id="node18" class="node">
<title>obake</title>
<g id="a_node18"><a xlink:href="https://github.com/conda-forge/obake-feedstock/pull/18" xlink:title="obake ❎">
<ellipse fill="#31688e" stroke="black" cx="259.6" cy="-90" rx="51.5" ry="18"/>
<text text-anchor="middle" x="259.6" y="-86.3" font-family="Times-Roman" font-size="14.00" fill="white">obake ❎</text>
</a>
</g>
</g>
<!-- dcgp&#45;python -->
<g id="node19" class="node">
<title>dcgp&#45;python</title>
<g id="a_node19"><a xlink:href="https://github.com/conda-forge/dcgp-python-feedstock" xlink:title="dcgp python">
<ellipse fill="#fde725" stroke="black" cx="259.6" cy="-18" rx="68.49" ry="18"/>
<text text-anchor="middle" x="259.6" y="-14.3" font-family="Times-Roman" font-size="14.00">dcgp python</text>
</a>
</g>
</g>
<!-- obake&#45;&gt;dcgp&#45;python -->
<g id="edge16" class="edge">
<title>obake&#45;&gt;dcgp&#45;python</title>
<path fill="none" stroke="black" d="M259.6,-71.7C259.6,-63.98 259.6,-54.71 259.6,-46.11"/>
<polygon fill="black" stroke="black" points="263.1,-46.1 259.6,-36.1 256.1,-46.1 263.1,-46.1"/>
</g>
<!-- tomviz -->
<g id="node23" class="node">
<title>tomviz</title>
<g id="a_node23"><a xlink:href="https://github.com/conda-forge/tomviz-feedstock/pull/6" xlink:title="tomviz ❎">
<ellipse fill="#31688e" stroke="black" cx="984.6" cy="-134" rx="54" ry="18"/>
<text text-anchor="middle" x="984.6" y="-130.3" font-family="Times-Roman" font-size="14.00" fill="white">tomviz ❎</text>
</a>
</g>
</g>
<!-- foamalgo&#45;&gt;tomviz -->
<!-- intel_repack -->
<g id="node21" class="node">
<title>intel_repack</title>
<g id="a_node21"><a xlink:href="https://github.com/conda-forge/intel_repack-feedstock/pull/21" xlink:title="intel_repack ❎">
<ellipse fill="#31688e" stroke="black" cx="736.6" cy="-422" rx="79.5" ry="18"/>
<text text-anchor="middle" x="736.6" y="-418.3" font-family="Times-Roman" font-size="14.00" fill="white">intel_repack ❎</text>
</a>
</g>
</g>
<!-- intel_repack&#45;&gt;openturns -->
<g id="edge18" class="edge">
<title>intel_repack&#45;&gt;openturns</title>
<path fill="none" stroke="black" d="M660.52,-416.41C626.99,-410.14 590.52,-396.6 569.6,-368 540.61,-328.39 558.65,-267.84 573.02,-233.39"/>
<polygon fill="black" stroke="black" points="576.33,-234.56 577.12,-224 569.92,-231.76 576.33,-234.56"/>
</g>
<!-- intel_repack&#45;&gt;suitesparse -->
<g id="edge19" class="edge">
<title>intel_repack&#45;&gt;suitesparse</title>
<path fill="none" stroke="black" d="M714.56,-404.41C702.19,-395.1 686.6,-383.37 673.18,-373.27"/>
<polygon fill="black" stroke="black" points="675.25,-370.45 665.16,-367.23 671.04,-376.04 675.25,-370.45"/>
</g>
<!-- intel_repack&#45;&gt;ceres&#45;solver -->
<g id="edge20" class="edge">
<title>intel_repack&#45;&gt;ceres&#45;solver</title>
<path fill="none" stroke="black" d="M736.19,-403.93C735.01,-384.97 730.82,-354.11 716.6,-332 708.43,-319.31 696.12,-308.51 684.08,-300.04"/>
<polygon fill="black" stroke="black" points="685.69,-296.91 675.43,-294.29 681.82,-302.74 685.69,-296.91"/>
</g>
<!-- intel_repack&#45;&gt;root -->
<g id="edge21" class="edge">
<title>intel_repack&#45;&gt;root</title>
<path fill="none" stroke="black" d="M741.39,-403.88C744.22,-393.53 747.79,-380.05 750.6,-368 755.4,-347.4 760.11,-323.95 763.51,-306.29"/>
<polygon fill="black" stroke="black" points="767.01,-306.6 765.44,-296.13 760.13,-305.3 767.01,-306.6"/>
</g>
<!-- scipoptsuite -->
<g id="node22" class="node">
<title>scipoptsuite</title>
<g id="a_node22"><a xlink:href="https://github.com/conda-forge/scipoptsuite-feedstock" xlink:title="scipoptsuite">
<ellipse fill="#fde725" stroke="black" cx="853.6" cy="-206" rx="66.5" ry="18"/>
<text text-anchor="middle" x="853.6" y="-202.3" font-family="Times-Roman" font-size="14.00">scipoptsuite</text>
</a>
</g>
</g>
<!-- intel_repack&#45;&gt;scipoptsuite -->
<g id="edge22" class="edge">
<title>intel_repack&#45;&gt;scipoptsuite</title>
<path fill="none" stroke="black" d="M747.18,-403.93C753.51,-393.61 761.66,-380.13 768.6,-368 795.35,-321.26 824.14,-265.42 840.41,-233.3"/>
<polygon fill="black" stroke="black" points="843.66,-234.63 845.04,-224.13 837.41,-231.48 843.66,-234.63"/>
</g>
</g>
</svg>
