<?xml version="1.0" encoding="UTF-8" standalone="no"?>
<!DOCTYPE svg PUBLIC "-//W3C//DTD SVG 1.1//EN"
 "http://www.w3.org/Graphics/SVG/1.1/DTD/svg11.dtd">
<!-- Generated by graphviz version 2.47.3 (20210619.2315)
 -->
<!-- Pages: 1 -->
<svg width="943pt" height="332pt"
 viewBox="0.00 0.00 943.00 332.00" xmlns="http://www.w3.org/2000/svg" xmlns:xlink="http://www.w3.org/1999/xlink">
<g id="graph0" class="graph" transform="scale(1 1) rotate(0) translate(4 328)">
<polygon fill="white" stroke="transparent" points="-4,4 -4,-328 939,-328 939,4 -4,4"/>
<!-- openturns -->
<g id="node1" class="node">
<title>openturns</title>
<g id="a_node1"><a xlink:href="https://github.com/conda-forge/openturns-feedstock" xlink:title="openturns">
<ellipse fill="#fde725" stroke="black" cx="863.5" cy="-90" rx="58" ry="18"/>
<text text-anchor="middle" x="863.5" y="-86.3" font-family="Times,serif" font-size="14.00">openturns</text>
</a>
</g>
</g>
<!-- suitesparse -->
<g id="node2" class="node">
<title>suitesparse</title>
<g id="a_node2"><a xlink:href="https://github.com/conda-forge/suitesparse-feedstock/pull/76" xlink:title="suitesparse ✓">
<ellipse fill="#31688e" stroke="black" cx="863.5" cy="-234" rx="71.5" ry="18"/>
<text text-anchor="middle" x="863.5" y="-230.3" font-family="Times,serif" font-size="14.00" fill="white">suitesparse ✓</text>
</a>
</g>
</g>
<!-- ceres&#45;solver -->
<g id="node3" class="node">
<title>ceres&#45;solver</title>
<g id="a_node3"><a xlink:href="https://github.com/conda-forge/ceres-solver-feedstock" xlink:title="ceres solver">
<ellipse fill="#fde725" stroke="black" cx="863.5" cy="-162" rx="67" ry="18"/>
<text text-anchor="middle" x="863.5" y="-158.3" font-family="Times,serif" font-size="14.00">ceres solver</text>
</a>
</g>
</g>
<!-- suitesparse&#45;&gt;ceres&#45;solver -->
<g id="edge1" class="edge">
<title>suitesparse&#45;&gt;ceres&#45;solver</title>
<path fill="none" stroke="black" d="M863.5,-215.7C863.5,-207.98 863.5,-198.71 863.5,-190.11"/>
<polygon fill="black" stroke="black" points="867,-190.1 863.5,-180.1 860,-190.1 867,-190.1"/>
</g>
<!-- ceres&#45;solver&#45;&gt;openturns -->
<g id="edge2" class="edge">
<title>ceres&#45;solver&#45;&gt;openturns</title>
<path fill="none" stroke="black" d="M863.5,-143.7C863.5,-135.98 863.5,-126.71 863.5,-118.11"/>
<polygon fill="black" stroke="black" points="867,-118.1 863.5,-108.1 860,-118.1 867,-118.1"/>
</g>
<!-- vtk -->
<g id="node4" class="node">
<title>vtk</title>
<g id="a_node4"><a xlink:href="https://github.com/conda-forge/vtk-feedstock/pull/187" xlink:title="vtk ❎">
<ellipse fill="#31688e" stroke="black" cx="327.5" cy="-270" rx="39.79" ry="18"/>
<text text-anchor="middle" x="327.5" y="-266.3" font-family="Times,serif" font-size="14.00" fill="white">vtk ❎</text>
</a>
</g>
</g>
<!-- occt -->
<g id="node5" class="node">
<title>occt</title>
<g id="a_node5"><a xlink:href="https://github.com/conda-forge/occt-feedstock" xlink:title="occt">
<ellipse fill="#fde725" stroke="black" cx="188.5" cy="-198" rx="30" ry="18"/>
<text text-anchor="middle" x="188.5" y="-194.3" font-family="Times,serif" font-size="14.00">occt</text>
</a>
</g>
</g>
<!-- vtk&#45;&gt;occt -->
<g id="edge3" class="edge">
<title>vtk&#45;&gt;occt</title>
<path fill="none" stroke="black" d="M302.01,-256.16C278.93,-244.54 244.87,-227.39 220.08,-214.9"/>
<polygon fill="black" stroke="black" points="221.58,-211.74 211.07,-210.37 218.43,-217.99 221.58,-211.74"/>
</g>
<!-- smesh -->
<g id="node6" class="node">
<title>smesh</title>
<g id="a_node6"><a xlink:href="https://github.com/conda-forge/smesh-feedstock" xlink:title="smesh">
<ellipse fill="#fde725" stroke="black" cx="40.5" cy="-126" rx="40.5" ry="18"/>
<text text-anchor="middle" x="40.5" y="-122.3" font-family="Times,serif" font-size="14.00">smesh</text>
</a>
</g>
</g>
<!-- vtk&#45;&gt;smesh -->
<g id="edge4" class="edge">
<title>vtk&#45;&gt;smesh</title>
<path fill="none" stroke="black" d="M291.11,-262.56C253.95,-255 195.38,-240.3 149.5,-216 116.38,-198.46 83.81,-169.98 63.03,-149.98"/>
<polygon fill="black" stroke="black" points="65.26,-147.26 55.67,-142.76 60.36,-152.26 65.26,-147.26"/>
</g>
<!-- freecad -->
<g id="node7" class="node">
<title>freecad</title>
<g id="a_node7"><a xlink:href="https://github.com/conda-forge/freecad-feedstock" xlink:title="freecad">
<ellipse fill="#fde725" stroke="black" cx="109.5" cy="-54" rx="45.5" ry="18"/>
<text text-anchor="middle" x="109.5" y="-50.3" font-family="Times,serif" font-size="14.00">freecad</text>
</a>
</g>
</g>
<!-- vtk&#45;&gt;freecad -->
<g id="edge5" class="edge">
<title>vtk&#45;&gt;freecad</title>
<path fill="none" stroke="black" d="M331.08,-252.01C336.81,-219.71 344.07,-149.05 308.5,-108 289.46,-86.02 214.28,-70.58 161.98,-62.24"/>
<polygon fill="black" stroke="black" points="162.27,-58.74 151.85,-60.66 161.2,-65.66 162.27,-58.74"/>
</g>
<!-- topologytoolkit -->
<g id="node8" class="node">
<title>topologytoolkit</title>
<g id="a_node8"><a xlink:href="https://github.com/conda-forge/topologytoolkit-feedstock" xlink:title="topologytoolkit">
<ellipse fill="#fde725" stroke="black" cx="436.5" cy="-198" rx="80.69" ry="18"/>
<text text-anchor="middle" x="436.5" y="-194.3" font-family="Times,serif" font-size="14.00">topologytoolkit</text>
</a>
</g>
</g>
<!-- vtk&#45;&gt;topologytoolkit -->
<g id="edge6" class="edge">
<title>vtk&#45;&gt;topologytoolkit</title>
<path fill="none" stroke="black" d="M349.56,-254.83C364.71,-245.1 385.12,-232 402.35,-220.93"/>
<polygon fill="black" stroke="black" points="404.51,-223.7 411.03,-215.35 400.73,-217.81 404.51,-223.7"/>
</g>
<!-- python&#45;mint -->
<g id="node9" class="node">
<title>python&#45;mint</title>
<g id="a_node9"><a xlink:href="https://github.com/conda-forge/python-mint-feedstock" xlink:title="python mint">
<ellipse fill="#fde725" stroke="black" cx="545.5" cy="-126" rx="67.69" ry="18"/>
<text text-anchor="middle" x="545.5" y="-122.3" font-family="Times,serif" font-size="14.00">python mint</text>
</a>
</g>
</g>
<!-- vtk&#45;&gt;python&#45;mint -->
<g id="edge7" class="edge">
<title>vtk&#45;&gt;python&#45;mint</title>
<path fill="none" stroke="black" d="M365.12,-263.73C416.43,-255.77 504.51,-239.12 526.5,-216 542.03,-199.68 546.15,-173.92 546.76,-154.31"/>
<polygon fill="black" stroke="black" points="550.26,-154.16 546.78,-144.15 543.26,-154.14 550.26,-154.16"/>
</g>
<!-- occt&#45;&gt;smesh -->
<g id="edge8" class="edge">
<title>occt&#45;&gt;smesh</title>
<path fill="none" stroke="black" d="M165.7,-186.22C141.98,-175 104.5,-157.27 76.72,-144.13"/>
<polygon fill="black" stroke="black" points="77.88,-140.81 67.34,-139.69 74.88,-147.13 77.88,-140.81"/>
</g>
<!-- occt&#45;&gt;freecad -->
<g id="edge9" class="edge">
<title>occt&#45;&gt;freecad</title>
<path fill="none" stroke="black" d="M168.47,-184.36C155.1,-174.87 138.25,-160.68 128.5,-144 117.51,-125.18 112.84,-100.81 110.88,-82.32"/>
<polygon fill="black" stroke="black" points="114.36,-81.87 110.01,-72.21 107.38,-82.47 114.36,-81.87"/>
</g>
<!-- pythonocc&#45;core -->
<g id="node10" class="node">
<title>pythonocc&#45;core</title>
<g id="a_node10"><a xlink:href="https://github.com/conda-forge/pythonocc-core-feedstock" xlink:title="pythonocc core">
<ellipse fill="#fde725" stroke="black" cx="218.5" cy="-126" rx="81.49" ry="18"/>
<text text-anchor="middle" x="218.5" y="-122.3" font-family="Times,serif" font-size="14.00">pythonocc core</text>
</a>
</g>
</g>
<!-- occt&#45;&gt;pythonocc&#45;core -->
<g id="edge10" class="edge">
<title>occt&#45;&gt;pythonocc&#45;core</title>
<path fill="none" stroke="black" d="M195.61,-180.41C199.07,-172.34 203.32,-162.43 207.21,-153.35"/>
<polygon fill="black" stroke="black" points="210.51,-154.53 211.23,-143.96 204.08,-151.77 210.51,-154.53"/>
</g>
<!-- smesh&#45;&gt;freecad -->
<g id="edge11" class="edge">
<title>smesh&#45;&gt;freecad</title>
<path fill="none" stroke="black" d="M56.16,-109.12C65.03,-100.12 76.3,-88.68 86.19,-78.65"/>
<polygon fill="black" stroke="black" points="88.9,-80.89 93.43,-71.31 83.91,-75.97 88.9,-80.89"/>
</g>
<!-- gazebo -->
<g id="node11" class="node">
<title>gazebo</title>
<g id="a_node11"><a xlink:href="https://github.com/conda-forge/gazebo-feedstock/pull/82" xlink:title="gazebo ❎">
<ellipse fill="#31688e" stroke="black" cx="702.5" cy="-306" rx="58" ry="18"/>
<text text-anchor="middle" x="702.5" y="-302.3" font-family="Times,serif" font-size="14.00" fill="white">gazebo ❎</text>
</a>
</g>
</g>
<!-- dcgp&#45;python -->
<g id="node12" class="node">
<title>dcgp&#45;python</title>
<g id="a_node12"><a xlink:href="https://github.com/conda-forge/dcgp-python-feedstock" xlink:title="dcgp python">
<ellipse fill="#ff8c00" stroke="black" cx="702.5" cy="-234" rx="68.49" ry="18"/>
<text text-anchor="middle" x="702.5" y="-230.3" font-family="Times,serif" font-size="14.00">dcgp python</text>
</a>
</g>
</g>
<!-- gazebo&#45;&gt;dcgp&#45;python -->
<!-- foamalgo -->
<g id="node13" class="node">
<title>foamalgo</title>
<g id="a_node13"><a xlink:href="https://github.com/conda-forge/foamalgo-feedstock/pull/10" xlink:title="foamalgo ❎">
<ellipse fill="#31688e" stroke="black" cx="702.5" cy="-162" rx="67.69" ry="18"/>
<text text-anchor="middle" x="702.5" y="-158.3" font-family="Times,serif" font-size="14.00" fill="white">foamalgo ❎</text>
</a>
</g>
</g>
<!-- dcgp&#45;python&#45;&gt;foamalgo -->
<!-- tomviz -->
<g id="node14" class="node">
<title>tomviz</title>
<g id="a_node14"><a xlink:href="https://github.com/conda-forge/tomviz-feedstock/pull/8" xlink:title="tomviz ❎">
<ellipse fill="#31688e" stroke="black" cx="702.5" cy="-90" rx="56" ry="18"/>
<text text-anchor="middle" x="702.5" y="-86.3" font-family="Times,serif" font-size="14.00" fill="white">tomviz ❎</text>
</a>
</g>
</g>
<!-- foamalgo&#45;&gt;tomviz -->
<!-- scipoptsuite -->
<g id="node15" class="node">
<title>scipoptsuite</title>
<g id="a_node15"><a xlink:href="https://github.com/conda-forge/scipoptsuite-feedstock/pull/16" xlink:title="scipoptsuite ❎">
<ellipse fill="#31688e" stroke="black" cx="702.5" cy="-18" rx="81.49" ry="18"/>
<text text-anchor="middle" x="702.5" y="-14.3" font-family="Times,serif" font-size="14.00" fill="white">scipoptsuite ❎</text>
</a>
</g>
</g>
<!-- tomviz&#45;&gt;scipoptsuite -->
</g>
</svg>
