<?xml version="1.0" encoding="UTF-8" standalone="no"?>
<!DOCTYPE svg PUBLIC "-//W3C//DTD SVG 1.1//EN"
 "http://www.w3.org/Graphics/SVG/1.1/DTD/svg11.dtd">
<!-- Generated by graphviz version 2.47.3 (20210619.2315)
 -->
<!-- Pages: 1 -->
<svg width="676pt" height="232pt"
 viewBox="0.00 0.00 676.23 232.00" xmlns="http://www.w3.org/2000/svg" xmlns:xlink="http://www.w3.org/1999/xlink">
<g id="graph0" class="graph" transform="scale(1 1) rotate(0) translate(4 228)">
<polygon fill="white" stroke="transparent" points="-4,4 -4,-228 672.23,-228 672.23,4 -4,4"/>
<!-- ros&#45;pluginlib -->
<g id="node1" class="node">
<title>ros&#45;pluginlib</title>
<g id="a_node1"><a xlink:href="https://github.com/conda-forge/ros-pluginlib-feedstock" xlink:title="ros pluginlib">
<ellipse fill="#ff8c00" stroke="black" cx="453.99" cy="-134" rx="69.59" ry="18"/>
<text text-anchor="middle" x="453.99" y="-130.3" font-family="Times,serif" font-size="14.00">ros pluginlib</text>
</a>
</g>
</g>
<!-- libignition&#45;fuel&#45;tools -->
<g id="node2" class="node">
<title>libignition&#45;fuel&#45;tools</title>
<g id="a_node2"><a xlink:href="https://github.com/conda-forge/libignition-fuel-tools-feedstock" xlink:title="libignition fuel tools">
<ellipse fill="#35b779" stroke="black" cx="103.99" cy="-206" rx="103.98" ry="18"/>
<text text-anchor="middle" x="103.99" y="-202.3" font-family="Times,serif" font-size="14.00">libignition fuel tools</text>
</a>
</g>
</g>
<!-- libignition&#45;gazebo -->
<g id="node6" class="node">
<title>libignition&#45;gazebo</title>
<g id="a_node6"><a xlink:href="https://github.com/conda-forge/libignition-gazebo-feedstock" xlink:title="libignition gazebo">
<ellipse fill="#fde725" stroke="black" cx="178.99" cy="-134" rx="93.68" ry="18"/>
<text text-anchor="middle" x="178.99" y="-130.3" font-family="Times,serif" font-size="14.00">libignition gazebo</text>
</a>
</g>
</g>
<!-- libignition&#45;fuel&#45;tools&#45;&gt;libignition&#45;gazebo -->
<g id="edge1" class="edge">
<title>libignition&#45;fuel&#45;tools&#45;&gt;libignition&#45;gazebo</title>
<path fill="none" stroke="black" d="M122.15,-188.05C131.54,-179.28 143.17,-168.43 153.46,-158.83"/>
<polygon fill="black" stroke="black" points="156.08,-161.17 161,-151.79 151.3,-156.05 156.08,-161.17"/>
</g>
<!-- fast&#45;rtps -->
<g id="node3" class="node">
<title>fast&#45;rtps</title>
<g id="a_node3"><a xlink:href="https://github.com/conda-forge/fast-rtps-feedstock/pull/13" xlink:title="fast rtps ❎">
<ellipse fill="#31688e" stroke="black" cx="188.99" cy="-18" rx="64.19" ry="18"/>
<text text-anchor="middle" x="188.99" y="-14.3" font-family="Times,serif" font-size="14.00" fill="white">fast rtps ❎</text>
</a>
</g>
</g>
<!-- libmediainfo -->
<g id="node4" class="node">
<title>libmediainfo</title>
<g id="a_node4"><a xlink:href="https://github.com/conda-forge/libmediainfo-feedstock" xlink:title="libmediainfo">
<ellipse fill="#ff8c00" stroke="black" cx="599.99" cy="-134" rx="68.49" ry="18"/>
<text text-anchor="middle" x="599.99" y="-130.3" font-family="Times,serif" font-size="14.00">libmediainfo</text>
</a>
</g>
</g>
<!-- libignition&#45;gui -->
<g id="node5" class="node">
<title>libignition&#45;gui</title>
<g id="a_node5"><a xlink:href="https://github.com/conda-forge/libignition-gui-feedstock" xlink:title="libignition gui">
<ellipse fill="#35b779" stroke="black" cx="300.99" cy="-206" rx="75.29" ry="18"/>
<text text-anchor="middle" x="300.99" y="-202.3" font-family="Times,serif" font-size="14.00">libignition gui</text>
</a>
</g>
</g>
<!-- libignition&#45;gui&#45;&gt;libignition&#45;gazebo -->
<g id="edge2" class="edge">
<title>libignition&#45;gui&#45;&gt;libignition&#45;gazebo</title>
<path fill="none" stroke="black" d="M273.31,-189.12C256.39,-179.41 234.54,-166.87 216.13,-156.31"/>
<polygon fill="black" stroke="black" points="217.83,-153.25 207.41,-151.31 214.34,-159.32 217.83,-153.25"/>
</g>
<!-- libignition&#45;launch -->
<g id="node7" class="node">
<title>libignition&#45;launch</title>
<g id="a_node7"><a xlink:href="https://github.com/conda-forge/libignition-launch-feedstock" xlink:title="libignition launch">
<ellipse fill="#fde725" stroke="black" cx="239.99" cy="-62" rx="91.78" ry="18"/>
<text text-anchor="middle" x="239.99" y="-58.3" font-family="Times,serif" font-size="14.00">libignition launch</text>
</a>
</g>
</g>
<!-- libignition&#45;gui&#45;&gt;libignition&#45;launch -->
<g id="edge3" class="edge">
<title>libignition&#45;gui&#45;&gt;libignition&#45;launch</title>
<path fill="none" stroke="black" d="M299.67,-187.86C297.72,-169.37 293.03,-139.44 281.99,-116 277.21,-105.86 270.16,-95.91 263.19,-87.42"/>
<polygon fill="black" stroke="black" points="265.78,-85.07 256.61,-79.77 260.47,-89.63 265.78,-85.07"/>
</g>
<!-- libignition&#45;gazebo&#45;&gt;libignition&#45;launch -->
<g id="edge4" class="edge">
<title>libignition&#45;gazebo&#45;&gt;libignition&#45;launch</title>
<path fill="none" stroke="black" d="M193.76,-116.05C201.25,-107.46 210.49,-96.86 218.73,-87.4"/>
<polygon fill="black" stroke="black" points="221.43,-89.63 225.36,-79.79 216.15,-85.03 221.43,-89.63"/>
</g>
</g>
</svg>
