<?xml version="1.0" encoding="UTF-8" standalone="no"?>
<!DOCTYPE svg PUBLIC "-//W3C//DTD SVG 1.1//EN"
 "http://www.w3.org/Graphics/SVG/1.1/DTD/svg11.dtd">
<!-- Generated by graphviz version 5.0.1 (20220821.0811)
 -->
<!-- Pages: 1 -->
<svg width="1015pt" height="548pt"
 viewBox="0.00 0.00 1015.00 548.00" xmlns="http://www.w3.org/2000/svg" xmlns:xlink="http://www.w3.org/1999/xlink">
<g id="graph0" class="graph" transform="scale(1 1) rotate(0) translate(4 544)">
<polygon fill="white" stroke="none" points="-4,4 -4,-544 1011,-544 1011,4 -4,4"/>
<!-- pinocchio -->
<g id="node1" class="node">
<title>pinocchio</title>
<g id="a_node1"><a xlink:href="https://github.com/conda-forge/pinocchio-feedstock/pull/75" xlink:title="pinocchio ❎">
<ellipse fill="#31688e" stroke="black" cx="276" cy="-522" rx="69" ry="18"/>
<text text-anchor="middle" x="276" y="-518.3" font-family="Times,serif" font-size="14.00" fill="white">pinocchio ❎</text>
</a>
</g>
</g>
<!-- hpp&#45;pinocchio -->
<g id="node2" class="node">
<title>hpp&#45;pinocchio</title>
<g id="a_node2"><a xlink:href="https://github.com/conda-forge/hpp-pinocchio-feedstock" xlink:title="hpp pinocchio">
<ellipse fill="#fde725" stroke="black" cx="276" cy="-450" rx="75.5" ry="18"/>
<text text-anchor="middle" x="276" y="-446.3" font-family="Times,serif" font-size="14.00">hpp pinocchio</text>
</a>
</g>
</g>
<!-- pinocchio&#45;&gt;hpp&#45;pinocchio -->
<g id="edge1" class="edge">
<title>pinocchio&#45;&gt;hpp&#45;pinocchio</title>
<path fill="none" stroke="black" d="M276,-503.7C276,-495.98 276,-486.71 276,-478.11"/>
<polygon fill="black" stroke="black" points="279.5,-478.1 276,-468.1 272.5,-478.1 279.5,-478.1"/>
</g>
<!-- hpp&#45;manipulation&#45;corba -->
<g id="node3" class="node">
<title>hpp&#45;manipulation&#45;corba</title>
<g id="a_node3"><a xlink:href="https://github.com/conda-forge/hpp-manipulation-corba-feedstock" xlink:title="hpp manipulation corba">
<ellipse fill="#fde725" stroke="black" cx="121" cy="-90" rx="121" ry="18"/>
<text text-anchor="middle" x="121" y="-86.3" font-family="Times,serif" font-size="14.00">hpp manipulation corba</text>
</a>
</g>
</g>
<!-- pinocchio&#45;&gt;hpp&#45;manipulation&#45;corba -->
<g id="edge2" class="edge">
<title>pinocchio&#45;&gt;hpp&#45;manipulation&#45;corba</title>
<path fill="none" stroke="black" d="M223.87,-510.14C161.1,-493.65 64,-455.75 64,-379 64,-379 64,-379 64,-233 64,-189.8 87,-144.19 103.78,-116.66"/>
<polygon fill="black" stroke="black" points="106.83,-118.37 109.19,-108.04 100.91,-114.65 106.83,-118.37"/>
</g>
<!-- tsid -->
<g id="node4" class="node">
<title>tsid</title>
<g id="a_node4"><a xlink:href="https://github.com/conda-forge/tsid-feedstock" xlink:title="tsid">
<ellipse fill="#fde725" stroke="black" cx="398" cy="-450" rx="28.7" ry="18"/>
<text text-anchor="middle" x="398" y="-446.3" font-family="Times,serif" font-size="14.00">tsid</text>
</a>
</g>
</g>
<!-- pinocchio&#45;&gt;tsid -->
<g id="edge3" class="edge">
<title>pinocchio&#45;&gt;tsid</title>
<path fill="none" stroke="black" d="M303.38,-505.29C322.79,-494.16 348.8,-479.23 368.64,-467.85"/>
<polygon fill="black" stroke="black" points="370.61,-470.75 377.55,-462.74 367.13,-464.68 370.61,-470.75"/>
</g>
<!-- hpp&#45;pinocchio&#45;&gt;hpp&#45;manipulation&#45;corba -->
<g id="edge4" class="edge">
<title>hpp&#45;pinocchio&#45;&gt;hpp&#45;manipulation&#45;corba</title>
<path fill="none" stroke="black" d="M232.99,-435.17C181.46,-415.59 102,-374.45 102,-307 102,-307 102,-307 102,-233 102,-192.86 109.55,-146.9 115.13,-118.4"/>
<polygon fill="black" stroke="black" points="118.61,-118.88 117.16,-108.39 111.74,-117.5 118.61,-118.88"/>
</g>
<!-- hpp&#45;gepetto&#45;viewer -->
<g id="node5" class="node">
<title>hpp&#45;gepetto&#45;viewer</title>
<g id="a_node5"><a xlink:href="https://github.com/conda-forge/hpp-gepetto-viewer-feedstock" xlink:title="hpp gepetto viewer">
<ellipse fill="#fde725" stroke="black" cx="540" cy="-18" rx="100.98" ry="18"/>
<text text-anchor="middle" x="540" y="-14.3" font-family="Times,serif" font-size="14.00">hpp gepetto viewer</text>
</a>
</g>
</g>
<!-- hpp&#45;pinocchio&#45;&gt;hpp&#45;gepetto&#45;viewer -->
<g id="edge5" class="edge">
<title>hpp&#45;pinocchio&#45;&gt;hpp&#45;gepetto&#45;viewer</title>
<path fill="none" stroke="black" d="M330.45,-437.44C391.99,-424.18 485.65,-403.32 501,-396 559.34,-368.18 616,-371.63 616,-307 616,-307 616,-307 616,-161 616,-115.39 585.14,-70.25 562.75,-43.5"/>
<polygon fill="black" stroke="black" points="565.3,-41.09 556.12,-35.81 560,-45.67 565.3,-41.09"/>
</g>
<!-- hpp&#45;core -->
<g id="node6" class="node">
<title>hpp&#45;core</title>
<g id="a_node6"><a xlink:href="https://github.com/conda-forge/hpp-core-feedstock" xlink:title="hpp core">
<ellipse fill="#fde725" stroke="black" cx="498" cy="-306" rx="51.5" ry="18"/>
<text text-anchor="middle" x="498" y="-302.3" font-family="Times,serif" font-size="14.00">hpp core</text>
</a>
</g>
</g>
<!-- hpp&#45;pinocchio&#45;&gt;hpp&#45;core -->
<g id="edge6" class="edge">
<title>hpp&#45;pinocchio&#45;&gt;hpp&#45;core</title>
<path fill="none" stroke="black" d="M331.29,-437.68C387.78,-425.62 468.65,-406.83 479,-396 494.57,-379.71 498.69,-353.96 499.28,-334.33"/>
<polygon fill="black" stroke="black" points="502.78,-334.17 499.3,-324.16 495.78,-334.16 502.78,-334.17"/>
</g>
<!-- hpp&#45;manipulation&#45;urdf -->
<g id="node7" class="node">
<title>hpp&#45;manipulation&#45;urdf</title>
<g id="a_node7"><a xlink:href="https://github.com/conda-forge/hpp-manipulation-urdf-feedstock" xlink:title="hpp manipulation urdf">
<ellipse fill="#fde725" stroke="black" cx="359" cy="-162" rx="114.5" ry="18"/>
<text text-anchor="middle" x="359" y="-158.3" font-family="Times,serif" font-size="14.00">hpp manipulation urdf</text>
</a>
</g>
</g>
<!-- hpp&#45;pinocchio&#45;&gt;hpp&#45;manipulation&#45;urdf -->
<g id="edge7" class="edge">
<title>hpp&#45;pinocchio&#45;&gt;hpp&#45;manipulation&#45;urdf</title>
<path fill="none" stroke="black" d="M260.57,-432.21C225.18,-391.6 144.97,-286.25 196,-216 210.53,-196 232.78,-183.4 256.23,-175.51"/>
<polygon fill="black" stroke="black" points="257.44,-178.79 265.97,-172.5 255.38,-172.1 257.44,-178.79"/>
</g>
<!-- hpp&#45;manipulation -->
<g id="node8" class="node">
<title>hpp&#45;manipulation</title>
<g id="a_node8"><a xlink:href="https://github.com/conda-forge/hpp-manipulation-feedstock" xlink:title="hpp manipulation">
<ellipse fill="#fde725" stroke="black" cx="298" cy="-234" rx="92.5" ry="18"/>
<text text-anchor="middle" x="298" y="-230.3" font-family="Times,serif" font-size="14.00">hpp manipulation</text>
</a>
</g>
</g>
<!-- hpp&#45;pinocchio&#45;&gt;hpp&#45;manipulation -->
<g id="edge8" class="edge">
<title>hpp&#45;pinocchio&#45;&gt;hpp&#45;manipulation</title>
<path fill="none" stroke="black" d="M277.76,-431.85C281.57,-394.83 290.58,-307.18 295.18,-262.39"/>
<polygon fill="black" stroke="black" points="298.69,-262.54 296.23,-252.23 291.72,-261.82 298.69,-262.54"/>
</g>
<!-- hpp&#45;constraints -->
<g id="node9" class="node">
<title>hpp&#45;constraints</title>
<g id="a_node9"><a xlink:href="https://github.com/conda-forge/hpp-constraints-feedstock" xlink:title="hpp constraints">
<ellipse fill="#fde725" stroke="black" cx="387" cy="-378" rx="83.39" ry="18"/>
<text text-anchor="middle" x="387" y="-374.3" font-family="Times,serif" font-size="14.00">hpp constraints</text>
</a>
</g>
</g>
<!-- hpp&#45;pinocchio&#45;&gt;hpp&#45;constraints -->
<g id="edge9" class="edge">
<title>hpp&#45;pinocchio&#45;&gt;hpp&#45;constraints</title>
<path fill="none" stroke="black" d="M301.47,-432.94C316.59,-423.4 335.97,-411.18 352.45,-400.79"/>
<polygon fill="black" stroke="black" points="354.68,-403.52 361.27,-395.23 350.94,-397.6 354.68,-403.52"/>
</g>
<!-- hpp&#45;manipulation&#45;corba&#45;&gt;hpp&#45;gepetto&#45;viewer -->
<g id="edge10" class="edge">
<title>hpp&#45;manipulation&#45;corba&#45;&gt;hpp&#45;gepetto&#45;viewer</title>
<path fill="none" stroke="black" d="M198.34,-76.08C272.45,-63.7 383.86,-45.09 459.13,-32.51"/>
<polygon fill="black" stroke="black" points="459.76,-35.95 469.05,-30.85 458.61,-29.05 459.76,-35.95"/>
</g>
<!-- hpp&#45;core&#45;&gt;hpp&#45;manipulation&#45;corba -->
<g id="edge13" class="edge">
<title>hpp&#45;core&#45;&gt;hpp&#45;manipulation&#45;corba</title>
<path fill="none" stroke="black" d="M502.44,-287.94C509.83,-255.22 520.39,-183.4 483,-144 451.55,-110.86 341.14,-98.23 250.43,-93.52"/>
<polygon fill="black" stroke="black" points="250.48,-90.02 240.32,-93.02 250.14,-97.01 250.48,-90.02"/>
</g>
<!-- hpp&#45;core&#45;&gt;hpp&#45;gepetto&#45;viewer -->
<g id="edge14" class="edge">
<title>hpp&#45;core&#45;&gt;hpp&#45;gepetto&#45;viewer</title>
<path fill="none" stroke="black" d="M508.02,-287.95C513.44,-277.85 519.69,-264.6 523,-252 542.04,-179.49 542.45,-90.22 541.2,-46.2"/>
<polygon fill="black" stroke="black" points="544.7,-45.89 540.86,-36.01 537.7,-46.13 544.7,-45.89"/>
</g>
<!-- hpp&#45;core&#45;&gt;hpp&#45;manipulation&#45;urdf -->
<g id="edge15" class="edge">
<title>hpp&#45;core&#45;&gt;hpp&#45;manipulation&#45;urdf</title>
<path fill="none" stroke="black" d="M487.68,-288.06C475.71,-269.22 454.69,-238.47 432,-216 420.7,-204.81 406.87,-194.16 394.31,-185.38"/>
<polygon fill="black" stroke="black" points="396.09,-182.35 385.85,-179.61 392.14,-188.14 396.09,-182.35"/>
</g>
<!-- hpp&#45;core&#45;&gt;hpp&#45;manipulation -->
<g id="edge16" class="edge">
<title>hpp&#45;core&#45;&gt;hpp&#45;manipulation</title>
<path fill="none" stroke="black" d="M462.7,-292.65C431.65,-281.78 385.99,-265.8 350.62,-253.42"/>
<polygon fill="black" stroke="black" points="351.54,-250.03 340.94,-250.03 349.22,-256.64 351.54,-250.03"/>
</g>
<!-- hpp&#45;manipulation&#45;urdf&#45;&gt;hpp&#45;manipulation&#45;corba -->
<g id="edge17" class="edge">
<title>hpp&#45;manipulation&#45;urdf&#45;&gt;hpp&#45;manipulation&#45;corba</title>
<path fill="none" stroke="black" d="M307.65,-145.9C270.99,-135.12 221.51,-120.56 182.7,-109.15"/>
<polygon fill="black" stroke="black" points="183.66,-105.78 173.08,-106.32 181.69,-112.5 183.66,-105.78"/>
</g>
<!-- hpp&#45;manipulation&#45;urdf&#45;&gt;hpp&#45;gepetto&#45;viewer -->
<g id="edge18" class="edge">
<title>hpp&#45;manipulation&#45;urdf&#45;&gt;hpp&#45;gepetto&#45;viewer</title>
<path fill="none" stroke="black" d="M380.47,-144.15C412.81,-118.78 474.09,-70.71 510.57,-42.09"/>
<polygon fill="black" stroke="black" points="513.13,-44.53 518.83,-35.61 508.81,-39.02 513.13,-44.53"/>
</g>
<!-- hpp&#45;manipulation&#45;&gt;hpp&#45;manipulation&#45;corba -->
<g id="edge19" class="edge">
<title>hpp&#45;manipulation&#45;&gt;hpp&#45;manipulation&#45;corba</title>
<path fill="none" stroke="black" d="M262.98,-217.15C244,-207.73 220.68,-194.75 202,-180 178.15,-161.16 155.25,-135 139.92,-115.91"/>
<polygon fill="black" stroke="black" points="142.58,-113.63 133.63,-107.95 137.08,-117.97 142.58,-113.63"/>
</g>
<!-- hpp&#45;manipulation&#45;&gt;hpp&#45;gepetto&#45;viewer -->
<g id="edge20" class="edge">
<title>hpp&#45;manipulation&#45;&gt;hpp&#45;gepetto&#45;viewer</title>
<path fill="none" stroke="black" d="M269.02,-216.73C256.06,-207.75 242.12,-195.29 235,-180 228.25,-165.49 226.09,-157.29 235,-144 281.74,-74.33 374.97,-43.46 446.12,-29.8"/>
<polygon fill="black" stroke="black" points="446.8,-33.24 456,-27.99 445.54,-26.35 446.8,-33.24"/>
</g>
<!-- hpp&#45;manipulation&#45;&gt;hpp&#45;manipulation&#45;urdf -->
<g id="edge21" class="edge">
<title>hpp&#45;manipulation&#45;&gt;hpp&#45;manipulation&#45;urdf</title>
<path fill="none" stroke="black" d="M312.77,-216.05C320.15,-207.58 329.23,-197.17 337.38,-187.82"/>
<polygon fill="black" stroke="black" points="340.01,-190.11 343.95,-180.28 334.74,-185.51 340.01,-190.11"/>
</g>
<!-- hpp&#45;constraints&#45;&gt;hpp&#45;manipulation&#45;corba -->
<g id="edge22" class="edge">
<title>hpp&#45;constraints&#45;&gt;hpp&#45;manipulation&#45;corba</title>
<path fill="none" stroke="black" d="M352.16,-361.54C310.36,-341.49 240.36,-302.97 196,-252 160.96,-211.74 139.01,-152.32 128.48,-118.05"/>
<polygon fill="black" stroke="black" points="131.78,-116.86 125.57,-108.28 125.07,-118.86 131.78,-116.86"/>
</g>
<!-- hpp&#45;constraints&#45;&gt;hpp&#45;gepetto&#45;viewer -->
<g id="edge23" class="edge">
<title>hpp&#45;constraints&#45;&gt;hpp&#45;gepetto&#45;viewer</title>
<path fill="none" stroke="black" d="M463.54,-370.69C497.24,-364.01 534.64,-350.62 559,-324 586.31,-294.16 578,-275.45 578,-235 578,-235 578,-235 578,-161 578,-119.63 562.77,-73.72 551.59,-45.61"/>
<polygon fill="black" stroke="black" points="554.72,-44.02 547.69,-36.09 548.24,-46.67 554.72,-44.02"/>
</g>
<!-- hpp&#45;constraints&#45;&gt;hpp&#45;core -->
<g id="edge24" class="edge">
<title>hpp&#45;constraints&#45;&gt;hpp&#45;core</title>
<path fill="none" stroke="black" d="M412.74,-360.76C428.31,-350.95 448.3,-338.34 465.02,-327.8"/>
<polygon fill="black" stroke="black" points="467.32,-330.48 473.91,-322.19 463.59,-324.56 467.32,-330.48"/>
</g>
<!-- hpp&#45;constraints&#45;&gt;hpp&#45;manipulation&#45;urdf -->
<g id="edge25" class="edge">
<title>hpp&#45;constraints&#45;&gt;hpp&#45;manipulation&#45;urdf</title>
<path fill="none" stroke="black" d="M392.49,-360.01C401.27,-330.05 415.83,-266.23 399,-216 395.59,-205.83 389.38,-196.06 382.86,-187.73"/>
<polygon fill="black" stroke="black" points="385.42,-185.35 376.32,-179.93 380.06,-189.84 385.42,-185.35"/>
</g>
<!-- hpp&#45;constraints&#45;&gt;hpp&#45;manipulation -->
<g id="edge26" class="edge">
<title>hpp&#45;constraints&#45;&gt;hpp&#45;manipulation</title>
<path fill="none" stroke="black" d="M376.26,-359.87C360.83,-335.24 332.24,-289.64 314.22,-260.88"/>
<polygon fill="black" stroke="black" points="317.05,-258.8 308.77,-252.19 311.12,-262.52 317.05,-258.8"/>
</g>
<!-- gazebo -->
<g id="node10" class="node">
<title>gazebo</title>
<g id="a_node10"><a xlink:href="https://github.com/conda-forge/gazebo-feedstock" xlink:title="gazebo">
<ellipse fill="#fde725" stroke="black" cx="953" cy="-234" rx="43.59" ry="18"/>
<text text-anchor="middle" x="953" y="-230.3" font-family="Times,serif" font-size="14.00">gazebo</text>
</a>
</g>
</g>
<!-- dartsim -->
<g id="node11" class="node">
<title>dartsim</title>
<g id="a_node11"><a xlink:href="https://github.com/conda-forge/dartsim-feedstock/pull/32" xlink:title="dartsim ✓">
<ellipse fill="#31688e" stroke="black" cx="953" cy="-306" rx="54" ry="18"/>
<text text-anchor="middle" x="953" y="-302.3" font-family="Times,serif" font-size="14.00" fill="white">dartsim ✓</text>
</a>
</g>
</g>
<!-- dartsim&#45;&gt;gazebo -->
<g id="edge11" class="edge">
<title>dartsim&#45;&gt;gazebo</title>
<path fill="none" stroke="black" d="M953,-287.7C953,-279.98 953,-270.71 953,-262.11"/>
<polygon fill="black" stroke="black" points="956.5,-262.1 953,-252.1 949.5,-262.1 956.5,-262.1"/>
</g>
<!-- gepetto&#45;viewer&#45;corba -->
<g id="node12" class="node">
<title>gepetto&#45;viewer&#45;corba</title>
<g id="a_node12"><a xlink:href="https://github.com/conda-forge/gepetto-viewer-corba-feedstock/pull/11" xlink:title="gepetto viewer corba ❎">
<ellipse fill="#31688e" stroke="black" cx="768" cy="-90" rx="123.5" ry="18"/>
<text text-anchor="middle" x="768" y="-86.3" font-family="Times,serif" font-size="14.00" fill="white">gepetto viewer corba ❎</text>
</a>
</g>
</g>
<!-- gepetto&#45;viewer&#45;corba&#45;&gt;hpp&#45;gepetto&#45;viewer -->
<g id="edge12" class="edge">
<title>gepetto&#45;viewer&#45;corba&#45;&gt;hpp&#45;gepetto&#45;viewer</title>
<path fill="none" stroke="black" d="M717.68,-73.55C682.29,-62.69 634.84,-48.12 597.88,-36.77"/>
<polygon fill="black" stroke="black" points="598.82,-33.4 588.24,-33.81 596.77,-40.09 598.82,-33.4"/>
</g>
</g>
</svg>
