<?xml version="1.0" encoding="UTF-8" standalone="no"?>
<!DOCTYPE svg PUBLIC "-//W3C//DTD SVG 1.1//EN"
 "http://www.w3.org/Graphics/SVG/1.1/DTD/svg11.dtd">
<!-- Generated by graphviz version 2.47.2 (20210527.1257)
 -->
<!-- Pages: 1 -->
<svg width="1374pt" height="188pt"
 viewBox="0.00 0.00 1373.64 188.00" xmlns="http://www.w3.org/2000/svg" xmlns:xlink="http://www.w3.org/1999/xlink">
<g id="graph0" class="graph" transform="scale(1 1) rotate(0) translate(4 184)">
<polygon fill="white" stroke="transparent" points="-4,4 -4,-184 1369.64,-184 1369.64,4 -4,4"/>
<!-- torchvision -->
<g id="node1" class="node">
<title>torchvision</title>
<g id="a_node1"><a xlink:href="https://github.com/conda-forge/torchvision-feedstock" xlink:title="torchvision">
<ellipse fill="#fde725" stroke="black" cx="59.79" cy="-90" rx="59.59" ry="18"/>
<text text-anchor="middle" x="59.79" y="-86.3" font-family="Times-Roman" font-size="14.00">torchvision</text>
</a>
</g>
</g>
<!-- pytorch&#45;cpu -->
<g id="node2" class="node">
<title>pytorch&#45;cpu</title>
<g id="a_node2"><a xlink:href="https://github.com/conda-forge/pytorch-cpu-feedstock/pull/27" xlink:title="pytorch cpu ❎">
<ellipse fill="#31688e" stroke="black" cx="625.79" cy="-162" rx="78.79" ry="18"/>
<text text-anchor="middle" x="625.79" y="-158.3" font-family="Times-Roman" font-size="14.00" fill="white">pytorch cpu ❎</text>
</a>
</g>
</g>
<!-- pytorch&#45;cpu&#45;&gt;torchvision -->
<g id="edge7" class="edge">
<title>pytorch&#45;cpu&#45;&gt;torchvision</title>
<path fill="none" stroke="black" d="M551.26,-156.21C453.66,-149.22 277.5,-134.12 128.79,-108 123.69,-107.1 118.39,-106.04 113.12,-104.89"/>
<polygon fill="black" stroke="black" points="113.56,-101.41 103.04,-102.6 112.01,-108.23 113.56,-101.41"/>
</g>
<!-- pytorch_cluster -->
<g id="node3" class="node">
<title>pytorch_cluster</title>
<g id="a_node3"><a xlink:href="https://github.com/conda-forge/pytorch_cluster-feedstock/pull/13" xlink:title="pytorch_cluster ❎">
<ellipse fill="#31688e" stroke="black" cx="231.79" cy="-90" rx="94.48" ry="18"/>
<text text-anchor="middle" x="231.79" y="-86.3" font-family="Times-Roman" font-size="14.00" fill="white">pytorch_cluster ❎</text>
</a>
</g>
</g>
<!-- pytorch&#45;cpu&#45;&gt;pytorch_cluster -->
<g id="edge2" class="edge">
<title>pytorch&#45;cpu&#45;&gt;pytorch_cluster</title>
<path fill="none" stroke="black" d="M565.53,-150.29C496.52,-138.03 383.34,-117.92 308.2,-104.57"/>
<polygon fill="black" stroke="black" points="308.77,-101.12 298.32,-102.82 307.55,-108.01 308.77,-101.12"/>
</g>
<!-- pytorch_scatter -->
<g id="node4" class="node">
<title>pytorch_scatter</title>
<g id="a_node4"><a xlink:href="https://github.com/conda-forge/pytorch_scatter-feedstock" xlink:title="pytorch_scatter">
<ellipse fill="#fde725" stroke="black" cx="424.79" cy="-90" rx="80.69" ry="18"/>
<text text-anchor="middle" x="424.79" y="-86.3" font-family="Times-Roman" font-size="14.00">pytorch_scatter</text>
</a>
</g>
</g>
<!-- pytorch&#45;cpu&#45;&gt;pytorch_scatter -->
<g id="edge3" class="edge">
<title>pytorch&#45;cpu&#45;&gt;pytorch_scatter</title>
<path fill="none" stroke="black" d="M584.15,-146.5C552.75,-135.56 509.52,-120.51 476.01,-108.84"/>
<polygon fill="black" stroke="black" points="476.98,-105.47 466.39,-105.49 474.68,-112.08 476.98,-105.47"/>
</g>
<!-- pytorch_spline_conv -->
<g id="node5" class="node">
<title>pytorch_spline_conv</title>
<g id="a_node5"><a xlink:href="https://github.com/conda-forge/pytorch_spline_conv-feedstock" xlink:title="pytorch_spline_conv">
<ellipse fill="#fde725" stroke="black" cx="625.79" cy="-90" rx="102.08" ry="18"/>
<text text-anchor="middle" x="625.79" y="-86.3" font-family="Times-Roman" font-size="14.00">pytorch_spline_conv</text>
</a>
</g>
</g>
<!-- pytorch&#45;cpu&#45;&gt;pytorch_spline_conv -->
<g id="edge5" class="edge">
<title>pytorch&#45;cpu&#45;&gt;pytorch_spline_conv</title>
<path fill="none" stroke="black" d="M625.79,-143.7C625.79,-135.98 625.79,-126.71 625.79,-118.11"/>
<polygon fill="black" stroke="black" points="629.29,-118.1 625.79,-108.1 622.29,-118.1 629.29,-118.1"/>
</g>
<!-- pytorch_sparse -->
<g id="node6" class="node">
<title>pytorch_sparse</title>
<g id="a_node6"><a xlink:href="https://github.com/conda-forge/pytorch_sparse-feedstock" xlink:title="pytorch_sparse">
<ellipse fill="#fde725" stroke="black" cx="589.79" cy="-18" rx="79.09" ry="18"/>
<text text-anchor="middle" x="589.79" y="-14.3" font-family="Times-Roman" font-size="14.00">pytorch_sparse</text>
</a>
</g>
</g>
<!-- pytorch&#45;cpu&#45;&gt;pytorch_sparse -->
<g id="edge4" class="edge">
<title>pytorch&#45;cpu&#45;&gt;pytorch_sparse</title>
<path fill="none" stroke="black" d="M679.54,-148.76C701.2,-140.9 724.04,-128.23 736.79,-108 745.33,-94.47 745.99,-85.09 736.79,-72 721.17,-49.76 695.26,-36.81 669.5,-29.28"/>
<polygon fill="black" stroke="black" points="670.22,-25.85 659.66,-26.66 668.42,-32.62 670.22,-25.85"/>
</g>
<!-- openmm&#45;torch -->
<g id="node7" class="node">
<title>openmm&#45;torch</title>
<g id="a_node7"><a xlink:href="https://github.com/conda-forge/openmm-torch-feedstock" xlink:title="openmm torch">
<ellipse fill="#fde725" stroke="black" cx="860.79" cy="-90" rx="76.89" ry="18"/>
<text text-anchor="middle" x="860.79" y="-86.3" font-family="Times-Roman" font-size="14.00">openmm torch</text>
</a>
</g>
</g>
<!-- pytorch&#45;cpu&#45;&gt;openmm&#45;torch -->
<g id="edge1" class="edge">
<title>pytorch&#45;cpu&#45;&gt;openmm&#45;torch</title>
<path fill="none" stroke="black" d="M671.66,-147.34C709.92,-135.94 764.55,-119.67 805.27,-107.54"/>
<polygon fill="black" stroke="black" points="806.46,-110.84 815.04,-104.63 804.46,-104.13 806.46,-110.84"/>
</g>
<!-- torchsparse -->
<g id="node9" class="node">
<title>torchsparse</title>
<g id="a_node9"><a xlink:href="https://github.com/conda-forge/torchsparse-feedstock" xlink:title="torchsparse">
<ellipse fill="#fde725" stroke="black" cx="1018.79" cy="-90" rx="63.89" ry="18"/>
<text text-anchor="middle" x="1018.79" y="-86.3" font-family="Times-Roman" font-size="14.00">torchsparse</text>
</a>
</g>
</g>
<!-- pytorch&#45;cpu&#45;&gt;torchsparse -->
<g id="edge6" class="edge">
<title>pytorch&#45;cpu&#45;&gt;torchsparse</title>
<path fill="none" stroke="black" d="M690.28,-151.68C755.27,-141.97 858.32,-125.73 946.79,-108 951.86,-106.99 957.11,-105.87 962.36,-104.71"/>
<polygon fill="black" stroke="black" points="963.43,-108.06 972.42,-102.44 961.89,-101.23 963.43,-108.06"/>
</g>
<!-- pytorch_scatter&#45;&gt;pytorch_sparse -->
<g id="edge8" class="edge">
<title>pytorch_scatter&#45;&gt;pytorch_sparse</title>
<path fill="none" stroke="black" d="M460.6,-73.81C485.25,-63.35 518.19,-49.38 544.64,-38.16"/>
<polygon fill="black" stroke="black" points="546.22,-41.29 554.06,-34.16 543.49,-34.84 546.22,-41.29"/>
</g>
<!-- pycuda -->
<g id="node8" class="node">
<title>pycuda</title>
<g id="a_node8"><a xlink:href="https://github.com/conda-forge/pycuda-feedstock/pull/4" xlink:title="pycuda ❎">
<ellipse fill="#31688e" stroke="black" cx="1307.79" cy="-90" rx="57.69" ry="18"/>
<text text-anchor="middle" x="1307.79" y="-86.3" font-family="Times-Roman" font-size="14.00" fill="white">pycuda ❎</text>
</a>
</g>
</g>
<!-- cudasirecon -->
<g id="node10" class="node">
<title>cudasirecon</title>
<g id="a_node10"><a xlink:href="https://github.com/conda-forge/cudasirecon-feedstock/pull/7" xlink:title="cudasirecon ✓">
<ellipse fill="#31688e" stroke="black" cx="1165.79" cy="-90" rx="75.29" ry="18"/>
<text text-anchor="middle" x="1165.79" y="-86.3" font-family="Times-Roman" font-size="14.00" fill="white">cudasirecon ✓</text>
</a>
</g>
</g>
</g>
</svg>
