<?xml version="1.0" encoding="UTF-8" standalone="no"?>
<!DOCTYPE svg PUBLIC "-//W3C//DTD SVG 1.1//EN"
 "http://www.w3.org/Graphics/SVG/1.1/DTD/svg11.dtd">
<!-- Generated by graphviz version 2.49.3 (20211104.1129)
 -->
<!-- Pages: 1 -->
<svg width="1043pt" height="404pt"
 viewBox="0.00 0.00 1042.75 404.00" xmlns="http://www.w3.org/2000/svg" xmlns:xlink="http://www.w3.org/1999/xlink">
<g id="graph0" class="graph" transform="scale(1 1) rotate(0) translate(4 400)">
<polygon fill="white" stroke="transparent" points="-4,4 -4,-400 1038.75,-400 1038.75,4 -4,4"/>
<!-- torchvision -->
<g id="node1" class="node">
<title>torchvision</title>
<g id="a_node1"><a xlink:href="https://github.com/conda-forge/torchvision-feedstock" xlink:title="torchvision">
<ellipse fill="#fde725" stroke="black" cx="120.25" cy="-306" rx="62.5" ry="18"/>
<text text-anchor="middle" x="120.25" y="-302.3" font-family="Times,serif" font-size="14.00">torchvision</text>
</a>
</g>
</g>
<!-- fcos -->
<g id="node2" class="node">
<title>fcos</title>
<g id="a_node2"><a xlink:href="https://github.com/conda-forge/fcos-feedstock" xlink:title="fcos">
<ellipse fill="#fde725" stroke="black" cx="29.25" cy="-234" rx="29.5" ry="18"/>
<text text-anchor="middle" x="29.25" y="-230.3" font-family="Times,serif" font-size="14.00">fcos</text>
</a>
</g>
</g>
<!-- torchvision&#45;&gt;fcos -->
<g id="edge1" class="edge">
<title>torchvision&#45;&gt;fcos</title>
<path fill="none" stroke="black" d="M99.14,-288.76C86.01,-278.66 69.03,-265.6 55.1,-254.88"/>
<polygon fill="black" stroke="black" points="56.93,-251.88 46.87,-248.56 52.67,-257.43 56.93,-251.88"/>
</g>
<!-- tensorflow -->
<g id="node3" class="node">
<title>tensorflow</title>
<g id="a_node3"><a xlink:href="https://github.com/conda-forge/tensorflow-feedstock/pull/166" xlink:title="tensorflow ❎">
<ellipse fill="#31688e" stroke="black" cx="961.25" cy="-270" rx="73.5" ry="18"/>
<text text-anchor="middle" x="961.25" y="-266.3" font-family="Times,serif" font-size="14.00" fill="white">tensorflow ❎</text>
</a>
</g>
</g>
<!-- pycuda -->
<g id="node4" class="node">
<title>pycuda</title>
<g id="a_node4"><a xlink:href="https://github.com/conda-forge/pycuda-feedstock/pull/4" xlink:title="pycuda ❎">
<ellipse fill="#31688e" stroke="black" cx="961.25" cy="-198" rx="58" ry="18"/>
<text text-anchor="middle" x="961.25" y="-194.3" font-family="Times,serif" font-size="14.00" fill="white">pycuda ❎</text>
</a>
</g>
</g>
<!-- tensorflow&#45;&gt;pycuda -->
<!-- timemory -->
<g id="node15" class="node">
<title>timemory</title>
<g id="a_node15"><a xlink:href="https://github.com/conda-forge/timemory-feedstock/pull/8" xlink:title="timemory ❎">
<ellipse fill="#31688e" stroke="black" cx="961.25" cy="-126" rx="69.59" ry="18"/>
<text text-anchor="middle" x="961.25" y="-122.3" font-family="Times,serif" font-size="14.00" fill="white">timemory ❎</text>
</a>
</g>
</g>
<!-- pycuda&#45;&gt;timemory -->
<!-- pytorch&#45;cpu -->
<g id="node5" class="node">
<title>pytorch&#45;cpu</title>
<g id="a_node5"><a xlink:href="https://github.com/conda-forge/pytorch-cpu-feedstock/pull/27" xlink:title="pytorch cpu ❎">
<ellipse fill="#31688e" stroke="black" cx="437.25" cy="-378" rx="80" ry="18"/>
<text text-anchor="middle" x="437.25" y="-374.3" font-family="Times,serif" font-size="14.00" fill="white">pytorch cpu ❎</text>
</a>
</g>
</g>
<!-- pytorch&#45;cpu&#45;&gt;torchvision -->
<g id="edge3" class="edge">
<title>pytorch&#45;cpu&#45;&gt;torchvision</title>
<path fill="none" stroke="black" d="M382.39,-364.89C325.27,-352.27 236.16,-332.6 177.99,-319.75"/>
<polygon fill="black" stroke="black" points="178.74,-316.33 168.22,-317.59 177.23,-323.17 178.74,-316.33"/>
</g>
<!-- pytorch&#45;cpu&#45;&gt;fcos -->
<g id="edge4" class="edge">
<title>pytorch&#45;cpu&#45;&gt;fcos</title>
<path fill="none" stroke="black" d="M357.33,-376.6C256.75,-374.38 91.84,-364.45 48.25,-324 31.56,-308.52 27.64,-282.26 27.4,-262.27"/>
<polygon fill="black" stroke="black" points="30.9,-262.26 27.57,-252.2 23.9,-262.14 30.9,-262.26"/>
</g>
<!-- pytorch_cluster -->
<g id="node6" class="node">
<title>pytorch_cluster</title>
<g id="a_node6"><a xlink:href="https://github.com/conda-forge/pytorch_cluster-feedstock" xlink:title="pytorch_cluster">
<ellipse fill="#fde725" stroke="black" cx="159.25" cy="-234" rx="83.39" ry="18"/>
<text text-anchor="middle" x="159.25" y="-230.3" font-family="Times,serif" font-size="14.00">pytorch_cluster</text>
</a>
</g>
</g>
<!-- pytorch&#45;cpu&#45;&gt;pytorch_cluster -->
<g id="edge5" class="edge">
<title>pytorch&#45;cpu&#45;&gt;pytorch_cluster</title>
<path fill="none" stroke="black" d="M375.81,-366.32C339.42,-358.26 293.32,-344.91 256.25,-324 226.37,-307.15 198.19,-279.47 179.98,-259.45"/>
<polygon fill="black" stroke="black" points="182.54,-257.06 173.28,-251.92 177.32,-261.72 182.54,-257.06"/>
</g>
<!-- pytorch_scatter -->
<g id="node7" class="node">
<title>pytorch_scatter</title>
<g id="a_node7"><a xlink:href="https://github.com/conda-forge/pytorch_scatter-feedstock" xlink:title="pytorch_scatter">
<ellipse fill="#fde725" stroke="black" cx="326.25" cy="-162" rx="83.39" ry="18"/>
<text text-anchor="middle" x="326.25" y="-158.3" font-family="Times,serif" font-size="14.00">pytorch_scatter</text>
</a>
</g>
</g>
<!-- pytorch&#45;cpu&#45;&gt;pytorch_scatter -->
<g id="edge6" class="edge">
<title>pytorch&#45;cpu&#45;&gt;pytorch_scatter</title>
<path fill="none" stroke="black" d="M428.35,-359.85C408.94,-322.43 362.69,-233.25 339.7,-188.93"/>
<polygon fill="black" stroke="black" points="342.74,-187.2 335.03,-179.94 336.53,-190.42 342.74,-187.2"/>
</g>
<!-- pytorch_spline_conv -->
<g id="node8" class="node">
<title>pytorch_spline_conv</title>
<g id="a_node8"><a xlink:href="https://github.com/conda-forge/pytorch_spline_conv-feedstock" xlink:title="pytorch_spline_conv">
<ellipse fill="#fde725" stroke="black" cx="412.25" cy="-90" rx="104.78" ry="18"/>
<text text-anchor="middle" x="412.25" y="-86.3" font-family="Times,serif" font-size="14.00">pytorch_spline_conv</text>
</a>
</g>
</g>
<!-- pytorch&#45;cpu&#45;&gt;pytorch_spline_conv -->
<g id="edge7" class="edge">
<title>pytorch&#45;cpu&#45;&gt;pytorch_spline_conv</title>
<path fill="none" stroke="black" d="M436.03,-359.74C433.25,-321.07 426.09,-224.59 418.25,-144 417.43,-135.58 416.43,-126.41 415.48,-118.11"/>
<polygon fill="black" stroke="black" points="418.96,-117.7 414.33,-108.17 412,-118.51 418.96,-117.7"/>
</g>
<!-- pytorch_sparse -->
<g id="node9" class="node">
<title>pytorch_sparse</title>
<g id="a_node9"><a xlink:href="https://github.com/conda-forge/pytorch_sparse-feedstock" xlink:title="pytorch_sparse">
<ellipse fill="#fde725" stroke="black" cx="208.25" cy="-90" rx="81.49" ry="18"/>
<text text-anchor="middle" x="208.25" y="-86.3" font-family="Times,serif" font-size="14.00">pytorch_sparse</text>
</a>
</g>
</g>
<!-- pytorch&#45;cpu&#45;&gt;pytorch_sparse -->
<g id="edge8" class="edge">
<title>pytorch&#45;cpu&#45;&gt;pytorch_sparse</title>
<path fill="none" stroke="black" d="M413.66,-360.65C371.37,-330.09 282.53,-260.13 234.25,-180 222.79,-160.98 216.13,-136.62 212.42,-118.2"/>
<polygon fill="black" stroke="black" points="215.82,-117.32 210.57,-108.12 208.94,-118.59 215.82,-117.32"/>
</g>
<!-- torchani -->
<g id="node10" class="node">
<title>torchani</title>
<g id="a_node10"><a xlink:href="https://github.com/conda-forge/torchani-feedstock" xlink:title="torchani">
<ellipse fill="#fde725" stroke="black" cx="545.25" cy="-18" rx="49.5" ry="18"/>
<text text-anchor="middle" x="545.25" y="-14.3" font-family="Times,serif" font-size="14.00">torchani</text>
</a>
</g>
</g>
<!-- pytorch&#45;cpu&#45;&gt;torchani -->
<g id="edge9" class="edge">
<title>pytorch&#45;cpu&#45;&gt;torchani</title>
<path fill="none" stroke="black" d="M443.63,-359.89C459.26,-317.61 500.04,-204.61 526.25,-108 531.8,-87.54 536.75,-64.09 540.2,-46.39"/>
<polygon fill="black" stroke="black" points="543.71,-46.67 542.15,-36.19 536.84,-45.36 543.71,-46.67"/>
</g>
<!-- openmm&#45;torch -->
<g id="node11" class="node">
<title>openmm&#45;torch</title>
<g id="a_node11"><a xlink:href="https://github.com/conda-forge/openmm-torch-feedstock" xlink:title="openmm torch">
<ellipse fill="#fde725" stroke="black" cx="581.25" cy="-306" rx="78" ry="18"/>
<text text-anchor="middle" x="581.25" y="-302.3" font-family="Times,serif" font-size="14.00">openmm torch</text>
</a>
</g>
</g>
<!-- pytorch&#45;cpu&#45;&gt;openmm&#45;torch -->
<g id="edge10" class="edge">
<title>pytorch&#45;cpu&#45;&gt;openmm&#45;torch</title>
<path fill="none" stroke="black" d="M469.21,-361.46C490.18,-351.27 517.8,-337.84 540.37,-326.87"/>
<polygon fill="black" stroke="black" points="541.91,-330.01 549.38,-322.49 538.85,-323.72 541.91,-330.01"/>
</g>
<!-- torchsparse -->
<g id="node12" class="node">
<title>torchsparse</title>
<g id="a_node12"><a xlink:href="https://github.com/conda-forge/torchsparse-feedstock" xlink:title="torchsparse">
<ellipse fill="#fde725" stroke="black" cx="648.25" cy="-234" rx="65.79" ry="18"/>
<text text-anchor="middle" x="648.25" y="-230.3" font-family="Times,serif" font-size="14.00">torchsparse</text>
</a>
</g>
</g>
<!-- pytorch&#45;cpu&#45;&gt;torchsparse -->
<g id="edge11" class="edge">
<title>pytorch&#45;cpu&#45;&gt;torchsparse</title>
<path fill="none" stroke="black" d="M509.52,-370.16C569.7,-362.79 648.6,-348.66 668.25,-324 682.49,-306.12 674.31,-280.1 664.46,-260.81"/>
<polygon fill="black" stroke="black" points="667.47,-259.02 659.59,-251.94 661.34,-262.39 667.47,-259.02"/>
</g>
<!-- torch&#45;scatter -->
<g id="node13" class="node">
<title>torch&#45;scatter</title>
<g id="a_node13"><a xlink:href="https://github.com/conda-forge/torch-scatter-feedstock" xlink:title="torch scatter">
<ellipse fill="#fde725" stroke="black" cx="742.25" cy="-162" rx="71" ry="18"/>
<text text-anchor="middle" x="742.25" y="-158.3" font-family="Times,serif" font-size="14.00">torch scatter</text>
</a>
</g>
</g>
<!-- pytorch&#45;cpu&#45;&gt;torch&#45;scatter -->
<g id="edge12" class="edge">
<title>pytorch&#45;cpu&#45;&gt;torch&#45;scatter</title>
<path fill="none" stroke="black" d="M506.59,-368.97C570.16,-360.43 658.51,-345.21 686.25,-324 727.97,-292.09 738.76,-227.04 741.45,-190.14"/>
<polygon fill="black" stroke="black" points="744.95,-190.28 742.03,-180.1 737.96,-189.88 744.95,-190.28"/>
</g>
<!-- kaolin -->
<g id="node14" class="node">
<title>kaolin</title>
<g id="a_node14"><a xlink:href="https://github.com/conda-forge/kaolin-feedstock" xlink:title="kaolin">
<ellipse fill="#fde725" stroke="black" cx="841.25" cy="-90" rx="38.5" ry="18"/>
<text text-anchor="middle" x="841.25" y="-86.3" font-family="Times,serif" font-size="14.00">kaolin</text>
</a>
</g>
</g>
<!-- pytorch&#45;cpu&#45;&gt;kaolin -->
<g id="edge13" class="edge">
<title>pytorch&#45;cpu&#45;&gt;kaolin</title>
<path fill="none" stroke="black" d="M507.88,-369.44C578.53,-360.85 681.43,-345.21 715.25,-324 782.8,-281.64 789.39,-252.65 822.25,-180 831.13,-160.36 835.94,-136.37 838.5,-118.25"/>
<polygon fill="black" stroke="black" points="842,-118.43 839.79,-108.07 835.06,-117.56 842,-118.43"/>
</g>
<!-- pytorch_scatter&#45;&gt;pytorch_sparse -->
<g id="edge14" class="edge">
<title>pytorch_scatter&#45;&gt;pytorch_sparse</title>
<path fill="none" stroke="black" d="M299.18,-144.94C282.84,-135.25 261.82,-122.78 244.11,-112.27"/>
<polygon fill="black" stroke="black" points="245.58,-109.08 235.19,-106.98 242.01,-115.1 245.58,-109.08"/>
</g>
</g>
</svg>
