<?xml version="1.0" encoding="UTF-8" standalone="no"?>
<!DOCTYPE svg PUBLIC "-//W3C//DTD SVG 1.1//EN"
 "http://www.w3.org/Graphics/SVG/1.1/DTD/svg11.dtd">
<!-- Generated by graphviz version 2.46.1 (20210222.2046)
 -->
<!-- Pages: 1 -->
<svg width="1588pt" height="476pt"
 viewBox="0.00 0.00 1587.87 476.00" xmlns="http://www.w3.org/2000/svg" xmlns:xlink="http://www.w3.org/1999/xlink">
<g id="graph0" class="graph" transform="scale(1 1) rotate(0) translate(4 472)">
<polygon fill="white" stroke="transparent" points="-4,4 -4,-472 1583.87,-472 1583.87,4 -4,4"/>
<!-- cppzmq -->
<g id="node1" class="node">
<title>cppzmq</title>
<g id="a_node1"><a xlink:href="https://github.com/conda-forge/cppzmq-feedstock/pull/33" xlink:title="cppzmq ❎">
<ellipse fill="#31688e" stroke="black" cx="555.18" cy="-342" rx="60" ry="18"/>
<text text-anchor="middle" x="555.18" y="-338.3" font-family="Times-Roman" font-size="14.00" fill="white">cppzmq ❎</text>
</a>
</g>
</g>
<!-- xeus -->
<g id="node2" class="node">
<title>xeus</title>
<g id="a_node2"><a xlink:href="https://github.com/conda-forge/xeus-feedstock" xlink:title="xeus">
<ellipse fill="#fde725" stroke="black" cx="494.18" cy="-270" rx="32.5" ry="18"/>
<text text-anchor="middle" x="494.18" y="-266.3" font-family="Times-Roman" font-size="14.00">xeus</text>
</a>
</g>
</g>
<!-- cppzmq&#45;&gt;xeus -->
<g id="edge1" class="edge">
<title>cppzmq&#45;&gt;xeus</title>
<path fill="none" stroke="black" d="M540.72,-324.41C532.83,-315.35 522.93,-303.99 514.29,-294.08"/>
<polygon fill="black" stroke="black" points="516.9,-291.75 507.69,-286.51 511.63,-296.35 516.9,-291.75"/>
</g>
<!-- xeus&#45;python -->
<g id="node3" class="node">
<title>xeus&#45;python</title>
<g id="a_node3"><a xlink:href="https://github.com/conda-forge/xeus-python-feedstock" xlink:title="xeus python">
<ellipse fill="#fde725" stroke="black" cx="721.18" cy="-198" rx="67.69" ry="18"/>
<text text-anchor="middle" x="721.18" y="-194.3" font-family="Times-Roman" font-size="14.00">xeus python</text>
</a>
</g>
</g>
<!-- cppzmq&#45;&gt;xeus&#45;python -->
<g id="edge2" class="edge">
<title>cppzmq&#45;&gt;xeus&#45;python</title>
<path fill="none" stroke="black" d="M613.05,-337.03C679.47,-331.13 782.33,-317.4 806.18,-288 816.26,-275.57 813.94,-265.99 806.18,-252 797.93,-237.14 783.6,-225.9 769.02,-217.69"/>
<polygon fill="black" stroke="black" points="770.45,-214.49 759.97,-212.96 767.21,-220.69 770.45,-214.49"/>
</g>
<!-- xeus&#45;cling -->
<g id="node4" class="node">
<title>xeus&#45;cling</title>
<g id="a_node4"><a xlink:href="https://github.com/conda-forge/xeus-cling-feedstock" xlink:title="xeus cling">
<ellipse fill="#fde725" stroke="black" cx="863.18" cy="-198" rx="56.59" ry="18"/>
<text text-anchor="middle" x="863.18" y="-194.3" font-family="Times-Roman" font-size="14.00">xeus cling</text>
</a>
</g>
</g>
<!-- cppzmq&#45;&gt;xeus&#45;cling -->
<g id="edge3" class="edge">
<title>cppzmq&#45;&gt;xeus&#45;cling</title>
<path fill="none" stroke="black" d="M611.84,-335.99C680.83,-328.87 792.11,-313.73 824.18,-288 843.23,-272.72 853.2,-246.26 858.28,-226.15"/>
<polygon fill="black" stroke="black" points="861.71,-226.83 860.5,-216.31 854.88,-225.29 861.71,-226.83"/>
</g>
<!-- libignition&#45;transport4 -->
<g id="node5" class="node">
<title>libignition&#45;transport4</title>
<g id="a_node5"><a xlink:href="https://github.com/conda-forge/libignition-transport4-feedstock" xlink:title="libignition transport4">
<ellipse fill="#fde725" stroke="black" cx="690.18" cy="-270" rx="107.48" ry="18"/>
<text text-anchor="middle" x="690.18" y="-266.3" font-family="Times-Roman" font-size="14.00">libignition transport4</text>
</a>
</g>
</g>
<!-- cppzmq&#45;&gt;libignition&#45;transport4 -->
<g id="edge4" class="edge">
<title>cppzmq&#45;&gt;libignition&#45;transport4</title>
<path fill="none" stroke="black" d="M583.81,-326.15C602.96,-316.23 628.43,-303.02 649.65,-292.01"/>
<polygon fill="black" stroke="black" points="651.49,-295 658.76,-287.29 648.27,-288.79 651.49,-295"/>
</g>
<!-- gnuradio -->
<g id="node6" class="node">
<title>gnuradio</title>
<g id="a_node6"><a xlink:href="https://github.com/conda-forge/gnuradio-feedstock" xlink:title="gnuradio">
<ellipse fill="#fde725" stroke="black" cx="990.18" cy="-198" rx="52" ry="18"/>
<text text-anchor="middle" x="990.18" y="-194.3" font-family="Times-Roman" font-size="14.00">gnuradio</text>
</a>
</g>
</g>
<!-- cppzmq&#45;&gt;gnuradio -->
<g id="edge5" class="edge">
<title>cppzmq&#45;&gt;gnuradio</title>
<path fill="none" stroke="black" d="M613.18,-337.34C674.21,-331.96 772.19,-318.94 851.18,-288 893.07,-271.59 935.86,-241.83 962.69,-221.27"/>
<polygon fill="black" stroke="black" points="965.08,-223.85 970.82,-214.95 960.78,-218.32 965.08,-223.85"/>
</g>
<!-- cadabra2 -->
<g id="node7" class="node">
<title>cadabra2</title>
<g id="a_node7"><a xlink:href="https://github.com/conda-forge/cadabra2-feedstock" xlink:title="cadabra2">
<ellipse fill="#fde725" stroke="black" cx="290.18" cy="-198" rx="54.69" ry="18"/>
<text text-anchor="middle" x="290.18" y="-194.3" font-family="Times-Roman" font-size="14.00">cadabra2</text>
</a>
</g>
</g>
<!-- cppzmq&#45;&gt;cadabra2 -->
<g id="edge6" class="edge">
<title>cppzmq&#45;&gt;cadabra2</title>
<path fill="none" stroke="black" d="M519.16,-327.56C493.79,-317.65 459.29,-303.29 430.18,-288 391.06,-267.46 348.56,-239.58 320.77,-220.53"/>
<polygon fill="black" stroke="black" points="322.5,-217.47 312.29,-214.68 318.53,-223.24 322.5,-217.47"/>
</g>
<!-- xeus&#45;sqlite -->
<g id="node8" class="node">
<title>xeus&#45;sqlite</title>
<g id="a_node8"><a xlink:href="https://github.com/conda-forge/xeus-sqlite-feedstock" xlink:title="xeus sqlite">
<ellipse fill="#fde725" stroke="black" cx="423.18" cy="-198" rx="60" ry="18"/>
<text text-anchor="middle" x="423.18" y="-194.3" font-family="Times-Roman" font-size="14.00">xeus sqlite</text>
</a>
</g>
</g>
<!-- cppzmq&#45;&gt;xeus&#45;sqlite -->
<g id="edge7" class="edge">
<title>cppzmq&#45;&gt;xeus&#45;sqlite</title>
<path fill="none" stroke="black" d="M514.67,-328.6C493.41,-320.23 468.47,-307.14 452.18,-288 437.33,-270.56 430.04,-245.36 426.49,-226.22"/>
<polygon fill="black" stroke="black" points="429.94,-225.61 424.88,-216.3 423.03,-226.73 429.94,-225.61"/>
</g>
<!-- gems3k -->
<g id="node9" class="node">
<title>gems3k</title>
<g id="a_node9"><a xlink:href="https://github.com/conda-forge/gems3k-feedstock" xlink:title="gems3k">
<ellipse fill="#fde725" stroke="black" cx="169.18" cy="-198" rx="48.19" ry="18"/>
<text text-anchor="middle" x="169.18" y="-194.3" font-family="Times-Roman" font-size="14.00">gems3k</text>
</a>
</g>
</g>
<!-- cppzmq&#45;&gt;gems3k -->
<g id="edge8" class="edge">
<title>cppzmq&#45;&gt;gems3k</title>
<path fill="none" stroke="black" d="M509.76,-330.2C471.31,-320.59 414.98,-305.38 367.18,-288 309.54,-267.05 245.19,-236.78 205.93,-217.5"/>
<polygon fill="black" stroke="black" points="207.03,-214.14 196.52,-212.84 203.93,-220.41 207.03,-214.14"/>
</g>
<!-- xeus&#45;robot -->
<g id="node10" class="node">
<title>xeus&#45;robot</title>
<g id="a_node10"><a xlink:href="https://github.com/conda-forge/xeus-robot-feedstock" xlink:title="xeus robot">
<ellipse fill="#fde725" stroke="black" cx="616.18" cy="-126" rx="60" ry="18"/>
<text text-anchor="middle" x="616.18" y="-122.3" font-family="Times-Roman" font-size="14.00">xeus robot</text>
</a>
</g>
</g>
<!-- cppzmq&#45;&gt;xeus&#45;robot -->
<g id="edge9" class="edge">
<title>cppzmq&#45;&gt;xeus&#45;robot</title>
<path fill="none" stroke="black" d="M495.81,-339.21C351.1,-332.88 0,-304.59 112.18,-180 140.69,-148.33 414.75,-134.24 546.33,-129.26"/>
<polygon fill="black" stroke="black" points="546.84,-132.74 556.7,-128.87 546.58,-125.75 546.84,-132.74"/>
</g>
<!-- cpptango -->
<g id="node11" class="node">
<title>cpptango</title>
<g id="a_node11"><a xlink:href="https://github.com/conda-forge/cpptango-feedstock" xlink:title="cpptango">
<ellipse fill="#fde725" stroke="black" cx="1391.18" cy="-126" rx="54" ry="18"/>
<text text-anchor="middle" x="1391.18" y="-122.3" font-family="Times-Roman" font-size="14.00">cpptango</text>
</a>
</g>
</g>
<!-- cppzmq&#45;&gt;cpptango -->
<g id="edge10" class="edge">
<title>cppzmq&#45;&gt;cpptango</title>
<path fill="none" stroke="black" d="M615.21,-341.12C766.57,-340.72 1160.31,-335.03 1281.18,-288 1329.24,-269.3 1344.96,-259.81 1372.18,-216 1383.75,-197.38 1388.36,-172.79 1390.15,-154.18"/>
<polygon fill="black" stroke="black" points="1393.66,-154.24 1390.92,-144.01 1386.68,-153.72 1393.66,-154.24"/>
</g>
<!-- xeus&#45;sql -->
<g id="node12" class="node">
<title>xeus&#45;sql</title>
<g id="a_node12"><a xlink:href="https://github.com/conda-forge/xeus-sql-feedstock" xlink:title="xeus sql">
<ellipse fill="#fde725" stroke="black" cx="587.18" cy="-198" rx="48.19" ry="18"/>
<text text-anchor="middle" x="587.18" y="-194.3" font-family="Times-Roman" font-size="14.00">xeus sql</text>
</a>
</g>
</g>
<!-- cppzmq&#45;&gt;xeus&#45;sql -->
<g id="edge11" class="edge">
<title>cppzmq&#45;&gt;xeus&#45;sql</title>
<path fill="none" stroke="black" d="M558.67,-323.9C562.37,-305.96 568.46,-276.95 574.18,-252 576.11,-243.56 578.32,-234.39 580.37,-226.09"/>
<polygon fill="black" stroke="black" points="583.82,-226.7 582.83,-216.15 577.03,-225.02 583.82,-226.7"/>
</g>
<!-- xeus&#45;&gt;xeus&#45;python -->
<g id="edge12" class="edge">
<title>xeus&#45;&gt;xeus&#45;python</title>
<path fill="none" stroke="black" d="M522.01,-260.42C558.52,-249.16 623.3,-229.18 669.05,-215.07"/>
<polygon fill="black" stroke="black" points="670.27,-218.36 678.8,-212.07 668.21,-211.67 670.27,-218.36"/>
</g>
<!-- xeus&#45;&gt;xeus&#45;cling -->
<g id="edge13" class="edge">
<title>xeus&#45;&gt;xeus&#45;cling</title>
<path fill="none" stroke="black" d="M523.74,-262.35C538.8,-259.05 557.43,-255.12 574.18,-252 673.3,-233.51 699.51,-236.78 798.18,-216 802.79,-215.03 807.56,-213.94 812.33,-212.8"/>
<polygon fill="black" stroke="black" points="813.19,-216.19 822.06,-210.39 811.51,-209.4 813.19,-216.19"/>
</g>
<!-- xeus&#45;&gt;cadabra2 -->
<g id="edge14" class="edge">
<title>xeus&#45;&gt;cadabra2</title>
<path fill="none" stroke="black" d="M467.09,-259.7C433.75,-248.26 376.6,-228.66 336.3,-214.83"/>
<polygon fill="black" stroke="black" points="337.29,-211.47 326.69,-211.53 335.02,-218.09 337.29,-211.47"/>
</g>
<!-- xeus&#45;&gt;xeus&#45;sqlite -->
<g id="edge15" class="edge">
<title>xeus&#45;&gt;xeus&#45;sqlite</title>
<path fill="none" stroke="black" d="M478.77,-253.81C469.52,-244.69 457.55,-232.88 447.08,-222.57"/>
<polygon fill="black" stroke="black" points="449.37,-219.91 439.79,-215.38 444.46,-224.89 449.37,-219.91"/>
</g>
<!-- xeus&#45;&gt;xeus&#45;robot -->
<g id="edge16" class="edge">
<title>xeus&#45;&gt;xeus&#45;robot</title>
<path fill="none" stroke="black" d="M497.69,-251.92C502.37,-232.66 512.22,-201.26 530.18,-180 542.1,-165.89 558.77,-154.42 574.26,-145.8"/>
<polygon fill="black" stroke="black" points="576.01,-148.84 583.2,-141.06 572.73,-142.65 576.01,-148.84"/>
</g>
<!-- xeus&#45;&gt;xeus&#45;sql -->
<g id="edge17" class="edge">
<title>xeus&#45;&gt;xeus&#45;sql</title>
<path fill="none" stroke="black" d="M513,-254.83C526.04,-245.02 543.66,-231.76 558.45,-220.63"/>
<polygon fill="black" stroke="black" points="560.89,-223.17 566.77,-214.36 556.68,-217.58 560.89,-223.17"/>
</g>
<!-- xeus&#45;python&#45;&gt;xeus&#45;robot -->
<g id="edge18" class="edge">
<title>xeus&#45;python&#45;&gt;xeus&#45;robot</title>
<path fill="none" stroke="black" d="M697.35,-181.12C682.75,-171.38 663.88,-158.8 648.01,-148.22"/>
<polygon fill="black" stroke="black" points="649.81,-145.21 639.55,-142.58 645.93,-151.04 649.81,-145.21"/>
</g>
<!-- gap -->
<g id="node13" class="node">
<title>gap</title>
<g id="a_node13"><a xlink:href="https://github.com/conda-forge/gap-feedstock" xlink:title="gap">
<ellipse fill="#35b779" stroke="black" cx="1516.18" cy="-450" rx="28.7" ry="18"/>
<text text-anchor="middle" x="1516.18" y="-446.3" font-family="Times-Roman" font-size="14.00">gap</text>
</a>
</g>
</g>
<!-- r&#45;pbdzmq -->
<g id="node14" class="node">
<title>r&#45;pbdzmq</title>
<g id="a_node14"><a xlink:href="https://github.com/conda-forge/r-pbdzmq-feedstock" xlink:title="r pbdzmq">
<ellipse fill="#35b779" stroke="black" cx="1516.18" cy="-378" rx="55.49" ry="18"/>
<text text-anchor="middle" x="1516.18" y="-374.3" font-family="Times-Roman" font-size="14.00">r pbdzmq</text>
</a>
</g>
</g>
<!-- gap&#45;&gt;r&#45;pbdzmq -->
<!-- r&#45;rzmq -->
<g id="node18" class="node">
<title>r&#45;rzmq</title>
<g id="a_node18"><a xlink:href="https://github.com/conda-forge/r-rzmq-feedstock" xlink:title="r rzmq">
<ellipse fill="#35b779" stroke="black" cx="1516.18" cy="-306" rx="41.69" ry="18"/>
<text text-anchor="middle" x="1516.18" y="-302.3" font-family="Times-Roman" font-size="14.00">r rzmq</text>
</a>
</g>
</g>
<!-- r&#45;pbdzmq&#45;&gt;r&#45;rzmq -->
<!-- pyzmq -->
<g id="node15" class="node">
<title>pyzmq</title>
<g id="a_node15"><a xlink:href="https://github.com/conda-forge/pyzmq-feedstock/pull/73" xlink:title="pyzmq ❎">
<ellipse fill="#31688e" stroke="black" cx="1070.18" cy="-270" rx="54" ry="18"/>
<text text-anchor="middle" x="1070.18" y="-266.3" font-family="Times-Roman" font-size="14.00" fill="white">pyzmq ❎</text>
</a>
</g>
</g>
<!-- pyzmq&#45;&gt;xeus&#45;cling -->
<g id="edge20" class="edge">
<title>pyzmq&#45;&gt;xeus&#45;cling</title>
<path fill="none" stroke="black" d="M1033.65,-256.65C999.23,-245.01 947.51,-227.52 910.06,-214.86"/>
<polygon fill="black" stroke="black" points="910.98,-211.47 900.39,-211.58 908.74,-218.1 910.98,-211.47"/>
</g>
<!-- pyzmq&#45;&gt;gnuradio -->
<g id="edge21" class="edge">
<title>pyzmq&#45;&gt;gnuradio</title>
<path fill="none" stroke="black" d="M1051.62,-252.76C1041.05,-243.51 1027.63,-231.77 1016.04,-221.63"/>
<polygon fill="black" stroke="black" points="1018.19,-218.86 1008.36,-214.91 1013.58,-224.13 1018.19,-218.86"/>
</g>
<!-- pyzmq&#45;&gt;xeus&#45;robot -->
<g id="edge22" class="edge">
<title>pyzmq&#45;&gt;xeus&#45;robot</title>
<path fill="none" stroke="black" d="M1071.9,-251.75C1072.87,-231.43 1071,-198.13 1051.18,-180 999.38,-132.62 796.2,-126.01 686.82,-126.01"/>
<polygon fill="black" stroke="black" points="686.53,-122.51 676.53,-126.03 686.54,-129.51 686.53,-122.51"/>
</g>
<!-- cis_interface -->
<g id="node16" class="node">
<title>cis_interface</title>
<g id="a_node16"><a xlink:href="https://github.com/conda-forge/cis_interface-feedstock" xlink:title="cis_interface">
<ellipse fill="#fde725" stroke="black" cx="1293.18" cy="-198" rx="69.59" ry="18"/>
<text text-anchor="middle" x="1293.18" y="-194.3" font-family="Times-Roman" font-size="14.00">cis_interface</text>
</a>
</g>
</g>
<!-- pyzmq&#45;&gt;cis_interface -->
<g id="edge23" class="edge">
<title>pyzmq&#45;&gt;cis_interface</title>
<path fill="none" stroke="black" d="M1108.01,-257.13C1144.51,-245.67 1200.09,-228.22 1240.83,-215.43"/>
<polygon fill="black" stroke="black" points="1242.1,-218.7 1250.59,-212.37 1240,-212.02 1242.1,-218.7"/>
</g>
<!-- yggdrasil -->
<g id="node17" class="node">
<title>yggdrasil</title>
<g id="a_node17"><a xlink:href="https://github.com/conda-forge/yggdrasil-feedstock" xlink:title="yggdrasil">
<ellipse fill="#fde725" stroke="black" cx="1152.18" cy="-198" rx="53.5" ry="18"/>
<text text-anchor="middle" x="1152.18" y="-194.3" font-family="Times-Roman" font-size="14.00">yggdrasil</text>
</a>
</g>
</g>
<!-- pyzmq&#45;&gt;yggdrasil -->
<g id="edge24" class="edge">
<title>pyzmq&#45;&gt;yggdrasil</title>
<path fill="none" stroke="black" d="M1089.2,-252.76C1100.04,-243.51 1113.79,-231.77 1125.67,-221.63"/>
<polygon fill="black" stroke="black" points="1128.21,-224.06 1133.55,-214.91 1123.67,-218.74 1128.21,-224.06"/>
</g>
<!-- helics -->
<g id="node19" class="node">
<title>helics</title>
<g id="a_node19"><a xlink:href="https://github.com/conda-forge/helics-feedstock" xlink:title="helics">
<ellipse fill="#35b779" stroke="black" cx="1516.18" cy="-234" rx="37.09" ry="18"/>
<text text-anchor="middle" x="1516.18" y="-230.3" font-family="Times-Roman" font-size="14.00">helics</text>
</a>
</g>
</g>
<!-- r&#45;rzmq&#45;&gt;helics -->
<!-- r&#45;clustermq -->
<g id="node21" class="node">
<title>r&#45;clustermq</title>
<g id="a_node21"><a xlink:href="https://github.com/conda-forge/r-clustermq-feedstock" xlink:title="r clustermq">
<ellipse fill="#35b779" stroke="black" cx="1516.18" cy="-162" rx="63.89" ry="18"/>
<text text-anchor="middle" x="1516.18" y="-158.3" font-family="Times-Roman" font-size="14.00">r clustermq</text>
</a>
</g>
</g>
<!-- helics&#45;&gt;r&#45;clustermq -->
<!-- czmq -->
<g id="node20" class="node">
<title>czmq</title>
<g id="a_node20"><a xlink:href="https://github.com/conda-forge/czmq-feedstock" xlink:title="czmq">
<ellipse fill="#35b779" stroke="black" cx="1236.18" cy="-270" rx="36" ry="18"/>
<text text-anchor="middle" x="1236.18" y="-266.3" font-family="Times-Roman" font-size="14.00">czmq</text>
</a>
</g>
</g>
<!-- czmq&#45;&gt;cis_interface -->
<g id="edge27" class="edge">
<title>czmq&#45;&gt;cis_interface</title>
<path fill="none" stroke="black" d="M1249.11,-253.12C1256.19,-244.42 1265.13,-233.45 1273.1,-223.66"/>
<polygon fill="black" stroke="black" points="1275.9,-225.76 1279.5,-215.8 1270.47,-221.34 1275.9,-225.76"/>
</g>
<!-- czmq&#45;&gt;yggdrasil -->
<g id="edge28" class="edge">
<title>czmq&#45;&gt;yggdrasil</title>
<path fill="none" stroke="black" d="M1218.36,-254.15C1207.07,-244.74 1192.22,-232.37 1179.46,-221.73"/>
<polygon fill="black" stroke="black" points="1181.35,-218.76 1171.43,-215.04 1176.87,-224.13 1181.35,-218.76"/>
</g>
<!-- adios2 -->
<g id="node22" class="node">
<title>adios2</title>
<g id="a_node22"><a xlink:href="https://github.com/conda-forge/adios2-feedstock" xlink:title="adios2">
<ellipse fill="#35b779" stroke="black" cx="1516.18" cy="-90" rx="41.69" ry="18"/>
<text text-anchor="middle" x="1516.18" y="-86.3" font-family="Times-Roman" font-size="14.00">adios2</text>
</a>
</g>
</g>
<!-- r&#45;clustermq&#45;&gt;adios2 -->
<!-- zmqpp -->
<g id="node23" class="node">
<title>zmqpp</title>
<g id="a_node23"><a xlink:href="https://github.com/conda-forge/zmqpp-feedstock" xlink:title="zmqpp">
<ellipse fill="#35b779" stroke="black" cx="1516.18" cy="-18" rx="42.49" ry="18"/>
<text text-anchor="middle" x="1516.18" y="-14.3" font-family="Times-Roman" font-size="14.00">zmqpp</text>
</a>
</g>
</g>
<!-- adios2&#45;&gt;zmqpp -->
</g>
</svg>
