<?xml version="1.0" encoding="UTF-8" standalone="no"?>
<!DOCTYPE svg PUBLIC "-//W3C//DTD SVG 1.1//EN"
 "http://www.w3.org/Graphics/SVG/1.1/DTD/svg11.dtd">
<!-- Generated by graphviz version 2.46.1 (20210222.2046)
 -->
<!-- Pages: 1 -->
<svg width="1082pt" height="276pt"
 viewBox="0.00 0.00 1081.54 276.00" xmlns="http://www.w3.org/2000/svg" xmlns:xlink="http://www.w3.org/1999/xlink">
<g id="graph0" class="graph" transform="scale(1 1) rotate(0) translate(4 272)">
<polygon fill="white" stroke="transparent" points="-4,4 -4,-272 1077.54,-272 1077.54,4 -4,4"/>
<!-- xeus -->
<g id="node1" class="node">
<title>xeus</title>
<g id="a_node1"><a xlink:href="https://github.com/conda-forge/xeus-feedstock" xlink:title="xeus">
<ellipse fill="#35b779" stroke="black" cx="404.59" cy="-250" rx="32.49" ry="18"/>
<text text-anchor="middle" x="404.59" y="-246.3" font-family="Times-Roman" font-size="14.00">xeus</text>
</a>
</g>
</g>
<!-- xeus&#45;python -->
<g id="node4" class="node">
<title>xeus&#45;python</title>
<g id="a_node4"><a xlink:href="https://github.com/conda-forge/xeus-python-feedstock" xlink:title="xeus python">
<ellipse fill="#fde725" stroke="black" cx="67.59" cy="-178" rx="67.69" ry="18"/>
<text text-anchor="middle" x="67.59" y="-174.3" font-family="Times-Roman" font-size="14.00">xeus python</text>
</a>
</g>
</g>
<!-- xeus&#45;&gt;xeus&#45;python -->
<g id="edge3" class="edge">
<title>xeus&#45;&gt;xeus&#45;python</title>
<path fill="none" stroke="black" d="M374.41,-243.07C325.76,-233.47 227.02,-213.8 143.59,-196 138.3,-194.87 132.81,-193.68 127.31,-192.47"/>
<polygon fill="black" stroke="black" points="127.96,-189.03 117.44,-190.3 126.45,-195.87 127.96,-189.03"/>
</g>
<!-- xeus&#45;cling -->
<g id="node5" class="node">
<title>xeus&#45;cling</title>
<g id="a_node5"><a xlink:href="https://github.com/conda-forge/xeus-cling-feedstock" xlink:title="xeus cling">
<ellipse fill="#fde725" stroke="black" cx="209.59" cy="-178" rx="56.59" ry="18"/>
<text text-anchor="middle" x="209.59" y="-174.3" font-family="Times-Roman" font-size="14.00">xeus cling</text>
</a>
</g>
</g>
<!-- xeus&#45;&gt;xeus&#45;cling -->
<g id="edge2" class="edge">
<title>xeus&#45;&gt;xeus&#45;cling</title>
<path fill="none" stroke="black" d="M377.89,-239.41C346.39,-228.11 293.49,-209.12 255.4,-195.44"/>
<polygon fill="black" stroke="black" points="256.17,-192 245.57,-191.92 253.8,-198.59 256.17,-192"/>
</g>
<!-- cadabra2 -->
<g id="node9" class="node">
<title>cadabra2</title>
<g id="a_node9"><a xlink:href="https://github.com/conda-forge/cadabra2-feedstock" xlink:title="cadabra2">
<ellipse fill="#fde725" stroke="black" cx="338.59" cy="-178" rx="54.69" ry="18"/>
<text text-anchor="middle" x="338.59" y="-174.3" font-family="Times-Roman" font-size="14.00">cadabra2</text>
</a>
</g>
</g>
<!-- xeus&#45;&gt;cadabra2 -->
<g id="edge1" class="edge">
<title>xeus&#45;&gt;cadabra2</title>
<path fill="none" stroke="black" d="M390.27,-233.81C381.81,-224.84 370.91,-213.28 361.31,-203.09"/>
<polygon fill="black" stroke="black" points="363.68,-200.5 354.27,-195.63 358.59,-205.3 363.68,-200.5"/>
</g>
<!-- xeus&#45;sqlite -->
<g id="node10" class="node">
<title>xeus&#45;sqlite</title>
<g id="a_node10"><a xlink:href="https://github.com/conda-forge/xeus-sqlite-feedstock" xlink:title="xeus sqlite">
<ellipse fill="#fde725" stroke="black" cx="470.59" cy="-178" rx="59.59" ry="18"/>
<text text-anchor="middle" x="470.59" y="-174.3" font-family="Times-Roman" font-size="14.00">xeus sqlite</text>
</a>
</g>
</g>
<!-- xeus&#45;&gt;xeus&#45;sqlite -->
<g id="edge6" class="edge">
<title>xeus&#45;&gt;xeus&#45;sqlite</title>
<path fill="none" stroke="black" d="M418.92,-233.81C427.37,-224.84 438.28,-213.28 447.88,-203.09"/>
<polygon fill="black" stroke="black" points="450.6,-205.3 454.92,-195.63 445.51,-200.5 450.6,-205.3"/>
</g>
<!-- xeus&#45;robot -->
<g id="node12" class="node">
<title>xeus&#45;robot</title>
<g id="a_node12"><a xlink:href="https://github.com/conda-forge/xeus-robot-feedstock" xlink:title="xeus robot">
<ellipse fill="#fde725" stroke="black" cx="312.59" cy="-106" rx="59.59" ry="18"/>
<text text-anchor="middle" x="312.59" y="-102.3" font-family="Times-Roman" font-size="14.00">xeus robot</text>
</a>
</g>
</g>
<!-- xeus&#45;&gt;xeus&#45;robot -->
<g id="edge4" class="edge">
<title>xeus&#45;&gt;xeus&#45;robot</title>
<path fill="none" stroke="black" d="M436.54,-246.44C468.66,-241.97 516.62,-229.7 539.59,-196 548.61,-182.78 549.54,-172.53 539.59,-160 519.8,-135.05 438.54,-120.75 378.87,-113.43"/>
<polygon fill="black" stroke="black" points="379.09,-109.93 368.75,-112.23 378.27,-116.88 379.09,-109.93"/>
</g>
<!-- xeus&#45;sql -->
<g id="node14" class="node">
<title>xeus&#45;sql</title>
<g id="a_node14"><a xlink:href="https://github.com/conda-forge/xeus-sql-feedstock" xlink:title="xeus sql">
<ellipse fill="#fde725" stroke="black" cx="634.59" cy="-178" rx="48.19" ry="18"/>
<text text-anchor="middle" x="634.59" y="-174.3" font-family="Times-Roman" font-size="14.00">xeus sql</text>
</a>
</g>
</g>
<!-- xeus&#45;&gt;xeus&#45;sql -->
<g id="edge5" class="edge">
<title>xeus&#45;&gt;xeus&#45;sql</title>
<path fill="none" stroke="black" d="M432.34,-240.56C471.15,-228.74 542.15,-207.14 588.85,-192.92"/>
<polygon fill="black" stroke="black" points="589.88,-196.27 598.43,-190.01 587.85,-189.57 589.88,-196.27"/>
</g>
<!-- helics -->
<g id="node2" class="node">
<title>helics</title>
<g id="a_node2"><a xlink:href="https://github.com/conda-forge/helics-feedstock/pull/28" xlink:title="helics ❎">
<ellipse fill="#31688e" stroke="black" cx="341.59" cy="-18" rx="49.29" ry="18"/>
<text text-anchor="middle" x="341.59" y="-14.3" font-family="Times-Roman" font-size="14.00" fill="white">helics ❎</text>
</a>
</g>
</g>
<!-- cis_interface -->
<g id="node3" class="node">
<title>cis_interface</title>
<g id="a_node3"><a xlink:href="https://github.com/conda-forge/cis_interface-feedstock/pull/12" xlink:title="cis_interface ✓">
<ellipse fill="#31688e" stroke="black" cx="993.59" cy="-178" rx="79.89" ry="18"/>
<text text-anchor="middle" x="993.59" y="-174.3" font-family="Times-Roman" font-size="14.00" fill="white">cis_interface ✓</text>
</a>
</g>
</g>
<!-- xeus&#45;python&#45;&gt;xeus&#45;robot -->
<g id="edge7" class="edge">
<title>xeus&#45;python&#45;&gt;xeus&#45;robot</title>
<path fill="none" stroke="black" d="M111.96,-164.32C153.88,-152.35 216.76,-134.38 260.92,-121.76"/>
<polygon fill="black" stroke="black" points="261.95,-125.11 270.6,-119 260.03,-118.38 261.95,-125.11"/>
</g>
<!-- adios2 -->
<g id="node6" class="node">
<title>adios2</title>
<g id="a_node6"><a xlink:href="https://github.com/conda-forge/adios2-feedstock/pull/27" xlink:title="adios2 ✓">
<ellipse fill="#31688e" stroke="black" cx="797.59" cy="-62" rx="51.99" ry="18"/>
<text text-anchor="middle" x="797.59" y="-58.3" font-family="Times-Roman" font-size="14.00" fill="white">adios2 ✓</text>
</a>
</g>
</g>
<!-- libignition&#45;transport4 -->
<g id="node7" class="node">
<title>libignition&#45;transport4</title>
<g id="a_node7"><a xlink:href="https://github.com/conda-forge/libignition-transport4-feedstock" xlink:title="libignition transport4">
<ellipse fill="#35b779" stroke="black" cx="797.59" cy="-178" rx="107.48" ry="18"/>
<text text-anchor="middle" x="797.59" y="-174.3" font-family="Times-Roman" font-size="14.00">libignition transport4</text>
</a>
</g>
</g>
<!-- gnuradio -->
<g id="node8" class="node">
<title>gnuradio</title>
<g id="a_node8"><a xlink:href="https://github.com/conda-forge/gnuradio-feedstock" xlink:title="gnuradio">
<ellipse fill="#35b779" stroke="black" cx="993.59" cy="-62" rx="51.99" ry="18"/>
<text text-anchor="middle" x="993.59" y="-58.3" font-family="Times-Roman" font-size="14.00">gnuradio</text>
</a>
</g>
</g>
<!-- gems3k -->
<g id="node11" class="node">
<title>gems3k</title>
<g id="a_node11"><a xlink:href="https://github.com/conda-forge/gems3k-feedstock" xlink:title="gems3k">
<ellipse fill="#35b779" stroke="black" cx="797.59" cy="-18" rx="48.19" ry="18"/>
<text text-anchor="middle" x="797.59" y="-14.3" font-family="Times-Roman" font-size="14.00">gems3k</text>
</a>
</g>
</g>
<!-- cpptango -->
<g id="node13" class="node">
<title>cpptango</title>
<g id="a_node13"><a xlink:href="https://github.com/conda-forge/cpptango-feedstock" xlink:title="cpptango">
<ellipse fill="#35b779" stroke="black" cx="341.59" cy="-62" rx="53.89" ry="18"/>
<text text-anchor="middle" x="341.59" y="-58.3" font-family="Times-Roman" font-size="14.00">cpptango</text>
</a>
</g>
</g>
</g>
</svg>
