<?xml version="1.0" encoding="UTF-8" standalone="no"?>
<!DOCTYPE svg PUBLIC "-//W3C//DTD SVG 1.1//EN"
 "http://www.w3.org/Graphics/SVG/1.1/DTD/svg11.dtd">
<!-- Generated by graphviz version 2.46.1 (20210222.2046)
 -->
<!-- Pages: 1 -->
<svg width="925pt" height="188pt"
 viewBox="0.00 0.00 924.99 188.00" xmlns="http://www.w3.org/2000/svg" xmlns:xlink="http://www.w3.org/1999/xlink">
<g id="graph0" class="graph" transform="scale(1 1) rotate(0) translate(4 184)">
<polygon fill="white" stroke="transparent" points="-4,4 -4,-184 920.99,-184 920.99,4 -4,4"/>
<!-- xeus -->
<g id="node1" class="node">
<title>xeus</title>
<g id="a_node1"><a xlink:href="https://github.com/conda-forge/xeus-feedstock/pull/83" xlink:title="xeus ✓">
<ellipse fill="#31688e" stroke="black" cx="404.59" cy="-162" rx="42.79" ry="18"/>
<text text-anchor="middle" x="404.59" y="-158.3" font-family="Times-Roman" font-size="14.00" fill="white">xeus ✓</text>
</a>
</g>
</g>
<!-- xeus&#45;python -->
<g id="node3" class="node">
<title>xeus&#45;python</title>
<g id="a_node3"><a xlink:href="https://github.com/conda-forge/xeus-python-feedstock" xlink:title="xeus python">
<ellipse fill="#fde725" stroke="black" cx="67.59" cy="-90" rx="67.69" ry="18"/>
<text text-anchor="middle" x="67.59" y="-86.3" font-family="Times-Roman" font-size="14.00">xeus python</text>
</a>
</g>
</g>
<!-- xeus&#45;&gt;xeus&#45;python -->
<g id="edge3" class="edge">
<title>xeus&#45;&gt;xeus&#45;python</title>
<path fill="none" stroke="black" d="M366.51,-153.51C315.64,-143.45 222.73,-124.88 143.59,-108 138.3,-106.87 132.81,-105.68 127.31,-104.47"/>
<polygon fill="black" stroke="black" points="127.96,-101.03 117.44,-102.3 126.45,-107.87 127.96,-101.03"/>
</g>
<!-- xeus&#45;cling -->
<g id="node4" class="node">
<title>xeus&#45;cling</title>
<g id="a_node4"><a xlink:href="https://github.com/conda-forge/xeus-cling-feedstock" xlink:title="xeus cling">
<ellipse fill="#fde725" stroke="black" cx="209.59" cy="-90" rx="56.59" ry="18"/>
<text text-anchor="middle" x="209.59" y="-86.3" font-family="Times-Roman" font-size="14.00">xeus cling</text>
</a>
</g>
</g>
<!-- xeus&#45;&gt;xeus&#45;cling -->
<g id="edge2" class="edge">
<title>xeus&#45;&gt;xeus&#45;cling</title>
<path fill="none" stroke="black" d="M372.83,-149.6C340.97,-138.16 291.57,-120.43 255.46,-107.46"/>
<polygon fill="black" stroke="black" points="256.25,-104.03 245.65,-103.94 253.88,-110.62 256.25,-104.03"/>
</g>
<!-- cadabra2 -->
<g id="node5" class="node">
<title>cadabra2</title>
<g id="a_node5"><a xlink:href="https://github.com/conda-forge/cadabra2-feedstock" xlink:title="cadabra2">
<ellipse fill="#fde725" stroke="black" cx="338.59" cy="-90" rx="54.69" ry="18"/>
<text text-anchor="middle" x="338.59" y="-86.3" font-family="Times-Roman" font-size="14.00">cadabra2</text>
</a>
</g>
</g>
<!-- xeus&#45;&gt;cadabra2 -->
<g id="edge1" class="edge">
<title>xeus&#45;&gt;cadabra2</title>
<path fill="none" stroke="black" d="M389.62,-145.12C381.13,-136.12 370.35,-124.68 360.89,-114.65"/>
<polygon fill="black" stroke="black" points="363.38,-112.18 353.97,-107.31 358.28,-116.98 363.38,-112.18"/>
</g>
<!-- xeus&#45;sqlite -->
<g id="node6" class="node">
<title>xeus&#45;sqlite</title>
<g id="a_node6"><a xlink:href="https://github.com/conda-forge/xeus-sqlite-feedstock" xlink:title="xeus sqlite">
<ellipse fill="#fde725" stroke="black" cx="470.59" cy="-90" rx="59.59" ry="18"/>
<text text-anchor="middle" x="470.59" y="-86.3" font-family="Times-Roman" font-size="14.00">xeus sqlite</text>
</a>
</g>
</g>
<!-- xeus&#45;&gt;xeus&#45;sqlite -->
<g id="edge6" class="edge">
<title>xeus&#45;&gt;xeus&#45;sqlite</title>
<path fill="none" stroke="black" d="M419.57,-145.12C427.94,-136.24 438.53,-125.01 447.89,-115.08"/>
<polygon fill="black" stroke="black" points="450.44,-117.47 454.76,-107.8 445.35,-112.67 450.44,-117.47"/>
</g>
<!-- xeus&#45;robot -->
<g id="node8" class="node">
<title>xeus&#45;robot</title>
<g id="a_node8"><a xlink:href="https://github.com/conda-forge/xeus-robot-feedstock" xlink:title="xeus robot">
<ellipse fill="#fde725" stroke="black" cx="312.59" cy="-18" rx="59.59" ry="18"/>
<text text-anchor="middle" x="312.59" y="-14.3" font-family="Times-Roman" font-size="14.00">xeus robot</text>
</a>
</g>
</g>
<!-- xeus&#45;&gt;xeus&#45;robot -->
<g id="edge4" class="edge">
<title>xeus&#45;&gt;xeus&#45;robot</title>
<path fill="none" stroke="black" d="M445.84,-156.99C477.33,-151.52 518.75,-138.58 539.59,-108 548.61,-94.78 549.54,-84.53 539.59,-72 519.8,-47.05 438.54,-32.75 378.87,-25.43"/>
<polygon fill="black" stroke="black" points="379.09,-21.93 368.75,-24.23 378.27,-28.88 379.09,-21.93"/>
</g>
<!-- xeus&#45;sql -->
<g id="node9" class="node">
<title>xeus&#45;sql</title>
<g id="a_node9"><a xlink:href="https://github.com/conda-forge/xeus-sql-feedstock" xlink:title="xeus sql">
<ellipse fill="#fde725" stroke="black" cx="634.59" cy="-90" rx="48.19" ry="18"/>
<text text-anchor="middle" x="634.59" y="-86.3" font-family="Times-Roman" font-size="14.00">xeus sql</text>
</a>
</g>
</g>
<!-- xeus&#45;&gt;xeus&#45;sql -->
<g id="edge5" class="edge">
<title>xeus&#45;&gt;xeus&#45;sql</title>
<path fill="none" stroke="black" d="M438.53,-150.67C478.38,-138.54 544.64,-118.38 588.96,-104.89"/>
<polygon fill="black" stroke="black" points="590.07,-108.21 598.62,-101.95 588.04,-101.51 590.07,-108.21"/>
</g>
<!-- helics -->
<g id="node2" class="node">
<title>helics</title>
<g id="a_node2"><a xlink:href="https://github.com/conda-forge/helics-feedstock/pull/28" xlink:title="helics ❎">
<ellipse fill="#31688e" stroke="black" cx="867.59" cy="-90" rx="49.29" ry="18"/>
<text text-anchor="middle" x="867.59" y="-86.3" font-family="Times-Roman" font-size="14.00" fill="white">helics ❎</text>
</a>
</g>
</g>
<!-- xeus&#45;python&#45;&gt;xeus&#45;robot -->
<g id="edge7" class="edge">
<title>xeus&#45;python&#45;&gt;xeus&#45;robot</title>
<path fill="none" stroke="black" d="M111.96,-76.32C153.88,-64.35 216.76,-46.38 260.92,-33.76"/>
<polygon fill="black" stroke="black" points="261.95,-37.11 270.6,-31 260.03,-30.38 261.95,-37.11"/>
</g>
<!-- gems3k -->
<g id="node7" class="node">
<title>gems3k</title>
<g id="a_node7"><a xlink:href="https://github.com/conda-forge/gems3k-feedstock/pull/4" xlink:title="gems3k ❎">
<ellipse fill="#31688e" stroke="black" cx="750.59" cy="-90" rx="59.59" ry="18"/>
<text text-anchor="middle" x="750.59" y="-86.3" font-family="Times-Roman" font-size="14.00" fill="white">gems3k ❎</text>
</a>
</g>
</g>
</g>
</svg>
