<?xml version="1.0" encoding="UTF-8" standalone="no"?>
<!DOCTYPE svg PUBLIC "-//W3C//DTD SVG 1.1//EN"
 "http://www.w3.org/Graphics/SVG/1.1/DTD/svg11.dtd">
<!-- Generated by graphviz version 2.42.3 (20191010.1750)
 -->
<!-- Title: %3 Pages: 1 -->
<svg width="1075pt" height="476pt"
 viewBox="0.00 0.00 1075.04 476.00" xmlns="http://www.w3.org/2000/svg" xmlns:xlink="http://www.w3.org/1999/xlink">
<g id="graph0" class="graph" transform="scale(1 1) rotate(0) translate(4 472)">
<title>%3</title>
<polygon fill="white" stroke="transparent" points="-4,4 -4,-472 1071.04,-472 1071.04,4 -4,4"/>
<!-- cppzmq -->
<g id="node1" class="node">
<title>cppzmq</title>
<g id="a_node1"><a xlink:href="https://github.com/conda-forge/cppzmq-feedstock/pull/30" xlink:title="cppzmq ❎">
<ellipse fill="#31688e" stroke="black" cx="279.5" cy="-342" rx="50.89" ry="18"/>
<text text-anchor="middle" x="279.5" y="-338.3" font-family="Times,serif" font-size="14.00" fill="white">cppzmq ❎</text>
</a>
</g>
</g>
<!-- xeus -->
<g id="node2" class="node">
<title>xeus</title>
<g id="a_node2"><a xlink:href="https://github.com/conda-forge/xeus-feedstock" xlink:title="xeus">
<ellipse fill="#fde725" stroke="black" cx="279.5" cy="-270" rx="27" ry="18"/>
<text text-anchor="middle" x="279.5" y="-266.3" font-family="Times,serif" font-size="14.00">xeus</text>
</a>
</g>
</g>
<!-- cppzmq&#45;&gt;xeus -->
<g id="edge1" class="edge">
<title>cppzmq&#45;&gt;xeus</title>
<path fill="none" stroke="black" d="M279.5,-323.7C279.5,-315.98 279.5,-306.71 279.5,-298.11"/>
<polygon fill="black" stroke="black" points="283,-298.1 279.5,-288.1 276,-298.1 283,-298.1"/>
</g>
<!-- xeus&#45;python -->
<g id="node3" class="node">
<title>xeus&#45;python</title>
<g id="a_node3"><a xlink:href="https://github.com/conda-forge/xeus-python-feedstock" xlink:title="xeus python">
<ellipse fill="#fde725" stroke="black" cx="403.5" cy="-198" rx="54" ry="18"/>
<text text-anchor="middle" x="403.5" y="-194.3" font-family="Times,serif" font-size="14.00">xeus python</text>
</a>
</g>
</g>
<!-- cppzmq&#45;&gt;xeus&#45;python -->
<g id="edge2" class="edge">
<title>cppzmq&#45;&gt;xeus&#45;python</title>
<path fill="none" stroke="black" d="M292.84,-324.34C307.42,-306.26 331.65,-276.67 353.5,-252 362.06,-242.33 371.75,-231.95 380.3,-222.95"/>
<polygon fill="black" stroke="black" points="383.08,-225.11 387.46,-215.46 378.02,-220.27 383.08,-225.11"/>
</g>
<!-- xeus&#45;cling -->
<g id="node4" class="node">
<title>xeus&#45;cling</title>
<g id="a_node4"><a xlink:href="https://github.com/conda-forge/xeus-cling-feedstock" xlink:title="xeus cling">
<ellipse fill="#fde725" stroke="black" cx="560.5" cy="-198" rx="47" ry="18"/>
<text text-anchor="middle" x="560.5" y="-194.3" font-family="Times,serif" font-size="14.00">xeus cling</text>
</a>
</g>
</g>
<!-- cppzmq&#45;&gt;xeus&#45;cling -->
<g id="edge3" class="edge">
<title>cppzmq&#45;&gt;xeus&#45;cling</title>
<path fill="none" stroke="black" d="M328.62,-337.4C395.97,-331.44 512.01,-317.17 541.5,-288 557.52,-272.16 561.58,-246.35 562.05,-226.59"/>
<polygon fill="black" stroke="black" points="565.55,-226.32 561.99,-216.34 558.55,-226.36 565.55,-226.32"/>
</g>
<!-- libignition&#45;transport4 -->
<g id="node5" class="node">
<title>libignition&#45;transport4</title>
<g id="a_node5"><a xlink:href="https://github.com/conda-forge/libignition-transport4-feedstock" xlink:title="libignition transport4">
<ellipse fill="#fde725" stroke="black" cx="447.5" cy="-270" rx="85.29" ry="18"/>
<text text-anchor="middle" x="447.5" y="-266.3" font-family="Times,serif" font-size="14.00">libignition transport4</text>
</a>
</g>
</g>
<!-- cppzmq&#45;&gt;libignition&#45;transport4 -->
<g id="edge4" class="edge">
<title>cppzmq&#45;&gt;libignition&#45;transport4</title>
<path fill="none" stroke="black" d="M311.1,-327.83C336.55,-317.23 372.68,-302.18 401.36,-290.22"/>
<polygon fill="black" stroke="black" points="402.89,-293.38 410.78,-286.3 400.2,-286.92 402.89,-293.38"/>
</g>
<!-- gnuradio -->
<g id="node6" class="node">
<title>gnuradio</title>
<g id="a_node6"><a xlink:href="https://github.com/conda-forge/gnuradio-feedstock" xlink:title="gnuradio">
<ellipse fill="#fde725" stroke="black" cx="630.5" cy="-270" rx="42.49" ry="18"/>
<text text-anchor="middle" x="630.5" y="-266.3" font-family="Times,serif" font-size="14.00">gnuradio</text>
</a>
</g>
</g>
<!-- cppzmq&#45;&gt;gnuradio -->
<g id="edge5" class="edge">
<title>cppzmq&#45;&gt;gnuradio</title>
<path fill="none" stroke="black" d="M325.58,-334.43C383.93,-325.72 487.36,-308.98 574.5,-288 578.9,-286.94 583.46,-285.74 587.99,-284.47"/>
<polygon fill="black" stroke="black" points="589.18,-287.77 597.81,-281.63 587.23,-281.05 589.18,-287.77"/>
</g>
<!-- cadabra2 -->
<g id="node7" class="node">
<title>cadabra2</title>
<g id="a_node7"><a xlink:href="https://github.com/conda-forge/cadabra2-feedstock" xlink:title="cadabra2">
<ellipse fill="#fde725" stroke="black" cx="175.5" cy="-198" rx="42.49" ry="18"/>
<text text-anchor="middle" x="175.5" y="-194.3" font-family="Times,serif" font-size="14.00">cadabra2</text>
</a>
</g>
</g>
<!-- cppzmq&#45;&gt;cadabra2 -->
<g id="edge6" class="edge">
<title>cppzmq&#45;&gt;cadabra2</title>
<path fill="none" stroke="black" d="M265.19,-324.63C256.37,-314.33 244.97,-300.63 235.5,-288 219.9,-267.17 203.46,-242.58 191.74,-224.53"/>
<polygon fill="black" stroke="black" points="194.44,-222.25 186.08,-215.75 188.56,-226.05 194.44,-222.25"/>
</g>
<!-- xeus&#45;sqlite -->
<g id="node8" class="node">
<title>xeus&#45;sqlite</title>
<g id="a_node8"><a xlink:href="https://github.com/conda-forge/xeus-sqlite-feedstock" xlink:title="xeus sqlite">
<ellipse fill="#fde725" stroke="black" cx="283.5" cy="-198" rx="48.19" ry="18"/>
<text text-anchor="middle" x="283.5" y="-194.3" font-family="Times,serif" font-size="14.00">xeus sqlite</text>
</a>
</g>
</g>
<!-- cppzmq&#45;&gt;xeus&#45;sqlite -->
<g id="edge7" class="edge">
<title>cppzmq&#45;&gt;xeus&#45;sqlite</title>
<path fill="none" stroke="black" d="M264.64,-324.71C256.68,-314.86 247.68,-301.61 243.5,-288 238.8,-272.71 238.42,-267.17 243.5,-252 247.05,-241.4 253.66,-231.22 260.49,-222.67"/>
<polygon fill="black" stroke="black" points="263.19,-224.89 267.02,-215.01 257.87,-220.35 263.19,-224.89"/>
</g>
<!-- gems3k -->
<g id="node9" class="node">
<title>gems3k</title>
<g id="a_node9"><a xlink:href="https://github.com/conda-forge/gems3k-feedstock" xlink:title="gems3k">
<ellipse fill="#fde725" stroke="black" cx="38.5" cy="-198" rx="38.5" ry="18"/>
<text text-anchor="middle" x="38.5" y="-194.3" font-family="Times,serif" font-size="14.00">gems3k</text>
</a>
</g>
</g>
<!-- cppzmq&#45;&gt;gems3k -->
<g id="edge8" class="edge">
<title>cppzmq&#45;&gt;gems3k</title>
<path fill="none" stroke="black" d="M230.26,-337.19C189.47,-331.83 131.86,-318.96 91.5,-288 70.75,-272.08 56.47,-245.53 48.01,-225.56"/>
<polygon fill="black" stroke="black" points="51.18,-224.07 44.21,-216.08 44.68,-226.67 51.18,-224.07"/>
</g>
<!-- xeus&#45;robot -->
<g id="node10" class="node">
<title>xeus&#45;robot</title>
<g id="a_node10"><a xlink:href="https://github.com/conda-forge/xeus-robot-feedstock" xlink:title="xeus robot">
<ellipse fill="#fde725" stroke="black" cx="254.5" cy="-126" rx="48.19" ry="18"/>
<text text-anchor="middle" x="254.5" y="-122.3" font-family="Times,serif" font-size="14.00">xeus robot</text>
</a>
</g>
</g>
<!-- cppzmq&#45;&gt;xeus&#45;robot -->
<g id="edge9" class="edge">
<title>cppzmq&#45;&gt;xeus&#45;robot</title>
<path fill="none" stroke="black" d="M249.34,-327.42C211.74,-308.58 149.4,-270.57 124.5,-216 117.86,-201.44 115.57,-193.28 124.5,-180 141.27,-155.05 172.06,-141.84 199.47,-134.85"/>
<polygon fill="black" stroke="black" points="200.43,-138.21 209.38,-132.54 198.85,-131.4 200.43,-138.21"/>
</g>
<!-- xeus&#45;&gt;xeus&#45;python -->
<g id="edge10" class="edge">
<title>xeus&#45;&gt;xeus&#45;python</title>
<path fill="none" stroke="black" d="M299.42,-257.75C317.96,-247.29 345.98,-231.47 368.29,-218.88"/>
<polygon fill="black" stroke="black" points="370.15,-221.84 377.14,-213.88 366.71,-215.75 370.15,-221.84"/>
</g>
<!-- xeus&#45;&gt;xeus&#45;cling -->
<g id="edge11" class="edge">
<title>xeus&#45;&gt;xeus&#45;cling</title>
<path fill="none" stroke="black" d="M304.44,-262.79C350.91,-251.21 451.5,-226.15 511.85,-211.12"/>
<polygon fill="black" stroke="black" points="513.05,-214.43 521.9,-208.62 511.35,-207.64 513.05,-214.43"/>
</g>
<!-- xeus&#45;&gt;cadabra2 -->
<g id="edge12" class="edge">
<title>xeus&#45;&gt;cadabra2</title>
<path fill="none" stroke="black" d="M260.91,-256.49C245.54,-246.14 223.43,-231.26 205.56,-219.23"/>
<polygon fill="black" stroke="black" points="207.42,-216.27 197.17,-213.59 203.51,-222.07 207.42,-216.27"/>
</g>
<!-- xeus&#45;&gt;xeus&#45;sqlite -->
<g id="edge13" class="edge">
<title>xeus&#45;&gt;xeus&#45;sqlite</title>
<path fill="none" stroke="black" d="M280.49,-251.7C280.93,-243.98 281.46,-234.71 281.95,-226.11"/>
<polygon fill="black" stroke="black" points="285.45,-226.29 282.52,-216.1 278.46,-225.89 285.45,-226.29"/>
</g>
<!-- xeus&#45;python&#45;&gt;xeus&#45;robot -->
<g id="edge14" class="edge">
<title>xeus&#45;python&#45;&gt;xeus&#45;robot</title>
<path fill="none" stroke="black" d="M373.35,-182.83C350.05,-171.89 317.65,-156.67 292.56,-144.88"/>
<polygon fill="black" stroke="black" points="293.88,-141.63 283.34,-140.55 290.9,-147.97 293.88,-141.63"/>
</g>
<!-- gap -->
<g id="node11" class="node">
<title>gap</title>
<g id="a_node11"><a xlink:href="https://github.com/conda-forge/gap-feedstock/pull/43" xlink:title="gap ❎">
<ellipse fill="#31688e" stroke="black" cx="1010.5" cy="-450" rx="35.19" ry="18"/>
<text text-anchor="middle" x="1010.5" y="-446.3" font-family="Times,serif" font-size="14.00" fill="white">gap ❎</text>
</a>
</g>
</g>
<!-- r&#45;pbdzmq -->
<g id="node12" class="node">
<title>r&#45;pbdzmq</title>
<g id="a_node12"><a xlink:href="https://github.com/conda-forge/r-pbdzmq-feedstock/pull/15" xlink:title="r pbdzmq ❎">
<ellipse fill="#31688e" stroke="black" cx="1010.5" cy="-378" rx="56.59" ry="18"/>
<text text-anchor="middle" x="1010.5" y="-374.3" font-family="Times,serif" font-size="14.00" fill="white">r pbdzmq ❎</text>
</a>
</g>
</g>
<!-- gap&#45;&gt;r&#45;pbdzmq -->
<!-- r&#45;rzmq -->
<g id="node16" class="node">
<title>r&#45;rzmq</title>
<g id="a_node16"><a xlink:href="https://github.com/conda-forge/r-rzmq-feedstock" xlink:title="r rzmq">
<ellipse fill="#35b779" stroke="black" cx="1010.5" cy="-306" rx="34.5" ry="18"/>
<text text-anchor="middle" x="1010.5" y="-302.3" font-family="Times,serif" font-size="14.00">r rzmq</text>
</a>
</g>
</g>
<!-- r&#45;pbdzmq&#45;&gt;r&#45;rzmq -->
<!-- pyzmq -->
<g id="node13" class="node">
<title>pyzmq</title>
<g id="a_node13"><a xlink:href="https://github.com/conda-forge/pyzmq-feedstock/pull/60" xlink:title="pyzmq ❎">
<ellipse fill="#31688e" stroke="black" cx="724.5" cy="-342" rx="47" ry="18"/>
<text text-anchor="middle" x="724.5" y="-338.3" font-family="Times,serif" font-size="14.00" fill="white">pyzmq ❎</text>
</a>
</g>
</g>
<!-- pyzmq&#45;&gt;xeus&#45;cling -->
<g id="edge16" class="edge">
<title>pyzmq&#45;&gt;xeus&#45;cling</title>
<path fill="none" stroke="black" d="M720.11,-323.77C714.29,-304.08 702.26,-272 681.5,-252 661.4,-232.63 633.05,-219.7 608.85,-211.46"/>
<polygon fill="black" stroke="black" points="609.71,-208.06 599.12,-208.32 607.56,-214.72 609.71,-208.06"/>
</g>
<!-- pyzmq&#45;&gt;gnuradio -->
<g id="edge17" class="edge">
<title>pyzmq&#45;&gt;gnuradio</title>
<path fill="none" stroke="black" d="M703.64,-325.46C690.44,-315.63 673.2,-302.8 658.77,-292.06"/>
<polygon fill="black" stroke="black" points="660.77,-289.18 650.66,-286.01 656.59,-294.79 660.77,-289.18"/>
</g>
<!-- cis_interface -->
<g id="node14" class="node">
<title>cis_interface</title>
<g id="a_node14"><a xlink:href="https://github.com/conda-forge/cis_interface-feedstock" xlink:title="cis_interface">
<ellipse fill="#fde725" stroke="black" cx="784.5" cy="-270" rx="56" ry="18"/>
<text text-anchor="middle" x="784.5" y="-266.3" font-family="Times,serif" font-size="14.00">cis_interface</text>
</a>
</g>
</g>
<!-- pyzmq&#45;&gt;cis_interface -->
<g id="edge18" class="edge">
<title>pyzmq&#45;&gt;cis_interface</title>
<path fill="none" stroke="black" d="M738.42,-324.76C745.88,-316.06 755.23,-305.15 763.56,-295.43"/>
<polygon fill="black" stroke="black" points="766.39,-297.5 770.24,-287.63 761.08,-292.95 766.39,-297.5"/>
</g>
<!-- yggdrasil -->
<g id="node15" class="node">
<title>yggdrasil</title>
<g id="a_node15"><a xlink:href="https://github.com/conda-forge/yggdrasil-feedstock" xlink:title="yggdrasil">
<ellipse fill="#fde725" stroke="black" cx="902.5" cy="-270" rx="43.59" ry="18"/>
<text text-anchor="middle" x="902.5" y="-266.3" font-family="Times,serif" font-size="14.00">yggdrasil</text>
</a>
</g>
</g>
<!-- pyzmq&#45;&gt;yggdrasil -->
<g id="edge19" class="edge">
<title>pyzmq&#45;&gt;yggdrasil</title>
<path fill="none" stroke="black" d="M756.32,-328.49C786.05,-316.8 830.53,-299.3 862.61,-286.69"/>
<polygon fill="black" stroke="black" points="864.12,-289.86 872.14,-282.94 861.55,-283.34 864.12,-289.86"/>
</g>
<!-- helics -->
<g id="node17" class="node">
<title>helics</title>
<g id="a_node17"><a xlink:href="https://github.com/conda-forge/helics-feedstock" xlink:title="helics">
<ellipse fill="#35b779" stroke="black" cx="1010.5" cy="-234" rx="31.4" ry="18"/>
<text text-anchor="middle" x="1010.5" y="-230.3" font-family="Times,serif" font-size="14.00">helics</text>
</a>
</g>
</g>
<!-- r&#45;rzmq&#45;&gt;helics -->
<!-- r&#45;clustermq -->
<g id="node19" class="node">
<title>r&#45;clustermq</title>
<g id="a_node19"><a xlink:href="https://github.com/conda-forge/r-clustermq-feedstock" xlink:title="r clustermq">
<ellipse fill="#35b779" stroke="black" cx="1010.5" cy="-162" rx="51.5" ry="18"/>
<text text-anchor="middle" x="1010.5" y="-158.3" font-family="Times,serif" font-size="14.00">r clustermq</text>
</a>
</g>
</g>
<!-- helics&#45;&gt;r&#45;clustermq -->
<!-- czmq -->
<g id="node18" class="node">
<title>czmq</title>
<g id="a_node18"><a xlink:href="https://github.com/conda-forge/czmq-feedstock/pull/13" xlink:title="czmq ❎">
<ellipse fill="#31688e" stroke="black" cx="878.5" cy="-342" rx="42.49" ry="18"/>
<text text-anchor="middle" x="878.5" y="-338.3" font-family="Times,serif" font-size="14.00" fill="white">czmq ❎</text>
</a>
</g>
</g>
<!-- czmq&#45;&gt;cis_interface -->
<g id="edge22" class="edge">
<title>czmq&#45;&gt;cis_interface</title>
<path fill="none" stroke="black" d="M858.1,-325.81C845.19,-316.2 828.29,-303.61 813.94,-292.92"/>
<polygon fill="black" stroke="black" points="815.95,-290.05 805.84,-286.89 811.77,-295.67 815.95,-290.05"/>
</g>
<!-- czmq&#45;&gt;yggdrasil -->
<g id="edge23" class="edge">
<title>czmq&#45;&gt;yggdrasil</title>
<path fill="none" stroke="black" d="M884.31,-324.05C887.01,-316.18 890.29,-306.62 893.31,-297.79"/>
<polygon fill="black" stroke="black" points="896.64,-298.87 896.58,-288.28 890.02,-296.6 896.64,-298.87"/>
</g>
<!-- adios2 -->
<g id="node20" class="node">
<title>adios2</title>
<g id="a_node20"><a xlink:href="https://github.com/conda-forge/adios2-feedstock" xlink:title="adios2">
<ellipse fill="#35b779" stroke="black" cx="1010.5" cy="-90" rx="34" ry="18"/>
<text text-anchor="middle" x="1010.5" y="-86.3" font-family="Times,serif" font-size="14.00">adios2</text>
</a>
</g>
</g>
<!-- r&#45;clustermq&#45;&gt;adios2 -->
<!-- zmqpp -->
<g id="node21" class="node">
<title>zmqpp</title>
<g id="a_node21"><a xlink:href="https://github.com/conda-forge/zmqpp-feedstock" xlink:title="zmqpp">
<ellipse fill="#35b779" stroke="black" cx="1010.5" cy="-18" rx="35.19" ry="18"/>
<text text-anchor="middle" x="1010.5" y="-14.3" font-family="Times,serif" font-size="14.00">zmqpp</text>
</a>
</g>
</g>
<!-- adios2&#45;&gt;zmqpp -->
</g>
</svg>
