<?xml version="1.0" encoding="UTF-8" standalone="no"?>
<!DOCTYPE svg PUBLIC "-//W3C//DTD SVG 1.1//EN"
 "http://www.w3.org/Graphics/SVG/1.1/DTD/svg11.dtd">
<!-- Generated by graphviz version 2.42.3 (20191010.1750)
 -->
<!-- Title: %3 Pages: 1 -->
<svg width="1445pt" height="404pt"
 viewBox="0.00 0.00 1445.35 404.00" xmlns="http://www.w3.org/2000/svg" xmlns:xlink="http://www.w3.org/1999/xlink">
<g id="graph0" class="graph" transform="scale(1 1) rotate(0) translate(4 400)">
<title>%3</title>
<polygon fill="white" stroke="transparent" points="-4,4 -4,-400 1441.35,-400 1441.35,4 -4,4"/>
<!-- cppzmq -->
<g id="node1" class="node">
<title>cppzmq</title>
<g id="a_node1"><a xlink:href="https://github.com/conda-forge/cppzmq-feedstock" xlink:title="cppzmq">
<ellipse fill="#fde725" stroke="black" cx="425.26" cy="-306" rx="39" ry="18"/>
<text text-anchor="middle" x="425.26" y="-302.3" font-family="Times,serif" font-size="14.00">cppzmq</text>
</a>
</g>
</g>
<!-- xeus -->
<g id="node2" class="node">
<title>xeus</title>
<g id="a_node2"><a xlink:href="https://github.com/conda-forge/xeus-feedstock" xlink:title="xeus">
<ellipse fill="#fde725" stroke="black" cx="339.26" cy="-234" rx="27" ry="18"/>
<text text-anchor="middle" x="339.26" y="-230.3" font-family="Times,serif" font-size="14.00">xeus</text>
</a>
</g>
</g>
<!-- cppzmq&#45;&gt;xeus -->
<g id="edge1" class="edge">
<title>cppzmq&#45;&gt;xeus</title>
<path fill="none" stroke="black" d="M406.59,-289.81C394.08,-279.62 377.45,-266.09 363.86,-255.02"/>
<polygon fill="black" stroke="black" points="365.81,-252.1 355.85,-248.5 361.39,-257.53 365.81,-252.1"/>
</g>
<!-- xeus&#45;python -->
<g id="node3" class="node">
<title>xeus&#45;python</title>
<g id="a_node3"><a xlink:href="https://github.com/conda-forge/xeus-python-feedstock" xlink:title="xeus python">
<ellipse fill="#fde725" stroke="black" cx="312.26" cy="-162" rx="54" ry="18"/>
<text text-anchor="middle" x="312.26" y="-158.3" font-family="Times,serif" font-size="14.00">xeus python</text>
</a>
</g>
</g>
<!-- cppzmq&#45;&gt;xeus&#45;python -->
<g id="edge2" class="edge">
<title>cppzmq&#45;&gt;xeus&#45;python</title>
<path fill="none" stroke="black" d="M388.44,-299.92C359.85,-293.83 322,-280.58 303.26,-252 291.2,-233.62 295.23,-208.35 301.24,-189.43"/>
<polygon fill="black" stroke="black" points="304.57,-190.52 304.59,-179.93 297.97,-188.2 304.57,-190.52"/>
</g>
<!-- xeus&#45;cling -->
<g id="node4" class="node">
<title>xeus&#45;cling</title>
<g id="a_node4"><a xlink:href="https://github.com/conda-forge/xeus-cling-feedstock" xlink:title="xeus cling">
<ellipse fill="#fde725" stroke="black" cx="607.26" cy="-162" rx="47" ry="18"/>
<text text-anchor="middle" x="607.26" y="-158.3" font-family="Times,serif" font-size="14.00">xeus cling</text>
</a>
</g>
</g>
<!-- cppzmq&#45;&gt;xeus&#45;cling -->
<g id="edge3" class="edge">
<title>cppzmq&#45;&gt;xeus&#45;cling</title>
<path fill="none" stroke="black" d="M433.77,-288.2C444.43,-268.61 464.34,-236.34 489.26,-216 510.49,-198.66 538.3,-185.81 561.59,-177.1"/>
<polygon fill="black" stroke="black" points="563.04,-180.3 571.26,-173.63 560.67,-173.72 563.04,-180.3"/>
</g>
<!-- libignition&#45;transport4 -->
<g id="node5" class="node">
<title>libignition&#45;transport4</title>
<g id="a_node5"><a xlink:href="https://github.com/conda-forge/libignition-transport4-feedstock" xlink:title="libignition transport4">
<ellipse fill="#fde725" stroke="black" cx="133.26" cy="-234" rx="85.29" ry="18"/>
<text text-anchor="middle" x="133.26" y="-230.3" font-family="Times,serif" font-size="14.00">libignition transport4</text>
</a>
</g>
</g>
<!-- cppzmq&#45;&gt;libignition&#45;transport4 -->
<g id="edge4" class="edge">
<title>cppzmq&#45;&gt;libignition&#45;transport4</title>
<path fill="none" stroke="black" d="M391.47,-296.9C344.05,-285.53 256.84,-264.63 197,-250.28"/>
<polygon fill="black" stroke="black" points="197.81,-246.88 187.27,-247.95 196.18,-253.68 197.81,-246.88"/>
</g>
<!-- gnuradio -->
<g id="node6" class="node">
<title>gnuradio</title>
<g id="a_node6"><a xlink:href="https://github.com/conda-forge/gnuradio-feedstock" xlink:title="gnuradio">
<ellipse fill="#fde725" stroke="black" cx="712.26" cy="-234" rx="42.49" ry="18"/>
<text text-anchor="middle" x="712.26" y="-230.3" font-family="Times,serif" font-size="14.00">gnuradio</text>
</a>
</g>
</g>
<!-- cppzmq&#45;&gt;gnuradio -->
<g id="edge5" class="edge">
<title>cppzmq&#45;&gt;gnuradio</title>
<path fill="none" stroke="black" d="M459.02,-296.76C510.46,-284.22 608.57,-260.29 666.41,-246.18"/>
<polygon fill="black" stroke="black" points="667.48,-249.52 676.37,-243.75 665.83,-242.72 667.48,-249.52"/>
</g>
<!-- cadabra2 -->
<g id="node7" class="node">
<title>cadabra2</title>
<g id="a_node7"><a xlink:href="https://github.com/conda-forge/cadabra2-feedstock" xlink:title="cadabra2">
<ellipse fill="#fde725" stroke="black" cx="464.26" cy="-162" rx="42.49" ry="18"/>
<text text-anchor="middle" x="464.26" y="-158.3" font-family="Times,serif" font-size="14.00">cadabra2</text>
</a>
</g>
</g>
<!-- cppzmq&#45;&gt;cadabra2 -->
<g id="edge6" class="edge">
<title>cppzmq&#45;&gt;cadabra2</title>
<path fill="none" stroke="black" d="M429.96,-287.87C436.64,-263.56 448.93,-218.82 456.84,-190.01"/>
<polygon fill="black" stroke="black" points="460.26,-190.76 459.53,-180.19 453.51,-188.91 460.26,-190.76"/>
</g>
<!-- xeus&#45;sqlite -->
<g id="node8" class="node">
<title>xeus&#45;sqlite</title>
<g id="a_node8"><a xlink:href="https://github.com/conda-forge/xeus-sqlite-feedstock" xlink:title="xeus sqlite">
<ellipse fill="#fde725" stroke="black" cx="192.26" cy="-162" rx="48.19" ry="18"/>
<text text-anchor="middle" x="192.26" y="-158.3" font-family="Times,serif" font-size="14.00">xeus sqlite</text>
</a>
</g>
</g>
<!-- cppzmq&#45;&gt;xeus&#45;sqlite -->
<g id="edge7" class="edge">
<title>cppzmq&#45;&gt;xeus&#45;sqlite</title>
<path fill="none" stroke="black" d="M393.16,-295.69C365.26,-286.81 324.4,-271.85 292.26,-252 262.58,-233.67 233.33,-206.25 214.21,-186.69"/>
<polygon fill="black" stroke="black" points="216.6,-184.13 207.15,-179.36 211.56,-188.99 216.6,-184.13"/>
</g>
<!-- gems3k -->
<g id="node9" class="node">
<title>gems3k</title>
<g id="a_node9"><a xlink:href="https://github.com/conda-forge/gems3k-feedstock" xlink:title="gems3k">
<ellipse fill="#fde725" stroke="black" cx="537.26" cy="-234" rx="38.5" ry="18"/>
<text text-anchor="middle" x="537.26" y="-230.3" font-family="Times,serif" font-size="14.00">gems3k</text>
</a>
</g>
</g>
<!-- cppzmq&#45;&gt;gems3k -->
<g id="edge8" class="edge">
<title>cppzmq&#45;&gt;gems3k</title>
<path fill="none" stroke="black" d="M447.38,-291.17C464.33,-280.58 487.92,-265.84 506.67,-254.11"/>
<polygon fill="black" stroke="black" points="508.55,-257.07 515.17,-248.8 504.84,-251.13 508.55,-257.07"/>
</g>
<!-- xeus&#45;robot -->
<g id="node10" class="node">
<title>xeus&#45;robot</title>
<g id="a_node10"><a xlink:href="https://github.com/conda-forge/xeus-robot-feedstock" xlink:title="xeus robot">
<ellipse fill="#fde725" stroke="black" cx="394.26" cy="-90" rx="48.19" ry="18"/>
<text text-anchor="middle" x="394.26" y="-86.3" font-family="Times,serif" font-size="14.00">xeus robot</text>
</a>
</g>
</g>
<!-- cppzmq&#45;&gt;xeus&#45;robot -->
<g id="edge9" class="edge">
<title>cppzmq&#45;&gt;xeus&#45;robot</title>
<path fill="none" stroke="black" d="M422.77,-287.85C417.41,-250.83 404.71,-163.18 398.22,-118.39"/>
<polygon fill="black" stroke="black" points="401.65,-117.63 396.75,-108.23 394.72,-118.63 401.65,-117.63"/>
</g>
<!-- xeus&#45;&gt;xeus&#45;python -->
<g id="edge10" class="edge">
<title>xeus&#45;&gt;xeus&#45;python</title>
<path fill="none" stroke="black" d="M332.86,-216.41C329.74,-208.34 325.92,-198.43 322.42,-189.35"/>
<polygon fill="black" stroke="black" points="325.66,-188.03 318.8,-179.96 319.13,-190.55 325.66,-188.03"/>
</g>
<!-- xeus&#45;&gt;xeus&#45;cling -->
<g id="edge11" class="edge">
<title>xeus&#45;&gt;xeus&#45;cling</title>
<path fill="none" stroke="black" d="M363.99,-226.54C408.36,-214.95 502.2,-190.44 559.49,-175.48"/>
<polygon fill="black" stroke="black" points="560.6,-178.8 569.39,-172.89 558.83,-172.03 560.6,-178.8"/>
</g>
<!-- xeus&#45;&gt;cadabra2 -->
<g id="edge12" class="edge">
<title>xeus&#45;&gt;cadabra2</title>
<path fill="none" stroke="black" d="M359.34,-221.75C378.51,-211.02 407.75,-194.64 430.5,-181.9"/>
<polygon fill="black" stroke="black" points="432.47,-184.81 439.49,-176.87 429.05,-178.7 432.47,-184.81"/>
</g>
<!-- xeus&#45;&gt;xeus&#45;sqlite -->
<g id="edge13" class="edge">
<title>xeus&#45;&gt;xeus&#45;sqlite</title>
<path fill="none" stroke="black" d="M317.88,-222.82C294.84,-211.85 257.73,-194.18 229.81,-180.88"/>
<polygon fill="black" stroke="black" points="231.26,-177.7 220.72,-176.56 228.25,-184.02 231.26,-177.7"/>
</g>
<!-- xeus&#45;python&#45;&gt;xeus&#45;robot -->
<g id="edge14" class="edge">
<title>xeus&#45;python&#45;&gt;xeus&#45;robot</title>
<path fill="none" stroke="black" d="M331.27,-144.76C342.19,-135.45 356.06,-123.61 368,-113.41"/>
<polygon fill="black" stroke="black" points="370.57,-115.82 375.9,-106.67 366.03,-110.5 370.57,-115.82"/>
</g>
<!-- gap -->
<g id="node11" class="node">
<title>gap</title>
<g id="a_node11"><a xlink:href="https://github.com/conda-forge/gap-feedstock" xlink:title="gap">
<ellipse fill="#fde725" stroke="black" cx="823.26" cy="-306" rx="27" ry="18"/>
<text text-anchor="middle" x="823.26" y="-302.3" font-family="Times,serif" font-size="14.00">gap</text>
</a>
</g>
</g>
<!-- pyzmq -->
<g id="node12" class="node">
<title>pyzmq</title>
<g id="a_node12"><a xlink:href="https://github.com/conda-forge/pyzmq-feedstock" xlink:title="pyzmq">
<ellipse fill="#fde725" stroke="black" cx="743.26" cy="-306" rx="35.19" ry="18"/>
<text text-anchor="middle" x="743.26" y="-302.3" font-family="Times,serif" font-size="14.00">pyzmq</text>
</a>
</g>
</g>
<!-- pyzmq&#45;&gt;xeus&#45;cling -->
<g id="edge15" class="edge">
<title>pyzmq&#45;&gt;xeus&#45;cling</title>
<path fill="none" stroke="black" d="M754.02,-288.69C765.13,-269.57 778.84,-237.76 763.26,-216 740.82,-184.68 698.8,-171.64 664.02,-166.32"/>
<polygon fill="black" stroke="black" points="664.34,-162.84 653.96,-164.96 663.4,-169.77 664.34,-162.84"/>
</g>
<!-- pyzmq&#45;&gt;gnuradio -->
<g id="edge16" class="edge">
<title>pyzmq&#45;&gt;gnuradio</title>
<path fill="none" stroke="black" d="M735.75,-288.05C732.17,-279.97 727.81,-270.12 723.82,-261.11"/>
<polygon fill="black" stroke="black" points="726.94,-259.52 719.69,-251.79 720.54,-262.35 726.94,-259.52"/>
</g>
<!-- cis_interface -->
<g id="node13" class="node">
<title>cis_interface</title>
<g id="a_node13"><a xlink:href="https://github.com/conda-forge/cis_interface-feedstock" xlink:title="cis_interface">
<ellipse fill="#fde725" stroke="black" cx="904.26" cy="-234" rx="56" ry="18"/>
<text text-anchor="middle" x="904.26" y="-230.3" font-family="Times,serif" font-size="14.00">cis_interface</text>
</a>
</g>
</g>
<!-- pyzmq&#45;&gt;cis_interface -->
<g id="edge17" class="edge">
<title>pyzmq&#45;&gt;cis_interface</title>
<path fill="none" stroke="black" d="M769.12,-293.75C794.47,-282.73 833.5,-265.77 863.1,-252.89"/>
<polygon fill="black" stroke="black" points="864.58,-256.07 872.36,-248.87 861.79,-249.65 864.58,-256.07"/>
</g>
<!-- yggdrasil -->
<g id="node14" class="node">
<title>yggdrasil</title>
<g id="a_node14"><a xlink:href="https://github.com/conda-forge/yggdrasil-feedstock" xlink:title="yggdrasil">
<ellipse fill="#fde725" stroke="black" cx="1022.26" cy="-234" rx="43.59" ry="18"/>
<text text-anchor="middle" x="1022.26" y="-230.3" font-family="Times,serif" font-size="14.00">yggdrasil</text>
</a>
</g>
</g>
<!-- pyzmq&#45;&gt;yggdrasil -->
<g id="edge18" class="edge">
<title>pyzmq&#45;&gt;yggdrasil</title>
<path fill="none" stroke="black" d="M769.53,-294C775.3,-291.82 781.43,-289.69 787.26,-288 866.46,-265.06 889.42,-272.63 969.26,-252 972.68,-251.12 976.21,-250.14 979.74,-249.11"/>
<polygon fill="black" stroke="black" points="981.07,-252.36 989.63,-246.11 979.05,-245.66 981.07,-252.36"/>
</g>
<!-- r&#45;pbdzmq -->
<g id="node15" class="node">
<title>r&#45;pbdzmq</title>
<g id="a_node15"><a xlink:href="https://github.com/conda-forge/r-pbdzmq-feedstock" xlink:title="r pbdzmq">
<ellipse fill="#fde725" stroke="black" cx="1129.26" cy="-234" rx="45" ry="18"/>
<text text-anchor="middle" x="1129.26" y="-230.3" font-family="Times,serif" font-size="14.00">r pbdzmq</text>
</a>
</g>
</g>
<!-- r&#45;rzmq -->
<g id="node16" class="node">
<title>r&#45;rzmq</title>
<g id="a_node16"><a xlink:href="https://github.com/conda-forge/r-rzmq-feedstock" xlink:title="r rzmq">
<ellipse fill="#fde725" stroke="black" cx="1177.26" cy="-162" rx="34.5" ry="18"/>
<text text-anchor="middle" x="1177.26" y="-158.3" font-family="Times,serif" font-size="14.00">r rzmq</text>
</a>
</g>
</g>
<!-- zeromq -->
<g id="node17" class="node">
<title>zeromq</title>
<g id="a_node17"><a xlink:href="https://github.com/conda-forge/zeromq-feedstock" xlink:title="zeromq">
<ellipse fill="#35b779" stroke="black" cx="823.26" cy="-378" rx="37.89" ry="18"/>
<text text-anchor="middle" x="823.26" y="-374.3" font-family="Times,serif" font-size="14.00">zeromq</text>
</a>
</g>
</g>
<!-- zeromq&#45;&gt;cppzmq -->
<g id="edge19" class="edge">
<title>zeromq&#45;&gt;cppzmq</title>
<path fill="none" stroke="black" d="M788.28,-370.85C716.4,-358.21 552.03,-329.3 471.48,-315.13"/>
<polygon fill="black" stroke="black" points="471.6,-311.6 461.15,-313.31 470.39,-318.49 471.6,-311.6"/>
</g>
<!-- zeromq&#45;&gt;xeus -->
<g id="edge20" class="edge">
<title>zeromq&#45;&gt;xeus</title>
<path fill="none" stroke="black" d="M785.52,-377.23C689.95,-377.1 441.39,-372.02 377.26,-324 357.67,-309.34 348.07,-282.56 343.44,-262.19"/>
<polygon fill="black" stroke="black" points="346.83,-261.34 341.44,-252.22 339.97,-262.72 346.83,-261.34"/>
</g>
<!-- zeromq&#45;&gt;xeus&#45;python -->
<g id="edge21" class="edge">
<title>zeromq&#45;&gt;xeus&#45;python</title>
<path fill="none" stroke="black" d="M785.31,-377.64C640.52,-379.13 126.53,-375.55 39.26,-252 -49.46,-126.4 19.96,-230.48 249.26,-180 253.67,-179.03 258.24,-177.95 262.8,-176.81"/>
<polygon fill="black" stroke="black" points="263.92,-180.14 272.74,-174.27 262.18,-173.36 263.92,-180.14"/>
</g>
<!-- zeromq&#45;&gt;xeus&#45;cling -->
<g id="edge22" class="edge">
<title>zeromq&#45;&gt;xeus&#45;cling</title>
<path fill="none" stroke="black" d="M788.52,-370.63C758.82,-363.64 716.53,-349.79 688.26,-324 647.82,-287.12 624.83,-225.48 614.32,-190.13"/>
<polygon fill="black" stroke="black" points="617.55,-188.72 611.45,-180.06 610.82,-190.64 617.55,-188.72"/>
</g>
<!-- zeromq&#45;&gt;libignition&#45;transport4 -->
<g id="edge23" class="edge">
<title>zeromq&#45;&gt;libignition&#45;transport4</title>
<path fill="none" stroke="black" d="M785.66,-376.37C704.5,-374.25 507.37,-364.93 348.26,-324 284.78,-307.67 215.42,-276.3 173.11,-255.5"/>
<polygon fill="black" stroke="black" points="174.51,-252.29 163.99,-250.98 171.4,-258.56 174.51,-252.29"/>
</g>
<!-- zeromq&#45;&gt;gnuradio -->
<g id="edge24" class="edge">
<title>zeromq&#45;&gt;gnuradio</title>
<path fill="none" stroke="black" d="M787.32,-372.4C758.11,-366.55 718.67,-353.41 699.26,-324 687.02,-305.47 692.39,-280.06 699.58,-261.13"/>
<polygon fill="black" stroke="black" points="702.81,-262.48 703.43,-251.9 696.35,-259.79 702.81,-262.48"/>
</g>
<!-- zeromq&#45;&gt;cadabra2 -->
<g id="edge25" class="edge">
<title>zeromq&#45;&gt;cadabra2</title>
<path fill="none" stroke="black" d="M786.91,-372.74C750.5,-366.92 694.41,-353.61 655.26,-324 609.44,-289.35 628.1,-253.12 584.26,-216 562.33,-197.44 532.89,-184.3 508.65,-175.75"/>
<polygon fill="black" stroke="black" points="509.55,-172.36 498.96,-172.47 507.31,-178.99 509.55,-172.36"/>
</g>
<!-- zeromq&#45;&gt;xeus&#45;sqlite -->
<g id="edge26" class="edge">
<title>zeromq&#45;&gt;xeus&#45;sqlite</title>
<path fill="none" stroke="black" d="M785.8,-375.87C644.21,-371.37 146.46,-353.59 82.26,-324 30.09,-299.95 -23.19,-261.97 11.26,-216 26.65,-195.45 91.12,-180.19 138.76,-171.45"/>
<polygon fill="black" stroke="black" points="139.41,-174.88 148.64,-169.68 138.18,-167.99 139.41,-174.88"/>
</g>
<!-- zeromq&#45;&gt;gems3k -->
<g id="edge27" class="edge">
<title>zeromq&#45;&gt;gems3k</title>
<path fill="none" stroke="black" d="M785.25,-377.25C735.8,-375.73 648.81,-366.57 590.26,-324 568.98,-308.53 554.71,-281.68 546.39,-261.5"/>
<polygon fill="black" stroke="black" points="549.56,-259.99 542.68,-251.94 543.03,-262.53 549.56,-259.99"/>
</g>
<!-- zeromq&#45;&gt;xeus&#45;robot -->
<g id="edge28" class="edge">
<title>zeromq&#45;&gt;xeus&#45;robot</title>
<path fill="none" stroke="black" d="M837.74,-361.17C845.79,-351.27 855.01,-337.82 859.26,-324 863.96,-308.71 865.67,-302.66 859.26,-288 837.58,-238.49 713.62,-163.6 663.26,-144 592.89,-116.61 506.45,-102.82 450.86,-96.28"/>
<polygon fill="black" stroke="black" points="451.19,-92.8 440.86,-95.15 450.4,-99.75 451.19,-92.8"/>
</g>
<!-- zeromq&#45;&gt;gap -->
<g id="edge29" class="edge">
<title>zeromq&#45;&gt;gap</title>
<path fill="none" stroke="black" d="M823.26,-359.7C823.26,-351.98 823.26,-342.71 823.26,-334.11"/>
<polygon fill="black" stroke="black" points="826.76,-334.1 823.26,-324.1 819.76,-334.1 826.76,-334.1"/>
</g>
<!-- zeromq&#45;&gt;pyzmq -->
<g id="edge30" class="edge">
<title>zeromq&#45;&gt;pyzmq</title>
<path fill="none" stroke="black" d="M805.9,-361.81C794.81,-352.11 780.27,-339.39 767.99,-328.64"/>
<polygon fill="black" stroke="black" points="770.14,-325.87 760.31,-321.92 765.53,-331.14 770.14,-325.87"/>
</g>
<!-- zeromq&#45;&gt;cis_interface -->
<g id="edge31" class="edge">
<title>zeromq&#45;&gt;cis_interface</title>
<path fill="none" stroke="black" d="M848.42,-364.3C863.68,-355.22 882.11,-341.52 892.26,-324 903.03,-305.39 905.68,-281 905.83,-262.46"/>
<polygon fill="black" stroke="black" points="909.33,-262.25 905.67,-252.3 902.33,-262.36 909.33,-262.25"/>
</g>
<!-- zeromq&#45;&gt;yggdrasil -->
<g id="edge32" class="edge">
<title>zeromq&#45;&gt;yggdrasil</title>
<path fill="none" stroke="black" d="M859.15,-372.04C909.05,-364.36 995.5,-347.94 1015.26,-324 1029.24,-307.06 1029.88,-281.59 1027.67,-262.23"/>
<polygon fill="black" stroke="black" points="1031.12,-261.59 1026.22,-252.2 1024.19,-262.6 1031.12,-261.59"/>
</g>
<!-- zeromq&#45;&gt;r&#45;pbdzmq -->
<g id="edge33" class="edge">
<title>zeromq&#45;&gt;r&#45;pbdzmq</title>
<path fill="none" stroke="black" d="M860.01,-373.66C904.21,-368.38 979.52,-355.27 1036.26,-324 1065.84,-307.7 1092.92,-279.61 1110.13,-259.35"/>
<polygon fill="black" stroke="black" points="1112.97,-261.4 1116.66,-251.47 1107.58,-256.93 1112.97,-261.4"/>
</g>
<!-- zeromq&#45;&gt;r&#45;rzmq -->
<g id="edge34" class="edge">
<title>zeromq&#45;&gt;r&#45;rzmq</title>
<path fill="none" stroke="black" d="M860.12,-373.49C910.03,-367.8 1001.16,-353.99 1073.26,-324 1127.2,-301.56 1155.47,-303.4 1183.26,-252 1193.52,-233.01 1190.83,-208.31 1186.24,-189.75"/>
<polygon fill="black" stroke="black" points="1189.55,-188.57 1183.49,-179.88 1182.81,-190.45 1189.55,-188.57"/>
</g>
<!-- czmq -->
<g id="node18" class="node">
<title>czmq</title>
<g id="a_node18"><a xlink:href="https://github.com/conda-forge/czmq-feedstock" xlink:title="czmq">
<ellipse fill="#fde725" stroke="black" cx="975.26" cy="-306" rx="30.59" ry="18"/>
<text text-anchor="middle" x="975.26" y="-302.3" font-family="Times,serif" font-size="14.00">czmq</text>
</a>
</g>
</g>
<!-- zeromq&#45;&gt;czmq -->
<g id="edge35" class="edge">
<title>zeromq&#45;&gt;czmq</title>
<path fill="none" stroke="black" d="M849.39,-364.97C875.2,-353.08 914.76,-334.86 942.63,-322.03"/>
<polygon fill="black" stroke="black" points="944.34,-325.09 951.96,-317.73 941.41,-318.73 944.34,-325.09"/>
</g>
<!-- helics -->
<g id="node19" class="node">
<title>helics</title>
<g id="a_node19"><a xlink:href="https://github.com/conda-forge/helics-feedstock" xlink:title="helics">
<ellipse fill="#fde725" stroke="black" cx="1219.26" cy="-90" rx="31.4" ry="18"/>
<text text-anchor="middle" x="1219.26" y="-86.3" font-family="Times,serif" font-size="14.00">helics</text>
</a>
</g>
</g>
<!-- zeromq&#45;&gt;helics -->
<g id="edge36" class="edge">
<title>zeromq&#45;&gt;helics</title>
<path fill="none" stroke="black" d="M861.23,-377.59C921.32,-377 1040.48,-369.55 1128.26,-324 1195.88,-288.9 1210.48,-255.42 1221.26,-180 1224.19,-159.47 1223.5,-136.02 1222.18,-118.34"/>
<polygon fill="black" stroke="black" points="1225.64,-117.82 1221.3,-108.16 1218.67,-118.42 1225.64,-117.82"/>
</g>
<!-- r&#45;clustermq -->
<g id="node20" class="node">
<title>r&#45;clustermq</title>
<g id="a_node20"><a xlink:href="https://github.com/conda-forge/r-clustermq-feedstock" xlink:title="r clustermq">
<ellipse fill="#fde725" stroke="black" cx="1278.26" cy="-18" rx="51.5" ry="18"/>
<text text-anchor="middle" x="1278.26" y="-14.3" font-family="Times,serif" font-size="14.00">r clustermq</text>
</a>
</g>
</g>
<!-- zeromq&#45;&gt;r&#45;clustermq -->
<g id="edge37" class="edge">
<title>zeromq&#45;&gt;r&#45;clustermq</title>
<path fill="none" stroke="black" d="M861.03,-377.52C926.48,-377.08 1063.92,-370.13 1168.26,-324 1225.77,-298.57 1278.26,-297.89 1278.26,-235 1278.26,-235 1278.26,-235 1278.26,-161 1278.26,-121 1278.26,-74.65 1278.26,-46.08"/>
<polygon fill="black" stroke="black" points="1281.76,-46.05 1278.26,-36.05 1274.76,-46.05 1281.76,-46.05"/>
</g>
<!-- adios2 -->
<g id="node21" class="node">
<title>adios2</title>
<g id="a_node21"><a xlink:href="https://github.com/conda-forge/adios2-feedstock" xlink:title="adios2">
<ellipse fill="#fde725" stroke="black" cx="1340.26" cy="-306" rx="34" ry="18"/>
<text text-anchor="middle" x="1340.26" y="-302.3" font-family="Times,serif" font-size="14.00">adios2</text>
</a>
</g>
</g>
<!-- zeromq&#45;&gt;adios2 -->
<g id="edge38" class="edge">
<title>zeromq&#45;&gt;adios2</title>
<path fill="none" stroke="black" d="M860.83,-375.65C941.04,-372.15 1134.55,-360.34 1292.26,-324 1296.17,-323.1 1300.2,-321.98 1304.19,-320.76"/>
<polygon fill="black" stroke="black" points="1305.52,-324 1313.92,-317.54 1303.32,-317.36 1305.52,-324"/>
</g>
<!-- zmqpp -->
<g id="node22" class="node">
<title>zmqpp</title>
<g id="a_node22"><a xlink:href="https://github.com/conda-forge/zmqpp-feedstock" xlink:title="zmqpp">
<ellipse fill="#fde725" stroke="black" cx="1402.26" cy="-234" rx="35.19" ry="18"/>
<text text-anchor="middle" x="1402.26" y="-230.3" font-family="Times,serif" font-size="14.00">zmqpp</text>
</a>
</g>
</g>
<!-- zeromq&#45;&gt;zmqpp -->
<g id="edge39" class="edge">
<title>zeromq&#45;&gt;zmqpp</title>
<path fill="none" stroke="black" d="M860.8,-375.98C979.98,-372.4 1344.28,-358.7 1383.26,-324 1400.36,-308.77 1404.19,-282.26 1404.29,-262.12"/>
<polygon fill="black" stroke="black" points="1407.78,-261.89 1404.04,-251.98 1400.79,-262.06 1407.78,-261.89"/>
</g>
<!-- czmq&#45;&gt;cis_interface -->
<g id="edge40" class="edge">
<title>czmq&#45;&gt;cis_interface</title>
<path fill="none" stroke="black" d="M960.2,-290.15C950.9,-280.98 938.75,-269.01 928.16,-258.56"/>
<polygon fill="black" stroke="black" points="930.36,-255.82 920.78,-251.29 925.44,-260.8 930.36,-255.82"/>
</g>
<!-- czmq&#45;&gt;yggdrasil -->
<g id="edge41" class="edge">
<title>czmq&#45;&gt;yggdrasil</title>
<path fill="none" stroke="black" d="M985.92,-289.12C991.64,-280.59 998.83,-269.89 1005.3,-260.25"/>
<polygon fill="black" stroke="black" points="1008.31,-262.05 1010.98,-251.8 1002.5,-258.15 1008.31,-262.05"/>
</g>
</g>
</svg>
