<?xml version="1.0" encoding="UTF-8" standalone="no"?>
<!DOCTYPE svg PUBLIC "-//W3C//DTD SVG 1.1//EN"
 "http://www.w3.org/Graphics/SVG/1.1/DTD/svg11.dtd">
<!-- Generated by graphviz version 2.42.3 (20191010.1750)
 -->
<!-- Title: %3 Pages: 1 -->
<svg width="1065pt" height="476pt"
 viewBox="0.00 0.00 1065.00 476.00" xmlns="http://www.w3.org/2000/svg" xmlns:xlink="http://www.w3.org/1999/xlink">
<g id="graph0" class="graph" transform="scale(1 1) rotate(0) translate(4 472)">
<title>%3</title>
<polygon fill="white" stroke="transparent" points="-4,4 -4,-472 1061,-472 1061,4 -4,4"/>
<!-- cppzmq -->
<g id="node1" class="node">
<title>cppzmq</title>
<g id="a_node1"><a xlink:href="https://github.com/conda-forge/cppzmq-feedstock" xlink:title="cppzmq">
<ellipse fill="#35b779" stroke="black" cx="279.5" cy="-342" rx="39" ry="18"/>
<text text-anchor="middle" x="279.5" y="-338.3" font-family="Times,serif" font-size="14.00">cppzmq</text>
</a>
</g>
</g>
<!-- xeus -->
<g id="node2" class="node">
<title>xeus</title>
<g id="a_node2"><a xlink:href="https://github.com/conda-forge/xeus-feedstock" xlink:title="xeus">
<ellipse fill="#fde725" stroke="black" cx="279.5" cy="-270" rx="27" ry="18"/>
<text text-anchor="middle" x="279.5" y="-266.3" font-family="Times,serif" font-size="14.00">xeus</text>
</a>
</g>
</g>
<!-- cppzmq&#45;&gt;xeus -->
<g id="edge1" class="edge">
<title>cppzmq&#45;&gt;xeus</title>
<path fill="none" stroke="black" d="M279.5,-323.7C279.5,-315.98 279.5,-306.71 279.5,-298.11"/>
<polygon fill="black" stroke="black" points="283,-298.1 279.5,-288.1 276,-298.1 283,-298.1"/>
</g>
<!-- xeus&#45;python -->
<g id="node3" class="node">
<title>xeus&#45;python</title>
<g id="a_node3"><a xlink:href="https://github.com/conda-forge/xeus-python-feedstock" xlink:title="xeus python">
<ellipse fill="#fde725" stroke="black" cx="403.5" cy="-198" rx="54" ry="18"/>
<text text-anchor="middle" x="403.5" y="-194.3" font-family="Times,serif" font-size="14.00">xeus python</text>
</a>
</g>
</g>
<!-- cppzmq&#45;&gt;xeus&#45;python -->
<g id="edge2" class="edge">
<title>cppzmq&#45;&gt;xeus&#45;python</title>
<path fill="none" stroke="black" d="M292.31,-324.99C306.83,-306.98 331.38,-276.97 353.5,-252 362.06,-242.33 371.75,-231.95 380.3,-222.95"/>
<polygon fill="black" stroke="black" points="383.08,-225.11 387.46,-215.46 378.02,-220.27 383.08,-225.11"/>
</g>
<!-- xeus&#45;cling -->
<g id="node4" class="node">
<title>xeus&#45;cling</title>
<g id="a_node4"><a xlink:href="https://github.com/conda-forge/xeus-cling-feedstock" xlink:title="xeus cling">
<ellipse fill="#fde725" stroke="black" cx="560.5" cy="-198" rx="47" ry="18"/>
<text text-anchor="middle" x="560.5" y="-194.3" font-family="Times,serif" font-size="14.00">xeus cling</text>
</a>
</g>
</g>
<!-- cppzmq&#45;&gt;xeus&#45;cling -->
<g id="edge3" class="edge">
<title>cppzmq&#45;&gt;xeus&#45;cling</title>
<path fill="none" stroke="black" d="M317.8,-338.33C382.71,-333 510.37,-318.8 541.5,-288 557.52,-272.16 561.58,-246.35 562.05,-226.59"/>
<polygon fill="black" stroke="black" points="565.55,-226.32 561.99,-216.34 558.55,-226.36 565.55,-226.32"/>
</g>
<!-- libignition&#45;transport4 -->
<g id="node5" class="node">
<title>libignition&#45;transport4</title>
<g id="a_node5"><a xlink:href="https://github.com/conda-forge/libignition-transport4-feedstock" xlink:title="libignition transport4">
<ellipse fill="#fde725" stroke="black" cx="447.5" cy="-270" rx="85.29" ry="18"/>
<text text-anchor="middle" x="447.5" y="-266.3" font-family="Times,serif" font-size="14.00">libignition transport4</text>
</a>
</g>
</g>
<!-- cppzmq&#45;&gt;libignition&#45;transport4 -->
<g id="edge4" class="edge">
<title>cppzmq&#45;&gt;libignition&#45;transport4</title>
<path fill="none" stroke="black" d="M307.62,-329.28C333.16,-318.64 371.31,-302.75 401.32,-290.24"/>
<polygon fill="black" stroke="black" points="402.87,-293.39 410.75,-286.31 400.18,-286.93 402.87,-293.39"/>
</g>
<!-- gnuradio -->
<g id="node6" class="node">
<title>gnuradio</title>
<g id="a_node6"><a xlink:href="https://github.com/conda-forge/gnuradio-feedstock" xlink:title="gnuradio">
<ellipse fill="#fde725" stroke="black" cx="630.5" cy="-270" rx="42.49" ry="18"/>
<text text-anchor="middle" x="630.5" y="-266.3" font-family="Times,serif" font-size="14.00">gnuradio</text>
</a>
</g>
</g>
<!-- cppzmq&#45;&gt;gnuradio -->
<g id="edge5" class="edge">
<title>cppzmq&#45;&gt;gnuradio</title>
<path fill="none" stroke="black" d="M316.58,-335.76C372.77,-327.51 482.68,-310.11 574.5,-288 578.9,-286.94 583.46,-285.74 587.99,-284.47"/>
<polygon fill="black" stroke="black" points="589.18,-287.77 597.81,-281.63 587.23,-281.05 589.18,-287.77"/>
</g>
<!-- cadabra2 -->
<g id="node7" class="node">
<title>cadabra2</title>
<g id="a_node7"><a xlink:href="https://github.com/conda-forge/cadabra2-feedstock" xlink:title="cadabra2">
<ellipse fill="#fde725" stroke="black" cx="175.5" cy="-198" rx="42.49" ry="18"/>
<text text-anchor="middle" x="175.5" y="-194.3" font-family="Times,serif" font-size="14.00">cadabra2</text>
</a>
</g>
</g>
<!-- cppzmq&#45;&gt;cadabra2 -->
<g id="edge6" class="edge">
<title>cppzmq&#45;&gt;cadabra2</title>
<path fill="none" stroke="black" d="M265.59,-325.1C256.71,-314.74 245.11,-300.82 235.5,-288 219.9,-267.17 203.46,-242.58 191.74,-224.53"/>
<polygon fill="black" stroke="black" points="194.44,-222.25 186.08,-215.75 188.56,-226.05 194.44,-222.25"/>
</g>
<!-- xeus&#45;sqlite -->
<g id="node8" class="node">
<title>xeus&#45;sqlite</title>
<g id="a_node8"><a xlink:href="https://github.com/conda-forge/xeus-sqlite-feedstock" xlink:title="xeus sqlite">
<ellipse fill="#fde725" stroke="black" cx="283.5" cy="-198" rx="48.19" ry="18"/>
<text text-anchor="middle" x="283.5" y="-194.3" font-family="Times,serif" font-size="14.00">xeus sqlite</text>
</a>
</g>
</g>
<!-- cppzmq&#45;&gt;xeus&#45;sqlite -->
<g id="edge7" class="edge">
<title>cppzmq&#45;&gt;xeus&#45;sqlite</title>
<path fill="none" stroke="black" d="M265.01,-325.17C256.97,-315.27 247.75,-301.82 243.5,-288 238.8,-272.71 238.42,-267.17 243.5,-252 247.05,-241.4 253.66,-231.22 260.49,-222.67"/>
<polygon fill="black" stroke="black" points="263.19,-224.89 267.02,-215.01 257.87,-220.35 263.19,-224.89"/>
</g>
<!-- gems3k -->
<g id="node9" class="node">
<title>gems3k</title>
<g id="a_node9"><a xlink:href="https://github.com/conda-forge/gems3k-feedstock" xlink:title="gems3k">
<ellipse fill="#fde725" stroke="black" cx="38.5" cy="-198" rx="38.5" ry="18"/>
<text text-anchor="middle" x="38.5" y="-194.3" font-family="Times,serif" font-size="14.00">gems3k</text>
</a>
</g>
</g>
<!-- cppzmq&#45;&gt;gems3k -->
<g id="edge8" class="edge">
<title>cppzmq&#45;&gt;gems3k</title>
<path fill="none" stroke="black" d="M241.21,-338.5C200.37,-334.08 135.63,-321.84 91.5,-288 70.75,-272.08 56.47,-245.53 48.01,-225.56"/>
<polygon fill="black" stroke="black" points="51.18,-224.07 44.21,-216.08 44.68,-226.67 51.18,-224.07"/>
</g>
<!-- xeus&#45;robot -->
<g id="node10" class="node">
<title>xeus&#45;robot</title>
<g id="a_node10"><a xlink:href="https://github.com/conda-forge/xeus-robot-feedstock" xlink:title="xeus robot">
<ellipse fill="#fde725" stroke="black" cx="254.5" cy="-126" rx="48.19" ry="18"/>
<text text-anchor="middle" x="254.5" y="-122.3" font-family="Times,serif" font-size="14.00">xeus robot</text>
</a>
</g>
</g>
<!-- cppzmq&#45;&gt;xeus&#45;robot -->
<g id="edge9" class="edge">
<title>cppzmq&#45;&gt;xeus&#45;robot</title>
<path fill="none" stroke="black" d="M252.22,-328.85C215,-310.55 150.05,-271.98 124.5,-216 117.86,-201.44 115.57,-193.28 124.5,-180 141.27,-155.05 172.06,-141.84 199.47,-134.85"/>
<polygon fill="black" stroke="black" points="200.43,-138.21 209.38,-132.54 198.85,-131.4 200.43,-138.21"/>
</g>
<!-- xeus&#45;&gt;xeus&#45;python -->
<g id="edge10" class="edge">
<title>xeus&#45;&gt;xeus&#45;python</title>
<path fill="none" stroke="black" d="M299.42,-257.75C317.96,-247.29 345.98,-231.47 368.29,-218.88"/>
<polygon fill="black" stroke="black" points="370.15,-221.84 377.14,-213.88 366.71,-215.75 370.15,-221.84"/>
</g>
<!-- xeus&#45;&gt;xeus&#45;cling -->
<g id="edge11" class="edge">
<title>xeus&#45;&gt;xeus&#45;cling</title>
<path fill="none" stroke="black" d="M304.44,-262.79C350.91,-251.21 451.5,-226.15 511.85,-211.12"/>
<polygon fill="black" stroke="black" points="513.05,-214.43 521.9,-208.62 511.35,-207.64 513.05,-214.43"/>
</g>
<!-- xeus&#45;&gt;cadabra2 -->
<g id="edge12" class="edge">
<title>xeus&#45;&gt;cadabra2</title>
<path fill="none" stroke="black" d="M260.91,-256.49C245.54,-246.14 223.43,-231.26 205.56,-219.23"/>
<polygon fill="black" stroke="black" points="207.42,-216.27 197.17,-213.59 203.51,-222.07 207.42,-216.27"/>
</g>
<!-- xeus&#45;&gt;xeus&#45;sqlite -->
<g id="edge13" class="edge">
<title>xeus&#45;&gt;xeus&#45;sqlite</title>
<path fill="none" stroke="black" d="M280.49,-251.7C280.93,-243.98 281.46,-234.71 281.95,-226.11"/>
<polygon fill="black" stroke="black" points="285.45,-226.29 282.52,-216.1 278.46,-225.89 285.45,-226.29"/>
</g>
<!-- xeus&#45;python&#45;&gt;xeus&#45;robot -->
<g id="edge14" class="edge">
<title>xeus&#45;python&#45;&gt;xeus&#45;robot</title>
<path fill="none" stroke="black" d="M373.35,-182.83C350.05,-171.89 317.65,-156.67 292.56,-144.88"/>
<polygon fill="black" stroke="black" points="293.88,-141.63 283.34,-140.55 290.9,-147.97 293.88,-141.63"/>
</g>
<!-- gap -->
<g id="node11" class="node">
<title>gap</title>
<g id="a_node11"><a xlink:href="https://github.com/conda-forge/gap-feedstock" xlink:title="gap">
<ellipse fill="#35b779" stroke="black" cx="1005.5" cy="-450" rx="27" ry="18"/>
<text text-anchor="middle" x="1005.5" y="-446.3" font-family="Times,serif" font-size="14.00">gap</text>
</a>
</g>
</g>
<!-- r&#45;pbdzmq -->
<g id="node12" class="node">
<title>r&#45;pbdzmq</title>
<g id="a_node12"><a xlink:href="https://github.com/conda-forge/r-pbdzmq-feedstock" xlink:title="r pbdzmq">
<ellipse fill="#35b779" stroke="black" cx="1005.5" cy="-378" rx="45" ry="18"/>
<text text-anchor="middle" x="1005.5" y="-374.3" font-family="Times,serif" font-size="14.00">r pbdzmq</text>
</a>
</g>
</g>
<!-- gap&#45;&gt;r&#45;pbdzmq -->
<!-- r&#45;rzmq -->
<g id="node16" class="node">
<title>r&#45;rzmq</title>
<g id="a_node16"><a xlink:href="https://github.com/conda-forge/r-rzmq-feedstock" xlink:title="r rzmq">
<ellipse fill="#35b779" stroke="black" cx="1005.5" cy="-306" rx="34.5" ry="18"/>
<text text-anchor="middle" x="1005.5" y="-302.3" font-family="Times,serif" font-size="14.00">r rzmq</text>
</a>
</g>
</g>
<!-- r&#45;pbdzmq&#45;&gt;r&#45;rzmq -->
<!-- pyzmq -->
<g id="node13" class="node">
<title>pyzmq</title>
<g id="a_node13"><a xlink:href="https://github.com/conda-forge/pyzmq-feedstock" xlink:title="pyzmq">
<ellipse fill="#35b779" stroke="black" cx="729.5" cy="-342" rx="35.19" ry="18"/>
<text text-anchor="middle" x="729.5" y="-338.3" font-family="Times,serif" font-size="14.00">pyzmq</text>
</a>
</g>
</g>
<!-- pyzmq&#45;&gt;xeus&#45;cling -->
<g id="edge16" class="edge">
<title>pyzmq&#45;&gt;xeus&#45;cling</title>
<path fill="none" stroke="black" d="M724.2,-324.12C717.25,-304.45 703.32,-272.1 681.5,-252 660.97,-233.08 632.61,-220.17 608.5,-211.83"/>
<polygon fill="black" stroke="black" points="609.4,-208.45 598.81,-208.64 607.21,-215.1 609.4,-208.45"/>
</g>
<!-- pyzmq&#45;&gt;gnuradio -->
<g id="edge17" class="edge">
<title>pyzmq&#45;&gt;gnuradio</title>
<path fill="none" stroke="black" d="M709.47,-326.83C695.26,-316.79 675.96,-303.15 660,-291.86"/>
<polygon fill="black" stroke="black" points="661.72,-288.78 651.53,-285.87 657.67,-294.5 661.72,-288.78"/>
</g>
<!-- cis_interface -->
<g id="node14" class="node">
<title>cis_interface</title>
<g id="a_node14"><a xlink:href="https://github.com/conda-forge/cis_interface-feedstock" xlink:title="cis_interface">
<ellipse fill="#fde725" stroke="black" cx="784.5" cy="-270" rx="56" ry="18"/>
<text text-anchor="middle" x="784.5" y="-266.3" font-family="Times,serif" font-size="14.00">cis_interface</text>
</a>
</g>
</g>
<!-- pyzmq&#45;&gt;cis_interface -->
<g id="edge18" class="edge">
<title>pyzmq&#45;&gt;cis_interface</title>
<path fill="none" stroke="black" d="M741.98,-325.12C748.81,-316.42 757.43,-305.45 765.12,-295.66"/>
<polygon fill="black" stroke="black" points="767.88,-297.82 771.3,-287.8 762.37,-293.5 767.88,-297.82"/>
</g>
<!-- yggdrasil -->
<g id="node15" class="node">
<title>yggdrasil</title>
<g id="a_node15"><a xlink:href="https://github.com/conda-forge/yggdrasil-feedstock" xlink:title="yggdrasil">
<ellipse fill="#fde725" stroke="black" cx="902.5" cy="-270" rx="43.59" ry="18"/>
<text text-anchor="middle" x="902.5" y="-266.3" font-family="Times,serif" font-size="14.00">yggdrasil</text>
</a>
</g>
</g>
<!-- pyzmq&#45;&gt;yggdrasil -->
<g id="edge19" class="edge">
<title>pyzmq&#45;&gt;yggdrasil</title>
<path fill="none" stroke="black" d="M756.15,-330.22C784.71,-318.66 830.33,-300.2 863.04,-286.97"/>
<polygon fill="black" stroke="black" points="864.37,-290.21 872.32,-283.21 861.74,-283.72 864.37,-290.21"/>
</g>
<!-- helics -->
<g id="node17" class="node">
<title>helics</title>
<g id="a_node17"><a xlink:href="https://github.com/conda-forge/helics-feedstock" xlink:title="helics">
<ellipse fill="#35b779" stroke="black" cx="1005.5" cy="-234" rx="31.4" ry="18"/>
<text text-anchor="middle" x="1005.5" y="-230.3" font-family="Times,serif" font-size="14.00">helics</text>
</a>
</g>
</g>
<!-- r&#45;rzmq&#45;&gt;helics -->
<!-- r&#45;clustermq -->
<g id="node19" class="node">
<title>r&#45;clustermq</title>
<g id="a_node19"><a xlink:href="https://github.com/conda-forge/r-clustermq-feedstock" xlink:title="r clustermq">
<ellipse fill="#35b779" stroke="black" cx="1005.5" cy="-162" rx="51.5" ry="18"/>
<text text-anchor="middle" x="1005.5" y="-158.3" font-family="Times,serif" font-size="14.00">r clustermq</text>
</a>
</g>
</g>
<!-- helics&#45;&gt;r&#45;clustermq -->
<!-- czmq -->
<g id="node18" class="node">
<title>czmq</title>
<g id="a_node18"><a xlink:href="https://github.com/conda-forge/czmq-feedstock" xlink:title="czmq">
<ellipse fill="#35b779" stroke="black" cx="872.5" cy="-342" rx="30.59" ry="18"/>
<text text-anchor="middle" x="872.5" y="-338.3" font-family="Times,serif" font-size="14.00">czmq</text>
</a>
</g>
</g>
<!-- czmq&#45;&gt;cis_interface -->
<g id="edge22" class="edge">
<title>czmq&#45;&gt;cis_interface</title>
<path fill="none" stroke="black" d="M855.11,-327.17C842.97,-317.51 826.5,-304.41 812.51,-293.28"/>
<polygon fill="black" stroke="black" points="814.63,-290.49 804.62,-287.01 810.27,-295.97 814.63,-290.49"/>
</g>
<!-- czmq&#45;&gt;yggdrasil -->
<g id="edge23" class="edge">
<title>czmq&#45;&gt;yggdrasil</title>
<path fill="none" stroke="black" d="M879.61,-324.41C883.07,-316.34 887.32,-306.43 891.21,-297.35"/>
<polygon fill="black" stroke="black" points="894.51,-298.53 895.23,-287.96 888.08,-295.77 894.51,-298.53"/>
</g>
<!-- adios2 -->
<g id="node20" class="node">
<title>adios2</title>
<g id="a_node20"><a xlink:href="https://github.com/conda-forge/adios2-feedstock" xlink:title="adios2">
<ellipse fill="#35b779" stroke="black" cx="1005.5" cy="-90" rx="34" ry="18"/>
<text text-anchor="middle" x="1005.5" y="-86.3" font-family="Times,serif" font-size="14.00">adios2</text>
</a>
</g>
</g>
<!-- r&#45;clustermq&#45;&gt;adios2 -->
<!-- zmqpp -->
<g id="node21" class="node">
<title>zmqpp</title>
<g id="a_node21"><a xlink:href="https://github.com/conda-forge/zmqpp-feedstock" xlink:title="zmqpp">
<ellipse fill="#35b779" stroke="black" cx="1005.5" cy="-18" rx="35.19" ry="18"/>
<text text-anchor="middle" x="1005.5" y="-14.3" font-family="Times,serif" font-size="14.00">zmqpp</text>
</a>
</g>
</g>
<!-- adios2&#45;&gt;zmqpp -->
</g>
</svg>
