<?xml version="1.0" encoding="UTF-8" standalone="no"?>
<!DOCTYPE svg PUBLIC "-//W3C//DTD SVG 1.1//EN"
 "http://www.w3.org/Graphics/SVG/1.1/DTD/svg11.dtd">
<!-- Generated by graphviz version 2.47.1 (20210511.0111)
 -->
<!-- Pages: 1 -->
<svg width="1034pt" height="476pt"
 viewBox="0.00 0.00 1033.55 476.00" xmlns="http://www.w3.org/2000/svg" xmlns:xlink="http://www.w3.org/1999/xlink">
<g id="graph0" class="graph" transform="scale(1 1) rotate(0) translate(4 472)">
<polygon fill="white" stroke="transparent" points="-4,4 -4,-472 1029.55,-472 1029.55,4 -4,4"/>
<!-- bgen -->
<g id="node1" class="node">
<title>bgen</title>
<g id="a_node1"><a xlink:href="https://github.com/conda-forge/bgen-feedstock" xlink:title="bgen">
<ellipse fill="#fde725" stroke="black" cx="891.55" cy="-306" rx="34" ry="18"/>
<text text-anchor="middle" x="891.55" y="-302.3" font-family="Times-Roman" font-size="14.00">bgen</text>
</a>
</g>
</g>
<!-- elfutils -->
<g id="node2" class="node">
<title>elfutils</title>
<g id="a_node2"><a xlink:href="https://github.com/conda-forge/elfutils-feedstock" xlink:title="elfutils">
<ellipse fill="#fde725" stroke="black" cx="937.55" cy="-234" rx="41" ry="18"/>
<text text-anchor="middle" x="937.55" y="-230.3" font-family="Times-Roman" font-size="14.00">elfutils</text>
</a>
</g>
</g>
<!-- rpm&#45;tools -->
<g id="node3" class="node">
<title>rpm&#45;tools</title>
<g id="a_node3"><a xlink:href="https://github.com/conda-forge/rpm-tools-feedstock" xlink:title="rpm tools">
<ellipse fill="#fde725" stroke="black" cx="971.55" cy="-162" rx="54" ry="18"/>
<text text-anchor="middle" x="971.55" y="-158.3" font-family="Times-Roman" font-size="14.00">rpm tools</text>
</a>
</g>
</g>
<!-- elfutils&#45;&gt;rpm&#45;tools -->
<g id="edge1" class="edge">
<title>elfutils&#45;&gt;rpm&#45;tools</title>
<path fill="none" stroke="black" d="M945.78,-216.05C949.65,-208.09 954.35,-198.41 958.67,-189.51"/>
<polygon fill="black" stroke="black" points="961.94,-190.8 963.16,-180.28 955.64,-187.74 961.94,-190.8"/>
</g>
<!-- drpm -->
<g id="node4" class="node">
<title>drpm</title>
<g id="a_node4"><a xlink:href="https://github.com/conda-forge/drpm-feedstock" xlink:title="drpm">
<ellipse fill="#fde725" stroke="black" cx="971.55" cy="-90" rx="35.19" ry="18"/>
<text text-anchor="middle" x="971.55" y="-86.3" font-family="Times-Roman" font-size="14.00">drpm</text>
</a>
</g>
</g>
<!-- rpm&#45;tools&#45;&gt;drpm -->
<g id="edge2" class="edge">
<title>rpm&#45;tools&#45;&gt;drpm</title>
<path fill="none" stroke="black" d="M971.55,-143.7C971.55,-135.98 971.55,-126.71 971.55,-118.11"/>
<polygon fill="black" stroke="black" points="975.05,-118.1 971.55,-108.1 968.05,-118.1 975.05,-118.1"/>
</g>
<!-- gdal -->
<g id="node5" class="node">
<title>gdal</title>
<g id="a_node5"><a xlink:href="https://github.com/conda-forge/gdal-feedstock" xlink:title="gdal">
<ellipse fill="#fde725" stroke="black" cx="39.55" cy="-342" rx="30.59" ry="18"/>
<text text-anchor="middle" x="39.55" y="-338.3" font-family="Times-Roman" font-size="14.00">gdal</text>
</a>
</g>
</g>
<!-- pdal -->
<g id="node6" class="node">
<title>pdal</title>
<g id="a_node6"><a xlink:href="https://github.com/conda-forge/pdal-feedstock" xlink:title="pdal">
<ellipse fill="#fde725" stroke="black" cx="30.55" cy="-270" rx="30.59" ry="18"/>
<text text-anchor="middle" x="30.55" y="-266.3" font-family="Times-Roman" font-size="14.00">pdal</text>
</a>
</g>
</g>
<!-- gdal&#45;&gt;pdal -->
<g id="edge3" class="edge">
<title>gdal&#45;&gt;pdal</title>
<path fill="none" stroke="black" d="M37.32,-323.7C36.33,-315.98 35.14,-306.71 34.03,-298.11"/>
<polygon fill="black" stroke="black" points="37.49,-297.58 32.75,-288.1 30.55,-298.47 37.49,-297.58"/>
</g>
<!-- libarchive -->
<g id="node7" class="node">
<title>libarchive</title>
<g id="a_node7"><a xlink:href="https://github.com/conda-forge/libarchive-feedstock/pull/60" xlink:title="libarchive ✓">
<ellipse fill="#31688e" stroke="black" cx="953.55" cy="-378" rx="65" ry="18"/>
<text text-anchor="middle" x="953.55" y="-374.3" font-family="Times-Roman" font-size="14.00" fill="white">libarchive ✓</text>
</a>
</g>
</g>
<!-- libarchive&#45;&gt;bgen -->
<g id="edge4" class="edge">
<title>libarchive&#45;&gt;bgen</title>
<path fill="none" stroke="black" d="M938.85,-360.41C930.83,-351.35 920.77,-339.99 911.99,-330.08"/>
<polygon fill="black" stroke="black" points="914.54,-327.68 905.29,-322.51 909.3,-332.32 914.54,-327.68"/>
</g>
<!-- libarchive&#45;&gt;elfutils -->
<g id="edge5" class="edge">
<title>libarchive&#45;&gt;elfutils</title>
<path fill="none" stroke="black" d="M951.62,-359.87C948.89,-335.67 943.88,-291.21 940.63,-262.39"/>
<polygon fill="black" stroke="black" points="944.08,-261.73 939.48,-252.19 937.13,-262.52 944.08,-261.73"/>
</g>
<!-- libarchive&#45;&gt;rpm&#45;tools -->
<g id="edge6" class="edge">
<title>libarchive&#45;&gt;rpm&#45;tools</title>
<path fill="none" stroke="black" d="M961.33,-359.73C973.61,-330.4 995.35,-268.85 987.55,-216 986.25,-207.21 983.8,-197.86 981.21,-189.5"/>
<polygon fill="black" stroke="black" points="984.49,-188.29 978.03,-179.9 977.85,-190.49 984.49,-188.29"/>
</g>
<!-- libtiff -->
<g id="node8" class="node">
<title>libtiff</title>
<g id="a_node8"><a xlink:href="https://github.com/conda-forge/libtiff-feedstock/pull/67" xlink:title="libtiff ❎">
<ellipse fill="#31688e" stroke="black" cx="291.55" cy="-414" rx="48.19" ry="18"/>
<text text-anchor="middle" x="291.55" y="-410.3" font-family="Times-Roman" font-size="14.00" fill="white">libtiff ❎</text>
</a>
</g>
</g>
<!-- libtiff&#45;&gt;gdal -->
<g id="edge7" class="edge">
<title>libtiff&#45;&gt;gdal</title>
<path fill="none" stroke="black" d="M254.09,-402.6C206.32,-389.33 124.21,-366.52 76.62,-353.3"/>
<polygon fill="black" stroke="black" points="77.3,-349.85 66.73,-350.55 75.43,-356.6 77.3,-349.85"/>
</g>
<!-- libtiff&#45;&gt;pdal -->
<g id="edge8" class="edge">
<title>libtiff&#45;&gt;pdal</title>
<path fill="none" stroke="black" d="M265.08,-398.6C216.41,-372.12 112.92,-315.82 61.24,-287.7"/>
<polygon fill="black" stroke="black" points="62.68,-284.5 52.22,-282.79 59.33,-290.65 62.68,-284.5"/>
</g>
<!-- graphicsmagick -->
<g id="node9" class="node">
<title>graphicsmagick</title>
<g id="a_node9"><a xlink:href="https://github.com/conda-forge/graphicsmagick-feedstock" xlink:title="graphicsmagick">
<ellipse fill="#fde725" stroke="black" cx="161.55" cy="-270" rx="82.59" ry="18"/>
<text text-anchor="middle" x="161.55" y="-266.3" font-family="Times-Roman" font-size="14.00">graphicsmagick</text>
</a>
</g>
</g>
<!-- libtiff&#45;&gt;graphicsmagick -->
<g id="edge9" class="edge">
<title>libtiff&#45;&gt;graphicsmagick</title>
<path fill="none" stroke="black" d="M276.63,-396.71C253.96,-371.94 210.64,-324.62 184.1,-295.64"/>
<polygon fill="black" stroke="black" points="186.43,-292.99 177.09,-287.98 181.26,-297.72 186.43,-292.99"/>
</g>
<!-- root -->
<g id="node10" class="node">
<title>root</title>
<g id="a_node10"><a xlink:href="https://github.com/conda-forge/root-feedstock" xlink:title="root">
<ellipse fill="#fde725" stroke="black" cx="225.55" cy="-198" rx="28.7" ry="18"/>
<text text-anchor="middle" x="225.55" y="-194.3" font-family="Times-Roman" font-size="14.00">root</text>
</a>
</g>
</g>
<!-- libtiff&#45;&gt;root -->
<g id="edge10" class="edge">
<title>libtiff&#45;&gt;root</title>
<path fill="none" stroke="black" d="M288.94,-395.66C284.12,-365.68 272.51,-302.55 253.55,-252 250,-242.55 245.13,-232.66 240.44,-224.02"/>
<polygon fill="black" stroke="black" points="243.44,-222.21 235.5,-215.21 237.34,-225.64 243.44,-222.21"/>
</g>
<!-- r&#45;seqminer -->
<g id="node11" class="node">
<title>r&#45;seqminer</title>
<g id="a_node11"><a xlink:href="https://github.com/conda-forge/r-seqminer-feedstock" xlink:title="r seqminer">
<ellipse fill="#fde725" stroke="black" cx="285.55" cy="-126" rx="60" ry="18"/>
<text text-anchor="middle" x="285.55" y="-122.3" font-family="Times-Roman" font-size="14.00">r seqminer</text>
</a>
</g>
</g>
<!-- libtiff&#45;&gt;r&#45;seqminer -->
<g id="edge11" class="edge">
<title>libtiff&#45;&gt;r&#45;seqminer</title>
<path fill="none" stroke="black" d="M291.95,-395.82C292.18,-385.44 292.43,-371.96 292.55,-360 293.25,-285.57 289.33,-197.83 287.07,-154.32"/>
<polygon fill="black" stroke="black" points="290.56,-154.04 286.53,-144.24 283.57,-154.41 290.56,-154.04"/>
</g>
<!-- r&#45;qs -->
<g id="node12" class="node">
<title>r&#45;qs</title>
<g id="a_node12"><a xlink:href="https://github.com/conda-forge/r-qs-feedstock" xlink:title="r qs">
<ellipse fill="#fde725" stroke="black" cx="373.55" cy="-54" rx="28.7" ry="18"/>
<text text-anchor="middle" x="373.55" y="-50.3" font-family="Times-Roman" font-size="14.00">r qs</text>
</a>
</g>
</g>
<!-- libtiff&#45;&gt;r&#45;qs -->
<g id="edge12" class="edge">
<title>libtiff&#45;&gt;r&#45;qs</title>
<path fill="none" stroke="black" d="M308.54,-396.85C332.56,-372.18 373.55,-322.53 373.55,-271 373.55,-271 373.55,-271 373.55,-197 373.55,-157 373.55,-110.65 373.55,-82.08"/>
<polygon fill="black" stroke="black" points="377.05,-82.05 373.55,-72.05 370.05,-82.05 377.05,-82.05"/>
</g>
<!-- imagecodecs -->
<g id="node13" class="node">
<title>imagecodecs</title>
<g id="a_node13"><a xlink:href="https://github.com/conda-forge/imagecodecs-feedstock/pull/31" xlink:title="imagecodecs ❎">
<ellipse fill="#31688e" stroke="black" cx="485.55" cy="-342" rx="84" ry="18"/>
<text text-anchor="middle" x="485.55" y="-338.3" font-family="Times-Roman" font-size="14.00" fill="white">imagecodecs ❎</text>
</a>
</g>
</g>
<!-- libtiff&#45;&gt;imagecodecs -->
<g id="edge13" class="edge">
<title>libtiff&#45;&gt;imagecodecs</title>
<path fill="none" stroke="black" d="M322.19,-400C351.34,-388.9 395.65,-372.85 430.82,-360.6"/>
<polygon fill="black" stroke="black" points="432.17,-363.84 440.47,-357.26 429.88,-357.22 432.17,-363.84"/>
</g>
<!-- fwlite -->
<g id="node14" class="node">
<title>fwlite</title>
<g id="a_node14"><a xlink:href="https://github.com/conda-forge/fwlite-feedstock" xlink:title="fwlite">
<ellipse fill="#fde725" stroke="black" cx="172.55" cy="-126" rx="34.5" ry="18"/>
<text text-anchor="middle" x="172.55" y="-122.3" font-family="Times-Roman" font-size="14.00">fwlite</text>
</a>
</g>
</g>
<!-- root&#45;&gt;fwlite -->
<g id="edge14" class="edge">
<title>root&#45;&gt;fwlite</title>
<path fill="none" stroke="black" d="M213.78,-181.46C207.02,-172.53 198.37,-161.11 190.75,-151.04"/>
<polygon fill="black" stroke="black" points="193.47,-148.84 184.64,-142.98 187.89,-153.06 193.47,-148.84"/>
</g>
<!-- imagecodecs&#45;&gt;libtiff -->
<g id="edge15" class="edge">
<title>imagecodecs&#45;&gt;libtiff</title>
<path fill="none" stroke="black" d="M448.74,-358.34C416.99,-370.31 371.14,-386.84 337.09,-398.58"/>
<polygon fill="black" stroke="black" points="335.7,-395.36 327.38,-401.91 337.97,-401.98 335.7,-395.36"/>
</g>
<!-- _libarchive_static_for_cph -->
<g id="node15" class="node">
<title>_libarchive_static_for_cph</title>
<g id="a_node15"><a xlink:href="https://github.com/conda-forge/_libarchive_static_for_cph-feedstock/pull/19" xlink:title="_libarchive_static_for_cph ✓">
<ellipse fill="#31688e" stroke="black" cx="713.55" cy="-450" rx="136" ry="18"/>
<text text-anchor="middle" x="713.55" y="-446.3" font-family="Times-Roman" font-size="14.00" fill="white">_libarchive_static_for_cph ✓</text>
</a>
</g>
</g>
<!-- mysql&#45;connector&#45;cpp -->
<g id="node16" class="node">
<title>mysql&#45;connector&#45;cpp</title>
<g id="a_node16"><a xlink:href="https://github.com/conda-forge/mysql-connector-cpp-feedstock" xlink:title="mysql connector cpp">
<ellipse fill="#35b779" stroke="black" cx="713.55" cy="-378" rx="105.5" ry="18"/>
<text text-anchor="middle" x="713.55" y="-374.3" font-family="Times-Roman" font-size="14.00">mysql connector cpp</text>
</a>
</g>
</g>
<!-- _libarchive_static_for_cph&#45;&gt;mysql&#45;connector&#45;cpp -->
<!-- rocksdb -->
<g id="node17" class="node">
<title>rocksdb</title>
<g id="a_node17"><a xlink:href="https://github.com/conda-forge/rocksdb-feedstock/pull/40" xlink:title="rocksdb ❎">
<ellipse fill="#31688e" stroke="black" cx="713.55" cy="-306" rx="60.5" ry="18"/>
<text text-anchor="middle" x="713.55" y="-302.3" font-family="Times-Roman" font-size="14.00" fill="white">rocksdb ❎</text>
</a>
</g>
</g>
<!-- mysql&#45;connector&#45;cpp&#45;&gt;rocksdb -->
<!-- librepo -->
<g id="node18" class="node">
<title>librepo</title>
<g id="a_node18"><a xlink:href="https://github.com/conda-forge/librepo-feedstock" xlink:title="librepo">
<ellipse fill="#35b779" stroke="black" cx="713.55" cy="-234" rx="41.69" ry="18"/>
<text text-anchor="middle" x="713.55" y="-230.3" font-family="Times-Roman" font-size="14.00">librepo</text>
</a>
</g>
</g>
<!-- rocksdb&#45;&gt;librepo -->
<!-- bgenix -->
<g id="node19" class="node">
<title>bgenix</title>
<g id="a_node19"><a xlink:href="https://github.com/conda-forge/bgenix-feedstock" xlink:title="bgenix">
<ellipse fill="#35b779" stroke="black" cx="713.55" cy="-162" rx="41.69" ry="18"/>
<text text-anchor="middle" x="713.55" y="-158.3" font-family="Times-Roman" font-size="14.00">bgenix</text>
</a>
</g>
</g>
<!-- librepo&#45;&gt;bgenix -->
<!-- btrfs&#45;progs -->
<g id="node20" class="node">
<title>btrfs&#45;progs</title>
<g id="a_node20"><a xlink:href="https://github.com/conda-forge/btrfs-progs-feedstock/pull/2" xlink:title="btrfs progs ✓">
<ellipse fill="#31688e" stroke="black" cx="713.55" cy="-90" rx="71.5" ry="18"/>
<text text-anchor="middle" x="713.55" y="-86.3" font-family="Times-Roman" font-size="14.00" fill="white">btrfs progs ✓</text>
</a>
</g>
</g>
<!-- bgenix&#45;&gt;btrfs&#45;progs -->
<!-- pyzstd -->
<g id="node21" class="node">
<title>pyzstd</title>
<g id="a_node21"><a xlink:href="https://github.com/conda-forge/pyzstd-feedstock" xlink:title="pyzstd">
<ellipse fill="#35b779" stroke="black" cx="713.55" cy="-18" rx="41" ry="18"/>
<text text-anchor="middle" x="713.55" y="-14.3" font-family="Times-Roman" font-size="14.00">pyzstd</text>
</a>
</g>
</g>
<!-- btrfs&#45;progs&#45;&gt;pyzstd -->
</g>
</svg>
